<?xml version="1.0" encoding="utf-8"?>
<!-- Generator: Adobe Illustrator 24.3.0, SVG Export Plug-In . SVG Version: 6.00 Build 0)  -->
<svg version="1.1" id="Layer_1" xmlns="http://www.w3.org/2000/svg" xmlns:xlink="http://www.w3.org/1999/xlink" x="0px" y="0px"
	 viewBox="0 0 4000 4000" style="enable-background:new 0 0 4000 4000;" xml:space="preserve">
<path d="M2726.3,1048.5c4.4-11.7,8.8-21.3,11.6-31.2c35.9-128,94.5-244.6,178-347.8c28.7-35.4,62.4-67.1,96.8-97.3
	c16.6-14.6,38.9-24.8,60.3-31.7c52-16.9,99.3,4.4,122.4,54.1c9.1,19.6,14,41.2,20,62.2c7.5,26.2,12.2,53.4,21.7,78.8
	c14.8,39.5,44.1,64.8,85.9,73.1c34.2,6.8,68.8,12.3,103.3,17.4c45.1,6.7,87.5,20.8,124.1,47.9c59.7,44.2,84.6,104.3,73.6,177.7
	c-3.4,22.5-11.5,44.3-18.4,66.2c-3.9,12.5-10,24.2-14.8,36.4c-26.3,66.8-16.6,102.1,40.8,144.8c23.7,17.6,48.9,33,72.4,50.8
	c45.4,34.5,80.9,76.2,94.7,133.6c17.1,71.1-7.9,138.9-67.5,181.7c-56.4,40.6-121,60.1-187.9,73c-113.7,22-228.1,22.6-342.7,8.4
	c-13.9-1.7-27.9-2.1-46.2-3.4c2.3,12.4,4.1,21.4,5.7,30.4c9.1,48.2,22.3,96.1,26.3,144.8c10.3,125.9-36.5,230.2-135.3,307.7
	c-60,47-124.2,89.4-189.6,128.7c-197.6,118.8-397.3,234.1-594.9,352.9c-124.5,74.9-246,154.9-370.2,230.2
	c-87.9,53.2-178.4,101.9-276.2,135.4c-95.2,32.7-192,43.6-290,16.5c-35.5-9.8-69-26.9-103.3-40.7c-7.9-3.2-15.7-6.9-26.8-11.9
	c-12.1,22.9-23.4,44.8-35,66.5c-50,93.6-104.5,184.5-167.6,270c-14.2,19.3-30,37.9-47.7,53.9c-14.3,12.9-31.6,23.9-49.4,31.2
	c-40,16.5-81,3.1-101.6-34.8c-11.8-21.6-17.8-46.6-24.3-70.6c-6-22.1-7.5-45.4-14.2-67.2c-14.1-46.1-38.3-60.4-86.6-53.8
	c-26,3.5-51.8,8.6-77.8,11.1c-16.1,1.6-33,1.8-48.8-1c-69.8-12.6-111.8-72.6-97.6-142.2c6-29.7,17.4-58.5,28.3-87
	c16.9-44.5,11.2-53.4-37-55.4c-27.3-1.1-54.5-3.1-81.6-5.9c-11.8-1.2-23.7-4.4-35-8.3c-76-26.7-112.1-102.4-81.1-177
	c11-26.5,31.1-49.5,48.5-73.1c11.6-15.7,27.2-28.6,38.5-44.6c19.2-27.1,16.8-50.2-7.1-73.2c-11.7-11.3-25.6-20.4-38.9-29.8
	c-16.1-11.3-33.4-21-48.9-33.1c-44.6-34.8-51.4-91.5-17.1-136.7c16.9-22.3,38.9-37.9,64.5-49.1c62.6-27.5,129.1-41,196.1-50.9
	c69.1-10.2,138.8-15.9,208.3-23.6c10.6-1.2,21.1-2.5,33-3.9c-1.4-26.5-3-50.2-3.8-74c-4-117,36.3-218.4,109.3-308.1
	c50.2-61.7,109.8-113.6,176.9-155c117.1-72.3,235.5-142.8,355.5-210.1c214.7-120.5,423.7-249.5,622.8-394.6
	c51.2-37.3,103.6-73.4,157.8-106c40-24.1,82.6-45.1,126.4-61.4c117.9-43.8,232.7-27.6,341.9,29.5c37.4,19.5,70.6,47.1,105.7,70.9
	C2715.7,1042.3,2719.3,1044.3,2726.3,1048.5z M974.4,2092.2c2.9-12,5.4-20.3,6.8-28.7c9.2-56.2,32.6-106.2,66-151.8
	c45.9-62.8,103.4-113.5,170.3-151.7c87.3-49.7,176.2-96.7,266-141.8c124-62.4,249.5-121.8,365.6-198.5c16.4-10.8,33-21.6,50.4-30.5
	c5.2-2.7,16.5-1.6,19.6,2.1c3.7,4.5,4.8,15.8,1.6,20.6c-5.8,8.7-15.1,15.5-23.8,21.9c-85.4,61.6-177.2,112.3-271,159.4
	c-104.5,52.5-209.7,103.5-313.3,157.8c-75.8,39.7-145.7,88.5-205.1,151.1c-48.8,51.5-80.9,110.3-87.2,182.6
	c-2,22.7,3.8,36.7,21.5,50c27,20.3,53.7,41.5,77.8,65.1c101.4,99.3,177.2,216.1,230,347.4c33.5,83.4,59.3,169.2,66.9,259.4
	c4.2,49.5,9.4,56.5,58.2,65.3c8.6,1.5,17.4,1.9,26.1,2.5c50.4,3,98.7-8.3,142.6-31c47.4-24.5,91.9-54.6,137.3-82.7
	c17.7-10.9,33.4-25.9,52.2-33.7c28.8-12,52.7-30.2,76.9-48.8c12.5-9.6,25.1-21.2,43.4-19.9c11.6,15,7.6,27.7-4.7,37.7
	c-11.8,9.6-25,17.4-37.9,25.6c-20.2,12.9-41,24.8-60.9,38.2c-51.6,34.8-101.1,73.2-154.6,104.5c-82.2,48.1-170.5,66.3-264.5,36.4
	c-1.6-0.5-3.9,1.2-6.8,2.3c-8,38.2-16.2,76.8-24.8,117.8c65.7,1.2,127.1-4.1,186.9-24c114-37.8,216.6-98.5,318.3-160.5
	c209-127.4,416.7-257,626-384c114-69.1,230.5-134.1,345.1-202.2c55.5-33,108.5-69.6,153.6-116.7c51.1-53.4,74.3-117.3,75.1-190.2
	c0.1-6.7-1.9-13.5-3.8-25.5c-8.9,12.8-14,21.1-20.1,28.6c-30.1,37.4-57.2,77.9-91.2,111.2c-114.8,112.1-253.8,188.6-395.8,259.9
	c-5.8,2.9-12.4,6.5-18.4,6.2c-6.5-0.4-14.6-3.6-18.4-8.5c-2.4-3,0.1-13.1,3.6-16.9c6.6-7,15.1-12.5,23.6-17.3
	c51.2-29.3,102.8-57.9,154-87.3c95.2-54.7,183.7-118.3,259-199.2c37-39.7,65.4-84.6,83.3-136c5.9-16.9,8.8-33.4,3.4-51.2
	c-45-150.2-100.3-296-184.9-429.1c-58.9-92.7-127.6-177.3-208.9-251.5c-22.8-20.8-48.6-33.5-79.3-34.8c-26.2-1.1-52.5-2.5-78.6-0.6
	c-105.4,7.8-198.3,49.8-285.1,107.3c-5.5,3.6-10.5,8-16.2,11.1c-9.3,5.2-18.6,6.4-26.3-3.3c-8.5-10.8-5.5-20.6,3.4-29
	c5.5-5.2,11.9-9.6,18.4-13.6c17.6-11,35.2-22.1,53.4-32.1c85-46.8,172.9-84.4,272.7-82.9c4.6,0.1,9.3-2.4,14.5-3.8
	c-1.7-3.4-1.9-4.7-2.7-5.3c-3.6-2.4-7.2-4.9-11-6.8c-102.9-49.6-206-46.2-305.8,5.9c-56.9,29.7-112,64.2-164.1,101.8
	c-234.4,169.1-478.7,321.9-731.7,461.6c-99.4,54.9-196.5,114.3-293.1,174.1c-66.2,41-126.7,89.7-176.6,150.4
	c-28,34.1-50.7,71.2-64.6,113.2c-2.5,7.6-2.9,16-5,28.9C870.3,2052.7,920.7,2069.3,974.4,2092.2z M982.7,2452.2
	c-64.3-62.7-128.3-106.4-213.4-112.4c-92.4-6.5-183.2,3.1-274,18.2c-58.3,9.7-116.3,20.3-171,43.6c-15.5,6.6-39,11.3-37.1,31.3
	c1.2,12.7,18.4,25,30.4,35.1c19.2,16.1,41.4,28.7,60,45.3c61.1,54.5,67.6,125.1,18.1,189.8c-12.6,16.4-27.3,31.2-41.1,46.7
	c-10.2,11.4-21.7,21.9-30.3,34.4c-19.9,29.2-6.9,66.3,27.1,76c15.5,4.4,32.3,4.5,48.5,6c30.4,2.7,61.6,1.8,91.2,8.2
	c62.1,13.4,95,71.9,77.2,133.1c-5.2,17.7-14.3,34.2-20.5,51.7c-6.5,18.4-13.9,37-16.6,56.2c-4.1,28.8,12.2,46.8,41,46.3
	c19.5-0.3,38.9-5.1,58.4-7.1c27.1-2.8,54.2-6.5,81.4-6.9c38.5-0.6,70.6,16.8,93.2,46.8c14.9,19.7,26.4,42.8,34.9,66.1
	c9.3,25.5,12.9,53,19.8,79.4c3.1,12,8.1,23.5,12.4,35.7c28.2-13.8,37.1-20.3,61.3-53.3c86.4-117.8,156.7-244.6,208.8-381.2
	c29.4-77.1,26.9-154,0.3-231c-2.1-6.2-6.4-11.7-11.7-21.2c-3.6,10.8-6.3,16.8-7.5,23.1c-18.2,90-61.1,167.8-117.8,238.7
	c-6,7.5-13.5,14.9-21.9,18.8c-5.6,2.5-16.4,0.9-20.7-3.3c-3.4-3.3-2.4-14.1,0.4-19.9c4.1-8.7,11.6-15.7,17.4-23.7
	c45.9-63.3,83.2-131.1,102.1-207.5c23.1-93.5,21.3-93-30.8-174.8c-19.7-30.9-44.6-44.5-80.1-47.1c-103.5-7.7-205.2-1-304.2,32.4
	c-7.2,2.4-14.8,5.5-22.1,5.3c-5.4-0.2-13.9-4.4-15.2-8.6c-1.9-5.9-0.8-15.9,3.3-19.9c6.7-6.5,16.3-11.2,25.5-13.9
	c95.7-28.8,192.4-50.4,293.5-36.2C959.9,2453.1,967.3,2452.2,982.7,2452.2z M2965.2,1329.4c6.2-3.5,9.7-4.4,11.7-6.7
	c5.7-6.6,11-13.5,16.1-20.6c43.8-61.3,98.2-111.3,162-150.9c10.1-6.3,21-11.8,32.1-16.2c11.2-4.5,22.3-2.9,27.4,9.8
	c4.2,10.4,0.6,19.2-9.6,24.9c-7.6,4.3-15.2,8.6-22.7,13.1c-70.7,43.6-131.2,97.8-175.5,168.9c-10.3,16.5-12.9,30.5-1.7,48.3
	c14,22.1,25,46,36.9,69.4c6.9,13.5,16.6,22.5,32.4,24.4c66.3,8.1,132.8,13.9,199.3,4.5c42-5.9,83.5-15.6,125.2-23.8
	c10-2,20.4-4.5,25.1,7.6c5.2,13.3,0.4,23.8-12.7,29.4c-9,3.8-18.5,6.5-28,8.9c-92,23.6-185.1,30.6-279.5,19.8
	c-7.8-0.9-15.7-0.1-25.7-0.1c12.4,34,23.3,63.7,34,93.3c4.5,12.3,12,19.1,26,21.1c124.9,18.2,250,25.8,375.3,4.6
	c55.2-9.3,109.1-23.2,156.9-53.8c54.1-34.7,64.6-82.4,31.5-137.7c-19.7-32.9-48.2-56-80.4-75.5c-17.7-10.7-35.7-21.3-52.6-33.2
	c-68.3-47.9-92.5-119.1-67.6-198.4c4.9-15.6,12.1-30.4,17.6-45.8c7.4-20.5,16.1-40.8,21.2-61.9c14.5-60.7-12.7-112-70.9-133.7
	c-18.3-6.8-37.7-11.2-57-14.3c-32.3-5.2-65-8-97.4-12.8c-78.9-11.6-130.7-56.5-157.3-130.9c-5.5-15.4-9.2-31.5-12.8-47.4
	c-3.7-16-6.1-32.2-9.4-48.2c-10-48.8-24.5-55.9-66.1-27.1c-24.9,17.2-47.8,38.2-68.3,60.6c-53.6,58.4-94.1,125.8-128.2,197.1
	c-30.7,64.3-55,131-67,201.4c-1.9,11-2.2,26.3,3.9,33.8c21,25.6,45.2,48.6,70.5,75c3.3-14,6.2-24.4,8.2-35
	c13.9-72.1,34.4-142.5,65.9-208.8c20.5-43.1,47.1-83.4,71.8-124.6c4.9-8.2,12.1-16.5,20.3-20.8c6.4-3.3,17.6-3.3,23.8,0.2
	c9.7,5.5,5.1,15.3,0.1,22.9c-5.3,8.2-11.3,16.1-16.7,24.3c-76.2,113.9-122.4,238.5-133.1,375.6c-0.9,11.2,1.2,24.4,6.6,34.1
	C2937.5,1292.9,2951.4,1309.8,2965.2,1329.4z M1235.2,2957.7c30.4,14.4,60.4,29.7,91.4,42.8c20.5,8.7,29.9,3.5,38.4-16.9
	c3.3-8,5.6-16.6,7.2-25.1c11.6-60.8,10.5-122,2.2-182.7c-12.1-89.4-41.4-174.1-79.5-255.5c-60.5-129.2-141.4-243.4-252-335
	c-38.9-32.3-81.6-58.6-130-74.5c-27.6-9.1-55.1-13.4-83.2-2c-18.9,7.7-31.1,20.1-29.3,42.1c2.2,26.1,4.3,52.2,6.9,78.2
	c2.8,28.8,3.3,29.7,31.6,37.5c49.1,13.5,93.6,36.1,133.8,67.2c102.6,79.3,175,182,229.5,298.3c35,74.7,50.2,153.4,44.2,235.7
	C1244.2,2895.8,1239.5,2923.7,1235.2,2957.7z"/>
<path d="M2480.6,1730.5c-0.8,80.5-56.8,115.5-121.3,117.4c-64.8,2-119.6-54.5-119.2-118.3c0.5-67.3,55.8-121.7,124-122.1
	C2430.9,1607.3,2480.9,1660,2480.6,1730.5z M2379,1709.1c23.2-0.6,37.2-13.5,36.2-33.3c-0.9-19.1-15.2-31.4-35.1-30.5
	c-19.6,0.9-33.4,17-32.1,37.5C2348.9,1699.8,2360.6,1709.6,2379,1709.1z"/>
<path d="M1566.9,2119.7c1.4-70.2,55-121.9,124.3-120c65.5,1.8,115.3,53.6,114.3,118.8c-1,67.5-56.2,126.4-119.3,122.9
	C1604.9,2236.9,1564.4,2178.6,1566.9,2119.7z M1733.5,2069.4c2-18.1-8.7-32.3-26.1-34.8c-20.5-3-37.9,11.2-40.2,32.6
	c-1.9,17.9,9.1,33.1,25.6,35.5C1712,2105.6,1731.2,2089.8,1733.5,2069.4z"/>
<path d="M2205.5,1938.9c0.2,52.9-17.9,90.5-51.6,119.6c-54.7,47.4-117.5,60.5-185.4,34.2c-18.3-7.1-34.2-22.4-48.6-36.6
	c-4.2-4.2-2.4-19,1.8-25.7c2.6-4.1,15.7-4.2,22.9-2.2c8,2.3,15.2,8.4,21.9,14c58.7,48.8,172.9,4.6,194.5-71.6
	c4.5-15.9,0.6-34.2,0.1-51.4c-0.4-13.4-8.6-29.6,11.2-35.7c14-4.3,27.6,9,31.3,30.3C2205.4,1924.5,2205.2,1935.5,2205.5,1938.9z"/>
<path d="M2476.6,1929.6c-60.1-0.3-79.8-31.6-52.5-72.6c37.6-56.5,92.6-89.5,160.7-94.4c44-3.2,63.3,30.5,43.5,69.8
	c-2.4,4.9-5.2,9.7-8.7,13.9C2579.8,1895.1,2528.3,1922.3,2476.6,1929.6z M2603.6,1801.1c-52.4-16.5-147.2,40.7-153.9,90.8
	C2499.8,1903.2,2592.7,1849.5,2603.6,1801.1z"/>
<path d="M1651.8,2401.4c-55.1,0-72.4-29.2-49.6-67.4c8.8-14.7,20.7-28.6,33.9-39.5c36.1-29.7,79.7-44.5,124.2-56.4
	c8-2.1,17.6-0.9,25.9,0.9c33.3,7.4,44.2,30.7,29.3,61.1c-2.4,4.9-5.2,9.7-8.6,13.9C1764.1,2367.2,1707,2393.2,1651.8,2401.4z
	 M1786.9,2275c-8-2.1-12.3-4.5-16.2-4c-51.2,6.9-95.3,29.2-132.4,64.5c-6.5,6.2-7.8,17.9-11.3,26.7c6.3,3.1,8.1,4.4,10.2,4.9
	c3.2,0.7,6.5,1.3,9.7,1.1c52.6-4.4,94.3-31,131-66.4C1783.5,2296.1,1783.7,2284.8,1786.9,2275z"/>
<path d="M2082.5,1257.8c9,6.9,16.5,10.2,19.7,15.9c2.3,4.2,1.1,14.2-2.4,17.1c-15.5,13.2-31.8,25.7-49.1,36.5
	c-4.3,2.7-15.6,0-19.5-4.1c-4-4.2-6.4-16.9-3.6-19.6C2044.6,1287.6,2063.3,1273.5,2082.5,1257.8z"/>
</svg>
