<?xml version="1.0" encoding="utf-8"?>
<!-- Generator: Adobe Illustrator 24.3.0, SVG Export Plug-In . SVG Version: 6.00 Build 0)  -->
<svg version="1.1" id="Layer_1" xmlns="http://www.w3.org/2000/svg" xmlns:xlink="http://www.w3.org/1999/xlink" x="0px" y="0px"
	 viewBox="0 0 4000 4000" style="enable-background:new 0 0 4000 4000;" xml:space="preserve">
<path d="M1650,3067c-43.3,34.3-90.4,54.6-145.6,55c-53.9,0.4-101.8-14.2-141.7-51.8c-8.5,4.5-15.6,7.7-22,11.9
	c-57,37.3-164.4,44.9-230.6-12.3c-11.4-9.9-20.1-7.3-31.2-0.4c-30.1,18.8-62.9,28.2-97.6,17c-17.1-5.5-33.2-15.6-48.3-25.7
	c-8.7-5.8-14.6-9.9-26-5.7c-76.1,28.3-124.2,12.8-168.5-52.9c-1.1-1.6-2.6-2.8-5.7-6.2c-33.9,8.7-68.8,11.8-103.4-5.4
	c-34.5-17.1-53.5-46.9-70.2-78.1c-120.8-7-142.5-27.6-163.1-155.6c-49.7-4.6-94-20.9-121.6-67.6c-27.3-46.2-21.6-93.2-4.2-139.8
	c-87.2-61.6-96.1-173.5-21.9-248.7c-5.2-9.7-11.1-19.7-16.1-30c-31.2-63.7-27.6-125.3,16.8-181c15.2-19.1,38.2-31.9,60.2-49.7
	c-0.1-0.4-0.9-5.2-3.2-8.9c-77.6-123.8-72.5-249.3-6.2-375.1c31.5-59.8,73.2-112.8,117.8-163.5c134.5-152.7,295.6-270.9,473.2-368.5
	c148.6-81.6,305.9-140.9,466.6-193.1c115.5-37.5,233.2-63.2,353.1-79.5c143.2-19.5,287-29.3,431.8-27.5
	c216.9,2.7,429.5,35.4,638,92.4c159.2,43.5,313,103.4,456.7,185.8c117.2,67.2,226.9,145.1,318,246.2
	c77.2,85.7,139.5,180.6,170.9,293.1c21.3,76.3,18.5,152.3-5.8,227.7c-13.6,42.5-38.3,76.4-75,101.6c-4.7,3.2-8.8,7.2-14.8,12.1
	c51.5,74.4,46.2,146.7-9.5,215.3c7.5,12.8,15.1,23.1,19.9,34.6c27.7,66.4,25,131.2-12.2,193.5c-15.5,26-37.7,44.1-65.3,56.4
	c-23.6,10.5-23.3,11.1-20.9,37.3c4.9,53.4-6.2,100.7-50.1,136.5c-22.2,18.1-47.7,26.8-75.4,28.2c-19.4,1-31.3,6.2-39.3,26.5
	c-19.7,50.1-70.1,72.7-130.5,67.1c-19.1-1.8-30,2.1-41.7,17.3c-31.3,40.8-75,61.6-125.2,67.9c-42,5.2-83.8,3.1-123.7-13.5
	c-3.4-1.4-7.4-1.6-14-2.8c-24.8,50.3-74.3,64.9-122.3,81.8c-133.8,47.4-271.4,79.2-412.1,96.3c-55,6.7-110.9,5.7-166.4,7.8
	c-8.6,0.3-18.3,0.1-25.8-3.5c-17.5-8.3-30.3-4.6-44.6,8c-52.4,46.1-155.9,64.1-221.4,18.5c-10-6.9-19.3-8.7-28.8,0.9
	c-61.6,62.3-186.2,69-260.6,14.8C1658.4,3069.8,1655.3,3069.2,1650,3067z M1921.2,2954.8c8.7,7.7,15.9,15.4,24.4,21.4
	c19,13.4,37,29.9,58.2,38c61,23.4,133.6-6.1,168.9-64.7c4.9-8.1,10.4-19.8,17.6-21.6c22.1-5.4,25.6-21.8,28.7-39.3
	c10.1-56.6,23.7-112.8,29.2-169.9c10.1-103.8,18.3-207.9,21.9-312.1c6.8-197.1,0.4-394.1-10.2-591c-0.4-7.4-2.7-14.6-4.2-22.3
	c-8.8,0-15.8-1.2-22.2,0.2c-79.9,17.6-160.9,31.5-239.4,54.2c-156.2,45.2-301.7,116.7-444.7,193c-114.4,61-226.3,126.8-345,179.6
	c-8.4,3.7-16.1,9-24.2,13.5c31.6,52.4,78.5,44.1,117.6-18.2c12,9.4,8.2,20.5,3.7,31.3c-17,40.7-66.1,59.9-104.9,38.5
	c-18.1-10-32.8-26.2-51.8-41.9c0.8-0.2-3.1,0.1-6.6,1.5c-69.4,27.9-141.6,42.6-216.2,46.7c-133.2,7.2-260.3-16.8-380-75.9
	c-57-28.1-110.8-61.7-157.5-105.4c-10.1-9.4-20.2-18-36.1-14.6c-45.1,9.7-78,51.8-76.4,98.2c1.1,32.8,14.4,60.1,35.2,84.7
	c28.7,33.9,29.3,35.3-7.2,60.5c-57.3,39.6-52.3,116.3-2.7,151.6c15.7,11.2,32.2,21.4,50.8,33.6c-3.4,7.8-6.9,15.4-10.2,23.1
	c-6.2,14.3-13.8,28.2-18.1,43c-11.9,41.2,6.6,79.9,44.3,100.4c15.7,8.5,31.6,8.6,48.1,8.5c16.9-0.1,33.8,0,52.2,0
	c-2.5,24.7-5.4,44.9-6.5,65.2c-2.8,55.9,42.3,109.9,112.8,83.1c10.5-4,21.8-6.1,34-9.4c4,19.1,6.3,35.4,11,51
	c11.1,36.7,47.7,70.4,102,44.8c10.4-4.9,19-13.3,28.7-19.7c7.5-4.9,15.4-9,25.1-14.7c5,23.4,7.9,42.6,13.4,61
	c8.6,28.3,29,42,58.5,44.8c28.4,2.6,48.2-12,67-29.7c7.4-6.9,14.8-13.8,25.3-23.4c8.6,17.3,14.5,30.4,21.4,42.9
	c17.4,31.5,46.4,42.3,79.3,27.1c14.5-6.7,27.9-17.7,38.7-29.6c20.1-22.1,22.9-22.9,41,0.7c0.6,0.8,1.1,1.6,1.7,2.4
	c61.3,77.4,171.2,74.4,222.6,4.6c1.7-2.4,3.5-4.7,5.5-6.8c10.8-11.1,15-11.1,26.1,0.6c8.8,9.1,16.9,18.9,25.8,27.9
	c70.9,71.2,185.3,43,223.7-18.4c5.7-9.1,15.3-15.6,21.3-21.6c25.4,18.7,46.1,36.8,69.3,50.3c23.8,13.8,51.1,20.1,78.9,17
	c27.4-3,55.4-9.3,75.7-28.1C1886.5,3003.2,1901.1,2979.9,1921.2,2954.8z M1541.6,942.7c0.1,2.1,0.3,4.2,0.4,6.3
	c8.1,2.9,16.1,6.1,24.3,8.7c9.3,2.9,18.9,4.6,28,8c192.6,72.5,368.1,174,521.7,311.5c47.2,42.3,91.6,87.7,121.6,144.9
	c28.5,54.3,42.2,113.2,51.3,173.1c23.6,155.4,35.1,312.1,39.7,469.1c6.7,227.4,0.8,454.4-27.5,680.4c-9.1,72.6-19.4,145-42.6,214.8
	c-1.4,4.2-1.4,8.9-2.4,15.2c12.5,0,23.2,0.9,33.8-0.1c55.3-5.4,110.7-9.6,165.7-17.4c134.7-19,265.1-54.4,391.3-105.4
	c14.8-6,24.8-15,28.9-30.3c5.8-21.6,12.9-43,16.9-64.9c23.9-129.9,29.1-261.6,34.5-393c9.5-231.1,4.8-462.3-7.5-693.3
	c-2.8-53.5-8.9-106.9-15.7-160.1c-7.7-60.7-25.7-118.1-63.4-167.8c-17.7-23.3-35.4-46.6-54-69.1c-54.5-65.7-119.7-120.1-186.7-172.3
	c-91.9-71.5-189.3-134.4-295-183.4c-56.8-26.3-116-41.4-180.5-40c-159.2,3.6-317.2,17.9-474.3,43.5
	C1613.7,927.1,1577.7,935.4,1541.6,942.7z M3535.2,2188.9c12.5-10.3,23.1-18.5,33.2-27.3c44-38.1,48.9-92,13.4-138.3
	c-10.8-14.2-23.5-21.6-42.1-21.5c-50.6,0.4-98.5-11.6-143.6-34.6c-20.9-10.6-42.4-20-63.2-30.6c-103.8-52.8-212.1-93.9-324.6-123.7
	c-6.1-1.6-12.7-1.6-17.5-2.2c0,110,1.5,218.1-0.4,326.2c-1.9,107.3-5.2,214.6-11.4,321.6c-6.2,107.6-16.7,215-25.3,323.4
	c13.4,5.4,25.9,10.8,38.5,15.6c63.3,24.2,164.7-10.1,184.8-71.9c10.4-32,18.6-31.7,50.8-17c1.8,0.8,3.5,1.7,5.4,2.3
	c47.7,16.3,87.2,1.6,98.3-50.2c3-14.1,5.8-28.2,8.6-41.7c4.6-1.3,7.5-3.2,10-2.7c8.6,1.4,17,3.6,25.5,5.4
	c68.7,15.1,116-27.5,107.9-97.4c-1.2-10.5-4.7-20.9-7.5-31.2c-1.5-5.6-3.9-11-5.8-16.6c-3.8-11.2,0.2-19.3,11-23.4
	c10.9-4.1,22.3-7,33.3-10.9c57.4-20.2,89.3-67.4,86.2-128.1c-1.8-36.4-15.8-68-40.2-95C3552.2,2210.1,3544.6,2200.3,3535.2,2188.9z
	 M465.5,1525.8c19.2,5.5,31.2,8.9,43.2,12.4c12.2,3.5,24.6,6.4,36.5,10.7c128.8,46.1,254.6,99.1,370.8,172
	c78.8,49.4,154.7,102.8,198.4,189.5c0.7,1.3,3.2,1.7,7.7,4c148.6-100.4,291.3-212.8,458.5-293.7c-8.6-15.7-14.6-28.7-22.3-40.6
	c-35.4-54.5-86.3-92.6-139.3-127.7c-170.8-113-359.2-181.9-558.9-223c-22-4.5-39.4-0.4-57.5,11.7
	c-84.5,56.5-165.7,117.2-240.5,186.1C530.1,1456.9,500.9,1489.6,465.5,1525.8z M345.5,1837.9c9.8,2.4,12.2,2.3,13.4,3.4
	c3.5,3.4,6.8,7,9.5,10.9c39.8,57.9,89.4,105.2,149.6,141.8c100.5,61.1,207.1,89.3,324.1,61.3c90.6-21.7,169.5-68.1,245.9-119.3
	c2.2-1.5,3.4-4.6,7.6-10.6c-10.8-17.5-19.9-38.5-34.5-54.6c-24.8-27.3-51-54-80.1-76.5c-93.1-72.1-196.5-126.9-305.3-170.9
	c-66.8-27-135.8-48.3-203.8-72.3c-13-4.6-24.2-5.5-34,6.8c-54.5,69.1-109.5,138.1-124,228.6c-13.9,87.2,3.7,167,62.8,234.6
	c40.7,46.7,90,83.2,143.2,114.7c168.9,100.2,348.3,122.8,538,74.4c20.2-5.1,27.8-15.4,29.8-33.3c5.9-53.2,12.3-106.4,16.7-159.8
	c1.5-18.7-2.1-37.8-3.7-61.5c-17.7,11-30.8,19.1-43.8,27.4c-56.2,35.6-115.1,65.4-178.7,85.8c-67.3,21.6-135.8,28.1-204.8,13.1
	c-112.1-24.3-206.1-80.9-282.4-166.5c-14.8-16.6-27-35.7-39.4-54.3C348,1855.9,348,1848.3,345.5,1837.9z M2061.3,1445.7
	c-5.2-28.3-21.8-46.6-37.1-65.2c-54.7-66.4-124-115.4-195.9-160.8c-151.9-95.9-316.3-163.9-487.9-215.3c-8.4-2.5-19.2-1.2-27.8,1.7
	c-148.3,49.3-292,109.2-427.5,187.7c-5.3,3-9.9,7.2-16.5,12c5.3,2.6,7.7,4.5,10.3,4.9c160.4,29.7,311.6,85.7,454.7,163.2
	c49.6,26.9,97.4,57.7,143.1,90.7c52.2,37.7,99.7,81.2,123.8,145.9C1748.1,1534.3,1903,1485.8,2061.3,1445.7z M2071.8,1472.3
	c-5.6,0-8.5-0.5-11.2,0.1c-88.3,20.4-175.9,43.8-260.3,76.6c-58,22.6-114.5,49.4-171.6,74.2c-12.5,5.5-20.7,12.2-18.1,28.6
	c11.9,75.7,7.4,151.5,0.6,227.4c-1.7,18.8-3.1,37.7-5,61.6c154-73.1,304.2-139.1,465.8-176.1
	C2084.2,1665.3,2090.3,1568.8,2071.8,1472.3z M3439,1570.8c-2.9-17-4-27.6-6.6-37.8c-12.8-51.6-36-98.9-62.7-144.3
	c-51.7-87.9-115.7-166.4-186.6-239.3c-13.3-13.7-29-26.3-45.9-35.1c-108.4-56.4-222.1-100-339.3-134.4
	c-40.9-12-82.6-21.3-123.9-31.9c-2,2.7-4,5.4-6,8c5.1,2.5,10.9,4.1,15.3,7.5c33.4,25.3,67.1,50.3,99.6,76.7
	c83.4,67.8,161.6,141.2,227.9,226.2c34.8,44.6,68.3,90.4,88.1,144.1c7.5,20.4,19.4,31,40.7,36.6c91.8,24.1,178.8,60.9,262.6,105.2
	C3412.4,1557.8,3422.8,1562.7,3439,1570.8z M1587.1,1647.3c-32.7,16.6-60.2,29-86.2,43.9c-127.1,72.7-244.8,159.7-364.9,242.9
	c-5.2,3.6-10.2,12.8-9.7,18.9c6.5,71.5-1.5,142-12.5,212.4c-1.2,7.5-0.2,15.3-0.2,26.2c9.5-3.5,17.7-5.8,25.2-9.3
	c48.4-22.9,97.4-44.7,145-69.3c91.7-47.5,182.5-96.7,273.8-145.1c12.6-6.7,22.3-13.9,23.8-30.2c7-73.7,15.5-147.4,12.3-221.7
	C1592.7,1694.8,1589.7,1673.7,1587.1,1647.3z M3401.8,1899c36.3,20.7,73.7,34.4,113.2,39c81,9.4,134.2-26.6,154.4-105.1
	c7.4-28.9,11.7-59.5,11.5-89.3c-0.2-30.2-4.9-61.1-12.7-90.3c-24.4-91.3-75.4-168.4-135.3-239.9c-67.5-80.6-147.9-146.8-235.4-204.4
	c-11.6-7.7-24-14.2-36.1-21.2c2.6,12.2,8.4,19.8,14.1,27.6c34.3,47.3,70.6,93.2,102.3,142.1c43.1,66.7,73.6,139.5,88.4,218
	c2.7,14.5,11.2,21.7,22.2,28.6c45.4,28.4,90.8,57,136,85.7c6.8,4.3,12.8,9.8,19.2,14.8c-1.2,1.9-2.4,3.7-3.5,5.6
	c-67-4.9-108.7-62.2-171-87.6C3462.9,1719.3,3441,1810.5,3401.8,1899z M3376.8,1888.9c9.4-19.2,18.6-34.1,24.4-50.2
	c24.3-68.2,37.2-139,46-210.6c2.1-16.9-4.5-26.9-19.1-35.3c-78.8-45.3-161.6-81.4-248.1-109.1c-19.8-6.4-40.2-10.8-63.6-17
	c3.7,104.3-9.2,203.3-31.6,302.8C3185.2,1800,3280.2,1839,3376.8,1888.9z M2431.7,904.7c-0.9,2.4-1.9,4.8-2.8,7.2
	c5,4,9.6,8.7,15,11.8c113.5,64,216.5,142.3,311.1,231.5c72,67.8,137.4,141,176.3,233.9c4.1,9.8,10.7,14.7,21.7,16.6
	c33.5,5.7,66.7,12.9,100.1,19.3c7.9,1.5,16,1.9,28.5,3.2c-7.1-16.4-11.4-28.2-17.2-39.3c-29.3-56.6-67-107.5-109.4-154.8
	c-85.7-95.4-182.5-178-286.6-252.9c-52-37.4-106.3-63.8-170.8-68.1C2475.6,911.8,2453.7,907.6,2431.7,904.7z M2169,1421.3
	c-7-11-9.6-17.6-14.3-22.2c-37.2-37.1-72.8-76.2-112.7-110.3c-137.9-117.9-295.3-202.9-465.1-265.1c-45.7-16.7-93-29.1-139.9-42.2
	c-19.2-5.4-39.4-8.3-57.9,3.9c0.8,2.3,0.8,3.8,1.5,4.1c4.2,2.2,8.3,4.7,12.8,6.2c114.3,36.8,225.5,81.2,331.9,137
	c97,50.9,190.1,107.6,270.8,182.6c33.1,30.7,63.8,63.1,82.2,105.3c2.6,6,5.9,11.7,9.8,19.5C2114.4,1434,2139.6,1428.1,2169,1421.3z
	 M2189,1447.3c-34,6.5-63.3,12.1-95.4,18.3c22.4,97.5,12.3,192.5,4.2,290.8c53.5-8.6,103.7-16.8,155.6-25.1
	C2237.7,1634.3,2233.7,1537.5,2189,1447.3z M3060.4,1760.7c2.7-9.2,6.6-18.1,8-27.4c7.9-51.8,16.7-103.6,22.4-155.7
	c3.5-31.8,2.6-64.1,2.4-96.2c-0.1-21.9-3-24.2-24.4-29.1c-14.2-3.3-28.3-7.4-42.6-9.7c-24.3-4-48.2-12.1-72.4-10.5
	c10.7,106,21.2,210,31.8,314.5C3010.7,1751.3,3034.3,1755.8,3060.4,1760.7z"/>
<path d="M1139.8,2477.3c1.5-70.9,53.2-119.3,125.8-116.6c73.2,2.7,114.2,58.8,114.2,123.2c-0.1,66-56.8,117.4-122.4,115.2
	C1192.9,2597,1138.5,2540.6,1139.8,2477.3z M1270,2490.2c28.9,0.4,50.4-20.1,50.5-48.1c0.1-21.5-18.7-39.6-41.5-39.8
	c-27.6-0.3-50.3,22.1-50,49.3C1229.3,2475.7,1244.4,2489.9,1270,2490.2z"/>
<path d="M1978.2,2535.6c-62.8-0.1-116.6-57.2-115.9-122.8c0.7-66.1,51.8-115.6,118.2-114.4c64.8,1.1,117.6,55.3,117.9,121
	C2098.7,2486.3,2047.4,2535.8,1978.2,2535.6z M2023.6,2384.3c-0.1-24.4-20.4-43.8-45-43.1c-24.6,0.6-42.3,20.2-41.8,46.1
	c0.5,22.5,17.9,38.9,41.6,39C2005.8,2426.4,2023.7,2409.8,2023.6,2384.3z"/>
<path d="M1630.3,2641.5c-65.4,0.5-113.4-38.8-125.9-103c-1.3-6.6-1.8-13.5-1.6-20.3c0.2-9.4,6.4-15.1,15-14
	c5.3,0.7,11.2,6,14.3,10.8c2.9,4.6,2,11.3,3.3,17c8,34.6,26.3,61.4,61.3,71.9c38.8,11.6,75.4,5.3,106.5-22.2
	c15.3-13.5,22.4-31.6,24.2-51.7c1-10.7,0.8-21.4,1.5-32.1c0.6-9.8,4.6-17.1,15.8-16.9c11.7,0.2,17,6.7,18.4,18.2
	c8.9,74.9-42.8,137.2-118.2,142C1640.1,2641.8,1635.2,2641.5,1630.3,2641.5z"/>
<path d="M2139,2540.7c23.3-2.7,48.1,5.6,71.4,18.8c33.1,18.8,36.3,47.2,8.9,73.9c-2.8,2.7-5.6,5.7-8.9,7.5
	c-59.9,33.2-121.7,40-184.4,9.4c-29.5-14.4-33.4-47.2-10-70.5c8.1-8.1,18.2-14.9,28.5-19.9C2072.9,2546.3,2103.2,2539.5,2139,2540.7
	z M2089.1,2646.1c43.6-2.4,78.4-5.8,109.1-25.4c20.6-13.2,20.9-30.4,0-43c-9.8-5.9-21.2-10.8-32.4-12.4c-36.1-5.2-71.9-3-105.9,11.5
	c-8,3.4-15.9,7.6-22.7,12.9c-19.3,15.2-18.2,33.3,4,42.6C2058.8,2639.8,2078.1,2643.1,2089.1,2646.1z"/>
<path d="M1137.5,2753.2c-20.1-5.4-44.9-8.5-66.3-18.7c-38.7-18.4-39.9-55.5-5-80.8c3.9-2.8,8.1-5.5,12.5-7.5
	c51.7-22.5,104.4-30.6,159.2-11.3c18.3,6.4,34.1,15.6,38,36.4c4.3,23.1-7.5,39.7-25,52.3c-8.5,6.2-18.6,11.6-28.7,13.8
	C1195.7,2743.4,1168.8,2747.5,1137.5,2753.2z M1172.1,2644.2c-31.3,2.4-60.9,6.7-87.1,23.9c-9.8,6.4-20.2,13.9-18.4,27.5
	c1.7,13,11.7,19.6,23.5,23.2c49.7,15.2,98,10.4,144.7-11.2c10.7-5,20.6-12.7,19.3-26.6c-1.2-13.3-11.2-21.1-22.6-24.2
	C1212,2651.4,1191.9,2648.3,1172.1,2644.2z"/>
<path d="M702.2,2502.9c-16.4,13.8-40.3,8.6-51,28.8c-10.3,19.4-11.7,39.5,2,54.6c12.1,13.3,31.1,20.4,46.8,30.1
	c-19.4,11.9-38.4,11.6-54.8-1.1c-37.8-29.2-34.1-96.3,6.6-120.8C669.8,2483.6,684.9,2485.5,702.2,2502.9z"/>
<path d="M478.1,2455.6c-26.2,8.2-38-1-46.9-14.9c-22.1-34.5-2.5-88.8,36.3-102.1c27.4-9.4,49.1,2.4,53.5,31.3
	c-24.5-5.4-51.9-17.1-67.1,12.3C439.8,2409.5,445.3,2435.1,478.1,2455.6z"/>
<path d="M2085.5,1967c5.8,24.7,1.3,36.3-15.8,47c-29.3,18.4-71.2,14.9-98.2-8.1c-20.6-17.6-24.8-36.4-11.8-66.1
	c5.2,9.7,9,16.7,12.7,23.8c11.1,20.9,27,35.9,51.7,37.6c16.2,1.1,30.6-3.8,42-16.3C2071.6,1979,2078,1973.9,2085.5,1967z"/>
<path d="M1960,2798.4c2.2,29.6-2.7,59.5,29.2,73.5c28.2,12.5,50-3.8,72-19c4.7,21.7-3.3,34.4-24.4,42.2c-32.6,12.1-74.6-2.5-89.1-31
	C1933.8,2837,1936.9,2815.5,1960,2798.4z"/>
<path d="M3163,2071c9.3-4.3,18.7-8.5,27.9-13.1c21.1-10.5,29.5-25.5,26.7-46.6c-2.8-20.2-12.7-29.5-37-34.5
	c-6.5-1.4-13-3.1-19.4-4.9c-0.7-0.2-1.1-1.4-2.9-3.8c3.1-3.7,5.7-9.4,10.1-11.5c16.2-7.9,32.6-4.3,47.3,3.9
	c24.1,13.4,32.6,45.8,22.6,80.4c-7.9,27.3-30.6,45-57.6,43.8c-5.9-0.3-11.7-3.8-17.5-5.8C3163,2076.2,3163,2073.6,3163,2071z"/>
<path d="M3295.8,2198.4c26.6-2.3,37.9,2.4,45.1,18.3c8.6,19,12,39.1,8.1,59.8c-6.2,32.8-33.4,51.9-66.2,46.9
	c-14-2.2-22.9-9.3-23.3-26.4c8.2,0,16-1.2,23.2,0.2c26.7,5.4,47.2-15.2,43.2-43.7c-1.7-11.9-7.9-23.4-13.4-34.3
	C3309.2,2212.6,3303.3,2207.4,3295.8,2198.4z"/>
<path d="M3044.8,2701.3c-13.9-19.5-12-35.6,3.8-56.7c21-27.9,58.6-39.9,91.3-29.1c29.3,9.8,40.8,23.9,41.3,56
	c-24.6-21.8-47.7-40.8-81.3-33.7C3066.3,2645.2,3057.3,2674,3044.8,2701.3z"/>
</svg>
