<?xml version="1.0" encoding="utf-8"?>
<!-- Generator: Adobe Illustrator 24.3.0, SVG Export Plug-In . SVG Version: 6.00 Build 0)  -->
<svg version="1.1" id="Layer_1" xmlns="http://www.w3.org/2000/svg" xmlns:xlink="http://www.w3.org/1999/xlink" x="0px" y="0px"
	 viewBox="0 0 4000 4000" style="enable-background:new 0 0 4000 4000;" xml:space="preserve">
<path d="M1416.7,1348.9c-2.1-8.3-3.2-16-6.1-23.1c-46.2-113.3-112.8-211.7-209.7-288.2c-46.1-36.4-97.2-63.3-152.8-81.9
	c-27.1-9.1-35.4-20.6-35.8-44c-0.5-23.4,12.7-38.1,32.9-43.7c35-9.6,70.5-17.8,106.4-23.5c59.7-9.5,119.7-9,179.7-0.9
	c7.5,1,15.3,0.1,25,0.1c-1.2-8.3-1.1-15.1-3.1-21.2c-38.5-112.8-102.3-208-197.7-280.8c-6.3-4.8-12.5-9.6-18.6-14.6
	c-12.6-10.2-18.3-22.6-13.3-39.1c5-16.7,14.9-29.2,32.7-29.3c40.3-0.2,80.8-0.8,120.8,3.3c67.9,7,133.3,25.3,194.9,55.6
	c3.3,1.6,7.4,1.6,15.2,3.1c-1.3-20.2-1.5-38.6-3.8-56.7c-8.7-69.2-29.9-134.4-65.2-194.8c-7.9-13.5-12.4-26.7-2.7-41.4
	c9.7-14.7,23.3-22.2,40.3-17.9c31.4,7.9,63.5,14.6,93.2,27c73.2,30.5,140.4,71.4,197.1,127.9c13.6,13.6,26,28.4,41,44.7
	c4.5-7,7.7-10.6,9.4-14.8c40.8-97.4,90.8-190.1,145-280.6c5.5-9.2,11.6-18.4,18.9-26.4c16.5-18.1,37-19.3,54.2-2
	c9.6,9.6,17.2,21.5,24.1,33.3c41.2,70.8,74.3,145.5,105.1,221.3c5.1,12.6,10.8,25,18,41.5c11.4-10.3,21.1-17.9,29.5-26.7
	c50.8-53.3,108-98.5,175.1-128.8c35.6-16.1,74.2-25.6,111.6-37.4c7.3-2.3,15.7-2.3,23.4-1.5c24.8,2.5,39.9,25.9,31.2,49.3
	c-4.1,11-10.7,21-16.7,31.2c-38.2,65.1-55.1,136.5-61.8,210.8c-0.4,4.7,0.7,9.5,1.5,18c11-3.4,20.3-5.3,28.7-9.1
	c90.1-40,185.1-52.4,282.6-50.5c7.8,0.2,15.7,1.5,23.5,2.6c14.7,2.1,27,8.7,31,23.5c4.5,16.7,4.2,33.4-10.7,46.2
	c-4.5,3.8-8.9,7.7-13.6,11.3C2693.1,601,2630.4,708.5,2588.3,830c-1.3,3.7-2.1,7.6-2.6,11.4c-0.2,1.8,0.8,3.7,1.9,8.4
	c11.1-1,22.6-1.8,34-3.2c89.8-11.4,178.8-8.6,266.7,14.5c11.3,3,22,8.4,33.1,12.5c29.2,10.7,29,59.3,0.1,71.2
	c-10,4.1-19.7,9.1-29.6,13.4c-118,50.7-208.3,133.6-276.4,240.9c-24.1,38.1-42.9,79.6-63.1,120c-5.1,10.1-6.2,22.2-9.4,34.5
	c15.2,8.9,28.5,17.1,42,24.7c126.4,70.9,226.3,169.6,305.9,289.9c116,175.4,184.9,368.6,220.5,575c32.6,189.5,39,380.3,24.1,571.4
	c-13.7,175.2-55.9,343.9-135.4,501.8c-65.9,130.8-158.3,239.5-275.7,326.8c-145,107.9-308.6,171.7-485.3,205.5
	c-115,22-230.9,28.4-347.2,22.6c-214.8-10.8-417.9-63.7-602.9-177c-144.3-88.3-257.2-205.9-339.1-354.6
	c-77.7-141.1-121.7-292.1-143.9-450.4c-21.3-152-21.5-304.3-6.1-456.9c20-199.3,62.3-392.9,147.6-575.1
	c84.2-179.9,202-333.1,367.8-445.9C1346.9,1389.8,1380.5,1371.1,1416.7,1348.9z M2774.5,2254.7c-18.7,17.8-32.4,30.5-45.6,43.6
	c-80.8,81-166.3,156.7-254.4,229.6c-9,7.5-19.1,13.9-29.5,19.4c-12.3,6.5-22.8,2.2-31-8.6c-8.3-11-8.2-22,0.8-32.3
	c5.8-6.7,12.4-12.6,18.9-18.6c92.9-85.2,186-170.4,278.9-255.7c5.5-5.1,10.3-10.9,15.6-16.6c-3.6-4.8-5.6-8.3-8.4-10.9
	c-108.7-100.1-217.4-200.2-326.3-300c-14.6-13.4-16.9-13-34.7,2.3c-109.1,93.7-218.1,187.6-327,281.6c-5.6,4.9-10.1,11.1-13.4,14.8
	c83.7,79.7,165.9,157.6,247.5,236c17.7,17,34.1,35.5,50,54.3c12.8,15.1,12.1,23.6,0.5,36.1c-11.6,12.4-20.6,13.3-36.1,2
	c-7.1-5.2-13.2-11.8-19.7-17.8c-91.3-85.6-182.6-171.2-274-256.6c-4.7-4.4-11-7.2-16.6-10.7c-6.2,4.4-11.3,7.3-15.7,11.2
	c-64.5,58-129,115.9-193.2,174.2c-35.8,32.4-70.6,65.9-106.6,98c-14.8,13.2-25,11.9-38.7-1.1c-11.7-11.1-12.3-20.2,0.4-36
	c10.4-13,21.8-25.5,34.1-36.8c85.4-78.9,171.1-157.4,256.7-236.1c5.6-5.1,10.6-10.8,18.1-18.5c-121.3-104.8-241-208.1-362.4-312.9
	c-123.4,106.2-241.7,212.2-352.8,327.6c7.6,7.9,12.7,13.9,18.4,19.2c74.6,70.2,149.4,140.3,223.9,210.6c20,18.9,39.5,38.4,58.9,57.9
	c10.2,10.2,13.5,21.6,3.8,34.2c-9.1,11.8-20.2,13.8-36.7,4.3c-10.2-5.9-19.9-12.9-28.5-20.9c-86.5-80.6-172.7-161.5-259-242.3
	c-7-6.5-14-12.9-22.7-20.9c-9.1,8.1-16.6,14.1-23.3,21c-34.6,35.1-69.4,70-103.3,105.7c-42.1,44.3-81.6,91.1-125.4,133.5
	c-38,36.7-46,78.7-46.6,129.7c-0.6,51.7,16.2,91,48.9,127.5c55.1,61.7,109.6,124,164.5,185.9c5.7,6.4,12.3,11.9,20.1,19.4
	c9.3-8.4,17.4-15.3,24.9-22.8c72.5-72.4,144.8-145,217.2-217.5c5.6-5.6,11.2-11.2,17.4-15.9c16.3-12.4,27.5-12.2,39.3-0.1
	c11.1,11.4,11.5,24.1-0.7,39.7c-8.4,10.9-18.1,20.8-27.8,30.6c-67.3,67.9-134.7,135.6-202,203.5c-8.1,8.1-15.6,16.7-23.9,25.7
	c5.3,6,8,10.1,11.6,13.2c108.5,92.9,217,185.7,325.7,278.3c20.7,17.7,21.6,17.7,42.5,1.5c43.5-33.9,87.2-67.6,129.7-102.8
	c80.4-66.7,160-134.3,239.7-201.7c8.6-7.3,16-16.1,25.6-25.9c-11.9-11.2-21-20-30.4-28.4c-10.2-9.2-21.4-17.5-31-27.4
	c-15.7-16.3-16.8-25.8-6.4-38.4c11.4-13.8,22.4-15.5,41.4-3.3c12.3,7.9,23.3,18.1,34.5,27.7c12.5,10.8,24.6,22,36.3,32.5
	c5.2-2.3,8.4-2.8,10.4-4.7c14.6-13.2,28.5-27.3,43.7-39.8c10.5-8.6,22-16.5,34.3-22.2c12.1-5.6,23.6,0.3,31.2,10.4
	c7.3,9.6,1.9,19.2-4.6,26.8c-9.6,11.2-20,21.7-30.5,32.1c-11.7,11.5-23.9,22.6-38.1,35.9c133.9,121.3,271.8,232.1,409.6,342
	c45.7-20,334.8-265.8,360.5-306.2c-2-2.8-3.9-6.2-6.6-8.9c-74.2-76.3-148.4-152.5-222.6-228.8c-7.5-7.7-15.1-15.6-21.6-24.2
	c-9.2-12.3-5.6-24,3.9-34.7c9.5-10.6,20.7-11.5,31.8-4.2c10.6,7,21.1,14.8,30,23.8c60.2,61,120,122.4,179.9,183.7
	c16.4,16.7,32.8,33.4,50,50.9c7.2-5.1,13.6-8.1,17.9-13c66.8-73.7,133.3-147.7,199.9-221.6c10.5-11.6,14.4-25,14.6-40.6
	c0.5-38.4,2.6-76.8,2.6-115.1c0-9.1-3.7-19.5-9-27c-12.5-17.6-26.2-34.6-40.9-50.5c-64.6-70.5-129.6-140.5-194.5-210.7
	C2804.5,2287.8,2790.7,2272.5,2774.5,2254.7z M1561.1,3368.8c1.6,3,2.4,6.2,4.4,7.9c10.5,8.9,21.1,17.7,32.2,25.9
	c113.2,83.8,231.1,160.7,351.5,233.8c12.3,7.4,22.1,8.6,35,0.6c127.2-78.9,252.5-160.6,373.9-248.3c6.7-4.8,12.5-10.9,18.5-16.2
	c-137.5-114.5-272.6-226.9-408.1-339.7C1833.1,3144.5,1698,3255.9,1561.1,3368.8z M1970.9,2164.1
	c119.4-104.6,237.9-208.4,357.9-313.5c-8.4-7.7-14.3-14.2-21.1-19.4c-105.7-80.4-211.6-160.6-317.1-241.1
	c-11.8-9-22.2-11.3-34.3-1.3c-5.3,4.3-11.7,7.2-17.3,11.3c-80.1,58.8-160.4,117.3-240,176.9c-30.5,22.9-59.1,48.3-89.8,73.5
	C1731.1,1956.1,1850.5,2059.6,1970.9,2164.1z M2380.7,1809.4c102.2-81.9,206.1-165.2,311.1-249.3c-99.2-91.3-210.8-153.6-334-196.2
	c-13.6-4.7-24.8-1.2-36.4,5.5c-85.2,49.2-170.6,98-255.7,147.4c-13.2,7.7-25.3,17.4-38.1,26.3
	C2146.2,1632.5,2262.2,1720,2380.7,1809.4z M2428.3,1850.6c117.3,107.7,231.4,212.5,347.1,318.7c9.2-8.2,18.2-15.6,26.6-23.7
	c40.1-39.2,80.2-78.5,120.1-118c48.1-47.6,45.3-28.8,18.4-93.4c-46.1-110.6-104.5-213.9-183.5-304.8c-6.8-7.8-14.4-15.1-22.7-23.8
	C2627.1,1682.7,2529,1766,2428.3,1850.6z M1217.5,1604.6c-7.9,7.5-12.4,11.2-16.3,15.4c-93.3,102.6-160.9,220.9-213.7,348.3
	c-6.6,15.9-1.5,25.3,9.4,36c50.5,49.8,100.4,100.2,150.7,150.2c6,6,13.2,10.9,20.8,17.2c57.7-55.6,112.9-110.3,169.8-163.3
	c57.2-53.3,116-104.9,176.6-159.6C1414.1,1766.1,1316.9,1686.2,1217.5,1604.6z M1560.4,1808.7c59.1-45.4,118-89.8,175.9-135.4
	c57.5-45.2,120.2-83.5,180.6-132c-16.5-10.8-28.3-19.5-40.9-26.7c-84.6-48.3-169.5-96.1-253.9-144.7c-13.5-7.8-25.3-6.6-39.2-2.3
	c-105.9,33.3-199.3,88.5-283.9,159.3c-13.3,11.1-25.9,23.1-39.2,34.9C1360.6,1644.7,1459.2,1725.7,1560.4,1808.7z M2196.8,1234
	c-1.8-16.9-2.7-29.5-4.6-42c-10.6-71.4-31.2-140.2-55.2-208c-31.6-89.2-67.8-176.3-120-255.9c-5-7.6-11.3-14.2-18.7-23.6
	c-116.2,160.6-198.9,330-228.3,527.2C1912.7,1213.5,2052.6,1218.6,2196.8,1234z M1840.8,799.6c7.3-11.3,12.6-19.3,17.7-27.4
	c19.1-31,37.4-62.4,57.4-92.9c14.5-22.2,29.8-44.1,47.2-64.1c24.8-28.5,42.3-28,69.3-1.3c5.6,5.5,11,11.4,15.3,18
	c18.5,27.8,36.7,55.8,54.6,84c7.7,12.2,14.5,25,24,41.3c14-14.2,26.6-25,36.4-37.9c4.4-5.8,5.7-16.7,3.8-24.1
	c-16.9-64.7-33.8-129.3-52.7-193.4c-28.7-97.3-65-191.8-110.9-282.4c-4.5-8.8-10.3-16.9-17.2-28.1c-5.8,9.6-9.1,14.4-11.8,19.5
	c-62.5,117.5-115.3,239.2-158,365.1c-14.8,43.7-25.6,88.7-38,133.2c-3.2,11.5-4.9,22.9,5.4,32.9
	C1801.5,759.7,1819.2,778,1840.8,799.6z M2237.5,1020.2c5.5-2.8,9.4-3.9,12.4-6.4c68.2-56.2,143.6-99.8,226.3-130.9
	c14.1-5.3,17.3-16.6,21-29.5c32.7-114.7,80.5-221.7,162.1-311c4.4-4.8,8.2-10.2,13-16.3c-123.7-15.4-430.7,176.6-502.8,311.5
	C2192.1,898.4,2214.3,958.1,2237.5,1020.2z M1107.1,3417.1c21.6,35.7,93.9,109.3,123.3,125.2c74.5-56.1,149.7-112.7,225.8-170
	c-118.1-102.6-234.3-203.6-352.7-306.4c-40.8,42.5-81.6,85-122.4,127.4c-8.8,9.2-4.5,18.3,0.3,27c22.9,42.4,45.4,85,69.4,126.8
	c8.5,14.8,20.6,27.6,32.3,43c16.2-15,29.5-27.4,44.8-41.6c-10.7-9.5-18.1-15.7-25-22.4c-5.6-5.4-13.4-10.8-15-17.4
	c-1.8-7.3,0-17.8,4.5-23.6c6.6-8.6,17.9-8.5,26.5-1.3c12.6,10.7,24.3,22.4,38.4,35.7c8.1-6.8,15.4-12.9,22.7-19
	c6-5,11.3-12,18.3-14.6c6.3-2.4,17.5-2.9,20.9,0.8c4.8,5.3,7.2,15.9,5.6,23.1c-1.4,6.7-9.4,12-14.6,17.8c-7,7.7-14.1,15.3-22,23.8
	c12.6,11.5,23.2,20.2,32.5,30.1c8.5,9,9.2,20,0.5,29.2c-9,9.6-19.4,7.6-29,0.1c-2.3-1.8-4.2-4.2-6.3-6.3c-27-27-27.1-27-58.5-3.6
	C1120.3,3406.2,1113.7,3411.9,1107.1,3417.1z M2832.9,3068.7c-120.4,103.5-235.7,202.7-354.2,304.6c77,58.1,153.3,115.8,229.6,173.3
	c7.3-4.7,12.6-7.3,17-11c99.8-85.2,174.3-189.1,228.8-307.9c5.6-12.1,2.6-19.5-5.7-28.6c-27.8-30.6-54.8-61.9-82.1-92.9
	C2855.3,3093.6,2844.2,3081.3,2832.9,3068.7z M1907.1,3681.2c-8.3-6.9-12.9-11.8-18.5-15.3c-37.5-23.5-76.3-45.2-112.7-70.2
	c-81.1-55.6-161.4-112.4-241.3-169.8c-24.3-17.5-24.3-19.7-47.9-2.5c-62.8,45.8-125.3,91.9-187.9,138.1
	c-7.6,5.6-14.5,12.2-24.5,20.9c57.8,46.6,121.7,75.4,172.9,101.4c24.4-18.3,44-32.9,63.9-47.8c-12.9-15.7-23.7-28.2-33.6-41.4
	c-5.9-7.9-5.7-16.4,1.6-24.1c7.4-7.9,15.7-7.9,23.8-2.2c8,5.6,15.4,12.1,22.9,18.4c6.6,5.5,12.9,11.2,21.2,18.5
	c9.9-9.7,18.1-17.8,26.4-25.8c15-14.5,23.4-16.6,32.9-8.5c10.4,9,9.2,18.8-5.4,35.6c-8.3,9.5-17.3,18.3-24.1,25.5
	c10.2,11.8,19.3,21.9,27.8,32.4c9.9,12.3,10.5,24.6,2.4,31.7c-8,6.9-20.9,5.1-31.6-5.1c-9-8.5-17.7-17.5-27.9-27.8
	c-17.5,12.4-32.9,23.3-51.1,36.1c8.9,5.7,13.3,9.7,18.4,11.7c60.6,23.7,123.1,40.9,187,52.6c10.8,2,23.6-0.7,34-4.9
	c37.3-15.2,74.1-31.7,110.9-48.2C1866.2,3701.7,1885.2,3691.9,1907.1,3681.2z M2661.5,3589.5c-14.7-12.6-23.2-20.6-32.4-27.6
	c-58.7-44.8-117.7-89.3-176.3-134.2c-24.9-19.1-24.6-19.4-49.5-2.3c-4.1,2.8-8.2,5.5-12.2,8.4c-114,84.5-230.8,164.7-352.8,237.4
	c-3.6,2.2-6,6.6-8.6,9.5c2.5,3.4,3.3,5.7,4.8,6.4c52.5,24.8,104.7,50.4,157.9,73.5c12.6,5.5,29.6,6.3,43.2,3.1
	c104.5-24.5,207.9-53.2,303.4-104C2578.8,3638.4,2617.2,3614.9,2661.5,3589.5z M1732.4,1032c3.9-5,6.2-7.1,7.2-9.6
	c17.3-42.9,34.2-85.9,51.6-128.8c4.8-11.7,1.9-20.4-6.5-29.3c-37-39.5-71.5-81.6-110.7-118.7c-99.2-93.8-216-157.3-347.8-192.9
	c-11.7-3.2-24.1-3.6-41.9-6.1c6.2,9.3,8.3,13.5,11.3,17c73.1,84,121.3,181.3,152.1,287.5c4.4,15,10.4,23.2,25.5,28
	c75.8,24.2,144.7,61.6,207.1,111C1697.1,1003.5,1713.9,1017.1,1732.4,1032z M1488.9,1311.2c68-21.8,131.4-42,195.3-62.5
	c6.8-32.6,12.4-66.6,21.4-99.6c5.2-19,0.6-30.8-13.2-43.9c-51.8-49.3-108.8-90.6-173.7-121c-85.6-40.2-174.8-65.6-270-67.6
	c-20.1-0.4-40.1,0.5-63.8,10.1C1331.8,1022.1,1433.2,1148.8,1488.9,1311.2z M2282.6,1252c58.5,19.3,119.5,39.3,183,60.2
	c12.3-26.4,23.5-52.5,36.3-77.7c12.9-25.4,26.4-50.6,41.4-74.8c14.5-23.3,30.2-46.1,47.4-67.5c17.8-22.2,37.4-43.1,57.6-63.1
	c20.2-20.1,41.3-39.5,63.4-57.3c21.4-17.2,44.7-32.1,67.1-48c-9.1-6-15.6-6.9-22.2-7c-185.7-2.4-346.1,61.7-485,183.2
	c-9.2,8-12.9,16-10.6,28.2C2268.6,1168.6,2275.2,1209.2,2282.6,1252z M1969.6,1504c93.9-55.3,188.6-111.1,284.8-167.8
	c-123-45.9-495.4-42-559.9,3.9C1785.8,1394.5,1877.6,1449.2,1969.6,1504z M3053.8,2471.5c1.7-0.7,3.4-1.4,5.1-2.1
	c-3.7-31.1-8.1-62.2-11-93.4c-9.6-103.2-31.7-203.8-59.6-303.3c-1.6-5.9-5.8-11-8.6-16.1c-54.3,54.1-106.9,106.5-160.4,159.9
	C2896.4,2300.4,2975.1,2386,3053.8,2471.5z M960.2,2059.3c-35.5,75-88.9,362.9-74.3,407.7c79-84.2,157.3-167.7,237.7-253.4
	C1067.7,2160.9,1014.2,2110.4,960.2,2059.3z M1532.5,321.8c3.9,13.4,6.3,21.5,8.6,29.7c5.6,19.9,13.2,39.5,16.3,59.7
	c7,46.7,12.5,93.6,17.2,140.6c1.5,14.9,5.6,24.2,19.3,32.9c33.2,21,64.3,45.2,96.3,68c5.1,3.6,10.5,6.9,16.1,10.6
	c2.7-4.7,4.7-7.1,5.5-9.8c14.3-47.1,28.9-94.1,42.2-141.4c1.7-6.1-1.3-15.6-5.4-21c-53.5-70.1-120.6-124-199-163.8
	C1546.3,325.7,1542.4,325,1532.5,321.8z M2410.2,297.8c-3.4-0.7-4.6-1.3-5.3-1c-83,39.1-146.9,100.8-202.7,172
	c-6.1,7.7-5.8,15.1-3.1,24.6c11.8,41.6,22.2,83.6,33.4,125.3c2.1,7.7,5.6,15.1,8.8,23.7c6.5-3.9,10-5.6,13.1-8
	c34.7-25.7,69-52,104.2-77c10.9-7.8,15.2-16.1,14.7-29.4c-2.8-71.6,10.1-140.9,32.7-208.6C2408.2,312.5,2408.8,305,2410.2,297.8z
	 M2981.9,3152.3c38.4-107.5,59.4-212.1,66.5-320.4c-59.1,64.8-118.1,129.6-177.9,195.2C2906.6,3067.6,2942.3,3107.7,2981.9,3152.3z
	 M952.7,3139.2c9.2-8.4,16.7-14.4,23.2-21.3c23.7-24.9,47.1-50.1,70.7-75.2c18.3-19.6,18.2-19.9-1.4-40
	c-52.9-54.2-106.1-108.1-149.6-170.5c-2.4-3.4-6.7-5.5-11.3-9.2C879.7,2882.1,921.2,3075,952.7,3139.2z M2082.7,3776
	c-8.8-5.4-17.3-11.3-26.4-16.2c-20.7-11.1-42.9-20-62.2-33.1c-17.3-11.8-31.3-10.6-48.8-1.5c-28.6,14.9-58.5,27.3-87.7,41.1
	c-5.5,2.6-10.2,6.6-20.7,13.6C1922.3,3790.2,2001,3789.5,2082.7,3776z"/>
<path d="M1460.7,2721.8c0.9-63.1,55.7-116.2,118.7-115.2c62.5,1.1,116.1,56.4,115.1,118.9c-1,64.5-53,113.1-119.9,111.9
	C1511.8,2836.4,1459.8,2783.6,1460.7,2721.8z"/>
<path d="M2471.4,2718.3c-0.8,64.8-53.6,117.8-116.3,116.6c-61.1-1.2-113.9-56.7-112.1-117.8c1.7-57,59.8-111.6,117.6-110.4
	C2420.5,2607.8,2472.1,2659.9,2471.4,2718.3z"/>
<path d="M1028.7,2551.4c20.8,19.3,40.8,37.8,61.4,56.9c16.9-3,25.4-17.6,37.2-27.1c6.9-5.5,13.1-11.9,20-17.4
	c9.9-8,19.8-7.4,29.1,1.3c9.8,9.2,11,19.8,1.5,31.3c-7.4,9-17,16.2-25.4,24.4c-8.2,8-16.2,16.2-26.4,26.4
	c11.5,11.6,21,21.1,30.3,30.7c8.2,8.4,17.3,16.2,24.2,25.6c8.7,11.8,6.1,25.8-4.7,33.9c-11.3,8.5-20.3,2.9-28.5-5.1
	c-10.5-10.3-20.7-21-31.3-31.3c-6.9-6.7-14.3-12.8-23.4-20.8c-14.6,13.1-27.4,24.9-40.6,36.3c-8.1,7-16.1,14.5-25.3,20
	c-9.6,5.7-20.5,3.7-25.7-6.1c-3.5-6.6-3.8-16.6-1.7-23.9c2.1-6.9,8.9-12.7,14.4-18.3c6.9-7,14.7-13,21.9-19.7
	c23.8-21.9,23.8-24.3,1.6-46.2c-7-6.9-14.5-13.3-20.9-20.8C999.8,2582,1001.7,2572,1028.7,2551.4z"/>
<path d="M2863.5,2648.2c18.7,18.7,35.8,34.7,51.4,52.1c5.3,5.9,10.5,15.5,9.6,22.7c-2.1,18.6-20.4,25-35.1,12.8
	c-13.6-11.3-25.8-24.3-38.9-36.2c-6.4-5.8-13.4-10.9-21.6-17.5c-11.9,10.9-22.5,20.8-33.4,30.4c-10.9,9.6-22.2,18.9-32.4,27.7
	c-31.5-17.5-33.3-27.2-10.9-49.7c13.1-13.1,26.9-25.4,42.5-40.1c-10.7-11.6-19.9-21.5-29-31.4c-7.3-7.9-15.3-15.4-21.9-23.9
	c-8.1-10.5-4.5-20.7,4-29c8.3-8.1,17.5-8,26.3-0.3c17.7,15.4,35.3,31,53.5,46.9c18.1-4.1,27.9-18.6,40.4-29.2
	c5.3-4.5,10.1-9.4,15.2-14c7.5-6.8,15-13.4,25.6-4.6c10.3,8.6,13.1,19.5,4.7,31.2c-7.4,10.3-17,19-25.9,28.2
	C2880.3,2631.8,2872.7,2639.1,2863.5,2648.2z"/>
<path d="M1964.4,2843.9c-55.9,1.2-96.9-22.8-121.5-73c-4.6-9.4-7.6-20.9-6.9-31.1c0.4-7.1,7.1-17.4,13.3-19.6
	c6.4-2.2,17,1.9,23.3,6.5c5.8,4.3,8.5,12.9,12.4,19.7c17,29.5,41.2,47.8,76.4,46.6c36.8-1.3,67.2-13.6,82.3-51.2
	c3.4-8.6,9.9-19,17.5-21.9c7.3-2.8,20.8,0.2,26.3,5.8c5.4,5.4,7.1,18.1,5.4,26.4c-9.7,45.8-52.3,84-98.9,90.1
	C1984.1,2843.5,1974.2,2843.4,1964.4,2843.9z"/>
<path d="M1500.1,2244.3c-12.5-11.4-22-19.7-31.1-28.4c-5.6-5.4-11.5-10.9-15.6-17.4c-6.3-9.8-2.4-19.1,5.2-26.5
	c7.8-7.5,17.3-10.6,26.3-2.7c15.4,13.5,30.1,27.8,45.8,42.4c19.3-3.8,29.9-20.7,45-30.7c7.5-4.9,18-10.8,25.4-9.1
	c17.9,4.3,22.3,23.5,9.2,36.7c-13.7,13.8-29,26.1-46.1,41.3c10.1,10.5,18.9,19.3,27.4,28.4c6,6.5,12.1,13,17.2,20.1
	c6.8,9.6,4,18.8-3.9,26.4c-7.8,7.5-16.9,6.2-24.1,0.1c-12.7-10.8-24.5-22.7-36.2-34.6c-4.1-4.2-6.7-9.8-11.4-17.1
	c-12,9.7-20,16.3-28.3,22.6c-10.1,7.7-20.1,15.6-30.8,22.6c-9.6,6.3-19.2,4.1-26.4-4.3c-7.9-9.2-5.2-18.3,2.8-26.1
	c7.7-7.5,15.8-14.7,23.9-21.8C1481.6,2259.9,1489.1,2253.7,1500.1,2244.3z"/>
<path d="M2371.7,2246.6c-14.5-12.8-23.2-20.5-31.8-28.2c-5.8-5.2-12.8-9.7-17.1-16.1c-6.6-9.9-6.3-20.5,3-29.4
	c8.4-8,17.9-8,26.8-1.5c7.9,5.8,14.9,12.8,22.5,19c8.2,6.8,16.6,13.5,27.4,22.2c15.3-12.8,30-25.4,45-37.7
	c8.4-6.9,18.6-10.1,26.2-0.9c4.9,6,8.4,15.7,7.5,23.1c-0.8,6.7-7.9,13.3-13.5,18.5c-9.9,9.3-20.8,17.6-34,28.7
	c14.9,14.6,26,25.3,36.9,36.1c23,22.9,22.4,27.7-6.2,46.3c-25.9-9.2-38.4-35-61.8-52.1c-6.4,4.6-13.7,9.2-20,14.8
	c-7.3,6.5-13.5,14.3-20.6,21.1c-15.7,15.1-26.6,16.8-38.4,6.6c-10.2-8.9-9.1-18.1,7.1-34.7
	C2342.2,2270.9,2355.5,2260.7,2371.7,2246.6z"/>
<path d="M2473.9,3045.4c14.5,13.8,26.8,25,38.6,36.7c15.7,15.5,16.4,24.4,3.4,36.8c-10.9,10.5-16.4,9.8-32-5.1
	c-8.5-8.1-16.4-17-24.8-25.2c-14.7-14.5-18.2-14.6-34.2-0.5c-8.8,7.8-16.6,16.9-25.9,24.1c-12.7,10-20.9,8.7-30.8-1.9
	c-9.8-10.5-5.8-19.6,2.5-28.3c12.1-12.7,24.3-25.3,38.3-39.8c-13.9-13.2-26.5-25-38.9-37.1c-8.7-8.5-11.8-17.9-3.6-28.7
	c7.7-10.1,16.8-14,27.5-5.2c15.1,12.4,29.7,25.4,47.3,40.5c7.9-5.7,16.6-11.2,24.4-17.8c6.7-5.7,11.9-13.1,18.4-19.1
	c14.5-13.5,22.4-14.1,32.5-3.2c9.9,10.7,9.4,19-3.4,33.3c-7.2,8-15.5,15.1-23.1,22.8C2485.6,3032.3,2481.2,3037.4,2473.9,3045.4z"/>
<path d="M1499.7,3009.9c15.5-14.1,28.7-27,42.8-38.7c13.1-10.9,21-10.2,30.4,0.5c9.3,10.5,6.1,20.2-2.6,28.5
	c-13.4,12.8-27.5,24.7-44.3,39.7c17.8,16.3,31.9,28.3,45,41.4c12,12,11.8,19.3,1.6,30.1c-9.9,10.4-17.6,10.9-30.4-0.5
	c-13.8-12.4-26.7-25.8-42.5-41.3c-11.1,9.4-21.2,18.1-31.5,26.5c-7.6,6.2-14.7,14.6-23.5,17.1c-6.6,1.9-17.5-2-22.6-7.1
	c-3.7-3.6-3.4-14.8-0.6-20.5c3.7-7.5,11.4-13.3,17.9-19.2c31-28.7,31.1-28.7,0.4-55.6c-3.7-3.2-7.7-6.2-11-9.8
	c-10.5-11.5-11.3-21.8-3-31.3c8.8-10.1,17.5-10.2,30.4,0.9C1469.6,2982,1482.4,2994.1,1499.7,3009.9z"/>
<path d="M1965.3,3370.7c-15.7,12.6-28.5,23.2-41.7,33.4c-10.9,8.4-21.9,16.6-33.2,24.4c-8.2,5.7-17,6.3-23.7-2.1
	c-7.2-8.9-11.5-19.2-2.7-29.4c6.4-7.4,14.2-13.5,21.4-20.1c13.5-12.4,27.1-24.7,43-39.2c-20.1-19-37.5-34.6-53.9-51.2
	c-14.1-14.2-9.2-34.1,10.1-37.1c8-1.2,18.8,4,25.9,9.6c17.7,13.9,33.9,29.7,53.2,46.9c7.7-5.8,15.5-11.1,22.6-17.2
	c11.1-9.7,21.5-20.3,32.7-29.8c10.2-8.6,21.4-10,31.7,0.2c9.9,9.7,9.2,21-2.9,33.6c-6.8,7.1-15.2,12.5-22.3,19.2
	c-9,8.6-17.3,17.9-26.7,27.7c20.1,18.7,38.1,35.2,55.9,51.9c7.7,7.2,12.1,15.1,6.8,26.2c-8.1,17.2-20.3,21.2-35.2,9.1
	c-13.7-11.2-25.9-24.1-38.9-36.1C1980.9,3384.6,1974.4,3378.8,1965.3,3370.7z"/>
<path d="M1984.2,1832.4c18-16.1,33.8-30.7,50.1-44.7c7.6-6.5,16-11.5,26.6-4.5c14.2,9.3,17.2,20.7,5.6,34.5
	c-14.4,17.2-30.7,32.7-47.6,50.5c16.3,16.8,33.3,32.8,48.3,50.5c11.7,13.7,6.6,30.5-9.9,34.2c-6.5,1.4-15.6-1.4-21.3-5.5
	c-10.3-7.4-18.9-17.1-28.3-25.8c-7.8-7.2-15.7-14.3-25.9-23.6c-13.7,12.4-25.7,23.6-38,34.4c-7.4,6.5-14.8,13-22.8,18.6
	c-11.1,7.6-20.4,2.9-28.6-5.8c-8.8-9.3-5.9-18.4,1.6-26.1c13-13.4,26.8-26,40.1-39.2c4.1-4.1,7.5-8.9,13.3-15.9
	c-7.7-7.8-14.8-15.3-22.2-22.6c-7-6.9-15-12.9-21.3-20.4c-12.7-14.9-12.4-24.2-0.5-35.9c10.8-10.7,18.3-10.8,33.1,2.1
	C1951.8,1800.7,1966.2,1815.3,1984.2,1832.4z"/>
<path d="M2378.7,1578.4c-13.6-11.5-23.8-19.1-32.8-27.8c-12-11.5-13-23.6-4-33.8c9.1-10.3,19.9-9.9,33.2,2.1
	c5.8,5.2,10.4,11.7,15.6,17.6c13.7,15.4,18.1,16.1,34.1,3.4c11.5-9.1,22.2-19.3,33.6-28.5c2.8-2.3,7.1-2.6,10.3-3.7
	c21.8,19.5,22.4,26.9,3.7,45.1c-9.1,8.9-18.8,17.1-28,25.8c-1.2,1.1-1.1,3.6-1.7,6.3c12.6,12.8,26.1,25.3,38.1,39.1
	c10.7,12.4,8.9,25-4.6,31.7c-5.9,2.9-15.7,2.7-21.4-0.4c-8.3-4.5-14.8-12.7-21.7-19.6c-7.5-7.4-14.6-15.2-23.6-24.6
	c-10,8.4-18.2,15-26,22c-5.9,5.2-10.8,11.4-16.9,16.3c-15,12-24.5,12.8-33.9,3.5c-9.4-9.3-8.2-19.3,4.8-33.2
	c6.7-7.1,14.6-13.1,21.6-20C2365.1,1594,2370.5,1587.4,2378.7,1578.4z"/>
<path d="M2760.3,1880.9c10.3-8.6,18.4-15.4,26.5-22.1c6-5,11.5-12.8,18.3-14.1c7.3-1.5,17.9,0.9,23.1,5.8c3.7,3.5,3.6,15.5,0.4,20.9
	c-5.8,10-14.7,18.3-23.1,26.6c-10.6,10.5-10.3,20.2-0.3,30.7c7.5,7.8,14.8,15.9,21.8,24.1c7.1,8.3,9.5,17.3,1.3,26.5
	c-8,9-21.2,9.7-31.5,0.6c-12.4-11-24.2-22.8-38.7-36.6c-8.7,7.3-18.2,15.2-27.7,23.2c-6.8,5.7-12.8,12.7-20.4,16.7
	c-10,5.3-19,1.4-25.6-7.8c-6.2-8.5-5.3-16.7,1.9-23.9c6.3-6.2,13.3-11.7,19.7-17.8c7.6-7.3,15-14.9,23.9-23.8
	c-11.6-12.7-21.9-23.1-31.2-34.3c-11.2-13.6-11.3-24.8-1.7-33.9c9.7-9.1,20.8-8.1,33.4,4.6C2740.1,1856,2748.4,1866.9,2760.3,1880.9
	z"/>
<path d="M1160.9,1912.4c-14.5-14.9-22.7-23.1-30.7-31.6c-4.1-4.3-8.2-8.5-11.6-13.2c-6.1-8.6-4.3-16.5,2.7-23.9
	c7.5-7.8,15.3-8.1,23.4-1.2c13.4,11.4,26.6,23,43.1,37.4c11.3-10.8,22-21.6,33.5-31.6c14.4-12.6,25.5-11.1,34.1,3.3
	c6.2,10.4,2.7,18.9-5.3,26.2c-10.8,9.9-21.8,19.6-34.5,31c15.2,15.4,28.1,27.1,39.2,40.4c5.1,6.1,10,15.8,9,23
	c-2.3,16.8-19.9,22.4-33.1,11c-14.8-12.7-28.3-26.8-45.2-43.1c-12.6,11.3-23.7,21.9-35.5,31.6c-5.9,4.8-13.3,11-19.9,10.8
	c-6.1-0.2-14.9-7-17.2-12.9c-2.1-5.6,0.5-16,4.9-20.5C1130,1936.7,1144.3,1926.2,1160.9,1912.4z"/>
<path d="M1510.4,1578.4c-14.6-13.9-29.1-25.5-40.9-39.5c-11.9-14.1-3-33.4,14.7-33.9c5.3-0.2,11.6,2.5,16,5.7
	c7,5.2,12.9,12,19.2,18.1c6.2,6,12.3,12.1,20.7,20.4c10.2-8.2,19.2-15.1,27.8-22.5c5.9-5.1,10.9-11.4,16.9-16.3
	c7.9-6.4,16.3-6.1,24.1,0.7c8.6,7.6,10.8,17.4,3.9,26.3c-7.7,10.1-17.6,18.4-26.3,27.7c-3.2,3.4-5.7,7.6-10.2,13.5
	c11.8,12.5,23.1,24.5,34.4,36.4c8.6,9,16.5,18.5,5.4,30.4c-10,10.7-21.6,8.7-31.5-0.1c-13.8-12.2-26.7-25.4-42.1-40.2
	c-10.4,9.6-19.5,18-28.6,26.5c-5,4.7-9.2,10.3-14.6,14.6c-12.7,10.1-23.4,10.3-31.3,1c-9.6-11.4-6.1-22.3,3-31.5
	C1483.3,1603.3,1496.3,1591.7,1510.4,1578.4z"/>
<path d="M2733.2,3327.9c11.5-10.7,18.3-17.4,25.6-23.6c5.1-4.4,10.3-9.8,16.4-11.9c11.1-3.8,22.1-1.3,28.3,9.4
	c5.8,10,1,18.7-6.5,26.3c-9.5,9.6-18.8,19.3-29.7,30.5c10.9,12.3,20.1,22.1,28.7,32.5c8,9.7,13.1,20.6,1.9,31.3
	c-11.2,10.7-21.7,5-31.2-3.2c-5.9-5.1-11.3-10.9-17-16.3c-16.4-15.3-19-15.2-36.2,0.6c-7.2,6.6-14.3,13.5-22.2,19.1
	c-10.1,7.3-20.6,6.4-29.2-2.8c-9.3-9.8-6.3-20.4,1.7-29c10.5-11.4,22.2-21.6,35.6-34.4c-6.7-7.4-12.6-13.5-18-19.9
	c-5.6-6.7-12.2-13.1-15.9-20.8c-5.5-11.5-4.2-23.1,7.3-31.4c10.7-7.7,18.9-1.2,25.9,5.7C2709.7,3301.2,2719.8,3313.1,2733.2,3327.9z
	"/>
<path d="M2366.9,3643.5c12.3,12.6,22.4,23.1,32.5,33.3c8.1,8.2,15.3,16.4,4.2,27.3c-10.8,10.6-27.9,12.8-37.1,3.3
	c-10.1-10.4-18.5-22.5-29-35.4c-7.5,5.1-13.8,9.2-19.9,13.5c-8,5.6-15.4,12.4-24,16.9c-10,5.3-21.3,7.2-29.3-3.5
	c-8.8-11.7-4.1-22.3,5.4-31.2c8.5-7.9,17.4-15.3,27.9-24.5c-9-11.2-18.2-20.3-24.2-31.1c-4.4-7.8-7.4-18.6-5.8-27
	c2.9-15.4,17.2-19.9,29.1-9.4c12.4,10.9,22.6,24.3,35.5,38.7c11.8-10,20.6-17.3,29.1-24.8c4.4-3.9,7.7-9.2,12.5-12.3
	c10.9-7.1,20.6-3.8,28.7,5.3c8,9,6.7,18.1-1.1,26.3C2390.8,3619.9,2379.7,3630.6,2366.9,3643.5z"/>
</svg>
