<?xml version="1.0" encoding="utf-8"?>
<!-- Generator: Adobe Illustrator 24.3.0, SVG Export Plug-In . SVG Version: 6.00 Build 0)  -->
<svg version="1.1" id="Layer_1" xmlns="http://www.w3.org/2000/svg" xmlns:xlink="http://www.w3.org/1999/xlink" x="0px" y="0px"
	 viewBox="0 0 4000 4000" style="enable-background:new 0 0 4000 4000;" xml:space="preserve">
<path d="M2366.6,3231.8c57.7,234.9,9.1,434-192.3,571.4c-167.7,114.4-351.1,113-519.7,2.3c-222.9-146.4-256.8-360.4-183.5-604.9
	c-172.9-17.3-303.8-99-381.5-256.3c-76.5-154.9-64.9-309.2,13.6-463.7c-162.1-41.9-279.8-132.4-336.6-291.7
	c-56.2-157.7-30.6-304.2,62.4-443.2c-6.9-5.7-12.5-11.6-19.1-15.8c-117.2-75.2-184.9-182.7-204-319.7
	c-34.8-249.4,142.8-496.9,406.9-524.6c124.8-13.1,238.8,12.8,341.2,86.3c5.9,4.3,11.6,8.9,17.2,13.5c5.6,4.6,10.9,9.4,17.2,14.7
	c156.2-108.6,322.6-129.2,502.7-57.4c1-16,1.7-28.1,2.4-40.3c11.2-197-75.6-344.4-231.9-455.9c-64.2-45.8-134.4-80.5-210.7-102
	c-9-2.5-17.7-6.4-26.4-9.9c-26.2-10.4-38.5-30.9-41-58c-2.4-25.8,2.5-50.9,16.1-72.4c23.5-36.9,47-74.5,75.3-107.6
	c42.5-49.8,85-56,142.6-25.2c112.7,60.2,211.4,138.4,297,233.3c49.3,54.6,92.6,113.3,127.5,178.1c2.4,4.5,5.5,8.7,9.4,14.9
	c21.2-3.2,42.6-6.4,67-10c-1.8-11-2.7-20-4.8-28.7c-23.8-102,25.2-222.2,128.9-278.9c45.3-24.7,92.8-43.3,142.6-55.9
	c66.1-16.8,133.3-26,201.5-27.4c8.4-0.2,16.8-0.2,25.1,0.6c51,4.9,69.3,32.9,53.7,82.2c-6.2,19.6-13.1,39.1-20.5,60.9
	c9.6,1.8,16.5,4.3,23.4,4.3c92.9-0.4,173.9,36.1,247.4,87.4c52,36.3,99,80.2,146.2,123c30.8,27.9,31.2,51.1,3,77.7
	c-44.9,42.2-91,83.2-138,123.1c-39.5,33.6-86.9,53.7-135.2,71.4c-7.5,2.8-14.9,6-24.5,9.8c5.4,6.9,8.7,12,12.7,16.4
	c7.7,8.5,16.4,16.2,23.7,25c35.4,42.7,28.8,74.8-21.8,99.1c-55.5,26.7-115.1,37.8-176.2,39.8c-31.2,1-62.5-2.6-93.8-4.5
	c-10.7-0.6-21.8-2.8-24.4,12c-2.2,12.6,0.6,23.9,14,27.8c40.3,11.9,78,29,114.7,49.8c9.1,5.1,26.6,0.3,38.1-4.8
	c44.2-19.7,89.9-33.9,137.5-41.8c97.2-16.1,189.8,1,277.5,43c140.1,67.1,223.1,180.1,252.7,331c39.8,203.1-50.9,394.2-231.6,496.4
	c-8,4.5-15.5,9.8-24.3,15.4c78.1,144.2,91.8,291.6,24.4,441.1c-67.3,149.2-189.2,232.1-349.8,267.2
	c62.5,150.7,55.8,295.8-18.9,435.6C2646.5,3127,2526.1,3207.3,2366.6,3231.8z M2122.4,776.6c0-18.7,0-37.4,0-56.1
	c-1,0-2,0.1-3.1,0.1c1.1,18.5,2.2,37,3.3,55.6c0.8,69.8,0.4,139.6-11.8,208.7c-1.1,6.3-0.8,12.9-1.1,19.5
	c51.3-21.9,100.3-42.7,150.5-64.1c-5.5-4.1-10.2-8.3-15.5-11.3c-56.3-31.9-91-81.2-113.8-140.3
	C2129.1,784.2,2125.1,780.7,2122.4,776.6z M1293.3,1378c-4.9,207,166.9,388.9,372,392.5c219.7,3.9,404.5-154.2,410.1-377.8
	c4.9-196.9-121.9-396-375.7-407C1497.1,976.9,1294,1136.5,1293.3,1378z M824.2,2030.8c-0.2,40.4,6.2,84.9,21.6,127.5
	c67.3,185.9,266.3,285.8,459.9,231.9c84.5-23.5,154.2-68.1,205.3-140.3c8-11.4,15.2-22.2,10.2-37.3c-26.5-80.4-19.3-161.1,1.6-241
	c8.7-33.2,23-64.9,34-97.5c7.2-21.2,4.8-27.6-14.8-38.2c-15.6-8.4-32.1-15.2-48.5-22c-72.9-30.4-134.8-75.3-181.1-139.8
	c-12-16.7-26.9-26.4-47.1-26.1c-37.5,0.5-75.5-1.4-112.4,3.8C962.3,1678.5,821.9,1833.1,824.2,2030.8z M2371.6,2081.1
	c2.6-56-17.3-121.3-48-184.2c-9.6-19.7-23.1-29.2-45-33.6c-30.5-6.1-60.7-15.5-89.8-26.5c-56.6-21.5-103.8-57.6-147.9-98.4
	c-18.1-16.7-20.9-16.5-40-2.5c-16.9,12.3-33.2,25.5-50.5,37.2c-75.7,51.1-160.3,74.9-250.6,80.3c-18.5,1.1-33.3,4.3-44.8,22.2
	c-90.1,141.1-90.2,318.6,17.8,464.6c91.7,124,257.4,184.8,419.7,136.9C2260.5,2427.4,2373.3,2275.6,2371.6,2081.1z M1561.7,2329.4
	c-19.3,16.8-37,31-53.4,46.5c-65.3,61.9-144.4,94.3-231.6,109.3c-16.4,2.8-33.2,3.4-49.9,4.5c-16.8,1.1-29.8,6.9-37.6,23.2
	c-10,20.7-22.3,40.2-31.9,61c-69.1,151.2-28.1,341,96.7,449.9c137.7,120.2,334.3,125.6,484.7,21.1
	c144.4-100.3,203.2-292.1,144.7-460.1c-6.6-19-19.4-24.7-36.3-29.6c-112.4-33.4-202.3-97.4-265.6-197.2
	C1576.1,2349.4,1570,2341.2,1561.7,2329.4z M1898,3001.5c-7.4,9.8-11,14.8-14.9,19.6c-74.8,91.6-167.5,153.3-286.4,171
	c-18.6,2.8-28.6,13-36.6,29.7c-38.5,81.3-47.3,165.9-32.1,254c39.8,230,259,351.5,449.7,316.5c294.2-54.1,375.4-348.2,305.9-525.6
	c-9.7-24.9-22.4-35.5-48.9-38.9c-82.4-10.8-158.8-39.5-221.1-95.6c-33.9-30.5-62-67.5-92.5-101.8
	C1914.5,3022.9,1908.5,3014.7,1898,3001.5z M2373.1,1792.2c18.9-2.3,45-3.8,70.5-8.8c111.1-21.6,200.5-78,259.4-175.3
	c130.6-215.6,26.9-511.1-233.9-576.9c-130.9-33.1-248.2-5-351.7,81c-23.4,19.5-23.2,20.3-9.5,46.8c35.6,69.2,52.7,143.4,51.8,220.5
	c-1,81.4-21.7,159-60.5,231.3c-7.8,14.5-22,31.5-19.1,44.1c3.4,14.7,21.8,26.4,34.7,38.3C2185.9,1758.1,2270.8,1787.6,2373.1,1792.2
	z M1974.6,2580.5c0,6.4-0.9,10.6,0.1,14.4c25.6,99.3,19.3,196.6-18.9,291.7c-5.9,14.7-4.1,28.1,2.9,42
	c19.4,38.5,43.2,73.9,72.6,105.4c103.4,110.6,272.1,148.2,427.7,83.7c152.7-63.3,243.7-209.1,239-377.9
	c-1.6-58.2-12.9-113.9-39.3-166.3c-7.7-15.3-18.1-23.4-36.3-24.4c-99.5-5.5-186.2-42.8-261.2-108.1c-7.6-6.6-16-12.4-23.5-18.1
	C2192.2,2549.7,2144.2,2562,1974.6,2580.5z M2407.3,1876.1c7,16.9,13.1,30,18,43.6c49.4,136.2,38.2,268.6-24.7,397.9
	c-14.4,29.6-14.2,30.7,10.1,52.9c156.4,142.5,379.6,122.7,519.1-4.2c81.6-74.2,118.1-169,118.3-279.7
	c0.4-159.5-115.8-327.5-291.5-360.2c-23.1-4.3-38.5-1.4-55.6,15.4c-56,55-121.2,95.8-198,115.4
	C2472.9,1864.9,2442,1869.3,2407.3,1876.1z M1241.4,1560.9c-65.3-184.8-32.1-349.2,85.9-500c-12.7-9.9-22.7-18.8-33.8-26.2
	c-136-90.2-276.6-93.8-417.5-15.5c-112.8,62.7-176,163.2-187.9,290.9c-14.5,155.2,51.9,273.1,180.9,357.5
	c21.5,14,24.8,14.1,44.2-2.1c85.6-71.8,185.7-101.2,295.6-103.1C1218,1562.1,1227.3,1561.5,1241.4,1560.9z M2715.6,814.5
	c-9.5-11.8-16.1-19.1-21.8-27.1c-15.6-22-33.6-42.9-45.4-66.8c-12.4-25.3-0.5-47.7,26-57.6c11.6-4.3,24.2-6.8,36.6-8.4
	c60.7-7.7,114.8-31.6,163.1-68c30.8-23.2,58.9-49.9,87.8-75.5c5.9-5.2,10-12.2,15.1-18.5c-55.5-58.3-117-104.4-188.2-137
	c-58.9-27-119.7-35.9-183.2-17.9c-8,2.3-16.5,2.4-24.6,4.2c-32.7,7.3-63.1-27.4-52.1-62.1c5.7-17.8,14-34.9,21-52.3
	c6.1-15,12-30,19.7-49.3c-75.7,6.8-144.1,19.2-209.9,44c-44.3,16.7-85.8,38.3-119.3,73c-47.5,49.2-60.6,105.8-37.3,170.2
	c8.1,22.5,17.5,44.5,26.7,67.9c6.7-1.7,13.6-4,20.6-5.1c25.5-3.8,36.9-18.8,46.8-42.9c18.6-45.1,42.3-88.4,66.9-130.7
	c12.4-21.4,31.1-39.2,47.8-57.9c9.2-10.2,20.5-9.5,30.4-0.1c9.5,9.1,7.1,18.7-0.2,27.9c-2.6,3.2-5.5,6.4-8.6,9.1
	c-40.5,35.3-64.4,81.8-86.3,129.5c-6.2,13.4-9.7,28-15.8,46.3c162.6-28.1,319.8-43.9,478.1-33.5c5.3,34.3,3.4,37.1-25.1,38.7
	c-11.5,0.7-23,0.8-34.5,0.7c-132-0.7-263.2,7.5-393,32.3c-6.7,1.3-13.2,3.9-21.2,6.3c2.5,6.9,3.3,12.1,6,16.2
	c26.8,41.5,57.4,79.7,97.6,109.3c12.6,9.3,25.1,18.8,37.2,28.7c9.3,7.6,16.6,16.4,10.1,29.6c-23.1,6.3-27.1,6.6-46.1-7
	c-55.8-40.1-104-87.3-135.7-149.3c-3.7-7.2-8.2-13.9-10.1-17.2c-25.5,0-49.8,6.2-68.1-1.6c-20.8-9-38-5.9-57.3-2.8
	c-18.6,3-37.3,4.5-55.9,7.5c-10.8,1.7-21.3,4.9-32,7.4c1.2,12.7,3.7,20.3,14.8,19.8c6.2-0.3,12.3-2.3,18.5-2.9
	c22.9-2.1,45.8-5.9,68.6-5.4c28.8,0.7,36.3,12.6,29.9,40.4c-2.8,12.2-5.9,24.4-8.4,36.7c-10.7,51-0.7,97.6,30.4,139.4
	c32.6,43.9,77.4,69,129.1,83.2c3.4,0.9,7.6-0.9,9.2-1.2c4.9-21.4,6.5-41.6,14.3-59.1c10.1-22.5,23.9-31.8,50.2-22.2
	c29.3,10.7,60.3,16.8,90.7,24.1C2590.3,842.4,2650.1,831.1,2715.6,814.5z M2706.8,1070.8c157.6,176.5,172.1,366.8,76,571.9
	c7.1,3.2,12.4,6.5,18.2,8.2c71.3,21,135.8,54.2,188.6,107.3c14.6,14.7,27.3,9,42.2,2c191.4-90.2,262.4-306.2,185.8-490.6
	c-77.1-185.5-283.5-272.7-470.6-215.1C2734.5,1058.3,2722.4,1064.4,2706.8,1070.8z M2013.2,1025.7c3.7-11.9,8.5-23.2,10.6-35
	c3.8-20.5,6.2-41.3,8.7-62c18.3-147.2-3.5-287.3-74.6-418.5c-68.2-125.9-168-222.6-283.1-305.1c-12.5-8.9-25.8-16.7-41.9-27
	c-17.9,43.8-37.8,83.2-72.7,110.2c53.5,31.5,106.3,57.5,153.4,91.2c201.1,143.9,288.2,340.1,261.4,586.2
	C1971.1,1001.1,1974,1007.4,2013.2,1025.7z M1470.7,261.3c8.1,2.1,13,4.6,17.9,4.5c41.9-0.1,96.9-55.1,97-96.7
	c0.1-18.1-18.9-31.4-37.9-24.7c-8.4,2.9-17.1,9-22.3,16.1c-16,21.9-31.1,44.5-44.9,67.8C1475.1,237.5,1474.1,249.4,1470.7,261.3z"/>
<path d="M1998.8,1401c-0.2,42.1-33.3,72.4-78.2,71.8c-37.7-0.5-69.6-32.5-70.4-70.5c-0.8-40.8,34.1-77.3,74.3-77.6
	C1966.7,1324.3,1999,1357.6,1998.8,1401z"/>
<path d="M1449.4,1319c39.1,0.6,70.4,32.7,70.7,72.6c0.3,41.5-33.9,73.9-76.9,72.9c-40.4-0.9-69.4-31.8-68.8-73.2
	C1374.9,1352.3,1410,1318.5,1449.4,1319z"/>
<path d="M1685.1,1538.3c-50.9-1.3-83.8-25.9-95.6-69.3c-3.8-14.1,1.1-22.4,12-28.3c12.4-6.7,19.3,1.5,24.7,11.3
	c2.5,4.5,4.5,9.4,7,13.9c23.1,41.6,79.7,42.1,104.4,1c3.2-5.3,4.7-12.3,9.1-16.2c5.5-4.9,14.1-11.3,19.7-9.9
	c6.1,1.5,12.8,10.5,14.5,17.3c1.8,7.3-0.6,16.5-3.5,24C1764,1518,1728.1,1539.4,1685.1,1538.3z"/>
<path d="M1125.7,1725.1c20.7,0.4,29.3,7.4,31.7,23.4c2.2,14.7-4,24.1-18.4,28.1c-7,2-13.9,4.5-20.9,6.6c-54.2,16.9-95.7,50-125.4,98
	c-7.1,11.5-13.7,23.4-20,35.5c-6.3,12.1-13.6,21.7-29.2,16c-11.9-4.4-20.7-19.8-17.8-33.3c1.9-9.1,5.7-17.9,9.8-26.3
	c34.4-70.3,90.5-116.1,163.2-142.5C1108.3,1727.1,1119,1726.4,1125.7,1725.1z"/>
<path d="M893.5,2045.9c1.1-15.9,1-27.5,2.8-38.7c2.2-14,10.4-22.4,25.7-21.8c13.5,0.4,23,7.6,23.3,20.5c0.7,24.8,0,49.8-2.4,74.6
	c-1.1,11.3-12,18.4-23.2,15.9c-7.9-1.8-18.2-8.1-20.7-14.9C894.3,2069,894.7,2054.9,893.5,2045.9z"/>
<path d="M2206.1,2119.3c-38.2,0.3-72.6-33.5-72.4-71.3c0.2-41.3,34.7-77,74.6-77.2c42.1-0.2,73.7,30.2,74.4,71.8
	C2283.5,2086.9,2251.6,2118.8,2206.1,2119.3z"/>
<path d="M1731.6,2111.1c-41.9,0-71.4-29.3-71.1-70.4c0.4-42.5,31.2-74.3,72.2-74.5c42.5-0.3,73.6,32.4,73,76.6
	C1805.2,2082,1773.6,2111.1,1731.6,2111.1z"/>
<path d="M1972.6,2184.1c-42.9-1-71.7-16.6-90.6-49.2c-3.1-5.4-5.7-11.3-7.2-17.2c-4.2-16.4,0.2-28.7,11-31.8
	c14.1-4.1,21.2,4.6,26.9,15.5c1.4,2.8,2.7,5.6,4.2,8.4c23,42.2,79.8,44.9,106.8,4.9c3.5-5.2,6.1-10.9,9.5-16.1
	c7.1-10.9,16.4-16.8,28.8-9.2c11.2,6.9,14.5,17.7,9.1,29.8c-12.3,27.7-30.3,50.2-60.8,58.6
	C1996.4,2181.6,1981.6,2182.7,1972.6,2184.1z"/>
<path d="M1842.1,2721.8c0,41.3-33.6,74-76.6,74.3c-39.7,0.3-72.2-31.3-72.4-70.5c-0.2-40.7,35.2-78.8,73.4-78.9
	C1809.3,2646.7,1842,2679.2,1842.1,2721.8z"/>
<path d="M1297.7,2756.8c-37.2-1.4-65.8-34.2-64.4-73.8c1.4-40,33.8-71.4,72.4-70.2c39.2,1.3,72,35.2,70.5,72.7
	C1374.4,2728,1340.9,2758.5,1297.7,2756.8z"/>
<path d="M1521.7,2836.3c-30.6-1.9-63.6-16.1-80.9-55c-3.7-8.3-5.4-17.8-6.2-26.9c-1.1-11.6,4.8-22.4,16.2-22.6
	c6.7-0.1,14,9.2,20.2,15.2c2.7,2.6,3.4,7.5,4.7,11.4c8,23.8,25.2,34.4,49.5,35.6c24.6,1.2,45.5-4.7,57.3-28.7
	c0.9-1.9,1.8-3.8,2.9-5.5c6.4-10.1,13.3-19.7,27.3-13.5c12.6,5.7,16.3,19,8.6,34.9C1603.2,2818.6,1572.4,2836.4,1521.7,2836.3z"/>
<path d="M2150.7,3371.9c40.2-0.1,73,33.1,73.2,74.2c0.2,41-33.1,72.3-77.9,73.1c-39.3,0.7-70.6-29.2-71-67.7
	C2074.6,3408,2108.8,3372.1,2150.7,3371.9z"/>
<path d="M1671.2,3515c-39.2-0.5-68.6-30.8-68.5-70.4c0.1-42.8,33.2-75,76-73.8c39.6,1.1,69.3,32.8,69.2,73.9
	C1747.8,3484,1713.4,3515.5,1671.2,3515z"/>
<path d="M1908.7,3583.8c-26.8-1.4-52.3-7.5-70.4-28.4c-9.2-10.6-15.9-24.1-21.1-37.4c-4.7-12-4.9-26.7,9.5-32.4
	c15.7-6.3,21.5,8.3,27.6,18.8c20.2,35.1,37.3,43.8,73,37c22.6-4.3,37-17.7,44.7-39c4.3-11.9,10.9-20.7,25.5-15.4
	c12.3,4.5,15.6,14.6,10.7,31.4C1996.6,3558.4,1956,3585,1908.7,3583.8z"/>
<path d="M2513.6,1122c7.6,3,19.9,6.2,30.6,12.2c66.8,37,106.5,94.6,125.5,167.5c1.3,5,1.8,10.2,2.4,15.4
	c1.5,14.5-8.5,20.5-19.6,24.5c-12.4,4.4-19.9-2.8-24.4-13.4c-6.9-16.3-13.3-32.8-20.1-49.1c-19.3-46.3-52.9-79.2-96.8-102.1
	c-5.5-2.9-11.3-5.3-16.7-8.4c-11.3-6.6-15.8-16.3-11.7-29C2486.9,1126.9,2496.2,1121.5,2513.6,1122z"/>
<path d="M2690.6,1436.4c-4,15.5-7.8,33.7-13.7,51.3c-3.8,11.4-12.4,19.2-26.2,16.7c-14.1-2.5-23.1-13.2-22.1-29.2
	c1.3-20.7,4-41.3,6.7-61.8c1.6-12,6.3-23,20.6-23c13.2,0,24.8,5.3,29.6,18.6C2688.2,1416.6,2688.6,1425.1,2690.6,1436.4z"/>
<path d="M2075.1,2813.4c-40.2-0.1-73.4-32.3-72.5-70.3c1-40.2,34.6-74.3,73.4-74.6c39.6-0.3,73.8,35.5,74,77.3
	C2150.3,2783.6,2117.1,2813.5,2075.1,2813.4z"/>
<path d="M2533.6,2642.7c40.6,0.4,73,32.3,71.9,70.7c-1.1,40.3-37.2,72.7-79.5,71.4c-37.1-1.2-66-31.8-65.9-69.5
	C2460.4,2673.7,2492.2,2642.3,2533.6,2642.7z"/>
<path d="M2301.1,2862.8c-40.3-4.5-69.7-23.1-82.8-56.3c-2.3-5.7-5.6-12.8-4-17.8c2.2-7.1,7.3-15.3,13.5-18.6
	c4.3-2.2,14.1,1.4,18.7,5.5c6.9,6.1,11.6,14.7,16.7,22.5c13.4,20.3,33.4,24.2,55.2,20.7c20.8-3.3,36.8-14.3,43.9-35.4
	c1-3,1.5-6.1,2.4-9.1c3.5-11.4,7.2-22.8,23.1-18.9c12.3,3,19.7,14.8,16.9,29.4c-4.8,24.5-15.9,46.8-38.9,57.7
	C2345.5,2852.1,2322.7,2856.3,2301.1,2862.8z"/>
<path d="M2961.6,2001.4c0.6,13.8-5.6,21.8-18.3,26c-13.3,4.4-22.2-0.1-27.8-12.4c-3.8-8.5-7.5-17.1-11.2-25.8
	c-24.4-57.9-62.4-102.8-121.6-127.6c-4.8-2-9.6-4.2-13.9-7c-12.8-8.2-14-20-8.6-32.8c5.5-13,15-19.4,29.8-15.9
	c35.9,8.4,63.7,30.8,89.4,54.9c34.6,32.4,60.3,71.5,76,116.6C2958.3,1985.1,2959.6,1993.4,2961.6,2001.4z"/>
<path d="M2979.3,2131.4c-2.4,12.7-3.9,26.2-7.8,39c-5.9,19.3-17,27.6-30.3,25.4c-14-2.4-21.1-12.9-19.9-33.6
	c1.1-19.7,4.3-39.2,6.4-58.8c1.3-12,7.1-19.2,19.8-19.5c12.4-0.3,23.4,3.2,27.2,16.1C2977.6,2109.7,2977.8,2120.3,2979.3,2131.4z"/>
<path d="M990.8,1042.7c5.2,0.2,9.4,0.2,13.5,0.7c13.2,1.6,20.8,9.3,22.2,22.3c1.6,14.2-3.9,23.6-18.7,28
	c-22.9,6.9-46.2,13.5-68,23.2c-43.7,19.4-73.8,53.6-96.1,95.2c-4.4,8.3-8.7,16.7-13,25c-5.6,10.7-13.8,15.1-25.8,11.5
	c-13-3.9-19.3-12.8-17.3-25.9c1.6-10.2,4.1-20.7,8.6-30c36.4-76.1,96.3-124.5,177-147.6C979.1,1043.5,985.5,1043.4,990.8,1042.7z"/>
<path d="M807.2,1361.3c-0.3,6.7-0.5,20.2-1.9,33.5c-1,9.8-5.7,19.9-16.9,18.3c-9.1-1.3-22.7-6.2-25.1-12.8c-10.8-30-9.2-61.2,3-90.6
	c2.4-5.8,15-9.7,23.1-10.2c10-0.5,17.3,6.7,17.7,17.8C807.5,1329.7,807.2,1342.1,807.2,1361.3z"/>
<path d="M3177.6,1369.7c1.4,9.4-10.3,12.8-23.6,15.4c-14.4,2.8-21.3-4.1-24.6-17.2c-4.6-18.1-8.7-36.5-14.5-54.2
	c-15.1-46.2-43.9-82.2-84.5-108.8c-6.1-4-12.6-7.4-18.4-11.8c-12.5-9.6-14.9-22.4-6.9-35.7c7.4-12.4,18.5-16.1,32.1-12.1
	c3,0.9,5.8,2.3,8.4,4C3122.8,1199.4,3168.2,1269.2,3177.6,1369.7z"/>
<path d="M3181.1,1464.6c-6.4,22.9-12.1,46-19.5,68.6c-4.3,13.2-14,20.6-29.1,16.6c-15-4-20.1-12-16.3-31.6
	c4.1-21.4,9.5-42.6,15.8-63.5c4.6-15.2,13.7-19.2,28.8-16C3174.8,1441.6,3179,1451,3181.1,1464.6z"/>
</svg>
