<?xml version="1.0" encoding="utf-8"?>
<!-- Generator: Adobe Illustrator 24.3.0, SVG Export Plug-In . SVG Version: 6.00 Build 0)  -->
<svg version="1.1" id="Layer_1" xmlns="http://www.w3.org/2000/svg" xmlns:xlink="http://www.w3.org/1999/xlink" x="0px" y="0px"
	 viewBox="0 0 4000 4000" style="enable-background:new 0 0 4000 4000;" xml:space="preserve">
<path d="M3312.9,1992.1c0.3,239.7-32.5,474-111,701.3c-112.4,325.3-317.5,569.8-627.4,723.6c-36,17.9-71.8,36-107.9,53.7
	c-79.4,38.9-146.2,92.6-198.7,164.6c-24.2,33.3-51.7,64.3-79.6,94.6c-117,127.3-351.1,123.6-470.7-9.4c-22.5-25-44-51.2-62.5-79.2
	c-51-77.2-117-135.5-200.4-176.3c-65.3-31.9-130.5-65-191.7-103.9c-295.1-187.4-483-453.5-572.3-790.5
	c-36.6-138.1-54.2-279-64.7-421.1c-9.2-123.9-6.1-247.6,6.9-370.9c27.6-262.8,93-514.5,227.1-745.1
	c107.5-184.7,255.9-327.7,440-434.6c43.2-25.1,87.1-49,130.9-72.9c68.3-37.3,120.8-91.2,166-153.6c35.6-49.2,69.2-100.5,109.9-145.3
	c76.3-84.1,174.8-119.5,287.5-109.4c115.4,10.3,204,68.3,270.3,162.1c25.1,35.5,49.2,71.7,75.8,106
	c49.4,63.6,111.6,111.6,183.5,148.2c80.3,40.9,158.9,85,232.2,138c139,100.5,246.3,228.3,329.9,377
	c90.8,161.5,148.3,335.1,185.7,515.9C3300.6,1705.7,3314.2,1848.2,3312.9,1992.1z M3224.9,1993.8c-3.4-62.9-5.6-125.9-10.3-188.7
	c-14.1-191-56.2-375.7-127.8-553.4c-74.8-185.6-185.2-346.1-340-474.6c-80.9-67.2-171.1-119.3-265.7-163.7
	c-97.4-45.7-172.4-115.7-233.5-202.6c-21.8-31.1-43.4-62.5-66.4-92.7c-47.4-62.3-108.1-104.3-187.7-111.4
	c-106.4-9.5-190.5,32.5-253.4,117.7c-20,27.1-38.3,55.4-57.2,83.3c-63.9,94.2-141.8,172.3-247.1,220.8
	c-38.3,17.6-74.9,39.7-110.9,61.9c-150.1,92.6-276.8,209.5-370.8,360.1c-69.5,111.3-121.2,230.6-158.9,356
	c-58,192.8-84.8,390.5-84.3,591.5c0.2,78.1,6,156.3,12.4,234.2c10.5,127,31.9,252.5,70,374.1c102.8,327.9,307.7,572.1,611.1,733.5
	c33.6,17.9,67.3,35.4,101.4,52.1c90.9,44.4,165.5,106.9,219.5,193.4c13.7,22,30.2,42.6,47.2,62.2c95.8,110.7,253.7,118.1,357.9,15.2
	c30-29.6,55.4-64,81-97.6c49.5-65,108.7-118.4,181.1-156.2c48.1-25.1,96.9-49,145.6-73c151.3-74.7,281.7-175.9,386.9-308.1
	c78.5-98.7,134.2-210.4,179-327.6C3191,2472.7,3222.5,2235.9,3224.9,1993.8z"/>
<path d="M2443.2,2474.4c-80.1,0.4-147.5-66.9-147.1-147c0.5-81.6,68.2-150.2,149.5-148.7c81.6,1.5,144,59,146.6,150.8
	C2594.5,2408.6,2524.8,2474,2443.2,2474.4z"/>
<path d="M1605.1,2327.1c0.7,78.2-68.5,148.2-148.4,146.8c-79.8-1.4-142.4-58.8-145.2-145.7c-2.6-78.8,67.3-149.5,145.5-151
	C1538.4,2175.8,1604.3,2242.5,1605.1,2327.1z"/>
<path d="M918.5,1420.3c1-3.7,2.2-9,3.7-14.2c35.6-124.1,89.1-239.6,166.3-343.5c9.6-13,20.4-25.5,32.2-36.5
	c15.6-14.5,31-15.1,43.5-4.1c13.2,11.6,12.6,23.7-1.1,42.9c-29,40.5-59.6,80-86,122.2c-41.7,66.5-70.4,139.1-93.9,213.9
	c-3.6,11.4-7.4,22.7-11.2,34c-4.9,14.9-15.3,20.1-30.4,16.9C925.3,1448.4,917.4,1438.2,918.5,1420.3z"/>
<path d="M3037.1,2537.2c-1.9,10-4.1,23.9-7.4,37.6c-25.3,103.8-62.2,203.1-118.5,294.3c-13.1,21.1-28.3,41-44,60.4
	c-5.7,7.1-14.8,12.8-23.5,15.9c-13,4.6-22.6-3.4-30.6-13.2c-7.3-8.9-6.5-17.8-0.6-26.9c3.6-5.4,7-11,11.1-16
	c67.9-82.8,110.8-177.9,137.7-280.9c7.4-28.3,14.8-56.6,22.7-84.7c4.2-15,15-20.6,30-17.1C3027.9,2510,3038.1,2516.9,3037.1,2537.2z
	"/>
<path d="M1951.4,2545.7c-69.4-3.2-123.3-30.4-154.1-93.2c-7.3-14.9-9.6-33.2-10.1-50.1c-0.2-7,8.7-16.8,16-20.9
	c9.9-5.6,21.9-3.1,29,7.1c6.2,8.8,10.8,18.8,15.4,28.5c20.1,42.1,52.9,66.6,100,65c45.4-1.5,85.2-16.6,106.9-61.2
	c3.3-6.8,6.3-13.8,9.6-20.6c10-20.8,15.5-24.2,31.2-19.4c19.1,5.8,26.4,16.5,21.9,37.3c-9.4,43.4-33.7,77.2-70.9,101.3
	C2017,2538.4,1983.9,2543.9,1951.4,2545.7z"/>
<path d="M1922.6,320.2c-1.1,2.3-2.4,7.9-5.8,11.4c-4.4,4.6-10,8.7-15.9,11c-44.6,17.4-69.6,53.1-90.4,93.7
	c-15.3,29.9-31.6,59.4-49.2,88c-13.1,21.3-29.6,40-53.9,50.3c-14.3,6.1-25.2,2.3-35-8.2c-9.9-10.6-11.1-22.7,1-30.8
	c44-29.4,61.7-77.1,86.9-119.9c17.5-29.8,35.8-60,58.7-85.5c16-17.8,39.3-30.2,61.3-40.9C1898.3,280.7,1921.2,297.9,1922.6,320.2z"
	/>
<path d="M1889.3,3661.3c-14.6-8.7-32.4-14.6-43.3-26.7c-21.5-24-41-50.4-58.1-77.8c-22.2-35.6-35.1-77.2-70.5-104.2
	c-9.6-7.3-9-19.4-2.2-29.6c7.3-11.1,18.3-17.2,30.6-11.4c11.4,5.4,23.7,12.7,30.9,22.6c15.8,21.9,29.8,45.3,42.2,69.2
	c20.7,40,42.9,78.2,84.7,100.2c2.8,1.5,5.1,4,7.8,5.9c10.6,7.8,16.5,17.9,11.3,30.9C1917.2,3654.1,1905.9,3659.4,1889.3,3661.3z"/>
<path d="M1376.5,864.9c-2.2,3.2-5.5,11.5-11.6,16.7c-14.7,12.6-30,24.5-46.2,35.1c-15,9.9-26.2,7.4-36.7-5.3
	c-9.6-11.6-9.5-25.1,4.1-36.9c16.2-14,33.6-27.1,52.3-37.5C1357.6,826.4,1377.1,839.2,1376.5,864.9z"/>
<path d="M2719,3086.2c-0.9,2.1-1.5,7.2-4.4,9.7c-18.6,15.9-37.3,31.9-57,46.5c-9.9,7.4-20.7,4.3-28.9-4.8c-8.9-9.9-12.5-22.7-2.7-32
	c17.7-16.9,36.6-33.2,57.3-46C2698,3050.5,2720,3067.5,2719,3086.2z"/>
<path d="M1306.4,1081.5c-18.3-0.2-34-14.3-34.8-31.2c-0.8-19.5,22.5-41.4,43.1-40.4c18.6,0.9,35.5,18.5,34.8,36.2
	C1348.8,1065.7,1329.2,1081.7,1306.4,1081.5z"/>
<path d="M2707,2935.5c0.6,18-22.2,40.8-42.3,42.3c-17.4,1.3-32.8-13.6-33-32c-0.2-19.8,18.7-39.1,38.9-39.7
	C2688.7,2905.5,2706.5,2919.9,2707,2935.5z"/>
<path d="M1232,1230.5c-18.4-0.5-33-15.9-31.7-33.5c1.3-17.7,19.7-33.2,38.1-32.1c18.6,1.1,33.4,16.7,32,33.6
	C1268.9,1216.4,1251.4,1231,1232,1230.5z"/>
<path d="M2764.4,2786.3c0.8,18.6-14.4,35.2-33.5,36.6c-17.4,1.3-32.8-13.8-32.8-32.1c0-17.7,17.2-34.6,35.4-34.8
	C2750.6,2755.8,2763.7,2768.6,2764.4,2786.3z"/>
</svg>
