<?xml version="1.0" encoding="utf-8"?>
<!-- Generator: Adobe Illustrator 24.3.0, SVG Export Plug-In . SVG Version: 6.00 Build 0)  -->
<svg version="1.1" id="Layer_1" xmlns="http://www.w3.org/2000/svg" xmlns:xlink="http://www.w3.org/1999/xlink" x="0px" y="0px"
	 viewBox="0 0 4000 4000" style="enable-background:new 0 0 4000 4000;" xml:space="preserve">
<path d="M2714.1,2192.2c28.8-9.7,56-18.7,83.1-28.1c43-14.9,85.5-31.7,129.1-44.6c80.7-23.9,163.1-28.4,245.6-10.6
	c135.3,29.2,233.3,109.5,304.6,226c61,99.7,93.1,208.8,103.3,324.1c14.7,165.8-6,327.2-72.3,480.8
	c-97.2,225.3-270.2,361.6-505.1,422.4c-151.4,39.2-305,48.4-459.4,22.3c-220.9-37.4-392-149.9-504.8-345.5
	c-22.2-38.5-38.7-80.3-57.9-120.5c-3.1-6.5-6.4-12.8-12.4-24.8c-6.2,13.2-10.5,21.9-14.3,30.7c-59.7,137.4-144.2,256.1-266.9,344.3
	c-94.8,68.1-202.6,104.6-317.3,122.2c-133.4,20.6-265.2,8.1-396.3-19.7c-99.2-21-192.6-57.1-278.3-111.3
	c-142.7-90.1-235.6-219.3-290.9-377c-43.1-122.6-62.6-249.2-54.7-378.8c8.1-133.4,38.8-261.3,112-375.6
	c88.6-138.3,212.6-221.3,377.8-237.8c64.9-6.5,128.4,4.6,189.6,24.7c52,17.1,102.2,39.5,153.3,59.5c7.6,3,15.2,6.2,26.1,10.6
	c3.7-11.1,7.1-20.3,9.9-29.6c28-93.5,52.7-188.1,84.5-280.3c98.9-286.5,240.5-550.1,432.8-785.3c160.1-195.7,343.6-366.1,553.9-507
	c27.8-18.6,56.4-36.1,85-53.4c10.3-6.2,15.6-13,17.1-26c1.5-14.1,6.4-29.3,14.3-41c13.9-20.8,30.5-39.9,47.2-58.6
	c77.5-86.5,186.4-50.3,230.1,31.4c23.3,43.5,27.9,88.5,9.7,134.5c-7.1,18-16.7,35.2-26.8,51.9c-16.5,27.5-39.2,47.4-72.8,50.5
	c-17.5,1.6-24.6,10.3-28.8,27.5c-30.4,127-49.8,255.6-56.2,386c-14.8,305.6,28.5,603.1,125.9,892.8c22.5,67,48.5,132.7,73,199
	C2708.1,2181.5,2710.1,2184.6,2714.1,2192.2z M1198.1,2257.5c-10.6-4.9-18.8-8.8-27.2-12.4c-22.3-9.4-44.4-19.3-67-27.8
	c-43.4-16.4-86.3-35.5-131-47.1c-116.5-30.3-225.4-8.7-324.1,59.3c-98.1,67.6-159.1,162.8-195.1,274.9
	c-37.1,115.3-45.4,233.3-31.3,353.1c11,92.9,31.3,183.4,71.1,268.6c70.2,150.5,180.8,261.7,333.2,326.3
	c175,74.2,358,96.2,546.7,67.2c176.3-27.2,317.1-111.2,422.4-255.7c62.8-86.2,105-181.7,134.3-283.4c3.4-11.7,1.2-25.6-0.6-38.1
	c-5.4-37.7-14-75.1-17.4-112.9c-7.6-83.9-2.1-167.2,14.2-250c2.3-11.4,2.1-24.5-1.2-35.6c-15.7-52-38-101.1-69.9-145.2
	c-26.9-37.2-58.8-69.4-99.2-92.7c-71.2-41.1-147.2-48-226.8-36.1c-52.4,7.8-105,13.8-157.5,20.7c-3.5,0.5-6.9,2.3-9.8,3.3
	c-14,39.8-16.2,54.9-11,76c16.5-1,33.1-2.9,49.7-2.6c5.3,0.1,13.7,5.1,14.9,9.5c1.6,5.9-0.5,14.9-4.4,19.8
	c-4.2,5.3-12.1,8.7-19,10.6c-107.7,29.2-202,1-286.4-67.9c-5.4-4.4-9.8-11.5-12.1-18.3c-3.5-10.3,7.8-20.8,18-16.9
	c6.8,2.6,12.4,8,18.8,11.8c14,8.4,28.2,16.6,46.4,27.4C1184.5,2312.7,1190.8,2287,1198.1,2257.5z M2605.3,2367.4
	c-12.3-29.7-21.8-54.5-33.1-78.4c-2.4-5.1-11.9-9.7-18-9.7c-48.9,0.6-95.8-12.2-143.3-20.6c-48-8.6-95.8-11.2-143.9,0.2
	c-91.5,21.7-157.6,77.5-207.1,154.4c-53.1,82.7-75.2,175.7-82,272.4c-10.6,153.2,16.4,300.1,79.9,440.2
	c40,88.3,93.8,166.7,164.8,233.1c104.6,97.8,230.4,148.3,370.8,164.9c165.5,19.5,327.1,0.7,483-57.6
	c199.8-74.7,329.6-217.4,394.3-419.5c41.3-129.2,54.5-261.7,39-396.8c-12.9-112.7-45.2-218.3-112.7-311.2
	c-45.7-62.9-102-113.4-174.6-143.4c-95.6-39.5-192.7-37-289.3-5.3c-61.8,20.3-122.3,44.2-183.3,66.7c-4.2,1.5-7.8,4.5-12.8,7.5
	c12.3,24.6,24.1,48.1,36.9,73.7c13.3-7.2,23.8-12.8,34.3-18.4c9-4.8,17.5-10.9,27-14c10.7-3.5,19.1,3.6,17.3,14.6
	c-1.1,6.9-4.6,14.6-9.6,19.3c-10.8,10.1-22.5,19.7-35.2,27.1c-47.5,27.7-99.3,41.4-153.9,45c-37.6,2.4-74.2-3.4-110-14.7
	c-20.2-6.4-30-18.3-24.7-30.8c6.9-16,20.5-7.7,31.7-6.4C2566.9,2361.7,2583.1,2364.3,2605.3,2367.4z M2534.6,2209.9
	c1.2-5.3,2.4-7.3,1.9-8.8c-5.8-16.7-11.8-33.2-17.8-49.8c-101.1-277.2-162.9-562.5-174.6-857.8c-7.1-180.1,4.7-358.8,43-535.4
	c2.1-9.6,2.8-19.5,5.2-36.2c-110.5,71.1-206.1,150.3-297.5,234.5c-255.8,235.7-449.6,514.7-580.9,836.8
	c-56.2,137.7-100.3,279.3-134.2,428.4c13-1,22-1.1,30.8-2.4c48.8-7,97.5-14.5,146.2-21.4c67.2-9.5,131.9,1.5,193.6,28
	c89.2,38.4,151.6,105.5,196.9,189.8c4.7,8.7,9.8,17.3,17.1,30.1c6.7-10.9,10.9-17.7,14.9-24.5c15.2-25.5,28-52.8,45.8-76.4
	c84.4-111.6,195.9-168.7,337.3-160.8c33.3,1.9,66.3,8.6,99.4,13.5C2486.3,2201.5,2510.6,2205.9,2534.6,2209.9z M2415.9,574.3
	c-29.8,20.2-56.7,38.2-83.4,56.5c-198.3,135.9-377.3,293-530.2,479.3c-103,125.5-194.4,258.8-271.3,401.6
	c-95.2,176.7-168.3,362.5-221.5,555.9c-24.9,90.5-45.7,182.1-68.2,273.2c-1,4.1,0.3,8.7,0.6,12.8c4.2,1.5,6.7,2.7,9.3,3.2
	c28.4,6.1,28.7,5.5,35.4-22.2c12.7-52.4,25.9-104.6,39-156.9c34.3-136.3,75.1-270.4,127-401.2c84.3-212.5,197.3-408.4,339-587.5
	c128.8-162.8,277.6-305.6,441.7-432.2c64.7-49.9,129.1-100.8,204-135.7c3-1.4,5.2-4.6,8.9-8C2436.4,600.7,2427.5,589.2,2415.9,574.3
	z M2706.2,2346.9c-3.6-10-6.1-17.8-9.2-25.3c-22.6-55.1-46.1-109.8-68-165.1c-109.3-276.7-172.3-563.3-184.4-861
	c-8.5-206.8,9.6-410.7,62.3-611.2c7.3-27.9,3.3-33-27.8-35.5c-1.9,4.8-4.5,9.7-5.9,15c-28.9,115.8-48.1,233.3-58.3,352
	c-9.8,114.2-9.8,228.6-2.4,343.1c10.3,158.4,36.7,314.1,74.5,468c34.1,138.5,79.9,273.2,133.6,405.2c14,34.5,26.8,69.4,40.3,104.1
	c7.9,20.3,10,21.4,31.1,16.1C2695.5,2351.3,2698.9,2349.6,2706.2,2346.9z M2638.6,510.7c-0.6-35.3-15.5-63.1-48.3-80.5
	c-34.7-18.5-56.7-16.1-85.6,11.6c-14.7,14.1-27.6,30.1-41.4,45.1c-10.6,11.5-12.1,24.3-6.4,38.7c18.5,46.8,54.4,73.9,100.5,89
	c18.7,6.1,34.8-1.3,47-16.2C2625.2,573.2,2637.5,544.7,2638.6,510.7z"/>
<path d="M945.6,2863.5c-0.6,53.3-44.4,94.9-99.9,94.7c-55.3-0.2-100.8-44.6-100.5-98c0.3-55.6,44.2-98.5,100-97.7
	C902,2763.3,946.2,2807.8,945.6,2863.5z M880.2,2827.2c0-17-11.2-29.1-26.7-28.9c-17.1,0.2-32.7,15.1-32.7,31.2
	c0,14.4,11.7,26.5,26,26.8C866.3,2856.7,880.2,2844.6,880.2,2827.2z"/>
<path d="M1588.2,2913.6c-0.1,56.7-40.4,98-95.8,98.2c-65.3,0.3-101.9-44.2-103.3-100.9c-1.2-52.2,46.2-96.4,99.6-96.2
	C1544.8,2814.9,1588.3,2858.2,1588.2,2913.6z M1493.4,2915c18-0.1,32.4-13.8,32.8-31.2c0.4-17.1-12.6-30.2-29.7-29.9
	c-17.9,0.3-31.7,16.4-31,36C1466.1,2904.5,1477.8,2915.1,1493.4,2915z"/>
<path d="M1807.4,2614.8c0.1,25.6-12.2,46.4-30.7,53.3c-18.7,6.9-45.8-1.5-59.3-20.6c-9-12.8-16.5-27-22.7-41.4
	c-21.5-50.6-50.8-94.8-97.6-125.8c-7.6-5-14.4-11.9-20-19.1c-13-16.8-16.7-35.6-5.1-54.5c11.6-19,29.3-28.4,51.7-26
	c24.7,2.6,46.8,12.8,66,27.8c64.5,50.1,101.7,116.9,116.7,196.6C1807.2,2608.7,1807.2,2612.4,1807.4,2614.8z M1776.9,2607.6
	c-0.4-2.7-0.9-8.3-2.1-13.7c-14.2-59.4-42.7-110.7-89.4-150.5c-13.1-11.2-29.6-18.8-45.1-26.8c-6.3-3.2-14.6-5.3-21.4-4.1
	c-7.3,1.3-16.2,5.5-19.8,11.3c-2.5,4,1.4,14,5.2,19.2c5.4,7.2,13,13.1,20.6,18.4c31.2,21.7,54,50.8,72,83.6
	c10.3,18.7,18.8,38.3,28.3,57.4c3.7,7.4,7.3,15,11.9,21.9c5.8,8.7,13.2,16.6,25.2,12.8C1775.2,2633.1,1777.6,2622.3,1776.9,2607.6z"
	/>
<path d="M730,3070.8c-31.5,0.3-60.3-8.6-87.3-24.3c-16.8-9.8-30.3-23-29.1-43.9c1.2-20.7,16.3-33.1,33.5-41.1
	c29.9-13.9,62.1-12.8,92.7-5.1c22,5.5,44,15.4,62.7,28.1c28.6,19.6,26.1,51.7-3.1,70.6C778.4,3068.8,754.3,3070.6,730,3070.8z
	 M792,3019.6c-1.4-3.4-2-6.3-3.6-8.4c-23.1-28.5-101.2-41.9-132.2-22.8c-0.8,0.5-1.6,1-2.3,1.5c-11.1,8-12,15.1-3,25.3
	c26.1,29.5,107,36.2,137.6,11.3C789.7,3025.4,790.1,3023.2,792,3019.6z"/>
<path d="M1595.5,3149c-23.1-5.3-45.8-9.4-67.8-16.1c-10.2-3.1-20.2-9.9-27.9-17.5c-20.5-19.9-19.8-46.1,4.2-61.6
	c17.4-11.3,38.1-20.2,58.4-23.8c35.5-6.3,70.2,0.9,101.8,19.3c17.2,10,28.8,23.8,27.3,44.9c-1.5,21-14.4,34.2-33.6,40
	C1637.8,3140.3,1616.8,3144,1595.5,3149z M1590.6,3121.1c19.1-3.9,37.4-6.4,54.7-12c6.4-2.1,13.1-10.7,15-17.6
	c2.7-10.2-5.7-16.7-14.6-20.9c-37-17.4-74.9-19.4-112.7-3.8c-7.3,3-16.4,12.5-16.5,19.1c-0.1,6.7,8.8,16.9,16,19.6
	C1551.2,3112.4,1571.1,3116.1,1590.6,3121.1z"/>
<path d="M1160.5,3093.6c-59.1,0-105-46.3-103.6-104.5c0.1-4.6-0.8-10.1,1.4-13.7c3.1-5,8.2-11.4,13.1-11.9c4.1-0.4,11.2,5.8,13,10.6
	c5.3,13.8,7.2,29,13.1,42.5c10.9,24.6,30.1,40.3,57.6,42.4c28.1,2.1,50.9-8.9,66.1-33.2c5.4-8.6,9.3-18.1,13.9-27.3
	c2.1-4.1,3.2-9.3,6.5-12.1c3.8-3.3,10.4-7.3,13.9-5.9c5,2,9.5,7.9,11.9,13.2c1.7,3.6-0.2,9.1-1.2,13.6
	C1256,3057.4,1211.6,3093.6,1160.5,3093.6z"/>
<path d="M1823.1,2744.7c-1.8,7.7-1.5,13.3-4.2,16.4c-3.9,4.6-9.5,9.5-15,10.4c-3.9,0.6-11.7-4.5-12.6-8.4
	c-3.1-12.3-4.7-25.2-4.9-37.9c-0.1-4.1,5.7-11.4,9.4-11.9c5.3-0.6,13.6,2.1,16.4,6.3C1817.6,2727.6,1820.2,2737.7,1823.1,2744.7z"/>
<path d="M3133.6,2260.9c29.9,1.8,63.9,18.6,95.5,40.6c44.4,30.9,77.6,71.9,103.5,118.9c24.8,45,45.4,91.7,56.3,142.1
	c4.4,20.2,6.1,40.4-1.7,60.4c-7.8,20-21.7,32.2-43.3,34.3c-21.8,2.1-38.6-7.1-48.4-26.1c-10.1-19.8-17.6-41-26.9-61.2
	c-12.8-27.8-24.7-56.2-39.7-82.9c-27-48.1-66.3-84.6-113.7-112.6c-8-4.7-16.2-9.3-23.8-14.6c-25-17.5-33.1-39.3-24.7-64.9
	C3074.6,2271.3,3093.3,2260.1,3133.6,2260.9z M3362.9,2594.9c-0.7-5.6-1.1-10.2-1.9-14.8c-13.2-74.9-44.2-141.5-92.6-200.1
	c-25.8-31.3-56.4-56.9-92.5-74.9c-15.5-7.7-32.9-12.2-50-15.8c-11.9-2.5-25.1-0.9-30.7,13c-5,12.5,2.5,22,11.2,29.1
	c12.2,9.9,25.4,18.8,38.8,27c35.3,21.8,64.6,49.8,89.3,82.9c30.4,40.7,48.9,87.4,67.4,134c5.1,12.9,9.6,26.4,16.9,38.1
	c3.7,5.9,13.5,12.1,19.5,11.2c7.7-1.1,15.4-8.4,21.2-14.7C3362.7,2606.5,3362,2599.5,3362.9,2594.9z"/>
<path d="M3043.8,2964.8c-55.6-0.6-103.1-47.7-102-101.1c1.1-54.8,48.3-100.5,103.2-100c55.3,0.5,102.1,47.8,100.8,101.7
	C3144.4,2923.3,3101.1,2965.5,3043.8,2964.8z M3016.5,2833.6c-0.1,17.7,12.4,30.9,28.9,30.5c17.7-0.4,32.9-14.3,33.6-30.8
	c0.7-16.7-14.6-32.6-31.3-32.4C3030.6,2801.3,3016.7,2815.7,3016.5,2833.6z"/>
<path d="M2398.9,2998.2c-52.4,0.5-100.8-46.3-101.8-98.4c-1.1-55.6,43.5-100.9,100.3-101.6c52.8-0.7,100.2,45.5,101.4,98.7
	C2500,2953.3,2456.3,2997.6,2398.9,2998.2z M2430.9,2866.5c-0.4-15.8-13.4-29-28.1-28.7c-19,0.4-34.4,15.7-33.8,33.6
	c0.6,16.5,12.1,27.8,28.4,27.7C2417.8,2899.1,2431.4,2885.9,2430.9,2866.5z"/>
<path d="M2295.8,3126.1c-25.5-4.3-47.1-5.8-67.2-12c-13.4-4.2-26.7-13.3-36.5-23.6c-13.8-14.3-13.1-32.9,0.2-47.9
	c8.4-9.5,18.8-19.3,30.3-23.6c46.7-17.2,94-19,140.8,0.8c18.1,7.7,32.4,20,33,40.8c0.7,22.7-12,40.3-32,47.9
	C2341.4,3117.3,2316.6,3121,2295.8,3126.1z M2213.3,3067.5c35.9,39.9,124.3,37.3,154.3-3.2C2338.9,3022.9,2244,3023.9,2213.3,3067.5
	z"/>
<path d="M3195.2,2964.4c18.4-1,41.1,2,61.6,14.7c33.1,20.4,35.4,59.6,1.5,78.7c-48.9,27.5-102.2,34.1-155.2,12.5
	c-39.8-16.3-42.3-53.8-7.8-79.9C3118.1,2973.1,3150.1,2964.3,3195.2,2964.4z M3165.2,3052.3c11.4-1,23.8-0.4,35.3-3.4
	c14.1-3.6,28.6-8.2,41-15.6c15.9-9.5,14.8-22-0.7-32.4c-3.1-2-6.4-4.2-9.9-4.9c-42.2-9-83.1-6.4-120.6,16.6
	c-13.7,8.4-12.8,18.4,1,28.2C3127.3,3052.1,3145.9,3052.9,3165.2,3052.3z"/>
<path d="M2733.7,3092.8c-57,0.3-107-45-111.2-96.1c-0.9-10.3,1.4-18.7,12.7-21.4c10.5-2.5,15.3,4.1,18.6,12.5c3,7.8,5,16,8.4,23.6
	c12.7,28.6,33.4,46.9,65.9,47.2c32.1,0.2,58.1-18.9,69.8-50.3c3.5-9.5,5.1-19.7,8-29.5c2.4-8.3,5.7-16.3,16.8-14.5
	c9.9,1.6,13.5,8.3,14.3,17.7c3.6,42.9-33.3,95.4-75.3,106.1C2750.9,3090.7,2739.8,3091.8,2733.7,3092.8z"/>
<path d="M3368.3,2757.4c0.5-12.3-0.4-21,1.8-28.8c1.4-5.1,7.1-11.9,11.5-12.5c4.9-0.6,14.9,4.6,15.3,8c2.5,21.8,3.5,43.9,3.5,65.9
	c0,2.9-8.2,8.6-12.1,8.1c-5.4-0.6-13.4-4.8-14.7-9.2C3370,2777.7,3369.5,2765.5,3368.3,2757.4z"/>
</svg>
