<?xml version="1.0" encoding="utf-8"?>
<!-- Generator: Adobe Illustrator 24.3.0, SVG Export Plug-In . SVG Version: 6.00 Build 0)  -->
<svg version="1.1" id="Layer_1" xmlns="http://www.w3.org/2000/svg" xmlns:xlink="http://www.w3.org/1999/xlink" x="0px" y="0px"
	 viewBox="0 0 4000 4000" style="enable-background:new 0 0 4000 4000;" xml:space="preserve">
<path d="M1921.7,3687.2c-238.8-2.9-472.4-35.1-697.6-116.3C849.9,3435.9,557.5,3203,372,2846.6c-90.2-173.2-140.9-359-160.8-553.3
	c-16.1-156.8-16.1-313.4,7.9-469.4c83.7-544.6,346.2-976.3,810-1281.1c209.6-137.7,438-226.1,685.3-264.9
	c138.4-21.7,277.4-21.8,417.1-7.6c216.9,22,420.4,86.3,613.4,185.5C2965,569,3150.6,724.9,3306,917.5
	c120.5,149.2,216.1,313.1,287.5,490.7c182.3,453.3,171.4,904.5-38.3,1344.2c-164.7,345.3-431.8,594.4-778.7,755.9
	c-208.9,97.2-429.5,151.1-659.2,167.9C2052.3,3680.9,1986.9,3683.6,1921.7,3687.2z M1923.5,3542.7c180.3-2.9,366.2-23.5,547.5-75.5
	c415.3-119.1,733.1-362.7,939.2-745c97.2-180.3,147.1-374.5,160.1-579.1c12.4-193.8-8-383.3-67.9-567.7
	c-116.9-360-329.1-652.8-637.3-871.3c-401.4-284.5-842.7-374.1-1319.8-238.1C1162,575.2,859.1,802.1,633,1129
	c-163.7,236.7-251.7,502.3-281.4,787.9c-16,154.3-10.7,307.8,16.9,460.2c33.7,186.4,95.3,362.6,201.9,520.5
	c165.1,244.6,387.1,418.6,662.4,524.5C1452.6,3506.8,1681.6,3539.1,1923.5,3542.7z"/>
<path d="M1940.8,729.4c23.5-22.8,37.2-35.4,50-48.7c53.3-55.2,116.3-85,194.8-78.2c72.8,6.3,123.1,42.6,145.3,111.8
	c11.8,36.7,15.6,75.9,23.4,115.9c25.6,3.3,51.6,4.7,76.7,10.4c79.6,18.1,141.2,59.8,171.5,138.8c29.4,76.7,3,153.7-68.7,194.7
	c-28.8,16.4-60.6,27.5-91.3,40.5c-48.9,20.6-50.7,23.7-38.4,74.3c3.1,12.7,6,25.5,8.2,38.3c25.5,149.2-82.3,253.4-231.1,224.4
	c-38.1-7.4-70.7-25.5-102.1-46.8c-22.8-15.5-45.6-31.1-67.5-47.8c-18-13.8-34.8-12.9-51.3,0.9c-17.8,14.9-34.9,30.7-52.1,46.2
	c-40.2,36.4-82.9,67.6-137.9,79c-122,25.1-221.3-46.1-233.1-170.7c-3.5-37.4-1.1-75.4-0.9-113.1c0.3-43.9-4.4-52-46.1-67.1
	c-27.3-9.9-56.7-14.8-82.4-27.5c-32.1-15.7-66-32.4-91.2-56.9c-61-59.1-53.1-152.8,12.6-206.9c41.9-34.5,92.2-47.4,144.1-56.6
	c22.8-4.1,45.7-8,68.5-12.5c20.9-4.1,32.9-15.8,33.4-38.7c0.5-24.7,2-49.3,4.2-73.9c11-119.5,111.8-183.9,225.2-143.7
	c40.5,14.3,74.5,39,104,69.8C1919.5,696.8,1927.5,711,1940.8,729.4z M1615,1323.6c-0.3,0-0.6,0-0.9,0c0,29-4,58.6,0.7,86.8
	c13.8,82.2,81.7,119.5,158.8,88.7c18.6-7.4,36.3-18.5,52.4-30.5c18.5-13.8,35.1-30.4,52-46.2c80.2-75.1,116.3-76.9,205.6-14.8
	c33.2,23.1,67.7,46,104.9,61.2c84.7,34.7,157.5-19.4,150.8-109.9c-1.8-24.3-9.6-48.2-15.4-72.1c-15.3-63.3,4-107.2,61.9-137.6
	c15.4-8.1,31.9-13.9,47.9-20.7c18.7-7.9,38.1-14.4,56-23.9c53.9-28.8,64.1-73.2,28.1-122.7c-26.1-35.8-62.5-55.4-106.2-62
	c-25.8-3.9-51.9-6.9-77.4-12.2c-49.1-10.2-60.3-23.8-63.1-73.5c-1.2-21.7-0.3-43.7-2.8-65.3c-7.2-61.7-54.3-97.9-116.1-90.9
	c-34.4,3.9-63.9,18.7-89.9,40.7c-17.7,15-34.3,31.4-51.9,46.5c-35.1,30-72.5,35-112.4,12.2c-17.3-9.9-31.4-25.4-47.2-38
	c-20.3-16.2-39-35.9-61.8-47.1c-60.2-29.6-123.2,6.6-131.1,72.6c-2.2,18.7-4.3,37.6-4.6,56.4c-1.1,64.8-28.6,106.3-107.9,128.1
	c-37.8,10.4-76.2,18.4-113.4,30.5c-18.9,6.1-37.5,16.4-52.9,29c-34.8,28.3-35,64.6,1.4,91.1c21.8,15.9,48.5,25.6,74,35.6
	c28.3,11.1,58.3,17.8,86.6,29.1c52.4,20.9,74,54.6,74,110.9C1615,1291.7,1615,1307.6,1615,1323.6z"/>
<path d="M1312.4,2874c-108.1,5.7-196.6-89.6-194.3-191.5c2.4-107.4,80.4-187.6,183.6-186.3c114,1.4,197.7,84.3,198.1,194.2
	C1500.3,2783.9,1413.4,2882.4,1312.4,2874z M1317.3,2679.6c36.7-0.7,62.9-27.5,61.9-63.1c-0.8-28.7-24.5-50.7-53.8-50.2
	c-34.8,0.6-62.7,29.7-61.8,64.2C1264.4,2660.7,1285.8,2680.2,1317.3,2679.6z"/>
<path d="M2524.3,2863.8c-101,0.2-185.6-86.9-185.6-191.2c0-108.4,84.3-189.6,196.2-188.9c100.9,0.6,185.6,85.3,186.1,186
	C2721.4,2780,2636.7,2863.6,2524.3,2863.8z M2541.9,2558.1c-36.9-0.9-63.9,22.2-64.9,55.5c-1,33.1,19.6,54.7,53,55.9
	c37.7,1.3,63.4-20.7,64.6-55.4C2595.7,2581.5,2574.4,2558.9,2541.9,2558.1z"/>
<path d="M924.4,1583.3c-18,95.2-34.6,193.9-55.8,291.7c-15.3,70.8-34.9,140.8-56.1,210c-7.9,25.7-22.9,50.6-39.8,71.9
	c-61.9,78.3-162.1,65.4-203.4-25.5c-22.8-50-28.7-103.8-24.5-157.8c13.1-166.5,60.1-322.4,155.3-461.1c19.3-28.1,44-55.2,72.1-73.8
	c53.3-35.5,112-14.4,133.7,46.2C916.3,1514.4,917.9,1547,924.4,1583.3z M597.7,1988c1.1,47,0.7,90.8,22.3,130.8
	c16.2,30,39.9,45.1,66.7,34.9c19.2-7.2,39.5-21,50.6-37.6c17.4-26.1,32.8-56,39.7-86.3c30.7-134.3,59.5-269.1,85.9-404.4
	c6.3-32.1,4.5-67,0.1-99.8c-6.9-50.8-41.4-63.6-79.3-30.1c-20.4,18-39.1,39.7-52.9,63C651.8,1692,605.5,1835.9,597.7,1988z"/>
<path d="M2759.6,3090.6c-52.7-2.9-103.6-5.5-147.2-37c-44.7-32.3-51.1-83.3-14.4-124.3c11.3-12.7,25.5-24.8,40.9-31.5
	c87-38.4,176.8-45.1,267-13.7c39.2,13.7,74.7,36.9,75,85.8c0.4,47.7-31.7,71.7-70.6,90C2861.9,3082.6,2810.3,3088,2759.6,3090.6z
	 M2748.2,3042c0.3-1.5,0.7-3.1,1-4.6c7.2,0,14.5,0.5,21.7-0.1c46.3-3.4,92.6-8.1,133-33.8c31.6-20.1,32-42.7,2.5-64.6
	c-5.8-4.3-11.9-8.8-18.6-11c-80.9-27.3-159.9-23.6-233.8,20.9c-39.3,23.7-36.7,54.7,6.6,72.9C2687.9,3033,2718.9,3035.5,2748.2,3042
	z"/>
<path d="M1047.2,2874c56.1,1.9,112.1,8.3,163,37.2c35.4,20.1,67.2,44.9,63.5,90.6c-3.5,43.9-33.3,71.1-72.6,84.2
	c-96.8,32.3-191.7,28.3-280.9-25.5c-34.6-20.8-55.8-49.9-48-94c5.7-32,26.5-50.9,52-66C961.7,2878.2,1003.9,2875.4,1047.2,2874z
	 M1093.6,3053.5c22.6-4,55.6-8.3,87.7-16.1c18-4.4,36.8-13.2,39.9-35.2c3.1-22.2-14.5-33-29.1-44.8c-2.2-1.8-4.6-3.6-7.2-4.9
	c-73.7-36.8-149.5-42.3-226.8-13.2c-19.4,7.3-37.9,19.8-38.3,42.8c-0.4,20.8,16.7,32.3,33.3,42.2
	C993.3,3048.5,1038.2,3050.1,1093.6,3053.5z"/>
<path d="M1927.2,3087.8c-109.6-0.2-206.2-89.2-213.2-196.4c-1.8-27.7,12.6-44.3,33.6-36.1c9,3.5,17,14.9,21.2,24.6
	c8.7,19.8,12.8,41.6,21.9,61.2c26,55.7,85.5,92.1,138.9,87.1c65.1-6.1,112.6-45.7,130.9-109.5c3.6-12.5,5.5-25.6,9.6-37.9
	c5.3-16.1,8-35.6,32.9-32.4c20.9,2.7,29.2,13.5,26.6,41.2c-4.4,47.1-19.3,90.8-49.9,127.7
	C2039.7,3065.6,1990.4,3087.9,1927.2,3087.8z"/>
<path d="M670.8,2439.4c0,8.8,2.7,17.7-0.6,22.8c-6.4,9.8-15,21.9-24.9,24.5c-7.1,1.9-23-8-26.2-16.1c-12.7-32.2-20.6-66.6-9.4-100.6
	c3-9.3,17.3-18.4,27.9-20.7c15.3-3.4,23,9.9,25.2,23.4C666.4,2395.3,668.3,2418.2,670.8,2439.4z"/>
<path d="M2152.3,1322.1c-17.7-5.8-30.2-9.4-42.3-14.1c-16.2-6.3-32.1-13.6-48.2-20.1c-70.1-28.1-138.9-24.9-206.5,8.3
	c-19.5,9.6-38.6,20.5-59,27.9c-38.8,14.1-61.6,4.2-66.5-36.2c-9.1-75.1-53.3-123.1-111.6-163c-9.5-6.5-19.3-13.3-27.1-21.7
	c-25.6-27.7-22.3-60.7,9.2-81.7c21.7-14.4,45.3-26,68.1-38.6c42.6-23.4,73.6-56,86.1-104.3c2.5-9.8,6.5-19.3,10.5-28.6
	c8.4-19.2,23.1-25.3,42.6-18.5c19.2,6.7,38.1,14.1,57,21.6c63.9,25.4,127.6,24.9,190.1-3.8c76-34.9,71.1-21.4,94,36.2
	c18.3,45.9,56.2,72.6,98.6,94.1c19.4,9.8,39.8,18.3,57.6,30.4c24.4,16.5,27.4,35.5,9.8,59.5c-10.2,13.8-23.4,25.9-36.8,36.7
	c-45.3,36.4-72,82.1-78.2,140.6c-1.9,18.3-7.7,37.4-16.9,53.1C2176.7,1310.5,2161.6,1315.8,2152.3,1322.1z M2245.1,1055
	c-18.8-10.6-29.5-17.4-40.9-22.9c-39.2-18.8-69-47.3-91.4-84.4c-22.1-36.6-22.8-37.6-65.8-24.8c-73.4,21.8-145.7,23-217.5-6.3
	c-5-2-11-1.5-16.4-2.1c-20.8,31.3-36.9,65-61.6,90.2c-25.4,26-59.2,43.8-94.3,68.7c75.2,38.3,108.8,105.2,136.2,180.5
	c111.1-63.9,220.2-63.9,333.3-11.7C2144.2,1166.7,2170.3,1100.1,2245.1,1055z"/>
</svg>
