<?xml version="1.0" encoding="utf-8"?>
<!-- Generator: Adobe Illustrator 24.3.0, SVG Export Plug-In . SVG Version: 6.00 Build 0)  -->
<svg version="1.1" id="Layer_1" xmlns="http://www.w3.org/2000/svg" xmlns:xlink="http://www.w3.org/1999/xlink" x="0px" y="0px"
	 viewBox="0 0 4000 4000" style="enable-background:new 0 0 4000 4000;" xml:space="preserve">
<path d="M2274.4,760.2c5.7,5.3,7.7,8.5,10.6,9.8c95.4,42.4,161.1,115.7,214,203c67,110.5,102.6,231.9,125.5,357.7
	c13.2,72.6,24.6,145.6,38.7,218c22.2,114,64.8,220.5,127,318.5c54.1,85.2,111.5,168.2,166.3,252.9
	c121.6,187.9,189.2,392.2,191,617.9c1.3,164.1-24.7,322.3-91,472.6c-128.2,290.9-344,476.8-658.6,541
	c-111,22.6-222.8,22.7-334.7,5.4c-25.8-4-51.6-8.4-77.4-12.7c-42.9-7.1-86.1-5.1-128.6,0.4c-138.2,18-274.2,9.1-408-29.8
	c-192.5-55.8-349.1-162.9-465.9-326.8c-109.5-153.7-168.7-325.5-187.8-512.5c-19.3-188.4,9.3-369,85.6-541.9
	c37.9-85.8,88.9-164.3,141.4-241.7c38.8-57.2,78.4-114,117.1-171.3c81.8-121,125.5-255.8,144.4-399.6
	c13.8-104.6,25-209.7,50.8-312.4c29-115.2,70.7-224.5,146.5-318.2c78.7-97.2,177.5-161.8,301.1-186.1c25.5-5,51.5-7.4,78-11.2
	c0.4-4.9,1.9-8.8,0.9-12c-22.2-72.6-47.4-143.9-91.7-206.6c-13.4-19-28.8-36.8-44.3-54.1c-34.8-38.7-37.1-73.4-6.5-116.2
	c27.6-38.6,66-60.9,111.8-68.4c45.4-7.4,84.7,7.2,108.4,47.7c20.2,34.5,36.4,71.5,52,108.4c9.8,23.1,15.2,48.1,22.8,72.1
	c2.1,6.8,5.1,13.3,9.1,23.8c7.1-9.1,12.7-15,16.9-21.7c92.8-151.9,230.4-238.6,402.1-274.9c87.8-18.6,176.8-17,265.3-9
	c60.4,5.5,120.3,16.4,180.2,25.8c15.5,2.4,31.1,6.9,45.6,13c17.6,7.4,22.3,18.2,16,36.3c-5.8,16.7-13.8,32.7-22.1,48.3
	c-58.7,109.7-131.4,208.6-226.2,290.3c-104.5,90-226.1,140.3-362.3,156.7C2318.5,755.4,2298.5,757.5,2274.4,760.2z M1879.6,768
	c-9.6,0-16.9-0.4-24.1,0.1c-96,5.5-179.3,42.5-251.8,104.3c-91.3,77.9-144.8,179.2-179.6,292.1c-34,110.5-48.2,224.7-61.6,338.8
	c-20.9,178.6-76.5,344.2-178.8,493.1c-50.8,73.9-102.4,147.4-151.9,222.2c-68.1,103.1-117,214.9-143.6,335.8
	c-24.5,111.5-27.7,224.2-13.6,337.4c21.9,176.2,82,338.3,192.3,477.9c187.2,237,438,326.6,733.8,302.1
	c76.6-6.3,152.5-11.9,228.9,2.6c100.6,19.1,202.1,26.4,304,11.2c266.5-39.6,470.5-173.3,605.3-407.5
	c101-175.6,140.3-365.8,131.8-568.1c-8.4-200.9-70-382.8-179.6-549.8c-44.1-67.2-89.4-133.6-133.6-200.7
	c-67.2-102.1-122.8-210.3-152-329.4c-20-81.5-33-164.8-47.6-247.6c-17.4-98.7-36.9-196.5-79.4-288.3
	c-40.3-86.8-91.3-164.9-169.7-222.7c-72.6-53.5-155.4-80.4-242.5-96.8c-6-1.1-12.4-0.1-19.3-0.1c-6.2,48.9-12.1,95.8-18.6,147.2
	c17.8-3.4,33.5-4.7,48.1-9.4c25.7-8.3,50.8-18.7,76-28.2c8.3-3.1,18-5.9,21.9,3.8c2.6,6.6,1.6,16.8-1.8,23.1
	c-3.8,6.8-11.8,11.9-18.9,16.1c-106.3,62.6-243.2,59.6-351.4-19.2c-4.5-3.3-8.9-6.9-12.4-11.2c-7.1-8.7-10.1-19.9-1.8-27.9
	c4.6-4.4,16.1-5.4,22.7-3c15.7,5.7,30.2,14.7,45.4,21.8c8.5,4,17.6,6.8,31.7,12.2C1883.6,852.5,1888.4,810.8,1879.6,768z
	 M2052.1,657.6c7.9,5.4,10,7.6,12.5,8.4c62.4,21,126.6,33.4,192.4,33.1c191-0.6,350-73.6,478.6-214.2
	c55.3-60.4,99.3-128.5,139.2-199.5c3.5-6.2,5.6-13.1,9.3-21.6c-9.2-2.2-16.2-4.4-23.3-5.6c-19.4-3.1-38.8-5.5-58.2-8.6
	c-71.1-11.4-142.3-20.5-214.6-18.4c-111,3.2-216.6,26.1-313.3,83c-100.6,59.3-175.3,141.4-220.5,249.6c-6.7,16-15,32-9.6,53.6
	c10.6-5.4,19.8-9.5,28.4-14.6c31.3-18.6,62.1-38.1,93.8-56.1c183.2-104.7,378-182.6,577.9-248.7c5.3-1.8,11.2-4.5,16.2-3.6
	c6.5,1.1,16.5,4.3,17.7,8.7c1.9,6.5-0.1,17.6-4.9,21.7c-7.3,6.3-18.1,8.9-27.8,12.2c-38.9,13.2-78.2,25.1-116.8,39.3
	c-131.6,48.5-259.7,105.2-383.1,171.8C2182.1,582.6,2119.5,619.5,2052.1,657.6z M1810.9,424c16.1,27.1,32.6,51.9,46.1,78.3
	c57.4,112.5,88.6,231.8,90.1,358.4c0.2,13.1,0.4,26.2,1.8,39.2c0.4,3.7,4.9,9.8,7.4,9.7c4.7-0.1,10.3-2.9,13.6-6.4
	c2.8-3,3.3-8.6,3.9-13.2c3.9-29.6,8.8-59.2,11-89c10.4-144.9-10.6-285.3-64-420.6c-2.5-6.4-6.7-12.2-10.2-18.5
	c-16.4,13.2-29.9,26.3-45.5,36C1848.6,408.2,1830,415,1810.9,424z M1785.2,370c6.5-1.2,15.7-2.6,24.8-4.6
	c24-5.3,46.2-14.1,63.1-33.1c7.2-8.2,13.2-18.1,5.9-27.4c-4.9-6.3-14.8-11.2-22.9-12.2c-32-3.7-76.6,22.1-90.7,50.6
	C1757.2,359.7,1764.1,370.4,1785.2,370z"/>
<path d="M1567.9,2985.8c-51.5,4.9-118.1-48.7-114.6-116.8c3.5-68.9,48.5-116.4,117.9-117.8c61-1.2,118.3,42.9,118.1,118.4
	C1689,2930.5,1635.4,2990,1567.9,2985.8z M1540.7,2831.5c-0.6,18,14.3,34.7,31.7,35.6c22.4,1.2,42.4-17.1,42.4-38.6
	c-0.1-17.2-16.5-32.7-34.8-32.7C1560,2795.8,1541.2,2812.8,1540.7,2831.5z"/>
<path d="M2221.5,2871.6c0.5-65,53-116.4,118.5-116.4c69.8,0,118,52.8,118.8,115.9c0.9,68.4-52.9,119.9-121.4,119.7
	C2273.3,2990.7,2221,2936.9,2221.5,2871.6z M2383.1,2832.3c-0.2-20.3-15.7-36.2-34.6-35.7c-23.5,0.6-40.1,18-39.3,41.3
	c0.7,19.8,14.5,34,32.9,34C2366,2871.8,2383.3,2855.1,2383.1,2832.3z"/>
<path d="M1104,2371.2c13.1-0.7,22.2,9.2,19.6,19.8c-1.5,6.3-4.8,12.1-7.4,18.1c-36.8,85-70.5,171.1-86.6,262.9
	c-37.9,215.6-1.4,416.4,119.3,600.4c6.1,9.3,13.9,17.6,20.4,26.7c5.4,7.6,6.5,15.6-1.3,22.5c-7.4,6.6-15.6,6.7-22.6-0.1
	c-7.3-7.1-14.5-14.6-20.3-23c-92.3-132.4-140.7-279.1-144.9-440.8c-4.2-162.4,34.9-314.6,103.8-460.3c3.2-6.7,6.6-13.5,11-19.5
	C1097.4,2374.6,1101.9,2372.7,1104,2371.2z"/>
<path d="M2092.9,2977.7c-1.4,53.4-38.3,105-83.6,122.3c-52.5,20-113.4,6.7-149.7-33.2c-19.2-21.2-32.9-45.5-37.4-74.1
	c-1.4-8.9-1.5-19.1,1.5-27.4c2-5.7,10.1-12,16-12.6c5.6-0.5,14.3,4.6,17.5,9.8c6.7,11.1,10.2,24,16,35.7
	c20.6,42.2,57.9,59.8,104.2,51c27.2-5.1,45.7-20.3,56.6-45c4.9-11.1,8-22.9,12.5-34.2c6.7-17,12.8-21.1,26.3-18.6
	c13.3,2.5,19.4,10.4,20.2,26.1C2093,2979.3,2092.9,2981.2,2092.9,2977.7z"/>
<path d="M2481.8,1565.3c-27.9,0.8-29.3,1-31.8-17.5c-4.3-32.4-7.5-64.9-9.8-97.5c-6.6-93.4-18.8-185.9-51-274.4
	c-18.9-52.1-42.9-101.5-83.6-140.9c-1.3-1.3-2.7-2.6-3.9-4c-10.6-12.9-12.2-23.6-3.7-29.3c12.2-8.2,21.4-0.9,29.2,7.6
	c43.1,46.8,72.1,101.8,94.4,160.8c30.3,80.4,41.4,164.5,49.8,249.2c3.9,39,7.1,78.1,10.2,117.2
	C2482.5,1545.7,2481.8,1554.8,2481.8,1565.3z"/>
<path d="M2466.3,3137.8c-18.5-3.7-40.5-7.2-62-12.8c-9.6-2.5-19-8.1-26.8-14.3c-26.5-21.2-28-50.9-3.8-74.9
	c7.1-7.1,15.9-13.2,25-17.4c51.2-23.3,104-27.2,157.9-10.5c32.5,10,49.6,28.7,50.4,52.9c0.8,26.3-17.6,49.4-49.1,60.8
	c-11.3,4.1-23.1,7.5-34.9,9.5C2505.4,3133.9,2487.7,3135.3,2466.3,3137.8z M2475.2,3104.8c33.9-0.5,61.7-4.9,78.2-16.1
	c8.5-5.8,17.9-14.9,20.1-24.1c3.1-13.6-9.5-22.2-20.8-26.2c-51.8-18.2-102.5-15.5-149.9,13.8c-19,11.8-18,23,0.3,36.4
	C2424.8,3104.5,2450,3104.6,2475.2,3104.8z"/>
<path d="M1424,2992.8c28.8,6.8,57.7,13.4,86.5,20.6c6.2,1.6,12.2,4.8,17.6,8.3c38.6,24.8,38.7,71.2-2,92.1
	c-21.7,11.2-47.6,18.4-71.9,19.5c-29.3,1.3-59-5.5-88.4-9.8c-7.1-1-14-5.2-20.5-8.8c-20.4-11.2-38.2-25.2-38.3-50.9
	c-0.2-27,17.9-41.8,40-52.4C1371,2999.9,1396.6,2995.9,1424,2992.8z M1430.9,3103.6c30.5,0.2,56.3-2.8,79-17.7
	c18.4-12.1,18.7-24.1,1.7-37.3c-4.4-3.4-9.3-6.6-14.5-8.3c-31.1-10.3-62.9-18-95.9-12.4c-14.5,2.5-29.4,6-42.4,12.5
	c-26.2,13.2-26.6,29.8-1.7,44.7C1380.9,3099.4,1407.5,3103.8,1430.9,3103.6z"/>
<path d="M1233.8,2192.3c-1.3,3.1-3,8.4-5.7,13.2c-14.7,25.8-29.5,51.5-44.5,77.1c-1.8,3.2-4.1,7-7.2,8.3c-4.7,2-11.1,4-15,2.2
	c-3.8-1.8-7-8.2-7.5-12.9c-0.6-5.2,1.1-11.3,3.7-16c14.6-25.9,29.6-51.4,44.7-76.9c2.3-3.9,5.8-7.5,9.6-9.8
	C1221.7,2171.5,1233.5,2178.6,1233.8,2192.3z"/>
<path d="M2509.5,1748.9c-16.3,6.8-26.7,6.1-30-8.5c-5.2-23.4-9.3-47.1-13.1-70.8c-1.5-9.2,2.1-16.4,12.8-17.7
	c10.4-1.3,15.8,4,17.3,13.5C2501,1692.6,2505.1,1719.9,2509.5,1748.9z"/>
</svg>
