<?xml version="1.0" encoding="utf-8"?>
<!-- Generator: Adobe Illustrator 24.3.0, SVG Export Plug-In . SVG Version: 6.00 Build 0)  -->
<svg version="1.1" id="Layer_1" xmlns="http://www.w3.org/2000/svg" xmlns:xlink="http://www.w3.org/1999/xlink" x="0px" y="0px"
	 viewBox="0 0 4000 4000" style="enable-background:new 0 0 4000 4000;" xml:space="preserve">
<path d="M2774.3,1567.7c46.9,5.2,83.5,24.1,109.2,60.8c18.6,26.5,33.2,55,29.3,88.8c-1.8,15.2,4.5,23.3,17.5,28.5
	c4.8,1.9,9.5,3.9,14.1,6.3c54.7,29.3,84.3,83.7,76.2,146.4c-2.7,21.4,3.4,31.3,20.1,45.1c50.3,41.7,110.1,68.6,161.4,108.2
	c15.4,11.9,30.4,24.7,44.2,38.5c36.9,36.9,53.8,81.6,52.4,134c-3,117-21.2,231.7-48,345.3c-47.5,202.1-130.7,388.2-254.4,555.1
	c-147.4,198.9-338.8,340.9-569.3,430c-23,8.9-32.6,20.5-31.7,44.9c0.8,24.6-2.6,49.4-3.3,74.1c-0.8,26.1-12.5,46.4-34.9,58
	c-25.5,13.2-52,25-79.2,34c-68.6,22.9-139.7,35.1-211.5,42.9c-102.6,11.1-205.5,16-308.5,6.5c-111-10.2-221.3-24.1-325.2-68.1
	c-9.5-4-18.7-8.6-28-13c-25.9-12.4-37.6-33.7-39.4-61.7c-1.7-26.7-6-53.4-5.6-80.1c0.3-21.5-8.7-30.6-27.6-38
	c-91.5-35.5-179-79.3-260.4-134.3C919,3316.6,789.6,3190,690.3,3033.4c-107.4-169.4-174.6-353.8-210.5-550.6
	c-15.4-84.4-24.3-169-26.1-254.8c-1.2-55.8,19-100,57.9-137.7c38.2-37,82-65.6,130.3-87.2c21.6-9.7,37.8-21.9,47.5-44.9
	c13.2-31.2,35.4-55.4,69.1-66.7c4.6-1.5,8.5-5,14.6-8.7c-16.9-47.1-17.7-93,5.9-137.8c24-45.5,60.8-71.5,112.3-73.7
	c3.1-16.5,5.2-29.7,8.1-42.6c13.4-60.6,47.6-101.7,109.9-115.9c16.3-3.7,26.3-8.9,27.5-29.7c4.3-72.4,60.2-127.1,133.8-134.5
	c26.8-2.7,26.8-2.7,34.8-28.2c19.4-62,68.8-97.6,137.8-98c19.4-0.1,41.9,9.5,57.3,2.3c15.2-7.1,22-30.6,34.4-45.3
	c37.7-44.5,120.7-59.5,173.7-32.4c6.3,3.2,12.2,7,20.8,12.1c67.5-93.8,150.7-100.9,247.8-41.3c35.4-29.1,77.5-46.9,125.9-41.8
	c48.1,5,88.9,24.6,114.1,65.2c30.1-6.5,57.6-15.5,85.6-17.8c50.8-4.1,95.6,11.8,129.5,51.8c7.2,8.4,11.4,19.4,17.1,29.1
	c3.1,5.3,6,14.8,9.4,15c19.1,1.2,38.6,2,57.3-1.2c7.8-1.3,16.6-11.5,20.2-19.8c33.1-76.5,65.5-153.4,97.5-230.4
	c111-267.2,221.8-534.5,332.7-801.7c1.6-3.8,3.2-7.6,5-11.3c12.7-26,26.3-33.9,51.7-22.9c45.3,19.6,90,41,133.7,64
	c31,16.4,32.5,25.8,16.7,57.1c-47.7,94.8-95.6,189.4-143.4,284.2c-119.2,236.3-238.1,472.7-358.1,708.6c-16.1,31.7-24.5,60-0.2,90.8
	c7.4,9.4,11.1,21.7,17.2,34.3c17.4-4.9,26.1-18,34.6-30c41.8-58.7,83.2-117.8,124.1-177.1c171.1-248.6,342-497.4,512.9-746.2
	c9.9-14.4,19-29.5,29.6-43.4c16.1-21.1,29.3-25.4,50.1-10.9c43.1,30,84.6,62.2,126.3,94.1c13.3,10.2,15.7,24.1,6.1,38.3
	c-12,17.9-24.2,35.9-37.6,52.8c-90.8,114.7-182,229.1-272.9,343.7c-111.5,140.4-222.9,280.8-334.2,421.3
	c-28.1,35.5-56,71.3-83.8,107.1c-17.1,22.1-17.2,22.5-1.6,45C2763.3,1495.4,2770.9,1529.3,2774.3,1567.7z M829.7,1911.5
	c-12.6,3.8-21.2,7.7-30.1,8.9c-71,9.6-124.4,110.7-69.7,185.7c4.2,5.8,9.1,11.3,12.6,17.5c8.2,14.3,5.7,22.3-9.1,29.7
	c-4.5,2.3-9.6,3.5-14.5,5c-38.7,12-60.2,39.4-65.1,78.3c-2.7,21.1-0.9,43.1,1.2,64.5c3,29.8,17.5,52.1,47.5,62.3
	c12.6,4.3,24.4,11.1,36.9,15.8c79.2,29.8,160.6,51.9,243.1,70.1c239.2,52.8,481.9,78.2,726.3,84.1c145.1,3.5,290.5,0.4,435.7-4.6
	c183.4-6.3,365.4-28.8,545.9-62.2c123.7-22.9,245.2-54.4,361.2-104.2c15.1-6.5,30.7-13.1,43.5-23c8.9-6.9,17.7-18.9,19.1-29.6
	c6.7-50.6-0.5-97.1-49-127.2c-4.3-2.7-8-6.6-12.2-9.5c-11.6-8-12.1-18-5.9-29.6c6.4-11.7,12.9-23.5,18.7-35.5
	c24.3-50.4-11.8-133.7-69-138.3c-10.4-0.8-20.4-7-32.9-11.6c4-14.8,7.3-26.6,10.4-38.3c20-74.7-14.7-128-90.6-139
	c-20.1-2.9-23.8-8.7-20.8-29.2c2.9-19.2,8.8-39,6.5-57.7c-6.2-50.5-50.4-83.8-106.2-84.1c-32.1-0.2-32.9-1-32.2-32.5
	c0.2-10.3,0.5-20.6,0.2-30.9c-0.9-23.6-9.6-43.8-29.1-62.1c-6.8,7-13.7,12.8-19.1,19.9c-27.3,36.2-55.1,72-80.9,109.2
	c-22.4,32.4-51.7,61.5-53.5,104.5c-20-0.5-25.1-15.3-33.7-26.3c-17.7-22.6-33-48.4-54.8-66.2c-57.5-46.9-125.1-65.4-199.3-57.9
	c-4.1,0.4-8.1,1.4-12.2,1.6c-10.5,0.5-18.6-3.1-20-14.5c-1.4-11.4,6-16.9,15.8-19.4c5.9-1.5,12.2-2.3,18.3-2.6
	c24.4-0.9,38.5-12.5,47.9-35.8c28.3-69.6,59-138.3,88.5-207.4c2.7-6.4,4.3-13.2,7.8-24.5c-18.4,2.8-33.2,5.1-48,7.5
	c-28.5,4.5-35.6,0.7-39.2-28c-3.4-27.1-17.8-46.2-39.2-59.9c-40.5-25.8-83.1-27.9-126.1-5.6c-10,5.2-18.9,12.6-28.6,18.3
	c-18.9,11-25.2,10.3-32.4-10.6c-27.6-80.8-140.7-88.9-188.6-30.9c-2,2.4-4.4,4.3-6.6,6.5c-18.3,17.3-19.9,17.4-38.1,1.8
	c-8.6-7.4-16.8-15.3-26-21.8c-64-45-148.6-16.2-172.1,58.1c-3.2,10.1-8.3,19.6-14.5,34.1c-11.9-11.3-20.9-17.8-27.4-26.2
	c-13.3-17.1-30.1-28.1-51-32.4c-53.6-11.2-107.4,20.3-124.3,72.6c-4,12.4-8.2,24.8-13.2,39.6c-12.9-5.6-23-10.1-33.1-14.4
	c-79.8-33.4-155.6,16.4-157.8,91.7c-0.3,9.7-4.1,19.3-6.6,30.3c-14.1-1.3-25.2-2.6-36.3-3.4c-79.2-5.8-129.9,49.3-118,127.6
	c1.5,9.6,0.2,19.6,0.2,31.3c-17.3,0.8-32.6,1-47.8,2.2c-42.2,3.4-71.8,25.3-85.6,64.9c-6.3,18-6.7,38.1-9,57.4
	c-1.4,11.7-1.3,23.6-2,38c-15.1,0-26.3-0.2-37.5,0c-46.4,1-79.4,28-91,73.2c-8.4,32.7-2.3,63.1,12.1,92.8
	C823.5,1889.1,825.7,1899.7,829.7,1911.5z M502.6,2290.7c-2.6,5.2-4.2,6.9-4.2,8.6c0.1,7.2,0.3,14.4,1,21.6
	c14.9,147.2,45.3,290.6,96.9,429.9c96.1,259.6,258.7,466.8,485.9,623.5c163.7,112.9,344.5,184.6,541.2,213.9
	c193.2,28.8,385.7,26.2,577.9-12.8c214.7-43.6,406-136.1,573.1-275.9c174.3-145.9,296.2-330.3,377.7-542
	c50.2-130.5,79.6-266.1,97.3-404.4c2.2-16.8,2.8-33.8,4.5-56.5c-12.1,7.6-18.8,11.6-25.2,15.9c-28.1,18.8-55,39.9-84.6,56
	c-98.5,53.6-205.1,85.6-313.5,111.3c-258.5,61.3-521.4,89.6-786.5,98.2c-191.8,6.3-383.2-0.3-574.4-16.7
	c-164.4-14.1-327.5-36.5-489-70.2c-113.2-23.6-224.1-55.3-329.2-104.1c-35.3-16.4-68.9-36.9-102.1-57.5
	C533,2319.6,519.4,2305,502.6,2290.7z M2523.1,1636.4c6.5-4.6,11.5-6.7,14.3-10.5c287.2-388.3,596.3-759.6,893.9-1143.1
	c-32.5-24.8-64-49.3-96.4-72.6c-3.9-2.8-14-0.5-19,2.8c-5.7,3.7-9,11-13.1,16.9c-55.7,80.5-111.6,160.8-167,241.5
	C3060,781.8,2984.7,892.5,2909,1003c-112.9,164.9-226.2,329.5-338.9,494.6c-24.2,35.5-46.6,72.2-69.9,108.5
	C2509.2,1617.9,2515.7,1626.6,2523.1,1636.4z M2381.2,1539.3c6.5-11.1,13.1-21.2,18.4-31.9c103.6-209.4,206.3-419.2,310.6-628.3
	c101.9-204.5,205.3-408.3,308-612.4c5.4-10.7,9.6-21.9,15-34.3c-42.3-20.6-81.6-39.7-124.3-60.4c-7.6,18.9-14.3,35.8-21.2,52.6
	c-52.3,125.4-104.8,250.7-157,376.1c-98.8,237.6-197.3,475.3-296.2,712.8c-22.5,54.2-46.6,107.7-69.4,161.8
	c-7,16.6-12.2,34-18.8,52.5C2359.6,1532.2,2369.1,1535.3,2381.2,1539.3z M2354.8,3586.5c-66.4,14.7-128,31.2-190.7,41.5
	c-62.8,10.3-126.5,17.2-190.1,20.6c-63.6,3.4-127.7,3.3-191.2-0.3c-63.6-3.6-127.3-10.8-190.1-21.1
	c-62.1-10.3-123.2-26.5-188.1-40.9c1.5,30.9,1.6,58.6,4.9,86c1,8.5,8.8,18.6,16.3,23.6c13.6,8.9,29.2,15.1,44.3,21.4
	c55.6,23.3,114.4,34.1,173.6,42.2c177.8,24.3,355.2,21.3,531.8-12c49.7-9.4,98.4-22.5,143.7-45.4c10.3-5.2,24-14.5,25.9-23.9
	C2350.9,3648.5,2351.8,3617.8,2354.8,3586.5z M2459.2,1578.1c41.1-54.2,80.9-105.3,111.7-164.3c-14.3-2.7-24.9-4.6-36-6.7
	c-1.4-16.8-2.6-31.3-4-48.1c-25.3,20.2-90.2,151-100.5,199.5C2438,1563.5,2446.2,1569.2,2459.2,1578.1z M559.7,2283.8
	c1.9-1.2,3.7-2.4,5.6-3.6c-3.4-11.7-6.5-23.4-10.2-35c-11.7-36.6-5.4-71,12.5-104.1c17-31.4,39.7-57.2,70.2-76.3
	c8.4-5.2,19.8-8.8,22.3-24.9c-47.3,20.6-87.3,45.6-120.9,79.3c-14.3,14.3-25.9,32-35.4,50c-5.2,9.8-8.2,25.5-3.9,34.9
	C513.9,2234.8,533,2262.6,559.7,2283.8z M3125.8,2058.3c-1.2,1.9-2.4,3.9-3.6,5.8c27.8,29.5,62.3,53.1,76.9,93.6
	c15.4,42.6,1.1,82.6-7.3,126.8c32.3-16.5,48.5-41.4,59.5-70.6c7.7-20.5,5.8-39.7-6-58.8c-23.8-38.5-55.8-68-95.5-89.3
	C3142.5,2062,3133.9,2060.8,3125.8,2058.3z M601,2247.9c2-2.7,4.7-4.8,5.4-7.4c10.5-44.6,31.2-82,71-107.7
	c13.5-8.7,10.2-20.1,1.5-30.5C614.8,2116.8,575.6,2190.9,601,2247.9z M3162.2,2235.8c4.6-59.2-14-101-50.4-114.9
	c-5.6,9-11.3,18.3-15.7,25.4C3118.5,2176.6,3139.3,2204.8,3162.2,2235.8z"/>
<path d="M1069.7,1821.4c4.9-32.7,13.2-61.9,33.2-87.1c26.9-33.8,70.3-46.2,111-31.9c37.6,13.2,68,55.6,68.2,94.8
	c0.1,19.4-7.2,27.8-24.1,28.7c-12.1,0.6-19.9-4.2-21.5-16.7c-0.7-5.1-0.8-10.3-0.7-15.4c0.4-22.8-8.3-41.5-29.7-49.5
	c-23.6-8.9-47.1-4.7-65.7,13.7c-18.8,18.6-26.1,41.5-20.6,67.7c1.7,8,4.9,15.7,7.1,23.6c3.2,11.6,4.4,23.3-9.6,28.4
	c-12.8,4.6-25.9,2.3-32-10.6C1078.3,1852.7,1074.7,1836.7,1069.7,1821.4z"/>
<path d="M950.8,2217.3c-0.6-45.9,29.4-90.3,66.4-102.1c43.8-13.9,95.4,2,121.1,38.6c8.2,11.6,14.3,24.9,19.6,38.2
	c4.6,11.6,2.3,22.7-11.4,27.5c-13.3,4.6-21.4-0.8-25.8-13.9c-6.5-19.2-18.7-34.1-36.3-44.3c-27.2-15.8-57.7-12-75.9,9.3
	c-19.1,22.3-17.5,59,3.8,81.9c4.2,4.5,9.2,8.2,13.6,12.5c6.7,6.4,16.2,14.2,7.6,22.9c-6.2,6.3-17.6,10.1-26.7,10.2
	c-7,0.1-15.1-6.1-21.1-11.3C963.6,2267.7,953.9,2242.2,950.8,2217.3z"/>
<path d="M2087.3,1383.2c72.1-0.7,123.2,61.2,106.4,129.1c-6.3,25.3-22.2,44.2-43.5,57.4c-7.3,4.5-20,4.7-28.6,1.8
	c-11.3-3.7-13.9-14.9-7.4-25.4c3.7-5.9,9.8-10.4,15-15.3c22.1-20.7,27.7-46.6,15.6-72.2c-11.1-23.3-39.8-38.2-67.3-31.5
	c-14.4,3.5-27.8,12.1-41.1,19.4c-5.2,2.9-8,10.6-13.2,12.5c-7.8,2.8-19.4,5.9-24.5,2.2c-5.3-3.8-8.9-17.5-6.1-23.6
	c5.7-12.5,14.5-25,25.2-33.4C2037.6,1388.6,2062,1383.4,2087.3,1383.2z"/>
<path d="M1499.9,1956.8c2.1-44.9,18.1-82.7,60.3-103.4c42.4-20.8,84.4-16.4,121.6,12.8c12.4,9.7,21.3,24.6,30,38.2
	c7.2,11.1,3.9,22.9-7.8,28.9c-11.4,5.9-21.7,3.2-27.9-9.9c-8.7-18.4-21.7-32.7-42.3-37.6c-29.5-7-55.5-0.9-74.8,23.5
	c-19.2,24.2-18.8,51.2-7.9,78.7c1.5,3.7,4,7.2,6.6,10.3c8.1,9.6,12.4,19.3,1.8,29.8c-9.1,9-25.3,8.3-36.1-3
	C1505.4,2006.2,1499.6,1982.6,1499.9,1956.8z"/>
<path d="M2463,1963.3c-5.9,19-9.6,36.1-16.7,51.6c-4,8.7-12.3,17.4-20.9,21.3c-6.7,3.1-18.5,1.3-24.7-3c-4-2.9-3.4-14.5-2.3-21.7
	c0.9-5.7,5.5-10.8,8.9-16c17-26.6,13.4-52.6-2.6-78.1c-12.1-19.3-30.1-27.3-52.5-25.3c-22.2,2-38.7,12.8-47.6,33.7
	c-2.4,5.7-4,11.7-6.1,17.4c-3.5,9.4-8.6,16.4-20.3,14.4c-11.6-2-19.1-8.6-19.6-20.3c-0.3-8,0.8-16.7,3.8-23.9
	c15.9-38.2,44.1-61.6,86-64.8c41.8-3.1,74.8,14,93.8,51.6C2452.2,1919.9,2456.3,1942.4,2463,1963.3z"/>
<path d="M2648.8,2107c38.9,1.6,70.9,15.1,88.9,51.2c19.4,39,16.8,77.7-6.8,114.4c-4.2,6.5-11.4,13-18.5,15.3
	c-6.6,2.1-16.5,0.8-22.1-3.2c-4.2-3-6.4-13.2-4.8-18.9c2.6-9.6,8.5-18.5,13.7-27.3c15.3-26.3,14.1-46.5-4.8-67.8
	c-17.7-20-42.6-27.3-66.9-15.1c-15,7.5-27.4,20.6-40.2,32.1c-5.1,4.6-7.1,12.7-12.2,17.5c-11,10.5-29,4.8-30.2-10.2
	c-0.8-9.6,1.6-20.7,6.1-29.3C2571.8,2126.8,2605.8,2109,2648.8,2107z"/>
<path d="M2646.9,1791.5c-19.8-0.7-38.7,5.5-54.1,21.2c-7.9,8.1-16.9,12.6-26.9,3.7c-9.3-8.2-8.8-18.5-2.7-27.9
	c5.5-8.5,11.1-18.1,19.1-23.4c56.3-37.3,143.9-20.7,164.9,55.7c10.5,38-0.9,71.2-25.7,100c-5.6,6.4-15,10.6-23.5,13.2
	c-10.8,3.3-22-0.3-25.3-11.5c-1.9-6.2,2.1-15.1,5.5-21.7c2.7-5.2,8.5-8.8,12.9-13.1c19.5-18.8,21.5-41.9,12.4-65.3
	C2694.1,1798,2673.3,1790.3,2646.9,1791.5z"/>
<path d="M1518.5,1382.9c19.3-0.5,47.8,10.2,70.6,33c8.4,8.4,14.5,19.9,18.8,31.1c3.9,10.1,1.3,22.6-10.8,25
	c-8.5,1.7-19.1-2.3-27.5-6.3c-4.8-2.3-6.8-10-10.6-14.8c-20.8-26.3-56.2-33.7-86.1-18.4c-28.5,14.6-36.5,49.9-16.9,76.5
	c4.8,6.5,11.3,12,17.6,17.2c9.2,7.6,13.7,18,6,26.6c-4.8,5.3-17.9,8.5-24.4,5.7c-11.6-4.9-24-13-30.8-23.3
	c-21.2-31.9-26.8-66.4-8.2-102.2C1434.9,1396.8,1466.5,1383.7,1518.5,1382.9z"/>
<path d="M1874.2,2290.4c-3.7-17.9-5.8-34.4-10.6-50c-10.4-33.5-34.2-49.5-61.4-43.1c-30.2,7.1-54,38.7-51.5,68.6
	c0.5,6.1,2.6,12.1,3.5,18.2c1.6,10.5,3.1,21.2-10.7,24.9c-12.2,3.3-23.5,0.8-29.3-10.7c-4.5-8.8-8.3-19.5-7.8-29.1
	c1.3-30.8,12.4-58.5,33.7-81c49-51.6,135.7-33.9,162.7,33.5c5.2,13.1,8,27.9,8.9,42C1913.3,2291.3,1906,2296.2,1874.2,2290.4z"/>
<path d="M2148.8,2964.6c-0.6-54.1,45.7-102.2,98.3-102.3c54.3-0.1,99,45.7,98.7,101.1c-0.2,56.4-43.5,101.5-98,102.2
	C2194.1,3066.3,2149.3,3020.7,2148.8,2964.6z"/>
<path d="M1452.4,3061.7c-57-0.3-97-40.7-96.8-97.7c0.2-53.9,47.9-101.6,100.5-100.7c54.1,1,97.6,47.7,96.5,103.7
	C1551.7,3022.5,1509.8,3062,1452.4,3061.7z"/>
<path d="M1850.2,3201.7c-86.2-0.3-153.4-64.1-157.6-149.6c-0.2-4.1-1.5-9.2,0.4-12.1c4-6.2,8.8-13.6,15-16.1
	c9.1-3.7,18.9-0.6,22.3,10.4c4.2,13.7,7,27.9,11.1,41.6c15.9,53.8,60.6,84.1,116.7,79.5c57.6-4.7,99.2-43.5,105.6-98.3
	c0.8-7.1,1-14.4,2.6-21.4c2.6-11.7,10.5-17.5,22.5-16.1c11.1,1.2,19.7,6.3,21.8,18.3c0.7,4,0.7,8.2,0.2,12.3
	C2000.3,3129.3,1952.2,3200.2,1850.2,3201.7z"/>
<path d="M1258.6,3197.8c6.1-15.6,10.4-30.2,17.4-43.4c10.5-19.9,22.2-39.3,34.6-58.1c14.3-21.6,18.3-22,48.8-8.7
	c-10.1,20.9-20,41.9-30.4,62.7c-5.9,11.9-12.5,23.5-18.9,35.3C1296,3211.6,1294.8,3211.9,1258.6,3197.8z"/>
<path d="M2337.1,3199.8c2.6-13.2,2.7-26,7.8-36.4c12.5-25.9,26.6-51.1,41.3-75.7c8.3-13.9,13.6-13.6,44.3-2.5
	c-3,9.8-4.8,20.5-9.5,29.8c-12.5,24.8-26.1,49-39.5,73.3C2369.9,3208.9,2369.8,3208.8,2337.1,3199.8z"/>
<path d="M2323.2,3079.7c19.2-0.1,29.2,10.9,26.9,25.8c-0.9,6-3.1,12-5.9,17.3c-11.8,22.7-23.7,45.4-36.3,67.6
	c-7.3,12.8-16.5,14.9-28,7.3c-10.3-6.8-16.1-15.6-9.6-28.5c13.4-26.4,26.3-53,40.4-79C2313.6,3085,2320.7,3081.8,2323.2,3079.7z"/>
<path d="M1396.7,3089.9c22.2,1.3,32.4,16.4,23.2,34.2c-11.7,22.6-25.7,44.1-39.3,65.6c-5.9,9.3-14.8,13.5-26.4,10.7
	c-10.6-2.5-18.5-9.4-13.9-19.3c13.9-29.4,29.6-57.8,45.4-86.2C1387.6,3091.5,1394.5,3090.9,1396.7,3089.9z"/>
<path d="M2465.7,3079.1c33.3,15,36,21.3,23,45.4c-11.2,20.7-23.4,40.8-34.5,61.4c-6.4,11.8-14.5,16.5-27.5,10.9
	c-13.7-5.9-14.8-16.7-9.2-27.9C2432.8,3139.2,2449.1,3110,2465.7,3079.1z"/>
<path d="M1279,3099.4c-1.3,3.8-2.7,9.9-5.5,15.2c-12.8,23.4-26,46.5-39.1,69.8c-5.7,10.1-13.4,15.6-25.3,10.1
	c-11.4-5.3-15.8-16.2-9.5-28.1c12.9-24.5,26.4-48.8,40.9-72.3c3.8-6.2,11.7-11.7,18.8-13.8C1270.4,3076.8,1279,3085.3,1279,3099.4z"
	/>
</svg>
