<?xml version="1.0" encoding="utf-8"?>
<!-- Generator: Adobe Illustrator 24.3.0, SVG Export Plug-In . SVG Version: 6.00 Build 0)  -->
<svg version="1.1" id="Layer_1" xmlns="http://www.w3.org/2000/svg" xmlns:xlink="http://www.w3.org/1999/xlink" x="0px" y="0px"
	 viewBox="0 0 4000 4000" style="enable-background:new 0 0 4000 4000;" xml:space="preserve">
<path d="M2771.7,1407.8c45.3,20.7,86.3,38.9,126.8,58c76.3,36,148.4,78.6,210.3,136.8c57.6,54.1,100.9,116.7,111.8,196.8
	c3.7,27.4,1.5,55.7,0.9,83.6c-0.4,17.7-2.6,35.3-4.3,57.1c15.2-2.8,26.7-4.3,37.8-7c59.9-14.3,119-11.6,177.4,7.7
	c78.1,25.8,130.2,78.4,161.5,154c37.6,90.6,32.3,181.6,6.4,273.3c-34.6,122.2-104.5,221.7-198.8,304.7
	c-144.7,127.4-312.9,206-502.8,238c-17.5,3-28.9,11.1-38.5,25c-109.5,158.7-249.5,282.7-422.1,369.2c-18.4,9.2-26.7,20.4-25.9,41.7
	c0.9,23.9-2.4,47.9-3.7,71.9c-2.6,46.6-23.2,83.1-64.4,104.8c-31.7,16.7-64.6,32.3-98.6,43c-147.9,46.9-300.4,65.6-455.2,66.5
	c-162.7,1-323.7-14-480-61.6c-39.8-12.1-78.6-29.4-115.7-48.6c-43.5-22.6-69.3-59.1-70.1-110.7c-0.4-22.9-5.8-45.8-5.7-68.7
	c0.1-21.1-8.1-32.8-27-41.4c-63.1-28.8-120.4-67.3-175.4-109.1c-146.3-111.3-260.6-250.1-349.6-410.3
	c-97.5-175.4-162.2-362.7-204.1-558.4c-22.9-106.6-41.3-214-51.7-322.6c-2.8-28.7-3.1-58-1.3-86.8c3.5-57.7,26.5-108.1,62.4-153.1
	c55.4-69.3,125.6-119.9,203.3-160.7c130.8-68.8,269.8-115.9,413.2-149.7c276.9-65.3,558.1-88.9,842.3-86.1
	c226.7,2.3,450.9,25.7,673.3,68.7c13.6,2.6,27,6,43.6,9.7c9.4-21.6,19.1-42.2,27.4-63.3c75.1-189.7,158-376,252.9-556.6
	c53.2-101.1,112.5-198.3,186-286.2c34.8-41.7,73.9-78.6,123.8-102.6c41.2-19.8,84.4-24.7,128.6-15.4
	c76.9,16.2,125.7,85.4,117.5,164.4c-5.6,53.7-25.1,102.6-50,149.8c-51.2,96.8-117.4,183.5-183.3,270.3
	c-111.2,146.5-222.8,292.8-334,439.4C2801.7,1363.2,2788.2,1384.1,2771.7,1407.8z M367.6,2000.8c1.3,16.9,1.1,26.8,3,36.4
	c18.5,92.1,34.2,184.9,56.9,275.9c50.2,201.2,128.6,390.6,245.8,563.1c93.6,137.6,210.3,250.9,350,340.7
	c187.5,120.6,396.8,171.2,616.1,186c145,9.8,289.3,2.6,433.2-22.4c260.1-45.1,482.1-159,662.2-353
	c125-134.6,212.8-291.9,280.4-461.2c60.2-150.8,100.4-307.5,130.8-466.8c6.1-31.9,10.6-64.2,16-97.1c-5,0.6-7.4,0.2-8.6,1.2
	c-4.6,3.8-9.2,7.7-13.3,12.1c-54.7,60.1-122,102.8-193.3,140c-121.3,63.2-250.1,106.1-382.6,138c-202.7,48.8-408.9,74.4-617.1,81.9
	c-264.3,9.5-527.6-1.4-789.2-44.7c-166.3-27.6-328.9-67.5-485.1-131c-107.3-43.6-206.5-100.8-287.7-185.5
	C382,2011,377.8,2008.5,367.6,2000.8z M2567.6,1884.6c1.2-22,1.8-38.8,3.2-55.5c2.9-34.8,4.9-69.8,9.8-104.4
	c13.5-96.2,55-182.1,107.5-261.6c70.4-106.8,144.2-211.5,220.4-314.3c77.4-104.4,159.7-205.2,239.3-308
	c57.6-74.4,112.7-150.5,155.3-234.8c18.2-35.9,32.5-72.9,39.3-112.8c14.8-87.2-54.9-154.8-141.3-134.6c-24.7,5.8-49,17.5-70.9,30.8
	c-48.6,29.5-85.5,72-119,117.2c-78.3,105.7-141.4,220.5-199.5,338c-86.4,174.9-160.6,355.2-234.6,535.6
	c-17.8,43.4-36.7,86.6-57.7,128.6c-47.4,95-117.3,170.9-202.2,233.8c-35,25.9-69.4,52.6-108.7,82.5c15.2,1.5,24.7,3.3,34.1,3.3
	c94-0.3,184.9,16.6,273.8,46.3C2531.1,1879.6,2547.2,1880.8,2567.6,1884.6z M2491.2,1463.6c-5.2-2.9-7.6-4.7-10.4-5.6
	c-5.7-1.9-11.5-3.5-17.3-4.8c-142.2-29.5-285.4-50.6-430.5-58.6c-314.9-17.5-627.7-3.4-937.5,59.2c-120.7,24.4-239,57.3-352.3,106.4
	c-76.6,33.2-148.2,74.7-209.8,131.8c-25.3,23.4-46.9,49.7-57.7,82.8c-13.4,41.2-13.1,81.5,12.1,122.5c8.2-9.4,14.4-15.7,19.6-22.7
	c22.4-30,49-55.7,80.4-75.8c37-23.7,73.8-48.5,113.4-67.1c146.4-69.2,301.3-112.6,460.3-140.4c182.5-31.8,366.7-49,552-51.5
	c152.1-2,304.1,1.6,455.2,20.5c72.4,9,144.7,19.1,216.8,30.2c22.8,3.5,38.1-0.9,49.3-22.4c13.3-25.7,29.4-50,43.6-75.2
	C2483.5,1483.7,2486.9,1473.5,2491.2,1463.6z M2523.2,1384.9c-10.8-3.1-21.8-7.2-33.2-9.4c-31.4-5.9-63-10.8-94.5-16.6
	c-112.2-20.7-225.1-36.2-339.1-42.9c-194-11.3-387.9-10.6-581.7,4.4c-151.7,11.8-302.2,31.7-450.6,66.2
	c-102.4,23.8-203.1,52.6-300.5,92.4c-89.3,36.5-174,80.9-249.9,141.1c-36.4,28.9-67.1,62.5-91.2,102.5
	c-48.9,81.2-44.6,159.4,11.1,235.2c8.9,12,18.9,23.3,29.1,34.3c40.1,42.7,86.3,77.7,137.6,105.5c122.8,66.4,252.2,116.8,388.5,147.4
	c88.6,19.9,178.3,35.4,267.8,51.4c130.2,23.2,262.2,31.9,394,36.9c124.8,4.7,250,0.5,374.9-3.7c174.2-5.9,346.6-28.4,516.8-66.3
	c172.5-38.4,339.7-91.2,491.5-184.9c51.4-31.7,100.2-66.6,138.5-113.7c50.4-62,76.8-146.7,20.7-236.5
	c-18.4-29.4-38.3-59.2-62.9-83.3c-93.2-91.5-208.1-147.4-329-192c-19.8-7.3-22-4.7-32.7,24.1c8.6,4.1,17.2,9,26.4,12.3
	c72.7,26.6,140.5,62.8,205.4,104.4c44.3,28.3,81.8,63.9,111.2,107.9c51.8,77.4,49.5,166.3-6.5,240.5
	c-38.1,50.5-87.9,87.2-141.2,119.3c-112.4,67.8-235.6,109.4-361.9,141.4c-196.5,49.7-397,72.4-599,84.5
	c-148.1,8.8-295.9,4.8-443.8-4.9c-176.9-11.6-352.4-32.6-524.9-74.3c-123.6-29.9-245.3-65.9-358.3-125.8
	c-61.5-32.6-117.9-72.1-161.5-127.2c-33.2-42-54.2-89.5-49.6-143.9c3.6-42.6,21.1-80.8,47.5-115c31-40.1,69-71.9,111.1-99.6
	c95.3-62.8,200.8-102.6,308.7-136.8c119.5-37.9,242.2-61.4,366-77.9c104-13.9,208.7-23.2,313.3-31c146.9-10.9,293.9-6.9,440.9,0.9
	c109.9,5.8,219.4,16.2,328.1,33.6c51.3,8.2,102.2,19.1,153.4,27.8C2515.4,1416.9,2518,1413.7,2523.2,1384.9z M3170.7,2203.3
	c2.1,1.4,4.3,2.7,6.4,4.1c11.3-9.3,22.1-19.2,33.9-27.8c41.9-30.6,88.3-44.3,138.2-25.3c45.8,17.4,59.8,58.7,65.5,103.2
	c1.2,9.8,0.2,19.9-0.8,29.8c-5.3,55-25.1,105.1-55.6,150.4c-78.8,117.3-189.3,193.4-321,239.7c-22.1,7.7-35,20.1-45,39.9
	c-21.6,42.8-44.7,84.8-66.9,127.3c-2.4,4.6-3.5,9.8-6.3,18.1c14.4-2.6,25.2-4,35.6-6.6c126.5-31.7,242.5-86.3,349.2-161
	c111.7-78.1,198.7-176,246.2-305.7c31.5-86,38.8-173.5,10.8-261.8c-23.6-74.4-72.3-125.5-147.3-150c-64.9-21.3-128.2-11.3-191.1,9.6
	c-15.2,5-17.6,17.2-19.9,30.4c-9,51.2-18.3,102.3-27.3,153.5C3173.4,2181.8,3172.2,2192.5,3170.7,2203.3z M2367.6,3340.3
	c-193.2,79.9-395.9,110.6-603,109c-206.4-1.7-409.3-29.6-607.1-113.2c4.2,34.2,7.3,61.8,11.1,89.3c3.5,25.4,16.6,45,39,57.3
	c22.7,12.5,45.5,25.1,69.4,35c97.1,40.2,200,56.1,303.6,65c135.6,11.6,271.6,12,407-5c91.3-11.5,182-26.6,268.3-59.9
	c28.6-11,55.3-27.4,82-42.8c8.1-4.7,14.9-13.5,19.7-21.9C2366.6,3437.5,2372.4,3363.7,2367.6,3340.3z M1211.8,2031.8
	c13.7-0.8,39.9-0.6,65.5-4.3c23.5-3.4,47.2-9,69.3-17.5c25.4-9.7,29.8-21.8,20.1-47.5c-18.2-47.9-43.1-92.4-75.7-132.1
	c-17.3-21.1-40.3-32.4-68.3-31.5c-100,3.2-193.6,27.6-276.4,85.9c-13.7,9.6-26.2,21.9-36.5,35.1c-15,19.3-13.8,35.7,6.9,48.4
	c24.3,14.9,50.9,28.2,78.2,35.9C1061.6,2022.9,1130.4,2029.6,1211.8,2031.8z M3039.7,2624.7c4.9,0.3,7.8,1,10.4,0.5
	c4.9-0.9,10-1.8,14.4-3.9c85.3-42.6,166.7-90.6,228.3-166c33.2-40.7,59-85.3,73.2-136.1c7.6-27.2,10.9-54.8,3.5-82.8
	c-10-37.6-43.2-57.6-80.3-47c-13.3,3.8-26.6,9.4-38.1,16.8c-62,40.1-108.8,90.2-129,165.4c-21.7,80.8-52.1,159.2-78.6,238.6
	C3041.9,2614.5,3041.1,2619.1,3039.7,2624.7z M3050.6,1885.7c17.4-34.5,20-69,9.7-104.4c-10.5-36.2-30.4-67.1-57.4-93.4
	c-75.1-73.4-165.1-121.8-263.2-156.5c-11.1-3.9-22.6-6.8-36.5-10.9c-23.8,41.6-43.7,83.3-59.8,128.7c6.6,3.2,11.6,6.2,17,8.2
	c51.3,19.4,104,35.9,153.8,58.6c85.8,39.1,167.9,84.7,225.9,163C3041.8,1881.2,3045,1882.2,3050.6,1885.7z M1785.2,2063.4
	c0.3-1.7,0.5-3.4,0.8-5.1c11,0,22.2,1.5,32.9-0.3c28.5-4.8,57.2-9.2,84.8-17.3c19.7-5.8,24.4-15.9,17.8-31.4
	c-19.7-46.5-51.2-85.4-102.6-91.8c-65.5-8.1-123.2,17.8-171.7,62.8c-1.4,1.3-2.5,3.1-3.6,4.8c-10.5,16.2-8.8,30.4,7.3,41.5
	c10.5,7.2,22.6,13.8,34.9,16.7C1718.7,2051.1,1752,2056.8,1785.2,2063.4z M1486.2,1745.8c8.3,5.1,16.8,11.8,26.4,15.9
	c49.8,21.3,101.8,27.8,155,17.9c24.2-4.5,48.3-12,70.9-21.7c19.5-8.4,22.1-20.9,9.9-38.7c-24.6-36-58.9-58-103.2-54.8
	c-47.1,3.4-91.9,17.6-131.6,44.5C1501.3,1717.2,1489.2,1726.2,1486.2,1745.8z"/>
<path d="M2147.3,2634.4c51.6-0.4,96.2,45.1,96.4,98.2c0.1,53.7-43.1,98.4-95.7,98.9c-54.2,0.5-98-41.7-98.9-95.3
	C2048,2678.2,2089.9,2634.9,2147.3,2634.4z"/>
<path d="M1354.5,2831.1c-50.4,0.6-96.7-44.5-96.9-94.5c-0.3-54.8,44.4-100.6,97.8-100.4c52.2,0.2,97.6,45.2,98,97.3
	C1453.7,2789.2,1412,2830.4,1354.5,2831.1z"/>
<path d="M1755.7,2970.3c-86.5-1.1-147.6-62.5-157.2-147.3c-0.4-3.9-0.4-8,0.1-12c1.4-11.2,7.7-18.2,19.1-19.8
	c12.1-1.8,19.1,4.5,22,15.5c2.8,10.6,4.7,21.5,6.9,32.3c19.9,96.6,135.5,106.1,187.7,57.7c21.3-19.8,28.6-45,33.7-71.8
	c1.5-7.8,2.4-15.8,4.9-23.4c3.3-10.3,12.1-12.3,21.8-11.8c10.2,0.5,17.6,5,18.8,15.6c1,8.8,1.4,18,0.3,26.8
	C1903.3,2915.3,1841.2,2969.5,1755.7,2970.3z"/>
<path d="M1260.6,2866.1c-3.7,10.6-5.9,22.2-11.5,31.9c-14.8,25.8-30.9,50.9-46.8,76c-12.2,19.2-12.4,19-42,10
	c3.3-10.9,5.2-22.5,10.2-32.6c12.4-24.8,25.8-49.2,39.7-73.3C1224.9,2852.6,1227.4,2852.3,1260.6,2866.1z"/>
<path d="M2329.1,2863c-22.6,40.3-44.1,78.7-66.5,118.6c-6.2-0.6-13.2-0.6-19.7-2.1c-12.3-2.9-15.9-11.1-11.2-22.6
	c4.1-10.1,8.8-20,13.6-29.8c8.4-16.9,17.6-33.4,25.5-50.6C2284.5,2846.8,2290,2844.8,2329.1,2863z"/>
<path d="M1325.1,2882.1c-2.1,7.9-2.3,12.2-4.2,15.5c-13.5,24.4-26.9,48.8-41.4,72.6c-3.3,5.4-10.1,10.2-16.2,12.1
	c-15.1,4.7-25.5-5.5-22.8-21.3c0.7-3.9,1.9-7.9,3.8-11.3c14.1-25.1,28.4-50.2,42.9-75.2c5-8.6,12.4-14.5,22-8.6
	C1315.9,2870.1,1320.7,2877.5,1325.1,2882.1z"/>
<path d="M2330.3,2977.6c-15.6,1.2-25.7-9.2-24.5-20.9c0.5-4.8,2.7-9.6,5-13.9c12-23,23.7-46.2,36.5-68.7c9.1-16,16.3-18.1,28.6-10.9
	c14.8,8.7,17.8,17.3,9.6,31.9c-12.7,22.6-25.9,45-39.8,66.8C2341.2,2969,2333.8,2974.2,2330.3,2977.6z"/>
<path d="M2190.5,2976.5c-32.5-12.7-34.3-16.3-20.8-42.5c10.5-20.4,20.7-40.9,32.1-60.8c3.6-6.3,10.2-14.1,16.3-15
	c7.6-1.1,18.2,2.2,23.6,7.5c3.8,3.7,4,15.5,0.9,21.1C2226.1,2917.2,2208,2946.8,2190.5,2976.5z"/>
<path d="M1126,2982.3c-33-8.9-39-20.3-23.2-47.5c12.5-21.5,26.4-42.2,39.7-63.3c6.1-9.6,14.4-14.4,25.2-8.9
	c12.4,6.2,12.8,16.7,7.3,28c-5.3,10.7-11,21.2-16.6,31.7C1147.6,2942.2,1136.8,2962.2,1126,2982.3z"/>
</svg>
