<?xml version="1.0" encoding="utf-8"?>
<!-- Generator: Adobe Illustrator 24.3.0, SVG Export Plug-In . SVG Version: 6.00 Build 0)  -->
<svg version="1.1" id="Layer_1" xmlns="http://www.w3.org/2000/svg" xmlns:xlink="http://www.w3.org/1999/xlink" x="0px" y="0px"
	 viewBox="0 0 4000 4000" style="enable-background:new 0 0 4000 4000;" xml:space="preserve">
<path d="M1959.2,3611.8c-197.7-2.5-395.1-6.4-592-24.3c-183.6-16.7-366.2-38.4-543.2-93.4c-128.9-40.1-249.1-97.2-352.6-184.8
	c-117.8-99.6-184.3-229.7-214.7-379.2c-26-127.8-20.8-256.3-1.9-384.4c3.9-26.4-0.2-47.2-14.8-70.8
	c-76.8-124.3-69.8-248.8,7.1-370.7c36-57.1,85.7-100.8,142.3-136.4c22.3-14,32.3-31.2,36.3-57.7c17.2-115,52.7-224.7,103.7-329.2
	c82-168,209.2-285.9,386.8-347.6c23.9-8.3,47.2-18,71.2-26c22.2-7.4,35.6-22,44.9-43.4c13.9-31.9,28.5-63.8,46.2-93.8
	c54-91.4,137.7-146.6,234.3-183.4c57.2-21.8,115.5-41.9,174.6-57.5c165.2-43.7,306.1-126.1,420.6-253.4
	c26.6-29.5,52.7-59.5,80.7-87.7c49.2-49.7,105-88,176.9-97.2c51.7-6.6,79.1,11.9,92.2,63.1c9.8,38.4,16.1,78.5,31.6,114.5
	c58.7,136.2,163.2,216.9,308.8,244.4c29.5,5.6,59.3,10.5,88.6,17.2c116.4,26.4,200.1,95.8,257.7,198.6c10,17.8,21.1,35.4,28.7,54.2
	c13.7,33.9,39.2,48.3,73.6,55.7c44.5,9.6,89.4,20.2,131.8,36.5c151.6,58.6,261.6,164.1,334.6,308.4
	c86.2,170.5,141.1,350.1,152,541.8c1,16.9,6.3,29.3,19.4,40.3c34.2,28.9,63.6,62.2,86.1,101.3c45.4,79.1,61.5,161.1,26.9,248.9
	c-12.6,32.1-31.2,60.2-57.9,81.6c-18,14.5-23.1,30.7-22.4,53c4.5,136.7-8.3,271.7-41.8,404.6c-18,71.5-43.4,140-78.5,205.1
	c-64.7,120-161.1,205.4-282.5,264.4c-102.7,49.9-212.1,77.9-323.6,98.5c-183.7,33.9-369,54.9-555.3,65.8
	C2276.7,3598.3,2117.9,3604.3,1959.2,3611.8z M2112.7,507.6c-25,6.4-38.6,22-52.3,36.5c-29.8,31.5-58.8,63.7-87.8,95.9
	c-123.7,137.2-276.9,225.3-454,274.4c-76.5,21.2-153,42.4-223.8,80.1c-78.1,41.7-138.2,99.6-170.7,183.5
	c-6.9,17.9-15.4,35.3-23.8,52.6c-13.6,28.3-34.4,48.7-65.1,58.6c-26.3,8.5-52.2,18.4-78.4,27c-118,38.9-213.9,108.3-287.6,208.3
	c-72.7,98.6-114.5,211-144,328.5c-7.9,31.4-11.8,63.8-16.4,96c-2,14-5.4,32.6,10.8,38.1c9.6,3.3,25.3-3.7,35.2-10.4
	c22.9-15.5,42.6-35.8,66.1-50.1c25.3-15.4,52.3-30.5,80.6-38.1c55.4-14.8,103,13.4,123.3,67.1c11.9,31.4,11.6,63.7,6.8,96.2
	c-4.6,30.9-10.8,61.7-14.4,92.7c-1.8,15.3-1.5,31.5,1.8,46.5c5.6,26,19.9,34.4,45,25.5c17.8-6.3,35.2-15.7,50.6-26.8
	c35.1-25.3,68.6-52.9,103.3-78.9c37.1-27.8,78.2-46.7,123.9-55.8c89.1-17.8,167.6,18,207.3,99.3c15.7,32.1,24.4,67.6,35.9,101.7
	c14.5,43.3,24.2,88.7,43.7,129.6c38.4,80.5,117.2,103.2,193.3,56.8c35.7-21.7,67.1-50.5,100-76.7c39.5-31.5,76.6-66.2,117.8-95.2
	c76.6-53.9,162.3-75.5,256.4-64.1c75.5,9.2,139,43.9,199.6,86.6c26.5,18.7,53.3,37.2,81.1,53.8c44.5,26.4,88.8,22.1,127.1-11.2
	c22.4-19.4,39.8-44.7,58.4-68.1c20.2-25.4,36.9-53.9,59.2-77.2c63.5-66.6,141.1-80.6,223.6-40.1c30,14.7,57.1,35.3,85.1,53.9
	c19,12.6,36.3,28,56.1,39.3c37.7,21.5,63,14.2,83.9-23.3c10-17.8,17.2-37.1,26.5-55.3c14.3-27.8,26.4-57.2,44.5-82.3
	c52.9-73.2,126.1-103.5,214.6-85.1c38.1,7.9,74,27.2,110.6,42c23.3,9.5,45.4,22.9,69.4,29.9c32.5,9.6,45.5-2.6,42.4-36.2
	c-3.4-35.9-6.8-71.9-12.2-107.6c-23.7-157.5-71.4-306.6-156.8-442.4c-69.8-110.9-164-191.3-289.6-232
	c-34.2-11.1-69.5-19.4-104.8-26.6c-52.2-10.7-89.1-39.2-112.5-86.9c-12.2-24.8-26.6-48.5-40.5-72.5
	c-43.9-75.8-107.9-124.6-193.9-144.3c-45.7-10.4-91.4-21.2-136.6-33.7c-106.9-29.5-193.7-88.7-259.7-178.3
	c-37.7-51.2-61.9-108.4-79.1-169.1c-4-14.1-9.8-27.6-16.8-47c-9,13.1-15.3,19.1-18,26.5c-32.8,90.3-33,179.2,14,265.2
	c35.6,65.1,88.3,113.4,151.4,151.4c10.3,6.2,21.3,12.1,29.3,20.6c4.6,4.9,7.2,16.5,4.5,22.1c-2.5,5.1-13.5,9.1-20.4,8.5
	c-9.1-0.8-18.6-5.2-26.6-10.3c-23.4-14.8-47.2-29.2-68.8-46.3c-110.6-88-157.3-203.2-142.4-343.3
	C2101.6,561.5,2107.6,536.2,2112.7,507.6z M347,2547.1c-1.2,2.2-3.1,4.2-3.4,6.4c-15.7,104-21.3,208.1-6.5,312.8
	c15.8,111.9,53.7,213.8,126.5,302.2c73.9,89.7,167.8,150.3,273,195.7c120.1,51.9,246,83,375,102c196.7,28.9,394.8,45,593.4,47.6
	c193.7,2.5,387.6-0.6,581.2-7.7c181.5-6.7,362.6-24.2,542.6-49.8c132.4-18.8,263.1-44.8,388.9-92c169.1-63.4,285-178.7,346.5-349.1
	c48.5-134.3,59.5-274.4,66.3-415.2c0.2-5.1-2.9-10.3-5.4-18.4c-15.5,8.1-28,14.9-40.8,21.2c-45.7,22.2-91.9,41.4-144.4,40.4
	c-37.5-0.7-70.3-15.3-103.2-29.9c-60.8-27.1-92.2,12.4-94.5,59c-1.2,23.9,0.8,48,2.5,72c3.4,49.2,10.4,98.2,10.7,147.4
	c0.4,52.4-12.7,102.6-43.6,146.6c-37.9,53.8-91.4,73.6-154.4,65.1c-60.8-8.3-99.2-46.4-117.3-103.9c-6.8-21.5-10.9-44.8-11-67.2
	c-0.1-42,2.5-84.2,6-126.1c3.1-37.7,2.6-74.6-10-110.5c-14.9-42.6-46.7-57.3-88.5-40.3c-15.4,6.3-30.3,15.1-43.5,25.2
	c-24.8,19-47.8,40.3-72.5,59.5c-23.7,18.4-47,38-73,52.5c-53.2,29.9-109.2,35.6-166.2,9.3c-19.7-9.1-39.9-17.2-58.8-27.7
	c-39.2-21.8-76-18.3-111.6,7.4c-12.7,9.1-25.2,18.5-37.5,28.1c-19.9,15.6-38.7,32.8-59.4,47c-86.1,59-180.6,63.6-251.5-29.6
	c-10.8-14.2-24.9-26-38-38.5c-21.4-20.5-46.5-24.7-73.4-13.2c-21,8.9-41.2,19.7-61.7,29.8c-24.8,12.2-48.7,26.9-74.5,36.2
	c-55,19.8-109,18-158.1-17.8c-21.4-15.6-42.8-31.3-62.1-49.4c-35.8-33.6-74.6-40.6-119.3-20.4c-34,15.3-68.1,30.5-103.1,43.1
	c-89.7,32.4-170.2,16.2-240.7-48.9c-15.9-14.7-33.6-27.3-49.8-41.6c-24.6-21.8-51.2-22.5-80.7-11.3c-28.1,10.6-56.6,20.6-85.5,28.7
	c-34.3,9.5-68.9,8.3-103.1-2.5c-45.4-14.3-80.2-42.6-108.6-79.9c-20.4-26.8-40.2-54.1-61.8-79.9c-14.2-17-32.2-28.6-56.5-26.3
	C440.6,2539.4,395.2,2543,347,2547.1z M2999.9,2900.7c2,19,1.7,49.7,9.2,78.3c14.7,55.9,72.8,75.1,120.4,42.2
	c25-17.3,38.7-42.5,45.6-71.4c10.7-45,11.5-90.6,6.1-136.4c-3.1-26.3-6.9-52.5-9.5-78.9c-4.1-41.1-2.9-81.8,11.5-121.2
	c22.5-61.4,74.8-92.9,139.2-81.8c18.7,3.2,37.7,9.3,54.4,18.2c54.8,29.4,106.4,20,158-8.1c57.7-31.4,106.9-73.7,154-118.6
	c26.4-25.2,38.4-57.1,38.3-94.2c-0.1-69.6-33.7-123.6-76.7-174.3c-15.4-18.2-30.3-24.1-53.2-15.6c-42,15.7-83,8.7-122.4-10.5
	c-22.7-11.1-44.7-23.6-67.7-34c-18.6-8.4-37.6-16.4-57.3-21.3c-66.2-16.4-122.3,6.5-158,64.8c-12.5,20.4-20.9,43.2-31.3,64.9
	c-9.3,19.5-17.2,39.9-28.3,58.4c-43.1,72.1-108.8,90.6-181.5,49.2c-30.1-17.1-56-41.6-85.6-59.9c-26.3-16.3-54.4-29.9-82.8-42.4
	c-30.5-13.5-60.4-5.7-84.7,14.2c-21.1,17.2-39.1,38.7-56.1,60.3c-22.3,28.3-40.2,60.3-63.6,87.5c-60,70-141,87.5-224.9,49.8
	c-22.9-10.3-44.1-24.5-65.2-38.2c-20.2-13.1-38.9-28.5-59.1-41.5c-42.7-27.6-87.2-51.2-138.1-59.9c-77.2-13.2-146.3,9.7-207.8,53.3
	c-48.9,34.6-92.4,76.9-139.8,113.8c-33.1,25.8-66.5,52.5-103.6,71.3c-91.9,46.7-196.8,20.5-256.4-64c-21.1-29.9-36-65.2-48.4-99.9
	c-13.3-37.2-19.4-77-30.4-115.1c-6-20.6-13.4-41.5-24.3-59.8c-22.7-38.2-57.2-56.2-102.8-54c-38.9,1.9-72.8,15.5-103.3,38.2
	c-27,20.1-51.9,43.2-79.5,62.4c-29.4,20.6-58.9,43.1-91.7,56.2c-84.9,34-152.6-7.7-163-98.9c-2.8-24.5,2.2-50.2,5.2-75.1
	c4-33.4,11.3-66.5,13.9-100c3-39.2-25.4-58.6-60.9-42.1c-18.3,8.5-34.9,21.1-51.5,32.9c-17.6,12.6-33.7,27.4-51.5,39.6
	c-42.6,29.2-86.8,41.6-134,9.3c-11-7.5-22.3-8.6-33.5-0.4c-70.7,51.6-130.2,112-146.5,202.3c-11.4,63.4-6,124.6,34,179.2
	c18.5,25.3,41.3,40.1,73.1,37.8c24-1.7,47.9-3.9,71.8-6.7c70.3-8.4,124.6,17.3,164.3,75.4c13.6,19.9,27,39.9,41.7,59
	c37.8,48.9,88,65.8,147.3,49.1c23.1-6.5,45.8-14.6,68.3-23.2c55.8-21.3,106.1-12.9,151.5,26c20.1,17.3,40.6,34,60.8,51.1
	c47.6,40.4,100.6,48.7,158.5,26.4c22.4-8.6,44.3-18.8,66.7-27.5c19-7.4,38.2-14.7,57.7-20.6c48.8-14.8,95.6-8.8,138.5,18.4
	c19.2,12.2,36.6,27.2,53.8,42.1c59.3,51.3,86.6,54.7,155.8,17.6c9.5-5.1,18.4-11.4,27.9-16.6c16.9-9.3,33.5-19.1,51-27
	c79.6-35.8,131.9-25.9,192.4,36.3c15.1,15.5,29.5,31.7,43.9,47.9c25.9,29.2,57.3,35,91.3,18.4c23.6-11.5,45.8-26.2,67.5-41.1
	c28.7-19.8,55.1-43.1,84.5-61.6c51.6-32.5,105.9-37,161.1-7.9c12.8,6.7,26.2,12.5,38.3,20.3c50.2,32.6,98.5,25.3,144.9-6.9
	c23.6-16.4,44.7-36.6,68-53.5c34-24.6,66.6-52.8,104-70.7c84.7-40.7,162.6-5.5,192.9,83c15.4,45.1,18.3,91.8,14.7,139.1
	C3005,2839.2,3002.8,2864.3,2999.9,2900.7z"/>
<path d="M1324.3,1432.2c-21-4.1-43.2-5.2-62.7-12.9c-48.9-19.4-62.4-75.3-28.6-115.4c9.8-11.6,22.3-22.5,35.8-29.2
	c45.5-22.6,94-26.1,143.6-16.5c5.8,1.1,11.5,3.5,17,5.8c26.6,11.6,48.6,28.8,52.1,59.2c3.6,31.3-11.1,58.3-37.6,72.6
	c-26.8,14.5-57.4,22.3-86.8,31.5c-10,3.1-21.4,1.6-32.2,2.2C1324.7,1430.3,1324.5,1431.3,1324.3,1432.2z M1324.2,1384.4
	c34.8-2,70-3.2,99.2-26.3c24.4-19.3,22-42.8-5.4-56.5c-36.8-18.5-125.6-1.6-152.6,29.1c-12,13.6-11.6,25.2,1.6,37.5
	C1283.2,1383.4,1303.2,1385.8,1324.2,1384.4z"/>
<path d="M1745.1,970.8c38.2-1.4,64.7,17,81.3,49.3c13.4,26.1,3.5,61.6-24.2,87.6c-41,38.4-90.1,58.8-146.5,58.2
	c-28.6-0.3-54.9-8.4-68.8-37.2c-14.4-30-10.1-58.9,8.8-84.9C1632.4,993.4,1685.6,975.1,1745.1,970.8z M1657.1,1123.8
	c49.2-2.7,85.6-19.2,117.3-46.4c12.6-10.8,19.4-24.8,13-41.6c-6.3-16.6-20.6-24.1-36.9-23.6c-44.6,1.2-84,17.1-116.1,48.5
	c-11.8,11.6-17.6,27.1-9.6,42.6C1632.5,1118.1,1646.7,1124.9,1657.1,1123.8z"/>
<path d="M1691,1739.6c-8.8-1.7-22.2-2.6-34.4-7c-44.6-16.2-62.9-62-38.2-102.3c12.1-19.8,30.8-36.7,49.4-51.1
	c28.2-21.7,62.4-30.5,97.5-34.2c40.8-4.2,74.2,13.7,89.4,47c14.8,32.4,5.4,69.1-26.9,96.8C1790,1721.3,1744.8,1735.7,1691,1739.6z
	 M1703.3,1695.3c30-2.9,64.8-14.7,95.1-37.6c18.4-13.9,25-34,18.5-50.2c-5.9-14.8-22.5-24.2-45.3-21.5c-37.4,4.5-71.9,17.9-101.4,42
	c-15,12.2-22.8,28.1-16.3,47.7C1660.8,1696,1678.4,1695.6,1703.3,1695.3z"/>
<path d="M900.2,1833.8c-66.4,0-146.4-74.7-151.5-141.4c-4.3-55.6,45.1-99.4,97.7-81.7c64,21.5,108.3,66.8,126.2,132.6
	C986.6,1794.7,953.2,1833.8,900.2,1833.8z M935.3,1758.1c-1.2-4.8-1.9-13.5-5.4-20.9c-17.2-35.7-42-64.4-79.2-80.1
	c-17.3-7.3-35.3-9.3-50.5,5.3c-12.5,12.1-13.6,32.1-2.3,53.7c17.4,33.1,45,56.2,78,72.2c10,4.9,23.5,5.3,34.9,3.8
	C927,1790,935.5,1778.6,935.3,1758.1z"/>
<path d="M3155.7,1751.5c-35.6,0.1-59-8.5-73.8-34.8c-15.3-27-13.4-53.7,2.6-78.5c36.1-55.8,90.2-81.8,154.9-84.9
	c36.2-1.7,69.7,21.6,79.7,51.6c11.1,33.4-0.4,62.2-24.5,85.2C3254.1,1729.1,3204.5,1748.5,3155.7,1751.5z M3157,1710.4
	c41.4-5.1,78.3-20.5,109.3-48.9c17.5-16.1,22.3-32.6,14.8-47.7c-9.3-19-26.5-23.8-45.4-21.6c-44.5,5.2-82.4,24.1-110.9,59.3
	c-9.2,11.4-15.1,24.1-7.3,39.7C3125.9,1708.3,3140.4,1710.5,3157,1710.4z"/>
<path d="M2597.3,1166.5c55.8,1.3,133.4,60.2,150,113.9c13.2,42.8-10.2,83.3-53.9,93.3c-63,14.4-165.8-55.8-175.2-119.7
	C2510.7,1203.6,2545.4,1165.3,2597.3,1166.5z M2707.9,1303c-1.2-40.4-66-94.3-111.2-93.3c-14.7,0.3-29.2,2.1-37.1,17.2
	c-8,15.2-0.8,28.5,7.5,40.2c20.7,29,47.9,50.9,81.4,62.9c11.7,4.2,26.2,3.7,38.7,1.4C2701.4,1328.7,2709.3,1317.7,2707.9,1303z"/>
<path d="M2425,1876c-59.9-0.1-133.6-51.7-153.6-107.7c-18.3-51,17.1-102.1,71.1-102.7c61.6-0.7,143.5,64.1,156.9,124.1
	C2509.9,1836.9,2476.2,1876.1,2425,1876z M2459.5,1794.2c-1.9-4.3-4.6-13.6-9.6-21.6c-19.8-32.2-49.6-52.1-84.4-64.4
	c-21.4-7.5-43.8-1.8-52.5,12.2c-11.3,18.2-5.4,37.9,6.7,50.2c21.7,21.9,46.7,40.9,72.5,57.9c9.8,6.5,25.7,6.1,38.5,5.2
	C2450.5,1832.4,2460.2,1819.2,2459.5,1794.2z"/>
<path d="M1609,3050.1c-1.1,75.3-65.1,140.1-136.7,139.9c-84-0.2-139.1-77.4-137.7-138.6c1.7-72.3,58.7-140.8,132.7-137.6
	C1551.5,2917.6,1610.1,2972.3,1609,3050.1z M1511.5,3040.8c23.4-0.4,39.4-13.9,39.1-33.3c-0.3-21.5-18.6-40.8-38.1-40.2
	c-20.6,0.7-37.1,19.5-36.2,41.5C1477.1,3029.9,1489.5,3041.1,1511.5,3040.8z"/>
<path d="M2352.9,2916.7c75.6-0.4,136.1,58.1,137.3,132.7c1.2,76.8-59.2,138.9-139.9,137.3c-73-1.4-130.6-54.7-131.8-134
	C2217.5,2977.8,2279,2917.1,2352.9,2916.7z M2400.8,3046.4c24.5,0.7,38.3-10.6,38.6-31.5c0.4-21.9-15.8-39.6-36.7-40.2
	c-20.3-0.6-35.3,14.3-36.1,35.7C2365.8,3032.9,2378,3045.8,2400.8,3046.4z"/>
<path d="M1924.5,3264.1c-87.4-0.1-154.1-43.8-179.8-116.6c-3.2-8.9-6.4-18.7-5.8-27.9c0.4-7.1,5.1-17.4,10.6-19.7
	c5.8-2.5,17.2,0.5,22.1,5.3c7.4,7.2,12.6,17.5,16.6,27.4c31.8,78.4,152.8,115.5,235.2,40.2c8.5-7.8,14.2-19.1,20.1-29.4
	c3.5-6.1,4.6-13.6,7.3-20.3c8.6-20.7,19.6-28.1,34.4-23.8c15.3,4.5,20.9,16.5,15.6,38.3c-9.5,38.7-29.8,70.6-62.9,93.6
	C2002.9,3255.3,1964,3265.1,1924.5,3264.1z"/>
<path d="M1374.4,3326.9c-13.7-1.7-37.7-3.7-61.2-7.9c-12.8-2.3-25.3-7.4-37.2-12.9c-19.5-8.9-34.6-22.9-35.7-45.7
	c-1.1-24.9,15.3-39.4,35.4-49.5c10.6-5.3,22.1-9.7,33.6-12.2c57.4-12.8,114.3-9.3,170.5,7.2c3.4,1,6.7,2.7,10,3.9
	c20.8,7.7,35.5,21.7,36.6,44.4c1.2,24-12.5,40.9-33.6,50.8C1458.7,3321.1,1422.1,3326.5,1374.4,3326.9z M1278.8,3259.1
	c24.1,31.3,59.6,26.2,91.9,26.9c39.5,0.8,80.5,3.5,116.4-23.1C1444.8,3218.9,1317.6,3217.8,1278.8,3259.1z"/>
<path d="M2463.9,3184.4c34.2,2.8,65.7,9.6,95.5,24.1c18.1,8.8,32.6,21.2,32.5,43.6c0,22.6-9.9,40.3-31,48.7
	c-70.6,28.2-142.3,33.9-214.5,6.2c-21.1-8.1-38.1-22.4-38.2-47.6c-0.1-26.7,17.4-43.8,40-50.2
	C2386,3198.3,2425.2,3192.4,2463.9,3184.4z M2344.8,3262c12.2,6.9,21.5,15.5,32,17.5c53.6,10.3,107.1,10.1,158.8-10
	c7.3-2.8,11.9-12.6,17.7-19.1c-7.1-5.5-13.5-13.9-21.5-16.1c-42.2-11.7-84.9-10.8-127.9-3C2383.6,3234.9,2364.1,3239,2344.8,3262z"
	/>
</svg>
