<?xml version="1.0" encoding="utf-8"?>
<!-- Generator: Adobe Illustrator 24.3.0, SVG Export Plug-In . SVG Version: 6.00 Build 0)  -->
<svg version="1.1" id="Layer_1" xmlns="http://www.w3.org/2000/svg" xmlns:xlink="http://www.w3.org/1999/xlink" x="0px" y="0px"
	 viewBox="0 0 4000 4000" style="enable-background:new 0 0 4000 4000;" xml:space="preserve">
<path d="M740.4,1896.3c-10.5-47.2-0.1-86.3,23.5-122.8c24.6-38.1,61.3-55.1,106.2-58.8c2.8-100.4,51.1-157.3,151.9-163.3
	c4.6-48.6,19.5-89.9,56.4-120.9c37.6-31.6,81.4-34.4,130.6-26c13.5-48.4,31.9-93.1,80.1-115.3c46-21.1,92.7-26.1,141,1.7
	c24.1-38.8,53.6-68.6,98.5-78.3c44.2-9.5,84.9-2.5,123.5,27.1c32.7-44.8,73.8-73.4,130.1-72.3c54.5,1.1,100.5,20.2,133.1,68.8
	c95.5-44.6,171.1-23,226,69.4c48.9-16.3,97.4-22.9,145.5,4.6c47.8,27.4,65,74.9,83.2,121.3c23.7,5.1,33.9-7.7,41-25.2
	c25.2-62,50.9-123.8,75.4-186C2571,1006,2655.2,791.6,2739.2,577c24.8-63.3,48.3-127.2,72.5-190.7c4.3-11.3,8.3-22.7,13.1-33.7
	c21.7-49.4,60.8-69.3,112.1-54.3c21.9,6.4,43.4,16.1,63.1,27.6c46.3,27,59.1,68.1,36.5,118.1c-43.8,97-88.4,193.7-133.3,290.2
	c-113.8,244.8-227.6,489.6-342.4,733.9c-19.1,40.5-19.5,79.4-3.9,126.2c11-10.6,20.5-17.4,27-26.4c39.8-55.2,79.5-110.4,118.2-166.4
	c142.2-205.9,284.1-412,425.9-618.3c49.8-72.4,98.8-145.2,148.2-217.8c7.4-10.9,14.4-22.2,22.8-32.2c24.6-29.1,64.3-41.3,98.1-24
	c29.8,15.3,58.8,34.8,83,57.9c33.7,32.1,34.2,71.1,4.7,109.7c-52.6,69-106.8,136.6-160,205.1c-158.2,203.7-316.5,407.4-474.3,611.5
	c-50.4,65.1-99.5,131.2-148.8,197.1c-8.3,11.1-14.6,23.7-23.3,38.1c11.2,6.1,19.5,10.7,27.7,15.2c45.7,25,79.4,58.7,82.8,114.3
	c0.8,13.5,7,22.2,19.2,28.1c33.9,16.4,60,39.8,70.1,78.1c4.2,16,17.4,23.2,32.8,29.2c46.1,17.9,90.1,39.9,129.8,70.2
	c42.8,32.7,63.2,74.1,58.6,128.3c-9.8,115-28.3,228.8-54.2,341.1c-27.6,120-63.8,237.6-118.5,348.3
	c-95,192.3-228.2,351.1-416.6,458.6c-41.8,23.9-85.7,44.4-129.6,64.4c-20.6,9.4-31.6,20.7-28.8,44.7c1.9,16.2-1.2,32.8-1.6,49.3
	c-1,45.3-23.7,75.2-66.4,87.5c-50.5,14.5-101.3,29.5-153,38.1c-167.3,28.1-336,36.6-505.4,26.8c-118.5-6.9-236.3-19.4-350.9-52.3
	c-17.8-5.1-35.4-11.8-52.4-19.3c-38-16.7-56-47.7-59.3-88c-1.2-15.3-2.1-30.8-1-46.1c1.3-19.3-7.1-29.9-24-38.3
	c-45.2-22.4-90.7-44.5-134-70.2c-168.4-100.2-296.1-239.1-387.7-411.9c-75.8-142.9-125-294.9-151.8-453.9
	c-15.3-90.8-23.9-182.7-36-274c-8.6-64.7,19.4-111.2,73-142.9c34.8-20.6,71.3-38.7,108.3-55c22.9-10.1,42.3-21.3,55.2-43.8
	C681,1926.5,707.2,1908.5,740.4,1896.3z M490.7,2293.1c0,13.9-1.2,24.6,0.2,34.9c22.5,165.9,57.3,328.6,124.8,482.9
	c85.3,194.9,212.9,355.1,392.2,471.4c148.4,96.3,313.7,144.4,488.2,164.8c125.8,14.7,251.9,16.3,378.1,11.6
	c164.4-6.2,324.6-32.6,477.9-96.9c120.1-50.4,227.1-119.6,320.1-209.9c146.2-142,235.9-317.5,295.4-510.1
	c30.2-97.7,49.2-197.9,65.9-298.5c2.6-15.8,4.5-31.8,7.7-54.9c-15.3,8.5-24.5,13.5-33.7,18.5c-25,13.7-49.3,28.8-75,40.9
	c-75.8,35.8-155.7,59.6-237.3,77.3c-275.4,59.9-554.2,89.2-835.9,92.8c-218.7,2.8-436.7-5.9-654-31.8
	c-151.6-18-302.2-40.9-449.8-80.5c-87.1-23.4-172-52.9-247.3-104.7C503.9,2298.2,498.8,2296.8,490.7,2293.1z M2315.3,1499.7
	c-0.7-21.5-2.1-36.5-1.5-51.4c0.8-22.7-3.4-43.4-17-62.2c-35.4-48.7-87.9-58.5-142-26.1c-43.6,26.1-43.6,26.1-58.6-21.7
	c-24.1-76.8-103.2-99.2-164.2-46.4c-5,4.3-9.4,9.3-14.7,13.1c-14.7,10.5-23.1,8.6-31.3-7.5c-4.9-9.8-7.8-20.6-13.2-30.1
	c-18.8-33.3-47.1-50.8-86.1-50.1c-38.9,0.7-70.9,13.3-89.3,50.2c-4.4,8.8-7.8,18.1-12.4,26.9c-11,21.2-20.6,23-37.6,7.2
	c-6.4-6-12-12.9-18.8-18.4c-58.2-47.4-135-24.3-157.3,47.2c-1.6,5.2-2.8,10.7-5.1,15.6c-6.2,13.5-16.1,17.1-29.1,10.3
	c-4.7-2.5-8.6-6.7-12.8-10.1c-41-32.9-98.5-31.1-134.5,5.9c-23.4,24.1-32.1,53.5-28.6,87.6c3,28.6-7.3,35.7-34.9,27.8
	c-15.8-4.5-31.1-11.8-47.1-14c-77-10.6-123.2,65.8-98.3,116.2c1,2,1.7,4.1,2.2,6.2c6.5,24.5,0.2,31.8-26.1,29.9c-12-0.9-24-3.2-36-3
	c-66.5,1.2-107.6,49.2-96.8,112.5c1.3,7.5,4.6,14.7,6,22.2c4.2,22-0.2,28.2-22,30.3c-15.3,1.5-30.8,0.8-46,2.6
	c-37.7,4.5-61.7,27.2-70.3,63.7c-5.8,24.7-1.7,47.3,9.1,70.1c9.5,20.2,5.6,26.9-15.5,33.8c-10.4,3.4-21.4,5.1-31.7,8.7
	c-36.2,12.4-59.7,35.6-63.9,75.5c-2.9,27.3,0.9,51.9,19.1,74.1c24.2,29.6,22.4,35-11.9,53.6c-6.7,3.7-13.7,7.1-20,11.4
	c-24,16.6-22.5,32.7,3.9,46.1c3.9,2,8,3.8,12.1,5.1c53.4,16.4,106.4,34.8,160.5,48.5c178.3,45,360.4,64.9,543.2,78.8
	c73.3,5.6,146.9,7.3,220.4,10c163.6,6,327.1,2.4,490.4-7.4c128.2-7.7,255.7-22.8,382.5-42.9c94.3-15,188.2-32.4,278.4-64.6
	c29.8-10.6,58.8-24.3,86.5-39.6c24.3-13.4,24.2-27.2,2.8-45.8c-10.7-9.3-23.2-16.7-34.1-25.8c-18.3-15.2-19.6-24.2-7.8-45.3
	c4.8-8.6,10.8-16.6,15.1-25.5c23.7-49.5-1.2-111.5-50.9-127.2c-16.4-5.2-39.5-5.7-47.5-17c-8-11.4-1.5-33.3-0.6-50.6
	c1.8-34.1-10.6-54.6-42.7-65.1c-14.3-4.7-30-5.4-45.2-7.3c-14.7-1.8-21.6-9.2-19.8-24.2c0.7-5.4,0.5-11.1,2-16.3
	c15.9-53.5-44.9-109.9-95.9-99.7c-13.3,2.7-27.6,0.4-46.5,0.4c4.6-23.1,8.7-41.9,12-61c8.9-51.6-28.6-100.4-80.9-102.9
	c-18.2-0.9-36.8,4-55,7.1C2347.2,1491.3,2334.9,1495,2315.3,1499.7z M636.4,2044c-58.7,16.1-106.4,43.4-146.9,83.5
	c-21.5,21.3-24.3,45.2-10.6,72.1c14,27.4,36.4,46.4,60.7,63.6c57.4,40.5,122.9,63.2,189.5,82c149.1,42,300.8,70.7,454.7,89.3
	c186.7,22.6,374,34.9,561.8,33.7c148.1-0.9,296.2-9.1,444.1-18.8c151.2-9.9,300.8-34,449.2-64.3c96.8-19.8,192-45.9,282.3-87.3
	c38-17.4,74.6-37.6,104.6-67.5c35.7-35.5,37-72.7,3.9-110.6c-7.2-8.2-15-16.7-24.3-22c-31.3-18.1-63.1-35.2-95.2-51.8
	c-10.9-5.6-23.7-9.4-30.9,6.1c-6,13.1-6,24.6,8,34.3c11.5,8,22.4,17.9,31.2,28.8c29.7,37,24.8,81-12.7,109.7
	c-15.5,11.9-33,21.8-50.6,30.4c-65.6,31.8-136,49.1-206.7,65.2c-132.8,30.3-267.4,49.9-403.2,59.7c-128.1,9.2-256.2,20.4-384.5,23.2
	c-282.6,6.2-563.8-15.7-843.3-57.4c-108.6-16.2-215.8-39.8-318.9-79c-20.5-7.8-41.1-15.7-60.5-25.8c-47.5-24.8-57.2-69.6-25.2-112.7
	c5.2-7,11.2-13.8,18.1-19c15.4-11.6,19.7-25.1,11.6-42.9C639.9,2060.7,639.1,2054.1,636.4,2044z M2661.6,1652.3
	c8.1-9.1,15.6-16.8,22.2-25.3c17.5-22.5,34.4-45.5,51.9-68c231.2-297.1,462.6-594.1,693.8-891.2c5.4-6.9,11-13.7,15.7-21.1
	c12.7-20.1,12.9-26.7-3.5-43.4c-13.8-14-28.8-27.2-45-38.3c-30.8-21.1-46.6-18.2-69,12.6c-23.2,31.9-44.9,65-67.2,97.6
	c-122.5,179.5-244.5,359.3-367.4,538.5c-83.8,122.2-168.9,243.4-252.9,365.5C2613.1,1618.7,2614.6,1622.4,2661.6,1652.3z
	 M2504.4,1469.9c6.1-10.8,11.9-19.6,16.3-29.1c31.8-68.7,63.1-137.6,95-206.2c106-227.7,212.3-455.2,318.4-682.8
	c19.9-42.7,39.8-85.5,58.3-128.8c10.3-24.1,7.6-37.4-14.2-50.9c-20.1-12.4-43.1-21-65.8-27.9c-17.5-5.3-32.2,3.3-40.1,20.6
	c-5,11-9.6,22.1-14,33.4c-26.1,67.5-51.6,135.2-78.1,202.6c-105.5,268.5-211.2,536.8-316.8,805.2c-3.9,9.9-6.9,20.2-10.6,30.8
	C2470.6,1448.2,2486,1458.1,2504.4,1469.9z M1207.5,3438.2c1.1,17.9,1.7,33,3.1,47.9c2.3,25.4,15.3,43,39.5,51.6
	c20.6,7.3,41.1,15.4,62.2,21.2c72.2,19.9,146.3,28.2,220.7,35.3c214.5,20.4,427.6,12.8,638.9-30c34.2-6.9,67.5-18.8,100.9-29.4
	c13.9-4.4,26.8-12.5,27.6-29.3c1-21.5,0.2-43.1,0.2-64.7C1936.1,3538.3,1574.5,3534.7,1207.5,3438.2z"/>
<path d="M2796.6,2885.4c-6.7,14.5-11.3,26.8-17.9,37.9c-54.5,92.5-121.4,174.8-205.1,242.5c-29.8,24.1-61.8,45.4-93.6,66.9
	c-10.7,7.3-23.4,12.2-35.7,16.4c-10.3,3.5-21.1,0.1-24.2-10.9c-2.3-8.4-2.4-19.8,1.7-26.8c4.5-7.8,14.5-13.1,22.9-17.9
	c125-71.8,220.7-172,289.9-298.1c4.7-8.6,9.4-18.6,17.1-23.6c7.1-4.6,18.7-6,27-3.9C2785.5,2869.6,2790.3,2878.8,2796.6,2885.4z"/>
<path d="M1384.8,2984.4c-45.8-0.8-84.6-41.3-84-88c0.5-46,43.2-89,88.3-88.9c46.7,0.1,86.8,41.1,86.9,88.9
	C1476,2945.5,1434.8,2985.3,1384.8,2984.4z"/>
<path d="M2037.1,2894.7c1.6-47.8,44-88.7,89.8-86.3c47,2.4,82.5,41.5,81.5,89.7c-1.1,49.8-39.3,86.7-88.7,85.6
	C2073.9,2982.7,2035.6,2941.4,2037.1,2894.7z"/>
<path d="M1745.4,3091.9c-63.5-0.6-115.6-40-130.7-107.5c-1.6-7.3-2.9-15.3-1.6-22.5c2-11.4,8.6-20.2,21.4-21.5
	c12-1.2,17.8,6.3,21.7,16.2c4,10.2,7.4,20.6,11.8,30.6c17,38.5,48.1,56.1,88.8,55.5c45.7-0.7,74.6-22.3,89.5-63.7
	c3-8.2,5.3-16.7,7.9-25c4.6-14.6,15.4-17.4,28.6-14.5c12.6,2.7,18.3,11.5,17.6,24c-1.6,28.2-11.9,53.5-29.5,75.2
	C1841.4,3074.8,1803.2,3093.2,1745.4,3091.9z"/>
<path d="M2858.5,2747.6c-9.1,17.2-17.1,35-27.8,51.2c-6.5,9.9-18.4,12-29.3,5.8c-10.9-6.1-14.8-15.9-10.1-27.9
	c5.9-15.2,11.8-30.6,18.9-45.3c5.7-11.9,15.2-19.1,29.2-14C2852.4,2722.3,2857.4,2732.4,2858.5,2747.6z"/>
<path d="M1022.1,1915c48.1,2.6,88.3,29.8,104.3,73.8c3.3,8.9,3.8,19.3,3.7,28.9c-0.1,12.6-8.6,21.9-20.2,21.6
	c-7.9-0.1-17.3-6.7-23.1-13.1c-5.5-6.1-6.7-16-10.8-23.7c-18.6-35-54.3-45.6-89.2-26.7c-29.8,16.1-38.9,56.6-19.1,88.5
	c7,11.3,17.9,21.5,2.4,33.5c-13.7,10.7-33.8,6-45.7-10c-38.3-51.3-11.3-140.4,49.9-162.4C989.5,1919.9,1006.1,1918.4,1022.1,1915z"
	/>
<path d="M2552,1982.6c86.1-0.3,126.3,108,90.9,168.4c-5.8,9.9-14.8,19.3-24.6,24.9c-5.8,3.3-18.4,1.4-23.6-3.1
	c-5.1-4.4-6.5-15.3-6-23.2c0.5-7.1,5.7-14,8.9-20.9c16.3-36.4,6.4-68.1-27.2-86.7c-26.6-14.7-64.2-4.7-84.3,22.8
	c-4.5,6.1-6.4,14.8-11.9,19.4c-6.8,5.6-16.3,11.6-24.4,11.2c-12.7-0.6-18.1-12.4-16.9-24c1.1-10.6,3.9-21.8,9.1-31
	C2464.5,2000.7,2499.3,1981.7,2552,1982.6z"/>
<path d="M1369.3,1836.9c6.1,14.8,11.9,29.8,18.5,44.5c7.9,17.6,0.2,30-19.3,29.8c-19.1-0.3-29.7-12.7-36.9-28.3
	c-20.1-43.2-12.1-84,15.1-120.7c26.8-36,65.7-47.5,108.2-39.6c42.3,7.9,73.6,32.8,88.7,74.7c2.2,6,3.4,12.8,3.1,19.1
	c-0.7,12.8-10.1,18.7-21,22.4c-12.2,4.2-18.2-3.4-23.1-12.7c-4.6-8.7-8.1-18.1-13.6-26.2c-17.1-25.1-46.9-34.6-75.3-25
	C1386.9,1784.3,1372.5,1805.6,1369.3,1836.9z"/>
<path d="M2360.3,1838.5c-7.4,21.3-13.7,43.2-22.9,63.7c-3.6,8.1-12.8,16.8-21.1,19c-9.1,2.5-22.6,0.8-29.4-4.8
	c-4.7-3.9-2.7-18-0.7-26.8c1.6-7,8.3-12.7,12-19.4c17.5-32,7.4-70.9-22.7-89.1c-27.5-16.6-62.7-8-83.9,21
	c-4.5,6.2-6.4,14.8-11.9,19.4c-6.8,5.6-16.3,11.5-24.4,11.2c-12.5-0.5-19.1-11.7-17.6-23.5c1.5-11.5,5-23.8,11-33.6
	c26.4-43.3,80.5-63,128.7-48.4C2323.2,1740.9,2356,1786.8,2360.3,1838.5z"/>
<path d="M1914.4,1668.8c0.3,22.2-6.6,34.4-22.2,39.6c-15.4,5.1-25.4-0.9-27.4-17.4c-0.9-7.5,0.2-15.3-0.3-23
	c-2.5-37.1-27-64.5-59.9-67.2c-35.7-2.9-61.4,16.4-71.3,54c-1.7,6.3-2.9,12.8-4.2,19.3c-2.3,11.7-6.9,21-20.9,20.7
	c-13.8-0.3-23.2-7.3-25.9-20.7c-1.6-8.4-1.5-17.5,0-25.9c11.2-59.7,66.8-103,125.6-98.2C1865.8,1554.6,1913.6,1608,1914.4,1668.8z"
	/>
<path d="M1594.3,2196.7c-36.7,9-49.4,0.3-49.5-31.5c-0.2-59.8,49.8-113.2,108.3-115.8c64.6-2.8,119.8,44.2,124,106.4
	c0.7,9.7,1,21.1-3.5,28.8c-4,6.9-14.9,12.8-23,13.2c-5.8,0.3-14.4-8.2-17.4-14.8c-4-8.6-3.3-19.3-5.5-28.9
	c-8.3-37.3-36.5-60.4-69.4-57.1c-36.4,3.7-60.5,30.3-62.3,68.7C1595.5,2176.3,1594.8,2186.9,1594.3,2196.7z"/>
</svg>
