<?xml version="1.0" encoding="utf-8"?>
<!-- Generator: Adobe Illustrator 24.3.0, SVG Export Plug-In . SVG Version: 6.00 Build 0)  -->
<svg version="1.1" id="Layer_1" xmlns="http://www.w3.org/2000/svg" xmlns:xlink="http://www.w3.org/1999/xlink" x="0px" y="0px"
	 viewBox="0 0 4000 4000" style="enable-background:new 0 0 4000 4000;" xml:space="preserve">
<path d="M2864.3,1393.8c24.7,12.3,45.2,22.2,65.5,32.6c99.8,50.9,195.5,107.7,274.2,189.1c63,65.1,110,140.2,122.1,230.9
	c7.1,53.1,2.5,107.8,2.7,161.8c0.1,11.4-1.7,22.8-3,39.5c13.5-1,25.5-1,37.1-2.8c66.7-10.4,132.6-10.3,197.8,10.5
	c99.9,31.9,167.5,96.6,203.9,195c33.2,89.6,33,180.5,10.5,271.6c-53.7,217.7-185.8,373.7-382.2,477.3
	c-109.1,57.6-225.9,90.4-348,105c-31.9,3.8-64.1,6.2-96.2,8.2c-19.4,1.2-34.6,7.4-47.4,23.3c-89.9,111.6-198,201.7-324.5,268.9
	c-25,13.3-35.1,29-33.8,56.7c1,22.8-3.2,45.8-4.7,68.8c-3.3,50.9-28.1,88.5-75,106.7c-58.8,22.8-118.1,46.5-179.3,60.1
	c-236.1,52.5-475.6,66.2-716.8,51.8c-126.4-7.6-252.3-20.9-375.5-50.9c-56.7-13.8-112.4-33-167.1-53.7
	c-60.4-22.9-93.2-68.6-97-134.2c-1.1-19.5-5-38.9-5-58.4c-0.1-20.8-8-32.7-26.9-43c-146.2-79.9-270.3-186.6-375.4-315.5
	c-90.1-110.4-159.9-233-214.5-364.4c-73.7-177.4-119.7-361.9-145.1-552.1c-12-90.2-21.3-180.4-20.8-271.5
	c0.4-67.2,18.4-129.2,52.7-186.8c53.1-89.5,130.5-153.7,216.8-208.6c115.3-73.3,240.7-124.1,370.3-165.8
	c172.5-55.4,349.6-88.1,528.9-110.9c226.8-28.9,454.4-32.6,682-18.6c171,10.5,341.2,31.4,508.7,69.7c23.5,5.4,47.2,10.2,70.9,14.7
	c24.9,4.8,26.2,4.3,36.4-19.2c30.2-69.6,59-139.8,90.3-209c85.7-189.7,174.2-378.1,283.5-555.8c44.6-72.5,91-144,149.1-206.8
	c43.3-46.9,91.4-87.1,154.1-106.6c49.4-15.4,97.6-12.4,145.1,6.6c73.7,29.5,119.2,108.3,112.4,188c-7.3,85.6-40.9,160.4-91.3,227.5
	c-77.4,102.9-157.8,203.6-236.2,305.8c-103.5,135.1-206.4,270.6-309.4,406.2C2891.4,1352.8,2879.8,1371.2,2864.3,1393.8z
	 M205.2,2117.1c1.1,12.5,1.5,23.9,3.1,35.1c26.9,188.4,68.6,373.1,142,549.6c55.5,133.5,125.8,258.4,218.9,369.6
	c130.8,156.2,289.7,274.7,479,351.5c91,36.9,185.5,60,281.9,77.8c175.3,32.4,352.1,36.9,529.4,29.7c120.7-4.9,240.3-20.3,358.8-45.9
	c229-49.5,426.2-156.1,590.4-323c117.5-119.5,206.2-258.8,275.7-410.4c79-172.3,131.7-352.9,163.3-539.7
	c5.1-30.1,9.5-60.4,15.4-98.6c-12.5,11.4-19.6,16.5-25.1,23.1c-73.6,87.9-165.4,152.2-265.8,205.4
	c-112.4,59.6-231.6,101.6-353.5,135.6c-255.1,71.1-516.4,100.3-780.3,109.1c-180.8,6-361.1-4.1-540.6-25.8
	c-228-27.5-451.2-75.2-665.7-158.9c-111.9-43.7-218.7-97.4-311.3-175.3C281.5,2192.8,245.8,2155.6,205.2,2117.1z M2801,1496.4
	c1.3,1.7,2.3,4.1,4.1,5.1c6.1,3.2,12.4,5.9,18.7,8.7c70.2,31.9,139.6,65.5,202,111.5c58.3,43,107,94.6,137.5,161
	c38.3,83.4,36.5,164.9-16.8,242.3c-30.4,44.1-69.1,79.9-111.6,111.9c-100.5,75.8-214.6,124.7-332.7,164.3
	c-244.9,82-498,119.2-755.1,133.4c-159.9,8.8-319.6,5.8-479.4-5.5c-157.4-11.2-313.8-28.4-467.7-64
	c-159.4-36.9-316.5-81.1-461.2-160.2c-74.1-40.5-143.8-87.1-196.2-155.2c-74.8-97.2-77.3-206.1-6.8-306.6
	c34.8-49.5,78.4-90.5,128-124.5c84.9-58.2,177.3-101.8,273.8-136.9c213.4-77.5,434.8-116.9,660-136.9
	c196.2-17.4,392.7-22.1,589.5-7.7c144.6,10.6,288.7,24.9,431,53.5c32.7,6.6,65.2,13.7,97.9,20.3c12.6,2.6,26,5.1,33.7-8.9
	c8.1-14.6,14.9-30,23.3-47.3c-15.2-4.1-26-7.7-37.1-9.9c-42.8-8.7-85.7-16.9-128.5-25.3c-175.4-34.4-352.6-52.4-531.1-57.8
	c-189.9-5.7-379.5,1.7-568.3,25.5c-155.3,19.6-309,46.4-459.8,89.5c-137.8,39.4-269.6,92.7-392.9,166
	c-80.8,48.1-153.1,105.9-207.9,183.8c-36.8,52.3-57.9,109.2-57.5,173.8c0.4,83.9,34.3,153.8,89.2,214.8
	c75.8,84.3,168.6,145.7,269.9,194.3c160.6,77.1,330.6,126,504.9,159.9c153.7,29.8,308.8,48.7,465.2,58.1
	c151.8,9.1,303.5,10,455.3,0.1c121.7-7.9,242.5-23.2,362.9-43.3c139.8-23.4,277-55.6,410.4-104.2
	c123.9-45.1,241.4-102.1,347.6-180.8c58.6-43.5,110.6-93.9,146.4-158.6c43-77.4,54.1-157.4,20.7-242
	c-28.2-71.4-73.8-129.6-130.8-179.4c-75.1-65.6-159.9-116.1-250-158.1c-50.9-23.7-57.8-21-81.5,31.9
	C2800,1493.8,2800.8,1495.2,2801,1496.4z M2583.8,1863.3c6.6-25.5,11.8-47.7,18.2-69.6c36.9-125.7,94.2-241.7,166.3-350.8
	c147.9-223.9,315-433.3,482.9-642.1c64.9-80.7,129-161.8,184.1-249.8c28-44.7,45.9-92.7,52.4-144.7c5.8-46.5-2.9-89.4-37.8-124
	c-40.3-39.9-112.8-50.7-170.8-21.6c-27.4,13.7-53.3,32.1-76.6,52.1c-54.6,46.8-96.7,104.6-135.9,164.3
	c-111.4,169.6-202.7,350.1-287,534.3c-71.8,156.8-140.4,315-213.3,471.2c-52.3,111.9-125.8,208.4-225.6,283.3
	c-5.7,4.3-10,10.3-16.6,17.4C2407.8,1822.7,2492.6,1846.3,2583.8,1863.3z M2516.6,1469.9c-23-6.5-39.1-11.9-55.7-15.7
	c-142.7-32.6-287.5-51-433.3-60.9c-201-13.7-402.2-12.9-603.2,4.3c-180.2,15.4-358.4,41.5-532.7,90.7
	c-114.3,32.3-225.2,72.7-328.7,132c-69.3,39.8-133.4,85.7-183.2,149.6c-27.1,34.8-40.7,74.5-44.4,117.6c-1.4,16.2,2.2,32.8,3.5,49.2
	c2.7,0.8,5.3,1.5,8,2.3c8.2-8.9,16-18.3,24.7-26.7c28-27.1,53.8-57.2,85.1-79.8c39.9-28.8,82.8-54.3,126.9-76.3
	c207.2-103.5,430.5-150.9,657.4-184.9c116.2-17.4,233-25.7,350.3-30.5c199.2-8.1,397.8-1.8,595.8,21.4c73,8.6,145.5,21.1,218.2,32.4
	c12.9,2,26.4,5.6,34.7-6.8C2465,1550.9,2488.7,1513.2,2516.6,1469.9z M3290.3,2300.6c32.1-10.1,62-22.5,93.2-28.7
	c74.2-14.8,144,27.3,168.8,98.3c19.5,55.9,13.4,111.2-4.6,165.8c-31.4,95-90.9,169.4-171.3,227.8c-77.8,56.4-165.5,89.7-259.3,106.4
	c-30,5.4-49.2,17.3-62.5,45.6c-15.6,33.1-36.7,63.6-55.8,94.9c-8.2,13.4-17.4,26.1-29.2,43.8c17.1,0,28.2,1.1,39.1-0.2
	c96.3-10.9,190.5-30.9,280.6-67.5c131.5-53.4,245.4-131.4,329.5-247.3c86.7-119.5,133.2-252,112.6-401.4
	c-15.7-113.8-73.7-197.4-186.8-233.9c-69-22.2-138.5-15.4-207.4,3.9c-15.8,4.4-22.2,14.3-24.5,29.4c-7.6,48.8-15.7,97.6-23.2,146.5
	C3288.5,2289.4,3289.9,2295,3290.3,2300.6z M2491.8,3448.9c-25.8,10.7-45.5,19.4-65.5,27.1c-167.9,65.2-343.6,92.5-522.1,104
	c-179.6,11.6-358.9,4.8-537-20.2c-129-18.1-255-48.9-374.3-103.3c-4.5-2.1-9.9-2-18.4-3.6c1.9,19.2,4.1,34.9,5,50.8
	c2.8,49.3,29.2,79.3,73.8,98.3c60.7,25.8,124.1,42,188.3,54.7c145.9,29,293.3,42.4,442.2,43.6c201.9,1.6,402.2-11.3,599.4-57.5
	c57.2-13.4,113.1-30.7,165.2-58.7c15.7-8.4,29.8-19.1,32.4-37.9C2485.1,3515.9,2487.8,3485.2,2491.8,3448.9z M3117.7,2811
	c6.1,1.5,8.3,2.4,10.5,2.4c3.4,0,7-0.1,10.2-1c79-22.3,154.2-52.7,219.9-103.3c66.2-51,116.7-113.6,141.3-194.7
	c12.6-41.3,17-83.3,4.1-125.5c-13.2-43.1-51.9-69.2-97.1-66.3c-33,2.1-61.6,16.9-90.6,30.9c-33.1,16-52.4,40.6-62.3,77
	c-33.5,123.1-76.6,243-128.7,359.6C3122.3,2796.3,3120.5,2802.9,3117.7,2811z M1034,2097.7c0.3-1.4,0.6-2.8,0.9-4.1
	c24-1.9,48.3-2.2,72-6.3c24.7-4.3,49.7-9.9,73-19c33.9-13.2,42.5-34,31.6-68.4c-14.2-44.7-45.4-76.2-82-103.3
	c-27.7-20.4-59.2-33.4-92.9-31.5c-70.7,3.9-138.7,20.4-197.8,61.9c-16.5,11.6-31.6,27-43.3,43.5c-18,25.4-13.9,51,11.4,69.3
	c16.4,11.8,35.6,22.6,55.1,26.8C918.8,2078.7,976.5,2087.5,1034,2097.7z M2703.5,1670.2c16.3,6.5,29.1,11.1,41.5,16.7
	c58.6,26.2,118.5,50,175.4,79.6c76.7,40,148.5,87.5,197.6,162c2,3.1,7.1,4.2,16.6,9.4c0.9-19.8,3.8-35.4,1.8-50.4
	c-7.3-53.3-25.9-101.9-61.3-143.6c-67-78.9-151.8-132.2-245.2-173.6c-19.6-8.7-39.8-16.1-63.4-25.5
	C2744.8,1587.8,2724.6,1628.1,2703.5,1670.2z M1680.2,2216.8c38.9-6.2,79.3-9.4,117.8-19.8c44.2-12,54-41.6,33.2-82.7
	c-14.1-27.7-36.7-46.4-63.2-61.6c-100.9-57.9-195.9-4.5-242.1,55.8c-25.1,32.8-17.6,59.6,18.9,78.7c9.1,4.8,18.8,9.6,28.7,11.5
	C1608.3,2205.2,1643.4,2210.6,1680.2,2216.8z M1538.4,1872.3c47-5.3,92.6-9.7,136.2-25.8c36-13.3,44.1-38.1,23.2-70.3
	c-16.6-25.6-39.2-44.6-67.1-57.3c-75.3-34.3-186.1-9.1-239.4,54.4c-26.6,31.8-20,62.6,19.7,73.5
	C1452.6,1858.3,1495.8,1864.1,1538.4,1872.3z M2301.4,2153c32-6.5,64.1-10.3,94.3-19.9c33.3-10.6,38.9-37.9,15.8-64.3
	c-7.4-8.5-16.4-16.4-26.2-21.9c-67.5-37.8-134.1-31-198.9,7c-15.9,9.4-30.6,23.5-28.5,43.9c2.1,21.4,21.6,29.3,39,33.8
	C2231.2,2140.4,2266.2,2146,2301.4,2153z M2034,1879.7c24.4-4.8,47.4-7.2,68.7-14.6c10.1-3.5,23.2-16.4,23.5-25.4
	c0.3-9.4-11.2-23.3-21-28c-48-23.1-97.4-25.2-145.2,1.1c-8.6,4.7-18.4,17.2-18,25.7c0.3,8.5,11.1,21,20,24
	C1985.3,1870.4,2010.2,1874.3,2034,1879.7z"/>
<path d="M2077.1,3076.1c-46.4-0.7-84.7-38.8-83.7-83.2c1.2-49.8,42.2-89.9,90.9-88.8c46.9,1.1,81.7,39.6,80.5,89.2
	C2163.7,3040.9,2125.6,3076.8,2077.1,3076.1z"/>
<path d="M1451,2990c0,48.5-36.5,85.1-85.1,85.3c-48.1,0.2-84.4-34.6-84.9-81.3c-0.5-50.6,36.2-89.6,84.7-89.9
	C1412.2,2903.7,1451,2942.8,1451,2990z"/>
<path d="M1722.6,3187.8c-64.7-1.3-114.7-36.6-133.5-95.1c-2.8-8.6-4.1-17.9-4.9-26.9c-1.2-13.6,2-25.8,17-29.9
	c15.7-4.3,23.3,6.2,28.8,18.4c3.3,7.3,5.1,15.2,7.9,22.8c14.6,39.5,44.5,60.4,86.7,60.9c40.3,0.4,69-19,85.1-57.9
	c3.1-7.4,5.5-15.1,8.1-22.7c3.9-11.7,9.2-21.5,24-19.6c14.6,1.9,24.1,12.9,22.8,29.4c-2.8,35.9-17.4,66.6-45.7,89.6
	C1791,3179.1,1758.5,3189.1,1722.6,3187.8z"/>
<path d="M3126.2,856.4c-20.2,1.8-35.3-20.7-26.9-36.1c8.7-16,19.9-30.7,31.2-45.2c38.8-49.7,78.3-98.8,117.2-148.5
	c14.8-18.9,28.6-38.8,43.2-57.9c5.5-7.2,11.4-14.6,18.4-20.3c11.3-9.2,23.1-8.1,34.1,1.6c10.6,9.4,10.4,19.5,2.7,30.5
	c-3.9,5.7-7.3,11.7-11.5,17.1c-61.8,79.7-123.5,159.5-185.8,238.9C3142.1,845.2,3132,851.3,3126.2,856.4z"/>
<path d="M3433,406.7c-6.5,23-12.2,46.3-20.1,68.8c-2.8,8.1-9.6,18-16.9,20.5c-9.6,3.2-22.5,2.4-31.6-1.7c-4.5-2-5.9-15.9-4.9-23.9
	c3.2-27.2,8.9-54.1,12-81.3c2.5-22.2,7.4-30.2,23.6-31.3c17.5-1.2,29.7,8.7,33.3,27.5c1.3,6.7,1.2,13.7,1.8,20.5
	C3431.2,406.1,3432.1,406.4,3433,406.7z"/>
</svg>
