<?xml version="1.0" encoding="utf-8"?>
<!-- Generator: Adobe Illustrator 24.3.0, SVG Export Plug-In . SVG Version: 6.00 Build 0)  -->
<svg version="1.1" id="Layer_1" xmlns="http://www.w3.org/2000/svg" xmlns:xlink="http://www.w3.org/1999/xlink" x="0px" y="0px"
	 viewBox="0 0 4000 4000" style="enable-background:new 0 0 4000 4000;" xml:space="preserve">
<path d="M1444.2,1487.6c-53.2-183.1-147.8-325-340.4-379.6c-9.2-2.6-18.8-4-27.9-6.8c-35.3-10.6-46.4-49.8-20.8-76.3
	c9.5-9.8,21.8-17.5,34-23.8c48.7-25.2,101.7-35.6,155.4-43.1c42.7-5.9,85.2-4.7,127.5,3.6c5,1,10.3,0.6,19.8,1.1
	c-5.8-11.6-9.7-20.9-14.9-29.4c-53.2-87.5-118.3-163.9-204.3-221.2c-4.4-2.9-8.6-6-12.8-9.1c-16.9-12.5-25.9-28.6-20.7-49.8
	c5.5-22.5,20.5-36.2,43.4-39.9c13.7-2.2,27.7-3.4,41.7-4c109.9-4.6,215.2,14.9,315,61.9c4.5,2.1,9.4,3.4,17.4,6.3
	c-1.9-8.2-2.5-13.9-4.6-19c-27.9-67.6-63.5-130-120.3-178.2c-7.2-6.1-13.9-13.4-19.3-21.2c-10.8-15.5-12.4-32.6-3-49.4
	c9.4-16.7,21.9-28.8,43.4-28.2c41.4,1,81.3,9.8,120.6,21.5c74.9,22.2,145.3,54.2,208.6,100.6c7,5.1,13.4,11.1,20.1,16.7
	c5.8,4.8,11.7,9.5,21.9,17.8c5.7-38.7,13.5-72.7,15.3-107c3.4-66.1,3.8-132.4,4.7-198.7c0.2-16.4,2.4-30.9,15.7-42.4
	c16.7-14.4,36.7-18.6,55.5-6.9c15.4,9.5,29.9,21.4,42.4,34.4c58.9,61.4,107,130.9,148.2,205.2c5,9.1,10.3,18,17.2,30.2
	c9-7.1,17.1-12.9,24.5-19.5c66.2-59.2,141.6-101.4,228.6-120.9c13.9-3.1,30.3-4.1,43.4,0.2c28.7,9.5,39.9,44.9,23,71.3
	c-20.8,32.6-37.8,66.7-49.5,103.5c-1.5,4.8-2.4,9.7-4.3,17.6c8-1.6,13.9-1.9,19-4.1c58.9-25,121.1-31.8,184.1-33.4
	c10.3-0.3,21.1,0.9,31,3.9c34,10.3,46.9,50.2,24.5,78c-10.8,13.4-24.8,24.4-37.7,36.1c-44.2,40.3-81.2,86.3-110.8,138.3
	c-2.5,4.3-3.9,9.2-8.1,19c13-3.2,21.8-5.3,30.6-7.5c76.2-19.6,153-35.2,232.2-33.6c28.8,0.6,45.9,13.4,52.7,37.9
	c4.9,17.7,1.4,33.2-13.3,44.6c-11.6,9.1-23.9,17.5-36.4,25.4c-75.8,48-143.4,105.2-198.2,176.7c-8,10.4-15.4,21.2-22.8,32
	c-1.9,2.7-2.7,6.1-5.2,11.8c11,0,20.2,0.7,29.1-0.1c108.7-9.1,211.9,9.7,308,62.3c10.6,5.8,20.4,13.3,29.7,21.1
	c15.9,13.3,19.1,31.1,13,49.9c-6.3,19.4-20.8,29.5-41.4,30.2c-46.7,1.8-91.9,11.4-135.1,28.4c-108,42.4-192.5,111.4-241.5,219.2
	c-1.8,4-3.8,7.9-5.3,12c-6.6,18-5.2,21.2,12.5,30.4c94.6,48.8,173.2,116.7,239.7,199.2c77,95.6,131.8,203.1,169.8,319.3
	c48.3,147.5,75,298.9,83.3,454.1c6.1,114.5,4.5,228.6-6.5,342.4c-16,166-54.7,326.6-125.1,478.7
	c-104.7,226.2-276.6,374.4-515.7,445.1c-122.4,36.2-247.5,50.3-374.7,49.4c-145.7-1-288.7-19.1-426.6-68.5
	c-186.1-66.7-330.5-184.4-431.8-354.4c-72.4-121.5-115.2-253.7-140.6-391.9c-29.1-158.5-38.6-318.8-30.9-479.5
	c8.9-187.5,41.8-370.7,114.5-545c50.6-121.3,119.7-230.5,216.2-320.9c43.5-40.7,91.4-75.5,142.9-105.4
	C1423,1500.8,1431.7,1495.2,1444.2,1487.6z M1311.5,2081.4c75.6,74.3,150,147.5,226.7,222.9c92.9-78.5,181.6-158.8,268.2-241
	c-76.1-75.4-150.2-148.7-224.7-222.5C1491.8,1920.7,1403.5,1999.4,1311.5,2081.4z M1588.3,2349.6c79.9,72.6,155.9,141.7,234.2,212.8
	c87.2-81.4,173-161.5,260.6-243.4c-76.6-71.2-149.5-141.7-226.9-208.9C1765.9,2190.8,1678.3,2269.1,1588.3,2349.6z M1770.4,2607
	c-76.4-70.2-148.8-136.8-221.1-203.4c-6.9-6.4-13.6-7.1-20.9-1.5c-4.2,3.1-8.2,6.5-12.1,9.9c-68.2,59.7-136.4,119.3-204.5,179.1
	c-11.6,10.2-22.5,21.1-35.7,33.5c79.1,72.7,156.3,143.7,235.8,216.7C1598.6,2762.6,1683.5,2685.7,1770.4,2607z M2107.2,1776.3
	c-76.2-73-150.2-143.9-225.1-215.6c-83.7,78.5-166.1,155.6-250.5,234.8c73.2,77.3,149.4,147.2,226.5,221.4
	C1941.7,1937.9,2025.2,1860.6,2107.2,1776.3z M2159.9,1824.3c-85.6,79.8-168.9,158.4-252.1,240.9c75.6,70.4,148.9,138.5,224.4,208.7
	c86-82.9,171.6-163.3,252.3-249.5C2309.7,1957.8,2236.3,1892.4,2159.9,1824.3z M1226.9,2576.8c87.1-74.4,173.6-150.4,259.4-228.8
	c-77.4-76.4-152-150.2-227.1-224.3c-7,4.7-12.3,7.7-16.8,11.5c-52,43.8-104,87.5-155.6,131.8c-5.4,4.7-10.4,12.4-11.3,19.3
	c-4.8,37.1-8.2,74.5-12.3,111.7c-1.3,11.4,2.6,19.7,10.9,27.7c19.6,18.6,38.2,38.2,57.4,57.2
	C1162.3,2513.4,1193.3,2543.8,1226.9,2576.8z M2649.9,2256.7c-5.1-6.5-7.7-11.1-11.5-14.3c-62.1-53.5-124.3-107-186.7-160.1
	c-15.4-13.1-16.9-12.7-32.3,2.5c-43.5,42.9-86.9,85.8-130.2,128.8c-34.5,34.3-68.9,68.8-105.3,105.1
	c71.3,64.2,141.6,127.4,213.7,192.3C2485.2,2427.9,2567.4,2344.1,2649.9,2256.7z M2349.1,2556c-73.5-65.3-143.7-127.6-215-190.9
	c-86.4,80.3-172.2,160.1-260.2,242c73.4,63.6,144.8,125.5,218.1,189C2179.5,2716.2,2266.2,2639.8,2349.1,2556z M2039.8,2842.3
	c-3.4-4.5-4.7-6.8-6.6-8.5c-64.5-56.1-129-112.2-193.8-168c-15.1-13-16.7-12.7-33,1.6c-77.2,68-154.4,136.2-231.4,204.4
	c-4.3,3.8-7.4,9-12.8,15.7c73.1,62.7,144.9,124.4,218.9,187.9C1869,2997.9,1956.2,2922.2,2039.8,2842.3z M1987.5,922
	c-93.4,92.1-203.7,364.6-186.7,454.2c57.6-1.8,115-5.2,172.3-5c58,0.2,116,4,175.6,6.2C2123.7,1215.4,2074.1,1063.7,1987.5,922z
	 M2648.9,2727.5c6.7-5.4,12.5-9.2,17.3-14.1c66.8-68.7,133.7-137.3,200.1-206.4c18.3-19,15.1-66.1-5.3-82.9
	c-46.4-38.2-93-76.1-139.8-113.8c-15.5-12.5-17.7-12-32.5,3c-46.5,47.1-92.9,94.3-139.3,141.6c-28.7,29.2-57.3,58.5-85.8,87.9
	c-4,4.1-7.1,9.2-11.4,14.9C2517.8,2614.3,2582.3,2670,2648.9,2727.5z M2300.7,3060.8c-8.9-7.9-14-12.6-19.3-17.1
	c-55.9-47.2-111.8-94.6-167.9-141.6c-19.7-16.5-20.2-16.3-38.9,0c-44,38.4-88,76.8-131.6,115.6c-36.3,32.4-72,65.4-110.7,100.6
	c69.2,58.8,137.1,116.5,206.8,175.8C2126.7,3216,2212.4,3139.6,2300.7,3060.8z M2599.8,2775c-11.7-10.7-19.8-18.4-28.3-25.8
	c-49.3-42.9-98.7-85.9-148.1-128.7c-21.4-18.5-21.9-18.8-42.8,0.5c-58.3,53.8-116.3,108.1-174.4,162.1
	c-20.3,18.9-40.7,37.7-63.1,58.3c69.3,58.2,137.2,115.2,206.8,173.8C2433.1,2935.2,2515.2,2856.3,2599.8,2775z M2639,1744.8
	c-64.9-78.1-142.8-134.4-236.6-174c-64,67.5-128.4,135.3-194.7,205.2c72.5,69.1,145.8,134.3,223,198.8
	C2504,1901.5,2573.1,1825.1,2639,1744.8z M1229.6,3083.6c77.5-66.7,152.6-131.3,229.5-197.5c-78.5-73.3-155.3-145-233.5-217.9
	c-8.1,5.7-15.3,10.3-21.9,15.6c-42.9,34.3-85.5,69-128.7,102.9c-9.1,7.1-10.6,14.6-8.9,24.9c6.2,37.9,12.4,75.7,17.3,113.8
	c2,15.8,8.7,27.8,20,38.3c24.3,22.5,48.5,45.2,72.5,68C1193,3047.8,1209.7,3064.3,1229.6,3083.6z M2652.1,2819.7
	c-84.2,79.2-167.6,157.6-253.7,238.5c68.2,56,133.1,109.4,199.2,163.7c8.2-6,15.6-10.4,21.9-16.1c45.2-41,90.2-82.1,135.1-123.4
	c22.5-20.6,45.4-40.8,66.7-62.6c25.6-26.2,24.5-38-3.2-61.6c-49.1-41.8-98.3-83.4-147.5-125
	C2665.4,2828.8,2659.6,2825.2,2652.1,2819.7z M2278.5,3497.9c91.7-73.1,180.9-147.4,268.3-229c-68.2-55.7-129.8-112.9-197-165.9
	c-87.8,79.1-173.5,156.3-260.6,234.8C2153.2,3391.9,2214.2,3443.5,2278.5,3497.9z M1728.2,3119c-74.5-64.3-146-126.2-217.2-187.7
	c-26.4,15.3-214.8,181.6-226.7,200.6c70,62,140.3,124.2,212.8,188.5C1574.6,3252.9,1650.6,3186.7,1728.2,3119z M1548.5,3363.7
	c68.8,59.2,133.9,115.3,198.4,170.9c23.4-10.7,212.4-170.2,234.6-197.5c-1.2-2.1-2-4.8-3.9-6.4c-61.6-52.6-123.4-104.9-185-157.6
	c-9.8-8.3-18-8-27.5,0.5c-21.4,19.2-43.3,37.8-64.9,56.8C1650.5,3274,1600.9,3317.7,1548.5,3363.7z M1767.1,1213.1
	c3.9-10.1,6.3-15.5,8.2-21.1c9.9-29.7,15.4-61.9,30.6-88.6c19.3-34.1,8.2-58-12.4-84.3c-103.9-133.1-236.1-225.1-396.8-276.2
	c-4.1-1.3-8.6-1.2-16.1-2.1c7.1,9.1,11.6,15.4,16.7,21.3c73.9,86,123.9,184.8,156.2,292.8c4.5,15.1,13.1,22.9,26.7,29.1
	c59.8,27.3,115.1,61.7,162.6,107.6C1749.5,1198,1756.8,1204,1767.1,1213.1z M1731.6,1387.8c4.3-27.1,8.9-56.1,13.5-85.2
	c0.4-2.6,1.7-5.6,0.9-7.7c-2.9-7.7-4.8-16.8-10.1-22.5c-110.7-118.4-249.3-181.3-408.1-203.3c-7.3-1-14.8-0.1-22.2-0.1
	c127.6,94.5,199.8,224,247.1,368.7C1613.1,1420.9,1671.6,1404.6,1731.6,1387.8z M2682.2,1798.6c-67.7,75.8-132.5,148.3-197.8,221.5
	c5.7,5.9,9.5,10.6,14,14.5c61.5,52.8,123,105.5,184.7,158c12.7,10.8,17.3,10.5,30.7-3.9c30.3-32.5,59.7-65.9,89.6-98.7
	c7.9-8.6,9.2-16.8,5.2-28.4c-28-80.9-60.5-159.7-106.7-232.2C2695.9,1820.1,2690,1810.7,2682.2,1798.6z M2226.8,3541.1
	c-5.6-5.9-7.7-8.5-10.2-10.7c-50.2-41.8-100.5-83.4-150.7-125.2c-30.8-25.6-26.4-24.6-55.3-0.3c-63.4,53.1-127.1,105.9-190.6,158.9
	c-4.4,3.7-8.4,7.9-14.6,13.8c24.9,20.5,48.7,39.3,71.5,59.1c13.4,11.6,28.3,16.2,45.5,16c45.3-0.5,90.6-0.2,135.8-1.7
	c10.6-0.4,22.2-4.7,31.1-10.7c31.1-20.8,61.3-42.9,91.7-64.8C2195.7,3565,2210,3553.8,2226.8,3541.1z M1263.3,2031.6
	c91.3-80,182.5-156.1,269-239.5c-42.4-47.1-82.8-91.9-125.6-139.4c-24.9,22.1-48,41.6-70.2,62.3c-63.3,59-108.5,131-146.9,207.8
	c-4.3,8.7-8.8,16.8-0.3,26.2C1213.3,1975.2,1236.8,2001.9,1263.3,2031.6z M1637.6,552.7c-1.4,1.3-2.7,2.5-4.1,3.8
	c10.9,29.3,23.3,58.1,32.4,87.9c18.5,60.8,34.9,122.1,35,186.6c0,7,6.6,16,12.7,20.6c41.8,31.8,79.6,67.5,111.6,109.2
	c9.7,12.7,20.6,24.5,32,38.1c26.5-40.3,51.3-77.8,75.6-114.7C1867.1,742.6,1772.4,629.5,1637.6,552.7z M2430.3,622.3
	c-1.2-1.5-2.4-3-3.6-4.5c-7.6,3.5-15.5,6.5-22.8,10.6c-23.4,13.4-46.8,26.9-69.8,41C2230,733.1,2145.2,817,2074.4,915.9
	c-8.6,12-7.8,20.8-1.2,33c13.9,26.1,25.8,53.2,38.6,79.9c2.5,5.1,5.6,10,9,16c4.3-3.2,7.3-4.9,9.6-7.2
	c53.2-55.6,111.4-105.2,176.9-145.8c8.9-5.5,12.7-12.7,14.7-23c14.7-75.2,43.9-144.6,84.7-209.4
	C2414.5,647,2422.4,634.7,2430.3,622.3z M1962,409.6c-3.1,14.4-5.5,22.4-6.5,30.6c-9.3,78.2-26.2,154.7-53.3,228.6
	c-7.9,21.6-6.9,38,8.8,54.4c5.9,6.2,10.3,14.1,14.4,21.7c17.4,32.1,34.4,64.4,52.3,98.1c22.4-3.9,37.9,9.3,51.4,28.4
	c5.7-5.1,10.6-8.5,14.1-13c20.8-26.8,41.1-54.1,62-80.8c6.5-8.3,8.6-16.6,5.4-26.7c-10.8-34.9-18.2-71.3-32.7-104.6
	c-30.9-71-65.4-140.5-98.8-210.4C1975.8,428.4,1970.3,422,1962,409.6z M1935.9,1519.1c72.7,70.1,145.1,139.9,219.5,211.6
	c61.1-63,123.3-120.9,178.2-188.4c-7.4-3.2-11.9-5.8-16.8-7.1c-110.6-29.9-222.8-48.1-337.7-48.6
	C1956.5,1486.4,1942.4,1493.4,1935.9,1519.1z M2184.7,1239.8c10.2-6.6,17.9-11.8,25.8-16.7c34.2-20.8,68.1-42.1,102.9-61.9
	c14.9-8.5,36.1-10,46.3-21.7c10.3-11.8,10.1-32.5,15.5-49C2400,1014,2439,945.6,2492,885.2c5-5.7,9.8-11.5,18.4-21.6
	c-10.4,2.2-15.6,2.4-20,4.4c-35.8,16-72.3,30.6-106.9,48.8c-87.4,45.9-163.2,106.6-225.7,183.5c-6.2,7.6-12.4,14.6-8.9,25.6
	C2160.5,1162.3,2171.8,1198.8,2184.7,1239.8z M2620.9,1143.4c-6.6,0-13.4-0.8-19.9,0.1c-32.7,4.5-65.7,7.7-98,14.5
	c-108.6,23.1-204,73.7-290.3,142.5c-4.9,3.9-11.4,11.1-10.8,15.9c3.2,24.8,8.5,49.3,12.8,72.1c54.1,13.6,105.2,26.4,157.6,39.5
	C2420.8,1303.3,2502.7,1208.1,2620.9,1143.4z M1834,1517c-5.4-16.9-14.5-23.7-30.2-20.8c-6.8,1.3-13.9,1.6-20.7,2.9
	c-72,13.6-142.4,33.3-211.1,58.8c-38.4,14.2-74.1,33.7-110.6,57.4c40.8,44.7,79.9,87.7,120.8,132.6
	C1670.3,1674.1,1751.3,1594.1,1834,1517z M2334.5,3539.1c1.2,3.4,1.3,4.5,1.9,5c11.2,9.6,23,18.6,33.4,28.9c9.8,9.6,19,9.2,30.8,4.1
	c102-44.1,189.5-107.1,257.2-196c3.5-4.6,6-9.9,9.9-16.4c-25-14.9-41-39.3-67.4-49.4C2510.6,3390.7,2422.2,3465.2,2334.5,3539.1z
	 M1441.4,3362.3c-72.4-65-141.5-127-212.4-190.5c-19.1,15.3-36.4,29.3-53.8,43.3c39.3,90,95.4,164.3,163.8,232.2
	C1376.8,3423.4,1405.6,3391.9,1441.4,3362.3z M1693.3,3575.5c-66.6-56.8-131.6-112.4-195.8-167.2c-40,24.2-90.7,66.6-102.6,85.9
	c7.5,5.4,15,11,22.8,16.3c58,39.3,121.2,67.6,187.5,89.5C1654.4,3616.4,1654.3,3616.7,1693.3,3575.5z M2878.1,2596.1
	c-60.5,56.5-118.2,114.7-175.5,176.5c50.3,43.9,99.2,86.5,151.5,132.1C2871.4,2800.5,2879.2,2699.6,2878.1,2596.1z M2163.3,717.2
	c27.3-20.8,52.3-39.2,76.3-58.8c4.4-3.6,6.9-12.1,6.8-18.2c-1.5-50.5,10.1-98.3,27.3-145.2c1.8-4.8,1.5-10.4,2.7-19
	c-6.4,4-9.3,5.6-12,7.5c-32.7,23.6-60.3,52.4-85.8,83.5c-14.3,17.5-29.2,34.5-43.8,51.7c6.1,22.4,12,44.9,18.4,67.3
	C2155.9,695.7,2159.4,705.3,2163.3,717.2z M1061,2508.6c-10.2,25.7-9.1,169.2,1.5,205.4c3.9-2.1,8-3.6,11.1-6.2
	c28.6-24.1,57.1-48.2,85.3-72.6c15.5-13.4,15.6-16.4,1-31c-29.3-29.6-58.9-59-88.5-88.4C1068.7,2512.9,1064.7,2511.1,1061,2508.6z
	 M2749.8,2251.4c38.7,30.5,75.2,59.3,111.7,88c1.6-0.9,3.2-1.9,4.7-2.8c-9.8-58.1-18-116.6-34.6-178.9
	c-26.5,29.5-49.1,54.5-71.5,79.7C2756.8,2241.2,2754.1,2245.6,2749.8,2251.4z M2704.6,3310.6c26.5-24.8,79.1-132.7,79.8-165.7
	c-44.9,41.6-87.2,80.7-132.1,122.2C2670.8,3282.5,2687.2,3296.1,2704.6,3310.6z M1109.4,2161.7c33.2-28.4,66.5-56.8,100.5-85.9
	c-19.4-22.8-37.8-44.4-60.4-70.9C1135.1,2060.6,1114,2107.9,1109.4,2161.7z M2222.8,3628.1c0.4,1.7,0.8,3.5,1.2,5.2
	c25.8-10.8,55-8.5,84.4-22.8c-12.2-9.5-21.4-16.8-31.4-24.5C2258,3600.7,2240.4,3614.4,2222.8,3628.1z M1176.7,3127.3
	c-18.1-17.7-33.3-32.5-48.4-47.3c-1.8,1.1-3.5,2.1-5.3,3.2c7.3,21.4,14.5,42.8,23.2,68.4C1157.9,3142.2,1165.7,3136,1176.7,3127.3z
	 M1768,3639.2c-15.6-16.8-15.6-16.8-22-2.2C1752,3637.6,1757.7,3638.2,1768,3639.2z"/>
</svg>
