<?xml version="1.0" encoding="utf-8"?>
<!-- Generator: Adobe Illustrator 24.3.0, SVG Export Plug-In . SVG Version: 6.00 Build 0)  -->
<svg version="1.1" id="Layer_1" xmlns="http://www.w3.org/2000/svg" xmlns:xlink="http://www.w3.org/1999/xlink" x="0px" y="0px"
	 viewBox="0 0 4000 4000" style="enable-background:new 0 0 4000 4000;" xml:space="preserve">
<path d="M2996.5,1961.9c7.9,43.7,18.7,84.3,22,125.5c15.6,193.7-72.7,419.8-302.5,500.1c-24.1,8.4-49.3,13.5-76.1,20.7
	c0,5.1-1,10.7,0.1,15.8c24.4,107.6,9.9,211.8-30.3,312.8c-48.1,120.8-132.3,207-253.4,255.9c-21.8,8.8-44.9,14.5-68.6,22
	c0,5.8-1.1,11.5,0.2,16.6c33.5,143.2-21.7,388.4-212.7,509.7c-220.6,140.2-506.3,54-613-182.8c-47.9-106.5-56.5-215.8-29.2-328.6
	c3.3-13.6,6.5-27.3,10.2-42.8c-117.5-48.9-196.7-133.3-242.4-249.2c-45.5-115.5-42.6-232-2.8-348
	c-259-127.7-334.8-335.1-271.1-608.3c-5.2-2.5-12.4-6.7-19.9-9.6c-200.3-76.7-300.9-261.6-291.3-446.2
	c10-192.8,96.3-341.2,274.8-423.8c155.7-72.1,307.2-51.9,450,40.6c15,9.7,27.5,23.2,43.2,36.6c128-99.1,272.1-131,435.7-92.8
	c-5.5-28-9.1-51.1-14.6-73.7c-21.4-88.6-62.9-167.1-124.4-234.1c-19-20.8-41.7-39.3-65.4-54.5c-58.9-37.9-62.4-95.1-41.5-141.7
	c21.7-48.3,54.3-89.6,95.1-123.1c33.3-27.4,71.8-29.2,109.4-8.4c18.1,10,34.7,23.3,50,37.4c35.1,32.2,67.9,66.5,93.6,107
	c2.9,4.6,7.1,8.4,14,16.3c3.2-12.1,5.7-20.5,7.6-29.1c29.3-131.4,82.7-250.5,179.3-347.1c29.1-29,61.2-54.3,97.7-73.4
	c92.4-48.3,181.4-52.3,265.2,23c10-4.4,20.3-8.9,30.7-13.3c135.9-58.8,275.1-68.7,417.6-27.9c2.7,0.8,5.4,1.8,8.1,2.7
	c97.6,31.5,149.6,99.1,159.7,200.5c8.5,85.9-6.5,168.6-33.6,249.6c-17.8,53.3-40.2,104.7-72.5,151.2c-8.6,12.3-10,23.5-1.3,36.6
	c25.3,38.2,26.6,80.3,18,123.5c-8.7,43.5-26.9,83-52.7,119c-6,8.4-11.9,16.8-18.7,26.5c4.5,2.7,7.3,5.4,10.5,6.2
	c159.1,38.1,270.5,132.9,325.2,286.6c68.6,192.7,25.7,365.1-111.6,514c-40.3,43.8-91.9,73.4-148.4,93.1c-5.4,1.9-10.7,3.8-16,6.1
	C2998.5,1959.6,2997.3,1961.3,2996.5,1961.9z M2100.5,978.9c8.7-6.6,12.9-8.9,15.9-12.3c35.5-39.6,70.6-79.7,106.4-119
	c10.3-11.3,14.2-24,15.1-38.7c2.6-41.7,4.9-83.5,9.2-125c6.6-63.3,14.2-126.5,22.5-189.6c3.6-27,20.7-34.3,44.9-21.7
	c13.3,7,19.7,17.3,17.4,32.5c-1.2,7.5-2.7,15-3.4,22.5c-6.9,69-13.8,137.9-20.3,206.9c-0.5,5.7,1.4,11.7,2.4,19.7
	c6.8-4,11.1-5.9,14.6-8.8c59-49.3,117.8-99,177.1-148c11.2-9.2,15.7-20.3,18.6-33.8c12.7-59.4,26-118.7,39.7-177.9
	c2.3-10,6.7-19.8,11.3-29.1c5.1-10.3,13.9-14.6,25.8-14.1c24.1,1.1,36.5,15,31.5,39.6c-7.9,38.1-17.7,75.9-26.3,113.8
	c-1.5,6.8-1.2,14.1-2,26.2c12.6-8.2,21-13.9,29.6-19.3c32.1-20.2,63.8-41.3,96.7-60.2c16.9-9.7,28.4-6.2,38.4,5.7
	c11.3,13.5,12.2,31.2,1.3,44.4c-4.7,5.7-11.1,10.4-17.3,14.6c-49.6,33.4-99.5,66.5-149.1,99.9c-4.1,2.7-6.7,7.6-12.1,13.8
	c22.4,2.6,41.1,4.9,59.8,6.9c30.2,3.1,60.6,5,90.6,9.3c23.6,3.4,34.6,18.9,32.9,41.6c-1.4,18.5-11,25.7-37.1,25.3
	c-20.9-0.4-41.8-1.5-62.6-4.1c-48.1-5.9-96-12.9-144-19.5c-12.7-1.7-23.9-0.8-34.4,8.5c-57.8,50.8-116,101.1-173.9,151.7
	c-3.9,3.4-6.3,8.5-12.3,16.7c54.4,7.5,104.9,16.2,155.8,21.1c43.4,4.1,87.2,5.2,130.8,5c26.9-0.1,43.1,26.3,33.7,49.5
	c-6.7,16.7-22.3,20.2-37.8,20.1c-35.1-0.2-70.6,1.1-105.3-3.2c-72.5-8.9-144.7-20.6-216.8-32.3c-15-2.4-26.1-0.1-35.5,11.3
	c-27.2,33-54.6,65.8-81.5,99c-4.4,5.4-6.4,12.7-10.3,20.5c9.5,5.4,16.6,10,24.2,13.5c160.2,74.9,323.6,85.3,489.2,20.2
	c70.9-27.8,133.4-69.3,178.8-132c13.2-18.2,23.9-38.8,32.4-59.7c8-19.5,4.8-23.9-13.2-34.7c-12.2-7.3-25.4-13.2-37.1-21.2
	c-28.7-19.6-36.2-56.1-17.5-85.4c6.1-9.5,14.3-17.7,22.4-25.7c95.7-95.2,138.1-210.9,135.8-344.9c-0.8-47.2-21.1-77.3-66.5-90.4
	c-12.8-3.7-25.2-9.1-38.1-11.5c-89.9-16.5-177.7-11.6-262.4,26.1c-47.4,21.1-89.6,49.5-127.3,85.1c-11.9,11.2-25.9,20.1-43.7,13.7
	c-19.2-6.8-28.3-21.6-30.4-41c-1.3-12.3-1.6-24.6-2.3-37c-2.4-43.3-27.1-60.3-67.4-43.7c-20.8,8.6-41.2,20-59,33.9
	c-78.7,61.3-124.1,145.1-154.8,237.6c-37.1,111.8-34.2,226.5-19.2,341.5C2087.7,919.9,2094.3,946.6,2100.5,978.9z M1679.4,2159.2
	c-4.7,119,77.3,268.6,223.4,306.3c114.4,29.5,218.6,9.6,300.9-78.2c96.8-103.4,113.4-225.2,68.3-357.6
	c-40.4-118.8-168.2-211.4-299.6-203.7c-20.6,1.2-39.1,6.2-55.9,18.1c-40.5,28.6-83.1,52.9-129.1,71.8c-14.1,5.8-27.9,16.8-37.5,28.9
	C1701.1,2006.6,1677.9,2077.6,1679.4,2159.2z M1373,1547.1c0.1,50.4,12.5,102.1,35.6,148.1c63.3,126.3,187.4,190.4,322.1,164.5
	c85.9-16.5,155.7-59.2,201.6-135.6c62.2-103.5,73.9-212.1,26.9-324.5c-52.9-126.4-188.9-199.3-322.2-174.5
	C1481.1,1254.1,1372.7,1386.4,1373,1547.1z M2618.8,1522.3c-3.7-22.1-5.9-53.7-14.4-83.5c-34.8-122.1-128.9-214.7-264.2-224.3
	c-124.1-8.8-217.5,46.2-286.2,147.5c-16.3,24.1-26.8,48.1-11.5,76.6c1.7,3.2,1.9,7.3,2.5,11.1c11.5,67.4,9.4,134.1-8,200.4
	c-2.5,9.4-2.8,21.4,0.8,30.2c41.3,98.3,121.8,154.5,219.6,177.4c86.1,20.2,169.8-4.8,239.9-62.6
	C2579.9,1726.9,2612.7,1635.5,2618.8,1522.3z M1914.1,2738.1c-5.4-31.7-7.6-64.4-16.7-95c-40.5-135.8-133.7-203.7-272.1-210.7
	c-81.3-4.1-150.2,31.4-207.6,86.5c-114.4,109.8-134.8,287-50.8,421.6c108.2,173.5,324.6,158,435.3,53.2
	C1875,2924.7,1908.7,2838.3,1914.1,2738.1z M1061.4,1848.9c35.2,2.7,71.8-5.5,104.7-30.8c15.6-12,33.7-21.8,52.1-29.1
	c48.3-19.1,77.7-56.4,100.4-100.3c3.9-7.5,5.7-18.5,3.3-26.4c-26.6-89.9-20.5-178.5,11.1-265.6c5.5-15.3,3.7-27.1-3.9-40.2
	c-77.5-133.8-239.5-190.7-387.1-116.6c-141.5,71-219.2,254.1-159.1,414.2C821.6,1757.3,920.2,1853,1061.4,1848.9z M1369.2,1819.7
	c-94.8-0.4-166.5,34.1-221.6,92.7c-92.3,98.1-120.6,215.6-76.4,345.6c37.1,109.1,136,205.2,278.8,206.9c21.2,0.3,38.1-5.5,54.6-19.1
	c33.1-27.4,69.7-49.3,111.6-61.3c57.6-16.5,57.6-16.8,89.4-66.6c3.1-4.8,5.5-10.1,8.9-14.6c11.3-14.8,13.1-30.7,8.3-48.5
	c-18.6-69.8-15-139.8,4.5-208.3c8.1-28.6,8.9-53.5-6.8-78.7c-2-3.2-3.2-6.9-4.6-10.4c-8.8-21.6-23.9-35-47.2-41.3
	c-43.7-11.8-84.1-32.3-117-62.9C1424.2,1827.8,1394.6,1816.8,1369.2,1819.7z M1564,3346.8c-1.6,43.3,6.2,85.4,21.4,125.6
	c80.3,212.9,333.3,246.9,469,94.3c92.8-104.4,117.5-228.5,70.3-361.3c-37.9-106.4-119.6-162.6-229.1-181.1
	c-18.1-3.1-31.3,1.9-45.4,15.3c-30.4,28.7-64.2,53.9-103.9,68.6c-23.9,8.8-48.8,15-73.7,21c-25.3,6.1-44.1,18.6-57.7,41.9
	C1583,3225.6,1565.6,3283.8,1564,3346.8z M2869.4,2135.9c-0.5-8.7-0.9-23.9-2.3-39c-0.9-10.4-2.9-20.7-4.9-31
	c-31.1-158.7-153.9-239.5-256.1-247.9c-20.9-1.7-36,2.1-51.3,16.4c-49.8,46.5-108.7,75.9-175.7,88.8c-10.3,2-20.7,3.5-30.7,6.2
	c-25,6.8-34.7,26.3-25.1,50.2c6.4,15.9,14.5,31.1,19.9,47.2c28.5,86.2,25.9,173.3-3.7,257.6c-12.6,35.8-5.4,57.2,17.3,83.1
	c126.9,145.2,339.1,114.7,434.6-3.7C2843.5,2299.2,2868.6,2225.2,2869.4,2135.9z M2178,3070.7c113-1,198.8-40.6,249.1-111.4
	c79.8-112.5,100.6-234.6,45-363.8c-36.7-85.2-98.8-142.6-192.9-160.9c-15.5-3-26.5-1.4-38.1,10.5c-37,38.1-82.3,63.8-131.9,82.2
	c-40.6,15.1-82.8,19.8-125.9,20.1c-25,0.2-35.9,13.8-32.2,38.4c1.4,9.3,4.7,18.4,7.6,27.4c12.2,38.3,19,77.2,18.9,117.6
	c-0.1,50-8.8,98.3-24.4,145.5c-4.3,12.9-8.2,25.5-1,38.5C2006.4,3012.2,2088.4,3064.9,2178,3070.7z M2628.8,1322.2
	c2.3,5.8,3.1,8.6,4.4,11.1c65.9,123.3,65.7,248.9,12.7,376.1c-10.3,24.7-8.4,32.2,14.4,47c6.4,4.1,13.3,7.4,20,10.9
	c34.4,18,68.6,36.6,103.5,53.7c14.2,7,29.8,14.7,45.1,15.4c88.2,3.9,167.7-20.8,231.7-83.2c101.8-99.2,127.8-262.5,64.3-389.8
	c-62.4-125.1-202-192.4-327-159.4C2727.3,1222.6,2670.3,1260.6,2628.8,1322.2z M1972.9,1286.6c21-127.3,20.1-250.3-18.9-371
	c-43.3-133.7-112.1-252.3-217.4-352.6c-16,22.6-29.8,42.2-43.9,62.2c18.8,15.3,36.4,27,50.8,41.8
	c154.3,157.3,222.8,345.5,200.1,565.4C1941.1,1257.1,1949.8,1271.8,1972.9,1286.6z"/>
<path d="M2242.3,2145.9c-3.1,81.3-29.7,145.6-85.9,195.7c-13.8,12.3-31,21.9-48.1,29.2c-16.1,6.8-25.7,1.6-33.8-11.8
	c-9.1-15.1-8.1-30,3.4-41.7c4-4,8.5-7.8,13.5-10.4c65.3-34.8,83.6-94.4,86-162.4c0.3-7.6-0.5-15.2-0.4-22.8
	c0.5-21.8,6.5-29.7,24-32.1c18.7-2.6,34,7.1,38.2,26C2241.9,2127.6,2241.8,2140.1,2242.3,2145.9z"/>
<path d="M1430.5,1525.5c13.7-92.9,53.1-168.3,140.2-212c6.6-3.3,14.3-5.3,21.7-6.3c16.6-2.1,29.5,6.6,35,22.5
	c5.1,14.7,0.7,28-12.6,37.2c-4.7,3.2-9.8,5.7-15,8.2c-62.5,30-92.2,82.1-100.6,148.7c-0.7,5.7-0.8,11.4-2.1,17
	c-4.1,18.6-12.4,26.7-27.6,27.6c-15.4,0.9-30-8.4-35.3-23.6C1432.1,1538.6,1431.7,1531.8,1430.5,1525.5z"/>
<path d="M2491.4,1530.8c0-9.5-0.7-19,0.2-28.4c1.3-14.8,10.1-24.3,24.4-28c13.2-3.4,28.2,4.1,35,18.1c3.6,7.5,6.9,16.1,7.1,24.2
	c2.5,89.8-23.5,168.2-94.2,227.5c-9.2,7.7-20.5,13.7-31.8,18.2c-16,6.3-26.8,2.4-34.8-9.6c-9.7-14.5-9.3-29.8,1.7-41.8
	c3.8-4.2,8.4-7.7,13.1-10.8c58.2-38,77.6-95.1,79.6-160.9c0.1-2.8,0-5.7,0-8.5C2491.5,1530.8,2491.5,1530.8,2491.4,1530.8z"/>
<path d="M1373.6,2743c13-91.9,52.5-167.1,140.8-209.5c8.4-4,18-6.7,27.2-7.5c15.9-1.4,26.4,6.2,31,19.6c4.9,14.2,0.5,29-11.8,37.8
	c-3.8,2.7-8.1,5.1-12.5,6.8c-66.6,26-97.1,78.6-107.9,145.8c-1.2,7.5-1.9,15.1-3.7,22.5c-4.5,18.7-14.8,26.7-31.9,25.3
	c-16.8-1.3-28.1-11.8-30.7-28.4C1373.7,2751.7,1373.8,2747.9,1373.6,2743z"/>
<path d="M858.8,1512.4c-23-0.1-36-13.9-31.6-36.6c16.2-83.4,59.9-146.4,138.5-182.5c9.3-4.3,19.6-7.5,29.8-8.6
	c14.9-1.6,26.6,8.2,31.4,23.5c4,12.9-0.9,27.1-12.9,34.6c-5.6,3.5-12,5.6-18.2,7.9c-54.7,20.8-88.3,60.2-103.7,116
	c-2.8,10-5.6,20.1-9.2,29.9C879,1507.6,870.9,1513.3,858.8,1512.4z"/>
<path d="M851.6,1621.1c-17.8,0.1-31.9-13.7-32.6-32c-0.8-19,16.9-37.4,35.1-36.6c15.8,0.7,34.4,20.4,34,36.1
	C887.6,1605.5,870.3,1620.9,851.6,1621.1z"/>
<path d="M1252.3,1910.2c20.8-0.7,30.7,5,35.7,18.3c5.2,13.8,3,26.5-7.6,36.6c-5.4,5.1-12.5,8.4-19.3,11.8
	c-43.7,21.9-69.3,57.8-81.4,104.2c-4.3,16.5-7.3,33.4-12,49.8c-5,17.2-12.3,21.8-28.9,20.9c-17.2-1-26.5-8.5-28.4-25.8
	c-1.2-11.2-1.1-23,1.1-34c14.4-72.2,50.2-130.5,113.5-170C1235.1,1915.7,1247.1,1912.4,1252.3,1910.2z"/>
<path d="M1181,2225.4c0.4,18.5-15.3,33.6-34.8,33.6c-18-0.1-32.6-14.4-32.9-32.3c-0.3-19.3,12.2-34.3,29.6-35.3
	C1162.5,2190.2,1180.6,2206.4,1181,2225.4z"/>
<path d="M1629,3307.5c12.2-76.7,46.1-139.6,117.1-177.5c24.5-13.1,40-7.5,49.1,13.7c5.5,12.8,4.3,24.2-7.4,32.8
	c-8.4,6.2-16.8,12.4-25.8,17.6c-32.2,18.5-51.6,46.6-62.4,81.4c-4.8,15.4-8.5,31.1-14.2,46.2c-6.6,17.5-15.8,23.4-29.3,20.1
	C1641.6,3338.1,1625.9,3330.1,1629,3307.5z"/>
<path d="M1656.4,3445.3c-18,0.7-35.7-15.6-36-33.1c-0.3-15.2,18.5-35.6,34.1-37c14.9-1.3,34.4,17.8,35.5,34.6
	C1691,3427.2,1674.5,3444.6,1656.4,3445.3z"/>
<path d="M2817.4,2135.9c-5.6,75.3-27.3,138.5-80.2,187.8c-7.5,7-16.3,13.2-25.5,17.6c-17.8,8.6-31.5,5.2-40-8.2
	c-8.6-13.4-6.9-29.1,4.5-41.5c1.9-2.1,4-4.1,6.2-5.8c52.9-40.6,70.7-96.1,68.4-160.2c-0.6-16.4,2.9-29.9,19.7-37
	c19.8-8.3,36.5-1.8,42.7,18.7C2816.4,2118,2816.5,2129.6,2817.4,2135.9z"/>
<path d="M2755,1979.3c17.6,0.1,33.2,15,33.4,31.8c0.2,18.9-19.9,39.2-38.2,38.5c-15.8-0.6-31.2-17.3-31.8-34.4
	C2717.9,1997.2,2736.3,1979.2,2755,1979.3z"/>
<path d="M2444.2,2756.8c-7.5,78.2-38.9,146.5-101.7,198c-13.4,11-30.9,18.5-47.7,23.3c-17.7,5.1-25.4-0.6-32.1-15.2
	c-7.3-15.8-4.8-31.3,7.3-41.3c4.3-3.6,9.4-6.4,14.5-9c54-28.1,81.7-74.6,92.6-132.6c2.3-12.1,3.5-24.4,5.8-36.5
	c4.3-22.1,14.3-32.2,30.2-31c20,1.4,30.8,14.2,31.2,36.7C2444.2,2751,2444.2,2752.9,2444.2,2756.8z"/>
<path d="M2403.8,2607.2c17.4,0.1,30.8,14.6,31.1,33.6c0.3,18.6-12.8,31.3-32.4,31.3c-18.2,0.1-34.1-16.3-33.6-34.6
	C2369.5,2620.9,2385.3,2607.1,2403.8,2607.2z"/>
<path d="M3036.8,1510c0-6.6-0.4-13.3,0.1-19.9c1.5-18.6,10.1-27.4,28.2-29.7c17.9-2.2,28,4.3,33.7,22.8c1.9,6.2,3.1,13,3.1,19.5
	c0.1,63.7-17.1,121.9-58,171.4c-9.2,11.2-22.9,19.4-35.8,26.7c-10.8,6-22,3.1-30.1-7.7c-8.6-11.5-13.1-23.4-4.4-36.5
	c3.6-5.5,8.5-10.1,13-15.1C3024.4,1599.8,3037.5,1565.7,3036.8,1510z"/>
<path d="M3074.3,1387.3c0.6,18.7-16.2,36.8-35.2,38.1c-16.9,1.1-33.7-16.3-33.8-35.1c-0.1-18.6,17.9-36.4,36.8-36.5
	C3058.8,1353.7,3073.7,1369.2,3074.3,1387.3z"/>
</svg>
