<?xml version="1.0" encoding="utf-8"?>
<!-- Generator: Adobe Illustrator 24.3.0, SVG Export Plug-In . SVG Version: 6.00 Build 0)  -->
<svg version="1.1" id="Layer_1" xmlns="http://www.w3.org/2000/svg" xmlns:xlink="http://www.w3.org/1999/xlink" x="0px" y="0px"
	 viewBox="0 0 4000 4000" style="enable-background:new 0 0 4000 4000;" xml:space="preserve">
<path d="M1830.9,3409.8c-168.4,0.7-381.8-38.1-585.6-122.9c-227.7-94.7-422.3-235.7-580.3-425.8c-33.9-40.8-68-81.5-101.7-122.5
	c-24.7-30.1-54.5-52.6-91.4-66c-32.5-11.9-64.6-24.7-96.5-38c-69.8-29.1-117.5-80.9-146-149.6c-35.7-86.2-46.8-175.3-25.8-267.6
	c13.9-61.4,42.9-114,85.2-159.8c6.3-6.8,12.2-14,19.4-19.7c52.7-41.7,77.3-98.1,90.3-162.4c21-104.1,47.1-206.9,86-306
	c110.9-282.3,290-512.4,532.1-694c192.8-144.6,406.3-244.6,642-296.6c169.2-37.3,339.8-48.2,512.5-33.4
	c179.8,15.4,352.4,58.2,517.2,131.8c212.1,94.7,394.1,229.5,541.4,409.8c48.2,58.9,95.1,118.9,141.1,179.5
	c26,34.2,58,58.9,97.6,74.5c15,5.9,29.9,12.3,44.9,18.1c97.2,37.8,163.8,105.4,198.5,203.9c27.7,78.7,37.1,158.9,19.9,241.7
	c-14.6,70.3-49,128.7-99.2,178.8c-2.4,2.4-4.8,5.1-7.5,7.1c-71.6,51.4-105.8,123.9-125.9,207.8c-25.7,107.8-63.2,212-111.7,312.2
	c-90.3,186.5-214.8,346.4-369.9,483.2c-215,189.6-463.8,312-742.8,374.5C2154.4,3395.2,2012.6,3410.3,1830.9,3409.8z M1866.2,3254.9
	c87.3-7.6,175.1-11.3,261.8-23.8c153.7-22,301.2-66.4,442.3-132.8c235.2-110.7,426.4-272.6,575.2-485.3
	c97.9-139.9,161.4-294.8,202.6-459.7c8.4-33.5,19.4-66.4,30.2-99.2c23.7-71.6,70.7-126.1,128-172.8c46.5-37.9,73.1-86.9,73.6-146.7
	c0.3-34.2-4.3-69.1-12.3-102.4c-13.6-56.8-45.6-100.4-103.4-120.7c-9.8-3.4-18.9-8.7-28.7-12c-88.5-30.4-155.5-88.4-209.8-163
	c-27.8-38.2-56.1-76.2-85.3-113.4c-136.7-173.9-306.2-306.8-508.1-396.6c-263.7-117.2-539.1-156.8-825.2-114.4
	c-310.2,46-580.7,175.8-812.5,386.7c-149.9,136.4-265,297.7-344.6,484.1c-43.2,101.2-72.4,206.8-93.1,314.7
	c-19.5,101.4-58.6,192.1-140.3,259.3c-46.9,38.5-62.5,89.5-64.8,146.9c-4.5,111.9,34.7,169.1,140.1,205.2c8.7,3,17.1,7,25.9,9.8
	c62.2,19.5,114.3,54.8,156.8,103.7c36.3,41.8,70.2,85.6,105.8,128.1c111.6,133.2,241.9,243.9,394.8,327.1
	C1390.5,3194.6,1621.2,3250.8,1866.2,3254.9z"/>
<path d="M3076.2,2449.5c-4.9,11.3-11.1,28.7-19.7,44.8c-57.9,107.6-132.3,202.5-222.6,284.6c-96.2,87.4-203.2,158.9-322.6,211
	c-9.5,4.1-19,8.4-28.9,11.5c-21.9,7-35.1,1.8-46.7-17.3c-11.7-19.3-10-39,7.5-52.7c11.6-9,25.7-15.1,39.3-21.2
	c153.7-69.2,287.1-165.6,394.7-296.1c40.5-49.1,74.8-102.2,102.7-159.5c7-14.5,14.2-29.2,23.7-42c11.5-15.6,26.6-17.6,46.6-9.7
	C3067.9,2410.1,3078.3,2425.8,3076.2,2449.5z"/>
<path d="M1465.2,928.1c23.5-0.5,39.6,10.5,45.8,27.2c6.2,16.6,2,35.7-13.4,46.4c-13.1,9.1-28.2,15.6-42.8,22.2
	c-123,55.9-233.7,129.6-329.2,225.6c-63.1,63.4-114.9,135.1-157.7,213.6c-6,11.1-12.5,22.3-20.8,31.7c-12.8,14.6-30.7,16.9-47,8.3
	c-15.5-8.1-25.7-26.3-21.3-43.2c3.4-13.2,9.2-26.1,16-37.9c116.6-202.9,281.3-354.5,490.5-458.5c18.6-9.2,37.2-18.4,56.1-26.9
	C1450.8,932.2,1460.8,929.6,1465.2,928.1z"/>
<path d="M835.1,1609.4c25.1,0.6,48.2,24.4,47.9,49.4c-0.3,27.2-21.2,46-49.9,44.9c-24.6-1-44.5-22.4-44.2-47.7
	C789.2,1631.8,811.9,1608.8,835.1,1609.4z"/>
<path d="M3114.4,2292.6c-25.4,0-44.3-19.9-44.5-46.6c-0.2-24.8,20.3-47.6,43.6-48.6c25-1.1,48,21.7,48.2,47.7
	C3162,2272.9,3142.3,2292.7,3114.4,2292.6z"/>
<path d="M1666.1,862.9c24.8-0.3,46.6,20.1,47.6,44.7c1.2,27.8-18.8,49-45.9,48.5c-26.3-0.5-45.8-21.7-45.7-49.9
	C1622.2,882.4,1641.7,863.2,1666.1,862.9z"/>
<path d="M2317.3,3029.2c-0.1,26.2-21.9,47.2-48.9,47c-23.4-0.1-42-20.3-41.7-45.1c0.3-24.4,21.9-47.6,45-48.3
	C2295.9,2982.1,2317.4,3003.9,2317.3,3029.2z"/>
</svg>
