<?xml version="1.0" encoding="utf-8"?>
<!-- Generator: Adobe Illustrator 24.3.0, SVG Export Plug-In . SVG Version: 6.00 Build 0)  -->
<svg version="1.1" id="Layer_1" xmlns="http://www.w3.org/2000/svg" xmlns:xlink="http://www.w3.org/1999/xlink" x="0px" y="0px"
	 viewBox="0 0 4000 4000" style="enable-background:new 0 0 4000 4000;" xml:space="preserve">
<path d="M1510.7,1044.4c-15.4-1.7-31-2.8-46.3-5.3c-235.6-38.9-453-120.6-638.6-275c-82.1-68.3-154.1-145.8-203.4-241.9
	c-6.2-12-12.2-24.2-17.2-36.8c-10.8-27.2-7.5-34.9,19.8-47c54-24,111-38.9,169.1-46.6c335.2-44.3,637.5,40.6,908.6,239
	c75.7,55.5,140.8,123.4,192.7,202.7c3.5,5.4,8.3,10,15.6,18.5c4.6-12.6,8.5-21.3,11-30.5c55-195.4,132.7-381,239.3-554.2
	c11.8-19.2,24.2-38.2,37.8-56.1c27.6-36.1,60.6-37.1,95.3-15.2c33.8,21.4,41.1,62.3,18,98.1c-24.4,37.9-51.4,74.1-75.7,112.1
	c-71.3,111.7-128.3,230.5-171.2,355.9c-1.7,5.1-2.3,10.5-5,23.5c13.6-11.4,22.4-17.5,29.8-25c117.6-118.3,257.8-200,414.5-254.3
	c157.1-54.4,318.5-82.1,485.3-74.6c97.7,4.4,192.4,23.2,284.1,56.7c64.9,23.7,69.2,35.6,39.3,96c-45.5,91.9-113,165.7-192.8,228.3
	c-173.7,136.2-372.3,214.3-589.5,246.2c-54.6,8-110.1,9.7-165.1,14.3c-5.4,0.5-10.8,1.1-18.4,1.8c2.9,4.3,4,7.7,6.3,9
	c186.1,108.7,313.1,268.8,403.2,461.4c86.2,184.3,129.3,379.2,145.5,581.1c15.1,188,3.4,374.4-32.2,559.1
	c-36.4,189.4-94.8,371.5-192.9,539c-100.2,171.2-227.6,316.7-400.9,417.8c-157.5,91.9-327.8,132.8-509.5,118.7
	c-216.8-16.8-405.5-100.2-564.5-249.3c-125.7-118-214.7-260.3-277.8-419.8c-65.3-165.1-102.3-336.5-113.6-513.3
	c-4.8-74.2-9.4-149-6-223.1c14.8-320.6,90.2-624.4,263.9-898.4c93.7-147.7,211.3-272.6,363.2-362.5c26-15.4,53.2-28.7,79.8-43
	C1511.7,1049.3,1511.2,1046.9,1510.7,1044.4z M1873.4,1071.4c-43.2,6.2-81.1,10.3-118.5,17.2c-143.7,26.9-272.5,86.3-384.5,180.6
	c-121.8,102.6-214.7,228.2-286,369.6c-99.3,196.9-151.9,407.3-171.2,626.2c-14,158-6.6,315.5,19.8,472.1
	c31,184.3,87.8,359,190.1,517c111.5,172.1,259.9,299.3,456.3,364c218,71.9,429.8,51.8,631.4-57.4
	c168.8-91.4,290.8-230.5,383.8-395.5c138.8-246.3,195.2-514.9,207.4-794.4c5.5-127.6-0.6-254.8-20.4-381.3
	c-26.7-170.9-75.2-334.2-162.2-484.9c-66.8-115.7-150.1-216.6-261.1-293.1c-100.2-69.1-210.9-111.3-330.5-131.4
	c-16.3-2.7-32.8-4.2-53.8-6.8c-3.2,32.6-6,60.9-8.8,89.7c8.5,2.4,12.7,4.4,17,4.7c42.7,2.5,81.1,19.2,118.5,37.7
	c18,8.9,35.7,20.1,50.1,34c42.6,40.9,39,96.5-9,130.6c-18.9,13.4-41.4,23.5-63.7,30.2c-113,33.6-225.4,25.7-335.7-12.3
	c-23-7.9-45.5-20.9-64.4-36.3c-50.5-41.2-48-103.9,6.6-139c26-16.7,56.6-27.7,86.6-36.2c29.9-8.5,61.6-10.7,94.2-15.9
	C1868,1132.3,1870.4,1105.8,1873.4,1071.4z M3244.8,587.9c-34.8,0.9-1146.8,359.2-1173.4,377.3c4.5,2.5,7.9,5.4,11.9,6.4
	c98.9,23.5,198.6,43.2,300.8,39.8c212.3-7,411.1-62.9,593.9-172.5c94.7-56.8,178.6-126,243.9-216.1
	C3229.4,612.1,3236.2,600.9,3244.8,587.9z M1844.3,965.3c-23-23.4-1008.3-402.5-1125.9-440.1c-6.9-2.2-14.4-2.5-27.1-4.5
	c6.4,12.3,9.3,20.7,14.4,27.4c46.5,61.1,96.1,119.3,155.9,168.5c102.1,84,216.1,146.7,339.6,192.6c163.8,60.8,332.4,91.4,507.4,76.5
	C1754,981.7,1799,972.2,1844.3,965.3z M726.8,465.6c-0.4,3.5-0.8,7-1.3,10.5c19.9,6.6,40,12.6,59.6,20
	c122.5,45.8,245.1,91.1,367.1,138.1c227.3,87.4,454.2,175.8,681.3,263.6c10.6,4.1,22.1,6,40,10.8c-8.8-15.1-12.7-23.1-17.8-30.3
	c-57-80.7-123.2-152.5-202.7-211.9c-120.1-89.7-254.6-148.8-398.4-188.2c-136.4-37.3-275-50-415.6-32.7
	C801.5,450.1,764.3,458.8,726.8,465.6z M2043.5,912.3c384.8-123.5,769.6-247,1154.3-370.7c4.8-1.5,8.7-5.7,14.4-9.6
	C2863.2,407.5,2290.3,557.5,2043.5,912.3z M1957.3,1214.6c-0.7,14-1.5,24.9-1.8,35.8c-0.5,19.1-0.1,38.3-1.3,57.4
	c-0.9,14.1-6.4,25.8-20.5,32.4c-35.1,16.3-70-3.5-72.3-42c-1-16.8-0.3-33.8-0.4-50.7c0-11.9,0-23.8,0-37.7
	c-47.4,5.8-88.8,15.8-128.2,32.9c-19.7,8.5-41.7,17.6-42.4,43c-0.8,26.7,20.8,37.5,41.6,47.6c78.6,38.4,162.1,44.3,247.3,36
	c42.6-4.2,85.1-10.8,123.4-31.9c37-20.4,40.3-43.5,8.1-70.6C2067.7,1230.6,2015.5,1219.3,1957.3,1214.6z"/>
<path d="M1099.8,1994.5c6.5-87.3,31.2-166.7,65.8-242.9c28.9-63.7,63-125.1,110.4-177.2c21-23,44.8-45.1,71.3-61.1
	c63.2-38.3,123.8-10.6,136.7,62.1c4.4,24.7,2,51.8-2.7,76.8c-28.3,150.3-91.2,284.7-191.3,400.6c-16.5,19.1-38.1,36.1-60.7,47
	c-61.8,29.9-112.4,2.8-125.9-64.6C1100.5,2021,1100.7,2006.2,1099.8,1994.5z M1143.7,1992.4c1.3,0.3,2.5,0.6,3.8,0.9
	c0.5,10.1,0.2,20.4,1.7,30.3c5.7,37.9,28.8,50.1,62.5,31.1c15.4-8.7,29.1-21.2,41.7-33.9c52.6-52.5,88.1-116.5,120.4-182.4
	c28.3-57.8,52.9-117.2,63-181.1c4-25.3,5.6-51.8,3.3-77.2c-3.2-34.7-26.3-47.6-57-31.7c-20.6,10.7-40.1,25.4-56.3,42
	c-77.5,79.1-124.3,176.1-156.7,280.4C1157.9,1910.3,1152.3,1951.8,1143.7,1992.4z"/>
<path d="M2388.7,2495.5c0.4,59.3-44.6,103.8-105.1,103.9c-57.6,0.1-109.3-47.1-109.1-102.7c0.2-55.4,41.9-110.3,104.8-110.2
	C2340.2,2386.6,2388.3,2434.1,2388.7,2495.5z"/>
<path d="M1549.7,2495.5c-0.2,57.3-45.3,101.5-103.9,102.1c-58.8,0.5-105.8-46.1-105.4-104.6c0.4-59.6,45.8-105.9,104.2-105.9
	C1504.2,2387,1549.9,2434.2,1549.7,2495.5z"/>
<path d="M1863.7,2715.3c-78.6-0.7-140-54.2-151.3-132.1c-1-6.6-1.7-13.6-0.8-20.1c1.8-13.1,11-19,23.4-20.3c11.4-1.2,20.2,3,24,14.1
	c4.7,13.8,7.5,28.4,12.8,41.9c20.6,52.3,73.3,76.4,123.5,56.6c26.6-10.5,45.4-28.9,53.2-57.1c3-10.8,4.9-22,7.8-32.9
	c3.4-13.1,10.4-23.2,25.7-21.6c15.2,1.6,24.1,11.3,26.9,26.1c0.8,4.3,0.4,9,0,13.5C2002.6,2660,1941,2716,1863.7,2715.3z"/>
</svg>
