<?xml version="1.0" encoding="utf-8"?>
<!-- Generator: Adobe Illustrator 24.3.0, SVG Export Plug-In . SVG Version: 6.00 Build 0)  -->
<svg version="1.1" id="Layer_1" xmlns="http://www.w3.org/2000/svg" xmlns:xlink="http://www.w3.org/1999/xlink" x="0px" y="0px"
	 viewBox="0 0 4000 4000" style="enable-background:new 0 0 4000 4000;" xml:space="preserve">
<path d="M1017.8,2927.9c-2.7-45.7-6.6-87.2-7.3-128.9c-1.3-75.4,14.8-148.8,31.9-221.5c34.3-146.4,41.1-293.7,23.8-442.7
	c-16.1-138.6-34.6-277-47.3-415.9c-14.9-163.4-14.2-326.8,20.4-488.3c52.7-245.9,170.9-453.7,363.9-616.7
	c158-133.4,341-211.5,545.3-239.6c47.3-6.5,95.2-8,142.9-11.8c6.8-0.5,13.6-1.2,21.7-1.9c0-8,0.9-14.7-0.2-21.1
	c-6.8-40.3-12.6-80.8-21.5-120.7c-11.2-50.7,21.8-80.6,58.2-89.2c25-6,51-9.6,76.8-10.4c40.6-1.3,60.1,15,71.1,54.1
	c2.1,7.5,4.6,14.8,7.5,23.9c19.2-7.6,36.5-14.9,54.1-21.4c182.2-67,360.4-54,533.9,29.5c171.6,82.6,296.1,213.3,382.8,381.5
	c63.5,123.3,106.7,253.3,130,389.9c1.3,7.8,2.6,15.8,3.2,23.7c3.1,40.7-12.9,60-53.2,62.8c-38.8,2.7-77.7,4.2-116.5,6.4
	c-23.8,1.4-47.6,3.3-73.6,5.1c1.2,7.6,1,13.4,3.1,18.2c59.6,135.5,89.4,278.6,107.9,424.5c15.8,125.1,18.5,250.8,7.9,376.2
	c-24.1,284.3-99.1,552.5-256.8,794.1c-37.7,57.8-41,47.1-52.8,139.3c-17.7,139.4-75.8,266-155.2,381.8
	c-154.2,224.8-354.4,395.2-604.8,505.3c-135.4,59.5-276.9,94.2-423.9,108.5c-88.6,8.7-177.1,10.3-265.7,0
	c-127.4-14.7-250.9-44.3-368.7-96.3c-182.1-80.2-337.4-196-464.7-348.7c-58.3-69.9-107.4-146.1-146.2-228.7
	c-5.9-12.6-11.2-25.6-15.4-38.9c-14-43.9,0.7-72.3,44.9-84.1c32.7-8.8,65.8-16,98.9-23.2c106.1-22.9,212.3-45.4,318.4-68.2
	C1001.3,2933,1009.7,2930.1,1017.8,2927.9z M2982.3,2592.3c10.6-17.7,19.8-31.6,27.6-46.3c128.7-242.8,185.9-503.5,189.6-776.6
	c1-72.6-3.8-145.6-10.5-217.9c-16.3-176.1-59.4-345.4-137.6-504.9c-6.5-13.3-14.3-20.3-29.4-20.1c-54.4,0.8-106.7-11.9-159.1-24.6
	c-93.3-22.7-178.2-63.7-255.8-119.6c-135.9-97.9-229.8-228.1-290.2-383.1c-7.9-20.2-18.3-30.5-40-33.3
	c-143.9-18.8-286.1-14.5-427.1,23.2c-165,44.2-311.8,120.8-435.9,238.8c-154.6,147-247.5,328.1-290.1,535.8
	c-35.3,172.1-28.6,345.3-9.6,518.3c16,145.6,41,290.3,48.5,436.8c2.9,56.6,0.7,113.5-1.6,170.2c-3.5,87-23,171.8-41,256.6
	c-13.3,62.8-18.9,126.2-15.4,190.2c1.6,29.7,5.1,59.4,17.8,89c8.1-0.5,16-0.1,23.5-1.6c100.6-20,201.2-40,301.7-60.6
	c242.9-49.9,485.8-100,728.6-150.3c188.2-39,376.3-78.7,564.5-117.4c22.1-4.5,37.1-15.4,50.3-33.5
	c89.4-123.9,148.2-261.2,182.7-409.5c2-8.7,3.2-18.5,8.1-25.3c3.7-5.1,12.8-8.4,19.6-8.5c8.8-0.2,14.3,6.3,13.4,16.1
	c-0.6,5.9-1.4,11.9-2.7,17.7c-30.2,131-74.9,256.3-147.2,370.6c-8.2,12.9-15.2,26.6-23.9,41.9c7.3,0.6,10.4,1.6,13.1,0.9
	c9.6-2.6,19-5.7,28.5-8.7C2933.8,2540,2947.8,2544.4,2982.3,2592.3z M689.5,3068c11.4,21.1,20.9,40.5,32,59
	c82.5,137.8,194.4,246.7,329.1,333.1c139.6,89.6,292.1,140.9,457.6,151.5c183.2,11.7,362-11.4,535.3-73.4
	c224.5-80.3,415.9-209.5,570.3-391.3c107.7-126.8,183.2-270.2,212.7-435.5c5.2-29,11.4-58.4,7.1-88.3
	C2797.9,2622.9,732.8,3050.7,689.5,3068z M2590.1,464c0.9,11.6,1,20.5,2.5,29.2c5.8,34.4,12,68.7,18,103.1
	c7.5,43.2,15,86.4,22.1,129.7c1.8,10.8,4.2,22.7-12.1,25.4c-13.5,2.2-17.2-6.7-19.9-17c-3.3-12.5-7.8-24.8-10.1-37.5
	c-13.7-76.5-28.2-152.9-39.7-229.8c-3.4-22.9-13-35.2-32.9-44.5c-67.7-31.8-134.7-64.9-202.1-97.3c-3.1-1.5-6.9-1.4-10.2-2
	c-1,3.6-2.1,5.5-1.9,7.3c0.5,4.9,1.1,9.9,2.3,14.7c37.2,146.3,101.3,278.3,202.1,392.1c136.2,153.6,307.8,234.5,510.8,247.2
	c91.3,5.7,183.3,0.9,275,0.7c4.3,0,8.6-2.3,15-4.1c-95.6-99.9-195-190.8-310.2-265.1c-1.3,11.9-0.4,22.4,2.1,32.5
	c10.6,42.5,21.8,85,32.7,127.5c2,7.7,3.8,15.5,5.1,23.3c1.5,9.3-2.6,16.8-11.9,17.1c-5.6,0.2-13.7-3.5-16.8-8.1
	c-4.9-7.2-7.1-16.4-9.4-25c-16.6-61.6-33.9-123-48.8-185c-4.8-20.2-14.2-34.1-31.2-44.7c-40.5-25.4-80.6-51.6-121.1-77.2
	c-4.5-2.8-10.2-3.8-17.9-6.5c1.1,10.7,1.3,18.6,2.9,26.2c17.5,84.9,35.1,169.8,52.8,254.8c1.4,6.8,3.3,13.6,3.9,20.5
	c0.9,9.7-1.8,18-12.5,20.9c-11.3,3.1-16.7-3.8-20.1-12.8c-2.1-5.5-3.8-11.4-5-17.2c-19.6-92.6-40.9-184.9-57.5-278
	c-5.7-32.2-17.8-52.3-47.3-65.6c-29.9-13.5-58.1-30.9-87.1-46.2C2605.8,469.3,2599.2,467.5,2590.1,464z M2904.1,2614.9
	c-22.5,1.8-23,1.7-25.5,12.2c-1.6,6.7-1.8,13.8-2.4,20.8c-11.4,133.8-56.3,256.7-124.1,371.2c-122.1,205.9-293.7,360.5-503.4,473.7
	c-162.6,87.8-337.1,136.8-520.4,156.8c-130.1,14.2-258.9,8.5-386.1-22.3c-259.2-62.8-462.8-207.9-618.5-422.2
	c-25.1-34.6-45.1-72.8-67.8-109.2c-12.2-19.6-18-20.2-40.7-6.1c0.3,2.8-0.1,6.1,1.2,8.6c7.6,15.2,14.9,30.4,23.4,45.1
	c85.1,148.2,196.6,272.9,333.8,374.8c180.3,134,383.5,204.4,606.7,220.6c116.4,8.5,231.6-2.8,344.8-27.3
	c304-65.6,555.9-219.1,753.2-460c128.7-157.2,212.9-333.8,225.7-539.7C2905.8,2680.4,2904.1,2648.6,2904.1,2614.9z M3305.8,919.7
	c1.2-8.3,2.3-11.2,1.9-13.9c-0.8-5.9-2.2-11.7-3.8-17.5c-20.2-75.2-44-149.2-78.3-219.2c-64.4-131.6-147-248.4-269.7-333
	c-186.3-128.6-384.2-163-597.5-75.3c-13.1,5.4-25.3,13-42.4,22c12.2,6.7,18.7,10.9,25.6,14.1c61.5,28.5,123.7,55.3,184.2,85.8
	c22.9,11.6,41.6,12.6,64.7,2.9c62.5-26.1,125.8-50.3,188.9-74.9c10.1-3.9,20.9-6.7,31.6-8.5c9.6-1.7,17.8,1.6,21.4,11.9
	c3.7,10.7-1.9,17.2-10.7,21.6c-6.2,3.2-12.7,5.9-19.1,8.4c-51.9,20.3-104.1,40.1-155.8,60.9c-11.2,4.5-24.2,7.7-32,19.8
	c35.3,19.4,69.9,37.1,103.1,57.2c17.9,10.8,33.7,12,53.4,5.7c66.4-21.1,133.4-40.5,200.2-60.3c8.5-2.5,17.5-3.8,26.4-4.5
	c8.3-0.7,16.2,1,18.2,11.2c2.1,10.4-2.4,17.5-12,21.2c-8.4,3.2-17,5.6-25.5,8.4c-52.1,17-104.2,33.8-156.1,51.1
	c-7.9,2.6-15,7.6-23.4,12c41,26.2,79.8,50.1,117.5,75.4c15.4,10.3,29.7,13.1,47.6,7.9c38.3-10.9,76.9-20.7,115.8-29.3
	c20.3-4.5,41.3-6.2,62.1-7.3c5-0.3,14.4,6.5,14.7,10.5c0.5,6.6-3,16.3-8.1,19.8c-7.9,5.3-18.4,6.8-28.1,9.2
	c-32.9,8.1-65.9,15.6-98.7,24c-11.1,2.9-21.7,7.8-36.9,13.5C3100.3,734.5,3208.8,817.7,3305.8,919.7z M2225.5,206.7
	c-18.5,3.5-33.5,6.3-50.7,9.6c3.1,18.8,5.7,34.2,8,49.7c5.7,37.3,11.2,74.6,16.8,111.9c1.3,8.3,4,15.7,14.4,15.5
	c11.3-0.2,15.7-7,15.9-17.3c0.2-6.9-0.1-13.9-0.4-20.8c-1.4-35.7-3-71.4-4.2-107.1C2225.1,235.4,2225.5,222.7,2225.5,206.7z"/>
<path d="M2303.3,1844.6c0.4-52.3,43.5-96.7,93.9-96.7c51.9,0,97.5,45.9,96.8,97.3c-0.8,54.6-43.5,97.1-96.8,96.5
	C2347.2,1941,2302.9,1895.2,2303.3,1844.6z"/>
<path d="M1768.9,1847.4c0.3,51.1-38.5,90.6-90.2,91.6c-53.9,1.1-93.3-37.1-93.6-90.6c-0.3-50.7,42.6-95.5,91.5-95.5
	C1727.1,1753,1768.6,1795.4,1768.9,1847.4z"/>
<path d="M2041.8,2066.4c-63.5-3.9-114.4-45-127.1-106c-1.8-8.7-2.1-17.8-2.3-26.7c-0.2-12.3,4.6-21.3,18-23.4
	c13.4-2.1,20.5,5.1,24.1,16.8c3.5,11.4,5.9,23.2,10.1,34.3c12.1,32.3,46.4,53.9,82.3,52.7c36.2-1.3,67-25.3,76.8-60.1
	c2.2-7.7,3.2-15.6,5.2-23.3c4.3-16.8,10.2-21.3,24.2-19.3c14.9,2.1,20.1,11.5,19,25.3c-3.7,48.7-22.4,89.3-68.1,111.3
	C2084.7,2057.3,2062.6,2060.5,2041.8,2066.4z"/>
<path d="M2996.8,2029.3c2.2-27.7,4.4-55.3,6.6-83c1.1-12.8,4.2-23.8,20.6-23c13.8,0.7,20.2,6.6,19,24c-2,31.6-6.3,63.1-9.4,94.6
	c-1.4,14.3-8.2,21.8-23.3,20.2c-15.5-1.6-15.6-12.4-14.6-24c0.3-3,0.5-5.9,0.8-8.9C2996.7,2029.3,2996.7,2029.3,2996.8,2029.3z"/>
<path d="M1504.7,2079.2c-16,0.8-24.8-7.8-22.9-20.3c1.1-7.7,4.2-15.3,7.5-22.5c10.4-22.5,20.4-45.3,32.3-67
	c7.9-14.4,17.7-16.4,29.6-9.9c11.6,6.3,10.7,16.2,6.3,25.7c-13,27.9-26.3,55.6-40.4,82.9C1514.1,2073.5,1507.4,2076.8,1504.7,2079.2
	z"/>
<path d="M2518.7,2079.5c-5.7-8-10.6-12.6-12.5-18.3c-1.5-4.2-0.4-10.3,1.6-14.5c13.7-28.7,27.7-57.3,42.3-85.5
	c5-9.7,13.2-14.8,24.8-8.5c11.6,6.3,11.3,16.4,6.9,25.8c-13,28-26.4,55.9-41.1,83C2537,2068.3,2527.9,2072.2,2518.7,2079.5z"/>
<path d="M2471.4,2061c-16.1,1.3-28.6-10-23.8-21.8c10.4-25.7,22.9-50.6,36.3-74.8c5.5-9.9,17.7-11.2,26.1-3.8
	c4.4,3.9,7,14.9,4.8,20.3c-9.8,23.9-21.4,47-33.1,70.1C2479.3,2055.7,2473.7,2058.8,2471.4,2061z"/>
<path d="M1447.2,2065.7c-16.1-1.5-26-14.3-21.1-26.3c10.2-24.7,21.9-48.9,34.3-72.6c4.9-9.4,13.9-13.8,25.3-8.1
	c12.3,6.2,10.4,15.9,6.3,25.4c-10,22.7-20.2,45.4-31.4,67.6C1457.4,2058,1450.5,2062.4,1447.2,2065.7z"/>
<path d="M1550.5,2062.5c6.7-33.9,19.4-60.6,37-84.9c5.9-8.1,16.3-11.3,23.4-4.2c5,5.1,8.9,16.9,6.4,22.9
	c-10.3,24.6-22.5,48.5-35.7,71.8c-2.9,5-13.3,9.6-18.9,8.3C1557.2,2075.2,1553.5,2066.3,1550.5,2062.5z"/>
<path d="M2641.1,1981.8c-1.9,7-2.5,12-4.6,16.3c-10.4,21.2-20.7,42.5-32.3,63.1c-2.9,5.2-9.9,10.1-15.8,11.2
	c-11.7,2.3-21.1-8.5-16.1-21c10.5-26.4,23.2-52.1,36.7-77.1c2.5-4.7,13.8-7.4,20.2-6.3C2633.9,1968.9,2637.4,1977.3,2641.1,1981.8z"
	/>
<path d="M1564.9,3140.9c-1.8,46.7-39.8,82.9-85.8,81.8c-39.9-0.9-75.1-40.6-73.6-82.8c1.7-46.8,39.3-84.6,81.4-82
	C1530.5,3060.6,1566.6,3099.1,1564.9,3140.9z"/>
<path d="M2092.6,2947.1c54,1.7,76.6,47.2,76.8,85.6c0.3,44.2-39.3,78.5-85.4,75.9c-41.6-2.3-76.4-42.5-74.1-85.4
	C2012.3,2978.5,2048.2,2945.5,2092.6,2947.1z"/>
<path d="M1799.2,3260.7c-48.5-0.3-84.2-25-100.8-69.9c-1.7-4.7-3.8-9.4-4.4-14.2c-1.3-12.5,4.3-23,16.1-25
	c6.8-1.1,16.7,4.3,22.1,9.9c6.7,6.9,9.9,17.1,15.2,25.6c16.7,26.7,39.1,34.8,72.1,26.4c31.4-8,44.7-24.4,46.3-57.2
	c0.3-6,0.1-12,0.3-17.9c0.5-12.2,4.7-21.4,18.6-22.6c14.2-1.2,22.7,6.4,26.8,18.8c1.8,5.5,1.5,11.8,1.3,17.7
	C1910.4,3219.4,1866.6,3261.1,1799.2,3260.7z"/>
<path d="M1411.5,3254.6c0.9,33.8-7.2,64.3-18.8,93.9c-6.3,15.9-11.2,16.3-35.6,9.5c-0.9-34,8.8-65.9,23.6-96.3
	C1386.4,3250.1,1387.9,3250.9,1411.5,3254.6z"/>
<path d="M2214.4,3197.6c0.1-30.2,2.3-59.5,10.6-87.9c5.3-17.9,11.1-19.6,35-14.6c4.9,32.8-3.3,64-14.1,94.7
	C2241.3,3202.7,2230.3,3203,2214.4,3197.6z"/>
<path d="M2268.1,3190.1c0.4-29.8,6-57.6,14.9-84.5c1.9-5.7,11.1-12.4,17.1-12.6c10.8-0.3,14.8,10,13.2,19.2
	c-4.2,23.2-9.5,46.2-15.4,69.1C2294.2,3195.4,2283.3,3195.1,2268.1,3190.1z"/>
<path d="M2193.6,3196.4c-28.8,2.1-32.3,0.3-29.7-21.2c2.4-19.6,8.1-38.8,12.9-58c2.4-9.4,8.6-18,18.8-13.7
	c5.4,2.3,11.4,12.5,10.7,18.4C2203.5,3146.5,2198.2,3170.8,2193.6,3196.4z"/>
<path d="M1459.8,3261.2c5.8,27.9-4.1,53.8-13,79.3c-1.6,4.6-12.7,8.5-19,8c-3.8-0.3-10.5-10.1-9.9-14.8c3-21.3,7.2-42.7,13-63.4
	C1433.8,3260.1,1437.8,3260,1459.8,3261.2z"/>
<path d="M1357.7,3281.2c-7.4,23.5-13,44.5-21.1,64.6c-2.1,5.1-12.2,9.5-18.6,9.6c-10.2,0.2-12.4-9.4-10.5-17.5
	c4.8-21.1,10.4-42.1,16.6-62.8c2.7-9.1,10.3-17.1,19.8-12.7C1350.3,3265.4,1353.5,3275.1,1357.7,3281.2z"/>
</svg>
