<?xml version="1.0" encoding="utf-8"?>
<!-- Generator: Adobe Illustrator 24.3.0, SVG Export Plug-In . SVG Version: 6.00 Build 0)  -->
<svg version="1.1" id="Layer_1" xmlns="http://www.w3.org/2000/svg" xmlns:xlink="http://www.w3.org/1999/xlink" x="0px" y="0px"
	 viewBox="0 0 4000 4000" style="enable-background:new 0 0 4000 4000;" xml:space="preserve">
<path d="M780.9,2513.6c0-374.3,0.4-748.6-0.5-1123c-0.1-41.8,8.7-79.2,26.1-117.1c119.1-258.1,236.7-516.9,355.1-775.4
	c10.1-22,13.3-43.7,12.5-68.1c-2.4-76.9-2.2-154-2.3-231c-0.1-69.1,60.7-125.4,125.5-122.6c118.6,5.1,237.3,6.2,356,9.7
	c188.1,5.5,376.2,11.3,564.3,17.6c157.1,5.3,314.2,11.7,471.2,17.3c55.2,2,89.5,32,106.9,81.7c7.3,20.8,11.3,43.7,11.8,65.8
	c1.7,77,2.3,154,1.2,231c-0.4,29.1,7.3,54,21.4,78.8c88.3,155.1,176.1,310.5,263.6,466c56.8,101,57.1,101.2,57.3,217.7
	c0.5,387.1,0.5,774.3,0.7,1161.4c0.2,335.8,0.3,671.6,0.4,1007.4c0,18.2-2.2,36.5-0.8,54.5c2.2,28.2-12.6,43.4-36,54.2
	c-30.1,13.9-60,28.2-89.6,42.9c-180.8,90.1-361.6,180.2-542,271c-25.8,13-51.7,18.8-80.2,16.2c-104.3-9.6-208.6-19.1-313-28.1
	c-111.8-9.7-223.7-19-335.5-28.3c-90.6-7.5-181.1-14.8-271.7-22.1c-97-7.8-193.9-15.3-290.9-23.3c-119.3-9.9-238.6-19.5-357.8-30.7
	c-39.9-3.8-49-15.7-50.8-55.9c-1.1-24.6-1.4-49.2-1.4-73.8c-0.1-364.7-0.1-729.4-0.1-1094.1C781.9,2513.6,781.4,2513.6,780.9,2513.6
	z M2410,2172.6c-513.8-34.6-1025.4-69-1537-103.3c-3.9-0.3-7.9,2-13.2,3.5c-0.5,6.9-1.4,13.1-1.4,19.2c0.4,285.5,0.8,571,1.5,856.5
	c0,11.2,2.3,22.4,3.4,32.7c109,14.9,1511.1,110.1,1546.8,104.8C2410,2782.4,2410,2478.4,2410,2172.6z M2721.5,566.6
	c-35.9-1.5-65.7-2.6-95.5-4.1c-106.7-5.3-213.5-11.1-320.2-16.2c-73.7-3.5-147.4-5.9-221-9.3c-154.8-7.2-309.6-14.9-464.4-22.3
	c-110-5.2-220-9.1-329.9-16c-48.5-3-43.4-2.6-61.5,36.7c-1.3,2.9-2.7,5.8-4,8.7c-68.2,150.9-136.3,301.8-204.7,452.6
	c-44.1,97.3-88.8,194.3-133,291.6c-4.6,10-7.6,20.8-12.4,33.9c77.5,4.7,149.9,9.3,222.4,13.5c89.6,5.3,179.2,10.2,268.9,15.4
	c136.6,7.9,273.1,16.1,409.7,24c96,5.6,192.1,10.7,288.1,16.4c107.7,6.4,215.4,13.4,323.2,19.9c28.8,1.7,28.6,1.4,38.6-25.8
	c47.3-128.2,95.2-256.3,142.1-384.7c47.3-129.4,93.7-259.1,140.3-388.7C2713,598.7,2716.4,584.3,2721.5,566.6z M2409.9,1460.2
	c-10.3-1.3-18.6-2.8-26.9-3.4c-87.5-5.9-174.9-12.3-262.4-17.4c-171.9-9.8-343.8-18.5-515.7-28.4c-235.9-13.6-471.8-27.9-707.7-41.7
	c-12.2-0.7-24.5,0.5-36.2,0.8c-6.3,65.5-3.5,627.8,3.8,653.9c127.7,8.2,256.6,16.5,385.5,24.9c128,8.4,256,17.2,384,25.6
	c129.1,8.5,258.1,17.1,387.3,24.8c128.7,7.7,257,20.7,388.4,25.4C2409.9,1901.6,2409.9,1682.8,2409.9,1460.2z M2410.3,3138.9
	c-517.1-40.4-1031.5-73.1-1545-107.7c-2.4,7.3-4.2,10.4-4.2,13.4c0,199.9,0.1,399.8,0.3,599.8c0,5.3,1.4,10.5,2.3,15.7
	c0.2,0.9,1.3,1.6,2,2.4c0.7,0.8,1.5,1.5,2.9,2.7c53.7,4.2,108,8.5,162.3,12.6c95.9,7.3,191.8,14.1,287.7,21.8
	c151.3,12,302.5,24.5,453.8,36.9c93.7,7.7,187.4,15.6,281.2,23.2c108.7,8.9,217.3,17.7,326,26.3c10,0.8,20.2-0.4,30.8-0.7
	C2410.3,3568.6,2410.3,3356.1,2410.3,3138.9z M3074.4,1911.3c-87.8,36.5-169.5,70.5-251.4,104.4c-114.5,47.5-229,94.9-343.6,142.1
	c-23.8,9.8-24.3,9.3-24.3,37.9c0.1,286.6,0.3,573.2,0.6,859.8c0,8,1.5,16,2.7,28.4c208.4-87.6,414.7-171.3,616-259.9
	C3074.4,2518.7,3074.4,2217.6,3074.4,1911.3z M1253.6,449.4c12.4,1.2,22.9,2.8,33.4,3.2c91.8,4.2,183.7,8,275.5,12.5
	c162.3,7.8,324.5,16,486.8,24.1c96.1,4.8,192.1,9.8,288.2,14.2c121.7,5.5,243.4,10.5,365.2,15.4c9,0.4,18.1-1.5,27-2.3
	c1.1-7.7,2.2-11.9,2.2-16.1c0.4-78,0.6-156.1,0.7-234.1c0-8.5-0.3-17.2-1.8-25.5c-4.4-24.6-17.3-37.8-41.7-42.1
	c-12.6-2.2-25.5-3.3-38.2-3.8c-53.4-2.2-106.8-4.3-160.2-6c-316.3-9.7-632.6-19.3-948.9-28.7c-78-2.3-156.1-3.2-234-6.2
	c-36.2-1.4-50.5,17.2-56.9,47.7c-1.7,8.2-1.1,17-1.1,25.6c0.5,64.1,1.1,128.3,1.9,192.4C1251.6,428.9,1252.8,438.3,1253.6,449.4z
	 M2455,2118.2c211.3-83.5,412.9-170.3,616.8-255.8c0-220.1,0-439.8,0-662.3c-10.6,3.2-18.8,4.9-26.4,8
	c-188.6,77.8-377.1,155.8-565.7,233.7c-25.3,10.4-25.3,10.4-25.3,37.1c0.2,194.6,0.4,389.2,0.5,583.7
	C2455,2078.6,2455,2094.5,2455,2118.2z M3074,2874c-41.5,18.2-77.4,34.6-113.8,49.8c-160.5,67.2-321.1,134.3-482,200.6
	c-17.5,7.2-24.6,16.1-24.5,35.1c0.9,194.5,0.9,388.9,1.4,583.4c0,10.1,1.8,20.2,3.1,34.9c19.7-10.3,35.2-18.9,51.2-26.7
	c172.5-84.6,344.4-170.6,518.3-252.3c38.6-18.1,55.9-37.9,46.1-79c-0.5-2-0.1-4.3-0.1-6.4c0.6-168.8,1.3-337.6,1.8-506.4
	C3075.7,2897.6,3074.8,2888.3,3074,2874z M2617.4,1007.4c31.5,8.6,61.3,16.6,91,24.9c99.6,28,199.2,56.2,298.8,84
	c10.6,2.9,21.8,3.6,32.7,5.3c1.4-2.2,2.8-4.3,4.3-6.5c-97.6-165.8-184-337.9-281.6-505.9C2741.7,638.4,2618.8,976.6,2617.4,1007.4z
	 M3018.9,1168.1c-13.7-5.7-20.8-9.6-28.4-11.7c-121.2-34.4-242.5-68.6-363.7-102.7c-27.3-7.7-29.4-6.7-39.5,20.8
	c-35.8,97.2-71.4,194.5-107,291.8c-2.8,7.5-4.5,15.4-8.7,29.8C2655.8,1319.3,2834.4,1245,3018.9,1168.1z"/>
<path d="M1202,2561.5c11.2-15.2,20-25.5,27-37c26.7-43.7,53.2-87.7,79.1-131.9c11.8-20,28-27.7,50.8-23.8c14.5,2.5,23.8,9.5,26.1,24
	c1.8,11.6,3,23.3,3,35c0.1,93-0.1,185.9-0.2,278.9c0,6.4-0.2,12.8-1,19.2c-3.2,25.9-12.8,35-36.6,34.6c-21.2-0.3-30.8-9.6-31.1-35.6
	c-0.6-52.3,0.5-104.7,0.9-157c0.1-15.8,0-31.6,0-47.4c-2.1-0.9-4.2-1.9-6.3-2.8c-9.1,13.4-18.7,26.6-27.3,40.4
	c-15.2,24.5-29.6,49.4-44.6,74c-3.9,6.4-8,12.7-13,18.2c-18.1,19.9-42,19.9-56.3-2.9c-21.6-34.3-40.2-70.4-60.2-105.7
	c-6.1-10.8-12.6-21.4-18.9-32.1c-2.5,0.5-5,1.1-7.6,1.6c-0.3,13.1-0.7,26.2-0.8,39.3c-0.6,56.6-0.5,113.2-1.9,169.7
	c-0.5,22.1-9.1,28-33.6,27.9c-22.8-0.1-30.1-5.7-32.7-26c-0.8-6.3-0.7-12.8-0.7-19.2c0.5-98.3,1.1-196.6,1.6-294.9
	c0-2.1,0-4.3,0.1-6.4c0.7-14.9-0.9-31.5,18-36.9c17.9-5.1,36.5-6.5,51.2,7.9c8.3,8.1,15.6,17.7,21.6,27.7
	c25.6,43.1,50.6,86.6,75.8,130C1189.1,2538.6,1193.7,2546.9,1202,2561.5z"/>
<path d="M2077.5,2548.2c7.5-6.8,15.6-13.2,22.5-20.6c27.6-29.8,54.7-60,82.1-90c7.2-7.9,14.1-16.1,22-23.3
	c18.6-16.8,32.3-16.6,50.6-0.3c18.5,16.5,20.7,29.8,3.6,49.5c-23.1,26.6-48,51.7-72.7,76.9c-10.4,10.6-22.2,20-35.4,31.8
	c8.3,14.2,14.5,26.2,22,37.3c27.5,40.7,55.6,81.1,83.3,121.7c4.8,7,9.5,14.3,13.3,21.9c8.4,16.8,5.1,31.4-8.7,42.6
	c-13.7,11.1-30.3,12.1-44.2,0.9c-7.3-5.9-13.5-13.7-18.7-21.7c-24.8-37.4-49.1-75.1-73.5-112.7c-6.3-9.7-12.3-19.6-18.1-29
	c-31.2,11-34.1,14.6-34.8,43.1c-0.7,27.8,0.3,55.7-2,83.3c-2.1,25.7-13.5,34.4-37.4,33.8c-25.3-0.6-35.4-9.6-35.7-38.7
	c-0.7-63.1,0.2-126.1,1-189.2c0.5-44.9,1.5-89.8,3.1-134.7c0.9-25.6,9.6-34.7,31.1-36.3c25-1.9,38.6,8.8,39.7,34.6
	c1.4,29.9,0.5,59.9,0.5,89.8c0,8.5,0,16.9,0,25.4C2073.2,2545.5,2075.3,2546.8,2077.5,2548.2z"/>
<path d="M1772.9,2708.8c34.5,0,63.2-0.4,91.8,0.2c12.7,0.3,25.8,0.9,37.9,4.2c17.6,4.7,27.3,19.3,24.9,35.9
	c-2.5,17.2-9.1,33.8-31.5,33.4c-21.3-0.4-42.6-0.8-63.9-1.6c-33.1-1.2-66.2-1.3-99.1-4.4c-26.7-2.5-34.5-10.7-34.3-36.9
	c0.9-106.7,2.4-213.4,5-320c0.7-28.8,10.7-37.5,33.1-36c26.9,1.8,37.9,12.9,37.8,40.9c-0.2,80-1.1,160.1-1.7,240.1
	C1772.8,2677.3,1772.9,2689.9,1772.9,2708.8z"/>
<path d="M1581.2,2571.3c0,46.9,0.1,93.9,0,140.8c0,8.5,0,17.1-1.2,25.5c-3.3,24.9-10.9,31.5-35.3,31.3c-23.2-0.1-33.3-8.5-36.5-31.3
	c-1-7.3-1-14.9-0.9-22.4c1.7-101.3,3.4-202.6,5.4-303.9c0.5-26.5,9.8-35.1,34.6-34.5c25.6,0.6,35.2,8.9,35.5,34.5
	c0.6,53.3,0.2,106.6,0.2,160C1582.4,2571.3,1581.8,2571.3,1581.2,2571.3z"/>
<path d="M1779.2,681c23.7-0.8,59.3,4.5,93.7,17.9c39.7,15.6,69.4,41.4,85.8,81.4c16.6,40.5,32.5,81.3,49.8,121.5
	c20.9,48.5,13.5,94.3-12.6,137.9c-33.9,56.7-82,98.3-142,125.4c-80.3,36.4-163.5,47.5-249.9,24.1c-45.7-12.4-82.4-36.3-102.3-80.3
	c-22.4-49.6-43.4-99.9-64.1-150.2c-10.7-26-6.1-52.6,1.8-78.5c18.5-60.5,59-103.7,111.1-136.1C1616.3,703.4,1688.2,681.2,1779.2,681
	z M1781.6,725.1c-88.8,1.5-158.6,25.8-221.4,69.4c-32.5,22.6-62.4,49-76.5,88.2c-17.1,47.3,0,90.5,45.5,112.1
	c27.2,12.9,55.8,21.5,86.5,20.5c88.1-2.8,167.6-29.7,235.9-86.4c24.2-20,43.2-44.4,56.4-73c21.4-46.3,7.3-87-38.6-109.8
	C1838.2,730.5,1805,723.6,1781.6,725.1z M1943.6,881.3c-4.7,7.5-8.6,14.9-13.5,21.4c-13.9,18.8-25.6,40.3-42.9,55.3
	c-97.7,85.1-210,119.6-338.7,91.9c-7.9-1.7-16-2.2-25-3.4c14.7,57.5,47,91,101.1,102.5c102,21.7,192.3-6.4,273.6-68.3
	c28.4-21.6,51.9-47.9,67.4-80.4C1984.9,959.9,1977.4,918,1943.6,881.3z"/>
</svg>
