<?xml version="1.0" encoding="utf-8"?>
<!-- Generator: Adobe Illustrator 24.3.0, SVG Export Plug-In . SVG Version: 6.00 Build 0)  -->
<svg version="1.1" id="Layer_1" xmlns="http://www.w3.org/2000/svg" xmlns:xlink="http://www.w3.org/1999/xlink" x="0px" y="0px"
	 viewBox="0 0 4000 4000" style="enable-background:new 0 0 4000 4000;" xml:space="preserve">
<path d="M2166.5,1403c6,4.5,11.6,9.6,18,13.5c119,72.3,206.9,174.1,276,293.2c121,208.6,175.5,434.3,162.8,674.6
	c-15.1,287-95.3,553.6-264.5,789.2c-114.4,159.4-258.6,284-439.2,363.8c-125.4,55.4-256.7,80.1-393.5,70
	c-232-17.2-424.6-115.4-578.3-289.3c-127-143.7-199.7-313.9-238.3-500c-25.9-124.9-36.7-251.1-26.6-378.2
	c26.4-332.4,140.4-628,378.3-867.7c140.2-141.3,307.5-237,504.4-276.5c14.1-2.8,28.6-3.7,42.9-6c14-2.2,27.9-4.9,43.2-12.3
	c-9.5-3.9-18.8-8.4-28.4-11.8c-138.9-49-259.7-126.5-360.2-234c-104.8-112.1-174.8-243.2-203.9-394.8c-3.8-19.6-5.7-39.7-6.8-59.6
	c-2.8-51.4,21-79.3,71.6-86.4c73.5-10.2,146.4-6.6,218.9,8.9c257.4,55,444.5,204.1,574.9,429.2c12.1,21,23.7,42.3,38.8,69.4
	c7.6-16.6,13.3-28,18.1-39.8c82.2-202.2,185.6-391.7,331.5-555.9c14-15.7,29-31,45.4-44.1c35.6-28.4,76.6-28.4,114-2.5
	c63.9,44.1,87.2,142.9,21.6,205.3c-89.1,84.7-162.9,182.2-228,286.4c-3.5,5.6-6.5,11.4-6.8,22.3c11.2-5.4,23-9.7,33.3-16.3
	c131.9-84.5,277.4-131.1,431.9-146.5c146.1-14.6,291.2-4.3,431.5,43.9c22,7.5,43.7,16.8,64,28.1c37.4,21,48.1,49.3,34.4,90.2
	c-17.2,51.2-46.2,96.3-79.7,138.1c-173.1,216.2-397.3,345.7-670.4,388.8c-89.1,14.1-179.4,15.1-269.5,4.3
	c-19.7-2.4-39.5-3.1-59.3-4.6C2167.9,1398.3,2167.2,1400.6,2166.5,1403z M1885.3,1389.2c-78.2-18.8-189.7-21.1-270.3-6.9
	c-192.9,34-356.1,125.1-490.8,264.9c-222,230.5-329.8,510.9-347.3,827.5c-7.2,129.5,6.5,257.6,39.1,383.6
	c45.5,176.5,129,330.9,262,456.7c148.9,140.8,326.5,207.6,531.3,199.5c139.9-5.6,268.1-50.3,386.4-123.7
	c135.9-84.2,242.9-197.8,326.2-333.3c147.3-239.8,213.5-501.6,204.8-782.3c-6-194-57.3-375.1-162.2-539.6
	c-95.1-149.1-222.7-258.8-389.6-320.5c-14.2-5.3-29.2-8.6-44.2-12.9c-17.1,27.9-21.2,56.5-26.3,84.8c-2.2,12,4.6,18.7,15.1,22.5
	c13.6,4.9,27.4,9.3,40.7,15c43.5,18.4,83.8,41.9,113.6,79.4c40.1,50.4,25.9,102.1-33.8,125c-14.4,5.5-29.6,9.7-44.9,12.2
	c-117,18.9-225.5-6-326.5-65.8c-18.9-11.2-36.8-25.7-51.4-42c-42.1-47.2-30.3-101.1,26.6-127.9c11-5.2,22.8-9,34.5-12.2
	c51.5-13.8,103.6-10.8,155.7-5.2c8.4,0.9,16.8,0.9,26.6,1.4C1869.1,1454.7,1877,1422.7,1885.3,1389.2z M3137.4,883.2
	c-1.9-1.7-3.9-3.4-5.8-5.1c-78.6,27-157.4,53.5-235.8,81c-185.4,65.1-370.7,130.7-556.1,196.1c-89,31.4-178.1,62.5-267,94.3
	c-11.3,4-25.9,4.7-33.5,23.1c57.8,11.3,112.9,24.8,168.8,32.3c109.9,14.8,219.4,9.8,328.2-12.4c245.3-50,441.7-174.7,585-381
	C3127.4,902.6,3132,892.6,3137.4,883.2z M3112.5,830.5c-193.1-51.9-382.1-53.2-569.7,9.8c-204.7,68.7-468.7,261.3-522,379.8
	c6.5-1,12.1-0.9,17-2.6c354.9-125.4,709.8-251,1064.6-376.7C3105.1,839.8,3106.8,836.4,3112.5,830.5z M1157.8,613.9
	c-2.9,1.5-5.7,3-8.6,4.6c35.2,165.7,119,303.6,248.7,412.7c139.5,117.4,385.1,207.1,493.1,182.7
	C1645.4,1012.9,1401.6,813.4,1157.8,613.9z M1185.1,581.1c245.6,201.2,489.4,400.9,737.3,604c-58.2-191.4-152.3-353-313.8-470.4
	C1471.7,615.1,1273,563.2,1185.1,581.1z M1845.8,1533.5c-51.4-9.2-98-9.3-144.2-0.8c-17.2,3.2-34.4,9.2-49.9,17.2
	c-20.1,10.4-24.1,25.5-11.1,44.1c9.9,14.2,22.8,27.5,37,37.5c74.4,52.2,159.2,72.4,248.4,72.5c32.6,0,66.1-8.2,97.7-17.6
	c31.5-9.3,37.1-30.3,16.9-56c-37.4-47.7-89.8-68.5-149.5-82c-4,24.1-7.5,44.7-10.9,65.3c-2.1,13.1-9.2,19.8-22.9,18
	c-14.4-1.8-17.4-11.9-16.8-24.1c0.2-5.5,1.7-11,2.1-16.5C1843.7,1572.6,1844.6,1554,1845.8,1533.5z M2407.8,428.9
	c-162.6,160.9-260,358.6-346.9,563c11.1-10.5,18.9-23,26.1-35.9c91.9-164.4,196.1-319.9,329.4-454.3
	C2441,476.8,2439.6,464.8,2407.8,428.9z"/>
<path d="M1036.3,2289c-52.6,0.2-93.7-38.5-92.6-92.6c0.6-28.4,6.6-57.6,15.8-84.6c41.7-122.8,107.1-231.7,199.8-322.9
	c22.7-22.3,49-42.3,76.7-57.8c44.1-24.8,87-14.6,116.2,22.4c28.4,36,25.9,85.2-6.7,122.1c-8.1,9.1-17.3,17.3-26.4,25.4
	c-81.5,72.8-139.2,160.8-170.4,265.8c-5.7,19.2-11.8,38.2-18.7,57C1113.3,2268.8,1084.1,2288.8,1036.3,2289z M983.6,2190.1
	c0.4,23.4,7.1,42.9,28.5,53.8c28.9,14.8,65,1.4,77.9-29.4c9.4-22.5,16.7-45.9,24.1-69.2c34-107.3,91-199.5,177.5-272.7
	c11.8-10,22.8-21.2,32.7-33c10.6-12.5,14-27.1,8.4-43.6c-12.2-35.5-40.6-49.5-73.3-30c-30.2,18-59.5,39.5-84,64.5
	c-81.5,83-137.6,182.1-174.6,292C993.3,2144.5,989.2,2167.6,983.6,2190.1z"/>
<path d="M2185.9,2550.8c10.7-7.4,18.7-13.3,26.9-18.7c41.2-27.5,95.3-27.3,134.7,0.5c36.7,25.8,50.5,68.2,39.3,118.8
	c-8.5,38.3-29.9,69.2-55.7,97.3c-47.9,52.2-107.4,89.6-165.5,128.6c-20,13.4-28.4,11.9-43.4-5.7c-45.5-53.1-94.6-103.5-127.4-166.4
	c-17.1-32.8-32.2-66-33.4-103.8c-1.8-55,22.6-97.9,64.7-113.7c49.5-18.5,104.3-3.8,138.7,37.1
	C2171.1,2532.3,2177.2,2540.1,2185.9,2550.8z M2002,2599.6c-0.8,28.7,8.6,56.7,24.8,80.4c33.7,49.3,70.7,96.4,106.5,144.3
	c8.2,10.9,18.6,11.1,29.3,4.1c13-8.4,26.4-16.5,38.4-26.3c31.8-25.8,64.3-51.1,94-79.3c26-24.6,45.8-54.4,52.1-90.9
	c4.8-27.5-3.7-50.6-25.7-67.9c-20.6-16.1-44.4-15.5-66.1-5.1c-16.5,7.9-30.5,21.4-44.8,33.3c-6.7,5.6-10.9,14.1-17.3,20.2
	c-11.9,11.2-20.8,9.8-29.3-4.5c-4.5-7.6-6.6-16.6-11.1-24.1c-7.8-13.2-15-27.5-25.4-38.5c-24.7-26-57.1-33.2-84.6-20.6
	C2011.3,2539.1,2001.6,2565.9,2002,2599.6z"/>
<path d="M1823.7,2888.9c-43.3,0.1-79.2-35.1-79.2-77.5c0-45.9,37.6-84,82.1-83.4c45.1,0.7,81.7,36.7,81,80.5
	C1906.8,2851.3,1874.1,2891.1,1823.7,2888.9z"/>
<path d="M1118.5,2711.9c44.9,0.4,81.1,36.5,80.5,80.2c-0.7,43.8-40.3,80.3-86,79c-39.7-1.1-75-37.8-75.6-78.8
	C1036.8,2749.8,1075.4,2711.5,1118.5,2711.9z"/>
<path d="M1468.9,3011.2c-78.7,0.6-138.9-45.7-155.3-119.6c-1.2-5.4-2.3-10.9-2.7-16.4c-1-14.5,1.9-27.1,18.7-30.4
	c16.8-3.2,20.4,9.5,24.2,21.4c1.7,5.3,2.3,10.9,3.8,16.2c21,76,98.2,109.3,169,73.3c24-12.2,40.7-30.4,49.6-55.8
	c3.7-10.5,6.8-21.3,12-31c5.8-10.8,15.7-15.8,28.1-10.9c13,5.2,14.5,15.6,11.1,27.6C1604,2966.7,1557.2,3009.2,1468.9,3011.2z"/>
</svg>
