<?xml version="1.0" encoding="utf-8"?>
<!-- Generator: Adobe Illustrator 24.3.0, SVG Export Plug-In . SVG Version: 6.00 Build 0)  -->
<svg version="1.1" id="Layer_1" xmlns="http://www.w3.org/2000/svg" xmlns:xlink="http://www.w3.org/1999/xlink" x="0px" y="0px"
	 viewBox="0 0 4000 4000" style="enable-background:new 0 0 4000 4000;" xml:space="preserve">
<path d="M1982.2,136c222.6-3.5,443.8,11.8,662.2,56.9c108.1,22.3,213.1,55,313.8,101.2c179.4,82.4,304.9,215.4,380,397.6
	c49.8,120.9,80.1,246.6,94.6,375.9c20.5,183.6,37.7,367.5,57.4,551.2c17,157.9,64.4,306.9,133.5,449.7
	c55.2,114.2,99.5,232.6,120.9,358.1c42.2,247.9-12,476.6-142.7,688.8c-117,189.9-279.9,330-475.1,434.6
	c-254.8,136.5-527.1,215.8-813.9,244.1c-112.7,11.1-226.4,18.9-339.5,17.9c-259.4-2.3-511.9-48.4-758.4-130.5
	c-227.2-75.7-434.2-186.4-618.4-339.6c-134.9-112.2-249.7-241.3-323.7-401.9c-139.1-301.8-123.1-600.6,24.3-894.9
	c23.2-46.3,48-92.2,76.1-135.6c114.5-177.2,179.1-372.5,219.6-577.9c32.9-166.8,67.6-333.4,108.6-498.2
	c33.2-133.2,92.1-255.9,185.1-359.8c104.5-116.7,236.8-189.4,381.9-242.1c167.7-60.9,342-86.2,519.1-94.8
	C1852.4,133.3,1917.4,136,1982.2,136z M1948.8,251.2c-70.4,4.8-191.9,9.9-312.7,22.4c-111.2,11.4-220.3,34.6-326.5,72.3
	c-266.6,94.6-439.2,274-503.5,551.7c-28.1,121.5-53.2,243.7-76.9,366.1c-29.9,154.5-63.2,308-122.9,454.4
	c-83.3,204.2-106.4,416.7-81.4,634.3c24.8,215.4,120,394.8,286.7,535c170.8,143.6,364.6,246.9,573.4,322.2
	c301,108.5,610.5,144.7,928.3,99.8c276.7-39.1,527.8-140.5,750-310.8c171.2-131.3,292.4-298.3,349.1-507.5
	c51.2-189.1,54.1-381.1,16.8-573.3c-17.3-89-42.4-176.9-54-266.6c-22.9-176.7-37.5-354.5-58-531.5
	c-15.1-130.6-37.7-259.8-89.3-382.1c-57.5-136.3-148.4-242.2-280-312c-92.2-48.9-189.7-82.9-291.3-106.2
	C2440.5,270,2220.6,259,1948.8,251.2z M3522.6,2127.3c-4,0.8-8.1,1.7-12.1,2.5c0,12.6-0.5,25.2,0.1,37.8c3.7,79.8-4,158.6-18.5,237
	c-51,276-190,497.7-415.8,662.8c-353.8,258.7-754.4,349-1185.8,314.4c-212.7-17.1-418.9-66.7-615.5-151.9
	c-183.6-79.6-359.8-171.7-510.1-306.8c-250.7-225.2-339.3-508.6-301-837.6c3.5-30,6.7-60,10-90c-3-1.3-6-2.6-9-3.9
	c-11,17-23.6,33.3-32.6,51.3c-21.1,42-41.6,84.3-60.2,127.4c-110.6,255.9-102.2,507.7,30.5,753.5
	c103.7,192.1,260.4,333.2,441.6,449.3c207.3,132.8,435.5,213.7,674.9,264.4c268.8,56.8,539.8,66.7,812.3,29.9
	c219.4-29.6,432.4-82.9,634.2-176c178.8-82.5,338.9-190.7,465.3-343.7c138.4-167.5,208.5-360.6,207-578
	c-0.8-116.2-28.9-227.9-71.5-335.8C3552.3,2198.1,3537.2,2162.8,3522.6,2127.3z"/>
<path d="M3152.4,1542.5c0,22.7,1.2,45.4-0.4,67.9c-1.3,17.6-4.2,35.5-9.7,52.2c-12.3,37.1-33.4,68.2-75.7,73.3
	c-40.5,4.9-75.7-12.6-94.9-46.6c-21.9-38.9-39.7-81.5-51.5-124.6c-17.4-63.9-25.2-130.3-41.9-194.4
	c-15.9-60.8-34.8-121.3-58.3-179.5c-30.4-75-86.4-127.9-160.2-161.6c-27.9-12.8-56.5-24.5-83.4-39.3
	c-76.6-42.1-79.7-126.9-6.9-175.8c37.6-25.2,80.5-34.4,124.8-32.9c133.8,4.3,238.8,61.4,313.3,173.8c52.8,79.7,80.3,169.3,103,260.5
	C3137.2,1322.9,3147.5,1432.5,3152.4,1542.5z M3101.1,1531.7c-9.6-78-15.3-150.8-28-222.4c-18.7-105.4-44.5-209.5-99.6-302.9
	c-52.8-89.4-129.8-147.2-233.5-166.7c-41.1-7.7-80.8-2.6-119.1,12.1c-21.4,8.2-42.5,20.2-45,46.2c-2.5,26.6,17,40.8,37.2,51.9
	c19.8,10.8,40.7,19.9,61.5,28.8c93.7,40.2,164.5,105.8,200.9,200.4c29.5,76.6,49,157.2,70,236.8c14.4,54.7,22.1,111.2,36,166
	c6.2,24.6,18.5,48.3,31.7,70.1c10.4,17.1,30.2,29.9,49.6,19.7c13.5-7.1,27.1-24.6,29.8-39.4C3099.1,1597.8,3099,1562,3101.1,1531.7z
	"/>
<path d="M846.5,1920.7c18.4-85.8,34.5-174.9,57.2-262.3c29.3-112.7,64.5-224,120.3-327c19.9-36.8,42.2-73,68.2-105.7
	c17.6-22.2,41.3-41.7,66.2-55.5c65.3-36.2,140.9,4.4,144.9,79.1c1.8,32.8-4.6,68.6-16.9,99.2c-68.4,169.8-116.7,346.2-173.8,519.7
	c-15.5,47.2-38.6,92.6-63,136.1c-22,39.3-54.5,66.8-104.7,67.5c-37.5,0.6-64.6-13.9-76.2-47.6
	C857.7,1992.8,854.3,1958.7,846.5,1920.7z M902.2,1926.6c2.7,24.3,2.2,39.4,6.4,53.1c13.9,44.9,42,52,74.5,18.2
	c14.4-15,28.5-32.3,36.3-51.2c27.6-67.1,54.5-134.7,78-203.4c39.2-114.8,75.3-230.6,113.1-345.8c11.1-33.8,24.3-66.9,35.2-100.7
	c8.6-26.9,13.7-55-13.1-75.5c-19-14.5-49.6-5.9-78.6,20.4c-8.3,7.6-16.5,15.9-22.7,25.2c-18.1,26.8-37.2,53.2-52.2,81.7
	c-62.1,118.1-105.1,243.6-135.7,373.1C926.5,1792.3,914.5,1864.2,902.2,1926.6z"/>
<path d="M2522.8,2482.2c102.9,2.8,177.4,81.6,178.2,180.6c0.8,108.4-85.3,186.5-199.1,186.6c-84.6,0.1-159.3-85.1-159.2-181.4
	C2342.7,2558.3,2417.1,2481.6,2522.8,2482.2z M2638.1,2614.7c-1.1-28.4-22-51-47.1-50.8c-29.2,0.2-54.4,27.9-52.3,57.4
	c1.8,25,22.6,44.1,47.9,44C2617.5,2665.1,2639.2,2643.8,2638.1,2614.7z"/>
<path d="M1376.4,2350.6c112.9,2.3,191.7,79.5,188.6,184.7c-2.9,99.1-85.3,178.2-183.4,175.9c-107.6-2.5-179.8-77.2-177-183.2
	C1207.5,2421.9,1278.4,2348.6,1376.4,2350.6z M1447.3,2528.8c31.3-1.3,53.2-23.5,51.2-52.1c-1.8-26-22.4-45.8-47.2-45.4
	c-27.9,0.4-50.9,25.1-50.4,54.2C1401.4,2514,1418.5,2529.9,1447.3,2528.8z"/>
<path d="M1988.4,953.4c-184.2-1.8-364.4-29.3-539.2-88.9c-64.9-22.1-125.1-53.6-179.5-95.5c-104.1-80.2-103.8-205.4,1.1-283
	c95.5-70.6,207-97.3,321.7-113.8c15.9-2.3,29.1,2.1,32,21.1c3.2,20.7-8.5,29.5-26.4,33.6c-44.2,10.2-88.6,19.2-132.4,30.9
	c-58.3,15.6-113.1,39.9-162.2,75.4c-69.4,50.1-75.5,116.3-15.9,177c45.2,46,101.3,75,160.5,98c140.5,54.4,287.3,78,436.8,86
	c69.6,3.7,139.3,2.7,209,4.1c39.9,0.8,53.7,8.6,50.8,29.1c-4.3,30.4-29.7,25.1-49.6,25.7C2059.7,954.3,2024.1,953.4,1988.4,953.4z"
	/>
<path d="M1947.9,2920c-124.9-0.5-222.5-80.3-240.3-196.5c-1.2-8-2.6-16.1-2.4-24c0.5-18.2,8.3-31,28.1-33.3
	c18.3-2.2,26.4,8.6,30.6,24.2c2.9,10.9,5.6,21.9,8.6,32.8c20.3,73.4,71.8,119.5,148,127.3c78.8,8,148.5-9.2,191.9-83.9
	c5.7-9.8,10.5-20,16.2-29.8c8.7-15,21.9-18.5,37.4-12.2c15.3,6.2,24.9,18.6,19,34.4c-8.9,24-18.3,48.9-33,69.4
	C2108,2889.4,2035.8,2920.4,1947.9,2920z"/>
<path d="M1259.9,2885.3c-54.8-3.3-106.5-14.2-155.3-37.5c-13-6.2-26.4-13-37.1-22.3c-41.4-36-37.3-84.2,10.1-111.7
	c16.3-9.4,35.6-16.1,54.3-18.7c84.1-11.8,163.5,3.8,238,44.7c27.9,15.3,44.2,37.1,41,70.4c-3,31.8-24.6,49.8-51.6,57.5
	C1327.1,2876.8,1293.1,2879.7,1259.9,2885.3z M1275.5,2832.9c8.8-0.8,28.6-0.4,47.3-4.9c11-2.6,20-13,30-19.9
	c-7.3-9.7-12.6-23.2-22.4-28.6c-63-34.8-131-45.1-201.6-33.1c-12.4,2.1-29.2,12.8-32.9,23.4c-7,20.2,14.7,25.7,28.1,32.9
	C1167.9,2826.2,1216.1,2831,1275.5,2832.9z"/>
<path d="M2594.4,2858c61.7,0.1,118.2,17.2,171.1,47.3c24,13.6,40.6,31.9,37.2,62.1c-3.4,30.9-21.6,51.3-49.8,59.3
	c-98.8,28.1-195.1,20.1-286.3-28.1c-25.2-13.3-42.2-35.8-35.7-67.8c7-34.3,31.4-52.9,62.8-59.8
	C2526.7,2863.8,2560.8,2862.1,2594.4,2858z M2754.1,2957.9c-13.9-9.9-26-24.3-41-28.4c-61.3-17.1-123.9-24.2-187.4-13.4
	c-19.6,3.3-37.2,10.5-42.5,38.5c61.2,34.8,127.5,43.3,195.8,40.1C2705.7,2993.4,2734.5,2992.1,2754.1,2957.9z"/>
<path d="M3156.5,1970.7c-2.1,6.9-3.1,22.9-11.2,33.4c-7.6,9.9-22.3,18.4-34.7,19.7c-28.7,3-44.4-17.4-46.2-54.3
	c-1.9-37.9,17-69.5,42.6-71.2C3133.9,1896.4,3156.2,1925.8,3156.5,1970.7z"/>
</svg>
