<?xml version="1.0" encoding="utf-8"?>
<!-- Generator: Adobe Illustrator 24.3.0, SVG Export Plug-In . SVG Version: 6.00 Build 0)  -->
<svg version="1.1" id="Layer_1" xmlns="http://www.w3.org/2000/svg" xmlns:xlink="http://www.w3.org/1999/xlink" x="0px" y="0px"
	 viewBox="0 0 4000 4000" style="enable-background:new 0 0 4000 4000;" xml:space="preserve">
<path d="M2294.1,515.2c3-10.3,6.8-21.1,9.4-32.2c10.8-46.3,18.5-93.1,18.7-140.9c0.1-13.5,1.8-27.1,3.5-40.5
	c4.7-37.5,30.2-63.5,68.1-68.3c41.7-5.2,81.1,2.8,117.5,24c31.5,18.3,49.6,46.4,52.6,82.4c1.7,20.1-0.6,40.5-1.7,60.8
	c-0.4,8.4-2.1,16.7-3.6,27.7c8.2-1.2,13.7-1.4,18.9-2.9c157.6-45.8,310.4-30.1,459.6,35c104.6,45.6,195,111.1,273.1,193.9
	c10.5,11.2,19.3,24.2,27.5,37.2c12.7,20.1,8.4,39.5-7.3,55.7c-10.7,11-22.8,21.3-35.7,29.6c-105.2,68-220,109-345.1,120.3
	c-23,2.1-46,4.4-70.7,6.8c0.7,4.6,0.1,9,2,11.5c67.5,93.2,109.8,197.9,139.8,307.9c32.6,119.8,41.9,241.9,34,365.9
	c-12.2,191.3-62.4,372.1-145.6,544c-37.2,76.9-81.3,149.9-133.7,217.6c-5.8,7.5-10.2,16-16.3,25.6c30.2,29.5,59.3,58.2,69.2,99.7
	c4.8,0.8,8.7,2.4,12.3,2c40.9-4.4,69.9,15.3,88.8,48.6c18.1,31.9,32.2,66,47.8,99.2c10.7,22.6,19.5,46.3,31.9,67.9
	c53.3,93.4,87.6,192.2,86.6,300.8c-1.5,167.9-69.6,305.6-193.1,417.2c-95.6,86.4-207.4,145.9-326.6,191.8
	c-115.1,44.4-233.9,76.2-356.3,93.3c-111.6,15.6-223.8,20.6-336.4,18.1c-139.2-3.2-276.1-22.6-410.9-56.4
	c-189.8-47.7-368.1-120.8-524.3-241.5C848,3339.4,769.8,3245.2,731,3122.1c-21-66.6-29.2-134.4-21.5-203.8
	c2.2-20.2-4.2-32.6-18.9-47.3c-79.5-79.7-125.2-198.9-70.2-313.1c17.5-36.3,42.8-66.8,70.7-95.4c36.7-37.4,72-75.8,101.5-119.5
	c51.5-76.4,81.6-160.8,90.9-251.7c7.1-69.3,9.7-139.2,12.2-208.9c3-84.3,0.4-168.9,6.3-252.9c19.1-272.2,94-526.4,260.3-746.9
	c149.1-197.5,342.5-332.3,584.9-391.4c130.7-31.9,262.9-34.8,395.3-10.6C2191.7,489.8,2240.3,502.8,2294.1,515.2z M2297.7,610.1
	c-9-3.9-16.6-7.7-24.6-10.6c-55.6-20.6-112.8-34.5-171.6-43c-139.7-20.4-276.7-9.3-410,36.8c-232.6,80.3-406.5,232.5-531.8,442.1
	c-117.1,196-170,410.5-178.3,637c-2.9,79.4-1.1,159-4.8,238.4c-3.6,76.4-8.1,153-18.4,228.7c-15.7,115.7-60.3,220.1-137.7,309
	c-20.3,23.4-43.3,44.5-63.6,67.8c-20.3,23.3-41.6,46.5-57.5,72.7c-39.9,65.8-22.5,158.4,38.4,209.2c6-12.6,11.4-24.8,17.6-36.7
	c16-30.9,29.5-63.6,49.3-91.8c16.8-23.9,32.2-47.9,45.1-74.1c25.3-51.5,56.9-99.1,93.4-143.4c14.1-17.1,30.6-30.2,54.7-26.5
	c16.6,2.5,25.3-4.9,29.2-20.5c6.4-25.9,23.8-43.9,44.7-59c28.3-20.4,55.7-42.1,85-61c50.4-32.6,102-63.4,153.1-94.9
	c21.2-13.1,41.9-12.7,62.7,1.3c5.4,3.6,11.7,5.7,16.8,8.1c3.1-2.1,5-2.9,6.2-4.3c1.9-2.2,3.9-4.6,4.7-7.2
	c9.8-33.2,33.6-46,66.3-51.8c105.2-18.6,211.2-28.1,317.5-35.9c38.3-2.8,73.5,1.4,101.2,31.6c1.7,1.9,5.2,2.3,7.9,3.4
	c2.7-1.3,6.1-1.9,7.8-3.9c20.8-25.2,48.2-28.7,78.8-26.8c110.6,7,219.2,26.1,327,50.7c30.8,7,54.5,24.3,71.4,50.9
	c3.4,5.3,7.8,10.1,13.3,17.2c39.8-40.7,80.5-25.8,121.4-6.1c7.7,3.7,15.6,7,24.8,11.2c8-8.4,15.7-15.7,22.2-23.9
	c11.5-14.4,22.1-29.5,33.2-44.1c11.6-15.3,26.3-24.1,48.4-22.1c-6.5,48-49,74-66.6,112.7c40.4,25,77.9,48.2,117.4,72.6
	c6.7-7.6,14.9-14.6,20.4-23.4c35.6-56.5,74.3-111.5,105.2-170.5c117.1-223.7,174.4-461,154-714.7c-8.6-106.2-34.3-208.1-76.6-305.9
	c-40-92.6-96.5-174.2-163.2-249.5c-17.5-19.7-36.4-33.2-61.8-40.3c-90.5-25.4-168.3-73.1-236.5-137.3c-5.4-5-11.4-9.3-18.7-15.2
	c-3.6,6-6.1,9.9-8.4,13.9c-12.9,22.1-17.2,24.8-42.1,18.7c-14.9-3.7-29.8-8.9-43.5-15.8c-32.8-16.5-40.3-23.8-25.2-61.3
	C2296.9,619.9,2296.7,616.8,2297.7,610.1z M1642.8,3540.1c-16.4,20.8-35.1,13-52.4,8.1c-53-15.3-105.9-31.2-158.4-48.3
	c-28.5-9.3-57.1-19.5-83.6-33.2c-22-11.4-41.4-26.7-68.5-24.1c-6.8,0.7-14.4-5.1-21.5-8.2c-60.6-26.4-117.8-59.2-171.9-96.8
	c-65.4-45.5-127.6-94.1-169-165.1c-29.1-50-50.9-101.9-63.4-158.3c-16.3-73.7-11.2-148.5-13.3-223c-0.2-7.2,0-14.5,0-25.5
	c-5.4,5.1-8,6.6-9,8.7c-29.3,61.2-47.1,125.7-45.4,193.5c3.4,132.7,57.9,242.7,153,334.5c92.9,89.7,202.5,152.7,320.3,201.7
	c196.2,81.7,401.2,122.6,613.7,127.6c210.7,4.9,418-14,618.7-82.8c107.6-36.9,211.3-81.6,302.9-150.8c43.4-32.8,85.1-67,119.3-110
	c40.3-50.6,70.3-105.8,84.4-169.3c-4.2,4.8-7.5,10.1-9.9,15.8c-39.2,91.8-102.3,163.7-184.3,219.5c-8.6,5.9-18.4,13.2-28,13.8
	c-17.3,1.2-28.7,7.6-38.2,21.8c-5.2,7.7-13.7,13.9-22,18.5c-16,9-32.8,16.6-49.4,24.5c-67.4,32-136.3,60.5-207.7,82.5
	c-19.6,6-39.2,12-55.8-5.7c-25.6,28.9-25.4,29.7-66.3,37.9c-84.5,17-168.9,34.2-255.3,39.7c-24.1,1.5-48.5,5.7-64.6-23.2
	c-12.4,25.6-32.2,26.4-53.3,25.9c-84.4-2-168.3-8.9-251.7-21.7C1688.2,3564.5,1664,3562,1642.8,3540.1z M1657.4,3219.2
	c-2.1,4.6-3.7,6.3-3.6,8c6.8,93.8,13.5,187.5,20.7,281.2c1.5,19.2,3.9,20.8,26.1,23.2c52,5.6,104,11.5,156.2,16.2
	c33.8,3,67.7,4.9,101.6,5.8c21,0.6,23.3-2.8,24.6-23.2c0.3-4.8,0.1-9.7,0.1-14.5c-0.4-87.3-0.8-174.5-1.4-261.8
	c-0.1-9.4-1.2-18.8-2-29.9C1870.3,3222.5,1763.2,3220.9,1657.4,3219.2z M2409.6,3234c-106.3-2-208.2-4-311.5-6
	c-13.5,109.9-26.4,215.7-39.4,321.7c6.5,1.3,9.3,2.7,12,2.4c90.3-10.7,180.6-21.3,269.2-42.6c18.6-4.5,28.7-13.2,31.9-32
	c9.4-55.3,20-110.4,29.1-165.7C2404.9,3287.3,2406.5,3262.5,2409.6,3234z M2439.6,620.3c9.7,27.3,61.4,76.7,106.5,103.7
	c130.8,78.4,271.8,111,423.4,89.5c88.3-12.5,170.8-43.3,254.5-89.3c-13.3-3.8-19.6-6.3-26.1-7.4c-140.4-22.7-280.5-47.5-421.4-67.2
	c-100.6-14.1-202.1-21.7-303.2-31.6C2462.6,616.9,2451.5,619.4,2439.6,620.3z M1645.3,3081.5c110.2,0,216.2,0,326,0
	c-4.6-89-9.1-176.2-13.6-262.9c-41.4-7.4-299.6-3.1-327.1,6.3C1635.4,2908.3,1640.2,2993,1645.3,3081.5z M1945.3,2673.7
	c0.7-8.5,1.8-13.2,1.3-17.7c-9.4-73.9-19-147.8-28.5-221.7c-4-30.7-6.8-33.3-39-32.2c-86.1,2.9-172.2,5.9-258.3,8.9
	c-6.6,0.2-13.1,1.5-23.5,2.7c12.9,88,25.5,174.5,38.6,263.7C1740.3,2675.5,1842.4,2676.6,1945.3,2673.7z M2408.9,2716.1
	c-10.1-92.2-9.8-181.7-24-270.9c-104.1-12.5-205.5-24.7-309.5-37.3c0,11.3-0.6,18.8,0.1,26.2c6.7,73.3,13.5,146.6,20.4,219.8
	c2.2,23.7,4.1,25.4,27.9,28.2c62.5,7.5,124.9,15.1,187.4,22.5C2342.4,2708.5,2373.8,2712,2408.9,2716.1z M2091.4,3080.2
	c7.2,1.8,10.8,3.4,14.4,3.6c87.9,5.2,175.9,10.3,263.8,15c10.1,0.5,20.4-1.7,32.7-2.8c3.9-84.6,7.6-166.4,11.5-251.8
	c-106.5-8.1-209.2-16-314.9-24.1C2091.6,2908.4,2093.4,2993.2,2091.4,3080.2z M2458.4,581.2c16.2,0.9,26.7,1.1,37.2,2.2
	c83.8,8.1,168.1,12.8,251.2,25.3c153,23,305.2,50.8,457.8,76.4c8.7,1.5,18.1,5.3,27.8-2.6c-41.3-39.8-86.2-71.6-132.7-101.2
	c-119.7-76.1-249.6-112-392.1-97.9c-71.2,7-138.4,26.9-202.4,58.2C2488.3,549.9,2471.7,559.2,2458.4,581.2z M1601.7,3513.5
	c-26.8-102.1-52-197.9-77.5-295.1c-81.2-4.7-161.8-9.3-245.2-14.1c1.9,11.2,2.3,18.9,4.5,26c18.1,59.2,36.6,118.4,54.8,177.6
	c5,16.1,15.3,25.9,31.4,31.2c65.2,21.6,130.2,43.9,195.3,65.7C1574.9,3508,1585.3,3509.6,1601.7,3513.5z M1407.8,2445.2
	c-92.7,28.4-177.1,65.2-263.5,101.2c17.3,69,17,137.2,33.6,205.8c90.3-27.5,177.5-54,265.9-80.9
	C1431.8,2595.8,1420.3,2523.5,1407.8,2445.2z M1475.6,2815.2c-84.6,15.4-164.6,29.7-244.4,44.8c-17.6,3.3-19.4,7.9-15.8,27.4
	c9.1,48.6,18.2,97.1,27.6,145.6c2,10.1,5.4,19.9,8.7,31.5c86.6-10.6,170.5-20.1,256.9-36.7
	C1489.8,2957.1,1493.3,2886.6,1475.6,2815.2z M2805.9,2839.5c1.1-3.1,2.4-5,2.3-6.7c-7-69.3-14.3-138.5-21.2-207.8
	c-1.5-15.2-9.4-24.4-22.5-31.1c-18.9-9.7-37.5-20-55.9-30.8c-36.7-21.5-73.1-43.6-109.8-65.1c-7.6-4.4-16-7.4-25.9-11.9
	c4,75.4,8.5,145.8,10.9,216.3c0.8,22.5,9.8,35.1,29.5,44.5c60.2,28.8,119.7,59,179.6,88.5
	C2796.8,2837.5,2801.5,2838.2,2805.9,2839.5z M2763.5,3225.1c-19,1.6-34.3,3.5-49.6,4.1c-50.3,2.2-100.7,3.9-151,5.8
	c-25.3,0.9-24.7,1.1-32.6,23.6c-22.7,64.9-45.9,129.6-68.8,194.4c-2,5.8-3.2,11.8-5.3,19.5c7-0.4,11.2,0.4,14.4-1
	c75.2-30.9,150.4-61.8,225.2-93.6c8.1-3.4,16.3-11.9,19.7-20c16.4-38.2,31.4-77.1,46.5-115.9
	C2763.7,3237.8,2762.9,3232.7,2763.5,3225.1z M2561.2,3055.1c74,18.3,145.5,35.9,218.3,53.9c2.7-9,5.4-15.2,6.3-21.6
	c5.7-43,11.4-86.1,16.4-129.2c2.3-19.7-1.9-23.9-25.6-31.3c-54.4-16.8-108.8-33.7-163.2-50.3c-10.8-3.3-21.9-5.8-36.5-9.7
	C2571.5,2931.6,2566.4,2992.8,2561.2,3055.1z M1864,2365c0-43.6,0-83.8,0-127.7c-109.6,4.7-215.9,15.2-321.2,25
	c0,56.5,0,109.1,0,161.8c5.9-2,8.7-4.8,9.3-7.9c5.6-33.3,26.5-42.2,58.2-42.4c75.6-0.6,151.1-4.1,226.7-6.5
	C1845.4,2366.8,1853.9,2365.8,1864,2365z M2313.6,2400.2c11.7-34.7,25.2-68,30.9-105.4c-12.2-2.9-21.3-5.9-30.7-7.3
	c-83.2-12.7-166.5-25.2-249.7-37.6c-26.3-3.9-26.8-3.6-34.9,21.6c-16.9,52.5-33.6,105-50.3,157.6c-0.9,2.7,0.2,6,0.7,13.8
	c16.4-17.7,30.2-31.2,42.3-46.1c14.7-18,32.3-26.4,55.8-23.5c29.8,3.7,59.7,5.9,89.5,9.3C2215.3,2388.2,2263.1,2394.2,2313.6,2400.2
	z M886.9,3018.6c15.4,44.7,34.9,86,60.1,127.4c50.4-28.3,98.9-55.4,147.6-82.7c-13.3-53.1-25.9-103.3-38.5-153.6
	C1029.1,2917.5,948.6,2969.5,886.9,3018.6z M2410.9,2799.6c1,1.6,2.1,3.2,3.1,4.8c10.3-4.3,21-7.8,30.9-13
	c27.5-14.3,54.2-30.2,82.1-43.6c17.7-8.5,22.6-20.1,21.2-39.2c-4.9-68.6-8.1-137.3-12.2-206c-0.4-6.2-2.7-12.2-4.9-21.6
	c-27.9,15.3-52.6,30.2-78.5,42.7c-14.4,7-19.4,14.7-17.7,31.3c5.4,54.9,8.4,110.1,13,165.1c2.1,24.9-4.5,45.8-23.1,62.9
	C2419.5,2787.9,2415.5,2794,2410.9,2799.6z M1331,2321.4c-79.9,47.9-154,96.7-229.1,147.6c7.7,14.5,14,26.1,21.9,41
	c95.4-31.1,185.6-71.7,282.6-105.8C1380.1,2375.4,1356.4,2349.3,1331,2321.4z M878.6,2934.4c2.4,0.7,4.8,1.3,7.2,2
	c5.7-5,12.2-9.3,17.1-15c32-37.5,63.4-75.5,95.4-113c9.4-11,8.6-23,6.5-35.5c-5.6-33.4-11-66.7-16.9-100c-1.7-9.8-4.8-19.4-7.5-30.3
	c-5.1,3.2-8.1,4.2-9.8,6.2c-28.4,35.3-57.4,70.2-84.5,106.6c-7.1,9.5-11.5,23.4-11.4,35.3C874.7,2838.5,877,2886.4,878.6,2934.4z
	 M2332.2,642.9c27.9,25.7,41.1,25.5,53.3,0.4c40.2-82.9,74.6-167.8,91.4-259c9.5-51.2,6.1-57.2-45.5-67.5
	c-19.5-3.9-23.2-1.2-25.4,20c-1.5,14.4-2.6,28.9-3.4,43.4c-4.4,82.1-23.1,160.5-58.7,234.8C2339.5,624.3,2335.9,634.1,2332.2,642.9z
	 M1018.4,2610.9c-1.5,6.6-2.6,8.5-2.3,10.2c8.2,51.6,17,103.1,24.7,154.8c2,13.5,9.2,19.7,20.9,24.8c28.4,12.4,56.1,26.1,84.2,39
	c10.1,4.6,20.6,8.4,33.4,13.6c1.8-19.4-8.1-29.1-16.6-38.9c-14.5-16.7-23.1-35.2-24.4-57.6c-1.5-25.1-4.1-50.2-7-75.2
	c-1.3-11.4-2.4-23.6-15.4-29.1C1083.9,2638.8,1052,2625.2,1018.4,2610.9z M2036.8,2435.7c-23.1,26.7-43.9,49.2-62.6,73.4
	c-5,6.5-5.3,18.2-4.4,27.2c2.4,23.1,6.5,46,10.2,69c7.6,46.9,16.7,93.7-1.7,140.4c-2.5,6.4-1,14.5-1.5,24.5
	c6.3-2.7,10.5-3.3,12.8-5.6c21.7-22.1,43.8-43.9,64.2-67.1c4.9-5.6,6.3-16.2,5.7-24.2c-4.2-56-9.2-111.9-14.4-167.8
	C2043.2,2483.6,2040,2461.9,2036.8,2435.7z M2019.1,2789.7c1,1.8,2,3.6,3,5.4c6.4-1.4,13.3-1.7,19.2-4.3c25.9-11.4,52.7-11,79.9-8.2
	c70.3,7.2,140.5,14.5,210.8,21.1c8,0.7,19-0.3,24.1-5.2c12.2-11.6,21.7-26,34.2-41.8c-8.4-2.1-13.6-3.9-19-4.7
	c-22-3.2-44.1-6.3-66.1-9.2c-65.3-8.4-130.5-16.8-195.8-25c-11.4-1.4-22.6-2.8-31.9,8C2058.6,2747.7,2038.6,2768.5,2019.1,2789.7z
	 M1636.7,2716.2c-5.8,23.8-15.1,42.8-12.3,64.9c8.1,0,13.9,0.1,19.6,0c85.1-2,170.2-4,255.2-6.1c5.8-0.1,11.8,0.3,17.3-1
	c4.4-1.1,10.5-3.6,11.8-6.9c6.2-16.5,17.2-32.2,13-50.8C1839.4,2716.2,1739.1,2716.2,1636.7,2716.2z M2032.8,3128.8
	c13.8,15.1,25.1,24.6,32.8,36.4c13.1,20.1,30.8,27.2,54,27.2c82.3,0,164.6,1,246.9,1.4c7.1,0,14.2-1.6,24.3-2.8
	c-6.7-9-11.9-14.7-15.4-21.3c-12.5-23.2-32-29.6-57.5-30.4c-83.2-2.7-166.3-7.7-249.5-11.6
	C2058.3,3127.2,2048.1,3128.3,2032.8,3128.8z M2449,2883.9c-3.1,69.3-7.8,135.1-4.7,204.5c23.1-8.5,41.7-16.1,60.9-22.2
	c16-5.1,22.9-14.9,24.1-31.7c2.9-39.5,7.7-78.9,10.7-118.4c1.3-17.1,0.2-34.3,0.2-54.5C2509.6,2869.1,2480.8,2876.1,2449,2883.9z
	 M2447.4,2478c1,1.2,2,2.4,3,3.6c6-2.2,12.3-3.9,18-6.8c18.9-9.7,37.8-19.5,56.3-29.8c19.3-10.8,37.2-12.3,57,0.4
	c33.3,21.4,67.8,40.9,101.9,61c10.8,6.4,21.5,13.2,32.8,18.5c16.1,7.6,24.5,4.9,31.7-8.2c6.7-12.1,3.8-21.3-7.1-30
	c-57.7-45.7-120-84.6-183.7-121.2c-13.5-7.8-21.6-2.1-29.4,8c-19.5,25.2-39.2,50.3-58.7,75.6
	C2461.7,2458.6,2454.6,2468.4,2447.4,2478z M1245.8,3386.7c1.8-5.7,3.3-7.7,2.8-9.1c-1.6-4.5-3.8-8.8-5.9-13.1
	c-20.7-41.4-42.4-82.4-61.6-124.5c-7.3-16.1-16-20.9-33.1-20c-40.5,2.1-81.2,2-121.8,3c-6.2,0.2-12.3,1.6-25.2,3.5
	C1078.6,3293.7,1157,3347.3,1245.8,3386.7z M1196.4,2788.8c17.4,34.7,17.5,35,47.9,29.3c66.7-12.3,133.4-24.5,199.8-37.7
	c26.2-5.2,51.5-7.8,76,6c0.5,0.3,2.4-2,5.4-4.4c-15.9-18-32.9-35.2-47.5-54.3c-13.2-17.3-26.9-20.5-47.6-13.6
	c-57.9,19.2-116.6,35.9-174.9,54.1C1236.2,2774.3,1217.4,2781.5,1196.4,2788.8z M1651.1,3130.3c0,9.8-0.5,17.3,0.1,24.7
	c2,24.3,3,25.2,28.1,26.5c5.8,0.3,11.6,0.2,17.4,0.3c83.3,1.4,166.7,2.8,250,4c7.4,0.1,14.8-0.8,21.6-1.2c0.8-3.9,2-5.9,1.5-7.4
	c-2.5-7.3-5.5-14.5-8.3-21.7c-11.1-28.6-11.1-28.5-41.4-28.3c-78.5,0.6-157,1-235.5,1.6C1674.2,3129,1663.8,3129.8,1651.1,3130.3z
	 M1207.2,3086.3c1-2.5,2.5-4.4,2.3-6c-7.4-48.6-15.3-97.1-22.5-145.7c-2-13.4-9-20.4-22.2-22.6c-19-3.3-37.8-7.4-56.8-10.5
	c-4-0.6-8.4,1.5-13.4,2.5c11.4,47.9,21.7,94,33.7,139.6c2.1,8,9.4,17.6,16.7,20.9C1165,3073.4,1186.4,3079.3,1207.2,3086.3z
	 M2424,2446.2c28.5-34.5,53.1-63.1,76.3-92.7c12.3-15.7,10.9-21.3-4.9-33.7c-12.2-9.6-24.9-18.5-37.8-27.1
	c-12.8-8.5-26.2-8.9-36.9,3c-16.8,18.6-33.9,37.2-48.2,57.6c-9,12.8-15.3,28.5-13.2,45.9C2384.7,2407.9,2418,2401.8,2424,2446.2z
	 M2836.4,2710c0.7,12.6,1.1,22,1.7,31.4c2.3,39.5,4.7,79.1,7.1,118.6c0.9,15.3-1.5,28.9-17,36.8c-2.9,1.5-4.7,5.3-11.7,13.9
	c35.1-8.6,63.4-15.5,94.1-23c-1-61.3-3.3-121.2-12.5-183.4C2876.1,2706.3,2857.3,2708.1,2836.4,2710z M1951.9,2391.8
	c5.6-12.7,11-22.9,14.6-33.8c10.9-32.9,21.3-66,31.4-99.2c9.1-29.8,7.7-34.2-17.1-54.1c-6.6-5.3-14-9.4-20.5-13.7
	c-41.8,32.6-55.5,60.6-52.9,107.6c0.9,16.4,2.4,32.7,4.9,48.9c0.9,6.1,4.4,12.8,8.7,17.2C1929.5,2373.6,1939.4,2381,1951.9,2391.8z
	 M2776.4,2886.9c2-3.6,4.1-7.3,6.1-10.9c-4.4-2.1-8.8-4-13.1-6.2c-62.7-32.4-125.2-65.1-188.3-96.7c-6.6-3.3-17.7-3-24.6,0.2
	c-33.2,15.7-65.8,32.8-98.2,50.1c-4.9,2.6-7.6,9.1-14.6,17.7c9.9,0,14.6,0.8,18.8-0.1c23.5-5.3,47.2-10.1,70.3-17
	c14.7-4.3,27.8-4,42.3,0.9c51.2,17.4,102.7,34,154.3,50.3C2744.8,2880.1,2760.7,2883.1,2776.4,2886.9z M2013.3,3075
	c34.6,0.8,39.3-1.6,40.2-22.9c3-70.7,5.5-141.4,8-212.1c0.1-3.6-1.6-7.3-3.2-13.8c-11,2.4-21.1,4.5-31.2,7
	c-23.6,5.8-23.9,6.7-23,31.5c2.3,61,4.3,122,6.6,183C2011.1,3056.3,2012.3,3064.8,2013.3,3075z M1521.1,2830.7
	c-1.5,3.2-3.2,5.1-3,6.6c8.9,60.2,17.2,120.5,27.3,180.5c3.6,21.4,20.2,31.8,47.5,33.9c-8.4-63.4-16.7-126.5-25.3-189.6
	c-1.5-11.4-7.8-19.6-19.3-23C1539.1,2836.4,1530,2833.5,1521.1,2830.7z M1289.1,3166.7c12.9,1.3,22,2.4,31.1,3.1
	c26.1,1.9,52.1,3.7,78.2,5.3c34.8,2.2,69.6,5,104.4,6c34.1,0.9,50.3-12,64.4-49.4c-11,0-21.3-0.5-31.4,0.1
	c-17.4,1.1-34.7,3-52.1,4.2c-54.1,3.7-108.2,7.1-162.3,11C1310.2,3147.8,1297.8,3147.1,1289.1,3166.7z M1536.3,2737.1
	c-0.6-13.7-0.1-20.5-1.3-26.9c-11.7-58.8-23-117.8-35.8-176.3c-5.8-26.4-25.8-42.7-47.1-57.7c7.4,60.5,16.6,119.6,27.8,178.3
	C1486,2687,1506,2711.5,1536.3,2737.1z M1468.8,2229.9c-13.2,31.6-24.4,62.6-25.4,96.6c-0.2,5.6,1.1,11.8,3.6,16.9
	c16.8,34.6,34,69,51.3,103.4c0.4,0.8,3.4,0.3,4.9,0.4c0-43.2,0.3-86.4-0.1-129.7c-0.1-16.4-1-32.9-2.9-49.1
	C1498.1,2251.6,1491,2237.4,1468.8,2229.9z M2838.2,2985.7c-6.8,47.5-13.1,91.9-19.3,135.7c30.9,11.1,43.2,9.8,52.1-9.4
	c17.7-37.6,28.5-77.4,29.6-119.3c0-1.5-2-3.1-4.7-7C2878.9,2985.7,2860.2,2985.7,2838.2,2985.7z M1606.2,3157.8
	c-10.3,11.1-16.9,19.4-24.6,26.5c-15.8,14.5-20,29.9-14.1,51.8c14.6,54.1,26,109.1,39.3,163.5c4,16.4,10.4,32.3,15.7,48.4
	c1.7-0.4,3.4-0.8,5.1-1.1C1620.5,3352.3,1613.5,3257.7,1606.2,3157.8z M1584.8,2746.7c14-28.1,14.3-51.8,11.3-75.7
	c-6.7-53.6-13.6-107.1-20.7-160.6c-1.6-11.8-4.5-23.5-7.7-39.4c-23.3,26-31.5,51.2-25.7,80.4c10.9,54.8,22,109.6,33.3,164.4
	C1577,2724.1,1580.3,2732.1,1584.8,2746.7z M988.7,2546.9c42.3,25,82.3,44.9,125.7,60.7c0.5-28.3-9.8-66.4-21.4-82.8
	c-11.5-16.2-61.8-30.1-79.8-21.3c-4.9,2.4-9.6,7.1-12.1,11.9C996.4,2524.7,993.4,2534.8,988.7,2546.9z M2418.1,3441.4
	c2.1,0.7,4.2,1.3,6.3,2c4.5-10.2,9.8-20.2,13.4-30.7c18.6-53,36.9-106.1,54.8-159.3c3.6-10.7,9-22.6-3.1-31.9
	c-16.3-12.6-32.8-25-55.1-41.9c17.1,32.3,13.7,60.1,10,87.9c-3.6,27.8-7.6,55.6-11.8,83.4C2428.1,3381.1,2423,3411.2,2418.1,3441.4z
	 M2734.6,3185.5c-37.9-14.3-234.8-34.4-266.4-26.6c13.1,10.7,24,21.7,36.8,29.5c10.2,6.2,22.9,12.4,34.2,12
	c62.8-2.3,125.5-6.6,188.3-10.3C2729.2,3190,2730.7,3188.2,2734.6,3185.5z M2019.3,3169.4c1.7,106.6,3.3,205.3,4.9,304.1
	c3.9-2.4,5.3-4.8,5.6-7.5c10.9-78.4,21.8-156.7,32.2-235.1c0.7-5.3-0.4-12.5-3.6-16.5C2047.4,3200.3,2035.1,3187.3,2019.3,3169.4z
	 M2901.9,2663.1c-2.9-10.3-3.6-15.1-5.6-19.3c-9.9-20.9-19.6-41.9-30.4-62.3c-18.6-35.1-42.8-42.8-85.8-26.4c5.4,5,9.2,11,14.5,12.9
	c27.4,10.1,34.4,30.4,32.8,57.3c-0.9,14.8,1.5,29.8,2.7,48.2C2855.6,2669.8,2876.9,2666.7,2901.9,2663.1z M1276.9,3102.4
	c0.2,2.7,0.4,5.5,0.7,8.2c12.7,0.2,25.5,1.2,38.2,0.4c77-4.9,154-10.1,230.9-15.5c5.8-0.4,11.5-2.1,19.7-3.7
	c-20.5-17.6-37.9-29.6-64.5-25c-68.4,11.7-137.4,20.6-206.1,30.8C1289.4,3098.5,1283.2,3100.8,1276.9,3102.4z M2936.7,3157.7
	c18.1-26.6,25.4-57.4,34.3-87.5c1-3.2-0.2-8.1-2.1-10.9c-10-14.8-20.5-29.2-34-48c-7.9,32-12.9,59.2-21.6,85.1
	C2904.8,3121.6,2906.8,3141.3,2936.7,3157.7z M1823.9,2192.7c-10-11.2-22.7-9.9-34.7-9.1c-48.3,3.6-96.6,7.3-144.8,11.8
	c-31.8,3-63.6,6.8-95.2,11.4c-9,1.3-21.6-0.6-25.2,13.4C1549.5,2224.6,1801.9,2201.6,1823.9,2192.7z M2981.7,2957
	c7.2-68.1-10-147.5-38.1-176.3c-0.6,42-1.1,81.2,7.3,119.5C2955,2919,2964.5,2937.2,2981.7,2957z M2488.9,3114.4
	c75,8.7,150.1,17.5,228.6,26.6c-5.1-3.5-7.1-5.8-9.5-6.5c-52.2-13.4-104.4-27-156.8-39.6C2528.4,3089.5,2507.6,3096.4,2488.9,3114.4
	z M2290.5,2245.9c0.3-2,0.6-3.9,0.9-5.9c-86.9-20.3-174.3-37.3-264.1-43.1c4.5,6,9.8,10.5,15.5,11.4
	C2125.3,2221.1,2207.9,2233.4,2290.5,2245.9z M1236.1,3186.3c-29.8,15.1-31.5,18.5-20,44.5c9.3,21.2,19.2,42.1,29.5,62.8
	c5.1,10.2,11.7,19.6,17.6,29.4c1.3-0.8,2.5-1.6,3.8-2.4C1256.6,3276,1246.4,3231.4,1236.1,3186.3z M1201.9,3150.1
	c-48.9,12.5-97.3,8.3-141.7,28c36.4,3,72.7,4.1,108.8,2.5C1183.8,3180,1195.2,3170.2,1201.9,3150.1z M964.9,2903.4
	c1.4,1.4,2.8,2.7,4.3,4.1c34.2-20,68.4-40.1,102.1-59.8c-26.3-18.9-40.2-21.6-54.7-6.1C998.3,2861.1,982,2882.7,964.9,2903.4z
	 M1068,3131.1c33.2-3.7,67.4-0.4,102-12.3C1129.6,3083.2,1098.4,3103.8,1068,3131.1z M1318.3,2284.8c-28.6,3-156.8,85.4-169.1,104.2
	C1205.9,2354,1262.1,2319.4,1318.3,2284.8z M2806.2,3205.4c-2.6,21.3-5,40-8.2,66.3c14.5-20.3,25.1-35.1,37.5-52.5
	C2823.2,3213.5,2815,3209.6,2806.2,3205.4z M1368.7,2290.3c12.8,23.5,25.8,46.6,47.5,62.8
	C1410.4,2324.5,1394.1,2303.8,1368.7,2290.3z M2884,3223.7c-25.8,8.1-34.6,25.1-41.1,44.2C2859,3257.3,2874.3,3246.2,2884,3223.7z
	 M2919.7,2950.4c-0.5-14.7-6.6-17.8-15.2-16.6c-8.4,1.2-16.8,3-25,5.4c-6.3,1.9-12.3,5.1-18.4,7.7c0.5,1.2,0.9,2.3,1.4,3.5
	C2880.9,2950.4,2899.3,2950.4,2919.7,2950.4z M971.1,2586.3c-1.9-1.8-3.9-3.6-5.8-5.4c-2.9,3.9-5.9,7.9-8.8,11.8
	c1.7,1.6,3.4,3.1,5.1,4.7C964.7,2593.7,967.9,2590,971.1,2586.3z M3021.3,2984.4c-0.3,0-0.6,0-0.9,0c0,4.1,0,8.2,0,12.3
	c0.3,0,0.6,0,0.9,0C3021.3,2992.6,3021.3,2988.5,3021.3,2984.4z M3015.5,3039c0.3,0,0.5,0,0.8,0c0-4.5,0-9.1,0-13.6
	c-0.3,0-0.5,0-0.8,0C3015.5,3029.9,3015.5,3034.5,3015.5,3039z"/>
<path d="M1705.6,716c53.2,0.2,85.7,23,95.7,57.4c10.4,36.1-2.8,70.9-37.2,92.5c-15.5,9.7-32.4,17.5-49.4,24.4
	c-90.1,36.2-165.3,92.2-226.9,167.1c-11,13.4-23.2,26.5-37.1,36.6c-51.2,37.3-125.9,5.2-128.9-56.5c-1-20.2,5.8-42.5,14.7-61
	c10.8-22.3,26.1-43.1,42.4-62.1c70.4-82.6,155.6-145.2,258.3-181.8C1663.3,723.2,1691.4,719.3,1705.6,716z M1770.8,793.2
	c-0.5-21.6-16.5-39.8-41.1-41c-18.9-0.9-39,1-57.1,6.5c-121.8,37.1-218.3,110.1-294.2,211.2c-8.6,11.4-15.3,24.8-20.4,38.2
	c-8.9,23.4-2.7,45.4,14.1,57.6c16.7,12.1,44.8,11.8,62.6-2.3c9.8-7.7,18.3-17.3,26.3-26.9c66.6-80.6,146.7-142.8,244.3-181.8
	c15.2-6.1,29.5-14.5,43.5-23C1762.9,823.2,1770.3,810,1770.8,793.2z"/>
<path d="M2413.8,1703.9c0.5,46.8-35.1,82.3-82.3,82.2c-44.9-0.1-80.4-36.2-80.2-81.5c0.2-43.7,37.7-81,81.6-81.3
	C2377.8,1622.9,2413.4,1658.3,2413.8,1703.9z"/>
<path d="M1615.3,1537.8c-45.4,0.3-79.5-32.3-80.3-76.9c-0.9-45.1,34.7-82.5,78.7-82.6c45.5-0.2,83,35.7,82.7,79.2
	C1696,1503.4,1661.7,1537.4,1615.3,1537.8z"/>
<path d="M1796.3,1635.7c1.9-10,3.9-23.4,7.1-36.4c2.5-10.5,9.3-17.4,21-15.3c12,2.2,18.5,9.9,17.5,22.6c-0.5,5.8-1.5,11.5-2.1,17.3
	c-6.4,57.9,22.4,101.9,81.9,125.1c49.6,19.3,108.6,1.9,139.5-41.5c4.5-6.3,8.1-13.2,12.6-19.5c7.3-10.4,16.5-12.3,27.7-6
	c10.8,6.1,10.8,15.1,6.8,25c-11.3,27.8-29.9,49.6-55.2,65.5c-79.6,49.8-206.8,22.2-245.4-79.5c-3.4-9-6.2-18.4-8.1-27.8
	C1797.8,1656.6,1797.6,1647.9,1796.3,1635.7z"/>
<path d="M2642.8,2123.9c-9.6-20.9,0.8-35.7,9.8-50.3c31.8-51.1,57.4-105.1,79.5-161c26.8-67.6,44.7-137.8,59.1-208.9
	c0.6-2.8,0.6-5.8,1.2-8.6c3.9-18,9.5-23.9,21.3-21.4c16.8,3.6,13.3,16.6,11.5,27.8c-21,128.1-63.6,248.8-127,362.1
	c-7.1,12.7-13.5,25.7-21.6,37.7C2669.3,2112.6,2660.6,2123.3,2642.8,2123.9z"/>
<path d="M1292.5,1243c-27.5,0.5-46.9-18.8-47.4-47.3c-0.5-32.2,19.1-57,45-57.1c28.6,0,49.6,22.2,49.8,52.8
	C1340.2,1220.9,1320.3,1242.5,1292.5,1243z M1281.5,1208.2c23.3-7.5,31-15,25.3-25.1c-2.3-4-11.6-7.6-16-6.1
	C1275.4,1181.9,1274.6,1193.4,1281.5,1208.2z"/>
</svg>
