<?xml version="1.0" encoding="utf-8"?>
<!-- Generator: Adobe Illustrator 24.3.0, SVG Export Plug-In . SVG Version: 6.00 Build 0)  -->
<svg version="1.1" id="Layer_1" xmlns="http://www.w3.org/2000/svg" xmlns:xlink="http://www.w3.org/1999/xlink" x="0px" y="0px"
	 viewBox="0 0 4000 4000" style="enable-background:new 0 0 4000 4000;" xml:space="preserve">
<path d="M3233.3,2366c0,344.2,0.1,688.4-0.2,1032.6c0,22.1-1.6,44.5-5.7,66.2c-8.6,45.7-34.1,79.2-78,97
	c-100,40.5-200,81.1-300.2,121.2c-96.3,38.5-193,76.1-289.1,115c-45,18.2-90.8,27.1-139.4,23.9c-136.3-8.9-272.6-17-409-25
	c-85.6-5.1-171.3-9.5-256.9-14.1c-140.6-7.7-281.2-15.6-421.8-23.1c-100.4-5.3-200.9-9.9-301.4-15.3c-65.5-3.5-131.2-6.3-196.4-12.5
	c-75.8-7.2-123.2-55.5-131.8-131.3c-3.5-30.4-5-61.2-5-91.9c0.1-485,0.7-970.1,0.8-1455.1c0.1-191.7-0.3-383.4-1.1-575.1
	c-0.2-37.9,7.9-72.9,23.9-107.2c121.7-260.8,242.6-522.1,364.5-782.9c13.4-28.7,19.3-57.3,18.4-88.8c-1.7-60.3-1.6-120.7-1-181.1
	c0.2-19.9,2.5-40.2,6.9-59.7c19-83.7,86.8-135.7,176.1-135c57.2,0.5,114.3,2.5,171.5,4c328.2,8.8,656.3,17.5,984.5,26.8
	c86.8,2.4,173.5,6.4,260.3,9.8c84.5,3.3,163.1,79.7,166.8,174c1.9,49.7,0.8,99.5,1.5,149.3c1.7,126.5-6.1,90.8,49.1,195.6
	c87.8,166.7,176.4,332.9,267.2,498c32.6,59.3,47.8,119.2,47.4,187.3c-2.1,332.5-1,665.1-1,997.6
	C3233.7,2366,3233.5,2366,3233.3,2366z M793,2026.7c-7.9,69-6.1,928.8,2.2,960.9c550.3,27.3,1101.7,54.7,1656.7,82.2
	c0-325,0-646,0-968.4C1898.2,2076.5,1346.5,2051.7,793,2026.7z M2606.1,1077.2c9.1-24,17-44.5,24.7-65.1
	c43.1-114.9,86.3-229.7,129.1-344.8c4.5-12.1,6.3-25.3,10-40.6c-151.8-5-298.8-10.2-445.8-14.7c-147.1-4.6-294.2-9.4-441.4-12.5
	c-146.6-3.1-293.2-9.2-439.6-11.3c-3.4,61.5-3.4,61.5-32.2,114.9c-22.5,41.8-12,82.4,29.2,105.9c26.6,15.2,54.6,27.8,82,41.7
	c21.2,10.7,39,25,51.8,45.5c54,86.4-0.1,198.8-101.8,210.7c-21,2.5-42.2,4-63.3,4.6c-18.4,0.6-32.5,7.6-43.2,22.4
	c-6.2,8.5-12.9,16.8-20,24.6c-19.1,21.2-42.9,34.4-71.4,37.4c-60,6.4-108.3-24.9-126.5-82.8c-7.3-23.2-12.1-47.1-18.2-70.7
	c-4.7-18.2-15.4-29.2-35.3-30.8c-31.4-2.5-62.7-5.9-98.4-9.4c-62.6,132.1-126.1,266.2-192.2,405.9c446.7,17.1,887.1,34,1331.1,51
	c1.5-18.7,3.7-34.2,3.6-49.7c-0.2-32.1-7.3-39.5-39-48c-23.4-6.3-47.4-11.9-69.4-21.7c-39.8-17.9-60.8-57-57.6-100.7
	c4.9-67.8,49.3-117.8,117.6-124.6c41.8-4.2,73-18.1,90.3-57.5c0.4-1,1.2-1.8,1.8-2.6c29.8-45.2,72.3-58.8,124-50.8
	c39.2,6.1,66.5,30.3,91.8,58.3c38.4,42.5,38.8,42.9,91,19C2525.7,1064,2562.7,1055.4,2606.1,1077.2z M2451.7,3114.3
	c-554.8-27.7-1106.1-55.3-1659.3-83c0,79.4,0,155,0,230.2c4.2,0.7,6.3,1.5,8.3,1.3c3.1-0.4,6.4-1,9.2-2.4c38-19.5,74-10.8,109.2,7.7
	c14,7.4,27,16.7,40.9,24.3c30.2,16.4,44.5,13.9,66.1-12.4c12.1-14.7,22.6-30.7,34-45.9c29.5-39.2,69.2-56,117-47.2
	c47.8,8.8,79.7,39.4,92.6,85.9c7.3,26.2,9.9,54,11.4,81.3c3.4,59.9,10.8,67.5,68.8,77.8c28.8,5.1,58.2,12.7,84.4,25.4
	c80.8,39.3,102.8,138.3,70,200.3c-2.8,5.2-4.2,11.2-6.3,17c44,11.5,513.3,34.2,540.4,25.3c-8.2-12.9-15.2-25.6-23.9-37.1
	c-16.9-22.5-27.9-47.1-32.9-74.8c-11.6-65.1,23.9-165.6,123.3-171.1c20.8-1.1,41.9,4,62.9,6.1c12.6,1.3,25.3,3.6,37.8,3.1
	c27.5-1.1,47.7-18.2,54.2-44.9c3.7-15.4,5.6-31.3,9.3-46.7c17.1-72.2,78.2-111,150.9-95.9c9.9,2,19.8,3.9,31.6,6.3
	C2451.7,3201.1,2451.7,3160.1,2451.7,3114.3z M792.9,1978.8c59.4,10.8,1623.9,77.8,1658.5,71.4c0-91.3,0-182.8,0-272.5
	c-21.3-5.7-40.5-8.5-57.5-16.1c-23.5-10.5-40.1-4.1-56.4,13.2c-15.1,16.2-30.3,32.9-48.1,45.9c-67.5,49.6-150.3,27.8-185.4-48
	c-6.2-13.4-10-27.9-15.5-41.6c-10.8-26.9-29.2-37.5-57.7-31.8c-14.5,2.9-28.8,7.2-42.6,12.5c-27.3,10.4-55.4,14.1-84.2,12.1
	c-59.5-4.2-101.5-33.3-123.2-89.5c-13.8-35.8-13.7-72.4-4-109.2c2.8-10.7,5.4-21.5,8.4-33.3c-8.2-1.5-12.3-2.7-16.4-2.9
	c-156.5-6.3-313.1-12.6-469.7-18.6c-8.8-0.3-17.7,1.7-29.1,2.9c4.2,11.9,8.1,19.5,9.4,27.5c3.1,18.6,8.7,37.8,6.6,56
	c-9.5,84.3-67,132.3-151.5,128.9c-21.1-0.8-42.2-3.9-63.4-3.9c-30.2,0-39.3,8-45.8,37.3c-4.4,19.6-6.8,39.7-11.9,59.1
	c-15.6,60-53.1,97.5-115.1,108.2c-26.6,4.6-52.7,1.5-78.3-6.8c-8.4-2.7-17.1-4.4-27.2-6.9C792.9,1910,792.9,1943.7,792.9,1978.8z
	 M1197.3,532.2c52.3,2.6,101.8,5.8,151.4,7.3c204.3,6.3,408.6,12.1,612.9,18.2c146.1,4.3,292.2,9,438.2,13.2
	c114.3,3.3,228.7,6.2,343,8.9c12.2,0.3,24.4-1.1,37.6-1.8c0-83,1.9-162.4-0.7-241.6c-1.7-50.4-42.2-82.1-90.7-83.3
	c-184.2-4.7-368.4-12-552.6-17c-241.4-6.6-482.8-12-724.2-17.8c-45.5-1.1-91.1-2.3-136.6-2.3c-34.9,0-65.5,23.2-76,56.5
	c-3.8,12-6.3,24.9-6.4,37.3c-0.5,65.7-0.1,131.3,0.3,197C1193.6,514.1,1195.7,521.3,1197.3,532.2z M3143.2,2282.5
	c-15.1,0-26.8,1.6-38-0.4c-19.6-3.4-40.4-5.7-57.8-14.3c-80.9-39.6-112.3-125.3-78.1-209c8-19.6,18.2-38.3,25.8-58
	c5.5-14.3,13.4-29.1,5.3-46.4c-168,47.5-335.5,94.7-501.1,141.5c0,26,0,48.4,0,73.6c9.4-2.6,15.4-4.2,21.3-5.8
	c80.1-21.3,145.2,21.1,155.6,103.4c3,23.5,12.2,41,27.4,58.6c36.6,42.6,19.4,107.7-32.4,128.9c-5.9,2.4-11.9,4.4-18,6.3
	c-14.5,4.7-19.3,14.7-16.9,29.4c2,12.5,3.6,25.2,4.4,37.8c3.4,52.9-27.9,117.8-108.1,117.7c-11.2,0-22.3,1.8-32.7,2.6
	c-6.5,49.6-4.5,389.4,2.6,413.3c114.1-33.2,228.2-66.4,341.7-99.4c0.3-4.1,1.2-6.5,0.4-8.1c-3.8-7.5-7.8-15-12.3-22.1
	c-30.6-47.6-30.4-94.9-0.8-143.2c8.6-14.1,13.3-30.7,18.7-46.5c3.4-9.9,3.8-20.9,7.1-30.8c17.2-51.3,69.4-72.6,117.7-48.2
	c7.5,3.8,14.5,8.7,22,12.6c8.9,4.7,16.4,2.5,22.1-5.6c3.6-5.2,6.9-10.6,10.1-16.1c19.2-33.2,47.6-49.8,86.2-49.1
	c9.1,0.2,18.2-1.4,27.9-2.3C3143.2,2495.7,3143.2,2391.1,3143.2,2282.5z M3142,1549.8c6.4-33.3,3.9-210.2-4.2-234.3
	c-213.6,66.2-427.4,132.4-640,198.3c0,179.2,0,355.2,0,535.4c168.4-47.8,334-92.4,504.7-143c-16.5-17.6-28.6-30.5-40.7-43.2
	c-41.5-43.7-54.5-94.4-36.6-152.2c20.5-66.4,65-110.4,129.2-134.4C3082.9,1565.8,3112.8,1558.5,3142,1549.8z M3145,2919.6
	c-25.6,7.7-45.6,13.8-65.8,19.7c-187.5,55.2-375,110.5-562.6,165.2c-15,4.4-20.5,11.5-20.1,26.8c0.8,31.7,0,63.5,0.3,95.2
	c0.1,6.8,2,13.7,3.4,22.2c10.4-2,18.5-3.8,26.6-5.1c56.7-8.8,106.3,20.8,123,75.7c6,19.9,8.7,41.5,8.9,62.4
	c0.1,22.9,8.2,38.1,28.9,47.4c66.8,30.1,85.5,102,66.3,163.4c-2.7,8.6-4.1,17.7-7.5,32.7c25.5-10.5,45.5-19.1,65.7-27.1
	c60.9-24,122-47.6,182.9-71.7c25.1-9.9,27.1-17.2,12.4-40c-8-12.5-17.2-24.2-24.3-37.1c-28.9-52.1-15.8-105.6,34.4-137.4
	c14.2-9,24.7-19.3,28.7-35.8c11.7-47.6,42.2-74.1,90.7-80.4c2.8-0.4,5.4-2.9,8.1-4.5C3145,3102.2,3145,3013.7,3145,2919.6z
	 M1183.7,3663.3c0-0.3,0-0.6,0-0.8c8.5,0.5,16.9,1.2,25.4,1.6c69.8,3.5,139.6,6.9,209.4,10.3c16.3,0.8,31.9,0.2,42-15.8
	c14.5-23,23.4-47.2,19.7-75c-6.9-51-51.4-96.5-104.6-106.1c-12.5-2.3-25.1-3.9-37.7-5.5c-67.1-8.9-91.8-34.9-97.4-103
	c-0.9-10.5-0.9-21.2-1.5-31.7c-0.8-12.7-0.6-25.6-2.9-37.9c-6.8-35.9-35.2-65.3-68-71.7c-32.9-6.4-57.4,6.8-81,42.7
	c-10.5,15.9-21.3,31.7-33.6,46.1c-18.2,21.3-41.5,31.4-70.3,29.6c-21.3-1.3-37.8-11.8-55-22.4c-16.1-9.8-32.5-20.6-50.3-25.7
	c-26.8-7.6-52.3,1-74.9,16.7c-20.1,14-15.5,35.5-15.6,55.2c-0.3,36-0.5,72,0.3,108c0.8,37,1.7,74.1,4.6,111
	c2.9,37.3,16.1,50.5,52.2,56.2c12.5,2,25.2,2.9,37.9,3.5C982.8,3653.5,1083.2,3658.4,1183.7,3663.3z M1021.4,960.4
	c22.4,2.3,39.1,4.1,55.8,5.6c56,5,80.5,25.7,95.6,80.5c5.9,21.4,10.7,43.3,18.9,63.7c21.1,52.4,78.5,63.2,117.5,22.8
	c9.5-9.9,18.1-20.6,27.2-31c19.9-22.6,44.1-35.1,75-34.8c20,0.1,40.2-1.3,60-4.1c66.1-9.5,101-81.3,69.1-139.3
	c-12-21.7-30.1-34.7-52-44.3c-24.2-10.6-49.3-19.7-71.9-32.9c-58.3-33.9-75.6-91.3-48.1-152.5c4.8-10.6,10.6-20.7,15.1-31.4
	c5.4-12.6,11.6-25.1,14.4-38.3c5.6-26.7-3.3-38.4-30-39.7c-51.7-2.5-103.6-3.3-155.3-6c-18.8-1-28.7,6.2-36.1,23.1
	c-46.4,105.4-93.7,210.5-140.3,315.8C1030.9,929.9,1027.4,943.1,1021.4,960.4z M2175.7,1459.1c13,1.4,22.2,3,31.5,3.4
	c69.8,3.4,139.5,7.1,209.3,9.5c46.6,1.6,41.3,4.7,56.2-37.3c2.1-6,5-11.7,7.2-17.6c33.4-90.3,66.3-180.7,100.3-270.7
	c12.9-34.2-0.9-42.2-32-40c-9.3,0.6-18.7,3.7-27.4,7.2c-9.8,3.9-18.7,9.8-28.3,14.4c-44,20.8-81.2,13.5-114.5-22
	c-13.7-14.7-26.7-30.3-41.9-43.3c-38.6-33.1-89.3-26-118.5,15.7c-5.4,7.8-9.8,16.3-15,24.3c-17.4,26.8-39.5,46.4-73.2,50.1
	c-17.8,2-35.7,5.5-52.9,10.5c-39.6,11.5-62.5,42.2-63,81.8c-0.4,34.3,16.4,56.3,49.6,64c12.3,2.9,25,4.4,37.4,6.8
	c53.6,10.3,82,47,78.7,101.6C2178.6,1429.9,2177.2,1442.3,2175.7,1459.1z M2451.3,3731.4c0.9-11.7,2.2-21.9,2.2-32.1
	c0.1-97.3,0-194.7-0.1-292c0-30.7-0.3-61.4-0.6-92c-0.1-10.8-0.6-21.4-12.4-26.9c-48-22.4-120.4-6.9-129.3,57.8
	c-2.4,17.7-6.3,35.5-11.8,52.5c-15.1,46-46.7,68.9-95.2,68.2c-22.1-0.3-44.2-3.7-66.2-6.8c-56-8-99.9,21.8-113.5,76.6
	c-9.2,36.9,2.8,68.6,20.9,99.5c11.7,20,23.9,39.8,33.9,60.7c6.2,13,15.3,15.4,27.7,16.1c104.5,6,209.1,12.3,313.6,18.5
	C2429.8,3731.9,2439.1,3731.4,2451.3,3731.4z M2449.7,1520.4c-11.8-1.2-21.1-2.6-30.5-3c-176.7-7.6-353.3-15.4-530-22.5
	c-63.7-2.5-68.1,2.1-77.1,66.5c-0.1,1-0.4,2.1-0.5,3.1c-5.2,44.3,16.9,84.3,56.3,104.9c30.2,15.8,60.3,15.9,92,5.6
	c24.1-7.8,48.7-14.7,73.6-18.8c40-6.6,70.7,10.5,88,47c7.2,15.3,12.2,31.6,18.3,47.4c22.2,57.1,76.4,72.3,125.1,34.2
	c14.1-11,26.8-24.1,38.5-37.7c30.1-34.7,64.7-45.2,107.7-25.3c10.7,4.9,23.5,5.4,38.4,8.6
	C2449.7,1658.6,2449.7,1591.3,2449.7,1520.4z M791.9,1457.9c-0.5,9.7-1.5,19-1.5,28.3c0,85.8,0.2,171.5,0.3,257.3
	c0,19.1-1.1,38.2,0.5,57.1c0.7,8.3,4.7,19.2,11,23.9c65.2,48.5,158.5,11.4,172.5-68c2.8-15.6,4.4-31.5,8.4-46.8
	c15.3-57.8,48.5-80.3,107.6-73.8c16.8,1.9,33.6,4.3,50.5,5.2c37.8,1.9,68.5-11.8,89.2-44.1c21.6-33.7,18.5-67.9,0.9-102.5
	c-9.7-19-23-26.6-45.2-27.1c-74.1-1.8-148.1-7.1-222.1-9.2C908.1,1456.7,852,1457.9,791.9,1457.9z M2660.9,1064
	c224.6,91.7,418.6,163.5,447.3,164.8c-2.2-7.3-3-14.7-6.3-20.8c-96.7-181.7-193.7-363.4-290.9-545.5
	C2793.5,686.1,2665,1029.6,2660.9,1064z M2641.9,1099.4c-45.2,121.1-88.8,238.2-132.5,355.2c1.9,1.9,3.7,3.9,5.6,5.8
	c64.6-17.5,127.7-40.5,191.7-60.1c63.6-19.6,127.4-38.4,190.6-58.9c63.3-20.5,128-36.7,189.6-62c0-2.5,0.1-4.9,0.1-7.4
	C2939.8,1215,2792.5,1157.8,2641.9,1099.4z M2498.8,3721.7c45.8-17.7,85.9-33.8,126.4-48.7c67.5-24.8,72.9-30.6,88.7-101.1
	c0.2-1,0.6-2,0.8-3.1c9.1-39.2-1.3-70.9-35.7-93.7c-13.2-8.8-25.9-18.3-38.8-27.5c-15.7-11.2-23.8-26.3-24.6-45.6
	c-0.7-18-1.9-35.9-3.7-53.8c-4.9-47.4-41-71.5-87.5-58.9c-23,6.2-27.1,11.1-27.2,35.5c-0.3,118.5-0.4,236.9-0.4,355.4
	C2496.7,3692.6,2497.9,3705,2498.8,3721.7z M3143.2,2654.6c-35.5-11.6-58.3-0.8-75.1,25.5c-4,6.2-7.8,12.6-11.6,18.9
	c-17.7,29.6-34,34.8-65.9,20.7c-13.5-6-26.3-13.8-40.1-18.8c-24.9-9.1-41-1.6-50,23.1c-3.6,9.8-3.2,20.9-6.5,30.8
	c-5.6,16.8-8.9,36.4-19.8,49c-32,37.1-21.7,81.9-0.7,114.6c18.5,28.6,18.3,28.7,50.5,19.2c9.1-2.7,18.4-4.8,27.5-7.4
	c63.7-18.5,127.5-37,191.7-55.7C3143.2,2800.6,3143.2,2728.2,3143.2,2654.6z M2499,2607.2c20.6-2.2,37.5-2.3,53.5-6.1
	c36.3-8.5,50.4-30,46.2-67.5c-1.7-14.7-4.3-29.3-6.5-43.9c-3.9-25.8,5-45.9,27.4-59.2c10.8-6.5,22.6-11.4,33.9-17.1
	c35.2-17.5,38.6-32.3,14.9-64.1c-3.2-4.2-6.5-8.3-9.9-12.4c-14.6-17.7-25.3-37.7-22-61c5.8-41.6-50.5-82.5-95.1-73.7
	c-33.4,6.6-45.1,19.5-45.1,53.4c0,104.7,0.1,209.4,0.4,314.2C2496.7,2580.2,2497.9,2590.6,2499,2607.2z M3045.8,1892.2
	c30.6-8.2,63.7-17.1,95.8-25.8c6.5-41.2,3.9-246.9-3.9-271.9c-17.9,5.3-36.1,10.1-53.9,16.2c-42.2,14.3-77.1,38.5-102,76.3
	c-35.8,54.4-31.3,102.5,13.5,148.9C3011.2,1852.6,3026.1,1870.3,3045.8,1892.2z M3142.8,1911.8c-27.8,8.5-52.9,15.8-77.8,23.8
	c-12.1,3.9-15.1,14.7-14.9,25.6c0.5,31.1-12.9,57.3-27.3,83.5c-7.1,13-14.3,26.1-19.6,39.8c-18.5,47.7,10.5,119.7,56.9,141.3
	c26.2,12.2,53.5,18.3,82.7,8.3C3142.8,2127,3142.8,2021.5,3142.8,1911.8z M3141.3,3243.6c-32.2,1.5-46.1,11.3-49.8,42
	c-3.5,28.3-16.6,46.9-41.4,58.8c-1.9,0.9-3.7,2.1-5.5,3.2c-38.7,24-44.8,47.2-21.9,87.3c11.9,21,24.9,41.3,39.4,65.2
	c13.5-6,27.3-12.9,41.7-18.5c28.3-11,40.2-31.2,39.6-61.5c-0.9-50.7,0.3-101.5,0.3-152.3C3143.6,3259.8,3142.1,3251.6,3141.3,3243.6
	z"/>
<path d="M1071.1,2491.8c-2.4,10-5.2,19.9-7,30c-8.6,46.8-16.6,93.7-25.5,140.5c-2.8,14.5-6.3,29.1-11.8,42.7
	c-9.7,23.7-22.2,29.6-44.6,23.6c-22.7-6.1-33.2-20.9-29.3-45.1c4.9-30.2,11.4-60.2,17.7-90.2c14.4-69.3,28.9-138.7,43.5-208
	c2.2-10.3,4.8-20.6,8.1-30.6c5.4-16.2,15.8-27.3,33.9-29.2c18-1.9,34.4,1.6,44.3,18c8.2,13.5,16,27.6,21.3,42.4
	c13.5,37.8,25.5,76.2,38,114.4c3.9,11.8,7.4,23.6,11.1,35.4c2.3,0.4,4.6,0.8,6.9,1.2c5-10.6,10.4-21.1,14.8-31.9
	c20.4-49.9,39.4-100.4,61-149.7c11.2-25.6,30.6-31.7,54.5-22.3c15.8,6.2,21.7,19.8,24.7,34.5c8.4,41.4,16.7,82.9,23.8,124.6
	c10.7,62.5,20.5,125.2,30.2,187.9c1.6,10.3,2.6,21.2,0.8,31.3c-3.3,18.6-16.9,29-35.7,30.2c-20.2,1.2-34.4-5.4-38.8-25
	c-8.3-37-13.7-74.8-19.2-112.4c-4.9-33.1-8.3-66.4-12.3-99.6c-2.4-0.5-4.9-1.1-7.3-1.6c-5.4,12-10.8,24-16.1,36
	c-13.2,30-26.1,60.1-39.7,89.9c-3.5,7.6-7.9,15.2-13.5,21.3c-20.5,22.6-54.4,19.7-69.9-6.4c-7.5-12.6-12.7-26.7-17.6-40.6
	c-9.6-26.9-18-54.2-27.4-81.2c-3.6-10.5-8.6-20.5-12.9-30.7C1075.2,2491.3,1073.1,2491.6,1071.1,2491.8z"/>
<path d="M2048.6,2610.5c-1.1,17.6-2.1,27.7-2.4,37.8c-0.8,27.5,0.6,55.2-2.6,82.4c-1.6,13.6-7.8,29.8-17.6,38.6
	c-18.1,16.4-52,2.9-57.9-21.7c-3.1-13.2-3.3-27.3-3.2-41c0.9-99.4,2.3-198.9,3.5-298.3c0.1-4.2,0.1-8.5,0.5-12.7
	c3.3-30.9,15-43.6,39.7-43.4c25.7,0.2,38.1,12.3,40.8,42.4c1.7,18.9,1,38,1.2,57.1c0.2,14.6,0,29.2,0,51.3
	c13.5-9.9,23.1-15.3,30.7-22.7c25.8-25,50.8-51,76.6-76c9.8-9.5,20.2-18.9,31.8-26c15.3-9.5,30.1-6.2,43.3,6.3
	c12.8,12,13.6,26.6,6.2,40.6c-5.8,11-14.3,21-23.3,29.8c-29.5,28.9-59.8,56.9-89.6,85.4c-5.2,4.9-9.8,10.5-17.2,18.6
	c9.4,9.9,17.8,18.8,26.3,27.6c30.9,31.9,62.1,63.6,92.7,95.7c8,8.4,15.2,17.7,21.2,27.6c10.3,17.2,8.1,34.6-4.4,46.3
	c-12.1,11.3-32.2,14.2-47.1,4.7c-9.6-6.2-17.9-14.7-25.9-23.1c-31.4-32.9-62.4-66.2-93.7-99.2
	C2070.6,2630.4,2062.1,2623.1,2048.6,2610.5z"/>
<path d="M1736.3,2681.7c38.5,0,71.1-0.2,103.7,0.1c11.6,0.1,23.5,0.1,34.6,2.7c17.8,4.2,30.6,20.8,30.1,36.1
	c-0.5,17.3-14.2,34.7-32,38.5c-11.3,2.4-23.1,3.9-34.6,3.6c-42.3-0.8-84.6-1.5-126.7-4.1c-38.5-2.3-55.1-17.9-54.1-55.9
	c2.8-106.7,7.3-213.3,12.4-319.9c1.3-26.6,15.7-38.6,37.5-37.5c25,1.3,39.1,14.1,39,40.3c-0.2,43.3-2.7,86.6-4.3,129.9
	C1740.1,2569.4,1738.3,2623.1,1736.3,2681.7z"/>
<path d="M1554.8,2539.7c0,47.5,0.2,95-0.1,142.5c-0.1,11.5-0.5,23.4-3.2,34.5c-4.7,19.5-17.5,29.2-35.8,29.7
	c-19,0.5-31.9-7.8-38.6-26.4c-2.8-7.8-4.3-16.5-4.2-24.7c1.9-103.4,3.7-206.8,6.7-310.2c0.9-32.3,18.7-47.6,45.2-43.3
	c21.7,3.6,33.3,17,33.4,42.8c0.2,36.9-1.4,73.9-2,110.8c-0.3,14.8,0,29.6,0,44.3C1555.7,2539.7,1555.3,2539.7,1554.8,2539.7z"/>
</svg>
