<?xml version="1.0" encoding="utf-8"?>
<!-- Generator: Adobe Illustrator 24.3.0, SVG Export Plug-In . SVG Version: 6.00 Build 0)  -->
<svg version="1.1" id="Layer_1" xmlns="http://www.w3.org/2000/svg" xmlns:xlink="http://www.w3.org/1999/xlink" x="0px" y="0px"
	 viewBox="0 0 4000 4000" style="enable-background:new 0 0 4000 4000;" xml:space="preserve">
<g>
	<path d="M3261.2,1516.3c65.9,21.2,128.6,41.2,191.1,61.7c57.9,19,116,37.5,173.2,58.5c17.9,6.6,34.6,18.7,49.4,31.2
		c28.7,24.1,41.7,57.4,43.7,93.9c2.7,47.1,3.6,94.4,3.3,141.6c-0.2,34.2-14.9,62.8-41.7,84.6c-70.4,57-140.8,113.9-211.2,170.9
		c-105.5,85.6-210.7,171.4-316.4,256.8c-80.4,65-161.4,129.1-241.8,194.1c-94.2,76-187.8,152.8-282,228.7
		c-85.1,68.5-170.8,136.3-256.2,204.6c-45.4,36.3-90.7,72.5-135.7,109.2c-88.1,71.7-190.2,99.4-302.1,99.3
		c-72.3,0-139.6-20.8-206.5-45.1c-152.6-55.5-305.4-110.4-458.1-165.6c-134.2-48.6-268.1-97.6-402.4-145.9
		c-160.2-57.6-320.6-114.4-480.7-172.1c-21.2-7.6-41.9-17.1-62.1-27.1c-45.6-22.6-69-61.9-73.1-110.6c-4.4-50.9-4.6-102.2-4.3-153.3
		c0.2-30.2,12.1-58.1,32.2-80.8c15.6-17.5,32.7-34.3,51.4-48.3c90.7-67.8,181.9-134.8,273.6-201.2c13.3-9.6,15.9-20.3,15.8-34.9
		c-0.7-96.5-2.2-193-0.7-289.5c0.9-60.6,13.3-119.2,46.3-171.8c15.9-25.3,35.4-47.1,59.8-64.5c66.5-47.4,133.3-94.5,199.3-142.7
		c77.1-56.3,153.4-113.7,230.2-170.5c120.3-88.9,241.1-177.3,361.1-266.7c120.8-90,241-180.7,361.3-271.3
		c50.7-38.2,103.6-71.6,167-84.6c63.8-13.1,127.2-12.9,189.7,6.6c95.8,29.9,191.4,60.4,287.1,90.5c120.1,37.8,240.3,75,360.2,113.2
		c73.1,23.3,146.3,46.4,218.5,72.4c102.3,36.9,157,112.5,159.3,221.6c2.3,105.3,1,210.7,1.3,316.1
		C3261.2,1454.6,3261.2,1484,3261.2,1516.3z M1986.2,922.6c5.9,3.2,11.4,7.1,17.6,9.3c93.7,32.9,187.6,65.3,281.2,98.4
		c19.4,6.9,38.6,14.9,57.1,23.8c21.5,10.3,35.7,27.7,41,51.3c2.8,12.5,5.6,25.2,5.6,37.9c0.2,59-0.8,118.1-0.8,177.1
		c0,17.2-6.3,30.6-19.5,40.9c-20.9,16.3-41.8,32.7-63.1,48.5c-83.8,62.1-168.7,122.9-251.4,186.5c-42.1,32.3-84.3,36.7-132.7,18.6
		c-82-30.7-165-58.7-247.1-89.2c-53.5-19.9-106.2-41.8-159-63.4c-38-15.6-55.3-46.4-57-85.8c-1.8-43.2,0.1-86.7-2.2-129.9
		c-3.4-63.2,24.8-104.9,77.8-137.7c66-40.9,128.3-87.8,192.5-131.6c36.6-24.9,73.7-49.1,111.1-72.7c9.7-6.1,21.4-9.8,32.7-12.9
		c18.9-5.2,38.1-10.1,57.4-13.3c36.8-6.1,73.6-14,110.7-15.4c65.6-2.5,125.3,20.7,183,50.1c34.1,17.4,68.4,35,103.9,49.1
		c55.3,22,114.5,28,173,35.4c50.8,6.4,101.4,12.4,150.5,28.5c106.3,35,163.5,126.4,143.2,235.7c-5.7,30.4-20.3,59.2-30.8,88.8
		c-2.8,7.7-5.6,15.4-8.4,23.2c16.3-5.6,28.2-14,39.6-23.1c19.2-15.3,37.8-31.5,57.3-46.6c80.8-62.8,161.9-125.4,242.9-188
		c8.6-6.6,17.2-13.1,26.4-18.9c10.5-6.7,21.4-16.9,34-4.1c8.5,8.6,5.1,18.8-12.3,34.2c-13.3,11.7-27.6,22.2-41.6,33
		c-132.4,102.3-264.8,204.6-397.4,306.8c-19.9,15.3-36.5,31.9-42.7,57.9c-9.2,38.2-21.8,75.6-30.8,113.9
		c-17.2,72.8-17.9,145.7-3.2,219.6c8.4,42.2,13.8,85.8,13.7,128.8c-0.2,54.7-18.6,104.3-62.6,141.2c-65.2,54.7-158.3,38-191.7-36
		c-8.3-18.4-13.8-39.5-14.8-59.6c-1.9-37.3-1.8-75,1.8-112.1c2.9-29.9,1.1-58.9-3.5-88.1c-8.5-53.8-15.2-56.5-58.3-23.4
		c-88.2,67.8-176.1,136-264.4,203.6c-13.8,10.6-29.2,19-43.1,27.8c-24.7-22-24.8-25.1-3.4-42.2c0.8-0.6,1.6-1.2,2.4-1.8
		c97.1-75.5,194.3-151,291.4-226.6c7.3-5.7,18-9.7,14.5-25.1c-19.9-9.1-41.7-6.6-61.7,0.2c-26.8,9.2-53.2,20.6-78,34.4
		c-55.5,30.8-113.3,55.1-175.9,66.6c-122,22.4-230.6-3-321.7-90.4c-9.9-9.5-19.6-19.4-29.4-29.1c-40.3-39.5-86.5-68.1-143-77.6
		c-28.1-4.7-56.3-9.1-84.5-13.8c-42.9-7.2-84.6-17.7-123.7-37.7c-86.3-44.2-113.4-146-73-215.6c13.2-22.8,28.3-44.7,43.6-66.2
		c10.9-15.2,23.8-28.8,35.6-43.4c17.4-21.5,17.9-46,13.6-77.6c-20.7,14.7-38.3,26.5-55.2,39.3c-50.2,38.1-99.2,77.8-150.1,114.8
		c-105.9,76.9-212.1,153.5-319.5,228.3c-66.1,46-98.9,107.6-99.3,187.2c-0.4,74.8-1.3,149.7-0.4,224.5c1.1,92.5,2.2,185.2,6.3,277.6
		c2.8,63,31.3,110.8,94.8,132.3c42.8,14.5,85.3,30.2,128,45.1c156.9,55,313.9,109.6,470.7,164.9c127.1,44.8,253.8,90.7,380.8,135.6
		c38.1,13.5,77.1,22.3,119.9,18.5c1.4-14.4,3.4-27,3.6-39.6c0.9-71.9,1.7-143.8,1.9-215.6c0.4-122.1,0.2-244.2,0.6-366.3
		c0.1-33.4,7.4-37.9,41.2-24.7c0,9.7,0,20.4,0,31c0.2,178.2,0.1,356.5,0.7,534.7c0.1,25,3,50.1,4.8,77.6c12.1-4,20.3-6.7,28.6-9.4
		c51.7-17.2,92.1-52.5,133.7-85.3c224.9-177.4,449-356,673.9-533.3c114.4-90.2,229.2-180.1,345.6-267.6
		c53.5-40.2,80-90.3,78.4-156.4c-0.1-5.9,0.4-11.8,0.4-17.7c-0.5-195-0.4-390-1.7-584.9c-0.6-82.9-34.7-130.9-112.7-157.8
		c-102.3-35.3-205.2-68.8-308.2-101.7c-119-38-238.5-74.7-357.8-111.7c-70.5-21.9-140.7-44.8-211.7-64.5
		c-77.4-21.4-152.8-11.5-222.8,27.3c-30,16.6-57.1,38.5-84.7,59.1c-120.5,90.3-240.7,181-361,271.6c-41.7,31.4-83.4,62.6-124.7,94.6
		c-25.9,20.1-41.5,45.7-43.2,80.1c-1,20.3-6.8,40.6-12.4,60.5c-8.7,31.1-28.4,55.9-49,79.9c-19.9,23.3-38.9,47.1-49,76.7
		c-15.2,44.3-3.4,89.2,35.4,115.2c23.3,15.6,50,27.9,76.9,35.7c32.9,9.5,67.4,14.1,101.5,18.4c48.7,6.1,95.1,18.9,135,47.6
		c29.4,21.1,56.7,45.4,83.3,70.1c71.6,66.3,154.2,100.2,252.8,90.3c57.4-5.8,111.7-21.8,163.3-47.6c30.8-15.4,62.1-29.8,93.5-43.9
		c32.2-14.5,66-20,100.8-12.5c64.8,14.1,96.5,60.3,113.1,119.8c11.3,40.4,7.9,81.9,7.6,123.3c-0.3,39.2-0.2,78.9,4.8,117.7
		c5.4,42.1,38.9,61.3,79.9,50.9c29.8-7.5,50.5-26.1,62.6-53.8c14.8-34,21-69.7,15.4-106.7c-4.4-29.2-10.9-58.1-14.7-87.3
		c-4.5-35.1-11.9-70.7-9.8-105.6c8.7-143.8,44.2-279.2,132-397.7c19-25.7,32.5-56.2,44.4-86.2c21.8-55.1,4.5-134.1-64.4-173
		c-34.8-19.7-71.9-31.7-111.5-36.4c-39.1-4.6-78.2-8.8-117.3-13.2c-53-6.1-105.1-16.3-153.7-39.4c-38.2-18.1-76.4-36.3-114-55.7
		C2116.4,918.7,2054.1,907.7,1986.2,922.6z M3263.3,1583c-0.5,9.6-1.1,17.1-1.3,24.7c-0.5,31.5-0.3,63-1.5,94.5
		c-3.6,89.4-36.7,162.3-110.6,217.8c-106.2,79.7-208.9,164-313.6,245.9c-89.9,70.3-180.5,139.6-270.4,209.9
		c-103.1,80.6-205.6,162-308.7,242.6c-65.9,51.5-131.9,102.8-198.8,152.9c-50.2,37.6-107.7,55.3-170.4,58.9
		c-57.8,3.3-110.6-13.6-163.5-33.2c-59-21.9-118.2-43.1-177.6-63.8c-78.9-27.5-158.3-53.8-237.2-81.5
		c-152.3-53.3-304.3-107.1-456.4-160.9c-36.1-12.8-72.5-25.2-107.8-40c-46.7-19.6-78.2-54.9-98.2-101.2
		c-13.9-32.2-19.8-65.7-21.3-100.4c-1.1-26-2.7-52.1-4.2-81.1c-8.6,4.8-14,7-18.5,10.4c-78,58.4-156.1,116.7-233.8,175.5
		c-13.3,10.1-26.8,20.7-37.2,33.5c-23.3,28.7-33.2,70,7.3,101.1c15.4,11.8,32.8,21.9,50.8,29.3c40,16.4,80.7,31.2,121.5,45.8
		c161.1,57.8,322.3,115,483.4,172.8c103.7,37.2,207.1,75,310.7,112.5c126.7,45.9,253.2,92.2,380.2,137.3
		c66.6,23.7,132.2,50.5,202.8,62.3c98.8,16.5,187.9-3.5,266.4-66c110.9-88.2,221.4-177,331.8-265.9
		c98.9-79.6,197.3-159.8,296.3-239.4c102-82.1,204.2-163.8,306.6-245.5c167.7-133.8,335.6-267.5,503.3-401.3
		c14.6-11.6,29.6-23.3,41.9-37.1c29.2-32.9,21.3-72.9-18.1-93.1c-20-10.2-41.2-18.7-62.6-25.8c-89.6-29.7-179.5-58.6-269.3-87.6
		C3278.6,1584.8,3271.8,1584.5,3263.3,1583z M2001.7,1558c16.2-9.4,26.6-14.3,35.6-21c89.4-66.1,178.5-132.5,267.6-199
		c6.3-4.7,13-9.5,17.4-15.8c4.2-6.1,8-14,8.1-21.2c1-50.1,0.6-100.3,1.7-150.5c0.6-26.2-11-43-34.6-52.4c-10.9-4.4-21.9-8.7-33-12.7
		c-34.3-12.2-68.7-24-102.9-36.3c-86-30.9-172.1-61.4-257.7-93.3c-16.7-6.2-30.6-5.7-44.5,3.6c-22,14.7-43.6,30.1-65.5,44.9
		c-84,56.6-168,113.3-252.3,169.5c-18.8,12.5-29.1,28.9-29,51.4c0.1,47.2,0.5,94.5,0.4,141.7c0,22.3,9.2,35.6,31.2,43.9
		c130.7,49.1,260.8,99.6,391.2,149.4c7,2.7,14.8,3,25.8,5.2c0-12.6,0-22.2,0-31.9c0-36.4,0.9-72.9-0.5-109.2
		c-0.7-18,10.2-27.6,32-18.2c10.6,4.5,9,14,9,22.8C2001.7,1469.2,2001.7,1509.4,2001.7,1558z M313.7,2553.2c-0.8,2.6-2.8,5.5-2.3,8
		c7.6,38.1,21,72.1,62.9,85.1c12.2,3.8,23.8,9.3,35.9,13.6c100,35.8,200.2,71.2,300.1,107.3c119.3,43.2,238.3,87.2,357.6,130.6
		c147.9,53.8,295.9,107.3,443.8,161.2c97,35.4,193.3,73,291,106.4c85.9,29.4,173.8,29.4,262,7.7c58.9-14.5,107.6-46.8,153.7-84.7
		c111.9-91.8,224.1-183.2,336.6-274.2c206.6-167.2,413.6-334.1,620.4-501.2c141.7-114.5,283.4-228.9,425.1-343.4
		c13.8-11.1,27.5-22.5,40.1-34.9c18.5-18.2,23.5-46.4,12.3-71.5c-21,15.4-41.9,29.8-61.8,45.5c-57,45.3-113.7,91.1-170.4,136.9
		c-140.9,113.8-281.5,228.1-422.7,341.6c-132,106.1-264.6,211.4-396.9,317c-70.8,56.5-141.6,113-212.5,169.3
		c-71.7,56.9-143,114.3-215.6,170.2c-44.3,34.2-95.3,55.2-150.5,64.7c-86.5,14.9-170.1,3.6-252.2-27.4
		c-95.7-36.2-192.2-70.3-288.6-104.6c-104.7-37.3-209.9-73.2-314.7-110.5c-155.7-55.5-311.2-111.5-466.7-167.5
		c-127.6-46-257.2-86.9-380.2-145.1C318.4,2552.6,316.2,2553.2,313.7,2553.2z"/>
	<path d="M1782.2,2069.5c-28.2-8.9-52.8-15.9-76.8-24.5c-151.9-54.2-303.7-108.6-455.4-163.1c-120.3-43.2-240.5-86.6-360.8-129.9
		c-21.3-7.7-42.7-15-63.8-23c-7.3-2.8-14.6-6.2-20.9-10.7c-9.1-6.4-12-15.3-6.4-25.8c4.8-9,12.4-12.4,22.2-9.8
		c4.7,1.2,9.2,3.5,13.8,5.2c105.4,38.1,210.6,76.5,316.1,114.4c93.4,33.5,187.1,66.3,280.5,99.8c99.9,35.9,199.6,72.3,299.5,108.3
		c11,4,22.7,6.3,33.7,10.3c10.1,3.6,21.3,6.7,28.9,13.5c5.2,4.6,8.6,16.3,6.5,22.8C1797.4,2062.9,1787.2,2066.2,1782.2,2069.5z"/>
	<path d="M1665.8,2328.7c1.3,77.1-67,122.4-115.9,121c-55.2-1.6-108.6-60.3-108-120.4c0.6-64.5,54-119.4,115.3-118.5
		C1616.4,2211.7,1666.9,2266.5,1665.8,2328.7z M1549.5,2255c-24.2,0.4-43.7,20.2-42.4,43c1.1,19.4,19.9,35.7,40.1,34.8
		c19.5-0.9,40.4-24.3,39.5-44.1C1585.7,2269.5,1569.4,2254.7,1549.5,2255z M1579.7,2378.4c-7.4,6.8-13.3,12.2-19.2,17.5
		c4.7,4,11.1,12.2,13.7,11.1c7-2.8,12.3-9.7,18.3-14.9C1589,2388.4,1585.4,2384.6,1579.7,2378.4z"/>
	<path d="M865.9,2134.2c0.5-65.9,45.6-117.2,103.4-117.5c66.7-0.4,120.9,55.8,119.5,123.7c-1.6,76.9-59.1,107.6-117.9,109.2
		C912.7,2251.2,865.4,2198.2,865.9,2134.2z M1000,2144.8c21,0.4,37.6-14.9,38.5-35.8c0.8-18.5-18.2-38.7-36.7-39
		c-20.5-0.4-38.9,18-39.5,39.4C961.8,2130.9,976,2144.3,1000,2144.8z M915.7,2161c-2,1.4-4,2.8-6,4.2c1.9,7.5,2.1,16.3,6.4,21.9
		c2.6,3.3,11.7,1.6,17.9,2.1c0.1-6.1,2.6-13.9-0.3-17.8C930,2166.4,922,2164.4,915.7,2161z"/>
	<path d="M1187.6,2308.4c-2.3,26.5,3.8,48.4,31.4,59.9c31.6,13.2,55,6.4,72.8-23.1c3.6-5.9,5.4-14,10.5-17.4
		c6.4-4.3,15.6-7.3,23.2-6.5c10.9,1,12.3,10.8,11.4,20.4c-2.9,33.9-37.3,69.7-74.4,73.7c-67.3,7.4-126.4-33.7-115.3-117.8
		c0.6-4.8,1.2-11.6,4.3-13.7c6.7-4.5,14.8-8.2,22.7-8.9c9.6-0.9,13,7.2,13.4,15.9C1187.8,2296.6,1187.6,2302.5,1187.6,2308.4z"/>
	<path d="M1915.8,1376.3c-24.5-8.2-47.9-15.2-70.7-23.8c-90.1-33.7-180-67.8-269.9-101.8c-5.5-2.1-11-4.2-16.2-7
		c-8.3-4.4-15-10.7-11.6-21.1c3.8-11.5,12.2-17.6,24.7-16.2c3.8,0.4,7.5,2.2,11.2,3.6c106.5,40.1,213.1,80.1,319.5,120.3
		C1932.6,1341.6,1932.6,1342.1,1915.8,1376.3z"/>
	<path d="M2309.2,1158.5c-2.3,3.4-5.5,10.8-10.9,15.9c-12.2,11.3-25,22.1-38.5,31.8c-61.9,44.9-124.1,89.5-186.3,134
		c-8.7,6.2-17.8,12.4-27.5,16.8c-10.3,4.7-19.1,1-24.9-9c-5.2-9-3.3-16.9,4-23.7c2.1-2,4.4-3.9,6.8-5.6
		c79.1-58,158.2-115.9,237.4-173.8c4.7-3.5,9.6-7.2,15-9.2C2298,1130.3,2310.3,1139.8,2309.2,1158.5z"/>
</g>
</svg>
