<?xml version="1.0" encoding="utf-8"?>
<!-- Generator: Adobe Illustrator 24.3.0, SVG Export Plug-In . SVG Version: 6.00 Build 0)  -->
<svg version="1.1" id="Layer_1" xmlns="http://www.w3.org/2000/svg" xmlns:xlink="http://www.w3.org/1999/xlink" x="0px" y="0px"
	 viewBox="0 0 4000 4000" style="enable-background:new 0 0 4000 4000;" xml:space="preserve">
<path d="M3008.7,549.2c-4.8-14.9-8.8-26.5-12.3-38.2c-14.8-49.9-31.2-99.4-43.3-149.9c-5.1-21.6-4.8-46.2-0.3-68.1
	c12.3-59.3,51.1-94.7,110.3-104.9c65.8-11.3,124.1,6.7,172,53.9c17,16.8,31.9,35.7,50.2,56.4c7.7-1.8,17.4-4.5,27.4-6.3
	c67.1-12.3,132.6-11.9,193.9,23.9c55.1,32.2,87,102.6,56.3,167.3c-11,23.2-23.6,47.3-41.2,65.4c-31.1,32-66.5,59.9-100.3,89.3
	c-7.5,6.6-15.9,12.2-25.6,19.6c19.4,17.7,36.5,32.6,53,48.3c87.3,83.1,138.8,186.3,169.8,301.1c32.5,120.5,36.2,242.8,22,366.1
	c-15.4,134.1-49.6,264-86.7,393.3c-59.8,208.1-140.6,407.2-246.1,596.9c-117,210.4-261.1,399.5-431,569
	c-98.2,98-203.8,188-318.4,266.8c-171.6,117.9-352.9,217.8-547.1,293.1c-204,79.1-414.5,132.4-631.5,160.4
	c-120.4,15.6-239.3,10.5-355.7-25.9c-87.4-27.3-161.4-76.6-225.6-141.3c-13.7-13.8-27.4-27.6-44.7-45
	c-15.2,21.8-27.6,40.7-41.1,58.7c-17.5,23.2-34.7,46.9-54.4,68.3c-55.9,60.7-153.5,54.5-206-18.7c-50.9-71-56.9-148-27.4-228.9
	c3.5-9.7,7.2-19.3,11.2-30c-5.9-5.2-10.7-10.5-16.5-14.5c-39.6-27.9-66.3-65.5-85.4-109.5c-17.6-40.4-17.1-81.3-4.5-122.3
	c14.8-48.2,60.2-79.2,110.8-73c31.7,3.9,63.1,13.1,93.9,22.4c29.6,9,58.2,21.2,90.6,33.3c1.8-15.1,2.6-27.3,4.7-39.3
	c31.9-186.4,129.6-326.3,294.5-419.6c90-50.9,188.5-76.7,286.9-104.4c165.5-46.7,329.8-98.1,481.6-181
	c189.1-103.3,346.7-240.5,458.2-428c87.7-147.4,147.8-305.3,190.4-470.6c23.1-89.8,45.3-179.8,69.3-269.3
	c29.2-108.8,75.1-210.2,144.5-299.3c110.1-141.3,251.8-231.7,430.3-260.8C2991.3,552.8,2997.4,551.4,3008.7,549.2z M2110.4,2038.6
	c7.7,3.2,13.2,5.5,18.7,7.8c5.8,2.4,11.5,4.9,17.2,7.5c83.7,37.2,144.8,100.7,198.8,172c13.2,17.4,23.5,36.9,34.5,55.8
	c7.6,12.9,3.7,29.9-7.8,34.8c-13.2,5.6-18.8-4.5-24.5-13.3c-2.8-4.4-4.7-9.4-7.5-13.7c-61.3-96-144.2-163.3-255.8-192.7
	c-16.6-4.4-29.2-2.2-42,11c-81.9,84.3-174.1,155.2-276.7,212.7c-4.9,2.7-8.6,7.7-12.4,11.2c1.5,2.9,1.8,4.1,2.5,4.7
	c14.5,11.8,29,23.7,43.8,35.2c81.2,63.5,123.8,152.9,163.3,244.1c7,16.3-4,27.9-20.2,21.6c-8.4-3.3-15.9-12.3-20.9-20.5
	c-6.4-10.6-8.2-23.9-14.7-34.4c-51.3-83.1-106.9-161.8-199.8-205c-16.2-7.5-28.3-9.2-43.6-1.9c-24.4,11.6-48.9,23.5-74.1,33.1
	c-72.9,27.8-146.3,54.5-219.4,81.9c-3.2,1.2-5.7,4.4-7.8,6.2c14.5,16.9,28.2,31.1,40,46.8c60.8,81.4,87.3,176.6,109.1,273.7
	c1.1,5,3.1,11.8,0.8,15.2c-4.8,7-11.3,15.2-18.6,17.1c-5,1.3-15.5-5.7-18.4-11.5c-4.9-10-6.1-22-8.2-33.2
	c-21.4-110.1-71.8-203.6-157.6-277.1c-11.6-10-22.5-13-37-8.5c-81.6,25.1-164.8,45.9-244.6,75.6c-98.6,36.7-181.2,98.5-242.8,185
	c-80.3,112.9-107.7,238.9-81.5,374.4c39.7,205.8,158.3,345.3,359.4,410c93.8,30.2,191.3,32,288.1,22.1
	c149.6-15.2,295.8-48.7,439.9-91.5c241.5-71.7,467.4-176.5,676.3-318c163-110.4,312.5-236.1,445.8-381.3
	c112.6-122.7,209.5-256.8,295-399.3c69.3-115.5,129.2-235.7,180.1-360.4c70.4-172.3,121.7-350.2,159.7-532.2
	c27.2-130.2,43.9-261.3,21.4-394.2c-19.6-115.7-56.7-223.8-135.8-314.3c-132.3-151.4-296.7-208.5-491.8-160.6
	c-167.7,41.2-290.4,146.3-377,293.5c-49.5,84.2-77.5,177.5-102.4,271.3c-50.5,190.3-93.1,383-179.5,561.8c-2,4.1-0.9,9.6-1.4,16.6
	c56,3.9,103.1,29.1,150.5,53c51.1,25.7,91,65.8,128.8,107.7c12,13.3,9.4,26.1-4.6,37.5c-12.9,10.5-19.9,2.3-28.1-7.3
	c-68.3-81-158.5-118.5-261.2-131.5c-16.9-2.1-25.1,4.1-34.4,18.7c-35.3,55.2-73.2,108.8-110,163.1
	C2117.9,2024.5,2114.8,2030.8,2110.4,2038.6z M3238.5,572c27.8,12.6,52.6,23.1,76.8,35c11.9,5.8,20.8,4.9,31.2-3.5
	c26.8-21.6,54.9-41.5,81.6-63.1c26.8-21.8,51.2-45.9,66.9-77.5c15.5-31.3,10.6-57.5-17.7-76.4c-13.6-9-29.6-15.4-45.4-19.9
	c-46.7-13.3-92.7-6.3-138.5,7.2c-36.6,10.8-43.5,7.3-64.9-24c-10.6-15.5-20.4-31.6-32.5-45.8c-29.2-34.2-67.3-47.9-111.6-44.5
	c-35.9,2.8-56.9,23.3-60.3,59.3c-1.1,11.3-1.7,23.1,0,34.2c9.8,62.1,31.6,120.8,53.7,179.3c3.8,10,9.9,14.2,20.9,15
	c23.8,1.8,47.8,3.7,71.1,8.5c15.4,3.2,23.9-2,30.9-13.9c8.9-15.3,17.2-31,26.6-45.9c5.6-8.8,14.1-12.1,24.3-6.8
	c9,4.6,15.8,11,13.2,22.1c-1.9,8-4.9,15.9-8.2,23.5C3251.2,546.9,3245,558.8,3238.5,572z M641.2,3217.8
	c-5.4-37.1-10.1-73-16.3-108.7c-0.9-5.4-8.3-11.4-14.1-13.8c-20.2-8.3-40.8-15.7-61.6-22.3c-34.7-11-69.7-21.2-104.7-31.4
	c-12.4-3.6-25.9-4.9-33.9,7.8c-13.5,21.5-22.3,43.8-15.3,70.8c10.5,40.3,32.4,71.8,65.7,95.9c11,7.9,22.8,14.7,33.7,22.7
	c23.9,17.7,26.3,26.9,14.5,52.9c-4.7,10.4-10.8,20.3-15.3,30.8c-25.5,58.8-27.8,117.3,4.7,174.3c27.7,48.6,80.4,56.7,115.8,14.7
	c35.3-41.9,65.4-88.2,95.8-130c-14.9-34.7-27.5-64.3-40.4-93.9c-9.4-21.4-12.7-22.4-36.1-14.5c-10.8,3.6-21.7,7.3-32.9,9.2
	c-11.5,2-19.8-3.5-25-14.4c-5.2-10.9,0.1-18.7,7.7-24.4c9-6.7,19.1-12.3,29.4-17C621,3222.9,630.2,3221.2,641.2,3217.8z"/>
<path d="M1942,2811.8c4.9,67.7-61.9,128.9-125.9,128.2c-80.7-0.9-133-64.4-131.8-125.9c1.4-76.2,57.4-133.4,133.7-130.7
	C1888,2685.8,1942.5,2732.2,1942,2811.8z M1780.8,2839c27-0.2,47-17.1,47.1-39.7c0-22.3-24.2-49-44.4-48.8
	c-24.6,0.3-43.9,21.4-43.7,47.6C1739.9,2823.2,1756,2839.2,1780.8,2839z M1849.6,2871.6c1.9,2.2,3.8,4.3,5.8,6.5
	c7.7-1,16.3-0.2,22.9-3.4c5.4-2.6,10.8-9.6,11.7-15.4c0.6-4.1-5.5-12-10-13.4c-5.8-1.8-15.4-1-19.1,2.8
	C1855.1,2854.5,1853.1,2863.8,1849.6,2871.6z"/>
<path d="M2565.9,2495.9c-4.9,81.4-48.8,128.4-128.1,125.4c-79.6-3-129.7-56.2-128.7-125.3c1.2-82.9,49.8-131.2,131.7-129.5
	C2505.9,2368,2566,2417.2,2565.9,2495.9z M2404.1,2517.6c26.4,0.1,47.2-16.5,48.4-38.6c1.1-19.1-24.8-52.9-41.3-52.1
	c-28,1.4-50.6,19.9-50.5,44.8C2360.8,2499.4,2377.2,2517.5,2404.1,2517.6z M2523,2526.6c-3-1.9-8.3-7.9-13.5-7.8
	c-12.7,0.3-17.1,10.8-17,21.6c0,4.3,5.5,11.5,9.6,12.4C2512.2,2554.9,2523.5,2542.2,2523,2526.6z"/>
<path d="M2452.2,1534.8c2.6-56.3,51.5-123,127-121.9c62.4,0.9,121.3,64,116.3,124c-6.5,77.1-63.6,120.1-134.9,120.6
	C2504.7,1657.9,2450.9,1605.2,2452.2,1534.8z M2521.7,1504.8c0.5,21,20,40.9,39.5,40.2c21.6-0.8,43.4-24.8,42-46.3
	c-1.3-18.3-19.5-36.5-36.3-36.3C2542.9,1462.7,2521.2,1483.1,2521.7,1504.8z M2616.9,1608.1c-10.2-5.4-16.3-11.2-21.4-10.5
	c-5.5,0.8-13.9,7.3-14.5,12.1c-1.2,9.8,7.1,15.1,16.3,12.8C2603.1,1621.1,2607.6,1615.2,2616.9,1608.1z"/>
<path d="M3208.2,1555c53.6,1.3,117.1,41.4,113.9,127.4c-2.8,75.5-66.8,120.2-123,116.3c-73.6-5.1-114.9-54.2-116.4-122.5
	C3081.2,1609.4,3141,1553.4,3208.2,1555z M3232.7,1644.3c0.3-21.5-17.7-43.5-37.2-42.8c-23.5,0.9-47.9,13.7-47.9,42.9
	c0,22.2,17.5,40.9,38.5,40.9C3210.6,1685.4,3232.4,1666.2,3232.7,1644.3z M3239.4,1749.2c-26.7-7.2-26.7-7.2-41.3,11.8
	c10.9,1.2,19.3,3.9,26.8,2.4C3230,1762.3,3233.7,1755.1,3239.4,1749.2z"/>
<path d="M2670.7,978.1c-32.2-9.9-35.2-14.8-24.7-39.6c5.3-12.4,11.2-24.8,18.7-36c49.6-73.3,114.5-129.2,195.4-165.3
	c18.8-8.4,39.9-11.4,59.9-17c13.7-3.9,21.9,2.4,27.1,14.4c5.5,12.9,0.3,22.6-10.2,29.4c-6,3.9-13.1,6.4-20.1,8.2
	c-94.2,23.9-160.1,85.6-215.8,160.9C2690.6,947.4,2681.3,962.4,2670.7,978.1z"/>
<path d="M772.6,3052.8c0.4-65.3,12.6-128.3,39.3-188c5.4-12.1,13.3-23.6,22-33.6c8.5-9.6,20.3-9.7,31.3-2.6
	c11.4,7.4,9.1,17.3,4.2,27.4c-2.8,5.6-5.6,11.1-8.5,16.7c-48,93.5-55,190.5-25.3,290.8c2.7,9,6.1,17.7,8.2,26.8
	c2.7,11.7-1.7,20.3-13.3,24.8c-12.1,4.7-20.1-1-26.2-10.6c-2.8-4.3-4.9-9.2-6.6-14.1C782.9,3145.7,771.9,3100.3,772.6,3052.8z"/>
<path d="M2283.3,2744.7c-2,45.8-20.4,80.8-60.3,100.7c-41.2,20.5-83.8,17.9-121.2-9.4c-14.1-10.3-23.5-28.4-32.2-44.6
	c-6-11.2,0-22.2,11.4-28.9c10.9-6.4,20.2-2.8,28,5.4c5,5.2,9,11.4,13.5,17.2c14,18.1,32.5,24.6,55,22.7c41.1-3.5,60-24.2,57.4-65.6
	c-0.8-12.3-3.6-24.8-7.4-36.5c-4.3-13.3-1.7-22.7,11.2-27.9c12.4-5,24.5-1.2,29.1,10.6C2274.7,2706.4,2278.3,2725.8,2283.3,2744.7z"
	/>
<path d="M2870.1,1811c-69.8-0.7-112-40.3-114.3-103.4c-0.4-11,2.9-22.4,5.9-33.2c2.9-10.2,11.6-16.8,21.4-12.7
	c7.2,3,15.1,11.1,17.2,18.5c3.3,11.7,1.1,24.8,2.9,37c4.4,30.1,16.4,41.1,49.1,46.9c32.1,5.6,51.4-2.9,65.1-29.1
	c2.9-5.5,4.9-11.5,7.4-17.1c5-11,11.1-21.6,25.5-15.5c12.6,5.3,18.9,15,15.9,30c-7.5,38.5-34.5,66.7-73.9,75.4
	C2883.2,1809.6,2873.9,1810.4,2870.1,1811z"/>
<path d="M950.5,3360.4c-17.5,25.4-23.4,27.1-42.8,8.5c-15.7-15.1-30.4-31.4-44.1-48.4c-7-8.7-12.2-19.5-15.7-30.2
	c-4.2-12.9,3.6-21.4,14.7-27.6c12.3-6.9,19.7-0.2,26,8.9C908.8,3300.4,928.9,3329.4,950.5,3360.4z"/>
<path d="M2612.9,1022.7c22.6,0.8,31.3,12.3,25.4,29.4c-6.7,19.4-15.3,38.3-23.2,57.2c-5.1,12.2-14.1,17.9-27.1,13.2
	c-11.2-4-11.6-14-9.2-23.3c5.4-20.9,10.8-42,18.5-62.1C2599.9,1030,2609.5,1025.7,2612.9,1022.7z"/>
</svg>
