<?xml version="1.0" encoding="utf-8"?>
<!-- Generator: Adobe Illustrator 24.3.0, SVG Export Plug-In . SVG Version: 6.00 Build 0)  -->
<svg version="1.1" id="Layer_1" xmlns="http://www.w3.org/2000/svg" xmlns:xlink="http://www.w3.org/1999/xlink" x="0px" y="0px"
	 viewBox="0 0 4000 4000" style="enable-background:new 0 0 4000 4000;" xml:space="preserve">
<path d="M2159.3,207.5c153.8,4.9,307.7,9.9,461.5,14.8c66.4,2.1,132.8,4.4,199.1,6.5c54.8,1.7,60.3,6.8,63.9,62.4
	c7.4,113.9-8.3,225-39.6,334.3c-33,115.3-86.1,221.6-142.7,326.7c-59.6,110.6-112.8,223.9-144.4,346.3
	c-39,150.8-48.2,303.3-29.5,457.9c16.3,134.3,56.7,261.4,113.1,383.5c61.2,132.6,110.9,268.6,133.4,413.7
	c20.8,134.1,22.8,268.5,12.4,403.6c-16.1,209.2-72.2,408.2-152.6,601c-11.3,27.2-26,53-38,79.9c-6.6,14.8-17,19.5-32.5,18.8
	c-65.3-3.1-130.6-5.5-195.9-8.5c-121.1-5.6-242.2-11.4-363.2-17.4c-149.5-7.4-299-15.3-448.5-22.4c-120-5.7-240.1-10.6-360.1-15.5
	c-49.6-2-56.4-11.3-39.4-57.7c50.4-137.5,102.7-274.2,151-412.4c51.7-148.1,82.8-300.6,83.4-458.1c0.8-202.8-46.6-394.6-133-577.3
	c-45.1-95.3-88.1-191.4-119.9-292.2c-41.7-132-59.3-266.9-52.1-405.4c10.6-201.9,72.5-388.1,168.1-564.6
	c46.2-85.2,92.8-170.3,127.1-261.3c40.1-106.2,64-215.9,69.7-329.4c0.3-5.3,0.4-10.6,1.1-15.8c3.7-26.5,7-30.4,34.2-30.3
	c91.7,0.5,183.5,0.5,275.2,3.1c132.8,3.8,265.5,9.7,398.2,14.7C2159.3,206.7,2159.3,207.1,2159.3,207.5z M2148.8,253.9
	c-1.3,11.8-2.2,20-3,28.1c-5.2,48.2-8.4,96.7-16.1,144.4c-22.6,139.9-73.5,269.9-142.1,393.4c-27.1,48.8-54.5,97.4-83,145.5
	c-20.7,35.1-14.7,64.6,10.7,95c24.2,29,52.4,41.5,89,33.5c37.3-8.1,61.5-30.7,71.1-68c2.6-10.2,3.7-21,8-30.5
	c2.6-5.7,9.9-13.2,14.9-13.1c7.1,0.1,17.4,4.8,20.3,10.6c4.3,8.8,5.7,20.4,4.3,30.3c-7.8,54.4-35.9,94.8-88.8,112.7
	c-55.8,18.8-106,5.4-148.6-35.1c-8.9-8.4-16.9-17.7-27.4-28.7c-6.1,10.8-10.9,17.6-14.1,25.2c-14.1,32.9-28.7,65.7-41.5,99.1
	c-61.8,161.2-78.9,327-48.3,497c22.5,124.8,73.7,238.9,132.6,350.3c42.3,80,86,159.7,121.3,242.9c89.1,210.1,116.1,430.1,91.2,656.5
	c-23.6,214.8-82.9,419.1-183.3,610.9c-3.6,7-5.9,14.7-10.1,25.3c14.8,0.7,26.2,1.2,37.5,1.7c34.7,1.3,69.5,2.4,104.2,4
	c66.3,3.1,132.6,6.1,198.9,10.1c18.3,1.1,29.3-4.2,36.5-22c13.5-33.1,29.7-65.2,43.6-98.2c92.1-219.1,143.5-446.7,140-685.3
	c-1.8-123.8-14.8-246.4-53.4-364.6c-26.1-80-54.8-159.4-87.6-236.9c-68.9-162.9-125.1-328.8-138.9-506.6
	c-6.9-88.5-5.5-176.7,6.4-264.9c16.2-119.9,50.4-234.5,96.1-346c4.2-10.4,7-21.4,10-30.8c-67.4-53.3-88.7-113.5-64.2-175.4
	c26.6-67.2,76.9-91.5,174.1-84c75.6-92.9,153.6-419.5,121.8-512.9C2404.4,262.8,2277.4,258.3,2148.8,253.9z M2587.9,270
	c-3.4,51-4.1,96.4-9.8,141.2c-16.4,128.6-54.6,251-112.5,367.1c-10.1,20.2-10.5,34,6,52.9c30.2,34.5,38.7,77.3,25,121.6
	c-17.1,55.4-50.3,94.4-112.9,99.5c-19.2,1.6-37.9,5.9-38.8,30.3c11.4,0,22.6,0,35.1,0c-1.5,32.2-18.3,54.7-29.6,79.2
	c-16.1,34.6-16.3,34.5-52.4,26.4c-2.7,6.4-5.9,12.9-8.2,19.7c-49.9,144.4-68.6,292.4-58,445.1c10.8,155.4,50.9,302.8,109.3,446.2
	c35.4,86.8,72.4,173.2,102.4,261.9c85.2,251.9,90.7,508.9,38.9,767.9c-30.8,153.6-83.6,300.2-150.7,441.7
	c-3.9,8.2-6.9,16.9-12.4,30.4c78.1,2.8,151.6,5.9,225.1,7.4c6.9,0.1,16.4-8.3,20.7-15.2c9.4-15.1,16.9-31.6,24.1-47.9
	c114.8-258.7,167.2-529.4,156.3-812.2c-5.8-150.8-34.3-297.1-90.2-437.5c-32-80.2-67.8-159-99.3-239.4
	c-85.5-218.4-106.5-443.1-63.7-673.9c27.7-149.7,83.5-288.9,153.7-423.1c37.1-70.9,75.7-141.2,109-214
	c63.3-138.3,90.9-284.4,84.9-436.6c-0.4-10-2.6-19.9-4.3-32.3C2751.7,274.3,2671,272.2,2587.9,270z M1651.3,1083.8
	c-1.3,19.3-30.1,80-41.4,87.9c-3.3,2.3-7.6,4-11.6,4.5c-13.7,1.9-18.5,11.2-22.4,23.1c-60.6,180.7-62.7,361.9-6,543.9
	c28.1,89.9,69.3,174.1,111,258.2c71.3,143.7,121,294.2,140.6,453.8c19.4,157.6,20,315.7,2,473.3c-23.7,207.3-70.2,409-157.2,600
	c-5.1,11.2-8.8,22.9-13.9,36.4c8.5,1.4,13.4,2.8,18.4,3c53.7,1.9,107.5,3,161.2,5.7c19.5,1,27.9-9.3,35.9-24.4
	c112.1-209.4,175.6-432.7,190.7-669.5c16-250.1-33.2-486.2-155.1-706.4c-37.3-67.3-73.5-135.3-106.7-204.6
	c-53.7-112-89.8-229.6-99.9-354c-13.1-160.4,13.9-314.6,72.4-464.3c45.8-117.3,105.3-227.4,167.3-336.4
	c79-138.6,138.2-284.1,155.4-444.2c4.1-38.4,6.5-77,9.5-114.6c-33.5-9.4-209.5-11.9-234-4c-0.5,10.9-0.5,22.4-1.8,33.8
	c-6.8,59.6-11.5,119.6-21.5,178.8c-18.7,111-59.1,215.2-108.3,315.9c-9.3,19-10.3,34,2.6,52.5c9.2,13.1,14.6,30.8,15.9,46.9
	c5.1,60.6-16.2,123.5-92,147.6c-21.9,7-39,16.7-34.4,44.9C1635.7,1075.6,1643.8,1079.9,1651.3,1083.8z M1500,236.7
	c-1.7,2.7-3.4,4.2-3.9,6.1c-1,4.1-1.6,8.3-1.8,12.4c-5.6,133.4-37.9,260.7-93.6,381.3c-40.1,87-86.2,171.2-129.5,256.7
	c-76.6,151-126.8,309.7-138,479.5c-11.3,171.1,14.8,336.5,79.4,495.2c35.3,86.8,74.7,171.9,112.5,257.7
	c67.5,153.3,104.5,313.8,109.8,480.8c5.4,167.9-18.6,332.6-72,491.7c-46.9,139.8-99.7,277.5-149.8,416.2c-3.4,9.3-6,18.9-10.4,32.7
	c67.6,0,130.4,0,193.9,0c2.9-6.7,6.2-13.2,8.6-20.1c36.9-104.2,75.7-207.8,110-312.9c53.4-163.4,95.5-329.3,107.9-502
	c12.7-176-13.5-345-82-506.7c-39-92.1-84.3-181.5-127.3-271.8c-71.3-149.9-107.1-307.9-109.1-473.6c-1.4-118,19.7-232.8,53.5-345.3
	c32.8-109.2,77.7-213.7,127.5-316.1c80.2-165,143.1-335.1,156.9-520.1c1-13.1,0.1-26.2,0.1-41.8
	C1593.2,236.7,1546.3,236.7,1500,236.7z M1485.4,923.9c-17.1,14.7-17.9,38.9-27.4,58.3c-9.7,19.8-18,40.5-25.3,61.3
	c-7.3,20.6-19.1,40.2-19.4,70.4c11.7-18.4,19.3-30.9,27.5-43c5.9-8.7,11.9-17.5,18.9-25.2c9.3-10.2,20.5-9.8,31.4-2.4
	c10.6,7.1,7.5,17.2,2.4,25.2c-16.9,26.6-34.4,52.9-52.4,78.8c-6.7,9.6-16.5,12.6-27.9,6.8c-5-2.5-10.3-4.6-17.8-7.9
	c-20.7,84.7-37.1,167.2-42.3,251.5c-10.7,176.4,26.8,343.6,99.6,503.4c40.1,88.2,84.3,174.5,123.4,263.1
	c60.2,136.4,92,279.7,95.5,429.1c4.3,182.2-27.8,359.2-81,532.1c-40.6,131.8-88.8,261.2-133.5,391.7c-3.9,11.5-7.2,23.3-10.8,34.7
	c5.4,2.1,7.3,3.4,9.2,3.5c37.9,1.9,75.9,2.4,113.6,5.9c24.8,2.3,37.6-6.1,48-29.3c89.9-201,141.6-411.6,161.9-630.5
	c10-107.3,10.5-214.7,5.9-322.2c-6.5-151.8-35-299.3-94.7-439.4c-30.5-71.7-65.6-141.4-98.5-212c-86.4-185.1-135-376.5-98-582.4
	c12.9-71.6,27.2-142.6,63.5-207.3c17-30.2,27.6-63.3,31.7-97.3c-22.6-16-47.2-28-64-47C1508.1,974.9,1499,949,1485.4,923.9z
	 M1552.4,770.9c16.6-3.2,24.8-4.1,32.6-6.4c25.1-7.5,49.7-5.7,74.6,1.3c29.4,8.3,30.7,7.6,42.8-19.2
	c57-126.2,101.6-256.1,111.6-395.5c2.5-35.2,0.4-70.7,0.4-108.7c-40.4,0-80.6,0-123.3,0C1687.1,428,1628.1,598.3,1552.4,770.9z
	 M1640.9,811.1c-28.2,0.7-48.4,19.8-47.1,44.6c1.3,24.9,23.2,44.4,49,43.4c23.2-0.9,42.2-22.1,41.6-46.7
	C1683.8,830,1663.4,810.5,1640.9,811.1z M2398.1,869.6c0.1-20.3-19.7-38.3-42.1-38.2c-26.1,0.1-46.1,17.9-46.5,41.3
	c-0.5,25.3,17.6,45.2,41.8,46C2377,919.5,2397.9,897.6,2398.1,869.6z"/>
<path d="M2666.9,2839.1c-11.6,2.6-17.6,4.8-23.9,5.3c-12.7,1-20.1-5.4-20.7-18.2c-0.8-17.9-1.2-35.8-1.2-53.7
	c0-74.9-0.7-149.6-13.1-223.8c-20.1-120.3-53.4-236.2-113.7-343.2c-5.2-9.2-9.6-18.8-13.6-28.5c-8.5-20.4-6.1-30.8,7.7-38
	c13.7-7.2,25-3.4,34.5,16.4c26.5,55,54.4,109.5,76.8,166.2c53.5,135.3,68.4,277.5,68.8,421.8
	C2668.7,2774.6,2667.5,2806,2666.9,2839.1z"/>
<path d="M2378.6,1176.7c4.9-13.7,7.6-23.8,12.1-33.2c10.2-21.7,21.7-42.8,31.9-64.6c6.1-13,14.4-16.1,27.7-11.6
	c13.1,4.5,13.7,14.2,12.5,25.1c-0.4,4.1-1.5,8.4-3.4,12c-14.1,26.8-28.3,53.5-42.7,80.1c-5.9,10.9-16.2,14.7-26.4,9.1
	C2384.4,1190.3,2381.6,1181.4,2378.6,1176.7z"/>
<path d="M2484.4,1190.8c-15.9-1.5-23-8.7-21.7-21c1-9.1,4.2-18.4,8.2-26.8c9.5-19.8,19.4-39.5,30.3-58.6
	c7.3-12.8,20.9-15.8,32.3-8.6c11.8,7.5,9,18.2,4.1,27.8c-12.7,25.2-25.9,50.3-39.8,74.9C2494.7,1184.1,2487.9,1187.7,2484.4,1190.8z
	"/>
<path d="M2429.5,2018.2c14.5,0.9,28.5,20,27,37c-1.1,13.3-9.7,21.3-22.5,21.1c-16.2-0.2-30-16.9-28.8-34.8
	C2406.1,2027.4,2416.6,2017.4,2429.5,2018.2z"/>
<path d="M2607.9,2982.5c0.2-19.6,11.3-33.7,25.7-32.7c12.7,0.8,20,10.4,20.3,26.7c0.3,19.9-9.7,34.5-24,34.8
	C2616.8,3011.5,2607.7,2999.6,2607.9,2982.5z"/>
<path d="M1578,1052.5c-3.2,11.3-4.2,21.8-8.8,30.4c-11.8,22-24.7,43.6-38.4,64.6c-4.9,7.5-12.4,14.6-20.3,18.4
	c-5.4,2.6-15.5,1.6-20-2.1c-4.2-3.3-7.1-14-4.8-18.7c13.6-28.1,27.8-56.1,44.1-82.6C1538.9,1047.8,1555.6,1046.8,1578,1052.5z"/>
</svg>
