<?xml version="1.0" encoding="utf-8"?>
<!-- Generator: Adobe Illustrator 24.3.0, SVG Export Plug-In . SVG Version: 6.00 Build 0)  -->
<svg version="1.1" id="Layer_1" xmlns="http://www.w3.org/2000/svg" xmlns:xlink="http://www.w3.org/1999/xlink" x="0px" y="0px"
	 viewBox="0 0 4000 4000" style="enable-background:new 0 0 4000 4000;" xml:space="preserve">
<path d="M3748.9,1687.1c0,60.7,1.8,121.4-0.6,181.9c-1.9,46.6-6.6,49-53.3,57.3c-96.3,17.2-152.5,95.3-132.1,185.6
	c14,62,53.7,101,114,119.9c70.3,22,71.4,23.8,65.2,96.4c-9.3,107.7-17.1,215.5-28.4,323c-5,47-16.5,93.4-26.4,139.8
	c-6.9,32.3-26.2,53.5-59.8,61.1c-89.9,20.3-179.2,43.8-269.6,61.7c-295.9,58.7-592,116.5-888.4,172.6
	c-340.5,64.5-681.2,127.6-1022.1,189.7c-78.6,14.3-65.7,16.9-95.1-45.9c-33.8-72.2-119.8-97-183.4-55.8
	c-24.2,15.6-41.8,36.9-49,64.8c-5.2,20.3-8.1,41.4-9.7,62.3c-3.1,40.1-3.2,41.8-41.6,49.5c-74.9,15.1-149.9,29.7-225,44
	c-135.9,25.9-271.8,51.7-407.8,76.9c-24.6,4.6-49.6,7.3-74.5,9.6c-27.7,2.5-45.3-9.9-50.6-38.2c-4.4-23.2-5.9-47.1-6.9-70.8
	c-7.3-172.6-14.2-345.3-21.3-517.9c-0.3-6.6-0.8-13.2-1.1-19.8c-2.3-59.1-2.6-60.4,54.5-74.1c96.8-23.3,129.3-86.5,124-170.3
	c-5.2-81.1-68.5-141.2-153.2-149.5c-5.2-0.5-10.5-0.4-15.8-0.8c-31.5-2.6-35.7-5.2-38.9-37.8c-4.8-48.5-8.1-97.3-10.9-146
	c-6.7-119.8-10.5-239.9-20.2-359.5c-3.9-48,12.4-78.8,48.1-108c123.5-101.1,245.6-203.8,367.4-307c348.2-295,696.2-590.3,1043.8-886
	c60.3-51.3,120.3-103,177.1-158.1c57.3-55.5,124.4-80.3,201.6-70.8c86.2,10.5,173,21.8,257.2,42.2
	c311.2,75.3,602.1,200.6,874.1,369.4c131.4,81.6,251,178.6,368.1,279.7c94.4,81.4,144,182.1,164,302.1
	C3740.6,1468.6,3750.8,1577.4,3748.9,1687.1z M367.6,3421.3c20.1-3.5,32.9-5.6,45.7-7.9c204.7-37.5,409.4-75.1,614.1-112.3
	c18.8-3.4,25-13.7,28.4-31.9c4.7-25.6,11-51.8,22-75.3c39.9-84.9,135.9-121.6,223.4-87.6c45,17.5,78.3,47.9,98.8,91.8
	c7.2,15.4,14.5,25.5,35.7,21.4c201.7-39,403.7-76.9,605.6-114.9c198-37.3,396.2-73.7,594.1-111.6c182.4-35,364.7-70.5,546.7-107.5
	c138-28.1,275.4-59.4,413.3-88c30.4-6.3,43.2-21.5,48.4-52.3c21.5-128.9,34.4-258.6,39.9-389.1c0.8-18.3,8.2-41.4-0.2-53.7
	c-9.1-13.5-32.6-17.7-50.4-24.8c-79-31.5-136.2-116-133.1-202.4c3.2-90.2,51.3-167.8,142.7-198.2c7.5-2.5,14.9-6,22.6-7.1
	c19.8-3,25.5-15.1,25.3-33.4c-0.4-44.8-0.5-89.7,0.2-134.5c2-137.7-10.3-273.9-40.5-408.3c-3.8-17.1-10.8-33.5-16.3-49.9
	c-327,64.1-650.4,116-969.6,180.1c-23.1,169-95.7,256.5-236,290.6c-74.4,18.1-146.3,11-217.3-15.5c-74-27.6-120.9-82-148.9-155.5
	c-48.8,8.9-93.9,17-139.1,25.5c-165.7,31.1-331.5,62.2-497.2,93.7c-34.6,6.6-34.5,7.4-39.8,41.3c-15.4,97.5-82.4,164.2-179.7,178.8
	c-86.3,13-158.6-23.5-200.6-101.1c-4.3-8-9.3-15.6-15.8-26.4c-236.3,44.9-472.3,89.7-710.5,135c9.3,167.2,18.3,329.9,27.3,494.1
	c129.9,15.4,204.2,87.2,212.2,210.7c7.8,121.5-60.2,196.9-179.8,227.9C348.7,3022.6,358,3219.6,367.6,3421.3z M3598,1184.2
	c-9.4-11.7-15.4-21.7-23.7-29.2c-59.8-53.7-117.5-110.3-180.6-159.8c-317.9-248.9-674-421.2-1064.5-521.9
	c-80.1-20.7-162.7-31.6-244.4-45.5c-78.6-13.5-141.3,14.2-201.4,66.8c-260.8,228.5-523.2,455.2-787.6,679.6
	c-248.2,210.7-499.6,417.8-749.4,626.7c-3.1,2.6-4.5,7.4-9,15.3c17.8-2.2,30.9-3,43.6-5.4c188.8-36.2,377.5-73,566.5-108.5
	c23.8-4.5,38.8-13.1,41.9-38.1c4.7-38.2,27.8-64.6,57.1-86.6c59.6-44.5,126.6-56.3,198.6-43.5c41,7.3,80.7,21.1,107,54.4
	c16.4,20.8,31.8,24.2,54.2,16.7c8.7-2.9,17.9-4.1,27-5.8c141.2-26,282.5-51.8,423.7-78c62-11.5,123.8-23.7,185.5-35.6
	c2.4-10.3,5.2-17.8,5.8-25.5c5.7-70.2,42.1-121.8,100.8-156.7c124.1-73.9,254.9-87.6,390.5-34.7c36,14,70,34,88.8,69.2
	c13.6,25.6,30.2,26.1,54.8,21.2c116.2-23.3,232.6-45.5,349.2-67c178.8-32.9,357.7-64.8,536.5-97.4
	C3577.3,1193.4,3585.3,1189,3598,1184.2z M2390.9,1297.3c-14.5,0.9-29,1-43.4,2.8c-71.9,8.8-139.1,30-195.3,77.8
	c-28,23.8-50,52.4-46.5,91.5c6.3,69.5,35.5,126.3,98.2,162.1c75.8,43.2,155.1,47.3,236.2,18.2c95.5-34.3,152.9-99.7,161.9-203.4
	c4-46.3-11.3-82.5-52.8-106.3C2500.2,1311.7,2447.7,1296.9,2390.9,1297.3z M1208.3,1586.6c-58.2,2.6-99.5,13.9-133.8,44.1
	c-36.4,32.1-44.7,74.8-23.5,117.9c24.2,49.4,76.9,77.2,137.8,72.9c77.8-5.6,138.8-65.8,141.6-139c1.2-32.4-10.1-57.8-40.9-69.7
	C1259.1,1600.8,1227.4,1592.6,1208.3,1586.6z"/>
<path d="M2066.8,2268.7c3.1-112.9,86.1-191.5,199.7-187.6c92,3.1,178.9,72.8,178.7,192.8c-0.1,102.5-88.4,194-196.6,188.6
	C2143.9,2457.3,2063.9,2374.2,2066.8,2268.7z M2297.1,2209.5c-0.9-32.7-26.3-57.9-58.1-57.5c-36.5,0.4-64.4,26.9-64.3,60.8
	c0.1,32.5,25.1,55.1,59.5,53.8C2270.9,2265.2,2298,2240.7,2297.1,2209.5z"/>
<path d="M1203.1,2498.5c-114.1,3.4-185-103.2-183.6-187.2c1.9-115.3,82-191.7,186.8-193.7c84.5-1.6,189.5,63,188.2,191.8
	C1393.5,2416.1,1310.4,2498.6,1203.1,2498.5z M1292.7,2248.2c-0.8-34.7-30-62.4-64-60.7c-34.1,1.7-59.5,30.7-58.3,66.5
	c1.2,34.2,26.9,56.7,63.1,55.3C1267.4,2308,1293.5,2281,1292.7,2248.2z"/>
<path d="M3213.2,1620.2c82.6-2.2,176.9,61.3,176,178.5c-0.7,99.3-88.5,180-197.3,180.4c-99.1,0.3-174.2-70.8-174.7-165.6
	C3016.6,1702.9,3099.5,1621.1,3213.2,1620.2z M3186,1917c40.5,0.9,75.2-13.2,104.5-40.2c36.5-33.8,47-85.6,27.6-130.5
	c-18.6-43-62-69.6-111.3-66.6c-42.9,2.6-79.7,19.8-105.4,54.5c-27.7,37.5-35.5,79.5-14.3,122.8C3107,1897.3,3142,1915.4,3186,1917z"
	/>
<path d="M598.6,3016.4c-1.2-94.3,72.7-170.5,165.8-170.9c92.2-0.4,167.8,71.7,167.8,159.9c0,92.9-75.3,165.5-174.4,168.2
	C670.8,3176.1,599.8,3106,598.6,3016.4z M757.5,3113.7c64.4,0.3,116.8-48.6,116.5-109c-0.2-56.7-43.4-99.4-100.7-99.5
	c-65-0.2-113.8,44.6-114.8,105.4C657.5,3073.6,695.7,3113.4,757.5,3113.7z"/>
<path d="M2859,2699.2c0.8-78.8,59.7-135.6,139.7-134.9c78.2,0.7,137.6,58.9,136.7,133.9c-1,77.8-62.6,137.2-140.4,135.5
	C2915.9,2832,2858.2,2775,2859,2699.2z M2990.7,2771.7c51.9,0.1,88.7-31.4,88-75.3c-0.7-40.1-36.6-74.3-77.5-73.6
	c-49.3,0.8-81.1,31.2-80.9,77.2C2920.5,2744.9,2946.7,2771.6,2990.7,2771.7z"/>
<path d="M1878.3,2428c40.3-13.9,56.1-4.4,56.5,31.9c1.1,98.8-78.8,185-177.7,194c-93.8,8.6-164.3-26.1-211.1-108
	c-14.8-25.8-21.3-53.6-18.4-83.5c1.5-15.5,9.4-23.7,24.9-25.2c15.1-1.5,26,3.5,30.2,18.8c3.8,14,6.6,28.2,10.3,42.2
	c14.9,56.3,54.9,87,109.1,96c56.1,9.2,108.6-4.3,145.4-51.3c12.2-15.7,17.6-37.7,22.9-57.6C1875.2,2466.4,1875.9,2446.4,1878.3,2428
	z"/>
<path d="M2424.2,2498.7c-3.5,10.6-4.8,15.7-6.9,20.5c-17,38.6-33.7,77.2-51.4,115.4c-8.9,19.2-21.6,24.4-37.6,17.7
	c-17.1-7.2-19-21.6-13.4-36.3c16.3-43.1,33.5-85.8,50.9-128.4c6.3-15.4,19.7-17.9,32.8-10.7
	C2408.8,2482.5,2416.7,2492.1,2424.2,2498.7z"/>
<path d="M1144.6,2523.7c32.4,25.7,33.7,27.3,20.1,56.1c-16.7,35.5-35.5,70-53.2,105c-7.8,15.5-19.7,20.6-35.6,14.4
	c-16.1-6.2-22.8-18.4-15.2-34.4c19.8-41.2,40.1-82.3,61.7-122.7C1126.7,2534.1,1137.4,2529.5,1144.6,2523.7z"/>
<path d="M2304.7,2521.2c-5.7,17-8.8,28.5-13.4,39.3c-11.8,27.8-24.3,55.2-36.5,82.8c-7.3,16.5-20,19.3-35.8,14.4
	c-15.3-4.8-21.8-16.3-16.4-30.5c14.9-39.2,31-77.9,47.8-116.3c5.8-13.2,18.5-21.3,32.2-13.6
	C2292.3,2502.6,2298.5,2514.1,2304.7,2521.2z"/>
<path d="M2497,2476.1c21.7,0.6,33.3,11.9,32.1,28.1c-0.8,10.1-4.2,20.5-8.5,29.9c-12.8,28.6-26.6,56.8-40,85.2
	c-7.6,16.2-18.7,25.4-37.3,17.6c-16.3-6.8-21-20.8-15.1-35.5c15.1-37.5,31.4-74.6,49.1-111C2481.1,2482.7,2492.9,2478.9,2497,2476.1
	z"/>
<path d="M1205.2,2706.7c-26,1-42.5-21.3-32.4-43.4c16.3-35.5,35.7-69.7,54.4-104c7.5-13.7,19.2-16.3,33.3-9.2
	c15.7,7.9,20.6,20.6,13.5,35.7c-11.6,24.8-25.3,48.6-37.7,73.1c-5.9,11.6-10,24.3-16.7,35.4
	C1216.1,2700.1,1208.7,2703.8,1205.2,2706.7z"/>
<path d="M955.9,2659.4c4.4-13.5,6.2-22.8,10.3-30.8c15.6-30.4,31.2-60.9,48.4-90.3c11.3-19.4,24.4-23.1,38.7-14.8
	c15.3,8.9,12.5,23.4,7.1,34.7c-18.1,37.9-37.7,75.1-57.8,112c-6.9,12.6-19.8,19.7-33.2,11C962.4,2676.6,959.4,2665.4,955.9,2659.4z"
	/>
<path d="M1944.6,1072.4c-39.6,0.9-73.2-7.6-104.6-26.8c-91.6-55.9-95.3-174.4-7.5-236.1c50.7-35.6,156.3-54.3,233.9,3.3
	c74.6,55.4,77.4,163.2,4.3,220.7C2032.7,1063.5,1988.9,1074.3,1944.6,1072.4z M1937.4,1013.8c39.9,0.1,75.9-11.1,99.7-31.3
	c32.7-27.6,37.8-67.1,13.2-102.2c-19.7-28.1-48.6-40-80.8-43.9c-51.9-6.2-97,8.5-129.4,51c-25.5,33.5-22.1,62.6,7.8,91.5
	C1872.8,1003.1,1902.9,1014.3,1937.4,1013.8z"/>
<path d="M2900.1,1217.9c-24.2-7.8-50-13.4-73.2-24.3c-39.3-18.5-58.9-52.4-58.8-95.3c0.1-44.4,21.7-78.4,60.8-99.2
	c58.1-30.9,141.3-13.3,183.6,37.5c45,53.9,27.1,133.7-37.7,161.3C2952.3,1207.4,2927.2,1210.8,2900.1,1217.9z M2893.7,1044.7
	c-5.6,0.9-16.3,1.6-26.3,4.6c-26.7,8-40.8,24.4-41.7,46.6c-0.9,21,13.2,42.5,36.3,51.6c30.9,12.1,62.1,12.3,91.6-4.5
	c28.6-16.3,33.2-45,12-69.8C2947.9,1052.8,2924.7,1045.3,2893.7,1044.7z"/>
<path d="M1274.8,1124.1c52.8,1.9,95.3,43.4,94.3,91.8c-1.1,52.3-43.6,88.5-101.6,86.6c-53.9-1.8-89.6-40.6-87.9-95.5
	C1181.1,1157,1221.2,1122.1,1274.8,1124.1z M1280.5,1185.2c-21.7-0.9-43.9,15.1-43.6,31.5c0.2,12.5,14.8,24.4,30.7,25
	c19.9,0.7,39.7-13.8,40.5-29.6C1308.8,1197.1,1297.3,1185.9,1280.5,1185.2z"/>
</svg>
