<?xml version="1.0" encoding="utf-8"?>
<!-- Generator: Adobe Illustrator 24.3.0, SVG Export Plug-In . SVG Version: 6.00 Build 0)  -->
<svg version="1.1" id="Layer_1" xmlns="http://www.w3.org/2000/svg" xmlns:xlink="http://www.w3.org/1999/xlink" x="0px" y="0px"
	 viewBox="0 0 4000 4000" style="enable-background:new 0 0 4000 4000;" xml:space="preserve">
<path d="M823.5,567.5c-7.3-28.5-11.8-53.9-20.4-77.8c-14.8-41.2-14.7-75.7,23.1-107c25.8-21.4,45.6-50.2,67.5-76.3
	c12.8-15.3,27.4-23.1,48.2-21.6c62.7,4.6,125.4,8.3,188.2,11.4c17.3,0.9,22.9,11.3,26.4,25c11.5,44.9,23.3,89.7,34,134.8
	c11.2,47.1,21.2,94.5,31.8,141.7c2.4,10.8,5.5,21.5,9.3,36.2c22.8-7.6,42.7-14.2,64.6-21.6c-5.6-42.2-10.9-81.8-16-121.5
	c-3.3-25.5-6.1-51.1-9.5-76.7c-2-14.5,1.8-25.7,13.6-35.2c42.5-34.3,84-69.8,127-103.3c7.7-6,21.4-8.3,31.4-6.7
	c58.9,9.5,117.7,20.3,176.4,31.3c31.4,5.9,34.2,9,38.4,42.3c7.7,61.3,14.3,122.7,22.1,184c1.4,11-2.7,25.1,16.1,34.1
	c1.2-12,2.8-21.5,2.9-31.1c0.4-104.1,0.4-208.2,0.7-312.3c0.1-34.9,0.6-36.2,31.4-48.1c50.9-19.6,102.3-37.9,153-58.2
	c21.1-8.4,39.5-6.7,58.9,4.1c39.6,22.1,79.3,43.8,119.6,64.6c16,8.3,21,19.4,20.7,37c-1.8,97.9-2.5,195.8-3.6,293.7
	c-0.1,11.1,0,22.1,0,35.6c36.3,2.9,68.8,5.5,104.6,8.3c2.8-18.4,5.9-35.3,8-52.2c7-57.2,13.9-114.5,20.5-171.8
	c2.1-18.5,10.6-29.7,29.8-34c56.2-12.6,112.2-26.2,168.2-39.7c13.7-3.3,26.4-3.1,38.3,5.3c40.5,28.3,80.9,56.7,121.6,84.7
	c18.2,12.5,23.5,27.8,19.4,50.4c-10,55.7-17.1,112-25.2,168.1c-0.9,6-0.1,12.1-0.1,17.3c85.3,30.5,169.8,60.7,256.9,91.9
	c4.4-10.5,9.4-21.6,13.6-32.9c23-61.7,46.6-123.3,68.4-185.5c9.6-27.5,24.2-41.6,55.5-42.8c43.1-1.7,86-8.8,128.8-14.7
	c18.4-2.5,34.2-0.7,49,11.9c47.1,40,94.4,79.9,142.3,118.9c21.9,17.9,27.8,35.4,16.3,63.8c-36.5,90.7-69.6,182.8-104,274.4
	c-3.5,9.4-6.8,19-11.7,33c16.8,0.8,30.6,2.1,44.3,2.1c81.7-0.2,82-0.6,137.9,59c22.6,24,43.3,49.7,65,74.6
	c12.2,14,13.3,27.6,5.2,45.2c-72.8,158.1-144.8,316.5-217,474.9c-1.7,3.7-3.4,7.6-5.5,11.1c-14.1,22.9-12.5,41.4,7.1,63
	c40.3,44.5,38.4,45.8,31.5,102.3c-30.6,249.6-71.5,497.5-116,744.9c-49.1,272.7-101.7,544.7-163.2,814.9
	c-19.6,86.4-40.1,172.5-59.1,259c-6.4,29.1-20.2,48.8-47.7,63.4c-67.3,35.7-133,74.4-198.7,113c-23.2,13.6-44.7,15.1-70.2,5.9
	c-159-57.3-323.3-90.2-492-97.7c-111.1-5-222.6-7.5-333.6-3.7c-178,6.1-352,38.3-519.6,100.1c-26.7,9.8-48.1,8-72.5-6.7
	c-71.4-43.1-143.7-84.8-216.5-125.6c-22.1-12.4-27.7-32-32.5-53.1c-20.9-92.4-42.4-184.7-61.8-277.5
	c-32.7-156.2-65.7-312.4-95.6-469.2c-38.1-199.2-75.5-398.6-109-598.7c-27.5-164.5-48.6-330.1-73.1-495.1
	c-3.4-23.2,0.3-41.1,18.8-57.8c35.9-32.5,69.2-67.8,104.4-101c13.8-13,17.3-25.1,9.9-43.5C663.1,1361.6,607.2,1218.7,551,1076
	c-26.1-66.3-22.9-58.8,25.4-100.5c4.7-4,9.2-8.3,14-12.1c12.1-9.5,14.1-20.7,9.4-35.5c-15.4-49.1-29.4-98.7-44.1-148
	c-4.4-14.8-8.4-29.8-13.9-44.2c-8.4-22.1-2.6-38.9,13.7-55.6c25.2-25.7,48.6-53.3,72.1-80.6c14.3-16.7,31-24.9,53.6-25.3
	C726.5,573.3,771.6,570,823.5,567.5z M2851.1,1791c-1.8-0.6-3.7-1.3-5.5-1.9c-5.7,7.8-11.5,15.5-16.9,23.5
	c-13.2,19.6-25.2,40.2-39.5,59c-56.7,75-120.6,143-192.7,204c-70.6,59.7-146.3,110.8-229.6,149.9c-207,97.1-423.1,123.8-647.9,80
	c-125.6-24.4-243.7-67.9-352.6-135.6c-144.2-89.6-260.9-207-353.9-348.6c-4.9-7.4-10.7-14.2-16.1-21.3c-6.1,12.1-7.1,22.8-6.8,33.6
	c4.1,181.4,17.4,362.2,33.5,542.9c10.1,112.9,19.8,225.8,33.8,338.3c17.3,139,38.3,277.6,58.9,416.2
	c26.5,178.4,59.7,355.6,100.7,531.2c2.5,10.6,6.3,20.8,10.3,33.8c225.1-84.6,456.5-110.6,691.5-109.1
	c235.8,1.5,467.8,30.9,694.6,113.2c6-24,11.9-45.4,16.6-67.2c129.8-599.5,202.8-1206,223.7-1818.9
	C2853.6,1806.4,2851.9,1798.6,2851.1,1791z M2894.9,1752.5c-15.4,650.5-99.3,1288-231.6,1926.2c16-8.2,26-12.8,35.5-18.2
	c44.7-25.6,88.3-53.2,134.1-76.5c22.7-11.5,33.8-26.5,39.2-50.4c26.3-116.4,56-232.1,80.4-348.9c40.8-195.4,80.1-391.2,116.9-587.4
	c30.2-160.8,56.8-322.3,83.3-483.7c21-128,39.4-256.4,58.7-384.6c0.8-5.5-0.9-11.3-1.6-18C3104,1724.9,3000.3,1738.6,2894.9,1752.5z
	 M1174.5,3677.6c-131.9-637.5-210.1-1274.2-229.5-1921c-105.6-15.9-209.6-31.7-316.5-47.8c0.7,13,0.5,22.1,1.9,31
	c29.7,191.3,57.9,382.9,89.7,573.9c58.3,349.6,129,696.8,205,1042.9c13,59.4,25.8,118.8,39.1,178.1c3.3,14.9,7.1,28.9,23.2,37.8
	c53.1,29.4,105.4,60.4,158,90.6C1153.1,3667.4,1161.3,3671,1174.5,3677.6z M1915.3,713.4c-2.9,526.9-28.9,1047.2-19.3,1567.3
	c27.8,7.3,129.1,2.1,155.5-7.7c0-14.6-0.1-29.9,0-45.1c0.8-204.9,1.4-409.8,2.7-614.8c0.9-144.2,2.5-288.3,4.8-432.5
	c2.1-128.7,5.4-257.4,8.9-386c0.5-17.2-5.7-26.8-21.3-32.8c-32.6-12.6-64.9-26.2-97.5-38.9C1940,719.3,1930.2,717.5,1915.3,713.4z
	 M2428.2,2140.8c8.5-2.8,12.9-3.2,16-5.5c44.5-31.4,89.4-62.4,132.8-95.3c8.6-6.6,13.5-20.5,16.1-32
	c21.5-92.2,41.6-184.7,63.1-276.8c63.2-270.5,126.9-540.9,190.4-811.3c2.5-10.6,3.7-21.4,5.8-33.4c-8.5-1.1-13.5-2.3-18.5-2.4
	c-56.6-1-113.3-2.2-169.9-2.6c-29.7-0.2-30.4,0.4-35.4,30.3c-28,167.5-56.1,335-83.4,502.6c-28.6,175.8-56.3,351.7-84.6,527.5
	C2450.2,2006.7,2439.5,2071.5,2428.2,2140.8z M1671.4,979c-6.9,1.8-14,2.7-20.4,5.3c-43.8,18.1-87,37.5-131.2,54.4
	c-19.5,7.5-26.2,18.4-26.2,39.1c-0.1,72.1-1.8,144.3-3.4,216.4c-6.4,282.3-13.1,564.5-19.5,846.8c-1,42-0.7,42.6,37,58
	c41.6,17,83.6,32.9,125.6,49.4C1649.6,2197.8,1682.9,1067,1671.4,979z M1873,716.7c-9.5,1.8-13.9,1.8-17.5,3.4
	c-38.4,17.6-76.6,35.4-114.9,53.1c-14.1,6.5-18,18-17.9,32.7c0.3,34-0.6,68-0.8,102c-1.5,260.6-4.9,521.3-3.8,781.9
	c0.8,187.5,7.6,374.9,11.9,562.3c0.1,4.8,2.5,9.6,4.3,15.9c39.5,6.6,78.6,12.7,121.5,14.4c0-13.2,0-22.2,0-31.2
	c1.5-275.1,1.7-550.1,5-825.2c2.7-225.6,9.3-451.2,13.9-676.7C1875.1,739.5,1873.8,729.6,1873,716.7z M1265,1686.1
	c2.2,0.1,4.4,0.3,6.6,0.4c0.6-5.9,1.6-11.8,1.6-17.8c0.2-57.6-0.1-115.3,0.4-172.9c1.2-147.2,3.2-294.5,4-441.7
	c0.1-22.4-2.1-45.4-7-67.3c-36.5-162.6-73.9-325.1-111.3-487.6c-10.8-47.1-22.3-94.1-33.5-141.2c-3-12.7-7-23.1-23.3-23.8
	c-46.3-2.1-92.5-5.3-138.7-7.6c-4.7-0.2-9.5,2-17.9,3.8C1047.5,784.5,1162.9,1233.7,1265,1686.1z M2194.3,2246.4
	c8.1-1.5,15.2-1.9,21.6-4.2c30.1-10.4,60.2-21.1,90.1-32.1c32.6-11.9,32.4-12.1,33.9-45.4c4.9-112.2,9.2-224.3,14.9-336.5
	c9.1-179,19.3-357.9,28.7-536.8c2.3-43.2,3.4-86.5,4.9-129.7c0.4-11.1,0.1-22.3,0.1-34.4c-6.6-0.3-10.8-1.6-14.5-0.5
	c-38.6,10.9-77.1,22.3-115.7,33.3c-13.5,3.9-15.9,13.5-16.5,26c-7.9,164.6-16.2,329.2-24.4,493.8c-7.7,153.3-15.7,306.5-22.9,459.9
	C2192.9,2174.5,2194.3,2209.4,2194.3,2246.4z M1422.6,2158.9c2.8-1.4,5.5-2.8,8.3-4.2c0-15.1-0.3-30.2,0-45.2
	c4-163.8,8.6-327.5,12.1-491.3c3.9-183.4,6.5-366.7,10.2-550.1c0.3-17.4-6.3-29-20.2-38.8c-34.5-24.3-68.5-49.3-102.9-73.8
	c-2.1-1.5-5.6-0.9-11.8-1.7c-0.6,11.8-1.7,22.8-1.8,33.7c-1.8,252.4-3.5,504.9-5,757.3c-0.6,104.1-0.8,208.1-1,312.2
	c0,12.1-3,25.6,9.4,33.9C1354,2113.9,1388.4,2136.3,1422.6,2158.9z M1259.9,2041.4c1.8-1.2,3.7-2.3,5.5-3.5
	c-3.1-12.5-5.3-25.3-9.5-37.4c-26.6-75.8-52.9-151.7-80.8-227c-88.8-239.4-178.2-478.6-267.4-717.8c-13.3-35.7-26.5-71.4-40.1-107
	c-4.4-11.4-8.3-25.1-23.5-25.5c-33.7-0.8-67.4-0.3-103.7-0.3c3.1,9.6,5.3,17.2,8,24.7c50.8,136,102.7,271.6,152.3,408
	c54.5,150,106.2,301,160.6,451c8.9,24.7,22.2,49.4,39.2,69.2c42.8,49.9,88.8,97.2,133.9,145.2
	C1241.8,2028.8,1251.4,2034.6,1259.9,2041.4z M2386.2,2102.7c1.4,0.2,2.8,0.5,4.2,0.7c1.9-6.3,4.4-12.5,5.5-19
	c21.1-123.7,42.6-247.4,62.9-371.3c22.8-139.1,44.4-278.4,66.7-417.6c15.3-95.5,30.7-191,46.3-286.4c7.5-45.7,15.5-91.3,23.8-136.8
	c5.5-29.9,7.8-31.8,38-32.9c27.8-1,55.6-1.4,83.4-1.5c44.9-0.3,44.9-0.1,61.7-40.2c3.2-7.6,6.3-15.2,9.3-22.9
	c6.6-17,13.1-34,20.9-54.2c-81.9-39.6-160.4-78.8-251.3-91.4c-2.7,10.1-5.4,17.6-6.8,25.4c-14.6,85.2-29.7,170.4-43.2,255.7
	c-23.1,146.4-43.5,293.2-68.5,439.3c-13,76.2-25.5,152.3-29.6,229.5c-8.2,154.2-15.7,308.5-23.2,462.8
	C2385.4,2062.2,2386.2,2082.5,2386.2,2102.7z M907.6,354.8c-22.9,25.6-40.1,46.1-58.7,65.1c-11.5,11.8-13.7,24-10.1,39.4
	c21.5,92.2,42.5,184.6,63.9,276.8c27.7,119.3,58.4,238,82.5,358.1c17.9,89.4,44.9,175.4,77.2,260.1c19.4,51,40.4,101.3,59.3,152.5
	c41.7,113,82.6,226.3,123.9,339.4c4.1,11.1,9.3,21.8,14,32.7c2.1-0.8,4.3-1.5,6.4-2.3C1152.8,1370,1026.7,866.5,907.6,354.8z
	 M696.6,931.3c-13.9,9.5-25.3,16.1-35.3,24.4c-21.4,17.8-42.1,36.3-63,54.7c-22.1,19.4-22.1,19.5-11.5,47
	c80.2,207.4,160.5,414.8,240.4,622.3c5.5,14.3,13.2,20.9,28.8,22.7c37.8,4.2,75.3,10.5,113,15.7c3.8,0.5,7.8,0.1,15.5,0.1
	C893.3,1454.2,802.8,1193.1,696.6,931.3z M2852.6,1715.7c25.4-3,46.5-6.4,67.8-7.7c18.7-1.2,29.1-9.4,36.7-26.9
	c101.4-234.1,203.4-467.8,305.1-701.7c4.3-9.9,6.8-20.5,10.5-32.3c-36.7,0-69.4,0.8-102-0.3c-25.3-0.8-38.2,10.1-48,33.6
	c-56.2,135.9-113.6,271.3-171.4,406.6c-32.7,76.7-67.2,152.6-82.1,235.5C2864,1652.5,2858.6,1682.4,2852.6,1715.7z M2408.2,298.7
	c-16.4,3.3-26.4,4.7-36.1,7.3c-32.8,8.7-65.2,19.2-98.4,26.2c-17.7,3.8-23,12.5-25.1,28.9c-22,173.6-44.7,347.2-66.9,520.8
	c-4.8,37.4-8.4,75-12.9,115c44.3-2.8,85.6-5.4,131.5-8.3C2332.1,762.9,2377.3,535.1,2408.2,298.7z M2644.5,1961.1
	c2.5,1.3,5,2.5,7.5,3.8c5.2-4.6,10.9-8.6,15.5-13.8c30.6-34.8,61.2-69.7,91.2-105c20.3-23.9,34.6-51.2,41.1-82.1
	c9.2-43.3,17.9-86.7,26.8-130c30.7-149.3,61.4-298.5,92-447.8c12.2-59.5,24.3-119,35.3-178.8c2.1-11.3,3-27.1-3.1-34.8
	c-16.3-20.4-36.7-37.5-60.6-60.9C2807.2,1266.4,2725.8,1613.8,2644.5,1961.1z M3123.3,449.3c-6.5,14.4-11.8,24.2-15.5,34.5
	c-46.1,127.6-91.2,255.7-138.5,382.9c-12.4,33.3-16.5,60.3,17.8,82.6c12.5,8.1,17.5,21.4,14.1,37.9
	c-15.5,75.5-30.1,151.2-44.9,226.9c-3.7,19.2-6.7,38.6-10,57.9c2.1,0.6,4.2,1.1,6.3,1.7c4.5-8.9,9.5-17.6,13.3-26.8
	c42.6-102.5,85.2-205,127.2-307.7c6.1-14.8,11.2-28.7,29.1-32.4c12.3-2.6,18.1-12,22.3-23.3c36.4-98.3,73-196.6,109.6-294.8
	c4.7-12.7,4.5-23.1-7.3-32.9C3206.9,522,3167.6,487.5,3123.3,449.3z M2103,1093.2c-10.2,80-14.5,1146.5-4.7,1176.7
	c16.4-4.1,33-8.2,50.5-12.5c0.6-12.6,1.1-22.8,1.5-33c2.3-54.5,4.1-109.1,7-163.6c7-132.7,14.8-265.3,21.8-398
	c6.3-119.3,11.7-238.6,17.6-358c2.1-42.2,4.2-84.4,6.7-126.5c0.6-10.6,1.6-20.6-9.1-27.3C2165,1132.5,2135.7,1113.9,2103,1093.2z
	 M1664.8,903.4c2.4-1,4.8-2.1,7.2-3.1c-0.7-15-0.9-30.1-2.3-45.1c-7.5-83-14.6-166-23.1-248.9c-8.4-81.9-18.9-163.5-27.5-245.3
	c-1.8-17.3-8.2-25.1-25.9-27.6c-39.7-5.6-79.1-13.4-118.6-19.9c-6.5-1.1-13.4-0.2-19.9-0.2c-3.4,29.1,61.2,522,71.5,545.1
	c6.4-1,13.5-1.4,20.2-3.4c29-8.5,54.3-4,77.1,17.1C1636.1,883.9,1651,893.1,1664.8,903.4z M2447.7,309.6c-4,29.5-6.5,51.8-10,73.9
	c-31,193-62,386.1-93.4,579c-9.9,60.8-10.4,60.7,42.7,93c22.5,13.6,44.9,27.1,43.1,59.7c8-35.1,13.2-69.3,19-103.4
	c24.5-145,49.5-290,73.8-435c9.5-56.8,18.3-113.7,26.3-170.8c1.3-9,0-23.1-5.8-27.6C2514.6,355.6,2483.9,335.3,2447.7,309.6z
	 M2995.3,1697.2c35.9-5.3,65-10.1,94.2-13.7c18.3-2.3,29-11.8,36.6-28.4c86.9-190.9,174.2-381.6,261.8-572.2
	c5.9-12.7,6-22.4-3.8-33.5c-19.1-21.5-36.8-44.3-55.4-66.3c-3.8-4.5-9-7.7-16.3-13.7C3207,1211.2,3102.6,1450.9,2995.3,1697.2z
	 M1891.4,153.4c-47.9,17.9-93.1,34.3-137.7,52.2c-5.8,2.3-10.2,11.8-12.2,18.8c-2.2,7.7-0.8,16.3-0.9,24.6
	c-1.4,117.3-2.9,234.7-4.1,352c-0.4,39.8-0.1,79.7-0.1,122.5c50-20.7,97.8-40.6,145.5-60.4C1889.9,626.5,1898,210,1891.4,153.4z
	 M1478.2,863.8c-0.4-63-63.1-507-74.9-529.3c-25.7,20.8-50.8,42-76.8,61.9c-13,9.9-16.6,20.2-14.4,36.9
	c14,110.2,26.6,220.6,39.7,330.9c4.4,37.5,8.8,75,13.5,115C1404.6,872.9,1442.6,875.2,1478.2,863.8z M2030.2,712.2
	c2.3-45.4,5.3-86.4,6.3-127.5c2.6-107,2.9-214.1,7.2-321.1c1.4-35.4-6.7-58.2-41.7-70.9c-21.5-7.8-40.9-21.4-67.1-35.6
	c-2.6,176.3-5.1,345.4-7.5,514.7C1961.9,685.4,1994.3,698.1,2030.2,712.2z M3080.2,440.5c-44.1,6.2-79.5,12-115.2,15.9
	c-15.6,1.7-23.6,8.2-28.9,22.7c-32.9,89.9-66.5,179.5-99.8,269.3c-10.6,28.6-20.7,57.4-31.9,88.8c23.7,1.7,45.2-0.7,63.6,5.8
	c18.1,6.4,33.1,21.7,52.8,35.4C2973.8,733.1,3026,589.6,3080.2,440.5z M908.4,944.6c1-0.4,2.1-0.7,3.1-1.1
	c-27.2-111-54.4-222.1-80.8-329.9c-49.7,0-95.3,0-144.9,0c27.5,90.8,53.7,176.8,80.3,264.4c10.7,0.6,20.8,1.3,31,1.6
	c16.4,0.6,32.9,1.3,49.3,1.3c25.7,0,42.9,11.1,50.7,36.2C899.9,926.7,904.5,935.5,908.4,944.6z M2104.2,1000.9
	c23.2,4.3,24.4-7.6,26.1-21.1c13.6-105.1,27.7-210.2,41.5-315.3c2.9-22.2,5.1-44.4,8.1-70.3c-35.2,0-67.4,0-102.8,0
	c0,44.8,0,88.7,0,135.7c28.2,8.7,30.8,32.2,29.6,60.2c-2.3,51.4-1.9,103-2.4,154.5C2104.1,963.1,2104.2,981.5,2104.2,1000.9z
	 M720.3,867.6c-22.2-72.1-45.1-146.5-69.2-224.9c-20.7,20.6-38.2,39.1-56.8,56.4c-13.1,12.2-14.2,24.2-8.7,41.2
	c16.7,51.9,31.1,104.5,46.4,156.8c1.8,6.3,3.8,12.5,5.9,19.4C665.5,900,690.7,885.1,720.3,867.6z M1365,922.7
	c-1.2,3.2-2.4,6.4-3.6,9.7c3.6,2,7.5,3.6,10.9,5.9c27.3,18.3,56.1,34.8,81.4,55.6c17.4,14.3,32.1,13.8,50.7,6
	c40.7-17.2,81.9-33.2,122.7-50.1c5.1-2.1,9-7,15.4-12.1c-13-9-24.2-16.1-34.7-24.2c-20.1-15.5-41.3-19.6-66.6-13.4
	c-22.8,5.6-46.8,6.7-70.2,9.6C1435.5,914,1400.3,918.3,1365,922.7z M1239.7,674.8c17.7,74.2,34.3,143.6,50.6,211.8
	c33.9,2.1,37.5-0.5,34.7-28.2c-4.4-43.8-10-87.5-15.2-131.3c-2.7-23.1-5.7-46.1-8.9-72.6C1278.9,661.9,1260.8,667.8,1239.7,674.8z
	 M2126.3,1050.5c-0.3,2.5-0.5,5-0.8,7.5c28.2,17.8,56.2,36,84.9,53.2c5.6,3.4,14.2,4.7,20.7,3.4c37.7-8,75.2-17.1,119.4-27.4
	c-28.7-19.9-51.8-36.2-75.5-51.9c-3.8-2.5-10.1-2.7-15-2.1C2215.4,1038.8,2170.9,1044.7,2126.3,1050.5z M789.6,1691.7
	c-16-43.4-29.9-81.2-45.9-124.9c-35.2,34.8-66.1,65.4-102.3,101.2C694,1676.5,738.7,1683.6,789.6,1691.7z M1690.4,2135.9
	c-1.8,0.3-3.5,0.5-5.3,0.8c0,20.4,0.8,40.8-0.2,61.2c-2.3,48.3-2.6,48.3,5.4,60.9C1690.4,2216.5,1690.4,2176.2,1690.4,2135.9z
	 M3178.7,1642.5c-6.2,10.8-10.5,18.2-18.7,32.4c16.7-2.9,25.3-4.3,38.4-6.6C3190.4,1657.9,3186,1652.1,3178.7,1642.5z M1695.3,613.7
	c-1.1,0-2.2,0-3.4,0c0,3.6-0.1,7.2,0,10.7c0.2,4,0.7,8,1.1,12c0.8,0,1.5,0,2.3,0c0-3.7,0-7.4,0-11.1
	C1695.3,621.5,1695.3,617.6,1695.3,613.7z"/>
<path d="M1480.8,2781c0.4-54.5,41.1-92.8,98-92.1c52.2,0.6,93.7,43.2,92.8,95.2c-1,58.1-42.5,97.9-101,97
	C1523.8,2880.3,1480.5,2832,1480.8,2781z M1545.6,2786.9c15.9,0.6,29.2-11.6,30.5-28c1.4-17.2-10.2-30.6-26.3-30.6
	s-30,12.3-31.1,27.7C1517.4,2772.1,1529.8,2786.3,1545.6,2786.9z"/>
<path d="M2334.1,2774.8c-0.1,56.8-42.3,103.9-93.1,103.8c-53.6-0.1-96.7-44-97.5-99.3c-0.8-50.6,44.7-94,98.6-93.9
	C2292,2685.5,2334.2,2726.5,2334.1,2774.8z M2270.3,2727.4c-17.1-0.4-29.7,10.9-30.7,27.7c-1,16.5,9.5,29.1,24.4,29.2
	c17,0.1,33.3-14.3,33.4-29.7C2297.6,2739.2,2286.2,2727.8,2270.3,2727.4z"/>
<path d="M1905.3,2968.4c-59.2,0.8-106.9-41.7-112.9-100.1c-1.1-10.6-1-21.8,11.3-25.7c14.4-4.6,20.2,6,24.4,17.1
	c2.5,6.7,4.1,13.8,6.3,20.6c10.5,31.6,33.1,48.7,66.2,50.2c32.7,1.5,57.9-13.8,70.6-44c4.4-10.3,6.9-21.4,10-32.3
	c2.8-9.7,7.3-17.9,19.1-15c10.7,2.7,19.1,9.4,17.6,21.7c-7,55-36.3,99.5-100.3,107.3C1913.6,2968.8,1909.4,2968.4,1905.3,2968.4z"/>
<path d="M2372.8,2906.1c-2.1,6-3.1,11.1-5.4,15.4c-10.7,19.7-21,39.6-33,58.4c-3.8,6-11.9,11.2-19,12.8
	c-10.6,2.5-19.3-7.1-14.3-16.4c14.3-26.8,30.5-52.7,47-78.2c2.1-3.3,11.1-4.2,16.1-3C2367.7,2895.9,2370,2902.2,2372.8,2906.1z"/>
<path d="M1495.3,2896.7c-1.2,7.7-0.4,16.6-4,23.1c-11.9,21.5-25.3,42.3-38.4,63.2c-5.5,8.8-14,13.4-23.7,8
	c-11.2-6.1-6.9-16.2-2.5-24.3c11.3-20.7,22.5-41.7,35.5-61.3C1471.5,2891.5,1472.8,2892.3,1495.3,2896.7z"/>
<path d="M1557.8,2914.9c-14.1,23.8-27.5,47.7-42.6,70.5c-2.4,3.5-14.1,4.5-18.8,1.8c-4.3-2.5-8.4-13.2-6.3-17.3
	c11-21.8,23-43.2,36.7-63.4c3.2-4.7,14.2-5.2,21.6-5.2C1550.9,2901.4,1553.6,2908.6,1557.8,2914.9z"/>
<path d="M1431.7,2905.3c-4,10.1-6.4,19.1-10.8,26.9c-9.6,16.7-19.3,33.5-31.1,48.6c-3.4,4.4-14,3.3-21.2,4.6
	c-0.6-6.5-3.8-14.4-1.3-19.2c11.3-21.6,23.6-42.7,37-63c3.1-4.6,11.7-6.8,18.1-7.5C1425.1,2895.5,1428.6,2902,1431.7,2905.3z"/>
<path d="M2303.3,2910.6c-9.8,29.8-22.7,55.5-43.5,76.1c-7.8,7.7-19.2,1.8-19.6-9.1c-0.1-3.9,0.7-8.4,2.5-11.9
	c10.4-20.1,20.5-40.4,32.3-59.6c2.8-4.6,12.1-7.4,18.2-7.1C2296.9,2899.2,2300.3,2906.8,2303.3,2910.6z"/>
<path d="M2427.1,2897.2c0,7.2,2.4,15.9-0.4,22.1c-9.8,21.2-20.8,41.9-32.9,61.9c-2.5,4.2-12.3,6.2-18.1,5.2
	c-3.1-0.6-8-10.5-6.6-14.5c9.6-29.1,24.1-55.7,48.5-75.4C2418.6,2895.6,2421.3,2896.7,2427.1,2897.2z"/>
</svg>
