<?xml version="1.0" encoding="utf-8"?>
<!-- Generator: Adobe Illustrator 24.3.0, SVG Export Plug-In . SVG Version: 6.00 Build 0)  -->
<svg version="1.1" id="Layer_1" xmlns="http://www.w3.org/2000/svg" xmlns:xlink="http://www.w3.org/1999/xlink" x="0px" y="0px"
	 viewBox="0 0 4000 4000" style="enable-background:new 0 0 4000 4000;" xml:space="preserve">
<path d="M313.7,2956.4c-19.8,0-36.6,0.9-53.3-0.2c-56.9-3.7-88.7-46.7-76.9-102.2c7.3-34.1,26.2-61.9,46.5-89
	c5.6-7.5,11.8-14.7,17.8-22.2c-3.3-4.3-4.8-7.9-7.6-9.6c-58.3-36-73.6-90.5-42.8-151.9c14.5-28.9,36.6-50.9,62.8-68.6
	c16.2-10.9,21.8-23.6,18.5-42.7c-7.8-45-1-88.9,13.3-131.8c5.5-16.5,8-31.7-2.9-48.1c-26.7-39.7-17.1-78.8,7.8-114.6
	c13.5-19.4,32.1-35.3,51.3-56c-11.1,0.6-19.7,1.5-28.2,1.4c-24-0.4-48.6,1.8-71.9-2.6c-45.5-8.7-68.9-44.6-62.8-90.6
	c4.1-30.9,18-58.5,38.5-80.5c29.4-31.6,62.4-59.8,94.4-89c8.8-8,19.2-14.2,28.1-20.6c0-4,1-7.3-0.1-8.4
	c-43.3-44.2-55.3-100.1-59.8-158.8c-14.4-187.2,24.5-364.8,100-534.7c110-247.8,286.8-437.7,513.4-583.8
	C1110.1,416.2,1341.5,339,1586.7,298c180.7-30.2,362.4-36.8,544.5-20.4c267.9,24.2,525,88.9,763.9,216
	c181.1,96.3,340.4,219.8,463.4,385.6c171.9,231.6,267,489.5,260.5,781.1c-1.1,47.4-8.9,93.2-30.3,139.3c17.7,10.7,34,20.4,50.1,30.4
	c50.8,31.5,97.3,68.3,125.7,122.1c12.7,24,22.8,51.2,25.7,77.9c6.3,58.3-30.5,107.7-90.5,128.3c-15.8,5.4-32.4,8.6-49.9,13.1
	c1.3,21.4,7.5,43.6,2.4,62.9c-4.8,18.4-21.3,33.8-31.5,48.7c11.3,36.9,25.9,71.7,31.9,108c5.2,31.4,2.8,64.6-0.3,96.7
	c-2.1,21.8,2.7,35.8,20.3,49.3c16.9,13,32.2,29.3,44.6,46.7c31.2,43.8,27.5,88.9-8.9,128.4c-6.3,6.9-15.7,11.1-24.8,17.3
	c18.7,21.9,33.1,37.7,46.4,54.5c16.9,21.4,26.6,45.4,25.6,73.5c-1.6,44.7-25.8,75.5-69.8,84.1c-24.6,4.8-49.9,6.6-77.9,10.1
	c-1.4,20.8-2.3,41-4.3,61.2c-9.5,95.3-36.8,184.1-96.2,261.1c-55.1,71.4-130.2,113.5-212.1,145.4c-95.8,37.3-195.8,59.9-296.3,79.7
	c-157.6,31.1-317.1,46.1-477,59.3c-214.2,17.7-428.8,21.7-643.6,19.3c-230.5-2.6-460.5-15.4-689.4-43
	c-159.3-19.2-317.4-45.4-471.4-92c-43.7-13.2-86.9-29.2-129-47C447,3335.9,360.5,3229.8,330.5,3079
	C322.8,3040.2,319.6,3000.5,313.7,2956.4z M2020.6,2003.4c101.8-4,260.9-9.7,419.8-16.5c271.3-11.7,540.8-39.5,806.9-95.4
	c87.4-18.4,172.8-43.6,254.2-81.1c40.1-18.4,61.2-49.5,64.6-92.8c2.7-34.8,6.7-69.7,6.1-104.5c-4-204.4-58.9-395.2-161.7-571.3
	c-133.9-229.4-324.2-399.3-560-518.7c-218.7-110.7-451.1-174.4-695.1-196.1c-248-22-493.4-9.9-735.6,53
	c-225.7,58.6-434.7,151.7-617,298.5c-233.9,188.4-394.8,423.9-454.2,722.5c-19.4,97.5-25.6,195.7-13.7,295
	c7.8,65.7,40.7,109.8,103.9,129.2c66.7,20.5,132.9,45.1,201.2,57.7c144.5,26.6,289.6,51.1,435.5,68c161.5,18.8,324,31.1,486.4,40.6
	C1695.4,1999.3,1829.4,1998.8,2020.6,2003.4z M367.1,2948.9c0,14.4-1.4,26.5,0.3,38.1c5.6,38.1,10.4,76.6,19.1,114
	c21.7,93.7,74,166.1,155.9,217.3c79.8,50,168,78.4,258.3,100.7c128.8,31.9,259.7,52.3,391.5,68.7c176.2,21.9,353.1,32.8,530.2,38.8
	c196.5,6.7,393.1,6.2,589.7-3.6c177.2-8.9,353.9-21.4,529.5-45.9c131.4-18.3,262.3-40.5,387.3-86.4c55.1-20.2,110.8-42.9,160.2-74.1
	c108.9-68.7,156.9-176,170.5-300.4c2.5-23.1,8.3-47.6-4.7-72c-84.5-7.4-157.7,15-219.1,73.7c-21.8,20.8-42.9,42.6-66.2,61.5
	c-44.5,36.1-94.9,56.9-153.7,51.1c-42-4.1-78.9-20.9-113-44.7c-30.6-21.4-60-44.9-91.8-64.3c-65.3-39.9-126.6-31.5-180.2,23.3
	c-18.5,18.9-35.6,39.3-52.6,59.8c-64.1,77.4-144.6,97-237.1,63.6c-47.4-17.1-92.3-41.3-138.6-61.6c-27.5-12.1-55-24.6-83.4-34.1
	c-45.7-15.3-88.2-4.4-127.1,21.7c-14,9.4-26.8,20.5-39.9,31.1c-22.4,18.3-43.5,38.4-67.1,55.1c-71.6,50.7-149.3,61-229.1,23.4
	c-40-18.8-76.6-45.1-114.3-68.7c-17.3-10.8-33.2-24.1-50.6-34.8c-32.5-19.9-67.1-21.2-99.9-2.8c-28.2,15.9-54.3,35.7-80.9,54.4
	c-22.7,15.9-43.8,34.4-67.4,48.5c-76.9,45.9-161.8,39.4-226.8-21.4c-18.3-17.1-33.5-37.7-48.9-57.7c-9.5-12.3-16.6-26.6-25-39.8
	c-42.9-67.4-73.5-74.3-143.7-35.3c-32.6,18.1-65.7,36-100.4,49c-83,31-145.6,8-191.4-66.9c-11.3-18.5-20.7-38.2-32.4-56.4
	c-11.9-18.5-26.2-36.3-49.6-39.2C471.3,2926.1,419.3,2932.7,367.1,2948.9z M334.3,2335.9c-14.2,45.6-17.9,89.8-12.7,133.8
	c7.7,66.3,39,120.6,92.5,161.8c50.7,39,109.2,60.8,169.6,78.6c164.8,48.4,333.6,76.7,504,92.2c177.6,16.1,355.8,29.7,534,35
	c262.8,7.8,525.8,9.1,788.7-2.4c210.8-9.3,421.4-19.6,630.2-52.7c126.3-20,251.5-44.8,372.1-88.4c30.4-11,60.5-24.8,87.8-41.9
	c121.6-76.6,132.9-227.3,86.6-315.5c-15.1-28.7-21.7-32.9-51.3-20c-65.1,28.4-130.9,55.8-193.3,89.4
	c-86.1,46.3-153.8,116-216.9,189.4c-44,51.1-83.7,105.9-125.8,158.7c-21.5,27.1-33.8,30.9-65.8,18.6c-25.8-9.9-51.3-21.1-76-33.5
	c-191.8-96.3-396.6-148.2-607.4-179.8c-143.3-21.5-287.8-28.6-432.2-37.1c-154.1-9.1-308.2-18.1-462.2-27.7
	c-210.6-13.2-420.7-31.3-628.9-66.9c-109.2-18.7-218.6-36.7-324.5-70.9C381.2,2349.5,359.5,2343.4,334.3,2335.9z M334.7,2699.8
	c1.1,3.4,2.1,6.8,3.2,10.2c-9,10.8-18.2,21.5-27.1,32.4c-22.1,27-45.3,53.4-65.9,81.5c-14.4,19.6-27.6,43.7-13.9,67.1
	c15,25.6,43.1,21.8,68.7,18.8c2.4-0.3,4.8-0.8,7.1-1.2c53.4-9.1,106.7-19.4,160.3-27c73.6-10.5,115.6,11.2,153,75.6
	c11.5,19.8,23,39.6,34.6,59.4c19.1,32.5,47.7,48.6,84.8,41.7c28-5.2,55.8-14.1,82.3-24.8c22.2-9,42-23.5,63.3-34.9
	c79.1-42.7,136.1-28.7,186.5,44.9c19.1,27.8,37.1,56.7,58.7,82.4c54.4,64.4,116.6,75.1,190.1,33.7c18.8-10.6,36.1-24,53.5-37
	c20.3-15.1,39.7-31.5,60-46.6c64.6-47.9,131.3-51.4,196.8-3.3c35,25.6,70.3,51.2,107.7,73c84.5,49.4,157.8,43.4,234.8-16.8
	c27.6-21.5,53.8-44.7,81.3-66.4c39.4-31,84.1-44.9,134.7-43.4c46.4,1.4,86,21.2,126.4,40.1c46.9,21.9,93.3,45.1,141.3,64.4
	c72.7,29.2,134.4,9.1,185.4-48.4c20.8-23.5,39.9-48.7,62.6-70.1c45.5-43,99.4-61.7,162.7-49.9c34.1,6.3,63.9,21.5,91.8,40.6
	c25.9,17.7,50.7,36.8,75.8,55.6c72.9,54.5,148,39,204.9-10.7c23.6-20.6,46.4-42.2,69.8-63.1c46.1-41.3,98.7-69.8,160.9-75.5
	c35.9-3.3,72.2-2.4,108.3-3.1c28.9-0.6,58.1,1.6,86.7-1.5c43.7-4.8,59.5-39.3,35.4-75.9c-11.2-16.9-25.9-31.7-40.2-46.3
	c-43.3-44.2-43.5-46.9,2-87.1c37-32.7,38-63.3,3-98.3c-23.9-23.9-34.8-23.4-51.2,7.5c-28.3,53.8-72.4,89-125.7,115.2
	c-66.5,32.7-137.4,51.7-208.4,70.6c-193.1,51.5-391,71.1-589.4,85.6c-116.6,8.5-233.6,12.3-350.6,16.6
	c-339,12.3-677.9,7.9-1016.3-14.9c-198.4-13.4-396.7-29.3-591.6-73.1c-84.7-19.1-169.5-37.6-249.6-72.3
	c-74.7-32.3-140.4-75.1-175-153.5c-3.6-8.2-10.6-14.9-16-22.2c-37.4,24.3-53,42.3-59.7,68c-11.7,45,11.4,76.6,57.2,78.7
	C304.8,2696.7,319.7,2698.5,334.7,2699.8z M438.5,2131.3c-7,0.8-9.6,0.5-11.8,1.4c-38.9,14.9-75.1,34.5-98.1,70.5
	c-18.6,29.2-12.2,56.2,19.6,72.8c32.9,17.2,67.4,32.8,102.9,43.1c111.2,32.4,224.2,56.6,339.7,68.5
	c124.7,12.8,249.1,28.3,373.8,40.9c78,7.9,156.2,12.7,234.4,18.3c110.7,8,221.3,19.3,332.1,22.1c165.5,4.2,329.8,19.1,493.9,38.6
	c163.5,19.4,322.9,56.6,476.4,116.4c76.3,29.7,151.2,63,226.5,95.2c29.1,12.4,33.8,11.7,51.7-11.6c33-43,65.5-86.6,100.1-128.4
	c111.9-135.3,242.8-244.1,414-297.6c33.1-10.3,64.5-26.5,96.3-40.8c14-6.3,24.5-16.4,19.9-34c-4.3-16.7-14.9-27.8-32.2-30.2
	c-44.4-6.1-87-2.6-122.6,28.9c-18.1,16-35.4,32.8-52.8,49.5c-55.3,53.3-117.5,72.5-192,43.2c-14.3-5.6-34.5-6.3-48.6-0.8
	c-69.2,27.2-141.9,38.9-214.4,50c-157.2,24.1-315,19.9-472.5-0.2c-33.5-4.3-67-8.3-100.3-13.7c-32-5.2-64-10.8-95.6-18.2
	c-30.5-7.1-60.5-16.2-90.4-25.5c-46.9-14.5-87.6-1.9-125.8,25.8c-26.3,19.1-52.4,39-80.6,55.1c-67.7,38.7-135.8,39.6-200.6-6.7
	c-19.8-14.2-38-16.2-60.8-9.8c-145.2,40.6-293.4,56.5-443.8,50.4c-61.4-2.5-122.8-7.5-183.8-14.6c-117.7-13.8-232.7-39.4-342.9-84.8
	c-17.3-7.1-37.2-10.6-55.9-10.7c-47.1-0.3-92.3-7.3-129.5-37.4c-27.9-22.5-52.6-49.2-77.7-75c-10.9-11.1-18.4-25.4-29-37
	C452.2,2138.6,443.3,2134.5,438.5,2131.3z M3548.7,1841.2c-2.3,3.1-4.6,6.2-6.9,9.2c6.4,9.5,12.7,19.1,19.3,28.4
	c45,63.6,26,160.9-62.1,186.6c-75.8,22.1-151.8,25.1-229.1,14.8c-83-11.1-164.6-28.1-235.5-75.5c-24.5-16.4-47.5-18.6-74.9-15.2
	c-78.9,9.9-157.9,19.1-237.1,26.6c-82.8,7.9-165.8,13.7-248.8,20c-14.9,1.1-28.2,2-35.2,18.9c-25.3,61-75,96.5-132.9,121.1
	c-119.7,50.9-243.2,65.6-371.4,37.6c-108.6-23.7-207.7-62.7-276.1-157.1c-5.5-7.6-17.7-13.8-27.1-14.3c-49.3-3-98.8-3.8-148.2-5.8
	c-14.7-0.6-24.3,6.6-34.4,16.3c-13.8,13.2-28.8,25.7-45,35.8c-58.4,36.2-123.4,53.6-190.6,64c-20.9,3.2-41.8,6.4-70.2,10.7
	c34.2,34,62.6,62.1,96.9,84.7c36.4,23.9,74.1,28.6,113.6,13.1c33.6-13.1,65.7-29.9,98.8-44.4c28.6-12.6,57.1-25.8,86.6-36
	c41.4-14.3,81.7-9,116.3,18.7c31.9,25.5,61.7,53.7,92.9,80.1c22,18.6,43.6,38,67.4,54c44.4,29.9,91.5,28.6,136.7,2.3
	c29.1-16.9,54.9-39.3,83.6-56.8c23.4-14.3,47.8-29.5,73.9-36.2c43.8-11.2,88.5-7.2,131.7,8.3c28.4,10.2,56.9,19.7,85.3,29.7
	c48.4,17.1,92.7,8.5,133-22.1c14.4-10.9,27.7-23.2,41.7-34.7c16.8-13.7,33-28.4,50.9-40.5c39.7-26.8,82.4-32.6,127-12.5
	c19.8,8.9,39.3,18.4,59,27.3c47.3,21.5,93.4,20.4,137.9-8.1c13.2-8.5,26.4-16.9,39.6-25.4c64.9-41.4,109.8-40.1,173.4,4.7
	c34.5,24.3,67.9,50.3,103.9,72.1c68.5,41.6,123.4,35.1,179.6-22c71.2-72.4,81.4-92.6,215.4-92c31,0.1,63.1-3.4,92.7-12.1
	c55-16.3,78.3-67.3,57.3-120.5c-7.4-18.6-18.9-36.6-32.2-51.7c-32.9-37.6-74.3-65.1-117.6-89.3
	C3576.2,1847.6,3561.9,1845.4,3548.7,1841.2z M879.1,2158.8c-0.5-2.5-1-4.9-1.5-7.4c-9.2-2-18.3-4.3-27.6-5.8
	c-62.1-9.9-123.4-23.7-180.2-50.9c-42.2-20.1-82.9-43.9-121.9-69.7c-36.1-23.8-65.6-58-69.6-101.4c-3.3-36.2-21.4-45-50.2-54
	c-26.2-8.2-46.8-4.9-66.7,12.4c-28.1,24.5-58.5,46.9-84,73.9c-17.7,18.7-32.4,42.2-42.2,66.1c-12.6,30.7,1.6,49.4,34.6,50.2
	c26.4,0.7,53.1,0,79.4-3c69.9-8,124,16.8,166.8,72.3c21.2,27.5,45.8,52.8,71.2,76.5c28.9,26.9,64,37.3,103.7,28.1
	C759.8,2230,818.4,2192.3,879.1,2158.8z M1388.3,2039.7c-0.4-2.7-0.7-5.5-1.1-8.2c-9.1-1.2-18.1-2.8-27.2-3.6
	c-84.1-7.3-168.4-12.2-252.2-22c-183.2-21.4-365.5-48.5-545.4-90.3c-11.9-2.8-25.1-8.1-37.2,0.7c9.5,31.8,20.7,47.1,52.2,72.4
	c61.5,49.4,132.7,78.9,208.4,96.3c155.9,35.7,313.1,38.8,470.3,8.8C1303.8,2084.7,1347.5,2065.2,1388.3,2039.7z M1710.7,2302.5
	c-27-22-49.8-41.1-73.2-59.4c-27-21.1-57.5-24.2-89-13.3c-21.6,7.4-42.4,17.1-63.4,26.2c-40.9,17.7-80.7,38.3-122.6,52.8
	c-61.8,21.3-119.1,8-169-34c-25.8-21.7-49.5-46.1-76-66.9c-13.7-10.8-30.6-20.5-47.4-23.7c-103.9-19.5-189.7,26.4-273.2,79
	c-0.7,0.5-0.7,2.1-1.1,3.2C934.4,2360.2,1535,2386.7,1710.7,2302.5z M1714.9,2046c9.5,29.5,31.1,39.8,49.8,51.3
	c135.3,83.5,280.9,100.3,434.1,64.8c56.9-13.2,110-35.5,156.3-71.5c14.4-11.2,32-21.8,32.1-44.6
	C2163.6,2046,1941.5,2046,1714.9,2046z M3079.6,1973.2c6.3,7.9,7.4,10.3,9.3,11.4c4.1,2.4,8.6,4.4,13,6.2
	c82.6,31.9,168,51.8,256.8,49.3c40.4-1.2,81.7-6.4,120.7-17.1c60.1-16.5,75.1-54.4,50-110.8c-17.9-40.2-27.3-44.5-69.4-30.6
	c-112,36.9-225.5,67.8-342.8,82.9C3105.8,1966,3094.7,1969.6,3079.6,1973.2z M3117.4,2255.8c-22.4-27.2-49.3-44.6-76.8-61.5
	c-30.5-18.7-59.5-16-88.1,3c-15,10-29.2,21.4-44.2,31.5c-58.6,39.4-120.2,46.4-185,16.3c-19.7-9.1-38.5-20.7-59-27.4
	c-16.6-5.4-35.4-8.6-52.5-6.7c-34.7,3.8-95.1,52.7-114.1,89.9C2707.8,2326.9,2913.4,2314.5,3117.4,2255.8z"/>
<path d="M2467.1,1326.9c-1,73-53,122.8-127.8,122.6c-65.2-0.2-121.1-61.9-120.4-133c0.6-69.9,54.8-124.4,123.8-124.4
	C2416.6,1192.1,2468.2,1248,2467.1,1326.9z M2381.2,1326c20.4-0.2,38.9-16,39.5-33.9c0.8-21.4-19.7-41-41.5-39.9
	c-18.1,0.9-33.4,17.2-33.3,35.5C2345.9,1306.6,2364,1326.1,2381.2,1326z"/>
<path d="M1474.3,1449.5c-67.2,4.9-123.8-63.8-122.6-125.2c1.4-69.8,55.5-126.8,122-126.2c68.7,0.6,122.5,55.6,122.7,125.3
	C1596.5,1392,1541.2,1449.1,1474.3,1449.5z M1438.6,1323.4c21.3-0.5,36-16.1,34.7-36.8c-1.1-17.9-17.7-34.5-34.7-35
	c-20.4-0.6-36.9,15.5-36.4,35.8C1402.5,1308.3,1418.4,1323.9,1438.6,1323.4z"/>
<path d="M1908,1601.5c-80.2-0.1-150.9-64.6-158.3-144.7c-0.6-6-0.2-12-0.3-18c-0.2-13.4,8.1-21.5,19.7-20.6
	c7.7,0.6,18.1,7.4,21.4,14.3c6,12.8,6.8,28,11.4,41.6c24.5,72.3,104.5,101.8,166.6,61.9c28.4-18.2,41.5-45.8,48.2-77.4
	c2-9.4,1.9-19.7,6.1-28c3.2-6.3,12-14.4,17.5-13.9c7.8,0.8,15.9,7.8,21.7,14.2c3.3,3.7,3,11.5,2.9,17.4
	C2063.2,1531.8,1991.7,1601.6,1908,1601.5z"/>
<path d="M1334.1,602.3c2.7,0.3,11.3,0.1,19.2,2.4c19.9,5.9,28.6,22,23.6,41.5c-10.6,40.6-55.6,77.6-96.8,80.5
	c-22.5,1.6-40.4-5.2-51.6-25.2c-10.8-19.3-3.7-37.5,6.5-54.2C1252,619.5,1288,602.8,1334.1,602.3z M1319.4,657.9
	c-31.7,0-31.7,0-38,27.7C1296.5,674.6,1307.9,666.2,1319.4,657.9z"/>
<path d="M2510.9,603.5c22.3,1.4,47.5,8.3,68.5,26.4c16.3,14,26.3,31.3,26,53.3c-0.3,24.8-14.6,40.2-39.4,43.1
	c-45.7,5.3-98.3-31.7-109.2-76.8C2449.2,618,2466.4,602,2510.9,603.5z M2549.6,679.1c-2.9-23.2-2.9-23.2-30.8-19.7
	C2527.8,669.5,2532.7,682.7,2549.6,679.1z"/>
<path d="M2136.3,436.4c30.7,2.8,62.7,11.4,85.7,39.8c15.2,18.7,25.3,39.3,12.5,62.9c-13.2,24.2-36.9,24.5-60.2,21.5
	c-37.6-4.7-79.1-45.1-86.5-82.7C2082.8,452.9,2101.1,435.9,2136.3,436.4z M2149.2,492.1c8.9,24.4,10.3,25,39.5,18.5
	C2179.6,494.2,2166.2,491.3,2149.2,492.1z"/>
<path d="M1618.8,927c-41.5-0.8-61.1-26.1-54.1-58.7c7.5-35,48.6-75.1,83.8-81.7c30.3-5.7,52.5,14.2,48.6,44.8
	c-3.9,30.8-16.6,58.2-41.4,77.3C1643,918.5,1626.5,923.4,1618.8,927z M1646.6,842.9c-19.4,6.4-29.6,15.2-32.7,36.6
	C1631.4,870.9,1644.4,864.5,1646.6,842.9z"/>
<path d="M1677.9,562.7c-39.1,0.4-59.1-27.8-46.3-65c14.3-41.5,73.2-71.3,114.8-58.1c22.6,7.2,31.5,23.4,26.1,47.7
	C1763.7,527.2,1719.7,562.3,1677.9,562.7z M1678.5,512.2c2,2.5,4,5,5.9,7.4c11.6-7.8,23.3-15.6,34.9-23.4
	C1698.6,489.4,1685.8,495.9,1678.5,512.2z"/>
<path d="M2145.2,789.9c46.9,1.5,96.2,73.1,80.5,117c-9.8,27.5-43.2,38.1-72.5,23.2c-32.8-16.7-57.2-77.6-45.3-112.7
	C2114.3,798.7,2126.9,789.3,2145.2,789.9z M2156.6,847.7c4.5,23.3,4.5,23.3,19.1,35.2C2183.3,865.6,2176.1,856.5,2156.6,847.7z"/>
<path d="M1965.1,686.7c-6,15.2-9,32.9-18.7,45.2c-21.9,27.9-67.4,19.3-83.8-14c-15.6-31.5-6.3-87,18.6-111.8
	c15.3-15.2,37-14.6,54.5,2.6C1957.3,629.6,1961.1,656.9,1965.1,686.7z M1902.8,697.6c22.5-12.2,22.5-12.2,11.5-37.1
	C1899.2,668,1901,680.5,1902.8,697.6z"/>
<path d="M2460.4,1561.2c14.7-39.6,30.2-74.6,56.4-103.2c4.6-5,18.1-5.9,25.7-3.3c11.1,3.8,10.5,15,5.6,24.3
	c-16.2,30.6-32.6,61.1-49.4,91.4c-6.2,11.1-17.4,14.1-27.7,8.3C2465.3,1575.6,2463.2,1566.2,2460.4,1561.2z"/>
<path d="M1332.4,1468.1c-3.7,10.3-5.9,19.9-10.4,28.2c-13.7,25.5-28.3,50.4-42.4,75.6c-6.2,11-15.2,15.5-27.2,11
	c-13.5-5.1-14.3-17.3-9.2-27.1c16.8-31.9,34.5-63.5,53.8-93.8c3.6-5.6,16.5-6.6,25.2-6.9C1325.4,1455,1328.8,1463.3,1332.4,1468.1z"
	/>
<path d="M2467,1472c-2.6,8.7-3.4,14.9-6.1,20.1c-13.7,25.3-27.5,50.5-42.1,75.3c-5.8,9.8-15,16.4-27.2,10.5
	c-12.9-6.1-12.3-17.5-7.1-27.7c14.6-28.8,29.5-57.5,46-85.3c3.2-5.4,14.7-9.5,21.2-8.2C2457.8,1458,2462.4,1467.1,2467,1472z"/>
<path d="M1251.1,1470.1c-2.9,7.9-4.2,13.9-7.1,18.9c-14.7,25.9-29,52.2-45.3,77.1c-4,6.1-16,11.8-22.7,10.3
	c-11.6-2.6-17.2-14.3-11.1-25.6c16.4-30.4,33.5-60.5,52-89.6c3-4.7,15-6.1,22.1-4.8C1243.9,1457.3,1247.4,1465.6,1251.1,1470.1z"/>
<path d="M1347.8,1584.7c-20.9,0.7-30.6-13.3-22.2-28.8c14.2-26.2,30.3-51.4,45.8-76.9c2.4-4,5.8-9.1,9.7-10.2
	c7.5-2.1,18-4.8,22.8-1.3c4.5,3.4,5.4,14.9,4.1,22.1c-1.4,7.8-7,15-11.1,22.2c-11.3,19.7-22.2,39.6-34.3,58.8
	C1358.4,1577.1,1351.2,1581.6,1347.8,1584.7z"/>
<path d="M2566.2,1577.9c-14.2-0.9-24.6-13.5-18.5-26.1c15.3-31.2,33.1-61.2,51.2-90.9c2.6-4.2,13.7-6.9,18.6-4.8
	c4.8,2.1,11,13,9.3,16.6c-16.5,34.5-34.3,68.4-52.3,102.1C2573.2,1577.1,2568.1,1577.2,2566.2,1577.9z"/>
</svg>
