<?xml version="1.0" encoding="utf-8"?>
<!-- Generator: Adobe Illustrator 24.3.0, SVG Export Plug-In . SVG Version: 6.00 Build 0)  -->
<svg version="1.1" id="Layer_1" xmlns="http://www.w3.org/2000/svg" xmlns:xlink="http://www.w3.org/1999/xlink" x="0px" y="0px"
	 viewBox="0 0 4000 4000" style="enable-background:new 0 0 4000 4000;" xml:space="preserve">
<path d="M2383.9,462.5c12.9,6.6,23.9,13.1,35.5,18.1c136.5,58.8,249.7,148.3,342.6,263.3c62.4,77.2,108.8,164.1,144.8,256.6
	c23.6,60.5,42,122.5,52.9,186.5c4.1,24.2,13.7,42.4,35.3,55.4c29.1,17.5,43.2,46.5,50.9,78.1c26.6,109.3,52.1,218.9,78.7,328.3
	c5.3,21.8-0.6,37.1-19.9,47.4c-30.7,16.3-60.9,34-92.8,47.8c-20.9,9-30.6,21.3-33.9,43.6c-23.5,162.6-47.8,325.1-72.3,487.6
	c-25.2,166.4-51.3,332.6-76.5,499c-22.7,150.6-44.5,301.4-67,452.1c-19.6,131-40,261.9-58.9,392.9c-3.6,25.2-14.7,43.8-36.3,54.6
	c-48.8,24.5-97.5,50-148.1,70.4c-85.3,34.4-175.5,51.4-266.1,65.6c-185,29-370.9,33.3-557.2,17c-133.2-11.6-264.8-32.4-391.9-76.1
	c-60.6-20.8-117.6-48.7-171.3-83.8c-20.6-13.4-32.2-30.1-35.6-55.1c-20.5-153-41.8-305.9-63.6-458.7
	c-14.4-100.5-30.3-200.9-45.3-301.3c-25-168.4-49.5-336.9-74.8-505.3c-28.9-192-58.6-383.9-87.2-576c-2.2-14.4-9.5-19.4-21.2-25
	c-35-16.6-70-33.4-103.5-52.8c-26.7-15.5-26.4-21.5-18.6-51.8c22.4-86.7,44.3-173.5,65.9-260.4c3.1-12.5,4.2-25.5,5.2-38.4
	c3.5-45.9,24.4-82.2,62.8-106.6c21.3-13.5,29.5-30.3,34.2-55c46.3-244.6,164.9-446.6,362-600.1c109.5-85.3,234.9-137.4,370.1-166.4
	c180-38.6,361.4-44.9,543.8-22.6c33.5,4.1,30.8-3.7,37.4-24.4c5.4-17,9-34.7,14.6-51.6c3.7-11,10.2-21.1,14.5-32
	c5.3-13.7,11.7-27.4,13.7-41.7c3-21.2,10.5-36,33.6-38.8c12.3-1.5,18-10.1,22.9-20.8c17.5-37.9,50.8-57.4,91-52.5
	c21,2.6,39.7-1.6,57-12.5c16.7-10.6,32.5-10.5,51-3.7c14.5,5.3,31,6.8,46.6,6.8c202.3,0.6,404.6,0.7,606.8,0.9
	c20.9,0,41.9,0.6,62.8,0.1c23.5-0.6,40.6,9.9,51.1,30c31.2,59.8,30.3,120.4,2,180.9c-7.2,15.4-19.3,24.6-38,23.7
	c-18.9-1-37.8-0.3-56.8-0.3c-201.3-0.3-402.6-0.4-603.9-1.1C2463.6,354.3,2424.5,376.2,2383.9,462.5z M1027.6,2299.7
	c1.1,14.9,1.2,23.7,2.5,32.4c11.1,76.9,22.5,153.7,33.5,230.6c31.8,220.8,63.6,441.6,95,662.5c2.6,18.5,10.3,30.5,27.3,39.2
	c65.1,33.2,133.3,57.7,204.7,73.2c136.7,29.7,275,43.6,414.7,49.7c176.9,7.8,352.4-2.4,526.8-31.7c95.5-16.1,188.2-41.7,276.4-83.2
	c24.7-11.7,35.7-27.7,39.2-53.8c9.2-69,20.3-137.8,30.6-206.8c19.2-129,38.3-257.9,57.7-386.9c14.4-95.5,29.4-190.9,43.9-286.3
	c1.4-9,1.3-18.2,2.1-30.9c-12.4,5.1-19.9,7.5-26.8,11.1c-57.9,30.4-120.4,47.8-183.6,61.5c-156,33.7-314.1,53.6-473.5,59.1
	c-273.3,9.3-545.8,2.3-815.1-52.4c-69.3-14.1-138-30.7-202.7-60.5C1064.2,2319,1048.7,2310.5,1027.6,2299.7z M3030.2,1410.4
	c-32.9,39.7-69.4,66.8-110.9,87.2c-62.8,30.9-128.5,53.6-196,71.6c-104,27.6-209.9,45.3-316.4,60.5
	c-135.3,19.3-271.3,29.4-407.6,33.3c-220.6,6.3-440-10.2-658.1-42.8c-118.2-17.6-235.2-41.8-348.3-81.9
	c-60.2-21.3-119.4-45-170.9-84c-14.8-11.2-27.7-24.9-45.5-41.1c-21.1,84.9-41.4,166.3-61.8,248.3c16.9,9.6,30.5,17.8,44.4,25.2
	c69.8,37,144,62.2,219.1,86.1c118,37.5,238.6,62.6,360.6,82.3c124,20,248.8,33.3,374.1,39.3c90.5,4.4,181.2,6.7,271.8,5.5
	c146.5-2,291.9-18.6,437.2-37.4c170.5-22.1,336.3-62.8,498-120.1c49.5-17.6,96.9-41.4,144.3-64.3c29.4-14.2,28.4-16.1,20.5-46.3
	c-6.8-26-12.3-52.3-18.7-78.4C3054.8,1507.5,3043.1,1461.4,3030.2,1410.4z M1907.4,1087.1c-9.9-0.8-16.8-2-23.5-1.7
	c-111.4,5.2-222.9,8.8-334.2,16.3c-135.1,9.1-269.5,25.6-401,60c-61.9,16.2-122.4,36-175.7,72.7c-43.7,30-45.5,69.7-4,102.9
	c19.3,15.4,41.1,28.3,63.2,39.3c66.4,33.2,138.2,50.8,210.4,65.6c189.9,39,382.4,53.8,575.8,58.8c148.5,3.8,296.7-2.8,444.7-16.3
	c129-11.7,257.3-28,382.8-61.3c62.6-16.6,124.8-35.2,179.8-70.9c15.6-10.1,30.2-23,42.2-37.2c13.8-16.3,13.4-32.7-0.4-49
	c-10.1-12-22.6-22.5-35.8-31.1c-49.7-32.7-105.4-51.6-162.1-67.2c-150.4-41.4-304.3-60.5-459.4-71.9c-51.7-3.8-52-2.9-68.1,47.5
	c-4,12.6-5.9,26-8.7,39.1c19.3,6,35.5,8.8,49.4,15.9c20.1,10.3,40.9,21.2,57.3,36.4c24.3,22.6,24.7,49.5,2.8,74.4
	c-10.8,12.4-25.4,22.4-40.1,30.2c-15.7,8.3-33.2,13.4-50.3,18.4c-104.1,30.2-210.6,29.5-317.2,21.3c-42.5-3.3-85-11.4-126.3-22
	c-26.4-6.8-53-18.7-75.3-34.3c-35.5-24.8-36.8-66.4-4.1-93.9c17.1-14.3,38.3-25.2,59.4-32.8c49.9-18.1,102-26.3,155.1-28.3
	c12.6-0.5,25.3-0.1,37.7-0.1C1892.9,1139.7,1901.7,1114.9,1907.4,1087.1z M2633.2,3301.6c-14.4,5.8-22.5,9-30.6,12.2
	c-30.5,12-60.6,25.5-91.7,35.6c-134.4,43.5-273.4,62.1-413.7,70.9c-206.4,13-412.2,5.8-616.3-29c-99.1-16.9-197.5-38.3-288.4-84.1
	c-5-2.5-10.9-3.5-18.3-5.8c-0.4,7.7-1.6,13.5-0.9,19c10.4,79,21.7,157.8,31.4,236.8c2.4,19,10.4,31.8,27.4,39
	c42.1,17.9,83.5,37.5,126.5,52.7c107.8,38,220.2,54.7,333.4,63.9c207.2,16.8,413.8,10.7,618.7-28.3c83.4-15.9,163.8-41.2,242-74.1
	c31-13.1,45.4-32.5,48.7-66.6c5.9-62.3,16.7-124.2,25.3-186.3C2628.9,3341,2630.5,3324.4,2633.2,3301.6z M2047.5,693.9
	c-16.2,0-26.9-0.4-37.6,0.1c-89.8,3.5-179.2,2-267.6-16.6c-89.6-18.8-175.9-44.6-242-113.6c-10.1-10.5-21.1-7.9-32.9-2.7
	c-77.8,34.3-151.6,75.1-217.3,129.7c-148.6,123.6-240.4,281.8-285.5,468.4c-2.5,10.3-3.4,21.1-5.8,36.2c11.8-4.8,20.1-7.2,27.3-11.3
	c42.7-24.3,88.6-40.2,135.9-53.1c158.3-43.2,320.7-59.6,483.6-71c97.3-6.8,194.9-8.2,292.4-12.2c7.8-0.3,15.7-1.3,25.2-2.1
	C1964.4,929.4,2005.3,813.6,2047.5,693.9z M1807.3,2075.1c-17.3,0-30.1-0.7-42.8,0.1c-98.3,6.6-196.7,11.7-294.8,20.9
	c-101.2,9.5-201,27.9-298.4,57.7c-41.1,12.5-81.2,27.5-115.6,54.2c-37.8,29.3-36.5,46.3,5.8,69.6c45.6,25.1,94.3,42.4,144.5,55.8
	c143,38.2,289.3,55,436.4,64.7c168.1,11.1,336.3,11.7,504.5,1.3c129.3-8,257.7-22.3,384.7-48.4c67.3-13.8,134.1-29.5,196.7-59
	c15.2-7.1,30.2-15.5,43.2-26c15.4-12.5,16.4-24.2,2.7-38.3c-12.3-12.6-26.4-25.3-42.2-32.3c-39.9-17.7-80.4-34.7-122.1-47.4
	c-90.7-27.5-184.2-42.8-278.3-52.6c-80.1-8.4-160.6-13.3-241-19.4c-10.5-0.8-21.1,0.7-31.6,1.1c-3.4,12.8-6.1,22.3-8.4,32
	c-14,59.1-28.2,118.1-41.8,177.3c-5.3,23.4-14.8,43.5-36.8,55.2c-55.4,29.3-113.8,36.2-173.4,17.7c-45.2-14-53.3-33.4-41.3-79.2
	c15.2-57.7,29.6-115.6,44.2-173.5C1803.9,2098.1,1804.8,2089.2,1807.3,2075.1z M2139,434.4c-11.4-2.6-20.9-6-30.6-6.8
	c-56.6-4.7-113.2-11.9-169.8-12.2c-61.6-0.3-123.4,4.5-184.8,9.8c-103.5,9-205.5,26.9-302.5,65.7c-264.9,106-441.7,296.1-532,566
	c-16.7,49.8-26.1,102.1-36.7,153.7c-4.8,23.1-14.1,40.7-34.5,52.9c-11.1,6.6-21.5,14.5-31.6,22.6c-27.6,22-35.4,54.3-17.8,85.1
	c9.2,16.1,21.3,32.2,36,43.1c27.8,20.7,57,40.5,88.1,55.6c71,34.5,146.9,55.8,223.3,74.9c186.4,46.8,376.8,65.3,567.9,75
	c149.2,7.6,298.7,7.8,448.1-2.9c155.1-11.2,309.3-29,461.4-61.8c89.6-19.3,177.8-43.8,261.5-82.2c42.9-19.7,82.3-45,113.1-81.4
	c27.4-32.4,24.8-72.7-6-101.6c-10.1-9.5-21.5-17.8-33.2-25.2c-19.1-12-30.4-28.1-31.4-51.1c-0.3-6.9-1.7-13.8-3-20.6
	c-33.6-173.8-104.4-329.4-222.5-462.8c-79.2-89.4-172.5-159-281.2-208.1c-16-7.2-32.9-12.6-52-19.9c-3.4,11.5-6,20.4-8.8,29.9
	c7.2,3.3,11.6,5.5,16,7.3c89.3,36.7,170,86.8,240.5,153.1c125.9,118.4,209,262.9,256.3,427.9c15.3,53.3,23.7,108.8,33,163.7
	c6.1,35.7-9.6,64.7-38.1,85.5c-16.8,12.2-35.1,22.8-53.8,31.9c-69.3,34.1-143.4,54.1-218.1,71.2c-190.1,43.4-383.5,59.6-577.9,64.7
	c-131.5,3.4-262.9-0.1-394.3-9.3c-121.3-8.5-242.2-19.5-361.5-44c-87.9-18-175.3-38.3-256.5-77.9c-23.1-11.3-45.3-25.2-65.7-40.9
	c-28.1-21.6-40.5-51.8-33.9-87.3c10.4-56.8,18.3-114.4,34.1-169.7c42.3-148.1,116.2-279.2,224.2-389.6
	c86.8-88.8,189.1-154.8,305.8-198.2c23.1-8.6,38.4-3.7,54.8,14.7c16.9,19,36.7,37,58.4,50c41.1,24.7,86.6,39.6,133.5,50.4
	c105.9,24.4,212.9,28.3,320.8,19.2c30.3-2.6,38.8-14.2,34-47.3c-94.3,14.9-188.3,13.7-282.4-2.6c-49.4-8.6-97.6-20.8-141.5-45.3
	c-13.3-7.4-26-18.7-34.6-31.2c-11.3-16.7-5.7-32.6,12.1-42.7c9.4-5.3,20.1-8.6,30.6-11.3c110.2-27.4,222.3-33.4,335.2-26.7
	c40.7,2.4,81.2,7.9,121.8,12.1C2132.4,461.9,2134.2,460.6,2139,434.4z M2943.5,1778c-41,3.7-43.8,6.3-48.9,39.6
	c-4.4,28.5-9.3,57-13.5,85.6c-18.4,122.1-36.4,244.2-54.9,366.2c-21.2,139.7-43,279.4-64.2,419.1c-19.7,129.9-38.9,259.9-58.3,389.8
	c-15,100.4-30.1,200.8-44.6,301.3c-9.7,67-19.1,134.1-27.2,201.3c-2.3,19-10.5,31.5-26.5,40.2c-8.7,4.8-17.4,9.7-26.3,14.2
	c-84.3,42.5-174.7,66.6-266.6,84.9c-93.8,18.7-188.7,29.8-284.4,33.6c-122.6,4.9-245.2,4.5-367.1-9.1c-78-8.7-155.7-22.3-232.4-38.7
	c-78.1-16.6-152.7-44.4-222.2-85.3c-22.6-13.3-33.1-30.2-36.5-56.8c-19.4-149.1-40.2-298-61.6-446.8
	c-20.2-139.9-42-279.6-62.6-419.4c-19.6-132.9-37.9-266.1-57.9-399c-24.3-161.5-49.9-322.7-74.7-484.1c-5-32.4-8.6-35.5-47-35.1
	c0.8,9.8,0.9,19.6,2.4,29.2c9.3,62,19.2,124,28.4,186.1c28.5,191.1,56.9,382.2,85.1,573.3c35.4,239.4,70.8,478.8,105.8,718.2
	c14.8,101.5,29.2,203.1,42.9,304.7c3.5,25.7,14.4,43.6,37.1,57.2c67.1,40.5,139.1,68.9,214.4,88.9c158.7,42.1,320.4,60.3,484.6,62
	c162.9,1.7,324.3-9.7,483.8-43.8c94.9-20.3,185.7-51.4,272-96.5c30.4-15.9,45.6-37.3,50.1-71.3c11.5-87.8,25.6-175.3,38.8-262.9
	c18.9-126,37.9-252,56.9-377.9c16.9-112.2,34-224.3,51.1-336.5c18.5-121,37.2-242,55.6-363c19.7-129.9,39.2-259.8,58.6-389.7
	C2937.3,1832.3,2939.9,1806.8,2943.5,1778z M2854.5,1197.2c-5.8-23-10.4-42.1-15.5-61c-45.9-169.9-133.7-314.1-265.6-430.8
	c-56.2-49.8-118.2-91.2-188.5-118.9c-30.5-12-40.3-7.4-54.1,21.8c-2.1,4.5-3.9,9.1-5.6,13.8c-48,136.1-95.9,272.1-143.7,408.3
	c-2.5,7-3.3,14.6-5.3,23.7c11.1,1.8,19.7,4,28.4,4.6c99.4,6.9,198.1,18.7,296,36.9c116.5,21.6,232.7,44.4,339.4,99.5
	C2842.7,1196.4,2846,1196,2854.5,1197.2z M948.7,1801.5c20.2,135.7,40.5,263.6,61.6,393.5c7.8-3.5,11.9-4.4,14.8-6.8
	c49.4-41.3,108.4-62.1,169.3-78.3c167.3-44.6,338.4-61.2,510.6-70c29.8-1.5,59.8-0.2,89.6-2c8.7-0.5,22.5-5.4,24.5-11.4
	c9.5-28.7,19-57.8,22-89.8C1538.4,1927.7,1243.2,1890.3,948.7,1801.5z M2067.9,2035.6c12.9,1.9,19.6,3.3,26.4,3.8
	c60.5,4.4,121.2,7.2,181.6,13.3c107,10.9,213.2,26.7,317.5,53.6c70.5,18.2,140.3,38.2,197.9,86.2c1.1,0.9,3.6,0.1,8.6,0.1
	c16.6-128.7,43.2-256.3,57.8-388.4c-14.2,3.8-23.9,5.9-33.3,9c-156.8,51-318.9,76.1-481.9,95.7c-76,9.1-152.4,15.6-228.6,23.2
	c-8.9,0.9-18.6,0.3-21.6,11.6C2084.5,1973.2,2076.7,2002.7,2067.9,2035.6z M2283.7,634.1c-1.7-1.5-3.3-3-5-4.4
	c-13.6,5.8-26.9,12.9-41,17.3c-40.7,12.8-81.3,26.5-122.8,35.8c-21.3,4.8-32.4,13.4-39.4,34c-59.9,176.1-120.7,351.8-181.2,527.7
	c-10.1,29.3-5.6,39.8,25.2,41.1c33.5,1.4,67.3-2,100.7-5.6c30.8-3.3,47.2-22,57.4-52.1c54.1-160.1,110.1-319.6,165.6-479.2
	C2256.6,710.4,2270.2,672.3,2283.7,634.1z M2503.6,319c217.6,0,432.8,0,651.4,0c-18.4-53.9-6.3-105.6,1.3-159.8
	c-229.1,0-454.6,0-684.1,0C2482.6,211.9,2492.6,263.2,2503.6,319z M1881.6,1938c-2.9,5.1-4.4,6.7-4.8,8.6
	c-29.3,115.7-58.5,231.4-87.9,347c-3.9,15.5,1.9,25.6,16.3,30.2c12.2,3.9,24.9,7.7,37.5,8.5c34.2,2.2,67-4.7,99.4-16.1
	c18.9-6.7,28.9-17.7,33.5-37.4c25.4-107.4,51.8-214.5,77.6-321.8c1.5-6.1,0.2-12.8,0.2-19C1995.1,1938,1938.7,1938,1881.6,1938z
	 M2112,645.6c5.6,0,8.6,0.6,11.3-0.1c60.1-14.7,118.2-34.8,172.3-65c9.1-5.1,16.2-17.1,20.2-27.5c10.7-27.8,19.1-56.4,28.6-84.6
	c7.6-22.5,7.3-23.3-11.9-36.3c-27.1-18.5-54.1-37.1-80.8-56.1c-12.7-9-24.5-19.2-36.9-29C2194.1,380.2,2119.4,597.2,2112,645.6z
	 M1867.8,1207.4c-7.4-1.4-11.3-3-14.9-2.6c-39.4,5.2-79.2,8.8-118,16.8c-25,5.1-49.6,14.8-72.7,26c-27.7,13.4-27.3,34.8-1.2,51.8
	c4.1,2.7,8.6,5.1,13.3,6.7c22.5,7.8,44.6,17.6,67.7,22.5c118.1,25.1,237,26.6,355.7,4.6c36-6.7,72.6-13.8,104.3-34
	c28.2-18,28.5-33.8,0.5-51.2c-24.5-15.2-51.9-23.8-83.1-30.7c-3.8,12.3-7.5,23.3-10.6,34.4c-7.6,28-24.1,47.7-52.3,56.2
	c-20.9,6.3-41.6,14.4-63,17.7c-43,6.7-85.4,5.9-123.4-20.5c-25-17.4-27.8-26.2-17.2-55.3C1857.8,1236.4,1862.4,1222.6,1867.8,1207.4
	z M1654.4,523.5c36,13,64.9,26.5,95.2,33.9c104.9,25.5,211.2,24.3,317.5,9.8c35.2-4.8,50.1-28.1,44.9-65.7
	C2010,472.4,1717.1,485.2,1654.4,523.5z M2370.7,404.4c7.3-12-0.8-21-7.2-29.2c-34.4-43.6-69.4-86.7-104.3-129.9
	c-0.9-1.2-3.5-1-9.2-2.4c-8.9,19.3-18.2,39.2-27,58.2C2318.5,387.9,2342,404.2,2370.7,404.4z M2411.5,355
	c-7.4-35.6-22.4-65.4-36.2-95.4c-14.1-30.7-19.3-65.4-40.3-96.8c-10.7,12.1-18.5,20.9-26.2,29.6c-8.3,9.4-16.6,18.7-24.2,27.4
	C2321.1,275.8,2385.6,345.9,2411.5,355z M2380.2,170.3c0.7,7.4,0.1,11.7,1.5,15.1c17.3,41.3,34.9,82.4,52.5,123.5
	c1.5,3.6,3.4,8.3,6.5,9.8c5.7,2.8,12.9,5.8,18.6,4.6c3.4-0.7,6.4-8.9,7.5-14.1c0.9-4.6-0.9-9.8-1.9-14.7
	c-8.5-40.9-17-81.8-25.9-122.6c-1.4-6.3-4.6-12.2-7.8-20.6C2412.8,158.2,2396.4,164.3,2380.2,170.3z M3196.6,173.1
	c-18.7,35-18,113,1.2,139.4c22.6-17.1,18.4-42.2,19.4-64.8C3219.2,200.2,3215.8,189.9,3196.6,173.1z"/>
<path d="M2295.7,2752.9c-70.8,0.1-125.4-55.4-125.7-127.8c-0.3-74.6,51.6-130,122.3-130.3c72.8-0.3,130.2,50.8,132,129.1
	C2426,2696.2,2367.4,2752.8,2295.7,2752.9z M2374.5,2580.1c-0.6-22.1-19.4-40.3-40.6-39.1c-21.2,1.2-35.6,19.7-34.5,44.4
	c0.9,19.3,15.3,33.1,34.9,33.1C2358.6,2618.6,2375.1,2602.8,2374.5,2580.1z"/>
<path d="M1499.4,2751.9c-72.2-1.3-126-57-124.5-129c1.5-70.9,60.8-129,130.9-128.4c69.1,0.7,127.3,59.8,126.6,128.8
	C1631.6,2696.4,1573,2753.2,1499.4,2751.9z M1543.7,2541.7c-21.9-0.3-39.4,17-39.9,39.6c-0.5,21.9,12.9,37.1,33.3,37.8
	c23.6,0.8,41.4-15,41.7-36.9C1579.1,2560.3,1563.3,2542,1543.7,2541.7z"/>
<path d="M2378.9,2764.7c35.1,3,68.4,6.2,98,25.7c18.9,12.5,35.1,27.4,32.7,52.6c-2.4,24.9-16.4,43.4-39.3,51.9
	c-62.7,23.4-126.1,25.7-188.5-1.4c-26.1-11.3-37.7-31.4-35.1-56.4c2.7-26.7,19.4-44.7,42.9-52.3
	C2318.6,2775.4,2349.1,2771.2,2378.9,2764.7z M2278,2838c8.3,21.8,23.2,26.6,37.3,30.4c43.1,11.5,86.4,11.4,129-2.9
	c13.1-4.4,29.2-9.7,28.8-25.9c-0.4-16.1-16.8-20.9-29.8-25.1c-46-15.1-92-13.6-136.9,3.9C2296.1,2822.3,2287.7,2831.1,2278,2838z"/>
<path d="M1434.5,2910.7c-30.4,1.3-65.6-2.5-98.3-19.6c-44.5-23.2-48.6-68.3-7.5-97c14.2-9.9,31.6-17.8,48.5-21
	c39.2-7.4,79.1-8.3,118,3c13.1,3.8,25.7,10.4,37.5,17.4c17.6,10.5,32.7,24,30.2,47.2c-2.6,24.6-15.4,43.9-38.6,52.3
	c-20.3,7.3-42.1,10.5-63.3,15.1C1454.3,2909.5,1447.2,2909.5,1434.5,2910.7z M1528.6,2841.5c-4.7-15.7-17.2-22.2-30.2-26.7
	c-44.5-15.4-89.4-15.3-134.1-0.6c-6.4,2.1-12.5,6.2-17.7,10.6c-12.4,10.6-11.9,22.4,1.3,31.9c4.7,3.4,10.4,6.1,16.1,7.4
	c43,10.2,86.3,11.7,129.5,1.6C1507.9,2862.4,1521.9,2857,1528.6,2841.5z"/>
<path d="M1902.3,2860.4c-71.6-0.6-129.5-58.2-126.9-126.8c0.2-6.6,1.4-14.3,5.1-19.4c7-9.5,21.1-6.2,25.4,5.9
	c3.3,9.3,4.5,19.3,6.6,29c9.4,44.2,42,72.6,84.9,73.8c47.4,1.3,82.3-24.6,94.1-70.4c2.5-9.6,3.9-19.5,5.5-29.2
	c1.7-9.9,5.5-17.2,17.4-15.5c11.6,1.7,18.2,8.2,17,20.2c-3.1,31-9.7,61-30.1,85.9C1975.6,2845,1942.5,2860.4,1902.3,2860.4z"/>
</svg>
