<?xml version="1.0" encoding="utf-8"?>
<!-- Generator: Adobe Illustrator 24.3.0, SVG Export Plug-In . SVG Version: 6.00 Build 0)  -->
<svg version="1.1" id="Layer_1" xmlns="http://www.w3.org/2000/svg" xmlns:xlink="http://www.w3.org/1999/xlink" x="0px" y="0px"
	 viewBox="0 0 4000 4000" style="enable-background:new 0 0 4000 4000;" xml:space="preserve">
<path d="M2147.3,920.6c6.2-5.2,13.2-9.4,18.1-15.3c53.2-63,101-129.3,127.9-208.6c12.5-36.8,20.2-74.4,20.1-113.1
	c-0.1-37.5-1.6-75-2.5-112.4c-1.5-63.4,10.7-123.2,49.4-175c52.4-70.3,125.5-93.5,209.3-84.4c92.7,10,154.1,61.3,183.5,150.2
	c6.3,19,12.9,38,19.4,57.1c27.7-6.2,53-13.1,78.8-17.2C2978.8,381,3086.6,466,3089.9,594c3,114-42.1,204.9-145.6,260.9
	c-26.7,14.4-54.3,27.4-81.9,39.9c-72.2,32.8-126.3,83.3-157.9,156.8c-13.2,30.7-27.2,61.1-40.5,91.7c-3.1,7.2-5,15-8.3,24.7
	c9,2.9,16.4,5.3,23.8,7.6c28.6,9,46.9,30.2,46.7,60.3c-0.2,24.1-4.6,48.2-8.2,72.2c-1.6,10.9-6,21.4-9,32.1
	c-17,61.3-20.3,63.7,11.8,113.5c26.5,41,35.3,90.2,40.5,139c5.3,49.3,12.3,98.5,15.9,148c4.9,67.7-3.7,133.4-36.8,194.2
	c-3.4,6.2-6,12.9-9.9,18.8c-13,19.9-14.1,39.8-8.8,63.5c25.4,113.2,9.1,221.4-44.5,324c-18.5,35.4-45.2,64.8-75.4,90.7
	c-13.8,11.8-20.5,24.5-15.6,42.4c0.8,2.9,0.7,6,1.2,9c11.8,64-16,108.1-70.6,137.5c-15.3,8.2-20.2,18-23.4,34.8
	c-5.4,29.5-16.3,58.1-25.8,86.7c-3.4,10.1-9.7,19.3-17,33.1c15.9-0.9,26.7-1.1,37.5-2.3c136.8-14.3,268.7,6.2,395.5,58.2
	c24.9,10.2,48.3,25.7,69.7,42.3c13,10.1,21.7,26.3,30.4,40.9c7.8,13.1,16.1,23,32.8,22.5c72.3-2.3,120.8,36.5,154.9,94.8
	c26.9,46.1,65,79.7,107.3,109.8c65.8,46.7,124.6,100.6,170.8,167.1c27.9,40.1,52,82.3,62.3,130.8c11.5,54.4-8,94.1-60,114.4
	c-27.1,10.6-56.1,19.1-84.9,21.6c-77.6,6.9-155.6,12.8-233.4,14c-78.3,1.2-154.8-16.5-231.1-33c-62.3-13.5-124.4-28.2-187-40.3
	c-73.3-14.2-147.2-12.2-221-3.4c-111.6,13.3-223.4,25.3-334.7,40.9c-92.2,12.9-183.8,29.8-275.6,45.2
	c-87,14.6-174.1,28.8-262.6,26.5c-31.1-0.8-62-8-93-11.5c-11.7-1.3-25.5-4-35.3,0.5c-59.1,27.5-120.3,24-182.1,15.8
	c-56.6-7.5-110.3-24.9-162.4-48.3c-27.6-12.4-56.6-21.9-85.5-30.9c-86.8-26.9-167.4-66.8-243.1-116.3c-36.7-24-63.2-56.9-66.8-103.5
	c-0.3-3.8-2.7-7.4-4.4-11.7c-5.1-1.4-9.8-2.9-14.7-4c-68.6-15.7-108.1-60.3-124.3-126.9c-4.3-17.6-6.4-36-7.2-54.1
	c-0.9-19.2-7.4-34.7-19.5-49.6c-77.5-95.7-123.6-204.1-126.8-328.3c-0.8-32.2,4.2-64.6,5.3-96.9c0.8-23,2.9-46.8-1.5-69.1
	c-12.1-61.1-7.1-121.4,6-181c18.2-83.2,42-164.6,81.7-240.9c12.4-23.9,18.3-51.4,25.3-77.8c45.3-168.4,138.1-304.9,274.7-412.4
	c32.1-25.3,66.3-47.1,105.9-58.1c21.3-5.9,32-18.5,37.4-39c11.8-44.2,27.6-86.9,52.3-125.8c24.4-38.4,54.7-70.4,98.9-86.2
	c14.4-5.2,23.4-15.6,29.4-29c18-40.2,49-67.3,88.8-83c38.4-15.2,77.6-29.5,117.7-39.1c23.8-5.7,50.1-2.9,75.1-1.5
	c16.3,0.9,30,1,39.3-15c31.7-54.5,84.9-79.5,140.7-99.6c25.5-9.2,52.6-15.1,79.5-19.3c30.7-4.9,54.4-18.2,74.7-41.9
	c31-36.1,63.3-71.3,97.2-104.7c21.5-21.2,45.2-41.1,70.8-56.8c54-33.2,117.7-28.9,161.6,8.4C2128,897.1,2136.4,908.6,2147.3,920.6z
	 M3155.4,3553.5c59.3-4.3,125.2-7.4,190.6-14.4c30.9-3.3,61.8-11.6,91.1-22c35.2-12.5,45.8-32.8,36.8-69.1c-6-24.2-16.1-48-28-70.1
	c-42.7-79.4-106.6-139.8-178.3-192.4c-52.7-38.6-100.7-80.8-132.6-139.7c-26.4-48.7-69.6-72.5-125.5-70.1c-26.7,1.2-44-8.8-54.3-34
	c-12.4-30.4-35.6-52.1-65.2-65c-34.2-14.9-68.9-30-104.9-39.6c-117.9-31.5-237.2-42.5-357.4-12.6c-14.2,3.5-28,11.5-39.9,20.2
	c-47.5,34.6-94,70.4-141.2,105.3c-7.2,5.4-15.4,10.8-24,12.5c-6.6,1.4-16.5-0.8-21.2-5.3c-7.8-7.4-4.5-17.1,3.3-23.9
	c9.2-7.9,19.1-15,28.6-22.5c45.9-36.7,93.4-71.5,137.2-110.6c49.6-44.3,84.7-98.1,87.5-167.7c0.5-13.3,7-22.8,17.8-30.1
	c13.4-9.1,27-17.9,39.8-27.8c39.9-30.9,47.1-47.3,30.3-93.7c-11.8-32.4-4.6-54.5,21.7-73.6c9-6.5,17.1-14.3,25.3-21.8
	c32.9-29.9,57.1-66,72.5-107.4c32.2-86.7,41.7-175.3,14.1-265.1c-7.9-25.8-4.4-46.7,11.1-68.2c36.1-50.3,53.6-107.4,48.9-168.9
	c-5.4-70.6-13.5-141-23.5-211.1c-6.6-46.2-20.1-91-51.5-128c-13.6-16-15-34.9-8.9-54.5c8.7-28,18.2-55.9,26-84.1
	c4.5-16.5,8.8-33.7,8.8-50.5c-0.1-32-31.4-47.3-58.4-29.8c-5.9,3.8-10.7,9.2-15.8,14.1c-9.2,8.8-16.2,25.2-31.2,19.4
	c-17.1-6.6-9.9-24.4-9.7-37.8c0.9-59.9-45.7-97-102.8-79.5c-21,6.4-40.6,17.8-60.4,27.9c-12.6,6.4-23.9,15.5-36.5,21.7
	c-21.1,10.4-30.1,6.1-34.2-16.6c-2.6-14.9-1.4-30.5-4.2-45.3c-5.4-27.7-9.4-56.2-19.6-82.2c-17.1-43.7-60.2-67.3-107.2-63.6
	c-13.1,1-26.2,3.2-39.1,5.4c-13.6,2.3-31.6,11.7-39.6,6.2c-10.4-7.1-13.3-25.7-18.6-39.7c-11.7-30.9-33.6-47.7-66.3-48.8
	c-26.9-0.9-52.8,3.6-74.9,20c-17.8,13.3-35.8,26.7-51.5,42.4c-40.9,40.8-81,82.4-120.4,124.6c-18.3,19.7-39.5,30.5-65.9,33.3
	c-46.9,4.8-90.6,20.3-132.8,41c-33.6,16.5-63,37.8-80.6,71.3c-14.3,27.3-34.6,33.5-62.8,26.5c-40.8-10.2-80.5-4.5-119,11
	c-18.8,7.6-37.1,16.4-56,23.6c-37.7,14.4-66.6,37.7-81.3,76.5c-7.7,20.3-23.2,31.8-43.8,38.7c-25.5,8.6-45.9,25.2-63,46
	c-24.9,30.2-40.7,65.1-53.4,101.6c-7.3,21-15,41.9-23.3,62.6c-6.8,16.8-19.2,28.6-36.6,34.2c-52.2,16.7-94.5,48.2-136,83.6
	c-117,99.7-196.9,221.8-236,370.7c-7.2,27.3-13.9,55.7-26.6,80.5c-34.1,66.4-56.6,136.6-72.7,208.9c-15.6,69.7-23.5,139.7-3.4,210.5
	c3.6,12.8,0,27.9-1.5,41.8c-2.7,25.1-8.7,50.1-9,75.2c-1.6,127.5,37.3,241.3,119.8,339.1c15.9,18.9,24.6,38.7,24.5,63.3
	c-0.2,29.7,4.9,58.8,18.6,85.4c19.7,38.2,48.5,64,94.2,66.6c29.7,1.7,33.9,4.8,37.1,33.2c4.7,41.7,25.9,72,59.7,94.1
	c58.6,38.3,119.6,72,186.3,94.9c51.7,17.7,102.5,38,153.7,57c65.2,24.2,132.4,37.9,202,37.1c29.5-0.4,59.1-4.2,84.6-20.6
	c15.2-9.7,29.1-9,46-5.2c29.5,6.5,59.8,12.3,89.9,13.3c85.3,2.7,169.9-5.9,254-20c105.8-17.8,211.5-36.5,317.6-52.2
	c91.1-13.5,182.7-24,274.2-34.9c70.6-8.4,141.7-14.4,212.2-3.9c67,10,133.6,23.3,199.6,38.6
	C2962.2,3531.1,3054.5,3548.7,3155.4,3553.5z M2610.9,1170c6.1-13.7,10.6-23.6,15-33.4c18.5-41.6,35.1-84.1,56-124.4
	c36-69.6,90.3-121.1,162.1-153.9c28.5-13,57.3-25.7,84.7-40.8c88-48.5,131.7-132.5,120.8-229.7c-10.7-95.7-80.8-156.2-172.8-149.8
	c-31.8,2.2-61.5,10.4-91.1,21.4c-32.9,12.2-42.6,6.7-53.3-27.1c-8.5-27-16.1-54.4-26.4-80.7c-13.2-34-35.8-61.1-67.8-79.3
	c-96.4-55.1-240.7-16-276.4,107.2c-12.9,44.7-13.9,89.9-10.2,135.4c7.6,94.4-9.9,184.1-55.9,266.4c-26.5,47.5-60,91.1-90.3,136.5
	c-3.6,5.4-6.5,11.2-11.1,19c13.4,0.6,23.4,1.2,33.4,1.5c51.8,1.6,90.7,25,117,69.5c16.3,27.5,25.1,57.3,28,89
	c1,11.5,2.9,22.9,4.2,33.1c35.8-13,67.3-26.8,100.1-35.7c43.4-11.7,79.6,5.2,108.9,37.2C2594.6,1140.8,2600.2,1153.2,2610.9,1170z"
	/>
<path d="M994.7,2653.1c-62.2,0.5-116.7-55.6-116.6-120c0.1-62.4,51.1-111,116.5-110.8c62,0.2,112.1,51.5,112.7,115.5
	C1107.9,2600.8,1057.3,2652.6,994.7,2653.1z M958.5,2538.1c21.9,0.2,38.3-14.2,38.3-33.7c0-18.5-15.5-34.2-34.3-34.9
	c-21.3-0.7-37.5,13.9-37.8,34.1C924.4,2522.3,939.7,2537.9,958.5,2538.1z"/>
<path d="M1675.2,2590.5c28.7,16.4,53.9,30.7,78.9,45.2c18.4,10.6,36.9,21.1,54.8,32.4c19.6,12.5,23.6,22.9,15.5,36.3
	c-9,14.8-21.9,17.4-42.1,6.6c-21.4-11.4-42.1-24.2-63.4-36c-34.5-19.1-69.3-37.7-103.9-56.8c-8-4.4-16.3-8.7-23-14.6
	c-14.8-13.1-14.3-29.3,1.6-41.1c7.9-5.9,17.5-10.3,26.9-13.6c56.2-20,112.5-39.6,168.8-59.2c4.7-1.7,9.8-2.7,14.8-3.4
	c14.6-2,23,6.2,27.3,18.8c4.5,13-1.9,21.8-13.4,26.7c-15.8,6.7-32,12.5-48,18.5c-24.6,9.3-49.3,18.2-73.8,27.8
	C1690.3,2580.5,1685,2584.7,1675.2,2590.5z"/>
<path d="M2484.6,2069.9c-5.7,26.9-10,57.1-18.6,86c-14.5,49.1-21,98.5-20.1,149.7c0.5,29-2.3,58.9-8.7,87.2
	c-13.1,57.2-50.1,98.8-97.3,131.1c-20.1,13.8-30.6,29.6-32.7,54.1c-3,34.7-15.5,66.9-33.9,96.6c-4.3,6.8-8.8,13.7-14.3,19.6
	c-6.7,7.1-14.5,18.3-25.1,10.2c-11-8.4-1.2-18.9,3.9-26.6c24.5-37.3,37.8-77.9,40-122.6c1-21.5,12.3-37,29.8-50.2
	c23.3-17.5,46.3-36.2,65.9-57.7c23.7-26,35.9-58.4,37.7-94.1c1.2-22.2,2.8-44.5,2.8-66.7c0-47,6.7-92.8,21.7-137.3
	c12-35.7,22.4-71.5,13.5-110c-1.2-5.1,4.5-11.8,7-17.8c6.8,3.2,17.2,4.8,19.7,10C2480.9,2041.9,2481.5,2054.5,2484.6,2069.9z"/>
<path d="M1341.4,2855.5c-97.2,0.5-169.7-72.8-164.8-167.1c0.4-7.9,1.1-17.1,5.2-23.2c3.8-5.6,13.1-11.3,19-10.4
	c5.8,0.9,12.6,9.2,14.9,15.7c2.5,7.2,0.3,16,0.4,24.1c0.7,49.6,19.3,89.1,66.5,109.9c48.3,21.4,95,17.3,137.2-15.8
	c21.8-17.1,31.7-41.5,35.9-68.3c1.3-8,2.2-16,4-23.9c2.6-11.1,11-13.6,21-12.6c10.4,1.1,17.7,6.5,17.3,17.3
	c-0.4,12-1.6,24.3-4.6,35.9C1473.9,2813.2,1419.8,2855.1,1341.4,2855.5z"/>
<path d="M1374.9,3261c3.5,21.7-11.3,27.9-22.5,35c-33.7,21.3-71.2,33.4-109.8,42.2c-79,17.9-155.3,10.2-226.2-29.5
	c-23.4-13.1-44.1-31.8-63.6-50.5c-9.7-9.2-15.4-23.6-20-36.7c-2-5.5,3.4-13.7,5.5-20.7c5.9,2.7,11.8,5.3,17.7,8.2
	c0.8,0.4,1.1,1.6,1.6,2.5c38.1,66.4,102.2,88.3,172.1,99c63,9.6,122.4-7.2,180.8-28.3c14.2-5.1,27.8-12.2,42-17.3
	C1359.2,3262.4,1367,3262.3,1374.9,3261z"/>
<path d="M2518.4,3389.5c6.9,18.4-5.9,25.1-17.5,30.4c-45.1,20.6-92.7,32.7-141.6,20.6c-45.8-11.3-91-17.1-138-12.7
	c-34,3.2-66-5.6-95.3-24.4c-16-10.3-33.6-18.4-51-26.4c-8.4-3.9-15.9-8.7-10.6-17.5c3.3-5.4,13.8-10.8,19.4-9.3
	c13.5,3.4,27.2,9,38.7,16.8c39.3,26.8,82.3,31.9,127.8,24.6c26.4-4.2,52.6-4.1,78,4.9c44.7,15.8,89.1,14.4,134.2,1.4
	C2480.5,3392.9,2498.4,3383.5,2518.4,3389.5z"/>
<path d="M2964.2,3398.1c-34.8,0.2-65.9-11.1-94.4-29.6c-24.6-16-48.6-32.7-72.3-49.9c-36.2-26.2-77-39.3-120.7-45.4
	c-5-0.7-10.8,0.2-14.9-2.1c-5.4-3.1-9.4-8.5-14-13c4.8-4.5,9.8-13,14.5-12.8c24,1,49.2,0.2,71.5,7.6c30.3,10.1,58.7,26.3,87.2,41.2
	c12.4,6.5,23.5,15.8,34.5,24.7c41.8,33.7,88.5,52,143,47.7c9.3-0.7,22.8-4,23.6,10.9c0.7,13.2-12.6,14.5-21.9,16.6
	C2988.5,3396.5,2976.3,3396.8,2964.2,3398.1z"/>
<path d="M1394.7,3446.1c44.5,0,86.6,2.7,128.2-0.8c41.6-3.5,82.7-13.3,123.1-20.2c8.5,16.4,1.7,22.7-9.2,25.8
	c-25.1,7.3-50.1,15.3-75.7,20.5c-45.7,9.2-91.8,12.9-138.2,4C1408.3,3472.7,1395.5,3468.6,1394.7,3446.1z"/>
<path d="M879.7,2680.6c-1.5,4.5-2.3,10.9-5.4,15.8c-16.8,26.4-34,52.6-51.6,78.5c-6.1,9-14.5,15.2-25.4,6.6
	c-9.3-7.3-11.2-16.9-4.5-26.8c18.2-26.7,36.6-53.4,55.6-79.5c3.2-4.4,9.6-7.6,15.1-8.9C873,2664.2,879,2668.9,879.7,2680.6z"/>
<path d="M805.5,2670c-3.3,8.1-4.9,15.3-8.7,21c-16.1,24.3-32.7,48.3-49.3,72.3c-6.1,8.8-13.2,16.2-24.7,8
	c-9.7-6.9-12.1-17.3-5.8-26.5c19.4-28.1,39.6-55.7,60.6-82.6c3.3-4.2,12.6-6,18.4-4.9C799.9,2658,802.5,2665.7,805.5,2670z"/>
<path d="M1888.6,2770c-20.3,34.6-44.2,65.6-69.6,95.4c-3.1,3.6-12.9,6.3-15.5,4.3c-4.5-3.6-6.1-11.1-8.4-17.2
	c-0.6-1.6,0.2-4.3,1.2-5.8c19.8-28,38.8-56.5,60-83.4C1864.5,2752.8,1876.3,2756.7,1888.6,2770z"/>
<path d="M1738.1,2862c-14.5-1.9-20.4-7.3-18.3-18.8c0.5-2.9,1.4-6.1,3.1-8.5c17.3-24.8,34.3-49.9,52.8-73.8
	c3.7-4.8,13.4-4.9,20.3-7.1c1.9,7.3,7.1,15.9,5.1,21.8c-4.2,12.1-12,23.1-19.1,34.1c-8.8,13.5-17.9,27-27.9,39.6
	C1749.4,2855.1,1742.1,2858.9,1738.1,2862z"/>
<path d="M823.7,2218.4c-0.9,32.3-27.2,39.1-35.3,57.8c-8.3,19.1-15.1,38.9-22.6,58.4c-16.6-0.8-21.2-10-20.1-22.4
	c2.9-33.9,18.1-62.1,44.1-83.4C797.2,2222.8,809.3,2222.6,823.7,2218.4z"/>
<path d="M1894.1,2875.6c-22.7-15-24.9-19.2-15.4-34.2c13.5-21.2,28.5-41.5,43-62.1c2.3-3.2,5.1-7.1,8.5-8.4
	c5.2-1.9,13.4-4.4,16.1-1.9c4.3,3.9,6.1,11.5,7,17.9c0.5,3.3-2.7,7.4-4.6,10.9c-2.5,4.4-5.2,8.6-8.1,12.7
	C1925.6,2831.7,1910.4,2852.9,1894.1,2875.6z"/>
<path d="M952.4,2685.8c-2.6,9.1-3.5,19.3-8.3,27.2c-13.1,21.5-27.9,41.8-41.7,62.8c-6.4,9.7-13.9,15.1-25,8.1
	c-10.8-6.8-10.8-17.1-4.6-26.3c15.3-22.4,31-44.6,48.1-65.6c5.3-6.5,15.9-8.7,24-12.9C947.5,2681.4,949.9,2683.6,952.4,2685.8z"/>
<path d="M1016.8,1810.3c-3.8,7.7-5.2,15.3-9.8,18.6c-23.1,17.2-41.7,37.3-52.4,64.6c-1.7,4.2-9.7,9.3-13.5,8.4
	c-4-0.9-8.6-8.3-9.2-13.3c-3.8-31,36-79.3,67.5-82.2C1003.9,1806.1,1008.7,1808.4,1016.8,1810.3z"/>
<path d="M1188.9,1719.7c1-12-0.6-20.7,2.6-27c13.4-27.1,33.9-47.6,61.9-59.7c5.3-2.3,12-2.8,17.7-1.8c4.3,0.7,9.9,4.4,11.2,8.1
	c1.3,3.6-0.9,11.5-3.8,13c-29.8,14.8-51.3,38.7-72.6,63.1C1203.8,1717.7,1198.6,1717.4,1188.9,1719.7z"/>
<path d="M3098,3234.7c13.3-14.8,26.1-11.8,39.5-4.6c26.6,14.4,39.8,39.2,49.4,66.1c1.7,4.8-3.5,12.2-5.6,18.3
	c-6-2.1-16-2.8-17.3-6.6c-11-30.6-32.9-49.8-61-63.7C3100.9,3243.1,3100.3,3239.2,3098,3234.7z"/>
<path d="M2562.9,1689.1c-0.6,4.3-0.1,14.9-4,23.7c-2.5,5.6-11.5,8.3-17.5,12.3c-3.1-5.5-8.3-10.7-9.1-16.5
	c-3.4-23.8-6-47.7-7.8-71.6c-0.4-5.9,3-12.1,4.7-18.1c7.1,2.1,17.8,2.1,20.6,6.8c5.9,9.9,8.4,22.2,11,33.7
	C2562.6,1667.1,2562.1,1675.3,2562.9,1689.1z"/>
<path d="M2608.6,2960.7c-23-1.6-40.5-5-57.6-3.5c-16.4,1.4-32.3,7.9-48.9,12.3c0.9-23,10.9-33.5,36.3-40.1
	C2569.9,2921.1,2587.3,2927.7,2608.6,2960.7z"/>
<path d="M2419.8,1794.4c12.8,4.1,20.2,4.6,25.2,8.3c14.2,10.4,26,60,18.1,76c-2.2,4.5-8.4,7.8-13.5,9.8c-1.9,0.7-7.9-3.6-8.6-6.5
	C2434.1,1855.2,2427.9,1828.2,2419.8,1794.4z"/>
<path d="M1337.9,1991.7c-6.1-31.2,12.3-68,37-76.8c4.8-1.7,12.8-1,16.2,2c2.8,2.5,3.1,11.6,0.8,15.3c-11.3,17.7-23.4,34.9-36.4,51.4
	C1352,1987.9,1344.3,1988.9,1337.9,1991.7z"/>
<path d="M1695.1,1491c-20.5-14.7-22-19.6-13.5-35.8c13.2-25.5,32.9-34.5,62.1-25.7C1732,1455,1702.7,1464.4,1695.1,1491z"/>
<path d="M2901.5,3145c-28.4,1.5-44.5-16.7-63.2-28.5c-2.2-1.4-2.5-10.9-0.2-13.4c3.5-3.8,10.2-6.8,15.3-6.5
	C2872.5,3097.5,2894.7,3119,2901.5,3145z"/>
<path d="M2790.1,2973.4c21.6,2.6,41.4,3.9,60.6,7.7c10.8,2.2,13.4,17.4,4.2,19.8c-13.6,3.6-28.9,3-43.2,1.4
	C2799.6,3001,2788.4,2995.5,2790.1,2973.4z"/>
<path d="M1038.7,2090c15.7,20.7,1.9,31.2-3.9,42.4c-4.6,8.9-7.7,23.3-23.3,16c-9.1-4.3-9.5-18.4,0.4-32
	C1018.6,2107.2,1028.2,2100.1,1038.7,2090z"/>
<path d="M2618.5,955.8c-17.8-10.5-15.4-22.4-10-33.8c27.4-57.7,63.4-108.3,119.6-141.6c3.5-2.1,7.2-5.5,10.7-5.3
	c7.5,0.5,17.4,0.5,21.6,5c7.4,7.9,2.4,16.9-5.5,23.3c-2.3,1.9-4.7,4-7.3,5.4c-53.6,29.7-87,77.5-116.5,129
	C2627.7,943.6,2623.3,948.9,2618.5,955.8z"/>
<path d="M2939.9,587.6c22.6-7.3,30.6,4.2,33.9,18.7c8.6,38.3,4.4,75-23.7,104.6c-20.6,21.8-47.6,33.7-76.9,39.5
	c-9.1,1.8-19.3,2.3-22.8-8.9c-3.4-10.8,4.6-16.9,13-21.1c9-4.4,18.9-7.2,27.8-11.8c13.4-6.8,27.4-13.2,39.2-22.3
	c20.4-15.7,27-36.6,18.6-61.9C2945,612.6,2942.9,600.2,2939.9,587.6z"/>
<path d="M2666.1,418c-0.3,4.3,0.8,9.3-1.3,12.1c-4.3,5.7-9.6,13.3-15.7,14.5c-9.6,2-13.2-6.3-14-15.5c-1.2-14-2-28.3-4.9-42
	c-8.8-40.1-30-58.8-70.3-63.3c-1-0.1-2,0-3-0.2c-9.4-1.6-21.8,1.3-23.6-13c-1.4-10.6,8.9-17.8,26.1-18.8
	c38.8-2.3,65.2,18.1,84.9,48.5C2659.4,363.7,2664.9,390.5,2666.1,418z"/>
<path d="M2600.5,999.8c-5.8,22.6-12.6,30.2-22.5,25.2c-4.1-2.1-8.2-8.8-8.2-13.5C2569.7,999.6,2578.5,996.4,2600.5,999.8z"/>
</svg>
