<?xml version="1.0" encoding="utf-8"?>
<!-- Generator: Adobe Illustrator 24.3.0, SVG Export Plug-In . SVG Version: 6.00 Build 0)  -->
<svg version="1.1" id="Layer_1" xmlns="http://www.w3.org/2000/svg" xmlns:xlink="http://www.w3.org/1999/xlink" x="0px" y="0px"
	 viewBox="0 0 4000 4000" style="enable-background:new 0 0 4000 4000;" xml:space="preserve">
<path d="M2683.5,253.7c7.6-13.5,13-24.2,19.4-34.1c16.1-25,34.6-33.2,57.1-26.3c23.3,7.2,39.7,31,37.7,57.8c-1,14.6-5,29.1-8.4,47.6
	c11.4-1.1,21.6-2.4,31.9-3c25.5-1.5,42,8.1,50.2,28.5c8.9,22.2,4.8,43.7-14.4,59.1c-13,10.4-28.3,18.3-43.2,25.9
	c-33.8,17.3-65.1,37.4-88.6,69.4c11.2,9.9,21.4,19.3,32,28.2c89.2,75.3,133,173.9,144.2,287.8c2.6,26.1,13.6,35.7,36.4,45.7
	c78.1,34.1,156.3,68.7,231.1,109.3c82.9,45,138.5,117.9,178.5,202.2c57.7,121.5,74.4,250,63.5,383.2
	c-19.1,234.5-97.1,451.3-198.9,660.5c-123.5,253.7-278.2,487.8-454.9,707.5c-157.4,195.8-331.2,375.1-533,525.8
	c-98.2,73.3-201.8,137.5-318,179.2c-96.5,34.6-195.4,52.4-298.1,44c-70.9-5.8-138.6-23.7-203.9-51.8
	c-72.9-31.4-147.7-59.1-214.3-103.2c-29.7-19.7-58.2-41.5-85.2-64.7c-12.4-10.6-23.8-15.2-39.7-15.2
	c-68.3-0.1-134.3-11.8-195.9-43.1c-13.1-6.7-25.8-14.1-42.3-23.1c-5.1,13.4-10.8,24.6-13.7,36.5c-6.3,26-10.4,52.6-16.8,78.6
	c-4.6,18.9-13.4,35.5-35.6,39.4c-27.7,4.8-46.6-5.9-55.5-32.7c-4-12.1-6.4-24.8-9.5-37c-16.4,7-30.9,15.9-46.7,19.5
	c-27,6.1-45.9-3.6-57.7-25.5c-11-20.4-6.6-42.4,13-61.9c4.8-4.8,10.8-8.5,17.2-13.5c-17.2-8.5-32.1-13.5-44.2-22.3
	c-20.6-15-27.3-35.3-20.7-54.5c7.7-22.4,24-32.8,47.5-33.6c23.8-0.8,47.7-1.7,71.4-3.8c14.5-1.3,28.7-5.2,46-8.4
	c-9.7-22.8-18-42.5-26.5-62.2c-8.2-19.1-13.3-40.5-25.2-56.9c-40.1-54.7-57.7-117.2-68.3-182.3c-22.6-139,11-265.8,87.1-382.6
	c36.1-55.3,80.5-103.4,129.7-147c71.4-63.2,143.9-125.1,214.8-188.8c206.6-185.6,378.3-398.7,502.8-648
	c65.3-130.7,117.1-267,161.6-406.2c27.8-86.9,54.1-174.5,95.5-256.4c44.8-88.5,107.6-159.9,199.5-201
	c33.2-14.8,68.9-25.2,104.4-33.2c21.2-4.8,35.6-12.3,46.5-31.5c39.3-69.6,92.8-126.4,162-166.8c70.6-41.3,147.6-56.2,228.9-52.3
	c47.4,2.3,48.8,1.4,47.6-45.7c-1-39.6-5.8-79.1-8.8-118.7c-1.2-15.1-1-29.4,11.4-41.3c23.4-22.2,55.1-21.4,75.5,4.2
	C2668.7,225.7,2674.5,238.4,2683.5,253.7z M1147.2,3410.2c26,18.8,47,34.8,68.8,49.8c57.6,39.7,123.3,63.4,186.1,92.9
	c130.8,61.5,266.4,73.9,406.5,41.1c107.7-25.2,204.3-75.5,297.1-133.9c107.2-67.4,204.3-147.9,296-234.5
	c332-313.4,597.3-676,793.5-1088.4c86.1-180.9,151.9-368.8,173.3-569.5c11.7-109.4,7.9-218.2-26.3-324.1
	c-37-114.6-102.6-207.2-208.4-268.9c-86.2-50.3-174.6-55.6-265-14.3c-62.2,28.5-114.9,70.3-159.8,121.9
	c-68.8,79.1-112.4,172.6-151.2,268.5c-65,161-128,322.8-193.6,483.5c-65.4,160.4-146.9,312.2-247.6,453.6
	c-73.5,103.1-155,199.4-250,282.7c-99.2,87-202.6,169.2-304.2,253.4c-55.8,46.3-111.9,92.2-158.1,148.6
	c-107.3,131.1-150.4,277.4-105.8,444.6c2.4,9,3,18.4,5.3,33.3c-38.8-14.9-38.5-51.7-57.5-73.7
	C1214.9,3387.7,1184.2,3397.9,1147.2,3410.2z M2317.3,813.4c-49.6,1.4-97.3,9.4-140.9,33.6c-49.5,27.5-74.2,70.6-73.1,127.1
	c0.8,41.5,17,78.5,46.8,106.4c33.1,31.1,70.2,58,105.6,86.7c30.8,24.9,62.3,49,92.2,74.9c19.9,17.2,32.3,40.4,39.6,65.5
	c10.7,37.3-9.7,65.9-48.4,67.8c-13.7,0.7-28.1-0.3-41.2-3.9c-37.3-10.2-74.1-22.1-111.1-33.3c-58-17.6-115.8-35.8-178-22.4
	c-78.3,16.9-136,63.4-133,156c1.8,56.4,23.3,104.8,59.6,145.8c36.1,40.9,76.7,77.7,113.6,117.8c17.3,18.8,33.6,39.7,45.3,62.2
	c20.7,39.7,0,72.8-44.6,72.7c-22.5-0.1-45.7-3.2-67.5-9c-39.3-10.3-78-23.1-116.6-35.7c-40.2-13.1-81-17.3-123.2-16.1
	c-80.8,2.3-138.3,82.5-104.8,166.6c11.6,29.1,28.2,55,51.9,75.4c36.1,31,74.1,59.8,109.9,91.1c23,20.1,46.4,41,64.4,65.4
	c26.2,35.4,6.6,76.7-37.4,79.3c-27.2,1.6-55.9-1.2-82.1-8.4c-57.3-15.8-113.3-36.2-170.2-53.7c-40.4-12.4-82.1-14.3-123.9-9.7
	c-64.2,7-109.1,61.4-104.8,125.5c2,29.4,10.5,57.3,27.5,80.8c27.8,38.5,58.2,75.3,87.3,112.9c16.4,21.1,34.7,41.2,47.9,64.2
	c9.5,16.6,15.5,36.9,16.6,56c1.9,31.7-18.5,52.5-50.4,54.8c-15.7,1.1-32.2,1-47.2-3c-30.6-8.1-60.5-18.6-90.4-29.3
	c-42-15-83.2-32.4-125.6-46.2c-37.2-12.1-75.6-15.5-114.4-4.6c-69.5,19.6-102.1,68.1-88.9,139.3c5.3,28.9,14.1,58.7,28.6,83.9
	c26.5,46.3,58.4,89.6,88.2,134.1c2.7,4.1,6.2,7.9,10.1,10.9c12.5,9.7,29.7,8.8,44.2-1.9c12.7-9.4,16.9-20.8,9.8-36.7
	c-6-13.4-14.8-25.7-23.1-38c-19.3-28.8-40.6-56.5-58.1-86.4c-11.4-19.4-19.9-41.2-25.5-63c-9.6-37.5,13.7-70,52.3-74.6
	c13.5-1.6,28.1-0.9,41.3,2.2c25,6,49.7,13.6,74,22.2c50.5,17.8,100.5,37.1,151,54.8c29.5,10.3,60.4,11.7,91.3,8.1
	c65-7.4,104.6-48.5,108.8-113.2c1.9-29.4-7.1-56.9-19.4-83.2c-17-36.4-42.3-66.9-68.6-96.8c-22.3-25.3-44.4-50.9-64.7-77.7
	c-10-13.2-17.9-29-22.8-44.8c-12.9-41.3,12.3-77.5,55.6-78.3c24.4-0.4,49.8,2.5,73.3,9.1c51.5,14.4,101.9,32.7,153.2,48.3
	c47.7,14.5,95.9,25.4,146.4,14.9c83-17.1,121.1-89.8,87.4-167.3c-13.5-30.9-34.9-55.5-60.4-76.4c-31.5-25.7-65-49-96.1-75.2
	c-21.9-18.4-43-38.3-61.2-60.3c-15.7-18.9-22.5-42.6-9.9-66.8c13.2-25.4,37.1-32.1,63.2-30.4c17.6,1.2,35.5,4.7,52.4,9.8
	c48.5,14.5,96.2,31.6,144.9,45c27.5,7.6,56.6,15.2,84.6,14c127.5-5.9,152.2-103.3,109.2-185.9c-11.7-22.5-28.3-43.4-45.9-61.9
	c-36.2-38.1-74.6-74.1-112-111.2c-24.3-24.1-43.2-51.7-54.2-84.4c-19.5-58,13-110,74.3-115.2c25.4-2.1,52.2-2.2,76.9,3.4
	c50.2,11.4,99.4,27.1,148.9,41.5c35.5,10.3,71.2,17.8,108.5,14.4c59.4-5.5,100.2-48.1,103.7-107.1c2.4-40.3-6-78-30-109.7
	c-20.7-27.5-43.8-54.3-70-76.3c-40.2-33.7-84.7-62.3-126.2-94.6c-17.8-13.9-35.3-29.8-47.9-48.2c-26.7-39.1-17-80.5,24.1-104.2
	c17.6-10.1,38.4-16.2,58.5-20.1c48.7-9.4,96.7,2.2,144.8,8.5c45.2,5.9,90.5,13,136,14c44,1,86.6-9.9,122.8-38.1
	c14.9-11.6,24.5-26.1,24.8-45.3c0.5-27.4-23.4-44.1-48.6-33.7c-8.1,3.3-16,8.3-22.7,14c-24,20.7-52.3,29.2-82.8,26.8
	c-44.4-3.4-88.7-9.4-133-14.3C2384.3,820.9,2350.8,817.2,2317.3,813.4z M1304.8,2339.7c-8.2,7.4-13.8,12.5-19.5,17.5
	c-80.7,72-161.4,144.1-242.1,216.1c-68.9,61.4-139,121.5-206.3,184.7c-70.5,66.2-112.8,147.9-120.1,245.7
	c-4.9,65.6,4.2,128.9,35.3,187.6c8.6,16.2,21.8,30,32.7,44.6c-12.5,19.5-18.3,23.9-44,32.6c-33.1,11.2-67.2,17-102.2,18
	c-12,0.4-23.9,3-35.8,4.5c3.8,9.2,8,14.2,12.6,14.6c17.7,1.8,35.7,1.2,53.4,3.4c8,1,19.6,4.5,22,10.1c2.6,6-1.6,17.5-6.4,23.8
	c-9,11.6-20.8,21.1-31.3,31.7c-6.3,6.3-13.8,12.1-17.7,19.7c-2.5,4.8-1.2,13.5,1.7,18.5c1.4,2.4,11.4,2.4,15.8,0.1
	c7.8-4,14.6-10.1,21.2-16c12.5-11.3,23.8-24.2,37.2-34.2c7-5.2,17.6-5.4,26.6-7.9c2.2,8.2,6.5,16.5,6.2,24.6
	c-0.5,16.8-4.2,33.4-5,50.2c-0.5,10.1-1.7,21.8,14.1,30.7c4-11.4,8.6-20.7,10.3-30.6c6.9-38.3,17.6-75.4,35.1-110.2
	c6.1-12.1,10.4-26,25.3-30.7c19,13.9,36.2,29.3,55.9,40.3c113,63.1,228.4,54,344.8,10c17.3-6.5,16.9-18.9,16.6-33.5
	c-2-111.6,29.6-213.3,91.1-306.1c38.2-57.6,86.2-106.3,137.5-152c6.8-6.1,12.8-13.2,21.9-22.7c-14.3-2.7-22.9-5.3-31.7-5.9
	c-43.1-2.9-83.9-14.5-124-29.8c-35.2-13.5-70.2-27.6-105.8-40.1c-23.3-8.1-47.2-16.2-71.5-19.9c-33.8-5.2-49.7,13.1-40.1,45.6
	c5.8,19.6,15.3,38.8,26.4,56.1c17.1,26.7,38,50.9,55.2,77.5c10.1,15.5,19.3,32.9,23.6,50.7c8.2,34.2-13.5,65.3-47.5,74.6
	c-30.5,8.3-55.1-1.6-74.7-24.3c-47.1-54.4-86.8-113.6-113.2-180.9c-12.4-31.7-20.2-64.3-18.2-98.8c3.8-67.6,49-122.9,114.8-139.1
	c32.3-8,65.6-10.2,97.4-1.8c45.9,12.1,90.9,27.9,135.8,43.4c30.9,10.7,60.6,24.9,91.7,34.9c16.6,5.4,35,7.3,52.6,7
	c20.3-0.3,30.6-14.8,25.5-34.6c-3.1-12.2-9-24.4-16.4-34.7c-15.1-20.9-30.9-41.5-48.4-60.3
	C1369.1,2485.9,1319.1,2424.9,1304.8,2339.7z M2080,892.6c2.9-1,4.2-1.1,4.7-1.8c4.1-5.6,8.2-11.2,11.9-17.1
	c26.6-43,66.4-68.1,113.9-80.3c46.3-11.9,93.7-16.9,141.7-10.8c60,7.6,120,15.8,180,23c30.7,3.7,59.3-2.2,83-24
	c4.4-4,9.2-7.7,14.3-10.7c24.2-14.3,49.2-15.4,73.6-1.5c24.8,14.1,35,37.1,34,65c-0.9,24.9-10.7,46.1-28.8,63.4
	c-19.9,18.9-43.7,30.6-69.6,38.7c-53.3,16.6-107.2,15.8-161.9,7.5c-55.8-8.4-111.9-16-168.1-19.9c-21.8-1.5-45.7,4.8-66.3,13.2
	c-30.2,12.3-36.5,40.6-15.3,65.4c16.6,19.4,36.6,36.3,56.8,52c31.3,24.4,64.7,46.1,96.2,70.2c49.6,38,91.1,83.2,112.3,143.2
	c9,25.5,13.5,52.6,21.4,84.6c7-17.9,12.1-31.5,17.6-44.9c65.3-160.7,152.6-303.4,314.6-385c11.6-5.8,14.9-14.5,14.8-26.4
	c-0.1-26.8,1.6-53.6,0.4-80.4c-4-86.8-30.5-165.7-87.2-232.6c-82.1-96.7-187.5-137.3-312.9-121.5c-116.8,14.7-203.5,79-269.7,173.2
	c-51.4,73.1-80.2,156.9-109.1,240.4C2080.5,880.6,2080.7,886.3,2080,892.6z M670.9,3013.3c0.8-2.8,1.9-5.5,2.3-8.3
	c10.6-82.4,38.9-157.4,90-223.7c6.6-8.5,9.7-21.9,9.7-33c-0.2-52.7,13.8-102.1,33.9-149.9c25.1-59.9,66.1-107.6,116.4-148.4
	c60.1-48.8,118-100,166.4-161.3c20.8-26.3,46.4-48.9,70.4-72.6c54.4-53.7,109.2-106.9,163.6-160.5c34-33.6,64.6-69.9,88.9-111.3
	c10.5-17.8,23.9-34.2,37.5-49.9c40.6-46.8,73.6-98.3,102.9-152.7c26.4-48.9,55.3-96.4,82.6-144.8c23.4-41.5,49.9-81.7,68.3-125.3
	c34.7-82.2,66.1-165.9,95.7-250.2c18.7-53.2,29.4-109.3,47.7-162.7c32.9-96.1,92.6-170.3,187.5-212.1c14.6-6.4,20.7-17.2,25.7-30.5
	c10.8-28.8,22-57.4,32.8-86.2c2-5.2,2.9-10.8,4.5-17.2c-4.6-0.6-7.5-1.7-10-1.2c-8.7,1.9-17.4,4.1-25.8,6.9
	c-91.7,29.6-161.8,86.4-212.3,168.2c-44.8,72.6-70.9,152.9-96.7,233.2c-36.2,112.4-73.3,224.3-119.9,333.1
	c-84.6,197.7-193.3,380.2-331.6,544.8c-93.5,111.2-198.6,210.9-308.4,305.9c-71.2,61.7-142.8,123.6-208.4,191.2
	c-105,108.2-158.7,238.6-146.6,391.8C641.2,2929.8,648.3,2972.7,670.9,3013.3z M808.3,2713.6c2.1,0.7,4.2,1.5,6.3,2.2
	c2.5-1.4,5.2-2.4,7.4-4.3c61.7-53,122.2-107.5,185.1-159c180.5-147.9,341.9-314.1,482.1-500.7c45.9-61.2,90.2-123.2,117.3-195.9
	c6.4-17,20.5-31.2,31.3-46.4c14.3-20.2,30.2-39.3,42.9-60.4c13.7-22.9,25.4-47.2,36.5-71.6c48.4-106.6,96.1-213.5,144.5-320
	c66.2-145.7,118.4-296.5,164.3-449.6c2-6.7,2.4-14,4.2-25c-8.8,4.5-13.6,6-17.2,9.1c-34.8,29.6-68.2,60.5-95.4,97.7
	c-49.1,67.1-55.4,148.1-79.3,229.2c14.2-12.4,24.2-21.1,39.4-34.4c-1.8,12.9-0.9,19.5-3.6,23.6c-8.7,13.2-17.2,27-28.5,37.9
	c-19,18.5-33.3,39.7-41.1,64.6c-11.5,36.8-23.6,73.7-31.2,111.3c-5.9,28.9-15.4,54.9-31.7,79.3c-38,56.9-74.8,114.7-113,171.6
	c-20.3,30.3-33.9,62.6-39,98.7c-1.6,11.8-4.6,23.4-5.8,35.3c-3.3,31.3-19.2,53.1-46.9,67.6c-49.9,26.2-85.9,66.2-112.9,115.2
	c-12.7,23-19.3,47.5-24.5,72.9c-10.8,51.9-35.8,90.2-95.1,93.7c-18.5,1.1-34.1,10.1-47.6,22.5c-40.3,36.8-81.5,72.7-120.6,110.8
	c-29.3,28.5-54.6,60.5-60.7,103.3c-1.1,7.7-5.3,14.9-8.3,22.3c-9.1,22.1-23.9,36-49.5,35.3c-26.9-0.7-49.3,9.9-71.1,25.5
	c-63.2,45.5-100.9,108.2-124.7,180.6C815.9,2675.1,812.8,2694.6,808.3,2713.6z M1989.3,2261c33.3-18.1,62.5-32.6,90.1-49.7
	c7.9-4.9,13-16.9,16.1-26.7c5.9-18.9,8.7-38.7,13.9-57.8c18.4-67.1,43.8-131.2,101.7-174c36.6-27,48-59.3,48.8-103.4
	c2.2-113.5,49.3-204.7,146.9-267c7.3-4.6,15.3-11.1,18.5-18.6c16-38,30.5-76.6,45.5-115c-62.8,43.4-128.6,47.5-197.8,29.6
	c-24-6.2-47.7-13.4-71.6-19.9c-32.5-8.9-64.6-19.7-97.6-25.9c-23.1-4.3-47.6-4.7-71-2.6c-42.8,3.8-58.8,31-43.6,70.9
	c4.6,11.9,10.6,23.7,17.9,34.1c10.3,14.6,21.4,28.7,33.9,41.4c29.2,29.7,59.6,58.3,89.1,87.7c34.7,34.6,65.5,72,82,119.1
	c31,88.7-16.3,177.3-106.4,198.9c-35.5,8.5-71.3,7.2-106.2-2c-52.7-13.9-104.6-30.7-157.3-45c-22.8-6.2-46.4-11.3-70-13
	c-26.3-1.8-35.3,14.3-20.1,35.6c12.5,17.6,27.9,33.7,44.4,47.6c34.1,28.8,70.5,54.8,104.6,83.6
	C1952.7,2132.5,1991.2,2183.9,1989.3,2261z M1902.2,2390.8c-1.3-1.9-2.6-3.9-4-5.8c-80.4,30.7-156.5,10.1-232.3-16.6
	c-29.9-10.5-59.7-21.6-90.3-29.8c-27.6-7.3-56-13.9-84.3-15.4c-30.7-1.6-42,16.6-28.2,44.6c10.8,21.9,26,41.9,41.3,61.2
	c22.8,28.7,48.6,55.1,71,84.1c41.9,54.3,67.3,114.4,58.6,185c-0.3,2.5,1.3,5.1,2.4,9.3c4.5-1.9,8.5-2.7,11.2-4.9
	c55.3-46.7,110.5-93.5,165.5-140.6c12.5-10.7,19-24.5,22-41c6.4-35.6,21.3-67.9,43-97C1886.3,2412.9,1894.2,2401.8,1902.2,2390.8z
	 M2063.5,933.2c-44.3,123.5-87,242.8-131.1,365.7c9.5-2.4,14.2-3.3,18.7-4.9c61-20.9,123-22,184.7-5.3
	c46.9,12.6,92.8,28.5,139.3,42.8c14.2,4.4,28.5,8.8,43,11.8c12,2.5,26.8,2.2,31.7-9.8c3.9-9.4,1.3-22.9-2-33.5
	c-2.8-9-9.5-17.8-16.6-24.3c-26.2-24.1-52.4-48.4-80.3-70.5c-29.5-23.4-61.8-43.3-91.5-66.5c-63.1-49.4-100.1-112-92.7-195.3
	C2067,941.9,2065.8,940.2,2063.5,933.2z M1715,1773.3c10.1,0.6,16.9,1.7,23.5,1.2c58.5-4.7,114.3,7,169.2,25.9
	c30,10.3,59.9,20.8,90.3,29.5c15,4.3,31.1,6.6,46.8,6.9c18.3,0.4,24.5-8.4,16.9-24.6c-6.6-14.1-15.7-27.7-26.4-39
	c-28-29.5-57.3-57.6-86.3-86.2c-47.3-46.5-86.3-98.3-104.4-163.4c-0.7-2.7-2.5-5-5.5-10.8C1796.6,1602.2,1756.3,1686.6,1715,1773.3z
	 M1445.2,2174.6c1.6,0.8,3.3,2.5,4.7,2.3c61.8-8.1,120,7,177.8,26.4c46,15.5,92.3,30.2,138.9,43.8c14.9,4.4,31.3,5.7,47,5.3
	c23.5-0.6,29.6-13.8,15.7-33.4c-7.9-11.2-18-21.2-28.5-30.1c-20.5-17.3-41.6-33.8-63-49.8c-54.4-40.8-104.7-85.2-135.4-147.7
	c-1.6-3.3-5-5.7-9.2-10.5C1543.2,2046.2,1494.2,2110.4,1445.2,2174.6z M2622,239.2c-2.7,0.5-5.5,1-8.2,1.5
	c1.2,14.4,2.7,28.7,3.7,43.1c2.2,32.4,4.9,64.9,5.8,97.4c0.4,16.5-9.5,37.6-2.4,48.4c8.3,12.5,30.6,15.3,46,23.6
	c13.1,7.1,21.3,3.1,30.8-6.9c16.3-17.1,33-34.6,52.1-48.3c21.6-15.4,46.3-26.6,69.3-40.1c6.1-3.5,11.1-8.9,16.5-13.4
	c-1-2.1-2-4.3-3-6.4c-11.1,2.1-22.2,3.8-33.1,6.6c-11.4,2.9-22.3,8.5-33.9,10.2c-24.2,3.5-36.5-9-31.8-32.7
	c2.4-12.4,8.9-23.9,13.4-36c5.6-15.3,16.1-29.7,9.8-47.5c-16.1-1.8-21.7,9.7-27.1,19.9c-10.6,20.1-20.5,40.7-30.1,61.3
	c-7.2,15.4-18.4,24.8-38.9,28c-5.1-19.6-9.2-38.7-15-57.2C2640.1,272.6,2639.7,251.5,2622,239.2z M1882.2,2485.9
	c1.9,1.2,3.8,2.5,5.8,3.7c75.7-68.5,138.8-147.7,193.9-233.9c-44.4,17.1-83,40.2-107.8,82.6c-22.5,38.4-47.7,75.3-71.5,113.1
	C1895.4,2462.6,1888.9,2474.4,1882.2,2485.9z M2291.7,1887.7c17.1-21.7,103-227.7,104.1-249.7
	C2328.2,1681.5,2287.3,1779.6,2291.7,1887.7z M2131.2,2179.7c29.8-28.2,122.2-191.3,124.4-218.1
	C2175.6,2012,2148.1,2090.1,2131.2,2179.7z M988.7,2442.4c42.7,0.5,64.2-21.5,63.6-60.7C1032.1,2401,1011.1,2421,988.7,2442.4z
	 M1307.5,2130.7c36.4-4.9,63.4-31.4,71.2-74.2C1353.7,2082.6,1329.6,2107.6,1307.5,2130.7z M1555,1793
	c-9.2,16.9-18.4,33.9-27.6,50.8C1548.2,1833.4,1559.4,1817.5,1555,1793z M2937.4,892.2c-24.3-18.7-29.5-17-32.6,6.7
	C2916.4,896.5,2926.9,894.4,2937.4,892.2z"/>
<path d="M1365,3350.6c-19.7-8.3-16.4-21-15.8-32.2c3.6-62.4,22.2-120.6,48.5-176.9c31-66.1,77-120.4,133.1-165.9
	c50.9-41.2,102.7-81.4,155.9-119.7c194.8-140.4,362.9-307.7,511.5-495.9c161.4-204.4,273.4-434.1,358.2-678.7
	c42.2-121.9,85.5-243.4,131.4-363.9c29-76.3,68.5-147.6,122.5-209.9c37.5-43.2,81-78.9,131.7-105.5c9-4.7,18.1-13.8,33.1-1.8
	c-6.5,6-11.6,13.1-18.5,16.7c-112.2,58.7-182.8,154.4-231.2,267.1c-34.4,80.1-63.2,162.7-92.3,245
	c-57.6,162.8-112.2,326.6-189.3,481.8c-62.9,126.7-136.3,246.9-225.6,356.7c-61.3,75.5-123.2,150.8-190.3,221.1
	c-107.2,112.2-226.4,211-352.5,301.6c-53.2,38.2-105.9,77.5-154.8,120.9c-90.7,80.4-141.9,182.2-151.3,304
	C1368.5,3325.6,1366.8,3336.1,1365,3350.6z"/>
<path d="M2337.3,2693.1c-53.7-0.8-91.3-37.6-90.9-89c0.4-49.5,42.3-91.2,90.7-91.2c49.6,0,96,41.9,97.9,97
	C2436.4,2651.2,2393.1,2696.5,2337.3,2693.1z M2328.5,2549.8c-16.3,0.6-29.1,15.1-28.1,31.9c0.9,15.1,14.6,28.3,29,28
	c17.5-0.3,31.3-13.9,30.1-29.6C2358.3,2564.1,2343.2,2549.3,2328.5,2549.8z"/>
<path d="M1960.4,3105c-55.6-0.8-96.2-39.9-95.7-92c0.4-51.2,38.2-89,88-88.1c52.7,0.9,95.7,46,94.4,98.7
	C2045.8,3073.1,2011,3105.8,1960.4,3105z M1978.7,2983.9c-0.3-16.1-11.8-27.7-27.7-27.9c-17.2-0.2-33.4,14.8-33.1,30.7
	c0.2,14.7,18.7,33.1,32.6,32.4C1966.7,3018.3,1979,3002.9,1978.7,2983.9z M1963.8,3073c-12-3.3-19.1-5.6-26.3-6.9
	c-0.7-0.1-4.6,7.7-3.5,9.4C1940.2,3084.6,1948,3087.8,1963.8,3073z"/>
<path d="M3226.8,1543.9c-2.8,29.7-4.9,59.3-8.9,88.6c-1.5,11.5-5.8,23.2-11.1,33.6c-12.7,25.2-45.3,27.9-59.7,3.7
	c-7.7-12.9-10.9-29.6-12.4-44.9c-2.6-26.5-0.7-53.6-3.7-80.1c-4.6-41.3-12-82.2-17.7-123.4c-1.9-13.7-3.8-27.6-3-41.3
	c1.2-20.5,15.4-36.5,33.2-41.1c18.3-4.7,37.3,2.1,46.5,23c11.5,26,21.1,53.5,26.4,81.3C3222.8,1476.3,3223.6,1510.2,3226.8,1543.9z
	 M3207.8,1548.2c-1-0.1-1.9-0.1-2.9-0.2c0-13.9,1-27.9-0.2-41.7c-3.5-42.6-7.2-85.3-24.7-125c-8.1-18.4-19.1-25.2-31-22.3
	c-13.6,3.3-20.9,16.2-19.6,35.6c0.3,4.9,1.4,9.8,2.1,14.7c5.5,36.3,12,72.5,16.1,108.9c4.4,39.4,6.2,79.2,9.4,118.7
	c1,11.9,1.3,24.9,16.9,27.7c11,2,19.8-7.2,24.6-25c1-3.8,1.6-7.8,2-11.7C3202.9,1601.5,3205.3,1574.8,3207.8,1548.2z"/>
<path d="M2216.9,2970c-20.3-7.1-40.8-13.6-60.6-21.7c-5.8-2.4-11.7-8.6-13.9-14.4c-2.1-5.4-1.2-13.8,2-18.7c2-3.1,10.9-3.9,15.7-2.5
	c8.4,2.5,15.9,7.7,24,11.4c31.4,14.3,64.8,7.4,86.4-17.8c19.3-22.5,20.6-54.8,3.3-82.8c-4.2-6.7-10.1-12.6-12.9-19.8
	c-1.8-4.5-1.3-12.7,1.7-15.5c3.3-3.2,10.9-3.6,16.1-2.6c4.3,0.8,8.9,4.7,11.7,8.5c25.1,33.9,35.2,70.1,17.9,111.1
	C2291.7,2944,2260.2,2965.7,2216.9,2970z"/>
<path d="M3039.4,2034.4c3.4-14.8,4.3-26,8.5-35.9c14.1-33.7,29-67.2,44.4-100.3c3.2-6.9,8.6-15.3,15-17.7c8.3-3.1,20.1-3.9,27.5-0.1
	c5.5,2.8,10.6,15.4,9,22c-11.7,50.6-31.3,98.1-61.3,140.8c-6.5,9.2-17,16.7-28.1,10.7C3047.3,2049.9,3043.4,2039.7,3039.4,2034.4z
	 M3064.4,2032.1c24.6-16.9,30.6-40.5,38.6-61.6c8.2-21.7,18.6-43.6,18.8-71.7C3094.9,1927.1,3068.8,1987.7,3064.4,2032.1z"/>
<path d="M2583.6,2113.6c25.7-4.5,41.6,6.1,47.9,28.7c5.6,20.2-4.3,48.1-21.1,53.1c-10.8,3.2-23.4,2.4-34.8,0.7
	c-4.9-0.7-8.8-8.1-18.4-17.8c15.7,0,24,0.1,32.3,0c10.5-0.2,21.4-3.2,23.1-14.3c1.3-8.6-1.2-19.4-5.7-27
	C2601.8,2128.4,2592.5,2122.3,2583.6,2113.6z"/>
<path d="M2734.7,1697c21.1-4.2,45.1,7.6,54.1-18.3c7.8-22.5-12.9-30.1-24.9-42c15.4-10.2,22.3-8.9,32.9,5c16.1,21.2,12.9,51.4-7,66
	C2771.5,1721.2,2753.3,1718.6,2734.7,1697z"/>
<path d="M2855.9,1965.1c-3.5,17.2-16.1,17.6-29.1,17.3c-22-0.5-33.2-7.3-39.6-24.7c-4.1-11.2-6.7-22.6,7.4-30.1
	C2810.1,1961.9,2810.1,1961.9,2855.9,1965.1z"/>
<path d="M3158.3,1793.7c-10.1-0.4-18.6-10.7-18.5-22.5c0-11.7,9.4-20.3,20.9-19.2c10.9,1.1,20.5,11.7,19.5,21.8
	C3179.1,1784.2,3168.3,1794.1,3158.3,1793.7z"/>
</svg>
