<?xml version="1.0" encoding="utf-8"?>
<!-- Generator: Adobe Illustrator 24.3.0, SVG Export Plug-In . SVG Version: 6.00 Build 0)  -->
<svg version="1.1" id="Layer_1" xmlns="http://www.w3.org/2000/svg" xmlns:xlink="http://www.w3.org/1999/xlink" x="0px" y="0px"
	 viewBox="0 0 4000 4000" style="enable-background:new 0 0 4000 4000;" xml:space="preserve">
<path d="M1988.8,832.5c60.4-21.1,112.2-52.2,175.5-47.7c2-19.4,4.3-36,5.5-52.8c11-149.7,21.8-299.4,32.7-449
	c5.1-69.7,20.1-83.7,87.9-100.1c75-18,142.7-4.2,206.5,36.1c8.4,5.3,16.1,11.8,23.9,18.1c22.6,18.3,33,41.4,31,71
	c-4.1,60.9-6.9,121.9-10.3,182.8c-0.6,10.9-1.1,21.7-1.9,36.5c9.9-2,17.7-2,24-5.1c79.9-40,156.5-26.2,233.4,10.3
	c35.9,17.1,54.4,41,52.6,81.4c-2.2,46.9-2.7,94-3.5,140.9c-0.5,27.8-0.1,55.7-0.1,83.5c24.3,2.9,28.3,0.6,33.3-21.1
	c6.8-29.2,12.4-58.7,19.5-87.8c19.4-79.6,38.7-159.3,59.4-238.6c13.1-50.3,30.8-62,82.3-66.7c83.6-7.7,153,19.3,211.4,78.9
	c23.4,23.9,30.5,49.3,22.8,81.7c-19.1,80.8-36.5,162-54.6,243c-1.3,5.7-1.8,11.6-2.9,18.4c4.5,1.7,8,3.7,11.7,4.2
	c62.2,7.8,109,42,149.9,86.7c15.5,16.9,20,35.5,14.9,58.1c-25.9,113.1-50.7,226.4-76.7,339.5c-12.8,55.6-26.4,110.9-41.1,166
	c-5,18.7-2.4,31.6,12.4,44.9c21.5,19.3,40.7,41.3,61,62.1c14.2,14.6,18.4,31.5,16.5,52.1c-24.9,270.2-67.6,537.9-116.7,804.6
	c-57.1,310.1-129.6,616.7-209.4,921.6c-0.5,1.9-1.3,3.8-1.6,5.8c-7.8,41.1-27.6,72.5-63.7,96.7c-83.1,55.6-164.2,114.3-245.7,172.2
	c-18.8,13.4-38.5,14.2-60,10.9c-89.9-13.7-179.7-28.8-270-40.2c-164-20.7-328.7-30.8-494.1-25.9c-178.4,5.3-354.9,27.5-530,61.2
	c-42,8.1-77,4-112.7-21.4c-74.2-52.7-149.4-104.3-227-151.8c-42.6-26.1-64.1-59.5-76.7-107.3c-63.5-239.9-123-480.7-167.2-725
	c-34.2-189-67.3-378.2-96.8-567.9c-20.9-134.4-36.6-269.6-51.5-404.8c-9-81.7-10.1-61.9,42.3-110.1c10.3-9.5,20.4-19.4,31.5-27.8
	c16.6-12.6,19.8-27,14.4-47.2c-25.1-93.7-48.9-187.8-73-281.8c-25.3-98.8-50.5-197.7-75.7-296.5c-1.7-6.8-2.5-13.8-4.5-20.5
	c-8-26.7-0.8-48.3,18.7-68.1c57.6-58.4,124.2-93.8,208.9-85.9c5.9,0.6,12,0.4,17.9,0c1.7-0.1,3.4-1.9,7.2-4.3
	c-8.4-36-17.3-72.7-25.6-109.6c-15.7-70.3-30.2-140.9-47-210.9c-9.6-40-0.3-71.8,28.8-100.8c75.3-74.8,164.7-88,263.5-64.1
	c25.3,6.1,38.9,23.5,44.5,47.6c16.3,70.2,32.4,140.4,48.2,210.6c20.8,92.7,41.2,185.6,61.7,278.4c0.2,1,0.3,2,0.6,2.9
	c3.4,8.7,2.5,23.2,16.4,20.4c12.6-2.6,9.5-15.6,8.9-25.3c-6.8-108.8-13.8-217.7-20.5-326.5c-1.2-20-0.6-40-1.2-60
	c-0.6-18.9,7.1-33.1,23.9-41.6c61.2-30.9,125.9-48.6,194.2-36c36.9,6.9,72.3,22.7,108,35.4c23,8.2,35.1,26.3,37.5,50
	c3.5,33.8,6.4,67.7,8.7,101.6c3.9,58.9,7.1,117.9,10.7,176.8c0.2,3.8,1.2,7.6,6,11.9c1-10,2.6-19.9,3-29.9c4.3-98,8.2-196,12.7-294
	c1-22,4-43.8,6-65.7c2.5-28.3,15.8-49,41.9-61c76.6-35.2,154.5-55.6,237.3-20.7c22.1,9.3,44.6,17.6,67,26.2
	c30,11.6,43.3,33.7,42,65.4c-0.4,10,0.1,20-0.3,30c-3.7,99-7.3,198-11.3,297.1c-2.1,51-5,101.9-7.4,152.9
	C1988.5,814.3,1988.8,821.1,1988.8,832.5z M2954.5,1746.3c-22.1,3-38.8,5.8-55.6,7.5c-21.4,2.2-35.6,12.9-48.9,30.2
	c-33.6,43.5-67.4,87.2-105.4,126.8c-73.3,76.4-159.9,135.9-253.6,184.9c-117.4,61.4-241.9,100.2-374,112.5
	c-103.2,9.6-205.8,3.8-307.5-17.4c-164.9-34.4-312.3-104.5-440.9-213.4c-69.1-58.5-129.7-124.7-182.5-198.2
	c-6.7-9.4-15.8-21.2-25.6-23.3c-26.7-5.8-54.4-7.1-83.5-10.4c-1.4,16.3-2.8,28.1-3.3,40c-8.6,202.2-4.6,404.1,8.9,606.1
	c17.1,256,49.5,509.8,99.1,761.5c28.2,143.4,60.7,285.7,107.9,424.3c3.9,11.3,8.3,22.5,12.9,33.5c6.1,14.6,15.6,21.6,32.9,17.6
	c20.4-4.7,41.5-6.6,62.2-10.1c185.7-31.4,372.1-54.1,560.9-54.2c143.3-0.1,286.1,5.7,428.1,25.2c98.1,13.5,196,27.5,294,41.4
	c23.6,3.4,30.3,0.3,39.1-21.9c10-25.1,20-50.2,28.1-75.9c63.7-202.5,114.8-407.9,146.6-618c27.4-181,52.6-362.2,63.4-545.1
	c10.3-175,8.9-350.1,5.2-525.3C2962.4,1812.7,2957.6,1781.1,2954.5,1746.3z M681.9,1665.4c0,10.4-0.6,16.3,0.1,22
	c12.6,100.3,24.4,200.6,38.4,300.7c29.5,211.1,64.9,421.2,105.4,630.5c50.9,263.4,110.4,524.7,182.8,783.1c5.4,19.3,15,33.7,32,45.1
	c65.7,43.9,130.7,88.8,196.1,133.2c7.9,5.4,16.7,9.6,25,14.4c1.9-1.1,3.7-2.2,5.6-3.3c-91.4-299.3-147.5-605.6-183.4-915.8
	c-36.1-311.4-46.7-623.9-36.9-937.2C924.3,1713.6,804.9,1689.9,681.9,1665.4z M2761.9,3587.5c7.4-4.2,15.2-7.8,22.1-12.8
	c47.8-34.7,93.4-72.9,143.6-103.5c46.8-28.5,67.5-68.5,80.7-119.2c62.5-240,122-480.7,168.2-724.4c29.6-156.2,58.2-312.6,83.5-469.5
	c22.1-137.2,39.2-275.2,58.1-412.9c3.2-23.2,4.6-46.6,7-72.5c-116.7,24-228.7,47.1-341.7,70.3
	C3016.4,2371.7,2944.9,2985.2,2761.9,3587.5z M2178.1,2158.3c2.1-413.4,4.2-822.4,6.4-1232.3c-63.2-19.9-122.5-43.8-191.8-46.4
	c-0.7,24.5-1.9,46.2-2,67.8c-1.1,193.2-1.7,386.3-3.2,579.5c-1.5,197.2-4,394.3-5.8,591.5c-0.2,16.8,1.5,33.6,2.5,53.5
	C2049.4,2171.9,2111.7,2169,2178.1,2158.3z M1511.4,918.2c0,15.4-0.5,26.1,0.1,36.9c1.1,20,3.2,39.9,4.2,59.9
	c12,233.8,23.6,467.7,35.9,701.5c5.7,108.9,12.6,217.7,18.6,326.6c0.8,14.7,2.4,26.9,19.1,33.2c42.1,15.9,83.6,33.3,125.4,49.7
	c6,2.3,12.8,2.6,22.1,4.4c0-16.6,0.6-30.5-0.1-44.3c-2.4-43.9-5.7-87.8-7.9-131.8c-8.2-158.9-16.3-317.7-23.9-476.6
	c-5.3-109.9-9.4-219.9-14.5-329.9c-2.9-61.9-6.8-123.9-9.8-185.8c-0.6-11.8-2.4-21.7-15.7-25.4
	C1616.5,923,1567.1,918.8,1511.4,918.2z M2590.4,1980.9c9.8-4.6,13.8-5.6,16.8-7.9c58.7-43.9,112.4-93.4,159.8-149.2
	c8.5-10.1,13.7-24.7,16.2-38c9.5-50.1,17.9-100.4,25.5-150.8c30.6-204.7,60.6-409.4,91.1-614.1c10.7-71.5,19.4-55.5-46.3-83
	c-28.2-11.8-58.1-19.3-89.9-29.6c-4,12.6-7.8,21.7-9.6,31.2c-8,41.2-16.9,82.4-22.9,123.9c-16.1,110.8-29.4,222.1-46.5,332.8
	c-28,180.8-58,361.4-87.2,542C2595.2,1950.7,2593.2,1963.4,2590.4,1980.9z M2347.1,2113.6c57.3-20,105.6-43.5,152.8-69.2
	c4.9-2.6,8.2-10.9,9.3-17c1.5-8.7,0.2-17.9,0.2-26.9c1.1-254.9,2.2-509.9,3.7-764.8c0.1-14.9-3.1-25.4-18.4-29.8
	c-33.6-9.5-67-19.5-100.7-28.6c-6.5-1.8-13.9-0.8-20.9-0.6c-12.8,0.4-20.8,6.1-21,20c-0.1,6-0.4,12-0.5,18
	c-1.5,285-3,569.9-4.5,854.9C2347.1,2082.3,2347.1,2095.1,2347.1,2113.6z M1297.5,1857.3c2.8-1.1,5.5-2.2,8.3-3.2
	c0-9.6,0.5-19.3-0.1-28.8c-4.2-62.9-8.9-125.8-13-188.7c-7.3-113.8-14.9-227.7-21.3-341.6c-6.1-108.9-10.9-217.9-15.7-326.9
	c-0.7-15.6-6.4-24.3-21.6-27.3c-30.3-5.9-60.5-12.7-91-17.8c-16.2-2.7-32.8-2.8-53.8-4.4c10.9,264.9,28.2,524.9,38.4,787.3
	c10.4,1.3,19.2,3.9,27.8,3.2c21.6-1.8,36,7.7,47.8,24.7c14.1,20.6,29.1,40.7,44.2,60.6C1264,1815.7,1280.9,1836.4,1297.5,1857.3z
	 M2302.9,2128.7c3.1-418.2,19.4-831.7,11.1-1250.8c-30.1,13.9-55.7,26.9-82.2,37.7c-18.5,7.6-24.6,19-24.6,39
	c0.4,92.1-1,184.2-1.6,276.2c-1.8,296.3-3.6,592.5-5.3,888.8c-0.1,10.6,1.1,21.2,1.9,35C2237.4,2145.5,2269.1,2137.4,2302.9,2128.7z
	 M1976.7,308.1c-32.5,13.9-58.4,26.5-85.3,35.9c-23.8,8.3-30.8,23.3-31.6,47.5c-2.8,89-8.2,178-11.7,267
	c-4.4,112-11.8,224-10.6,335.9c1.3,107.9,12.8,215.7,18.3,323.7c9.6,188.9,18,377.9,27,566.8c2.4,51,5.4,102,8.1,153
	C1922.3,1463.5,1954.3,889.4,1976.7,308.1z M1534.8,2039.7c0-15.1,0.7-28.8-0.1-42.5c-7.3-124.9-15.7-249.7-22.2-374.6
	c-11.1-214.9-19.6-429.9-32.7-644.6c-3.7-60.2,13.2-101.3,70.2-123.1c13.7-5.3,16.8-14.9,15.3-28.6c-2.3-20.9-3.9-41.9-5-62.8
	c-5.2-98.9-9.9-197.9-15.3-296.8c-1-17.6-4.1-35.1-6.5-55c-12.1,0.8-21.3-0.1-29.5,2.3c-28.7,8.4-57.5,16.7-85.5,27.2
	c-28.6,10.7-28.1,11.8-26.3,41c11.3,179.8,23.9,359.5,33.4,539.4c9.8,186.9,16.4,373.9,24.7,560.9c5.5,125,14.2,249.9,16,374.9
	c0.6,44.6,16.7,68.4,55.8,81.6C1528,2039.4,1529,2039.2,1534.8,2039.7z M1863.4,2159.8c-18.8-423.3-38.3-841.1-64.4-1261
	c-30.6,3.7-52.1,18.6-74.7,30.7c-15,8.1-19.9,20.3-19.1,37.2c6.3,134.9,11.4,269.8,18,404.6c11.4,230.7,23.6,461.4,35.7,692.1
	c1.3,25.7,3.5,51.3,5.5,78.8C1797.6,2148.2,1827.8,2153.5,1863.4,2159.8z M1079.1,1483.3c1.8-0.4,3.6-0.7,5.3-1.1
	c-4.5-80.8-9.2-161.6-13.3-242.5c-3.7-72.9-6.6-145.8-10.2-218.7c-1.4-27.9-8-56.5-4-83.6c4.7-31.9,0-61.4-6.7-91.6
	c-27.2-123-54.2-246-81.4-369c-8.5-38.7-17.3-77.4-25.8-115.4c-38.1-5.2-109.2,3.3-138,14.8c-12.2,4.8-17.7,12.2-15.7,25
	c0.9,5.9,1.7,11.9,2.9,17.7c21.8,101.7,43.8,203.3,65.4,305c4.4,20.9,9.5,40.2,29.3,53.2c7.5,4.9,12.2,15.7,15.7,24.7
	c5.5,13.9,9.4,28.5,13,43c48.6,194,96.8,388,145.5,581.9C1066.1,1445.9,1073.1,1464.5,1079.1,1483.3z M1092.5,1700.5
	c-5.3-22.2-9.2-39.6-13.5-57c-66-267.9-132-535.8-198.3-803.7c-2.7-11-7.8-21.5-12.3-33.4c-42,14.1-74.6,36.8-106,61.5
	c-9,7.1-9.6,15.9-6.7,26.9c27.2,103.4,54.3,206.9,80.7,310.5c22.5,88.2,44,176.6,65.8,264.9c15.3,62.1,30.2,124.3,45.5,186.5
	c3.2,13.1,8.6,24.6,24.4,26.8C1010.5,1688.8,1048.8,1694.4,1092.5,1700.5z M2347.4,1137.7c37.1-16.3,68.4-28.9,98.5-44.1
	c6.7-3.4,11.1-15.9,12.1-24.7c2.6-21.8,1.8-44,3.8-65.9c9.1-101.6,19.3-203.1,27.8-304.7c9.6-114.6,17.7-229.3,26.4-344
	c1.3-16.9,3-33.9,2.8-50.9c-0.1-21.9-5.2-28.5-26.3-26.8c-31.8,2.4-63.3,8.1-94.8,13c-15.1,2.4-20.9,12.2-21.4,27.6
	c-1.3,35-3.8,69.9-6.6,104.8c-9.1,114.7-18.8,229.3-27.6,344c-2.2,28.8-3,57.9-2.2,86.8c0.7,23.8,6.4,47.5,6.9,71.2
	c1.2,54,0.5,108.1,0.6,162.1C2347.4,1101.8,2347.4,1117.6,2347.4,1137.7z M3128.7,905.6c-81.9,261.9-144.2,521.9-169.4,791.9
	c35.4-5.3,67-10.2,98.6-14.7c15.7-2.2,24.1-9.7,28.1-25.9c13.2-53.3,28.6-106.1,42-159.4c28.4-113.4,56.2-226.9,83.7-340.5
	c12.9-53.4,23.7-107.3,37.6-160.4c5.8-22.1-0.1-27.6-17.8-38.4c-16.2-9.9-32.7-19.3-49.6-27.9
	C3166.2,922.1,3149.8,915.3,3128.7,905.6z M1373.4,908.3c-2.9-1.7-5.8-3.4-8.8-5c-22.7,11.7-45.2,23.8-68.1,35.1
	c-14.2,7-20.2,16.5-19.1,33.1c3.9,58.9,6.1,117.9,9.5,176.9c11,189.8,22.2,379.7,33.5,569.5c2.8,46.9,6.3,93.9,9.7,140.8
	c1.2,17,2.5,34.5,16.9,46.6c28.2,23.9,56.7,47.4,85.3,70.8c0.7,0.6,3.3-1.1,6.9-2.4C1417.3,1618.9,1395.4,1263.6,1373.4,908.3z
	 M1813.3,859.9c1.8-16.2,3.7-27.8,4.2-39.4c3.1-66.9,5.4-133.8,8.9-200.6c4.3-80.8,9.4-161.6,14.6-242.3c1-15.4-4.3-24.6-19.4-29
	c-47.9-14-95.6-28.7-143.5-42.6c-5.3-1.6-11.5-0.2-21.2-0.2C1638.5,478.6,1639,651,1627,825C1693,820.4,1751.9,832.5,1813.3,859.9z
	 M927,1673.5c-62.1-268.1-129.3-529.7-199.5-792.7c-40,1-77.2-7.7-117.3,0.5c2.1,10.9,3.4,19.5,5.4,27.9
	c34.6,138.6,69.2,277.3,104.2,415.8c25.7,101.7,52,203.2,77.7,304.9c2.7,10.6,6.9,18,18.6,20.3
	C851.3,1657.3,886.2,1664.9,927,1673.5z M2652,1354.9c22-75.9,26.7-154.6,30-233.2c6.8-158.8,11.6-317.8,17.7-476.6
	c0.6-14.8-3.3-24.8-17.1-31.3c-39.4-18.4-81-28.2-123.7-34.4c-14.3-2.1-20.7,4.1-21.7,17.5c-1.8,23.9-4.4,47.8-5.1,71.8
	c-4.1,132.9-7.8,265.9-11.5,398.9c-0.2,8.7,0,17.5,0,26.6c11,3.9,19.3,7,27.8,9.7c14.3,4.6,28.7,8.5,42.9,13.4
	c44.4,15.4,57,31.9,59.7,78.8c1,18,1.1,36,1.1,54C2652.2,1285,2652,1320,2652,1354.9z M3031.6,949.2c-25.3-5-44.9,3.4-65.2,6.9
	c-24.7,4.2-35.1,17.9-38.6,41.9c-14.1,97-29.5,193.8-44.4,290.6c-21.8,142.3-43.7,284.7-65.4,427.1c-1.5,9.8-1.6,19.8-2.4,29.8
	c1.9,1.1,3.8,2.2,5.7,3.3c22.5-41.7,62.6-39,102.4-41.2C2959.9,1453.9,2995.7,1202.2,3031.6,949.2z M2313.4,833.7
	c13.6-182,31.6-359.6,40.9-535.7c-37-24.9-88.5-49.6-110.6-52.4C2227,427.3,2215,609.2,2199,790.8
	C2237.7,805.3,2273,818.6,2313.4,833.7z M3107,1673.4c30.4-6.2,54.6-12,79.1-15.8c14.3-2.2,20.7-10,24-22.8
	c10.2-39.7,21.6-79.1,30.9-119c39.6-170.3,78.7-340.8,117.7-511.2c1.8-8,1.2-16.6,1.9-26.7c-25.8,2.7-47.6,5-69.4,7.4
	c-11.4,1.3-17,8-19.7,19.2c-13.9,58.3-28,116.6-42.6,174.7c-33.3,132.9-67,265.6-100.2,398.5
	C3121.3,1607.5,3115.1,1637.7,3107,1673.4z M2618.3,1174.8c-24.5,11.5-44.1,21.3-64.1,29.9c-16.7,7.2-23.4,18.2-23.4,37
	c0.9,249.2,1.1,498.4,1.7,747.6c0,8.4,1.8,16.8,3,26.6c17.2-4.5,19.3-16,21.3-27.9c13.9-84.8,27.8-169.6,41.8-254.4
	c9.6-58.2,19.6-116.1,19.5-175.6c-0.2-119,1.9-238.1,3-357.1C2621.2,1194.1,2619.7,1187.4,2618.3,1174.8z M3043.7,913.1
	c5.4-18.7,8.8-29,11.3-39.4c12.1-49.4,23.9-98.9,36.2-148.2c12.5-50.3,25.5-100.5,38.5-150.7c2.8-11,5.5-21.5-5.3-30
	c-36.8-29.2-78.1-50.3-122.6-70.9c-4.3,9.7-8.6,16.4-10.5,23.7c-26.4,103.5-52.6,207-78.4,310.5c-2.5,10.2-2.5,21-3.8,33.5
	C2960.8,851,3005,870,3043.7,913.1z M1057.8,309.1c-10.4,2.9-14.5,3.3-18,5.1c-15.2,7.7-30.4,15.3-45.2,23.7
	C967,353.4,967.2,353.6,974,385c31.4,144.7,62.7,289.4,94.1,434c4.2,19.2,8.9,38.4,13.6,58.4c32.5-16.6,63-32.2,95.3-48.7
	C1137,655.6,1101.6,482.7,1057.8,309.1z M1391.7,874.8c1.7-1,3.5-2.1,5.2-3.1c0-9.7,0.6-19.5-0.1-29.2c-4.2-62.8-8.7-125.6-13-188.4
	c-3.9-56.8-7.2-113.7-11.8-170.4c-0.9-11.3-3.2-27.5-10.7-32.4c-34.3-22.2-72.6-35.6-112.9-42.2c-8,27.5,9.4,380.8,19.8,417.1
	C1310.1,839.7,1357.3,840.3,1391.7,874.8z M3054.2,998.5c2.1,0.6,4.3,1.2,6.4,1.8c3.7-7.8,8.1-15.4,10.9-23.5
	c8.6-24.5,17.3-49,24.5-73.9c8.4-28.9,23.7-46.4,56.8-47c26.8-0.5,28.4-4.7,34.7-31.9c17.5-76.9,35.3-153.7,52.8-230.6
	c2.4-10.3,3.9-20.9,6.3-34.5c-24.1,1.7-44.7,3.1-65.3,4.6c-27.5,2-27.4,2.1-33.7,27.9c-22,89.2-44.8,178.2-65.8,267.6
	C3071,905.1,3063.3,952,3054.2,998.5z M2714.5,937c8.4-54.4,47.7-75.8,95.1-88.1c1.4-30.6,2.9-58.5,3.8-86.4c1-29,2.4-58,1.7-86.9
	c-0.7-27.2,6.4-54.9-2.8-86.2c-16.9,6.5-31.2,13-46.1,17.4c-35.2,10.4-48.5,30.2-47.5,69.6C2721,763.2,2716.3,850.1,2714.5,937z
	 M2294.8,859.1c-14.6-6.2-23.2-10.8-32.4-13.6c-23.8-7.5-48.1-13.3-71.7-21.4c-57.8-19.8-105.6,5.4-155.9,29.9
	c4.1,4.1,5.2,6.2,6.8,6.7c43.8,13.4,87.6,26.8,131.5,39.7c9.4,2.7,21.1,7.1,28.9,3.8C2231.7,891.6,2260.3,876.2,2294.8,859.1z
	 M1695.2,282.9c18.2,5.5,30.4,9.1,42.5,12.9c30.4,9.5,61.6,17,90.8,29.3c19.8,8.3,35.9,6.8,53.9-2c16.9-8.3,34.7-14.9,51.9-22.7
	c4.7-2.1,8.9-5.5,17.1-10.6C1866.5,249.9,1785.8,234.4,1695.2,282.9z M1925.1,2170.4c27-2.2,26.9-2.2,27-25
	c0.3-119.1,0.7-238.2,0.9-357.3c0.1-81.9,0-163.8,0-245.7c-1.6-0.1-3.2-0.1-4.8-0.2C1940.6,1750.8,1932.9,1959.4,1925.1,2170.4z
	 M1127,894.4c4.6,1.4,8,2.7,11.6,3.5c28.3,5.7,58.4,6.8,84.5,17.7c49.2,20.7,77.6-11.7,114.3-33.1
	C1273.4,845.3,1181.5,846.8,1127,894.4z M1494.7,388.3c-68.2-39.3-165.6-38.6-214-1.1c29.4,12.6,59.2,25.9,89.5,37.8
	c6.7,2.6,16,2.5,22.9,0.2C1425.9,414.1,1458.3,401.7,1494.7,388.3z M825.1,789.9c-74.1-21.4-155.2,4.7-188.8,61
	c27.5,2.8,54.1,6.5,80.8,7.6c9.1,0.4,19.6-3.7,27.5-8.8c25-16.2,49.2-33.7,73.5-50.9C820.8,796.9,822.5,793.3,825.1,789.9z
	 M1772,880.2c-64.8-38.1-168.9-30.4-217.5,15.4c9.4,1.2,16.9,2.1,24.4,3c23.6,3.1,48.5,2.5,70.7,10.1
	C1697.1,925,1730.3,894.9,1772,880.2z M2789.1,569.7c-58.6-42.8-149.1-54.2-205.7-16.8c38.6,14.6,79.1,30,119.8,44.9
	c5.2,1.9,12.3,2.3,17.3,0.3C2743.4,589.3,2765.8,579.5,2789.1,569.7z M2598.7,1157.6c-64.9-45-138.7-44.1-192.9-6.5
	c35.9,13,71.9,26.5,108.4,38.6c6.6,2.2,15.9,0.4,22.7-2.6C2556.8,1178.6,2576.2,1168.5,2598.7,1157.6z M2800.6,891.6
	c30.9,12.5,60.8,21.1,87.1,36c40.6,23,75,1.4,114.3-6C2950,865.3,2861.6,866,2800.6,891.6z M2474.1,246.7
	c-51.5-46.2-151.3-51.7-194-20.9c25.7,14.4,51.3,29.3,77.7,42.9c6.4,3.3,15.5,4.4,22.5,2.7C2411.2,264.1,2441.7,255.4,2474.1,246.7z
	 M3233.4,530.9c-55.6-55.7-113.3-86.3-188.7-72.9c1.3,4.2,1.2,6.8,2.4,7.6c30.4,20.8,60.5,41.9,91.5,61.6c8.8,5.6,20.1,10,30.2,10
	C3188.3,537.1,3207.7,533.6,3233.4,530.9z M3170.6,895.7c22.8,13.7,46.3,24.9,66.4,40.5c31.7,24.6,64.9,24.9,100.8,14.1
	C3304.6,892.1,3225,865.6,3170.6,895.7z M1018.4,288.7c-54.6-20.8-150.2,3.4-193.7,53c12.4-0.9,23-1.5,33.5-2.6
	c17.8-1.9,35.9-7.5,53.2-5.4C956.3,339.2,985.1,311.9,1018.4,288.7z M3309.3,1630.8c0.6-2.7,1.2-5.3,1.8-8
	c-16-15.2-32.1-30.4-53.1-50.3c-6.1,27.5-10.6,47.9-16.3,73.4C3267.9,1640.1,3288.6,1635.4,3309.3,1630.8z M763.6,1640.8
	c-6.3-24.6-10.8-42.6-16.6-65.5c-18.8,17.5-32.9,30.7-51.5,48C720,1629.6,738.4,1634.4,763.6,1640.8z M2487.9,1028
	c-0.5,0-1.1,0-1.6,0c-0.8,17.2-1.5,34.3-2.3,51.5c1.3,0,2.6,0,3.9,0.1C2487.9,1062.3,2487.9,1045.1,2487.9,1028z"/>
<path d="M2274.1,2654c0.5-71.6,52.1-122.2,124-121.4c69.3,0.7,129.8,61,128.7,128.2c-1.3,71.2-54.6,121.9-128.7,122.1
	C2324.9,2783.1,2273.6,2729.8,2274.1,2654z M2467.6,2617.7c-0.3-23.4-21.1-42.5-45.3-41.8c-25.1,0.8-46.1,23.7-45.5,49.7
	c0.6,22.9,17.1,39.1,39.9,39.3C2445.1,2665.2,2468,2644,2467.6,2617.7z M2355,2703.4c-1.5-2.2-2.5-5-3.4-4.9c-2.7,0-5.4,1.2-8.1,1.9
	c1.3,1.9,2.4,5.3,4,5.5C2349.7,2706.2,2352.3,2704.4,2355,2703.4z"/>
<path d="M1609.7,2782.1c-66.7,1.5-121.1-54.1-122.7-125.4c-1.6-68.4,50.7-122.8,119.1-124.1c71.7-1.3,132.4,53.9,133.9,121.9
	C1741.7,2725.8,1685.9,2780.3,1609.7,2782.1z M1679.9,2623.6c0.4-25.8-17.1-45.6-40.7-45.9c-29-0.4-49.9,19.4-50,47.5
	c-0.2,25.8,18.9,44.1,45.8,43.9C1661.3,2668.9,1679.4,2650.5,1679.9,2623.6z M1544.5,2705.2c1.2,2.3,2.4,4.7,3.6,7
	c4.4-2.4,8.8-4.8,13.3-7.3c-1.4-2.2-3.6-6.5-3.9-6.3C1552.9,2700.4,1548.7,2702.9,1544.5,2705.2z"/>
<path d="M2016.4,2923.4c-89.9-3.4-151-57-161.6-146.9c-2-17.1,4.2-25.6,16.7-26.8c14.4-1.4,18.8,7.7,21.6,19.5
	c3.9,16.5,6.8,33.5,13.3,48.9c17.8,42.5,60.8,67.4,108.4,64.6c48.6-2.9,83.5-29.1,97.9-74.8c4.2-13.3,6.4-27.2,8.8-40.9
	c2.2-13,8.8-19.8,22.3-18.4c13.6,1.4,18.4,10.1,18.7,22.7c1.8,62.4-48.1,129.7-109.1,145.9C2039,2921,2023.9,2922.2,2016.4,2923.4z"
	/>
</svg>
