<?xml version="1.0" encoding="utf-8"?>
<!-- Generator: Adobe Illustrator 24.3.0, SVG Export Plug-In . SVG Version: 6.00 Build 0)  -->
<svg version="1.1" id="Layer_1" xmlns="http://www.w3.org/2000/svg" xmlns:xlink="http://www.w3.org/1999/xlink" x="0px" y="0px"
	 viewBox="0 0 4000 4000" style="enable-background:new 0 0 4000 4000;" xml:space="preserve">
<path d="M2353.1,2847.6c7.8,0,15.5,0,23.3,0c18.3-0.1,36.8-1.4,55-0.1c51.8,3.6,69.2,16,91.1,62.6c41.5,2.6,83,5,124.5,7.8
	c58.9,4,111.5,22.6,153.5,66c16.9,17.4,38.7,25.3,61.2,32.8c26.9,9,53.6,19.1,79.6,30.5c20.9,9.1,34.3,25.8,36.2,49.3
	c1.1,14.1,7.8,21.3,20.5,26.9c112.1,49,205.1,124.3,288.1,212.8c37.7,40.2,73.1,82.5,96.8,132.9c8.2,17.4,14.5,36,18.6,54.7
	c9.9,45.9-8.7,87.8-48.2,113.3c-27,17.4-56.9,27.5-88.1,33.3c-129.9,24.5-260.9,32.1-392.5,18.1c-28-3-55.4-12.8-82.5-21.4
	c-18.9-6-36.6-6.4-56.5-4.6c-47.6,4.2-95.6,3.6-143.5,4.3c-65.1,1-124.7-17.3-178.7-53.7c-15.4-10.4-29.7-14.3-48.4-6.5
	c-12.5,5.2-28,5-42.1,4.4c-78-3.2-153.5-19.4-225.8-49.1c-15-6.1-29.9-13.6-42.9-23.1c-18.7-13.7-37.6-17.1-60.3-13
	c-19.8,3.6-40.6,4.5-60.7,2.9c-84.3-6.6-168.6-13.8-252.7-22.4c-34.4-3.5-68.2-11.7-102.5-16.3c-14.8-2-31.5-4.3-45,0.2
	c-92.1,31-184.4,28.4-277.2,5.2c-25.6-6.4-51.8-12.9-75.6-23.8c-87-39.8-175.4-76.7-257.8-126.3c-176-105.9-305.2-252.3-386.7-440.7
	c-40.3-93.2-67.7-190-75-291.7c-5.1-70.8-1.4-140.7,29.7-206.4c5.3-11.1,5-21.2-1.1-31.9c-24.7-43.6-10.8-80,21.5-109.7
	c13.6-12.5,19.2-24.1,12.5-42.5c-11-30.3-5-60.2,7.1-89.2c16.8-40.3,43.9-73.5,73.4-104.5c18.6-19.5,26.9-37.5,17.4-65.2
	c-8.9-25.8-1.8-52.5,22.7-67.5c55-33.6,88.5-86.2,125.4-136c28.5-38.5,56.9-77.1,87.7-113.8c20.1-24,43.5-45.5,67.2-66.1
	c11.1-9.6,18-18.5,16.3-33.3c-0.7-6-0.1-12.2-0.2-18.3c-0.8-58.6,28.2-98.1,79.1-123.5c28.3-14.1,56.6-28,84.9-41.9
	c34.3-16.8,63.1-40.7,90.6-66.8c25.8-24.5,51.2-50.7,81.2-69.2c221.6-136.7,456-243.8,712.2-297.4c50.9-10.7,98.3-23.8,135.3-62.6
	c7.6-8,17.7-13.7,27-19.9c47.5-31.9,96.8-48.7,152.1-14.8c9.5-7.3,17.7-15,27.1-20.6c25.3-14.9,49.7-32.7,77-42.4
	c53.7-19.2,104.4-11.4,147.5,31.2c5.8-2.8,12-4.3,16.1-8.1c51.7-47.7,103.9-94.9,145-152.7c30.9-43.5,58.3-88.9,64.4-143.4
	c2.1-19.1,3.5-38.9,1-57.7c-4.7-35.1-0.7-69.2,6.5-103.2c23.8-111.8,119.9-188.1,235.9-187.9c114.1,0.1,207.8,76.6,231.3,189
	c3.7,17.7,6.7,35.6,10,53.3c23.5,3.2,44.8,5.2,65.7,9.1c97.8,18.1,171.9,97.5,181,193.5c11.6,122-62.2,232.2-181.2,264
	c-46.9,12.5-96,17-144.4,23.7c-34.2,4.7-65.4,16.1-92.5,37c-69.8,54-117.8,125.6-163.2,200.6c4.3,4.6,6.4,8.3,9.7,10
	c47.6,25.1,60.1,68.5,54.6,116.6c-4.2,37.1-14.9,73.8-26.1,109.5c-10.1,31.9-24.3,62.7-37.9,93.4c-7.4,16.8-9.1,32.3-2.8,50
	c23.3,65.1,20,130.7-1.8,195c-9,26.6-22.8,52.1-37.8,76c-9.8,15.6-15.9,29.2-11.9,47.9c12.9,60.6,3.7,119.6-15.3,177.6
	c-0.6,1.9-1.1,4-2.2,5.7c-26.4,40.7-29,87.1-36.2,133.4c-13.6,87.1-48.9,165.6-111.4,230.2c-6.2,6.4-11.8,18.1-10.6,26.3
	c3.8,25.9-4.6,48.4-15.5,70.3c-6.3,12.7-14.3,24.8-23.3,35.8c-71,86.7-142.3,173.2-213.8,259.6c-24.8,29.9-51.9,57.6-85.8,77.4
	c-3.5,2.1-7,4.3-10.5,6.4C2350.6,2842.1,2351.8,2844.9,2353.1,2847.6z M2809.4,1993c2.2-2.3,3.9-3.5,4.9-5.2
	c1.5-2.6,2.7-5.5,3.7-8.3c19.7-51.7,24.5-104.8,14.5-159.3c-2.9-16-6-32-7.9-48.2c-1.5-12.4,2.5-22.6,17.1-23.9
	c15.5-1.4,23-11.7,28.3-24.5c5.4-13.2,11.7-26.1,15.5-39.8c17.6-63.4,20.2-126.5-4.7-188.9c-6.1-15.2-9.3-29.4-1.1-46.7
	c20.8-44.1,39.9-89.2,57.1-134.8c8.2-21.6,12.4-45.3,15.1-68.4c8.2-69.3-28.7-95.1-85.2-79.5c-19.9,5.5-24.8,2.4-28.8-15.9
	c-11.5-51.7-45.6-80.6-94.3-93.8c-33.8-9.2-65.1-22.6-94.6-41.5c-16.1-10.4-33.1-17.6-54.6-11.7c-24,6.6-34.4-1.8-37.5-26.6
	c-2-16.1-1.4-32.6-1.3-48.8c0.2-33.9-10.8-63.5-31.3-90.6c-21.6-28.6-48.9-37.4-83.3-30.7c-39.3,7.7-72.1,28.1-102.4,52.2
	c-21.6,17.2-42.3,23.1-66.9,7.8c-16.8-10.5-35.1-10.2-53-3.5c-14.2,5.3-29,10.6-41.4,19.1c-22.7,15.4-44.2,32.6-65.4,50.2
	c-18.6,15.4-39.2,24.7-63,28.7c-179.2,30.6-348.3,92.2-511.1,171.1c-78.7,38.1-153.3,84.6-229.1,128.5
	c-19.1,11.1-37.9,24.7-52.7,40.8c-42,45.7-90.5,81.7-146.4,108.5c-28.4,13.6-55.3,30.4-83.1,45.5c-30.7,16.6-47.2,40.8-43.5,77
	c1.1,11.1,0.2,22.4,0.1,33.6c-0.1,22.4-9.6,40.1-29.4,50c-26.5,13.2-45.8,33.7-63.5,56.3c-26.3,33.7-52.3,67.7-78.2,101.8
	c-41.8,55-77,115.4-137.1,154.6c-19.9,12.9-21.1,29.5-6.7,50.4c9.6,13.9,7.6,22.9-2.3,34.8c-19.5,23.5-38.1,47.8-56.3,72.4
	c-13.9,18.8-28,37.7-39.7,57.9c-14.5,24.8-17.4,52-7.6,79.6c3.6,10.2,13.8,21.4,11.5,29.5c-2.9,10.3-15.3,17.9-23.7,26.6
	c-2.1,2.2-4.6,4-6.8,6.1c-29.3,27.5-33.7,48.9-13.9,83.9c7.1,12.6,6.2,21.8,0.7,34c-7.4,16.6-13.6,34.1-18,51.8
	c-21.2,84-15.4,168.5,2.8,251.6c61.1,277.7,217.5,485.5,465.7,623.8c46.1,25.7,95.6,45.4,142.1,70.6
	c109.7,59.3,225.7,79.6,348.7,60.8c7.4-1.1,14.4-4.4,22.6-7c-6.7-15.1-30.8-15.3-23.9-40.2c23.7,8.3,45.9,17.2,68.9,23.7
	c23.5,6.6,47.5,11.6,71.5,16c24,4.4,48.3,7.7,72.5,10.5c23.3,2.6,46.7,4,70,5.8c24.4,1.9,48.8,3.7,73.2,5.6
	c24.4,1.9,48.7,5,73.1,5.4c23.2,0.4,47,7.7,75.1-2.4c-18.3-16-33.2-28-47-41.2c-13.6-13.1-33.5-22.6-31.9-47.6
	c4.9,0.9,8.4,0.6,10.6,2.2c8.3,5.9,16.5,11.9,24.1,18.7c104.4,92.5,227.3,141.3,365.2,154.5c14.6,1.4,29.5,0.2,47.7,0.2
	c-16.1-33.3-57.9-39-62.7-80.5c9.8,4.8,16,6.9,21.3,10.6c23.4,16.2,45.7,34.3,70,49.2c51.2,31.4,101.8,66.5,163.2,73.1
	c53.5,5.8,107.7,5.6,161.6,7.7c2.5,0.1,5.1-2.7,10.6-5.7c-15-13.9-29.6-26-42.5-39.9c-12-13-31.9-21.6-30.3-48.2
	c9.7,5.6,16.9,9,23.1,13.7c13,9.8,25.2,20.7,38.2,30.5c67.7,50.5,144.8,73.1,228.3,76.2c91.9,3.3,183.4-3.9,274.7-12.9
	c42.5-4.2,84.7-13.1,123.5-32.6c34.5-17.4,46.7-43.4,37.7-80.7c-2.9-11.8-6.6-23.9-12.7-34.2c-15-25.4-29.1-51.9-47.9-74.3
	c-92-109.5-195.1-205.4-331-259c-22.6-8.9-36.4-23.2-32.7-48.4c2.8-18.6-7.3-26-21.8-31.3c-22-8-43.7-17.1-66.3-23.3
	c-34.3-9.5-64-25.9-89.4-50.7c-19.5-19.1-42.8-31.9-69.4-36.2c-34.1-5.5-68.5-9.5-102.9-12.3c-25.3-2.1-50.9-1.1-76.4-1.5
	c-14.9-0.2-24.4-6.2-28.7-21.8c-10.2-36.7-12.3-38.9-49.4-40.8c-34.6-1.8-69.3,0.3-103.9-1.9c-21-1.3-40.4,0.5-59.3,9.7
	c-14.7,7.1-29.6,13.7-44.8,19.5c-34.2,13-68.6,25.7-103,38c-12.2,4.3-24.9,7.8-37.4-1.1c9.9-14.2,9.8-14.5,19.3-17.9
	c59-20.7,113-51.3,166.6-82.8c22.5-13.2,37-31.3,44.7-55.6c3.4-10.7,5.8-21.7,10.1-32c2.4-5.7,7.7-10.2,11.7-15.2
	c2.2,0.4,4.4,0.7,6.6,1.1c2.1,11.7,4.2,23.5,6.7,37.7c26.6-16.4,45.6-37.5,63.6-59.2c74.8-90.1,149.1-180.8,223.4-271.4
	c24.7-30.2,36.8-63.1,21.6-102c-2.9-7.5-4.7-15.9-4.7-23.9c-0.1-13.5-8.2-28,5.4-42.7c5.5,4.8,11.1,8.6,15.2,13.6
	c4.2,5.1,7,11.4,10.7,17.5c4-2.8,7-4.1,8.8-6.4c71.3-90.2,109.2-190,87.1-306.8c-2.3-12.3-2.6-24.9-3.9-37.4
	c2.4-1.2,4.8-2.4,7.2-3.7C2791.3,1976.7,2799.6,1984.2,2809.4,1993z M2874.2,1119.3c11.5-15.5,19.9-25.2,26.5-36
	c37.3-60.9,76.2-120.8,127.7-171c41-40,88.7-67.9,146.9-75.2c40.4-5.1,81.4-7.9,120.9-17.1c85.7-20,146.1-68.6,168.2-158.1
	c18-72.7-13.7-163.8-91.8-200.4c-34-15.9-69.2-23.7-106.2-25c-48.6-1.8-48.5-1.8-51.4-49.1c-2.7-44.7-14.5-86.5-42.4-122.3
	c-47.5-61.1-130.7-87.6-205.9-66.1c-76.2,21.8-134.2,86.7-142.4,163c-3.2,30.2-1.8,61.1-1.5,91.6c0.5,48.9-10.7,94.9-31.7,138.7
	c-38.2,79.6-97.1,142.8-160.3,202.6c-12.6,11.9-25.5,23.4-38.4,35c-11.2,10.1-12.7,19.8-6.9,35c7.8,20.5,10,43.1,14,65
	c1.4,7.8,1.2,15.9,1.6,22.5c28,11.1,54.2,21.5,80.4,32c23.6,9.4,46.5,21.1,70.8,27.9C2807,1027.6,2850.6,1055.4,2874.2,1119.3z"/>
<path d="M1819.1,2373.4c69.6,0,130.8,57.3,128.5,124.3c-3,87.2-65.8,132.8-124.5,132.3c-66.5-0.6-123.9-63.7-122.9-134.7
	C1701.1,2426.5,1753,2373.4,1819.1,2373.4z M1892.4,2468c0.1-25.5-19.4-47.3-42.1-47.3c-25.9,0-48.5,24.1-49.3,52.3
	c-0.7,25,18.2,42.7,45,42.2C1870.7,2514.9,1892.3,2492.9,1892.4,2468z"/>
<path d="M908.5,2394.3c-1-75.8,55.1-123.5,119.1-122.9c69.9,0.6,130.9,60.4,130.5,127c-0.4,69.2-62.3,130.4-132.8,127.4
	C953.2,2522.8,909.1,2478.1,908.5,2394.3z M1104,2363.5c0.5-22.7-21.5-44.8-44.4-44.9c-27,0-47,20.4-47.4,48.5
	c-0.4,25.4,17.7,45.2,42.3,46.2C1082.3,2414.4,1103.4,2393.2,1104,2363.5z M967.9,2436.8c-3.7,4.2-7.5,6.6-7.5,9.1
	c0,2.5,3.6,7,5.8,7.1c2.7,0.2,7.6-3,8-5.3C974.6,2445.2,971.1,2441.9,967.9,2436.8z"/>
<path d="M1812.6,1158.4c23.8,1,39.9,9.7,50.2,28.5c9.9,18,9.5,37-3.8,51.4c-13.5,14.5-30,27.5-47.5,36.8
	c-64.7,34.4-131,65.8-195.5,100.6c-38.5,20.7-74.5,46-112.2,68.1c-13.9,8.1-29.1,15.4-44.6,19c-34.4,8.1-60.2-16.3-57.1-51.5
	c2-22.9,14.2-40.4,31.4-54c22.3-17.7,45.1-35,68.9-50.6c83.8-54.7,171.1-102.6,265.8-136C1783.5,1165.2,1799.5,1161.9,1812.6,1158.4
	z M1452,1447.3c13.7-6.3,28.6-10.7,40.8-19.1c94.3-64.6,195.3-117,298-166.6c14.6-7,28.7-15.5,41.7-25.1
	c14.6-10.8,18-26.3,11.5-40.4c-6.8-14.8-20-17.3-33.4-14.7c-18.8,3.7-37.8,8.3-55.6,15.3c-91.1,36.1-177.2,82-258.5,136.5
	c-20.2,13.5-39.5,28.6-58,44.5c-15.2,13.1-19.1,30.6-12.6,50C1429.8,1439.9,1437.2,1446.6,1452,1447.3z"/>
<path d="M1415.2,2707.1c-102.5-5.1-150.4-77.6-151.6-164.4c-0.3-19.1,6.2-27,18.2-25.8c15.3,1.5,18.9,12,20.2,25.7
	c1.5,16.1,3.1,32.6,8.1,47.8c15.7,47.1,54.5,74.7,103.4,75.7c51.5,1.1,90.8-24.4,109.7-71.5c3.8-9.4,6.8-19.1,10.9-28.5
	c4.6-10.8,12.7-15.6,24.5-11.5c12,4.1,14.8,13.3,12.1,24.4C1553.8,2646.2,1507.3,2708.9,1415.2,2707.1z"/>
<path d="M1268.4,1487c33.1-0.4,57.2,21.9,57,49.3c-0.1,15.5-6.2,31.5-12.5,46c-4.3,9.9-13.1,18-20.8,26.1
	c-50.7,52.9-101.4,105.8-152.6,158.1c-11.3,11.5-23.6,22.8-37.3,31.1c-20.3,12.3-42.7,14.2-63.7,0.8c-21.2-13.6-23.9-35.8-18.4-57
	c5-19.2,13.4-38.8,25-54.7c49.6-67.8,110.2-125.1,176.8-175.9C1237.6,1498.8,1257.5,1492.4,1268.4,1487z M1308.1,1550
	c0.4-29.5-20.1-46.4-42.9-40.4c-9.6,2.5-19.5,6.9-27.3,13c-69.4,53.8-132,114.7-185.1,184.8c-11.3,14.9-17.8,32-15.3,51.4
	c2.3,18.4,12.8,29.1,30.7,25.8c14.4-2.6,31-7.9,40.9-17.7c62.6-62.4,124-126.2,184.9-190.2C1301.9,1568.2,1305.2,1555.6,1308.1,1550
	z"/>
<path d="M2513.8,3090c9.5,0,19.5-0.8,29.2,0.1c88.8,9,173.7,32,253.3,72.5c22.4,11.4,43,27.1,63,42.6c18,14,30.5,33.1,34,56
	c0.9,5.8-6.5,12.9-10,19.3c-3.7-5-10.4-9.9-10.6-15c-0.9-21.5-12.5-35.9-27.9-48.5c-35.8-29.4-76.9-49.3-119.8-65.4
	c-62.2-23.3-126.9-35.8-192.8-43C2522.5,3107.6,2510.2,3109.7,2513.8,3090z"/>
<path d="M2619,1672.8c2.1,3.3,5.4,6.3,6.2,9.9c22.4,107.5,25.8,213.8-19.8,317.2c-12,27.2-30.4,47.4-61.5,65.3
	c4.4-9.7,5.8-14.7,8.6-18.5c60.1-81.3,77.4-173,66.6-271.6c-2.1-19.2-5.6-38.3-7.1-57.5c-1.2-14.5-0.2-29.1-0.2-43.7
	C2614.2,1673.5,2616.6,1673.2,2619,1672.8z"/>
<path d="M2515,2080.8c10.4,11.2,16.2,19.8,24.1,25.5c16.2,11.7,22.1,27.2,17.2,45.4c-7.1,26.4-14,53.4-25.6,77.9
	c-25.4,53.8-60.4,101.4-103.9,142.3c-10.5,9.9-21,22.2-44.2,19.3c7.4-8.7,11.6-14.7,16.8-19.6c39.1-36.2,72.4-76.9,99.8-122.9
	c17.5-29.4,28-60.8,35.6-93.7c4.6-19.9,2.3-36.2-16.5-47.6c-4.2-2.5-9.3-6.8-9.9-10.9C2507.6,2092.2,2512,2087.2,2515,2080.8z"/>
<path d="M2937.3,3303.2c64.9-8.8,162.8,97.7,153.6,163.6c-6.1-6.7-12.2-10.4-13.9-15.6c-19.5-60.9-61.2-101.9-115.7-132
	C2952.9,3314.5,2945.2,3308.5,2937.3,3303.2z"/>
<path d="M735.6,2809.9c-27.2,73.7,5.6,86.8,55.3,73c-3.5,8-4.4,15.9-8.6,18.8c-16.8,11.2-35.2,9.1-52.1,0.3
	c-18.9-9.8-28.2-27.4-26.3-47.9C705.6,2835.2,712.8,2817.5,735.6,2809.9z"/>
<path d="M880.8,1954.7c-4.2,19.5-26.2,32.3-17.9,55.6c8,22.4,27.9,23,48.3,25.8c-15.3,16.5-26.9,18.5-44.3,10.5
	c-19.1-8.8-30.1-31.1-26.3-53.5C844.4,1970.5,856.5,1958.4,880.8,1954.7z"/>
<path d="M2056.3,1910c-24.4,12-43.8,23.2-39.3,49.4c4.1,24.1,26.8,16.4,43.4,22.3c-1.6,4.2-2.6,10.3-4.2,10.5
	c-11.7,1.1-24.4,4-35.1,0.7c-21.4-6.8-30.5-35.2-21.6-59.4C2008.6,1909.3,2028.1,1899.3,2056.3,1910z"/>
<path d="M2064.5,1103.4c-11,8.2-18.6,12.9-24.9,18.8c-15.5,14.4-13.7,28.3,4.4,38.6c6.5,3.7,13.1,6.9,21.8,11.5
	c-21.7,10.8-37,9-48.9-3.4c-12.6-13.1-13.9-33.2-3.4-50.6C2023.9,1101,2037.3,1096.1,2064.5,1103.4z"/>
<path d="M2119.5,1685.1c-22.4,12.9-37.1,12.1-49.3-0.3c-12.4-12.7-13.7-41.8-2.5-60c10.8-17.8,24.3-22.9,47.3-16
	c-5.3,4.6-8.7,9.5-13.4,11.5c-15,6.2-22.8,17.6-22.4,33c0.5,15.7,12.4,21.8,26.3,25C2109.1,1678.9,2112.3,1681.4,2119.5,1685.1z"/>
<path d="M1586.8,1804.9c-5.6,19-24,33.8-14.2,56.3c10.6,24.3,36.2,11.4,52.9,21.4c-12.4,14.7-29.4,18.8-45.4,12.4
	c-17.3-6.9-31.5-34.3-29-55.9C1553.5,1819.5,1563.9,1808.9,1586.8,1804.9z"/>
<path d="M1328.5,3171.7c5,18-4.2,26.8-16,33.4c-15.1,8.5-43.3,4.2-57.6-7.7c-14.4-12-17.1-22.4-11.3-46.1
	c12.4,12.2,22.9,26.7,37,35.2C1298,3197,1311.6,3178,1328.5,3171.7z"/>
<path d="M956.9,3133.6c9.6,14.8,15.2,30.1,26.1,38.2c10,7.4,25.9,7,40,10.2c-13.4,17.8-27,20.3-47.1,10.2
	C956.3,3182.2,949,3161.6,956.9,3133.6z"/>
<path d="M3277.5,525.3c13.8-17.6,25.3-16.8,37.3-13.1c35.9,11.1,62.9,31.7,76.8,68.2c25,66-3.4,140-65.2,167.9
	c-10.6,4.8-21.1,9.8-29.9-9c7.4-4.8,15-10.5,23.2-14.9c44.7-23.8,66.9-70.5,58.1-120.2c-6.9-38.8-30.2-60.7-67.2-70.2
	C3301.1,531.5,3291.8,529.1,3277.5,525.3z"/>
<path d="M3034.5,818.1c13.5-24.2,50.6-40.6,81.1-35.8C3108.8,799.7,3065.6,818.8,3034.5,818.1z"/>
<path d="M3021.6,843.1c-16.8,19.6-33.3,39.5-50.6,58.6c-1.9,2.1-8.5,0-13-0.2c0.2-4.6-1.3-10.6,1-13.6
	c15.6-20.8,33.8-38.8,57.3-50.5C3018.1,839.3,3019.9,841.2,3021.6,843.1z"/>
</svg>
