<?xml version="1.0" encoding="utf-8"?>
<!-- Generator: Adobe Illustrator 24.3.0, SVG Export Plug-In . SVG Version: 6.00 Build 0)  -->
<svg version="1.1" id="Layer_1" xmlns="http://www.w3.org/2000/svg" xmlns:xlink="http://www.w3.org/1999/xlink" x="0px" y="0px"
	 viewBox="0 0 4000 4000" style="enable-background:new 0 0 4000 4000;" xml:space="preserve">
<path d="M383,2058.7c58-336.9,235.6-575.8,555.5-685.8c319.2-109.7,607.1-36.5,855.1,195.9c4.9-3.4,10.5-6.6,15.1-10.8
	c116.7-107.9,255.2-173.1,409.4-205.6c129.6-27.3,259.3-26.9,388.1,5.9c17,4.3,33.5,10.3,50.2,15.6c24.1,7.6,26.9,6.7,37.2-17
	c59.5-137.9,119.2-275.8,178.1-414c88.2-206.8,175.7-413.9,263.8-620.7c8.1-19.1,17-38.2,27.6-56c20.9-35.3,53.6-46.5,92.9-41.7
	c39,4.7,63.9,27.9,76.9,63.1c4.6,12.5,5.6,28.8,1.7,41.4c-8.9,29.2-20.1,58-33.3,85.6c-148.3,310.9-297.1,621.5-445.9,932.2
	c-10.9,22.7-23.7,44.6-34.7,67.3c-10.3,21.4-8.6,24.9,13.9,39.3c21.6,13.9,27.3,14.3,41.3-4.7c35.8-48.6,70.3-98.1,105.4-147.2
	c166.6-232.9,333.2-465.8,499.7-698.8c26.8-37.5,52.8-75.6,79.8-112.8c11.6-15.9,23.5-32,37.7-45.5c33.1-31.5,76.4-33.1,114.4-6.3
	c36.7,25.8,51.7,70.4,33.3,110.1c-10.9,23.6-26,45.9-41.9,66.6c-66.4,86-134,171-200.8,256.7c-103.9,133.2-207.5,266.7-311.3,400
	c-53.9,69.3-108,138.4-161.6,207.9c-13.4,17.3-25.9,35.4-38,53.7c-13.4,20.4-13.4,23.7,4.4,38.5c85.6,70.9,143.6,162.1,191.5,260.4
	c30.8,63.3,53.1,129.9,68.8,198.6c7.3,31.9,7.1,32,41.3,31.9c17.6,0,35.1-0.5,52.7,0c55.7,1.4,93.4,37.4,93.5,93.2
	c0,38.3-3.5,76.7-7.9,114.8c-19.2,167.2-63.1,327-143.3,476c-137.1,254.7-338.9,442-595,573.1c-28.3,14.5-57.4,27.3-86,41.2
	c-6.7,3.2-12.9,7.5-21.4,12.5c3.3,10.1,6.3,19.2,9.1,28.4c16.5,52.3,33,104.5,49.3,156.8c2,6.3,3.7,12.7,4.4,19.2
	c3.3,28.5-4.2,38.9-32.9,40.5c-40.5,2.3-81.2,3.8-121.7,3.9c-477.4,0.7-954.9,1-1432.3,1.4c-56,0-69.4-17.1-53.4-70.9
	c14.7-49.4,31.4-98.1,46.9-147.3c11.5-36.5,11.2-36.4-22.4-51.2c-189.2-83.5-356.4-198.4-495.4-352.1
	c-154.3-170.7-255.7-369-298.1-595.6c-14.1-75.3-22.3-151.9-31.4-228c-2.2-18,0.7-37.4,4.8-55.3c8.1-35.8,35.3-58.5,71.9-62.3
	c15.2-1.6,30.7-1.6,46-1.8C351.4,2058.5,366.6,2058.7,383,2058.7z M1831.2,2110.3c0-0.2,0-0.4,0-0.6c-481.9,0-963.7,0-1445.6,0
	c-24.1,0-48.3-0.4-72.4,0.7c-43.6,2.1-53.4,11.1-50,54.1c5,63.4,10.7,126.9,20.9,189.6c41.8,257.1,154.8,479.1,339.8,662.2
	c132.2,130.9,285.2,233,457.4,304.8c157.3,65.5,320.2,108.5,491.3,111.4c161.3,2.7,322.7,2.4,484,0.4c59-0.7,118.5-6.8,176.9-15.9
	c253.1-39.4,483.3-134,684.2-294.5c155.7-124.4,279.8-274.5,364.9-456c60.3-128.6,93.7-264.2,109.1-404.7
	c3.6-32.7,6.2-65.6,6.1-98.5c-0.1-38.3-14.2-51.2-51.8-52.8c-14.2-0.6-28.5-0.3-42.8-0.3C2812.5,2110.3,2321.9,2110.3,1831.2,2110.3
	z M2543.7,3392.6c-6.3,0-9.7-0.7-12.7,0.1c-12.7,3.5-25.3,7-37.8,11.2c-156,52.9-316.6,80-481.1,82c-128.3,1.6-256.7,0.8-385-2
	c-65.7-1.4-131.5-7.2-196.7-15.3c-93.8-11.6-184.8-36.3-274.2-67c-12.8-4.4-26.5-6.5-38.9-9.4c-22.6,50.9-54,157.9-52.8,178.5
	c511.8,0,1023.7,0,1540,0C2585.3,3508.3,2568.9,3448.8,2543.7,3392.6z M1031.4,1755c16.8,21.9,36.8,22.5,56.6,20.4
	c45.7-5,91.4-11,137-16.8c11.9-1.5,25.9-6.5,31.3,8.7c7.4,20.6,23.8,23.3,41.6,26.1c21.7,3.4,43.1,7.9,64.8,10.9
	c10.2,1.4,20.8,0.2,29,0.2c4.9-25.6,7.9-48.3,13.9-70.3c4.4-16.2,15-28.8,31.8-35.5c41.6-16.5,101.8,3.5,124,42
	c3,5.2,5.4,10.8,11.1,22.4c1.3-11.3,2.1-15.3,2.1-19.3c1.1-90-15.4-176.8-48.9-260.1c-7.2-17.8-19-35-32.5-48.7
	c-25.4-25.9-57.4-28.6-86.7-8.7c-39,26.5-78.9,52.3-114.7,82.7c-52.2,44.5-110.5,74.9-176.3,91.8c-63.7,16.4-127.8,31.2-191.3,48.2
	c-59.3,15.9-118.6,30.9-179.6,39.4c-25.6,3.5-50.2,14.9-75.2,23.1c-17.2,5.7-24.3,18.1-21.1,35.8c7.7,42.5,25.5,80.6,46.9,116.8
	c39.3-11.7,38.2-13.5,39.1-50.3c0.6-22.2,6.1-46,16-65.8c16.8-33.5,50.1-41.4,84.2-25.2c8.6,4.1,17.3,7.8,27.1,12.2
	c14.8-25.8,37.3-35.8,62.6-41.7c12.8-3,25.2-7.8,38-10.5c107.3-22.8,214.8-44.8,312.9-96.8c12.2-6.5,23-15.7,33.8-24.5
	c24.5-19.9,48.1-41.1,73.2-60.3c13.5-10.3,30.3-13.8,47-8.7c46.2,14.1,83.4,69.4,43,123.1c-28.1,37.3-75,45.4-113.7,19
	c-11.7-8-21.5-18.6-32.7-27.4c-6.4-5-13.8-8.8-21.9-13.8c-5.1,8.3-10.1,13.3-11.6,19.2c-6.2,24-23.2,33.5-45.2,42.3
	c-98.1,39.1-198.7,69-302.6,87.9c-11.8,2.1-23.7,5.5-34.5,10.5c-6,2.8-12.5,9.4-14.1,15.6c-6.1,23.7-10.2,47.9-15.4,73.5
	c4.2,0,8.6,0.8,12.6-0.2c8.5-2.2,16.8-4.9,24.9-8.1C960.1,1817.3,995.9,1790.5,1031.4,1755z M1860.4,1650.1
	c12.8-7.7,23.3-13.4,33-20.2c16.2-11.3,31.4-24,47.8-35c176.4-118.1,370-163.3,579.7-129.6c129.8,20.8,248.9,69.8,352.1,153.3
	c132.3,107,218.8,243.9,264.7,407.2c10.3,36.8,11.1,36.7,48.7,35.8c8.5-0.2,17-1.5,25.7-2.2c-36.2-240-222-527.9-563.9-638.6
	c-322.6-104.5-659.9,20.8-818.9,191C1838.5,1623.1,1848,1634.8,1860.4,1650.1z M3096.9,2060.1c-11.9-35.7-21.6-66.9-32.7-97.5
	c-55.9-153.4-156.1-271.7-294.6-355.1c-195.8-117.9-404.5-136.9-620.3-63c-79,27-154.3,63.6-216.8,121.3
	c-39.8,36.7-39.7,38.1-5,78.5c2.6,3.1,6.9,4.8,11.7,8c8.4-6.2,16.5-11.7,24-17.8c148.1-120.4,316-171.2,506.2-145.2
	c123.7,16.9,234.6,63.5,330.5,143.4c22.5,18.8,44.8,32.5,74.4,37.9c51.8,9.5,74.9,47.3,64.2,98.8c-2.6,12.7-1.5,22.3,6.6,33.4
	c33.7,46.4,64,94.6,66.7,157.2C3038.5,2060.1,3064.1,2060.1,3096.9,2060.1z M3660.1,469.2c-22.2,0.5-36,15.5-48.5,33
	c-91,127.7-182.1,255.3-273.1,383c-137.4,192.9-274.8,385.8-412.2,578.8c-4.5,6.3-11.3,12.2-12.5,19c-1.2,7.2,0.7,18,5.5,22.2
	c5.2,4.5,16.7,6.1,23.2,3.5c7.3-2.9,12.7-11.6,18-18.5c80.6-104,160.8-208.4,241.6-312.2c88.3-113.4,177.2-226.2,265.7-339.3
	c70.9-90.7,141.9-181.3,212.4-272.4c9.3-12,17.7-25.4,22.8-39.5C3712.6,500.2,3689.4,469.5,3660.1,469.2z M2730.3,1395.9
	c30.6,20.6,35.5,19.8,48.2-6.2c45.1-92.6,90.2-185.3,134.8-278.1c117.2-244,234.1-488.2,351-732.3c8-16.8,16.1-33.8,21.7-51.4
	c7.1-22.2-2.1-39.6-24.3-51c-20.5-10.6-41.9-6.5-54.9,13.2c-9.6,14.5-17.1,30.6-24,46.7c-45.2,104.7-90,209.5-134.8,314.3
	c-97.8,228.8-195.6,457.5-293.3,686.3C2746.5,1356.2,2738.8,1375.3,2730.3,1395.9z M1351.4,1396.2
	c-154.4-47.3-401.2-17.1-597.3,125.2c-181.8,132-285.5,311.6-321.3,533.6c21.2,4.8,37.9,9.6,55.5,0.3c1.9-9.1,4-17.5,5.5-26.1
	c14.8-82.4,40-161.3,78-236.2c15.3-30.1,28.2-61.5,40.8-92.8c6-14.9,13-27.8,28.1-34.6c26.5-12,47.2-31.2,67.1-51.9
	c13.6-14.1,29.1-26.7,45.1-38.1c87.6-62.4,183.2-107.4,288.5-130.5c80.4-17.7,161.1-33.3,244.1-15.5
	C1314,1435.8,1333.3,1420.7,1351.4,1396.2z M1985.1,2062.5c-20.7-132.7-66.2-250.6-141.8-357c-65-91.5-200.2-212.3-261.9-230.6
	c8.5,38.9,17.8,74,55.3,96.3c25.2,14.9,48.2,34.6,69.5,55c84.6,81.1,146,177.8,186.2,287.5c15.4,42.1,26.5,85.8,38.3,129.1
	c3.4,12.5,8.5,19.7,21.7,19.8C1962,2062.6,1971.5,2062.5,1985.1,2062.5z M2319.2,1638.7c7.7,12.6,17.5,22.7,20.4,34.5
	c5.7,23.8,18.9,30.3,42.2,30.8c129.1,2.8,245,43.9,346.8,123.9c15.9,12.5,32.5,24,51.3,37.9c2.8-14.9,1.8-27.5,7.3-35.7
	c18.7-27.8,3.3-44.7-16.2-61.3c-7.5-6.4-14.4-13.7-22.5-19.1c-82.2-54.4-170.4-95.1-268.3-112
	C2427.3,1628.6,2374.3,1625,2319.2,1638.7z M1621.7,1624.2c-5.6,45.1,1.8,75.9,34.2,111.6c79.4,87.5,126.8,190.6,155.5,303.7
	c1.8,7.2,5.2,14.1,7.6,20.4c21.7,0,41.7,0,63.9,0c-1.1-9.8-1.1-16.2-2.5-22.3c-27.2-118.3-80.4-224.4-155.3-319.2
	c-22.8-28.9-51.6-53.2-78.3-79C1640.2,1633.2,1631,1629.8,1621.7,1624.2z M2700.5,2060.1c-14.2-27.3-77.9-100.2-97.8-114.5
	c-11-7.9-21.6-7.7-34.1-4c-38,11.2-69.4,1.1-91.9-32.2c-13-19.2-30.7-32.7-52.6-37c-33.1-6.5-66.9-10.3-100.6-13.4
	c-8.9-0.8-19.5,3.5-27.3,8.5c-19.9,12.8-38.6,27.3-61.2,43.5c11.3,0,19.6,0,27.9,0c128.7,0.3,240.6,41.9,331.9,134.5
	c6.5,6.6,16.1,13.3,24.7,13.9C2645.4,2061.3,2671.4,2060.1,2700.5,2060.1z M784.4,1619.5c3.5,0.6,6.5,1.8,9.4,1.4
	c55.4-7.5,110-18.5,162.7-37.9c56.5-20.8,113.9-38.6,173.7-48.5c19.3-3.2,38.3-9.4,56.5-16.7c19.7-7.9,39.5-16.8,54.1-35
	C1144.4,1449.5,876.6,1530.2,784.4,1619.5z M2200.5,1659.3c-14.2,4.5-25.7,7.5-36.8,11.7c-60.1,22.8-112.3,58.9-162.4,98.2
	c-47.1,36.9-47.1,37.1-15.7,86.6c1.6,2.5,5,3.8,9.6,7.1c11.2-7.8,22.8-15.8,34.3-23.7c51.9-35.4,96.2-84.3,162.5-87.9
	C2194.9,1720,2197.5,1692.3,2200.5,1659.3z M1767.9,2059.9c-7.2-24.5-13.8-47.3-20.7-70c-20.4-66.9-52.4-127.7-96.9-181.7
	c-8.7-10.5-16.1-24.1-35-23c-0.5,6.9-2.5,13.4-1.3,19.4c11.3,57.8,15.7,117.6,48.2,169.5c9.2,14.7,16,31.3,22.2,47.6
	c16.1,42.2,15.8,42.4,59.7,40.9C1750.6,2062.5,1756.9,2061.3,1767.9,2059.9z M892,2061c26.5,0,48.9,0,73.9,0
	c8.1-51.2,29.7-94.9,58.8-135.3c23.8-33,20.9-51.3-13.7-81.5C940.2,1897.3,911.1,1973.3,892,2061z M2535,2061.1
	c-49.2-60-214-115.4-277.8-96.1c5.2,6.3,9,12.1,14,16.8c24.8,23,49.5,46,75,68.1c6.1,5.3,14.9,10.6,22.5,10.7
	C2422,2061.6,2475.3,2061.1,2535,2061.1z M2618.5,1900.5c7.7,5.9,13.6,10.4,19.5,15c40.9,31.6,79.3,65.6,104.7,111.7
	c19.8,36,30.3,40.4,76.8,27.1c-3.7-4.9-10.2-7-14.9-11c-21.7-18.9-37.3-39.6-23.8-71.2c2.6-6.1-0.7-18.1-5.5-23.3
	c-29-31.2-59-61.5-89.3-91.4c-6.4-6.3-15.4-9.9-23.3-14.8C2646.7,1863.6,2633,1881.5,2618.5,1900.5z M623.4,1821.3
	c-37.6,46.2-81.8,194.5-73.3,237.9c17.6,0,35.5,0,48.8,0c17.8-55.3,34.5-107,50.8-158.7c1.6-5,2.9-11.4,1.1-15.9
	C643,1864.6,634,1845.2,623.4,1821.3z M1018.5,2058.6c16.2,1.9,24.7,3,33.3,4c25.4,3,43-3.8,53.3-30.8
	c11.3-29.7,31.3-54.8,55.9-75.9c8.6-7.3,15.1-17,25.1-28.5c-30.6,1.9-55.7,2-80.4,5.5c-10.8,1.5-23.5,7.6-30.3,15.8
	c-14.5,17.6-27,37.2-37.8,57.4C1029.7,2020.9,1025.8,2037.9,1018.5,2058.6z M1356.1,1968.6c-14.3-23.1-18.9-26.4-35.8-27.4
	c-59.9-3.5-145.7,52.6-168.8,110.5c-0.3,0.8,0.4,2,1.6,7.9c22.3,0.3,45.9,1.4,69.3,0.5c4.9-0.2,11.8-6.4,14-11.5
	c17.6-41.4,52.6-59.1,92.7-70.6C1338,1975.4,1346.6,1971.9,1356.1,1968.6z M2465.8,1808.1c5.9,8.7,9.2,18.3,15.9,22.7
	c31.7,20.9,67.5,31.1,105,33c15,0.8,29.8-15.4,31.4-29.3c1.7-14.9-8.8-22.2-19.9-26.9c-31.3-13.1-62.8-26.1-94.9-37.2
	c-43.1-14.9-55.2-6.4-59.4,38.9c-0.1,1.1-0.3,2.4,0.2,3.2c0.9,1.8,2.3,3.3,4.4,6.2C2453.4,1815.8,2458.5,1812.6,2465.8,1808.1z
	 M2027.5,2000.5c42.9-31.5,79.1-65.1,116-101.4c-12.3-11-22.3-19.2-31.5-28.3c-12.2-12.2-24.1-13.7-37.1-1.4
	c-4.8,4.5-10.3,8.1-15.6,12.1C2001.4,1925.7,2001.4,1925.7,2027.5,2000.5z M1643.2,2059.6c-17.2-41.5-32.5-78.1-48.2-116.1
	c-11.6,2.2-23.3,4.7-35.1,6.5c-11.3,1.7-22.8,2.6-35.4,4c9.1,22.5,17.9,41.2,24.3,60.6c15.7,47.2,15.3,47.4,65.6,47.7
	C1621.9,2062.3,1629.4,2060.9,1643.2,2059.6z M2172.1,2056.4c9.2-35.4,8.8-69.5,12.1-104.8c-45.5,10.5-104.6,63.1-122.4,107.9
	C2099.3,2062.2,2135.4,2063.5,2172.1,2056.4z M1507.3,2053.3c-15.4-72-59.8-124.3-112.6-128.3c28.4,23.1,34.5,51.8,33.7,83.6
	c-0.3,11.7,3.3,24,7.5,35.2c2.3,6,9,13.5,14.7,14.5C1469.6,2061.8,1489.3,2064.4,1507.3,2053.3z M2430.3,1760.8
	c-22.4-1.5-43.7-7.1-63.2-3.3c-27.3,5.3-53.4,17.1-79.7,27.2c-3.7,1.4-7.8,8.7-7.1,12.4c0.7,3.8,6.7,8.3,11.1,9.2
	c9.5,1.9,19.4,2.4,29.2,2.2c24-0.4,47.9-1.7,71.9-2.3C2426.9,1805.4,2429.5,1802.7,2430.3,1760.8z M682.8,1948.1
	c-17.2,37.4-21.2,73.1-23.5,114.1c16.3,0,29.4,1.7,41.8-0.6c7-1.3,16-7.9,18.6-14.3c7.2-18,11.6-37.2,17.2-56.2
	C718.9,1976.8,702.2,1963.5,682.8,1948.1z M861.1,1973.3c-74.5,17.7-86.2,29.6-85.3,86.3c19.9,0,39.9,0,60.7,0
	c6.8-23.2,13.3-45.1,19.6-67C857.7,1987.4,858.8,1982.2,861.1,1973.3z M1564.7,1833.5c-25.1,9.1-49.5,18.4-74.2,26.7
	c-12.8,4.3-21.7,10.2-19.1,25.6c2.7,15.5,13.8,18.2,26.8,17.6c8.7-0.4,17.5-0.8,26.1-2.3c48.5-8.2,54.9-18.6,41.7-66.3
	C1565.8,1834,1564.6,1833.4,1564.7,1833.5z M2255.7,1836c-33.2-22.3-66.3-29.2-101.9-25.6c-6.1,0.6-12.5,4.3-17.6,8.1
	c-11.6,8.5-10.8,17.4,1.4,26.1C2166.9,1865.3,2221.3,1863.2,2255.7,1836z M2819.7,2000.3c23.1,28.8,91.6,34.3,129.9,10.5
	C2928.5,1978.5,2855.8,1972.6,2819.7,2000.3z M717.4,1918.7c5.2,7.7,7,11.9,10,14.6c23.5,21.4,88.6,12.9,106.7,2.7
	c3.1-1.8,6.9-7.4,6.1-10.1c-1.2-4.5-5.1-10.6-9.1-11.8C794.2,1903.5,757.3,1899.3,717.4,1918.7z M1326.2,1878.7
	c-24.1-21.1-48.2-21.8-71.2-24.6c-4.9-0.6-12.3,4.7-15.7,9.4c-7.1,9.8-12.2,21-21.3,37.2C1257.4,1892.7,1289.3,1886.2,1326.2,1878.7
	z M1120.8,1876.7c27.2,12.4,50.9,0.3,73.5-11.8c8.7-4.7,8.6-15-1.6-21C1166.8,1828.6,1129.8,1844.9,1120.8,1876.7z M1305.5,2048.6
	c0.9,3.5,1.8,6.9,2.7,10.4c26.9,2,53.8,7.6,81-1.2c-3.7-32.7-11.9-39.6-38.2-30.7C1335.2,2032.4,1320.6,2041.3,1305.5,2048.6z
	 M1430.9,1569.3c0.2-12.4-4.3-21.7-17.7-23.5c-16.4-2.2-43,20.3-41.4,35.4c1.4,13.2,12.1,17.9,23.3,19.5
	C1411.6,1602.9,1430.3,1585.8,1430.9,1569.3z M1487.4,1802.1c15.9-0.1,27.9-7.9,26.9-17.4c-1.1-9.4-19.9-22.5-32.8-22.9
	c-12.4-0.4-21.6,7.8-21.5,19.2C1459.9,1793.8,1470.8,1802.2,1487.4,1802.1z M2273.1,2062.9c-7.7-24.4-20.2-35.2-37.1-34.4
	c-12.9,0.6-14.2,13.3-10.4,28.1C2239.7,2058.4,2253.9,2060.3,2273.1,2062.9z M1099.4,1832.2c-1.5-2.8-2.9-5.6-4.4-8.4
	c-10.2,1-21.3-0.2-30.3,3.6c-10.5,4.4-11.7,16.1-4.7,24.3c3.4,3.9,14.9,5.7,19.1,2.9C1087.2,1849.2,1092.7,1839.9,1099.4,1832.2z
	 M2834,1927.8c15.6,13.4,32.4,12,49.8,5C2868.2,1923.1,2851.6,1920.9,2834,1927.8z M885.5,1907.4c6.1-9.6,12.2-19.2,20.1-31.6
	C872.3,1876.8,872,1877.3,885.5,1907.4z"/>
<path d="M1180.9,2705.5c-0.1-92.2,67.4-161.9,159.2-160.4c90,1.4,152.1,65.6,154.4,151.1c2.3,86.6-71.2,161.3-153.4,161.9
	C1251.6,2858.7,1181,2791.4,1180.9,2705.5z M1435,2641c0.7-23.3-19.8-43.4-44.3-43.4c-22.5,0-39.8,18.7-40,43.2
	c-0.1,22.5,15.9,40.1,38,41.6C1412.4,2684,1434.2,2664.6,1435,2641z"/>
<path d="M2449.9,2701.3c1.2,102.4-88.2,157.6-159.7,157.3c-84-0.3-150.8-72.9-148.5-159.9c2.3-88.3,72.7-157.4,159.1-152.9
	C2393.7,2550.8,2450.2,2618.4,2449.9,2701.3z M2354.3,2600.7c-24.1-1.1-39.5,12.5-41.4,36.5c-2,26.1,12.6,44.2,36.1,44.8
	c24.1,0.6,42.2-16.4,42.6-39.9C2391.9,2619,2376.4,2601.7,2354.3,2600.7z"/>
<path d="M388.5,2349.3c1-7.1-0.4-15.5,3.2-19.6c5.9-6.8,14.6-14.1,22.8-15c5.8-0.6,15.1,7.9,18.4,14.6c4.7,9.6,5.5,21.1,7.5,31.8
	c49.2,258.3,173.3,472.8,375.3,641.7c9.2,7.7,18.7,15.2,27.7,23.3c18.5,16.6,21.6,29.5,10.6,41.6c-10.5,11.6-20.2,10.6-40-4.4
	c-78.3-59.3-146.1-129-205.5-206.9c-109.5-143.7-179.7-305-215.5-481.7C391.2,2366.2,389.9,2357.5,388.5,2349.3z"/>
<path d="M2403.3,3074c-38.4-3.1-75-9.9-109.8-24c-13.8-5.6-27.7-14.1-38-24.7c-30.9-31.7-30-71.8,2.7-101.6
	c13.4-12.2,30-23.3,47.1-28.8c59.9-19.2,121.4-19.8,181.2-0.6c24.1,7.8,47.7,22.8,66.6,39.9c29,26.3,27.4,66.8-2.3,92.6
	c-14.4,12.5-32.8,22.9-51.2,28.1C2468.2,3063.8,2435.5,3067.9,2403.3,3074z M2404.2,2924.4c-0.3,1-0.7,2.1-1,3.1
	c-16.2,1.9-33.2,1.4-48.6,6.3c-22.6,7.1-45.2,15.9-65.5,27.8c-15.8,9.3-14.8,20.1,0.3,30.8c11.3,8.1,24.2,15.2,37.5,19.2
	c51.5,15.3,103.4,14.8,154.9-0.3c11.3-3.3,22.3-9.1,31.9-15.9c13.2-9.3,14.5-21.8,3-33.1c-7.5-7.4-17.2-14.4-27.2-17.3
	C2461.4,2936.9,2432.7,2931.1,2404.2,2924.4z"/>
<path d="M1226.6,3071.1c-24.4-5.8-62-12.7-98.2-24.1c-31.6-9.9-51.6-34.1-53.6-67.8c-2-33.1,18.2-55.6,45.3-70.8
	c40.3-22.6,85.1-28.3,130.2-26.7c44,1.6,86.5,10,123.9,36.7c49.3,35.2,48.4,91.5-4,122.3C1330.2,3064.1,1285.2,3067.3,1226.6,3071.1
	z M1225,3025.4c46-1.7,80.8-5.3,112.8-20.8c11.2-5.4,25.7-10.4,25.4-26.7c-0.3-15.3-12.9-21.8-24.1-28.5c-3.7-2.2-7.9-3.6-12-5.2
	c-47.1-18.8-95.7-22.2-144.5-9.5c-18.6,4.8-37,13.6-52.9,24.3c-16.3,11-15.1,25,0.6,37.4c7.6,6,16.4,11.8,25.5,14.1
	C1182,3017.2,1208.7,3022,1225,3025.4z"/>
<path d="M1699.6,2784c1.8,17.6,3.3,33.8,5.2,50c6.6,58.5,54.7,108.3,108,111.9c61.6,4.1,114.3-39,121.6-100.2
	c1.7-14.1,1.1-28.5,1.7-42.7c0.5-11.7,3-21.7,17.7-23c17.1-1.6,29.2,5.2,33.2,19.8c0.3,1.1,0.5,2.1,0.6,3.2
	c9.6,144-100.3,217.2-211.8,184.3c-76.6-22.6-123.4-92-121.9-172.4C1654.5,2784.2,1661.9,2778.5,1699.6,2784z"/>
<path d="M966.2,3165.4c-20.5-0.1-38.8-14.9-39.4-31.7c-0.5-16,10.4-28.8,24.6-28.9c19.4-0.1,43,21.6,42.1,38.8
	C992.9,3157.1,982.4,3165.5,966.2,3165.4z"/>
</svg>
