<?xml version="1.0" encoding="utf-8"?>
<!-- Generator: Adobe Illustrator 24.3.0, SVG Export Plug-In . SVG Version: 6.00 Build 0)  -->
<svg version="1.1" id="Layer_1" xmlns="http://www.w3.org/2000/svg" xmlns:xlink="http://www.w3.org/1999/xlink" x="0px" y="0px"
	 viewBox="0 0 4000 4000" style="enable-background:new 0 0 4000 4000;" xml:space="preserve">
<path d="M2180.7,2824.4c0,36-1.9,68.4,0.3,100.5c9.9,145.6,20.7,291.1,31.6,436.6c5.2,69.5,11.7,138.9,16.7,208.4
	c3.1,42.9,0.5,85.5-11.7,127.1c-40.7,137.9-177.5,214.9-320.4,180.1c-116.8-28.5-201.5-134.6-200.8-256.8c0.3-54.7,7-109.4,11.4-164
	c8.5-104.7,17.7-209.2,26-313.9c6.9-87.1,13.2-174.2,19.2-261.3c1.2-17.3,0.2-34.7,0.2-54.5c-12-0.7-22.9-1.6-33.8-1.8
	c-98.7-1.7-196.7-10.6-293.9-27.3c-57.1-9.8-112.1-26.5-160.3-60.6c-69.5-49.2-108.9-117.4-116.6-200.8c-5.9-63.6-4.8-128.1-4-192.1
	c1.1-83.6,5.5-167.2,7.6-250.9c4.8-186.8,7.5-373.7,14-560.4c4.7-132.8,12.3-265.6,22.3-398.1c7.7-102.8,18.3-205.5,32.5-307.6
	c18.9-135.2,53.9-266.1,127.7-383.2c120.3-191,291.4-311.3,510.9-363.3c100.4-23.8,202-32.5,304.5-22.4
	c136.6,13.5,253.5,67.9,345.1,172.8c64.7,74.1,106.8,160.4,141.2,251.3c36.5,96.5,52.5,197.4,64.1,299.1
	c20.1,175.6,28.4,352,34.6,528.5c7.5,209.9,15.3,419.9,22.6,629.8c6,173.7,11.6,347.4,17,521.2c1.3,42-1.6,83.7-14.5,124.1
	c-33.7,105.1-106.3,169.6-210.4,201c-64.6,19.5-131.6,22.7-198.3,27.2C2304.5,2817.3,2243.3,2820.6,2180.7,2824.4z M1853.4,2828.2
	c-1.1,9-1.9,13.5-2.2,18.1c-8.1,111.1-15.5,222.3-24.5,333.3c-11.3,140.7-24.1,281.2-35.8,421.8c-1.2,14.7-1.3,29.9,1,44.4
	c11.4,70.4,70.2,142.2,170.7,141.9c83.4-0.2,152.1-56.4,168-138.5c7.7-39.8,2.8-79.4,0-119.3c-14.4-206.5-27.9-413.1-41.7-619.7
	c-1.8-27.5-3.9-54.9-5.8-82C2005.3,2828.2,1930.5,2828.2,1853.4,2828.2z M1190.8,1880.9c-1.2,22.8-2.5,39.5-2.9,56.2
	c-3.8,158-7.7,315.9-10.8,473.9c-0.7,35.2,0.5,70.6,2.8,105.8c7.5,116.1,70.5,190.4,177.6,229.1c62.6,22.6,128.5,28.6,194.2,34
	c127.9,10.4,256.2,13.7,384.4,11.4c138.4-2.5,276.8-6.2,415.1-12.6c60.1-2.8,120.6-9.5,179.5-21.3c82.2-16.5,150.9-56.3,192-134.1
	c22.6-42.8,35.7-88,35.3-136.2c-0.8-80.8-2.6-161.7-5.6-242.5c-3.7-98.4-10-196.7-13.6-295.1c-4.7-127.2-6.8-254.5-11.8-381.8
	c-6.5-168.1-13.9-336.1-22.4-504c-5.5-109.4-13.3-218.7-28.1-327.5c-14.1-103.6-36.5-204.7-78.2-301
	c-32.1-73.9-73.1-141.8-129.5-200.1c-98.1-101.4-220.1-144.7-358.4-148.8c-95.5-2.8-189.2,9.5-281.1,35.1
	C1684.2,161.7,1561,238.5,1459,348.9c-106,114.7-164.8,252.6-193.9,404.2c-23.5,122.4-34.9,246.6-43.2,370.7
	c-10.5,156.7-16.7,313.6-23.2,470.6C1194.5,1691.9,1193.2,1789.5,1190.8,1880.9z M1813.2,2828.6c-24.1-3.2-24.4-3.2-25.9,19.4
	c-6.8,100.1-12.4,200.3-20.2,300.3c-9.8,125.9-22,251.7-31.8,377.6c-3.3,42.5-7.3,85.9-2.3,127.8
	c15.7,131.8,137.9,216.6,261.9,195.8c140.6-23.6,208.1-128.8,203.4-258.2c-3.5-96.4-15-192.5-22.3-288.8
	c-7.2-95.4-13.8-190.8-20.3-286.2c-3.9-57.5-6.9-115-10.8-172.4c-1.3-18.9-3.5-19.7-25.7-12.9c0,7.9-0.4,16.2,0.1,24.4
	c5.7,101.1,11.2,202.2,17.4,303.2c3.7,61.2,8.6,122.3,12.9,183.4c6.4,91.7,16,183.4,18.1,275.2c2.7,119.8-96.5,212.1-214.9,205.9
	c-136.7-7.2-207.4-128.8-194.8-228.7c7-56.2,10.5-112.8,15.1-169.2c6-73.1,12-146.2,17.2-219.4c8.5-118.6,16.5-237.2,24.5-355.8
	C1815.3,2842.7,1813.8,2835.4,1813.2,2828.6z"/>
<path d="M1865.5,3148.1c4.9-97.2,9.7-191.4,14.4-285.2c26.3-5.5,31.3-3.2,30.3,16.7c-4.5,87.2-10,174.3-15.1,261.5
	c-0.1,1.7-1.4,3.3-3,7C1885.3,3148.1,1877.6,3148.1,1865.5,3148.1z"/>
<path d="M2102.1,3602.8c-2.8,35.6-11,75.8-40.2,107.2c-12.2,13.1-29.4,22-45.5,30.6c-3.8,2-15.2-3.2-17.6-7.9
	c-2.2-4.2,1.5-16.2,5.6-18.1c51.3-23.7,62.8-69.7,68.6-119.2c0.4-3.7,0.7-7.4,1.3-11.1c1.2-8.5,5.8-13.4,14.9-13.1
	c9.4,0.4,12.8,6.1,12.9,14.6C2102.1,3589.5,2102.1,3593.2,2102.1,3602.8z"/>
<path d="M2103,3509.1c0.1,19.1-4.3,27.5-15.1,28.7c-12.3,1.4-20-8.1-21.6-26.7c-1.6-19.3,3.6-29.9,15.5-31
	C2095.8,3478.8,2102.9,3488.3,2103,3509.1z"/>
<path d="M2711.2,1905.7c5.3,193.3,10.5,386.5,15.8,579.8c1.1,39.8-7.2,77.4-24.1,113.4c-24.4,52-63.7,88.2-115.2,112.4
	c-51.6,24.2-106.9,30-162.6,34.5c-224.5,18.3-449.3,20.5-674.3,16.5c-105.1-1.9-209.9-7.5-313.6-26.3
	c-40.4-7.3-79.6-18.2-115.7-38.7c-71.8-40.7-106.7-104.3-112.9-184.2c-3.2-41.6-2-83.6-0.9-125.3c5.1-210.9,10.8-421.9,16.4-632.8
	c1.8-66,3.9-131.9,6.4-197.9c4-104.9,6.4-210,13.4-314.8c9.7-145.5,19.5-291.2,43.2-435.3c17.1-104.1,44.3-205.3,97.2-297.8
	c114-199.1,283.3-323.6,507.3-372.3c95.1-20.7,191.4-26.3,288.2-13.3c154.5,20.7,268.4,101.8,346.2,235.6
	c57.7,99.3,91.2,206.9,109.8,319.7c29.8,180.2,38.4,362.1,45.7,544.2c8.2,205.2,15.8,410.5,23.8,615.8c0.9,22.3,2.7,44.5,4.1,66.8
	C2710,1905.7,2710.6,1905.7,2711.2,1905.7z M2426.6,2161.9c0,12-0.1,21.1,0,30.3c0.9,50.2,3.8,100.4,2,150.5
	c-1.1,31.2-6.6,62.9-15,93c-10.4,37.5-35.7,64.4-72.4,79.7c-85.4,35.6-176.3-2-212.5-87.2c-19.1-45-20.1-92.2-20.5-139.6
	c-2.9-347.7,4.1-695.2,12-1042.8c0.7-28.9-5.9-52.4-21.2-75.5c-18.6-28-37.2-55.9-65.3-75.4c-29.7-20.6-63.5-34-96.2-12.7
	c-31.6,20.5-58.4,48.3-87.3,72.9c-1.4,22.9-3,45.7-4.3,68.6c-0.5,8.3-0.1,16.7-0.3,25.1c-3.6,208.2-6.5,416.3-10.9,624.5
	c-3.2,149.6-8.4,299.1-13.1,448.7c-1.2,38.2-5.7,76-20.3,111.8c-24.2,59.5-68,92.9-131.8,101.9c-33.6,4.8-66.9,4.6-99.9-1.4
	c-88.9-16.2-150.5-64.6-176.3-153.8c-10.2-35.2-14.2-71.1-12.7-107.5c6.3-156,11.9-312,19.7-468c7.8-155.9,17.8-311.7,27-467.5
	c4.6-77.9,10-155.8,14.3-233.7c1.4-24.6,0.2-49.3,0.2-75.3c-6.3,1.3-11.7,2.1-16.9,3.7c-44.5,13.3-80.6,41.4-118.5,66.7
	c-13.7,9.2-20.9,20.1-22.1,36.1c-2.3,32.4-5.9,64.8-7.2,97.3c-7.8,191.3-16.4,382.6-22.4,573.9c-6.5,210.9-10.6,421.8-15.3,632.8
	c-0.6,28.8,0.3,57.7,2.7,86.3c3.4,41.1,20.3,76.6,48.3,107.1c33.6,36.7,76.7,54.9,123.9,64.5c100.5,20.4,202.6,27.6,304.6,32
	c231.5,10.2,462.8-0.4,693.7-17.3c45.1-3.3,90.6-10.7,134.3-22.2c62.6-16.4,108.2-56.3,133.9-116.6c15.3-35.8,16.9-74.1,15.5-112.3
	c-8-205.2-16.6-410.4-24.5-615.7c-6.4-168.1-13.6-336.2-17.1-504.4c-1.4-69.4-37.4-116.8-84.5-159.2c-24.6-22.1-55.5-27.7-85.8-12.3
	c-21.3,10.8-40.4,25.9-60.1,39.6c-11.6,8-15.8,19.2-14.9,33.7c1.7,27.8,1.9,55.7,2.4,83.6c2.9,153.3,5.4,306.7,8.7,460
	c0.4,20.3,0.1,42.6,8.2,60.2c17.3,37.2,13.2,71.5-0.6,107.7c-9.3,24.4-9,50.4-6.1,76.5c13.5,2.2,24.8,2.7,35.2,6
	c17.5,5.6,35.8,10.9,51.3,20.3c23.9,14.6,27.8,38.6,13.8,63c-10.5,18.2-27.4,27.3-47,32C2460.2,2155.4,2444.8,2158.2,2426.6,2161.9z
	 M1293.8,1066.5c13.9-8.5,24.4-13.7,33.4-20.8c29-22.6,60.5-41.1,96.6-47.7c20.9-3.8,29-13.2,34.9-32.3c21.2-69,68-112.1,138.8-126
	c27.9-5.5,57.4-7.7,85.8-5.7c68.6,4.6,119.2,37,145.4,103.4c13.2,33.6,16.5,68.4,17.6,103.8c0.6,18.9,2.5,37.7,4,60.9
	c19.8-15.1,34.7-27.4,50.5-38.4c40.9-28.2,84.3-30.9,129.6-11.3c29,12.5,51.1,33.2,71.1,57c5.3,6.3,8.4,16.9,21.6,15.8
	c0-43.8-0.6-86.5,0.3-129.1c0.4-18.4,2.4-37.2,6.6-55.2c20.9-90.2,122.1-133.6,202.6-87.5c45.5,26,64.8,68.9,69.7,117.6
	c5.1,50.7,4.4,102,6.3,153.1c0.5,13.6,1,27.1,1.7,45.6c12.1-6.8,19.8-11.1,27.5-15.4c21.1-11.8,42.2-23.5,67.1-25.6
	c49-3.9,86,17.6,116.6,53.6c7.4,8.8,14.8,17.6,22.2,26.3c4.3-13.4,4.9-24.3,4.2-35.2c-5.7-90.9-10-181.9-17.9-272.6
	c-6.4-73-15-146-26.6-218.4c-16.6-104.2-47.1-204.4-99.5-297c-74.5-131.6-184.5-211.8-335.9-230c-79.7-9.5-159.5-4.7-238.7,9.1
	c-132.9,23.2-252.1,76.3-355.4,163.3C1445,436.3,1369.5,576.6,1333.4,739c-20.6,92.6-31.2,186.9-39.4,281.4
	C1292.8,1033.8,1293.8,1047.4,1293.8,1066.5z M1427.9,2060.4c4.8-1.1,7.9-0.9,9.9-2.3c38.6-25.9,81.8-28.8,125.9-24.5
	c28.6,2.8,57.5,6.7,80.7,26.6c19.7,16.9,22.9,37.5,9.5,59.7c-13.1,21.7-34.2,31.8-57.9,34.3c-59.8,6.3-120.3,14.5-174.8-33
	c-1.2,22.3-3,40.5-2.9,58.7c0.2,55.7-2.2,111.7,2.6,167c5.3,61.2,37.6,108.6,93.7,136.1c43.4,21.4,90.1,28.7,138.4,21.5
	c74.7-11.1,111.9-45.6,127.6-119.6c4.6-21.7,7.3-44.1,7.9-66.3c4.6-157.9,8.4-315.8,12.4-473.7c0.7-28.8,0.9-57.6,1.4-86.4
	c3.2-180.2,6.5-360.5,9.7-540.7c0.1-8-1-16-1.6-25.4c-8.7,1.5-15,2.4-21.3,3.8c-43.6,9.6-81.4-2.6-112.9-32.6
	c-18-17.2-33.1-37.5-49.6-56.4c-13.4-15.4-25.5-32.3-40.7-45.6c-28.6-25.1-62.4-38.3-100.3-37.6
	C1472,1062.6,1422,1969.7,1427.9,2060.4z M2154.8,1246.8c-0.9,12.5-1.6,17.9-1.7,23.3c-2.1,115.2-4.9,230.4-5.9,345.6
	c-1.8,218.4-2.6,436.8-3.5,655.2c-0.1,28.8,1,57.6,2.3,86.4c1.1,25.4,8.1,49.3,20.6,71.6c29.4,52.4,78,75,135.8,63
	c52.5-10.9,87.1-49.3,89.3-109.5c2.6-71.4-0.5-142.9-1.3-214.4c0-1.6-1.6-3.3-3.6-7.2c-9.3-1.4-20.2-3.2-31-4.6
	c-19.7-2.5-38.3-7.4-53-21.9c-20.2-19.9-22.1-42.1-5.4-64.9c13.4-18.3,31.4-28.2,53.8-31.3c11-1.5,22.1-3.4,32.5-7.1
	c3.3-1.2,6.7-9.3,5.8-13.3c-0.9-3.9-7.2-9.1-11.2-9.2c-7.1-0.2-14.3,3.1-21.5,4.9c-31.7,7.9-62.4,7.1-91.5-10
	c-52.6-31-74.2-98.8-48.5-152.9c27.9-58.8,85.1-83,145.9-62.1c6.4,2.2,13.5,2.7,22.4,4.3c0-12.3,0.3-21.5,0-30.6
	c-1.1-32.5-2.9-65-3.4-97.5c-2-125.4-3.7-250.9-5.6-376.3c-0.2-10.4-1.2-20.7-2-32.8C2298.4,1298.1,2227.3,1307.8,2154.8,1246.8z
	 M2374.1,1090.4c-1.5,0-3,0-4.5,0c0-33.5,1.4-67-0.5-100.3c-1.2-20.1-5.3-40.8-12.3-59.6c-15.2-40.6-53.1-63.9-96-62.4
	c-43.9,1.5-80.9,28.6-93.9,70.6c-4.6,15-7.9,30.9-8.4,46.4c-1.9,64.1-2.7,128.2-3.2,192.4c-0.1,8.8,1.2,20.2,6.5,26.2
	c25.2,28.2,54.6,50.2,94.3,53.8c38.9,3.6,69.7-15.4,100.7-34.7c13.1-8.2,18.3-18.8,17.7-34.8
	C2373.2,1155.4,2374.1,1122.9,2374.1,1090.4z M1488.4,982.6c29.3,9.5,56.5,15.8,81.5,27c32.8,14.7,57,40.7,78.8,69.1
	c20.3,26.4,39.5,54,68,73.1c25.9,17.3,52,16.9,79.1,3.8c11.1-5.4,16.8-13.3,16.6-26.2c-0.9-41.8,1.4-83.8-2.2-125.4
	c-5.3-62.1-33.4-110.9-96.4-130c-56.8-17.2-112.8-10.3-163.3,21.7C1518.6,916,1494.6,944.1,1488.4,982.6z M2412,2066.2
	c0-0.5,0-1,0-1.4c-12,0.5-24.3-0.3-36,2c-15.3,3-30.9,6.6-44.7,13.4c-16.4,8-17.4,22.4-2.2,32.4c11.1,7.3,25.2,12.7,38.4,13.8
	c22.9,2.1,46.4,2,69.3-0.6c16.1-1.8,32.6-7.3,47-14.8c13.9-7.2,13.8-23.1,0.3-31.4c-10.7-6.6-23.6-10.7-36-13
	C2436.4,2064.5,2424.1,2066.2,2412,2066.2z M1539.9,2064c-12.4,0.8-24.9-0.1-36.4,2.7c-13.2,3.2-26.8,7.9-38.2,15.2
	c-16.8,10.8-15.5,20,1.7,31.2c1.6,1,3.1,2.1,4.8,2.8c45.4,17.4,90.7,15.7,136-0.5c1.7-0.6,3.3-1.7,4.8-2.7c17-11,17.4-23.7-0.4-33.9
	c-10.2-5.9-22.2-9.3-33.9-11.5C1565.7,2064.7,1552.5,2064.9,1539.9,2064z M2393.4,1858.7c0.4-20.4-12.5-35.9-30.3-36.3
	c-22.1-0.5-37.7,14.2-37.9,35.7c-0.1,18.8,13.8,33.5,32.8,34.4C2379.3,1893.4,2392.9,1880.5,2393.4,1858.7z"/>
<path d="M1972.8,2095c-57.7,0.1-109.5-44.1-116.4-99.7c-0.8-6.4-0.6-13-0.4-19.5c0.3-10.1,3.5-18.8,15.3-19.6
	c11-0.7,13.2,7.9,15.4,16.3c3.9,14.3,6.5,29.2,12.7,42.4c15.8,34.1,43.9,49.8,81.2,45.9c34.9-3.7,57.6-24,69.4-56.3
	c3.8-10.4,3.8-22.1,7.8-32.4c2.3-5.9,10.5-14.9,13.5-14c6.7,2,12.8,8.6,17.4,14.7c2.2,3,0.8,9,0.5,13.6
	C2084.9,2048.1,2034.7,2094.8,1972.8,2095z"/>
<path d="M1585.1,738.4c-76-1-119.7-56.7-105.1-126.3c6.4-30.6,19.9-58.1,36.7-83.7c68-103.6,155.1-187.1,266-243.6
	c24.3-12.4,52.1-20.4,79.2-24.2c47.3-6.7,86.8,14.8,105.3,51.6c20.6,40.9,14.2,89.1-20.9,123.1c-21.1,20.4-46.1,37.4-71.2,52.8
	c-38.4,23.6-73.5,50.7-101.2,86.3c-15.4,19.7-27.4,42-42.6,61.9c-17.9,23.5-36.1,47.2-57,67.9
	C1648.7,729.6,1614.7,736.6,1585.1,738.4z M1578.6,707.4c11.7-2.5,23.6-4.2,35-7.7c30.6-9.4,53.3-30,71.8-55
	c17.1-23.1,32.4-47.6,48.3-71.5c25.6-38.4,57.3-70.6,96.3-95.4c20.4-13,41.7-24.6,61-39c14.7-10.9,29.3-23.5,39.8-38.3
	c18-25.4,20.1-53.9,3.2-81.2c-14.3-23.1-45.4-33.2-77.1-24.8c-19.6,5.2-39.1,12.1-57.5,20.8c-68.1,32.4-124.6,80.6-177.1,133.6
	c-36.1,36.5-67.8,76.7-90.8,122.7c-9,18.1-16.3,37.6-20.5,57.3C1502.6,669.1,1539.4,709.8,1578.6,707.4z"/>
<path d="M1607.7,2016.1c-62.7-1-113.4-54.1-112.5-117.8c0.8-66,54.7-119.1,119.5-117.8c65.8,1.4,119.8,56.2,118.1,119.9
	C1730.9,1965.7,1675.3,2017.2,1607.7,2016.1z M1683.4,1858.6c0.2-17.5-15.5-34.1-32.6-34.8c-19.8-0.8-37.4,15.7-38.1,35.8
	c-0.7,18.3,13.7,32.7,33.1,33.4C1668.7,1893.7,1683.2,1880.5,1683.4,1858.6z"/>
</svg>
