<?xml version="1.0" encoding="utf-8"?>
<!-- Generator: Adobe Illustrator 24.3.0, SVG Export Plug-In . SVG Version: 6.00 Build 0)  -->
<svg version="1.1" id="Layer_1" xmlns="http://www.w3.org/2000/svg" xmlns:xlink="http://www.w3.org/1999/xlink" x="0px" y="0px"
	 viewBox="0 0 4000 4000" style="enable-background:new 0 0 4000 4000;" xml:space="preserve">
<path d="M889.7,1350.4c-99.2-109-74.5-295.9,73.5-360.3c-22.7-51.5-20.4-102.9,6.9-152.6c28.7-52.3,77.6-69.7,134.3-75.9
	c2.7-19.2,4.3-38,8-56.4c18.6-93.7,97.8-160.7,193.4-165.1c46.5-2.1,90.5,4.2,127.5,35.2c10.1,8.5,19.3,9.8,29.3,0.6
	c2.2-2,4.5-4.3,7.1-5.5c31.7-14.5,48.4-36.3,35.8-72.6c9-166.3,172.4-220.2,265.9-168.4c5.9,3.3,12.7,5,21.5,8.3
	c29.5-102.9,91.4-168.1,202.1-173.5c108.3-5.3,182.4,44.6,223.2,147c49-21.7,96.6-23.2,144.3-2.2c47,20.7,76.1,57.8,94.8,105.6
	c8.3-2,15.1-3,21.4-5.2c95.9-34.3,197.1,9.5,237.7,103.3c5.2,12,10.6,24.3,12.7,37c3,18.6,11.3,26.2,30.7,29.9
	c27.3,5.2,55,13.6,79.6,26.3c63,32.5,97,88.2,115.1,155c13.6,50.4,9.4,99.6-7.8,148.3c-2.7,7.6-5.2,15.2-7.4,22.9
	c-0.5,1.7,0.3,3.8,1,9c8.4,1.7,17.9,3.8,27.4,5.7c59.8,11.4,105.8,43.2,136.7,95.3c56.2,94.7,57.9,190.3,1.8,285.9
	c-15.2,26-15.7,25.9,2.5,48.6c27.9,34.9,38.7,73.9,32.3,118.4c-21,146.3-41.1,292.8-62.1,439.1c-27.4,191.1-55.2,382.2-82.8,573.3
	c-22.6,156.3-45.4,312.5-67.8,468.8c-25.5,178.2-51.4,356.3-75.2,534.8c-5,37.2-21.6,56.8-56.8,68.1c-95.2,30.4-193,48.3-291.2,64
	c-207.2,33.2-416,44-625.5,36.4c-153.9-5.5-306.8-21.8-458.3-50c-80.1-14.9-159.5-32.2-236.5-59.8c-27.1-9.7-38.9-24.8-43.1-53.7
	c-23.3-161.2-49-322-73.4-483.1c-19.4-128.2-38-256.6-57.4-384.8c-18.9-125.3-38.6-250.4-57.6-375.7
	c-29.7-196.8-59.1-393.7-88.6-590.6c-8.6-57.7-15.5-115.7-26.1-173c-10.4-55.9,1.7-103.6,42.1-143.8c2.1-2.1,3.9-4.6,5.5-7.1
	C887.4,1356.2,888,1354.2,889.7,1350.4z M2359.4,526c18.3-25.8,36.1-50,52.7-74.9c3.4-5.1,4.9-14.2,2.9-19.7
	c-21.7-58.7-79.4-112.3-156.2-86.9c-14.9,4.9-28.1,15.1-41.7,23.6c-9.6,6-20.3,14.1-30.1,6.2c-6.4-5.3-9.9-17.1-10.3-26.2
	c-2.2-49.6-27.9-85.3-66.6-112.2c-36.3-25.2-78.4-31.4-121.4-26c-99,12.5-162.2,89.2-151,180c0.6,5,1.1,10.1,0.5,15
	c-1.8,14.4-17.3,21.4-29.1,12.5c-5.4-4.1-9.7-10.3-13.2-16.3c-10.2-17.4-25.7-28.1-44-34.9c-48.6-18-95.1-13.6-138.1,15.6
	c-48,32.6-72.2,93.2-57.9,147.1c84.2-9.3,156.3,13.5,202.8,90.6c9.4-4.1,15.9-6.6,22.2-9.6c101-47.2,212,14.5,223.6,125
	c3,28.4-2,56.3-15.6,81.8c-7.7,14.4-20.1,18.7-32.5,12.9c-13.2-6.2-11.9-17.2-9-28.4c2-7.8,4.9-15.3,7.1-23.1
	c14.5-50.4-8.6-103.6-55.4-127.2c-54.7-27.6-126.7-5-145.5,52.5c-6.3,19.2-4.7,31.5,11.1,44.5c28.1,23.1,39,55.4,41.9,90.6
	c0.7,8.7,0.7,19.6-3.8,26.2c-4.9,7.1-15.1,13.1-23.7,14.4c-11.8,1.7-17.3-8.5-18.7-19.4c-0.9-6.9,0.9-14.4-0.9-21
	c-3.9-14.3-6.3-30.6-14.9-41.7c-25.3-32.5-60.1-46.8-101.2-39.9c-39.9,6.7-67.8,29-79.7,68.9c-2.3,7.7-3.6,15.7-5.9,23.4
	c-4,13.7-13.9,16-26.1,12.5c-13.7-3.9-18.6-14.8-15.7-34.3c7.7-52.5,51.4-98.9,106.7-110.3c20.4-4.2,41.9-2.5,62.8-4.7
	c7.3-0.7,18.8-3.1,20.5-7.7c8.8-24.3,19.3-49.3,0.8-74.5c-21.9-29.8-49.8-50.2-87-53.9c-54.8-5.4-104.2,5.8-140.3,51.9
	c-2.5,3.2-5.1,6.3-8.1,8.9c-16.8,15-25.7,14.8-39.3-3.8c-12.4-16.9-28.3-28.2-46.8-36.8c-43-20.1-86.2-16.7-128.8,0.5
	c-90.2,36.4-128.8,140-84.2,219.2c4.4,7.9,9.1,15.7,14.1,23.2c7.1,10.6,3.9,19-5.1,26.2c-12.1,9.7-24.3,9.2-34.2-3.9
	c-8.4-11.1-14.3-24.2-21.1-36.4c-5-9-10.2-17-22.5-17.2c-59.2-1-105.6,42-109.2,102.6c-0.8,13.9,0.7,28.2,2.8,42
	c4,26.5,6.5,28,33,26.5c30.7-1.8,60.3,2.3,87.4,17.8c26.3,15.1,26.6,29.2,0.3,50.3c-4.7-2.2-10.1-4.7-15.5-7.1
	c-64.4-28.7-140.2-12.2-186.9,40.8c-47.1,53.4-53.7,133.4-17,203.5c21.2,40.5,21,39.8,64.4,27.6c80.5-22.6,151.1-7.2,208.6,56.3
	c3.9,4.3,8.3,8,12.1,11.6c26.5-20.4,50.1-42.4,77.2-58.3c28.8-17,62.3-21.1,96.2-21.3c32.8-0.2,63.7,6.4,93.8,18.9
	c31.3,13,54.7,36,74.8,60c27.4-21.9,50.6-44.3,77.4-60.8c28.6-17.7,62.8-20.4,96.2-21.5c32.7-1.1,63.5,7.7,93.7,19.9
	c31.6,12.8,52.5,38.5,76.7,65.8c40.6-60.2,97.5-83.4,164.1-86c67.5-2.7,122.1,25.5,167.2,75.8c76-80.3,162.4-89.3,255.9-44.8
	c54.8-72.8,34.3-178.3-20.7-224.1c-28.2-23.4-60.3-30.4-96-26.2c-20.1,2.4-37,8.6-46.4,28.4c-6.5,13.9-18.2,19.1-32.4,14
	c-15.4-5.6-11-18.5-9.7-30.7c2.1-19.9,5.4-40.3,3.2-59.9c-6.1-55.5-53.6-101.9-106.8-107.2c-56.8-5.7-103.8,26.6-122.4,84.3
	c-0.9,2.9-1.7,5.8-2.7,8.6c-4.7,12.2-13.7,13.4-24.5,9.1c-15.1-5.9-20.8-19.4-14-40.9c10.9-34.6,30.9-63.9,62.4-82.4
	c87.3-51.4,200.8-15.1,236.6,73.8c7.8,19.3,13.6,39.4,20.6,60.2c5.9-0.5,10.9-0.2,15.5-1.3c86.4-20.7,165.8,36,192.9,96
	c27.6,61,27.1,122.8,1.5,184.4c-5,12.1-11.4,23.7-15,36.1c-2.2,7.5-0.1,16.1,0,24.3c2.2,0.9,4.5,1.9,6.7,2.8
	c8.9-7.2,18.6-13.7,26.6-21.7c18.8-18.8,39.4-34.7,64.9-42.7c74.8-23.3,142.8-11.1,202.9,40.2c7.4,6.3,14.6,13,22.9,20.3
	c7.2-6.2,12.5-10.4,17.5-15.1c55.8-52.8,120-65.8,192-39.9c23.2,8.3,27.4,7.1,40.7-15.3c49.2-82.8,36.3-196.1-30.7-265.9
	c-22.1-23-48.3-39.7-79.9-46c-42.9-8.5-83.5-4-121.2,24.2c6.4,17.3,12.6,33,18.1,49c11,31.5,4.6,61.8-9,90.6
	c-7.3,15.4-19.8,19.3-32.2,13.1c-12.9-6.5-11.4-17.4-8.3-28.7c0.8-2.9,1.9-5.7,3.2-8.5c12.3-26,7.4-50.8-4.9-75.3
	c-21.2-42.3-70.8-63-117.7-48.9c-46.1,13.8-72.9,56-66.5,104.8c1,8,3,15.8,3.4,23.8c0.5,10.7-2.1,22-14.2,23.1
	c-8.8,0.8-20.5-1.9-26.7-7.6c-6.6-6-11-17.2-11.7-26.5c-4.5-56.8,10.8-107,59.8-139.9c47.6-32,99.4-37,151.1-7.9
	c12.6,7.1,21.5,5.6,32.9-1.9c13.3-8.8,27.7-16.4,42.6-22c18.4-6.9,30.4-19.1,37.7-36.6c32.1-76.1,27.9-149.4-20-217.8
	c-64.4-92.1-193.9-103.9-267.3-24.4c-32.6,35.2-27.2,45.8,5.9,61.8c12.6,6.1,24.5,16.3,23.9,32.2c-0.3,7.9-4.9,17.1-10.5,23.1
	c-7.2,7.7-16.6,4.8-24.3-1.7c-5.4-4.6-10.6-9.3-16-13.8c-36.1-30.1-75-30.8-115.3-10.1c-22.6,11.7-37.1,29.9-41.4,55.9
	c-5.4,32.4,1.7,59.3,28.7,80.4c13.5,10.6,14.1,20.2,5.8,30.8c-9.1,11.6-20.5,12.3-32.1,5.2c-7.6-4.7-15-10.4-20.7-17.2
	c-17.3-20.5-27.4-44.4-29.3-71.4c-5.2-74.5,47.2-134.5,123.4-138.9c21.7-1.2,33-7.9,42.9-28.5c21.6-45.1,57.4-76.9,105.9-92.9
	c10-3.3,19.6-8.1,29.4-12.2c-2.6-12.2-3.9-21.2-6.4-29.8c-29.2-101.4-151.2-138.1-225.8-66.6c-19.2,18.4-32.6,43.1-47.9,65.5
	c-10.6,15.5-13.7,32.8-12,51.8c1.1,12.8-0.1,26.1-2.3,38.8c-2.1,12.1-12.6,14.8-23.3,14.3c-10.8-0.5-19.9-4.8-21.8-16.8
	c-0.9-5.8-0.5-12,0.3-17.9c3.6-27.1-8-46.4-29.8-61.3c-38.4-26-76.6-22.8-108.9,9.6c-2.8,2.8-5.1,7.4-8.5,8.3
	c-8.1,2.3-17.6,5.9-24.8,3.6c-10.4-3.3-15-14.7-11.3-24.9c3.6-10,9.7-20,17.2-27.5c37.9-37.7,107.7-43.4,154-13.4
	C2343.6,514.9,2350.8,520.1,2359.4,526z M2144.3,3633.1c0.9-11.7,1.6-17.7,1.7-23.7c1.5-83.5,2.9-167,4.2-250.5
	c6.2-394.3,12.4-788.7,18.6-1183c1.1-71.4,2-142.8,3.3-214.3c2.8-168,5.7-336,8.8-504c0.4-20.2-6.8-36.9-18.1-53.1
	c-59.6-85.3-184.3-84.3-249.6-3c-13.1,16.3-25.4,34.1-25,56.9c0.8,41.2,1.7,82.5,2.3,123.7c4.6,304.8,9.1,609.6,14,914.4
	c0.2,13,1,26.5,5.1,38.6c3.7,10.9,10.4,22.3,19,29.6c43.4,36.4,137.3,24.2,155.8-50.7c2.9-11.7,4.7-23.7,7.7-35.4
	c3.2-12.7,12.2-17.9,24.9-16.7c13.9,1.3,19.9,10.9,18,23c-3.4,21.6-5.6,44.5-14.6,64c-29.6,64-95.6,93.4-166.2,76.8
	c-13.4-3.1-26.6-6.9-43.4-11.2c6.3,341.6,12.5,679.8,18.7,1018.5C2002.5,3633.1,2072.3,3633.1,2144.3,3633.1z M1880.1,3634.1
	c0.7-12.3,1.4-18.2,1.3-24.2c-5.6-338.9-11.1-677.8-17.3-1016.7c-0.3-15.5-6.4-30.9-10.3-46.3c-4.7-18.4-11.1-36.5-14.2-55.1
	c-1.3-7.7,1.6-20.4,7.1-24c16.9-11.2,15.6-26.6,15.2-42.8c-1.9-70.4-4.1-140.7-5.4-211.1c-2.4-133.8-3.9-267.5-6.3-401.3
	c-2.1-118.7-5.1-237.3-6.9-356c-0.4-23.5-7.8-42.8-22.8-60.4c-53.9-63.3-152.1-75.5-218-24.5c-38.3,29.6-59.4,66.9-54.6,119.6
	c14.2,158.2,25.2,316.7,36.6,475.2c6.8,94.3,12.3,188.6,17.8,283c1,16.6,6.5,27.5,21.5,36.4c15.2,9.1,30.5,20.5,41.1,34.4
	c55.4,72.9,33.1,181.5-25.4,219.5c-12.9,8.3-16.7,19.3-14.5,33.4c5.2,33.8,10.7,67.5,15.5,101.3c1.4,9.7,1.2,19.7,1.1,29.6
	c-0.2,20-2.5,40.1-1,60c8.4,115.3,18.4,230.5,26.4,345.9c9.8,141.4,18.1,283,27.2,424.5c1.8,28,4.3,55.9,6.7,88.1
	C1760.4,3626.4,1818.9,3630.1,1880.1,3634.1z M1380.4,3572.3c0.3-7,1.2-11.9,0.7-16.5c-11.9-109.9-23.9-219.8-36-329.7
	c-15.2-137.9-30.8-275.7-45.6-413.6c-9.2-85.9-16.8-172-25.9-258c-22.9-215.9-46.6-431.6-69.2-647.5
	c-15.9-151.9-30.5-304-45.3-456.1c-2-20.9-9.3-38.5-22.7-54.6c-47.8-57.6-148.3-67-207.7-17.7c-36,29.9-54.5,65.8-46.1,116.4
	c24.5,147.7,45.4,296.1,67.6,444.2c30.1,200.8,60,401.6,90.1,602.4c23.8,159.1,47.5,318.1,71.6,477.1
	c24.3,160,49.4,319.9,73.3,479.9c3.2,21.2,13,31.9,33.2,36.8c45.9,11,91.5,23.2,137.3,34.5C1363,3571.8,1370.9,3571.4,1380.4,3572.3
	z M2440.9,2260.6c4.4-81.7,9-159.9,12.8-238.1c2.9-58.3,4.4-116.6,7.5-174.9c7-131.6,15-263.1,21.4-394.6c0.7-14-4.1-30.3-11.3-42.4
	c-46.7-78.2-161.3-88.3-223.3-20.9c-16.6,18-25.8,37.7-22.3,62.9c1.6,11.9,1,24.1,0.8,36.2c-2.5,123.7-5.7,247.4-7.8,371.1
	c-4.5,270.6-8.3,541.1-12.7,811.7c-5.1,309.8-10.5,619.6-15.7,929.3c-0.2,9.6,1.3,19.1,2.1,31.1c60.5-8.2,118.5-6.8,177.8-18.1
	c0-21.3-0.8-39.3,0.1-57.3c7.2-142.6,14.7-285.2,22-427.8c6-116.5,11.5-233,18.2-349.5c1.2-20.3-2-36.3-15.9-52.3
	c-23-26.5-21.5-55.1,0.9-81.8c5.8-6.9,13.2-12.6,18.6-19.8c19.2-25.5,7.3-59.4-22.8-67.8c-10.5-2.9-21.1-6.9-30.4-12.4
	c-48.3-28.6-79.4-99.2-65.9-160c12-53.8,56.5-110.2,121.4-118.7C2424.3,2265.3,2431.9,2262.7,2440.9,2260.6z M2641.9,3566.5
	c4.7,0.8,7.7,2.2,10.3,1.6c45.7-11.6,91.4-23.3,137-35.4c13.5-3.6,17.7-14.4,19.6-27.4c18.2-127.3,36.9-254.6,55.1-381.9
	c18.8-131.3,36.9-262.7,55.7-394c21.5-150.2,43.8-300.3,65.3-450.5c18.7-130.3,36.7-260.7,55.6-391c18.9-130.3,39-260.4,57.5-390.7
	c2.5-17.5,3.7-37.4-2.1-53.5c-23.6-65.9-72.1-100.4-144-92.9c-59.5,6.1-100.8,49.9-105.5,108.9c-1.2,15-1.7,30.1-3.2,45.1
	c-15.4,164.2-30.9,328.3-46.4,492.5c-9.2,97.1-18.1,194.2-27.6,291.3c-14.4,147.1-29,294.2-43.9,441.2c-17.2,169-35.1,338-52.4,507
	c-10.6,104-20.8,208.1-31,312.2C2641.4,3554.6,2641.9,3560.4,2641.9,3566.5z M1561.4,2264.7c-2.5-27-5.2-50.7-6.8-74.5
	c-5.3-76.2-10-152.5-15.3-228.7c-11.7-168.5-23.4-337-35.9-505.4c-1.1-14.3-6.4-29.5-13.8-41.9c-44.6-74.5-141.3-85.7-207.8-51.9
	c-31.5,16-53.5,41.6-71.3,71.7c-12.8,21.6-4.3,43-2.5,64.6c0.2,3,0.4,6,0.7,9c14.9,145,29.7,290,44.8,435
	c21.8,210,43.8,419.9,65.7,629.9c2.2,21.5,4.5,43.1,6.8,65.2c5.5-1,8.8-0.9,11.2-2.2c70.9-41,145.7-48.2,224.1-27
	c6.1,1.7,13.1,0.2,23.3,0.2c-1.9-14.2-3.5-26.2-5.4-39.7c-44,1.1-83.3-3.7-116.4-31.5c-33.1-27.8-53.6-62.6-58.7-105.3
	c-4.5-37.3,5.2-71.5,26.6-102.8C1461.3,2284.3,1505.6,2265.3,1561.4,2264.7z M2689.5,2640.1c3.9-35.5,7.5-65.1,10.2-94.8
	c9.1-98,17.5-196.1,27-294.1c13.1-136,27.2-271.9,40.5-407.9c8.1-83,15.6-166,23.4-249.1c4.3-46,8.7-92,13-138
	c1.4-15.3-1.2-28.7-9.5-42.9c-43.1-73.6-152-90.5-222.5-36.6c-29.3,22.4-46.6,50.8-46.5,89.9c0.1,41.1-4.3,82.3-6.1,123.4
	c-9.8,215.9-19.4,431.8-29,647.6c-0.5,11.8-0.1,23.6-0.1,30.2c24,16.4,47.6,26.4,62.6,43.9c39.7,46.1,50,99.8,27.1,157.6
	c-16.7,42-44.7,73-88.2,89.4c-25.7,9.7-26.7,14.6-16.3,42.1C2547.5,2594.6,2621.3,2587.2,2689.5,2640.1z M1597,2755.2
	c-89.9,30.4-173.1,28.1-256.9-7.5c0,9.6-0.6,15.4,0.1,21.1c12.3,109.9,25,219.8,37.1,329.8c17.1,154.9,33.8,309.9,50.7,464.9
	c2.5,23.2,2.9,24.2,27.2,27.7c57.7,8.2,115.5,15.7,173.3,23.2c7.5,1,15.3,0.1,26.1,0.1C1635.4,3327,1616.3,3042.6,1597,2755.2z
	 M2411.8,3607.1c11,0,17.9,0.8,24.6-0.1c43.8-5.9,87.5-12.3,131.3-18.4c26.4-3.7,27.2-4.3,30-31.8c16.5-164.9,32.7-329.9,49.6-494.8
	c8.8-85.9,18.9-171.7,28.2-257.6c2-18.7,3.4-37.5,5-55c-37.8,8.7-73.1,20.9-109.3,24.2c-36.3,3.3-73.3-2.2-111.6-3.9
	c-0.7,1.8-3,5.4-3.2,9.2C2441.5,3053.7,2426.7,3328.6,2411.8,3607.1z M1473,2633.8c-25.7,5.4-49.5,9-72.4,15.9
	c-13,3.9-25.6,11.9-36.3,20.6c-16.1,13.1-15.4,26.8,0.3,40.2c4.5,3.8,9.8,7.3,15.3,9.3c62.8,23.2,126,22.8,188.8,0.5
	c15.5-5.5,36.2-10.9,35.4-31.8c-0.7-19.4-19.1-28.3-35.4-32.9C1537,2646.8,1504.5,2640.8,1473,2633.8z M2547.6,2635.5
	c-40.2,0.1-70.1,5.5-95.1,18.1c-14.8,7.4-35.4,12.6-34.3,33.2c1.1,21,20.6,27.9,38.1,33.4c57.3,17.9,114.7,16.6,171.8-0.6
	c15.3-4.6,33.9-10.2,35.7-28.1c2-21-16.6-30.3-33.1-38.3C2603.2,2639.8,2573.9,2634.2,2547.6,2635.5z M1639.6,2354.8
	c-0.3-21.7-23.7-43.9-45.6-43.2c-22.5,0.7-40.4,20.3-40.1,43.9c0.3,23.5,18.7,40.4,43,39.6
	C1623.1,2394.3,1639.9,2378.4,1639.6,2354.8z M2490.2,2395.3c28.3-0.6,44-15.7,44.1-42.2c0.1-23.6-18.4-40.4-43.3-39.6
	c-26.8,0.9-43.2,18-42.5,44.3C2448.9,2379.9,2466.7,2395.8,2490.2,2395.3z"/>
<path d="M1661.6,1237.7c-61.4-3-103.3-20.9-127.1-68.1c-22.8-45.2-18.1-89.8,10.5-131c7.1-10.2,18-19.9,29.3-24.4
	c8.5-3.4,21.8-0.9,30.6,3.6c12.3,6.3,12.1,17.3,2.3,27.2c-2.8,2.8-6.4,4.9-9.6,7.3c-31.8,23.9-39.7,47.6-27.6,83.5
	c11.4,33.9,39.6,55.9,73.8,56.2c27,0.3,52.6-6.4,71.5-26.4c21.8-22.9,28.9-18.8,47.2,3.7c19.1,23.6,43.2,34.8,74.2,30.1
	c32.1-4.8,56.2-25.4,63.7-56c7.2-29.2-3.7-56.7-29.9-75.8c-20.6-15-24.1-23.4-15.1-35.8c10.4-14.1,27.8-15.8,45-0.8
	c31.9,27.9,49.8,63.3,44.8,106.5c-5.2,45.1-27.9,79.7-70.9,97.1c-42.7,17.3-84.4,16.8-121.9-14.5c-10.4-8.7-19.6-8.8-32.7-2.7
	C1698,1227.6,1674.7,1233.3,1661.6,1237.7z"/>
<path d="M1260.8,1034.5c73.5-0.4,129.3,53.9,129.1,126c0,8-0.9,16.1-2.7,23.8c-4.2,17.9-12.3,24.9-25.8,23.5
	c-13.3-1.4-17.5-8.6-17.2-29.5c0-1,0.2-2,0.2-3c1.1-55-26.2-92.4-70.2-96.2c-53.8-4.6-101.8,33.4-109.5,85.4
	c-1.3,9-4.8,20.7-11.4,25.3c-14.3,10.1-33.3-0.4-35.2-18.4c-1-9.7,0-20.2,2.6-29.7C1137.4,1078.9,1195.3,1034.9,1260.8,1034.5z"/>
</svg>
