<?xml version="1.0" encoding="utf-8"?>
<!-- Generator: Adobe Illustrator 24.3.0, SVG Export Plug-In . SVG Version: 6.00 Build 0)  -->
<svg version="1.1" id="Layer_1" xmlns="http://www.w3.org/2000/svg" xmlns:xlink="http://www.w3.org/1999/xlink" x="0px" y="0px"
	 viewBox="0 0 4000 4000" style="enable-background:new 0 0 4000 4000;" xml:space="preserve">
<path d="M489.7,2771.5c-19.2-22.9-34.8-43.5-52.4-62.1c-62-65.8-86.8-143.3-76-232.8c6-49.2,26-92.3,56.1-130.9
	c13.6-17.4,28.3-34,42.5-50.9c13.8-16.5,13.8-33.3-0.8-49.1c-14.1-15.3-28.6-30.2-43.5-44.7c-106.5-104.3-108.6-271.4-4.6-378.6
	c9.1-9.3,19-17.8,27.7-27.5c23.6-26.2,23.8-37.9,1.3-63.9c-9.4-10.8-20-20.5-30-30.6c-118-118.8-113-291.3,11.6-404.3
	c35.7-32.3,36.6-48.4,4.2-84.2c-16.6-18.3-35-35-50.8-54c-84.5-101.9-88-239.8-9.7-346.3c23.6-32,52.7-58.2,89.3-73.5
	c21.7-9.1,27.6-22,27.5-44.6c-0.4-95.8,35.6-174.9,114.9-231.1c107.3-76.1,258.3-70,359.5,13.9c16,13.3,30.3,28.5,46.2,41.9
	c23,19.3,39.6,19.4,62.1-0.6c12.5-11.2,23.6-24.3,33.9-37.6c107.4-137.7,334.1-151.5,456.6-0.6c39.8,49,63.1,54,106,0.1
	c41.9-52.8,94.4-91.6,163.6-105.5c108.1-21.7,200.5,5.4,278.8,82c14.8,14.5,27.3,31.5,42.1,46c23.4,23,44.1,22.7,67.8-0.2
	c8.4-8.1,15.1-17.9,22.7-26.7c128.8-149.5,348.2-142,458.9,11.2c42.5,58.8,59.6,59.1,107.4,5.4c79.4-89.1,177.3-134,297.5-125.3
	c126.3,9.2,246.4,102.5,262.7,245.4c2.3,20.4,10.7,28.5,31.3,31.4c42.6,6,78.3,27.7,108.1,58.1c107.2,109.4,114.6,262.9,20.4,387
	c-10.2,13.5-22.2,25.6-31.7,39.5c-16.7,24.5-15.1,36.8,6.2,57.9c15.7,15.5,33.1,29.5,47.9,45.7c103.5,113.2,104.5,262.3,3.1,377.8
	c-47.9,54.6-48.2,63.1,5.6,114.7c47.5,45.5,79.9,99,92.4,163.7c16.6,85.9-5.6,162.2-59.8,229.7c-11.4,14.1-25.4,26.1-37.3,39.8
	c-23.8,27.5-24,39-1.3,68.2c9.6,12.3,20.4,23.6,31,35c93.6,100.5,112.6,269.7-2.6,388.3c-11.8,12.1-22.6,25.1-33.4,38.1
	c-11.7,14.1-11.2,28.4,1,42.2c13.8,15.6,27.8,31,41.3,46.7c104.5,121.4,95.4,296.1-23.2,398.8c-24.9,21.6-56.9,35.9-87.5,49.5
	c-20,8.9-30.4,19.7-35.2,41.4c-29.2,131.4-129.5,212-263.8,218.1c-106.9,4.9-192.1-35.8-261.5-114.6c-10.3-11.7-19.5-24.4-30.2-35.8
	c-21.5-22.9-40.3-25-65-5.8c-11.1,8.6-21.3,19.6-28.6,31.5c-79.7,130-300.5,149.1-420.3,34.3c-15.9-15.2-29.6-32.7-44.8-48.8
	c-26.4-28.1-48.7-30-78.1-5.7c-9.9,8.2-18.5,18.3-26.5,28.5c-105.3,135.9-317.2,138.3-432,9c-9.5-10.7-18.3-22.1-28.4-32.1
	c-22.1-21.7-41-23.8-65.7-5.4c-12.3,9.2-23,21.1-32.8,33.1c-112.7,137.6-337.6,138.9-445.4-7c-43.9-59.5-74.4-43.3-110.5,0.8
	c-47.4,58.1-106.3,93.2-181.2,104c-123.3,17.7-241.2-44.3-293.2-158.8c-10.5-23.1-22.5-37.9-49.5-42.7
	c-153-27.1-231.9-193.1-193.7-333.8c10.5-38.6,29.8-71.7,54.4-102.5C457,2813.3,471.3,2794.9,489.7,2771.5z M437.4,2994.2
	c-0.6,116.3,62.7,197.4,169,216.4c33.9,6.1,49.8,21,62.4,52.8c66.1,167.6,271,202.5,390.9,68.2c9.5-10.7,19.9-20.7,28.4-32.2
	c28.8-38.9,116.6-42.4,149,3.4c12.7,17.9,27.6,34.8,43.8,49.6c50,46,109.4,72.5,177.6,64.5c60.7-7.1,114.3-33.8,156.2-80.5
	c11.3-12.6,22.9-24.8,34.2-37.5c29.2-32.8,104.1-42.3,141.2-1.4c15.7,17.3,31.8,34.4,49,50.3c38.2,35.4,82.9,58.9,134.9,64.4
	c80.5,8.6,147.6-21.1,204-77.4c14.7-14.7,27.6-31.4,43.3-44.9c42.2-36.1,98.3-32.8,136.6,7.2c10.8,11.3,20.2,23.8,30.9,35.2
	c116.6,124.5,284.3,90,358.6-10c11.5-15.5,24.7-30.6,39.8-42.5c43.1-34.1,95.3-29.5,132.9,10.3c9.8,10.4,18.6,21.7,27.8,32.6
	c29.8,35.3,65,63.1,107.4,82.4c129.5,58.7,318.8-12.8,337.8-166.4c0.6-5.1,2.8-10,3.6-15.2c3.9-26.1,19.8-40.3,43.7-49.7
	c25.3-9.9,50-21.9,73.5-35.4c35-20.1,59.4-50.5,73.3-88.3c32.2-87.4,16-166-44.7-235.8c-13.6-15.7-29.7-29.3-42.7-45.4
	c-32.9-40.6-32.2-84.3,1.5-124.2c10-11.9,21.9-22.2,33.2-33c96.9-93,74.2-223.6,14-297.4c-13.1-16.1-27.9-30.9-41.9-46.3
	c-47.7-52.3-47.9-100.1-0.3-151.6c6.2-6.7,12.5-13.3,19.5-19.1c87.2-72.8,94-222.4,8.4-311.6c-16.2-16.9-34.2-32-50.6-48.7
	c-35.9-36.5-39.9-82.4-9.6-123.5c13.8-18.8,30.6-35.4,45.6-53.4c67.3-80.9,66.4-197-3.5-275.5c-18.9-21.2-41.8-38.9-62.8-58.2
	c-39.8-36.6-44.8-86.6-12.7-129.4c7-9.3,14.7-18.3,23-26.5c35.7-35,54.9-77.8,64-126.5c21.7-115.4-47.5-223.4-161.7-250.8
	c-6.3-1.5-12.6-3.4-19-4.5c-21.2-3.4-31.1-16.4-33.3-37.1c-1.6-15.5-4.2-30.9-6.5-46.3c-16.4-112.5-128.2-179.1-214.7-183.1
	c-82.3-3.8-153.4,22.5-213.9,77.7c-20.1,18.4-37.9,39.3-57.4,58.5c-44.5,43.8-107.7,39.2-145.8-10c-14.3-18.5-27.9-37.9-44.6-54.2
	c-55.2-53.8-120.1-80.3-198.6-66c-62.6,11.4-114.1,41.7-156.9,88c-11.5,12.4-21.9,26-34.7,36.9c-44,37.6-101.3,31.7-137.5-12.8
	c-11.5-14.1-22.6-28.6-35.2-41.7c-98.1-101-239.3-103.7-341-6.3c-17.8,17.1-33.2,36.5-50.5,54.2c-40,41.1-103.4,40.2-141.8-1.7
	c-13.2-14.4-24.9-30.1-38.5-44c-93.7-96.1-234.6-99-331.9-6.3c-21.6,20.6-40.7,43.8-60.7,66c-25.1,28-56.7,33.7-92.3,29
	c-25.5-3.4-40.9-19.9-57-37.6C853,441,691.4,439.7,588.4,549.1c-30.5,32.4-48.9,70.3-49.6,115.5c-0.3,19.5-1.1,39.1,0.3,58.5
	c2,27.1-9.3,44.7-33.9,55.1c-11.9,5.1-23.4,11.2-35,17.2c-43.9,22.4-73.3,57.5-89.6,103.6c-29.6,83.8-12.2,158.9,44.4,225.4
	c16.8,19.7,37.6,36,55.2,55c39,42.1,40.5,93.5,3.9,137.4c-13.3,15.9-28.9,29.9-43.8,44.4c-22.8,22.3-39.5,48.4-47.8,79.2
	c-22.9,85.6-1.8,159.1,61.5,220.9c14.9,14.5,30.8,28.3,43.2,44.8c27.8,36.9,27.6,74.7-0.7,111.3c-14.2,18.4-31.7,34.3-48.5,50.5
	c-22,21.3-39.4,45.6-46.4,75.5c-20.1,85.7-7.3,162.8,62,224.1c13.6,12,27.7,23.9,39.7,37.4c37,41.6,38.5,82.3,4.9,127
	c-10.1,13.5-21.9,25.7-33.3,38.2c-78.3,85.4-79.5,202.5-2.7,289c12.9,14.6,27.7,27.5,40.5,42.2c36.2,41.7,36.2,92.1,0.7,134.1
	c-9.2,10.9-18.8,21.5-28.3,32.3C451.9,2905.4,435.3,2949.3,437.4,2994.2z"/>
<path d="M2573,818.4c7.2-39.2,14-77.3,21.2-115.3c1.7-8.9,4.3-17.7,7.2-26.3c5.6-16.1,17.1-22.4,33.6-18
	c15.7,4.2,20.3,17.2,17.2,30.6c-8.7,37.8-19,75.2-29.2,112.6c-2,7.2-6.7,13.7-11.8,24c34.6,8.9,67,16.6,99,25.7
	c62.4,17.7,124.7,36,186.8,54.7c11,3.3,21.8,8.6,31.5,14.9c13.5,8.7,13.5,23.1,5.6,34.2c-4.7,6.7-16.3,11.2-25,11.6
	c-9.9,0.5-20.2-4.2-30-7.6c-191.8-64.7-389.5-102.2-590.5-120.2c-207.6-18.6-415.3-15.1-622.7,9.7c-166.8,20-330.7,53.2-493.3,94.1
	c-10,2.5-20.3,3.9-29.8,5.7c-25.9-36-22.2-50.2,18.4-60.6c74.2-18.8,149-35.6,223.5-53.2c7.3-1.7,14.5-4,21.7-6
	c-11.4-37.8-22.3-73.4-32.9-109c-2.2-7.4-3.8-15.2-4.2-22.9c-0.9-16.6,7-27.4,23.6-30.5c15.9-3,25.3,6.3,29,19.8
	c9.4,35.1,17.4,70.6,26,105.9c1.8,7.5,3.7,15,7,27.9c74.2-9.9,148-21.4,222.1-29.2c74.9-7.8,150.2-14.1,225.4-17
	c74-2.9,148.3-3,222.3-0.3c75.3,2.7,150.5,8.7,225.5,16.2C2424.8,797.5,2499.1,808.8,2573,818.4z"/>
<path d="M1512.3,3007.2c-64.2-11.4-122.1-19.7-178.9-32.4c-82.3-18.4-163.9-40-245.7-60.3c-7.5-1.9-17.8-2.8-21.3-8
	c-5.8-8.6-9.8-20.4-9.5-30.6c0.4-13,10.3-20.9,24.2-19.4c10.2,1.1,20.5,3.3,30.4,6.3c157.2,47.2,318.1,74.7,480.5,96.9
	c208.3,28.4,417.4,30.2,626.5,21.1c209.4-9.2,416-41.2,617.3-102c24.8-7.5,48.8-17.8,73.4-26c21.5-7.2,32.7-1.8,40.5,17.3
	c7.7,18.9-1.5,31.3-17.4,37.3c-35.2,13.3-70.7,26.2-106.9,36.1c-156.8,43.1-316.3,71.7-478.3,87.3c-250.8,24.2-501,15.9-750.9-12.2
	c-29-3.3-30.5-2.7-37.2,25.5c-6.9,29.1-12.9,58.3-19.6,87.4c-2,8.8-4.9,17.5-7.9,26.1c-5.1,14.7-15.9,19.8-30.6,17.2
	c-15.8-2.8-22.2-13.3-19.4-28.2c5.8-30.6,12.6-61,19.2-91.4C1504,3040.5,1507.9,3025.8,1512.3,3007.2z"/>
<path d="M3246,1796.9c37.1,0,72-0.7,106.9,0.4c9.6,0.3,22.8,3,27.7,9.6c16,21.1,2.6,44.5-21.1,44.2c-34.9-0.4-69.9-0.1-109-0.1
	c-1.1,16.1-2.9,28.4-2.6,40.7c5.9,219.2-11.2,436.5-52.8,651.7c-11.1,57.2-26.6,113.5-39.7,168.5c-47.3,8-55.7-0.1-44.2-43.8
	c30.6-117.2,51-236.1,64.3-356.4c21-190.5,23.6-381.2,7.3-572.3c-16.4-192.2-50.2-381.2-99.6-567.5c-2-7.5-3.3-15.2-4.4-22.9
	c-2.3-15.7,5-24.8,20.3-27.6c14.2-2.6,26.2,0.4,31.6,15.5c3.9,11,7.1,22.3,10.3,33.5c55.1,192,85.6,388.1,99.1,587.1
	c0.7,10.4,1.4,20.8,2.4,31.1C3242.7,1791,3244.4,1793.2,3246,1796.9z"/>
<path d="M772.8,1781c2.4-224.2,28.1-445.7,88.6-662.4c2.1-7.5,2.9-16.9,7.9-21.6c6.5-6.2,16.6-12,25.1-11.9
	c12.2,0.1,22.4,7.7,21.2,22.6c-0.8,9-2.3,18.1-4.6,26.8c-74.5,284.5-92.3,574.5-78.9,866.7c10.6,230.4,44.8,457.7,107.5,680.2
	c8.2,29,5.4,36.3-14.9,43.8c-20.6,7.6-29.2,5-35.9-15.9c-9.9-30.9-18-62.4-25.7-93.9c-50.5-207.7-82.5-418.1-90-631.8
	C770.8,1916.2,772.8,1848.6,772.8,1781z"/>
<path d="M2517.8,1977.3c-64.2,5.6-139-52.5-140.2-141.1c-1-74.5,66.1-138.2,144.4-138.4c71.5-0.1,136,64.3,137.6,137.4
	C2661.3,1917.4,2602,1976.9,2517.8,1977.3z"/>
<path d="M1459.5,1976.2c-82-0.4-140.5-57-140-135.5c0.5-80,60.8-139.1,141.5-139.9c76.3-0.8,136.6,57.9,138,139.2
	C1600,1902.3,1553,1979.9,1459.5,1976.2z"/>
<path d="M2644.8,2232.4c-49.2,3.6-95.5-7.5-138.4-31.2c-64-35.4-68.2-104.1-7.1-143.7c82.5-53.5,211.7-59.9,302.6,2.1
	c53.6,36.5,52.7,98.1-0.9,135c-35.1,24.2-75.4,34-117.3,37.7C2670.8,2233.3,2657.8,2232.4,2644.8,2232.4z M2648.7,2183.5
	c32.8-7.1,68.5-12.8,102.8-23c16.3-4.8,36.6-14.6,35.4-36.2c-1.1-20.1-19.2-30.7-36.2-36.8c-68.2-24.6-137.1-24.2-205.3,0.3
	c-18.4,6.6-37.3,18.7-36,41c1.3,22.1,21,32.2,40.3,36.7C2581.1,2172.7,2613.1,2177.2,2648.7,2183.5z"/>
<path d="M1332.1,2010c38.8,9.2,78.1,16.9,116.3,28.1c16.9,5,33.1,15.4,47.1,26.4c46.2,36.4,45,89-2.2,124.5
	c-10.3,7.7-21.8,14.6-33.8,19c-76.6,28-154.5,33.2-232.7,7.5c-18.2-6-35.8-15.6-51.8-26.4c-40.3-27-51.4-92.9-2.5-129.7
	c37.9-28.5,81.3-39.1,127.1-43.4c10.3-1,20.8-0.1,31.1-0.1C1331.2,2014.1,1331.7,2012,1332.1,2010z M1337.2,2181.2
	c29.4-5.6,65.3-10.4,100-19.8c18-4.9,39-15.5,39-38.1c0-20.4-19.6-29.7-35.9-36.9c-70.1-30.8-140.9-29.4-211.3-1.2
	c-16.7,6.7-36,16.2-35.2,37c0.9,21.3,19.2,32.6,37.6,40.6c8.2,3.6,17.1,6.6,25.9,7.9C1281.5,2174.4,1305.9,2177.1,1337.2,2181.2z"/>
<path d="M1859.8,1877.1c5.5,21.1,9.5,41.5,16.2,61c29,84.8,129.6,113.3,195.6,55.9c20.5-17.9,31.6-40.7,37.1-66.7
	c2.2-10.1,3.4-20.5,5.1-30.7c2.3-14.2,8.1-24.4,25.2-23c16.3,1.3,28.1,8.5,29.4,25.2c1,12.7-1.2,25.8-3.5,38.4
	c-14,80.2-64,130.9-139,141.8c-82.1,12-157.4-24.3-191.3-94.9c-10.5-21.8-17.9-46.1-21.2-70.1
	C1808.3,1878.7,1816.7,1872.9,1859.8,1877.1z"/>
<path d="M3215.2,792.2c-2,4.2-3.7,12.6-8.8,17.5c-29.7,28.9-59.5,57.9-90.9,85c-16.9,14.5-34,11.3-42.2-5.9
	c-3.5-7.3-5.6-21.1-1.5-25.2c33.6-33.8,67-68.1,104.2-97.7C3191.6,753.5,3214.5,769.8,3215.2,792.2z"/>
<path d="M3278.9,3035c-0.2,22.7-25.2,38.1-43.3,30.2c-5.8-2.5-10.9-7.1-15.5-11.5c-24.3-23.5-48.7-46.8-72.2-71.1
	c-19-19.6-18.9-30.8-2.4-46c15.8-14.7,27.6-6.1,40,5.8c26.3,25.2,53.4,49.4,79.7,74.5C3271.4,3022.7,3275.7,3030.6,3278.9,3035z"/>
<path d="M668,2580.1c-18.6-0.4-27.7-10.1-30.3-26.1c-2.5-15.1,0.2-28.9,18.2-33.2c36.4-8.6,72.8-17.2,109.3-25.3
	c15.3-3.4,28.8,0.3,35.4,16.1c7.5,17.9-4.6,27.9-18.3,32.7C744.5,2557.3,706.1,2568.3,668,2580.1z"/>
<path d="M670.4,1981.6c-15.5,0-31.1,0.2-46.6,0c-14.5-0.2-25.5-5.6-27.1-21.7c-1.5-15.7,4-28,20-33.6c3.6-1.3,7.5-2.7,11.3-2.7
	c31.1-0.3,62.2-1.1,93.2-0.1c17.3,0.5,29.2,9.2,29.7,28.9c0.4,20.9-12.7,26.4-30,27.5c-16.8,1.1-33.6,1.9-50.4,2.8
	C670.4,1982.2,670.4,1981.9,670.4,1981.6z"/>
<path d="M3334.6,1274.2c7.8,7,18.6,12.7,23,21.6c6.4,13,1.1,27.9-12.8,32.2c-39.4,12.2-79.2,23.8-119.6,31.6
	c-19.1,3.7-31.1-21.3-20.3-38.7c3.2-5.2,8.7-10.8,14.3-12.5C3256.1,1296.8,3293.4,1286.2,3334.6,1274.2z"/>
<path d="M655.2,1189.4c41.6,12.7,78.6,23.4,115.2,35.7c13.2,4.4,14.4,17.1,12.1,29.4c-2.6,13.9-12.1,20.8-25.1,18.2
	c-37.8-7.7-75.7-15.7-112.8-26c-13.7-3.8-20.2-17.8-12.9-31.5C636.9,1205.4,646.9,1198.2,655.2,1189.4z"/>
<path d="M2763.5,3131.5c-9,8.9-15.8,20.4-25.6,24c-13.6,5.1-30.4,2.1-35.3-14.4c-9.2-30.7-16.4-62-22.6-93.4
	c-3-15.2,7.8-23,21.8-26.9c13-3.7,23.8-1.5,28.6,11.7C2741.4,3063.8,2751.5,3095.5,2763.5,3131.5z"/>
</svg>
