<?xml version="1.0" encoding="utf-8"?>
<!-- Generator: Adobe Illustrator 24.3.0, SVG Export Plug-In . SVG Version: 6.00 Build 0)  -->
<svg version="1.1" id="Layer_1" xmlns="http://www.w3.org/2000/svg" xmlns:xlink="http://www.w3.org/1999/xlink" x="0px" y="0px"
	 viewBox="0 0 4000 4000" style="enable-background:new 0 0 4000 4000;" xml:space="preserve">
<path d="M2969.4,1436.5c154.9,152.1,254.3,333.9,302.1,546.7c35.8-1.7,70-3.6,104.1-4.7c20.6-0.7,41.5-1.9,61.9,0.3
	c35.2,3.8,52.4,22.1,49.5,57.6c-4.3,51.4-11.1,102.8-19.8,153.7c-27.7,161.9-78.5,316.6-151.5,463.7
	c-130.7,263.7-321.7,471.2-579.4,615.5c-38.1,21.3-77,41.1-116.3,60.1c-20,9.6-29.4,21.7-28.2,45.1c1.6,29.7,0.4,59.8-2.3,89.5
	c-4.8,52.4-20.2,71.1-71.2,83.9c-43.4,10.8-87.4,19.8-131.6,26.8c-222.1,35.2-445.6,43.9-670.2,36.8c-127.8-4-254.5-17.2-380.6-36.9
	c-45.3-7.1-90.3-16.9-134.9-27.9c-55.7-13.8-69.8-31.3-74.6-88c-2.3-27.5-4.4-55.2-3.3-82.6c1-23.8-7.3-36.5-28.7-48.1
	c-72.8-39.2-146.7-77.3-215.3-123c-258.2-172-436.7-407.1-542.7-698.2c-50.2-137.8-83.1-279.6-103.1-424.5
	c-2.7-19.3-3.2-39-2.9-58.5c0.5-32.4,12.5-45.3,45.4-48.9c15.9-1.7,32.1-1,48.2-1.2c12.5-0.2,25,0,39.8,0
	c4.6-38.3,7.8-74.7,13.6-110.7c35-216.4,123.4-406.1,286.2-556.2c120.7-111.4,261.8-187.3,423.8-218.1
	c242.3-46,463.4,6.2,660.9,154.3c27.4,20.6,51.8,45.5,76.4,69.6c26.8,26.2,26.4,27.2,61.1,9c62.3-32.5,126.7-59.7,194.6-78.5
	c171.5-47.5,342.8-45.8,514,0.5c31.3,8.5,31.3,8.9,47.5-16c190.8-294,381.6-588.1,572.3-882.1c14.4-22.2,27.6-45.2,43.2-66.5
	c27.8-37.8,65.9-53.2,111.9-43.5c44.3,9.4,72.3,37.9,85.8,80.7c9.2,29.4,2.5,57.6-11.5,83.2c-16.5,30.2-35.2,59.3-54.6,87.7
	c-102.8,149.7-206.2,298.9-309.2,448.4c-64.9,94.2-129.5,188.6-190.2,286.2c23.1-24.9,46.8-49.3,69.3-74.7
	c182.6-206.8,364.8-413.8,547.4-620.6c15.2-17.2,30.9-34.3,48.7-48.6c44-35.5,100.6-33.9,142.1,2.3c40.2,35.1,51.8,95.3,22.1,141
	c-19.9,30.5-45.5,57.7-70.5,84.5c-220.9,237.2-442.3,474-663.5,711C2979.9,1422.1,2975.5,1428.6,2969.4,1436.5z M2412.7,1641.7
	c-2.1,18.2,12.3,20.6,24,23.1c36.7,8,68.1,26.8,99.2,46.3c18.3,11.5,36.3,23.4,56,36.3c21-16.5,41.1-32.3,62.1-48.7
	c-40.6-52-102-58.5-149.6-89.5c-29.8,16.1-56.4,38.6-92.6,33.5c6.3-11.6,7.8-21.5-7.9-27.1c-17.4-6.2-33.6-10.7-53.2-5.7
	c-31.7,8.1-59.7-9.6-68.6-41.8c19.2-1,37.6-2.1,56-3.1c2.1-21.1-7.8-27.3-24.4-25.6c-54.7,5.6-109.3,11.5-163.9,17.6
	c-5.1,0.6-9.8,4-18,7.5c21.7,22.9,41.8,42.7,60.1,64c11.3,13.1,23.7,13.7,39.7,12.9c39.8-1.9,79.8-1,119.7-0.9
	C2371.9,1640.5,2392.3,1641.3,2412.7,1641.7z M334,2208.2c2.4,16.3,3.4,27.4,5.7,38.1c24.4,112.6,58.6,222,105.6,327.4
	c54.1,121.6,123.5,233.4,210.7,334c110.5,127.4,243.2,226.3,389.6,309c88.3,49.8,180.1,82.9,281.1,96.1
	c170.1,22.3,340.5,36.3,511.9,37.8c158.7,1.4,317.4-4.4,474.7-26c219.3-30.2,178.9-15.3,358.1-110.4
	c150.7-80,283.7-183.1,394.4-313.5c162.9-191.8,258.6-416.1,316.2-658.5c2-8.2,1-17.2,1.7-30.4c-333,45.8-662.4,92-998.3,105.9
	c-0.9-11.4-1.6-20.7-2.5-32.2c341.5-22.5,677.6-61.4,1014-110.3c5.4-40,10.6-78,16.1-118.5c-12.8,0.8-20.6,0.9-28.4,1.8
	c-74.1,8.6-148.2,18-222.4,25.9c-177.1,18.6-354,39-531.4,54.1c-227.9,19.4-456.6,27-685.4,29.4c-284.1,3-567.7-5.5-850.8-29.5
	c-132.8-11.3-265.4-24.4-397.9-38.5c-115.4-12.3-230.4-27.2-345.7-40.5c-13.2-1.5-26.8-0.2-44.1-0.2c5.5,35.2,9.6,68,16.3,100.3
	c1.3,6.2,12.2,13.7,19.5,14.8c80.6,12.1,161.3,24.4,242.2,34.1c151.7,18.3,303.4,36.8,455.4,51.6c116.6,11.4,233.7,18.6,350.7,25.1
	c86,4.8,172.3,5.3,258.5,8c10.3,0.3,20.6,1.9,30.9,2.9c10.9,1.1,18.1,7.6,15.6,18.1c-1.4,6.1-8.6,13.3-14.6,15.2
	c-9.6,3-20.4,2.7-30.7,2.5c-55.1-1.4-110.3-2.5-165.4-5.2c-103.3-4.9-206.8-8.4-309.8-17c-127-10.6-253.9-24-380.4-39.4
	c-128.8-15.7-257.1-35.3-385.6-53C385.9,2213.5,362.2,2211.4,334,2208.2z M2516.5,3328.2c-221.6,37.3-439.5,59.6-659.4,59.6
	c-219.9,0-437.3-26.7-655.8-58.1c0,35.7-0.7,67.5,0.2,99.3c1.1,38.2,4.4,41.3,42.3,49.2c111.5,23.2,224.1,38.9,337.7,46.8
	c242.5,16.7,484.7,13.7,725.8-19.5c61.3-8.4,121.8-22.4,182.7-33.8c14.4-2.7,26.8-7,26.6-25.4
	C2516.3,3408.5,2516.5,3370.8,2516.5,3328.2z M1784.4,1383.9c-2.4-5.6-3.5-10.3-6-13.8c-4-5.6-8.6-10.8-13.4-15.7
	c-100.8-99.5-220.9-165.1-358.7-194.7c-181.4-39-356.6-11.8-517.5,77.4c-288.6,160-431,412.5-446.7,739.4c-0.2,4.1,2.5,8.4,4.5,14.7
	c17.2,0,33.7,0,52.9,0c1.1-12.7,2-23.8,3.1-35c11.7-128.4,42.1-251.2,108.2-363.4c107.9-182.8,261.8-308,469-357.8
	c240-57.6,458.2-11.7,644.8,157.1C1746.9,1412.4,1755.8,1410.9,1784.4,1383.9z M621.5,2010.9c1.8-14,3.6-22.9,4-31.8
	c4.7-107.3,32.4-208.8,81.7-303.7c20.5-39.5,44-78.8,73-112.3c96.3-111.3,217.9-182.5,362.6-210.8c45.9-9,93.5-9.2,140.4-12.8
	c13.7-1,28.6,1.9,36.3-13.5c13.5-27.2,35.8-45.2,61.6-60.9c-231-34.3-434.3,26-604.1,184.1C618.9,1596.1,552,1785,543,1999.8
	C570.5,2003.7,593.9,2007,621.5,2010.9z M3661.3,572.6c0.6-32.7-32.3-53.1-53.9-39.7c-10.5,6.5-19.8,15.7-28,25.1
	c-117.8,133.4-235.5,267-352.9,400.8c-74.2,84.6-147.8,169.9-221.7,254.7c-107.1,123-214.3,245.9-321.4,368.9
	c-8.3,9.5-17.3,18.8-23.3,29.7c-3.2,5.6-3.5,16.4-0.1,21.4c5.8,8.5,15.9,8,24.2,1c4.3-3.7,8.1-8.1,12-12.3
	c86.1-94,171.6-188.5,258.3-282c196.1-211.3,392.8-422.1,589.3-633c31.3-33.6,63.5-66.4,94.3-100.5
	C3648.4,595,3655.8,580.7,3661.3,572.6z M2523.7,1555.9c30-0.9,40-14.7,49.8-28.8c76.9-110.3,153.8-220.6,230.6-330.9
	c169.6-243.2,339.2-486.3,508.5-729.6c22.3-32,43.8-64.8,63.5-98.4c13.3-22.7,8.5-36.6-11.9-49.7c-18.2-11.7-30.1-9.5-47.5,10.4
	c-7.5,8.6-13.9,18.3-20.1,27.9c-46.7,72.4-92.9,145.2-139.8,217.4c-179.5,276.6-359.4,553-538.8,829.7
	C2587.1,1451.9,2557.7,1501,2523.7,1555.9z M1635.1,1657.2c32.3,0,61.9-0.6,91.5,0.1c90.5,2.1,170.9,32.6,240.7,89.7
	c93.2,76.1,143.6,177.1,168.1,292.9c2.8,13.3,5.7,26.6,8.8,41.1c22,0,41.9,0,60.4,0c2.3-4.9,3.9-6.9,4.1-9c0.4-3.4,0.2-6.9-0.3-10.3
	c-18.9-124.3-62.4-237.7-151.1-329.8c-108.1-112.3-237.5-166-395-138.7c-29.4,5.1-31.6,7.4-31.2,37.9
	C1631.1,1637.8,1633,1644.4,1635.1,1657.2z M1633.3,1555.3c14.6-1.9,25.7-3.4,36.8-4.7c26.2-2.9,52.6-9.2,78.7-7.9
	c113.8,5.8,215.4,44.1,300.2,121.8c114,104.4,174,237.4,202.5,386.8c1.6,8.6,4.1,17.1,6.6,27.5c15.4-0.7,28.6-1.3,42.3-1.9
	c0-12.8,1.3-22-0.2-30.8c-21.1-120.4-61.7-233.2-135.5-331.9c-131.5-175.8-306.7-248.4-524.2-218.9c-5.2,0.7-10,4-16.5,6.6
	C1626.9,1519.1,1629.7,1534.8,1633.3,1555.3z M2584,1315.9c-16.9-5-26.5-9.2-36.4-10.5c-60.2-7.8-120.4-19.1-180.9-21.5
	c-165.4-6.6-321.3,30.8-466.7,110.7c-14.6,8-31.5,14-38.9,31.9c3.5,2.6,5.9,5.6,9,6.4c15.5,4.2,31,9.7,46.8,11.1
	c11.8,1,25.5-0.8,36-6c105.5-52.8,217.7-77.4,334.8-84.3c78.5-4.6,156,1.3,233.3,14.3c9.1,1.5,22.6,1.7,28-3.6
	C2561.4,1351.8,2570.2,1335.6,2584,1315.9z M2782.6,1641.5c29.7,24.5,55.2,45.8,81,66.8c29,23.7,51.9,51.8,65.4,87.2
	c22.5,59,45.7,117.8,68.1,176.9c6,15.9,10.3,32.5,16.5,52.2c26-3.7,50.3-7.1,75.8-10.7c-1.2-12.1-0.9-20.2-2.8-27.7
	c-34.8-134.5-94.8-256.1-186.3-361.2c-13.5-15.5-28.9-29.5-44.6-42.9c-11.3-9.6-23.7-8.3-33,4.1
	C2809.6,1603.5,2797.2,1621.3,2782.6,1641.5z M989.2,2050.8c3.2-5.5,5.1-7.4,5.3-9.4c0.7-8,0.9-16,1.1-24
	c1-57.2,13.8-112.1,40.1-162.4c36-68.8,86.7-125.4,160.6-153.8c34.5-13.3,60.1-31.9,76.7-64c7.5-14.4,23.7-24.4,24.7-49.9
	c-12.9,7-24.2,9.4-29.3,16.3c-26.6,36.4-64.7,43.4-105.8,48.2c-22.1,2.6-46.5,8.7-64.1,21.3c-38.6,27.6-73.6,60.3-110.5,91.2
	c20.4,4.8,20.9,18.8,16.9,34.2c-5.5,21.1-19.2,36.5-37.1,47.9c-23.9,15.3-37.2,37.2-40.4,64.9c-4.4,38.7-8,77.5-11.4,116.4
	c-0.5,5.2,2,10.7,3.8,19.1C944.1,2048.2,967.5,2049.5,989.2,2050.8z M852.5,1558.4c28.2,2.5,55,6,82,6.7c12.9,0.4,28.9-0.5,38.5-7.6
	c65.5-48.5,140.2-71.9,218.9-86.3c13.3-2.4,26.9-6.5,38.9-12.7c16.8-8.6,30.2-10.4,47.4,1.6c24.6,17.3,71.3,19.8,96,9.7
	c-35.7-27.2-38.1-26.3-49.4-58.8c-9.5-27.5-26.5-31.7-52.1-31.9c-117.5-0.8-222.8,38.7-322.6,95.8
	C912.2,1496.8,880.7,1526.6,852.5,1558.4z M3197.7,1997.7c-9.6-147.2-190.3-463.5-287.7-504.1c-10.9,14.2-22.4,29-35.9,46.5
	c70.4,62,121.9,134.4,166.9,212.1c45.6,78.9,71.5,165.1,94.6,254.3C3158.1,2003.4,3177,2000.7,3197.7,1997.7z M2098.2,2083
	c-1.9-16.5-2.4-27.8-4.6-38.9c-12.5-63.8-36.8-122.7-72-177.4c-48.7-75.6-117-125.1-202.1-151.6c-37.2-11.6-75.5-17.1-115.7-11
	c0,23,0,43,0,65.7c16.4,1.7,31,3.7,45.6,4.7c55.5,3.8,105,22.8,148.2,57.9c72,58.5,117.4,133.8,140.7,223.1
	c2.5,9.6,5.7,18.9,8.4,27.6C2064.5,2083,2078.9,2083,2098.2,2083z M832.5,1575.5c-24.3,14.1-38.6,33.1-50.7,52.9
	c-61.8,101.3-101.1,210.4-110.7,329.4c-5.5,68-3.1,70.5,68.7,65.5c1.4-2.6,3.8-5.4,4.4-8.5c1.8-9,3.1-18.1,4.2-27.1
	c11.7-101.3,22.6-202.8,89-286.3C806.1,1647.7,806.1,1647.7,832.5,1575.5z M2516.4,1413.8c-98-44.5-423.3-10.5-525.8,60.2
	c27.2,16.3,52.9,32.7,79.8,47.1c7.1,3.8,18.6,4.5,26.2,1.6c60.5-22.5,123.6-22.8,186.7-24.1c8.6-0.2,17.2-0.9,29.4-1.5
	c-4.3-6.9-6.6-10.4-8.7-14.1c-16.6-29.3-8.2-57.2,21.5-71.5c45.6-21.9,101.3-8.7,133.4,31.5c6.8,8.5,13.7,16.9,23.6,29.2
	C2495,1450.6,2505,1433.3,2516.4,1413.8z M1462.8,1578.6c-24.7-7.1-38.3,9.4-52.4,21.7c-135.8,117.6-207.1,269-231,444.8
	c-0.8,6.2,1.8,12.9,2.9,20.3c8.2,1.6,14.8,3.5,21.5,3.9c6.7,0.4,13.4-0.8,23.2-1.6c2-11.5,4.1-22.4,5.9-33.4
	c22.1-132.2,71.4-251.1,168.3-347.2c17.9-17.8,34.5-36.9,51.3-55.8C1465.1,1616.9,1472.6,1600.8,1462.8,1578.6z M1337,2074.8
	c3.5-6.6,5.2-8.5,5.5-10.6c18.4-118.6,61.6-225.4,146.6-312.8c4.5-4.7,7.4-15.5,5.2-21.2c-6.4-16.6-15.7-32-23.9-47.9
	c-96.9,55.9-205.6,282-191,387.5C1298.1,2071.4,1317.2,2073.1,1337,2074.8z M2239.7,1689.8c11.9,22.3,22.5,41.9,33,61.5
	c7.7,14.4,18.4,20.4,36,20.6c58.6,0.4,112.9,17.1,162.5,48.7c13.5,8.6,27.5,16.8,42,23.5c19.5,9.1,28.7,5,38.4-14.5
	c16-32.4,11.4-49.9-19.6-69.4c-63.1-39.7-132.3-63.2-205.6-74.1C2299.6,1682.2,2272.1,1680.5,2239.7,1689.8z M2484.9,1940.1
	c5.5,13.9,8.5,22.4,12.2,30.6c13.9,30.4,19,32.6,49.8,22.5c44.6-14.6,79.1-41,99.1-84.5c7.2-15.6,15-31,21.9-46.8
	c17.8-41,49-65,92-75.7c33.3-8.3,48.9-0.6,59.8,32.7c3.2,9.8,4.6,20.4,9,29.6c7.6,16.1,25.6,18.8,35.7,4.1
	c5.6-8.2,7.9-21.7,5.6-31.5c-6-26.4-24.3-43.9-49.4-53.3c-15-5.7-30.7-9.4-46-14.3c-60.7-19.5-113.8,1.9-144,59.1
	c-11.8,22.3-21.9,45.5-32.5,68.4c-12,25.8-31.3,41.7-59.6,46.9C2521.9,1931,2505.5,1935.4,2484.9,1940.1z M894.2,1863.3
	c-44.7-22.8-45.7-29.9-15.9-69.8c8-10.7,13.9-23.8,17.8-36.6c1.9-6.2-0.9-19.4-4.9-20.8c-7.3-2.8-20-2.5-25.1,2.2
	c-10.6,9.9-20,22.5-26,35.8c-34.2,75.6-45.4,156.1-48.6,238.2c-0.5,11.7,3.4,20.9,15.9,22.7c18.8,2.7,37.8,4.4,58,6.6
	C875.4,1980.1,884.6,1922.7,894.2,1863.3z M1445.8,2079.1c4.1-22,6.7-41,11.2-59.6c17.7-71.9,55-132.7,106.3-185.5
	c7.5-7.7,13.8-16.5,22.2-26.7c-12.6-5.8-21.2-9-28.9-13.5c-20.3-11.8-37.1-7.4-51.7,9.8c-3.7,4.3-8,8.2-11.7,12.6
	c-58.6,69.1-90.3,150.5-107.9,238.2c-1.1,5.3,0.5,11.1,1.1,19.9C1406,2075.9,1424.8,2077.4,1445.8,2079.1z M1179.7,1772.2
	c-7.3,2.6-10.7,3.3-13.6,4.9c-75.4,42.9-133.2,156.3-123.2,257.2c1.4,14.7,7.5,23.8,23.1,24.2c11.1,0.3,22.2,0,32.7,0
	c10.7-50.5,18.3-98.1,31.4-144.1C1143.3,1867.5,1162,1822.1,1179.7,1772.2z M1568.7,1602.5c0-21,0.5-37-0.2-53.1
	c-0.4-9.1-2.4-18.2-4.3-27.1c-7.9-37.4-43.1-60.4-79.8-50.5c-7.1,1.9-15.1,10.4-17.3,17.5c-1.5,4.7,6.2,12.7,10.7,18.6
	c1.8,2.4,5.9,3.3,9.1,4.5c31.7,12.2,41.9,36.6,39.3,68.5c-1.6,19.4-3.7,38.9-3.5,58.3c0.4,43.4,16,77.4,58.9,95.9
	c14,6,25,18.8,37.8,28c5.8,4.2,15.4,11.5,18.5,9.6c7.8-4.8,15.3-13.2,18.3-21.8c1.7-4.8-4.9-13.6-9.6-19.1
	c-3.4-4.1-9.9-5.5-14.7-8.7c-44-28.9-74.6-64.8-63.1-122.3C1569,1599.9,1568.9,1598.7,1568.7,1602.5z M1498.7,2073.6
	c40.4,15.1,43.7,11.8,51.7-23.8c6-26.4,13.1-55,28.5-76.3c23.8-33.2,52.8-63.6,84-90.2c19.2-16.3,45.6-26.3,70.4-33.3
	c24.8-7.1,51.7-6.9,84.4-10.8c-47.8-9.1-88.9-18.3-131.6-11c-48.1,8.2-83.2,36.3-113,73C1532.5,1951.3,1504.2,2006.3,1498.7,2073.6z
	 M1682.4,1418.6c-47.9-54.2-168.4-123.9-220-127.1c29.3,32.8,44.9,68.3,33.4,110.7c20.4,5.6,38.3,7.1,52.8,15
	C1592.2,1441.2,1634.7,1430,1682.4,1418.6z M2842,2040.9c-6.4-47.8-20.4-89.3-43.5-127.5c-7-11.6-16-22.4-26-31.5
	c-17.4-15.8-35.4-13.6-50.4,4.2c-13.3,15.7-14.7,32.6-5.5,50.9c18.2,36.3,36.2,72.7,56.5,113.5
	C2791.8,2047.8,2814.9,2044.6,2842,2040.9z M1708.7,2082.7c11.2,2.8,19.8,6,28.6,7c35.4,4.2,40.4,0.5,51.2-33.9
	c13.4-42.8,28.4-84.8,55.8-121.2c4.4-5.8,5.7-13.9,9.8-24.4c-16-3.6-29.2-9.4-42.1-8.7c-11.2,0.7-27.2,5.7-32.1,14
	C1749.8,1966.7,1718.4,2017.8,1708.7,2082.7z M1231.1,1507.5c-38.8-1-137.8,32.1-164.1,56.8c31.7,11.4,60.8,25.5,91.6,32.1
	C1213.6,1608.1,1249.6,1562.3,1231.1,1507.5z M1831.2,2085.4c9.3,2.1,13.6,3.6,18.1,4c41.4,4.3,41.2,4.2,59.4-33.5
	c6-12.4,13.1-24.2,19.2-36.5c3.5-7.1,7.1-14.6,8.7-22.3c3.3-16.2-10.8-41.9-25.7-48.8c-13.7-6.4-25.6-1.5-38.7,19.5
	C1850.2,2003,1837.3,2041.6,1831.2,2085.4z M2861,1927.8c10.4,35.3,20.9,71.2,31.4,107.2c25,3.8,46.9,3.6,71-12.6
	c-12.4-45-24.9-90.4-37.9-137.5C2901.6,1900.8,2882.1,1913.8,2861,1927.8z M2461.4,1882.5c-24.4-44.6-102.1-73.4-152.4-54.8
	c13.7,29.3,17.9,62.3,37.2,90.4C2387.9,1911.1,2426.6,1903.4,2461.4,1882.5z M2368.8,2060.5c41.2,12.1,57.7,2.9,63.5-31.5
	c1.7-10.1,2.3-20.4,4.2-30.4c6.9-35.9,0.1-43.4-36.3-39c-3.4,0.4-7.3,0-10.1,1.5c-9.4,5.1-24.8,9.6-26.2,16.6
	c-2,10.3,5,23.2,10.4,33.9c2.4,4.8,10.1,7,13.7,9.3C2381,2035.3,2375.1,2047.6,2368.8,2060.5z M2386.8,1558.5
	c17.2,2,31.7,2.8,45.8,5.6c11,2.2,19.7-0.6,21.7-10.8c2.3-11.8,5.8-27.8,0.1-35.8c-16.8-23.7-36.3-46.3-67.6-59.2
	C2386.8,1494.1,2386.8,1526.8,2386.8,1558.5z M1088.8,1622.5c-15.8-22-34.7-36.1-58.3-42.5c-18.4-5-28.6,4.5-27.5,23.7
	c1.6,28.1,3.4,56.2,5.3,87.3C1034.1,1669,1059.8,1647.2,1088.8,1622.5z M1691.9,1945.3c-43,21.6-76.1,89.7-68.4,134.2
	c34.3,7.6,35.7,6.3,42.5-23.3c6.2-26.7,13.9-53.1,20.6-79.8C1688.9,1967.2,1689.9,1957.5,1691.9,1945.3z M2625.7,2053.4
	c32.6,3.4,60.6,6.7,89.8-3.8c-4.1-29-8.1-55.3-31.4-76.6C2659.1,1994.1,2632.5,2011.8,2625.7,2053.4z M1373.7,1527
	c-26.9-12.6-53-13.3-78.8-9.4c-6.2,0.9-15.2,11.9-15.1,18.2c0.1,8.5,5.4,20.8,12.3,24.7C1317.1,1574.4,1358.5,1557.8,1373.7,1527z
	 M1377,1335.1c0.2,13.6,14.9,25.1,31.5,24.9c16.1-0.2,25.1-8.1,24.7-21.6c-0.4-15.7-12.9-27.7-28.7-27.6
	C1389.2,1310.7,1376.8,1321.7,1377,1335.1z M853.4,1632.9c4,3.7,10.4,14,19.1,16.6c14.3,4.2,34.6-16.5,32.9-32
	c-1.3-12.6-9-20.7-22.4-21.8C866.1,1594.4,854,1606.8,853.4,1632.9z M907.1,1815.1c28.8-2,42.9-19.2,56.4-37.2
	C942.9,1784.9,918.2,1785.6,907.1,1815.1z M2509.1,2059c19.3,1.2,39.8,12.2,61.9-5.1C2547.1,2040.8,2528.1,2048.9,2509.1,2059z
	 M1949.1,2081.4c1.7,2.7,3.4,5.5,5.1,8.2c7.7-2.2,19-2,22.1-7c5.4-8.6,1.9-18.8-10.9-24.7
	C1959.8,2066.1,1954.5,2073.8,1949.1,2081.4z M2442.4,2058.2c0.1,2.8,0.2,5.5,0.4,8.3c12.8-1.1,25.5-2.2,38.3-3.3
	C2467.7,2048.4,2455,2051.3,2442.4,2058.2z M2771.9,1690.7c-1-2.4-2-4.7-3-7.1c-14.8,2.1-14.8,2.1-27.1,17.3
	C2755,1696.4,2763.4,1693.5,2771.9,1690.7z M953.5,1739.4c-0.1-1-0.1-1.9-0.2-2.9c-5.9,0-11.9,0-17.8,0c0.1,1.7,0.2,3.4,0.3,5.1
	C941.8,1740.9,947.7,1740.1,953.5,1739.4z"/>
<path d="M1536.8,2714.5c-0.9,74.4-62.6,133.4-139.1,133.1c-70.4-0.3-127.3-62.1-125.7-136.9c1.6-77.7,58.4-135.9,131.8-135
	C1478.1,2576.6,1537.7,2638.7,1536.8,2714.5z M1405.5,2660.5c0.6-23.6-12-37.2-34.6-37.4c-22.7-0.1-40.2,15.7-41.3,37.2
	c-1.1,22.3,12.5,38,33.5,38.7C1388.8,2699.9,1404.9,2685.3,1405.5,2660.5z"/>
<path d="M2270.2,2844.4c-65.5,7.2-129.9-72.2-127.9-135.1c2.3-74.4,59.9-134.2,133.2-133.7c70.6,0.5,128.9,62,126.9,135.2
	C2400.8,2769.7,2359,2847.9,2270.2,2844.4z M2282.6,2659.6c-0.2-22.4-14.6-36.6-36.5-35.9c-24.7,0.7-41.3,17.6-40.5,41.2
	c0.7,20.6,16.6,34.4,38.9,33.8C2268.2,2698.1,2282.8,2683.1,2282.6,2659.6z"/>
<path d="M1838.1,2968.4c-118.3,0.9-173.7-89-183.8-176.4c-0.8-6.6,0.8-13.7,2.6-20.2c3.7-12.9,13.8-17.3,26.3-18
	c12.7-0.7,22.6,3,26.3,16.7c5.1,18.8,9.1,38,15.6,56.3c28.8,80.2,123.1,105.2,187.9,50.5c20.4-17.2,30.5-39.6,35.9-64.8
	c3.1-14.6,5.1-29.4,8.4-43.9c2.4-10.6,7.7-19.9,20.2-19.9c14.1,0,28.1,2,34.4,17.2c2.6,6.2,4.2,13.4,4,20
	C2011.9,2897.9,1938.8,2969.6,1838.1,2968.4z"/>
<path d="M1320.1,2877.5c28.3-1.1,57.4,3.7,82.3,23c32.5,25.1,32.2,62.1-4.2,81.2c-57.4,30.2-117.4,30.9-174.5-1.5
	c-34.2-19.4-32.3-58.5,1.3-81.6C1244.7,2884.9,1276.7,2877.7,1320.1,2877.5z M1398.5,2942.4c-14.8-11.2-21.7-19.6-30.4-22.5
	c-36.8-12.1-74.4-11.2-111,0.9c-7.2,2.4-16.8,12-16.6,17.9c0.3,6.5,9.6,14.9,16.9,18.4c33.7,16.3,68.9,13.3,103.6,4
	C1371.4,2958.5,1380.7,2951.5,1398.5,2942.4z"/>
<path d="M2338.2,3002.7c-17.2-5.5-43.6-10.5-66.4-22.2c-37.1-19.1-37.1-59.5-2.4-82.6c42.9-28.6,139.6-26.5,181.4,4
	c26.3,19.2,29.2,49,3.9,70.1c-12.7,10.6-29.6,17.7-45.8,21.9C2389,2998.9,2368,2999.2,2338.2,3002.7z M2438,2939.7
	c-20.2-27.6-32.1-31.2-96.7-26.6c-23.1,1.6-48,2.1-59.5,28.8C2324.7,2976.2,2400.6,2975.4,2438,2939.7z"/>
</svg>
