<?xml version="1.0" encoding="utf-8"?>
<!-- Generator: Adobe Illustrator 24.3.0, SVG Export Plug-In . SVG Version: 6.00 Build 0)  -->
<svg version="1.1" id="Layer_1" xmlns="http://www.w3.org/2000/svg" xmlns:xlink="http://www.w3.org/1999/xlink" x="0px" y="0px"
	 viewBox="0 0 4000 4000" style="enable-background:new 0 0 4000 4000;" xml:space="preserve">
<path d="M954.2,978.3c-16.6-66.5-11.8-126.8,22.8-183c34-55.2,84.1-87,148.5-97.7c-12-99,9.9-184.5,92-243.8
	c78.4-56.5,165.7-65.1,259.1-31.9c21.4-65.6,64.4-109.2,128.7-129.3c61.6-19.3,122.3-15.5,179.2,16.8
	c82.4-172.4,297.5-153.8,360.5-5.5c9.7-3.9,19.4-7.8,29.2-11.8c62-25,121.1-20.3,177.5,16.6c22.6,14.8,36.7,36.5,50.3,58.8
	c4.6,7.6,8.5,15.6,14.4,26.5c68.8-29.2,136.5-29,201,10.9c65,40.2,92.5,102.4,98.6,176.6c12.4,0.7,22.3,1.2,32.1,1.9
	c89.6,6.3,150.7,77.1,142.3,166.4c-1.5,16.3,4.1,23.5,18.1,29.2c70,28.6,108.7,102.9,96.1,185.1c-2.3,14.6-8.1,28.8-13.3,42.8
	c-4.5,12-2.9,21.2,7.9,28.7c53.3,36.9,74.5,89.7,73.7,152.5c-0.2,14.2,6.5,22.1,16.6,29.4c24.9,17.9,44,40.3,55.9,69
	c22.7,54.8,11.7,116.8-31.9,157.4c-17.5,16.3-24.5,33.7-27.7,56.7c-24.8,182.5-51,364.8-76.6,547.2
	c-19.1,135.8-37.9,271.6-56.8,407.5c-25.1,179.4-50.2,358.9-75.3,538.3c-18.7,133.8-39.1,267.5-55.5,401.6
	c-6.3,52-31.2,87-74.5,112.4c-67.7,39.8-140,69.3-215,91.5c-129,38.2-261,59.5-395.4,68.5c-210.8,14.2-417.9-6-621.5-61
	c-77.5-20.9-152.3-49.5-221.9-90.2c-14.6-8.6-28.4-18.7-42.3-28.4c-31.1-21.7-48.8-50.8-54.9-89.1
	c-24.7-156.2-50.8-312.2-76.2-468.3c-43.6-267.7-87.2-535.4-130.7-803.1c-30.8-189.7-61.4-379.4-92.1-569.1
	c-1.1-6.9-3.5-13.7-3.9-20.6c-1.8-32.9-13.1-58.7-38.2-83.6c-48.4-48-54.2-128.4-18.4-186.6c10.7-17.3,12.1-31.3,6-50.1
	c-20.4-62.5-8.3-121.4,29.1-173.8c14-19.7,35.8-34.1,54.9-49.9C933.9,987.5,943.6,984,954.2,978.3z M2061.9,1437
	c10.9,0,19.8,0.4,28.6-0.1c74-4,148.2-5.8,221.8-13c97.6-9.5,195.1-20.7,291.9-36.2c73.9-11.9,146.9-30.4,219.7-48.4
	c38.7-9.5,77.9-20.4,113.7-37.3c73.1-34.6,90.6-140.7,35.8-200.2c-18.8-20.4-41.5-31.3-69.7-27.1c-20.8,3-41.4,7.3-62.1,10.4
	c-18.5,2.8-28.3-4.3-32.2-22.3c-3.1-14.4,2.5-25.3,13.4-34.2c16.3-13.3,35.8-16.5,55.9-19.1c37.9-4.9,50.5-17,58.4-53.5
	c11.1-51.4-19.9-104.7-71.1-119.9c-14.2-4.2-29.5-4.4-44.3-6.5c-23.6-3.4-33.1-18.7-24.2-40.8c3.7-9.1,10.5-17,15.6-25.6
	c20.9-35.5,12-71.1-22.8-93.4c-20.3-13-42.6-18-66-15.5c-18.8,2-37.2,7-56,10.2c-26.6,4.4-42.6-12.7-36.6-38.8
	c0.9-3.9,1.8-7.9,3.3-11.5c35.3-85-45.7-187.8-153.6-167.7c-28.5,5.3-52.3,19.2-68.8,44.3c-4.9,7.4-10.7,14.7-17.4,20.5
	c-11.9,10.4-25.8,10.5-39.2,3.1c-12.8-7.1-17-19.2-14.7-33.3c1.1-6.9,2.1-14.1,4.7-20.5c18.5-44.2-15.4-90.6-49.8-106.5
	c-50.8-23.5-120.4,1.3-142.7,52c-2.4,5.5-4.4,11.3-7.3,16.4c-9.2,15.9-19.6,19.9-37.9,15.4c-17.3-4.3-27.1-14.4-27.2-31.1
	c-0.1-10.9,2.2-21.9,4.1-32.7c3.2-18.4,0.7-35.6-7.7-52.4c-24.1-48.4-71.2-72.2-127.3-63.6c-54.6,8.4-96.9,49.8-103.9,101.9
	c-1.5,10.9-1.8,22.1-4.5,32.6c-6.2,24.1-29,30.9-48.6,15.1c-3.9-3.1-7.5-6.8-10.4-10.8c-41.3-56.7-154.4-58.8-206-7.6
	c-36.2,35.9-42.1,55.9-21.4,102.2c9.5,21.4-2.9,45.2-25.9,45.2c-9.4,0-20.3-7.2-27.8-14c-63.6-58.4-136.5-64.6-212.3-32.9
	c-90,37.7-123.9,139.8-79.3,226.5c3.7,7.1,8.6,13.6,11.7,21c8.7,20.7-5.5,41.7-28,41.4c-5.9-0.1-11.8-1.9-17.6-3.4
	c-60.8-15.7-123.1,14-147.8,71.8c-22.3,52.3-14.2,103.3,8,152.4c12.3,0.9,22.4,0.4,32,2.4c37.7,8.3,71.6,52.8,68.3,91.6
	c-2.1,24.9-11.5,46.9-36.9,57.5c-10.8,4.5-22.2,4.9-29.8-5.9c-7-9.9-7.1-20.7,1.3-30.4c3.7-4.3,7.7-8.3,9.9-10.6
	c-20.5-24.2-39.5-46.6-59.9-70.6c-6.5,1.6-15.2,3.6-23.8,5.7c-61.1,15.1-99.7,65.3-94.9,127.9c4.8,62.7,34.6,110.6,93.6,136
	c33,14.2,67.3,26.1,101.9,35.7c181.2,49.9,366.6,76,553.4,89.9c108.7,8.1,218.1,6.1,327.2,8.4c9.6,0.2,19.2-1.5,28.6-2.3
	c-1.2-36.6-8.2-42.6-44.8-41.3c-42.4,1.5-42.4,1.5-43.2-41.3c-0.3-19.1-3-22.1-22.5-24.3c-4-0.4-8-0.1-12-0.2
	c-9.7-0.3-19.5-3.1-20.1-13.8c-0.4-8,2.1-19.2,7.6-23.9c7.7-6.5,19.4-11.1,29.5-11.3c28.1-0.5,47.5,15.5,57.6,40.4
	c6.1,15,14.4,20.6,29.9,24.1c35.1,7.9,57.1,31.3,65.9,66.5C2057.7,1418.5,2059.6,1427.1,2061.9,1437z M1892.2,3599.7
	c82.2,2.5,161.7,3.2,240.5-1.7c9.5-39.6,9.5-1905.3,0.6-1942c-115.2,0-230.6,0-346.9,0c0,11.2-0.4,20.2,0.1,29.1
	c3.6,71,7.2,142,11.3,213c14,246.9,28.2,493.8,42.3,740.7c9.5,165.9,19.4,331.8,28.2,497.8c7.5,142,13.7,284,20.6,426.1
	C1889.4,3574.3,1890.9,3586,1892.2,3599.7z M2172,1653.3c0,9.5,0,15.4,0,21.3c0.3,74.1,0.8,148.2,0.9,222.3
	c0.5,321.4,1.3,642.8,1.1,964.2c-0.2,232.3-1.8,464.6-2.6,696.9c0,11.5,1.3,23.1,2.2,37.4c73.6-9.8,143.9-15.8,212.7-32.8
	c1.3-7.2,2.6-12,2.9-16.9c5.5-88.9,10.9-177.8,16.4-266.7c4.6-73.9,9.3-147.8,14-221.8c5.4-83.9,11-167.8,16.1-251.7
	c0.6-10.5-0.9-21.1-1.4-31.5c-18-3.9-32.8-6.5-47.3-10.4c-24-6.3-41.7-20-46-45.9c-3.1-18.9,13.3-41.5,38.5-52.1
	c10.9-4.6,23-6.1,34.7-8.7c5.8-1.3,12.2-0.7,17.8-2.6c8.3-2.7,14-7.9,8.8-21.9c-45.7,1-91.7-4.2-127.9-39.9
	c-37.6-37.1-48.2-82.2-39.1-132.4c5.7-31.6,23.2-57,48.6-77c44.6-35.2,93.9-32.6,146.3-15.2c0.8-13.3,1.4-23.2,1.9-33.1
	c2.7-58,4.7-116,8.3-174c10.5-168.8,21.6-337.6,32.3-506.4c0.7-10.3-0.6-20.8-0.9-30.1C2396,1634.3,2285.7,1643.7,2172,1653.3z
	 M2549.3,1617.6c-1,6.3-2.1,11.1-2.4,16c-5.1,76.9-10.7,153.8-15.1,230.7c-7.1,123.9-13.3,247.8-20.3,371.7
	c-2.2,38.9-4.3,78-9,116.7c-2.9,24-1,44.4,14,64.7c35.3,48.1,28,130-20.7,176.2c-5.1,4.8-10.9,9.2-14.8,14.8
	c-16.2,23-8.6,43.8,17.7,51.4c11.4,3.3,23.3,6.5,33.6,12.3c38,21.2,38.3,61,0.4,82.6c-12.8,7.3-27.6,12.1-42,15.3
	c-13.4,2.9-17.9,9.3-18.7,22.3c-5.7,90.9-12.1,181.7-18.1,272.5c-9.6,146.8-19.1,293.6-28.4,440.4c-0.9,14.8-0.1,29.6-0.1,46.4
	c8.9-0.6,17,0.3,24.1-1.8c48.8-14.6,97.4-30.1,146.2-44.8c13.4-4.1,19-12.5,20.6-26c7.6-62.5,16.1-125,23.5-187.5
	c9.4-79.5,17.5-159.1,27-238.5c14.6-121.1,30.4-242.1,45.1-363.2c14.8-122.1,28.9-244.3,43.4-366.5
	c13.6-114.2,27.1-228.4,41.1-342.6c15.2-124.1,31-248.1,46.5-372.1c1.8-14.4,3.2-28.9,5-45.1
	C2746.3,1581.8,2649.2,1599.4,2549.3,1617.6z M1857,3596.3c-1.4-18.7-2.7-31.5-3.4-44.3c-8.7-169.9-16.8-339.8-26.2-509.7
	c-6.5-117.9-15.5-235.7-22.3-353.5c-6.7-115.9-11.6-231.9-17.9-347.8c-10.7-199.9-21.8-399.7-32.9-599.5
	c-1.6-29.7-4.2-59.3-6.4-89.6c-99.4-8.7-196.3-17.1-295.9-25.8c26.4,245.2,52.5,487.3,78.8,731.9c41.8-5.6,79.9-1.6,114.4,20.6
	c34.7,22.4,56.6,53.7,62.2,94.6c4.6,33.5-1.3,65.1-19.9,94.8c-29.9,47.7-75.3,62-127.7,61c-4.1,19.1,5.7,24.4,17.8,28.7
	c16,5.7,32.5,10.7,47.3,18.7c22.1,12.1,25.9,27.3,16.3,50.4c-8,19.2-22.7,29.2-42.1,35c-25.7,7.7-25.6,8.2-23.5,35.6
	c0.5,6,1,12,1.6,17.9c11.7,114.5,23.4,229,35.2,343.5c13.1,127.4,26.2,254.8,39.6,382.2c3,28.4,4.3,29.4,31.8,33.6
	c41.5,6.3,83.1,12.5,124.7,18.1C1823.1,3594.8,1837.9,3595,1857,3596.3z M1137,1574.7c0.8,11,0.7,20.8,2.2,30.2
	c27,173.1,54.7,346.1,81.3,519.3c39.4,256.3,78.1,512.6,117,769c29.7,196,59.6,391.9,88.6,588c2.9,19.7,11.1,30.4,29.9,35.6
	c46.3,12.7,92.3,26.5,138.5,39.3c6.1,1.7,13.1,0.2,23.9,0.2c-26.5-262.1-52.9-522.3-79.3-782.8c-12.8-1.8-21.8-2.5-30.5-4.4
	c-15.6-3.3-31.7-5.9-46.6-11.4c-19-7.1-31.6-22.2-33.9-42.5c-2.1-19.1,10.4-32.1,25.6-41c12-7,25.3-11.7,38.2-16.8
	c7.4-2.9,15.6-3.8,22.9-6.9c15.3-6.4,17.7-18.8,5.4-29.9c-6.6-6-14.9-10.1-22.1-15.5c-60.3-45.3-77.3-137-35.8-193.1
	c39.1-24.7,34.4-60.6,29.2-99.7c-11-83.3-17.8-167.2-27.1-250.7c-12.8-115.4-26.2-230.7-39.4-346c-3.6-31.6-7.2-63.2-10.8-94.2
	C1321.4,1605.7,1231,1590.5,1137,1574.7z M1390.6,3489.6c0-11.2,0.7-17.1-0.1-22.7c-9-63.4-17.6-126.9-27.4-190.2
	c-27.1-175-54.9-349.9-82-524.9c-21.1-136.5-41.4-273-62.3-409.5c-21.1-138.5-42.4-276.9-63.7-415.4c-18-116.7-36.4-233.3-54.3-350
	c-1.7-11.1-6.4-17.4-17.9-20.8c-37.4-10.9-74.4-23.1-111.6-34.6c-1.5-0.5-3.6,1.2-6.6,2.3c0,4.4-0.7,9.2,0.1,13.9
	c5.1,30.6,10.8,61.1,15.7,91.8c39.9,249.1,79.3,498.2,119.6,747.2c26,161.1,53.5,321.9,79.7,482.9c28.5,174.9,56.1,349.8,84.5,524.7
	c1.9,11.7,3,26.7,10.5,33.6C1307.7,3448.3,1348,3467.3,1390.6,3489.6z M2651,3470.3c2.5,1.7,5,3.4,7.5,5
	c23.1-13.3,46.2-26.7,69.4-39.8c15.3-8.6,22.2-21.9,24.5-38.9c14.2-104.1,28.8-208.2,43-312.2c20.8-151.7,41.2-303.5,62.3-455.1
	c21.6-155.6,43.7-311.2,65.8-466.7c26.9-190.3,54.1-380.5,81-570.7c3.7-26.4,6.8-52.8,10.7-83.4c-13.3,4.3-21.6,6.9-29.9,9.6
	c-25.7,8.4-51.2,17.2-77.1,25c-24.5,7.4-24.5,6.9-27.7,31.6c-7.3,56.6-15.1,113.1-22,169.8c-17.1,141.1-33.8,282.3-50.7,423.5
	c-16.8,140.2-33.3,280.3-50.4,420.4c-18.9,154-38.6,307.9-57.6,461.9c-14.2,115.3-27.7,230.6-41.4,345.9
	C2655.6,3420.8,2653.5,3445.6,2651,3470.3z M887,1319.2c-8.4,38.8-3,68.9,24,92c12.8,10.9,27.1,21.2,42.5,27.6
	c35,14.7,70.4,28.9,106.8,39.6c105.8,31.2,214.2,50.6,323.1,66.2c147.7,21.2,296.3,34.4,445.4,39.9c138.2,5.1,276.3,1.7,414.2-8
	c83.8-5.9,167.4-15.7,250.8-25.3c147.3-16.9,293.1-42.2,434.6-87.8c36.9-11.9,72.7-28.3,106.9-46.6c16.7-9,31.4-25.2,41.9-41.5
	c20.4-31.4,11.3-75.6-18.3-100c-7.5,12.9-14,26.2-22.5,38.1c-23.8,33.3-58.7,50.6-96,63.6c-111.9,38.9-227.4,63.2-343.8,82.7
	c-169,28.3-339.6,42.8-510.8,47.6c-152.1,4.2-304.3,3.1-456.1-10.9c-150.6-13.9-300.5-32.1-448.1-66.1
	c-71.2-16.4-142.4-32.4-210.5-59.8c-24.2-9.8-48.2-19.6-65.5-40.8C902.4,1325.9,896.2,1324.3,887,1319.2z M1458.1,2712.2
	c37,31.2,108.9,36.4,142.7,13.9c0.8-0.6,1.6-1.1,2.4-1.8c12.4-9.7,12-19.8-1.9-28.4c-5-3.1-10.8-5.6-16.6-6.8
	c-34-7.2-67.8-4.9-100.6,5.4C1475.5,2697.4,1468.4,2705.1,1458.1,2712.2z M2373.4,2720.6c45.1,20.8,89,25.5,134.7,10.7
	c3.7-1.2,7.4-3.2,10.6-5.5c10-7.4,11.3-17.2,1.5-24.7c-7.7-5.9-17.6-12.2-26.5-12.4c-28.6-0.4-57.4,0.6-85.8,4.2
	C2394.9,2694.4,2381,2700.9,2373.4,2720.6z M1599.8,2408.5c-24.1-0.5-43.5,16.3-44.6,38.8c-1.2,23.9,17.4,41.2,44.3,41.4
	c26.3,0.1,42.9-15,42.8-38.9C1642.2,2427.2,1623.5,2409,1599.8,2408.5z M2483.7,2447.9c0.7-21.5-15.2-38.2-36.6-38.2
	c-26.1-0.1-47.4,17.2-47.6,38.8c-0.3,23.9,14.7,39.5,38.1,39.8C2463.5,2488.7,2482.9,2471.6,2483.7,2447.9z"/>
<path d="M2181.6,827.2c2.2-69.8,57.6-126.7,121.6-123.8c4,0.2,8.7-0.7,11.9,1.1c24.9,13.6,43.4,5.4,66.1-10.1
	c47.9-32.5,119.2-17.1,153.7,28.5c20.9,27.5,27.6,58.2,13.9,90.4c-6.7,15.9-5.6,26.6,4.6,40.8c23.4,32.6,28.5,69.7,18.4,108.7
	c-15.7,60.9-76.3,99.9-138,88.2c-17.3-3.3-32.9-11.3-40.3-27.9c-3.1-7-3-18,0.6-24.4c2.3-4.1,13.7-3.6,21.1-3.8
	c3.7-0.1,7.6,2.2,11.2,4c35,17.5,83.5-5.3,96.7-41.5c15.2-41.7,1.6-90.2-42.6-103.8c-7.6-2.3-15.5-4.7-22.3-8.6
	c-9.7-5.7-12.5-15.2-10-26c2.4-10.6,10.1-14.1,20.1-14.2c1,0,2,0,3,0c11.8-0.3,25.9,3.1,31.8-10.6c6.6-15.1,0.1-29.7-8.3-42.3
	c-21.3-31.5-72.5-33.4-103.7-4.4c-2.2,2-4.1,4.4-6.1,6.6c-21.7,24.4-21.7,24.4-51.2,7.6c-37-21.1-84.9-3.2-96,38.3
	c-4.8,17.7-2.5,37.4-2.8,56.3c-0.2,12.7,4.5,27.1-13.4,32c-14.8,4-27.5-4-33.2-22.7C2184.6,853,2183.8,839.9,2181.6,827.2z"/>
<path d="M2017.7,699.6c7-11.5,14.2-23.3,21.3-35.2c11.9-19.9,13.6-39.2-2.3-58.2c-15.6-18.6-27.9-21.5-56.4-12.5
	c-1.9,0.6-3.9,1.1-5.8,1.7c-27,8.8-27,8.9-45.2-12.2c-27.3-31.6-71.2-31.7-99.4-0.1c-29.8,33.4-18.1,82.2,23.6,98.1
	c5.6,2.1,11.4,3.6,17.3,5.1c15.8,4,23.5,14.1,23.7,30.3c0,2,0.2,4,0.1,6c-0.4,17.2,3.2,32.2,22.4,37.8c19.6,5.7,35.3-1.2,48.2-15.7
	c7.7-8.6,15.1-17.4,22.7-26.2c26.9,25.5,23.4,60.6-5.2,80.2c-49.7,34.2-118.8,7.9-132.1-51c-2.8-12.5-9.7-18.6-20.1-23.8
	c-53.9-26.7-76-74.5-60.7-130.7c14.2-52.3,62.6-85.7,118.1-81.8c20.8,1.5,39.4,8.5,54.2,22.9c10.9,10.6,20.8,11.3,35,6.9
	c34.7-10.8,65.9-0.7,90.5,24.8c24.8,25.7,37.8,57,27.1,93.3c-4.2,14.1-11.1,28-19.5,40.2C2059.2,722.8,2040.6,722.7,2017.7,699.6z"
	/>
<path d="M1633.4,861c-10.4-7-19.5-12.8-28.3-19c-37.1-25.9-72.5-26.9-105.4-3.1c-30.4,22-42.7,62.7-30.6,102.2
	c1.7,5.7,4.3,11.2,6.7,16.6c4.7,10.2,4.5,19.5-5.3,26.6c-9.7,7-24,5.3-32.6-4.5c-4.5-5.1-7.8-11.6-10.6-17.9
	c-22.1-50.1-10.6-110.7,28.3-149.9c37.7-38.2,100.2-49.9,149.9-27c14.1,6.5,25.4,11,41.7,2.8c54.2-27.2,119.4,0.3,138.1,58.1
	c5.7,17.6,6.6,37.2,6.7,55.9c0.1,15.4-10.4,23.9-24.7,24.7c-11.4,0.7-19.7-3.3-20.9-16c-0.9-9.9-0.9-20-2.2-29.8
	c-2.7-19.9-12.1-35.7-29.8-46c-20.5-12-36.9-11.1-55.4,3.7C1650.6,845.3,1642.8,852.7,1633.4,861z"/>
<path d="M1492.2,1385.8c-34.4-1.3-60.7-6.3-78.9-30c-7.1-9.2-15.6-11.2-26.3-9.9c-76.4,9.4-128.5-71.9-106.5-135.6
	c10.7-31.2,23.5-60.7,55.6-74.3c13.9-5.9,30.8-6.8,46.2-6.3c12.5,0.4,17.8,11.9,18.3,23.9c0.4,10.6-6.3,16-15.7,19.2
	c-9.5,3.2-19.2,6-28.1,10.5c-39.8,20-46.3,73.8-13.1,103.2c16.1,14.3,34.7,16,53.4,9.6c20.5-7.1,34.4-3.1,44.7,16.4
	c11.6,21.9,32,25.2,54.2,22.8c20.8-2.3,31-16.3,36.9-34.6c0.6-1.9,1.1-3.9,1.9-5.7c5-11,9.3-23.3,25.2-20.5
	c13.1,2.3,23.3,16,21.7,31.8c-3.2,32.3-19,57.1-49.4,69.8C1517.9,1382.1,1501.5,1383.7,1492.2,1385.8z"/>
<path d="M2647.9,1177.5c-12.9,0.7-26.6,0.9-40.2,2.2c-12.7,1.2-25,1.4-29.6-13.3c-4.5-14.1,1.7-25.3,13.3-33.6
	c30.2-21.5,87.9-4.2,101.3,32.7c8.8,24.3,19.4,47.6,29.1,71.4c26.6,65.2-21.1,130.4-92.2,128.8c-15.7-0.4-26.5-8.3-28.1-21.4
	c-1.8-15.5,8-20.5,21.1-23.7c12.5-3,25.6-6.1,36.8-12.1c22.6-12.1,30.4-40.4,13.8-58.4c-17-18.5-25.3-37.1-20.3-61.7
	C2653.3,1187.1,2651.5,1185.1,2647.9,1177.5z"/>
<path d="M1744.3,972.4c42.6,0.9,76.1,34.7,75.7,76.2c-0.5,41.4-34.2,74.3-75,73.2c-44.1-1.2-76.5-35.9-74.8-80
	C1671.8,1000.5,1702.8,971.5,1744.3,972.4z M1762,1005.3c-11.5-0.1-22.1,8.9-22.8,19.2c-0.7,10.5,11.1,24.8,21,25.6
	c11.3,0.9,25.2-9.8,26.1-20.1C1787.3,1017.5,1775.4,1005.4,1762,1005.3z"/>
<path d="M2198.4,972.2c38.4-0.4,72.7,33.3,73.5,72.1c0.9,42.6-29.7,74.8-71.9,75.7c-41.3,0.9-72.5-31-72.7-74.5
	C2127.1,1004.6,2158,972.7,2198.4,972.2z M2208.6,1004.3c-12.5-0.5-22.6,7-23.8,17.6c-1.4,12.9,10.1,24.8,24,24.7
	c12.2-0.1,21.6-8.4,22.1-19.5C2231.3,1014.4,2221.9,1004.9,2208.6,1004.3z"/>
<path d="M1974.6,1184.8c-51.1-0.1-88-34.3-91.4-84.4c-0.8-11.6-0.4-23.2,13.6-26.3c14.2-3.1,19.2,7.1,22.5,18.5
	c1.6,5.8,3,11.7,5.2,17.3c9.9,25,24.3,34.5,50.6,33.9c25.4-0.6,41-11.7,50-35.7c2.1-5.6,3.4-11.5,5.3-17.2
	c3.4-10.3,9.1-18.8,21.5-15.8c11.2,2.7,16.3,11.5,15.2,22.7c-4.6,49.2-39.2,84.9-80.4,87.1C1982.6,1185,1978.6,1184.8,1974.6,1184.8
	z"/>
<path d="M1399,713.1c0.5,9.2,1.1,13.2,0.8,17.2c-0.5,9-0.4,18.9-12.1,21.1c-11.2,2.1-22.8,2-29-9.6c-4.2-7.7-8.4-16.6-8.5-25.1
	c-1-63.8,50.5-117.8,114.3-109.1c16.5,2.3,31.7,8.4,39.6,23.5c3.6,6.8,4.5,18.8,0.7,24.4c-3.6,5.3-14.8,6.3-22.9,7.3
	c-4.5,0.6-9.4-2.7-14.2-4.1c-39.5-11-67.4,9.5-68.6,50.6C1398.9,712.3,1399,715.3,1399,713.1z"/>
<path d="M1221,974.5c-2.7-61.8,47.4-99,90.8-95.8c11.7,0.9,25.4,6.9,33.7,15.1c13.3,13.1,6.2,28.5-12.8,31.4
	c-7.9,1.2-16,0.5-23.9,1.6c-30.7,4.1-43.2,22.2-35.8,52.7c2.1,8.6,6.1,16.8,9.7,25c4.7,10.9,1,19.5-7.4,26.4
	c-8.9,7.3-18.3,6.6-27.5,0.2C1227.3,1016.6,1217.9,996.9,1221,974.5z"/>
<path d="M1673.2,1125.5c22.9,3,43.3,6.4,58.8,23.3c14.9,16.2,13.4,32.8-3.7,46.4c-24.4,19.4-80.8,16.6-103.8-5.2
	c-17.3-16.3-17.6-35,2.3-47.3C1640.6,1134.2,1657.6,1131.1,1673.2,1125.5z M1711.2,1174.6c-18.1-24.9-46.7-27.5-68.6-6.1
	C1663.7,1187.3,1686.7,1189.4,1711.2,1174.6z"/>
<path d="M2266.5,1210.3c-16.9-4.2-31.3-5.4-43.5-11.2c-25.3-12-27.3-42.7-3.5-57.4c29-18,60.8-19.1,91.2-4.4
	c27.6,13.4,28.1,42.9,0.9,58C2297.4,1203.2,2280.3,1205.9,2266.5,1210.3z M2230.3,1172.2c28.3,17.5,56.1,15,70.6-4.9
	C2276.8,1147.6,2254.6,1148.6,2230.3,1172.2z"/>
<path d="M1989.7,2703.7c-55.1-3.1-113.1-29-129.6-95.7c-2.8-11.4-2.9-23.7-2.8-35.5c0.1-10,5.8-16.7,16.5-18
	c10.8-1.4,20,0.3,23.9,12.3c3,9.5,5.6,19.2,9,28.5c14.5,40.4,40.6,58.4,81.4,56.5c42.1-2,69.2-24,79.1-64.4
	c1.4-5.8,2.1-11.8,3.7-17.6c3.4-12.8,10.1-21.7,25.3-19.7c15,2,23.3,9.6,24,25.8c1.3,32.5-11.5,60.4-31.7,85
	C2062.9,2691.7,2027.5,2700.7,1989.7,2703.7z"/>
</svg>
