<?xml version="1.0" encoding="utf-8"?>
<!-- Generator: Adobe Illustrator 24.3.0, SVG Export Plug-In . SVG Version: 6.00 Build 0)  -->
<svg version="1.1" id="Layer_1" xmlns="http://www.w3.org/2000/svg" xmlns:xlink="http://www.w3.org/1999/xlink" x="0px" y="0px"
	 viewBox="0 0 4000 4000" style="enable-background:new 0 0 4000 4000;" xml:space="preserve">
<path d="M2028.4,2548.8c-10.2,8.8-21,17-30.6,26.4c-132.3,131.1-264.3,262.6-396.7,393.7c-37,36.6-73.6,73.9-113.1,107.7
	c-22.2,19-33.5,40-34.5,68.1c-2.5,69.3-4.9,138.7-8,208c-1.2,27.6-1.4,55.9-7.4,82.6c-4.9,21.9-14.3,44.7-27.8,62.5
	c-42.3,55.9-126,47.6-159.4-14.1c-17.7-32.8-19.3-68.5-18.5-104.6c0.2-10.1,0.9-20.2,1.7-36.6c-33.8,10.2-60.6,25-86.7,40.3
	c-5.3,3.1-6.4,16.6-6.3,25.2c0.4,30.1,3.1,60.1,3.1,90.2c0,26.5,0.4,53.7-4.7,79.5c-4.4,22-12.7,45.1-25.6,63.3
	c-42.8,60.8-127.6,60-171.3-0.1c-24.5-33.7-36.2-72.5-38.5-113.6c-3.1-55.4-5.5-110.9-5.9-166.4c-0.3-43.1-3.7-85.4-14.1-127.2
	c-30.2-122.3-29.5-245.2-4.8-368.2c19.6-97.7,33.4-196,29.9-296.1c-0.3-9,0-18,0-31.5c-13.4,6.5-23.4,11.4-33.5,16.1
	c-55.8,25.8-109.8,5.8-128.4-52.7c-9.9-31.1-12.9-66-11.8-98.9c3.6-101.1,27-199.2,54.6-296.1c37.4-131.4,70-264,87.8-399.4
	c13.1-99.7,18.3-200.4,8-301.2c-6.3-61-11.1-122.2-13.7-183.4c-1.4-33.3,0.9-67.3,5.7-100.3c7.5-52,7.9-103.8,3.3-155.8
	c-7.6-86.5,7.2-170.8,24.9-254.6c5.3-25.1,0.1-41.6-16.4-62c-93.9-115.7-94-303,15.5-413.6c48.7-49.2,108.4-74.2,176.9-77.4
	c132-6.3,263.7-1.4,394.9,15.7c295.6,38.6,579,120.6,851.6,240.9c185.9,82.1,362.1,181,523.4,305c107.4,82.6,209.3,171.5,303,269.8
	c71.3,74.8,90.5,160.7,63.6,259.4c-24.6,90.1-72.6,165.7-143.6,224.6c-155.4,128.8-293.1,276-435.9,417.7
	c-111.7,110.9-218.6,226.7-333,334.6c-40.9,38.6-57.7,79.2-61.3,131.3c-5.6,82.2-6.1,164.2,3.3,246.1c4.3,37.6,1.8,74-10.5,109.5
	c-16.4,47.2-50.1,71.5-99,72.8c-44.7,1.1-80-23.3-97.8-69c-15.7-40.1-13.3-81.7-8.9-123.4c1.4-13.7,2.7-27.3,4.1-41
	C2033.5,2551.4,2030.9,2550.1,2028.4,2548.8z M957.8,1263.2c-2.5,0.8-5,1.6-7.5,2.4c1.6,26.3,3.6,52.6,4.7,78.9
	c2.7,64.7,6.3,129.4,7.1,194.1c1.6,143.5-26.1,282.9-60.8,421.3c-30.4,121.1-68,240.7-83.4,365.1c-5.7,45.6-4.2,92.1-3.4,138.2
	c0.1,8.7,11.3,23.2,19.1,24.5c15.5,2.5,19.6-12.4,21.5-25.7c0.6-4.6,0.8-9.2,1.2-13.8c4.1-41.4,6.8-83,12.9-124.2
	c2.8-19,10.3-37.9,19.2-55.1c8.7-16.9,23.3-28.9,44.9-26.4c22.3,2.5,36.2,15.4,41.3,36.4c5.2,21.3,11.4,43,11.9,64.6
	c3.5,167.8,6.2,335.5-30.3,501.1c-26.4,119.9-32.5,240.7-2.2,361.3c13.9,55.4,19.2,111.3,18.9,168.4c-0.2,50.9,3.5,101.8,6.4,152.6
	c1.6,26.9,7.8,52.9,27.8,73c18.6,18.6,43.3,15.3,53.2-9c5.9-14.6,8.4-31.3,8.9-47.2c0.7-25.4-1.2-50.9-2.6-76.3
	c-3-52.2-0.8-104.1,10.2-155.4c8.2-38.2,25.8-71.8,51.9-100.6c24.9-27.4,56.2-40.1,93.4-34.8c45.8,6.6,68.9,39,76.5,79.3
	c7.9,41.6,7.7,84.9,10.4,127.5c1,16.1-0.7,32.4,0.6,48.5c0.9,11.2,2.6,24.3,17.1,27c14.2,2.6,26.7-3.7,31.1-16.6
	c6.1-18.2,11.2-37.5,12.1-56.6c3.2-68.1,0.1-136.8,7.6-204.4c9-81.4,23.8-162.4,41-242.6c16.6-77.2,58.5-137.9,134.2-170.3
	c6.3-2.7,12.1-6.7,18.2-10.1c40.3-22.2,74.3-51.1,97.1-91.8c27.1-48.4,53.7-97.1,81.2-145.4c41-71.9,103.1-120.9,175.5-157.7
	c13.2-6.7,28.2-10.7,42.8-13.9c48.4-10.5,87,6,114.1,46.5c10.7,16.1,18.8,34.7,24.4,53.2c11.5,38,14,77.3,9.5,116.9
	c-2.5,21.8-6.2,43.6-7.8,65.5c-1.3,18.3-1.6,37,0.4,55.2c1.4,13.2,10.4,26.2,24.2,25.4c11-0.6,25.4-7.4,31.4-16.1
	c7.9-11.6,12.3-27.8,12.4-42.1c0.4-30-3.4-60-4.7-90c-2.1-47.3-8-94.9-4.5-141.8c7.4-96.8,20-193.2,30.3-289.8
	c9.9-93.1,48.3-166.9,133.8-214c29.7-16.4,54.3-42.8,79.7-66.2c12.2-11.2,22.4-25.7,19.3-49.9c-77.5,44-156.7,64.5-242.1,46.9
	c-85.1-17.6-155.3-59.3-204.2-132.6c-82.2-123.3-71.7-279.3,13.1-389.9c73.7-96.1,228.4-148.9,364.7-97.8
	c58.8,22.1,110.3,54.7,146,107.1c58.2,85.2,76.1,179.6,58.5,283.3c75.8-65.6,161.7-117.9,227.1-193.6c-2.4-3.9-3.2-6.4-4.9-7.6
	c-7.5-5.3-15.2-10.5-23.1-15.3c-73.6-44.5-134.1-101.9-176.9-177.4c-14.2-25.1-31-48.8-47.4-72.6c-28.1-40.7-66.2-67.7-114.7-78.3
	c-25.9-5.7-52.2-11.1-78.5-13.4c-84.3-7.4-155.6-38.8-212.3-103.8c-57.1-65.4-131.6-96.2-218-98.7c-38.2-1.1-76.4-2.2-114.5-2.2
	c-93.3,0.1-177.1-29.4-255.2-78.6c-27.4-17.3-54.8-34.6-83.3-50c-44.8-24.2-92.9-35.4-143.9-29.8c-26.4,2.9-52.8,6.6-78.8,11.7
	c-82.9,16.4-165.3,19.3-247.2-6c-4-1.2-8.6-0.2-16.8-0.2c-11,87.9-34.1,173.1-18.2,263.1c58.3-100,137.3-169.8,253.8-188.2
	c116.6-18.4,218.9,12.2,301.4,96.6c131.9,134.9,139.5,368.7-22.5,511.6c-78.9,69.7-174.5,90.2-275.8,75.6
	C1095,1444.9,1011.6,1372.3,957.8,1263.2z M3062.6,1001.9c-24.1-21.8-43.9-39.1-63-57.1c-81.7-77.2-168.6-148.1-260.2-213.2
	c-239.8-170.7-504.7-290.1-784.5-377.5c-196-61.3-396.2-102.2-601.3-117.1c-90-6.6-180.2-10.9-270.4-2.1
	c-53.9,5.2-102.3,22.7-136.3,66.5c-59.9,77.1-69,161.9-31.4,251.6c12.4,29.6,32.2,53.6,62.9,66.3c50.8,21,103.1,35.5,158.7,27.8
	c42.3-5.9,84.5-13.2,126.5-21c94.2-17.6,181.6-0.6,262.6,50.3c17.6,11.1,35.4,22,52.6,33.6c76.1,51.1,158.9,79,251.6,74.4
	c25.4-1.3,50.9-1.2,76.3-0.2c109.2,4.3,207.4,34.7,280.5,121.9c40.2,47.9,92.8,71.1,153.4,78.9c18.3,2.3,36.6,5.3,55,7.3
	c95.6,10.5,170.7,54.2,222,136.6c7.3,11.8,14.3,23.8,22,35.3c20.4,30.8,40,62.3,62.1,91.9c20.1,26.9,46.4,47.1,80,61.7
	C2815.1,1160.6,2893.4,1045.2,3062.6,1001.9z M1000.4,1112.3c-3.2,155.6,113.5,284.1,260.2,286.7c158.7,2.8,287.2-118.8,286.6-276.3
	c-0.5-149.6-103.7-277.8-270.3-280.4C1106,839.7,998.1,982.2,1000.4,1112.3z M2248.3,1785.3c153-6.2,251-99.5,253.1-250.9
	c1.9-138.5-113.8-255.7-249.7-255c-125.5,0.7-256.2,82.8-254.9,254.3C1998.1,1698,2129.4,1787.1,2248.3,1785.3z M2263,2153.6
	c2.7,1.7,5.4,3.4,8.1,5.1c10-8.8,20.5-17.2,29.9-26.6c189.8-191.5,378.8-383.8,569.5-574.3c50.7-50.6,107.2-95.3,160.3-143.5
	c59.5-54,104.9-117.1,120.6-197.9c6.9-35.8,8.4-71.3-5.9-105.8c-9.7-23.5-26.2-39.3-53.3-35.1c-26,4-53.4,6.9-77,17.3
	c-65.6,29.1-108.3,82.2-136.2,146.6c-24.8,57.5-39.9,116.6-3.1,176.1c9.2,14.8,5.8,28.8-5.7,41.2c-5.5,5.9-10.8,12.2-17,17.4
	c-48.7,40.8-96,83.7-146.9,121.7c-86.7,64.7-160,139.2-204.3,240.2c-24.2,55.1-64.5,97.8-117.4,128.8
	c-25.8,15.1-49.2,34.4-72.9,52.9c-19.8,15.5-32.2,36.5-36.9,61.2C2270.1,2103.5,2266.9,2128.6,2263,2153.6z M1492.5,2972
	c11-9.5,22.6-18.3,32.8-28.6c109.5-109.5,218.9-219.1,328.2-328.9c51.4-51.6,102.7-103.3,153.4-155.5c5.5-5.7,11.2-17,9.1-22.8
	c-2.4-6.7-13.6-14.3-20.9-14.2c-14.5,0.1-30.6,2.1-43.1,8.9c-59.7,32.3-112.5,72.9-146.7,133.5c-21.6,38.2-42.5,76.8-63.5,115.4
	c-35.2,64.7-83.5,115.9-150.6,148.2c-15.6,7.5-30.7,16.3-44.8,26.2C1506.5,2881.8,1491,2921.9,1492.5,2972z M1206.6,3268.5
	c-0.8-2.7-1.6-5.4-2.5-8.2c-11.5-0.3-20.2,4.3-29.6,22.1C1189.5,3275.9,1198.1,3272.2,1206.6,3268.5z"/>
<path d="M1377.7,2165.8c200.7,5.4,292.4,161.1,293.6,301.8c1.4,157.1-128.7,281-288.5,279.8c-155-1.1-287.6-108.9-288-288.1
	C1094.5,2281.8,1222.1,2167.8,1377.7,2165.8z M1380.1,2679.2c127.5,0.2,225.2-95.2,222-220.3c-2.6-105.3-82.3-218.6-222.3-221.5
	c-118.6-2.5-218.7,100.6-218.2,222.8C1162,2580,1260.9,2679,1380.1,2679.2z"/>
<path d="M1951.2,1915.8c-0.9,61.3-42.2,101.5-103.3,100.5c-53.5-0.9-95.9-44.3-95.6-98c0.3-53.4,49.2-104.9,99.8-105
	C1908.1,1813.2,1952,1858.7,1951.2,1915.8z"/>
<path d="M1241.5,1575.3c52.9,1.1,94.6,45.5,93.7,99.6c-1,58.8-47.6,101.2-109.4,99.4c-48.2-1.4-91.8-46.5-91.6-95
	C1134.3,1623,1184.8,1574.1,1241.5,1575.3z"/>
<path d="M1750.4,1233.8c7.8-65.4,41.7-115.7,95.7-152.4c32-21.7,68.1-35.4,107.4-32.4c18.9,1.4,38.3,7.7,55.6,15.8
	c18.2,8.5,24.6,26.6,23.6,46.6c-1.1,21.5-7.2,26.3-29.3,30.8c-21.2,4.3-42.9,8.6-62.4,17.4c-26.7,12-43,34.1-45.6,64.6
	c-0.9,10.3-2.6,20.6-4.1,30.9c-5.7,37.5-26.8,60-58.4,62.2c-35.7,2.6-66-17.5-76.6-51.8C1753.1,1255.7,1752.4,1245.3,1750.4,1233.8z
	 M1973.2,1098.2c-5.6-4.7-7.1-7.1-8.8-7.3c-77.1-7.5-162.5,61.3-169.1,137.6c-1,11.6,3.4,25.2,9.5,35.4c3.7,6.2,15.9,11.5,23.1,10.2
	c7-1.2,14.7-10.3,18-17.7c4.1-9.2,3.8-20.3,5.9-30.4c11.8-57.5,42.9-98.7,100-117.9C1958.2,1105.9,1964.1,1102.4,1973.2,1098.2z"/>
<path d="M1103,3056.3c-39.7-0.6-65.9-23.8-66.8-63.9c-1.3-58.7,27.3-103.7,72.5-138.2c30.7-23.4,67.5-34.3,104.9-42.3
	c6.7-1.4,14.8-3,20.4-0.4c8.5,3.8,18.1,9.7,22.4,17.4c5.9,10.7,3,23.5-8.3,30.3c-11.8,7.1-24.8,12-37.5,17.4
	c-25.1,10.7-42.2,28.1-45.1,56.2c-2.5,24-3.1,48.2-5.8,72.2C1155.6,3040.9,1137.4,3056.9,1103,3056.3z M1124.4,2893.5
	c-30.8,26.9-49.2,54-47.5,91.4c0.3,7.5,3.7,16.8,9,21.5c5.1,4.5,14.7,5.7,22,5.1c3.5-0.3,8.6-8.1,9.1-12.8
	C1119.8,2965.9,1121.7,2932.9,1124.4,2893.5z"/>
<path d="M1388.5,1866.6c3.6-15.6,6.1-31.6,11.2-46.7c4.7-14.2,16.8-18,30.9-15.3c15.6,3,15.7,14.7,14.7,26.7
	c-0.8,10.4-2.6,20.7-3.1,31c-1.8,37.3,11.1,61,39.7,73.9c30.7,13.8,64.7,7.8,89.5-16.7c7.3-7.2,12.9-16.2,19.3-24.4
	c14.6-18.7,26.7-22.3,40.5-12.2c11.8,8.7,12.2,19.6,1.5,40.3c-27.4,53-73.9,79.3-130,73.5
	C1431.5,1989.4,1390.1,1941.4,1388.5,1866.6z"/>
<path d="M1085.5,1768.1c36.9-1.2,72,15.5,102.6,41.5c17.9,15.2,22.8,36.1,15.3,52.7c-8.7,19.3-24.9,26-45,25.6
	c-3.5-0.1-6.9,0-10.4,0.1c-36.4,0.8-67.7-13.2-96-34.2c-21-15.6-29.3-39.7-22.9-60.9C1034.5,1775.2,1050,1767.7,1085.5,1768.1z
	 M1058.7,1809.3c28.8,39.7,72.2,53.5,107,35.8C1151.5,1809.6,1112.1,1795.7,1058.7,1809.3z"/>
<path d="M1808.7,2046.2c42.9,1.7,77.1,20.9,104.8,52.6c11.6,13.4,14.3,28.2,6.7,44.9c-7.7,16.8-20.8,23.1-38.6,23.8
	c-35.9,1.4-68.8-7.2-97.8-28c-10-7.2-19.4-16.9-25.4-27.6c-18.4-32.7-0.9-63.2,36.6-65.7C1799.5,2046,1804.1,2046.2,1808.7,2046.2z
	 M1887.8,2126.5c-17.2-37.8-60.7-52-98.6-34.4C1806.3,2125.3,1840.5,2137.7,1887.8,2126.5z"/>
</svg>
