<?xml version="1.0" encoding="utf-8"?>
<!-- Generator: Adobe Illustrator 24.3.0, SVG Export Plug-In . SVG Version: 6.00 Build 0)  -->
<svg version="1.1" id="Layer_1" xmlns="http://www.w3.org/2000/svg" xmlns:xlink="http://www.w3.org/1999/xlink" x="0px" y="0px"
	 viewBox="0 0 4000 4000" style="enable-background:new 0 0 4000 4000;" xml:space="preserve">
<path d="M189.8,1722.5c12.2-4.9,22.7-9.1,38.7-15.5c-15.5-6.7-25-10.9-37-16.1c-6.6-47.3,0.5-95.4,6-143.2
	c23.8-209.6,138-364.3,302.4-485.7c60.3-44.5,126.9-80.4,190-121.2c17-11,35.6-22.8,46.8-38.9C868.7,713,1050.5,591.3,1261,507
	c170.1-68.1,346.5-108.4,528.9-125.3c230.3-21.4,458.4-9.9,684.1,40c164.5,36.4,321.7,93.1,466,181.5
	c96.9,59.3,183.7,130.6,255.6,219.5c12.4,15.3,30.9,27.2,48.9,35.9c74.4,36,147.4,74,213.9,123.5c181.1,134.8,286.4,315,311.2,538.4
	c11.9,107,12.1,215.6,12,323.5c-0.1,109.2-5.7,218.4-11.3,327.4c-10.3,200-23.5,399.7-57.3,597.5c-5.3,31.1-11.1,62.1-18.6,92.7
	c-22.4,90.9-77,160.9-146.3,220.9c-97.4,84.5-209.2,144.7-327.3,194.1c-156.3,65.5-319.4,106.8-485.6,137.5
	c-262.3,48.4-526.9,68-793.3,59.4c-138.2-4.5-276.7-9.7-414-24c-228.2-23.7-454-62.9-672.9-134.7
	c-101.8-33.4-199.5-76.1-292.8-128.4c-74.5-41.8-142.1-93-201.5-154.6c-59.8-61.9-100.8-134-110-220.7
	c-12.6-119.4-25.7-238.9-33.3-358.7c-11.7-185.3-19.4-370.8-27.4-556.3C187.7,1838.1,189.8,1780,189.8,1722.5z M3679.1,1897.3
	c-24,13.4-27.3,32.3-29.9,49.4c-5.4,35.9-9.6,72.1-11.1,108.4c-1.8,42.4,1.3,85-0.5,127.4c-2.1,48.3-1.4,97.3-20.2,143.4
	c-12.6,31-32.9,53.1-66.3,62c-48.1,12.8-94.7-3-121.7-49.3c-18.7-32-30.5-68.4-43.4-103.5c-9.6-26.1-14.7-53.9-24.4-80
	c-24.6-66.3-69.6-83.6-132.3-51.4c-67.9,34.9-105.6,91.4-113.1,167.1c-4.4,44.6-5.8,89.6-8.5,134.4c-3.2,55.1-13.5,108.1-41.7,156.7
	c-39.2,67.6-133.3,72.2-178.1,12.5c-14.3-19.1-26.4-41-34.6-63.4c-10.3-28.3-15.8-58.4-23-87.8c-8.6-35.3-14.4-71.5-25.8-105.8
	c-14.5-43.7-37.3-57.2-82.7-54.7c-15.6,0.9-31.2,3.7-46.5,7c-39,8.6-77.4,21.2-116.8,26.3c-75.8,9.8-138.5-15.8-183.5-79.3
	c-8.4-11.8-15.5-24.6-22.4-37.4c-10.6-19.6-25.9-25.4-48.2-23.1c-186.2,19.7-372.7,26.3-559.4,6.7c-33.8-3.5-67.7-5.8-101.5-9
	c-16.7-1.6-30.1,2.6-41.9,15.8c-56.6,63.3-123.8,112.2-202.6,144.7c-28.7,11.9-51,31.8-69.1,57.2c-18.3,25.7-37.7,50.6-57.7,75
	c-18.7,22.8-41.8,40.1-69.6,51.3c-50.5,20.3-95.2,10.6-134.6-25.3c-24.7-22.5-41.4-50.7-51.3-82.5c-10.5-33.6-19.6-67.5-29.7-101.2
	c-12.4-41.5-32.7-78.9-64.8-108c-76.6-69.4-166.5-102.1-270.5-92.4c-31.3,2.9-57.8,16.4-80.4,38.4c-30.8,30.1-47.2,67.8-55.2,108.7
	c-9.3,47.5-13.6,96-22.5,143.6c-6.4,34.4-13.2,69.4-25.9,101.7c-18.3,46.5-56.8,64.4-105.9,56c-10.3-1.8-20.5-3.4-31.2-5.2
	c-1.8,6.5-3.9,10-3.5,13.2c9.4,83.1,18.1,166.4,28.9,249.3c9.1,69.9,40,130.2,92.1,177.2c39.4,35.6,80.8,70.1,125.3,98.8
	c150.5,97.1,317.5,155.5,490.2,197.8c248.3,60.9,501.1,91.2,756.1,100.8c298.9,11.2,596.9,0.1,891.5-56.8
	c153.7-29.7,305.9-65.1,451.5-124.3c103.8-42.2,201.9-94.5,291.4-162.7c89.5-68.1,144.6-155.1,157.2-268.1
	c6.9-61.4,17.5-122.5,23.5-184c12.3-124.3,24-248.6,33.3-373.2c6.6-89.5,8.9-179.3,12.9-269
	C3681.3,1921.7,3680,1912.3,3679.1,1897.3z M2010.9,2067.7c112.3-0.8,259.6-11,406-36.3c157-27.1,311.9-60.7,458-126.1
	c93.4-41.8,182.4-91,258.6-160.7c77.7-71.1,129.9-157.2,147.8-261.2c31.7-183.9-5.7-354.9-105.2-511.8
	c-98.5-155.5-238.9-263-403-341.2c-153.7-73.3-316.8-114.5-485-136.7c-61.3-8.1-123-20.1-184.4-19.2
	c-117.5,1.8-235.2,8.5-352.4,18.6c-196.7,16.9-383.2,72-558.9,162.3c-158,81.2-292.6,188.9-391.9,338.9
	c-164,247.6-138.6,651.9,191.9,852.7c105.6,64.2,219.3,108.5,338.1,140.5C1541.6,2044.2,1756.8,2067.5,2010.9,2067.7z M626.3,1110.6
	c-2.4-1.5-4.7-3-7.1-4.5c-8.8,5.9-18.1,11.1-26.2,17.8c-36.5,30.1-73.9,59.3-108.6,91.4c-98,90.8-166.9,199.1-184.2,334
	c-7.3,56.4-10.5,113.8-9.4,170.6c3.4,173.5,9.3,346.9,15.6,520.3c2,55.7,8.4,111.2,13,166.8c2.4,28.3,14.6,50.7,40.2,65.3
	c26.7,15.3,47.7,10.8,58.9-17.7c8.3-21.1,12.8-44.2,16.2-66.8c7.9-51.5,13.2-103.4,21.4-154.9c6.9-43.7,23.3-84.2,49.3-120.2
	c37-51.1,86.4-80.2,150.3-83.3c50-2.4,99.4,0,147.4,16c85,28.4,161.2,70,206.1,151.3c19.1,34.6,30.6,73.6,44.2,111.1
	c9.5,26.2,14.6,54,25.4,79.6c28.9,68.9,88.4,80,141.1,27c12.8-12.9,23.5-27.7,34.8-42c11.3-14.3,22.1-29,33.1-43.4
	c27.8-36.4,61.9-64.2,105.1-81.4c49-19.4,91.9-49.1,130.8-84.5c5.7-5.2,10.1-11.8,17.3-20.4c-18.2-3.8-32.2-7-46.2-9.5
	c-130.5-23-258.5-55.3-381.4-105.3c-116.8-47.6-226.1-109.2-314.7-199.5c-171.5-174.7-225.4-387.9-191.1-626.5
	C612,1171.4,619.9,1141.1,626.3,1110.6z M2395.8,2146c26.3,60.6,82.5,96.3,142,90.3c23.9-2.4,47.5-8.8,71.2-13.9
	c34.3-7.4,68.2-17.6,102.8-22.6c53.1-7.6,96.5,13.5,124.3,58.2c16.9,27.3,28.1,58.9,37.4,89.9c11.8,39.4,17.2,80.7,28.9,120.2
	c7.1,24,17.8,48.1,32.2,68.6c20.3,29,55.3,28.1,76.8-0.2c9.4-12.3,17.7-27,21-41.8c7.7-34.1,13.7-68.9,17.3-103.7
	c4.3-42.2,4.1-84.9,8-127.1c10.4-111.8,85.4-201.8,189.3-228.8c64.6-16.8,122,7.6,153.3,66.7c10.2,19.2,18.5,39.6,25.7,60.1
	c12.4,35.5,21.7,72.1,35.4,107.1c7.3,18.7,19,36.7,32.4,51.7c20.1,22.4,45.4,19.9,59.6-6.4c10.1-18.7,18.5-40.5,19.9-61.4
	c3.8-58,4.8-116.2,4.7-174.4c-0.2-77.3,5.7-152.9,47.5-221c10.2-16.5,20.3-33.1,31.2-49.2c12.7-18.7,20.2-38.8,18.9-61.5
	c-4.4-81.1-3.9-162.9-14.7-243.1c-27.9-206.6-137.3-361.9-312.3-472.5c-5.7-3.6-12.3-5.6-18.7-8.4c-1.4,4.3-3.3,6.8-2.7,8.6
	c2.8,9.2,5.8,18.4,9.4,27.4c33,81.7,52.3,166.7,58.6,254.4c13.7,190.8-42.6,356.8-178.1,493.7c-72.5,73.3-157.6,129-250,173.4
	c-136.4,65.5-280.4,107.8-428.4,137.4C2491.2,2127.4,2443.8,2136.6,2395.8,2146z M1113.1,3329.6c14.4,18.9,51.7,42.2,73.4,45.5
	c3.2,0.5,7.1-4.1,14.4-8.7C1169.4,3353.2,1142,3341.8,1113.1,3329.6z M2256,451.8c-0.6-2.4-1.2-4.9-1.8-7.3
	c-7.8,2.1-15.5,4.3-23.3,6.4c0.5,2.1,1.1,4.2,1.6,6.3C2240.3,455.4,2248.2,453.6,2256,451.8z"/>
<path d="M2668.3,2755.1c-2.5,92.6-77.2,165.4-166.3,162.1c-85.1-3.1-153.7-77.9-150.8-164.5c3-89.9,77.7-160.2,166.4-157.6
	C2601.7,2597.5,2665.8,2662.6,2668.3,2755.1z M2556.5,2735c26.8,0.5,45.5-16.1,45.2-40.2c-0.3-25.7-19.8-44.8-46.2-45.2
	c-25.6-0.4-43.4,16.8-43.5,42.2C2511.9,2713.9,2533.2,2734.6,2556.5,2735z"/>
<path d="M1492.7,2913.2c-88.5,0.2-160.8-70.7-161.4-158.3c-0.6-86.7,73.4-161.6,159-161c89.3,0.6,160.9,68.9,160.3,154.1
	C1649.9,2846.5,1572.1,2916.9,1492.7,2913.2z M1586.4,2690.3c-0.1-23.4-23.4-44.5-48.1-43.8c-24.4,0.7-42.2,21.4-42.1,49
	c0.1,22.8,16.4,37.2,42.8,37.8C1566.6,2733.8,1586.5,2715.7,1586.4,2690.3z"/>
<path d="M2002.3,3013.3c-99.2,0-184.1-66.4-202.8-159.5c-2.6-12.8-2.8-26.4-2.1-39.6c0.7-12.4,9-19.1,21.6-20.2
	c12-1.1,22,1.9,26.5,13.9c3.8,10.2,6.2,20.9,9.2,31.3c28.2,99.8,143.8,145,239.9,75.6c19.3-14,31.4-33.4,37.1-56.5
	c3.5-14.1,6-28.4,9.6-42.5c3.6-14.3,11.4-23.9,27.8-23c16.4,0.9,28.1,8.5,30.8,25.2c1.5,9.3,1,19.3-0.3,28.7
	C2186.5,2945.3,2105.8,3013.2,2002.3,3013.3z"/>
<path d="M1311,2905.9c48.7,5.3,95.5,13,138.6,33.6c20.2,9.7,39.9,23.7,55,40.2c27.1,29.7,21.7,73.9-12.9,94.2
	c-23.3,13.6-51.4,22.8-78.3,25.5c-61.3,6.2-120.7-6.8-177.4-31c-7.8-3.3-15.2-7.8-22.1-12.6c-24.3-16.8-40.6-38.4-37.6-69.9
	c3-31.6,23.3-51.4,50.4-61.1C1253.6,2915.3,1282.8,2912,1311,2905.9z M1477.3,3017.8c-11.4-9.9-19.9-20.9-31.1-26.6
	c-55.6-28-115-36.5-176.2-27.6c-19.5,2.8-40.9,8.3-46.9,32.5C1275.4,3056.5,1431,3072.4,1477.3,3017.8z"/>
<path d="M2617.2,3101.5c-18.6-4.4-51.7-8-81.2-20.2c-48.4-19.9-57.4-67.8-21.3-105.8c14.5-15.3,33.8-28,53.3-36.3
	c56.4-24.2,116-33.7,177.3-26.9c32.9,3.6,63.9,13.1,86,40.8c16.1,20.3,17.8,41.3,6.7,64.3c-13.6,28-37.6,43.5-65.2,54.5
	C2727.3,3090,2679.7,3097.6,2617.2,3101.5z M2630.4,3052.7c0.1-0.7,0.1-1.5,0.2-2.2c7.3,0,14.5,0.4,21.8-0.1
	c42.6-2.7,84-11.6,121.3-32.8c9.1-5.2,18.6-16.8,20.2-26.7c2.7-16.2-13.9-20.6-25.8-25.7c-6.5-2.8-14.1-3.2-21.2-4.2
	c-41.2-5.6-82.2-3.8-122.1,8c-21.7,6.4-43.4,14.8-63.1,25.8c-8.9,5-19,19.7-17.5,28c1.6,8.8,15.3,19,25.5,21.8
	C2589.3,3049.9,2610.1,3050.3,2630.4,3052.7z"/>
<path d="M2007.9,1855.8c-44.8,0-89.8,2.5-134.4-0.4c-186-12.1-369.1-39.3-541.6-115.4c-99.8-44-191.5-100.3-264-183.2
	c-126.5-144.6-146.8-306-73.2-481.3c46.4-110.5,123.4-197.8,216.3-269.8c180.8-140.2,385.8-221.2,614.8-240
	c170.5-14,339.6-5.2,506.9,30.2c159.8,33.7,309.3,91.8,439.5,193c112.7,87.6,201.1,193.8,242.1,333
	c47.4,161.1,16.8,307.5-92.4,435.6c-74.9,88-172.6,143.9-276.9,189.7c-113.2,49.7-231.9,78.9-354.2,92.6
	c-73.5,8.2-147.4,12.1-221.2,17.2c-20.5,1.4-41.2,0.2-61.8,0.2C2007.9,1856.8,2007.9,1856.3,2007.9,1855.8z M1243.2,926.7
	c-2.1-1.3-4.2-2.7-6.3-4c-8.1,6.4-17.3,11.8-24.1,19.4c-53.9,59.8-103.8,122.7-131.1,199.4c-39,109.7-31.6,214.6,39.3,311
	c52.2,71,121.3,121.7,198.6,161.7c95.4,49.4,196.7,83.1,302,103.4c190.6,36.8,382.5,46.4,576,26c116.3-12.3,230.6-32.3,340.9-71.5
	c90.8-32.2,177.3-72.9,252.5-134.5c148.2-121.6,182.6-298.6,91.5-467.2c-49.1-90.8-120.1-161.1-204.3-218.7
	c-98.3-67.4-207.9-109.5-322.3-140c-157.3-41.9-317.3-55.9-479.7-45.8c-106.6,6.7-209.1,28.6-304.9,76.3
	c-90.9,45.3-167.2,107.9-215.6,199.4c-34.1,64.3-47,131.8-28.6,204c19,74.6,60.3,133.9,118.9,182.7c94.3,78.6,206.5,117,323.8,140.7
	c136.6,27.5,274.6,31.3,412.4,6.4c93.5-16.9,184.2-43,268.4-88.3c44.5-24,82.9-55.4,110.4-98.2c34.9-54.4,43.3-111.9,17.5-173.3
	c-25.6-61-71.2-103.7-124.7-138.6c-79.2-51.5-166-85.1-259.3-101.3c-126.2-21.9-251.5-19.6-374.5,18
	c-58.7,17.9-112.6,45.5-150.4,96.9c-38.4,52.1-33.2,104.2,14.2,149.1c30.8,29.2,67.8,46.9,107.8,58.4c92.4,26.5,186.5,32.3,281,14.4
	c29.5-5.6,59-15.4,85.9-28.5c47.8-23.3,49.5-71.5,4.6-99c-16.3-10-34.8-17.9-53.3-22.4c-61.7-15.1-122.6-11.7-182,12.4
	c-17.9,7.2-36.4,13.8-55.3,17.2c-25.4,4.6-45.3-7.8-55.6-30.7c-10.6-23.6-7.2-46.3,13.2-62.3c14.1-11,30.7-19.7,47.4-25.9
	c58.7-21.9,120.1-30.1,182.4-26.7c66.6,3.6,129.2,21.2,182,64.8c76.8,63.4,80.7,171.7,8.3,239.9c-31.7,29.8-70.2,47.2-111.7,58.6
	c-106.2,29.4-212.9,30.6-320.7,8.7c-68.6-13.9-133.6-35.7-190-78.5c-102.4-77.8-121.8-204.2-48.1-309.7
	c42.9-61.5,104.2-97.2,172.2-122.6c76.6-28.6,156.3-43.2,238.1-48.1c151.9-9.1,297.8,15.1,435.4,80.9
	c86.3,41.3,163.6,95.4,217.8,177c50.1,75.5,69.4,156.8,44,245.9c-20.4,71.5-63.3,127.8-120.2,173.7
	c-51.5,41.6-110.3,71.1-172.5,92.3c-248.7,84.8-500,90.1-751.8,16.7c-135.3-39.5-255.3-106.8-344.1-220
	c-85.5-109.1-109.5-229.9-64.1-362.7C1238,951.8,1240.2,939.1,1243.2,926.7z"/>
</svg>
