<?xml version="1.0" encoding="utf-8"?>
<!-- Generator: Adobe Illustrator 24.3.0, SVG Export Plug-In . SVG Version: 6.00 Build 0)  -->
<svg version="1.1" id="Layer_1" xmlns="http://www.w3.org/2000/svg" xmlns:xlink="http://www.w3.org/1999/xlink" x="0px" y="0px"
	 viewBox="0 0 4000 4000" style="enable-background:new 0 0 4000 4000;" xml:space="preserve">
<path d="M1984.9,179.3c954.8,0.1,1738.4,748.6,1746.3,1718.8c7.9,971.7-763.2,1748.9-1722.6,1764.4
	c-922.9,14.9-1763.9-718.9-1770.5-1725.8C231.8,976.9,997.3,181.2,1984.9,179.3z M343.7,1886c0,25.3-1,47.6,0.2,69.8
	c4,77.4,9.8,154.4,48.7,224.3c39.6,71.2,88,100.3,171.5,82.3c35.8-7.7,71.9-14,107.4-23c101-25.5,204.5,24.6,239.2,137.7
	c14.1,45.9,19.1,94.6,28.2,142.1c9.6,50,13.8,101.8,30.1,149.5c23.3,68.3,70.7,82.4,133.4,46c19.1-11.1,36.7-25.2,53.4-39.7
	c20.8-17.9,39.6-38.2,60.1-56.5c18.5-16.5,37.2-33.2,57.6-47.2c115.3-79.3,249.9-56.4,332.1,56.5c22.3,30.6,42.1,63.1,62.9,94.8
	c46,70,91.3,84,166.7,49.8c28.6-13,56.6-27.4,83.9-42.9c53.5-30.1,108.8-34.6,166.5-15.2c18.6,6.2,37.4,11.8,55.8,18.5
	c36,13.1,67.1,5,93.7-21.2c17.7-17.4,34.4-35.9,51.6-53.9c73.7-77,164.2-90.4,256.3-36c31.4,18.6,60.2,41.7,90.6,62.2
	c18.4,12.4,36.4,26,56.4,35.4c45.1,21.3,81.5,5.3,94.3-42.4c7-26.2,8.4-54.1,11-81.4c4.9-52.1,7.2-104.6,28.9-153.6
	c39.4-89.2,134.9-128.5,225.6-92.7c39.7,15.7,72.9,40.6,102.2,71.4c18,18.9,35.7,38.5,55.6,55.3c38.6,32.5,73.1,22.7,91.1-25
	c5.9-15.8,9.4-32.6,13.7-49c13-49.2,22.1-100,39.8-147.4c23.6-62.9,71.8-98.4,140.9-100.9c26.2-0.9,52.4,0,78.5-0.6
	c27.4-0.6,32.3-3.9,36.1-30.7c4.7-33.7,8.5-67.6,10.4-101.5c12.7-223.5-12.9-442.2-91.1-652.7c-162.9-438.7-461.2-752.9-887.1-942.7
	c-339.1-151.1-692.6-178.8-1052.2-87.7C1164,445.2,833.6,686.2,598.6,1054.9C436.8,1308.8,349.1,1586.7,343.7,1886z M400.6,2343
	c26.6,106.4,61.3,202.7,108.3,294.4c138,268.9,332.9,487.1,586.3,652.3c247.9,161.7,519.9,251.2,815.5,262.7
	c908.1,35.5,1563.6-648.9,1668.7-1296.1c-24,0-47.3-0.1-70.5,0c-37.9,0.2-56,10.7-68.4,46.6c-8.9,25.8-12,53.5-18.9,80
	c-10.4,40.4-16.6,82.8-33.8,120.2c-43.7,95.5-153.2,120.5-237.2,57c-19.7-14.9-36.6-33.6-54.7-50.6c-17.2-16-33-34-51.9-47.8
	c-50.8-37.1-109.8-18.7-128.7,40.8c-7.8,24.6-9.3,51.3-13.6,77c-7.5,45.1-11.1,91.2-23.3,135c-19.1,69.1-78,109-149.7,110.1
	c-32.3,0.5-62.9-5.1-90.4-21.6c-33.6-20.1-65.7-42.9-99.3-63c-23.4-14-47.3-28.4-72.8-37.7c-41.8-15.2-80-5.9-111.1,27.2
	c-15.2,16.2-30.2,32.7-45.2,49.1c-53,57.9-118.7,72.7-193.3,56.6c-21.7-4.7-43.6-9.5-64.5-16.7c-33.5-11.6-64-5.8-94.3,10
	c-27.8,14.5-55.9,28.8-84.5,41.6c-116.7,52.4-220.7,21.3-289.2-85.7c-18.3-28.6-35.9-57.9-55.7-85.5c-55.8-77.7-130-89.6-206.9-32.2
	c-26.1,19.5-47.9,44.5-72.6,65.9c-30.6,26.4-59.8,55.7-94,76.6c-63.2,38.6-130.6,43.3-198,7.5c-49.7-26.4-77.5-70.9-91.3-122.5
	c-13.5-50.2-19.5-102.5-28.5-153.9c-7.5-42.4-11.2-85.9-22.8-127.1c-17.1-60.9-61.9-85.5-123.4-73.5c-20.5,4-41.3,7.4-61.3,13.5
	C555,2376.1,480.9,2380,400.6,2343z"/>
<path d="M2557.9,1797.7c-2.9,325.4-258.8,577.7-579.7,578c-297.6,0.3-581.3-248.3-574.1-579.5c5.7-259.3,186.8-568.1,578.7-570.1
	C2343.4,1224.3,2557,1534.6,2557.9,1797.7z M1972.6,2265.9c277.2,1.1,469.8-202.6,474-470.1c3.4-218.1-177.9-456.2-462.5-458.7
	c-261.2-2.3-472.3,206.2-469.8,467.3C1516.7,2067.4,1725.9,2266.3,1972.6,2265.9z"/>
<path d="M2943.8,1094.3c-51.5,0.4-79.2-21.9-86.3-62.4c-7.2-40.8,10.8-68.2,55.1-81.1c17.5-5.1,35.7-8,53.8-10.4
	c40.2-5.3,80.4-9.9,120.7-14.4c34.3-3.8,57.7,13.7,74.6,41c14.9,24.1,9.1,49.2-5.7,70.1c-9.1,12.9-24.5,26.6-39.1,29.5
	C3056.7,1078.5,2995.8,1086.3,2943.8,1094.3z M2940.4,1046c7.9-1.7,19.2-4.8,30.8-6.6c39.9-5.9,79.9-11.1,119.8-17
	c15.5-2.3,27.8-9.4,25.7-27.9c-2.2-19.2-16.9-22.1-31.9-20.3c-51.7,6.4-103.3,13.4-154.7,21.3c-13.4,2.1-24.8,10.3-22.8,26.7
	C2909.2,1039.1,2919.5,1047.3,2940.4,1046z"/>
<path d="M923.6,1456.1c-65.2-1.4-99.5-57-69.2-109.2c28.7-49.5,60.4-97.5,93.3-144.4c24.4-34.7,51.4-42,84.6-29.7
	c34.6,12.9,53,49.9,42.1,85.4c-2.7,8.7-5.9,17.5-10.7,25.1c-31.4,49.5-62.9,98.9-95.1,147.9C957.2,1448.4,941.4,1459.4,923.6,1456.1
	z M1027.2,1246.2c0.8-18-9.3-28.4-21.9-23.8c-10.3,3.8-21.1,11.2-27.2,20.1c-26.4,38.9-51.2,78.9-76.2,118.7
	c-3.4,5.4-6.8,12-6.9,18.1c-0.1,7.1,1.3,17.8,5.9,20.6c6.5,4,17.7,5,24.7,2.1c7.6-3.1,13.8-11.6,18.6-19c24-37.3,47.5-75,70.8-112.8
	C1020.4,1261.5,1024.3,1251.8,1027.2,1246.2z"/>
<path d="M1921.4,914.9c12,4.1,26.3,7.2,38.9,13.6c44.3,22.4,88.3,45.6,131.9,69.1c11.4,6.1,22.5,13.7,31.8,22.7
	c22.3,21.6,25.7,54.1,10.5,83.2c-14.9,28.4-39.7,41.1-71.4,36.1c-7.7-1.2-15.8-2.7-22.6-6.2c-51.3-26-102.9-51.4-153.1-79.3
	c-24.3-13.5-38.4-36.7-34.7-65.5c3.9-30.2,19.8-53.7,48-67.4C1906.2,918.5,1912.8,917.4,1921.4,914.9z M1926.3,967.2
	c-6.6,6.7-17.2,12.7-19.2,20.9c-2,7.9,3.3,18.8,8.1,26.8c2.9,4.8,10.8,6.7,16.6,9.7c37,19.3,73.9,38.7,111,57.7
	c6.9,3.5,15,8.1,21.8,7.2c9.4-1.3,24-5.7,25.7-11.8c2.5-8.9-3.1-21.1-8-30.6c-2.5-4.9-10.5-7.3-16.3-10.3
	c-38.2-19.9-76.4-39.8-114.7-59.5C1944.6,973.8,1937.1,971.5,1926.3,967.2z"/>
<path d="M1094.7,1759.3c-34.9-4.9-54-19.3-64.3-52.2c-11.1-35.3-2.1-65.5,25.2-83.1c6.5-4.2,13.7-8.4,21.1-10
	c56.1-11.9,112.1-25.3,168.8-34c36.7-5.6,62.3,14,75.2,48.8c12.6,34.1,1.5,70.7-32.8,81.3
	C1224.5,1729.7,1159.2,1743.2,1094.7,1759.3z M1254.8,1627.2c-9.5,0.6-12.2,0.4-14.7,1c-44.7,9.1-89.5,18-134.1,27.9
	c-7.3,1.6-16.2,5.8-19.7,11.6c-4,6.8-5.5,17.5-3.1,24.9c1.7,5,12.7,11.1,18.3,10.1c52.5-10.2,104.8-21.3,156.7-34.1
	c6.6-1.6,15.7-16.3,14.1-22.5C1270.1,1637.4,1258.9,1631.2,1254.8,1627.2z"/>
<path d="M1088.4,2257.4c-30.1,0.2-51.7-16-63.4-46c-11.4-29.4-7.3-56.9,14.6-75.2c12.8-10.7,27.9-19.6,43.4-25.8
	c42.3-17,85.2-32.7,128.2-47.9c41.7-14.7,73.6-1.9,91.5,35.1c17.6,36.4,6.6,79.5-32.3,96.6c-54.7,24-112.3,41.5-168.7,61.5
	C1096.9,2257.3,1091.4,2257,1088.4,2257.4z M1091.1,2204.7c10.9-3,19.8-5,28.4-8c34.5-12,69-24.1,103.4-36.5
	c8.6-3.1,18.7-5.7,24.3-11.9c6.1-6.8,12.2-19,9.9-26.2c-2.1-6.7-14.8-11.5-23.7-14.2c-5.3-1.6-12.6,2.1-18.7,4.4
	c-38,14-75.9,28.2-113.8,42.5c-7.3,2.7-17.1,4.6-20.5,10.1c-4.8,7.8-7.1,18.9-5.8,28C1075.3,2197.6,1085.7,2201,1091.1,2204.7z"/>
<path d="M3391,1466.2c-3.7,7.6-7.6,24.3-17.8,34.9c-43.6,45.1-87.2,90.4-134.4,131.5c-29.8,26-68.4,18.1-94.2-11.7
	c-26.7-30.9-28.6-61,0.1-91.3c43.1-45.6,88.7-88.9,133.9-132.5c22-21.1,47.3-19.5,72.5-5.5C3377.2,1406.2,3393.2,1433.3,3391,1466.2
	z M3206.3,1599.1c4.9-3.7,12.7-8.3,19-14.4c30.7-30.1,61.1-60.5,91.4-91c7.3-7.4,16-14.6,20.1-23.6c3.8-8.3,6.6-22.1,2.3-27.7
	c-4.9-6.3-18.4-8.9-27.7-7.9c-8,0.9-16.3,7.8-22.6,14c-33.4,32.9-66.3,66.3-99.2,99.8c-4.5,4.6-9,9.7-11.6,15.5
	C3171.5,1578.4,3187.3,1600.2,3206.3,1599.1z"/>
<path d="M2957.9,2093.5c-45.8,6.2-97-51.1-67.4-102.3c29.4-51,57.8-102.8,90.6-151.5c33.1-49.3,100.4-42.1,126.9,11.7
	c4.7,9.6,4.7,22.5,3.8,33.7c-0.7,8.7-5,17.7-9.6,25.5c-29.5,50.9-58.8,102-89.8,152C2995.9,2089.3,2985.5,2093.4,2957.9,2093.5z
	 M2955.5,2050.3c10.2-10.2,19.8-16.9,25.6-26c24.5-38.6,48.1-77.9,71.6-117.1c4.6-7.7,9.2-16.4,10.3-25.1c0.9-6.7-1.7-17.5-6.4-20.3
	c-6.8-4-17.4-4.2-25.6-2.5c-5.3,1.1-10.4,7.9-13.7,13.2c-26.9,43.2-53.9,86.5-79.7,130.4c-4.1,6.9-4.9,18.2-2.4,25.9
	C2937.6,2035.9,2946.4,2041,2955.5,2050.3z"/>
<path d="M1912.1,650.8c-34.9-6.8-78.3-15.1-121.7-23.7c-19.1-3.8-38.6-6.9-57.2-12.6c-36.1-11.1-54.7-46.4-45.4-83.4
	c8.8-35.2,42.4-63,78-54.8c57,13.2,114.9,22.7,171.6,37.3c45.5,11.8,63.4,51.6,46.8,94.4C1973.1,636.8,1952.3,650.8,1912.1,650.8z
	 M1763.5,526.1c-4.8,2.8-20.3,6.6-23.7,15.1c-6.3,15.9,6.6,25.8,21.5,31c1.2,0.4,2.4,1.1,3.7,1.3c46.9,10,93.7,20.5,140.8,29.6
	c20.2,3.9,35-4.7,36.7-19.2c2.1-18.8-11.8-25.4-25.9-28.3C1868.3,545.6,1819.8,536.9,1763.5,526.1z"/>
<path d="M2614.7,1008.9c-5,48-8,96.4-15.4,144c-6.3,39.8-25.8,53.1-65.3,52.4c-37.4-0.7-61-20.4-68.2-57.5
	c-1.5-7.6-1.8-15.7-1.3-23.4c3.8-54.7,8.5-109.3,12-164c2.6-41.2,44.2-62.1,74.1-60.5c39,2.2,62.6,27.6,64,69.7
	C2615.1,982.6,2614.7,995.7,2614.7,1008.9z M2512.9,1145c32.6,10.3,41.5,8.2,43.6-13.3c5.1-50.6,8.2-101.4,11.2-152.2
	c0.7-11.6-1.1-24.2-17.1-26.2c-16.3-2.1-25.4,6.2-26.6,21.4C2519.9,1031.7,2516.5,1088.8,2512.9,1145z"/>
<path d="M1613.9,983.6c-5.1,12.3-8.9,28-17.3,40.7c-30.2,45.7-61.8,90.5-93.2,135.4c-31.4,44.9-97.1,36-121.1-15.5
	c-8.3-17.8-11.3-36.4-0.5-52.5c36.3-54.1,70.8-109.9,112.5-159.5c34.3-40.8,97.7-21.9,115,29.4
	C1611.3,967.6,1612,974.2,1613.9,983.6z M1444.8,1145.3c10.9-8.6,19.5-12.7,24.4-19.5c28.2-38.9,56.1-78,82.9-117.9
	c14.6-21.8,14.5-38,3.2-45.3c-13-8.4-30.1-1.9-45.2,19.4c-24.8,34.9-49.2,70.1-72.5,106.1c-6,9.2-10.1,21.7-9.5,32.4
	C1428.4,1128.2,1437.8,1135.6,1444.8,1145.3z"/>
<path d="M2788.8,1831.6c0.2,41.5-17.7,65.5-49.3,73.4c-39.5,9.9-71.4-2.3-86-34.7c-6.4-14.1-10.7-29.7-13.2-45
	c-7.3-43.8-14-87.8-19.3-131.9c-4.6-38.5,18.7-70.5,54.6-78.5c33.6-7.5,74.4,14.6,82.4,50.1
	C2770.9,1722.3,2779.6,1780.5,2788.8,1831.6z M2673,1689.6c7.2,51.3,13.7,100.6,21.2,149.7c1.8,11.6,5.8,24.3,22,21.9
	c17.6-2.6,24.1-13.9,21.5-31c-7.1-47.9-14-95.8-21.3-143.6c-2.1-14-7.6-26.1-24.7-24.1C2674.7,1664.5,2672.5,1677.5,2673,1689.6z"/>
<path d="M1146.1,913.9c-57.8,0.9-89.9-37-71.3-92c19.2-56.8,43.9-112,70-166.1c16.8-34.8,53.2-44.1,87.3-28.8
	c32.8,14.7,50.4,45.9,38.3,80c-20.5,57.8-43.8,114.8-68.8,170.9C1188.9,906.3,1172.6,913.5,1146.1,913.9z M1225.8,694.5
	c-3.6-5.9-6.7-16.9-13.8-21.3c-11.8-7.3-22.5,0.1-29.4,11c-4.8,7.6-8.8,15.9-12.3,24.3c-13.2,31.1-26.1,62.3-38.9,93.6
	c-3.9,9.6-7.9,19.3-10.4,29.4c-3.3,13.3-3.4,26.8,12.9,32.1c14.9,4.8,25-2.8,31.6-15.8c2.9-5.8,5.6-11.7,8.1-17.7
	c14-35,27.9-70,41.7-105.1C1218.6,716.5,1221.2,707.8,1225.8,694.5z"/>
<path d="M803.7,1134c-1.9,41.7-3.4,83.4-5.8,125c-2.4,41.7-23.6,62.4-63.7,63.3c-44.7,1.1-75.2-21-74.8-61.4
	c0.6-57.2,3.6-114.8,11.5-171.4c6.3-45.8,49.6-67.1,91.3-51.4c23,8.7,35.9,25.8,40,49c2.7,15.3,2.2,31.1,3.2,46.7
	C804.7,1134,804.2,1134,803.7,1134z M711.3,1273.3c37.7-1.5,38.7-1.8,40-28.8c2.1-44.4,3.6-88.8,4.8-133.2
	c0.2-7.3-2.6-14.8-3.9-21.7c-32.3-1-37,1.8-38.6,29.3c-1.9,32.6-1.7,65.3-2.2,98C711.1,1234.8,711.3,1252.8,711.3,1273.3z"/>
<path d="M1887.6,2610.2c-5-1.4-17-2.9-27.4-7.8c-42.5-20.2-85.1-40.2-126.5-62.5c-49-26.4-43.6-60.8-27.9-96.3
	c17.4-39.1,55.3-53.2,95.1-32.9c45.3,23.2,88.9,49.9,131.6,77.6c27.2,17.6,31.6,42.8,19.5,76.7
	C1942,2593.3,1920.9,2609.8,1887.6,2610.2z M1885.9,2559.2c7.1-4.2,20.6-7.6,24.9-15.8c7.1-13.5-6.9-20.6-17-26.2
	c-20.6-11.4-41.4-22.4-62.5-32.8c-18.7-9.3-37.7-18.1-57-26.1c-12.6-5.2-23.8-0.8-29.9,11.3c-7.3,14.4,3,22.1,13.8,27.8
	c34.7,18.2,69.7,36,104.7,53.7C1868.6,2553.9,1875.1,2555.4,1885.9,2559.2z"/>
<path d="M2376.4,2332.4c1.1-58.8,45.2-88.8,95.7-64.7c41.2,19.7,81.4,42,120.4,65.8c35.3,21.4,43.3,52.6,26.9,87.5
	c-17.4,37-48.1,52.2-87.5,34.9c-44.1-19.3-86-44-127.4-68.8C2384.7,2375.2,2374.2,2354.9,2376.4,2332.4z M2570.7,2409.6
	c2-3.1,3.9-6.3,5.9-9.4c-3.1-7.9-3.9-19.8-9.7-23.2c-39-22.7-78.8-44.1-119.2-64.2c-5.1-2.6-19.3,2.9-22,8.3c-3,6,0.6,17.2,4.6,24.1
	c3.6,6.1,11.4,10.4,18.1,14.1c26.1,14.4,51.9,29.5,79,41.7C2540.5,2406.8,2556.2,2406.9,2570.7,2409.6z"/>
<path d="M3540.9,1849.6c-2.4,25.1-4,53.8-8.1,82.1c-5.5,37.2-26.1,56.1-58.3,56.7c-40,0.6-68-18.9-72.5-56.5
	c-6.3-52-2.2-104.3,13.1-154.6c9.9-32.6,37.9-46,74.8-40.6c31.9,4.7,49.1,24,50.9,58.7C3541.6,1812.3,3540.9,1829.2,3540.9,1849.6z
	 M3492.1,1785.1c-22.5-5-35.6,2.8-37.6,20.9c-4.1,37.5-6.5,75.2-7,112.9c-0.1,7.1,11.3,14.3,17.4,21.5c6.7-6.7,18-12.6,19.2-20.1
	c4.5-28.2,6.1-57,7.9-85.6C3492.9,1818.2,3492.1,1801.7,3492.1,1785.1z"/>
<path d="M878.7,1755c58.1-0.7,91.9,46.5,71.1,91.8c-22.1,48.2-58.5,86.5-102,116.4c-26.9,18.5-58.1,13.4-78.7-8
	c-25.1-26-30.2-57.2-8.5-84.8c26.5-33.8,55.7-65.6,85.6-96.5C856.4,1763.6,872.2,1758.7,878.7,1755z M907.9,1804.3
	c-9.2-0.6-15.6-3.1-18.9-1c-37.7,24.6-67.3,57-87.7,97c-2.6,5.2-0.3,17,4,20.4c4.3,3.4,16.9,3,20.7-0.8
	c27.4-27.6,54.3-55.9,79.4-85.7C910.5,1828.3,907.3,1815.4,907.9,1804.3z"/>
<path d="M2277.1,732.3c-56.2,1.5-93.2-49.7-70-93.6c19.9-37.6,45.9-72.7,73.1-105.5c22-26.5,56.2-26.5,84.7-6.5
	c28.1,19.7,40.2,53.1,22.1,81.9c-24,38.3-53.1,73.6-81.9,108.6C2297.7,726.2,2283.1,729.3,2277.1,732.3z M2249.7,676.5
	c3.2,2.3,6.4,4.7,9.6,7c8.9-4.1,20.3-6,26.2-12.8c18.9-21.3,36.1-44.1,53.1-67c8-10.8,13.4-24.6-0.9-34c-12.9-8.5-25-1.9-33.9,9.4
	c-15.1,19.4-31.2,38.2-44,59C2253.3,649,2252.9,663.6,2249.7,676.5z"/>
<path d="M512.8,2068.6c-33.7,0.9-82.9-31.6-64.6-85.7c12.1-35.6,26.6-71.3,45.8-103.5c24-40.3,74.8-42.2,106.4-8.1
	c11.3,12.2,18.6,26.2,13,42.8c-13.7,40.8-27.4,81.6-43,121.7C561.4,2058.9,541.4,2068.5,512.8,2068.6z M563.1,1894
	c-11.3,2.7-22.6,2.2-24.7,6.3c-16.2,32.2-31.3,65-45,98.3c-1.8,4.5,4.6,17,9.3,18.4c7.2,2.1,20.8,0.5,23.9-4.4
	C548.9,1977.7,566.3,1940.8,563.1,1894z"/>
<path d="M2608.7,521c17.6-0.7,36.9,5.6,48.2,23c19.1,29.3,38,59.4,52.1,91.3c13.3,30.1,3.5,56.7-19.8,72.9
	c-23.9,16.7-57.6,17.3-80.3-2.4c-32-27.7-56.8-61.8-69.7-102.5C2526.7,564.1,2561.7,522,2608.7,521z M2608.6,573.1
	c-14.5,0.3-26.5,8.1-20.2,21.1c12.8,26.4,28.6,51.9,46.7,75.1c8.8,11.2,26.7,1.8,28.2-12.8c1.6-15.2-30.1-73.7-43.8-80.3
	C2616.1,574.5,2612,574,2608.6,573.1z"/>
<path d="M2803.4,1344.2c6,1.8,15.1,3.5,23.4,7c35.8,15.3,64.5,39.8,85.9,72.1c13.7,20.7,18.8,43.2,2.7,65.9
	c-15.1,21.4-43.7,33.5-69.2,25.6c-40.9-12.8-74.2-37.9-101.4-70.6c-15.6-18.9-17.6-41.3-4.9-62.3
	C2753.3,1359.6,2772.9,1345,2803.4,1344.2z M2871.1,1461.7c-5.2-30.2-38.5-65.7-63.1-66.6c-7.4-0.3-18.8,5.3-21.6,11.3
	c-2.7,5.8,1.2,17.5,6,23.3c7.3,8.8,17.9,14.7,27.1,22C2834.2,1463.3,2849.2,1473.3,2871.1,1461.7z"/>
<path d="M1647.6,2996.5c-2.7,98.2-58.4,155.8-148.9,156.1c-75.4,0.2-142.2-70.2-141-145.2c1.4-87.3,68.2-154.1,151.4-151.6
	C1578.5,2858,1654.8,2918.5,1647.6,2996.5z M1549.3,2988.4c25.6,0.3,44.1-13.2,45.2-32.9c1.2-21.8-18.4-41.9-41.7-42.5
	c-22-0.6-39.3,16.4-39.7,39.1C1512.7,2973.7,1527.1,2988.2,1549.3,2988.4z"/>
<path d="M2455.5,2854.8c76.3-0.5,140.4,65.2,140.4,144c0,86.5-59.9,151-141.1,152c-79.5,1-149.7-70.2-146.9-152.6
	C2310.1,2931.2,2363.2,2855.4,2455.5,2854.8z M2496.6,2984.3c24.7,0.4,44.2-14.9,44.4-34.6c0.1-20.5-18.3-39-40.1-40.1
	c-22.9-1.1-40.8,15.3-40.8,37.2C2460.2,2968.5,2475.3,2984,2496.6,2984.3z"/>
<path d="M1831.9,3187.8c18.5-4.2,29.8-5.9,40.5-9.5c14.9-4.9,29.6-10.4,43.8-17c53.2-24.8,103.8-17.3,154.1,9.4
	c47.7,25.2,56.8,20,64.2-33.7c2.7-19.4,3.8-39,6.1-58.5c2.6-22.7,10.5-31.2,27.7-29.7c18.6,1.6,28.2,12.5,28.6,31
	c1,46.3-4.6,91.9-25.7,133.5c-51.7,101.9-127.2,143.5-258.1,111.6c-25.5-6.2-50.7-22.2-70.9-39.6c-52-45-76.1-105-80.5-173
	c-0.8-12.8,0.9-26.2,3.8-38.8c3.2-13.9,13-22.4,28.3-22.3c17.4,0.2,21.3,12.8,22.8,26.4c1.3,11.7,0.3,23.6,2,35.2
	C1822.2,3135.7,1826.7,3158.5,1831.9,3187.8z M1874.9,3247.5c57.4,57,162.5,47.4,208-0.5C2017.3,3172.7,1944.7,3185.5,1874.9,3247.5
	z"/>
<path d="M2553.9,3327.6c-11.1-0.9-31-0.6-50-4.5c-31.5-6.4-55.9-23.5-62.4-57.2c-6.2-32,8.1-58,34.2-73.5
	c24.2-14.4,51.6-24.9,78.8-32.6c43-12.2,87.3-17,131.8-8c14,2.8,28.3,6.2,41.1,12.2c54.7,25.3,59.9,83.1,10.7,117.8
	c-40.8,28.9-88.1,38.4-136.6,43.5C2588.6,3326.6,2575.5,3326.6,2553.9,3327.6z M2484.3,3254.4c15,26.1,37.2,27,57.3,27.7
	c50.1,1.8,98.6-7.2,145-26.8c8.3-3.5,16.6-7.9,23.5-13.7c18.2-15.1,15-32.2-7.4-41.2c-7.2-2.9-15-5-22.7-5.7
	c-57.1-5.2-112.1,2.9-162.9,30.4C2504.5,3231.9,2495,3244.6,2484.3,3254.4z"/>
<path d="M1396.1,3327.3c-53.8,0.4-103.7-14.3-151.7-36.6c-10.5-4.9-20.6-11.8-28.9-19.8c-34.8-33.7-29-81.8,13.3-105.2
	c39.3-21.7,83.2-25.7,126.1-18.7c38.4,6.3,76.4,18.1,112.8,32.1c39.8,15.3,60.8,47.2,57.2,76.2c-4,31.8-32.1,57.4-74.3,65.7
	C1432.7,3324.6,1414.3,3325.3,1396.1,3327.3z M1479.2,3258.9c-4.4-25.9-19-35.1-34.5-42.2c-49.9-22.9-102.5-30.8-157-23.6
	c-8.9,1.2-18,4.3-25.8,8.6c-23.8,13-24.7,29.3-0.5,43.4c56.5,32.9,117.8,41.5,181.8,29.2C1455.3,3272,1466.5,3264.5,1479.2,3258.9z"
	/>
</svg>
