<?xml version="1.0" encoding="utf-8"?>
<!-- Generator: Adobe Illustrator 24.3.0, SVG Export Plug-In . SVG Version: 6.00 Build 0)  -->
<svg version="1.1" id="Layer_1" xmlns="http://www.w3.org/2000/svg" xmlns:xlink="http://www.w3.org/1999/xlink" x="0px" y="0px"
	 viewBox="0 0 4000 4000" style="enable-background:new 0 0 4000 4000;" xml:space="preserve">
<path d="M1983.1,859.5c207.2,2.6,421.9,22.9,631.3,83.4c41.8,12.1,82.8,27.6,123.4,43.2c74.2,28.5,124.4,81.1,148.1,156.9
	c8.3,26.6,22.3,38,49.7,44.7c121.6,30,237.1,76.3,344.6,140.7c56.7,34,110.2,72.3,148.3,128.8c24.3,36,41.9,74.5,49.8,116.6
	c7,37.5,10.5,75.8,13.7,113.9c1.3,15,5.1,24.9,18.3,34c59.7,41.4,114.6,88.2,161.6,144.2c32.5,38.8,58.4,81.2,77.9,127.6
	c28,66.3,31.4,134.5,11.2,203.2c-5.9,20-4.5,35.5,5.6,54c67.3,122.7,104.6,254,102.4,394.4c-1.4,89.7-22.5,175.3-72.7,251.4
	c-25.4,38.5-59.8,65.7-104.9,79.1c-39.2,11.7-76.1,7.6-110.6-13.5c-19-11.6-37.5-24.7-53.8-39.7c-69.2-63.9-146.1-117.3-225.2-167.8
	c-7.9-5-20.5-7.6-29.5-5.3c-75.5,18.8-145.7-0.1-214.2-29.3c-16.9-7.2-31.5-9.9-48.4-0.6c-32.3,17.8-68,24.1-104.4,26.8
	c-88.2,6.4-174.2-7.3-258.7-31.1c-19-5.4-33.5-4.5-50.1,8.1c-29.6,22.3-65.5,30.4-101.6,34.8c-57.1,6.9-114.2,13.8-171.5,18.2
	c-153,11.7-306.1,19.5-459.7,14.7c-133.2-4.2-265.9-14.6-397.1-38.3c-34.5-6.2-69-14.6-96.1-39.7c-13.1-12.1-27.9-6.5-42.4-3.5
	c-54.1,11.2-107.8,25.6-162.5,32.8c-72.4,9.5-144.8,7.1-212.5-25.9c-14.1-6.9-26.1-2.2-39.7,2.2c-38.3,12.6-77,24-115.9,34.5
	c-31.5,8.5-63.7,6.2-95-1.7c-16.2-4.1-28.4-1-41.8,7.6c-76,49.3-151.1,99.9-216.5,163.3c-11.4,11.1-24.5,20.6-37.4,29.9
	c-56.8,41-121.5,40.6-177.9-1.1c-44.4-32.8-71-78.9-91.6-128.5c-31.4-75.2-39.6-154.6-34.9-235.1c7.2-123.1,38.6-239.3,107-343.6
	c6.7-10.2,7.2-18.5,2.9-29.6c-36.6-93.5-20.7-182.3,28-266.5c52.2-90.2,127-159.7,211-219.4c17.3-12.3,24.5-24.3,25.9-46.3
	c2.6-42.3,8-85,17.7-126.2c17.8-75.3,60.9-134.7,123-181.2c91.4-68.4,193.8-115.3,299.6-155.4c45.7-17.3,92.9-30.6,140.1-43.6
	c14.6-4,20.4-11.1,25.5-24.2c10.4-26.6,20.8-53.9,35.7-78c31.5-51.1,80.1-81.2,135.7-101.2c115.6-41.6,234.7-68.9,356.1-86.7
	C1730.6,868.2,1851.7,861,1983.1,859.5z M1252.9,2226.8c5.2,17.6,9.5,31.8,13.7,46.1c27.7,93.9,51.9,189.2,93.7,278.2
	c44.5,94.9,49.7,106.3,166,124.6c116.9,18.4,235,24.5,353.3,27.7c206,5.6,410.9-5.3,615.1-33.2c38.7-5.3,69.6-22.3,87.1-57
	c21.5-42.6,42.8-85.8,59.1-130.6c54.1-148.3,90.8-301.6,121.9-456.1c27.6-136.7,47.6-274.7,59.4-413.9
	c9.3-108.4,14.7-216.7,5.2-325.4c-3.8-43.7-11-86.4-25.8-128c-14.8-41.6-41.3-72.4-81.8-88.9c-41.3-16.9-83.2-32.8-126.1-45.2
	c-176-50.9-356.2-73-539-78.9c-228.4-7.4-452.9,17.8-673.7,75.9c-44.1,11.6-87.2,27.6-129.7,44.4c-39.6,15.7-66.9,45.6-79.4,86.6
	c-8.6,28.4-16.4,57.4-20.7,86.8c-14.5,97.3-18.5,195.1-7.8,293.1c12.8,116.4,23.1,233.2,40.9,348.9
	c15.7,101.9,40.1,202.5,60.6,303.7c2.2,11,4.1,22,6.5,35.1c-15.3,0.9-26.6,1.6-37.8,2.3c0,1.2,0.1,2.5,0.1,3.7
	C1225.8,2226.8,1237.9,2226.8,1252.9,2226.8z M1292.3,2626c-164-442-250.3-892.9-235.7-1362.5c-96.5,31.6-190.7,65.2-278.6,113.3
	c-42.8,23.4-83.7,50.7-123.1,79.5c-45.6,33.4-72.1,80.9-82.5,136.2c-5.5,29.2-8.6,59-10,88.6c-3.9,84,13.3,165.4,35.6,245.5
	c41.2,148.4,103.7,288.2,176.5,423.6c45.5,84.6,96.8,165.2,157.9,239.5c26.7,32.5,60.5,52.6,101.4,62.4c35.8,8.5,71.8,8.1,107.9,4.8
	C1192.5,2652.4,1242.1,2641.6,1292.3,2626z M2913.9,1269c13,238.6-11,466.9-52.4,693.6c-41.4,227.1-91.5,452-188.2,664.8
	c11.3,3.9,19,7.7,27.2,9.2c42.9,7.7,85.7,16.4,128.9,21.9c92.4,11.7,169.9-14.3,227.4-91.7c62.9-84.8,118.5-173.8,165.2-268.6
	c57-115.7,108.9-233.5,145.5-357.4c29-98.4,48.2-198.1,36.8-302.1c-10.2-93.2-52.5-164.3-131.4-215.2
	c-75.7-48.8-156.8-85.8-241.2-116C2994.9,1294.1,2957.3,1283.1,2913.9,1269z M3485.9,1811.8c-65.3,309.1-197.7,581.8-378.3,834.9
	c55.8,19.8,108.7,34,165.2,8.1c51.8-23.8,99.1-53.9,141.3-91.9c70.1-63.1,129.5-135.5,180.9-214.4c36.2-55.5,66.1-114.1,85-178.1
	c15.3-51.5,12.5-101.2-9.7-149.5C3630.5,1934.3,3564.3,1870.8,3485.9,1811.8z M483.6,1815c-6.7,3.3-11.9,4.7-15.8,7.9
	c-59.6,48.6-115.5,100.8-154.9,168.1c-36.1,61.4-43.5,125.9-19.9,193.4c7.7,22.1,15.6,44.2,25.4,65.3
	c44,94.5,104.9,177.6,175.6,253.5c56.8,61,118.5,115.6,194.7,152.7c59.1,28.8,112.8,11,170.7-9.6
	C675.3,2394.1,547.8,2119.9,483.6,1815z M261,2327.1c-5.9,6.5-8.6,8.5-10.1,11.1c-3.1,5.5-6,11.3-8.4,17.2
	c-38.9,97-60.9,197.2-56.3,302.3c3.2,71.9,22.3,138.6,65.1,197.3c38.4,52.7,70.9,57.2,118.8,14.3C433,2813,499.7,2762,570.2,2715.8
	c6.5-4.3,11.8-10.5,18.8-16.9C446.4,2602.9,344.7,2474.8,261,2327.1z M3713.7,2330.2c-51.1,69.4-98.2,137.4-149.5,201.9
	c-51.5,64.8-114.1,118.8-185.7,167.3c29.9,20.6,57,37.1,81.7,56.6c48.5,38.1,95.8,77.7,143.3,116.9c39.6,32.6,62.6,32.7,99.7-2.6
	c11.4-10.9,22.8-23.2,29.6-37.2c13.3-27.6,26.8-55.9,34.1-85.4c25.1-100.4,17.3-200.5-9.4-299.6
	C3746.8,2408.2,3734.6,2368.6,3713.7,2330.2z"/>
<path d="M2488.7,2045.9c-0.6,63.6-54,115.5-117.5,114.2c-62.2-1.3-107.8-50.5-107-115.4c0.7-61.1,52.1-114.9,110.2-115.5
	C2437.9,1928.5,2489.3,1981.1,2488.7,2045.9z"/>
<path d="M1463,2047.7c1.4-66.9,51.3-117,115.1-115.6c63.1,1.4,110.9,52.1,110.3,116.9c-0.6,61.9-50.8,110.3-113.7,109.7
	C1510.8,2158.1,1461.7,2109.3,1463,2047.7z"/>
<path d="M2111.1,2194.7c4-32.4,7.2-57.4,10-82.5c0.8-7.4,0.4-14.9,0.9-22.3c0.7-9.5,0.6-20.4,13.8-21.3c13.4-0.9,22.1,5.7,25.7,18.9
	c21.2,77.7-34.9,186.4-111.8,216.4c-36.5,14.2-73.9,18.3-112.7,11.2c-94.6-17.2-137.6-99-145.3-168.7c-1.6-14.8-1.5-29.8-1.2-44.6
	c0.2-7.3,0.5-16.1,4.5-21.3c4.5-5.8,13-10.3,20.4-11.6c10.4-1.9,14.8,6.6,16,15.8c1.4,11.6,1.8,23.3,3.1,34.9
	c2.4,22.7,5.2,45.5,8.4,73.8c44.2-29.7,86.6-47,134.9-47.5C2025.7,2145.3,2062.8,2175,2111.1,2194.7z M2083.7,2231.9
	c-58.1-62.5-171-62.3-210.1-0.2C1916.6,2290.3,2024.7,2291.3,2083.7,2231.9z"/>
<path d="M1481.5,2309.5c-43.6-5.1-86.2-9.3-122.7-33.8c-14.3-9.6-26.8-24-35.8-38.8c-11.1-18.1-7.3-30.6,8.2-45.5
	c18.4-17.6,40.8-26.3,66.1-27.7c50.9-2.7,99,8.4,144.9,29.9c5.7,2.7,11.2,6.1,16.2,10c34.6,27.5,30.8,72.4-9.7,89.8
	C1527.9,2302.4,1504,2304.4,1481.5,2309.5z M1356.8,2227.2c34.2,35,110.3,53.7,158.6,39.8c11-3.2,26.3-5,25.4-19.1
	c-0.5-8.3-11.1-16.5-18.4-23.5c-4.4-4.2-11-6.4-16.9-8.8c-37.6-14.7-76.7-16.8-116.3-13.3
	C1374.6,2203.6,1363.4,2211.1,1356.8,2227.2z"/>
<path d="M2476.1,2310.8c-20.6-5.6-44.3-8.6-64.8-18.3c-31.5-14.9-37.2-50.9-15-77.8c6-7.2,13-14.7,21.2-18.9
	c50-25.6,102.4-41.9,159.2-31.7c14.1,2.5,28.5,9.1,40.5,17.2c31.7,21.3,34.8,51.1,5.7,76.5c-17.1,14.9-38.6,26.8-60.1,34.2
	C2536.1,2301.2,2507.3,2304.4,2476.1,2310.8z M2465.5,2269.7c47.8-2.3,87.3-9.4,122.6-31.1c6.4-3.9,14.1-12.6,13.7-18.5
	c-0.4-6.3-9.2-12.9-15.6-17.5c-4.9-3.5-11.8-5.2-18-5.6c-42.1-2.7-82.4,5.3-120.1,24.2c-6.4,3.2-12.1,8.8-16.9,14.3
	c-11.2,12.6-8.9,23.9,6.9,29.4C2448.9,2268.6,2460.9,2269,2465.5,2269.7z"/>
</svg>
