<?xml version="1.0" encoding="utf-8"?>
<!-- Generator: Adobe Illustrator 24.3.0, SVG Export Plug-In . SVG Version: 6.00 Build 0)  -->
<svg version="1.1" id="Layer_1" xmlns="http://www.w3.org/2000/svg" xmlns:xlink="http://www.w3.org/1999/xlink" x="0px" y="0px"
	 viewBox="0 0 4000 4000" style="enable-background:new 0 0 4000 4000;" xml:space="preserve">
<path d="M2051.3,3471.9c-243.3-0.6-452.2-12.3-659.8-41.7c-211.1-30-418.6-74.9-616.2-158c-112.8-47.4-217.4-108.1-310.9-187
	c-157.4-132.9-251.3-302.5-288-504.5c-29.5-162.3-27.6-324.4,3.3-486.2c71.9-375.7,261-680.3,558.1-919.5
	c110.2-88.7,231.6-160.9,349.5-238.2c52.2-34.3,104.5-68.4,155.6-104.2c79.8-55.9,138-129.1,172.6-220.7c4.9-13,10.6-25.6,16.4-38.2
	c48.2-104,146.2-150.7,257.8-122.5c24.6,6.2,49.2,13,73.5,20.2c29.5,8.7,53.5,2.8,74.8-20.9c47.2-52.7,107.3-77.8,177.3-66.1
	c35.6,6,71.4,20,103.2,37.4c23.4,12.8,39.1,11.9,59.7-1.8c68-45.1,141.1-54.6,218.3-27.4c50.2,17.7,87.4,51.5,113.7,96.9
	c13.9,23.9,26.1,49.1,36.3,74.8c43.2,108.4,113.3,196.3,206.9,264.1c95.4,69.1,193.5,134.6,291.4,200.3
	c115.5,77.4,227.2,159.4,326,257.7c148,147.4,258.4,319.5,335.6,513.1c81.3,203.9,116.9,415.6,105.2,634.8
	c-5.4,100.8-22.2,199.8-53.8,296c-61.8,188.2-182.3,329.8-345.3,438.2c-146.3,97.3-308.9,156.3-477.5,200.2
	c-143.4,37.3-289.4,60.1-436.5,77.7C2338.8,3465.2,2178.3,3470,2051.3,3471.9z M2340.8,566.2c-27.2,10.7-45,4-62-2.5
	c-42-16.2-85-30.9-125.1-51.1c-52.3-26.2-100.5-21.1-147.7,9c-27.2,17.4-53.7,36.2-79.3,55.9c-70,53.7-148.3,72.6-235.1,58.9
	c-14.8-2.3-30-3.8-44.9-3.4c-8.5,0.2-18.9,2.8-25,8.2c-63.5,56.1-136.2,99.2-205.5,147.3c-156.9,108.6-316.1,213.5-476.6,316.6
	c-177.4,113.9-334.3,251-458,424.1c-85.4,119.5-154.4,247.1-199.1,387c-55.1,172.5-79.2,349.2-65.3,530.3
	c9.2,119.7,34.2,235.7,88.5,343.8c67.7,134.7,170.1,238.2,294.6,320.7c148.3,98.3,312.7,158.8,483.9,201.9
	c237.6,59.9,480,86.7,724.1,95.5c273.1,9.8,545.7,1.8,816.6-39.4c152.2-23.2,302.3-54.7,447.9-105.9
	c130.5-45.9,254.4-104.2,365.4-188.1c164.6-124.5,263-289.4,298.7-491.6c29.3-165.7,24.4-331.6-7.2-496.7
	c-50.2-262.8-164-494.6-341.4-694.9c-109.7-123.9-238.9-224.6-376.4-315.6c-94.5-62.5-188.5-125.9-281-191.2
	c-103.3-72.9-182-166.5-230.4-284.6c-12.2-29.8-27-59.1-44.2-86.3c-38.1-59.9-108.8-88.4-177.9-72.9c-26.7,6-52.7,15.8-71.4,39.9
	C2243.5,520.2,2300.6,525.1,2340.8,566.2z M1426.1,724.2c2.8,2.7,5.5,5.4,8.3,8c41.7-26.4,83.9-52.2,125-79.6
	c15.5-10.3,29.8-20.9,49.5-22.6c8.2-0.7,19-5.1,23.3-11.5c8.8-13.1,20.3-13.8,33.2-13.2c15,0.6,30,1.4,45,2.4
	c79.9,5.2,150.2-16.5,209.4-72.1c30.3-28.5,63.2-54,102.6-69.6c6.7-2.7,13-6.5,23.5-11.8c-54.8-20.8-101.4-16.9-144.1,17.4
	c-9,7.2-18.2,14.4-26.2,22.6c-31.1,32.1-69.1,40.2-111.3,32.1c-28.3-5.4-56.2-12.8-84.2-19.5c-62.5-14.9-115.7,0.5-161.5,46
	C1470,601.4,1455.9,666.7,1426.1,724.2z"/>
<path d="M1301.2,2592.6c0-78.4,59.9-140,136.4-140.5c77.6-0.5,140.8,62.7,140.9,140.8c0.1,75-63.1,136.2-140.9,136.6
	C1363.6,2730,1301.2,2667.2,1301.2,2592.6z"/>
<path d="M2417.4,2589.1c1.7-76.9,65.6-139.2,140.7-137.3c74.6,1.9,138.5,69.2,135.8,142.9c-2.7,75.5-66.2,137-139.3,135.1
	C2477.5,2727.7,2415.8,2664.5,2417.4,2589.1z"/>
<path d="M1998.6,2879c-80.6-3.6-144.4-36.8-179.4-112.8c-10.3-22.3-12.5-48.8-15.9-73.7c-1.5-11,2.4-23.2,17.8-25.2
	c16.4-2.1,23.1,6.6,25.5,21.1c0.9,5.7,2.1,11.4,3.1,17c20.1,111.8,152.4,158.1,247.7,87.8c23.2-17.1,38-39.9,43.2-68.6
	c2.3-12.5,5.1-24.9,7.1-37.4c2.1-13.3,8.5-20.9,23-20.1c16,0.9,23,10.8,22.6,25c-0.8,31.4-5.4,62.2-21.4,90
	C2133.7,2848.5,2074.1,2877,1998.6,2879z"/>
<path d="M2116,690c3.6,75,5.2,147.5,11.1,219.7c5.8,71.5,20.3,141.7,41,210.7c21.1,70.1,48.3,137.7,87.7,199.3
	c38.2,59.7,80.4,116.9,121.1,175.4c-14.4,12.2-23.5,4.6-30.9-4.6c-30.3-37.9-63-74.3-89.6-114.6c-88.8-134.7-139.1-284.2-156.1-444
	c-7.4-69.9-6.1-140.7-7.8-211.2C2092.1,706.8,2090.6,689,2116,690z"/>
<path d="M1844.1,813.5c10.3,22.8-0.3,36.2-8.2,49.7c-26.4,44.7-54.2,88.6-79.7,133.8c-92.1,163.3-134.4,337.7-114.9,525.6
	c1.3,12.3,1.7,24.7,2.5,38.1c-20.8,2.8-23.7-9.6-24.5-22.4c-3.5-50.5-10.7-101.2-8.8-151.6c6.5-171.9,70.4-325.3,159.2-469.9
	c15.7-25.6,31-51.4,47.7-76.3C1823.9,830.9,1833.9,823.7,1844.1,813.5z"/>
<path d="M1265,2780.9c32.2,6.8,63.6,13.2,94.9,20.2c6.6,1.5,13.1,4.8,18.9,8.5c23.8,15.4,46.7,32.5,43.8,65
	c-2.8,31.3-24.3,48.5-51.8,59c-66.1,25.3-133.1,25.9-199.9,3.9c-32.3-10.7-59.9-29.9-60.7-67.4c-0.8-38.5,29.2-57,60-67.9
	C1200.1,2791.6,1232.6,2787.9,1265,2780.9z M1273.9,2814c-40.9,5-76,5.9-106.6,25c-11.9,7.4-24.5,15.9-23.2,31.8
	c1.3,16.2,12.4,26.7,27.2,33c5.3,2.2,10.6,4.7,16.1,6.3c54.8,15.2,109.6,14.8,163.8-2.6c10.7-3.5,21-9.9,29.9-17
	c14.7-11.6,15.9-24.9,2.3-38.2c-8.8-8.7-19.9-17.1-31.5-20.4C1324.4,2823.9,1296,2818.9,1273.9,2814z"/>
<path d="M2730.8,2779.8c31.2,7.4,62.4,14.4,93.4,22.5c7.6,2,14.7,6.6,21.4,11c21,14,38.5,31.4,36.8,58.7
	c-1.8,28.3-20.2,46.5-44.9,56.8c-70.1,29.3-141.3,31-212.8,5c-8.6-3.1-16.8-7.8-24.4-13c-35.5-24.8-38.6-64.9-6.8-94.3
	c30.4-28,68.9-36.1,108.3-40.8c9.1-1.1,18.5-0.2,27.7-0.2C2730,2783.6,2730.4,2781.7,2730.8,2779.8z M2720.1,2922.8
	c32.4-4.9,56.5-7.7,80.2-12.6c10.9-2.3,21.8-7.7,31.2-13.9c23.1-15.5,24.2-35.8,2.6-53.4c-8.7-7.1-19.6-12.5-30.4-15.7
	c-17.6-5.3-35.7-10.3-53.9-11.7c-40.8-3.2-80.7,3.1-117.8,20.8c-14.8,7-27.8,18.3-27.3,36.9c0.4,18,15.2,26.4,29.2,30.3
	C2664.5,2912,2696.2,2917.6,2720.1,2922.8z"/>
<path d="M1042.9,1357.8c-7.1-17.9,4.8-31.1,12-44.1c30.5-54.8,69.5-103.6,111.9-149.6c73.5-79.8,162.4-140.3,251.6-200.5
	c42.1-28.4,83.2-58.4,125-87.3c8.9-6.1,19-10.5,30.1-16.5c8.8,19.3-1.8,28.5-10.8,36c-24.9,20.6-50.4,40.6-76.6,59.5
	c-75,54.1-152,105.4-225.2,161.8c-76.7,59.1-137.4,133.4-188.2,215.9C1066,1343.8,1063,1360,1042.9,1357.8z"/>
<path d="M2848.7,1296c-15.1-5.1-26.3-6.8-35.4-12.3c-142.9-86.1-272.2-188.2-362.5-331.1c-30.6-48.3-51-103.2-75.2-155.4
	c-5.6-12.1-9.2-25.9,6.1-42.7c6.6,11.5,12.9,19.2,15.9,28c54.6,157.4,159.1,277.1,287.8,377.6c43.6,34.1,90.7,63.6,135.8,95.7
	C2832.5,1264,2849.4,1268.3,2848.7,1296z"/>
</svg>
