<?xml version="1.0" encoding="utf-8"?>
<!-- Generator: Adobe Illustrator 24.3.0, SVG Export Plug-In . SVG Version: 6.00 Build 0)  -->
<svg version="1.1" id="Layer_1" xmlns="http://www.w3.org/2000/svg" xmlns:xlink="http://www.w3.org/1999/xlink" x="0px" y="0px"
	 viewBox="0 0 4000 4000" style="enable-background:new 0 0 4000 4000;" xml:space="preserve">
<path d="M1235.1,3456.3c-107-0.6-210.2-24.1-311.7-54.4c-156.3-46.6-308.4-105.3-457.2-172.2c-54.3-24.4-109.5-47.2-162.9-73.4
	c-21.4-10.5-41.3-26.1-58.4-43c-50-49-71.9-111.2-49.4-176.8c21.5-62.4,13.3-117.9-6.9-176.6c-24.2-70.3-40.6-143.2-45.9-217.4
	c-8.9-123.5,25.8-230.1,136.5-298.3c69.3-42.7,141.3-81.1,213.7-118.4c64-33,123.1-72.2,181.4-114.7
	c99.2-72.2,202.8-138.7,307.1-203.5c116.7-72.5,236.2-140.6,354.7-210.3c13-7.6,24.4-15.5,27.7-31.6
	c27.5-132.1,102.1-236,201.1-322.5c186.2-162.8,401.5-264,648.7-291.1c52.9-5.8,107-3.7,160.4-2.1c25.8,0.8,46-5.4,67.6-19.7
	c66.8-44.5,134.9-87,203.5-128.6c19.5-11.8,42-19,63.8-26.5c30.5-10.5,59.4-6.9,87.1,11.2c9.2,6.1,22.8,11,33.1,9.2
	c87.9-15.7,174.6-8.7,260.5,12.1c190.4,46.1,348.8,145.6,479.3,290.5c73.9,82,133.8,173.1,174.9,276c31.5,78.7,37.8,160.6,30.6,244
	c-1.3,15.5-5.9,31.1-11.1,45.9c-5.8,16.5-3.3,28.2,13,36.2c7.6,3.7,14.9,8.3,21.8,13.2c32.7,23.2,39.4,56.1,15,88.2
	c-13.1,17.2-29.8,32.2-46.7,45.8c-68.2,55-136.4,110-205.8,163.3c-152.4,117.2-304,235.4-458.8,349.4
	c-178.3,131.3-358.3,260.3-539.7,387.3c-300.2,210.1-608.9,406.8-933.5,578c-78.8,41.6-159.3,77.9-242.8,108.4
	C1337,3451.7,1286.6,3457.2,1235.1,3456.3z M350.4,2702.1c-27.2,12.9-48.1,33.1-62.9,58.8c-31.6,55.2-6.3,104,55.6,108.9
	c9.7,0.8,19.6,1.1,28.9,3.4c21.9,5.5,31.6,23.9,22.9,44.8c-3.1,7.3-9.8,13.5-16,19.1c-9,8.1-13.5,16.1-7.8,28.6
	c16.9,37.5,46.6,59.3,85.9,65.9c36.1,6.1,73.5,9.5,96.1-30.6c2.3-4.1,6.3-7.4,9.8-10.7c29.5-27.8,57.4-29.1,86,0
	c26.6,27,60.2,24.9,92.4,33c3.7-31.7,2.6-41.5-15.2-60c-24.9-26-51.7-50.1-79.4-76.6c-17.6,27.3-43.3,30.9-71.1,28.6
	c-9.7-0.8-19.5-0.9-29-2.3c-64.7-9.8-96.6-53.9-86.1-119.2c2.5-15.6,5.5-31.1,9.1-46.5c9.5-40.1,19.4-80.2,29.2-120.3
	c6.8-28,4.8-34.2-23.7-42.4c-20.7-5.9-42.7-9.2-64.2-9.2c-23.8,0-41.5,11.9-45.8,38.2c-4.9,29.9-10.5,59.7-15.8,89.6L350.4,2702.1z
	 M3265,1670.3c21.4-12.3,39.7-1.6,57.9,3c121.5,30.6,242.3,63.4,356.4,116.8c41.2,19.3,61.6,11.6,84.4-35.2c-2.9-1.7-7-4.3-11.2-6.7
	c-9.6-5.2-18.9-11.3-29-15.3c-124.5-49.4-251.1-93.5-383-118.1c-129-24.1-258.9-44.2-388.8-63.5c-62.5-9.3-125.7-13.7-188.8-18.3
	c-30.1-2.2-35.6,4.2-44,38.3c59.2,7,118.1,13.1,176.8,21.1c59.2,8,119.1,13.8,175.4,38.6c-6,6.1-12.1,10.5-17.7,9.9
	c-18.1-1.7-36-5.7-54.1-8c-90.5-11.1-181-21.8-271.5-32.8c-23.5-2.9-40.8,3.6-56.7,23.4c-71.8,89.7-161.9,157.4-262.4,211.8
	c-106.6,57.8-219.4,98.5-338.8,120.4c-33.1,6.1-33.2,7.1-37.9,38.3c-8.2,54.1-14.3,108.6-24.5,162.4c-15.7,82.4-34,164.3-51.8,246.3
	c-2.6,11.9-3.8,26.3-20,33.3c-9.6-19-0.5-35,2.4-50.7c22.7-124.3,46.3-248.5,69.1-372.8c2.5-13.8,2-28.1,2.9-42.2
	c-55.2-1.9-55.1-0.3-64.1,47.7c-21.3,113.6-42,227.3-67.1,340c-37.8,170-92.3,335.4-148.7,500c-38.3,111.7-85,220.2-144.7,322.6
	c-25.5,43.7-51.1,87.3-78.4,134.1c43.2-13.3,76.2-34.6,100.7-70.3c49.2-71.8,83.1-151.3,118.6-229.9c20-44.3,37.4-89.8,56.4-134.6
	c4.9-11.4,8.2-25.5,31-26c-41.6,133.8-100.7,256.7-162.2,380.4c15.2-2.7,28.4-7.5,40.4-14.1c38.3-21.2,75.8-43.8,114.3-64.7
	c163.8-88.9,321.9-187.5,475.5-292.5c222-151.8,441.7-306.9,660.7-462.8c249.9-177.9,494-363.5,730.3-559.1
	c5.1-4.3,8.9-10.2,14-16.2c-5.7-4.6-9-8.4-13.2-10.5c-12-5.9-24.1-11.8-36.5-16.5c-111.4-42.4-223.7-82.3-341.3-104.6
	C3283.8,1690.8,3268.1,1691.5,3265,1670.3z M1897.6,1979.3c-10.2-2.2-13.7-3.7-17-3.5c-111,6.2-218.4-8.4-321-53.2
	c-10.6-4.6-23.8-6.2-35.4-5c-119.7,12.6-239.3,25.2-357.8,47.5c-292.1,54.8-568,152.3-822.9,306.3c-21.8,13.2-42.9,27.8-63.2,43.2
	c-45.9,35-70.5,81.9-78.6,139c-8.5,59.1,2.4,116.5,12.4,173.9c5.1,29.3,14.8,57.8,23.4,90.4c29.9-22.6,49.3-45.9,59.4-74.7
	c12.8-36.7,19.9-72.8-22.1-99.8c-21.1-13.6-29.6-38.5-32.1-63.4c-5.1-51,34.4-123.9,81.7-145.1c31.9-14.3,65.8-28.8,99.9-32.7
	c58.9-6.8,119-10.1,178.1-6.6c120.8,7.1,234.3,40.8,336.4,108.3c164.7,109,294,249.8,385.4,425.4c44.7,85.8,84.7,173.1,93.5,270.7
	c2.8,30.8,0.3,63.6-7.2,93.5c-11,43.9-20.8,48.2-66.4,49.6c-3.6,0.1-7.5-0.2-10.9,0.9c-43.8,14.7-86.8,6-129.3-5.1
	c-32-8.3-58.8-5-83.7,19.5c-26.2,25.8-59.6,36.9-96.6,35.8c-41.5-1.2-78.5-15.2-111.5-40.1c-15.6-11.7-30.5-24.3-46.6-35.2
	c-25.4-17.2-52.3-24.7-82.6-11.7c-19,8.2-38.3,16.3-58.3,20.7c-17.2,3.8-36,5.6-53.2,2.8c-50.9-8.4-83.5-41.8-107.5-85.3
	c-11-19.9-22.1-39.8-32.9-59.3c-15.4,2.2-27.3,4.1-39.3,5.7c-87,11.1-153.3-32.9-176.3-117c-2.9-10.6-5.1-21.3-8.2-31.8
	c-4.2-14.7-10.5-28.9-28.7-27.7c-18,1.2-22.8,16.4-25.6,31.1c-9.6,50.2,0.1,95.5,41.3,128.3c22.6,18,48.3,32.9,74.4,45.5
	c113.9,55.1,229.6,105.5,348.7,149c121.3,44.4,243.7,83.7,370.3,109.1c74.2,14.9,149.2,24.9,224.7,11.4c24.8-4.4,49.1-13,72.7-22.1
	c13.3-5.1,25.7-14.4,23.4-36c-11.1,1.2-21.5,2.7-31.9,3.5c-37.5,3.1-75,6.9-112.5,8.7c-15.7,0.8-32-2.2-35.6-26.6
	c22.5-2.3,44.3-2.6,65.2-7.2c35.4-7.8,73-12.9,104.6-28.9c63.7-32.3,114.7-78.8,148.5-145.2c78-153.5,139.1-313.4,191-477.1
	c53.3-168.2,97.4-338.9,129.8-512.4C1877.7,2091.7,1887.3,2036.8,1897.6,1979.3z M1847.4,1926.2c67.4-8.5,135.3-14.5,202.2-26
	c179.6-31,341.5-103.4,483.9-217.1c72-57.5,131.8-126.4,173.1-209.5c74.5-150.1,41.8-315.9-122.9-405.9
	c-67.4-36.9-140.7-53.6-216.5-59.2c-144.6-10.8-283.2,16.5-417.5,68.8c-150.5,58.7-284.8,142.9-397,259.5
	c-61.3,63.6-110.9,136.1-131,224.3c-21.3,93-3.3,176.7,66.3,245.2c41.4,40.7,90.7,69.4,146.4,86.1
	C1703.6,1912.8,1774.4,1922.6,1847.4,1926.2z M2769.4,1474.9c6,2.5,9.2,4.8,12.6,5.1c20.6,1.8,41.3,2.5,61.8,4.8
	c177.6,19.6,355.4,38.9,529.5,80.7c94.4,22.7,187.7,50.1,280.7,78c49.5,14.9,59.2,10.7,63.8-42.2c0.6-7.3,1-14.6,1.1-21.9
	c1.1-90.6-19.9-175.9-62.5-255.9c-71.1-133.6-171-242.1-293.8-329C3215,890.2,3051.3,836.7,2869,846.9c-54.2,3-57.4,4.8-64.1,57.3
	c-10.5,82-21.2,164-29.4,246.3c-2.3,23.4,0.4,48.6,6.6,71.4c14.1,51.4,19.1,102.8,9.3,155.2
	C2785.4,1409.1,2777.2,1440.7,2769.4,1474.9z M674,2760c12.2,0,23,0.7,33.7-0.1c39.5-3.2,70.5,12,97.4,40.2
	c34.9,36.7,56,78.9,59,129.8c1.9,32.6,2.3,32.7,35.5,38.3c8.4,1.4,17.6,0.4,25.2,3.6c12,5,27,9.8,33.5,19.6
	c36.3,54.5,51.7,98.5-33.9,133.4c-10.1,4.1-20.8,6.8-31,10.8c-7.3,2.8-14.2,6.6-24.6,11.6c23.1,16.2,42.6,30.1,62.3,43.6
	c12,8.2,24.2,16.4,36.8,23.7c45.4,26.4,90.2,25.8,125.4-13.9c24.6-27.7,55.6-35.9,92.7-26.5c31.6,8,64.4,11.7,96.8,16.4
	c19.7,2.8,36-4.9,47.1-21.5c22.8-34,24-70.8,11.5-108.3c-5.5-16.4-20.2-18.1-30.3-4c-4.8,6.7-7,15.3-9.8,23.3
	c-2.9,8-3.9,16.8-8,24.1c-2.4,4.3-9.3,9-13.7,8.6c-4.7-0.4-11.1-5.9-12.7-10.5c-2.6-7.8-3.4-16.9-2.2-25
	c4.4-30.7,12.9-59.5,40.7-78.4c5.6-3.8,9.2-10.4,15.3-17.5c-8.2-8.6-15.2-15.9-21.3-22.3c-25.4,8.5-35.5,26.3-42.9,46
	c-9.8,26.2-19.1,52.5-28.2,79c-14.3,42-45.9,63.9-86.4,76.5c-26.6,8.3-48.6,0.5-65.9-19c-11.1-12.5-21.8-27.3-26.7-42.9
	c-9.5-29.9-18.7-60.9-20.5-91.8c-1.6-28.2-11.4-46.1-32.3-64.4c-25.3-22.2-47.4-48.9-67.2-76.3c-19.4-26.9-29.7-58.4-26.3-92.9
	c3.8-39.3,32.5-61.4,70.5-54.3c29.3,5.5,49.9,23.9,68.3,45.6c8.2,9.7,16.2,19.5,29.6,35.5c4.6-63,15.5-114.8,52.7-158.9
	c-17.2-17.6-32-33.5-47.7-48.6c-16.4-15.8-33.5-30.7-53.5-48.9c-9.7,24.3-19.3,48-30.7,76.4c20.2-2.4,34.1-4,48.2-5.7
	c15.5,21.5,15.8,41.1-1.3,64.2c-10.8-5.5-23.6-8.5-31.1-16.5c-14.6-15.5-30.6-15.9-49.8-14.3c-37.5,3.1-75.3,6.2-112.9,4.9
	c-36.8-1.3-69.9,6.7-100.9,25.3c-15.6,9.4-30,20.9-46,29.6C679.2,2717.8,670.6,2732.9,674,2760z M1349.3,1657.5
	c-121.8,69.1-241.4,142.3-359.7,217.1c137.7-24.6,275.4-49.1,411.5-73.4C1384.4,1754.9,1367.7,1708.6,1349.3,1657.5z M1238.4,2799.4
	c-7.6,16.1-11.6,23.5-14.7,31.2c-18.6,46.4-46.7,82.8-93.3,106.5c-50.3,25.6-60,52.1-48.8,107.7c5.1,25.6,14.5,51.6,43.5,56.8
	c29.5,5.3,42.8-19,53.4-40.9c14.2-29.4,26.9-59.7,38.2-90.3c12.1-32.5,29.5-55.6,68.6-50.8c1.3,0.2,2.9-3,7.1-7.5
	C1276,2877.9,1258.9,2842.2,1238.4,2799.4z M825.4,1985.2c208.4-57.5,419.6-94.9,634-120.7c-15.9-36.4-22-42.7-55.3-38
	c-82.7,11.7-166.9,14-248,36.6c-77.2,21.5-154.9,41.5-231.8,64.2C887.2,1938.2,852,1954.4,825.4,1985.2z M531,2557.4
	c18.1-5.7,34.9-11.9,52.2-16c16.3-3.9,33.1-5.5,49.6-8.1c-10.6-8.7-20.9-10.6-31.2-12.5c-32.1-6.1-64.8-10-96.2-18.7
	c-45.5-12.6-62.1-37.5-62.7-83.6c-0.3-18.6-2.5-37.2-3.9-56.9c-55.4,7.5-96.7,29.8-126.7,71.6c-18,25-17.4,41.6,0.2,66.1
	c16.2,22.6,35.4,34.6,64.9,27.8c45.3-10.5,91.1-8.8,137.3-4.1C520.1,2534.5,525.2,2545.2,531,2557.4z M646.7,2582.6
	c-14.9,1.7-25.5,3.7-36.1,4c-33.4,0.9-54.5,19.7-66.7,48.3c-25.1,59.1-30.9,122.2-32.9,185.5c-0.8,25.7,25.2,43.9,60,47.4
	c23.2,2.3,35.4-6.4,41.8-35.4c5.2-23.6,6.6-48,9.9-72.1C630.4,2702.6,638.3,2645,646.7,2582.6z M878.5,2579.1
	c-20.5-13.5-17.7-29.2-14.7-42.3c6.7-29.4,15.3-58.4,24.5-87.1c4.8-14.9-0.5-23.4-12.9-29.4c-10.9-5.2-23-6-28.1,6.7
	c-17.8,44.3-31.8,89.8-16.5,137.8c7.3,22.8,24.4,34.7,49.3,36c58,3.2,104.3-42.5,99.6-100.1c-0.5-6.4-4.7-14.2-9.7-18.3
	c-14.7-12.1-30.4-23.3-55.1-25.1C902.8,2497.9,891,2537.3,878.5,2579.1z M2727.6,1111.4c8.4-95.8,26.4-188.7,31.4-283.4
	c-53.1-0.9-61.4,6.9-66.7,52.7c-5.3,45.7-12.3,91.2-18.6,136.8C2667,1064.5,2677.7,1084.2,2727.6,1111.4z M2673.3,859.4
	c-3.1-1.9-6.3-3.8-9.4-5.7c-56.7,37.9-113.4,75.7-172,114.9c54.5,23.3,105.8,45.2,160.9,68.7
	C2659.8,976.5,2666.6,917.9,2673.3,859.4z M732.1,3157.4c-10.8-8.3-17-13.4-23.5-18c-23.8-16.9-34.5-39.4-33-68.8
	c2.7-54.2-7.8-62.6-60.3-50.1c-3.5,0.8-7,2.1-10.4,3.4c-22.9,8.3-28,16.3-18.6,38c9.1,21.1,20.1,41.7,32.9,60.7
	C647.9,3165.8,673.1,3173.7,732.1,3157.4z M675.2,2818.5c0,41.1,7.2,54.5,38.8,74.3c7.1,4.5,13,10.9,19.9,15.8
	c27.1,19,54.5,37.8,88.7,61.5c-8.1-44.4-15.9-78.6-33.4-109.2C764.2,2817.2,719,2801.3,675.2,2818.5z M497.1,2409.8
	c10.6,27.9,11.7,34.1,29.2,40c25.9,8.7,54,18.2,80.4,16.5c60.6-4,119.6-18.8,174.9-45.3c7.9-3.8,14.3-10.8,21.4-16.3
	c-24.4-29.9-40.7-34.9-71-21.3c-29.9,13.4-58.6,29.2-88.6,42.3c-43.6,19.1-86.9,20.8-128.1-7.5
	C511.5,2415.5,506.8,2414.2,497.1,2409.8z M954.3,2767.9c2.1,17.2,1.7,29.1,5.3,39.8c12.2,36.4,32.9,67.5,61.7,92.9
	c27.9,24.6,50.7,20.1,75-16.3C1046.7,2852.3,1022.9,2789.2,954.3,2767.9z M698.5,2600.3c-10.1-15.4-19.2-29.3-28.3-43.2
	c-1.3,0.9-2.7,1.9-4,2.8c2.4,24.7,4.8,49.4,7.3,74.4c34.5-10,67.5-19.5,100.6-29.1c-1.5-6.6-1.6-10.5-3.2-13.6
	c-10.7-21.2-17-40.9-1.6-64.5c8.3-12.7,7.3-31.3,10.7-48c-36.8,12.8-70.1,24.4-103.9,36.1c17.7,22.1,52.3,19.8,62,48.7
	C724.5,2576.3,712.5,2587.4,698.5,2600.3z M1111.2,2867.5c2.9,1.9,5.7,3.8,8.6,5.7c10.9-8.6,24.7-15.3,32.2-26.3
	c14.3-20.8,27.1-43.1,36.8-66.4c18.2-43.7,11.6-58.6-35.4-86.6C1130.3,2750.3,1115.1,2807.5,1111.2,2867.5z M695.5,2364
	c-65.4-14.8-130.3-30.1-198.6-14.8c14.5,39.1,44.7,58.1,86.9,56.4C624.6,2404,659.9,2386,695.5,2364z M934.1,3040.2
	c-29.5-32.2-50.4-35.5-79.1-16.8c-14.2,9.2-28.7,18.1-43.3,26.8c-30.8,18.2-62.4,32.4-99.2,17.4c-1.1-0.5-3.6,2.4-5.4,3.8
	c14.5,36.6,36.9,46.9,69.1,32.5c23.2-10.4,46.9-19.9,70.5-29.4C874.4,3063.3,902.4,3052.6,934.1,3040.2z M925.2,3074.7
	c-52.1,14.6-96.1,27-140,39.4C834.9,3118.9,888.9,3104,925.2,3074.7z M788.2,3008.8c2.5,2.2,4.9,4.4,7.4,6.5
	c12.1-3.1,24.3-6.1,15.3-30.7C801.3,2994.9,794.7,3001.9,788.2,3008.8z"/>
<path d="M1003.5,777.8c8.8,3.3,27.3,7.1,42.3,16.3c61.4,37.6,101.5,93.2,126.6,159.8c6.9,18.3,10.4,38.8-5.2,55.1
	c-16.2,16.9-38,17.5-57.9,10.5c-62.7-22.2-118.7-55.7-162.6-106.9c-17.2-20.1-25.6-44.1-23.4-70.9
	C926.4,804.2,957,776.8,1003.5,777.8z M1139.3,983.3c-4-14.9-5-24.7-9.1-32.8c-22.7-45-55.1-82.5-92.4-115.9
	c-7.9-7.1-18.2-12.7-28.4-15.7c-31.2-9.5-55.1,12.7-44.8,43.4c5.5,16.4,15.8,34.7,29.4,44.3c37.5,26.3,77.8,48.6,117.5,71.8
	C1117.1,981.6,1125.1,980.9,1139.3,983.3z"/>
<path d="M923.5,1366.6c-32.7-3.2-58.2-4.8-83.3-8.6c-12.9-2-26.1-6.4-37.7-12.4c-29.7-15.2-44.8-40.6-43.1-73.9
	c1.7-32.6,21.1-54.9,50.5-64.7c20.1-6.6,43.2-9.6,64.1-6.9c52.2,6.6,101.1,24.9,145,54.5c10.8,7.3,20.8,16.9,28.4,27.5
	c19.7,27.3,9.6,60.5-23.4,68.6C989,1359.4,952.5,1362.3,923.5,1366.6z M1024.7,1311.2c-14-14-20.7-23.9-30-29.4
	c-40.2-23.8-83.7-39.1-130.1-44.8c-12.8-1.6-26.7,1.2-39.3,4.6c-16.8,4.6-27.1,17.1-27.1,34.8c0,17,8.7,30.2,24.9,37.1
	c6.7,2.9,13.7,5.9,20.8,6.7C900.8,1326.6,957.6,1326.7,1024.7,1311.2z"/>
<path d="M1807.2,569c-3.8,30.1-6,60.5-12,90.2c-3.8,18.8-11.5,38.4-35,42c-22.5,3.4-41.4-4.7-53.8-23.5
	c-42.3-64.3-70.4-133.7-64.1-212.3c4.2-52.9,43.5-82.8,88.7-72.1c21.7,5.2,35.8,19.3,46.9,37.7
	C1798.5,465.2,1806.7,506.6,1807.2,569z M1744,670.4c10-14.5,14.1-18,15.1-22.3c13.3-60.3,14.6-120.7-3.8-180.1
	c-8.9-28.9-27-42.5-45.6-39.1c-18.9,3.4-29.5,21-29.6,52.3c-0.2,58.8,18.1,112.3,47.9,162.3C1732.2,650.8,1736.5,658,1744,670.4z"/>
<path d="M2995.1,1967.7c-0.4,48.9-34,81.4-83.7,81c-46.8-0.3-83.4-38.7-83.5-87.7c-0.1-43.7,38.5-88,76.5-87.9
	C2955.2,1873.4,2995.5,1915.4,2995.1,1967.7z"/>
<path d="M2350.7,2266c45.4-0.1,87,42.4,88.1,89.9c0.9,42.1-41.6,83.5-85.1,82.8c-42.4-0.7-80.7-42.1-80.9-87.6
	C2272.6,2306.5,2309.5,2266.1,2350.7,2266z"/>
<path d="M2666.8,2360.9c-27.5-1-60.6-24.9-84.9-62.8c-5.9-9.2-11.5-21-0.5-29.7c11.9-9.4,19.7,0.9,26.8,9.5
	c5.4,6.6,10.7,13.3,16.6,19.4c30,30.8,70.7,37.9,106.5,19c38.7-20.5,57.5-61.5,46.1-104.6c-4.3-16.2-13.9-31-18.9-47
	c-2.1-6.7,1.2-15.2,2-22.9c8.5,2,18.6,1.9,25.2,6.6c6.2,4.5,10.7,13.7,12.3,21.6c5,24.8,12.3,50.1,11.6,75
	C2807.6,2314.7,2756,2361.6,2666.8,2360.9z"/>
<path d="M2439.8,2531.3c-2.1,6.1-4.3,17-9.3,26.4c-24.1,45.1-63.6,69.7-112.9,76.7c-42.3,6-64-26-45.2-64.5
	c19.1-38.9,50-66.2,91.4-78c16.3-4.7,35.9-2.4,53,1.4C2431.9,2496.5,2439.7,2510.1,2439.8,2531.3z M2388.2,2513.8
	c-32.3,0-83,36.9-92.3,67.2c-4.8,15.8,0.3,24.5,14.8,25.6c29.6,2.2,86-32.1,98.4-59.8C2418.5,2525.9,2410.8,2513.8,2388.2,2513.8z"
	/>
<path d="M3057.1,2113.2c-44.7-0.4-62.2-27.7-41.5-67c21.4-40.6,55.9-66.9,99.8-78.6c21-5.6,45.2-6.3,59.4,15
	c13.4,20.3,7.5,41.8-4.5,61.7C3146.4,2083.7,3097.4,2113.5,3057.1,2113.2z M3034.2,2080.2c44.8,17,115.2-23.4,120.2-66.7
	c1.8-15.2-7.5-23.6-25.1-22.8C3090.5,1992.6,3041,2038.2,3034.2,2080.2z"/>
<path d="M1865.4,2672.2c-1.4-36.7,27.2-117.9,52-142c2,43.7-15.5,77.9-26.2,113.3C1887.7,2655.1,1886.1,2670.4,1865.4,2672.2z"/>
<path d="M1365,2719.6c-10.1-12.3-21.2-23.9-30.1-37c-54.3-79.4-113.3-154.8-182.1-222.4c-99.6-97.8-214.3-170.7-347.3-214.1
	c-5.8-1.9-13-2.4-16.8-6.2c-4.2-4.3-6.6-11.6-6.9-17.7c-0.1-1.9,9.7-6.3,14.6-5.8c8.3,0.8,16.3,4.4,24.3,7.2
	c156,55.1,285.6,149,396.2,270.4c56.6,62,110,126.5,147.7,202.4c3,5.9,4.7,12.5,7,18.8C1369.4,2716.6,1367.2,2718.1,1365,2719.6z"/>
<path d="M1490.1,3142.4c-9.1-6.1-12.3-7.1-12.7-8.8c-2.6-10.5-4.9-21.2-6.7-31.8c-12.8-76.1-25.4-152.3-38.2-228.8
	c16.4-5.9,19.8,5.3,22,15.8c11.7,54.5,23.1,109.1,34,163.9c3.1,15.4,4.7,31.3,5.2,47.1C1494.1,3112.4,1491.7,3125.1,1490.1,3142.4z"
	/>
<path d="M1665.4,2409.1c-18.4-45.6-34.5-85.3-51.2-126.5C1656.8,2294.2,1683.4,2355.4,1665.4,2409.1z"/>
<path d="M2352.6,1315.6c-46,0.4-78.3-32.4-79.3-80.6c-1-43.7,33.8-82,74.8-82.7c47-0.8,86.3,40.1,85.9,89.3
	C2433.7,1285.8,2401.3,1315.2,2352.6,1315.6z"/>
<path d="M1847.6,1546c0.1,41.2-36.7,77.2-79.9,78.1c-42.8,0.9-78.9-34.5-79.1-77.6c-0.2-43.5,35.8-83.6,74.7-83.2
	C1809.3,1463.7,1847.5,1501.2,1847.6,1546z"/>
<path d="M2218.3,1402.3c25.4-2.2,34.6,9.2,36.6,24.5c9.2,68.3,4.8,119.5-60.5,158.2c-61.8,36.7-135.3,29.2-182.4-17
	c-4.3-4.2-8.6-8.7-11.8-13.8c-6.4-10.3-15.4-23.2-2.4-31.9c5.7-3.8,20.3,1.6,28.5,6.7c13.3,8.2,24.7,19.5,36.7,29.8
	c49.8,42.6,158.9-13,161.3-75.4c0.5-13.2-1.5-26.5-2.6-39.8C2220.8,1430.8,2219.6,1417.9,2218.3,1402.3z"/>
<path d="M2496.3,1392.7c-9.5-1.3-18.1-1.5-26.3-3.7c-22.6-6.2-32.4-25.4-25.3-47.9c15.4-48.6,89.7-93.4,140.4-84.7
	c32.3,5.6,45.2,28.8,30.3,59.3C2591.3,1365.1,2547.8,1386.3,2496.3,1392.7z M2502.9,1366c31.6-3.4,61.6-20.1,83.5-49.6
	c13.7-18.3,5.6-33.7-17.8-32.5c-38.4,1.9-69.5,20-90,52.8C2467.1,1354.9,2474.9,1365.5,2502.9,1366z"/>
<path d="M1715.7,1805.2c-19.7,0.7-37.1-3.1-46.5-22.2c-9.3-19-1.5-36.1,10.4-50.4c28.2-33.6,65.1-53.6,107.9-61.9
	c9.1-1.7,19.5-0.4,28.6,2.2c26.1,7.3,36.4,28.8,25.5,53.5c-4.3,9.8-10.1,19.6-17.4,27.5C1795.1,1785.7,1757.5,1800.2,1715.7,1805.2z
	 M1694.1,1771.1c59.3,13.1,115.7-17.4,123.9-64.5c-25.9-14-33.1-14.6-63.5,0.5C1728,1720.5,1700,1733.3,1694.1,1771.1z"/>
<path d="M3203,1162.8c42.6-3.1,102.2,77.2,87.7,118.9c-3.2-1.2-7.7-1.5-9.3-3.8C3255.1,1239.8,3229.2,1201.4,3203,1162.8z"/>
<path d="M3334,1210.3c-26.6,8-26.6,8-40.8-22.6C3313.8,1181,3319.9,1197.7,3334,1210.3z"/>
<path d="M349.2,2703.2c9.6,0.4,19.6-0.7,28.7,1.7c15,3.9,21.9,14.8,18.6,30.4c-3.2,14.9-13.8,24.2-28.2,23
	c-7-0.6-17.4-9.8-18.8-16.6c-2.6-12.6,0.3-26.3,0.8-39.5C350.4,2702.1,349.2,2703.2,349.2,2703.2z"/>
<path d="M439.4,2783.2c-1,16.4-9.9,19.9-19.8,17.6c-5.1-1.2-8.9-8.1-13.3-12.5c6.9-5.1,13.3-11.7,21.1-14.5
	C430.2,2772.8,436.4,2780.7,439.4,2783.2z"/>
<path d="M562.9,2847.1c5.5-76,11.1-152.1,16.7-230.1c16.6,6.3,21.4,20.8,22,34.5c3,64.7-6,128.3-22.4,190.9c-0.7,2.8-5,4.6-7.6,6.9
	C568.7,2848.5,565.8,2847.8,562.9,2847.1z"/>
</svg>
