<?xml version="1.0" encoding="utf-8"?>
<!-- Generator: Adobe Illustrator 24.3.0, SVG Export Plug-In . SVG Version: 6.00 Build 0)  -->
<svg version="1.1" id="Layer_1" xmlns="http://www.w3.org/2000/svg" xmlns:xlink="http://www.w3.org/1999/xlink" x="0px" y="0px"
	 viewBox="0 0 4000 4000" style="enable-background:new 0 0 4000 4000;" xml:space="preserve">
<path d="M2127.3,1133.9c22.6,0,42.2,0.2,61.9-0.1c5.5-0.1,11.1-1.4,18.3-2.4c-6.5-62-13.2-122.1-19.1-182.2
	c-10.1-102.2-21.6-204.4-28.4-306.8c-2.4-35.4,3.8-72.5,12.1-107.3c14.3-59.6,60.1-91.8,121.9-87.9c30.1,1.9,60.6,6.2,89.7,14.1
	c100.2,26.9,200.1,55.3,299.8,84.2c82.9,24,165.7,48.5,247.9,74.8c34.3,11,67.9,25.1,99.9,41.6c20.3,10.5,39.2,25.8,54.8,42.6
	c30.7,32.9,40.5,72.7,28.5,117c-10.8,40.2-31.5,75-57.3,107.3c-65.1,81.6-137.5,155.7-219.7,220.2c-8.6,6.7-15.9,15.1-26,24.7
	c34.9,18.7,63.1,16.9,93-0.7c88.5-52.1,177-104.4,267.3-153.3c56.3-30.5,115.3-56.2,174.1-81.5c26.5-11.4,55.4-18.7,85.4-13.5
	c35.4,6.1,61.2,25.1,69.9,60.2c6.1,24.5,11.1,51.1,8,75.7c-10.4,81-24.7,161.4-37.4,242.1c-2.1,13.6-3.6,27.3-5.5,42.1
	c14.2,7.2,26.5,13.6,38.9,19.8c58.8,29.1,115.3,61.5,164.9,105c47.6,41.7,71.6,92.6,70.1,157.1c-7.8,347.8-98.4,670.8-288.5,963.5
	c-135.5,208.5-311.6,374.6-530.7,493.4c-30.6,16.6-45.1,35.7-44.5,70.4c0.5,30.2-5.2,60.4-6.6,90.7c-1.9,40-20.3,67.6-55.8,86.2
	c-54.1,28.3-110.8,49.4-169.6,65.1c-120.9,32.3-244.1,51.3-368.7,63.4c-191.4,18.6-382.7,16.1-573.6-2.8
	c-137.1-13.6-273.7-33.4-404.8-78c-46.2-15.7-90.6-37.1-135.2-57.2c-29.2-13.2-42.6-37.3-45.1-69.5c-2.8-36-10-71.7-12.7-107.8
	c-2.2-30.1-16.6-47.7-42.8-62.1c-174.8-96.4-325.1-222.6-453-375.7c-123.3-147.6-215.7-312.9-280.6-493.7
	c-68.3-190-96.7-386.6-99-587.7c-0.7-61.2,20.1-113.5,65.4-152.6c35.9-31,75.5-59.1,116.9-82.2c108.9-60.7,228.3-94.1,348.1-125.6
	c152.6-40.1,308.2-64.3,464.5-84.5c9.9-1.3,19.6-3.7,35.1-6.7c-11.6-10.1-18.6-15.7-25-21.8c-20.2-19.4-41.6-37.7-59.8-58.7
	c-37.5-43.5-42.9-93.2-16-143.3c14.7-27.3,33.4-53.9,55.6-75.5c32.5-31.7,68.1-60.6,105-87c124.3-89.1,249.8-176.6,374.8-264.7
	c46.7-33,92.4-67.6,140.3-98.9c26.1-17.1,54.6-31.9,83.9-42.3c46.2-16.4,89.9-2,116.7,38.8c16.4,24.9,28.8,53.5,37.6,82.1
	c24.3,78.4,35.9,159.6,40,241.3c5.8,116.6,8.3,233.4,12.4,350.1C2124.9,1105.9,2126.2,1118.3,2127.3,1133.9z M286.8,1719.8
	c4.5,41.9,8.2,78.9,12.6,115.8c20.7,174.1,66.6,341.4,141.3,499.8c104.8,222.2,255,409.1,447.9,561.5c140.6,111,294.6,196.3,467,248
	c135.9,40.8,274.3,64.8,415.4,77.4c227.1,20.3,452.7,11.5,676.2-32.3c157.5-30.9,308.7-79.6,449.7-159.8
	c162.5-92.4,304.6-207.4,420.7-353.8c196.3-247.5,311.7-529,350.9-842.1c4.7-37.6,7.2-75.4,11.4-121c-12.4,9.1-17.6,13.2-23,16.9
	c-28.8,19.8-56.3,41.8-86.7,58.8c-82.8,46.3-171.4,79.5-262.4,105.7c-246.6,71-499.2,107.1-754.4,125.5
	c-133.8,9.6-268.1,14.2-402.3,17.4c-314.3,7.7-628.1-3.9-940.5-39.5c-197.2-22.5-392.8-55.6-583.3-112.6
	c-116.5-34.9-230.1-78.1-324.6-159C300.3,1724.4,296.6,1723.9,286.8,1719.8z M2541.4,1518.6c19.3-9.9,37.2-17.9,53.8-28
	c6.9-4.2,15.7-13.6,15.1-19.7c-0.7-6.8-10.2-15.3-17.7-18.2c-19.4-7.7-39.6-14.1-60.1-18.6c-22.1-4.9-44-3-64.5,8.8
	c-10.1,5.8-21.3,9.5-32,14.1c-52.1,22.6-99.4,18.3-142.2-22.2c-12.4-11.7-28.1-23.3-44.1-26.9c-35-8-71.2-11.6-107-15.3
	c-8.2-0.9-21.2,2.2-24.9,8c-18.3,28.5-46.5,27.4-74.5,29.1c-45.4,2.7-90.8,5.3-136,9.4c-27.4,2.5-53.2,1.1-78.3-11.8
	c-20.7-10.6-42.4-19.4-64.1-28.1c-31.7-12.6-62.8-12.2-95.1,1.4c-37.5,15.8-75.2,31.4-117.2,33c-103.8,3.8-207.3,11.2-310.4,25.7
	c-158.6,22.3-315.4,52.4-468.4,99.6c-58.8,18.1-115.4,43.8-172.1,68.2c-26.8,11.5-48.5,31.2-65.9,61.2c17.7,9.1,33.3,18.5,50,25.5
	c117,49,240.3,75.1,364.5,97.3c240.6,43,483.6,64.7,727.5,75.1c229.9,9.8,459.9,7.7,689.9-4.2c189.1-9.8,377-28.7,564.2-57
	c142.3-21.5,282.3-51.4,417.8-100.8c9.2-3.4,18-7.9,33.3-14.6c-16-12.2-26.1-21.3-37.5-28.2c-66.5-40.5-139.2-52-215.6-43.5
	c-67.5,7.5-130.1-4.2-186.8-42.9c-4.8-3.3-10.2-5.6-15.3-8.6c-74.8-43-154.6-64.9-241.4-56.7c-34.8,3.3-69.6,7.1-104.5,9.9
	C2566.9,1541,2550.8,1543.3,2541.4,1518.6z M2066.5,1118.1c1.9-0.1,3.8-0.1,5.7-0.2c-6.8-127-12.6-254.1-21-381.1
	c-4.8-72.2-14.1-144.1-35-213.8c-6.3-21.1-13.8-42.3-24.3-61.6c-15-27.4-32.4-35.3-61.1-23.6c-29.9,12.2-58.9,28.2-85.4,46.7
	c-132.2,92.1-263.7,185-394.8,278.7c-60.8,43.4-120.9,87.9-179.3,134.3c-21.4,17-40.4,39.2-54.9,62.5
	c-24.7,39.5-21.7,71.6,10.5,105.3c24,25.1,50.7,49.6,80.7,66.4c83.3,46.8,167.6,92.5,254.1,133.1c94.9,44.5,192.9,82.5,289.4,123.8
	c19.2,8.2,37.9,11.1,57.6,2.7c34.4-14.7,69.4-16.4,106.3-9.4c39.3,7.4,50.2-0.8,51.1-39.8
	C2067.7,1267.5,2066.5,1192.8,2066.5,1118.1z M2219.6,656.2c5.5,63.1,9,110.8,14.1,158.4c13.6,128.8,26.2,257.8,42.8,386.2
	c6.8,52.9,19.6,105.6,35.8,156.5c17.3,54.4,46.2,70.4,109.6,44.7c23.4-9.5,45.6-24.2,65.4-40.2c118.7-96.3,238.1-191.9,354.1-291.4
	c53.8-46.2,102.3-99.1,149.4-152.3c25.8-29.3,45-64.8,64.6-99.1c18.5-32.3,7.6-61-18.8-84.3c-11.3-9.9-23.6-19.7-37-26.1
	c-25.2-12-50.9-23.9-77.5-31.9c-174.3-52.2-348.7-103.8-523.5-154.3c-32.3-9.3-66-15-99.5-18.8c-42.4-4.7-67.9,14.2-73.7,56.4
	C2220.1,596.6,2220.8,634.2,2219.6,656.2z M3454.9,1413.5c-15.4,29-14.9,32.6,7.1,49.1c13.1,9.8,26.5,19.1,39.7,28.8
	c22.3,16.5,37.1,38.8,47,64.1c22.4,57.2-0.9,112.6-63.6,144.8c-40.4,20.7-82.2,39.5-124.8,55.1c-130.7,48-266.2,77.4-403.4,100.3
	c-154.3,25.8-309.6,43.1-465.5,54.6c-64,4.7-128.2,6.2-192.4,8.1c-385.5,11.1-770.6,8.7-1153.4-44.3
	c-123.5-17.1-246.5-39.6-368.5-65.3c-67-14.1-132.7-36.7-196.5-61.8c-42.9-16.9-84-41.3-121.3-68.6c-53.4-39.1-58.4-99.1-16.9-150.1
	c13.1-16.1,28.1-32.2,45.4-43.2c33.3-21.2,67.7-41.7,103.9-57.3c112.9-48.6,230.8-81.2,352-101.8c133.4-22.8,266.5-47.2,401.7-57.4
	c18-1.4,35.8-5.1,55.5-8c-21.6-28.4-47-39-80.2-34.4c-57.8,7.9-115.6,15.7-173.2,24.5c-133.7,20.4-267.4,41-398.3,76.7
	c-109.5,29.9-217.3,64.3-317.1,118.8c-37.6,20.5-73.8,45.5-105.9,73.8c-58.8,51.9-58.9,123.2-4,178.4c10.7,10.7,21.7,21.8,34.6,29.4
	c41.1,24.4,81.8,49.9,124.9,70c97.7,45.6,201.8,72.9,306.4,97.1c165,38.2,332.6,61.6,501,78.6c156.8,15.9,313.9,29.1,471.5,31.6
	c287.2,4.4,574.2,5.2,860.7-24.5c177.7-18.5,354.7-40,529.2-79.2c118.6-26.7,235.5-59.1,345.8-111.2
	c55.9-26.4,111.4-54.5,154.6-100.6c51.3-54.7,50-113.9-4.1-166.4c-52-50.5-115.8-82.1-181.9-109.4
	C3461.9,1412.4,3458.1,1413.5,3454.9,1413.5z M3350.5,1627c3-8.9,6.4-16.2,7.9-23.9c28.4-151.3,57.5-302.5,84.3-454.1
	c7.3-41.1,10.2-83.4,10.9-125.3c0.6-34.8-14.8-46.5-49.4-39.7c-26,5.2-52.2,13.2-76.3,24.4c-200.5,93.5-389.7,206.6-569,335.9
	c-25.2,18.2-46.4,42.4-67.2,65.9c-17,19.3-27.2,42.9-28.3,69.5c4.4,1.5,7.7,3.4,11,3.6c10.5,0.5,21,0.7,31.4,0.4
	c86-2.4,167.9,13.6,240.3,61.8c63,41.9,129.1,60.4,205.4,49.5c60.8-8.7,121.1,0.8,177.7,27.3
	C3335.1,1625.2,3342.3,1625.3,3350.5,1627z M2822.4,3108.2c-29.2,11.9-52.5,22.2-76.4,31.1c-196.3,73.2-399.6,112.4-608.6,120.6
	c-164.7,6.4-329.2,4.4-493-18.8c-158-22.3-311-62.2-458.2-124c-7-2.9-14.5-4.7-25.5-8.2c1.3,15,1.9,26.4,3.2,37.8
	c3.3,27.8,8.7,55.5,9.8,83.4c1,27,13.4,41.6,37.1,53.1c76.3,36.9,157.2,59,239.3,76.9c159.2,34.7,320.9,47.5,483.4,51
	c226.1,4.9,450.7-9.5,670.3-67.4c58.4-15.4,114.5-39.5,171.3-60.5c19.2-7.1,35-18.8,36.7-42.3
	C2815,3199.2,2818.5,3157.5,2822.4,3108.2z M1627.4,1362.9c-8-5.4-12.4-9-17.2-11.5c-35.2-18-70.2-36.6-106-53.3
	c-11-5.1-24.7-7.5-36.8-6.4c-179,15.3-357.3,36-533.7,71.3c-113.4,22.7-225.6,49.8-331.8,97c-45.9,20.4-91.1,43-126.3,80.2
	c-34.6,36.6-34.5,67.6-2,105c17.2,19.8,24.7,21.5,42.4,2.1c43.2-47.6,99-73,157.4-94.6c206.1-76.3,421.4-111.2,637.6-140.9
	c85.5-11.7,171.7-18.1,257.6-27C1588.1,1382.8,1607.8,1380.5,1627.4,1362.9z M3438.2,1491.9c-5.6,23-10.2,40.7-14.3,58.6
	c-16.8,73.2-9.5,57.7,36.2,93.9c18.9,15,32,12.7,48.3-4.7c18.7-20.1,21.9-41.4,10-67.2C3502.8,1538.1,3475,1515.9,3438.2,1491.9z
	 M2231.1,1280.5c-36.9,0-72.3,0-108.5,0c0,21.3,0,40.4,0,62.4c42.9,3.8,83.4,7.3,127.7,11.2
	C2243.1,1326.6,2237.3,1304.5,2231.1,1280.5z M2542.3,1388.6c15.2,4.4,21.7,6.2,28.2,8.1c7.7,2.3,15.5,4.5,23.1,7.3
	c26.9,9.6,26.4,9.3,46.2-13.7c16.6-19.3,34.5-37.4,51.5-56.3c4.3-4.8,7.1-10.9,11.4-17.5c-27.7-8.7-52.9-10.6-75.3,5.7
	C2600.4,1341.7,2574.8,1363,2542.3,1388.6z M2220.9,1240.4c5.6-32.5,4-39.6-12.5-41.4c-23-2.5-46.4-2.5-69.6-2.3
	c-13,0.1-17.1,9.8-17.1,21.7c0,12,4.1,21.4,17.1,21.7C2166.4,1241,2194,1240.4,2220.9,1240.4z M2795,1249.8
	c-48.2-20.2-71-16-96.3,16.2C2738.9,1284.9,2769.6,1280.4,2795,1249.8z M3408.7,1663.2c3.3,24.4,3.3,24.4,25.7,15.2
	C3424.1,1672.3,3416.4,1667.7,3408.7,1663.2z"/>
<path d="M1617.6,2537.8c-0.2,66.3-52.8,118.9-120,119.9c-62.7,1-115.5-51.4-116.1-115.2c-0.7-70.1,54.3-127.2,121.6-126.1
	C1565.9,2417.3,1617.8,2472.4,1617.6,2537.8z"/>
<path d="M2466.3,2419.1c64.4-0.5,118.1,53.4,117.4,117.8c-0.7,67.3-53.1,120.5-119.3,121c-63.4,0.5-116.1-53.4-117.4-118.8
	C2345.8,2483.5,2394.9,2416,2466.3,2419.1z"/>
<path d="M1975.1,2843.4c-98.7-2.4-184.4-82.3-184.8-203.2c0-11.9,3.9-20.8,17.2-21.9c13.5-1.1,18.3,7.4,20,19.1
	c2.1,15,3.3,30.2,6.6,44.9c24.1,104.6,140.8,152.9,231,95.6c37.6-23.9,59.4-58.2,64.2-103c1.5-13.9,3.1-27.8,4.5-41.7
	c1.3-12.8,7.8-18.6,20.9-17.2c11.6,1.3,15,8.2,16.1,18.9c9.8,89-53.5,179.7-140.7,200C2012.2,2839.3,1993.5,2840.7,1975.1,2843.4z"
	/>
<path d="M2600.1,2847c-29.1-7-58.7-12.4-87.1-21.5c-24.6-7.8-36.8-28.7-38.6-53.5c-1.9-24.9,13-43.3,34-52.7
	c64.5-28.9,130.8-34.9,194.9,0.2c47.6,26,44.9,78.1-3.3,104.4C2677.6,2836,2645.3,2842,2600.1,2847z M2610.2,2723.1
	c-43.7,3.9-74.8,12.4-93.1,29.3c-16.9,15.6-16.4,31.2,4.4,41.2c54.3,26.1,109.9,28.3,164.6,1.1c9-4.5,20.5-17.7,19.4-25.3
	c-1.4-10.3-12-23.8-21.9-27.5C2660.2,2733,2634.8,2729,2610.2,2723.1z"/>
<path d="M1356.7,2845.4c-33.8-4.4-66.2-6.8-96-22.9c-20.7-11.2-35.6-26.1-36.7-51.3c-1.1-25.7,13.6-43.4,34.3-52.6
	c63.4-28.4,128.2-32.6,192.2-0.8c23.4,11.6,39.3,30.7,37.5,58.3c-1.7,26.4-20.1,42.7-43.3,49.8
	C1416,2834.7,1386.1,2839.1,1356.7,2845.4z M1354.1,2722.6c-25.3,5.9-51.8,10-76.6,18.8c-10.1,3.6-22.6,17.2-23,26.7
	c-0.3,9,11.9,22.8,21.9,27.1c49.8,21.5,101.3,25.1,152.7,4.9c12.8-5,27-11.7,27.6-28.2c0.7-19.4-13.4-30.2-29.3-34.7
	C1404.1,2730.5,1379.9,2727.5,1354.1,2722.6z"/>
<path d="M1439,1768.8c-27.9-5.4-67-11.1-105.1-20.9c-28.5-7.3-50.5-24.9-52.7-57.7c-2.3-33.9,17.8-54.9,45.5-67.9
	c57.8-27.2,118.7-32.2,180.5-17c24.6,6,48.7,15.5,71.6,26.5c22.2,10.7,36.5,30.3,35.9,55.7c-0.6,27.3-17.8,43.9-41.8,55.2
	C1534.1,1761,1492.2,1763.2,1439,1768.8z M1445.3,1735.2c29.8-4.9,64.2-9.9,98.2-16.5c9.9-1.9,19.6-7.4,28.2-13.1
	c13.4-8.9,15.8-20.6,5.2-32.2c-8.3-9.2-19.2-17-30.5-22.3c-42.1-19.9-87.2-25.9-132.5-17.4c-28,5.2-56.6,13.7-81.8,26.7
	c-30.6,15.8-28.3,36.8,2.9,52.4c10.3,5.1,21.5,9.4,32.8,11.4C1391.8,1728.5,1416,1731.1,1445.3,1735.2z"/>
<path d="M1899,1638.6c-25.9-4.7-59.6-8.1-91.6-17.4c-29.6-8.7-56.7-25.9-59.6-61c-3-36.2,23.4-54.2,51.3-67.5
	c81.1-38.6,160.8-30,236.7,13.8c40.1,23.2,42.5,65.8,6.2,95c-15.7,12.7-36,21.9-55.7,26.7C1960.7,1634.5,1933.5,1634.8,1899,1638.6z
	 M1778,1566.5c10.8,6.7,22.2,16.9,35.5,21.6c58.8,20.9,118.9,21.1,178.5,4.2c16.8-4.8,39.8-10.4,40.2-33
	c0.3-21.5-20.3-29.2-37.5-36.6c-61.8-26.5-122.9-20-183,5.7C1797.1,1534.6,1781.9,1542.3,1778,1566.5z"/>
<path d="M2344.2,1785.1c-32.1-5-64.8-7.6-96-16c-19.4-5.2-39.1-16.2-54-29.7c-26.8-24.4-23.9-61.3,3.2-85.5
	c23.4-20.9,52.5-29.3,82.3-35.4c53.9-11,106.4-5.9,157.1,15.5c9.6,4.1,18.8,9.3,27.6,14.8c23.3,14.5,39,34.4,35.1,63.1
	c-3.8,28.1-23,46.8-48.6,54.3c-28.8,8.4-59.2,11.2-88.9,16.1c-5.7,0.9-11.6,0.1-17.4,0.1C2344.5,1783.4,2344.3,1784.2,2344.2,1785.1
	z M2347.3,1753.6c27.2-4.5,53.9-7,79.4-13.8c17.2-4.6,39-11.2,40-33.3c1-23.4-20.2-33-38.4-40.1c-48.6-18.8-99-25.5-150.3-12.3
	c-17.8,4.6-36.1,10.3-51.5,19.8c-25.4,15.7-24.7,35.6,0.2,51.3c10.6,6.7,22.8,12.4,35,14.9C2290,1745.8,2318.8,1749.2,2347.3,1753.6
	z"/>
<path d="M2693.6,1706.5c-11.1-2.5-28.8-4.2-44.7-10.4c-29.1-11.4-32.4-36.2-9.2-56.8c24.1-21.3,67.8-24.2,94.1-6.2
	c16,11,24.4,29.3,19.9,44.7c-5.3,18-19.2,25.2-36.5,27.3C2711.5,1705.8,2705.6,1705.8,2693.6,1706.5z M2725.2,1674.9
	c-21.2-27.9-39.5-29.3-69.6-8.1C2676.5,1683,2698.7,1677.9,2725.2,1674.9z"/>
<path d="M1037.1,1673.7c-17.4-4-30.4-5.1-41.7-10.1c-28.6-12.8-30.9-43.1-4.6-59.5c26.2-16.4,55.2-17.9,83.5-7.5
	c29.5,10.9,33.9,45.6,7.4,63C1068.1,1668.4,1049.8,1669.9,1037.1,1673.7z M1070.3,1633.6c-30.8-18.3-44.7-17.3-66.6,3.3
	C1025.9,1647,1046.2,1649.8,1070.3,1633.6z"/>
<path d="M1977.6,1792.2c-18-1.4-30-0.9-41.1-3.5c-12-2.9-22.7-11.7-19.2-24.8c2.2-8.3,12.2-20.1,19.4-20.6c30-2.3,60.3-1.9,90.3,0.1
	c6.4,0.4,16.3,11.4,16.9,18.2c0.6,6.4-7.8,17.6-14.5,19.7C2010.8,1787.3,1991,1789.6,1977.6,1792.2z"/>
<path d="M1409.9,1113.4c-17.1-1.2-31.3-14.4-29.8-27.8c1.3-11.7,14.6-21.6,28.2-20.9c15.6,0.8,29.5,14.8,29.1,29.2
	C1437.1,1106.7,1426.2,1114.5,1409.9,1113.4z"/>
<path d="M1489.7,905.8c-13-0.8-25.1-12.6-24.7-24c0.4-12.1,15.6-26.9,27.3-26.7c12.7,0.3,24.3,14.6,23.4,28.9
	C1514.9,896.7,1503,906.6,1489.7,905.8z"/>
<path d="M1778.5,1181.4c0.3,14.9-10.6,26.6-25.4,27.2c-14.9,0.6-23.5-7.7-23.8-23.2c-0.3-15.8,10.6-28.4,24.3-28.2
	C1766.7,1157.5,1778.2,1168.7,1778.5,1181.4z"/>
<path d="M1719,984.4c-16.3,0.2-26-9.5-25.9-25.8c0.1-15,9.6-25.2,23-24.8c14.4,0.4,26.6,12.6,26.7,26.8
	C1743,975,1733.7,984.2,1719,984.4z"/>
<path d="M1989.5,872.4c-0.7,15.1-12.6,26.8-27,26.1c-14.9-0.7-19.8-11-20.4-23.6c-0.8-15.1,11.9-28.6,25.1-28.2
	C1981,847,1990.2,857.6,1989.5,872.4z"/>
<path d="M1890.9,643.1c-0.4,12.5-16,28.3-27,27.3c-10.3-1-21.2-16.6-19.5-29.4c1.7-12.5,7.7-22.1,22.2-22.2
	C1879.8,618.6,1891.3,630.4,1890.9,643.1z"/>
<path d="M1973.5,1304.9c-12.1-1-20.2-12.7-19.4-27.9c0.8-14.6,11.1-24.3,24.5-22.3c14.3,2.1,18.2,12,17.2,25.1
	C1994.5,1295.8,1985.5,1305.9,1973.5,1304.9z"/>
<path d="M2890.8,944.8c-0.4,14-17.3,30.3-30.3,30c-11.4-0.2-23.3-14-22.8-26.5c0.5-13,13.7-23.4,29.7-22.8
	C2880.4,926,2889.7,931.3,2890.8,944.8z"/>
<path d="M2353.9,667c12.6-1,26.4,12.9,26,27.3c-0.4,12.9-6.1,22.5-20.3,24c-14.1,1.5-27.2-10.3-28.2-24.9
	C2330.5,680.5,2341.2,668,2353.9,667z"/>
<path d="M2802.9,756.9c-20.4,0.7-34.8-10.7-35.8-23.4c-1-12.5,9.8-23.8,23.5-24.6c15.3-0.8,28.9,10.3,26.1,24.7
	C2814.8,743,2806.5,751.1,2802.9,756.9z"/>
<path d="M2648,863.8c12.9,0.5,23.9,12.6,23.4,25.7c-0.5,13.2-12,24.2-25.1,24c-14.2-0.2-22.7-9.9-22.1-25.5
	C2624.8,872.7,2634.1,863.2,2648,863.8z"/>
<path d="M2398,1014.6c-0.2,21-10.7,36-21,34.3c-12.3-2-21.3-9.4-21.9-23.2c-0.8-15.9,11.7-32.4,23-28.4
	C2387.1,1000.6,2393.7,1010.6,2398,1014.6z"/>
<path d="M2435.2,1249.9c13.2,0.6,18.6,8.3,18.3,20.5c-0.3,13.8-14.2,29.2-26.1,28.3c-12.7-1-18-9.8-18-21.6
	C2409.6,1261.8,2421.8,1249.3,2435.2,1249.9z"/>
<path d="M2903.9,1366c1.1,21.3-11.9,37.3-25.7,36.7c-12.2-0.6-22.8-5.4-25.1-19c-2.2-13.3,16.5-32.8,30.8-30.3
	C2892.3,1354.8,2899.3,1362.9,2903.9,1366z"/>
<path d="M3088.5,1260.2c12.1,0,24,11.9,24.3,24.3c0.4,13.5-12.8,26-26.9,25.5c-12.3-0.5-23.2-13-22.4-25.7
	C3064.4,1272.1,3076.8,1260.1,3088.5,1260.2z"/>
<path d="M3214.4,1463.2c0.5,13.7-9.1,24.5-22.7,25.6c-14.6,1.2-26-7.5-27.1-20.6c-1.1-13.5,11.4-27.9,24.8-28.4
	C3202.3,1439.1,3213.9,1450,3214.4,1463.2z"/>
<path d="M3374.8,1166.3c0.9,11.5-13.8,27.3-26.5,27.8c-13.4,0.5-22.4-5.1-23.7-19.6c-1.5-16.5,7.8-29,22.2-29.7
	C3358.9,1144.1,3374,1155.7,3374.8,1166.3z"/>
</svg>
