<?xml version="1.0" encoding="utf-8"?>
<!-- Generator: Adobe Illustrator 24.3.0, SVG Export Plug-In . SVG Version: 6.00 Build 0)  -->
<svg version="1.1" id="Layer_1" xmlns="http://www.w3.org/2000/svg" xmlns:xlink="http://www.w3.org/1999/xlink" x="0px" y="0px"
	 viewBox="0 0 4000 4000" style="enable-background:new 0 0 4000 4000;" xml:space="preserve">
<path d="M2309.1,446.3c13.2-10.1,23.1-17.6,33-25.1c67.8-50.8,160.7-36.1,207.7,34.8c16.9,25.5,31.5,53.4,42.4,82.1
	c53.2,139.7,146.9,246.9,266,333.3c94.5,68.5,191.2,133.8,285.9,202.1c224.7,161.9,397.3,367.3,512.5,619.9
	c97.4,213.6,140.4,437.6,120.5,671.7c-23.9,281.3-131.1,524.1-343.5,715.3c-118,106.2-254.4,182.2-401.2,240.7
	c-186.1,74.1-380.4,114.6-578,143.3c-211.7,30.8-424.3,36.4-637.1,24.7c-261.1-14.4-519-51.3-768.3-134.9
	c-181.7-61-350.7-144.8-496.6-271.6c-173.7-150.9-284.3-339-331.6-563.6c-59.3-281.5-23.7-553.1,92.6-814.7
	c116.2-261.5,293.3-473.8,526.5-638.5c96.2-67.9,198-127.7,296-193.1c57-38,113.2-77.7,166.7-120.5
	c60.2-48.1,102.2-110.7,125.9-184.7c2.8-8.7,6-17.3,9.5-25.8c28.5-68,73.8-96.3,148.1-92.3c34.7,1.9,68,10,98.5,26.9
	c42.2,23.4,57.8,12.6,85.3-19.4c0.7-0.9,1.4-1.8,2.1-2.7c49-60.5,108.9-73.9,179.1-39.7c14.4,7,28.6,14.5,42.2,23
	c14.3,9,26,6,36.8-5.2c13.4-14.1,26.9-28.1,39.6-42.8c33.3-38.5,75.3-45,121.8-33.4c40.5,10,71.5,34.8,97.8,66.1
	C2294.7,429,2300.4,435.9,2309.1,446.3z M1972.1,487.8c-22-18-44.4-27.4-68.7-34.5c-30.8-9-55.8-2.9-77.5,21.1
	c-13,14.4-27.3,28-42.7,39.6c-33.5,25.4-70.3,31.6-109.8,14.2c-13.6-6-27-12.4-40.8-18.1c-69.7-28.6-124.3-5-150.8,65.1
	c-2,5.3-3.1,11.1-5.8,16.1c-21.9,41.3-41.2,84.3-66.9,123.2c-42.3,64.1-102.9,110.6-165.9,152.3c-97.3,64.4-197.8,123.9-295.2,188
	c-195.4,128.5-362.9,285.4-489,484.3c-178.2,280.9-248.8,584.9-197,914.9c20.1,127.8,62,248.1,130.3,358.9
	c107.1,173.6,258,298.5,436.2,392.3c188.2,99.1,390.9,154.2,599.4,189.5c150.2,25.4,301.5,43,453.9,44.1
	c122.4,0.8,245,0.2,367.1-6.4c129-7,257-26.4,384.1-50.7c201.5-38.5,393.5-102.9,572.7-203.7c113.8-64,214.5-144.3,298-245
	c145.9-176,213.5-382.1,224.6-607.2c16-322.6-84-610.6-271-870.8c-115.2-160.2-261.8-286.9-423.9-396.7
	c-107.1-72.6-216.2-142.5-309.1-233.4c-36.6-35.8-72.8-73.9-100.1-116.7c-33.6-52.7-56.8-111.9-86.1-167.4
	c-13.2-25.1-27.7-50.3-46.1-71.5c-22.7-26.1-53.7-34.9-87.3-20.9c-27.8,11.6-51.5,28.8-68.6,59.7c16.7,21,33.4,42.5,50.8,63.4
	c8.1,9.9,16.7,18.9,7.4,32.3c-29.6-4.6-37.2-5.6-57.1-28.5c-30.5-35.4-57.5-73.8-86.8-110.4c-12.1-15.1-24.2-30.9-39.4-42.4
	c-38.3-29-76.5-25-110.3,9c-9.7,9.7-18.9,19.9-28.2,30C1978.6,564,1865.1,633.7,1729,663.4c-45.5,9.9-92.6,12.9-139,18.6
	c-11.4,1.4-20.3-3-21.6-16.3c-1.2-12.4,5.5-19.6,16.4-22.8c7.6-2.2,15.7-3,23.6-4c125.4-14.5,239.4-58.2,341.5-132.5
	C1956.9,501.3,1963.3,495.2,1972.1,487.8z"/>
<path d="M2598.2,2363.1c82.1,1.2,143.7,65.4,142.7,148.6c-1,84.5-66.4,148.4-149.4,145.9c-77-2.3-144.8-74.6-142.6-152.3
	C2451.2,2422.3,2514.6,2361.9,2598.2,2363.1z M2633.1,2503.2c27.3,0,47.1-18.6,46.4-43.4c-0.7-23-21.4-42.8-44.6-42.6
	c-25.2,0.2-45.8,20.3-46.3,45.1C2588.2,2485.7,2607.2,2503.2,2633.1,2503.2z"/>
<path d="M1454.4,2660.2c-75.1,4.9-142.8-67-143.5-144.3c-0.7-85.4,61.5-151.8,143-151.7c78.8,0.1,141.3,66.5,141.4,150.1
	C1595.3,2595.3,1533.1,2659.8,1454.4,2660.2z M1462.7,2464.5c0.7-23.3-18.8-45-41-45.7c-25.4-0.8-46.2,18.7-46.6,43.7
	c-0.4,25.1,17.5,43.4,42.2,43.2C1442.5,2505.6,1462,2487.9,1462.7,2464.5z"/>
<path d="M1018.9,1353.4c-4.1-3.7-12.4-7.9-14.3-14.1c-2-6.3-0.1-16.4,4-21.6c5.4-6.7,14.4-11,22.5-15.1
	c162.4-81.5,310.7-184.5,449.3-301.3c74.5-62.7,142-132.8,201.9-210c7.7-9.9,15.8-19.9,25.6-27.4c5.3-4.1,17.3-6.6,21.3-3.5
	c5.8,4.6,10.3,15.2,9.6,22.8c-0.9,9.6-5.9,20-12,27.8c-26.6,34.3-52.5,69.4-81.9,101.2c-69.3,74.7-142.8,145.2-225.1,205.7
	c-111.7,82.1-226.3,159.5-352.9,217.5c-12.5,5.7-25.3,10.5-38,15.7C1026.8,1352.1,1024.4,1352.2,1018.9,1353.4z"/>
<path d="M2190.9,681.7c21.8,0.3,28.1,8.5,28.5,23.9c1.1,35.4,3,70.8,4.6,106.2c8.8,187.1,64.3,361.4,145.6,528.4
	c24,49.3,49.9,97.7,74.9,146.5c2.1,4.1,6.1,8,6.1,12.1c0.1,7.2,0.3,16.7-3.9,21.2c-7.5,8.1-18.9,9.2-27.4,0.2
	c-7.8-8.2-14.7-17.5-20.9-27.1c-76.2-117.9-133.5-244.3-174.8-378.5c-39.1-127-57.6-256.2-51.9-388.9c0.4-9.1-0.9-19.3,2.8-27
	C2178.4,690.7,2187.3,685.2,2190.9,681.7z"/>
<path d="M1971.7,771.6c-10.6,51.4-17.4,99.2-30.3,145.2c-48,171.7-117.6,333.9-219.4,481.1c-18.8,27.2-40.4,52.5-61,78.4
	c-4.2,5.2-9.4,12.3-15,13.1c-8.1,1.2-18.6-0.3-24.8-5c-4-3.1-4.2-14.4-2.3-21c2.1-7.3,8.2-13.5,12.9-20
	c124.2-170,207.9-359.2,264.7-561c9-31.9,16.9-64,25.5-96c2.1-7.7,2.8-17.8,8-22c6.8-5.6,17.9-9.5,26.4-8.4
	C1962.4,756.7,1967.3,766.8,1971.7,771.6z"/>
<path d="M1305,2665.6c63.3-3.3,123.4,16.3,178.5,51.5c15.1,9.6,29.7,22.1,40.2,36.4c35.3,47.8,18.1,103.8-37.9,124.5
	c-38,14-77.9,17.3-118.2,14.5c-53.1-3.6-103.6-17-150.9-41.5c-14.1-7.3-27.8-16.2-39.8-26.5c-50.6-43.6-41.6-110.9,18.3-140.3
	C1228.9,2667.6,1265,2663.7,1305,2665.6z M1391.4,2851.6c16.2-2.2,38.2-3.2,59-8.7c19.4-5.1,42.8-10.6,47.8-33.8
	c5.1-24-16.4-35.5-31.8-48.7c-4.3-3.7-9.4-6.6-14.3-9.4c-41.3-23.7-86.2-37-133.2-42c-38.1-4-75.6,1-110,19.2
	c-24.6,13.1-28.9,32.1-11.3,53.4c9.3,11.2,21.4,20.9,34,28.2C1279.3,2837.2,1331.5,2848.4,1391.4,2851.6z"/>
<path d="M2404.9,648.8c4.9,4.8,14.7,11.1,19.7,20c8.3,14.9,14.2,31.2,20.1,47.3c55.9,151,149.3,277.1,261.3,390.3
	c35.3,35.7,74.1,68.1,111.3,101.9c3.4,3.1,6.9,6.1,10.1,9.2c17.4,17,20.6,27.7,11.3,37.4c-9.4,9.7-24.5,10.4-40.3-3.1
	c-52-44.6-105.7-87.8-153.6-136.6c-97.7-99.5-176.7-212.8-233.3-340.7c-12.9-29.1-22.1-60-30.7-90.7
	C2375.6,665.2,2385.4,650.4,2404.9,648.8z"/>
<path d="M2756.5,2664c35.8-0.2,70.8,1.9,102.9,20.5c59.9,34.7,66.2,94.5,14.2,140.7c-32.6,28.9-72.9,43.1-114,52.8
	c-49,11.7-99.3,17.7-149.6,8.3c-19.9-3.7-40.3-9.6-58-19.1c-48.6-25.9-57.3-74.8-22.8-118c24.4-30.4,56.5-49.7,93-61.6
	c23.8-7.8,48.2-14.5,72.8-19C2715.1,2665,2735.9,2665.4,2756.5,2664z M2656.9,2850.9c55-4.7,106.9-16.7,155.9-39.8
	c15.1-7.1,29.8-17.4,41.2-29.4c18.9-20,16.4-41.2-7.8-53.7c-19.7-10.2-42.4-17.3-64.5-19.9c-48.2-5.6-95.7,2.6-140.7,20.5
	c-23,9.1-45.8,21-65.5,35.8c-32.6,24.7-29.1,54.7,8.8,70.3C2606.9,2844,2632.6,2845.8,2656.9,2850.9z"/>
<path d="M2028.7,2837.8c-104.4-1.1-198.6-87-209-190.9c-0.8-7.9-1-16-0.5-23.9c0.8-12,7.6-18.3,19.7-19.6
	c12.7-1.4,23.3,1.2,27.1,14.8c4.6,16.5,7,33.6,12.1,49.9c30.5,95.6,123.6,139.6,212.3,101c41.5-18.1,67.6-49.7,80.1-92.7
	c5.4-18.6,9.5-37.6,14.2-56.4c4-16.4,16.6-16.8,29.7-15.7c14.5,1.2,18.3,10.8,19,23.7C2239.5,2737.3,2140.5,2839,2028.7,2837.8z"/>
<path d="M1210.7,1341.7c3.1-5.5,4.9-12.5,9.5-16.1c15.3-11.8,30.4-25,47.7-32.8c43.7-19.8,79.6-49.9,115.4-80.6
	c43.4-37.2,87.2-74,131.4-110.1c9.9-8.1,22.4-12.8,33.7-19.1c1.9,1.7,3.7,3.4,5.6,5.1c-2.3,6.5-3.4,13.9-7.2,19.5
	c-5.1,7.5-11.7,14.1-18.5,20.2c-60.7,54-121.9,106.9-193.8,146.5c-32.8,18.1-62.7,41.5-94.3,61.9c-7.8,5-17.2,7.5-25.8,11.2
	C1213.3,1345.4,1212,1343.6,1210.7,1341.7z"/>
<path d="M2429.4,1292.6c-21.4,7.2-26.6-5.7-31.9-16.6c-15.5-31.7-32.1-63.1-44.9-95.9c-19.1-48.7-35.6-98.5-52.9-147.9
	c-2.6-7.5-4-15.4-5.4-23.3c-1.7-9.5-8.7-21.9,4.9-26.8c14.6-5.2,20.6,7.1,23.2,18.4c21.7,95.1,61.6,183.3,102.3,271.3
	C2427.4,1277.6,2427.7,1284.5,2429.4,1292.6z"/>
<path d="M1871.9,1264.4c3.2-12.5,4.8-22.1,8-31.2c28.3-80.6,56.6-161.1,85.4-241.4c4.3-11.9,5.6-28,28.8-27.1
	c4.6,28.1-7.2,53.3-14.7,78.1c-22.9,76.2-45.4,152.8-91,219.6C1886.9,1264.6,1880.4,1263.5,1871.9,1264.4z"/>
<path d="M1424.8,965.8c-1.5,7.2-0.8,16.3-5,21.2c-14,16.4-28,33.8-45.1,46.5c-50.4,37.3-102.3,72.8-153.9,108.4
	c-9.3,6.4-20,11-30.5,15.1c-3.2,1.3-10.9-0.9-11.7-3.2c-1.5-4.5-1.4-11.4,1.2-15.1c3.8-5.3,10.2-8.9,15.8-12.8
	c60.6-42.7,121.1-85.4,181.8-127.9c15.7-11,32-21.1,48-31.7L1424.8,965.8z"/>
<path d="M2588.8,891.1c19.5-9.2,25.3,2.3,32.5,10.8c30.9,36.4,62,72.8,92.7,109.4c8,9.6,16.7,19.1,22.3,30
	c2.8,5.6-0.6,14.3-1.1,21.7c-7.1-1-16.4,0.4-20.9-3.5c-15.3-13.6-30.4-27.9-42.9-44c-25.8-33.2-50.2-67.6-74.5-102
	C2592.6,907.5,2591.6,899.3,2588.8,891.1z"/>
<path d="M1768.7,1455.3c1.9-18.9,56.9-126.7,71.2-138.5c4.1-3.4,11.5-2.8,18.1-4.1c-1.5,29-25,75.7-63.5,128
	C1788.7,1448.5,1785.1,1460.1,1768.7,1455.3z"/>
<path d="M1674.4,951.2c8.1,21.9-9.2,33.5-19.7,46.6c-30.4,37.9-43.4,46.4-67.6,48.3C1594.9,1018.4,1648.5,959.7,1674.4,951.2z"/>
<path d="M2530.1,789.5c38.6-0.2,49.8,20.7,31.5,54.1C2536.3,831.2,2531,822.5,2530.1,789.5z"/>
<path d="M1425.3,966.2c7.7-9,15.9-17.6,23-27c10.5-13.8,20.4-27.6,41-17.4c-7.2,31.8-26.7,44.9-64.4,44.1
	C1424.8,965.8,1425.3,966.2,1425.3,966.2z"/>
</svg>
