<?xml version="1.0" encoding="utf-8"?>
<!-- Generator: Adobe Illustrator 24.3.0, SVG Export Plug-In . SVG Version: 6.00 Build 0)  -->
<svg version="1.1" id="Layer_1" xmlns="http://www.w3.org/2000/svg" xmlns:xlink="http://www.w3.org/1999/xlink" x="0px" y="0px"
	 viewBox="0 0 4000 4000" style="enable-background:new 0 0 4000 4000;" xml:space="preserve">
<path d="M76.8,2259.8c-5.3-78.2,2.4-155.3,24.9-230.5c30.6-102.1,91.6-182.6,183.2-235.4c94.7-54.7,193-103.3,290.4-153.1
	c66.3-33.9,134-64.9,200.6-98.1c12.4-6.2,26.2-14.1,33.5-25.1c35.3-52.7,85.2-88.7,138.7-118.6c80.2-44.9,161.6-87.8,244.8-126.9
	c231.8-109,465.5-213.9,696.9-323.6c149.4-70.8,295.9-147.5,444.2-220.5c86.4-42.6,173.8-83,266.1-111.9
	c45.2-14.1,91.4-22.5,139-20.2c21.8,1,40.1-7.1,59.1-16.4c49-24,97.5-50.5,148.8-68.2c123.1-42.4,242-20.8,356.4,34.6
	c101.5,49.2,184.7,122.2,254.6,209c118.6,147.4,206.7,311.7,256.9,495.1c19.8,72.5,25.9,146.6,21,221.5c-1.3,19.6,1.8,35.1,15.2,51
	c49,58.4,52.8,122.4,19,189.8c-19.1,37.9-45.5,70.1-79.2,95.2c-78.2,58.1-156.3,116.5-236.5,171.7
	c-282.7,194.4-578.7,367.2-879.9,531c-235.6,128.1-472.6,253.8-711.3,376.2c-306,157-621.3,294-941.2,420.2
	c-65.4,25.8-131.1,49.6-202,54.2c-56.9,3.7-110.6-6.8-162.8-30.4C511.7,3264.6,400.6,3159.7,312,3030
	c-137.8-201.6-210.3-426.8-234.7-668.4C73.9,2328,76.8,2293.7,76.8,2259.8z M619.5,2483.5c35.2-8.2,70.4-16.4,101.9-23.7
	c6.7-27.8,8-55.7,20.2-77.4c12.1-21.5,35.2-36.7,53.4-54.6c-48.7-105.6-107.1-201.3-134.5-219.4c-21.8,15-16.7,38.2-17,59.3
	c-0.9,49.1-19.7,77.3-66.5,87c-28.5,5.9-41.4,20.9-46.1,47.2c-2.1,11.8-5.3,23.5-7.2,35.4c-6.5,42.2-12.8,84.4-18.8,126.6
	c-0.7,4.9,1.1,10.2,2.4,20.3c17.3-7.6,31.8-14.2,46.4-20.3c30.1-12.7,48.3-7,66.5,20.5c-17.5,10.4-33.5,24.6-57,14.4
	c-4.6-2-13.9,4.7-19.9,8.9c-14.7,10.2-19.1,25.7-21.1,42.7c-2.8,22.6-10.9,41.2-33.3,52.9c-10.8,5.6-19.9,17.6-25.7,28.8
	c-29.4,56.1-72.2,80.2-135.2,60.6c-4.1-1.3-9.3-2.9-12.8-1.4c-7.6,3.1-17,6.4-21.1,12.6c-16.6,24.8-7.9,53,19.3,64.9
	c13,5.7,26.6,10.1,40.2,14.3c19.9,6.2,34.2,18.5,43.7,37.1c15.4,30.2,21,61.3,15.9,95.3c-7,47.9,20,73.8,72.4,67.9
	c-5.3-32.6-20.8-63.8-11.6-98.7c9.6-36.4,35.8-58.7,61.7-83.3c-6.8-9.1-12.4-17-18.4-24.6c-5.7-7.2-11.9-14.1-23.1-27.5
	c-9.7,13.1-15.5,24.5-24.5,31.8c-5.3,4.3-17.9,5.7-23.4,2.2c-10-6.3-7.1-17.9-0.4-26c5.4-6.5,12.5-13.2,20.3-16.1
	c22.9-8.6,29.3-23.9,29.9-47.9c1.3-53.2,33.5-86.7,85.9-95.1c5.3-0.9,10.5-2.1,16.9-3.3c0.6-5.9,1.7-11.2,1.7-16.5
	c0.1-29.8,2.4-59.1,18.9-85.3C620.9,2490.8,619.6,2486.7,619.5,2483.5z M991.9,3263.4c17.8-5.5,30.4-8.3,42.1-13.2
	c161.1-68.6,323-135.6,482.9-206.8c231.1-102.9,457.4-215.7,681.7-332.7c326.3-170.1,648.1-348.4,963-538.9
	c186.6-112.9,369.5-231.3,545.4-360.3c38.8-28.4,79.9-55.2,106.2-97c44.9-71.3,39.4-119.4-13.9-175.1c-31.5-33-67.1-63.6-105.1-88.7
	c-158.6-104.9-328.4-188.5-505.6-257.3c-153.5-59.5-310.9-106-471.8-139.9c-69.5-14.6-140.4-23-210.5-35.1
	c-17.5-3-25.6,3.1-32.1,18.9c-18.2,44.6-36.9,89-57.3,132.6c-25.5,54.5-52.2,108.5-79.8,162c-22.5,43.7-61,64.3-108.9,68.7
	c-16.3,1.5-32.8,2.2-49.2,1.8c-60.2-1.5-120.4-4.1-180.7-5.3c-109.5-2.1-219.1-3.9-328.6-4.9c-32.5-0.3-33.1,1.6-44,32.5
	c-16.7,47.5-34.4,94.7-50.2,142.5c-58,175.7-115.2,351.7-173,527.4c-78.7,239.2-156.8,478.5-236.9,717.3
	c-35.1,104.8-73.3,208.6-112.2,312.1C1036.7,3169.1,1014.8,3212,991.9,3263.4z M1581.9,1394.5c-11.7,0-20.3-0.6-28.7,0.1
	c-73.1,6.4-146.3,11.4-219.1,20.1c-119.9,14.3-237.9,37.7-348.6,88.4c-105.5,48.3-211.2,96.2-315.7,146.6
	c-103.5,49.9-205.7,102.6-308.2,154.4c-10.7,5.4-23.8,9-28.1,21c29.4,4.4,57.8,6.2,85,13.1c70.9,18,128.1,59.8,180.7,109.1
	c113.3,106.3,187.4,239.6,252.5,377.3c58.4,123.7,102.2,253.6,132.2,387.8c22.1,98.8,33.3,198.6,35.8,299.6
	c0.5,20,1.1,39.9,1.6,59.9c2.4,0.2,4.8,0.3,7.2,0.5C1212.6,2514.2,1396.7,1956,1581.9,1394.5z M3794.5,1455.7
	c0-11.9,0.8-18.3-0.1-24.5c-9.2-58.3-13.6-117.9-28.9-174.6c-49.4-182.3-137.9-344.7-261.3-487.9c-71.1-82.5-154-149-254.3-192.6
	c-110.1-47.9-220.8-51.9-330.6-0.5c-70.4,32.9-139.5,68.4-208.9,103.4c-29.6,15-56.2,35-74.4,63.2c-30.8,47.8-60.8,96-89.3,145.2
	c-15.1,26.1-26.5,54.4-41.1,85C2972.6,1035.2,3400.7,1190.3,3794.5,1455.7z M2637.9,660c-3.9-1.6-6-3.3-7.5-2.9
	c-8.4,2.1-16.9,4.4-25.1,7.4c-124.9,45.2-242.5,106.2-361.3,164.8c-166,81.8-332.2,163-499.5,242c-152.4,72-306.8,139.8-459.5,211.2
	c-86.2,40.3-170.8,84.1-255.9,127c-18.5,9.3-35.6,21.3-53.4,32c52.1-11.8,101.8-28.4,152.5-40.6c159.3-38.3,321.8-53.6,485.1-57.2
	c118.2-2.6,236.6,1,354.9,2.4c80,0.9,159.9,2.1,239.8,4.3c45.9,1.3,77.6-18.6,97.1-59.2c20.4-42.4,41-84.7,60.7-127.5
	c37.6-81.5,72.5-164.3,112.4-244.7C2523.3,828,2568.5,736.7,2637.9,660z M407.9,1894.8c-30.4-12-56.8-9.6-82.4-6.7
	c-74.8,8.5-133.9,41.6-162.4,114.9c-12.2,31.4-22.2,64.3-27.9,97.5c-22.6,132.3-13.1,264.3,10,395.4
	c18.9,107.3,55.7,208.9,98.8,308.9c63.9,148.6,154.9,276.5,277.8,381.5c41.7,35.6,85.7,68.2,136.1,91
	c67.7,30.6,137.1,45.1,210.4,22.6c37.5-11.5,66.2-33.8,87.4-69.4c-16-4.5-28.5-9.7-41.3-10.9c-8.7-0.8-20.7,1.1-26.5,6.7
	c-33.9,32.6-75.3,38.3-118.9,34.8c-35.4-2.8-62.2-19.5-74.6-54.9c-4.3-12.4-8.7-24.8-13.8-36.9c-11.4-27.1-15.5-29.3-44.5-27.9
	c-23,1.1-46,1.4-68.9,2.8c-44.2,2.7-78.1-38.2-81.9-70.9c-1.1-9.5-2.8-19-4.2-28.5c-9.6-2.1-17-4-24.4-5.3
	c-58-10.2-98.7-59.6-97.1-118.4c0.2-8.7,1.3-17.5,2.2-26.2c4.6-45.3-0.2-52.2-42-68.6c-16.2-6.3-32.6-13.7-46.5-23.8
	c-46.2-33.4-59.1-126,10.1-151.5c3.6-1.3,6.5-4.8,11.4-8.5c-6.9-9-12.4-17-18.7-24.2c-25.6-29.2-36.4-61.9-24.9-100.3
	c1.9-6.2,1.7-13,3.2-19.4c3.4-14.8-1.1-25.6-14.6-32.9c-8.7-4.7-17-10-25.5-15c-19.5-11.7-33.4-27.5-40.8-49.5
	c-17.3-51.4-2.9-97.8,41.5-130.5c9.2-6.8,18.4-13.6,27.6-20.4c-12.6-19-24.4-33.6-32.6-50.1c-7.6-15.4-16.5-32.9-15.9-49.1
	c1.6-45.8,4.4-92,13.2-136.8c10-51.1,54.3-84,106.4-86.6c14.2-0.7,28.5,0.2,42.7-0.1C377.8,1926.8,392.9,1916.1,407.9,1894.8z
	 M467.9,2184.7c-13.7,5.9-26.4,16.6-37.6,15.2c-40.2-5-50.5,18.8-55.7,50.3c-0.3,2.1-1.4,4.2-2.2,6.2c-15.6,39-29.9,48.3-71.7,48.2
	c-11.9-0.1-24.1,0.5-35.7,2.8c-24.7,5-34.9,24.1-42,45.8c-6.8,21.1,2.8,36.4,17.9,48.9c12.6,10.4,25.7,20.6,39.9,28.7
	c25.1,14.3,36.2,33.9,28.8,62.6c-1.4,5.3-1,11-2.3,16.2c-10.6,41.8,3.3,74.9,35.1,102.3c8.3,7.1,15.3,15.7,22.8,23.6
	c9.8,10.4,19.1,9,27.6-1.4c3.5-4.2,6.9-8.6,9.4-13.4c14.7-28.7,32.7-54.1,61.7-70.6c5.3-3,10.2-12.4,9.7-18.4
	c-1.5-19.2-5.7-38.1-8.8-56.5c-85.1-4.2-109.7-23.3-105-80c3.5-42.6,27.4-65.3,67.2-62c-2.9,7.4-5.4,14.4-8.4,21.1
	c-8.2,18.3-5.7,36.4,1.6,54.1c4.3,10.3,13.4,16.4,23.6,12.3c6.8-2.7,12.1-11,16-17.9c2.3-4.2,1-10.7,0.7-16.1
	c-2.1-36.8,3.4-72.9,21-104.9C501.6,2245.5,495.7,2215.4,467.9,2184.7z M612.8,2828.2c-83.1,11.6-100,68.8-79,115.6
	c12.1,27,16,54.2,10.5,83.1c-2.3,11.8-4.5,23.7-5.5,35.6c-1.7,19.5,3.6,27,23.1,27.2c25,0.2,50.2-1.4,75.2-4.2
	c44-4.9,79.5,16.7,93.4,58.9c2.4,7.2,3.7,14.8,5.4,22.3c9.1,40,18.3,47,58.4,44c6.5-0.5,13-1.7,19.6-2.1
	c16.8-1.1,26.6-11.1,28.8-26.5c4.3-30.2,8.9-60.7,9.3-91.1c0.2-14.1-5.7-31-14.8-41.8c-19.9-23.7-36.1-48.7-42.7-73.9
	c-39.1-4-75.2-4.6-109.9-12.1c-44.8-9.8-60.9-31.9-66.2-78.1C616.2,2866.9,614.7,2848.6,612.8,2828.2z M848.1,2826.9
	c-3.3-1.8-5.1-3.3-7.1-3.7c-87.4-15.6-126.8-75.8-102.6-161.6c7.3-25.9,22-49.7,33.8-74.2c14.3-29.5,8.4-50-22.5-59.1
	c-19.1-5.7-41.1-6.8-60.9-4c-28,3.8-33.9,12.7-36.3,41.6c-1.3,16-0.2,32.2-0.2,48.8c5.7,2.6,10.8,4.5,15.6,7
	c15.5,8.2,20.3,20.8,13.1,34.3c-6.4,12-18.1,15-33.3,5.2c-27.8-18-54.9-11.4-80.6,2.1c-22.7,12-22.6,36-22.1,57.9
	c0.7,26.9,11,36.7,37.7,40c17.3,2.1,35,3.2,51.8,7.8c31.6,8.6,42.4,25.5,39.9,58.3c-0.8,10.9-3.6,21.6-4.7,32.5
	c-3.2,33.2,9.7,50.7,43.2,52.3c31.5,1.5,63.3-0.7,94.8-3.3c8.5-0.7,20.3-7,23.8-14C841.9,2873.5,850.1,2850.9,848.1,2826.9z
	 M572.2,2004c-29.3,20.7-56.9,32.7-88.3,34.8c-52.3,3.6-68.1-7.7-80.7-58.7c-0.5-1.9-2.4-3.3-3.8-5.2c-28.9,3.7-58.2,6.2-87,11.5
	c-33.1,6.1-54.3,25.9-60.9,60.2c-5.8,29.8-2.5,36.6,27.9,36c34.2-0.8,59.1,11.1,75.6,41c2.1,3.8,5.7,6.7,8,10.3
	c10,15.3,23.3,18.3,39.7,11.5c16.1-6.7,32.1-13.7,48.6-19.5c26.4-9.3,40.2-6.1,57.3,16.4c13.2,17.2,22.5,37.3,35.2,55
	c4.3,6,14.5,12.9,20.2,11.6c8.3-1.8,16.7-9.6,21.7-17.1c3.7-5.6,2.4-14.8,2.4-22.4c-0.2-62.3-0.2-62.3,38.7-107
	C609.5,2043.9,592,2025.1,572.2,2004z M822.4,2393.3c-51.2,19.9-59.7,57.4-24,92.7c7,6.9,14,13.9,20.1,21.6
	c21.6,27.2,27.1,56.8,11.6,88.9c-5.2,10.8-11.1,21.4-16.3,32.2c-8.1,16.7-17.6,33-23.5,50.4c-12,35.2-1.6,61.1,28.5,82.7
	c15.7,11.3,30.2,11.2,45.2,0.6c12.5-8.8,24.5-18.3,36.7-27.6c28.6-21.9,30.5-23.9,19.6-57.7c-27.5-85.3-56.3-170.3-84.9-255.2
	C832.1,2411.9,826.7,2402.7,822.4,2393.3z M945.4,2781.5c-46.9,16-48.5,18.6-48.3,59.9c0.2,40.5-5.6,78.8-43.8,103.3
	c-2.4,1.5-3.2,5.4-6.8,11.8c9.3,15.1,17.1,33.7,29.9,47.7c29,31.6,40,63.2,25.1,107c-15.1,44.3,0.3,60.1,47.1,60.8
	c4,0.1,8-2.5,13.9-4.5C969.2,3038.2,980.9,2909.2,945.4,2781.5z M248.4,2129.9c-1.1,9.4-2.8,13.3-1.6,15.6
	c17.5,32.7,34.7,65.5,53.5,97.4c6.3,10.8,22.9,6.3,23.5-7.2c1-22.4-0.6-45.5-5-67.5c-1.8-8.9-12.6-18.3-21.6-22.8
	C282.9,2138.6,266.7,2135.6,248.4,2129.9z M427.8,1959.8c29,26.2,69.2,29.4,97.5,9.2c-0.6-2-0.7-4.6-2-6c-4.3-4.9-8.9-9.7-13.7-14
	C467.2,1911.4,464.2,1911.8,427.8,1959.8z"/>
<path d="M2775.4,1999.6c-62.5,0.1-110.9-48.1-110-109.5c0.8-59.4,52.5-109.3,112.7-108.7c59.4,0.5,104.1,48.7,103.9,111.7
	C2881.8,1958.3,2840.5,1999.5,2775.4,1999.6z M2788.4,1881.7c19.5,0.5,34.2-12.3,34.9-30.4c0.6-17-12.7-32.4-28.8-33.4
	c-19.4-1.2-36.8,14.5-36.7,33.1C2757.7,1868.7,2770.2,1881.2,2788.4,1881.7z"/>
<path d="M1914.2,2215.7c0.2-61.6,47.1-109.9,106.5-109.6c58.4,0.3,105.4,50.3,104.5,111.4c-0.9,60.3-44.8,104.2-103.4,103.5
	C1962.2,2320.2,1914,2273.1,1914.2,2215.7z M1982.9,2223.1c20.6,0.1,34.9-12.2,35-30.2c0.1-17.9-15.2-34-32.4-34.3
	c-17.5-0.3-31.4,14.5-32,34.1C1952.9,2212.2,1963.2,2222.9,1982.9,2223.1z"/>
<path d="M1975.8,2519.4c-20-3.2-36.5-4.3-52.1-8.6c-46.5-12.8-63.7-58.7-35.3-97.5c11.3-15.4,26.5-29.7,42.9-39.2
	c54.9-31.7,114.4-41.1,176.6-27.5c25.4,5.6,48.8,17.9,55.3,45c6.6,27.8-5.5,53.3-27.5,69.3c-23.5,17.1-49.8,31.9-77,41.6
	C2031.4,2512.3,2001.4,2514.5,1975.8,2519.4z M2072.5,2379.2c-16.5,0.7-25.3,0.5-33.9,1.6c-36.1,4.8-71,13.5-100.9,35.7
	c-13.3,9.9-26.9,21.4-21.6,40.6c5.6,20.2,23.9,20.7,40.2,20.2c20.7-0.6,41.8-1.7,61.9-6c33.1-7.2,65.8-17,92.9-39
	c23-18.6,20.4-38.4-7.5-48.3C2091.5,2379.7,2077.9,2379.9,2072.5,2379.2z"/>
<path d="M2980.4,1931.1c64.3-0.3,91.8,35.3,73.2,84.4c-8.3,21.8-22.3,43-38.4,60.1c-37.8,40.2-85,64.7-140.3,72.1
	c-24.9,3.3-48.7,1.6-65.4-20.3c-17.9-23.3-18.1-48.8-4.6-74.1C2844.8,1978.5,2911,1943.5,2980.4,1931.1z M2867.6,2110.8
	c3.5-0.4,9.1-0.4,14.3-1.8c51-13.8,93.2-41.1,126.2-82.4c4.7-5.9,8.5-12.8,11-19.9c8.2-23.6-0.9-38.4-25.1-34.9
	c-24.3,3.4-48.9,10.7-71.3,20.9c-35.2,16-64.7,40.6-82.8,75.9C2826.1,2094.9,2836.7,2111.4,2867.6,2110.8z"/>
<path d="M2588.8,2139.4c-1.3,74.2-42.8,131.5-107.7,148.7c-72.9,19.3-142.5-17.5-176.7-76.1c-3.7-6.4-7.8-14.6-6.9-21.3
	c1-7.6,6-17.8,12.1-20.7c5.6-2.7,17.4,0.4,22.4,5.3c10.8,10.6,18.4,24.4,28.5,35.9c36,41,86.3,49.1,133.5,22.3
	c39.1-22.2,51.4-57.7,49.5-99.9c-0.6-14.2-3.2-28.3-4.5-42.5c-0.9-10.2-0.5-20.6,12.3-23.2c12-2.4,23.2,1.7,26.5,13.8
	C2582.9,2100.6,2585.3,2120.2,2588.8,2139.4z"/>
<path d="M1504.8,2018.1c-2.3,14.2-2.8,24.9-5.9,34.8c-23.9,74.9-48.1,149.6-72.5,224.3c-4,12.2-6.7,27-29.8,19
	c1.7-11.7,1.7-24.7,5.5-36.4c22.9-70.6,46.4-140.9,70.4-211.1C1476.8,2036.2,1479.5,2020.5,1504.8,2018.1z"/>
<path d="M3145.7,1235.2c12,1.4,22.1,0.4,30.3,3.9c74.2,31.8,148.1,64.3,222,96.8c3.9,1.7,8.5,4,10.6,7.4c3.2,5,4.4,11.2,6.5,16.8
	c-6.5,2.3-13.6,7.2-19.5,6.1c-9.4-1.7-18-7.4-27-11.4c-64.8-28.8-129.6-57.6-194.3-86.4C3161.9,1263,3146,1261,3145.7,1235.2z"/>
<path d="M1350,2488.1c-1.9,12.4-2.1,25.3-5.9,37c-18.7,58.3-38.4,116.3-57.7,174.4c-3.1,9.3-5.5,18.9-9.2,28
	c-4.4,10.7-12.2,10.4-20.8,6.1C1258.3,2681.3,1318.8,2509.1,1350,2488.1z"/>
<path d="M1527.2,1908.7c10.4-74.2,39.7-143.2,64.5-213.4c2.4-6.8,9.5-12,16.2-20.3c8.5,29.1-23.9,154.6-55.1,221.9
	c-3.1,6.7-10.1,11.5-15.3,17.2C1534.1,1912.4,1530.6,1910.6,1527.2,1908.7z"/>
<path d="M2895.4,1162c-28.5,10.4-94.7-1.3-183.9-28.8c-9.2-2.8-17.2-9.6-25.7-14.6c0.5-3,0.9-5.9,1.4-8.9c8.5-1.7,17.8-6.4,25.5-4.6
	c52.9,12.5,105.6,26.2,158.1,40.3C2878.2,1147.4,2884.1,1154.2,2895.4,1162z"/>
<path d="M3611.3,1483.8c-33.8-11-59.9-30.7-88.1-46.2c-4.7-2.5-9.7-6.3-12-10.8c-2.1-4-2-10.5-0.2-14.7c1.1-2.6,8.3-5,11.3-3.8
	c33.7,13.5,65.2,30.7,88.7,59.5C3613,1470.3,3611.3,1475.7,3611.3,1483.8z"/>
<path d="M1629.5,1616.5c-3.4-40.4,20.1-100.5,48.9-118.9c4.9,39.6-18,69.5-26.2,102.6C1649.7,1609.9,1644.5,1618.4,1629.5,1616.5z"
	/>
<path d="M2501.4,1077.6c26.9,1.4,53.8,2,80.5,4.9c6.5,0.7,16.7,8.5,17.2,13.8c1.2,11.8-10,12.3-18.7,10.9
	c-22.4-3.6-44.7-7.6-66.9-12.4c-5.4-1.2-9.9-6.3-14.8-9.7C2499.7,1082.7,2500.6,1080.1,2501.4,1077.6z"/>
<path d="M3058.7,1211.5c-30.1,12.4-55.1-1.8-80.7-11.6c-2.7-1-5.1-7.5-4.5-10.9c0.6-3.3,5.5-8.5,8.1-8.2
	C3010.1,1183.2,3039,1185.1,3058.7,1211.5z"/>
<path d="M3723.2,1562.3c-34.5-3.2-51.2-17.5-54.4-44.3C3697,1518,3716.1,1532.9,3723.2,1562.3z"/>
<path d="M1357.9,2435.5c-5.7-21.8-0.5-37.9,8-52.9c2.1-3.6,10.9-7.6,13.1-6.1c4.4,3,9.8,10.4,8.9,14.6
	C1384.1,2407.5,1380.5,2425.1,1357.9,2435.5z"/>
<path d="M625.3,1890.4c24.3,2.2,24.3,2.2,71.5,58.4c75.8,90.3,75.8,90.3,73.6,117c-7.3-3.7-14.7-5.6-19.6-10.2
	C720.6,2027.8,632,1911.6,625.3,1890.4z"/>
<path d="M880.7,2249.5c5.2,1,13.2,0.4,14.6,3c19.6,40.2,38.9,80.6,56.9,121.6c3.8,8.7,2.4,19.8,3.4,29.7c-2.4,1-4.8,1.9-7.1,2.9
	c-5-4.6-11.5-8.3-14.8-13.8C908,2350.2,878.9,2271.7,880.7,2249.5z"/>
<path d="M1020.8,2588c-29.1-17.7-44.2-61.6-39.1-100.9c5.9,1.9,14.8,2.2,16.3,5.7C1010.5,2521.3,1020.4,2550.6,1020.8,2588z"/>
<path d="M846.4,2191.2c-24.7-12.8-31.3-33.6-35-57.6C840.3,2135.8,852.8,2155.6,846.4,2191.2z"/>
<path d="M2072.1,1263.8c-7,22.8-21.2,19.3-31.9,19.4c-53.5,0.7-106.9,0.3-160.4,0.2c-18.6,0-37.2,0.4-55.6-1.3
	c-5.9-0.6-11.3-7.4-16.9-11.4c5.1-4.4,9.9-9.3,15.4-13c2.4-1.6,6.4-1,9.6-0.9c66.6,0.5,133.1,0.8,199.7,1.9
	C2044.6,1258.7,2057.2,1261.7,2072.1,1263.8z"/>
<path d="M1483.9,1277.9c9.6-2.9,19.1-7.8,28.8-8.4c57.6-3.8,115.2-6.9,172.9-9.2c6.7-0.3,18.3,5.4,19.7,10.5
	c3.7,13.4-8.2,15.7-18.3,16.2c-60.9,2.8-121.8,5.5-182.8,7.5c-6.6,0.2-13.3-4-20-6.2C1484.2,1284.8,1484,1281.4,1483.9,1277.9z"/>
<path d="M2233.5,1196.8c30.4-47.4,59.9-93.8,90.2-139.8c2.3-3.5,9.3-3.8,17-6.6c0,8.7,1.8,15.4-0.3,20.5
	c-17.9,42.6-42.3,81.4-72.2,116.6C2259.9,1197.3,2250.4,1206.8,2233.5,1196.8z"/>
<path d="M2430,885.2c-15.3,31.1-30.3,62.3-46.2,93c-1.9,3.8-8.7,5.1-16.9,9.5c-0.9-10.2-3.9-17.9-1.7-23.6
	c9.3-24.5,19.6-48.7,30.7-72.4C2402.2,878.3,2412.5,872,2430,885.2z"/>
<path d="M2506.7,735.3c-6.2,36.2-19.1,64-40.5,87.5c-3.4,3.7-13.3,1.4-20.2,1.9c0-6-2.2-13.4,0.5-17.7c14-22.1,29-43.5,44.2-64.7
	C2492.7,739.5,2497.8,739,2506.7,735.3z"/>
<path d="M1355.9,1316.5c-4.7-3.7-12.7-7-13-10.9c-0.3-4.6,5.1-12.1,9.8-14c9.8-4,20.7-6,31.3-7c4-0.3,12.1,5,11.9,7.1
	c-0.5,5.4-3.4,13.1-7.6,15.1C1378.9,1311.4,1368,1313.1,1355.9,1316.5z"/>
<path d="M2101.7,1266.5c17.1-6.2,27.7-11.4,39-13.7c4.6-0.9,10.4,4.3,15.7,6.7c-2.8,5.2-4.6,13.6-8.7,14.9
	C2134.7,1278.6,2120.7,1281.7,2101.7,1266.5z"/>
<path d="M583.4,2394.4c-11.5-39.9,49.8-106.2,105.8-117.7c9.2,9,6.3,18.1-1.4,25.5c-8.6,8.3-18.2,15.8-28,22.7
	c-23.3,16.5-46.2,33.1-61.6,58.2C595.3,2387.9,588.9,2390.4,583.4,2394.4z"/>
<path d="M709.7,3020.5c4.4,2.9,13.6,6.9,19.8,13.6c18.5,20.1,36.6,40,63.5,49.7c5.6,2,13.1,12.1,12,16.7
	c-1.6,6.8-9.1,15.2-15.8,17.2c-9.7,2.8-24.7,4.8-30.7-0.5c-24.2-21.4-45.8-45.6-68.2-69c-1.4-1.4-1.9-3.9-2.4-6
	C685,3029.2,691.8,3020.5,709.7,3020.5z"/>
</svg>
