<?xml version="1.0" encoding="utf-8"?>
<!-- Generator: Adobe Illustrator 24.3.0, SVG Export Plug-In . SVG Version: 6.00 Build 0)  -->
<svg version="1.1" id="Layer_1" xmlns="http://www.w3.org/2000/svg" xmlns:xlink="http://www.w3.org/1999/xlink" x="0px" y="0px"
	 viewBox="0 0 4000 4000" style="enable-background:new 0 0 4000 4000;" xml:space="preserve">
<path d="M2424.7,651c18,2.6,30.8,5.3,43.7,6.1c204.3,12.8,406.7,41.2,607.2,81.2c178.1,35.5,353.4,81.6,518.9,158.9
	c75.9,35.5,147.7,77.9,211.4,132.8c51.2,44.2,93.7,94.8,110.1,162.5c4.8,19.8,8.8,40.7,8.2,60.9c-9.2,293.8-61.5,579.4-166.4,854.4
	c-73.3,192.2-171.7,370.9-298.7,533.1c-125.9,160.8-275.1,295.4-451.2,399.6c-5.2,3.1-10,7-15.5,9.4c-25.4,11.3-37.2,31.1-43.6,58
	c-8.9,37.5-21.5,74.3-34.5,110.6c-17.7,49.7-54.2,81.7-101.7,102.8c-75.5,33.5-154.8,55.2-234.8,74.2
	c-115.6,27.5-233.4,41.1-351.5,50.6c-155.9,12.5-311.9,13.1-467.8,0.5c-166.7-13.5-331.8-37-491.7-88
	c-41.3-13.2-81.1-31.4-120.5-49.6c-50-23-81.6-63.8-99.3-114.9c-11.1-32-21.7-64.4-28.3-97.5c-4.7-23.8-15.6-38.2-36.3-50
	c-192.9-110-355-256-491.2-430.2c-145.2-185.8-250.3-393.8-323-617.6c-68.3-210.4-108-426.5-117.9-647.8c-1.8-41-6.9-82.5-2.6-123
	c9.4-90.1,62.9-155.3,131.6-209c98.3-76.9,209.9-129,326.2-171.7c191.5-70.2,389.4-114,590.5-145.8
	c201.1-31.8,403.7-45.5,606.7-55.7c28.9-1.5,49.1-9.8,66.9-34.2c30.1-41.2,75.7-63.9,121.2-83.5c43.1-18.6,88.7-31.5,133.2-47
	c61.6-21.5,123.2-43.2,184.7-64.8c43.5-15.3,87.3-28.7,134.3-26.6c70.4,3.2,120.1,44.4,130.7,108.6c5,30.1-4.3,57.4-16.8,84
	C2446.9,603.7,2436.8,625.2,2424.7,651z M121,1449.8c-2.8,0.8-5.6,1.6-8.4,2.3c3.3,27,6.4,53.9,9.8,80.9
	c24.6,196.4,68.3,388,142.2,572.2c116,289.1,286.3,538.8,526.2,740.2c216.4,181.7,466,291,740.5,347.5
	c99.5,20.5,200.2,33,301.9,38.6c219.8,12.1,437.4-0.3,652.9-46.9c315.9-68.3,588.4-215.6,815.4-446
	c163.5-165.9,283.1-361,375.8-573.3c88.7-203.1,139.1-416.8,170.8-635.4c3.8-26.4,5.2-53.2,8.3-85.5c-10.3,6.7-14.7,8.7-17.9,11.9
	c-74.1,73.9-164.7,122.1-258.3,165.3c-159,73.4-327.2,118.3-497.6,154.8c-251.3,53.9-506.2,80.3-762.5,92.1
	c-348.5,16-696.5,8.8-1043.4-33c-233.3-28.1-463.9-68.6-688.6-138.5c-136.8-42.6-268.9-95.7-385.1-181.9
	C174.8,1494.4,148.2,1471.6,121,1449.8z M3596.4,1368.1c-36.1-19.3-63.1-35.3-91.3-48.7c-112.1-52.9-230.1-87.8-350.3-116.8
	c-125.9-30.4-253.2-52.7-381.4-70c-18.2-2.5-37.4-8.3-56.4,2.3c1.2,7.4,2.1,13.3,3.1,19.2c16.9,96.9-17.9,162-107.9,201.1
	c-120.1,52.2-244.5,51.7-370.4,28.4c-6.4-1.2-16.1-9.6-16-14.6c0.1-6.5,7.1-15.2,13.4-18.7c6.8-3.7,16.4-3.1,24.8-3.3
	c29-0.8,58.1-1,87.1-1.6c72.9-1.5,144.5-9.7,213.7-35.1c101.3-37.3,127.3-92.9,90.1-194.8c-21.6-59.2-57.3-108.9-101.6-152.8
	c-37.8-37.5-77.2-73.4-114-111.7c-63.9-66.6-99.6-159-47.5-262.8c9.7-19.4,18-39.7,24.6-60.4c9.1-28.4,2-50.5-23.8-65.7
	c-14.9-8.8-34-16.3-50.7-15.2c-33.4,2.2-67.4,7.2-99.2,17.2c-73.8,23.1-146.4,49.9-219.5,75.1c-29.7,10.2-59.7,19.7-89.3,30.1
	c-88.1,31-152.7,86.7-183.9,177c-9.1,26.3-18.3,52.5-26.5,79.1c-22.5,72.8-66.6,127.7-132.5,166c-32.4,18.8-63.9,39.2-94.9,60.2
	c-28.7,19.5-48.5,46.6-61.3,79.1c-30.1,76.3-10.4,112.4,70.6,123c38.2,5,77.4,2.9,115.7,7.7c41.7,5.2,85.3,8.7,123.9,23.7
	c74.7,29,148.6,58,229.1,65.9c8,0.8,19.5,7.9,21.8,14.6c4.7,13.8-8.8,17.7-19,21.2c-7.9,2.7-16.4,5.6-24.6,5.3
	c-27.7-0.8-56.4,1-82.9-5.6c-43.2-10.7-85.5-25.8-127.2-41.7c-43.5-16.6-87.6-27.1-134.3-26.3c-16.9,0.3-33.9,0.2-50.8-1
	c-42.3-2.8-84.4-7.2-123.3-26.4c-50.5-24.9-74.4-73.8-63.5-129c2.7-13.8,4.7-27.7,7.4-44c-12.4,0-20.7-0.8-28.7,0.1
	c-49.2,5.9-98.3,12.9-147.6,18.2c-184.4,19.6-364.9,58.4-542.9,110.1c-81.5,23.7-160.6,53.3-235.6,93.3
	c-14.4,7.7-27.8,17.2-46.1,28.7c29.8,25.9,58.3,43,88.3,57.7c143.5,70.2,297,108.9,452.6,139.8c250.9,49.8,504.9,73.9,760.1,85.2
	c244.3,10.8,488.6,11.4,732.8-5c247.7-16.7,493.6-44.7,735.7-101.8c119.2-28.1,236.6-60.3,346.7-115.1
	C3526.2,1412.8,3558.4,1394.8,3596.4,1368.1z M2426.3,713.4c15.1,61.9,21.9,67.2,76,69.9c33.8,1.6,67.9,2.5,101.3,7.2
	c165.1,23.3,330.7,43.2,493.8,79.7c131.3,29.4,259.8,66.7,383.5,120c72.8,31.4,141.2,70.2,194.2,130.5
	c66.6,75.8,75,154.9,13.1,233.1c-17,21.6-37.4,41.3-59.1,58.2c-80.5,62.4-173.7,100-269.1,132c-169.1,56.7-344.4,87.3-519.7,116.1
	c-185.3,30.5-372.6,42.5-559.9,48.9c-289.2,9.8-578.2,4.9-866.8-19c-211.3-17.5-420.2-48.8-626.9-95.8
	c-127.9-29.1-251.9-68.8-367.8-131.3c-49.2-26.5-95.3-57.4-131.5-101.2c-53-64.2-58.2-137.9-14.2-208.1
	c27.6-44.1,66.5-76.3,109.4-104.3c100.5-65.5,212.2-104.8,326.1-138.1c235.5-68.7,477.2-102.1,720.9-122.9
	c75.9-6.5,152.1-9.6,228.2-14c13.5-0.8,27.6-0.1,32.2-16.8c4.8-17.1,8.8-34.5,13.8-54.7c-16.7,0-29.8-0.9-42.8,0.1
	c-112.1,8.7-224.3,16.6-336.2,27c-134.8,12.6-268.8,31.9-401.5,59.3c-141.1,29.1-280.2,65.2-414.9,116.6
	c-100.9,38.5-197.7,85.1-284.9,149.9c-41.3,30.7-77.4,65.9-102,111.5c-28.1,51.9-32.4,106-10.8,161.1
	c17.6,44.9,47.2,81.5,83.6,112.5c48.1,41,101.1,74.7,157.5,103.2c156.5,79.2,323.2,129,493.6,166.1
	c259.3,56.5,522.4,87.2,787.2,101.1c365.6,19.2,730.4,11,1094.1-34.1c198.3-24.6,394.4-58.9,586.2-116.4
	c123.2-37,242.3-83,354.7-146c60.7-34,117-74.1,159.6-129.5c58.1-75.5,61.5-148.4,17.2-226.4c-24.3-42.8-58-77.2-97-106.7
	c-78.9-59.5-166.4-103.1-258-138.9c-138.9-54.2-281.8-94.2-428.5-121.4c-196.2-36.4-392.9-69.6-592.7-78.3
	C2455.5,713,2442.5,713.4,2426.3,713.4z M1659,842c-1.5-3-3.1-6.1-4.6-9.1c-12.8,0-25.7-0.7-38.5,0.1c-61.5,4-123,8.1-184.4,12.8
	c-200.2,15.3-398.6,42.8-594,89.7c-121.2,29.1-240.6,63.7-352.7,119.6c-56.5,28.2-110.2,60.9-153.3,107.9
	c-41.4,45.1-42.2,109.5-0.9,160.7c11.9-5.9,24.6-11.9,37.2-18.3c33.3-17,65.6-36.4,100-50.8c215.7-90.3,443.1-134.4,673-167.5
	c84.9-12.2,170.5-19,255.7-29.3c11-1.3,25-6.4,31.2-14.5c28-37,66.9-58.6,105.6-81.1c38.9-22.6,75.8-47.8,103.1-84.4
	C1644.8,866.5,1651.5,853.9,1659,842z M2516.6,841.5c4.1,8.9,4.5,11.6,6.2,13c64.1,56.2,120.9,118.6,161.8,194
	c8.4,15.6,20.6,21.7,37.9,23.2c126.7,11.4,251.5,34.4,375.5,61.6c181,39.8,359.5,87.6,520.7,184.1c1,0.6,2.1,1.1,3.2,1.8
	c12.7,7.4,23,4.6,31.1-7.4c19.8-29.6,29.3-60.5,15.6-95.9c-15.3-39.7-40-73.2-74.8-95.9c-47.4-30.9-96.4-60.2-147.4-84.5
	c-90.9-43.3-188.2-69.1-285.6-93.9c-185.6-47.2-374.8-73.3-564.8-93.9C2571,845,2546,843.8,2516.6,841.5z M1078.9,3099.5
	c13.7,63.4,24.7,117,76.4,150.4c48.2,31.1,101.6,50.9,156.4,66.3c169.7,47.7,343.5,70.6,519.1,78.2c226.5,9.8,452.3,2.1,675.7-41.9
	c97.6-19.2,192.8-45.2,284.3-84.9c69.4-30.1,89.5-89.6,99.2-156.6c0.2-1.2-3-2.9-6.2-5.8c-282,139.2-584.8,186.6-896.1,187.4
	C1674.7,3293.5,1372.3,3238.3,1078.9,3099.5z"/>
<path d="M2688.4,2375.4c3.1,72.2-47.2,152.4-153.5,152.7c-80.3,0.2-146.4-73-144.7-155.7c1.7-84.3,68.6-149.5,151.7-147.8
	C2628.6,2226.4,2689.3,2288.8,2688.4,2375.4z M2579,2375.4c28.6-0.7,48.6-18.8,47.8-43.2c-0.9-25.7-24.6-49-49.1-48.2
	c-24.9,0.7-45,21.7-45.2,47C2532.3,2356.7,2552.5,2376,2579,2375.4z"/>
<path d="M1397.4,2530.8c-77.8-0.2-145.6-68.7-145-146.3c0.7-87.6,65-155.6,147.7-156.3c83.4-0.7,152,68.6,151.1,152.7
	C1550.4,2464.9,1482.5,2531,1397.4,2530.8z M1367.3,2378.9c28-1,45.1-18.6,44.5-46c-0.6-26.8-20.2-48-44.2-47.6
	c-26.7,0.4-48.3,22.9-47.2,49C1321.7,2361.1,1341.4,2379.8,1367.3,2378.9z"/>
<path d="M2720.2,2521.2c30.3,7.2,62.1,10.7,90.6,22.4c67,27.7,78.4,96.4,24.1,145.5c-20.1,18.2-45.8,32-71.3,41.9
	c-66.1,25.7-134.7,39.4-205.8,26c-18.7-3.5-37.6-9.8-54.5-18.5c-41.9-21.5-54.5-66.9-31-108.1c17.3-30.4,43.8-51.2,75-66.1
	C2601.6,2538.6,2659.2,2526.8,2720.2,2521.2z M2607,2716.6c62.8-2,121.7-17.7,176.1-48.3c21.1-11.9,42.5-28,35.5-56.8
	c-6.4-26.4-31.9-32.7-54-35.1c-29.7-3.3-60.3-3.5-89.9,0c-49.4,5.8-96.4,21.4-137.6,50.5c-15.7,11.1-32.9,23.9-28.2,46.3
	c4.7,22.6,23.5,33,44.5,37.2C2570.9,2713.9,2589,2714.6,2607,2716.6z"/>
<path d="M1975.5,2807.9c-155.2,2.3-242.2-133.7-242.6-250.1c-0.1-26.6,6.2-34.2,25.7-35.6c18.7-1.3,25.4,4.2,28.8,23.6
	c4.2,23.8,6.6,48,12.8,71.2c35,130.1,186.1,177,288.7,90.1c38.4-32.5,53.8-76.1,58.7-124.4c1.1-10.8,0.5-21.8,1.6-32.6
	c2.3-21.9,7.6-27.1,25.9-26.8c18.3,0.3,27.9,7.4,27.8,25.9c-0.6,69.4-16.2,134.4-62.9,188.3
	C2096.8,2787.4,2039.9,2807,1975.5,2807.9z"/>
<path d="M1327.4,2764.5c-74.2-5.1-145-17.4-207.1-60.1c-33.8-23.2-59.4-52.3-50.6-96.2c8.5-42.8,40.5-64.8,81.2-72.8
	c93.8-18.3,182.7-3.6,264.8,45.7c16.1,9.7,30.6,24.1,41.9,39.3c37.1,50.2,19.7,106.8-38.8,128.6c-14.6,5.5-30.2,8.7-45.6,11.2
	C1357.7,2762.8,1341.9,2763.3,1327.4,2764.5z M1322.2,2715.7c18-1,33.9-0.5,49.3-3.1c23.5-4,49.6-6.6,60-33.2
	c7-17.9-9.3-41.8-39.4-58.9c-47.8-27.3-99.1-45.1-154.5-45.6c-26.2-0.3-52.9,3.1-78.6,8.8c-20.9,4.6-44.7,13.1-45.8,39.4
	c-1.1,24.5,18.6,38.1,38,48.8C1205.1,2701.4,1262.9,2716.4,1322.2,2715.7z"/>
<path d="M2981.5,1327.2c-2,3.6-5.5,7.6-6.2,12c-8.7,55.4-50.3,78.9-96.6,91.7c-48.7,13.4-99.6,19-149.5,28
	c-10.6,1.9-19.7,0.6-21.9-12.2c-2.1-12.2,4.8-17.6,15.8-19.7c36.8-6.9,73.9-12.5,110.3-21.2c20.9-5,41.2-13.7,60.8-22.7
	c25.4-11.7,40.3-32.6,50.1-59.1c13.5-36.7,34.1-44.9,71.1-32.3c50.3,17.1,84,87.4,64.8,137.2c-2.5,6.4-10.6,10.7-16.1,15.9
	c-4.5-6.1-11.4-11.6-12.8-18.4c-2.5-11.6-0.5-24.2-2.4-36.1C3043,1353.7,3016.2,1328.7,2981.5,1327.2z"/>
<path d="M1111.9,1451.6c-13.5-18.8-4.8-33.5,7.1-45.5c32-32.1,69.6-47.6,115.2-32.6c24.1,7.9,47.5,18.6,72,24.6
	c58.6,14.1,117.6,27.1,176.8,38.7c35.6,7,46.5,11.1,41.2,23.4c-9.9,22.9-30.9,13-47.6,12c-66.9-4-131-21.8-194.7-41.2
	c-23.1-7-46.2-14.3-69.3-21.4c-39.2-12-54.1-7.4-78.3,24.3c-3.6,4.8-7.1,9.7-11.2,14C1121.6,1449.5,1118.6,1449.5,1111.9,1451.6z"/>
<path d="M1860.5,811.8c2.8,98.3-87.6,233.8-184,277c-13.2-8.4-13.8-18.4-3.2-29.4c5-5.2,10.6-9.9,16.5-14
	c55-39,91.4-92.1,117.2-153.4c8.4-20,16.3-40.3,25.4-60C1837.1,821.7,1841.4,808.8,1860.5,811.8z"/>
<path d="M2224.5,1279.5c11.6-12.4,17.1-20,24.2-25.5c21.4-17,32.6-39.4,31.9-65.9c-0.8-31.1-4.7-62.2-7.7-93.2
	c-0.7-7.1-4.3-13.9-4.6-21c-0.2-4,3-10.7,6-11.6c4.9-1.5,12.4-1,16.1,2c5.3,4.3,9.3,11.2,11.7,17.8c19.6,52.9,22,106.2-2,158.3
	c-9.6,21-22.8,40.5-49.5,42.5C2244.8,1283.2,2238.9,1281.4,2224.5,1279.5z"/>
<path d="M1678.3,1102.2c39.3-0.1,78.2-5.5,108.6-31.1c28.8-24.3,53.9-52.9,80.6-79.6c2.5,0.8,5,1.6,7.5,2.4c0,9.6,2.7,20.2-0.4,28.7
	c-20.5,55.3-106.2,111-164.7,108.5C1692.7,1130.3,1678.6,1126.8,1678.3,1102.2z"/>
<path d="M2272.7,547.6c-28.6,29.2-64.6,54.2-83.7,88.7c-19.4,35-22,79.3-32.5,121.5c-13.3,3.1-16.9-8.4-19.5-20.8
	c-14.1-68.7,40.2-168.3,105.5-192.6c8.7-3.2,19-2.2,28.5-3.2C2271.6,543.3,2272.2,545.4,2272.7,547.6z"/>
<path d="M2348.4,892.4c-20.2,11.3-30.3,5.3-37.8-5.1c-33.8-47.1-64-96.1-75.3-154.3c-3.3-17.4-3.6-33.5,16.5-42.4
	c12.5,36.5,21.5,73.4,37.5,106.9C2305.1,830.5,2327.9,860,2348.4,892.4z"/>
<path d="M1075.4,1327.3c-31.1,10.4-49.4,3.6-63.4-20.1c-17.6-30-11.9-59.2,16.1-83.3c26.5-22.9,46.1-25.3,72.2-5.1
	c-12.6,6.9-23.5,12.9-34.4,18.9c-32.9,18.4-36.4,37.4-11.9,65.6C1060.2,1310.4,1066.6,1317.3,1075.4,1327.3z"/>
<path d="M1431.1,1509.5c-15.1,5.3-23.1,11.2-29.6,9.9c-58.7-12.3-117.3-25.7-175.7-39.4c-2.8-0.7-4.2-7.4-7.3-13.1
	c25.6-15.6,47.8-1,70.1,3.3c22.4,4.3,44.6,10.2,66.8,15.6C1378.1,1491.2,1402.8,1489.8,1431.1,1509.5z"/>
<path d="M2526.4,1077.1c-8.3-4.2-14.1-5.2-16.2-8.5c-28.2-45.6-55.9-91.4-84.8-139.1c22.6-7,32.1,12,43.8,22.6
	c13.2,12,24.9,26.4,34.3,41.6C2518.4,1017.8,2537.1,1042,2526.4,1077.1z"/>
<path d="M2882.8,1479.7c16.9-20.2,78.8-52.2,114.5-60.9c1.2,19.6-13.2,26.8-25,35.3C2946.6,1472.5,2918.4,1481.1,2882.8,1479.7z"/>
</svg>
