<?xml version="1.0" encoding="utf-8"?>
<!-- Generator: Adobe Illustrator 24.3.0, SVG Export Plug-In . SVG Version: 6.00 Build 0)  -->
<svg version="1.1" id="Layer_1" xmlns="http://www.w3.org/2000/svg" xmlns:xlink="http://www.w3.org/1999/xlink" x="0px" y="0px"
	 viewBox="0 0 4000 4000" style="enable-background:new 0 0 4000 4000;" xml:space="preserve">
<path d="M1944.5,3673.2c-22.4,6-42.9,13.1-64,16.7c-37,6.4-71.3-0.6-99.3-27.5c-9.6-9.2-20.4-11-33.3-11.8
	c-23.3-1.4-47-3.5-69.4-9.5c-40-10.8-69.1-35.8-88.1-73.6c-29.6-58.7-45.5-121.6-57.9-185.2c-21.3-109.8-40.2-220.1-60-330.3
	c-1.3-7.4-2.5-14.9-2.5-22.4c0-19.1-6.3-34.1-22.4-46c-18.2-13.5-26.7-34.2-31-55.6c-12.6-61.7-27.4-123.2-35.3-185.6
	c-14.9-117.5-26.1-235.5-37.6-353.5c-3.7-38.1-8.8-76.8,8.9-113.9c2.9-6-0.6-16.6-4-23.7c-43.6-92.9-34.1-182.7,15.4-270.1
	c11.6-20.5,24.3-40.3,36.4-60.4c31.1-51.5,32.3-103.1-0.9-154.1c-15.4-23.6-31.5-46.8-48.1-69.6c-24-32.9-44.4-67.5-54.6-107.5
	c-12.4-48.6-5-95.6,13.5-140.8c11.3-27.7,27.9-53.2,41-80.3c11-22.8,21.2-46,30.2-69.6c14.3-37.7,8.5-74-10.6-108.7
	c-9.5-17.3-19.7-34.2-29.4-51.4c-26.4-46.9-26.8-95.5-6.2-143.9c9.5-22.3,23.4-42.8,35.9-63.8c8.6-14.6,18.9-28.2,27-43
	c20.2-36.5,24.4-74.7,8.8-114.1c-7.6-19.2-15.6-38.3-23.9-57.3c-38.7-88.6-40.3-178.7-10.7-269.9c11.3-34.7,30-65,59.3-87.4
	c10.5-8.1,15-17.6,17.6-30.4c19.6-96.1,101.1-148,197.5-126.7c5.5,1.2,11.3,2,16.4,4.2c11.1,4.8,18.8,1.9,27.4-6.6
	c62.9-62.5,144.5-71.9,217.4-24.4c14,9.1,21.9,3.2,32.4-3.8c62.1-41.7,142.6-39.4,200.3,5.7c8.8,6.9,16.6,15.1,26.6,24.2
	c8.8-2.8,18.4-5.8,28-9c43.9-14.4,88.6-17.5,133.4-5.5c54.3,14.6,93.8,47.1,112.2,101.5c5.5,16.1,13.1,25,31.1,26.7
	c65.6,6.2,104.3,46.7,128.2,104.4c20.5,49.6,26.7,102,25.5,154.9c-1.5,67.9-11.8,134.7-31.3,200.1c-37.6,126.5-20,134.6,30.8,216.8
	c6.9,11.2,13.5,22.6,19.5,34.3c35.4,68,35.5,137.4,6.1,207c-12.4,29.4-27.1,58-42.9,85.7c-34,59.5-36.2,118.9-6.3,180.6
	c16.8,34.6,31.7,70.3,45.6,106.2c24.5,63.3,20,125.4-11.4,185.5c-10,19.2-20.3,38.2-31.1,57c-23.4,40.6-24.4,80.1,4,118.9
	c9.4,12.9,17.6,26.7,26.7,39.9c42,61.1,50.4,128.4,36.5,199.7c-1.8,9.2-3.2,18.7-6.6,27.4c-8.4,21.2-10.5,40,7.5,58.9
	c6.4,6.7,6.5,21.3,5.9,32.2c-3.8,73.3-5.4,146.8-13.6,219.6c-13.5,119.6-31.4,238.7-48,357.9c-2.2,15.7-6.4,31.5-12,46.3
	c-4.2,11.1-10,23.5-18.9,30.6c-16.9,13.5-23.1,30.4-26.9,50.6c-25.9,137.7-52,275.4-79.2,412.8c-6.2,31.3-15.8,62-25.8,92.3
	c-24.3,73.9-65.9,105.7-143.1,108.8c-22.7,0.9-40.2,6.6-57.7,22.7c-27.7,25.5-64.3,27.3-98.6,17.4c-24.8-7.2-44.1-4.2-66.8,6.8
	c-46.7,22.8-92.9,19-135.7-12.3C1949.4,3676.3,1946.2,3674.3,1944.5,3673.2z M2619.8,2335.5c-193.8,97.6-396.1,137.3-606.4,137.4
	c-210.9,0.1-414.9-34.7-606.4-137.6c0,14.7-0.7,24.9,0.1,34.9c5.7,65.6,9.4,131.4,18.2,196.6c14.4,107.1,32.7,213.7,48,320.8
	c4.8,34,22.8,56.6,50.6,73.6c7.2,4.4,14.3,9,21.8,12.9c56.2,29.1,115,51.3,176.7,65.4c183.5,42,367.3,42.8,551.3,3.9
	c84.1-17.8,164.9-44.9,239.5-88.9c21-12.4,33.7-27.5,37.1-52.6c9.7-70.8,22.7-141.1,31.7-211.9c12.6-98.8,22.8-198,33.8-297
	C2617.8,2375.8,2618.3,2358.3,2619.8,2335.5z M1838.2,2395.3c0-12.1,0.3-19.4-0.1-26.8c-1.7-33.8-4.6-67.6-5.3-101.5
	c-2.4-119.5-3.9-239-6.2-358.6c-0.6-31-2.1-62.1-4.7-93c-5-60.9-11.9-121.7-16.4-182.7c-5.3-72,7.9-140.5,44-203.8
	c9.3-16.3,18.9-32.6,27.3-49.4c23.7-47.5,34-96.8,23.7-150.3c-8.2-42.2-24.5-81.1-43.1-119c-43.6-89.2-57.2-181.2-40.1-279.7
	c17.7-102.1,24.1-205.5,14.3-309.3c-2.1-22.1-7.7-42.3-19.3-61.1c-13.5-22-32.8-32.4-58.7-32.4c-41.1-0.1-74.7,17.7-103.5,44.8
	c-7.3,6.9-11.4,19.4-12.6,29.8c-2.1,18.6-1.1,37.6-0.8,56.4c1.1,68.3-7.9,135.1-29.9,200c-6.4,18.7-12.2,37.6-18.2,56.4
	c-22.1,69.5-20,137.1,16.6,201.9c6.9,12.3,13,25,18.9,37.9c27.8,61.1,36,124.8,19.7,190.1c-8.4,33.6-21,66.3-33.8,98.5
	c-13.5,34.1-30.4,66.8-44.5,100.6c-29.7,71.5-30.2,142.6,5.1,212.9c9.7,19.3,18.4,39.2,26.4,59.3c31.5,78.8,39.1,158.4,6.9,239.2
	c-7,17.5-11.7,35.8-18.4,53.3c-25.5,66.9-23.4,134.4-6.6,202.7c9.7,39.3,18.9,78.6,27.3,118.2c2.9,13.6,9.3,22,22.7,25.4
	c21.9,5.6,43.6,11.8,65.5,16.9c8.5,2,17.6,1.5,26.1,2.2c8-45.1-0.2-77.8-25.5-108.7c-13.7-16.7-27.8-33.2-40.4-50.7
	c-21.1-29.3-30.2-62.2-28.1-98.4c2.2-36.9,15.7-69.4,37.2-98.9c14.4-19.7,30.2-38.6,43.2-59.2c31.8-50.1,30.7-101.4,1.4-152.2
	c-9.4-16.2-21.7-30.7-31.8-46.6c-13.6-21.4-28.3-42.4-39-65.2c-16.3-34.5-23.1-70.9-16.4-109.8c6.9-39.7,21.4-75.9,42.8-109.5
	c15.2-23.8,31.4-46.9,47.1-70.3c29.4-43.8,42.1-91.8,37-144.6c-1.2-12.7-0.2-25.6-0.2-38c30.9-3.9,34.5-2.2,36.5,18.7
	c7.1,72.5-4.5,140.6-48.6,201c-16.1,22-31.7,44.5-45.6,67.9c-40.8,68.8-40.8,137.2,5.2,204.2c13.8,20.2,28.5,39.8,41.6,60.5
	c31.6,50,46.3,103.7,24.5,161.1c-9.6,25.1-25.2,48.1-39.5,71.1c-9.9,15.9-23.1,29.8-33.5,45.4c-30.3,45.5-29.3,98.4,2.6,142.6
	c11,15.2,23.2,29.6,34.9,44.4c26.8,33.8,40.3,71.8,37.4,115.3c-0.7,10-0.1,20.1-0.1,32.2C1788.5,2389.3,1811.4,2392.1,1838.2,2395.3
	z M2101.5,2404.5c0.6-12.2,1.5-21.4,1.5-30.7c-0.3-156.1-1.2-312.3-0.7-468.4c0.3-75.5-5-150.2-19.6-224.4
	c-12.6-64,1-123.4,38.9-176.7c14.7-20.7,31-40.2,45.6-61c13.5-19.2,27.9-38.2,37.9-59.2c37.8-79.4,33.4-158.9-6.1-236.1
	c-16.2-31.7-36.2-61.6-56.3-91.1c-47.4-69.3-69.9-145-63.9-229.1c3.5-49.7,8.7-99.4,8.9-149.1c0.2-53.4-0.3-107.5-8.4-160.1
	c-11.3-73.6-89.2-98.1-145.4-49.1c-7,6.1-13,13.5-19.6,20.2c-12,12.2-16.1,26.6-14.4,43.8c2.2,22.4,3.3,45,3.3,67.6
	c0.2,76.4-8.8,152.2-22.1,227.2c-15,84.5-4.9,164.3,30.9,242.1c15.3,33.2,28.2,67.7,39.6,102.5c20.2,61.4,23.3,124.4,2.6,185.9
	c-11.9,35.4-29.5,69.1-47.1,102.2c-34,63.9-45.9,131.7-34.8,202.2c16.5,105.4,19.6,211.4,21.4,317.7c2.3,131.6,6.7,263.2,10.3,394.9
	c0.3,9,2,18,3.3,28.8C1972.4,2404.5,2035,2404.5,2101.5,2404.5z M2258.1,2379.5c5.4,2.3,7.2,3.9,8.6,3.6
	c34.8-7.4,69.8-14.5,104.3-23.2c5.7-1.4,11.7-9.5,13.9-15.8c12.5-36.4,23.3-73.4,35.6-109.8c14.7-43.4,6.3-83.3-15.3-121.9
	c-12.4-22.2-24.9-44.3-36.8-66.7c-23.6-44.6-30-90.6-11.4-138.8c5.4-14,9-28.8,15-42.5c24.1-54.4,25.3-108.7,4.1-164.5
	c-16-42.1-30.2-85.1-43.4-128.2c-19.9-64.9-19.1-130.2,4.5-193.9c13.7-36.9,30.8-72.6,46.8-108.6c11-24.9,23.8-49.1,33.9-74.3
	c22.1-55,10.3-105.3-24.8-151c-14.3-18.6-30.7-35.6-46.2-53.2c-45.2-51.4-61.6-111.2-49.7-178.3c6.5-37,14.9-73.7,23.6-110.2
	c16.7-69.6,23-139.1,2.3-209c-11.5-38.9-41.8-63.1-82-66.2c-53.2-4.1-109,41-91.2,98.6c4.6,14.9,5.1,31.7,4.6,47.6
	c-2.6,84.6-3.1,169.4-10.1,253.6c-5.8,69.1,9.6,129.9,47.4,187.2c23.3,35.2,45,71.8,64.3,109.3c34.2,66.3,46.1,136.9,32.1,210.9
	c-12.2,64.5-43.2,119.8-84.1,170.3c-4.1,5.1-8.2,10.3-12.7,15.1c-43.7,47.5-55.2,103.5-42.4,165.3c16.8,81.6,20,164.2,20,247.1
	c-0.1,143-0.3,286-0.5,429.1c0,11,0,22,0,36.3c20.5-2.7,36.7-4.8,54.4-7.2c0-9.4-0.6-15.9,0.1-22.2c4.9-45.8,8.9-91.6,15.5-137.1
	c3.1-21.5,7.5-22.4,35.2-18.5C2268.5,2268,2263.2,2324.4,2258.1,2379.5z M2463.6,2323.6c1.7,1.7,3.3,3.3,5,5
	c18.9-7.9,38-15.4,56.7-23.7c67.1-29.6,54.3-21.7,75.9-84c22.5-64.8,15.1-125.7-24.5-182.5c-12.4-17.7-23.2-36.5-34.6-54.9
	c-26.3-42.4-28.9-87-9.3-132.3c10.8-25,23.7-49.1,36.8-73c29.4-53.9,33.9-108.7,8.3-165.2c-7.8-17.1-15.3-34.3-22.8-51.6
	c-9.4-21.5-19.5-42.8-27.8-64.8c-18.7-49.3-19.7-99.5-2.6-149.3c7.6-22.1,18.1-43.3,28.3-64.4c11.9-24.5,25.7-48.1,37.2-72.8
	c25.7-55.3,22.9-109.4-9.4-161.5c-14.9-24-30-47.8-44.4-72.1c-21.2-35.7-33.7-74.5-27.4-115.9c6.1-39.8,15.2-79.3,26.3-118
	c18.4-63.9,29.4-128.3,24.8-194.8c-3-44.3-10.4-87.8-31.5-127.8c-16.3-30.9-42.1-44-76.4-42.6c-27.2,1.1-48.2,14.2-66.8,32.5
	c-10.3,10.2-12.3,20.8-8.1,35.7c8.2,28.8,15.1,58.3,18.8,88c8.4,67.2-0.2,133-18.1,198.2c-8.7,31.6-14.2,64.2-19.3,96.6
	c-6.2,39,3.8,74.8,27.7,106.3c10.8,14.2,21.9,28.3,33.6,41.7c70.5,80.4,90.6,169.2,45.1,268.9c-16.8,36.8-34,73.4-51.2,110
	c-37.7,80.3-39.1,161.5-6.4,243.7c8.3,21,17,41.8,25.4,62.8c28.8,71.9,32.8,144.2,3.8,217.2c-4.9,12.2-8.5,24.9-13.4,37.2
	c-14.9,37.5-11.9,73.6,7.1,108.8c8,14.9,15.5,30.1,24.3,44.6c39.7,65.3,46.4,133.8,21.8,205.9
	C2471.3,2291.1,2467.9,2307.5,2463.6,2323.6z M1532.8,2318.4c-1.5-12.3-1.9-20.5-3.6-28.4c-3.5-15.6-7.8-31-11.7-46.5
	c-18.5-73-26.5-146.5-6.1-220.3c9-32.6,21.4-64.2,33-96c21.4-58.4,20.9-115.8-5.4-172.8c-13-28.2-24.9-56.8-37-85.4
	c-26.9-63.6-34-129.3-14.5-195.9c9.7-33.2,23.8-65.2,37.1-97.3c13.6-33,29.5-65.1,42.9-98.2c28-69.2,26.9-137.2-8.4-204.3
	c-12.7-24-22.8-49.6-32.7-74.9c-22.2-57.1-24.1-115.6-8.2-174.6c5.6-20.9,11-42,18.7-62.1c28.1-73.2,39-148.7,34.1-227
	c-2-31.7-2.9-63.8,8.3-95c2.5-6.9-1.8-18.6-6.8-25.1c-9.4-12.1-23-18.7-39.2-19.4c-43-1.9-71.4,19.7-89.7,56.3
	c-26.6,53.5-28.5,110.5-21.6,168.3c4.6,38.8,19.7,74.3,36.4,109.3c21.7,45.4,33,93.1,17.6,142.3c-8.3,26.5-22.4,51.4-35.8,76
	c-12.6,23.1-29.1,44-41.3,67.2c-17.3,33-17.4,66.7,2.2,99.6c9.1,15.4,17.3,31.3,25.9,46.9c25.5,46.4,35.4,95.4,20.6,147
	c-7.5,26-17.9,51.4-29.3,76c-12.7,27.3-28.9,52.9-42.1,79.9c-30.5,62.4-24.7,122,16,178.2c3.9,5.3,8.1,10.4,12,15.7
	c15.9,22.1,32.8,43.7,47.5,66.6c50,78.3,50.7,157.3,1.4,236.4c-12.9,20.8-26.4,41.2-38.8,62.3c-21.1,35.7-31.9,74.5-29,116
	c3.3,48.2,18.2,92.8,53.3,127.2C1463.6,2290.9,1497.5,2301.9,1532.8,2318.4z M2388.9,325.6c-14.4-47.2-46.8-73.3-97.8-77.6
	c-34.5-2.9-66.8,3.2-98.2,18.9c-37.4,18.7-51.1,13.2-76.9-19.4c-9.6-12.1-22.1-24-35.8-30.2c-38.6-17.4-75.3-9.5-108.5,15.9
	c-7.4,5.7-13.6,13-20.8,19.1c-20.4,17.2-38,17.3-58,0c-7.8-6.8-14.5-14.8-22.5-21.4c-44.5-36.6-110-21.5-133.9,30.6
	c-10.3,22.5-22.8,29.9-47.3,24.6c-18.3-4-36-10.9-54-16c-31.9-9-61.7-2.6-88.8,15.2c-14.7,9.7-27.7,21.9-29.9,44.9
	c49.6,3.4,93.9,15.8,118.5,65.3c88.7-47.7,171.3-55.8,239.2,33.6c76.4-64.4,152.9-67.9,230.1-2.1c60-73.6,132.5-84,212.6-47.7
	C2340.8,361.4,2363.8,344.3,2388.9,325.6z M1937.2,3136.5c-0.7,8-1.7,12.6-1.5,17.1c4.8,76.9,8.7,153.9,15.1,230.7
	c5.8,70.2,15.3,140.1,21.2,210.2c2.6,30.3,31.4,44.3,62.2,43.2c28.1-1,42.7-14.2,45.8-46.3c6.7-71,13.5-142.1,17.9-213.3
	c4.4-71.3,6-142.7,8.6-214.1c0.3-9-0.7-18-1.1-27.4C2048.1,3136.5,1994,3136.5,1937.2,3136.5z M1870,3131.5
	c-47.8-7.1-92.9-13.9-141.2-21.1c0,10.6-1.2,20.7,0.2,30.5c14.2,104.2,26.9,208.7,44,312.5c7.4,45.1,22.5,89.1,36.5,132.8
	c13.5,41.8,44.6,43.8,76.9,34.5c17.6-5.1,20.9-10.6,18.7-28.7c-1.1-9.3-3.9-18.5-4.6-27.8c-8.5-114.3-16.9-228.7-25.1-343
	C1873.3,3192.3,1871.9,3163.3,1870,3131.5z M2144.5,3616.1c59,11.9,77.7,3,94.4-45.7c12.8-37.2,24.4-75,32.8-113.4
	c24.2-111.2,33.9-224.4,43.5-337.6c0.4-4.1-1.7-8.5-2.9-14c-47.5,7.8-93.4,15.4-141.9,23.4
	C2168.2,3292.3,2163.1,3454.1,2144.5,3616.1z M1733,3585.2c-1.2-10-1.7-16.2-2.8-22.4c-11.8-61.8-25.8-123.3-35-185.5
	c-13.1-89.2-23-179-33.1-268.6c-1.8-16-8.2-23-23-26.8c-17.2-4.4-34-10.7-50.8-16.9c-15.6-5.8-30.8-12.5-48.6-19.8
	c-0.4,8.2-1.5,12.8-0.7,17.1c18.9,103.5,35.8,207.5,57.9,310.4c11.4,53,30.3,104.6,48.7,155.8
	C1659.1,3565.7,1689.3,3583.1,1733,3585.2z M2492.2,3044.5c-37.1,13.5-68.9,24.3-99.9,37.2c-5.8,2.4-10.9,12.7-11.7,19.9
	c-3.4,28.9-5.1,58-7.2,87.1c-8.6,122-23,243.2-56.7,361.3c-2.7,9.4-3.4,19.3-5.2,29.7c38.3-2.2,60.1-15.2,71.9-44.6
	c9.5-23.4,18.2-47.5,23.8-72.1c21.8-95.2,42.8-190.5,62.7-286.1C2478.7,3135,2484.3,3092.3,2492.2,3044.5z"/>
<path d="M2328.6,2693.4c-0.2,44.9-30.1,74.8-74.4,74.4c-42.5-0.3-71.5-29-71.6-70.7c-0.1-40.6,35-75.9,75.5-76
	C2298,2621,2328.8,2652.6,2328.6,2693.4z"/>
<path d="M1791.7,2769.1c-43.6,0.2-74.3-28.9-74.8-70.8c-0.5-39.7,33.4-73.3,73.7-73.1c43,0.2,74.8,32.4,74.4,75.3
	C1864.6,2741.5,1835.4,2768.9,1791.7,2769.1z"/>
<path d="M2367.3,2878.3c-17.9-4.8-36.9-7.2-53.4-15c-35.8-17.1-38.5-55.1-7.2-79.1c39-30,101-33.1,140.5-7
	c36.9,24.4,35.8,59.3-2.6,82C2428.4,2868.7,2398.4,2875,2367.3,2878.3z M2439.9,2816.5c-28.2-33.9-100.2-28.7-121.5,7.5
	C2345.5,2852.2,2408.7,2849.1,2439.9,2816.5z"/>
<path d="M1682.6,2877.9c-20.6-3.5-38.2-5.8-55.5-9.7c-8-1.8-16-5.8-22.8-10.5c-33.7-23-32.8-60.5,1.4-82.4
	c31.6-20.2,102.8-24.5,142.8,11.7c27.6,24.9,23,62.9-11.4,77.7C1719.6,2872.2,1699.5,2874,1682.6,2877.9z M1668.5,2791.2
	c-15.6,4.5-31.5,6.9-45.3,13.6c-12.4,6-11.8,16.2-1.5,24.4c19.8,15.9,74.6,20.8,97.1,8.6c16.9-9.1,18.2-23.2,1.1-31.2
	C1704.2,2799.4,1686.4,2796.4,1668.5,2791.2z"/>
<path d="M2025.6,2864.1c-52.7,0-90.3-25.7-103.4-70.7c-6.3-21.8-3-34.6,10.1-38.8c14-4.5,24.9,2.2,31.4,23.7
	c8.3,27.6,24.4,44.2,57.1,45.2c32,1,55.5-14.7,68-44.5c0.4-0.9,0.7-1.7,1.1-2.6c8.5-20,17.2-26,30.1-20.5c11.8,5,14.9,15.6,9.9,34.1
	C2117.4,2836.2,2078,2864.1,2025.6,2864.1z"/>
<path d="M1681.1,642.5c0-9.4-1.6-19.1,0.5-28c1.4-6,7.1-13.5,12.5-15.3c9-3,19.5-0.8,23.2,10.2c2.9,8.8,5.9,18.5,5,27.4
	c-3.3,33.4-5.7,67.3-13.1,99.9c-7.4,32.8-20.6,64.2-30.7,96.4c-3.6,11.6-9.4,17.9-22.3,14.9c-12.3-2.8-13.8-12-11.9-21.7
	c3.8-19.2,7.5-38.6,13.5-57.3C1670.9,727.7,1681.6,686.1,1681.1,642.5z"/>
<path d="M1641.1,913.4c26.5-3.8,27.7-3.4,32,16c3.7,16.4,6.7,32.9,9.7,49.5c2.1,11.6,2.3,23-11.9,27.4c-11,3.4-19.8-2-24.4-17
	C1638.8,964.4,1635,938.9,1641.1,913.4z"/>
<path d="M1942.9,921.5c2-59,18.9-114.5,41.6-168.4c1.4-3.4,3.4-7.9,6.3-9.1c6.4-2.7,14.9-6.6,19.8-4.3c4.9,2.3,9.6,12,8.9,17.8
	c-1.4,11.9-7.1,23.3-10,35.1c-8.3,33.7-18.5,67.1-23.5,101.3c-10.7,73.3,19,133.6,64.7,188.4c24.6,29.5,48.7,59.7,69.8,91.7
	c21.7,32.9,28.3,71.3,28.6,110.4c0.1,7.4-0.1,16.2-4,21.7c-3.5,5-12.2,8.6-18.5,8.5c-4.3-0.1-9.4-7.2-12.4-12.2
	c-2.1-3.7-1.5-9.1-1.8-13.8c-3.3-52.6-23.9-98-57.4-138.1c-19.3-23-39.1-45.7-57.4-69.5C1961.7,1034.1,1941.8,981.4,1942.9,921.5z"
	/>
<path d="M1991.4,1941.4c-2.3-46.9-18.4-89.1-34.5-131.3c-8.7-22.8-17.1-45.7-24.6-69c-2.8-8.7-3.5-18.4-3.5-27.7
	c-0.1-10.8,6.6-17.3,17.3-18.8c9.9-1.4,16,3.8,19.4,12.6c1,2.6,1.6,5.4,2.4,8.1c13.2,40.1,25.7,80.5,39.9,120.3
	c20.3,57.3,25.4,115.3,11.7,174.7c-9.3,40.3-18.6,80.6-27.9,120.8c-1.1,4.6-1.1,10.1-3.8,13.4c-3.7,4.6-10.1,11.2-14.2,10.5
	c-6.1-1.1-14.4-6.7-16.2-12.2c-2.7-8.5-2-18.7-0.3-27.7c4-21.2,10.1-42,14.2-63.1C1978.5,2015.2,1984.8,1978.3,1991.4,1941.4z"/>
<path d="M2061.6,1457.3c1.6-7.1,2.1-15.7,5.5-22.8c8.7-17.7,17.7-35.4,28.8-51.5c3.6-5.2,14.7-8.1,21.5-6.9c3.9,0.7,9.2,12,8.4,17.9
	c-3.2,24.9-15.4,46.2-33.3,63.6C2084.4,1465.4,2074,1465.5,2061.6,1457.3z"/>
<path d="M1989.6,2251.7c-0.9,6-1.1,16.6-4.5,26c-1.7,4.6-9.5,9.7-14.5,9.6c-4.9-0.1-13.4-6.1-13.8-10.1c-1.8-17.6-2.3-35.5-0.8-53
	c0.4-5,8.9-12,14.7-13.2c8.9-1.9,16.3,3.8,17.6,13.9C1989.1,2232.3,1989,2239.8,1989.6,2251.7z"/>
<path d="M2193,781.3c0.6-11.5-0.5-22.8,2.1-33.3c14.3-58.7,13.2-117.1-0.3-175.6c-1.3-5.5-2.1-11.1-2.7-16.6c-0.3-2.7,0.7-5.5,1-8.1
	c24.8-8.6,31.5-5.9,38.8,18.6c17,57,17.4,114.7,3.8,172.5c-2.4,10-5.1,20-8.3,29.8C2222.6,783.4,2213.2,790,2193,781.3z"/>
<path d="M2260.9,1974.2c3.3-43.8,13.3-79.7,29.9-113.7c6.6-13.6,19.5-18,30-11.7c11.4,6.9,10.5,18.2,5.3,27.3
	c-28.6,49.9-30.3,101.3-10.8,154.4c1.3,3.4,2.2,7.9,1.1,11c-2.5,6.5-5.8,17-10,17.5c-6.8,0.9-16.8-2.8-21.2-8.1
	c-6.4-7.5-10.3-17.9-13.1-27.7C2267.1,2005.3,2263.8,1986.9,2260.9,1974.2z"/>
<path d="M2243.2,1573.5c0,5,1.1,10.7-0.2,15.9c-10.6,41.4,1.8,79.8,14.8,118.1c2.7,8,7.4,15.8,7.8,23.9c0.3,6.1-3.2,15.5-7.9,18
	c-5.1,2.8-14,0.5-20.5-1.8c-3.7-1.3-6.7-6.5-8.7-10.6c-19.7-41.1-32.5-83.9-29-130.1c0.6-7.3,2.5-14.9,5.6-21.6
	C2212.4,1569.5,2221.2,1566.9,2243.2,1573.5z"/>
<path d="M2448.5,532.2c26.1-4.5,32-1.7,37.9,18.6c10.9,37.8,10.4,76.3,3.9,114.8c-3,17.6-7.4,35-11.3,52.4c-7,31-14.1,62-21.2,93
	c-26.4,2.7-34.3-2.9-31.5-27.3c3-25.1,8.2-50.1,14.8-74.6c14.2-52.5,21.1-105,7.6-158.8C2447.3,545.1,2448.5,539.3,2448.5,532.2z"/>
<path d="M2513.2,1619.7c-1,10.2-0.1,21.2-3.6,30.5c-3,7.7-10,15.3-17.3,19.6c-7.3,4.3-14.6,0-16.3-9.4c-0.8-4.6-0.8-9.3-0.6-14
	c2.7-44-8.6-85.3-23.3-126.1c-3.8-10.5-7.5-21.2-10.1-32.1c-2.4-10.2,1.2-18.8,11.3-23c10-4.1,18.4-0.6,24.3,8.3
	c3.1,4.6,6.2,9.5,8,14.7C2500.9,1530.7,2511.8,1574.1,2513.2,1619.7z"/>
<path d="M1449.4,584.4c5-25.6,9.2-51.4,15.3-76.7c3.1-12.9,10.7-24.2,25.2-27.8c16.8-4.1,25.3,4.6,20.9,21.6
	c-1.4,5.4-3.9,10.6-6.3,15.6c-23.7,49.4-19.2,98.1,4,146.2c3.7,7.6,8,14.9,11.1,22.7c3.3,8.4,3.9,18.2-6.1,21.4
	c-6.9,2.2-16.6,1.3-23-2.1c-5.9-3.1-9.8-11.1-13.2-17.6C1460.5,655.6,1451.7,621.4,1449.4,584.4z"/>
<path d="M1428.5,2124.5c3.4-21.3,6.2-42.7,10.6-63.7c1.6-8,5.7-16.3,11-22.3c3.5-3.9,12.6-6.8,17.1-5c5.8,2.3,11.6,9.1,13.7,15.2
	c1.9,5.5,0.1,13.1-1.9,19.2c-15,47-9.2,92.8,6.5,138.3c1.2,3.6,3.2,7.1,3.2,10.8c0.1,6.9-0.9,13.7-1.5,20.6
	c-8.7-1.2-18.5-0.3-25.7-4.2c-5.7-3.1-9.1-11.7-12.2-18.4C1435.9,2186.5,1430.1,2156.3,1428.5,2124.5z"/>
</svg>
