<?xml version="1.0" encoding="utf-8"?>
<!-- Generator: Adobe Illustrator 24.3.0, SVG Export Plug-In . SVG Version: 6.00 Build 0)  -->
<svg version="1.1" id="Layer_1" xmlns="http://www.w3.org/2000/svg" xmlns:xlink="http://www.w3.org/1999/xlink" x="0px" y="0px"
	 viewBox="0 0 4000 4000" style="enable-background:new 0 0 4000 4000;" xml:space="preserve">
<path d="M2251.9,3559.5c23.4,5.9,46.4,11.5,69.3,17.5c60.6,15.8,120,34.8,175.4,64.5c26.5,14.2,50.9,31,68.6,55.8
	c19.5,27.3,27.6,56.9,15.5,89.8c-7.3,19.8-20.5,34.8-37.4,47c-27.3,19.9-58.4,31.4-90.5,40.6c-55.4,16-112.1,25.6-169.3,32.3
	c-114.5,13.4-229.5,16.7-344.6,15.2c-76.4-1-152.8-3.6-228.7-12.3c-66.5-7.6-133.1-14.7-197.9-32.4c-33.1-9-65.5-19.7-94.8-38.3
	c-19.7-12.5-36-28.2-45.1-50c-14.1-33.8-6.6-65.2,12.8-94.5c16.9-25.5,40.9-42.9,67.6-56.8c45.1-23.6,93.3-38.8,142.3-51.5
	c35.5-9.2,71.3-16.7,107-25.1c2.8-0.7,5.4-2.1,9.4-3.6c-2.3-18.7-4.2-37.4-7.1-55.8c-4.4-28.9-9.6-57.7-14.1-86.6
	c-1.4-8.8-6.2-12.1-14.4-14.2c-92.7-24.2-183.6-53.9-270.5-94.6c-153.8-72.1-285.9-172.1-391.8-305.6
	c-68.9-87-121.8-183-162.6-286.1c-30.4-76.8-52.9-155.8-70-236.5c-0.8-3.9-1.3-7.8-1.7-11.8c-0.8-6.9-4.3-11.3-10.5-15
	c-55.3-33.8-80.5-94.3-66.8-157.2c9-41.2,30.5-74.9,59.4-104.6c23.3-23.9,19.2-13.8,16.3-46c-10.9-121.7,9.2-238.2,61.8-348.7
	c52.7-110.5,128.6-202,228-273.6c7.8-5.6,12.1-12.2,14.4-21.4c9.1-35.8,29.3-64.9,57.1-88.6c8.8-7.5,12.2-14.9,12-26.6
	c-1.8-119.9,32.5-228.8,102-326.4c62.6-87.7,144.6-151.6,242.7-195.3c6.9-3.1,11.1-7.3,13.7-14.4c22.7-63.8,66.9-109.1,123.9-143.2
	c23-13.8,46.5-26.6,72-35.2c12.3-4.2,12.1-4.4,12-18.1c-0.3-58.2,12.6-113.1,42.9-163.3c32.6-53.9,78.1-91.9,139.5-108.9
	c55.5-15.3,109-8.9,160.2,17.1c2.1,1.1,4.5,1.7,7.2,2.7c1.6-3.7,3.1-6.8,4.1-10.1c39.1-128,118.7-222.7,237-284.4
	c23.1-12,48.8-19,73.7-27.3c5.4-1.8,13-0.8,18.3,1.7c7,3.3,10.4,10.7,9.6,18.7c-0.7,7.5-5.2,12.9-12.3,15.5
	c-7.4,2.8-15.2,4.7-22.6,7.3c-75.8,26.8-138.3,72.5-189.4,134.1c-31.6,38.1-55.3,81-73.2,127.1c-2.8,7.3-5,14.9-8,24.3
	c5.9-0.4,10.2-0.3,14.3-0.9c67.6-10.3,123.5,11.9,167.2,63.1c40.5,47.4,59.1,103.8,59.9,165.9c0.2,17.3-2,34.6-3.1,51.9
	c-0.3,3.9-0.6,7.8-0.9,12.7c43.4,23.3,81.2,53.2,108.9,94.3c27.2,40.3,45.5,84.4,53.9,134.7c17.6-6,34.1-10.9,50.1-17.1
	c10.8-4.2,16.9-13.3,19.7-24.6c3.3-13.2,4.5-26.3,1.6-39.8c-1.6-7.3-3-14.6-3.8-22c-3.7-36.3,26.4-61.7,61-49.9
	c16.6,5.7,32.6,14.7,47.2,24.6c25.8,17.6,50.3,37.1,75.4,55.6c31.9,23.5,65.1,45.5,95.6,70.8c44.9,37.2,75.1,84.2,84.1,142.9
	c2.2,14.1,2.2,28.7,1.4,43c-0.6,10.9,2.2,18,10.7,25.5c50.2,44.4,89,96.9,112.3,160.3c23.7,64.5,22.9,129.2,1.1,193.9
	c-6,17.8-13.9,34.9-21.3,53.3c7.8,9.8,16.4,20.6,24.9,31.4c63,79.7,106.9,169.1,133,267.1c18.5,69.4,26.8,140.2,23,212.1
	c-1,18.3-2.7,36.6-5.2,54.8c-1.7,12.3,0.6,21.2,10.6,29.9c31.1,26.7,53.9,59.3,66.2,98.8c19.4,62.3-0.5,130.8-50.5,172.4
	c-7.9,6.6-17.2,11.6-26.4,16.4c-5.9,3-8.8,6.7-10.1,13.3c-22.2,109.7-55,216.2-101.6,318.1c-57,124.8-132.8,236.8-230.3,333.7
	c-82.7,82.2-177.6,147.3-282.4,198.2c-86.8,42.1-176.9,75.3-269.8,100.9c-12.4,3.4-24.8,7-37.3,10.1c-6.3,1.6-10.5,4.5-11.5,11.5
	c-7,46.1-14.2,92.1-21.3,138.1C2251,3554.3,2251.7,3556.7,2251.9,3559.5z M875.1,2472.7c2.4,10.6,4.4,19.7,6.4,28.8
	c38.3,167.7,105.8,321.6,215.1,455.8c72.8,89.4,158,164.3,258.1,221.7c114.5,65.7,237.6,108.8,365.9,138
	c41.1,9.4,49.4,16.7,55.9,58.1c11.2,72,21.6,144.1,32,216.3c0.8,5.2,0.1,10.9-1.3,16.1c-5,19.1-19.3,27.5-37.5,31.7
	c-54.5,12.7-109.2,25-163.4,39c-38.8,10.1-77.4,21.8-112.8,41.3c-10.3,5.7-19.9,13.1-28.4,21.2c-8.6,8.3-7.8,15.4,2.1,22.2
	c9.3,6.4,19.5,12.3,30.1,15.8c21.6,7.2,43.5,13.7,65.7,18.5c92.4,20.1,186.3,27.7,280.4,32.1c80.3,3.8,160.6,4,241,0.8
	c81.8-3.3,163.4-8.4,244.3-21.3c39.2-6.3,78.3-13,115.7-26.7c14.4-5.3,28.2-12.1,41.7-19.3c8.1-4.3,8.2-8.5,2.6-15.6
	c-2.8-3.5-5.8-7.1-9.5-9.4c-16-9.9-31.5-21-48.5-28.7c-53.1-24-109.2-38.8-165.7-52c-26.1-6.1-52.4-11.1-78.2-18.1
	c-26.7-7.2-38.3-27.4-33.4-54.4c1.8-9.7,3-19.6,4.4-29.4c8.9-63.3,18-126.6,26.7-189.9c3.4-24.7,17.4-39.2,41.1-44.9
	c17.3-4.2,34.9-7.6,52.1-12c120.7-30.6,236.4-73.6,344.1-137c118-69.5,216.6-159.9,295.7-271.7c95.1-134.4,155.9-283.4,191.5-443.4
	c0.9-4.2,1.2-8.6,1.7-12.3c-44.3-10.3-87.4-20.2-131.6-30.5c-1.9,11.6-3.4,22.8-5.6,33.8c-6.6,33.5-20,63.2-48.4,84.4
	c-39,29-92.4,20.4-118.5-20.4c-8.6-13.5-13.7-29.5-19.4-44.8c-4.8-13-7.7-26.7-12-39.8c-3.4-10.1-5.4-11.3-15.3-8.3
	c-28,8.5-56.2,16.2-83.4,26.8c-24.9,9.7-48.3,23.1-72.6,34.3c-52.5,24-106.3,29.3-162.2,12.3c-33.4-10.1-64.9-24.5-96.7-38.3
	c-41.7-18.1-84.3-32.4-130.8-28.5c-34,2.8-66.2,12.1-97.5,25.2c-22.9,9.6-45.6,19.4-68.5,29c-66.3,28-133.5,31.6-201.6,7
	c-25.6-9.3-51.1-18.9-76.6-28.6c-69.3-26.3-140.3-34.9-213.1-17.9c-35.7,8.4-70.9,18.7-106.3,28.1c-37.9,10-76.1,13.1-114.8,4.4
	c-30.2-6.7-58.5-18.6-86.7-30.8c-19.5-8.4-39.3-16.6-59.5-23.2c-32-10.5-64.9-14.7-98.1-6.1c-24,6.2-47.8,12.8-71.5,20
	c-32.2,9.7-64.2,20.6-96.5,30C908.4,2466.7,892.6,2469,875.1,2472.7z M3105.6,1847.3c-51.4,22.1-87.1,12.6-115.3-3.7
	c-17.8-10.3-32.7-24.3-45.3-40.4c-11.9-15.2-22.6-31.4-34.6-46.5c-6.7-8.5-14.4-16.5-22.9-23.1c-11-8.5-22.7-6.8-31.5,4.1
	c-4.5,5.6-8.6,12.6-10.1,19.5c-2.9,14-5.4,28.4-5.2,42.6c0.3,31.2,1.7,62.5,3.7,93.6c1.7,27.4,0.1,54.6-4.9,81.5
	c-2.8,15-8.1,29.7-14,43.8c-7.7,18.5-19.4,34.6-35.8,46.7c-38.7,28.8-85,19.7-110.1-21.3c-9-14.6-14.1-30.6-17.5-47.2
	c-7.3-36.1-8.1-72.8-9.7-109.5c-1.2-26.7-3.2-53.4-6.1-80c-1.9-17.3-7.5-33.9-17.9-48.3c-13.6-18.7-34.8-22.9-53.3-9
	c-8,6.1-14.9,14.6-20,23.4c-5.6,9.8-8.9,20.9-12.5,31.7c-4.5,13.6-7.2,27.9-12.6,41.2c-5.7,14.1-12.3,28.2-20.7,40.9
	c-13.1,19.7-32.8,29.9-56.5,31.3c-29.3,1.8-55.2-15.7-68.3-45.8c-8.6-19.8-12.2-40.8-12.2-62.3c0-24.3,0.6-48.6-0.2-72.9
	c-0.3-10.3-2.2-20.8-5.4-30.6c-6.6-20.3-25.7-31.1-46.7-27.6c-21,3.5-38.5,13.9-51.2,30.5c-10.4,13.7-18.8,29-27,44.2
	c-7.5,13.9-13.1,28.9-20.3,43c-6.8,13.5-16.6,24.8-29.3,33.1c-31.3,20.6-69.7,9.3-80.3-26.7c-2.8-9.4-3.2-19.4-4.4-29.2
	c-0.6-4.9,0.1-10-0.6-14.8c-1.3-9.4-6-12.2-14.5-7.8c-6.5,3.3-12.9,7.7-18,12.8c-7,7-12.6,15.3-19,22.9
	c-15.3,18.1-29.9,37.1-46.4,54.1c-20,20.6-45.5,29.3-74.3,27.7c-5.8-0.3-11.6,0-18.3,0c-1.4,7.6-2.7,14.4-3.9,21.1
	c-14,80.2-11.8,159.9,6.6,239.2c8.4,36.3,20.1,71.6,34.6,105.9c8.1,19.1,6.7,23.9-9.6,36.7c-3.5,2.8-7.5,5-10.7,8
	c-7.5,7.2-15.5,14.1-21.6,22.4c-20.8,28-18.9,65.8,2.9,90.7c11.9,13.6,25.3,18.7,43.5,15.8c30.2-4.9,58-16.3,86.2-27.4
	c28.5-11.3,57-23.2,86.3-32c53.6-15.9,108.3-18.5,163.3-7.8c36.8,7.1,71,21.6,105.2,36.3c21.8,9.4,44,18.1,66.3,26.4
	c28.6,10.7,57.6,10.1,85.8-1c20.2-8,39.8-17.7,59.5-27c15.6-7.5,30.5-16.7,46.5-23.2c13.1-5.4,27.2-10.3,41.2-11.4
	c48.4-3.7,95.2,26.6,114.1,72.5c4.9,11.9,8.1,24.4,12.5,36.6c4.1,11.7,7.6,23.7,13.3,34.6c12.2,23.3,37,29.8,59.6,16.4
	c12.3-7.3,22-17.6,27.3-30.6c5.5-13.7,9.4-28.1,12.7-42.5c3.5-15.4,4.3-31.5,8.3-46.8c11.8-45.4,49.5-65.8,93.9-51.5
	c11.8,3.8,23.2,8.6,35,12.5c19.8,6.7,39.8,12.6,60.8,13c63.5,1.4,83-57.8,68.1-95.5c-7.5-18.9-18.1-35.2-33-48.8
	c-9.9-9-20.3-17.4-30.4-26.2c-15.3-13.3-23.4-29.2-18.9-50.1c1.1-4.8,1-9.9,1.8-14.8c11.7-76.3,9.9-152.2-6.8-227.6
	C3113.4,1878,3109.5,1863.3,3105.6,1847.3z M2290.1,1133.6c-39.4,8.9-76,10.2-112.7,9.2c-60-1.6-118.2-13.4-175-31.7
	c-64.7-20.9-130.5-32.8-198.7-32.2c-22.7,0.2-45.5-2.7-68.1-5.6c-41.7-5.5-81.5-17-116.6-41.3c-28.1-19.5-49.1-44.5-59.4-77.7
	c-1.4-4.5-3.5-8.8-5.8-14.6c-14.4,5.7-27.6,9.9-40,15.9c-76.9,37.4-140.3,90.9-189.8,160.7c-57.6,81.2-82.9,172.5-83.4,271.3
	c0,4.8,0.5,10.3,2.8,14.3c8.8,15.4,18.5,30.3,28.2,46c4.5-1.3,9.1-2.9,13.9-3.9c32.2-7.1,60.1,0.1,81.8,25.8c4,4.7,6.8,11,8.3,17
	c1.9,7.6-2.7,14.8-9.5,18.5c-7.2,3.8-14.2,3.1-20.5-2.7c-2.6-2.3-4.6-5.2-6.9-7.8c-16.1-18.1-34.9-21.3-56.1-9.5
	c-2.6,1.4-5,3.3-7.6,4.6c-8.9,4.4-14.6,4.1-21.5-3.1c-5-5.3-8.7-11.9-12.8-18.1c-3-4.5-5.7-9.1-8.8-14.2
	c-8.7,6.6-16.9,12.2-24.3,18.7c-13.5,11.8-26.2,24.5-33.6,41.2c-11.2,25.3-1.6,45.8,25.4,52.1c12.3,2.9,25.7,4,38.2,2.6
	c20.6-2.3,40.9-7.3,61.3-11.3c23.8-4.7,46.4-0.6,67.8,10.2c13.7,6.9,24.8,17.3,29.6,32c5,15.4,7.8,31.6,11.5,47.4
	c2.2,9.6,3.1,19.8,6.8,28.8c10.1,24.9,34,33.2,57.3,19.8c8.5-4.9,15.7-12,23.4-18.2c10.4-8.3,20-18,31.3-24.9
	c45.4-27.9,95.3-12.1,115.2,32.3c4.8,10.8,10.4,21.7,17.7,30.9c5.6,7,13.5,13.7,21.8,16.8c20.9,7.6,41.3,5.3,58-10.9
	c10-9.6,19-20.2,28.4-30.4c12.8-14,28.2-23.6,46.7-27.4c16.7-3.4,33.9-4.3,50,1.3c21.9,7.6,43.2,17,64.8,25.6c3.5,1.4,7,2.8,12.3,5
	c28.6-51,62.7-97,102.9-138.5c40.6-41.9,87.3-75.9,136.6-106.8c-17.6-46.5-13.1-90.2,8.2-132.4c21.5-42.6,56.9-70.3,102-89
	C2280.3,1197.8,2282,1166.6,2290.1,1133.6z M1866.4,2399.3c-3.2-14.7-7.3-26.1-8.1-37.7c-2.9-44.6,12.5-81.7,48.3-109.3
	c6.6-5.1,8.4-9.4,5-17.4c-15.9-37.1-26.2-75.9-34-115.3c-1.6-8.2-5.5-11.3-13.3-13.2c-12.4-3.1-25-6.4-36.3-12.2
	c-31.2-15.9-50.3-42.5-62.4-74.7c-11.5-30.5-14.9-62.6-18.2-94.7c-2.5-24.2-5.3-48.4-15.1-71c-13.8-32.2-39.9-48.7-74.7-48.7
	c-28,0-52.2,10-74.5,25.9c-27.8,19.8-48.1,46-62,76.6c-13.7,30.2-25.7,61.2-37.7,92.1c-11.3,29.3-24.6,57.4-44.1,82.3
	c-21.6,27.5-49,46.2-83.6,52.9c-42.1,8.1-89.2-5-112.6-54.3c-11.3-23.8-15-49.2-15.9-75.1c-1.4-39.4,5.8-78,10-116.9
	c2.8-25.7,4.8-51.4-2-76.9c-7.1-26.6-24.8-39.9-52.3-38.7c-22.1,0.9-41,10.5-58.5,23.2c-23.2,16.8-41.7,38.1-56.8,62.3
	c-17.3,27.7-33.6,56.2-50.6,84.1c-12.4,20.4-26.8,39.4-45.1,55c-26.1,22.4-56.1,33-90.7,28.9c-3.7-0.4-7.5-0.1-12.1-0.1
	c-0.9,9.6-2,17.9-2.5,26.2c-2.5,40.3,2.4,80.2,5.7,120.2c0.4,4.6,3.1,9.3,5.6,13.4c7.8,12.7,15.9,25.1,24,37.5
	c2.3,3.6,5.1,7,7.4,10.3c6.1-1.5,10.8-2.8,15.7-3.7c28.5-5.3,55.3-1.1,79.5,15.4c4.7,3.3,9,7.8,12.1,12.7c4.8,7.3,3.4,16.2-1.9,22
	c-4.9,5.3-12.3,6.2-20.5,2.1c-4.9-2.4-9.2-5.8-14-8.5c-16.3-9.2-33.2-12.6-51.2-4.5c-5.9,2.7-11.9,4.9-18,7
	c-14.4,4.8-20.7,2.9-29.1-9.7c-4.1-6.1-6.9-13.2-10.8-19.4c-4.4-6.9-6.5-15.7-15.7-20c-14.7,10.9-28.2,23-39.9,37.2
	c-11.4,13.9-20.9,28.8-25,46.7c-7,30.5,9.2,58.6,39.8,66c11.3,2.7,23.7,4.1,35.2,2.9c18.1-2,36.3-5.5,53.8-10.7
	c37-11,73.3-24.4,110.5-34.9c25.2-7.1,51-13.2,76.9-15.9c44-4.6,87.1,2.6,128.3,18.9c26.2,10.4,51.9,22.2,77.7,33.7
	c34.4,15.3,69.5,23.2,106.9,12c5.2-1.6,10.5-2.8,15.8-4.3c43.3-12.5,86.1-26.6,131-33c40-5.7,80-6.6,120.1-2.4
	c57.9,6,111.7,26,164.4,49.4C1855.3,2394.8,1859.8,2396.6,1866.4,2399.3z M2946.6,1576.8c-14,6.1-24.7,11.5-35.9,15.3
	c-11.2,3.8-22.9,6.7-34.5,8.6c-50.3,8.5-101.1,7.2-151.3,1.4c-53.6-6.2-106.9-15.7-160.1-24.9c-46.9-8.1-93.3-18.5-140.9-22
	c-37.1-2.8-74.2-6.1-110.9-11.8c-39.1-6.1-76.5-17.9-103.8-49.5c-3.5-4.1-7.2-4.9-11.8-2.5c-5.3,2.7-10.6,5.4-15.7,8.4
	c-40.4,23.9-76.2,53.5-109.3,86.6c-65,65-111.6,141.3-140.5,228.5c-1.3,4-1.9,8.2-3.2,13.9c23.5,1.6,42.3-4.6,57.1-19.9
	c11.3-11.7,20.9-25.1,31.1-37.9c8.4-10.5,16-21.5,24.8-31.5c11.6-13.1,24.9-24.2,41.9-29.9c23.2-7.7,47.8,1.8,57.1,24.3
	c4.8,11.7,6.2,24.8,8.7,37.4c1.1,5.3,0.7,10.9,1.9,16.2c2.2,9.6,7.9,12.4,16.4,7.8c4.2-2.3,8.3-5.7,11.1-9.6
	c5.6-8.1,10.8-16.6,15.2-25.4c8.1-15.9,14.9-32.5,23.3-48.2c12.4-23,28.9-42.8,51.5-56.6c23.2-14.2,48.5-20.7,75.5-14.9
	c36.7,8,60.6,35.4,65.9,77c2.7,21,1.9,42.5,2.5,63.8c0.4,15.9-0.5,31.8,1.2,47.5c1.1,10.6,4.3,21.6,9.1,31.1
	c10.4,20.3,33.1,23.7,49.9,8.2c4.6-4.3,8.5-9.8,11.4-15.4c4.2-8.4,7.6-17.2,10.5-26.2c4.4-13.7,8-27.6,12.1-41.4
	c6.6-22.1,15.5-42.9,32.1-59.6c36.8-36.9,93.3-32,122,11.5c7.5,11.4,13.4,24.4,17.9,37.3c8.7,25,11.2,51.3,12.2,77.6
	c1.1,28.3,1.4,56.5,3,84.8c1.4,24.7,3.7,49.5,12.5,73.1c5.3,14.4,13,27.8,29.3,30.9c17.4,3.3,30.7-6,41-19.1
	c5.2-6.5,10-13.8,13-21.5c4.7-12.4,8.7-25.3,11.2-38.4c7.1-37.4,4.3-75,1.8-112.7c-1.6-23.2-2.4-46.6-1.6-69.8
	c0.8-22.5,6.5-44.1,19.6-63.1c18.9-27.3,49.6-35.6,79.9-21.9c18.3,8.3,31.1,22.6,42.6,38.4c10.8,14.9,20.8,30.3,32.1,44.7
	c15.9,20.4,35.5,36.4,61.6,41.5c18.8,3.6,37.1,1.2,54.2-10.6C3059.6,1719.6,3009.5,1644,2946.6,1576.8z M1650.7,1762.7
	c-20.1-13.2-30.4-30.4-38.2-49.5c-1.9-4.6-4.1-9-6.5-13.3c-11.7-21.4-26.7-26.5-49.6-17.7c-13,5-22.5,14.3-31.8,23.9
	c-12.2,12.6-25.8,23.3-42.1,30c-42.6,17.7-86.8-0.1-104.6-42.6c-3.8-9-6.1-18.8-8-28.5c-1.9-9.7-2.7-19.6-3.8-29.5
	c-2-19-12.3-31.5-30.7-35.5c-9.9-2.1-20.7-2.2-30.7-0.7c-28.4,4.2-56.3,11.9-85.4,10.5c-21.2-1-41.2-5.7-58.9-17.9
	c-5.2-3.6-10-7.8-14.7-11.5c-48.4,25.2-137.9,106-193.7,199c-37.8,63-63.2,130.5-75.8,203.6c25.6,6,47.4,1.3,67-13.8
	c14.8-11.4,26.2-25.7,35.8-41.4c12.5-20.2,24.4-40.8,36.3-61.5c16.1-28,33.9-54.9,56.2-78.4c26.1-27.5,55.9-48.9,94.5-55.3
	c42.4-7,86.5,10.5,103,56.1c3.7,10.2,6.1,20.9,8.2,31.5c5.5,28.2,1.6,56.4-1.7,84.4c-4.2,35.5-9.5,70.9-7.2,106.7
	c1.1,16.1,3.8,32.8,9.4,47.8c12.1,32.2,43.9,45.7,76.6,35.4c27.3-8.6,48.5-25.5,62.9-49.5c11.4-19,21.1-39.3,29.4-59.9
	c14.7-36.3,26.9-73.6,45.9-108c33.1-60,79.7-101.9,150.2-111.7C1644.5,1765.1,1646.2,1764.2,1650.7,1762.7z M2321.7,1155.6
	c-0.4,22.4-1.6,42.4,2.8,62.7c4.2,0.2,7.1,0.9,9.9,0.5c24.8-3.6,49.5-1.9,74.2,1c26.1,3,52,7.3,78.2,9.9c31.1,3.1,62.2,6.3,93.5,2.2
	c18.7-2.4,37.4-4.7,56-7.5c8.4-1.3,15.9-0.8,21.5,6.4c8.9,11.5,4.8,27-9.5,30.8c-15.2,4.1-31,6.7-46.7,8.1
	c-56.6,4.9-112.8,0.1-169.1-7c-28.9-3.6-58.4-6.1-87.4-4.5c-55,3.1-96.2,30.8-123.4,78.8c-1.9,3.3-2.8,7.1-4.5,11.3
	c4.7,1.7,8.3,3.5,12,4.3c42.6,9.4,84.9,20,127.8,27.6c79.3,14.1,159.4,19.2,240,15c71.7-3.8,141.9-15.8,209.7-39.4
	c47.6-16.6,92.3-38.8,130.5-72.5c9.7-8.5,9.7-8.9,2.3-19.3c-19.5-27.2-43-50.6-69.1-71.5c-5.3-4.2-10.6-8.4-16.4-13
	c-16.2,17.9-33.7,32.5-53.9,43.2c-17,9-34.9,16.4-53,22.9c-10.5,3.8-16.9-0.4-20.7-9.1c-3.9-9.1-1.8-17.5,7-23.3
	c4.9-3.2,10.5-5.6,16-7.8c24.2-9.5,46.8-21.7,66.5-38.7c54.2-46.6,38.9-120.1-10.5-157.9c-0.8,0.6-1.7,1.1-2.3,1.8
	c-0.8,1.2-1.4,2.6-1.9,4c-8.1,21.3-21.7,38.8-37.9,54.5c-27.6,26.8-61.5,43.2-96.8,56.9c-54.1,21-111,29.2-168.5,33.8
	c-50.1,3.9-100.1,2.7-150-2.7C2340.1,1156.3,2332.2,1156.2,2321.7,1155.6z M2059,842.1c7.7-0.8,23.1-1.3,38.1-4.1
	c57.9-10.8,102.1-41.1,130.7-93.5c24.4-44.8,32.2-92.4,24.9-142.4c-4.7-32-16.4-61.4-41.6-83.5c-22.4-19.7-47.9-29.6-78.1-22.8
	c-7.2,1.6-14.5,3.3-21.8,4.8c-24.7,5.2-48.3,2.7-70.6-9.8c-8.6-4.9-17.4-9.6-26.1-14.2c-25.1-13.2-51.5-17-79.3-11.3
	c-32.3,6.6-58.8,22.9-80.2,47.9c-63.9,74.8-66.7,212.8,39.9,283.4C1942.2,828.1,1995,841.1,2059,842.1z M1608.9,854.1
	c-20.6,33.7-25,66.7-6.3,100.3c6.6,11.9,15.7,23,25.4,32.7c27.5,27.5,62.8,38.3,100.1,44.9c40.7,7.2,82,6.3,123,8.7
	c18.3,1.1,36.6,2.7,54.7,5.2c46.9,6.5,91.2,22.9,136.5,35.6c83.8,23.6,168.4,30.5,254.4,13.3c9.2-1.9,16.3-5.5,22.3-13
	c13.4-16.8,29.6-30.7,48.2-41.5c14.1-8.2,28.8-15.4,43.5-22.5c5.1-2.4,7.7-4.9,7.7-11c-0.1-31.3-1-62.4-9.8-92.9
	c-6.8-23.5-16.8-45.2-33.3-67.5c-1.4,2.9-2.2,4.8-3.2,6.5c-21,34.6-51.5,58.3-87.5,75.8c-66.1,32.3-136.8,46-209.3,52.4
	c-45.6,4.1-91.2,1.9-136.6-2.7c-67.3-6.8-133.6-18.4-197.3-41.6c-46.5-17-89.8-39.7-124.2-76.6
	C1615.3,858.3,1612.7,856.9,1608.9,854.1z M2209.4,1388.2c-0.6,4-1.3,5.9-1.2,7.8c2.6,47.2,30,83.2,70,98.2
	c28.3,10.6,57.8,13.9,87.4,16.4c64.8,5.4,129.2,12.7,192.9,26.2c14.9,3.2,30.6,6.9,45.5,5.6c45.4-4,90.4-11.5,134.7-22.5
	c59.8-14.9,118.5-33.1,172.7-63.1c23.3-12.9,45.3-28.4,67.8-42.8c4.9-3.1,7.6-7,7.5-13.4c-0.5-26-4.3-51.4-13.7-75.7
	c-1.7-4.3-4.5-8.1-7-12.5c-13.1,9.6-24.3,18.7-36.2,26.5c-51.6,33.7-107.9,56.4-167.5,71.2c-107.1,26.7-215.7,29.9-325.1,19.5
	c-72.2-6.9-143.3-19.8-213.4-38.5C2219.5,1390,2215.1,1389.3,2209.4,1388.2z M2261.6,767c-3,4.6-5.6,8.6-8.2,12.7
	c-33.6,51.6-80.5,84.4-140.8,96.6c-69.9,14.1-137.2,3.1-201.5-26.3c-14.1-6.4-27.4-9.5-42.6-9.1c-41.8,1.1-83.2-2.9-123.4-15.3
	c-23-7.1-44-18-62.4-33.7c-4.9-4.1-9.6-7-15.6-1.6c-10.7,9.6-21.5,18.9-32.8,28.6c2.3,3.1,3.8,5.6,5.7,7.7
	c22.4,25.2,49.4,44.2,79.8,58.5c45.7,21.5,93.9,34.8,143.4,43c79.5,13.2,159.3,19,239.9,9.7c53.6-6.2,105.5-17.9,154.7-40.1
	c26.3-11.9,51.4-26,70.6-48.3c9.1-10.5,16.7-21.9,20-36.1C2323.6,789.9,2294.3,776.5,2261.6,767z M2342.6,1117.2
	c4.4,1,7.2,1.7,10.1,2.2c2.9,0.5,5.9,1,8.8,1.2c55.5,2.6,110.9,4.3,166.3-2.3c54-6.4,106.2-18.7,155.8-41.4
	c20.4-9.4,39.6-20.6,55.8-36.3c13.8-13.3,24.8-28.4,28.8-47.6c3.1-14.5,1.6-17.1-10.8-25.8c-25.5-17.9-50.9-36.1-76.1-54.4
	c-6.3-4.5-11.9-10-18.9-15.9c-1.6,5.6-2.9,9.3-3.6,13.1c-3.9,19.9-12.3,37.5-25.4,53c-17.5,20.6-39.7,34.6-64.7,43.4
	c-37.3,13.1-75.1,25-113,36.4c-26.3,7.9-51.3,18.2-74,33.7C2366.3,1086.9,2353.1,1099.4,2342.6,1117.2z M1866.4,2067.7
	c0-39.9-1.1-77.9,0.2-115.9c1.3-37.7,7.2-75.1,17.7-111.3c10.5-36.4,23.8-72,36.2-109.1c-20.6-10.4-40.7-22.2-63.5-27.8
	c-25.3-6.2-47.1-1.1-63.9,20.2c-19,24.1-40.3,45.2-73.5,52.8c4.5,3.8,7.6,6.1,10.2,8.9c8.4,9,17.4,17.6,24.7,27.4
	c16.9,22.9,24.4,49.7,28.6,77.4c4.4,28.9,7.3,58,11.9,86.9c4.5,28.1,16.2,53,37.7,72.5C1842.4,2058.2,1852.9,2065.3,1866.4,2067.7z
	 M2738.8,1563c1.7,0.5,3.4,1.2,5.2,1.3c37.1,3,74.1,4.7,111.1-0.2c21.2-2.8,42.2-6.7,61.2-16.9c30.9-16.6,45-45.9,56.7-76.9
	c0.2-0.6-0.8-1.6-1.8-3.6C2899.9,1513.1,2821.5,1542,2738.8,1563z M1715.1,764.2c20.3,21.1,96.3,42,119.9,33.6
	c-14.9-15.5-28.5-31.8-36.8-51.7c-2.6-6.2-6.8-7.7-13.1-5.7c-18.4,5.8-36.9,11.2-55.2,17.1C1725,759,1720.3,761.8,1715.1,764.2z"/>
<path d="M1078.8,2560.6c29,0.7,50.4,14.7,63.7,39.5c9.1,16.9,15.8,35.3,22.3,53.4c25.9,72.1,57.8,141.3,100.8,205
	c45,66.6,97.8,126.2,163.9,172.8c16.5,11.6,35.2,20.1,53.1,29.7c12.2,6.6,25,12,36.9,19.1c10.9,6.4,18.6,16.2,23.6,28
	c15.2,36.6-7.7,73.3-47.3,75.7c-21.5,1.3-41.1-5.8-60-14.9c-56.9-27.7-109.2-62.5-157.7-103.1c-104.9-88.1-183.3-195.7-236.3-321.8
	c-10.7-25.5-19.7-51.8-28.4-78.2c-6.5-19.7-6.2-40,0.8-59.9C1024.5,2576.5,1047.8,2560.1,1078.8,2560.6z M1038.1,2637
	c0.3,3.1,0.4,8.6,1.7,13.9c2.5,10.1,5.2,20.2,8.6,30c30.4,87.9,74.4,168.4,132.5,241.1c67,83.7,145.2,154.3,239.2,206.7
	c21.7,12.1,43.9,23.3,68.6,27.7c13.5,2.4,24.4-2.6,29.3-12.4c4.9-9.8,2.5-24.4-5.9-33.1c-3.4-3.5-7.3-6.8-11.5-9.3
	c-7.7-4.5-15.7-8.3-23.6-12.6c-24.4-13.2-49.9-24.7-72.9-39.9c-64.2-42.6-113.3-100.3-156.6-163.1c-47.5-69-82.5-144.4-110.8-223
	c-4.3-12.1-8.5-24.4-14-36c-4.2-8.9-9.2-17.8-15.8-24.9c-17.1-18.7-44.7-18-60.2,0.4C1039.1,2611.8,1037.9,2623,1038.1,2637z"/>
<path d="M2371.5,2820.9c-59.4,0.2-100.6-47.4-100.7-99.5c-0.1-55,45.6-99.8,100.9-99.6c56.5,0.2,101.9,45.4,101.5,100.8
	C2472.8,2778.2,2428.1,2821.4,2371.5,2820.9z"/>
<path d="M1717.9,2745.1c0.1,55-44.9,99.3-100.9,99.3c-55.8,0.1-99.4-43.1-99.4-98.5c-0.1-57.2,43.6-101.7,99.9-101.9
	C1674,2643.9,1717.8,2687.9,1717.9,2745.1z"/>
<path d="M2497.9,2985.5c-35.6,0.5-66.5-4.9-94.8-21.4c-4.3-2.5-8.5-5.2-12.2-8.5c-30.6-26.6-32.3-61.5-4.6-91.2
	c16.5-17.6,37.4-27.8,60-34.3c42.2-12.2,85-13.8,127.7-2.1c23.3,6.4,44.7,16.4,59.3,37c15.3,21.6,15.1,46.4-0.5,67.8
	c-10.1,13.9-23.1,24.5-38.7,31.6C2562.5,2979,2529.3,2985.9,2497.9,2985.5z M2492.9,2946c28.6,0.1,56.3-4.9,82.3-16.7
	c9.2-4.2,18.1-10.5,25-17.8c8.6-9.1,7.5-21-2.4-28.7c-8.4-6.6-18.1-12.4-28.2-15.8c-37.9-12.9-76.2-10.5-113.9,0.8
	c-12.6,3.8-25,9.7-35.9,17.1c-19.9,13.6-18.7,32.4,1.6,44.9c4.6,2.8,9.6,5.2,14.6,7.1C2454.3,2943.9,2473.4,2946.1,2492.9,2946z"/>
<path d="M1506.9,3011.1c-27.9-0.2-55.3-4.1-82-12.3c-20.7-6.4-38.6-17.4-53.8-33.2c-34.6-36.2-15.1-74,9.6-92.5
	c16.7-12.5,36.1-18.7,56.3-21.8c46.6-7.3,91.9-2.1,135.2,17.1c9,4,17.8,8.8,25.9,14.4c45.5,31.3,41.6,85.7-7.6,111
	c-22.5,11.5-46.8,15.8-71.7,17.4C1514.8,3011.3,1510.9,3011.1,1506.9,3011.1z M1504.1,2972.7c7.4,0,14.9,0.6,22.3-0.1
	c17.8-1.8,35.2-5.7,50.8-15.2c18.8-11.4,20.2-26.4,3.3-40.6c-7.1-6-15.3-11.2-23.8-14.8c-38.4-16.5-78.5-20.2-119.2-11.5
	c-12.2,2.6-24.3,8.7-34.9,15.7c-13,8.6-14.1,22-2.9,32.8c8,7.7,18,14,28.1,18.8C1451.7,2969.2,1477.5,2973.7,1504.1,2972.7z"/>
<path d="M1992.5,2990.7c-69.9-0.2-136.9-43.8-151.7-132c-2.2-12.8-3-25.7,10.5-34.5c16.3-10.5,35.2-2.6,38.2,16.5
	c1.1,6.8,1.4,13.8,2.9,20.6c14.7,70.2,98.6,108.1,165.2,58.7c22.3-16.6,32.3-40.7,35.1-68c0.4-3.4,0.1-7,0.8-10.3
	c2.5-12.3,13.1-20.5,25.7-20.2c13.1,0.3,22.7,8.5,23.7,21.9c0.6,7.7-0.8,15.8-2.2,23.5C2127.4,2941.5,2068.3,2990.8,1992.5,2990.7z"
	/>
<path d="M3064.6,2240.8c-23.6-0.8-44.9,7.1-65.2,17.9c-37.6,20-36.2,20.4-79.7,5.9c-29.8-10-59.4-9.7-88.3,3.7
	c-4,1.9-8.2,3.7-12.5,4.7c-9.8,2.3-15.8-0.4-20.1-8.3c-4.4-8-3.6-17,3.9-22.8c6.5-5.1,14-9.6,21.8-12.3
	c31.7-10.9,64.5-13.7,96.4-3.7c24,7.6,44.8,8.5,67.8-4.2c21.6-11.9,46.1-18,71.4-18.2c5.4-0.1,11-0.2,16.3,0.6
	c13.3,2,18.8,10.2,16.2,23.1c-2,10.1-5.7,13.1-16.2,13.5C3072.6,2240.9,3068.6,2240.8,3064.6,2240.8z"/>
<path d="M2518.6,2255.4c22.7,0.8,43.7,6.4,63.6,15.6c7,3.3,13.7,8.1,19.3,13.6c7.9,7.7,7.4,17.5,0.4,25.3
	c-6.2,6.9-15.9,8.7-24.1,2.7c-11.8-8.6-24.3-15-39-17.1c-17.5-2.5-34.5-2.2-51.1,4.7c-3.6,1.5-7.5,2.7-11.3,3.5
	c-9.2,1.7-14.4-0.7-18.7-8.2c-4.1-7.2-4.1-14.5,1.9-20.5c4.4-4.4,10-8.8,15.8-10.4C2489.5,2260.7,2504.2,2258.4,2518.6,2255.4z"/>
<path d="M2026.7,2281.5c13.5-0.8,28.1,3.4,41.1,12.1c4,2.7,7.7,6.3,10.4,10.2c4.7,6.9,3.7,15.9-1.6,22c-5.1,5.8-11.6,7.2-18.8,4.6
	c-2.8-1-5.7-1.9-8.1-3.5c-14.1-9.2-28.9-8.6-44.1-3.7c-2.8,0.9-5.6,2-8.5,2.6c-10.1,2.1-17.7-1.8-21.8-10.8
	c-4.1-9.1-2.1-17.3,6.6-23.2C1994.6,2283,2009.3,2281.4,2026.7,2281.5z"/>
<path d="M1298.1,1309.2c2.9-39.3,12.8-73.5,26.4-106.6c27.9-67.5,71.7-123.1,127.3-169.6c9.8-8.2,20.9-15.2,32.4-20.8
	c19.4-9.4,42.7-3.6,57,12.4c14.7,16.4,17.8,40.9,5.3,59.3c-6.8,10-16.2,18.7-25.7,26.5c-31.2,25.8-58.3,55.1-80,89.4
	c-19,30.1-31.4,62.8-38.9,97.6c-2.9,13.5-6.1,27.2-11.6,39.8c-9.3,21.2-25.8,29.9-47.6,27.9c-19.8-1.8-35.2-14.8-41-35.7
	C1299.6,1321.8,1298.9,1313.9,1298.1,1309.2z M1325.9,1309.6c0.4,3.9,0.5,7.9,1.2,11.8c2,11,8.6,17.9,18,19
	c10.4,1.3,18.8-3.9,22.9-14.9c2.2-6,3.4-12.4,4.5-18.7c4.9-28.5,13.1-55.9,24.8-82.3c24.5-55.2,62.6-99.5,109-137.2
	c5.7-4.7,11.7-9.4,16.1-15.2c7.4-9.7,6.7-22-0.3-30.2c-6.6-7.7-17.9-10.1-28.6-4.9c-6.6,3.2-12.9,7.5-18.5,12.2
	c-49.2,41.3-89.9,89.3-117.1,148.1C1341.3,1232.9,1328.3,1269.7,1325.9,1309.6z"/>
<path d="M1838.1,633.7c2.1-37.5,12.9-72.1,34.9-102.8c9.3-13.1,20.4-24.3,35.1-31.4c15.9-7.7,31-4.7,41.4,8.4
	c9.7,12.3,9.5,29.9-0.8,42.6c-4.4,5.4-9.3,10.3-13.9,15.5c-13.8,15.7-21.8,34.1-25.7,54.5c-2.7,14.1,0.1,27.6,3.6,41.1
	c2.5,9.8,3.3,19.5-1.2,29.1c-10.8,23-40.9,25.8-56.1,5.1C1844.5,681.2,1837.4,655.8,1838.1,633.7z M1862.6,631
	c0.3,5.6-0.2,11.7,1.2,17.4c3,11.4,6.6,22.7,11,33.6c1,2.4,7,4.6,9.8,3.8c2.5-0.8,4.8-5.6,5.3-8.9c0.6-3.7-1.2-7.7-1.7-11.7
	c-1.2-11.8-4.1-23.7-3.1-35.4c2.5-31.4,13.5-59.8,34.9-83.6c3-3.3,5.9-6.7,8.8-10.1c3.3-4,6.5-9.3,2-13.2c-3.1-2.6-9.8-3.9-13.4-2.4
	c-6.1,2.6-12,7.1-16.4,12.2C1876.8,560.7,1865.3,593.9,1862.6,631z"/>
</svg>
