<?xml version="1.0" encoding="utf-8"?>
<!-- Generator: Adobe Illustrator 24.3.0, SVG Export Plug-In . SVG Version: 6.00 Build 0)  -->
<svg version="1.1" id="Layer_1" xmlns="http://www.w3.org/2000/svg" xmlns:xlink="http://www.w3.org/1999/xlink" x="0px" y="0px"
	 viewBox="0 0 4000 4000" style="enable-background:new 0 0 4000 4000;" xml:space="preserve">
<path d="M3703.6,1984.2c-7.2,323-87.6,624.6-256.7,900.5c-188.3,307.1-447.8,533.8-777.3,679.8c-131.1,58.1-267,101.4-408.7,125.1
	c-114.9,19.2-230.6,26.4-347.2,22.8c-100-3-199.2-13.3-296.9-33.6c-174.2-36.2-339.4-97.5-494.9-184.8
	c-197.9-111.1-368-254.9-509.9-432c-174.2-217.4-289.4-462.8-346.7-735.2c-30.4-144.7-39.8-291.7-31.4-438.9
	c17.8-310,109.5-597.2,276.5-859.4C617.6,860.3,752,717,909.6,594.7C1101.9,445.6,1316.8,344,1552,284.6
	c96.9-24.4,195.8-36.1,295.3-44.8c135.3-11.9,269.3-1.9,402.5,20.6c264.8,44.6,507.1,145.4,726.2,300.3
	c146.3,103.4,272,228.6,379.1,372.5c73.3,98.6,136,203.3,186.5,315.2c78.1,172.8,129.4,353.1,147.7,542.2
	C3695.5,1855,3698.9,1919.6,3703.6,1984.2z M1958,274.9c-951.2,0.7-1698.9,783-1689.8,1723.9c8.8,913.9,761.8,1676.1,1688.9,1676.6
	c977.5,0.6,1725.1-787.7,1706.4-1724.8C3644.1,979.4,2861.1,272.2,1958,274.9z"/>
<path d="M1957.2,313.7c914,0.9,1654.6,725,1665,1647c10.7,950.6-759.1,1674.9-1652.7,1675.5c-930.8,0.6-1659.4-757.9-1660.4-1657.5
	C307.9,1075.1,1034,314.5,1957.2,313.7z M1961.5,354.5c-37,0-74.2-2.4-111,0.4c-117.1,9-231.8,31.1-344.7,64.5
	c-372.8,110.2-667,327.3-884,648.9c-127.1,188.3-208.3,395.9-252.8,618.3c-13.9,69.4-18.2,138.4-2.8,208.1
	c10.1,45.4,30.1,85.3,63.9,117.4c19.3,18.4,39.6,36,60.5,52.6c63.4,50.4,94.3,115.1,89.1,196.5c-2,31.8-5.4,63.6-5.5,95.5
	c-0.2,42-1.9,84.7,4.4,126c14.3,94.3,78.3,161.7,177.2,166.8c27.7,1.4,55.4,1.5,83.2,1.5c28.8,0,57.7-2.8,86.3-1
	c122.9,7.5,197.5,60.3,233.2,175.3c4.6,14.7,9,29.5,12.2,44.6c6.7,31.2,12.3,62.5,18.7,93.8c8.6,42.5,20.6,83.9,42.6,121.7
	c49.3,84.3,129.3,115.5,223.6,89.3c52.4-14.5,97.4-43.3,144.1-69c26.9-14.8,54.4-29.6,83.3-39.5c71.6-24.6,134-7.2,183.9,49.7
	c16.8,19.2,29.7,41.8,44.5,62.8c22.4,31.9,43,65.4,67.9,95.3c27.4,33,63.2,55.9,105.7,65.6c79,18.1,147.2-5.2,203.2-60.9
	c28.1-28,51.3-61.4,74.3-94.1c22.4-31.9,41.5-66.2,62.4-99.2c61.1-96.6,149.4-133.4,261.2-118.4c46.9,6.3,93.6,15.3,140.7,18.2
	c102.3,6.3,172.5-38.8,197.5-137.8c1.8-7,4.4-14,4.5-21c1.3-54.4,1.9-108.7,3-163.1c0.6-31.8-1.6-64.1,3.2-95.3
	c12.5-80.1,48.8-146.5,124-184.4c33.7-17,69.4-30.9,105.4-42.6c38-12.3,77.7-19.2,116.1-30.5c87.2-25.6,140.8-85.3,167-170.7
	c33.5-108.9,38.6-221.3,27.4-333.1c-18.4-183.3-64.6-360.3-145.7-526.5c-123.6-253.1-295.4-466.4-527.7-628.7
	C2619.1,454.1,2305.7,355,1961.5,354.5z M353.6,1975.9c-1.8,0.5-3.6,1-5.3,1.6c0,13.8-0.2,27.6,0,41.5
	c4.5,258.9,69.2,502,193.3,729.1c96.1,176,219.9,330.1,372.5,460.3c163,139,346.1,243.8,549.7,310.7c187.5,61.6,380.2,85,577.6,76.6
	c183.9-7.9,361.4-44.9,530.8-114.9c304.1-125.6,553-321.7,737.9-596c127.6-189.3,214.8-394.9,251.2-621c2.7-16.6,5.9-33.1,2.2-56.8
	c-10.3,13.4-16.9,20.9-22.3,29.1c-29.7,45.2-68.9,79.1-119.2,98.8c-24.7,9.7-50.6,17-76.3,23.7c-49.6,13-100.5,21.5-147.4,43.8
	c-75.8,36.1-120.7,94.5-127.6,179c-2.9,35.8-2.7,71.9-1.8,107.8c1.4,55.6,3,111.2-10,165.8c-23.7,99.7-89.7,160.9-188.1,166
	c-47.8,2.5-94.4-2.7-141-11.3c-44.7-8.2-89.6-14.7-134.7-5.1c-70.3,14.9-117.1,61.3-154.1,119.4c-17.1,26.9-32.5,54.9-49.2,82
	c-26.5,43.2-56.4,83.6-95.8,116.1c-44,36.4-93.8,59.9-151.7,60.5c-84.6,0.9-153.8-33.6-207.1-98.3c-22.1-26.9-39-57.9-59.4-86.3
	c-18-24.9-35.7-50.5-56.8-72.5c-31-32.3-70.8-41.6-113.5-28.3c-25.3,7.9-49.8,19.2-73.2,31.8c-48.8,26.3-94.5,58.7-148.1,75.5
	c-69.3,21.6-137.4,23.7-202.8-14c-53.6-31-87.4-78.3-105.1-135.8c-15.7-50.9-25.1-103.8-39.2-155.3c-10-36.5-19.8-73.7-35.3-108
	c-23.5-51.7-66-84.3-122.2-94c-36.2-6.2-73.4-7.2-110.2-8.8c-41-1.8-82.4,1.1-123.2-3c-94.9-9.4-159.3-60.6-193.4-149.7
	c-13.4-35-19.8-71.5-19.1-108.8c1-49.3,1.9-98.8,6.8-147.8c8.5-85-21.8-150.8-91.1-199.4c-0.8-0.6-1.6-1.3-2.4-1.9
	c-31.8-24.8-61.7-51.2-82.9-86.2C362.7,1986,357.8,1981.1,353.6,1975.9z"/>
<path d="M1969,1406.6c265.6,1.3,513.3,203.7,516.4,520.1c2.7,279.9-212,529.3-519.1,531.2c-280.3,1.8-527.6-236-525.6-527.1
	C1442.6,1637.5,1689.1,1400.4,1969,1406.6z M2449.8,1931.5c4.3-277.9-222.9-489-478.6-491c-248.2-1.9-490.7,198.6-493.2,489.3
	c-2.2,259.3,209.9,491.8,485.5,491.6C2263,2421.2,2449.3,2174.6,2449.8,1931.5z"/>
<path d="M1695.5,2640.7c-0.6,77.9-60.1,137.8-136.5,137.4c-75.7-0.4-140.1-62.7-140.1-135.5c0-80.7,59.9-138.7,142-137.5
	C1636.9,2506.3,1696.2,2565.9,1695.5,2640.7z M1642.7,2594.5c-0.6-21.8-22.7-40.7-46.4-39.4c-24.1,1.3-42,20-42.1,44.2
	c-0.1,22.8,20.7,42.3,44.4,41.3C1623.3,2639.7,1643.4,2618.7,1642.7,2594.5z"/>
<path d="M2541.4,2638.8c0.1,77.1-62.2,142.7-135.6,143c-73.7,0.3-137.6-63.1-135.6-139c2.1-78.2,54.9-136.5,136.3-137.4
	C2478.2,2504.7,2540,2553.4,2541.4,2638.8z M2492.1,2599.2c0.7-25-19.2-46.5-42.9-46.5c-20.9,0-40.9,22.2-41,45.5
	c-0.1,22.7,17.6,41.3,40,42.2C2472.3,2641.2,2491.5,2623.3,2492.1,2599.2z"/>
<path d="M1572.3,506.1c40.4-0.6,68.5,19.8,80.9,52.3c12.8,33.8,5.9,64.2-22,85.4c-18.7,14.2-39.4,25.9-59.4,38.3
	c-42.6,26.5-84.6,54.3-128.4,78.9c-52.4,29.6-109.5-1.2-115.5-60.3c-2.1-20.4,2.4-39.1,17.8-53.4c11.2-10.4,22.8-20.9,35.6-29.1
	c50-32.2,100.2-64,151-94.7C1547,514.6,1563.8,509.7,1572.3,506.1z M1407.9,735.2c4.1-1.8,12.9-4.8,20.6-9.5
	c57.7-35.3,115.3-70.8,172.6-106.7c21.1-13.2,25.5-29.6,15.1-49.4c-11.5-21.8-28.2-28.7-51.1-20.3c-7.6,2.8-14.9,6.9-21.7,11.3
	c-47.6,30.2-95.1,60.5-142.5,91.1c-9.4,6.1-18.9,12.5-27,20.2c-12.5,11.8-9.7,26-3.1,39.7C1377.2,725,1385.6,736.5,1407.9,735.2z"/>
<path d="M1098.2,2009.5c-13.8-6-28.1-11.2-41.4-18.3c-7-3.8-12.7-10.4-18.2-16.5c-43.1-47-86.6-93.6-128.8-141.3
	c-32.3-36.6-28-80.4,9-110.9c25.6-21.1,54.7-23.9,82.9-6.4c11.2,7,21.7,15.8,30.8,25.4c40.2,42.6,80,85.6,119.5,128.9
	c16.1,17.7,29.6,37.2,28.1,63C1177.6,1975.4,1142.9,2006.8,1098.2,2009.5z M969.4,1741.5c-20.7,2.4-32.3,11.6-39.5,26.3
	c-6.6,13.5-3.5,25.8,6.7,36.7c46.8,50.3,93.1,101.1,140.6,150.8c18.6,19.4,30.6,18.6,50.2,1.5c19.9-17.4,22.4-29.2,4.4-49.6
	c-45.6-51.5-92.3-101.9-139.3-152.1C985.9,1748.3,975.4,1745,969.4,1741.5z"/>
<path d="M2773.8,1873.2c-37.1,0.1-61.2-16.7-73.6-46.3c-11.9-28.3-6.4-62.7,15-82.7c8.8-8.2,19.5-15.7,30.7-19.8
	c64.4-23.9,128.7-48.1,193.9-69.5c46-15.1,84.6,8,96.7,54c8.9,33.7-4.2,67.5-35,83.9c-18,9.6-37.5,16.4-56.7,23.4
	c-43.3,15.9-86.7,31.5-130.4,46.5C2799,1868,2782.8,1870.9,2773.8,1873.2z M2764.2,1836.4c9.8-2.7,19.8-4.9,29.4-8.2
	c34.8-12.1,69.6-24.5,104.2-37.1c27-9.8,54.1-19.2,80.5-30.2c19.9-8.3,25.6-19.4,23.8-38c-2-21.2-22-44.5-50.1-33.9
	c-62.3,23.6-125.1,45.9-187.5,69.1c-7.6,2.8-15,7.1-21.2,12.3c-12.3,10.2-14.4,27.2-7,45.2
	C2741.5,1827.8,2748.8,1836.9,2764.2,1836.4z"/>
<path d="M2311.2,1142.2c-0.8-31.3,15.9-53.5,43.7-67.3c31.2-15.5,63.2-29.5,95-43.7c31.8-14.2,63.5-29,96-41.6
	c39.7-15.4,74.4-1.2,92.8,35.8c18.5,37.4,7.8,83.4-27.9,102.3c-41.6,22-85.3,40.3-128.3,59.6c-24.3,10.9-48.9,21.1-73.8,30.8
	C2359.2,1237.4,2307.5,1191.2,2311.2,1142.2z M2347.8,1135.4c-2.8,36,21.1,56.1,50.5,45.6c28.9-10.3,56.7-23.6,84.8-36
	c34.7-15.2,69.4-30.4,103.7-46.4c27.1-12.6,32.5-29.3,19-54.4c-12.1-22.6-24.9-28.3-50.8-17.1c-60.2,25.9-119.7,53.3-179.4,80.3
	c-6.4,2.9-13.1,6.7-17.8,11.8C2352.6,1124.9,2349.5,1132.5,2347.8,1135.4z"/>
<path d="M1677,1182.5c-1.2,29.7-10.1,52.4-33.2,63.3c-69.5,32.8-139.1,65.7-210.6,93.8c-37.4,14.7-72.5-5.3-88.6-40.8
	c-16.6-36.5-5.8-74.2,29.2-96.4c14.6-9.3,30.8-16.2,46.6-23.5c47.6-21.8,94.8-44.5,143.1-64.6c46.8-19.4,86.4-2.6,106.5,42.8
	C1674.1,1166.2,1675.5,1176.6,1677,1182.5z M1595.5,1142.3c-4.6,1.7-13.4,4.3-21.7,8.1c-32.6,15.2-65,30.8-97.5,46.1
	c-27,12.7-54.4,24.5-80.9,38c-23,11.8-26.9,28.4-14.5,51c11.2,20.4,22.9,25.3,45.7,18.5c7.8-2.3,15.6-5.2,23.1-8.6
	c49.6-22.5,99.1-45.2,148.5-67.9c8.4-3.9,16.8-7.9,24.6-12.8c17.3-10.9,21.2-21,15.9-38.6
	C1632.7,1155.9,1616.5,1141.7,1595.5,1142.3z"/>
<path d="M472.4,1666.8c-2.5-23.3,10.5-41.3,30.4-54.3c22.3-14.5,45.9-27.3,69.1-40.4c31.3-17.7,62.7-35.1,94.2-52.3
	c9.9-5.4,20.1-10.4,30.6-14.3c36.9-13.8,74,0.1,91.8,33.8c19.9,37.7,13.3,75.5-21.1,97.7c-38,24.4-78.2,45.2-117.5,67.4
	c-22.4,12.6-44.4,25.9-67.5,36.9C516.4,1772.8,470.9,1717.9,472.4,1666.8z M553.7,1710.8c6.6-2.8,18.3-6.6,29-12.4
	c49.6-27,98.9-54.5,148.2-81.9c5.4-3,10.8-5.9,15.8-9.5c18.3-13.2,21.8-28.2,11.9-48.1c-12.3-24.5-32-29.7-59.4-14.2
	c-38.5,21.6-76.4,44.2-114.7,66.2c-19.6,11.2-39.9,21.3-58.9,33.4c-16.5,10.6-20,23.2-14.4,39.6
	C517,1700.5,531.8,1711.4,553.7,1710.8z"/>
<path d="M2422.3,480.9c59.9,2.7,90.6,50,66.8,105.3c-9.3,21.6-22.3,41.6-34.7,61.7c-24.8,40.2-51.7,79.2-75.3,120.1
	c-28.4,49.3-77.3,45.4-108.6,26.2c-34.6-21.3-44.3-68-21.2-106.1c32.5-53.6,65.6-106.8,99.4-159.6
	C2365.8,501.8,2386.4,479,2422.3,480.9z M2271.7,731.4c3.9,8.3,6.1,16.4,10.9,22.5c17.7,22.5,44.9,22,61.4-3
	c36.6-55.6,71.6-112.3,107.1-168.6c2.2-3.4,3.7-7.3,5.2-11.1c4.8-12.8,8.7-25.4-3.3-36.9c-11.9-11.4-26.1-18.7-41.7-12.9
	c-9.7,3.6-19.3,12.1-25.2,20.9c-33.9,51.2-67,103.1-99.6,155.1C2280,707.4,2276.7,719.5,2271.7,731.4z"/>
<path d="M2753.4,781.4c14.1,5.4,30.2,8.2,42.1,16.7c59.3,42.4,118.5,85.2,175.9,130.2c32.7,25.6,35,69.4,10,102.2
	c-22.5,29.4-68.1,38.9-99.4,17c-58.9-41.2-116.9-83.9-174-127.6c-28.6-21.9-35.5-51.3-24.5-82.5
	C2694.3,806.3,2722.5,784.6,2753.4,781.4z M2758.2,821c-6.9,1.9-11,2.6-14.8,4c-26.9,10.3-35.4,41.3-15.1,62.6
	c14,14.7,31.7,25.9,48.2,38c41.3,30.5,82.4,61.4,124.4,90.8c18.4,12.9,38.4,8.2,51.9-8.7c12.8-15.9,11.2-32.7-5-49.3
	c-5-5.1-10.6-9.7-16.3-14.1c-48.5-36.4-96.8-73-145.7-108.9C2777,829,2766.3,825.1,2758.2,821z"/>
<path d="M3155.6,2308.8c-23.5,1.2-41.9-8.6-56.2-26.4c-27-33.5-53.8-67.2-80.6-101c-16.5-20.9-34.1-41.1-48.9-63.2
	c-28.3-42-16.9-87.3,26.7-112.9c31.8-18.7,64.4-13.5,90.6,17.4c27.8,32.8,53.8,67.2,80.1,101.3c17.5,22.7,34.6,45.8,51.4,69
	c18.3,25.3,17.1,51.5,2.8,78.1C3207.3,2297.4,3184.1,2307.6,3155.6,2308.8z M3040.5,2032.5c-39.5,0.9-57.2,31.8-39.3,60.1
	c12.6,19.9,27,38.8,41.5,57.4c27.6,35.7,54.9,71.8,84.1,106.2c16.9,20,34.7,20.2,54,5.3c18.3-14.1,20.9-28.9,4.9-50.8
	c-39.4-53.9-79.6-107.2-120.5-160C3058.1,2041.8,3046.3,2036.7,3040.5,2032.5z"/>
<path d="M2934.1,1335.2c0.5-61.5,47.2-97.5,100.1-80.1c64.2,21.1,127.5,45.1,191,68.1c7.7,2.8,14.9,6.9,22,11
	c34.8,20.3,46.4,54.6,31.6,92.5c-14.2,36.2-48.5,55.7-86.6,45.1c-38.4-10.6-76-24.6-113.7-37.9c-34.8-12.2-69.4-24.9-103.7-38.4
	C2945.4,1383.9,2933.4,1360.5,2934.1,1335.2z M3012.8,1288.9c-24.5,0-35.6,8.8-41.8,29.7c-5.9,20.2-0.7,33.8,17.8,43.7
	c7.2,3.9,15,6.7,22.7,9.4c56,20.1,112.1,40.1,168.2,60c7.7,2.7,15.7,5.5,23.7,6.5c20.5,2.5,35.4-8,41.8-28.3
	c7-22.1,2-34.7-18.8-45.7c-5.4-2.9-11.3-4.9-17.1-7c-58-20.8-116-41.6-174-62.1C3026.7,1291.9,3017.6,1290.2,3012.8,1288.9z"/>
<path d="M1881.3,500.1c19.3-1.6,35.9,5.7,49.3,19.7c14.9,15.6,29.1,31.9,43.2,48.1c28.3,32.5,56.6,65.1,84.6,98
	c8.6,10.1,17.3,20.6,23.9,32c16.4,28.3,11.9,61-10.3,85.5c-21.5,23.8-55.7,32.4-84.3,18.2c-14.3-7.1-28-17.8-38.4-29.9
	c-41.5-48.3-82-97.5-122.2-146.9c-21.1-25.9-28.5-54.6-11.3-85.8C1829.8,513.8,1850.8,499.5,1881.3,500.1z M2009.4,772.2
	c8.6-1.9,11.7-2.4,14.6-3.3c31.1-9.2,40.1-36.4,19.3-62.1c-38.7-47.9-78.3-95-117.8-142.3c-5.9-7.1-12.5-13.7-19.6-19.5
	c-15.8-13.1-32.3-12.9-47.3-0.3c-15.6,13.1-18.4,27.6-6.7,46.4c8.1,13,18.2,24.8,27.9,36.7c33.9,41.2,67.6,82.6,102.4,123.1
	C1990.3,760.3,2002.1,766.6,2009.4,772.2z"/>
<path d="M1316.4,1810.7c-51.1-0.1-85.1-40.4-72.4-90.2c11.9-46.7,28.5-92.2,43.2-138.1c7.5-23.5,14.8-47,23.5-70
	c10.9-28.8,33.1-44.5,63.3-46.4c31.8-2,54.8,13.6,70.9,40.6c9.5,16,12.5,33,7.1,50.4c-21.3,68.7-42.2,137.5-65.5,205.5
	C1374.1,1798.5,1353.2,1810.8,1316.4,1810.7z M1417,1542.4c0.2-20-8.8-31.7-25.7-35.8c-25.9-6.3-41.7,2-51.3,30.8
	c-19.6,58.3-38,117-56.7,175.7c-2.2,6.8-3.3,14.1-3.6,21.2c-0.8,18.2,11.5,33.9,29,38.4c17.6,4.5,31.5-1.5,40.6-19
	c5.2-10,9.6-20.5,13-31.2c17.4-54.7,34.4-109.5,51.4-164.4C1415.5,1552.2,1416.3,1546.1,1417,1542.4z"/>
<path d="M1356.9,2478c-45.5,0.5-79-46.4-72.1-82c13-66.5,22.1-133.8,33.5-200.6c5.1-30.1,19.5-54,50.2-64.7
	c60.9-21.3,115,40,102.7,88.5c-16.7,65.6-26.1,133.1-40,199.4C1422.6,2459.7,1397.2,2478.7,1356.9,2478z M1434.1,2210.8
	c1.9-28.7-7.9-41-30.1-44.4c-25.1-3.8-40.8,3.9-45.7,25c-5.1,22-8.2,44.4-11.9,66.7c-7.8,46.6-16.8,93.1-22.7,140
	c-4,31.6,16.8,47.6,48,41.1c19.3-4,22.6-19.6,25.7-34.5c7.7-37.2,14.2-74.7,21.3-112C1424.1,2263.3,1429.7,2234.1,1434.1,2210.8z"/>
<path d="M2700.1,2161.2c19.5-0.4,36.4,6.3,49.8,20.3c8.5,8.8,16.4,18.5,23.3,28.6c33.5,49.2,66.7,98.5,99.7,148
	c12.6,18.9,24.1,38.8,18.1,63.1c-6.8,27.5-21.1,49.1-50.1,57.1c-30.1,8.3-57.4,2.9-78.8-20.5c-12.4-13.6-22.7-29.1-33.3-44.2
	c-28.4-40.2-56.4-80.6-84.7-120.9c-17.1-24.3-29.5-49.2-17.3-80.1C2639.1,2181.5,2666.7,2161.5,2700.1,2161.2z M2707.9,2198.5
	c-20.8,0.8-33.8,8.2-42.6,22c-10.1,15.7-2.8,30.2,5.8,43c37.3,55.2,74.9,110.1,113.4,164.4c14.6,20.6,35,22.4,56.2,7.7
	c18.4-12.7,21.1-28.2,8.2-50.8c-4.5-8-10-15.5-15.2-23.1c-27.8-40.6-55.4-81.3-83.5-121.7c-7.6-10.9-15.7-21.7-24.9-31.1
	C2719.9,2203.5,2711.8,2200.8,2707.9,2198.5z"/>
<path d="M842.5,2100.4c-5.1,34.7-21.2,58.1-51,71.6c-29.8,13.5-58.2,7.6-82.1-15.9c-5.1-5-9.6-10.7-14.1-16.3
	c-37.4-46.5-74.8-92.9-112.1-139.5c-26.2-32.7-30-59.7-12.9-90.8c26.1-47.3,84.9-56.1,122.2-17.1c17.7,18.5,32.8,39.6,48.7,59.7
	c28,35.5,56.4,70.7,83.1,107.3C832.9,2071.2,836.6,2086.6,842.5,2100.4z M754.5,2141.5c21.8-3.8,37.3-8.6,45.6-25.1
	c7.6-15.3,0.5-27.5-8.8-39.3c-38-48.3-75.8-96.8-113.8-145.1c-3.8-4.8-8-9.4-12.5-13.5c-17.1-16-34.2-17.1-52.4-3.7
	c-16.8,12.4-19.8,28-9.2,48.9c2.3,4.5,5,9,8.2,13c38.9,48.9,77.6,97.9,117.3,146.1C736.1,2131.5,747.8,2136.7,754.5,2141.5z"/>
<path d="M2724.1,1419.7c-4.2,9.7-8,26.4-17.3,39.1c-41.3,56.3-83.2,112.2-126.7,166.9c-26.2,33-65.5,35.5-101.8,10
	c-33.2-23.3-42.5-62.1-18.6-97.4c30.5-45,64.3-87.8,97.1-131.3c12.3-16.4,24.7-32.9,38.9-47.7c21-22,46.7-29.2,75.9-17
	C2703.1,1355.4,2719.1,1380,2724.1,1419.7z M2689.9,1409.8c-9.9-11.1-17.8-23-28.6-31.2c-11.8-9-26-6.4-36.9,3.5
	c-9,8.2-17,17.8-24.4,27.6c-19.8,26.2-39,53-58.7,79.3c-16,21.5-33.1,42.1-48,64.2c-15.4,22.9-12.2,38.8,7.7,53.4
	c21.8,16,38.2,13.9,55.5-8.3c13.3-17,25.5-34.8,38.5-52.1c25.2-33.8,51-67.2,75.8-101.3C2677.9,1435.2,2682.5,1423.7,2689.9,1409.8z
	"/>
<path d="M987.1,1318.7c-0.2,66.9-57.1,101.2-113.3,70.9c-16.2-8.7-30.9-20.1-46.2-30.4c-41.7-28.1-83.6-55.8-124.8-84.5
	c-31.6-22-42.7-50.1-34.2-81.8c14.4-53.5,66-77.1,112.8-47.5c60.6,38.3,118.8,80.4,177.6,121.6
	C977.2,1279.9,989.5,1297.4,987.1,1318.7z M743.2,1166.6c-7.8,2.8-14,4-19.2,7c-27.5,15.7-28.3,50.6,0,70.4
	c54.6,38.1,109.9,75.2,165.4,111.9c22.4,14.8,40.3,11.3,53.6-7.7c15.5-22.1,13.5-38.9-9.4-55.1c-54.3-38.4-109.3-76.1-164.2-113.6
	C761.2,1173.9,751.4,1170.6,743.2,1166.6z"/>
<path d="M2116.3,1126.8c-0.7,31.3-13.8,55.6-42.3,69.8c-27,13.5-53.6,12.2-78.6-5.9c-3.3-2.4-6.7-4.8-9.6-7.7
	c-47.6-48.4-95.8-96.2-142.2-145.7c-29.2-31.1-27.7-72.8,0.4-103c25.6-27.5,60.4-33,92.1-12.4c14.5,9.4,27.7,21.4,39.9,33.8
	c39,39.5,77.4,79.6,115.9,119.7C2105.6,1089.7,2117,1105.4,2116.3,1126.8z M2031.7,1167.5c22.9-0.4,36-9.1,44.6-24.6
	c7.5-13.5,2.9-25.8-5.8-37c-4.4-5.6-9.3-11-14.3-16.1c-39.3-40.4-78.7-80.8-118.3-121c-6.4-6.5-13.9-12.1-21.2-17.7
	c-11.3-8.7-22.9-7-34.5-0.3c-25.6,14.8-29.9,40.9-7.7,64.6c44.2,47.1,89.6,93.1,135.1,138.9
	C2016.4,1161.1,2026.5,1164.5,2031.7,1167.5z"/>
<path d="M3231.1,1876.4c0.7-5.6,1.3-15.9,3.2-26c9.5-50.4,19-100.8,29.2-151c3.4-17,7.1-34.3,13.4-50.5
	c14.2-36.1,48.5-52.2,88.3-43.1c35.2,8.1,60.7,41.2,54.5,78.2c-12.3,73.8-26.2,147.5-42.4,220.6c-9.4,42.5-39.9,59-84,52.1
	C3255.5,1950.9,3230.2,1920.1,3231.1,1876.4z M3268.3,1866.4c-2,40.7,12.9,55.7,43.6,53.8c20-1.2,27.5-6.9,32.4-30.2
	c10.7-50.2,20.3-100.6,30.1-150.9c3.7-19.1,7.4-38.4,9.4-57.7c2.2-21.9-10.6-36-33.6-40c-22.7-3.9-35.7,3.3-42.1,25.5
	c-4.8,16.7-8,34-11.3,51.1C3286.5,1770.4,3276.6,1822.9,3268.3,1866.4z"/>
<path d="M1020.8,1004.7c2.4-13.9,6.1-36.2,10.3-58.3c7.6-40.3,15.5-80.6,23.5-120.8c1.8-9.1,4-18.1,6.5-26.9
	c9.2-32.1,29.9-50.1,63.9-53c34.7-2.9,61.3,10.3,76.9,39.8c10.8,20.5,6.9,42.2,3.1,63.4c-9.5,53.6-19.5,107-29.9,160.4
	c-2.7,14-6.6,28.1-11.9,41.3c-11.6,28.7-34,42.5-64.9,43.3C1047.4,1095.1,1017.5,1064.4,1020.8,1004.7z M1172.5,832.2
	c1.8-33.3-9.9-47.3-32.6-50.2c-23.7-3.1-37.7,5.9-43.6,32.5c-14.4,65-27.7,130.2-40.6,195.5c-4.8,24.2,6.3,40.7,28.5,46.5
	c23.3,6.1,40.7-2,46.5-27.2C1146.6,960.5,1160.1,891.2,1172.5,832.2z"/>
<path d="M1075.5,2562.8c-30.8,0-52.1-14.3-65-40.3c-10.5-21.1-19.2-43.1-28.5-64.8c-16.2-37.7-32.3-75.4-48.5-113.1
	c-8.2-19.1-14.5-38.5-8.5-59.7c8.2-28.8,36.7-52,67.6-55.3c30.3-3.2,59,11.7,73.1,40.6c11.2,23,19.9,47.2,29.7,70.9
	c16.9,40.7,33.8,81.4,50.7,122.2C1170.5,2522.1,1122.3,2564.7,1075.5,2562.8z M1115.6,2490.9c-1.6-5.6-3.7-15.6-7.4-25.1
	c-10-25.8-20.7-51.3-31.1-76.9c-12.8-31.3-25.3-62.7-38.4-93.8c-10.9-25.9-25-33.8-47.1-27.7c-28.3,7.9-37.5,25.5-26.3,53.4
	c23.2,58,47.1,115.7,70.8,173.5c3.1,7.5,6.5,15.2,11.1,21.8c8.5,12.3,21.3,14.5,41.7,8.4C1107.1,2519.3,1115,2510.6,1115.6,2490.9z"
	/>
<path d="M1470.7,2946.6c-35.2,0.8-69.5-2.4-101.5-19.1c-46.8-24.4-50.8-71.8-8-102.9c6.5-4.8,13.9-9,21.4-11.7
	c59.9-21.7,120.3-21.9,180.5-1.6c10.4,3.5,20.7,9.5,29,16.7c32.5,28.1,29.6,69-6,93.3c-20.9,14.3-44.6,20.2-69.3,22.7
	C1501.4,2945.6,1486,2945.8,1470.7,2946.6z M1480.8,2829.5c-0.2,1.3-0.4,2.6-0.6,3.9c-9.2,0-18.7-1.5-27.5,0.3
	c-20.9,4.3-42.1,8.5-61.9,16.2c-9,3.5-18.8,14.2-20.6,23.2c-1.2,6,9.7,16.5,17.5,21.7c9,6.1,20.2,10,31,12.3
	c36.5,7.7,73.4,5.8,109.7-0.8c14.6-2.7,29-9.9,41.9-17.8c12.4-7.6,13-20.9,2.4-31.1c-6.4-6.1-14.8-11.7-23.2-13.9
	C1526.8,2837.7,1503.7,2834,1480.8,2829.5z"/>
<path d="M2497,2950.9c-38.6-2.6-74.6-3.9-107.2-22.2c-46.5-26.1-50.8-73.9-6.1-102.7c20.7-13.4,46.8-20.6,71.5-25.2
	c47.3-8.8,94.3-3.7,138.1,17.7c22.7,11.1,41.7,26.6,42,55.7c0.2,26.8-13.8,44.3-36.2,56.2C2566.2,2947.8,2530.1,2948.7,2497,2950.9z
	 M2491.6,2917.4c0.1-0.5,0.2-1,0.3-1.6c14.3-0.9,28.7-1.1,42.9-2.8c21.7-2.7,42.1-9.5,59-24c11.1-9.5,11.6-18.3,1.4-28.6
	c-4.9-5-10.9-10.2-17.4-12.3c-54-17.7-108.4-21.1-162.6-0.5c-12.5,4.7-26.7,10.9-27,26.3c-0.3,15.2,13.8,21.6,25.4,28.1
	c4.4,2.5,9.3,4.7,14.3,5.5C2449.2,2911.1,2470.4,2914.2,2491.6,2917.4z"/>
<path d="M2090.3,2731.7c30.1-1.5,31.8-0.5,31.4,22.1c-0.7,35.9-11.3,68.8-33.2,97.5c-35.2,46.1-84.8,52.7-136.2,42.9
	c-52.7-10-86.9-44.6-101-96.8c-4-14.7-4.9-30.4-6.1-45.7c-0.9-10.5,4.3-18,15.4-19.4c11.7-1.5,16.8,5.8,18.6,16
	c2,11.1,2.8,22.5,5.4,33.4c17.3,73.8,103.5,103.6,163,56.7c22.4-17.7,31.2-42.6,36.2-69.3C2085.9,2757.1,2087.9,2745,2090.3,2731.7z
	"/>
<path d="M1969.4,1481c227.7,1.5,444.4,188.2,442.3,453.5c-1.7,222.3-176.1,445.9-445.9,447.5c-243.1,1.4-446-195.4-447.7-451.6
	C1516.6,1685.1,1727.3,1478.1,1969.4,1481z M1555.4,1929.5c2.9,254.6,206.9,415.3,399.2,415.8c280,0.7,422-226.2,421.6-409.6
	c-0.6-273.5-229.4-415.5-402.5-416.6C1746,1517.5,1556.4,1703.5,1555.4,1929.5z"/>
</svg>
