<?xml version="1.0" encoding="utf-8"?>
<!-- Generator: Adobe Illustrator 24.3.0, SVG Export Plug-In . SVG Version: 6.00 Build 0)  -->
<svg version="1.1" id="Layer_1" xmlns="http://www.w3.org/2000/svg" xmlns:xlink="http://www.w3.org/1999/xlink" x="0px" y="0px"
	 viewBox="0 0 4000 4000" style="enable-background:new 0 0 4000 4000;" xml:space="preserve">
<path d="M619.5,2145.9c-6.2-15-11-26.3-15.6-37.7c-65.2-161.1-66-320.2,20.3-474c69.1-123.2,175.3-204.6,306.8-252.1
	c51.5-18.6,105.8-29.2,158.8-43.6c5.9-1.6,11.6-4,19.6-6.8c-1.6-9-2.2-17.4-4.5-25.3c-47.9-168,13.1-338.7,157.1-440.1
	c50.7-35.7,106.5-61.2,165-80.1c107.1-34.5,215.2-66.2,322.5-100.2c68.5-21.7,133.7-49.8,185.5-102.4c61.2-62.1,82.7-136.2,64-220.4
	c-7.8-35.1-22.4-68.8-34.9-102.7c-7.3-19.9-19.6-38.8-2.4-59.6c18.1-21.8,41.1-20.9,65.2-14.4c71.4,19.2,140.9,43.6,207.3,76.7
	c168.2,83.7,307.5,200.9,414.1,355.9c75.5,109.6,120,230.5,126,364.4c1.3,29.8,0.2,59.7,0.2,92.1c18.7,5.9,37.7,11.4,56.3,17.8
	c111.1,38.5,215.1,90,300.6,172.4c103.5,99.7,164.7,221.8,187.9,363.8c14.5,88.8,1.7,174.5-22.2,259.7c-2.4,8.4-5.1,16.7-7.2,25.2
	c-0.6,2.2,0.5,4.9,0.3,3.5c54.8,39.4,110.2,74,159.4,115.7c217.7,184.4,328.3,503.2,210.8,823.1
	c-67.8,184.7-190.3,324.5-349.3,435.1c-168.5,117.2-355.7,193.5-551.7,249.9c-180.9,52-365.3,87.1-552.7,103.9
	c-199.8,17.9-400,21.8-600.6,12c-188.1-9.2-374.5-30.1-556.9-77.5c-180.7-47-351.5-117.2-500-233.9
	c-154.6-121.6-261.1-274.5-289.2-471.7c-39.5-277.5,50.3-505.2,277.2-674.9c13-9.7,26.8-18.5,40.4-27.4
	C590.3,2163.9,603,2156.2,619.5,2145.9z M2753.3,1161c-7.1,15.9-12.8,31-20.3,45c-65.6,122.7-170.7,197-299.1,242.3
	c-7,2.5-14.6,3.8-22,4.5c-22.6,2.3-33-4-41.2-23.8c-7.5-18.1-4.3-35.7,11-47.3c9.8-7.4,21.8-12,32.9-17.8
	c35.5-18.5,72.5-34.4,106.2-55.7c91.4-57.8,148.8-137.9,163.4-248.2c14.8-112.6-8.2-216.8-60.6-315.4
	C2526.1,561,2377.4,431,2193.3,339.3c-35.4-17.6-72.8-31-115.8-49.1c4.1,24.1,7.4,40.8,9.8,57.7c20.1,141.4-21.9,257.7-142.2,339.4
	c-37,25.1-77.2,48.2-119.2,62.7c-98,34-197.9,62.6-297.3,92.7c-74.5,22.6-147.6,48.5-212.7,92.3c-100,67.1-147.8,161.3-139.8,281.5
	c5.5,82.1,38.1,151,115,189.9c41.1,20.8,83.6,40.6,127.7,53.1c104.6,29.5,212.2,33.7,320.3,29c16.2-0.7,32.7-1.4,48.7,0.8
	c18.6,2.6,33.6,21.2,34.8,39.2c1.2,17.7-12,37-30.9,42.2c-10.7,2.9-22.2,3.2-33.5,3.8c-87.8,5-175.5,3.5-262.4-10.1
	c-117.5-18.4-230.7-48.6-320.6-133.8c-10.8-10.2-22.4-13.5-37.6-11c-106.2,17.2-206.8,49.5-297.7,108.4
	c-53.3,34.5-97.9,78.3-131.9,131.8c-63.1,99.5-75.6,207.2-51.3,321.3c20.9,98.4,69.5,178.8,149.2,240.2
	c50.1,38.5,105.9,66.6,165,88.1c127.9,46.6,261,70.1,395.9,82c178.6,15.8,357.6,19.4,536.7,8c11.2-0.7,22.6-1.1,33.8,0.1
	c21,2.2,34.6,15.8,37.4,35.7c2.6,19-6.9,39.5-24.2,46.4c-11.3,4.5-24.1,6.5-36.4,7.3c-28.7,1.8-57.6,1.8-86.4,3.2
	c-234.9,11.3-468.4-1-698.9-49c-162-33.7-317.7-84.2-436.1-210c-11.3-12-22.7-13.9-36.5-4.7c-26,17.4-53.3,33-78.2,51.8
	C432,2390.4,347.7,2535,337.8,2719.7c-9.1,169.4,43.1,318,153.4,446.5c99.2,115.6,222.9,196.4,362.1,255
	c178,75,364.6,114.9,555.9,136.3c131,14.7,262.4,15.2,394,16.4c220.9,2,440.5-10.1,657.7-53.3c208-41.3,412.3-94.2,604-187.7
	c163-79.4,309.3-180.2,418.6-328c164.6-222.7,187.6-521.7,45.5-748.5c-68.7-109.7-159-194.9-273.9-252c-4.5,2.2-7.2,2.8-8.9,4.4
	c-2.7,2.5-5.1,5.6-7,8.7c-38.4,61.6-89.1,111.4-148.3,152.4c-137.7,95.2-292.6,152-451.7,198.9c-7.1,2.1-14.8,2.7-22.3,3.4
	c-21.5,1.9-35-7-43.1-27.7c-7.3-18.6-3.9-34.3,14.3-45.5c14.6-9,31.4-15.3,48-20.3c123.6-37.5,245.8-78.6,356-147.7
	c83.8-52.6,157.5-115.7,200.4-208c95.5-205.3,39.4-457.5-135.2-608.8C2970.2,1238.9,2870.1,1190.1,2753.3,1161z"/>
<path d="M1378.1,1817.7c1.7-79,59.1-135.3,136.5-134.1c72.7,1.1,129.4,61.2,127.2,134.6c-2.2,74.6-63.3,131.5-138.2,128.7
	C1434.4,1944.3,1376.7,1884.8,1378.1,1817.7z"/>
<path d="M2469.1,1838.9c-0.4,76.9-55,133.1-128.3,132.3c-71.2-0.7-133.6-59.6-133.5-125.9c0.1-75.6,61.4-138.2,135-137.6
	C2412.7,1708.2,2469.5,1766.9,2469.1,1838.9z"/>
<path d="M438.4,2745c2.6-120.7,40.8-228.3,119.3-320.4c16.8-19.8,36.9-37.2,57.5-53.2c7.5-5.8,21.7-7.9,31-5.2
	c18.5,5.3,23.1,27.3,10.8,42.2c-3.9,4.8-9.1,8.6-13.8,12.7c-127.1,110.6-163.6,251.9-139.3,413.4c8.5,56.2,29.1,108.5,56.3,158.2
	c7.7,14.1,12.8,27.6-4,39.4c-15.7,11-30.5,10-40.5-9.2c-19.4-37.6-37.8-76.1-52.2-115.9C444.5,2855.1,436.7,2800.5,438.4,2745z"/>
<path d="M3459.4,2601.9c-0.9-15-1.9-30-2.7-45c-1.9-38.1,2.9-46.8,25.8-47.3c21.9-0.4,30.8,8.9,30.7,45.7
	c-0.2,51.1,0.6,103.2-8.6,153.1c-31.5,170.6-125.7,302.7-261.8,406.9c-6.9,5.3-14.3,10.3-22,14.3c-17.6,9-32.3,4.8-41.7-11
	c-9.4-16,0.5-25.1,11.7-34.6c38-32.4,78.7-62.4,112.7-98.6C3404.3,2878.2,3458.3,2750.6,3459.4,2601.9z"/>
<path d="M950,1562.6c8.4,7.4,19.4,13,23,21.6c3,7.1,0.1,20.5-5.4,26.4c-10,10.8-23.6,18.2-35.9,26.7c-115,78.5-161.1,227-108,354.7
	c10.8,26,29.4,48.9,45,72.8c4.7,7.2,12.1,12.6,17.5,19.5c9.7,12.4,10.1,25.9-0.1,37.7c-10.8,12.5-25.8,11.9-37.2,2.8
	c-14.5-11.6-28.1-25.1-38.8-40.2c-67.8-94.9-83.9-198.4-48-309.6c25.9-80.3,74.9-143.4,145-189.9
	C919.3,1576.8,933.2,1571.2,950,1562.6z"/>
<path d="M1920.5,2136.5c-99.6,0-168.7-58.1-185.6-155.9c-1.3-7.3-2-14.9-1.7-22.4c0.9-21.5,9.5-31.6,27.6-33.8
	c19.6-2.4,30.4,3.8,37.3,23.1c4.2,11.7,6.5,24.1,9.8,36.1c25.3,92.1,114.3,101.2,173.8,73.9c27.5-12.6,46.6-33.3,55-62.9
	c2.7-9.6,4.7-19.4,7.3-29c8.1-29.9,19.2-37.8,44.4-31.8c23,5.5,30.7,20.6,25.5,49.7c-15.7,87.1-86,148.7-174.7,152.9
	C1933,2136.7,1926.7,2136.5,1920.5,2136.5z"/>
<path d="M2538.9,2180.7c-45,1.4-86.8-9.4-124.9-33.2c-49.1-30.6-53.1-87.8-9.2-125.9c29.6-25.7,66.1-34.4,103.3-40.5
	c56-9.2,109.8-1.7,159.3,27.1c61.1,35.5,62.7,98.8,4.1,138.6C2641.5,2167.1,2590.9,2180.1,2538.9,2180.7z M2538.7,2131.2
	c25.8-4.2,51.9-6.9,77.2-13.1c21-5.2,43.5-16.1,45.2-39.4c1.7-22.9-21.2-33.2-39.9-39c-59.4-18.6-117.9-15.9-174.3,12.6
	c-2.2,1.1-4.4,2.4-6.4,3.9c-23.7,18.1-23.6,32.7,1.1,49C2470.9,2124.6,2503.9,2129.9,2538.7,2131.2z"/>
<path d="M1294.4,2151.3c-43.9,1.9-86.8-10.6-126.4-34c-62.2-36.8-63.3-111.6,1.1-143.7c80.3-40,163.5-38,240,10.8
	c64.3,41.1,55.8,115.1-13.6,148.1C1367.2,2146.1,1340.2,2151.3,1294.4,2151.3z M1303,2103.2c20-3.7,41-6.5,61.3-11.8
	c17.1-4.5,34-12.9,37.2-32.7c3.3-21.2-14-31.6-28.9-39.5c-56.4-30.2-115-30.5-172.9-5.6c-12,5.1-26.9,20.1-27.3,31
	c-0.3,11.2,14.2,24.3,24.6,33.9c6.8,6.3,17.7,9.4,27.3,11.3C1249.9,2094.9,1275.7,2098.7,1303,2103.2z"/>
<path d="M3149,1718.8c-4.1,120-63,232.1-174,316.9c-11.8,9-25.3,15.9-38.7,22.6c-13.2,6.6-24.2,2.1-32.1-10
	c-8.9-13.6-8.2-26.1,5.2-36.2c14-10.5,28.8-19.9,42.8-30.3c120.1-89.5,171.2-243.8,126.4-383.4c-6.1-18.9-15.3-36.9-23-55.2
	c-4.7-11.1-6.7-22,4.7-30.2c12.7-9.2,26.4-9.4,37.4,2c7.6,7.9,13.7,17.7,18.5,27.6C3140.3,1591.8,3150.1,1644.2,3149,1718.8z"/>
<path d="M2606.8,971c-1.7,82-20.5,151.3-62.7,213c-11.1,16.3-25.9,30.4-40.6,43.7c-10.7,9.6-23.4,7.7-33.7-2.7
	c-10-10-12.3-21.8-4.3-34c4.8-7.3,11.2-13.5,16.8-20.2c56-66.2,73.2-144.3,65-228.1c-7.4-74.9-32.4-143.9-83.5-201.4
	c-0.8-0.9-1.7-1.9-2.4-2.9c-9.5-13.1-22.8-26-8-42.9c11.6-13.3,30.6-10,49.7,7.7c5.5,5.1,10.4,10.9,14.8,16.9
	C2574.7,796.9,2604.6,882.9,2606.8,971z"/>
<path d="M1274.9,1178.3c0.5-107.2,80.2-215.7,181.2-247.1c12.4-3.9,23.8-7.2,34.3,4.2c17.6,19.1,13.7,39.5-12.4,49.4
	c-38.2,14.5-71.2,35.6-97.9,66.7c-57.2,66.5-64.3,158.5-17.9,233.2c5.3,8.5,11.7,16.5,15.6,25.5c5.5,12.5,4,25-8.2,33.3
	c-12.8,8.7-26.3,9-37.2-2.9c-8.4-9.1-15.8-19.4-22.2-30C1287.5,1272.6,1274.7,1223.5,1274.9,1178.3z"/>
<path d="M682,3154.6c-0.3,21-20.1,35.8-36.7,26c-15.2-9-28.3-23.6-38.6-38.4c-7.4-10.6-4.3-26.4,8.7-32c8.3-3.6,22.3-2.5,30,2.4
	C661.7,3123.1,679.1,3134.6,682,3154.6z"/>
<path d="M3107.7,3191.1c-1,16.5-30.1,40.8-48.6,40.6c-14-0.2-28.1-15.9-27.1-30.4c1.2-17.4,29.3-37.9,50.5-36.7
	C3097.6,3165.5,3108.6,3177,3107.7,3191.1z"/>
<path d="M3470.4,2390.5c1.9,18.4-5.8,29-22.9,31.5c-18.6,2.7-33.6-13-36-37.7c-1.6-16.8,8-30.7,22.6-32.9
	C3450.4,2348.8,3468.1,2367.9,3470.4,2390.5z"/>
</svg>
