<?xml version="1.0" encoding="utf-8"?>
<!-- Generator: Adobe Illustrator 24.3.0, SVG Export Plug-In . SVG Version: 6.00 Build 0)  -->
<svg version="1.1" id="Layer_1" xmlns="http://www.w3.org/2000/svg" xmlns:xlink="http://www.w3.org/1999/xlink" x="0px" y="0px"
	 viewBox="0 0 4000 4000" style="enable-background:new 0 0 4000 4000;" xml:space="preserve">
<path d="M138.3,2509.7c0-42.2-0.1-84.4,0-126.7c0.2-100.5-1.8-200.9,3.6-301.6c5.4-101.4,0.3-203.8-7.6-305.2
	c-10.9-140.7,17.5-271.2,83.6-394.8c41-76.6,98.3-140,160.8-199.3c237-224.9,474.5-449.3,711.2-674.6
	c64.7-61.6,128.7-124.2,190.1-189.1c154.8-163.7,343.8-209.6,554.8-149.8c177.9,50.4,355.5,102,534.6,147.9
	c217.6,55.8,435.1,112,652.4,168.9c147.7,38.7,295.2,77.7,442.3,118.6c96.9,27,179.5,77.4,242.1,158.2c47.6,61.5,75,132,88.6,207
	c23.6,130.1,29.8,261.4,12.2,393.1c-3.5,25.8-6.5,51.8-8.6,77.8c-3.2,41-4.1,81.7,12.7,121c37.1,86.8,30.6,174.6,4,262.5
	c-3.6,11.9-7.4,23.7-11.5,35.4c-14.9,42.4-14.3,83.9-2.4,127.8c35.4,130.4,38,262.5,11.6,394.8c-18.9,94.9-63.5,177.8-128.1,248.9
	c-81,89.2-165.2,175.5-247,264c-140,151.4-277.9,304.8-419.3,454.9c-68,72.2-138.1,143.6-214.1,207.1
	c-158.7,132.7-342.8,174.8-544.8,129.9c-115.1-25.6-228.7-57.7-343.5-84.5c-227.2-53.1-455.1-103.6-682.2-157
	c-145-34.1-289.1-71.9-433.7-107.7c-96.4-23.9-193.4-45.4-289.1-71.6c-50-13.7-99.8-31.1-146.4-53.9
	c-139.6-68.1-212.4-183.4-221.6-337.2c-4.7-79.3-2.8-158.9-3.6-238.4c-0.4-42.2-0.1-84.5-0.1-126.7
	C139.1,2509.7,138.7,2509.7,138.3,2509.7z M3162,3012.8c9.8-12.6,16-21.8,23.4-29.9c81.4-88.8,162.9-177.5,244.5-266.2
	c57.1-62.1,116.9-122.1,170.8-186.9c59.6-71.6,92.4-156.3,92.8-250.2c0.2-66.9-5.7-133.9-9.4-200.8c-0.4-6.8-4.5-13.3-8.7-24.8
	c-21.6,7.1-40.8,14.8-60.8,19.5c-8.2,1.9-21.2,0.7-26-4.6c-5.1-5.7-7.3-20.8-3.3-26.4c9.7-13.6,22.6-25.7,36.4-35.3
	c11.8-8.2,26.7-12.1,40.1-17.9c0.7-6.6,2.1-11.6,1.5-16.3c-7.8-63.1,4-123.2,23.7-183c19.9-60.4,19.7-121.5,1.5-183.3
	c-11.5-38.9-17.2-79.4-24.2-113.5c-14.4,42.8-39.8,86.5-92.9,103.3c-20.5,6.5-43.9,6.6-65.7,5.2c-14.4-0.9-24-14-22.2-29.6
	c1.6-14.3,12.6-20.4,26.6-20.7c3.7-0.1,7.5,0,11.2,0.3c39.2,3.7,64.4-17.4,79.3-49.8c9.6-20.9,13.2-44.8,18.2-67.6
	c3.4-15.2,4.6-30.8,7.2-49.2c16.8,2.6,29.4,4.5,44.5,6.8c10.6-112.3,18.5-223.8,2.8-342.4c-8.2,11-12.3,16.7-16.5,22.2
	c-29.6,38.1-57,78.3-89.5,113.7c-59.6,64.9-122.3,127.1-183.7,190.3c-4.3,4.4-8.6,9.2-13.6,12.7c-16,11.1-29.6,8.6-42.8-5.5
	c-14.9-16-7.2-30.6,3.6-43c21.2-24.4,43.3-47.9,66-70.8c48.1-48.5,97.4-95.8,145.1-144.7c36.7-37.6,68.4-79,84-130.3
	c17.9-58.9,9.3-112.7-31-160.6c-29.3-34.8-64.1-62.9-106-80.2c-35.4-14.7-71.9-27.7-108.9-37.6c-224.1-60-448.4-119.7-673-178
	c-219.8-57.1-440.3-111.3-659.9-169.2c-75.4-19.9-148.6-48.4-223.4-70.9c-179-53.8-335.4-20.2-464.7,120.8
	c-47.8,52.1-98,102.2-148.9,151.4c-81.1,78.7-163.8,155.8-245.5,233.9c-8.2,7.9-21.7,13.7-17.1,29.5c21.4,3.3,42.4,5.7,63,9.8
	c72.7,14.4,124.7,67.2,137,139.6c7.4,43.5-9,80.6-35.4,113.7c-9,11.3-21.9,17.6-36.1,8.2c-14.4-9.4-12.8-22.6-5.8-36.1
	c2.3-4.4,4.7-8.8,7-13.1c35.4-67.3,15.5-127.1-56-152.2c-35.6-12.5-75-14.9-112.8-20.4c-18.5-2.7-32.9,7.5-46.1,20.1
	c-145.7,138.8-292.1,276.8-437,416.3c-25.7,24.7-49.1,53.3-67.5,83.8c-49,81.6-17.5,179.7,68.8,218.9c25.8,11.7,53.5,20,81.1,26.5
	c138.8,33,278,64.6,416.9,97.2c30.2,7.1,60.1,15.3,89.6,24.7c16.2,5.1,23.1,17.4,17.8,35.3c-4.9,16.6-14.1,26-32.3,22.6
	c-9.7-1.8-19.4-4.1-29-6.5c-119.3-29.4-238.5-59-357.8-88.4c-63.8-15.8-128.3-29.2-191.2-47.9c-48.6-14.5-88.5-44.2-116.6-88
	c-4.4-6.8-11.1-12.1-22.4-24.1c-4.7,26.7-11.1,46.8-11.1,66.9c-0.1,89.3,1.5,178.6,3.3,268c0.2,7.8,4.6,16.5,9.6,22.9
	c11.4,14.6,24.1,28.2,36.6,41.9c25.1,27.3,41.8,31,76.1,16.3c11.4-4.9,21.8-13,33.5-15.9c8.3-2.1,22.8-1,26.2,4.2
	c4.9,7.5,6.8,23.2,2,29.7c-9,12.4-22.1,24.2-36,30.3c-39.5,17.2-79.6,17-118-5.5c-7-4.1-14.6-7.2-25.4-12.5
	c-2.8,39.4-5.2,74.9-7.8,110.3c-2.3,30.8-7.2,61.7-7,92.5c0.9,162.7,3,325.3,4.9,488c0.1,10.9,1.4,21.7,2.3,35.2
	c21.7-1.1,41.1-2.7,60.6-3c36.4-0.6,68.8,11,94.7,36.5c21.7,21.3,17.5,37-13.1,54.2c-9.4-6.7-18.9-14.8-29.5-20.9
	c-12.8-7.3-26-15.5-40-18.7c-47.8-11-76.5,15.6-70.7,63.6c0.6,4.9,1.2,9.9,1.6,14.8c11.2,118.1,73.6,196.4,183,240.6
	c84.7,34.2,175.1,45.5,262.3,69.3c16.7,4.5,25.8-2.9,27.1-20.7c0.9-12.3,2.8-24.6,6-36.5c3.5-12.8,11.4-23.1,26.6-20.4
	c14.3,2.6,26,10.7,28,26.1c1.2,9.5-1.1,19.7-2.6,29.4c-1.9,11.9-4.6,23.6-7.5,37.9c15.4,5.5,27.7,11.2,40.6,14.4
	c190.3,46.8,380.5,94.2,571.2,139.7c283.6,67.7,567.4,134,851.2,200.7c74.3,17.5,149,25.5,225.2,12.4c34.7-6,61.5-20.5,74.4-53.8
	c10.7-27.6,22.1-55.6,27.2-84.5c14.2-80,11.8-160.9,3.2-241.4c-11-102.5-22.8-204.9-18.2-308.3c0.6-12.4,0.2-25.2,3.5-36.9
	c4.3-15.3,17.4-20.3,32.4-18.6c13.8,1.5,23.1,8.9,23.8,23.9c0.6,12.4,0.2,24.8,0.9,37.2c3.8,70.6,8.3,141.2,11.7,211.8
	c4.3,89.2,10.8,178.5,10.2,267.7c-0.3,43.9-14.6,87.6-22.5,131.4c-1.4,7.6-2.7,15.2-5.2,29.6c20.9-12.2,37-19.2,50.2-29.8
	c38.7-31.1,79.1-60.8,113.7-96c95.7-97.4,188.9-197.4,282.9-296.5c7.7-8.1,14.9-16.7,21.3-25.9c16.4-23.8,14.6-43.3-7.2-62.2
	c-8.1-7.1-18.8-11.7-28.9-16c-14.5-6.2-28.4-11.8-21.3-32.1c6-17.3,18.5-24.8,37.9-21.8c23.2,3.6,41.3,16.3,56.3,33.7
	C3140.9,2985.8,3148.3,2995.6,3162,3012.8z"/>
<path d="M2578.8,2163c35.5,63.3,55.5,128.6,60.2,197c4.7,69.3,3.6,139,4.5,208.5c0.3,21.1-0.8,42.2-1.7,63.3
	c-1.6,35.7-7.9,44.9-30.7,45.4c-22.7,0.5-29-9-29.2-45c-0.3-74.5,0.3-149.1-0.9-223.6c-1.2-74.3-20.5-144.7-50.6-212.3
	c-2.5-5.6-6.4-10.5-11.1-18.2c-16.2,2.4-33,5-49.8,7.3c-86.9,12.1-170.7-6.6-254-26.7c-59.1-14.3-117.3-31.9-175.9-48.2
	c-7.1-2-14.4-4.3-20.8-7.8c-13-7.2-20.7-17.5-15.9-33.7c5.4-18.1,17.2-28.1,35.2-26.1c10.9,1.2,21.6,5.1,32.3,8.5
	c91.1,29,182.7,55.8,277.8,69.1c130.2,18.2,243.8-16.2,338.2-108.2c46.2-45.1,89-93.6,134.4-139.5
	c75.9-76.9,152.9-152.8,228.8-229.6c36.7-37.1,72.1-75.4,108-113.2c6-6.3,11.3-13.4,17.7-19.1c15.6-13.9,32.5-13.8,46.4-0.5
	c14.1,13.6,9.1,27.3-1.1,39.7c-14.2,17.2-28.9,34.2-44.5,50.1c-94.1,95.6-188.9,190.6-282.7,286.4c-46.9,47.9-92.6,97-138.4,146
	c-44.5,47.6-93.6,88.9-153.3,116.4C2594.9,2152.1,2589,2156.7,2578.8,2163z"/>
<path d="M1872.7,2840.7c-83.1-1.4-130-65.3-131.8-133c-1.8-70.5,62.1-133.3,132.6-133.7c68.2-0.4,132.7,66,131.6,135.3
	C2003.7,2784.3,1946.3,2841.4,1872.7,2840.7z"/>
<path d="M1037.2,2459c71.7,0.7,128.8,59.4,127.9,131.5c-0.9,72.5-58.6,127.7-132.3,126.6c-73-1.1-130.7-58.5-130.2-129.5
	C903.2,2513.7,961.2,2458.3,1037.2,2459z"/>
<path d="M1793,2033.7c-8.8-2.1-22.3-4.4-35.3-8.6c-176.1-56.7-355.9-98.5-536.4-138c-8.4-1.8-17.1-3.6-25-6.9
	c-20.7-8.6-24.5-16.9-18.7-37.5c5.6-20.2,14.2-27.3,35.5-22.7c41.2,8.8,81.9,19.7,122.8,30c145.4,36.7,290.7,73.5,435.9,110.7
	c15.4,4,30.6,10.1,44.8,17.4c14.1,7.3,16.6,20.8,11.9,35.4C1823.6,2028.3,1813.6,2035.9,1793,2033.7z"/>
<path d="M822.5,2901c-45.9,1.5-89.8-11.8-130.4-34.3c-16.9-9.4-33.2-22.6-45-37.9c-30.9-39.8-23.2-85.3,19.1-112.3
	c17.2-11,38.3-18.4,58.5-21.8c61.8-10.5,121.6-0.5,176.7,29.3c18,9.7,34,25.1,47.4,40.9c28.3,33.2,22.7,78.4-12.4,104.9
	C903.3,2894.7,864.4,2901.6,822.5,2901z M824.9,2852.5c22.4-5.9,45.7-9.4,66.8-18.3c20.8-8.7,23.3-23.1,11.4-42.2
	c-4.5-7.2-10.2-14.6-17.1-19.1c-55.2-35.1-113.9-47.4-175.9-20.7c-12.2,5.2-27.8,18.4-28.9,29.1c-1,10.6,13.9,23.2,22.7,34.3
	c2.9,3.6,8,5.8,12.5,7.8C750.7,2838.2,785.9,2849.2,824.9,2852.5z"/>
<path d="M2035.8,2870.2c58.8-0.1,106.3,15.2,148.7,45.9c27.7,20.1,46,46.1,40.3,81.8c-5.6,35.4-30.2,55.8-62.8,66.5
	c-71.6,23.4-141.8,17.9-209.3-14.4c-37.9-18.2-64.8-47-63.9-92c0.7-34.3,37.8-67.7,83.6-79c12-3,24.1-5.6,36.4-7.2
	C2019.9,2870.3,2031.1,2870.4,2035.8,2870.2z M2074.8,3031.5c26.2-7,53.2-11.6,78.1-21.5c23.5-9.3,26.2-28.1,10.4-47.8
	c-4.6-5.7-10.3-11-16.7-14.6c-56.2-31.6-115-38.6-175.5-14.7c-37.4,14.8-39.4,37.7-6.7,62.4c6.8,5.2,14.5,10.2,22.6,12.6
	C2015.5,3016.2,2044.2,3023.3,2074.8,3031.5z"/>
<path d="M1444,2939c-41.2,1.7-80.7-12.8-116.3-36.4c-52.9-35.1-76.4-86.2-73.1-149.4c1.2-22.5,11.5-33.3,30.7-34.8
	c20.7-1.7,35,8.6,35.5,33.1c1.9,92.8,87.2,125.5,162.1,111.8c29.5-5.4,52.2-22.2,66.8-48.8c6-10.8,11.1-22.1,16.6-33.2
	c7.7-15.5,19.2-21.7,36.5-15.9c18,6.1,26.6,16.5,24.3,36.3c-4.5,37.2-21.9,68.1-50,92.7C1542.4,2924.8,1498.9,2939.6,1444,2939z"/>
<path d="M1155.6,1408.3c85.2,2.5,160.3,52.2,190.2,127.5c9.3,23.4,6.2,36.6-10.8,43.9c-12.6,5.4-24.3,5.3-31.9-8.6
	c-3-5.4-5.6-11.1-8.5-16.5c-32-59.4-82.4-88-149.1-85.6c-64.5,2.4-113.3,32-142.9,90.7c-0.6,1.1-1,2.3-1.5,3.4
	c-12,23.9-23.9,32.1-37.9,24.5c-18.4-10-15.4-26.4-9.9-42.4c23.5-67.9,73.6-106.9,140.3-126.6
	C1113.4,1412.6,1134.8,1411.6,1155.6,1408.3z"/>
<path d="M2293.5,619.7c35,0.7,71.1,12.6,102.8,36.1c9.7,7.2,20.1,16.6,24,27.2c3,8.1-1.3,22.1-7.3,29.1c-4.7,5.3-18.2,6.9-26,4.5
	c-10.1-3.2-18.6-11.8-27.5-18.4c-61.5-45.6-178.2-21.8-188,88c-0.9,9.9-1.1,19.8-1.5,29.7c-0.6,11.8-2.6,22.7-17,24.8
	c-14.9,2.2-27.5-1.5-33.3-16.8c-2.6-6.8-4.5-14.4-4.5-21.7C2114.8,705.5,2176,622,2293.5,619.7z"/>
<path d="M2898.5,2459.7c2.3-46.5,20-88.9,55.7-123c19.6-18.7,43.5-29.6,70.8-25.4c12.7,2,26.5,8,35.9,16.4
	c15.9,14.3,9.3,33.2-11.6,38c-4.8,1.1-9.8,1.8-14.7,1.6c-37.1-1.7-57.5,21.1-69.4,51.3c-13.1,33.4-14.9,67.8,9.4,98.5
	c5.3,6.7,13.7,11.5,17.8,18.7c3.8,6.8,7.4,17.3,4.7,23.2c-2.9,6.2-14.5,13.3-20.4,11.9c-14.9-3.5-31.6-8.5-42.5-18.4
	C2908.3,2528.9,2898,2497.3,2898.5,2459.7z"/>
<path d="M2753.9,1537.1c-0.7,32.7-7.5,62.9-28.3,87.6c-6.5,7.8-17.4,14.7-27.2,16.3c-23.1,3.7-35.5-12.9-27.2-34.5
	c3.5-9.1,9.6-17.3,14.5-25.9c11.4-20.3,14.9-41.5,9.7-64.5c-9.6-42.2-33.6-61.4-76.5-59.8c-7.4,0.3-16.1,4-21.8,1.2
	c-9-4.4-20.6-12-22.3-20.1c-1.7-8,5.4-21.2,12.7-26.8c8-6.1,20.6-8.1,31.4-8.5C2696.5,1399.5,2759.9,1465.6,2753.9,1537.1z"/>
<path d="M1884,2326c-100.4-3.7-135.2-72.9-134.4-140.2c0.1-6,0.4-14.1,4.1-17.6c7.5-7.2,17.6-16.6,26.2-16.2
	c8.3,0.4,18.6,10.6,23.3,19.1c4.4,7.9,2.5,19.3,3.5,29.1c5.6,52.5,53.6,82.3,102.7,63.4c8-3.1,15.5-7.8,23.2-11.7
	c11.2-5.8,23.1-6.6,28.7,5.8c4,9,6.9,23.9,2.3,30c-9.3,12.2-22.9,23-37,29.1C1911.1,2323.5,1893.1,2324.2,1884,2326z"/>
<path d="M3196.8,923.4c-0.2,33.9-13.9,62.6-35.6,87.4c-6.3,7.1-15.3,14.5-24.1,16.1c-9.7,1.8-24.3,0.4-29.8-5.8
	c-5.2-5.9-3.4-20.4-0.7-29.9c2.1-7.6,12.2-12.8,15.2-20.5c6.7-16.9,14.9-34.4,15.9-52c1.9-33.9-13.6-52.8-45.7-63.4
	c-5.8-1.9-12.1-2.3-18.1-3.8c-14.3-3.4-26.1-9.9-24.9-27c1.1-15.8,16.1-28.2,34.2-26.3c14.5,1.5,29.5,4.9,42.7,11
	C3166,827.8,3197.4,879.7,3196.8,923.4z"/>
<path d="M2067.4,1297.8c57.4,3.1,100.2,17.2,137.2,46.8c7.6,6.1,14.2,13.8,19.7,21.9c9.5,13.9,3.5,26.1-7.3,36.2
	c-10.1,9.5-20.5,5.8-30.3-1.2c-3-2.1-5.7-4.8-8.4-7.3c-51.1-46-107.6-50.6-168.3-21.6c-4.5,2.1-9.1,6.1-13.4,5.8
	c-9-0.5-22.5-0.5-25.7-5.8c-4.8-7.9-6.7-23.5-1.9-29.9c9.2-12.2,22.6-23.7,36.7-29.2C2028.4,1304.9,2053.1,1301.3,2067.4,1297.8z"/>
<path d="M1736.6,449c38,2.3,70,9.5,94.2,36.3c10.6,11.8,18.4,24.7,5.9,39.3c-11.1,13-24.1,8.9-36.8,1.5c-7.5-4.3-15.1-8.5-23-11.9
	c-35.8-15.4-68.1-8.6-94.1,20.3c-6.6,7.3-11.6,16-18,23.6c-9.3,10.9-20.9,12.8-33.2,5.8c-11.6-6.6-12.6-17.2-9.1-29.1
	c11.4-38.7,38.2-63,74.4-77.2C1710.4,452.4,1725.7,451.3,1736.6,449z"/>
<path d="M2165.6,3471.4c-29.3-13.9-32.2-19-26.2-42.2c12.4-48.3,59.4-81.2,115.7-80.8c33.8,0.2,62.2,14,87.2,35.7
	c4.6,4,8.6,9,11.4,14.4c7.7,14.4,3.9,30.5-8.5,39.5c-13.7,9.9-22.8,1.9-31.5-8c-24.8-28.3-54.7-38.4-89.4-21.2
	c-12.7,6.3-23.5,17.7-33.5,28.3C2181.6,3446.9,2174.7,3458.7,2165.6,3471.4z"/>
<path d="M3490.8,2177.6c0.4,5.8,0.5,8.3,0.7,10.7c1.3,17.1,0.1,33.1-20.5,37.9c-15.1,3.6-30.1-9.3-36.3-30.1
	c-10.8-36,14.6-103.4,46.2-122.3c11.5-6.8,23.5-9.5,34.3,0.4c12.1,11.1,11.8,24.5,1.9,36.5
	C3500.2,2131.2,3484.9,2151.9,3490.8,2177.6z"/>
<path d="M606.1,2282c9.7,6,20.1,9.4,25.7,16.6c11.9,15.4,23,31.9,31.2,49.5c8.1,17.2,2.1,31.6-11.8,37.5c-17,7.2-23.7-4.2-31.4-16.6
	c-9.6-15.5-22.7-29-31.6-44.9c-4.2-7.5-5.2-19.4-2.4-27.5C587.9,2290.5,598.4,2287.2,606.1,2282z"/>
<path d="M1691.8,967.5c-1,3-1.6,8.2-4.1,12.2c-11,17.7-21.1,36.3-34.6,51.9c-5.6,6.4-21.1,10.8-28.1,7.6c-7.1-3.3-15.3-20.4-12.4-26
	c12.2-23.4,26.3-46.6,43.9-66.2C1666.8,935.5,1690.8,949.7,1691.8,967.5z"/>
</svg>
