<?xml version="1.0" encoding="utf-8"?>
<!-- Generator: Adobe Illustrator 24.3.0, SVG Export Plug-In . SVG Version: 6.00 Build 0)  -->
<svg version="1.1" id="Layer_1" xmlns="http://www.w3.org/2000/svg" xmlns:xlink="http://www.w3.org/1999/xlink" x="0px" y="0px"
	 viewBox="0 0 4000 4000" style="enable-background:new 0 0 4000 4000;" xml:space="preserve">
<path d="M2632,453.1c-2.4,18.2-5.9,52.6-11.6,86.7c-6.6,39.6-3.3,77.5,10.9,115.1c10.3,27.4,18.8,55.5,26.7,83.7
	c10.2,36.8,8.8,74-0.9,110.7c-7.8,29.1-16.7,58.1-26.5,86.6c-16.7,48.4-16,95.8,4.2,142.9c5.9,13.8,10.6,28.3,15.7,42.5
	c17.8,49,16.2,97.4-3,145.7c-7.2,18.1-14.2,36.4-20.3,54.9c-8,24.3-8.3,48.8,0.9,73.1c4.4,11.6,7.8,23.6,12.3,35.2
	c20.6,53.7,21.1,107.3,1.3,161.4c-7.6,20.8-14.7,41.9-20.2,63.4c-6.8,26.4-4.9,52.8,5.2,78.5c7.2,18.2,14,36.5,20.1,55
	c12.3,37.4,12.4,75.1,0.1,112.6c-6.1,18.6-12.2,37.1-18.6,55.6c-10.6,30.7-9.7,61.1,1.2,91.4c6.6,18.4,13.5,36.6,19.8,55.1
	c15.1,44.4,14.4,88.8,1,133.6c-7.7,25.5-14.1,51.4-20.4,77.2c-4.6,18.8-2.8,35.4,11.7,51.5c19.1,21.1,20.5,48.6,17.5,75.7
	c-6.7,60-12.1,120.3-21.6,179.9c-21.5,135-44.8,269.8-68.3,404.6c-7,40.2-15.7,80.2-25.8,119.7c-3.8,15-13.8,28.3-20.5,42.6
	c-5.9,12.7-13.8,25.2-16.1,38.6c-22.2,131.4-46.4,262.3-80.6,391.3c-3,11.2-6.2,22.2-9.5,33.3c-21.5,71-82.1,87.9-135.2,80.6
	c-6.1-0.8-12.2-2.5-18.3-3.8c-10.1-2.2-18.3-0.7-26.7,6.9c-34.1,31-73.4,37.6-116.3,21.7c-15.6-5.8-28.2-4-42,6.1
	c-37.4,27.5-97.3,38.6-146-1c-12.3-10-24.2-13-39.3-7.1c-44.9,17.6-85,10.1-120.4-23.5c-5.6-5.3-15.6-7.1-23.9-8.1
	c-7.7-0.9-15.8,1.4-23.8,2.4c-57.5,6.7-103.6-17.9-127.3-70.9c-10.8-24.2-19.5-49.8-25-75.7c-25.4-119-49.5-238.2-73.5-357.4
	c-3.4-16.8-10.3-31.1-18.7-46.1c-11.5-20.6-20.3-43.7-25.2-66.8c-25.7-121.6-51.5-243.3-74.1-365.5c-17.7-96-31-192.9-45.9-289.4
	c-5.4-35-5.5-68.9,18.7-98.9c5.4-6.7,7.3-18.5,6.2-27.4c-2.8-21-7.7-41.8-13.2-62.3c-3.6-13.7-9.3-26.8-14.6-40
	c-19.7-49-21.1-98.4-4.4-148.5c6.7-20.2,12.6-40.7,18.7-61.1c9.7-32.4,10.7-64.6-2.2-96.6c-6.7-16.4-12-33.4-18.2-50.1
	c-15.5-41.6-15.3-83.4-1.6-125.3c6.9-21.1,14.1-42.1,21.4-63.1c9.1-26.2,9.2-52.2-0.7-78.2c-6.3-16.6-12.1-33.4-18.2-50.1
	c-14.6-39.8-14.7-80-2.3-120.3c6.8-22.1,14-44,21-66c7.6-23.7,7.1-47.2-2.6-70.3c-4.4-10.6-7.8-21.8-13-32.1
	c-30.9-62-30.1-124.7-5.6-188.5c7.9-20.7,14.1-42.1,20.5-63.3c9.9-33.2,10-66.6-0.4-99.8c-8-25.4-16-50.8-24.4-76.1
	c-20.8-62.5-19.4-124.7,6.6-184.9c25.6-59.2,30.5-119.8,20.3-182.5c-7.7-47.7-0.2-94.2,14.8-139.1c22.9-68.5,69.4-114.9,139.3-135.4
	c19.6-5.7,32.6-14.7,44.7-32.7c31.3-47,80.5-64.8,134.8-69.7c28.7-2.6,56.9,0.7,83.5,12.5c13,5.8,22.6,3.4,34.1-4.9
	c67.5-48.4,138.8-54.5,212.5-15.2c11.8,6.3,20.9,6.1,32.3,0.9c62.7-28.9,123.5-26,182.7,10.8c6.6,4.1,16.5,4.2,24.8,4
	c23.9-0.6,48-5.1,71.6-3.2c45.8,3.7,88.1,21.5,116.3,57.5c19.7,25.1,40.7,39.9,70.3,49.9c47.2,16,76.6,53,96,98
	C2623.3,344.7,2631.7,389.8,2632,453.1z M1411.7,2432.3c0,8.1-0.5,14.8,0.1,21.4c2.3,23.9,4,47.9,7.6,71.6
	c28.3,188.9,64.5,376.3,105.1,563c7.6,34.8,22.9,60.5,55.9,75.2c13.7,6.1,26.6,14.2,40.2,20.6c63,30.1,130.3,47.2,198.6,58.5
	c135.3,22.3,270.7,20.1,405.5-5.9c76.3-14.7,149.1-39.4,217.5-76.9c21.2-11.6,33-27,37.2-51c17.6-101.4,37.5-202.5,54.1-304
	c18.5-113,34.4-226.4,51.2-339.7c1.2-8.3,0.2-16.9,0.2-28.1C2192.1,2636.1,1802.8,2628.6,1411.7,2432.3z M2094,2505
	c0-11,0.7-19-0.1-26.9c-10.7-97.4-2.5-193.1,22.7-287.8c20.5-77.1,19-154.3-3-231.6c-10.7-37.4-19.5-76.1-22.9-114.8
	c-9.1-104.3,0.6-207.6,23.2-309.7c16.6-74.5,21.7-148.7,3.9-224.3c-10.6-44.8-16.2-91-20.5-136.8c-8.9-94.4-6.1-188.3,21.1-280
	c20.5-69.4,19.9-138.4-0.8-207.5c-16.8-55.8-23.4-112.8-23.1-171c0.2-38.2-2.4-76.3-3.3-114.5c-0.4-19.2-8.9-34-22.6-46.4
	c-37.3-33.6-91.1-42.7-146.2-13c-18.9,10.1-30.4,23.8-29.3,46.4c0.4,8.8-1.1,17.7-1.8,26.6c-8.7,106.2-17.4,212.5-26.1,318.7
	c-6.6,80.6-13,161.2-19.7,241.7c-3.7,44.4-5.1,88.4,7.4,132.2c16.7,58.8,24.2,119,5.9,178.7c-21.2,69.3-17.8,135.7,10.6,202.7
	c24.7,58.3,24.8,119.3,9,180.5c-9.3,36.1-17.4,72.6-26,108.8c-12.7,53.1-11.5,105.6,4.8,157.9c8.7,28,16.7,56.2,24.6,84.4
	c16.1,57.6,20.5,115.3,2.1,173.4c-4,12.7-6.2,25.9-9.9,38.7c-13.9,48.9-13.5,98.3-4.9,147.9c5.8,33.3,11.6,66.5,17.2,99.8
	c4.2,25.1,5,26.9,30,27.4c51.5,0.9,103.1,1,154.6,1.2C2077.8,2507.6,2084.6,2506.1,2094,2505z M1834.6,2496
	c-3.1-19.2-4.5-33.3-7.7-47c-20.3-89-24.2-177.3,5.9-265.4c17-49.5,12.2-99.9-1.9-149.6c-10.2-35.9-21-71.6-30.9-107.5
	c-11.7-42.7-13.9-86-4.3-129.2c9.2-41.6,18.7-83.1,30.2-124.1c16.7-59.4,16.1-117.1-8.3-174.5c-9-21.2-15.1-43.6-21.5-65.8
	c-9.5-33.1-8.8-66.7-2-100.3c2.6-13.1,4.3-26.4,8-39.1c17.1-58,15.5-115.5-1.7-173.2c-13.5-45.1-13.3-91.2-8.8-137.5
	c3.8-38.9,8-77.7,11.4-116.6c13.2-153.9,26.3-307.9,39-461.9c0.5-6.4-1.1-15-5.1-19.4c-21.2-23.1-44.6-43.3-77.2-49
	c-65.3-11.5-123.6,22-138.8,86.2c-10.4,43.7-12.5,89.5-17.6,134.4c-4.3,38.8-8.4,77.7-10.9,116.7c-1.9,29.9-4.3,60.5-0.5,90
	c4.5,34.1,14.8,67.6,24.1,100.9c19.6,70.3,18.6,138.6-15.2,204.8c-7.3,14.2-13.6,29-19.7,43.7c-13.5,32.2-17.3,65-4.6,98.6
	c6.9,18.3,12.9,36.9,20.8,54.7c27.8,63.1,31.1,127,7.6,192c-4.8,13.4-9.1,26.9-13.5,40.4c-11.9,37-9.7,73.6,3.4,109.8
	c5.5,15,11.2,30,17.5,44.6c24.1,55.7,25,112,4.5,168.9c-3.3,9.2-5.8,18.7-9.1,27.9c-11.1,31.1-12.9,62.3-2.2,94
	c4.3,12.6,6.9,25.8,11,38.4c14.4,44.4,10.4,87.6-7.4,130.1c-5.5,13.1-10.5,26.4-16.3,39.4c-17.6,38.9-21.1,78.6-7.8,119.4
	c4.1,12.7,7.9,25.4,12.2,38c13.9,41.2,30.8,81.6,33.1,125.8c0.6,12.1,7.9,16.5,18.4,19.1c34.4,8.6,68.6,18.3,103.2,26.3
	C1777.7,2485.9,1803.8,2490.1,1834.6,2496z M2149.9,2499.7c57.9-5.4,111.6-16.5,164.2-32.7c20.2-6.2,20.7-6.5,20.4-27.3
	c-0.6-40.5,6.5-79.4,19.7-117.6c8.7-25.1,16.5-50.6,24.9-75.9c13.4-40.3,11.9-80.4-1.4-120.4c-6.7-20.2-13.4-40.5-20.6-60.5
	c-11.4-32-12.4-64.3-2.8-96.8c5.5-18.7,11-37.5,18.3-55.5c16.9-41.3,19.5-82.3,3.1-124.4c-8-20.7-13.7-42.2-20.7-63.3
	c-13.1-40-14.3-80.3-1.9-120.5c8.1-26.3,16.6-52.5,26.1-78.3c15.7-43,19.4-86.3,5.6-130.5c-5.6-17.8-9.8-36-15.2-53.8
	c-18.1-59.8-21.9-121.1-11-182c10.2-57,17.4-113.9,18.8-171.8c1.1-46.1,6.6-92.2,7.4-138.3c1.8-105.7,3-211.4,2-317
	c-0.4-43.5-9.1-86.6-26.2-127.2c-11.3-26.9-27.7-49.5-54.7-62.9c-47.2-23.5-113.2-13.4-151.7,23c-8.2,7.8-12.6,16.2-12.1,28
	c2.2,50.6,3.8,101.2,5.3,151.8c1.2,39.3,7.1,77.8,18.8,115.4c25.9,83,25.6,165.5,0.6,249.1c-11.8,39.7-19.6,81.4-22.9,122.7
	c-6.9,84.6,0,168.9,21.6,251.2c22.4,85.5,20.2,170.4,0.8,255.8c-17.4,76.5-26.4,153.9-27,232.4c-0.4,61.1,11.6,120,27.3,178.5
	c16.3,60.7,23,122.3,12.7,184.7c-6.2,37.6-13.9,75.1-23.1,112.1C2135.9,2330.1,2140.7,2412.9,2149.9,2499.7z M1574.3,2421.6
	c-3.8-15-6-26.9-9.8-38.3c-9.9-29.4-20.6-58.6-30.8-88c-18.4-53.3-18.4-106.1,3.7-158.6c8.6-20.4,15.8-41.5,23.5-62.3
	c7.7-20.6,9-41.4,2.8-62.7c-5.9-20.5-11.3-41.1-17-61.6c-9.8-35.2-9-70.3,2.5-104.9c5.3-16,10.9-31.9,17.1-47.6
	c14.5-36.6,13.5-72.7-1.6-108.9c-8.9-21.3-17.2-42.8-25.4-64.4c-14.1-37.3-20.7-75.6-9.8-114.8c8.8-31.6,18.6-62.9,28.7-94.1
	c9.7-29.8,10.4-59.3-0.4-88.8c-8.2-22.5-15.9-45.2-24.8-67.4c-20.3-50.2-28-101-8.4-153.1c6.2-16.6,12.9-33.3,21.6-48.6
	c33.2-58.4,38.8-118.9,16.6-182.2c-1.8-5-2.9-10.3-4.6-15.3c-25-72.8-31.8-146.4-18.1-223c9.4-52.2,10.1-106,16.1-158.9
	c6.5-57.1,19.8-112.1,61-155.9c1.1-1.2,1.2-3.3,2.3-6.5c-4.5-9.3-9.6-19.6-14.4-30.1c-9.8-21.3-26.9-30.2-49.6-28
	c-53,5.2-95,27.4-118.5,77.7c-20.7,44.2-22.3,90.7-17.6,138.2c2.9,29.1,6,58.4,5.7,87.5c-0.3,37.9-13.8,73.3-28.4,107.6
	c-24.9,58.2-23.9,115.3,1.6,172.9c36.9,83.5,36.4,166.9-2,250.2c-7,15.1-11.4,31.7-15,48.1c-7.2,32.9,2.2,63.3,16.6,92.6
	c30.7,62.4,36.8,125.5,6.2,189.9c-3.8,8-5.9,16.8-9.4,24.9c-11.6,26.8-11.1,53.4-0.4,80.3c5.9,14.8,11.6,29.8,17.2,44.7
	c16,42.3,17.2,84.9,2.3,127.8c-6.7,19.3-13.2,38.7-20.1,57.9c-9.7,26.8-11.4,53.7-1.6,80.8c6.9,19.2,13.5,38.6,21.3,57.4
	c18.4,44.6,19.7,89.8,5.2,135.5c-4.3,13.5-8.6,27.2-14.4,40c-21.4,47.4-21.3,93.5,0.8,141.3c19.1,41.2,32.3,84.7,32.4,130.9
	c0,11,4.8,18.1,14.8,22.8c34.5,16.4,68.6,33.4,103.1,49.9C1559.8,2418.6,1565,2419.2,1574.3,2421.6z M2386,2438.1
	c9.5-1.1,15.1-0.6,19.6-2.6c45.4-20.2,90.6-40.8,135.9-61.2c9.4-4.2,13.1-11,12.2-21.2c-3.7-40.9,5.5-79.8,20.9-117
	c19.7-47.7,16.7-93.4-5.5-139c-1.9-4-3.3-8.2-5.3-12.2c-25.2-52-26.5-104.9-2-156.9c26-55.1,27.1-107.7-0.9-163.2
	c-23.7-46.9-24.2-97.7-6.3-147.8c6.6-18.4,13.2-36.8,19.6-55.2c11.1-32.1,12.1-64.3,0.5-96.5c-5.1-14.2-9.9-28.5-15.3-42.6
	c-17.5-45.4-16.1-90.2,2.4-135c7.5-18,14.3-36.3,21-54.7c10.1-27.7,11.4-55.4,0.3-83.3c-7.9-19.8-14.6-40-22.5-59.8
	c-20.2-50.5-24.4-101.6-7.2-153.7c8.9-27,18.1-53.8,27.8-80.5c15.1-41.9,14.7-83.5-0.7-125.1c-6.8-18.3-14.2-36.4-20.9-54.7
	c-17-46.8-23.5-94.5-12.5-143.9c9.1-40.8,14.7-82.1,12-124.2c-2.2-34.3-11.1-66.3-29.5-95.7c-19.8-31.6-48.6-49.5-84.7-53.8
	c-31.6-3.8-60.2,4.1-79.3,32.7c-11.5,17.3-11.6,22.4,2.9,36.9c26.6,26.6,43.5,59,51.6,94.8c9,39.7,16.6,80.1,19.8,120.7
	c8.4,104.7,3.1,209.5-1.4,314.3c-2.7,63-6.2,126-7.1,189.1c-0.4,31.4-2.9,61.8-11.3,92.1c-17.3,62.4-16,124.7,2.5,186.7
	c5.1,17,10.1,34.1,15.1,51.1c16.3,55.4,15.4,110.4-4.6,164.9c-6.4,17.5-12.3,35.2-19,52.6c-14.4,37.9-16.9,76-3.7,114.7
	c5.1,15.1,9.7,30.5,15.6,45.3c24.5,60.7,26.3,121-2.1,180.9c-21.9,46.1-22.6,92.3-2.9,139.3c30.1,71.7,27.8,143.5,0.6,215.6
	c-9.7,25.7-18.3,52-24.9,78.7C2391.3,2390.4,2389.7,2413.3,2386,2438.1z M1915.5,3331.6c-0.4,7.4-1.1,11.8-0.8,16.1
	c5.3,69.8,10,139.7,16.3,209.5c3.1,34.4,8,68.7,14,102.7c2,11.6,7.9,23.9,15.6,32.8c16.5,19.3,39.5,24.2,63.1,17.1
	c24.8-7.4,40.1-23.6,42.2-51.8c7.8-104.3,16.8-208.4,25-312.7c0.4-4.9-1.7-10-2.4-13.8C2030.7,3331.6,1974.3,3331.6,1915.5,3331.6z
	 M2133,3327.6c-1,8.6-1.8,13.8-2.1,19c-7.2,95.4-13.9,190.9-21.5,286.3c-3.7,47.3-4.4,47.2,43.2,54.7c26.9,4.2,41.8-4.3,51.4-30
	c2.5-6.6,4.5-13.5,6-20.4c21.5-103.3,37.3-207.5,47.9-312.4c0.5-5-1-10.2-1.7-16.5C2214.8,3314.7,2174.8,3321,2133,3327.6z
	 M1753.2,3646.1c0-8.6,0.6-13.9-0.1-18.9c-3.8-25.4-8.1-50.7-11.8-76.2c-11.9-81.5-23.9-163.1-35-244.7c-1.8-13.2-9-17.2-19.8-21.1
	c-33.2-12.2-65.9-25.5-98.9-38.1c-2.2-0.8-4.9-0.1-10.7-0.1c3.8,19.9,7.4,38.7,11,57.6c18.5,96.6,37,193.3,66.8,287.2
	c5.1,15.9,11.8,31.6,20.1,46.1c3.8,6.6,13.3,13.7,20.3,13.8C1714.1,3651.7,1733.2,3648.2,1753.2,3646.1z M1749,3305.2
	c0,7.4-0.5,11.7,0.1,15.8c4.8,34.3,9.2,68.6,14.9,102.8c11.5,70,22,140.3,36.1,209.8c10.7,52.8,34.5,63.4,85.5,44.9
	c11.8-4.3,16-10.8,14.8-24c-9.3-98.1-17.8-196.2-26.6-294.4c-1.1-12.1-2.4-24.2-3.6-35.9C1828.7,3317.7,1789.8,3311.6,1749,3305.2z
	 M1646.6,252.8c5.1,16.4,8.8,28.5,13.2,42.8c73.2-37.1,136.2-12.6,195.6,26.7c37.2-40.5,80-58.3,132.5-56.8
	c51.5,1.5,94,22,131.7,56.2c50.8-44,107.6-56.3,170.7-42.5c4.5,1,9.8-1.2,15.3-2c2.2-14.9-4.7-24.7-15.2-29.6
	c-15.8-7.4-32.6-15-49.7-16.9c-20.9-2.4-42.6-0.5-63.7,2.1c-24.6,3-47.7-0.4-70.5-9.2c-12.4-4.8-24.8-9.7-37.3-14.2
	c-27.9-10.1-56.7-11.2-83.1,1.6c-45,21.7-90,24.7-136.9,8.6c-4.2-1.4-8.8-1.4-13-2.8c-12.8-4.4-25.5-2.8-35.7,4.8
	c-31.2,23.3-66.7,26.5-103.8,26.1C1681.4,247.5,1665.9,250.7,1646.6,252.8z M2254,3653.6c12.4,2.3,20.9,4.5,29.6,5.3
	c52.5,4.8,60.8,0.3,72.3-50.5c25.3-111.6,49.1-223.5,73.2-335.4c1.6-7.3,0.9-15.1,1.4-25.6c-12.3,4.2-21.3,7.9-30.6,10.2
	c-12.3,3-16.8,10.5-18.4,22.6c-6.1,46.6-12,93.3-20.1,139.6c-7.5,42.8-17.1,85.2-27.4,127.4c-5.3,21.7-9.6,22.6-34.5,14.9
	c10.6-92,38.5-182.1,44.8-275.8c-36.5,1.1-41.4,4.8-44.8,28.9c-12.5,89.6-25.2,179.2-37.6,268.9
	C2258.8,3606,2256.8,3627.9,2254,3653.6z M1997.4,157.6c-49.5-38.9-145.7-30.6-165.1,11.4c23.4,5.6,46.5,11.4,69.8,16.5
	c5.9,1.3,12.9,2.4,18.4,0.6C1945.2,177.6,1969.6,168,1997.4,157.6z M1764.3,184.6c-37.3-28.1-114.3-25.7-145.3,3.9
	c-5,4.8-10,10.7-12.1,17.1c-1.6,4.9,0.1,12.2,3.1,16.6c1.3,2,10.4,1.2,14-1.2c20.9-13.4,43.5-19.3,68.2-19.2
	c12.4,0,24.8-1.4,37.1-2.8C1741.5,197.6,1754.4,197.4,1764.3,184.6z M2064.5,159.2c24.6,10,48.5,21,73.2,29.6
	c23.5,8.1,42-3.2,59.2-17.6C2173.8,132.8,2101.3,127,2064.5,159.2z M2388.6,211.8c-16-32.3-41.2-41.2-69.5-43.2
	c-21.8-1.6-44.1-2-64.9,11.9c3.4,3.2,3.9,4.1,4.6,4.3c28.9,8,58.6,14.1,77.9,41c2.2,3,10.2,4.5,14.2,3
	C2363.1,224.4,2374.6,218.2,2388.6,211.8z"/>
<path d="M2269.7,2850.8c-40.4-0.5-73-34.4-72.8-76c0.2-41.7,38.1-79.1,78.6-77.5c42.3,1.7,75.7,34.4,75.4,76.9
	C2350.5,2818.3,2315.5,2851.4,2269.7,2850.8z"/>
<path d="M1807.6,2780.5c-0.5,41.9-34,72.7-78.5,72.5c-40.5-0.2-72.8-34.1-72.1-75.8c0.6-40.9,36.9-77.7,75.9-76.9
	C1775.5,2701.1,1808.2,2736.2,1807.6,2780.5z"/>
<path d="M2013.1,2927.9c-65.7-0.5-108.3-32.6-118.4-82.6c-1-5.2-1.8-10.5-1.7-15.8c0.1-11.3,5.9-18.2,17.3-19.9
	c11.4-1.7,15.7,5.7,18.7,14.7c1.4,4.2,2.3,8.6,3.9,12.7c12,31.4,37.9,49.3,71.4,49.5c36.2,0.2,58.5-14.6,71.9-47.6
	c2.3-5.7,4.6-11.5,6.7-17.3c3.1-8.4,8.4-13.4,18.1-11.8c10.5,1.7,15.4,8.2,15.2,18.4c-0.3,24-8.9,45.1-24.7,62.9
	C2068.3,2917.5,2038.1,2927.7,2013.1,2927.9z"/>
<path d="M1591.9,2944.4c2.7-32.3,19.4-56.9,37.8-80.1c2.9-3.7,13-3.9,18.7-2.2c2.4,0.7,4.6,11.6,2.6,16
	c-9.4,20.8-19.7,41.1-30.8,61.1C1614.9,2948.9,1605.6,2950.5,1591.9,2944.4z"/>
<path d="M2420.9,2863.9c-3,28.7-16.6,52.4-30.8,75.7c-4.4,7.3-13.3,11.2-20.6,5.4c-4.1-3.3-7.2-13-5.3-17.5
	c8.3-19.4,17.8-38.4,28.4-56.7C2397.6,2862.4,2406,2856.3,2420.9,2863.9z"/>
<path d="M1703.9,2884.4c-11.3,19.2-21.9,38.5-34.1,56.6c-2.1,3.2-12.5,4.1-16.6,1.8c-3.8-2.2-7.2-11.4-5.5-15.3
	c7.4-18,15.8-35.7,25.8-52.2c2.4-3.9,12.6-4.8,18.9-4.1C1695.9,2871.4,1698.6,2877.9,1703.9,2884.4z"/>
<path d="M2320.5,2942.7c-2.4-4.3-6.5-8.8-7.2-13.7c-0.6-4.8,1.7-10.3,3.7-15.1c6.5-15.4,12.8-31,20.7-45.7
	c2.3-4.2,10.3-8.6,14.6-7.7c4.5,1,9.7,7.6,11.1,12.7c3.6,13.5-20.2,61-32.5,66.8C2328.7,2941.1,2326,2941.3,2320.5,2942.7z"/>
<path d="M2473.7,2873.4c-1.3,5.6-1.3,8.4-2.5,10.7c-8.8,17.3-17,34.9-27.1,51.3c-2.6,4.3-11.6,4.6-17.6,6.8c-2-6.1-7-13.2-5.4-18.1
	c5.6-16.6,12.4-33,21-48.2c3.1-5.5,12.2-9.2,19.2-10.5C2465,2864.7,2470.1,2870.8,2473.7,2873.4z"/>
<path d="M1598.6,2873.1c-8.7,24.8-17.9,47.7-36.6,65.1c-2.9,2.7-10.8,3-14.3,0.8c-3.2-1.9-6.3-9.9-4.8-12.9
	c10.1-20.5,21.1-40.6,32.9-60.1c1.9-3.2,9.8-5.2,13.8-4C1593.4,2863.2,1595.7,2869.3,1598.6,2873.1z"/>
<path d="M1934.2,931c27.6-1,30.8,1,29.6,21.1c-2,34.6-4.3,69.2-7.9,103.6c-8.1,79.1-2.7,157.9,2.4,236.8c1.3,19.5,2.1,39,3.1,58.5
	c0.4,8.4,0.1,16.6-10.7,18.1c-9.7,1.3-14.9-4.3-17.4-12.8c-1.5-5.1-2.9-10.3-3.6-15.5c-14.1-113.2-17.7-226.5-2.3-340
	C1930.6,978.1,1932,955.2,1934.2,931z"/>
<path d="M1978.2,2029.7c0,83.3,0,165.1,0,246.5c-27.6,3.9-31,2.2-31.2-22.7c-0.8-68.2-0.7-136.4-0.2-204.5
	C1946.9,2028.1,1950.9,2026.1,1978.2,2029.7z"/>
<path d="M1956,1514.6c-8.9,0.2-17.4-8.8-18-19.1c-0.7-10.7,6.8-19.3,16.7-19.3c10.1,0.1,18,8.1,18.2,18.4
	C1973,1504.7,1964.9,1514.4,1956,1514.6z"/>
<path d="M1983.2,1895.7c-0.1,13.6-10.3,24.2-19,23.6c-10.7-0.7-15.4-8.2-16.1-17.9c-0.8-10.4,8.6-20.2,18.2-17.5
	C1973.4,1885.9,1979.2,1892.7,1983.2,1895.7z"/>
<path d="M1951,829.4c-9.9,0.3-16.7-7.4-17-19.2c-0.3-12.4,5.8-20.1,16-19.4c10.7,0.7,15.2,8.1,16.3,17.5
	C1967.5,818.7,1959.5,829.1,1951,829.4z"/>
<path d="M1961.4,2379.7c9.3,0.9,16,5.3,16.5,16.2c0.6,11.2-6,19.3-16.5,20.1c-10.5,0.8-16.7-4.9-16.8-15.6
	C1944.5,2388.7,1951.1,2380.2,1961.4,2379.7z"/>
<path d="M1665.9,572.7c9.4,0,17.1,0,27.2,0c1.4,7.9,3.7,15.4,3.8,23c0.4,37.2,0.3,74.4,0.2,111.6c0,6.2,0.7,13.3-2,18.3
	c-2.8,5.3-9.3,11.8-14.2,11.9c-5.3,0.1-11.6-6-15.7-10.9c-2.4-2.8-1.9-8.5-1.9-12.9c-0.2-42.5-0.4-85-0.4-127.6
	C1663,582.8,1664.4,579.4,1665.9,572.7z"/>
<path d="M1710.9,459.6c-0.1,13.3-8.8,24.6-17.9,24.7c-9.2,0.1-18.6-9.8-18.4-19.3c0.3-11,9.8-20.9,20.3-20.9
	C1706.1,444.2,1710.4,451,1710.9,459.6z"/>
<path d="M2240.2,1060.2c0-1.6-9.4-378.5-9.4-380.8c8.3-0.5,16.6-0.9,27.3-1.5c2.2,12.9,4.9,24,5.9,35.2c9.5,109,7.8,218.2,6,327.4
	C2269.4,1065.5,2265.3,1068,2240.2,1060.2z"/>
<path d="M2264.2,1223.6c1,2.2,2.8,4.6,2.9,7c3.4,63.6,6.7,127.2,9.6,190.8c0.3,6.9-0.9,14.2-2.8,20.9c-2.6,9.4-11,12.2-18.9,9.6
	c-4.3-1.4-6.8-8.5-10-13.1c-0.4-0.6-0.1-1.7-0.2-2.6c-3.8-60.9-7.6-121.8-11.3-182.7c-0.1-0.9-0.1-1.8-0.1-2.7
	C2232.8,1223.6,2235,1221.6,2264.2,1223.6z"/>
<path d="M2263.5,1724c-25.8,3.2-27.6,1.8-30.4-18.4c-7.1-52.2-2.9-104.3,1.7-156.3c0.4-4.4,1.6-8.7,2.9-12.9
	c2.7-9.1,9.1-12.4,18.3-11.3c10.8,1.2,12,8.6,11.6,17.3c-1.3,26.5-3.3,53-3.6,79.6c-0.4,29.2,0.8,58.4,1.2,87.6
	C2265.3,1713.8,2264.3,1718.1,2263.5,1724z"/>
<path d="M2266.6,1852c-1.5,12.4-8.8,20.5-17.3,18.6c-11.7-2.7-14.1-12.1-13.9-22.2c0.3-11.6,8.1-18.8,18-17.8
	C2263.4,1831.6,2268.1,1839.2,2266.6,1852z"/>
<path d="M1467.5,1214.4c-27,4.3-29.3,2.4-33.4-19.4c-8.5-44.6-2.2-88.7,7.2-132c13.4-61.6,13.2-123.1,5.4-185.1
	c-1.8-14.1-2.5-28.3-3.4-42.4c-0.6-8.8,1.6-15.9,12.1-17.1c10.9-1.2,16.7,4,18.8,14.2c0.5,2.6,1,5.2,1.4,7.9
	c9.9,74,19.9,147.8,0.5,222c-11.1,42.4-12.7,85.9-8.6,129.5C1468,1198.9,1467.5,1205.9,1467.5,1214.4z"/>
<path d="M1467.1,2166.8c-22.9,2.1-27.7,0.3-28.3-17.2c-0.9-24.7,0.6-49.6,2.1-74.4c2.5-40.7,5.7-81.3,8.6-121.9
	c0.2-2.6-0.3-5.3-0.2-8c0.4-16.3,5.1-23.5,15.6-22.6c13.4,1.1,17.9,10.6,17.7,22.3c-0.6,29.2-1,58.5-3,87.7
	c-2.6,38.9-6.6,77.7-10.1,116.5C1469.1,2155.2,1468,2161.1,1467.1,2166.8z"/>
<path d="M1471.4,2266.5c11.1,0.1,19.6,9.1,19.4,20.4c-0.2,10.8-9.7,20.9-19.8,21.1c-9.5,0.2-16.8-9.8-16.5-22.9
	C1454.7,2272.3,1460.1,2266.4,1471.4,2266.5z"/>
<path d="M1490.4,1347c-0.6,11.9-9.2,19.8-20.5,18.9c-10.8-0.9-16-7.7-15.3-20c0.6-10.8,4.7-18.7,16.9-19.2
	C1482.5,1326.2,1490.9,1335.6,1490.4,1347z"/>
<path d="M1480,704.3c-3.6,2.6-8.7,8.7-14.9,10.3c-11.1,2.8-20.9-4.3-21.7-13.2c-1-10.9,8.1-21.6,18.3-21.5
	C1470.1,679.9,1479,689.8,1480,704.3z"/>
<path d="M2497.9,1935.5c-15.5,3.6-23.6-0.4-25.3-14.1c-0.9-7-1.1-14.1-1.6-21.2c-3.3-43.3-4.9-86.8-10.4-129.8
	c-5.5-43.1-0.4-84.8,7.4-126.8c2.1-11.3,7.1-17.6,19.1-17.6c9.8,0,15.1,4.6,14.8,14.4c-0.1,5.3-1,10.6-2,15.8
	c-8.8,46.7-6.2,93.4-2.3,140.5c3.4,40.5,2.6,81.5,3.3,122.2C2500.9,1924.2,2499.1,1929.3,2497.9,1935.5z"/>
<path d="M2517.7,848.7c-8.8,0.5-16.2,0.8-24.3,1.3c-6-96.3-11.8-190.2-17.6-284.1c23-8.2,29.6-5.8,32.9,16.5
	c4.8,32.4,8.9,65,10.3,97.7c2.1,47.7,1.6,95.6,1.8,143.4C2520.9,831.2,2519,838.9,2517.7,848.7z"/>
<path d="M2492.2,1213.2c-26.7-2.6-29-3.3-28.4-24.9c1.5-56.6,4.1-113.2,7.2-169.7c1.1-20.3,4.7-40.4,7.4-60.5
	c1.5-11.2,7.2-17.9,19.5-16.6c12.5,1.3,17.9,7.4,16.4,22.2c-2.3,22.9-6.7,45.6-8.6,68.5c-4.3,52.1-7.5,104.2-11.2,156.3
	C2493.8,1196.2,2493,1203.9,2492.2,1213.2z"/>
<path d="M2510.8,2031.6c-0.6,10.2-9.2,18-19.2,17.5c-10.8-0.6-19.7-10.5-19-21.2c0.7-10.6,8.4-17.3,19.4-16.9
	C2503.6,2011.4,2511.5,2020,2510.8,2031.6z"/>
<path d="M2501.2,1497.4c2.8,3.3,9.8,7.9,11.5,14.1c3.2,11.4-7,24.6-17.2,25.2c-9.8,0.5-16.1-5.8-16.2-16.3
	C2479.1,1507.8,2486.3,1498.4,2501.2,1497.4z"/>
</svg>
