<?xml version="1.0" encoding="utf-8"?>
<!-- Generator: Adobe Illustrator 24.3.0, SVG Export Plug-In . SVG Version: 6.00 Build 0)  -->
<svg version="1.1" id="Layer_1" xmlns="http://www.w3.org/2000/svg" xmlns:xlink="http://www.w3.org/1999/xlink" x="0px" y="0px"
	 viewBox="0 0 4000 4000" style="enable-background:new 0 0 4000 4000;" xml:space="preserve">
<path d="M1931.8,3680.5c-242.4-2-530.1-28-813.2-95.2c-175.3-41.6-344-101.9-500.6-192.1c-124.1-71.5-234.9-159.9-310.5-283.3
	c-172-280.8-162-563.7,2.5-843.7c61.8-105.2,148.9-188.8,246.5-261.5c6.3-4.7,12.3-9.9,19.1-13.8c21.4-12.3,25-28.1,18.6-52.5
	c-31.9-121.1-26.7-241.5,14.6-359.6c50.7-145,147.8-251.4,279.1-327.9c65.8-38.3,135.1-69.2,207.8-92.2c34.2-10.8,33-11.4,35.3-46
	c11.1-170.9,89.5-297.8,245.6-373.6c76-36.9,158.4-53.4,238.4-78c59.8-18.4,120.2-37.6,176.4-64.7c76.5-36.8,130.7-97.3,145.9-183.7
	c6-34,3-70,0.3-104.9c-1.6-20.5-10.9-40.3-16.2-60.6c-12.7-48.9,22-89.7,71.2-77.5c50.4,12.5,100.6,29.5,147.7,51.3
	c137.3,63.5,253.5,156.8,358.4,264.5c110.5,113.5,202.7,240.1,265.7,386.3c32.3,74.9,56.2,152.5,61.2,234.5
	c1.4,22.4,11.5,30.3,32.3,36.4c110,32.3,214.9,76.6,305.5,148.3c200,158.2,277.6,365.7,234.7,615.5c-9,52.2-3.3,80.6,42.6,112
	c152.1,103.9,253.1,248.3,310,423.1c71.5,219.3,45.7,429.4-65.4,629.3c-76.6,137.7-191.6,237.4-325.8,316.7
	c-169.9,100.3-354.2,162.4-545.7,204.4C2539.2,3652,2260.9,3680.8,1931.8,3680.5z M688.3,2048.1c-16.8,10.3-27.1,15.7-36.5,22.5
	c-75.8,54.5-147,114.2-204.8,188.1c-173.2,221.3-207.5,461.8-90.4,718.4c63,137.8,172.7,235.3,300,313.4
	c185.7,114,390.5,176.9,602.8,215.8c122.2,22.4,245.7,38.6,369.2,52.1c157.7,17.3,316.1,22.7,474.8,14.5
	c166.1-8.6,331.5-23.6,496.1-48.9c202.9-31.1,400.1-81.4,586.9-167.3c123.4-56.8,239.1-126.2,328.7-230.8
	c167.8-195.8,215.2-417.7,134.3-663.4c-57.4-174.4-175.7-300.9-327.4-399c-4-2.6-9.7-2.4-16.8-4.1c-10.1,12.1-19.2,25-30.3,35.7
	c-34.7,33.6-67.5,69.9-105.7,99c-108,82.3-233.7,127.7-362.8,164.2c-183.5,51.8-371,79-561.1,89.4
	c-272.7,14.8-544.7,10.6-814.9-33.4c-151.5-24.7-300-61.8-440.9-124.7c-114.1-50.9-216.4-117.3-288.8-222.5
	C697.2,2061.7,693.7,2056.2,688.3,2048.1z M1189.4,1242.1c-100,28-195.9,62.8-281.4,120.3c-163.7,110.3-242,263.4-224,462.1
	c12.3,136.3,68.2,246.5,184.3,326.6c87.5,60.4,182.1,103.2,282,135.1c199.5,63.7,405.1,94.6,613.8,102.7
	c167.5,6.5,335.1,7.2,502.6-5c179.3-13,356.3-37.4,529.4-87.8c125.4-36.5,244.9-84,349.9-163.6c54.3-41.2,99.8-90.3,123.7-154.4
	c51.3-137.1,52.8-275.4-11.2-408.6c-92.8-193.4-263.2-283.3-461.1-333.1c-14.9-3.7-24.1,2.7-32.1,15.6
	c-56.2,90-137.7,149.2-234.2,189.6c-150.8,63.2-309.8,87.5-471.5,90.3c-96.5,1.7-193.6-7.2-289.9-16.3
	c-96.6-9.1-191.5-29.8-283.2-62c-115.5-40.6-221.7-95.2-288.4-205C1197,1246.8,1194.2,1245.7,1189.4,1242.1z M2056.6,298.4
	c-3.6,5.4-6.1,7.4-6.1,9.6c-0.3,9.1,0,18.3,0.2,27.4c3.4,131.2-47.9,236-151.5,316.1c-67.7,52.3-146.1,80.2-227,103.8
	c-76.5,22.3-154.5,41.3-228.3,70.7c-103.4,41.4-178.6,114.2-204,227.2c-21.1,93.9-2.2,175.9,76.5,239.7
	c65.2,52.9,138,90.5,217.5,114.3c133.5,40.1,270.4,60.4,409.8,64c176.6,4.6,350.2-11.8,518.4-69.4c78-26.7,147.1-67.6,207.6-123.4
	c34.7-32,52.2-70.4,52.2-118.1c0-55.4-6.3-109.5-21.6-162.8c-27.9-96.9-76.4-183.3-134.6-264.6c-117.3-164-258.1-302.4-437.8-397.6
	C2104.2,322.6,2080.1,310.5,2056.6,298.4z"/>
<path d="M1681.2,909.3c48.2,0.7,87.1,31.5,86.4,68.4c-0.7,37.4-41.7,67.2-91.8,66.9c-47.2-0.3-87.6-32.3-86.5-68.3
	C1590.4,939.1,1632.3,908.6,1681.2,909.3z"/>
<path d="M2295.5,1042.2c-55.2,2.3-85.8-36.5-85.3-65.6c0.7-35.5,41.7-66.9,88.9-67.2c48.3-0.3,87.4,29.7,87.4,67.2
	C2386.6,1015.6,2349.8,1042.1,2295.5,1042.2z"/>
<path d="M409.2,2704.8c4-113.7,37.2-224.8,107.6-323.8c5.3-7.4,11.3-14.5,18-20.6c9.7-8.9,20.8-10.4,32.1-2.3
	c11.8,8.4,12.3,19.5,6.3,31.2c-4.2,8.1-9.9,15.4-14.9,23c-118,179.2-125.7,363.6-26.7,553.2c3.6,6.9,9.9,14,9.9,21
	c0,9.2-2.2,22.3-8.4,26.5c-6.5,4.5-22.2,4.6-28-0.4c-11.5-9.8-21-23.4-27.9-37.2C435.8,2892.6,411.5,2805,409.2,2704.8z"/>
<path d="M3541.4,2629.8c-4.8,208.3-78.1,361.7-230.4,475.2c-9.3,6.9-19.6,13.3-30.4,17.3c-12.3,4.6-25.1,0.6-29-12.3
	c-2.6-8.5-1.4-21.5,3.7-28.2c7.6-10,20.2-16.2,30.5-24.1c143.4-109.7,214.5-253.6,203.8-435.1c-1.8-29.8-9.9-59.2-15.2-88.8
	c-1.6-9-4.8-17.7-5.8-26.8c-1.4-12.4,0.2-26.4,15-27c9.8-0.4,21.8,5.8,29.6,12.7c6,5.4,8.5,16.1,10.1,24.9
	C3530.7,2561.3,3537.4,2605.1,3541.4,2629.8z"/>
<path d="M1988.7,1113.2c-58.2-0.1-110.1-28.1-123.8-67.1c-2.1-5.9-3-12.2-3.2-18.3c-0.3-8,6.1-12.7,16-14.5
	c10.9-2,17.4,2.3,20.9,9.6c2.2,4.5,3.7,9.2,5.7,13.8c12.9,28.7,47.7,46.9,87.9,45.4c33.4-1.2,77.3-14.9,84.1-48.5
	c0.8-4,2.8-8,4.5-11.9c3.5-8,11.4-10.3,21.6-8.7c10.1,1.5,16.4,6.1,16.4,14.1c0,4.1-1.1,8.2-2.3,12.2
	C2102.1,1084.7,2052.6,1113.3,1988.7,1113.2z"/>
<path d="M2399.7,1113.3c6.8-23.8,19.4-43.3,36.9-60.8c2.8-2.8,14.2-3.7,18.9-1.8c4.3,1.8,8.5,9.8,6.6,13
	c-10.6,18.7-22.4,37.1-35.4,54.9c-2.3,3.1-12.5,4.7-18.3,3.8C2404.5,1122,2402,1116,2399.7,1113.3z"/>
<path d="M1580.2,1061.2c-1.7,4.5-2.2,8-4.1,11c-10.6,15.8-21.5,31.5-32.4,47.2c-1.2,1.8-3,3.9-5.2,4.6c-4.7,1.4-11.4,3.9-14.4,2.5
	c-4.3-2.1-9.7-8.4-8.3-10.9c10.8-20.1,22.6-39.9,35.7-59.2c1.9-2.8,12.8-3.4,19.2-2.8C1574.3,1053.8,1577.2,1058.6,1580.2,1061.2z"
	/>
<path d="M1518.7,1062.5c-1.1,3.9-1.1,6.1-2.3,7.8c-10.8,15.9-21.1,32-33.2,47.3c-2.6,3.2-13.5,5.8-17.8,4.3
	c-4.7-1.7-10.3-10-8.5-12.9c11-18,23.5-35.5,36.6-52.6c1.8-2.4,10.4-4,14.1-2.8C1512.5,1055.2,1515.6,1059.9,1518.7,1062.5z"/>
<path d="M2358.8,1120.8c-16.1-0.8-23.2-7.3-18.4-15.8c9.4-16.9,20.5-33.3,32.2-49.3c2.1-2.8,11.4-5,15.7-3.8
	c4.7,1.3,9.3,6.5,10.3,10.5c1.1,4.3-1.2,9.5-3.6,13.7c-6.9,11.8-14,23.7-22.4,34.9C2369,1115.6,2361.9,1118.7,2358.8,1120.8z"/>
<path d="M2456.7,1108.1c11.9-18.4,22.1-35.2,33.9-51.3c2-2.7,11.8-4.5,16.3-3.3c4.5,1.2,8.5,6.5,9.8,10.6c1.1,3.6-1,8.2-3.2,11.8
	c-7.8,13.1-16.1,26.1-24.6,39c-3.9,5.9-10,11.4-19,7C2464.3,1119.1,2461.3,1113.1,2456.7,1108.1z"/>
<path d="M1634.4,1068.9c-1.1,4-1.1,7-2.8,9.3c-9.2,13.3-18.7,26.6-28.3,39.8c-4.7,6.4-13.2,8.9-20.5,4.9c-4.1-2.2-6.8-10.1-4.8-13.7
	c8.3-15.1,17.9-29.9,28.8-44c2.5-3.2,12.3-4.3,18.5-4C1628.7,1061.2,1631.7,1066.4,1634.4,1068.9z"/>
<path d="M3154.8,3189.4c1.2,14.8-16,32.5-32.4,33.2c-14,0.6-28.5-11.5-30.2-25.3c-1.8-14.8,14.2-33.8,29.9-35.4
	C3136.4,3160.6,3153.6,3175,3154.8,3189.4z"/>
<path d="M700,2254.5c0.7,16.9-14,33.2-30.9,34.2c-15.9,0.9-28.4-9.4-29.8-24.6c-1.4-15.1,14.9-33.1,31.2-34.5
	C685.3,2228.4,699.4,2240.3,700,2254.5z"/>
<path d="M784,1766.8c7.1-165.6,76.5-293.2,227.4-370.4c12.4-6.3,27-10.3,40.8-11.2c6.8-0.4,18.7,7.5,20.2,13.7
	c2.1,8.2-1.8,19.5-6.7,27.3c-3.7,5.9-12.4,9.4-19.6,12.3c-166.9,67-253.7,265-188,453.2c6.4,18.4,15.1,36.1,23,54
	c6.3,14.3,8.8,27.8-6.6,38.1c-13.3,8.9-27.6,5.3-38.5-14.2c-32.4-57.9-50.6-120.2-52-187C783.9,1777.3,784,1772.1,784,1766.8z"/>
<path d="M2630.9,2244.6c-12.8,2.9-24.4-1.4-27.4-20.2c-3.1-19.7,2.3-29.7,22.2-34.2c26.7-6,53.8-10.1,80.7-15.3
	c82.7-16.2,158.8-50.9,234.6-85.9c14.5-6.7,26-20.7,37.7-32.4c10.1-10,17.9-22.4,28.1-32.4c12.7-12.4,26.2-9.9,37.8,2.2
	c12,12.6,11.6,26.7-1.1,37.8c-12.6,11-27.1,19.9-41.2,29.1c-18.4,12-37.2,23.4-55.9,35c-29.8,18.4-58.1,40.3-89.9,54.4
	C2786,2214.1,2711.9,2235.1,2630.9,2244.6z"/>
<path d="M3192.9,1757.2c0.5,57.5-13.9,111-43,160.6c-3.3,5.6-6.4,11.5-10.5,16.5c-9.3,11.4-19.1,22.8-36,12.3
	c-17.1-10.7-10.8-24.6-4.3-37.7c17.9-36.4,34.5-73,39.4-114c8.2-68.4-5.6-132.3-35.7-193.4c-5.8-11.7-12.5-23-17.4-35
	c-4.7-11.5-5.9-25.6,7.9-29.9c9.3-2.9,22.7,0,31.6,5.1c8.3,4.8,14.3,15.1,19,24.2C3174.9,1625.7,3193.9,1688.9,3192.9,1757.2z"/>
<path d="M1532.5,857.3c6.4,6.6,17.3,13.3,20.4,22.5c2.4,7.2-2.5,20.8-8.7,26c-10.7,8.9-25,13.6-37.8,20
	c-66.2,33.1-110.9,82.4-118,159c-5.6,59.8,14.3,110.4,58.9,150.8c7.7,7,16.3,13.1,24,20.1c11.4,10.2,13.1,22.8,4.6,35.1
	c-8.4,12.2-21.5,16-34.6,9.2c-11.3-6-22-14.3-31.1-23.4c-107.2-106.8-96.2-276.3,24.4-368.5c19.6-15,41.6-26.9,63.2-39
	C1506.8,864.2,1517.5,862.3,1532.5,857.3z"/>
<path d="M2618.9,1082.2c-0.3,57-14.1,109.5-50.1,155.8c-42,53.9-97.9,87.7-162.9,103c-49.3,11.6-100.5,15.7-151.2,20.4
	c-26.6,2.5-35.8-6.5-35.6-24.6c0.2-17.5,8.4-21.8,36-25.8c49-7.1,99.2-11.2,146.3-25.5c86.8-26.2,148.3-80.4,166.7-174.7
	C2575.4,1073.7,2579.1,1073.2,2618.9,1082.2z"/>
<path d="M2547.2,936.8c0-17.6,9.4-28.1,24.8-27.5c18.7,0.7,33.5,19,32.8,40.6c-0.5,17.2-13.9,32.7-27.2,31.5
	C2563.4,980.2,2547.2,956.4,2547.2,936.8z"/>
</svg>
