<?xml version="1.0" encoding="utf-8"?>
<!-- Generator: Adobe Illustrator 24.3.0, SVG Export Plug-In . SVG Version: 6.00 Build 0)  -->
<svg version="1.1" id="Layer_1" xmlns="http://www.w3.org/2000/svg" xmlns:xlink="http://www.w3.org/1999/xlink" x="0px" y="0px"
	 viewBox="0 0 4000 4000" style="enable-background:new 0 0 4000 4000;" xml:space="preserve">
<path d="M1977,119.4c1042.7,5.3,1813.4,848.8,1813.9,1794.4c0.5,999.6-804,1806-1793.5,1811c-992.3,5-1817.1-786.6-1818.5-1792.2
	C177.5,910,1013.4,125.9,1977,119.4z M273.4,1926.7c-0.2,113.5,13.3,248.4,37.2,357.2c66.6,304.2,206.4,572,419.5,797.4
	c304.9,322.5,680.2,507,1124.9,542.9c260.9,21,513.7-16.8,756.5-114.6c321.5-129.5,586.8-331.8,783.4-619.1
	c229.3-335.2,328.2-706,297.4-1111.4c-20.3-268-105.7-514.6-245.7-742.4c-103.9-169.1-234.3-315.7-389-440.7
	c-277.5-224.4-595.2-348.4-949.5-377.2c-184.6-15-367.6,3.6-547.2,50.7c-192.3,50.5-369.5,133.1-533.4,245.7
	C838.9,644.7,679.6,802.7,553.3,993.6C366.2,1276.3,272.5,1587.4,273.4,1926.7z"/>
<path d="M1417.9,1910.1c-1.5-294.5,231.6-575.5,571.3-574.9c313.9,0.5,568,263.2,566.6,581c-1.3,295.4-235.1,572.8-572.6,570
	C1666.6,2483.6,1418.2,2236.6,1417.9,1910.1z M2462,1914.6c6-234-178.6-482.9-478.5-484.7c-242.4-1.4-473.9,191.2-473.4,481.6
	c0.5,280.5,221.6,478.8,471,480C2249.1,2392.9,2462,2180.5,2462,1914.6z"/>
<path d="M2381.2,3006.7c-60.1,0.6-110.2-47.4-111.2-106.7c-1.2-67.2,48.2-120.9,112.7-122.4c60.5-1.4,113.9,51.3,114.5,113
	C2497.8,2960.1,2452,3006,2381.2,3006.7z"/>
<path d="M1578.8,3008c-60.9-0.3-110.7-50.4-110.7-111.3c-0.1-64.2,52.3-118.5,113.7-117.9c61.7,0.6,112.8,52.3,112.6,114.9
	C1694,2966.5,1631.6,3013.2,1578.8,3008z"/>
<path d="M634,1230.8c-17.6-0.1-28.7-11.5-26.1-25.4c2.1-11.2,6.8-22.2,11.9-32.5c79.5-161.6,185.1-303.3,323.2-419.7
	c27.5-23.2,57.3-43.6,86.2-65.2c2.8-2.1,5.8-3.9,8.9-5.5c18.8-9.6,32.3-8.1,40,4.7c10,16.7-1.7,26.2-12.9,34.7
	c-23.1,17.6-47.1,34-70.1,51.8c-141.6,109.5-245.5,249.4-326.4,407.6c-6.3,12.4-11.9,25.3-19.5,36.9
	C645.2,1224.4,637.5,1228.1,634,1230.8z"/>
<path d="M2826.3,622.7c9.3,4.2,17.1,6.8,23.9,11c150.2,92.7,282.1,205.7,385,350.4c15.5,21.8,29.8,44.5,44.3,67
	c5,7.8,9.6,16,13.2,24.6c7.4,17.4,2.7,30.8-12.3,37.8c-15.5,7.1-23.9-1.9-31.2-13.7c-17-27.8-33-56.2-51.1-83.2
	c-91.7-137.3-215-240.7-353-328.2c-11.7-7.4-24.3-14.7-33.2-24.8c-4.7-5.4-5-17.7-2.5-25.4C2811.3,631.8,2820.4,627.7,2826.3,622.7z
	"/>
<path d="M2984.3,3096.3c12.7-11.8,25.2-25.3,39.7-36.3c104.5-79.9,193.2-174.4,265.3-284.4c22.9-34.9,42.5-72,63.5-108.1
	c4.7-8,8-16.9,13.2-24.5c10.5-15.2,21.8-17.8,35.4-9.6c14.5,8.8,11.8,21,7,33.6c-1.6,4.3-4,8.4-6.2,12.5
	c-87.1,166.3-203.9,307.7-353.6,421.4c-5.6,4.2-11.1,8.5-16.9,12.4C3008.3,3128.7,3003.5,3127.2,2984.3,3096.3z"/>
<path d="M1979.8,3120.4c-73.8,5.2-147.9-51.4-160.1-122.9c-1.7-10.1-3.8-21.8-0.5-30.8c3.1-8.2,12.8-18.1,20.6-19.2
	c7.8-1,19.3,6.2,24.9,13.2c6.1,7.7,7.2,19.3,10.8,29.1c19.6,53.5,54.2,75.6,116.2,74.4c49.7-1,85.6-29.4,101.3-80.3
	c2.4-7.8,4.5-15.6,6.9-23.4c4.1-13.2,13.5-18.6,26.8-16.2c13.7,2.5,24.1,9.7,24.6,25c0.3,8-1.1,16.2-2.9,24.1
	C2130.7,3073.5,2069.1,3119.7,1979.8,3120.4z"/>
<path d="M1378,1703.6c2.8-10.7,3.8-15.3,5.2-19.7c37.7-116.6,98.8-218,194.8-296.4c5.4-4.4,10.8-8.9,16.6-12.7
	c11.4-7.4,21.9-6.1,31.1,4.3c9.7,10.8,7.9,21.2-1.6,30.8c-5.7,5.8-11.8,11.3-18.2,16.3c-78.5,61.4-130.7,141.1-163.5,234.4
	c-5.8,16.5-11.6,32.9-17.2,49.5c-5.2,15.1-16.7,20.9-29.9,14C1386.9,1719.7,1382,1708.7,1378,1703.6z"/>
<path d="M1370,3130.9c18.4-33.3,35.8-65.8,54.4-97.5c6.1-10.4,18.8-12.4,27.2-5c5,4.4,7.6,17.4,4.8,23.6
	c-13.8,30.5-29.5,60.1-45.1,89.8c-6.3,12-17.8,16.1-29.3,10.2C1376.7,3149.3,1374.8,3139.8,1370,3130.9z"/>
<path d="M1321.2,3150.9c-14.8-1-24.3-12.3-21.4-24.6c2.6-11.1,7.6-21.8,12.7-32.1c9.8-19.6,20.1-39.1,31.1-58.1
	c5.9-10.2,16.2-15.6,26.1-7.5c5.8,4.7,12.1,17.1,9.7,22.3c-14.1,31.5-30.3,62.2-46.6,92.7
	C1330.6,3147.7,1323.7,3149.4,1321.2,3150.9z"/>
<path d="M2599.8,3024.9c-1.1,7.1-0.7,15.5-3.7,22.4c-12,27.7-24.8,55.1-37.7,82.4c-5.4,11.4-14.9,21.3-27.1,14
	c-6.4-3.8-12.2-19.1-9.5-25.8c12.4-31,26.7-61.4,42.8-90.7C2571.7,3014.5,2585.7,3015,2599.8,3024.9z"/>
<path d="M2674.4,3046.9c-15,31.5-28.3,60.8-43.2,89.2c-2.2,4.3-12.6,8.2-17.1,6.6c-6.4-2.3-12.9-9.1-15.5-15.5
	c-2.3-5.6-1-14,1.5-20.1c9.1-22.4,19.2-44.4,29.1-66.5c1.4-3.1,3.5-7,6.2-8.1c8-3.2,17.7-8.7,24.6-6.5
	C2666.2,3028.2,2669.4,3039.2,2674.4,3046.9z"/>
<path d="M2522.2,3039.6c-3,7.2-4.5,11.5-6.5,15.6c-11.5,23.9-23.4,47.6-34.7,71.6c-4.6,9.7-11.3,14.4-21.9,12.2
	c-13.1-2.8-17.8-14.1-14.1-23.7c11.1-28.9,23.8-57.2,38.2-84.6c2.6-5,16.2-7,23.9-5.6C2513,3026.3,2517.6,3034.9,2522.2,3039.6z"/>
<path d="M1530.3,3066.2c-14.7,26.8-27.6,52.5-43,76.6c-3.2,5-17.7,7.8-23.5,4.8c-5.3-2.8-10.2-16.3-7.9-22.3
	c9.6-24.6,21.8-48.3,33.5-72.1c5.4-10.9,16-15.6,26-10.1C1521.9,3046.5,1524.6,3056.8,1530.3,3066.2z"/>
<path d="M1203.9,778.1c-0.5,17.6-19.3,37.7-34.8,37.2c-13.7-0.5-28.7-16.4-28.3-30.1c0.5-18,18.6-34.1,37.4-33.1
	C1194.7,752.8,1204.3,762.5,1203.9,778.1z"/>
<path d="M2882.9,941.3c-17.5,0.6-32.6-13.7-34-32.2c-1.2-16.8,9.4-31.4,23.7-32.7c15.9-1.4,35.5,17.2,36.5,34.7
	C2910,927.3,2898.3,940.7,2882.9,941.3z"/>
<path d="M3128.4,1084.2c0.5,15.6-9.3,27.4-23.7,28.6c-18.5,1.5-34.9-14.6-35.3-34.5c-0.3-15.4,13.2-30.1,27.4-29.7
	C3112.1,1049,3127.8,1066.7,3128.4,1084.2z"/>
<path d="M984.7,960.1c-16.6,1.1-27-7.9-27.7-23.7c-0.7-16.8,14.3-33.4,31.9-35.4c17.6-1.9,30.9,8.1,31.7,24.1
	C1021.6,943,1005.4,958.7,984.7,960.1z"/>
<path d="M895.4,1136.7c0.7,17.1-14.7,34.8-31,35.8c-12.9,0.8-26.1-11.6-27.5-25.9c-1.6-16.9,13.8-34,31.2-34.6
	C884,1111.6,894.8,1121.4,895.4,1136.7z"/>
<path d="M3162.1,2802.6c-13.8-0.8-24.6-14-23.8-29.1c0.9-16.1,16.5-30.8,32.3-30.6c15.2,0.3,27.9,12.8,26.3,26.1
	C3195,2785.4,3176.2,2803.4,3162.1,2802.6z"/>
<path d="M2897.6,3190.4c0.9,15.7-14,31.2-30.7,31.8c-14.3,0.5-27.4-11.9-27.2-25.9c0.2-14.9,13.8-28.9,28.9-29.9
	C2883.7,3165.5,2896.8,3176.3,2897.6,3190.4z"/>
<path d="M2985.7,2975.8c-12.4-0.1-22.7-12-22.5-26.2c0.2-16.7,14.7-33,29.7-33.3c14.5-0.3,26.8,11.6,26.9,26.1
	C3020,2958.4,3002.2,2975.9,2985.7,2975.8z"/>
<path d="M1224.5,626.9c-12.4-0.6-23-12.9-22.6-26.2c0.5-16.4,16.8-31.3,32.3-29.7c14.8,1.6,26,14.2,25.1,28.2
	C1258.5,613.6,1240.7,627.7,1224.5,626.9z"/>
<path d="M3334.3,1281c-0.8-17.3,9.9-28.9,26.9-29.3c16.8-0.3,27.6,8.6,28.6,23.7c1,16.7-10.1,30.7-25.2,31.8
	C3347.5,1308.5,3335.2,1297.8,3334.3,1281z"/>
</svg>
