<?xml version="1.0" encoding="utf-8"?>
<!-- Generator: Adobe Illustrator 24.3.0, SVG Export Plug-In . SVG Version: 6.00 Build 0)  -->
<svg version="1.1" id="Layer_1" xmlns="http://www.w3.org/2000/svg" xmlns:xlink="http://www.w3.org/1999/xlink" x="0px" y="0px"
	 viewBox="0 0 4000 4000" style="enable-background:new 0 0 4000 4000;" xml:space="preserve">
<path d="M3832.2,2058.8c50.8,26,84.9,62.5,101.4,114.1c12.1,37.9,13.1,75.6-3.4,112.4c-6.9,15.4-11.6,30.2-5.4,46.9
	c24.5,65.4-33,165.5-96,190.7c-33.8,13.5-45.1,33.2-50.6,68.1c-36.2,226.8-153.5,403.3-338.6,537.1
	c-157.8,114.1-333.2,188.9-520.3,238.6c-199.8,53.1-403.5,79.8-609.5,92.8c-177.9,11.2-355.8,13.5-533.9,5
	c-262.2-12.6-521.4-45.2-773.9-120.2c-169.4-50.3-329.5-120.7-474.7-223.2c-195.9-138.1-306.5-326.8-337.1-563.3
	c-2.5-19.3-8.9-29.3-28.3-32.5c-70.4-11.5-116.6-86.9-108.6-160.7c2.3-21.7,0.4-40.4-9.1-60.4c-25.9-54.6-15.2-107.8,16.9-155.5
	c16.4-24.4,41.4-43.2,63.2-63.7c7.4-6.9,17-11.4,28.2-18.8c-37.1-75.4-32.5-151.4-4.7-226c-20.4-19.8-40.3-37.2-58-56.7
	c-76.4-84.2-71.3-174.9-5.4-266.7c10.8-15,23.3-29.5,37.6-41.1c18-14.6,24.3-31.1,24.1-54.2c-0.8-139.2,35.3-269.2,103.6-390
	c67.6-119.7,161.9-215.3,272.8-295c136.4-98,287.2-167,446.1-219c161.8-53,328-87.7,496.4-110.5c197.5-26.7,396.3-33.1,595.6-31.1
	c149.2,1.5,297.9,9.3,445.5,29.8c235.6,32.8,467.3,82.6,686.1,180.3c147.9,66,284.4,149.6,395.6,269.1
	c135.3,145.6,212.6,317.6,226.7,516.9c0.5,7,1.3,13.9,1.3,20.9c0.1,34.9,11.2,60.2,40.8,84.9c54.3,45.1,81.7,104.8,67.6,180
	c-8.3,44-17.6,86.5-42.3,124.3c-5.7,8.8-10.7,20-19,24.7c-39.1,22-33.9,51.8-22.2,87.6c13.9,42.9,10.1,87.4-1.2,131
	C3836.8,2035.2,3835,2045.4,3832.2,2058.8z M1976.3,460.2c-196.7-2.1-410,14.3-621.5,50.6c-177,30.4-350.5,74-515.4,146.8
	C689.2,724,550.8,808,435.6,927.3c-134,138.8-203.2,303.4-207.3,496.4c-0.5,26,8.3,40.6,30.3,52.2c39.1,20.6,78.1,41.6,115.2,65.5
	c26.2,16.9,51.2,20.2,78.8,7.8c34.5-15.4,65.7-7.2,95.3,12.9c22.1,15,43.8,30.8,66.5,44.9c41.4,25.7,84.9,37.6,132.6,17.4
	c12.8-5.4,26.5-8.8,39.6-13.4c37.9-13.3,75-13.7,111.9,4.2c21.9,10.7,45.4,18.5,66.7,30.2c45.5,25.2,91.8,31.3,140.5,10.9
	c4.3-1.8,9-2.3,13.4-3.9c55.4-21,109.3-17.8,161.9,9.4c3.1,1.6,6.3,3.1,9.5,4.3c106.1,39.1,211.4,65.2,318.5-0.2
	c21.4-13,51-14.3,77.2-17.2c48-5.2,91.7,13.1,134.1,32.1c22.4,10,42.1,9.9,63.3-0.4c12.5-6.1,25.5-11.4,38.5-16.4
	c46.6-17.9,93.6-19.2,139.2,1.5c29.3,13.3,57.5,14,88.2,6.5c69.5-16.9,138.3-14.3,205.3,13c18.3,7.5,36.8,14.4,55.4,21.1
	c40.9,14.7,82.9,23.7,126.6,19.6c80.6-7.6,159-23.5,228.9-67c45.9-28.6,93.5-31.6,144-16.2c25.5,7.8,51.6,13.7,77.3,21
	c19.4,5.5,36.4,1.6,52.9-9.4c17.4-11.6,34.7-23.8,53.4-33.1c67.2-33.5,135.6-49.7,206.2-8.5c14,8.2,28.7,9,43.6,2.6
	c15-6.4,30.3-12.1,44.6-19.7c36.9-19.4,74.9-29.8,117.5-24.2c13.8,1.8,30.6-2.4,43-9.3c54.8-30.5,108.3-63.4,162.9-94.3
	c15.1-8.6,20.9-19.2,20.9-36.3c0-143.2-36-276.1-112.6-397.5C3540.1,908,3431.1,813.5,3304,738.5
	c-185.7-109.6-388.5-172.9-598.4-214.4C2470.9,477.6,2233.4,458.3,1976.3,460.2z M3694.8,2561.8c-30-5.1-58.8-3.9-81.7-15
	c-48.8-23.6-84.3-9.6-122.4,23.1c-52.4,45-116.5,56.9-183.7,45.6c-30.8-5.2-61.8-13.2-90.4-25.4c-34.7-14.9-65.5-19.7-96.1,7.4
	c-6.7,5.9-16.3,9-24.8,12.5c-98.6,40.7-201.1,58.6-307.2,46.5c-48.3-5.5-96.2-16.5-143.6-27.9c-75.6-18.2-151-28.6-227.6-8
	c-25.8,6.9-51.3,15.3-76.9,22.9c-111.2,33.1-223.5,54.4-340.5,40.2c-61.8-7.5-121.2-23.6-178.7-45.8
	c-98.9-38.2-197.3-35.6-297.7-7.3c-126.3,35.6-253.5,47-382.4,10.4c-16.4-4.7-36.8-0.4-54.1,4.5c-32.6,9.3-64.7,18.3-99,18
	c-75.4-0.6-144.9-20.9-207.1-63.4c-23.7-16.2-44-15.9-67,0.4c-18,12.7-37.3,23.9-57.2,33.4c-71.1,33.8-140.9,18.1-191.4-42.2
	c-11.2-13.4-21.7-27.3-32.3-41.2c-7.8-10.3-17.5-14.7-30.4-12.3c-40.8,7.6-81.6,15-122.7,22.6c-0.5,1.7-2,4-1.7,6
	c2.5,14.9,5,29.8,8.1,44.6c24.9,117.1,73.1,222.3,153.1,313c77.4,87.7,169.8,155.4,271.5,210.8c99.3,54.1,204.1,95.8,312.7,127.9
	c241.4,71.4,489.1,103.3,739.4,117.4c201.3,11.3,402.4,6.3,603.5-10.8c177.8-15.1,353.7-40,526-86.5c182-49.1,355.9-117,507.8-232
	c104.7-79.3,188.9-175.9,244.6-295.7C3673.3,2694.5,3687.7,2630.1,3694.8,2561.8z M1923.2,2275.9c364.2-3.3,664.3-9.2,963.9-31.7
	c202-15.2,403-37,601.1-79.5c56.6-12.2,113.6-27.2,166.7-49.6c92.8-39.2,129-129,99.1-225.2c-5.8-18.6-14.8-26.3-34.7-25.8
	c-41.8,1-83.8,0.7-125.6-1.1c-24.7-1-44.2,5.3-63.5,21.7c-78.6,67-170.6,93-270,66.2c-58.5-15.8-108.9-12.2-159.6,17.2
	c-3,1.7-6.3,2.9-9.5,4.3c-67.6,30-137.6,42.2-210.9,27c-48.3-10-96.1-10.3-145.3-4c-96.8,12.5-194,24.4-291.4,30
	c-123.1,7.1-246.5,8.6-369.8,10.7c-234,4-467.8-2.2-701.4-15.5c-87.1-5-174.2-11.2-261.3-14.4c-59.7-2.2-118-8.2-174.8-28.2
	c-16.5-5.8-36.2-4.2-54.3-3.7c-31.3,1-62.6,6.5-93.7,5.2c-69.3-2.8-131.8-27.4-187.5-68.1c-21.3-15.6-43.4-21.4-68.8-16.1
	c-80.1,16.7-155.8,4.8-223.9-40.5c-31.4-20.9-70.4-5.8-83.2,31.3c-25.1,72.3-11.4,182.3,94.6,227.6c39.3,16.8,81.2,28.5,122.9,38.4
	c123.3,29.6,248.7,47.6,374.4,64.3c184.7,24.5,370.5,36.8,556.3,45C1577.5,2270.5,1782.4,2272.5,1923.2,2275.9z M3679.3,2474.5
	c54.7-1,95.9-15.8,131.7-43.7c29.9-23.3,43.9-51.8,21-87.8c-15-23.6-11.2-44.6,5.8-67.1c34-45.2,24.4-95.6-21.6-126.2
	c-23.6-15.8-29.4-14.9-53.4,0.2c-28.5,17.9-56.3,38.5-87.3,50.2c-52,19.6-105.6,36.4-159.8,48.6c-207,46.4-417.7,68.7-628.9,82.7
	c-205.4,13.7-411.3,21.7-617.1,27.5c-317.7,8.9-635.4,1.5-952.8-13.6c-138.2-6.6-276.1-20.1-413.9-32.4
	c-142.5-12.7-284.3-32.2-424-63.6c-91.7-20.6-184.9-38.2-262.9-97.1c-6.9-5.2-20.7-6.6-29.2-3.7c-62.6,21.4-86.2,88.1-50.6,143.6
	c12.3,19.1,16.8,37.7,10,59.3c-2.8,8.9-5.1,17.9-7.4,26.9c-5.5,21.9,1.4,39.2,20.2,51.1c9.7,6.1,20.3,11.2,31.1,15.2
	c60.4,22.1,121.9,27.5,184.8,11c47.6-12.5,87.1,2,118.2,39.9c11.1,13.5,21.4,27.7,33.3,40.4c31.2,33,65,37.6,103.6,14.2
	c13.9-8.4,26.6-18.8,40.3-27.7c46.3-29.9,93.2-33.1,140.7-2.4c12.7,8.2,25.2,16.9,38.5,24c73.6,38.8,149.4,51,227.5,14.4
	c28.7-13.5,56.3-11.1,84.6-1.4c74.4,25.6,150.6,28.4,227.3,15.4c53.8-9.1,106.8-22.9,160.3-33.5c62.9-12.5,126.6-23.1,190.3-9.8
	c43,9,85.3,22.6,126.9,37.1c93.8,32.7,189.6,49.1,288.1,31.9c63.9-11.2,127.3-27,189.8-44.8c71.2-20.3,142.5-35.2,216.6-24.2
	c40.1,6,79.9,14.8,119.4,24.5c154.9,37.9,304.4,34.9,443.7-54.1c22.8-14.6,47.9-16.9,73.6-7.5c22.9,8.4,46,16.2,68.7,25.1
	c74.7,29.1,142.8,23.4,203.1-34.8c30.3-29.3,67.9-39.3,109.7-29.7c15.8,3.6,31.4,8.5,47.3,11.9
	C3646.8,2468.7,3667.3,2472.2,3679.3,2474.5z M181.7,1528c-18.2,29.2-34.2,53.2-48.5,78.2c-19.3,33.8-15.1,66.9,6.1,98.6
	c28.1,41.9,60.2,74.2,117.5,55.5c33.5-10.9,63.5-1.8,92,18.5c53.2,37.9,112.8,46.8,176.3,34.6c6.8-1.3,13.8-2.3,20.7-3
	c26.2-2.8,51.1,1.3,74,14.7c14.1,8.2,28,16.6,41.9,25.1c66.3,40.7,136.8,56.5,213.7,38.1c27.7-6.6,54.6-4,82.2,5.3
	c30.6,10.4,62.6,19.3,94.6,22.6c52,5.4,104.5,5.6,156.8,8.1c175.5,8.2,351,19.7,526.6,23.6c181.5,4.1,363.2,3,544.7-0.1
	c136-2.3,272.1-8.2,406.9-31.1c74.8-12.7,150-17.4,225.2,0.4c35.9,8.5,72.2,3.5,106.7-7.6c33.1-10.6,65.9-23.3,97-38.7
	c43.5-21.4,86-22.9,131.7-7.8c82.5,27.3,159,11.7,226.4-41.8c37.5-29.7,77.5-43.6,125.6-41.7c46.3,1.8,92.9-1.3,139.3-3.7
	c46.6-2.4,73.9-30.8,88.2-72.6c6.3-18.6,9-38.4,13.2-57.7c8.9-40.2-4.6-73.1-32.6-101.5c-17.7-18-22.9-20.1-45.6-7.8
	c-42,22.6-85.4,43.6-124,71.1c-45.5,32.5-93.2,49.7-149.1,50.4c-23.5,0.3-49.2,6.4-69.8,17.6c-55.2,29.9-109.9,35-167.1,8.5
	c-43.4-20.2-83.8-11.9-122.5,12.5c-13.8,8.7-27.2,17.8-40.7,27.1c-33.2,22.9-70.1,32-109.5,24.7c-31.9-5.9-63.6-13.9-94.5-23.8
	c-27.5-8.9-52.5-6-77.4,6.8c-10.3,5.3-20.4,11.3-31,16.1c-140.9,63.9-283.7,89.3-431.1,21.3c-58.2-26.9-118.9-32.3-180.6-16.1
	c-44.7,11.7-87.8,9.4-129.5-9.2c-32.4-14.4-63.6-13.1-93.7,3.5c-57.2,31.5-113.7,34.2-173,4.6c-53.6-26.7-107.2-23.3-160.1,6.5
	c-40.3,22.7-85,30.8-131.1,31c-73.3,0.4-144-14.3-209.9-45c-47.4-22.1-91.5-26-140.7-6.5c-57.2,22.6-116.2,20.8-173.7-2.9
	c-15-6.2-31.1-11.1-44.5-20c-44.8-29.5-89-30.1-138.6-9.6c-53.8,22.2-109.8,18.4-162.6-7.4c-23.9-11.7-48.7-24.1-68.2-41.7
	c-26.9-24.1-53.5-27.5-86.3-16.6c-35.9,11.9-70.6,8.1-103.4-13.5c-30.1-19.8-61.7-37.4-92.9-55.5
	C234.1,1556.6,210.7,1544,181.7,1528z"/>
<path d="M482.6,1131.7c-2-29.5,12.8-55.8,30-81c33.8-49.5,77.5-89.4,124.6-125.9c61.8-47.9,128.4-88.1,201.6-116
	c52-19.8,97.7-5.2,129.1,38.4c38.2,53,23.7,127.3-32.4,160.9c-21.9,13.1-45.6,23.1-68.3,34.8c-66,34-123,79-167.5,138.9
	c-7.6,10.2-15.7,20.2-24.3,29.6c-35.9,39.1-79,49.6-126.2,31.2C506.5,1226,482.4,1186.8,482.6,1131.7z M949.8,917.2
	c-0.2-34.9-13.6-57.8-39-71.6c-21.8-11.8-42.9-7.2-63.7,1.5c-120.3,50.1-223.5,123.2-304,226.7c-7.1,9.1-13.3,19.2-18,29.7
	c-16.2,36.2-0.6,82.3,34,103.1c30.9,18.6,64.7,10.2,92.2-22.7c2.2-2.7,4.4-5.4,6.4-8.3c50.8-77,121.3-130.4,203-170.7
	c20.8-10.3,40.8-22.2,60.7-34.1C942.5,958.2,950.7,938.5,949.8,917.2z"/>
<path d="M1286.5,805.8c-1.2,74.4-52.1,123.3-127.5,122.2c-67.3-0.9-125.6-55-123-117.3c2.5-61.3,50.5-128.5,135.8-125.6
	C1235.9,687.2,1287.5,741.2,1286.5,805.8z M1250.3,800.2c0.2-40.9-38.7-78.5-81.6-78.8c-49.6-0.4-94.3,41.5-94.3,88.4
	c0,44,37.2,81.1,82.5,82.4C1208,893.5,1250,852.1,1250.3,800.2z"/>
<path d="M2468.1,2941.8c-75.1,4.8-131-74.1-129.5-135.9c1.9-80.4,54.8-138.8,131.2-136.4c82.5,2.6,138.1,54.5,135.9,135.7
	C2603.8,2879,2562.2,2944.5,2468.1,2941.8z M2509.6,2800.8c25.8,0.4,47-17.6,47.3-40.1c0.3-25.3-20.1-44.8-46.8-44.7
	c-22.7,0.1-39.1,17.4-40.3,42.6C2468.6,2782.6,2485.4,2800.4,2509.6,2800.8z"/>
<path d="M1595.5,2941.4c-85.6-0.3-144.4-58.2-143.6-141.5c0.7-71.7,60-132.1,132.5-129.1c82.9,3.4,135.3,51.4,136.3,136.3
	C1721.8,2886.3,1658,2948,1595.5,2941.4z M1669.8,2759.9c0.1-25.1-18.5-43.2-44.4-43.3c-26-0.1-44.3,17.9-44.2,43.5
	c0.1,21.1,21.1,44.3,41,45.2C1647.2,2806.5,1669.7,2785,1669.8,2759.9z"/>
<path d="M2901.9,3176.5c-4.3-4-13.4-8.5-14.1-14.1c-1-7.8,1.9-20.1,7.5-23.8c11.3-7.5,25.3-11.1,38.6-15.2
	c111.8-34.3,218.2-80.4,315.3-146.2c94.3-63.9,177.6-139,235.3-239.1c2.3-4,4.8-8.1,7.9-11.4c9.2-9.8,20.6-11.2,31.7-4.6
	c12,7.1,9.2,18.8,3.3,27.6c-18,27.1-35.8,54.5-56.3,79.7c-102.9,126.5-233.2,216-382.6,278.6c-52.5,22-106.4,40.5-159.8,60.5
	C2921.1,3171.2,2913.2,3173.1,2901.9,3176.5z"/>
<path d="M2027.6,3039.8c-72-0.4-138.9-47.2-158.4-116c-3.7-13.2-4.6-27.4-4.9-41.2c-0.3-15.7,10.6-22.5,24.6-24
	c13.7-1.5,21.5,6,25,18.9c3.1,11.2,6,22.5,10.6,33.1c19,44.4,63.1,72.4,110.3,70.8c55.7-1.9,97.4-31.7,113.4-81.4
	c2.5-7.7,3.9-15.8,6.9-23.3c7.8-20.1,16.7-25.3,33.7-21.2c17.2,4.1,21.5,16.1,19.7,31.6c-6,53.6-28.5,97.7-75.5,126.7
	C2102.7,3032.6,2069,3040.4,2027.6,3039.8z"/>
<path d="M1448.7,3105.3c-28.7-8.3-59.4-12.6-85.8-25.6c-47.6-23.5-51.9-73.3-12.6-108.8c21.4-19.4,47.2-29.2,75.6-32.9
	c42.8-5.5,82.9,1.2,121.1,22.5c49.8,27.9,39.5,91,0,114.9C1524.4,3089.1,1483.5,3100.6,1448.7,3105.3z M1519.4,2977.9
	c-20.7,25-22.8,62.3-58.4,78.8c-4.4-37.9,25.5-56.6,34.8-83.8c-36-10.2-35.7-10.1-48.6,18.3c-6.7,14.7-13.9,29.4-22.5,43.1
	c-6.6,10.6-16.4,15.9-32.2,4.2c7.5-13,13.8-26.3,22.4-37.9c9.1-12.2,20.4-22.7,35.1-38.8c-38.5,2.6-66.9,10.1-87.1,35.6
	c-16.1,20.3-12.9,39.1,7.9,53.5c36.8,25.5,118.7,26.1,156.7,1.1C1563.1,3028.6,1561.1,3000.6,1519.4,2977.9z"/>
<path d="M2643.8,2932.3c21.1-1,50.6,7.3,76.5,27.1c36.8,28.2,40.4,68,8.8,102.1c-22.5,24.2-51.8,34.9-83.6,37.9
	c-39.8,3.8-78.7-1.1-115-19.1c-45-22.3-52.7-71.4-16.2-105.8C2547.3,2943.4,2588.3,2933.1,2643.8,2932.3z M2625.3,3051.4
	c5.9-36.2,33.2-55.4,51.9-85.1c-35.1-8.3-66.8-6.8-98.1,0.8c-14.3,3.5-29.2,9.3-40.7,18.1c-30.9,23.7-26.7,59.1,9.5,73.2
	c40.6,15.7,83.5,21.8,125.6,6.1c15.5-5.8,30.8-17.1,41.4-29.9c21.2-25.5,11.5-47.3-22.6-57.3
	C2646.8,3047.9,2646.8,3047.9,2625.3,3051.4z"/>
<path d="M2611.4,2975.2c4.3,29-10,46.1-23.4,62.8c-3,3.8-14.3,5.8-17.5,3.3c-4-3.2-6.5-13-4.6-18.1
	C2573.5,3002.3,2585.8,2984.9,2611.4,2975.2z"/>
</svg>
