<?xml version="1.0" encoding="utf-8"?>
<!-- Generator: Adobe Illustrator 24.3.0, SVG Export Plug-In . SVG Version: 6.00 Build 0)  -->
<svg version="1.1" id="Layer_1" xmlns="http://www.w3.org/2000/svg" xmlns:xlink="http://www.w3.org/1999/xlink" x="0px" y="0px"
	 viewBox="0 0 4000 4000" style="enable-background:new 0 0 4000 4000;" xml:space="preserve">
<path d="M1982.7,3583.9c-269.6-6.6-537.3-28.3-800.6-87.9c-162.1-36.7-321.3-83.4-467.7-165.3c-64.5-36.1-126-76.6-176-132
	c-66.6-73.7-102.1-157.7-87.4-259.7c6.1-42.7,6.6-86.2,8.5-129.4c5.2-116.8,10.4-233.5,14.5-350.3c10.7-305.1,9.7-610.2-1.5-915.2
	c-7.9-217.2-18.8-434.5-33.8-651.4c-9.8-142.2,49.8-245.5,159.6-326.6c109.7-81,234.5-129.9,363.2-170.2
	c121.7-38.1,246.4-63.5,372.3-83.5c232.6-37,466.8-52,702.2-49.9c209.6,1.8,417.7,19.8,624.6,54c180.3,29.8,357.6,70,526.3,142.2
	c76.6,32.8,148.5,73.6,213.9,125.8c54.4,43.5,94.6,97.7,117.2,162.9c10.5,30.2,16.1,64,15.6,96c-1.5,92.3-6.9,184.5-11.6,276.7
	c-7.5,144.7-16.3,289.4-23.4,434.2c-11.7,238.3-11.6,476.9-5,715.3c5,178.7,17.2,357.2,26.2,535.9c2.9,57.2,4.7,114.5,9.3,171.5
	c7.5,91.7-26.3,166.9-88.3,231.4c-57.4,59.8-126.2,103.8-199.6,140.8c-137.6,69.4-283.8,113.7-433.7,146.8
	c-174.9,38.6-351.9,62.2-530.8,72.1C2178.7,3573.4,2080.7,3578.6,1982.7,3583.9z M533.5,882.2c-2.3,1-4.7,2.1-7,3.1
	c-0.4,7.8-1.5,15.6-1.2,23.3c2.5,61.9,5.1,123.8,7.9,185.8c10.5,230.1,25.3,460.1,30.4,690.2c4.5,202.1,1.2,404.6-4.1,606.7
	c-5.1,194-16.6,387.8-26.3,581.6c-2.1,41.3,5.9,79,27.4,113.8c33.9,54.8,81.6,95.9,134.1,131.7c83.8,56.9,175.7,98,271.2,129.7
	c251.1,83.3,510.1,125.8,773.6,140.3c137.8,7.6,275.7,8.8,413.8,2.7c233-10.2,463.3-37.4,690.1-93.1
	c142.4-34.9,280.9-80.4,408.6-153.7c36.3-20.8,70.8-45.7,103.1-72.4c62.9-52,95.9-116.7,89.5-202.3
	c-11.3-150.4-17.3-301.1-25.3-451.7c-11.4-212.6-19.3-425.3-13.9-638.1c5-197.5,14.4-394.8,24.1-592.2
	c6.4-129.5,16.8-258.9,25.2-388.3c0.3-5-1.2-10.1-1.9-15.1c-2.3-1.1-4.6-2.2-6.9-3.3c-3.9,5.6-7,12.2-12,16.7
	c-29.4,26.5-57.4,55-89.4,78.1c-64,46.2-137,75.3-210.9,101.7c-222.8,79.4-454.1,118-688.7,138c-109.4,9.3-219.3,13.7-329.1,18.5
	c-160.3,7-320.4-1.8-480.1-13.3c-93.2-6.7-186.2-17-278.9-29c-134.5-17.4-267.3-44.3-398.1-80.6c-86.9-24.1-171.8-53.5-252.5-94.1
	C640,983.5,578.6,943.5,533.5,882.2z M1991.6,1195.5c229.4-4,462.7-14.4,694.4-49.8c158.6-24.2,313.9-61.8,464.3-118
	c77-28.8,151.7-62.6,213.8-117.6c23.2-20.5,42.9-46,60.2-71.9c20.3-30.5,18.8-63.8,1.6-96.6c-22.9-43.5-56.8-76.7-95.1-106.2
	c-63.6-48.9-134.6-84.2-208.9-113.3c-131.1-51.2-266.9-84.6-405.2-109.9C2480.4,369,2242.3,346,2002,347c-234.1,1-467,16.7-698,56.8
	c-137.2,23.8-272.6,54.1-403.7,102.1c-94.9,34.7-186.5,75.8-265.4,140c-26.9,21.9-51,48.1-72.8,75.2c-29.4,36.6-31.1,78.7-5.6,117.6
	c18.3,28,40.7,54.3,65.3,76.9c52.3,48.1,116.2,77.6,181.9,103.1c163.2,63.3,332.9,101.2,505.3,127.5
	C1533.7,1180.5,1760.1,1191.9,1991.6,1195.5z"/>
<path d="M1577.6,2266.1c-1.1,84-64.1,188.1-189,183.1c-95.2-3.8-172.6-89.3-169.1-188c3.5-98.9,84.4-177.5,183.2-173.6
	C1506.2,2091.6,1574.4,2168.6,1577.6,2266.1z M1398.2,2203.3c-2.2,29.3,17.8,55.4,44.1,57.5c31.2,2.4,60.3-22.1,62.7-52.9
	c2.1-26.5-20.2-55.2-45.1-58C1428.9,2146.3,1400.7,2170.9,1398.2,2203.3z"/>
<path d="M2753.5,2263.9c-1.4,108.3-82.9,186.9-191.3,184.5c-91-2-171.3-90-169.3-185.4c2.1-99.9,83.7-178.1,184.2-176.5
	C2672.3,2087.9,2754.6,2170.8,2753.5,2263.9z M2631.2,2148c-32-0.6-55.8,21.7-57.3,53.5c-1.5,32.3,21,57.8,51.7,58.6
	c32.9,0.9,56.8-21.2,57.4-52.8C2683.6,2175.8,2659.7,2148.5,2631.2,2148z"/>
<path d="M1989.1,2564.2c-110-1.1-200.5-76.9-219.4-184.4c-1.7-9.8-1.9-22.6,3.1-30.1c5.6-8.5,17.1-14.9,27.3-17.9
	c12.9-3.8,22.3,4.9,26.8,17c3.7,9.8,6.3,20,8.9,30.1c17.4,68.3,74.3,115.6,144.7,114.5c29.6-0.5,60.3-7.2,88.3-17.4
	c43.4-15.8,70.5-48.4,77.4-95.7c1.2-8.1,3.3-16,5.5-23.9c6.1-22.2,16.6-29.1,37.9-25.4c18.2,3.2,27.4,13.9,25.6,35.3
	c-6.3,73.7-40.7,130.7-105.4,167.5C2072.7,2555,2032.3,2565.8,1989.1,2564.2z"/>
<path d="M2753.3,2653.6c-43.7,3.2-83.3-9-119.9-31.2c-47.2-28.5-56.4-75.7-20.8-118.2c13.6-16.3,32.8-30.8,52.4-38.6
	c65.3-26.2,131.8-25.6,196.9,2.6c13.7,5.9,26.9,14.5,38,24.5c37.7,33.9,35.4,90.7-4.7,121.8c-34.4,26.7-75.2,35.5-117.6,39
	C2769.4,2654.1,2761.2,2653.6,2753.3,2653.6z M2825.4,2491c-1.2-1.4-2.3-3.6-4-4.6c-3-1.8-6.3-3.3-9.6-4
	c-56.2-12-109.5-4.9-158,26.6c-45.8,29.8-44,70,6.2,92.6c67.6,30.4,136.4,27.7,202.5-6.7c25.9-13.5,37.5-34.2,31.1-52.9
	c-8-23.4-24.2-38.7-51-41c-13.6,25.8-26.3,50.7-39.8,75.1c-5.6,10.2-13.2,22.7-27,15.5c-15.9-8.3-5-20.8,0.7-29.7
	C2792.1,2537.8,2809,2514.6,2825.4,2491z"/>
<path d="M1226.8,2446.4c41.2,1.3,79.2,11.3,113.4,33.4c58.8,37.9,58.9,113.3-2.7,144.7c-82,41.8-166.4,42.8-247.5-4.6
	c-42.3-24.7-49.7-67.1-22.5-108.2c17.7-26.8,43.4-42.8,73.4-50.3C1169,2454.2,1198.1,2451.2,1226.8,2446.4z M1246.2,2598.5
	c-18.1-8.7-23.3-19.3-13.3-34.4c12.2-18.3,25.1-36.2,37.7-54.3c4.3-6.3,8.5-12.7,13.7-20.6c-8.9-3.8-15-7.9-21.4-8.8
	c-48.5-6.6-95.4-2.4-138.2,24c-21.1,13-43.4,25.9-40.1,55.7c3.1,27.4,25.7,37.3,47.2,46.3c66,27.5,130.1,15.4,193-11.4
	c7.1-3,13.6-9.2,18.6-15.4c17.2-21.1,11.3-48.9-13.3-66.5c-18.6-13.3-26.8-10.1-45.3,19.1c-7.4,11.8-13.7,24.3-20.7,36.4
	C1258.4,2578.4,1252.4,2588.1,1246.2,2598.5z"/>
<path d="M1836.7,970.3c111.2,0.5,222.2-3.3,331.1-28.3c28.3-6.5,55.9-16.8,82.9-27.5c13.8-5.5,26.9-14.5,38-24.5
	c22.9-20.6,25.9-46.8,3.4-67.4c-21-19.3-46.4-35.4-72.3-47.4c-54.5-25.3-114.3-32.2-172.8-43.3c-69.9-13.2-140.1-25.8-209.2-42.4
	c-27.7-6.7-54.9-20.7-79-36.4c-46.4-30.4-51.6-85-10-121.9c22-19.5,50.3-34.4,78.2-44.4c72.2-25.8,148.6-31.2,224.5-33.5
	c273.9-8.4,543.9,19.6,808.6,92.3c74.8,20.6,144.8,52.7,209.1,96.8c32.5,22.3,57.7,50.5,75.1,86.2c14.7,30,14.1,61.1,9.3,92.6
	c-1.2,7.6-5.6,15.8-11,21.2c-4.2,4.2-13.4,7.3-18.4,5.5c-4.9-1.7-9.2-10.1-10.2-16.1c-1.3-7.8,0.4-16.3,1.8-24.3
	c6.4-37.5-5.2-69.2-30.4-96.5c-31.5-34.1-70.5-57.6-111.8-77.3c-81.8-38.8-168.3-63.7-256.5-81.7c-202.2-41.4-406.9-59.2-613.2-56.7
	c-72.4,0.9-145.2,3.5-215.9,21c-32.6,8.1-65.1,19.2-95.1,34.1c-38.5,19.1-39.9,48.1-4,72.1c21.9,14.7,47.2,27.5,72.7,33
	c75.3,16.2,151.5,28.1,227.2,42.2c62.1,11.5,123.9,24.5,180.3,54.8c12.3,6.6,24.7,13.5,36,21.7c58.7,42.6,61,113.2,2.7,156.3
	c-23,17-50.8,28.7-78,38.6c-65.3,23.6-134.1,32.2-202.9,36.3c-199,12-397.1,2.3-594.6-24.9c-118.3-16.3-235.1-38.6-347.9-78.9
	c-50.8-18.1-99.8-40-143.4-72.4c-26.8-19.9-47.5-44.6-60.4-75.8c-10.7-26-12.2-52.3-3.5-78.7c3.2-9.7,8.2-19.9,15.4-26.9
	c4.7-4.6,16-6.9,21.8-4.5c5,2.1,8.6,12.4,9.1,19.3c0.5,7.8-3,15.9-5,23.8c-8.8,35,0.9,64.5,25.9,89.7
	c34.3,34.7,75.5,58.5,120.3,76.7c102.4,41.8,210.1,64.5,318.6,80.8C1533.1,955.7,1684.4,970,1836.7,970.3z"/>
<path d="M2691.6,2588.1c-6.6-34.1,25-82,60.9-92.6c8.5,25.5-11.9,40.3-22,58.1C2722,2568.8,2713.8,2586.9,2691.6,2588.1z"/>
<path d="M1219.9,2498.6c-15.8,29.5-31.3,58.4-49.7,85.5c-2.8,4.1-12.1,5.9-17.9,5.2c-3.1-0.4-8.4-9.6-7.3-12.8
	c12.3-34,27.4-66.4,64.1-81.3C1210.6,2494.6,1213.1,2496.4,1219.9,2498.6z"/>
</svg>
