<?xml version="1.0" encoding="utf-8"?>
<!-- Generator: Adobe Illustrator 24.3.0, SVG Export Plug-In . SVG Version: 6.00 Build 0)  -->
<svg version="1.1" id="Layer_1" xmlns="http://www.w3.org/2000/svg" xmlns:xlink="http://www.w3.org/1999/xlink" x="0px" y="0px"
	 viewBox="0 0 4000 4000" style="enable-background:new 0 0 4000 4000;" xml:space="preserve">
<path d="M1679.1,3709.8c-211.2-1-414.8-40-608.3-125.3c-160.8-70.9-302.4-169.3-412.2-308.4C557,3147.6,497,3001.9,484.8,2837.3
	c-10.6-143.4,15-278.9,84.8-405.1c68.5-123.8,168.1-215.8,296.1-274.8c61-28.1,126-47.3,189-71c55.2-20.8,112.2-38.3,165-64.2
	c186.3-91.4,302.5-241.4,355.3-440.8c34.5-130.4,34-262.8,16.6-395.5c-12.2-92.5-30-184.5-29.4-278.3
	c1.3-202.6,72.3-377,214.5-521.3c124.9-126.7,277-201.7,452.2-230.9c208.5-34.8,404,2.4,589.4,101.9
	c168.1,90.2,296.2,221.4,398.8,380.2c119.5,184.9,190.3,388.5,231.8,603.2c36.3,187.5,45.6,376.4,34,567
	c-11.9,196.9-47.4,389.3-107.8,576.6c-114.7,355.5-309.4,660.2-591.4,906.3c-218.1,190.3-469.1,318.7-752.6,381.7
	C1931.8,3694.3,1787.9,3710,1679.1,3709.8z M3415.5,1644.5c-4.9-64.4-9.5-167.1-21.1-269c-20.7-182.6-68.3-358.4-146.3-525.3
	c-64.7-138.5-147.3-264.5-257.8-371.1c-148.7-143.6-322.8-236.1-530.3-257c-225.1-22.7-426.2,38.7-596.9,187.7
	c-154.1,134.5-231,306.4-225.8,512c1.5,57.9,10.3,115.6,16.5,173.3c6.5,59.8,16.6,119.3,20.5,179.2c9.9,151-8.4,298.2-67.1,439.2
	c-62.3,149.5-160.9,267.8-300.1,351c-71.6,42.8-150.1,70.4-229.6,94.8c-65.5,20.2-130.7,41.1-191.4,73.3
	c-201.4,106.9-312.4,275.7-330.1,501.5c-11.6,148.7,27.8,288.4,105.9,415.7c92.8,151.3,226.3,257.9,381.7,338.6
	c153,79.4,317.1,121.2,488.1,137.8c165.6,16,329.6,5.5,491.9-29.9c192.9-42,370.9-119.4,534.4-229.2
	c238.3-160,429.5-365.2,573.3-613.4C3323,2422.9,3409.8,2063.6,3415.5,1644.5z"/>
<path d="M3227.5,1534.7c0,22.4,0.5,40.1-0.1,57.7c-1.9,53.6-39.5,94.3-92.2,100.6c-55.2,6.6-107.8-25.5-120.2-76.5
	c-5.6-22.9-6.2-47.2-7.2-70.9c-8.1-192.8-47.5-378.2-130.3-553.3c-38-80.2-85.7-153.9-145.6-219.7c-10.4-11.4-20.3-23.7-28.4-36.8
	c-27.9-45.4-24.8-93.4,7.9-136.6c27-35.8,76-51.5,123.1-38.8c29.3,7.9,50.4,28,69.6,50.2c53.7,62.3,99.5,130.2,138.6,202.4
	c102.2,189.1,154.6,392.8,175.9,605.4C3222.6,1458.7,3224.8,1499.1,3227.5,1534.7z M3195,1550.9c0.4,0,0.8-0.1,1.2-0.1
	c-4.2-49.6-7.4-99.2-12.8-148.7c-18.9-173.2-60.1-340.6-133.2-499.3c-43.2-93.7-97.3-180.6-163.8-259.6
	c-13.2-15.7-28.1-31.4-45.4-41.7c-49.2-29.4-111.6,2.2-121,58.8c-5.3,32.1,9.4,55.3,28.1,78.9c32.9,41.3,66.8,82.2,95.4,126.4
	c66.6,102.5,110.7,215.3,144.1,332.5c32.3,113.3,46.1,229.4,52.5,346.7c1.2,21.7,1.7,43.8,6.4,64.8c7.7,35.2,42.9,57,80.7,53.2
	c38.7-3.9,65.8-31.1,67.6-68.3C3195.6,1579.9,3195,1565.4,3195,1550.9z"/>
<path d="M1422.5,2714.4c77.3,1.1,141.4,64.4,139.6,137.7c-1.9,76.7-69.8,144.6-143.6,143.6c-75.9-1.1-141.7-67.2-140.7-141.6
	C1279,2775.5,1343.4,2713.3,1422.5,2714.4z M1409.3,2799.4c0,24.1,22,46.6,44.8,45.9c22.7-0.7,45.6-24.3,45.2-46.6
	c-0.3-21.5-22.3-41.1-45.9-41C1428.5,2757.7,1409.3,2775.9,1409.3,2799.4z"/>
<path d="M2447.8,2708.5c-1.3,91.6-60.3,137.5-141.6,140.6c-72.6,2.7-135.8-65.5-134.5-138.8c1.4-76.4,63.7-138,139.9-137.2
	C2370.7,2573.7,2448.7,2613.7,2447.8,2708.5z M2388.4,2655.3c0-23-21.3-42.5-45.3-41.7c-22,0.7-39.8,19.9-40.2,43.3
	c-0.4,26.2,14,41.7,39,42C2369,2699.2,2388.4,2681,2388.4,2655.3z"/>
<path d="M687.9,2715.6c4-77,24.9-136.4,58.6-190.8c71.7-115.9,177.1-187,306.9-222.8c19.1-5.3,41.6-4.7,61.2-0.4
	c37.3,8,64.3,42.2,68.6,79.8c4.4,37.9-16.4,78.6-50.7,96c-20.3,10.3-41.9,18-62.6,27.6c-69.6,32.4-126.7,79.5-161.8,148.7
	c-13.4,26.5-19.9,56.5-29.5,84.9c-3.6,10.8-6.4,21.9-10.7,32.4c-14.5,35.8-42.1,52.7-80,53.2c-38.9,0.5-69.3-15.7-84.7-51.6
	C694.1,2751.3,690.9,2727.3,687.9,2715.6z M721.1,2716.4c2.6,10,5.1,28.8,12.6,45.3c11,24,33.4,34.1,58.9,32.6
	c23.9-1.4,39.8-16.2,47.1-39.2c6.5-20.7,12.6-41.6,18.4-62.5c19.5-70.5,59.7-126.6,117.7-170.6c35.1-26.6,74.7-43.9,115.1-60.4
	c14.2-5.8,28.6-12.7,40.6-22c20.7-16,26.7-47.7,16.7-73.8c-8.8-22.9-28.7-36.1-56.2-36c-10.2,0-21.1,0.6-30.6,4
	c-28.2,10-56.7,19.7-83.6,32.7c-78.7,38-146.3,90-194.3,164.5C748.8,2584.9,725.9,2643,721.1,2716.4z"/>
<path d="M1782.9,756.9c4.3-49.1,22.9-98.4,48.8-144.9c61.1-110.1,151.7-185.1,271.9-223.1c41.7-13.2,65.4-5.1,88.2,24.9
	c30.7,40.3,20.6,95.2-23.3,120.9c-19.6,11.5-40.7,20.5-61.2,30.5c-77.3,37.8-129.6,98.3-161.5,177.4c-7.3,18.3-13,37.3-21.2,55.1
	c-16.6,35.7-49.3,50.2-87.4,40.3C1800.9,828.5,1781.2,800.9,1782.9,756.9z M1817.2,755c-0.8,33.3,7.2,46.6,25.9,52
	c20.9,6,40-2.9,50.9-24.7c5.5-11.1,9-23.2,14.5-34.4c16.1-32.4,30.5-66,49.7-96.5C1997,589.5,2055,550,2120.3,520
	c13.1-6,26.6-12.2,38.1-20.7c16.9-12.4,20.1-38.3,9.6-59.6c-10.1-20.4-24.9-26.8-49.3-20.6c-9,2.3-17.8,5.6-26.4,9.1
	c-131.9,53.6-220.8,147.6-265.2,283C1821.7,728,1819.3,745.6,1817.2,755z"/>
<path d="M1830.1,1129c22.9-6.7,30.8,0.7,32.5,17.8c2.4,23.7,6,47.3,8.3,71c16.4,170.9,7.2,339.6-46.5,504.1
	c-51.1,156.6-138.1,289.1-266.4,393.5c-8.8,7.2-18.1,13.9-27.5,20.4c-9.8,6.8-19.9,7.1-27.2-3.3c-6.6-9.4-2.2-17.8,5.8-24.4
	c4.8-4,9.9-7.5,14.9-11.2c116.4-87.9,199.5-200.9,252.2-336.4c64.9-166.8,78.3-340.1,63.3-516.8
	C1836.3,1205.7,1833.2,1167.7,1830.1,1129z"/>
<path d="M1883.6,3020.5c-84.5-0.2-156.4-46.8-182-111.9c-2.6-6.7-5.4-13.6-6.4-20.7c-2-14.5,6.3-26.6,19.6-31.5
	c13.3-4.8,22.2,1.6,28.9,11.7c5.6,8.6,10.3,18,14.6,27.3c39.6,85.7,156.8,89.8,216.5,30.1c19.1-19.1,28.1-43.1,30.9-69.6
	c1-9.2,1.9-18.5,3.5-27.7c1.9-11.1,7.5-19.2,19.9-20.4c12.8-1.3,23.2,3.7,28.2,14.9c3.7,8.1,5.3,18,4.9,27
	c-2.4,62.7-30.6,110.9-84.4,143.1C1946.1,3011.9,1910.6,3019.2,1883.6,3020.5z"/>
<path d="M3106.7,2017.9c-71-0.2-124.9-52.9-125.2-122.4c-0.2-71.7,57.6-131.2,126.2-129.9c68.9,1.3,124.9,59.7,123.9,129.1
	C3230.7,1965.2,3177,2018.1,3106.7,2017.9z M3196.5,1891.7c-0.3-51-40.5-92-90.4-92c-48.8,0-90.6,42.4-90.7,92.1
	c0,51.6,39.5,94.4,87.7,94.8C3156.8,1987.1,3196.8,1946.4,3196.5,1891.7z"/>
<path d="M2462.9,2991.9c-25-5.2-50.3-7.4-73.2-15.9c-46.4-17.2-55.7-64.8-20.5-99.7c53.6-53.2,117.5-66.7,189.2-45.6
	c10.7,3.2,21.1,9,30.4,15.3c27.4,18.5,34.7,50.1,17.9,79.1c-14.6,25.3-36.8,42.8-64.6,50.7C2516.3,2983,2489.6,2986.6,2462.9,2991.9
	z M2462.7,2965.2c45.8-3.1,81.1-14,110.6-38.7c26.2-22,22.5-50.8-7.4-64.8c-40.1-18.9-81.8-22-123.6-6.8
	c-23.7,8.6-44.1,23.3-58.7,44.3c-15.7,22.6-11.5,39.1,14.3,48.4C2421,2956,2445.5,2960.6,2462.7,2965.2z"/>
<path d="M1297.6,3181.6c-22.9-5.5-46.8-8.5-68.4-17.2c-36-14.5-47-51.1-28.2-84.8c12.5-22.5,31.1-39.2,54.7-49
	c46.4-19.2,94.3-23.6,142.8-8.9c25.7,7.8,48.6,21.4,53.4,50.7c4.8,29.8-10.5,52.4-33.4,69.2
	C1383,3167.7,1342.3,3178.1,1297.6,3181.6z M1383.8,3045.7c0,0,0.9,0.7,0.9,0.7c-12.1-4.4-24.1-12.3-36.4-12.6
	c-37-1-71.3,10-101.4,31.8c-21.7,15.6-31.2,37.4-24.9,55.6c7.8,22.3,28.2,26.2,47.5,28.5c37.5,4.5,74.4,0.1,108.9-16.1
	c12.9-6.1,25.7-13.9,35.9-23.7c21.4-20.4,18-44.1-7.4-58.4C1400.3,3047.8,1391.6,3047.6,1383.8,3045.7z"/>
<path d="M1841.6,987.7c-0.1,24.9-9.4,34.6-25,29.8c-14-4.3-14.4-17.4-14.3-28c0-9.3,2.7-21.9,9-27c8.5-6.9,20.2-2,25.7,8.6
	C1840.2,977.3,1840.9,984.8,1841.6,987.7z"/>
<path d="M2434.5,2938.3c-8.3-35.2,4.8-60,37.5-72.9C2472.3,2898,2451,2916.8,2434.5,2938.3z"/>
<path d="M2500.7,2941.7c-12.2-31.3,0.9-56.1,39.1-77.4C2531.4,2893.9,2523.2,2918.7,2500.7,2941.7z"/>
<path d="M1276.7,3134.5c-11.8-32.8,4-64.7,37.1-79.7C1315.6,3081.8,1299,3118.8,1276.7,3134.5z"/>
<path d="M1383.8,3045.7c-12.6,26-13.6,57.5-36,79.9c-14.4-8.3-11.6-19.9-6.9-29.7c9.8-20.4,13.7-46.8,43.8-49.4
	C1384.7,3046.4,1383.8,3045.7,1383.8,3045.7z"/>
</svg>
