<?xml version="1.0" encoding="utf-8"?>
<!-- Generator: Adobe Illustrator 24.3.0, SVG Export Plug-In . SVG Version: 6.00 Build 0)  -->
<svg version="1.1" id="Layer_1" xmlns="http://www.w3.org/2000/svg" xmlns:xlink="http://www.w3.org/1999/xlink" x="0px" y="0px"
	 viewBox="0 0 4000 4000" style="enable-background:new 0 0 4000 4000;" xml:space="preserve">
<path d="M170.3,1567c0.6-276.9,71.3-576.8,230.4-853.7c101.7-177,233.7-326.5,406.5-437.2c186-119.1,389.1-170.5,608.1-135.8
	c269.5,42.7,492.1,233.6,556.3,521.9c20.6,92.5,20.4,186.5,22.5,280.5c1.6,70.7,1.6,142.4,13.8,211.6
	c39.5,225.1,164.2,393.5,357,513c152.8,94.7,319.7,123,496.7,106.8c106.6-9.8,213.3-13,319.4,8.6c304.6,61.9,538,296,598.8,601.1
	c30.8,154.3,14.6,304.7-35,453c-70,209.3-199.5,376.1-367.1,515.6c-213.9,178-460.8,283.7-732.9,335.1
	c-204.6,38.7-409.8,41.9-615.3,12.8c-259-36.7-502.3-121.4-730.8-248.6c-253.8-141.4-474.4-323.1-659.1-547.3
	c-213.5-259.1-354.8-553.8-426.1-881.9C183.9,1885.8,172,1747.4,170.3,1567z M2314.5,3611.8c207.4,1.8,433.9-38.8,649.7-133
	c218.8-95.5,407.9-230.5,549.1-425.7c108.9-150.6,174.5-317.1,176.2-505.9c2.8-309.4-187.9-564.1-485.9-647.4
	c-106.2-29.7-214.2-26.5-322.3-18.6c-108.5,7.9-216.3,7.2-322.4-20.2c-286.8-74.1-492.2-244.8-607.9-518.8
	c-45.6-107.9-65.2-221.8-65.9-339.2c-0.5-82.4-0.2-165-6.8-247c-11.9-149-74-276.7-187.7-373.5
	c-141.9-120.9-309.8-165.1-493.9-140.8c-150.3,19.8-282.8,83.6-402.5,175.5C644.1,532.5,533.7,679.9,448.9,847.5
	c-97.8,193.2-154.4,398.4-169,614.2c-11.2,166.3-5.7,332.3,26.5,496.4c53.4,271.6,159.8,520.7,318.2,748
	c185.8,266.7,421.2,479.5,701.9,640.7C1623.3,3517.2,1942.4,3612.6,2314.5,3611.8z"/>
<path d="M449,1627.2c2.5-235,43.7-462.8,130.1-681.8c7-17.8,15.4-35.6,26-51.4c12.3-18.3,31.5-21,51.2-10.9
	c17.7,9.1,25.4,24.7,19.3,45.1c-5.1,17.2-12.4,33.8-19.9,50.2c-62.3,135.9-95.7,279.6-114,427c-26.5,213.1-10.9,423.7,40.9,631.8
	c1.6,6.2,3.8,12.4,4.6,18.7c2.5,21.1-6.1,34.8-25.6,42c-20.6,7.6-40.3,2.3-48.7-17.9c-10.2-24.8-18.1-51-23.7-77.2
	C462.5,1879,449.1,1753.8,449,1627.2z"/>
<path d="M2513.9,2232.1c-0.4,92.3-70,160.1-162.8,158.7c-83.3-1.3-145.6-65.8-143.9-149.3c1.8-89.1,70.5-160.1,155-160.2
	C2449,2081.2,2514.3,2146,2513.9,2232.1z M2389.4,2171.5c0.2-23.6-17.6-43.5-39.1-43.5c-24.6,0-46.1,22.4-45.5,47.3
	c0.6,22.9,16.3,40.3,37.1,40.8C2367.8,2216.9,2389.1,2196.8,2389.4,2171.5z"/>
<path d="M1508,1739.2c-81.5-0.4-146.8-66.4-146.1-147.6c0.8-87.1,71.3-159.9,154.8-159.9c87.5,0,153.5,63.8,154.1,148.8
	C1671.4,1670.7,1600.8,1739.6,1508,1739.2z M1507.3,1561c24.6-0.8,44.8-21,44.2-44.3c-0.7-24.8-20.7-43.1-45.3-41.6
	c-28.2,1.8-45.9,18.9-44.3,42.8C1463.6,1542.2,1484.2,1561.7,1507.3,1561z"/>
<path d="M1785.3,851.4c-2.6,42.1-9,55.3-35.2,63.6c-24.7,7.8-44.3-1.4-50.4-26.9c-4.5-18.6-4.9-38.2-6.5-57.4
	c-8-95.7-34.2-184.7-96.5-260.1c-36.2-43.9-81.9-74-135.9-91.7c-14.7-4.8-29.4-9.4-44-14.5c-31-10.8-40.8-24.9-34.8-50
	c6.2-26.1,19.1-34.1,53.4-29.2c50.6,7.3,95.5,30,138.7,56c89.5,54,144.7,134.8,173.1,233.2C1763.8,732.3,1772.9,792.4,1785.3,851.4z
	"/>
<path d="M3449,2913.1c-4.8,13.2-6.6,22.3-11.2,29.8c-81.3,134.7-186.8,245.1-325.5,321.6c-28.6,15.8-48.8,5.5-58.6-25.5
	c-4.8-15.1-3.2-28.2,9.7-38.1c10.2-7.8,20.9-15,31.7-21.9c105.7-67.7,191.7-155,260.5-259.6c7-10.7,14.3-21.5,22.8-30.9
	c11.1-12.2,26.6-12.2,39.1-4.6C3429.8,2891.5,3439.1,2903.7,3449,2913.1z"/>
<path d="M1867,2176.3c-127.2-5.5-194.7-114.2-169.1-212.4c6.7-25.6,18.7-50.5,32.3-73.4c10.5-17.7,30.9-19,47.4-8.3
	c15.8,10.2,19.5,23.7,10.7,43.6c-4.6,10.6-11.4,20.2-16.1,30.8c-17.9,41-10.3,85.4,19,114.5c32.5,32.2,81,42.9,121.1,23.8
	c18.3-8.7,34.1-22.6,51.1-34c21.3-14.2,33.7-13.8,47.8,1.4c14.1,15.1,13.7,27.9-1.5,48.1C1981.9,2147.3,1920.5,2175.7,1867,2176.3z"
	/>
<path d="M588.1,2309.4c-1.3-27.5,11.5-37.9,27.4-44.6c17.1-7.1,33.8-5.1,43,12.9c13.4,26.1,25,53.1,37.5,79.7
	c6.5,13.9,14,27.4,19.8,41.5c9.4,23.2,4.9,37.3-14.5,49.4c-17.1,10.7-36.5,7.7-50.1-11.9c-14.5-20.9-26.3-43.8-37.5-66.7
	C603.1,2348,594.7,2325.2,588.1,2309.4z"/>
<path d="M2826.6,3401.3c-23.8,0-36.7-10.5-42.9-31.2c-5.5-18.3-0.9-33.7,17.8-41.2c40.2-16.3,81.1-31.4,122.5-44.2
	c22.3-6.9,40.4,5.4,48.8,26.6c8,20.2-3.6,32.2-18.6,40.9C2913,3376.2,2868.9,3392.9,2826.6,3401.3z"/>
<path d="M1780.6,1129.3c0,12.9,0.9,27.1-0.2,41.1c-1.9,23.7-10.7,32.7-32.5,35.7c-22.5,3-37.9-2.7-40.9-24.6
	c-5.2-37.7-6.3-76.2-5-114.3c0.6-18.3,20.1-27.5,41.1-26.1c18.8,1.3,32.3,9.9,34.5,29.5C1779.8,1089.6,1779.7,1108.9,1780.6,1129.3z
	"/>
<path d="M3457.7,2756c9-20.8,16.9-42.1,27.2-62.2c7.6-14.9,20.7-21.7,38.5-15.9c19.7,6.4,34.2,20.6,29.4,38.7
	c-6.4,24-17.4,47.4-30,69c-7.6,13.1-23.7,13.7-38,7.6C3469.4,2786.5,3459.9,2775.6,3457.7,2756z"/>
</svg>
