<?xml version="1.0" encoding="utf-8"?>
<!-- Generator: Adobe Illustrator 24.3.0, SVG Export Plug-In . SVG Version: 6.00 Build 0)  -->
<svg version="1.1" id="Layer_1" xmlns="http://www.w3.org/2000/svg" xmlns:xlink="http://www.w3.org/1999/xlink" x="0px" y="0px"
	 viewBox="0 0 4000 4000" style="enable-background:new 0 0 4000 4000;" xml:space="preserve">
<path d="M2244.6,1126.1c50.2,8.5,95.8,15.8,141.2,24.1c134,24.5,266.2,55.8,389.5,115.3c42.3,20.4,82.5,46.4,121.1,73.4
	c39.2,27.4,63.4,66.5,74,113.9c21,93.3,42.3,186.6,64.7,279.6c4.5,18.5-1.1,30.7-12.8,43.3c-36.2,38.9-79.3,68.6-126.1,92.5
	c-22.9,11.7-34.1,25.9-37.5,52.1c-28,213.7-57.6,427.1-86.5,640.7c-27.3,201.6-54.4,403.2-81.3,604.8
	c-19.5,146.7-40.4,293.3-56.8,440.4c-7.2,64.5-38.9,108-91.2,141c-81.4,51.3-171.8,79.1-264.6,98.8
	c-182.5,38.9-367.3,45.5-553.1,32.9c-105.8-7.2-210.1-22.8-312.5-50.6c-83.1-22.5-163.3-51.8-231.2-107.2
	c-14-11.4-28.3-23.5-38.4-38.1c-9.9-14.4-18.9-31.9-21.1-48.9c-21.5-169.8-41.2-339.9-62.1-509.8c-18.7-151.9-38.3-303.7-57.3-455.6
	c-20.9-166.9-41.1-333.8-62.5-500.6c-10.2-79.9-25.3-159.3-32.2-239.4c-3.4-38.9-18.3-59.4-51.4-78.2
	c-36.2-20.7-66.7-51.4-99.4-78.1c-14.8-12-17.6-26.8-13.1-45.9c21.7-91,42.1-182.3,62.6-273.6c8.6-38.3,25.8-71.5,53.8-99.4
	c46.6-46.5,103.6-76,163.2-101.5c116.4-49.8,238.5-79.9,362.9-100.7c180.2-30.1,362-42.3,544.7-40.4c17.2,0.2,25.3-4.6,30.3-21
	c59.1-194.5,118.7-388.9,178.1-583.3c7.4-24.1,13.9-48.4,21.7-72.3c14.4-44.2,36-83.2,65.9-120.4c26.7-33.3,54.7-58.5,92.8-77.3
	c29.1-14.4,55.6-32,89.8-29.4c3.9,0.3,8.1-0.5,11.9-1.7c83.6-27,171.3-34.4,256.5-54.1c84.3-19.5,169.5-35.4,254.1-53.7
	c47.2-10.2,94.3-21.3,140.9-33.8c25.4-6.8,45.7-1.6,62.8,17.3c8.1,8.9,16.9,17.9,22.3,28.4c29.2,56.6,38,116.1,23.1,178.7
	c-6.4,26.8-23.4,39.6-50.1,45.1c-166.6,34-333.1,68.8-499.5,103.7c-35.4,7.5-70.6,16.2-105.6,25.6c-55.3,14.8-92.6,46.5-110,104.4
	c-52.8,175.4-108.7,349.9-163.3,524.9C2250,1102.2,2247.9,1112.9,2244.6,1126.1z M2750.2,2398.2c-12.5,4.1-21.2,5.9-28.9,9.8
	c-76.2,38.2-157.6,60.7-240.3,79.2c-153,34.2-308.7,46-464.7,51.6c-225.9,8.2-451.3,1.1-674.4-40.2
	c-110.2-20.4-218.8-46.2-316-105.9c-2.3-1.4-5.6-1.2-10.2-2.1c0,8.5-0.8,16.2,0.1,23.7c24.9,198.9,50.1,397.7,74.9,596.6
	c24.9,199.9,49.7,399.8,73.6,599.9c3.9,32.4,17.7,56.3,43.3,75.9c47.8,36.5,101,62.2,157.5,81.7c115.1,39.9,234.7,56.4,355.4,66.1
	c123.8,10,247.6,7,371.2-5.7c101.4-10.5,201.4-27.7,298.1-60.9c56.3-19.4,111.2-41.6,158.8-79.1c20.9-16.4,34-36.1,37.4-62.9
	c5.3-41.9,12.3-83.7,17.9-125.6c13.3-98.8,26.2-197.6,39.4-296.4c19.1-142.7,38.4-285.4,57.3-428.1
	c14.7-110.8,28.8-221.6,43.2-332.5C2745.5,2429.5,2747.6,2415.9,2750.2,2398.2z M2945.1,1565.9c-5.7,4.3-12,7.5-16.3,12.5
	c-27,30.6-59.5,54-94.3,74.8c-87.4,52.3-182.6,84.2-280.8,107.9c-189.6,45.8-382.1,69-577.1,72.8c-234.4,4.5-467-10.6-696.6-60.9
	c-84.7-18.6-168.7-39.7-248.3-74.7c-71.3-31.4-139.1-68.6-191.4-128.6c-0.9-1.1-3.8-0.5-6.4-0.7c-1.8,3.3-4.4,6.5-5.4,10.2
	c-12.3,46.7-24.1,93.6-36.8,140.2c-4.5,16.6,2.2,27.4,14.6,36.1c37.8,26.6,74.2,55.7,114,78.9c96.7,56.1,203,88.1,310.9,113.4
	c219.6,51.6,443,72.5,668.2,71.7c151.2-0.5,301.8-10.3,451.5-33.7c140.6-22,278.6-53.5,411.8-104.1
	c72.8-27.7,141.2-63.7,202.4-112.7c15.8-12.7,23.9-26.4,19.3-46.6c-11.1-49.1-22.1-98.2-33.3-147.2
	C2950.5,1572.3,2947.9,1570,2945.1,1565.9z M1911.7,1243.6c-8.9-0.9-14.7-2.1-20.6-2c-151.2,2.7-301.9,9.9-450.9,39
	c-82.3,16.1-163.7,34.6-239.9,70.3c-30.8,14.4-60.5,32.5-87.5,53c-35.6,27-37.1,60.1-8,94c8.5,9.8,18.1,19.5,29.1,26.1
	c25.9,15.4,52,30.9,79.6,42.8c69.7,30,143.3,47.4,217.7,61c105.2,19.2,211.5,28.8,318.3,33.4c218.2,9.3,435-0.9,649.4-45.8
	c74.1-15.5,147.2-35.1,213.4-72.9c23.2-13.3,45-30.8,63.4-50.3c22.2-23.7,21-48.2,1.2-73.8c-7.9-10.2-16.9-20.6-27.5-27.6
	c-20.9-13.9-42.4-27.7-65.3-37.6c-115.5-50-237-77.2-361.3-93.4c-14.2-1.8-23,1.9-27,16.6c-8.3,31-17.4,61.7-26,91.8
	c18.3,11.9,36.8,20.9,51.3,34.1c30.4,27.7,28.3,66.8-5.2,90.4c-16.9,12-36.9,21.3-56.9,26.9c-135.7,38.3-272.1,42.6-408.3,2.8
	c-21.9-6.4-43.6-16.6-62.6-29.3c-34.2-22.7-37.2-65.2-6.9-93.2c12.2-11.3,27.9-19.9,43.4-26.3c41.4-17.1,85.4-22.6,129.8-25.8
	c9.2-0.7,23.5-3.4,26.3-9.4C1894.3,1308.8,1905.6,1277.8,1911.7,1243.6z M1937.8,1160.6c-4.6-1.2-7.5-2.4-10.4-2.5
	c-9-0.5-18.1-0.8-27.2-0.7c-163.3,2.2-326.2,9-487.6,36c-102.4,17.1-203.5,40.3-301.7,74.2c-60.9,21-121.3,44.6-173.5,83.6
	c-21.7,16.2-42.9,33.8-61,53.7c-37.7,41.5-38.3,87.6-3.5,131.3c10.6,13.3,23.1,25.3,36.1,36.3c48.2,40.9,103.8,68.9,162.5,91.2
	c105.8,40.3,214.9,67.7,326.7,84.9c146.5,22.6,293.8,36.2,442.1,38.7c206,3.4,410.7-10.3,612.9-51.3
	c104.7-21.3,207.5-49.9,304.6-95.6c46.5-21.9,93.4-44.8,128.6-83.3c59.8-65.4,53.3-111.5,1-166.1c-39.8-41.5-89.2-68.6-141.2-91.2
	c-157.6-68.3-324.6-99.9-493.1-125.1c-26.5-4-31.1,1.6-32.9,32.8c5.4,1.6,11,3.7,16.8,5c6.8,1.6,13.8,2.9,20.7,4
	c109.6,17.3,217.5,41.1,320.4,83.6c47.7,19.7,93.3,43.3,127.9,83.3c38.5,44.5,39.8,93.3,4.5,140.5c-22.4,29.9-52.1,51-85.5,65.4
	c-43.3,18.7-87.2,37.2-132.6,49.9c-178.6,50-361.9,67.5-546.5,71.7c-181.7,4.1-362.4-8.9-541.3-41.7
	c-86.5-15.8-170.9-38.3-250.2-77.4c-41.2-20.3-78.1-45.7-101.4-87.2c-19-33.9-20.1-68.2,1.5-99.9c13.9-20.5,31.3-39.7,50.7-55
	c49-38.5,106.8-60.3,165.7-78.2c150.3-45.6,305-64.8,461.1-73.5c59.3-3.3,118.8-3.8,178.2-5.9
	C1932.8,1191.4,1934,1189.7,1937.8,1160.6z M2186,507.5c-101.2,328.5-203.1,659.4-305.1,990.7c45.9,8.9,157-1,189-7.2
	c12.4-2.4,20-8.7,23.7-20.2c4.7-14.4,9.1-28.8,13.4-43.3c31-103.1,61.6-206.4,92.9-309.4c50.9-167.5,102.4-334.9,153.4-502.5
	c4-13,6-26.6,8.1-36.1C2301.1,554.7,2244.7,531.5,2186,507.5z M2738.4,2343.6c0.2-3.2,0.3-6.4,0.5-9.6
	c-11.1-7.8-21.7-16.6-33.5-23.4c-70.7-40.6-148.6-61-227.4-77.9c-132-28.3-265.7-44.7-400.4-52.7c-31.7-1.9-63.6-0.3-96.6-0.3
	c-29.6,104.7-58.8,207.9-87.8,310.5c5.1,2.4,6.9,3.8,8.7,3.9c7,0.4,14.1,0.4,21.1,0.4c180.4-1.3,359.7-15.6,536.8-51.2
	c79-15.9,156.3-38,229.6-72.1C2706.4,2363.4,2722.1,2352.9,2738.4,2343.6z M2764,2286.3c17.7-124.6,35.3-248.1,53.6-377
	c-261.9,105-530.8,142-806.2,154.4c-5.4,21.6-10.4,41.5-15.9,63.5c12.1,1.2,20,2.3,27.8,2.7c158.9,8.1,316.8,24.7,472.3,59.9
	c89.4,20.2,177.6,44.4,256.5,93.7C2754.4,2284.9,2757.6,2284.8,2764,2286.3z M1721.5,2061.1c-265.4-13.5-520.8-57-771-155.8
	c17.7,131.6,34.4,256.4,51.5,383.6c8-3.2,12-4,15-6.2c40.6-29.1,86.6-47,133.4-62.6c123.9-41.3,252.6-58.6,381.7-72.4
	c49-5.2,98.3-8.4,147.4-12.6c10.9-0.9,23.8,0.1,27.7-13.4C1712.7,2102.6,1716.4,2083.1,1721.5,2061.1z M1688.3,2185.5
	c-25.2,0-46.4-1.8-67.1,0.3c-67,7-134.3,12.7-200.6,24c-77.2,13-154,29-229.9,48.3c-41.5,10.6-80.9,29.9-120.5,46.9
	c-14,6-26,16.7-43.4,28.2c17.8,12.6,30.1,22.7,43.7,30.6c57,33.3,119.3,52.8,182.9,68.5c107.6,26.5,217.2,40.8,327.3,51.7
	c22.4,2.2,24.5,0.9,31.1-22.6c18.6-65.8,36.8-131.6,55.1-197.4C1673.9,2238.9,1680.6,2213.8,1688.3,2185.5z M3056.1,116.4
	c-182.1,38.8-358.6,76.3-537,114.3c11.2,61,31.2,116.4,50.2,174.4c11.4-1.9,21.1-3,30.7-5.1c152.5-32.5,304.9-65,457.3-97.7
	c10.3-2.2,20.2-6.2,33.2-10.2C3062.7,235.4,3051.8,178.8,3056.1,116.4z M1647,2489.1c13.9,1.1,23.7,2.3,33.6,2.6
	c44.3,1.4,88.6,2.6,132.8,3.7c36.2,1,36.2,0.9,44.8-35.3c1.6-6.8,3.3-13.7,5.1-20.5c31.5-116.5,63.1-233,94.6-349.5
	c2-7.4,2.7-15.1,4.3-24.3c-10.5-0.9-18.4-2.1-26.3-2.1c-47.3-0.3-94.6-0.3-142-0.5c-27.5-0.1-27.3,0-34.7,26.5
	c-21.2,75.6-42.5,151.1-63.8,226.7C1679.7,2372.4,1664,2428.4,1647,2489.1z M1867.5,1392.8c-69.6-4.7-149.2,22.8-166.2,57.2
	c40,28.1,84.6,40.9,133.6,45C1846.2,1459.7,1856.5,1427.4,1867.5,1392.8z M2417.1,250.8c9.5,21.1,17.3,38.5,25.2,55.7
	c14.3,31,28.2,62.3,43.4,92.9c10.4,21,13.9,21.6,37.5,12.5c-17-58.1-33.9-116.3-51.2-175.4C2454.1,241.2,2436.8,245.7,2417.1,250.8z
	 M2371.1,529.4c1.2-3,2.5-5.9,3.7-8.9c-25.3-19.3-50.9-38.3-75.9-58.1c-24.8-19.5-49-39.7-76.9-62.5c-5.3,14.8-9.1,24.8-12.4,35.1
	c-8.3,25.7-8.3,27.5,16.9,39c35.6,16.4,71.7,31.9,108,46.6C2345.9,525.3,2358.8,526.5,2371.1,529.4z M2441.5,442.1
	c2.6-1.6,5.2-3.2,7.9-4.8c-25.3-58.2-50.6-116.3-77.4-177.9c-16,10-31.4,19.6-49.6,31C2366.1,341.9,2399.9,395.1,2441.5,442.1z
	 M2392.5,469.6c1.5-1.4,3-2.9,4.6-4.3c-35.3-49.9-74-97.2-111.9-148.5c-12.7,19-23,34.4-33.7,50.4
	C2299.3,401.8,2345.9,435.7,2392.5,469.6z M3110.5,116.4c-5.9,9.9-9.4,13.2-9.6,16.6c-2,44.8,8.5,87.2,25.7,128.1
	c1.1,2.7,8,3,16,5.8C3143.5,214,3140.9,165.8,3110.5,116.4z M2142.3,1480.8c24-8.6,44.5-12.8,53.9-34.3c-16-19.4-16-19.4-37.7-23.6
	C2145.6,1438,2144,1456.4,2142.3,1480.8z"/>
<path d="M1393.9,2924.9c1.3-62.8,49.6-107.7,114.3-106.5c58.8,1.1,107.2,53.2,104.5,113.8c-3.3,73.3-56.1,109.4-116,109.4
	C1441,3041.7,1392.6,2985,1393.9,2924.9z M1563.3,2886.6c0.8-19.8-13.3-35.1-32.9-35.7c-20.4-0.6-34.7,12.6-35.6,32.9
	c-1,22.1,9.1,34.4,28.2,34.6C1546.5,2918.6,1562.6,2905.9,1563.3,2886.6z"/>
<path d="M2225.6,2816.8c58,0.3,105.6,49.7,105.9,109.8c0.3,62.1-49.9,114.8-108.9,114.2c-60.1-0.6-109.3-52.1-108.8-114.1
	C2114.3,2863.6,2162.3,2816.4,2225.6,2816.8z M2284.2,2885.3c0.8-19.4-13.7-34.5-33.2-34.8c-20-0.3-35.1,13.5-35.6,32.7
	c-0.5,18.8,12.7,34.6,29.5,35.3C2265.4,2919.4,2283.5,2904.1,2284.2,2885.3z"/>
<path d="M1870.3,3140.9c-81.7,0.1-133.1-54.6-143.7-130.9c-0.7-4.9-0.6-10.1-0.4-15.1c0.5-11.6,5.8-19.1,18.2-19.7
	c11.4-0.5,15.6,7.3,18.2,16.6c4,14.5,6.6,29.6,12.2,43.4c18.3,45.2,56.5,67.4,105.5,62.8c45.6-4.3,78.8-34.7,88.7-81.2
	c1.7-7.9,3.7-15.7,5-23.6c1.8-11.4,6.6-18.9,19.6-17.6c13.9,1.5,18.9,10.1,18.1,22.9c-3,48.7-20.6,90-61.7,118.8
	C1926.8,3133.6,1900.7,3140.9,1870.3,3140.9z"/>
<path d="M2291.1,3167.5c-22.8-6.7-46.7-11-68.2-20.5c-36.4-16.1-39.4-50.4-6-71.9c46.6-29.9,96.6-31.6,146.1-7.5
	c34.4,16.7,36,55.6,3.9,77.1C2344.6,3159.7,2319,3164.5,2291.1,3167.5z M2292.4,3143.3c18.8-5,39-7.6,56.5-15.7
	c22.8-10.6,22.2-26.7,1-39.8c-29.1-18.1-90.4-16.2-118.1,3.6c-19.4,13.9-18.8,27.7,4,37C2253.1,3135.4,2272.1,3138.2,2292.4,3143.3z
	"/>
<path d="M1439.4,3166.5c-21.9-6.9-45.9-11.5-67.1-21.8c-30.5-14.8-32.6-43.5-6.8-65.5c34.7-29.6,75.8-28.2,117.4-22
	c8.8,1.3,17.1,5.7,25.7,8.6c19.2,6.5,30,20,31.3,40c1.3,20.7-10.4,35.7-28.2,42.2C1489.4,3156.1,1465.5,3160,1439.4,3166.5z
	 M1446.3,3075.7c-18.6,3.8-37.8,5.7-55.3,12.2c-7.1,2.6-13.2,14.5-14.9,23.2c-0.9,4.8,7.1,14.7,13.1,17c37,13.7,74.7,14,111.3-1.2
	c6.8-2.8,14.8-13.2,14.5-19.7c-0.3-6.9-8.6-16.9-15.6-19.3C1482.8,3081.9,1464.8,3079.6,1446.3,3075.7z"/>
</svg>
