<?xml version="1.0" encoding="utf-8"?>
<!-- Generator: Adobe Illustrator 24.3.0, SVG Export Plug-In . SVG Version: 6.00 Build 0)  -->
<svg version="1.1" id="Layer_1" xmlns="http://www.w3.org/2000/svg" xmlns:xlink="http://www.w3.org/1999/xlink" x="0px" y="0px"
	 viewBox="0 0 4000 4000" style="enable-background:new 0 0 4000 4000;" xml:space="preserve">
<path d="M882.2,2136.4c-168.5-77.1-269.7-204.2-284.5-388.6c-14.8-184.2,65.2-323.9,222.7-423.8c-2.2-6.6-4.8-14.5-7.5-22.4
	c-96.5-283,49.3-592.8,354.1-668.3c77.6-19.2,155.9-18.5,233.5,2.8c3.2,0.9,6.5,1.6,11.4,2.8c1.8-5.3,4.1-9.7,4.9-14.4
	c43.1-244.3,188.6-399.1,421.4-471.5c167.2-52,328.6-28.8,479.1,61.3c60.8,36.4,109.9,86.2,151.8,146.5c12.5-1.4,26.1-2.7,39.7-4.4
	c84.7-10.5,167.6-4.2,247,29.1c149.4,62.7,237.1,177.1,275.3,331.9c16.2,65.7,15.6,131.9,1.6,198.1c-1.7,8.2-2.2,16.6-3.3,25.6
	c43.1,14.6,82.2,32,119,55.3c177.3,112.4,270.4,363.1,155.3,585.2c-11.1,21.4-24.6,41.6-38.3,61.5c-7.7,11.2-9.5,19.2-1.3,32.2
	c118.4,186.9,89.9,478.4-139.9,619.4c-46,28.2-96.4,47-149.5,56.9c-14.8,2.8-19.3,8.3-20.7,23.3
	c-20.5,205.9-164.2,379.6-379.7,411.9c-122.1,18.3-235.4-10-338.4-78c-10-6.6-18.6-15.2-28.9-23.6c-5.2,3.8-10.1,6.9-14.5,10.8
	c-16.2,14.3-31.5,29.7-48.5,42.9c-12.7,9.9-18.5,20.4-18.5,37c0,205.9-0.8,411.8-1.3,617.6c-0.2,62.3,0.4,124.6-0.3,186.8
	c-0.2,17.1-0.9,35-5.9,51.2c-26.6,87-117,106.4-177.8,84.1c-59.4-21.8-91.6-66.5-92.1-130.6c-0.9-107.3-0.4-214.5-0.4-321.8
	c0.1-141,0.3-282,0.4-423c0-7.6-0.8-15.2-1.2-23.6c-121.4-22.2-216.2-82.3-280.6-190.5c-13.5,7.5-25.2,14.4-37.2,20.7
	c-168.7,87.9-336,88-492.1-23.8c-141.6-101.4-195.6-245.5-171.7-418.2c1.5-11.1,3.6-22.2,6.2-33.1
	C874.3,2160.7,878.1,2150.1,882.2,2136.4z M864.8,1386.4c-5.2,0-6.2-0.2-6.9,0c-1.6,0.5-3.3,1.1-4.8,2
	c-118.9,69.7-184.1,172.8-188.9,311c-3.2,92.3,26.8,175.5,82.2,248.9c42,55.8,97.1,95.5,161.4,122.3c19.9,8.3,21.8,7.4,35.1-8.9
	c6-7.4,11.5-15.2,18-22.1c13.1-14,23.4-16.4,33.6-8.7c10.4,7.8,10.1,18-0.9,34.1c-8.7,12.9-18.6,25.2-25.6,38.9
	c-26,51.7-41,106.2-40.4,164.6c1.3,129.6,53.4,233.4,160.8,305.9c141.5,95.5,327.8,74.2,452.8-18.8c11.7-8.7,16.9-17.4,14.2-32.6
	c-4.1-22.9,2.9-34.1,18.5-35.8c14.8-1.7,20.6,4.7,25.5,28.6c8.9,43.3,27.8,81.9,56.1,115.5c76.5,90.7,173.3,132,292,116.5
	c82.3-10.7,150.2-49.1,205.4-110.7c8.4-9.3,8.8-17.4,1.6-27.7c-9.4-13.4-18.3-27.3-26-41.7c-6-11.4-10.9-23.6-14.5-36
	c-4.1-14.1,0.6-24.3,11.2-28.2c11.5-4.3,20.2-0.2,26.6,9.8c4.2,6.6,7.8,13.5,12.3,19.8c11.8,17,22.2,35.4,36.3,50.3
	c96.6,102,215,148.6,355.1,132.2c92.5-10.8,171.7-51.2,234-121.8c72.4-82.1,102.8-178.6,95.9-287.3c-5.3-83.4-34.7-156.3-94.8-215.7
	c-3.7-3.6-7.4-7.3-10.7-11.3c-8-9.5-6.5-19.5,0.6-28.4c7.5-9.4,17.1-7.4,25.4-1.4c9.1,6.5,17.8,13.8,25.6,21.8
	c41.8,42.8,70.7,93.6,90.1,149.9c7.2,21.1,12.8,42.7,19.9,66.8c133-27.6,235.5-93.3,291.6-220.4c51.1-115.7,31.3-279.7-33.1-360.8
	c-6.7,4.6-14,8.9-20.5,14.1c-33.4,26.6-69.7,48.1-109.5,63.4c-12.8,4.9-26.4,8.3-39.8,11.5c-10.9,2.5-18-2.3-21.5-13.4
	c-3.3-10.7-0.8-18.9,8.6-24.4c5.2-3,11.1-4.8,16.6-7.3c157.7-70.1,243-194.2,249.5-363.7c6.2-162.9-73.5-282.3-219-356.2
	c-24.2-12.3-50.5-21.1-74.2-25.8c-24.2,32.9-44.4,64.2-68.6,92c-16.8,19.2-38.9,33.7-59.1,49.8c-8.6,6.8-18,6.1-25.6-2.1
	c-8.5-9.2-7.2-19,0.8-27.8c5.2-5.8,11.3-10.7,16.5-16.4c14.6-15.9,31-30.6,43.1-48.2c82.3-119.8,100.7-248.3,46.3-384.2
	c-66.1-165-236.7-271.9-428.4-242.7c-6.5,1-12.8,3.2-18.3,4.6c-0.9,3.7-2,5.5-1.6,6.9c2.2,7.4,4.5,14.8,7.2,22.1
	c20.9,56.7,31.5,115,26.5,175.5c-0.7,8.5-2.4,17.2-5.3,25.1c-4.2,11.7-14.3,14.4-25.5,12.3c-10.7-2-12.7-10.4-12.4-19.7
	c0.2-8.6,0.3-17.3,0.5-25.9c2.2-89.4-27.2-168.9-81.1-238.4c-89.1-115-209-177.1-353-188.8c-143.2-11.7-271.9,29.1-383.7,120.3
	c-79.1,64.5-135.6,144.7-166.8,242.2c-14.6,45.6-20.2,92.7-22,140.5c-1.1,31.2-18,39-44.6,22.4c-10.9-6.8-22.4-13.4-34.6-17
	c-148.2-43-281.6-11.4-397.3,87.3c-109.7,93.6-158.7,215.9-148.7,359.9c9.2,132.5,58.1,248.1,153.9,342c7.4,7.3,14.9,14.5,22.3,21.7
	c7.4,7.2,12.8,15.6,5,24.8c-7.1,8.4-17.2,11.8-28.1,6.5c-5.4-2.6-10.3-6.4-15-10.1c-45.4-35.6-84.2-76.9-112.2-127.8
	C875.5,1403.3,869.9,1394.8,864.8,1386.4z M1919.2,2825.2c-0.3,6.2-1.1,14.6-1.1,23.1c0.3,239.6,0.7,479.3,1.1,718.9
	c0,8.6,0.2,17.3,1.1,25.9c4,35.5,33.2,59.2,70.7,57.7c35.9-1.4,60.8-26.5,62.1-62.7c0.2-6.9,0.2-13.8,0.2-20.8
	c0.1-155.7,0.1-311.4,0.4-467.1c0.1-92.6,0.7-185.1,0.8-277.7c0-9-1.3-18-1.9-25.6C2007.7,2806.4,1965.7,2815.3,1919.2,2825.2z"/>
<path d="M2379.2,1630.4c69.9,2.5,119.2,54.3,120.4,127c1.2,70.9-57.4,125.9-128.3,124.2c-68.4-1.6-121.5-59.6-119.6-130.5
	C2253.5,1684.1,2311.6,1629.1,2379.2,1630.4z M2334.4,1750.4c20.8,0,35.3-15.3,34.9-36.7c-0.4-19.2-14.3-33.5-32.4-33.2
	c-21.1,0.4-35.3,15.3-34.8,36.7C2302.5,1736.6,2315.9,1750.4,2334.4,1750.4z"/>
<path d="M1526.2,1880.8c-67.4-0.1-119.7-53.7-120-122.9c-0.3-70.6,54.4-127.8,122.1-127.8c68.2,0.1,120.7,54.2,121.2,125
	C1650,1825.5,1595.7,1880.9,1526.2,1880.8z M1491.7,1682.2c-20.9-0.5-37.4,14.2-38.1,33.8c-0.6,18.4,13,34.2,30.2,35.1
	c21,1,39.9-15.7,40-35.1C1523.8,1698.1,1509.1,1682.6,1491.7,1682.2z"/>
<path d="M1589.9,865.3c80.1,4.6,147,37.7,192.6,108.6c5.9,9.2,10.6,19.9,13.1,30.6c3.1,13.5-2.9,22.1-14.6,26.7
	c-11.6,4.6-20.2,0.3-26.9-9c-4.1-5.6-7.5-11.6-11.1-17.4c-51.8-83.1-167.2-110.3-250.5-58.8c-43.1,26.7-66.7,66.3-75,115.6
	c-1,5.9-1.1,12.1-2.2,18c-2.4,11.8-9.5,17.7-21.9,17.4c-13.9-0.3-21.6-5.5-24-18.5c-1.1-5.8-1-12.1-0.4-18
	c10.4-119.4,98.2-181.3,182.2-192.4C1563,866.6,1575.1,866.3,1589.9,865.3z"/>
<path d="M2309,895.7c105.4,3.8,201.3,57.9,237.7,162.2c17.6,50.4,19.9,101.3,2.9,152.4c-3,8.9-6.7,17.9-11.7,25.8
	c-7.1,11-18,13.5-29.3,8.4c-11.5-5.2-13.7-14.3-11.4-25.8c3.9-19.4,8.9-38.7,11-58.4c9.5-88.2-43.1-168.9-127.1-196.9
	c-36.6-12.2-73.6-17.3-112-9.2c-17.9,3.8-26.8-0.9-32.5-13.5c-6.1-13.6-1.5-27.8,14.8-33.2C2269.8,901.5,2289.7,899.5,2309,895.7z"
	/>
<path d="M1416,2109.7c-130.6-5.2-227.8-102.7-226.4-230.4c0.2-18.8,4.6-37.6,8.2-56.1c1.5-7.4,5.3-14.7,9.7-20.9
	c7.5-10.6,18.1-12.7,29.7-7.7c11.2,4.8,14.8,13.6,13.3,25.2c-2.6,21.3-7.1,42.7-7.2,64c-0.5,90.4,79.7,175.1,187.2,169.6
	c10.3-0.5,20.7-2.1,31-2.2c15.6-0.1,25.1,6.4,27.3,18.3c2.4,13.1-4.5,23.5-15.4,27.1C1454.9,2102.7,1435.2,2105.5,1416,2109.7z"/>
<path d="M2446.5,2022.5c-0.3-6-1.1-12.1-0.7-18.1c0.7-11.2,4.8-22.3,17-22.4c9.2-0.1,21,3.8,26.9,10.3c6.3,6.9,9.1,18.7,9.9,28.6
	c10.8,135.4-100.6,229.5-225.8,212.5c-9.3-1.3-18.5-4.5-27.1-8.2c-15.2-6.6-20.2-17.1-15.9-30.9c4-13,12-16.7,28.3-16.3
	c24.9,0.5,50.5,3.3,74.5-1.5C2402,2162.6,2450.8,2109,2446.5,2022.5z"/>
<path d="M2086.4,1831.7c-1.4,51.5-37.3,99.7-88.7,117.6c-52.1,18.1-111.5,2.6-146.2-38.5c-20.6-24.5-32.8-52.7-35-84.8
	c-0.8-11.5,0.6-22.7,13.2-28.4c13.7-6.2,27.9-0.9,33.6,14c4.3,11.2,6.8,23.2,9.7,34.9c11.6,47.6,75.4,80,127.8,43.4
	c17.5-12.2,27.1-28.5,31.4-48.7c2-9.3,3.1-18.8,5.9-27.8c4.8-15.3,13-20.5,26.5-18.4c13.4,2.1,20.5,10.1,21.8,24.7
	C2086.6,1823.2,2086.4,1826.6,2086.4,1831.7z"/>
</svg>
