<?xml version="1.0" encoding="utf-8"?>
<!-- Generator: Adobe Illustrator 24.3.0, SVG Export Plug-In . SVG Version: 6.00 Build 0)  -->
<svg version="1.1" id="Layer_1" xmlns="http://www.w3.org/2000/svg" xmlns:xlink="http://www.w3.org/1999/xlink" x="0px" y="0px"
	 viewBox="0 0 4000 4000" style="enable-background:new 0 0 4000 4000;" xml:space="preserve">
<path d="M2009,3687.8c-127.1-3.2-230.5-9.9-330-43.1c-23.9-7.9-47.2-18.4-69.5-30c-31.1-16.1-52.3-41.4-60.7-76.1
	c-9.4-38.9-19.1-77.7-27.3-116.8c-41.4-198.1-82.3-396.4-123.6-594.6c-7.3-35.2-16.3-70-23-105.2c-2.8-14.7-9-23-23.6-27
	c-14.1-3.9-28-9.1-41-15.7c-40.5-20.6-69.7-51.8-80.1-96.8c-13.8-59.6-26.1-119.6-38-179.6c-13.9-70.5-26.8-141.1-40-211.7
	c-1.8-9.8-3.5-18.1-16-21.4c-54.4-14-84.1-47.2-90.8-102c-6.7-54.7,8.3-104.1,44-145.6c12.9-15,14.8-27.6,10.4-46.3
	c-44.2-184.6-21-359.8,76.3-523.8c12.8-21.6,29.6-41,46-60.1c8.4-9.8,10.8-18.2,7.9-30.8c-13.4-58.5,2.6-108,48.4-147.3
	c17.7-15.2,17.6-15,11.1-36.6c-36.3-121.8-37.6-244.1-7.9-367.6c63.1-262.7,272.8-466.9,542.2-524.8c185.5-39.9,362.5-16.5,527.5,79
	c158.8,91.9,264.8,227.1,321.2,401.6c22.5,69.8,33.4,141.3,32.7,214.5c-0.6,66.5-10.9,131.8-30.3,195.4c-5,16.4-3.2,26.8,10.4,38.1
	c22.2,18.3,39.8,41,49.3,68.9c7.5,21.8,13.1,44,6.9,67.2c-2.8,10.7,0.9,18.3,8.2,26.3c101.6,112,147.1,246.3,155.8,395
	c4.4,75-6.8,148.4-27.6,220.1c-5.9,20.5-3.3,34.9,9.8,51.2c29.3,36.4,41.5,78.9,38.9,125.7c-3,52.8-29.6,87.3-80.1,100.8
	c-12.5,3.3-17.1,9.3-19.6,21.1c-23.6,114.3-47.7,228.5-71.6,342.8c-2.3,11.2-4.9,22.3-7,33.6c-12,64.5-52.2,103.4-112.7,123.4
	c-40.5,13.4-31.8,3.7-41.1,47.5c-41,194-81.3,388.3-121.9,582.4c-13.7,65.5-29.3,130.7-41,196.6c-10.2,57.4-43,93.1-95,115
	c-51.6,21.7-105.3,35.4-160.6,41.8C2113,3679.9,2049.5,3684.2,2009,3687.8z M2628.3,877.2c-1.5-171.3-61.1-320.8-181.3-441.4
	C2282.7,271,2081.3,215.9,1853.8,257c-114.8,20.7-216.6,71.4-303.9,149.2c-127.1,113.3-198.5,254.8-211.6,424.9
	c-6.8,88.3,7.3,174.1,35,257.9c10.7,32.3,7.9,39.5-18.5,60.6c-14.6,11.7-29.2,24-40.6,38.6c-7.5,9.6-12.3,23.4-13,35.7
	c-1.1,19.9,10.5,26.8,30.1,22c12.6-3.1,25.3-6.7,38.1-8.3c42.9-5.5,63.6,6.5,81,46.1c6.5,14.9,11.6,30.5,18.4,45.3
	c11.1,24.2,23.7,29.8,48.9,22c8.5-2.6,16.1-7.8,24.3-11.3c14.1-6.2,28-13.4,42.7-17.7c38.3-11.2,71.4,1.8,93.1,35
	c7.2,10.9,13.4,22.5,21.5,32.7c14.7,18.6,33.1,20,50.8,4.1c6-5.4,10.8-12.2,15.5-18.8c7.5-10.6,14.1-22,21.9-32.5
	c24.3-32.7,63-40.5,97.3-19c12.4,7.7,23.8,17.2,35.2,26.4c26.5,21.3,44.3,22.9,73.8,6.2c12.7-7.2,25.1-15.5,38.6-20.9
	c46.9-18.5,88.4-1.8,107.5,35.2c4.5,8.7,9.8,17,15.4,25c4.6,6.6,9.6,13.4,15.6,18.7c18.4,16.3,39.9,14.8,55.9-4.3
	c6.7-8,11.8-17.6,17.1-26.7c6.6-11.2,12-23.3,19.2-34.1c27-40.4,73.1-51.8,115.7-28.6c12.9,7,24.9,15.6,37.6,23
	c28.3,16.6,51.6,10.8,68.6-17.2c7.2-11.8,13.3-24.4,20.6-36.1c18.1-28.6,43.4-46.8,78-48c21-0.7,42.2,1.5,63.3,2.3
	c17,0.7,25.2-7.3,21.2-23.6c-2.9-11.5-8.1-23.5-15.6-32.6c-10.2-12.5-22.8-23.2-35.5-33.3c-36.6-29.2-37.2-29.1-22.2-73.1
	C2617.4,1015.3,2628.5,947.3,2628.3,877.2z M2024.6,2321.3c-0.5,19-0.9,46,11.9,71c8.5,16.5,22.5,22.9,40.4,21.8
	c17.2-1.1,29.1-10,34.5-26.5c2.8-8.5,6.2-17.3,6.5-26c1.1-37.4,2.2-74.9,1.3-112.3c-0.9-38.4-3.1-76.7,8.3-114.1
	c7.8-25.4,21.9-45,46.7-56.7c32.2-15.2,32.3-16.3,24.1-52.2c-0.7-3.2-1.5-6.4-2.3-9.5c-3.4-13.5-1.1-25.1,8.4-36.3
	c9.5-11.1,18.3-23.3,24.6-36.4c39.5-83.2,60.1-170.9,53.9-263.2c-2.5-37.2-10.4-74.4-19.1-110.8c-7.5-31.6-18.9-62.4-30-93.1
	c-7.8-21.3-10.8-22.6-32.6-20.8c-25.9,2.2-46.5-6.6-61.3-27.9c-8.8-12.7-16.5-26.2-25-39.2c-21.2-32.5-45.4-38-79.2-18.3
	c-10.6,6.2-20.9,12.9-31.9,18.1c-37.9,18.1-72.7,12.7-104.4-14.8c-9.8-8.5-19.7-17.4-30.8-24.1c-24.6-14.9-42.6-10.4-58.5,13.2
	c-5,7.4-8.9,15.7-14.4,22.8c-9.4,12.2-18.1,25.7-29.8,35.2c-30.4,24.8-75,15.9-94.9-17.3c-4.2-7-8.6-13.9-12.4-21.1
	c-21.3-40-56.8-39.3-87.2-21.6c-11.9,7-24.2,13.7-37.1,18.7c-39.5,15.4-83.8,1.5-98.6-44.4c-4.5-14-9.3-27.9-14.5-41.6
	c-5.2-13.9-14.2-24.6-30.1-24.8c-28.5-0.4-55.9,4.5-75.6,27.5c-21.7,25.4-44.6,50.4-62.7,78.3c-106.3,164.2-124.3,340.1-65,525
	c5.1,15.8,2.3,25.6-8.8,36.7c-14.9,14.9-30,30.4-41.3,47.9c-18.1,28-22.7,59.5-10.9,91.4c8.4,22.9,17.6,26,39.4,15.3
	c15.4-7.5,29.8-17.2,45.6-23.7c21.7-9.1,43.7-18.5,66.6-23.5c39.3-8.6,62.2,6.1,74.8,44.4c5.9,17.8,10.6,36,16.1,53.9
	c8.9,28.9,29.9,31.4,52.3,24.6c9.2-2.8,17.3-11.9,24-19.7c10.6-12.4,19.2-26.4,29.3-39.2c20.3-25.8,47.6-39.7,80-41.8
	c67.1-4.4,112.8,19.3,122.8,95.2c2.7,20.2,3.6,40.9,8.6,60.5c3.7,14.5,10.5,29.5,19.8,41.1c14.6,18.2,36.3,18.8,54.1,3.4
	c7.2-6.2,14.2-14.4,17.4-23.1c7-19,11.7-38.8,16.9-58.4c4.6-17.3,7.1-35.2,13.1-52c8-22.3,23.3-38.9,45.8-48.3
	c57.9-24,127.2,1.3,153.9,58c8.2,17.4,15.3,36.9,16.6,55.8C2026.4,2236.7,2024.6,2275,2024.6,2321.3z M1228.5,2156.2
	c1,12.1,0.9,22.5,2.8,32.5c22.9,117.7,46.3,235.3,69.1,353.1c6.2,32.2,23.5,55.9,53.1,68.7c26.8,11.6,54.4,22.5,82.7,29.4
	c137.6,33.8,278.1,47.3,419.3,53.4c117.5,5.1,234.9,3.1,352.4-4c107-6.5,212.7-21.1,316.9-45.6c36.9-8.7,72-25.5,107.2-40.5
	c21.2-9,34.8-26.4,40.3-49.5c4.4-18.2,10.2-36.1,14-54.5c21.2-102.2,42.1-204.4,62.9-306.7c2-9.9,3-20.1,4.7-31.8
	c-7.5,0-11.5-0.5-15.4,0.1c-33.9,5-67.9,9.4-101.5,15.7c-11.5,2.2-23.2,7.8-32.9,14.6c-30.4,21.5-61.2,25.7-93.6,5.8
	c-11.2-6.8-22.3-7.7-35.1-5.8c-23.4,3.5-47,5.8-70.6,7.4c-78.2,5.3-156.4,9.9-234.5,15c-6.1,0.4-12.2,2.3-19.8,3.7
	c0.5,9.9,0.8,17.9,1.3,25.9c1.2,23.6,3.8,47.3,3.4,70.9c-0.6,30.2-2.5,60.6-15.5,88.6c-11.3,24.3-28.2,41.7-57.3,43.1
	c-30.3,1.4-54.1-9.2-70.8-35c-11.4-17.6-17.6-36.8-17.4-57.8c0.2-35.9,0.8-71.8,1.1-107.7c0.1-8.7-0.8-17.4-1.2-27.1
	c-8.5-1.1-14.8-2.6-21.2-2.7c-42.4-0.7-84.9-1.2-127.3-1.5c-22.6-0.1-21.3,0.7-30.5,22.6c-7.2,17-16.3,33.8-27.7,48.2
	c-26.2,33.3-92.6,35-117.5-14.8c-5.8-11.5-9.3-24.3-13-36.7c-2.8-9.2-4.2-18.8-6.5-29.2c-60.6-5.4-119.8-10.9-179.1-15.5
	c-7.5-0.6-16.1,2.4-23.1,5.9c-34,17.2-59.5,14.5-90-10c-6.8-5.5-14.6-12-22.8-13.3C1300.9,2165.4,1266.2,2161.3,1228.5,2156.2z
	 M2829.4,1696.8c1.4-74.7-13.5-148.5-43.1-219.5c-26-62.4-64-116.8-106.2-169.4c-28.5-35.6-62.8-40.2-102.7-32.4
	c-22.2,4.3-38.8,16.4-47.7,37.9c-3.4,8.3-7.8,16.2-11.3,24.4c-24.3,57.9-84,58.9-122.4,32.1c-8.7-6.1-17.1-12.6-26.2-18
	c-35.8-21.4-66.4-12.9-85.9,23.8c-8.8,16.5-17,33.4-26,49.8c-4.7,8.6-4.4,16.1-1.1,25.4c13.4,38.4,28.5,76.6,37.7,116
	c33.9,145.3,20.9,285.1-55.7,415.9c-7.3,12.5-9.5,25.2-8.1,39.8c1.6,17.6,1.6,35.6,0.1,53.3c-1.2,14,3,23.5,14.7,30.8
	c18.8,11.7,38.6,12.8,58.7,5.3c12.9-4.8,25.1-11.8,37.4-18.1c47.2-24.1,84.4-19.7,123.6,15.8c12.1,10.9,22.7,23.5,34.4,34.8
	c7.6,7.3,15.3,14.9,24.2,20.5c27.5,17.2,57.2,8.6,72.1-19.9c7.2-13.7,14.3-27.5,22.3-40.8c12.4-20.5,30.5-33,53.9-39.4
	c29.3-8,56.6-1.9,83.4,9.4c14.3,6,27.8,13.9,42.3,19.2c33.7,12.1,59.3-7.6,56.8-43.5c-0.6-8.8-2.2-18.3-6.2-26
	c-9.6-18.8-19.8-37.5-31.6-55c-9.7-14.5-15.3-14.1-30.3-3.7c-8,5.6-15.9,11.7-24.6,15.7c-11.1,5.1-21.3,1.7-25.5-7.1
	c-5.5-11.5,0.3-18.5,10.2-23.6c32-16.5,49.1-44,59-77.5C2822.2,1816.2,2831.3,1758.4,2829.4,1696.8z M2270,3448.8
	c-40.9-32.6-80.2-63.9-120.6-96c-44.4,39.2-87.5,77.3-132.7,117.2c8.6,7.9,15.4,14.7,22.7,20.7c25.8,21.3,52,42.1,77.7,63.6
	c20.7,17.4,21.6,18.1,42-0.2c30.9-27.9,61.4-56.2,91.9-84.6C2257.3,3463.6,2262.8,3456.7,2270,3448.8z M1880.1,3345.7
	c38.5,35.2,76.6,70.1,116.3,106.4c43.6-39.9,87.5-75.8,128.2-117.9c-10.7-10.2-19.2-18.9-28.4-26.8c-24.7-21.3-49.7-42.2-74.5-63.5
	c-18.4-15.7-18.7-16.2-36.1-0.2c-33,30.4-65.6,61.2-98.2,92C1885.1,3337.8,1883.7,3340.8,1880.1,3345.7z M2142.3,3096.7
	c-40.7,39.4-78.5,76.1-119.8,116.2c5.9,3.6,10.5,5.7,14.2,8.8c30.9,26.5,61.7,53.1,92.5,79.7c15.6,13.6,17.5,14.4,32.2-0.2
	c25.4-25.3,49.8-51.5,74.6-77.4c7.1-7.5,13.8-15.4,21.3-23.8c-3.7-4.3-6-7.6-8.9-10.2C2213.6,3159.2,2178.8,3128.8,2142.3,3096.7z
	 M2013.8,2945.9c43.9-32.8,76.1-72.3,112.8-108.6c-5.3-6.4-8.6-10.9-12.5-14.9c-26.3-26.8-52.7-53.5-79-80.2c-1.7-1.7-3.3-3.7-5-5.4
	c-14.6-14.2-18.9-14.2-34.8-0.1c-3,2.7-5.9,5.6-8.8,8.6c-24.6,25-49.2,50.1-73.6,75.2c-3.9,4-7.2,8.5-12.4,14.7
	C1937.6,2871.5,1974.2,2907.2,2013.8,2945.9z M1739.3,3460.7c0.8,2.6,0.8,4.6,1.8,5.6c33.5,31,67.2,61.7,100.4,92.8
	c9.5,8.9,18.4,9.3,28,1.2c33.5-28.4,67-56.8,100.4-85.4c1-0.9,0.9-3,2-6.9c-37.7-34.7-76.2-70.1-114.6-105.4
	C1816.3,3396.8,1777.6,3428.9,1739.3,3460.7z M1859.3,2829.8c-19.7-20.6-37-38.9-54.6-57c-17.7-18.3-29.4-42.7-54-55.9
	c-38.1,39.4-74.6,77.1-111.8,115.5c33.3,36.1,62.2,72.4,100.6,101.4C1782.5,2903.2,1820.3,2867.6,1859.3,2829.8z M2281.5,3220.2
	c-37.6,37.4-74.4,74-112.7,112.1c6.9,6.2,11.5,10.8,16.5,14.7c28.7,22.8,57.4,45.7,86.4,68.1c19.5,15,20.6,14.6,37.5-4.1
	c23.5-26,47.1-51.9,70.5-78c5.8-6.5,11.1-13.5,18-21.9C2359.2,3280.9,2322.2,3252,2281.5,3220.2z M1758.8,3215.7
	c33.1,35.6,65.6,70.5,100.1,107.5c41.2-37.9,81.5-74.9,123.8-113.8c-38.8-34.6-74.7-66.8-110.5-98.8
	C1832.2,3147.7,1794.1,3183,1758.8,3215.7z M2277.3,2715.3c-37.7,40.9-73.3,79.4-111.2,120.4c36.7,34.6,71.8,67.8,106.6,100.6
	c21.1-15.3,98.8-103.2,105.1-118.4c-16.8-15.9-34.4-31.6-50.9-48.4C2310.5,2752.8,2295.3,2735,2277.3,2715.3z M1837.7,3343.4
	c-37-37.5-70.8-71.8-106.5-107.9c-39.7,32.8-77,63.6-116,95.9c35.4,37.7,68.6,72.9,103.7,110.3
	C1758.7,3408.7,1796,3377.8,1837.7,3343.4z M1995.2,2967.6c-37-40.1-77.4-76.1-116.5-117.6c-36.9,34-71.2,65.6-107.1,98.6
	c4.9,3.7,6.8,5.1,8.7,6.5c16.7,11.7,29.6,25.5,28.6,48c-0.2,4.2,2.7,9.6,5.8,12.8c15.3,15.8,31,31.3,47,46.3
	c3.7,3.4,9.4,4.7,15.3,7.6c12.1-22.4-3.5-45.3,6.7-68.1c16.3-1.3,33.2-2.6,50.1-3.9C1956.2,2995.8,1977.7,2992.2,1995.2,2967.6z
	 M1713,2955.2c-31.1-34-62.6-68.4-96.2-105.2c-35.1,33.6-69.3,66.3-104.1,99.6c30.5,37.6,59,72.7,87.3,107.5
	C1621.7,3046,1696.6,2978.5,1713,2955.2z M2401.2,2839.6c-35.2,39-68.8,76.2-104.6,115.8c35.8,30.7,69.4,59.6,105.3,90.4
	c14-16.4,25.6-30.7,38.1-44.4c19.3-21.1,30.2-45.8,35.9-73.7c2.8-13.6,0.9-23.3-10-32.3C2444.8,2877.8,2424.1,2859.4,2401.2,2839.6z
	 M2274.7,3185.6c38.7-42.2,73.7-80.3,110.4-120.2c-36.5-31-70.1-59.5-104.1-88.4c-39.2,34.9-76.7,68.3-112.7,100.5
	c14.9,15,30.2,30.2,45.4,45.6C2232.8,3142.6,2251.9,3162.3,2274.7,3185.6z M1585.4,3313.7c47.6-28.6,83.8-62.9,122.8-98.8
	c-37-41.3-71.5-80-106.8-119.3c-15.8,12.8-29.6,25.4-44.8,35.9c-10.5,7.2-13.4,14.6-10.4,26.7c8.7,35.7,16.2,71.6,24.8,107.3
	C1574.6,3280.4,1579.7,3294.9,1585.4,3313.7z M1662.5,3132.3c24.6,21.2,47.8,41.4,73.9,63.9c39.1-28.9,80.4-62,112.3-107.2
	c-15.6-16.3-30.3-31.4-44.8-46.7c-6.4-6.8-13.8-8.1-22.2-4.8c-5.3,2.1-10.2,5-15.5,7.1c-24.9,9.7-39.8,5-54.3-17
	c-2.5-3.8-5.5-7.3-9.3-12.1c-28.7,20.3-55.4,40.3-75.1,67.3c7.7,10.7,12.8,6.1,18.2,2.1c9.1-6.8,17.6-15,27.7-19.4
	c16.9-7.5,27.4,1.8,23.4,20c-1.5,6.9-5.3,13.7-9.6,19.3C1680.9,3113.2,1673.3,3120.6,1662.5,3132.3z M1499,2924.7
	c37.2-32.5,68.4-63.9,100.7-96.1c-4.6-6.7-7.9-12.2-11.9-17.1c-30.5-38.2-61.6-75.9-91.6-114.5c-12.7-16.3-28.1-19.4-49.1-16.6
	C1462.1,2761.8,1476.1,2841.5,1499,2924.7z M2115.8,3039.9c-6.7-50.9-3.4-59.5,25-72.9c24.6-11.6,55-1.5,78.7,26.3
	c18-9.4,25.8-17.4,35.1-37.6c-35.7-32.7-72.1-66.1-108.7-99.6c-36,35-71,69-107.9,104.8C2063,2987.4,2084.9,3014.2,2115.8,3039.9z
	 M2020.7,2988.9c3.6,9.3,6,14.2,7.4,19.3c13,46.5-15.5,86.1-63.5,87.8c-17.2,0.6-34.1-0.3-49.7-9.5c-6.8-4-14.5-7.6-21.8,0
	c13.4,20.9,85.2,85.1,114.7,102c39.1-35.9,77.8-73.6,115.7-112.7C2089.5,3047.1,2056.9,3019.5,2020.7,2988.9z M1875.2,3592.2
	c18.7,15.4,39.1,17,58.9,17c49.6-0.2,99.2-2.1,148.7-3.5c11.3-0.3,22.5-2.1,31.3-14c-3.9-5.1-6.9-10.9-11.5-14.8
	c-31.1-26.2-62.7-51.8-93.8-77.9c-10.5-8.8-18.5-5.5-27.7,2.4c-29.6,25.4-59.9,50.1-89.8,75.2
	C1886,3581,1881.3,3586.2,1875.2,3592.2z M2403.3,3281c3.7-13.8,6.1-21.5,7.7-29.4c7.2-35.2,14-70.4,21.1-105.6
	c8.2-40.4,13.1-32.2-24.7-57.9c-1.2-0.8-3.1-0.5-7.6-1.1c-31.5,35.8-64.1,72.9-99.2,112.8C2334.7,3226.8,2366.9,3252.3,2403.3,3281z
	 M2460.4,2160.4c-0.9-5.8-0.6-7.8-1.4-8.9c-4.7-5.6-9.6-11.1-14.7-16.3c-25.9-26.4-48.9-30.3-81.7-13.3
	c-8.7,4.5-16.8,10.2-25.5,14.7c-40.6,21.1-79.8,20.7-116.9-8.2c-3.2-2.5-6.4-5.1-9.8-7.4c-17.5-11.6-35.8-8.3-46.1,9.5
	c-8.2,14.1-13.1,29.6-9.7,49.2C2256.6,2177.3,2358.2,2173.3,2460.4,2160.4z M2162.1,3590.1c1,1.6,2.1,3.2,3.1,4.8
	c9.6-1.3,19.2-2.3,28.8-4c41.9-7.3,83.1-16.9,121.1-36.8c10.6-5.5,20.8-13.2,28.7-22.1c12.6-14.1,11.6-20.6-3-32.5
	c-10.1-8.2-21.2-15.1-32.1-22.4c-17.1-11.4-17.3-11.1-32.8,3.6c-28.9,27.6-57.9,55.1-86.8,82.7
	C2180,3572.2,2171.1,3581.2,2162.1,3590.1z M1838.7,3592.3c-42.2-39.4-81.3-75.9-122.7-114.5c-26.4,19-53,38.2-80.3,57.9
	C1675,3569,1791.3,3602,1838.7,3592.3z M1711.2,2714.6c-63.5-7.4-121.6-14.2-179.7-21c-1.1,1.6-2.2,3.2-3.3,4.9
	c31.6,34.9,56.8,75.1,92.4,109.5C1652.5,2779.2,1681.7,2750.8,1711.2,2714.6z M1986.8,2181.1c-2.7-22.3-13.7-37.7-26.9-50.5
	c-8.9-8.5-21.4-17.1-33-18.2c-19.8-1.9-40.7-0.4-60,4.2c-26.2,6.3-40.4,34.5-35.2,64.4C1882.2,2181.1,1933.1,2181.1,1986.8,2181.1z
	 M2487.1,2688.2c-56.8,8.6-112.4,17-172.7,26.1c29.5,31,53.1,60.4,83.5,82.8C2427.4,2775.2,2480.8,2710.8,2487.1,2688.2z
	 M1645.9,2165.9c-1.1-27.4-7.3-43.8-21.7-53.5c-53-35.5-124.4-6.7-138.4,41.3C1515,2164,1616.8,2172,1645.9,2165.9z M2060.6,2731
	c29.2,29.5,55.6,56.2,81.6,82.5c29.5-20.5,73-68.3,81.8-88.5C2203.6,2720.3,2085,2723.6,2060.6,2731z M1694.1,3461.1
	c-2.5-6.5-2.8-9.3-4.3-10.9c-28-29.5-56-59-84.4-88.1c-3.3-3.4-9-4.3-18.5-8.5c10.6,54.8,20.3,104.6,31,159.6
	C1645.8,3494.1,1669.6,3477.8,1694.1,3461.1z M1957.9,2728.1c-31.6-6.4-136.2-6.3-155.8,1c21.7,23.4,42.3,46.1,63.4,68.2
	c13.1,13.7,16.3,13.9,29.7,0.9c18.6-18.2,36.6-37,54.5-56C1953.1,2738.5,1955,2733.2,1957.9,2728.1z M2524.9,2699.8
	c-1.4-0.5-2.8-1.1-4.3-1.6c-33.6,39.9-67.3,79.8-102.1,121.1c22.5,18.9,41.9,37.9,68.1,54.4
	C2500,2812.9,2512.4,2756.4,2524.9,2699.8z M1331.2,2139.1c-4.3-16.9-6.4-29.6-10.9-41.6c-6.8-18.5-17-24.9-36.2-19.8
	c-22.7,6.1-44.5,15.4-66.5,24c-4,1.5-6.8,6.1-13.3,12.2C1245.5,2130.4,1285.4,2133.9,1331.2,2139.1z M2309.5,3448.2
	c19.4,11.6,34.9,21,53.1,31.9c9.4-37.5,20.6-71,23.7-106.2c-1.6-0.8-3.2-1.6-4.8-2.3C2358.4,3396.2,2335.4,3420.7,2309.5,3448.2z
	 M2767.7,2122.2c-29.6-25.3-71-32.7-98.4-20.6c-16.4,7.2-26.1,19.7-31,39.5C2681.4,2134.8,2722.1,2128.8,2767.7,2122.2z
	 M1537.3,3113.1c18.1-13.9,32.4-24.9,48.3-37.1c-12.8-13.9-23.9-25.7-34.7-37.7c-11.1-12.4-21.9-25.1-32.9-37.7
	c-1.7,0.8-3.3,1.7-5,2.5C1520.8,3038.3,1528.6,3073.5,1537.3,3113.1z M1984.7,3075c-0.2-21.1-7.1-30.3-22.6-32.2
	c-18.1-2.3-35.6,8.8-39.3,25.7C1942.1,3078.1,1962.3,3079.4,1984.7,3075z M2456.4,3034.4c-2.1-1.2-4.2-2.4-6.3-3.7
	c-8.5,8.6-16.9,17.3-27.6,28.2c10.3,5.5,17.5,9.2,27.6,14.6C2452.6,3057.7,2454.5,3046.1,2456.4,3034.4z M1660.9,3123.3
	c2.5-12.7,4.2-21.3,6.4-32.3C1645,3101.7,1645,3101.7,1660.9,3123.3z"/>
<path d="M2522.3,699c-2.7,2.6-6.3,8.7-11.3,10.1c-3.8,1.1-11.1-2.7-13.5-6.4c-4.3-6.7-6.3-14.9-9-22.6
	c-42.8-123.7-122.2-215.7-238.5-275.8c-2.2-1.1-4.4-2.2-6.5-3.5c-8.1-5-15.5-10.6-9.2-21.4c5.5-9.6,14.4-10.8,23.2-6
	c22.1,12.2,44.8,23.6,65.5,38c94.3,65.4,159.7,152.5,193.5,262.6c1.7,5.4,2.9,11,4.3,16.6C2521.3,692.1,2521.5,693.7,2522.3,699z"/>
<path d="M2258.5,884.4c0,34.6-25.4,59.6-60.4,59.6c-34.5-0.1-60.3-25.6-60.5-60c-0.2-32.8,27.5-61.7,59.4-62
	C2230.6,821.7,2258.5,849.9,2258.5,884.4z"/>
<path d="M1788.3,884.3c0.3,34.7-26.4,59.9-63.2,59.6c-33.8-0.3-58-25-57.9-59.1c0.1-33.2,27.8-62.5,58.9-62.5
	C1760.2,822.3,1788.1,850.1,1788.3,884.3z"/>
<path d="M2139.7,1248.5c-9.8,0-19.5,0-29.3,0c-25.2-0.1-29.9-2.4-30.4-14.6c-0.5-12.6,5.1-15.5,29.2-16.1
	c21.2-0.5,42.4-0.4,63.4-2.5c39.6-4,79.1-9.4,118.7-14.3c8.9-1.1,18.2-3.8,22.4,8.1c4.2,11.9-0.1,20.3-13.8,22.9
	c-18.4,3.5-37,5.9-55.6,7.9c-34.8,3.8-69.6,6.9-104.4,10.3C2139.8,1249.6,2139.8,1249,2139.7,1248.5z"/>
<path d="M1861.3,1236.4c-23.6-1.1-46.3-1.3-68.8-3.5c-40.5-3.9-80.8-8.9-121.2-13.7c-14.9-1.8-19.1-6.6-17.4-17.6
	c2-13,10.6-14.2,21.6-13.1c57.5,5.5,115,10.4,172.5,16C1864.6,1206.1,1866.2,1210.1,1861.3,1236.4z"/>
<path d="M1966.5,1007.5c-32.1-1.3-60-9.2-81-32.2c-7.3-8.1-12.1-19-15.9-29.5c-1.2-3.4,3.2-10.7,7.1-13.5c2.5-1.9,9.7-0.3,12.8,2.2
	c5.6,4.5,9.6,10.9,14.4,16.4c34,40.2,96,36.7,125.6-7c1.8-2.7,2.9-6.7,5.4-7.9c5.2-2.6,11.8-6,16.7-4.8c7.6,2,11.6,9.5,8.5,17.5
	c-2.9,7.5-6.7,14.9-11.6,21.2C2027.3,997.3,1997.4,1005.7,1966.5,1007.5z"/>
<path d="M1406.9,1133.5c7.1,1.2,11.2,1.5,15.1,2.6c28.9,8.2,57.8,16.5,86.7,24.9c3.9,1.1,8.7,1.8,11.2,4.4c3.6,3.7,8.2,9.9,7.2,13.6
	c-1.3,5.2-6.7,11.3-11.8,12.9c-5.5,1.9-12.9,0.1-19-1.6c-26.6-7.4-53.2-15.1-79.7-23.1c-5.4-1.6-11.5-3.7-15-7.7
	c-3.9-4.4-8-11.7-7-16.5C1395.8,1138.7,1403.7,1135.9,1406.9,1133.5z"/>
<path d="M2563.5,1157.2c-2.6,2.5-6.2,8.7-11.4,10.8c-31.6,12.6-63.5,24.6-95.7,35.7c-4.3,1.5-14.1-2.5-15.6-6.2
	c-2.2-5.6-1.1-14.5,2.2-19.6c3-4.7,10.7-6.8,16.7-9c26.6-10,53.2-19.6,79.9-29.3C2552.4,1134.9,2563.8,1141.7,2563.5,1157.2z"/>
<path d="M2544.4,805.5c0,14.2,1.5,23.6-0.6,32c-1.2,4.7-7.9,9.9-13.1,11.1c-2.9,0.7-10.5-5.9-11-9.9c-2.6-18.5-3.9-37.2-4.9-55.9
	c-0.4-9.2,6.2-12.5,14.5-12.6c7.8-0.2,12.3,3.8,13.1,11.4C2543.5,791.3,2544.1,801.1,2544.4,805.5z"/>
<path d="M2127.8,319.7c13.8,5.8,25.4,9.5,35.5,15.7c4,2.4,7.7,11.5,6.1,15.5c-1.7,4.5-9.9,9.9-14.6,9.3c-11.8-1.4-23.5-5.4-34.8-9.6
	c-7.2-2.7-13.2-9.5-8.9-17.1C2114.4,327.7,2122,324.3,2127.8,319.7z"/>
<path d="M2221.1,1620.8c-0.3,29.6-26.5,58.1-52.8,57.3c-30.9-1-55.4-25.6-54.5-54.8c1-32.6,24.5-56.5,55.6-56.5
	C2198,1566.7,2221.3,1591.1,2221.1,1620.8z"/>
<path d="M1789.4,1622.2c-0.5,29.9-25.8,54.2-55.6,53.2c-29.3-1-52.3-23.9-51.5-51.4c0.9-30.9,27-57.5,55.9-57
	C1766,1567.5,1789.9,1593.3,1789.4,1622.2z"/>
<path d="M1250,1614.6c-23.6,0.5-27.1-0.9-23.5-18.1c7.8-36.5,15.2-73.8,28.8-108.3c12.7-32.3,33.2-61.5,50.5-92
	c2.8-4.9,6.7-9.3,10.8-13.3c6.7-6.5,14.1-7.7,21.7-1c7.1,6.2,5.7,12.7,0.9,19.4c-2.8,4-5.6,8-8.5,12
	c-39.4,54.5-64.9,114.8-75.9,181.2C1253.8,1601,1251.9,1607.2,1250,1614.6z"/>
<path d="M1953.7,1733.3c-48-0.3-80.7-27.2-88-71.7c-1.5-9.5-2.1-18.3,9.3-21.9c9.7-3.1,16.1,2,20.2,15.5c1.6,5.5,2.4,11.2,4.4,16.5
	c6,16.6,18.2,26.9,35.1,31.2c36.7,9.3,68.7-9.4,78.6-45.7c2.6-9.6,3.8-20.5,17.3-19.4c10.5,0.8,15.5,11.8,13.8,27.3
	c-3.8,33.6-36.2,63.9-73.6,68.2C1965.2,1733.9,1959.4,1733.3,1953.7,1733.3z"/>
<path d="M1432.4,1982.5c-49.9,0.5-96.1-16.8-143.3-29.6c-11.1-3-15.1-12.2-11.8-20.5c3.8-9.6,12.6-13.7,24-9.2
	c35.9,14.2,72.8,24.1,111.1,28.1c13,1.4,26,1.6,39.1,2.2c8.5,0.4,14.1,3.6,14.5,12.9c0.4,9.9-4.1,15.6-14,16.2
	C1445.5,1982.8,1438.9,1982.5,1432.4,1982.5z"/>
<path d="M1673.3,2017.9c-9.2-2.2-21-4.8-32.7-7.8c-15.6-4-31.1-8.7-46.8-12.1c-8.8-1.9-16.1-4.2-15-15c1-9.6,5.1-18.7,15.7-18.4
	c11.1,0.3,23.3,1.7,32.9,6.7c31,15.9,62.3,15.6,94.7,6.6c2.3-0.7,4.7-1.5,7-1.9c9-1.4,16.3,1,19.3,10.4c2.9,9.5-1.6,16.2-10.1,19.3
	c-8.3,3.1-17.1,5.3-25.8,6.9C1700.6,2014.8,1688.4,2016,1673.3,2017.9z"/>
<path d="M1244.6,1680.4c0,27.8,0,54.3,0,80.4c-20.1,3.4-24.8,1.5-26.6-13.9c-1.8-15.2-1.6-30.8-1.5-46.2
	C1216.6,1679.9,1217.7,1679.3,1244.6,1680.4z"/>
<path d="M2208.1,1757.9c-4.8-0.4-10.3,0.8-12.3-1.3c-11.5-12.3-23.6-24.3-32.4-38.4c-6.4-10.2,1-18.8,13.4-18.7
	c17.3,0.2,25.5,12,31.9,25.7C2213.2,1735.2,2214.9,1745.3,2208.1,1757.9z"/>
<path d="M1625.2,1746.8c-9.6,0.1-17.1-10-12.2-17.3c11.1-16.7,23.9-32.3,36.9-47.5c2-2.4,10.1-2.4,13.2-0.3c2.8,1.9,5,9.6,3.4,12.3
	c-10,16.4-20.9,32.2-32.1,47.8C1632.3,1744.7,1627.5,1745.7,1625.2,1746.8z"/>
<path d="M1701.7,1690.8c-1.5,27.7-12.7,43.4-27.7,56.2c-4,3.4-11.6,2.5-17.6,3.6c-0.4-5.9-3.3-13.1-0.9-17.4
	c6.7-12,14.9-23.4,24.1-33.6C1683.4,1695.3,1691.4,1694.7,1701.7,1690.8z"/>
<path d="M1699,1762.2c-2-3-6.9-7.1-6.3-9.9c4.4-19.2,13.3-36.2,29.8-47.8c2.5-1.8,8.6-1.5,11,0.4c2.4,1.8,4.5,8.3,3.1,10.4
	c-9.9,15.4-20.6,30.2-31.2,45C1704.7,1761.3,1702.5,1761.2,1699,1762.2z"/>
<path d="M2288.1,2631.6c-6.1,0-13.5-0.1-20.8,0c-10.9,0.2-16.9-4.6-17.2-15.8c-0.3-11.1,7.3-13.3,16-14.2
	c33.2-3.5,66.6-6.1,99.6-10.7c62.9-8.7,125.8-18.6,186.3-39c54.1-18.2,57-20.6,68.7-76.7c15.9-75.7,30.6-151.7,45.9-227.5
	c1.3-6.4,2.8-12.7,4.3-19c2.1-8.3,7.1-12.6,16-11c9.2,1.6,15.2,6.4,13.9,16.5c-1.3,9.7-3.1,19.3-5.1,28.8
	c-15.3,74.2-30.8,148.4-46.2,222.6c-0.8,4-2.1,7.9-2.9,11.9c-8.1,42.4-31.5,68.2-74.6,80.5c-74.6,21.3-150.1,37.2-226.9,47.4
	C2326.7,2627.9,2308,2629.5,2288.1,2631.6z"/>
<path d="M1388.6,2560.3c-2.3,2.7-5.3,9.5-9.1,10c-6.5,0.7-14.4-1-19.7-4.6c-3.9-2.7-5.6-9.8-6.8-15.3
	c-10.8-49.4-21.4-98.9-31.5-148.5c-2.9-14.4,6-24.4,18.1-20.1c5.5,1.9,11,9.6,12.6,15.7c5.7,21.3,9.6,43,14.4,64.5
	c6.1,27.1,12.5,54.1,18.7,81.1C1386.3,2547.8,1387.1,2552.6,1388.6,2560.3z"/>
<path d="M1335.9,2318.7c-24.1,5.9-26.6,5.6-29.8-8.6c-5-22.2-8.9-44.7-12.6-67.2c-1.2-7.7-2.9-17.2,8.8-19.3
	c11.4-2,17.2,5.4,19,14.6C1326.8,2264.4,1331,2290.8,1335.9,2318.7z"/>
<path d="M2763.7,1659c-23.9,5.5-26.3,4.4-28-16.9c-3.7-47.3-12.5-93.4-30.1-137.8c-15.7-39.7-35.2-76.9-65-108.1
	c-3.3-3.5-6.2-7.5-9-11.5c-5.1-7.4-3.3-13.6,3.6-18.9c6.6-5.2,13.1-6.7,19.5-0.1c6.2,6.5,12.4,13,17.9,20
	c59,75.7,88,162.3,92.4,257.6C2765.3,1648.2,2764.3,1653,2763.7,1659z"/>
<path d="M2429.5,1981.9c46.5,0.6,92.8-1.5,138.2-13.4c5.5-1.4,11-3.1,16.6-4c8.7-1.4,16.6-0.5,18.7,10.3c1.8,9.6,0.8,18.7-10.4,21.4
	c-15,3.7-30.2,6.4-45.4,9.2c-55.8,10.1-111.8,10.7-168,4.1c-1.6-0.2-3.2-0.4-4.9-0.5c-9.5-0.8-15.4-5.1-14.8-15.4
	c0.6-10,6.8-14.6,16.2-14.3C2393.7,1979.7,2411.6,1981,2429.5,1981.9z"/>
<path d="M2729.6,1794.5c2.7-21.2,4.9-42.6,8.3-63.9c1.6-10.1,9.9-12,18.8-10.9c9,1.1,12.6,7.2,11.6,15.5c-1.8,15.3-3,30.8-6.6,45.7
	C2757.7,1797.5,2753.3,1798.9,2729.6,1794.5z"/>
<path d="M2246.6,3107.8c-4-10.4-7.9-20.8-12.1-31.7c15-7.1,23.8,0.1,30.9,9.2c9.2,11.8,20.8,23.4,11.9,40.9
	c-17.4,4-21.5-12.3-31.4-19.1L2246.6,3107.8z"/>
<path d="M2246,3107c-3.4,7.5,0.8,19.5-11.2,21.8c-11.9,2.3-16.9-7-21.7-15.7c-5-9-9.8-18.1-14.3-26.6c9.6-12.2,18.2-8.9,26-1.6
	c7.6,7.1,14.5,15.1,21.8,22.7C2246.6,3107.8,2246,3107,2246,3107z"/>
<path d="M1690.7,3126.9c5-14.1,9.3-28.6,15.5-42.2c2-4.4,8.3-7.9,13.4-9.4c4-1.2,10.6-0.2,13.3,2.5c2.6,2.6,3.6,9.7,1.9,13.1
	c-8.9,17.4-22.1,30.8-39.4,39.1C1693.8,3128.9,1692.2,3127.9,1690.7,3126.9z"/>
</svg>
