<?xml version="1.0" encoding="utf-8"?>
<!-- Generator: Adobe Illustrator 24.3.0, SVG Export Plug-In . SVG Version: 6.00 Build 0)  -->
<svg version="1.1" id="Layer_1" xmlns="http://www.w3.org/2000/svg" xmlns:xlink="http://www.w3.org/1999/xlink" x="0px" y="0px"
	 viewBox="0 0 4000 4000" style="enable-background:new 0 0 4000 4000;" xml:space="preserve">
<path d="M1041.1,1558.4c16.5-115.9,74.3-202,182.1-253c0-18.9-0.9-37.9,0.2-56.7c5.9-104.5,49.7-187.7,140.9-242.2
	c22.4-13.4,48.2-21.3,72.6-31.4c6.8-2.8,14-4.7,21.4-7.2c1.9-16.4,2.3-32.2,5.8-47.3c21.1-91.8,77.3-154.8,164-188.1
	c49.9-19.2,103-30.1,154.3-45.9c33.1-10.2,66.3-20.7,98.1-34.2c17-7.2,32.7-19.5,46.4-32.4c17.5-16.4,23.4-37.5,13.6-61.2
	c-3.8-9.2-6.9-18.7-9.4-28.2c-7.2-27.3,3-50.1,29.5-60.1c13.5-5.1,29.1-7.5,43.6-7.1c80.3,2.3,154.4,26.3,223.5,66.5
	c85.5,49.8,151.6,116.9,187.2,210.9c5.5,14.5,9.8,29.6,16.6,50c5.6-12.5,9.5-20,12.5-27.9c73.6-194,147-388.1,220.5-582.2
	c1.8-4.6,3.6-9.3,5.4-13.9c17-43.5,44-69,110.1-64c41.1,3.1,78.7,19.4,112.7,42.2c31.7,21.2,59.9,60.8,41,114.4
	c-21.2,60-42.3,120.1-63.9,180C2805,618.2,2740,797,2675.1,975.8c-2,5.4-3.8,10.9-5.7,16.4c-3.5,10.1-2.1,18.7,4.8,27.6
	c44.3,57.5,62.9,123.2,58.1,195.2c-1.1,16.1,3,25.3,17,34.2c83.9,53,129.2,132.7,151.5,226.9c5.1,21.6,5.6,44.2,8.4,66.3
	c0.6,4.8,1.7,9.5,1.9,10.1c23.3,12,45.1,20.3,63.6,33.3c46.5,32.8,76.8,127.2,30.1,195.3c-11,16.1-24.5,29.2-43.3,35.6
	c-13.4,4.5-18.6,13-20.8,27.1c-18.2,116-37.7,231.8-56,347.9c-36.2,229.6-71.7,459.2-107.9,688.8c-15.7,99.7-32.9,199.1-48.6,298.8
	c-17,107.9-32.9,215.9-49.4,323.8c-1.5,9.8-4,19.5-5.5,29.3c-8.1,53.7-39,89.8-86.9,113c-59.2,28.7-122.1,46.1-186,60.1
	c-93.2,20.4-187.8,29.9-282.8,35c-112.5,6-225.1,5.2-337.3-5.3c-124.5-11.7-248.3-28.5-365.7-75c-23.7-9.4-46.5-21.5-68.9-33.8
	c-34.7-19.1-55.6-48.9-62.1-88.1c-7-41.6-13.3-83.3-19.9-125c-29.2-186.3-58.6-372.6-87.5-558.9c-24.2-156.1-47.7-312.3-71.9-468.4
	c-18.7-121-38.3-241.8-57.1-362.8c-9.3-59.7-18-119.4-26.5-179.2c-1.6-11.1-3.2-20.5-15.4-25.6c-55.2-23.1-72.1-69.5-72.6-124.3
	c-0.3-28.5,7.7-55.6,23.3-80c15.3-24,36.5-40.1,63.8-48.5C1026.6,1563.5,1033.5,1561,1041.1,1558.4z M1288.6,2280.7
	c0,7.9-0.7,13.7,0.1,19.3c18.6,126.8,37.2,253.6,56.1,380.4c22.4,150.5,45.1,301,67.6,451.5c14.6,97.3,29.7,194.6,43.3,292.1
	c4.2,30.4,18.7,50.9,46.7,61.2c27.9,10.2,56.1,20,84.8,27.3c67.5,17.2,136.5,24.9,205.7,31.1c171.4,15.3,342.1,11.6,511.9-16.8
	c48.9-8.2,97.3-18.6,143.8-36.8c30.6-12,47.4-30.8,51.8-65.1c11.7-90.1,26.3-179.9,40.4-269.7c18.7-119.2,38.4-238.3,57-357.5
	c25.1-160.9,49.5-321.9,73.9-482.9c1.4-9.1,5.9-19-1.6-30.1c-8.7,3.2-16.9,6.5-25.4,9.3c-31.4,10.2-62.4,22.1-94.5,30
	c-157.4,38.4-318,52.1-479.4,55.7c-174.7,3.9-349-2.1-522-29.4c-65.4-10.3-130.4-22.2-193.2-43.6
	C1333.9,2299.2,1312.7,2290.1,1288.6,2280.7z M1095.6,1805.1c3.8,28.2,6.7,53.3,10.6,78.3c22,141.4,44.6,282.7,66.4,424.1
	c31.1,201.9,61.7,403.9,92.7,605.9c17.5,113.6,35.5,227.2,53.2,340.8c13.6,87.5,27.4,174.9,40.2,262.4c3.2,22,13.8,36.7,33.2,45.7
	c21.7,10.1,43.2,20.9,65.5,29.3c64.5,24.2,131.6,39.9,199.5,49.1c73.7,10,147.9,16.7,222.2,21.3c162.5,10.1,324.2,0.5,484.1-30.9
	c64.1-12.6,127.4-28.6,187.2-56.1c28.8-13.2,44.1-32.8,48.6-65.5c15.4-112.2,33.3-224.1,50.7-336c25.7-165,51.6-330,77.7-495
	c23.8-150.3,47.8-300.5,72.1-450.7c21.9-135.5,44.3-270.9,66.3-406.3c0.8-4.6,0.1-9.5,0.1-16.5c-25.2,4.6-48.4,9.4-71.9,12.8
	c-14.3,2-18.9,9.9-20.9,23c-24.6,162.7-49.7,325.4-74.4,488.1c-21.3,139.8-42.3,279.6-63.5,419.5c-22.5,148-44.9,296-67.7,443.9
	c-12.8,82.6-27.1,164.9-39.3,247.5c-5.4,36.5-23.6,61.1-57.5,74.1c-21.6,8.2-43.3,16.4-65.6,22.5c-106.7,29.3-216.1,41.6-326.2,44.1
	c-96.7,2.2-193.7,0.1-290.2-5.1c-79.2-4.2-158.2-15.5-234.5-38.6c-30.6-9.3-60-23.1-89.1-36.8c-21.5-10.1-33.3-29.1-37-52.8
	c-2-13.1-4.5-26.1-6.5-39.2c-17.7-120.3-35.1-240.6-53-360.8c-16.8-112.9-34.3-225.6-51-338.5c-26.7-179.9-52.9-360-79.4-539.9
	c-16.5-112.1-33-224.2-49.7-336.2c-0.6-3.9-2.3-7.7-3.8-12.3C1156.1,1815.5,1127.9,1810.7,1095.6,1805.1z M1273.5,2180.7
	c25.7-11.6,49.1-23.9,73.6-33c59.9-22.2,122.7-32.7,185.7-42.5c103.2-16,207-24.9,311.1-27c106.6-2.1,213.3,0.7,320,3.4
	c101,2.6,201.3,13.4,300.8,30.6c75.9,13.1,151,29.2,219.2,67.5c1,0.6,3-0.5,5.9-1.1c18.1-115.7,36.2-231.8,54.9-351.4
	c-509.5,76.1-1014.8,77.9-1524.6,1C1237.4,1947.7,1254.9,2064,1273.5,2180.7z M1119.7,1617.3c10.1,2.6,18.7,5.6,27.5,7
	c129,20.4,257.8,40.9,388.1,52.4c156.7,13.8,313.6,18.8,470.8,19.3c28,0.1,56.6-0.5,83.9-6c55.8-11.4,110.9-26.3,166.2-39.9
	c90.7-22.2,180.8-46.7,267.4-82.2c62.4-25.5,120.9-57.6,169-106.2c18.9-19.1,33.9-40.6,42.1-66.4c16.1-50.4,8.5-66.5-40.2-88.6
	c-12-5.4-21.4-4.4-32.2,2.9c-15.7,10.6-32,20.7-49,28.9c-84.1,40.6-173.7,63.8-265.4,77.9c-60.4,9.3-121.5,13.7-182.1,21.4
	c-20.3,2.6-41.5,5.3-60.1,13.2c-134.3,57.2-274.8,84-420.1,84.4c-78.5,0.3-157-4.2-235.5-7.4c-67-2.8-133.8-6.1-200.7,2.3
	c-41.5,5.2-77.8,21.3-109.8,47.8C1128.6,1587.3,1120.2,1598.2,1119.7,1617.3z M2683.1,2223.1c-6.8-5.8-13.4-13.6-21.7-18.2
	c-18.8-10.3-37.7-21-57.9-28c-81-27.8-165.2-41.4-250-49.5c-80.7-7.7-161.5-15.2-242.5-17.6c-95.9-2.9-192-3.2-287.8,0.6
	c-85,3.4-169.8,13.1-254.5,21.5c-64.2,6.4-128,17.1-189.6,36.9c-28.1,9-55.1,22.2-81.3,36.1c-21.1,11.2-21,24.2-2.1,39.9
	c6.3,5.2,13.5,9.8,21.1,13c22,9.4,43.9,19.7,66.7,26.5c130.1,38.6,264.3,53.2,399,59.9c185.3,9.1,370.5,8.8,555.2-13.7
	c81.4-9.9,162-23.3,240.8-46.2c26.1-7.6,51.2-18.7,76.1-29.6C2667.4,2249.1,2679.5,2241.2,2683.1,2223.1z M1985.8,1852
	c160.3-1.6,291.7-4.8,422.9-17.2c137.5-13,274.9-27.1,410.2-55.8c33.1-7,65.9-15.6,98.4-24.9c19.9-5.7,32.9-19.4,33.5-41.3
	c0.3-11.5-0.3-23.3-3-34.4c-7.5-29.8-27.6-42.6-57.4-36.2c-137.7,29.3-277.4,44.6-416.8,61.9c-125.7,15.6-252.2,22-378.8,24.4
	c-227.8,4.4-454.9-6.7-681.3-32.7c-111.8-12.9-222.9-29.4-332.6-54.8c-8.8-2-18.1-3-27.1-2.7c-21.1,0.7-37.6,12.4-41.6,32.7
	c-7.3,37-4.2,77.7,46.5,88.9c5.6,1.2,11.1,3.5,16.7,4.6c55.8,11.7,111.4,24.9,167.5,34.7c170.7,29.8,343,43,515.9,49
	C1844,1851.2,1929.3,1851.1,1985.8,1852z M1309.6,1325.4c8.7,0.5,13.7,1.4,18.5,1.1c52.5-3.1,103.8,4.1,154.9,15.2
	c85.6,18.5,171.1,37.1,257.3,52.6c89.7,16.1,180.5,20.6,271.7,19.1c69.5-1.1,138.8-3.7,208-10.6c18.2-1.8,27.2-7.6,33.9-25
	c38.5-100.3,78.4-200,117.8-300c2.6-6.6,4.6-13.4,6.9-20.1c-13.9,4.4-24.5,11.6-34.7,19.2c-57,42.1-119.9,73-186.7,96.1
	c-83.5,28.9-170.1,41.1-258,44.6c-111.8,4.5-223.2-3.4-334.5-11.8c-54.6-4.1-109-5.2-162.9,6.7c-30.3,6.7-58,19-82.4,38.5
	c-9.4,7.5-17.3,16.1-16,29.1C1304.8,1294.6,1307.3,1309.2,1309.6,1325.4z M2058.6,543.8c-1.1,1.8-2.1,3.6-3.2,5.4
	c1.6,3.7,3,7.5,4.9,11c37,68.7,30.2,135.1-11.6,199.1c-23.8,36.4-58.3,60.7-96.8,78.9c-70.6,33.4-145.5,41.6-222.6,34.9
	c-40.3-3.5-80.7-6.7-121-10.7c-23.6-2.4-39.4,7.2-50.5,27.7c-17.8,33-24.9,68-23,105.2c0.9,18.5,2.8,20.5,21.3,24
	c24.4,4.5,48.9,8.1,73,13.7c76.1,17.6,153,26.7,231.2,21.4c34.6-2.4,69.5-4.9,101.9-18.7c73.4-31.5,136.7-77,185.6-140.8
	c33.5-43.8,54.3-93.7,52.7-149.2c-2.4-85.6-45.9-148-117.9-191.8C2075.3,549.3,2066.7,547.1,2058.6,543.8z M2427.9,931.9
	c-24.3-4.1-30.9-2.4-52.4,7.6c-25.4,11.9-50.7,24.5-77.1,33.8c-103.7,36.4-208.7,68.5-316,93c-82.8,18.9-166.5,27.5-250.9,13.7
	c-57-9.3-113.7-20.8-170.3-32.5c-39.9-8.3-79.1-6.7-117.3,6.6c-71,24.6-115.7,74.2-135.5,146.4c-1.4,5.1-1.1,10.8-1.8,18.7
	c6.8-3.2,11.4-4.8,15.4-7.3c43.5-26.7,91.5-38.4,141.8-37.9c57.8,0.5,115.8,1.6,173.4,6.1c83.4,6.5,166.7,10.6,250.2,7.2
	c71.1-2.8,141.9-9.7,210.7-29.3c109.5-31.3,211.2-76.5,291-161.7C2406.4,977.9,2420.2,958.2,2427.9,931.9z M2017.4,1449.8
	c-0.6-2-1.1-4.1-1.7-6.1c-8.2,0-16.4-0.3-24.6,0.1c-77.2,3.6-154-2.9-229.9-14.5c-75.9-11.7-150.8-29.1-226-44.8
	c-59.9-12.5-119.2-27.6-181-27.4c-98.6,0.2-167.7,47.7-212.5,133.3c-9.1,17.3-16.3,35.7-17.5,59.4c8.8-4.9,15.2-7.9,21.1-11.8
	c23.8-15.7,49.4-27.6,77.4-32.1c37.5-6,75.4-13.4,113-12.9c78.5,0.9,157,5.3,235.4,10.4c136.5,8.9,270.9-1.4,402.8-39.3
	C1988.4,1459.6,2002.8,1454.5,2017.4,1449.8z M2237.8,1688.9c0.3,1.6,0.7,3.3,1,4.9c24.2-2.7,48.4-5.6,72.7-8.1
	c100.3-10.3,200.8-19.4,300.9-31.2c66.4-7.8,132.4-19.4,198.6-29.6c17.1-2.6,19.5-5.3,20.6-22.2c0.9-14,0.5-28.1,0.9-42.2
	c1.7-59.6-13.1-114.7-44.9-165.1c-3.3-5.2-7.5-9.9-12.4-16.3c-3.1,7.1-5.5,11.5-6.9,16.2c-11,36.7-32.9,66.4-59.3,93.3
	c-43.7,44.6-97,74.2-153.6,98.4c-78.4,33.6-159.6,59.1-241.9,81.2C2288.2,1674.8,2263,1681.9,2237.8,1688.9z M2081.8,1004.9
	c0.2,1.4,0.4,2.7,0.6,4.1c22.9-6.4,46-12.1,68.5-19.5c61.2-20,122.2-40.9,183.3-61.1c22-7.2,31.3-21.5,30.8-44.7
	c-0.9-36.6-5.2-72.4-17.6-107.1c-30.7-85.5-92.1-143.4-167.9-188.6c-1.8-1.1-4.3-1-10.2-2.1c8.8,13.2,16,23.8,23.1,34.5
	c28.2,43,40.2,91,36.6,141.6c-4.8,67.4-32.2,126.1-78.8,175.2C2128.1,960.4,2104.7,982.4,2081.8,1004.9z M1614,830.9
	c11.2,1.7,17.6,3.1,24,3.5c28.9,2,57.7,4.4,86.6,5.4c29.7,1,59.6,2.2,89.2,0.4c56-3.4,109.4-17.1,156.7-48.7
	c57.4-38.4,86.8-91.9,82.6-161.6c-1.5-24.1-7.6-47.5-23.1-68c-2.9,2.8-3.8,3.3-4,4c-0.7,3.2-1.7,6.4-1.8,9.7
	c-1.8,52.7-26.9,92.6-68.2,123.4c-38.5,28.7-82.7,44.6-128.4,56.8c-46.3,12.3-92.9,23.3-139,36.4
	C1663.3,799.2,1639.4,810.5,1614,830.9z M2503.3,844.2c-1.9,0-3.8-0.1-5.7-0.1c-3.4,7.3-7.1,14.4-10.1,21.8
	c-17.6,43.6-34.5,87.5-52.6,130.9c-8.1,19.4-8.5,38-2.6,57.9c15.6,52.4,37.4,102.2,62.3,150.8c2,4,5.3,7.3,9.5,12.9
	c3.6-6.6,6.6-10.5,8.1-14.9c20.8-58.3,41.3-116.6,62.3-174.8c3.4-9.4,2.3-17.4-1.7-26.1c-8.7-18.7-16.7-37.7-25-56.6
	C2533,912,2518.1,878.1,2503.3,844.2z M2605.3,1047.9c-2.4-0.2-4.8-0.4-7.3-0.5c-34.8,99.1-69.6,198.1-104.8,298.5
	c5.9,0.8,8.6,2,10.4,1.2c41.3-16.5,82.7-32.4,123.5-50.2c15-6.5,22.6-21.1,25.9-37.3c7.7-37.7,8.9-75.5-0.3-112.9
	C2643.8,1110.4,2629.7,1076.5,2605.3,1047.9z M2404.9,1078.7c-17.3,41.4-33.8,78.3-48.1,116.1c-4.8,12.6-9,28.8-5,40.5
	c13.9,41.3,31.2,81.5,47.8,121.9c2,4.8,6.9,9.9,11.7,11.6c16.4,6,44.6-8.1,50.6-25.1c8.3-23.3,16.5-46.7,23.4-70.4
	c2.1-7.1,1.8-16.5-1.2-23.2c-21.6-49-44.2-97.7-66.6-146.4C2414.2,1096.2,2410.3,1089.2,2404.9,1078.7z M2594.1,965.3
	c3.8-5.8,6.2-8.3,7.3-11.3c17-46.5,34.4-92.9,50.2-139.9c2.4-7.2-0.6-17.7-4-25.3c-20.2-44.3-41.2-88.3-62.1-132.3
	c-2.2-4.7-5.8-8.7-8.9-13.3c-2.7,2.3-4.6,3.1-5.1,4.4c-17.7,44.5-35.7,88.9-52.5,133.7c-2.6,6.9-1.8,16.7,1.1,23.6
	c20.5,47.8,41.9,95.2,63.2,142.7C2585.6,952.9,2589.2,957.4,2594.1,965.3z M2652.3,445.6c-4.8,6.9-8.4,10.4-10.1,14.7
	c-15.4,38.3-31.1,76.5-45,115.3c-3,8.3-1.9,20,1.6,28.3c20.2,47.8,41.7,95.2,62.9,142.6c1.1,2.5,3.9,4.4,5.9,6.5
	c2.6-2.1,4.4-2.9,4.9-4.2c18.1-46,36.3-92,53.6-138.4c1.9-5.1-0.4-12.9-3-18.4c-18.8-40.4-38.1-80.5-57.4-120.7
	C2661.9,463.4,2657.6,455.7,2652.3,445.6z M2726,241.8c-2.4,2.1-4.2,2.9-4.7,4.2c-15.7,40.9-32,81.5-46.2,122.9
	c-3.7,10.9-4.4,25.5-0.3,36c18.4,46.8,39,92.8,59.1,139c1.5,3.4,4.9,5.9,9.6,11.5c4.3-9.7,7.9-16.8,10.6-24.2
	c8.2-22.5,16.1-45.2,24.2-67.7c6.4-17.9,18.7-35.8,18.1-53.4c-0.6-18.4-13.1-36.6-20.9-54.7C2759.3,317.6,2742.7,279.9,2726,241.8z
	 M2751.6,218.4c16.7,50.2,33.9,96.4,62.7,143.5c15.2-39.4,31.5-72.7,38.8-109C2819.2,241.4,2787.7,230.7,2751.6,218.4z M2324,1269.2
	c-15.8,43.7-29.9,82.4-45.2,124.8c35.1-3.5,65.6-5.7,96.3-16.1C2360.9,1339.7,2344.5,1306.3,2324,1269.2z M2767,180.2
	c22.5,24.1,62.8,39.2,86.9,33.6C2828.9,193,2802.7,180.9,2767,180.2z"/>
<path d="M1979.3,2672.9c26.5,0,53-0.4,79.4,0.1c27.9,0.6,37.8,11,36.4,38.2c-1.4,29.3-8.4,57.1-22.1,83.3
	c-22.1,42-60.3,55.7-103.6,55.4c-43.4-0.3-78.6-19.2-98.7-59.6c-14.4-28.9-17.2-60.3-15.1-92c1-15.7,5-19.7,22-21
	c33.8-2.5,67.7-3.6,101.6-5.2C1979.2,2672.4,1979.3,2672.6,1979.3,2672.9z M1903.8,2789.9c32.3,38.8,94.6,42.8,129.4,9.4
	c11.6-11.1,10.9-20.5-2.4-30.6C1993.8,2740.5,1934.6,2749.8,1903.8,2789.9z"/>
<path d="M2288,2752.5c-47.9,0.2-85.5-38.3-85.4-87.3c0.1-45.1,39.8-84,86.3-84.6c45.5-0.6,84.7,38.8,85.1,85.6
	C2374.3,2715,2337.3,2752.2,2288,2752.5z"/>
<path d="M1660.3,2753.1c-55.3,2.4-85.3-45-85.4-83.3c-0.2-47.8,38.4-86.2,86.4-86.1c46.7,0.1,83,36.1,83.7,82.8
	C1745.5,2716.6,1710.2,2752.8,1660.3,2753.1z"/>
<path d="M2431.8,2778.9c-2.7,6.3-4.2,12.1-7.4,16.7c-16.6,23.7-33.6,47-50.6,70.4c-6.1,8.4-13.5,12.7-23,5.4
	c-9.3-7.2-7.1-15.7-1.2-23.9c16.9-23.4,33.9-46.9,50.9-70.2c2.4-3.3,5.1-7.4,8.6-8.7c4.8-1.8,11.1-2.9,15.6-1.1
	C2428.1,2768.6,2429.5,2774.9,2431.8,2778.9z"/>
<path d="M1590.9,2784.8c-1.9,3.8-4,10.2-7.7,15.4c-16.4,22.6-33.2,44.9-50,67.1c-4,5.3-9.8,11.5-16.1,5.6c-4.6-4.3-7-12.2-7.8-18.7
	c-0.5-4,3.4-9,6.2-12.9c14.5-19.9,29.1-39.7,44.3-59.1c3.9-5,9.3-9.6,15-12C1583.5,2766.3,1591.3,2773,1590.9,2784.8z"/>
<path d="M1473.5,2856.9c-11,0.2-18.4-6.9-17-15.8c0.8-5.4,3.4-11.2,6.7-15.6c15-19.7,30.3-39.1,45.9-58.3
	c5.2-6.4,11.6-13.5,20.8-7.2c9.7,6.7,7.5,15.9,1.7,24c-16.3,22.8-32.9,45.3-49.8,67.7C1479.7,2854.6,1475.3,2855.9,1473.5,2856.9z"
	/>
<path d="M2311.6,2857.5c-11.6-0.3-17.3-7.1-15.4-16.6c0.8-3.9,2.4-8.1,4.8-11.2c15.2-19.4,30.4-38.8,46.5-57.4
	c2.9-3.4,12.8-5.8,14.6-3.9c3.8,3.8,7.7,13,5.7,16.3c-14.9,23.5-31,46.3-47.3,68.9C2318.5,2856.3,2313.4,2856.8,2311.6,2857.5z"/>
<path d="M2421.3,2876.5c-4.2-6.4-8.7-11.4-10.8-17.3c-1-3,1.6-8,3.8-11.2c13.7-19.4,27.6-38.7,41.8-57.9c4.7-6.3,11-10.9,18.9-5.6
	c8.4,5.6,8.6,13.9,3.3,21.5c-14.5,20.9-29.4,41.5-44.5,62C2431.7,2871,2427.4,2872.5,2421.3,2876.5z"/>
<path d="M1619.9,2790.2c14.1-0.2,21.5,9.7,15.8,18.4c-14.2,21.2-29.5,41.6-45.3,61.6c-2.3,3-11.7,4.1-14.7,1.9
	c-4.3-3.2-7.9-10.2-7.9-15.7c0-4.9,4.8-10.2,8.2-14.8c9.9-13.2,19.8-26.3,30.3-39C1610.6,2797.3,1616.6,2793.1,1619.9,2790.2z"/>
</svg>
