<?xml version="1.0" encoding="utf-8"?>
<!-- Generator: Adobe Illustrator 24.3.0, SVG Export Plug-In . SVG Version: 6.00 Build 0)  -->
<svg version="1.1" id="Layer_1" xmlns="http://www.w3.org/2000/svg" xmlns:xlink="http://www.w3.org/1999/xlink" x="0px" y="0px"
	 viewBox="0 0 4000 4000" style="enable-background:new 0 0 4000 4000;" xml:space="preserve">
<path d="M1964.5,3389.1c-245.9,3.5-512.5-23.7-774.4-87.1c-202.3-49-393.9-124.9-561.7-252.8c-190.5-145.3-317.9-333.4-374.7-565.4
	c-101.2-413.9-63.4-813.6,143.2-1190.3c127-231.5,308.2-413.4,533.5-551.2c248.8-152.1,520.5-235,808.7-268.2
	c249.3-28.8,497.1-17.6,742,35.9c267.9,58.6,517.5,161.1,734.1,333c304.5,241.6,492.5,552.4,544.5,940.2
	c33.3,247.9,19.1,493-46.7,735.5c-67.4,248.4-212.3,437.5-425.9,576c-174.7,113.2-368.6,179.2-570.4,224.1
	C2476.9,3372.2,2233.3,3389.1,1964.5,3389.1z M1983.3,3261.3c206.9,2.1,409.9-14.5,611.2-51.4c172.3-31.6,340.4-76.8,498.6-154.5
	c144-70.7,270.1-162.9,364.7-294.5c91.8-127.7,140.1-272.6,166.9-425.5c28.6-163.5,30-328.3,14.2-493.1
	c-14.3-148.6-52.9-291.3-117.9-426.1c-116.3-241.3-294.9-425.9-521.5-565.4c-260.5-160.4-547.6-234.6-849.9-258.4
	c-185.2-14.6-368.7-0.6-550.9,32.8c-300.1,55.1-572,172.7-802.1,376.1c-278.2,245.8-429.9,556.6-459.4,925.9
	c-10.7,133.9-6.3,268,14.5,401.5c52.4,335.8,232.6,577.3,534.6,729.9c153.5,77.6,317.4,122.9,485.9,152.3
	C1575.1,3246.1,1779.5,3264.3,1983.3,3261.3z"/>
<path d="M1367.8,2293.5c-72.1,0.4-131.4-55.1-132.4-123.8c-1-69.1,57.4-131.3,124.7-132.6c70.2-1.4,131,56.3,131.4,124.6
	C1491.9,2234.2,1436.5,2293.2,1367.8,2293.5z"/>
<path d="M2415.7,2041c74.1,0.7,129.2,56.8,128.3,130.6c-0.9,73-54.5,124.8-128.8,124.2c-68.9-0.6-127.3-59.8-127.1-128.9
	C2288.4,2095,2343.8,2040.3,2415.7,2041z"/>
<path d="M1900.7,2524.1c-113.9-0.2-200.3-58-232.5-152.5c-4-11.7-8.5-24.9-6.7-36.4c1.3-8.4,11.4-18.6,19.9-21.7
	c5.6-2,17.6,5.3,22.6,11.7c6.7,8.4,9.1,20.1,13.7,30.3c48.8,108.2,177.4,147.2,278.3,84.6c29.4-18.3,51.4-42.4,63.6-75.1
	c4.4-11.7,8.5-23.6,13.8-35c7.8-16.6,21.7-21.5,38.3-15.3c16.3,6.1,18,19.6,13.9,34.6c-16.6,59.9-47,110.2-102.5,141.8
	C1983.6,2513.6,1941,2525.3,1900.7,2524.1z"/>
<path d="M2597.3,2521c-26.9-6.6-59-11-88.3-22.6c-36-14.3-59.4-42.7-58.4-83.8c0.9-39.2,24.5-65,58.6-79.8
	c55.9-24.2,114.2-25.7,171.7-6.7c45.1,14.9,74.3,51.6,74.2,86.7c-0.1,40.3-31.1,78.4-78.6,92.2
	C2652.7,2513.8,2627.4,2515.8,2597.3,2521z M2597.3,2468.2c26.6-6.9,54.5-10.7,79.5-21.4c32.6-14,34.1-39.1,7-60.8
	c-37.6-30.2-134.8-25-169.2,9c-15.4,15.2-14.9,25.6,0.9,42.8C2537.5,2462,2566.3,2464,2597.3,2468.2z"/>
<path d="M1174.6,2522c-29.5-7.2-59.8-12.2-88.3-22.3c-33.8-12-57-37.7-60-74c-3.1-38.1,16.5-69.8,49.3-86
	c66.9-33.1,136.8-39.7,204.4-1.3c58.4,33.2,63.2,98.6,12.9,143.1C1259.3,2511.3,1218.3,2516.9,1174.6,2522z M1172.4,2469.8
	c27.5-8.3,56.6-13.5,82.1-25.9c29-14,28.8-39.7,3.3-59.3c-38.8-29.8-131-25.3-165.8,8.2c-19.2,18.5-17.7,33.8,3.5,52.3
	C1117.6,2464.4,1144.1,2463.8,1172.4,2469.8z"/>
</svg>
