<?xml version="1.0" encoding="utf-8"?>
<!-- Generator: Adobe Illustrator 24.3.0, SVG Export Plug-In . SVG Version: 6.00 Build 0)  -->
<svg version="1.1" id="Layer_1" xmlns="http://www.w3.org/2000/svg" xmlns:xlink="http://www.w3.org/1999/xlink" x="0px" y="0px"
	 viewBox="0 0 4000 4000" style="enable-background:new 0 0 4000 4000;" xml:space="preserve">
<path d="M1299,1148.6c-0.7-13.4-1.3-26.6-2.2-39.7c-6.6-94.7,26.8-172.6,100.9-231.6c36.6-29.1,79.6-47.4,124.6-60.5
	c7.1-2.1,14.1-4.3,21.8-6.7c2.2-15.2,3.3-30,6.6-44.4c21.9-95.5,84.1-155.4,171.7-192.3c48.5-20.4,100.7-27.3,151-40.7
	c25.4-6.8,50.9-15.6,73.9-28c49.4-26.7,51.8-93.9,8.9-125c-2.7-1.9-5.1-4.2-7.8-6.2c-11.8-9.1-16.5-20.8-11.5-35.1
	c5-14.4,14.9-24.4,30.9-24.8c16.5-0.4,33.7-2,49.6,1.7c89.2,20.7,168.9,60.4,231.5,128.3c44.2,47.8,72.8,104.7,80.5,170.4
	c1.4,11.8,6.1,17.9,16.5,21.8c15.5,5.8,31.8,10.6,45.9,18.9c17.7,10.4,33.7,23.8,50.2,36.2c5.1,3.8,9.6,8.3,15.8,13.6
	c4.4-6.1,8.3-10.3,10.6-15.3c75.4-160.6,150.8-321.2,225.6-482c22.3-48,38.4-58.9,90.7-53.9c44.3,4.2,82.9,22.4,116.2,51.7
	c7.4,6.5,13.7,14.5,19.3,22.7c16.5,24.3,20.6,49.6,6.9,77.4c-30.5,61.7-60.3,123.8-90,185.8c-59.1,123.4-118,246.9-177.1,370.3
	c-7.9,16.4-15.8,33-25,48.6c-7.3,12.3-5.3,20.5,4.9,30.2c33.9,32.3,55.1,72.1,66.9,117.2c7.9,30.3,8,60.7,4.9,91.4
	c-2.4,23.3-2.8,23.1,18,34.3c87.9,47,143.9,118.8,163.6,216.6c5.7,28,4.8,57.7,4.3,86.6c-0.2,15.6,2,27.7,12,40.8
	c36.1,47.2,41,98.3,13.1,151.5c-4.2,8-9.4,16-16,21.9c-12.5,11.2-18.2,24.3-20.5,40.9c-19,137.2-38.7,274.2-58.4,411.3
	c-36.3,252.8-72.7,505.6-108.9,758.5c-25.4,177.3-51.6,354.5-74.9,532.1c-9.6,73.3-48.8,121.3-112,153.3
	c-62.7,31.7-130,49.4-198.4,63.2c-150.5,30.4-302.6,38.4-455.6,29.6c-126.1-7.2-250.9-23.5-371.5-63.7
	c-40.4-13.4-78.3-31.5-113.8-55.2c-43.5-29-67.4-69.5-74.3-121c-11.2-83.8-22.8-167.6-34.3-251.4c-17.4-127.4-34.6-254.7-52.2-382.1
	c-15.7-113.4-31.5-226.7-47.7-340c-17-119-34.8-238-51.7-357c-13.1-92.8-25.3-185.7-38-278.5c-4.4-32-9.4-64-13.3-96.1
	c-1.8-14.6-7.7-26-17-37.6c-33.3-41.5-45.7-87.5-26-139.5c6.6-17.4,15.4-33.1,30.1-44.8c9.6-7.6,11.3-16.6,9.7-28.5
	c-19.3-143.5,49.2-267.4,180.7-327.8C1271.7,1160.3,1284.7,1154.9,1299,1148.6z M2831.4,1715.4c-10.7,2.8-17.9,4.3-24.7,6.6
	c-129.6,43.7-264.2,64-399.1,79.6c-150,17.4-301,24.1-452.1,21.8c-146.9-2.2-293.5-9.6-439.5-26.5
	c-114.7-13.2-227.9-33.7-338.2-68.7c-13-4.1-25.8-8.5-41.3-13.7c1.4,14.9,2.1,26.4,3.7,37.7c13.4,94.4,27.1,188.8,40.4,283.3
	c29.6,209.4,59.1,418.9,88.5,628.3c17.3,123.2,34.2,246.5,51.5,369.7c18.7,133.9,38.8,267.6,55.8,401.7
	c5.6,43.9,26.4,75.1,63.5,94.8c32.8,17.4,67,33.2,102.3,44.6c107.2,34.8,218.4,47.7,330.3,55.1c93.7,6.2,187.3,4.7,280.9-4.1
	c91.9-8.7,182.5-23.7,270.8-51c42.8-13.2,84.5-29.6,120.6-57.5c22.1-17.1,35.7-38.3,39.3-66.5c5-39.5,11.4-78.8,17-118.2
	c17.6-123.1,35.1-246.2,52.5-369.4c15.5-109.2,30.6-218.4,46.2-327.6c22.6-158.4,45.5-316.8,68.2-475.1
	c15.9-110.8,31.8-221.6,47.7-332.4C2820.7,1792.2,2825.7,1756.2,2831.4,1715.4z M1131,1421.9c-5.5,34,0.1,62.4,3.6,91.1
	c4.2,33.7,21.7,54.6,54.1,63.4c46.4,12.5,92.3,27.1,139.2,37.1c126.8,27.2,255.6,40.5,384.8,48.4c168.2,10.4,336.6,12.3,505,2.3
	c128.5-7.7,256.1-21.8,382.5-45.9c65.2-12.4,129.7-27.5,192.8-48.4c19.9-6.6,32.9-18.1,38.3-38.5c19.2-72.3,13-141.5-26.8-206
	c-8-13-18.4-24.6-28.8-38.3c-13.4,10.1-23.9,18-34.4,26c-16.5,12.5-32.4,26-49.6,37.4c-80.7,53.8-168.9,91.1-260.8,121.1
	c-167.8,54.7-340,80.4-516.1,82.5c-97.2,1.2-194-3.8-290.5-15.6c-71.7-8.8-143-19.7-212.7-38.6c-74.4-20.1-148.1-42.7-222.2-63.8
	C1171.4,1430.9,1152.8,1427.1,1131,1421.9z M2758.8,1271c-13.7-9.9-22.5-17.4-32.3-23c-15.8-9.1-32.4-16.8-48.4-25.5
	c-27.2-14.6-28-15.1-49.8,4.9c-30.8,28.4-65.7,50.4-103.4,68.2c-93.8,44.4-192.6,70.7-295.9,80.3c-111.2,10.4-222.1,6.8-332.4-9.4
	c-120.8-17.8-238.3-49.6-355.6-82.8c-65.3-18.5-130.7-38.8-197.5-49.3c-82.1-13-87.3-14.1-151.7,51.4
	c-29.5,29.9-47.7,66.9-55.8,109.6c7.8,2.8,13.8,5.2,20,7c32.6,9.5,65.6,17.6,97.7,28.5c144.4,49.3,292.9,78.6,444.6,91.8
	c110.9,9.7,222,10.6,333.1,1.6c97.7-7.9,194.4-21.6,289.5-45.6c130.2-32.8,254.6-79.7,367.5-154
	C2711.8,1309.5,2734.5,1293.3,2758.8,1271z M2583.1,970.6c-5.5,9.6-9.8,16.3-13.3,23.4c-14.6,29.7-29.3,59.5-43.4,89.5
	c-7.6,16-18.8,28.2-36.7,30.3c-72,8.8-139.2,2.6-186.5-64.3c-7.3,2.9-14.9,6.2-22.6,9c-49.7,18.3-98.8,38.8-149.3,54.5
	c-126.4,39.3-256.6,58.2-388.5,67c-107.7,7.1-215.4,7.8-323.2,2.5c-9.1-0.5-18.3-0.7-27.4-0.1c-23.6,1.5-45.9,7.9-71.3,21.4
	c22.3,3.9,39.7,5.6,56.4,10c71.2,19,142.5,37.7,213.2,58.7c157.9,46.9,318,80.3,483.5,83.9c115.1,2.5,228.8-6,338.9-41.7
	c74.6-24.1,145.2-56,205.5-108c27.9-24,41.9-52.9,40.2-89.3c-2.2-48.9-19-92.3-52.5-128.4C2600.3,982.6,2592.6,978,2583.1,970.6z
	 M2860.5,1563.2c-28.8,23-62.7,31.6-96,41.5c-96.4,28.5-195.1,45.3-294.4,60.2c-99.4,15-199.2,23.9-299.5,28.3
	c-189.3,8.3-378.3,4.5-566.9-14.4c-102.3-10.3-204.4-23-304.8-46.2c-61.2-14.1-123.6-26.1-176.5-63.9c-12.2-8.7-17.6-6.2-26.3,6.9
	c-20.6,31.1-11.4,79.1,20.5,99.2c15.3,9.6,32.3,17,49.3,23.3c90.8,33.3,185.6,50.4,280.7,64.1c133.9,19.3,268.8,28.6,404.1,32.5
	c248.6,7.2,496-3,741.3-46.9c72.6-13,145.1-27.1,214.2-54.1c16.2-6.3,32.8-12.5,47.3-21.7
	C2889.6,1649.2,2893.8,1592.4,2860.5,1563.2z M1438.8,922c0.4,1.8,0.7,3.7,1.1,5.5c4.7,0.6,9.5,1.9,14.2,1.8
	c46-0.3,90.4,9.6,134.8,20.5c78.2,19.2,157.3,33.5,237.4,40.9c123.7,11.4,246.9,5.6,368.7-19.9c61-12.8,120.3-31.3,175.9-59.9
	c10-5.2,21.3-12.1,26.6-21.3c14.4-25.1,26.2-51.6,38.3-77.9c6-12.9,3.9-25.9-2.9-38.3c-14.2-25.9-31.8-49.1-59.2-61.9
	c-20.9-9.8-43.3-16.3-64.5-25.5c-12.4-5.4-19.8-1.6-27.6,8.1c-19.5,24.3-44.6,41.8-71.8,56.6c-45.4,24.7-93.4,43.2-143.2,55.9
	c-116.8,29.8-236.2,43.1-356.2,50.7c-47.9,3-96.1,4.4-143.7,10.1C1519.3,873,1476.9,893.5,1438.8,922z M2376.6,934.9
	c-9.8,3.2-13.6,4.1-17.2,5.6c-21.5,8.6-42.8,18-64.6,25.9c-68,24.9-138.3,38.8-210.4,46.3c-104.5,10.9-208.9,10.3-312.5-4.8
	c-77.8-11.3-154.4-29.8-231.9-43.4c-35.7-6.3-72.1-9.4-108.3-12.7c-22.1-2-37.6,9.6-48.7,28.3c-15.4,26.2-25.4,54.3-28.2,84.3
	c-2.8,30.3-4.6,61,6.5,90.8c5.1,0.7,9.2,1.7,13.2,1.8c96.2,1.1,192.4,4.5,288.5,2.3c116.1-2.6,231.6-14.7,345.5-38.9
	c101.6-21.6,200.8-50.7,292.8-100.4c6.3-3.4,14.1-5.6,21.1-5.4c10,0.2,15.7-4.2,19.8-12C2352.9,981.9,2363.2,961.2,2376.6,934.9z
	 M2046.1,380.8c-0.7,1.3-1.5,2.7-2.2,4c3.2,4.4,5.8,9.4,9.7,13c58.6,55.1,52.1,159.9-20.6,213.9c-24.2,17.9-50.6,32.7-80.1,38.8
	c-42.1,8.8-84.7,15.8-127.3,21.3c-47.7,6.1-95.9,9.8-141.5,26.2c-19.9,7.2-40.3,16.8-56.1,30.4c-21,18.1-31.2,80.8-22.4,110.4
	c3,0.3,6.3,1.2,9.5,0.9c89.2-7.6,178.6-13.9,267.6-23.4c77.6-8.3,153.9-24.4,228.1-49.3c41.8-14,81.8-32,118.7-56.5
	c34.4-22.9,50.1-52.7,42.1-95.3c-10.1-53.9-32.5-100.8-71.2-139.5c-37.3-37.3-80.5-66.5-129.2-87.1
	C2063.1,385.1,2054.5,383.3,2046.1,380.8z M2591.2,562.7c-5.5,9.2-9.7,15-12.7,21.3c-20.6,43.4-40.2,87.3-61.9,130.2
	c-9.6,19-12.9,37.5-6.9,57.5c14.4,47.5,29.2,94.9,44.2,142.3c1.9,5.9,5.8,11.1,9.9,18.9c3.9-5.4,6.7-8.3,8.3-11.7
	c25.5-53.9,50.7-108,76.5-161.7c4.5-9.3,2.8-16.8-0.3-25.9c-17.1-50.2-33.3-100.6-49.9-150.9C2596.7,577.2,2594.6,572,2591.2,562.7z
	 M2696,348.9c-2.2,1.6-4,2.3-4.6,3.6c-25.5,52-50.9,104.1-76.5,156.1c-5,10.2-6,20.1-2.7,31.1c15.3,50.7,30.1,101.5,45.4,152.2
	c1.8,5.8,5.9,10.9,11.5,20.9c3.3-6,5.1-8.8,6.5-11.8c25.1-51.3,50.6-102.4,74.6-154.2c3.7-7.9,2.4-19.6-0.1-28.5
	c-6.6-23.9-15.3-47.2-22.9-70.9C2716.7,414.8,2706.5,382,2696,348.9z M2485.7,782c-4.1,3-5.9,3.7-6.6,4.9
	c-25.3,50.2-50.6,100.5-75.4,151c-3.1,6.4-5.4,14.9-4,21.5c8.9,40.3,18.5,80.5,29.1,120.4c1.6,6,8.6,12.9,14.6,14.9
	c18.1,6.1,47.2-5.6,55.9-22.3c15.5-30.2,29.8-61,44.6-91.5c5.5-11.2,4.4-21.6-0.5-33.2c-9.7-22.8-17.9-46.2-26-69.7
	C2506.7,846.8,2496.7,815.4,2485.7,782z M2769.7,492.2c15.3-15,91.3-172.7,94.4-196.2c-43.2-9.2-80.2-31.9-117-59.6
	c-18,29-34.5,54.4-29.5,88.8c7.8,53.6,26.3,104,44.6,154.5C2763.7,484.2,2767.1,488,2769.7,492.2z M2050.9,431.7
	c-2.4,9.4-4.6,16.2-5.9,23.2c-9,50.1-36.4,87.3-82.4,108c-28.4,12.8-59.1,20.8-89.2,29.5c-43.6,12.7-88.1,22.5-131.3,36.6
	c-24.3,7.9-46.9,21.4-65,40.9c5.5,0.8,10.3-0.1,15.1-0.9c36.7-6,73.4-12.1,110.1-17.8c41.7-6.4,83.8-10.8,125.1-19
	c40.2-8,77-24.6,107.4-53.7C2069.1,545.6,2082.4,486,2050.9,431.7z M2876,267.8c-11.9-35.4-74.3-65.9-107.1-53.9
	C2782.9,242.2,2841.8,272.5,2876,267.8z M2382.3,992.9c-1.7-0.1-3.4-0.1-5.1-0.2c-8.9,18.5-18,37-26.8,55.6c-3.4,7.2-4.6,15,3.2,20
	c15,9.6,30.1,19.7,53.1,16.2C2398.2,1052.5,2390.3,1022.7,2382.3,992.9z"/>
<path d="M1353.4,2148c0-7.3,0.8-13.9-0.1-20.2c-10.9-76.3-22.2-152.6-33-229c-1.7-12.3-2.7-24.8-2.7-37.2c0-19.7,8.2-29.8,27.1-32.4
	c21-2.9,41.5,0.9,60.5,10.1c16.1,7.7,20.7,23.1,22.9,39.1c5.1,37.8,10,75.6,14.3,113.6c4.1,36.3,7.4,72.6,11.2,108.9
	c0.7,6.4,2.4,12.8,4.2,21.8c241.6-31.4,483.1-38.6,727.1-26.2c1.6-10.1,3.3-18.8,4.2-27.7c3-28.9,14.4-54.4,31.4-77.4
	c35.2-47.5,91.7-58.8,143.3-29c3.5,2,7.1,3.9,12.6,6.8c43.1-41.2,61.1-93.1,68.3-150.1c17.7,6.6,20,9.1,17.9,26
	c-3.7,29.9-12.9,58.3-27.2,84.8c-9,16.7-19,32.9-28.9,50c71,20.5,95.4,70.8,86,140.4c31.6,7.5,60.9,13.1,89.4,21.5
	c24.5,7.2,49.1,15.6,72,26.8c29,14.3,33.2,27.2,28.6,58.5c-13.2,89.4-26.1,178.9-38.9,268.3c-19.1,133.8-38.3,267.6-57.1,401.5
	c-16.1,115-31.6,230-47.6,345c-8.5,60.8-18.6,121.3-25.6,182.3c-3.8,33.1-21,52.2-50,64.8c-45.9,20-94.1,32-143,41.2
	c-100.4,18.8-201.7,30.4-304,29.6c-62.2-0.5-124.6-0.1-186.5-4.4c-99.3-7-198-19.9-292.6-53.7c-17.1-6.1-33.2-14.9-49.6-22.7
	c-23.8-11.4-35.5-30.5-38.5-56.7c-4.3-38.7-10.2-77.3-15.4-115.9c-14-103.5-28.1-207-42.1-310.6c-16-118.3-31.8-236.6-47.8-355
	c-17.7-130.6-35.4-261.2-53.1-391.9c-1-7.4-0.9-15-2.5-22.2c-7.4-32.6,8.6-52.1,35.8-65.6C1333.4,2156.4,1343.4,2152.4,1353.4,2148z
	 M1319.1,2257.6c0.5,7.8,0.6,15.1,1.6,22.3c2.5,18.9,5.5,37.7,8,56.7c13.8,107.7,27,215.6,41.5,323.2
	c27.6,205.5,55.9,410.8,84,616.2c6.5,47.6,13.4,95.2,19.6,142.9c2.9,21.8,13.7,37.3,34.2,44.9c29.5,10.9,58.8,23,89.1,30.8
	c105.7,27.1,213.9,36.7,322.6,40.3c105.5,3.5,210.7-1.5,315.3-15c68.3-8.8,135.4-23.4,200.9-45.5c36.7-12.4,53.6-34.7,58-73.7
	c11.6-102.9,26.4-205.4,40.8-308c20.8-148.5,42.3-296.9,63.4-445.4c17.5-123.9,34.8-247.8,52.1-371.7c0.8-5.9,0.1-12.1,0.1-19.8
	c-29.2,8.7-55.7,18.3-83.1,24.5c-115.1,26-232,39.8-349.8,44c-173.3,6.1-346.7,8.3-519.8-4.1c-65.2-4.7-130-15.3-194.9-23.1
	c-8.7-1.1-17.5-1.8-28.9-2.9c0.6,12.6,1.4,22.3,1.6,32c0.4,17.4,2.3,35,0.2,52.1c-3.7,30.2-27.4,43.2-56.4,33.9
	c-16.6-5.4-27.1-16.3-30.6-32.8c-4.3-20.2-7.8-40.7-10.3-61.2c-6.9-57.3-0.7-45.4-52.9-61.8
	C1324.5,2256.1,1323.6,2256.6,1319.1,2257.6z M1458.9,2149.5c3.2,37.8,6,70.8,8.7,103.7c0.9,10.7,6.1,16.3,17,17.7
	c36.2,4.7,72.1,11.8,108.4,14.4c92.6,6.6,185.3,12.8,278,16.4c193.4,7.5,386.2-1.3,578.2-26.3c60-7.8,119.5-19.2,176.8-39.2
	c10.7-3.7,21.1-9.6,30.2-16.4c7.8-5.8,8.2-14.6-0.3-21c-7.2-5.4-14.9-11.3-23.3-13.8c-37.2-11.3-74.3-23.3-112.2-31.6
	c-40.5-8.9-32.9-10.3-51.3,23.3c-25.8,47.1-65.5,71.2-119.9,69.5c-6.6-0.2-13.3,0-19.9-0.4c-64.3-4-118.6-46.6-137.7-107.8
	c-1.4-4.6-3.5-9-5.6-14.3C1943.4,2111.2,1702.2,2115.4,1458.9,2149.5z M2420.5,2011.2c-13.1,20.2-22.3,23.3-45,17
	c-20.1-5.5-30.9-17.2-29.7-36.6c0.7-11.9-4.1-16.3-13.7-19.8c-19.3-6.9-37.5-3.9-55.1,5.3c-51.3,26.6-67.6,71.9-66.6,126.2
	c0.9,46,23.3,78.5,63.6,98.7c13.2,6.6,27.6,11.3,41.9,14.8c97.1,24,155.5-55.5,156.3-124C2472.6,2055.7,2457,2027.5,2420.5,2011.2z
	 M1456.9,2358c-0.3-3-0.8-8-1.3-12.9c-5.5-52.7-10.9-105.5-16.4-158.2c-10.3-98.9-20.6-197.8-31.1-296.6
	c-3-28.4-15.8-38.8-44.7-37.7c-19.5,0.7-23.8,4.9-22,23.9c2.8,28.9,5.8,57.8,9.7,86.5c14.8,109.2,29.8,218.4,45,327.6
	c3.5,25.4,7.1,50.9,12.1,76.1c3.5,17.8,14.4,25,29.7,22.9C1451.8,2387.6,1457,2379.7,1456.9,2358z M1356.5,2173.3
	c-15.8,9.2-29.1,15.4-40.5,24.1c-9.4,7.2-8.9,15.7,0.1,22.7c14.3,11,30.3,18.5,51.7,20.7C1364.1,2219.1,1360.8,2199.2,1356.5,2173.3
	z M2401.3,2006.2c0.2-1.2,0.4-2.3,0.6-3.5c-4.7-1-9.5-2-14.2-3c-0.2,1.7-0.5,3.4-0.7,5.1C2391.8,2005.2,2396.6,2005.7,2401.3,2006.2
	z"/>
<path d="M2306,2928.8c-53,0.2-90.6-37.2-91.1-90.8c-0.5-51,39.3-89,93.2-88.9c50.1,0.2,86.9,36.8,86.8,86.2
	C2394.7,2888.9,2357,2928.6,2306,2928.8z M2312.1,2810.9c-0.4,14.9,7.8,25.7,20.1,26.4c15.4,0.9,31.4-11.7,31.7-25.1
	c0.3-13.8-13.1-27.2-26.8-26.9C2323.2,2785.6,2312.5,2796.5,2312.1,2810.9z"/>
<path d="M1650.9,2928.7c-49.2-0.2-87.4-39.1-87.2-89.1c0.1-37.2,30.6-88.4,89.3-87.6c51.5,0.7,90.3,38.3,90.1,88.9
	C1743.1,2895,1707.3,2929,1650.9,2928.7z M1648.4,2811.4c-0.1-14.8-9-24.6-22.2-24.4c-14.6,0.2-25.9,12.7-25.3,27.9
	c0.5,11.9,10.1,21.1,22.7,21.4C1637.8,2836.8,1648.5,2826.1,1648.4,2811.4z"/>
<path d="M2482.7,2491.9c39.9-10.7,76.9-29.5,117.9-27.3c6.1,11,0.2,15.3-7.3,17.9c-18,6.2-36.3,11.4-54.3,17.7
	c-17.8,6.3-35.2,13.6-51.6,19.9c-0.3,4.7-1.1,6.9-0.4,7.7c39,44.5,14.3,113.5-26.5,138.8c-42.5,26.5-88,33.3-135.7,17.9
	c-47.3-15.3-70.5-52.4-83.3-97.7c-25.4-89.6,55.7-186.8,158.8-170.7c26.1,4.1,48.1,17.9,62.8,40.9
	C2469.9,2467.3,2475.3,2478.5,2482.7,2491.9z M2452.5,2493.6c-8.9-32.8-30.2-51.4-65.2-54.6c-21.2-1.9-41.2,2.2-60.2,11.7
	c-42.7,21.4-68.7,62.7-65.9,105.5c3.5,53.7,31.6,95.3,76.8,108.4c41.4,11.9,80.6,4.4,114.9-22.5c14.8-11.6,24.3-27.2,28.8-45.5
	c6.7-27.7-1.2-41.4-28.4-50.8c-12.2-4.2-23.6-19.5-20.4-32.6C2434.6,2506.6,2444,2501.8,2452.5,2493.6z"/>
<path d="M1984.3,2892.5c3.7,8.5,9.9,16.8,10.7,25.6c2.4,29.3,21.9,43.5,45.2,54.1c18.9,8.7,34.8,2.6,42.2-16.9
	c4.9-12.9,6.2-27.2,8.3-41c1.4-9.5,1.2-19.3,1.7-28.6c23.4-1.8,27.3,0.7,28,18.7c1.3,32.5-5.5,62.6-29.2,86.9
	c-5.2,5.3-10.9,10.5-14.7,16.8c-32.4,53.3-132.5,59.4-183.9,9.8c-29.3-28.2-53-59.9-50.3-103.8c0.5-8,2.4-16.6,6.2-23.4
	c2.1-3.8,9.7-6.4,14.6-6c2.9,0.2,6.6,6.8,7.7,11.1c1.5,5.5,0,11.6,1.1,17.3c2.4,12.9,3.7,26.5,8.7,38.4c10.3,24.2,29.1,30,52.6,18
	c18.3-9.3,28.1-24.9,32.7-44.5c2.6-10.8,6.3-21.3,9.6-32C1978.4,2892.9,1981.4,2892.7,1984.3,2892.5z M2044.6,3006.1
	c-18-10.7-34.1-20.7-50.7-29.8c-4.6-2.5-12-4.9-15.9-2.9c-20.8,10.7-40.8,22.8-61.1,34.5C1946,3035.7,2014.9,3035.6,2044.6,3006.1z"
	/>
<path d="M2394.3,3055.3c-23-5.9-46.4-10.5-68.8-18.2c-15.2-5.2-26.8-16.6-27.9-34.6c-1.1-17.8,8.9-29.2,22.7-38.4
	c40.3-26.7,111.3-26.7,151.1,0.1c28.3,19.1,28.2,50-0.3,68.6C2453.6,3044.4,2424.2,3051.7,2394.3,3055.3z M2392.8,3031.6
	c19.8-4.9,40.6-7.6,59.2-15.4c20.2-8.5,19.9-22.9,1.6-34.7c-4.8-3.1-10.1-5.7-15.6-7.5c-31-10.1-61.9-8.8-92.5,1.6
	c-4.6,1.6-9.2,3.9-13.2,6.7c-16.5,11.6-16.4,20.9,0.3,32C2350.7,3026.1,2370.9,3029.1,2392.8,3031.6z"/>
<path d="M1574.7,3052.5c-26.8,0.2-50.3-3.4-72-14.9c-33.6-17.8-35.8-52.7-3.3-72c49.8-29.5,101.4-27.1,151.1-0.3
	c28.8,15.5,27,54.1-1.7,70.6C1625.1,3049.5,1599,3053,1574.7,3052.5z M1492.5,3002.1c12.3,8.1,18.4,14,25.7,16.8
	c34.2,13.1,69.2,14,104.3,3.7c5.4-1.6,10.7-4.5,15.2-8c12.6-9.9,12.3-20.6-0.6-30.3c-3.9-2.9-8.5-5.3-13.1-6.9
	c-34.8-12.4-69.7-12.5-103.7,2.3C1511.4,2983.6,1504.4,2992.2,1492.5,3002.1z"/>
<path d="M1493.2,2551.9c0,7.4,0.7,14.9-0.1,22.3c-2.1,19.3-13.5,32.6-29.3,35.3c-19.9,3.4-37.2-3.9-45.9-21.4
	c-14.4-29.1-16.9-60.2-10.2-91.7c3.7-17.2,21.1-31.5,36.5-32.5c17.6-1.2,34.1,10.5,41.2,29.5c2.3,6.2,4.1,12.6,5,19.1
	c1.8,13.1,2.8,26.2,4.1,39.3C1494.1,2551.8,1493.7,2551.8,1493.2,2551.9z M1470.3,2549.1c-1.2-13.7-1-23.8-3.2-33.3
	c-2-8.6-5.2-17.6-10.4-24.5c-7.2-9.7-19.4-8.4-23.5,2.9c-10.6,29.2-7.2,58.4,5.8,86.1c2,4.3,11.3,8.2,16.4,7.3
	c4.9-0.9,10.9-7.6,12.4-12.8C1470.4,2565.3,1469.9,2555.2,1470.3,2549.1z"/>
</svg>
