<?xml version="1.0" encoding="utf-8"?>
<!-- Generator: Adobe Illustrator 24.3.0, SVG Export Plug-In . SVG Version: 6.00 Build 0)  -->
<svg version="1.1" id="Layer_1" xmlns="http://www.w3.org/2000/svg" xmlns:xlink="http://www.w3.org/1999/xlink" x="0px" y="0px"
	 viewBox="0 0 4000 4000" style="enable-background:new 0 0 4000 4000;" xml:space="preserve">
<path d="M2128.8,2781.3c0,25.2-1.3,47.9,0.2,70.4c7.4,112.4,15.8,224.7,23.2,337.1c6.7,101.9,13.5,203.8,18.1,305.8
	c2.5,55.3,2.4,111.3-14,164.8c-9.1,29.8-20.8,59.9-37.5,86c-41.5,64.7-104.5,89.1-179.6,84.6c-101.9-6.1-175.6-74-193.7-182.4
	c-7-42-9.4-85.7-7.3-128.3c4.8-101,13.3-201.8,20.7-302.7c3.8-51.4,8.4-102.7,12.5-154.1c7-86.6,13.9-173.1,20.7-259.7
	c0.6-8.2,0.1-16.5,0.1-28.5c-13.1,0-24.3,0-35.5,0c-88.8,0.1-177.6-0.1-265.9-12c-26.4-3.6-53.1-7-78.9-13.5
	c-118.6-29.6-187.1-106.8-205.2-226.4c-7.2-47.8-8.2-97.1-7.4-145.6c2.3-129.8,6.7-259.6,11.2-389.4c3.7-105.9,6.4-211.9,13.7-317.6
	c12.4-179,21.5-358.3,45-536.3c20.1-152.6,50.3-303.1,104.3-447.8c49.6-133.1,118.2-255.1,222.4-353.2
	c180.7-170,394.9-237.9,640.1-194.8c148.5,26.1,252.3,115,321.2,247.5c44.4,85.4,73.7,175.6,93.4,269.6
	c25.8,123.6,41.8,248.3,51.2,374.2c13.5,181,21.4,362.1,23.2,543.6c2.7,275.9,6.4,551.9,9,827.8c0.6,61.3-4.6,122.1-22.1,181.3
	c-21,70.9-59.1,129.2-129.4,158.6c-33,13.8-69.2,24.5-104.6,26.9c-102.8,6.8-205.9,8.7-308.9,12.5
	C2155.8,2780.1,2142.7,2780.7,2128.8,2781.3z M1256.6,1868.9c9.3-1.9,13.3-2,16.6-3.4c55.8-24.8,112.2-48.2,171.7-62.8
	c12.2-3,16.7-10.7,16.9-22.8c0.4-23.9,0.8-47.8,2.8-71.6c12.9-152.1,24.7-304.4,40-456.3c8-79.6,20.7-158.9,34-237.9
	c7.8-46.2,22.8-90.4,51.5-129.1c54.7-73.9,181.1-74.3,222.6,19.8c13.3,30.2,22.5,63,28.3,95.5c14.2,80.4,11.8,161.8,8.3,242.9
	c-6.4,151.6-15.2,303.2-22.8,454.8c-2.4,46.7-4.8,93.4-6.5,140.2c-0.7,19.3,2,22.2,20,24.4c17,2,34.3,3.9,51.4,3.5
	c85-1.8,164.1-31.6,246.4-51.2c0.8-8.8,1.9-16.3,2.1-23.7c2.1-103.1,2-206.3,6.4-309.2c5.5-129.7,13.8-259.2,22.5-388.7
	c3.7-54.3,12.2-108.1,33.5-159c12.7-30.5,29.8-58,56.7-77.6c59-42.9,144.3-31.7,180.2,41.4c11.6,23.7,20.4,49.7,25.4,75.6
	c18.3,94.9,24.8,191.2,24.8,287.8c-0.1,183.3-1.2,366.7-1.7,550c0,12,1,24.1,1.7,37.8c67.1-3.1,126.8-20.3,183.3-50.1
	c12.5-6.6,13.2-16.8,13-28.9c-2.8-150.8-3.5-301.7-8.4-452.5c-5-154.6-16.2-308.8-34.8-462.4c-13.1-108.2-33-215-66.3-319
	c-22.3-69.6-52.8-135.1-95.2-194.7c-79.3-111.5-190.7-165.7-324.2-173.4c-205.2-11.8-382.7,56.6-531.9,197.2
	c-80.3,75.6-139.4,166.8-184,267.2c-67.1,151.4-104.3,311-125.5,474.4c-28.2,217.9-44.4,436.8-53.5,656.3
	C1260.5,1797.5,1258.5,1831.6,1256.6,1868.9z M2489.1,1894c0,17.6,0,30.8,0,44.1c0.2,120.3,1.2,240.6-0.1,360.8
	c-0.3,30.2-5.4,60.9-12.9,90.3c-11.3,44.6-40,74.6-85.3,88.3c-30.7,9.3-61.8,11.4-93.4,9.5c-60.3-3.5-97.4-31.5-116.7-88.7
	c-5.5-16.2-10.3-32.9-12.8-49.8c-6.8-47.2-15.1-94.4-17.5-141.9c-5.3-103.9-7.4-207.9-10.8-311.8c-0.3-10.1-1-20.1-1.6-32.8
	c-106.5,24.3-207.4,66.4-318.1,41.4c-1.4,10.7-2.8,18-3.1,25.4c-1.4,34.3-2,68.7-3.9,103c-5.2,97.1-4.3,194.9-22.9,290.8
	c-6.7,34.4-16.9,68.5-29.1,101.3c-10.8,29.1-34.3,48-64.1,57.2c-56.8,17.7-112.9,15-168-7.4c-26.9-10.9-47.1-29.7-58.3-56.2
	c-8.1-19.2-16.4-39.4-18.3-59.8c-5.2-54.1-10.5-108.5-9.3-162.7c2.4-108.7,9.1-217.3,13.9-326c0.3-6.5-0.7-13.1-1.2-22.7
	c-17,4.4-32.9,7.2-47.8,12.6c-43,15.6-85.3,33.4-128.7,47.8c-19.2,6.4-24.2,16.7-24.8,35.3c-3.7,123.1-9.5,246.1-12.4,369.2
	c-1.4,59.1-1.1,118.6,4,177.3c11.3,128,70.5,201.7,212.3,227.2c36.5,6.6,73.9,9.8,111,10.9c257.7,7.6,515.4,11.2,773.1,5.6
	c58.1-1.3,116.6-1.8,173.6-15.5c64.5-15.4,117.3-47.3,143.3-111.1c11.4-28,20.8-58,24.2-87.8c6.2-54.9,10.2-110.3,10.1-165.5
	c-0.5-160.4-3.4-320.7-5.6-481.1c-0.1-7.2-1.8-14.4-3.3-25.4C2622,1874.5,2558.7,1889.8,2489.1,1894z M2011.7,3774.9
	c29.2-8.1,49.2-23,65.8-43.4c20.4-25,31-54.3,38.8-85.2c12.3-48.7,13.7-98.3,11.3-147.9c-4.3-89.6-10.4-179-16.2-268.5
	c-8-122.8-16.3-245.6-24.7-368.4c-1.8-26.3-4.5-52.6-7-80.9c-12.7,0.8-22.6,1.4-35.7,2.1c0,25.2,0.1,47.9,0,70.5
	c-0.1,22.9,0.7,45.9-0.8,68.7c-1.4,22,5.3,44.8-3.8,66.3c-16.7-0.2-15.7-11.7-15.9-20.5c-1.3-52.4-2-104.9-2.9-157.3
	c-0.2-9.2,0-18.4,0-28.8c-35.7,0-68.5,0-103.1,0c-1.9,10.1-3.9,18.2-4.8,26.5c-10.6,100.5-21,201.1-31.7,301.6
	c-0.9,8.5-2.7,17-5.3,25.1c-0.8,2.4-6.1,5-9,4.7c-2.8-0.4-6.8-4.1-7.3-7c-1.2-6.5-1.3-13.3-0.7-19.9c2.7-28.5,6.2-56.9,8.8-85.4
	c7-75,13.9-150,20.5-225c0.6-7.1-1.5-14.4-2.4-21.6c-16.4,0-30.4,0-45.2,0c-1.5,6-3.3,10.4-3.7,15c-9.9,116-19.7,232-29.3,347.9
	c-7.4,88.4-16.2,176.8-21.1,265.3c-3.6,64.7-3.7,129.7-1.6,194.5c1.4,43.1,11.8,85.2,38.5,121c36.5,49,107.2,73.5,162.1,55
	c0-8.6,0-18,0-27.4c0.1-41-0.3-82.1,0.6-123.1c0.4-18.1,3-36.1,5.7-54c1.5-9.6,5.2-19.1,21.1-14.3
	C2015.1,3630.3,2001.1,3700.5,2011.7,3774.9z M1777.6,1844.8c0.9-8.4,1.5-13.1,1.8-17.8c4.1-80,8.2-160.1,12.2-240.1
	c2.2-43.8,3.3-87.8,6.9-131.5c10.8-134.3,12.2-268.8,6.8-403.4c-1.7-43.9-9.1-87.4-29.1-127.5c-28.9-58-99-69-142.6-21
	c-13.8,15.1-24.7,34.1-32.6,53.1c-22.5,54.1-32.7,111.7-39.8,169.5c-11.7,96.6-23.4,193.2-31.9,290.1
	c-10.3,116.9-17.3,234.1-25.6,351.1c-0.6,8.2,0.8,16.6,1.4,28C1599.7,1791.7,1687.4,1817.2,1777.6,1844.8z M2442.7,1851.1
	c0.8-12.7,1.6-19.2,1.7-25.8c0.7-81.1,1.9-162.2,1.7-243.2c-0.3-142.1,0-284.2-2.8-426.3c-1.3-68.5-6.9-137.3-27.3-203.5
	c-4.4-14.4-9.5-29.5-18.1-41.6c-23.6-33.2-60.7-52.4-106.9-23.8c-22.9,14.2-39,34.1-48,58.7c-9.4,25.9-19.1,52.4-22.6,79.5
	c-9.4,72.7-19.2,145.7-22.3,218.9c-7.6,179.1-11.5,358.4-16.9,537.6c-0.3,9.3,0,18.6,0,28.9
	C2269.3,1824.1,2354.5,1837.4,2442.7,1851.1z M1494.5,2310.5c-2,1.4-3.9,2.7-5.9,4.1c4.7,23.1,9,46.3,14.3,69.3
	c6.9,30,27.4,47.6,55.8,55.8c38.3,11.1,77.4,11.3,116,1.6c25.5-6.4,44.7-21.5,53-47.5c6-19.1,11.9-38.2,16.3-57.7
	c14.1-61.7,18-124.6,20.8-187.5c3.5-79.1,6.1-158.3,9.7-237.5c0.7-15-4.2-22.7-19-26.5c-26.8-6.9-53.1-15.6-79.7-23.1
	c-46-13.1-92.4-23.4-140.5-24.4c-34-0.7-36,0.6-37.2,33.5c-1.2,32.4-2.7,64.9-3.8,97.3c-3.1,91.6-6.2,183.1-9.1,274.7
	c-0.2,7.1,1.1,14.2,2.1,24.9c12.9-7,22.8-12.3,32.6-17.7c40.4-22.5,80.9-16.8,121.1,0.2c13.9,5.8,24.6,15.9,25.5,31.8
	c1,17.4-9.8,29.6-24.2,35.7c-16.4,7-34.2,11.9-51.8,14.4C1556.5,2336.6,1524.5,2327.9,1494.5,2310.5z M2450.7,2257.8
	c-4.9-123.1-0.9-242.8-5.8-364.8c-89.7-2.7-172.8-30.2-260.4-33.8c-1,9-2.2,14.5-2.2,20c0.5,124.1,2.6,248.1,15,371.7
	c3.8,37.8,9.6,75.9,19.2,112.6c17.3,66.3,55.2,89.7,123.3,80.9c3.8-0.5,7.5-1.2,11.3-1.8c56.8-8.5,77.7-27.1,91.3-83
	c3.1-13,10.5-26.6,1.6-42.3c-32.4,16.7-66.2,22.7-100.4,15.3c-17.9-3.9-36-12.7-50.7-23.7c-17.9-13.4-16.6-31.2-0.1-46.4
	c6.2-5.7,13.6-11.1,21.4-13.8c32.2-11.3,65.4-13.6,98.6-5.8C2424.6,2245.7,2435.6,2251.7,2450.7,2257.8z M2443.9,2285.8
	c-11.2-7.8-19.3-17.3-29-19.3c-20.2-4.1-41.3-5.5-62-5.5c-11,0-22.9,3.4-32.8,8.3c-19.5,9.8-19.3,21.8-0.9,32.9
	C2354.3,2323.3,2406.6,2318.1,2443.9,2285.8z M1644.5,2285.5c-29.2-37.6-104.6-37.3-130-0.8
	C1540,2319.8,1606.3,2320.9,1644.5,2285.5z"/>
<path d="M1882.6,305.2c4.5,3.2,13.9,6.4,15.2,11.6c1.7,6.8-1.1,16.6-5.5,22.5c-4.1,5.5-12.4,8.5-19.3,11.2
	c-101.1,40.2-183.9,104.2-246.4,192.9c-26.2,37.2-47,78.2-70.1,117.6c-4.3,7.4-6.6,16.5-12.4,22.3c-4.3,4.3-12.9,7.1-19.1,6.3
	c-9.5-1.2-14.6-8.7-12.3-18.9c1.7-7.4,3.1-15,6.1-21.9c54.4-124.8,134.8-227.6,253.3-297.5c25.3-14.9,52.9-25.9,79.9-37.9
	C1860.7,309.7,1870.4,308.5,1882.6,305.2z"/>
<path d="M1454.4,810.5c7.1-19.5,12.6-37.7,20.3-54.9c4.8-10.8,15.1-14.3,26.6-9.4c10.9,4.7,17.2,13.6,13.7,25.1
	c-5.3,17.2-11.7,34.2-19.5,50.3c-5.1,10.5-16.5,14.7-26.8,8.9C1462.4,827.1,1459.5,818,1454.4,810.5z"/>
<path d="M2016.1,297.3c-0.2,12.2-16,24.1-31.8,26.2c-13.3,1.8-25.4-3.8-26.7-14.6c-0.7-6.5,2.1-15,6.3-20.2
	c10.4-13,33.9-13.2,45.8-1.3C2013,290.5,2014.7,295,2016.1,297.3z"/>
<path d="M1968.1,2325.7c-62.6-0.6-116.1-46.5-125.6-108.3c-1.3-8.4-2.5-17.7,0-25.4c1.9-5.8,9.3-12,15.3-13.3
	c4.4-1,12.5,4.5,15.3,9.2c4.2,7.1,5.5,16.1,7.6,24.4c11.2,44.3,44.7,72.4,87.2,73c42.5,0.6,78.7-26.9,91-69
	c2.4-8.2,4.2-16.7,6.8-24.8c2.9-9.2,9.7-16.1,19-12.9c7,2.5,13,9.7,17.7,16.1c2.2,3.1,1.2,9.4,0.2,13.9
	C2086,2281.9,2044.2,2322.1,1968.1,2325.7z"/>
<path d="M1964.7,3524.9c0-7.9-0.7-15.8,0.1-23.6c9.8-94.2,13.8-188.6,7.4-283c-4.6-68.5-13.4-136.7-18.9-205.2
	c-3.7-46.6-5.2-93.3-6.9-140c-0.4-10.6-1.3-23.2,14.1-30.8c2.8,7,6.6,12.4,7.2,18.3c2.5,21.8,4.2,43.7,5.8,65.6
	c6.5,90.4,12.3,180.9,19.5,271.2c7.1,88.8,6.4,177.4-3.5,265.8c-2.4,21.2-9.3,41.9-14.1,62.9
	C1971.9,3525.7,1968.3,3525.3,1964.7,3524.9z"/>
<path d="M2079.1,3185.8c0,9.9,0.8,17.3-0.1,24.5c-9.1,70.6-7.6,140.6,7.1,210.6c13.9,66.3,3.9,133.1-0.5,199.6
	c-0.2,3.5-2.5,6.9-4,10.8c-16.7,1-20.1-8.4-19.2-21.4c1.3-19,2.1-38.1,4.5-57.1c7.3-57.5,2.6-114.2-10.8-170.4
	c-13.5-56.9-9.5-113.7,1.3-170.3C2059.4,3201.8,2059.1,3188.6,2079.1,3185.8z"/>
<path d="M1828.9,3422.2c2.7,23.4,4.8,41.1,6.7,58.9c5.8,55,11.1,110,17.7,164.9c1.4,12,5.1,25,11.9,34.7c12.7,18.3,8.8,37,5.9,56.6
	c-39.4-65.4-55.5-137.2-57.8-212.6C1810.8,3440.8,1811,3440.8,1828.9,3422.2z"/>
<path d="M1886.8,3274.4c17.3,6.1,16.7,16.6,17,25.7c2.5,80.2,4.9,160.3,6.4,240.5c0.3,14.3,0,30.5-19.3,40.6
	c-8-26.8-2-52.1-3.1-76.9c-1.1-25.7-0.5-51.6-1.2-77.3c-0.7-24.8-2.9-49.6-3.1-74.4C1883.3,3327.3,1880.5,3301.8,1886.8,3274.4z"/>
<path d="M1633.3,2020.4c58.1-0.7,103.9,42.7,104.1,98.6c0.1,58.7-42.5,104.3-98.2,104.9c-58.4,0.7-106.2-45.8-106.7-103.9
	C1531.9,2067.2,1578.6,2021.1,1633.3,2020.4z M1655.7,2109.2c20.6,0.5,37.3-11.7,37.2-27.2c-0.1-14.8-16.5-29.7-32.7-29.7
	c-17.3,0-30.4,13-30.8,30.7C1629,2100.1,1637.8,2108.8,1655.7,2109.2z"/>
<path d="M2205.7,2121.9c0.1-54.7,43.9-101.7,95.2-102.2c59.1-0.5,108.9,46.3,109.1,102.5c0.2,55.2-48.9,102.8-105.5,102.3
	C2245.3,2223.9,2205.6,2182.7,2205.7,2121.9z M2333.7,2052.5c-19.2-0.2-32.7,12.9-32.8,31.8c-0.1,16.2,12.4,29.6,27.9,30
	c19.1,0.5,38.5-14.6,39.1-30.4C2368.7,2068,2351.8,2052.6,2333.7,2052.5z"/>
</svg>
