<?xml version="1.0" encoding="utf-8"?>
<!-- Generator: Adobe Illustrator 24.3.0, SVG Export Plug-In . SVG Version: 6.00 Build 0)  -->
<svg version="1.1" id="Layer_1" xmlns="http://www.w3.org/2000/svg" xmlns:xlink="http://www.w3.org/1999/xlink" x="0px" y="0px"
	 viewBox="0 0 4000 4000" style="enable-background:new 0 0 4000 4000;" xml:space="preserve">
<path d="M2875.1,2161.4c-8,39.2-14.9,75.5-22.8,111.6c-17.2,78.5-34,157-52.6,235.2c-9.7,40.8-26.3,78.8-60.3,106.4
	c-1.3,1.1-2.4,2.7-3.9,3.4c-30.1,13.9-42.3,39.7-50.4,70.3c-4.2,16-14.8,31.3-25.8,44.1c-13.5,15.7-21.9,32.6-26,52.6
	c-18.3,89.7-37.9,179.2-55.3,269c-21.6,111.1-41.2,222.5-62.3,333.7c-11.1,58.5-24.3,116.7-35.5,175.2c-8,41.9-31.1,72.1-67.1,93.8
	c-54.7,33-114.6,51.7-176.3,66.4c-91.3,21.7-183.7,33.6-277.5,29.3c-115.5-5.3-228.4-24.1-335.3-70.7c-17.3-7.6-33.7-17.5-49.9-27.4
	c-36.9-22.4-58-55.5-65.8-97.9c-13.1-72.2-26.1-144.5-40.3-216.5c-37.6-189.8-75.9-379.5-113.5-569.2c-2.8-14.1-7.4-25.8-17.9-36.2
	c-20.8-20.5-33-46.4-39.9-74.5c-3.8-15.2-10.3-25.7-25-33.5c-40.1-21.3-67-55.5-78.9-98.6c-16.1-58.2-29.2-117.2-41.7-176.3
	c-12.5-59.1-22.7-118.8-34-178.2c-1.1-5.7-3-11.3-5.1-18.9c-7.2,4.4-12.9,7.8-18.5,11.4c-57.5,37.2-123.7,16-149.1-47.5
	c-15.4-38.6-13.2-77.9-5-117.4c2.8-13.5,5.7-27.1,9.8-40.3c9.3-30.1,12.6-60.4,9.2-92c-6-56.5,9.2-106.3,53.2-144.6
	c10.5-9.1,8.9-18.5,6.7-30.2c-24.8-133.7-11.9-263.2,44.5-387.6c24-53,54.5-102.1,94.1-145.1c8.5-9.2,14.7-18.7,14.6-32
	c-0.5-59.2,28.4-102.5,77.2-132.2c19-11.6,22.8-23,19.8-43.8c-25.3-174.2-6.8-341.8,84.5-495.8c119-200.7,295.6-318.3,526-351.5
	c176.7-25.5,343,8.8,493.7,105.7c185.6,119.3,290.9,290.6,319.4,509.2c11,84.1,2.7,167.3-12.8,250c-1,5.1-1.9,10.2-2.8,15.3
	c-2.6,14.2,1.5,24.2,14.4,32.7c18.7,12.2,36.7,25.8,53.4,40.7c26.1,23.2,39.6,53.7,46.3,87.8c1.9,9.7,5.4,20.7,11.8,27.8
	c59.6,66.2,97.1,144.5,124.5,228.1c31,94.3,39,190.9,25.1,289.2c-2.3,16-0.1,27,14.5,37.2c48.9,34.3,82,108.9,59.5,177.5
	c-6.7,20.6-5.2,44.2-5.7,66.4c-0.8,33.6,2.9,67.6-0.6,100.9c-7.2,68.8-53,101.9-120.7,90.9C2891.8,2164,2885.1,2162.9,2875.1,2161.4
	z M1576.4,300.1c5.9,3.6,10.6,5.9,14.7,9.1c16.8,13.1,16.2,25.1-3.1,35.5c-15.9,8.6-32.6,16-49.5,22.4c-7.7,2.9-18.6,5.4-24.9,2.1
	c-17-9.2-25.5-0.5-34.6,11.2c-49,63.1-91.2,130.1-120,205c-34.7,90.4-46.7,183.9-39.5,280c2.8,37.9,7.3,75.7,12.9,113.2
	c3.6,24.1-5,39.6-25.5,51.1c-14.2,8-28.2,17-41,27.2c-20.9,16.6-35.6,37.7-38.5,65.2c-3.9,38,25.8,65.3,62.9,57.5
	c10.1-2.1,19.7-6.5,29.5-9.6c48-15.6,75.3-3.9,97,41.3c4.9,10.1,9.1,20.6,14.8,30.2c13.5,22.9,22.1,25.7,46.9,16.1
	c13.7-5.3,26.8-12,40.7-16.5c29.2-9.3,57.8-0.1,75.2,25.2c8.2,11.9,16.1,25.5,18.6,39.4c4.5,25.3,7,51.3,6.4,76.9
	c-0.6,24-6.3,47.9-9.6,71.9c-4.6,33.3-9.9,66.6-13.1,100.1c-2.1,21.2,4.8,41.1,17.3,58.5c10.1,14.1,23.2,23.5,41.7,21.1
	c19-2.5,32.6-13.4,37-31.7c5.6-23.3,10.3-47.2,12.2-71.1c2.1-26.6-0.5-53.6,0.8-80.3c1.6-34.1,9.4-66.8,31.5-94.3
	c37.8-47,105.8-44.3,139,5.9c9,13.6,15.4,28.9,23.1,43.4c4.5,8.4,8.3,17.3,14.1,24.6c13,16.4,29.8,16.9,44.5,1.8
	c5.4-5.5,9.5-12.3,13.8-18.7c7.7-11.5,14.4-23.7,22.8-34.6c34.5-45.3,91.1-45.2,125.2,0.1c20.4,27.1,30.7,58.7,30.9,92
	c0.3,37-3.6,74-6.3,111c-1.5,21.5-5.1,42.9-6.1,64.5c-1,22,4.1,42.9,16.1,61.8c16.4,25.7,51.5,36.2,71.2-3.4
	c12.7-25.5,17.7-52.5,15.9-80.4c-1.8-28.4-5.1-56.8-9.6-84.9c-7.6-47-15.7-93.7-12.4-141.7c6.1-86.6,66.3-154.6,151.7-170.5
	c58.7-10.9,105,16.9,120.7,74.7c5.2,18.9,6.9,39.1,7.7,58.9c1,24.1-1.9,48.4-0.9,72.6c0.9,20.5,2.6,41.6,8.3,61.2
	c7.2,24.9,29.7,35.6,53.6,25.9c11-4.5,23.3-14.5,27.7-25c8-19.5,14.6-41.3,14.6-62.1c0-41.3-4.7-82.7-7.8-124
	c-2.1-28.6-2.5-56.9,6.6-84.7c9.8-30,29.8-48.3,61.3-52.1c15.3-1.9,31-1,46.5-1.5c22.3-0.8,28.3-8.8,20.6-29.5
	c-8.3-22.7-24.3-39.7-43.4-53.7c-13.9-10.2-28.4-19.7-43.2-28.7c-25.3-15.4-33-36-27.6-65.8c9.1-50,17.3-100.6,20.4-151.3
	c10.2-166.8-39.8-315.2-143.4-445.9c-4-5-9.6-8.7-15.9-14.3c-5.4,7.7-9.5,13-13,18.7c-3.1,5.1-5.1,11-8.4,16.1
	c-9,13.7-18.6,17.1-30.3,11.4c-12.2-6-16-15.1-11.1-30.3c3.7-11.5,8.8-22.5,13.6-33.6c3.7-8.6,7.8-17,12.4-27
	c-127-106.3-266.1-176.4-434.4-181.7C1825.9,150.2,1634.4,237.2,1576.4,300.1z M1164.3,2086.1c1.6,13.8,2,23.8,3.9,33.6
	c14.8,74.6,29.3,149.2,45.2,223.6c11.2,52.3,24.1,104.3,36.5,156.4c11.8,49.2,43.1,79.7,91.6,92.3c37.6,9.7,75.1,20.2,113.1,27.6
	c140.3,27.3,282.1,41,424.9,43.9c159.1,3.2,318.1,1.5,476.5-15.8c89.3-9.8,177.9-23.9,265.7-43.4c70.8-15.7,111.2-56.1,125.5-127
	c24.8-122.7,51.8-245,77.6-367.5c1.5-7.2,1.2-14.7,2-25.7c-250.4,64.2-503.4,81.1-758.2,93.4c-1.5,11.8-3.1,21.9-4.2,32.1
	c-2.5,24.5-9.8,47.2-23.4,67.9c-36.6,55.3-117.2,57.9-156.9,4.9c-14.9-20-22.6-42.5-24.2-67.3c-0.8-12.7-2-25.3-3.2-39.8
	C1623.9,2161.7,1393.4,2144.7,1164.3,2086.1z M1208.6,1200c-3.7,1.7-5.6,2-6.8,3.1c-2.6,2.3-5,4.8-7.2,7.4
	c-79.6,94.6-122,203.5-126.6,327.2c-2.3,60.9,4.7,120.9,16.8,180.3c3.7,18.4-0.2,30-16.5,38.4c-6.1,3.1-11.5,7.7-17.2,11.6
	c-24.8,17.1-36.2,41.1-35.6,70.9c0.2,9.5,0.1,19.1,1.7,28.4c4.9,27.9,1.7,55-4.7,82.2c-7.3,31.1-13.9,62.4-20.3,93.6
	c-4.1,20.1-1.2,39.6,8,58c11.9,23.9,33.6,30.5,55.4,15.1c8.7-6.2,16.7-15.7,21-25.4c6.1-14,9.5-29.5,12.3-44.7
	c4.4-23.7,6.1-48,11.2-71.6c6.7-30.7,23.9-54.1,56.1-61.5c13.2-3,27.5-2.6,41.2-1.6c31,2.3,61.8,6.5,92.8,8.7
	c28.9,2,54.9,11.6,74.6,32.1c42.3,44.1,87.6,51.4,142.5,22.9c59.5-30.9,117-23,168.7,20.9c1.3,1.1,2.7,2.2,4.1,3.2
	c50.8,39.4,51.3,40.4,108.3,12.5c31.4-15.4,60.8-5.5,76.2,21.2c10.6,18.3,19.3,39.2,22.2,59.9c4.6,32.3,2.6,65.5,5.5,98.2
	c1.8,20.4,5,41.3,11.9,60.4c8.8,24.3,27,39.6,55,39.6c28.1,0,47.4-12.9,59.6-38c12.4-25.6,16.7-52.6,15.2-80.6
	c-1.2-22.4-3.3-44.8-4.9-67.2c-2.9-41.4,3.5-80.9,22.6-118.1c15.3-29.7,40.8-45.9,71.6-55.6c10.1-3.2,14-10.8,9.7-20.3
	c-6.1-13.2-12.3-26.7-20.9-38.4c-9.7-13.1-21.4-24.9-33.4-36.1c-19-17.8-24.6-38.8-18.5-63.6c3.9-15.9,7.8-31.9,11.9-47.7
	c18.8-72.3,29.8-145.6,26.7-220.4c-1.3-33-7.1-65.5-21-95.7c-9.5-20.7-25.4-22.5-40.5-5.6c-5.1,5.7-8.6,12.9-12.4,19.6
	c-4.2,7.5-7.7,15.5-11.9,23c-16.9,29.6-42.7,45.1-76.5,44.7c-34.6-0.4-58.2-19.3-72.9-49.7c-6.4-13.2-11.4-27.1-17.5-40.4
	c-8-17.3-19.1-31.1-40.6-30.9c-21.5,0.2-37.3,11.2-44.5,30c-7.3,19-12.3,39.5-14.4,59.8c-2.5,24,1.1,48.5-1.4,72.5
	c-2.9,28.1-6.5,56.9-15.2,83.6c-12.4,37.9-42.8,56.5-81.3,56.3c-35.8-0.2-64-20.8-77.9-57.7c-10.6-28.1-12.9-57.2-8.1-86.8
	c6.8-41.8,14.4-83.4,20.9-125.2c4.8-30.3,2.9-60.5-8.1-89.4c-10.9-28.4-21.1-32.5-49.5-21.5c-17.7,6.8-35,15.4-53.3,19.6
	c-33.3,7.7-64.2-7.8-79.8-38.2c-6.7-13-11.3-27-16.6-40.7c-7.8-19.7-12.3-22.3-32.9-17.5c-10.9,2.5-21.7,5.5-32.6,8.3
	c-33.5,8.5-65.1,6.7-92.7-17.3C1215.5,1203.6,1212.2,1202.2,1208.6,1200z M2117.6,1740.3c-23,40.3-21.7,52.7,7.3,79.4
	c24.1,22.2,42.3,47.8,50.3,80c9.3,37.1-4.9,62.4-41.3,74c-7.5,2.4-14.8,5.3-22.2,7.9c0.4,1.9,0.9,3.7,1.3,5.6
	c7.3,0.5,14.7,1.7,22,1.3c69.9-3.8,139.9-6.6,209.7-12.1c125.9-10,250.6-28.7,374.4-53.5c29.7-5.9,59.5-9.4,90-2.1
	c30.3,7.3,52.6,23.9,60.6,54c7,26.5,9.8,54.2,14,81.4c1.4,9.4,0.6,19.1,2.3,28.4c2.8,15.2,13.1,24.2,28,27.1
	c15,2.9,28.5-1.8,35.6-15.3c5.9-11.2,10.3-24,11.5-36.5c1.9-20.6,2.1-41.5,0.6-62.1c-3.1-41.8-1.5-82.9,11.8-122.9
	c5.5-16.6,2.5-32.3-3.7-48c-12.5-31.5-35.3-52.4-65.2-67.1c-22.2-10.9-22.4-11.7-17.6-35.7c24.4-120.4,12.7-237.2-33.9-350.8
	c-21.1-51.5-48-99.5-82.7-143.2c-6-7.6-11.9-14.5-23.2-13.7c-25.7,1.8-51.5,2.9-77.2,4.2c-25.8,1.3-34.7,8-35.7,34.3
	c-1.1,27.5,0.8,55.2,2.5,82.7c2.5,38.7,7.5,77.4,8.5,116.1c0.7,27.1-8.1,52.9-23.5,75.7c-21.9,32.2-53.9,41.9-90.6,38.1
	c-34.7-3.6-57-24.5-66.7-57c-5.9-19.6-9.6-40.4-10.7-60.9c-1.5-27.6,1.5-55.3,0.7-82.9c-0.6-19.7-1.9-39.9-7.2-58.7
	c-7.2-25.1-25-35.7-50.9-35.7c-54.6-0.1-120.1,51.6-129.2,105.4c-4.7,27.8-6,57-3.4,85c4.4,48.1,13.5,95.8,19.6,143.8
	c4.8,37.4,1.5,74.4-12.6,109.6c-12.6,31.8-34.5,53.9-69.9,58.5C2167.9,1779,2138.7,1772.2,2117.6,1740.3z M1354.8,2629.2
	c-0.8,4.4-2,7.1-1.5,9.3c11.5,47.2,37.5,81.1,87,92.3c22.7,5.1,45.6,9.4,68.7,12.9c66.5,10.1,132.9,21.4,199.7,28.9
	c58.3,6.5,117.1,8,175.7,12.2c108.9,7.8,217.6-0.6,326.3-4.1c60.2-1.9,120.3-11.5,180.1-20.3c57.1-8.4,114.2-18.2,170.5-31
	c46.6-10.5,74.9-51.4,75.5-102.9c-84.5,18.8-168.7,36.2-254.6,43.1c-86,6.8-172,15.4-258.2,18.8c-85.4,3.4-171.1,3.9-256.5,0.8
	c-86.2-3.2-172.4-9.7-258.1-19.8C1524.3,2659.3,1439.9,2642.9,1354.8,2629.2z M2067.8,2149.3c12.7,0,22.2,0.5,31.6-0.1
	c95.6-6.5,191.2-12.7,286.8-19.8c142.3-10.7,282.7-33.1,421.3-67.1c44.9-11,46.7-14.3,34.4-59.6c-10.8-39.7-32.2-54-72.4-47.2
	c-73.1,12.5-145.9,27.6-219.3,38c-149.7,21.1-300.4,31.9-451.5,37.2c-5.2,0.2-10.4,0.2-15.5,0.7c-8.9,0.8-14.5,5.4-15.1,14.6
	C2066,2079.5,2063.7,2113,2067.8,2149.3z M1859.3,2145.6c-0.8-31-4.7-57.9-18-82.6c-7.7-14.4-17.4-17-32.6-10.6
	c-8.7,3.7-16.8,8.9-25.5,12.8c-41.7,18.9-80.6,14.7-116.5-14.2c-4-3.3-7.8-6.9-11.8-10.2c-40.3-33.5-84.2-41.5-132.7-19.4
	c-10.2,4.7-20.4,9.6-31,13.1c-47.9,15.5-92.1,10.1-130.7-24.5c-5.8-5.2-11.8-10.2-17.4-15.5c-17.7-17.1-39.2-24.1-63.4-25.6
	c-26.7-1.6-53.4-4.4-80-6.7c-6.9-0.6-13.7-2-20.6-2.5c-27-1.9-38,6.5-42.6,33.7c-1.9,11-1.6,22.4-2.3,33.6
	c-1,15.3,6.4,24.4,20.9,28.4c20,5.5,39.8,11.5,60,16.4c83.3,20,167.7,33.4,252.6,44c121,15,242.1,28.1,364.1,30
	C1840,2145.7,1848.4,2145.6,1859.3,2145.6z M2085.6,3097.2c41.7-35.7,81.8-70.1,123.1-105.5c-36.5-29.6-71.7-58.2-107.1-86.8
	c-8-6.5-14.3-2-20.4,3.5c-32.3,28.5-64.6,57-96.7,85.7c-4.2,3.7-7,8.9-12.3,15.8C2010.2,3039.1,2046.9,3067.3,2085.6,3097.2z
	 M2074.4,2885.9c-19.6-18.1-39.5-33.4-55.5-52.1c-25-29.2-63.4-28.8-89.7,0.3c-20.1,22.3-44.1,41.1-66.3,61.6
	c-4.1,3.8-7.6,8.4-12.4,13.8c30.7,25.3,59.7,49.6,89.1,73.4c13.4,10.8,17.5,10.7,30.9-1.3c19.9-17.8,39.3-36.3,58.9-54.4
	C2043.9,2913.9,2058.4,2900.7,2074.4,2885.9z M1714.5,2811.3c-40.2,35.3-78.7,69.1-119.7,105.1c29.2,23.8,56.2,46.3,83.8,68.1
	c18.8,14.8,23.2,14.9,42.9,0c23.4-17.6,46.2-36,69.2-54.3c9.3-7.4,18.2-15.2,28.5-23.9C1783.5,2874,1749.9,2843.5,1714.5,2811.3z
	 M2205.9,3395.4c32.1,30.9,68.9,51.4,104.3,79.6c39.7-38.6,78.2-76.2,116.6-113.5c-1.5-2.7-1.9-4.7-3.2-5.6
	c-29.5-19.6-59.1-38.9-88.6-58.5c-10.3-6.8-17.4-1.8-24.9,5.3c-22.6,21.4-45.3,42.6-68.4,63.5
	C2231.2,3375.8,2219.5,3384.4,2205.9,3395.4z M2170.5,3604.6c-5.3-6-7.1-9-9.6-10.9c-29.9-22-60.1-43.6-89.8-65.7
	c-10.8-8-19-4-27.7,3.1c-26.7,21.8-53.5,43.6-80.5,65.1c-5.3,4.2-11.6,7.2-21.6,13.2c37.8,29.2,68.8,53.4,100.2,77.3
	c8.1,6.2,16.5,3.3,23.9-2.2C2099.7,3658.5,2133.9,3632.4,2170.5,3604.6z M1849.4,3107.8c35.3-3.4,40.8,0.1,44.1,30.6
	c2.6,24.6,17.9,38,36.9,49.5c21.4,13,27.1,13.2,46.1-2.2c22.8-18.4,44.9-37.6,67.2-56.6c7-5.9,13.7-12.2,19.7-17.7
	c-1.6-4.2-1.7-6.3-2.9-7.2c-32.1-25.9-64.4-51.6-96.5-77.6c-7.7-6.2-14.3-4.5-20.8,1C1913.2,3053.2,1883.3,3078.8,1849.4,3107.8z
	 M1934,3424.6c-36.5,28.5-73.3,57.2-113.1,88.2c10.1,8.8,17,15.1,24.3,21c22.2,17.8,45.3,34.5,66.5,53.4c11.6,10.3,20.2,10.2,31.3,1
	c27.8-23.1,55.9-46,84.1-68.7c4.6-3.7,10.3-6,17.1-9.9C2004.7,3479.1,1970.8,3452.9,1934,3424.6z M2293.4,3490
	c-5-4.7-6.6-6.7-8.7-8.2c-18.1-13.1-36.2-26.3-54.5-39.2c-13.2-9.2-26.7-18-40.1-27c-13.8,10.1-28.2,19.5-41.3,30.4
	c-23,19.1-45.3,39-68.3,59c3.7,5.2,5.1,8.7,7.7,10.6c28.8,21.8,57.9,43.2,86.7,65.1c8.8,6.7,16.3,4.3,23.1-2
	C2229.4,3549.8,2260.6,3520.5,2293.4,3490z M2302.1,3281.2c-34.8-25.6-66.4-48.9-99.1-73c-39.2,32.2-77.7,63.9-117.6,96.7
	c34.2,27.2,67.8,53.7,103.6,82.1C2227.2,3351.2,2263.5,3317.3,2302.1,3281.2z M2172.4,3401c-35.8-27.6-69.6-53.7-104.6-80.7
	c-38.3,31.1-74.9,60.9-114.1,92.7c35,27.9,67.8,54.1,102.8,82C2095.4,3463.4,2132.6,3433.3,2172.4,3401z M1566,3499
	c29.5,27.7,56.1,52.2,82.1,77.1c17.5,16.8,19.8,18,39.1,4.7c29.8-20.4,59.2-41.6,88.5-62.8c3.1-2.2,4.8-6.2,7.4-9.6
	c-22.7-18.5-44-35.8-65.3-53.3c-11.7-9.6-22.8-26.3-35-27.2c-12.8-0.9-26.9,12.9-39.9,21.1C1618.2,3464.7,1594,3480.8,1566,3499z
	 M2111.8,2885.1c33.3,27.8,63.5,53.3,94,78.5c15,12.4,19.2,13.6,33.5,1c25.2-22.2,48.8-46.1,73-69.4c0.9-0.8,0.2-3.3,0.4-6.5
	c-31.4-25.4-63.2-51.9-95.8-77.2c-14.3-11.1-26.4-10.1-39.4,3.1C2155.7,2836.6,2135.2,2859.9,2111.8,2885.1z M1687,3608.1
	c30.7,42.8,73,60.1,121.6,65.8c4,0.5,8.8-0.6,12.4-2.6c30.8-16.9,58.8-37.5,88-61c-34.5-27.8-66.5-53.7-98.6-79.3
	c-7.3-5.8-14-2.8-21,2.2c-28.7,20.5-57.7,40.4-86.5,60.8C1697.5,3597.8,1692.9,3602.8,1687,3608.1z M1936.3,3009.9
	c-35-30.5-67.8-59.1-103.1-90c-33.4,27.3-66.4,54.3-100.2,81.9c17,18.7,31.6,35.4,47,51.5c11.2,11.8,23.5,22.5,35.1,33.9
	c9.1,8.9,18.1,8.5,27.5,0.7C1873.5,3062.1,1904.4,3036.3,1936.3,3009.9z M2552.5,2880.9c-36.2-30.3-70-58.5-98.2-82
	c-35.5,33.5-67.9,64-102.5,96.6c31.2,23.5,62.6,47.2,94,70.8c8.2,6.2,16.2,5,23.2-1.9C2495.8,2937.7,2522.4,2910.9,2552.5,2880.9z
	 M1802,3499.2c39.1-29.4,76.3-57.5,115.1-86.8c-31.7-27-60.4-51.4-89.1-75.9c-8.1-6.9-15.5-5-23.2,0.7
	c-19.4,14.3-39.2,28.1-58.5,42.5c-14.2,10.6-27.8,21.8-43.6,34.2C1736,3442.6,1767.2,3469.4,1802,3499.2z M1835.8,3315.1
	c29.7,25.1,55.9,47.2,82.2,69.3c17.7,15,20.5,14.5,39.2-0.9c26-21.2,52.4-41.9,78.8-62.6c4.5-3.6,9.9-6,17.4-10.4
	c-36.7-28.2-67.9-52.2-100-76.9C1909.6,3252.7,1877.8,3287.7,1835.8,3315.1z M1664.9,3004.5c-27.8-24.1-52.9-45.1-77.1-66.9
	c-9.3-8.4-16.6-6.5-24.9,0.3c-14,11.5-28,23-42.2,34.1c-16.1,12.5-32.6,24.7-48,36.3c0.8,4,0.5,6.3,1.5,7.2
	c30.2,26.8,60.4,53.8,91.2,79.9c3.4,2.9,12.1,3.1,16.5,0.9c14.8-7.4,28.8-16.9,33.3-34.1C1622,3035.7,1635.7,3015.3,1664.9,3004.5z
	 M2205,3599.5c21.4,14.7,41.1,27,59.4,41.1c11.1,8.5,21.6,10.2,33.4,4.3c30.6-15.6,61.4-30.9,91.2-47.8c10.5-6,18.5-16.4,30.6-27.6
	c-35.3-23-66.6-44-98.7-63.7c-3.9-2.4-13.9,0.2-18,3.9C2270.9,3538.1,2239.6,3567.4,2205,3599.5z M1797.8,3312.9
	c-27.8-24.7-55-48.9-85.9-76.4c-11.3,39.3-40.6,43.8-70.7,46.8c-9.4,0.9-18.9,1.3-28.3,2.9c-9.8,1.7-19.4,4.5-33.6,7.9
	c6.9,10.5,10.2,18.4,15.9,23.7c25.9,24,52.7,47.1,78.8,70.8c9.3,8.4,17.7,4.9,25.6-1C1731.8,3363.5,1763.7,3338.9,1797.8,3312.9z
	 M1722.6,3214.5c30.5,27.7,58.2,53.5,86.9,78.1c3.5,3.1,14.1,2.7,18.2-0.4c28.9-21.3,57-43.7,88.9-68.6
	c-36.6-13.8-50.9-41.6-61.9-72.4c-3-8.3-9.6-15.3-15.8-24.8C1794.7,3150.6,1760.9,3183.5,1722.6,3214.5z M1689,2796.6
	c-11.1-2-16.8-3.2-22.6-4.1c-39.2-5.6-79-8.8-117.5-17.4c-31.9-7.1-53,3.3-71.6,28.8c4.7,5.2,8.8,10.5,13.6,15.1
	c23.1,22,46.5,43.7,69.6,65.7c18.2,17.3,21.3,18.3,40.4,1c24.9-22.5,48.7-46.4,72.7-69.9C1678.3,2811.3,1681.9,2805.5,1689,2796.6z
	 M2459.4,3000.5c-20.3,17.7-40.4,35.2-60.4,52.8c-8.4,7.4-17.4,14.5-24.5,23c-14.3,17-14.4,27.8,1.8,42.7c17,15.6,36,29,54.2,43.4
	c28.3-13.9,50.7-31.6,66.2-55.8c9-14.1,13.9-31.3,18.3-47.7c1.7-6.3-0.8-16.3-5.3-21.1C2495.7,3022.8,2480.1,3009.2,2459.4,3000.5z
	 M2440.9,2988.1c-37.7-27.6-72.7-53.2-106.7-78.1c-35.5,24.2-80.8,67.2-86.5,81.4c23.6,3.2,47.6,4.9,70.7,10.1
	c25.2,5.7,37.5,27.2,48.7,52.1C2392.9,3030.7,2415.7,3010.4,2440.9,2988.1z M1667.9,3410.8c-23.5-21.4-44.2-40.3-65.1-59.1
	c-8.3-7.5-17.1-14.4-25.4-21.9c-13.3-12.1-25.2-4.2-37.8,1.7c-12.6,5.8-11.4,15.5-9.4,26.1c6.8,34.6,13.4,69.2,20.5,103.8
	c1.1,5.4,4.2,10.3,8,19.1C1595.9,3456.7,1631,3434.3,1667.9,3410.8z M1560.5,2914.2c-31.3-31.2-61.6-61.7-92.4-91.5
	c-2.7-2.7-9.8-3-14-1.6c-17.1,5.5-23.6,17.7-20.1,35.6c4.7,23.7,9.2,47.5,14.1,71.1c4.2,20.1,8.8,40.1,14,63.4
	C1498,2967.3,1530.4,2945.2,1560.5,2914.2z M2105.8,3139.1c-7.3,18.5-11,36-20.6,49.4c-9.1,12.8-23.2,23-37.1,31
	c-14.2,8.2-30.7,12.3-49.4,19.4c24.3,19.2,45.7,36.1,69.7,55c38.9-33.4,76.5-65.6,115.7-99.1
	C2156.8,3175.5,2131.7,3157.6,2105.8,3139.1z M2106.8,3107.7c19.1,16.8,35.1,31.2,51.4,45.2c39.4,33.6,41.4,33.3,75.5-5.3
	c1-1.1,0.9-3.2-0.1,0.9c-9.6-27.1-19.9-49-24.8-72c-5.4-25.2,9.5-47.5,19.7-69.9c-1.4-1-2.8-2-4.2-2.9
	C2185.9,3037.6,2147.5,3071.6,2106.8,3107.7z M2333.1,3484.9c26.1,23.2,67.7,47.8,91.1,53.4c10.7-53.6,21.4-107,32.3-161.9
	C2433.7,3381.1,2375.5,3433.2,2333.1,3484.9z M1738.7,2806.7c29.2,25.8,54.6,49.1,80.8,71.3c14.4,12.2,19.6,11.8,33.5-0.8
	c19.8-18,39-36.8,58-55.6c2.5-2.4,2.9-6.9,4.7-11.6c-56.5-2.3-110.9-4.6-165.2-6.7C1748.3,2803.2,1746.1,2804.5,1738.7,2806.7z
	 M2327.5,2876.5c30.8-18.6,76-66.7,87.1-93c-56.2,6.3-111,12.4-170.6,19.1C2274.5,2829.7,2300.6,2852.8,2327.5,2876.5z
	 M2412.3,3180.8c1-2.2,2-4.4,3.1-6.6c-19.5-12.1-38.6-24.9-58.7-35.8c-4.2-2.3-14.6,0-17.9,3.9c-16.8,19.8-38,22.4-61.2,17.8
	c-16.3-3.3-28.8,2.6-39.7,13.5c-6.6,6.5-12.4,13.8-20.7,23.3c18.6,14.2,35.2,26.9,51.5,39.4c4.7-4,7.4-5.2,8.4-7.3
	c14.1-30.4,40.4-40.7,71.3-43.2C2369.7,3183.9,2391,3182.4,2412.3,3180.8z M1633.6,3184c0.8-2.1,1.7-4.2,2.5-6.3
	c-15.6-13.2-31.6-25.9-46.5-39.8c-10.8-10.1-20.8-10.6-32.2-2.1c-16.6,12.4-33.7,24.2-49.8,37.2c-4.8,3.9-10.5,11.6-9.6,16.5
	c4.2,22.6,10.9,44.6,26.5,65.6c-1.4-40.2,7.2-51.9,43.4-61.3c5-1.3,10.1-2.1,15.3-2.8C1600,3188.5,1616.8,3186.3,1633.6,3184z
	 M1692.2,3231.9c-5.6-14.1-18.5-18.5-30.8-20.8c-33.3-6.5-66.7-6.5-99.3,5c-8.9,3.2-18.2,6.6-17.8,19c0.3,11.5,7.8,16.6,17.1,20.2
	c34.2,13.2,68.9,14.5,103.5,2.1C1676.9,3252.9,1687.9,3245.6,1692.2,3231.9z M2358.4,3268.5c22.2-4.2,42.8-6.9,62.6-12.3
	c7.3-2,18.4-10.2,18.2-15.1c-0.5-9.1-6.8-18.9-13.2-26.2c-3.9-4.5-12.5-6.7-19-6.8c-22.4-0.3-44.9-0.2-67.1,1.9
	c-9.8,1-20.1,5.9-28.5,11.5c-17.8,11.9-17.9,26.3,1.1,35.3C2326.7,3263.7,2343.5,3265,2358.4,3268.5z M2366.9,3291.4
	c21,19.6,40,35.1,62.5,45.7c16.7,7.8,24.4,6.2,31.1-10.5c10.4-26.2,19.3-53.4,25.6-80.9c4.5-19.7-12.2-36.8-34.6-40.7
	c16.1,29.7,14.5,49.9-7.4,65.7c-9.5,6.8-21.5,10.7-33,13.7C2398,3287.8,2384.4,3288.8,2366.9,3291.4z M2554.3,2857.4
	c11.2-36.7,17.7-69.2,21.1-106.9c-38,10.1-71.5,19-109.4,29.1C2496.6,2806.6,2523.8,2830.6,2554.3,2857.4z M1857.5,3675
	c0.3,2.1,0.7,4.1,1,6.2c47.7,4.7,95.2,12.4,148.9,7.4c-26.7-21.4-48.9-40-72.1-57.2c-4.3-3.2-14.3-3.7-18.5-0.8
	C1896.4,3644.5,1877.1,3660,1857.5,3675z M1787.7,3087.8c-12.5,21.9-20.3,43.8-35,59.2c-16.5,17.3-42.3,19-65.6,17.7
	c-31.7-1.8-56.9-28.2-68.1-69.7c-8.3,7-15.5,13.2-22.9,19.5c19.3,16.8,36,31.8,53.1,46.2c17.6,14.8,35.6,29,52.5,42.8
	c39.1-30.5,75.4-58.8,112.5-87.7C1805,3106.1,1796.9,3097.5,1787.7,3087.8z M1475.9,3045c-1.7,1-3.3,1.9-5,2.9
	c2.9,36,10.3,71.1,21.7,108.8c22.8-15.1,42.5-28.2,65.5-43.4C1529,3089.1,1502.5,3067,1475.9,3045z M2251.9,3658.4
	c-18.3-14.1-31.6-24.8-45.3-34.8c-15.2-11.1-18.4-10.6-33.6,2.4c-17,14.6-34.2,29-51.2,43.7c-3.3,2.9-5.9,6.7-8.8,10.1
	c0.8,1.6,1.5,3.2,2.3,4.8C2159.1,3676.2,2202.9,3667.8,2251.9,3658.4z M2034.1,2809.4c-1.3,2.2-2.6,4.4-3.9,6.6
	c16.8,18.9,35.2,36.3,56.4,50.6c3.1,2.1,11,0.9,14.3-1.7c19.4-15.3,35.4-33.6,50.6-55.4C2109.5,2809.4,2071.8,2809.4,2034.1,2809.4z
	 M2523.5,3021.4c6.5-33.1,11.8-60.5,18.3-93.7c-25.2,20.8-48.2,34.9-65.7,58.1C2492,2997.7,2505.4,3007.7,2523.5,3021.4z
	 M1641.6,3608.7c-11.2-27.9-50.5-64.2-76.4-70.4c2.4,31.1,19.4,52.2,43.5,68.9C1619.4,3614.6,1630.2,3616.2,1641.6,3608.7z
	 M1665.7,3080.2c12.1,0.6,28.3-13.8,28.3-25.2c0-9.7-9.9-20.4-19.2-20.6c-13.2-0.4-27.8,12.7-27.8,25
	C1647,3069.9,1655.8,3079.7,1665.7,3080.2z M2311.7,3030.7c-13.2,0.1-20,7.3-20.3,21.4c-0.3,14.5,7,24.6,17.5,24.3
	c11.4-0.3,27.5-14.4,27.4-23.9C2336.1,3041,2324.4,3030.6,2311.7,3030.7z M2063.9,3139.3c-23.5,19.7-44.5,37.4-67.8,56.9
	C2036.4,3195.7,2062.8,3174.3,2063.9,3139.3z M2499,3144.8c-19.6,8.1-34.7,15.5-42.6,37.1c12.2,3,22.9,5.6,35.9,8.8
	C2494.7,3174,2496.6,3161,2499,3144.8z M1493.2,2765.6c-21.9-8.5-37.9-11.8-59.1-7.8c11.2,12.3,19.7,21.5,29.9,32.7
	C1473.4,2782.5,1481.4,2775.7,1493.2,2765.6z M1426.4,2777.7c-2.3,1-4.5,2.1-6.8,3.1c1.2,10.4,2.4,20.8,4,34.6
	c10.1-4.8,16.5-7.9,26.4-12.6C1440.6,2792.8,1433.5,2785.3,1426.4,2777.7z M1521.1,3283.1c-4,14.1-2.4,23.1,7.4,27.6
	c3.3,1.5,9.3-2.9,18.4-6.1C1536.3,3295.8,1529.6,3290.2,1521.1,3283.1z M1680.6,3643.1c0.8-2.3,1.6-4.7,2.4-7
	c-5.8-6.4-12.2-10.8-27.8-3.4C1667,3637.5,1673.8,3640.3,1680.6,3643.1z M1543.8,3269c-0.6,1.3-1.2,2.7-1.7,4
	c4.3,2,8.6,3.9,12.9,5.9c0.6-1.4,1.2-2.8,1.9-4.2C1552.5,3272.8,1548.1,3270.9,1543.8,3269z"/>
<path d="M2150.7,781.5c0.3-39.4,33.2-69.3,75.4-68.5c36.2,0.7,66.5,32.4,66.3,69.4c-0.2,43-32.6,73.2-77.6,72.3
	C2176.9,854,2150.4,823.7,2150.7,781.5z"/>
<path d="M1650.3,852.8c-41.5,2.9-69.4-34.4-69.3-70.5c0.1-39.7,30.5-70.5,70.1-70.5c39.2,0,70.4,30.8,71,70.1
	C1722.9,823.4,1693.4,852.5,1650.3,852.8z"/>
<path d="M1938.5,933.3c-47.2,0.7-90.5-32.4-97.7-89.3c-0.7-5.7-0.3-12.5,2.3-17.3c4.6-8.6,18.8-6.9,22.7,2.8c3.8,9.5,5.2,20,9,29.6
	c11.8,30,38.8,47.1,68.6,44.2c35.5-3.5,55.3-20.7,63-54.5c1.1-5,2.2-10.1,3.4-15.1c2-8.3,5.6-14.7,15.9-12.3
	c9.2,2.1,11.7,8.6,12,17.3c1.2,36.3-26,76.1-61.4,87.5C1964.2,930,1951.1,931,1938.5,933.3z"/>
<path d="M1579.4,970.1c-19.7-5.4-40.6-8-58.7-16.7c-32.2-15.6-33-46.2-4-67.2c30-21.7,100.9-20.6,130.3,2.1
	c24,18.5,22.2,46.7-4.9,63.5C1623.4,963.4,1602.4,967.5,1579.4,970.1z M1581.5,944.2c13.6-3.2,30.5-6,46.5-11.3
	c5.3-1.7,12.3-10.5,11.6-14.9c-1.1-6.3-7.4-14.5-13.4-16.8c-30.1-11.1-60.9-10.7-90.7,1.1c-6,2.4-12.3,10.4-13.6,16.8
	c-2,9.9,6.8,15.5,15.4,17.6C1550.5,939.8,1564.2,941.3,1581.5,944.2z"/>
<path d="M2059.7,1163.2c7.7,15.2,3,22.4-6.5,27.3c-54.8,28-110.2,41.3-166.3,4.1c-28.3-18.7-57.8-26-90.7-15.1
	c-1.6,0.5-3.4,0.7-5,1.1c-7.3,1.9-14,1.8-16.6-6.9c-2.4-8.2,2.1-13.5,9.1-16.1c20.5-7.5,41.8-12.7,63.2-6.2
	c17.1,5.2,34.6,11.4,49.7,20.8c37,23,74.3,23.6,113.6,7.7C2025.9,1173.5,2042.4,1168.9,2059.7,1163.2z"/>
<path d="M2298.2,868.4c17.7,5.8,36.7,9.2,53,17.9c27.6,14.7,27.7,49.8,0.2,64.6c-40.7,21.9-83.4,20.7-124.1,0.5
	c-24.9-12.4-26.1-38.7-5.4-57.6C2237.6,879.3,2265.7,871.1,2298.2,868.4z M2223.2,920.7c12.2,8,18.5,13.8,26,16.7
	c26.7,10.4,54,8.4,80.8,0.7c8.9-2.5,18.9-6.6,18.7-18.4c-0.1-11.1-8.6-16.5-17.8-19.6c-26-8.7-52.4-10-78.1,0.1
	C2243.8,903.6,2236.5,911.2,2223.2,920.7z"/>
<path d="M1832.1,681.7c-6.9,7.9-11.2,15.7-17.7,19.4c-8.1,4.6-17,1.1-22.8-6.5c-3.6-4.7-6.8-10-9.1-15.5
	c-7.9-18.1-15.6-36.4-22.8-54.8c-4-10.3-0.7-19.2,9.1-23.9c9.6-4.6,22.8-7.8,28.2,2.5C1810.1,627.8,1820.2,654.3,1832.1,681.7z"/>
<path d="M1480,526.9c16.4-0.7,29.7,19.1,20.5,30.9c-18.9,24.1-44.5,40.4-73.4,50.3c-12.3,4.2-25-12.1-20.4-24.8
	c1.7-4.7,4.8-9.6,8.7-12.5c18.6-13.9,37.6-27.2,56.6-40.5C1474.8,528.3,1478.3,527.6,1480,526.9z"/>
<path d="M2308.5,499.3c0,12,0.1,24-0.1,36c-0.1,8.7-3.7,15-13.3,16c-9.7,1-19.6,1.3-24.4-9.4c-2.7-6.1-4.5-13-5.1-19.7
	c-1.5-17.1-2.5-34.3-3.1-51.5c-0.6-17.5,6.4-26,21.1-26.4c14.7-0.4,22.5,7,23.7,24c0.7,10.3,0.1,20.6,0.1,30.9
	C2307.9,499.3,2308.2,499.3,2308.5,499.3z"/>
<path d="M2073.6,550.4c-1.9,3.1-3.9,10.6-8.8,14.3c-18.4,14-37.5,27.2-56.8,39.8c-9.9,6.4-19.7,5.1-26.8-5.5
	c-7-10.6-4.5-20.1,4.6-27.3c18.3-14.2,36.5-28.8,56.1-41.1C2056.6,521.4,2072.5,530.6,2073.6,550.4z"/>
<path d="M1622.4,419.4c3.4,2,10.7,4.1,14.6,9c14.3,18.1,28,36.7,40.8,55.8c6.1,9.1,2.9,18.6-6,24.7c-9.3,6.4-19.9,7.6-27.8-2
	c-15.1-18.6-30.1-37.3-43.4-57.2C1591.9,436.6,1603.5,419.2,1622.4,419.4z"/>
<path d="M2121.1,358.5c-4.7,5-8.9,12.8-15,14.8c-6.2,2-17.2,0.9-20.9-3.4c-15.6-18.1-29.5-37.6-43.6-57c-5.9-8.2-3.5-16.3,3.4-23.1
	c7.5-7.5,16.2-9.8,25.5-3.9c5,3.2,10.3,6.8,13.7,11.5c10.9,15.3,21.2,31.1,31.3,46.9C2117.8,347.8,2118.6,352.1,2121.1,358.5z"/>
<path d="M2275.7,324.4c-7.7,0.6-15.4,1.7-23.1,1.8c-15.6,0.1-21.6-5-22.8-18.2c-1.3-14.1,2.7-20.2,18.2-22.1
	c22.1-2.7,44.5-3.9,66.8-5c9.4-0.5,19.6-0.5,21.9,12.4c2.1,11.7-5.4,25.5-17.4,27.7c-14.3,2.7-29,2.8-43.5,4.1
	C2275.7,324.8,2275.7,324.6,2275.7,324.4z"/>
<path d="M2250,683.9c-15.6,0.2-23.1-5.5-25.6-18.2c-2.4-12.7,1.9-19,18.1-22.6c21-4.6,42.1-8.6,63.4-11.7
	c15.4-2.3,24.1,3.2,26.4,14.2c2.2,10.7-3.5,19.2-18.5,23.7c-16.4,4.9-33.4,8.4-50.1,12.3C2258.7,682.8,2253.6,683.4,2250,683.9z"/>
<path d="M1839.4,444.3c-6.9-6.9-14.2-11.1-16.5-17.3c-1.8-5,0.3-15.6,4.2-17.9c22-13.1,44.7-25.4,68-36.1c9.9-4.6,17.9,3,23.3,11.6
	c5.5,8.6,4.7,18.5-3.5,22.9C1891,420.5,1866,431.6,1839.4,444.3z"/>
<path d="M2471.3,805.3c-6.9-6.5-13.4-10.5-16.8-16.3c-4.9-8.3-3-18.3,5.9-22.2c23.4-10.2,47.3-19.4,71.5-27.7
	c9.1-3.1,16.3,2.9,20.4,11.6c4.3,9.4,1.5,18.5-6.6,22.3C2522,784.4,2497.5,794.1,2471.3,805.3z"/>
<path d="M1859.9,301.3c-23.6-13-45.8-24-66.5-37.4c-9.1-5.9-5.4-17-1.3-26c4-8.8,12-10.9,19.4-7.4c21.5,10.3,42.8,21.2,63,33.8
	c4.3,2.6,6.6,14.6,4.3,19.9C1875.9,290.8,1867.4,294.9,1859.9,301.3z"/>
<path d="M2761.2,2177c5.4,31.1-41.5,259.6-63.9,311.9c-11.4,1.7-17.6-3-17-15.1c0.2-5.1,1.7-10.2,2.8-15.2
	c16.5-75,33.1-149.9,49.5-224.9c3.1-14.3,5.7-28.8,9-43.1C2743.8,2181.6,2747.7,2174,2761.2,2177z"/>
<path d="M1224.7,2186.2c2-2.4,4.8-8.6,9.1-10.1c8.2-2.9,12.8,3.3,14.4,10.7c3.7,16.8,6.8,33.8,10.2,50.7
	c11.5,58.4,23.2,116.7,34.5,175.1c1.7,8.6,8.7,20.1-4.6,24.2c-15.4,4.8-16.1-9.5-18-18.9c-14.8-73.5-29.2-147.1-43.7-220.7
	C1226.3,2194.7,1225.8,2192.2,1224.7,2186.2z"/>
<path d="M2663.8,2552.3c-2.3-4.1-7.7-9.7-8.4-15.9c-1.3-10.9,6.7-18,17.1-17.2c7.2,0.6,13.3,3.1,13.6,12
	C2686.5,2541.5,2677.4,2552.3,2663.8,2552.3z"/>
<path d="M1311.5,2515.7c-20-3.2-22.2-6.7-18.8-30.9C1315.4,2483,1319,2489,1311.5,2515.7z"/>
<path d="M1674.8,1821.6c25.3,2.3,49.1,8.1,69.5,21.4c40.2,26.3,77.9,20.8,116.2-3.5c12.3-7.8,25.7-14.2,39.3-19.1
	c4.8-1.7,11.8,2.9,17.8,4.6c-2.3,5.9-2.8,14.6-7.1,17.4c-31.3,19.9-62.9,39.7-100.4,46.1c-22.3,3.8-43.5-1.4-61.8-13.7
	c-33.7-22.7-69.3-29.4-108.4-18.9c-1.7,0.4-3.6,1.4-5,0.9c-5.2-1.8-10.3-4.1-15.4-6.3c2.7-5.7,4.1-15,8.3-16.5
	C1643,1828.4,1659.1,1825.5,1674.8,1821.6z"/>
<path d="M1144.2,1575.2c-19.8-0.4-23.8-2.9-23.6-20.9c0.3-24.1,1.1-48.4,4.5-72.2c9-63.8,29.1-124,63.3-178.9
	c4.5-7.2,10.1-14,16.7-19.2c2.8-2.2,10-0.9,13.8,1.3c2.6,1.5,4.6,7.8,3.7,11c-2.1,7.3-5.3,14.6-9.5,21
	c-48.9,75.5-69.5,158.6-67.5,247.9C1145.7,1568.8,1144.7,1572.1,1144.2,1575.2z"/>
<path d="M1209.3,1562.4c-22.4,2.8-26,1.1-25.9-17.6c0.3-49.8,9.5-97.7,34.4-141.8c6.7-11.9,11.2-25,17.3-37.2
	c4.6-9.1,9.5-18.3,15.6-26.5c5.1-6.8,13-9.2,20.6-3.5c8.1,6.1,6,14.4,0.7,20.5c-18.7,21.2-28.8,46.7-38.8,72.6
	c-12.9,33.5-19.7,67.8-20.8,103.5C1212,1542.6,1210.3,1552.7,1209.3,1562.4z"/>
<path d="M1235.3,1816.5c-5.6-16.5,4.6-22.1,16.3-23.6c24-3.1,48.1-4.6,71.5,5c24.6,10.1,49.4,19.5,76.1,29.9
	c2.2,9.5-2.3,17-14.3,16.3c-11.8-0.7-24.7-2.3-35-7.5c-31.8-16-64.2-24.9-100-18.1C1245.4,1819.4,1240.1,1817.2,1235.3,1816.5z"/>
<path d="M1157.4,1626.5c6.4,13.4,11.2,26.2,0.3,40c-12.9-2.6-18.4-10.9-18.5-22C1139.2,1634.1,1144.4,1626.6,1157.4,1626.5z"/>
<path d="M2415.5,1710.7c-0.1,12.3-5.1,20.1-17.3,22.5c-11.6,2.2-20.9-0.8-24-13.3c-5.7-22.5-11.7-44.9-15.6-67.7
	c-2.7-15.7,2.7-22,15.8-24.7c12-2.5,22.2,2.3,25.8,15.4C2406.2,1665.3,2410.4,1688.1,2415.5,1710.7z"/>
<path d="M2805.8,1668.7c0.6,25.1-3.1,31.5-14.6,33.7c-12.6,2.4-21.9-3.5-25.7-19.3c-5.2-21.7-8.9-43.8-12.6-65.9
	c-1.9-11.6,1.9-20.3,15-22.8c14.8-2.8,23.9,1.3,27.3,15.9C2800.1,1632.1,2803.2,1654.2,2805.8,1668.7z"/>
<path d="M2826.5,1486.7c-0.7,16.9-22.2,26.5-35.8,16.9c-8.3-5.8-14.9-14-22.2-21.3c-9.7-9.7-19.4-19.4-28.7-29.4
	c-6.3-6.8-9.3-14.6-2.9-23.1c6.7-9.1,15.6-13.6,26.8-10c4.8,1.5,9.7,4.2,13.1,7.8c15.3,16.2,30.2,32.7,44.9,49.5
	C2824.3,1480,2825.4,1484.4,2826.5,1486.7z"/>
<path d="M2375,1422.4c-10,28-18.4,53.2-28.2,77.8c-4.5,11.2-15.2,13.2-26.2,9.4c-11.2-3.9-13.4-12.3-9.9-22.8
	c8.1-24.4,15.8-48.9,24.7-72.9c4.4-11.9,15.7-14.2,25.7-9C2367.3,1408.1,2370.7,1416.7,2375,1422.4z"/>
<path d="M2548.6,1734.4c-16.9-0.5-27.8-16.1-20.7-27.7c14.4-23.8,34.6-42.6,59.6-55.1c4.6-2.3,15.2-0.2,18.4,3.7
	c4.2,5.1,6.1,14.5,4.6,21.1c-1.5,6.9-7.6,13.2-12.9,18.6c-10.2,10.4-20.9,20.4-32.1,29.8C2559.7,1729.4,2552.4,1732.2,2548.6,1734.4
	z"/>
<path d="M2883.7,1882.7c10.9-6.3,19.8-4.1,25.6,4.9c16.7,25.9,23.2,55.2,24.7,85.5c0.4,7.9-4.2,16.7-13.6,15.1
	c-4.8-0.8-12-8.6-12-13.3c0-29.4-8.7-55.7-24.4-80.2C2882.1,1891.8,2883.7,1886.7,2883.7,1882.7z"/>
</svg>
