<?xml version="1.0" encoding="utf-8"?>
<!-- Generator: Adobe Illustrator 24.3.0, SVG Export Plug-In . SVG Version: 6.00 Build 0)  -->
<svg version="1.1" id="Layer_1" xmlns="http://www.w3.org/2000/svg" xmlns:xlink="http://www.w3.org/1999/xlink" x="0px" y="0px"
	 viewBox="0 0 4000 4000" style="enable-background:new 0 0 4000 4000;" xml:space="preserve">
<path d="M3825.9,2160.4c0,103.4,1.5,206.9-0.4,310.3c-2.3,130.1-12.8,259.1-52.3,384.5c-60.7,192.5-179,337.8-351.8,440.8
	c-130.5,77.8-270.1,132.4-416.3,172.2c-180.9,49.3-365,79.2-551,100.4c-221.4,25.2-443.5,30.7-665.8,23.6
	c-252.4-8.1-502.3-38-746.8-103.6c-178.2-47.8-349.9-112.3-504.9-214.7c-132.1-87.2-240.3-196.1-299.2-346.6
	c-34.3-87.7-52.2-179.3-61.8-272.7c-11.8-114-14.2-228.3-16.7-342.7c-3.8-174.9-11-349.7-16.4-524.6c-2.7-87.2,2.9-173.6,24.9-258.6
	c49.4-190.4,164.6-324.8,343.6-404.9c17.8-8,31.5-15.8,36.8-37.6C581.5,950.4,654.7,836,746.2,732.9
	C888,572.8,1065.6,466.1,1264,390.6c164.4-62.5,334.2-102.3,508.3-123.4c222.6-27,443.5-15,662.8,32.4
	c141.7,30.6,277.9,75.8,406,144.1c152.8,81.5,284.9,186.8,379.9,334.1c11.3,17.5,22.6,35.4,31.1,54.4c10,22.2,26.1,32.7,49.1,39.2
	c73.3,20.7,143.3,49.6,207.5,91.4c113,73.4,189.1,175.4,235.8,301.1c37.5,101.2,51,206.9,62.7,313
	C3828.6,1770.8,3829.9,1965.5,3825.9,2160.4z M3333.9,1073.8c0.3,5.4,0.3,10.9,0.9,16.2c19.7,190.2-21.6,365.2-131.3,522.7
	c-87.7,125.9-205.9,215.8-341.4,284.3c-252.7,127.8-523.7,186.4-803.9,202.4c-229.3,13.1-457.4-5.9-682.8-51.4
	c-169.2-34.2-331.5-88-480.5-177.3c-106.1-63.6-198.1-142.9-266.5-247C555.3,1513,523,1390,522,1258.1c-0.1-9.4-1.3-18.8-2-29.3
	c-6.4,1.4-9.8,1.3-12.3,2.8c-107.4,64.2-186.6,152.3-231.2,270.6c-38.5,102.2-44.3,208-39.3,315.4c2.8,59.3,7.5,118.6,9.2,178
	c3.7,125.4,6.3,250.8,9,376.2c3,136.6,9.9,272.8,38.3,406.9c20.6,97.3,59.2,186.3,123.6,263.1c71.8,85.7,160.5,149.8,257.7,203
	c154.7,84.6,320.9,137.8,491.9,177.4c202.4,46.8,408,65.8,615.2,71.9c271.1,8,541.3-1.4,810.1-39.6c73.9-10.5,147.3-25.1,220.5-39.7
	c17.8-3.5,36.3-11.5,50.6-22.4c49.1-37.3,85.9-84,106.4-143.6c20.6-59.7,32.8-121.1,39.5-183.4c13.5-125.3,6.9-250.5-2.8-375.8
	c-8.9-115.1-20.7-230.2-10.1-346c9.7-106.3,35.9-207.7,87-302.2c46.7-86.6,107.6-163.5,164.4-243.1
	c46.7-65.4,93.8-130.8,126.2-204.7c61.3-139.6,74.3-281.9,17-426.4C3377.7,1133.7,3362.2,1100.9,3333.9,1073.8z M822.7,812.1
	c-1.6-1.4-3.2-2.7-4.8-4.1c-4.8,4.2-9.8,8.2-14.2,12.7C755,870.9,716.2,928.1,684.2,990c-125.7,243.7-72.3,524.4,133.6,705.3
	c86.1,75.7,184.5,131.2,289.7,174.7c106.1,43.9,216.7,72.5,329.6,92.9c142.1,25.7,285.5,37.3,429.9,41.1
	c250.8,6.7,495.9-25.6,734.7-103.2c140.2-45.6,272.2-107.9,388.1-199.8c155.6-123.4,244.5-284.9,254.8-484
	c8.9-171.7-44.3-325.4-155-457.9c-94.2-112.7-212.5-194.2-343.9-256.8c-142-67.7-292.6-108.1-447.9-131.5
	c-109-16.4-218.6-26-328.9-22.8c-166.7,4.7-330.6,29.3-491.1,75c-132.6,37.8-261.4,84.7-381.9,152.8
	c-66.3,37.5-122.4,85.2-165.7,148.3c-62.6,91.4-103.8,190.9-117.3,301.4c-23,187.9,44.2,364.8,223.7,461.9
	c25.1,13.6,50.6,26.5,75.7,40.2c9,4.9,17.1,11.4,12.2,23.6c-4.5,11.2-12.9,18.4-25.2,17.6c-8.6-0.6-17.6-2.6-25.4-6.3
	c-23.8-11.3-47.9-22.4-70.4-35.9c-120.8-72.1-203.6-172.4-233.4-313c-22.3-105.2-10.7-207.9,19.2-309.4
	C798.6,873.1,811.5,842.9,822.7,812.1z M2995.3,3369.1c30.7-9.5,56.8-17.2,82.7-25.5c116.8-37.4,228.1-86.5,330.7-154.4
	c131.4-86.9,223.1-204.2,271.8-354.3c33.2-102.4,47-208,48-315.2c1.2-128.8,1.5-257.5,1.9-386.3c0.6-172.8,1-345.6-15.6-517.9
	c-9.6-99.7-21.8-199-51.4-295.3c-40-130.3-119.8-228.5-236.5-297.6c-7.5-4.5-16.3-6.8-24.5-10.2c2.8,15.6,8.7,26,15.1,36
	c58.5,92.8,85.8,194.3,86,303.8c0.2,123.5-38.4,235.4-97.6,341.9c-53.1,95.7-121.2,180.9-185.7,268.6
	c-75,101.8-129.3,211.5-148.1,337.8c-15.1,101.1-8.5,201.8-1.2,302.9c8.2,114.1,19.2,228.2,20.1,342.4
	c1.1,142.1-22.7,280.6-92.6,407.6C2997,3356.2,2997.1,3359.8,2995.3,3369.1z"/>
<path d="M1545.1,2294.4c-83.4-13.9-167.4-24.8-250-42.5c-165-35.3-325.2-86-473.6-168.4c-121.5-67.4-229.7-151-310.5-266
	c-45.9-65.3-80.1-136.4-99.7-214.1c-3.2-12.7-4.6-25.9-5.9-39c-1.4-13.8,3.9-23.3,19-25.7c15.7-2.5,21.8,5.7,24.3,19.7
	c31.5,175.7,138.9,300.3,275.6,403.8c100.7,76.3,214,129.1,332.5,172.3c155.8,56.8,316.9,89.5,480.6,111.5c7.6,1,15.2,2.1,22.8,3.6
	c12.4,2.5,19.5,9.7,18.4,23c-1.1,14.2-10.7,17.9-22.9,18c-3.3,0-6.6,0-9.9,0C1545.6,2291.8,1545.4,2293.1,1545.1,2294.4z"/>
<path d="M2445.6,2758.9c-1.1,64.2-52.2,113.9-117,113.6c-59.4-0.2-108.6-55.1-106.8-119.1c1.6-59.7,57.2-112.1,117.1-110.6
	C2397.7,2644.3,2446.7,2697.6,2445.6,2758.9z"/>
<path d="M1561.9,2767.7c-0.5,61.3-48.3,109.3-108.8,109.4c-60.9,0-109.1-48.3-108.6-109c0.5-61.3,51.2-112.2,111.1-111.6
	C1516,2657,1562.4,2705.6,1561.9,2767.7z"/>
<path d="M1912.7,3012.1c-70.6-3.7-118-24.5-149.5-74.6c-12.7-20.2-18-42.2-16.8-66c0.6-10.8,4.2-19.6,15.9-21.9
	c12.1-2.4,22,1.5,27.2,13.1c3.6,8,6,16.5,8.8,24.8c14.2,41.1,44.3,62.1,86.3,64.9c18.2,1.2,37.4-1.2,55.1-5.9
	c30.7-8,52-27.6,60-59.5c1.6-6.4,3.4-12.7,5.4-19c6.2-20.2,13.6-25.9,29.5-23c14.9,2.7,24.4,13.2,23.1,31.1
	c-3.9,52.3-29.8,92.3-76.3,115.2C1956.5,3003.6,1927.5,3007.8,1912.7,3012.1z"/>
<path d="M2460,2928.7c26.3,4,49.1,7,71.6,10.9c6.3,1.1,12.5,4.2,18.4,7.1c18.9,9.4,32.7,23.2,32.4,45.7c-0.3,21.1-14,34.4-31.6,42.8
	c-38.7,18.4-80,24.7-122.1,18.4c-23.4-3.5-48.4-8.6-68.2-20.5c-32.2-19.3-30-57.7,1.1-78.6c6.3-4.2,13.5-8,20.8-9.6
	C2409,2938.7,2435.8,2933.6,2460,2928.7z M2394,2998.2c22.5,10.2,78.1,13.6,111,5.8c7.2-1.7,13.5-7.3,22.3-12.3
	C2488.2,2968,2420,2972.8,2394,2998.2z"/>
<path d="M1348.2,3068.4c-27.7-3.3-47.3-5.3-66.8-8c-6.4-0.9-13-2.8-18.8-5.6c-21.5-10.7-40.7-25.1-40.6-51.3
	c0.1-27.7,18.7-43.1,43.4-51.8c55.4-19.6,110-16.6,163.5,6.9c20.1,8.8,36.6,21.7,35.2,46.5c-1.3,23.7-16.1,39.3-37.1,45.6
	C1399,3059.1,1369.8,3063.7,1348.2,3068.4z M1269.6,3001.7c37.8,25.1,115.7,23.6,140.8-2.1C1363,2980.8,1318.2,2981.7,1269.6,3001.7
	z"/>
<path d="M1882.4,471.2c212.5,3.8,412.2,31.8,604,103.5c125.2,46.8,238.3,113.4,328.8,213.9c87.5,97.2,134,211.9,137,341.8
	c2.5,108.1-34.7,205.1-101.3,290.4c-64.2,82.2-147.4,141.3-237,192c-127.6,72.1-264.2,118.7-408.5,144.3
	c-161.6,28.7-323.5,35.2-486.2,12.8c-98.2-13.5-194.5-36-289.3-65.1c-11.3-3.5-24.3-5.4-27.2-20.3c-4-21,11.5-34.4,34.4-28.8
	c53.3,13.2,106.2,28.3,159.8,40.5c164.6,37.5,330.5,46.1,498.3,25.2c99.7-12.4,197.8-31,292.7-63.8
	c122.4-42.4,238.6-97.6,337.1-183.5c36.2-31.6,70.5-66.9,99.1-105.4c82-110.6,95.2-233.9,55.8-363.7
	c-33.6-110.6-103-195.6-194.2-264c-104.8-78.5-224-125.9-349.5-158.3c-168.4-43.4-339.9-61.7-513.6-52.1
	c-198.7,11-387.1,57.3-552.4,174.8c-73.5,52.2-136.4,114.6-177.6,196.3c-70.2,139.2-40.8,292,75.7,396
	c78.7,70.3,170.8,116.5,270.4,147.1c185.7,57,376.2,81.1,570.3,68c152.2-10.3,298.4-44.6,427.5-130.5c35.3-23.5,69.4-51.3,97.4-83.1
	c89.3-101.2,93.9-218.4,20.3-334.6c-49.1-77.5-120-130.7-202.1-169.7c-83.5-39.6-172.7-58.5-263.4-71
	c-132.3-18.2-263.5-12.2-392.5,23.9c-69.3,19.4-135.7,46.7-192.2,92.2c-26.2,21.1-51.2,45.9-70.2,73.5
	c-44.7,64.6-39.5,143.9,9.5,205.7c42.9,54.2,99.1,89.7,163.4,113c98.1,35.5,199.4,43.3,302.5,34c75.9-6.9,150.7-19.8,219.9-53.8
	c26.5-13,52.7-28.1,75.6-46.6c81.5-65.5,74.6-167.9-15.2-221.8c-25.1-15.1-53.2-27.7-81.6-34.2c-101.5-23.3-203.4-23-302.6,11.1
	c-28.4,9.7-55.9,26.6-78.9,46c-32.1,27.1-27.8,57.6,6.3,82c31.7,22.7,68.7,29.6,106,32.4c43.3,3.3,85.3-5.1,125.2-23.2
	c14.9-6.8,24.4-16.6,28.8-33.3c7-26.5,15.5-33.4,33.8-33.8c21.2-0.5,39.7,12.9,46.3,35.3c8.6,29.4,4.6,56.4-17,79.8
	c-21.5,23.2-47.5,39.5-77.1,49.2c-90.4,29.7-179.7,26.6-267.1-12.3c-5-2.2-9.9-4.8-14.8-7.4c-111.9-60-92.2-188.2-6.7-241.6
	c55.3-34.5,116.9-50.7,181-57c95.9-9.4,191.5-9.4,283.7,24c60.6,21.9,113.2,55.1,141.5,116.1c34,73.1,23.9,141.3-27,203.4
	c-30.7,37.4-70.6,62.3-113.8,82.8c-80.7,38.4-166.7,55.9-254.9,63c-105,8.5-208.8,2.3-309.9-31c-67.8-22.3-128.5-57.2-182.9-103
	c-32.3-27.3-58.5-59.6-75.8-98.7c-39.1-88.5-19.6-170,31.2-246.8c41.2-62.2,99.4-105.5,164.8-139c101.2-51.7,209.2-79,322.6-87.2
	c128.2-9.3,255.3-3,380.2,27.8c114.4,28.2,221.5,72.8,311.7,151.5c56.5,49.4,100,108.4,127.6,178.1c52.6,133,34,256.9-52.1,370.4
	c-62.9,83-148,136.9-241.5,178.7c-117.9,52.7-242.2,78.3-370.7,86.1c-210,12.7-415.1-13.6-614.6-79.9
	c-96.6-32.1-187.3-76.8-265.9-142.9c-93.9-78.9-155.1-176.3-165.5-301c-8.4-100.2,17.1-192.3,73.7-274.8
	c83-121.2,197.1-202,334-252.5c116.1-42.9,235.5-72,358.8-83C1781.1,474.8,1836.1,473.6,1882.4,471.2z"/>
</svg>
