<?xml version="1.0" encoding="utf-8"?>
<!-- Generator: Adobe Illustrator 24.3.0, SVG Export Plug-In . SVG Version: 6.00 Build 0)  -->
<svg version="1.1" id="Layer_1" xmlns="http://www.w3.org/2000/svg" xmlns:xlink="http://www.w3.org/1999/xlink" x="0px" y="0px"
	 viewBox="0 0 4000 4000" style="enable-background:new 0 0 4000 4000;" xml:space="preserve">
<path d="M1969,3652.3c-201.7,4.9-399.3-23.7-591.1-86.2c-266.6-86.9-497.5-231.6-691.8-434.4c-189.9-198.3-322.5-429.5-398.3-693.3
	c-42.7-148.4-64.2-300.3-65-454.1c-2.1-389.1,97.7-747.2,333.1-1062.6C707.9,718.2,898.3,560.6,1121.9,442
	c205.3-109,423.4-182.2,651.6-222.6c231.4-40.9,461.4-27,689.1,31.9c171.9,44.5,337.4,104.3,492.1,192.2
	c154.2,87.5,290.9,196.4,403.8,333.6c115.7,140.6,201.5,298.2,263.1,469.3c64.7,179.7,99.9,364.7,114,555.2
	c30,405-82.9,770.6-296.7,1109.6c-125.6,199.1-287,363.3-488,487.1c-200.1,123.3-417.3,199.7-649.8,232.4
	c-60.2,8.5-120.7,16.7-181.3,20.8C2069.8,3655.1,2019.3,3652.3,1969,3652.3z M3662.5,1869.4c-6.5-195.7-44.2-417.2-126.8-630.3
	c-74.7-192.6-182.1-363.7-329.9-508.6c-127-124.5-275.9-216.5-437.1-289.2c-159.9-72.1-327-119.6-500.6-145.6
	c-199.3-29.8-396.7-20.4-592.7,25.4c-148.7,34.7-292,85.1-430.1,149.7c-143.8,67.3-277.9,150.6-398,254.9
	C624.4,919,467.5,1156.2,377.5,1437.5c-46.4,144.9-70.3,293.5-72.2,445.4c-0.6,49.3,6.4,98.2,27,143.9c26.9,59.8,71.2,93.9,139,94.6
	c26.9,0.3,53.9,2.2,80.5,6.3c65.3,10.1,116,41.8,144.9,103.5c17.6,37.6,28,77.1,29.3,118.5c2.3,77.2,3.5,154.5,5.5,231.7
	c1.3,48.2,6.9,95.9,25.9,140.8c31.8,75.1,89.9,96.6,162.1,58.5c28.9-15.2,55.5-34.7,82.8-52.7c18.6-12.2,36-26.3,55-37.7
	c70.2-41.9,133.4-28.3,179.4,38.9c12.5,18.3,22.1,38.6,33.7,57.5c27.3,44.4,60.9,51.6,102.4,19.5c18.3-14.2,33.9-32.2,49.6-49.4
	c26-28.5,49.1-60.1,77.2-86.3c48.2-44.9,104.6-71,172.8-56.9c46.3,9.6,84.4,34.2,115.1,69.6c20.7,23.8,38.6,50.1,59.5,73.8
	c24.7,27.9,48.9,57.2,77.8,80.2c41.6,33,90.2,32.5,133.8,2.3c22.9-15.9,42.9-36,63.6-54.9c20.7-18.9,39.3-40.5,61.2-57.8
	c60.5-47.8,144.7-61.7,215.7,9.2c17.4,17.3,32.9,36.5,49.7,54.4c11.2,11.9,22.3,24.2,35.2,34.1c30.3,23.2,53.8,22.1,81.4-3.6
	c17.1-15.9,32.5-33.6,48.7-50.6c36.1-37.7,79.6-47.5,128.5-32c18.8,6,37.6,13.7,54.2,24c27.8,17.2,54,37,80.6,56
	c28.8,20.6,59.7,36.8,94.4,45.2c64.2,15.5,132.7-14.8,146.5-88.7c5.3-28.7,8.2-57.8,11.3-86.9c4.9-45.4,6.7-91.2,14-136.1
	c18.3-112.6,88.4-187.5,212.7-186.4c32.8,0.3,65.7,2.5,98.3,0.7c88.3-5,160.9-40,181.9-146.9
	C3657.3,2113.8,3663.9,2008,3662.5,1869.4z M3578.5,2433c-6.1,0-9.6-0.8-12.6,0.1c-55.7,16.9-112.7,19.4-170.4,16.3
	c-21-1.1-42.2-0.6-63.1,1.4c-46,4.3-78.6,28.8-96.7,70.9c-7.3,17-12.6,35.6-14.8,53.9c-5.7,46.4-8.1,93.3-13.9,139.7
	c-4.2,33.6-8.5,67.7-18.3,99.8c-31.4,102.5-118.3,152.6-223.9,131.9c-60.1-11.8-110.5-43.5-160.1-77.2
	c-22.2-15.1-44.6-30.3-68.4-42.6c-32.1-16.6-49.1-13.1-75.8,12.4c-15.2,14.5-28.4,31.2-43.6,45.8c-47.7,45.8-115.6,53-171,17
	c-17.4-11.3-32.4-26.8-47.1-41.7c-20.5-20.8-38.2-44.6-59.8-64.1c-35.5-32-70.4-32.2-107.5-2.4c-16.3,13.1-30.1,29.4-45.5,43.7
	c-26.5,24.6-51.2,52.1-80.7,72.5c-72.8,50.4-154,48.9-226.3-1.9c-20.9-14.7-40.4-32.3-57.1-51.5c-26.2-29.9-49-62.6-74.1-93.5
	c-13.2-16.3-26.8-32.8-42.7-46.3c-37-31.5-78.7-34.3-120.2-9c-13.8,8.4-27.2,18.7-38.1,30.5c-21.4,23.2-39.8,49.2-61.7,71.9
	c-25.8,26.8-51.3,55.3-81.7,76c-58.8,40-150.1,36.5-196.9-46c-11.6-20.3-23.8-40.3-36.3-60.1c-20.5-32.4-36.3-37.4-69.8-18.9
	c-19.3,10.7-37,24.6-54.7,37.9c-43.3,32.5-88.5,61.1-141.4,76c-72.5,20.4-149.8-5-192.8-66.6c-13.9-19.9-25.1-42.3-34.5-64.8
	c-18.7-44.8-26.1-92.5-27.5-140.6c-1.9-63.2,0.5-126.5-2.6-189.6c-2.1-41.8-7.7-83.9-17-124.6c-10.7-47-43.7-73.4-92.2-78.5
	c-22.1-2.3-44.3-4.3-66.5-5.3c-40.4-1.7-78.7-11.7-115-28.9c-14.2-6.7-27-16.5-43.9-27.1c1,14,0.7,23.4,2.3,32.4
	c10.7,59.9,18.9,120.4,33.1,179.4c65.7,274.1,201.4,510.4,394.2,714.1c180.4,190.7,397.9,324.8,645.9,409.7
	c122.3,41.9,248.4,65.5,376.9,79.2c155.8,16.7,311,13.7,466.1-5c149.3-17.9,294.1-54.9,434.1-110.6
	c165.8-65.9,318.7-153.4,449.7-275.2c214.4-199.3,366.2-439.4,459-716.9C3576.2,2449.5,3576.8,2441.7,3578.5,2433z"/>
<path d="M1947.4,2383.4c-198.6-11.4-367.3-96.8-465.4-288.2c-170.9-333.4,49-714,380.4-770.4c139.2-23.7,267.8-3.7,386,73.9
	c99.8,65.5,164.5,158.2,201.5,270.6c63.4,192.6,33.6,370.8-93.1,528.7C2256,2323.6,2118.5,2377.9,1947.4,2383.4z M2401,1848.8
	c-0.5-256-188.7-451-433.7-453.1c-215.9-1.9-466.6,166.2-462.6,463.3c3.3,245.7,201,444,451,442.6
	C2215.8,2300,2401.9,2104,2401,1848.8z"/>
<path d="M1466.5,855.3c-18.1,0.2-29.6-13.3-41-26.9c-36.1-43.1-72-86.3-108.2-129.3c-10.5-12.5-22.6-23.9-32.3-37
	c-15.6-21.2-13.5-38.6,4.7-56.2c20.6-19.9,39-22.9,58-1.8c53.9,60,105.5,122.1,157.6,183.6C1528.6,815.2,1502.5,853.4,1466.5,855.3z
	"/>
<path d="M2626,2255.7c-3,7.6-6.4,20.2-12.7,31.2c-30,52.7-60.7,105.1-91.4,157.5c-4.1,7-8.6,14-14.1,20
	c-16.1,17.4-34.3,19.7-53.4,7.8c-21-13.1-28.7-32.1-19.3-53.7c6-13.8,15.4-26,22.9-39.2c23.7-41.6,46.9-83.4,70.9-124.8
	c7-12.1,14.6-24,23.8-34.5c13.3-15.1,27.1-16.4,47.5-7.1C2617,2220.2,2626.3,2234.1,2626,2255.7z"/>
<path d="M3457,1653.3c-12.1-8.4-23.8-12.9-30.2-21.4c-44.3-58.5-88.2-117.4-130.8-177.2c-15.7-22-13.8-38,0.4-54.2
	c19.6-22.4,45.4-23.5,66.8-0.6c12.6,13.5,22.5,29.7,33.2,45c32.1,45.8,63.9,91.9,96.1,137.6c10.1,14.3,18,30.4,5.3,44.6
	C3487.7,1638.3,3471.7,1644.2,3457,1653.3z"/>
<path d="M1086.7,834.1c-1.2,6.3-2.3,14.5-4.5,22.3c-17.2,61.8-34.6,123.6-52.1,185.4c-2.2,7.8-4.8,15.7-8.3,23
	c-14,29.2-35,36.1-63,20.8c-14.7-8-23.2-19-18.2-37.1c5.6-20.2,9.9-40.8,15.7-61c13.7-48.2,27.7-96.4,42.3-144.4
	c3.7-12.1,8.4-24.6,15.5-34.9c10.6-15.2,26.4-17.8,43.7-11.3C1074.4,803.2,1086.1,813.1,1086.7,834.1z"/>
<path d="M3072.3,1809.2c0,23.6-10.9,36.3-34.8,40.5c-23.4,4.1-39.3-4.2-47.1-26.1c-3.8-10.9-5.8-22.6-7.5-34.1
	c-8.9-60-18.1-120-25.7-180.2c-1.7-13.1-0.7-28.7,5.1-40c8.8-17.2,27.1-20.3,45.7-18.3c18,2,27,14.3,30,29.8
	c6.2,32,10.9,64.4,15.7,96.7C3060.1,1721.4,3066.1,1765.3,3072.3,1809.2z"/>
<path d="M773.6,1635.5c-2.3-0.2-6.1,0-9.3-1.1c-70.7-24.6-141.7-48.2-211.6-74.8c-28.4-10.8-33.6-38.9-16.4-63.9
	c12-17.5,24-22.7,45.2-16.1c21.2,6.6,41.5,15.7,62.5,23c40.8,14.3,81.9,27.9,122.7,42.3c11,3.9,22.1,8.3,31.8,14.5
	c18,11.5,21.3,22.5,15.1,41.7C806.2,1623.8,793.3,1635.3,773.6,1635.5z"/>
<path d="M1290.6,1771.8c-1.8,22.1-12.5,32.7-26.3,40.1c-12.9,6.9-26.8,9.3-39.8-0.1c-5.6-4.1-10.8-9-15-14.5
	c-41.7-54.9-83.2-110-124.6-165.1c-9.4-12.5-15.3-25.6-8.6-42.2c13.8-34.1,46.7-42.4,72.3-16.1c13.7,14.1,24.4,31.2,36.2,47.2
	c29.3,39.4,58.7,78.7,87.4,118.5C1280.4,1750.6,1286,1763.4,1290.6,1771.8z"/>
<path d="M2758.4,1439.7c-4.6-0.9-11.7-1.4-18.3-3.6c-63.4-20.4-126.9-40.3-189.9-61.8c-31.4-10.7-39.9-31.9-27.7-60.6
	c10.1-23.8,24.6-31.8,49.8-23.9c63.5,19.7,126.7,40.5,190,61.2c7.7,2.5,15.3,6.1,22.1,10.5c17.9,11.5,21.8,23.8,15.8,45.1
	C2793.7,1429,2781.6,1439.2,2758.4,1439.7z"/>
<path d="M2942.8,1220.1c-29.5-1.4-59.6-26-37.3-62.7c38.7-63.7,77.7-127.3,118.3-189.8c17.9-27.5,42.8-29.1,64.7-8.6
	c12.4,11.6,16.1,25.3,11.1,41.2c-1.8,5.5-4,11.1-7.1,15.9c-38.5,61.1-77.1,122.1-115.7,183.2
	C2968.9,1211.8,2958.8,1220.8,2942.8,1220.1z"/>
<path d="M930.6,2116.5c0.2,22.5-12.5,37.4-33.6,43.9c-18,5.6-30,0.9-41.5-16.5c-1.9-2.9-3.6-6.1-4.8-9.3
	c-25.6-66.3-51.8-132.4-76.4-199.1c-8.5-23-2.7-36.5,15-48.6c24.1-16.5,48.1-11.7,61.9,13.9c7.7,14.3,12.9,29.9,18.6,45.2
	c18.2,49.2,36.1,98.5,53.9,147.9C927,2102.6,929.2,2111.7,930.6,2116.5z"/>
<path d="M3341.1,1985.5c22.7-0.1,38.4,13.2,44.1,35.4c5.5,21.3,0.3,35.1-22.8,44.4c-54,21.9-108.7,42-163.3,62.4
	c-16.4,6.1-33,11.7-50,15.9c-22,5.5-32-0.3-41.3-21c-10.3-22.8-8.5-38.2,7.4-50.3c7.3-5.6,15.9-10,24.5-13.3
	c61-23.4,122.1-46.4,183.2-69.3C3329.3,1987.3,3336.4,1986.5,3341.1,1985.5z"/>
<path d="M1597.3,1150.9c30.2,0,44.1,11.1,48.6,33.5c4.6,22.9-5.3,41.5-29.4,47.8c-45.1,11.6-90.7,21.4-136.2,31.6
	c-26.1,5.9-52.8,9.6-78.5,16.9c-26.5,7.6-42.8-11.2-48-33.2c-5.4-22.8,4.6-41.8,28.6-47.9c50.8-12.8,102.1-23.5,153.3-35
	C1558.3,1159.5,1581,1154.5,1597.3,1150.9z"/>
<path d="M1968.8,877.4c0.6-26.5,8.7-37.3,27-42.5c19-5.4,37.8-0.4,47,13.7c4.4,6.8,7.9,14.5,10.1,22.3
	c18.6,65.2,37.2,130.5,54.8,196c6.6,24.8-5.7,45.3-28.5,52.5c-22.3,7-43.3-3.7-52.4-28.4c-5.6-15.3-8.7-31.6-13.1-47.3
	c-12.4-43.9-25-87.7-37.2-131.7C1972.8,898.5,1970.4,884.7,1968.8,877.4z"/>
<path d="M2506,845.5c26.4,3.7,37.5,15.2,44.3,31.1c6.2,14.6,1.8,27.5-9.2,38.3c-13.3,13.1-26.2,26.8-40.2,39.1
	c-37.8,33.2-75.3,66.7-114.3,98.5c-27.6,22.4-49.6,16.7-65.6-13.2c-8.2-15.3-7.6-29.5,4-42c10.3-11.1,21.8-21.2,33.1-31.3
	c38.5-34.2,76.7-68.7,116-102C2484.8,854.7,2499.1,849.3,2506,845.5z"/>
<path d="M929.1,2483.8c3-4.9,7.6-17.5,16.4-25.5c46.6-42.7,93.7-84.8,141.6-126c21.9-18.8,39.5-16.6,58,3.5
	c19.4,20.9,20.2,37.3-1.6,57.6c-47,43.9-95.1,86.7-143.3,129.4c-13.6,12.1-29.9,19.6-48.2,9.1C936.6,2523,928.3,2509.6,929.1,2483.8
	z"/>
<path d="M2951.8,717.2c-0.1,32-33,54.5-57.7,44.5c-4.3-1.7-8.7-4-12-7.1c-47.2-43.5-95.1-86.4-141-131.3
	c-21-20.5-17.4-44.6,4.1-64.3c13-11.8,26.7-13.7,41.6-4.8c6,3.6,11.7,7.9,16.7,12.6c43.3,40.9,86.8,81.6,129.4,123.2
	C2941.6,698.6,2947.2,710.5,2951.8,717.2z"/>
<path d="M1628,623.2c5.3-9.6,9.6-21.9,17.6-31.1c36.6-42.5,74.1-84.2,111.5-126.1c4.7-5.2,9.8-10.1,15.3-14.4
	c17.4-13.4,30-12.8,47,1.8c18.4,15.7,21.6,30.1,11,49.2c-1.1,2-2.3,4.1-3.9,5.8c-43.9,48.5-87,97.8-132.3,145
	c-20.4,21.2-44.1,16.7-58.1-7.4C1632.7,640.1,1631.4,633,1628,623.2z"/>
<path d="M2165.7,466.7c-0.4-20,12.2-38.4,28.1-45.2c16.8-7.2,30-0.5,39.8,12.6c36.2,48.5,72.8,96.9,107.3,146.6
	c15.2,22,9.8,40.3-10.4,54.5c-19.3,13.6-40.5,12.3-55.7-8c-35-46.6-68.2-94.5-101.7-142.2C2168.8,478.8,2167.1,470.4,2165.7,466.7z"
	/>
<path d="M1081.8,1293.9c-6.9,12.7-9.8,23.9-16.9,30.2c-43.7,38.7-87.5,77.2-133,113.7c-20.6,16.5-40.3,11.6-54.9-7.8
	c-14.1-18.8-13.7-35.4,5.2-52.5c42.5-38.3,86.1-75.3,129.4-112.8c12.8-11.1,28.4-14.9,41.8-5
	C1064.7,1268.2,1072.1,1281.8,1081.8,1293.9z"/>
<path d="M1309.8,2234.7c-4.3-2.1-13.4-5-20.9-10.2c-44.1-30.5-88.2-61.1-131.6-92.7c-24.3-17.6-27.9-35.2-14.7-57
	c13.7-22.6,29.9-27.8,52.3-12.8c50.4,33.7,100.1,68.4,149.5,103.7c17,12.2,19,25.3,11,42.9
	C1346.9,2227.4,1332.1,2236.9,1309.8,2234.7z"/>
<path d="M2796.2,2028.5c-5.2-3.8-17.2-8.5-22.4-17.2c-30.2-51.2-59.5-102.9-87.6-155.3c-9.6-17.8-3.2-32.3,14.6-44.7
	c17.5-12.2,32.3-11.7,47.3,2.5c5,4.8,9.8,10.2,13.2,16.2c26.1,45.5,52.9,90.6,77.3,137C2854.8,1997.9,2836.4,2026.8,2796.2,2028.5z"
	/>
<path d="M464.7,1970.2c-39-4.8-54.2-28.1-39.6-54.8c26.9-49.1,55.4-97.3,85.1-144.7c14-22.3,29.3-24.2,51-12.4
	c21.8,11.9,28.1,28.7,15.4,52.9c-17.9,34-38,66.9-57.5,100c-8.9,15-17.3,30.8-28.9,43.7C482.6,1963.4,469.8,1967.3,464.7,1970.2z"/>
<path d="M2644.8,2649.1c-29.5,0.4-50-25.4-43.2-48.1c2.9-9.6,8.7-19.3,15.7-26.6c33.2-34.4,66.6-68.6,101.1-101.7
	c19.8-19,37.1-18.2,54.9-0.7c17.7,17.4,19.4,35.2,0.9,55.3c-33.1,36.1-67.5,71-102.3,105.4
	C2663.4,2641.2,2650.8,2645.6,2644.8,2649.1z"/>
<path d="M3062.2,2407.5c-0.6,21.5-10.9,31.8-25.4,38.7c-15.1,7.3-29.3,6.8-41.6-6c-2.4-2.5-4.9-5.1-6.7-8
	c-26.3-44-52.6-88-78.5-132.2c-8.8-15-6.3-28.8,6-41.3c21.3-21.6,40-22.3,58.5,3.1c23.3,31.9,43.1,66.3,64.4,99.7
	c5,7.9,10.6,15.5,14.7,23.8C3057.7,2393.6,3060.3,2402.5,3062.2,2407.5z"/>
<path d="M2376.4,3155.9c-53.8,0.5-102-48-102.9-103.5c-0.8-54.5,49.8-105.5,105.1-105.8c57.9-0.4,101.8,42.6,103.1,101.1
	C2483.1,3106,2435,3155.4,2376.4,3155.9z"/>
<path d="M1675.2,3043.3c0.4,56.4-45.3,101.7-102.8,102c-55.7,0.3-103-46.8-102.8-102.4c0.2-56.9,46-103.9,101.3-104
	C1630.1,2938.8,1674.8,2983.5,1675.2,3043.3z"/>
<path d="M1979.8,3282.5c-68,3.5-123.6-42.9-137.6-88.5c-4-13.1-5.7-27.3-6.3-41.1c-0.6-13.8,8.5-21.1,21.7-22.7
	c12.1-1.4,20.1,4.3,24.2,15.5c2,5.4,2.9,11.2,4.6,16.8c13,44.3,44,67.4,90.3,67.5c48.6,0.1,80.6-23.1,94.1-67.4
	c3.5-11.5,1.9-26.7,19.1-30c20.5-3.9,34.5,10.5,32.5,33.7c-5,57.2-52.5,106-111.2,114C2000.9,3281.8,1990.3,3281.8,1979.8,3282.5z"
	/>
<path d="M1470.6,3316.4c-24.2-3.3-45.4-4.3-65.5-9.6c-14.1-3.7-28.7-11-39.4-20.7c-23.2-20.9-19.9-51.2,6.9-67.7
	c12.6-7.8,27.6-12.5,42.1-16.1c44.6-11.2,88-4.7,129.7,13.2c18.9,8.2,35.2,21.2,34.2,44.1c-1,23.9-17.3,38.5-38.8,44.3
	C1516.3,3310.1,1491.8,3312.7,1470.6,3316.4z M1521.9,3259.6c-33.5-21.2-85-21.5-112.1-2.6
	C1442.8,3274.8,1485.8,3276.4,1521.9,3259.6z"/>
<path d="M2489.9,3332.5c-28.4-5.7-52.7-9-76.1-15.6c-20-5.6-36.2-18.3-37.5-41.1c-1.4-24.1,13.1-40.4,33.9-48.3
	c54.7-20.9,109.9-21.3,162.9,5.6c36.6,18.6,37.7,57.8,0.6,75.7C2547.2,3321.6,2516.3,3325.4,2489.9,3332.5z M2548.1,3275.7
	c-37.4-23.7-92.2-21.6-114.5,2.8C2471.1,3288.1,2507.2,3291,2548.1,3275.7z"/>
</svg>
