<?xml version="1.0" encoding="utf-8"?>
<!-- Generator: Adobe Illustrator 24.3.0, SVG Export Plug-In . SVG Version: 6.00 Build 0)  -->
<svg version="1.1" id="Layer_1" xmlns="http://www.w3.org/2000/svg" xmlns:xlink="http://www.w3.org/1999/xlink" x="0px" y="0px"
	 viewBox="0 0 4000 4000" style="enable-background:new 0 0 4000 4000;" xml:space="preserve">
<path d="M1979.2,589.3c138.1,2.1,235.8,9.4,331.2,36.2c103.4,29.1,191.4,80.4,249.3,174.4c8,12.9,18.5,14.9,31.9,15.9
	c180.7,14.1,347.5,71.9,502.5,164.1c55.8,33.2,106.1,73.7,146,126.2c32,42.1,56.1,87.7,67.3,139.2c3.9,18,12.8,27.4,28.9,34.9
	c173.8,81.3,292.9,213.9,362.2,391.8c26.1,67,34.4,136.5,19.3,207.6c-3.7,17.2,1,31.1,9.3,45.9c99.4,177.1,120.3,366.6,84.5,563.7
	c-6.3,34.7-19.1,69.5-35.6,100.7c-40.4,76.3-133.4,104.1-208.6,61.1c-40.8-23.3-75.7-56.5-114.6-83.3
	c-53.2-36.6-107.4-71.9-162-106.3c-6.9-4.3-20.3-2.8-28.8,0.7c-83.8,33.8-167.5,26.9-250.7-0.7c-18.1-6-32.6-7.5-48.7,3.5
	c-94.3,64.6-201.1,77.6-311.5,72.2c-26.6-1.3-43.6,5.5-63.1,24.8c-27.4,27.2-60.3,50.5-94.4,69c-91.1,49.4-190.4,77.2-291.3,97.8
	c-161,32.8-323.5,55.5-488.1,54.2c-51.7-0.4-103.6-7.1-154.7-15.4c-25.5-4.1-50.1-16.7-73.7-28.3c-14.1-6.9-25.1-7.2-39-0.9
	c-56.9,26.2-115.7,46.6-178.1,55.1c-74.7,10.2-147.9,8.5-214.9-32c-16.3-9.9-28.5-9.1-42.8,4.9c-44.4,43.7-95.7,76.2-157.8,88.6
	c-16.1,3.2-24.8,13-32.8,27.4c-30.2,53.7-52.1,110.6-71.4,168.9c-10.9,32.9-21.6,66-35.5,97.6c-50.5,115-160.2,119.3-234,82.1
	c-64.3-32.5-109.1-84.9-146.2-144.3c-69-110.3-103.8-231.3-105.3-361.4c-0.2-20-6-33.1-21.3-47.2c-17.2-15.9-30.5-37.7-40.4-59.3
	c-33.2-72-33.9-147.5-18.7-224.1c20.9-105.7,61.6-203.1,122.4-291.9c13.4-19.6,16.4-35.4,9.3-59.9c-18.4-63.3-12.9-128.3,1.3-192.1
	c31.6-142.9,102.4-266.6,189.8-381.7c64.7-85.2,139.5-160.4,227.8-221.4c22.7-15.7,46.8-29.6,70.8-43.4
	c13.2-7.6,20.8-16.3,19.8-32.8c-3.9-68.3,22.6-127.2,63.2-179c24.7-31.5,54-60.5,85.4-85.4c106.3-84.2,229.2-137.8,355.5-184
	c138.2-50.6,280.6-86.1,425.8-107.7C1817.8,600.3,1918.4,595.1,1979.2,589.3z M2662.8,1699.3c1.3-110.3-11.5-252.8-35.4-394.4
	c-24.5-145.3-62.6-286.4-128.5-419.1c-32.6-65.7-81.3-115.9-149.2-143c-45.8-18.2-94.2-32-142.6-40.8
	c-130.7-23.8-262.6-19.9-393.8-5.4c-230.3,25.5-450.7,87.9-659.7,188.5c-73,35.1-142.6,76.4-200.4,134.7
	c-36,36.3-59.9,78.7-67.6,129.8c-2.7,17.6,1.1,32,15.3,43.1c56.1,43.8,99.4,99.9,143.8,154.4c158.6,194.7,274.3,414.1,354,651
	c68.3,202.9,113.4,411.9,126.5,626.6c1.5,24.9,13.3,38,34.6,45.7c8.7,3.1,17.7,6.5,26.7,7.2c52.8,4,105.7,10.2,158.6,10.1
	c123.9-0.4,246.5-17,368.3-38.4c105.9-18.6,209.4-47,308.5-89.8c79.9-34.4,135-91.8,159.5-176.1c12.2-42.1,24.7-84.3,32.9-127.3
	C2647.2,2083.3,2663.1,1908.7,2662.8,1699.3z M1259.2,2695.2c58.7-6.3,107.8-25.6,156.3-46.7c13.9-6.1,15.9-17.8,14.3-31.8
	c-6.6-56.2-10.6-112.8-19.2-168.7c-42.6-276.6-128.9-538.3-266.3-782.9c-76.3-135.8-169.4-258.8-274.7-372.9
	c-19-20.6-23.1-21.3-47.6-8.9c-13.4,6.8-26.5,14.3-39,22.4c-133.2,87.1-233.8,205-317.9,338.3c-4.7,7.4-7.1,16.3-11.2,26.1
	c25.5,7.9,49,13.8,71.4,22.4c109.1,42.4,204.7,106.6,290.7,185c154.6,140.9,265.7,312.4,349.8,502.6c8.9,20.1,16.7,40.6,24.1,61.3
	c3.8,10.6,2.5,20.9-9.6,26.2c-12.6,5.5-22.6,2.2-29.1-10c-3.2-6.1-5.9-12.6-8.4-19c-49.4-125.4-114.8-241.9-196.3-349.3
	c-83-109.4-178.3-206.2-294.1-281.3c-60.3-39.1-123.2-73.3-194.5-88.4c-27.9-5.9-30.4-5-42.6,21.1c-26.2,55.8-44.6,114.3-52.9,175.2
	c-3.7,27.1-0.9,55.3,0.3,82.9c0.7,15.7,10.1,24.8,26.8,25.9c66,4.3,125.6,29.4,183.2,59c145.9,74.9,260.9,185.2,357.7,316
	c54.6,73.8,98.2,153.8,135.4,237.3c13.5,30.4,33.6,48.6,65.5,55c15.8,3.1,31.4,7.8,47.3,10c8.4,1.2,17.2-1.1,28.8-2.1
	c-2.1-18.2-3.5-32.9-5.4-47.6c-3.4-26.3-8-52.6-10.1-79c-0.5-6.1,6.8-17.9,10.9-18.1c9-0.3,21.6,2.5,26.5,8.8
	c6.6,8.4,8,21.3,10.4,32.5C1246.3,2627.8,1252.2,2659.4,1259.2,2695.2z M2667.4,2439c7.7,2,10.9,3.6,14.2,3.6
	c13.9,0.1,27.7,0.2,41.6-0.7c107.2-7,197.1-46.5,257.6-139.6c18.2-28,37.1-55.9,53-85.2c77.7-143.2,128.9-296,163-454.9
	c29-135.1,42.4-271.3,33.6-409.6c-5.9-93.1-40-173.1-109.1-235.8c-29.8-27-64.5-48.5-97.3-72.1c-3.7-2.7-9.5-2.3-19-4.3
	c4.1,15.5,7,26.4,10,37.2c6.7,24.5,15.1,48.6,20.1,73.5c45.9,227,32.8,452.6-18.2,677.1c-1.3,5.6-3.5,11-5.3,16.5
	c-4,12.1-12.4,15.9-24.4,12.8c-10.6-2.8-15.2-10-13.7-20.7c1.3-9.1,3.1-18.2,4.9-27.2c35.9-176.5,51.6-354.1,29.9-533.8
	c-10.3-85.2-28.2-168.4-62.2-247.7c-8.8-20.6-21.4-35.3-43-41.5c-70.9-20.6-141.6-41.8-212.8-61.3c-21.6-5.9-44.6-6.8-72.3-10.8
	c99.1,247.1,132.2,500.3,138.5,757.8C2762.9,1930.8,2735.6,2186.1,2667.4,2439z M265.1,2601.2c11.1-2.3,19.1-3.5,26.7-5.6
	c45.4-12.5,91.7-11.6,137.5-5.3c142.3,19.5,270.9,73.2,385.7,159.3c15.7,11.8,29.4,13.3,44.1,4c33-20.9,66-41.9,97.2-65.3
	c19.6-14.7,19.3-21.5,8-44.7c-85.2-174.2-201.3-322.5-363.7-431.5c-58.9-39.5-122.2-68.8-192-84.5c-24.3-5.5-38.7-0.1-52.7,19.5
	c-62.1,86.9-105.3,181.5-118.6,288.1C230.3,2491.9,232.3,2547.8,265.1,2601.2z M3339.4,1382.1c-2.6,1.4-5.3,2.7-7.9,4.1
	c-4.6,354.8-90.8,686.4-280.8,988.6c100,29.9,170.6,9.6,242.2-50c131.3-109.2,235.8-240.1,308.7-395.2
	c32.8-69.9,36.8-141.3,12.3-215.4c-36.8-111.4-106.6-198.3-195-272C3393.5,1420.9,3366,1402.1,3339.4,1382.1z M746.3,2818.4
	c-13.8-9.9-26.6-19.5-39.7-28.5c-106-72.9-223.8-106.5-352-104.6c-34,0.5-38.2,5.1-35.5,38.9c8,101,29.3,198.3,80.4,287.3
	c28.3,49.4,60.5,95.8,107.8,128.9c54.1,37.8,95,26.9,122.3-32.8c11.9-26,20.2-53.9,28.6-81.4c19.7-64.1,41.9-127,76.8-184.7
	C739.1,2834.9,741.9,2827.5,746.3,2818.4z M3674.8,2025.4c-51.3,68.3-96.3,133.8-147.1,194.5c-50.6,60.4-106.9,116.1-161,174.2
	c3.8,3.3,6,6.2,8.9,7.7c61.2,31.1,115,72.3,166,117.9c20.5,18.3,43.8,34,67.5,48c31.7,18.7,64.2,11.2,83.7-20.1
	c10.7-17.3,18.6-37.5,22.9-57.4c30.7-140.8,21-279.8-21.9-416.8C3689,2058.4,3682.2,2043.9,3674.8,2025.4z"/>
<path d="M1578.3,1776.5c-52.9,0.1-96.2-43.4-96.4-96.7c-0.2-59.6,43.1-104.8,100.6-104.9c56.1-0.1,100.2,44.1,100.8,101.1
	C1683.9,1733,1638.6,1776.3,1578.3,1776.5z"/>
<path d="M2366.5,1665.2c-57.8,3.1-96-50.4-96.4-97.1c-0.4-54.3,46.8-103.1,100-104.1c56.2-1,98.7,40.5,99.5,97.1
	C2470.6,1624.9,2430.9,1664.8,2366.5,1665.2z"/>
<path d="M1993,1838.5c-65.4-0.2-116.7-35.4-132.1-86.8c-2.8-9.4-3.7-21-0.7-30c4.3-12.8,25.3-15.6,35.2-5.2
	c7,7.3,11.6,17.1,16.7,26.1c19.4,34.7,53.4,51.8,92.7,45.4c46.7-7.7,81.1-32.6,84.3-73.6c0.4-4.6,1.9-9.1,2.4-13.6
	c1.4-13.2,7-22,21.9-20.9c15.3,1.1,23.3,10.3,23.5,24.8c0.5,41.5-13.6,77.3-46.5,103.5C2059.8,1832.3,2022.9,1836.3,1993,1838.5z"/>
<path d="M2535.5,1694.3c30.8,0.1,53.7,1.9,73.1,16.8c22.7,17.4,26.4,37.2,8.8,59.5c-8.2,10.4-19.8,20.2-32,25.1
	c-42.2,17.3-86.2,24.2-131.8,17.1c-23-3.6-42.7-12.3-49.2-36.7c-5.4-20.3,7.2-42,32.5-55.7
	C2469.7,1702.5,2505.5,1694.5,2535.5,1694.3z M2581.7,1751.1c-36.1-24.3-102.9-12.2-123.7,21.7
	C2501,1773.7,2540.5,1773.8,2581.7,1751.1z"/>
<path d="M1485.7,1958.3c-17-2.6-34.8-2.9-50.8-8.2c-36.6-12.1-44.3-49.7-16.1-76c9-8.4,20.3-15.7,31.9-20
	c37.4-13.8,76.2-17.3,115.7-11.3c5.7,0.9,11.5,2,16.7,4.2c18.5,7.6,36.1,16.8,38.9,39.6c2.4,19.9-11.4,39.9-35.1,50.4
	C1554.9,1951.1,1521.1,1957.4,1485.7,1958.3z M1565.9,1890c-33.4-16.9-89.7-8-109.9,17.4C1495.2,1921.1,1544.4,1913.3,1565.9,1890z"
	/>
<path d="M2986,1947c-2,9.5-2.5,14.1-3.9,18.5c-17.4,52.4-35,104.8-52.6,157.2c-1.5,4.3-3.4,8.6-5.8,12.5
	c-6.3,10.3-15.6,13.1-26.8,9.1c-12.7-4.5-14-14.4-10.6-25.3c8-25.3,16.7-50.3,24.8-75.5c10.6-32.9,20.6-66,31.6-98.7
	c3.5-10.5,10.7-19.6,23.2-13.9C2974,1934.6,2980.4,1942.4,2986,1947z"/>
</svg>
