<?xml version="1.0" encoding="utf-8"?>
<!-- Generator: Adobe Illustrator 24.3.0, SVG Export Plug-In . SVG Version: 6.00 Build 0)  -->
<svg version="1.1" id="Layer_1" xmlns="http://www.w3.org/2000/svg" xmlns:xlink="http://www.w3.org/1999/xlink" x="0px" y="0px"
	 viewBox="0 0 4000 4000" style="enable-background:new 0 0 4000 4000;" xml:space="preserve">
<path d="M2877,1439.3c15.5,21.9,28.7,39.7,41,58c61,90.5,97,188.6,92.7,299.5c-2,51.6-12.9,101.3-29.9,149.8
	c-28.3,81-71.2,154.3-123.5,221.6c-176.6,227.3-364.6,444.5-575.7,640.9c-61.4,57.1-124.8,112.2-197.9,154.6
	c-81.2,47.1-168.4,73.6-262.3,76c-103.2,2.6-197.4-28.4-286.4-78.2c-5.3-3-10.6-5.9-16-8.8c-0.7-0.4-1.9,0.1-6.9,0.6
	c-0.4,8.7-1.2,18.2-1.1,27.6c0.3,86.9,2.5,173.9,0.6,260.8c-2.5,112-17.1,222.6-59.1,327.4c-13.5,33.8-31.1,67-52.5,96.4
	c-60.9,84-198.9,89.5-257.1-15.5c-13.3-24-23.2-50-34.4-75.2c-9.1-20.5-16.8-41.8-27.1-61.7c-20.7-39.8-53.5-64.7-98.6-69.2
	c-27.3-2.7-55-1.4-82.6-1.9c-31.6-0.6-63.5,1.1-94.9-2.3c-74.6-8-127.2-55.3-140.9-128.8c-6.9-36.9-7.6-75.2-9.8-112.9
	c-4.8-80.8-45.2-133.7-122.4-157.9c-28.3-8.9-57.6-14.8-85-25.8c-31.1-12.5-63-25.6-90.1-44.7c-57.6-40.5-63.1-99.6-17.6-153.6
	c36.4-43.2,84.5-70.6,134.5-94.7c91.6-44.3,188.8-72.6,286.7-98.2c99.9-26.1,200.5-49.2,302.9-63.6c3.8-0.5,7.5-2.3,13.9-4.2
	c-4.1-7.2-7.3-12.9-10.6-18.6c-20.4-35.4-43.2-69.7-60.8-106.4c-54.9-114.5-57.9-232.1-18-352.1c26.2-78.7,67.2-148.8,116.3-214.9
	c106.3-143.1,222.3-278.2,343.3-408.7c98-105.7,200.3-207.5,302.5-309.2c47.9-47.6,101.9-89,161.1-122c104.4-58.2,215.3-80.7,334-55
	c64.7,14,124.9,38.4,180.7,73.8c4.3,2.7,8.9,5.1,13.5,7.1c1.6,0.7,3.9,0.1,8.4,0.1c0-5.7,0.4-11.3-0.1-16.9
	c-13.9-163.6-13.8-327,10.2-489.8c9.1-61.8,24-122.5,47.9-180.4c11.2-27.2,24.8-54.1,41.3-78.4c65.5-96.3,184.3-78,237.8,5.8
	c18.5,29,30.5,62.2,45,93.7c9,19.5,16.3,39.7,25.6,59c19.3,39.9,54.2,57.5,95.9,62c24.3,2.6,49,0.3,73.6,1.1
	c36.7,1.2,73.8,0.1,110,5.4c85.9,12.5,144.7,78,151.4,164.5c1.9,25.5,3.3,51,4.3,76.6c2.9,74.3,41.4,121.6,110.1,146.5
	c38.4,13.9,77.2,26.9,114.7,43c31.2,13.4,59,33,80.2,60.3c36,46.2,39.5,106.3,9.6,158.5c-17.1,29.8-40.5,53.7-68.7,73.3
	c-55.1,38.3-116.2,64.3-178.7,87.2c-144.4,52.9-292.6,91-445.4,110.6C2902,1433.2,2891.5,1436.2,2877,1439.3z M1677.3,2311.8l-1-1.1
	c21.6,45.5,63,73.1,96.2,113.1c9.9-13.6,17.1-23.3,23.9-33.1c19.2-27.4,42.7-49.2,74.6-61.3c19.6-7.4,38.8-8.6,54.5,6.5
	c15.9,15.3,9.7,34.6,3.1,51.8c-13.8,35.6-38.3,62.4-71.3,81.3c-7.6,4.4-15.4,8.6-25.1,14.1c115.6,119.7,223.3,242.6,344,356.5
	c9.1-7.1,17.4-12.7,24.7-19.4c168.2-153,323.7-318.2,470.7-491.5c26.4-31.2,50.7-64.3,77.9-94.8c16.2-18.2,17.9-35.1,6.1-55.3
	c-6.2-10.6-10.8-22-16.4-32.9c-61.2-116.7-142.6-219-227.7-318.7c-2.4-2.8-6.1-4.5-10.2-7.4c-6.9,8-12.6,15-18.7,21.7
	c-19.2,21.2-42.9,34.9-71.4,38.2c-29.8,3.4-48.6-13.6-44.5-43.1c2.3-16.4,10.7-32.6,19.3-47.1c8.7-14.9,20.9-27.7,31.7-41.3
	c7.9-9.9,6.7-18.9-2.5-26.8c-7.3-6.3-15.2-12.1-26-20.6c-7.3,35.7,0.2,71.5-27.7,95.4c-26.7,22.9-58,35-93.2,31.6
	c-58-5.5-97.6-47-99.6-101.9c-1.1-30.5,4.8-58.7,23.7-83.8c26.3-35,65.4-36.5,109.5-39c-9.8-11.2-15.6-19.1-22.6-25.9
	c-24.3-23.4-48.9-46.5-73.6-69.5c-109.3-102.2-224.5-196.8-354.9-271.4c-20.3-11.6-42.4-20.2-63.3-30.9c-17.4-8.8-31.4-4.6-44,8.8
	c-3.5,3.7-7.4,7-11.1,10.6c-150.6,147.5-294.9,300.9-430.7,462.1c-19.8,23.5-39.6,46.8-59,70.6c-18.9,23.3-18.7,23.5-2.2,47.1
	c12.3,17.6,24.5,35.3,37.2,52.5c114.1,153.8,240.4,297.2,373.6,434.6C1658.7,2299.5,1668.5,2305.2,1677.3,2311.8z M2737.1,1294.3
	c2.3,2.2,4.6,4.4,7,6.6c15.6-3.9,31.5-6.8,46.6-12c150.3-51.9,293.1-119.8,428.4-203.4c5.2-3.2,10.4-6.9,16.1-8.7
	c10.8-3.5,19.9-0.8,26.7,9.1c7,10.2,5.8,19.7-2.8,27.5c-8.2,7.5-17.1,14.7-26.7,20.4c-129.9,76.3-264.8,141.8-407,192
	c-12,4.2-23.6,9.8-38,15.9c13.5,15.2,24.7,26.9,34.9,39.5c10.3,12.8,23,14.9,38.3,12.7c124.5-17.8,247.9-41.1,368.2-78.7
	c81-25.4,161.7-51.6,236.5-92.4c35.1-19.1,69.3-40.5,93.4-73.4c35.1-47.9,31.2-86.6-11.8-131.3c-6.3-6.5-13.9-12.6-22-16.4
	c-31.4-14.6-63-28.8-95-42.1c-21.7-9-44.5-15.2-66-24.6c-64.7-28.2-105.9-76-115.4-147.2c-4.3-32.3-4.3-65.2-6-97.8
	c-3.7-72.1-39.2-115.9-110-131.7c-20.7-4.6-42.6-4.8-63.9-5.2c-33.7-0.6-67.5,1.3-101.2,0.6c-81.4-1.6-137.3-40.2-166.4-116.7
	c-8.4-22-16.2-44.2-25.2-65.9c-11.4-27.5-24.4-54-46.4-75.1c-44.7-42.8-97.3-42.3-135.8,5.7c-20.1,25.1-36.3,54.5-48.8,84.3
	c-29.3,70.4-41.8,145.3-49.4,220.7c-15.5,154.1-15.5,308.3,4.9,462.1c1,7.8,2.5,17.4,7.5,22.5c17.5,17.7,36.8,33.7,62.4,49.1
	c1.3-14.5,2.8-24.3,3.1-34.2c3.3-128.9,19-256.9,32.5-384.9c3.9-36.9,14-42.3,48.3-26.7c0,7.4,0.8,15.5-0.1,23.4
	c-9.1,79.2-20.3,158.2-27.2,237.5c-5.9,67.1-7,134.7-9.9,202.1c-0.5,12.2-0.9,24.6,10.3,33.7c24.4,19.9,48.5,40.2,72.4,60.1
	c2.7-1.4,5-1.9,6.2-3.4c4.4-5.6,8.7-11.3,12.6-17.2c78.7-119.9,148.3-244.7,207.7-375.3c2.1-4.6,4.2-9.4,7-13.6
	c9-13.6,24-17.5,37.1-9.7c13.9,8.3,12.1,20.1,5.9,31.9c-9,17.2-19.1,33.8-27.9,51.1c-58.3,114.9-118.6,228.7-189.3,336.6
	C2749.9,1265,2744.2,1280.1,2737.1,1294.3z M1393.8,2873.6c-1.5,5.8-2.8,9.4-3.2,13.2c-4.5,38.6-8,77.3-13.5,115.7
	c-13.7,96.5-40.5,189.9-68.1,283.1c-6.1,20.7-13.4,24.5-30.7,19.9c-14.3-3.8-17.6-11-12.3-31.6c4.8-18.8,10.5-37.4,16.1-56
	c36.2-121,61-244,59.8-370.9c-0.1-10.3-2.8-23.7-9.5-30.3c-29.7-29.2-61.4-56.4-92.4-84.3c-4,2.8-7,4.1-8.8,6.3
	c-5.1,6.4-9.9,13-14.5,19.8c-71.3,103.7-138.2,210.2-194.5,323c-5.5,11-10.6,22.4-17.9,32.1c-4.3,5.8-12.3,11.5-19.2,12.3
	c-22,2.4-29.3-13-16.6-37.6c64-123.5,128.2-246.9,213.3-357.9c5.2-6.8,9.3-14.5,18-28.4c-21,5.3-34.8,8.1-48,12.3
	c-107.2,34.4-212.6,73.3-313.5,123.6c-11.9,5.9-24.1,11.3-36.6,15.6c-11.5,4-19.7-2-25.1-12c-5-9.4-3.4-18.3,4.7-24.8
	c8-6.3,16.5-12.2,25.6-16.7c106.6-52.5,216.4-96.6,330.6-129.6c9.3-2.7,18.4-6.1,32-10.7c-15.6-17.7-28.2-30.8-39.4-45.1
	c-11.6-14.8-24.8-18.1-43.1-14.3c-80,16.7-160.7,30.2-240.2,48.7c-107.5,25-214.1,54.2-316.1,97.3c-54.9,23.1-107.2,51.4-149.4,94.7
	c-33.5,34.4-31.3,65.3,8,92.1c20.8,14.2,44.6,24.9,68.2,34.1c43.7,17.1,89.2,29.7,132.2,48.2c47.5,20.4,79.4,58.3,93.3,107.9
	c9.3,33.2,12.9,68,17.7,102.3c2.3,16.1,0.4,32.8,2.1,49c7.7,72.6,53.2,116.9,125.9,122.9c13.2,1.1,26.6,0.5,39.8,0.3
	c29.7-0.5,59.3-1.9,89-1.6c84.7,0.8,143.6,40.4,175.7,119c9.7,23.7,18.8,47.5,28.3,71.2c10.4,25.8,23.3,50,44.5,69
	c35.4,31.7,77.2,36.8,119.1,14c22.9-12.5,41.4-29.6,56.2-51.1c30.3-43.8,46-93.5,57.2-144.5c28.1-127.7,33.2-257.3,28.1-387.5
	c-1.9-49.1-5-98.1-7.8-147.1c-0.5-8,0.1-18.8-4.7-23.3C1436.7,2899.4,1419.1,2882.5,1393.8,2873.6z M1104.4,1946.8
	c-5.4,6.5-8.5,9.2-10.5,12.6c-10.8,18.6-21.9,37-31.7,56c-53.6,103.8-71.5,212.3-40.8,326.7c11.4,42.7,28.6,83,51.5,120.9
	c11.9,19.7,27.4,29.5,52.3,30.5c35.5,1.5,71.5,6.2,106,14.5c203.7,48.9,341.6,197.5,367.3,413.2c2.4,20.3,11.5,30.9,30,37.4
	c86.4,30.3,174.5,43.2,265.3,26c34.5-6.5,69.6-12.9,105.8-30.6c-15.1-16.2-28.1-30.2-41-44.1c-166.7-178.6-334-356.8-499.9-536.1
	c-109-117.8-214.3-239-309.4-368.6C1135.3,1986.4,1120.7,1968,1104.4,1946.8z M2894.7,2018.3c6.9-4.8,9.2-5.6,10.1-7.1
	c57.2-105.1,79.8-215.8,53.9-334.5c-4.3-19.5-15.6-28.6-34-34.6c-47.5-15.6-95.5-30.5-141.3-50.4c-128-55.6-232.7-140.3-305.7-260.3
	c-46.5-76.3-83-157.3-96.1-247c-2.1-14.2-8.8-25.2-22.4-30.6c-25.6-10.1-51.1-20.7-77.2-29.5c-103.6-34.8-205.4-25.9-305.4,15
	c-7.8,3.2-14.7,8.7-26.1,15.5c202.2,116.4,368.4,268.5,526.1,431C2634.2,1648.4,2778.3,1821.6,2894.7,2018.3z M1803.4,1156.9
	c10.6,6.3,16.5,10.3,22.8,13.4c124.2,62.4,234.6,144.9,337.8,236.9c105.3,93.8,209.1,189.4,303.2,294.8c5.5,6.2,14.8,10.7,23,12.3
	c35.5,7.1,40.2,11.3,37.9,45.6c-0.9,14.5,2.7,25.3,13.1,35.6c92.1,91.4,165.3,196.8,228,309.8c10.7,19.2,21.2,38.5,33.8,61.4
	c21.3-28.2,40-52.3,58-76.9c7.6-10.3,4.9-21-1.3-31.6c-17-29.1-32.6-59.1-50.5-87.6c-91.6-146.1-202.3-277-319.5-402.9
	c-118.6-127.4-243.9-247.4-382.1-353.5c-59.3-45.5-121.6-86.3-188.1-120.7c-11.3-5.8-22-11.9-34-2.4
	C1859.4,1112.1,1833.2,1133.1,1803.4,1156.9z M1193.1,1821c-13.3,16.8-25.6,31.6-37.1,46.9c-23.6,31.4-23,31.3-1.6,63.6
	c70.2,106,153.1,202.1,236.8,297.3c87.1,99,176.7,195.8,266.6,292.4c112.8,121.3,226.9,241.4,340.8,361.7
	c16,16.9,33.9,31.8,52.7,49.4c30-20.9,58-40.4,89.2-62.1c-17.4-16.9-31.7-29.7-44.9-43.6c-197.8-208.5-396.2-416.3-592.8-625.9
	c-106.4-113.4-204.7-233.9-293.7-361.7C1205.1,1833.2,1200,1828.6,1193.1,1821z M2427.3,1100.6c40,140.4,105.7,259,215,350.7
	c82,68.8,233.2,145.1,279.5,142.4C2894.5,1494.2,2541.4,1139.3,2427.3,1100.6z M1550,2914.3c-18.3-116.1-67.2-212.2-161-283.3
	c-71.9-54.5-203-99-247.6-83.6C1187.7,2633.6,1469.2,2887.7,1550,2914.3z M1910.7,2370.7c2-18.1-6.3-25-26.5-22
	c-31.8,4.8-77.3,49.7-83.3,82.3c-3.3,17.9,5.5,27.6,23.5,26.1C1858.1,2454.4,1906.8,2405.6,1910.7,2370.7z M2412.2,1858.2
	c3-0.7,8.3-1,12.9-3.1c30.9-14,53.5-36.8,67.6-67.5c5.2-11.3,7.1-26.5-5.4-32.9c-9.5-4.8-25.8-6.4-34.1-1.3
	c-30.1,18.5-51.9,45.6-62.7,79.9C2385.1,1850.3,2392.4,1858.2,2412.2,1858.2z M2231.3,1668c-0.2,18.5,16.8,37.4,33.6,37.2
	c19.4-0.2,37.4-17.9,38-37.4c0.5-18.8-15.5-33.8-35.9-33.5C2245.5,1634.5,2231.5,1647.8,2231.3,1668z"/>
<path d="M1677.3,2311.8c-27-33.5-29.6-70.8-15.6-109.8c28.6-79.8,114.9-94.7,173.3-52.8c37.9,27.2,45.7,68.4,39.5,112.4
	c-5.8,41.4-28.2,68.8-69.8,79.6c-48.4,12.5-93.3,12-128.3-30.6C1676.3,2310.7,1677.3,2311.8,1677.3,2311.8z M1789.3,2191
	c0.3-20.1-12.5-33.3-31.9-32.9c-22,0.4-38,15.1-38.6,35.3c-0.7,21.1,13,36.7,32,36.4C1773.4,2229.4,1789,2213.7,1789.3,2191z"/>
<path d="M2084,2155.9c-37.5,0.2-64.7-7.8-90.4-21.1c-7.1-3.7-13.7-9-19.2-14.8c-8.5-9-10.9-19.9-2.6-30.5c9.4-12,19.2-6.4,29.4-0.1
	c12.9,8,25.7,17.4,40,22c38.4,12.4,88.1-5.1,112.5-37.4c26.1-34.5,27.8-80.5,4.1-117.7c-4.4-6.9-9.2-13.5-13.9-20.2
	c-6.6-9.5-8.1-19.1,2-27c9-7.1,19-7.6,28.1-0.3c5.5,4.4,11.1,9.4,14.8,15.3c30.9,49,39.7,100.4,12.9,153.9
	C2176,2129.3,2132,2152.9,2084,2155.9z"/>
</svg>
