<?xml version="1.0" encoding="utf-8"?>
<!-- Generator: Adobe Illustrator 24.3.0, SVG Export Plug-In . SVG Version: 6.00 Build 0)  -->
<svg version="1.1" id="Layer_1" xmlns="http://www.w3.org/2000/svg" xmlns:xlink="http://www.w3.org/1999/xlink" x="0px" y="0px"
	 viewBox="0 0 4000 4000" style="enable-background:new 0 0 4000 4000;" xml:space="preserve">
<path d="M981.4,889.5c-19.5-9.7-32.6-16.8-46.2-22.8c-51.8-23.1-92.9-59.9-128.5-102.8c-11.5-13.8-20.6-31-26-48.2
	c-12.8-40.3,14.8-77.5,56.9-79.5c6.9-0.3,14-0.6,20.7,0.5c110.1,17.8,218.2-2.9,326.8-16.3c56-6.9,112.3-11.8,168.4-17.5
	c9.1-0.9,18.2-1.6,30.3-2.6c-3.3-10.2-5.7-18.5-8.7-26.7c-14.5-39.3-23.8-79.8-21.7-121.8c0.9-16.6,5.6-34.4,13.5-48.9
	c11.4-20.9,31.6-30,55.9-24.3c12.2,2.9,24.8,6.3,35.7,12.3c65,35.7,134.2,60.5,205,82.1c43.8,13.4,86.4,31,131.8,47.6
	c2.2-7.3,4.7-13.3,5.7-19.5c12-76.2,21.2-153,36.2-228.6c18.4-93.2,72.5-125.2,164.3-100.1c30.9,8.4,61.5,20,90.1,34.3
	c49.3,24.7,69.4,66.6,59,120.3c-10.1,52-23,103.5-34.4,155.3c-2.6,12-4,24.4-6.5,39.7c11.3-1.6,19.2-1.7,26.4-3.9
	c77.1-23.7,154.3-46.9,230.9-72c35-11.4,68.5-27.2,103-40c36.2-13.4,70.8,0.2,81.8,34.4c4.7,14.4,4.1,32.2,0.6,47.1
	c-3.9,16.4-13.5,31.6-21.4,46.9c-6.2,12.1-13.7,23.7-21.8,37.6c7.9,2.3,13.2,5,18.5,5.2c116.4,3.6,232.8,8,349.3,9.6
	c50.6,0.7,101.3-5.5,152-6.9c15.6-0.5,33.2,0.6,46.5,7.4c30.9,15.8,41,47.8,26.2,79.8c-7.1,15.3-18.1,29.4-29.7,42
	c-34.7,37.8-77.9,64.5-122,89.9c-11.6,6.7-22.8,14-34.1,21c0.2,2.5,0.4,5.1,0.7,7.6c12.5,3.5,25.3,6.4,37.6,10.5
	c178.7,59,341.3,145.7,474.4,280.9c129.9,131.9,223.3,286.9,283.2,461.9c47.3,138.2,75.8,279.8,84.9,426
	c12.4,197.9-7.8,391.5-66,580.9c-89,289.6-253.5,528.4-489.3,717.8c-202.4,162.6-433.8,264.2-686.3,320.9
	c-237.1,53.2-477.4,64.9-718.8,53.2c-200.7-9.7-399-37.7-591.4-100.1c-170.4-55.3-327.9-134.4-472.5-240.4
	c-232.4-170.3-400-390.1-504.8-657.6c-50.8-129.5-80.6-264.1-92.9-403c-10.6-120.1-8.6-239.7,7.6-358.9
	c42.7-314.5,164.5-589.2,409.2-800.3c108.3-93.5,230.6-164.2,364-216C962.7,900.6,969.3,896.1,981.4,889.5z M1203.6,970.4
	c-14.5,1.4-21.3,1.4-27.8,2.8c-77,16.3-150.4,43.5-222.2,75.3C670.2,1174,477.4,1384,377,1676.4c-70.8,206.2-86.2,419.2-61.5,635.2
	c16,139.7,53.4,273.7,112.7,401.2c116.3,250.1,298.8,441.1,530.1,587.4c158.7,100.4,333.3,161.3,515.7,201.3
	c128.8,28.3,259.4,40.6,391,45.7c194.2,7.5,387.7,0.4,578.9-34.6c256.6-47,493.2-142.3,699.9-304.7
	c203.6-159.9,352-360.2,438.6-604.9c72.3-204.2,95.4-414.6,75.7-630.1c-17.6-191.8-66.2-374.3-161.7-542.7
	c-102.4-180.7-245.6-318-434.8-406.8c-115-54-236.7-83-361-103.1c-26.5-4.3-53.3-11.4-84.7-4c6.2,9.1,9.6,16,14.6,21.4
	c40.8,43.9,82.4,87.1,122.6,131.5c17,18.7,33.1,38.7,46.5,60c25.3,40,9.6,78.2-36.3,90.7c-13.2,3.6-27.2,4.9-40.9,5.4
	c-170,5.6-332-30.6-488.9-93.6c-13.5-5.4-26.5-11.9-41.4-18.6c-4,10.4-7.2,16.4-8.7,22.9c-26.2,110.6-65.1,216.4-124.2,313.8
	c-22,36.3-48.4,70.1-73.4,104.6c-28.9,40-92,49.3-125.2-10c-6.8-12.1-14-23.9-20.2-36.3c-58.9-117.1-100.9-239.9-123.6-369.2
	c-1.9-10.8-5.2-21.4-8.7-35.3c-16.3,6.4-29.1,10.9-41.5,16.5c-116.2,51.8-236,92.2-361.6,114.5c-73,13-146.5,18-220.4,11.1
	c-52.6-4.9-76.4-53.9-48.1-98.3c7.4-11.6,16.8-22.1,26.4-31.9c37.8-38.8,76.2-77.1,114.2-115.7
	C1184.8,992.1,1191.7,983.7,1203.6,970.4z M1246.3,1117.8c12.4-1,18.9-0.8,25.1-2c75.9-14.7,151.4-31.5,222.8-61.4
	c86-36,170.7-75.2,255.7-113.6c49-22.2,78-4.7,80.1,49c5.4,136.3,36.5,266.8,90.7,391.8c2.9,6.6,8.5,12,13.9,19.5
	c6.6-7.7,11.8-12.3,15.3-18.1c54.5-90.6,96.3-186.3,114.5-291c6.1-35.1,10.6-70.6,13.8-106.1c2.4-27.4,30.1-54.9,61.6-38.3
	c14.2,7.5,29.6,12.9,43.9,20.2c113.5,58.1,231.4,103.2,357.9,123.6c21.2,3.4,42.7,4.7,71,7.8c-9.4-12.3-14.1-19.6-19.9-25.8
	c-73.5-77.9-145-158-239.6-212.6c-25.7-14.9-21.2-44.2,6.8-56.4c10.4-4.5,22.1-6.8,33.4-8.3c24-3.1,48.1-5.6,72.2-7.3
	c107-7.6,213.4-19.1,317-49.1c19.1-5.5,37.7-13.1,56.5-19.7c-4.8-6.1-7.8-7.5-10.9-7.7c-73.7-3.3-147.3-9.1-221-9
	c-78.2,0-156.7,2.6-234.6,9.8c-47.7,4.4-94.5,19.3-141.5,30.1c-12.1,2.8-23,4.7-29.9-8.4c-6.4-12.2-7.1-24.6,2.9-35.2
	c6.3-6.7,13.8-12.2,21.1-17.8c28.4-21.7,57.1-43,85.4-64.9c9.4-7.3,18-15.6,31.4-27.5c-12,0-16.7-0.9-20.8,0.1
	c-98.8,25.3-192.2,63.9-280.1,115.7c-12.2,7.2-16.9,16.9-14.9,31.8c2.2,15.8,2.8,32.3,0.9,48.1c-4.9,42.4-28.1,63.9-69.8,66.9
	c-49.8,3.6-83.2-16.4-92.6-58.3c-5-22.3-7.2-45.6-7.4-68.5c-0.2-18.5-6.5-27.6-22.8-37.4c-88.4-53.8-185.2-87.6-281.5-122.9
	c-12.4-4.6-25.5-7.4-46.2-13.4c8.5,15.4,11.6,24,17.1,30.5c35.6,42.6,74.5,81.8,120.3,113.7c8.5,5.9,18.9,10.5,24.8,18.4
	c5.4,7.2,10.3,19.9,7.4,27c-2.9,7.3-15,13.9-23.9,15c-10.9,1.4-22.7-2.5-33.8-5.2c-108.7-26-218.5-33.9-329.5-19.6
	c-62.8,8.1-125.6,16.3-188.4,24.8c-19.9,2.7-39.6,6.8-59.4,10.3c-0.3,3-0.6,6-0.9,9c11.1,3.9,22,8.6,33.4,11.5
	c78.4,19.7,158.3,30.6,238.9,36c63.2,4.3,126.5,8.5,189.7,12.7c16.1,1.1,29.9,6.1,34.3,23.4c4.1,16.3-7.2,25.4-18.4,34
	c-2.7,2.1-5.8,3.8-8.6,5.8c-41.4,29.2-84,56.9-123.9,88.1C1336.9,1024.9,1291.4,1066.7,1246.3,1117.8z M1921.2,647.3
	c0,21.4-0.1,59.4,0.1,97.5c0.1,9.2,0.9,18.4,2.4,27.5c2,12.4,10.8,16.5,22.5,16.9c13,0.4,19.3-6.1,20.1-18.3
	c0.8-11.5,0.6-23,1.4-34.5c3.5-54,4.1-108.5,11.7-161.9c10.6-74,26.1-147.3,40.4-220.8c7.1-36.7,1.6-46.1-36.3-54.2
	c-22.3-4.8-26-1.2-33,39.1C1933.6,435.2,1922.7,532.5,1921.2,647.3z"/>
<path d="M492.3,1949.7c7.1-128.7,40.7-235.6,95.6-336.1c32.8-60.1,73-114.8,122.3-162.5c30.1-29.1,63.2-54,105.1-64.1
	c73.4-17.6,138.4,24.2,151.6,97.9c6.5,36.4-6,68.3-27.7,96.8c-10.5,13.7-22.3,26.5-34.5,38.7c-93.4,94.1-147.6,207.6-167.9,338
	c-2.1,13.7-4.5,27.3-7.5,40.8c-11.9,53.6-49,87.1-102.4,92.8c-50.6,5.4-99-22.1-118.1-71.8C498.5,1993.9,495.6,1964.7,492.3,1949.7z
	 M542.6,1953c3.8,12.4,8.9,37.4,19.2,60c11.5,25.3,35.8,30.8,61.8,27.6c24.6-3,44.3-13.4,51-39.5c5.1-20.1,10.1-40.2,13.8-60.6
	c25.5-141.3,85.2-264.6,188.6-365.8c13-12.7,24.5-27.9,33.1-43.8c12.7-23.3,8.4-47.2-7.2-68.3c-15.7-21.2-36.1-30.1-63.3-25.4
	c-31,5.4-55.8,21.4-78.1,41.8c-60.3,55.1-107.1,120.4-144,193C574.6,1756.3,550.4,1845.9,542.6,1953z"/>
<path d="M3383,2566c-3.1,46-17,89-32.9,130.9c-51,134.7-128.4,252-236.5,347.9c-19.6,17.4-41.4,33.9-64.9,45.3
	c-62.5,30.3-147.7,13.4-162.8-74.8c-5.2-30.6,0.5-60.2,20.4-84.8c13.7-16.9,29.2-32.6,45.6-46.9c90.3-79.6,153.1-177,191.8-290.6
	c11.1-32.6,21.2-65.9,35.9-96.9c19-40,53.5-59.9,98.1-57.3c45.8,2.7,83.9,33.3,96.6,76.5C3379.3,2531.6,3380.3,2549.1,3383,2566z
	 M3329.4,2558.2c-0.3-34.3-16.9-60.1-41.6-65.8c-29.9-7-54.7,8-69.2,43c-7,17-12.8,34.5-18.3,52.1
	c-42.1,135.1-113.6,251.2-221.4,344.1c-10.4,9-20.7,18.6-29.1,29.4c-16,20.3-15.9,44.5-1.8,67.8c11.4,18.7,24.6,23.5,54.4,17.1
	c12.2-2.6,25-6.4,35.1-13.2c20-13.4,39.6-27.9,57.3-44.2c90.4-83.5,155.8-184.4,201.8-298
	C3313.8,2647.8,3327.2,2603.7,3329.4,2558.2z"/>
<path d="M590.8,2186.2c46.6-0.7,85.6,37.3,86.8,84.7c1.3,50.3-35.4,87-86.7,86.7c-46.6-0.3-82.9-36.9-82.8-83.7
	C508.4,2224,543.3,2186.9,590.8,2186.2z M562.4,2274.8c0.1,19.5,11.1,33.5,26.8,34.2c18.4,0.8,35.8-15.7,36.1-34.4
	c0.4-19.4-13.5-34.2-31.4-33.6C575.5,2241.7,562.3,2255.8,562.4,2274.8z"/>
<path d="M2760.5,3267c-47.9,0.4-83.7-33-83.1-77.5c0.7-51.3,37.4-91.2,84.1-91.3c45.4-0.1,79.4,34.6,79.7,81.6
	C2841.5,3233.3,2810.8,3266.6,2760.5,3267z M2757.6,3215.5c14.6-0.4,33.1-19.1,33.5-33.8c0.4-15.9-12.1-27.9-28.4-27.1
	c-17.4,0.9-32.1,16.9-31.3,34.2C2732,3202.7,2744.9,3215.9,2757.6,3215.5z"/>
</svg>
