<?xml version="1.0" encoding="utf-8"?>
<!-- Generator: Adobe Illustrator 24.3.0, SVG Export Plug-In . SVG Version: 6.00 Build 0)  -->
<svg version="1.1" id="Layer_1" xmlns="http://www.w3.org/2000/svg" xmlns:xlink="http://www.w3.org/1999/xlink" x="0px" y="0px"
	 viewBox="0 0 4000 4000" style="enable-background:new 0 0 4000 4000;" xml:space="preserve">
<path d="M948.7,3171c-10.4-12.5-20.7-25.2-31.3-37.6c-48.9-57.3-48.8-57.7-121-78.6c-36.6-10.6-73.6-19.5-110.4-29.5
	c-11.5-3.1-22.7-7.2-22.7-22.4c0-15.9,9.6-28.9,25.2-32.3c7.1-1.5,14.8-1.8,22.1-1.1c15.8,1.7,31.4,4.5,47.1,6.8
	c9.2,1.4,18.4,2.6,33.4,4.8c-6.7-12.2-10.3-20.4-15.3-27.7C688.2,2825.1,618,2687.6,561.7,2543c-61-156.6-103.8-318.1-124.5-485.1
	c-5.2-42-8.9-84.3-11.8-126.5c-1.2-17.1-9.1-29.5-18.5-42.7c-54.8-76.8-107.9-154.7-150.3-239.3c-6.6-13.2-12.2-27-16.6-41.1
	c-4.6-14.9,0.4-27.5,14.7-34.7c14.5-7.4,27.3-2.5,36.5,9.5c7.6,10,13,21.7,19.7,32.5c30.6,49.5,61.2,99,92,148.4
	c2.1,3.3,5.9,5.6,11.9,11c1.4-9.8,3.2-16.6,3.1-23.3c-1.2-80.7,6.7-160.8,16.2-240.8c1.3-11.2-1-23.1-2.8-34.4
	c-12.2-75.3-24.9-150.5-37.1-225.8c-1.5-9.4-1.7-19-2.3-28.5c-0.8-14.2,3.9-25.5,19.2-28.4c14.8-2.8,28.2,1.2,34.7,15.7
	c5.1,11.4,8,24,10.9,36.3c3.3,14,5.5,28.3,14.1,43c2.4-6.2,5.5-12.2,7.1-18.5c35.6-145.6,88.4-285.1,149.1-421.7
	c37.8-85.1,103-147.1,178.6-198.3c108.6-73.5,228.2-125.1,350.6-170.4c117.3-43.4,237.2-78.4,358.8-107.3c29.4-7,49.4-20.8,63.3-47
	c12.4-23.3,26.8-45.7,41.5-67.7c12-17.9,23-20.9,37.1-12.9c15.6,8.8,20.2,21.7,11.6,40.9c-8.5,19.1-19.2,37.3-31.9,61.8
	c16.4-1.6,28.3-2.2,40-4c38.7-5.9,77.2-13.2,116-18.2c22.6-2.9,39.6-11.7,52.2-31.2c16.7-25.8,34.9-50.6,52.7-75.7
	c5.5-7.8,11.1-15.6,17.6-22.4c9.6-10.2,21.9-14.4,34.5-6.8c12.4,7.5,16,20.2,10,33.3c-7.8,17.3-17.3,33.9-26.4,50.6
	c-6.4,11.8-13.4,23.3-22.8,39.5c42.3-2.8,78.8-5,115.3-7.6c13.2-0.9,17-10.8,19.3-21.7c6.5-30,12.9-60,19.6-90
	c1.8-8.2,4.4-16.3,7.2-24.3c5.3-15.2,17.3-17.1,31-14.6c13.6,2.4,20.9,11.2,19.7,24.6c-2.4,27.4-6.1,54.7-9.2,82.1
	c-1.4,12.3-2.7,24.5-4.3,38.9c48.4,0,93.5,0,142.6,0c-2.8-14.5-5.5-27.4-7.8-40.3c-2.4-13.5-4.9-27.1-6.5-40.7
	c-1.6-13.9,2.3-25.3,17.5-29.6c13.3-3.8,27.2,1.9,34.2,16.3c5.9,12.3,9.1,25.9,13.8,38.8c6.8,18.8,8.8,43.8,22.2,54.5
	c13.1,10.5,37.8,6.8,57.5,8.5c81.3,7,162.6,13.5,243.9,20.4c27.3,2.3,27.6,2.6,33.6-24.2c3.9-17.6,6.3-35.5,10.6-52.9
	c2.9-11.8,9.3-22.1,23.3-22.5c15.5-0.4,28,7.5,30.9,22.3c2.8,14.1,1.7,29.3-0.1,43.8c-1.9,15.4-6.6,30.5-11,49.2
	c34.5,7.4,66.1,14.1,103.4,22c-3.3-16.3-5.9-28-8-39.9c-4.1-22.9-9.6-45.6-11.4-68.7c-1.5-19.4,8.5-30.4,23.7-31.9
	c16.6-1.7,25.7,7.9,30.4,22.3c3.3,10,5.7,20.4,8.1,30.7c5,21.7,10.9,43.2,14.4,65.1c4.7,29.6,20.5,43.3,49.9,52.7
	c126,39.9,245.3,93.8,346.5,181.6c51.1,44.3,93.1,95.9,122.5,156.7c87.3,180,152.8,367.6,193.3,563.7c1.1,5.2,2.4,10.3,3.9,15.4
	c0.9,3,2.5,5.8,5.7,13.2c6.8-9,12.3-15.9,17.4-23c6.2-8.5,11.4-18,18.5-25.6c9.9-10.7,22.1-11.3,34.6-3.7
	c12.9,7.7,16.4,18.7,11.4,32.6c-1.8,5-4,9.8-6.1,14.7c-15.6,35.9-31.6,71.7-46.7,107.9c-4,9.6-8.3,20.4-7.6,30.3
	c3.7,54.6,9,109,14.1,168.1c14.3-12.3,16.6-26.1,22.5-37.7c8.6-16.9,15.9-34.8,26.3-50.5c9.6-14.6,21.4-15.9,35.9-8.4
	c14.3,7.4,18.6,16.9,11.6,34.5c-18.8,47.2-37.2,94.7-58.5,140.9c-26.2,56.8-37.4,115.4-39.8,178.1c-9.6,243.4-58,479.2-148.8,705.6
	c-38.7,96.5-83.5,190.1-136.3,279.8c-5.2,8.8-9.8,17.8-14.7,26.7c1.3,1.8,2.7,3.6,4,5.4c10.5-3.5,21.1-6.8,31.6-10.4
	c16-5.6,31.6-12.7,47.9-17c16.9-4.5,29.2,3.4,34.9,19.2c5.4,15.2,1.8,24.9-14,34.1c-8.2,4.8-17.2,8.2-25.8,12.3
	c-40.2,19-81.6,35.8-120,57.9c-26.2,15-50.5,35.2-71.6,57c-31.7,32.7-59.9,68.7-89.3,103.5c-4.6,5.5-7.9,12.1-15.6,24.1
	c16.2-2.7,26.8-4.4,37.4-6.3c32.3-5.8,64.4-12.5,96.8-17.2c11.1-1.6,24.1-1.2,34,3.3c8.1,3.7,17.2,14.6,17.7,22.8
	c0.5,8.4-7,19.9-14.4,25.4c-7.9,5.9-19.6,7.6-30,9.1c-78,11.2-153,33.7-226.8,60.2c-18.4,6.6-36,18.3-51,31
	c-116.3,98.3-240.7,183.9-378.9,248.7c-142.3,66.7-291.8,108.7-448.1,124c-164.6,16.2-325.5-6.5-483.2-54.2
	c-208.1-63-392.1-169.6-556.8-310.3c-28.9-24.7-59.4-44.1-95.6-54.4c-59-16.8-118.1-33.3-177.2-49.9c-7.1-2-14.5-3-21.6-5
	c-21.2-6.2-28.9-14.8-26.5-29.2c2.9-17.4,17-29.9,36.6-28.2c22.1,2,43.9,6.5,65.7,11c18.3,3.8,36.3,9,54.4,13.5
	C945.9,3175,947.3,3173,948.7,3171z M3335.4,901.1c-6.6,7.7-9.4,9.6-10.4,12.2c-28.8,75-81.6,130.4-145.4,176.5
	c-81.2,58.7-170.7,102-263.1,139.8c-185,75.8-375.8,130.2-573.6,160.4c-130.1,19.9-260.8,31-392.2,34.1
	c-143.2,3.3-286.1-2.2-428.5-17.2c-38.3-4-75.5-13-105.7-39.1c-37.8-32.7-79.4-36.4-124.5-17.8c-8.8,3.6-17.8,7-26.8,9.7
	c-21.2,6.4-42.3,13.7-64,18.4c-32.9,7.1-61.1-3.6-82.6-29c-11.5-13.6-21.7-28.9-29.9-44.8c-9.1-17.6-21.8-27.4-41.3-30.7
	c-59.1-10.1-114-32.7-166.4-60.8c-73.7-39.6-139.9-88.2-182-163.3c-3.1-5.5-5.4-11.4-8.1-17.1c-7.9,7.2-10.5,7.8-11.2,9.4
	c-5.4,11.5-11.1,22.9-15.6,34.7c-63,163.1-102.6,332-117.9,506c-20.8,235.3-2.1,467.7,56.6,696.8
	c77.5,302.6,221.2,570.4,431.3,800.4c158.8,173.8,344.3,313.1,565.7,400.6c272.2,107.5,547,114.8,823.5,21.4
	c182.3-61.6,341.8-163.8,483.5-292.5c208.9-189.8,363.3-418.1,468.3-679.9c121.2-302.2,154.1-617.3,131.2-939.2
	c-14.9-210.4-63.9-414.2-139.2-611.4C3357.9,954,3347.4,930,3335.4,901.1z M1850.7,1372.8c82.3-3.4,153.3-5.9,224.2-9.5
	c127.1-6.4,253.1-22.6,377.7-48.4c192.6-39.8,378.2-101,555.3-186.8c74.6-36.2,145.1-79.2,204.1-138.6
	c33.3-33.5,59.2-71.7,73.7-117.2c9.4-29.6,10.2-59.1-5.3-86.3c-15.1-26.5-30.5-53.7-50.4-76.5c-59.6-68.2-134.7-116-217.5-150.9
	c-133.3-56.3-271.6-95.9-415.9-111c-83.2-8.7-166.6-15.1-250.1-20.9c-168.5-11.7-336.9-6.1-504.6,12
	c-150.8,16.2-298.7,48.4-444.4,90.9c-160,46.7-316.2,103-462.6,183.8c-64.5,35.6-123.2,79.1-167.1,139.4
	c-54,74.2-50.5,141.5,9.3,210.9c3.5,4,7.2,7.7,10.9,11.6c70.2,73.6,157.4,117.6,255,140.9c42.4,10.1,75.1,25.6,95.9,67.8
	c22.1,44.7,40.8,48.4,88.7,32.2c24.1-8.1,47.7-17.4,71.7-25.8c47.8-16.6,92.3-10.7,131.1,22.4c35.9,30.5,78.5,41.1,123.4,43.9
	C1656.7,1362.9,1759.3,1367.8,1850.7,1372.8z"/>
<path d="M3311.2,1909.9c-4.8,199.6-38.6,393.3-119.2,577.3c-6.4,14.5-12.9,29.1-21.1,42.6c-8.8,14.5-18.1,15.9-32.1,8.8
	c-13.6-6.9-13.7-16.8-8.2-29.2c9.4-21.3,18.6-42.7,27.2-64.3c54.6-136.5,89.1-277.8,97.9-424.8c3.7-62.3,4.1-124.7,6-187.1
	c0.8-26.4,7.6-34.2,27.3-32.2c16.2,1.7,21.6,12.6,22,26.2C3311.8,1854.9,3311.2,1882.4,3311.2,1909.9z"/>
<path d="M715.3,1807.5c2.8-119.3,17.1-236.8,42.6-353c3.1-14.4,8.2-28.4,13.7-42.1c4.5-11.1,13.5-15.5,25.9-12.3
	c12.8,3.3,17.1,12.1,15.5,23.8c-2.2,16.8-4.7,33.5-8.3,50.1c-41.8,197-47.7,394.7-14,593.5c2.1,12.5,5,25.1,5.4,37.7
	c0.6,16.2-7.3,24.8-21.3,26.6c-14.5,1.9-22.7-6.1-25.3-18.6c-6.8-33.1-14.6-66.3-17.9-99.9C724.8,1944.8,720.6,1876.1,715.3,1807.5z
	"/>
<path d="M1098.8,2122.1c20.7,2,26,13.1,28.6,26.4c4.9,24.9,9.3,49.9,14.4,74.8c28.3,138.3,81.1,266.7,155.7,386.3
	c13.4,21.5,27.4,42.8,40.5,64.5c12.4,20.6,11.7,28.1-2,38.2c-14.1,10.4-24.7,8.2-38.9-12.3c-21.1-30.4-41.8-61.2-60.2-93.2
	c-77.6-135.2-131.4-279.1-153.8-433.9c-1.6-11.3-2.3-23.6,0.7-34.3C1085.8,2131.2,1095,2125.9,1098.8,2122.1z"/>
<path d="M2959.2,2083.7c-7,39.7-14,86.8-23.9,133.3c-27.2,126.6-67.6,248.9-123.9,365.7c-6.3,13.1-10.7,28.5-30,28
	c-16-0.4-23.4-8.5-19.8-24.3c2.3-10.2,6-20.3,10.5-29.9c70.3-149.4,114.9-306.5,138.7-469.6c0.9-6.3,2.1-12.5,3.4-18.7
	c2.7-13.2,9.6-20.8,24.3-18.7C2952.3,2051.6,2959.1,2060.1,2959.2,2083.7z"/>
<path d="M1501,1908.7c0.2,91.2,9.9,181.4,29.8,270.5c2.1,9.2,4.2,18.7,4.1,28c-0.1,10.4-6,17.6-17.2,19.7
	c-10.4,1.9-19.4,0.1-23.7-10.5c-4.8-11.7-9.6-23.6-12.3-35.9c-21.3-98.5-32.5-198.1-32-299c0.1-11.5,2-23.1,4.2-34.5
	c2.6-13.6,12.2-19.2,25.5-18c13.6,1.2,21.3,8.6,21.4,22.6C1501.1,1870.6,1501,1889.7,1501,1908.7z"/>
<path d="M2661,1783.4c-5.5,62.1-10.9,124.3-16.8,186.4c-1,10.5-3.8,20.8-6.2,31.1c-3.2,13.6-12.1,19-25.8,17.3
	c-14.4-1.8-20.3-10.1-18.7-24c1.8-14.7,4.2-29.3,6-44c10.5-86.5,11.4-173.2,6.8-260.1c-0.5-9.5-0.8-19.1-0.5-28.6
	c0.3-10.6,4.7-18.3,16.4-19.7c12.8-1.6,24,0.9,28,14.6c2.9,10,4.7,20.7,4.9,31.2c0.6,31.8,0.2,63.5,0.2,95.3
	C2657.2,1783.2,2659.1,1783.3,2661,1783.4z"/>
<path d="M1395.8,3124c0.7,20-18,34.5-32.3,27.9c-10.4-4.8-20.2-11.5-29-19c-69.9-58.9-131.6-125.5-185.3-199.5
	c-4.9-6.8-9.6-14.1-12.4-21.9c-4.8-13.5-1.1-25.6,11.7-32.7c11.9-6.6,22.5-2.9,30.7,7.7c3.9,5,8.1,9.8,11.5,15.2
	c49.7,77.4,115,140.4,184.3,199.8C1383.6,3108.7,1390.4,3118,1395.8,3124z"/>
<path d="M848.4,2469c0.2-16.2,3.1-27.1,17.3-30.3c15.6-3.6,24.2,4.6,28.3,18.4c5.4,18.3,10.1,36.7,15.3,55.1
	c19.1,68,51.9,129.4,89.8,188.4c4.6,7.1,9.2,14.3,13.3,21.6c6,10.6,5.1,20.4-5.3,27.9c-10,7.2-20.8,12.1-31.7,2.6
	c-6.3-5.4-12.2-12-16.4-19.1c-44.7-74.7-84.4-151.7-104.8-237.1C851.8,2486.3,849.9,2475.9,848.4,2469z"/>
<path d="M2462.2,2823.8c-4,12.9-6.2,21-9,29c-29.7,87-73.6,166.5-126.9,240.9c-11.1,15.5-22.4,18.7-34.8,10.4
	c-13.3-9-11.9-21.5-5.8-33.8c4.2-8.5,9.4-16.6,14.8-24.5c45-65.9,81.7-136.2,109.4-211.1c2.6-6.9,5.8-13.6,9.3-20.2
	c5.7-10.8,15.4-16.8,26.1-10.6C2453,2808.5,2457.7,2818.3,2462.2,2823.8z"/>
<path d="M1643.9,2563.6c4.1,3.7,11.6,8.1,15.5,14.6c6.4,10.8,11.3,22.7,15.2,34.7c21.6,66.6,51.2,129.7,83.3,191.8
	c3.8,7.4,8.4,15.6,8.4,23.4c0,7.3-3.9,18.5-9.3,21c-7.1,3.3-18.6,2.3-26-1.4c-6.7-3.4-11.3-12.3-15.5-19.5
	c-36.9-64.5-66-132.4-88.4-203.2c-4.1-12.9-5.6-26.8-6.7-40.4C1619.4,2571.7,1628.1,2566,1643.9,2563.6z"/>
<path d="M3014.3,2808.4c-4.3,11.1-6.7,19.3-10.5,26.7c-30.1,59.5-65.8,115.4-109.4,166.1c-4.1,4.8-8.7,9.2-13.4,13.4
	c-9.2,8.1-19.5,8.7-28.7,1c-9.9-8.2-13.4-19-6.5-31c3.7-6.4,8.4-12.1,12.5-18.2c32.9-49,65.7-98,98.6-147
	c5.8-8.7,10.8-18.8,18.8-24.9c5.3-4,16.1-4.5,22.7-2C3005.1,2795,3009.5,2803.2,3014.3,2808.4z"/>
<path d="M3054.8,1587.5c-3.2-41.5-7.2-85.6-9.6-129.9c-1.2-21.7,12.6-32.1,31.8-23.8c7.1,3.1,13.6,13.1,15.6,21.2
	c4,16.3,5.9,33.4,6.4,50.2c1.6,53.8,2.2,107.6,3.1,161.5c0,2.1-0.1,4.2-0.3,6.3c-2.5,22.1-9.3,29.7-25.7,28.8
	c-14.5-0.7-20.6-8.2-21.1-29.2C3054.3,1645.2,3054.8,1617.8,3054.8,1587.5z"/>
<path d="M2495.8,3327.9c-18.8,0-31.6-22.8-22.6-37.7c4.2-7,11.4-12.2,17.5-18c39.7-37.9,79.5-75.8,119.2-113.7
	c3.8-3.6,7.2-7.8,11.1-11.3c7.9-7.4,17.9-10,25.4-2c5.7,6.1,8.6,15.6,10.3,24.1c0.8,4.2-2.9,10.1-6.1,14.1
	c-41,53-88.6,99.3-142.8,138.8C2503.7,3325.2,2498.5,3326.7,2495.8,3327.9z"/>
<path d="M1606.8,3043.8c7.5,7.5,17,14.4,23.1,23.6c32.1,48.7,70.1,92.4,110.4,134.4c5.5,5.7,11.2,13.8,11.7,21.1
	c1,16-15.6,27.3-30.8,21.8c-7.6-2.8-15.6-7.7-20.7-13.9c-37-44.6-74.7-88.7-109.3-135.1C1573.7,3072.3,1578.8,3061.2,1606.8,3043.8z
	"/>
<path d="M1110.8,1685.6c0,36.5-0.1,67.1,0,97.6c0.1,15-6.2,24.1-21.8,25.4c-12.1,1-20.6-3.4-23-16.1c-1.2-6.2-2.8-12.5-2.7-18.7
	c0.7-52.6,1.7-105.2,2.8-157.9c0.1-4.2,1-8.4,2.1-12.4c3.8-14.9,14-19.8,28.5-18.5c15.5,1.4,18.5,11.9,18,24.5
	C1113.4,1636.8,1111.9,1664.2,1110.8,1685.6z"/>
<path d="M1936.8,1243c-138.4,1.4-296.9-10.8-454.2-33.7c-139.7-20.4-276.8-52.5-403.7-117.9c-45.7-23.5-86.7-53-117.6-94.9
	c-38.5-52.3-41.6-107.2-11.4-164.1c25.7-48.2,65-83.3,111.1-111c83.9-50.5,173.5-88.2,267.6-115.4c152.9-44.3,308.6-73,466.9-90.5
	c156.4-17.3,312.9-20.3,469.7-16.2c150.7,3.9,300.1,20.5,446.9,55.8c100.1,24.1,198,54.6,286.4,109.8c42.7,26.7,81.3,57.3,106.8,102
	c33.2,58.1,31.6,114.9-5.2,170.8c-36.2,54.8-88,91.4-144.9,120.8c-109.8,56.7-226.3,95.1-347.3,119.5
	C2393.3,1221.1,2176.6,1243.9,1936.8,1243z M1921.2,1187.8c264.8,1.3,494-22.6,720.2-73.6c104.7-23.6,206.1-57.1,300.8-108.6
	c42.2-23,81.2-50.3,110.2-89.4c32-43.1,34.7-86.8,3.7-129.4c-16.5-22.7-37.2-43.8-59.9-60.4c-82-59.8-177.6-88.7-274.1-114.1
	c-126.5-33.4-255.9-48.6-386.2-55.4c-291.4-15-580.3,3.2-865.1,69.7c-104.3,24.3-207.3,53.2-303.9,100.8
	c-51.3,25.4-101.6,52.7-142.4,94.4c-54.1,55.3-53.3,116.5,2.8,169.4c30.4,28.7,66.3,48.9,104,66.4c106.6,49.4,219.7,77.1,335,94.8
	C1628,1177.2,1790.6,1189.8,1921.2,1187.8z"/>
</svg>
