<?xml version="1.0" encoding="utf-8"?>
<!-- Generator: Adobe Illustrator 24.3.0, SVG Export Plug-In . SVG Version: 6.00 Build 0)  -->
<svg version="1.1" id="Layer_1" xmlns="http://www.w3.org/2000/svg" xmlns:xlink="http://www.w3.org/1999/xlink" x="0px" y="0px"
	 viewBox="0 0 4000 4000" style="enable-background:new 0 0 4000 4000;" xml:space="preserve">
<path d="M1742.5,1335.1c-15.7-31.2-30.2-60-44.8-88.7c-53.4-104.9-108.3-209.2-159.9-314.9c-47.7-97.6-91.2-197.3-117.9-303.2
	c-11.1-43.8-15.7-88.1-12.5-133.2c1.8-26,8.5-50.7,21.1-73.5c25.2-46.1,73.9-66.9,124.7-53.5c32.7,8.6,61.4,24.7,86.4,47.3
	c50.6,45.5,87.2,101.7,121.6,159.6c4.5,7.5,9.3,14.9,16.5,26.5c3.3-12.1,5.8-18.8,6.9-25.8c14.7-98.2,43.5-192.3,82.3-283.4
	c18.7-43.8,42.9-84.2,76.9-118.2c22.8-22.8,49.1-39.8,80.8-46.7c50.9-11,98.7,11.8,126.1,59c22.6,38.8,31.5,81.8,37.8,125.5
	c12.1,84.3,7.4,168.9,5.1,253.5c-0.4,13.1,0,26.2,0,45.4c9.5-9.6,15.8-15.4,21.5-21.6c34.4-37.5,72.4-70.7,116.4-96.6
	c31.1-18.3,64.5-30.7,100.7-33.1c83.7-5.5,138,49.4,131.4,133.2c-2.9,36.7-14.9,71.3-29.5,104.9c-27,62-65,117.4-103.9,172.2
	c-52.4,73.7-106,146.6-156.9,221.2c-45.4,66.5-87.9,134.9-116.8,210.6c-3.4,9-5.7,18.5-8.9,28.9c26.2,6.8,50.2,12.3,73.8,19.3
	c39.8,11.9,77.3,29,112.8,51.3c73.2,46,116.1,112,133.4,195.6c13.6,65.4,14.6,131.7,12.8,198.2c-5.4,202.1-36.2,401.2-70.4,600
	c-35.4,205.2-77.7,409-126.3,611.4c-36.4,151.7-78.5,301.8-134.8,447.5c-26.1,67.4-56.5,132.9-99.6,191.5
	c-9.3,12.6-19.8,24.6-31.3,35.3c-56,52.2-129.4,52.1-181.5-4.3c-26.1-28.3-47.8-61.7-66.4-95.6c-46.9-85.5-76.8-178-104.4-271.1
	c-80.9-273.1-141.4-550.9-189.2-831.6c-26.9-157.9-49.8-316.3-62.3-476c-8.1-102.6-12.6-205.6-5.4-308.4c3-41.9,9.9-84.3,21.3-124.7
	c25.6-90.9,89.2-149.1,172.8-187.7c40.8-18.8,83-33.4,127.4-41.1C1733,1339.5,1735.9,1337.7,1742.5,1335.1z M2387.2,1773.1
	c-10.5,0-17.1,0-23.6,0c-102.9-0.8-205.8-1.6-308.7-2.5c-6.6-0.1-13.3,0-19.9-0.6c-11.4-1.1-18.2-7.8-19.7-19
	c-1.3-10.1,7.5-19.9,19.6-21.9c5.7-0.9,11.6-0.5,17.4-0.5c102.1,0.1,204.1,0.2,306.2,0.2c8.9,0,17.7-0.7,27.3-1.2
	c0.9-6.1,2.4-10.1,1.9-14c-4.8-38.6-7.1-77.8-15.5-115.6c-12.2-54.3-44.3-95.9-93.9-122.6c-18.2-9.8-36.9-19.1-56.3-26
	c-63.7-22.7-129.8-34.7-197.1-38.1c-74.6-3.8-149.2-3.5-223.3,9c-55,9.3-108.8,21.3-159.9,44.7c-79,36.3-123.5,96.7-135.3,182.9
	c-12.4,91-9.2,182.1-4.4,273.2c0.2,3.1,1.5,6.2,2.6,10.3c7,0.6,13.4,1.6,19.8,1.6c73.8,0.1,147.7-0.1,221.5,0
	c9.9,0,20.1-0.2,29.6,1.9c9.8,2.2,15.3,10.1,14.2,20.5c-0.9,9-5.8,15.8-15.2,17.2c-8.2,1.3-16.5,2-24.8,2c-71.3,0-142.7-0.2-214-0.3
	c-9.5,0-18.9,0-28.2,0c-2,55.1,39.6,385.3,52.1,415.4c4.4,0.3,9.3,1,14.1,1c101.2-0.2,202.5-0.4,303.7-0.6c9.1,0,18.3-0.2,27.3,0.8
	c11.5,1.2,18.2,8.6,18.6,19.8c0.4,11.6-7.3,18.3-18.2,20.2c-8.9,1.5-18.2,1.8-27.3,1.8c-92.9-0.2-185.8-0.6-278.8-0.9
	c-10.6,0-21.2,0-31.4,0c-4,40.5,86.4,491.7,105.1,526.9c19.1,0,38.9,0.1,58.8,0c33.2-0.1,66.4-0.6,99.6-0.4
	c23.1,0.1,29.3,4.8,30,20.4c0.6,14.8-5.5,19.4-29.4,21.6c-9.9,0.9-19.9,1.5-29.8,1.7c-31.5,0.4-63.1,0.3-94.6,0.7
	c-8.7,0.1-17.4,1.1-28.3,1.8c7.9,30.9,15.2,58.8,22.1,86.8c25.4,103.1,53.2,205.6,90.2,305.2c19.3,51.9,42.2,102.8,66.8,152.4
	c11.5,23.2,29.9,43.6,47.5,63.2c13,14.4,27,14.6,42.3,2.9c11.7-8.9,23.3-19.3,31.5-31.3c15.3-22.5,29.9-46,41.8-70.5
	c42.2-86.7,72.1-178.2,101.1-269.9c1.7-5.3,1.4-11.1,2.4-20.1c-10.5,0-19.4,0-28.2,0c-38.2-0.1-76.3,0-114.5-0.6
	c-19.5-0.3-26.3-5.7-26.5-18.6c-0.2-13.7,8.5-21,26.9-22.5c3.3-0.3,6.6-0.3,9.9-0.3c40.7-0.1,81.3-0.6,122-0.3
	c26.2,0.2,26.9,0.8,33.3-25c28.9-116.6,57.6-233.3,86.1-350c4.3-17.5,7.5-35.2,11.9-56.2c-13.2,0-23,0-32.8,0
	c-50.6-0.2-101.2-0.3-151.8-0.9c-14.1-0.2-28.3-0.8-42.1-3c-12.2-1.9-16.3-9.4-14.5-21.6c2-13.7,9.8-18.9,29.8-18.8
	c67.2,0.5,134.4,1.4,201.6,2.1c5.6,0.1,11.2,0,16.1,0c17.3-42.7,96.4-483,92-512.6c-5.4,0-11.1,0-16.8,0
	c-52.3-0.3-104.5-0.4-156.8-0.9c-7.4-0.1-14.9-0.8-22.3-2c-9.6-1.7-13.6-8.9-14.3-17.8c-0.7-9.3,3.5-16.8,12.4-19.3
	c7.8-2.2,16.4-2.4,24.6-2.5c51.4-0.4,102.9-0.4,154.3-0.6c8.9,0,17.9,0,28.7,0C2372.5,2025.8,2383.1,1901.6,2387.2,1773.1z
	 M2022.6,1316.8c4.3-38.4,8.4-72.9,12-107.4c11.1-108.1,22-216.1,33.1-324.2c7.4-71.8,15.6-143.4,22.2-215.3
	c4.8-51.2,7.2-102.6,11.3-153.8c5.6-69,3.7-137.7-7.2-205.9c-3.8-23.5-10.5-47.1-19.5-69.2c-11.5-28.2-24.7-30.8-50.4-13.8
	c-24.9,16.5-41.5,40.2-56.1,65.6c-26.1,45.7-43.5,94.9-58.2,145.1c-40.3,137.7-59.8,279-68.4,421.6c-8.9,146.9-3.2,293.6,19.4,439.3
	c1.1,7,3.9,13.7,5.2,17.9C1919.7,1316.8,1970.1,1316.8,2022.6,1316.8z M1804.5,1247.3c1.5-8.4,2.4-10.7,2.3-13
	c-0.8-12.4-1.5-24.8-2.7-37.2c-10.4-102.5-12.3-205.2-5.9-308.1c0.4-7.1-1.1-15-3.9-21.6c-24-56.4-47.9-113-73.2-168.9
	c-27.4-60.5-57.1-120-100.7-170.9c-17.1-20-36.9-38-57.5-54.5c-13-10.5-28.8-23.3-47.4-13.2c-17.6,9.5-19.5,28.8-18.4,45.9
	c2.1,32.9,2.7,67,11.7,98.3c17.1,59.6,36.9,118.8,60.6,176.2c49.4,119.7,111,233.5,171.5,347.8
	C1761,1166.3,1781.4,1204.2,1804.5,1247.3z M2075,1235.1c1.7,0.6,3.4,1.2,5.1,1.8c5.2-8.9,10.8-17.6,15.7-26.7
	c11.8-21.9,22.7-44.2,35.1-65.8c48.6-85,107.4-163.2,163.8-243.1c43-60.9,85.6-122.1,126.2-184.5c24.9-38.3,43.4-80.1,50.4-126
	c4.7-31.2-9.8-45.7-41.2-40c-27.4,5-52.9,15.7-73.7,34c-30.4,26.7-60.7,54-87.9,83.9c-60.5,66.8-105,144.4-145.4,224.6
	c-10.6,21.1-16.5,43.1-19,66.4c-8.8,81.5-18.1,163-27,244.5C2076,1214.4,2075.7,1224.8,2075,1235.1z"/>
</svg>
