<?xml version="1.0" encoding="utf-8"?>
<!-- Generator: Adobe Illustrator 24.3.0, SVG Export Plug-In . SVG Version: 6.00 Build 0)  -->
<svg version="1.1" id="Layer_1" xmlns="http://www.w3.org/2000/svg" xmlns:xlink="http://www.w3.org/1999/xlink" x="0px" y="0px"
	 viewBox="0 0 4000 4000" style="enable-background:new 0 0 4000 4000;" xml:space="preserve">
<path d="M1943.8,3583.1c-182.5,1.9-396.5-28.6-605.4-91.5c-304.9-91.8-569.6-249.3-776.9-494c-199.9-236-308.1-512.2-347.9-817.2
	c-14.3-109.7-20.8-219.5-13.8-329.9C222.4,1489.4,331,1160,562.9,877C706.6,701.7,884,569.1,1087.1,470.5
	c222.3-108,457.3-171.2,703.5-192.9c398.4-35,777.1,36.1,1133.8,216.6c255.4,129.2,461.3,314.4,608.9,561.3
	c115.8,193.8,186.9,403.4,217,627.2c39.4,293.2,13.6,580.4-82.3,860.1c-83.9,244.8-226.2,451.1-423.4,619.2
	c-236.3,201.5-511.6,320.2-813.6,380.1C2274.1,3573.3,2135.6,3583.4,1943.8,3583.1z M1979.2,3550.2c202.5-4.2,395.8-24.8,584.9-78
	c221.5-62.3,426.2-157.2,608-300.6c197.8-155.9,344.8-349.5,438.2-582.7c124-309.3,148-630.1,96.2-956.8
	c-31.6-199.1-100-386-205.4-559.1c-109.6-180-251.3-328.6-425.5-446.2c-296-199.8-626.6-295.3-979.9-317.5
	c-169.8-10.6-338.8,2.1-506.1,34.6c-239.2,46.4-463.2,131.6-667.7,264.9C726.9,736,568.4,899.1,452,1101.2
	C309.8,1348,243.6,1616,236.1,1899.4c-3.8,142.3,11.7,282.9,40.1,422.4c37,181.4,105.7,350.1,206.4,504.8
	c172.5,265.2,411.1,451.5,701.4,572.4C1440.4,3505.9,1710.3,3544.3,1979.2,3550.2z"/>
<path d="M1956.2,388.5c329.9,2.8,631,67.4,911.6,212.6c300.9,155.7,524.7,386.4,657.2,700.9c54.4,129,88.3,263.9,108.4,402.4
	c32.8,226.2,17.9,450-38.7,670.4c-67.4,262.1-198.2,488.4-399.7,670.9c-153.7,139.2-330.7,240-526.1,308.7
	c-266.8,93.9-542.5,122.5-823.1,107.5c-264.2-14.1-517.9-73.5-753.7-196.3C818.8,3123.3,606.8,2918,472,2638.5
	c-77.4-160.5-125.1-330-142.6-508.1c-10.4-105.3-13.3-210.6-5.6-315.8c27-369.2,155.7-695.3,420.6-959.9
	c115.7-115.6,250.4-206.1,397.7-277.3c225.3-108.8,463-169.8,712.8-183.4C1893.6,391.9,1932.3,389.8,1956.2,388.5z M1981.9,3404
	c108-3.7,216.7-8.7,324.8-25.8c289.9-45.9,556.5-145.3,787.5-331.1c147.9-119,263.6-263.4,346.1-433.9
	c86-177.8,130.5-366.1,142-563.3c10.2-173.3-5.1-343.4-46.4-511.8c-51.8-210.8-145.4-400.3-287.8-564.3
	c-137.3-158.1-305.1-275.5-496.1-359.9c-251.9-111.3-515.6-164.5-791.2-162.1c-258,2.2-504.3,55.3-740.3,159.2
	c-139.8,61.5-267,142.5-381.7,243c-209.1,183.3-339.6,414.5-407.7,681.8c-59.5,233.5-64.6,469.6-22.7,706.6
	c38.6,218.5,121.8,418.4,258.6,593.7c162.1,207.7,371.4,351.8,616.4,445.7C1507.9,3367.9,1741.9,3400.4,1981.9,3404z"/>
<path d="M1963.4,2376c-152.9-6.3-302.2-61.8-415.2-195.3c-152-179.7-130.6-420.6,21.4-581.6c96.8-102.5,219.6-154.5,356.9-168.6
	c165.1-16.9,315.1,26.3,442.1,135.8c101,87.1,153.3,200.7,154.1,332.6c1,165.6-76.6,291.9-214.5,381.4
	C2209,2344.8,2099.4,2374.8,1963.4,2376z M2461.4,1953.5c1.5-164.2-49.1-271.8-139.1-348c-218.3-184.8-542.8-138.4-708,35.3
	c-114.1,120-140.1,292.1-62,436.6c45.9,85,116.2,146.4,202.9,185.7c174.6,79.2,347.1,68.4,510.6-30.7
	C2388.5,2158,2459,2048.6,2461.4,1953.5z"/>
<path d="M1464.4,2795.6c-70.2-1.7-124.9-58.8-123.7-129c1.2-72.4,65.1-134.4,136.2-132.2c70.4,2.2,126.1,61.7,125,133.5
	C1600.7,2742.5,1541.5,2797.5,1464.4,2795.6z"/>
<path d="M2499,2539.1c73.3,1.6,129.1,58.3,127.7,130c-1.5,77.6-60.7,132.5-140.1,129.7c-66.9-2.4-122.3-64-120.5-134.1
	C2368,2593.7,2427.3,2537.6,2499,2539.1z"/>
<path d="M1980.6,2976.7c-101.3-0.7-177.4-62.1-191.3-153.6c-1.3-8.3-2-16.8-1.6-25.2c0.9-16.2,8.3-28.2,25.9-29.6
	c16.6-1.3,27.9,6.3,31.9,23.1c1.4,5.9,2.5,11.8,3.8,17.7c16.4,76.2,79,120,155.4,106.6c83.9-14.7,111.4-51.5,121.1-114.7
	c0.2-1.2,0.3-2.4,0.6-3.6c6.2-26.5,14-35,30.4-33.5c18.9,1.7,28.4,17.2,26.9,43.8c-5,90.4-77,160.3-174,168.8
	C2000.1,2977.4,1990.3,2976.7,1980.6,2976.7z"/>
<path d="M1307.2,2808.8c35.6-1.8,70.2,7.8,100.4,30.4c39.1,29.3,40.8,74.7,1.5,103.8c-17.8,13.1-40.5,21.7-62.3,26.8
	c-47.2,11.1-93.9,6-138.6-13.6c-25.9-11.4-46.7-29.4-47.5-59c-0.8-31.8,18-55,45.6-69.1C1237.2,2812.3,1270.8,2807.7,1307.2,2808.8z
	 M1297.9,2841.9c-23.1,6-46.6,11-69.3,18.4c-14.1,4.6-28.5,14.7-25.2,30.9c2.3,11.2,12.4,24.5,22.6,29.6
	c50.4,25.1,102.1,27.2,152.4-1.1c27.5-15.5,28.1-33.7,3.1-53C1357.1,2848,1328,2846.2,1297.9,2841.9z"/>
<path d="M2676.5,2980.3c-30-7.8-61.9-11.5-89.7-24.3c-58.4-26.9-62-90-5.8-120.9c65.4-35.9,134.8-36.8,199.9,2.1
	c50.3,30,48,85.9-2,116.6C2756,2968,2717.9,2976.2,2676.5,2980.3z M2681,2945.8c26.1-7.2,50.7-12.2,73.7-21
	c12.9-4.9,28.5-15.8,23.8-31.9c-3.6-12.1-14.8-26.3-26.2-31.1c-47.3-19.9-96.3-20.7-143.6,0.3c-10.5,4.7-21.1,17.1-24.5,28.1
	c-4.9,15.7,7.7,28.5,21.3,33.6C2629.8,2932.8,2655.4,2938.5,2681,2945.8z"/>
<path d="M839.5,1312c0,14.5,1.1,29-0.3,43.4c-2,20.4-10.4,27.8-29.7,29.5c-20.8,1.9-35.5-5.5-37.4-25c-2.9-31-3.1-62.5-0.9-93.5
	c1.3-18,18.8-28,37-26.9c18.8,1.2,29.7,11.7,31.5,32.7c1.2,13.2,0.2,26.5,0.2,39.8C839.8,1312,839.7,1312,839.5,1312z"/>
<path d="M2940.2,1031.4c-21.2-0.4-29.7-13-35.2-29.1c-6.6-19.4-2.3-35.5,15.8-42.6c25.7-10.1,52.6-17.9,79.6-23.9
	c17-3.8,31.5,8.7,37.8,27.3c6,18-1.5,33.2-16.4,39.8C2995.6,1014.6,2967.5,1022.1,2940.2,1031.4z"/>
<path d="M1131,919.6c-12.1,0-24.3,0.8-36.3-0.2c-23.2-1.8-31-10-31.6-31c-0.7-23.2,7.7-37.8,28.2-39.7c27.6-2.5,55.6-2.6,83.2-0.5
	c20.2,1.6,30.4,18.1,29,39c-1.3,19.7-10.5,28.7-32.6,31.7c-2.4,0.3-4.8,0.4-7.2,0.4c-10.9,0-21.8,0-32.7,0
	C1131,919.4,1131,919.5,1131,919.6z"/>
<path d="M2916.6,1770.6c-19-2.6-27.4-13.6-32.2-28.3c-5-15.2-2.7-31.4,12.1-37.6c28.5-11.9,58.1-21.9,88.2-28.8
	c17.8-4.1,28.1,10.7,33.2,26.8c4.9,15.6,1.2,30.7-13.8,36.9C2975.5,1751.4,2945.8,1760.4,2916.6,1770.6z"/>
<path d="M1936,858c3.6-15.8,7.3-38.5,14-60.2c7.4-24,23.6-33.9,42.6-29.7c21.1,4.7,31.3,21.6,27,47.1c-3.7,21.3-7.5,42.8-13.7,63.5
	c-7.3,24.4-19.9,30.8-43.7,25.9C1941.1,900.3,1934,889.6,1936,858z"/>
<path d="M1126.7,1664.1c-25-11.3-51.2-20.6-74.5-34.6c-17.8-10.7-18.7-29-8.1-47.9c9.4-16.7,22.2-22.7,42.3-15.3
	c22.4,8.3,44.2,18.6,65.3,29.8c16.4,8.7,18.7,24,12.5,40.6C1158,1653,1144.4,1661.9,1126.7,1664.1z"/>
<path d="M3106.5,1373.9c-19.5-4.5-26.8-16.8-31.2-31.1c-4.7-15.3-1.4-30.3,13.4-37.2c26-12.1,52.8-22.9,80.2-31.4
	c17.5-5.5,29.4,5.9,36.8,21.5c7.1,14.9,5.7,31.7-7.7,38.7C3168.7,1349.7,3137.2,1361,3106.5,1373.9z"/>
<path d="M2583,879.1c0-10.9-1.2-21.9,0.3-32.5c2.3-17,18.2-30.6,35-31c17.5-0.4,33.4,7.2,35.9,24.3c4.1,27.1,5.8,55.2,3.5,82.5
	c-1.6,20-16.1,27.5-36.7,26.8c-19.5-0.7-31.4-10.3-34.6-30.3c-2.1-13.1-1.9-26.5-2.7-39.8C2583.5,879.1,2583.2,879.1,2583,879.1z"/>
<path d="M2725.9,1316.7c14.4-24.8,27.2-50.8,43.8-74.1c10.8-15.1,29.2-14.4,45.4-3.4c14.9,10.1,21.2,24.2,13.6,40.8
	c-10.1,21.9-21.9,43.1-34.1,64c-9.7,16.6-25.2,17-41.5,11.1C2735.5,1348.8,2728,1336.8,2725.9,1316.7z"/>
<path d="M1195.3,1236.1c-29.1-13.6-59-25.9-87.1-41.5c-14.8-8.2-12.6-25.1-6.6-39.1c6.3-14.8,18.9-24.4,34.5-18.6
	c28,10.3,55.5,22.4,81.7,36.6c13.7,7.4,16.5,22.5,9.9,38.2C1221.9,1225.5,1212.5,1232.8,1195.3,1236.1z"/>
<path d="M2252.9,674.9c-0.1-21.7,9.4-35.9,24.8-40c17.1-4.6,33.1-0.5,40,15.8c10.4,24.1,19.1,49.4,24.9,74.9
	c4,17.6-9.1,32.4-26.8,37.6c-18.3,5.3-32.9-0.6-40.6-20.2C2266.1,719.5,2259.5,695.1,2252.9,674.9z"/>
<path d="M1542.1,853.3c1.5,45.9-8.2,59.2-37.3,60.9c-17.2,1.1-29.3-6.4-32.1-22.3c-4.3-24.7-7.1-50-7.4-75.1
	c-0.2-17.8,14.9-29.9,33.2-31.7c19.6-2,32.6,6.1,37.4,25.9C1539.8,827.3,1540.8,844.3,1542.1,853.3z"/>
<path d="M1856.6,1081.8c-6.6,15.4-14.6,38.3-26,59.4c-8.6,15.9-24.5,17.7-41.4,11.6c-16.3-5.8-23.6-17.7-20.7-33.7
	c3.9-21.3,8.6-42.7,16-63c7.7-21.2,20.7-27.3,39.1-23.5C1844.1,1036.8,1857.6,1053.6,1856.6,1081.8z"/>
<path d="M2320.9,1146.2c-0.7,26.7-25,47.6-45.2,39.3c-24.1-10-46.8-24.4-67.9-39.9c-15.6-11.4-10.1-27.9-1.4-42.3
	c8.5-14,21.5-22,36.6-14.9c22.7,10.7,44.5,23.7,65.3,37.8C2315.3,1130.9,2318.2,1141.7,2320.9,1146.2z"/>
<path d="M1403.4,1414.8c-26.1-1.1-45.1-30.5-30.9-50.1c15.9-21.8,37.5-40.3,59.2-56.7c12.2-9.3,27.9-3.4,39.2,8.2
	c10.5,10.8,14.9,25.7,5.8,36.2c-18.7,21.6-40.7,40.4-61.9,59.7C1411.9,1414.8,1405.8,1414.3,1403.4,1414.8z"/>
<path d="M3322.3,1641.7c-12,21.9-22.1,45.1-36.6,65.1c-10.7,14.8-32.2,15.3-45.8,5.8c-14.7-10.3-19.9-25.2-12.7-41.1
	c8.8-19.5,19-38.8,31.4-56.2c9.4-13.3,24.7-13.2,39.3-6.1C3310.7,1615.3,3319.7,1624.1,3322.3,1641.7z"/>
<path d="M1749.1,682.9c-25.1,0.3-50.7-22.8-51.1-46.2c-0.4-20.8,24.5-42.9,49.3-43.9c26.8-1.1,54.7,23,54.5,47
	C1801.6,663.9,1778.8,682.5,1749.1,682.9z"/>
<path d="M688.7,1670.8c0.7,23.7-24.5,47.7-49.5,47.4c-22.4-0.3-50-26.9-50.6-48.7c-0.5-21.1,21-39.2,47-39.8
	C667.4,1629.1,688,1645,688.7,1670.8z"/>
<path d="M1976,2233.5c-88.5-2.3-177.7-28.4-256.5-86.3c-74.2-54.6-118.2-128-129.1-218.8c-9.6-80,18.7-150.8,68.7-211.9
	c70.1-85.7,163.1-130.6,272.1-144.1c116.9-14.5,224.6,10.7,319.9,79.6c163.7,118.5,186.3,346.1,10.8,487.6
	C2190,2197.4,2078.3,2233.6,1976,2233.5z M2345.3,1901.3c-2.4-91-42.1-163-114.3-216.7c-147.6-109.7-348.3-105.3-496.8,9.3
	c-140.4,108.4-142.5,299.7-6.3,413.8c157.2,131.6,399.9,104.6,529-13.4C2313.2,2042.8,2342.4,1978.1,2345.3,1901.3z"/>
</svg>
