<?xml version="1.0" encoding="utf-8"?>
<!-- Generator: Adobe Illustrator 24.3.0, SVG Export Plug-In . SVG Version: 6.00 Build 0)  -->
<svg version="1.1" id="Layer_1" xmlns="http://www.w3.org/2000/svg" xmlns:xlink="http://www.w3.org/1999/xlink" x="0px" y="0px"
	 viewBox="0 0 4000 4000" style="enable-background:new 0 0 4000 4000;" xml:space="preserve">
<path d="M3784.2,1525.9c-1.1,102.2-14.5,188.2-51.8,269.1c-10.8,23.4-8.8,41.1,8,62.1c44,55,74.4,116.8,90.6,186.4
	c18.9,81.2,12.5,159.4-21.7,234c-14.6,31.7-12.1,58.4-3.7,90.5c55.5,211.6,23.9,407.9-114.1,581.1c-78,97.8-181.7,156.9-305.2,178.1
	c-39.1,6.7-64.3,23.8-87.1,57.5c-80.4,118.8-196.2,183.4-336.6,207c-87.1,14.7-171.9,4.4-255.4-20.3c-23.5-7-39.7-3.4-58.2,13
	c-132.1,116.9-286.2,157.4-458.9,125.9c-37.1-6.8-73.3-19.5-109-32.2c-17-6-31.1-6.2-47.2,1.1c-207.8,94-402.2,65.6-584.1-66.4
	c-25.4-18.5-48.7-41-69.2-64.8c-16-18.6-31.3-21.4-53.4-15.2c-31.6,8.8-63.7,17.3-96.2,21.5c-128.7,16.5-246.4-15.4-354.2-86
	c-44.8-29.3-87.5-61.3-116.9-107.2c-13-20.2-31.4-23-52.7-22c-103.1,4.6-199.5-21.1-286.4-74.9
	c-188.9-116.8-285.7-289.8-296.8-510.2c-3.2-63.8,10.1-126.5,41.4-183.4c11.5-21,11.8-39.8,2.6-61.4
	c-45.4-107.1-40.8-212.6,13.9-315.1c13.5-25.3,10.8-47.9,0.7-72.6c-41.1-100.9-40.9-202.5-2.8-304.2
	c26.4-70.6,67.8-130.4,130.2-173.7c18.6-12.9,23.3-26.8,19.2-48.3c-52.3-273.7,50.6-492.2,246.8-673.5
	c128.5-118.8,284.3-193.4,447.4-252.9c204.5-74.7,415.7-120.7,631.8-146c147.7-17.3,295.8-26.7,444.1-13.9
	c100.9,8.7,201.8,21.2,301.5,38.6c260,45.5,509.2,125.4,742.3,250.7c177.7,95.5,331.2,221,448.6,386.2
	c99.8,140.4,168.1,294.8,187.4,467.9C3782.7,1481.3,3783.3,1510.5,3784.2,1525.9z M1967,339.1c-112.5,8.1-225.5,11.8-337.2,25.3
	c-206.8,25.1-409.4,71.1-604.9,144.4c-154,57.8-300.5,130.3-423.5,242.2c-193.8,176.3-289.1,388.3-228.5,653.8
	c6,26.4-1.2,41.1-23.7,56.3c-86.4,58.6-135.3,142.8-153.9,244.2c-14.8,80,2.4,156.6,35.5,229.5c9.6,21.1,9,36.6-3,56.2
	c-14.4,23.5-27.1,49.1-34.8,75.4c-24.4,83.2-20,165.5,16.8,244.8c8.8,18.9,7.9,35.3-1.7,54.1c-23.7,46.7-38.9,96.5-42.2,149
	c-10.8,171.4,49.4,316.3,170,435.7c105.8,104.7,234,159.3,384.5,150.6c30.9-1.8,47.4,7.6,66.4,30.3
	c132.6,158.4,300.8,216.3,503.2,171.7c21-4.6,41.7-11,62.5-16.5c16.1-4.3,27.6-1.4,39.2,13.4c33.8,43.2,74.9,79.3,121,109
	c165.1,106.2,337.3,114.2,514,33.1c24.7-11.3,43.6-13.4,67.4-1.4c57.5,29,119.5,42.4,183.7,42.3c136-0.2,256.7-44,357.5-135.9
	c25.4-23.1,46.6-26.7,77.9-15.7c126.8,44.3,252.8,34.5,374.6-17.7c82.1-35.2,149.7-91.4,194-170.1c17.5-31,38.3-44.6,73.3-49.7
	c136.8-20.1,248.8-85.5,329.4-198.4c120.3-168.5,135.8-353.5,75.3-547.2c-8.5-27.2-5.1-46.9,6.7-71.5c14.6-30.3,26.7-63.5,31.5-96.7
	c15.6-107.2-17.5-202.7-78.5-289.8c-10.2-14.5-22.1-27.8-33.4-41.5c-8-9.7-10.3-19.5-4.3-31.5c6.3-12.4,11.1-25.5,16.8-38.3
	c38.3-86.3,54.5-177.3,49.3-270.7c-9.2-164.4-63.5-314.9-152.2-452.8c-99.1-154.1-231.5-274.7-384.9-373.1
	C3067.8,590.5,2913,525,2751.9,473C2496.8,390.7,2236.3,341.8,1967,339.1z"/>
<path d="M1403.7,3177.3c-45.9,15.9-86.8,33.8-129.5,44.3c-175.1,42.9-348.1-25.3-446.8-176.7c-18-27.7-36.3-36.4-68.2-31.7
	c-222.8,33.1-396.2-105.7-469-274.7c-31-71.9-50.1-146.5-40.1-225.8c6.3-49.6,20.6-97.2,50.9-137.5c13.8-18.4,14.2-33.4,4.6-52.2
	c-9.2-18-18-36.4-25.6-55.2c-33.1-82.1-27-161.1,20.7-236.2c6.8-10.7,13.1-22.1,21.8-31c17.2-17.8,15.3-34.3,3-54.2
	c-29-47.1-46.2-98.9-50.2-154.1c-7.3-100.6,30.4-183.6,104.4-250.2c23.5-21.1,50.5-38.1,75.9-57.1c25.8-19.3,26.8-21,16.4-50.6
	c-74.6-213-17.8-397.3,127.4-558.6c96.3-107.1,218.2-180.9,348.6-240c196.5-89.2,403.6-141.4,616.3-173.9
	c242.2-36.9,484.9-45.6,727.5-7.2c296.3,46.8,581.1,129.6,841.7,282.9c164.3,96.7,302.4,221,401.3,386.2
	c79.9,133.4,127.6,275.8,125.3,432.6c-1.3,89.2-20.9,173.6-75.3,246.8c-12.5,16.8-13.1,31,0,47.7c23.5,29.9,46.1,60.5,68.4,91.3
	c29.2,40.6,48.6,85.5,59.9,134.5c15.9,68.7,2.9,131.4-37.5,187.7c-16.5,23-20.3,41.5-8.7,68.9c58,137.7,56.2,277.6,0.7,414.8
	c-65.1,161-187,251-360.1,270.8c-10.1,1.2-20.2,1.9-30.3,2.7c-18.2,1.4-28.9,10.1-36.5,27.7c-86.9,201.2-330.8,266.2-500.9,201.1
	c-21.3-8.1-42.4-17.1-62.6-27.5c-17.9-9.2-29.6-5.7-42.5,9.7c-74.6,89.4-170.2,141.9-284.9,160.9c-94,15.6-181.7-2-263.1-50.4
	c-18-10.7-31.5-15.7-51.4-2.6c-192.9,126.4-449,83.5-597.9-116.1C1426,3209.2,1415.3,3193.6,1403.7,3177.3z M1971.8,493.7
	c-87.2,5.8-175,7.1-261.5,18.4c-112.9,14.7-225.4,34-336.9,57.2c-173.2,36.1-339.8,92.5-494.8,179.4C784,801.7,695,862.3,626,947.4
	c-79.4,97.8-124.2,208.8-115.7,336.9c11,164.2,140.7,312.7,302.8,342.7c54.5,10.1,110.9,10.2,166.5,13.8
	c88.8,5.6,154.7,51.7,182,131.6c8.9,26.2,14,54,18,81.4c6.2,42.6,9.4,85.7,15,128.4c5.1,39.5,17.2,76.6,42.8,108.2
	c49.3,61.1,115.3,69,176.7,19.8c13.6-10.9,25.8-24.6,35.8-38.9c16-22.8,28.9-47.7,44.5-70.8c17-25.2,33.9-50.7,53.7-73.6
	c60.9-70.5,179.8-112.2,286.3-45.9c29,18,56.6,38.4,84.3,58.5c87.5,63.7,183.4,89.1,290.7,67.1c89.6-18.4,168.1-55.6,225.2-130
	c4.6-6,9.4-12.1,15-17.1c17.3-15.4,29.8-15.1,46,1.8c8.7,9.1,15.7,19.9,23.3,30c47.2,62.5,106.9,103.7,187.2,109.8
	c18.9,1.4,37.9,2.9,56.8,4.6c61.8,5.3,108.7,32.4,132.5,92c7.9,20,14.1,40.7,20.2,61.3c8.3,27.9,14.6,56.5,23.9,84.1
	c15.2,45.2,47.4,71.5,95.2,75.3c49.2,3.9,86.6-17,108.2-61.6c10.4-21.5,18.6-44.5,23.9-67.8c9.2-40.7,15.3-82.2,22.9-123.3
	c18.8-102.1,74.4-175.9,169.4-219c19.6-8.9,40-15.9,59.7-24.6c23.1-10.2,47.2-19.2,68.6-32.3c68.5-41.9,90.3-110.9,97.6-184.5
	c12.7-129.1-11.2-252.6-67.6-369.4c-86.9-180.1-222-316.3-389.5-421.8c-163.2-102.8-339.9-174.7-525.8-225.2
	C2395.7,532.9,2187,493.5,1971.8,493.7z M2470.9,1949.8c-11.9,10.3-20.4,17.9-29,25.2c-154.1,130.1-383.7,152.5-556.6,26.2
	c-27.6-20.2-55-40.9-83.7-59.5c-48.9-31.7-100.9-34.6-151.1-5.3c-24.6,14.4-47.8,33.9-66,55.7c-22.6,27-38.3,59.6-58.9,88.5
	c-19.7,27.7-38.6,57.4-63.4,80c-89.3,81.1-220.1,63.2-287.8-36.6c-26.2-38.6-41.8-81.1-47.6-127c-5.7-45.3-9.3-90.8-14.6-136.1
	c-12.5-106.7-55.2-145.8-163.3-151.1c-35.4-1.7-71-3.4-106.2-7.5c-100-11.6-188-49.2-259.3-122.4c-52.9-54.3-53.2-54-117.6-13.1
	c-4.3,2.7-8.7,5.3-12.8,8.2c-63.2,45-105.4,102.4-106.4,183.2c-0.7,52,14.5,100,39.5,145.1c8.6,15.5,17.7,30.8,26.5,46.2
	c10.6,18.5,9.4,35.6-4.2,52.8c-14.2,17.8-27.4,36.5-40.4,55.3c-36.9,53.5-48.6,111.1-24,172.9c8.4,21,19.3,41.3,31,60.7
	c32.8,54.1,33.4,53.9-3.1,105.9c-41.1,58.7-57.7,123-48,194.4c11.7,85,42,162.4,98.6,227c80.8,92.2,181.1,140.7,306.6,125.6
	c27.7-3.3,55.5-6.2,82.7-12c23.3-4.9,36.2,5.4,45.8,24c3.5,6.8,6,14,9.7,20.6c80.4,143.5,239.9,232.6,419.6,167.1
	c34.4-12.5,67-30.1,100.4-45.3c36.5-16.6,43-14.7,64.6,19.5c6.1,9.6,12,19.4,17.9,29.2c33.6,55,76.7,101.1,131.3,135.4
	c71.8,45,149.4,67.4,235.3,57.2c70-8.3,131.7-35.1,187.1-77.9c29.8-23.1,29.8-23,62.4-2.1c12.8,8.2,25.4,16.9,38.7,24.2
	c74.8,41.1,152.9,57.8,238,36.8c89.4-22.1,163.8-66.2,221.6-138.2c12.7-15.8,25.8-31.3,39.3-46.5c9.7-10.9,21-12.6,34.1-4.9
	c19.7,11.6,39.3,23.3,59.7,33.5c67.4,33.7,138.1,49.2,213.5,36.4c125.2-21.3,214-87.3,257.2-209.3c1.3-3.6,2.6-7.2,3.7-10.8
	c6.6-20.7,19.6-31.2,42.4-29.9c18.9,1.1,38.1,0.7,57-0.8c103.3-8.5,190.7-49.1,256.3-131c74.7-93.3,95.4-202.4,87.9-318.4
	c-4-62.7-23.4-122-49.5-178.7c-11.9-25.8-8.2-43.6,11-64.4c53.1-57.3,65.8-124,36.8-197.3c-6.9-17.6-14.9-35.2-25.2-51
	c-22-34-45.9-66.9-69-100.2c-10.6-15.3-21.3-30.7-32.2-46.3c-34.5,14.1-65.5,28.5-97.6,39.7c-95.4,33.1-144.7,102.1-158.7,199.5
	c-1.4,10-3,20.1-4.8,30c-9.8,54.9-19.5,109.8-46,160.1c-34.1,64.7-88.8,98-160.1,97.3c-67.9-0.7-122.3-31.9-154.1-94.1
	c-12.6-24.6-20.7-51.6-29.1-78.1c-8.4-26.6-14.7-53.8-21.8-80.8c-9.1-34.8-32.4-53.3-67.1-58.4c-16.3-2.4-32.7-4.2-49.2-5.2
	c-87.4-5.3-161.8-38.8-222.9-101.8C2489,1964.3,2480.9,1958.3,2470.9,1949.8z"/>
<path d="M3117.8,1729.2c-17.5-1.6-31.5-2.1-45.2-4.5c-8.4-1.5-19.1-4-23.6-9.9c-6-7.9-10.6-20.1-9.4-29.7
	c1.7-13.5,15-16.8,26.9-13.9c26.1,6.5,51.7,9.8,78.6,4.2c108.1-22.7,182.7-109.7,189.6-222.5c0.7-11.4,0.4-22.8,0.8-34.2
	c0.5-12.4,3.6-22.9,18.9-23.2c15.4-0.3,29.7,4.7,30.3,21.7c0.7,21.3-1.6,42.9-5,64.1c-19.4,121.6-86.6,202.5-205.7,237.9
	C3154.8,1724.8,3134.3,1726.3,3117.8,1729.2z"/>
<path d="M3137.4,1091.9c2.9-29.1-6.9-55.9-24.4-80.5c-45.3-63.5-107.1-102.8-181.1-125c-29.6-8.9-57.6-5.1-85.1,7.2
	c-14,6.3-27.2,8.9-35.8-7.6c-6.7-12.9-0.7-29.3,17.8-36.5c18.5-7.2,39.2-12.9,58.7-12.4c27.5,0.6,56.3,3.4,82,12.5
	c74.6,26.3,137.1,70.6,183,136.3c24.7,35.4,37.1,74.8,36.3,117.9c-0.2,9.8-1.6,21.5-7.1,28.6c-5.3,6.7-17.6,12.7-25.4,11.2
	c-7.3-1.3-15.3-11.9-18.1-20.1C3135,1114.5,3137.4,1103.5,3137.4,1091.9z"/>
<path d="M874.4,1203.4c0.7-106.2,74.7-196.3,167.9-213c9.9-1.8,20.3-2.8,30.1-1.5c18.3,2.4,28.8,14.6,28,30.2
	c-1,19.2-14.8,20-29.5,21.7c-82,9.5-135.1,62.9-143,142.3c-3.7,37.6,6.3,69.9,33.2,97.2c20,20.3,22,30.1,10.9,40.8
	c-12.9,12.4-35.3,10.7-50.7-5.8C889.5,1281.3,875,1240.2,874.4,1203.4z"/>
<path d="M801.2,1112.1c-40.1,3.6-46.5-0.9-42.5-33.4c12.3-101.7,93.6-224.3,223.5-258.4c7.2-1.9,16.4-4,22.3-1.1
	c8.1,4,17.1,11.7,19.6,19.7c1.7,5.6-5.4,16.2-11.4,21.2c-6.4,5.3-16.1,7-24.5,9.8C885.6,903.8,827.9,976,807.6,1080.4
	C805.5,1091.3,803.2,1102.1,801.2,1112.1z"/>
<path d="M1126.4,1441.6c-14.6-3-30-4.4-44-9.6c-14.8-5.5-20.7-18.6-15.8-33.9c4.3-13.5,15.5-14.8,27.7-12
	c13.5,3.1,27.1,5.6,40.5,9.1c12.7,3.3,24.8,8.5,23,24.9C1155.6,1438.6,1140.4,1438.9,1126.4,1441.6z"/>
<path d="M1584.6,2479.5c-0.4,74.9-64.2,133.5-145.4,133.5c-71,0.1-128.4-59.4-127.9-132.4c0.6-78.4,62-140.4,139.4-140.6
	C1526.8,2339.8,1585.1,2400.6,1584.6,2479.5z"/>
<path d="M2518.5,2347.4c74.5,1.8,133.7,66.1,131.2,142.8c-2.3,70.9-68,130.8-141.9,129.4c-73.2-1.3-132.1-61.7-131.1-134.3
	C2377.9,2408.6,2442.7,2345.6,2518.5,2347.4z"/>
<path d="M1984.8,2795.6c-89-3.1-187.8-46.2-207-165.2c-1.4-8.6-2.6-17.7-1.4-26.3c2.3-16.9,11.5-27.2,30.1-28.1
	c17.2-0.8,25.6,8.1,29.7,23.3c3,11,6.1,22,9,33c14.1,54.2,52.9,83.8,104.3,93.7c56.2,10.8,109.5-1,148.8-46.6
	c11.8-13.7,16.9-33.5,23.6-51c3.6-9.3,3.9-19.8,6.1-29.7c3-13.4,8.9-23.8,25.1-23.3c17.1,0.5,29.7,7.7,33.3,25.1
	c1.7,8.4,1.1,17.6,0.1,26.3c-10,82.6-71,147.6-153.2,162.9C2015.8,2793,1998,2794.1,1984.8,2795.6z"/>
<path d="M1272.9,2795.7c-42.3-0.9-78.3-7-110.1-27.7c-50.7-32.8-51.6-90.5,1.3-118.6c70.6-37.4,143.9-36.9,213.8,3.4
	c41.4,23.9,46,73.7,9.8,105.4c-16.4,14.4-38.7,23.7-59.8,30.4C1309,2794.7,1288,2794,1272.9,2795.7z M1268.6,2759
	c26.3-6.9,53-12.7,78.9-21.1c13.3-4.4,24-14.5,23.9-30.8c-0.1-16.5-12.3-24.6-25-30.1c-35.6-15.3-72.9-19.5-110.9-12
	c-17,3.4-34.7,8.1-49.5,16.6c-27.3,15.9-26.7,33.4-1.6,52.1C1209.3,2752.1,1238.1,2753.4,1268.6,2759z"/>
<path d="M2686.2,2798.7c-30.1,1.7-62.1-4.2-91.2-22c-50.5-30.9-51.6-87.5-2.5-120.1c53.5-35.5,157.9-34.4,210.2,2.3
	c48.9,34.3,47.8,84.8-3.2,116.1C2766,2795.7,2728.2,2799.3,2686.2,2798.7z M2690.3,2762.1c39.6-3.1,67.4-9.1,88.1-22.1
	c27.7-17.4,28.5-39.9-1.3-53.5c-50.3-23-103-22-154.1-2c-10.9,4.3-25.1,20.4-24,29.5c1.5,12,14.3,27.3,26,32.5
	C2645.3,2755.2,2668.4,2757.3,2690.3,2762.1z"/>
<path d="M684.4,2307.9c6.3-0.7,12.6-2.1,18.8-2.1c12.5,0.1,22.9,4.2,24.4,18.5c1.4,13-4.6,21.9-17.3,25.8c-1.2,0.4-2.3,1-3.5,1.4
	c-89.5,32.7-199.7-55.2-186.3-148.5c3.8-26.3,7.4-52.7,10.7-79c1.7-13.8,6.8-27.6,21.9-25.1c10.4,1.7,24.7,11.5,27.5,20.7
	c3.9,13.1,4.1,32.6-3.2,42.8C522.8,2238.2,609.2,2317.9,684.4,2307.9z"/>
<path d="M3509.6,2457.4c-6.9,49-15.7,95.7-46.5,135.7c-28.5,36.9-67.3,52-111.2,57.7c-15.2,2-27.9-3.8-33-19.3
	c-4-12.1-1.9-23,12.4-27.1c6-1.7,12.4-2.2,18.6-2.9c52.9-6.1,84.6-33,97.2-85.8c5.2-22,6.6-44.9,9-67.5c2.6-24.2,8.2-31.5,24.5-30.1
	c18.3,1.5,28.3,12.9,29.1,32.9C3509.6,2453.5,3509.6,2456,3509.6,2457.4z"/>
<path d="M724.8,2673.9c-67.8-0.3-115-26.2-150.8-72.7c-7-9.1-11.5-23.3-10.4-34.5c0.9-8.9,10.7-20.1,19.3-23.8
	c5.9-2.5,17.6,4.6,24.7,10.1c5.5,4.3,7.9,12.6,11.4,19.2c22.8,43.7,56.1,61.9,104.9,57c11.2-1.1,22.9-5.8,33.4-3.9
	c7.8,1.4,18.9,10.1,19.8,16.7c1.1,7.5-5.7,21-12.4,23.7C749.9,2671.7,733.1,2672.4,724.8,2673.9z"/>
<path d="M3227.8,2714c-2.7,4.4-5.6,14.1-12.1,18.3c-13.5,8.6-28.3,16.5-43.7,20.1c-7,1.7-20.3-5.3-23.9-12.1
	c-3.5-6.5-1.5-22.3,3.7-26c15.9-11.3,34-20.6,52.5-26.9C3216.3,2683.3,3228,2696.9,3227.8,2714z"/>
</svg>
