<?xml version="1.0" encoding="utf-8"?>
<!-- Generator: Adobe Illustrator 24.3.0, SVG Export Plug-In . SVG Version: 6.00 Build 0)  -->
<svg version="1.1" id="Layer_1" xmlns="http://www.w3.org/2000/svg" xmlns:xlink="http://www.w3.org/1999/xlink" x="0px" y="0px"
	 viewBox="0 0 4000 4000" style="enable-background:new 0 0 4000 4000;" xml:space="preserve">
<path d="M2055,3728.5c-192.1-3.3-375.2-43.2-550-122.9c-147.7-67.3-246.7-178.3-303.4-329.2c-31.8-84.6-50.5-172.5-67.6-260.9
	c-13.3-69-27.1-138-38.8-207.3c-3.8-22.5-5.1-46.4-2-68.9c10.1-72.5-3.7-142.3-18.2-212.5c-21.8-105.9-20.6-211.2,16.2-313.9
	c10.7-30,27.7-58,43.8-85.8c8.3-14.2,13.1-25.9,2.3-40.8c-79.2-108.9-83.6-229.7-50.3-353.7c23-85.5,52.7-169.3,81.2-253.3
	c8.3-24.6,12.3-47.7,9.9-74c-10.7-115.5,16.8-219.9,98.8-305.6c13.2-13.8,19.2-27.5,16.9-46.2c-10.1-79.7,9.4-153.9,46.2-223.4
	c99.1-187.2,215.2-362.8,356.1-521.7c78.9-89,176.5-143,292.1-166.3c89.6-18,179.7-30.6,271.4-18c71.9,9.9,139.6,29.5,197.4,76.4
	c35.7,29,61.1,65.7,83.1,105.2c46.4,82.9,79.4,171.6,109.3,261.3c23,68.9,44,138.5,65.5,207.8c20.3,65.5,31.4,132.4,29.6,201.1
	c-0.5,19.3,4.5,35.3,16,51.3c51.3,71.5,74.4,150.2,55.5,238.3c-4,18.7-0.9,35.6,7.9,53.3c46.6,93.5,70.2,193.1,66.9,297.4
	c-1.4,43.3-11.2,86.7-20.5,129.4c-4.4,20.1-4.9,37.5,2.6,56.8c56.5,145.3,32.7,282.8-43.6,414.1c-9.9,17-16.8,30.1-5.7,50.3
	c45.7,83.7,64,175,68.6,269.2c4.9,101.7-3.7,203-14.4,303.9c-15.4,144.7-37.5,288.3-76.6,428.6c-12.3,44.3-27.7,88-44.3,131
	c-41.7,108.3-120.3,180.6-224.6,227.9c-105,47.6-214.9,76.4-329,89.5C2154,3722.9,2104.4,3724.9,2055,3728.5z M1193.3,2100.2
	c-1.6,3.3-2.5,6.8-4.7,9.3c-49.6,56.4-76.1,123.4-86.6,196.6c-12,84.2-5.4,167.9,13.3,250.9c10.9,48.3,21.8,96.8,15,147.1
	c-6.6,48.5-3.1,96.8,6,144.6c10.4,54.4,22.7,108.4,32.7,162.8c16.7,90.9,36.2,180.9,70.4,267.1c40.7,102.6,105,187.2,197.3,247.8
	c90.4,59.3,189.9,100.4,295,124.6c180.4,41.5,362.4,52.8,545.8,18.2c108.5-20.4,212.4-52.2,306.7-111.6
	c55.2-34.8,97.5-80.4,126.1-138.9c31.5-64.5,55.8-131.9,70.2-202c19-92.5,36.4-185.4,50.9-278.7c21.4-138.1,31.5-277.3,23.4-417.2
	c-5.4-94.2-22.2-185.6-78.4-265c-9.5-13.4-3.3-22.8,5.1-33.7c96.6-123.6,115.1-285.1,48.9-426.2c-5.8-12.3-8.1-23.3-2.3-36.2
	c28.6-62.8,32-129.2,27.2-196.6c-6.2-87.2-24.1-171.2-72.7-245.9c-9.3-14.3-6.3-27.4-2.8-42.6c19.9-84.6,6.2-162.7-49.9-230.8
	c-12.5-15.2-17.6-30.5-18.6-50.1c-2.1-42.5-4.1-85.4-11.6-127.2c-21.5-119.5-60.6-234.4-102.6-347.8c-25.5-69-56.7-136.2-89.7-202.1
	c-34.6-69-91.3-115.4-165.8-137.4c-30.8-9.1-62.6-15.6-94.4-20.6c-69.2-10.9-138-2.2-206.5,8.3c-132.5,20.3-242.7,78.2-332.8,180.3
	c-128.4,145.5-229.9,308.6-326,475.5c-44.5,77.3-71.3,160.3-48.4,251.8c3.8,15.1-2.3,25.9-14.2,36c-87.8,74.1-117,171.9-106.8,282.2
	c3.5,37.5-1.9,70-15.7,103.8c-39.8,97.4-71.7,197.5-87.7,301.6c-16.6,108.3,0.9,209.3,79.4,292.8
	C1190.7,2093.4,1191.7,2097,1193.3,2100.2z"/>
<path d="M1432,1126.8c-3.8-11.2-6-20-9.7-28c-26.3-56.7-26.5-114.2-2.6-171.2c14.3-33.9,29.1-68.2,48.6-99.3
	c64.3-102.6,128.7-205.2,197.2-305c35.1-51.1,77-97.9,119-143.7c64.3-70.2,146-111.9,238.6-131.5c81.8-17.3,163.8-23.1,247.2-7.4
	c87.7,16.5,148.7,63,185.4,144.1c62,137,111.9,278.1,150.4,423.4c7.4,27.9,13.5,56.1,19.3,84.3c8.7,42.1,12.3,84.5,3.7,127.1
	c-3.9,19.3-1.5,34.3,16.5,48.2c63.9,49.4,84.7,133.2,54.1,208.2c-2.6,6.4-5.1,12.9-8.6,18.9c-8.1,13.8-6.6,24.7,4.8,37
	c35.3,38.3,55.9,84.6,66.8,134.9c14.4,66.6,27.9,134.1,10.6,202c-8.2,32.1-22.3,62.7-34.8,93.5c-4.9,12.1-10.7,22.1-0.2,34.8
	c61.7,74.5,65.8,159.6,43.6,248.7c-18,72-47.5,137.4-111,182c-2.5,1.7-3.6,5.4-5.6,8.5c88.1,86.6,108.6,197.9,115.7,313.5
	c5.6,91.3-4,182.1-13.8,272.8c-13.6,126.2-27.6,252.4-61.6,375.2c-12.3,44.4-26.8,88.2-41.3,132c-31.6,96-97.4,159.8-188.6,200
	c-95.9,42.2-196,67-300,78c-138,14.6-274.4,3.5-408.8-28.9c-100.1-24.1-196.3-59.6-284.7-113.9c-65.7-40.4-114.7-95.3-149.6-163.9
	c-41.3-81.1-63.3-168.2-80.5-256.7c-14.6-74.7-28.6-149.5-40.5-224.7c-4.6-29.4-5.9-60-3.4-89.6c5.2-61.8-1.4-121.9-16-181.8
	c-18.8-76.9-25.3-154.8-13.6-233.4c12-81.1,46-149.4,117.1-195.4c4.8-3.1,9.9-5.9,17.9-10.5c-11.1-10.6-17.1-17-23.7-22.5
	c-87.7-72.1-124-163.2-104.1-276.2c17.9-101.5,45.8-200,87-294.5c16.6-38.1,22.6-76.3,16.3-117.9c-11.6-77.1,10.9-146.1,57.2-207.7
	C1367.8,1161.2,1396.6,1140.5,1432,1126.8z M1904.9,2222.9c9.9,1.9,22,5.2,34.3,6.4c60.8,6.1,121.5,13.8,182.5,17
	c139.7,7.4,279,4.9,416.7-25c106.8-23.3,168.9-89,187.8-195.9c4-22.6,5.1-45.8,6.4-68.7c3.2-56.4-14.4-104.4-59-141
	c-2.7-2.2-5.3-4.5-7.6-7c-14.6-15.7-15.8-24.7-3.9-42.8c5.7-8.6,12.9-16.2,19.3-24.4c23.3-30,37.1-63.9,37.7-102.1
	c0.4-27.6,1.9-55.8-2.3-82.9c-11.8-76.3-21.2-154.3-89.5-206.7c-14.4-11-16.3-27.4-7.9-43.9c7.3-14.4,15.8-28.2,22.7-42.8
	c27.4-57.8,15.2-108.2-35.3-147.2c-7.3-5.6-15.4-10.2-23.2-15.1c-25.5-16.3-31.4-26-20.3-54.4c17.7-45.4,15-90.4,5.3-136.1
	c-35.1-165.3-86.6-325.3-157.4-478.8c-12.4-27-29.2-52.4-47-76.3c-18.4-24.6-44-41.2-75.8-43.7c-48.8-3.9-96.7-0.6-142.5,19.3
	c-68.8,29.8-128,73.1-179.7,126.9c-117.1,121.5-209.2,260.6-285.7,410.3c-24.1,47.2-45.4,95.9-65.3,145
	c-18.5,45.9-16.7,91.7,6.5,137.1c30.2,59.1,41.7,124.6,56.1,188.5c12.5,55.7-20.6,102.4-75.2,113.9c-26.4,5.6-52.8,3.6-77.4-9.9
	c-8.5-4.7-17.8-7.9-29.6-13c-4.2,16.3-7.6,28.3-10.4,40.5c-14.5,61.7-28,123.7-43.4,185.2c-12.9,51.4-30,101.8-41.7,153.5
	c-14.6,64.2-24.8,129.5-13.2,195.6c10.8,61.6,44.3,105.6,104.3,126.8c26.1,9.2,52.6,17.2,79,25.3c7.2,2.2,14.9,2.4,23.4,3.6
	c4-13.2,6.3-24.5,10.7-35c18.1-43.1,44.8-77.5,92.5-91.2c76.6-21.9,161.9,19.9,187.9,95.6
	C1894.5,2158.3,1897.9,2189.5,1904.9,2222.9z M1689.7,2293.6c42.2,9.3,48.1,16.3,38.9,51.5c-5.4,20.9-12.9,42.3-24.3,60.5
	c-32.5,52-92.5,68.1-148.5,43.2c-39.9-17.8-59.7-52.6-77.5-89.4c-5.7-11.7-11.4-23.5-17.5-36.1c-5.4,4.6-7.6,5.8-8.6,7.6
	c-2.8,5-5.1,10.3-7.4,15.6c-23.4,52.5-32,108.3-34,165.1c-5.9,168.4-6.9,336.9,6.5,505c6.7,83.9,18.3,167.3,42.5,248.5
	c30.9,103.2,90.2,180.7,193.9,219.3c9.9,3.7,19.4,10.8,32.9,6c-3.1-8.3-4.9-14.9-7.9-21c-29.5-61.3-35.8-126.2-27.6-192.5
	c7.1-57.8,39.6-100,94.3-117.5c110.9-35.6,207.2,12.7,239.7,118.4c27.7,90,16.2,175.5-39.5,253.4c-4.9,6.8-8.5,14.6-12.4,21.5
	c70.6,0,138.5,1.8,206.3-0.4c106.1-3.6,207-30.5,304.1-73.3c83.8-36.9,140.1-96.6,171.4-183.8c32.6-90.7,52.6-183.8,68.9-278.1
	c20.5-119.4,33.9-239.7,39.3-360.8c4-88,2.9-176-27.1-259.9c-11.8-33-30.9-64.2-50.7-93.5c-18.8-27.8-45.7-36.9-81.4-28.2
	c-160.9,39.3-324.9,37.7-488.7,29c-145.3-7.8-289-30-430.5-63.7c-53.4-12.7-90.9,13.7-129,41.7c-5,3.7-9.3,15.4-7.2,20.6
	c13.9,34.1,27.1,69,57.3,93.2c34,27.2,75.8,19.9,96.7-18.5c8.1-14.9,11.8-32.2,17-48.6C1683.5,2316.8,1686.4,2305,1689.7,2293.6z
	 M2047.8,311.8c-6-0.4-10.5-1.2-14.8-0.8c-8,0.8-16,2-23.9,3.8c-58.5,13.9-111.7,40.2-153.1,83.2c-50.3,52.2-97.4,107.7-142.9,164.2
	c-74,91.9-129.9,196-190.7,296.6c-20.8,34.3-36.4,71.9-53.3,108.5c-13.1,28.5-14.5,58.9-1.5,87.4c16.1,35.5,35.2,69.7,53.3,104.3
	c6.6,12.7,13.9,25.2,20.3,36.9c-21.7,21.5-39.4,16-58.7,3.1c-29-19.4-40.3-18.3-68.1,2.5c-5.5,4.1-10.8,8.7-15.4,13.8
	c-41.4,45.8-63.8,98.2-55.5,161.2c2,14.9,3.4,29.8,5.6,44.6c4.7,31.7,0.2,62-12.1,91.4c-6.7,15.9-12.7,32.2-19.7,48
	c-40.1,90.4-62.2,185.5-76.3,282.9c-10.1,70.1,15,126.6,64.4,174.2c7,6.8,15.8,11.6,27.2,19.8c0-11.9,0.3-18.6-0.1-25.2
	c-1.7-32.1-6-64.3-4.8-96.3c2.6-69.4,17.9-136.9,36.5-203.7c20.1-72.1,38.3-144.8,59.3-216.6c12.5-42.9,26.9-85.6,43.8-126.9
	c12.8-31.3,35.2-56.7,63.8-75.8c16.3-10.9,32.3-22.3,49.1-32.3c15.8-9.4,19.8-21.1,12-37.6c-7.3-15.7-12.7-32.3-21.1-47.4
	c-36.8-65.8-33.1-132.3-5.1-199.6c2.7-6.4,5.1-12.8,7.8-19.2c35.1-85.6,78.6-166.8,127.1-245.4c66.2-107.3,138.1-210.4,228.8-298.6
	C1965.7,377.4,2006.2,347,2047.8,311.8z M1510.6,2203.3c-45.7-18-86.8-35.4-128.8-49.9c-10.4-3.6-25.2-0.8-35.9,4
	c-35.8,15.9-62.2,43-81.3,77c-23,41.1-35.6,85.9-33.4,132.4c2.6,55,10.3,109.8,17.2,164.5c5.5,44.2,13.1,88.2,19.3,129
	c27.6,8.4,52.9,16.1,80.9,24.7c0-16.6-0.1-30.3,0-44c0.9-81.7,0.8-163.7,20-243.8c15.3-64,42.7-121.7,96.2-163.4
	C1478.2,2223.4,1493.2,2214.9,1510.6,2203.3z M1699.3,3326.6c-0.2,50.8,10.6,99,34.4,143.3c9.4,17.5,23.8,34.9,40.3,45.4
	c45.1,28.6,95.3,17.4,132.9-25.5c48.2-55,59.8-145.4,26.9-211.1c-36.2-72.5-112.6-99.2-183.9-64.4c-24.2,11.9-41,29.5-44.4,57.4
	C1703.3,3290.1,1701.4,3308.4,1699.3,3326.6z M1850.4,2217.5c11.5-59.7-22.6-114.8-78.4-134.8c-52.5-18.8-104,6.7-120.4,59.7
	c-8.6,27.9-3.9,37.2,24.9,44.6c28.9,7.5,58,14.8,87.4,20C1792,2211.9,1820.5,2214,1850.4,2217.5z M1401.9,3297.7
	c0.9-0.7,1.7-1.3,2.6-2c-12.5-67.7-27.7-135-36.7-203.2c-9.1-68.9-11.9-138.5-17.8-210.9c-22.5,8.3-41.5,15.3-63.8,23.5
	c6.6,34.9,11.7,67.7,19,100c17.4,77.5,29.5,156.6,63,229.7C1378.1,3256.4,1390.6,3276.7,1401.9,3297.7z M1526.4,1379.9
	c28.7,25.1,57,31.3,77.2,17c22.4-15.9,28.8-58.2,13.8-90.3C1581.2,1319.9,1541.1,1352.1,1526.4,1379.9z M1277.7,2849.4
	c46.1-15.2,66.3-45.8,56.6-82.5c-7.3-27.5-33.1-42.6-65.9-35.5c2.5,8.5,3,18.2,7.8,24.6c11.2,15,10.5,28.4,2.4,44.6
	C1271.6,2814.9,1269.3,2831.1,1277.7,2849.4z"/>
<path d="M1899.6,744.8c2.9-75.1,26.7-140.8,77.8-195.4c37.4-40.1,81.5-71,131.7-93.3c41.1-18.2,84-24,128.4-20
	c53.9,4.8,94.2,40.5,108,92.2c10.5,39.4,6.1,77.8-4.8,115.9c-27.2,94.6-82.7,168.9-163.5,224.4c-35,24.1-74.5,36.5-116.5,39.2
	c-85.9,5.7-146.4-44.1-158.6-129.5C1900.4,767,1900.4,755.4,1899.6,744.8z M1956.1,747.6c0,5.8-0.3,11.6,0,17.3
	c3.7,58.1,48.9,114.7,132.5,83.9c93.4-34.4,153.6-103.5,192.8-192.1c10.1-22.8,16.1-48.5,18.6-73.4c7.3-71-36.2-109.3-106-96.1
	c-1.1,0.2-2.2,0.6-3.4,0.9c-78.6,17.8-141.3,59.7-189.9,123.9C1970.3,652.4,1958.5,698.3,1956.1,747.6z"/>
<path d="M2263.9,1729.8c-0.6,40.1-7.5,77.2-24.1,112.2c-36.3,76.3-117.1,116.7-200.4,99.8c-146.6-29.7-251.2-176.4-226.6-323.9
	c20.2-121,104.4-177.5,227.8-161C2191.1,1476.9,2261.2,1608.3,2263.9,1729.8z M2064.9,1890.4c74.4,0.9,123.9-32.6,138.2-93.1
	c9.6-40.6,12.6-81.6,2.6-123c-21.7-89.8-73.9-149.3-166.5-168.5c-96-20-174.3,38.3-178.6,136.3c-4.3,96.4,37.7,171.2,118.5,223.4
	C2005.6,1882.6,2035.4,1891.6,2064.9,1890.4z"/>
<path d="M2261.7,1210.9c-0.3-38.7,30.8-68.8,70.7-68.5c33.4,0.2,64.9,32.3,65.7,66.9c0.9,38.1-33.4,70.3-74.3,69.7
	C2287.1,1278.6,2262.1,1251.1,2261.7,1210.9z"/>
<path d="M1850.8,1274.1c-33.4-0.1-59-28.8-59.4-66.8c-0.5-38.4,29-67.5,67.5-66.7c35.5,0.8,63.9,30.2,64.5,67
	C1923.9,1244.8,1891.8,1274.2,1850.8,1274.1z"/>
<path d="M2586.1,1883.5c-0.1,35.3-28.2,65.2-61.8,65.8c-35.8,0.6-66.4-29-67-64.7c-0.6-34.8,30.8-66.4,65.6-66
	C2555.8,1819.1,2586.1,1850.3,2586.1,1883.5z M2523.4,1854.9c-8.4,16.5-14.7,25.3-16.8,34.9c-0.6,2.8,10.5,11.5,16.3,11.7
	c11.4,0.4,19.8-7.6,17.3-19.7C2538.8,1874.5,2532.2,1868.3,2523.4,1854.9z"/>
<path d="M1650.4,1787.3c-0.4,37.5-29,65.9-65.7,65.2c-34-0.7-56.9-25-56.8-60.4c0.1-35.9,28.9-67.5,60.7-66.5
	C1622.5,1726.7,1650.7,1754.9,1650.4,1787.3z M1613.8,1787.9c-12.5-7.2-18.3-13.3-24.4-13.5c-11.1-0.4-16.6,8.4-15,18.6
	c0.8,5.2,9.1,14.1,10.8,13.4C1593.4,1803.1,1600.5,1797.1,1613.8,1787.9z"/>
<path d="M2093.1,1352.3c-45.8-2.4-80.1-24.2-92.5-61.5c-2.8-8.6-6-18.9-3.7-26.9c2.5-8.5,10.1-17.5,18-21.6
	c3-1.6,13.8,8.7,19.1,15.1c4.1,5.1,4.8,12.9,7.6,19.1c10.4,22.9,30,30.5,53.4,31.3c23.4,0.8,39.6-10,48.8-31.4
	c2.3-5.3,4.2-10.7,6.5-16c4.6-10.4,11.9-18.3,23.9-15c14.6,4,19.9,15.8,16.9,29.8c-7,32.9-27.4,55.6-57.9,68.2
	C2120.9,1348.7,2106.6,1349.5,2093.1,1352.3z"/>
<path d="M1880.2,1009.6c0.7,34.7-22.9,61.5-55.3,62.9c-37.3,1.6-65.7-24.1-66-59.7c-0.3-35,26.7-64.6,58.5-64.4
	C1850.5,948.7,1879.6,977,1880.2,1009.6z M1816.8,1036.3c9.4-11.3,17-17.6,20.1-25.6c1.1-2.9-7.6-13.5-13-14.5
	c-11.4-2.1-20.2,5.2-19.9,17.1C1804.2,1019.3,1810.4,1025.2,1816.8,1036.3z"/>
<path d="M2375.9,1007.8c0.5-33,26.7-60.2,58.2-60.4c34.9-0.3,62.7,26.3,62.4,60c-0.2,31.3-27.7,61.4-62.7,59.4
	C2399.4,1064.8,2375.4,1041.9,2375.9,1007.8z M2462.3,1011.7c-13.1-8.1-18.7-14-25.1-15c-10.4-1.7-18.4,4.3-16.2,15.6
	c0.9,4.7,8.5,11.5,12.7,11.3C2441.1,1023.2,2448.1,1018,2462.3,1011.7z"/>
<path d="M2200.2,2095c0.7,34.4-23.3,59.7-57.4,60.4c-35.6,0.7-59.5-20.2-60.1-52.5c-0.7-34.9,25.4-66.7,55.6-67.9
	C2172.9,2033.5,2199.5,2059.4,2200.2,2095z M2164.9,2096.9c-11-7.1-15.6-12.1-21.1-13.2c-10.7-2.1-18.3,4.2-17.8,14.7
	c0.2,4.2,8.6,11.8,12.5,11.3C2145.8,2108.8,2152.6,2103.2,2164.9,2096.9z"/>
<path d="M2425.1,1365.4c-14.8-2.9-30.1-3.7-43.7-9c-32.8-12.6-37.9-45.4-10.5-67.4c29.5-23.6,63-26.4,97.1-12
	c16.2,6.8,29.1,18.8,28.4,39.2c-0.7,20-13.1,36.3-34,42.4C2450.5,1362.1,2437.8,1363.2,2425.1,1365.4z M2395.1,1322.2
	c27.4,15.8,48.2,13.9,66.1-5.8C2435.4,1295.3,2414.7,1297.2,2395.1,1322.2z"/>
<path d="M1759.8,1364.2c-24.6-2.4-48.4-3.2-64.2-26.8c-9.6-14.4-10.1-26.4,1-40.4c28.8-36.4,90.1-40.6,122.7-7.8
	c20.4,20.5,12.5,56.7-16,67.2C1789.7,1361.4,1774.3,1361.7,1759.8,1364.2z M1800.8,1322c-21.2-29.1-46.3-22.9-71.6-17.9
	C1732,1334.8,1757.8,1341.9,1800.8,1322z"/>
<path d="M2541.7,3247.9c-2.8,45.1-18.5,82.1-48.9,113.6c-57.2,59.2-184.2,91.4-271.4,33c-61.2-41-94.2-126.7-73.8-197.5
	c28.4-98.7,137.8-168.5,238.8-151.8c62,10.3,105.3,46.7,128.9,103.3C2528.4,3179.8,2533.2,3214.7,2541.7,3247.9z M2340.7,3376.7
	c14.7-4,43.7-8.3,69.4-19.9c50.6-22.9,78.7-64,75.4-120.5c-1.4-24.6-8.4-50.3-18.7-72.8c-24.9-54.5-82.5-79.5-141.1-64.2
	c-67.3,17.5-108.3,61-127.8,127.3c-8.8,30-5,57.3,11.4,82.5C2236.8,3351.1,2275.6,3375.1,2340.7,3376.7z"/>
<path d="M2350.3,2769c-45.4-0.1-80.9-35.4-81.4-80.9c-0.5-47,35.9-85.3,81-85.3c44.1,0,84.5,42.4,84.1,88.3
	C2433.7,2735.7,2397.8,2769.1,2350.3,2769z"/>
<path d="M1715,2607.9c44.4,0,81.9,38.3,82.8,84.6c0.9,45.9-38,81.1-89,80.6c-39-0.4-76.3-42-75.5-84
	C1634.2,2644.5,1671.1,2607.9,1715,2607.9z"/>
<path d="M2031.5,2884.1c-65.3-5.3-113.4-39-127.1-93c-2.2-8.8-4.9-19-2.5-27.1c2.6-8.5,9.8-18.3,17.5-21.7
	c10.9-4.8,19.6,3.1,23.5,14.2c2.7,7.6,4.3,15.6,7,23.2c13,36.3,37.1,53,76.1,53c40.6,0,66-17.5,78.8-54.4c1.9-5.4,3.2-11.1,4.6-16.6
	c3.4-13.7,9.8-23.6,26.3-20.2c14.1,2.9,19.2,13.6,18,25.7c-4,37.9-15.6,73.7-51.3,92.9C2080.7,2871.6,2055.3,2876.3,2031.5,2884.1z"
	/>
<path d="M2468.6,2889.9c-18.8-4.6-38.3-7.2-56.1-14.3c-21.8-8.7-34-26.5-34.2-51.1c-0.2-23.9,16.7-33.9,35-42
	c42.6-18.8,84.6-18.5,125.6,5c34.4,19.7,38.2,52.5,8.4,78.5C2525,2885.6,2497.1,2886.4,2468.6,2889.9z M2470.2,2857.4
	c17.6-4.4,35-6.4,50.3-13.3c18.2-8.2,17.8-23.5,1.4-33.8c-22.3-14-78.6-11.4-99.2,4.5c-13,10-13.3,22.5,1.7,29.4
	C2438.6,2850.8,2454.7,2853.1,2470.2,2857.4z"/>
<path d="M1595.3,2890.6c-19.5-4.8-39.7-6.3-56.6-14.7c-40-20-41-65-2.2-86.4c42.4-23.4,86.2-20.5,128.8,0.6
	c14.9,7.4,26.9,18.7,26,37.3c-1,20.8-8.5,39.7-29.1,46.9C1641,2881.9,1618.2,2885.3,1595.3,2890.6z M1603.7,2801.7
	c-16.1,2.6-26.4,3.6-36.3,6.2c-11.2,2.9-25.4,7.5-22.7,20.9c1.8,9,12.5,19.1,21.7,23.1c25.4,11.1,52,6.9,77.2-2.3
	c17.6-6.5,19.8-25.2,3.4-34.1C1632.5,2807.4,1615,2805,1603.7,2801.7z"/>
<path d="M2538.6,2472.5c-34.9,0.3-60.2-25.8-59.8-61.6c0.4-34.8,27.9-63.1,60.6-62.4c33.3,0.7,60.3,29,60.5,63.1
	C2600.1,2446.4,2574.2,2472.2,2538.6,2472.5z M2535.1,2390.6c-13.4,24.7-14,36.7-2.2,39c6.7,1.3,18.8-3.4,21.6-9
	C2562.8,2404.1,2550.9,2396.7,2535.1,2390.6z"/>
<path d="M1885.4,2451.8c-0.3-34.9,23.4-60.8,55.7-60.7c34.7,0.1,61.1,25.6,62.1,60.1c1,35.9-23.7,63.8-57,64.4
	C1910,2516.2,1885.7,2490.8,1885.4,2451.8z M1941,2473.1c8.2-7,16.1-11.4,19.8-18.1c1.3-2.3-7-13.8-12.4-15
	c-11.1-2.6-20.3,3.9-20.1,16.2C1928.5,2460.9,1935.1,2465.6,1941,2473.1z"/>
<path d="M2013.4,3060.4c-35.7,0.5-57.6-21.5-57.6-58c0-33.3,25.8-60.9,57.2-61.2c32.5-0.4,60.6,26.5,60.7,58
	C2073.8,3034.4,2048.7,3059.9,2013.4,3060.4z M2039.3,3004.2c-11.5-9.4-16.9-16.9-23.7-18.7c-10.2-2.7-17,4.2-17.9,14.9
	c-0.9,10.2,2.7,19.1,14.4,17.5C2019.4,3016.9,2026,3011.1,2039.3,3004.2z"/>
<path d="M1557.2,3016.7c34.6,0.8,56.3,23.1,55.1,56.5c-1.2,33.4-24.4,56.2-57,56c-33-0.2-55.6-23.6-55.4-57.1
	C1500.1,3039.7,1524.7,3016,1557.2,3016.7z M1573.3,3071c-7.5-4.5-12.9-10.1-15.9-9c-4.8,1.7-8.1,7.8-12,12
	c3.8,3.3,8.2,9.8,11.2,9.2C1561.8,3082.2,1566,3076.8,1573.3,3071z"/>
<path d="M1788.4,3330.3c21.3,1.6,35.9,18.3,34.2,39.2c-1.8,21.6-16,34.2-36.1,32.1c-20.6-2.2-36.3-19.9-35.1-39.5
	C1752.6,3342.1,1768.1,3328.8,1788.4,3330.3z"/>
<path d="M1845.6,3302.1c-20.9-0.2-36.5-16.6-35.4-37.4c0.9-18.4,14.3-31.2,33.4-31.8c21.1-0.7,37.1,14.8,37.1,35.9
	C1880.6,3289.1,1866.6,3302.4,1845.6,3302.1z"/>
<path d="M1915.3,3393.5c-0.1,20.3-13.2,35.5-30.1,34.7c-15.5-0.7-29.5-15.8-30-32.2c-0.6-18.9,12.8-35.7,29.2-36.4
	C1901.7,3358.7,1915.3,3373.7,1915.3,3393.5z"/>
<path d="M1807.2,3444.1c19.3,0.6,36.4,17.5,35.5,35.1c-0.7,14.8-14.5,27.8-29.7,28.1c-16.7,0.3-35.5-21.5-34.8-40.6
	C1778.6,3452.5,1790,3443.6,1807.2,3444.1z"/>
<path d="M1824.6,2165.3c0.6,17.6-7.8,28.5-21.9,28.4c-16.6-0.1-32-14.4-31.7-29.6c0.2-13.6,15-29.1,28.5-29.8
	C1812.8,2133.5,1824,2147.3,1824.6,2165.3z"/>
<path d="M2204.6,556.5c-0.8-21.9,10.9-36.3,30.5-37.8c18.9-1.5,36.9,13.3,38.1,31.3c1.4,21-15.9,41.3-36.1,42.4
	C2218.6,593.4,2205.3,578.7,2204.6,556.5z"/>
<path d="M2163.2,611.5c0.5,19.9-14,37.5-31.7,38.5c-19.9,1.1-35-12.7-36.3-33.2c-1.4-21.6,14-38.4,34.9-38.1
	C2148.3,579,2162.7,593.3,2163.2,611.5z"/>
<path d="M2143.9,770.6c-1.4,19.2-16.5,32.8-34,30.7c-16.4-2-33.5-20-32.8-34.7c0.8-18.9,21.3-36.4,40.3-34.3
	C2133.5,734.1,2145.3,751.2,2143.9,770.6z"/>
<path d="M2036.7,692.8c-21.9,0-33.3-11.9-33-34.4c0.2-20.7,11.5-33.4,30.5-34.1c19.6-0.8,35.6,14.1,36,33.3
	C2070.4,677.5,2056,692.8,2036.7,692.8z"/>
<path d="M2238.4,669.4c-0.7,18.6-12.8,30.2-30.8,29.5c-18.3-0.7-29.8-13.1-28.9-31.3c0.8-17.1,14.9-31,31.1-30.7
	C2226.2,637.1,2239.1,651.8,2238.4,669.4z"/>
<path d="M1982.4,770.5c-0.6-19.9,9.6-32.7,26.7-33.5c18.4-0.8,32.3,13,32.6,32.4c0.3,19.2-13,33.3-31.5,33.6
	C1993.7,803.3,1983,790.7,1982.4,770.5z"/>
<path d="M1962.8,1598.3c-0.6-23.6,14.5-40.9,36.2-41.8c24.6-1,41.6,14.6,42.9,39.2c1.3,25.1-14.4,48.4-33.2,49.4
	C1985.5,1646.3,1963.4,1623.8,1962.8,1598.3z"/>
<path d="M1955.5,1759.2c-23.2-0.4-39-15.8-38.9-38c0.1-21.6,22.5-40.9,46.7-40.2c23.9,0.8,40.7,18.5,39.6,42
	C2001.8,1748.6,1987.2,1759.7,1955.5,1759.2z"/>
<path d="M2114.9,1702.6c-22.2,0.5-31.6-7.5-31.2-26.7c0.4-23.8,14.2-41,32.7-41.1c17.6,0,34.3,17.1,35,35.9
	C2152.1,1690,2138.2,1702.1,2114.9,1702.6z"/>
<path d="M2087,1783.5c-0.3,20.1-12.8,32-33,31.4c-18.4-0.5-30.2-14.1-30.1-34.7c0.1-19.3,13.6-34.2,31.3-34.5
	C2073.4,1745.4,2087.3,1762,2087,1783.5z"/>
<path d="M2114.2,1807.6c1.2-19.6,15.4-31.4,34.9-29.2c16.5,1.8,28.5,14.5,27.9,29.4c-0.8,19.4-17.7,37.7-34.4,37
	C2126.8,1844.3,2113,1826.2,2114.2,1807.6z"/>
<path d="M2450.2,3225.8c-0.4,20.5-15.4,36.2-33.9,35.6c-17-0.6-31.6-18.8-31.1-38.8c0.5-19.4,17.3-37.3,34.1-36.2
	C2436.4,3187.6,2450.6,3205.7,2450.2,3225.8z"/>
<path d="M2276.3,3231.8c21.2,13.3,36.8,28.2,31.3,53.7c-3.2,14.7-14.3,23-29.9,23.7c-17.9,0.9-27.3-10.7-33.3-24.9
	C2237.3,3267.7,2247.8,3250.9,2276.3,3231.8z"/>
<path d="M2360.5,3158.7c-1.9,22.1-18,35.6-39.3,33c-17-2.1-29.7-16-29.1-32.2c0.6-19.5,18.9-35.9,39.2-35.3
	C2350.1,3124.9,2362.2,3139.1,2360.5,3158.7z"/>
<path d="M2357.3,3280.6c20.2,0.3,35.7,15.7,35.1,34.9c-0.5,16.6-14.8,29.4-32.3,29c-16.9-0.4-30-16-29.9-35.7
	C2330.3,3290.5,2340,3280.4,2357.3,3280.6z"/>
<path d="M2245.4,3201.4c7.2,4.8,14.5,9.6,27.6,18.3C2252.1,3224.2,2242,3224.2,2245.4,3201.4z"/>
</svg>
