<?xml version="1.0" encoding="utf-8"?>
<!-- Generator: Adobe Illustrator 24.3.0, SVG Export Plug-In . SVG Version: 6.00 Build 0)  -->
<svg version="1.1" id="Layer_1" xmlns="http://www.w3.org/2000/svg" xmlns:xlink="http://www.w3.org/1999/xlink" x="0px" y="0px"
	 viewBox="0 0 4000 4000" style="enable-background:new 0 0 4000 4000;" xml:space="preserve">
<path d="M2002.3,169.3c172.2,1.3,342.7,18.3,509.9,60.9c213.6,54.3,410.2,146.2,590.7,272.1c149.4,104.3,283.5,224.8,394.6,370.4
	c135.8,178.1,228.8,376,280.3,593.5c49.5,209.2,64,421.5,48.6,635.8c-18.5,258.3-87.7,501.8-217.4,726.7
	c-96.4,167.3-222.7,309-375.4,427.1c-206.2,159.5-435.2,274.5-686.6,341.9c-226.9,60.8-458.1,87.5-693.8,71.4
	c-162.4-11.1-322-35.2-477.8-82.6c-368.9-112.2-676.5-315.8-913.3-621.1c-167.9-216.4-266.7-463.1-306.5-734
	c-21.1-143.5-24.9-287.5-11.9-431.5c29.6-325.9,132.5-626.2,325-892.4c189.1-261.6,437.7-448.6,733.7-574.9
	c133.2-56.8,270.6-98.9,412.5-126.2C1742.9,181.6,1872,167.8,2002.3,169.3z M1972.9,3614.1c131.3-0.7,261.8-12.2,390.9-36.4
	c252.2-47.3,487.6-137.1,703.1-277.8c160.1-104.6,301.9-228.6,415.5-383.4c181.1-246.7,268.4-526,288.8-828.7
	c11.6-172.2-0.8-342.8-29.7-512.8c-48.7-286.1-170.7-536.5-363.6-752.6c-123.2-138.1-266.6-251.6-425.3-346.4
	c-205.6-122.8-427.8-197.7-664.4-228.8c-193.5-25.4-387.2-24.4-580.8,5c-320.7,48.7-613.2,164.5-871.2,362.8
	c-188,144.5-338.9,320.9-447.7,531.9c-125.6,243.6-187.7,503.4-194,777.1c-5,218.1,27.6,430,105.3,634.3
	c89.2,234.4,234,430,419.7,596.5c156.9,140.6,333.7,249.7,530,326C1481.9,3571.1,1723.5,3614.4,1972.9,3614.1z"/>
<path d="M1982.6,1347c297,0.5,548.4,210.5,553.4,544.2c4.5,300.4-214.1,555.2-548.7,556.2c-333.8,1-550.2-266.2-549.2-549.2
	C1439.2,1564,1693.9,1346,1982.6,1347z M2478.2,1897.2c-0.4-251.3-184-485.2-487.4-489.5c-285.6-4-492.2,212.2-495.1,483.8
	c-2.7,255.2,193.2,497,488.5,497.1C2262.5,2388.8,2478.8,2173.9,2478.2,1897.2z"/>
<path d="M1567.3,2628.2c0.5,85.6-63.9,157.7-142.1,158.8c-83.3,1.2-155.3-68.2-155.4-149.7c-0.1-88.5,61-155.1,143-155.9
	C1495,2480.7,1566.8,2548.9,1567.3,2628.2z M1503.4,2594.4c-0.3-31.8-20.5-55.5-47.8-56c-32.4-0.6-57.8,23.1-58.3,54.5
	c-0.6,31.6,21.6,52.8,54.4,52.1C1483.6,2644.4,1503.6,2624.8,1503.4,2594.4z"/>
<path d="M2570.7,2779.2c29.3-1.7,62.7,5.3,94.8,19.3c6.5,2.8,13.1,5.7,19.2,9.3c25.9,15.2,46.4,35.3,45.2,67.4
	c-1.2,32.2-18.4,55.6-47.5,70.1c-50.7,25.4-104.8,31.5-159.7,23.5c-30.1-4.4-60.9-12.6-88.2-25.7c-57.9-27.9-61.8-91.7-9-128.4
	C2467.1,2785.8,2515.3,2779,2570.7,2779.2z M2553.5,2925.4c0.1-1.1,0.2-2.1,0.2-3.2c14.3,0,28.6,1.1,42.8-0.2
	c27.4-2.7,54-9,76.6-26.1c18.5-14,18.9-24.3,1.9-40.5c-4.3-4.1-9-8.1-14.3-10.6c-69.1-32.2-138.3-32.5-205.2,4.5
	c-33.7,18.6-31,41.7,4,59.4c7.3,3.7,15.4,6.7,23.5,7.9C2506.4,2920.1,2530,2922.6,2553.5,2925.4z"/>
<path d="M1309.5,2973.3c-38.5,0.3-76.2-4.7-111.2-21.2c-15.8-7.4-31.7-17.4-43.6-29.9c-26-27.2-24.6-66.8,3.4-92.4
	c13.6-12.5,30.9-22.3,48.2-29.2c70.6-28,141.7-24.7,212.4,0.4c10,3.5,19.6,8.7,28.6,14.4c52.8,32.9,51.1,95-4.1,126.2
	C1402,2964.9,1356.8,2974.3,1309.5,2973.3z M1319.2,2929.1c0.2-1.2,0.3-2.4,0.5-3.5c14.2-1,28.5-1.6,42.7-3.2
	c26.5-2.9,50.9-11.8,71.6-29c13.8-11.5,14.6-20.7,1.5-32.5c-9.5-8.6-20.8-17.7-32.8-20.6c-30.9-7.5-62.7-16.3-94.1-16.2
	c-37.6,0-76.1,6.2-108.5,29.2c-25.6,18.2-25,35.5,1.8,52.1c7.9,4.9,17.1,8.9,26.2,10.5C1258.3,2920.9,1288.8,2924.7,1319.2,2929.1z"
	/>
<path d="M2400.3,2619.6c12.4,3,24.7,6.3,37.1,9c38.9,8.4,74.1,25.1,106.5,47.9c5.8,4.1,11.5,8.7,15.9,14.2
	c9.7,12.4,10.2,36.9-1.1,42c-8.8,4-23.1,2.2-32.4-2.3c-22.4-10.8-42.5-26.3-64.8-37.1c-51-24.6-105.5-26.3-160.5-19.9
	c-13.2,1.5-26.7,6.1-33.7-10.1c-6.4-14.7-2.7-28.2,8.5-39.1c8.5-8.2,17.6-16.1,27.4-22.7c64.6-43.7,134.8-74.8,211-91.9
	c9.2-2.1,18.8-2.5,28.3-2.6c16-0.2,23.8,10.1,25.7,24.3c1.8,13.6-5.4,21.7-18.8,26.1c-42.9,14-85.5,28.6-128.1,43.3
	c-7.4,2.6-14.2,7.1-21.3,10.7C2400,2614.1,2400.1,2616.8,2400.3,2619.6z"/>
<path d="M1940.2,2955.3c-103.1,0-181-71-189.1-168c-0.6-7.1-0.6-14.3-0.5-21.4c0.1-11.2,6.2-19.6,16.8-19c8.1,0.5,18.4,5.2,23,11.5
	c5.2,7,5.2,17.9,7.5,27.1c7.7,30.4,19.5,58.4,42.1,81.5c73.4,75.4,200.6,35.8,225.5-55.2c4.1-14.9,6.4-30.3,9.8-45.4
	c3.1-13.8,8.2-25.4,25.9-22.6c15.5,2.5,25,13.4,23.4,30.4c-9.7,104-84.3,176.3-160.4,178.6
	C1954.7,2953.1,1945.2,2954.7,1940.2,2955.3z"/>
<path d="M3256.7,1331.9c-41.7,0.2-67.9-26.8-67.8-70c0.1-39.8,30.1-71.7,68-72.2c41.2-0.6,74.5,30.5,74.9,69.7
	C3332.1,1302.4,3301.8,1331.7,3256.7,1331.9z M3285.3,1262.3c-12.8-9-19.7-17.3-24.3-16.2c-7.4,1.8-14.3,9.1-19.1,15.7
	c-1.1,1.6,7.5,14.4,10.3,14C3261.2,1274.4,3269.6,1269.2,3285.3,1262.3z"/>
<path d="M3159,1058.6c-40-0.2-70.1-29.8-70.4-69.3c-0.3-36.1,33.9-69.6,71.4-69.9c38.8-0.4,74.1,33.7,73.9,71.4
	C3233.6,1031.8,3203.7,1058.8,3159,1058.6z M3160.2,967.9c-8.7,9.8-13.6,15.4-18.5,21.1c6.6,5.3,12.6,13.4,19.9,14.8
	c4.6,0.8,16.2-9.5,15.5-13.2C3175.9,983.5,3168,977.7,3160.2,967.9z"/>
<path d="M2395.3,336.7c41.5,0.3,72.8,30.9,73,71.1c0.1,40.7-32.2,69.1-78.4,68.9c-39.9-0.1-68.4-27.6-68.4-65.8
	C2321.4,368.4,2353.3,336.4,2395.3,336.7z M2418.6,405.1c-5.1-3.7-11.3-11.6-18.8-13.1c-10.6-2.1-22.2,1.7-24,15.1
	c-1.6,11.9,6.7,17.2,17.4,17.6C2403.9,425.1,2415,424.6,2418.6,405.1z"/>
<path d="M2050.6,381.3c43.2,0.9,75.5,32.7,74.8,73.9c-0.7,38.8-30.1,66.9-68.8,65.9c-41-1.1-73.4-32.9-73.4-71.9
	C1983.2,411.5,2013.9,380.5,2050.6,381.3z M2063.3,467.3c2.1-3.1,10.6-11.8,9.1-14.2c-4.2-6.6-12-11.8-19.5-14.7
	c-2.1-0.8-11.2,8-11.6,12.8C2040.4,461.6,2046.4,468.6,2063.3,467.3z"/>
<path d="M1316.7,889c0.1,43.3-27.8,71.4-71.4,71.9c-42.3,0.5-72.2-27.6-71.5-67.4c0.6-38.3,32.6-71,70.3-71.8
	C1284.1,820.8,1316.7,850.9,1316.7,889z M1275.9,891.2c-13.2-8.3-19.9-15.9-24.7-14.8c-7.5,1.7-13.6,9.3-20.3,14.4
	c4.5,5.6,9.6,16.1,13.5,15.7C1252.8,905.7,1260.6,899.2,1275.9,891.2z"/>
<path d="M1573.6,668.1c-0.5,45.4-29,73.3-73.8,72.3c-39.5-0.9-69-32.2-67.6-71.6c1.5-40,34.8-70.8,75.2-69.4
	C1546.4,600.6,1574,629.2,1573.6,668.1z M1479,669.9c10.7,8.7,15.8,15.8,22.2,17.4c11.7,2.9,25.2-9.4,22.1-20.1
	c-1.7-6-11-14.7-15.4-13.9C1499.3,654.8,1491.7,662.1,1479,669.9z"/>
<path d="M2401.8,753.9c-46,0.4-76.2-27.6-76.1-70.6c0.1-37.7,29.8-69.1,66.3-70.1c42.4-1.1,78.8,33.8,78.3,75.1
	C2469.8,727.7,2442.8,753.5,2401.8,753.9z M2425.1,685.1c-12.2-8.5-19.5-16-28.2-18.4c-3.5-1-14,9.1-14.4,14.6
	c-0.9,11.4,6.4,21.5,19.2,20.1C2408.1,700.7,2413.9,693.2,2425.1,685.1z"/>
<path d="M2821,1055.4c-39.5-0.1-72.1-33.3-71.6-73c0.4-36.3,32.7-70,67-70.1c37.2-0.1,73.3,38.2,73.5,77.9
	C2890.2,1028.5,2861.6,1055.6,2821,1055.4z M2820.3,970c-3.5-1.4-7-2.9-10.5-4.3c-2.8,6.2-9.3,13.6-7.6,18.2
	c2.6,7.3,9.8,13.8,16.8,18c2,1.2,14.4-8.3,13.7-10.8C2830.6,983.6,2824.7,977,2820.3,970z"/>
<path d="M899.1,817.7c38.4-0.9,71.5,30.3,72.5,68.3c1.1,42.1-28.3,72.4-70.5,72.9c-40,0.4-68.7-26.3-70.2-65.2
	C829.3,852.1,859.3,818.6,899.1,817.7z M905.4,863.9c-9.4,11.8-17.3,17.7-19.1,25.1c-2.8,10.9,5.2,19.7,16,17.4
	c7.4-1.5,16.9-9.6,18.6-16.4C922.2,884.5,913.3,876.5,905.4,863.9z"/>
<path d="M1717.5,505.8c-42.2-0.7-66.2-25.9-65-68.1c1.1-41.2,33-72.1,73.6-71.2c37.4,0.8,68.4,32,68.3,68.7
	C1794.3,478.5,1763.7,506.6,1717.5,505.8z M1752.4,444c-11.7-11.8-16.9-21.5-24.1-23.2c-11.3-2.7-21.7,5-21.6,17.2
	c0.1,5.2,9.1,13.6,15,14.5C1729.1,453.7,1737.4,448.6,1752.4,444z"/>
<path d="M1150.7,593.4c0.3-44.8,30.7-77.5,71.1-76.8c38.6,0.7,66.3,29.6,66,68.9c-0.3,42.3-32.8,74.4-74.9,73.9
	C1173.2,659,1150.4,634.8,1150.7,593.4z M1241.8,590c-8.9-7.6-13.1-14.2-18.2-15c-11.4-1.8-21.9,3.3-21.6,16
	c0.2,5.8,10,16.7,12.6,16C1223.2,604.5,1230.5,597.6,1241.8,590z"/>
<path d="M2744.3,740.7c-43-0.6-71.1-27.2-71.2-67.4c-0.1-39.4,30.2-69.9,69.6-70c42.8-0.1,76.7,32.6,75.5,72.9
	C2817,715.7,2787.7,741.2,2744.3,740.7z M2747.2,696.5c7.7-10.7,15.6-17.1,16.2-24.2c0.4-4.2-9.9-12.4-16.4-13.6
	c-10.8-2-18.7,5.9-17.2,16.6C2730.8,681.5,2738.7,686.6,2747.2,696.5z"/>
<path d="M1925.9,702.2c0.2,40.9-32.6,71.8-76.3,71.8c-35.3,0.1-63-29.3-63.5-67.3c-0.5-38.7,33.2-74.2,70.7-74.7
	C1895.6,631.6,1925.7,662.2,1925.9,702.2z M1881.9,704.4c-10.6-7.9-16.8-15.5-20-14.4c-7.7,2.7-14.9,8.8-20,15.2
	c-1.2,1.5,8.1,15.2,10.1,14.6C1860.8,717.4,1868.7,711.7,1881.9,704.4z"/>
<path d="M534.7,1507.1c-39.4-0.1-63.6-25.2-63.3-65.6c0.3-39.5,34-78,68.5-78.4c37.3-0.4,68.2,32.4,68.1,72.4
	C608,1475.1,575.1,1507.1,534.7,1507.1z M533.2,1453.3c14.2-2.1,25.2-8.3,21.7-26.4c-0.7-3.4-10-8.7-13.1-7.4
	c-13.5,5.2-20.4,15-12.9,30.1C529.2,1450.5,530.5,1451,533.2,1453.3z"/>
<path d="M793.7,1239.7c-39.6,0.1-65.3-24.5-66-63.1c-0.7-41.8,32.4-76.7,72.2-76.3c37,0.4,66.5,31,66.5,68.8
	C866.3,1209.8,835.7,1239.5,793.7,1239.7z M821.8,1168.7c-10.4-6.4-18.2-13.5-20.2-12.2c-7.8,5.5-13.8,13.5-20.4,20.7
	c4.7,4,11.4,12.4,13.8,11.3C803.4,1184.7,810.4,1177.6,821.8,1168.7z"/>
<path d="M1143.3,1254.4c-37.8-0.5-67.2-32.8-66.5-73.1c0.7-38.2,31.2-69,67.4-68.1c39,1,70.6,32.2,70.9,70.1
	C1215.4,1225.5,1185.6,1255,1143.3,1254.4z M1131.8,1198.8c14.8-1.8,30.8,3.4,31.1-16.2c0.1-5.7-11.9-17-17.1-16.3
	C1130.5,1168.2,1126.2,1179.9,1131.8,1198.8z"/>
</svg>
