<?xml version="1.0" encoding="utf-8"?>
<!-- Generator: Adobe Illustrator 24.3.0, SVG Export Plug-In . SVG Version: 6.00 Build 0)  -->
<svg version="1.1" id="Layer_1" xmlns="http://www.w3.org/2000/svg" xmlns:xlink="http://www.w3.org/1999/xlink" x="0px" y="0px"
	 viewBox="0 0 4000 4000" style="enable-background:new 0 0 4000 4000;" xml:space="preserve">
<path d="M254,2118.8c-11.4-19.9-23.6-36.9-31.3-55.7c-19.1-46.7-11.5-93.3,6-138.8c21.6-56,58.4-101.4,103.5-139.4
	c22.9-19.2,26.7-37,20.3-66.1c-53.3-242,93.2-488.2,334.4-563.4c40.5-12.6,82.6-20.6,124.3-29c24.8-5,44.6-14.7,61.8-34.6
	c72.6-83.8,169.4-124.6,274.6-148.7c30.8-7,62.3-11,93.4-16.6c9.4-1.7,18.8-4.2,29-6.5c5.2-27.2,9.5-53.5,15.4-79.4
	c30.2-133.3,121.3-203.1,247.8-234.2c30.5-7.5,62.4-10,93.8-13.2c12.6-1.3,20-6,24.8-17.4c6.1-14.6,12.3-29.2,20.2-42.9
	c38.6-67.2,100.1-102.2,173.3-116.5c64.4-12.6,129.8-20.2,194.8-29.8c46.2-6.8,90.4-18.8,130.7-43.5c49-30,77.9-72.3,82.9-130.1
	c1.4-15.8,2.3-31.7,5.3-47.2c4.2-22,18-32,39.7-26c17.3,4.8,34.2,13,49.3,22.8c74.9,48.3,128.9,114.5,163.1,196.5
	c11.2,26.9,20.7,54.7,28.3,82.8c5.5,20.4,15.3,29.3,36.9,32.9c81.5,13.6,153.2,48.9,210.9,108.2c80.3,82.5,120,181.8,115.2,297.7
	c-0.5,13.2-1.3,26.4-2.1,41.7c11.6,2.2,20.8,4.1,30.2,5.6c105,16.2,198.5,56.8,275.1,131.8c14.7,14.4,28.8,30.4,39.1,48
	c16.7,28.6,40.2,36.8,72.1,40c46.9,4.7,94.2,12.9,139.2,26.7c114.5,35.1,186,115.6,225.7,226.5c37.8,105.4,39.6,212.3,10.5,319.7
	c-5.1,18.7-2.9,31.8,9.9,46.2c39.3,44.4,67.1,95.3,83.5,152.5c11.2,39.3,16.3,79.5,7.7,119.2c-5.5,25.5-15.7,51.6-30.1,73.2
	c-29,43.3-31.5,91.2-0.5,134c7.9,10.8,17.1,20.6,25.7,30.9c66.2,80.1,81.3,169.3,46.8,266.9c-7.7,21.8-15.9,43.5-25.8,64.4
	c-11.1,23.3-6.4,42.1,11.3,59.4c6.1,5.9,11.7,12.4,17.2,18.9c62.9,73.1,71.2,152.1,24,236.4c-10.7,19-23,37.4-36.5,54.5
	c-13.4,17-16.5,31.9-7.9,53.3c32.8,81.1,18.6,157.3-38.9,221.2c-57.8,64.3-123.6,121.6-198.5,165.5c-95.8,56-201.1,79.6-311.8,75.3
	c-30.2-1.2-52.2,6.7-73.8,29.3c-65.2,68.4-150.3,97.2-241.2,110.1c-92.6,13-184.7,5.7-276.1-12.5c-19.1-3.8-38.8-5-57.5-10.3
	c-36.1-10.3-66.6-0.1-96.2,20.2c-125.6,86.3-262.7,90.9-402.3,47.9c-58.2-17.9-111.2-23.1-170.1-5.5
	c-63.1,18.9-129.7,20.9-195.7,18.7c-113.5-3.7-225.9-14.9-335.2-48.3c-42.5-13-80.9-33.2-117.3-58.2c-12.1-8.3-24.6-15.9-36.4-24.5
	c-21.7-15.9-44.6-20.6-72-17.8c-88.4,8.8-177,16.2-266,3.7c-80.5-11.3-156.8-34.1-227.1-75.5c-52.5-30.9-93.9-73.6-126.9-124.1
	c-17.4-26.7-40.6-38.5-72-43c-62.5-9.1-126.2-16.1-184.1-43.5c-31.7-14.9-64-31.5-90.4-53.9c-75.5-64.2-98.8-147.6-78.6-243.7
	c4.3-20.2,9.6-40.3,15.8-60c6-19.2,3.1-35.8-9.4-51.3c-8.4-10.4-16.3-21.3-24.2-32.1c-72.7-98.8-72.3-223.6,6.8-317.3
	c29.7-35.2,42.9-64.3,23.8-109.8c-20.1-47.9-13.4-99.2,10-145.4c18-35.6,41.6-68.4,63.1-102.3C241.3,2134.6,248.3,2126.3,254,2118.8
	z M3677.5,2143.7c-13.2-5.2-24.5-9.6-35.8-14c-66.9-26.6-68.7-27-114.5,27.1c-31.1,36.7-68.9,56.8-116.9,58
	c-9.7,0.3-19.3,2.3-29,3.3c-43.7,4.7-70.5,30-85.1,69.9c-17.5,47.7-24.4,96.9-16.6,147.3c8.6,55.3,20,110.2,28.2,165.5
	c5.9,40.4,0.5,80.4-14.5,118.5c-22.5,57-62.4,91.9-125.6,95.9c-65.1,4.1-113.1-23.6-144.5-79.9c-16.2-29.1-26.3-60.8-24.7-94.4
	c2.6-54.7,6.2-109.3,11.4-163.8c3.8-39.5,1.2-77.9-11.8-115.3c-20.3-58.4-70.6-88.6-131.5-79c-25.2,4-50.4,9-75.1,15.3
	c-51.5,13.2-103.2,18-155.4,5.5c-84.3-20.1-153.5,4.3-209.7,69.2c-12.7,14.7-26.5,28.7-40.7,41.9c-17.8,16.5-35.5,33.7-55.4,47.6
	c-101.1,70.7-218.3,65-301.5-23c-27.6-29.2-54.4-59.4-84-86.4c-83-75.4-196.8-87.7-295.1-33.9c-42.1,23-76.8,55.2-112.6,86.6
	c-29.9,26.2-62.6,50.6-97.5,69.5c-46,24.9-96.7,23.8-145.7,7.1c-36.4-12.4-67.2-34.5-89.7-66.4c-19.7-27.8-38-56.7-58.1-84.1
	c-43.1-58.7-101-81.1-172.8-68.2c-71.7,12.9-127.4,52.7-176.2,103.9c-18.2,19.1-27.5,43.1-29.2,69.5c-1.4,21.9,0,44-2.7,65.7
	c-4.3,33.6-6.3,68.7-17.9,99.9c-31.6,84.9-129.5,106.5-197.3,46.3c-32.8-29.1-48.1-66.3-51.4-109.4c-3.9-49.8,11.5-96.2,23.3-143.4
	c9.1-36.5,18.4-73.3,23.4-110.5c6.5-48.7-6.9-94.5-32.4-136c-24.4-39.7-50.7-49.7-95.9-38c-30.6,7.9-61.3,15.9-91,26.4
	c-11.7,4.1-24.1,13.2-30.9,23.5c-20.9,31.4-39.8,64.1-58.5,96.9c-22.7,39.9-31.1,81.6-12.4,126c4.7,11.2,6.5,23.6,11.1,34.8
	c9.2,22.4,5.6,43.4-7.1,62.6c-12.7,19.3-27.2,37.3-41.1,55.8c-60.9,81-62.7,159.7-5,242.8c12.5,18,26.7,34.8,40,52.2
	c15.2,19.9,19.3,41.3,10.1,65.2c-5.7,14.7-10.4,29.9-14.7,45.1c-33.2,117.2,7.7,207.1,118.5,257.4c23,10.5,48.1,17.6,73,22.7
	c38.1,7.8,76.7,14,115.4,18.1c39.5,4.1,67.4,22.9,89.1,55.7c62.3,94.1,151.7,148.7,260,175.6c95,23.6,191,21.7,286.8,9
	c54.8-7.3,104-1.2,148.3,33.3c9.6,7.5,20.4,13.4,30.6,19.9c55.2,35,115.5,57.5,179.7,68.5c45.6,7.8,91.4,15.6,137.4,19.2
	c112.1,8.8,224.3,11.1,333.4-22.3c34.7-10.6,66.7-9.3,99.4,3.6c4.5,1.8,9.1,3.5,13.7,5c139.9,46.1,275.3,46.2,402.4-39.1
	c41.3-27.8,85.8-29.5,133.1-19.3c84.7,18.3,170.1,30.6,257.3,25.6c108.5-6.2,205.3-40,281.8-119.9c18.1-18.9,37.5-22.6,61.9-23
	c47.4-0.8,95.3-1.7,141.9-9c148.7-23.3,258.9-111.9,358-217.9c4.1-4.4,7.4-9.7,10.7-14.8c22.1-34.4,32.3-70.5,17.4-110.9
	c-5-13.7-7.2-28.4-12.3-42c-11.8-31.6-5.8-59.2,14.2-85.7c16.8-22.4,33.3-45.3,46.8-69.7c28.4-51.2,24.6-100.5-14.8-145.3
	c-11.3-12.8-23.1-25.1-34.8-37.5c-26.9-28.5-35.1-60.1-18.2-97c10.7-23.2,20.4-46.9,29.6-70.7c29.3-75.9,17.4-145.7-31.8-209.7
	c-4.5-5.8-8.8-11.7-13.9-17c-29.9-31.1-46.4-68-49.1-111.2C3681.4,2178.4,3679.4,2162.8,3677.5,2143.7z M3652.7,1577.3
	c-1.1-19.5-1.1-39-3.4-58.3c-20.1-170.8-118.3-282.4-291-306.8c-28.9-4.1-57.9-7.8-87-10.1c-24.1-1.9-40.3-13.7-53.2-33.3
	c-73.1-110.5-183.5-158.7-308-183.3c-20.2-4-32,3.8-41.4,20.7c-10.1,18-20.8,35.9-33.4,52.2c-45.7,59.2-109,92.5-178,115.8
	c-108.9,36.6-221.7,44.7-335.5,40.1c-184.3-7.6-365.4-38.2-544.9-78.7c-158.1-35.7-315.2-74.1-460.9-148.8
	c-12-6.2-28.7-7.5-42.3-5.4c-68.7,10.2-136.3,25.8-201.4,50.5c-61.2,23.2-117.7,54.4-159.6,105.7c-25.6,31.3-55.3,50.1-95.7,51.7
	c-4.8,0.2-9.7,1.1-14.5,1.9c-65.1,11.1-128.3,28.1-186.1,61.5c-130.8,75.5-194.9,193.1-213.4,339c-6.5,51.3-1.7,102,16.3,151.2
	c26.3,71.5,76.4,107,152.2,106.9c11,0,22,0.3,32.9-1c26.3-3.2,47.7,6.3,66.1,24.2c10.5,10.2,20.9,20.5,31.3,30.7
	c45.3,43.9,97.1,77.4,157.9,95.3c96,28.2,192.8,25.7,288.5,0.4c54-14.3,106.3-34.7,159.2-53c51.8-17.9,103.9-34.6,159.1-38.4
	c74.6-5.1,145.4,11.3,213.7,39.1c63.1,25.7,124.1,56.7,187.9,80.4c83.9,31.2,170.2,49.9,261.1,32.9c60.3-11.3,117.5-31.4,173.2-56.1
	c32.4-14.3,63.1-14.5,95.2-0.7c40.2,17.4,80.6,34.2,121.1,50.8c108.8,44.6,210.3,29.7,302.5-41.4c24.9-19.2,46.9-22.3,73.8-10
	c7.7,3.5,16.2,5.4,24.1,8.6c64,25.8,128.7,31,196.7,15c61.9-14.6,113.1-43.4,153-92.5c12.3-15.1,23.5-31.1,35.8-46.2
	c19.1-23.4,42.9-35,74-29c15.5,3,31.3,4.8,47.1,6.2c73.7,6.8,129.6-22,171-83C3638.6,1719.8,3653.1,1650.8,3652.7,1577.3z
	 M3659.6,1804.9c-10.6,11.6-19.2,19.8-26.2,29.1c-60.7,80.1-142.6,107.6-239,91.3c-31.8-5.4-50.5,2.6-67.2,28.3
	c-24.1,37.1-54.6,68.3-93,91.5c-109.6,66-224.1,66.2-340.8,24c-22.3-8.1-38.1-6.3-57.1,6.8c-99.9,69.2-208,85.6-322.8,44.1
	c-40-14.4-79-32-117.4-50.4c-32.1-15.3-60.5-14.5-93.3,1.4c-139.4,67.9-283.4,74.6-429.2,22.9c-49.2-17.4-96.9-39.5-144.8-60.6
	c-55.8-24.7-112.2-47.8-172.4-58.9c-82.1-15.1-160,4.3-235.5,34.1c-88.7,35-178.5,64.9-274.6,70.7
	c-147.5,8.9-281.4-22.5-385.9-135.1c-22.8-24.6-46.5-33.8-79.9-31.6c-72.6,4.8-133.8-20.5-179.2-79.4c-3.5-4.6-8.8-7.8-15.7-13.7
	c-54.1,45.2-99.8,94.6-112.4,165.5c-3.4,19.1,1.3,41.4,8.1,60.1c9.2,25.3,22.1,30.6,49.1,24.8c24.9-5.4,49.1-14.1,73.8-20.5
	c64-16.6,118.5,4.6,155.7,59.1c31.9,46.8,46.3,98.5,48.1,154.7c1.8,57.2-15.6,110.3-29.8,164.6c-9.1,34.9-13.5,71.5-16.4,107.6
	c-2.1,26.4,9.6,49.8,29.4,68.3c34.5,32.1,85.2,20.7,99.7-24.3c7-21.7,9.3-45.2,11.7-68.1c3.1-29,3.3-58.4,6.1-87.4
	c4.3-45.5,24.5-83.5,57.3-115.2c36.4-35,77.4-63.4,123.1-84.3c55.7-25.5,114.4-33.9,174.6-19.7c65.5,15.4,111.5,56.7,146.6,112.7
	c16.1,25.7,32.4,52,53,73.9c35.1,37.3,78.9,50.3,129.9,36.2c33.9-9.4,61.7-28.6,87.6-50.9c27.7-23.8,53.6-49.8,81.9-72.8
	c145.3-117.8,337.4-101.1,461.5,39.2c16.9,19.2,33.3,39,51.8,56.5c49.4,46.8,105.5,62.7,170.9,35.3c34.2-14.3,65.2-32.7,91.3-59.1
	c25.7-26,50.5-52.9,77.3-77.8c56.4-52.2,123.1-73.7,198.8-57.6c63.6,13.5,125.1,10,187.6-6.9c31.4-8.5,64.8-12.5,97.3-12.7
	c64.4-0.4,110.7,32.4,140.7,88.3c33.1,61.7,34.8,127.9,28.3,195.8c-4.2,44.8-6.6,90-5.5,134.9c0.5,22.4,7.6,45.8,16.8,66.5
	c16.6,37.7,47.9,54,89,49.4c36.9-4.1,58.3-27.5,69.6-61.3c12.6-37.9,13.2-76.7,5.7-115.5c-7.1-37.1-15.1-74-22.9-110.9
	c-16-75.3-6.9-147.8,26.1-217.1c24.8-52.1,66-88.3,123.4-90.9c57.9-2.6,97-26.9,132.5-70c36.1-43.7,86.7-50.4,139.4-27.4
	c10,4.4,19.4,10.2,29.4,14.7c27.6,12.4,43.9,6.9,54.7-21.6c5.9-15.6,9.4-32.9,10.2-49.7C3740.1,1929.5,3704.1,1868.2,3659.6,1804.9z
	 M2547.3,532.3c-3.7,9.4-7.1,17.1-9.8,25c-19.3,57.1-52.3,103.8-102.1,138.7c-58.2,40.7-123.3,61.7-192.7,73.6
	c-87.6,14.9-174.6,12.2-261.7-2.7c-23.9-4.1-36.1-18.4-32.9-35.6c3.4-18.2,18.3-25.7,43.3-19.9c92.2,21.1,184,16,275.2-4.7
	c58.9-13.4,113.1-37.6,159-78.1c47.8-42,67.5-96.1,58.7-157.4c-11-76.6-46.1-143.5-98.9-200.1c-18.4-19.8-39.1-38.6-65-47.2
	c-3.2,2.9-4.6,3.5-4.9,4.5c-2.6,8-5.4,16-7.4,24.2c-13.3,54.3-42.3,97.5-87.9,130.3c-45.5,32.6-95.7,53.3-150.5,62.2
	c-52.8,8.6-106,15.5-159,22.9c-51,7.1-100.8,17.5-144,48c-29.5,20.8-51.1,47.5-63.9,84.5c9.4,5.1,17.4,10.1,25.9,13.7
	c23.5,10.1,47.4,19.1,70.7,29.7c13.2,6,26.8,12.5,37.6,21.8c5.7,4.9,9.8,18.2,7.1,24.3c-3,6.8-14.2,12.3-22.7,13.9
	c-7.7,1.5-16.7-2.3-24.7-5.1c-14.9-5.3-29.8-10.9-44.1-17.6c-76.3-35.8-153.8-31.9-231.4-6.5c-65.5,21.5-121,57.4-156.4,118.8
	c-24,41.7-35.8,86.6-34.6,134c112.7,53.9,224.8,97.8,342.8,124.1c111.6,24.9,223.8,47.3,336,69.4c161.1,31.8,323.6,41.8,487.2,25.6
	c73.2-7.2,143.7-25.5,209.4-59.9c100.5-52.5,146.4-135.8,138.8-248.1C2832.1,655.7,2684,545.6,2547.3,532.3z"/>
<path d="M2494.6,2563.7c113.7-0.2,170.6,116,135.2,211.3c-24.7,66.5-79.8,102.4-143,95.8c-73.8-7.7-130.2-60.7-140.3-132
	C2332.8,2642.2,2400,2562.6,2494.6,2563.7z M2575.6,2669.3c-0.3-28.2-22.1-50.2-50.6-50.9c-31.6-0.7-56.7,25.1-56.5,58.1
	c0.1,25.9,22,46,50.1,46.2C2550,2722.8,2575.8,2698.7,2575.6,2669.3z"/>
<path d="M1472.5,2872.4c-95.5,2.8-149.7-82.2-149-147.2c0.8-86.3,69.8-158.7,153.4-158.8c80.4-0.1,143.3,62,144.7,143.1
	C1623.1,2795.6,1553.6,2871.6,1472.5,2872.4z M1392.7,2672.9c0.4,29.4,22.1,50.7,51.1,50.2c30.5-0.5,54.7-23.7,54.5-52.3
	c-0.3-29.9-21-52.2-49.1-52.7C1418.6,2617.6,1392.3,2643.1,1392.7,2672.9z"/>
<path d="M1384.9,2872.6c37.4-1.2,79.8,8.6,121.4,23.1c3.4,1.2,6.7,2.8,9.9,4.6c25.9,14.9,50.1,32.1,51.1,65.6
	c1,34.3-18.3,59-47.5,71.7c-29.7,12.8-61.7,22.4-93.7,27.2c-53.6,8.1-106.9,1.2-157.3-19.5c-32.8-13.4-61.9-33.9-62.2-73.2
	c-0.2-40,26.8-63.1,61.2-78.4C1302.9,2878.2,1339.8,2872.4,1384.9,2872.6z M1386.9,3023.1c30.8-5.6,62.1-9.6,92.4-17.6
	c18-4.8,41.3-12,41.6-34.8c0.3-22.3-22.2-30.9-39.8-38.1c-64-26-128.4-23.1-191.9,2.2c-17,6.8-36.4,16.7-35.2,37.3
	c1.2,20.3,21,29.6,38.8,33.8C1323.3,3013,1354.5,3017.3,1386.9,3023.1z"/>
<path d="M2593.1,3066.2c-26.3-3.7-53.2-5.5-78.9-11.8c-19.7-4.8-39.6-12.7-56.6-23.7c-53.1-34.5-51.8-102.9,5.5-128.8
	c83.8-38,170.7-44.2,256.6-2.2c6.5,3.2,12.7,7.2,18.4,11.7c37.5,29.6,39.7,73.9,5,106.8c-31.6,29.9-72,38.7-113.2,44.1
	c-11.9,1.6-24.2,0.2-36.3,0.2C2593.3,3063.8,2593.2,3065,2593.1,3066.2z M2457.5,2975.9c12.3,8.9,24.2,22.1,38.9,27.3
	c61.4,21.6,124,21.9,185.7,0.8c17.6-6,40.5-13.6,39.6-36.7c-0.8-21.9-21.6-30.7-40-37.6c-56.7-21.2-114-22.7-171-1.8
	C2489.1,2935.9,2468.2,2946.5,2457.5,2975.9z"/>
<path d="M1988.8,3042.3c-97.3,2.7-184.8-74-190.4-182.2c-0.6-12.2-2-25.4,14.6-28.9c16.3-3.4,25.5,5.2,30.1,19.5
	c3.4,10.4,5.4,21.2,8.3,31.7c17.9,64.4,69.8,107,130.9,107.6c68,0.6,120.9-38.8,140.7-105c3.8-12.8,5.3-26.7,11.4-38.2
	c3.6-6.7,13.9-13,21.6-13.7c11.9-1.1,21.4,7,20.8,20.1c-0.6,13.2-2.8,26.6-6.1,39.5C2147.1,2986.2,2079.2,3041.7,1988.8,3042.3z"/>
<path d="M910.2,3199.9c-61.7-3.8-114.3-22.7-150.9-72.5c-11.6-15.7-16.8-37-21.4-56.6c-2.9-12.1,3.7-26.7,18.1-26.5
	c8.2,0.1,21,9.4,23.6,17.3c11.2,33.3,30.4,58.2,63.7,70.3c44.8,16.2,90.3,18.5,135.6,1.7c9.1-3.4,17.3-10.3,26.5-11.7
	c8.4-1.3,21.8-0.2,25.3,5c3.9,5.8,2.3,20.2-2.6,26c-9.1,10.8-21.1,21.6-34,26C967,3188.1,938.3,3193.1,910.2,3199.9z"/>
<path d="M3479,3006.1c-17.6-4.1-36-6.2-52.5-13c-10.2-4.2-20.3-13.8-25.7-23.6c-8.5-15.4,2.7-29.6,20.1-27.7c5.9,0.6,12,2.5,17.4,5
	c57.9,26.3,137.8-21.7,151.9-76.4c2.1-8.2,3.9-17,8.3-23.9c4.1-6.4,12.6-15.6,17.4-14.6c8,1.6,17.6,9,20.9,16.4
	c3.4,7.9,1.6,19-0.3,28.2C3621.4,2949.6,3554.9,3003.4,3479,3006.1z"/>
<path d="M1737.1,3436.3c-5.3-8.6-9.6-19.3-17-27.2c-51-55.1-134.8-58.5-189.8-8.4c-0.9,0.8-1.7,1.7-2.6,2.6
	c-8.5,8.6-17.7,20.7-30.7,11.1c-13.6-10-8.5-25.9-0.2-35.9c12.2-14.7,26-30.6,42.6-38.7c62.4-30.4,124.9-29.2,183.4,10.8
	c13.6,9.3,24.8,23.5,33.8,37.6C1767.5,3405.2,1763.8,3413.7,1737.1,3436.3z"/>
<path d="M2347,3410.1c-22.7-4.4-43.3-6.5-62.7-12.7c-13.4-4.3-26.4-12.7-37-22.2c-11.5-10.3-24.8-25.1-13.4-40.9
	c12.1-16.8,26.3-1.7,38.2,4.8c55.4,30.5,108.7,29.2,160.1-8.8c2.9-2.2,5.7-5.6,8.9-6.2c7.7-1.3,18.5-4.4,22.7-0.6
	c4.5,4,5.4,15.8,3.2,22.6c-7.6,23.3-24.9,39.4-47.6,46.8C2395.5,3400.8,2370.4,3404.8,2347,3410.1z"/>
<path d="M3051,3216.4c22.8,6.5,45.1,11.7,66.6,19.4c8.5,3.1,17.6,10.5,21.7,18.4c3.8,7.3,4.1,19.1,0.7,26.6
	c-1.8,3.9-15.1,4.7-22.6,3.3c-10.6-1.9-20.5-7.4-30.9-10.8c-42.3-13.6-81.6-8.8-117.2,19c-4.8,3.8-9.8,7.3-14.6,11
	c-9.2,7.1-21.1,13.8-28.6,2.6c-4.6-6.9-4.3-23.6,0.9-29.4c14.3-15.8,30.6-32.3,49.5-41C2999.1,3225.2,3025.3,3222.6,3051,3216.4z"/>
<path d="M3660.8,2525.5c-2.3,51.1-60,104.8-104.7,103.8c-15.7-0.3-25.3-9.5-28.4-23.7c-3-14.2,9.3-19.7,19.6-21.8
	c36.3-7.5,61.9-26.1,73.9-62.3c3.7-11.1,12.7-20.8,24.6-14.9C3653.7,2510.5,3658,2521.8,3660.8,2525.5z"/>
<path d="M559,2945.9c-42.8,0.6-89.5-33.6-99.5-71.4c-2-7.4-1.5-17,1.5-24c6.8-15.9,18.7-17.2,31-4.6c4.2,4.3,7.3,9.6,11,14.4
	c14.9,19.5,31.8,36.4,56.6,43c4.6,1.2,9.9,2.7,13.1,5.9c5.5,5.5,13.6,12.9,13,18.7c-0.7,6-9.9,11.8-16.4,16.2
	C565.6,2946.4,559.9,2945.7,559,2945.9z"/>
<path d="M463.5,2625.5c-22.8,22-35.1,25.4-51.4,11.1c-31.7-27.7-48-63-45.4-105.9c0.9-13.8,8.7-24.4,22.4-23.1
	c7.3,0.7,19.3,10.5,19.6,16.6C410.8,2567.1,433.1,2598.7,463.5,2625.5z"/>
<path d="M2742.5,2536.8c44.8,0,86.7,0,127.6,0c6.4,19.3-2.8,29.9-15.3,35.4c-31.1,13.6-64,15.5-96.2,4.5
	C2742,2571,2734.6,2557.3,2742.5,2536.8z"/>
<path d="M938.2,2542.4c8.7,3,13.9,3.6,17.6,6.3c21,15.9,42.2,31.6,62.2,48.7c8.9,7.6,11,19.1,3,29.3c-8.2,10.5-19.5,9.3-29.3,3.3
	c-21.5-13.2-42.5-27.2-63.3-41.4c-10.1-6.9-14-17.6-7.7-28.4C924.8,2552.9,932.8,2547.6,938.2,2542.4z"/>
<path d="M2706.7,2436.6c8.7-13.9,12-25,19.5-30.1c22.3-15.1,47.6-16,72.4-6.5c11.6,4.5,20.2,14.4,16.7,28.5
	c-3.5,14.2-15.4,17.9-28.2,16.8C2763.3,2443.3,2739.7,2440.3,2706.7,2436.6z"/>
<path d="M557.1,1570.5c6.4-83.1,60.1-154.8,134.1-170.8c15.4-3.4,33.2,0.5,49,4.4c5,1.2,10,13.4,10,20.5c0,4.2-9.3,10.1-15.4,12.2
	c-18.2,6.2-38.8,7.6-55.2,16.8c-54.9,30.7-73.9,80.9-70.2,141.5c0.5,8.5,4,17.2,2.7,25.2c-1.2,7.4-6.3,19.3-11,19.9
	c-8.1,1.1-22.3-2.7-24.9-8.4C567.7,1612.3,563.1,1591.1,557.1,1570.5z"/>
<path d="M3477.5,1570.9c-2.6,13.3-5.1,35.2-11.4,55.9c-3.3,10.8-11.9,21.3-20.9,28.4c-4.8,3.8-16.7,2.5-23.1-0.9
	c-4.6-2.4-6.5-11.9-7.6-18.6c-0.8-4.4,1.2-9.7,3.2-14c20.5-44.6,11.5-89-5.8-131c-8.3-20.1-26.1-37.3-42.3-53
	c-18.9-18.4-26.1-30.4-18.2-41.9c8.2-12.1,29.5-11,49,3.9C3454,1440.7,3473.2,1497.9,3477.5,1570.9z"/>
<path d="M3017.8,1291.2c0.7,11.9-8.4,20.2-21.1,17.6c-9.4-1.9-18.4-6.1-27.5-9.4c-47.2-17.2-88.1-8.3-121.7,29.9
	c-4,4.6-8,9.1-12.1,13.6c-7.2,7.9-17,13.4-24.9,4.5c-5.2-5.8-8.8-18.1-6.2-24.9c5.4-14.3,13.1-29,23.7-39.8
	c36.7-37.3,108.6-48.7,156.4-27C3003.3,1264.3,3017.1,1279,3017.8,1291.2z"/>
<path d="M1089.8,1286.8c-16.1-1.4-29.4-0.9-41.8-3.9c-29.8-7.2-54.8,0.5-76.8,20.7c-3.6,3.3-7.4,6.2-10.9,9.6
	c-8,7.7-16.5,16.7-28,8.2c-13.7-10.1-9.4-23.2-2.6-35.6c23.4-42.8,103.2-63.4,144.8-37.5C1086.8,1255.9,1087.4,1257.2,1089.8,1286.8
	z"/>
<path d="M3028.1,1645.4c-2.2,8.2-3.4,20.8-9,31c-3.2,5.8-14.2,11.2-20.7,10.2c-5.7-0.9-11.3-10.3-14.5-17.1
	c-2.4-5.1-0.7-11.9-1.2-18c-2.5-29.6-8-57.8-33.8-77.4c-10.7-8.1-16.5-20.1-8.2-31.8c10-14.2,24.6-8.7,35.5-0.9
	C3010.4,1565.7,3023.6,1601.3,3028.1,1645.4z"/>
<path d="M1361.4,1309.7c-21.4,15-35.4,11-45.6-4c-21.1-31-26.1-65.1-12.1-99.9c3.3-8.2,14.7-15.8,23.9-18.4
	c9.6-2.8,20.9,3.7,18.5,15.9C1338.7,1240.1,1344.7,1275,1361.4,1309.7z"/>
<path d="M951.5,1753.6c3-35.6,20.9-62.1,49.4-81.5c6.7-4.5,16-8.1,23.6-7.3c7.1,0.7,15.9,6.4,19.6,12.6c2.5,4.2-1.1,14.1-4.9,19.3
	c-4.9,6.6-14.7,9.7-19.2,16.5c-10.5,15.8-19.9,32.6-28.2,49.7c-5.6,11.5-4.9,29.3-24,25.9C947.8,1785.1,952.3,1767.4,951.5,1753.6z"
	/>
<path d="M1590.9,1794.3c-20.3-1.2-29.2-12.9-30.8-28.1c-3.3-32.1,2.8-62.7,23.1-88.7c4.9-6.3,12.8-11.5,20.3-14.2
	c13.9-4.9,30.6,10.5,23,21.5c-21.2,30.6-22.4,65.6-28.2,99.8C1597.8,1787.7,1594.1,1790.2,1590.9,1794.3z"/>
<path d="M1839.3,1452.4c-32.2-0.8-38.9-5-38.9-30.7c0-17.8,3.2-36.4,9.1-53.2c3-8.7,13.9-16.9,23.1-20.7c15.1-6.3,26.7,4,23.9,20.5
	C1851.8,1395.7,1845.4,1422.8,1839.3,1452.4z"/>
<path d="M2736,1716.7c21.1-6.5,34.6-2.3,42.6,12c14.1,25.2,18.5,52.9,10.6,80.7c-1.9,6.8-13.4,13.8-21.3,14.9
	c-5.3,0.8-16.2-7.8-17.4-13.7C2744.5,1780.1,2740.8,1749.2,2736,1716.7z"/>
<path d="M2125.6,1809.7c-31.4-0.2-37.5-3.4-40.1-26.4c-1.7-15.3-1.4-31.7,2.5-46.3c2.4-9,12-18,20.7-23c13-7.5,25,0.2,24.1,14.8
	C2131.3,1755.1,2128.2,1781.3,2125.6,1809.7z"/>
<path d="M2467.7,1393.4c-2.6,16.9-1.8,28.8-6.6,37.7c-3.5,6.6-14.9,13.6-21.7,12.7c-6.3-0.9-15.1-11.5-16.1-18.7
	c-2.5-18.9-2.1-38.3-1.2-57.4c0.3-6.1,4.9-16.1,9.2-17.1c7-1.6,19.5,0.4,22.2,5.2C2460.9,1368.9,2464.4,1384,2467.7,1393.4z"/>
<path d="M2404.4,1042.7c-16.7,1.3-28-4.3-31.6-19.9c-3.8-16.3,5.2-25.2,19.8-29.4c28-8,56.5-14.4,84.1-23.6
	c70.1-23.4,133.9-57.5,182.7-114.9c24.8-29.1,41.7-62.5,51.6-99.5c2.2-8.2,2.9-17.3,7.1-24.3c3.8-6.4,12.9-15.6,17-14.5
	c9.1,2.6,20.3,9.4,23.7,17.4c3.8,8.9,1,21.4-1.1,31.8c-13.5,65.9-51.7,117.2-99.6,161.7c-70,65.1-155.9,96.7-248.1,114.2
	C2407.7,1042.4,2405.3,1042.6,2404.4,1042.7z"/>
<path d="M2407.8,399.7c-9.5,64.7-43,123.6-106.6,164c-2,1.3-4.2,2.4-6.5,3.2c-13.7,4.8-28.7,12.4-38.8-4.5
	c-10.4-17.3,3.3-27.3,15.1-35.5c50.9-35.1,79.4-83.8,89.7-144c2.4-14.2,2.7-31,23.3-30.6C2400.1,352.6,2408.5,367.1,2407.8,399.7z"
	/>
</svg>
