<?xml version="1.0" encoding="utf-8"?>
<!-- Generator: Adobe Illustrator 24.3.0, SVG Export Plug-In . SVG Version: 6.00 Build 0)  -->
<svg version="1.1" id="Layer_1" xmlns="http://www.w3.org/2000/svg" xmlns:xlink="http://www.w3.org/1999/xlink" x="0px" y="0px"
	 viewBox="0 0 4000 4000" style="enable-background:new 0 0 4000 4000;" xml:space="preserve">
<path d="M2384.6,1471.1c20.1-1.8,40.4-2.6,60.3-5.6c13.4-2,26.5-6.8,39.6-10.6c54.6-16.1,106.9-8.9,155.5,19.1
	c30.4,17.5,61.7,28.8,96.6,30.8c11.6,0.7,23.4,2.6,34.7,5.5c30.2,7.8,58.9,4,89.4-2.3c83.6-17.3,161.7-5.6,225,58.2
	c14.6,14.6,32.3,21.3,51.4,26.3c77.8,20.1,152.8,47.7,225.9,80.9c45.6,20.7,88.4,46.3,127.5,77.5c55.2,43.9,85.6,100.3,84.5,172.3
	c-1.7,108-19.4,214-41.1,319.4c-34,165.1-83.6,325.4-151.1,480.1c-71.9,164.7-166.4,314.1-295.5,440.3
	c-112.5,110-242.4,193.7-387.8,253.6c-24.7,10.2-24.5,10.2-24.1,36c0.3,21.5,0.1,43,0.1,64.5c0.2,38.1-17.6,64.6-51.2,82.1
	c-54.3,28.2-112.5,44.7-171.7,58c-175.7,39.4-354,48.5-533.3,44.2c-103.7-2.5-207-9.7-309.4-26.6c-82.9-13.8-165.4-30.2-242.6-65.3
	c-7.1-3.2-13.9-7.1-21-10.4c-35.7-16.4-53.3-44.3-53.4-83.5c-0.1-22.5-2.2-45.1-0.5-67.4c1.4-18.2-6.1-26-21.7-32.4
	c-116.7-47.9-222.4-114.1-319.7-193.8c-139.9-114.6-247.1-255.3-326.7-416.9c-105-213-173-437.7-206.2-672.6
	c-9.4-66.7-14.7-134-21-201.1c-5.9-62.4,15.3-115.2,59.6-159c54-53.3,120.6-86,189.3-114.8c34.2-14.3,69.8-25.1,104.8-37.4
	c8.2-2.9,16.3-5.9,23.9-8.6c1.7-52.4-44.5-110.2-96.1-118.7c-22.9-3.8-46.6-2.5-70-2.8c-32.1-0.5-64.9,3.4-96.3-1.5
	c-62.2-9.7-104.2-51.5-112-104.5c-8.7-59.1,21.6-116.2,78.6-144.4c47.9-23.7,99.1-29,151.5-20.9c87.4,13.5,156.7,57.3,210.7,126.6
	c18,23.1,36.3,46.1,54.7,68.9c64.2,79.5,148.2,97.8,242.7,73.3c102.7-26.6,141.5-75.8,152.8-181.9c3.2-30.1,7.1-60.2,13.5-89.7
	c9-42,28.7-79,60.7-108.3c38.2-34.8,83.9-46.4,133.4-34.5c63,15.1,104,75.1,94.6,139.8c-5.4,37.5-17.5,74-27.1,110.8
	c-9.8,37.5-5.5,73.5,9.3,108.9c8.8,21.1,21.7,32.1,46.8,30.7c56.6-3.1,113.3-4,170-4.8c15.3-0.2,24.9-4.9,32.8-18.8
	c162.3-285.5,325-570.7,487.6-855.9c74.5-130.8,148.9-261.6,223.4-392.3c4.3-7.6,9-15.1,14-22.3c12.7-18.1,30-26.6,52.6-26.3
	c34.8,0.6,67.5,9.8,99.6,22c83,31.6,159.1,75.2,224,136.1c18.2,17.1,32.1,39,46.5,59.7c10.8,15.5,10.6,33.5,3.1,50.6
	c-6.2,14.3-13.3,28.3-21,41.9c-110.9,194.4-221.9,388.8-332.9,583.1c-76.1,133.2-152.4,266.4-228.4,399.7c-5.1,9-9.1,18.7-13.6,28.1
	C2381.7,1466,2383.1,1468.6,2384.6,1471.1z M3446.6,2395c-9.9,0-17.6-1-25,0.2c-69.1,10.9-135.3,30.4-194.2,69.8
	c-36.6,24.4-72.8,49.4-109.6,73.5c-54.2,35.5-111.5,64.8-175.1,79.8c-116.1,27.4-231,20-344.2-15.1c-42.9-13.3-84.9-29.6-126.9-45.3
	c-64.9-24.3-131.1-32.6-198.3-13.4c-35.6,10.1-70.3,23.8-104.3,38.4c-142.7,61.5-286.5,72.6-432.9,13.3
	c-33.5-13.6-67.3-26.5-101.1-39.1c-63.1-23.5-127.7-36.7-195.4-26.4c-50.6,7.7-98.5,24.3-145.6,43.6
	c-44.3,18.1-88.2,37.5-133.5,52.7c-64.2,21.5-130.3,25.3-196.5,8.7c-54-13.5-101.2-41-144.4-75.6c-20.6-16.5-40.9-33.4-61.5-49.8
	c-54.2-43.3-115.5-68.9-185.1-73.2c-11.3-0.7-22.7-0.1-37.9-0.1c3,13.2,4,21.8,7,29.6c32.4,85.9,61.2,173.4,98.5,257.1
	c77.7,174.4,185.1,328.3,331.7,452.6c122.9,104.2,260.4,182.9,414.6,230.8c124.7,38.8,253.7,56.9,383.2,66.9
	c180.5,13.9,361.3,14.4,541.5-9.6c136.2-18.2,268.9-48.8,395-105c235.1-104.8,418.3-267.2,548.5-489.5
	c83-141.8,140.1-294.2,187.4-450.8C3444.6,2411.7,3445.1,2404.1,3446.6,2395z M522,2393.5c17.7-1.3,32.2-3.4,46.7-3.3
	c80.2,0.7,150.8,28.8,213.8,77.4c23.2,17.9,45.7,36.7,68.5,55.2c66.5,54,140.8,83,227.9,72.6c41.1-4.9,80-17.5,117.9-33.5
	c39.6-16.7,78.7-34.6,118.7-50.3c96.6-38.1,195.4-47.5,295.4-15.2c47.3,15.3,93.5,34.3,139.6,53.1c100.3,40.9,202.6,50.4,306.7,18.6
	c52.2-16,102.8-37,154.2-55.6c64.3-23.3,130.5-36.7,198.3-22c40.8,8.8,81,22.3,119.8,37.8c102.2,40.6,207.1,64.3,317.6,54.8
	c70.7-6.1,139-22.9,200.2-60.4c44.9-27.5,87.9-58.3,132-87.2c79-51.8,163.3-88.3,259.9-87.4c17.2,0.2,24.6-6.9,28-22.6
	c13.4-63,27.4-126,40.8-189c1.7-8.2,1.1-16.9,1.6-25.7c-4.1,0-6.2-0.6-7.8,0.1c-3.6,1.5-7.1,3.3-10.3,5.4
	c-85.2,57.7-179.9,93.7-278,121.8c-189.4,54.3-382.8,87.1-578.8,103.5c-142.1,11.9-284.7,20.2-427.2,26.2
	c-318,13.5-635.2-0.4-951.4-35.9c-189.6-21.3-376.9-54.8-559.3-112.3c-75.6-23.9-149.1-53-214.9-98.8c-4.3-3-10.1-3.9-19.8-7.4
	C477.9,2210.2,496,2302.5,522,2393.5z M3129.9,1640.8c0,10.2-0.9,16,0.2,21.5c4.2,22.6,0.7,30.8,34.3,38.5
	c42.7,9.7,84.4,24.4,125.8,39.2c39.8,14.2,76.5,35.3,108.9,62.4c14.7,12.3,28.1,27.3,38.3,43.5c18.7,29.6,16.2,60.7-6.3,87.1
	c-15,17.6-32.6,34.8-52.5,46c-39,21.8-79.3,42.5-121.2,58c-83.5,30.8-170.2,51.3-258.1,65.6c-96.4,15.7-192.8,31.1-289.7,43.4
	c-65.9,8.3-132.3,12.5-198.7,15.9c-160.1,8.4-320.1,17.3-480.3,22.1c-167.2,5-334.4-0.6-501.2-13.1c-127.6-9.6-254.8-24.6-382-38.6
	c-133.3-14.7-264.6-40-393.2-78.2c-56.3-16.7-111.5-36.7-161.1-69.1c-15.5-10.1-31.2-20.6-44.4-33.4c-40-38.5-42.5-83-6.4-125
	c12.5-14.6,28.3-27,44.4-37.6c48.7-31.8,103-51.1,158-68.8c32.2-10.3,36.4-19.3,28.1-56.2c-6.4,1.1-13.1,1.3-19.3,3.4
	c-65,21.9-127.5,49.3-186.9,83.8c-34,19.8-64.6,43.9-91.1,73.2c-19.1,21.1-30.9,45.3-30.2,74.1c0.7,30.3,2.6,60.5,3.8,90.8
	c1.4,36.2,18.7,61.9,48.5,82c61.2,41.3,126.9,72.7,196.9,95.9c109.6,36.3,221.8,62.2,335.4,82.4c191.7,34.2,385.2,53.7,579.6,62.5
	c324.5,14.7,648.9,13.9,972.7-16c140.2-12.9,279.8-29.5,417.7-58.6c113.8-24,227.1-49.9,335-94.3c55.2-22.7,108.6-49,155.8-86.4
	c18.3-14.5,28.5-31.6,29.3-54.5c1.1-33.2,2.3-66.4,3.1-99.7c0.6-24.3-7.6-45.7-20.6-66.1c-23.3-36.7-57-61.3-93.2-83.1
	c-78.4-47.3-163.7-78.3-250.2-106.6C3151.1,1643.8,3142.3,1643.1,3129.9,1640.8z M2565,243.9c-12.6,20.8-23,37.2-32.6,53.9
	c-123.1,214.4-246.2,428.8-369.1,643.4c-108.3,189.1-216.4,378.3-324.5,567.5c-25.7,45-51,90.2-76.1,135.5
	c-11.4,20.6-7.7,31,16.4,51.9c12.5,10.9,16.5,11.3,35.6-3.4c63.2-48.6,136.1-62.2,213-56.7c24.7,1.8,37.3-5.4,48.7-26
	c43.5-78.7,88-156.8,132.9-234.7c178.3-310,356.9-619.9,535.3-929.9c8.1-14.1,15.5-28.6,24.2-44.7
	C2689.8,362.9,2622.5,313.8,2565,243.9z M1343.6,3445.3c0,19.2,1.6,33.7-0.3,47.7c-5.7,43.2,16.7,65.4,54.8,77
	c4.7,1.4,9.2,3.3,13.7,5c97.7,36.9,200,52.9,303.1,64.2c123.6,13.5,247.8,15.7,372,11.8c128.2-4,255.5-17.7,380.3-48.5
	c43.4-10.7,85.1-28.1,127-44c10.3-3.9,23.3-12.4,26.2-21.5c9-28.5,7.5-58.4,4.9-90.2c-211.1,66.5-424.6,87.5-640.3,85.9
	C1769.6,3530.9,1556,3511,1343.6,3445.3z M2812.4,422.7c-79.9,138.8-158.1,274-235.8,409.5c-78.2,136.5-156.4,272.9-233.8,409.9
	c-76.6,135.6-159.5,267.7-234.5,406.6c31.2,13,58.7,24.5,87.9,36.6c236-414.1,471.5-827.3,708.1-1242.6
	C2870.4,435.3,2841.1,428.9,2812.4,422.7z M1073.9,1547.2c-15-1.2-25.4-2.3-35.9-2.9c-60.4-3.4-111.1-28.3-153-71
	c-16.4-16.7-30.8-35.2-45.7-53.4c-14.8-18.1-28.4-37.3-43.7-55.1c-41.9-48.8-93.4-83.2-156.6-97.1c-53-11.6-105-8.4-152.1,22.5
	c-32.4,21.3-47.3,53.9-39.3,87.6c8.8,36.7,35,55.3,70.3,61.7c15.2,2.7,31,2.6,46.6,2.3c27.3-0.5,54.6-3.4,81.9-3
	c79.6,0.9,139.4,45.2,165.4,120.6c19.9,57.6,14,115.5,2.6,173.6c-2.5,13-5.4,25.8-8.5,40.7c33-9.5,61.3-21.3,90.7-25
	c29-3.7,59,0.8,88.6,1.7C987.2,1655.4,991.5,1645.3,1073.9,1547.2z M1734.5,1597.6c-13-4.5-21.1-7.8-29.5-10.1
	c-41.2-11.4-78.2-31.2-110.5-58.7c-55-46.9-89-104-79.3-179.4c2.7-21.1,9.9-41.7,15.2-62.5c5.8-22.7,13.2-45.1,17.3-68.1
	c6.5-36.6-2.9-68.9-35.9-89.2c-33.1-20.4-67-17.3-99.6,3.1c-32.7,20.4-51.6,51-59.6,87.3c-8.3,37.1-12.8,75-18.6,112.7
	c-7.1,46.1-19.2,89.9-52.5,124.9c-2.3,2.4-3.1,6.3-6,12.6c89.4,6.9,140.5,56.4,159.6,139.5c23.2-4.6,42.9-10.2,63-12.3
	c63.4-6.8,124.8,1.6,183.4,27.5c6.3,2.8,12.6,5.3,19.1,7.5c9.4,3.1,17.6,1.5,22.3-8.2C1726.6,1616.5,1729.7,1608.6,1734.5,1597.6z
	 M1387.2,2114.1c20.5,2.1,38.6-4.1,55.1-16c11.1-8,22.3-15.9,33-24.3c50.7-40.2,65-104.7,36.6-163.3
	c-61.6-127.1-251.6-153.6-350.1-61.6c-40,37.4-57.8,106.7-31.5,155.3c13.8,25.5,31.4,49.4,50.1,71.7c8,9.5,22.6,16.8,35.1,18.5
	C1272.6,2102.1,1330,2107.7,1387.2,2114.1z M2339.4,2125.6c0-0.3,0-0.5,0-0.8c27.3-1.7,54.8-2.1,81.8-5.6c14-1.8,29.7-5.8,40.5-14.2
	c18.2-14.3,36-30.9,48.8-49.9c32.8-48.5,35.9-100.1,6.6-152.1c-24.8-44.1-61.6-72.8-111.2-83.6c-72.2-15.7-139.7-7.4-199.7,39.5
	c-62.9,49.2-79.6,135.9-35.7,201.9c27.7,41.6,63.9,71.1,119.1,65C2306,2124.1,2322.8,2125.6,2339.4,2125.6z M2881.1,2072.4
	c21.2-3.9,59.7-10.1,97.8-18.3c44.3-9.6,70.7-40.5,84.9-81.3c18.8-53.8,2.9-102.4-36.9-139.1c-75.7-69.7-165.9-89.4-263.7-56.3
	c-74,25-105.8,104.9-75.5,177.2C2714.7,2019,2795.1,2073,2881.1,2072.4z M2714.1,1660.3c1.9-55.9-22.9-96.5-61.9-127
	c-91.7-71.6-245.7-42-290.2,88.9c-14.5,42.8,5.4,113.9,42.6,137.5c74,47,152.3,58.1,233.8,18.8
	C2689.1,1754.1,2714.7,1713.5,2714.1,1660.3z M2219.2,1790.8c-12.9-31.1-31.5-52.2-56.8-66.4c-88.7-49.7-181-56.7-276.2-20.7
	c-10.8,4.1-20.7,10.9-30.6,17c-51.6,31.8-49.4,103.5-15.2,137.8c24.5,24.6,52,44.4,85.2,55.1c45.2,14.5,91.6,17.7,138.9,15.9
	c28.6-1.1,47.4-10.7,58.2-38.8c13.3-34.6,36.8-61.7,69.9-79.9C2201.7,1805.8,2209.4,1798.3,2219.2,1790.8z M938,1796.2
	c-74.6,1.2-131.7,24.9-179.1,71.5c-25.9,25.5-41.4,56.4-46,92.5c-2.7,21.3,1.2,27.7,20.6,36.5c4.4,2,9,3.6,13.6,5.2
	c83.2,29,170,42.4,255.8,60.3c7.3,1.5,15.9,1.7,22.8-0.7c24-8.1,49.6-48.1,50.2-73.6c0.8-31,2.5-62,5.2-93
	c1.3-14.6-1.2-26.1-11.7-37.1C1031.4,1817.8,986.9,1793.3,938,1796.2z M1321.3,1740.5c4.9-31.8,16.6-62.2,43.3-82.8
	c24.9-19.2,25.9-40.8,15.2-67.1c-10.4-25.7-27.2-44.8-52.4-56.4c-30.4-14-62-16.9-94.4-9.7c-56.9,12.5-105.8,40.1-146.6,81.1
	c-32,32.2-50.9,71.1-53.7,117.2c-1.4,23,4.8,42.5,22.3,57.8c17.5,15.4,35.2,30.4,51.4,44.4c33.1-21.6,62.5-47.7,96.8-61.2
	C1238.6,1749.9,1278.9,1748.3,1321.3,1740.5z M1562.8,1904.5c49.2-19.7,96-37.2,146.1-39.1c48.1-1.8,84.2-83.5,52.2-121.1
	c-15.7-18.4-30.9-39.2-50.8-51.8c-69.9-44.2-146.4-63.5-229-45.9c-34.8,7.4-67.1,21.2-91.1,49.2c-12.6,14.8-23.7,30.7-20.9,53.7
	c38.4,16.7,81.1,23.3,113.9,51.3C1516.4,1829,1543.5,1861.7,1562.8,1904.5z M1518.5,2118.4c21.6,2.6,38.7,5.6,56,6.7
	c36,2.3,72.1,4.1,108.2,5.2c57.6,1.7,115.2,2.6,172.7,3.8c14.4,0.3,26.4-3.4,35.7-15.8c37-48.8,29-117.6-20.5-153.8
	c-83.8-61.3-193-59.6-278.4-18.8c-13,6.2-22.2,16.1-23.1,31.4c-2.4,41.2-18.5,77.3-40,111.8
	C1524.5,2096.4,1522.9,2105.9,1518.5,2118.4z M2812.9,1714c-12.1-27.2-8.3-48.6,8.3-68.7c30.2-36.5,91.2-50.6,133.5-29.8
	c43,21.1,55.2,65.7,28.8,105.3c-4.6,6.9-8.9,14-16.7,26.3c13.6,0,22.2,1.8,29.7-0.3c25.2-7.1,49.9-16.2,75.1-23.5
	c14-4,17.5-12.6,17.3-26.1c-1.2-74.2-36.8-122.9-113.4-144.2c-74-20.6-140.6,1.1-200.6,46.4c-11,8.3-14.9,19.5-15.4,33.1
	c-1.2,30.6-3.5,61.1-5.5,93C2771.2,1722.1,2790,1718.5,2812.9,1714z M3093.9,2027.9c35.7-0.1,143-30.2,167.9-48
	c8.4-6,16.1-14.5,21-23.5c32.2-58.1,14.8-125.3-41.4-161.2c-61-39-126.2-33.1-192.1-17.1c-1.4,0.3-2.3,2.9-4.9,6.5
	c14.4,21.6,29.5,41.1,60.3,41.9c18.3,0.5,37.4,2.6,54.5,8.6c52.1,18.2,62.3,79.8,19.3,114.3c-10.4,8.3-23.2,16.2-36,18.6
	C3108,1974.2,3099.6,1998.8,3093.9,2027.9z M2162.3,2133.7c2-2.5,3.9-4.9,5.9-7.4c-47.3-40.1-65.3-93.2-68.6-148.7
	c-55.8,0-107.5,0-157,0c5.2,25.4,14.7,51,14.6,76.6c-0.1,26.3-9.4,52.5-14.9,79.5C2016.7,2133.7,2089.5,2133.7,2162.3,2133.7z
	 M2544.7,1856.4c58.5,89.5,44.6,172.6-16.7,258c75.4-8.3,144.2-12.9,214.1-24.8c-37.9-31.9-71.3-65.1-91.7-109.7
	c-21.4-46.5-19.8-93.9-4.2-143.5C2610.3,1843.5,2579.1,1849.6,2544.7,1856.4z M2604.2,195c2.8,24.7,15.7,37.2,27.8,49.2
	c72.1,71.9,156.5,122.1,257.3,142.1c10.8,2.2,22.2,1.4,34.1,2c0.6-19-9.1-29-18.7-38.4c-75.2-74.2-163.9-125.3-266.1-152.3
	C2628.7,195.1,2617.8,196,2604.2,195z M755.2,1774.9c-11,0.8-17.8,0.1-23.8,1.8c-50.8,15-97.9,37.8-140.2,69.9
	c-7.6,5.8-14.3,13.2-20.4,20.7c-8.8,10.8-9.3,22.8-3.3,35.5c13.1,27.6,60.6,58.6,96.8,60.6c1.4-43.3,22.4-79.1,47.4-113.2
	c9.2-12.6,18.9-24.8,26.9-38.1C744.9,1801.6,748.7,1789.8,755.2,1774.9z M2339.8,1762.6c-11-24.5-18.1-43.8-28-61.5
	c-10.3-18.5-35.5-20.9-60-8c-18.2,9.6-20.1,17.1-9.9,41.4c3.8,9,7.5,18.3,13.2,26c3.5,4.7,10.9,9.3,16.3,9
	C2292.7,1768.5,2313.7,1765.5,2339.8,1762.6z M3338.2,1943c28.9-7.9,54.8-31.2,63.1-52.4c4.4-11.3,0-19.8-7.3-26.3
	c-17.5-15.5-35.9-30-54.4-44.3c-3.8-2.9-9.4-3.4-21.6-7.5C3345.5,1856.9,3351.7,1898.3,3338.2,1943z M2903.4,1714.3
	c8.4-2.6,22.7-4.3,33.4-11.5c7.4-4.9,13.1-17.3,13.5-26.6c0.6-12.5-12.3-17.8-22.7-18.2c-15.3-0.6-30.9,1.4-46,4
	c-13,2.3-24.1,8.9-24.7,24.4c-0.5,12.8,9.9,22.4,26.9,25.8C2888.6,1713.1,2893.5,1713.3,2903.4,1714.3z M1779.9,1506.2
	c-42.1-2.8-77.9-1.1-114.1,8.5c25.9,13.8,52.2,25.2,79.3,34.1c5.8,1.9,17.2-3.7,21.5-9.3C1772.7,1531.8,1774.5,1520.7,1779.9,1506.2
	z M2365.9,1516.5c-1.3-1.6-2.6-3.2-3.9-4.8c-5.4,3.1-13,5-15.8,9.7c-23,38.1-45,76.8-70.4,120.5c15.3,1,24,1.6,30.5,2
	c7.6-25.9,11.5-49.4,21.3-70.1C2337.3,1553.3,2352.9,1535.5,2365.9,1516.5z M3119.5,1925c29-6.8,41.1-17.9,38.1-32.2
	c-3.2-15.3-19.2-21-45.1-14.3C3114.6,1893.1,3116.9,1908,3119.5,1925z M1117.6,2077.5c-7.7-14-13-22.5-24.9-10.3
	c-2,2.1-2.4,5.8-4.1,10.3C1098.3,2077.5,1105.7,2077.5,1117.6,2077.5z"/>
<path d="M1150.3,1279.6c-1.9,21.4-2.1,43.1-6.1,64.1c-4.3,22.5-13.2,43.9-38.5,50.8c-26.7,7.3-47.9-3.4-65.1-23.1
	c-8.3-9.6-15.8-19.9-23.1-30.3c-35.1-49.8-80.2-87.4-134.9-114.5c-43.7-21.6-87.3-43.8-129.6-68.1c-34.8-20-58.9-51-74.9-87.9
	C632,964,701.9,852,817.9,845.2c48.9-2.9,92.6,10,133.1,36.5c64.2,42,108.2,100.9,140.9,169
	C1126.6,1122.9,1145.5,1199.3,1150.3,1279.6z M1094.8,1347.1c2.9-15.7,5.2-23.1,5.5-30.6c3.3-75.2-8.6-148-37-217.9
	c-25.5-62.6-63.1-116.6-115.4-159.9c-27.5-22.8-58.2-39.5-93.6-46.1c-79.2-14.8-147.9,43.4-142.5,121.2
	c2.2,31.4,16.6,57.7,38.1,80.4c31.7,33.4,72,53.8,113.2,71.5c82.5,35.5,153.6,84.8,205.9,159.1
	C1074.1,1332,1082.7,1336.8,1094.8,1347.1z"/>
<path d="M1573.4,2873.1c12.8,7.2,28.9,13,40.8,23.5c29.9,26.7,26.1,65.5-8.6,85.3c-16.6,9.5-35.7,15.7-54.5,20
	c-35.8,8.2-71.9,5.3-107.3-3.8c-10.3-2.6-20.5-6.8-29.7-12.1c-40.4-23.1-43.4-63.9-7.1-93.1c25.6-20.6,55.9-26.6,87.7-27.5
	c10.3-0.3,20.6,0,33.7,0c-61.1-59.4-75.1-109-46.8-158.6c25.1-44,74.1-62.8,123.4-47.4c44.7,14,75.6,58.7,72.8,105.3
	C1674.4,2821.9,1635.9,2861.3,1573.4,2873.1z M1508.2,2898.6c-27.6,1-54.9,2-78.4,19c-17.9,13-18.4,24.9,1,35.4
	c50,27.1,101.5,23.4,151.6,0.9c20.6-9.3,20.3-24.8,1.5-37.7c-7.8-5.3-17.3-9.2-26.6-11.1C1541.1,2901.9,1524.5,2900.7,1508.2,2898.6
	z M1565.9,2689.6c-24-0.4-42.1,16.5-41.7,39.2c0.3,20.1,17.1,35.7,38.3,35.7c24.2,0,40.6-14.9,40.1-36.6
	C1602.2,2707.8,1585.1,2690,1565.9,2689.6z"/>
<path d="M1799.3,2799.1c25.5,0,46.9,0.2,68.3,0c78.1-0.7,156.1-1.6,234.2-2.3c5.8-0.1,11.7,0.1,17.5,0.9
	c19.3,2.6,24.7,6.9,24.5,25.8c-0.4,52.2-7.7,103.4-31.9,150.4c-31.7,61.4-92.6,84.3-160.9,76.8c-69-7.5-113.8-46.8-137.1-111.4
	C1798.2,2895.6,1793.6,2850.7,1799.3,2799.1z M1854.4,2933.7c79.8-43.2,153.8-48.3,227.2,3.6c13.3-34.5,20.9-65.6,20-98.4
	c-49.8-6.2-242-3.1-264.9,5.3C1842.1,2871.6,1847.7,2899.6,1854.4,2933.7z M1888.3,2973.1c43.8,49,115.6,50.9,163.8,6.3
	c-6.7-24.4-27.8-29.6-48.4-34C1961.8,2936.3,1923.3,2942.7,1888.3,2973.1z"/>
<path d="M2365.6,2867.1c-57.1-0.2-105.5-49.8-104.8-107.3c0.7-58.2,49.2-107.2,105.7-106.8c56.4,0.4,106,46.8,106.3,99.5
	C2473.3,2816.9,2426.1,2867.3,2365.6,2867.1z M2363.3,2764.1c25.4-0.2,43.8-16.6,42.8-38c-0.9-20-16.6-36.5-34.7-36.4
	c-25.2,0.1-42.9,18-42.1,42.4C2329.9,2751.5,2343.5,2764.3,2363.3,2764.1z"/>
<path d="M2427.1,3005.3c-29.7,1.1-58.4-3.7-85.1-17.2c-21.6-10.9-36.1-27.2-34.9-52.8c1.2-25.2,16.6-41.6,38.5-50.8
	c48.1-20.1,98.1-24.9,149-12.5c12.1,2.9,24,8.8,34.4,15.7c36.7,24.2,37.2,66.2,1.5,92.1c-23.7,17.2-51.7,22.2-80,25.3
	C2442.8,3006,2434.9,3005.3,2427.1,3005.3z M2428.5,2974.5c22.5-5.5,45.5-9.5,67.3-17.2c8.8-3.1,21.5-14.8,20.7-21
	c-1.2-9.3-11.2-21.3-20.3-25c-47.9-19-95.8-16.4-141,9c-18.7,10.5-17.1,23.2,1.8,35.3C2378.6,2969.4,2402.9,2971,2428.5,2974.5z"/>
<path d="M1338.8,2023.4c-38.8-2.4-70.8-15.5-95.3-46c-30.8-38.2-14.3-81.4,22.1-101.4c48-26.3,124.9-3.6,151.9,44.4
	c20.5,36.4,8,76.3-30.6,92.2C1371.9,2018.9,1354.9,2020,1338.8,2023.4z M1309.1,1913.1c1.9-0.1-3.6-1.2-7.6,0.8
	c-9.1,4.5-22.3,9-24.6,16.4c-2.3,7.4,4.3,20.7,11.1,27.2c21.4,20.8,48.1,24.7,76,15.9c21.9-6.9,25-23.5,8-39.8
	C1356.3,1918.8,1337.3,1912.4,1309.1,1913.1z"/>
<path d="M2351.7,2033.6c-23.9-0.1-46.9-3.9-67.4-17c-25.3-16.3-44.2-38.2-39.6-69.7c5-33.5,26.3-57.1,59.4-65.8
	c36.5-9.7,72-3.9,104.3,16.2c29.1,18.1,44.2,48.8,39,76.3c-5.4,28.7-31.9,52.1-66.6,57.9C2371.3,2033,2361.5,2032.9,2351.7,2033.6z
	 M2351.9,1989c12.1-2.9,25-4.1,36.1-9.2c16.8-7.8,18.2-22.5,5.4-35c-17.8-17.4-59.2-24.4-82.2-13.9c-18.7,8.5-21.6,24.1-7.5,39.4
	C2316.7,1984.5,2333.6,1987.3,2351.9,1989z"/>
<path d="M2894,1977c-37.4-2.1-69.3-14.7-93.5-43.2c-35.4-41.9-19.5-93.3,33.6-106.7c41.2-10.4,79.9-1.6,113.3,24
	c11.8,9.1,21.1,23.3,27.4,37c15.7,34,0.4,67.7-35.2,79.7C2925,1972.6,2909.2,1974,2894,1977z M2891,1928.8
	c5.8-0.4,11.7-0.5,17.5-1.1c10.2-1.1,21.1-4.5,21.6-15.7c0.3-7.4-4.6-17.6-10.5-22.3c-22-17.5-48.1-20.8-74.8-14
	c-16.1,4.1-18.8,16.2-7.9,28.8C2851,1920.9,2868.8,1929.7,2891,1928.8z"/>
<path d="M2535.1,1718.8c-31.2-1.6-58.4-9.7-78.4-34.5c-30.2-37.4-21.1-90.5,21.4-112.5c38.8-20.1,79.1-19.8,116.8,4.4
	c24.6,15.8,37.8,38.4,34.1,69.2c-3.7,31.1-19.6,52.8-48.7,63.5C2565.9,1714,2550.2,1715.6,2535.1,1718.8z M2530.1,1608.8
	c-3.7,0.9-14.5,2.1-24,6.4c-19.5,8.9-23.3,28.5-6.8,41.7c9.8,7.8,24,12.5,36.7,13.8c26.3,2.8,46-10.8,46.6-28.6
	C2583.4,1621.7,2565.2,1608.3,2530.1,1608.8z"/>
<path d="M2014.6,1859.7c-20.1-5.5-43.2-9.5-64.5-18.2c-24.4-10-38.3-30.7-36.7-57.8c1.5-25.2,18.3-41.1,40.7-48.7
	c46.3-15.7,92.1-15.3,134.8,11.9c18.8,12,33.2,27.6,30.9,52.4c-2.5,25.8-19.5,40.4-41.7,47.7
	C2059,1853.3,2038.4,1855.2,2014.6,1859.7z M2067.6,1793.2c-20.1-18.1-60.2-24.8-89-14c-4.7,1.8-12.3,8.2-11.6,9.9
	c2.1,5.5,6.5,12.7,11.5,14.2c29.4,8.9,58.8,9.5,87.1-4.9C2066.8,1797.7,2067,1795,2067.6,1793.2z"/>
<path d="M890.4,2019.8c-4.6-0.2-7.6-0.2-10.4-0.6c-32.7-4.5-60.5-16.4-72.1-50.6c-9-26.5,4.2-60.2,31.2-82.6
	c35.9-29.6,86.3-34.8,122.7-12.6c45.7,28,50.4,79.8,10.2,114.8C948.1,2008.9,919.4,2017.1,890.4,2019.8z M911,1909.8
	c-0.5-1.3-1.1-2.7-1.6-4c-14.7,6.4-30.2,11.6-44,19.7c-9.2,5.4-15.4,15.2-11,27.4c4,11.1,12.6,19,23.9,17.8
	c17.9-1.9,36.1-5.4,53.1-11.2c11.8-4,22.9-13.4,19.6-28.6c-3.1-14.1-15.4-19-28.4-21.1C918.8,1909.3,914.9,1909.8,911,1909.8z"/>
<path d="M1238.2,1579.4c48.5-0.4,71.8,30.7,57.8,77.2c-13.6,45.3-66.9,84.3-114.5,80.3c-15.5-1.3-32.4-8.5-44.9-18
	c-16-12.1-24.1-30.4-17.1-52.1C1133.5,1623.2,1192.2,1579.8,1238.2,1579.4z M1250.9,1631.5c-33-3.6-67,13.3-77.3,37.2
	c-6.2,14.5-1.6,25,11.6,26.2C1212,1697.2,1249.6,1662,1250.9,1631.5z"/>
<path d="M1573.9,1825.8c-23.9-0.6-52.7-8.5-78.1-26.9c-38.2-27.7-36.8-71,2.9-96.2c45.1-28.6,135.7-9.1,164.5,35.4
	c13.3,20.6,9.9,45.6-8.7,64C1638.3,1818,1613.7,1826,1573.9,1825.8z M1618.7,1769.9c-6-20.2-19.4-23.3-32.8-25.8
	c-18.9-3.6-38-10.1-56.7,0.2c-10.5,5.7-10.6,16.8,1.1,22.1C1558.2,1779.1,1587,1782.6,1618.7,1769.9z"/>
<path d="M1717.9,1972.9c29.1,0,56.4,5.4,79,25.6c23.5,21.1,25.6,51.8,5.4,75.5c-36.4,42.6-119.5,52.2-164,18.9
	c-37.3-27.9-38.5-65.3-2.9-95.7C1654.2,1981.1,1681.7,1973,1717.9,1972.9z M1728,2019.4c-17.7,2.6-32.4,3.5-46.3,7.3
	c-7.5,2.1-17.4,7.9-19.4,14.3c-3.6,11.4,7.8,16.7,16.7,20.1c28.5,10.8,55.6,3.7,81.6-8.7c10.5-5,11-17.5,0.5-22.8
	C1750.1,2024.1,1737.4,2022.1,1728,2019.4z"/>
</svg>
