<?xml version="1.0" encoding="utf-8"?>
<!-- Generator: Adobe Illustrator 24.3.0, SVG Export Plug-In . SVG Version: 6.00 Build 0)  -->
<svg version="1.1" id="Layer_1" xmlns="http://www.w3.org/2000/svg" xmlns:xlink="http://www.w3.org/1999/xlink" x="0px" y="0px"
	 viewBox="0 0 4000 4000" style="enable-background:new 0 0 4000 4000;" xml:space="preserve">
<path d="M2554.2,1642c8,6.9,10.9,10,14.4,12.4c69.3,47,119.4,111.7,163.5,181.2c33.3,52.5,76.9,91.2,132.2,119.7
	c60.3,31,119.6,64.4,176.6,101c77.8,50,145.9,111.4,188.5,195.6c14.5,28.7,26.1,59.3,35.1,90.1c15.2,51.7,39.6,97.1,75.5,137.4
	c70.9,79.6,116.9,171.6,139,276.8c36.3,172.7,58.1,346.6,53.8,523.1c-1.3,52.6-6.6,105.6-16.1,157.3
	c-26.8,145.8-117.8,230-260.5,261.5c-142.2,31.4-277.9,13.3-408.8-50.5c-115.7-56.4-224.7-123.9-329.2-198.3
	c-180-128.1-358.6-258.3-538.3-386.9c-84.1-60.2-169.4-118.8-254.2-178.1c-3.5-2.4-7.6-3.9-14-7.1c-5.7,7.4-11.9,14.5-17.2,22.3
	c-105.9,157.4-210.1,316-318.1,471.9c-46.5,67.1-92.4,134.9-150.2,194.1c-123.5,126.4-354.3,124.5-476.9-18.2
	c-19.4-22.6-36.3-49-47.7-76.4c-67.5-163.8-123.1-331.4-145.6-508.1c-10.5-82.3-3.1-164.1,19.3-243.5c19.6-69.3,42.7-138,69.3-204.9
	c32.6-81.9,52.7-166,62.7-253.2c3.3-28.9,7.6-57.7,12.8-86.3c3.1-16.9-1.1-27.3-15.9-37.7c-54.5-38.7-108.1-78.6-161.1-119.3
	c-20.4-15.7-39.4-33.6-57.4-52.1c-38.3-39.4-55.3-86.6-47.8-141.8c6.2-45.9,12.9-91.8,18.1-137.8c12.6-111.3,25.4-222.6,36.4-334.1
	c10.2-102.9,61.2-175.9,156.3-215.5c90.1-37.5,185.6-47.6,282.2-43.1c113.3,5.4,225,22.6,333.8,56c24.9,7.7,28.3,6.4,37.3-15.7
	c23.8-58.7,59.2-110.1,99-158.5c78.8-95.6,168.5-179,279-237.2c32.3-17,66.2-31.6,100.5-44.1c53-19.3,93.8-51.2,120.9-101.2
	c17.5-32.2,36.6-63.5,56.9-94c45.9-69.1,110.4-114.7,188.9-139.3c42-13.2,85.3-22.5,128.6-31c53.9-10.6,102.6-31.4,146.2-65
	c52.3-40.2,107.4-75.7,169.8-98.8c84.5-31.2,170.9-44.4,260.1-26.3c48.5,9.8,87.4,34.7,114.9,76.9c75.5,116,140.5,237.4,186.4,368.3
	c35,99.6,19.8,194.2-39.4,280.3c-48.2,70.1-100.9,137.1-150.7,206.2c-121,167.9-241.4,336.2-362,504.4
	C2586.2,1596.5,2570.9,1618.3,2554.2,1642z M596,2893.8c1.2,86,24,173.4,77.4,251.5c60.6,88.6,146.1,113.7,245.7,74.6
	c58.7-23,108-60.2,148.1-106.9c62.3-72.7,122.7-147.5,179-225c160.8-221.5,319.4-444.6,478.4-667.5c154-215.8,307.7-431.8,461.1-648
	c79.2-111.6,156.9-224.3,236.5-335.6c119.8-167.4,241.1-333.7,350.3-508.4c49.7-79.4,101.3-157.9,137.2-245.1
	c23.6-57.2,41.1-116.2,37.3-178.8c-4.1-67.7-40.5-110.3-103.8-121.6c-70.6-12.6-139.5-5.7-207.6,14.3
	c-72.6,21.3-134.8,61.9-193.5,108.2c-38.7,30.6-81.4,52.3-129.8,62.4c-35.8,7.5-71.8,14.3-107.5,22.2
	c-93.4,20.9-169.6,67.2-220.5,150.5c-15.7,25.7-32.1,51.1-46.6,77.5c-31.6,57.3-77.9,95.9-139.3,118.9
	c-38.2,14.3-76.7,29.9-111.5,50.9c-183.1,110.6-322.2,258.1-383.2,468.9c-17.7,61.2-48.2,115.1-89.1,163.4
	c-42.5,50.2-87.6,98.2-128.6,149.5c-89.1,111.4-160.6,234.5-232.9,357c-53.5,90.6-82.7,189.2-95.3,293
	c-12.4,101.9-30.8,202.3-69.8,298c-12.6,30.9-23.6,62.5-35,93.9C621,2700.3,598.9,2791.1,596,2893.8z M1960.1,2498.9
	c13.4,10.1,22.5,17.6,32.2,24.2c52.6,35.7,105,71.7,158.2,106.7c187.3,123.1,372.4,249.7,569,358.1c83,45.8,165.8,92,254.8,125.8
	c73.3,27.9,148.7,38.2,225,17.2c143.3-39.3,243.1-173.6,235.5-345.7c-4.1-93.9-43.4-175.5-102.8-246.4
	c-49.2-58.8-86.7-122.4-108.7-196.2c-23.4-78.6-71.2-141.7-133.8-194.3c-63.1-53.1-132.1-97.2-206.3-132.4
	c-79.8-37.9-146.6-88.3-193.6-165.2c-23.9-39.2-56.4-73.4-86.9-108.2c-20.3-23.3-45.6-41.4-75-60.9
	C2337.7,1955,2149.9,2225.6,1960.1,2498.9z M3001.1,350.8c-2.4,0.4-4.8,0.9-7.2,1.3c-1.7,6.1-4.3,12.1-5.1,18.4
	c-10.3,78.5-43.5,148.4-80.7,216.8c-84.6,155.6-186.4,300.3-287.2,445.5c-78.6,113.4-160.2,224.7-239.8,337.4
	c-77.1,109.1-152.9,219.2-230.2,328.2c-100.9,142.5-202.8,284.3-304.1,426.6c-79.4,111.5-158.1,223.6-237.6,335
	c-90.8,127.2-182.4,253.9-273.5,380.9c-81.1,113-160.2,227.5-257.7,327.5c-3.8,3.8-8.5,7.7-10.1,12.5c-2.2,6.5-4.7,15.2-2,20.6
	c18.7,38.6,38.7,76.6,59.4,117.1c5.3-8,9.2-15.6,14.6-21.6c14.3-15.8,27.3-34,44.5-45.9c44.9-31.2,97.8-12.3,113.8,39.6
	c13.4,43.4,4.4,83.6-25.7,117.5c-20.6,23.3-46.6,34.2-78.5,25c-7.8-2.3-16.3-2.5-30.2-4.6c11.8,34.1,22,63.6,33.5,96.8
	c9.8-8.2,17-12.6,22.2-18.8c27.5-33.2,56.4-65.5,81.4-100.5c54-75.4,107.1-151.4,158.5-228.5c140.4-210.8,277.8-423.7,420-633.3
	c183.4-270.3,370.9-537.8,555.6-807.2c167.7-244.5,342.3-484.1,518.5-722.4c44.2-59.8,88.5-119.6,130.2-181.1
	c49-72.2,62.4-151.2,30.6-234c-23.6-61.2-50.6-121.2-77.2-181.2C3026.7,395.2,3013.2,373.3,3001.1,350.8z M3002.5,3659.7
	c4.8-8.7,9.1-13.8,10.7-19.8c12.7-47.8,27.8-95.2,36.4-143.7c18.3-102.9,0.7-203.8-24.1-303.8c-4-16.2-13.9-21.4-28.2-26.6
	c-46.4-17-93.8-32.6-137.8-54.8c-79.8-40.2-158.7-82.4-235.7-127.7c-227.6-133.9-447.5-279.9-663.3-432.1
	c-7.5-5.3-15.8-9.5-26.4-15.8c-33.1,52.9-63.8,103.4-95.8,153c-32.3,50.2-69.3,97.4-98.9,150.5c9.9,7.4,16.6,12.7,23.5,17.6
	c116.3,81.9,233,163,348.7,245.8c156.8,112.2,312.2,226.5,469.4,338.1c85.2,60.5,174.5,115,268,162.1
	C2897.3,3626.6,2947.3,3645.9,3002.5,3659.7z M1273.5,1193.8c-47.1-11.3-90.7-22.5-134.6-32.2c-125.4-27.6-251.9-33.9-378.8-12.7
	c-68.1,11.4-131,35.9-178.2,90c-46.5,53.3-55,123.7-23.3,186.7c20.8,41.3,51.2,75.1,86.5,103.5c81.5,65.4,164.4,129.1,247.2,192.8
	c21.8,16.7,26,14.2,42-10.7c32.1-49.8,62-101.2,98.2-147.9c42.8-55.3,92.5-105.2,136.6-159.6c27-33.3,51.1-69.3,72.5-106.5
	C1258.6,1267.6,1269.1,1234.4,1273.5,1193.8z M3468.3,2933.7c-2.2-0.7-4.3-1.4-6.5-2.1c-72.8,174.2-197.8,268.2-395.1,254.6
	c5.9,25.6,11.5,47.2,15.9,69.1c25.3,127.4,18.9,252.9-23,376.2c-3.9,11.5-12.8,22.9-5.3,38.6c98.5,4.1,195.4-2.3,285.5-49.3
	c69-36,113.2-92.3,131.1-167.6c8.9-37.5,14.6-76.2,17.5-114.6c7.3-93.7,0.4-187.4-6.9-280.9
	C3478.3,3016.3,3472.8,2975.1,3468.3,2933.7z M653.6,3196.9c1.8,12.3,1.7,18.5,3.6,24c21.6,64.3,41.9,129.1,66,192.5
	c12.5,32.9,28.1,65.9,48.7,94.3c83.5,115.3,247.6,132.5,370.7,66.9c16.5-8.8,15.3-22.2,10.8-36c-33.9-104.5-70.3-208.1-118.4-307.1
	c-2.2-4.6-6-8.4-10.1-14.1c-8.5,4.6-15.7,8.8-23.2,12.4c-27.2,12.8-53.7,28-82.1,37.6c-88.5,30-169.8,18.5-239.7-47.7
	C673,3213,665.6,3207.2,653.6,3196.9z M527.8,1469c-3,12.9-5.4,20-6.3,27.2c-12.7,102.7-24.1,205.5-38.4,308
	c-8.1,58.1,4.1,107.7,50.2,145.2c62.6,51,126.5,100.4,189.9,150.4c1.5,1.2,4.1,1.1,9.8,2.5c29.3-120.1,93.1-224.3,159-330
	C761.6,1680.4,628.2,1597.9,527.8,1469z"/>
<path d="M1112.3,2616.7c-1,90.4-98.9,156.2-183.9,126.1c-46.3-16.4-76.9-70.2-69.3-119.4c10.1-65,47.6-107.3,110-126.2
	C1040.3,2475.6,1112.5,2536.5,1112.3,2616.7z"/>
<path d="M1955.8,1134.5c-52.1-0.1-92.3-33.2-103.3-85c-16.1-76.1,33.2-149.7,109.5-163.6c67.3-12.2,133.3,47.9,130,118.4
	C2088.6,1075.1,2026.2,1134.7,1955.8,1134.5z"/>
<path d="M2313.8,610.7c-0.1-56,35.4-110.7,83.4-126.8c42.9-14.4,84.6-9.9,117.2,22.3c31.8,31.4,42.1,72,29.9,116.1
	c-12.7,46-58.8,98.1-130.1,96.9C2356.6,718.4,2313.8,671.7,2313.8,610.7z"/>
<path d="M1304.9,2105c-61.7-1.3-110.2-47.2-109.9-104c0.4-66,54.3-118.2,121-117.1c59.8,1,107,48.7,106.2,107.5
	C1421.3,2060.7,1374,2106.5,1304.9,2105z M1314.5,1912.6c-21-0.1-36.8,13.8-37,32.4c-0.2,17.8,13.1,31.2,30.2,30.5
	c19.3-0.7,37.8-16.7,38.2-33.1C1346.4,1926.2,1332.2,1912.6,1314.5,1912.6z"/>
<path d="M1705,1381.4c-0.8-63.6,48-116.5,108.8-117.7c61.2-1.2,112.6,50,113.1,112.9c0.5,61.8-48.6,109.9-114.3,111.7
	C1755.9,1490,1705.8,1440.2,1705,1381.4z M1814.8,1356.4c18.9-0.7,32.2-12.6,31.9-28.5c-0.3-17-13.8-31-29.8-31
	c-17.9-0.1-34.2,15-33.8,31.2C1783.4,1344.9,1797.1,1357,1814.8,1356.4z"/>
<path d="M826.9,2179c2.7-52.3,17.5-103.3,52.4-146.8c17.3-21.6,37.8-37.5,69.2-31.6c20.7,3.9,35.7,13.8,46.2,31.4
	c12.5,20.9,18.5,43.6,16.5,67.9c-3.9,48.5-14.1,95.8-33.3,140.6c-5.8,13.5-14.6,26.7-25,37.1c-32.3,31.9-80.6,25.6-105.4-12.4
	C833.3,2243.1,826,2213.8,826.9,2179z M869.6,2183.3c6.1,20.2,9.8,41.6,19.1,60.3c8.8,17.6,23.3,17.3,36.2,2
	c6.8-8.1,12.3-17.7,16.8-27.4c17.6-37.5,25-77.7,28.9-118.6c0.7-7.3-1.2-15-2.4-22.4c-2.4-14.7-8.4-27.6-24.2-31
	c-15-3.2-23.7,8-31.7,18.2C885.3,2098.9,874.2,2138.7,869.6,2183.3z"/>
<path d="M1430.4,1216.5c4-16.7,5.2-34.6,12.4-49.8c16.1-33.9,34.3-66.9,53.3-99.3c6.3-10.8,16.7-19.9,26.7-27.7
	c20.8-16.3,44.3-23.1,69.2-10c24.8,13,40.8,34.4,38.8,62.4c-5.1,72-34.9,132.5-91.4,178.7c-3.3,2.7-7.3,4.5-11.2,6.5
	C1475.8,1303.5,1431.4,1275.6,1430.4,1216.5z M1588.2,1107.4c0.7-20.4,0.5-33.3-14.8-39.2c-13.1-5-22.8,1.3-31.7,9.6
	c-4.7,4.3-9.6,9-12.5,14.5c-15.4,29.3-30.9,58.6-44.8,88.6c-4.8,10.4-7.8,22.9-7.2,34.2c0.5,9.4,5.1,21.9,12.2,26.7
	c5.1,3.4,19.6-0.8,25.9-6.3C1556.1,1199.6,1579.8,1153.9,1588.2,1107.4z"/>
<path d="M2135.5,1365.2c0.8,71.1-70.4,164.1-139.4,182c-35.9,9.3-59-6.4-63.7-43.5c-3.7-29.5,9-54.7,21.3-80
	c24.1-49.7,61.3-85.6,113.3-105.1C2109.4,1302.8,2135,1320.5,2135.5,1365.2z M1975.1,1433.8c-18.1,18.4-20.5,40-18.9,62.4
	c1.5,21.7,10.5,28.9,31.6,25.4c8.2-1.4,16.5-5,23.6-9.4c35.7-22.1,62.6-53.3,81.2-90.1c8.9-17.5,11.9-39,13.6-59
	c1.7-19.6-7.3-26.8-25.6-21.7c-27,7.6-51.3,20.4-66.4,44.6c8.4,21.7,34.6,32.4,29.4,59.8c-32.8-1.9-28.5-31.8-40.9-49.9
	c-13.8,9-19.3,20.4-13.6,35.7c5.3,14.1,12.2,27.5,17.3,41.7c2.5,7,2.6,15,4.4,27C1969.4,1489.8,1988.9,1455.2,1975.1,1433.8z"/>
<path d="M1503.3,2135.4c-8.5,67.7-47.8,128.1-114.4,169.8c-22.3,13.9-50.4,19.8-73.3,2.2c-24.4-18.8-23.2-47.5-14.6-74.3
	c22.6-69.7,66.2-122.7,132.2-155.3C1473.4,2058,1504.1,2079.2,1503.3,2135.4z M1468.5,2102.5c-26.4-7-41.6,5.5-56.7,17.6
	c-38.3,30.5-71,65.6-86.1,113.4c-5.2,16.5-7.7,34.6,7.3,48.1c9.9,8.9,34.4,4.7,51.4-7c0.9-0.6,1.9-1.1,2.6-1.9
	c23.1-26.7,48.5-51.8,68.5-80.7C1473.5,2165.9,1477.8,2134.7,1468.5,2102.5z"/>
<path d="M1753,1704.8c-3.2,99.1-105.7,172.7-197.3,139.7c-9.6-3.5-18.5-10.7-25.6-18.1c-3.3-3.4-3.9-13.1-1.4-17.3
	c2.5-4.2,10.6-7.4,16-7c8.3,0.6,16.5,4.1,24.5,7.1c70.2,26.1,147.1-39.1,140.6-113.4c-1.3-15.1-10.9-29.6-17.5-44
	c-3.1-6.7-10.3-12.1-11.7-18.9c-1.3-6.2,0.6-15.9,4.9-19.7c4.3-3.8,15.9-5.6,19.9-2.5c10.8,8.3,22.5,18.1,27.9,30.1
	C1742.2,1661,1746.6,1683.4,1753,1704.8z"/>
<path d="M1321,1450.7c-0.7-25.3,9.5-46,27.8-62.6c24.2-21.9,59.3-18.3,79.2,7.4c24.4,31.5,18.7,82.3-12.3,107.4
	c-18.3,14.8-38.4,18.1-60.1,8C1330.1,1499,1322,1476.8,1321,1450.7z M1368.6,1471.9c23.9-12.7,29.3-22.2,23.8-37.2
	c-1.8-5-8-11.3-12.5-11.6c-4-0.2-11.5,6.6-12.1,11.1C1366.3,1445,1368,1456.2,1368.6,1471.9z"/>
<path d="M1183.8,1700.8c2.4-10.1,2.1-16.5,5.1-20.2c12.4-15.4,18.9-31.8,17-52.2c-0.5-5.2,6.3-13.4,11.8-16.1
	c3.5-1.8,13.4,2.5,15.6,6.6c3.1,5.6,3,14,1.8,20.7c-0.9,4.6-5.5,9.1-9.5,12.5c-10.9,9.3-15,19.8-10.5,34c1.5,4.6,1.5,11.9-1.2,15.3
	c-4.6,5.9-11.8,13-18,13.2C1191.4,1714.6,1186.6,1704.2,1183.8,1700.8z"/>
<path d="M2849.2,424c-6.8-5.4-15.2-8.7-15.7-12.9c-2.1-19.1-2.8-38.4-2.1-57.6c0.2-4,8.6-10.7,13.2-10.7c4.9,0,11.5,5.5,14.3,10.4
	C2867.2,367.7,2862.8,400.7,2849.2,424z"/>
<path d="M2773.2,380.5c-1.6,7.4-2.9,18.2-6.8,28c-1.8,4.6-9,10.2-13.3,9.9c-4.9-0.4-12.8-6.5-13.3-10.8c-1.4-13.6-0.9-27.7,0.6-41.3
	c1.1-10.4,7.9-18.3,19.3-17.2c12.7,1.3,13,12.1,13.5,21.9C2773.3,373,2773.2,375.2,2773.2,380.5z"/>
<path d="M2141,559.2c-13.7-0.9-26.8-2.2-27.7-17.7c-0.8-14.4,10.2-20.4,23.2-21.7c6.3-0.6,14.1-1.5,19,1.4
	c7.6,4.5,17.2,11.2,19.1,18.7c3.4,13.4-10.5,13.3-19.2,16.3C2150.4,557.8,2145,558.3,2141,559.2z"/>
<path d="M2160.3,577.7c7.2,18.4,2.4,27.9-9.6,30.9c-12.2,3.1-25.5,4.2-38,3.2c-5.5-0.4-14.2-8.1-14.5-12.9
	c-0.3-5.2,6.6-14.7,11.7-15.8C2126.2,579.7,2143.1,579.3,2160.3,577.7z"/>
<path d="M897.9,2975.4c0.5,17.7-23.3,44.9-37.6,46c-10.6,0.8-16.1-4.7-16.1-14.9c0-15.3,25.4-39.6,41.3-38.6
	C890.3,2968.1,894.8,2973.4,897.9,2975.4z"/>
<path d="M1207.5,2474c-4.9-14.2,2.3-23.5,14.6-26.7c12.8-3.3,27-5.1,39.9-3.2c9.3,1.3,8.4,15.2-0.9,22.9
	C1248.6,2477.1,1228.3,2479.8,1207.5,2474z"/>
<path d="M2178.1,1205.7c3.1,3.7,11.2,9.4,13.2,16.8c3.6,13.6-7.2,27.6-19.1,28.8c-11.9,1.2-24.2-9-24.6-20.6
	C2147.1,1218,2158.4,1206.6,2178.1,1205.7z"/>
<path d="M2377.6,988.6c0.5,19.3-11,34.7-23.1,36c-10.5,1.2-15.7-4.6-16.5-14.7c-1.2-13.7,11.6-34.7,23-33.6
	C2367.9,977,2374,985.8,2377.6,988.6z"/>
<path d="M947.4,3067.4c0.2,18-16.1,33.3-30.2,33.1c-9.7-0.2-16.2-4.8-16.1-15.5c0.1-12.8,17-29.6,29.9-27.6
	C937.7,3058.4,943.6,3065,947.4,3067.4z"/>
<path d="M2390.5,1091.9c2.5,4.8,9,12.1,9.5,19.7c0.9,12.3-13.7,23.7-25.9,22.5c-9.3-0.9-16.4-5.1-16-16
	C2358.7,1104.3,2372.7,1090.5,2390.5,1091.9z"/>
<path d="M1245.1,2396.9c-0.4,10.3-19.3,27.5-29.6,24.6c-6.3-1.7-13.6-10-15-16.5c-2.7-12,10.2-22.9,24.6-22.7
	C1235.1,2382.5,1244.3,2384.7,1245.1,2396.9z"/>
<path d="M1274.7,1649c2.5,5,7.7,11.5,8.9,18.7c2.3,14.2-8.2,28.8-19.4,28.5c-10.8-0.3-14.2-8.1-14.3-17.7
	C1249.6,1664.5,1260,1649.4,1274.7,1649z"/>
<path d="M2474.4,980c2.4,3.2,9.5,8.4,10.8,14.9c2.5,12.3-11,25.9-22.6,25.2c-10.6-0.6-14.5-7.6-14.8-17.1
	C2447.5,989.5,2455.9,980.4,2474.4,980z"/>
<path d="M978.6,2969.5c-0.9-16.4-2.4-31.1,16.4-34.1c11.8-1.8,16.9,6.8,16.8,18C1011.7,2967.5,1006.2,2970.4,978.6,2969.5z"/>
<path d="M2693.7,2267.9c-70.9-1.4-118.8-44.5-117.7-106c1.3-67.6,55.8-119.9,123.7-118.7c63.5,1.1,113,55.3,111.6,122.1
	C2810.1,2225.5,2760,2269.2,2693.7,2267.9z"/>
<path d="M2610.7,2531.9c1.4-67.5,49.9-114.9,115.3-112.8c67.8,2.2,116.8,48.2,115.6,109.7c-1.3,66.9-49.3,111.3-127.5,113
	C2656.9,2643,2609.5,2591.2,2610.7,2531.9z M2805,2522.3c1.5-19.7-8.2-32.9-25.4-34.8c-19.1-2.1-38,13.2-38.5,31
	c-0.4,15.9,13.4,31.8,29.2,33.5C2789.1,2554.1,2803.6,2541.6,2805,2522.3z"/>
<path d="M3170.1,2492.2c-2.5,18.9-2.7,33.1-6.4,46.4c-11.5,41.3-48.9,56.9-88.9,40.8c-54.3-21.8-109.3-146.6-62.2-216.9
	c29.6-44.2,87.9-46.4,119.5-3.6c9.4,12.7,17.1,27.9,20.9,43.1C3160.6,2433.2,3165.1,2465.1,3170.1,2492.2z M3129.3,2500
	c-5.7-28.1-11.7-59.6-18.9-90.9c-1.9-8-6.8-15.8-12-22.4c-15.9-20.2-35.8-19.1-49.5,2.9c-4.4,7-7.4,15.8-8.1,24
	c-3.7,42.5,10.3,80,34.8,114c3,4.2,7.6,7.7,12.1,10.4c14.8,8.7,30.6,3.7,36.9-12.2C3127.2,2519,3127.3,2511.2,3129.3,2500z"/>
<path d="M2757.1,2843.5c-67.5-3.8-124.9-29.2-167.4-83.1c-18-22.8-30.6-49.1-13.8-77.3c16.6-27.9,45.4-29.7,74.4-26.1
	c52.9,6.7,99.3,28.4,137,65.7c14.7,14.6,27.6,33.6,34.5,53.1c13.1,36.9-6.5,63.5-45.4,67.6C2770,2844.1,2763.5,2843.5,2757.1,2843.5
	z M2777.2,2758.3l0.7,0.7c-23.6-34.3-56.6-53.2-97.2-59.7l1,1.1c-2.2-17.4-17.4-13.4-27.6-15.4c-19.1-3.7-39.4-5.6-53.3,12.3
	c-9.2,11.9-0.9,34.8,17.3,54.6c31.8,34.6,73.3,51.7,117.3,63.4c12.1,3.2,25.8,2.6,38.4,0.8c23.9-3.5,32-21.7,19.5-42.5
	C2789.5,2767.6,2782.6,2763.4,2777.2,2758.3z"/>
<path d="M2260.5,2291.7c-2.8,12-5.6,24.2-8.4,36.4c-10.7,46,6.2,88.7,45.5,114.7c39.9,26.3,86.2,26.6,123.8,0.5
	c7.1-4.9,13.3-11.6,21-14.7c5.8-2.4,15.9-3,19.5,0.5c4.1,3.9,6.7,15.4,3.9,19.6c-7.6,11.3-16.9,22.6-28.1,30.1
	c-71.1,48.1-179.1,16.6-213.6-61.9c-15.7-35.8-19.4-72.5-5.5-109.8C2226.5,2285.6,2233,2283.3,2260.5,2291.7z"/>
<path d="M3330.4,2810c-3.8,8.5-6.1,15.6-9.9,21.8c-10.6,17.2-21,34.7-33.3,50.8c-4.1,5.4-13.3,6.8-20.2,10c-1.8-7.6-4.1-15.2-5.2-23
	c-0.4-2.7,2-6,3.6-8.8c10.7-18.2,20.8-37,32.9-54.2c3.8-5.4,13.4-8.5,20.6-9.1C3322.3,2797.3,3326.4,2805.4,3330.4,2810z"/>
<path d="M3189.5,2868c-16.6-16.1-20-38.6-7.4-52.9c3.5-3.9,11.6-7,16.2-5.7c4.9,1.4,10.6,8.1,11.5,13.3
	C3213.1,2841.9,3207,2857.7,3189.5,2868z"/>
<path d="M3040,2907.4c12.3,0.5,21.1,11.1,19.6,24.2c-1.4,12.1-8.1,19.8-20.5,20.5c-11.6,0.7-22.3-11-22-22.8
	C3017.5,2917.3,3028.3,2906.9,3040,2907.4z"/>
<path d="M2524.3,1924.4c-4.7,2.4-12.1,9-19.5,9.2c-12.8,0.3-22.6-12.1-21.1-23.7c1.5-11.2,8.3-17.5,19.9-16.1
	C2514.7,1895.1,2525.6,1908.6,2524.3,1924.4z"/>
<path d="M3260.9,2755.6c0.4,18-12.4,35-21.8,31.9c-6.5-2.2-13.7-10.2-15.4-16.9c-3.3-13.4,9.2-28.1,21-25.6
	C3251.5,2746.5,3257.2,2753.1,3260.9,2755.6z"/>
<path d="M2429,1981.4c-27.9,2.2-38.8-3-36.8-18c0.8-6.3,8.5-15.2,14.6-16.6C2420.8,1943.5,2429.2,1957,2429,1981.4z"/>
<path d="M3085.2,761.2c-1.5,54.9-26.4,96.8-73.8,123.9c-58,33.1-117.3-2.5-114.7-69.1c1.9-48.7,24.4-88.5,62.3-118.9
	c26.6-21.3,57.7-26.1,88-12C3077.7,699.4,3086,728.9,3085.2,761.2z"/>
<path d="M2401.2,1546.7c-4.2,32.3-17.9,61.7-47.8,81.3c-17.7,11.6-36.4,11.8-54.1-0.6c-15.9-11.2-22.5-30.8-16.4-51.6
	c9.1-31.1,26.8-56.4,56.4-70.9C2370.9,1489.5,2401.5,1509.7,2401.2,1546.7z"/>
<path d="M1795.7,2492.7c-2.4,24.2-14.1,50.1-41.5,65.9c-35.3,20.4-69.4,0.3-68.3-40.4c0.9-32.2,15.1-58.1,43.5-74.5
	c16.1-9.3,33-9.6,49.1,0.4C1794.2,2453.7,1797.3,2469.2,1795.7,2492.7z"/>
<path d="M1487.3,2928.5c9.7,24.2-8.9,35.4-18.8,52c2.5,5.3,5.3,11.6,8.1,17.4c-3.1,2-5.6,4.4-6.5,4c-18.8-9.8-27.5-23.6-25.4-39.6
	C1446.9,2945,1460.4,2933.9,1487.3,2928.5z"/>
<path d="M2655.5,1072.4c0.5-29.6,12.9-46.6,28.9-60.8c4.1-3.6,15.6-4.1,20-0.9c4.5,3.3,8.1,15.1,5.6,19.3
	C2698.6,1049.3,2683.6,1065.4,2655.5,1072.4z"/>
<path d="M1473.6,2806.8c-2.3-4.1-8.3-10.3-9.1-17c-1.9-16.7,10.4-31.6,24.2-31.4c10.4,0.1,15.1,6,14.9,16.3
	C1503.4,2790.6,1490.8,2807.1,1473.6,2806.8z"/>
<path d="M1558.9,2798.2c11.2,19.5,3,33-9.3,43.9c-4.2,3.7-14,4.1-19.7,2c-3.2-1.2-5.5-11.4-4.1-16.5
	C1529.7,2812.4,1538.9,2801.3,1558.9,2798.2z"/>
<path d="M2095.2,1939.6c12.5-0.3,24,9.4,23.9,20.4c-0.2,13.3-9.3,18.7-20.5,19.8c-12.5,1.3-19.9-5.5-20.6-18.4
	C2077.4,1949.4,2081.9,1940.9,2095.2,1939.6z"/>
<path d="M2138.8,2037.7c0.2,16.8-12.1,27.8-26.4,28.5c-9.2,0.5-17.8-1.2-17.7-13.1c0.1-11.2,14-27.1,24.3-25.6
	C2126.8,2028.6,2133.8,2035,2138.8,2037.7z"/>
<path d="M2721.1,1212.2c0.2,18.4-10.8,26.8-26.8,26.2c-9.7-0.3-17-4-17.1-14.6c-0.1-11.2,14.5-23,27.6-20.8
	C2711.4,1204,2717.4,1209.9,2721.1,1212.2z"/>
<path d="M2077.2,2110.4c0.5,17.1-9.4,28.1-21,28c-9.5-0.1-16.2-4.1-17-14.6c-0.9-12.6,11.2-27.1,22.7-24.7
	C2068.5,2100.6,2073.8,2107.8,2077.2,2110.4z"/>
<path d="M3023.4,511.7c-6.2,3.4-14.2,11-23,11.9c-10.5,1.2-17.6-6.9-16-18.8c1.6-11.3,8.4-16.8,20-15.4
	C3014.7,490.5,3023.3,493.8,3023.4,511.7z"/>
<path d="M2659,1310.2c-2.1-3.9-8.4-10.2-8.6-16.7c-0.5-12,15.8-25.4,26-21.7c5.5,2,11.7,9.4,12.7,15.2
	C2691,1297.8,2675.2,1311.4,2659,1310.2z"/>
<path d="M2313.1,1712.9c-1.8,9.6-1.6,19.5-5.8,26.7c-3.3,5.6-12.8,12-18.3,11.1c-11.9-2.1-12.4-14.1-8.9-23
	C2285,1715.3,2294.5,1707.7,2313.1,1712.9z"/>
<path d="M2260.7,1732.1c-9.6,10.4-15,20-23.1,23.9c-8,3.9-14.3-3.9-13.4-12.7c1.2-10.4,2.6-23,16.1-24.1
	C2245.5,1718.7,2251.1,1725.7,2260.7,1732.1z"/>
<path d="M2018.4,2921.5c4.7-14,7.3-29.2,14.4-41.9c15.4-27.8,43.1-37.6,71.3-23.2c16.5,8.4,33.9,21.1,43.2,36.5
	c14.8,24.3,27,51.7,33.4,79.3c11.3,48.6-28.2,81-76.1,65.6C2059.6,3023.4,2020.8,2969.8,2018.4,2921.5z M2137.6,2979.4
	c-4.9-26.7-14.4-54-37.7-73.4c-5.8-4.8-18.8-5.7-26-2.5c-4.8,2.1-8.3,15.1-6.8,22.1c2.7,13.4,7.3,27.4,14.8,38.7
	c8.1,12.1,19.1,23.4,31.3,31.2C2126,3003.7,2137,2996.2,2137.6,2979.4z"/>
<path d="M2654.6,3269.3c-3.3,2.9-8.5,10.5-15.3,12.4c-10.6,2.9-24.2-14.4-24.1-28.8c0.1-9.4,3.2-17.4,13.9-18.1
	C2639,3234.2,2654.6,3252.8,2654.6,3269.3z"/>
<path d="M2744.2,3242.8c-4.2,2.1-10.8,7.7-17.5,8c-11.4,0.4-23.1-14.9-22.3-27.2c0.6-9.2,4.6-16.8,15.7-16.1
	C2731.3,3208.2,2745.4,3225.9,2744.2,3242.8z"/>
<path d="M2365.8,3028.2c-17.6-1.9-27.1-5.6-27-19.5c0.1-14.6,10.4-17,21.8-16.8c14.2,0.1,26.4,10,22.4,20.2
	C2380.1,3019.8,2369.8,3024.7,2365.8,3028.2z"/>
<path d="M1921.9,2699.9c-9.2,6.7-14,12.7-19.6,13.6c-11,1.7-23.4-14.2-23.7-28.5c-0.3-10,5.8-19.6,14.3-15.1
	C1903.4,2675.4,1910.5,2687.5,1921.9,2699.9z"/>
<path d="M2321.3,2937.3c3.4-2.5,8.1-8.5,13.8-9.6c12.7-2.5,28.4,8.8,27.2,20.3c-0.6,6.1-8.2,14.8-14.1,16.3
	C2337.6,2967.1,2322.7,2952.4,2321.3,2937.3z"/>
<path d="M1986.7,2677.6c-13.1,8.1-21.6,17.4-27.4,16c-7.1-1.8-11.9-12.6-17.7-19.5c6.1-4.8,12.5-13.8,18.2-13.4
	C1967.3,2661.2,1974.2,2669.2,1986.7,2677.6z"/>
<path d="M2740.4,3350.3c-9.6,7.1-14.4,13.1-20.1,14.2c-10.5,2-21.5-8.9-19.4-19.4c1.2-5.7,10.5-15.1,12.2-14.4
	C2721.6,3334.7,2728.8,3341.5,2740.4,3350.3z"/>
<path d="M1042.9,1354.8c-48-0.1-87.8-38.9-87-84.8c0.9-48.5,44.4-89.3,95.6-89.4c53.6-0.2,91.3,33.8,91.6,82.5
	C1143.3,1313.9,1098.5,1354.9,1042.9,1354.8z"/>
<path d="M694.9,1469c-3,1.9-7.4,5.6-12.5,7.8c-2.5,1-6.3-0.4-9.2-1.3c-15.1-4.9-28.8-24.9-23.3-36.7c2.4-5.1,11-10.4,16.7-10.3
	C680.2,1428.8,697,1452.3,694.9,1469z"/>
<path d="M950.3,1426.4c21.5-0.3,34.1,7.5,33,18c-0.9,8.5-19.5,21.7-30.1,20.2c-11.9-1.6-20.3-8.9-21.1-21
	C931.2,1429,942.3,1426.8,950.3,1426.4z"/>
<path d="M667,1318.3c18.2,0.3,31.8,11.4,31.1,22.5c-0.7,10.6-6.4,18.1-17.8,18.8c-12.1,0.7-26.4-15.6-23.5-28.5
	C658,1325.5,664.6,1321.1,667,1318.3z"/>
<path d="M756.6,1406.7c-4,2.2-10.3,8-17.2,8.9c-13,1.8-23.4-8.7-22.4-21.2c0.8-10.2,4.4-19.3,16.9-19.6
	C745.7,1374.5,757.5,1388.4,756.6,1406.7z"/>
<path d="M948.7,1494.3c17.8-16.2,28.8-18.8,41.1-9.6c8.2,6.2,7.7,15.7-1.2,20.9C975.6,1513.4,960.9,1509.2,948.7,1494.3z"/>
<path d="M3358.2,3447.3c-13.5-34.9-6.4-46.2,25.3-44.1C3388.9,3433.7,3387,3437.3,3358.2,3447.3z"/>
<path d="M3292,3374.3c-1,18.9-14.6,34.6-23.8,30.6c-5.7-2.5-10.7-12.3-11.3-19.3c-1.2-13.8,8.9-24.6,20.7-22.5
	C3283.9,3364.2,3289,3371.8,3292,3374.3z"/>
<path d="M3324.5,3478.9c-13.9,10.1-21.2,19.4-29.1,19.9c-5.9,0.4-15.5-9.6-18.1-16.9c-3.9-10.9,4.6-19.3,15.3-18.2
	C3301.3,3464.6,3309.4,3471.3,3324.5,3478.9z"/>
<path d="M883.3,3429.8c-24.8,1.6-35.3-4.1-40.2-22.5c-1.4-5.4-0.6-14.1,2.8-17.2c3.6-3.3,12.9-4.2,17.5-1.9
	C879.1,3396.1,887.9,3408.7,883.3,3429.8z"/>
<path d="M907.5,3345.5c17.1-0.5,27.7,9.7,27.8,21.7c0.1,10.5-6,15.7-15.5,16.6c-10.3,1-24.1-11.6-22.6-22.2
	C898.2,3355,905,3349.2,907.5,3345.5z"/>
<path d="M544.3,1853.2c0.1-1.1,0.2-5.5,0.6-9.7c5.7-50.5,46-70.1,88.1-42c35.5,23.8,54.1,58,55.3,100.8
	c1.4,51.6-43.9,79.2-88.7,53.4C562,1934,543.8,1900,544.3,1853.2z M641.7,1915.9c3.9-43.4-11.1-69.7-42.7-75
	c-13.1,20-4.7,39.1,4.2,57.2C610.4,1912.3,621.9,1921.8,641.7,1915.9z"/>
<path d="M753.3,1833.6c-1.6,7.8-1.9,13.3-3.9,18c-4.4,10.4-13.5,12.3-19.8,4.2c-6.9-8.9-11.5-20.3-14.1-31.3
	c-1.3-5.4,3.6-17.1,7.1-17.7c7-1.2,17,1.2,21.9,6C749.9,1818,751,1827.7,753.3,1833.6z"/>
<path d="M2064.2,1410.1c-5-12.8-10-25.6-15.9-40.8C2078,1373.2,2081.1,1379.8,2064.2,1410.1z"/>
<path d="M1358.7,2200c5.4,14.2,11.9,28.1,15.6,42.7c1.2,4.9-3.5,15.2-7.8,16.8c-9.3,3.6-16.1-2.8-18.5-12.5
	c-3.9-15.8-1.3-30.8,2.9-45.6C1353.5,2201,1356.1,2200.5,1358.7,2200z"/>
<path d="M1409.7,2214c-25.8-15.6-31.2-27.3-25.3-54.9C1406.5,2171.3,1413.6,2186.6,1409.7,2214z"/>
<path d="M1414.1,2126.8c33.4,6.3,37.2,14.2,28.4,52.4C1432.6,2160.8,1424.9,2146.7,1414.1,2126.8z"/>
<path d="M2728.7,2736.3c-9.8,11.8-16.6,21-24.4,29.2c-6.8,7.1-16.3,8.6-21.9,0.3c-2.6-3.8-0.1-14.4,3.7-18.5
	C2695.4,2737,2706.9,2729,2728.7,2736.3z"/>
<path d="M2777.2,2758.3c-2.5,32.3-14.6,39.4-48.8,26.5c10.9-20.7,29.7-24.2,49.6-25.7C2777.9,2759.1,2777.2,2758.3,2777.2,2758.3z"
	/>
<path d="M2680.7,2699.4c-12.1,31.1-29.6,42-56.2,33.2c10.5-26.9,36.8-24.4,57.2-32.1C2681.6,2700.5,2680.7,2699.4,2680.7,2699.4z"/>
</svg>
