<?xml version="1.0" encoding="utf-8"?>
<!-- Generator: Adobe Illustrator 24.3.0, SVG Export Plug-In . SVG Version: 6.00 Build 0)  -->
<svg version="1.1" id="Layer_1" xmlns="http://www.w3.org/2000/svg" xmlns:xlink="http://www.w3.org/1999/xlink" x="0px" y="0px"
	 viewBox="0 0 4000 4000" style="enable-background:new 0 0 4000 4000;" xml:space="preserve">
<path d="M118.3,1947.3C138,1373,365.6,885,829.9,514.7c222.4-177.5,475.1-295,753.9-352.3c84.3-17.3,171.1-25.9,257.2-31.1
	c245.7-14.9,485.5,16.1,719,96.7c181,62.5,349,149.7,503.9,261.3C3233.3,611.5,3374.9,761.7,3493,934
	c149.6,218.3,247,458,290.1,718.8c45.7,276.6,31.9,550.5-43.5,821.3c-93.6,336.2-269.3,621.6-526.4,856.5
	c-257.8,235.6-561.1,384.1-901.5,456c-164,34.6-330.6,40.4-498,26.9c-193.5-15.6-379.4-61.5-557.9-136.4
	C1012.1,3574.9,800,3426.3,619,3233.8C397.3,2998,248.6,2722.4,172.7,2408C137.4,2261.8,123.5,2112.8,118.3,1947.3z M2582.1,3250.2
	c62.4-3.2,121.9-4.3,180.9-9.9c38.4-3.6,77.5-9.7,113.9-21.8c53.6-17.7,92.5-54.9,106.4-111.3c9.8-40,14.3-81.2,21-121.9
	c7.4-44.3,11.3-89.6,22.7-132.8c22.5-85.6,74.5-150.3,154.4-189.2c41.4-20.1,85.6-34.4,128.8-50.7c38.7-14.6,78.5-26.2,116.4-42.6
	c91-39.4,143.7-108,156.4-208c9.4-74.1-1.2-146-19.6-216.8c-17.1-65.9-40.1-130.2-59.1-195.6c-28.8-99.1-15.8-192.6,40.4-279.8
	c13.9-21.5,26.3-43.8,39.7-65.6c26.8-43.3,41.9-90.7,46.9-140.9c7.9-78.2-14.4-146.7-69.8-203.6c-34.7-35.6-76.3-60.3-122.3-77.8
	c-35.2-13.4-71-25.5-106.4-38.4c-114.8-42-194.5-117.6-228.2-237.6c-11.2-39.8-22.5-79.6-34.4-119.3
	c-34.5-114.2-98.4-167.2-217.2-179.1c-20.5-2.1-41.6-2.8-61.9-0.2c-85.6,11.1-171,24-256.5,35.9c-74.9,10.4-150.2,18.3-225.5,7.6
	c-23.5-3.3-39.9,1-54.7,18.6c-12.8,15.2-28.2,26.3-49.2,28.6c-64.1,7.1-112-43.6-97.9-107c4.2-18.9,0.7-28.7-14-39.8
	C2039,510,1985.5,467.8,1932,425.6c-53.7-42.3-108.9-82.2-171.2-111c-98.1-45.4-197.8-55.4-301.3-18
	c-74.7,27-134.8,72.9-181.5,135.8c-51.3,69.1-115.4,121.3-193.8,156.5c-84.4,37.9-136.8,103.4-161.7,191.4
	c-15.9,56.2-29.4,113.1-45.5,169.2c-33.9,118.6-96,217.9-200.7,286.9c-47.8,31.5-97.3,60.3-144.5,92.5
	c-39.1,26.7-79.4,53.1-113.3,85.7c-88,84.5-133.9,202.3-64.4,342.6c17.3,34.9,37.5,68.2,56.5,102.2c38.7,69.4,63.4,143.2,57.3,223.2
	c-5.1,66.6-17.6,132.5-24.8,199c-5.9,54.3-14.7,109.2-11.9,163.3c5.4,105,57.5,181.7,157.4,221c48.6,19.2,98.5,35.1,147.6,53.2
	c89.1,33,154.6,92.1,189.3,181c18.9,48.6,31.4,99.7,46.8,149.6c13.3,43,23.5,87.3,40.7,128.6c63.3,151.5,200.5,223.1,361,188.6
	c64.1-13.8,126.9-34.1,190.9-48.5c94.3-21.3,184-7.9,266.7,43.5c27.9,17.3,54,37.4,81.4,55.6c36.4,24.2,71.8,50.6,110.3,71
	c111,59,227.8,41.4,316-44.6c48.5-47.3,95.8-95.8,145.6-145.7c-16.7-2-34.7-2.4-51.7-6.5c-23.3-5.6-48.2-10.3-68.5-22
	c-45.7-26.4-43.9-77.7,3.9-99.6c53.7-24.6,110.5-29.9,166.6-6c45.5,19.3,53.4,35.4,46.5,84.3
	C2581.5,3249.7,2582.3,3250.8,2582.1,3250.2z M1316.7,300.1c-19.6,6.6-33.4,10-46.2,15.9c-28.7,13.2-57.1,27.3-85.3,41.6
	c-152.7,77.5-294.7,170.7-421.5,286.6C616,779.2,491.4,932.8,395.9,1108.8c-169,311.9-242.8,644.5-215.4,999.3
	c20.1,261.5,91.5,507.5,220.3,735.6c185.5,328.6,450.3,575.1,788.2,742.2c189.5,93.7,390,150.1,601,168.9
	c193.1,17.2,384.6,8.4,573.2-37.3c251.6-61,481.8-168.1,688-325.6c139.2-106.3,264.2-226.9,367.9-368.4
	c194.3-265.1,296.9-564.7,329.4-889.5c20-200.5,2.3-398.8-44.3-594.6c-3.9-16.6-9.7-32.8-16.8-56.3c-5.5,12.6-8.3,16.7-9.1,21.2
	c-10,57.4-34.5,108.7-64.9,157.7c-14.1,22.8-27.3,46.1-39.8,69.7c-26.7,50.1-36.9,103.6-23.8,159.1c12,50.9,25.8,101.5,42.1,151.1
	c32.3,97.9,55.4,197.2,48.1,301c-8.8,125.4-67.8,219-181.5,275.4c-25,12.4-51.6,21.6-77.9,31c-43.5,15.5-87.8,29.1-131.1,45.2
	c-100.4,37.4-164,106.8-180.5,214.8c-7.9,51.7-13.4,103.8-21,155.6c-19.8,134.9-100.6,213.2-236.3,227.8
	c-38.7,4.2-77.7,6.6-116.5,7.3c-86.3,1.5-162.7,26.1-224.6,88.9c-38.5,39-77.1,77.8-116.9,115.5c-51.8,49.1-114.6,71.3-185.5,73.9
	c-73.2,2.8-139.9-17.7-200.9-56.1c-42.1-26.6-82.2-56.6-122.1-86.6c-68.9-51.9-144.8-80.5-231.7-68.8c-37.2,5-73.7,15.4-110.4,23.9
	c-53.3,12.3-105.8,30.5-159.8,36.5c-150.5,16.8-269.2-38.7-350.3-168.5c-31.3-50.1-49.7-105.5-65-162.1
	c-12.7-47-25.1-94.1-39.3-140.6c-30.9-101.3-100.2-164.1-199.5-196.5c-41.6-13.6-83.1-28-123.9-43.7
	c-87.1-33.7-146.1-95-174.7-184.1c-17.8-55.3-21.1-112.7-13.9-169.9c7.8-61.5,18.5-122.7,28.9-183.8c19-112.1,7-218.1-57.3-315.2
	c-16.7-25.3-31.7-52.1-44.8-79.4c-63.1-131.2-47.6-254.7,38.6-370.6c38.5-51.7,89.3-89.2,143.2-123.1
	c52.5-33.1,105.9-64.9,157.9-98.7c88.3-57.4,146.9-137.3,175.8-238.7c5-17.5,10.1-35.1,14.8-52.7c12.2-45.8,22.5-92.3,36.8-137.4
	c29-91.6,81.5-165.4,168.6-211.1c20.5-10.8,40.2-22.9,60.4-34c40.9-22.6,76.7-51.1,107.4-86.7c32.5-37.8,66.6-74.2,99.8-111.4
	C1309.7,315.5,1311.1,310.9,1316.7,300.1z M2338.9,586.3c1.3,2.6,2.5,5.2,3.8,7.9c9.4,0.7,18.8,1.7,28.2,2.1
	c71,2.5,140.9-6.8,210.5-19.2c87.6-15.5,175.2-28.9,264.7-25.4c107.6,4.2,227.7,54.4,273.1,202.8c13.5,44.2,26.9,88.5,39.2,133.1
	c27.4,99.1,90.1,163.6,186.2,199.6c73.8,27.7,150.7,49,217.4,93.5c1.9,1.3,5.8-0.4,11.9-1.1c-120.2-235.4-278.8-436.2-483.7-599.7
	c-205.7-164.1-437.3-275.6-691.5-343.1c-274.2-72.8-653.2-58.5-764.1-21.9c3.6,2.1,6.4,5,9.6,5.5c114,17.7,211.2,70.3,300,141.7
	c59.7,48,120.6,94.6,181.4,141.3c24.4,18.8,26.4,18.8,49-2.4c25.7-24.2,49.7-50.1,75.2-74.6c20.2-19.3,40-39.5,62.5-55.8
	c32.8-23.8,70.2-19.2,99.9,8.6c36.3,34,45.5,71.4,20.5,107.2c-19.3,27.6-44.6,51.2-67.6,76.1C2357,571.1,2347.6,578.4,2338.9,586.3z
	 M2347.5,410.9c-6.1,4.2-16.9,9.7-25.1,17.7c-45.8,45.1-91.2,90.6-136.2,136.5c-8.4,8.6-15.5,18.6-22.1,28.7
	c-10.4,16-4.8,30.3,7.3,42.6c12.3,12.5,26.1,13.3,42.4,0.8c13.4-10.3,25.4-22.5,37.4-34.5c43.6-43.8,87.2-87.8,130.2-132.1
	c9.2-9.5,18.6-20.6,9.8-35.4C2382.7,420.9,2370.4,411.9,2347.5,410.9z M2442.8,3261.7c41.3-2,72.1-1.2,97-22.6
	c18.9-16.2,17.6-31.9-4.8-41.5c-15.3-6.6-32.1-11.4-48.6-13.5c-36.3-4.6-72.9-4-105.4,15.5c-26.3,15.7-25.6,36,2.5,47.4
	C2405.4,3255.8,2429.8,3258.6,2442.8,3261.7z"/>
<path d="M1947.5,1406.1c301-0.1,552.8,256.9,550.3,566.5c-2.3,279.7-218.4,562.6-549.9,564.1c-317,1.5-565-247.5-565.8-561.4
	C1381.5,1699.7,1606.4,1402.8,1947.5,1406.1z M2442.6,1971.9c6-270-217.7-509.1-498.8-509.3c-277.9-0.2-506.2,236-507.3,512.7
	c-1.1,263.7,220.1,505.8,499.2,506.8C2218,2483.1,2446,2246,2442.6,1971.9z"/>
<path d="M2235.4,2995.8c0.1-76.7,59.4-138,134.5-138.9c77.9-1,141.9,59.8,142.7,135.4c0.8,81-61.2,145.7-140.5,146.4
	C2300.6,3139.3,2235.3,3071,2235.4,2995.8z M2406.3,2981.5c26.1,0.7,45.6-17.1,45.9-41.6c0.2-20.6-17.6-38.5-39.8-40
	c-24.5-1.7-44.6,17.1-45.1,42.3C2366.8,2964,2383.5,2980.9,2406.3,2981.5z"/>
<path d="M1463,2858.2c77,0,137.7,59.2,138,134.7c0.4,77.9-63.1,144.4-138.5,145.3c-75.2,0.8-139.6-65.6-139.3-143.6
	C1323.7,2916,1382.9,2858.2,1463,2858.2z M1538,2939.7c0.8-21.1-19.5-40.9-41.9-41.1c-24.9-0.2-47.2,21.1-47.3,45.1
	c0,19.7,19.2,38.8,39.7,39.5C1512.9,2984,1537.1,2962.7,1538,2939.7z"/>
<path d="M3133,1471.3c-58.5,0.7-95.6-28.4-101.2-73.2c-6.8-54.2,18.9-94.6,72-105.1c53.6-10.6,108-17,162.1-24.5
	c26.5-3.7,53.1-7,79.8-7.9c48.2-1.6,82,27.1,89,73.1c8.6,57-11.7,94.2-64.2,104.8c-58.2,11.8-117.5,18.3-176.5,26.5
	C3171.2,1468.2,3148.1,1469.8,3133,1471.3z M3138.2,1416.6c72.1-10.4,144.1-21,216.2-30.9c16.1-2.2,23.1-10.2,24.4-26
	c2.5-32.7-12.2-47.5-45.2-43.7c-53.1,6.2-106.1,12.5-159.1,19.4c-22.8,3-45.8,6.2-68.1,11.8c-19.6,5-26.5,19.5-22.4,39
	C3089.3,1411.1,3098.7,1416,3138.2,1416.6z"/>
<path d="M3132.7,2467.2c-3.6,39.1-24.9,72.4-57.9,85c-37.4,14.3-73.2,11.6-100.6-19.4c-52.4-59.2-104.9-118.6-153.6-180.8
	c-42.1-53.8-18.4-120.1,46.1-142.8c37.8-13.3,67.1,0.6,91.4,27.7c31.6,35.4,61.9,72,92.3,108.4c21.8,26.1,43.9,52.1,63.9,79.6
	C3123.1,2437.2,3126.7,2453.1,3132.7,2467.2z M2899.5,2258c-28.1-1.6-48.9,25.7-39.4,47.2c6.3,14.2,16,27.3,26,39.3
	c41.1,49.6,82.9,98.7,124.6,147.9c16.4,19.4,36.1,20.6,56.8,3.9c13.9-11.2,15.8-26.1,0.6-44.9c-48.8-60.6-98.8-120.3-148.9-179.8
	C2913.5,2264.6,2903.9,2260.9,2899.5,2258z"/>
<path d="M1192.9,2425.2c0.3,33.1-14.1,59-41.3,76.6c-24.4,15.8-50.3,29.4-75.7,43.5c-32.9,18.2-66.1,36.1-99.2,53.8
	c-10.7,5.7-21.6,11.1-32.7,15.8c-67.6,28.8-116.2-14.5-129.5-70.4c-6.8-28.5,2.9-53.1,22.9-73.1c10.1-10.2,22.2-19.1,34.9-25.9
	c64.1-34.5,128.2-69.1,193.4-101.6C1125.2,2314.1,1192.2,2357.8,1192.9,2425.2z M1138.2,2434.6c0.3-41.2-20.4-56.2-50.4-41.1
	c-67.1,33.9-133.1,69.8-198.8,106.3c-23.2,12.9-25.9,29-14.2,52.2c10.1,20,21.7,24.2,48.8,10.6c64.9-32.7,129.2-66.7,192.8-101.9
	C1127.5,2454.5,1133.9,2439.9,1138.2,2434.6z"/>
<path d="M3355.8,2272.2c-21,0.7-49.6-14.4-64-50.3c-11.3-28.1-20.7-57-30.4-85.8c-16.4-48.3-33.9-96.3-48.2-145.2
	c-11.8-40.5,1.8-72.7,35-95.1c49.3-33.1,109.3-17.2,135.1,36.3c5.8,12,10.2,24.7,14.4,37.4c16.7,50.7,33.3,101.6,49.6,152.5
	c4.4,13.9,8.4,28,11.3,42.2C3471,2224.3,3433.7,2271,3355.8,2272.2z M3408.2,2179.9c-6.1-19.2-13.7-43.6-21.5-67.9
	c-15.9-49.8-31.2-99.8-48.2-149.3c-10.3-30-36.7-38.4-60.3-21.4c-17.7,12.7-14.1,29.2-8.6,46c21.9,67.1,43.9,134.1,66,201.1
	c1.9,5.8,4.5,11.3,7.3,16.7c8.2,16.5,22,16.9,37.4,12.8C3400.5,2212.4,3408.5,2203.2,3408.2,2179.9z"/>
<path d="M2673,969.1c-0.9-17.7,5.8-35.4,19.9-50.3c4.2-4.4,8.2-9.2,13.1-12.7c64.7-45.4,128.3-92.7,194.9-135
	c49.4-31.4,106.3-10.6,130.8,42.2c17.2,36.8,12.1,68.6-18,96c-16.1,14.6-34.7,26.6-52.6,39.1c-44.9,31.4-90.2,62.2-135,93.6
	c-21.3,14.9-43.3,27.5-70.6,24.8C2706.4,1062.1,2672.9,1023.3,2673,969.1z M2762.7,1014c5.8-2.8,15-6,22.9-11.2
	c56.5-37.6,112.9-75.5,169-113.7c8.9-6.1,17.3-13.6,24-22c11.8-14.7,10.6-28.5-1.6-42.7c-16.2-18.7-33.5-19.6-61.1-0.7
	c-53.1,36.3-105.7,73.2-158.1,110.5c-9.7,6.9-19,15.5-25.7,25.3C2721.4,975.2,2740.7,1012.4,2762.7,1014z"/>
<path d="M2227.7,959.4c51.1,2.9,102.1,6.6,153.2,8.6c86.4,3.4,104.4,84.1,77.4,140c-13.5,27.9-38.1,40.5-68.1,41.7
	c-24.3,1-48.7,0.7-73-0.7c-57.1-3.4-114.2-7.7-171.3-11.9c-70.7-5.2-108.7-70-78.3-133.7c13.7-28.6,35.6-45.7,68.7-45.6
	c30.4,0.1,60.9,0,91.3,0C2227.7,958.2,2227.7,958.8,2227.7,959.4z M2258.2,1014.5c0-1.4,0-2.9,0-4.3c-35.3,0-70.5-0.1-105.8,0
	c-30,0.2-37.9,7.3-39.2,34.9c-1.3,27.8,6.4,39.5,33.3,41.1c76.4,4.7,152.9,8.5,229.5,11.1c29.5,1,39.2-11.1,39-40.3
	c-0.1-23.6-10.2-34.1-40.3-36.4C2336.1,1017.5,2297.1,1016.5,2258.2,1014.5z"/>
<path d="M1169.9,965c0,34,0.8,68.1-0.2,102.1c-1.5,51.6-31.1,81.5-81.4,84.1c-51,2.6-89.8-26.2-94.1-75.9
	c-6.9-78.6-11.7-157.5-14-236.4c-1.5-50.9,31.1-85.3,77.5-89.5c51-4.7,91.2,24.1,100.5,74.1c4.5,23.8,6,48.2,7.3,72.5
	c1.2,23,0.3,46.1,0.3,69.2C1167.1,965,1168.5,965,1169.9,965z M1116.5,957.5c-1,0-1.9,0-2.9,0c-1.9-41.3-2.7-82.6-6.2-123.7
	c-1.9-22.1-16.9-32.7-36.9-31.6c-23.8,1.3-35.1,12-34.2,37.4c2.7,74.1,6,148.1,10.5,222.1c1.5,25.6,15.5,37.6,36.4,36.5
	c23.2-1.3,32.5-11.1,33.2-38.6C1117.1,1025.5,1116.5,991.5,1116.5,957.5z"/>
<path d="M1630.1,346.5c74.3,0.9,113.7,60.9,85.1,126c-6.3,14.4-14.1,28.3-22.4,41.7c-33.3,53.8-66.6,107.5-100.8,160.7
	c-22.1,34.2-53.7,47.7-94.3,38.5c-55.8-12.5-85.6-68-63.9-120.8c4.1-10.1,9.8-19.6,15.5-28.9c32-51.7,64.1-103.4,96.7-154.7
	c8.4-13.3,18-26.1,28.7-37.7C1590.1,354.7,1609.2,344.5,1630.1,346.5z M1672.2,430.2c-4.8-7.1-8.5-16.5-15.3-22.1
	c-18.5-15.3-38.8-10.5-55.1,13.9c-22.9,34.3-44.5,69.5-66.3,104.5c-16,25.7-32.6,51.2-46.7,78c-11.7,22.2-7.9,35.1,9.3,47.7
	c19.7,14.4,37.7,11.1,54.4-15.2c37.2-58.3,72.6-117.7,108.2-177C1665.5,451.8,1667.7,442.1,1672.2,430.2z"/>
<path d="M2700.9,1517.2c-6-0.7-13.5-0.7-20.4-2.6c-73.8-20.3-147.6-40.6-221.2-61.5c-35.7-10.1-58.5-32.6-65.5-70.4
	c-11.2-60.2,43.3-117.6,103.4-107.1c19.1,3.3,37.8,8.9,56.4,14.5c55.9,16.7,111.9,32.8,167.1,51.3c17.9,6,36.1,16.1,49.6,29
	c24.5,23.4,27.2,65,10.7,98.9C2765.1,1502.2,2738.9,1518.4,2700.9,1517.2z M2479.7,1328c-6.8,4.3-21.8,8.7-27,18.3
	c-5.3,9.9-5.4,27.6,0.3,36.9c6.1,9.9,20.9,16,33.2,20.1c35.7,11.8,72.1,21.8,108.2,32.5c31.5,9.3,62.6,20,94.4,27.7
	c26.7,6.4,39.1-0.8,47-21.9c10.1-27.1,2.8-41.8-28.3-51c-65.3-19.3-130.8-37.6-196.3-56.2C2503,1332.1,2494.5,1330.9,2479.7,1328z"
	/>
<path d="M1827.3,1210.2c-8.7-3.5-24.8-8.5-39.5-16.4c-9.4-5-17.2-13.5-24.7-21.5c-45.8-48.8-91.8-97.5-136.8-147.1
	c-33.8-37.4-36.5-78.9-10-116.6c32-45.4,92.7-53.1,134.1-15.9c15.3,13.8,28.3,30.1,42.3,45.4c27.2,29.6,54.4,59.1,81.5,88.8
	c12.3,13.5,24.5,27.1,35.9,41.4c22.9,28.6,26.2,59.7,8.8,92C1901.1,1193.3,1872.6,1209,1827.3,1210.2z M1880.7,1124.2
	c-7.7-12-12.4-21.9-19.4-29.7c-46.7-52.6-93.4-105.2-141.1-156.8c-18.4-20-31.1-19.3-49.6-1.9c-18.1,17-19.7,30-1.9,50.1
	c33.7,38.2,68.6,75.3,103.3,112.6c15.7,16.9,32,33.1,48.1,49.6c9.7,9.9,21.2,13.3,32.5,4.5
	C1862.5,1144.8,1870.5,1134.6,1880.7,1124.2z"/>
<path d="M2625.9,2832.4c-27.2-0.4-51.4-8.8-64.9-33.6c-38.2-70.6-76-141.5-112.3-213c-32.1-63.2,27-133.6,92.3-127.2
	c23.7,2.3,42,12.6,55.6,30.8c11.6,15.6,22,32.2,30.9,49.4c29.2,56.1,58.7,112.1,85.9,169.3c20,42.2,11.1,76.9-22.6,104.5
	C2671.9,2828,2649.8,2833.3,2625.9,2832.4z M2672.8,2749.3c-6.8-16.2-11.3-28.8-17.2-40.6c-25.1-50-50.5-99.7-75.9-149.5
	c-5.5-10.8-11-21.8-18.1-31.6c-14.1-19.8-25.8-22.1-46.7-11c-21,11.1-26.3,22-15.6,44.4c30.9,64.6,63.2,128.6,95.3,192.7
	c3.7,7.4,9.4,14.5,15.8,19.8c12.8,10.8,28,9.6,40.6,0.8C2659.9,2768,2665.8,2757.6,2672.8,2749.3z"/>
<path d="M2739.5,2021.7c-69.9,5.7-114.1-76.1-78.3-131.1c7.3-11.2,14.4-22.6,22.3-33.4c33.6-46.3,67.2-92.5,101.2-138.6
	c7.9-10.7,16.1-21.5,25.6-30.8c33.7-32.9,78.6-35.1,115.8-6.4c39.3,30.4,50,75.2,21.7,115.9c-45.9,65.8-94.9,129.6-143.6,193.4
	C2788,2011.8,2765.9,2024.8,2739.5,2021.7z M2910.6,1749.1c-8.4-10.1-15.4-21.3-25.1-29.3c-10.6-8.8-23.1-6.4-33.1,2.9
	c-8,7.3-15.9,15-22.4,23.6c-26.9,35.9-53.3,72.1-79.7,108.3c-14.3,19.6-28.3,39.3-42.1,59.2c-8.4,12.1-9.7,23.7,0.7,36.4
	c19.6,24,39.9,25.4,59.6-0.1c42.2-54.7,83.4-110.2,124.3-165.8C2899.8,1774.7,2903.7,1763,2910.6,1749.1z"/>
<path d="M1207.8,2838.5c-27.7-2-51.5-16.5-66.8-44.2c-16.2-29.4-21.9-59.8-1.4-89.3c9.6-13.8,21.1-26.9,34.1-37.5
	c47.1-38.3,95-75.6,142.9-112.8c11.5-8.9,23.8-16.9,36.5-23.9c40.5-22.3,76.5-14.7,106.7,21.6c29,34.9,31.5,76.8,5,109.8
	c-9.8,12.1-21.8,22.7-34.1,32.5c-44.6,35.6-89.6,70.7-134.6,105.7C1271.2,2820.1,1245.7,2838.9,1207.8,2838.5z M1213.7,2790.9
	c15.5-9.4,28.3-16,39.7-24.5c38.8-29.1,77.2-58.6,115.4-88.5c17.2-13.4,34.5-26.8,49.9-42.2c17-17,15.7-31.5-1-51
	c-14.4-16.8-21.6-17.6-43.9-4.2c-5.2,3.1-10.2,6.6-14.9,10.4c-47.9,37.2-95.8,74.3-143.3,111.8c-10.4,8.2-19.7,18-28.9,27.5
	c-9.9,10.3-10.1,22.3-1.4,32.9C1193.3,2772.9,1203.2,2780.9,1213.7,2790.9z"/>
<path d="M847.2,1893.7c0.7-34.9,18.5-60.2,47.7-76.4c29.5-16.4,60.7-16.8,89.7,2.3c11,7.2,21.2,16.7,29.1,27.2
	c44.5,59.1,89.8,117.7,131.7,178.6c30.7,44.6,22.4,89.5-16.6,119.1c-40.2,30.4-87.5,25.2-123.9-14c-8.2-8.9-15.8-18.4-23.1-28.1
	c-35.7-47.6-71.2-95.3-106.7-142.9C860.6,1939.8,846.7,1919.9,847.2,1893.7z M1070.5,2109.6c32,0.6,48.3-24.5,33.6-53.5
	c-7.1-14-16.4-26.9-25.8-39.5c-33.9-45.8-67.9-91.6-102.7-136.6c-20.5-26.5-33.9-29.1-54.6-13.9c-22.4,16.4-23.3,29.8-2.6,58.5
	c12.8,17.7,26.9,34.4,39.7,52.1c25.5,35.4,50.1,71.4,75.8,106.7C1042.9,2095.9,1051.6,2110.3,1070.5,2109.6z"/>
<path d="M716,2101.4c-8.8,65.2-16.9,143.7-30.6,221.3c-9.8,55.6-39.1,67.2-84.1,68.3c-49.6,1.1-87.5-31.3-89-77.7
	c-1.2-38.5,4.4-77.3,8.4-115.8c3.5-33.8,8.6-67.4,13.6-100.9c2-13.2,4.6-26.4,8.6-39c15-47.7,54.4-73.6,99.4-66
	C688.7,1999.3,718,2037.5,716,2101.4z M666.8,2085.6c-1.2-28.3-9.2-40.1-30.4-42.8c-22.5-2.8-38.3,8.7-44.4,33.2
	c-2.4,9.4-3.8,19.1-5,28.7c-6.1,48.2-12,96.4-17.8,144.7c-2,16.9-4.9,33.8-5.2,50.7c-0.4,24.3,8.3,33.2,31.5,36
	c23.7,2.8,35.8-3.8,39.4-26.9C646.3,2234.7,656.2,2160.1,666.8,2085.6z"/>
<path d="M1074.9,1679.8c1.2-6.6,3-21.2,6.8-35.2c16.7-62.2,33.9-124.3,51.1-186.4c1.9-7,4.3-14,6.9-20.7
	c17.7-45,50.4-64.4,93.7-55.7c45.4,9.2,78.1,49.2,76.4,93.4c-0.1,3.6-0.1,7.4-1.1,10.9c-21.8,79.7-41.7,160-66.2,238.9
	c-13.5,43.4-51.3,59.9-96.4,49.9C1098.4,1764.3,1073.5,1733.9,1074.9,1679.8z M1257.1,1476c0.5-23-8.3-34.8-27.4-39.2
	c-21.8-5-36.6,2.5-43.8,27.2c-20.2,69.8-39.6,139.8-57.7,210.2c-6.9,26.9,4.4,43.4,28.8,49.7c20.9,5.4,32.5-1.5,40.8-29.7
	c19.7-67.4,38-135.2,56.7-202.8C1256.1,1485.6,1256.6,1479.5,1257.1,1476z"/>
<path d="M573.7,1794.5c-30.1-3.4-55.5-21.4-72.3-52.7c-16.7-31.3-12.8-60.9,6.1-89.4c6-9.1,13.3-17.3,20.6-25.5
	c37.8-42.8,75.6-85.6,113.7-128.2c8.1-9.1,16.7-17.7,25.6-25.9c43.1-39.9,90.1-23.8,117.8,2.4c37.4,35.3,42.6,77,14.3,117.6
	c-4.9,7-9.9,13.9-15.7,20.1c-46.9,51-93.4,102.3-141.1,152.6C618.3,1791,603.9,1796.2,573.7,1794.5z M588,1739.2
	c7.4-5.4,21.4-12.8,31.6-23.7c39.7-42.6,78.2-86.3,117-129.7c6.4-7.2,12.7-14.8,17.8-23c11.7-18.6,9.4-33.2-6.7-48.4
	c-15.4-14.5-29.2-17.8-44.6-1.1c-52.5,57.1-103.7,115.4-152.8,175.4C533.6,1709,553.4,1738.8,588,1739.2z"/>
<path d="M1919.4,3263.5c-95.7,1.4-170.3-71.7-179.8-170.5c-0.7-7.1-1.6-16,1.8-21.3c4.7-7.3,13.1-16.1,20.4-16.6
	c6.9-0.5,17.6,7.4,21.1,14.4c5.9,11.7,7.1,25.6,10.7,38.4c8.9,32.4,23.9,60,52.9,80c78.6,54.3,192.7,4.1,201.6-82.3
	c1.2-12,5-23.7,8.3-35.4c3.7-13,11.2-21.8,26.3-18.9c13.7,2.6,22.3,11.2,21.7,25c-0.7,15.7-2.6,31.5-6.2,46.7
	C2077.2,3212.1,2011.1,3263.8,1919.4,3263.5z"/>
<path d="M1383.5,3296.4c-30.2-5.9-56.7-9.4-82-16.8c-13.3-3.9-26.2-13.2-36.1-23.2c-19-19-18.7-40.8-1.6-62.1
	c18.5-23,44-34.5,71.9-39.1c43.9-7.2,87.1-2.2,128.2,15.5c20.6,8.9,40.2,20.7,40.4,46.3c0.2,27.8-13.4,50.5-39.6,59.8
	C1437.8,3286.3,1408.9,3290.5,1383.5,3296.4z M1382.2,3262.2c24.5-5.8,50.1-8.7,73-18.2c27.2-11.3,27.5-31.3,1.2-43.8
	c-48.4-23-98.9-21.9-148.4-3.5c-9.4,3.5-19.3,16.5-20.7,26.2c-1,6.8,10.9,19.9,19.4,22.6C1330.7,3253.2,1355.8,3256.8,1382.2,3262.2
	z"/>
</svg>
