<?xml version="1.0" encoding="utf-8"?>
<!-- Generator: Adobe Illustrator 24.3.0, SVG Export Plug-In . SVG Version: 6.00 Build 0)  -->
<svg version="1.1" id="Layer_1" xmlns="http://www.w3.org/2000/svg" xmlns:xlink="http://www.w3.org/1999/xlink" x="0px" y="0px"
	 viewBox="0 0 4000 4000" style="enable-background:new 0 0 4000 4000;" xml:space="preserve">
<path d="M2647,3431.7c-5.9,9.2-10.2,15.3-13.9,21.8c-81.1,142.1-298.1,196.1-446.1,103.1c-21.2-13.3-21.7-12.9-41,5.1
	c-117.4,110.2-335.7,106.3-442.4-11.3c-20.7-22.8-21.6-22.7-52.7-8.8c-105.3,47.3-206.6,35.5-304.7-20.3
	c-44.2-25.2-79.1-60.9-103.3-105.4c-11.2-20.7-23.7-25.9-46.6-23.2c-142.1,16.8-253.4-82.1-285.2-162.6c-5.1-13-9.7-26.5-12.9-40.1
	c-4.3-18.3-14.4-27.2-33.5-29c-51-4.6-96.5-24.8-136.6-55.5c-73.3-56-114.3-129.3-109.2-223.4c1.3-24.4-14.2-28.9-29.8-35.5
	c-68.2-28.8-117-76.9-145-145.5c-20.4-50-30.5-101.7-19.8-155.6c4.3-21.4-0.7-35.1-20-48.9c-102-72.5-141-173.5-129.2-296.3
	c3.8-39.6,16.9-75.7,37.1-109.7c13.6-22.8,13.2-23.1-4.3-45.5c-79.9-102.3-86.1-233.6-15.6-342.4c7.6-11.7,15.7-24.4,26.5-32.5
	c21.6-16.1,21.3-33.6,12.9-56.7c-17.3-47.6-21.7-97.1-11.3-147.1c17.1-81.5,56.5-146.9,134.6-183.9c3.8-1.8,7.1-4.8,12.9-8.8
	c-1.9-16.2-3.4-33.2-5.8-50.1c-16.3-113.6,53.2-250.2,155.2-303.1c15.2-7.9,32.1-12.8,48.6-17.6c28.3-8.3,28.6-7.8,32-36.6
	c7.2-61.6,27.9-117.8,67.3-166.2c58.5-72,133.7-112.1,227.1-113.9c19.7-0.4,29.6-6,34.9-24.9c26.3-94.2,119.5-186.6,261.4-194.7
	c37.9-2.2,75.6-1.4,112.5,13.2c6.4-7.9,12.4-14,16.9-21.1c46.8-72.6,116.7-108.5,199.1-120.3c72.2-10.3,142.9-4,205.4,39.7
	c15.5,10.9,26.3,3,37-7.1c33.9-32,73.8-52.9,119.2-62.7c110.4-23.6,208.7-2.6,288.1,81.9c13.7,14.6,25.3,12.2,40,4.6
	c133.4-68.2,317.7-18.8,406.4,111.1c12.1,17.7,21.2,37.4,32.6,58c13,0,27.9,1,42.7-0.2c149.4-11.4,295.2,90,331.8,232.6
	c10.9,42.3,26.9,59.2,70.3,69.6c151.4,36.5,248.3,177.1,237.1,333c-0.5,7.6-1.4,15.1-2.5,22.6c-1.7,11.4,3.2,18.7,13.6,22.8
	c2,0.8,4,1.5,6.1,2.3c147,59.7,219.6,239.2,172,384.5c-2.7,8.2-4.3,17-8.2,24.6c-8.7,16.9-2.3,27,11.2,38.5
	c52.9,45,85.4,102.5,100,170.3c16.4,75.9,2.1,146.7-39.1,211.4c-13.5,21.1-14,36.3-1.7,58.6c68.3,123.1,45.5,251.3-35.6,351.3
	c-9.4,11.6-20.9,22.4-33.6,30.3c-17.2,10.8-22.3,21.7-17,42.6c21.7,86,6.1,168-35.8,244.6c-30.3,55.4-73.3,99.3-133.6,122.6
	c-20.1,7.8-27.3,19.7-28.3,41.1c-4.3,89.5-32.4,169.7-98.6,233.2c-52.7,50.5-116.3,77.8-187.9,87.9c-7.5,1.1-15,2.2-22.6,2.7
	c-17.3,1.2-26.3,9.4-31.1,27c-13.2,48.8-37.5,92-72.9,128.6c-82.4,85.3-184.5,107.1-297.9,91.6
	C2672.6,3436.6,2661,3434.2,2647,3431.7z M1689.4,3473.2c5.8,4.2,7.8,5.2,9.3,6.7c3.7,3.9,7.4,7.9,10.7,12.2
	c62.1,81.1,146.5,112.6,245.5,104.8c68.6-5.4,130.4-31.1,178.4-82.9c26.4-28.5,25.9-29,58.7-4.7c3.5,2.6,7.2,4.8,10.8,7.2
	c125.6,86.3,333.1,40.3,408-110.1c15.4-30.9,16.7-31.9,49.6-21.1c60.8,20.1,120.4,20.7,181.1-1.3c94.8-34.4,156.8-97.2,177.9-197.5
	c2.6-12.4,5.8-24.7,9.2-39.4c11.8,0,21.4,0.8,30.8-0.2c26.8-2.7,54.2-3.5,80.2-9.8c113.1-27.1,218.4-130.9,211.1-282.8
	c-2.1-44.8-1.2-44.8,41.3-62.2c5-2,10-4.1,14.9-6.4c51.6-24.2,91.6-60.8,118.7-111.2c38.6-71.7,42.9-146.2,19.2-223.3
	c-10.6-34.6-10.2-36.2,19.7-55.5c48.3-31.1,82-72.8,98.8-128.2c25.3-83.2,13-160.2-34.7-232.4c-18.2-27.6-25.3-25.8,1.2-58.4
	c30.1-37,48.6-79.6,52.4-127.2c7.9-100.1-30-179.4-111.4-237.9c-24.3-17.4-24.6-17.2-13.2-44.2c2.9-7,6.6-13.7,9.1-20.8
	c35-98.2,28.4-191.4-34.9-277.2c-32.5-44-75-74.2-127.1-91.4c-31.2-10.3-33.4-15.5-27.2-47.5c0.6-3.2,1.7-6.3,2.4-9.4
	c15.5-69.3-0.1-133-35.5-192.9c-48.8-82.2-124.6-119.9-216.5-131.1c-31.4-3.8-31.4-3.8-36-34.1c-0.8-5.4-1.1-10.8-2-16.1
	c-13-78.7-50.7-142.8-116.4-187.9c-68.8-47.2-144.5-67.2-228.2-47.6c-23.9,5.6-23.8,4-33.5-17.6c-7.9-17.7-14.8-36.4-25.7-52.2
	c-98.3-142.9-269.3-167.7-385.3-95.8c-28.3,17.5-29.9,15.9-49.7-10.6c-62.7-84.3-184.5-114.8-284-78c-39,14.4-73.4,36.4-101.4,68.1
	c-17.6,19.9-20.6,19.2-43.4,3.4c-1.8-1.2-3.4-2.7-5.1-4C1683,231.5,1500,277.8,1434,417.1c-2.6,5.5-7.4,10-12.2,16.3
	c-13.2-4.2-25.5-8-37.7-11.9c-37.7-12.2-75.8-16.9-115.2-9c-90.7,18-160.2,63.5-197,151.2c-6.2,14.9-10.7,30.7-14,46.6
	c-3.3,15.9-12,21.4-27.3,21c-14.1-0.3-28.2,1.5-42.2,1c-106.6-3.9-233.9,91.8-244.7,225.4c-1.8,22.4-3.7,44.8-5.6,67.7
	c-14.9,4.5-28.2,9.1-41.8,12.5c-148,36.8-218.3,192.6-186.8,318.6c10.4,41.5,9.7,41.5-30.7,62.2c-34.1,17.5-65.9,38.3-85.6,72.4
	c-39.2,67.7-47.9,138.2-16.8,211.7c5.1,12,10.5,23.8,16.5,35.3c7.9,15.1,4.6,26.8-9.1,36.5c-8,5.6-15.4,11.9-23.2,17.8
	c-24.8,18.8-42.2,42.9-53.9,71.7c-41.6,102.5-18.2,192.8,51.5,274.2c21.1,24.6,21.7,24,4.4,48.3c-66,92.7-63.5,225.7,5.9,315.8
	c24.1,31.3,53.9,56.1,87.2,76.9c24.1,15.1,24.2,15.1,17.5,44.1c-0.5,2.1-0.8,4.3-1.4,6.3c-36.7,133.2,53.9,264.8,165.7,289
	c26.9,5.8,28.4,11,27.1,39.2c-0.9,19.4-4.4,39.2-2,58.2c14,110.1,115.6,201.5,226.6,205.3c11.7,0.4,23.4,0.1,35.1,0.1
	c2.8,9.6,5.6,15.7,6.1,21.9c8.6,93.8,86.1,182.5,192,202.7c36,6.8,71.3,5.2,106.1-4.3c17.1-4.7,26.9-0.7,33,15.3
	c2.3,6,5.4,11.8,8.3,17.6c23.4,48.1,58.4,85.8,103.9,113.3c88,53.1,178.4,52.1,269.7,8.7C1658.9,3489.1,1674,3481,1689.4,3473.2z"/>
<path d="M2977.5,3073c-22,186.5-197,298.2-385.1,222.4c-38.1,85-102.1,139.8-194.3,160.4c-92.3,20.6-173.3-3.5-245.3-65.3
	c-60,75-133.6,115.8-228,116.9c-95,1.1-169.1-37.5-225.4-115.9c-74.8,46.3-152.2,66.2-236.8,40c-84.6-26.2-140.6-82.3-170.4-167.6
	c-50.2,12.2-98.1,20.6-146,4.5c-47.1-15.8-88.1-40.3-120.4-79.2c-32.3-38.9-47.6-84-50.7-136.6c-76.6,3.8-141.3-20.9-191.6-74.8
	c-50.8-54.6-65.6-122.5-57-196.5c-72.1-14.1-121.9-54.3-153.8-116.4c-31.6-61.5-37.4-125.8-12.8-192.6c-9.2-6-15.9-11-23.2-15
	c-124.1-67.5-170.9-238.8-98.4-361c2.8-4.7,5.5-9.4,8.8-13.7c10.3-13.6,7.2-24.1-3.5-37.2c-17.7-21.5-36.4-43.7-47.9-68.7
	c-47.5-103.6-21.4-213,65.8-287.6c4.9-4.2,9.5-8.7,15.3-14.1c-3.6-6.9-6.4-13.8-10.3-19.9c-59.3-93.4-25.1-253.9,89.8-311.2
	c1.9-1,4-1.7,5.9-2.7c24.9-13.4,25.7-13.6,19.2-40.2c-11.6-47.7-8.5-94.7,6.3-140.9c28.1-87.6,86.6-142.7,177-162.9
	c7.3-1.6,14.4-4.1,23.8-6.8c-2.7-78.8,15.5-150.4,74.6-206.5c58.6-55.6,128.4-77.7,211.4-68.4c3-9,6.4-17.7,8.8-26.7
	c34.2-127.4,162.5-206.6,290.9-178.7c17.6,3.8,34.4,11.6,54.6,18.6c33.1-80.9,92.3-132.8,177.6-150.9
	c82.3-17.5,159.3-4.3,227.6,53.6c54.3-65.3,121.5-98.8,205.1-96c81.4,2.8,148.4,34.6,201.3,100.2c9.2-4.3,17.8-7.9,26.1-12.3
	c94.6-51,188.6-48.1,282,3c51.7,28.3,85.4,72.1,107.1,126c4.3,10.8,8.8,21.5,14.2,34.7c88.4-24.7,170.9-14.1,245.9,37.3
	c75.3,51.5,116.4,123.3,119.4,216.5c89.4,4.9,165.1,35.4,217.9,107.2c52.7,71.7,64,152.1,35.2,239.7c90.6,25.3,155.9,75.9,191.1,161
	c35.1,84.8,28.2,166.9-19.8,247.7c73,41.6,114.2,102.9,128.5,181.4c14.6,80.2-11,149.4-66.5,210.4c46.5,63.9,76.3,132.3,63.1,212.1
	c-13.1,79.1-53.4,140.5-125.6,179.8c2.8,9.1,4,16.5,7.2,23.1c47.3,99,1,265.4-121.2,321.1c-12.7,5.8-25.9,11.2-39.4,14.5
	c-17,4.2-22.7,12.6-19.9,30.2c9.7,62.4-3.6,120.6-35.7,174.5c-53.7,89.9-134,131.8-238,130C3001.1,3072.9,2990.5,3073,2977.5,3073z
	 M838.3,1027.3c-21.7,3.5-38.8,5.6-55.6,8.9c-132.5,26.5-201.4,165.1-142.3,285.6c12.7,25.8,10.9,30.6-15.5,40.7
	c-5,1.9-10.2,3.5-15.4,5.2c-91.2,30.3-142.2,119.6-121.6,213.1c6.8,31.1,19.4,59.2,39,84.7c15.2,19.8,12.6,28-8.8,41.4
	c-7.3,4.6-15.1,8.4-22.5,13c-29.3,18.3-50.9,43.2-64.5,75.2c-34.6,81.3-11.6,174,56.8,228.4c5.1,4,10.4,7.8,15.3,12.1
	c18.1,15.9,18.5,20.6,3.2,40.2c-4,5.1-8.6,9.7-12.7,14.8c-40.4,50.2-55.2,107.2-43.7,170.5c14.6,80.6,58.7,137.7,135.5,169.3
	c33.4,13.7,33.3,15.3,19.3,47.6c-17.4,40.3-20.2,81.5-10,123.9c18.5,76.7,79.9,130.1,142.1,132.6c13.6,0.6,27.1,4.8,44.7,8.1
	c-2.6,14.5-4.7,26.8-7.1,39.1c-15.1,77.4,6.9,140.9,70.2,189.4c35.1,26.9,74.6,38,118.5,36.1c17-0.8,34-0.1,53.2-0.1
	c1.7,20.6,3.1,39.8,4.9,59c2.9,30.8,12.4,59.6,31.3,84.2c59.4,77.6,139.6,100,230.8,65.6c10.8-4.1,21.9-7.4,37.2-12.4
	c19.9,89.7,64.7,156,153.5,183.8c90.1,28.3,165.3-2.9,235.1-62.8c8.5,11.1,15.5,20.3,22.4,29.5c11,14.7,20.3,31,33,44
	c99,101.8,281.5,80.2,358.2-42c20.1-31.9,27.4-33.8,50.4-8.6c57.1,62.7,128.6,82.3,209.4,66.9c76.6-14.6,135.5-55.1,167.1-129.6
	c6.6-15.5,11.6-38.6,23.2-43.1c12-4.7,31.9,7.4,47,14.9c93.5,46.4,213.2,6,268.6-68c29.8-39.8,41.4-85,45-133.3
	c0.8-11.3,2.5-22.6,4-36.8c14.6,2.4,25.1,3.6,35.4,5.8c37.8,8.1,76.2,8.7,112.5-2.8c131.9-41.8,176-164,153-265.2
	c-10.5-46.1-11-45,36.8-55.5c76.7-16.8,129.4-61.6,155.5-136.8c20.9-60.3,11.3-117-16.5-172.6c-16.1-32.2-14.2-36.6,18.5-50.9
	c57.6-25.2,94.6-67.7,107.1-129.6c14.4-71.6-2.8-135-52.2-189.4c-9.2-10.1-17.7-21-28.1-33.3c12.6-12.8,23.1-23.4,33.6-34
	c49.8-50.3,66.3-110.1,49.8-178.7c-15.6-64.9-53.5-112.2-113.3-142.5c-33.5-17-34.1-20.6-13.1-50.6c17.7-25.2,30.7-52.3,36.1-82.6
	c22.3-126.2-49.9-237-174.5-268.1c-12.4-3.1-24.8-6.4-35.8-9.2c-9.7-20.6,0.7-36.4,6-52.2c21.3-64.9,14.2-125.9-22.9-183.2
	c-43.9-67.7-108.7-96.2-187.1-98.4c-14.8-0.4-29.5-0.1-48.5-0.1c0-15.9,0.1-27.4,0-38.9c-0.7-52.3-14.5-100.1-46.5-142.4
	c-52.8-69.8-167.5-111.7-257-78.5c-14.4,5.3-28.9,16.1-48.1,6.9c-3.3-11.6-6.9-23.9-10.3-36.3c-11-40.7-31.8-75.7-62.2-104.8
	c-83.5-79.9-206.9-85.3-303.1-13.4c-28.7,21.5-32.8,21.8-50.3-7.2c-66.4-110.2-247.5-137-346.8-10.1c-7.7,9.8-16.9,18.5-27.2,29.6
	c-13-11.2-23.9-19.7-33.9-29.2c-23.4-22.1-51-36.3-82-44.3c-106.2-27.1-212.3,26.9-253.9,129.1c-5.1,12.6-10.8,25-17,39.1
	c-13.1-5.6-23.6-8.6-32.7-14.1c-107.3-66-276.4-0.9-296.2,148c-1.8,13.5-5.2,26.9-9,45.5c-52.6-12.2-103.3-17.1-151.8,4.1
	c-49,21.4-88.7,53.2-112.2,103C826.6,922.8,831.1,973.4,838.3,1027.3z"/>
<path d="M1620,2593.5c-0.1,75.5-59.3,136.3-132.3,135.6c-75.9-0.7-141-60.8-137.4-131.1c4.2-82.6,53.6-135.8,134.1-137.4
	C1558.2,2459.2,1620.1,2521.2,1620,2593.5z M1563.4,2554.9c-0.6-19.4-16.3-36.6-33.3-36.4c-19.9,0.2-39.4,19.7-39.2,39.2
	c0.2,19.1,15.2,32.8,35.9,32.5C1549.5,2590,1564,2575.9,1563.4,2554.9z"/>
<path d="M2469.3,2460c74.8,2.1,135.6,63.4,133.9,135c-1.9,80.9-62,136.9-143.7,133.9c-66.2-2.4-125.4-68.6-123.7-138.3
	C2337.6,2516.6,2397.5,2458,2469.3,2460z M2550.3,2557.4c-0.1-20.2-17.7-38.1-36.7-37.4c-19.5,0.7-37.1,18.3-37.6,37.5
	c-0.5,18.5,15.8,36.5,33.3,37C2531.2,2595.1,2550.4,2577.7,2550.3,2557.4z"/>
<path d="M1393.7,2751.6c43.9,0.8,87.6,10.6,126.3,37.6c44,30.7,42.9,83.4-5,106.9c-81.1,39.8-164.5,43.6-246.4,1.8
	c-50.5-25.8-54-73.9-9.5-109.1c30-23.7,66.4-30.5,103-35.4C1371.7,2752,1381.5,2752.2,1393.7,2751.6z M1380.8,2899.6
	c0.3-1.5,0.7-3.1,1-4.6c7.5,0,15.2,0.6,22.6-0.1c34.4-3.4,68.5-8.6,99.4-25.5c27.5-15.1,29.9-33.2,6-52.5
	c-12.3-10-26.8-18.8-41.7-23.7c-50.5-16.6-102-14.3-153.2-3c-10.3,2.3-20.5,6.9-29.8,12.1c-15.7,8.8-27.8,21.1-26.9,40.8
	c0.9,20.3,14.8,31.6,32,36.3C1320,2887.5,1350.5,2893,1380.8,2899.6z"/>
<path d="M2576.8,2752.3c45.2,1.7,88.1,10.4,126.2,36c41,27.5,42.7,68.1,3,98.2c-11.8,9-25.6,16.4-39.6,21.4
	c-69.9,24.9-139.7,24.6-208.5-4.6c-10.8-4.6-21.5-10.5-30.5-18c-23.7-19.7-26.9-47.2-8.6-72.2c15.8-21.5,37.2-36.2,62.6-44.1
	c16.4-5.1,33.5-8.5,50.4-11.5C2546.7,2754.9,2561.9,2754,2576.8,2752.3z M2565.7,2900.8c39.3-3.8,76.4-10.7,112-24.3
	c18.2-7,31.7-19.9,30.9-41.3c-0.7-19.6-16.2-26.2-31.7-32.5c-58.3-23.6-118.1-25.4-178.2-9.9c-18.2,4.7-36.1,14.9-51.2,26.4
	c-19.1,14.5-17.6,34.2,1.2,49c6.6,5.2,14.7,9.8,22.8,11.7C2502.7,2887.5,2534.2,2893.9,2565.7,2900.8z"/>
<path d="M1981.9,2824.5c-82.8-0.3-143.1-39-166.7-108.6c-4.7-14-5.8-29.6-5.9-44.4c0-5.2,7.4-14,12.4-14.7c5.2-0.8,13.4,4.9,17,10
	c4.1,5.8,4.4,14.2,6.6,21.5c19,61.5,70.4,97.8,137.3,96.8c69.6-1,120.5-38.3,137.8-101c1.7-6.2,1.1-14.2,4.8-18.5
	c4.9-5.6,13.7-12.4,19.6-11.4c6,1,12.7,10.1,15,17.1c2.1,6.5-0.5,14.9-2.1,22.2C2139.3,2777.2,2075.3,2824.8,1981.9,2824.5z"/>
<path d="M901.7,2355.2c39.4,0.2,70.1,31.3,69.5,70.2c-0.7,40.6-27.5,67.4-67.2,67.5c-42.1,0-69.5-27.3-69.1-68.7
	C835.3,2385.7,865,2355,901.7,2355.2z M880.3,2426.1c0.2,12.4,10.4,22.3,22.7,22c11.9-0.3,22.3-10.9,22.3-22.9
	c0.1-12.6-9.6-23.6-21-24C891.7,2400.8,880.2,2412.8,880.3,2426.1z"/>
<path d="M811.9,1892.3c-1.8,41.2-33,68.7-75.4,66.6c-37.6-1.8-65.5-33.5-63.1-71.4c2.4-38.3,36.5-70.4,72.3-68
	C785.5,1822.1,813.6,1853,811.9,1892.3z M741.5,1912.7c11,0.6,25.2-13,26-24.7c0.8-12.7-8.1-24.1-19.9-25.5
	c-13.7-1.6-27.8,11.2-27.8,25.4C719.8,1899.1,731.2,1912.1,741.5,1912.7z"/>
<path d="M1999.9,3245.9c-39.3-0.1-67-28.4-66.8-68c0.3-36.9,31.7-71.3,65.8-72c38.4-0.8,71.1,30.5,71.7,68.6
	C2071.3,3216.6,2042.1,3246,1999.9,3245.9z M2028.7,3176c0.2-12.8-11.4-25.3-23.9-25.8c-12.5-0.5-24.8,11-25.6,23.9
	c-0.8,14,9.2,26.7,21.5,27.3C2014.7,3202.2,2028.6,3189.7,2028.7,3176z"/>
<path d="M1804.1,2142.4c-0.7,39.6-29.7,68.5-67.8,67.4c-39.8-1.1-68.8-31.5-68.4-71.6c0.4-36.2,33.2-68.6,68.8-68
	C1775.5,2070.8,1804.8,2102.2,1804.1,2142.4z M1759.3,2139.6c-1.1-11.2-4.2-22.3-19.4-23.4c-14.3-1.1-27.8,10.9-28,24.6
	c-0.2,12.4,11.8,25,24.1,25.2C1748.6,2166.2,1759.4,2154.6,1759.3,2139.6z"/>
<path d="M2989.7,1467c-39.8,0-70.1-30.5-69.2-69.6c0.8-35.6,33.6-68.3,68.9-68.5c36.5-0.3,68.6,33.1,68.7,71.6
	C3058.2,1438.4,3028.9,1466.9,2989.7,1467z M3012.3,1401.3c0.6-12.9-11-26.1-23-26.2c-12.4-0.2-23.7,11.9-23.8,25.4
	c-0.1,12.1,10.1,24,20.8,24.6C2998.1,1425.5,3011.8,1413.1,3012.3,1401.3z"/>
<path d="M1962.5,900.4c-39.5,0.3-66.5-24.9-67.5-63c-1-38.7,30.5-74,66-74.1c41.4-0.1,70.4,27.8,70.9,68.1
	C2032.4,871.4,2003.6,900,1962.5,900.4z M1966.5,805.9c-12-0.7-24.8,11.7-25.4,24.7c-0.6,13.2,10.7,26.8,22.7,27
	c11,0.2,21.5-10.4,22.8-23.1C1988,820.1,1978.5,806.6,1966.5,805.9z"/>
<path d="M2564.6,1685.5c0.7,39.6-29.3,70.3-68.8,70.5c-37.4,0.2-66.8-27.3-68.3-63.8c-1.6-38.4,29.2-73.8,65.4-75.2
	C2530.3,1615.6,2563.9,1647.7,2564.6,1685.5z M2520,1687.1c0.2-14-7.9-24.9-19.1-25.9c-13.9-1.3-28.2,12-27.5,25.7
	c0.5,11.8,11.3,24,21.8,24.6C2507.8,1712.1,2519.8,1700.4,2520,1687.1z"/>
<path d="M1539.2,1241.5c-40.2-0.9-68-30.8-66.8-72.1c1-34.9,33.7-67.3,66.9-66.3c38.8,1.2,70.3,34.1,68.7,71.9
	C1606.4,1214.5,1577.6,1242.3,1539.2,1241.5z M1540.9,1149.1c-10.8-0.4-22.2,10.6-23.1,22.3c-1,13.2,10.6,27.6,22.3,25.9
	c12.2-1.8,22.1-8.1,23.6-22.1C1564.9,1162.3,1553.6,1149.6,1540.9,1149.1z"/>
<path d="M1985.4,1538.6c0,41-29,69.4-70,68.7c-38.2-0.7-66.4-28.2-66.6-65c-0.2-40.9,29.3-73.5,66.4-73.5
	C1955.1,1468.9,1985.4,1499,1985.4,1538.6z M1919.1,1512.1c-13-0.8-27.7,13.1-26.9,26.4c0.8,13.8,9.9,21,22.7,23
	c13.6,2.2,29.2-11.2,28.9-23.8C1943.5,1525.4,1931.3,1512.8,1919.1,1512.1z"/>
<path d="M2451.4,1211.9c-42.1,0.2-69.9-26.8-69.9-67.9c-0.1-39.3,28.6-69.3,66-69c36.5,0.3,68.5,31.8,69,67.9
	C2516.9,1183.1,2489.9,1211.7,2451.4,1211.9z M2473,1143.8c0.1-13.1-8.3-22-21.5-22.6c-13.1-0.6-24.8,10.1-25.2,23.1
	c-0.4,12.8,8.9,22.7,21.4,22.7C2461.1,1167.1,2472.9,1156.3,2473,1143.8z"/>
<path d="M3088,1929.3c-38.1-1.5-64.7-31.5-63.1-71.3c1.6-37,31.3-66.3,66.5-65.3c39.3,1.1,70.4,32.8,69.1,70.5
	C3159.1,1902.3,3127.8,1930.9,3088,1929.3z M3117.8,1860.1c-0.1-13.7-11.2-24-25.2-23.5c-12.8,0.5-24,12.6-23.9,25.7
	c0.1,11.2,11.2,23.5,21.8,24.2C3103.5,1887.3,3117.9,1873.4,3117.8,1860.1z"/>
<path d="M2519.5,2171.3c0.6,41.5-24.5,69.5-63.3,70.5c-39.9,1-72.6-29-72.6-66.6c0-38.2,32.2-72.3,68.3-72.5
	C2487.9,2102.6,2519,2134.2,2519.5,2171.3z M2479,2172.8c0.1-12.9-11.6-24.8-24.4-24.8c-12.6,0-24.5,11.8-25,24.7
	c-0.5,12.8,12.2,26.1,23.9,25.2C2465.5,2197,2478.9,2183.8,2479,2172.8z"/>
<path d="M2936.9,2539c-40.3-0.2-67.2-26-66.6-63.8c0.6-38.8,30.7-69.4,67.4-68.7c38.9,0.8,68.9,30.3,68.7,67.6
	C3006.3,2512.9,2978.1,2539.2,2936.9,2539z M2938.4,2449.2c-10.8,0.7-22.3,13.1-22.2,24c0.1,11,12.1,23.7,22.4,23.7
	c12.7,0,24.4-13,23.2-25.7C2960.6,2458.7,2949.8,2448.5,2938.4,2449.2z"/>
<path d="M985.8,1358.2c0.6,40.7-27.7,70.5-67.4,70.8c-39,0.3-68-27.6-68.5-66.1c-0.5-36.8,31.1-70.3,66-70
	C955.6,1293.3,985.2,1321.1,985.8,1358.2z M942.5,1362.7c0.7-12.4-8.3-23.8-19.9-25.3c-14.1-1.8-27.5,10.4-27,25.2
	c0.4,12.7,8,19.6,19.9,21.5C928.7,1386.1,941.8,1375.3,942.5,1362.7z"/>
<path d="M1404.3,1800.2c-39.2,0.7-68.4-27.3-68.8-66.1c-0.4-38,29-68.2,66.9-68.6c35.7-0.4,67.7,29.1,69,63.6
	C1473.1,1769.1,1444.4,1799.5,1404.3,1800.2z M1404.5,1757.8c13.2-0.6,23.7-12.4,23.2-26.1c-0.5-14.5-11.7-25.6-24.9-23.5
	c-13.1,2.2-21.4,10.1-22,24C1380.2,1745.7,1392.3,1758.3,1404.5,1757.8z"/>
<path d="M1411.7,2806.6c-0.5,24.6-13.1,38.8-26.9,51.6c-3.6,3.3-13.2,4.1-17.2,1.6c-3.5-2.2-5.6-12-3.7-16.3
	C1372.4,2824.8,1384.3,2808.9,1411.7,2806.6z"/>
<path d="M1441.6,2868.2c-6.3-24.3,3.4-38.8,17.8-50.4c3.8-3.1,13.2-3.6,17-1c4,2.8,6.7,11.3,5.6,16.5
	C1478,2853.1,1464.2,2863.1,1441.6,2868.2z"/>
<path d="M1299.3,2854.3c0-30.6,3.6-34.9,32.5-41C1341.1,2838.6,1331.9,2850.9,1299.3,2854.3z"/>
<path d="M2600.4,2816.8c-8.9,14.2-17.1,29-27.2,42.2c-2.4,3.1-11.9,2.9-17,1c-2.4-0.9-4.4-10.1-2.7-13.9c7.8-17.8,17.8-34,39.1-36
	C2595.1,2812.3,2597.8,2814.6,2600.4,2816.8z"/>
<path d="M2525.4,2808.5c-0.3,22.5-13.3,34.6-23.3,47.7c-2.8,3.7-10.9,3.5-16.6,5c-1.5-6.5-6.3-15.1-3.8-19.2
	C2490.8,2826.6,2502.5,2812.8,2525.4,2808.5z"/>
<path d="M2629.5,2861.3c0.3-26.2,12.7-39.3,34.1-47.6C2666.4,2846,2658.2,2857.8,2629.5,2861.3z"/>
</svg>
