<?xml version="1.0" encoding="utf-8"?>
<!-- Generator: Adobe Illustrator 24.3.0, SVG Export Plug-In . SVG Version: 6.00 Build 0)  -->
<svg version="1.1" id="Layer_1" xmlns="http://www.w3.org/2000/svg" xmlns:xlink="http://www.w3.org/1999/xlink" x="0px" y="0px"
	 viewBox="0 0 4000 4000" style="enable-background:new 0 0 4000 4000;" xml:space="preserve">
<path d="M2004.9,203.6c230.2,3.2,436.3,33.9,637,100.2c263.5,87,494.5,227,687.8,425.9c249.5,256.7,390,566.8,435.5,920.5
	c25.7,199.9,22,399.6-12.8,598.5c-53.4,304.8-177.9,576.1-384.9,807.2c-186.3,208-414.6,354.2-675.8,450.6
	c-168.4,62.1-342.5,97.8-520.4,118.9c-130.1,15.4-260.4,19.3-390.7,11.2c-368.1-22.9-699.5-142.3-984.6-380.7
	c-290.1-242.6-475.5-549.8-563.6-916.3c-34.9-145.4-50.7-293.6-43.9-442.9c16.5-363.5,123.2-696.5,344.3-989.2
	c201.5-266.6,462.8-452.9,772.9-573c166.4-64.4,338.9-102.9,516.6-118.3C1889.3,210.5,1956.8,206.9,2004.9,203.6z M2029.4,248.4
	c-79.8,5.5-159.8,9.4-239.5,16.7c-129.1,11.8-255.3,39.1-378.4,79.7c-197.3,65-378.6,159.7-543.3,287.3
	c-157.6,122-288.6,267-392.7,436.5c-118.4,192.8-191.3,402.2-224.5,625.6c-33.5,225.8-22.9,450,32.6,671.2
	c56.5,225,158.8,428.2,302.5,610.6c129.1,163.7,283.8,297.9,463.6,403c247.9,144.9,517.7,210.5,802.9,216.5
	c168.6,3.5,336.1-11.6,502-42.3c244.8-45.2,472.3-134.8,680.3-272c235.5-155.4,416-359.6,539.8-613.7
	c87.7-180.1,137.1-370.8,155.4-569.4c19.3-208.7,8.9-415.9-40-620.6c-52.9-221.6-148.5-422.3-290.2-600.8
	c-83-104.5-179-195.4-285.3-276.2c-152-115.7-320.4-199.2-500.7-258.9C2424.4,278.7,2229.1,250.4,2029.4,248.4z"/>
<path d="M1930.6,2367.3c-116-2.1-237.3-43.2-337.1-140.3c-74.5-72.5-114.2-161.5-129-262.9c-33.2-227.9,95.1-480.9,297.7-589.6
	c182.8-98.1,366.9-99.2,542.3,18.8c118.5,79.7,183.4,197.6,202.8,337c36.6,262.9-124.1,520.7-373.8,608.2
	C2083,2356.2,2009.2,2368,1930.6,2367.3z M1931.9,2320.2c139.9,0.1,248.4-35.7,341.1-111c119.9-97.3,184.8-225.7,193.4-379.8
	c6.2-111.7-20.1-216-89.9-306.2c-128.3-165.8-322.3-203-496.2-148.9c-236.1,73.5-393.9,311.9-373.5,558.7
	c8.1,97.4,43.4,184.1,113.8,254.7C1712.1,2279.4,1823.3,2321.3,1931.9,2320.2z"/>
<path d="M2385.4,2613.7c71.9,0.5,135,60.6,132.8,129.7c-2.6,84.5-50.5,141-142.1,143.3c-71.3,1.8-128.5-63.9-127.8-141.8
	C2249,2668.1,2306.3,2613.2,2385.4,2613.7z M2422.7,2745.2c24.5,0.2,41-13.8,41.2-35.2c0.2-20.3-16.7-38.1-35.6-37.7
	c-22,0.5-38.9,17.5-38.8,39C2389.6,2733.2,2401.3,2745.1,2422.7,2745.2z"/>
<path d="M1289.8,2746.8c-0.2-77.5,54.5-133.4,130.8-133.6c74.4-0.2,133.9,58.2,134.2,131.8c0.4,76.2-59.4,142.9-129.2,142.8
	C1360.6,2887.6,1287.9,2826.7,1289.8,2746.8z M1458.9,2745.2c25-0.4,41.7-16.6,40.7-39.8c-0.9-21.1-16.9-35.8-37.8-34.8
	c-20.1,1-37.1,17.9-37.4,37C1424.1,2729.5,1438.8,2745.5,1458.9,2745.2z"/>
<path d="M3312.7,2901.8c-9.2,12.1-18.3,25-28.4,37c-130.1,154.4-287.3,274.2-467.7,364.1c-11,5.5-23.2,13.8-32.8-1.8
	c-7.3-11.9-2.1-23.6,13.9-33.2c1.9-1.2,4.1-1.9,6.2-3c78.9-42,154-89.9,225.1-144c84-63.9,162.3-133.8,229.2-215.9
	C3281.3,2876.6,3288.6,2876.2,3312.7,2901.8z"/>
<path d="M2481.7,3086.7c-34.3-7.2-69.4-12.1-102.7-22.5c-30.4-9.5-55.2-28.8-57.8-64.6c-1.9-26.1,23.5-57.1,57.5-69.6
	c61.5-22.6,124.8-26.9,188.1-9.4c20.2,5.6,40.1,17,56.5,30.2c35.8,28.9,32.4,71-6.9,96.4c-32.1,20.7-68.2,31.1-106.3,34.4
	c-9.1,0.8-18.2,0.1-27.4,0.1C2482.3,3083.4,2482,3085,2481.7,3086.7z M2489,2935.1c-11.4,0.5-22.9,0.1-34.1,1.7
	c-29.4,4.2-58.5,9.8-82.7,29c-30.9,24.4-28.3,50.6,7,68.6c4,2.1,8.2,4.2,12.5,5.3c39.9,10,80.5,18.3,121.5,12
	c26.7-4.1,52.9-12.9,78.5-22c16.4-5.8,31.7-17.5,31.9-36.5c0.2-19.4-16-28.7-32.1-36c-2.1-0.9-4.2-1.9-6.3-2.7
	C2554.3,2943.1,2523,2932.7,2489,2935.1z"/>
<path d="M1899.7,2977.5c-66.7-0.5-130.8-47-151.2-109.7c-2.5-7.6-4.5-15.4-5.6-23.3c-1.7-12.8-2.2-26.9,13.7-30.9
	c14.9-3.7,18.9,9.2,23.2,19.8c2.6,6.3,4.4,13,6.9,19.4c18.7,48.9,61.7,79.2,112.8,79.6c60.1,0.4,105.2-27.6,125-78
	c3.7-9.6,5.1-20.6,10.8-28.7c4.3-6.2,13.6-12.3,20.8-12.5c12.3-0.2,17,10.2,16.2,21.7c-0.6,7.9-2.4,15.8-4.5,23.5
	C2047.5,2933.4,1984.1,2978.2,1899.7,2977.5z"/>
<path d="M1319.9,3082c-42.1,1.5-81.8-9-119.6-26.1c-46.6-21.1-54.5-71-16.2-105.2c13.2-11.8,30.4-20.9,47.3-26.2
	c55.6-17.6,112.6-19.1,169.3-5.5c17.5,4.2,35.1,11.4,50.3,21c45.4,28.8,44.3,84.3-2.7,111.3C1409,3073.9,1365.5,3083.3,1319.9,3082z
	 M1307.4,3056.5c32.3-4,56.2-5.6,79.6-10.3c15.4-3.1,30.9-8.8,44.4-16.7c34.7-20.3,35.5-43.2,1.7-64c-18.1-11.2-38.6-20.2-59.2-25.4
	c-54.9-13.8-108.7-8.7-159.3,18c-17,8.9-29.9,22.4-28.2,43.2c1.7,21.1,17.4,32.4,35.6,37.1
	C1252.5,3046.3,1283.8,3051.6,1307.4,3056.5z"/>
<path d="M3507.2,2591.1c-3.2,10.8-4.4,17.6-7.2,23.8c-29.5,65.8-63.8,128.7-109.1,185.1c-4.9,6.2-10.6,12.1-17,16.6
	c-10.6,7.3-23.3,7.7-30.2-3.2c-3.3-5.1,0.2-17.3,4.4-23.9c19.6-30.8,41.8-59.8,60.4-91.1c17.4-29.3,31.4-60.7,46.8-91.2
	c4.1-8.1,6.3-18.2,12.5-24c5.6-5.2,16.2-9.1,23.3-7.6C3497.6,2577,3502.5,2586.3,3507.2,2591.1z"/>
<path d="M3588.5,2398.3c-12.4,34.1-22.6,64.3-34.4,94c-5.8,14.7-19,15-32,10.4c-12.6-4.5-13.3-15.4-9.7-25.6
	c10.2-29.1,21.1-58,32.3-86.7c4.3-11.1,13.7-16.9,24.6-11.2C3576.9,2383.2,3582,2391.6,3588.5,2398.3z"/>
<path d="M2748.4,1151c14.2-0.6,31.4,15.7,32.1,30.4c0.7,15.6-11.7,29.7-26.6,30.3c-15.8,0.6-31.4-14-32-29.8
	C2721.4,1167.1,2734.6,1151.7,2748.4,1151z"/>
<path d="M1754.2,509.4c-0.7,19.6-12.2,33.4-27.5,33c-15.3-0.5-28-16.2-27-33.8c0.9-17.4,15.3-32.4,30.1-31.2
	C1744.1,478.5,1754.8,492.6,1754.2,509.4z"/>
<path d="M2433.7,547.1c-0.6,14.1-14.9,26.6-30.1,26.3c-14.6-0.3-29.3-17-28.5-32.5c0.7-15.1,14.4-26.9,30-25.8
	C2421.5,516.2,2434.3,530.6,2433.7,547.1z"/>
<path d="M2898.6,888.3c14.2,0.3,28.4,14.1,29,28.4c0.6,13.6-16.6,31.5-30.2,31.6c-13.1,0.1-28.4-15.2-28.9-29
	C2867.8,904.1,2883.5,888,2898.6,888.3z"/>
<path d="M565.1,1453.7c14.3-0.6,27.8,13,28,28.4c0.2,16.4-13.2,32.4-28,33.5c-14.9,1.1-27.4-11.7-27.5-28.1
	C537.6,1470.3,550.6,1454.3,565.1,1453.7z"/>
<path d="M2623.6,781.1c0.5,15.5-13.5,32.4-27.7,33.3c-15.7,1-27.1-10.5-27.3-27.5c-0.2-16.5,10.6-30.3,24.6-31.5
	C2607.3,754.3,2623.2,767.7,2623.6,781.1z"/>
<path d="M1141.3,1274.6c-0.4,16.3-18.1,34.8-32.2,33.5c-13.6-1.2-25.7-14-25.7-27.2c0-17.2,16.6-34.2,32.2-33.1
	C1129.1,1248.8,1141.6,1261.7,1141.3,1274.6z"/>
<path d="M2672.9,465.7c14.7-0.3,30.6,12.9,31.4,26c0.8,13.7-13.2,28.8-27.6,29.8c-18.5,1.2-32.2-10.5-31.9-27.4
	C2645.1,477.8,2656.7,466.1,2672.9,465.7z"/>
<path d="M1302.1,683c0,15.5-15.3,28.9-32.4,28.5c-16.2-0.3-25.8-9.5-26.4-25.2c-0.8-18.8,10.9-31.1,28.8-30.3
	C1288.1,656.7,1302.2,669.3,1302.1,683z"/>
<path d="M811.3,1215.8c-16.3,0.6-29.1-10.6-29.8-26c-0.7-16,13.5-31.8,28.6-31.7c16.4,0.1,29.9,13.9,29.9,30.5
	C839.9,1203.9,828,1215.2,811.3,1215.8z"/>
<path d="M1439,483.8c0.9,15.7-10.1,27.6-26.9,29c-17.5,1.5-29.1-8.2-29.5-24.9c-0.4-15.5,11.1-28.5,26.6-29.8
	C1424.8,456.6,1438.2,468.2,1439,483.8z"/>
<path d="M3292.9,1288.7c13.6,0.5,24.3,12.6,24,27.2c-0.2,16.7-13.8,29.6-30.6,29.1c-15.8-0.4-27.8-13.5-26.3-28.5
	C3261.5,1301.2,3277,1288.1,3292.9,1288.7z"/>
<path d="M2419.8,1060.9c-14.8,0.6-27.6-11.9-28.3-27.9c-0.8-15.7,11.2-31.3,24.4-31.8c13.2-0.5,28,14.2,28.6,28.5
	C2445.3,1045.8,2433.9,1060.3,2419.8,1060.9z"/>
<path d="M2024.1,568.1c-17.8-0.4-29.1-11.3-27.7-26.6c1.4-15.1,17.6-28.7,33-27.9c14,0.7,25,12.4,25.3,26.6
	C2055.1,557.6,2043,568.5,2024.1,568.1z"/>
<path d="M3182.1,1044c-18.2-0.6-30.3-12.8-30.1-30.3c0.2-15.8,10.7-27.2,24.8-27.1c14.7,0.1,30.2,16.1,30.6,31.6
	C3207.7,1033.5,3197,1044.5,3182.1,1044z"/>
<path d="M748,952.1c14.7-0.4,26.7,10.3,27.5,24.4c0.8,15.2-11.2,28.8-26.6,29.9c-15.9,1.2-29.2-10.8-29.1-26.2
	C719.8,965.1,732.3,952.6,748,952.1z"/>
<path d="M3058.2,1172.5c0.5,15.7-14.2,29.3-31.7,29.3c-14.7,0-25.6-11.1-25.6-26.3c0-16.3,11.6-28.9,27.2-29.5
	C3043.7,1145.4,3057.7,1157.7,3058.2,1172.5z"/>
<path d="M1389.2,1044.6c-0.3,14.2-17.9,29.7-32.4,28.5c-14.2-1.2-24.5-12.8-24.4-27.5c0.1-16.5,11.9-28.5,27.4-28.1
	C1375,1017.9,1389.5,1031.2,1389.2,1044.6z"/>
<path d="M1103.2,1033.2c-0.7,17-14.7,30.4-31,29.8c-14.9-0.6-24.2-11.7-23.1-27.7c1.2-17.4,15.6-32,30.3-30.6
	C1093.3,1006,1103.8,1018.7,1103.2,1033.2z"/>
<path d="M1589.5,697.8c-0.8,16.5-15,28.4-32.2,27c-15.4-1.3-25.3-11.5-25.1-26.1c0.1-16.5,13.8-29.7,30.5-29.2
	C1578.6,669.9,1590.3,682.2,1589.5,697.8z"/>
<path d="M575.4,1864c-0.9-13,14-29.5,27.3-30.3c13.1-0.8,27.3,11.3,28.6,24.3c1.3,13.4-10,27.6-23.1,28.9
	C591.7,1888.7,576.4,1877.9,575.4,1864z"/>
<path d="M845.3,1556.3c-15,0.8-26.8-9.2-28.1-23.8c-1.5-16.6,12.1-31.7,28.5-31.9c14.6-0.1,25.8,10.9,26.2,25.9
	C872.5,1543.1,861.4,1555.4,845.3,1556.3z"/>
<path d="M2645.2,3374.7c-2.8-4.2-10.9-11.1-11.7-18.8c-1.5-13.3,24.7-30.1,43.7-30.3c12.4-0.1,21.5,9.7,20.2,21.6
	C2695.7,3361.5,2672.2,3375.7,2645.2,3374.7z"/>
<path d="M2171.7,777.7c0.8,14.4-15.1,32.1-29.4,32.5c-14.9,0.4-24.8-7.8-25.8-21.4c-1.2-16.9,11.5-33.7,26.2-34.9
	C2156.2,752.9,2171,765.1,2171.7,777.7z"/>
<path d="M3124,1502.9c-16.4-0.1-28.8-12-28.3-27.5c0.4-13.5,13.1-27.4,25.6-28c13.8-0.7,30.3,16.6,30.3,31.8
	C3151.8,1493.3,3140.5,1502.9,3124,1502.9z"/>
<path d="M2858.1,663c15.7,0.7,29.6,16.6,28,32.3c-1.4,14.2-13.1,23.8-28.3,23.2c-15.6-0.6-26.9-13.7-25.6-29.6
	C2833.4,673.4,2844.4,662.4,2858.1,663z"/>
<path d="M1633.6,880.9c-13.4-0.8-26.3-14.4-25.9-27.3c0.5-15.1,14.7-27.7,30-26.5c14.6,1.1,26.7,13.4,26.2,26.5
	C1663.3,867.9,1647.9,881.7,1633.6,880.9z"/>
<path d="M1018.5,855.6c0.5,15.1-9.6,26.6-24.3,27.6c-14.9,1-29.2-12.1-29.5-26.9c-0.3-14.4,11.1-27.3,24.6-27.7
	C1004.7,828,1018,840.3,1018.5,855.6z"/>
<path d="M1600.6,1830.3c6.3-104.7,59.6-223.2,182.6-300.7c116.6-73.4,241.3-76.6,368.4-27.5c156.2,60.4,257.4,211.7,246.6,378.9
	c-11.6,180.1-120.1,317.4-295.8,365.5c-109.7,30.1-212.6,15.3-311.4-37.6C1648.9,2132.7,1595.7,1978.9,1600.6,1830.3z
	 M1991.4,1517.5c-25,2.9-50.4,3.4-74.8,8.9c-172.2,39.1-283.9,191.4-269.9,370.9c11.2,143.5,83.4,244.4,219.7,295.4
	c56.6,21.2,115.5,23.9,175.9,17.5c215.1-22.8,357.6-234.6,296.6-442.5C2294.1,1615,2159.3,1518.4,1991.4,1517.5z"/>
<path d="M2395.2,3015.4c4.4-31.5,10.6-37.8,40.7-41.6C2438.2,3011.1,2424.6,3025,2395.2,3015.4z"/>
<path d="M2519.5,2966.4c-11.6,20.1-19.6,35.9-29.7,50.3c-2.4,3.4-12.1,3.7-17.5,2.1c-2.3-0.7-4-10-3-14.7
	C2474,2980.6,2489.5,2967.3,2519.5,2966.4z"/>
<path d="M2538,3022.8c10-43.3,13-46.8,40.9-50.1C2575.1,3005.6,2563.9,3020.2,2538,3022.8z"/>
<path d="M1348.2,2960.2c-15.4,28.2-18.6,55.3-47.3,67.3C1299.3,2995.9,1311.9,2976.9,1348.2,2960.2z"/>
<path d="M1373.6,3022.8c-8.7-20.5,1.1-34.2,13.9-45.6c3.7-3.3,12.9-3.1,18.1-0.9c2.9,1.2,5,10.6,3.5,14.8
	C1403.3,3007.2,1394.9,3021.5,1373.6,3022.8z"/>
<path d="M1230.2,3013.2c2.5-32.9,9.8-41.5,37.2-46.5C1264.6,2998.7,1258.8,3006.3,1230.2,3013.2z"/>
</svg>
