<?xml version="1.0" encoding="utf-8"?>
<!-- Generator: Adobe Illustrator 24.3.0, SVG Export Plug-In . SVG Version: 6.00 Build 0)  -->
<svg version="1.1" id="Layer_1" xmlns="http://www.w3.org/2000/svg" xmlns:xlink="http://www.w3.org/1999/xlink" x="0px" y="0px"
	 viewBox="0 0 4000 4000" style="enable-background:new 0 0 4000 4000;" xml:space="preserve">
<path d="M2054.7,3706c-348.4-2.1-632.8-64.1-899-197.4c-271.3-135.8-500.6-323.9-677.7-572.2c-164.7-230.8-264.7-487.7-304.5-767.8
	c-20.9-146.8-24.5-294.5-5.3-441.5c57-438.2,246.9-808.4,576.3-1104.3c261.1-234.5,565.5-384.6,910.2-450
	c211.5-40.1,424.1-40.3,636.8-4c215.7,36.8,419.8,106.4,610.7,213.4c163.3,91.6,312.8,201.8,439.4,340.7
	c185.6,203.7,319,437.4,397.8,701.8c58,194.4,82.2,393.2,72.9,595.5c-12,262.4-78.4,510.6-204.2,742
	c-116.5,214.2-268.2,397.9-460.9,548.9c-230.4,180.7-488.8,298.6-774.3,358.8C2263.6,3693.1,2117.7,3706.2,2054.7,3706z
	 M3722.5,1908c-5-54.3-9.3-144.1-22.3-232.6c-30.6-208.9-100.6-404.2-207.3-587.1c-119.8-205.3-274.8-378.2-467.7-515.9
	c-248.7-177.4-525-286.1-829.2-321.5c-161-18.7-321.7-17-482,8.6c-237.6,38-458,122.7-661.5,249.5
	c-278.2,173.4-492.2,406.4-637.2,701.9c-102.1,208.1-156.5,428.2-166,659c-7.4,178.2,17.1,353.2,66.9,524.8
	c65,223.9,174.2,424.3,326.2,599.7c228,263,510.6,443,844.7,543.2c264.9,79.4,533.4,94,805.3,51.3c179.6-28.2,349.6-86.6,511-170.7
	c253.2-132,466.1-310.1,628.4-546.4C3623.7,2592.1,3718.2,2282,3722.5,1908z"/>
<path d="M2401.5,1889c3.3,189.8-153.4,431.2-436,415.1c-302.3-17.2-439.2-307.2-369.8-526.9c32.7-103.4,87.6-189.1,181.8-246.1
	c179.3-108.3,411.2-65.9,538,100.7C2372.8,1707,2400.6,1794,2401.5,1889z M1983.8,2208.3c190.8-1.5,319.3-136.7,320.9-320.8
	c1.7-195.5-148.8-316-308.9-318.2c-176.8-2.5-321.5,144-322.5,323.2C1672.4,2069.2,1809,2208.1,1983.8,2208.3z"/>
<path d="M573.3,1308.1c5.4-17.6,12.4-51.3,25.8-82.1c80.9-185.6,198.3-343.1,362.9-463.3c34-24.9,70.2-46.4,111.4-57.3
	c41.6-11,80.9-9.9,112.8,25.3c33.6,37,34.4,86.7-0.6,122.2c-13.4,13.6-28.9,25.7-45,36.1c-153.1,99.5-262.9,234.8-334.9,401.9
	c-11.2,25.9-24.6,51.4-40.6,74.5c-12,17.3-27.9,33.5-45.6,44.7c-33.1,21.2-69,20.9-103.2,0.5
	C583.5,1391.4,571.7,1360.7,573.3,1308.1z M609.7,1322.5c3.9,24,6.4,46.1,29.5,56.6c23.5,10.6,47.4,7.9,66.5-10.1
	c12.2-11.5,23.5-24.9,31.7-39.4c17.7-31.6,33.3-64.4,49.3-97c50.5-102.5,111-198.2,196.8-274.9c42.1-37.7,89-70,133.5-105
	c14.2-11.2,29.6-21.5,41.4-34.9c19.1-21.8,14.7-47.1-8.2-65.1c-19.3-15-40.2-13-61.5-6.3c-47.1,15-88.5,40.5-127.1,70.7
	c-137.5,107.6-240,243.1-314.2,400.3C631.6,1251.1,622.1,1287.5,609.7,1322.5z"/>
<path d="M2573.9,1902.3c-4.3,163.3-75.9,318.8-222.5,438.1c-9.4,7.7-20.7,14.7-32.3,17.6c-6.5,1.7-18.6-3.5-22.2-9.3
	c-3.5-5.7-2.3-18,1.8-24c6.1-9,16.3-15.5,25.2-22.4c285.1-221.2,270.8-663.3-28.8-864.8c-75.5-50.8-158.7-82.9-250.8-87.8
	c-4.5-0.2-9.1-0.4-13.6-0.8c-14.4-1.2-23.8-7.9-23.1-23.6c0.7-14.7,8.6-23.3,23.8-23.1c14.7,0.2,29.7,0.2,44.1,2.6
	C2370,1352.3,2571.5,1592.2,2573.9,1902.3z"/>
<path d="M1389.3,1880.8c6.3-189.2,75.9-347.9,228.1-466c11.6-9,24-17.3,37.2-23.4c10.3-4.8,22.9-5.9,30.2,6.5c7,11.9,2,21.8-8,29.6
	c-8,6.3-16.3,12.3-24.5,18.3c-192.9,140.9-270.2,396.5-184.1,619.8c59.8,155.4,166.6,265.5,326.7,319.9c6.4,2.2,12.9,4.4,18.9,7.6
	c9.7,5.2,16.5,12.5,11.7,24.7c-4.2,10.7-12.1,17.2-23.7,15.1c-13.3-2.4-26.9-5.1-39.3-10.3c-173.7-72.4-291.2-197-348-377.2
	C1397.6,1992.1,1388.8,1937.3,1389.3,1880.8z"/>
<path d="M1421.7,2944.1c-69.6-0.2-126.4-58.6-125.9-129.6c0.5-69.7,59-128.2,128.3-128.1c70.6,0,130.3,60.2,129.7,130.8
	C1553.3,2889.5,1496.2,2944.3,1421.7,2944.1z"/>
<path d="M2498.8,2814.3c-1.8,73.1-58.2,131.2-125.6,129.4c-75.3-2-129.9-57.2-128.2-129.7c1.7-73.8,61-129.7,135.2-127.4
	C2447.7,2688.8,2500.5,2745.6,2498.8,2814.3z"/>
<path d="M3244.3,2964.5c-3.6,5.3-8,14.7-15,21.6c-39.6,39-78.3,79.1-120.2,115.6c-124,108-261.8,195.1-410.8,264.4
	c-15.4,7.2-31.3,14-47.7,17.9c-6.6,1.6-17.9-3.1-22.1-8.7c-6.6-8.7-4.6-20.1,5.7-26.6c9.5-6,19.9-10.8,30.2-15.6
	c136.5-63.2,265.7-138.6,381.6-234.8c50.5-41.9,96.4-89.4,144.3-134.4c7.4-7,13.9-15.3,22.2-20.9
	C3225.1,2934.2,3244.2,2945.1,3244.3,2964.5z"/>
<path d="M1279.1,3134.7c-41.3-0.2-81.2-5.9-117.8-27.1c-46.4-26.8-53.9-68.2-16.4-106.2c13.1-13.3,30.1-24.9,47.5-31.5
	c56.9-21.6,115.3-23.1,173.1-2.6c15.7,5.6,31.1,14.4,44,24.9c33.9,27.6,34.5,70.7,2.5,100.7c-29.6,27.8-66.8,37.2-105.7,41.6
	C1297.3,3135.6,1288.1,3134.7,1279.1,3134.7z M1301.4,2989.9c-49.4,0.2-85,6.2-116.2,26.8c-29.6,19.6-29.3,48.1,2.4,63.2
	c21.9,10.5,47.1,17,71.3,18.9c43.4,3.4,86.3-2.1,121.7-31.3c26.4-21.7,24.8-36.1-4.3-54.9
	C1349.6,2995.5,1320.1,2989.4,1301.4,2989.9z"/>
<path d="M2525.5,2955.9c32.7-1,71,6.5,106.2,27.5c54.6,32.6,55.8,93.6-0.6,123.7c-76,40.6-154.8,41-230.8-0.4
	c-51-27.8-53.7-75-9.7-112.9C2427.3,2962.2,2471.3,2954.9,2525.5,2955.9z M2505.9,3099.6c41.1-5.7,76.7-7.6,106.9-28.7
	c29.2-20.4,28.7-39-2.1-56c-54.1-29.9-110.4-31.4-167.5-10.5c-11.5,4.2-22.7,10.9-32,18.9c-18.8,16.2-18.3,32.2,0.7,48.3
	c5.9,5,13.3,9.3,20.6,11.1C2458.7,3089.4,2485.3,3094.9,2505.9,3099.6z"/>
<path d="M3548.2,2430.1c-2.3,12.6-2.9,24-6.5,34.3c-49.2,138.8-114.4,269.2-205.1,386c-5.5,7.1-11.1,15.9-18.6,19.1
	c-6.7,2.8-17.9,1.3-23.9-3c-4.3-3-5.3-14-4.1-20.7c1.1-6.1,7-11.3,11.1-16.8c82-108.6,145.7-227,190.9-355.4
	c3.8-10.7,7.3-21.5,12-31.8C3513.9,2419.7,3515.9,2419.2,3548.2,2430.1z"/>
<path d="M1893.7,3039.9c-65.7-0.8-127.1-42.8-147.2-105.6c-5-15.8-5.7-33.4-5.6-50.1c0-5.4,8.6-14.7,14-15.2
	c7.3-0.7,18.3,3.3,22.1,9c6.1,9,7.6,21.1,11,31.9c16.3,51.8,58.8,83.5,111.3,83c51.5-0.6,91.6-31.3,107.7-82.8
	c3-9.7,5.3-19.7,7.9-29.6c3.9-14.8,13.7-19.9,28.3-16.9c14.4,2.9,17.3,13.8,16,25.8c-5.6,51.9-25.4,96.4-70.9,125.6
	C1961,3032.6,1930.7,3040.9,1893.7,3039.9z"/>
<path d="M1369.1,642.8c-31.9,0-57.7-26.4-57.1-58.3c0.6-28.8,25.8-56,52.6-56.8c37.1-1.2,64,24.2,63.3,59.7
	C1427.2,621.7,1404.8,642.8,1369.1,642.8z M1394.2,586.3c-8.6-9.3-12.5-17.1-18.5-19.3c-10.2-3.8-24.8,10.2-23.2,22.8
	c0.7,5.7,10.6,15.6,13,14.7C1374.7,601.2,1382.5,594.2,1394.2,586.3z"/>
<path d="M3211.2,946.4c0.6,32.1-20.6,56.5-49.6,57.3c-30.8,0.8-51.5-19-51.8-49.8c-0.3-30,23.3-53.9,53.2-53.9
	C3189.8,899.9,3210.7,920.1,3211.2,946.4z"/>
<path d="M543.1,1555c28.5-0.3,52.1,22.5,52.6,50.9c0.5,28.2-19.5,48.5-48.9,49.4c-29.6,0.9-51.4-20-52.3-50.1
	C493.8,1577.7,515.5,1555.3,543.1,1555z"/>
<path d="M1638.3,839.4c-31.2-0.2-52.5-21.5-53.2-53.2c-0.7-28.3,25.6-54,54.2-53.1c31.5,1,53.5,23.7,52.6,54.2
	C1690.9,820.3,1671,839.7,1638.3,839.4z M1641.8,766.1c-7.3,9.2-14.7,14.5-15,20.2c-0.3,5.5,5.6,14.7,10.8,16.5
	c10.3,3.5,17.8-3.7,16.9-14.2C1653.8,782.2,1647.8,776.4,1641.8,766.1z"/>
<path d="M2365.9,770.8c-27.1-0.5-46.6-21-46.2-48.4c0.4-28.3,25.4-53.5,51.9-52.4c25.7,1.1,46.6,23.3,46.6,49.5
	C2418.3,747.9,2394.4,771.3,2365.9,770.8z"/>
<path d="M3224.1,1353.2c-0.6,26-19.9,44.1-46.4,43.6c-24.8-0.4-44.7-21.4-44.1-46.5c0.6-23.6,24.1-46.2,46.6-44.7
	C3204.4,1307.2,3224.6,1329.1,3224.1,1353.2z"/>
<path d="M3361.6,1218c-21.3,0.5-38.7-16.4-39.1-38.2c-0.4-21.7,18.4-41,40.5-41.8c21.7-0.7,40.2,15.5,41.2,36.3
	C3405.3,1196.5,3384.9,1217.4,3361.6,1218z"/>
<path d="M2714.3,1199.5c-22.1,0.6-39.5-15-40.5-36.4c-1.1-22.4,19.5-44.1,42-44.2c20-0.1,39.6,19.3,39.3,38.9
	C2754.8,1179.3,2735.7,1198.9,2714.3,1199.5z"/>
<path d="M2220.1,461.1c-0.9,22.9-19.7,42.6-40.5,42.3c-20.9-0.3-36.8-18.1-36.7-41c0.1-23.6,18.4-42.7,40-41.9
	C2204,421.2,2220.9,439.6,2220.1,461.1z"/>
<path d="M1123,1159.7c-0.2,23.6-17.4,40.2-41,39.7c-21.9-0.4-38.6-17.1-38.4-38.5c0.1-21.2,20.8-41.9,41.2-41.3
	C1104.7,1120.1,1123.2,1139.6,1123,1159.7z"/>
<path d="M3405.3,1601.4c-0.1,23.8-16.9,40.7-40.8,40.9c-21.5,0.2-38.1-17.3-37.6-39.6c0.5-20.6,19.2-39.8,39-40
	C3386.6,1562.5,3405.3,1580.9,3405.3,1601.4z"/>
<path d="M2613.7,993.6c-20.3,0.8-36.6-14.1-38.1-34.6c-1.6-21.9,17.1-43.8,37.4-43.9c19.2,0,38.6,19.5,39,39.3
	C2652.5,974.5,2634.5,992.8,2613.7,993.6z"/>
<path d="M831.5,1715.3c-3,23.3-22.3,38.6-45,35.6c-19.9-2.6-33-20.4-30.3-41.4c2.8-22.4,21-38.8,40.7-36.5
	C817.9,1675.3,834.1,1695.1,831.5,1715.3z"/>
<path d="M1370.6,977.4c-21.8-1.7-35-16.5-33.7-38c1.3-21.2,20-39.7,39.2-38.8c22.1,1,40.5,22.1,37.9,43.4
	C1411.4,964.6,1392.6,979.1,1370.6,977.4z"/>
<path d="M2681.2,689.1c-22.9,0.3-37.7-14.9-37.3-38.1c0.4-19.6,16.7-37.4,35.4-38.4c22-1.2,42.3,17.8,41.7,39.2
	C2720.4,672.5,2702.9,688.8,2681.2,689.1z"/>
<path d="M2107.5,845.3c-19.8-0.2-35.1-16.5-35.1-37.3c0-20.5,15.9-37.2,35.8-37.8c19.7-0.5,40,19,40,38.6
	C2148.2,829.3,2130.1,845.6,2107.5,845.3z"/>
<path d="M3050.6,685.6c20.6-0.4,38.3,14.9,39.5,34.2c1.2,18.6-19.5,41.4-37.6,41.4c-19.9,0.1-39.4-19.6-39.3-39.6
	C3013.3,702,3029.8,686,3050.6,685.6z"/>
<path d="M1748.6,572c-21.2-0.3-36.8-15.4-37-35.7c-0.3-20.5,17.9-39.4,38-39.6c20.1-0.2,37.8,19.3,36.6,40.2
	C1785,558,1769.6,572.3,1748.6,572z"/>
<path d="M894.8,1485.1c-19.9,0.6-36.9-15.9-36.7-35.7c0.2-20.4,16.1-37.9,35-38.5c20.8-0.7,36.9,13.8,38.1,34.5
	C932.4,1468.1,917.4,1484.4,894.8,1485.1z"/>
<path d="M2999.9,1185.3c-0.2,22.4-17,40.4-37.4,40c-19.9-0.4-35.8-16.7-36.3-37.3c-0.5-20.2,19-39,39.4-38
	C2984.2,1150.9,3000.1,1167.2,2999.9,1185.3z"/>
<path d="M2830.2,867.9c0.6-21.6,15.9-37,36.2-36.6c20.7,0.4,36.4,16.8,35.6,37.1c-0.9,21.7-18.9,38.3-40.5,37.3
	C2844,904.9,2829.7,887.6,2830.2,867.9z"/>
<path d="M3541.8,2321.1c4.5-19.4,7.7-34.7,11.6-49.9c3.5-13.7,13.3-17,26-14.1c11.5,2.6,18.2,10.5,16,21.9
	c-3.1,16.4-7.5,32.7-13.4,48.3c-4,10.6-14.7,15.2-25,10.2C3550.3,2334.2,3546.1,2326,3541.8,2321.1z"/>
<path d="M1351.8,3017.7c-2.1,24.2-13.7,38.1-28,48.6c-6.5,4.8-20.4,7.2-26.4,3.4c-11.2-7.1-3.8-17.8,3-25.6
	C1313,3029.7,1327.4,3018.4,1351.8,3017.7z"/>
<path d="M1262.7,3015.6c1,25.6-13,38.6-29.2,49.2c-4.5,3-16.4,2.7-18.3-0.4c-3.4-5.4-4.8-15.6-1.8-20.9
	C1223.1,3026.3,1237.3,3013.9,1262.7,3015.6z"/>
<path d="M2502.7,3016.1c-2.4,26.6-16.4,48.2-33.7,50.8c-7.5,1.1-17.9-2-23.4-7.1c-3-2.8-0.6-15.1,3.1-20.6
	C2460.7,3021.3,2477.9,3012.8,2502.7,3016.1z"/>
<path d="M2583.4,3016.2c0.1,24.7-11.2,40.6-28,52.6c-4.2,3-14,3.2-17.9,0.3c-4-3-6.3-11.8-5.2-17.3
	C2536.2,3030.7,2555.7,3017,2583.4,3016.2z"/>
</svg>
