<?xml version="1.0" encoding="utf-8"?>
<!-- Generator: Adobe Illustrator 24.3.0, SVG Export Plug-In . SVG Version: 6.00 Build 0)  -->
<svg version="1.1" id="Layer_1" xmlns="http://www.w3.org/2000/svg" xmlns:xlink="http://www.w3.org/1999/xlink" x="0px" y="0px"
	 viewBox="0 0 4000 4000" style="enable-background:new 0 0 4000 4000;" xml:space="preserve">
<path d="M3195.7,1811.5c44.4,29.7,85.8,55.9,125.6,84.2c92.3,65.6,176.2,140.5,249.7,227c72.4,85.2,116.2,182.6,130.2,293.4
	c11.8,93.2,24.8,186.3,34.7,279.8c4.5,42.4,5.4,85.6,3.7,128.3c-3,79.6-42,143.2-96.5,198.1c-73.8,74.3-163.9,121.1-262.3,154
	c-134.6,44.9-266.9,37.2-398.5-12.9c-165.9-63.1-332.3-124.7-498.5-187c-4.9-1.8-9.8-3.5-14.7-5.4c-12.6-4.9-21.3-1.8-28.9,10.1
	c-44.6,70.7-89.5,141.1-134.8,211.3c-52.7,81.6-105.2,163.3-159,244.1c-68.1,102.2-164.8,167.5-278.4,209
	c-94.1,34.4-191.3,52.7-291.9,44.5c-87.6-7.1-163.8-39.4-221.3-109c-95.8-115.9-190.7-232.6-275.8-356.8
	c-33.5-48.8-56.3-102.9-62.2-162.3c-8.3-83.1-20.3-166.3-20.6-249.6c-0.4-122.2,24.2-240.6,79.3-351.3c2.7-5.4,4.4-11.3,7.3-18.9
	c-7.9-4.6-14.5-9.4-21.8-12.6c-148.3-64.8-297-128.6-444.8-194.4c-64.7-28.8-129.1-59.1-191.1-93.4
	c-89-49.3-139.5-127.6-151.7-228.5c-13.8-114-25.2-228.3-36.9-342.5c-3.7-36.3-6.2-72.9-6.9-109.4c-2.2-116,41-210.6,139.6-274.4
	c67.4-43.6,137.4-83.6,208-121.9c27-14.6,58.3-23.5,88.7-29.1c68.7-12.8,137.9-23.1,207.2-32.1c63.2-8.2,125.2-0.9,184.2,24.5
	c24,10.3,46.7,12,72.7,4.9c106.1-29.3,204.4-10,295.3,51.6c10.5,7.1,24.7,13.8,36.7,13.1c112.9-6.3,213.8,29.5,309.6,84.8
	c5.4,3.1,10.8,6.3,19.5,11.4c5.9-7.9,12.9-15.2,17.6-23.8c24-43.9,49.7-87.2,70.7-132.5c40.6-87.9,100.2-158.3,181.1-211
	c7.9-5.1,15.6-11.1,24.2-14.3c43.8-16.2,69.8-49.5,93.1-88.2c89.3-148.9,213.3-260.8,367.1-340.9c58.3-30.3,113.2-67.1,171.8-96.8
	c98.8-50.1,200.4-94.4,309.7-116.8c87.6-18,175.7-23.7,263.5,1.9c63.1,18.4,113.5,54.4,146.8,110.2
	c49.8,83.3,96.7,168.3,143.7,253.3c30.3,54.8,58.3,110.9,87.6,166.2c56.9,107.9,54.8,217.6,4.3,325.7
	c-29.1,62.2-64.4,121.9-100.6,180.4c-119.8,193.6-241.4,386.1-362.2,579C3204.7,1794.4,3200.6,1802.6,3195.7,1811.5z M1079.6,2829
	c6.5,64.2,13.3,148.5,24.1,232.3c8.5,66.5,42.9,121.5,89,168.9c27,27.7,60.8,43.8,98.8,50.7c39.5,7.2,79.4,6.4,118.4-1.3
	c173.8-34.2,321.8-115.3,437-250.6c58.8-69.1,115.6-140.6,166.6-215.5c152.7-224.4,304.3-449.7,452.3-677.3
	c157.7-242.5,313.1-486.5,464.9-732.6c116.8-189.2,228.1-381.8,338.6-574.8c39.3-68.6,70.9-141.8,102.5-214.5
	c25.2-58.1,34.5-120.2,29.8-183.8c-6.6-88.5-60.9-155.3-146.4-178.6c-51.1-14-103.4-13.6-155.6-8c-93.5,10-182,39.1-265.3,80.8
	c-96.1,48-189.8,101.1-283.6,153.5C2410.4,556.6,2300.2,665,2226,808.5c-12.4,24-29.4,42.7-55.1,52.9c-12.6,5-24.4,11.9-36.3,18.4
	c-67.9,36.8-121.5,87.9-157.2,156.9c-12,23.2-23.8,46.5-36.7,69.2c-32.5,57.1-67.3,113.1-97.9,171.2c-17.6,33.5-40.2,60.5-71.2,81.4
	c-10.4,7-20.4,14.5-30.7,21.7c-86.2,60.3-148.7,136.7-167.6,243.5c-20.8,117.4-23.1,112.1-97.5,193.6
	c-63.8,69.9-114.4,146.1-135.7,239.7c-5.2,22.8-17.5,41.5-33.8,58.9c-36.3,38.6-62.6,83.5-75.4,135.4c-10.5,42.5-18.2,85.8-29.8,128
	c-8.6,30.9-18,62.6-33.2,90.5C1110.3,2575.7,1082,2688.6,1079.6,2829z M1288.3,3352.9c1.4,4.6,1.6,8,3.2,10.1
	c43.6,54.7,87.8,109,131,164c35.1,44.7,82.4,66.4,136.9,73.8c22.6,3.1,45.9,3.7,68.8,2.7c96-4.1,188-25.7,275-67
	c10.1-4.8,19.4-11,31.3-17.8c-6.3-11.6-10.7-20.8-16.1-29.3c-18.5-29.1-37.6-57.8-55.9-87c-7.1-11.4-9.8-23.4,4.2-32.7
	c11.7-7.9,19.2-6.2,30.7,10c21.1,29.9,41.1,60.4,61.9,90.5c4.5,6.5,10.3,12,16.7,19.3c11.2-8.3,20.8-14.5,29.4-21.8
	c33.9-28.6,60.5-63.4,84.6-100.3c126.9-194,254-388,380.7-582.2c88.5-135.6,177.2-271,264.5-407.3c145.2-227,290.4-454,433.6-682.2
	c125.5-199.9,248.5-401.4,372.2-602.4c17-27.5,34-55.3,47.5-84.6c42-90.8,50.7-181.9,1.2-273.9c-37.6-69.9-72.7-141.1-109.1-211.6
	c-2.1-4-5.8-7.2-12.9-15.8c-30.9,155.2-110.6,283.3-180.6,417.5c41.7,22.9,72.8,51.8,84.2,98c11.2,45.3,3.2,87.2-19,126.8
	c-23.5,41.9-59.5,69.8-104.1,86c-44,16-86.2,10-125.7-20.4c-11.7,17.8-22.3,33-32.1,48.8c-102.6,164.9-205,330-307.7,494.9
	c-26.5,42.6-53.8,84.6-80.6,127c-12.9,20.4-12.7,20.4,4.6,39.3c6.3,6.9,13.1,13.8,17.6,21.9c29.1,52.7,30.9,106.3-1.8,157.6
	c-32.5,50.9-80,75-141.2,68.6c-12.4-1.3-24.6-4.3-36.8-7.1c-14-3.2-23.2,1-31.3,13.5c-61.7,94.4-124.1,188.4-186.2,282.6
	c-3.8,5.8-6.6,12.2-10.6,19.7c14.4,9.7,27.5,18.1,40.2,27.1c57.4,40.6,80.7,126.7,51.6,190.7c-39.7,87.4-157.8,113.1-234.4,51.1
	c-7.1-5.7-14.1-11.5-22.4-18.3c-6,7.4-10.8,12.7-14.9,18.4c-62.1,85.3-123.3,171.2-186.3,255.7c-45.1,60.5-96.4,115.3-154.6,163.8
	c-20.6,17.2-20.1,19.5-5.9,41.4c5.1,7.9,11,15.3,16,23.2c12.3,19.4,24.4,38.9,36.4,58.5c6.2,10.2,6.7,19.9-4.4,27.3
	c-11.9,7.9-21.8,4.4-29.8-6.3c-4.4-5.8-8.1-12.2-12.2-18.2c-17.5-25.8-34.9-51.6-52.4-77.3c-6.4,1.3-10.8,1.3-14.3,3.1
	c-8.4,4.2-16.4,9.1-24.5,13.9c-124.5,73.8-256.5,121.1-403.8,115.4C1297,3351.4,1293.2,3352.3,1288.3,3352.9z M1747.3,1273.8
	c-7.8-5.8-13.2-10.4-19.1-14.1c-85.5-53.4-178.3-81.3-279.4-77.6c-28.8,1.1-53.1-5.4-74.3-25.8c-9.6-9.2-21.9-16.1-33.8-22.5
	c-61.5-33.2-126.5-34.5-191.7-15.9c-41.3,11.8-78.9,10.8-118.1-7.6c-48.5-22.8-100.4-26.6-153.3-18.7
	C822,1100,766,1106.6,710.5,1116c-28.6,4.8-59.3,8.9-84.1,22.4c-76,41.4-150,86.4-223.8,131.7c-27.1,16.6-46.5,42.1-60.1,70.9
	c-37.2,78.9-34.7,155.5,15,228.8c49,72.3,119,120.3,194.3,159.4c223.6,116.1,457.8,208.3,690.2,304.6c3.6,1.5,8,1.4,11.7,1.9
	c2.9-2.7,6.1-4.4,7.2-7c3.7-8.6,7.1-17.4,9.9-26.3c27.4-89.7,74.3-167.6,140.2-234.2c11.8-11.9,22.8-24.4,34.3-36.6
	c17.6-18.7,28.4-40.4,33.2-66.1c6.3-33.8,14.6-67.3,23.1-100.7c18.5-72.9,55.9-134.7,112.5-184.3c26.7-23.4,54.8-45.2,82.5-67.4
	C1712.6,1300.3,1729.1,1287.9,1747.3,1273.8z M3147.5,1886.8c-6.9,9-10.3,12.9-13,17.2c-32.6,52.3-64.9,104.7-97.5,157
	c-27.6,44.3-55,88.8-83.1,132.8c-8.7,13.5-7.8,23.4,3.1,35.9c37.3,42.4,41.9,91.9,25.9,144c-12.3,40-39.4,65.3-80.3,75.7
	c-38,9.7-74.4,5.3-113-14.8c-25.6,48.2-56.1,92-81.6,140.3c7.6,3.6,11.1,5.7,15,7c70.7,25.3,141.3,51.1,212.3,75.5
	c83.9,28.9,168.6,55.3,257.7,63.7c92.2,8.7,181.7,1.7,263.4-47.5c63.1-38,116-85.1,140.2-158.1c26.2-79.1,15.4-154.5-20.9-227.6
	c-32.9-66.4-81.9-120.6-132.5-173.6c-67.5-70.6-145.5-128.5-224.2-185.3C3197.3,1913.3,3172.8,1901.6,3147.5,1886.8z M596,1814.4
	c-93.4-49.9-185.9-103.6-264.6-187.3c-0.8,14.2-2.4,22.1-1.6,29.8c8.7,78.9,17.3,157.8,26.8,236.6c7.9,65.6,38.8,118.5,92.2,157.5
	c16.8,12.3,34.1,24.6,52.7,33.6c70.4,34.1,141.1,67.9,212.5,100c129.4,58.3,259.4,115.4,389.2,172.9c4.5,2,9.6,2.4,17.5,4.2
	c7.5-33.8,13.2-66.5,22.2-98.3c8.7-31.1,18.7-62.1,31.8-91.5c13.3-29.7,31.1-57.4,46.7-85.7c-123.4-50-243.8-98.8-365.1-147.9
	c-4,7.1-7.3,11.2-8.9,15.9c-21.8,64.1-115.9,90.4-172.7,65.9c-55.7-23.9-77.1-71.1-82.8-126.7C589.2,1869.1,594.1,1843.9,596,1814.4
	z M2499.9,2892.7c28.4,9.9,55,18.6,81.2,28.4c132.8,50,265.3,100.8,398.4,150.3c39,14.5,79,27,119.3,37.5
	c44.5,11.5,90,14.2,139.1,7.5c4.2-112.5,10.4-223.1,3.9-334.3c-19.4-1.9-35-3.2-50.5-4.9c-102.4-11.2-200.5-40-297-74.2
	c-65.9-23.3-131-48.9-196.4-73.6c-21-7.9-23.8-7.4-36,11c-2.9,4.3-4.9,9.3-7.9,13.5c-14.2,20-16.9,37.7-5.3,62.9
	c27.5,59.7-7.7,127.2-70.6,142.3c-15,3.6-31.1,2.3-46.7,2.9C2509,2862.9,2508.9,2862.9,2499.9,2892.7z M3633.1,2567.5
	c-7.3,10.6-13.4,18.9-18.9,27.6c-61.5,96-150.7,150.8-260.5,174.6c-21.1,4.6-42.6,7.9-66.7,12.3c0,108.8,0,216,0,324.8
	c6.9-0.5,14.5,0.5,20.9-1.8c45.2-16,91.2-30.3,135-49.5c62.8-27.5,118.8-65.5,162.4-119.7c25.3-31.5,44.9-66,47.6-107.1
	c5.6-84.8-1.9-169-13.4-252.9C3639.2,2574.1,3637.2,2572.7,3633.1,2567.5z"/>
<path d="M2480,824.3c19.1,3.4,44.4,5.1,67.9,12.6c48.9,15.5,73.9,60.8,62.9,110.9c-3.3,15.1-8.8,30.3-16.4,43.7
	c-27.7,49.2-68,87-114.6,117.7c-13.5,8.9-30.3,14.2-46.4,17.5c-35.5,7.4-68-6.4-84.8-38.6c-28.5-54.5-37.4-113.7-22.6-173.1
	c11.3-45.7,44.3-74.9,92-83.7C2436.5,827.9,2455.3,827,2480,824.3z"/>
<path d="M1640.3,1732.4c3.8-41.5,13.9-89.1,37-133.2c25.2-48.2,65.8-72.6,119.4-69.9c57.4,2.9,101.1,30.8,125.6,84
	c13.8,30.1,12.6,61.7-3.2,90.5c-10.3,18.9-23,38.3-39.4,51.7c-32.2,26.2-65.9,51.6-102.1,71.5
	C1703,1867.9,1638.1,1825.7,1640.3,1732.4z"/>
<path d="M1749.7,2696.7c-1.9,30.5-8.3,58.6-21.7,85.2c-26.1,52-92.9,82.7-153.3,39.3c-29.3-21-52.7-47.1-69.9-78.7
	c-16.9-31.2-18.8-63.8-6.8-96.7c13.7-37.8,34.8-71.4,65.3-97.7c13.1-11.3,29.1-20.6,45.4-26.4c53.4-19.1,103,4.7,118.3,58.9
	C1737.8,2618.4,1742.4,2658,1749.7,2696.7z"/>
<path d="M2956.6,1026.8c-62.9,0.5-101.6-38.2-99.6-94.2c1.5-41.4,14.1-80.1,35.8-115.1c32.4-52.1,98.8-77.2,158.2-61.8
	c44.1,11.5,75.4,56.3,71,105c-6.2,67.1-46,112-101,145.5C2999.3,1019.4,2975.9,1028.1,2956.6,1026.8z"/>
<path d="M2385.5,1349.3c64.8,1.3,110.1,49.4,108.8,115.5c-1.2,65.6-52.8,113.1-121,111.4c-62.4-1.6-107.6-50.7-105.8-114.8
	C2269.3,1397.6,2321.6,1348,2385.5,1349.3z"/>
<path d="M1985.8,2119.4c-1.3,64.6-52.8,115-116.6,114.2c-62-0.8-108.6-51.2-106.4-114.8c2.5-70.3,48.7-117.3,113.3-115.3
	C1940.3,2005.3,1987.1,2054.9,1985.8,2119.4z"/>
<path d="M2815.9,452c9.3,1.8,24.1,2.8,37.6,7.7c42.6,15.6,61,50.8,49.2,94.7c-10.5,39.1-31.2,73.1-60.9,100.4
	c-39.8,36.5-91.6,34-128.1-5.2c-31.3-33.5-46.4-72.6-29.9-117.7c16.6-45.3,52.9-68.1,98.9-76.9
	C2791.7,453.3,2801.2,453.3,2815.9,452z"/>
<path d="M1439.2,2419.3c-3.6,51.4-10.1,95.3-47.5,127.8c-29.7,25.7-67.7,32.8-98.6,17.1c-29.4-14.9-46.8-52.1-43.6-90.3
	c3.1-36.3,15.5-69.1,35.4-99.1c12.3-18.6,27.9-33.7,49.3-41.9c43.5-16.5,86.4,4.3,98.7,48.9
	C1436.8,2395.8,1437.8,2410.5,1439.2,2419.3z"/>
<path d="M2048.4,2296.6c-1.8,67.8-57.8,143.4-121.9,164.3c-58.8,19.2-93.1-8.5-85.1-69.8c5.4-41.1,27.3-74.9,56.3-102.4
	c20.1-19.1,44.6-34.8,69.6-47C2015,2218.5,2049.9,2243.3,2048.4,2296.6z M2016.2,2297c1.3-26.8-9.5-35.8-34.3-29.6
	c-4,1-8,2.5-11.6,4.5c-49.3,27.6-86.2,64.5-94.9,123.5c-1.7,11.6-5.5,25.3,5.9,31c8.8,4.4,24.2,4.8,32.2-0.2
	c23.7-14.6,46.1-31.5,67.2-49.8C2004.8,2355.6,2012.2,2326,2016.2,2297z"/>
<path d="M2713,1448.1c-1.7,71.8-73.8,156.3-144.8,169.8c-31.3,6-52.6-5.1-58.2-36.3c-3.5-19.7-2.7-42.4,3.9-61.1
	c18.1-51.8,52.6-91.8,100.1-120c6.3-3.7,12.7-7.3,19.5-9.8C2681.5,1372.9,2714.2,1396.7,2713,1448.1z M2610.1,1446.6
	c-44.7,22.3-63,63.2-72.2,108.3c-5.5,26.7,9.4,35.7,35.7,24.4c34.2-14.8,61.9-38.1,83.5-68.1c14.2-19.7,21.6-42.6,23.1-66.9
	c1.6-27.2-9.7-35.9-33.4-24c-13.6,6.8-25,17.8-37.5,27L2610.1,1446.6z"/>
<path d="M2166.8,1970c-13.5-3.3-32.9-7.1-51.6-12.9c-7.6-2.3-14.7-8.1-20.5-13.8c-8.5-8.4-7.8-19.2-2.1-28.9
	c5.9-10.1,15.3-9.2,24.8-5.5c6.8,2.7,13.7,5.2,20.1,8.5c39.1,20,73.5,6.6,104.8-16.9c31.3-23.5,40.1-57.9,35.1-95
	c-1.7-12.6-10.9-24.4-17.7-35.9c-4.2-7.1-11.1-12.6-15.6-19.5c-6.5-9.9-6-20,3.2-28.1c7.9-7,17.4-8.5,25.7-1.6
	c9.5,7.9,19.6,16.1,26.3,26.2c56.1,86.3,3.2,203.8-98.2,219.4C2191.7,1967.3,2182.4,1968.1,2166.8,1970z"/>
<path d="M1361.3,2966.6c0.4,38.8-24,65.2-59.9,64.9c-34.9-0.3-60.9-27.6-61.7-64.8c-0.7-34.4,25.7-62.7,59.2-63.3
	C1334.6,2902.8,1360.9,2929.4,1361.3,2966.6z M1302.4,2939.6c-15.9,0.2-27.2,12-26.6,27.8c0.5,15.3,13.6,29.7,26.4,29.2
	c13-0.6,25.2-15.6,24.7-30.7C1326.4,2950.1,1316.4,2939.4,1302.4,2939.6z"/>
<path d="M3171.2,486.7c-34.9,0.2-58.8-23.8-58.8-59.1c-0.1-33.5,26-60.3,58.8-60.5c36.4-0.2,61.9,24.3,62.5,59.9
	C3234.2,461.4,3207.9,486.6,3171.2,486.7z M3172.6,451.4c13.3-0.5,26.9-13.6,26.4-25.5c-0.6-12.3-11.9-21.7-25.5-21.1
	c-13.6,0.6-23.5,10.2-23.8,23.1C3149.3,441.1,3159.8,451.8,3172.6,451.4z"/>
<path d="M2085.7,2593.3c0.1,34.6-25.7,61.4-58.2,60.5c-28.6-0.7-52.4-23.9-52.9-51.5c-0.7-35.4,26.4-66.9,57.1-66.4
	C2061.5,2536.3,2085.6,2561.9,2085.7,2593.3z M2049.3,2593.3c-0.2-10.7-9.5-19.3-20-18.5c-10.6,0.7-20.6,14.5-19.6,27.2
	c0.8,9.7,6.3,14.8,16.1,14.6C2038.8,2616.4,2049.5,2605.6,2049.3,2593.3z"/>
<path d="M2075.3,1384.9c10.9-0.5,22.2,10.2,22.3,21.1c0.1,12.1-10.5,24.5-22.2,25.8c-12.7,1.5-20.9-6.5-21-20.4
	C2054.4,1398.3,2064.5,1385.4,2075.3,1384.9z"/>
<path d="M1536.6,2059.3c-0.5,16.3-10.7,26.8-24.8,25.6c-12.9-1.1-17.7-9.7-18.2-21.1c-0.5-13.9,12.1-28.3,23.7-28.2
	C1528.5,2035.7,1537,2046.2,1536.6,2059.3z"/>
<path d="M2329.2,2054.4c0.8,18.7-9.8,29.5-23.3,28.7c-10.1-0.6-18.4-4.2-18.7-16.3c-0.3-13,11-27.8,21.7-25.3
	C2317.3,2043.5,2324.4,2051.2,2329.2,2054.4z"/>
<path d="M3138.2,555.7c0.3,18.7-7,24.7-18.6,26.1c-12.7,1.5-23.2-6.6-24.3-18.1c-1.1-11.6,12-28.1,21.7-24.6
	C3126.1,542.4,3133.2,551.6,3138.2,555.7z"/>
<path d="M2817.5,1169.1c3.7,4.7,12,11.1,14.4,19.3c3,10.5-9.1,20.8-22.1,20.6c-10.1-0.2-18.8-3.5-18.7-16
	C2791.2,1180.9,2801,1170,2817.5,1169.1z"/>
<path d="M2633.3,682.5c-10.6,9.9-16.3,18.5-24.1,21.6c-9.8,3.9-20.8-5.8-21.5-16c-0.8-10.3,10.1-25.9,19-23.9
	C2614.8,666.1,2621.5,674,2633.3,682.5z"/>
<path d="M1549.6,3024.6c1.3,15.2-9.7,28.9-20.2,29.1c-10.3,0.2-18.1-4.8-19.4-16.1c-1.4-11.7,8.9-24.7,19.8-22.9
	C1537.6,3015.9,1544.7,3022,1549.6,3024.6z"/>
<path d="M2125.2,1138.6c0.4,12.5-8.9,24.4-19.7,21.7c-7.3-1.9-16-9-18.8-15.9c-3.7-9.3,8.5-22.7,18.5-23.7
	C2116.5,1119.6,2124.8,1127.1,2125.2,1138.6z"/>
<path d="M1253,2679.3c-0.3,13.7-10.9,23.9-22.5,22.2c-10.8-1.6-16.1-8.6-16.3-19.5c-0.3-13.6,8-22.9,20.5-22.2
	C1247.6,2660.6,1252.3,2669.1,1253,2679.3z"/>
<path d="M3085.8,1563.6c32.8-0.5,60.4,28,60.8,62.9c0.4,35.2-24,62.2-56.5,62.5c-34.6,0.3-58.7-23.4-59.7-58.8
	C3029.3,1592.3,3052.8,1564.1,3085.8,1563.6z M3110.4,1628.8c0.8-14.5-8.5-25.9-20.9-25.8c-13.6,0.2-24.1,11.7-24.8,27
	c-0.6,13.1,7.6,21.6,20.8,21.6C3098.8,1651.6,3109.7,1641.6,3110.4,1628.8z"/>
<path d="M2106.9,3175.3c-29.6-0.5-48.3-21-48.4-53.1c0-34.3,26.4-63.2,56.5-61.9c29.6,1.3,56.4,28.4,55.8,56.6
	C2170.2,3150.5,2142.4,3175.9,2106.9,3175.3z M2140,3120.6c-11.5-9.1-17.2-16.7-24.5-18.8c-10.8-3-17.5,4.6-18.2,15.4
	c-0.6,9.6,1.1,21,13.4,19.6C2119,3135.8,2126.6,3128.3,2140,3120.6z"/>
<path d="M3553.4,893.9c-0.8,14-14.2,27.9-25.5,25.8c-14.1-2.6-17.5-13.4-17.3-25.6c0.2-13,9.4-21.6,21.6-21.5
	C3545.5,872.7,3554.1,881.3,3553.4,893.9z"/>
<path d="M1667.8,3564.9c-14.5,0.4-22.7-6.4-22.9-19.1c-0.2-12.2,10.9-24.1,23.3-24.9c11.5-0.8,21.4,8.6,22.3,21.1
	C1691.5,3556.3,1683.5,3564.5,1667.8,3564.9z"/>
<path d="M2598.6,2345.9c-3-5.3-10.3-12.9-11.2-21.2c-1.3-12,12.3-23.7,24-23.6c11.3,0.1,17.1,6.5,17.1,17.5
	C2628.5,2332.4,2615.4,2346.9,2598.6,2345.9z"/>
<path d="M1555.8,3444.5c-1.7,10.4-14.3,19.1-25.4,17.5c-11.6-1.7-19.7-13.2-17-25c2.7-11.9,10.7-17.1,22.6-15.6
	C1548.3,3423.1,1557.5,3434.1,1555.8,3444.5z"/>
<path d="M3467.4,706.3c17.5,1,28.4,11.4,27.8,21.9c-0.7,12.8-9.4,18-20.7,18.4c-11.5,0.4-24.2-11.3-21.3-21.5
	C3455.5,717.1,3463.8,710.8,3467.4,706.3z"/>
<path d="M2272.2,2885.1c-1.1,16.3-13.9,26.6-26.7,26.3c-12.1-0.3-16.1-7.3-15.3-18.3c1-13.6,13-25.3,24.4-21.5
	C2262.1,2874,2267.9,2881.6,2272.2,2885.1z"/>
<path d="M2024.4,3243.5c-0.5,12.6-9.4,20.1-22.9,19.6c-11.4-0.4-17-6.7-17.6-17.5c-0.7-11.5,9.5-21.3,21.7-21.7
	C2017.2,3223.6,2024.8,3231.5,2024.4,3243.5z"/>
<path d="M887.3,1155.5c80.2-2.6,153.6,48.3,161.7,152.1c5.5,70.7-44.5,117.5-115.2,110.2c-11.4-1.2-23.1-2-34-5.4
	c-36.8-11.6-73.7-23.1-109.7-36.9c-39.1-15-63.6-43.9-67-86.6c-3.7-45.1,18.1-78.4,54.1-102.7
	C810.3,1163.8,847.9,1155.7,887.3,1155.5z"/>
<path d="M982.4,1571.9c26.7,4.3,51.1,5.7,73.8,12.5c62.3,18.5,80.2,82.5,37.6,131.2c-24.3,27.8-52.6,50.7-87.5,64.5
	c-44.1,17.4-86.3,8.6-117.9-24.4c-32.2-33.7-43.2-89.1-25.5-128.1c12.5-27.5,33.3-45.7,63.1-50.9
	C945.4,1573.3,965.3,1573.3,982.4,1571.9z"/>
<path d="M1369,1602.2c-60.8-0.7-120.8-49.2-133.6-108.1c-8-36.8,11.2-82.3,43.6-103.7c30.5-20.1,69.5-18.5,102.6,5.5
	c37.1,27,59.1,64.6,68.7,108.6C1462.9,1562.5,1428.4,1602.8,1369,1602.2z"/>
<path d="M529.1,1428.6c35,0.8,62.2,28.1,61.8,62c-0.4,34.8-25.7,59.2-60.1,58.2c-36.3-1.1-59.2-24.3-58.6-59.3
	C472.8,1452,495.4,1427.8,529.1,1428.6z M528.7,1466.4c-12,0.6-22.8,13.7-21,26.2c1.7,11.9,9.5,18.3,21.1,18.9
	c12.9,0.7,23.6-11.3,22.6-24.3C550.6,1475.5,540.1,1465.8,528.7,1466.4z"/>
<path d="M1206,1860.9c-32.8,0.6-53.7-18.8-54.3-50.7c-0.7-30.9,24.2-57,54-56.8c28.8,0.2,55,25,55.8,52.7
	C1262.3,1836.4,1238.1,1860.3,1206,1860.9z M1231.3,1811.2c-13-8.8-19.6-16.5-27.4-17.7c-9.1-1.5-14.7,6.4-14.4,16.3
	c0.4,10.3,6.8,15.9,16.3,14.2C1212.7,1822.8,1218.8,1817.7,1231.3,1811.2z"/>
<path d="M1501.5,1279.5c8.4,12.5,16.7,19.7,17.9,28c1.5,10.5-5.7,19.5-18.3,19.8c-11.8,0.3-23.8-11.6-20-21.6
	C1484.2,1297.4,1492.2,1291,1501.5,1279.5z"/>
<path d="M696.2,1579c0.1,17.3-5.1,25.8-17.6,26.4c-10.5,0.5-17.7-5.3-18.5-16.6c-0.9-12.4,9.1-25.7,19.3-22.9
	C686.7,1567.9,692.3,1575.8,696.2,1579z"/>
<path d="M1212,1237.1c3.8,5,11.8,11.6,14.1,19.7c3.2,11.3-5.6,19.2-17.9,18.9c-11.7-0.2-20-5-20.1-18
	C1188,1245.4,1194.5,1238.7,1212,1237.1z"/>
<path d="M563.1,1292.2c-10.9,9.4-16.3,17.1-23.5,19.5c-10.2,3.4-22.2-8.5-22.1-19.8c0.2-11.1,7-18.4,17.3-16.3
	C543.2,1277.3,550.4,1284.4,563.1,1292.2z"/>
<path d="M3227.1,2033.2c67.8,0.1,124.8,51.5,131.1,115.3c7.4,74.3-65.6,124.4-138.6,94.8c-37.6-15.3-63.7-43.4-81.2-79.2
	c-29.5-60.4,3.5-120.7,70.3-129.7C3215.9,2033.4,3223.3,2033.4,3227.1,2033.2z"/>
<path d="M3382.4,2605.6c-38.3,0.1-65.6-11.7-85.9-33.1c-19-20-36.1-43.3-48.2-68c-21.8-44.5-1.5-88.1,45.5-105.4
	c71.1-26.1,178.5,27.4,170.7,129.9C3460.9,2576.3,3425.6,2606,3382.4,2605.6z"/>
<path d="M3437.4,2289.4c0.1-11.1,7.3-16.9,19.2-17.6c11.7-0.6,23.9,8.5,24.2,18.9c0.4,13.1-8.5,17.6-19.8,18.5
	C3447.2,2310.4,3438,2303,3437.4,2289.4z"/>
<path d="M2993.4,2560.8c-8-11-15.4-17.1-16.9-24.4c-2.2-10.7,8.5-20,18.8-19.4c10.8,0.7,20.5,10.9,17,20.9
	C3009.8,2545.2,3002.2,2550.6,2993.4,2560.8z"/>
<path d="M1045.4,2212.3c-0.5,13.4-9.5,22.7-21,21.6c-11.7-1.1-19.4-10.8-19-24c0.4-11.5,4.7-20.7,17.3-22
	C1034.5,2186.7,1045.8,2199.5,1045.4,2212.3z"/>
<path d="M451.7,1840.5c-17.5,0.2-26.8-8.9-27.2-21.2c-0.4-11.9,7.4-20.4,18.3-19.9c10.7,0.5,21.8,11.7,19.7,23.1
	C461.1,1829.9,454.4,1836.2,451.7,1840.5z"/>
<path d="M501.4,2016.3c-7.3-12.9-13.7-19.7-14.6-27.1c-1.4-11.8,9.9-22.3,19.1-18.2c7.1,3.2,16.5,12.8,16,18.9
	C521.3,1997.4,511.5,2004.1,501.4,2016.3z"/>
<path d="M2958.9,2812.9c-1.2,36.7-24.4,60.3-58.4,59.6c-34.7-0.8-58.9-28-57.3-64.4c1.4-31.4,25.8-54.6,56.9-54.2
	C2935.1,2754.3,2960,2779.2,2958.9,2812.9z M2902.4,2794.3c-12.3-0.3-22,9.1-21.6,20.7c0.4,11.3,11.1,21.4,22.5,20.5
	c11.5-1,19.1-7.4,20.1-19.3C2924.4,2804.9,2914.1,2794.6,2902.4,2794.3z"/>
<path d="M3018.7,2969.2c-0.6-13.3,7.5-23.9,19.1-23.2c11,0.6,20.4,4.7,21.6,17.8c1.2,12.5-7.3,22.4-19.9,22.7
	C3028,2986.7,3019.3,2982.7,3018.7,2969.2z"/>
<path d="M3426.1,2929.8c-11.3-0.8-18.8-10.8-18-24.2c0.8-13.8,11.7-23.9,23.9-22.1c10.7,1.6,20.4,13.6,19.5,24.2
	C3450.6,2919.2,3437.6,2930.6,3426.1,2929.8z"/>
<path d="M3562.3,2755.1c10.1,0.2,14,8.2,14.8,18.3c1.2,14.2-10.6,27.9-23.3,27.3c-12.1-0.6-19.2-7-19.3-19.5
	C3534.4,2768.3,3547.8,2755.2,3562.3,2755.1z"/>
<path d="M1913.7,2332c17.6,13.7,19.3,32.2,19.4,50.3c0,5.1-7.9,10.3-12.1,15.5c-5-4.1-13.1-7.5-14.3-12.6
	C1902.5,2367.7,1899.3,2349.4,1913.7,2332z"/>
<path d="M1970,2351.4c-22.9-19-23-31.3-0.6-53.5C1991.4,2315.3,1991.6,2329.9,1970,2351.4z"/>
<path d="M2609.3,1447.3c14.2-5.3,24.3,0,30.3,13c7.2,15.7,8.4,31.2-4.6,46.2c-24.7-14.4-21.1-38.7-24.8-59.9
	C2610.1,1446.6,2609.3,1447.3,2609.3,1447.3z"/>
<path d="M2583.6,1552.1c-16.5-15.9-22.6-31.9-12-53.6c19.1,3.8,18.9,22,25.3,34.2C2599.9,1538.4,2598.5,1539.1,2583.6,1552.1z"/>
</svg>
