<?xml version="1.0" encoding="utf-8"?>
<!-- Generator: Adobe Illustrator 24.3.0, SVG Export Plug-In . SVG Version: 6.00 Build 0)  -->
<svg version="1.1" id="Layer_1" xmlns="http://www.w3.org/2000/svg" xmlns:xlink="http://www.w3.org/1999/xlink" x="0px" y="0px"
	 viewBox="0 0 4000 4000" style="enable-background:new 0 0 4000 4000;" xml:space="preserve">
<path d="M3184.4,945.1c15.2,6.8,28.4,13.1,42,18.7c101.3,41.3,197,93,286.4,156c81.2,57.1,152.7,123.4,202.4,211.1
	c34.5,60.9,54.4,125.5,52.6,195.6c-7.7,295-42.2,586.1-132.8,868.4c-83.4,259.7-209.7,495.5-396,696.7
	c-103.8,112.2-221.8,206.9-355.6,281.3c-16.3,9.1-25.6,19.4-28,39c-10.1,83.8-54.6,143.3-128.8,183.4
	c-99.8,54-206.9,85.9-317.1,108.6c-222.8,45.9-447.3,53.1-672.9,26.6c-140.5-16.5-278.5-44.9-409.8-99.1
	c-34.4-14.2-67.7-32-99.6-51.2c-65.5-39.6-107.7-96.9-119.9-173.5c-3.9-24.5-15.6-38.9-36.7-51.4
	c-207.5-123-377.4-285.8-511.4-486.3c-139.5-208.8-229.4-438.4-285.5-682.1c-34.6-150.3-55-302.7-63.5-456.6
	c-3.4-61.9-6.1-123.8-8-185.8c-3.2-104,32.8-194.7,96-275.6c71.8-91.9,164.9-157.9,266-212.9c185.5-100.8,385-162.8,590.7-206.3
	c319.5-67.6,642.9-90.5,968.8-82.2c185,4.7,368.9,23,551.4,54.3c33.5,5.8,67.2,10.8,103.1,16.5c4.2-10.8,8.2-20.4,11.6-30.2
	c47.7-138.5,100.2-275,165.4-406.3c29.5-59.4,62.6-116.8,103.7-169.2c35.4-45,75.1-85.1,128.4-108.7c76.1-33.8,151.8-34.3,224.2,9.4
	c74.7,45,106.2,114.4,103.7,199.9c-1.7,58.9-22.4,113-47.4,165.2c-50,104.5-114.9,200-180,295.4c-30.7,45-63.1,88.9-94.4,133.5
	C3190,932.1,3187.9,938,3184.4,945.1z M306.7,1726.2c-2.2,0.6-4.4,1.2-6.6,1.8c1.5,19.9,3.2,39.8,4.6,59.7
	c15.4,221.9,57.7,438.3,133.7,647.6c113,310.8,292.9,573.2,561.3,770.8c119.4,88,248.7,158.5,389,206.7
	c142,48.8,288.6,76.7,438.6,87.7c190.8,14,380.2,5.4,567.5-34.6c382.6-81.6,689.2-279.7,915-600.3
	c141.7-201.1,230.9-425.2,287.1-663.4c35.6-151,55.8-304.5,74.3-458.3c0.8-6.3-2-13.1-3.8-23.8c-7.8,9.5-13,14.9-17.1,20.9
	c-30.4,44.6-68.3,81.7-109.9,115.9c-107.9,88.5-231.3,148.7-360,199.8c-190.8,75.7-389.8,119.5-591.5,151.8
	c-159.5,25.5-320.6,36.9-482.1,38.9c-116.4,1.4-233-1.2-349.3-5.5c-211.9-7.8-421.2-36.3-628-84c-177.6-40.9-350.5-95-512.7-179.5
	c-115.7-60.3-221.6-133.2-299.5-240.8C314.4,1733.4,310.3,1730,306.7,1726.2z M1651.5,2040.1c2,2.8,4.1,5.6,6.1,8.5
	c10.3,1.5,20.5,3.8,30.8,4.4c47,2.8,93.9,6.2,140.9,7.3c137.9,3.1,275.7,4.8,413.5-4.5c143-9.7,285.2-25,426.5-48.6
	c141.4-23.7,279.9-58.8,415.4-106.1c102.2-35.6,201-78.3,293.6-134.7c11.5-7,22.2-15.3,36.1-25c-9.7-9.4-15.8-16.4-23-22.2
	c-36-29.2-75.7-51.8-119.4-67.5c-48.2-17.4-96.6-34.3-144.5-52.7c-59.8-22.9-119.2-47.1-178.8-70.4c-6.5-2.5-13.7-3.1-23.8-5.3
	c-0.8,20.6-0.7,38.5-2.3,56.3c-2.8,31.9-17.3,48.6-49,53.9c-16.6,2.8-34.1,3.3-50.8,1.8c-51.5-4.7-100.8-18.8-148.1-39.2
	c-57.1-24.6-116.7-33.4-178.3-32.8c-28.8,0.3-57.9,1-86.5-2.1c-16.2-1.7-33.1-8.4-47.1-17.2c-15.1-9.4-14.5-21.4-2-34.9
	c5.8-6.3,13-11.2,19-17.2c15.9-15.8,30.5-32.5,37.1-58.5c-11.8-1.5-22-4.4-32.1-3.8c-23.4,1.2-47.4,1.5-70,6.8
	c-74.3,17.3-147.5,17.4-222-0.5c-65.4-15.8-131.7-28.5-199.5-28c-11.4,0.1-22.8,1.4-34.8,2.2c-0.8,9.5-1.9,15.8-1.7,22
	c3.9,102.6-56.3,159.3-122.9,183.1c-101.6,36.2-202.3,29.9-298.5-19.1c-58.4-29.7-97.3-76-104.1-144.3c-0.6-5.9-3.9-11.4-6.9-19.6
	c-17.6,5.4-33.2,10.2-50.3,15.5c2.6,7.2,3.1,11.7,5.5,14.7c28.7,36.8,34.3,79.8,33.4,124.4c-1.4,77.1-43.6,137.8-115.2,165.6
	c-16.9,6.6-34.2,12.7-51.8,16.8c-89.6,21.1-176.2,15.4-257.7-31c-40.4-23-71-54.5-85.9-99.6c-3.5-10.7-8.9-20.7-13.2-30.5
	c-66.4,18-194.5,97.7-223,139.3c202.3,131.1,426.9,198.8,666.7,244.5c-8.1-15-13.5-23.9-17.9-33.3c-6.3-13.5-13.8-26.8-17.6-41
	c-22.7-84.8,24.3-183.6,106.6-221.8c112.9-52.5,222.5-41.9,327,23.2c63.9,39.8,94,101,98,174.5c3,55.3-16.4,102.8-60.2,138.6
	C1664.2,2035.9,1657.4,2037.5,1651.5,2040.1z M3103.2,1051.1c13.2,5.7,24.7,11.1,36.6,15.7c87.8,34,173.1,73.3,252.4,124.5
	c74.5,48.1,140.6,104.6,183.7,184.1c20.1,37.1,33.2,76.4,34.5,119c2.3,75.7-26.6,139.7-74.8,195.9c-47.8,55.8-105.9,98.9-170,134.7
	c-148.5,83-307.7,137.6-471.7,179.9c-115,29.7-231.9,48.7-349.4,64.9c-195.2,26.9-391.2,40.3-588.2,36.6
	c-98.3-1.8-196.9-2.4-294.7-11.5c-122.2-11.3-244-28.7-365.5-47.1c-177-26.9-349.3-72.7-515.5-139.5
	c-110.6-44.5-214.5-101.1-305.1-180c-49.5-43.1-86.1-94.9-104.5-158.3c-24.6-84.8-1.3-160,47.4-230.1
	c50.8-73,121.7-122.4,196.2-167.2c124.6-75,260-123.8,399.3-162.7c133.9-37.5,270-65.9,408-82c122-14.2,244.5-25.1,367.1-33
	c164.5-10.6,329.3-7.5,493.5,6.2c110.6,9.2,220.9,23.7,331.1,36.8c33.9,4,67.4,11.4,101,17.2c3.2,0.5,6.3,1.5,9.4,1.9
	c17.6,1.9,26.1-3.8,27.4-18.3c1.4-15.4-10.1-16.7-20.7-18.5c-148.5-25.8-297.5-48.4-448.1-57.1c-242.6-14-485.1-13.2-727.1,11.6
	c-220.6,22.6-437.9,61.4-649.1,130.7c-134.4,44.1-264.3,98.1-382.6,177.1c-73.6,49.2-140,105.9-186.3,182.5
	c-52.9,87.5-66.3,179.8-24.9,275.8c23.9,55.5,59.7,103.3,104.1,144.7c59.8,55.8,126.9,101.1,198.2,140.6
	c186.2,103.3,388.3,161.4,595,203.6c230.9,47.1,464.6,71.2,700.4,74c228,2.8,455.4-5.4,680.9-40.8
	c209.4-32.9,415.3-80.4,611.2-163.8c97.5-41.5,192.6-87.8,277.7-152c59.9-45.2,116.7-93.7,156.9-158.7
	c66.8-108.2,64.3-231.7-8-334.5c-37.8-53.8-83.6-99.9-135.3-140.3c-106.4-83.1-227.5-139.1-351.5-189.6
	C3116.2,1013.2,3113.4,1015.6,3103.2,1051.1z M2726.8,1002.4c-10.5-2.8-16.5-4.8-22.7-6c-194.7-36.1-391-57.2-588.9-62.9
	c-210.8-6.1-420.8,5-630.1,30.5c-192.3,23.4-381.7,59.7-565.7,121.8c-104.5,35.3-206.2,76.7-300.6,134.2
	c-62.5,38.1-119.6,82.4-163.7,141.8c-39.5,53.2-54.4,112.9-46.2,178.3c1.4,10.8,5.2,21.3,8,32.4c6-2.7,8.2-3.2,9.7-4.5
	c3.3-2.7,6.5-5.6,9.2-8.9c50.1-62.9,113.9-108.8,182.6-149.1c135.8-79.6,283.1-130.3,434.3-169.4c198-51.2,399.8-81.6,603.7-95
	c320.7-21,640.6-13.4,958.6,38.1c28.4,4.6,29.3,4.8,41.8-21c21.3-44.2,41.5-89,61.9-133.7
	C2721.9,1021.7,2723.4,1013.4,2726.8,1002.4z M2847.8,1587.2c1.8-13.6,4.2-24.8,4.6-36.2c1.1-32,1.5-64.1,1.9-96.2
	c1.1-84.7,17.3-165.9,58.9-240.3c33.9-60.5,67.8-121.4,106.3-179.1c81.7-122.7,167.2-242.9,249.6-365.2
	c48.9-72.6,96.5-146.4,132.2-226.8c15.7-35.3,27.6-71.4,30.5-110.5c8.9-119.7-116.9-172.3-198.2-131.7
	c-40.6,20.3-77.6,45.8-103.2,84.2c-30.8,46.2-62.9,91.7-89.6,140.2c-67.1,122.1-114.5,252.8-161.7,383.4
	c-29.4,81.4-57.9,163-86.6,244.6c-47.2,134.1-122.6,247.7-235,337.2c-37.1,29.5-65.6,69.9-97.6,105.6c-4.4,4.9-6.6,11.6-11.1,19.8
	c23,0,42.2,0.8,61.3-0.2c68.7-3.5,133.1,11.4,196.3,38c34.1,14.3,71.3,21.7,107.4,31.2C2823.7,1587.9,2834.6,1586.6,2847.8,1587.2z
	 M519.2,1710.8c12.6-9.3,20.9-15.8,29.6-21.8c40.5-27.7,79.9-57.2,122-82.1c32-18.9,67.4-32,101.6-47.1c13.6-6,22.6-14,26.4-29.3
	c17.9-72,63.6-119.3,132.4-144.9c90.3-33.6,179.7-34.5,267,10.1c13.3,6.8,25.6,8,39.9,4.6c23.8-5.7,47.9-11,72.2-13.7
	c19.2-2.1,30.4-10.2,38.9-27.6c13.1-27.1,31.2-51.2,56.6-68.5c138-93.9,340-72,424.7,58.7c7.1,11,16.2,16.5,29.3,15.3
	c97.5-9.5,191.4,13.1,285.3,33.2c38.4,8.2,75.5,9.1,114,0.6c57.4-12.6,115.6-22,174.8-11.9c14.5,2.5,27-2,37.9-12.7
	c38.9-38.1,78.5-75.6,117.4-113.8c7.9-7.7,13.6-17.6,22.7-29.7c-16.4-3.9-27.5-7.6-38.8-9.2c-147.1-21.5-295.2-32.7-443.7-37.9
	c-247.2-8.6-493.4,0.3-738.6,37.1c-172.7,25.9-342.8,60-507.5,119.1c-108.1,38.8-212.2,85.1-306.9,150.8
	c-42.4,29.4-81,63-112.2,104.4c-20.7,27.5-21,34.7,1.6,61.5C481.7,1674.6,499.8,1691.1,519.2,1710.8z M1195.7,3373.9
	c2.1,16.4,2.7,26.8,4.8,37c9.2,44,38,72.9,74.4,95.9c42.7,26.9,88.3,47.4,136.2,63.2c179.1,59.1,363.9,82.7,551.6,86.8
	c125.3,2.7,249.6-8.4,373.1-29.4c102.5-17.5,203.1-41.3,297.5-85.6c32.6-15.3,63.4-35.3,92.5-56.7c33.2-24.4,41.1-61.4,44.5-105.2
	c-251.8,124-514.6,170.4-786.9,169.4C1711.1,3548.3,1448.3,3500.2,1195.7,3373.9z M2955.9,1298c-4.1,7.6-8,11.9-8.8,16.7
	c-7.6,46.3-14.8,92.8-21.9,139.2c-2.3,15,7.8,20.9,19.8,24.7c23.4,7.5,47.2,13.7,70.1,22.4c89.9,34,179.4,68.7,269.1,103.1
	c51.4,19.7,98,47.3,139.9,83c8.8,7.5,18.5,13.8,28.7,21.2c27-17.4,46.7-39.9,65.4-63c14.7-18,13.6-23.2-0.3-42.1
	c-34-46.2-76.7-83.2-123.3-115.8c-114.2-80-242-130.8-374.1-172.2C2999.4,1308.7,2977.7,1303.8,2955.9,1298z M3557,1575.7
	c11.3-45.6,11.9-86.8,3.3-127.6c-13.4-63.6-53.5-110.8-100.6-152.3c-111.7-98.4-244.4-158.3-382.2-207.5
	c-27.7,25.5-94,140.8-96.8,168.5c8.5,3,17.4,6.2,26.4,9.1c46.6,15.4,93.7,29.3,139.6,46.3c119.7,44.5,233.4,100.3,330.5,185.2
	C3503.5,1520.5,3527.3,1546.4,3557,1575.7z M1659.6,1968.7c-3.6,1.7-7.5,3-10.7,5.3c-58.8,42-124.9,45.3-193.2,36.1
	c-5.2-0.7-11.4-1.2-15.2-4.2c-5.2-4.2-8.6-10.7-12.7-16.2c5.4-4,10.4-10.6,16.3-11.4c12.6-1.8,25.6-1.1,38.4-0.6
	c52,1.9,102.3-7.2,150.9-24.8c45.5-16.4,60.6-45.7,50-92.9c-0.5-2.1-1.1-4.1-1.7-6.2c-10.6-38.3-29.8-72-62.7-94.3
	c-92.5-63-191.5-76.9-294.2-28.2c-50.9,24.2-84.9,64.6-88.7,124.1c-4.4,69.5,39.6,122.3,100,145.6c69.3,26.6,142.9,36.7,217,34.9
	C1599.1,2034.8,1635.3,2010.2,1659.6,1968.7z M1133.9,1675.2c-6.5-13.6-0.1-20.5,8.9-25.4c10.3-5.5,21.3-9.8,32-14.6
	c29.4-13.1,57.9-27.3,77.4-54.7c16.3-22.9,20.2-46.8,8.3-72.4c-12.9-27.7-31.4-50.7-58.1-66.4c-62.8-36.9-130.4-44.9-201-32.1
	c-41.5,7.5-80.2,22.3-113.1,49.6c-48.3,40.1-50.6,88.8-5.2,131.4c14.6,13.7,32.7,23.7,49.4,35c7.9,5.4,17.5,8.7,24.3,15.2
	c5,4.8,6.8,13,11.7,23c-58,8.4-88.4-33.2-130.2-57.8c9.5,49.3,38.3,77.3,75.6,98.7c35.9,20.6,75.3,30.7,116.1,33
	c72.3,4.1,140.2-10.1,198.4-56.5c17.6-14,32.2-30.2,35.4-55.7C1172.8,1678.7,1172.4,1678.9,1133.9,1675.2z M1410.1,1341.2
	c9.4,10.1,20.7,16.8,20.9,23.8c0.5,14.5-13.1,13.6-24,13c-16.6-0.8-21.3,11-25.6,23.7c-18.2,53.9-3.6,108.2,44.1,138.8
	c99.6,63.9,205.4,75,314.2,24.8c106.8-49.3,86.4-199.3,14.9-243.3c-32.5-20-66.9-33.8-103.8-40.7
	C1560.7,1264.6,1479.7,1284.5,1410.1,1341.2z"/>
<path d="M2431.6,2908.3c-68.2,1.4-119.9-52.6-121.8-118.6c-1.8-66.5,55.7-123.3,121.2-124.2c67.2-0.9,127.3,56.8,126.7,122.3
	C2557.3,2840.8,2518.9,2910.3,2431.6,2908.3z"/>
<path d="M1526.8,2906.9c-68.3-0.6-120.3-53-119.2-120.1c1.1-66.9,57-122,123.7-121.9c67.1,0.1,120.3,53.3,120.4,120.2
	C1651.7,2855.9,1598.9,2907.5,1526.8,2906.9z"/>
<path d="M3452.2,2440.5c-3.6,11.7-5.6,18.9-8,25.9c-50.1,147.9-123.7,283.4-218.3,407.2c-36.8,48.2-78.9,92.4-119.2,138
	c-7.7,8.7-16.9,16.7-27,22.2c-5,2.8-16.8,1.8-19.6-1.9c-4-5.4-4.9-15.5-2.9-22.4c1.9-6.5,8.9-11.7,14.1-16.9
	c154.4-153.1,263-334.6,335.3-538.8c2.5-7,5.1-14,8.1-20.8c4.6-10.4,13.6-15.6,23.2-10.3C3444.8,2426.3,3448.5,2435.6,3452.2,2440.5
	z"/>
<path d="M1390,2922c40.6-2.6,78.4,6.7,111.7,30.4c45.7,32.5,45.6,74.8,2.2,110.6c-42.6,35.1-179.4,46.2-239.1-5
	c-33.4-28.6-34.1-69.4-0.5-99.5c26.6-23.7,59.5-32.3,93.8-36.3C1368.6,2921,1379.3,2922,1390,2922z M1274.7,3007.5
	c10.4,24,29,38.4,53.3,41.2c33.6,3.9,67.7,5.6,101.6,4.8c22.5-0.5,43.4-10.5,60.1-26.7c14.1-13.7,14.3-24,0.2-38.1
	c-5.2-5.2-11.6-9.3-17.9-13.1c-36.5-21.6-77.1-26.4-117.4-20.2C1322.2,2960.4,1290.7,2972.8,1274.7,3007.5z"/>
<path d="M2575.2,2921.7c39-0.9,76.9,5,110.3,26.6c46.6,30.1,47.9,81.7,2.3,112.7c-16.4,11.2-35.8,19.2-55,24.9
	c-36.3,10.8-73.9,12.6-110.8,3.4c-22.5-5.6-45.8-12-65.4-23.6c-41.7-24.8-44.9-67.3-11.1-102.2c25.9-26.8,58.7-37.9,94.6-41.5
	C2551.6,2920.7,2563.5,2921.7,2575.2,2921.7z M2577.6,2953.7c-39.3,0.5-72.4,7.2-101.3,27.7c-25.4,18-25.2,32.3-1.5,52.9
	c20.6,17.9,46.2,22,71.3,24.5c43.1,4.3,85.1-1.4,121.7-27c28-19.6,26.9-38-2.8-55.6C2636.7,2959.4,2605.1,2955.7,2577.6,2953.7z"/>
<path d="M1983.7,3005c-77.1,0.3-133.8-44.6-149.4-118.7c-2-9.3-3.8-19.7-1.4-28.3c1.8-6.3,10.4-14,16.7-14.8c6.4-0.8,16.7,4.4,20,10
	c5.7,9.9,6.7,22.4,10.8,33.3c25.6,68.5,95.9,94.3,159.6,58.9c24.7-13.7,40-34.7,48.6-61.1c4-12.2,6-25.3,12.2-36.2
	c3.2-5.6,13.9-10.7,20.2-9.7c6.2,1,12.8,9.3,15.9,15.9c2.4,5,0.1,12.5-0.8,18.8C2124.4,2952.2,2063.7,3004.7,1983.7,3005z"/>
<path d="M2916.4,3170.8c-4.5-3.3-12.1-6.3-15.4-11.9c-2.3-4-1.1-13.8,2.3-16.8c22.3-19.6,45.1-38.6,69-56c3.9-2.8,16.4,1.5,21.3,6.3
	c3.4,3.3,3.5,16.4,0.1,19.4c-22.2,19.5-45.7,37.5-68.9,55.9C2923.2,3168.8,2920.9,3169.1,2916.4,3170.8z"/>
<path d="M3455.9,2295.6c2.9-8.5,7.1-23.7,13.3-38.2c5.1-11.9,17-14.1,26.7-8.5c5.5,3.2,10.3,13.8,9.5,20.4
	c-1.7,14.5-6.9,28.7-11.3,42.8c-3.8,11.9-10.1,21.7-25,18.4C3453.2,2327.2,3455.2,2314.5,3455.9,2295.6z"/>
<path d="M2059.1,1908.9c-65.5,0.5-128-12.6-183.4-48.3c-123.6-79.8-122.4-231.3,1.4-311c103.8-66.8,275-55.7,367.5,23.8
	c66.1,56.9,87.2,149.9,51.7,223.5c-18.2,37.8-48.8,61.4-85,79.2C2167.1,1897.9,2117.8,1908.2,2059.1,1908.9z M1856.6,1629.9
	c-2.5-0.7-4.9-1.4-7.4-2.1c-5.6,13.1-13.2,25.8-16.4,39.5c-14.9,63.3,9.6,120.9,67.5,156.1c66,40.1,138.4,47.3,213.4,36.9
	c33-4.6,65.2-12.4,93.4-31.2c28.7-19.1,52.7-42.1,61.3-81.1c-61.6,59.2-61.6,59.2-87.1,40.9c16.6-18.1,33.9-35.3,49.3-54
	c35.1-42.6,33.5-82.8-4.5-123c-8-8.5-16.9-16.7-26.8-22.7c-97.4-59-196.3-56.2-295.7-5.5c-10.9,5.6-19.9,14.8-29.7,22.4
	c24.1,30.4,23.9,52.3,1,75C1846.9,1672.2,1861.2,1647.4,1856.6,1629.9z"/>
<path d="M3060.6,1672.5c8.1,21.4-1,30.9-10.4,39.7c-72,67.1-154.5,101.6-254.6,82.1c-18.8-3.7-37.9-6.3-57-8.6
	c-32.7-3.9-63.6,1.6-93.2,16.7c-11.6,5.9-24.8,8.6-39.6,13.6c-2.4-30.1,12.1-44.5,31.6-55.2c27-14.7,56.7-18.8,86.9-17.3
	c22.4,1.1,44.5,5.6,66.9,6.8c36.2,1.9,72.5,4.2,108.6,2.8c35.4-1.4,64.3-21.2,92.2-41.4c12.1-8.8,23.5-18.7,36.3-26.3
	C3037.7,1679.8,3048.9,1677,3060.6,1672.5z"/>
<path d="M2510,1853.1c7.5,29.7-5.9,44.4-22.3,57c-24.6,18.9-54.1,26.6-83.9,27.9c-49.9,2.1-99.9,0.6-149.7,0.6
	c-4.1-25.3-0.2-33.6,20.3-37.7c13.4-2.7,27.5-2.7,41.3-2.6c23.5,0.1,46.9,2,70.4,1.6c32.6-0.6,63-8.7,89.8-29
	C2484.7,1864.1,2495.9,1860.3,2510,1853.1z"/>
<path d="M2450.4,1705.9c-0.8-13.9,8.4-23.5,21.5-21.6c22.1,3.3,39,15.9,50.5,34.4c2.4,3.8-0.6,15.3-4.6,17.8
	c-12.3,7.9-58.1-9.1-64.8-22.7C2451.6,1711.1,2451,1707.9,2450.4,1705.9z"/>
<path d="M3241.4,273.9c-1.9,3.4-3.3,7.6-6.1,10.4c-70.7,70.5-119.4,155.8-162,244.7c-28.1,58.7-52.7,119.1-78.9,178.7
	c-6,13.7-10.9,28.1-19,40.4c-3.5,5.4-14.1,9.3-20.9,8.6c-10.3-1.1-11.9-10.7-9.3-20c2-7.2,3.7-14.5,6.5-21.4
	c43.5-108,87.9-215.9,149.9-314.9c27.6-44.1,61.8-84.2,94.9-124.6C3213.1,255.5,3221.5,256.8,3241.4,273.9z"/>
<path d="M2954.2,810.9c-6.2,14.7-10.9,27.3-16.8,39.3c-4.8,9.7-13.2,13.5-23.7,9c-11.5-4.9-10.3-14.7-8.2-24.2
	C2911.4,808.5,2924.8,800.7,2954.2,810.9z"/>
<path d="M1471.2,1926.5c-30.7-3.5-58.5-10.4-82.9-27.5c-25-17.5-42.6-40.4-36.6-72.9c5.4-29.3,27-45.7,54.2-53.2
	c54.3-14.8,106.4-9.6,152.6,24.6c45.4,33.6,40.9,85.8-10.7,109.3C1524.2,1917.6,1496.8,1920.2,1471.2,1926.5z M1474.8,1890.8
	c21.8-7.2,44.5-12.5,65.1-22.3c15.2-7.2,15.1-18.4,4.5-31.3c-25.4-30.8-105.2-42.5-139.6-20.5c-19.8,12.7-21.8,28-4.6,44.1
	C1420.7,1880.1,1445.8,1887.2,1474.8,1890.8z"/>
<path d="M1292.6,1850.7c-25-15.3-32-51-14.3-68.2c4-3.9,12.1-7.2,17-5.9c4.4,1.2,8.7,8.6,10,14
	C1309.2,1806.9,1304.5,1827.1,1292.6,1850.7z"/>
<path d="M1055,1609.7c-17.3-3-39.4-6.1-61.3-10.9c-19.8-4.3-34.3-16.5-44.3-34.2c-14.6-26.2-10.5-52.3,11.6-72.4
	c49.4-45,154.4-42.2,200.9,5.3c20.7,21.2,23,44.7,6.9,69.3c-15.9,24.2-40.3,34.2-67.2,39C1088,1608.4,1073.9,1608.3,1055,1609.7z
	 M1058.5,1570.9c19-5.2,42.6-10.4,65.2-18.6c7.2-2.6,16.3-13.6,15.8-20c-0.6-7-11.4-13.1-17.9-19.5c-0.7-0.7-1.9-0.9-2.9-1.2
	c-36.6-11.1-73.2-11.4-109.4,1c-12.2,4.2-25.6,9.9-25.6,24.9c0,15,13.8,20.9,25.8,24.5C1023.5,1566.1,1038.3,1567.3,1058.5,1570.9z"
	/>
<path d="M1597.6,1326.8c30.6,1,59.8,6,85.1,24.4c44.4,32.4,40.3,80.8-10.2,102.8c-50.3,21.9-101.5,25.7-150.2-5.8
	c-11.5-7.4-22.4-16.8-30.8-27.5c-18.1-23-16.5-47,7.1-64.5c15.7-11.6,35.5-18.8,54.5-24.7
	C1567.1,1327.1,1582.8,1328.2,1597.6,1326.8z M1670.7,1404.4c-13.2-29.2-39.4-32.4-64.2-34.3c-29.9-2.3-60.8-2.9-83.8,22.9
	C1555.3,1435.2,1622,1440.6,1670.7,1404.4z"/>
<path d="M1799.3,1451c3.3,26.1-5.8,41-20.6,49.9c-24.4,14.6-49.4,31.4-76.4,38c-36.8,9.1-75.7,9.5-113.7,13.5
	c-3.1,0.3-6.4-0.2-9.5-0.7c-12.8-2.1-28.2-4.1-27.6-20.5c0.7-18.4,17.7-14.6,29.6-15.3c25.5-1.6,51-1.7,76.5-3.8
	c39.1-3.2,74.1-17.7,106.3-40C1774,1464.9,1785.3,1459.2,1799.3,1451z"/>
<path d="M1378.5,2974.8c-10.7,17.2-17.6,31.3-27.6,42.8c-3.9,4.5-14.7,3.1-22.3,4.3c-1-6.8-4.2-14.1-2.6-20.3
	C1330.8,2982.9,1347.8,2973.4,1378.5,2974.8z"/>
<path d="M1452.2,2981.9c-4.6,37.1-16.7,48.1-47.4,45.7C1407.9,3000.4,1420.6,2987.7,1452.2,2981.9z"/>
<path d="M2550.5,2981.5c3.1,19.1-7.5,30.2-17.5,40.5c-3.9,4-14.5,6.4-18.7,3.9c-4.6-2.8-7.9-12.2-7.4-18.4
	C2508.2,2990.5,2524.9,2980.8,2550.5,2981.5z"/>
<path d="M2582.8,3022c9.5-23.5,18-43.7,47-41.4C2625.1,3015.3,2609.2,3030.1,2582.8,3022z"/>
<path d="M2057.2,1770c-24.8-6.2-46.5-10.6-67.6-17.3c-9.8-3.1-19.1-9.5-27.3-16.1c-44.6-36-39.8-85.6,12.3-108.7
	c54.9-24.4,110.6-21.3,162.5,9.2c51.1,30.1,48.4,86.1-5.5,111.7C2108.2,1759.9,2081.2,1763.4,2057.2,1770z M2061,1730.7
	c18.1-5.3,37.4-8.3,54-16.6c22.6-11.2,22.2-30.1,1.7-44.6c-29.6-21-94.7-22.4-125.5-2.7c-21.3,13.6-21.7,26.2-0.8,41.5
	C2011,1723.6,2035.2,1726.6,2061,1730.7z"/>
</svg>
