<?xml version="1.0" encoding="utf-8"?>
<!-- Generator: Adobe Illustrator 24.3.0, SVG Export Plug-In . SVG Version: 6.00 Build 0)  -->
<svg version="1.1" id="Layer_1" xmlns="http://www.w3.org/2000/svg" xmlns:xlink="http://www.w3.org/1999/xlink" x="0px" y="0px"
	 viewBox="0 0 4000 4000" style="enable-background:new 0 0 4000 4000;" xml:space="preserve">
<path d="M2024.7,3657c-207.4-2.1-383.7-17.9-555.6-67.9c-53.4-15.5-104.5-35.9-152.3-65.5c-41.7-25.8-61.6-62.3-65.1-109.5
	c-1.3-17.2-3-34.6-1.4-51.7c2.3-24.6-12.1-33.7-30.8-44.2c-72.9-41.1-148-79.5-216.6-127c-313.2-217-532.2-506.2-649.9-869.4
	c-51.2-158-72.6-321.7-77.8-487.7c-1.6-51.3,17.4-90.4,55.8-122.7c41.3-34.7,88.7-59,139.6-73.8c93.3-27.1,187.6-50.9,281.7-75
	c46.4-11.9,93.4-21.5,140.2-32c15.7-3.5,20.6-16.2,25.1-29.2c20.9-60.8,63.8-98.4,124.5-116c17.6-5.1,25.7-15.2,32.3-31.5
	c8.7-21.3,19.1-42.9,33.2-60.9c28.4-36.2,68.2-51.9,113.8-51.5c23.3,0.2,47.1,1.1,69.8,5.7c18.3,3.8,28.2-1.9,35.6-17
	c4.9-9.9,9.9-19.8,15.2-29.6c37.9-69.4,106.9-101.7,183.5-82.7c20.9,5.2,34,2.3,48.8-12.9c28.7-29.5,65.2-40.4,105.1-30.2
	c19.9,5,32.8-1.2,46.6-13.2c48.4-42.1,102.9-43.6,158.9-19.8c19.5,8.3,31.9,9.6,49-5.7c93.6-83.5,247.3-68.4,326.2,30.6
	c1.5,1.9,3.3,3.7,4.4,5.9c12.3,25,30.4,28,57.4,22.9c118.9-22.1,216.1,13.7,286.3,114.8c16.3,23.4,16.2,22.6,49.7,15.8
	c99.7-20.2,188.3,1.4,262.5,73c31.9,30.7,49.5,70.1,64.5,110.9c11.4,30.9,11.4,29.7,44.7,29.1c80.2-1.5,148.1,23.6,190.8,96.2
	c11.6,19.8,27.2,29.4,49.1,34.6c89.9,21.2,180.2,42.5,264.4,81.3c38.8,17.9,76,40.7,110.2,66.4c36.3,27.3,51.5,66.7,50,113.6
	c-11.7,373.3-122.7,711.4-352.3,1008.6c-159.5,206.5-355,368.6-589.5,483.2c-21.7,10.6-31.7,23.2-29.5,48.2
	c7.5,89.1-33.5,147-115.4,181c-81.4,33.8-165.4,56.7-251.9,71c-55.9,9.2-111.9,18.2-168.3,23.5
	C2123.7,3653.1,2059.5,3655,2024.7,3657z M3643.2,1907.7c-32.3,17.1-55.5,30.8-80,42c-77.6,35.6-159,60.2-242.2,78.1
	c-142.2,30.6-285.6,53.3-430.2,69.9c-171.5,19.7-343.3,35.7-515.8,40.9c-405.7,12.2-811,8-1215.3-35.1
	c-187.6-20-374.2-45.4-557.4-91.4c-87.4-22-173.3-48.5-250.2-97.8c-5.7-3.7-13-4.9-25.2-9.2c5.3,42.2,10.1,79.7,14.8,117.3
	c44.8,353.4,194.8,656.6,439.6,913.2c118.2,123.9,254,225.9,404.2,308.4c122.5,67.3,250.3,121.9,386.8,153.8
	c182.5,42.7,367.3,58,554.3,42.6c91-7.5,181.4-18.6,270.2-40.7c209.5-52.3,401.9-141.9,575.1-270.2
	c377.9-279.8,599.2-653,660.9-1119.8C3637,1978.2,3639.3,1946.5,3643.2,1907.7z M2025.1,2093c97-2,210.4-3.8,323.7-6.8
	c45.6-1.2,91.1-4,136.5-7.6c110.5-8.6,221.2-16.4,331.4-27.8c104.1-10.8,208.1-23.7,311.5-39.7c72.9-11.2,144.9-28.4,217.1-44.2
	c33.9-7.4,37-13.3,35.1-44.9c-4-64.7-29.9-116.7-88.4-148.4c-56.4-30.6-92-73.3-88.6-141c0.1-2.4-0.5-4.9-0.9-7.3
	c-14.2-84.9-82.5-138.6-168.5-132.3c-13.5,1-27,2.3-40.6,2.9c-31.5,1.3-34.5-0.8-45.1-31.2c-5.7-16.3-10.5-32.9-16.9-48.8
	c-45.4-112.5-156.6-167.6-273.7-135.9c-56.3,15.2-55.6,14.7-89.7-33.8c-56.2-79.8-131.9-115.7-230-97.7c-12.1,2.2-23.8,6.1-35.6,9.7
	c-32.1,9.9-35.3,9.3-56.5-17.1c-9.3-11.5-17.3-24-26.3-35.7c-35.7-45.8-82.5-69.1-140.8-68c-53.3,1-97.6,21.6-133.4,61.5
	c-20.5,22.8-23.5,22.4-50.2,8.2c-10.9-5.8-21.6-11.9-32.9-16.8c-44.2-19.2-82.8-12.5-112.5,25c-19.6,24.8-37.7,28.5-66.4,16.8
	c-40.8-16.7-60.5-9-86.6,24.7c-28.3,36.5-28.3,36.5-69.7,19.9c-53.6-21.4-104.2-5.8-134.9,42.5c-7.9,12.4-13.8,26.1-19.5,39.7
	c-23.1,54.7-29.2,57.4-85.9,43c-21.3-5.4-43.8-12.3-65-10.4c-56,5.2-90.6,42.3-97.5,86.4c-4.7,30.2-16.4,52.8-51.5,57.9
	c-58.6,8.6-93.3,44.2-109.4,101.1c-13.1,46-16.3,47.7-65.1,47.3c-35.7-0.4-63.8,12.3-89,37.2c-31.7,31.3-48,67.8-48.1,112.1
	c0,13.5-0.4,27.1-1.4,40.6c-1.6,22.2-12.3,36.6-35.5,40.7c-15.7,2.8-31.2,7.3-46.9,10.2c-41.6,7.8-66.9,33.6-82.5,71.7
	c-20,49.1-16.2,60.1,36.4,70.7c109.8,22,219.5,46,330.4,60.9c129.3,17.4,259.6,27.3,389.7,38.1
	C1570.1,2084.5,1789.3,2091.7,2025.1,2093z M2668.5,3366.1c-454.6,182.3-908.9,176.6-1365.6-4c0,15.6-0.3,29,0,42.3
	c0.9,39.1,16.2,68.6,54.4,84.1c20.5,8.3,39.7,19.8,60.2,27.9c91,36.2,186,55.5,283,67.8c225.5,28.6,450,24.6,673.5-17.3
	c81.2-15.2,161.1-36.2,234.8-75.3C2667.3,3460.7,2680,3433,2668.5,3366.1z M531,1940.7c16.4-103.8,69.9-164.6,167-172.1
	c11.9-51.9,22.6-98.7,33.9-148.4c-99.7,21.9-198,44.2-289.9,87c-30.8,14.4-60.2,33.7-86.9,54.9c-35.3,28.1-35.2,56.1-1.8,86.7
	C402.5,1893.7,463.2,1916.6,531,1940.7z M3440,1939.7c61.6-18.7,119.7-40.4,170.8-77.9c6.8-5,12.9-11.5,18.3-18
	c17.6-21.3,19.7-37.7,3.1-60c-12.3-16.5-27-32.4-43.7-44c-23-16-47.7-31.6-74-40.6c-73.1-25.1-147.3-46.9-221.2-69.4
	c-9.9-3-20.8-2.6-32.5-3.8c-6.7,39.6,1.7,66.5,36.9,85.7c84.7,46.3,134.7,116.4,138.3,215.6C3436,1929.5,3437.3,1931.8,3440,1939.7z
	"/>
<path d="M1551,369.9c4.8-16.1,8-29.2,12.6-41.8c23.9-66.1,62.7-117.2,136.2-132.3c82.9-17.1,156.7,24,189.8,104.3
	c24.3,58.9,27.4,120.2,18.6,181.8c-14.2,99.5-45.3,194.2-91.3,283.7c-21.5,41.8-22.6,40.6-68.7,37.5
	c-95.5-6.4-187.9-25.7-275.9-63.4c-54.9-23.5-104.8-54.9-143.3-101.7c-26.4-32.1-44.4-68.3-47.5-110.3
	c-8.7-117.5,102.7-205.6,220.1-174.3C1516.7,357.6,1531.6,363.5,1551,369.9z M1598.9,450.6c-19.8-9.5-31.6-15.3-43.4-20.8
	c-18.9-8.8-37.4-19-57.1-25.6c-35.2-11.9-70.7-10-104.2,6.7c-63.4,31.6-81.7,106.8-41.5,171.1c39.3,62.8,100.9,95.7,167.1,121.7
	c71.8,28.2,147.8,36.5,223.5,46.3c19.1,2.5,30.4-4.5,37.7-21.6c9.2-21.5,19.5-42.5,28.7-64c37.4-87.3,58.2-178.2,49.3-273.4
	c-2.8-29.9-10.5-61.5-24.3-87.9c-41.8-79.7-135.2-86.9-192.4-17.3c-25.2,30.7-35.6,66.8-37.6,106
	C1603.7,408.7,1601.4,425.4,1598.9,450.6z"/>
<path d="M2669.2,509.4c17.5-3.4,33-8.2,48.7-9.1c24.3-1.3,49.9-4.3,73.1,1.1c121.6,28.2,146,149.1,94.7,234.8
	c-31.5,52.6-79,87.2-132.6,113.8c-90.9,45.2-189.1,60.4-289,68c-19.6,1.5-32.9-5.7-41.8-23.1c-54-105.1-93-214.3-91.1-334.7
	c0.7-41.2,10.4-80.5,27.4-117.7c27-59.3,74-92,139.1-92.4c64.4-0.4,113.5,29.4,143.1,87.3C2651.8,459.1,2658.9,482.8,2669.2,509.4z
	 M2613.8,597.6c-2.2-22.4-3.1-35.4-4.7-48.3c-3.3-25.5-3.8-51.9-11.2-76.1c-13-42.6-52.6-71.7-93.2-72.1
	c-46.8-0.4-80.7,22.5-98.8,64.5c-10.5,24.5-18.2,51.5-20.2,78c-8.1,106.3,21.6,204.5,68.8,298.5c8.3,16.5,19,21.8,38.1,20.6
	c69.5-4.3,136.3-20.3,201.1-44.5c42.9-16,84.2-36.7,115.8-70.5c18-19.3,35-42.4,43.9-66.9c23.9-65.9-20.3-128.4-90.5-133.1
	c-33-2.2-63.1,7.1-92,22.4C2654.9,578.6,2638.4,585.8,2613.8,597.6z"/>
<path d="M2452.3,2814.5c-78.9,3.4-130.9-78.8-130.8-129.6c0.2-72,60.3-133.8,130.4-133.2c71.8,0.7,130.2,60.2,130.4,132.9
	C2582.5,2761,2528.3,2815.1,2452.3,2814.5z"/>
<path d="M1522,2813.4c-71.7-1.1-129.8-61.5-128.6-133.6c1.2-72,59.3-128.3,130.5-126.3c71.7,2,128.2,63,126,136.2
	C1647.8,2762.1,1593.5,2814.5,1522,2813.4z"/>
<path d="M1324.7,2990.3c-38.8,2.7-74.9-7.3-107.5-29.3c-49.8-33.5-56-91.7-11.1-131c17.7-15.5,41.4-26.3,64.2-33.6
	c54-17.4,106.9-9.3,157,16.1c30.3,15.4,51.5,38.9,51.3,74.9c-0.2,37.9-19.7,64.7-53.4,81.7
	C1393.7,2984.8,1360.5,2991.8,1324.7,2990.3z M1326.3,2836.4c-23.2,6.6-50.6,10.4-73.9,22.1c-33.2,16.7-32.6,47.8,0.9,63.9
	c49.3,23.7,100,20.2,149.2-2.3c13.7-6.3,27.4-18.4,22.6-34c-3.8-12.3-15.6-26.1-27.4-31.1C1376.8,2845.9,1353.3,2843,1326.3,2836.4z
	"/>
<path d="M2654.5,2990.5c-36.8,2.8-72.2-5.1-104.3-26.1c-51.4-33.6-55.7-93.2-9.8-133.2c59.5-51.8,172.9-52,232.8-0.5
	c45.4,39,38.5,104.1-14.8,136.3C2726.9,2986.1,2692,2991.9,2654.5,2990.5z M2654.1,2944.8c22.5-5.5,46.2-8.1,67.1-17.3
	c33.8-14.9,35-48.2,4.6-69c-35.8-24.5-121.6-19.8-154.5,8.5c-20.9,18-20.7,34.8,1.8,51.3C2596.9,2935.8,2624.4,2941.3,2654.1,2944.8
	z"/>
<path d="M2190.1,2819.3c-7.9,22.9-12.4,47.8-24.4,68.3c-25.7,44.4-71.1,62.9-120.8,45.1c-36.1-12.9-67.5-10.3-103.1-0.4
	c-85.3,23.6-156.9-37-150.5-124.9c0.7-10.2,4.6-22.6,11.5-29.4c12.7-12.4,42.1-8.5,43.3,17.9c0.4,8.6-0.8,17.2-0.5,25.8
	c1.8,49.1,43,80.7,86,58.9c40.1-20.4,72.4-22.1,112.9-1.4c40.1,20.4,79.5-6.2,86.5-51c1.5-9.7,1.2-19.6,1.5-29.5
	c0.5-15.4,6.2-27.2,23.4-26.8c14.7,0.4,26,7.6,28.4,23.7c1.1,7.3,1,14.7,1.5,22.1C2187.4,2818.2,2188.8,2818.8,2190.1,2819.3z"/>
<path d="M545.5,2315.2c4.5-5.4,9.4-15.9,17.5-20c12.1-6.1,24.4-1.7,30.9,11.6c3.2,6.6,5.6,13.6,7.5,20.7
	c34.4,126.1,91.8,241.3,164.5,349.3c6.9,10.2,15.6,19.8,19.9,31c3,7.8,3.2,22.3-1.5,25.9c-7.1,5.5-20.9,8-29.4,4.9
	c-9.4-3.4-17.2-13.6-23.5-22.4c-80.1-112.3-139.4-234.9-179.3-366.8C549.1,2340,548.2,2330.1,545.5,2315.2z"/>
<path d="M919.8,2867.9c-5.3,6.9-9.6,17.5-17.1,20.8c-8.8,3.9-23.9,5.8-30,0.9c-18.7-15.3-35.3-33.4-50.9-52
	c-11.1-13.3-5.8-27.5,4.3-40c9.1-11.4,19.9-15.4,31.1-4.3c19,19,37.1,38.9,55.2,58.8C915.4,2855.4,916.5,2860.6,919.8,2867.9z"/>
<path d="M2108.9,1579.1c-24-7.2-52.4-12-77.2-24.1c-54.2-26.4-70.2-69.3-49.8-126.2c34.8-96.9,109.1-145.3,206.3-162.8
	c22.5-4.1,46.9-3.8,69.5-0.2c75.7,12.2,115.6,77,92.3,150.4c-22.8,71.7-71.6,120.1-142.7,143.4
	C2177.3,1569.5,2144.9,1572.3,2108.9,1579.1z M2058.7,1508.7c87.1,51.8,259.1-46.7,239.2-130.7
	C2219.3,1421,2141.7,1463.4,2058.7,1508.7z M2030.8,1458.6c31.7-5.7,57.3-22.2,83.6-36.6c25.8-14.2,52.3-27.5,76.7-43.8
	c24.3-16.2,54.5-25.6,71.7-53.5C2174.9,1288.9,2043.6,1364.5,2030.8,1458.6z"/>
<path d="M1183.6,1678.6c65.1,0.8,115.9,12.5,161.6,42.9c26.4,17.6,46,40.8,59.7,69c21.8,45,11.3,91.6-28.5,122
	c-79.7,61-166.3,59.8-255.6,25.7c-35.3-13.5-64.2-36.3-86-67.5c-40.3-57.6-27.1-122.4,32.9-158.9
	C1106.6,1688.2,1149.1,1677.2,1183.6,1678.6z M1357.5,1810.7c-59-91.1-221.3-110-271.8-36.9
	C1173.1,1796.6,1261.9,1801,1357.5,1810.7z M1076.1,1828.8c14.2,39.8,72.9,75.6,130.8,80.9c58.1,5.3,118.2-15.1,138.9-49.3
	C1255.3,1849.8,1166.1,1839.4,1076.1,1828.8z"/>
<path d="M1487.7,1501.3c-1.3-40.6,10.5-82.8,32.7-122.3c4.2-7.5,8.7-15.1,14.2-21.6c62.6-73.2,115.8-67.9,172.2-12.3
	c22.4,22.1,38,48.4,47.1,78.4c17,55.6,19.4,111.7,1.4,167.4c-6,18.6-13.1,37.8-24.2,53.6c-52.6,75.3-129.8,93-198.8,10.8
	C1496.8,1612.9,1486.9,1560.7,1487.7,1501.3z M1654.7,1651.1c54.5-41.6,64.8-95.4,60.8-150.7c-3.4-46.8-9.3-96.6-56.9-128.3
	C1648.9,1401.9,1646.4,1590.4,1654.7,1651.1z M1600.5,1370.8c-69.8,40.2-85.1,190.7-19.6,261.2c3.3,3.5,10.2,3.7,19.6,6.8
	C1600.5,1548.2,1600.5,1461.4,1600.5,1370.8z"/>
<path d="M2125.7,2035.5c-99-0.5-192.3-66.6-221.9-159.5c-6.9-21.7-8.7-46-7.8-68.9c1.5-34.8,21.1-61.3,53.3-73.3
	c23.7-8.8,50.1-14.6,75.3-14.7c99.6-0.2,201.3,77.4,230.5,172.6c16,52.2,4.7,98.5-34.3,121.5c-19.5,11.5-43.4,15.9-65.8,21.8
	C2145.9,2037.5,2135.5,2035.5,2125.7,2035.5z M2180.1,1977c-73-49.5-144.5-98.1-216.2-146.3c-4.3-2.9-10.9-2.2-16.8-3.2
	C1943.7,1922.1,2081.3,2010.7,2180.1,1977z M1985,1786.2c2.9,5,3.6,7.9,5.4,9c64.6,40.2,129.3,80.3,194.2,120
	c7.4,4.5,16.7,6.1,26.9,9.6C2196.5,1823.9,2069.9,1747.8,1985,1786.2z"/>
<path d="M2787.7,1620.4c-1.6,41.7-8.2,82-27.3,118.6c-24.2,46.5-59.6,77.8-116.7,75.5c-35-1.4-61-18.6-81.7-44.3
	c-44-54.8-61.3-117.7-50-187c6.9-42.8,20-84.1,48.8-118.2c10.3-12.2,21.2-24.2,33.7-34c39.5-31.1,75-30.2,113.9,1.4
	c34.8,28.3,56.9,64.8,66.8,108.1C2781.3,1566.5,2783.7,1593.6,2787.7,1620.4z M2665.4,1756.2c3.8,1,7.6,2.1,11.4,3.1
	c57.8-42.9,59.1-106.1,54.9-170.4c-3.7-55.7-22.1-90.8-51.9-100.3C2675,1578.2,2670.2,1667.2,2665.4,1756.2z M2623.7,1476
	c-77.1,61.1-83.3,221.3-13,266.1C2620.4,1718,2630,1530.5,2623.7,1476z"/>
<path d="M1670.1,1951.2c-10.6-5.3-20.5-9.6-29.9-14.9c-46.9-26.4-69-21.9-99.5,21.9c-8.2,11.8-15.9,24.3-32,16.8
	c-14.2-6.7-14.9-21.2-13.5-35.4c3.1-32.6,35.2-65.2,73.8-73.5c23.3-5,46.9-5.2,68.4,6.8c21.3,11.8,41.2,17.6,66.3,8.2
	c20.9-7.8,38.5,6.9,37.6,27.2c-0.3,6.5-3.7,16.5-8.5,18.7C1713,1936.1,1692,1943,1670.1,1951.2z"/>
<path d="M3107.4,1865.5c-1.1,4.9-1.3,18.4-7.3,28.1c-4.8,7.7-16.7,14.3-25.8,14.8c-4.9,0.3-13.5-12.5-15.4-20.6
	c-4.5-19-5-38.9-8.8-58.1c-4.1-20.4-16.2-35.6-35.6-44.4c-26.1-11.8-45.1-38.2-78.9-35.3c-11.3,1-19.6-10-17.7-23.4
	c1.9-13.6,12.1-17.1,24-18.3C3024.2,1700.7,3106.5,1775,3107.4,1865.5z"/>
<path d="M2741.9,1916.2c-27-4.7-50.4,4.2-68,32.3c-14.2,22.8-28.2,25.1-41.8,14c-14.7-12.1-15.8-31.1-0.6-48.8
	c27.9-32.6,59.4-60.4,106.4-54.9c13.9,1.6,27.9,8.5,40.2,15.7c11.3,6.6,17.7,19.8,10.9,31.6c-3.7,6.3-16,8.4-24.8,10.7
	C2758.4,1918.3,2751.9,1916.6,2741.9,1916.2z"/>
<path d="M1296.3,1497c4.1-44.1,17.4-76.6,47.8-98.8c9.8-7.1,25.1-10.7,37.2-9.4c8.6,0.9,19.3,11.4,22.7,20.1
	c2.1,5.5-6.5,16.4-12.1,23.3c-4.4,5.5-11.9,8.5-17.7,13c-24.4,18.8-28.2,31.3-18.4,60c1.2,3.5,2.6,6.9,3.9,10.3
	c4.4,11.7,9,23.6-4,33c-11.2,8.1-29.8,5.9-39.1-8.1C1306.8,1525.5,1301.3,1507.9,1296.3,1497z"/>
<path d="M873.9,1809.1c5-47.7,26.8-76.4,59.2-96.5c8.7-5.4,24.1-4.7,34.6-1.2c19.3,6.3,22,21.9,8.3,36.8c-6.6,7.2-14.5,13.1-22,19.4
	c-18.9,15.7-26.9,34.4-16.4,58.3c5.3,12.1,8.5,24.9-7,30.7c-14,5.3-30.7,6.7-39.9-8.1C882.1,1834.6,877.6,1818.1,873.9,1809.1z"/>
<path d="M2046.2,1186.5c3.5,1.6,13.4,3.9,20.7,9.7c15,11.8,11.9,30.7-5.3,38.5c-4.4,2-9.5,2.7-14.3,3.2c-25.5,2.7-43.3,15.1-53.6,39
	c-6.2,14.3-15.2,26.5-33.9,18.9c-14-5.7-18.9-22.5-13.1-41.5C1956.9,1220.4,2004.2,1186,2046.2,1186.5z"/>
</svg>
