<?xml version="1.0" encoding="utf-8"?>
<!-- Generator: Adobe Illustrator 24.3.0, SVG Export Plug-In . SVG Version: 6.00 Build 0)  -->
<svg version="1.1" id="Layer_1" xmlns="http://www.w3.org/2000/svg" xmlns:xlink="http://www.w3.org/1999/xlink" x="0px" y="0px"
	 viewBox="0 0 4000 4000" style="enable-background:new 0 0 4000 4000;" xml:space="preserve">
<path d="M3739.6,2006.2c-0.2,275.9-66.7,535.6-205.7,773.7c-225.4,385.8-542.1,667.7-962.5,828.7c-156.7,60-317.9,99.6-484.9,113.9
	c-165.9,14.3-330.7,2.6-493.9-30.2c-426.7-85.6-769.5-306.3-1032.9-649.8c-129.4-168.8-215.4-360.7-272.4-565.5
	c-59.1-212.7-71.5-429.4-49.7-647.8c22.9-228.2,80.6-447.2,187.9-651.5C569.2,904.4,763.1,675.6,1023.1,506
	c220.6-143.9,461.1-234.8,723.5-263.2c139.7-15.1,279.1-8.3,418.2,14.6c308,50.6,587.6,172.3,844.7,344.5
	c211.2,141.6,376.6,328.5,505.9,548c104.4,177.2,175.5,365.8,207.2,569c7.1,45.6,13.8,91.6,16.4,137.6
	C3741.8,1906.3,3739.6,1956.3,3739.6,2006.2z M3567.1,2014c0-31.6,0.1-63.3,0-94.9c0-8.5-0.4-17-1.1-25.5
	c-20.3-244.1-80.8-476.3-198-693c-191-353.2-470.8-602.9-851.4-736.2c-138.5-48.5-280.4-79.9-427.6-85.2
	c-165.5-6-327.7,14-486.8,59.5C1322.7,518.5,1077.5,658.5,873,865c-177,178.8-299.5,393-371,633.3
	c-118.5,398.3-91.9,789.7,80.7,1168c114.9,251.9,294.9,450.5,524.6,603.9c127.5,85.2,267,143.7,414.4,185.6
	c209.3,59.5,421.5,84.5,638.7,65.3c182-16,357.1-57,524-132.9c259.1-117.8,470.4-293.8,629.7-528.2
	C3487.1,2605.8,3573.9,2323.1,3567.1,2014z M2941,612.8c-1.7,2.1-3.5,4.1-5.2,6.2c5.5,4.7,10.7,9.8,16.5,14.2
	c145.6,110.8,268.9,242.4,371.6,393.8c119.4,176.1,203.2,367.6,252.8,574.6c50.5,210.9,62.8,423.7,31.2,637.9
	c-60.3,408.9-256.5,742.1-578.2,998.8c-272.1,217-587.5,323.3-934,340.4c-175.2,8.6-347.4-12.5-517.5-52.6
	c-231-54.4-440.7-154.5-624.6-304.4c-282.1-229.9-458.5-525.9-534.9-881.1c-52.2-242.4-52.7-485.1,0.7-727.8
	c68.7-312.4,210.6-585.3,441-808.1c248.9-240.8,547-388.9,886.8-454.5c109.4-21.1,219.7-27.5,330.5-25.1
	c56.9,1.2,113.8,9.9,170.4,17.1c42.6,5.5,84.9,14,127.3,21.2c-14-8.5-28.6-14.5-43.8-18.4c-103.8-26.9-209.5-43.8-316.3-52.3
	c-238.6-19-468.1,21.5-688.9,111.5c-213.7,87.1-400.6,214.5-559.8,381.7c-171,179.5-300.7,385.4-383.6,619.1
	c-83.3,234.7-111,477.8-97.4,725.9c9.1,166.5,42.9,327.8,102.5,483.6c91.5,239.2,228.1,447.5,417.8,620.9
	c194.7,177.9,416.9,307.2,671,377.8c238.6,66.3,481.4,82.4,726.8,42.7c251-40.6,482.3-132.1,695.1-270.9
	c156.2-101.8,291.6-226.7,410.7-369.9c210-252.5,341.2-538.4,376.1-867.1c26.6-250.4-3.7-493.1-93.2-727.9
	c-109.2-286.5-288.1-522.7-525.7-715C3026.2,672.4,2982.9,643.4,2941,612.8z"/>
<path d="M3540.1,257c26.2,1.5,49.3,1,71.7,4.5c98.6,15.2,146.4,119.4,90.3,201.7c-17.9,26.2-44.5,48.5-71.4,66
	c-69.4,45.1-149.2,55.9-229.9,60.4c-21.8,1.2-43.7-0.1-65.6-0.5c-22.9-0.4-39.9-10.2-47.7-32.4c-35.2-99.8-56.6-201.2-32-307.2
	c3.8-16.4,10-32.6,17-48c27.8-60.7,76-89.8,139.1-85c53.5,4.1,102,46.1,119.3,103.6C3534.3,231.7,3536.8,243.6,3540.1,257z
	 M3402,534.8c0.2,1.2,0.4,2.3,0.6,3.5c39.3-6.9,79.1-11.8,117.7-21.3c45.1-11,87.5-29.6,121.9-62.2c30.2-28.7,39.1-72.2,22-102.8
	c-19-34-59.2-50.4-100.5-39.8c-15.2,3.9-29.9,10-44.8,15.1c-32.7,11-38.7,6.5-39.1-27.7c-0.2-21.8,1.1-44.1-3.1-65.2
	c-13.2-66.2-80.2-87.5-130.4-42.9c-26.9,23.9-39.2,55-43.9,89.5c-9.2,67.1-2,133.1,15.2,198.3c16.1,61.2,16.1,61.2,77.2,56.2
	C3397.2,535.2,3399.6,535,3402,534.8z"/>
<path d="M2257.1,2320.5c-25.6,15.4-47.6,28.2-69.2,41.7c-26.1,16.4-46.8,35.9-57,67.8c-15,47-51.4,64.1-98.2,47.1
	c-24.7-8.9-46.7-10-70.6-0.7c-26.3,10.2-52.1,8.5-81.7-3.2c7,12.9,12.9,26.5,21.2,38.4c10.7,15.3,8.4,26.8-6.2,37.1
	c-5,3.5-9.8,7.1-14.9,10.4c-93.1,59.8-186.2,119.7-279.5,179.4c-47.7,30.5-49.8,29.5-83.4-17.5c-66.5-93-133.8-185.4-200.1-278.5
	c-35.4-49.8-34.7-51.3,14.8-84.6c39.3-26.5,79.2-52.2,118.5-78.8c19.1-13,39.9-24.9,55.2-41.7c33.6-37.1,77-58.4,119.2-82.4
	c14.1-8,26-7,36.5,3.1c12.1,11.7,23.9,24.4,33.3,38.3c36,53.5,70.8,107.7,106.3,161.5c8.5,12.9,17.8,25.2,28.3,39.9
	c5.5-13.2,7.5-22.9,12.9-30.2c11.6-15.7,35.5-14.4,46,2.2c5.8,9.2,9.1,19.8,13.7,29.8c14.1,30.6,21.3,33.6,54,22.7
	c4.6-1.5,9.1-3.4,13.5-5.5c21.4-10.3,41.7-9.9,62.2,3.6c12.9,8.6,26.9,16.7,46,8.8c-3.2-7.2-5-14.2-8.9-19.6
	c-72-99.5-144.4-198.7-216.3-298.3c-38.9-54-36.8-59.4,19.3-95c89.3-56.7,177.9-114.5,266.9-171.8c5.1-3.3,10.2-6.6,15.4-9.7
	c27.7-16.4,34.5-15.6,54.3,10.8c25.6,34,50.1,68.8,75.1,103.3c49.2,67.9,98.5,135.7,147.3,203.9c5.4,7.5,12.9,20.1,10.1,25.6
	c-10.6,20.6,0.7,33.9,9.9,49.8c27.8,48.1,14.5,103.6-31,135.1c-48.5,33.5-108.6,25.9-144-18.1
	C2269.9,2337.7,2264.3,2330,2257.1,2320.5z M2098.8,2363.9c15-9.8,24.1-15.7,33.1-21.6c29.4-19.4,58-40.4,88.6-57.7
	c19.5-10.9,31.8-23.4,37.1-45.7c9.1-38.1,36-59.4,73.5-67.6c11.4-2.5,23-3.8,38.4-6.3c-8.9-13.9-15.5-25.2-23-35.9
	c-49.3-70.9-98.8-141.7-148.1-212.6c-22.6-32.6-23.5-32.9-57.2-12.4c-2.1,1.3-4.2,2.5-6.2,3.8c-72.6,46.8-145.2,93.6-217.6,140.6
	c-9.7,6.3-18.4,14.3-29.7,23.2C1958.9,2170.2,2027.7,2265.4,2098.8,2363.9z M1565.6,2698.8c94.8-60.6,188.2-120.3,284.2-181.8
	c-46-65.1-85.8-129.1-134.5-188c-5.3,5.7-7.4,7.2-8.5,9.2c-1.7,3.2-2.5,6.9-4.2,10.1c-21,39.8-54.7,57.8-98.9,54.1
	c-36.5-3-62.3-24.9-83.3-53c-8.4-11.3-16.1-23.1-25.8-37.1c-33.5,21-64.2,40.2-94.9,59.5c52.9-14.5,101.8-14.9,146.3,21.1
	c19.6,15.9,37.2,33.8,32.2,61.1c-5.2,28.3-23.8,48.7-51.1,56.8c-20.6,6.1-42.9,6.6-64.5,9.6c-8.7,1.2-17.4,2.6-29.6,4.4
	C1477.8,2583.7,1519.6,2638.5,1565.6,2698.8z M1398.2,2441.5c24.8,33.8,92.7,43.2,122.2,19.1c9.3-7.6,11.2-17.5,3.6-25.2
	c-8.1-8.1-19.5-18.1-29.5-18c-26.2,0.2-52.5,4.4-78.5,9.1C1409.4,2427.7,1404,2436.4,1398.2,2441.5z"/>
<path d="M2575.2,2354.3c4.6,2.7,14.2,5.8,20.3,12.3c15.7,16.9,31.1,34.3,44.3,53.1c60.6,86.6,119.8,174.3,180.9,260.5
	c17.2,24.2,26.9,32.8-9.5,58.3c-50.8,35.5-102.9,69.3-154.7,103.4c-45.7,30.1-91.7,59.7-137.7,89.3c-8.1,5.2-17.2,9.1-25.6,13.8
	c-14.2,7.8-25.8,3.9-35.4-7.8c-6.2-7.5-12-15.3-17.7-23.1c-66.9-92.6-133.8-185.3-200.7-278c-2.8-3.9-5.6-8-8.1-12.1
	c-16.3-26.5-15.6-37.7,9.8-55.1c40.1-27.4,80.8-54.2,123-78.1c20.6-11.7,35.1-21.2,34.8-48.5c-0.2-13.6,10.7-29.8,21.1-40.3
	c11.6-11.6,27.3-21.9,43-26C2498.1,2366.9,2534.4,2361.9,2575.2,2354.3z M2281.5,2605.5c69.6,95.7,137.1,188.4,206.3,283.6
	c94.5-61.7,188.2-122.9,281.6-183.9c-15.2-32.6-133-196.3-150.9-209.2c-60.3,44-124.9,42.4-189.3,9.4
	C2378.6,2539.7,2329.8,2572.7,2281.5,2605.5z M2508.2,2478.8c17.9-1.7,31.5-1.5,44.2-4.6c12.6-3.1,27.3-7.9,26.8-24.7
	c-0.4-15.5-8.5-29.1-24-33c-32.2-8.1-62.6-0.1-88.9,18.9c-14.9,10.7-12.6,26.6,4.4,34.3C2483.6,2475.5,2498.4,2476.6,2508.2,2478.8z
	"/>
<path d="M2306.3,948.2c6.8,3.6,14.2,5.7,18.8,10.4c9.2,9.5,17.5,20.2,25.2,31c68.2,96,136.1,192.2,204.1,288.3
	c18.1,25.6,17.4,34.8-6.2,55.3c-9.1,7.9-19.2,14.9-29.4,21.5c-79.3,51.8-158.7,103.5-238.2,154.9c-13.2,8.6-26.8,16.7-41,23.7
	c-30.9,15.3-33.9,14.8-53.7-13c-52.6-74.3-104.7-149-157-223.6c-18.1-25.8-36.6-51.5-54.5-77.5c-27.6-40.1-26.4-47.2,15.5-74.4
	c41.7-27.1,84.1-53.3,126.2-79.9c52.4-33.1,104.7-66.2,157.2-99C2283.7,959.5,2294.7,954.4,2306.3,948.2z M2503.7,1299.1
	c-62.1-90.6-120.4-175.7-178.8-260.7c-20.1-29.3-21.5-29.5-51.6-12.1c-3.2,1.8-6.3,3.7-9.3,5.7c-72.6,46.5-145.3,93-217.7,139.7
	c-9.6,6.2-18.1,14.2-26.7,21.1c69.1,98.2,135.8,193.1,203.6,289.4C2317.7,1420.5,2408.9,1361,2503.7,1299.1z"/>
<path d="M3350.3,2382.2c-5.7,10.9-9.2,21.5-15.9,29.4c-6.9,8.1-16.5,14.3-25.5,20.3c-80.3,52.8-160.6,105.5-241,158.1
	c-12.2,8-24.5,15.9-37.4,22.7c-28.7,15.3-34.8,14.2-54.7-12.3c-32.9-43.8-64.8-88.3-97.4-132.2c-38.4-51.8-77.1-103.4-115.6-155
	c-3.6-4.9-7.7-9.4-11.2-14.4c-21.3-30.9-20.3-42.5,10.5-62.8c100.7-66.1,201.8-131.5,303.2-196.5c28.4-18.2,37.1-16.5,57.5,11.7
	c68.3,94.7,136,189.8,203.3,285.2C3335.6,2350.1,3341.8,2366.1,3350.3,2382.2z M2802.1,2274.6c70.3,97.7,138.1,192,207.3,288.3
	c93.6-60.4,186-120.1,282.4-182.3c-8.7-13.2-17.4-27.1-26.7-40.5c-49.7-71.9-98.8-144.1-149.4-215.3c-27-38-28.2-37.2-66.2-12.7
	c-72.4,46.7-144.9,93.3-217.2,140.1C2823.2,2258,2815,2265,2802.1,2274.6z"/>
<path d="M2699.8,1491.8c9.1,7.9,19.4,14.3,26.3,23.3c24.4,31.8,47.7,64.4,71.3,96.8c47.9,65.8,95.6,131.7,143.4,197.5
	c3.6,4.9,7.3,9.7,10.5,14.9c17.2,27.9,15.5,39.2-11.2,57.7c-29.9,20.8-60.7,40.3-91.1,60.4c-65,42.7-130,85.3-194.9,128
	c-3,2-6.1,4-9.2,5.8c-34.1,19.9-47.4,17.9-70.3-13.9c-37.6-52.2-74-105.3-111.2-157.9c-33.7-47.6-68.5-94.4-101.4-142.5
	c-23.7-34.5-23.1-40.4,12.4-64.1c75.8-50.6,152.7-99.3,229.2-148.8c22.4-14.5,44.9-29,67.6-43
	C2679.2,1501.2,2688.1,1497.6,2699.8,1491.8z M2616.2,2031.6c94.4-61.4,187.5-121.9,284.4-184.9c-64.8-103-138.9-195.4-207.6-296.3
	c-34.9,23.5-65.9,44.5-97.1,65.2c-31.4,20.8-63.2,41.1-94.6,61.9c-30.7,20.3-65,35.9-91.7,62.4
	C2479.2,1838.3,2546.5,1933.3,2616.2,2031.6z"/>
<path d="M1677.7,1872.3c-7.6-5.3-15.5-8.9-20.7-14.8c-10.4-11.9-19.8-24.7-28.8-37.7c-62.9-91.1-125.6-182.3-188.4-273.4
	c-2.8-4-5.8-7.9-8.3-12c-16.9-27.4-16.9-33.4,9.4-50.3c103.3-66.5,207.1-132.3,311-197.7c19.9-12.5,27.6-11.5,43.4,8.8
	c26.1,33.5,50.3,68.6,75,103.3c46.4,65.5,92.6,131.1,138.8,196.8c4.9,7,9.6,14.1,13.6,21.6c12,22.6,10.7,30.4-9.6,46.8
	c-12.2,9.9-25.6,18.7-38.9,27.1c-85.4,53.9-170.8,107.6-256.5,161C1705.4,1859.3,1691.9,1865,1677.7,1872.3z M1686.7,1811.4
	c94.3-60.5,186.8-119.8,282.1-180.9c-61.9-102.2-136.5-192.4-201.5-287.8c-43.4,17.3-262.5,161.1-280,182.6
	C1553,1619.5,1618.7,1713.8,1686.7,1811.4z"/>
<path d="M1421.7,723.8c10,9.6,21.8,17.9,29.5,29.1c24.8,36,48.3,72.9,72,109.6c43.4,67.3,87,134.5,129.7,202.4
	c23.6,37.5,21.6,44.9-16.8,69.3c-80,50.7-160.4,100.8-240.7,151.1c-15.4,9.7-30.8,19.5-46.5,28.7c-34,20-40.2,18.8-62.6-12.4
	c-9.2-12.8-17.7-26.2-26.2-39.4c-57.3-88.8-114.9-177.4-171.7-266.5c-30.5-47.9-29.2-50.6,17.3-83.4
	c89.4-63.1,181.8-121.4,278.8-172C1395.1,734.8,1406.3,730.5,1421.7,723.8z M1126.9,960.8c67.3,105.3,131.2,205.1,197.4,308.8
	c95.9-60.2,188.9-118.6,282.9-177.6c-3.7-8.1-5.5-13.9-8.6-18.8c-56.6-89.3-113.8-178.2-169.7-267.9c-11.4-18.2-23.6-18.4-39.4-9.2
	c-51.5,29.9-103.5,58.8-154.1,90.2C1199.5,908.4,1165.6,934,1126.9,960.8z"/>
<path d="M1501.1,1966.3c-3.9,7.1-5.9,13.1-9.7,17.4c-4.8,5.4-10.7,9.9-16.8,13.8c-97.3,62.3-194.5,124.8-292.3,186.3
	c-35.2,22.1-41.1,20.6-65.2-13.4c-70.4-99.2-140.2-198.8-210.2-298.3c-1.4-2-2.8-4-4.1-6c-19.7-31.8-18.8-38.8,12.3-58.7
	c73.8-47.1,148.1-93.6,222.2-140.1c24.7-15.5,49.8-30.5,74.7-45.8c30.9-19,35.7-19.2,56.9,9.6c39.7,53.9,78.3,108.5,116.9,163.1
	c31.7,44.6,63.1,89.5,94.1,134.6C1487.9,1940.7,1494.1,1953.8,1501.1,1966.3z M1437.6,1961.3c-5.9-10.6-9.4-18.2-14.1-25
	c-56.4-80.7-112.9-161.3-169.5-241.8c-20.1-28.6-22.3-29.1-51.9-10c-69.4,44.9-138.6,90-207.8,135.2c-14,9.1-27.1,19.6-41.5,30.1
	c67.8,97.1,133.6,191.4,201.5,288.6C1249.2,2079.1,1341.5,2021.4,1437.6,1961.3z"/>
<path d="M1937.8,3289.4c-14.6-16.4-27.6-28.9-38.1-43.2c-68.3-93.2-136.2-186.6-203.9-280.2c-20.4-28.3-20-36.5,8.9-56.6
	c65.9-45.7,132.9-89.9,199.8-134.2c32.4-21.5,65.3-42.4,98.5-62.5c26.1-15.8,33.4-14.8,51.9,9.6c28.7,37.8,55.8,76.6,83.4,115.2
	c43.1,60.3,86.7,120.3,128.7,181.4c23.5,34.1,22.6,40.3-12.3,64.3c-65.2,44.7-131.5,87.7-197.7,130.9
	C2019.4,3238.6,1981.1,3262.1,1937.8,3289.4z M1745,2943.8c66,92.5,127.4,178.4,188.4,264.6c11.8,16.6,22.6,12.3,36.7,3
	c77.1-50.8,154.6-100.8,231.9-151.4c6.8-4.4,12.5-10.4,18.5-15.5c-47.4-81.3-178.5-257.8-207-277.1
	C1925.7,2825.1,1836.8,2883.5,1745,2943.8z"/>
<path d="M1970.7,573.7c24.3,0,48.7,0.3,73-0.1c15.8-0.3,27.6,4.1,36.6,18.4c32.4,51.4,66.3,101.9,98.5,153.5
	c21.6,34.7,20.2,41.4-15.2,64.1c-80.9,51.8-162.7,102.3-244.1,153.4c-13.4,8.4-26.8,16.9-40.4,24.9c-32.4,19.1-38.6,18.6-60.1-11.4
	c-24.1-33.6-46.9-68.1-69.7-102.6c-36.9-55.8-73.6-111.7-109.9-167.9c-39.2-60.7-35.7-68.7,32.5-87.4
	C1769.7,591.7,1869.2,576.8,1970.7,573.7z M2131.9,769c-28-45.9-54.4-89.2-80.8-132.6c-8.1-13.3-20.2-15.9-34.6-14.5
	c-24.2,2.4-48.6,3.1-72.6,6.1c-72.2,9.2-144.4,18.7-216.4,29.5c-15.6,2.3-30.3,10.6-46.1,16.3c59.7,91.3,116.5,178.2,175.2,267.8
	C1950.7,882.7,2040.6,826.2,2131.9,769z"/>
<path d="M826.6,2679.7c12.9-10.5,23.2-20.6,35.1-28.3c70.4-45.4,141.1-90.4,212-135c23-14.5,30.5-13,48.3,11.1
	c37.5,50.8,73.9,102.4,111.1,153.5c35,48.1,70.3,96.1,105.6,143.9c23,31.1,22.6,40.7-9.4,61.4c-58,37.7-116.7,74.5-175.7,110.8
	c-27.1,16.7-34.6,15.6-58.1-5.3c-92-81.9-173.5-173.4-246.9-272.2C840.2,2708.3,834.8,2694.7,826.6,2679.7z M890.6,2694.8
	c10.6,12.6,18,21.9,26,30.8c62.9,69,125.7,138.2,189.1,206.8c18.8,20.3,22.4,20,46.4,4.7c17.4-11.1,34.4-22.9,52-33.6
	c27.7-16.9,55.8-33.2,84.8-50.3c-3.8-7.3-6-12.9-9.4-17.6c-58.4-82-116.8-164.1-175.6-245.8c-12.2-16.9-17.6-17.9-39.9-4.1
	C1007.1,2620.5,951.1,2656.5,890.6,2694.8z"/>
<path d="M911,1091.4c15.9,19.8,29.2,33.8,39.7,49.8c59.2,90.6,117.7,181.6,176.3,272.7c16.2,25.1,15.3,33.1-9.9,51.1
	c-25.7,18.3-53.1,34.3-79.8,51.3c-70.8,45.1-141.5,90.3-212.4,135.4c-6.1,3.9-12.3,7.9-18.9,11c-13.6,6.5-25.3,6-34.6-8.3
	c-26.4-40.9-53.4-81.3-79.8-122.2c-12.3-19-4.3-37.4,3-55.7c41.2-103,89.1-202.6,148.1-296.7c11.6-18.5,23.5-37,36.5-54.6
	C886.8,1114.8,896.9,1106.1,911,1091.4z M1076.9,1428.2c-56.4-87-110.2-170-163.2-251.7c-5.5,1.2-7.2,1.1-7.7,1.8
	c-66.2,96.8-117.3,201.6-162,309.6c-3.7,9-3.8,23,0.7,31.2c16.3,29.4,35.4,57.3,53.6,86.1C892.2,1545.5,982.3,1488.2,1076.9,1428.2z
	"/>
<path d="M3331.8,1623.1c-2.5,5.4-4.1,12.9-8.6,18c-6.3,7.2-14,13.7-22.1,18.9c-46.1,29.5-92,59.2-138.8,87.6
	c-31.7,19.2-38.9,17.2-59.9-12c-70.3-97.7-140.7-195.4-210.3-293.6c-32.2-45.4-31.8-49.5,14-79.8c68.9-45.7,138.7-90.1,208.6-134.1
	c27.6-17.4,37.6-16.1,53.1,12.1c28,51.1,55.4,102.8,78.2,156.3c29.1,68.1,53.4,138.3,79.7,207.6
	C3327.9,1609.6,3329.4,1615.5,3331.8,1623.1z M2928,1409.7c76.7,98.3,140.5,196.9,215.1,290.7c45.9-30.5,87.9-58.3,128.4-85.2
	c0-5.5,0.6-8.1-0.1-10.2c-33.6-102.9-73.1-203.4-121.8-300.1c-4.5-9-12.4-16.3-20.9-27.4C3060.9,1322.2,2996.5,1364.6,2928,1409.7z"
	/>
<path d="M2652.4,746.8c6.8,3.4,13.6,5.9,19.6,9.8c107.7,71,211.9,146.6,302.8,238.9c43.4,44.1,43,48.6-9.1,83.1
	c-65.8,43.6-131.9,86.9-198.1,130.1c-33,21.5-39.1,20.6-61.8-11.7c-67.7-96.5-135.3-193-202.1-290.2c-32.6-47.5-31.5-50.6,16.9-81.4
	c36.9-23.5,74.4-46,111.8-68.7C2638.5,753,2645.2,750.3,2652.4,746.8z M2542.8,872.8c66.8,96.3,132.2,190.6,197,284
	c37-12.6,176.1-103.6,192.5-124.8c-0.9-2.2-1.3-4.9-2.9-6.6c-77.3-83.7-170.8-147.2-264.7-209.9c-7-4.7-22-4.1-29.8,0.2
	C2604.4,832.8,2575.3,852.4,2542.8,872.8z"/>
<path d="M711.4,2488.9c-11.8-30-21.7-51.8-29.1-74.5c-32.1-98.7-51.4-199.9-58.6-303.4c-1.9-26.7-3.6-53.4-6.6-79.9
	c-2.9-25.6,5.6-45.1,27-59.3c15-9.9,29.7-20.2,48.1-32.7c14.4,16.2,28.5,29.4,39.4,44.8c51.2,72.5,101.4,145.6,152.1,218.4
	c21.5,30.9,44.2,61,65.1,92.3c17.9,26.8,17.2,32.6-9.1,50.2c-41.4,27.7-83.9,53.6-126.1,80.2
	C781.9,2444.9,750.1,2464.7,711.4,2488.9z M898.8,2311.3c-69.3-104.5-139.4-203.8-216.8-300c-6.4,12.3-9.9,23.4-9.6,34.5
	c3.9,124.1,20,246.1,62.9,367.2C789.7,2379.2,840.9,2347.3,898.8,2311.3z"/>
<path d="M2666.8,3192.4c-7.7-5.6-15.8-9.4-20.7-15.6c-17.9-23-34.7-46.9-51.9-70.5c-8.6-11.9-7.2-23,4.1-32
	c11.4-9,23.3-17.6,35.5-25.6c83.3-54.8,166.7-109.4,250.1-164.1c5.1-3.3,10-6.9,15.3-10c22.4-13.1,26.9-13.1,44.3,4.5
	c12.8,13,25,26.7,36.2,41c22.1,28.1,22.1,34.7-5.4,56.7c-51.3,41-102.9,81.7-155.8,120.6c-38.2,28.1-78.4,53.3-118.2,79.1
	C2690.2,3183,2678.6,3186.8,2666.8,3192.4z M2919.3,2936.1c-51,14.1-90.8,48.1-133.9,75.4c-44.6,28.3-91.2,53.9-133.7,88
	c5.2,8.4,7.8,13.8,11.5,18.3c3.7,4.4,8.5,7.8,12.1,11.1C2738.5,3100.5,2906.9,2970.5,2919.3,2936.1z"/>
<path d="M1492.4,3042c13.3,15.5,24.1,26.9,33.6,39.2c30.4,39.4,60.3,79.2,90.3,119c5.1,6.8,10.3,13.8,13.4,21.6
	c6.5,16.3-1.8,29.4-19.5,30.5c-8.3,0.5-17.3-0.7-25-3.6c-65-23.7-130.6-45.9-194.2-72.8c-48.2-20.4-49.3-37-7-66.6
	C1417.4,3085.8,1453.5,3065.9,1492.4,3042z M1436,3140.1c33.5,14.7,60.6,26.6,87.8,38.5c-13.2-27.7-20-57.5-49.7-70.9
	C1462.4,3117.6,1451.7,3126.7,1436,3140.1z"/>
<path d="M3384.2,2080.3c-23.4,9.2-36.7,1.1-46.5-12.4c-25.6-35.4-51.2-70.7-75-107.4c-15.4-23.8-13.5-32.9,8.8-49.1
	c23.5-17,48.1-33,73.8-46.4c21.7-11.3,34.9-5.4,37.5,16.3C3390.8,1947.5,3391.5,2013.9,3384.2,2080.3z M3344,1965.8
	c-5.9-12.8-9.2-20-12.5-27.2c-3.8,2-9.8,3.2-11,6.1C3316,1956.8,3323.8,1961.3,3344,1965.8z"/>
<path d="M2216.8,3335.8c-8.3-19.9-4.7-34.3,9.9-44.6c45.6-32,91.6-63.2,137.5-94.7c12.9-8.8,26.1-8.3,35.8,3.6
	c16,19.6,30.9,40.2,45.2,61.1c7.4,10.8,4.1,21-8,27c-8.6,4.3-17.4,9.2-26.6,11.3c-57.8,12.9-115.8,25.1-173.8,37.2
	C2231.1,3337.8,2224.9,3336.2,2216.8,3335.8z"/>
<path d="M3131,2732.6c1.5,2.1,2.7,2.9,2.9,4c3.3,14.2,0.9,26.5-14.8,31c-3.3,0.9-12-5-12.3-8.2
	C3105.4,2742.2,3114.4,2733.4,3131,2732.6z"/>
</svg>
