<?xml version="1.0" encoding="utf-8"?>
<!-- Generator: Adobe Illustrator 24.3.0, SVG Export Plug-In . SVG Version: 6.00 Build 0)  -->
<svg version="1.1" id="Layer_1" xmlns="http://www.w3.org/2000/svg" xmlns:xlink="http://www.w3.org/1999/xlink" x="0px" y="0px"
	 viewBox="0 0 4000 4000" style="enable-background:new 0 0 4000 4000;" xml:space="preserve">
<path d="M1579.6,1047.3c7.7-6.3,11.5-8.8,14.6-12.1c52.7-55.6,134.9-60.8,192.1-9.6c25,22.4,45.8,49.6,71,77.2
	c4.6-2.6,11.9-6,18.5-10.5c126.5-88.7,252.7-177.8,379.5-266.2C2471.6,675.3,2688.4,525,2905,374.5
	c94.4-65.6,188.8-131.1,283.3-196.6c60.2-41.7,124.4-39.7,183,5.6c52.3,40.4,74.5,113.5,53.1,175.2c-9.3,26.8-26.2,47.7-49.3,63.7
	c-59.7,41.3-119.4,82.4-179.2,123.5c-225.8,155.5-451.7,310.8-677.3,466.7c-155,107.1-309.6,214.8-464.3,322.4
	c-9.9,6.9-19.2,14.9-30.5,23.8c13.9,23.7,27.3,46,40,68.7c20.3,36.1,26.3,74.3,15.3,114.6c-11.4,41.7-32,74.6-79.8,80.4
	c-4.6,0.6-9.2,2-13.7,3.5c-1.7,0.5-3,2.2-7.1,5.4c2.5,7.5,4.9,16.2,8.2,24.6c20.4,52.2,8.2,97.9-27.9,138.5
	c-12.2,13.8-27.3,22.6-46.7,23.1c-13.2,0.3-26.3,1.8-39.4,3.6c-16.9,2.4-20.6,8-17.6,25.1c0.6,3.7,1.7,7.4,3.2,10.8
	c14.1,32.3,7.5,62.7-8.9,92c-5,9-9.7,18.9-16.9,25.9c-69.7,68.1-118.5,153.1-183.4,225.3c-60.9,67.8-73.3,150.7-57.5,238.6
	c8.7,48.2,19.5,96,27.3,144.4c7.2,44.6,0.6,87.9-16.9,130c-33.5,80.5-140,106.4-209.8,53c-38.2-29.2-51-72.3-51.8-117.6
	c-0.7-37.4,5.6-74.9,8-112.5c2-31.8,6.1-64,3.3-95.5c-6.5-72.7-76.7-91.3-128.1-60.8c-23.5,13.9-39.6,34.5-52.8,57.7
	c-8.4,14.7-15.8,30-24.5,44.6c-25.6,42.7-71.5,56.4-117,35.2c-12.8-5.9-25-13.4-38.2-18.2c-35-12.8-61.3,2.4-63.4,39.8
	c-2.1,36.5,0.7,73.4,1.9,110.1c1,31.5-1.6,62-17.2,90.4c-25.8,47-69.2,68.3-125.8,61c-46.5-6-83.4-39.9-96.4-87.8
	c-10.8-39.5-6.5-78.7,2.9-117.4c7.3-30.2,16.5-59.9,26-89.5c40.2-124.3,27.9-241.3-46.1-350.7c-18.5-27.3-36-55.3-51.9-84.2
	c-22.1-40-37.8-82.3-33.3-129.4c0.7-7.5,0.2-15.9,3.6-22.1c10-18.2,1.3-31.4-7.6-46.7c-15.5-26.7-32.3-53.6-41.7-82.7
	c-17.8-55,12-124.7,61.4-154.6c14.3-8.7,29.4-10.7,46-9.8c27.8,1.5,37.9-11.8,25.1-36.4c-28.9-55.5-15.1-104.1,20.6-149.5
	c13.9-17.7,30.3-33.4,46.4-49.2c15.2-14.9,33.9-19.5,54.8-14.9c3.7,0.8,7.4,2,11.1,2.2c24.3,1.2,42.3-21.7,30.5-42.7
	c-22.3-39.8-8.2-70.3,19.2-99.2c26.8-28.2,57.1-52,91.1-70.9c7.4-4.1,15.2-7.4,23.1-10.4c28.8-11,54.5-8.6,77.7,14.7
	c17.9,18,27,18.8,42,10.6c9.3-5.1,14.3-12.1,11.6-23c-1.1-4.6-2.7-9-3.9-13.6c-6.7-25.6,0.4-46.1,22.2-61.8
	c38.5-27.6,81.7-42.5,128.2-47.8c18.2-2.1,35.6,3.9,50,15.9c10.1,8.4,19.7,17.5,28.8,27c6.1,6.5,12.8,14.1,21.3,8.6
	c6-3.9,12-12.8,12.3-19.7c1.5-36.8,24.5-55.6,54.8-68.3c55.9-23.4,110.4-11.2,151.8,33.4C1572.6,1035.1,1575.5,1041.1,1579.6,1047.3
	z M1998.2,1323.1c10.8-6.6,18.9-11,26.4-16.3c15.4-10.9,30.2-22.6,45.7-33.3c239.1-165.9,478.1-331.9,717.5-497.4
	c114.6-79.3,229.9-157.7,344.9-236.5c70.7-48.5,141.3-97,212-145.4c17.4-11.9,33.3-24.9,40.8-45.4c17.7-48.2,0.6-106.2-40.3-137.1
	c-42.7-32.2-93.8-31.1-138.8,0.7c-120,84.7-240.4,169-361,252.9c-167.7,116.8-336,232.9-503.7,349.7
	c-139.1,96.9-277.7,194.6-416.6,291.8c-15.3,10.7-31,20.7-48.4,32.2C1917.2,1200.4,1956.4,1259.8,1998.2,1323.1z M636.6,1953.2
	c-2.5,1-5,2-7.4,3c0,9.8-2.2,20.3,0.5,29.4c5.8,19.8,11.8,40,21.7,57.9c21.4,38.7,44.9,76.2,68.1,113.9
	c42.2,68.4,66,142.1,58.5,222.7c-4.1,44.8-13.8,89.2-23.3,133.3c-7.5,34.9-20.2,68.7-27.4,103.6c-7.5,36.4-7.7,73.3,13.2,106.7
	c18.3,29.2,44.7,41.9,79.1,37.8c32.4-3.9,54.2-22.1,63.4-52.5c5.3-17.6,6.9-36.9,6.8-55.5c-0.1-26.3-3.8-52.6-4.7-78.9
	c-0.5-15.9-0.4-32.2,2.6-47.8c12.6-65.4,67.2-93,127.7-65.2c13.7,6.3,26.8,13.8,40.5,20c16.3,7.4,31.8,4.8,44.2-7.8
	c7.8-7.9,14.2-17.5,20-27.1c9.3-15.3,17.2-31.4,26.3-46.8c25.7-43.6,63.9-67.6,114.2-73.3c56-6.4,107.5,25.9,125.5,79.1
	c10.8,31.9,12.3,64.3,8.2,97.6c-5.4,44.8-11.3,89.7-13.1,134.7c-0.8,20.9,4.9,43.2,12.5,63c15.1,38.9,55.4,58.9,96.5,51.5
	c43.3-7.7,78.4-39.9,85.6-83.2c4.2-25.7,6.1-52.7,3.3-78.5c-4.7-42-12.9-83.7-21.7-125c-22.4-105-7.8-202.1,58.3-289.1
	c6.8-9,12.4-19,18.5-28.5c-36.1,25.8-70.7,51.8-112.8,65c-36.3,11.4-70.7,10.9-98.1-21.1c-7.7-9-16.7-15-29.7-10
	c-12.9,5.1-19.3,13.8-19.7,27.8c-0.6,18.4-10.1,32.2-25.3,41.8c-38.1,23.8-79.2,40.3-124.4,41.8c-32.7,1.1-63.9-5.2-84-36.2
	c-4.3-6.6-11.9-11.1-17-15.8c-31,12-29.6,12.7-43.5,39.1c-6.6,12.5-18.1,24.6-30.4,31.5c-59,32.9-150,33.4-199.7-44.1
	c-8.1-12.7-17.4-24.6-25.8-37.1c-55.9-83.8-111.6-167.8-167.5-251.6C650.1,1970.4,643.1,1961.9,636.6,1953.2z M947.4,1420.4
	c4.9,8,8.2,13.7,11.8,19c62,91,124.2,181.9,185.9,273c87.1,128.6,173.9,257.4,261,386c13.7,20.3,27.3,40.7,42.2,60
	c17.2,22.3,33.2,27.1,59.5,16.8c35.3-13.8,67.5-33.7,94.8-60.1c19.6-18.9,20.9-28.4,6-52c-62.4-98.6-125.5-196.8-188.5-294.9
	c-3.7-5.8-9.5-10.2-15.7-16.7c-9.9,11.2-17.5,20.7-25.9,29.3c-25,25.7-57.5,30.5-87.6,13.3c-14.7-8.4-24.8-20.8-26.6-37.7
	c-0.5-5.2,3.8-12.7,8.3-16c3.1-2.2,11.1-0.4,15.3,2.2c7.8,5,13.9,12.7,21.7,17.9c14.7,9.9,26.6,9.7,38.1-2.3
	c13.4-14,25.3-29.5,37.7-44.3c-36.4-53.9-71.5-106.2-106.9-158.3c-39.1-57.6-79.1-114.7-117.4-172.9c-12.4-18.8-26.5-27.8-49-24
	c-25,4.2-50.6,6-75.3,11.4C1003.1,1377.5,974.8,1395.7,947.4,1420.4z M1299.4,1371.4c132.2,197,262,390.4,395.2,588.9
	c-5.2-76,17.7-136.6,64-187.9c-26.5-40.5-52.2-78.8-76.8-117.7c-24.9-39.3-48.7-79.3-73-119c-17.8,8.5-31.9,15.7-46.4,22
	c-15,6.6-30.5,3.3-43.6-3.9c-13.7-7.5-26.8-17.4-37.3-28.9c-12.6-13.9-13.5-32.6-12.4-50.8c1.9-30,27.1-43.2,46.7-62.1
	c-26.9-41.4-50.7-83.6-84.3-123.1C1397.5,1333.1,1353.5,1357,1299.4,1371.4z M1042.8,2050.2c19.5,28.6,37.7,55.8,56.5,82.7
	c21,30.1,42.5,59.9,63.7,89.8c18.2,25.8,43.3,37.4,73.6,29.1c26.9-7.4,53.2-18.1,78.5-30c16.8-7.9,17.2-15.9,6.8-31.9
	c-24.7-37.9-49.4-75.7-74.6-113.2c-36.7-54.7-73.9-109-110.9-163.5c-13.1-19.4-14-19.7-37-14.6c-2.8,0.6-5.4,1.6-8.2,2.1
	c-31.8,5.7-56.8-4.8-73.2-30.5c-13.9-21.6-20-55.8,1.1-81.9c5.2-6.5,9.7-13.6,14.1-19.9c-47.7-81.9-156.2-238.8-176.6-253.9
	c-10.3,20-16.1,39.7-10.9,62.2c5.5,24,19,42.7,35.8,59.7c14.5,14.7,29.4,29.2,43.8,44.1c40.4,41.7,33.7,100.1-10.3,136.5
	c-7.7,6.4-15.3,12.9-22.9,19.3c32.2,44.3,63.1,86.6,95.1,130.6c9.4-8.6,18.4-16.7,27.2-24.9c21.4-19.7,46.9-28.1,75.4-24.2
	c9.4,1.3,19.8,6.4,26.7,12.9c17.4,16.6,18.3,42.8,3.7,64.8c-14.5,21.8-35.3,36.2-59,46.6C1055.3,2044.6,1049.6,2047.2,1042.8,2050.2
	z M1041.1,2263c-5.4-9.8-10.4-20.8-17-30.7c-34.4-51.7-68.9-103.4-103.9-154.7c-41.9-61.4-84.8-122.2-126.2-183.9
	c-29.4-43.8-33.4-45.5-80.1-18.7c-5.7,3.3-11.3,6.8-16.6,10.7c-32.7,24.4-34.5,35.7-11.2,69.9c43.5,63.8,87.1,127.4,130.5,191.2
	c22.8,33.5,44.4,67.7,68,100.6C923,2301.5,991.1,2308.8,1041.1,2263z M1999.5,1579.7c18.7-0.9,26-11.4,32-23.7
	c18.9-38.4,12.3-75.5-7.6-110.7c-21.8-38.5-44.5-76.5-68.6-113.5c-50.9-78-102.3-155.7-155.1-232.5c-13.1-19.1-30.1-36.6-48.6-50.5
	c-32.7-24.5-68.9-23.7-107.8-6.9c5.1,6.6,8.4,11,11.7,15.3c31.3,40,64.4,78.8,93.4,120.4c50.5,72.5,98.6,146.8,147.6,220.3
	c34.9,52.4,72,103.7,93.3,163.9C1991.9,1568,1995.9,1573.3,1999.5,1579.7z M1848.7,1701.1c26.1-35.2,36.7-70.6,40.6-108.4
	c0.5-5.1-1.9-11.2-4.6-15.9c-13.6-23.7-27.1-47.4-41.8-70.4c-37.7-58.5-76-116.7-114.2-174.9c-15.5-23.6-30.3-47.8-47.3-70.2
	c-31.8-42.1-96.2-60.9-147.4-44.5c-1.3,0.4-1.8,2.9-4.4,7.1c50.5,76.2,101.8,153.6,153.3,231.2c15.6-4.5,28-9,40.7-11.6
	c28.5-5.6,48.4,3.2,63,26.1c14.2,22.1,5.7,41.7-6.9,60.2c-7.8,11.5-17.7,21.5-28.2,34.1C1783.2,1608.8,1814.5,1653,1848.7,1701.1z
	 M1409,1259.6c-36.7-53.4-71.8-104.4-107.1-155.3c-4.2-6.1-9.8-11.4-15.1-16.7c-11.4-11.3-24.6-15.7-41-13.5
	c-31.2,4.3-60.2,14.7-87,30.8c-28,16.7-29.3,24.5-10.6,51.1c32.9,46.9,65.7,93.9,98.7,140.7c7,10,13.8,20.5,22.6,28.7
	c5.3,5,15.6,9.8,21.6,8C1335.7,1320.2,1375.7,1298.8,1409,1259.6z M867.4,1800.7c48-19.6,58.6-60.7,27.8-95.6
	c-8.7-9.9-18.9-18.5-27.6-28.3c-13.1-14.7-26.7-29.3-38.2-45.3c-28.3-39.4-35-83.9-10.2-125c19.7-32.8,10-53.2-12.3-75.3
	c-1.3-1.3-2.4-2.9-3.7-4.3c-15.4-16.7-22.6-17.7-40.4-2.5c-23.9,20.4-42.9,45-55.9,73.7c-11.8,25.9-10.5,50.4,6.7,74.6
	c21.8,30.7,41.2,63.1,62.3,94.3C805.8,1711.5,836.4,1755.5,867.4,1800.7z M924.8,1391.3c53.1-54.4,116.4-71.9,190.8-66.9
	c-5.5-10-8.1-15.7-11.6-20.8c-20.2-29.5-40.2-59-60.9-88.1c-21.2-29.6-38.5-35.1-69.3-15.4c-32.3,20.6-61.7,45.8-91.9,69.6
	c-15,11.8-16.2,27.3-6.8,42.8C890.4,1337.9,906.7,1362.8,924.8,1391.3z M741,1816c-31.5-47.6-60.8-93.4-91.8-138.2
	c-11.5-16.7-22.8-16.9-37.4-1.1c-27.5,29.9-42,65.8-31.7,106.3c10.3,40.6,38.1,72.1,57.8,104.2c17.3-14.6,31.4-28.5,47.4-39.6
	C701.4,1836.4,719.4,1828.1,741,1816z M1409.1,1053.1c31.4,44.6,61.4,87.4,92.3,131.2c39.2-4.7,78-20,124.6-5.4
	c-15.1-21.8-25.5-38.3-37.4-53.7c-20.1-25.9-39.5-52.9-62.4-76.2C1492.8,1014.9,1442.2,1018,1409.1,1053.1z M822.8,1860.2
	c81.7,121.3,163.2,242.2,245.8,364.8c12-8.1,20.8-14,30.8-20.6c-6.6-10.7-11.1-18.9-16.4-26.5c-48.4-69.4-97.1-138.6-145.4-208
	c-23.1-33.2-45.3-67-68.3-100.3C853.7,1847.2,852.1,1847,822.8,1860.2z M1386.9,2141.3c-10.3-14.7-18-25.2-25.2-36
	c-53.2-79.7-106.1-159.6-159.4-239.2c-11.5-17.1-24.5-33.3-37.2-49.6c-3.1-4-7.9-6.6-14.3-11.7c-7.1,26.9-3.8,47.6,10.4,68.8
	c60.5,90.6,119.8,182,179.7,273c2.4,3.7,6,6.7,10.6,11.7C1362.5,2153,1373.2,2147.9,1386.9,2141.3z M1133.1,1769.6
	c-69.6-110-139.6-214.8-215.2-319.1c-12.1,9.1-21.4,16.1-31.1,23.3c24.1,34.9,46.5,67.3,68.7,99.7c37.2,54.3,74.7,108.4,111.5,163
	C1082.1,1759,1104.2,1765.4,1133.1,1769.6z M1206.8,1377.5c5,8.4,8.3,15,12.5,20.9c17.3,24.6,35.4,48.6,52.3,73.5
	c47,69.2,93.6,138.6,140.1,208.1c5,7.5,9.4,14.7,19.9,9.3c9.7-5,9.7-12,5.3-21.2c-9.7-20.3-16.2-42.6-28.4-61.2
	c-47.4-72.3-96.1-143.7-145.1-214.8C1247.4,1368.9,1240,1367.9,1206.8,1377.5z M1663.4,1991.4c-64.8-97.9-127.7-192.9-192.7-291.2
	c-10.3,11.4-17.4,19.3-24.8,27.6c61.5,94.8,121.6,187.5,182.2,281c6-2.3,10.4-3.5,14.4-5.6C1649.1,1999.9,1655.3,1996,1663.4,1991.4
	z M1782.2,1807c-51.2,48-64.6,139.1-31.1,203.8c26.7-30.4,58.7-54.7,72.4-92.9c4.3-12.1,4-29-1.1-40.7
	C1812,1853.5,1796.9,1832,1782.2,1807z M1459.3,1259.6c60.5,81.4,119,160,177.9,239.1c12.8-5.6,14-14.7,8.1-25.2
	c-6.8-12.3-14.3-24.3-22-36.1c-40.9-63-81.9-126-123.1-188.8c-2.9-4.4-7.6-7.5-13.1-12.7C1478.5,1243.2,1471,1249.6,1459.3,1259.6z
	 M1867.6,1740.9c6.8,9.9,12.8,20.5,20.6,29.6c12.6,14.7,24.6,14.8,38.5,1.9c38.4-35.6,37.4-102.5-1.8-138.8
	c-7.3,18.1-13.3,37.1-22.5,54.3C1892.7,1705.9,1880,1722.3,1867.6,1740.9z M829.4,1812.6c-40.6-58.2-79.5-114-118.3-169.8
	c-24.9,15.5-25.6,17.9-11.4,39.4c25.9,39.2,52,78.3,77.9,117.4C792.1,1821.4,794.8,1822.3,829.4,1812.6z M1816.4,1728.1
	c-32-47.8-61.6-92.1-91.3-136.3c-14.4-21.4-14.5-21.3-41.4-7.4c34.9,53.7,69.6,107.2,105.5,162.5
	C1799.6,1739.7,1807,1734.6,1816.4,1728.1z M1097.3,1221.7c22.8,31.8,43.2,59.7,63,88c17.1,24.4,24,26.6,56.7,15.5
	c-28.2-40.3-56.2-80.4-85.2-121.7C1119.5,1210.1,1109.9,1215.1,1097.3,1221.7z M1368.9,1126.7c17.8,26.2,34.6,50.9,51.3,75.7
	c14.8,21.8,21.1,21.4,38.3-5c-15.2-23.4-30.2-48.2-46.9-71.8C1396,1103.7,1392.2,1104.2,1368.9,1126.7z M1654.4,2128.8
	c26.9-18.2,44.6-47.5,67.5-73.5c-10.4-6.8-18.2-10.4-24.2-16c-8.3-7.8-16.5-12.5-27.5-6.8c-12.1,6.2-11.9,17.5-12.2,29.1
	C1657.4,2083.7,1655.7,2105.7,1654.4,2128.8z M1897.6,1518.5c0.5-11.7,2.8-18.8,0.7-24.1c-5.9-14.7-12.3-29.6-21-42.7
	c-26.1-38.9-53.3-77.2-80.4-115.4c-9.9-14-21-27.2-31.6-40.7c-1.2,1-2.5,2-3.7,3C1805.7,1369.9,1849.8,1441.2,1897.6,1518.5z
	 M1017.7,2010.7c26.7,4.9,58.8-8.1,70.3-27c8.2-13.6,4.1-30.1-7.7-28.2c-15,2.5-30,9-43.2,16.9
	C1024.3,1980,1014.5,1991.8,1017.7,2010.7z M1614.4,1077.5c5.3,27.7,70,112.4,97.9,130.2C1684,1157.5,1655.4,1112.7,1614.4,1077.5z
	 M1707.4,1497.4c4.5,13.1,11.3,24.2,25.8,26.8c8.3,1.5,21.3-13.3,23.9-25c2.9-13-4.4-22.3-17.9-22.3
	C1724.6,1477,1714.8,1484.8,1707.4,1497.4z M863.8,1443.9c9.1-9.3,18.2-16.1,23.6-25.1c2.9-4.8,2.2-15.7-1.4-19.7
	c-3.8-4.2-13.8-6.1-19.8-4.4C846.1,1400.5,844.5,1415.8,863.8,1443.9z M1963.3,1587.8c-8.7-27.3-18.9-48.9-37.1-68.9
	C1918.3,1562.5,1928.5,1583.3,1963.3,1587.8z M1809,1781.5c8.5,11.2,13.7,18,19.1,25.1c17-16.1,17-16.1,8.8-38.8
	C1828.9,1771.7,1821.2,1775.5,1809,1781.5z M1692.2,1547.1c-4.2-21.5-9.3-28.4-18.1-23.5c-4.6,2.6-9.5,9.6-9.6,14.6
	C1664.5,1549.1,1674.8,1552,1692.2,1547.1z"/>
<path d="M1278.5,3423.6c0.1,69.2-11.5,125.9-41.1,177.9c-34.3,60.3-87,92.2-155.5,98.2c-32,2.8-63.8,2-94.8-9.3
	c-67.6-24.5-106.9-74.5-127.3-141.2c-21.4-70.2-18.9-140.9-3.5-212.1c15.4-71.2,41.3-138.7,67.7-206.2
	c30.8-78.8,63.2-157.3,79.1-241c5.6-29.6,9.3-59.5,14.8-89.1c2.6-13.8,5.7-28,11.8-40.4c16.9-34.1,57.4-35.6,76.2-2.6
	c7.2,12.7,11.2,27.9,14,42.5c8.8,46.2,12.2,93.9,25.4,138.7c27.1,92,59.1,182.6,89.5,273.6C1259,3284.5,1277.6,3357.2,1278.5,3423.6
	z M1075.9,2777.7c-24.2,13.8-18.9,34.1-22.6,50.5c-10.9,48.6-16.8,98.7-32.1,145.8c-27,83.2-59.5,164.6-89.9,246.7
	c-19,51.4-34.2,103.8-41.8,158c-9.1,64.6-5.4,128.1,22.7,188.1c54.6,116.3,177.2,109.9,243.7,65.3c43.5-29.1,65.7-71.9,76.1-121.2
	c13.3-62.9,8.7-126-7.8-187.5c-15.5-58.1-33.3-115.8-53.8-172.4c-40.7-112.8-78.5-225.9-86.9-346.7
	C1083.1,2796.5,1079.3,2788.9,1075.9,2777.7z"/>
<path d="M1525.2,2658.3c4.7,30.6-5.7,46.6-32,50.3c-24.2,3.4-44.5-4.4-59.7-23.9c-16.2-20.7-24.6-45.1-24.7-70.6
	c-0.1-27,4.4-54.1,7.1-81.1c0.4-3.6,1.9-7.3,3.5-10.6c5-9.9,14.4-13.7,23.5-9.6c5.1,2.3,9.4,10.9,10.1,17.1c1.1,9.1-1.6,18.6-2.2,28
	c-1.1,17.8-3.4,35.7-2.2,53.3c0.9,13.7,4.7,27.9,10.4,40.4c9.5,20.7,17.1,22.5,38,14c6-2.5,12.1-5.1,18.3-7.1
	C1517.9,2657.6,1520.9,2658.3,1525.2,2658.3z"/>
<path d="M746.6,2635.6c1.6-9,3.4-23.1,6.9-36.7c1.8-7.1,5-15.7,10.5-19.4c6-4.1,16-5.9,22.8-3.9c4.1,1.2,7.7,11.9,7.3,18.2
	c-0.6,11.1-5.4,22-6.7,33.1c-3.4,29.2-3,56.7,30.5,71.1c12.1,5.2,10.8,19-0.6,26.4c-12.3,7.9-30.2,4.6-43.6-8.7
	C752.9,2695.1,747.3,2668.7,746.6,2635.6z"/>
<path d="M926.6,3420.5c3-71,21.9-138,43.7-204.3c1.4-4.4,3.8-8.6,6.2-12.6c6.7-10.9,16.8-11.5,27.2-7c9.9,4.2,14.1,12.2,10.8,23
	c-2.6,8.1-5.6,16-8.7,23.9c-23.9,61.3-36.1,124.8-34.6,190.6c1,42.5,11.5,82.3,43.1,113.3c19.5,19.1,40.6,34.1,70.5,20.9
	c11.6-5.1,22.6-3,27.9,10.5c4.5,11.3-1.4,23.4-15.7,29.1c-29.4,11.8-57.8,5.3-84.1-9.3c-40.4-22.5-61.8-60.1-73.6-103
	C932.7,3471.2,930.7,3445.6,926.6,3420.5z"/>
</svg>
