<?xml version="1.0" encoding="utf-8"?>
<!-- Generator: Adobe Illustrator 24.3.0, SVG Export Plug-In . SVG Version: 6.00 Build 0)  -->
<svg version="1.1" id="Layer_1" xmlns="http://www.w3.org/2000/svg" xmlns:xlink="http://www.w3.org/1999/xlink" x="0px" y="0px"
	 viewBox="0 0 4000 4000" style="enable-background:new 0 0 4000 4000;" xml:space="preserve">
<path d="M1329.9,1069c21-93.6,69.6-164.9,156.2-203.8c83.7-37.6,168.4-39.1,252.1,8.4c6.9-8.1,13.4-14.8,18.7-22.2
	c112.2-157.5,338.5-185.4,482.3-57.7c25.3,22.5,43.3,53.3,66.6,82.7c97.3-14.2,177.6,16.7,230.4,111.1
	c73.3-37.9,146.9-42.3,221.3-8.8c73.5,33.1,117.5,91.3,140,169c11.6-0.6,20.8-0.4,29.8-1.7c91.2-12.8,167.6,14.7,225.9,86.3
	c16.4,20.2,34.6,28.7,59.7,33.5c144.1,27.3,287.9,57.4,424.1,113.4c41.4,17.1,80.8,40.8,117.9,66.2c36,24.7,54.8,61.2,54.5,107.1
	c-2.8,359.3-77.6,701.1-251.5,1017.7c-130.8,238.1-306.7,436.9-533.3,588.5c-53.4,35.7-111,65.2-167.5,96.1
	c-18.8,10.3-28.5,20.3-25.6,44.4c4.2,34.2,2.9,69.1,3.3,103.7c0.5,45.9-18.6,82.2-60.2,101.8c-43,20.2-87.2,39-132.5,53.2
	c-121,37.7-245.5,58.6-371.6,71.5c-134.5,13.7-269.1,18.5-404,12c-187.6-9.1-373.1-33.2-552.3-92.5c-38.3-12.7-74.7-31.2-111.7-47.6
	c-44.2-19.6-64.1-54.9-64.3-102.4c-0.2-35.8-1.7-71.7,0.1-107.4c1.1-21.4-7-31.6-25.5-40.9c-278.3-139.3-496.4-344.1-658.8-608.9
	c-122.3-199.3-206.6-413.6-251.2-643.2c-27.8-143.2-41.1-287.9-42.6-433.9c-0.5-54.7,20.2-95.8,62.4-125.4
	c32.9-23.1,68.5-43.7,105.5-59.3c141.6-59.7,291.1-90.5,442-115.5c40-6.6,79.7-14.8,119.7-20.8c37.6-5.6,75.5-10.5,113.4-13.4
	c15.9-1.2,26.5-4.9,34.4-19.7c57.4-108.5,149.6-151.6,269.5-141.7C1313.1,1069.4,1319,1069,1329.9,1069z M3763.4,1638.5
	c-55.1,23.1-103.3,47.1-153.8,63.8c-166,54.9-337.9,83.3-510.6,105.3c-152.5,19.4-306,31.5-459.1,46.2
	c-181.9,17.5-364.4,23.5-547,24.4c-230.3,1.1-460.7,1.9-690.5-18.5c-143.8-12.8-287.7-23.8-431.2-39.1
	c-166.1-17.7-331-44.6-493-85.8c-90.1-22.9-179.6-49.1-258.4-101.5c-2.4-1.6-6.6-0.6-14.3-1.1c2.1,29.5,4,57.6,6,85.8
	c20.8,285.7,92.3,557,230.1,809.5c102.2,187.4,232.4,351.8,396.6,489c133,111.1,278.1,200.7,442.3,258.5
	c179.6,63.2,365.7,90.4,554.4,100.8c213.9,11.7,426.7,1,637.6-41c253.6-50.5,479.5-156.9,674.7-326.9
	c249.5-217.2,417.6-487.5,518.6-801c48.9-151.7,76-307.7,91.6-465.9C3760.7,1707.1,3761.4,1673,3763.4,1638.5z M1438.7,1813.7
	c-29.6-14.6-54.9-25-78.1-38.9c-69.3-41.6-117.2-100.8-139-179.3c-17-61.2,7.2-109,66.4-132.1c16.5-6.4,34.2-11.2,51.8-13.2
	c115-13.3,214.3,22.8,298.6,100.3c31,28.5,54.6,63.8,66.2,104.8c22.6,79.6-4.3,118.6-53.9,146.5c-9.5,5.4-18.9,10.9-28.3,16.3
	c0.9,3.2,1.8,6.3,2.7,9.5c39.1,0,78.2-0.9,117.3,0.1c285.3,7.4,570.4,2.3,855.2-17.4c200.1-13.8,399.5-32.4,597.2-66.3
	c70.4-12.1,140.2-28.4,210-43.8c28.3-6.2,31.1-12.1,25.6-40c-12.4-63.7-47.2-108.4-125.7-91.5c-1.2,0.3-2.3,0.6-3.5,0.9
	c-15.6,3.9-25.3-3.1-30.6-17.3c-2.9-7.8-5.8-15.7-7.9-23.7c-9.1-34.3-31.2-55.1-64.9-65c-13.4-3.9-26.1-10.1-40.4-15.7
	c0-28.4,0.7-54.5-0.1-80.7c-3.8-127.2-135.6-203.7-229.5-174.1c-11.3,3.6-23.6,4.5-34.7,8.7c-18,6.7-27.5-1.7-33.3-16.9
	c-6.8-17.8-11.8-36.3-19.1-53.9c-47.5-114.5-173.1-159.3-282.3-101.2c-12.5,6.6-25.2,12.7-41.4,20.9c-8.6-14.7-17-27.1-23.7-40.5
	c-36.9-74.1-93-101.6-173.2-84.5c-37.5,8-37.8,8.2-57.5-27.4c-24.2-43.8-55.6-79.9-100.2-104.2c-130.7-71.3-302.3-25.8-380,101.4
	c-8.4,13.8-17.5,27.1-27.5,42.5c-13.9-7.9-24.1-13.6-34.2-19.5c-34.6-20.1-71.3-33.4-111.8-33.6c-91.6-0.5-203.2,56.8-229.2,179.3
	c-3.9,18.4-8.6,36.6-12.4,53.1c-46.9,0-90.9-3.5-134.2,1c-45.1,4.6-82,30.5-115.5,60.5c-34.1,30.6-46.7,73.2-60.5,117.1
	c-15.9-3.6-27.3-5.9-38.5-8.9c-108.6-28.3-214.2,27.3-253.2,133.2c-12.8,34.7-28.7,68.4-38.4,103.9c-10.8,39.6-34,53.4-73.8,56.8
	c-64.1,5.4-95,43.4-97.9,109.8C625.7,1734.2,1226.1,1818.6,1438.7,1813.7z M2786.9,3292.2c-536.8,182.5-1067,182-1600.9-0.9
	c0,35.8,1.1,69.1-0.3,102.2c-1.5,37.2,15.2,62,48.4,75.4c49.6,20,98.6,42.9,150,56.9c147.8,40.3,299.3,58.4,452,66.3
	c159.9,8.3,319.5,3.4,478.6-15.1c115.1-13.4,228.8-33.5,338.5-71.6c34.8-12.1,68.2-28.1,101.8-43.3c19.9-9,32-24.4,31.9-47.5
	C2786.8,3374.3,2786.9,3334.1,2786.9,3292.2z M718,1398.2c-22.9,4.2-39.3,6-54.9,10.4c-67.6,18.7-135.8,35.7-201.9,58.5
	c-27.1,9.3-51.8,29.3-73.8,48.7c-23.4,20.7-25.3,46.2-7.6,70.8c30.6,42.5,75.4,62.1,126.1,75.1c4.9-11.6,7.3-20.9,12.4-28.5
	c14.3-21.6,27-45.4,45.3-63c24.2-23.3,55.8-36.1,89.7-40.7c12.1-1.6,25-2.1,29.4-15.9C694.2,1477.6,704.9,1441.2,718,1398.2z
	 M3211.2,1394c-1,3-2,5.9-3,8.9c6.9,6,12.9,13.7,20.8,17.6c33.6,16.6,57.8,41.9,70.8,76.8c5.7,15.2,15.3,18.8,29.9,18.9
	c67.9,0.6,110,37.8,135.8,97.4c5.1,11.7,9.7,23.7,15.5,37.8c43.6-12.2,82-29.2,110.9-62.8c21.5-25,20.6-40.3-0.9-66
	c-20.3-24.3-46.4-40.5-75.2-52.8c-88-37.9-180.5-59-274.4-75.5C3231.6,1392.5,3221.3,1394,3211.2,1394z M1652.7,1743.5
	c-48.4-21.9-90.4-40.7-132.4-59.8c-42.4-19.3-84.6-38.8-126.9-58.1c-41.6-19-81.8-41.2-127.4-56.3
	C1277.1,1719.7,1515,1829.3,1652.7,1743.5z M3201.3,1313.9c-1.9,3.3-3.7,6.6-5.6,9.9c5.4,4.9,10,12.2,16.3,14.2
	c15.8,5,32.2,8.3,48.6,10.9c90.9,14,179.7,36.6,263.8,73.5c33.2,14.6,66.3,33.9,93,58.2c51.5,46.8,49.9,99.2,1.5,149.4
	c-6.9,7.1-13.8,14.2-20.6,21.4c53.9-12.5,102.8-33.1,142.9-69.8c31-28.4,31.5-56.9,1.2-85.9c-15.3-14.6-32.5-28.9-51.4-38
	c-43.8-21.2-87.8-43.8-134.2-57.6c-91.1-27.1-183.8-49.2-276.1-72.3C3254.9,1321.2,3227.9,1318.4,3201.3,1313.9z M772,1317.7
	c-7-0.7-11.5-2.2-15.5-1.4c-114.6,21.9-229.6,43.1-340.4,80.5c-48.2,16.3-94.6,39-139.9,62.6c-21.6,11.2-40.8,29.3-57,47.8
	c-20.9,23.8-18.2,44.3,5,65.6c14.9,13.6,30.9,26.4,47.9,37.2c30.7,19.6,61.1,40.4,107,49.2c-14.8-17.5-24.6-28.6-33.7-40.2
	c-34.9-44.3-35.9-77.1-4-123.5c18-26.2,42.1-46.4,70.6-58.7c48-20.7,96.4-41.4,146.4-56c55.8-16.3,113.7-25.5,170.6-38.2
	C744.7,1339.2,761.6,1336.9,772,1317.7z M1289.7,1521c6.6,5.1,12.2,11.1,19.1,14.6c18.1,9,36.7,16.9,55.1,25.2
	c86.6,39.5,173.1,79.2,259.9,118.3c13.1,5.9,26,16.6,42.6,10.3C1635,1523.6,1372.6,1449.8,1289.7,1521z"/>
<path d="M2750.6,321.9c13.7-10.3,24.6-19.4,36.3-27.2c50.5-33.6,104-39.8,159.1-13.1c54.9,26.6,83.7,85.5,73.1,145.8
	c-8,45.5-27,86.1-54.9,122.8c-56.9,74.8-131.1,127.4-214.9,167.7c-32.1,15.4-60.6,12.8-89.1-11.4c-73.6-62.3-139-130.5-175.6-221.8
	c-15.7-39.2-25.7-79.8-19.4-122.2c8.7-58.3,36-104.2,95.9-121.4c64.4-18.5,119.9-0.5,165.3,48.4
	C2734.4,298.2,2740.6,308.4,2750.6,321.9z M2728.3,415.4c-5.4-14.1-9.1-26.2-14.5-37.6c-9.6-20.2-17.2-42.4-31-59.5
	c-29-35.9-72.1-47.1-108.8-33c-39.8,15.3-61,47.3-62.1,95.2c-0.9,40.1,8.8,78.1,27.4,113.5c37.3,70.7,90,128.3,152.1,177.9
	c13.1,10.5,25,10.6,39.2,2.8c51.3-28.1,103-56.2,144.7-97.7c26-25.8,49.5-54.8,70.3-85c18.3-26.6,27.7-57.9,26.2-91.3
	c-2.8-65.1-60.9-105.6-122.7-85.4c-33.1,10.8-58.1,31.8-77.4,60.3C2761.9,390.3,2753.4,406.4,2728.3,415.4z"/>
<path d="M2122.3,274.7c7-10.5,13.2-20.4,20-30c23.4-33.2,54.8-48.1,95.7-41.5c40,6.4,62.1,32.1,74.6,68.4c13.4,39,8.5,77.7-2.9,116
	c-13.7,46-35.6,88.2-62.6,127.8c-10.7,15.8-24.3,22.3-42.5,19c-74-13.3-143-38.1-196.7-93.3c-26.4-27.2-44.1-59.5-35.6-100
	c12.1-57.6,64.5-89.5,121.3-74.2C2102.5,269.3,2111.5,271.7,2122.3,274.7z M2271.3,325.4c0-10.5,0.6-17.7-0.1-24.8
	c-2.9-30-19.6-51.5-42.6-55c-23.4-3.6-44.8,11.5-56,40.6c-4.2,11.1-6.6,22.9-10,34.3c-8.9,30.5-16,33.1-42,16.6
	c-13-8.3-25.9-17.6-40.2-22.9c-19.2-7-38-2.2-52.8,12.5c-13.6,13.5-12.1,30.6-7.6,47c6.3,22.9,22.1,39.1,40.9,52.7
	c37.3,26.8,79.6,42.6,123.2,55.6c17.1,5.1,30.5,0.3,39.3-15.7C2248.4,421.2,2271.9,375.6,2271.3,325.4z"/>
<path d="M2935.8,3051.1c-5.9-4.7-14.6-8.6-17.4-15c-3.3-7.6-4.1-18.6-1-26.1c2.7-6.7,11.8-11.2,18.7-15.7
	c236.3-151.4,395.9-364.5,500.1-622.1c4-9.9,7.3-20.2,11.7-30c8.2-18.4,20.9-24.3,36.3-16.7c16.7,8.3,11.4,22.2,6.2,34
	c-26.4,59.9-50.5,121.1-81.2,178.7c-96.5,181.4-226.1,335.5-390.2,459.9c-19.9,15.1-41,28.6-61.9,42.4
	C2951.3,3044.5,2944.4,3046.9,2935.8,3051.1z"/>
<path d="M1461.2,2552.9c0.9-64.3,51-115.4,112-114.2c56.6,1.1,102.9,52.2,101.4,111.8c-1.7,68-50.3,116-115.8,114.3
	C1505.2,2663.5,1460.3,2611.9,1461.2,2552.9z"/>
<path d="M2406.1,2438.4c43,0.4,81.3,29.5,96.1,72.9c19.5,57.5-8.9,125.3-59.7,144.2c-41.3,15.3-78.6,7-109.8-21.5
	c-32.3-29.5-43.6-68.1-32.7-111C2313.5,2470.2,2355.2,2437.9,2406.1,2438.4z"/>
<path d="M1440,2904.7c-35.3,2.9-67-8.6-96.3-28.9c-66.1-45.8-64.8-131.5,2.8-175.5c62.3-40.5,155.4-30.5,207.7,22.4
	c51.2,51.7,39.9,126.9-24.1,162C1502.2,2900.1,1472.3,2906.2,1440,2904.7z M1439.2,2863.7c24.7-8.1,49.8-12.5,70.9-24.3
	c39.2-21.9,40.6-66.4,4.3-93.4c-37.9-28.2-97.8-35.2-143.9-4.2c-37.8,25.3-37.7,74.4,1.5,96.8
	C1392,2850,1415.7,2855.1,1439.2,2863.7z"/>
<path d="M2520.6,2907.2c-17.6,0.5-49.6-6.1-78.3-25.9c-65.2-45-63.4-139.8,5.7-178.9c57.3-32.4,117.7-36.1,177.2-3.1
	c67.9,37.7,77.4,117.5,20.7,170.7C2619.3,2895,2587.2,2905.9,2520.6,2907.2z M2533.6,2860.2c28.2,0,59.3-9,77.4-22.6
	c31.1-23.2,33.1-63.3,4.4-89c-40.5-36.3-123-32.2-159.9,8c-20.8,22.7-21.5,46.5-1.1,70C2475.2,2850.6,2502.3,2860.6,2533.6,2860.2z"
	/>
<path d="M621.4,2593.1c-23.4-5.9-33-23.6-41.3-40.1c-38.7-76.4-79.5-152-113-230.7c-42-98.7-70.2-202.3-92-307.4
	c-3.1-15.1-4.3-30.6-5.9-45.9c-1.1-11.1,4.4-17.9,15.2-20.7c12.4-3.2,21.2,1,25.6,12.8c2.5,6.6,4,13.7,5.4,20.6
	c25.6,126.4,60.8,250,112.7,368.1c26.7,60.9,59.9,119,90,178.4c4.8,9.5,9.6,19.2,13.9,29C637.9,2571,635,2582.5,621.4,2593.1z"/>
<path d="M1989.6,2782c-92.6-0.4-161.8-67.7-157.2-153.3c0.4-7.7,2.4-17.3,7.3-22.4c9.3-9.6,27.1-4.5,31.8,9
	c4.7,13.4,6.4,27.8,10.4,41.5c15.4,52.9,56.7,81.2,113.4,78c56.3-3.1,92.8-35.9,102-91.6c1.4-8.2,1.5-17.2,5.1-24.3
	c3.3-6.4,11.3-15.4,16.1-14.8c9.3,1.2,19.4,6.9,26.2,13.6c3.8,3.8,3.1,13.7,2.1,20.6C2135.2,2723.3,2085.9,2780.8,1989.6,2782z"/>
<path d="M1038.4,2976.7c-19.7,33.7-26.1,36.5-51.3,20.1c-79.4-51.6-148.1-115.7-212.7-184.4c-15.4-16.4-15.1-29.8,0-39.2
	c6.5-4,17.3-3.1,25.5-1.5c4.9,1,9,7.4,12.9,11.9c58.8,66.5,127.3,121.5,200.3,171.2C1021.8,2960.7,1029,2968.5,1038.4,2976.7z"/>
<path d="M3585.9,2005.5c0,7.6,1.5,16.1-0.2,23.9c-13.1,58.2-26.7,116.2-40.5,174.2c-1.6,6.9-3.5,15.6-8.5,19.3
	c-6.7,5-17.4,9.6-24.4,7.5c-6.8-2-11.7-12.3-16.3-19.6c-1.4-2.2,0.8-6.9,1.6-10.3c14.9-58.9,29.4-117.9,44.8-176.7
	C3549.4,1997.4,3553,1996.4,3585.9,2005.5z"/>
<path d="M724.5,2688c-0.4,16.5-11,26.9-26.7,26.3c-16-0.6-33.7-21.5-33.6-39.7c0.1-14.2,10.1-23.4,25.3-23.4
	C708.5,2651.3,725,2668.6,724.5,2688z"/>
<path d="M1962.4,978c80.5,7.8,171.8,27.1,240.1,102.3c14.2,15.6,26.5,34,35.5,53.1c24.5,52,15,96.5-25.8,136.9
	c-27.2,26.9-60.8,42.7-96.8,51.5c-131.7,32.2-244.6-5.7-341.7-96.8c-9.4-8.8-16.6-20.3-24-31.1c-52.7-78.3-13.7-136,34.4-170.5
	C1823.9,994.8,1887,977.8,1962.4,978z M2191.9,1219.7c-40.4-22.5-371.7-81-413-72.1c46.3,83.2,121.3,118.2,208.1,134.6
	C2055.5,1295.1,2159.6,1263.6,2191.9,1219.7z M1789.8,1087.5c102.5,27.7,378.7,71.4,411.8,64.1c-52.8-84.7-132.9-116.6-225.2-125.5
	C1898.3,1018.5,1817.9,1045,1789.8,1087.5z"/>
<path d="M2778.9,1280.6c-1.8,135.8-115.9,261.5-249.7,275.2c-69.2,7.1-110.8-23.9-119.4-92.3c-9.5-75.7,18.7-140.8,64.5-198.7
	c42.2-53.2,97-87.6,164.1-101.1C2726.2,1145.8,2780.1,1190.7,2778.9,1280.6z M2507.5,1501.8c130.9,2.4,260-149,218.1-253.6
	C2639.6,1322.5,2580.2,1417.7,2507.5,1501.8z M2685.4,1209.7c-134.1-1.2-256.9,143.4-223.7,263.9
	C2537,1385.3,2607.9,1299,2685.4,1209.7z"/>
<path d="M1564.6,1359.7c10.7-63.7-16.8-131.6-62.1-161.8c-4.9-3.3-11.7-5.9-14-10.6c-3.8-8-9.1-19.8-5.8-25.5
	c4.3-7.4,17.7-16,24.6-14.2c16.5,4.4,35.2,11,46.4,22.9c53.6,57.4,70.9,128,65.4,204.5c-2.2,30.5-11.3,37.4-42.6,33.6
	c-70.1-8.6-133.8-34-185.7-83c-11.3-10.7-19-27.4-23.5-42.7c-5.6-19,6.3-35.2,22.9-37.7c15.3-2.3,28.4,7.1,30.9,26.3
	c2,15.6,8,27,20.7,35.4C1478.9,1331.4,1519.9,1346.1,1564.6,1359.7z"/>
<path d="M2863.6,1632.2c49.1-0.1,89.4-9.2,126.2-29.2c12.6-6.9,22-20.9,31-33c13.8-18.5,26.6-23.8,41.3-14.6
	c13.4,8.4,16.5,26.8,3.6,44.1c-10.4,14-23.5,27.3-38.1,36.7c-54,34.8-115.1,43.5-177.9,42.4c-22.3-0.4-31-9.2-29.9-31.1
	c1.1-21.1,2.4-44,11.2-62.6c17.5-37.5,38.1-73.9,61.6-107.9c10.7-15.5,30.4-26.2,48-35.1c9.1-4.6,23.6-3,34,0.7
	c15.8,5.6,17.2,23.4,4.3,34c-4.5,3.7-10.2,6.2-15.4,8.9C2905.6,1515.4,2882.4,1568.6,2863.6,1632.2z"/>
<path d="M982.3,1643.9c-6.6-55.6-10.6-107.5-59.7-141.4c-4.9-3.4-9.7-7.1-13.5-11.6c-10-12-7.6-24.8,0.5-36.2
	c8.1-11.3,20.2-13.8,31.5-6.2c12.6,8.5,26.4,17.5,34.9,29.5c37.7,53.2,52.7,114.2,54.6,178.3c1,32.1-16.1,46.3-48.1,40.7
	c-63.7-11.1-120.5-37.3-163.8-87c-9.1-10.4-15.5-23.9-20.3-37.1c-4.8-13.2-0.2-25.5,11.4-34.8c20.2-16.1,37.6-11,39.3,14.5
	c1.6,24.7,15,39.2,32.5,52.3C908.4,1625.3,944.9,1639.8,982.3,1643.9z"/>
<path d="M2384.5,1558.5c-0.9,22.7-21.8,32.6-37.8,22.4c-6.8-4.3-11.5-11.8-17.2-17.7c-34.3-35.6-84.6-32.3-113.9,7.7
	c-5.6,7.6-10.1,16.1-15.1,24.2c-6.3,10.2-14.9,15.5-26.9,11c-13.2-4.9-17.7-15-14.6-28.5c9.6-42,35.5-70.7,76.6-81.1
	c51.7-13.2,99.4-4.2,135.5,39.5C2377.6,1543.8,2381.7,1553.7,2384.5,1558.5z"/>
<path d="M1866.4,1433.3c47.9,3.9,94.4,34.1,111.8,76.5c3.1,7.5,4.8,16,5.2,24.2c0.8,14.4-8.2,21.4-21.4,24
	c-11.9,2.4-21.3-0.8-26.4-12.5c-2.8-6.6-4.7-13.6-7.8-20c-18.9-39.4-58.6-51.4-95.6-28.8c-7.1,4.3-12.9,10.6-19.9,15.1
	c-9.1,5.9-18.9,11.5-29.3,2.2c-10.5-9.5-11-22-4.3-32.6c6.2-9.7,14.8-20,24.8-24.9C1823.6,1446.9,1845.3,1440.8,1866.4,1433.3z"/>
</svg>
