<?xml version="1.0" encoding="utf-8"?>
<!-- Generator: Adobe Illustrator 24.3.0, SVG Export Plug-In . SVG Version: 6.00 Build 0)  -->
<svg version="1.1" id="Layer_1" xmlns="http://www.w3.org/2000/svg" xmlns:xlink="http://www.w3.org/1999/xlink" x="0px" y="0px"
	 viewBox="0 0 4000 4000" style="enable-background:new 0 0 4000 4000;" xml:space="preserve">
<path d="M3641,2029.1c101.1,164.8,114.1,325-2,485.7c7,5.7,12.9,11.6,19.8,16.1c111.4,72.5,144.8,178.3,128.1,304.2
	c-14.9,112.5-77.4,195.6-167.2,260.5c-75.6,54.6-159.7,92.4-246.6,124.8c-173.9,64.9-354.3,103.5-536.9,133.7
	c-339.1,56.1-680.7,66.1-1023.3,52.3c-130.5-5.3-261.2-13.4-391-27.3c-257.2-27.7-510.6-75.2-754.6-164.2
	c-90.9-33.1-180.5-69.5-262.5-121.8c-54.9-35-106.8-73.6-146-126.7c-60.4-81.9-76.7-173.1-57.7-272.1c8.7-45.1,19-89.5,43-129.2
	c7.7-12.7,7.3-23.1-1.9-34.8c-48.4-61.1-64.3-133.1-66.7-208.8c-1-30.6,0.9-61.7,4.9-92.1c8.1-61.8,39.3-111.4,86.3-151.5
	c13.7-11.6,27.9-22.5,44.4-35.8c-6.3-7.4-10.9-14.1-16.8-19.3c-58.2-51.8-85.1-118-89-194.4c-1.1-21.2-1.2-42.6,0.8-63.7
	c3.4-35.2,12.4-69.1,34.1-98.2c10.3-13.8,11.4-26.8,7.2-44.3c-23.4-96.2-12.4-190.1,27.1-280.1c16-36.4,44-64.9,75.3-89.5
	c72-56.4,154.5-93.5,239.8-123.6c131.3-46.4,265.1-84.1,402.3-109.3c13.4-2.4,27.1-7,38.8-13.7c71.9-41.4,151.3-54.1,232-62.4
	c28.5-2.9,57.1-5.8,85.6-8.5c24.6-2.3,46.5-10.9,69-21.8c38.1-18.5,78.4-32.5,118.3-47c109.8-39.8,219.8-78.9,329.9-118
	c17-6,34.6-10.3,51.8-15.7c27.5-8.7,54.1-6.7,81,3.5c136,51.6,274.4,97.6,407.5,155.8c79.6,34.8,160.9,50.5,244.7,63.9
	c98.5,15.8,196.5,33.7,292.3,63.2c74,22.7,150.1,38.2,225,58c101.8,26.9,201.6,59.8,297.4,103.8c60,27.5,116.9,60.4,168,103
	c59.2,49.4,95.7,110.9,99.6,188.7c2.3,45.4-0.2,91.1,0.3,136.6c0.1,12.2,0.7,25.5,5.6,36.3c43,94.7,46.4,188.5-3.9,281.5
	c-16.3,30.2-38.4,56-65.3,77.6C3659.5,2012.5,3650.2,2021.1,3641,2029.1z M2526.8,990.3c0,18.1-0.1,28.5,0,39
	c0.6,53.1,1.4,106.3,2,159.4c0.4,34.9-16.7,58.2-48.3,71.7c-6.8,2.9-13.6,5.9-20.5,8.8c-141.4,58.3-283.3,115.4-423.9,175.5
	c-68.9,29.4-135,30.4-203.5,0.8c-73.1-31.6-147.2-61-221-91c-68.9-28-137.6-56.3-207.1-82.9c-37.8-14.4-55.2-38.8-53.6-79.8
	c2.3-58.4,1.5-116.9,2-175.3c0.1-11.3,0-22.6,0-34.8c-15.3,0-27-1.2-38.3,0.2c-46.3,5.7-92.7,11.8-138.9,18.7
	c-37.1,5.5-72.1,18.1-104.5,37c-11.4,6.7-20.9,16.4-34.7,27.6c14,10.4,23.5,18.2,33.8,24.9c8.9,5.8,19,9.6,27.8,15.5
	c33.5,22.1,40.7,55.7,15.6,87.4c-12.2,15.3-29.1,28-46.1,38.2c-24.5,14.7-52,24.6-76.4,39.4c-28,17-56.4,34.7-80.4,56.7
	c-35.2,32.3-32.4,70.4,4.3,100.8c19.6,16.2,41.4,29.7,61.7,45.1c56.6,43.1,63.9,91.9,21.4,148.4c-15.9,21.2-34.5,40.3-51.6,60.7
	c-43.2,51.5-48.1,95.8-17,155.8c10.8,20.7,22.5,41,33.2,61.8c29.9,58.5,42.1,119.7,28.6,185.2c-7.1,34.3-12.8,68.9-18.5,103.5
	c-6.4,39.3-7.3,78.3,10.2,115.7c10.4,22.2,25.8,39.7,49.5,46.6c51.6,15.1,112-33.5,112.3-89.8c-41.2,6.5-82.3,5.5-123.1-3.2
	c-16-3.4-29.9-9.4-28.7-31.8c55.8-4,108.5,3.1,163.5,21.4c2.2-17,6-31.5,5.6-45.9c-1.8-66.9-2.2-133.9-8.1-200.4
	c-6.5-73.9,12.8-138.3,56.9-196.9c47.2-62.7,109.4-106.5,177.2-143.1c95.2-51.4,194.9-78.7,303.5-48.5c8.2,2.3,16.7,3.1,25,4.8
	c67.9,14.1,136.2,24.6,205.7,14.5c42-6.1,83.8-13.8,125.5-21.7c68.5-13,136.8-17.1,205.7-3.2c124.9,25.2,228,84.9,303,189.4
	c10.5,14.6,19.3,30.5,28.1,46.3c5.5,9.8,12.4,12.2,23.5,11.1c62.3-6.3,124.9-10,187-18c71.3-9.2,143.6-13.3,212.3-37.3
	c4.8-1.7,10.5-0.6,15.7-1c14.7-1.1,29.4-2.5,44.2-3.4c7.8-0.5,15.6-0.1,24.8-0.1c-2.4,38.9-38.5,22.6-50.3,35.7
	c-8.5,35-14.9,67.3-24.2,98.6c-9.4,31.7-28.8,60.4-33.8,95.6c12.7,2.2,21.5,3.7,31.7,5.5c-29.9,13.4-57.4,27.1-85.8,38.2
	c-26.3,10.3-36.3,4.6-48.8-24.3c38.3-5.6,57.2-33.9,72.9-64.5c11.1-21.7,21.9-43.9,29.3-67c7.6-23.6,14.6-48.3,7.4-70.9
	c-127.9,16.3-253.6,32.3-379.2,48.3c15.9,54.3,31.2,105,45.7,155.9c15.7,55.1,29.4,110.8,46.2,165.5c27.3,88.8,35.1,178.6,24,270.9
	c-5.7,47.3-7.5,95.2-9,142.9c-0.9,29.3,8.4,56.8,25.5,80.8c22.8,32,54.3,48.1,93.6,42.2c38.9-5.9,65-29.4,78.1-66.8
	c9.9-28.1,8.5-56.9,3-85.1c-9.5-47.9-21.6-95.3-31.8-143c-20.9-97.3-3.6-188.9,48.8-272.1c32.7-52,69.9-101.8,109.5-148.8
	c36.3-43.1,56-91.9,68.7-145.2c20.4-85.6-1.3-160.5-60.5-223.7c-29.7-31.7-63-60-95.9-88.5c-32.1-27.8-67.6-51.9-98.2-81.2
	c-21.9-21-41.4-46-56.4-72.4c-23-40.4-19.6-82.6,9.6-119.5c12.9-16.3,29.4-31,47.1-42c22.4-13.9,47.8-22.9,71.5-34.7
	c19.9-9.9,40.7-18.9,58.5-31.8c25.4-18.3,29.4-43.7,12.7-70.1c-6.6-10.5-15.6-21.2-26.2-27c-24-13.2-48.6-27.9-74.8-34.1
	c-89.8-21.2-180.3-39.7-270.9-57.7C2598,996.9,2564.3,994.8,2526.8,990.3z M283.9,2583.3c-27.2,36.1-39,71.2-20,109.8
	c11.6,23.5,26,46.4,42.8,66.5c48.8,58.3,114,94.8,180.5,128.6c99.8,50.7,205.6,86.2,313.4,115c211.7,56.6,426.7,95.6,645,116.5
	c166.1,15.9,332.4,29.9,499.3,29.8c170-0.1,340.1-0.5,509.9-7.7c159.1-6.7,317.6-25.4,474.9-51.2c132.1-21.7,263.4-47.2,391.2-87.6
	c111.5-35.3,222-73.8,319.4-140.9c26.8-18.5,52.2-40.7,73.3-65.4c38.5-45.2,39.4-90,9.6-141.2c-21.4-36.7-51.7-64.4-86.2-88.1
	c-31.4-21.4-33.4-22-63.3,2.7c-49.6,40.8-104.4,73-161.8,101.1c-127.4,62.4-262.2,104.4-398.5,141.9
	c-185.8,51.1-375.6,81.4-567,99.7c-138.5,13.2-277.6,21.2-416.6,26c-263.8,9.1-526.7-4.7-789-35.3c-199-23.3-394-62.5-585-122.9
	c-117.2-37.1-229-84.9-327.1-160.7C314.5,2608.8,300.9,2597.1,283.9,2583.3z M2681.3,2288.2c-11.6,0-22-0.8-32.3,0.1
	c-46.6,4-93,10.3-139.6,12.5c-170.9,7.8-341.7,16.8-512.7,20.7c-195.6,4.5-391-4.2-586.1-18.4c-66.7-4.9-133.4-10.8-199.9-17.9
	c-18.1-1.9-27.4,2.7-33.6,19.8c-4.6,12.8-12.2,24.9-20.4,35.9c-45.6,60.9-135.5,67.8-187.9,15.1c-20.4-20.5-29-46.6-35.2-73.7
	c-7.4-32.6-7.4-32-40.5-38.3c-180.8-34.5-360.1-74.1-521.7-168.3c-12.5-7.3-24.5-7.8-35.3,1.8c-26.9,23.9-55.1,46.8-79.3,73.2
	c-13.1,14.3-20.9,34.3-28.2,52.9c-11.3,28.7-6.5,55.9,12.3,81.1c23.3,31.2,52.8,55.2,85,76.2c60.9,39.7,127.6,67.4,195.8,91.6
	c180.1,63.8,367.3,97,555.6,123.4c136.7,19.2,274.2,32.2,412.1,40.8c157.1,9.9,314.2,14.8,471.5,13.9c196.6-1.1,393-9.9,588.7-29.5
	c41.9-4.2,83.7-9.8,127.5-14.9C2683.4,2486.2,2708.4,2389.1,2681.3,2288.2z M217.2,2333c9.7,82.2,31.2,151.2,86.2,207.4
	c76.9,78.5,171.4,128.1,271.7,167.9c155.7,61.9,318.3,98.9,482.6,127.6c186.4,32.7,374.8,50.3,563.9,57.5
	c367.1,13.8,732.8,0.5,1095.8-60.9c213.1-36,421.6-88.5,620.6-174.4c81.2-35.1,158.8-76.4,226.4-134.8
	c54.8-47.3,94.5-103.4,107.6-175.7c5.6-30.8,10.8-62-2.2-96c-6.1,3.6-8.9,9.3-12.3,14.6c-28.4,44.9-66.2,81.2-111.7,107.2
	c-58.9,33.6-118.4,67.4-181.1,92.8c-119.3,48.2-243.7,80.6-370.3,104.5c-31.4,5.9-32.6,7.3-31.8,38.9c1,35.4-2.7,70-18,102.6
	c-33.6,71.3-116.4,99.5-182.3,64c-47.3-25.5-69.4-66.6-81.4-115.8c-2.4-9.9-3.6-20.1-5.5-31.3c-48.5,5.8-93.6,13.1-138.9,16.2
	c-145.2,9.8-290.3,22-435.7,25.8c-299.8,7.8-599.3-0.7-897.2-37.8c-117.9-14.7-236-29.9-352.8-51.7
	c-143-26.8-283.8-64.2-418.9-119.7c-71.9-29.6-142-62.7-198.4-118.6C230.9,2340.5,226.9,2339,217.2,2333z M238.3,2750.2
	c-2.2,67.3,7.5,125.1,43.4,177.1c40.2,58.3,95.5,99.4,154.5,135.8c91.8,56.7,191.6,96,293.5,130.1c114.9,38.4,231.8,69.9,351,91.6
	c98.1,17.9,197.1,31.3,295.8,46.1c141,21.2,283.2,30.5,425.4,35.5c181.6,6.4,363.3,5.2,545-4c171-8.7,341.1-24,510-52.8
	c181.4-30.9,360.4-70.7,531.9-139.6c83.2-33.5,162.3-74,233.2-129.6c54.2-42.5,93.6-95.3,112.6-162.1c3.2-11.2,3.4-23.1,6-41.5
	c-11.4,9-16.6,12.6-21.1,16.7c-44.9,41.5-96.5,72.7-151.1,99.7c-103.4,51.1-212.7,85.7-323.7,114.6
	c-137.8,35.9-277.9,60.3-418.8,80.3c-147.4,20.9-295.4,36.1-444.1,39.6c-146.6,3.5-293.3,3.1-439.9,1.8
	c-223.3-2-445.6-18.6-666.9-50.2c-185.3-26.5-368.7-60.2-547.7-116.2c-91.3-28.6-181.9-58.9-267.6-102.2
	c-77.3-39-150.1-84.5-203.3-155.4C252.9,2761,247.5,2757.9,238.3,2750.2z M1950.6,1420.6c30.2,0,53.1-11.7,76.4-21.1
	c101.4-40.8,202.7-82,303.8-123.5c44.2-18.1,87.9-37.4,131.9-56c17.6-7.5,26.9-18.7,23.5-39.5c-2.2-13.4-0.4-27.5-0.7-41.3
	c-1-43.5-2.1-87-3.1-130.5c-0.5-23.6-12-40.3-32.7-50.7c-17.1-8.6-34-17.7-51.8-24.6c-131.6-51.3-263.5-101.5-394.8-153.5
	c-37.1-14.7-71.6-12.5-108,0.8c-71.8,26.3-144.3,50.4-216.1,76.8c-77.7,28.6-154.7,59.1-232.2,88.2c-36.3,13.6-54.1,39.3-54.3,77.6
	c-0.4,58.4-0.5,116.9-1.4,175.3c-0.3,17.5,7.1,26.5,23.5,32.7c49.6,18.8,98.5,39.6,147.9,58.9c103.8,40.6,207.7,80.9,311.7,121
	c10.2,3.9,21.1,5.8,35.3,9.7c0-47.5-0.1-89.9,0.1-132.3c0.1-10.6,0.3-21.3,2.2-31.7c2.1-11.7,10.2-18.8,22.5-18.4
	c14.1,0.5,16.8,10.7,16.7,22.3c-0.1,39.3-0.3,78.6-0.5,118C1950.6,1392.4,1950.6,1406,1950.6,1420.6z M3159.5,1761
	c4-0.2,8.3,0.4,12.2-0.7c56.1-15.7,112.5-30.8,168.3-47.8c78.5-23.8,153.5-56,223.9-98.3c40.3-24.3,77.1-52.9,102.4-93.8
	c19.9-32.2,27.7-66.2,14.9-103.4c-11-31.9-28.2-60.4-53.7-81.6c-35-29-70.7-58.3-109.8-81.1c-143.9-83.6-303.1-125.9-463.1-165
	c-5.2-1.3-11.1,0.8-19.3,1.5c4.5,10.5,7.4,18.3,11.1,25.7c9.2,18,9.7,36.4,4.6,55.7c-8,30.4-25.4,53.8-52.8,68.6
	c-20.5,11.1-42.3,19.7-63.1,30.4c-22.6,11.6-45.8,22.5-66.8,36.7c-41.2,27.7-48.4,59-22.8,100.8c11.5,18.7,25.9,36.6,42.2,51.2
	c34.8,31.1,71.6,59.9,107.7,89.5c47.8,39.2,93.8,80.2,125.3,134.4C3134.9,1708.5,3146.3,1734.6,3159.5,1761z M863.5,1739.1
	c13.4-24.7,23.2-47.2,37-66.8c14.6-20.7,33.1-38.7,49.9-57.8c0.7-0.8,1.4-1.6,2.1-2.4c46.6-52.6,43.5-76.6-15.7-116.7
	c-12.3-8.3-25.4-15.5-37.6-24c-66.2-46.4-74.3-114.1-20.5-174.6c9.8-11,21-21.4,33.2-29.5c21.1-14.1,43.2-26.9,65.5-39.1
	c26-14.3,52.9-27.1,79-41.4c12.9-7.1,26-14.9,28.2-32.8c-11.8-21.7-39.6-19.6-54.6-35.1c-15-15.5-26.5-34.4-42.3-55.6
	c-25.6,5.8-54.4,12.2-83.2,18.7c-111.9,25.4-222.2,56.6-329.6,97.2c-76.8,29.1-149.9,65.4-213.1,119.1
	c-28.9,24.5-51.7,53.2-62.4,90.3c-5.2,18-4.9,35.1,1.5,53c14.6,41.3,38.2,76.5,73.5,101.8c35.3,25.2,71.6,49.9,110.1,69.6
	c113.1,57.9,234.8,92.3,357.5,123.2C849,1738,856.4,1738.2,863.5,1739.1z M2569.7,1897.4c-90.4,5-176.3,11.2-262.2,14.3
	c-201.9,7.2-403.7,4.2-605.4-6.9c-88-4.8-175.7-14-263.5-22.3c-63.4-6-126.6-14.4-189.9-20.9c-27.8-2.9-33.1,1-41.9,27.4
	c-13.1,39-12.6,79.5-12.4,119.9c0.1,14.2,8,21.4,20.7,24.1c12.4,2.7,25,4.8,37.6,6.9c202.6,34,407,49.4,611.9,55.6
	c225.2,6.8,450.4,2.1,675-18.2c25.8-2.3,52.7-1.9,79.9-14.5C2607.8,2005.9,2591.3,1951.7,2569.7,1897.4z M2545.6,1848.7
	c-6.9-10.6-11-19.1-17.1-25.9c-20.7-22.8-40.7-46.4-63.4-67c-71.3-64.8-154.8-102.5-251.2-112.3c-68.7-7-135.4,3.8-202.2,17.1
	c-61.6,12.3-123.6,22.5-186.5,15.2c-43.1-5-85.9-13.1-128.6-21.6c-51.4-10.2-102.9-16.9-154.8-5.8c-104.7,22.5-192.2,77-270.3,148.3
	c-5.8,5.3-9.9,12.3-15.4,19.2C1396.1,1867.8,2379,1893.3,2545.6,1848.7z M2628.4,2110.8c-475.3,47.4-947.2,37.2-1420.4-35.4
	c0,31.3,1.1,58.7-0.3,85.9c-1.4,26.9-5.4,53.7-8.5,82.9c491.8,49.3,979.6,50,1470.8-1.7C2655.3,2196,2642,2153.9,2628.4,2110.8z
	 M2952.7,2537.5c136.4-28.2,267.1-59.8,392.8-109.5c71.3-28.2,139-63.6,201.3-108.6c41.1-29.7,75.3-65.2,95.2-113
	c17.5-42.1,11.5-80.9-14.9-117.2c-22.5-30.9-28.2-30.9-63.2-15.6c-60.1,26.4-120,54.4-182.1,75.3c-132,44.3-267.9,73.5-405.3,95.7
	c-24.1,3.9-36.9,13.7-43.9,37.8C2907.6,2369.6,2924.8,2452.4,2952.7,2537.5z M928,2207.2c8.9-59.5,30.1-112.2,30.4-169.9
	c-6.8-2.4-11.5-4.6-16.5-5.8c-7.2-1.7-14.5-2.9-21.9-3.9c-129.3-18-257.7-40.7-383.6-76c-98.6-27.6-194.2-61.7-278.2-122.5
	c-2.3-1.7-5.5-2.1-8-2.9c-1.9,2.4-4.3,4-4.2,5.5c4.9,64.2,29.1,119.2,78.6,161.4c38.2,32.5,80.8,58.3,126.3,79.4
	c127.9,59.3,263,95,400.9,121.5C875.7,2198.6,899.6,2202.3,928,2207.2z M2971.4,2196.8c1.5,2.1,2.9,4.1,4.4,6.2
	c154-29.2,307.8-59.7,455.1-115.5c65.7-24.9,129-54.2,187.1-94.6c54.8-38.1,91.7-87.7,105.8-153.3c2.5-11.8,2.9-24,4.9-41.3
	c-12,6.5-18.3,9.8-24.6,13.2c-39,21.4-76.5,46.2-117.2,63.7c-141.8,60.7-291.5,98.1-437.4,146.9c-45.2,0.5-71.8,26.8-94.9,62.9
	C3029.6,2124,2999.4,2159.7,2971.4,2196.8z M946.5,1980.6c1.9-2.4,3.8-4.7,5.7-7.1c-6.8-15.2-13.3-30.6-20.5-45.6
	c-17-35.3-38.2-69.2-50.3-106.2c-9.8-29.6-25.2-44.6-54.6-47.9c-3.2-0.4-6.3-1-9.4-1.8c-130.1-32.1-257.3-72.2-376.8-134
	c-50.4-26.1-95.8-58.6-134.6-100.3c-6.2-6.6-13.2-12.4-26.1-24.4c0,17.3-0.6,27.4,0.1,37.4c5.6,85,47.8,150.1,112,202.7
	c79.2,64.9,172.7,103.5,266.8,139.5c70.2,26.8,142.9,47.4,214.7,69.8C897.3,1970.1,922.1,1974.7,946.5,1980.6z M3169,1805.1
	c-12.3,60.4-23.7,116-35.6,174.5c11.6-2.6,22.9-4.3,33.7-7.6c29.4-9,58.6-18.8,88-28.1c106.9-33.9,208.7-78.5,300.7-143.5
	c59.5-42,107.1-93.6,127.6-165.9c5.9-20.7,13.1-41.2,8.3-67.6c-8.4,7-13.5,10.5-17.7,14.9c-38.2,39.5-83.6,68.9-132,93.7
	c-74.8,38.4-152.8,69.2-233.8,91.7C3261.1,1780.3,3214,1792.9,3169,1805.1z M606.2,1924.5c0.3-1.2,0.7-2.3,1-3.5
	c-41-19.7-83-37.5-122.7-59.5c-38.9-21.6-77.7-44.6-112.4-72c-35.2-27.7-65.4-61.7-97.8-93c-34.3,42.3-31.8,65.2,8.7,94.9
	c42.2,30.9,86.9,57.3,136.3,74.8c46,16.3,92.4,31.4,138.8,46.3C573.8,1917.6,590.2,1920.6,606.2,1924.5z M3709.4,1700.9
	c-19.4,26.3-38.8,52.5-60.3,81.7C3690.8,1773.7,3715.6,1742.5,3709.4,1700.9z"/>
<path d="M2889.6,539.4c40.7-18.8,77.7-29.8,118.2-17.5c59.4,18.1,91.5,75.2,75.3,135c-13.5,49.8-45.9,85.8-86.2,115.1
	c-65,47.3-139.7,70.6-217.8,84.6c-13.9,2.5-25.8,0-34.4-11.1c-66.6-86.1-114.2-179.4-104.1-292.5c1.7-18.6,8.1-37.5,15.8-54.7
	c19.6-43.8,54.1-67.6,102.8-67.2c51,0.4,89.7,22.7,113.3,68.8C2878.6,512,2883.3,524.8,2889.6,539.4z M2850.9,611.3
	c-1.5-10.4-4.3-22.3-4.6-34.2c-0.5-25-4.6-48.5-20.4-68.8c-18.7-24.1-42-40.2-73.6-35.2c-32.5,5.1-52.4,26.3-62.1,57.1
	c-8.7,27.6-11.4,55.6-6.9,84.8c8.4,54.4,27.4,104.5,55.3,151.5c32,53.9,32.3,54.5,92.1,36.6c61.4-18.3,120.3-41.9,168.1-86.8
	c21.3-20,38.8-42.5,45.1-71.6c11.1-51.1-32.1-95.3-83.8-86.5c-27.1,4.6-49.5,17.9-69.6,36.1C2880.5,603.1,2871.9,615.7,2850.9,611.3
	z"/>
<path d="M767.9,667.4c10.9-22.4,18.7-42.2,29.6-60.2c27.2-44.7,75.4-64.8,126-52.9c46,10.8,73.2,42.9,85.3,86.1
	c7.3,26.1,10.9,54.6,9.4,81.6c-4.5,81.1-32.7,155.2-73.4,225.1c-10.4,17.8-22.9,24.7-43.9,23.1c-85-6.2-165.4-27.1-238.4-72.2
	c-37.2-23-64.1-54.5-79.8-96.2c-22.3-59.2,19.4-130.9,77.9-146c29.7-7.7,58.8-7.7,87.5,4C753.7,662.1,759.6,664.2,767.9,667.4z
	 M799.4,737.8c-8-5.2-18.5-10.2-26.8-17.7c-21.7-19.9-47.3-27.2-76-26.3c-62.6,2-93,51-66.7,108.2c15.3,33.3,43.1,54.3,74.1,71.7
	c54.7,30.7,115,42,175.9,51.6c27,4.3,32.8,1.6,45-22.9c23.3-46.7,41.1-95.5,49.7-147c6.7-40.2,6.3-80.3-12-118.3
	c-12.4-25.7-30.5-43-60.7-44c-30.4-1-53.2,12-69.1,37.4c-13.5,21.4-18,45-16.7,70C816.8,714.2,818.5,728.6,799.4,737.8z"/>
<path d="M2989,1703.3c-7.9,6.2-13.7,14.1-20.5,15.2c-6.8,1.2-17-2.3-21.7-7.4c-13-13.8-22.3-31.3-36.1-44.1
	c-21.7-20.3-46.5-37.2-68.7-56.9c-27.8-24.6-54.8-50.2-81-76.5c-7.9-7.9-14.1-19.1-17.1-29.8c-1.8-6.4,2-19.1,6.9-21.5
	c6.8-3.4,17.4-1,25.8,1.3c4.3,1.2,7.8,7.1,10.4,11.6c20.9,35.9,52.7,60.7,85.7,84.2c37.5,26.7,70.2,58.5,98.5,94.6
	C2977.6,1682.1,2982.1,1691.7,2989,1703.3z"/>
<path d="M1142.1,1810.4c2.7,16.8-5,26.5-20.5,23.8c-53.2-9.2-106.2-19.8-159-31c-12.2-2.6-23.7-9.6-24.2-28.3
	c7.2-1.1,14.2-4.1,20.4-2.8C1018.9,1784.3,1078.9,1797.1,1142.1,1810.4z"/>
<path d="M2848.9,2047.5c2,17.6-4.2,23.4-15,25c-42.7,6.3-85.4,12.8-128.3,18.5c-14.5,1.9-21-6.2-19.9-22.8
	C2738.6,2050,2793.6,2054.9,2848.9,2047.5z"/>
<path d="M2876.1,2224.1c5.8,21-3.6,27.3-14.2,29.2c-35.3,6.5-70.9,12.2-106.5,16.9c-13.6,1.8-21.1-7.1-24.3-23.5
	C2778.1,2227.8,2827.7,2232.2,2876.1,2224.1z"/>
<path d="M2751.6,2582.4c28.3-4.6,55.2-9.1,82.1-13.3c12.6-1.9,25.3-4.5,37.8-4.1c5.6,0.2,11.1,6.9,16.6,10.6
	c-4.1,5.6-7.5,15.2-12.5,16.1c-34.3,6.4-68.9,11.4-103.5,15.9C2759.2,2609.3,2753.4,2600.7,2751.6,2582.4z"/>
<path d="M1022.6,2005.1c33.7,5.8,65.9,10.6,97.7,17.2c13.1,2.7,13.4,5.6,16.8,29.1c-35.1,3.9-69-1.4-102.1-11.3
	C1021.8,2036.1,1019.1,2024.3,1022.6,2005.1z"/>
<path d="M1693.8,2818c-125.5,1-250.2-11.2-375.1-22.3c-166.7-14.7-329.3-49.8-490.7-92c-14.4-3.8-28.5-8.3-42.5-13.2
	c-13.1-4.5-18-13.3-13.6-27.4c4.2-13.6,13.5-15.2,25-12.2c18.5,4.8,37,9.7,55.3,15.1c123.5,36.4,250.2,57.7,377.4,75.8
	c219.4,31.2,440.2,35.7,661.3,32.3c7.4-0.1,14.9,0.2,22.3,0c12.9-0.4,20.2,5.1,20.4,18.5c0.2,13.4-5,22.9-19.7,23.8
	c-13.8,0.8-27.6,1.5-41.4,1.5C1812.8,2818.1,1753.3,2818,1693.8,2818z"/>
<path d="M1535.7,3286.1c-46.6-3.3-92.3-4.5-137.4-10.2c-146.3-18.7-292.3-40.7-435.8-75.3c-67-16.1-132.5-38-198.6-57.8
	c-6.8-2-15.9-5.9-18.2-11.4c-3.3-7.7-4.8-20.2-0.6-25.9c3.9-5.3,17.2-7.7,24.8-5.6c31.7,8.7,62.6,20.1,94.1,29.5
	c144.7,43.4,292.7,71.3,442.2,90.8c69.4,9,139.3,14.1,209,20.9C1543.4,3243.9,1547.3,3250.7,1535.7,3286.1z"/>
<path d="M1881.2,1210.2c-11.8-4.2-18.9-6.4-25.7-9.2c-124.6-51-249.1-102.1-373.7-153.1c-11.8-4.8-24-8.8-35.2-14.6
	c-17.1-8.9-21.5-19.6-15-33c7.6-15.6,20-13.1,32.5-7.9c28.3,11.9,56.4,24.5,84.8,36.2c103,42.1,206.2,83.8,309.3,125.8
	c10.8,4.4,21.2,9.6,31.6,14.9c10.6,5.4,18.1,14.5,11.8,25.5C1897.3,1202.2,1886.9,1206.2,1881.2,1210.2z"/>
<path d="M1993.4,1200.5c-5.4-3.5-13.1-5.8-14.6-10.3c-2.1-5.9-2-15.6,1.6-20c5.8-6.9,14.6-12.3,23.2-15.8
	C2129,1103,2254.5,1051.9,2380,1001c8.7-3.5,18.8-7.6,27.4-6.2c7.7,1.3,17.1,8.6,20.1,15.6c2.1,4.9-3.8,15.3-8.8,20.6
	c-4.7,4.9-13,6.6-19.8,9.3c-65.8,26.5-131.6,52.8-197.4,79.3c-58,23.4-115.8,47-173.8,70.2
	C2016.9,1194.1,2005.6,1196.8,1993.4,1200.5z"/>
<path d="M2445.3,1074.8c4.2,8,8.5,16.1,12.7,24.1C2443,1090.5,2443,1090.5,2445.3,1074.8z"/>
</svg>
