<?xml version="1.0" encoding="utf-8"?>
<!-- Generator: Adobe Illustrator 24.3.0, SVG Export Plug-In . SVG Version: 6.00 Build 0)  -->
<svg version="1.1" id="Layer_1" xmlns="http://www.w3.org/2000/svg" xmlns:xlink="http://www.w3.org/1999/xlink" x="0px" y="0px"
	 viewBox="0 0 4000 4000" style="enable-background:new 0 0 4000 4000;" xml:space="preserve">
<path d="M2206.5,885.7c30.3-115.1,59.7-227.1,89.1-339c17.5-66.6,35.2-133.3,52.7-199.9c4-15.3,11.4-27.6,24.7-37.3
	c7-5,13.4-14.3,15-22.7c5.1-26.3,20.5-42.9,44.5-51.9c20.4-7.7,37.1-18.4,48.1-38.3c8-14.6,23.5-19.1,39.7-18.5
	c24.5,0.9,47.1-3.2,68-17.9c7.6-5.4,20.1-6.1,30.2-5.4c94.9,6.9,189.6-0.9,284.4-3.5c105.4-2.9,210.7-5.7,316.1-8.6
	c23-0.6,46-1.5,68.9-2.7c37.6-2,65.2,14.4,82.1,47c28.2,54.3,32.4,112,16.7,170.3c-4.5,16.9-15.8,32.6-26.2,47.2
	c-12.2,17-29.9,26.4-51.5,27.6c-57.4,3.1-114.7,6.7-172.1,9.4c-137.8,6.6-275.6,12.7-413.4,19.2c-12.4,0.6-24.8,4.1-37.1,3.6
	c-32.5-1.4-49.4,17.9-59.2,44.6c-9.9,26.9-18.6,54.4-25.5,82.2c-24.6,99.5-48.2,199.2-72.3,298.8c-3.8,15.7-8.4,31.3-13.5,50
	c8.3,3,15.8,6.2,23.6,8.4c82.6,24.3,166.1,46.2,243.7,84.6c30.8,15.2,60.5,33,89.7,51.2c51.4,32,82.6,78.4,95.6,137.7
	c14.7,67.4,30.5,134.5,45.8,201.7c14.2,62.6,27.4,125.4,42.8,187.6c8.2,32.9,2.1,58.9-21.8,83.7c-34.2,35.5-71.1,67.2-114.9,89.8
	c-15.1,7.8-21.9,17.8-24,35.1c-25,208.2-51.4,416.3-76.2,624.6c-22.5,189.3-43.1,378.8-65.1,568.1c-15.9,137-32.8,273.9-49.2,410.8
	c-1.9,16.2-4,32.4-4.8,48.6c-2.2,42.7-22.6,76.4-51.1,106.4c-49.2,51.7-109.5,86.7-174.2,114.4c-109,46.7-223.4,73.9-340.4,90.8
	c-165.7,23.9-332.3,28.2-498.9,15.9c-155.9-11.5-310.6-32.7-458.7-86.4c-63.2-22.9-124.3-50.2-179-90.2c-4.6-3.4-9.3-6.8-13.9-10.2
	c-57.1-42.7-91.7-96-97.7-170.5c-10-124-26.4-247.6-40.6-371.3c-20.2-175.1-41.1-350-61.3-525.1c-18.3-158.9-35.9-317.9-54.1-476.8
	c-9.9-86.6-20.9-173-30.7-259.6c-1.6-14.4-8.9-21.2-20.9-27.7c-46.6-25.4-87.6-58.1-123.7-97.2c-18.6-20.1-23.7-41.8-16.6-68.4
	c15.4-58.3,29.7-116.9,43.4-175.6c16.7-71.8,34.2-143.5,48-215.8c12.2-64,48.9-108.9,100.7-144.1c75.3-51.2,159-83.7,245.9-108.6
	c149.7-43,303-65.2,457.5-81.6c190.1-20.2,380.7-20.1,571.3-15.1c59.3,1.6,118.5,7.2,177.8,10.9
	C2190.5,886.1,2197,885.7,2206.5,885.7z M2602.8,2380.9c-4.3,0.7-7.4,0.3-9.6,1.6c-68.5,40.4-143.7,62.3-220.3,80.2
	c-147.9,34.6-298.4,48.3-449.7,53.8c-131.2,4.8-262.3,1.7-393.2-9.7c-123.3-10.7-245.1-29.3-364.2-63.8
	c-53.4-15.4-106-33.3-152.7-64.8c-4-2.7-9.6-3.1-15.2-4.8c-0.4,5.2-1.1,8-0.8,10.8c12.1,121.9,23.8,243.9,36.5,365.8
	c14.5,139,30,277.9,44.6,416.9c5.9,56.2,10.9,112.5,15.4,168.8c2.9,35.4,15.5,65.6,45.5,85.6c27,18,54,36.7,83.3,50.1
	c114.6,52.5,237.4,73.3,361.3,87c117.2,13,235,15,352.8,6.7c105.2-7.4,209.5-20.8,311.6-47.7c61.1-16.1,121-35.8,176.2-68
	c48-28,75.5-65.9,79.6-124c6.7-93.5,19-186.6,29.3-279.8c12.5-113.2,25.8-226.3,38.1-339.5c10.9-100.9,21-201.8,31.3-302.7
	C2603.4,2396.4,2602.8,2389.1,2602.8,2380.9z M2908,1310.4c-10.4,9.4-16.3,15.6-23,20.6c-26,19.5-50.8,41.1-78.6,57.5
	c-63.8,37.6-132.9,63.6-204,83.8c-215.9,61.4-436.9,88.8-660.5,96.3c-226.5,7.6-452-5.9-676.1-39.9c-114.7-17.4-228-41.5-337.7-80.1
	c-84.3-29.6-167-62.7-230.1-130.3c-0.4-0.5-1.9-0.1-4.7-0.1c-1.7,3-5,6.6-6,10.8c-23,95.9-45.6,191.9-68.6,287.8
	c-3,12.4-1.4,22.2,9.9,30.1c35.1,24.8,68.1,53.2,105.1,74.6c72.4,41.8,150.6,71,230.7,94.5c185.4,54.5,375.2,84.8,567.8,96.9
	c152.1,9.5,304.3,14.4,456.7,6.6c176.3-9.1,351.1-27.8,523.1-69.3c107.2-25.9,213.2-54.8,312.9-103.2
	c49.3-23.9,96.2-51.3,137.3-88.2c15.3-13.8,19.6-27.2,14.8-47.8c-21.1-91.4-40.3-183.3-60.4-274.9
	C2914.9,1329,2911.9,1322,2908,1310.4z M785.2,1838.8c-0.4,7.3-1.6,13-0.9,18.4c5.7,47.5,11.9,95,17.5,142.5
	c28.8,241.5,58.1,483,86.2,724.6c28.5,245.4,56.4,490.9,83,736.5c3.3,30.5,16,52.2,37.6,70.8c8.7,7.5,17.8,14.6,26.9,21.5
	c61.2,46.4,131.2,74.9,203.8,97.2c148.2,45.6,300.7,67.9,455.2,74.1c132.1,5.4,264.2,3.5,395.7-15c111.3-15.7,220.7-38.1,326.1-77.6
	c61.4-23,117.5-55.4,168.2-97.6c24.5-20.4,36.8-44.3,38.9-76.3c3.2-47.7,9.5-95.3,15-142.8c11.9-101.7,24.5-203.4,36.4-305.1
	c12.5-106.5,24.1-213.1,36.8-319.5c14.1-117.9,28.9-235.6,43.5-353.4c16.8-134.9,33.8-269.7,50.7-404.6c3.6-29.1,7.1-58.2,11-90.3
	c-10.6,2.4-17.1,3.1-23,5.4c-129,50.1-262.6,82.8-398.5,107.2c-32.9,5.9-66.3,9.8-99.5,13.7c-16.8,2-25.3,9.6-27.9,26.7
	c-2.9,18.9-8.7,37.3-12.8,56c-2.4,10.8-4,21.7-6.3,34.3c12.1,2.8,21.2,5.3,30.4,7c86,15,170.2,36.6,250.7,71.1
	c41.8,17.9,80.4,40.6,108,78.3c13.6,18.5,19.6,38.8,17,62c-8.1,73.3-15.6,146.6-23.4,220c-14,132.4-27.9,264.7-42.2,397.1
	c-15.6,144.7-31.7,289.4-47.6,434c-3.2,29.5-13.2,56.6-34,77.5c-19.4,19.5-40.4,38.3-63.4,53.2c-44.5,28.8-94.6,46.2-145.3,60.6
	c-136.9,39.1-277,58.5-419.1,63.8c-114.1,4.2-227.9-1.3-341.2-16c-102.8-13.3-204.1-33-301.2-70.4c-44.9-17.3-87.2-39.7-124.7-70
	c-34.8-28.2-57.2-62.6-60.5-109.5c-4.2-61.1-12.2-121.9-18.7-182.9c-14.1-133.3-28.8-266.6-42.2-399.9
	c-15.2-150.5-29-301.2-43.9-451.8c-2.3-23.1,2.4-43.7,15-62.7c17.3-26,39.9-46.3,66.6-62.3c51.5-30.8,108.1-48.9,165.9-62.8
	c92.2-22.1,185.5-38.3,279.9-47.9c141.2-14.4,282.6-22.2,424.6-18c8.4,0.3,16.9,0,27.7,0c3.7-18.6,6.8-34.8,9.9-50.1
	c-5.2-2.4-6.8-3.9-8.6-3.9c-8.6-0.3-17.2-0.4-25.8-0.2c-196.6,2.5-392.4-8-587.4-34.3c-174.2-23.5-344.6-61.9-509.7-123
	C799.7,1842,793.2,1840.9,785.2,1838.8z M2485.3,1074.1c24.9,9.5,48.1,17.9,70.9,27.2c33,13.4,64.4,29.8,89.4,55.9
	c30.7,32.1,33.7,72.6,5.6,106.1c-11.4,13.6-26.4,25.1-41.7,34.4c-17,10.3-35.8,18.3-54.6,25.2c-122.3,44.5-249.6,65.9-378.3,79.4
	c-153.6,16.2-307.7,20.7-462,16.7c-160-4.1-319.5-14.8-477-45.6c-73.4-14.3-146.2-31.6-214.5-62.6c-23.2-10.5-46-24.4-65.2-41.1
	c-31.8-27.5-36-67.2-10.5-100.5c12.9-16.9,30.9-31.7,49.5-42.3c58.9-33.5,124.1-50.2,189.8-63.6c154.3-31.6,310.7-45.3,467.8-51.8
	c163.8-6.8,327.5-4,490.9,10.6c9.3,0.8,18.7,0.1,30,0.1c4.2-19.9,8-38.2,12-57.4c-8.4-1.4-13-2.6-17.7-2.8
	c-97.6-4.3-195.2-10.1-292.8-12.5c-172.6-4.2-344.6,5.2-516,27c-124.6,15.8-247.9,37.6-368.6,73c-78.3,23-155.5,49.3-222.1,98.3
	c-19.8,14.5-37,33.1-53.2,51.8c-13.5,15.5-14.7,34.3-6.2,53.9c11.4,26.2,27.8,48.2,51,64.5c18.8,13.2,38.1,25.8,58.1,37.1
	c79.2,44.7,165.6,70,253.1,91.3c182,44.4,367.3,67,554.2,75.7c267.8,12.5,534.2,0.2,798.1-51c121.7-23.6,239.7-58.6,351.2-113.7
	c39-19.3,73.8-44.6,102.8-77.1c25.8-29,27.3-51,4.2-82.5c-11.7-16-25.6-31.6-41.6-43.2c-23.9-17.3-49.6-32.7-76.1-45.7
	c-71.6-35-147.3-59.1-224-80.2c-13.5-3.7-27-7.1-43.5-11.4C2493.4,1037.9,2489.5,1055.2,2485.3,1074.1z M2237.7,2129.7
	c-2.9,12.5-4.9,20.7-6.7,28.9c-11.3,51.4-22.6,102.8-34,154.3c-10.1,45.6-37.3,73.6-83.2,85c-42.3,10.5-85.2,15-128.2,11.2
	c-29.1-2.6-58.7-9.4-86.1-19.7c-37.8-14.3-45.3-32.6-37.3-72.1c1.7-8.4,3.9-16.8,5.9-25.1c12.9-53,26-105.9,38.7-159
	c2.3-9.8,3-20,4.9-32.5c-14.1-0.6-24.4-1.3-34.8-1.5c-163.1-2.9-325.5,5.5-487,28.5c-88.2,12.5-175.5,29.7-260,58.5
	c-41.1,14-79.9,32.4-113.3,60.7c-32.5,27.6-33.8,50.8-1.1,78.3c20.3,17,43.6,31.2,67.3,43.2c65.5,33.2,136.7,48.8,208,63.7
	c150.6,31.4,303.7,39.3,456.9,44.4c120.8,4,241.2-5,361.5-15.8c123.3-11.1,244.6-33.4,362.7-70.6c43-13.6,84.6-31.3,118.4-62.8
	c30.8-28.7,30.5-48.6,0-77.1c-5.6-5.2-11.4-10.6-18-14.2c-27.8-14.9-54.6-33.1-84.2-42.9c-60.7-20.1-122.8-36.2-184.7-52.7
	C2283.3,2135.1,2262.3,2133.6,2237.7,2129.7z M2159.5,1068.3c-9.9-2-15.3-3.8-20.9-4.1c-67.9-3.9-135.8-9.4-203.7-11.1
	c-196.5-5-392.7,1-587.7,27.9c-83.6,11.5-166.6,26.4-247,51.9c-35.2,11.2-69.5,27.3-101.6,45.9c-32.4,18.7-32,41.5-3.5,66.2
	c6.5,5.6,13.7,10.7,21.3,14.6c18.8,9.4,37.5,19.3,57.2,26.7c91.1,34,186.4,51.7,282.2,64.5c118.7,15.8,238.3,23.1,358,26.6
	c147.7,4.3,295-1,441.9-16.4c92.3-9.7,184.7-19.7,274.6-44.6c53.4-14.9,107.6-28.1,156.6-55.2c53.2-29.5,55.1-65.9,2.3-95
	c-34-18.8-72-30.3-108.3-44.8c-2.1-0.8-5.3,1.1-11.4,2.5c-6.2,29.7-14.6,60.1-18.5,91.2c-3.8,30.6-17.3,51.4-45.1,64.6
	c-39.6,18.9-81.8,26.8-124.9,29.9c-46.3,3.3-92-0.6-134.7-21.2c-30.7-14.8-36.8-26.6-28.6-59.1c11-43.6,23.1-86.9,34.7-130.4
	C2154.7,1089.6,2156.6,1080.4,2159.5,1068.3z M2026.7,2010.8c-8.5,7.6-10.8,8.7-11.2,10.2c-14.6,56.5-29.4,113-43,169.7
	c-1.7,7.1,1.4,17.5,6,23.5c27.6,36.7,56.3,72.7,84.6,108.8c8.8,11.2,19.1,18.9,34.5,14.5c14.4-4.1,17.5-15.6,20.4-28.3
	c8.7-37.3,17.6-74.5,27.9-111.3c4.3-15.6,1-26.6-9-39.1c-34.7-43.3-68-87.8-101.6-132C2031.8,2022.3,2029.8,2016.7,2026.7,2010.8z
	 M3010.8,367.7c-6.1-9.4-8.9-15.5-13.2-20.1c-34.8-36.8-69.4-73.8-105.2-109.5c-6.4-6.3-18.5-9.9-27.9-9.8
	c-56.4,0.6-112.7,2.5-169,4.3c-9.1,0.3-18.1,1.8-32.6,3.4c9,11.3,14.2,19,20.5,25.5c34,34.9,68.8,69,102.1,104.5
	c10.2,10.8,19.7,15.3,34.6,14.3c50.5-3.4,101.1-5.2,151.7-8C2983,371.7,2994.2,369.7,3010.8,367.7z M2399.6,475.7
	c-3.3,5.4-5.4,7.5-6,10c-15.4,57.3-31,114.6-45.3,172.2c-2,8,0.6,19.4,5.3,26.4c31,46.1,63,91.5,95.1,136.8c3.3,4.7,9,7.8,15.9,13.6
	c11.6-48.1,19.6-93.5,33.8-136.8c13.4-40.6,11.6-72.8-18.5-106.9C2449.8,556.9,2427.3,516.2,2399.6,475.7z M2403.2,1064.3
	c4.7-11,8.4-17.6,10.3-24.7c11.9-43.3,23.1-86.9,35.3-130.1c3.6-12.7-0.5-21.7-7.7-31.6c-33.2-45.7-65.9-91.8-98.5-137.8
	c-2.7-3.8-3.7-8.8-5.5-13.2c-6.7,6.5-9,7.6-9.4,9.1c-14.8,53.4-30,106.8-43.4,160.6c-1.9,7.4,3.2,18.4,8.3,25.4
	c22.4,31,45.9,61.3,69.3,91.6C2374.5,1029.7,2387.8,1045.4,2403.2,1064.3z M2267.6,958.8c-17.2,64.8-32.8,122.8-47.5,181
	c-1.6,6.5,0.2,15.8,4.1,21.3c18.2,25.7,37.6,50.6,56.9,75.5c3.3,4.3,8,8.7,13,10.4c27.7,9.2,72.8-15.9,79.6-44.2
	c5.4-22.3,8.9-45.1,15.3-67.1c4-13.7,1.1-23.2-7.6-34c-30.7-38-60.3-76.8-90.5-115.1C2284.5,978.4,2277.6,970.7,2267.6,958.8z
	 M2946.4,228.6c4.3,6.8,5.9,10.2,8.3,12.8c36.6,38.9,73.8,77.3,109.7,116.9c8.7,9.6,17.9,9.4,28.3,9.1c49.6-1.6,99.2-3.5,148.8-5.4
	c2.4-0.1,4.8-1.9,9.2-3.8c-3.4-4.7-5.7-8.6-8.6-11.8c-33.2-36.9-66.9-73.4-99.7-110.6c-11.1-12.6-23.3-17.5-40.1-16.4
	c-41,2.6-82,3.6-123,5.6C2969.2,225.4,2959.3,227.1,2946.4,228.6z M2520.9,579.6c2.2-0.5,4.4-1,6.6-1.6
	c6.9-26.5,14.5-52.9,20.1-79.7c1.2-5.8-3.1-14.6-7.6-19.6c-25.4-28.4-51.5-56.2-77.6-83.9c-21.4-22.7-32.8-20.3-46,7.4
	c-6.5,13.7-1.2,23.7,6,34.2c20.9,30.7,41.7,61.6,62.7,92.2C2496.7,545.8,2508.9,562.7,2520.9,579.6z M2157.1,2124.2
	c2.6-0.6,5.3-1.2,7.9-1.7c10.4-45.7,20.8-91.3,32.2-141.3c-47.4,4-90.4,7.6-139,11.7C2093.4,2040.3,2122.4,2084.3,2157.1,2124.2z
	 M2571.8,439.9c-0.2-25.9-45.4-128.6-66.4-154.7c-16.6,10.9-33.5,21.9-49.8,32.5c11.3,25.5,66,90.1,93.7,111.7
	C2554.8,433.6,2562.1,435.4,2571.8,439.9z M2544.8,256.1c20.5,44.3,39.5,85.4,58.6,126.6c1.6,3.4,2.9,7.3,5.5,9.9
	c2.3,2.3,6.1,3,9.6,4.6c5.7-21.7-7.8-129.5-19.5-155.7C2581.6,246.2,2563.8,251,2544.8,256.1z M1935,2344.2
	c33.9,9.7,64.3,6.2,96.7,6c-15.2-28.9-59.3-82.8-73.7-90.4C1950.5,2287.5,1943,2314.7,1935,2344.2z M3253.2,291.3
	c2.1-1.3,4.1-2.7,6.2-4c2.3-24,4.6-48.1,7.2-74.8c-28.6,2.5-53.7,4.7-78.8,6.9c-0.7,2-1.5,4.1-2.2,6.1
	C3208.2,247.4,3230.7,269.4,3253.2,291.3z M2730.7,384.3c1.1-2,2.2-4,3.3-6c-23.2-24.8-46.4-49.7-69.5-74.5
	c-1.9,1.1-3.8,2.2-5.8,3.2c3.1,26.8,6.3,53.6,9.7,82.6C2691.5,387.6,2711.1,386,2730.7,384.3z M3311.4,232.8
	c-9.4,37.7-7,87.9,4.3,107C3334.7,313.3,3333.5,260.5,3311.4,232.8z M2207.2,1204c-12,17.8-19.9,31.5-10.8,44.4
	c8.7,12.3,23.6,11.4,42.1,5.3C2227.8,1236.9,2218.7,1222.4,2207.2,1204z"/>
<path d="M1392.9,3041.8c-67.1,0-116.9-50.9-116.8-119.3c0.2-71.2,53.1-123.9,123.5-123.2c65.7,0.7,119.9,55.9,119.7,121.9
	C1519.2,2990.5,1465.3,3041.8,1392.9,3041.8z"/>
<path d="M2065.2,2921.7c0.1-68.3,54.2-122.9,121.3-122.4c65.2,0.4,120.1,54.5,119.7,117.9c-0.4,72.2-51.8,124.2-122.3,123.7
	C2120.1,3040.6,2065.1,2985.4,2065.2,2921.7z"/>
<path d="M1249.9,3203.4c-30.9,1.7-62.7-4-91.1-22.1c-10.3-6.6-20.5-14.5-28.2-23.9c-19.1-23.3-18.9-51.1,2-72.9
	c11.6-12.1,26-24,41.4-29.6c61.1-22.1,122-21.2,179.9,11.5c50,28.2,51.3,81.1,3,112.2C1325,3199.2,1289.1,3203.7,1249.9,3203.4z
	 M1263.7,3167.4c12.5-3.1,35.8-7.8,58.5-14.8c14.6-4.5,30.6-11.7,31-29.7c0.4-18.1-16.3-25.6-30-31.2
	c-49.3-20.3-99.1-19.9-147.2,3.7c-29.3,14.4-29.5,37.2-0.9,53C1198.9,3161.6,1225.1,3167.2,1263.7,3167.4z"/>
<path d="M2330,3208.5c-26.7-6.3-53.8-11.4-80-19.5c-11.4-3.5-22-11.8-31.1-20c-28.1-25.5-28-62.2-0.4-88.1
	c24-22.5,53.8-33.2,85.4-37.4c41.4-5.5,82.3-1,120.3,17.6c12.6,6.2,24.5,15.1,34.3,25.1c23,23.5,22.5,52-0.4,76.4
	c-22.7,24.2-52.4,34.4-84.3,38.7c-14.2,1.9-28.6,2.2-42.9,3.3C2330.6,3205.9,2330.3,3207.2,2330,3208.5z M2440.2,3127.2
	c-9.7-24.1-25.7-33.1-42.7-39.6c-44.1-16.8-88.1-14.5-131.3,4.1c-14.3,6.2-30.3,13.8-30.9,30.7c-0.7,19.1,17,26.3,32,32.6
	c48.9,20.5,97.5,16,144.9-4.8C2422.7,3145.6,2430.7,3135.1,2440.2,3127.2z"/>
<path d="M1796.5,3105.9c-66.6,0.4-116.7-35.3-135.9-97.5c-3-9.8-4.3-20.6-3.9-30.9c0.4-11.8,8.4-19,20-21.1
	c13.1-2.3,19.3,6,22.7,16.9c2.5,8.2,4.1,16.7,6.2,25c7.2,28.4,25.7,46.6,53,55.2c37.1,11.7,72.7,6.6,102.2-18.8
	c11.4-9.8,17-26.7,24.2-40.8c3-5.8,3.1-12.9,4.9-19.4c3-10.5,6.8-20.2,21-18.3c13.9,1.8,22.4,9.8,22.5,24.8
	c0.2,29.8-10.5,56.2-30,78.5C1877.1,3089.6,1839,3105.7,1796.5,3105.9z"/>
</svg>
