<?xml version="1.0" encoding="utf-8"?>
<!-- Generator: Adobe Illustrator 24.3.0, SVG Export Plug-In . SVG Version: 6.00 Build 0)  -->
<svg version="1.1" id="Layer_1" xmlns="http://www.w3.org/2000/svg" xmlns:xlink="http://www.w3.org/1999/xlink" x="0px" y="0px"
	 viewBox="0 0 4000 4000" style="enable-background:new 0 0 4000 4000;" xml:space="preserve">
<path d="M2175.5,1263.2c8.4-8.3,15.9-14.9,22.6-22.2c200.7-217.9,401.4-435.9,602.1-653.8c46.5-50.4,92.9-100.9,140.1-150.6
	c9.6-10.1,10.4-18.7,7.3-31.6c-17-71.4-7.1-138.8,39.9-196.6c52.2-64.2,121-87.5,201.8-69.9c102.8,22.4,164,88.1,184.6,189.7
	c20.1,99.2-47.7,203.2-148.4,233.2c-29.5,8.8-59.5,13.3-90.2,6.9c-15.4-3.2-26.5,1.4-37.8,13.6
	c-227.3,247.5-455.2,494.6-682.8,741.8c-24.6,26.7-48.6,54-74.4,82.8c11.2,12.8,21.3,24.9,32.1,36.4c22.1,23.7,36.8,51.2,38.5,83.6
	c2.1,41.1-4.3,80.9-26.1,117.1c-8,13.2-19.7,20-34,24.6c-17.9,5.8-20.2,11.7-12.4,28c4,8.3,9.7,15.8,14.6,23.8
	c17.3,28.2,26.4,57.8,22.2,91.7c-6.3,50.4-10.2,101-15.9,151.4c-9.5,85.1-42.8,161.5-88.3,233c-25.4,40-52.2,79.1-79.1,118.1
	c-71.1,103.2-110,218.4-129,341.3c-26.2,169.2-18.1,337.6,12.5,505.3c14.2,78.2,30.6,156.1,45.1,234.3c9.4,51,13.7,102.3,3.3,153.9
	c-11.2,55.5-37,101.5-85.3,132.9c-76,49.4-186.1,30.4-241.5-53.6c-34.5-52.3-44.4-110.8-41.5-172.3c2.8-59.9,20.1-116.5,38.7-172.8
	c19.1-57.8,40.6-114.8,58.8-172.9c30.3-97,43.1-196.7,35.5-298.2c-4.5-60-12.7-119.8-35.8-175.9c-9.2-22.3-21.6-44.7-37.8-62.3
	c-38.7-42.2-101.3-34.8-132.6,13.4c-13.8,21.2-19.2,45-20.4,69.9c-1.9,37.2-1.9,74.5-5.5,111.5c-1.9,19.9-7.7,39.9-14.8,58.7
	c-16.5,43.5-50,64.8-95.8,66.3c-45.9,1.5-77-22.3-96.7-61.6c-19.7-39.4-19.3-81.7-14.3-124.3c4.6-39.5,10.8-78.8,12.9-118.4
	c3.3-62.6-19.4-116-64.8-159.5c-24.4-23.4-49.4-46.3-73.8-69.8c-49-47.2-87.3-100.8-101.8-169.2c-7.5-35.5-6.7-70.6-1.2-105.9
	c8.2-52.6,17.2-105.2,24.8-157.9c9.9-68.3,31.9-133.1,56.3-197.2c9.3-24.5,18.7-49,26.1-74.2c26.8-91.1,80.9-164.9,146.1-231.6
	c82.2-84.1,185.4-128.7,297.5-155.1c41.8-9.9,84.7-15.5,127.3-21.6c24.5-3.5,47.2-8.6,68.9-22.5c54.9-35.1,129.2-43.5,189.7,12.5
	C2152,1245.7,2162.5,1252.9,2175.5,1263.2z M1978.9,2291.6c9.9-16.8-1.7-27.4-11.8-37.3c-22.4-21.8-45.8-42.7-68.8-63.9
	c-55.4-51-110.5-102.2-166.3-152.7c-95.9-86.8-192.3-173.1-288.4-259.7c-19.3-17.4-38.1-35.5-56.9-52.9
	c-21.1,14.4-21.7,17.9-6.7,32.7c5.4,5.3,11.2,10.3,16.8,15.4c182.7,166,365.4,332.2,548.4,497.9c9.6,8.7,22.5,13.6,33.9,20.2
	c10.4,31.9,7.6,46.9-13,63.5c-7.2,5.8-15.4,10.5-23.8,14.5c-32.5,15.6-67.5,23.6-102.9,25.3c-35.9,1.8-68.1-9.6-90-41.9
	c-8.4-12.4-19.3-23.6-30.4-33.8c-51.8-47.5-104.4-94-156-141.6c-79-72.9-157.3-146.4-236-219.6c-3.3-3.1-7.6-5.1-11.6-7.8
	c-11.3,25-11.4,26.9,6.2,43.2c25.4,23.6,51.5,46.5,77.3,69.7c107.1,96.1,214.1,192.3,321.3,288.2c6.2,5.5,13.5,10.3,21.1,13.5
	c11.8,5,13.8,13.4,12,24.6c-2.9,18.2-14.4,30.3-28.8,40c-26.6,17.9-56.8,25.3-88.1,29.7c-26.3,3.8-51.1,0.1-73.1-14.3
	c-21.8-14.4-43.1-29.9-63-46.8c-38.8-32.8-76.9-66.4-114.5-100.5c-49.5-44.8-102-86.8-140.6-142.4c-1.6-2.3-4.9-3.4-10.6-7.3
	c1.3,13.6,1.4,23.7,3.3,33.4c8,39.8,25,75.7,51.5,106.2c22.1,25.5,46.3,49.3,69.9,73.5c19.4,20,40,39,58.8,59.6
	c32.8,36,54.3,78.3,58.6,126.9c2.9,32.6,0.7,65.9-1.5,98.7c-1.7,26.9-7.3,53.6-10.1,80.5c-3.2,29.9-0.8,59.4,11.8,87
	c12,26.3,31.4,44,61.9,45.2c31.7,1.3,57.4-11.4,70.5-40.2c8.8-19.5,13.4-41.8,15.5-63.3c2.6-26.8-1.4-54.3,1.3-81.1
	c2.7-27.5,6.9-55.7,16.1-81.6c15.7-44.5,47.2-74.1,96-79.8c49.1-5.7,87.2,14.4,115.8,53.8c19.7,27.2,31.4,58,40.4,89.8
	c38.7,137.7,39,276,2.3,413.7c-17,63.6-39.6,125.8-60.8,188.3c-20.2,59.4-38.8,119.2-45.4,181.8c-6.5,61.2,0.9,120.2,36.9,172.4
	c64.7,93.8,193.6,73.6,242.4-10.3c25.3-43.6,32.1-91.4,25.3-139.9c-9.5-67.8-21.5-135.3-35.5-202.3
	c-27.6-132.1-46.8-265.1-46.3-400.1c0.2-58.2,7.2-116.5,13.8-174.4c14.5-127.6,51.3-248.2,119.2-358.1
	c20.4-33.1,43.9-64.3,64.5-97.3c25-40.1,48.5-81.2,72.4-122c2.7-4.7,3.4-10.6,5.1-15.9c-12.2,13.9-20.6,30.2-33,42.3
	c-12.7,12.4-29.3,20.7-45.5,31.6c12.3,20.9,3.5,38-13.3,52.2c-28.3,24-56.9,47.7-85.9,70.8c-32.9,26.2-67.7,28.2-103.4,5.4
	C1998.2,2289,1989,2285.2,1978.9,2291.6z M2971.2,452.2c-257.6,279.6-511.8,555.5-766.8,832.3c36.9,32.9,72,64.2,107.6,96
	c3.5-2,6.9-3,9-5.3c249.8-271.3,499.6-542.8,749.2-814.3c2.1-2.3,3.1-5.6,6-11.1C3035.2,526.1,3001.3,495,2971.2,452.2z
	 M1606.8,1388.3c-3.9,0.5-7.4,0.4-10.6,1.4c-43.3,13.5-77.1,41.3-108.2,72.7c-6.1,6.2-5.5,14.1,0.6,20.5
	c8.7,9.2,17.4,18.5,26.8,26.9c34.8,30.9,70.2,61.1,104.7,92.2c12.9,11.7,24.9,19.8,44.2,19.4c28.4-0.5,51.4,20.4,52.3,45.3
	c0.5,15.4,6.5,25.3,17.4,34.4c11,9.2,21.4,19.3,31.9,29c64.8,59.5,130,118.6,194,178.9c15.5,14.6,29.9,24.6,52.6,24.5
	c32.2-0.2,51.7,19.4,53.9,51.8c1,14,6.5,23.5,16.3,32.5c34.3,31.5,68.1,63.4,102.1,95.2c18.1,16.9,24.8,17.1,41.8-0.9
	c23-24.5,36.4-54.6,49.4-85.1c10.7-24.9,7.6-44.6-13.8-63.2c-49.9-43.2-98.6-87.7-147.7-131.8c-142.9-128.3-285.8-256.5-428.6-384.9
	c-14.5-13-27.8-27.2-42.3-40.2C1633.2,1397.4,1622.2,1387.6,1606.8,1388.3z M1453.5,1502.5c-4.4,1.9-7.3,2.3-8.9,4
	c-35.1,33.8-63.1,72.6-81.5,117.9c-5.8,14.2-2.5,26.7,8.1,37.1c14.5,14.2,29.3,28,44.2,41.8c78.8,72.9,157.3,146.2,236.7,218.6
	c102.5,93.4,205.7,186.1,308.7,278.9c25.1,22.6,50.7,44.7,76.1,67.1c10.7,9.4,21.3,11.1,34.5,3.7c37.9-21.1,73.7-44.9,102.3-78.1
	c15.9-18.5,16.7-22.7-0.7-40.3c-33.3-33.6-67.8-66.1-101.4-99.4c-12-11.8-22.5-16.2-39.8-7c-22.8,12.2-50.4,6.1-65.2-11
	c-22.3-25.8-24.9-45.9-11.6-69.4c2.3-4.1,3.1-9.1,3.9-11.5c-85.3-77.6-169-153.7-252.8-230c-9.9,4.6-18,9-26.7,12.1
	c-30.5,11.1-60.9-2.6-69-32.2c-3-10.9-4-23.9-1.1-34.6c4.4-16.4-0.1-26.6-12.2-37.5c-36.9-33.5-72.6-68.5-109.2-102.4
	C1476.8,1520.2,1464.5,1511.4,1453.5,1502.5z M2974.7,346.8c0.2,2.8,0.3,9.6,1.1,16.3c0.8,6.7,1.8,13.4,3.4,20
	c14.7,61,55.8,100.8,107.6,131.4c37.4,22.1,77.5,26.9,119.8,16.3c109.2-27.3,166.3-141.2,119.9-242c-29.6-64.1-80-104.7-149.5-117.3
	C3066.8,151.5,2976.1,229.5,2974.7,346.8z M1318.1,1754.5c-15.3,31.9-21.4,60-21.1,88.7c0.2,31,8.7,58.3,35.7,79.9
	c37,29.5,70.1,63.7,105.4,95.4c57.9,52,116.8,102.9,174.3,155.5c61.2,56,121.4,113,181.5,170.2c13.4,12.7,28.1,19.9,45.7,16.1
	c30.4-6.6,60.6-14.7,90.5-23.2c6.6-1.9,11.9-8.1,20.9-14.5c-16.2-15.5-29.7-29.1-44-42c-105.2-94.4-210.8-188.3-315.8-283
	c-81.1-73.1-161.3-147.1-242.2-220.5C1340.5,1769.6,1330.5,1763.6,1318.1,1754.5z M2336,1788.9c0.7-18.7-4.7-35.3-17-49.3
	c-10-11.4-20.3-22.8-31.5-33c-54.5-49.4-109.4-98.3-164.2-147.4c-83.8-75-168.2-149.3-251.1-225.3c-43.9-40.2-84.9-33.4-141.1-10.5
	c-13.5,5.5-14.6,15-6.1,26.4c3,4,6.8,7.5,10.5,11c64.2,58.9,128.2,117.9,192.6,176.4c93.2,84.7,186.8,169,280.2,253.6
	c27.6,25,54.9,50.3,82.4,75.2c11.1,10,19.3,10.2,27.2-2c6.3-9.7,10.8-21.1,13.3-32.4C2334.3,1817.7,2334.5,1803.2,2336,1788.9z
	 M1950.1,1271.7c5.8,6.6,10.3,12.7,15.8,17.7c62.6,56.9,125.8,113.2,188.1,170.5c59.7,55,118.6,110.9,177.7,166.6
	c10.6,10,15.5,10.5,24.6-0.7c3.2-3.9,5.7-8.4,7.7-13c22.3-51.9,24.8-109.2-23.4-157.1c-8.4-8.3-16.7-16.8-25.5-24.7
	c-36.5-32.8-72.7-65.9-109.8-98.1c-31.9-27.7-63.7-55.8-97.7-80.9C2063.3,1219.2,1991.1,1228.5,1950.1,1271.7z M1286.8,2009.4
	c-16.6,6.2-18.3,16.8-19.8,26.7c-7.9,52-1.1,99.7,40.9,136.9c5.1,4.5,9.4,9.8,14.4,14.3c76,68.6,151.8,137.4,228.2,205.6
	c10.6,9.5,22.9,18.1,35.9,23.6c12.7,5.4,27.9,10.3,41.1,8.6c22.3-2.9,44.1-10.8,65.7-17.5c6.6-2.1,12.3-7.4,22-13.5
	C1571.6,2262.6,1430.7,2133.9,1286.8,2009.4z M2272.4,1924.9c9.1-13.5,5-23.2-2.7-31.9c-5.6-6.3-11.7-12.2-18-17.9
	c-75.9-68.7-152-137.2-227.8-206c-97.1-88.1-194-176.5-291-264.8c-8.1-7.4-16.1-15.2-25.1-21.4c-12.8-9-18.1-7.3-31.3,7.9
	c9.4,9.4,18.4,19.4,28.4,28.4c63.4,57.3,126.9,114.5,190.4,171.7c120.2,108.1,240.3,216.2,360.6,324.1
	C2260.6,1919,2266.7,1921.4,2272.4,1924.9z M2291.7,1660.8c1.8-1.4,3.6-2.9,5.5-4.3c-5.3-9-9.3-18.9-16-26.7
	c-15-17.2-30.4-34.1-47.1-49.6c-55.8-51.8-112.3-102.8-168.4-154.2c-44.9-41.1-90.1-81.9-134.1-124c-20.1-19.2-22-21.1-51.2-9
	C2018.3,1415.9,2153.1,1540.5,2291.7,1660.8z M2333.5,1912.2c-23,3.8-29.7,8.2-33.1,22.3c-5.1,21.3,12.7,32,23.3,50.5
	C2332.4,1959.3,2336.8,1937.4,2333.5,1912.2z M1261.4,1969.6c8.3-5.3,16.2-7.6,17.3-11.6c4.6-16.9,2.6-33.5-9-48.4
	C1262.4,1927.5,1260.4,1945.5,1261.4,1969.6z M1337.3,1685.2c-4.6,15-8.3,27-12,39.2c19.2,5,30.3,1.6,33.4-10.1
	C1362.6,1699.1,1349.3,1695.2,1337.3,1685.2z M1627.3,1348.4c0.8,2.2,1.5,4.3,2.3,6.5c14.9,0.7,30.2,2.2,42.5-9c3.3-3,4-9,8.2-19.2
	C1658.6,1335.6,1643,1342,1627.3,1348.4z"/>
<path d="M2849.3,1870c19.1-1.3,35-3.4,50.9-3.3c88.2,0.5,118.5,87.1,82.4,147.6c-14.2,23.7-33.6,42.1-57.2,56.3
	c-48.3,29-101.8,40.2-156.7,45.9c-18.4,1.9-37.1,1.4-55.7,1.7c-10.8,0.2-20-3.3-25.1-13.8c-36.2-74.9-62.5-152-46.2-236.8
	c3.4-17.9,10.9-35.7,19.6-51.8c20.2-37.1,57.2-55.6,97.5-49.2c43.7,6.9,70.1,34.5,83.6,75.4
	C2845.2,1850.7,2846.8,1859.8,2849.3,1870z M2814.5,1929c-2.2-1.5-4.3-3-6.5-4.5c1.2-12.3,2.2-24.6,3.6-36.9
	c2.6-21.7-1.1-42.1-12.7-60.8c-19.1-30.7-55.3-38.7-86-19.4c-25.1,15.8-35.3,41.1-39.5,68.1c-10.9,70,5.8,135.9,33.8,199.7
	c3.8,8.7,9.9,13.3,19.7,12.7c59.4-3.8,117.7-12.9,171.4-40.5c25.1-12.9,47.1-29.8,59.8-56.4c21-44.2-8.7-92.6-57.6-93.7
	c-19.3-0.4-36.3,6.2-52.8,15.4C2837,1918.6,2825.6,1923.6,2814.5,1929z"/>
<path d="M746.5,1657.4c7.4-18.8,12.7-36.7,21.3-52.8c18.6-34.5,47.1-54.3,87.9-53.8c38.8,0.5,66.2,20.5,83.2,52.9
	c10.4,19.7,17.9,42.4,20.4,64.5c8.6,75.2-11.2,145.7-41.3,213.9c-5.2,11.8-13.5,19.7-26.8,19.9c-80.2,1.3-159.4-3.4-229.7-47.8
	c-17.4-11-33.5-26.4-45.4-43.2c-46.9-66.3-6.4-150.3,74.6-156C709,1653.5,727.6,1656.4,746.5,1657.4z M930.2,1706.2
	c0.7-32-5.3-62.6-21.8-90.2c-13.4-22.5-33.2-36.8-60.8-33.4c-26.6,3.3-46.4,18.3-54.1,43.8c-5.5,18.1-5.1,38-7.5,57
	c-1.2,9.6,0.6,22.4-4.8,28c-8.5,8.7-18.6-1.3-26.7-6.8c-20.6-13.9-42.9-19.6-67.5-16.3c-49.6,6.6-73.5,51.9-49.3,95.7
	c7.2,13,17.4,25.9,29.6,34.1c20.2,13.5,42,25.9,64.8,33.7c42.6,14.5,87.4,18.7,132.5,20.4c17,0.6,26.9-5.2,33.2-20.7
	C916.5,1804.7,929.5,1756.8,930.2,1706.2z"/>
<path d="M1831.9,3480.4c5.6-30.6,10.7-61.3,17.3-91.7c1.4-6.4,7.2-14.3,12.9-16.7c12.6-5.2,24.1,7.6,19.4,21.9
	c-10.9,33.4-14.9,67.4-13.1,102.3c1.2,24.1,7.6,46.3,20.4,67c10.4,16.7,24.5,27.5,43.7,31.6c2.5,0.5,5,0.7,7.4,1.5
	c9,2.8,18.7,5.3,16.9,18c-1.5,10.5-12,17-25.3,14.9c-30.4-4.8-52.3-22.5-68.6-47.5C1842.9,3551.1,1833.6,3517.4,1831.9,3480.4z"/>
<path d="M1492.2,2727.1c2.2-15.8,4.1-31.7,6.7-47.4c1.7-10.3,7.8-17.1,19-16c12.9,1.3,13.1,11,12.1,20.8
	c-1.3,13.4-3.6,26.8-4.2,40.2c-1.1,25.6,4.1,48.8,28.3,63.3c6.7,4,14.8,9.5,9.3,17.6c-4,5.9-12.5,10.7-19.8,12.1
	c-11.9,2.3-20.6-5.7-27.6-14.6C1498.5,2780.8,1492.1,2755.2,1492.2,2727.1z"/>
<path d="M1534,1496.4c-18.4-19.5-19.9-25.4-3.1-40.4c17.5-15.5,37.6-28.2,56.9-41.5c4.7-3.2,10.8-4.9,16.5-6.1
	c10.5-2.4,18.5,2.6,22.5,11.8c4.5,10.2-3,15.2-10.8,19.6c-18.3,10.4-36.9,20.2-54.3,31.8C1551.6,1478.4,1543.2,1488.1,1534,1496.4z"
	/>
<path d="M1796.9,1978.6c-60.7-0.5-103.5-57.4-88.2-113.1c3.7-13.6,10.9-26.6,18.6-38.5c3.6-5.5,11.8-10,18.6-11.2
	c15.3-2.7,22.2,7.4,15.3,21.5c-3.7,7.6-9.3,14.2-13.2,21.7c-13.5,26.1-11.2,49,6.3,68.1c16.4,17.9,45.7,23.4,70.3,11.9
	c10.6-5,19.8-13,30.4-18.2c4.5-2.3,12.7-3.3,15.8-0.7c3.6,2.9,6.3,12,4.4,15.6c-5,9.2-11.4,18.9-19.9,24.8
	C1836.9,1973.2,1815.3,1978.2,1796.9,1978.6z"/>
<path d="M1544.4,1744.4c-34.1-0.7-63.9-28.5-65.9-61.6c-1.4-22.8,11.2-41.2,32.9-48.1c28.9-9.2,66.1,6.5,80.1,33.7
	C1610.2,1705,1585.2,1745.2,1544.4,1744.4z M1559.2,1689.3c0.1-14.5-9.1-24.5-22.8-24.8c-13-0.2-24.5,7.9-24.1,17
	c0.5,11.2,20,29.9,30.8,29.6C1552.8,1710.9,1559.2,1702.2,1559.2,1689.3z"/>
<path d="M2073.8,2126.8c-0.7,35.7-36.7,58.7-71.2,42.8c-15.4-7.1-29.6-19.9-40.2-33.3c-15.6-19.8-10-44.6,9.6-60.5
	c19.2-15.5,51-16,70.7-1.2C2065.2,2091.4,2074.2,2106.6,2073.8,2126.8z M2036.9,2126.9c-0.5-11.7-12.5-26.4-22.6-29.1
	c-9.7-2.5-22.4,3-25.5,11.2c-3.3,8.6,6.6,23.1,19.5,28.8c10.6,4.7,23.2,2.5,27.2-5C2036.5,2130.7,2036.6,2128.1,2036.9,2126.9z"/>
<path d="M1470.8,1561.3c-28,23.6-42.1,53.6-52.4,86.1c-1.4,4.6-7.6,10.4-11.7,10.5c-4.3,0.1-11-5.2-12.7-9.7
	c-2.6-7.2-5.2-17.4-2.1-23.3c12.5-23.6,25.8-47,41.4-68.6C1443.9,1541.6,1451.4,1543.4,1470.8,1561.3z"/>
<path d="M3187.7,229.9c-8.4,0-17.5,0.6-26.5-0.1c-57.4-4.8-91.8,25.4-114,74.3c-3.1,6.9-5.8,14-8.2,21.2
	c-2.8,8.1-7.1,13.5-16.6,11.3c-10-2.4-15.9-10.6-12.9-20.8c3.3-11.3,7.6-22.4,12.9-32.9c19.7-38.9,46.5-70.9,90.4-82.9
	c16.8-4.6,34.8-7.2,52.2-7.1C3189.5,193.1,3194,201.3,3187.7,229.9z"/>
<path d="M1353.1,1797.4c-1.2,27.3-1.8,53.2-4,79c-0.5,5.4-6.3,13.6-10.8,14.5c-4.5,0.9-13.1-4.6-15.4-9.5
	c-12.6-26-9.4-52.5,1.5-78.1C1328.9,1792.7,1339.1,1794.2,1353.1,1797.4z"/>
<path d="M1855.6,1348.4c-26.6,8.3-50.5,14.9-75.4,16.2c-5,0.3-13.3-4.8-14.9-9.3c-1.7-4.8,0.8-13.5,4.6-17.5
	C1789.4,1317.3,1831.9,1321.2,1855.6,1348.4z"/>
</svg>
