<?xml version="1.0" encoding="utf-8"?>
<!-- Generator: Adobe Illustrator 24.3.0, SVG Export Plug-In . SVG Version: 6.00 Build 0)  -->
<svg version="1.1" id="Layer_1" xmlns="http://www.w3.org/2000/svg" xmlns:xlink="http://www.w3.org/1999/xlink" x="0px" y="0px"
	 viewBox="0 0 4000 4000" style="enable-background:new 0 0 4000 4000;" xml:space="preserve">
<path d="M3152.1,1937.6c-1.6,193.3-29.3,382.2-91.5,565c-75.1,220.6-205.4,403.5-389.7,546.1c-65.8,50.9-134.5,98.5-204.8,142.8
	c-90.4,56.9-163.3,128.9-215.5,222.2c-12.5,22.4-28.4,43.2-44.2,63.6c-113.6,146.1-320.8,128.2-426.9,20.3
	c-33.9-34.5-59.7-74.8-84.9-115.4c-45.2-72.9-104.4-131.6-175.6-179c-86.8-57.9-174.5-114.5-254.8-181.6
	c-140.4-117.5-248.2-259.5-323.3-426.5c-57.5-127.8-89.2-262.5-106.6-400.8c-15.1-120-19.7-240.4-11.3-361.2
	c18.1-257.9,81.2-502,222.8-721.7c70.1-108.7,155.7-203.9,256.7-284.6c61.3-49,123.8-96.6,186.8-143.4
	c56.8-42.2,104.7-92.4,143-151.7c25.9-40.2,49.9-81.7,76.3-121.6c40-60.3,90.3-109.2,160.8-132.8c138.3-46.5,283.5-3.6,367.4,109.7
	c21,28.4,41.1,57.9,58.2,88.7c51.4,92.5,123.3,165,210.2,223.9c72.9,49.4,145.4,99.3,211.6,157.8c117.8,104.1,209.9,227.4,279,368.3
	c79.3,161.7,126,332.5,142.8,511.5C3145,1803.8,3147.8,1870.7,3152.1,1937.6z M3055.7,1937.7c-2.6-49.7-4.5-99.4-8.1-149.1
	c-11.7-160.8-48.2-315.9-110.8-464.4c-62.6-148.7-153.9-277.3-274.4-385.1c-70.2-62.7-147.7-115.6-223.6-170.8
	c-76.5-55.7-144.3-119.6-195.1-200.5c-25.9-41.3-51.2-83.4-80.8-122c-47.7-62.4-112.8-95.4-191.6-91.7
	c-76.4,3.7-136.8,40.1-178.9,104.6c-17.8,27.2-34.4,55.2-51,83.2c-45.4,76.4-99.5,145.4-170.4,199.9
	c-59.9,46.2-120.3,91.8-180.6,137.4c-134.3,101.5-240.7,226.9-318.9,375.9c-75.2,143.2-115.9,297.2-140.5,456.2
	c-16.2,104.6-18.8,209.8-15.6,315.2c4.8,157,29.1,310.5,83.9,458.4c69.4,187.5,182.2,344,336.6,470.9
	c64.5,53,133.7,99.4,204.1,143.7c86.1,54.2,161.9,118.8,217.3,205.4c19.1,29.8,38.4,59.6,59.2,88.2c25.1,34.4,55.3,63.7,95.8,79.9
	c78.3,31.2,161.5,10.6,217.9-56.4c22.7-27,41.8-57.1,60.7-87c33-52,67.7-102.7,116-141.6c34.2-27.5,70.4-52.9,107.1-77
	c72.8-47.8,146.8-93.8,214.5-149.1c172.5-141,290.7-318.5,356.3-531C3034.5,2270.2,3053.5,2105.3,3055.7,1937.7z"/>
<path d="M1599.8,981.5c0.8,14.8-5.9,26.1-17.6,34.1c-11.8,8.1-24.4,15-36.5,22.7c-139.7,89.5-239.9,212.4-304.8,364.1
	c-19.5,45.6-33.3,93.6-49.7,140.5c-2.8,8.1-4.8,16.6-8.6,24.3c-10.4,21-30.3,28.9-52.8,21.9c-20.6-6.4-32.2-23.8-25.6-47.4
	c13.7-48.7,27.8-97.5,46.1-144.6c51.8-133,127.9-250.1,234.8-345.9c46.5-41.7,96.5-78.3,151.9-107.4
	C1572.8,925,1600.3,956.2,1599.8,981.5z"/>
<path d="M1604.7,2131c-54.1,0.2-96.6-41-95.7-92.9c0.9-54.2,43.3-98.6,94.8-99.3c55-0.7,97,41.8,97.1,98.3
	C1700.9,2094.2,1663.4,2130.8,1604.7,2131z"/>
<path d="M2360.2,2135.5c-54.2,0.5-95.9-40.8-96.5-95.5c-0.6-54.2,40.7-96.6,94.9-97.4c52.7-0.8,95.5,42,96.4,96.4
	C2455.9,2094.4,2416,2135.1,2360.2,2135.5z"/>
<path d="M1753.3,619.1c1.5-4.4,3-13.1,7-20.4c35.3-65.8,80.7-122.8,145-162.6c13.5-8.4,29.2-14.3,44.6-18.4
	c17.7-4.7,30.8,3.6,36.4,19.4c5.6,15.8,0.4,28.6-16.3,37.9c-10.8,6-22.4,10.7-33.2,16.6c-38.1,20.9-64.4,53.1-86.4,89.6
	c-12.3,20.4-23.9,41.3-37.1,61.2c-8,12-19.8,17.5-34.9,12C1763.3,648.8,1753.3,636.7,1753.3,619.1z"/>
<path d="M2491.7,2169.9c27.2-1.4,53.2,3.3,77,17.1c19.3,11.2,33.1,26.6,32.5,50.1c-0.6,24.3-14,41.4-35.7,51
	c-49.5,21.9-99.8,22.5-150,2.2c-9.4-3.8-18.6-10.2-25.6-17.6c-24.7-25.8-20.4-60.6,8.5-81.5c21.1-15.3,45.9-17.8,70.4-21.2
	C2476.3,2169,2484.1,2169.9,2491.7,2169.9z M2555.5,2239.2c0.3-15.6-10.5-21.1-23.1-24.4c-30.4-8-60.7-6.4-90.2,3.3
	c-8.8,2.9-15.9,10.8-24,16.6C2446.5,2268.3,2521.3,2269.1,2555.5,2239.2z"/>
<path d="M1483.9,2165.5c23.3,5.5,47.9,9.3,71,17.4c24.4,8.5,39.3,27.2,38.8,54.5c-0.5,26.2-16.2,42-39.1,51.3
	c-44.1,17.9-89.1,19.6-134.7,6c-3.6-1.1-7.1-2.8-10.6-4.3c-27.1-12.3-44.2-35.5-41.5-59.5c3.1-28,21.5-44.7,47-52.1
	C1436.5,2172.5,1459.4,2170,1483.9,2165.5z M1410.5,2233.2c27.3,35.8,108.1,36.1,139.2,1c-13.1-23.3-36-25-58.9-25.4
	C1461.6,2208.3,1431.9,2207.2,1410.5,2233.2z"/>
<path d="M1983.6,2233.6c-63.8,0.1-113.3-32.2-130.5-83.6c-2.1-6.3-3.9-12.9-4.9-19.5c-1.7-11.8-1.6-23.5,11.5-29.4
	c11.7-5.3,26.2,0,34.7,12.7c4.3,6.3,7.8,13.2,10.9,20.2c14.1,30.9,39.6,42.4,71.8,42.7c32.4,0.3,57-13.8,74.3-40.8
	c4.1-6.4,6.5-13.9,10.4-20.4c9.1-15.4,20.9-19.9,35.9-14.6c14.6,5.2,20,16.5,16.4,35c-8.9,46.5-60.5,90.6-113.3,96.7
	C1994.4,2233.4,1987.7,2233.4,1983.6,2233.6z"/>
<path d="M1148.4,1726.5c-1.4,10.5-2.2,22.9-4.9,34.9c-5.4,23.8-25.6,37-48.8,33c-21.4-3.7-35.8-22.5-33.5-45.8
	c1.4-14.1,4.1-28.3,8.7-41.6c8.3-24,24.6-33.2,45.5-28.3C1138.1,1683.8,1149.6,1699.9,1148.4,1726.5z"/>
<path d="M1688.6,740.6c-0.2-21.5,23.7-52.1,41.2-52.7c17.1-0.7,33.8,15,34,32c0.3,24.3-23.8,52.7-44.3,52.2
	C1703.1,771.7,1688.8,757.1,1688.6,740.6z"/>
</svg>
