<?xml version="1.0" encoding="utf-8"?>
<!-- Generator: Adobe Illustrator 24.3.0, SVG Export Plug-In . SVG Version: 6.00 Build 0)  -->
<svg version="1.1" id="Layer_1" xmlns="http://www.w3.org/2000/svg" xmlns:xlink="http://www.w3.org/1999/xlink" x="0px" y="0px"
	 viewBox="0 0 4000 4000" style="enable-background:new 0 0 4000 4000;" xml:space="preserve">
<path d="M1321.4,1131.1c-47.6-2-89.9-3.7-132.1-5.5c-104.4-4.3-207.3-19.3-309-43c-59.4-13.8-70.7-33.4-47.8-90.8
	c61.8-154.8,134.9-303.5,245.2-430.5c106.6-122.7,230.3-221.7,385.2-278.2c128.8-47,260.4-59.6,395.9-41.2
	c92.3,12.5,181.1,37.7,268.6,68.2c25.4,8.8,49.7,20.8,77.5,32.6c4-8,7.9-16.4,12.2-24.5c11.9-22,22.3-45.1,36.3-65.7
	c31.8-46.9,77.8-61.5,131.7-50.3c48.1,10,88.4,33.7,113.5,77.6c20.8,36.5,22,73.4-3.3,108.9c-10.1,14.1-20.4,28.1-31,41.9
	c-62.8,81.2-96.4,174.8-118.2,276.5c7.9,2.5,14.7,5.3,21.8,6.7c165.6,34.4,315.2,101.6,442.4,214.8
	c114.9,102.3,194,229.2,250.8,370.7c50.4,125.6,75.7,256.6,83.6,391.7c16.7,284.5-42.6,554.7-153.8,814.5
	c-120,280.4-296.2,521-525.2,722.1c-172.8,151.7-365.3,271.5-583.8,346.3c-135,46.3-274.2,72.1-417.1,75
	c-89.1,1.8-177.5-6.7-262.9-34.2c-77.2-24.8-144.6-64.2-189.7-134.5c-34.5-53.9-48.7-112.5-41.4-176.5c5.7-49.6,22-95.7,44.4-139.9
	c34.8-68.9,68.4-138.2,91.5-212.3c32.3-103.8,49.7-209.8,57.7-318c6-82,8.5-164,2.7-245.9c-8.2-115.5-18.4-230.8-29.3-346.1
	c-9.8-104-14-208.2-8.1-312.3c11.1-196.5,59.6-382.6,162.9-552.2C1300.9,1163.1,1309.8,1149.5,1321.4,1131.1z M1269.1,2469.2
	c-4.7,75.7-7.8,143.1-13.1,210.4c-12.8,162.3-53.9,317.2-124.6,464.1c-20.1,41.6-42.2,82.8-56.9,126.4
	c-27.6,81.8-0.1,158.5,69.3,209.6c39.7,29.2,84.7,45.1,132.2,55.6c112.1,24.7,224.7,19.4,336.8,3c200.6-29.5,384.4-104.6,556-211
	c182.3-113,337.8-256.3,471.7-423.4c198.8-247.8,329.9-526.8,385.6-840.4c27.5-154.9,35.3-310.5,13.9-466.8
	c-19.8-145-63.6-282.4-141.2-407.2c-81.6-131.4-188.7-236.4-329-304.8c-163.8-79.8-336.9-107.5-517.8-90.4
	c-14.8,1.4-24.5,8.2-33.7,19.2c-62.8,74.8-139.4,133.2-223.1,182.3c-95,55.6-197,92.5-305.4,112c-15.1,2.7-30,5.3-40.9,18.7
	c-55.5,68.6-102.9,141.9-137.5,223.6c-67.8,160.2-93.3,328.3-88.4,500.7c2.9,104,14.7,207.8,22.5,311.7
	C1253.7,2267.3,1261.7,2372.2,1269.1,2469.2z M2129,461.6c-48.1-1.9-352.7,108.3-596.9,226.3c-205,99.1-516.5,278.3-548.9,317.2
	c0.5,0.7,0.9,1.9,1.5,2c21.9,3.5,43.8,6.8,65.7,10.2c126.7,19.4,253.7,22.7,380.5,2.9c144.1-22.5,278.3-71.7,395.1-160.9
	c131.6-100.5,224.8-232,297.6-379C2126.4,474.7,2127.2,468.1,2129,461.6z M955.3,946.4c1.5,2,3.1,4.1,4.6,6.1
	C1311,713.1,1689,530.3,2100.3,408.5c-7.4-4-11.1-6.7-15.3-8.2c-24.5-8.7-48.9-17.7-73.7-25.7c-108.6-34.8-219.8-50.7-333.6-41.9
	c-168.2,13.1-310.8,85.6-435.5,195.5c-127.6,112.5-213.4,255-284,407.6C956.7,939.1,956.3,942.9,955.3,946.4z M2252.7,688.3
	c2.1,0.1,4.2,0.2,6.4,0.2c1.4-2.4,3.3-4.7,4.1-7.3c4.1-13.8,8-27.7,11.7-41.7c27.1-102.2,64.8-199.3,130.6-283.8
	c20.6-26.5,17.4-37.7-12.5-54c-8.3-4.5-17.7-7.5-27-9.6c-16.8-3.8-30.7,1.3-39.2,16.9c-7.8,14.4-15.5,28.8-22,43.8
	c-34,77.9-46.5,160.6-51.7,244.5C2251.1,627.6,2252.7,658,2252.7,688.3z M2118.7,690.8c13.6,0,22.4,1.4,30.5-0.5
	c5.5-1.3,13.6-6.9,14-11.2c1.6-17.5,0.7-35.2,0.7-57C2140.4,641.2,2130.9,663.5,2118.7,690.8z"/>
<path d="M2929.5,1689.5c0,9.6-0.4,15.4,0.1,21.1c2.3,29.6-25.2,46.5-45,46.6c-24,0.1-38.4-14.5-41.6-42.4
	c-5.7-49.8-9.1-100-17.6-149.3c-23.8-137.4-76.7-262.4-166.4-370.4c-45.5-54.8-99.5-99.4-164-130.6c-6.1-2.9-12.3-5.7-17.9-9.5
	c-29.8-20.1-28.8-61.3,2.4-78.9c6.8-3.8,17.1-5.3,24.5-3.3c15.6,4.3,31.2,10.3,45.4,18.1c104.4,56.8,183.8,139,244.3,240.6
	c75.8,127.5,117.6,265.5,131.4,412.7C2926.6,1660.6,2928.3,1676.9,2929.5,1689.5z"/>
<path d="M1653.3,2109.7c-57-0.4-97.1-40-97.1-96c0-55.4,44-101.5,97.1-101.7c54.2-0.2,96.6,44.1,96.7,101.1
	C1750.1,2069,1709,2110.1,1653.3,2109.7z"/>
<path d="M2420.1,1916.7c51.3,0.3,92.1,43.7,92.3,98.2c0.2,56.9-42.7,101.5-96.8,100.5c-53.6-0.9-94.8-45-94.6-99.8
	C2321.2,1971.3,2360.3,1912.9,2420.1,1916.7z"/>
<path d="M2549.1,2143.5c22.1,5.9,45.3,9.3,66.1,18.3c22.6,9.8,42.2,26.9,40.9,54.5c-1.4,28.7-19.3,49.8-45.8,57.8
	c-26.3,8-54.8,13.4-82.1,12.5c-23.2-0.8-47.6-8.9-68.6-19.5c-36.9-18.7-40.8-60-11.4-89.4c15-14.9,33.7-22.5,53.8-26.2
	c15.1-2.7,30.7-3.4,46-5C2548.5,2145.5,2548.8,2144.5,2549.1,2143.5z M2470.4,2220.8c25.1,19.7,51.4,25.8,88.7,19.4
	c18.9-3.2,40.8-2.2,52.9-26.2c-21.5-23.1-49.3-24-76.7-21.6C2511.3,2194.6,2485.6,2196.3,2470.4,2220.8z"/>
<path d="M1528.2,2287c-27.1-2.3-52.4-7.1-76.1-19c-21.3-10.7-35.6-27.6-36-51.8c-0.3-25.5,14-44.1,36.8-54.1c48-21,97-22.8,145.3-1
	c23,10.4,41,26.8,39.9,54.7c-1.1,29.7-19.3,48-45.8,56.6C1571.6,2279.3,1549.6,2282.3,1528.2,2287z M1592.2,2216.5
	c-17.9-27.9-44.8-26.8-70.4-25c-22.9,1.6-48.4,1.1-61.9,26.5C1490.7,2246.6,1561.8,2246.4,1592.2,2216.5z"/>
<path d="M2038.5,2218.2c-60.8-0.2-115.4-35.8-133.7-84.1c-3.7-9.7-5-20.4-6-30.8c-1-10.4,3.2-19,13.7-22.9c11-4.1,21.3-2.2,28.5,7.3
	c5.2,6.8,9.2,14.6,13.1,22.2c17,33.2,44.8,50.8,81.4,50c36.4-0.8,64.2-18.3,79-53.2c1.9-4.4,3.8-8.8,6-13.1
	c5.7-11.5,14-18.4,27.7-14.8c13.5,3.6,23.5,12.7,22,26.5c-1.6,14.9-5.2,30.8-12.6,43.6C2130.3,2196.9,2085,2214.8,2038.5,2218.2z"/>
<path d="M2921,1920c-2.5,12.1-3.5,24.9-7.9,36.3c-8.5,22.2-28.6,32.3-50.9,27.8c-21.4-4.4-32.4-19-30.6-45
	c1.1-16.1,4.3-32.5,9.4-47.8c7-20.9,23-30.1,41.8-27.3c21.5,3.2,33.7,15.8,36.3,38.4c0.6,5.7,0.1,11.5,0.1,17.3
	C2919.8,1919.8,2920.4,1919.9,2921,1920z"/>
</svg>
