<?xml version="1.0" encoding="utf-8"?>
<!-- Generator: Adobe Illustrator 24.3.0, SVG Export Plug-In . SVG Version: 6.00 Build 0)  -->
<svg version="1.1" id="Layer_1" xmlns="http://www.w3.org/2000/svg" xmlns:xlink="http://www.w3.org/1999/xlink" x="0px" y="0px"
	 viewBox="0 0 4000 4000" style="enable-background:new 0 0 4000 4000;" xml:space="preserve">
<path d="M2078.1,1120.5c7.3-59.9,14.3-117.5,21.6-178.4c-27.8,3.1-52.7,5.2-77.4,8.9c-65.8,10-132.1,12.7-198.4,9.9
	c-138.6-5.8-270-39.6-390.3-109.5c-101.5-59-186.2-137.8-256.5-232c-83.6-112.1-142.1-237.1-189.1-368c-3.3-9.1-6-18.6-7.8-28.2
	c-5.9-32.5,5.3-50.7,37.5-58.1c21.8-5,44.1-8.5,66.3-10.8c53.3-5.7,106.6-13,160.1-15c169.1-6.5,335.5,8.9,492.6,77.8
	c159.8,70.1,283.9,180.6,363.5,337.2c23.3,45.9,41.4,94.5,61.8,141.9c2.3,5.3,4.4,10.6,9,21.5c7.3-11.9,12.7-20.1,17.5-28.6
	c16.6-29.8,32.9-59.8,49.4-89.6c2.8-5.1,6.3-9.9,9.4-14.8c63.6-98.2,174.4-73.8,226.9,11.8c31.2,50.8,25.8,91.9-18.5,137.7
	c-81.7,84.6-135.6,185.1-174.6,294.6c-9.4,26.5-16.2,54-25.2,84.5c10.6,0,18.1,1,25.2-0.1c209.4-33.8,386,33.7,538.3,174.8
	c105.5,97.7,180,217.1,238.2,347.4c77.1,172.5,121.2,353.5,141,541.1c14,133.3,18,267,5.6,400.2c-21.2,227.9-70.9,448.7-183.6,651.2
	c-65.6,117.9-145.7,223.7-253.7,306.6c-106.3,81.6-224.4,132.7-359.6,139.4c-77,3.8-151.5-8.4-224-34.3
	c-71.6-25.6-50.9-26.1-122.1,0.2c-70.5,26-142,47.9-217,57.8c-168.2,22.1-326.4-7.7-473.9-90.8c-163.6-92.1-289.6-222.9-386.3-382.9
	c-120.6-199.4-189-416.1-215.4-646.9c-12.9-112.8-15.1-226-4.7-338.9c28.2-305.9,125.5-586.5,317.1-829.6
	c133.5-169.4,304.1-283.2,518.2-327.1c151-30.9,298.6-17,444,30.4c8.3,2.7,16.6,5.6,25,8C2071,1120.5,2074,1120.2,2078.1,1120.5z
	 M2229.8,1230.6c-1.7,2.8-3.3,5.6-5,8.4c5.9,3.5,12.6,6.2,17.4,10.8c29.7,28.1,60.7,55.2,88.2,85.4
	c64.8,71.2,113.5,153.5,156.3,239.2c102.3,204.7,151,423.5,167.6,650.1c11.9,162.9,5.7,325.6-17.2,487.4
	c-26,183.8-75.1,360.7-163,525.3c-13.3,24.9-27.5,49.5-43.6,72.6c-13.4,19.1-30.8,21-48.1,9.4c-18.5-12.4-23.6-30.3-13.5-50.5
	c6.1-12.2,13.9-23.5,20.2-35.6c22.3-43.3,47-85.6,66-130.3c79.3-187.1,116.3-384,128-585.7c12.4-213.5-4.4-424.9-58.7-632.6
	c-45.7-174.6-117.6-336.6-231.6-478.1c-48.1-59.7-102.8-113.3-170.2-150.3c-231.2-126.8-465.9-128.5-700-9.7
	c-150.4,76.3-260.1,197.7-348.9,338.1c-130,205.5-194.2,433.2-215.8,673.4c-16.4,181.2,0,360.4,47.7,536.4
	c49.3,181.9,125.8,350.4,245.6,497.1c69.4,85,146.8,161.7,242.2,218.2c152.7,90.6,315.7,118.2,489.7,81.8
	c55.6-11.6,108.8-30.6,160.9-52.6c52-21.9,102.2-23.8,155.2,0.5c57.2,26.2,118.9,37.4,182.2,36.1c122.2-2.5,231-42.8,327.4-117.2
	c108.8-84,188.9-191.7,248.6-313.8c97.8-199.9,143.7-413.3,154.3-634.9c4.7-99.5,3.4-198.9-6.2-298.1
	c-16.1-165.9-49.8-327.6-111.7-482.8c-46.9-117.7-108-227.1-193.1-321.9c-98.3-109.5-216.4-184.1-364.9-203.3
	C2364.9,1194.4,2295.9,1203,2229.8,1230.6z M1116.7,292.4c-2.1,2.2-4.1,4.4-6.2,6.7c8.6,20.5,16.9,41.1,25.8,61.4
	c55.1,124.6,130.6,234.8,233.2,325.3c115.6,101.9,249.7,160,403.9,172.2c69.4,5.5,138.3,2.4,207.3-3.6c27.5-2.4,54.7-7.6,82-11.5
	c0.4-2.4,0.9-4.8,1.3-7.3C1759.9,634.4,1441.7,457.5,1116.7,292.4z M1161.2,251.1c315.6,164.1,626.6,335,922.7,534.1
	c0.5-11.3-0.7-20.7-3.9-29.4c-15.4-41-28.8-83.1-47.5-122.6c-70.7-149.5-181.2-259.4-333-326.5c-83.8-37.1-172.3-55.6-263.1-64.4
	C1344.8,233.5,1253.4,235.8,1161.2,251.1z M2178.3,1034.4c2.1,0.6,4.3,1.2,6.4,1.8c10-25.9,20.6-51.6,29.9-77.7
	c27.7-77.6,65.8-149.5,115.1-215.4c18.1-24.1,38.5-46.4,57.1-70.1c5.1-6.5,11.7-15.6,10.7-22.5c-2.5-16.7-16.6-25.6-31-32.1
	c-12.1-5.5-23.4-2.1-31.5,7.9c-11.7,14.3-23.9,28.3-33.3,44.1c-48,80.8-84.1,166.6-103.9,258.8
	C2190.2,964,2184.7,999.3,2178.3,1034.4z"/>
<path d="M994,2240.5c8.3-133.2,33.4-262.9,79.2-388.3c55.8-152.8,141.1-286.3,260-397.8c42.2-39.5,88.5-73.6,140.6-99
	c31.2-15.2,63,3.2,65.7,37.2c1.5,18.7-7.8,31.6-22.8,41.1c-18.9,12-38.5,23-57,35.7c-106.9,73.5-185.3,171.9-245.7,285.4
	c-73,136.9-114.3,283.3-128.3,437.6c-3.1,34-4,68.1-7.5,102.1c-1.2,12-4.8,25.3-11.8,34.7c-9.9,13.2-25.8,17.3-42.3,12.1
	c-19.1-5.9-28.4-20.7-29.8-39.4C992.8,2281.6,994,2261,994,2240.5z"/>
<path d="M2980.5,2777.9c-3.1,16.1-5.8,34.4-10.1,52.4c-39.7,165.7-107.5,317.7-223.3,444.8c-35.3,38.7-76.7,71.9-116.2,106.6
	c-10,8.8-22.8,15.1-35.3,20.4c-21.9,9.3-33.7,5.8-46.1-11.2c-15-20.5-16.8-43.7-3.5-59.1c7-8,15.1-15.5,23.9-21.4
	c142.2-95.5,229.5-230.9,283-390.4c14.2-42.4,24.2-86.3,36.4-129.4c3.4-12.2,6.6-24.6,12.2-35.9c9.6-19.4,27.6-25.4,49.8-18.6
	C2967.8,2741.1,2980.7,2758.6,2980.5,2777.9z"/>
<path d="M999.6,2522.5c0.8-5.2,1.4-12.1,3-18.6c4.5-18.4,16.7-30.1,33.2-32.2c17.1-2.2,35,7.6,42.5,24.5c3.1,7,4.8,14.8,5.7,22.5
	c2.3,19.3,4.1,38.6,5.4,58c1.1,17.4-3.4,33-19.2,42.9c-23.3,14.6-51.5,3.6-60.6-23.4c-1.8-5.5-3.2-11.3-3.9-17
	C1003.5,2560.8,1001.7,2542.4,999.6,2522.5z"/>
<path d="M2922.9,2586.2c1.5-6.8,2.6-17.6,6.3-27.3c6.9-17.8,20.6-26,38.6-24.8c18.1,1.2,32.2,9,37.5,27c7.3,24.8,2.5,48.1-13,68.8
	c-10.2,13.7-25.3,13.2-39.9,10.7c-15.1-2.6-23.3-13.5-27-27.4C2923.4,2605.8,2923.8,2597.8,2922.9,2586.2z"/>
</svg>
