<?xml version="1.0" encoding="utf-8"?>
<!-- Generator: Adobe Illustrator 24.3.0, SVG Export Plug-In . SVG Version: 6.00 Build 0)  -->
<svg version="1.1" id="Layer_1" xmlns="http://www.w3.org/2000/svg" xmlns:xlink="http://www.w3.org/1999/xlink" x="0px" y="0px"
	 viewBox="0 0 4000 4000" style="enable-background:new 0 0 4000 4000;" xml:space="preserve">
<path d="M1904.2,1179.9c0-51.5,0-99.3,0-149.6c-8.2,0-16.3-0.4-24.3,0.1c-224.2,12.1-407.7-71.3-552.1-240.4
	c-71-83.2-111.8-182.8-137.8-288.3c-24.7-100-32.7-201.5-24.5-304.2c0.7-9.4,1.7-19,4.1-28c8-30.1,23.2-43.7,54.3-41.9
	c56.7,3.3,113.7,6.7,169.8,15.2c130.3,19.7,249.4,68.8,355.5,147.5c95.5,70.8,162.7,163.8,209.8,272.1c4.6,10.6,8.9,21.3,13.6,31.8
	c0.7,1.6,3.2,2.5,6.5,4.9c3.2-8,6.4-15.4,9.3-23c25-65.9,49.8-131.9,74.9-197.8c3.7-9.8,8.6-19.2,13.1-28.7
	c41-88.3,118.4-122.9,217.4-101.4c28.3,6.1,55.1,20.1,81.6,32.5c12.1,5.6,22.7,15.3,32.4,24.8c40.3,39.7,46.6,86.9,16.4,134.6
	c-20.8,32.9-44.3,64.2-67,95.8c-76.8,107.2-133.3,224.7-171.4,350.5c-24.4,80.5-42.3,163-62.4,244.7c-3.9,15.9-4.8,32.6-7.9,55.6
	c16.7-7.9,27.8-12.8,38.6-18.2c147.4-74.2,300.1-133.8,463.1-163c245.2-43.9,476.1-6.6,687.7,128.9c34.4,22,64.8,50.2,96.8,75.9
	c5.7,4.6,10.4,10.5,14.9,16.3c19,24.2,18,42.6-4.4,63.6c-19.2,18-40.2,34.3-58.5,53.1c-50.2,51.7-78.7,113.4-84.9,185.7
	c-5.2,60.6,8.5,115.3,48.1,162c17.5,20.6,23.5,40.8,19.2,69c-11.8,78.6,14.3,147.9,64.7,207.6c47.3,56,107.2,94.4,177.7,115.4
	c64.6,19.3,79.7,33.8,73.1,105.9c-15.3,165.8-54.2,325.9-108.4,482.8c-82.6,239-199.7,459.7-358.3,657
	c-86.2,107.2-183,203.9-301.5,276.4c-118.6,72.6-247,112.4-386.8,108.8c-110.6-2.8-213.6-34.3-309.7-88.4
	c-13.3-7.5-23.5-12.7-40.2-4.7c-23,11.1-42.3-4.7-59.6-18.7c-8.6-6.9-15.6-15.7-26.7-27.3c-2,14.4-1.7,24-4.9,32.2
	c-4.8,12.5-9.9,26.1-18.8,35.4c-18.3,19.1-50.6,13.3-64.5-11c-7.7-13.5-12-28.9-18.6-45c-31.6,23.2-59.5,57.5-103.2,27.1
	c-67.9,42.1-139.4,72-216.4,88.2c-119.6,25.2-236.6,14.1-352-23.3c-123-39.9-231.7-105.1-330.8-187
	c-177-146.3-306.5-329.2-408-533.1C444,2758.8,375.4,2549,339.6,2329.3c-26.5-163.1-30.8-327.3-2.7-490.9
	c39.4-229,132-432.6,298.6-597.8c120-119,261.7-200.9,428.9-235c126.8-25.9,253.3-20.1,379.8,3.7c155.9,29.2,300.4,88.4,439.9,161.8
	C1889.3,1173.8,1894.9,1175.8,1904.2,1179.9z M3261.3,1225.4c-22.9-13.2-40.8-23.8-58.9-34c-118-66.6-244.7-100.5-380.2-101.5
	c-133.1-1-261.4,25.7-387,68c-101.2,34.1-196.7,81.3-289.8,132.5c-86.5,47.6-168.1,46.5-255,0.7c-84.6-44.5-172.1-84.3-260.4-121.2
	c-108.4-45.4-222.5-71.5-340-78.5c-212.9-12.7-399.4,53.6-555.9,197.2c-188.2,172.6-281,393.3-308,643.7
	c-17.3,160.6-1.2,319.9,31.2,477.5c36.3,176.3,95.3,344.8,175.9,505.7c65.4,130.6,145,251.8,241.7,361.3
	c85.6,97,183,180,297.3,242.2c81.3,44.2,166.8,75.8,258.7,87.3c129.7,16.3,251.7-9.8,364.6-75.2c49.1-28.5,95.7-61.3,143.4-92.2
	c57.1-37.1,92.2-36.7,148.1,1.9c5.2,3.6,10.1,7.6,15.2,11.3c53.7,39.1,108.7,75.7,169.3,104c153.9,71.9,309.3,73.1,465.7,10.5
	c111.7-44.7,202.3-120.4,285.7-204.7c100.6-101.7,182.4-218.1,253.2-341.9c126.5-221.2,215.7-456.4,258.6-708.2
	c5.6-32.7,10-65.6,15.5-102c-17,0-29.5,0.3-41.9,0c-124-3.7-234.3-45.4-323.8-130.6c-145.6-138.7-199.4-311.4-168.6-508.7
	c19.9-127.9,80.5-234,188.7-309.6C3220.8,1249.2,3238.3,1239.6,3261.3,1225.4z M1910.2,894.1c2.2-11.2,4.2-16,3.9-20.6
	c-3.8-51.4-3.4-103.6-12.9-153.9c-34-181.4-137.5-313.6-297.7-402c-101.3-55.9-212-80.4-326.3-90.4c-4.7-0.4-9.7,2.1-15.2,3.3
	c-0.7,6.4-1.7,11.5-1.8,16.6c-2.7,110.8,13,218.8,54.9,321.6c77.9,190.9,214.8,313.7,420.2,353.4c43,8.3,86.9,12.3,136.1,9.7
	c-7.6-12.3-12.2-21.4-18.3-29.3c-32.5-41.4-64.3-83.4-98.2-123.6c-101.9-121-208.9-237-334-335c-3.3-2.6-6.2-5.7-9.3-8.5
	c-9.5-8.6-8.9-18.5-3.1-28.6c8.8-15.2,21.7-18.5,37.1-6.9c25.2,19,49.4,39.3,73.3,60c137.8,118.9,257.4,254.4,365.3,400.7
	C1891.4,870.6,1899.1,879.9,1910.2,894.1z M3256.8,1295.5c-7.3,3.6-11.2,5.2-14.7,7.4c-71,45.9-117.7,112-146.5,189.2
	c-58.3,156.4-39.7,306.8,48,447.8c64.5,103.7,157.2,171.4,275.7,202.5c13.2,3.5,26.6,6.4,45.5,5.8c-27.4-18.9-50.8-33.1-72.1-50
	c-106.7-84.5-166-191.4-153.8-331.1c1.2-13.5-2.9-23.4-10.6-34.6c-15.3-22.4-30.5-45.7-40.7-70.8c-35.3-87.2-24.3-174,11-258.1
	C3214,1367.2,3236,1333.7,3256.8,1295.5z M2285.7,457.6c-25.6-4-46.6-5.5-66.5-11c-20.7-5.7-40.3-15.2-60.1-22.9
	c-94.8,134.8-199.8,705-147.4,816.5c16.3-141.9,43.1-276.5,87.5-407.6C2144.1,700.4,2209.7,578.7,2285.7,457.6z M2186.6,366.8
	c42.9,32.7,85.3,29.6,127.1,26.8c7.6-0.5,14.6-9,21.8-13.8c-5.3-7.2-9.1-17.2-16.2-21c-32.8-17.9-68-21.2-103.7-9.8
	C2206.6,351.9,2199,359,2186.6,366.8z"/>
<path d="M557.3,1980.9c4.3-126.4,36.1-256.1,101.2-376.7c55.5-103,133.4-185.8,231.1-250c7-4.6,14.6-8.3,22.1-12.1
	c12.6-6.3,23.9-7.2,32.4,7.2c8.8,14.9,8.1,23.9-5.1,36c-5.4,4.9-11.5,9.2-17.6,13.3c-171.9,115.4-267.2,279-298.6,481.1
	c-8.4,53.8-8.4,108.9-12.1,163.4c-1.6,23-7.8,31.6-25.1,33.3c-16.7,1.6-26.6-4.9-27.8-22C556.2,2033.3,557.3,2012.2,557.3,1980.9z"
	/>
<path d="M1863.1,2427.3c-0.1,1.6,0.3,9.1-1.2,16.2c-4.3,20.4-20.5,29.5-40.4,23.1c-4.9-1.6-9.9-4-14-7.1
	c-38.1-28.2-76.4-56-113.6-85.2c-12.2-9.6-22.9-22.1-31.6-35c-9.3-13.8-17.5-29-22.4-44.8c-13.2-42.1,3.7-89.2,36.9-108.5
	c34.4-20,84.6-10.6,114.5,23.6c12.3,14,22.3,30.7,30.9,47.4C1843.6,2298.6,1861.6,2374.3,1863.1,2427.3z"/>
<path d="M2155.9,2408c6.2-59.9,18.3-122.5,55.1-177.8c15.6-23.5,35.5-41.3,63.4-49.3c59.9-17,116.4,31.8,108.5,93.8
	c-3.9,30.5-16,58.1-38.6,77.7c-43.7,37.8-88.7,74.3-135.5,108.1c-28.3,20.4-51.1,6.1-52.7-29
	C2155.6,2425.2,2155.9,2418.9,2155.9,2408z"/>
<path d="M596,2163.5c12.4-1.3,21.9,5,24.5,19.9c4.2,23.7,8.5,47.5,12,71.3c2.2,14.6-4.9,24.3-19.2,28c-13.6,3.5-27,1.6-30.9-13.3
	c-7.1-27.2-13.2-54.8-16.4-82.7C564.4,2171.5,576,2164.1,596,2163.5z"/>
<path d="M1086.2,1295.5c-1.4,2.6-2.8,8.9-6.5,11.1c-15.1,8.9-30.3,18.1-46.6,24c-12.4,4.5-21.5-4.1-27.5-15.3
	c-6.3-11.7-1.7-21.6,7.2-27.5c12.9-8.5,27-16.2,41.7-20.4C1070.7,1262.8,1087,1277.6,1086.2,1295.5z"/>
</svg>
