<?xml version="1.0" encoding="utf-8"?>
<!-- Generator: Adobe Illustrator 24.3.0, SVG Export Plug-In . SVG Version: 6.00 Build 0)  -->
<svg version="1.1" id="Layer_1" xmlns="http://www.w3.org/2000/svg" xmlns:xlink="http://www.w3.org/1999/xlink" x="0px" y="0px"
	 viewBox="0 0 4000 4000" style="enable-background:new 0 0 4000 4000;" xml:space="preserve">
<path d="M2374.3,3196.8c52.2,180.4,19.9,334.4-127.1,450.1c-121.8,95.9-293.9,99.5-423.3,19.1c-50.3-31.2-91.7-71.3-122.6-122.4
	c-31.2-51.7-49.1-107.6-56.6-167.1c-7.4-58.9,4.1-115.8,23.3-175.3c-115-22-202.4-81.9-260.2-181.3
	c-57.8-99.4-68.1-204.9-30.7-316.8c-131.8-19.9-230.5-84.4-291.3-201.1c-60-115-60.1-232.7-8.9-353.6c-8.8-3.4-16.3-6.6-24-9.2
	c-143.6-46.8-232.3-145.1-262.4-291.6c-28.8-140.2,9.9-263.3,113.8-363.3c36.1-34.8,79.5-59.3,127-76c23.9-8.4,23-8.5,25-34.1
	c1.9-24.7,5.9-49.2,9-73.8c0.8-6.4,1.8-12.7,3-20.6c-11.9-4.1-22.7-7.5-33.2-11.6c-48.5-18.6-57.5-48.4-27.9-90.8
	c2.1-3,3.5-6.4,6.7-12.3c-10.6-4-20-7.5-29.3-11.2c-71.7-28.1-134.3-68.8-180.4-131.7c-43.3-59-27.1-101.7,44.4-119.6
	c11-2.8,22-5.8,32.9-8.9c0.7-0.2,1-1.5,2.8-4.4c-5-5.5-10.2-12-16.1-17.6c-52.2-48.8-93.7-105.6-127-168.7
	C708,640.7,679.3,576.2,657,508.9c-7.5-22.6-13.5-45.9-17.4-69.4c-4.6-27.6,4.6-43.2,29.6-55.6c10.2-5,21.2-8.9,32.2-11.8
	c116-30.5,233.9-48.1,354-46.9c60.3,0.6,120.2,6.6,179.2,19.4c6.2,1.4,12.8,1.1,21.9,1.8c2.5-33.8,4.6-66,7.5-98.1
	c1.5-17.1,3.2-34.3,6.7-51.1c6.6-32,25.6-45.8,57.9-41.1c63.3,9.2,121.9,32.4,176.4,65c55.2,33,105.6,72.4,145.7,123.5
	c3,3.8,5.2,8.1,8.7,13.7c8.9-7.3,14.7-11.6,20.1-16.5c21.5-19.6,39.4-21,59.6,0.9c18.6,20.2,35.1,43,49.4,66.5
	c43.6,71.8,69.9,149.6,79,234.2c3.2-20.4,6.9-40.8,9.7-61.3c17-127.8,55.4-249.6,103.4-368.7c6.7-16.7,14.9-33.3,25-48.2
	c21.1-31.4,51.1-41.6,84.9-24.3c70.1,36.1,123.2,86.9,130.7,171.6c0.2,2.8,1,5.6,1.7,8.3c0.2,0.8,1,1.5,2.5,3.6
	c29.3-15.1,54.7-8.6,77.1,20.3c6.5-7.2,12.5-12.7,17.1-19.2c69.4-99,162.1-166.1,277.2-202.5c43.7-13.8,68.2-1.2,78.8,43.6
	c8.8,37.1,14.2,75.1,21.1,112.7c1.5,8.4,3.1,16.7,5.1,27.7c8.3-1.3,15.6-1.7,22.4-3.7c109.7-31.5,221.8-40.2,335-32.1
	c71.3,5.1,142.3,15.5,213.4,24c9.4,1.1,18.9,3.6,27.6,7.1c22.9,9.1,33.9,24.5,30.6,49c-4,29.2-10.3,58.3-17.9,86.8
	c-26,97.3-59.8,191.7-113.9,277.3c-17.8,28.1-39.9,53.5-60.2,79.9c-6.3,8.2-13.4,15.8-23.9,28.1c12.6,2.2,21.1,3.8,29.7,5.2
	c15,2.5,30.6,3.3,44.9,7.9c31.5,10.1,45.1,34.4,32.1,64.9c-12.2,28.6-28.5,56.4-47.6,80.9c-37.9,48.8-83.4,89.4-142.6,111.9
	c-6,2.3-11.1,6.6-18.2,10.9c4.4,6.7,7.9,12.1,11.4,17.4c21.3,31.7,15.3,64.1-20,81.8c-36.5,18.4-75.5,31.8-113.6,46.9
	c-11.3,4.5-23.1,7.4-38.1,12.1c25.9,53.1,36.9,106.7,39.5,162.9c99.4,8.9,185.7,43,253.1,116.1c57.4,62.3,91.6,136.6,101.8,220.3
	c12.2,99.9-6.2,194-62.9,279.1c-56.1,84.3-133.7,137.5-234.5,158.5c1.6,9.1,1.7,15.6,3.8,21.4c66.3,179.2-13.3,443.4-272.4,504.8
	c-6.4,1.5-12.8,3.1-22,5.4c0.8,8.8,1.2,17,2.2,25c10.6,79.3,4.2,156.7-30.1,229.9c-46.6,99.5-122.5,166.7-227.4,200.4
	C2394.4,3190.5,2384.7,3193.5,2374.3,3196.8z M1804.3,1006.3c-7-6.6-14-13.2-21-19.8c-1.2,1.9-2.4,3.8-3.7,5.7
	c8.4,4.5,16.9,9,25.3,13.4c12.8,22.5,28.7,35.5,52.1,41C1841.5,1027.9,1824,1015.7,1804.3,1006.3z M2540.4,720.8
	c10.2-6.4,17.3-10.9,24.5-15.4c116.4-72.7,239.1-131.8,370.9-171c23.7-7.1,48.1-12.3,72.3-17.4c9.9-2.1,19.3,0.3,22.3,12.4
	c2.9,11.7-0.4,21.1-11.6,26.1c-6.9,3.1-14.4,4.8-21.8,6.8c-153.5,42.1-294.3,111.5-426.4,199.3c-2,1.3-2.6,4.8-4.2,8.1
	c4,5.3,7.6,10.9,12.2,15.6c46.5,48,99.5,86.3,163.8,107.1c11.8,3.8,23.7,7.6,35.2,12.2c10.5,4.2,13.7,12.5,10.2,23.4
	c-3.4,10.6-7.5,20.2-21.5,17.7c-6.6-1.2-13.3-2-19.7-3.9c-81.5-24.4-152.7-65-206.4-132.6c-4.7-5.9-7.6-13.1-11.6-20.1
	c-66.6,46.7-120.8,95.4-176.9,146.7c26.7,32.4,51.3,61.5,74.9,91.4c12.6,16,27.6,20.6,47.5,19.9c30.5-1.1,61.6-2.6,91.4,2.5
	c84,14.4,158.4,49.1,215.5,114.8c7.6,8.7,15.9,9.8,25.6,7.3c26.8-7,53.5-14.1,80.1-21.6c6.2-1.7,11.8-5.2,19.1-8.5
	c-3.1-6.3-5.4-11.3-8.1-16.1c-5.9-10.8-13.7-21-17.7-32.5c-9.5-27.4-2.6-41,24.5-51.4c12.5-4.8,25.5-8.1,38.2-12.3
	c57.2-18.7,108.9-46.4,149.7-91.8c4.7-5.2,8.2-11.5,13.2-18.8c-27.2-5.7-51.7-9.4-75.3-16.4c-18.1-5.3-36.7-12.2-52-22.9
	c-25.7-17.8-25.5-44.7-2.2-65.1c7.9-6.9,16.6-12.9,25.1-19c51.3-36.7,91.9-83.2,124.5-136.9c49.6-81.7,80.5-170.8,103.7-262.8
	c0.9-3.4,0.1-7.2,0.1-11.9c-5.7-1.2-10.2-2.6-14.8-3.1c-38.9-4.8-77.7-10.4-116.6-13.9c-84.1-7.5-167.9-5.8-251.6,6.6
	c-55.1,8.2-107.9,23.9-160,43.4c-37.6,14.1-58.5,1.8-67.7-37c-5.1-21.3-7.9-43.2-12-64.8c-5.4-28.8-11.1-57.7-16.7-86.7
	c-6.1,1.1-9.2,0.9-11.6,2.1c-73.6,35.3-138.1,82.3-183.1,151.5c-18.7,28.7-32.4,60.5-48.3,91c-11,21.1-22.3,26.4-43.8,17.4
	c-9.4-3.9-17.7-10.9-26-17.2c-6.5-4.9-12.3-10.9-20.4-18.3c-4.4,9.3-8.6,15.6-10.5,22.6c-7.6,27.6-15.8,55.2-21.5,83.2
	c-17.5,86.2-5.4,169.2,30.5,249c14.6,32.5,36.4,59.7,65,83.5c59.6-48.3,117.9-95.6,176.9-143.5c-0.5-3.5-0.5-7.4-1.6-10.9
	c-20.5-63.8-24.2-129.4-19.7-195.6c1.3-19.9,5.5-39.7,9.6-59.2c2.4-11.6,12.3-13.4,22.7-12.2c10.9,1.3,17.7,7.2,17.7,18.7
	c0,6.6-1.2,13.3-2,19.9C2515.5,580.2,2520.1,649.2,2540.4,720.8z M1358.6,258.5c-1.5,6.2-3.3,10.6-3.6,15.2
	c-1.8,25.7-3.1,51.5-5,77.2c-1.6,21-2.7,42.1-6.2,62.7c-5.4,32.3-25.6,45.5-57.5,39.1c-11.2-2.2-22.1-6-33.4-8.1
	c-40.3-7.7-80.4-17.6-121-22.1c-125.1-13.8-247.8,2.7-369,33.6c-7.1,1.8-13.7,5.3-20.6,8.1c0.7,5.7,0.3,9.8,1.7,13.1
	c23.1,55.5,42.7,112.9,70.6,165.9c48.3,91.7,113.5,169.9,205.2,222.4c4.1,2.4,8.2,5,11.9,8c18.2,14.7,22.5,36.6,8.8,55.7
	c-6.4,8.9-15.8,17.6-25.7,21.7c-30,12.2-60.9,22.1-91.4,32.9c-5.8,2.1-11.6,4.4-17.2,6.6c1.1,3.9,1.1,6.2,2.2,7.5
	c3.1,3.6,6.4,7,10,10.1c36.4,32.2,78.2,54.7,125,67.3c23,6.2,46.2,12.4,69.7,16.3c37.6,6.4,41.6,30.9,28.5,58.7
	c-4.7,9.9-9.2,20-13.7,30c10.3-2.3,16.6-7.4,22.1-13.2c11.1-11.8,21-25,32.8-35.9c77.7-71.7,170.8-103.9,275.3-99.7
	c32.7,1.3,65.3,12.8,97.2,22.2c15.2,4.5,25.7,4,34.7-9.3c21.2-31.6,42.5-63.1,65.1-96.7c-57.5-52.5-119.6-93.8-183.7-133.1
	c-5.4,5.8-9.2,8.9-11.7,12.8c-26.9,40.4-62.4,72.1-100.8,101c-33.9,25.5-71.2,44.6-111.5,57.6c-16.6,5.3-24.8,1.5-30.5-11.7
	c-5.6-12.9-2-21.4,13.6-29.7c6.7-3.6,14.2-5.5,21.2-8.6c62.8-27.8,119.9-63.5,161.1-120.2c5.8-8,10.1-17.2,16.6-28.6
	c-49.5-24.2-94.9-48.7-142-69C1187.1,675,1084.2,640,976.1,622c-20.3-3.4-27.7-17.6-18.9-35c6.9-13.7,19.1-11.2,30.1-8.5
	c65.7,16.6,131.9,31.4,196.6,51.3c82.3,25.3,159.9,62.7,237.6,99.6c8.8,4.2,18.4,6.6,32.2,11.5c4.5-32,9.8-59,11.9-86.3
	c3.7-48-3.6-95.3-14.2-142.1c-2.3-10-2.4-19.5,10.5-22.5c11.8-2.7,23.6-3.3,29.6,9.8c3.5,7.7,5.2,16.3,7.2,24.7
	c17.8,76.9,15.8,153.5-4.1,229.8c-1.4,5.3-0.8,11.1-0.8,12.3c60.9,43.4,119.1,85,177.5,126.3c13.6,9.6,20.9,7.9,33.3-8.6
	c24.9-33.2,43-69.9,53-110.3c25-100.8,8.5-197.2-31.4-290.9c-2.3-5.4-7.6-9.6-12.2-15.3c-6.6,6-11.3,10.6-16.5,14.7
	c-5.2,4.1-10.7,8.1-16.5,11.3c-19.6,10.5-31.1,9-45.3-7.9c-9.2-10.9-17-23.1-24.6-35.2c-56.2-89-135.1-149.6-232.6-187
	C1372.4,261.2,1365.9,260.3,1358.6,258.5z M2045.3,1778.9c-5.2-31.9-7.5-64.7-16.1-95.7c-32.7-118.8-141.9-203.1-267.5-205.5
	c-113.2-2.2-203.3,45-261,142.3c-54.6,92.1-59.5,190.6-13.2,288.5c81.9,173.3,303.3,236.7,463.4,89.4
	C2014.2,1939.9,2041.9,1864.9,2045.3,1778.9z M1186.5,2068.6c72.9-2.5,152.3-39,212.1-115.9c9.6-12.4,12.5-22.8,6.4-38.9
	c-19.9-52.4-26.5-107-21.4-163.2c3.6-40.3,12.7-79.2,26.6-116.9c6.2-17,4.5-30.5-6-45.4c-61.9-88.4-148.5-129.1-253.9-121.2
	c-170.4,12.8-291.1,158.8-276.1,329.1C887,1940.8,1005.5,2068.4,1186.5,2068.6z M1845.2,2147.5c-22.5,3.3-40.1,5.8-57.6,8.5
	c-5.7,0.9-12.3,0.8-16.6,3.9c-6.6,4.7-13.7,10.7-16.9,17.8c-52.9,119.9-52.1,233.9,32.3,341.9c73.9,94.6,207.5,139,335,83.5
	c91.6-39.9,144.3-111.8,167-208.3c32.8-139.3-42.5-322.8-239.8-364.9c-9.3-2-22.9-1-29.4,4.6c-19.2,16.5-35.9,35.9-55.6,56.4
	c3.2,2.1,7.6,3.5,9.5,6.5c14,21.8,11.1,30.6-12.9,41.1c-6.1,2.7-12.6,4.5-18.7,7c-70.7,29.1-112.3,80.1-118.1,157.8
	c-0.7,9.5,0.3,19.4-2.2,28.5c-1.7,6.3-7.4,15.6-12.2,16.2c-9.5,1.1-22,0-28.7-5.7c-5.7-4.8-7.4-17.3-7-26.2
	c2.5-54.9,18.5-105,55.9-146.8C1834,2163.7,1837.9,2157.5,1845.2,2147.5z M2080.6,1952.4c1.1,1.1,2.1,3,3.7,3.8
	c9.5,4.6,18.9,9.3,28.6,13.2c63,25.3,119.7,59.4,161.7,114.5c9.1,11.9,21.3,20,36.5,20c29.5-0.1,59.8,2.8,88.2-3.1
	c109.1-22.5,187.6-84.6,224.1-191.5c37.7-110.6,21.1-215.7-55.7-303.8c-124.9-143.3-343.9-126.7-461.7,20.3
	c-4.3,5.4-8.4,14.2-7.2,20.4c5.9,31.3,13.7,62.3,21.9,98.4c7.6-19.1,12.9-33.3,18.8-47.3c32.2-76.3,91.6-117.2,171.5-131.3
	c4.7-0.8,9.5-1.3,14.2-1.1c13.4,0.5,21.7,7.5,22.7,21c0.9,12.9-4,22.2-18.6,24c-8.5,1-16.9,3.1-25.3,5.2
	c-62.5,16.3-106.9,53.7-129.7,114.6c-5.3,14.2-7.2,29.6-10.9,44.4c-6,23.5-9.2,25.7-33.4,24.8c-3.5-0.1-7.1,0.5-6.6,0.5
	C2108.9,1851.4,2095.1,1900.7,2080.6,1952.4z M1837.6,3177.7c-18.5,5.3-30.8,10.2-43.5,12.2c-23.8,3.8-35.8,18.5-43.4,40
	c-29.8,83.7-26.4,166.4,15.3,244.1c59.5,110.8,154.8,164.9,280.6,154.1c116.9-10,200.3-71.9,242-182.3
	c67.3-178.4-34.9-376.5-232.6-406.6c-23-3.5-40.8,0.2-54.2,21.1c-8.7,13.5-20.2,25.2-31.3,38.7c3.5,2.9,6.4,5,9,7.4
	c21.6,19.7,19.3,32.5-7.7,42.7c-5.4,2-11,3.4-16.2,5.6c-64.3,26.8-107.7,71.5-119.4,142.2c-2.6,15.9-2.2,32.3-3.8,48.5
	c-1.6,16-9.7,21.4-25.2,17.9c-14.4-3.3-20.4-11.2-19.6-30c2-45.3,9.7-89.2,35.7-128C1827.8,3198.5,1830.9,3190.9,1837.6,3177.7z
	 M1262.2,2134.4c-15.2,1.1-30.3,2.8-45.5,3.3c-24.2,0.7-39.8,10.9-51.3,33.4c-50.6,98.8-50.2,198,3.4,293.4
	c111.9,199.4,364.1,196.7,480.4,37.1c13.5-18.6,17.9-34.7,10.2-57.7c-25.9-77.2-27.5-155.2-1-233.2c16.5-48.6,12.6-57.6-35.9-78.8
	c-58.6-25.6-110.4-60.3-152.9-108.4c-3.6-4.1-8.4-7.2-14.2-12c-27.2,23.4-53.7,46.2-80.4,69.2c2,3.5,3,6.1,4.6,8.3
	c17.8,24.9,14.6,35.9-13.8,46c-2.7,1-5.5,1.6-8.2,2.5c-67.4,22.1-105.5,69.4-117.2,138.3c-3,17.8-2.4,36.1-4.3,54.2
	c-1.6,15.7-7.1,19.8-22.4,18.7c-15.6-1.2-25.1-9-24.2-25.8c1.3-25.6,3.5-51.6,9.5-76.3C1209.5,2204.1,1229.8,2166.6,1262.2,2134.4z
	 M2674.2,1985.5c10,3.1,18,5.7,26.1,8c68.8,19.4,128.4,53.7,174.1,109.6c8.5,10.4,17.3,13.2,29.7,11.8
	c74.3-8.3,138.6-37.6,186.2-95.9c75.8-92.8,92.8-197.8,51.8-309.6c-70.3-192.2-295-254.8-456.4-128.8c-9.5,7.4-17.6,16.6-27.5,26.1
	c10.9,17.9,20.7,34,32.2,53c9.7-8.7,17.7-15,24.8-22.2c25.4-25.8,55.3-44.7,90.2-53.3c22.9-5.6,46.9-7.2,70.6-8.6
	c12.2-0.7,18.5,8.7,19.2,20.7c0.7,12.3-5.2,20.1-17.4,22.4c-6.6,1.2-13.3,1.3-19.9,2.1c-56.5,7.3-103.5,31.7-138.7,77.5
	c-8.1,10.6-11.7,21.3-9.1,34.6c15.3,77.6,3.3,152-26.1,224.5C2680.6,1965.9,2677.9,1974.9,2674.2,1985.5z M1542.8,2674.3
	c-16.9,4.3-31.3,8.9-46,11.5c-15.1,2.7-22.3,11.2-27.8,25c-37.7,95.5-30.2,187,23.6,274.2c59.8,97,180.8,151.8,287.9,130.3
	c194.9-39.1,267-240.7,212.5-392.6c-4.9-13.8-13.5-18.3-27.5-20.2c-97.2-13.1-176.7-57.8-236.8-135.9c-4.9-6.4-11.3-11.7-19.4-19.9
	c-11.8,13.4-21.3,24.2-31.6,35.9c7.4,5.5,12.2,8.5,16.4,12.2c16.9,15.6,15,29.2-5.9,40c-7.6,3.9-15.9,6.5-23.8,9.8
	c-75.6,31.6-114,89.1-118.3,170.3c-0.4,6.7-0.1,13.5-1.3,20c-2.9,15.9-19.4,23.8-32.1,13.8c-6.5-5.1-12.4-15.8-12.2-23.8
	c0.7-22.7,1.9-46.1,8.3-67.7C1516.8,2730.1,1530.1,2704.5,1542.8,2674.3z M2063.1,2963.7c5,2.4,6.6,3.6,8.4,4
	c93.2,17.9,173.1,58.5,231.6,135.6c7.5,9.9,16.7,11.3,27.8,9.1c94.9-18.8,171.2-63.7,215.4-153.4c24.5-49.8,35.4-102.5,32.5-158.1
	c-6.7-129.7-102.2-243-226.3-270.2c-26.1-5.7-46.7-5.5-59.1,22.4c-3,6.8-10.1,11.6-13.7,18.3c-3.5,6.3-7.4,14.1-6.7,20.7
	c2.3,20.5-9,29.7-25.6,36c-9.8,3.7-19.9,7-29.2,11.6c-34.4,17.3-66.5,36.9-85.1,73.3c-14.7,28.9-21.2,59.1-20.4,91.1
	c0.3,12.9,0.9,25.2-16.3,28.2c-10,1.8-13.3,9.9-13.8,19.2c-1.9,33.5-6.8,66.4-19.4,97.9C2061.7,2953.4,2063.1,2958.6,2063.1,2963.7z
	 M2350.9,2451.9c2.6,2.8,3.1,3.9,3.9,4.2c4.5,1.4,9.1,2.8,13.7,3.7c61.7,11.7,114.7,40.3,161.7,81.3c27.6,24.1,50.4,52,68.4,83.9
	c6.7,11.8,13,21.7,30.7,19.5c88.6-10.7,160.1-50.6,208.9-125.3c48.1-73.6,63.4-155.3,41.7-241.3
	c-29.5-116.7-102.5-191.6-220.7-219.6c-11.3-2.7-26.4-3.4-35.7,2c-19.3,11.2-35.5,27.4-49.2,46.3c4.5,5.7,8.5,9.8,11.4,14.6
	c9.6,15.5,6.8,23.9-10.3,30.9c-7.9,3.2-16.7,4.3-24.5,7.8c-18.2,8.2-37.2,15.3-53.6,26.3c-50.5,33.8-73.6,83.2-78,142.8
	c-2.9,39.5-4.9,40.6-43.1,34.7c-1.5-0.2-3.4,1.4-6.5,2.8C2363.3,2395,2356.9,2424.3,2350.9,2451.9z M2055.8,1560.7
	c3.6-1,5.5-1.3,7.1-2.1c2.5-1.3,5.1-2.8,7.1-4.7c45.3-45.1,96.2-81.1,158.6-98.6c12.5-3.5,16.6-11.8,15.4-23.7
	c-2.6-26.6-3.2-53.6-8.5-79.6c-37.6-183.8-224.9-262.2-364.9-220.9c-130.6,38.5-200.5,131.3-216.5,257c-1,8.1-0.1,16.5-0.1,27
	C1821.9,1374,1952.8,1427.4,2055.8,1560.7z M2322.1,1429.8c117.9-3.6,210.7,35.5,287.3,105.7c2.5-0.6,5.5-0.8,7.9-2.1
	c3.4-1.7,6.6-3.9,9.5-6.3c44.7-37.5,95.7-62.5,152.3-76.2c12.8-3.1,23.1-6,22.5-23.4c-3.1-89.8-32-168.1-99.9-229.7
	c-44-39.9-96.7-60.8-154.7-68.7c-105-14.3-191,22.8-261.4,99.8c-7.2,7.9-9.7,15.8-3.9,25.8c8.4,14.6,16.2,29.6,25.7,47.3
	c7.5-8.9,13.9-15.6,19.2-23.1c37.9-53,91.6-79,154-90.1c5.6-1,11.4-1.9,17-1.6c15.1,0.8,23.2,8.5,24.7,22.6
	c1.6,14.6-4.3,22.2-20.4,25.4c-10.3,2.1-20.8,3-31,5.3c-59.3,13.6-105.4,43.6-127.2,103.5c-1.6,4.4-3.1,9.7-6.5,12.5
	C2312.9,1377.1,2324.2,1403.2,2322.1,1429.8z M1146.4,1386.8c130.8-1.4,236.9,47.5,316.4,150.7c4.9-3.1,8.6-4.6,11.1-7.2
	c26.9-28.6,54.3-56.3,89.8-74.9c5.8-3,9.4-13.6,10.5-21.2c2.3-15,1.3-30.5,3.2-45.6c8.2-65.3,28.5-126.4,64.5-181.2
	c-62.2-81.8-201.5-120.9-317.1-75.9C1227.1,1169.4,1147.6,1266.6,1146.4,1386.8z M2137.4,497.9c-7.9,21.4-16.5,42.5-23.6,64.1
	c-48.7,148.4-67.7,301-62.5,456.8c0.4,10.8,3.1,21.6,5.7,38.3c56.5-48.8,108.5-93.7,161.5-139.4
	C2126.9,789.8,2104.9,649.4,2137.4,497.9z M2036,309.8c-71.6,141.7-121.3,620.1-73.2,712.5c-7.1-235,38.8-456.3,135.5-668
	C2078.9,340.5,2058.2,325.7,2036,309.8z M2299.1,1023.9c-15.9,18.2-29.3,33-42,48.3c-11,13.1-21.4,26.7-31.9,40.3
	c-4,5.3-7.6,10.9-11,16.7c-6.2,10.4-5.3,19.8,4.2,28c9.7,8.3,17.2,2.6,25.3-3.1c31-21.8,62.3-43.3,93.3-65.1
	c3.5-2.5,5.9-6.5,9.7-10.9C2330.9,1059.9,2315.9,1042.9,2299.1,1023.9z M1662.6,1106.1c12.3,9.5,22.5,17.4,32.7,25.3
	c28.3-17.5,54.7-33.8,83.1-51.4c-18.3-20.5-34.7-39.5-61.2-53.5C1699,1053,1681.5,1078.6,1662.6,1106.1z M1857.9,786.3
	c-3.1,1.9-6.1,2.6-6.8,4.3c-15.6,38.7-31.2,77.4-46.1,116.3c-1.7,4.5-1.5,13.7,1.3,15.4c17.6,11.4,32,29.2,56.3,32.6
	C1861,898.2,1859.5,843.2,1857.9,786.3z M2373.7,2304.9c8.1-23.8,13.9-47.2,24-68.5c10-21,24.4-39.8,40.4-65.2
	c-33.6,5.6-60.9,10.2-89.6,15C2357.2,2227.5,2365.2,2265.3,2373.7,2304.9z M2132.5,304.8c-12.1-36.3-28.7-61.3-57.2-77
	c-15.5,12-14.2,24.3-7.2,35.5C2081.4,284.6,2098.1,302,2132.5,304.8z M2137.2,1091.5c22-5.1,52-38,69.9-74.2
	C2178.6,1041.8,2153.1,1062,2137.2,1091.5z M2091.8,2696.7c-24.3,7.8-24.3,7.8-11.5,27.4C2084.3,2714.6,2087.4,2707.2,2091.8,2696.7
	z"/>
<path d="M1519.1,1731.3c7.1-20.6,12.2-42.1,21.7-61.6c34.5-71.5,89.6-117.8,169.5-130.9c8.5-1.4,19.9,0.2,26.4,5.1
	c14,10.7,10.2,29.6-6.1,36.7c-6.9,3-14.6,4.3-22,6.1c-74.6,18.2-116.8,68-136.3,140c-1,3.7-1.5,7.5-2.3,11.2
	c-4.6,22.7-10.1,28.1-26.1,26C1528.4,1761.7,1521.7,1752,1519.1,1731.3z"/>
<path d="M1135.1,1527.9c23.4,0.3,30.7,6.2,31.7,21.7c0.7,10.7-2.7,18.8-14.3,21.2c-6.5,1.4-13.1,2.4-19.6,4
	c-73.7,18.5-126.6,59.4-145.4,136.5c-1.1,4.6-2.3,9.2-3.5,13.8c-5.9,21.7-10.9,25.6-28.6,22.1c-16.9-3.3-20.3-9.3-18.1-32.1
	c3.4-34.2,17.8-64.3,37.6-91.4c34.3-47,80-78.1,136.8-92C1120.8,1529.5,1130.3,1528.7,1135.1,1527.9z"/>
<path d="M1756.7,1393.8c-11.1-2.2-18.7-3-25.8-5.2c-10.4-3.4-15.7-11.1-12.9-22c3.9-15.6,6.6-32,13.5-46.3
	c34.1-71.5,90.4-116.2,167.7-134c9.2-2.1,18.9-2.6,28.4-2.2c13.1,0.5,22,11,22.5,24.6c0.4,13-7.4,18.6-19,20.9
	c-11.2,2.3-22.5,4.2-33.4,7.2c-62.5,17-104.2,56.7-126.7,117.1C1766.4,1366.1,1762.1,1378.5,1756.7,1393.8z"/>
<path d="M1399.9,1173.1c17.1-0.1,24.1,4.8,26.9,19.1c2.8,14.3-2,20.1-19,26.3c-25.8,9.4-52.8,16.7-76.4,30
	c-38.7,21.7-65.9,54.3-74.8,99.6c-1.3,6.5-3.1,13-5.6,19.2c-3.6,8.9-7.3,17.8-20.2,15.6c-15.6-2.6-23.1-9.3-23.9-23.4
	c-0.2-3.8-0.1-7.7,0.8-11.3c23.5-93.8,89.3-155.7,183.6-174.3C1394.2,1173.3,1397.1,1173.3,1399.9,1173.1z"/>
</svg>
