<?xml version="1.0" encoding="utf-8"?>
<!-- Generator: Adobe Illustrator 24.3.0, SVG Export Plug-In . SVG Version: 6.00 Build 0)  -->
<svg version="1.1" id="Layer_1" xmlns="http://www.w3.org/2000/svg" xmlns:xlink="http://www.w3.org/1999/xlink" x="0px" y="0px"
	 viewBox="0 0 4000 4000" style="enable-background:new 0 0 4000 4000;" xml:space="preserve">
<path d="M1478.7,1309.1c-2.7-7.8-4.4-14.1-7.1-20c-44.4-98.9-105.5-186.2-184.6-260.2c-34.5-32.3-71.7-61.6-108.3-91.5
	c-20-16.3-25.8-28.6-19.2-48.8c6.4-19.7,19.5-28.5,43.8-29.6c85.3-4,169,4.8,250.7,30.5c6.3,2,12.8,3.2,22.6,5.6
	c-1-7.8-1.1-13.9-2.7-19.6c-30.7-106.6-73.7-207.8-131.4-302.7c-4.7-7.8-9.1-15.9-12.6-24.3c-12.2-29.7,7.2-57,39.1-53.4
	c45.7,5.2,88.8,20.6,130.8,38.6c34.1,14.6,67.3,31.3,103.4,48.3c0.8-8.2,2.1-15.3,2-22.2c-1.2-66.4-2.7-132.8-4.1-199.1
	c-0.2-8.3-1-16.7-0.1-24.9c2.7-23.2,23.6-38.4,46.3-33.2c9.6,2.2,19.1,6,27.8,10.6c61.2,32.4,118.6,70,165.6,121.7
	c1.7,1.8,3.5,3.6,5.5,5c1.3,0.9,3.1,1,7.7,2.2c3.3-7.4,7.1-15.1,10.3-23.1c39.1-99.1,85.1-194.5,147.8-281.2
	c4.4-6,8.8-12.1,14.1-17.4c18.1-18.3,42.3-17,57.9,3.5c4.9,6.5,8.4,14.2,11.6,21.8c41.6,100.7,71.3,205.2,99.4,310.2
	c3.1,11.7,6.5,23.4,10.9,39.2c9.8-9.4,16.9-15.9,23.7-22.8c44.4-45.1,92.4-85.8,145.7-120.1c6.3-4,12.7-7.9,19.5-11
	c28.4-13.4,57.9,4.1,57.5,35.3c-0.3,24-3.9,47.9-5.4,71.9c-4,64.6-7.7,129.2-11.4,193.8c-0.1,1.5,1.2,3,2.8,6.9
	c7.2-3,14.8-5.5,21.8-9.2c65.1-34.9,134.9-54.9,207.5-66c24.6-3.8,37.4,1.8,47.2,18.4c11.3,19.2,4.4,35.4-8.7,49.8
	c-42,46.5-77.1,97.9-105.5,153.4c-19.9,39-35.5,80.3-52.8,120.7c-1.9,4.4-2.3,9.3-4.2,17.2c10.1-1.8,18.1-2.5,25.7-4.6
	c69.7-18.5,140.6-23.3,212.3-19.1c9.9,0.6,20,1.7,29.4,4.8c28.6,9.3,36.3,45.5,14.3,66.1c-6,5.6-13.1,10.2-20,14.7
	c-46,30-88.5,64.5-128.6,102c-62.2,58.1-108.8,127.1-143.9,204.2c-7.5,16.5-6.7,19.1,8.1,28.4c106.9,66.9,189.9,157.2,256.9,263
	c97.2,153.7,154.5,322.3,187.7,500.1c34.4,184,38.9,369.5,28.9,555.6c-8.1,150.5-32.5,298.2-83,441.2
	c-89.5,254-252.6,440.8-498.8,553c-102,46.5-209.1,73.7-320.4,86.6c-131.7,15.3-262,8.6-390.7-21.6
	c-176.6-41.4-332.2-123.5-462.8-250.2c-93.2-90.4-159.2-198.9-206.4-319.5c-47.3-120.6-75.1-245.6-88.9-374.1
	c-10.9-101.7-15.7-203.6-13.3-305.7c4.7-197.5,29.3-391.9,93.3-580c53.9-158.5,133.7-301.3,250-422.9
	c51.4-53.7,109.2-99.2,172.7-137.8C1469.4,1315.6,1472.7,1313.1,1478.7,1309.1z M1658.3,2808.4c7.3-11.3,12.8-19.5,18-27.8
	c43-69.4,97.2-128.1,165.6-173c70.2-46.1,140.8-48.1,212-1.6c50.1,32.7,90.7,75,126.1,122.4c19.8,26.4,37.4,54.5,57.2,83.6
	c55.1-50.1,109.5-99.6,164.5-149.8c-141.8-131.8-282.3-262.4-422.1-392.4c-154,134.2-306.4,266.9-461.1,401.7
	C1564.3,2716.3,1609.7,2760.8,1658.3,2808.4z M1483.9,2633.6c7.2-5.1,11.4-7.7,15.1-10.9c50.8-42.6,101.8-85,152.3-128
	c37.3-31.7,73.9-64.1,110.9-96.1c8.3-7.2,16.1-13.3,10.4-27c-25.7-62.2-53.9-123-95.7-176.5c-23-29.5-47.4-57.6-79.3-78.2
	c-49.7-32.2-89.9-31.5-138.2,2.7c-2.7,1.9-5.3,4-7.9,6.1c-81.3,65.9-137.7,149.3-175.1,246.4c-4.6,12-1.8,20.1,6,29.2
	c55.6,64.8,110.8,129.9,166.4,194.7C1459.6,2608.5,1471.3,2620.1,1483.9,2633.6z M2436.5,2625.7c7.2-6.3,13.1-10.6,18.1-15.9
	c62.6-65.3,124.8-130.8,187.7-195.8c9.3-9.6,11.9-18,6.5-30.8c-29.3-69.3-67.3-133.3-117.8-189.2c-17.7-19.6-37.4-38-58.7-53.4
	c-54.3-39-99.2-36.9-152.5,4c-2.6,2-5.2,4.2-7.7,6.3c-68,55.6-111.6,128.3-145.7,207.6c-5.4,12.6-3.3,20.9,7.3,30.2
	c34.9,30.6,68.7,62.5,103.2,93.6C2329.1,2529.5,2381.6,2576.4,2436.5,2625.7z M1541.5,1837.5c-30.2,14.6-395.9,321.2-411,345.6
	c18.4,36,95.9,145.1,110.4,154.8c3.6-6.6,7.7-12.8,10.7-19.6c19.5-44.3,45.2-84.8,74.2-123.4c34.2-45.3,71.6-87.6,120.8-117.1
	c55.1-33.1,111.3-36.2,166.6-0.6c18.7,12,37,25.6,52.7,41.3c58.3,58.3,99,128.4,132.4,203.1c4,8.9,8.1,17.8,13.3,29
	c47.1-37.6,89.2-76.4,130.3-116.4C1807.3,2100.7,1674.8,1969.5,1541.5,1837.5z M2203.7,2839.2c-14.5-22.7-27-44.2-41.4-64.2
	c-36.5-50.6-76.5-97.8-129.2-133.1c-57.9-38.8-114.5-37.6-171.1,1.9c-2.7,1.9-5.4,3.8-8.1,5.8c-53.1,38.2-96.9,85.4-134.4,138.6
	c-10.8,15.3-18.9,32.6-29.6,51.5c83.1,73.8,164.7,146.3,248.3,220.5C2029.4,2990.4,2116.1,2917.8,2203.7,2839.2z M2427.4,1855.5
	c-27.7,16.5-399.4,362.8-410.3,382.7c35.3,33.7,70.9,67.7,108.7,103.8c7.1-13,12.4-23.1,18-33c18.3-32.5,35.2-65.8,55.5-97
	c25.4-39.1,55.6-74.9,93.5-102.5c74.9-54.4,131.3-51.5,195.5-9.7c25.4,16.5,48,38.2,69.4,59.9c49.9,50.9,85.7,111.5,116.3,175.5
	c3.7,7.7,8.7,14.7,14.2,24c44.7-52.9,86.3-103,124.9-156.8C2688.2,2081.2,2557.8,1969.7,2427.4,1855.5z M2438.7,2693.7
	c-49.7,44.7-99.8,90.6-150.7,135.5c-50.4,44.5-101.8,87.7-152.3,132c-50.7,44.4-104.5,85.2-155,131.2c46.8,38.2,90.7,74.2,136,111.2
	c5.2-8.7,9-14.1,11.9-19.9c24.4-48.4,54.2-93.3,89.1-134.6c34.4-40.6,71.2-79,118.2-105.5c49.3-27.7,99.7-30.9,148.8-1.1
	c21,12.8,41.9,28,57.9,46.4c23.3,26.7,42.1,57.3,62.8,86.2c5.5,7.6,10.9,15.3,18,25.4c48.7-57.1,93.5-112,133.2-168.7
	C2649.9,2851.9,2545.2,2773.5,2438.7,2693.7z M1977,2198.5c6.4-4.4,12.2-7.6,16.9-11.9c64.6-59.5,128.8-119.4,193.9-178.4
	c12-10.9,9.8-21.2,5.1-33.3c-20.4-52.7-44.5-103.8-79.2-148.6c-19.1-24.7-39.9-49.1-63.9-68.9c-53.8-44.1-102.6-44.1-158.7-3.4
	c-67.1,48.7-110,115.7-142.4,190.7c-6.4,14.9-4,23.6,7.1,34.5c49.8,48.6,98.7,98.1,148.1,147.1
	C1927.9,2150.4,1952.1,2174,1977,2198.5z M2385.8,1824.1c-5.5-5.9-9-10.3-13.2-14c-45-39.3-89.3-79.5-135.5-117.3
	c-78.3-64.1-158-126.5-236.7-190.2c-9-7.3-15.9-6.9-24.3-0.9c-5.4,3.9-11.2,7.2-16.5,11.2c-111.1,84.1-222.3,168.1-333.2,252.5
	c-15.1,11.4-29,24.3-44.7,37.5c41.9,43,82.5,84.8,125.1,128.5c6.3-12.2,11-20.9,15.3-29.7c20.8-43.7,46.9-84,77.7-121.2
	c22.3-27,47.3-51.2,77.1-70c59.9-38,120.8-39.8,179.6,0.4c25,17.1,47.8,38.7,67.8,61.5c37.3,42.7,65.9,91.4,89.2,143.1
	c6.8,14.9,13.8,29.8,22.5,48.5C2287.3,1916.1,2336,1870.6,2385.8,1824.1z M1265,3106.1c10.8-19.1,19.2-34,27.7-49
	c26.6-46.9,59.7-87.7,106.8-115.7c42.1-25,86-30.5,130.7-9.4c22.3,10.5,43.9,23.8,63.1,39.3c44.4,35.6,79.8,79.7,109.6,128
	c19.5,31.6,36.9,64.5,55.3,96.8c21-8.1,127.5-92,137.4-108.4c-141.4-125-281.2-252-412.9-386.6c-114.7,77.5-227,153.4-341.3,230.6
	C1179.1,2990.2,1220.8,3046.5,1265,3106.1z M1907.7,893.2c3.4-2.2,6.1-3,7.4-4.9c3.8-5.4,7.2-11.1,10.6-16.8
	c42.5-70.8,92.8-135.5,152.2-192.9c4.7-4.6,9.8-9.2,15.5-12.4c16.3-9.4,30.9-5.6,40,10.9c4.8,8.6,8.4,18.2,11,27.7
	c12.1,45.7,23.6,91.5,35.5,137.2c1.2,4.5,3.8,8.5,5.8,12.8c3.9-11.3,4-21.2,2.4-30.8c-12.7-77.7-24-155.8-39.1-233
	c-22.5-114.9-54.8-227.4-91.4-338.5c-2.9-8.9-4-19.3-16.1-26.6c-9.7,17.7-18.9,34.2-27.8,50.9c-59.1,111.1-102.5,228.6-139.8,348.2
	c-15.7,50.5-25.1,103.1-37,154.8c-2.6,11.3-2.8,21.4,6.8,32c18.9,20.7,35.2,43.8,52.6,65.9C1900,882.6,1903.6,887.8,1907.7,893.2z
	 M1722.1,3228.2c-2.3-6.7-3.4-11.5-5.6-15.9c-31.1-63.7-69-122.9-116.8-175.4c-21.3-23.4-44.7-44.5-72.7-59.8
	c-41.3-22.5-80.7-20.1-118.6,8.5c-48.3,36.5-81.3,84.3-106.6,138.4c-5.4,11.6-3.3,19.5,4.6,29c64.2,77.1,131.6,151.2,204.2,225.1
	C1584.2,3333.8,1651.4,3280.4,1722.1,3228.2z M2153.1,3231.8c67.3,48.7,132.9,96.2,199.1,144.1c8.2-6.6,14.4-10.7,19.6-15.8
	c60.8-61.2,121.5-122.5,182.1-183.9c9.3-9.4,17.8-19.6,26.9-29.3c7.1-7.5,8.6-14.9,3.3-24.6c-25-45.2-51.7-88.9-91.5-123.1
	c-51.3-44-98.5-46.3-153.6-7.4c-50.9,35.9-89.9,83.3-125.6,133.4C2190.3,3157.6,2170,3191.7,2153.1,3231.8z M2656.5,1576.5
	c-11.7-22.1-21.5-44.2-34.5-64.1c-10.3-15.8-22.6-31.5-37.4-42.7c-32.2-24.5-66.2-46.9-100.3-68.7c-28.3-18.1-58.2-16.8-87.4-0.9
	c-10.2,5.5-20.4,11.1-29.7,17.9c-64.1,47.5-109.4,110.1-144.6,180.7c-5.4,10.8-3.1,17.9,6.2,25.5c48.6,40,96.8,80.5,145,121
	c16.3,13.7,32.4,27.7,50.4,43.2C2501.6,1717.9,2577.9,1648.3,2656.5,1576.5z M1550.1,3415.6c42.5,38.4,83.9,75.8,127.6,115.2
	c5.4-9.5,9.3-16.5,13.2-23.4c9.6-17.4,18.5-35.3,29-52.1c32.1-51.1,70.8-96.3,122.7-128.3c56.1-34.5,114.9-42.8,174.6-10.6
	c23.1,12.5,44.9,28.5,64.5,46c41.9,37.5,71.5,84.6,98.4,133.5c4.2,7.6,9,14.7,15,24.4c40.9-38.6,83.8-69.6,118.8-108.9
	c-125.9-96.4-250.1-191.4-375.1-287.2C1810.9,3220.1,1681.3,3317.2,1550.1,3415.6z M1756.4,1602.6c-29-74.5-67.8-139.6-127.4-189.9
	c-18.6-15.7-41.7-26.5-63.6-38c-14.8-7.8-29.7-5.5-44.7,3.1c-51.3,29.5-99.3,63.5-141.1,105.3c-13.8,13.8-25.2,30.7-34.8,47.9
	c-12.1,21.5-10.1,24.7,7.8,42.7c52.7,52.8,105.2,105.8,157.9,158.7c11.6,11.6,23.5,22.9,36.5,35.5
	C1617.2,1712.4,1685.9,1658.2,1756.4,1602.6z M2154,3549.1c-27.2-69.3-65-126.9-120.4-171.7c-59.3-48-117.1-49.5-180.2-6.2
	c-5.5,3.7-10.7,7.8-15.9,12c-49.4,39.9-83.9,91.1-111.1,147.7c-11.1,23.3-10.3,27.9,11.6,43.4c29.7,21.1,60.8,40.1,90.7,61
	c13.4,9.4,27.4,15.2,43.5,16.1c31.4,1.8,62.9,4.6,94.3,4.7c11.8,0,24.3-4.7,35.1-10.1c20.7-10.3,41-21.8,60.4-34.4
	C2092.6,3591.8,2122.2,3570.8,2154,3549.1z M1817.8,1126c3-5,5.1-7.5,6.1-10.4c16.4-48.6,32.2-97.4,49.2-145.8
	c4.6-13,3.6-22.6-4.5-34.4c-39.9-58.5-86.1-111.2-138.3-159.2c-79-72.6-168.2-128.9-265.8-172.6c-4.4-2-9.9-1.4-15-2.1
	c0,3.4-0.3,4.3,0,5c2.2,4.5,4.4,8.9,6.7,13.3c51.8,99,89.1,203.3,110.7,312.9c2.6,12.9,8.8,19.7,20.5,25.1
	c79,36.6,148.8,86.5,210.1,148.3C1803.8,1112.4,1810.2,1118.6,1817.8,1126z M2171.6,1187.8c9.2-55-52.2-396.9-78.7-441.1
	c-98.9,79.2-229.6,331.1-222.9,432.5C1970.8,1169.9,2071.5,1173.9,2171.6,1187.8z M2935.7,2456.9c-32.8-15-85.2-6.8-115.6,16.7
	c-28.5,21.9-53.9,46.7-74.4,76.3c-47.5,68.5-77.3,144.3-93.7,225.8c-3.1,15.6,1.2,24.4,14.3,32.8c36.2,23.4,71.5,48.2,107.2,72.3
	c3.9,2.6,8.5,4.4,14.1,7.3c6-7,12.1-12.7,16.5-19.4c39.9-62,79.8-124,118.9-186.6c5.4-8.6,7.8-20.1,8.5-30.5
	c2.2-35.6,3.4-71.3,4.1-106.9C2936.2,2515.6,2935.7,2486.7,2935.7,2456.9z M1110.9,2884.7c6.2-1.6,7.9-1.7,9.3-2.5
	c46.2-27.7,92.3-55.6,138.6-83.3c12.1-7.2,9.8-17.9,7.8-28.6c-17.1-92.8-53-177.7-107.3-254.9c-15.4-21.8-32.9-41.7-56.1-55.7
	c-14.8-9-30.1-12.5-47.6-8.3c-21.5,5.2-23.6,5.8-23.1,27.8c1.7,78,3.5,156,6.3,233.9c1.4,37.8,11.3,73.4,32.9,105.5
	C1085.9,2839.7,1097.8,2862.4,1110.9,2884.7z M2581.2,676.6c-18.7-0.1-32.2,8.5-46.2,14.6c-123.7,53.5-228.3,133.3-319.7,231.6
	c-10.4,11.1-12.4,21.7-10,35.8c7.2,43.3,13.3,86.7,20,130.1c1.8,11.9,4.2,23.7,7,39.2c9.4-7,16-11.5,22.2-16.5
	c53.6-43.3,110-82.5,172.7-111.7c12-5.6,17.3-13.9,20.4-25.8c25.5-98.6,67-190.3,121.3-276.3
	C2572.8,691.3,2576.3,684.9,2581.2,676.6z M2935.5,2408.1c0-10.6,0.4-18.8-0.1-26.9c-1.4-23.1,2.9-49.1-6.3-68.6
	c-9.6-20.3-32.3-34.7-49.6-51.2c-9.9-9.4-20.5-18.1-30.1-26.5c-61.9,74.2-120.4,147.3-182.2,217.5c-61.6,70-126.5,137.1-190.9,206.6
	c44.1,35.2,86.6,69.2,128.8,103c2.3-1.8,4.2-2.6,4.6-3.9c2.9-8.6,5.9-17.2,8.2-26c13.1-51.7,31.4-101.3,56.7-148.2
	c25.7-47.7,55.8-92.5,97.7-127.7c42.7-35.9,90.6-57.9,148.6-48.1C2925,2408.6,2929.2,2408.1,2935.5,2408.1z M1799.6,1189
	c-68.2-77.8-145.9-135.3-235-177.5c-93.3-44.2-215.9-77.1-255.1-68.1c106.2,90.1,184.7,199.4,240.4,326.5
	C1630,1231.5,1711.5,1207.9,1799.6,1189z M1445.8,2661.7c-131.1-141.4-252.5-286.6-352.9-448.9c-13.6,10-23.7,18.8-35.1,25.4
	c-11.4,6.6-16,15.5-16.7,28.2c-2.3,43.1-5.3,86.1-7.7,129.2c-0.3,5.3,1.5,10.8,2.4,16.7c5.7-0.4,9.9-0.3,13.9-1.1
	c33.1-6.6,63.3,1.3,88.8,22.2c18.5,15.1,36.3,32,50.5,51c51.2,68.5,86.2,145.2,108.9,227.6c4.1,14.9,8.1,29.8,13.2,48.8
	C1358.1,2728.6,1402.2,2698.5,1445.8,2661.7z M2837.4,2156.6c4.1-3.1,7.4-4.6,9.1-7.2c15.6-23.4,31.5-46.7,46-70.8
	c3.4-5.6,4.1-14.5,2.6-21.1c-21.5-95.5-50.2-188.8-90.5-278.3c-14.9-33-24.2-35.7-53.5-14.8c-3.4,2.4-6.5,5.2-9.6,7.9
	c-58.9,49.9-87.4,117.3-108.7,188.8c-2.3,7.6-0.8,13.4,6.1,19.5c55.4,48.6,110.2,97.9,165.3,146.9
	C2815.1,2137.2,2826.2,2146.8,2837.4,2156.6z M2873.7,2997.1c-16.9-10.3-33.7-20.8-50.7-30.8c-21.9-12.9-22-12.7-37.7,8.1
	c-80.8,106.6-167.5,208.2-262.5,302.4c-36.5,36.2-72.9,72.6-109.3,109c-5.5,5.5-10.3,11.7-17.6,20.2c45.9,25.4,88.6,49,131.2,72.7
	c9.9,5.5,18.7,3.6,28.1-1.8c18.2-10.5,25.7-25.2,27-46.7c5-85.2,34.6-161.9,86.7-229.2c34.1-44,78.7-68.6,136.4-60.1
	c14.7,2.2,21.7-2.8,26.1-15.5c13.7-39.1,27.6-78.1,41.3-117.3C2873.6,3005.2,2873.3,3001.8,2873.7,2997.1z M1510.4,1797.9
	c-73.1-74-143.9-145.7-215-217.6c-5.5,3.9-9,5.2-10.7,7.6c-23.2,34.3-46.2,68.7-69,103.3c-7.1,10.7-4,18.8,5.9,27.7
	c15.9,14.3,31,29.9,44.1,46.7c31.6,40.4,50,87.5,66.7,135.4c3.4,9.8,7,19.6,11.7,32.6C1400.5,1887.7,1454.1,1843.9,1510.4,1797.9z
	 M1191.3,1741.4c-7.2,12-11.9,18.6-15.4,25.9c-45.7,95.4-78.3,195.2-99.6,298.7c-1.6,7.7-2.2,17.3,0.9,24.1
	c7.1,15.5,16.8,29.9,26.8,46.9c10.7-8.7,19-15.2,27-22c30.4-25.7,60.7-51.5,91.1-77.1c24.1-20.3,48.3-40.4,72.4-60.7
	c7-5.9,13.2-11.4,9.9-23c-16.2-56.8-35.8-112.2-70.1-161.1C1222.7,1776.3,1208.2,1761.5,1191.3,1741.4z M2457,1280.5
	c49.4-116.5,126.4-208.2,218.4-288.9c-169,17.9-310.7,89.4-433.3,210C2317.5,1220.7,2387.6,1244.5,2457,1280.5z M1468.9,3406.4
	c-36.7-40.1-70.2-76.6-103.7-113.1c-92.5-101.1-178.2-207.4-253.4-322.1c-5.5-8.4-9.2-22.8-23.5-15.4c-11.5,6-5.7,17.8-2.9,26.8
	c21.3,68,41.4,136.5,76.2,199.3c5.4,9.6,14.4,17.4,22.2,25.5c13.1,13.6,28.4,25.5,39.5,40.5c13.7,18.6,25.9,38.7,35.4,59.7
	c24.1,53.2,56.4,99.2,105.6,132c0.7,0.5,1.3,1.1,1.8,1.7c8.9,11.5,19,10.7,30.6,4c20.8-12,42-23.4,63-34.9
	C1462.8,3408.8,1466,3407.6,1468.9,3406.4z M2409.8,1349.6c-6.5-3.9-11-7.4-16.1-9.5c-26.8-11.2-53.9-21.4-80.4-33.2
	c-16.1-7.2-29.1-4.5-44.3,3.8c-77.2,42.4-149.3,92.5-221.7,142.2c-5,3.5-9,8.5-13.8,13.2c49.8,39.9,97.9,78.4,147.1,117.8
	c10-17.1,18.4-32.3,27.6-46.9c40.9-65.1,87.6-125,155.1-165.1C2377.5,1363.6,2392.9,1357.6,2409.8,1349.6z M2769.2,1706.2
	c-21-35.8-39.6-72.4-65.5-108.7c-83,75.3-164.5,147.2-242.7,223.6c45.3,40.1,88.5,78.3,133.9,118.5c4.4-11,7.6-20.1,11.6-28.8
	c12.5-27.9,23.2-56.9,38.4-83.3c28.3-49.4,62.2-94.2,118.9-114.9C2765,1712.1,2765.8,1710.2,2769.2,1706.2z M1947.5,1463.7
	c-4.4-5.4-5.6-7.8-7.6-9.2c-71.7-52.2-143.5-104.3-215.1-156.5c-9.4-6.9-18.6-4.8-28.2-0.9c-18.4,7.5-36.9,14.8-55.3,22.3
	c-14.4,5.9-28.6,12-45.5,19.2c97.5,53.4,150.3,141,199.6,234.1C1846.8,1535.8,1896.3,1500.4,1947.5,1463.7z M1783,1279.2
	c68.7,50.1,137.3,100.2,207.5,151.4c6.6-3.7,14.6-7.9,22.2-12.7c64.2-41,128.4-82.2,192.4-123.5c4.8-3.1,8.5-8,14.1-13.3
	C2107.6,1248.6,1849.3,1249.1,1783,1279.2z M1784.2,735.5c1.1-2,2.7-4,3.4-6.3c15.1-54.3,30.2-108.5,44.6-163
	c1.4-5.3-0.4-13.1-3.6-17.9c-35.1-52.2-79.1-95.7-130.7-131.6c-3.7-2.6-8.4-3.7-16.1-6.9c0,83.1,0,163.2,0,241.9
	C1715.3,679.1,1749,706.7,1784.2,735.5z M2247.5,806.2c8.6-6.9,14.2-11.4,19.8-15.9c23.2-18.7,45.8-38.3,69.8-55.7
	c12.1-8.8,16.5-18,16.9-32.8c2-62.9,5.4-125.8,8.4-188.7c0.8-16.2,1.9-32.3,3.2-53.7c-10.4,7-16.6,10.5-22,14.9
	c-46.9,38.8-84.3,86.6-123.7,132.5c-6.4,7.4-5.2,14.6-3.5,23.1c6.5,32.5,12.4,65.1,18.2,97.7C2239,752.6,2242.8,777.7,2247.5,806.2z
	 M2490.9,3517.2c-39.8-24.5-75.7-46.6-111.6-68.8c-20.5-12.7-21.5-12.1-40.4,4.7c-37.2,33-73.9,66.7-112.7,97.8
	c-39.4,31.5-81.1,60.2-121.7,90.3c-1.5,1.1-1.5,4.1-3.1,8.8C2239.5,3629.7,2370.2,3594.5,2490.9,3517.2z M1708.7,3619.5
	c1-1.6,2-3.3,3-4.9c-13.2-10.9-26.5-21.7-39.6-32.7c-46.8-39.4-93.5-78.9-140.1-118.5c-6.3-5.3-11.1-12.5-17.8-17.2
	c-4-2.9-11.7-5.4-15.2-3.5c-24.4,13.4-48.1,28.1-75.9,44.7C1514.4,3548.1,1606.9,3594,1708.7,3619.5z M2801.1,3184.6
	c-1.3-2-2.6-4.1-3.9-6.1c-13.6,2.4-27.7,3.4-40.8,7.5c-22,6.9-38.5,22.6-53.3,39.6c-42,48.5-62.6,106.7-74.9,168.4
	c-1.1,5.3-0.1,11-0.1,22.2C2702.7,3347.2,2758.9,3271.1,2801.1,3184.6z M2831.8,2913c17.5,15.8,34.8,26.8,55.1,33.7
	c20.1-60.3,35-142.9,28.4-161.7C2887.6,2827.5,2860.6,2868.8,2831.8,2913z M2912,2148.7c-2-0.4-3.9-0.7-5.9-1.1
	c-10.1,15.5-20.1,30.9-29.8,45.8c15.7,20.7,30.3,30.9,50.3,35C2921.6,2201.5,2916.8,2175.1,2912,2148.7z"/>
</svg>
