<?xml version="1.0" encoding="utf-8"?>
<!-- Generator: Adobe Illustrator 24.3.0, SVG Export Plug-In . SVG Version: 6.00 Build 0)  -->
<svg version="1.1" id="Layer_1" xmlns="http://www.w3.org/2000/svg" xmlns:xlink="http://www.w3.org/1999/xlink" x="0px" y="0px"
	 viewBox="0 0 4000 4000" style="enable-background:new 0 0 4000 4000;" xml:space="preserve">
<path d="M1231.2,882.4c-18.5-11.5-30.9-19.2-43.2-26.9c-50.6-31.9-93-72.4-123.6-123.8c-8.5-14.2-14.4-31.6-15.9-48
	c-2.3-25.5,14-38.7,39.3-35c9.6,1.4,19.3,4.3,28,8.6c68.5,34,142.9,42.9,217.4,49.8c49.6,4.6,99.5,6.5,157.7,10.1
	c-10.9-12.6-15.9-18.7-21.3-24.4c-53.5-56.7-99.3-118.5-125.6-192.8c-6.5-18.4-11.1-37.6-15.2-56.7c-3.5-16.4-1.1-31.4,13.8-42.8
	c15.9-12.1,30.2-5.8,44.3,2.5c47.6,28,94.2,57.6,142.5,84.1c58,31.9,117.7,60.7,175.9,92.1c27.9,15.1,54.2,33.2,84.4,52
	c1.8-9.5,4.5-17,4.6-24.6c1.5-129.4,17.3-256.8,52-381.6c8.2-29.4,18.3-58.6,30.9-86.4c15-33.1,32.8-42.8,68.1-34.4
	c51.6,12.4,99.6,34.7,141.1,68.5c23.4,19.1,29.6,43.5,17.4,72.5c-22.2,53.1-45,106.1-64.9,160.2c-26.4,71.7-40.5,146.5-49.4,222.2
	c-0.5,4.6-0.1,9.3-0.1,19.2c12.6-6.5,22.5-10.1,30.7-16.1c63.8-46.7,135.3-78.9,207-111.1c77.1-34.7,152.7-72.6,228.9-109.1
	c6.6-3.2,12.9-7.5,19.8-9.6c27.7-8.4,50.7,8.4,47.6,37.2c-2.2,20.4-8.2,41-16.4,59.9c-30,69.1-68.8,132.8-123.6,185.6
	c-8.6,8.3-16.8,17.1-27.8,28.4c8,3.2,12.2,6.3,16.2,6.1c121.6-4.6,242.4-15.4,358.7-54.6c23.2-7.8,45.3-18.7,68.2-27.3
	c12.5-4.7,25.6-9.6,38.7-10.4c21.8-1.4,35.4,12.8,32.5,34.5c-2.1,15.5-7.1,31.3-14.2,45.2c-26.9,53.2-63.3,98.9-111.3,135.1
	c-13.2,9.9-25,21.6-43.7,37.9c33.4,5.5,58.3,9.7,83.2,13.6c292.9,45.3,531.2,180.8,702.2,426.5c143.1,205.7,213.7,436.9,236.8,684.1
	c22.7,242.2-0.1,480.1-72.8,712.7c-62.3,199.5-160.2,378.9-300.6,534.5c-114.1,126.6-250.5,223.2-402.4,298.8
	c-178.3,88.8-367.4,143-564.2,170.8c-196.3,27.8-393.3,30.4-591.1,17.1c-132.6-8.9-263.3-28.2-391.9-60.8
	c-282.5-71.6-534.6-199.2-741.7-407.9c-191.7-193.2-312.7-424.8-375.7-688.6c-33.3-139.4-48.6-280.6-47.4-423.2
	c2.1-265.8,60.4-518.3,194.8-749.9c137.9-237.7,339.3-397.1,602.4-476.6c58.4-17.6,119.2-27.2,178.8-40.6
	C1215.6,888,1220,886.1,1231.2,882.4z M1520,977c-40.7-20.1-121.4-35-179.5-31.8c-98.1,5.5-195.1,17.7-289.4,48.3
	c-243.6,79.1-432,226.8-562.9,447.4c-107.2,180.7-165.9,377-180.8,585.4c-15.8,222,4.3,441.2,73.1,654.4
	c83.2,258.1,230.4,472.7,441.5,642.6c195.9,157.6,421.4,253.2,665.5,306.1c158.7,34.4,320,48.8,482.2,50
	c146.1,1.1,291.5-9.8,436.2-32.4c238-37.3,460.6-113,662.3-248.3c225.6-151.3,383.8-355.9,484.7-605.3
	c90.1-222.8,121.8-456.2,111.7-695.7c-9.1-216.1-55.8-422.8-156.7-615.2c-103.9-198.2-252.9-351.2-457.8-446.4
	c-124.2-57.6-255.9-83.3-391.6-91.9c-65.2-4.1-129.6-1.8-192.8,19c-27.7,9.1-57.6,11.8-86.3,18.1c-8.8,1.9-17.2,5.9-27.7,9.5
	c4.2,5.4,5.9,8.7,8.5,10.7c108,82,173.2,191.7,207.6,321.2c2.5,9.4,4.7,19.2,5.3,28.9c2.5,36.2-18.7,52.2-53.4,40.2
	c-10.3-3.6-19.9-9.4-29.7-14.6c-124.4-66.4-248.8-132.8-373.3-199c-8-4.2-17.1-6.2-27.8-10c-5.6,41.2-8.9,79-16,116.1
	c-20,104.9-58,202.8-122.6,288.6c-37,49.1-62.8,47.2-95.1-3.8c-1.3-2.1-2.4-4.3-3.7-6.4c-58.7-98.5-94.6-204.4-104.4-318.9
	c-2.3-26.3-5-52.6-7.9-82.2c-13.7,5-24,8.2-33.8,12.5c-121.3,53.5-239.4,113.3-351.7,184.1c-15.4,9.7-31.9,19-49.2,24.4
	c-26.9,8.4-46.5-7.2-45.7-35.6c0.5-15.7,4.3-31.6,8.4-46.9c34.7-127.8,113.2-223.8,219.2-299.6C1497.1,993.2,1507.7,985.8,1520,977z
	 M1175.9,749.7c-1.2,2.1-2.3,4.3-3.5,6.4c18.1,13.7,35.5,28.4,54.4,40.8c51.6,34.1,108.5,57.5,167.6,74
	c67.2,18.8,135.7,33.2,203.4,50.2c14.1,3.5,28.6,8,41,15.3c18.2,10.8,19.3,28.4,3.4,42.6c-10,8.9-22.5,14.8-33.4,22.7
	c-48.6,35.3-98.5,68.8-145,106.7c-46.1,37.6-80.5,85.7-106.2,139.6c-3.8,8.1-5.8,17-10.3,30.5c13.3-5.8,21.2-8.7,28.6-12.7
	c74.7-39.6,148.7-80.7,224.2-118.8c51.4-25.9,104.3-49,157.6-71c36.3-15,56.1-0.3,57.4,39.2c0.4,13.5-0.7,27-1.1,40.5
	c-3.3,113.4,16.2,222.3,65.7,325c6.2,12.8,13.5,25,22.8,42.1c9.7-13.4,16.5-21.5,21.9-30.5c63.2-105.7,96.5-219.5,92-343.4
	c-0.6-15.9-1.4-32,0-47.8c2.6-29.3,17-37.8,45.4-28.2c5.8,2,11.4,4.6,16.8,7.5c128.5,69.1,257,138.3,385.5,207.3
	c6.8,3.7,14.4,5.9,27.8,11.3c-6.5-17.5-10.2-28.9-14.9-39.8c-45.1-104.4-116.8-186.3-210.8-249.4c-10.2-6.8-20.7-13.3-30.4-20.7
	c-10.9-8.3-23.5-19.2-16.6-33.1c5.2-10.5,18.2-18.1,29.2-24.4c7-4,16.7-3.2,25.2-4.5c84.9-12.4,170.2-22.1,252.3-48.9
	c84-27.3,161-66,223.6-129.7c5.1-5.2,8.3-12.4,15.5-23.3c-15.6,3.4-25,5.5-34.4,7.6c-50.2,11.3-99.8,26.7-150.6,33.2
	c-122.8,15.7-246.1,27.2-369.2,40.6c-15.5,1.7-29.2,1.9-37.3-15.1c-8.4-17.9,2.7-28.6,14.2-37.5c23.3-17.9,47.8-34.4,72-51.1
	c61.3-42.5,112.7-94.5,152.1-157.9c7.3-11.7,12.2-24.9,20.2-41.5c-10.3,1.9-13.9,1.9-16.9,3.3c-66.7,31-132.9,63.2-200.2,92.9
	c-76.9,33.9-146.2,79.8-214.4,128c-22.7,16-32.1,35.6-28,62.8c2.4,15.7,4.1,31.7,4.3,47.6c0.4,47.7-23.8,73.8-70.1,77.2
	c-59.6,4.4-82.6-12.3-89.3-66.2c-3.3-26.8-6.9-53.8-6.6-80.6c0.4-32.5-14.8-51.6-41.8-66.9c-107.9-60.9-215-122.9-322.6-184.4
	c-5.8-3.3-12.6-4.8-24.7-9.2c7.5,29.6,20.7,50.3,37.4,67.2c43,43.6,87.6,85.6,132.1,127.6c15.1,14.3,33.1,25.7,47.6,40.5
	c6.6,6.8,13,20.4,10.4,27.7c-2.8,8-15.6,13.7-25.1,17.8c-6.3,2.7-14.5,1.3-21.8,1c-133.7-5.2-267.3-10.8-399-36.6
	C1194.3,751.4,1185,750.8,1175.9,749.7z M1932.8,167.5c-7.6,19-14.3,32-18.1,45.7c-11.3,41.4-23.9,82.6-31.7,124.7
	c-29.8,162.1-21.8,324.7-1.3,487.1c1,7.8,8.7,19.8,14.7,20.8c12.9,2,13.5-10.6,13.9-20.5c0.3-6.1-0.2-12.3,0.1-18.4
	c2.5-47.7,3.2-95.5,8-143c13.8-137.7,50-269.5,107.8-395.3c6.5-14.2,12.1-28.8,19.7-47C2008.3,203.6,1973.5,186.9,1932.8,167.5z"/>
<path d="M1425.1,2338.4c78.5,0.5,139.3,63.3,137.3,141.9c-1.8,71-69,134.7-140.3,133.2c-71.9-1.5-134-63.7-134.1-134.5
	C1287.9,2404.8,1353.1,2337.9,1425.1,2338.4z"/>
<path d="M2313.3,2475.7c3.9-88.6,73.1-138.6,138.3-138c76.8,0.8,137.1,65.7,134,141c-3.2,77.4-68.4,137.3-145.5,133.8
	C2371.7,2609.4,2310.2,2543,2313.3,2475.7z"/>
<path d="M1941.4,2760.6c-89.9-4.3-157.9-52-178.8-129.5c-2.8-10.5-4.7-21.7-4.2-32.5c0.8-15.8,7.9-27.9,25.9-30.4
	c19.1-2.6,29.4,3.1,36.5,21.9c1.3,3.4,2.3,7,2.7,10.6c7.8,72.4,94.1,99.9,150.5,83c43.3-12.9,73.8-36.5,83.7-82.7
	c3.5-16.2,6.8-34.9,29.6-36.4c26-1.6,40.4,16.3,36.1,46.9c-8.7,62.3-42.5,106.4-101.2,128.8
	C1996.6,2750.1,1968.5,2754,1941.4,2760.6z"/>
<path d="M525.9,1839.8c0.8-10.3,0-20.3,2.4-29.5c46.3-175.8,128.3-330.5,270.4-448.3c55.8-46.3,117.3-84.3,185.8-109.5
	c12.9-4.7,29.2-16,37.7,4.3c8.8,20.9-10.8,23.8-23.6,29c-210.4,85.7-339.7,245.3-414.2,454.6c-9.8,27.6-18,55.9-26,84.2
	C554.2,1839.8,548.3,1849.7,525.9,1839.8z"/>
<path d="M1283,2846.4c-44.3,1.9-89.4-7.9-131.5-29.2c-49.2-24.9-53.4-71.3-9.7-104.8c12.4-9.5,26.8-17.7,41.6-22.7
	c64.5-21.5,129.5-21.7,194.4-1.2c10.4,3.3,20.5,7.8,30.4,12.6c23.9,11.5,38.6,30.3,39.3,57.2c0.8,27.4-14.2,47.9-37.9,57.9
	c-27.8,11.7-57.7,18.8-87,26.6C1310.9,2845.8,1298.3,2845.1,1283,2846.4z M1275.4,2816.3c0.5-1.7,0.9-3.4,1.4-5
	c19.5-1.8,39.4-1.8,58.3-6c20-4.5,40.6-10.5,58.4-20.4c27.3-15.1,26.6-36.7,0.7-53.3c-4.1-2.6-8.4-5.1-12.9-6.9
	c-69.8-27.3-139-23.3-206.6,6.5c-10.6,4.7-23.5,18.6-23.7,28.5c-0.1,9.8,12.6,25.1,23,28.7C1207,2799.9,1241.5,2807.3,1275.4,2816.3
	z"/>
<path d="M2601.5,2845c-40.3,2.9-77.4-4.6-113.3-18.2c-11.4-4.3-22.7-9.7-32.7-16.5c-35-24.1-38.3-61.1-7.5-90.3
	c10.4-9.9,23.2-18.7,36.5-24.1c80.3-32.5,160.1-31.1,238.5,6.6c20.6,9.9,37.1,24.2,41,48.5c4.5,28.1-8.8,52.2-39.4,68.1
	C2685.6,2839.4,2643.4,2845.8,2601.5,2845z M2586.6,2709.1c-29.1,0-67.9,4.7-102.5,25.6c-30.3,18.3-30.3,38.3,1.3,53.1
	c72.4,33.9,146.2,34,219.9,2.8c12.5-5.3,27.7-13,24.5-28c-2.4-11.1-13.2-23-23.5-29.4C2673.1,2712.4,2635.4,2708.1,2586.6,2709.1z"
	/>
<path d="M1016,1370.4c16.5,25.1,16.1,30.9-3.3,42.2c-18,10.5-37,19.2-54.6,30.4c-135.5,86.5-212.5,214.1-253.8,365.7
	c-12.5,45.9-20.2,93.2-30.1,139.9c-27.6,3.9-33.2,0-28.3-26.5c8-43.3,16.5-86.8,28.4-129.1c33.6-120.1,89-228.3,182.2-313.9
	C904.3,1435.1,956.4,1397,1016,1370.4z"/>
<path d="M2937.3,3211.3c-2.5-1.3-9.2-2.7-10.1-5.7c-1.4-4.9-0.8-13,2.4-15.9c8-7.3,17.5-13.3,27.2-18.5
	c154.1-83.1,257-208.5,310.7-374.9c4.1-12.9,6.4-35.8,24.5-30.7c21.5,6.1,9.8,26.2,5.3,40.7c-55.1,175.7-162.3,308-327.1,392.2
	c-7.6,3.9-15.6,7.1-23.5,10.5C2944.6,3209.9,2942,3210.1,2937.3,3211.3z"/>
<path d="M3351.6,2956.8c-3.8,8.3-6.5,15.1-9.8,21.5c-73.6,139.3-181.8,245.1-316.2,325.2c-11.9,7.1-25.1,19.1-39.5,5.1
	c-9.2-8.9-3.1-21.8,21-36c71.3-41.9,136.1-91.6,191.4-153.4c41.8-46.7,79.5-96.4,106.9-153.2c3.2-6.6,5.9-15,11.4-18.3
	c6.2-3.7,15.6-4.2,23.1-2.9C3344.3,2945.5,3347.6,2952.5,3351.6,2956.8z"/>
<path d="M530.9,2096.4c-20,3.2-31-4.4-30.8-20.1c0.5-44,2.6-88,5.4-131.9c0.9-13.5,9.4-22.3,27.7-20.1c10.4,27.8-0.9,56.5-0.1,84.7
	C533.9,2037.9,531.8,2066.9,530.9,2096.4z"/>
<path d="M2928.9,3314.8c8.9,16.5,4.3,28.1-7.7,33.7c-23.1,10.8-47.1,20-71.4,27.6c-5.1,1.6-17.4-5.7-19-11.1
	c-1.6-5.5,4.1-17.6,9.6-20C2869,3332.5,2897.6,3319.3,2928.9,3314.8z"/>
</svg>
