<?xml version="1.0" encoding="utf-8"?>
<!-- Generator: Adobe Illustrator 24.3.0, SVG Export Plug-In . SVG Version: 6.00 Build 0)  -->
<svg version="1.1" id="Layer_1" xmlns="http://www.w3.org/2000/svg" xmlns:xlink="http://www.w3.org/1999/xlink" x="0px" y="0px"
	 viewBox="0 0 4000 4000" style="enable-background:new 0 0 4000 4000;" xml:space="preserve">
<path d="M3335.6,2401.8c4.8,190.2-32.9,381-108.8,564c-78.5,189.2-197.6,348.9-357.3,477.5c-191.9,154.5-411.7,244.6-654.3,282.2
	c-126.3,19.6-253,25-379.7,10.6c-375.2-42.8-691.9-198.6-930-496.8C780,3082.3,702.5,2901.1,662.7,2704
	c-26.4-130.4-34.6-262.3-24-394.7c13.4-168.2,55.3-329.9,120.3-485.7c50.6-121.3,115.2-235.5,177-351.1
	c65-121.5,121.5-246.3,156.1-380.2c25.6-98.7,49.1-197.9,76.9-295.9c35.4-124.9,87.4-243.2,163.6-348.9
	c175.7-244,415.1-358.5,715.2-342.1c161.2,8.8,307,63.1,434.4,163.4c85.3,67.2,151.6,151.1,205.7,244.8
	c70.5,121.8,116,253.2,148.7,389.4c28,116.4,54.1,233.2,96,345.7c36.4,97.9,86.6,189.1,137.1,280.1
	c87.2,156.9,164,318.2,212.4,491.8C3316,2142.5,3336.3,2266.4,3335.6,2401.8z M2016.7,3685.7c20.8-1.3,41.6-2.8,62.3-4
	c142.3-8.2,279.9-37.6,413.1-89c146.4-56.5,278.5-136.3,394.5-241.5c122-110.5,215.6-242,281.7-393
	c88.5-202.3,121.9-413.5,107.8-633.6c-11.5-179-57-349.1-129.3-511.8c-43-96.8-92.4-191.1-143.9-283.8
	c-94.1-169.6-165.1-347.2-204.8-537.5c-28.4-135.8-67.3-268.6-130.9-392.8c-56-109.6-126.1-208.8-224.5-284.6
	c-167.1-128.7-357.2-175.1-564.6-144.8c-219.8,32.1-387.8,148.2-510.5,331.2c-81.6,121.6-131.9,256.9-168.1,397.9
	c-23.6,91.7-44.9,184.1-71.5,274.9c-41.7,142.7-110.6,273.7-181.6,403.5c-63,115.1-123.5,231.2-167.9,355.2
	c-88,245.8-109.8,496.5-60.1,753.1c43.2,222.9,138.3,420.1,292.7,587.2c112.8,122.1,244.5,218.4,396.3,288
	C1601.3,3649.1,1804.5,3688.2,2016.7,3685.7z"/>
<path d="M3147.8,2390.4c-2.8,224.8-44.5,415.3-141.3,591.6c-121.7,221.9-300.9,380-535.4,475.4c-178.4,72.6-363.9,104.4-555.9,92
	c-301.9-19.5-567.4-125.3-782-343.6c-109.6-111.6-187.2-243.9-238.7-391.5c-51-146-76.1-296.3-69.2-450.9c6-136,34.2-267.9,80-396.2
	c41.4-116,91.9-228,153.1-334.6c114-198.6,194-409.2,241-633.2c27-128.6,65.5-253.9,127-370.9c36.5-69.5,79.9-134.2,135.5-190
	c90.3-90.6,201.4-138.9,326.5-155.9c124.2-16.9,245.2-2.4,361.5,45.4c80.5,33.1,147.5,84.2,203.5,151
	c84.6,101,136.7,218.9,175.5,342.4c33.3,106.1,59.2,214.7,85.2,322.9c34.1,141.8,89.9,274.5,157.1,403.3
	c49.6,95,99.5,190,143.8,287.5c56.2,123.5,99.8,251.7,117.1,387.2C3140.3,2286.1,3144.2,2350.6,3147.8,2390.4z M3109.9,2419.5
	c-0.6-180.4-38-353.1-106-519.7c-48.9-119.7-110.8-232.9-170.4-347.3c-62.7-120.3-116.9-243.9-149.7-376.1
	c-18.5-74.7-35.6-149.8-54.1-224.5c-34.4-139.2-82.2-272.7-163.1-392.8C2394.6,452.3,2299,378,2175.3,341
	c-95.2-28.5-192.3-35.3-290.4-20.3c-141.1,21.5-257.8,87.1-343.7,201.5c-34.8,46.3-65.1,96.7-92,148.1
	c-61.4,117-95.4,244-123.3,372.3c-40.7,187.3-103.5,366-195.3,534.5c-67.7,124.3-133.3,249.5-183.9,382.2
	c-93.7,245.8-110.2,496.2-46,751.1c65.7,260.6,212,465.4,435,614.7c166.3,111.3,351.6,170,549.9,185.6
	c266,20.9,515.3-32.2,742.5-176.7c133.1-84.7,241.6-193.9,323.6-328.6C3061.3,2825.7,3109.7,2628.9,3109.9,2419.5z"/>
<path d="M2720.7,2406.1c-1.7,307.6-189.9,582.8-475.4,692.9c-113.8,43.9-232,55.3-353,39.9c-147.4-18.8-279.4-73.9-391.3-171.9
	c-139.6-122.3-224-278-243.9-461.4c-32-295,72.5-535.1,315.6-709.3c98.9-70.8,210.6-110.6,332.6-123.2
	c193-19.9,367.7,26.4,523.3,141.2c127.3,94,209.8,220.7,257.4,370.6C2711.9,2266.1,2721.1,2329.9,2720.7,2406.1z M1309.2,2404.8
	c-0.1,377.7,285.5,682.5,675.4,682.4c407.5-0.1,683.2-336.1,679.5-687.9c-3.9-371.5-305.6-675.1-678.3-673.5
	C1607.7,1727.4,1308.2,2035.9,1309.2,2404.8z"/>
<path d="M2284.8,2511.9c-43.3,0.3-80.9-37-81.8-81.3c-1-47.4,39.1-90.8,83.9-90.8c45.7,0,85.1,37.8,85.4,81.8
	C2372.6,2471.5,2333.7,2511.6,2284.8,2511.9z"/>
<path d="M1663.3,2342.9c48.2,0.8,84.5,36,84.3,81.8c-0.3,50.8-35.7,85.7-87.2,85.8c-42.5,0.1-80.7-41.7-79.8-87.3
	C1581.6,2379.2,1619.7,2342.2,1663.3,2342.9z"/>
<path d="M1981.4,2606.8c-47-3.7-89.2-30.4-105.7-70.3c-2-4.8-3.7-9.7-4.9-14.8c-5.1-20.6,0-36.2,12.9-40.4
	c13.5-4.4,23.1,3.3,32.3,26c17.1,42.4,56.4,59.4,97.6,39.8c11.1-5.3,19.3-17.7,27.4-28.1c4.2-5.4,5.3-13.4,7.7-20.3
	c4.2-11.8,10.5-20.6,25-17.5c14,3,22.2,14.5,19.4,30.6c-5.2,29.8-17.7,56.8-45.1,71.3C2027.2,2594.1,2003.6,2599.1,1981.4,2606.8z"
	/>
<path d="M1430,2322.8c7.4-30.1,12.4-56.7,20.4-82.4c26.5-85.2,68.3-162.6,123.4-232.8c8-10.1,14.8-25.1,31.9-17
	c11,5.1,8.4,15.9-6.7,36.7c-62.1,85.8-111.5,177.6-132,282.9c-1,5.1-2.9,10-4,15.1c-1.9,9-6.5,17.6-16.2,14.1
	C1439.8,2336.7,1435.1,2328,1430,2322.8z"/>
<path d="M1569.8,2652.1c-19.2-3.9-38.8-6.4-57.4-12.1c-10.4-3.2-20.7-10.3-28.5-18.1c-19.4-19.2-18.9-38.7,2-56.1
	c10.1-8.4,22.6-15.3,35.1-19.1c36.7-11.1,73.9-9.7,110.5,1.3c7.9,2.4,15.8,5.6,22.7,10c31.8,20,32.4,47,2.1,69.7
	C1630.6,2646.8,1600.7,2649.2,1569.8,2652.1z M1584.6,2626.4c16.1-4.1,34.7-6.8,51.8-13.7c18.5-7.4,19.3-22.6,1.3-31.6
	c-40.3-20.1-82.3-19.3-123.6-2.6c-6.2,2.5-13.5,12.8-12.9,18.6c0.7,5.9,9.8,13.8,16.6,15.6
	C1538.8,2618.5,1560.3,2621.7,1584.6,2626.4z"/>
<path d="M2377.6,2653.5c-24.7-6.8-50.7-10.7-73.7-21c-34.4-15.5-36.1-48.4-6-70.8c4.9-3.7,10.3-7.1,16.1-9.3
	c47.9-18.5,95.2-16.5,141.3,6.1c14.4,7.1,27.3,17.4,28.2,34.5c1,18.6-12,30-26.9,38.7C2432.5,2645.5,2405.9,2649,2377.6,2653.5z
	 M2298.5,2597.7c33.8,24.6,65.6,26.6,97.2,25c16.1-0.8,32.5-6.1,47.7-12.2c16.5-6.6,16.7-19.9,1.8-30c-3.4-2.3-7.3-4-11.2-5.1
	c-36.8-10.8-73.4-11-109.2,3.8C2317.1,2582.3,2310.6,2589,2298.5,2597.7z"/>
<path d="M1493.7,2688.7c22.6,30.7,43.6,60,65.4,88.6c10.6,13.9,23.5,26.2,33.9,40.3c3.4,4.6,5.3,14.5,2.7,18.7
	c-5.2,8.4-14.3,6.4-21.6,0.7c-4.9-3.8-10.1-7.6-13.7-12.5c-25.6-34.9-51.3-69.7-76.1-105.2
	C1476.5,2708.2,1474.4,2696.2,1493.7,2688.7z"/>
<path d="M1770.1,2957.4c-13.4-4.3-23.9-6.1-32.9-10.8c-28.5-14.6-56.5-30.1-84.5-45.5c-4.5-2.5-10.1-5.5-11.8-9.6
	c-2.4-5.9-4.4-14.8-1.6-19.4c2.3-3.7,12.9-5.5,18-3.6c10.5,4,19.4,11.8,29.6,16.8c28.8,13.9,58.2,26.6,86.7,41.2
	c5.9,3,12.5,12.3,12,18.1C1785.1,2949.6,1774.9,2953.7,1770.1,2957.4z"/>
<path d="M1446,2393.2c8.3,18.2,10.3,37.3,3.6,56.4c-1.8,5.2-9.7,10.3-15.4,11.2c-4,0.6-12.8-5.9-13.1-9.6c-1.1-16.2-0.8-32.7,1-48.9
	C1422.9,2395,1425,2395.2,1446,2393.2z"/>
</svg>
