<?xml version="1.0" encoding="utf-8"?>
<!-- Generator: Adobe Illustrator 24.3.0, SVG Export Plug-In . SVG Version: 6.00 Build 0)  -->
<svg version="1.1" id="Layer_1" xmlns="http://www.w3.org/2000/svg" xmlns:xlink="http://www.w3.org/1999/xlink" x="0px" y="0px"
	 viewBox="0 0 4000 4000" style="enable-background:new 0 0 4000 4000;" xml:space="preserve">
<path d="M1832.6,434.6c8.5-46.9,14-87.4,23.6-126.9c11.6-47.6,25.4-94.7,40.8-141.2c6.7-20.2,18.6-39,30-57.2
	c6.9-11.1,16.4-21.1,26.5-29.6c39.7-33.4,87.7-28.1,116.9,14.7c13.4,19.7,23,42.4,31.5,64.8c21.6,57.2,31.1,117.3,38.6,177.7
	c4,32.1,7.5,64.3,11.8,101.9c7.3-10,12.5-16.7,17.3-23.7c22.7-33,45.2-66.5,78.6-89.6c16.2-11.2,34.2-21.2,52.8-27.2
	c29.8-9.5,54.4,4.3,65.9,33.6c9.7,24.6,11,50.4,8.3,76.3c-5.4,52.3-14.3,103.8-31.4,153.7c-4.3,12.5-7.6,25.4-11.7,39
	c10.9,4.5,18.5-2.3,26.9-3.7c21.1-3.5,42.6-9.1,63.6-8.2c42.8,2,70.7,35,65.2,77.8c-3,23.4-10.6,47.3-20.9,68.6
	c-29.9,62.3-73.9,114.7-123.4,162.1c-35.4,33.9-73.6,64.9-110.7,97.1c-7.3,6.3-14.8,12.3-26.1,21.7c24.3,5.1,43.4,8.9,62.4,13.2
	c46.5,10.5,91.2,26.5,133.5,48.2c98.1,50.4,160.8,129.4,188,236.7c12.7,50.4,17.9,101.5,19,153.3c2.4,111.9-10.1,222.8-25.3,333.3
	c-30.1,218.5-69.6,435.5-113.1,651.7c-46.5,230.9-96.1,461.1-159.2,688.2c-41.2,148.4-84.8,296.1-146.5,437.6
	c-23,52.7-49.2,103.9-84.5,149.6c-8.6,11.1-17.9,22.2-28.6,31.2c-42.8,35.8-91,39.7-132.8,0.7c-21.6-20.2-40.6-44.2-56.4-69.3
	c-45.5-72.2-77.3-151.1-105.1-231.4c-66.1-190.5-117.1-385.2-163.6-581.2c-56.3-237.3-105-476.2-147.2-716.3
	c-22.7-129.5-44.4-259.2-63.1-389.3c-15.5-107.9-27.4-216.5-22.2-326c3.1-65.2,13.8-129.1,40.1-189.4
	c43.8-100.7,121-165.3,222.7-202c56.4-20.4,114.7-34.1,174.3-41.8c6.5-0.8,12.8-2.8,21.7-4.9c-4.3-7.8-7.2-14.4-11.1-20.3
	c-113.6-169.8-189.7-354.6-221.2-556.9c-5.9-37.8-11.1-75.9-2-114.1c2.1-8.9,4.2-17.9,7.6-26.3c14.9-37.7,50.3-53.5,87.1-36
	c19.1,9.1,36.9,22.7,52.2,37.4c32.7,31.3,56.6,69.6,79.1,108.6C1818.1,410.6,1824,420.2,1832.6,434.6z M1655.7,2934.2
	c0.9,7.5,1,12.5,2.2,17.2c43.4,178,91.9,354.4,154.5,526.8c25.3,69.8,54,138.1,95.1,200.2c11.8,17.9,26,34.7,41.5,49.5
	c18.9,18.2,39.3,18.8,61.6,4.6c9-5.8,18.1-12.5,24.8-20.7c14.2-17.4,28.1-35.2,39.8-54.2c49.7-80.6,80.2-169.7,111.8-258.3
	c1-2.9,0.8-6.2,1.3-10.3c-4.1-0.4-7.4-1.3-10.5-0.8c-79.5,12.6-159.3,9.7-239.1,3.7c-11.6-0.9-23.2-2.3-34.6-4.9
	c-13.7-3.1-19.4-11.3-17.9-22.8c1.5-11.4,9.6-18.4,22.4-19.4c2.5-0.2,5,0.3,7.5,0.4c36.6,1.9,73.2,5.7,109.7,5.2
	c54-0.7,108-4.7,162.1-6.8c15-0.6,22.6-7.5,25.6-21.9c3-14.5,7.4-28.7,11.6-44.4c-9.5,0-16.8-0.2-24,0c-44.1,1.5-88.1,3.4-132.2,4.5
	c-9.8,0.2-19.9-1.7-29.5-4.1c-8.8-2.2-14-8.7-13.3-18.5c0.7-10.3,5.6-17.8,15.7-19.9c7.2-1.5,14.9-1.1,22.4-1.3
	c51.6-2,103.1-3.7,154.7-5.9c20.5-0.9,22-2.5,27.6-21.9c10.2-35.1,21.3-70.1,30-105.6c36.7-150.3,72.6-300.7,108.6-451.1
	c1.2-5.1,0.2-10.9,0.2-15.8c-57.9,0-114.4,0.1-170.9-0.1c-8.3,0-16.6-0.8-24.7-2.3c-10.4-1.9-16.2-9-15.6-19.5
	c0.6-10.5,4.8-19.9,16.5-22.2c6.4-1.3,13.2-0.9,19.9-0.9c38.3-0.1,76.6,0.5,114.9-0.2c23.2-0.4,46.3-2.5,71.4-3.9
	c3.3-18,6.3-34.5,9.8-53.4c-7.1,0-11.1-0.2-15.1,0c-79.1,5.6-158.1,3.7-237.1-2.1c-8.3-0.6-16.6-1.7-24.6-4
	c-13.4-3.9-17.7-11.1-15.9-24c1.8-13.8,6.2-17.5,21.8-18c5-0.2,10,0.3,15,0.5c81.5,3.3,163,8.8,244.6,2.2
	c22.9-1.9,23.7-1.5,28.2-25.2c18.3-94.7,36.8-189.4,53.9-284.4c17.1-94.9,33.3-190.1,48.9-285.3c18.9-115.9,29.9-232.7,38.4-349.7
	c0.2-2.9-1.5-6-2.2-8.8c-7,0-12.8-0.6-18.5,0.1c-116.1,13.2-232.5,15.7-349.1,7.2c-9.9-0.7-19.9-2.1-29.5-4.5
	c-10.4-2.6-15-10.5-13-21c2-10.1,5.6-19.7,18.4-20.2c6.6-0.2,13.3,0,20,0.3c91.5,4,183.1,6,274.6,0.4c32.9-2,65.9-4.5,100.1-11
	c-1.6-21.1-2.9-39.7-4.4-59.8c-17.6,2-32.3,4-47.1,5.4c-79.8,7.9-159.7,5.7-239.5,0.6c-7.4-0.5-14.9-1.7-22.1-3.6
	c-10-2.7-15.7-10.1-14.9-20.4c0.9-10.9,7.2-18.9,18.5-20.6c7.3-1.1,14.9-0.3,22.4-0.3c76.6-0.2,153.2,0,229.7-0.7
	c16.1-0.2,32.1-3.7,49.8-5.9c-10.8-66.9-28.3-126.8-70-177.5c-40.2-49-91.9-81.3-149.7-105c-78-32-160.5-43-243.5-50.5
	c-83.9-7.6-167.9-4.8-251.8,4.4c-68.1,7.5-134.6,21.5-199,44.9c-75.6,27.5-139.1,71-182.5,140.4c-7.3,11.7-13.3,24.2-20.9,38
	c11.7,2.5,19.7,4.9,27.9,5.9c77.9,9.4,155.9,12.9,234.3,7.9c11.6-0.7,23.3-1.6,34.9-1c15.7,0.8,24.2,9.6,24.3,22.9
	c0.1,12.6-6.6,19-22.5,21.4c-3.3,0.5-6.6,0.9-9.9,0.9c-61.6,0.5-123.1,2.3-184.6,1c-32.3-0.7-64.5-6.5-96.7-10.2
	c-20.6-2.4-23.5-1-27.2,18.6c-3.7,19.6-6.9,39.4-9.2,59.2c-8.3,71.5-4.2,143,1.1,214.5c2.2,29.6,6.9,59.1,10.4,87.9
	c4.6,1.5,6.8,2.7,9.2,2.9c88.8,7.7,177.7,12.7,266.9,5.8c9.1-0.7,18.3-1.3,27.4-0.6c13,0.9,22.8,10.8,23.1,21.9
	c0.3,10.9-6.9,19-20.2,21.6c-5.7,1.1-11.6,1.2-17.4,1.6c-89.1,4.8-178.1,4.6-266.9-5.6c-4.6-0.5-9.3-0.1-13.9-0.1
	c-2.6,47.8,60.7,437.1,83.8,517.2c5.1,0.7,10.7,2.2,16.3,2.2c50.8,0.4,101.6,0.5,152.3,0.6c9.2,0,18.3-0.3,27.5-0.2
	c10.4,0.1,17.4,4.9,19.3,15.7c2,11.4-3.5,21.8-15.2,25c-10.3,2.8-21.3,4.4-32,4.5c-46.6,0.4-93.2,0-139.9,0
	c-6.4,0-12.7,0.5-20.7,0.9c3.8,18.8,7.2,35.5,10.5,51.6c4.8,1.1,7.2,2.1,9.5,2.1c54.9-0.4,109.9-0.9,164.8-1.3
	c8.3-0.1,16.7-0.4,24.9,0.4c11.6,1.2,18.3,8.3,17.8,20c-0.4,11-6.2,18.8-17.9,20.6c-4.9,0.7-9.9,1.3-14.9,1.4
	c-49.1,1.2-98.2,2.3-147.2,3.3c-8.9,0.2-17.9,0-27.1,0c0,5.9-0.6,9.3,0.1,12.4c19.9,94.5,39.4,189,60,283.3
	c11.4,52,24.7,103.6,36.8,155.5c2.8,11.8,7.7,19.1,21.3,19.8c48.2,2.5,96.3,8.1,144.5,8.5c50.7,0.4,101.4-3.9,152.2-5.8
	c9.1-0.3,18.4-0.3,27.2,1.5c10.3,2.1,14.8,10.6,14.9,20.5c0.1,10.3-5.2,17.5-15.8,19.4c-9.8,1.8-19.7,3.8-29.6,4.5
	c-90.7,6.7-181.3,7.6-271.8-3C1674.8,2933.3,1666.5,2934.2,1655.7,2934.2z M2062.2,999.7c8.3-53.1,18.6-103.7,23.6-154.9
	c7.7-78.6,12.6-157.6,17-236.5c5.5-100,2-199.8-12.3-299c-7-48.6-15.6-97.1-33.5-143.1c-5.7-14.7-12.3-29.3-20.9-42.4
	c-15.7-23.8-35.4-26.1-56.6-6.7c-9.6,8.8-18.6,19.7-24.2,31.4c-12.6,26.2-24.8,52.8-33.7,80.3c-35.1,108.8-45,221.7-49.4,335
	c-4.4,113.4,2.1,226.4,20,338.6c5.2,32.6,13.6,64.6,20.6,97.3C1963.5,999.7,2010.6,999.7,2062.2,999.7z M1851.7,966.4
	c1.6-0.5,3.1-1.1,4.7-1.6c-0.5-5.7-0.7-11.4-1.7-17c-4.1-22.9-9.6-45.6-12.7-68.6c-12.3-90.8-19.3-182.2-14.1-273.6
	c3.1-53.8-9.1-101.1-34.6-147.2c-24.6-44.5-50.2-88.3-85.4-125.3c-11.9-12.5-25.6-23.9-40.3-33c-16.5-10.3-28.4-4.5-33.8,14.5
	c-2.5,8.7-4.2,18-3.9,27c0.8,29.9,0,60.1,4.6,89.5c29.6,185.8,99,356.4,201,514C1840.3,952.6,1846.2,959.3,1851.7,966.4z
	 M2108.6,1003.6c21,6.2,37.1-0.4,52.8-11.3c61.6-42.8,118.4-91.3,170.1-145.7c37.4-39.3,71.3-81.4,94.7-130.6
	c7.7-16.2,13.1-34.1,16.3-51.9c3.4-19.1-7.7-30.1-26.9-29.9c-7.4,0.1-15.3,0.6-22.1,3.2c-24.6,9.7-50.1,18.2-72.9,31.3
	c-71.8,41.1-127.2,100.9-179.8,163.4c-5.1,6.1-8.8,14.4-10.2,22.2c-8.2,46.6-15.6,93.4-23.1,140.1
	C2107.2,996.8,2108,999.3,2108.6,1003.6z M2145.2,747.9c5.3-0.8,7.2-0.5,8.3-1.3c3.3-2.5,6.7-5.1,9.3-8.2c26.5-31.2,56.4-58.5,90-82
	c7-4.9,13.5-12.9,16.6-20.9c28-72.1,52.8-145.2,59.6-222.9c1.6-18,0.7-36.6-1.8-54.5c-2-14.1-11.2-18.6-23.7-12.1
	c-13,6.8-25.6,15.5-36.5,25.4c-46,42-77.5,95-109.9,147.3c-5.2,8.4-6.1,20.5-6.4,30.9c-1.1,37.4-0.8,74.8-1.7,112.1
	C2148.4,689.9,2146.6,718.1,2145.2,747.9z"/>
<path d="M1720.6,1903.9c40.9,0,70.9,31.6,70.3,74.1c-0.5,39.1-29.9,67.5-70.7,68.2c-40.3,0.6-72.9-30.6-72.6-69.6
	C1647.9,1935.7,1679.8,1903.9,1720.6,1903.9z"/>
<path d="M2250.4,2045.6c-40.7,0.8-73-29.6-73.2-68.7c-0.2-38.5,32.2-73.3,69.3-74.5c42.6-1.3,74.1,29.1,74.7,72.4
	C2321.8,2014.4,2291.4,2044.8,2250.4,2045.6z"/>
<path d="M1983.8,2127.1c-43.3-2.7-79.2-27.6-89.8-65.2c-2.4-8.5-3.6-18.5-1.3-26.7c1.5-5.5,9.6-11.5,15.7-12.7
	c4.5-0.9,11.9,4.4,15.4,9c4.4,5.8,5.9,13.6,8.8,20.5c10.1,23.7,28.4,33,53.7,31.8c24.9-1.2,46-7.5,55.2-33.9
	c1.6-4.7,3.4-9.4,5.1-14.1c3.4-9.4,8.5-16.4,20.1-13.9c12,2.6,15.4,10.9,15.5,22.1c0.4,26.3-21.1,59.7-48.2,70.2
	C2018,2120.3,2000.6,2122.9,1983.8,2127.1z"/>
<path d="M2330.3,2168.9c-22.4-5.2-44.3-9.1-65.4-15.6c-14.2-4.4-23.5-15.5-24.4-31.4c-0.9-15.6,9-25,21.4-30.8
	c44.3-20.7,89.4-23.3,134.3-2.2c12.2,5.8,22.5,14.9,22.2,30.3c-0.3,15.9-9.8,27.8-23.2,32.7
	C2374.6,2159.6,2352.5,2163.4,2330.3,2168.9z M2258.2,2122.9c7.2,5.9,9.9,9.5,13.4,10.9c36.9,14.3,74.2,15.1,111.2,0.5
	c5.3-2.1,12.1-8.4,12.3-12.9c0.2-5-6-10.8-10.6-15c-3.5-3.2-8.6-5.1-13.3-6.5c-31.4-9.1-62.3-6.6-92,6.6
	C2272.3,2109.6,2266.8,2116,2258.2,2122.9z"/>
<path d="M1643.4,2167.7c-20.8-4.9-42.1-8.5-62.3-15.2c-13.4-4.4-25.1-13.5-25.6-30.4c-0.4-16.5,9.6-26.8,23-32.6
	c44.1-19,88.8-21.3,132.1,1.7c28,14.9,27.8,42.1,0.6,58.2C1690.6,2161.6,1667.9,2165.7,1643.4,2167.7z M1575.4,2124.1
	c6.2,3.8,11.2,7.9,17,10.3c31.2,12.8,63.2,12.4,95,3.4c7.8-2.2,18.4-8.9,20-15.4c2.8-11.3-9.2-15.8-18.2-20.1
	c-1.5-0.7-3-1.5-4.6-1.9c-27.9-7.1-55.7-7.7-83.4,0.8C1590.8,2104.5,1580.9,2108.8,1575.4,2124.1z"/>
</svg>
