<?xml version="1.0" encoding="utf-8"?>
<!-- Generator: Adobe Illustrator 24.3.0, SVG Export Plug-In . SVG Version: 6.00 Build 0)  -->
<svg version="1.1" id="Layer_1" xmlns="http://www.w3.org/2000/svg" xmlns:xlink="http://www.w3.org/1999/xlink" x="0px" y="0px"
	 viewBox="0 0 4000 4000" style="enable-background:new 0 0 4000 4000;" xml:space="preserve">
<path d="M1330,2748c-4.4,25.4-9.1,52-13.5,78.6c-20.9,125.3-59,245.3-114.8,359.3c-41.8,85.3-96.5,161.1-172.2,220
	c-35,27.3-72.3,50.9-116.4,59.9c-17.9,3.6-37.3,5.3-55.2,2.4c-43.9-7.1-71.4-35-82.5-77.5c-4.4-16.8-4.6-34.8-6-52.3
	c-2-24.3-2.1-48.9-5.1-73.1c-7-55.5-42.8-92.1-98.8-100.6c-25.1-3.8-50.7-3.7-76-6.4c-21.3-2.3-43.1-3.9-63.6-9.5
	c-89.6-24.4-124.3-102.6-126.4-171.6c-1.2-38.9,3.6-78.1,7.1-117c4.6-52.4-16.4-91.4-60.4-118.2c-17.5-10.6-36.5-18.7-54.9-27.9
	c-16.6-8.4-33.6-16-49.6-25.3c-50.8-29.5-72.5-84.4-56.5-140.9c11.6-41,36.7-73.3,68.1-100.7c69.4-60.7,152.1-95.3,240.5-116.7
	c138.3-33.6,278.9-35.8,420.1-26.2c34.9,2.4,69.8,5.8,108.6,9.1c-2.6-12.5-4.6-22.5-6.7-32.4c-43.5-207-17.9-402.9,95-584.2
	c52.8-84.7,122.3-154.9,199.6-217.5c158.3-128.2,323.1-247.5,495.8-355.5c86.8-54.3,179.8-94.4,282.1-110.9
	c198.6-32.1,383.3,2.4,552.5,113.2c2.2,1.5,5,2.1,10.2,4.3c3.2-19.2,6.4-37.1,9.1-55.1c20.3-133.3,56.5-261.7,115.1-383.5
	c29-60.2,64-116.5,106.4-168.3c38.3-46.7,83.1-85.6,136-114.8c17.9-9.8,36.8-18.5,56.3-24.5c53-16.4,93.4,6.3,107.5,60.1
	c5.4,20.8,7.7,42.3,12.1,63.4c3.5,16.2,6.8,32.6,12.6,48c12,31.9,34.3,55.3,67.2,64.9c32.7,9.6,66.5,15.4,99.8,23.1
	c16.2,3.7,32.5,7,48.4,11.8c76.9,23.2,121.7,81.8,124,162.2c0.5,16.6-1.1,33.2-1.6,49.8c-0.7,21.5-2.1,43-1.9,64.5
	c0.4,44.9,17.9,82.1,55,108.1c26.4,18.6,54,35.3,81.3,52.5c31.9,20.1,59.8,44.8,79.3,77.1c49.6,81.8,32.2,165.5-29,228.2
	c-42.5,43.6-95.8,70.9-152.5,91c-108.8,38.7-221.6,55.9-336.6,60.2c-91.1,3.4-182,2.4-272.4-11.4c-7.4-1.1-15.2-0.2-24.8-0.2
	c1.1,8.2,1.2,14.9,3.1,21c18.4,59.3,28.1,120.4,30.4,181.9c5.5,151.5-29.3,293-112.9,421.1c-60.2,92.2-138.2,167.4-224.7,234
	c-144.2,111.1-291.8,217.6-444.9,316.1c-96.1,61.9-198.7,109.5-311.9,131.2c-125.3,24-249.1,18.1-371-20.6
	c-54.3-17.2-106.4-39.2-155.3-68.6c-5-3-10.5-5.2-15.9-7.3C1337.6,2746.1,1335.4,2747.1,1330,2748z M2041.5,2709.8
	c9.6-4.3,18.9-7.2,26.9-12.1c45.2-27.3,91.7-52.8,134.8-83.2c122.4-86.1,244-173.5,364.8-261.9c72-52.7,138.9-111.4,196.4-180.3
	c13.6-16.3,15.9-30,7.7-50c-45.9-111.7-112-210.8-189.6-302.1c-153.7-180.8-329.2-337.4-530.5-464
	c-69.7-43.8-141.8-82.6-219.2-111.7c-37.2-14-67.6-11.3-100.4,13.5c-113.2,85.5-229,167.5-342.3,252.9
	c-74.4,56.1-142.6,119.4-196.7,196.3c-8.8,12.5-17.2,25.3-26.4,38.9c10.9,12.2,19.7,22.6,29.1,32.5
	c146.7,154.9,293,310.1,440.2,464.4c108.8,114,213.5,231.6,313.3,353.6C1979.8,2633.7,2009.9,2670.9,2041.5,2709.8z M2897.6,1413.3
	c0.2,25.4,4.6,33.7,21.5,39.2c12,3.9,24.6,6.5,37.1,8.4c107.8,16.9,215.9,21.5,324.7,11c93.8-9.1,186.1-24.1,274.8-57
	c39.6-14.7,77.9-32.2,111-58.8c50.9-40.8,60.2-97.2,23.2-150.6c-12-17.3-28.1-32.7-44.9-45.6c-17.7-13.6-38.6-23-57.9-34.4
	c-34.8-20.6-66.1-44.8-88.1-80c-31.8-50.7-38.6-105.5-31.7-163.6c2.6-22.3,4-44.8,3.8-67.2c-0.2-30.5-13.5-55.7-39.8-71
	c-17.4-10.2-37-17.6-56.6-22.5c-24.6-6.1-50.2-7.7-75.2-12.1c-101.4-17.9-156.9-73-175.9-174.2c-2.3-12.5-3.6-25.2-5.6-37.7
	c-1.4-8.7-2.8-17.4-4.6-26c-2.8-13.5-11.8-17.6-24.1-13.4c-11.1,3.8-22.8,7.3-32.1,14c-30.1,21.5-61.4,42.2-88.4,67.3
	c-51.4,47.8-89.5,106.2-120.7,168.7c-55,110.2-90.5,227-111.3,348.1c-6.4,37.5-8.8,75.7-11.7,113.7c-1.5,20.6,6.1,37.9,28.3,50.5
	c4.6-17.8,9.3-33.5,12.8-49.5c22.2-101.6,54.1-200,96.7-294.9c4.8-10.7,9.9-21.5,16.6-31c8.5-12.1,19.1-12.7,33.7-5.4
	c12,6,13.9,15.5,10.5,27c-1.6,5.6-4.3,10.9-6.8,16.2c-53.8,112.9-89.2,231.6-113,354c-2.9,14.9-5.5,30,0,50.3
	c11.5-10.5,20.6-17.3,27.9-25.8c87.8-102.2,186.5-192.4,296.2-270.5c6.3-4.5,13-8.9,20.1-11.7c12.7-5,23.1,0.1,30.6,10.7
	c7,9.8,6.9,20.5-0.7,29.8c-4.9,6-10.9,11.2-17,16c-36.4,28.1-73.8,54.9-109.2,84.1c-67.3,55.5-130.4,115.4-184,184.7
	c-5.4,7-11,13.8-15.4,21.4c-10.5,18.1-5.1,30.2,14.8,34.4c4.8,1,9.7,1.2,14.6,1.2c123.6,2.1,246.3-7.6,367.7-31.2
	c18.2-3.5,36.3-7.5,54.6-10.6c14.1-2.4,22.4,4.8,25.4,18.2c2.9,13.2-1.4,23.7-14.5,28.2c-14.8,5.1-29.8,9.7-45,13.1
	c-109.3,24.3-220.2,33.8-332,34.7C2924.6,1413.4,2911.1,1413.3,2897.6,1413.3z M1074.2,2442.7c-4.9-12.5-8.7-20.3-11.1-28.5
	c-5.5-18.3-16.8-26.8-36.4-27.2c-22.5-0.5-44.9-2.8-67.3-5.6c-125.2-15.7-250.1-11.2-374.4,7.6c-83.7,12.7-164.3,35.8-236.8,81.7
	c-30.7,19.5-60,40.9-80,72.1c-24.2,37.7-18.1,62.5,20.2,85c8.4,5,17.3,9.1,26,13.6c27.9,14.2,56.6,26.9,83.4,42.8
	c40.5,24,66.4,59.7,77.8,105.8c8.3,33.9,7.2,67.9,3.3,102.1c-2.6,22.4-6.9,44.6-8.2,67c-4.1,69.2,40.3,123.8,110.5,123.6
	c25.4-0.1,50.8,2.4,76.2,4.1c125.4,8.2,184.3,108.4,184.7,191.4c0.1,23.5-0.1,47,1.3,70.4c2.4,41.3,21,54.9,60.1,40
	c26.2-10,51.7-23.7,74.6-39.8c78.1-55.1,131-131.1,171-216.4c52.3-111.5,82.9-229.7,101.5-351.1c4.3-28,6.7-56.4,7.5-84.7
	c0.7-23.3-6-30.1-30.2-37.7c-2.3,8.3-5.1,16.4-6.6,24.7c-12,65.6-28,130.2-52.6,192.2c-15.1,38.1-33.1,75.2-52,111.5
	c-12.2,23.5-26.8,28.1-41.9,18.7c-14.2-8.8-15.8-20.4-2.6-43.7c37.9-67,62.5-139.1,81.2-213.2c10.5-41.7,18.1-84.1,25.7-126.4
	c2.9-16.3,3.4-33.6-18.8-41.4c-4.4,5.6-9.5,10.4-12.4,16.2c-44.8,90.7-110.6,165.7-178.6,239c-14.6,15.7-30.7,30.3-47.5,43.6
	c-12.7,10-23,7-32.4-5.9c-9.3-12.8-7.6-21.8,7.8-38.4c30-32.2,60.4-64,90.3-96.4c53.7-58.1,92.6-126,128.7-195.5
	c12.8-24.7,5.3-38.6-21.9-43.6c-3.8-0.7-7.8-0.9-11.7-1.3c-94.3-9.7-187.5-1.1-280.3,15.9c-26,4.8-51.8,10.1-77.8,14.5
	c-11.6,2-21.9-0.7-24.9-14.2c-2.7-12.1-2.6-24.1,10.4-30.5c7.8-3.8,16.4-6.3,24.9-8.4c100.2-25.1,202.1-35.6,305.3-33.8
	C1049.8,2442.8,1059.4,2442.7,1074.2,2442.7z M2736.4,1320.3c1.1-1.7,2.2-3.4,3.3-5.1c-156.3-207.4-492.5-292.9-706.3-209.6
	c27.7,14.7,54.5,28.4,80.8,43.2c26.4,14.8,52.5,30.3,78.2,46.3c25.7,16,51.2,32.5,76,49.8c24.9,17.3,49.1,35.6,73.1,54
	c24.1,18.4,48,37.1,71.3,56.4c23.3,19.4,46.1,39.4,68.5,59.8c23.2,21,46,42.4,68.4,64.2c21.7,21.1,43.1,42.7,64.1,64.5
	c21.1,21.8,42,43.7,62.2,66.4c20.1,22.6,39.5,46,58.5,69.6c19,23.6,37.6,47.5,55.6,72c17.9,24.4,34.2,50,52.2,74.4
	c17.3,23.5,26.4,52.7,50.7,78.1c2.9-16.8,6-27.2,6.2-37.8c1-52.8,4.5-105.7,1-158.2c-5.9-88.7-33.1-172.5-70.6-252.8
	c-9.1-19.6-20.8-37.1-40.4-48.9c-52-31.3-103.7-63.1-164.2-75.6c-2.9-0.6-5.6-1.6-8.3-2.7c-17.3-7.2-22.1-15.6-18.1-31.5
	c4-16.2,11.5-22.8,30.5-18.3c24.4,5.9,47.9,15.7,71.5,24.7C2712.9,1307.8,2724.5,1314.5,2736.4,1320.3z M1223.3,2524.2
	c50.6,87.5,170.5,179.7,295.4,222.6c85.9,29.6,231.7,45.4,274.7,27.9c-4.9-7.5-8.8-15.4-14.4-21.8
	c-98.4-114-194.9-229.9-296.3-341.2c-123.8-136-251.8-268.1-378.2-401.8c-6.8-7.2-15.3-12.8-24.2-20.1c-3,6.8-4.8,9.3-5.1,11.9
	c-14.7,114.4-5.9,226.4,33.9,335.3c14.1,38.6,37.3,70.4,69.4,96.3c53.6,43.2,113.4,72.4,181.5,84c7.6,1.3,15.5,3,22.2,6.4
	c10.8,5.5,14.3,15.3,12,27.2c-2.3,11.9-10.7,15.7-21.3,16.1c-7.8,0.2-16,1-23.3-1.1c-32.7-9.5-65.2-19.7-97.7-30.1
	C1242.3,2532.7,1232.9,2528.1,1223.3,2524.2z M1988.8,2734.7c-6.2-10.2-8.9-16.4-13.1-21.4c-75.2-90-147.7-182.6-226.7-269.2
	c-135.7-148.9-275.5-294-413.6-440.7c-56.3-59.8-112.8-119.5-169.5-178.9c-7.7-8-17-14.5-28.8-24.5c-10.3,23.8-17.1,44.2-27.5,62.6
	c-21.1,37.5-14.5,63.3,17.5,95.4c108.2,108.8,212.2,221.9,317,334.1c140.2,150.1,277.3,303,400.9,467.3c8,10.6,16.3,13.4,27.4,10.2
	C1909.8,2758.7,1947,2747.3,1988.8,2734.7z M1843.8,1187.7c51.7,25.1,97.1,45.4,140.7,68.9c43.9,23.6,86.8,49.3,128.7,76.3
	c41.9,27,82.8,55.8,122.7,85.7c39.9,30,78.8,61.4,116.4,94.1c36.9,32.1,72.3,65.9,107.2,100.3c35.5,35,70.5,70.7,104,107.6
	c33.5,36.9,66.2,74.7,96.7,114.1c30.5,39.4,59.7,80,86.1,122.3c26,41.6,47.8,85.8,74.2,134c16.5-32.4,29.5-59.6,44-85.9
	c7.4-13.4,6.9-23.9,0-37.9c-45.8-94-106.5-177.6-173.2-257.5c-151.6-181.6-325-338.8-523.5-467.7c-60.8-39.5-124.3-74.4-192.6-99.6
	c-11.3-4.2-26.4-8.5-36.1-4.2C1908.2,1151.5,1878.9,1169,1843.8,1187.7z"/>
<path d="M1959.3,2388.1c-133.1-7.4-276.6-99.7-358.3-274.5c-84.9-181.8-57.4-354.9,72.2-508.7c64.5-76.5,151-115.9,248.6-132
	c142.2-23.4,268.5,15.7,369.9,114.2c150,145.8,194.9,324.1,129.6,524.2C2367.6,2276.4,2207.8,2393.9,1959.3,2388.1z M2069.2,1969
	c81.1,81.4,170.7,144.4,259.5,207.7c38.9-38.4,77.3-164.1,66-207.7C2287.6,1969,2180.8,1969,2069.2,1969z M2306.6,2218
	c-93.2-67.7-184.6-130.6-267.4-205.7c25.4,106.7,56.4,210.7,99.4,311.9C2203.9,2302.9,2255.2,2266.7,2306.6,2218z M1639.6,1757.9
	c102.5,29.7,203.7,59,306.1,88.7c-0.9-4.6-0.6-6.9-1.7-8.3c-58.4-73.4-116.6-147-175.6-219.9c-14.4-17.7-21.9-17.9-38.4-1.5
	c-38.3,38.3-69.8,81.6-90.4,132.2C1639,1750.8,1639.6,1753,1639.6,1757.9z M2345.8,1738.8c-89.4,60.8-177.4,120.7-265.4,180.5
	c0.4,2.1,0.9,4.2,1.3,6.3c52.5,0,104.9,0.8,157.4-0.2c52.1-1,104.6,2.6,156-5.1C2397.5,1876.1,2372.7,1783.4,2345.8,1738.8z
	 M1701.3,2181.6c72.8-78.9,144.3-156.3,217.1-235c-5.1,0.4-9,0.2-12.6,1.1c-86.8,22.8-173.7,45.6-260.3,69
	c-8.8,2.4-16.6,8-25.3,12.2C1640.7,2085.4,1666.8,2134.9,1701.3,2181.6z M1615.1,1804.6c-11.3,59-10.2,114.6-6.7,169.8
	c105.5-25.8,208.3-51,311.2-76.3c0.6-0.2,1.1-1.5,1.4-2.3c0.2-0.8,0-1.7,0-5.8C1822,1858.9,1721.9,1828.2,1615.1,1804.6z
	 M1987.9,2016.9c-3,7.9-5.4,12.3-6.3,16.9c-18.6,88.8-37.1,177.7-55.3,266.6c-1.9,9.1-1.1,18.7-1.6,30.2
	c56.4,9.8,109.7,10.9,165,3.7C2055.4,2227.5,2022.2,2123.8,1987.9,2016.9z M1941.8,2001.8c-2-0.9-3.9-1.8-5.9-2.7
	c-70.3,69.6-138,141.6-200,221c44,38.1,87.6,69.9,141.5,92.9C1899.2,2207.1,1920.5,2104.5,1941.8,2001.8z M2039.6,1834.7
	c6-7.8,10.3-11.7,12.5-16.5c35.8-80.1,71.6-160.2,106.5-240.8c7.1-16.5,4.4-22.9-14.2-28.3c-39.2-11.5-79.1-20.6-118.8-30
	c-7.1-1.7-14.9-0.2-23.8-0.2C2014.4,1624.4,2026.7,1727.2,2039.6,1834.7z M1985.5,1808.1c-6.8-96.5-13.2-192.4-34.9-288.5
	c-57.9,9.7-110.3,23.7-158.3,54.3C1858.1,1653.8,1921.8,1730.9,1985.5,1808.1z M2317.8,1692.8c-31.7-43.5-66.1-77.9-108.4-109.8
	c-20.5,48.2-38.6,92.4-58.2,136c-19.7,43.9-40.9,87.1-61.5,130.6C2170,1804.4,2245.5,1754.6,2317.8,1692.8z"/>
<path d="M3398.5,903.1c17.8-0.4,24.1,4.5,27.2,23c1.7,10.5,2.1,21.3,2.5,32.1c2.9,75.8,34,137.3,93.3,184.4
	c9.9,7.9,20,15.6,29.8,23.6c8.6,6.9,16.9,14,10.4,26.9c-6.3,12.6-21.2,22.5-33.1,19.3c-9.2-2.5-18.3-7.1-25.9-12.8
	c-86.6-64-129.5-151.4-136.1-257.7C3365,914.8,3375,903.6,3398.5,903.1z"/>
<path d="M583.4,2860.2c-2.4,21.9-5.9,54-9.5,86.1c-0.3,2.9-1.1,5.8-1.9,8.6c-5.3,18.1-14.2,25.6-28.2,24
	c-14.3-1.7-26-14.5-26.3-30.6c-0.1-7.7,2.1-15.4,3.6-23c8.9-45.5,12.4-91,2.7-136.8c-11.9-55.9-39.5-101.5-87.8-133.6
	c-5.7-3.8-11.5-7.5-16.6-12c-14.9-13-16.6-23.4-6.8-38.3c9.1-13.8,21.6-17.4,38.2-7.3c36.5,22.1,66.5,51.9,88.7,88
	C570.2,2735.4,585.2,2790.6,583.4,2860.2z"/>
<path d="M933.7,3230.4c0.1,25.9-6.1,33.8-25.2,36.6c-16.8,2.4-23.1-1.3-27.6-18.2c-2.8-10.4-4.2-21.1-6-31.7
	c-11.8-69.3-42.8-125.1-107.9-158.3c-16.9-8.6-20.8-21.4-14.2-36.1c6.7-14.8,18.3-19.3,36.5-11.5c13.3,5.8,26.2,13.2,37.9,21.8
	C895,3083.1,922.2,3154.8,933.7,3230.4z"/>
</svg>
