<?xml version="1.0" encoding="utf-8"?>
<!-- Generator: Adobe Illustrator 24.3.0, SVG Export Plug-In . SVG Version: 6.00 Build 0)  -->
<svg version="1.1" id="Layer_1" xmlns="http://www.w3.org/2000/svg" xmlns:xlink="http://www.w3.org/1999/xlink" x="0px" y="0px"
	 viewBox="0 0 4000 4000" style="enable-background:new 0 0 4000 4000;" xml:space="preserve">
<path d="M3802.1,1480.3c0,46.1,1.7,92.2-0.5,138.2c-2.3,48.2-19.3,92.2-47.2,132c-30.2,43.1-65.9,80.8-107,113.5
	c-195.7,155.5-391.2,311.1-587.3,466.1c-206.6,163.2-413.3,326.1-620.7,488.4c-200.6,157-401.7,313.5-603.4,469.1
	c-69.9,54-148.4,91-235.6,109.6c-113.1,24.2-224.9,19.4-333.7-18.3c-73.2-25.3-145.1-55.3-215.4-87.9
	c-199.2-92.3-397.4-186.6-595.7-280.9c-63.5-30.2-126.1-62.4-181.8-106.3c-66-52-103.7-119.7-105.4-203.1
	c-3.3-160.1-3.2-320.3-3.6-480.4c-0.2-69.6,29.1-127.6,79.8-173.3c40.5-36.5,83.8-69.9,127.1-103
	c278.7-212.8,557.8-425.1,836.7-637.7c213.3-162.5,426.6-325,639.7-487.8c119.6-91.3,238-184.1,358.4-274.3
	c103.3-77.3,220-116.2,350-111.7c67.6,2.4,132.1,19.4,194,44.9c113.2,46.8,225.8,94.9,338.2,143.5c150.3,65,300.2,130.6,450,196.6
	c29.9,13.2,59.1,28.2,87.9,43.8c87.7,47.4,133.9,124.8,151.4,219.8c8.5,46.3,10.8,94,13.6,141.1c5.2,86,8.7,172,12.9,258.1
	C3803.9,1480.3,3803,1480.3,3802.1,1480.3z M2554,525.3c-117.9-0.4-203.6,28.3-294.8,97.1c-185,139.6-369.6,279.6-553.8,420.2
	c-285.5,217.9-570.4,436.5-855.8,654.5c-143.6,109.8-287.9,218.7-431.3,328.7c-40.4,31-80.9,62.3-117.3,97.7
	c-52.2,50.6-53.5,91.9,4.1,153.7c6.5,7,14.6,13.1,22.9,17.8c39,22,77.3,45.8,117.8,64.6c182.6,84.8,365.7,168.3,548.8,252
	c80.5,36.8,161.2,73.2,241.9,109.5c110.1,49.6,222.9,63.4,340,26.1c62.4-19.9,116-55,166.8-94.7c194.1-151.6,388-303.5,581.7-455.7
	c292.9-230.1,585.4-460.8,878.4-690.7c129.8-101.9,261-201.9,390.4-304.3c26.2-20.8,49.4-46.5,69.9-73.1
	c20.7-26.8,22.2-59.8,7.6-89.9c-10.9-22.4-24.6-46-43.3-61.4c-29.6-24.4-63-45.5-97.4-62.6c-56.4-28-114.8-52.2-172.7-77.2
	c-202.6-87.7-405.2-175.2-608-262.4C2682.7,546.4,2613.6,524.3,2554,525.3z M3697.4,1208.8c-6.8,4.1-11.2,6-14.8,8.9
	c-36,28.8-71.6,58-107.7,86.5c-166.9,131.2-333.7,262.4-500.9,393.3c-211.1,165.2-422.6,329.9-633.8,495
	c-229.4,179.3-458.2,359.2-688,537.9c-57.8,44.9-121.2,80.4-194.6,94.6c-9.1,1.8-17.7,5.5-25.8,8.1c1,147.5,18.5,451.2,27.9,474.1
	c78.4-13.6,151.7-40.8,215.1-90.1c259.6-201.7,519.1-403.5,777.7-606.5c311.1-244.2,621.4-489.3,931.3-735
	c57.9-45.9,113.1-95.3,167.6-145.2c29-26.5,49.4-60.3,55.4-100.2c4.3-28.7,8.7-57.8,7.9-86.7c-2.6-101.8-7.2-203.6-11.5-305.4
	C3702.9,1229.2,3699.8,1220.3,3697.4,1208.8z M1477.8,3317.3c2.7-161.7-10.4-318.2-15.7-476.7c-34-3.2-65.5-4.5-96.3-9.5
	c-67.5-11-131-35.9-192.9-63.8c-236.6-106.6-472.7-214.1-708.7-321.9c-66.1-30.2-133.2-58.8-192-102.8c-3.2-2.4-8.5-2-12.3-2.8
	c-2.1,4-4.1,6.1-4.1,8.1c2.2,120,3.5,240.1,7.5,360.1c1.4,42.6,20.2,79.7,53.9,107.5c17.7,14.6,34.7,31.2,54.7,41.9
	c93,49.5,185.7,99.8,280.8,145c177.4,84.2,356.2,165.2,534.8,247c68.7,31.5,140,54.7,215.4,63.3
	C1426.7,3315.5,1450.6,3315.7,1477.8,3317.3z"/>
<path d="M1878.3,2296.4c-13.2-4-32.4-7.7-49.9-15.6c-106-47.8-211.6-96.4-317.3-145c-9.9-4.5-19.7-9.6-28.6-15.8
	c-28.9-19.8-34.2-55.1-11.9-81.9c8.4-10.1,18.5-19.3,29-27.3c83.3-62.6,166.9-124.8,250.4-187.2c2.9-2.2,6.1-4,8.9-6.3
	c40.8-34.2,83.4-36.3,131.5-13.7c99.7,46.9,200.7,91.1,301.1,136.6c7.7,3.5,15.1,7.8,22.3,12.2c44,27.4,48.5,81.6,9,116.2
	c-15.5,13.5-32.4,25.4-48.9,37.7c-71,52.8-142,105.5-213.2,158C1937.9,2281.2,1913.1,2293.5,1878.3,2296.4z M2178.1,2014.3
	c-10.8-7.1-15.3-11.1-20.7-13.6c-97-44.3-194.3-87.9-291-132.8c-30.1-14-55.4-12.4-78.8,12.4c-7.4,7.8-17.1,13.4-25.9,19.9
	c-61.5,45.2-123.3,90.2-184.5,135.8c-12.8,9.6-23.6,21.8-38.3,35.7c33.5,14.6,61.3,26,88.5,38.7c75.8,35.2,151.6,70.6,227,106.5
	c25.5,12.1,46.5,10.8,70.1-7.7c74.5-58.3,150.7-114.2,226.2-171.3C2159,2031.7,2166.6,2024.3,2178.1,2014.3z"/>
<path d="M1432.4,2639.1c-24.7-6.1-44.4-8.4-62.1-15.7c-100.8-41.9-201.5-84-301.3-128.1c-44.7-19.8-58.1-43.7-50-81.5
	c3.2-14.6,11.5-29.5,21.3-40.9c13.3-15.4,29.7-28.6,46-41c68.5-52.2,138.7-102.2,205.9-156.1c42-33.7,83.6-38.6,131.5-16.9
	c102.7,46.6,205.8,92.2,308.7,138.2c4.4,2,8.7,4.3,13,6.6c48.2,25.9,57.3,79.4,17.4,117c-28.2,26.5-59.5,49.8-90.8,72.7
	c-54.9,40-109.8,80.1-166.8,116.8C1482.8,2624.8,1454.5,2630.7,1432.4,2639.1z M1718.8,2375.1c-16.7-11.6-23-17.5-30.5-20.9
	c-99.3-45.2-198.8-90.1-298.2-135c-18.4-8.3-35-5.2-51,7.1c-26.9,20.7-54.4,40.7-81.5,61.1c-47.5,35.7-95,71.4-142.2,107.6
	c-9.9,7.6-18,17.5-29.3,28.7c13.1,7.5,20.9,13,29.5,16.8c88.5,39.6,177.6,78,265.4,119c36.3,16.9,67.2,13,98.1-10
	c71.1-52.7,142.3-105.2,213.6-157.6C1699.6,2386.8,1707,2382.6,1718.8,2375.1z"/>
<path d="M2343.1,1938.4c-8.3-2.5-25.1-5.8-40.5-12.5c-108.9-47.6-217.4-95.8-326.1-143.9c-6.6-2.9-13.1-6.4-19.3-10.2
	c-33.4-20.5-40.9-59.3-16.3-90.4c8.9-11.2,20.4-20.8,31.9-29.5c70.4-53.7,141.1-107,211.7-160.4c7.7-5.8,16-11,23.9-16.7
	c31.1-22.2,63.8-26.4,99.4-10.7c111.9,49.7,224.4,97.9,335.7,148.7c48.3,22,57,74.4,21.8,114.7c-8.7,10-19.1,18.6-29.8,26.6
	c-68.9,51.6-138,103-207.3,154.2C2405.6,1925.3,2380.9,1937.8,2343.1,1938.4z M2003.5,1717.5c22.7,9.8,40.2,17.2,57.5,24.9
	c89.5,39.9,179.2,79.4,268.4,120.1c18.4,8.4,33.6,9.1,50.3-3.5c67.8-50.9,136.2-100.9,204-151.7c10.9-8.1,19.7-18.9,32.5-31.4
	c-17.8-9.8-29.8-17.7-42.9-23.5c-88.6-39.1-178-76.5-265.7-117.3c-32.1-15-56.9-11.1-83.5,9.6c-62.1,48.3-125.2,95.4-187.6,143.3
	C2026.3,1695.8,2017.3,1705.1,2003.5,1717.5z"/>
<path d="M1350.4,2043.9c-16.3-4.3-33.5-6.4-48.6-13.2c-92.8-41.7-186-82.9-277.4-127.6c-63.8-31.2-68.8-85.2-14.3-132.6
	c26.4-23,56.2-42.1,84.7-62.6c54.1-39,108.9-76.9,162.2-117.1c42.1-31.8,85.2-35.9,132.9-14.7c87.4,38.9,175.4,76.7,263,115.3
	c11,4.9,21.9,10.6,31.9,17.3c38.7,26,43.8,59.6,12.7,95c-15.1,17.1-33,32.2-51.3,45.9c-62.1,46.5-125,91.8-187.5,137.9
	c-13.7,10.1-26.3,21.5-40,31.4C1398.6,2033.4,1376.6,2043.1,1350.4,2043.9z M1039.8,1830.4c18.5,10.8,29.3,18.4,41.2,23.9
	c76.9,35.7,154.8,69.5,230.8,107c30.5,15,53.3,12.4,79.5-8c72.7-56.6,146.9-111.2,220.3-166.9c9.3-7.1,17.5-15.6,28.8-25.7
	c-10.9-6.3-17.7-11-25.1-14.3c-44.4-19.2-89-38.1-133.6-57c-43.5-18.4-87.3-36.2-130.6-55.1c-18.8-8.2-34.1-5.2-50.5,6.7
	c-75.7,54.6-152,108.3-227.9,162.6C1063.3,1810.4,1054.6,1818.3,1039.8,1830.4z"/>
<path d="M862.7,1913c20.8,6,42.5,9.9,62.3,18.2c89.3,37.7,178.1,76.5,266.9,115.4c14.3,6.3,28.4,14,40.9,23.4
	c30.9,23.5,34.8,51.8,10.1,81.5c-13,15.7-28.9,29.5-45.3,41.9c-76.4,57.7-153.2,114.9-230.4,171.6c-46.4,34.1-95.4,43.1-150.1,17.3
	c-74.5-35.1-150.6-66.9-225.6-101.2c-17.4-8-34.6-18.2-49.1-30.7c-34.3-29.6-38.6-70.7-12.2-107.4c9.1-12.6,20.4-24.3,32.9-33.6
	c76.8-57.2,154.2-113.7,231.6-170C814.5,1925.1,836.1,1914.1,862.7,1913z M1179.7,2116.8c-13.8-7.4-21.8-12.3-30.3-16.1
	c-36.6-16-73.3-31.7-110-47.5c-51.1-22-102.4-43.7-153.4-65.9c-18.1-7.8-34.7-8-51.2,4.4c-74.8,55.6-150,110.7-224.6,166.6
	c-11.1,8.3-19.7,20-30.3,31c18.9,23.5,43.2,32.2,65.8,42.6c64.8,29.9,130.8,57.5,194.8,89c30.5,15,53.6,11.4,79.8-8.4
	c77.3-58.3,155.9-114.9,233.9-172.4C1161.7,2134.6,1168,2127.6,1179.7,2116.8z"/>
<path d="M3093.8,1355.8c-3.7,22.8-10.6,40.6-26.2,54.1c-17.4,15.1-34.8,30.2-53.3,44c-53.4,39.9-107.5,79-161,118.8
	c-37.8,28.2-77.9,37.6-122.7,18c-49.9-21.9-100.1-43.1-150-65.2c-62.1-27.4-124.5-54-185.6-83.5c-52.8-25.5-58.5-68.8-12.2-105
	c79.2-62,161-120.6,241.6-180.8c27.1-20.2,55.6-21.1,85.7-8c106.6,46.6,213.3,92.8,319.7,139.9c14.2,6.3,29,14.3,39.3,25.4
	C3080.1,1325.1,3085.9,1341.5,3093.8,1355.8z M2432,1380.2c27,12.2,46.7,21.3,66.5,30.1c85.2,37.9,170.5,75.5,255.5,113.7
	c22,9.9,41.5,8.8,61.1-6.2c59.7-45.6,120-90.4,179.7-136c6.1-4.6,9.9-12.3,16-20c-8.5-5.3-14.1-9.9-20.4-12.7
	c-98.3-44.1-196.9-87.8-295-132.3c-20.5-9.3-36.4-5.3-53.6,7.8c-48.2,36.7-97.2,72.3-145.9,108.3
	C2476.6,1347.1,2457.4,1361.4,2432,1380.2z"/>
<path d="M1808.9,1691.4c-7.9-2.2-22.6-4.3-35.7-10.1c-98.7-43.3-197.7-86-295.3-131.7c-58.9-27.6-64.6-79.2-12.9-120.4
	c61.6-49,126.3-94.1,189.8-140.7c18.6-13.6,37.6-26.6,56.6-39.5c28.1-19.1,58.6-22.7,89.9-10c58.4,23.5,116.5,47.6,174.4,72.2
	c44.6,19,89,38.3,132.8,59c57.5,27.2,63.9,67.6,14.6,108.5c-53.1,44.1-109.6,84-164.4,126c-24,18.4-47.2,38-71.3,56.3
	C1866.2,1677.2,1843.9,1691.9,1808.9,1691.4z M2076.2,1430.7c-21.1-10-33.8-16.5-46.9-22.1c-75.6-32.6-151.9-63.6-226.6-98.2
	c-28.1-13-49.6-10.5-73.5,7c-66.4,48.7-133.7,96.1-200.4,144.3c-8,5.8-14.7,13.6-24.4,22.8c14.2,7.6,23.3,13.4,33.1,17.7
	c79.7,35.2,160.2,68.7,239,105.8c28.1,13.2,48.9,11.6,73-7.1c61.3-47.5,123.9-93.2,185.9-139.6
	C2046.9,1452.8,2058.2,1444.2,2076.2,1430.7z"/>
<path d="M2568.4,1111.5c-11,19.1-17.9,37.8-30.3,51.3c-17.1,18.6-37.8,34-58,49.5c-48.2,36.8-97,72.9-145.6,109.1
	c-10.7,8-21.6,15.7-32.7,23.1c-32.9,21.8-67.2,25.6-103.6,8.6c-46.2-21.5-92.5-42.6-139-63.3c-41-18.3-82.3-35.7-123.5-53.7
	c-10-4.4-20.1-8.8-29.4-14.3c-39-23.1-46.9-62.8-18.1-98.4c12-14.9,27.1-28,42.7-39.2c66.1-47.3,133.1-93.4,199.3-140.5
	c30.8-21.9,63.6-22.5,96.9-9.7c41.8,16.1,83.1,33.9,124.3,51.5c47.9,20.5,95.7,41.4,143.3,62.8c15.4,6.9,31.6,13.8,44.4,24.4
	C2550.3,1081.9,2557.4,1096.4,2568.4,1111.5z M2481.9,1123.7c-10.9-7-15.5-11-20.9-13.3c-83.4-36-167.1-71.4-250.3-107.9
	c-23.3-10.3-42-4.1-60.9,9.3c-61.3,43.4-122.9,86.4-184.1,130c-6.3,4.5-10.7,11.5-17.5,18.9c7.4,5.1,11.8,9.1,17,11.5
	c27.6,12.5,55.4,24.5,83,36.8c56.4,25.2,113,49.9,169,75.9c24.1,11.2,43.2,7.1,63.3-9.5c26.1-21.6,54.5-40.4,81.6-60.8
	C2400.7,1185.6,2438.9,1156.3,2481.9,1123.7z"/>
<path d="M3180.4,1287.3c-17.4-4.7-35.6-7.4-52.1-14.4c-106-44.7-211.7-90.3-317.4-135.8c-6.6-2.9-13-6.5-19.2-10.3
	c-33.3-21-39.7-51.2-15.8-83.1c9.3-12.4,21.1-23.6,33.5-33c55.9-42.6,112.3-84.5,168.8-126.3c9.7-7.2,20.6-12.7,31.2-18.5
	c30.7-17,62.2-18.6,94.3-4.4c97.5,43.1,195.7,84.6,292.2,129.9c76,35.7,81.8,101.8,14.7,153.7c-52.7,40.7-107.5,78.8-162,117.3
	C3228.7,1276.3,3206.8,1287.1,3180.4,1287.3z M3393.1,1067.1c-17.2-9.8-28.9-17.8-41.7-23.5c-86.2-38.5-173.2-75.4-258.8-115.4
	c-28.3-13.2-49.4-10-73,8.4c-48.7,37.9-98.9,74-148.3,111.1c-8.3,6.2-15.7,13.8-25.7,22.7c8,5.5,12.4,9.5,17.6,11.9
	c99.4,44.6,198.8,89.2,298.4,133.4c15.3,6.8,30.8,4.4,44.8-5.6c52.2-37.3,104.8-74.2,156.7-111.9
	C3373,1090.8,3380.7,1080.1,3393.1,1067.1z"/>
<path d="M2588,644.9c10.6,2.9,28.8,5.8,45.3,12.7c84,35,167.6,70.7,251,106.8c13.2,5.7,25.9,13.6,37,22.7
	c26.4,21.8,30.8,49.6,9.8,76.9c-13.1,17-29.9,31.9-47.2,44.8c-53.4,40-108.6,77.5-161.6,118c-42,32.1-83.5,37.4-132,14.2
	c-75.4-36.1-152.7-68.5-229-102.8c-15.5-7-30.7-14.6-45.2-23.4c-46.5-28.4-50-79-8.2-114.7c6.4-5.5,13.5-10.4,20.5-15.1
	c50.5-33.6,100.7-67.7,151.6-100.6C2510.8,664.7,2542.4,646.4,2588,644.9z M2869.9,835.6c-13.8-8.4-20.4-13.5-27.8-16.7
	c-72.1-31.3-145-61.1-216.4-94c-36-16.6-66.9-13.4-98.5,8.4c-50.9,35-102.5,68.8-153.6,103.5c-7.5,5.1-13.5,12.4-23.1,21.4
	c95.7,42.3,187.6,82.8,279.3,123.6c18.9,8.4,34.5,4,50.5-7.8c40.9-30.2,82.7-59.2,123.9-89C2824.5,870.1,2844.3,854.8,2869.9,835.6z
	"/>
<path d="M3591.8,1405.3c42-14,59.4-6.4,61,32.7c2.1,51.7,1.2,103.9-3.2,155.5c-4.2,48.7-29.9,88.8-63.9,123.3
	c-30.6,31.1-43.6,29.7-72.8-8.7c4.9-6.9,9.2-15.7,15.9-22c42.4-40.2,57-91.7,59.2-147.6c1.4-36.2,0.3-72.6,0.7-108.9
	C3588.8,1421.2,3590.8,1413,3591.8,1405.3z"/>
<path d="M3404.4,1866.2c-4.6-3.7-15.1-8.8-19.8-17.1c-4-6.9-5.3-21.4-0.9-26c19-19.9,39.8-38.4,61.8-55c4.8-3.6,19.7-0.1,25.3,5.1
	c7,6.5,13,18.2,12.8,27.5C3483,1818,3427.8,1864.8,3404.4,1866.2z"/>
</svg>
