<?xml version="1.0" encoding="utf-8"?>
<!-- Generator: Adobe Illustrator 24.3.0, SVG Export Plug-In . SVG Version: 6.00 Build 0)  -->
<svg version="1.1" id="Layer_1" xmlns="http://www.w3.org/2000/svg" xmlns:xlink="http://www.w3.org/1999/xlink" x="0px" y="0px"
	 viewBox="0 0 4000 4000" style="enable-background:new 0 0 4000 4000;" xml:space="preserve">
<path d="M1588.6,571.4c0.9-11.1,1.8-21.8,2.6-32.6c10.7-143.5,143.5-234.6,281.3-192.6c53,16.1,97.7,45.4,133.1,88.3
	c4.7,5.8,9.9,11.2,17.1,19.2c10.1-11,18.8-20.5,27.7-30c54-57.6,119.3-89.4,199.5-87.6c80.9,1.9,153.7,51.4,180.7,127.2
	c9.8,27.6,12.4,57.9,17.4,87.1c1.8,10.5,1.2,21.5,1.8,33.8c45,8.4,88.3,15.6,131.2,24.6c120.1,25.1,237.5,59.4,349,111.2
	c31.9,14.8,62.6,32.5,92.8,50.7c69.5,42,111.3,102.7,131.2,182.5c49.9,200.1,103.5,399.3,155.8,598.9
	c76.9,293.4,153.9,586.8,230.9,880.2c7.6,28.8,16.4,57.3,22.9,86.3c3.6,16,14.7,23,26.2,31.9c39.3,30.2,80.7,58.4,115.4,93.3
	c27.5,27.7,50.4,61.9,68.1,96.9c50.5,99.8,38.4,196.6-24.4,287.6c-49.3,71.5-117.6,122.2-190.6,166.4
	c-135.9,82.3-283.1,138.1-435.2,182c-152.8,44-308.5,74.6-465.5,99c-256.1,39.8-514,45-772.5,41.5c-166.9-2.3-333-14.8-498.3-36.1
	c-269.9-34.9-534.3-93.6-786.8-198c-105.4-43.6-205.9-96.2-294.1-169.8c-41.8-34.9-78.7-73.8-104.8-122.4
	c-57-106.1-43.1-206.3,25-301.3c33-46,73.1-85.7,121-116.5c20.2-13,29.1-29.8,35-52.7c27.7-107.9,57.4-215.2,86.5-322.7
	c89-328.9,178.1-657.7,266.9-986.7c23.9-88.3,48.4-176.5,69.7-265.5c17.2-72.1,59-124.4,118.3-165.3
	c57.6-39.7,120.2-69.4,185.5-93.9c126.4-47.4,256.6-80,390.3-98.8C1528.4,583.5,1557.5,577.1,1588.6,571.4z M1498,1336.3
	c-2.1,9-4,15.2-5,21.6c-19.6,125.3-39.6,250.6-58.6,376c-27.7,182.1-54.8,364.3-82.1,546.4c-39,260.7-78,521.4-116.9,782.1
	c-4.8,32.3-4.5,32,23.8,49.5c128.9,79.4,270.1,123.3,418.8,145.8c153.6,23.3,307.6,25.5,461.9,7.5
	c172.7-20.2,337.1-66.5,488.5-154.1c37.1-21.4,37.3-21.1,27.9-64.5c-0.9-4.3-1.9-8.6-2.5-13c-17.8-121.1-35.9-242.2-53.3-363.4
	c-29.8-207.4-59.4-414.9-88.8-622.3c-28.7-202-57.1-404.1-85.7-606.1c-4.7-33.5-10.2-66.8-15.5-101.6
	C2104,1420.5,1801.2,1414.4,1498,1336.3z M2730.1,3072.7c27.6,2.6,54.8,5.5,82.2,7.8c153.5,13,304.1-1.5,450.4-50.8
	c88.8-29.9,168.9-75.7,235.4-143.1c41.7-42.3,62.3-90.4,41.7-150.1c-3.2-9.3-4.8-19.2-7.4-28.8c-48.8-182.1-98.1-364.1-146.4-546.4
	c-50.6-190.8-100.3-381.8-150.3-572.7c-41.4-157.9-82.6-315.8-124-473.6c-2.9-10.9-7.2-21.4-11.4-34c-7.7,5.2-11.8,7.1-14.7,10.1
	c-38.7,40.3-83.4,72.8-134.1,95.4c-46.3,20.6-62,56.2-61.3,103c0.3,18.7,0.3,37.6,2.2,56.2c4.7,47.2,12.3,94.2,15,141.4
	c3.3,58.3,4.9,116.8,3.2,175.1c-1.1,39.8-12.3,78.4-35.1,112.4c-20.8,30.8-49.9,45.6-86.9,45.3c-51.4-0.3-85.3-29.7-107.3-71.3
	c-17.4-32.8-32.9-68.4-39.7-104.5c-11.1-58.2-13.8-118-21.3-177c-4.6-35.9-10.1-71.8-17.8-107.2c-5.5-25.2-25.7-39.2-50.1-42
	c-23.5-2.7-47.6-0.6-70.9-0.6C2474.4,1358.1,2708.4,3007.9,2730.1,3072.7z M1607.1,655.2c-161.2,18.7-316.3,51.2-466.1,105.6
	c-66.5,24.1-131.1,53.4-186.4,98.5c-21,17.1-39.3,38.5-55.5,60.4c-17.8,24.1-17.2,51.4-3.6,78.3c16.6,33,38.1,62,68.4,83.8
	c18.8,13.5,37.6,27,56.9,39.9c40.4,27.1,60.9,66,67.1,112.9c2.6,19.6,5.2,40,2.8,59.3c-6.4,51.3-14.2,102.5-23.9,153.3
	c-12.1,63.9-27.4,127.1-39.8,191c-8.1,42.1-3.4,83.8,13.7,123.2c22.6,52.1,80.3,58.1,112.4,10.9c12.8-18.8,23.8-40.7,28.3-62.8
	c9.7-47.4,15.9-95.6,21.3-143.7c5.8-51.5,8.2-103.3,13.4-154.9c3.6-36.5,13.3-71.7,31.9-103.6c26.4-45.4,65.6-72.4,119-70
	c30.3,1.4,61.3,7.9,90.2,17.3c130.7,42.4,263.9,70.6,401.4,78.1c168.7,9.1,334.9-4.5,498.6-47.4c42.6-11.2,85.2-23,128.3-31.7
	c105-21.3,175.1,27.6,191.9,133.2c4.7,29.3,5.4,59.3,8.9,88.8c6.3,53.6,11.4,107.4,20.7,160.5c5.9,33.6,19,65.7,41.1,93
	c12.2,15.1,25.6,28,47.3,24.4c22.8-3.8,33.5-20.4,39.1-40.3c5.1-17.9,10.7-36.6,10.7-54.9c0-61.7-0.7-123.4-4.3-185
	c-3.4-59.4-12.8-118.5-15.8-177.9c-4-80.2,26.4-140.9,104.6-173.8c41.9-17.6,78.4-45.1,109-79.3c48.2-53.8,48.5-101.8,1-155.7
	c-5.1-5.8-10.2-11.9-16.5-16.2c-28-19.5-54.7-41.9-85-56.8c-49.3-24.4-100.2-46.2-151.9-64.8c-108.2-38.9-220.6-62.2-333.7-81.6
	c-27.1-4.7-27.7-3.8-37.8,19.9c-19.6,46.3-48.6,86.4-81.6,123.7c-80,90.4-178.4,157.2-282.2,216.7c-20.5,11.7-38.2,10.7-58.7-1.2
	c-72.8-42-142.2-88.9-207.4-141.9c-69.2-56.4-128.8-120.6-163.6-204.7C1618.2,671.9,1612.8,664.8,1607.1,655.2z M862,1075.7
	c-2.8,0.7-5.6,1.5-8.3,2.2c-3.5,11.2-7.4,22.3-10.4,33.7c-48.4,181.1-96.5,362.3-145,543.4c-53,198.1-105.8,396.3-159.6,594.2
	c-44.3,162.8-88.6,325.6-135.7,487.6c-14.4,49.5-3.3,87.7,29.2,124.4c55.9,63,122.5,111.1,199.9,143.5
	c163.2,68.4,333.2,90.2,508.8,72.7c24.5-2.4,25.4-3.2,29.1-26.9c37.3-241.9,74.8-483.8,111.8-725.7c24-156.9,47-314,70.9-471
	c24.4-160.2,49.3-320.4,73.7-480.6c3.1-20.3,5-40.8,7.9-65.7c-20.5-1.7-37.7-3.8-54.9-4.5c-40-1.5-67.7,17.4-82.2,54
	c-6.9,17.3-13,35.6-14.9,53.9c-5.8,57-9.2,114.3-14,171.4c-4.5,53.9-8.3,107.8-25.8,159.6c-11.9,35-28.7,67-56.1,92.3
	c-66.3,61.2-163.2,43-202.3-38.1c-23.6-49-33.4-101.1-23.1-154.6c16.2-84.4,35.2-168.2,53.2-252.3c10.2-47.7,16.7-95.7,10-144.5
	c-3.4-24.7-10.9-47.3-33-62.3C944.6,1151.4,895.4,1123.5,862,1075.7z M3600.1,2663.2c4.3,18.7,7.5,36.5,12.4,53.8
	c14.2,50.2,9,97.9-14.8,144.4c-34,66.1-87.9,112.7-148.9,151.7c-125.6,80.2-265.6,116.3-412.1,131.6c-98.3,10.3-196.2,5.9-293.9-6.4
	c-16.8-2.1-31.7,0.1-47.1,9.6c-185,114.6-388.8,169.8-603.8,188.4c-163.8,14.1-326.5,4.1-487.6-27.1
	c-143-27.6-278.9-75.2-401.1-156.6c-13.6-9.1-27-11.7-43.5-10.5c-119.2,9.2-238,8.6-355.7-17.4c-114.1-25.2-222.6-63.4-320.5-128.7
	c-57-38-102.9-86.4-137-145.9c-23.4-40.8-36.4-82.6-14.2-129c4-8.4,10.4-19.2,2.4-32.2c-7.5,5.9-14.4,9.6-19.1,15.2
	c-11.3,13.5-22.3,27.3-32.2,41.9c-55.4,81.5-49.8,171.5,14.1,246.9c51.5,60.8,115.5,105.3,184,144.1
	c144.2,81.6,299.9,134.1,458.7,176.7c270.7,72.5,547.2,109.6,826.8,120.5c271.5,10.6,542.8,6,812.8-30.6
	c199.2-27,396.2-63.2,587.4-126.9c123.8-41.2,244.7-88.7,356.6-156.8c59.7-36.3,116.7-76.3,158.1-133.9
	c42.5-59,58.6-123.2,30.3-193.5c-21.2-52.6-59.3-92.2-101.2-128.7C3609.7,2662.9,3606.8,2663.6,3600.1,2663.2z M2382.3,553.7
	c0.4-137.8-121.5-178.3-212.7-134.9c-47.6,22.7-82.1,58.5-106.7,104.5c-5.2,9.7-9.6,20.1-16.2,28.7c-13.8,18-33.7,17.4-46.5-1.2
	c-6.8-9.9-11.4-21.4-17.1-32c-31.3-58.4-77.8-97.7-143-113.3c-72.3-17.3-147.8,22.8-173.3,92.6c-15.8,43.3-12.5,86.7,1.3,129.8
	c16.9,52.6,48.2,96.3,85.2,136.3c72.7,78.4,159.7,138.1,250.9,192.5c13.9,8.3,24.7,5.4,36.5-2.5c51.1-34.5,103.8-67,153.1-103.9
	c55.8-41.7,105-90.7,142.4-150.6C2364.3,654.9,2382.3,607.2,2382.3,553.7z"/>
<path d="M2305.1,2122.7c50.9,1.5,88.8,42.3,86.6,93.3c-2.2,49.8-41.2,86.2-91.3,85.2c-50.3-1.1-87.7-39.7-86.4-89.2
	C2215.3,2161.3,2256.2,2121.2,2305.1,2122.7z"/>
<path d="M1686.2,2216.5c-0.3,50.1-36.9,82.9-91.6,82.1c-49.3-0.8-83.9-37.2-83.4-87.5c0.5-49.5,36.9-86.9,85-87.2
	C1649.4,2123.4,1686.5,2161.6,1686.2,2216.5z"/>
<path d="M1957.1,2426c-82.5,0.2-145.3-51.8-157-127.9c-1.7-11.2-1-25.1,4.4-34.4c8.3-14.2,36.2-10,44.2,5.9
	c5.4,10.7,7.6,22.9,11.6,34.3c14.6,41.7,50.3,66.4,93.2,64.6c46.9-2,76.6-25,89-69.1c2.4-8.5,4.1-17.2,7.1-25.4
	c7.2-19.7,17.5-26.1,34.3-22.2c14.7,3.4,21.3,13.4,21.5,32.5c0.6,63.3-52.4,126.1-116.6,137.8
	C1977,2424.3,1964.8,2425.1,1957.1,2426z"/>
<path d="M3460.3,2722.3c0.4,70.2-24.1,126.4-70.6,173.1c-8.4,8.4-18.8,15.5-29.6,20.7c-16.7,8-30,2.7-39.6-12.6
	c-8.8-14-4.5-25,6.9-34.8c0.8-0.7,1.6-1.5,2.5-2.2c67.7-50.3,78.2-118.8,61.3-195.4c-7.9-35.5-17.9-70.5-26.3-105.9
	c-5.6-23.5-1-34,16.2-41c15.7-6.4,27.5-2.5,36.4,12.3c1.7,2.8,3.2,5.9,4.2,9C3440.7,2604.3,3457.3,2663.7,3460.3,2722.3z"/>
<path d="M3243.1,2102.5c-0.1-21.4,9.4-33.3,26.2-36.9c16.7-3.6,25.9,0.4,32.2,19.4c11.2,34.5,21,69.4,30.3,104.5
	c19.5,73.4,38.4,146.8,57.1,220.4c6.9,27.2,4.2,33.6-13.6,40.5c-22.3,8.7-32.7,4.9-39.9-18.4c-13.3-43.1-25.1-86.6-37.3-130
	c-16.4-58.2-32.7-116.5-48.9-174.7C3246.6,2117.7,3244.5,2108.1,3243.1,2102.5z"/>
<path d="M845.8,1530.4c-2.4,8.9-5.1,19.5-8,30.2c-32,118.1-63.9,236.2-96,354.3c-3.2,11.7-6.4,23.4-10.5,34.8
	c-7.9,21.6-16.6,25.7-37.5,18.5c-18.2-6.3-23.1-12.7-18.3-32.3c12.2-50.3,25.5-100.4,38.8-150.4c21.3-79.9,42.9-159.6,64.5-239.4
	c2.9-10.6,5.6-21.4,9.5-31.7c7.6-20.2,15.5-25.4,31-21.7C837,1496.8,847.7,1511.1,845.8,1530.4z"/>
<path d="M699.2,2074c-0.6,3.1-1.5,8.6-2.9,13.9c-16.7,62.6-33.3,125.3-50.3,187.8c-3.1,11.3-4.8,23.9-19,28.6
	c-24.3,8.1-46.2-8.9-40-34.2c17-69.3,35.3-138.3,54.3-207.1c5.4-19.7,13.1-22.6,31.8-19.1C692.1,2047.5,699.4,2055.2,699.2,2074z"/>
</svg>
