<?xml version="1.0" encoding="utf-8"?>
<!-- Generator: Adobe Illustrator 24.3.0, SVG Export Plug-In . SVG Version: 6.00 Build 0)  -->
<svg version="1.1" id="Layer_1" xmlns="http://www.w3.org/2000/svg" xmlns:xlink="http://www.w3.org/1999/xlink" x="0px" y="0px"
	 viewBox="0 0 4000 4000" style="enable-background:new 0 0 4000 4000;" xml:space="preserve">
<path d="M1809.6,759.5c3.7-11.7,8.9-24.9,12-38.5c19.6-86.7,41-172.8,75.2-255.1c40.8-98.2,94.2-188.6,165.7-267.8
	c20.2-22.4,42.5-42.4,71.2-53.7c28.9-11.4,58.3-13.9,87.9-3.4c87.7,31.2,145.8,91.6,171.8,180.7c15.3,52.3-5.3,99.9-53.8,131.6
	c-99.6,65-143.6,162.5-162.4,275c-0.9,5.3-0.1,10.8-0.1,21c14.3-2.3,27-3.1,39-6.4c97.5-26,195.2-27.7,293-2
	c87.4,23,165.1,65.1,233.5,123.4c16.6,14.2,32.5,20.5,53.5,20.9c87.1,1.6,168.7,24.4,244.7,67.1c84,47.3,143.5,117.7,189.3,201
	c73.3,133.4,86.1,275.8,63.7,423.6c-17.7,117.3-59.9,227.3-99.9,337.9c-30.6,84.5-64.4,167.9-94.1,252.8
	c-44.9,128.4-72.1,260.8-83.4,396.6c-10,119.5-20.1,239-32.9,358.2c-12.9,119.2-48.1,232.7-102.5,339.4
	c-57.8,113.4-141.6,201-262,249.2c-66,26.4-134.8,37.3-205.4,35.1c-25.6-0.8-42.6,7.3-60.8,25.5c-65.5,65.7-147.5,101.7-237,120.9
	c-133.7,28.7-265.1,20.1-392.5-30.8c-57-22.8-110.6-52.1-152.9-98.2c-11-12-23.3-15.1-38.7-13.9c-172.5,13.3-302.7-61.4-402.2-196.5
	c-79.6-108-120-232.2-138.7-363.5c-15.3-107.7-26.5-216-40.5-323.8c-19.6-151.4-57.9-298.1-110-441.7
	c-49.2-135.6-103-269.7-139.9-409.5c-26.2-99.4-41.1-200.3-36.3-303.1c7.9-172.7,62.4-327,189.9-448.5c85-81,186.5-131.2,305.3-141
	c17.7-1.5,31.8-7.3,42.7-21.9c34.3-45.5,80.4-76.3,130.3-101.5c116.6-58.9,240.3-76.1,369.1-58.6
	C1736.6,744.7,1771.2,752.4,1809.6,759.5z M2618,2327.5c1.3-13.4,1.9-24.2,3.4-34.9c21.7-158.3,45.5-316.4,64.7-475.1
	c13.2-109.3,16.5-219.1-2.3-328.7c-42.9-250-184.2-416.7-424.5-495.7c-180.5-59.4-364.1-65.5-547.6-10.6
	c-250.8,75.1-410.9,238.3-473.7,493.5c-36.7,149-32.1,300.3-10.4,450.4c19.9,138.4,47.3,275.7,72.5,413.3
	c28.9,157.5,50.5,315.7,57.4,475.8c0.6,14,0.1,28,0.1,41.1c-35.7,7.8-37.9,6.6-41-21.3c-2.3-21-4.2-42-6-63
	c-12.5-145-32.9-288.9-58.4-432.2c-26.7-149.7-56.5-299-77.2-449.5c-20.1-145.9-15.7-292,20.9-436.6c37.7-148.9,112.4-274.2,226-377
	c6.2-5.6,11.5-12.1,17.5-18.5c-4.2-4.6-5.9-7.8-8.6-9.3c-8.8-4.7-17.8-9.2-27-12.9c-67.6-27.1-138.3-29.7-209.8-26.8
	c-101,4.2-187.4,44.6-261.9,110.1c-107.8,94.8-162.8,216.8-176.7,358.6c-11.2,114.7,4.1,226.5,39.1,335.3
	c37.4,116.2,77,231.7,119.2,346.2c69.8,189.6,117.4,383.9,138,585.1c9.8,96,22.8,191.9,39.3,286.9c16.5,94.8,48.6,184.9,107,263.1
	c52.2,69.7,114.5,127.2,200.8,152c38.2,11,77.2,16.1,116.4,10.9c0.9-5.4,2.1-7.9,1.4-9.6c-1.7-4-3.9-8-6.5-11.5
	c-58.9-78.2-96.6-166.8-126.5-259.2c-6.1-18.9-10-38.7-13.3-58.3c-2.2-13,6-20.9,18.4-23.5c11.6-2.4,19.5,3.1,23.1,14
	c4.5,13.7,8.6,27.5,12.6,41.4c40.1,139.8,108.7,262.5,220.8,357.3c28.5,24.1,61,44.9,94.6,61.1c106.9,51.7,219.7,57.6,335.1,36.5
	c75.7-13.9,144.9-41.9,203.7-92.5c69.4-59.6,122.6-131,157.8-215.8c50.3-121.3,73.3-248.7,87.5-378.2
	c13.1-120.3,26.4-240.5,39.9-360.7c1.4-12.7,5.5-25.2,8.9-40.2c13.6,1.5,24.1,2.7,37.1,4.1c-0.7,14.5-0.6,26.5-2,38.4
	c-3.7,33.1-8.3,66.1-12,99.2c-13,115.9-25.1,231.8-38.7,347.6c-17.6,150.5-60.1,293.3-135.2,425.7c-3,5.2-3.1,12-4.7,18.4
	c5.1,1.3,8.2,2.7,11.4,2.9c7.8,0.4,15.6,0.7,23.3,0.3c85.9-4.2,163-32.2,229-87.8c64-53.9,110.1-121.2,143.8-197.6
	c32.1-72.6,55.5-148.2,65.4-226.4c14.6-115.6,24.3-231.8,33.8-347.9c9.6-118.7,25.7-236,57.9-350.9c33.6-120,78.2-236,124.2-351.5
	c40.3-101.3,74.6-204.3,95.1-311.6c19-99.7,21.5-199.1-10.9-296.4c-53.4-160.5-158-266.7-327.1-304.3
	c-52.1-11.6-103.8-9.3-155.7-4.6c-70.3,6.3-137.5,24.8-200.2,57.8c-7.4,3.9-14,9.1-20.4,13.4c1.8,5.1,2,7.6,3.4,9
	c3,3.2,6.4,6,9.9,8.7c107.1,82.8,170.3,194.4,209.1,321.4c32.9,107.7,38.2,218.6,30.4,330.1c-12.9,185.2-39.2,368.8-70.6,551.6
	c-3.7,21.5-9.1,42.8-14.3,67C2641.1,2332.3,2630.9,2330.2,2618,2327.5z M2111.2,900.2c-56.9-191.8,1.7-352.7,139-489.8
	c-2.9-4.3-3.7-6.9-5.3-7.6c-24.9-10.6-35.9-7.6-55.9,19.2c-72.5,97-119.5,204.5-131.9,326c-1.5,15.1-5.1,29.9-7.6,44.1
	c-32.2,0.8-35-1-33.2-27.5c5.3-76,23-149.1,56.8-217.6c29.5-59.7,60.4-118.8,104.3-169.7c9.1-10.5,10.4-19.2-6.8-27.4
	c-8.8,8-19.5,15.8-27.9,25.6c-35.5,41.6-64.2,87.6-85.7,138c-3.5,8.2-5.8,17.2-10.8,24.2c-3.2,4.5-12.9,9.7-15.4,8.1
	c-5.5-3.5-9.8-10.9-11.7-17.5c-1.3-4.5,1.8-10.7,3.8-15.8c23.4-58.1,53.6-112.1,96.7-158c11.2-11.9,24.4-22,38.3-34.3
	c-8.2-19.7-15.9-38.3-27-65.1c-6.6,10.8-9,15.9-12.4,20.1c-62.4,76.1-114,159.1-147,251.8c-26.3,74.1-46,150.5-67.5,226.3
	c-13.7,48.2-26.9,96.2-56.4,137.8c-1.6,2.2-0.6,6.2-0.8,9.2C1935.6,900.2,2023.8,900.2,2111.2,900.2z M2673.3,928.8
	c-70-71.1-152.6-96.4-239.9-111c-71.8-12-226.8,10.3-266.7,38.4c9.6,37.8,26,65.1,69.4,78.1c58,17.3,113.7,43.3,168.9,68.9
	c18.3,8.5,31.2,10.9,48.6,0.2c41.9-25.7,87.8-42.2,135.3-54.2C2614.4,942.7,2639.9,936.8,2673.3,928.8z M1280.5,949.7
	c7.3,5.6,8.9,7.8,10.8,8.1c65.1,10.4,127,30.4,186,60c7.2,3.6,20.6,2.8,27.4-1.6c71-45.8,149.8-71.8,230.7-92.5
	c39.9-10.2,51.6-43.5,69.3-76.1c-8.5-2.8-12.4-4.9-16.5-5.3c-52.9-5.9-105.7-14.6-158.8-16.7c-114.4-4.6-219.8,24.8-313.2,92.6
	C1304.1,927,1293.6,938.1,1280.5,949.7z M2310.8,345.6c-1.6-5.4-2.9-14.4-6.6-22.2c-15.7-33.4-36.9-62.8-67.2-84.6
	c-6.2-4.4-13-8.7-20.2-10.8c-22.2-6.4-36.3,6.1-29.1,27.8c7.6,22.8,17.6,45.4,30.5,65.6c16.1,25.2,42,38.7,71.1,44.8
	C2303.5,369.1,2310.4,362.8,2310.8,345.6z"/>
<path d="M911.6,1859c-33.3,2.5-33.7,2.7-42.4-20.4c-21.3-56.3-35-114.6-43.3-174.2c-16-115-11.1-228.2,30.8-337.9
	c39-102.4,108.3-177,207.8-223c11-5.1,22.6-9.4,34.2-12.9c26.9-8.1,39.7-5.4,43.4,8.1c3.3,12.2-4.8,19.8-30.4,28.6
	c-9.4,3.2-19.1,6-28.1,10c-111.8,50.1-175.5,139.7-206.1,254.9c-29.7,112.1-23.7,224.5,2.9,336.4c7.9,33.4,18.2,66.3,26.9,99.6
	C909.6,1837.4,910,1847.1,911.6,1859z"/>
<path d="M2975.1,1081.4c42.6,20.6,74.6,53.6,100.6,93c59.3,89.9,77.7,190.9,71.6,295.8c-3.5,60.6-16,120.8-26.8,180.7
	c-4.5,24.6-8.4,24.7-37.8,16.3c1.7-13.3,2.4-27.5,5.4-41.1c20.4-94.3,24.1-189.5,9.4-284.5c-13.2-85-51.6-157.4-120.5-211.9
	C2949.9,1108.3,2950.2,1101.1,2975.1,1081.4z"/>
<path d="M2861.1,2844.9c-19.5,136.6-42.3,276.6-125.3,397.8c-33,48.3-74.7,87.6-125.6,116.6c-4.8,2.7-9.6,5.5-14.7,7.7
	c-10.2,4.3-21.3,10.4-28.7-3.6c-7.1-13.5-2.2-23,11.4-29.3c45.4-21,79.1-55.4,110.8-93.3c34.8-41.6,59.4-87.5,75.5-139
	c24.9-79.5,44.2-160.1,53.6-242.9c1.1-9.9,3-19.7,4.6-29.6c1.8-11.2,7.6-18.5,19.8-18c14.3,0.6,18.4,10.1,18.7,22.6
	C2861.2,2836.1,2861.1,2838.3,2861.1,2844.9z"/>
<path d="M2270.4,2410.3c-46-0.2-83.5-38.7-83.2-85.5c0.3-48.2,42-89.2,89.7-88.1c45.1,1.1,82.4,40.4,82.6,87.2
	C2359.7,2374.1,2322.2,2410.5,2270.4,2410.3z"/>
<path d="M1736.3,2326.9c0.9,45.8-39.1,86.7-86,87.9c-46.8,1.3-83.5-34.9-84.8-83.4c-1.3-48.1,36.1-88.5,83.2-89.8
	C1695.3,2240.3,1735.4,2279.3,1736.3,2326.9z"/>
<path d="M948.6,1558.3c-20.7,5.4-31.7-0.8-31.9-19.5c-1.8-127.8,33.5-240.5,134.8-325.5c12.5-10.5,27.6-18.8,42.8-24.6
	c7.4-2.9,21.5-1,26.2,4.4c8.8,10,2,20.5-8.3,27.6c-3.7,2.5-7.3,5.1-11.1,7.3c-80,46.1-118.8,119.9-136.6,206.6
	c-6.2,30.2-7.8,61.4-11.5,92.2C951.5,1537.5,950,1548.2,948.6,1558.3z"/>
<path d="M1966.6,2528.5c-61.3-0.3-111.5-34.4-130.9-89.5c-3.2-9.2-6.2-19.6-5-29c0.9-7.2,7.9-18.2,13.4-19c8-1.2,19.5,3.1,25.1,9.2
	c6.2,6.7,7.6,18,11,27.3c14.8,39.4,41.7,56.3,88.3,55.3c38-0.8,67.7-22.5,80-58.4c2.5-7.3,4.6-14.8,7.5-22
	c5.5-13.5,15.9-18.1,29.5-14c14.3,4.3,18.8,14.4,14.8,28.5C2083.8,2474.8,2048.6,2528.4,1966.6,2528.5z"/>
<path d="M3061.4,1442c-1.8,26.7-2.5,47.9-4.8,68.8c-1.1,9.6-3.6,20-8.9,27.8c-3.5,5.2-13.7,9.7-19.5,8.4c-4.8-1.1-10.1-11-10.7-17.3
	c-1-12,1-24.3,2.4-36.4c6.4-56.8,4.7-113.4-10.4-168.4c-7.8-28.4-22.8-54.8-34.7-82c-1.8-4-4.6-7.6-6.6-11.5
	c-5.1-10-5.4-19.4,5.6-25.8c10.2-6,20.3-4.3,26.3,5.3c11.3,17.7,22.8,35.5,31.1,54.7C3056.3,1323.5,3063.6,1384.9,3061.4,1442z"/>
<path d="M3092.6,1752.2c-13.5,34.3-25.4,66.2-38.6,97.6c-4.9,11.6-16.5,17.2-27.3,10c-4.7-3.1-6.2-15.9-4.2-23
	c6.8-24.5,15.1-48.7,24.1-72.6C3054.1,1744.3,3059.4,1742.9,3092.6,1752.2z"/>
<path d="M2642.8,3195.8c13.3,0.7,21.2,12.8,15.8,26.4c-8.2,20.5-23.4,35.2-43.4,43.9c-13.4,5.9-29.4-6.3-22.8-16.9
	c12-19.2,28.8-35.5,43.9-52.7C2637.4,3195.3,2640.6,3196,2642.8,3195.8z"/>
</svg>
