<?xml version="1.0" encoding="utf-8"?>
<!-- Generator: Adobe Illustrator 24.3.0, SVG Export Plug-In . SVG Version: 6.00 Build 0)  -->
<svg version="1.1" id="Layer_1" xmlns="http://www.w3.org/2000/svg" xmlns:xlink="http://www.w3.org/1999/xlink" x="0px" y="0px"
	 viewBox="0 0 4000 4000" style="enable-background:new 0 0 4000 4000;" xml:space="preserve">
<path d="M2731.6,1409.9c16.9-7.7,26.9-12.3,37-16.8c94.5-42.5,192.7-71.6,296.5-79.6c12.2-0.9,24.9-1,36.9,1.3
	c21.1,4,34.3,17.7,39.5,38.7c4.8,19.4-2.5,34.1-18.3,45.4c-5.9,4.2-11.2,9.1-17.2,13.1c-123.2,83.9-196.5,202.6-239,342.7
	c-28.2,93.1-42.3,188.8-50,285.4c-10.6,132.4-17.6,265.1-31.2,397.2c-16.9,164.1-44.5,326.7-102.8,482
	c-50.3,133.9-124.6,252.7-229.4,351.2c-41.4,39-86.9,72.9-137.2,99.4c-21.7,11.4-33.9,25.4-39,50.6c-8,39.2-22,77.1-33.1,115.7
	c-28.4,99-98.8,147.3-196.2,163.8c-61,10.3-121.3,6-180.8-8.1c-77.5-18.4-134.1-61.8-156.7-141.4c-12.6-44.5-25-89.2-35.3-134.3
	c-3.8-16.9-11.2-27.1-26.2-35c-170.7-89.1-285.3-229.6-366.1-400.8c-61.2-129.7-98.5-266.7-115.3-408.5
	c-14.9-125.7-23.6-252.1-33.1-378.3c-9.2-122.2-13.6-244.8-36-365.6c-22.1-119-62.6-230.7-139.5-326c-23.8-29.5-52.1-55.3-78.8-82.4
	c-9.4-9.5-20.4-17.3-30-26.6c-17.2-16.6-29.3-35.2-18.2-60.4c10.6-24,31.1-32.2,55.2-31.8c29.8,0.5,60.2-0.3,89.2,5.3
	c55.4,10.7,110,25.6,164.9,38.7c5,1.2,9.9,2.4,18.9,4.6c1.9-9.1,5.2-17.4,5.2-25.8c-0.5-181.7-8.2-362.6-65.5-537.4
	c-4.2-12.7-7.6-25.7-10.3-38.8c-6.6-33.1,15.4-60,49.2-58.5c15.2,0.7,31.1,3.4,45,9.2c91,38.1,167.9,95.1,226.8,175.1
	c4.3,5.8,8.7,11.4,13.7,16.6c1.8,1.9,5.2,2.4,11.2,5c1.7-11.1,3.3-20.8,4.5-30.5c5.4-46,19.8-88.3,50.9-123.6
	c10.2-11.5,13.7-23.6,13.3-39.3c-1.7-62.9,12.8-120.6,61.5-164.9c10.7-9.7,13.8-21.4,15.8-35.4c8-54.9,28.7-102.5,78.6-133.6
	c9.3-5.8,17.1-18.2,20.3-29.1c14.6-50.9,44.4-86.9,93.6-107.9c12.5-5.3,24.1-16.1,32.7-27c32.8-41.6,74.7-63.6,127.7-64.1
	c31.8-0.3,63.9-2.3,95.5,0.1c42.5,3.3,79.2,21.3,108.8,52.6c21.3,22.4,43.1,43.9,70.2,59.7c21.9,12.8,36.6,33.3,46.4,56.4
	c8.6,20.3,20.6,37.5,36.9,52.5c41.3,37.9,59.8,87.5,71.2,140.9c2.9,13.5,8.6,27.6,17,38.3c35.2,44.9,51.1,95.4,51.7,151.9
	c0.1,10.6,3.3,23.1,9.5,31.3c26.3,34.2,34.9,73.9,40.7,115c2,14.1,5.1,27.9,7.7,42.1c20.3,1.5,27.3-12.7,35.8-23.3
	c37.9-47.9,78.6-93.1,128.5-128.4c32.6-23.1,67.3-43.8,103.1-61.6c30-14.9,65.3,3.1,69.8,33.3c1.9,12.5-1.8,26.5-5.3,39.2
	c-13.3,48.6-28.6,96.7-41.4,145.5c-31.4,120.3-41.6,243.3-45.4,367.1c-1.2,40.1-2.4,80.3-3.5,120.4
	C2731.4,1382.7,2731.6,1392.8,2731.6,1409.9z M2056.9,2671c-1.2-6.8-1.4-11.9-3-16.5c-30.9-86.2-60.5-172.9-93.4-258.4
	c-66.5-172.4-150.3-335.9-250.9-491.1c-77.6-119.8-172.7-223.3-283.5-311.7c-121.2-96.8-256.5-167.5-409.2-201.4
	c-13.6-3-27.7-3.5-41.5-5.2c10.6,20.4,25,34.4,37.5,50.1c83,104.4,134.1,223.3,160.7,353.6c25.9,126.6,33.6,255.1,41,383.5
	c8.7,151.1,15.8,302.3,44.8,451.4c23.2,119.7,53.4,237,110.4,345.9c47.5,90.9,103.2,175.7,180.7,244.4
	c107.8,95.6,233.2,150.2,377.4,156.1c53.2,2.2,106.9-2.9,160.1-7.2c30.2-2.4,32.5-5.7,36.6-35.7c5.5-39.6,12.8-79.6,12.2-119.3
	c-0.9-63.7-3.5-127.9-12.9-190.7c-14.9-100.5-36-200-54.6-300.6c-15,0-26.1-0.2-37.2,0c-26.3,0.7-51.5-4.3-74.1-17.8
	c-33.1-19.8-57.7-46.3-63.4-86.4c-1.4-9.8-0.7-20.6,10.4-22.5c7.9-1.3,17.5,2.2,25,6.2c4.6,2.5,7.1,9.7,9.6,15.2
	C1963.9,2665.3,1994.8,2681.3,2056.9,2671z M2106.7,2699.7c32.4,121.4,57.2,240.2,70,361.2c8.9,84.2,13,168.4-2.3,252.4
	c-1.5,8.5-1.8,17.2-2.9,28.4c8.6-2.3,13.5-3.3,18.2-5c92.6-33.3,173.1-85.9,241.6-156.1c73-74.7,123.2-164.3,163.9-259.6
	c61-142.6,87-293.8,103.6-446.4c15.8-145.2,25.6-291.1,37.8-436.7c7.7-91.4,19.3-182.2,43.6-270.8
	c35.4-128.8,90.4-247.2,186.4-343.3c3.6-3.6,5.3-9.1,9.2-15.9c-7.4,0.6-11.6,0.5-15.5,1.3c-10,2.2-20.1,4.3-29.9,7.4
	c-76.9,24.1-149.6,57.7-219.4,97.9c-111.9,64.4-206.3,150.2-293.7,243.7c-168.7,180.6-303.2,384.2-403.1,610.4
	c-7,15.7-5.8,28.7-0.3,44.1c25.6,71.7,50,143.8,74.9,215.7c2.1,6.1,5.1,11.9,10.9,25.1c8.2-19.8,13.6-32.7,18.8-45.6
	c4.2-10.5,7.2-21.5,12.3-31.4c4.6-8.8,13.8-14.7,23.1-9.1c6.9,4.2,13.9,12.4,15.6,20.1c1.9,8.4-1.5,18.3-3.8,27.2
	C2156.7,2649.4,2138.1,2678.3,2106.7,2699.7z M1190,791.2c2.8,15.6,3.7,23.5,5.6,31.2c45.7,184.2,59.8,371.3,51.7,560.5
	c-0.5,10.8,0.1,19.6,11.4,25.9c24,13.5,47.2,28.4,70.2,42.4c13.7-24,27.6-46.5,39.4-70c3.1-6.2,1.7-16.1-0.6-23.3
	c-22-68.2-13.5-131.6,26.8-191.1c5.2-7.6,9.4-20.3,6.7-28c-12.6-35.9-8.4-71,0.6-106.4c3.1-12.4,3.1-23.5-4.2-35.3
	c-36.1-58-75.7-112.8-129.9-155.6C1245.4,823.8,1223,806,1190,791.2z M2623.3,1504.5c20.3-10.2,30-25.8,28.4-51
	c-3-47.2-6.1-94.7-4.3-141.9c6.5-172.1,24.3-342.7,71.7-509.2c1.8-6.2,1.8-12.9,3-21.5c-5.7,2.3-8.9,2.9-11.2,4.6
	c-77.4,58.8-136.7,133.3-186.6,215.9c-10.9,18-9.3,34,3.6,51c34.5,45.5,44.2,96.6,29.3,151.8c-4.3,16.2-3.3,30.2,6.3,43.8
	c35.4,50.1,38.8,104.5,22.3,162.1c-2.5,8.8-1.7,20.5,2.2,28.8C2598.3,1461,2611,1482.1,2623.3,1504.5z M1757.2,3420.8
	c11.6,39.2,20.9,70.5,30.1,101.8c15.1,51.8,50.9,79.2,102.4,91.3c54.5,12.8,108.3,10.1,162.2-0.9c60.4-12.3,103-44.7,119.4-106.6
	c5.6-20.9,13-41.2,18.9-62c2.1-7.4,2-15.4,3.4-27.3c-72.8,21.5-143.2,35.4-215.4,35.1C1906.3,3451.9,1835.4,3440.6,1757.2,3420.8z
	 M1999.5,1511.3c0,0.8,0,1.5,0,2.3c30.8,0,61.7-0.4,92.5,0.2c18.9,0.3,31.4-8.1,38.5-25c17.6-41.6,20.2-83.5,2.3-125.8
	c-7.4-17.4-19.4-28.6-38.8-31.1c-59.5-7.6-118.9-8.1-178.2,1.2c-22.3,3.5-37.6,17.3-44,38.6c-10.9,36.3-11.4,73,0.3,109.3
	c6.3,19.5,19,30.9,40.9,30.4C1941.9,1510.9,1970.7,1511.3,1999.5,1511.3z M2000.6,1555.7c0-0.1,0-0.2,0-0.3
	c-30.8,0-61.6-0.5-92.4,0.1c-29.2,0.6-38.7,7.1-43.9,36.5c-4,22.9-4.8,46.9-3.2,70.2c2.6,37.7,13.2,50.1,51.1,52.2
	c57.3,3,114.8,1.9,172.2,2c8,0,17.1-1.5,23.7-5.6c9.9-6.2,21.9-13.6,26.1-23.4c13.5-32.2,14.4-65.9,2.2-99.1
	c-7.9-21.4-22.6-33.2-46.6-32.7C2060.2,1556.2,2030.4,1555.7,2000.6,1555.7z M2007.2,1759.1c0,0.5,0,1,0,1.5
	c-33.9,0-67.9,0.4-101.8-0.2c-17-0.3-26.6,7.2-31.7,23.1c-8.6,27.2-9.7,54.1-3.6,82.1c4.7,21.7,15.1,33.9,37.8,38.3
	c59.2,11.4,118.5,13.3,177.9,3.8c36.4-5.8,57.4-27.1,59.5-64.1c1.1-19.9-3.4-40.7-8.4-60.3c-4.5-17.7-17.7-25.5-37.3-24.6
	C2068.9,1760.1,2038.1,1759.1,2007.2,1759.1z M1893.3,1286.4c7.4,0,12.4,0,17.5,0c57.4,0.5,114.8,0.9,172.3,1.5
	c8.2,0.1,16.4,0.8,24.6,0.7c11.4-0.1,19-5.8,23.7-16.4c15.3-34.3,18.8-69,5.2-104.7c-8-20.9-22.5-34.1-44.6-38.1
	c-55.4-10-110.5-4.4-165.4,4c-19.2,2.9-30.5,15.1-37.9,32.3C1871.4,1206,1871.3,1245.3,1893.3,1286.4z M1812.5,1398.8
	c6.3-20.4,9.3-39.3,17.8-55.2c13.3-24.7,21.2-47.3,4.6-73.8c-5.1-8.1-5.4-19.8-5.9-30c-0.8-16-7.8-24.7-24-26.3
	c-38.8-3.9-77.4-9.1-116.3-11.8c-30.8-2.2-50.1,15.1-60.2,43.2c-13.9,38.6-11.7,76.7,4.1,114.3c8,19,21.8,27.8,42.9,29.2
	c40,2.6,79.8,7.4,119.7,11.1C1800.1,1399.9,1805.2,1399.1,1812.5,1398.8z M1806.7,1608.3c10.6-23.6,19.5-44.3,29.3-64.5
	c6.3-13.1,6.1-24.6-0.8-38c-7.5-14.3-13-30-17-45.8c-3.3-13.1-9.9-19.7-22.9-20.5c-45.1-2.7-90.3-5.3-135.4-8.2
	c-12.7-0.8-21.1,4.9-28.4,14.8c-24.8,33.4-27.3,96.3-5.3,132c7.6,12.4,17.3,19.5,32.1,20.4C1707.4,1601.6,1756.5,1605,1806.7,1608.3
	z M1830.8,1166.4c9.7-18,20.9-38.5,31.6-59.2c1.7-3.3,2.8-8.9,1.2-11.7c-14.2-25.5-13.5-53.3-14.1-81c-0.2-9.7-3.6-18.9-15-20.2
	c-38.7-4.4-77.3-10-116.1-11.4c-12.6-0.5-27.9,8-38.1,16.9c-41.8,36.1-42,100.7-23.7,145.6c2.3,5.6,12.6,10.7,19.6,11.2
	C1727.1,1160.4,1778.1,1163.1,1830.8,1166.4z M2187,1677.8c52.1-4.4,99-7.5,145.7-12.9c11.2-1.3,23.6-8.6,31.6-16.8
	c27-27.7,32.4-81.5,14.1-115.4c-8.1-15-19.7-23.6-37.1-22.1c-51.1,4.4-102.3,8.2-153.3,14c-21.8,2.5-23.9,8.1-16.1,28.8
	c10.5,28.2,16.3,57.2,15.2,87.4C2186.7,1650.8,2187,1660.9,2187,1677.8z M2132.3,1945.6c-7,0.5-12.1,0.2-16.9,1.3
	c-56.9,12.2-114.2,13.2-171.8,7c-15.3-1.6-30.6-5.2-45.9-5.3c-6.8-0.1-18.2,4.7-19.7,9.7c-15.4,50.5-18.1,93.8,46.6,106.5
	c58.2,11.4,116.5,11.3,175,3.4c15.3-2.1,26.9-10.8,33.5-24.6C2148.5,2011,2148.5,1978.6,2132.3,1945.6z M2186.9,1475.3
	c54,1.7,103.7-3.2,153.1-12.3c5.4-1,11-5.4,14.9-9.7c27.6-30.7,33.1-86.3,12-121.6c-12.4-20.7-30-34.2-55.7-30.9
	c-39.7,5.1-79.3,10.8-118.9,17c-7.4,1.2-14.3,5.7-24.5,9.9C2193.2,1375,2188.4,1424.7,2186.9,1475.3z M1803.8,1647.6
	c-50-2.4-102.3-4.2-154.5-7.9c-24.1-1.7-27.6,17.6-36.7,31.2c-8,12.1-8.8,23.8,2.2,36.3c22.2,25.5,42.2,53,64.7,78.3
	c6,6.7,17.3,11.2,26.6,12.1c27.6,2.7,55.3,3.7,83,4.1c31.7,0.5,35-1.7,42.7-32c3.9-15.4,8.7-33,4.7-47.4
	C1829.9,1698.4,1816.6,1676.1,1803.8,1647.6z M1908.5,1085.6c9.6,0,16.9,0.9,23.8-0.1c52.3-7.7,104.6-6.9,157-1.3
	c24.3,2.6,33.5-0.7,38.4-16.5c11-35.2,8.6-69.5-14.3-99.7c-5.7-7.5-16.2-13.9-25.5-15.7c-46.9-9.1-94.2-10.9-140.9,0.4
	c-25.6,6.2-45.4,21.7-49.4,49.3C1893.7,1029.5,1896.1,1057.2,1908.5,1085.6z M1917.3,911.5c57.1-8.1,111.1-11.6,165.3-5.6
	c17,1.9,26.9-7,32.1-22.4c12.2-36.4,6.9-71.3-12.4-103.3c-5.6-9.3-18.4-17-29.3-19.7c-32.1-7.8-65.2-9.2-97.6-1.3
	c-34.7,8.5-57.4,29.5-63.3,66.7C1907.7,853.7,1911.1,880.7,1917.3,911.5z M1798.9,774.6c-37.8-0.7-64.1,2.6-83,25.6
	c-27,33-31.1,70.6-20.6,110.5c3.6,13.6,11.8,23.8,27.5,25.4c41.8,4.3,83.5,9.2,125.4,13.2c20,1.9,28.1-6,22.5-25.4
	c-11.2-38.6-11.5-77-4.4-115.9c2.5-13.7-3.7-21.9-16.9-24.5C1829.3,779.7,1809,776.4,1798.9,774.6z M1936.2,715.3
	c49.2,0,96.2,0,143.3,0c13.1,0,17.1-9,20.2-19.4c8.3-27.6,5.9-54.9-0.7-82.4c-11.5-47.9-22.5-57.7-71-60.7
	c-11.2-0.7-22.7-0.6-33.8,0.8c-40.1,5.1-62.7,27.8-67.1,68.4C1923.8,652.8,1924.8,683.6,1936.2,715.3z M1578.6,1589.9
	c-27.8-59.8-8.4-114.2,5.8-170.8c-40-8.4-77.3-12.7-115.1-13.6c-20.9-0.5-39.1,4.3-48.7,25c-11.9,25.5-19.5,52-11.4,80.2
	c1.3,4.4,6.2,8,10.1,11.3c16.5,13.9,34,26.7,49.6,41.5C1498.9,1592.2,1535.1,1591.7,1578.6,1589.9z M1892.4,745.4
	c-2.9-12.1-4.4-21-7.1-29.5c-9.9-31.1-10.3-62.2-3.4-94c10.6-48.7,6.3-54.4-43-60.2c-9.1-1.1-18.4-0.5-27.6-1
	c-28.6-1.5-48.7,12.3-64.4,34.8c-23,32.9-23.4,69.2-15.8,106.3c5.4,26.2,10.2,29.5,37.7,30.2c35.9,0.9,71.8,1.3,106.3,13.3
	C1878.7,746.5,1883,745.4,1892.4,745.4z M2184.1,1270.6c45.7-4.9,85.4-9.4,125.2-13.4c13.5-1.4,23.7-7.3,29-19.7
	c15.2-35.9,16.5-72.1-2.3-107c-12.7-23.4-31.6-37.6-60.5-31.5c-29.1,6.1-58.4,11.7-87.4,18.2c-5.6,1.2-10.5,5.5-18.3,9.7
	C2194.3,1172,2191,1219.8,2184.1,1270.6z M1595.5,1199.4c-9.9-3.3-14.5-6-19.4-6.3c-21.5-1.7-43-3.6-64.6-3.8
	c-36.5-0.3-54.1,12.2-67.6,46.4c-12.9,32.7-13.3,66-4.6,99.8c3.8,14.9,12.2,21.9,27.7,24c33.5,4.6,66.8,11,100.3,16.2
	c5.7,0.9,11.7-0.7,20.2-1.3C1566.5,1314.9,1569,1257.7,1595.5,1199.4z M1625.3,980.3c-32.9-7.6-66.4-7.7-99.7-2.8
	c-8.9,1.3-18.8,9.1-24.6,16.6c-30,39.2-38.4,83.2-23.8,130.5c2,6.5,9.7,14.9,15.8,15.8c37,5.9,74.3,9.9,112.4,14.7
	c-1.6-30.6-6.8-59.4-3.6-87.2C1605.1,1039.2,1616.6,1011.4,1625.3,980.3z M2195.2,1850.2c23.3,0,45.9,1.6,68.2-0.7
	c9.9-1,21.2-7.9,28.2-15.4c24.3-26.4,47.6-54,70-82.1c5.7-7.2,10.9-18.9,9.1-26.9c-3.2-13.8-16.9-16-30.1-15.1
	c-47.2,3.2-94.4,6-141.5,10c-10.3,0.9-20.2,6-27.1,8.1C2180,1770.4,2187.2,1808.4,2195.2,1850.2z M1670.8,768.8c-29,0-50.4,0-71.9,0
	c-23.7-0.1-40.5,11.2-53.9,30.3c-23,32.9-29.7,69.4-26.2,108.4c1.9,21.2,4.4,24.2,26.2,26.6c33.6,3.6,67.3,6.1,100.9,8.8
	c1.7,0.1,3.5-1.8,8.3-4.5C1631.6,883.1,1646.5,829.1,1670.8,768.8z M1886.9,2113.2c1.5,5.7,2.2,11.7,4.6,16.9
	c12.8,28.1,28.2,55.2,38.6,84.1c11.8,33,31.3,46.3,66.7,43c16.4-1.5,26.9-4.9,34.4-19.6c16.8-33,34.5-65.6,51.4-98.6
	c3-5.9,3.8-13.1,5.3-18.6c-65.2-4.4-128.5-8.8-191.9-12.8C1893.6,2107.5,1891,2110.6,1886.9,2113.2z M2179.1,1070.7
	c38.4-6.3,72.9-11,106.8-18.3c8.4-1.8,18.5-10.3,21.8-18.2c12.2-29.1,9.7-58.3-7.1-85.3c-8.3-13.4-19.4-24.6-37.1-23.1
	c-34.5,2.8-68.2,10.1-104.8,21.2C2181.2,986,2182,1026.6,2179.1,1070.7z M2414.1,1664.5c19.6,2.7,32.6-6.2,44-15.9
	c25.8-22,51.1-44.7,75.3-68.5c6.7-6.5,12.6-18,12.1-26.8c-1.2-20.3-4.7-40.9-11.3-60.1c-3-8.8-16.4-21.3-23.6-20.3
	c-32.8,4.4-65.1,13-94.9,19.5c6.3,31.6,16.3,58.7,15.9,85.6C2431.2,1605.9,2420.8,1633.7,2414.1,1664.5z M1944.1,512.7
	c45-1.5,83.8-2.6,122.6-4.2c12-0.5,15.4-9.2,14.5-19.4c-1.8-19.4-2.8-39.1-6.9-58.1c-8-37.6-29.2-51.8-69.6-49.4
	c-36.5,2.2-57.2,20.8-60.2,57.4C1942.6,462.4,1944.1,486,1944.1,512.7z M2147.3,766.5c19.6,43.3,17.9,86.2,13.9,132.8
	c35.5-7.2,67.6-13.3,99.4-20.2c16.5-3.6,23.7-15.3,22.8-31.8c-1.4-27.2-8.3-53.2-24.6-74.9c-6.7-8.9-19.1-17.7-29.6-18.6
	C2203,751.3,2176.5,755.2,2147.3,766.5z M2413.2,1448.6c28.2-8.6,50.5-13.2,70.7-22.4c11.1-5,23-16.1,27.1-27.2
	c12.6-34.1,9.6-69.1-6.3-101.8c-7-14.3-19.3-25.6-36.8-23.4c-24,3.1-47.6,8.5-76.2,13.8C2428.8,1337.3,2427.2,1388.6,2413.2,1448.6z
	 M1909.1,387.1c-25.3,0-45.8-1.1-66,0.3c-23.5,1.6-40.2,14.9-49.7,36.1c-12.4,27.6-17.1,56.5-13.8,88.6c40.8,4.4,80.6,8.6,122,13
	C1890.2,480,1898.9,435.8,1909.1,387.1z M2133.7,564.5c4.8,26.3,11.3,51.3,13.6,76.6c2.3,25.9,0.5,52.1,0.5,79.1
	c21.7-3.8,42.7-8.2,64-11.2c16.8-2.3,27.2-11.6,28.1-27.6c1.1-20.2,2.3-41.4-2.1-60.9c-13.8-61.4-39.1-75.4-100.4-59.2
	C2136.5,561.5,2135.8,562.6,2133.7,564.5z M1705.9,569.6c-77.5-12-142.2,70.1-119.6,149.6c32.9,4.2,66.8,8.5,104.4,13.3
	C1668.5,673.9,1680,620.9,1705.9,569.6z M2362.2,1087.9c34.8,48.7,38.9,98.4,25.9,156.3c27.9-7.8,50.8-12.2,71.8-21
	c8.4-3.6,17.2-16.4,18.1-25.8c2.2-23.1,4.3-47.8-1.6-69.7c-13.5-50.5-41.6-62.6-84.5-49.7
	C2383.3,1080.5,2374.8,1083.6,2362.2,1087.9z M2356.6,1040.8c21.8-5.6,40.6-10.2,59.2-15.2c14.7-4,21-14.7,23.3-29.2
	c10.6-67.1-32.5-109.9-98.2-97.1c-5.5,1.1-10.8,2.9-16.9,4.6C2356.5,956.8,2362.4,976.1,2356.6,1040.8z M1813.9,1842
	c-27.3,1.7-55.2,3.4-88.2,5.4c31.3,48.1,59.7,91.8,92,141.6c7.5-20.3,13.3-34.1,17.6-48.3c2.6-8.6,5.8-18.7,3.6-26.7
	C1832.4,1890.7,1823.2,1868,1813.9,1842z M2190.4,503.5c4.8-54.4-24.7-126.2-82.7-117.9c5.1,20.5,12.3,40.7,14.8,61.5
	c2.6,21.9,0.6,44.4,0.6,68.5c17.6-2.2,31.6-3.6,45.5-5.9C2175.6,508.6,2182.3,505.9,2190.4,503.5z M2353.1,687
	c-0.6-40.7-27-95.8-55.9-117.1c-8.7-6.4-18-13.4-32.5-6.1c22.6,44,26.1,90.1,17.2,139C2309,703.2,2332,698.5,2353.1,687z
	 M2325.9,859.6c79.6-13.3,71.9-19.7,51.6-84.3c-2.1-6.7-6.2-13.1-10.7-18.4c-3.7-4.4-9.3-9.8-14.4-10.1c-16.8-1.1-33.7-0.1-53.2,0.1
	c8,21.7,16,38.3,20.1,55.8C2323.4,820.4,2323.6,839,2325.9,859.6z M1749.7,407.9c-56.7,19.2-92.1,68.1-82.8,114.9
	c21.4,1,43.4,2.1,68.9,3.3c0-21.7-1.7-40.1,0.5-58.1C1738.6,449,1744.5,430.3,1749.7,407.9z M1957,340.2c35.4-2.5,63.3-4.5,96.5-6.9
	c-10.2-21.1-15.7-37.9-25.5-51.8c-17-24.1-45.9-21.1-58.2,6.3C1963.2,302.1,1962,318.9,1957,340.2z M1922.4,344.3
	c1.2-25.6,2.1-45.5,3-65.3c-47.9-5.5-78.1,18.2-77,61.6C1872.3,341.8,1896.3,343,1922.4,344.3z M2223.3,408.9
	c5.6,35.7,10.9,69.4,16.1,102.7c2.4,1.2,4.2,2.4,6.1,3c1.9,0.6,4,0.8,6,0.8c25.7-0.3,32.1-7.5,24.6-31.7
	c-4.8-15.4-12-30.4-20.1-44.5C2248.7,426.5,2240.6,413.3,2223.3,408.9z M2185.5,1961.1c2.9,0.3,5.9,0.5,8.8,0.8
	c13.5-21.1,34.6-37.1,42.6-67.9c-17.8,0-31-0.8-44.1,0.2c-16.6,1.3-22.6,7.8-19.9,23.9C2175.3,1932.7,2181.1,1946.8,2185.5,1961.1z
	 M2096.8,343.8c16.5,1.1,25.4-3.2,27-17.3c2.3-20.4-16.6-43.6-44.5-50.6C2085.3,299.2,2090.8,320.4,2096.8,343.8z M1765.2,354.5
	c33-1.5,40-11.2,29-37.2C1771.9,329.9,1771.9,329.9,1765.2,354.5z M1981.9,2324.4c2.7-6.1,5-9.2,5-12.2c0-1.9-4.4-5.8-5.3-5.3
	c-3.2,1.5-7.2,4-8,6.9C1973,2315.7,1977.4,2318.9,1981.9,2324.4z M1939,223.7c-0.2-2.4-0.3-4.7-0.5-7.1c-4.7,1-9.4,2-14.1,3
	c0.2,1.4,0.3,2.7,0.5,4.1C1929.6,223.7,1934.3,223.7,1939,223.7z M1572.7,1645.5c-0.8-1.6-1.5-3.1-2.3-4.7c-3.7,1.7-7.3,3.5-11,5.2
	c0.8,1.6,2.1,4.6,2.3,4.5C1565.4,1649,1569,1647.2,1572.7,1645.5z"/>
<path d="M1341.7,2563.9c8.4,11.4,15.8,17.4,17.6,24.8c4.8,18.9,7.1,38.4,10.5,57.6c26.4,147.7,78.7,285.1,164.6,408.7
	c60.2,86.6,136.6,155.9,227.9,208.8c7.1,4.1,15.4,7.1,20.9,12.8c4.3,4.3,8.5,13.2,6.8,17.8c-1.8,5-11.1,11-16.3,10.2
	c-10.8-1.6-21.4-6.4-31.3-11.4c-127.8-64.5-217.3-166.8-285.6-289.9c-64.5-116.3-104.9-240.9-127.5-371.5c-2.6-15.1-3.7-30.8-3-46
	C1326.6,2579.8,1334.1,2574.3,1341.7,2563.9z"/>
<path d="M1792.3,2538.7c-0.4,50.3-38.9,86.2-91.4,87.7c-52.8,1.6-83-49-82.5-85.5c0.6-45.9,43.6-88.6,89.2-88.8
	C1755.4,2452,1792.6,2490.1,1792.3,2538.7z"/>
<path d="M1516.1,2880.7c7.7,4.7,12.8,6.5,15.8,10.1c3.9,4.6,6.6,10.4,8.9,16.1c36.7,89.3,91.9,165,166.5,226.5
	c4,3.3,9.8,6.6,10.6,10.7c1.4,7.1,2.3,17.3-1.6,21.7c-3.9,4.4-16.3,6.9-21,3.9c-13.8-8.7-26.3-19.8-38.1-31.2
	c-62.6-61-112.3-131.2-148.4-210.8c-3.8-8.3-8-17.9-7-26.3C1502.6,2894.2,1510.7,2888,1516.1,2880.7z"/>
<path d="M2649.9,2504.3c-2.1,20.6-3.8,41.9-6.4,63.2c-18.1,150.2-52.4,295.7-120.9,431.8c-42.8,85-101.9,157-174.3,218.1
	c-18.8,15.9-39.8,29.2-60.6,42.4c-9.4,6-20.4,11.7-31.1,12.5c-6.9,0.5-16.4-6.4-21.4-12.7c-6.7-8.4,0.7-15.1,7.7-20
	c2.5-1.8,5.3-3.2,8.1-4.5c89.7-43,151.9-114.9,205.1-195.9c59.5-90.7,94.6-192,118.8-296.6c16.9-73,25.6-147.8,37.8-221.9
	C2616.9,2495.1,2620.8,2493,2649.9,2504.3z"/>
<path d="M2329.2,2569.9c-47.7,3.3-84.5-43.4-85.4-87.6c-1-46.4,40.5-87,86.6-86.6c47.8,0.4,87.8,40.8,88.5,89.3
	C2419.7,2534.5,2382,2570.1,2329.2,2569.9z"/>
<path d="M2314.8,3135.8c-13.3,0.1-20.7-11.4-15.2-21.8c2.8-5.2,7.5-9.7,12.1-13.7c71.6-62.9,114.5-143.8,146-231.8
	c2.8-7.7,4.7-15.8,8.3-23.1c4.8-9.8,14.3-13.5,23.1-7.9c5.6,3.6,8.7,12.2,11.3,19.2c1.1,3.1-1.6,7.8-2.9,11.7
	c-27.3,78.1-63.8,151.3-118.8,213.9c-14.8,16.9-32.6,31.1-49.5,46.1C2324.7,3132.1,2318.4,3133.9,2314.8,3135.8z"/>
<path d="M1955.6,3586.8c-18.6,20.1-41.6,13.2-62.2,7.1c-16.2-4.8-32.9-13.6-45-25.2c-27.9-26.9-42.6-61.1-46.7-100.7
	c20.9-5.2,26.8,6.9,30.4,20c16,59.5,64,81.5,115.4,99.8C1949.8,3588.6,1952.9,3587.3,1955.6,3586.8L1955.6,3586.8z"/>
<path d="M1955.6,3586.9c-6.3-16.6-19.7-26.2-35.2-31.7c-30.2-10.7-39.7-37.2-56.7-65c27.2,2,42.6,15.5,48.7,33
	c7,20,19.1,29.8,37.5,35.6c3.6,1.1,6.4,4.8,9.7,7.4C1958.2,3573.5,1956.9,3580.2,1955.6,3586.9
	C1955.6,3586.8,1955.6,3586.9,1955.6,3586.9z"/>
</svg>
