<?xml version="1.0" encoding="utf-8"?>
<!-- Generator: Adobe Illustrator 24.3.0, SVG Export Plug-In . SVG Version: 6.00 Build 0)  -->
<svg version="1.1" id="Layer_1" xmlns="http://www.w3.org/2000/svg" xmlns:xlink="http://www.w3.org/1999/xlink" x="0px" y="0px"
	 viewBox="0 0 4000 4000" style="enable-background:new 0 0 4000 4000;" xml:space="preserve">
<path d="M2696.1,681.3c-29.8-27.9-59.3-53.1-85.7-81.2c-13.9-14.8-25.3-33.6-32.4-52.6c-7.1-18.8-11.4-40.6-9.8-60.4
	c3.5-40.7,43.6-62,73.6-36.6c40.8,34.5,80.5,27.1,123,11c26.2-9.9,51.9-21.3,77.7-32.2c46.8-19.8,95.2-30.1,146.3-26.6
	c12.1,0.8,24.2,0.1,38.3,0.1c8.4-16.7,16.8-32.8,24.7-49.1c51.4-106.6,123.8-195.6,221.2-263.7c10.9-7.7,22.4-15.2,34.6-20.3
	c36.1-15.1,68.5-6.8,89.4,26.1c28.8,45.3,56.8,91.3,81.6,138.9c28.7,55,12,98-46.7,119.2c-68.9,24.8-126.7,62.2-166,125.4
	c-15.7,25.2-17.4,26,3.2,46.7c77.7,78,103.9,174.1,101.9,280.8c-0.5,26.9-2.7,54,0.2,80.5c2.8,25,10.9,49.5,17.4,73.9
	c2.5,9.3,8.3,17.8,10.9,27.1c9.4,33.7-9.3,62.3-44.4,64.9c-19.1,1.4-38.5-2.5-60.7-4.2c-0.5,9.4-2.1,18.7-1.4,27.9
	c15.5,191.5-3,380.6-41.1,568.1c-66.8,328.2-186.7,636.3-350.8,927.9c-115.6,205.3-251.9,395.5-409.8,569.9
	c-204,225.1-437.5,410.9-720.7,528.5c-145.7,60.5-297.7,92.3-454.7,105c-255.9,20.7-500.6-27.4-738.9-116.4
	c-20.4-7.6-40.4-17.8-58.2-30.3c-49.1-34.5-55.8-93.4-13-135.7c37.2-36.8,79-69,118.6-103.4c116.6-101.3,219.1-215.6,313.9-337.4
	c190.6-244.5,346.8-510.8,498.8-780c129.7-229.6,257.6-460.3,403.6-680.3c155.9-235,332.4-452.6,537.4-646.7
	c94.1-89.1,195.4-169.7,298.7-247.8C2684.1,692.6,2690.9,685.9,2696.1,681.3z M3133.4,874.4c-35.6,33-61.7,63.1-69.1,109.2
	c-16.1,100-33.1,200.1-56.5,298.5c-46.9,197.4-110.8,389.6-184.9,578.5c-91.2,232.7-203.6,454.3-342.5,662.2
	c-102.7,153.8-218.1,297.1-349.3,427.8c-134.7,134.2-277.9,256.9-446.8,346.9c-190.1,101.3-391.8,169.3-603.7,206
	c-114.2,19.8-229.3,33.5-343.9,50.8c-31.7,4.8-64.4,7.1-102,25.8c28.1,8.8,48.5,15.1,68.8,21.6c212.9,68.5,429.7,98,653.5,72.4
	c202.2-23.2,390.5-86.8,565.5-188.2c182-105.5,340.8-240.9,482.7-395.8c250.8-273.8,445.3-583.7,586.9-926.6
	c87.4-211.7,149.5-430.6,185.1-657.4c26.9-171.6,29.1-342.7,6-514.5C3177.4,949.8,3161.2,912.6,3133.4,874.4z M1730.9,2490.5
	c3.8,117,42.6,216.5,147.2,281.1c72.7,44.9,150,58.6,235,39.9c48.3-10.6,85.3-31.1,114.6-70.6c45.8-61.7,93.1-122.3,141-182.3
	c25.6-32.1,34.6-64.7,31.4-107.6c-8.9-121.5-97.8-261.6-259.8-293.2c-124-24.1-232.5,5.7-322.1,95
	C1753.1,2317.8,1728.1,2399.1,1730.9,2490.5z M2740.5,779.9c-1.8-2.2-3.7-4.5-5.5-6.7c-62.6,50.5-127.1,98.9-187.5,151.9
	C2319.6,1125,2122,1352.2,1953,1603.6c-140.3,208.8-265.5,426.8-388.1,646.5c-79,141.7-161.8,281.4-245.6,420.4
	c-94.7,156.8-198,308-310.6,452.6c-65.9,84.8-130.8,170.6-210.1,243.9c-3.9,3.6-6.7,8.4-10,12.6c7,1.4,11.1-0.4,14.4-3.1
	c55.5-45.8,114.3-88.2,165.7-138.3c156.9-152.8,301.4-317.4,425.3-497.7c130.6-190,254.1-385.1,375.8-580.9
	c134-215.6,257.2-437.8,399.4-648.3c82.7-122.3,164.4-245.5,253.2-363.4c71.8-95.4,153-183.8,230.9-274.6
	C2681.1,841.1,2711.4,811,2740.5,779.9z M2461.8,2161.4c45.2-1.6,91.9-14.2,136.9-34.4c25.9-11.6,43.4-30,54.8-55.9
	c30.8-70.4,62.6-140.3,93.7-210.6c5.4-12.2,11.3-24.8,13.4-37.8c2.7-16.5,6-34.9,1.6-50.4c-34.5-121-105.6-206.9-232.7-238.8
	c-230.8-57.9-435,121.2-396.3,347C2164.7,2064,2326.6,2157.4,2461.8,2161.4z M1864.7,3038.2c-3.9-119.1-56.9-199.6-159-247.4
	c-108.7-50.8-236.4-22.7-302.1,70.4c-16.9,23.9-34.8,47.3-54.3,69.1c-44.7,49.8-59.8,106.7-50.7,172.8
	c11.1,80.9,38.5,149.5,111.8,195.8c32.3,20.4,58,26.1,89.3,3.1c10.6-7.8,24.2-11.5,36.2-17.4c102.2-49.7,202.6-102.2,292.3-173.2
	C1855,3090.4,1870.3,3067.9,1864.7,3038.2z M2746.6,1501.5c33.8-9.4,68-17.7,101.3-28.5c20.5-6.7,35.7-21.6,41.9-43
	c21.1-73.8,42.6-147.5,62-221.7c5.9-22.5,4.5-46.5-8.6-67.5c-27.8-44.5-63.8-79.2-113.6-99.5c-115.8-47.2-302.2,32.7-311.2,196.2
	C2510.4,1381.7,2607.3,1496.6,2746.6,1501.5z M2735.7,573.3c6.4,5,9.7,9.2,13.8,10.5c51.5,16.1,103.4,27.8,158.1,20.8
	c19.3-2.5,39-3.6,58.3-2.7c29.9,1.4,36.8,10.3,28.6,39.8c-17.3,62.4-6.8,123.3,6.9,184.2c2,9,7.1,17.4,11.6,28.2
	c9.3-5.2,17.9-7.8,23.3-13.5c29-31.1,57.4-62.8,85.6-94.6c7.2-8.1,12-18.7,19.9-26c17.1-15.7,41.8-10.5,51.6,10.7
	c3.5,7.5,4.6,16.3,5.8,24.7c5.6,41.8,22.5,79.6,42.3,116.1c5.8,10.7,15,19.5,25.8,33.3c3.6-11.8,6.3-16.4,6.1-20.8
	c-2-51.1-0.8-102.6-7.4-153.2c-11.4-87.2-58-151.2-139.8-187c-25.6-11.2-51.8-21.5-78.3-30.1c-48.9-15.9-98.7-16.2-147.4,0
	C2846.7,531.8,2793.7,552.3,2735.7,573.3z M877.3,3454.9c156.7-20.4,308.8-45.1,454.9-93.6c-26.5-38.9-54.5-72.9-74.2-111.1
	c-20.3-39.3-32.4-82.9-50-129.8c-105.4,113.8-210,222.2-325.4,319.6C880.3,3442,880.2,3446.4,877.3,3454.9z M3118.1,437.9
	c40.5,23.3,43.8,22.7,66.4-9.6c2.8-4,5.5-8,8.2-12.1c42.9-63.4,100-109.2,171-137.9c6.5-2.6,12.5-6.5,21.9-11.5
	c-19.1-32.1-34.5-64.2-57.3-95.7C3229.9,241.1,3162.5,329,3118.1,437.9z M2716.8,932.7c2.4,2.7,3,4.2,3.8,4.2
	c4.8,0.4,9.7,0.9,14.5,0.6c79.5-5,149.1,17.7,207.4,72.9c4.4,4.1,9.5,9.7,14.7,10.2c7.3,0.7,18.2-0.3,21.8-4.9c4-5.1,3.1-15.8,1-23
	c-1.4-4.8-8.6-8.1-13.4-11.7c-28.7-21.2-46.5-49.8-55-83.9c-6.5-26-11-52.4-16.6-78.6c-2.9-13.8-6-27.5-10.6-48.3
	C2823.5,826,2767.7,876.9,2716.8,932.7z M2107.8,2066.7c-22.6-65.8-43-125.5-66-192.5c-40.3,70.9-77.7,136.6-119,209.2
	c36.9-6.6,65.2-13.6,93.8-16.1C2045.5,2064.8,2074.8,2066.7,2107.8,2066.7z M2320.9,1446.4c54.6-6.7,101.1-12.4,148.1-18.1
	c-15.2-44.6-30.2-88.4-47.3-138.5C2386.7,1344.1,2355.5,1392.6,2320.9,1446.4z M1686.9,2678.3c-16.5-50.2-31.8-96.6-47.5-144.3
	c-30.3,33.5-80.2,118.5-85.2,144.3C1597.7,2678.3,1641,2678.3,1686.9,2678.3z M2476,2370.6c17.7-11.1,72.2-99.2,80.6-132.4
	c-42.9,5.3-85.1,10.5-128.1,15.8C2445.1,2294.7,2460.6,2332.7,2476,2370.6z M1933.2,2893.5c9.8,37.8,18.3,70.3,28.2,108.5
	c32.5-31.8,61.9-57.1,90-91.5C2009.3,2904.4,1974,2899.4,1933.2,2893.5z M2845.4,1578c-27.9-4.9-47.2,0.9-70.2,11.1
	c14.6,20.3,26.6,36.9,43.4,60.1C2829.1,1621.3,2836.5,1601.6,2845.4,1578z"/>
<path d="M1228.1,3649.1c-28.1,0-56.2,0.1-84.2-0.1c-7.3-0.1-15.8,0.9-21.6-2.4c-7.4-4.3-16.4-11.7-17.7-19
	c-2.1-11.5,5-21.3,18.8-21.7c15.9-0.4,31.7-0.2,47.6,0.1c204.9,3.9,399.7-40.5,586.1-123.7c41.1-18.3,80.3-40.7,120-62
	c12.3-6.6,23.9-8.5,33,2.4c9.5,11.4,4.9,23.2-5.3,32.2c-7.3,6.4-15.2,12.4-23.7,17.1C1678.2,3585.4,1462.1,3651.1,1228.1,3649.1z"/>
<path d="M3179.3,1225c-1.2,121.6-19.1,240.7-51.2,357.7c-24.1,88.1-46.1,177.1-84.3,260.7c-4,8.8-7.1,19.1-13.8,25.4
	c-4.8,4.6-15.5,6.5-22.2,4.6c-4.5-1.2-9.6-11.4-9.1-17.1c0.9-10.7,4.9-21.3,8.9-31.4c59.4-147.9,97.4-301.4,120-458.7
	c12.1-84.6,14.2-170.1,6.1-255.5c-1.3-13.3-2.2-26.9-0.5-40.1c0.7-5.3,8.2-12.8,13.4-13.5c5.6-0.8,15.4,3.7,17.5,8.5
	c4.7,10.9,7.4,23.3,8.2,35.2C3175.3,1142.2,3177.1,1183.6,3179.3,1225z"/>
<path d="M3075.3,1218.4c31-2.8,34.4-0.8,33.9,28.6c-1.4,74.5-11.3,148-30.1,220.1c-9.2,35.3-19.6,70.3-30.5,105.1
	c-2.8,8.8-8,18.1-14.7,24.1c-4.1,3.7-14.1,3.5-20.1,1.2c-3.6-1.4-6.5-9.9-6.3-15.2c0.2-8.3,2.4-16.9,5.3-24.9
	c36.6-101.9,47.9-208.2,56.6-315.1c0.5-6,1.1-12.1,2.3-18C3072,1222.2,3074,1220.4,3075.3,1218.4z"/>
<path d="M1269.8,3526.5c35.2-12.9,73.3-10.6,110-16.3c36-5.5,71.8-12.8,107.4-20.6c36.2-8,72.1-17.7,108.5-26.7
	c10.7,24.1,1.6,35.1-14.9,41.5c-21.5,8.4-43,18.4-65.5,22.6c-70.4,13-141.1,25-212.1,34.4
	C1273.8,3565.2,1272.8,3561.2,1269.8,3526.5z"/>
<path d="M1802.3,2350c16.2,19.9,18.7,30.9,2,49.4c-17,18.9-17.5,35.9-11.7,59.5c6.9,27.9,5.4,57.9,8.8,86.8
	c4.3,37,16.1,71.1,42.5,98.7c1.7,1.8,4.2,3.5,4.5,5.6c1.5,8.7,2.4,17.5,3.5,26.2c-9,0-19.6,3-26.7-0.8c-9.1-4.8-16.5-14.2-22.5-23.1
	c-40.4-60.6-50.3-128.1-41.2-198.9c3.1-24,10-47.5,16.4-71C1783.2,2363.4,1784,2363.6,1802.3,2350z"/>
<path d="M1987.5,2422.4c2.8,13.9,5.8,25.1,7.1,36.5c1,9.6-1.2,19.6,0,29.2c3.4,25.5,24.1,37.6,47.9,28c10-4.1,18.5-13.2,28.6-15.5
	c9.4-2.1,20.2,1.9,30.3,3.2c-1.7,9-0.9,19.6-5.4,26.9c-22.5,36-77.5,41.3-112.8,11c-26-22.3-35.5-51.8-32.4-85.4
	C1952.4,2438.6,1962.4,2427.7,1987.5,2422.4z"/>
<path d="M2206.2,2591.2c-32-0.7-53.5-21.9-53-52.3c0.5-28.2,28.6-55.5,56.8-55.1c27.9,0.3,51.8,26.5,50.9,55.7
	C2260.1,2569,2235.9,2591.8,2206.2,2591.2z"/>
<path d="M1958.6,2336.1c0.9,34.9-20.7,58.5-54.4,59.6c-26.6,0.8-52.7-23.8-52.5-49.6c0.2-25.7,30.4-55.3,57.7-56.4
	C1937.2,2288.6,1957.9,2308.1,1958.6,2336.1z"/>
<path d="M2237.3,1990.8c-26,6.5-35.2-6.7-42.6-18.6c-45.5-73-52.7-150.7-25-231.8c5.3-15.5,13.8-28.5,37.8-29.6
	c-0.8,12.6,1.1,24.9-2.6,35.2c-26.2,72.9-11.8,141.9,17.8,209.9C2227.4,1966.6,2231.7,1977.4,2237.3,1990.8z"/>
<path d="M2647.1,1887.1c0.1,31.5-20.7,50.5-54.5,49.8c-30.1-0.6-52.9-24.3-52.2-54.3c0.7-29.8,24.3-55.4,52-56.5
	C2622.6,1824.9,2647,1852.1,2647.1,1887.1z"/>
<path d="M2416.6,1928.9c-47.9,0.7-85.6-42.2-77.4-95.9c1.2-8.1,4.3-17,9.4-23.1c3.9-4.7,13.1-8.6,18.5-7.2c5,1.3,10.4,9.6,11.5,15.6
	c2.3,11.8,0.2,24.4,2.5,36.1c7,35,37.4,45.7,65.8,23.9c3.8-2.9,7-6.7,10.4-10.2c7.9-8.2,16.3-16.5,27.7-6
	c10.6,9.7,10.2,21.9,2.9,33.1C2472.8,1918.5,2449.9,1928,2416.6,1928.9z"/>
<path d="M2235.3,1723.6c0.3-25.4,26.7-49.4,53.8-48.6c26.5,0.7,50.1,26.5,48.9,53.5c-1.3,27.9-22.6,51.3-46.9,51.4
	C2261.9,1780,2235,1752.9,2235.3,1723.6z"/>
<path d="M1544.8,2998.3c0,12.3,0.1,23.6,0,35c-0.1,8.4-1.7,17.1-0.4,25.3c3.7,22.4,14.7,29.1,36.1,21.5
	c12.5-4.4,23.8-12.6,36.5-16.2c6.9-2,19-0.5,22.4,4.1c3.6,4.9,2.6,17.2-1.2,23.1c-16.1,24.4-40.1,33.9-69.2,31.9
	c-27.7-2-48.9-13.7-60.7-39.6c-15.4-33.7-11.4-62,11.1-79.7c2.8-2.2,6.1-4.2,9.5-5.1C1532.2,2997.7,1535.9,2998.3,1544.8,2998.3z"/>
<path d="M1404.1,3225.3c-29.3-5.7-41-19.3-50.6-35.1c-30.5-50.4-38.9-104.6-26.6-162c0.8-3.6,1.6-7.2,3.1-10.5
	c5.4-11.4,12-23.6,27.1-18.2c13.6,4.8,10.3,16.9,7.6,28.1c-12.7,51.8-5.2,101,18.9,148.3C1390.5,3189.4,1395.4,3204,1404.1,3225.3z"
	/>
<path d="M1728.4,3139.4c-25.4,0.2-51.8-26.8-51-52c0.8-22.1,26.6-45.6,49.5-44.9c26.6,0.8,50.7,23.9,50.2,48.2
	C1776.5,3117.9,1755.2,3139.2,1728.4,3139.4z"/>
<path d="M1463.7,2983.4c-26.4-1-42.6-20.6-40.9-49.4c1.8-30.1,21.4-49.8,48-48.2c24.5,1.5,42.5,23.3,41.7,50.6
	C1511.6,2965.2,1491.6,2984.5,1463.7,2983.4z"/>
<path d="M1398,3178.4c-7.9-23.7-14.6-44-22.1-66.4c13-5.7,27.8-9.5,37.6,4.6c10.3,14.7,18.8,32.1,11,51.4
	C1419.6,3180.2,1410,3183.3,1398,3178.4z"/>
<path d="M2566.6,1210.6c2.5,33,1.2,67.4,8.7,99.8c7.4,31.9,23.5,61.8,35.8,92.5c-14.4,9.5-23.3,2.8-30.4-5.8
	c-39.3-47.9-51.9-103.5-45.5-164.1C2536.9,1217.7,2546,1209.1,2566.6,1210.6z"/>
<path d="M2695.9,1239.2c2.7,11.9,4.9,23.6,7.9,35.1c8.6,32.5,30,40.2,56.6,20.7c8.3-6.1,16.3-12.5,25.4-19.6
	c12.8,35.4,4.3,57.2-23.3,67.6c-35.7,13.4-80.8-7.5-92.8-43C2659.9,1270.9,2668.6,1249.1,2695.9,1239.2z"/>
<path d="M2884.8,1238.2c21.6,0.6,33.8,14.5,33.6,38.3c-0.4,33.5-18.3,56.3-44,56c-22.8-0.3-42.5-21.2-42.8-45.4
	C2831.2,1262.3,2858.2,1237.5,2884.8,1238.2z"/>
<path d="M2628.6,1142.4c24.3,0,40,16.8,39.5,42.1c-0.5,25.5-19,43.8-43.9,43.4c-22-0.3-41.8-20.5-41.4-42.3
	C2583.1,1164.2,2606.2,1142.4,2628.6,1142.4z"/>
</svg>
