<?xml version="1.0" encoding="utf-8"?>
<!-- Generator: Adobe Illustrator 24.3.0, SVG Export Plug-In . SVG Version: 6.00 Build 0)  -->
<svg version="1.1" id="Layer_1" xmlns="http://www.w3.org/2000/svg" xmlns:xlink="http://www.w3.org/1999/xlink" x="0px" y="0px"
	 viewBox="0 0 4000 4000" style="enable-background:new 0 0 4000 4000;" xml:space="preserve">
<path d="M1923.8,832.5c3.7-27.2,7.8-52,10.3-76.9c12.2-125.7-1.6-249.1-33.7-370.8c-7.2-27.4-14.7-54.8-19.7-82.7
	c-7.7-43.2,8.9-74.9,47.2-97.1c26-15.1,54.7-20.9,83.9-23.8c74.1-7.5,145.3,3.3,211.8,37.9c16.6,8.7,32.2,19.7,47.1,31.3
	c38,29.6,51.7,68.8,41.3,115.8c-6.9,31.4-14.4,62.6-22.8,93.6c-28.8,106-53.6,212.6-61.7,322.5c-0.4,5.5-0.7,11-1.2,18.8
	c8.3,0.4,15.6,1.8,22.6,0.8c194.6-27.1,360.7,37.7,510.1,157.1c3,2.4,6.4,4.5,8.4,7.6c19.3,29.1,46.1,33.5,79.9,33.5
	c186.9,0,315.3,94.2,398.2,256.5c48,94,70.5,195.2,78.2,299.8c13.6,185.6-18.8,365.1-70.4,542.6
	c-53.6,184.5-121.6,363.8-188.9,543.5c-42.4,113.4-76.6,229.4-109.1,346c-23.3,83.8-46.9,167.5-88.9,244.6
	c-85.3,156.9-218.4,241.4-394.5,259.8c-30.7,3.2-62.2,1.3-93.2,0.1c-14.6-0.6-24.9,3.4-34.9,13.9c-93.1,97.9-209.4,145-342.2,157.3
	c-75.2,7-149,0.9-222.1-17.4c-110.9-27.8-203.7-84.1-274.3-174.8c-7.2-9.3-14.1-13.2-26-11.9c-160.5,17.3-287.9-44.3-388.9-165.8
	c-63.2-76-104.4-164.5-131.3-258.7c-31.7-110.8-57.5-223.3-88.7-334.3c-32.7-116.4-68.1-232.1-103.5-347.7
	c-41.5-135.6-82.3-271.3-105.2-411.6c-18.4-112.5-26.4-225.6-14.7-339.1c14.9-144.8,54.5-281.9,138.3-403.3
	c86.1-124.6,202.3-204.5,352-233.3c16.6-3.2,36.4,0.2,49.5-7.9c13.2-8,19.1-27.2,29.6-40.5c45.8-58.3,106.2-95.8,175.5-119.8
	c76.4-26.4,155.4-29.7,235.2-26.3c85.6,3.6,168.7,19.4,249.6,47.7C1890.7,824.5,1905.4,827.5,1923.8,832.5z M1393.4,2186.1
	c-23.7,4.2-26.5,2.7-31.1-16.2c-1.1-4.6-1.4-9.3-2.1-14c-17-123.9-23.4-248.3-21.9-373.4c1.4-114.7,26.3-225.1,61.5-332.9
	c31-95.3,86.8-175.8,163.9-240.9c18.1-15.3,18.3-18.3,1.2-35.5c-90.4-90.7-201.1-136.8-327.6-141.8
	c-129.1-5.1-237.6,46.4-329.5,134.1c-67,63.9-111.2,143-142.1,229.4c-59.3,166.2-63,336.8-37.5,509.5c17.9,121,50.5,238.5,85,355.5
	c36.2,122.3,76.7,243.4,111.6,366.1c34.3,120.9,62.4,243.5,96.1,364.6c23.9,85.9,58.6,167.8,112.9,239.8
	c63.2,84,142.8,142.6,249.2,158.4c18.2,2.7,36.9,2.7,60.4,4.3c-12-24.3-21.8-43.3-30.8-62.7c-52.5-112.6-80.4-232.2-96.1-354.4
	c-13.8-107.7-23-216.1-32.5-324.4c-3.1-35.7-1.2-71.8-1.3-107.7c0-10.7,5-18.5,16.8-18.7c11.9-0.2,16.2,7.1,16.9,18.2
	c1,17,3.1,33.9,3.9,50.9c6.5,137.2,23.4,273.2,53.7,407.2c25.5,112.7,58.7,223.4,115.5,324.9c55.3,98.8,130.3,178.9,235.8,225.1
	c88.4,38.7,181,49.7,277.3,39.5c156.5-16.6,276.9-90.3,359.3-223.5c73.1-118,123.1-246.7,163-379.2c36-119.6,59.8-242,79.5-365.3
	c1.3-8.3,2.3-17.4,6.3-24.4c2.4-4.2,10.7-7,16.1-6.7c3.9,0.3,9.7,6.3,10.6,10.6c1.6,7.1,0.4,15-0.5,22.5
	c-16.7,141.9-40.7,282.5-77.1,420.8c-33,125.6-71.9,248.9-137.4,362.1c-2.2,3.8-3.3,8.3-5.8,15c11.6,0,20.7,0.9,29.7-0.2
	c18.7-2.3,37.5-5,56-8.5c103.3-19.1,189.7-67.5,256.5-149.3c51.9-63.4,81.8-137.9,105.5-215c19.7-64.1,36.3-129.2,55-193.6
	c44.7-153.5,103.9-301.9,159.4-451.7c62.8-169.4,117.4-341.3,152.4-518.8c25.4-128.8,35-258.4,14.2-389
	c-13.8-86.6-38-169.6-84.2-245.1c-56.1-91.7-135.2-151.5-241.3-173.3c-54.6-11.2-109.3-5.8-163.4,4.2
	c-81.2,15-154.6,49.3-222.9,94.7c-12.8,8.5-27.9,16.1-34,34.2c6.2,5.9,12,11.8,18.3,17.3c6.4,5.6,13.3,10.6,19.6,16.3
	c62.7,56.6,101.5,128.2,130.3,206.4c35.1,95.5,44,195.2,48.3,295.5c6.6,151.6-8.1,302.3-21.9,452.9c-0.8,8.4-2,17.4-5.8,24.6
	c-2.4,4.6-9.8,8.2-15.4,9c-8.5,1.1-14.2-4.5-15.2-13.3c-0.5-4.6,0-9.4,0.4-14.1c9.5-125.5,11-251.3,8-377.1
	c-2.6-109.9-12.7-219.4-44.8-325c-36.8-121-109.3-214.5-224.7-271.3c-94.2-46.3-193.8-74.8-297.7-87.6
	c-103.2-12.7-205.8-9.8-306.1,21.1c-135.4,41.7-240.4,120.9-305,249.4c-10.2,20.3-21.5,40-31.1,60.5c-8.7,18.5-20.4,31.1-42.7,30.8
	c-6.2-0.1-12.6,2.9-18.6,5.3c-1.5,0.6-1.8,4.2-3.8,9.2c8.6-1.7,14.5-2.8,19.5-3.8c22.1,13.5,21.3,33.4,16.5,54.4
	c-2.3,10.1-4.9,20.3-6.4,30.5c-9.2,62.6-21.1,125-26.5,187.9c-9.2,107.5-7.2,215.4-1.2,323.1
	C1394.5,2137.1,1393.4,2160.7,1393.4,2186.1z M2239,379.5c-97.4,30.1-184.3,11.4-268.8-25.4c-1.4,5.2-2.5,7.1-2.2,8.7
	c1.4,7.4,3,14.8,4.8,22.1c28.7,122.3,42.4,245.9,30.3,371.5c-8,82.5-25.3,162.5-64.8,236.3c-7.5,14.1-15.7,28.4-26.4,40
	c-12.6,13.7-28.3,24.6-52.5,15.9c7.3-19.1,14.1-36.9,23.7-62.1c-53.9,34.6-109.1,36.8-163.2,42.1c-37,3.6-72.9,10.8-107.5,24.1
	c-15.6,6-31.4,12.1-39.5,21.8c25.2,23.3,49.2,45.5,73.2,67.8c-2.2,3.3-4.3,6.6-6.5,9.8c11.1-4.7,22.3-9.2,33.2-14.2
	c155.3-70.3,317-91.8,484.5-58.9c89.9,17.6,178.8,40.1,260.6,84.2c5.7,3.1,16.5,4.4,20.8,1.1c19-14.7,36.4-31.3,56.4-48.9
	c-77-57.1-166.3-66.9-251.8-90.5c2.8,9.9,7.4,17.5,12.7,24.5c6,7.9,11.8,16.5,4.8,25.5c-7.6,9.8-17.7,4.5-25.6-0.4
	c-8.7-5.4-18-11.6-23.6-19.7c-10.7-15.4-20.4-31.8-28-48.9c-30.9-69.6-32.2-143.5-26.4-217.4c9.8-123.8,32.1-245.4,70.6-363.7
	C2231.9,412.5,2234.1,399.6,2239,379.5z M1887.8,903.1c-0.1-2.2-0.3-4.3-0.4-6.5c-19.6-5.9-39.2-11.9-58.9-17.7
	c-111.8-32.9-225.5-48.1-341.6-30c-73.3,11.5-139.8,39.3-194.6,91.1c-5,4.7-8.3,11.2-12.4,16.9c3.9,2.7,5.3,4.4,6.8,4.6
	c68.9,9.8,134.3,30.7,195.5,63.9c14.7,8,24.9,2.8,35.9-5.6c31.4-23.8,66.6-40.4,105-47.4c47.3-8.6,95-14.7,142.7-20.7
	C1811.1,946,1850.5,927.3,1887.8,903.1z M2710.4,1015.8c-95.7-111.2-379.8-188.5-486.3-132.8c1.2,8.6,3.4,17.8,3.6,27
	c0.4,22,11.2,34.9,32.1,40.6c27.3,7.4,54.3,15.7,81.6,22.8c75.4,19.6,147,47.5,210.6,93.4c9.7,7,17.9,7.5,28.4,1.6
	c17.2-9.6,34.8-18.8,53.1-26.1C2658,1032.7,2683.2,1025.1,2710.4,1015.8z M1964.2,271.8c36,45.9,198.5,90.7,270.3,46.3
	C2192.8,249.5,1999.7,225.4,1964.2,271.8z"/>
<path d="M792.4,1746.5c-0.7-148,11.7-254.6,52.5-356.1c29.1-72.4,66.5-140,125.4-193.5c7-6.3,14-12.9,22-17.7
	c11.1-6.6,22-4.5,30.3,5.9c8.4,10.4,4,19.3-4.1,27.4c-2,2-3.9,4.1-6.1,6c-92.5,81.1-138.5,187.1-161.6,304.8
	c-25.5,129.8-21.2,259.8,3.5,389c15.4,80.7,36.7,160.2,55.2,240.3c1.7,7.3,3.5,14.7,4.1,22.2c0.7,9.9-4.7,17.5-14.3,17.6
	c-7.4,0-16.1-3.1-21.8-7.8c-4.5-3.6-6-11.6-7.9-17.8C824,2016.8,792.3,1864.6,792.4,1746.5z"/>
<path d="M3186.1,1633.5c-2.5,66.7-11.6,151.1-30.5,234.3c-1.3,5.5-2.6,11.1-4.6,16.3c-6.1,16.5-11.3,19.8-24.4,16.1
	c-13.9-3.9-19.2-12.1-16.3-28.1c4-22.3,9.6-44.3,13.4-66.6c22-127.8,29.5-255.3-8.5-381.7c-19.1-63.5-49.9-120.5-96.5-167.8
	c-14.4-14.6-32.5-25.5-49.1-37.9c-8.6-6.5-17.2-12.7-10.6-25.4c6.4-12.2,18.7-17.9,30.6-11.3c16.4,9.1,32.5,19.4,46.8,31.5
	c51.6,44,85.5,100.6,109.4,163.1C3175.1,1452.9,3186.5,1533.1,3186.1,1633.5z"/>
<path d="M1663.9,2507.7c-48.6-0.1-86.7-38.8-86.5-89.1c0.2-43.3,33-97.8,93.9-96.2c50.8,1.3,87.1,40.5,86.6,95.2
	C1757.4,2472.6,1720.6,2507.8,1663.9,2507.7z"/>
<path d="M2351,2535.5c-49.2,0.4-86.4-35.8-87.2-85c-0.8-52.8,38.4-96.6,86.8-96.7c50.7-0.1,89.3,38.3,90,89.6
	C2441.3,2497.1,2404.4,2535,2351,2535.5z"/>
<path d="M2011.7,2675.3c-62.1,0.2-114.7-34.3-134.8-89.9c-4.7-13-5.9-27.6-6.8-41.5c-0.8-11.5,5-20.1,17.9-21.2
	c12.1-1,22.9,0.6,27.2,14.4c3.1,9.9,5.9,19.9,9.6,29.6c13.7,36.1,41.6,53.2,78.6,54.4c39.4,1.2,73-10.2,89.7-50.5
	c3.6-8.7,7.1-17.6,12.1-25.5c6.3-10,16.5-12.2,27.5-8.7c10.9,3.5,17.9,11.1,17.7,22.9c-0.2,7.4-2,14.9-4.3,22
	C2126.9,2639.9,2080.1,2671.6,2011.7,2675.3z"/>
<path d="M1913.3,1214.8c10.6,0,22.9-0.5,35.1,0.1c12.7,0.6,18.4,8.8,18.5,20.7c0.1,11.5-7.2,16.8-17.9,17.9c-28.1,3-56.5,4.6-84.4,9
	c-66.5,10.4-127.7,33.5-178.4,79.5c-4.2,3.8-8.6,7.6-13.6,10c-10.9,5.2-20,1.6-27.5-7.5c-7.4-9-5.9-17.7,1.4-25.4
	c24.9-26.5,54.9-46.2,87.4-61.7C1790,1230.6,1849.6,1217.6,1913.3,1214.8z"/>
<path d="M983.1,2398.1c-4,4.5-8,12-14.2,15.3c-8.3,4.4-18.1,1.3-21.5-7.7c-9.9-26.4-19-53.2-26.6-80.3c-1.3-4.8,4.8-15.8,9.4-17.2
	c6.9-2,16.2,0.7,23.1,4.1c4.2,2.1,6.8,9,8.5,14.2C969,2349.1,975.4,2371.7,983.1,2398.1z"/>
<path d="M3053.9,2091.3c9.4-28,17-52.3,25.6-76.1c4.5-12.4,15.1-12.6,26-9.9c12.3,3.1,14,12.4,10.8,22.1
	c-8.1,25-16.6,49.9-26.4,74.2c-3.1,7.8-12,14.2-20.9,8.1C3062.4,2105.2,3058.3,2096.9,3053.9,2091.3z"/>
<path d="M1568.5,1477.8c-14.6-0.5-24.4-10.5-19.7-22.9c6.5-17.2,16.5-33.3,26.9-48.6c4.9-7.2,15.4-8.9,22.6-1.8
	c5.5,5.4,13.8,15.9,12,19.5c-9.3,18-21.4,34.6-33.1,51.2C1575.5,1477.6,1570.2,1477.4,1568.5,1477.8z"/>
</svg>
