<?xml version="1.0" encoding="utf-8"?>
<!-- Generator: Adobe Illustrator 24.3.0, SVG Export Plug-In . SVG Version: 6.00 Build 0)  -->
<svg version="1.1" id="Layer_1" xmlns="http://www.w3.org/2000/svg" xmlns:xlink="http://www.w3.org/1999/xlink" x="0px" y="0px"
	 viewBox="0 0 4000 4000" style="enable-background:new 0 0 4000 4000;" xml:space="preserve">
<path d="M2661.3,795.3c-33.3-16.6-64.4-30.1-93.3-47.3c-16.4-9.7-30.9-23.9-43.4-38.6c-12.5-14.8-16.5-32.9-5.6-51.7
	c10.6-18.4,26.4-24.5,46.8-23c102.2,7.3,190.4-24.7,266.5-93.1c44.5-40,95.4-68.8,156.4-74.8c17-1.7,18.2-13.1,20.3-25.8
	c13.2-76.7,37.2-150.1,73.5-218.9c12.9-24.5,28.3-48.1,45.8-69.4c25.7-31.3,49.1-33.4,80-7.7c32.4,27.1,63,56.4,93.7,85.4
	c29.1,27.3,26.9,66.2-7.3,92.6c-70,54.2-109.4,109.9-133.1,183.1c3,1.7,9.6,4.8,15.7,8.6c52.3,33.4,80.8,83.9,100.4,140.7
	c8.7,25.3,16.9,50.9,25.4,76.3c24.5,73,66.7,132.1,135.2,170.2c7.2,4,14.2,8.6,20.3,14c20.6,18.1,20.5,42.4-2.6,56.8
	c-12.5,7.8-28.7,12.7-43.4,13.2c-32.7,1.1-65.5-1.3-102.5-2.4c1.1,13.2,1.3,27.1,3.4,40.7c20.1,128,25.8,256.5,14.5,385.6
	c-15.3,175.4-52.8,346.2-107.6,513.5c-83,253.3-200.1,490.2-341.6,715.5c-136.1,216.7-294,415.9-478.5,593.4
	c-87.8,84.5-179.6,164.5-279.8,234.1c-170.7,118.5-356,203.1-562.9,235.6c-176.9,27.8-352,18-523.8-32
	c-95.9-27.9-189.7-63.1-285.1-92.8c-57-17.7-115.4-30.7-173-46.4c-15.8-4.3-32.2-8.5-46.2-16.4c-31.8-18-41.7-55.7-25.1-88.4
	c13.1-25.7,35.2-42.6,58.1-58.8c48-33.9,97.3-66,143.6-102.1c171.4-133.5,326.7-284.2,470.3-447c218-247.3,413.1-512,592-788.6
	c116.5-180.1,231-361.5,346.9-542c80.8-125.9,162.7-250.9,253-370.3C2455.9,1001.6,2551.1,893.4,2661.3,795.3z M809.3,3509.1
	c-0.7,2.3-1.4,4.5-2.2,6.8c4.3,1.9,8.5,4.2,13,5.8c57.3,20.3,114.1,42.2,172,60.5c184.7,58.4,372.6,77,564.7,43.4
	c117.8-20.6,229.4-59.4,335.7-112.8c164.5-82.6,308.7-193.7,441.5-320.3c172.6-164.4,319.9-349.7,451.7-547.8
	c168.3-253.1,300.6-523.3,387-815.4c65.1-220.2,102.1-444,82.8-674.3c-5.2-62.5-18.2-124.3-28.2-186.3c-1.5-9.1-3-20.1-19-24.5
	c0,13.5,0,24.3,0,35.2c0,49.5,2.7,99.1-0.6,148.3c-8.3,123.7-29.7,245.6-60.6,365.6c-88.6,343.5-222.6,668.2-403.5,973.7
	c-109,184.1-229.3,359.9-370.9,520.5c-122.8,139.3-262.8,258.8-418.4,360.1c-193.1,125.8-406.6,186.9-635,202.5
	c-132.6,9-263.6-5.1-394.4-23.8C886.5,3520.7,847.9,3514.8,809.3,3509.1z M2495.7,2538.2c-2.1-116.4-46.7-211.5-142-280.8
	c-35.6-25.9-76.2-41.1-118.7-50.2c-100.8-21.7-194.6-6.5-278.7,55.8c-35.3,26.2-61.3,60.8-86,96.5c-50.4,72.9-70.3,154.5-55.4,241
	c30.8,178.6,182.2,285,344.5,282C2367.5,2878.6,2497.5,2711.5,2495.7,2538.2z M1946.2,3088.8c1.9-199.4-171.9-329.1-353-312.5
	c-55,5-103.2,25.6-142.1,67c-31.8,33.8-66.9,64.4-98.4,98.5c-15,16.3-29.7,35.7-36.3,56.4c-56.8,176.8,40.2,386.4,263.2,419.2
	c17.8,2.6,37.5,1.3,54.9-3.4c69-18.5,134.8-45.9,195.2-84.2c21.2-13.5,41.5-31.7,55.8-52.2
	C1923.1,3223.3,1944.2,3162.2,1946.2,3088.8z M873.4,3231.7c7.3-4,15.4-7.6,22.5-12.6c45.5-32.1,91.9-63.1,135.9-97.1
	c155.5-120,297.3-255.3,431.9-398.1c137.4-145.7,263.6-301,382.2-462.4c143-194.6,273.8-397.2,397.6-604.6
	c115.7-193.9,233.6-386.5,353-578.2c42.4-68.1,91.7-132,138.9-197.1c17.5-24.1,38.2-45.9,57.1-69.2c4.6-5.7,7.6-12.8,11.3-19.3
	c-1.7-1.7-3.4-3.4-5-5.1c-24.6,16.4-51.3,30.3-73.3,49.6c-78.4,68.8-152.3,142.2-217.6,223.7c-100.7,125.7-192.7,257.7-279.9,392.9
	c-117.9,182.9-233.2,367.4-351.5,549.9c-119.5,184.3-242.7,366.2-376.4,540.7c-119.9,156.5-244.6,309.1-382.3,450.2
	C1038.6,3076.2,955.2,3152.8,873.4,3231.7z M2549.1,2207.1c141.3,1.6,307-98.7,309.3-306.8c1.8-164.2-120.4-302.4-300-304.4
	c-193.2-2.1-308.4,153.1-312.7,307.9C2241.5,2049.2,2354.7,2206.9,2549.1,2207.1z M2840.6,1555.2c102.2,2,242.8-78.8,240.2-242.9
	c-2-125.3-84.9-243.2-242.4-245c-135.3-1.5-248.2,111.3-249,250.7C2588.8,1430.5,2692.2,1556.5,2840.6,1555.2z M1446.9,3460.5
	c-1.6-5.2-1.5-7.8-2.8-8.7c-4.9-3.6-10.1-7-15.5-10c-135.6-76.8-197.8-195.3-198.6-348.8c0-9.8,0-19.6,0-29.4
	c-2.1-1-4.2-2.1-6.3-3.1c-160.6,138.4-333.1,259.8-517.4,365.9c9.4,3.2,18.1,3.5,26.8,4.4c34.8,3.5,69.6,6.4,104.3,10.9
	c79.6,10.3,158.9,23.3,238.7,31.8c111,11.8,222.1,7.9,332.9-5.5C1421.7,3466.3,1434.2,3463,1446.9,3460.5z M3319.6,910.5
	c-0.5-6.1,0.1-8.7-0.9-9.7c-52.6-55.5-78.8-124.5-101.1-195.8c-7-22.5-16.9-44.2-27.1-65.5c-42.2-88.4-159.9-115.9-224.4-86.7
	c-29.7,13.4-59.5,28.9-85.1,48.8c-61.9,48-127.3,87.2-205.5,101.6c-3.3,0.6-6,3.9-13.8,9.1c18.6,2.9,32,7.7,44.7,6.5
	c35.6-3.6,72.3-5.6,106.1-16c35.9-11.1,69.1-30.9,103.1-47.8c15.9-7.8,31.3-11.2,46.5-0.5c15,10.6,10.3,25.4,6.5,39.4
	c-16.2,58.2-12,116.3,0.6,174.3c3.4,15.6,8.2,30.9,13.9,51.6c11.3-11.5,20-17.6,25-25.9c19.1-31.7,37.6-63.8,55.2-96.3
	c6.8-12.6,10.2-27,16.4-40c13.5-28.4,37-32.1,58.4-9c7.6,8.2,13.7,18,20.1,27.3c32.4,47.5,72.2,87.2,122.1,116.2
	C3292.1,899,3305.3,903.9,3319.6,910.5z M2481.7,2278.7c72.4,97.4,94,204.9,88,321.5c95.4-133.2,173.7-274.1,242.9-421.6
	C2717.1,2261.1,2606.7,2290.9,2481.7,2278.7z M2001.2,3225.6c60.8-29.6,304.8-256.1,336.8-315.1c-119.4,55.6-236.2,56.4-356.5,11.2
	c22.5,48.7,33.3,99.2,33.5,150C2015.3,3122.5,2006.3,3173.3,2001.2,3225.6z M2882,822.3c-61.1,59.9-108.4,124.5-159.4,195.9
	c58.5-13.6,109.2-25.9,162.4-16.2c51.6,9.4,98.1,28.4,140.8,59.1c43.3,31.2,70.8,75.2,99.3,122.2c19.3-55.6,15.4-282-5.5-320.5
	c-7.4,9.9-14,18.5-20.3,27.2c-18.7,25.8-35.1,53.7-56.8,76.7c-16.4,17.4-38.3,31.1-60.1,41.5c-21.4,10.2-38,2.9-48.4-18.8
	c-11.9-25-22.2-51-30.3-77.4C2895.2,884.6,2890.1,856.2,2882,822.3z M2822.9,1629.9c36.8,35.8,58.6,78.8,78.5,122.8
	c20.5,45.4,28.4,93.7,32.3,144.1c19.5-25.3,26.8-54.9,37.4-83c11.3-29.8,22.6-59.7,32.8-89.9c10-29.2,19.6-58.6,27.6-88.4
	c8-29.6,21.5-58,22.8-90.5C2985.2,1596,2911.5,1629.4,2822.9,1629.9z M2172.8,1930.7c-7.9,5.6-12.1,7.2-14.1,10.2
	c-44.4,66.5-88.5,133.2-134.9,203.2c38.7-6.5,73.6-15.1,108.9-17.5c36.2-2.4,72.9,1.3,112.6,2.4c-12.9-22.6-25.7-42.3-35.5-63.4
	c-9.5-20.4-17.2-42-23.1-63.7C2180.7,1979.7,2177.8,1956.8,2172.8,1930.7z M1739.1,2528.8c-2.2-0.5-4.3-1-6.5-1.4
	c-47.2,56.9-94.4,113.7-145.5,175.3c37.9,2,69.6,1.9,100.8,5.8c30.8,3.8,61.1,11.6,98.2,18.9
	C1750.2,2661.7,1744.7,2595.2,1739.1,2528.8z M2395.9,1550.9c1.3,2.4,2.7,4.8,4,7.2c59.9-26.1,122.9-35.9,190.8-36.1
	c-16-30.3-30.9-54.9-42.3-81.1c-11.7-26.9-20-55.4-32.3-90.2C2473.7,1421.4,2434.8,1486.2,2395.9,1550.9z M3077.9,474.3
	c24,2.3,26.7-12.1,31.3-24.1c24.7-64.7,64.7-118.5,115.7-164.7c4.3-3.9,7.8-8.7,13.1-14.7c-21.9-18.7-38.9-40.4-64.8-55.8
	C3121.1,294.9,3093.1,380.3,3077.9,474.3z"/>
<path d="M2318.5,2655.2c-29.1-1-49.9-24.5-49.2-55.7c0.7-33.5,27.2-61.5,56.9-60c29.9,1.5,52.4,26.5,52.1,57.5
	C2377.9,2627.7,2348.6,2656.2,2318.5,2655.2z"/>
<path d="M2123.1,2664.7c-52.6-0.6-88.4-34.2-88.8-81.3c-0.1-6.1,0.3-12.5,2-18.3c3.4-11.5,10-21,23.6-20.3
	c12.4,0.7,16.9,10.5,19.3,20.9c1.4,5.9,1,12.3,1.9,18.4c4.8,32.9,27.4,45.9,57.8,32.3c9.2-4.1,17.1-11.2,25.6-16.9
	c9.7-6.5,21.1-7.8,27.4,2c3.9,6.1,4,18.4,0.5,25.1C2177.3,2654.8,2151.9,2666.1,2123.1,2664.7z"/>
<path d="M2034.6,2437.3c-0.5,34.6-24.1,58.8-57.7,59c-28.4,0.2-48.4-21.4-48.2-52.2c0.2-30.7,26.7-58.2,56-58.1
	C2013.1,2386.1,2035,2408.6,2034.6,2437.3z"/>
<path d="M2172.4,2268.7c-5.3,3.9-9.9,9.4-15.8,11.3c-9.7,3.1-20.1,4.2-30.3,5.4c-31.2,3.7-60.3,12.4-85,32.9
	c-3.9,3.2-8.5,5.7-13.1,8c-10.6,5.2-20.4,3.6-27.1-6.4c-6.2-9.2-7.3-19.4,0-28.7c3.1-4,7.2-7.3,11.5-10.1
	c36.7-24.1,76.3-39.9,120.6-42.8c14.7-0.9,26.4,3.3,33.8,16.5C2168.8,2258.3,2169.9,2262.2,2172.4,2268.7z"/>
<path d="M1784,3109.2c28.8-0.7,53.1,22.8,54.1,52.2c1,30.7-26.7,58.4-59,59.2c-28.1,0.7-48.3-18.8-49.6-47.9
	C1728.1,3140.5,1754.3,3109.9,1784,3109.2z"/>
<path d="M1597.2,3212.7c-46.1,0.5-77.9-25.3-84.7-68.1c-1.5-9.7-1.4-21.6,3-29.8c4.1-7.6,14.3-14.9,22.9-16.4
	c11.6-2.1,17.7,8.5,20.2,19.2c1.4,5.9,0.8,12.3,1.6,18.4c4.1,29.8,23.5,40.6,50.6,27.6c7.3-3.5,13.2-9.7,20.2-13.9
	c9.7-5.9,19.9-5.9,28.4,2.1c9.1,8.5,7,18.6,1.2,28.1C1645.5,3204.6,1620.9,3210.4,1597.2,3212.7z"/>
<path d="M1519.2,2988.1c0.5,29.6-24.3,54.8-54.3,55.2c-25.1,0.4-46.4-23.1-46.4-50.9c0.1-29.1,23.7-55.1,50.6-55.6
	C1496.2,2936.2,1518.7,2959.3,1519.2,2988.1z"/>
<path d="M1629.4,2811.1c7.1,0.7,16.6,0.4,25.3,2.9c11.8,3.4,18.9,11.6,17.8,25.2c-1.2,14.6-10.4,18.6-23.1,18.7
	c-8.2,0-16.4,0.3-24.6,0.6c-33.4,1.3-64.8,8.3-93.1,27.5c-10.1,6.8-22.6,13-32.4-1c-6.7-9.7-2.3-26.1,10-35.2
	C1544.1,2824,1584.1,2812.7,1629.4,2811.1z"/>
<path d="M2391.4,1751.7c-29.9-16.7-33.5-30.8-12.3-52.2c36.2-36.4,81-55.7,131.6-62.3c12.6-1.6,22.1,3.2,29.1,13.5
	c9,13.1,5.7,23.1-9.7,28.1c-7.8,2.5-16.1,3.7-24.1,5.6c-38.9,9.3-74,25.1-100.9,56.1C2401.2,1744.9,2395.8,1748.1,2391.4,1751.7z"/>
<path d="M2660.7,1918.1c-0.4-30.4,21.9-57.1,48-57.3c26.9-0.2,51.2,23.5,51.8,50.5c0.7,30.5-23.7,56.6-52.8,56.6
	C2681.3,1967.9,2661.1,1946.5,2660.7,1918.1z"/>
<path d="M2540.2,2013c-40.3-3.2-71.3-27.5-78.8-65c-1.5-7.7-2-17.1,1.1-23.8c3-6.4,10.8-12.9,17.6-14.5c4.4-1,12.2,5.7,16,10.8
	c4.8,6.4,6.8,14.8,10.4,22.1c13.2,26.1,35.4,30.9,57.7,12.2c5.5-4.6,9.3-11.8,15.4-14.8c6.6-3.3,17.8-6.8,21.7-3.7
	c5.8,4.6,11.6,16.8,9.3,22.7c-4.9,12.8-12.6,26.8-23.3,34.4C2573.8,2003,2556.1,2006.7,2540.2,2013z"/>
<path d="M2380.2,1889.7c-26.8,0.2-48.3-22.3-47.9-50c0.4-24.4,25.9-50.3,49.8-50.5c24.4-0.2,48.4,25.7,47.8,51.6
	C2429.3,1868.2,2407.6,1889.6,2380.2,1889.7z"/>
<path d="M2843,1393.5c-32.2-2.9-54.9-12.2-66-37.2c-4.7-10.4-4.8-23.8-3.7-35.5c0.5-4.9,9.2-11.7,14.9-12.5
	c5.2-0.7,12.6,4.4,16.8,8.9c4.7,5.1,6.4,12.8,10.3,18.8c12.2,18.7,27.6,20.6,43.1,5.3c4.4-4.3,7-11.2,12-13.7
	c6.7-3.3,16.4-6.8,22-4.2c5.7,2.7,10.8,12.5,11.2,19.4c0.9,16.8-9.2,29.9-23.1,37.3C2867.4,1387.1,2852.1,1390.4,2843,1393.5z"/>
<path d="M3027.3,1294.5c-0.2,27.3-17.5,45.1-43.5,44.9c-26.7-0.2-44.6-18-44.5-44.3c0.1-23.1,22-45.4,45.1-46
	C3010.2,1248.5,3027.5,1266.8,3027.3,1294.5z"/>
<path d="M2746,1267c-1.6,23.4-21.8,40.1-46.6,38.5c-25.7-1.7-40.6-18.7-39.4-44.8c1.2-26.5,21.3-46.2,44.9-44
	C2725.9,1218.6,2747.5,1245.1,2746,1267z"/>
<path d="M2803.5,1130.3c-3.4,3.3-8.4,9.6-14.7,13.8c-21.2,13.9-43.3,26.5-64.4,40.5c-10.4,6.9-19.3,6.8-26.8-2.7
	c-7-8.8-14.9-18.9-4.8-29.9c23.6-25.9,53.2-41.2,87.8-45.4C2793.2,1105.1,2804.1,1116.1,2803.5,1130.3z"/>
</svg>
