<?xml version="1.0" encoding="utf-8"?>
<!-- Generator: Adobe Illustrator 24.3.0, SVG Export Plug-In . SVG Version: 6.00 Build 0)  -->
<svg version="1.1" id="Layer_1" xmlns="http://www.w3.org/2000/svg" xmlns:xlink="http://www.w3.org/1999/xlink" x="0px" y="0px"
	 viewBox="0 0 4000 4000" style="enable-background:new 0 0 4000 4000;" xml:space="preserve">
<path d="M2245.6,683.9c-6.3-11.5-12-19.9-15.7-29.1c-10.7-26.4-22.8-52.4-30.2-79.7c-8.2-30.2,20.1-57.4,48.4-45.4
	c71.4,30.3,145.1,27.4,219.7,22.6c54.8-3.5,109.8-5.1,165.6,12.4c5.2-14.7,10-26.7,13.9-39c40.3-128.9,105.5-242.9,205-335.2
	c30.5-28.3,64.2-53.5,98.3-77.4c34.1-23.9,60.3-18.8,83.3,16.1c27.4,41.7,52.3,85.1,77.6,128.1c5.1,8.6,7.9,18.8,10.5,28.6
	c7.1,26.3,0.6,45.7-21.9,61.1c-11.7,8-24.9,13.8-37.9,19.6c-106.6,46.8-180.3,127-233.4,228.5c-1.4,2.7-2.1,5.7-2.9,8.6
	c-0.3,0.9,0,2,0.2,5.5c4.9,2.5,10.6,6.2,16.9,8.5c41.8,15.6,76.6,41.8,110.1,70.4c22.5,19.2,45.6,37.7,69.6,54.8
	c37.2,26.6,79.6,40.1,124.6,47.1c19.9,3.1,42.3,5.1,50.2,28.5c8,24-6.8,41.2-22,56.5c-9.9,10-22.3,17.5-33.9,25.7
	c-7.1,5.1-14.9,9.3-23.5,14.7c20.9,29.7,41.4,56.2,59.1,84.4c77,122.7,123.8,256.9,144.2,399.7c35.6,248.9,4.5,491.9-72.9,729.8
	c-99.7,306.7-254.8,584-449.1,840.1c-127.4,167.9-269.7,322.1-435.9,452.7c-150.2,117.9-312.2,214.7-496.2,271.2
	c-133.8,41.1-270.3,62.8-410.1,52c-256.9-20-477.5-119.2-648.2-315c-126.4-145-184.5-317.5-180.5-509.9
	c3.6-172.9,58.8-329.6,152.7-473.7c85.4-131,197.8-235,324.6-324.5c39.1-27.6,77.7-56.1,117.4-82.8
	c163-109.4,274.2-260.2,347.4-439.7c36.9-90.5,66.6-183.9,99.4-276c39.5-110.7,85.2-218.3,151.6-316.1
	c98.6-145.3,229.3-249.9,394.5-310.6C2225.3,693.3,2234.2,688.9,2245.6,683.9z M2514.5,819.4c-4.9-2.6-6.5-4.1-8.3-4.3
	c-62.1-5.2-119.4-23.8-171.9-58.1c-8.1-5.3-22-6.2-31.7-3.6c-34.3,9.4-69.1,18.5-101.7,32.5c-133.3,57-235.5,151.5-317,269.9
	c-72.4,105.2-118.5,222.5-159.3,342.6c-30.5,89.6-60.8,179.7-98.5,266.4c-57.8,132.9-137.5,252-244.3,351.7
	c-56.2,52.5-119.6,95.2-183.1,137.7c-101.2,67.8-196.5,142.3-276.4,235C776.7,2558.1,696.6,2751,707.5,2977
	c5.8,119.8,41.5,230,107.6,330.2c74.1,112.3,173.3,197.4,290.8,260.6c181.7,97.8,375.3,124.2,577.9,89.1
	c158.4-27.5,306.1-84.2,443.6-167.1c207.6-125.1,383.3-286.8,535.6-474c161.4-198.4,299.5-412,407.6-644.5
	c79-169.9,141.3-345,168.9-531.1c22-148,26.2-296.2,3.1-444.7c-25.1-161.8-86.7-307-191.7-433.5c-13.4-16.1-26.5-22.5-47.1-18.9
	c-66.2,11.7-129.7,1-191.3-24.6c-7.2-3-14.9-4.8-23.5-7.5c-5.9,10.6-11,19.2-15.6,28.2c-34.2,67.5-83,123.3-140.3,171.7
	c-30.3,25.6-56.1,20.1-69.1-16.4c-28.7-80.8-54.2-162.7-49.7-250.3C2514.9,835.5,2514.5,826.6,2514.5,819.4z M2304.5,630.9
	c39.9,56.3,91.9,91.5,157.8,102.6c31.9,5.4,64.8,5,97.2,7.6c30.3,2.5,35.5,8.3,35,37.7c-0.2,10.2-0.6,20.5-2.6,30.4
	c-8.5,41.7-5.6,83.4,2.9,124.4c5.6,27.2,11.7,54.9,26.6,81.3c7.2-5.7,13.1-9.5,18-14.5c36.4-36.6,63.8-79.1,81.5-127.7
	c5.2-14.3,10.1-29,17.2-42.3c11.2-21.1,23.5-24.5,45.5-15c4.6,2,9.2,4.5,13.3,7.5c58.2,44,125.3,50.7,194.7,45.3
	c21.6-1.7,44.1-3.9,64.4-17.3c-2.9-3.7-4.2-6.8-6.4-7.8c-59.5-28.2-109.3-70.2-160-111.2c-23.4-18.9-50.9-33.4-78-47.2
	c-17.5-8.9-22.6-5.5-28.9,13.5c-6.5,19.5-16.9,35.2-36.7,42c-33.6,11.6-66.1,9.2-96.5-10.5c-20.2-13.2-31.4-31.4-31.4-55.9
	c0-12.9,0-25.9,0-41.2C2511.6,616.7,2408.3,639.8,2304.5,630.9z M2697,666c18.7-0.8,20.4-13,25.2-22.5c20.3-41,38.1-83.6,62-122.5
	c59.8-97.7,138.6-175.6,245.7-221.5c4.2-1.8,7.5-5.8,12.1-9.5c-19.5-34.6-38.2-67.8-57.4-101.9c-8.7,4.5-14.4,6.6-19.3,10
	c-12.5,8.8-25.2,17.4-36.7,27.4c-120.8,105.8-194.3,239.2-228.2,395.2C2697.3,634.8,2698.1,649.8,2697,666z"/>
<path d="M1843.2,1718c-3.5,57.8-16.1,101.9-32.1,144.9c-42.8,115.1-108.4,214.1-207.8,288.4c-31.3,23.4-65.2,41.8-106.5,40.2
	c-40.3-1.5-63.5-23.9-59.7-64.2c2-21.6,8.5-44.4,19-63.3c15.8-28.3,35.7-54.5,56-79.9c57.6-72,106-149.4,143.6-233.7
	c12.8-28.8,27.4-56.9,43.4-84c8.1-13.7,19.6-26.5,32.3-36c32.1-24.2,76.4-14.1,92.9,22.6C1835,1676.6,1839.1,1703.1,1843.2,1718z
	 M1774.8,1678.5c-3.3-0.8-6.7-1.6-10-2.4c-8.9,9-19.6,16.8-26.3,27.2c-9.8,15.3-17.4,32.2-24.9,48.9
	c-46,102.7-101.6,199.3-175.3,285c-15.1,17.6-26.9,38.2-38.4,58.5c-6.2,10.9-12.9,23.7-1.4,40.1c9.3-1.6,20.6-1.6,30.1-5.8
	c15.7-7,31.3-15.1,44.9-25.5c112.3-86.1,179.1-200.7,208.7-337.8c3.6-16.7,4.1-34.5,3-51.5
	C1784.2,1702.7,1778.4,1690.7,1774.8,1678.5z"/>
<path d="M1556.2,3559c-67.6-1-141.9-12.2-213.6-37.7c-9.4-3.3-20-7.2-26.4-14.2c-5-5.4-7-16.6-5.4-24.1c2.1-9.9,11.8-13.4,22.1-10.7
	c7.9,2,15.7,4.5,23.4,7.1c121.6,39.7,244.5,38.5,368.3,12.3c57-12.1,111.8-31,165.4-53.7c11.2-4.7,22.8-8.8,34.6-11.6
	c9.6-2.3,17.9,0.8,22.8,10.8c5.1,10.5,4.6,20.4-4.1,27.8c-7.7,6.5-16.6,11.9-25.9,15.9C1804.7,3529,1687.6,3557.4,1556.2,3559z"/>
<path d="M854.7,2939.8c-30.5,10.3-40.2,4.1-41.3-26.5c-2.2-63.8,8.9-125.8,28.7-186c24.7-74.9,60.1-144.5,108.4-207.2
	c6.8-8.8,14.2-17.4,22.7-24.5c9.1-7.5,19.1-5,27.7,2.4c8.3,7.2,8.4,15.8,3.1,24.7c-4.1,7-8.3,14-13.2,20.5
	c-82.6,110.8-129.1,234.4-134,373.1C856.7,2924.3,855.4,2932.3,854.7,2939.8z"/>
<path d="M2655.2,2016.3c-0.4,50.9-31.8,83.7-80.2,83.6c-46.2,0-80.6-35.4-79.4-81.5c1.2-45.7,39.9-86.1,82.1-85.8
	C2623.1,1932.9,2655.7,1968.1,2655.2,2016.3z"/>
<path d="M1914.7,1791.3c0.4-48.2,37.2-88.6,79.5-87.6c43.9,1.1,78.9,39.8,77.5,85.7c-1.4,47.4-37.5,83-84.2,82.9
	C1945.5,1872.3,1914.3,1837.5,1914.7,1791.3z"/>
<path d="M2162.2,1995.4c-2.5,40.2,15,68.5,52.2,84.6c33,14.2,69.3,5.7,94.5-22.1c3.4-3.8,6.3-8.1,9.9-11.7c14.2-14.1,27.7-16,40.7-6
	c11.5,8.8,12.7,21.4,2.1,38.2c-14.5,22.9-33.9,40.4-59.4,50.9c-97.5,40.2-201.1-36.7-191-141.9c2.2-23.5,10.4-32,29.2-30.4
	c18.3,1.5,23.8,10.2,22.3,35.4C2162.6,1993.4,2162.4,1994.4,2162.2,1995.4z"/>
<path d="M833.9,3078.8c-0.1-15,6-24.4,20.1-27.8c14.3-3.5,20.7,6.3,24.4,17.3c4.5,13.5,8,27.3,10.8,41.3c2.3,11.5,1.8,23-12.3,27.3
	c-14.2,4.3-24.2-1.9-29.2-14.8C842.2,3108,838.4,3093.2,833.9,3078.8z"/>
<path d="M2069.2,3402.6c-17.2,0.9-26.5-14-20.1-29.4c4.9-11.7,46.3-38.6,59.5-38.6c16.7,0,27.4,18.3,17.4,32.5
	C2111.9,3386.9,2090.3,3396.2,2069.2,3402.6z"/>
<path d="M1084,2421.9c-15.7-0.7-28-15.7-20.9-25.1c12.4-16.5,28.2-30.9,44.5-43.7c3.7-2.9,17.6,2.4,22.7,7.8
	c3.4,3.7,2.3,16.3-1.5,21.2c-9.9,12.6-22.1,23.5-34,34.4C1091.4,2419.7,1086.1,2420.9,1084,2421.9z"/>
</svg>
