<?xml version="1.0" encoding="utf-8"?>
<!-- Generator: Adobe Illustrator 24.3.0, SVG Export Plug-In . SVG Version: 6.00 Build 0)  -->
<svg version="1.1" id="Layer_1" xmlns="http://www.w3.org/2000/svg" xmlns:xlink="http://www.w3.org/1999/xlink" x="0px" y="0px"
	 viewBox="0 0 4000 4000" style="enable-background:new 0 0 4000 4000;" xml:space="preserve">
<path d="M1833.9,731.5c-1.4-3.2-3.3-8.5-6.1-13.3c-11.9-20.9-15.1-22.9-38.7-16.6c-41.1,11-81.7,23.5-122.7,34.7
	c-58.6,15.9-117.7,28.4-179.1,21.6c-6.6-0.7-13.2-1.1-19.7-2.4c-32.3-6.6-38.2-13-43.6-45.9c-0.6-3.6-2.2-7.1-3.5-11.1
	c-20.5-5.1-40.7-9.4-60.5-15.2c-41.4-12.3-78.3-33.4-110.4-62.1c-30.9-27.6-34-42.6-18.4-79.7c-18.9-17.8-39.3-34.6-56.9-54
	c-17.7-19.4-34.1-40.4-48.5-62.4c-14.9-22.7-21.1-42.4,7.5-64.3c1.3-1,1.5-3.3,2.7-6.1c-18.3-31-37.4-62.4-55.5-94.4
	c-7.9-13.9-14.7-28.7-20.1-43.7c-7.2-20.1,2.8-38.2,23.5-43.5c10.9-2.8,22.5-4.3,33.7-4.2c49.1,0.3,98.2,1.5,147.3,2.3
	c4.6,0.1,9.1-0.8,14.1-1.2c1.9-4.2,3.5-7.5,4.9-10.9c10.3-26.1,17-31.9,43.7-31.6c63.3,0.8,124.2,12.9,179.8,44.2
	c16.9,9.5,30.3,16.4,47.4,0c11.6-11.1,26.9-5.9,40.2-0.2c62.3,27,115.3,65.4,147.1,127.3c7.5,14.5,14.7,25,32.6,26.2
	c16.5,1.2,23.5,13.7,27.3,28.5c8.5,33,17.1,65.9,25.8,98.8c2.4,9.1,5.1,18.1,11.7,28.1c3.5-12.6,7.6-25.1,10.4-37.8
	c12.8-57.1,37.8-108.8,70.6-156.8c25.4-37.2,49.5-46,92.7-33.1c35.4,10.5,65.7,29.3,85.4,61.7c22.4,36.6,19.8,63.8-9.6,94.9
	c-42,44.4-76.5,93.7-99,150.8c-15.7,39.9-23.9,81.2-25.4,124.9c6.1,1.7,10.5,3.8,14.9,4c68.6,2.4,122.8,34.9,168.7,82.8
	c20.9,21.8,40.2,45.3,58.3,69.5c67.3,89.7,145.9,168.8,229.2,243.4c99.4,89,197.9,178.9,285.7,279.8
	c175.7,201.9,295.5,430.8,340.4,696.9c20.9,124,27,248.3,15.7,373.2c-17.5,193.7-79.4,372.4-184.1,536.8
	c-87.1,136.7-200.7,248.3-325.3,349.6c-106,86.2-204.3,180.1-295.6,281.6c-19.5,21.7-40.8,42.4-63.9,60.2
	c-88,67.8-202.6,65.9-287.6-5.7c-29.5-24.9-55.4-54.2-81.8-82.5c-62.4-66.9-134.4-121.9-211-171.2
	c-97.1-62.4-194.9-123.5-285.9-194.9c-216.2-169.6-358-387.2-423.1-654.3c-36.3-148.9-40.2-299.2-18.7-450.7
	c35.4-249.2,139.6-467.3,294.1-663.7c73.2-93.1,150.5-182.6,234.9-265.6c108.1-106.3,208.4-219.4,304.7-336.3
	C1764.2,801.6,1798.6,769,1833.9,731.5z M1111.2,1674c-58.2,100.8-101.8,205-128,315.9c-31.4,133.3-44.7,268.1-27.2,404.3
	c5.9,3.2,9.9,5.6,14.2,7.6c95.8,44,196.8,65.7,301.8,70.8c18.9,0.9,37.8,1.5,56.7,2.2c15.7,0.6,19.2,8.4,12.8,24.6
	c-131.3,0.3-258.5-19.5-384.3-77.7c3.8,24.3,6.2,41.8,9.4,59.2c37,201.1,123.2,378.4,258.4,531.6c90.3,102.3,198.6,183,311.2,258.5
	c14.5,9.7,28.1,10.9,45.2,7.7c54.7-10.2,109.7-20,165-25.9c35.5-3.8,71.8-0.6,107.7,0.1c13,0.2,22.4,4.9,15.5,24.7
	c-92.2-3-184.8-0.3-277,25.3c3.5,4.6,4.7,7.5,6.8,8.8c87.2,54.9,174.2,110.1,247.8,183.6c5.5,5.4,17,7.2,25.5,6.8
	c25.5-1.3,50.8-5.1,76.2-6.7c21.7-1.4,43.5-1.2,65.3-1.4c14.6-0.1,17.5,7.2,12.2,21.2c-47.3,1-93.8,3.3-144.7,14.9
	c34.2,34.2,58.3,71.2,95.6,94.3c16.5,10.2,35.8,18,54.8,21.5c51.9,9.6,100.2-2.2,141.5-35.1c22.8-18.1,42.8-39.9,63.5-60.6
	c67-66.8,131.8-135.8,201-200.1c67.8-63.1,140.1-121.4,210.3-181.9c5.3-4.6,9.8-10.3,15-15.9c-35.3-20.7-107.5-40.7-159.1-45.2
	c-10.6-0.9-26.3,1.7-24.4-15.3c1.7-14.9,15.7-9.9,25.4-8.9c54.9,5.5,108.1,17.6,157.8,42.6c19.8,9.9,20.6,9.4,36.2-7.2
	c69.8-74,130.6-154.5,178.9-244.2c2.9-5.5,4.6-11.7,8.3-21.5c-34.9-13.6-67.6-28.4-101.5-39.2c-105.3-33.7-213.8-47.5-324.1-48.8
	c-7.5-0.1-15.3-0.3-22.3-2.4c-3.2-1-6.9-6.9-6.8-10.5c0.1-3.7,3.7-9.3,7.1-10.5c6-2.1,13-2.1,19.6-1.9c29.3,1.3,58.6,3,87.8,4.7
	c95,5.5,187.1,25.7,276.7,57.2c25.6,9,50.1,21.1,74.9,31.7c89.6-110.3,159.1-523.1,112.3-667.3c-3.5,0.2-7.2-0.1-10.8,0.5
	c-50.3,8.4-100.3,18.4-150.8,24.7c-28.9,3.6-58.5,1.1-87.8,1c-12.7,0-21.4-4.9-20.9-22.5c10.9-1.2,20.9-2.9,30.9-3.2
	c29.3-0.8,58.9,1.4,87.9-2c44-5.1,87.8-12.8,131.2-21.5c20.5-4.1,21.7-8.6,19.1-27.5c-18.1-131.1-54.4-257.1-111.7-376.5
	c-21.6-45.1-46.7-88.6-70.3-132.8c-5.9-11-12.9-16.9-27.4-10.9c-53.5,22-109.7,34.7-166.4,45.7c-60.7,11.7-122.1,13.6-183.5,15
	c-17.3,0.4-17.9-1.3-15.6-24.1c122.9-6,246.2-13.4,364.8-62.1c-5.5-9.8-8.8-17.5-13.7-24c-35.2-45.6-67.7-93.9-107-135.8
	c-69.2-73.7-143.2-143-213.9-215.3c-17.2-17.6-32.3-19.9-55-12.2c-100.3,34.1-203.9,48.2-309.7,46.5c-5.7-0.1-12.3,1.1-16.7-1.4
	c-4.8-2.7-10.4-9.1-10.4-13.8c0-4.2,6.6-10.3,11.6-12c5.9-2,13.1-0.3,19.7-0.2c96.2,1.7,190.5-11,282.5-39.5
	c9.3-2.9,18.1-7.1,27.6-10.8c-3-5.2-3.6-7.1-4.9-8.4c-58.1-56.8-116.4-113.6-174.4-170.5c-6.9-6.8-13.8-8.2-23-5.5
	c-56.1,16.5-113.7,18.1-171.5,16.9c-10.6-0.2-27,3.8-26.6-12.3c0.4-16.3,17.3-10,27.4-10.9c42.4-3.8,84.8-6.3,127.2-10.4
	c11.7-1.1,23-5.9,38.3-10.1c-18.7-23.2-34.3-43.1-50.5-62.5c-21.8-26.1-42.1-53.8-66.4-77.4c-53.2-51.5-119.5-61-185.5-27.4
	c-21.7,11-42.6,25.1-60.6,41.4c-25.9,23.4-49.7,49.2-72.8,75.5c-43.1,49-85.1,99-127.4,148.7c-4.2,4.9-7.2,10.8-12,18.2
	c8.3,5,15,9.9,22.4,13.4c37.1,17.5,76.3,27.5,116.8,33.1c5.6,0.8,11.9,0,16.7,2.3c4.2,2.1,9.3,7.6,9.3,11.6c0,3.4-6.6,9.3-10.5,9.6
	c-12.2,0.8-25,1.3-36.6-1.6c-31.1-7.7-62-16.8-92.6-26.3c-16-5-33.4-19.5-46.5-16c-14.9,4-25.9,23-38.2,35.9
	c-74.5,78-150,155-222.9,234.4c-75.5,82.3-144.8,169.8-203.3,265.4c-6.6,10.8-11.6,22.7-16.7,32.8c3.9,4.1,4.9,5.9,6.5,6.7
	c144.8,72.1,299,104.7,459.8,109.5c5.7,0.2,12-1.1,16.8,1.1c4.1,1.9,8.9,7.8,8.7,11.8c-0.2,3.7-5.8,8.8-10.1,10.4
	c-5,1.9-11.2,0.7-16.9,0.7c-159.6-0.3-311.1-35.9-454.8-105.1C1130.2,1681.7,1121.6,1678.4,1111.2,1674z M1603.1,246.4
	c-3.4,7.6-6.3,14.3-9.5,20.9c-10.5,21.1-27.1,25.5-46.2,11.9c-6.1-4.4-11.7-9.6-17.1-14.9c-43.6-42.8-97.9-63.1-156.4-74.3
	c-3.2-0.6-6.8,0.7-12,1.3c0,10.8,0.3,20.1-0.1,29.4c-0.5,13.6-7.2,21.3-21.5,20.2c-13.1-1.1-26.2-3.1-39.3-4.1
	c-47-3.6-94.1-7.3-141.1-10.3c-7.1-0.4-14.3,2.7-21.7,4.2c0.4,4.5-0.2,7.9,1.1,10c16.4,26.4,32.8,52.9,50,78.9
	c10.4,15.8,23,30.1,32.7,46.2c10,16.6,7.3,24.8-8.4,35.6c-6.1,4.2-12.3,8.1-18.6,12.2c1.5,3.8,1.9,7,3.7,8.9
	c27.6,30,56.2,58.8,92.4,78.6c9.1,5,18.3,10.1,26.5,16.3c21.3,16.2,22.3,32.6,3.6,52.3c-5.4,5.7-11.6,10.6-17.9,16.3
	c41.9,30.7,92.7,48.7,142.2,51.9c12.2,0.8,24.7,1.2,36.6,3.8c17.8,3.7,23.6,12,23.2,30.1c-0.2,8.2-1.2,16.5-1.8,24.5
	c48.3,9.7,212.2-22.5,269.4-52.1c-21.4-22.2-43-44.3-64.2-66.8c-9.9-10.5-21.2-14.4-35.6-13c-52.6,5.3-105.3,10.3-158.1,14.8
	c-13.8,1.2-27.7,0.2-42,0.2c-1.6-18,11.7-18.8,22.1-20.3c47.7-6.6,95.6-12.3,143.4-18.4c6.1-0.8,12.1-1.9,22.9-3.7
	c-9.7-8.5-15.3-14.8-22.1-19.2c-44.8-28.2-89.5-56.7-135-83.7c-21.5-12.7-45.5-16.3-71-14.1c-38.6,3.3-77.5,3.8-116.2,5.3
	c-8.2,0.3-17,0.9-22.9-12.8c40.8-16.9,84.2-14.2,130.7-21.7c-9-6.3-13.1-9.9-17.9-12.3c-31.1-16-62.4-31.6-93.5-47.6
	c-11.1-5.7-25.2-9.1-24.6-27.9c7.3,0,14-1.4,19.6,0.3c9.9,3,19.5,7.4,28.6,12.2c56.9,29.8,113.5,60.2,170.6,89.6
	c12.5,6.5,23.4,19.3,43.2,14.9c-11.2-19.9-21.9-37.5-31.2-56c-8.7-17.2-27.3-31.7-18.7-55.8c16.2,1,22.2,12.3,28,22.8
	c17.7,32.3,34.8,65,52.2,97.4c4.4,8.3,7.6,18.5,14.3,24.1c26.6,21.8,54.4,42.1,84.7,65.3c1.5-31.9-16.4-58.1-4.4-92.8
	c8,14.7,14.2,23,17.4,32.4c6.4,18.7,12.7,37.7,16.2,57.1c8.2,45.8,45.7,65.5,76.9,91.8c0.7-20.1-0.3-38.9-3.2-57.4
	c-6.8-42.9-14.4-85.7-21.8-128.6c-1.6-9.4-3.2-19.2-15.5-20.8c-21.7-2.9-30.5-19.5-40.3-36.2c-15.3-25.9-30.6-52.1-48.7-76
	C1643.7,270,1627.5,253.5,1603.1,246.4z M1955.1,334.6c-11.9,28.1-23.7,53.7-33.8,79.9c-32.1,83.4-43.7,169.9-37,258.9
	c0.9,11.5-1.1,24.7,11.7,33.2c15-6,11.2-18.7,11.8-29.1c6.7-107.4,43.6-202.4,115.3-283.3c2.8-3.2,4.7-7.2,6.6-10.2
	C2005.4,367.9,1982.8,352.9,1955.1,334.6z M1990.6,306.1c-0.5,2.7-0.9,5.3-1.4,8c16.2,19.3,35.3,33.4,64.2,34.4
	c-5.6-24-24.4-31.7-40.9-40.9C2006.8,304.4,1998,306.4,1990.6,306.1z"/>
<path d="M2331.8,2233.5c-49.7,0.2-89.3-39.9-89-90c0.3-45.7,40.9-85.5,87.7-86c49.8-0.5,90.4,39.6,90.2,89
	C2420.5,2195.2,2381.6,2233.3,2331.8,2233.5z"/>
<path d="M1638.5,2233.5c-49.4-0.2-88.7-39.4-88.2-88c0.4-48.2,41.2-87.9,89.6-87.3c49.4,0.6,88.2,39.5,88.3,88.7
	C1728.3,2194.6,1687.9,2233.7,1638.5,2233.5z"/>
<path d="M1979.7,2303.1c-53.7-1.1-92.5-28.9-109.1-78.3c-1.5-4.5-4.3-9.6-3.3-13.5c1.7-6.4,5-13.7,9.9-17.3
	c2.3-1.6,11.6,3.5,15.4,7.7c4.2,4.7,5.8,11.7,8.4,17.7c15.2,35.7,43.2,50.6,80.7,50.1c36.5-0.4,63.1-16.4,77.9-50.4
	c2.6-6,3.8-13.5,8.2-17.8c4.6-4.5,13.3-9.4,18-7.7c5,1.7,11.1,11.4,10.4,16.8c-3.6,27-16.2,50.1-37.4,67.5
	C2036,2296.7,2009,2303.9,1979.7,2303.1z"/>
<path d="M1876.3,1415.6c6.2,14.3,4.1,22.1-8.4,24.4c-7.4,1.4-14.9,2.4-22.5,2.5c-83.3,1.9-165.7-6.4-247.5-21.8
	c-5.3-1-11.8-3-14.9-6.8c-2.9-3.6-3.6-10.7-2.3-15.5c0.8-2.9,6.9-5.5,10.9-6.2c4.4-0.7,9.4,0.5,13.9,1.6
	c76.8,17.3,154.8,22.3,233.2,21.9C1851.8,1415.6,1864.8,1415.6,1876.3,1415.6z"/>
<path d="M1406.8,2732.9c46.7,0,91,1.4,135.2-0.4c43-1.8,85.9-6.8,135.6-11c-6.4,10.1-8.3,17-12.4,18.9c-9.3,4.3-19.5,7.1-29.7,9
	c-71.1,12.8-142.6,15.3-214.3,6.6C1404.4,2753.9,1403.9,2752.8,1406.8,2732.9z"/>
<path d="M1890.4,3023c0.5,9,0.7,14.4,1,18.8c-2.9,2.2-4.4,4.2-5.8,4.2c-63.3,0.4-126.6,0.9-189.8,0.5c-12.8-0.1-12.8-1.8-13.4-23.6
	C1750.8,3023,1819.2,3023,1890.4,3023z"/>
</svg>
