<?xml version="1.0" encoding="utf-8"?>
<!-- Generator: Adobe Illustrator 24.3.0, SVG Export Plug-In . SVG Version: 6.00 Build 0)  -->
<svg version="1.1" id="Layer_1" xmlns="http://www.w3.org/2000/svg" xmlns:xlink="http://www.w3.org/1999/xlink" x="0px" y="0px"
	 viewBox="0 0 4000 4000" style="enable-background:new 0 0 4000 4000;" xml:space="preserve">
<path d="M3800.1,1992.6c-1.9,319-87.9,643.3-269.4,941.3c-205.5,337.5-492.3,580.3-854.8,735.1c-193.9,82.8-396.5,128.5-607,142.1
	c-150.3,9.7-298.5-3.2-445.5-32.6c-369-73.8-688.6-242.7-954.3-508.7c-281.1-281.4-452.1-620.7-512.5-1014.4
	c-18.6-121.1-27.1-243.3-20.3-365.9C164.2,1384.9,361,958.8,731.6,613.9c176.8-164.5,380.7-285.6,606.5-368.5
	c144.5-53,294.3-86.1,448.1-102.5c162.8-17.3,324.5-13.3,485.3,15.3c282.1,50.1,544.1,152.2,776,322
	c346.9,253.9,577.7,589.4,690.4,1005.2C3780.4,1642.1,3799.2,1801.7,3800.1,1992.6z M2582,3192c-20.6,0-41,0.7-61.3-0.2
	c-38.6-1.6-75.2-10.6-106.3-34.7c-39.7-30.7-40.7-71.8-2.7-104.3c9.7-8.3,21-16,32.8-20.5c72.8-27.2,144.1-28.7,210.1,18.6
	c15.3,10.9,27.6,12,44.7,4.8c17.6-7.5,37.3-14.8,55.9-14.4c41.9,0.9,84,4.8,125.5,10.9c48.2,7.1,96,16.9,145.1,9.7
	c58.3-8.5,103-37.2,132.4-88.8c24-42,35.5-88,44.1-135.1c7.8-42.5,14.8-85.3,24.2-127.5c21.1-94.7,79.7-156.8,170.9-187.3
	c38.9-13,79.5-20.9,118.6-33.3c28.7-9.2,57-20.3,83.8-33.8c29.3-14.7,48.5-39.5,55.4-72.3c11.6-55,25.7-109.7,33.8-165.2
	c22.3-152.7,26.7-306,7.7-459.7c-18.7-151.2-54.3-298-109.9-439.8c-92.8-236.7-233.6-440.7-417-616.4
	c-170.1-162.9-368.4-279.4-586.8-363.6c-158.7-61.2-323.6-95.1-493-108c-141-10.7-281.5-3.9-420.8,19.8
	c-176.4,30-342.6,90.1-501.4,172.3C968.5,526.6,794.7,661.9,648.1,832.4c-162.6,189.2-280.7,402.3-350.4,642.1
	C259,1608.2,236,1744.7,228,1883.4c-4.6,78.8-8.1,158.2,8.6,236.3c22.1,103.7,80.5,175.6,185,205.3c12.5,3.6,25.3,5.8,37.8,9.3
	c28.1,7.7,56.4,15,84.2,23.8c71.2,22.4,114.4,71.7,132.8,143c5.9,22.9,10.2,46.7,11.6,70.3c2.7,47.5,1.6,95.3,4.7,142.8
	c1.8,26.7,6,53.9,14.3,79.3c17.1,52.7,56.6,80.5,110.8,86.6c22.5,2.5,45.4,1.9,68.1,1.9c41.1-0.1,82.5-3.8,123.4-0.6
	c107.1,8.4,169.7,56.8,193.2,160c0.9,3.8,3.4,7.2,6.2,12.9c52.1-40.2,110.5-45,171.1-37.5c35.2,4.4,67.3,17.1,93.2,41.8
	c24.6,23.5,26.4,54.9,6.2,82c-14.8,19.9-35,31.9-58.5,38.8c-58.8,17.3-117.3,17.8-175.5-3.1c-6.5-2.3-13.7-2.9-25.1-5.2
	c10.1,38.7,21.2,72.4,42.9,100.9c25.9,34.1,60.4,50.8,104.7,45.8c32.3-3.6,59.9-17.5,87.1-33.4c34.5-20.3,67.8-42.9,103.6-60.6
	c63.5-31.5,127.6-31.9,188.1,8.5c19.6,13.1,37.3,29.5,53.7,46.6c19.4,20.3,35.9,43.4,54.7,64.3c14.4,16,29.1,32.3,46.2,45.3
	c41.7,31.6,89.7,27.8,125.9-10c14.8-15.4,25.8-34.5,38-52.3c14.7-21.4,27.1-44.6,43.6-64.5c39.4-47.5,91.2-66.3,150.9-51.2
	c34.2,8.6,66.3,25.7,99,39.7c25.8,11.1,50.4,25.6,76.8,34.8C2507.9,3309.9,2571.3,3270.1,2582,3192z M263.1,2300.2
	c82.8,625.6,681.3,1351.5,1586.1,1414.9c923.5,64.7,1594.5-583.3,1763.6-1191c-8.1,2.2-15,4-21.9,6c-31.1,9-62,18.4-93.2,27
	c-19.8,5.5-40.1,9.3-59.8,14.9c-83.7,23.8-140.7,74-158.9,162.1c-4.4,21.2-9.2,42.3-12.6,63.6c-10.7,66.3-21.3,132.6-51.3,193.8
	c-37.8,77.2-99.5,119.8-184.5,131c-40.4,5.3-79.8,1.1-119.4-5.6c-38.4-6.5-76.6-14-115.1-19.1c-42-5.6-77.8,9.6-102.6,43.3
	c-19.7,26.8-34.8,57-51.7,85.9c-13.1,22.4-23.6,46.6-38.9,67.2c-33.8,45.6-81,62.9-137,56.8c-40.4-4.4-77.2-19.9-113.3-37.7
	c-28-13.9-56.2-28.5-85.8-38.1c-58.4-18.9-93.3-5.1-127.7,46.3c-17.5,26.1-33.5,53.1-51.6,78.7c-62.3,88.8-176.1,82.3-236.5,26
	c-17.4-16.2-33.3-34-48.7-52.1c-17.6-20.5-32.7-43.3-51.1-63.1c-38.3-41.1-85-61-140.4-41.1c-31.2,11.2-61.3,26.7-90,43.6
	c-36.4,21.5-71.7,44.5-112.9,56.1c-39.7,11.2-78.8,11.5-117.7-3.7c-58.5-22.9-91-68.6-107-126.4c-10.1-36.3-14.2-74.3-22-111.3
	c-7.5-35.8-13.7-72.2-25.1-106.9c-14.4-44-49.2-67.8-93.6-75.9c-24.3-4.4-49.4-5.9-74.2-6.2c-46.5-0.7-93.2,2.4-139.6,0.2
	c-102.8-4.8-172.3-67.6-186.8-169.2c-5.4-37.3-4.8-75.5-6.8-113.3c-1.8-35.6-1.5-71.5-5.5-106.9c-8.3-74.2-48.3-123.4-120.9-144.3
	c-17.6-5.1-35.6-9.3-53.5-13.3c-69.2-15.5-137.1-33.7-186.1-90.8C267.9,2300.4,265.1,2300.7,263.1,2300.2z M2537.3,3153.5
	c26.7-6.3,53.3-10.5,78.3-19.5c10.3-3.7,21.7-16.4,24.2-27c3.5-14.6-9.1-25.9-22.2-32.2c-53.7-25.7-108-26.4-162.2-1.8
	c-13.2,6-24.7,15.6-25.1,31.1c-0.5,18,13.8,27.6,27.9,31.8C2483.6,3143.6,2510.2,3147.7,2537.3,3153.5z M1352.3,3148.4
	c18.4,0.2,47.2-3.6,73.1-19c27.7-16.4,28.1-32.8,1.8-51.5c-42.7-30.4-132.5-30.9-176.6-1.1c-24.1,16.3-24.5,29.1-1.4,47.7
	C1276.1,3146.3,1308.2,3149.1,1352.3,3148.4z"/>
<path d="M1955.6,2426.8c-338.5-4.3-530.4-298.9-529-532.1c1.7-282.8,225.7-535.9,532.2-532.3c324.3,3.9,525.6,262,522.1,540.1
	C2477.1,2206.3,2235.9,2427.2,1955.6,2426.8z M1521.6,1888.7c-6.1,234.9,192.1,446,436.3,443.7c254.1-2.4,435.3-202,433-444.9
	c-2.3-242.2-193.5-429-432.7-433C1742.7,1450.8,1517.2,1629.2,1521.6,1888.7z"/>
<path d="M2500.8,2889.5c0,73.3-59.1,132-132.5,131.4c-72.5-0.6-130.4-60.4-129.8-134.3c0.6-73.5,59.5-133.5,131.1-133.6
	C2443.1,2753,2500.8,2813,2500.8,2889.5z"/>
<path d="M1502.4,2756.3c75.6,0.2,128.1,54.8,128.2,133.1c0,72.5-56.7,127.7-129.7,128.8c-65.2,1-131.2-52.7-129.5-130
	C1373.3,2802.2,1438.2,2753.5,1502.4,2756.3z"/>
<path d="M2311.3,468.7c-0.8,64.8-65.7,122.9-136.2,87.5c-56.9-28.6-115.2-54.5-172.2-83c-38.1-19-56.8-56.2-51.1-96
	c6.2-43.9,38.5-81.2,79.2-88.1c13.2-2.2,29.2-1.7,41,3.8c67.3,31.6,134.2,64.2,200.2,98.4C2300.5,406.1,2311.1,433.6,2311.3,468.7z
	 M2212.4,514c21.8-0.6,36.9-14.2,43.4-36.3c6-20.7,2.9-35-18.4-46.4c-56.9-30.5-115.1-58.8-173-87.7c-15.4-7.7-29.7-2.6-42.1,7.3
	c-28.9,23-26.9,59.7,6,76.6c54.5,28.2,110.1,54.4,165.4,81.1C2200.4,511.8,2208.1,512.8,2212.4,514z"/>
<path d="M1618.9,1070.9c-0.7,65.9-48.3,108.4-112.3,97.4c-60.5-10.5-120.6-23.8-180.8-36.5c-38-8-64.5-29.7-73.5-68.8
	c-9.1-39.4,4-72.5,32.4-99.7c19.7-18.9,43.8-28.3,71.2-23.3c63.6,11.7,127.3,23.4,190.5,37.2
	C1594.4,987.6,1619.4,1022.1,1618.9,1070.9z M1355.1,993.1c-32.7-0.8-47.6,11.3-51.9,38c-4.1,25.6,5.1,40.7,30.4,49.5
	c6.1,2.1,12.4,3.8,18.8,5.1c51.9,10.6,103.7,21.1,155.6,31.6c31.7,6.4,50.9-4.1,57.5-31.4c7.8-32.3-1.7-49.3-33.4-59.1
	c-7.2-2.2-14.7-3.5-22.1-4.9c-39.3-7.6-78.5-15.2-117.8-22.5C1378.4,996.7,1364.5,994.7,1355.1,993.1z"/>
<path d="M1714.1,2620.9c-1.8,85.3-85.8,129.4-147.1,89.6c-52.5-34.2-106.9-65.6-158.8-100.7c-42.9-29-51.1-80.2-24-126.4
	c26.1-44.6,79.5-65.8,122.2-41.4c60.9,34.8,119.1,74.5,177.3,113.7C1705.4,2570.5,1713.6,2594.6,1714.1,2620.9z M1660.8,2615.9
	c-4.1-5.8-9.3-18.7-18.8-25.3c-49.8-34.2-100.4-67.4-151.7-99.2c-8.6-5.4-23-5.6-33.4-3.1c-21,5.1-31,22.1-34.9,42.5
	c-3.6,18.8,7,31.3,21.1,40.4c48.9,31.6,98,63.2,147.7,93.5C1631.8,2689.9,1656.5,2654.8,1660.8,2615.9z"/>
<path d="M3232.5,911.3c-0.6,39.8-15.7,72.1-51.9,90.5c-50,25.4-100.1,50.8-151.8,72.5c-54.4,22.9-104.2,2.4-127.5-48
	c-23.3-50.2-7.9-103.8,42.4-130.4c51.4-27.2,105.4-49.3,158.1-74.2C3169.5,789.7,3233.8,854.6,3232.5,911.3z M3178.9,925.9
	c1.3-50.5-27.5-70.5-65.3-52.7c-42.9,20.2-85.2,41.6-127.7,62.7c-6.7,3.3-13.2,7.4-19.3,11.8c-25,17.8-28.5,34.7-13,60.8
	c14,23.6,29.7,28.9,57.7,15.9c46.9-21.8,93.1-45,139.6-67.8c3.9-1.9,8.4-3.6,10.9-6.8C3169.2,940.3,3175.9,930.1,3178.9,925.9z"/>
<path d="M3423,2375.6c-1.9,45.4-18.6,77.9-58.1,97.1c-44.7,21.7-88.7,45-133.5,66.4c-36.2,17.3-73.4,21.4-107-5.4
	c-33.7-27-48.7-62.6-40.2-106.3c5.5-28.5,22.1-50,46.9-63c52.6-27.6,105.8-54,159.6-79.2C3354.8,2255.2,3426.3,2318,3423,2375.6z
	 M3371.3,2388.5c-0.7-46-33.3-67.3-69-50.4c-45.9,21.8-90.9,45.5-136.2,68.6c-5.8,2.9-11.4,6.3-16.4,10.4
	c-17.1,14.1-20.7,30.7-11.7,52.4c8.9,21.5,23.4,32.2,45.2,27.8c16.6-3.3,32.6-10.7,48-18.2c32.1-15.5,63.7-32,95.4-48.4
	c10.5-5.5,22-10.5,30.2-18.6C3364.6,2404.5,3368.7,2393,3371.3,2388.5z"/>
<path d="M1018.8,853.6c0.2,39.7-9.4,62.8-30.4,78.3c-52.9,39-106.3,77.5-161.1,113.9c-32.4,21.5-67.8,20.9-100.6-1.2
	c-33.5-22.6-45.5-56.6-44.5-95.3c0.6-25.2,12.5-46.2,32.8-60.6c51.9-36.8,103.1-75,157.5-107.9C939,740.6,1018.9,789.1,1018.8,853.6
	z M969.3,871.8c-0.2-42-40.4-67.3-71-47.4c-51.5,33.5-101.1,70-150.2,106.8c-20.4,15.3-20,31-4.5,53.7
	c16.2,23.7,32.9,30.7,54.5,16.7c52.5-34,103.8-69.7,154.7-106C961.5,889.5,965.8,877.1,969.3,871.8z"/>
<path d="M2849.2,1885c-1.2-35.4,15.2-64.6,46.2-82c52.6-29.5,106.1-58,161.3-82.1c45.8-20,93.6,0.8,115.6,43.2
	c25.8,50,18.2,101.6-25.9,129c-52.1,32.4-107.4,59.7-162,87.7C2918.5,2014.4,2844,1951.8,2849.2,1885z M3085.6,1766.5
	c-7.5,2.4-20.5,4.8-31.7,10.6c-41.1,21.5-81.7,43.8-122.1,66.6c-9.2,5.2-17.9,12.3-24.7,20.4c-11.9,14.2-10.4,32.1,2.2,50.8
	c12.6,18.7,26.3,28,43,19.9c57.1-27.7,113.4-57.1,168.7-88.2c15.9-8.9,16.9-29.7,8.3-50.1
	C3122.1,1779.6,3110.9,1767.3,3085.6,1766.5z"/>
<path d="M2752,2888.2c-63.6-0.1-107-46.1-99.3-108.6c7-56.7,16.3-113.3,26.8-169.5c14.1-75.1,100.1-97,155.6-57.8
	c28.6,20.2,45.7,48.1,41,82.9c-8.7,64.1-18.9,128.2-32.5,191.5C2834.9,2867.7,2799.6,2888.3,2752,2888.2z M2826.3,2638.2
	c-1.5-30.6-16.2-48.9-43.9-51.9c-27.7-3-44.1,8.4-49.8,38c-10.2,52.9-19.5,105.9-27.6,159.2c-4.4,29.2,9,46.4,35.8,51.8
	c31.9,6.4,49.8-2.1,55.9-32C2808,2748.6,2816.6,2693.3,2826.3,2638.2z"/>
<path d="M2865.2,2224c-0.1,44.8-15.7,74.7-48.6,92.8c-31.3,17.3-64.8,18.6-95.5-2.2c-51.9-35.2-103.5-71-154.1-108
	c-65.8-48.3-39.2-139.3,15.6-164.6c24.3-11.2,48-12.1,72.1-2.2c10.9,4.5,21.7,10.1,31.3,16.9c47.8,33.6,95.5,67.3,142.6,101.9
	C2852.6,2176.2,2866.1,2200.2,2865.2,2224z M2578,2140.6c4.2,5.9,9.4,16.8,17.7,24c12.1,10.5,26.5,18.3,39.9,27.4
	c37.4,25.5,74.4,51.5,112.4,76.1c9.3,6,22.5,12.1,32.3,10.2c17.9-3.6,27.2-19.5,32.8-36.8c5.5-16.9-0.5-29.5-13.9-39.4
	c-49.4-36.4-98.8-72.9-148.5-109c-15.3-11.1-31.9-12.3-48.3-1.6C2586.7,2101.8,2579.9,2117.1,2578,2140.6z"/>
<path d="M3265.4,1992.4c-0.8-30.8,11.4-57.8,37-74.6c53.2-34.9,107.2-68.6,162.8-99.4c28.3-15.7,59.1-8.4,86,9.4
	c57.3,38,64.2,115.2,10,156.7c-48.7,37.2-101.7,69.3-154.3,100.9C3346,2122.1,3259.9,2065.3,3265.4,1992.4z M3544.2,1922
	c-0.6-44.7-37.5-67.7-70.4-50.8c-11.5,5.9-22.2,13.3-33.1,20.3c-34.6,22.1-69.8,43.3-103.5,66.6c-24.4,16.9-27.4,29.5-18.2,52.1
	c13.2,32.1,36.9,41.5,67.5,24.6c27.4-15.1,53.7-32.2,80.3-48.7c19.3-11.9,39.3-23,56.9-37.1C3533.9,1941.1,3539.9,1928,3544.2,1922z
	"/>
<path d="M2726.2,835c-40.3-1.2-71.6-17.5-86.1-56.5c-20.7-55.6-41.1-111.5-58.3-168.3c-14.1-46.7,14.1-96.2,59.2-112
	c51.4-17.9,103.4,0.1,124,46.1c14.1,31.4,23.9,64.8,35.5,97.3c6.9,19.3,11.3,40,20.9,57.8C2851.4,754.9,2804,838,2726.2,835z
	 M2774.9,737.3c-1.1-4.9-2.4-14.6-5.4-23.7c-14.2-43-28.9-85.9-43.5-128.8c-2.1-6.1-4.5-12.2-7.6-17.9c-12.2-21.8-33-27.8-58.5-17.3
	c-24.3,10-32.3,25.8-24,51.4c14.6,45.2,29.8,90.1,45.2,135c3.5,10.1,8.2,20,13.7,29.2c9.8,16.5,28.9,21.5,51,14.5
	C2765.1,773.5,2774.7,761.1,2774.9,737.3z"/>
<path d="M1836.7,708.9c0,20.2-8.7,44.8-29.3,62.5c-44.3,38-89.6,75-135.1,111.5c-46.9,37.7-118.3,12.1-143.3-32.7
	c-19.5-34.9-19.4-68.2,3.2-100.5c8.6-12.3,19.4-23.4,30.8-33.1c33.9-28.6,68.3-56.6,103.3-83.9c25.2-19.8,52.6-33.6,86.7-27.9
	C1801.6,612.9,1836.2,652.4,1836.7,708.9z M1785.6,711.8c1-42.2-35.7-66.5-66.4-50.9c-8.6,4.4-16.7,10-24.1,16.1
	c-30,24.6-59.8,49.5-89.4,74.7c-9.8,8.4-20.2,16.8-27.6,27.1c-5.1,7.1-8.7,17.9-7.7,26.4c4.7,37.9,44.5,55.3,74.5,32.1
	c41.8-32.3,82.6-65.9,122.9-100.1C1776.9,729.5,1782,717,1785.6,711.8z"/>
<path d="M387.9,1731.5c3.3-40,18.3-73.5,56.1-91.8c37.9-18.3,74-11.9,105.8,14.3c41.7,34.2,83.3,68.7,123.1,105.1
	c38.8,35.5,41.1,91.8,8.2,131.6c-33.3,40.4-93.3,51.4-133.6,20.8c-44.6-34-87-70.9-129.2-107.8
	C397.2,1785.1,385.7,1760.8,387.9,1731.5z M439,1738.6c4.6,6.9,9.8,19.6,19,27.5c40.2,34.5,81.2,68.1,122.9,100.9
	c7.6,6,20.5,10.3,29.5,8.5c21.9-4.6,33.6-21.8,40.3-42.6c5.8-18-5.2-28.9-16.6-38.9c-34.2-29.9-68.9-59.3-103.4-88.8
	c-5.8-4.9-12-9.3-18-13.9c-14.4-11.1-29.5-12.6-45.2-2.9C450.8,1698.6,440.5,1713,439,1738.6z"/>
<path d="M2393,1038.9c-15.8-5.9-34.2-8.6-47-18.4c-48.9-37.4-97.5-75.5-143.3-116.6c-32.3-29-36.9-69.6-19.3-107.2
	c18.4-39.3,57.5-64.7,98.6-60.5c15.4,1.6,32.5,7.3,44.5,16.6c47,36.4,93.4,73.7,138,113.1c33.7,29.8,39.8,68.3,22.1,109.4
	C2469.2,1015.5,2437.4,1033.9,2393,1038.9z M2276.2,786c-8.7,2.9-15.2,4.1-20.9,7c-32.7,16.8-38.6,54.6-9.5,80.2
	c39.7,35,81.6,67.5,123.6,99.8c23.6,18.2,44.2,14.7,62.3-7c18.6-22.4,18.4-42.1-4.4-62.2c-40.6-35.6-82.4-70-124.2-104.1
	C2295.1,793.1,2284.4,790,2276.2,786z"/>
<path d="M1126.5,2436.3c-6.8,49.2-13.2,95.2-19.5,141.1c-1.6,11.8-2.8,23.6-4.4,35.3c-5.6,40.6-27.6,67.5-67.7,77.3
	c-42.1,10.3-79.4,2.3-107.9-32.8c-17.8-21.9-25.4-46.3-20.9-75.3c6.9-44.7,11-89.9,17.1-134.8c1.9-13.8,4.8-27.8,9.5-40.8
	c13.9-38.6,48-64.1,88.9-63.6c41.6,0.5,75.5,18.1,95.2,56.1C1123,2410.7,1123.9,2425.5,1126.5,2436.3z M1071.8,2462.7
	c2.3-43.3-14.1-64.8-41.2-67.4c-28-2.6-45.5,11.1-50.3,43c-8,52.4-15.5,104.8-20.8,157.5c-2.9,28.6,12.5,42.9,42.4,45.8
	c30.6,3,43.7-4.8,48.6-34.1C1059.2,2555.4,1066,2502.9,1071.8,2462.7z"/>
<path d="M3330.9,1569.8c-75.4,2.4-125-69.9-102.1-126c22.1-54,42.7-108.6,66.9-161.6c18-39.3,55.5-57,98.7-52.8
	c39.5,3.9,73.9,30.8,83.9,70.3c4,15.8,4.1,35.2-1.2,50.4c-19.4,55-40.7,109.3-63.6,162.9C3397.2,1551.5,3365.9,1570.5,3330.9,1569.8
	z M3328.1,1518.2c14.7-0.5,29.5-4.1,35.9-20.6c21.4-55.2,42.3-110.7,63.1-166.1c6.4-16.9-0.8-29.2-14.6-38.7
	c-26.8-18.5-59.5-11.1-73.1,19.4c-21.1,47.2-39.4,95.6-59.3,143.3C3264.9,1491.5,3295.2,1517.6,3328.1,1518.2z"/>
<path d="M2102.7,2575.3c-1.2-35.5,21.9-63,59.2-80.5c46-21.5,93.1-40.7,138.1-64.1c62.6-32.5,120.4,15.9,135.1,65
	c11.4,38-0.8,77-32.6,101.4c-10.2,7.8-21.4,14.8-33,20.4c-39.8,19.4-79.4,39.5-120.4,56.2c-20.3,8.3-44,15-65.3,13
	C2132.4,2682,2100.5,2638.5,2102.7,2575.3z M2384.3,2528.3c1-43.2-29.1-65.4-66.9-48c-46.1,21.1-91.2,44.3-136.5,67
	c-7.6,3.8-16,8.4-20.7,15.1c-5.2,7.3-9.7,17.6-9,26.2c3.2,35.9,33.7,56.5,66,42.3c50.3-22.1,99.1-47.5,148.4-72
	C2378,2552.6,2385.5,2542.3,2384.3,2528.3z"/>
<path d="M1562.3,504.3c-1.3,31.1-12.6,59-38.6,77.9c-45.3,33.1-90.8,66.2-138.3,96c-46.7,29.3-101.9,16.1-131.4-27.1
	c-30.3-44.4-25-100.3,18.6-133.4c48-36.5,99-69.5,150.4-101.1C1483.5,379.5,1559.1,429.6,1562.3,504.3z M1460.8,455.1
	c-7.1,3.5-18.3,7.7-27.9,14.2c-38.5,26-76.5,52.6-114.6,79.2c-7.1,4.9-14,10.3-20,16.4c-16.6,17.3-16.1,35.2,0.7,58.2
	c15,20.5,29.1,27,49.7,13.8c50.8-32.7,99.6-68.3,149.2-102.8c1.7-1.2,3-3.1,4.4-4.7c11.2-13.1,12-27,3.7-41.9
	C1497.1,470.9,1486.7,456.1,1460.8,455.1z"/>
<path d="M2735.9,1354.1c-34.7,2-57.9-18.8-78.5-43.3c-29.9-35.5-59-71.6-88.4-107.6c-3.4-4.2-6.6-8.6-9.6-13
	c-24.8-36.2-29.3-73.7-5.7-112.2c21.1-34.3,64.4-51.3,107.3-43.8c21.5,3.8,38,15.9,51.2,31.7c34.4,41.5,68.4,83.4,101.1,126.3
	c27.7,36.3,28.7,75.2,5.7,115C2800.5,1339.4,2773.4,1355.1,2735.9,1354.1z M2648.8,1085c-26.1,2.6-42.2,12.2-52.9,30.2
	c-10.4,17.4,0.4,31.6,9.5,44.5c14.3,20.2,30.6,39.1,45.9,58.6c18,23,35,46.7,53.8,68.9c15.5,18.4,35.1,20.2,54.7,7.6
	c23.9-15.3,31.7-39.6,14.6-63.5c-32.5-45.7-67.5-89.6-102.7-133.3C2665.9,1090.6,2654.1,1087.9,2648.8,1085z"/>
<path d="M3009.3,1560c-1,45.5-15.6,78.1-51.6,96.9c-36.8,19.3-73,16.2-106.2-10.1c-41.5-32.8-83.7-64.8-124.4-98.7
	c-30.9-25.7-42.6-60.3-31.5-99.2c10.9-38.2,34.2-66.7,74.6-78.4c20-5.8,38.4-3.3,56.5,5.4c6.8,3.3,13.6,7.1,19.3,11.8
	c44.9,37.1,90,74.2,134.3,112.1C3000.2,1516.8,3010.6,1539,3009.3,1560z M2908.2,1616.1c25-2.2,39.1-12.3,47.6-30.7
	c8.3-18.1,5.7-34.4-9.2-47.1c-42.9-36.4-86.2-72.3-129.7-108c-14.4-11.8-29.7-10.2-45.3-1.3c-35.8,20.6-40.3,54.8-8.4,81.8
	c38,32.2,77.4,62.6,117,92.8C2889.3,1610.6,2901.5,1613.2,2908.2,1616.1z"/>
<path d="M785.7,2215.8c-2.3,75.4-65.7,120.2-131.1,91.7c-55.2-24-108.1-54-159.7-85c-39.1-23.5-46-63.2-37.6-105.5
	c8.1-40.5,34.9-62.9,74.2-72c20.1-4.7,38.8-0.1,56.3,8.8c49,25,98,50.1,146.3,76.3C769.2,2149.2,788.4,2178.6,785.7,2215.8z
	 M736.2,2212.9c0.9-15.1-8.1-24.6-19.7-31.1c-47.1-26.4-94.1-53.1-142.1-77.9c-25.7-13.2-47.1-4.7-59.9,19.5
	c-13.3,25.1-9.2,46.7,15.9,61c45.1,25.6,91,49.9,137.3,73.1C709.3,2278.3,733,2248.4,736.2,2212.9z"/>
<path d="M532.1,1444.7c7.3-17.6,10.5-38.8,22.6-52.1c42.7-47.1,85.7-94.6,133.7-135.9c54.9-47.3,135.5-5.5,153.1,49.9
	c8.4,26.5,6.5,51.1-8.2,74.5c-4.6,7.3-9.4,14.8-15.4,20.8c-40.4,40.5-80.5,81.4-122,120.7c-29.9,28.2-65.1,31.2-102.2,14.2
	C558.1,1520.4,536.2,1485.8,532.1,1444.7z M639.2,1496.4c5.4-2.7,17.8-5.7,25.6-13.4c39.8-39.4,79.3-79.2,117.1-120.6
	c20.5-22.5,17.3-41.6-5.1-61.6c-23.4-20.9-41.5-21.2-65,1.6c-35.6,34.5-70.1,70.1-104.7,105.6c-6,6.1-11.4,13.2-15.2,20.8
	C576.8,1458.3,599.9,1495.7,639.2,1496.4z"/>
<path d="M2409.8,1464.5c-23.4,1.6-42.7-8.4-58.8-23.5c-37.9-35.5-75.2-71.6-112.1-108.1c-9.1-9-17.1-19.6-23.9-30.6
	c-25.6-41.8-16.2-91.9,23-125.7c37-32,86.8-32.5,123.8,1.6c42.2,38.8,82.6,79.5,123.7,119.5c31.1,30.2,35.3,65.6,18.4,104.1
	C2486,1442.5,2453.8,1462.7,2409.8,1464.5z M2462.1,1361.5c-4.3-7.8-8.3-21-16.9-29.6c-38.7-39.1-78-77.8-118.5-115
	c-18.4-16.9-36.1-15.2-55.7,0.1c-22.8,17.8-26.3,47.2-3.6,71c38.8,40.5,80.1,78.6,120.7,117.3c12,11.5,25.9,15,41.5,6.3
	C2447.7,1401.6,2460.3,1387.9,2462.1,1361.5z"/>
<path d="M1033.7,1839.1c-9.9,64.6-17.4,126.9-29.5,188.3c-9.4,47.9-50.8,73-102.7,68.1c-49.4-4.7-86.4-40.1-90.2-86.7
	c-0.6-7.5-0.8-15.2,0.3-22.7c8.3-55.6,15.5-111.3,26.1-166.5c8.4-43.6,42.5-70.5,87.1-74.5c40.1-3.6,81.6,19.3,98.2,55.8
	C1028.6,1813.4,1030.5,1827.5,1033.7,1839.1z M982,1844.4c-2.2-8.2-2.4-20.2-8.2-27.9c-11.5-15.3-28-23.5-48.2-19.4
	c-19.5,4-34,14.1-37.3,35.1c-8.7,54.2-17.1,108.5-25.3,162.7c-2.3,15.2,4.1,27.3,15.9,36.7c29.4,23.4,70.5,11.5,77.6-25.1
	C966.9,1953.8,973.4,1900.3,982,1844.4z"/>
<path d="M1129,2200c0.6-4.7,0.7-14.7,3.5-23.9c15.7-51.7,31.4-103.4,48.5-154.6c13.3-40,42.1-62.7,84.6-63.8
	c44.8-1.1,79.5,17.8,100.3,58.6c8,15.8,11.6,32.5,6.1,50.2c-18.3,58.8-34.6,118.3-55.3,176.2c-15.6,43.6-60.5,65-105.1,55.9
	C1161.3,2288.3,1128.3,2250.8,1129,2200z M1267,2009.3c-17.3-0.1-31.9,9.4-37.8,27.3c-17.1,52.4-33.7,105-48.2,158.1
	c-6.8,25,6.8,43.9,31.5,51.9c26.3,8.5,48,0,57.3-27.1c17.4-51.1,33.6-102.7,47.6-154.9C1326.2,2031.9,1303.9,2008.3,1267,2009.3z"/>
<path d="M2055.3,1049.6c-2.9,34.5-4.1,69.2-9,103.3c-7.5,52.3-50.8,85.6-103.2,82c-50.7-3.5-91.8-44.6-91.3-96.2
	c0.6-55.1,2.2-110.5,8.6-165.1c9.8-83.1,97.7-117.3,163.3-66c22,17.2,32.8,39.8,33.3,67.3c0.4,24.8,0.1,49.7,0.1,74.5
	C2056.5,1049.5,2055.9,1049.5,2055.3,1049.6z M2004.9,1048.5c0.7,0,1.3,0,2-0.1c0-21.6,0.2-43.1-0.1-64.7
	c-0.4-30.6-14-46.5-40.7-47.9c-30.9-1.7-49.3,12.9-52.9,43.5c-2.1,18.2-2,36.6-3.1,54.9c-2.1,33.4-5.6,66.7-6.5,100
	c-0.8,29.4,16.4,47.8,43.5,49.9c29.2,2.3,47.5-13.7,49.2-39.2C1998.4,1112.8,2002,1080.7,2004.9,1048.5z"/>
<path d="M1086.4,1684.3c-73,0-118.2-62-91.9-130.3c20.2-52.3,44.9-102.9,68.6-153.7c17.6-37.7,49.7-53.6,89.7-51.2
	c43,2.6,71.5,27.4,87.5,66.8c7.8,19.2,5.6,38.9-1.8,57c-21.6,53-43.6,105.8-67.2,157.9C1155.2,1666.3,1126.5,1685.2,1086.4,1684.3z
	 M1091.1,1632.9c14.2,2,24.8-7.2,30.9-20.6c23.2-51,46.6-102,67.8-153.9c10.6-25.9,3.1-40.1-21.2-53.2c-27.5-14.8-49.2-9-63.8,21.3
	c-22.4,46.6-43.3,94.1-62.8,142.1C1027.5,1604.4,1048.8,1632.2,1091.1,1632.9z"/>
<path d="M1933.4,3099.3c-74.3,0.5-137.8-46.4-150.9-112.6c-2.4-12.3-2.8-26.3,0.7-38.1c2.1-7.1,12.7-13.9,20.8-16.4
	c10.8-3.4,18.4,4.4,21.6,14.7c2.9,9.2,4.7,18.8,7.3,28.2c12.5,44.1,49.5,72.1,95.8,72.6c50.4,0.5,90.4-27,103.8-71.7
	c2.8-9.3,4.9-18.8,7.3-28.2c3-12.1,10.1-18.7,23.2-17.5c13.2,1.2,22.7,7.6,25.2,21c1.1,6.2,0.1,12.9-0.8,19.2
	C2076.5,3047.7,2015.4,3098.7,1933.4,3099.3z"/>
</svg>
