<?xml version="1.0" encoding="utf-8"?>
<!-- Generator: Adobe Illustrator 24.3.0, SVG Export Plug-In . SVG Version: 6.00 Build 0)  -->
<svg version="1.1" id="Layer_1" xmlns="http://www.w3.org/2000/svg" xmlns:xlink="http://www.w3.org/1999/xlink" x="0px" y="0px"
	 viewBox="0 0 4000 4000" style="enable-background:new 0 0 4000 4000;" xml:space="preserve">
<path d="M1206.4,2191.2c-62.6-11-120.7-20-178.3-31.8c-54.5-11.1-109.2-22.3-162.3-38.4c-173.7-52.9-292.3-218.8-278.2-397.8
	c13.7-173.1,100.7-299.8,261.5-371.7c67.2-30.1,139.2-39.4,211.8-42.9c62.8-3,125.8-3.8,194-5.7c-36.4-76.8-70.1-152-84.6-233.7
	c-14.5-82.2-21.1-164.6-9.2-247.8c12-83.7,34-164.5,70.5-241c35.9-75.4,81-144.6,137.4-206.6c56.4-61.9,119.3-116.4,192.5-156.4
	c309.6-169.2,613.5-153.8,904.2,43.1c167.6,113.5,269.3,277.5,318.5,473.2c49.5,197,19.9,385.3-73.9,570c17.7,1.2,29.7,2.3,41.7,2.7
	c67.2,2.5,134.5,2.5,201.4,7.9c105.3,8.6,200.7,44.5,280,116.5c175.4,159.2,185.7,430.5,27.1,592.9c-41.4,42.4-91.9,69.7-146.7,89.5
	c-72.4,26.1-148.2,38.7-223.6,52.2c-44.2,7.9-88.5,15.6-133.4,23.5c0,11.8-1.4,20.2,0.2,28c33.4,159.4,67.2,318.8,114.7,474.7
	c13.4,44.1,29.7,87.6,47.7,130.1c28.7,67.6,76.8,116.8,145.8,144.9c27.2,11.1,53.8,24.1,79.2,38.7
	c103.5,59.8,155.1,153.9,159.8,269.7c5.8,143.1-51.3,259.9-170.6,342.6c-94.9,65.7-202.4,101-314.1,125.3
	c-84.4,18.3-168.7,19.9-252.8-2.7c-111.2-29.8-204-89.8-276.9-177.5c-66.4-79.9-127.3-164.5-191.5-246.3
	c-23.9-30.5-47.8-61.9-75.9-88.2c-40.9-38.3-60.1-36.2-96.1,7.1c-38.2,46.1-74.3,94-110.9,141.4c-41.7,54.1-82.5,108.9-124.7,162.6
	c-54.5,69.3-118.3,127.9-198.9,166.4c-100.9,48.2-206.4,62.7-316.3,44.4c-117.3-19.5-228.1-58.1-328.6-122.3
	c-127.9-81.6-194.1-199.3-190.3-351.4c2.9-118.4,54.5-212.1,159.3-272.5c23.6-13.6,48-26.4,73.4-36.2
	c76.3-29.5,129-82.4,156.5-158.6c23.1-64.1,43.6-129.3,63-194.7c37.9-127.9,67.9-257.9,93.2-388.9
	C1204.1,2215.5,1204.7,2205.2,1206.4,2191.2z M1156.8,1377.4c-36.7,1.8-87.2,3.3-137.5,6.9c-107.2,7.7-199,49.1-272.1,129
	c-157.1,171.9-103.4,460.9,139.9,539.8c77.4,25.1,157.9,34.1,237.2,49.6c40.1,7.8,80.8,14.1,120.1,25.2c34.5,9.7,38.9,20,36,55.7
	c-0.8,10.4-2.3,20.9-4.3,31.2c-31.6,165.2-72.3,328.3-120.4,489.3c-17.4,58.2-39.6,115.2-63.9,170.9
	c-30.6,70.2-82.9,120.2-154.2,150.2c-30,12.6-60,25.8-87.8,42.6c-93.4,56.3-131.2,142.7-122.7,248.3c8.2,102.3,57.7,183.8,142.9,241
	c104.7,70.3,220.8,111.8,346.3,124.9c125.3,13.1,238.2-19.6,333.8-101.8c39.5-34,74.6-74,107.2-115
	c65.3-82.2,126.9-167.5,191.4-250.4c19.2-24.7,41.7-47.6,65.8-67.5c36-29.7,77.3-33.1,117.1-7.7c21.8,13.9,43.1,31,59.1,51
	c57.7,72.1,113.9,145.6,169.2,219.6c44.1,59,88.1,117.8,144.7,165.9c93.3,79.4,201.4,115.1,323.4,106.8
	c110.7-7.5,214.1-42.3,312.1-92.1c102.9-52.3,172.5-132.3,192.3-249.7c19.3-114.4-33.8-242.1-157.6-292.6
	c-10.7-4.4-21-9.6-31.9-13.7c-95-35.2-156-104.5-193.3-195.8c-19-46.6-36.9-94.1-49.7-142.7c-31.4-118.8-60-238.3-88.7-357.8
	c-12.7-53.1-23.5-106.6-33.5-160.3c-5.6-30,3.1-42.4,31.8-52.2c9.9-3.4,20.1-6.1,30.4-7.9c54.8-9.7,109.6-19.1,164.4-28.6
	c69.4-11.9,138.6-25,204.1-51.8c75-30.6,131.5-81,165.6-155.8c61.4-134.7,20.8-279.1-63.5-372.6c-72.9-80.8-166.5-119.7-273.4-125.6
	c-87-4.8-174.3-4.8-261.5-7c-13.7-0.3-27.4,0.6-41-0.8c-26.5-2.8-37.1-19.5-26.9-44c6.8-16.4,15.6-32.2,25.4-47
	c64.5-98.3,95.8-207.7,103.2-323.6c12.6-196.3-50.8-368.7-175.7-518.2C2332.3,170.1,1939.4,95.1,1625,262.8
	c-102.9,54.9-189.1,129.9-256,224.8c-160.5,227.9-189.8,470.8-74.5,727.2c17.1,38.1,41.6,72.9,61.6,109.8c16,29.5,5.1,48.8-28.1,52
	c-9.4,0.9-18.9,0.8-28.4,0.8C1256.7,1377.5,1213.6,1377.4,1156.8,1377.4z"/>
<path d="M2665.8,929.1c-1.5,140.7-41.1,269-125.7,382.3c-11.3,15.1-24.8,28.5-37.5,42.5c-8.5,9.3-17.9,17.8-26,27.4
	c-9.4,11.1-21.4,22.2-14.4,38.9c7.3,17.3,23.4,19.4,39.6,19.8c98.8,2.4,197.5,4.2,296.3,7.3c69.2,2.2,138.8,2,206.8,18.3
	c109.5,26.1,185.8,89.4,220.5,198.7c34.7,108.8-8.2,240.3-118.9,296c-53.1,26.7-109.8,41.9-167.6,53
	c-79.3,15.3-159.3,27.3-238.3,44.2c-71.1,15.2-99.6,55.8-91.5,127.4c5.5,49,13.3,98,24.5,146c31.1,132.9,63,265.7,97.7,397.8
	c21.7,82.8,58.5,159.9,106.9,230.5c36.2,52.8,84.3,93.4,142.9,120.4c22.9,10.6,45.9,20.9,69,31c112.1,48.9,144.9,167.2,110.6,266.3
	c-17,49.2-46.8,88.7-87.9,120.3c-51.6,39.6-111.4,62.7-171.4,85.5c-52.3,19.9-106.6,33.7-162.3,37.1
	c-90.6,5.5-175.1-15.9-250.4-68.4c-58.7-40.8-102.9-95.9-146.3-151.3c-52.5-67-102.6-135.8-155.2-202.7
	c-27.2-34.6-56.7-67.7-86.8-99.8c-24-25.6-52.6-45.2-88.2-52c-42-8-82.4-4.3-116.3,24.1c-23.2,19.4-46.8,39.6-65.4,63.2
	c-73.4,93.3-144.4,188.4-217.3,282.1c-34.8,44.7-68.5,90.2-114.9,124.7c-92.8,68.9-195.6,94.4-309.2,75.1
	c-94.1-16.1-182.4-48.8-264.4-97.9c-58.1-34.8-98.2-84.1-119.9-148.8c-30.4-90.6,2.1-189,82.5-240.4c24.6-15.7,50.9-30,78.3-40.1
	c99.9-36.6,160.8-110.9,203.5-203.8c37.8-82.4,65.8-168.4,87.5-256c33.5-135.5,64.2-271.7,94.9-407.8c4.8-21.2,5.3-43.9,4.6-65.8
	c-1.4-44.4-24.8-76.7-67.5-88.7c-40.3-11.3-81.7-19.1-123-26.2c-81.7-14.2-164.1-24.7-243.7-49.4c-123.1-38.1-190-123.4-194.1-246.6
	c-3.1-93.6,40.4-170.3,115.1-227.4c42.7-32.6,91.6-52.8,145-56.4c95.3-6.3,190.9-9.6,286.3-13.7c59.8-2.6,119.7-4,179.6-6.4
	c16.7-0.7,36.5-0.4,44.4-17.8c8.3-18.2-7.2-31.8-18.5-43.6c-87.8-92.5-141.6-202.3-168.9-326c-29-131.7-15.1-259.9,38.5-382.4
	c104.2-238.3,289-376.7,544.9-409.4c250.8-32,461.7,54.9,624.6,248.5C2608.9,616.1,2668.1,769.1,2665.8,929.1z M2784.8,1476.3
	c-43.1,0-79.8,0.6-116.4-0.1c-56.7-1.1-113.5-2.4-170.2-4.9c-30.3-1.3-54.8-13.3-66.6-44.1c-11.2-29.1,5.4-47.7,23.3-66.5
	c19.5-20.6,40-40.5,57.2-62.9c70.4-91.3,110.7-193.9,119.6-309.8c14-180.7-30.6-344-152-478.8c-157.8-175.3-358.1-249-592.6-217.4
	c-200.1,27-355.3,130-464.4,298.8c-157.5,243.6-105.7,551.2,44.6,724.4c17.9,20.6,35.7,41.5,51.7,63.6
	c28.2,38.9,11.1,81.8-35.4,90.5c-12.3,2.3-25.1,2.6-37.7,3c-75.6,2.1-151.3,3.9-226.9,6.1c-13,0.4-26,2.7-43.6,4.7
	c9.7,17.4,16.8,29.9,23.8,42.6c32.9,60.1,27.9,103.5-17.9,155.4c-19.9,22.6-20.4,23-2.2,47.5c22.5,30.3,31.9,63,24.6,100.7
	c-6,30.5-21.4,54.8-45.4,73.3c-15.1,11.7-20.5,25.8-17.4,44c1.4,8.3,2.3,16.7,4.1,24.9c7.3,33.1,11.9,36.8,45.1,42.8
	c32,5.8,64.3,10.8,95.6,19.3c56.1,15.3,89.8,53.3,99,110.5c3.2,20.3,2.6,42.4-1.7,62.5c-24.3,114-49.3,227.9-75.9,341.4
	c-27.6,117.7-60.6,233.9-111.2,344.3c-2.1,4.6-2.9,9.7-2.5,8.4c17.7,26.8,35.8,47.8,46.2,72c10.5,24.4,13.5,52,20.1,79.9
	c24.8-2.4,47.6-4.7,70.5-6.9c55.8-5.4,101.1,25.6,116,80c4.2,15.2,6.4,30.8,9.6,46.3c5.4,25.6,10.8,28.5,37,25.4
	c23.9-2.8,48-5.2,72-5.1c43.2,0.1,72.4,23.9,93.4,59.7c4.6,7.8,8.9,15.7,15.3,27.1c11.7-12.9,21.3-22.4,29.6-32.8
	c35.2-44.5,69.7-89.6,105.2-133.8c14.4-18,29.7-35.7,46.8-51c68.5-61.4,153-67.1,228.7-15.5c18.1,12.3,35.6,26.5,50.2,42.8
	c34.2,38.4,66.7,78.4,99.4,118.1c17.1,20.8,33.1,42.5,49.4,63.5c3.9-2.3,6.2-2.9,7.4-4.4c5.2-6.6,10.5-13.2,14.9-20.3
	c28.2-45.3,69.9-61.2,121.3-56.3c14.6,1.4,29.2,3.5,43.9,4.4c29.4,1.8,36.6-3.6,43.8-32.7c3.3-13.2,5.2-26.8,9-39.9
	c15.5-53.4,54.4-81.9,109.7-79.8c14.5,0.6,29,3.8,43.3,6.8c28.9,6,34.8,2.2,40-27.4c0.9-5.2,0.9-10.5,2-15.6
	c6.2-30.2,14.4-60.5,37.8-81.5c15-13.4,11.3-23.1,5.4-38.1c-23.6-60.6-49.6-120.7-67.3-183c-29-102-53.6-205.3-77.4-308.6
	c-15.8-68.5-30-137.7-39.2-207.3c-11-83.4,34.6-142.1,117.3-159.3c26.7-5.5,53.7-9.7,80.7-13.6c20.7-3,35.2-12.5,41.2-33.3
	c1.7-6,4.2-11.9,6.3-17.8c13.6-38.3,13.6-38.4-16.2-64.5c-5.5-4.8-11-9.8-16.1-15.1c-41.1-42.8-46-90.7-12.8-140.2
	c31.3-46.8,28-39.2-2.5-76.9c-37.5-46.3-46.1-95.5-12.2-148.3C2770.9,1505.3,2776.6,1492,2784.8,1476.3z M2860.7,3043.4
	c-2.8,20.5-4.6,36.9-7.4,53.1c-10.3,60.9-55.4,100.3-117.3,102.3c-16.8,0.5-33.6-0.6-50.4-0.8c-11.3-0.1-22.6,0-35.8,0
	c-3.6,15.8-6.6,28.9-9.5,41.9c-13.7,62.4-56.2,97.9-120.4,99c-17.7,0.3-35.5-3.3-53.2-3.6c-11.2-0.2-24.2-0.9-33.5,4
	c-32.9,17.5-41.6,76.7-16.1,104.7c16.3,17.8,33.5,34.7,51.1,51.3c82.6,77.5,181,109,292.4,93c88.9-12.8,173.3-42.1,251.4-87.1
	c25.2-14.5,48.8-32.9,70.4-52.4c44.8-40.5,63.8-93.8,62.1-152.6c-1.9-67.5-29.9-121.6-94.1-151.8c-15.2-7.1-30.5-14.1-45.9-20.6
	c-45.4-19.3-91.1-38-127.9-72.7C2873.9,3048.5,2869.5,3047.5,2860.7,3043.4z M1111,3048.9c-65,32.5-126,62.5-186.5,93.3
	c-79,40.3-113.7,116-94.8,202.5c14.2,65.1,55.4,109.8,108.7,144.3c68.5,44.4,144,72.5,223.3,90.8c132.4,30.7,249.6,1.5,350.1-90.5
	c60.3-55.3,47-44.5,38.4-114.1c-0.1-1-0.4-2.1-0.6-3.1c-5.4-23.6-9.5-27.6-34.1-27.7c-23.1-0.1-46.2,2.2-69.2,1.9
	c-55.3-0.9-98.2-32.6-116.3-84.9c-3.4-9.9-5.8-20.2-8.8-30.2c-8.4-27.7-11.6-30.1-39.6-29.7c-13.6,0.2-27.3,0.4-40.9,0.8
	c-55.8,1.7-110-39.5-118.6-100.5C1119.6,3084.4,1114.9,3067.4,1111,3048.9z M2982.1,1971.9c58.4-13.6,110.9-30.9,153.7-68.8
	c52.7-46.7,79.5-105.9,72.1-176.4c-9.2-87.9-51-157.7-130.5-199.2c-35.8-18.7-76-29.1-114.5-42.6c-5.2-1.8-11.8,0.3-15.7,0.5
	c-9.8,19-17.5,36.1-27.1,52.2c-29.4,49.2-29.7,49.1,11.6,92c33.9,35.3,38.5,82.5,11.3,123.5c-6.9,10.5-15.6,19.8-22.8,30.1
	c-11.5,16.4-11.4,23.6,1.7,39.1c8.1,9.6,17.5,18,26.5,26.8c23.8,23.1,37.3,50.1,33.7,84.4
	C2981.1,1944.8,2982.1,1956.2,2982.1,1971.9z M975.4,1972.3c0.9-1.8,2.4-3.6,2.7-5.5c0.5-4.1,0.7-8.4,0.5-12.5
	c-1.5-40.2,12.5-73.9,42.1-101.2c7.7-7.1,15.1-14.7,22.1-22.4c17.1-18.9,17.2-23.2,2.5-43.3c-9.9-13.5-20.6-26.6-29.1-41
	c-19-32.2-17.1-64.4,4.7-94.5c9.8-13.6,21.3-25.9,32.5-38.4c17-19.1,17.6-23.8,4.3-43.6c-17.4-25.8-34.9-51.6-53.3-78.8
	c-51-5.2-146.5,41-190,94.2c-41.7,51.1-60.9,109.4-55.3,175.6C768.5,1871.2,848,1947.5,975.4,1972.3z M1586.2,3401.4
	c22-28.7,40.5-51.2,56.7-75.1c4.6-6.7,5.6-18.9,3-26.9c-19-58.1-48.7-83.9-105-78c-21.9,2.3-44,4.1-66,4.5
	c-28.1,0.4-40.3-8.9-47.5-36.1c-4-15.2-5.6-31-8.2-46.5c-9.1-55.8-42.7-78.5-98.8-67.2c-15.4,3.1-31,6.3-46.6,6.9
	c-32.1,1.2-46-11.3-50.7-43.2c-2.3-15.6-1.9-31.8-6.3-46.7c-4.3-14.6-11.2-29.4-20.5-41.2c-10.6-13.4-21.4-12.5-31.3,0.7
	c-12.6,16.8-24.2,34.4-34.2,52.8c-3.3,6.1-3.8,18.1,0.1,22.9c14.2,17.9,14.9,38.7,17.4,59.4c6.9,55.9,40.6,85.9,97.4,86.1
	c16.8,0.1,33.6-2.2,50.3-2c29,0.3,39.6,8.6,47.8,36c3.9,13.1,6.5,26.6,11,39.4c15.1,43.5,47,66.2,92.6,66.1
	c23.1-0.1,46.2-1.9,69.3-1.8c29.9,0.2,43.7,10.3,53.8,38.7C1575.5,3364.1,1579.2,3378.3,1586.2,3401.4z M2369.7,3389.3
	c10.8-23.5,17.6-38.7,24.8-53.7c12.9-26.9,33.7-38.6,63.8-34.5c20.8,2.8,41.8,5,62.7,5.3c49.6,0.7,76.3-19.7,89.5-67
	c3.4-12.1,5-24.8,8.5-36.8c8.4-28.5,17.9-35.7,47.3-35.9c21-0.2,42,1.1,63,0.7c62.2-1.1,92.6-30.6,96.5-92.2c0.9-14.6,0.3-30,5-43.5
	c6-17.2,3.7-30.2-8-43.3c-6.9-7.8-11.8-17.4-18.7-25.3c-7.1-8.2-15.4-15.2-22.9-22.5c-22.4,19.8-25.3,24.9-30.2,53.4
	c-2.9,16.6-4.2,33.4-7.7,49.8c-6.4,29.6-18.4,38.2-49,35.6c-20.9-1.8-41.6-6.2-62.5-7.1c-45.8-1.8-70.2,17.4-81.5,61.9
	c-4.4,17.3-7.4,35-12.9,51.9c-9.7,30.1-21.6,38.1-53.5,37.9c-10.5-0.1-20.9-2-31.4-2.6c-19.9-1.1-39.8-2.6-59.7-2.6
	c-43.6-0.1-77,55.3-78.9,82.6c-0.3,4.1-0.2,9.2,1.9,12.2C2332.2,3337.3,2349.2,3360.7,2369.7,3389.3z M1039.4,1488.1
	c5.6,11.9,8.2,21.1,13.6,27.9c9.8,12.2,21.6,22.8,32,34.5c24.7,27.8,25,46.6,0.7,74.7c-11,12.7-23.6,24-34.6,36.6
	c-20.1,22.9-23.5,46-8.6,72.4c8.1,14.5,19.6,27.1,30.2,40.1c22.7,27.7,23.1,45-1,71.7c-11.2,12.4-23.9,23.6-36.6,34.6
	c-28,24.1-25.4,55.7-21.5,87.3c0.6,5.1,6.3,12.2,11,13.7c30.6,9.4,61.9,15.9,93.5,19.5c1-4.6,1.5-5.6,1.3-6.5
	c-0.5-3.1-0.7-6.3-1.8-9.1c-18.3-45.8-8.3-81,31.6-112.9c37.3-29.9,39.6-76.1,13.6-116.4c-6.2-9.7-14.2-18.2-20.5-27.9
	c-13.6-20.6-13-31.9,2.6-51.1c8.6-10.6,18.2-20.3,27-30.7c24.4-28.9,27.6-60.4,9.7-93.5c-13.4-24.8-27.9-49-42.3-74.2
	C1106.5,1478.4,1074.6,1478.7,1039.4,1488.1z M2841.6,1999.6c27.9-4.5,51.6-8.5,75.3-12.2c17.6-2.8,27.8-12.6,31.9-30.2
	c8.2-35.4,4.2-66.8-26.8-90.6c-9.1-7-18.4-14.2-26.3-22.5c-25.5-26.5-26.1-49.1-3.1-77.8c9.2-11.5,19.1-22.5,27.1-34.8
	c18.9-29,16.5-51.4-7.2-76.9c-7.9-8.5-16.7-16-24.9-24.1c-39.5-39-39.8-49.5-3.7-91.4c13-15,27.1-29.6,26.3-53.4
	c-25.8-11.3-53.2-7.5-80.1-6.8c-5,0.1-11.4,5.7-14.4,10.4c-11.8,18.6-23.3,37.5-33.4,57c-16,31-12.4,61.2,7.8,89.1
	c9.2,12.7,20.4,23.9,30.7,35.9c16.6,19.4,17.4,29.3,4,50.6c-10.1,16-21.7,31.2-30.4,47.8c-15.1,28.7-13.2,57.3,8.4,82.2
	c13,15,28.1,28.3,42.9,41.5c13.1,11.7,18.5,25.1,13.9,42.2C2854,1955.8,2848.2,1975.8,2841.6,1999.6z"/>
<path d="M2330,859c51.3,1,88.5,39.1,88.3,90.5c-0.2,52.9-37.9,89.2-92.3,88.9c-47-0.3-85.7-39.1-85.8-86.1
	C2240,900.2,2280.6,858.1,2330,859z"/>
<path d="M1636.9,1036.2c-47.9,0.4-87.7-37.1-88.9-84.1c-1.3-50.8,37.6-93.3,86.1-94.1c51.3-0.9,92.8,39.8,93,90.9
	C1727.3,995,1685.1,1035.8,1636.9,1036.2z"/>
<path d="M2088.3,2007.1c-1.1,58.7-44.2,99.8-103.2,98.3c-59.7-1.5-102.2-45.8-101-105.3c1.1-55.3,46.4-100.4,100.2-99.8
	C2043.5,1901.1,2089.4,1948.2,2088.3,2007.1z M1914.3,2002.8c0.2,42.9,31.1,74,73.3,73.8c39.7-0.2,71.6-32.6,71.4-72.7
	c-0.2-39.9-32.1-71.4-72.5-71.6C1944.4,1932.2,1914.1,1961.8,1914.3,2002.8z"/>
<path d="M1985.7,2247.1c59.1,0.9,102.4,45.7,101.6,105.3c-0.8,60-41.2,98.7-102.6,98.4c-57.8-0.3-102.5-45.2-101.3-101.8
	C1884.6,2291.8,1930.4,2246.3,1985.7,2247.1z M1989.4,2278c-43.9-0.7-76.1,30.6-76.5,74.4c-0.3,36.1,32.9,67.7,72.4,68.8
	c39.3,1.1,71.6-29,72.4-67.5C2058.5,2312.9,2027.6,2278.6,1989.4,2278z"/>
<path d="M2087.7,1660.3c0,57.1-44.4,100.4-102.3,100c-56.7-0.4-102.9-46-102.8-101.5c0-59.4,46.6-105,106.4-104
	C2043.4,1555.8,2087.7,1603.1,2087.7,1660.3z M2057.6,1660.9c1.2-40.7-31.6-76.3-70.7-76.8c-38.5-0.5-73.3,33.5-75.2,73.6
	c-1.9,37.8,30.7,70.4,71.7,71.7C2024.2,1730.7,2056.4,1700.9,2057.6,1660.9z"/>
<path d="M1970.1,1119.1c-30.1-1.3-68.5-16-91.5-58.4c-3-5.5-5.4-11.3-7.3-17.3c-3.6-11.1-8.1-24.7,5.1-30.6
	c14.4-6.4,18.9,8,24.4,17.9c24.1,43.1,50.4,57.7,93.7,52.8c30.4-3.4,52.9-18.2,67.4-45.1c3.5-6.4,5-14.3,9.6-19.6
	c4.1-4.7,11.3-9.6,17-9.4c10.5,0.2,13.1,9.7,11.7,18.5c-1.5,9.1-3.6,18.7-7.9,26.7C2069.3,1096.6,2034.2,1119.4,1970.1,1119.1z"/>
</svg>
