<?xml version="1.0" encoding="utf-8"?>
<!-- Generator: Adobe Illustrator 24.3.0, SVG Export Plug-In . SVG Version: 6.00 Build 0)  -->
<svg version="1.1" id="Layer_1" xmlns="http://www.w3.org/2000/svg" xmlns:xlink="http://www.w3.org/1999/xlink" x="0px" y="0px"
	 viewBox="0 0 4000 4000" style="enable-background:new 0 0 4000 4000;" xml:space="preserve">
<path d="M965.5,560.2c62.5-0.1,117.7,12.8,171.4,30.8c98,32.9,195,68.6,292.5,102.9c16.4,5.8,32.9,11.5,49.8,15.5
	c29.3,6.9,54.4-1.1,71.5-26.6c15.1-22.6,29.4-45.8,42.4-69.6c49.6-90.7,97.4-182.4,148.3-272.4c21.4-37.7,46.8-73.6,73.8-107.6
	c54.8-68.9,124.5-111.9,215.5-110.5c85.9,1.3,155.4,37,208.2,104.8c56,72,94.4,153.8,130.2,236.8c31.5,72.9,60.8,146.8,91.3,220.1
	c6.7,16.1,13.1,32.3,21.2,47.7c16.5,31.2,32.1,40.2,66.1,32.7c48.8-10.7,97-24.2,145.3-37.2c114.4-30.8,227.3-68.3,345.3-83.9
	c36.3-4.8,74.5-6.4,110.5-0.7c115,18,198.7,115.1,206.1,232.6c4.1,65.3-6.7,128.7-29.9,189c-32.7,85.3-69.5,169-104.8,253.3
	c-13.4,32.1-27.9,63.8-41.2,96c-6.2,15-11.8,30.5-16.1,46.2c-12,43.8-6.8,60.9,30.3,86.9c27.6,19.3,57.2,35.7,86.3,52.8
	c91,53.5,182.7,105.8,272.9,160.6c28.6,17.4,54.7,39.5,79.7,62c43.4,39.2,68.8,89.7,80.3,146.5c17,83.7-8.9,154.7-67.9,214.6
	c-34.8,35.4-76.7,61.5-121.6,81.2c-94.6,41.5-190.4,80.4-285.5,120.8c-28,11.9-55.7,24.7-83,38.2c-20.7,10.2-30.9,26.6-24.7,50.8
	c12.7,49.5,24.3,99.3,37.7,148.6c24.3,89.3,51.3,177.8,73.6,267.5c14.7,59.1,20.5,119.4,12.2,181.3
	c-16.5,122.7-117.2,201.7-236.4,208.1c-72.2,3.9-140.7-14.4-207.6-37.4c-94.6-32.6-188-68.8-282-103.2c-14.3-5.2-28.9-9.8-43.7-13
	c-33-7.1-54.5,1.3-72.5,29.9c-12.7,20.2-23.6,41.7-34.5,63c-50.1,97.8-98.1,196.8-150.9,293.2c-22.8,41.5-51.6,81.2-84.1,115.7
	c-115.2,121.9-292.8,109.6-394.2-24.5c-37.7-49.9-65.6-105.4-90.5-162.2c-35.8-81.7-69.3-164.5-104.1-246.6
	c-8.5-20-17.5-39.9-28.1-58.8c-14.2-25.2-36.3-37.3-65.6-32.2c-14.9,2.6-29.8,6.1-44.3,10.6c-102.8,32.1-205,66-308.3,96.3
	c-63.8,18.7-129.3,30.2-196.6,24.4c-119.6-10.4-207.9-93.9-226.6-212.8c-8.3-52.8-4-104.8,10.7-155.1c23.8-81.3,50.8-161.8,78-242.1
	c16.1-47.4,35.5-93.6,52.8-140.6c30.8-83.6,24.1-103.1-55.1-146.3c-81.2-44.3-164-85.8-245-130.4c-48.5-26.8-96.1-55.7-142.1-86.5
	c-57.6-38.7-101.1-90.1-118.8-158.6c-25.9-100.8-5.1-190,72.9-262.2c45.2-41.8,98-72.7,152.6-99.8c90.6-45,182.6-87.1,273.9-130.8
	c15.7-7.5,31.1-15.7,45.9-24.8c26.3-16.3,35.9-40.5,28.2-70.2c-10.4-40-22.1-79.7-33.3-119.5c-26-92.1-53.8-183.8-77.4-276.6
	c-17.8-69.9-25.6-141.7-11.1-213.6c14.8-73.6,49.3-134.4,116.9-172.6C872.1,569.9,915.9,559.6,965.5,560.2z M2995.3,3208.3
	c27.5-5.7,56.6-7.3,82.1-17.8c70.8-29,106.5-85.8,106.7-161c0.1-44.2-5.4-89.4-15.9-132.4c-22.5-91.9-50.3-182.5-75.1-273.9
	c-12-44.1-24.1-88.2-32.3-133.1c-10.8-58.9,12-105.3,63.5-135.1c29-16.8,60.1-30.7,91.6-42.3c100.2-36.8,199-77,294.1-125.3
	c28.7-14.6,56.7-33.1,80.2-55c49-45.4,62.2-103.1,45.5-167.4c-9-34.7-28-64-54.6-87.5c-24.5-21.5-49.1-43.7-76.7-60.7
	c-73.2-45.1-148-87.5-222.1-131.2c-45-26.5-90.7-51.9-134.3-80.7c-43.1-28.5-63.8-70.7-60.1-122.9c1.5-20.4,4.6-41.3,11.1-60.6
	c10.7-31.9,24.4-62.8,37.4-93.9c41.1-98.4,83.5-196.2,123.4-295.1c17.1-42.5,26.4-87.6,24.9-134c-3.5-103.8-71.1-177.5-171.3-183.6
	c-30.1-1.8-61.3,0.8-90.8,7.1c-71.2,15.2-142,32.8-212.4,51.2c-80,20.9-159.1,45.3-239.2,65.2c-65.3,16.2-112.1-5.5-145.8-63.7
	c-13.1-22.5-24.6-46.2-34.6-70.2c-29.8-71.3-57.4-143.5-88-214.5c-34.9-81-71.7-161.1-131.4-228.2c-31.9-35.8-69.8-57.4-118.2-61.5
	c-63.2-5.4-116.6,16.5-159.6,59.9c-28,28.4-53.2,61-73.3,95.5c-56.9,97.8-110.5,197.5-165.6,296.4c-14.3,25.6-27.6,52.2-44.7,75.9
	c-35,48.4-82.2,70.7-142.2,55.1c-28.3-7.4-56.4-16.7-83.6-27.4c-99.3-38.9-198.5-78.3-301.8-105.6c-44.3-11.7-89.1-20.9-135.4-17.1
	c-81.9,6.7-143.8,63.6-159.2,144.2c-9.6,50.2-5.1,99.8,2.5,149.4c14.1,91.9,43.7,179.6,71.2,267.9c17.5,56,33.7,112.7,45.4,170.2
	c12.3,60.2-10.5,109.1-61.8,143.4c-14.4,9.7-29.9,17.9-45.5,25.6c-82.9,41-166.8,80.2-248.8,122.9c-51,26.5-101.4,55.3-148.5,88.2
	c-49,34.3-73.4,84.4-72.3,146c1.2,71.2,35,124.6,89.7,166c26,19.6,53.5,37.8,82,53.4c88.8,48.5,178.7,95.1,267.7,143.2
	c28.7,15.5,56.6,32.5,83.9,50.3c49.5,32.4,65.9,79.7,54.9,136.1c-6,30.8-15.6,61.1-25.8,90.9c-34.1,99.9-70.5,199-103.2,299.3
	c-16.5,50.6-27,103.2-23.7,157.4c5.4,88.6,59.2,157.7,139,170.9c31.6,5.2,65.4,4,97.4-0.4c99.6-13.8,194.6-45.6,289.5-77.8
	c54.5-18.5,109.5-36.1,165.1-50.9c53.7-14.3,97.6,7,127.3,51.3c21,31.3,36.8,66.5,52.1,101.2c40.5,91.6,79.1,184,119.2,275.7
	c19.3,44.1,44.6,85.1,77.6,120.2c50.4,53.5,111.9,73.8,184,52.8c39.9-11.6,73.2-35,97.6-68.1c28.9-39.4,57.6-79.6,80.5-122.5
	c44-82.5,83.4-167.5,125.8-251c15.2-30,31.2-60.1,51.1-87.1c34.3-46.5,81.3-63.8,138.3-47.9c16.7,4.7,33.1,10.8,49.4,16.7
	c83.8,30.8,167.3,62.1,251.3,92.4C2863.3,3185.7,2927.4,3202.2,2995.3,3208.3z"/>
<path d="M3020,1349.6c-37.8,28.4-81.7,23.1-124.7,22.2c-44.6-1-89.2-3.2-133.8-4.8c-58.3-2.1-76.6,8.4-111.5,66
	c16.7,0.6,31.5,1.3,46.4,1.7c26.1,0.7,52.3-0.1,78.3,2.2c39,3.4,66.7,33.8,65.1,68.6c-1.6,33.3-30.2,61.2-68.1,61.6
	c-53.3,0.6-106.7-1.8-160-2.7c-23.9-0.4-47.9-0.3-71.9-0.6c-25.3-0.3-45.6,9-63.9,27c-83.1,81.6-167.1,162.4-250.8,243.5
	c-20,19.4-40.2,38.7-65.2,62.9c14.2,1.5,21.2,2.7,28.2,2.9c124.1,2.6,248.2,4.5,372.3,7.9c29.1,0.8,51.6-6.6,72.8-27.6
	c54.9-54.3,111.7-106.7,168.2-159.5c11.1-10.3,23-20.3,36-27.9c26.1-15.4,53.4-11.9,75.4,7.6c22.6,19.9,30.8,46.2,16.3,73.5
	c-11.4,21.6-28.2,41.1-45.5,58.6c-18.3,18.5-40.2,33.3-60.1,50.2c-7.9,6.7-14.9,14.6-25.7,25.4c35.3,8.4,65.5,7.3,95,3.4
	c10.3-1.4,20.3-11.9,28.7-19.9c33.1-31.5,65.1-64.2,98.5-95.5c16.6-15.5,34.7-29.8,53.3-42.9c19.5-13.7,39-9.8,57.2,4.5
	c37.1,29.3,42.3,67.3,13.3,105.3c-12.3,16.1-26.4,30.7-43.1,49.8c13.7,1,22.9,1.5,32,2.4c19.5,1.8,39.4,2,58.4,6
	c31.3,6.6,49,32.3,47.9,64.9c-1.2,31.9-18.5,53.8-50.2,58.8c-26.7,4.2-54,5.1-86,7.8c5.5,8.6,9.1,15.5,13.8,21.5
	c13.8,18.1,29.8,34.8,41.6,54.2c14.7,23.9,4.8,67.8-16.6,87c-20.1,18.1-51.2,17.8-78.3-1.7c-10.5-7.6-20.5-16.3-29.4-25.8
	c-31.2-33.4-62.5-66.8-92.5-101.2c-42.6-48.8-42.2-49.3-107.6-48.2c-18.3,0.3-36.6,2.1-59.8,3.6c7.1,9.3,10.8,15,15.3,20
	c21.9,24.2,44.7,47.7,66,72.4c11.3,13.1,21.7,27.5,29.6,42.8c14.7,28.7,10,54.6-10.9,74.7c-20.8,20-53.1,26-78.4,10.4
	c-17.2-10.6-32.6-25.4-46-40.8c-38.6-44.3-75.8-89.8-113.6-134.8c-2.8-3.3-5.8-6.5-8.5-10c-23.4-30.6-52-45.3-92.7-41.8
	c-42.1,3.6-84.8-0.4-127.3-0.6c-10.7-0.1-21.5,1.5-36,2.6c5.2,10.3,9.7,18.2,13.3,26.5c6.5,14.7,1.2,27.5-7.3,39.6
	c-8.7,12.4-21.1,14.6-34.8,12.3c-20.8-3.5-31.8-21.2-26.6-44.4c2.3-10.3,8-19.9,12.2-29.9c-22.9-12.1-133.5-15.7-177.1-4.9
	c13.1,13,25.1,24.8,37,36.9c82.5,83.8,165.6,167,247,251.8c21.5,22.4,45.3,31.3,75.2,32c79.5,1.8,158.9,4.7,238.3,7.6
	c15.2,0.5,30.6,1.5,45.3,4.8c32.6,7.4,51.5,34.3,49.3,67.3c-2.3,35-21.8,57.4-57.7,58.8c-43.4,1.8-87-0.7-130.5-1.3
	c-12.5-0.2-25,0-43.3,0c29.4,41,54.1,70.1,105.6,66.1c60.5-4.7,121.7-1.3,182.5-0.6c24.5,0.3,44.3,11.1,56.7,32.8
	c21.7,38.1,2.4,84.4-41.2,95.5c-20.9,5.3-43.1,5.5-64.7,7.9c-8.1,0.9-16.2,1.4-30.2,2.7c19.5,18.7,36.3,32.3,49.9,48.5
	c10.1,12.1,19.4,26.7,23.1,41.7c6.2,24.8-2,47.3-22.3,64.3c-20.5,17.3-44.2,20-67.2,8.8c-17.2-8.4-32-21.9-47.1-34.1
	c-8-6.5-14.3-15-26.5-28c0,23,0.2,38.7-0.1,54.4c-0.3,15.2,0.1,30.6-1.9,45.6c-4.2,31.3-23,49.8-52.6,53.8
	c-31.9,4.3-55.7-8.5-67.3-38.9c-5.7-15.1-9.3-31.5-10.7-47.5c-5-57.5-10.4-115-12.2-172.6c-1.1-32.9-8.9-59.5-37.5-78.1
	c-9.7-6.3-18-14.9-31.4-26.2c-0.6,13.4-2,21.5-1.3,29.3c3.1,34.7,7.1,69.3,10,104c1.5,18.4,2.9,37.1,1.3,55.4
	c-3,35.3-23.9,55.3-58.5,59.1c-34.9,3.8-58.3-11.2-68.3-46.4c-5-17.7-7.2-36.3-9.2-54.6c-8.4-80.1-19.8-160.1-22.9-240.4
	c-1.9-48.7-20.3-81.7-54.4-114.6c-73.7-70.9-143.2-146.2-214.6-219.6c-9.4-9.7-19.8-18.6-31.1-29.1c-10.2,32.9-17,350.8-9.9,415.7
	c7.2-2.4,13.8-5.1,20.6-6.8c20.9-5.2,42.3,7.7,47.9,28.5c5,18.6-7.8,48.4-25.5,50.9c-12.5,1.8-26.2-5.3-42.1-9.1
	c-6.6,26.7-4.1,51.9,17.7,74.7c41.5,43.2,82.7,86.7,122.6,131.3c15.8,17.7,30,37.5,40.9,58.5c16,30.9,7.7,64.5-16.4,82.4
	c-24.4,18.1-57.8,16.1-83.9-7.5c-18.5-16.8-34.6-36.2-51.9-54.3c-8-8.4-16.5-16.4-27.8-27.7c-9.8,29.6-8.4,52.8,8.2,73.8
	c8.7,11,19.2,20.7,29,30.9c25.6,26.7,52.3,52.5,76.4,80.5c14.7,17.1,27.5,36.7,37.6,56.9c12.3,24.8,4.5,47.9-17.2,63.1
	c-32.9,23.1-75.7,20-104.7-8c-10.7-10.3-20.6-21.5-34.3-35.9c-2.1,12.1-3.5,19-4.4,26c-2.1,16.2-3.1,32.5-6.1,48.5
	c-3.2,16.6-1.3,39.4-19.7,45.2c-24.8,7.8-53.2,8-75.7-7.2c-11-7.5-18.1-24.3-21.7-38.2c-6.1-23.7-8.1-48.5-12-73.9
	c-17.1,14.7-32.4,29.5-49.5,42c-23.3,17.1-48.7,17.2-73.7,2.9c-35.4-20.2-44.6-56.3-19.2-88.1c24.4-30.5,52.4-58.2,79.1-86.9
	c14.1-15.1,29.1-29.4,43.2-44.5c37.8-40.3,40.7-51.5,28.8-113.2c-11.9,12.2-22.1,22.7-32.4,33c-19.2,19.3-37.6,39.5-57.8,57.7
	c-24.3,21.8-50.7,22.8-78.1,5.5c-22.6-14.2-30.7-38.2-23.1-69c7-28.6,24.9-50.7,44.5-71.2c44.4-46.4,89.2-92.4,134.8-137.6
	c13.3-13.2,20-26.9,20.2-45.8c1.3-151.3,3.3-302.7,5-454c0.1-9.6-0.8-19.2-1.4-33c-8.7,4.8-15.7,7-20.4,11.5
	c-31.4,30.2-62.1,61-93.3,91.4c-56.9,55.4-112.3,112.4-171.4,165.3c-31.2,28-50.4,57.6-51.6,100.1c-1.2,43.3-6.2,86.5-10,136.4
	c10.9-8.9,16.3-13.6,22-17.8c23.2-17.2,55.1-11,70.9,13.7c13.8,21.7,6.6,51.2-16.2,65.5c-18.5,11.7-37.7,10.3-54-4.7
	c-6.8-6.3-12.5-13.7-22-24.3c-3.8,30.1-7.1,55.7-10.3,81.2c-0.8,6.5-1,13.1-2,19.5c-5.9,36.8-22.3,53.9-53.1,55.6
	c-36,2-64.5-15-70.3-49.6c-5.1-30.6-2.7-62.6-2.2-94c0.4-24.4,3-48.8,5-78.5c-36.1,18.4-59.9,36.2-61.6,74.9
	c-2.6,59.8-7.8,119.5-12.1,179.2c-0.8,11.9-1.2,24-3.7,35.7c-7.4,34.4-35.2,54.7-71.6,53.7c-30.1-0.9-52.5-21.4-57.2-56.8
	c-3.7-27.8-3.5-56.1-5.4-91.2c-13.9,13.4-24.7,23-34.5,33.3c-13.8,14.5-28.4,26.1-50.1,26.9c-27.9,1-48.7-9.7-62.6-33.4
	c-14.3-24.5-16.3-50.2,0.5-73.8c13.2-18.5,29.1-35.2,45-51.5c7.3-7.5,17.6-12.3,26.5-18.3c-1.9-3-3.8-5.9-5.7-8.9
	c-21-1.9-42.1-2.9-62.9-5.8c-30.8-4.3-55.9-16.4-66.2-49.5c-13.8-44.3,12.9-86.6,59.6-87.4c57.7-1,115.9-3.1,172.9,3.9
	c56.8,6.9,90.3-18.8,121.5-64.7c-10.6-1.5-18.3-3.1-26.1-3.6c-42.3-2.5-84.7-3.8-126.9-7.5c-12.4-1.1-25.4-6.8-35.9-13.9
	c-22.5-15.1-33.1-47-26.6-72.4c6.4-25.3,34.3-48.9,61.8-50.9c15.1-1.1,30.5-0.1,45.7,0.5c69.6,2.8,139.2,5.1,208.8,8.9
	c30.4,1.6,53.8-8,75.6-29.8c84.7-84.7,170.9-167.8,256.4-251.6c6.1-5.9,11.7-12.3,18.3-19.3c-10.3-11.8-23.2-9.3-34.1-9.9
	c-77.2-4.3-154.4-7.9-231.6-11.6c-40.2-2-80.5-3-120.7-5.9c-30.2-2.2-55.3,6-77,27.5c-44,43.7-88.4,87.1-133.2,130
	c-18.1,17.3-37.3,33.5-56.8,49.1c-15.7,12.5-34,20-54.6,17.2c-42.8-5.7-68.8-51.4-49.8-91c9.2-19.2,23.5-36.6,38.1-52.4
	c18.4-20,39.5-37.4,59.3-56.1c6.1-5.8,11.8-12.1,18.3-18.7c-50.9-22.3-92.9-15.4-128.4,19.6c-34.9,34.4-69.8,68.8-105.1,102.8
	c-8.6,8.3-17.9,16.1-27.9,22.4c-29.1,18.2-61.9,15-83.9-7.2c-22.6-22.8-27.6-55.4-9.3-83.9c11.6-18.1,27.4-33.5,42-49.6
	c6.3-7,14.2-12.7,25.5-22.6c-11.7-2-18.3-3.7-25-4.1c-25-1.4-50.3-0.3-74.9-3.9c-46.7-6.8-71.4-53.2-52.2-96.4
	c9.5-21.4,26.6-34.3,51-34.6c28.1-0.3,56.2-0.1,89.9-0.1c-8.3-9.5-13.4-15.6-18.8-21.3c-14.1-15.1-29.5-29.1-42.4-45.3
	c-35.9-45.1-13.4-103.4,43.6-114.3c10.6-2,21.5-2.2,34.9-3.4c-3.6-11.3-7.5-21-9.7-31c-4.6-21,5.3-34.3,26.1-36.4
	c21.7-2.2,37.8,10.4,38.5,30c0.7,18.8-7.9,32.2-26.3,40.5c-4.8,2.2-9.9,3.7-16.8,6.2c4,5.9,6.4,10.7,9.9,14.4
	c44.2,46.6,89.8,92,132.4,140c24,27.1,51.3,38.4,86.2,35c8.5-0.8,17-1.5,29.3-2.5c-5-8.4-7.4-15.4-12.2-20
	c-23.4-22.8-47.9-44.5-71-67.5c-13-13-25.6-26.8-35.8-42c-14.4-21.3-11.1-43.9,2.9-64.3c14.5-21,34.3-32.9,61.1-29.9
	c25.3,2.9,44.4,16.7,61.5,34.1c56.6,57.4,113.7,114.2,169.2,172.6c19.4,20.4,40.2,30.6,68.6,31c64.2,0.8,128.4,3.6,192.6,6
	c11.9,0.4,23.7,3.2,35.6,4.1c15.9,1.3,32,1.9,48.8,2.8c-2.2-16-4.8-28.7-5.4-41.5c-0.7-13.3,6.2-26.8,18.8-26.5
	c15,0.3,30.2,7.7,44.5,14c2.4,1.1,1.4,12,0.4,18.1c-0.8,5.2-4.1,10-5.8,15.2c-1.6,5-2.6,10.2-4.9,19.4c26.4,2.5,50.5,4.8,74.7,7.1
	c5.4-16.8-5.5-23-12.5-30.3c-39.8-41.8-79.8-83.3-119.9-124.8c-42.3-43.8-85.7-86.8-126.8-131.7c-24-26.2-52.8-36.8-86.8-38.3
	c-56.6-2.5-113.1-5.3-169.7-8.2c-29.4-1.5-58.8-2.8-88-5.5c-26.9-2.6-46.5-16.1-57-42.3c-19.7-49.2,5.2-88.8,58.3-89
	c44.6-0.1,89.2,2.7,133.8,4.2c8.3,0.3,16.6,0,28.6,0c-15-27.2-30.8-50.3-54.1-66.1c-10-6.7-24.4-9.1-36.9-9.5
	c-50.1-1.4-100.2-1.1-150.2-1.5c-23.9-0.2-48,0.7-71.8-1.1c-37.7-2.9-62.8-32.6-61.6-70.5c1.2-38.4,24.3-61.7,64.6-63
	c32.4-1,64.9-0.2,105.9-0.2c-13.4-14.8-21.4-24.2-30.1-33.1c-16-16.4-32.8-31.9-48.3-48.7c-15-16.3-25.4-35.1-27.2-58
	c-2.1-27.8,8.6-49.3,32.6-62.8c24-13.5,48.9-12.5,70.3,4.8c16.8,13.6,31.4,30,46.1,45.9c10.9,11.7,20.4,24.7,35.5,43.3
	c2-15.8,3.5-23.6,4-31.5c1.4-23.9,0.1-48.2,4.3-71.5c3-16.4,10.5-33.7,21-46.5c16.1-19.6,39.5-26.1,65.1-21
	c26.2,5.2,38,24.3,43.1,47.8c3.4,15.8,4.8,32.3,4.7,48.5c-0.3,51.2-0.4,102.4-3.2,153.5c-2.4,43.5,11.1,78.7,43.5,107.5
	c11.2,9.9,21.2,21.1,36.8,36.8c1.2-16.3,2.2-25.3,2.5-34.4c1.8-51.1,3.4-102.1,5.2-153.2c0.1-3.3,0.6-6.5,1.3-9.7
	c6.9-35.9,29.7-58.9,59.2-59.8c33.4-1,62.8,21,68.1,58.1c4.3,29.8,1,60.7,1.1,91.1c0.3,76.2,0.7,152.3,1,228.5
	c0.1,16.3,7,28.8,18.1,40.5c90.1,94.6,179.9,189.5,270,284.1c6.4,6.7,13.9,12.3,24.5,21.4c2.3-10.7,4.7-16.5,4.8-22.3
	c0.5-130.7-1.1-261.4,2-392c1-41.4-16.5-67.2-45.2-91.1c-5.4,15.2-8.7,30.9-16.2,44.1c-15.4,26.9-47.3,29.2-68.6,6.6
	c-26.7-28.3-20.1-70.4,14.3-88.3c8.5-4.4,18-7,29.8-11.4c-6-7.3-10.9-14.1-16.6-20c-30.2-31.4-61-62.2-90.7-94.1
	c-12.5-13.5-24.4-28.1-33.6-43.9c-17-29.5-12.3-58.7,10.1-80.7c20.9-20.6,49.7-25,78.1-7.9c17.5,10.5,33.1,24.8,47.4,39.5
	c22.7,23.4,43.5,48.7,65.3,73.1c4.9,5.5,10.7,10.3,16.5,15.7c19.4-43.2,13.8-78-16.8-108.9c-41.4-41.8-82.7-83.6-124-125.4
	c-6.1-6.2-12-12.6-17.8-19.1c-48.2-53.9-26.9-96.3,27.2-135.2c12.2-8.8,23.2-3.4,32.5,5c26.8,23.9,53.1,48.3,79.5,72.6
	c7.8,7.1,15.1,14.8,28.7,28.3c0.7-18.9,0.6-30.2,1.6-41.4c1.9-20.5,2.1-41.5,7.5-61.1c10-36.8,38.6-52.5,78.1-46.5
	c32,4.9,52.4,28.9,52.3,64.5c0,24.6-2.7,49.3-4.7,81.3c14.7-13.5,24.9-22.6,34.6-32c11-10.6,20.7-22.6,32.5-32.2
	c37.8-30.9,95.8-19.5,114.2,21.9c9,20.2,9.7,40.6-3.1,59.2c-9.1,13.4-19.8,26-31,37.7c-40.8,42.3-81.3,85.1-123.7,125.7
	c-22.3,21.4-32.1,45.6-31.6,75.5c0.3,17,0.1,34,0.1,56.8c11.5-8.6,18.7-12.7,24.3-18.4c22.9-23.3,45.1-47.2,68-70.5
	c13-13.1,25.8-26.8,40.5-37.7c25.9-19.1,57.3-17.4,81.3,2.2c21.5,17.5,30.2,49.6,17.5,77.2c-7.1,15.5-18,29.8-29.6,42.5
	c-59.9,66.1-120.3,131.8-181.2,197c-14.3,15.3-21.1,31.6-21.2,52.6c-0.9,130.7-2.6,261.3-3.9,392c0,3,1.4,6.1,3.3,13.9
	c9.7-7.7,18.2-13.3,25.4-20.3c64.8-63,129.4-126.2,193.9-189.4c34.2-33.5,67.8-67.7,102.5-100.7c25-23.8,38.1-51.1,38.2-86.6
	c0.2-50,4.1-100,6.3-150c0.3-6.2,0-12.3,0-24.1c-19.5,22-31,49.2-59.3,47c-16.1-1.2-34.1-9.1-46.6-19.5
	c-25.3-21.1-21.3-62.5,5.5-90.2c28.1-29,60.5-25.1,98,12.7c2.4-15.5,3.7-30.3,7.1-44.6c9.4-39.4,38.7-61.2,75.5-57.3
	c34.1,3.6,55.9,27.6,57,67.9c1.3,49-0.4,98-0.7,147c0,8.3,0.7,16.7,1.4,30.7c36.1-31.5,69-55.7,67.1-107.8
	c-2.4-64.1,2.2-128.4,4.3-192.6c1.6-46.3,21.4-68.2,63.3-71.5c35.4-2.7,68.7,24.6,75,63.2c2.4,14.9,2.3,30.3,2.1,45.5
	c-0.2,18.3-1.7,36.7-2.9,61.3c39.4-24.3,62.8-58.8,94.6-86c-5.9-0.4-12.1,0.2-17.6-1.4c-14.4-4.3-25.8-13.3-28-28.6
	c-2.3-15.9,3-30.3,16.7-40.1c13.6-9.7,28.1-6.8,39.2,3.1c11.1,9.8,20.8,21.9,28.4,34.7c7.6,12.8,11.9,27.6,18.5,43.7
	c8.3-4.3,14.6-7.5,22.9-11.8c16.7,24.7,43.3,32.8,71.1,39.6c16.8,4.1,33.5,9.6,49.5,16.5c29.9,12.8,45.2,36.2,45.6,69.1
	c0.4,29.9-5.5,58.8-18.8,85.4c-29.1,58.4-58.7,116.6-89.8,173.9c-16.3,30.1-29.7,60.4-33.1,94.7c-4.8,48.2,9.3,89.2,50.2,116.5
	c33.4,22.3,69.4,40.6,104.1,60.9c42.2,24.8,85.1,48.6,126,75.4c20.6,13.5,38.9,31.6,55.4,50c31.4,35,44,76.2,23.4,120.7
	c-16.4,35.4-12.2,59.2,18.5,87.1c43.9,39.8,40.8,105.5-4.2,144.8c-26.6,23.2-57.9,43.2-90.3,57.2c-65.9,28.4-133.7,52.4-201.2,76.8
	c-81.4,29.3-114.9,84.7-91.8,174.8c14.8,57.8,37.9,113.5,54.5,170.9c15.4,53.2,29.1,107.1,39.5,161.4c7.4,38.4-1.1,75.8-26.7,107.7
	c-17.3,21.6-38.6,34.6-66.9,35.2c-13.9,0.3-27.9,1.6-43,2.5c-1.2,7.9-3.2,14.1-3,20.3c1.2,52.1-38.9,84.1-84.4,85.7
	c-29.9,1.1-61.4-2.4-90-11c-70.8-21.4-140.4-46.4-210.2-70.8c-40.3-14.1-80.6-26.3-124.1-23.6c-48.7,2.9-86.6,25.2-107.5,68.4
	c-21.3,43.9-38.8,89.8-54.7,135.9c-13.6,39.3-27.7,77.8-52,112c-29.9,42.1-68.2,66.7-122,59c-10.8-1.5-18.5,1.5-24.8,11
	c-20.9,31.2-46,57.2-87.5,62.7c45.6,45.6,52.9,99,20.3,131.4c-25.2,25-80.9,24.7-104.6-0.5c-32.7-34.7-25.2-87.5,20.2-127.5
	c-8.1-2.5-14.5-5.1-21.1-6.3c-57.1-10.4-101.9-38.5-126-92.7c-19.4-43.7-36.5-88.4-53.4-133.2c-18.5-48.8-34.7-98.5-53.8-147.1
	c-10.4-26.5-26.5-49.7-51.7-65.6c-36.8-23.3-76.4-26.2-116.2-13.9c-50.9,15.7-100.6,35.3-150.9,52.9
	c-62.7,21.9-125.7,42.7-192.4,49.2c-31.2,3-60.8-2.1-88.5-16.7c-32.4-17.2-50.9-43.3-51.5-80.9c-0.2-9.7-1.2-19.4-2-32.9
	c-13.4-1.1-26-3.2-38.5-3c-73,1.6-102.2-54.6-97.6-104.4c2.9-30.9,11.3-62.3,22.8-91.2c24.6-61.6,53.7-121.4,79.6-182.5
	c18.2-43,37.3-85.5,42.8-133c7.2-61.6-14-109.5-65-143c-32.7-21.4-67.8-39-101.9-58.4c-47.3-26.9-95.7-51.9-141.2-81.5
	c-21.2-13.8-39.5-34.4-53.8-55.5c-25.7-38-25-77.6,4.4-115c9.9-12.6,19.2-25.8,30-40.4c-8.4-8.8-14.8-15.8-21.6-22.5
	c-7.8-7.6-16.6-14.3-23.8-22.3c-52.2-58.2-46.9-129.2,15.2-176.5c24.9-19,52.8-34.8,81-48.7c42.9-21.2,87.5-38.8,130.9-59.1
	c24.6-11.5,49.6-23.1,71.8-38.3c52.8-36.1,74.7-88,62.6-150.3c-8.7-44.6-23.9-88-36.9-131.8c-13.6-45.9-29.8-91.1-41.1-137.5
	c-6.3-25.9-8.7-54.1-6.1-80.6c4.3-43.4,28.8-74.2,71.4-88.7c8-2.7,15.8-6.1,24.8-9.7c-1.4-25.1-3.7-48.8-3.9-72.5
	c-0.4-46.4,25.3-83.9,69.1-100.3c31-11.7,63.9-18.1,96.1-8.6c59.4,17.4,118.1,37.3,176.7,57.1c42.2,14.2,83.2,32.4,126,44.4
	c80.3,22.6,138.5-0.2,181.4-70.7c27.2-44.6,49.4-92.1,76.1-136.9c28.3-47.6,57.1-95.1,89.6-140c24.4-33.7,56.9-59.2,100.3-68.2
	c42.1-8.7,74.8,4.2,101.5,36.2c19.5,23.5,19.9,24.3,44.1,9.8c28.5-17.1,56.2-13.5,83.7,1.1c26.8,14.3,44.6,37.7,60.6,62.7
	c43.6,68.3,73.3,143.2,103.1,218c12.1,30.3,23.9,60.8,37.2,90.5c6.6,14.8,15,29.1,24.8,42c33.5,44.1,78,63.4,132.2,47.9
	c57.4-16.5,113.9-36.6,170.6-55.5c73.3-24.4,146.6-48.7,223.2-61.3c27.9-4.6,54.3-2.3,78.9,12.2c19.3,11.4,35.2,26.4,40.2,49.2
	c5.7,25.3,9.8,50.9,15.1,79.4c-15.3,3.9-28.1,7.1-44.5,11.3c1-20.5,2.2-36.5,2.5-52.5c0.8-43.5-24.1-70.3-67.8-69.1
	c-23.7,0.7-48,4.2-70.5,11.3c-80.9,25.4-161.1,53.3-241.9,79.2c-35.1,11.2-70.7,21.9-106.9,28.9c-62.8,12.3-113.7-10.3-150.9-61.7
	c-34.2-47.1-56.8-100.4-74.8-155.4c-20.1-61.4-46.8-119.5-79-175.2c-15.3-26.6-32.5-51.5-58.4-69.3c-28.7-19.7-49.8-19.8-77.9,0.2
	c-2.7,1.9-5.1,4.1-7.7,6.1c-29,21.3-33.4,20.2-50.7-12.6c-27-51-66.8-61.5-116.4-31.2c-40.5,24.7-66.5,62.9-90.2,101.7
	c-30.6,50-56.5,103-84.9,154.3c-14.7,26.6-30.6,52.6-46.1,78.8c-39.3,66.6-115.6,89.2-180.9,73.6c-40-9.5-79-23.8-117.9-37.4
	c-55.4-19.4-110.3-40.3-165.5-60.3c-30.3-11-61.6-12.8-93.4-10.1c-39.8,3.3-84.9,33.5-78.5,89.7c1.9,17.3,4.6,34.4,7.3,51.6
	c1.7,10.4,4.1,20.8,6.8,34.1c-12.8,3.2-22.9,6.1-33.2,8.3c-47.6,9.9-64.9,28.3-69.9,76.6c-3.8,36.7,7.7,71.1,17.9,105.5
	c20.7,69.7,44.7,138.7,61.7,209.3c18.3,75.9-1.7,143.4-65.4,192.2c-23,17.6-51.1,28.5-77.4,41.5c-62.3,31-125.3,60.7-187.3,92.4
	c-30.5,15.6-50.8,41.3-57.8,75.3c-8.2,39.3,9.5,69.9,36.9,96c7.9,7.5,17,13.7,24.9,21.1c19.2,18,20.8,29.2,6.4,51.1
	c-6.5,9.9-15,18.6-22.8,27.6c-24.5,28.4-28.6,55.7-7.3,86.2c12.8,18.3,29.4,35.9,48.1,47.6c46.9,29.4,96.1,55.3,144.4,82.7
	c29.3,16.6,58.4,33.8,87.9,50.1c73.3,40.5,96.7,130.3,82.3,197.5c-13.3,62.3-41,119.2-66.2,177c-18.7,42.9-39.6,84.9-56.1,128.6
	c-9.9,26.1-16.7,54.3-18.8,82.1c-3.3,44.3,19.4,66.7,63.8,68.6c21.7,0.9,43.4,0.2,69.1,0.2c0.8,14.9,2.2,29.5,2.4,44.1
	c0.7,62.5,30,90.5,93.4,88.4c56.1-1.9,109.5-16.8,162-35.5c51.2-18.3,102-37.8,153.4-55.5c21.5-7.4,43.7-13.9,66.1-16.9
	c76.4-10.4,131.2,23.4,166.2,89.2c18.3,34.4,32.4,71.3,46.3,107.8c16.7,43.7,30.4,88.6,47,132.3c9.3,24.3,20.6,48.1,33.3,70.8
	c20.8,37.1,53.6,57.1,96.3,56.8c28.2-0.2,56.8-1.5,84.3-6.9c41.9-8.2,64.7-36.5,69.5-83.3c12.3,6.3,23.2,11.9,34.2,17.7
	c20.3,10.6,39.4,8.9,58.3-4.4c23.9-16.8,41.3-39.5,52.9-65.3c19.6-43.6,36-88.6,54-132.9c10.2-25.2,20.1-50.6,31.7-75.1
	c38.6-81.2,115.3-108.3,196.4-90.8c35.9,7.8,70.1,23.5,105.3,34.5c68.4,21.5,136.9,43,205.9,62.7c17.3,4.9,36.9,5,55,3.2
	c36.4-3.6,53.6-24.4,54.2-61c0.3-17.1,0-34.2,0-55c18.4,1.4,33.4,1.2,47.9,3.9c73.9,14.1,92.2-32.5,93.4-83.9
	c0.5-22.5-3.9-45.8-10.2-67.5c-20.6-71-42.2-141.8-65.3-212c-15.4-47-27.4-93.9-23.2-143.9c4.1-49,25.2-88.2,68.5-112
	c29.4-16.2,60.6-29.6,92.1-41.2c64.3-23.7,130.2-43.4,190.2-77.4c16-9.1,32.1-19,45.7-31.2c32.5-29.3,33.1-72.3,3-104.2
	c-9.7-10.3-20.3-19.7-30.6-29.4c-15.2-14.4-19.2-30.8-10.2-50.3c4.1-8.9,7.2-18.2,10.4-27.4c18.2-51.9,11-85.9-32.3-118.3
	c-40.8-30.5-84.4-57.6-128.1-84c-33.5-20.3-69.1-36.9-103.4-55.7c-99.4-54.4-108.2-152-76.2-226.7c15.3-35.7,36.3-69,54.5-103.6
	c14.5-28,29.3-55.8,43.9-83.7c16.9-32.3,26.8-66.4,26.2-103.2c-0.3-19.4-8.5-33-25.8-41.8c-27.6-14-57.9-15.5-90.7-23.7
	c-7.9,62.7-62.4,87.5-99.1,132.4c13.6,2.3,20.7,3.8,27.9,4.6c23.8,2.7,47.6,4.9,71.3,7.7c24.6,2.9,39.8,17.3,43.9,41.4
	c2.3,13.7,1,28,1.6,42C3018.8,1332.9,3019.5,1341.3,3020,1349.6z M2756.9,1192.7c-2.1-1.5-4.3-2.9-6.4-4.4
	c0-37.9-0.2-75.8,0.1-113.7c0.1-16.3,2.3-32.7,1.4-48.9c-1.4-25.1-14.9-37.1-40-37.8c-21.5-0.6-30.8,8.9-33.9,34.6
	c-0.5,4.3-0.7,8.7-0.9,13c-2.1,68.6-5.1,137.1-5.9,205.7c-0.3,23.5-6.8,41.7-24.2,57.7c-31.3,28.7-61.1,58.9-92,88
	c-6.5,6.1-14.9,10.2-28,18.9c0-23.1-0.5-39.1,0.1-55c2.2-59.8,4.9-119.6,7.1-179.5c0.4-9.8,0.3-19.6-0.7-29.3
	c-1.7-16.7-12.1-24.6-28.4-25.7c-18.5-1.3-29.9,5.1-34,23c-3.1,13.6-3.4,28-4.1,42.1c-4.3,83.7-8.7,167.4-12.2,251.2
	c-1,24.2-8.7,44.4-25.4,61.7c-12.1,12.6-23,26.3-35.2,38.6c-89.1,89.6-178.2,179.1-267.7,268.2c-22.4,22.3-46,43.3-69.5,64.3
	c-5.9,5.3-13.5,8.6-23.3,14.6c-1.3-10.5-2.7-16.7-2.7-22.9c1.1-159,2.5-318,3.3-476.9c0.1-17.4,5.1-31.4,17-44.1
	c38.7-41.3,77.1-82.9,115.3-124.7c32.3-35.3,65.1-70.3,95.9-106.9c14.6-17.5,12.6-34.5,0-47.2c-14-14.2-31.1-14.8-49.6,0.7
	c-13.3,11.1-25.1,24.2-36.6,37.1c-34,38.2-67.2,77.2-101.5,115.1c-9.4,10.3-17.6,25.5-37.7,20.5c0-59.5-0.8-118.3,0.7-176.9
	c0.3-10.4,7.8-22.6,15.4-30.7c50.3-52.8,101.6-104.7,152.4-157c6.8-7,13.6-14.2,19-22.3c10.1-15.4,9.4-30.5-1.1-42.1
	c-11.7-12.9-27-15.7-41.7-8.9c-11.5,5.3-21.9,14.2-30.9,23.4c-24.4,24.9-47.4,51.1-71.7,76c-8.4,8.6-19.1,15-35.4,27.4
	c0-24.5-0.1-40.3,0-56.1c0.4-35.9,1.3-71.8,1.1-107.6c-0.1-16.3-8.5-26.3-25.8-27.6c-18.1-1.4-34,7.3-39,23
	c-2.3,7.1-2.9,15-3.1,22.5c-0.9,33.7-1.1,67.5-1.9,101.2c-0.3,11.5-1.4,23-2.2,34.8c-20.4,0.4-27.4-12.8-37-22.7
	c-30.1-31.3-59.5-63.5-91.4-93c-20.9-19.3-35.3-18.7-49-5.6c-16.6,15.7-17.3,32.5-0.2,55.1c9.8,13,21.6,24.4,33,36.1
	c42,42.7,83.8,85.6,126.5,127.5c13.6,13.3,19.5,27.7,19.1,46.3c-0.9,38.1-0.7,76.2-1.3,114.3c-0.2,11.5-1.1,23-2.1,42.8
	c-15.3-13.2-25.5-20.5-33.8-29.5c-38.2-41.7-75.7-84.2-114-125.9c-9.5-10.4-20.1-20.2-31.7-28c-13-8.6-32.5-5.2-42.4,4.8
	c-12.5,12.5-9.1,26.3-1.2,38.8c7.5,11.8,16.9,22.7,26.3,33.1c51.2,56.4,101.4,113.9,154.7,168.3c31.5,32.2,45.7,65.4,44.5,112.3
	c-3.7,154.5-1.8,309.2-2.2,463.9c0,9.1-1.8,18.3-3.4,34.1c-14.2-12.5-24.3-20.1-32.9-29.2c-22.5-23.7-43.9-48.4-66.4-72
	c-84.8-89.1-169.9-178-255-266.9c-15.8-16.5-23.4-34.7-23.1-58.5c1.4-94.7,1.1-189.5,1.2-284.2c0-13,0.1-26.2-1.8-39.1
	c-2.4-15.6-12.2-25.4-28.5-26.6c-16.2-1.2-29.3,8.4-33.1,25.5c-2.3,10.5-2.6,21.6-2.9,32.5c-1.6,68.6-2.9,137.2-4.6,205.7
	c-0.3,12.4-2.2,24.8-3.9,42.7c-11.8-9-19.3-13.2-24.9-19.2c-31.4-33.2-61.9-67.3-93.7-100.2c-16.1-16.7-23.9-35.1-23.6-58.5
	c0.9-63.1,0.7-126.3,0.8-189.4c0-13.1,0.5-26.2-0.9-39.2c-2.8-26.3-12-35.1-33.9-34.7c-22.5,0.5-32.5,9.7-35.4,34
	c-1.3,10.8-1.4,21.7-1.4,32.6c-0.2,39.2,0.1,78.4-0.3,117.6c-0.1,6.7-2.8,13.4-5.4,25.3c-14.7-13.5-26.6-22.8-36.6-33.8
	c-23.4-25.8-45.2-53-69-78.5c-10.2-10.9-22.3-21.6-35.7-27.7c-25.8-11.7-47.9,5.8-41.2,33.3c3.9,16,13.5,32.3,24.7,44.6
	c32.9,36.2,67.9,70.6,101.9,105.8c3.5,3.7,6,8.3,12.4,17.1c-16.6,1.9-29,4.4-41.4,4.6c-40.3,0.6-80.6-0.1-120.9,0.5
	c-32.7,0.5-39.5,9.9-35,42.3c2.3,16.5,10.4,25.8,26.9,27.3c9.7,0.9,19.6,1.1,29.3,1.2c67.5,0.6,135,1.6,202.5,1.3
	c17.7-0.1,30.9,4.6,43,17.8c33.1,36.1,67.6,70.9,101.1,106.7c5.3,5.6,8.6,13.2,15.1,23.7c-16.2,0-26.9,0.6-37.5-0.1
	c-56.5-3.8-112.9-8.2-169.4-12c-11.9-0.8-24-1-35.9,0c-21.9,1.9-31.2,10.7-32.8,29c-1.8,20.1,7.1,33.4,28.7,36.7
	c24.7,3.8,49.8,4.8,74.8,6.3c72.8,4.4,145.5,9.3,218.4,12.2c25.1,1,42.9,11.7,59.6,28.8c109.5,112.2,219.3,224,328.8,336.3
	c4.4,4.5,6.1,11.8,11,21.7c-20.2,0-35.3,0.5-50.3-0.1c-156.6-6.5-313.3-13.4-469.9-19.8c-16.3-0.7-29.1-6-40.3-18
	c-20.8-22.3-42.3-43.9-63.8-65.6c-40.5-41.1-80.9-82.3-122.1-122.8c-10.7-10.5-23.2-20.1-36.5-26.9c-14.4-7.5-33.4-1.4-40.9,10.6
	c-8.1,12.8-4.4,25.3,3.9,36.3c5.9,7.8,12.6,15,19.7,21.7c18.9,18.1,38.3,35.6,57.1,53.7c25.1,24.1,50.3,48.2,74.7,73
	c7,7.1,17.7,14.2,10.6,29.9c-9.9,0-20.6,0.3-31.3-0.1c-37-1.4-73.9-4-110.9-4.2c-22.3-0.1-39.8-6.9-54.9-23.4
	c-38.2-41.8-76.8-83.2-115.9-124.2c-13.5-14.1-28.3-27-43.1-39.8c-10.2-8.9-21.9-9-33.4-2.4c-13.2,7.6-17.9,20.7-13.6,33.6
	c4.7,14,12.4,27.9,21.9,39.2c21.1,24.9,44.3,47.9,66.1,72.2c7.5,8.4,13.3,18.4,24.2,33.7c-19.1,0-30.6,0.2-42,0
	c-37-0.8-74-2.6-111-2.2c-22.7,0.2-31.2,10.5-31.9,32.5c-0.6,19.8,4.3,29.8,24.3,32.3c35.5,4.4,71.4,5.2,107.2,7.3
	c19.1,1.1,38.2,1.9,60.2,3c-3.2,9-3.6,15-6.8,18.4c-13.5,14.2-27.9,27.5-41.8,41.2c-17.8,17.5-36.8,34.1-53.1,53
	c-14.1,16.3-13.2,30.5-2,44.3c11.4,14,29.7,18.1,47.1,8.5c9.4-5.2,17.8-12.6,25.4-20.2c41.6-41.6,83-83.3,124-125.5
	c11.3-11.7,22.8-18,40-16.9c36.9,2.3,74,2.2,111,3.6c18,0.7,36,2.6,56,4c-3.9,23-19,33.1-31,44.7c-36.7,35.6-74.2,70.5-111,106
	c-7.7,7.5-15.1,16-20.2,25.4c-6.9,12.6-4.2,25.2,5.3,36.3c10.4,12,23.3,12.1,35.3,4.8c12.9-7.8,25.4-17,36.3-27.4
	c57.3-55.1,114.5-110.3,170.7-166.5c16.7-16.7,34.1-24.6,57.9-23.1c45.6,3,91.4,3.9,137,5.7c106.6,4.3,213.2,8.6,319.8,13.2
	c14.6,0.6,30.2,0.1,43,15.9c-7.9,8.5-14.7,16.7-22.4,24c-41,39-82.7,77.3-123.4,116.7c-61.8,59.8-123.8,119.6-184.1,180.8
	c-28.6,29-59.4,44.1-101.3,41.3c-71.7-4.9-143.6-6.2-215.4-8.7c-11.9-0.4-24-0.5-35.8,1.2c-19,2.8-29.6,15.3-30,32.7
	c-0.4,17.1,9.9,30.9,28.9,34c18.2,3,36.8,4.2,55.3,4.4c45.7,0.5,91.5-0.1,137.2,0.1c12.5,0.1,24.9,1.5,46,2.9
	c-15.4,17-24.6,28.4-35,38.5c-24.2,23.5-49.7,45.7-73.4,69.6c-18,18.2-38.3,27.1-64,26.7c-62.1-1-124.1-0.8-186.2-1
	c-9.8,0-19.6,0.5-29.4,1c-14.8,0.8-20.8,9.8-21.4,23.7c-1.1,23.9,13.5,40.9,39.8,42c32.6,1.4,65.3-0.2,98,0.3
	c14.7,0.2,29.3,2,51,3.7c-8.8,12.1-12.6,19.2-18.1,24.6c-29.6,28.9-59.7,57.3-89.3,86.2c-8.5,8.3-17,17.1-22.9,27.2
	c-8.5,14.6-4.7,30.8,7,41.6c12,11.1,26.5,12.3,41.7,1.5c9.6-6.9,17.9-15.8,26.2-24.4c21.2-21.9,41.8-44.3,63.3-65.9
	c4.6-4.7,11.7-7,21.2-12.5c1,16.1,2.6,27.8,2.2,39.5c-1.2,30.5-3.6,60.9-5,91.3c-0.5,11.9-0.7,24,0.8,35.8c2,16,12.1,25,28.3,26.6
	c15.9,1.6,28-4.6,33.8-19.6c3.1-8,4.6-16.8,5.2-25.4c1.9-25,3.5-50,4.4-75c1.4-40.3,1.1-80.6,3.5-120.8c0.7-12.1,4.6-26.7,12.4-35.3
	c31.6-34.5,65.1-67.2,98.2-100.2c7.2-7.2,15.5-13.3,29.6-25.2c0,19,0.7,29.4-0.1,39.8c-2.5,30.4-6.4,60.6-8.4,91
	c-2.5,39.1-5.2,78.3-4.7,117.4c0.4,26.8,27.7,42.3,47.8,27.4c9.6-7.1,15.7-23.3,17.1-36.1c4.7-42.1,6.9-84.6,9.4-127
	c2.8-47.8,5.3-95.7,7.2-143.5c1-26,9.1-46.7,28.9-65.9c95.4-92.4,189.2-186.4,283.6-279.8c22.4-22.2,44.6-44.6,67.4-66.3
	c4.7-4.5,11.7-6.4,21.1-11.3c0,13.1,0.1,21.6,0,30.2c-1.4,177.5-3.5,355-3.5,532.5c0,34.6-11.1,59-36.2,82.5
	c-48.4,45.3-94,93.7-139.7,141.9c-10.1,10.7-17.5,24.9-23,38.7c-5.2,13-0.5,26.2,11.3,34.7c11.4,8.3,23,4.6,33.3-2.8
	c7.9-5.7,15.3-12.3,22-19.3c30-31.5,59.5-63.6,89.7-95c9.3-9.7,20.3-17.8,33.2-29c2.9,10.3,5.5,15.3,5.5,20.3
	c0.1,42.5-0.5,84.9-0.3,127.4c0.1,17.6-6.9,30.7-19.2,43.1c-36.8,37.1-72.9,74.9-108.9,112.8c-9.7,10.2-19.2,20.9-27.1,32.5
	c-11.2,16.7-9.6,31.5,2.8,44.3c11.8,12.1,26.6,12.7,44.1-0.3c9.5-7.1,18.1-15.7,25.8-24.8c14.1-16.6,26.7-34.4,40.8-51
	c8.6-10.1,16.6-22.8,36.7-22c0,23.1-0.1,44.5,0,65.9c0.1,23.9-1.5,48.1,1.1,71.7c2.9,26.1,32.2,38.8,50.6,22
	c7.7-7.1,12.6-20.6,13.2-31.5c1.6-28.2,0-56.6-0.2-84.9c-0.1-12.5,0-25,0-41.8c10.3,4.4,16.2,5.2,19.4,8.6
	c17.1,18.2,33.6,36.9,50,55.6c10.7,12.2,19.9,26.2,31.9,36.9c13.8,12.3,36.5,9.6,51-3.5c14.6-13.1,6.3-26.8-1.7-37.9
	c-14-19.3-29.4-37.8-45.7-55.2c-26.1-27.7-53.4-54.4-80.5-81.2c-16.3-16.1-25.4-34.4-24.7-58c0.8-25-0.7-50.1-0.4-75.1
	c0.2-17.9,1.8-35.8,3.1-61c13.9,11.4,22.8,17,29.6,24.7c26.8,30.1,52.6,60.9,79.3,91.1c9.3,10.5,19.3,20.7,30.1,29.7
	c11,9.1,23.9,10.5,36.1,1.4c11.4-8.5,12.8-21.6,8-32.5c-7.4-16.6-16.3-33.4-28.2-46.9c-38.9-44.1-78.4-87.7-119.7-129.5
	c-25.6-25.9-35.7-54.3-35.2-90.7c2.6-184,3.4-368,5-552c0.1-6.7,2.8-13.4,5.5-25.2c15.6,14.4,28,24.7,39.1,36.2
	c105,109,209.9,218,314.2,327.6c6.7,7,11.2,18.5,12.1,28.3c9.8,106.2,18.7,212.5,28,318.8c0.8,8.6,2.4,17.3,4.9,25.5
	c4.4,14.6,15.1,20.4,30,19.6c19.9-1,32-11.3,32.2-33.3c0.2-30.4-1.2-61-4.2-91.3c-4.7-47.6-11.5-95.1-16.9-142.7
	c-1.3-11.2-5.1-23.5,6.9-34c5,3.2,10.1,5.4,13.6,9c36.5,37.4,72.5,75.3,109.1,112.5c11.9,12,13.7,26.3,14.5,41.9
	c2.4,47.8,4.6,95.7,8.3,143.5c2.2,28.1,6.7,56.2,11,84.1c2.5,16,12.5,24.9,29.4,24.7c17.6-0.2,28.5-7.9,32.2-26.2
	c2.5-12.6,2.9-26,2-38.9c-2.2-31.5-6-62.8-8.5-94.3c-1-12.2-0.2-24.5-0.2-36.8c2.4-1,4.7-2,7.1-3.1c9.4,8.2,19.3,15.9,28.1,24.7
	c26.8,27.1,52.5,55.2,79.8,81.8c13.6,13.2,30.5,11.9,43.9,0c13.6-12.1,15.2-27.8,4.2-43.8c-2.5-3.5-5.5-6.7-8.6-9.8
	c-28-27.4-56.1-54.7-84-82.2c-6.6-6.5-12.6-13.5-23.4-25.2c20.4-2.4,34-5,47.7-5.5c29.4-1.1,58.8-0.8,88.2-1.7
	c10.8-0.3,21.8-1.3,32.3-3.9c18.5-4.6,27.7-18.2,25.8-35.8c-1.8-17.1-13-24.4-28.7-25.7c-17.4-1.5-34.8-3.3-52.1-3.1
	c-50.1,0.6-100.3,0.6-150.2,3.9c-33.9,2.3-58.1-10.6-80.3-34.3c-28.2-30.1-58.4-58.4-87.6-87.6c-4.2-4.2-7.5-9.4-12.6-15.7
	c6-1.6,8.9-3.2,11.7-3c44.6,2.3,89.2,4.5,133.7,7.3c32.6,2,65.1,5.2,97.7,7.1c28.7,1.7,42.3-8.5,44.1-31.6
	c1.7-22.7-10.2-34.5-38.9-38.1c-8.6-1.1-17.4-1.2-26.1-1.6c-84.9-3.3-169.7-7.3-254.6-9.3c-31.9-0.7-55.9-13-77.2-35.6
	c-42.6-45.1-87-88.6-129.6-133.7c-60.5-64.1-120.1-129.1-179.9-193.9c-5.5-5.9-9.2-13.4-16.1-23.9c13.7-1.3,23-3.1,32.3-2.9
	c150.3,2.3,300.5,5.2,450.8,6.8c23.6,0.3,41.1,6.7,56.7,25c50.8,59.6,102.9,118.2,154.7,177.1c7.2,8.1,14.3,16.7,22.9,23.1
	c14.1,10.4,37.1,8.5,48.6-2.3c10.7-10.1,11-22.8-1.1-41.4c-7.6-11.8-16.7-22.9-25.9-33.6c-31.2-36.3-62.9-72.2-94.1-108.6
	c-8.3-9.7-18.9-19.1-10.4-37.5c10.5,0,22.4-0.4,34.2,0.1c44.6,1.6,89.2,4.5,133.8,4.7c20.3,0.1,34.3,6.8,47.7,21.9
	c37.6,42.3,76.4,83.5,115.4,124.6c11.1,11.7,23.2,23.6,37.2,31.4c22,12.3,44-2.1,40.5-26.9c-2-14.2-9.4-29.1-18.3-40.7
	c-17.2-22.4-37.3-42.5-55.9-63.8c-9-10.3-20.2-19.9-16.9-40.7c21.5-0.2,42.8-0.5,64.1-0.5c25-0.1,50.2,1.8,75-0.5
	c22-2,32.4-22.8,25.2-43.4c-5.3-15.1-18.1-18.3-31.4-18.7c-35.9-1.3-71.8-1.5-107.7-2.6c-11.2-0.3-22.4-1.9-40.7-3.6
	c11.4-15.3,17.4-25.3,25.3-33.4c18.2-18.7,37.8-36.1,56-54.8c8.2-8.5,15.8-18.2,21.4-28.5c6.9-12.8,4-25.6-6.4-35.8
	c-10.6-10.4-23-12.4-35.7-4.3c-10.1,6.4-20.2,13.1-28.8,21.3c-41.2,38.8-82.4,77.6-122.5,117.5c-10.8,10.7-21.2,17.5-36.6,17.3
	c-47.9-0.8-95.8-0.7-143.7-1.5c-6.8-0.1-13.5-3.4-24.8-6.4c11.1-12.9,18.5-23.5,27.8-32.1c35.1-32.6,70.9-64.4,106.2-96.7
	c11.2-10.3,22.4-20.7,32.4-32.1c10.3-11.7,12.3-25.2,2.7-38.9c-8.8-12.6-25.3-18.9-40.5-12.8c-9.8,3.9-18.9,10.7-26.7,17.9
	c-62.3,57.7-125.2,114.8-185.8,174.3c-19,18.7-38,25.2-63.5,24.7c-155.7-3.4-311.4-5.8-467.1-8.7c-6.9-0.1-13.8-2.3-26.1-4.5
	c10.2-11.7,16.5-20.2,23.9-27.5c116.5-114.5,233.4-228.5,349.3-343.5c18.4-18.3,37.6-26.5,63.4-25.9c72.9,1.7,145.9,1.8,218.9,2.2
	c13,0.1,26.1-1,38.9-3c14.5-2.2,24-11.5,24.4-26.4c0.4-15.6-7-27.5-23-31.5c-9.4-2.4-19.2-4.2-28.8-4.5c-41.4-1-82.7-1-124.1-2
	c-18-0.4-36.1-2.2-60.9-3.9c10.4-12.2,15.9-19.7,22.5-26.1c26.5-25.8,54.1-50.5,79.7-77.3c16.3-17.1,34.7-25.1,57.8-24.6
	c34.8,0.8,69.7,1.1,104.5,1.7c39.2,0.6,78.4,2.1,117.6,1.4c9.6-0.2,22.9-4.3,28-11.3c17.5-23.8,3.4-53.6-25.9-58.2
	c-9.6-1.5-19.5-1.4-29.3-1.5c-31.6-0.3-63.2-0.1-94.7-0.8c-9-0.2-18-2.8-34-5.5c14.6-16.3,23.6-28.1,34.4-38.1
	c25.6-23.6,52.3-46,78.1-69.4c8.8-8,17.3-16.8,24-26.5c10-14.7,5.1-37.4-8.8-50.2c-13.6-12.5-25-3-34.7,4.9
	c-34.5,28.1-68.2,57.1-102.1,85.9C2775,1175.6,2766.1,1184.3,2756.9,1192.7z M1977.2,3477.9c0.5-24.6-15.1-40.7-40.2-41.4
	c-26.1-0.7-40.5,14.9-40.5,43.8c0,26.7,14.8,44.8,36.8,45C1957.8,3525.4,1976.6,3505.1,1977.2,3477.9z M2349.9,1216.5
	c-0.3,17.4,6.6,25.1,22,24.7c17.4-0.5,33.4-16.2,33.6-33c0.2-16-10.2-26.7-25.9-26.7C2361.9,1181.5,2350.3,1195.1,2349.9,1216.5z
	 M1875.3,1275.3c-15.5-6.5-28.7-4.2-36.4,7.4c-4.4,6.6-3.8,18.1-2.1,26.7c0.9,4.2,11,10.9,14.1,9.6c7.1-2.9,14.5-9,18-15.7
	C1873.1,1295.2,1873.3,1285.1,1875.3,1275.3z M1654.3,2640.3c-14.9-2.4-29.3-5.5-30.5,13.7c-0.3,4.8,11.1,14.8,16.9,14.6
	C1656.2,2668.2,1659.4,2656.9,1654.3,2640.3z M2063.9,2596.4c8.4-5,15.2-9.1,22.1-13.2c-2.7-2.7-5.1-7.5-8.1-7.9
	C2066,2573.7,2059.8,2578.5,2063.9,2596.4z M2867.2,998.5c-2.8,4.2-6,7.1-5.4,8.4c1.1,2.4,4.2,4.7,6.8,5.2c2,0.3,4.5-2.2,6.7-3.5
	C2873,1005.7,2870.7,1002.9,2867.2,998.5z"/>
<path d="M3204.5,982c-0.7,45.4-29.3,75.1-72,75c-42.8-0.1-88.8-37.3-88.2-71.3c0.6-39.7,46.1-85.3,84.3-84.5
	C3172,902.1,3205.2,937.5,3204.5,982z M3172.6,977.8c-0.5-27.7-17.5-44.2-45.2-43.6c-24.9,0.5-41.2,19.9-40.8,48.4
	c0.4,26.3,15.1,38.9,44.9,38.4C3158.3,1020.5,3173.1,1005,3172.6,977.8z"/>
<path d="M3094.5,3067.5c0,42.6-31.5,75.1-72.9,75.2c-45.1,0.2-77-30.9-76.6-74.7c0.3-39.8,34.2-76.3,70.1-75.6
	C3056.9,2993.2,3094.6,3028.8,3094.5,3067.5z M3015.2,3108.6c24,0,46.3-19.7,46.2-41c-0.1-19.9-22-40.7-43-40.9
	c-21.1-0.2-40.2,19.6-40.9,42.3C2976.8,3091.9,2992.7,3108.6,3015.2,3108.6z"/>
<path d="M2557.9,1770c-0.4,47.4-28.7,75.8-75.3,75.4c-38.6-0.3-67-31.1-67.4-72.9c-0.3-38.3,35.5-74.3,72.7-73.1
	C2528.5,1700.7,2558.2,1730.7,2557.9,1770z M2525.7,1772.7c0.1-21.5-14.6-36.4-36.2-36.8c-24.1-0.5-39.7,13.8-39.9,36.5
	c-0.3,26.2,14.9,44,37.1,43.5C2508.3,1815.5,2525.6,1796.3,2525.7,1772.7z"/>
<path d="M2078.9,391.9c-40.9,0.5-70.1-29.3-70.9-72.3c-0.8-42.2,28.2-74.4,68.2-75.8c42.7-1.5,81,31.5,82.4,71.1
	C2160,356.7,2124.2,391.3,2078.9,391.9z M2082.1,363.8c24.2-0.7,44.7-20.9,43.9-43.2c-0.8-22.7-24.3-45.3-47.2-45.3
	c-24.3,0-41.9,18.6-41.8,44.2C2037.1,346.5,2055.5,364.6,2082.1,363.8z"/>
<path d="M1782.9,1403.4c40.8,0.3,69.8,29.9,69.2,70.4c-0.6,41.1-34.9,73.8-76.1,72.7c-35.6-1-61-30.7-60.7-70.8
	C1715.7,1434.2,1744.7,1403.1,1782.9,1403.4z M1747.2,1473.4c-0.4,23.9,14.7,40.7,36.5,40.6c20.6-0.1,35.7-15.5,36.6-37.4
	c1-23.5-11.7-38.8-32.8-39.5C1763.5,1436.3,1747.7,1450.5,1747.2,1473.4z"/>
<path d="M2206.4,2605c40.2-0.3,65.6,21,66.1,55.6c0.7,50.1-28.2,84.1-71.1,83.5c-36.4-0.5-69.4-35-69.5-72.8
	C2131.8,2635.3,2165.4,2605.4,2206.4,2605z M2238.3,2673.3c0.2-23.8-12.9-39.1-33.8-39.3c-23-0.2-39.5,15.8-39.4,38.2
	c0.2,23.2,15.9,39.2,38.5,39.2C2225.5,2711.4,2238.1,2697.5,2238.3,2673.3z"/>
<path d="M1485.3,2239.7c-44.8-0.2-71.3-22-71.3-58.7c0-39.2,38.1-77.1,78-77.4c35.8-0.3,61.3,28.9,61.1,70.1
	C1552.8,2215.8,1528,2240,1485.3,2239.7z M1520,2174.1c0.2-24.2-12.6-37.7-35.2-37.4c-22,0.4-37.7,15.8-37.2,36.8
	c0.5,20.6,16.8,35.5,38.8,35.4C1508.6,2208.9,1519.9,2197.3,1520,2174.1z"/>
<path d="M2253,2470.7c-0.3,39-22.8,63-58.8,62.7c-41.1-0.4-70.8-25.5-71.2-60.1c-0.5-41.1,26.8-73.9,61.6-74
	C2222.6,2399.1,2253.3,2431.1,2253,2470.7z M2158.5,2467.1c0.7,20.7,16.3,35.7,35.2,34.1c17-1.4,29.1-15.6,28.5-33.5
	c-0.6-19.2-17-32.8-37.8-31.2C2167,2437.8,2157.8,2448.7,2158.5,2467.1z"/>
<path d="M1752.1,2401.6c41,0,71.7,33.3,71.1,77c-0.5,32.7-32.4,61.3-67.9,61.1c-35.9-0.2-65.1-33-64.9-72.1
	C1690.4,2437.5,1714,2398.4,1752.1,2401.6z M1722.4,2469.3c-0.2,21.3,12.8,37.5,30.9,38.6c19.1,1.1,40.3-18.5,41.1-37.9
	c0.8-19.2-13.9-34.1-34.4-34.7C1736.7,2434.5,1722.6,2447.2,1722.4,2469.3z"/>
<path d="M2159.7,1427.1c1.5-37.2,32.1-68.1,66.2-67c36.8,1.3,67.9,34.3,66.7,70.8c-1.3,35.8-33.4,65.9-68.7,64.2
	C2185.8,1493.3,2158.2,1464,2159.7,1427.1z M2223.6,1391.2c-20.6,0.4-33.3,14.1-33.3,36.1c0,22.7,13.8,37.2,36,37.6
	c20.5,0.4,32.9-13.1,32.9-35.9C2259.2,1406.1,2244.8,1390.8,2223.6,1391.2z"/>
<path d="M2648.3,1739c-41.8,0.6-69.1-23-69.9-60.4c-0.9-40,28.7-75.1,64.6-76.7c34.6-1.6,62.6,30.7,63,72.6
	C2706.3,1713.2,2683.7,1738.5,2648.3,1739z M2609.6,1673.1c0.5,22.8,15.7,38.1,36.3,36.6c18.7-1.3,31.4-17.5,30.5-38.9
	c-0.8-20.5-15.9-35.7-34.7-34.9C2621.9,1636.8,2609.1,1651.6,2609.6,1673.1z"/>
<path d="M2627.1,2300.2c-35.8,0.4-63.8-26-63.5-59.9c0.2-33.7,26.7-60.5,59.5-60.1c34.7,0.4,63,26.5,62.4,57.7
	C2684.8,2272,2658.7,2299.9,2627.1,2300.2z M2650.1,2238.5c-0.1-15.5-10.9-25.8-26.9-25.6c-15.7,0.2-25,10.5-24.8,27.3
	c0.2,15.7,11.4,26.9,26.2,26.3C2639,2265.9,2650.2,2253.6,2650.1,2238.5z"/>
<path d="M1865.8,2667.6c-1.3,30.5-30.3,57.2-60.9,56.1c-29.4-1.1-51.4-27.5-50.8-60.7c0.6-29.5,30.2-56.6,61-56
	C1844.4,2607.7,1867.2,2635,1865.8,2667.6z M1831.8,2664.3c-0.8-16.3-9.4-26-22.9-25.7c-15.7,0.3-26.4,12.1-25.1,27.5
	c1.2,14.4,12,24.6,25.5,24.2C1823.8,2689.9,1832.5,2679.8,1831.8,2664.3z"/>
<path d="M1047.5,2750.7c-0.1,29.5-22.4,52.3-50.9,52c-29.2-0.3-53.3-27.2-52.5-58.9c0.7-27.9,19.9-47.7,46.9-48.3
	C1022.1,2694.8,1047.6,2719.7,1047.5,2750.7z M994.5,2720.5c-8.5,12.6-15.8,19.1-17.5,26.8c-2.6,11.8,7.3,20.4,20,19.3
	c10.4-0.9,21.1-5.5,18.2-17.6C1013,2740.5,1004.3,2733.5,994.5,2720.5z"/>
<path d="M1383.8,1634.6c27,0.6,46.3,20.9,46.2,48.7c-0.1,28.1-17,45.9-43.5,46c-33.3,0.1-52.9-16.7-52.3-44.8
	C1334.8,1657.2,1357.8,1634,1383.8,1634.6z M1406.5,1687.9c-9-9.8-13.1-18.3-18.2-18.9c-5.3-0.6-13,5.4-16.5,10.6
	c-1.6,2.4,3.7,13.9,6.5,14.1C1385.5,1694.4,1393.1,1691,1406.5,1687.9z"/>
<path d="M1529.3,1782.3c0.7,25.9-17.5,43.7-45.6,44.4c-28.7,0.7-48.1-17.6-48.2-45.4c-0.1-25.1,17.6-44.2,41.5-44.9
	C1506.9,1735.5,1528.5,1754.5,1529.3,1782.3z M1469.1,1794c14.3,3.9,25.7,2.8,27.1-13.3c0.8-9.4-6.2-17.1-16.8-14.9
	C1461.9,1769.5,1466.8,1782,1469.1,1794z"/>
<path d="M719.6,1729.8c27.9-0.6,43.5,13.8,43.8,40.4c0.3,27.2-15.2,44.2-40.8,44.5c-23,0.3-44.4-19.4-45.7-42.2
	C675.6,1747.9,693.1,1730.4,719.6,1729.8z M731,1777c-5-5.8-7.5-11.4-11.3-12.3c-2.8-0.7-9.7,4.6-9.9,7.6c-0.3,3.8,3.5,10,7,11.4
	C719.6,1784.8,724.7,1780.2,731,1777z"/>
<path d="M1328.4,2168.1c-3.6-6.5-7.6-13.5-11.6-20.6c22.5-9.6,34-7.2,37.9,11.3c3.3,15.6,11.5,24.2,23.1,32.7
	c12.2,9,18.2,21.4,12.1,36.8c-5.5,14-16.8,18.2-30.9,18.9c-22.2,1-43.7-8-49.2-23.8c-6.8-19.2-1-35.8,14.8-48.8
	C1326.2,2173.4,1326.8,2171,1328.4,2168.1z M1347.8,2232c6.2-6.4,11.3-9.9,13.3-14.7c0.7-1.6-6.1-9.1-9.4-9.1
	c-3.8,0-9.4,4.8-10.7,8.7C1340,2219.9,1344.3,2224.7,1347.8,2232z"/>
<path d="M3557.7,2055.7c-0.4,23.9-18.5,41.4-41.6,40.3c-21.2-1-40.5-19.8-40.5-39.3c0-22.2,20.3-43.4,40.7-42.7
	C3539.9,2015,3558,2033.2,3557.7,2055.7z"/>
<path d="M1720.9,1292.3c0.8,26.1-19.4,50.6-41.3,50.1c-17.6-0.4-38.1-22.3-39.4-42c-1.4-21.6,20.1-46.6,40.9-47.5
	C1701.7,1252.1,1720.3,1270.4,1720.9,1292.3z M1692.2,1293.5c-6.3-3.2-10.9-7-12.4-6c-3.8,2.5-7.2,6.8-8.7,11.1
	c-0.6,1.7,4.2,5.3,6.6,8.1C1681.7,1303.1,1685.7,1299.4,1692.2,1293.5z"/>
<path d="M2159.5,1294.6c-0.2-22.6,28-52.7,49.1-52.4c18.3,0.2,32.9,16.1,33.6,36.8c1,27.2-22.1,56.7-43.6,55.7
	C2177,1333.6,2159.7,1315.9,2159.5,1294.6z M2216.8,1285.4c-6.9-5.1-11.5-11.1-15.9-10.9c-3.5,0.1-9.8,7.9-9.5,11.8
	c0.4,4.5,6.7,8.5,10.5,12.7C2206.2,1295.1,2210.4,1291.3,2216.8,1285.4z"/>
<path d="M2402.5,1412c1.1,21.1-6.5,31.7-21.1,37.6c-17.4,7.1-38.8,2.4-50.4-11.2c-17.8-20.7-12.2-59.5,10.7-74.7
	c11.1-7.3,22.3-8.4,32.7,0.6C2390.4,1378.3,2400.2,1395.8,2402.5,1412z M2363.9,1423.4c2.1-3.5,9.3-10.5,7.9-14.3
	c-2.4-6.4-10.2-10.9-15.7-16.1c-4.3,5.2-11.2,9.9-12.2,15.7C2342.2,1418.7,2349.2,1424,2363.9,1423.4z"/>
<path d="M950.7,3079.4c-0.6,24.3-18.1,41.7-41.4,41.1c-21.6-0.6-38.3-16.8-37.8-36.7c0.5-23.4,22.4-45.4,43.8-44
	C935.5,3041.1,951.1,3058.6,950.7,3079.4z"/>
<path d="M515.2,1841c-21.6-0.3-35.6-17.4-34.8-42.4c0.8-24,16.2-40.3,38-40.3c23.2,0,41.7,18.3,41.7,41.1
	C560.2,1823.4,540.7,1841.4,515.2,1841z M520.6,1814.8c4.7-5.5,7.1-8.4,9.5-11.2c-2.8-2.3-5.2-5.5-8.4-6.6c-1.4-0.5-5.9,3.3-6,5.3
	C515.6,1805.4,518,1808.6,520.6,1814.8z"/>
<path d="M3426.1,1897.8c22.7,0.5,41.3,19.6,40.9,41.8c-0.4,20.6-18.8,37.4-41.1,37.4c-21.3,0-38.2-17.7-38-39.8
	C3388.1,1914.3,3404.6,1897.3,3426.1,1897.8z"/>
<path d="M1869.4,2320.4c-0.6,23.1-19.7,44.4-39.5,43.9c-23.2-0.5-44.8-25.8-44.2-51.7c0.5-20.4,22.8-40.5,43.6-39.4
	C1851.3,2274.4,1870,2296.5,1869.4,2320.4z M1828.8,2299.3c-7.4,10.6-14.9,17-13.9,21c1.8,6.8,9.1,12.1,14.1,18.1
	c4.9-4.9,13.7-9.7,13.7-14.6C1842.8,2317.3,1835.9,2310.9,1828.8,2299.3z"/>
<path d="M1558.3,1636.4c-0.1,26.5-22.1,48.9-47.3,48.1c-18.6-0.5-32.7-16.5-33-37.4c-0.4-25.5,17.2-44.6,41.5-45.1
	C1542.9,1601.6,1558.4,1615.2,1558.3,1636.4z M1521.2,1654.8c3-6.9,6.1-10.6,5.5-13.5c-0.6-2.8-4.9-4.9-7.6-7.3
	c-1.9,3.1-5.3,6.1-5.4,9.3C1513.5,1646,1517.1,1648.9,1521.2,1654.8z"/>
<path d="M1049.6,1149.1c-0.9,26.2-21.1,46.5-45,45.2c-19.5-1-36.2-18-34.7-35.2c2-23.5,25.7-44.7,48.3-43.3
	C1038.7,1117.1,1050.3,1129.3,1049.6,1149.1z"/>
<path d="M910.6,2961.3c-0.3,21.8-13.2,36.4-32.3,36.4c-27.1,0-46.1-14.8-45.8-35.8c0.3-21.9,21.2-41.4,42.9-40.3
	C895.3,2922.8,910.8,2940.3,910.6,2961.3z"/>
<path d="M3143.3,764c21.5-0.3,34.4,12.1,34.8,33.7c0.5,24.9-15.3,43.6-37.4,44.2c-19.1,0.5-37.4-16.6-38.6-36.2
	C3100.9,785.6,3122,764.3,3143.3,764z"/>
<path d="M403.7,1920.3c-22-0.5-34.6-14.6-34.1-38.2c0.6-23.8,14.8-39.2,34.9-37.8c23.6,1.6,41.8,19.6,41.8,41.4
	C446.3,1906.1,428.1,1920.9,403.7,1920.3z"/>
<path d="M1189.8,874.8c-0.9,23.9-20.1,44.7-40,43.2c-19-1.5-35.3-21.4-33.7-41.1c1.8-22.1,20.9-40.4,40.4-38.9
	C1177.3,839.6,1190.5,854.3,1189.8,874.8z"/>
<path d="M894.7,807.5c19.8,0.5,37.3,18.7,36.6,37.9c-0.7,19.8-20.7,39.4-40.3,39.5c-21,0.1-38.1-18.3-37.5-40.3
	C854.2,823.8,872.9,806.9,894.7,807.5z"/>
<path d="M998.2,719.4c0.4,23.4-12.3,37.5-34.5,38.2c-23.7,0.7-40.4-16.5-40-40.9c0.4-20.4,17-37.5,36.9-37.8
	C981.3,678.6,997.8,696.3,998.2,719.4z"/>
<path d="M480,1960.5c0.7-25.1,15.8-41.7,37-40.7c21,0.9,37.2,17.9,36.4,38.1c-0.9,22-18.8,39.2-40.3,38.9
	C493,1996.6,479.4,1981.7,480,1960.5z"/>
<path d="M2512.9,2235.7c-0.5,20.9-16.3,36.8-37.2,37.3c-18.7,0.4-39.7-22.8-39.6-43.9c0.1-20.6,17-37.3,37.3-36.9
	C2494.5,2192.6,2513.4,2213.4,2512.9,2235.7z M2473.1,2239.1c3.1-4.6,6.6-8.3,6-9.2c-1.9-2.9-5.2-5.2-8.5-6.6
	c-0.7-0.3-5.4,4.7-4.9,6.3C2466.7,2232.7,2469.9,2235.2,2473.1,2239.1z"/>
<path d="M2522.1,2053.8c23.2-0.7,38.2,14.6,38.2,38.9c0,23.3-12.8,36.9-35.6,37.8c-22.4,0.9-39.9-13.1-41.1-32.9
	C2482.1,2074,2499.3,2054.5,2522.1,2053.8z M2523.6,2084.4c-3,4.6-5.9,7.4-6.6,10.8c-0.3,1.5,3.7,4,5.8,6c2.5-2.8,5.7-5.2,7.2-8.5
	C2530.4,2091.5,2526.8,2088.5,2523.6,2084.4z"/>
<path d="M1905.5,3296.9c-0.6,32.2-4.3,37.3-26.8,36.6c-25.9-0.8-46-17.7-44.8-37.6c1.1-18.5,25.1-38.5,46.2-38.4
	C1900.4,3257.5,1906.1,3266.3,1905.5,3296.9z"/>
<path d="M1624.5,1798.5c20.7-0.2,36.7,15.7,36.8,36.6c0.1,18.3-18.7,36-38.2,35.8c-17.2-0.2-35.1-20.1-35.4-39.6
	C1587.4,1813.7,1604.3,1798.7,1624.5,1798.5z"/>
<path d="M1899.5,2551.5c-0.4,21.1-17.4,38.1-37.1,37c-19-1-39.6-23.2-38.7-41.6c1-19.9,22.5-41.2,40.4-39.9
	C1882.2,2508.3,1899.8,2530.5,1899.5,2551.5z M1856.2,2562.9c6-7.4,10.3-11.5,12.8-16.5c0.5-1.1-6.4-7.9-7.3-7.5
	c-4.2,2.3-8.6,5.7-10.6,9.9C1850,2551.2,1853.4,2555.7,1856.2,2562.9z"/>
<path d="M2136.6,657.9c19.6,1.1,31.5,14.6,30.5,34.8c-1,22-22.5,46.4-39.5,45c-16.1-1.4-34.2-27.6-32.5-47.1
	C2096.9,670.4,2114.4,656.6,2136.6,657.9z M2132,688.2c-4.5,5.1-8.8,7.8-8.8,10.5c0,3.1,3.9,6.2,6,9.4c3-2.4,7.5-4.3,8.4-7.3
	C2138.4,698,2135,694.2,2132,688.2z"/>
<path d="M1946,584.1c-0.6,22.9-13.4,39.4-30.1,38.8c-18.9-0.7-38.5-22.5-37.4-41.7c1-17.6,16-31.6,34.3-32
	C1932.9,548.8,1946.5,563,1946,584.1z"/>
<path d="M2342.6,2588.8c-0.2,20.9-17,37.2-36.9,36c-11.7-0.7-25.7-18.2-26.3-32.8c-0.6-16.5,20.1-36.7,38.2-37.2
	C2333.7,2554.4,2342.8,2566.8,2342.6,2588.8z"/>
</svg>
