<?xml version="1.0" encoding="utf-8"?>
<!-- Generator: Adobe Illustrator 24.3.0, SVG Export Plug-In . SVG Version: 6.00 Build 0)  -->
<svg version="1.1" id="Layer_1" xmlns="http://www.w3.org/2000/svg" xmlns:xlink="http://www.w3.org/1999/xlink" x="0px" y="0px"
	 viewBox="0 0 4000 4000" style="enable-background:new 0 0 4000 4000;" xml:space="preserve">
<path d="M2809.8,236c-1.3,118.6,28.7,230.9,74.2,338.8c48.1,114,101,225.9,150.8,339.2c83.5,189.6,137.6,387.1,155.3,594
	c36.3,424.1-50.8,821-272.1,1184.9c-206.6,339.8-493.6,590.2-861.4,745.4c-72.4,30.6-145.3,60.3-218.3,89.4
	c-116.4,46.3-227.7,101.9-330.8,173.6c-54.8,38.1-114.8,65.6-181.6,75.2c-60.8,8.7-119.4,2.7-173-30.3
	c-35.3-21.7-55.1-54.1-60.8-94.6c-2.3-16.5-3-33.6-1.9-50.2c6.5-95.1-12-185.7-46.6-273.8c-41.7-106.4-85.1-212.3-123.7-319.8
	c-72.3-201.1-121.1-408-143.3-620.9c-13.6-130.9-17.3-262-4.2-392.9c16.3-163.3,50.3-323.1,108.5-477.2
	c95.8-253.8,235.8-479.4,428.8-671c112.4-111.6,238.6-205.1,376.8-282c75.1-41.8,151.1-82.2,228.3-119.9
	c129.6-63.4,252.1-137.5,367.2-224.5c64.6-48.8,134.4-89.5,210-119.5c55-21.8,111.8-37.4,171.4-34.6c27.8,1.3,55.9,8.1,82.6,16.5
	c42.1,13.1,61.1,45.7,63.5,88.3C2810.8,191.8,2809.8,213.9,2809.8,236z M2923.9,804.5c-4.3-10.6-7.4-19.2-11.2-27.6
	c-20.2-45-41.1-89.6-60.8-134.8c-45.4-104.3-81-211.8-93.4-325.4c-4.9-44.7-3.7-90-4.5-135.1c-0.5-29.6-5.7-40.6-33.9-48.9
	c-19.8-5.8-41.2-8.8-61.8-8.5c-48.6,0.7-95.7,11.5-140.8,30c-62.3,25.7-120.1,59.7-176.1,97c-82.9,55.2-164.3,113-249.2,164.8
	c-59.8,36.5-124.5,65-186.9,97.3c-13.3,6.9-26.2,14.8-41.5,23.4c63,64.6,125.7,121.5,206.3,153.9c35.9,14.4,73,26.1,109.7,38.5
	c11.2,3.8,20,9.1,17.1,21.9c-3.1,13.4-13.9,17.6-26.8,16c-5.2-0.6-10.2-2.3-15.2-3.8c-120-36.1-225.1-96.7-310-190
	c-6.2-6.8-10-15.8-15-23.8c-17,10.2-27.6,14.6-37.4,20.5c-65.5,39.6-132.1,77.5-195.9,119.7c-173.2,114.7-321.4,255.9-440.1,427.1
	c-19.4,28-20.6,29.5,7.8,49.7c84,59.7,172.1,112.7,268.8,149.2c62.7,23.7,127.1,42.8,190.8,63.9c25.1,8.3,25.6,9.2,13.9,38.7
	c-15.4-2.9-31.9-4.8-47.7-9.2c-125.8-35.5-245.8-84.6-358.3-151.6c-7.8-4.6-16.1-8.4-25.6-13.4c-6.7,9.6-12.9,16.7-17.2,24.8
	c-64.4,120.2-128.7,240.5-166.9,372.4c-1.5,5-3.5,9.9-5,14.9c-2.7,9.2-8.4,16.3-17.9,11.7c-4.3-2.1-7.5-11.6-7-17.4
	c0.9-10.3,4.1-20.6,8-30.3c12.8-32.2,28.4-63.3,39-96.2c31.2-96.4,77.3-185.7,125.8-273.9c2.5-4.6,5.8-8.8,8.2-13.4
	c4.4-8.3,4.6-16.3-4-22.1c-17.9-12.2-36-24.2-56.4-37.9c-10.4,16.4-19.8,30.1-28,44.4c-83.5,145.1-152.3,296.5-197,458.4
	c-39.6,143.4-62.2,289.3-65.8,437.7c-5.8,235.9,31.9,466.2,93.6,693.2c4.9,18,11.3,35.6,17.3,54.2c17.9-1.4,33.4-2.9,48.9-3.7
	c114.7-6.5,225.7,12.4,334.3,48.4c7,2.3,13.9,4.9,20.5,8c10.1,4.8,13.4,12.5,8.9,23.3c-3.9,9.3-10.3,12.8-19.9,10
	c-9.1-2.6-18.1-5.3-27.1-8.3c-105.6-35.4-214.2-50-325.4-44.4c-9.5,0.5-18.9,3.9-29.8,6.2c3.3,10.2,5,16.3,7.2,22.1
	c43.5,112.5,86.8,225.1,130.7,337.4c33.3,85.4,63.1,171.5,64,264.6c0.3,29.3-1.8,58.7-1.7,88.1c0.3,51.8,21,78.9,71.1,94.1
	c61.8,18.7,122.9,14.4,181.2-11.7c33.3-14.9,64.3-35.2,95.9-53.8c61.4-36.2,120.3-77.4,184.2-108.2
	c84.9-40.9,173.6-73.8,260.7-110.1c9.3-3.9,18.5-7.9,31.4-13.3c-10.9-14.9-18.5-27.3-28-38c-53.6-60.6-118.5-106.1-190.7-141.9
	c-8.4-4.2-18.2-7.5-24.2-14.1c-4.4-4.8-6.1-15-4.3-21.6c2.5-9.1,11.1-11.8,20.5-7.4c2.8,1.3,5.7,2.7,8.5,4
	c93.8,43.1,176.7,100.5,240.1,183.4c4.9,6.4,10.9,12,15.7,17.2c121.7-30.8,394.4-201.4,537.6-335.4
	c95.6-89.4,184.3-184.8,260.5-297.2c-18.7-3.2-31.9-4.8-44.8-7.9c-18-4.2-28.9,3.2-39.6,17.5c-63.5,85.5-139.2,159.4-219.7,228.7
	c-5.5,4.8-11.3,10.4-18,12.3c-5.9,1.7-13.1-1.1-19.7-1.8c0.9-6.7,0.4-14.1,3.2-19.9c2.6-5.3,8.8-8.8,13.3-13.1
	c50.6-48.7,101.3-97.3,151.8-146.3c5-4.8,8.3-11.3,14-19.4c-9.1-4.8-15.8-9.2-23.2-12.2c-20.4-8.2-41.1-15.7-61.6-23.7
	c-11.3-4.4-23.2-11.2-18.8-24.7c5.2-16,19.5-9.2,29.4-5.1c23.2,9.6,45.8,20.8,68.4,31.7c9.7,4.7,19.8,10.8,29.1,2.1
	c11.8-11.1,23.9-22.9,24.6-40.2c-3.3-2.5-4.7-4.4-6.6-4.9c-71.7-18.9-137-52.3-201.1-88.4c-8.1-4.6-17-9.3-22.8-16.2
	c-3.7-4.4-5.6-15.7-2.7-19.2c4.3-5.2,14-9.1,20.8-8.4c7.7,0.8,14.7,7.3,22,11.5c62.9,36.2,128.7,65.7,197.8,88.1
	c18,5.8,29.6,2.7,39.6-13.6c14.2-23.2,30.6-45.2,45.1-68.3c17.3-27.5,33.3-55.8,50.4-83.5c5.9-9.6,15-16.6,26.4-10
	c12.5,7.2,7.3,18.1,1.8,27.3c-14.5,24.3-29.2,48.5-44.4,72.4c-18.2,28.7-37.1,57-57.7,88.7c17.6,3.6,30.8,6.3,43.9,8.9
	c16.4,3.3,28.6-2.6,37.2-16.9c5.4-9,11.3-17.6,16.9-26.6c58-93.9,108.2-191.8,149.1-294.4c51.8-130,87.8-264.6,111.6-402.4
	c21.9-126.7,23.1-254.7,20.4-382.9c-0.2-8.1-2-16.2-3.1-25c-7.7-1.2-13.8-2.3-19.8-3.1c-62.3-8.5-125.2-14.1-186.8-26.1
	c-143.7-28-280.7-77.7-415.3-134.2c-3.8-1.6-7.5-3.7-11.1-6c-10-6.4-9.9-15.4-5.5-24.8c4.2-9.2,11.9-11.2,21-8.1
	c3.9,1.4,7.6,3.5,11.5,5.1c46.7,18.8,93,38.4,140.2,56c143.3,53.4,291,87.6,443.6,99.9c6.8,0.5,13.8-1.2,21.2-2
	c0.7-6.1,2-10.2,1.5-14.2c-11.6-100.1-25.9-199.7-51.4-297.4c-31.2-119.2-78.2-232.4-127.2-345c-10.5-24-24.4-32.9-50.2-32.2
	c-85,2.4-166.6-16-246.4-43.7c-8.7-3-17.7-6.9-24.6-12.7c-3.6-3-5.2-12.2-3.3-16.8c1.7-4.2,9.2-8,14.4-8.4c7-0.5,14.6,1.7,21.3,4.3
	c52.4,19.7,107.1,29.5,162.3,36.5C2861.2,808,2891.2,811.8,2923.9,804.5z"/>
<path d="M2154.4,2014.6c-0.4-60.8,47.1-109.1,109-110.6c57.5-1.4,109,46.6,109.4,103.2c0.6,77.6-50.3,115.9-111.1,119.1
	C2202.6,2129.3,2154.8,2077.5,2154.4,2014.6z M2303,2016.9c20.3,0.3,33.9-11.3,33.4-28.6c-0.5-17.1-15-30.6-33.1-30.7
	c-18-0.1-32.4,14.1-31.8,31.3C2272.1,2004.4,2285.8,2016.6,2303,2016.9z"/>
<path d="M1530.7,1997.1c-57.1,6.8-103.7-59.9-104.1-108c-0.4-58.8,52.5-111.7,110-110.5c59.6,1.3,109.9,49.9,110.2,106.7
	C1647.2,1941,1607,2000.8,1530.7,1997.1z M1571.1,1890.7c22.6,0,38.2-13.5,37.7-32.8c-0.5-18.9-14.9-32.5-34.7-32.8
	c-20.7-0.3-35,12.4-35.5,31.5C1538,1876.6,1551.5,1890.7,1571.1,1890.7z"/>
<path d="M1424.8,2547.7c1.7-11.2,3.3-20.9,5.3-33.9c205.7,32.8,389.4,111.5,562.6,219c-16.9,28-21.2,29.6-43.8,17.1
	c-40.4-22.3-80.1-45.9-121-67.3c-118.9-62.4-245-103.6-377.1-126.9C1442.9,2554.3,1435.3,2551,1424.8,2547.7z"/>
<path d="M890.9,2165.3c-0.7-88.1,4.4-170.6,18.2-252.5c1.7-10.2,4.8-20.4,9.1-29.6c1.5-3.2,9.4-5.7,13.4-4.6c3.7,1,7.5,6.8,8.5,11.1
	c1.2,4.8-0.5,10.3-1.2,15.5c-13.6,103-22.5,206.4-16,310.4c7.1,113,17.3,225.7,41.8,336.6c0.9,4.1,1.9,8.2,2.6,12.3
	c1.5,8.6,2.2,19.2-8.8,19.5c-6,0.2-15.7-7.3-17.6-13.3c-6.4-19.8-10.7-40.4-14.6-61C904.4,2394.3,888.2,2278.2,890.9,2165.3z"/>
<path d="M1891.5,2215.3c-82.6-3.4-147-54.6-155.7-145.2c-1.1-11.4-0.8-23-0.1-34.5c0.6-11,7.8-18.9,18.3-16.7
	c7.8,1.6,17.1,8.2,20.6,15.2c3.9,7.7,1.5,18.4,2.6,27.8c4.1,35.6,15.9,67.2,47.7,87.8c51.9,33.6,120.2,16.8,152.3-37.9
	c6.3-10.8,10.2-22.9,15.7-34.2c7.7-15.8,16.9-20.4,29.4-15.3c13.6,5.6,14.7,16.6,11.4,28.7c-12.8,47.9-39.2,86-84.9,107
	C1928.1,2207.5,1905,2211.4,1891.5,2215.3z"/>
<path d="M1331.8,3676.4c-17.1-0.1-26-4-26.6-17.5c-0.5-12.2,7.8-17.7,18-17c56.2,3.8,92.2-34.7,132.8-63
	c39.5-27.4,76.4-59.1,117.5-83.5c38.4-22.8,80.8-38.8,121.7-57.2c7.5-3.4,16-4.7,24.3-5.9c9.3-1.4,18.4,2.4,18.3,12.1
	c-0.1,6.4-5.6,15.6-11.3,18.6c-10.9,5.8-23.6,8-35.5,12c-77.5,26-145.3,68.8-207.8,120.7c-33.9,28.2-68.9,54.9-111,69.8
	C1357.6,3670.9,1342.1,3673.8,1331.8,3676.4z"/>
<path d="M1216.1,3447.4c0.3,11.1-0.5,21.4-15.3,22.3c-15.1,0.9-16.6-9.4-17.4-20.5c-6.2-92.4-39.5-177.1-73.1-261.8
	c-20.1-50.6-38.6-101.7-57.7-152.6c-2.2-5.9-5.8-12.1-5.3-17.8c0.5-6.1,4.1-15.3,8.3-16.7c4.8-1.5,12.8,3.2,17.7,7.3
	c3.6,3,4.7,9.1,6.5,14c30.7,80,61.2,160.2,92.2,240.1C1195.4,3321.6,1209.2,3383.6,1216.1,3447.4z"/>
<path d="M2871.9,912.9c15.1-10.6,24.7-6.2,31.7,4.8c8.4,13.2,16.2,26.9,23.3,40.9c60.4,120,98.5,246.8,113.9,380.3
	c1.4,11.8,7.6,28.6-9.5,31.6c-19.9,3.5-18.7-15.4-20.3-28.2c-11.8-92.8-31.2-183.9-67-270.6c-18.3-44.5-40-87.5-60.1-131.3
	C2879.6,931.2,2875.8,921.9,2871.9,912.9z"/>
<path d="M3068.8,1818c-9.4,138.5-33.1,274.1-84.6,403.7c-4.2,10.6-8.9,21.4-15.3,30.8c-2.5,3.7-10.4,5.1-15.7,4.8
	c-2-0.1-5.3-8.6-4.7-12.7c1.4-9.2,4.4-18.3,7.6-27.1c47.6-130.6,76.4-265,82.6-404c0.1-3.1,0.2-6.3,0.5-9.4c1-11.2,3.5-21.5,18-20.1
	c13.7,1.3,11.8,12.2,12,21.4C3069.4,1809.6,3069,1813.8,3068.8,1818z"/>
<path d="M1221.7,1156.3c6.4-11.1,10.4-19.4,15.5-26.9c71.3-106.2,161.1-195.6,255.8-280.4c12.4-11.1,26.7-20.3,41.4-28.3
	c4.5-2.5,12.9,2.1,19.5,3.5c-1.8,6.4-2.8,13.2-5.6,19.1c-1.6,3.4-6.3,5.3-9.6,7.9c-101.9,83.4-193.2,176.9-269.9,284.3
	C1259,1149.3,1249.3,1166.4,1221.7,1156.3z"/>
<path d="M2469.9,263.3c-7.6,4.7-16.3,9.9-24.7,15.5c-42.6,28.3-85.8,55.9-127.6,85.4c-59.9,42.2-118.6,85.9-178.1,128.6
	c-7.5,5.4-16.1,10.6-25,12.5c-5.5,1.2-14-2.6-18.1-7c-2.2-2.4,0.8-11.7,3.9-16.2c3.3-5,9.3-8.3,14.4-11.9
	c64.6-46.2,129-92.9,194.2-138.3c37.7-26.3,76.8-50.7,115.4-75.5c6.9-4.5,14.8-8.1,22.7-10.2C2458.5,243,2467.8,245.9,2469.9,263.3z
	"/>
<path d="M1824.5,632.2c21.7,17.9,41.7,34.7,62.1,51.1c47.9,38.3,101.2,67.2,158.4,89.1c11.1,4.3,26.8,5.4,23.2,23.7
	c-2.2,11.2-14.6,14-35.4,6.5c-53.5-19.4-104-45-149.5-79.5c-21.7-16.5-43.4-33.2-63.3-51.7C1804.4,656.8,1806.1,650.4,1824.5,632.2z
	"/>
<path d="M1028.2,2391.5c-16.8,6.5-27.2,1.5-28.5-14.3c-4.9-58.4-8.7-117-12.8-175.5c-0.2-3,0.7-6.3,1.5-9.3
	c2.5-9.4,5.3-19.2,18.1-17.2c11.3,1.7,10.7,11.2,11,19.6c1.2,31.4,1.8,62.9,3.7,94.3c1.6,27.2,4.8,54.2,7,81.4
	C1028.6,2377.4,1028.2,2384.6,1028.2,2391.5z"/>
<path d="M1966.4,2823.1c-10,5.7-15.7,11.6-21.1,11.4c-7.8-0.3-15.8-4.6-23.2-8.1c-38.6-18.4-77.1-37.2-115.7-55.8
	c-3.8-1.8-9.4-2.4-11.1-5.4c-3.6-6.5-9.1-16-6.7-20.8c2.6-5.1,13-7.2,20.4-8.7c3.3-0.7,7.6,2.9,11.3,4.7
	c39.5,19,79.3,37.6,118.3,57.5C1948.1,2802.8,1954.9,2812.4,1966.4,2823.1z"/>
<path d="M2144.7,1079.4c0.9,14.6-10.9,24.1-24.4,21.9c-12.2-1.9-24.4-5.6-35.9-10.3c-29.9-12.2-59.4-25.1-88.9-38.2
	c-5.5-2.4-12.2-6.1-14.3-10.9c-2.5-5.7-2.7-14.3,0-19.7c1.9-3.7,10.3-5.1,15.9-5.7c3.7-0.3,7.6,2.8,11.5,4.4
	c39.4,16.1,78.9,32.2,118.2,48.6C2133.9,1072.3,2140.2,1076.9,2144.7,1079.4z"/>
<path d="M1847.7,3359.3c-4.3,3.8-8,9.7-12.6,10.5c-5.5,0.9-12.4-1.5-17.6-4.5c-26.4-14.8-52.5-30.3-78.7-45.5
	c-9.4-5.4-14-13.2-10-23.5c4.2-10.8,14.8-14,23.4-8.6c30.1,18.6,59.4,38.7,88.6,58.6C1843.7,3348.5,1844.7,3353.5,1847.7,3359.3z"/>
<path d="M1381,2129.3c10-33.4,69.5-91.1,103.3-100.4c9.2,14.1,3,25.2-7.3,35.2c-21.1,20.4-42.4,40.6-63.8,60.6
	C1404.5,2132.8,1395.1,2139.7,1381,2129.3z"/>
<path d="M2446.3,2192.7c-5.5,9.5-9.4,20-16.4,27.7c-17.6,19.2-36.7,37.1-55.2,55.5c-3,2.9-6.1,7.5-9.5,7.8
	c-8.6,0.8-17.3-0.4-25.9-0.9c2.1-7.2,2.1-16.4,6.7-21.4c20.5-22.2,42.1-43.5,63.8-64.6C2419,2188,2429.4,2180.8,2446.3,2192.7z"/>
<path d="M2271.2,2270.6c5.8-10.2,8.4-18.2,13.7-23.6c21.8-22.5,44.3-44.2,66.6-66.1c2.2-2.2,4.7-4.2,7.3-5.9
	c7.9-5.5,17-11.9,24.9-2.7c8.8,10.1-1.6,17.1-7.8,23.4c-22.7,23-45.7,45.8-69,68.2C2296.2,2274.2,2295.8,2273.8,2271.2,2270.6z"/>
<path d="M1432.7,2015.2c-4,7.8-6.4,17.1-12.3,23c-25.4,26-51.5,51.4-78.4,75.9c-4.6,4.2-14.3,2.6-21.6,3.7
	c1.2-7.4-0.2-17.4,4.1-21.9c26.7-27.6,54.4-54.3,82.7-80.4c4.8-4.5,14.1-4.2,21.3-6.1C1429.8,2011.3,1431.2,2013.2,1432.7,2015.2z"
	/>
<path d="M1364.4,2007.3c-2.5,8.1-2.7,18.7-8.1,23.8c-19.1,18.1-32.6,43.8-65.6,50.9c-0.4-8.6-3.6-17-0.6-21
	c17.7-24.3,38.4-45.7,65.2-59.3C1358.4,2003.6,1361.4,2005.4,1364.4,2007.3z"/>
<path d="M2317.7,2173.5c-12.5,29.4-34.6,47.5-59.7,62.1c-8.2,4.8-17.4-3.7-16.2-12.6c2.4-17.7,47.3-55.9,65.7-55.5
	C2309.3,2167.7,2311,2169.6,2317.7,2173.5z"/>
<path d="M1512.1,2072.6c0,11.1,2.8,20.4-0.5,24.1c-13.2,14.5-27.9,27.8-43.1,40.2c-3,2.5-11.6,0.4-16.1-2.3
	c-1.9-1.1-1.6-10.8,0.9-13.6C1469.1,2103.5,1484,2084.7,1512.1,2072.6z"/>
<path d="M2936.1,2300.8c3.1,32.4-6.5,54.2-18,74.9c-2.4,4.3-11.9,4.7-18.2,6.9c-1.7-5.6-6-12-4.5-16.7
	C2902.7,2343.1,2908.7,2318.9,2936.1,2300.8z"/>
<path d="M2471.7,2230c-2.5,9.3-2.2,18.9-6.8,23c-16.2,14.5-26.7,37.6-52.7,39.4C2409,2268.9,2436,2239.3,2471.7,2230z"/>
<path d="M2212.3,1135.2c-10.5-8.5-20.1-15.2-28.2-23.5c-1.6-1.7,1.1-10.6,4.3-13.4c11.5-10.3,23.6-3.8,34.9,1.3
	c9.3,4.3,16.6,12.2,11.2,22.1C2231.4,1127.6,2221.8,1129.8,2212.3,1135.2z"/>
<path d="M1733.1,1444.5c-22.4,0.1-31.5-6.2-30.1-17.4c1.3-10.3,6.6-17.3,18.2-17.7c14.1-0.4,28.3,9.7,25.5,20.9
	C1745.1,1437.1,1735.8,1441.9,1733.1,1444.5z"/>
</svg>
