<?xml version="1.0" encoding="utf-8"?>
<!-- Generator: Adobe Illustrator 24.3.0, SVG Export Plug-In . SVG Version: 6.00 Build 0)  -->
<svg version="1.1" id="Layer_1" xmlns="http://www.w3.org/2000/svg" xmlns:xlink="http://www.w3.org/1999/xlink" x="0px" y="0px"
	 viewBox="0 0 4000 4000" style="enable-background:new 0 0 4000 4000;" xml:space="preserve">
<path d="M2920.1,1253.3c59.1,1.4,118.7-1.4,177.2,4.9c330.9,35.6,484,403.2,306,664.9c-58.2,85.5-136.4,142.7-233.9,171.8
	c-86,25.7-174,44.9-260.9,67.7c-25.4,6.7-51,13.9-74.9,24.4c-45,19.8-65,53.7-60.1,102.7c2.4,23.7,8.1,48,17.5,69.8
	c41,94.6,84.2,188.2,126.1,282.3c63.3,142.3,127,284.4,189,427.3c26.7,61.5,49.2,125.3,52.2,193c8.4,193.9-58.7,354.1-231,452.1
	c-165,93.9-334,85.5-496.7-14.5c-70.2-43.2-126.2-101.8-176.2-166.4c-60.4-78.1-120.2-156.7-180.9-234.6
	c-15.5-19.9-32.4-38.8-50.4-56.4c-38-37.2-68.4-37.7-104.1,2.4c-42.9,48.4-82.7,99.6-123.1,150.1
	c-56.1,70.3-108.8,143.5-167.9,211.2c-76.5,87.6-173.4,143-288.9,165.1c-229.1,43.8-459.3-95.7-528-319.1
	c-34.3-111.6-29.3-221.9,11.8-329.2c39.6-103.3,85.2-204.4,129.9-305.8c60.2-136.5,122.4-272.1,182.6-408.6
	c13.6-30.9,24.8-63.4,33.2-96.2c14-54.7-7.3-103.1-59.3-124.6c-42.2-17.5-87.6-27.3-132-39.2c-69.9-18.7-141.4-32.1-209.9-55
	C575,2029,456.6,1856.2,470.3,1653.3c13.6-201,146.2-356.9,345.3-394.7c74.4-14.2,148.6-7.8,223.1-3.6c44.9,2.6,89.9,4.2,134.9,4
	c40.6-0.2,51.4-15,41.2-54.1c-13.3-50.9-31.5-100.8-41.3-152.3c-45.4-238.8,9.2-455.2,153.4-649.2
	c97.6-131.2,224.2-224.3,379.4-277.6C2090-6,2502.6,163,2688.8,511c109.6,204.9,130.1,418.3,61.1,640.3
	c-5.9,18.8-11.9,37.8-15.6,57.1c-7.6,39.2,1.4,50.8,40.9,51.6c48.3,1,96.6,0.2,144.8,0.2C2920.1,1257.9,2920.1,1255.6,2920.1,1253.3
	z M2931.9,1304.3c0,0.8,0,1.6,0,2.4c-52.7,1.4-105.3,4.1-158,3.9c-45-0.2-76.2-22.5-88.9-60.4c-8.5-25.3-1.3-49.8,6-74.1
	c12.6-42,28.3-83.4,36.6-126.2c32.9-169.5,7.7-331.8-66.9-486.9c-148.5-308.5-486.5-486.6-820.4-421.6
	c-302.7,59-503,243.7-599.7,535.2c-52,156.6-43.7,316,9.2,472.6c6.3,18.7,13.2,37.4,16.7,56.7c9.1,50.7-16.8,89-66.6,100.4
	c-12.7,2.9-26,4.8-39.1,4.8c-24.1,0-48.2-1.6-72.3-2.8c-63.6-3-127.1-8.7-190.7-8.5c-101.7,0.3-192.1,34.5-265.5,105.9
	c-192,187-135.5,511.1,107.4,624.8c62.3,29.2,129,42,195,58.1c59.6,14.5,120,27.1,177.9,46.9c86.3,29.6,125.5,105.8,102.9,193.9
	c-9.2,35.9-22.9,71-38,105c-83.2,187.5-168.2,374.3-251,562c-26.5,60.1-53.7,120.8-71.3,183.8c-38.7,138.7-20,269.6,69.9,386.4
	c124.6,161.7,311.7,198.8,483.2,133.6c91.7-34.9,164.4-96.1,224.4-172.5c74.6-94.9,147.4-191.2,222.1-286
	c16.1-20.4,35-39.8,55.9-55.2c40.2-29.7,81.6-29.9,122.1-0.6c22.8,16.5,44.6,36.1,61.9,58.1c62.5,79.2,123.1,160,184.2,240.4
	c56.1,73.9,117.1,142,199.4,188.6c97.4,55.1,200.7,69.6,308.5,45.4c238.2-53.5,379.9-298.8,305.8-536.8
	c-29.2-93.9-70.7-184.2-110.4-274.5c-72.4-164.7-147.8-328.1-221.2-492.3c-12.9-28.9-24.7-58.8-32.8-89.4
	c-21.2-79.8,20.4-159.3,97.7-189c22.4-8.6,45.9-14.9,69.2-20.9c79.7-20.3,160-38,239.2-60.1c202.6-56.4,310.7-232.1,293.8-410.5
	c-15.2-160.4-136.9-321.8-344.8-339.8C3033.2,1300.6,2982.4,1304.3,2931.9,1304.3z"/>
<path d="M2712.5,1404c103-4.2,206-9.1,309.1-12.3c50.1-1.5,97.3,11.5,143.2,32.1c188.9,84.8,235.8,358.8,48.9,501.3
	c-42.5,32.4-90.9,53.1-142.6,65.5c-83.1,20-166.6,38.3-249.8,58.1c-26.6,6.3-53.4,13.1-78.9,22.9
	c-98.1,37.5-141.9,118.6-116.5,220.7c10.8,43.3,27.4,85.7,45.6,126.6c81.1,182.4,164.1,363.9,245.8,546.1
	c35.9,80.2,69.1,161.6,83.2,249c14.3,88.3,3.9,173.3-39.9,252.1c-73.1,131.7-213.1,180-348.2,155.4c-86.2-15.7-154.3-62-208.1-129
	c-56.3-70.1-110-142.3-164.5-213.8c-37.3-48.8-74-98.1-111.1-147.1c-5.3-7-10.9-13.8-16.7-20.3c-75.4-83.6-188.4-88.7-267.8-9.1
	c-32.3,32.4-59.7,70.1-87.2,107c-76.6,103-149.6,208.7-234.2,305.5c-66.4,76-149.2,117.7-251.3,116.1
	c-138.5-2.2-238.2-66.7-297.9-191.2c-41-85.7-44.5-175.3-20.4-266.5c23.7-89.5,62-173.3,99.5-257.4
	c78.1-175.3,157.3-350.1,234.6-525.8c15.3-34.8,26.3-72.1,34.5-109.4c19.2-86.7-20.8-167.1-101.9-203
	c-34.8-15.4-72.4-25.6-109.5-34.6c-78.8-19.2-158.6-34.6-237.1-54.7c-34.7-8.9-69-22.6-100.8-39.3c-108-56.5-159.4-150-156-269.1
	c3.6-123.2,63.2-214.5,178.6-265.3c35.7-15.7,73.7-22.9,112.2-22.1c72.3,1.6,144.6,6.7,216.9,9.3c68.9,2.5,137.6,15,206.8,3.4
	c59.7-10,87-50.5,70.7-109.3c-7-25.2-17.4-49.7-27.9-73.7c-48.2-110.2-76.1-225-68.3-345.5c14.5-222,108.1-402.8,292.2-531.2
	c154.7-108,328.1-141.1,511.4-102.3c235.5,49.9,398,192.2,486.4,415.3c74.6,188.4,59.8,376.1-17.7,560.8
	c-10.2,24.3-21.7,48.1-29.5,73.2c-18.3,58.5,8.7,104.3,69.2,113.4c31,4.6,63.3,0.8,95.1,0.8
	C2712.5,1405.5,2712.5,1404.8,2712.5,1404z M2860.8,2960.6c-4-10.7-6.3-17.8-9.3-24.6c-67.8-151.1-136.3-302-203.1-453.5
	c-24.7-56.1-48-113.1-67.7-171c-17.5-51.2-14.5-103.7,5.5-154.8c33.3-85,100.7-126.6,185.3-146.5c18.1-4.3,36.6-7.4,54.3-13.1
	c7.3-2.3,16.5-8.9,18.5-15.5c8.9-29.3,15.6-59.3,23-89.1c4.4-17.5-0.1-32.3-12.6-45.3c-13.7-14.2-27.7-28.3-40.4-43.4
	c-34.3-40.8-45.5-87.4-29.6-138.4c7.5-23.8,17.7-47.4,30.5-68.8c37.1-62.3,41.3-44.8,2.7-117.3c-15.7-29.6-15.6-28.1-51.1-26.1
	c-45.9,2.5-92.2,5.6-138,2.5c-54.1-3.6-99.9-25.8-123.3-79.3c-14.8-33.8-13.4-68.8-2.1-103c9.3-28,21.2-55.3,32.8-82.5
	c49.1-115.4,69.9-235,53.4-360.1c-19.6-148.7-80.7-278.3-188.5-382.4c-228.4-220.6-577-231.2-820-30.8
	c-161,132.7-231.3,310.6-226.4,518c2.2,94.4,28.1,183.9,64.3,270.7c12.6,30.3,24.7,61.2,32.4,92.9c14.6,59.7-13.9,116.4-70.1,140.2
	c-21.8,9.2-46.3,15.5-69.8,16.3c-44.8,1.4-89.8-2-134.7-3.6c-13-0.5-27.2-4.7-36,9c-11.8,18.5-22.9,37.4-33.7,56.4
	c-9.6,17-7.1,33.8,2.9,49.9c9.9,15.8,20.3,31.3,29.8,47.4c43.9,74.5,34.6,148.1-26.4,210.2c-7.7,7.8-15.6,15.4-23.4,23.2
	c-14.6,14.6-18.5,31.4-12,51.3c6.5,19.8,13.4,39.7,17,60.1c4,22.6,15,32.7,37.5,38.5c38,9.8,76.4,21,111.8,37.6
	c91.7,43.2,138.2,130.5,128,231.2c-4.6,45.2-17,88.3-35.5,129.6c-78,174.2-156.4,348.3-234.5,522.4c-5.5,12.4-9.6,25.4-15.1,40.1
	c13.3,2.1,21.7,4.2,30.3,4.8c61.8,4.1,105,34,128.8,91.6c5.8,14.2,12.9,27.9,19.8,41.6c11.4,22.7,28.8,35.1,55.5,32.3
	c18.5-2,37.2-2.8,55.8-3.9c63.9-3.7,113.7,19,143.9,77.6c8.5,16.6,15.3,34,24.1,50.4c21.8,40.6,81.9,46.2,109.9,10.4
	c11.5-14.7,22.2-30,33.7-44.7c37-47.6,71.1-98,112-142c93.9-101,243.1-101.2,340.1-3.2c19.2,19.4,36.4,41.1,53.3,62.6
	c34.5,44,68.2,88.7,102.3,133.1c12.2,15.9,26.9,24.1,48.3,20.6c26-4.2,44.9-15.5,56-40c9.1-19.9,18.8-39.6,29.5-58.7
	c21.3-37.8,54.3-61.2,97-66c30.2-3.4,61.3-1.3,91.8,0.7c34.7,2.2,46.9-3.1,63.5-33.9c10.4-19.3,20-39.1,30.6-58.3
	c18.6-33.7,47.2-54.3,84.9-61.9C2817.7,2968.2,2837.1,2965,2860.8,2960.6z M2424.3,3441.2c11,13.5,19.5,24.8,28.8,35.4
	c89.9,102.2,240.8,137.6,367.8,66.3c76.1-42.7,119.3-110.2,132.4-197.4c10.5-70.1,0.7-137.6-19.6-204.3c-2.8-9.2-10.2-21.4-18.1-24
	c-36.8-12-75.4,6.1-93.6,41.4c-6,11.7-10.8,24-17,35.6c-31.8,59.3-79.4,92.1-148.8,88.4c-18.6-1-37.3-1.3-55.9-1.2
	c-40.5,0.3-54.6,10.4-68.7,48.1c-2.3,6.2-4.6,12.3-6.4,18.6c-10.9,37.3-35.6,62.1-70.3,77.9
	C2445,3430.5,2435.7,3435.5,2424.3,3441.2z M1521.6,3439.1c-5.3-4.8-6.8-6.5-8.6-7.6c-2.8-1.7-5.7-3.5-8.8-4.4
	c-42.6-11.8-68.6-41.2-85.9-80.1c-4.9-11-10.3-21.8-15.1-32.9c-10.3-24-27.3-36-54.3-32.5c-16.3,2.1-32.8,2.8-49.2,4.3
	c-70.5,6.4-120.6-23.3-152.6-85.6c-9-17.6-17.4-35.5-27.5-52.4c-14.7-24.3-65.2-40.9-90.4-29.5c-6,2.7-11.5,10.3-13.7,16.8
	c-27.2,81.6-40.5,164.5-12.1,248.4c28.9,85.2,83.2,148.3,168.5,181.9c79.9,31.5,157.6,21.9,231.6-17.1
	C1451.3,3523.3,1489.5,3485.7,1521.6,3439.1z M963.3,1438.2c-47.1-3.7-89.5,1-130.3,15c-92,31.6-149.5,95.4-164.8,191.6
	c-15.5,97.6,15.8,180.3,95.5,240.9c39.5,30.1,85.9,48.3,133,63.5c8.9,2.9,18.6,3.3,27.7,4.8c0.9-4.4,2.1-6.6,1.7-8.5
	c-1.7-7.5-3.5-15-6-22.2c-19.7-55.5-5.5-103.4,32.9-145.7c11.1-12.2,22.9-23.7,33.6-36.2c21.6-25.2,23.2-43.2,6.1-71.6
	c-9.1-15-19.7-29-29.3-43.7c-28.9-44.1-37.2-90.7-17.4-140.9C951.5,1471,956.5,1456.7,963.3,1438.2z M3019.1,1954.8
	c51.2-11.9,95.5-28.7,138.4-51.5c119.6-63.8,159.3-214.7,94.2-336.3c-43.8-81.8-116.9-115.1-204.5-124c-20.1-2.1-40.6-0.3-64.1-0.3
	c3.5,10.3,4.6,16.8,7.6,22.1c35.1,61.3,24.4,117.6-17.3,171.2c-8.7,11.2-17,23-24,35.3c-12.7,22.2-12.3,44.1,5.4,63.9
	c10.2,11.4,20.8,22.6,31.7,33.3c33.5,33,48,72.9,43,119.4C3027.4,1908.4,3023.3,1928.7,3019.1,1954.8z M1041.8,3065.7
	c18.3,2,33.2,4.3,48.1,5.2c35.3,2.1,59.2,19.2,73.4,51.8c8.7,20.1,18.5,39.9,29.9,58.5c22,36.1,52.3,58.4,97.5,54.2
	c22.9-2.1,46-2.3,69-3.3c40.9-1.8,69,17.3,86.8,53.1c7.8,15.7,15.1,31.7,22.5,47.6c10.9,23.5,29.9,37.4,53.8,45.2
	c37.2,12.2,57.6,0.7,70.8-39.4c-0.7-0.8-1.2-2-2-2.2c-5.3-1.3-10.6-2.8-15.9-3.3c-37.9-3.6-62.3-23.9-75.1-59.5
	c-5.2-14.4-11.4-28.5-18.2-42.2c-20.2-40.3-52.1-60.7-98.2-57.1c-25.1,2-50.4,3.3-75.6,4c-33.5,0.9-59.7-12.7-76.5-42.1
	c-9.3-16.1-19.9-32.1-25.6-49.5c-17.9-54.1-56.8-74.5-110.6-75c-32.8-0.3-37.6,2-48.2,32.2C1045.8,3049,1044.8,3054.3,1041.8,3065.7
	z M2904.4,3063.4c-10.3-50.7-18.1-56.5-65.5-50.4c-5.4,0.7-10.8,2.1-16.2,2.8c-33.3,3.9-56.6,20.8-70.3,51.9
	c-9.2,21-20.1,41.4-31,61.7c-17.2,32.1-44.5,47.7-80.7,46.8c-25.2-0.6-50.4-2.3-75.6-3.9c-49-3-81.9,15.9-103,60.1
	c-7.1,14.8-13.3,30.1-19.1,45.5c-10.8,29.1-31.1,47-60.8,55c-9.1,2.5-18.1,5.5-27.5,8.4c20.8,47.1,43.5,57.1,82.5,34.7
	c14.3-8.2,26.4-22.7,35.8-36.7c10.8-16.3,17.2-35.4,26.1-53c19.6-38.9,50.2-59.6,95-57.4c21.9,1.1,43.9,1,65.8,1.4
	c46.1,0.7,80.1-18.6,100.8-60.5c7.8-15.7,16.6-30.9,24.5-46.6c16.8-33.1,43.5-51.1,80.4-54.6
	C2878.7,3067.2,2891.5,3065.1,2904.4,3063.4z M2892.1,1973.8c49,8.8,63.2,1.1,76.1-38.8c4.7-14.6,7.5-29.7,11.5-44.5
	c8.4-30.4-0.7-56.3-20.6-79.2c-12.2-14.1-25.2-27.5-37.5-41.5c-37.5-42.5-41.1-80.3-11.2-128.9c10.9-17.7,24.2-33.9,35.9-51.1
	c16.3-24.1,21.8-50.3,10.7-78.1c-5.7-14.2-12-28.4-19.9-41.5c-18.5-30.9-35.7-34.8-74.8-16.3c6.1,10.2,11.8,20.3,17.9,30
	c22.9,36.2,24.4,71.9-2.4,107c-4.7,6.1-9.6,12.1-13.3,18.8c-10.2,18.1-21.3,35.9-29.6,54.9c-15.8,36-12.5,70.9,12.4,102.2
	c15.7,19.7,31.9,39.1,48.9,57.7c23.9,26.2,29.9,54.9,17.1,88.1C2905.8,1931.9,2899.7,1951.6,2892.1,1973.8z M1083.3,1453.7
	c-23.3-14.2-43.3-14.3-61.3-0.1c-36.6,29-48.8,90.6-25.9,131.6c10.6,19.1,24.4,36.4,36.7,54.5c33.9,49.6,30.3,92.8-11.7,136.3
	c-12.2,12.6-25.3,24.3-37.7,36.8c-21.9,22-29.8,48.2-21.5,78.4c4.3,15.8,9.1,31.6,14.6,47.1c12.2,34,30.3,42.2,72.4,31.3
	c-4.9-15.4-8.7-31.2-14.8-46c-17.4-42.8-8.4-79.2,24.2-110.9c8.7-8.4,17-17.1,25-26.2c44.1-50.4,47.6-92.4,12.6-149.8
	c-10.8-17.8-22.1-35.3-33.1-53c-20.2-32.4-18.9-63.9,2.7-95.5C1072.8,1477.8,1077.2,1465.8,1083.3,1453.7z"/>
<path d="M1970.2,2142.2c-67.3-0.9-118.9-53.7-117.5-120.1c1.4-65.4,57-119.2,121.5-117.7c64.8,1.5,121.7,60.4,119.5,124.7
	C2092,2080.9,2053.3,2146.7,1970.2,2142.2z M1970.6,2095.2c43.1,0.9,72.6-25.1,74.2-65.5c1.6-41.2-28.5-73.1-70.3-74.3
	c-43.9-1.3-73.1,26.1-73.9,69.4C1899.9,2065.2,1928.9,2094.3,1970.6,2095.2z"/>
<path d="M1972.7,2523.8c-65.4-0.5-119.9-53.2-119.3-115.2c0.7-69.1,54-123.6,119.8-122.6c66,1,120.8,56.6,121,122.7
	C2094.4,2475.2,2042.5,2524.4,1972.7,2523.8z M2044.5,2404.3c-0.4-38.4-32.7-70.6-71.2-70.9c-40.8-0.4-71.8,31.9-70.7,73.7
	c1.1,41.9,29.7,70,70.7,69.6C2016.7,2476.2,2045,2447.5,2044.5,2404.3z"/>
<path d="M1972.2,1535.2c61.8,2.3,118.6,45,121.3,121.8c2.2,61.3-55.3,114-120.1,114.7c-64.8,0.7-121.2-54.7-120.2-118.1
	C1854.2,1586.1,1905.6,1535,1972.2,1535.2z M2043.8,1655.1c-0.1-39.9-30.7-72.2-69-72.9c-40.6-0.7-75.5,31.9-75.5,70.7
	c0,38.4,32.6,69.9,72.1,69.6C2015,1722.1,2043.9,1695.3,2043.8,1655.1z"/>
<path d="M1676.5,816.1c52.5,1.1,96,44.2,94.5,93.6c-1.7,54.4-45.7,91.8-103.1,92.9c-48.4,0.9-87.7-53.5-86.2-98.3
	C1583.2,861.2,1620.2,811.3,1676.5,816.1z M1668.6,878.8c0.1-16.7-8.2-27.8-20.9-27.9c-15.7-0.1-29.8,13.5-30.1,29.1
	c-0.3,13.8,10.9,25.5,24.5,25.8C1657.7,906.1,1668.5,895.1,1668.6,878.8z"/>
<path d="M2276.6,1002.7c-52.2-0.3-94.9-43.5-95.3-96.7c-0.4-52.7,37.6-88.2,91.3-90.4c46.9-1.9,97,42.3,95.2,96
	C2365.9,964.4,2328.1,1003,2276.6,1002.7z M2248.3,849c-18.1-0.6-34.1,14.1-34.4,31.7c-0.3,14.6,9.6,24.6,24.2,24.5
	c16.3-0.1,30.1-14.6,30.2-32C2268.4,858,2261.4,849.4,2248.3,849z"/>
<path d="M1973.8,1166.3c-61.4-3.1-114.9-41.4-133.5-98.7c-2.7-8.3-4.5-17.1-5.2-25.7c-0.9-10.6,2.6-19.3,14.4-22.7
	c11.4-3.3,19.4,0.6,24.3,10.9c4.7,9.9,8.5,20.2,12.9,30.2c18.6,42.1,47.4,61.3,89.1,59.7c41.5-1.7,71.2-23.8,86.2-64.4
	c2.3-6.2,4-12.6,6.5-18.6c7.4-17.4,15.8-22.6,29.2-18.1c15.7,5.2,14.8,18.5,12.2,30c-9.6,42.4-30.7,78.2-70.9,97.7
	C2018.8,1156.3,1995.6,1159.9,1973.8,1166.3z"/>
<path d="M1506,577.8c-15.8-0.9-21.6-11.3-15.9-22.2c5.6-10.6,12.8-20.4,19.8-30.1c31.1-42.8,67.9-80.3,110.2-111.8
	c16.3-12.1,36.3-19.9,55.6-27c5.4-2,14.3,5.2,21.6,8.2c-3.2,6.2-4.8,14.6-9.8,18.2c-11.5,8.2-25,13.5-37,21
	c-50.9,32-89.6,76.5-125.5,123.8C1518.8,566.2,1510.8,572.9,1506,577.8z"/>
<path d="M1570.3,1122.5c0-3.1-1.3-7.1,0.2-9.1c17.2-24.1,34.1-48.4,52.8-71.3c4.2-5.2,16.9-9.5,21.9-6.9c9.5,4.9,5.9,15.3,0,22.6
	c-15.2,18.7-30.5,37.3-46.6,55.2C1589.8,1122.8,1589,1122,1570.3,1122.5z"/>
<path d="M2381.8,1029.6c-14.9,34-37.4,62.7-58.8,91.8c-3.4,4.6-12.6,5-25.8,9.7c10.7-41.2,39-63.7,56.2-92.6
	C2358.2,1030.4,2365.1,1022.3,2381.8,1029.6z"/>
<path d="M1607.4,1024c-25.8,39.3-45.4,73.9-77.1,104.7c-4.4-7.4-10.9-14.9-9.6-16.6c22.1-29.3,45.1-58,68.2-86.5
	C1590.2,1023.9,1594.8,1024.9,1607.4,1024z"/>
<path d="M2437.1,1040.4c-16.3,28.4-36,54.7-56.8,80.2c-3.2,4-10.6,4.5-23,9.4c10.8-39.1,32.4-64,53.6-88.7
	c4.2-4.9,13.8-5.3,20.9-7.8C2433.5,1035.9,2435.3,1038.2,2437.1,1040.4z"/>
<path d="M1549.3,1028.7c-14.2,30.6-26.5,53.8-53.1,75c-2.3-11.7-6.7-19.9-4.2-23.8C1504.8,1060,1514.5,1035.7,1549.3,1028.7z"/>
<path d="M1475.5,612.6c4.2,31.5-8.5,52.2-27,72.4C1430.4,659.3,1442.3,627.6,1475.5,612.6z"/>
<path d="M2270.2,1098.7c4.7-31.7,25.8-57.1,52.2-62.8C2316,1070.3,2292.4,1098.7,2270.2,1098.7z"/>
<path d="M1673.5,1065.2c-0.6,29.7-14.1,47.4-41.5,57.9C1631.1,1098.1,1644.2,1079,1673.5,1065.2z"/>
<path d="M2465.6,1061.2c-1.3,30.9-20.4,45.9-42.7,60.6C2418.4,1096.6,2434.9,1072.9,2465.6,1061.2z"/>
<path d="M2685.4,3520.8c9.5-1.7,19.9-3.5,30.3-5.5c61.1-11.4,111.3-39,142.3-95.3c6.1-11,13.9-18.1,26.2-10.1
	c12.6,8.2,7.3,18.9,1.4,28.7c-26.9,45-63.8,78.2-114.8,92.7c-21.9,6.2-44.8,9.5-67.5,12.2
	C2691.1,3545.2,2681.5,3539.9,2685.4,3520.8z"/>
<path d="M1139,3482.5c6.8,2.6,14.1,4.4,20.4,7.9c43,23.8,89.3,35.4,138,38.4c21.7,1.3,41.5-2.9,57.2-19.3c8.8-9.1,19-15.9,32-11.1
	c3.7,1.4,8.7,10.6,7.6,11.9c-7.1,9-14.2,19.4-23.9,24.7c-62.1,34.3-165.8,23.7-220.4-22c-7.4-6.2-12.2-15.7-18.1-23.7
	C1134.3,3487.2,1136.7,3484.9,1139,3482.5z"/>
<path d="M3231,1616.7c-24.2,8.1-28.9-5.8-34.6-17.4c-17.3-35.5-41.4-65.2-79-79.1c-22.9-8.5-48.1-11.1-73.8-16.7
	c-5.9-18.7-3-24.6,16.8-27.3c25.9-3.6,50.3,3.8,72.8,14.9c40.2,19.9,71.8,49.5,90.2,91.2C3227.9,1592.4,3228.4,1604.4,3231,1616.7z"
	/>
<path d="M3232.3,1653c18.3,3.2,23.5,13.5,21.2,24.3c-1.7,7.8-8.9,17.4-16.1,20.4c-8.6,3.6-21.4-13.2-18.3-25
	C3221.2,1664.9,3228.5,1658.5,3232.3,1653z"/>
</svg>
