<?xml version="1.0" encoding="utf-8"?>
<!-- Generator: Adobe Illustrator 24.3.0, SVG Export Plug-In . SVG Version: 6.00 Build 0)  -->
<svg version="1.1" id="Layer_1" xmlns="http://www.w3.org/2000/svg" xmlns:xlink="http://www.w3.org/1999/xlink" x="0px" y="0px"
	 viewBox="0 0 4000 4000" style="enable-background:new 0 0 4000 4000;" xml:space="preserve">
<path d="M722.8,918.7c30,0,60-0.9,90,0.2c43.7,1.6,85-7.8,125.1-24.4c15.8-6.5,31.8-12.8,47.8-18.6c76.3-27.7,149.9-18.7,219.9,19.8
	c34.7,19,66.9,42.4,100.9,62.6c27.5,16.4,55,33.7,84.4,46c40.2,16.8,63.9,4,66.5-39.6c2.9-47.7-1.5-96-4.5-143.9
	c-2.7-43.6-12.5-86.6-3.5-131c10-49,31.2-91.1,68.3-124.3c21.5-19.2,44.9-36.4,68.1-53.6c29.6-22,55.4-47.5,73.9-79.4
	c24.7-42.6,47.5-86.3,72.3-128.8c24.8-42.5,49.7-85,77.1-125.9c21-31.4,49-56.9,82.4-75.2c78-42.6,169.1-27,238.9,40
	c36,34.6,62,76.4,86.7,119.1c26.8,46.3,53.3,92.9,77.9,140.4c25.3,48.8,61.2,87,105.6,118.8c26,18.6,52.9,37.7,73.5,61.6
	c44,51.1,59.8,112.8,52.9,179.7c-3.7,36.2-10.4,72.1-13.6,108.3c-2.6,29.8-4.7,60-2.3,89.7c3.7,44.8,29.4,58.7,71.6,41.6
	c12.8-5.2,25.3-11.7,37-19.1c42.6-26.7,84.3-55.1,127.6-80.7c23.8-14.1,49.4-25.8,75.4-35.1c63-22.6,125.3-14.1,184.4,13
	c63.9,29.3,130,40.4,199.8,37.9c57.8-2.1,115.7-1.3,173.5,0.2c40.8,1.1,80.6,8.6,117.7,27.9c76.5,39.7,114.2,110.7,102.4,196.5
	c-8.9,64.9-36.3,122.8-69.3,178.4c-17.5,29.5-35.1,58.9-53.1,88c-32.7,52.8-51.6,110.2-59.9,171.5c-3,22.2-7,44.5-12.3,66.3
	c-15.7,65.5-51.1,118-110,151.5c-48.3,27.5-98.8,51.2-147.9,77.4c-16.9,9-33.8,19-48.2,31.4c-22.6,19.5-23.7,42.8-2.9,64.3
	c12.4,12.8,27.8,23.6,43.6,32c33.9,18.2,69.2,33.9,103.5,51.5c20.9,10.7,41.5,22.2,61.6,34.5c63.2,38.6,98.7,96.3,113.6,167.8
	c1.5,7.3,3.7,14.7,4.1,22.1c3.8,86.2,38,161.1,81.8,233.7c26.5,43.9,49.4,90.1,70.7,136.8c22,48.3,34.2,99.3,22,153.1
	c-14.7,64.6-53.9,108.2-115.3,131.9c-50.7,19.6-104.2,24.3-157.7,25.6c-46,1.1-92.1-0.5-138.1-1.7c-60.5-1.6-118.4,4.3-174.6,32
	c-88.6,43.7-176.6,34.6-259.9-17.7c-43.5-27.3-86.2-56-129.8-83.2c-15.4-9.6-31.8-18-48.8-24.1c-38.2-13.9-63.6,2.2-66.8,42.9
	c-1.8,22.3-0.8,45,1.1,67.3c3.5,42.7,7.8,85.3,13.1,127.8c11.8,95.2-21.1,172.1-100.1,224.8c-61.6,41.1-106.8,94.1-143.3,157.3
	c-31.6,54.6-64.5,108.8-100.7,160.4c-21.2,30.3-47.5,58.3-76.1,81.9c-63,52-154.3,53.8-221.8,8.4c-38.8-26.1-70.9-58.9-96.3-97.9
	c-22.2-34.1-42.5-69.4-62.8-104.6c-18.2-31.5-35.1-63.8-53-95.5c-22.4-39.7-51.9-73.3-89.4-99.6c-2.6-1.8-5.1-4-7.8-5.6
	c-102.4-61.4-131.7-154.3-116.6-267.3c5.5-41.3,9-83,12-124.6c5.2-72.2-30.6-102-101.6-61.4c-29.7,17-57.5,37.3-86.7,55.2
	c-30.1,18.5-59.8,37.9-91.5,53.3c-70.8,34.5-144.8,41.2-217.3,7.7c-70.3-32.5-143.3-38.8-219.1-38.6c-68.4,0.2-136.9-3.5-205-9.4
	c-46.7-4-89.4-22.6-123.1-56.8c-51.5-52.4-62.7-116.9-44.8-184.7c11.3-42.9,31.2-84.1,51.5-123.9c23.8-46.7,52.9-90.6,78.4-136.4
	c25.3-45.3,41.3-93.8,46.7-145.8c2.2-21.2,6.8-42.2,11.1-63.2c14.6-70.5,55.2-122.2,117.6-156.5c34.7-19.1,70.9-35.4,106.2-53.2
	c22.9-11.6,46.7-22,68.1-35.9c45.7-29.7,46.4-65.8,1.2-95.6c-26.7-17.6-56.1-31.1-84.2-46.6c-34.7-19.1-69.8-37.5-103.7-57.7
	c-64.1-38.3-96.3-98.3-112.1-168.9c-1.6-7.3-3.6-14.7-4.1-22.1c-5.5-82.4-38.6-154.9-79.1-225.2c-24-41.7-46.4-84.5-66.4-128.2
	c-12.3-27-21.2-56.3-27.4-85.4c-23.5-110.7,35.1-204.4,145-231.5c28.9-7.1,59.2-9.9,89-11.5c36.3-1.9,72.8-0.5,109.2-0.5
	C722.8,918.4,722.8,918.5,722.8,918.7z M3241,2909.6c0,0.3,0,0.6,0,0.8c37.5,0,75.2,2.8,112.4-0.8c38-3.6,76.9-9.3,112.9-21.5
	c64.6-22,93.3-71.3,88.2-139.8c-3.3-44.7-19.2-85.5-39.8-124.5c-22.5-42.6-45.6-84.9-69.4-126.8c-32.2-56.4-56.5-115.3-61.4-180.9
	c-0.9-11.7-3.6-23.3-5.7-34.9c-13.1-74.2-51.1-130.7-118.2-166.6c-14.1-7.6-28.5-14.8-43.1-21.5c-27.3-12.5-55.8-22.6-81.9-37.1
	c-25.9-14.4-52.7-29.8-73.4-50.4c-36.4-36.4-35.6-89.5-1-127.5c12.7-13.9,28.8-25.8,45.4-34.8c44.2-23.9,89.3-46.2,134.5-68.4
	c76.4-37.4,120.7-98.1,130-182.3c10.5-95,47.7-179,98.2-258.7c24.5-38.8,46.5-79.4,66.9-120.6c18.3-36.9,26.7-76.8,22.3-118.4
	c-6.1-58.3-36.5-98.3-92.9-114.2c-32.6-9.2-67-15.5-100.8-16.8c-59.9-2.4-119.9-0.6-179.9,0.6c-59.7,1.1-117.4-7.1-172-32.3
	c-12.6-5.8-25.9-10.2-39-15c-62.9-22.8-124.4-19-182.9,13.4c-29.9,16.6-57.9,36.5-87,54.6c-27.2,17-53.9,35.2-82.3,50
	c-18.7,9.7-39.6,16.8-60.3,20.6c-35.5,6.6-65.8-9.8-82.6-42c-16.4-31.3-21-64.9-16.2-99.8c5.3-38.2,9.9-76.4,16.2-114.4
	c17.3-104.5-11.7-187-106.7-243.4c-55.5-33-93.5-84.2-123.6-140.9c-10-18.9-18.3-38.9-29.5-57c-34.3-55.5-66.4-112.7-105.2-164.8
	c-49.2-66.1-151.8-109.4-241.6-15.8c-19.1,20-37.6,41.5-51.9,65c-33.9,55.8-65.9,112.8-97.2,170.1c-31.7,58.2-72.2,108.5-125,148.9
	c-16.1,12.4-31.2,26.2-46.9,39c-38.4,31.2-56.2,72.5-56.7,120.9c-0.3,32,2.6,64.1,4.5,96.2c2.4,39.5,6.5,79,7.4,118.5
	c0.4,18.9-2.4,38.8-8,56.9c-16,51.9-54,74-106.8,60.2c-25.5-6.7-50.1-18.6-73.3-31.4c-27.1-15-51.5-34.6-78.2-50.6
	c-30.3-18.1-60.9-36-92.8-50.8c-41.3-19.1-84.9-21.2-128.6-7.7c-16.3,5-32.1,12-47.8,18.7C918,954.3,863,965.9,805.3,965
	c-55.7-0.9-111.4-2.8-167.1-0.8c-38.3,1.4-76.9,6-114.4,13.9c-62.7,13.2-101.2,58.3-105.4,121.1c-1.3,19.9,2.2,40.7,6.9,60.2
	c16.8,69.4,46.6,133.3,86.1,192.5c47.7,71.5,80.1,147.7,86.6,235.1c5.9,79.3,48.2,138.1,117.2,177.4c20.4,11.6,41.4,22.5,62.4,33.2
	c26.7,13.6,54,26.1,80.6,39.9c25,13,46.8,30.2,62.4,54.2c28.3,43.4,22.1,90.1-17.5,123.6c-12.2,10.3-25.8,19.3-40,26.5
	c-46.7,23.8-94,46.4-141,69.7c-68,33.7-110.2,86.7-120.7,163.1c-1.5,10.6-3.7,21.1-5.2,31.7c-6,41.5-14.9,82.4-33.8,120.1
	c-23.1,45.9-47,91.4-71.9,136.2c-26.5,47.7-55.4,94.3-70.6,147.3c-20.8,72.3,6.7,162.2,103.6,188.1c27.6,7.4,56.9,10.8,85.5,11.6
	c67.4,1.8,135-0.8,202.4,1.9c34.9,1.4,70.1,7.8,104.1,16.1c30,7.3,58.5,20.5,87.7,30.7c45.3,15.8,90.6,14.4,135.1-2.7
	c17.9-6.9,35.8-14.5,52.2-24.4c40.3-24.3,79.1-51.2,119.8-74.9c25.7-15,52.5-29.6,80.8-38.1c54.8-16.4,99.1,8.3,114.2,63.2
	c6.6,24.2,8.5,50.8,7,75.9c-2.6,43.7-10.9,87.1-14.1,130.9c-2,27.5-2.1,55.8,2.7,82.8c9.8,55.4,47,93.1,92.4,121.9
	c56.3,35.7,93.9,86.4,125,143.7c28.6,52.7,56.3,106.1,88.6,156.4c21.2,33,47.5,63.7,75.9,90.7c69.7,66,150.8,40.9,198,0.8
	c30.4-25.8,57.6-54.5,78.8-88.4c15.9-25.4,31-51.3,45.4-77.6c50.7-92.8,106-181.6,199.8-238.1c1.8-1.1,3.4-2.6,5.1-3.9
	c34.4-26.9,53.8-62.5,63.5-104.8c9.6-42.1-0.5-83-4.2-124.4c-4-44.7-10.8-89.5-10.3-134.2c0.7-65.5,50.5-130.6,141.8-88.4
	c14.5,6.7,28.7,14.4,42.4,22.8c20.1,12.3,39.2,26.2,59.3,38.4c34.7,21.2,68.8,43.5,104.9,62c47.6,24.5,98.1,29.2,149.5,11.7
	c19.2-6.5,38.3-13.7,57-21.6c45.9-19.5,93.3-30.6,143.6-28.8C3185.3,2910.4,3213.1,2909.6,3241,2909.6z"/>
<path d="M3209.1,2833.5c-53.6-2.7-115.5,3.8-175.3,29.3c-58.5,25-119.7,26.1-178.4,1.3c-67.9-28.7-134.3-61-201.1-92.4
	c-32.9-15.5-64.8-33-97.8-48.4c-11.5-5.4-24.3-8.7-36.9-10.4c-55.6-7.7-102,23.3-117.1,77.4c-12.1,43.3-7.2,87.2-4.7,131
	c2,35.3,5.9,70.4,7.7,105.7c4,78.7-19.1,146-84.8,194.2c-56.6,41.5-99.2,93.5-126.9,158.4c-13,30.4-28.9,59.9-46.5,87.9
	c-14,22.4-30.9,43.7-49.5,62.4c-67.3,67.3-198,70.6-265.9-30c-27.4-40.6-54-82.8-73.7-127.5c-25-56.9-61.9-102-110.5-139
	c-5.1-3.9-10-8.1-15.4-11.6c-50.3-33-72-81.7-71.3-139.6c0.7-65.2,4.8-130.4,8.8-195.6c2.1-34.5,2.5-68.4-8-101.8
	c-19.4-62.1-67-88.3-126.9-64.5c-40.5,16.1-78.3,39.2-117,59.7c-54.8,29.1-108.3,60.8-164.3,87.5c-57.9,27.6-119.6,28-177.8,2.3
	c-76.5-33.8-155-46.3-237.8-40.5c-39.6,2.7-79.1-1.2-115.1-21.9c-66-37.9-96.5-107.4-74.8-180.7c8.4-28.4,21-56.4,36.2-81.8
	c40.1-66.9,60.1-138.4,63.5-216.2c3.9-89.8,46.4-156.5,129.2-195.3c54.3-25.4,108.8-50.3,162.9-76.1c16.4-7.8,32.5-16.6,47.3-27
	c66.1-46.3,65-134.7-4.1-175.8c-38.4-22.9-81.1-38.5-121.2-58.8c-41.9-21.2-84.5-41.8-124.2-66.8c-55-34.7-79.6-87.4-79.1-152.4
	c0.4-46,2.6-92.9-18.7-135.6c-13.8-27.7-29.9-54.4-46.9-80.2c-21.9-33.4-41.3-67.7-50.4-106.9c-10.7-46.3-8.9-91.4,15.8-133.7
	c21.5-36.7,52.3-59.3,95.5-61.7c36.3-2.1,72.7-4.6,109-3.3c60,2.1,117.3-6.9,172-31.8c4.9-2.2,10-3.9,14.7-6.4
	c72.1-38.7,144.4-35.2,215.5,1.2c59,30.3,116.2,64.1,175.2,94.5c33.1,17.1,67,34,102.5,44.6c51.2,15.3,102.1-16.6,117.5-67.8
	c12.1-40.1,8.7-80.5,3.9-121.1c-5.8-48.9-11.5-97.8-17.4-146.7c-9.7-79.3,20.1-142.3,79.2-193.4c2.4-2.1,4.7-4.4,7.4-6.2
	c65.4-42.4,105.7-104.4,138.3-173.4c15.9-33.7,34.6-66.8,56.6-96.8c36.3-49.6,85.4-80.9,148.6-84.2c66.5-3.4,119.1,26.4,158.5,76.5
	c26.8,34.2,46.8,74,68.6,111.9c10.1,17.6,17.3,36.8,26,55.2c16.6,35.4,39.7,65.9,69.3,91.5c8.1,7,15.9,14.3,24,21.4
	c58.5,50.8,88.8,114.7,85.8,192.5c-2.3,59.9-8.6,119.7-10,179.6c-0.7,31.7,1.4,64.7,9.5,95.1c13.5,50.9,57.3,75,109.2,64.4
	c19.7-4,39.7-9.8,57.7-18.5c30.8-14.8,60.4-32.2,90.1-49.1c55.8-31.7,110.4-65.7,173.4-82.5c48.3-12.9,95.2-11.5,141.6,7.2
	c11.9,4.8,24.2,8.6,36,13.8c69.4,30.3,141.9,37,216.9,32.6c34.9-2,70.7,0.5,105.1,6.6c43.7,7.7,70.6,37.2,83.9,79.7
	c17.9,57.4,11.9,112.2-17.3,164.4c-16.2,29-33.6,57.2-50.9,85.6c-22.2,36.5-33.8,75.6-35.8,118.5c-1.5,33.1-5.2,66.3-11,98.8
	c-9,49.6-34,91.4-77.4,117.2c-44,26.1-91.2,46.7-137.1,69.5c-35.4,17.6-71.8,33.5-106.4,52.7c-39,21.8-57.5,56.1-53.3,101.7
	c2.1,23.2,9.1,44.8,26.8,60.2c17.6,15.3,36.3,30,56.5,41.6c50.2,28.6,102.2,54,152.1,83c67,39,108.7,97.7,116.8,175
	c9.3,89.1,43.2,167,93.3,239.7c21.3,30.9,41,63.1,47.3,101.1c14,84.9-31.5,171.3-133.3,178.5
	C3268.6,2834.9,3243.9,2833.5,3209.1,2833.5z M3202.3,2796.8c15,0,30,0.3,45-0.1c16.1-0.4,32.2-0.5,48.1-2.2
	c43.5-4.6,78.4-32.9,88.4-73.1c8-32,6.7-64.1-9.9-93.7c-12.5-22.4-26.3-44.2-39.6-66.1c-43-71-81.4-143.6-86.1-229.1
	c-0.6-10.6-3.3-21.1-5.3-31.7c-9.7-51-34.3-92.2-80.2-118.4c-34.4-19.6-69.4-38-104.3-56.7c-29.2-15.7-59.4-29.8-87.8-46.8
	c-28.7-17.2-53.4-39.3-67.9-70.9c-31.8-69.1-9.9-148.8,56.1-192.2c27.5-18,58.9-30.2,89-44c50.6-23.1,102-44.3,152.2-68.3
	c46.3-22.2,69.9-61.9,76.1-111.8c3.3-26.5,2.8-53.5,6-80c3.2-26.4,4.7-54.1,14.3-78.4c14.1-35.5,33.6-69.1,52.9-102.3
	c20.5-35.4,39.9-70.8,45.8-112.1c9.3-65-34.1-120.2-99.1-124.2c-13.8-0.9-27.8,0.6-41.7,0.3c-50.2-0.8-101,2-150.5-4.2
	c-38.7-4.9-77-18.3-113.5-33c-73.5-29.6-142.1-21.1-209.6,16.9c-52.3,29.4-104.7,58.5-158.1,85.7c-28.4,14.5-58.1,28-88.7,36.4
	c-44.7,12.2-87.1,3.4-123.3-27.8c-26.4-22.7-42.7-52.4-46.2-85.9c-4.5-43.4-4.7-87.4-3.7-131c0.8-37.4,6.7-74.6,8.9-112
	c4.7-81.1-20.1-149.5-86.8-200.2c-39.2-29.8-66.1-69.7-87.6-113.5c-11.8-24-22.2-48.8-35.5-72c-17.5-30.6-35.5-61.1-56.2-89.6
	c-20.6-28.5-49.1-47-85-53.1c-61.3-10.4-113.7,6.4-151.9,55.1c-23.5,30-43.3,63.7-59.9,98.1c-33.5,69.5-73,133.2-138.4,177.6
	c-14.9,10.1-27.6,23.7-40.5,36.5c-30.6,30.3-45.2,67.5-42.7,110.4c1.6,26.7,6.9,53.1,8.9,79.7c5,66.1,13.9,132.4,12.3,198.4
	c-2.1,87.8-62.9,138.2-150.9,132.8c-16.8-1-34.4-4.4-49.8-11c-33.3-14.5-65.9-30.8-97.8-48.1c-51.7-28.1-102-58.9-154.1-86.3
	c-61.2-32.2-123.7-38.1-187.7-4.8c-66.2,34.4-137.4,45.9-211.7,42.3c-27.7-1.4-55.8,0.3-83.3,3.6c-62.8,7.4-95.3,43.9-96.4,107.2
	c-0.3,14.8,0.6,30.8,6.1,44.2c12.1,29.5,23.4,60.8,42.2,85.9c54.8,73.4,83.5,152.9,76.9,245.5c-4.2,58.2,23.5,101.3,75.1,127.6
	c37.2,18.9,76,34.4,113.4,52.8c43.1,21.2,87.9,40.3,127.7,66.8c56.6,37.6,75.1,101.2,54.6,164.4c-12.9,39.9-40.6,68-76.2,87.7
	c-28,15.5-57.9,27.7-86.8,41.5c-49.2,23.4-99.6,44.7-147.2,71c-41.8,23.1-64,61.9-68.8,110c-1.7,17-4.3,34-5.6,51.1
	c-6.1,76-28.4,146.7-67.3,212.5c-11.4,19.3-22.2,39.4-29.6,60.4c-27.4,77.5,18.3,152.2,99.9,163.8c21,3,42.8,3.1,63.9,1.2
	c58.6-5.1,115.3,1.2,170.5,21.9c24,9,48.7,16.4,72.9,25c38.9,13.8,77.7,14.3,116.1-1.2c21.8-8.8,43.6-17.9,64.2-29.1
	c59.3-32.1,117.5-66.2,177.2-97.7c25.4-13.4,52.5-24.6,80-32.6c48.6-14,93.5-3.9,131.8,29.9c30.8,27.2,43.6,63.8,44.8,103.3
	c1.3,43.8-1,87.7-2.7,131.6c-2.2,55.5-12.4,110.8-3.3,166.6c4.1,25.3,13.1,47.6,31.9,64.9c18.1,16.7,36.9,32.6,55.8,48.3
	c37.5,31.3,68.6,67,88.3,112.6c14.9,34.3,31.7,67.9,49.5,100.9c19.5,36.2,45.3,67.1,81.5,88.8c40.3,24.2,80.6,24.5,122.7,6
	c30.7-13.4,54.4-34.8,70.6-63.3c22.7-40,44.2-80.7,64.6-121.9c28-56.5,63.5-106.6,114.7-144.5c11.2-8.3,21.4-17.8,31.9-26.9
	c31.6-27.6,48.6-62.6,48.8-104.4c0.1-32-3.1-64.1-4.2-96.2c-1.8-53.4-6.6-107-3.6-160.2c4.1-71.8,47.7-122.7,110.6-137.5
	c35.3-8.3,70.7-6.7,103.7,9c47.3,22.5,93.6,47.1,140.7,70.1c48,23.5,95.3,48.7,144.9,68.3c48.3,19.2,99.3,27.5,150.2,5.8
	C3069.6,2800.7,3135.5,2795.6,3202.3,2796.8z"/>
<path d="M3430.1,2819.9c4.8,20.5-7,33.3-20.6,39.9c-52.2,25.3-106.4,43.5-165.9,31.5c-11.6-2.3-20.3-7.2-16-25
	c10.2-0.8,21.4-1.9,32.6-2.4c28.7-1.1,57.4-2.1,86.1-2.9c17.3-0.5,29.8-9.6,41.8-20.8C3399.6,2829.7,3410.8,2818,3430.1,2819.9z"/>
<path d="M532,1015.8c-14.9,33.3-31.1,58-36.5,84.8c-5.2,25.9,0.8,54,1.8,81.7c-16.2,4.6-23.3-4.2-28.8-15.1
	c-19.1-37.5,0.5-116.7,35.2-141C509.7,1022,517.7,1020.9,532,1015.8z"/>
<path d="M1922.3,3662.8c-34.1-15.5-60.8-38.7-84.2-65.6c-13-15-24.9-31.8-19.2-59.7c10.4,5.2,19.7,7.3,25.4,13
	c23.4,23.3,46.1,47.4,68.5,71.7C1922,3632.2,1931.6,3643,1922.3,3662.8z"/>
<path d="M2146.2,312.6c-9.9-8.1-19.3-12.9-24.6-20.6c-18.8-27.3-42.7-46.9-74.6-57c-8.7-2.8-19.7-6.4-16.7-19.4
	c3.3-14.1,15.8-14.3,25.7-11.6c43.6,11.9,73.6,40.9,94.9,79.7c1.9,3.4,1.5,8.4,1,12.5C2151.5,300.1,2149.4,303.7,2146.2,312.6z"/>
<path d="M2056.9,3616.3c1-1.8,1.6-4.6,3.1-5.2c35.6-15.1,55.9-44.1,72-77.3c7.5-15.5,17.7-26.8,40-15.4
	c-15.8,42.7-38.5,80.2-75.6,106.9C2077.9,3638.7,2068,3634.9,2056.9,3616.3z"/>
<path d="M3490,1074.5c4.6-9.2,9.6-19.1,14.7-29.2c30.6,17.2,34.5,44.9,13.1,75.8C3509.2,1106.8,3500.8,1092.7,3490,1074.5z"/>
<path d="M2047.6,2853.8c-0.9,19.4-1.9,31.8-2,44.3c-0.5,152.1-0.8,304.1-1.2,456.2c0,12.8,0.1,25.7-1.1,38.5
	c-2.4,27-16.3,43.4-41.5,50.8c-48.8,14.2-86-12.4-86.5-64.3c-0.8-98.5,0.1-197,0.5-295.6c0.3-63.2,1.1-126.4,1.3-189.5
	c0-10.3-1.9-20.5-3.4-35.9c-11.8,8.6-19.7,13.5-26.7,19.6c-41.4,35.6-82.4,71.7-124.1,107c-13.8,11.7-28.4,23.1-44,32
	c-26,14.9-49.7,9.8-69.2-12.2c-20.8-23.4-24.9-50-8.3-73.5c11-15.6,24.8-29.6,38.9-42.5c69.5-63.6,138.9-127.4,209.8-189.5
	c20.4-17.8,29.4-35.9,29-63.3c-1.4-85.6-0.3-171.3,0.1-257c0-9.6-0.2-19.5,1.7-28.8c6-29.3,31.6-50,59.2-48.9
	c34.9,1.4,58.2,20.3,62.4,52.8c2.2,16.9,2.2,34.2,2.4,51.3c0.6,78.2,1.6,156.4,0.7,234.5c-0.3,24.7,7.8,42,26.5,58.2
	c72.1,62.3,143.4,125.5,214.2,189.3c14.8,13.4,28.2,29.5,38.2,46.7c14.1,24.2,8.2,50.3-11.4,70.6c-19.8,20.6-44,25.4-70.2,12.1
	c-11.3-5.7-21.7-13.7-31.3-22.1c-48.4-42.2-96.3-85-144.6-127.4C2063.1,2863.8,2058.5,2861.3,2047.6,2853.8z M2003.9,2760.8
	c17.5,11.2,28.9,16.7,38,24.7c64.2,56.7,127.9,113.9,191.8,170.9c7.2,6.4,14.1,13.2,21.9,18.7c9,6.3,18.6,5.2,26.3-2.6
	c8.3-8.5,6.2-17.5-0.9-25.7c-3.5-4.1-7.4-7.8-11.3-11.4c-80-72.7-159.5-146.1-240.6-217.6c-18.7-16.5-26.8-33.1-26.8-57.7
	c0.3-92.1-1-184.2-1.7-276.3c-0.1-7.5-0.4-15-1.2-22.4c-1-9.5-5.2-16.3-16-16.4c-11.7-0.2-17.9,6.2-19.1,17.2
	c-0.9,8.5-0.7,17.1-0.8,25.7c-1.3,91-3.6,182.1-3.3,273.1c0.1,27.5-9.9,45.4-30.1,62.9c-75.1,65.4-149,132.2-222.7,199.1
	c-10.8,9.8-19.2,22.7-26.8,35.4c-2.4,3.9-0.2,13.7,3.4,17.2c3.5,3.4,12.8,4.5,17.3,2.2c9.3-4.8,17.6-12,25.5-19.1
	c62.1-55.9,123.8-112.1,186-167.9c12.4-11.1,24.7-23.9,48.6-21.2c0.6,20.1,1.9,40,1.7,59.9c-1.3,177.8-2.9,355.5-4.4,533.3
	c-0.1,7.5,0.2,15,1.3,22.4c1.7,11.6,10.3,16.2,20.7,16c11.1-0.2,17.6-6.6,17.6-18.4c0-11.8,0.3-23.6,0.4-35.3
	c0.8-175.6,1.5-351.3,2.4-526.9C2000.9,2803.6,2002.5,2786.7,2003.9,2760.8z"/>
<path d="M1914.9,1030.5c1.2-12,2.5-19.1,2.6-26.1c0.5-171.3,0.7-342.6,1.6-514c0.1-17.9,2.3-36.5,7.3-53.6
	c7.4-25.6,27.9-38.9,52.8-38.5c30.8,0.4,51.2,13.2,59.1,40c3.9,13.1,5,27.4,5.1,41.2c0.9,162.8,1.4,325.5,2,488.3
	c0.1,19,0,38.1,0,64.1c12.8-9.1,20.7-13.6,27.3-19.5c36.5-33,72.4-66.8,109.2-99.5c17.5-15.6,35.5-31.3,55.4-43.4
	c29-17.7,57.1-11.1,77,14.3c22.6,28.9,23.3,50.4-1.5,77.4c-21.7,23.5-45.9,44.9-69.5,66.7c-59.8,55.2-119.5,110.5-180,164.8
	c-13.7,12.3-16.1,26.3-16.2,43c-0.3,84.6-1.1,169.2-1.9,253.8c-0.1,12.8,0,25.8-1.4,38.5c-3.6,33.8-26.1,54.4-59.5,55.4
	c-33.6,1.1-60.3-20.8-64.9-54c-1.6-11.6-1.2-23.5-1.3-35.3c-0.1-84.6-0.7-169.2,0.2-253.8c0.2-22.3-7.1-37.8-23.7-52.7
	c-72.7-64.9-144.4-130.9-215.9-197c-13.2-12.2-25.6-26.1-35.4-41.1c-16.1-24.5-13.5-47.4,4.6-67.8c19.8-22.4,43.6-30.1,68.9-17.4
	c18.8,9.5,36.4,22.6,52.3,36.6c44.1,38.9,87.1,79.2,130.6,118.9C1902.8,1022.5,1906.5,1024.5,1914.9,1030.5z M2002.7,1115
	c-1.3-21.4-3.5-40.4-3.5-59.4c0.4-189.6,1.2-379.1,1.8-568.7c0-9.6,1.1-20-2.1-28.6c-2.4-6.4-11-14.5-16.8-14.4
	c-6,0.1-15.1,7.9-17.2,14.3c-3.3,9.7-2.3,21.1-2.4,31.8c-0.9,125.3-1.6,250.6-2.4,375.9c-0.4,72.8-0.8,145.7-1.5,218.5
	c-0.1,11-2.1,22-4.1,41.3c-17.9-13.8-30-21.8-40.7-31.5c-57.1-51.8-113.6-104.2-170.8-156c-11.9-10.7-24.6-20.9-38.5-28.8
	c-5.5-3.1-15,0.9-22.6,1.7c0.8,6.9-0.8,15.4,2.7,20.2c8.2,11.1,18.5,20.8,28.8,30.2c73.4,67.3,146.5,135,220.9,201.1
	c18.5,16.4,26.6,33.4,26.3,58c-1.1,91-0.6,182.1-0.3,273.1c0,11.6,1.1,23.7,4.9,34.4c1.8,5.1,11.7,10.5,17.4,10
	c5.4-0.5,12.9-7.9,14.4-13.6c2.7-10.1,1.9-21.2,2-31.9c0.7-85.7,3-171.4,1-257c-0.9-36,12.4-58.8,38.5-81.8
	c74.7-65.8,146.9-134.5,219.9-202.2c7-6.5,14.9-13.2,19-21.4c2.6-5.3,1-14.9-2.5-20.1c-2.2-3.3-12.3-4.3-17-2.2
	c-9.5,4.4-18.5,10.6-26.3,17.7c-60.9,55.6-121.3,111.7-182.1,167.3C2038.1,1103.6,2026.5,1115.3,2002.7,1115z"/>
<path d="M2774.2,2498.2c12.7,31.5,25.5,62.9,37.9,94.5c12.2,30.8,23,62.3,36.3,92.6c17.4,39.8-26.4,83.5-60.2,83.7
	c-22.4,0.1-39.5-9.9-48.8-30.4c-18.2-39.9-36.6-79.7-52.9-120.4c-25.4-63.6-49.6-127.7-73.3-191.9c-10.5-28.5-27.9-49.3-54.8-64.1
	c-55.3-30.5-109.7-62.6-164.5-94.1c-15.8-9.1-31.1-19-47.2-27.4c-56-29.1-47.4-93.2,1.5-119.9c13.2-7.2,25.1-10.3,39.1-2.5
	c15.9,8.8,32.9,15.5,48.6,24.6c64.7,37.7,129.4,75.5,193.4,114.4c23.1,14,45.7,14.8,70.5,7c84.7-26.4,169.6-52.4,254.6-78.3
	c19.4-5.9,38.9-12.1,58.7-16.3c27.4-5.8,48.1,5.6,59.9,30.9c16.4,35.4,4.5,72.7-30.7,89.4c-21.2,10-43.8,17.1-66.1,24.6
	c-37.5,12.7-75.3,24.4-112.8,37c-11.9,4-23.2,9.9-39.3,16.8c10.2,7.1,16.4,12.1,23.2,16c128.6,74.8,257.4,149.4,386,224.2
	c11.1,6.4,21.9,13.5,32.1,21.4c26.5,20.6,32.3,50.7,16.3,80.2c-15.4,28.2-42,39.9-73.5,26.4c-31.3-13.4-60.9-31-90.4-48.3
	c-104.4-61.1-208.4-123-312.6-184.4c-7.9-4.6-16.5-8-24.8-12C2778.3,2494,2776.2,2496.1,2774.2,2498.2z M2726,2356.8
	c15.7-21,36.6-24.6,55.4-30.7c73.2-23.8,146.8-46.6,220.2-69.8c5.1-1.6,10.3-3,15.2-5.2c11.1-4.9,23.3-10.6,18.1-25.5
	c-5.2-15.1-19.3-11-30.4-8.9c-11.5,2.2-22.5,6.9-33.7,10.4c-92.9,29.1-185.9,57.6-278.6,87.4c-26.6,8.5-48.8,5.1-72.8-9.5
	c-73.1-44.5-147.5-87-221.5-130c-7.3-4.2-15.4-8.9-23.4-9.2c-5.9-0.2-14,5-17.4,10.2c-2,3.1,1.7,12.6,5.6,16.2
	c8.6,7.9,18.6,14.4,28.7,20.4c72.8,42.8,145.7,85.6,218.9,127.8c14.4,8.3,26.3,17.2,32.1,33.8c12.3,35.3,25.5,70.4,39.1,105.3
	c28.7,73.8,57.6,147.5,87.3,221c8.1,20.1,18,25.2,30.5,20.3c11.9-4.7,11.9-14.7,3.4-36.1c-34-85.5-67.4-171.2-100.8-256.9
	c-2.5-6.4-2.5-13.8-4.1-23.4c25.9,2.5,45.1,13.9,64.2,24.9c144.5,83.7,288.7,167.8,433.1,251.6c9.2,5.3,18.8,10.6,28.9,13.4
	c4.8,1.3,13.7-1.7,16.3-5.7c2.7-4,2.1-13.3-1-17.3c-5.6-7.4-13.6-13.5-21.5-18.7c-13.4-8.8-27.6-16.4-41.4-24.6
	c-139.1-82.2-278.3-164.4-417.3-246.8C2747.4,2374.4,2737.4,2365.4,2726,2356.8z"/>
<path d="M2786,1398.7c15.4-7.6,25.1-11.7,34.1-16.9c125.8-73.2,251.5-146.7,377.3-219.8c15.8-9.2,32.7-17,51.8-12.2
	c24,5.9,39.7,21.4,45.1,45.3c5.2,22.8,4.8,45.4-16,61.5c-13.5,10.5-27.5,20.5-42.3,29c-125.2,72.1-250.7,143.8-376.1,215.7
	c-9.6,5.5-18.8,11.9-33.8,21.4c51.8,16.3,96.3,30.2,140.6,44.4c25.5,8.2,50.8,16.6,76.1,25.5c9,3.2,18.1,7,26.2,11.9
	c27.7,16.9,37.6,43.1,27.5,71.2c-10.8,30-39.5,47.6-70.7,42.1c-15.7-2.8-31.3-7.2-46.6-12c-91.9-28.9-183.8-57.6-275.3-87.6
	c-22.4-7.3-39.8-4.3-60,8.2c-63.7,39.3-129.1,76.1-193.8,113.9c-21.7,12.7-42.4,17.8-65.4,0.3c-9.3-7.1-24.3-6.6-36.6-10
	c-30.4-8.5-40.4-36.2-20.8-61.1c7.7-9.8,18.5-18,29.4-24.4c75.7-44.4,151.5-88.7,228-131.6c20.2-11.3,31.9-25.8,39.6-47.3
	c34.6-96.7,70.3-193,106.3-289.2c5.6-14.9,12.8-29.7,22.1-42.5c17.4-23.9,43.4-29.2,71.6-17.2c27.7,11.8,38.4,30.3,34.2,61.3
	c-1.4,10.5-4.5,20.9-8.1,30.9c-19.5,54.4-39.6,108.6-59.2,163C2789.5,1378.1,2788.9,1384.5,2786,1398.7z M2736.9,1534.6
	c12.6-11.5,20-20.3,29.3-26.3c37-23.6,74-47,111.9-69.1c116.4-67.9,233.3-135.1,349.8-202.8c8.2-4.8,16.4-10.5,22.5-17.7
	c8.7-10.2,3.4-22.8-10-22.1c-11.1,0.5-22.9,4.7-32.6,10.3c-79,45-157.6,90.8-236.3,136.3c-65.8,38-131.5,76.1-197.5,113.6
	c-18,10.2-35.5,22.9-63.1,22.1c5.1-21.3,8.1-40,14.2-57.7c16.4-47.5,33.9-94.7,51.4-141.8c11.9-32.1,25.1-63.7,36.6-95.9
	c2-5.7,0.4-15.1-3.3-19.8c-2.7-3.4-12.4-3.9-17.6-1.9c-5.3,2-10.1,8-12.8,13.4c-5.6,11.5-10,23.6-14.4,35.6
	c-36.1,98.4-72.3,196.7-107.8,295.3c-6.3,17.6-18.3,27.8-33.7,36.6c-68.7,39.4-137,79.3-205.5,119.1c-12,7-24.5,13.4-35.6,21.6
	c-18.2,13.6-18.3,19.6-3.3,42.8c6.5-3.1,13.4-5.8,19.7-9.4c82.4-47.6,164.8-95.4,247.2-143.1c16.3-9.4,32.4-13.1,51.8-6.7
	c100.5,33.4,201.3,65.6,302.1,98c10.1,3.3,20.7,7.7,30.9,7.4c6.6-0.2,16.6-6.9,18.3-12.8c1.8-6-2.7-16.6-7.9-21.3
	c-5.9-5.3-15.6-6.3-23.7-8.9c-78.4-25.1-157-50-235.3-75.4C2768.6,1549.7,2755.6,1542.8,2736.9,1534.6z"/>
<path d="M1186.3,1388.7c-17-44.9-34.2-89.7-50.8-134.7c-8.2-22-16.6-44.1-22.6-66.8c-9.4-35.3,5.4-64.8,35.7-75.9
	c34.2-12.5,62.2-1.6,80,32.9c8.3,16.1,14.5,33.3,20.8,50.3c34.1,92.3,68.1,184.6,101.6,277.2c7,19.4,19.6,32,37.2,41.9
	c68.1,38.2,135.9,77,203.4,116.2c13.8,8,26.7,17.8,38.6,28.4c14,12.5,17.7,29.4,12,47c-5.4,16.7-21.1,19.7-35.9,22.6
	c-8.2,1.6-18.6,0.4-24.4,5.1c-22,17.6-42.8,9.5-62.9-1.2c-61.3-32.8-122.9-65.2-182.6-100.7c-27.1-16.1-51.7-21-81.6-10.6
	c-70.7,24.6-141.9,47.8-213,71.2c-29.4,9.7-58.7,20.3-88.8,27.8c-37.6,9.4-59.4,0.2-74.3-27.2c-24.1-44.3-11.5-76.9,38.9-94.9
	c61.4-22,123.5-42,185.3-63c9.8-3.3,19.3-7.3,33.1-12.5c-9.1-6.9-14.3-11.7-20.2-15.1c-114.8-66.4-229.9-132.5-344.6-199.2
	c-24.9-14.5-49.7-29.8-72.3-47.5c-28.4-22.3-34.3-58-17.3-86.3c10.8-18,26.7-29.8,47.9-24.3c22.5,5.8,45.6,12.9,65.5,24.3
	c113.3,64.8,225.7,131.2,338.4,196.9c15.2,8.9,31,16.8,46.5,25.2C1182,1393.4,1184.2,1391,1186.3,1388.7z M1262.1,1476.7
	c-2.3,2.4-4.5,4.9-6.8,7.3c-14.3-5.9-29.5-10.4-42.9-18c-55-30.9-109.8-62.4-164.2-94.3c-94.2-55.2-188-110.9-282-166.3
	c-5.5-3.3-11-6.9-16.9-9.2c-10.3-3.9-21.9-6.6-29.1,4.3c-7.5,11.4-0.1,20.9,9,27.3c15.7,11,32,21.3,48.7,31
	c134.1,78.1,268.4,155.8,402.4,233.9c17.2,10,35.8,18.7,50,40.6c-14.4,7.4-26.6,15.8-40.1,20.3c-81.1,27.2-162.5,53.4-243.8,80.1
	c-8.1,2.7-16.9,5.2-23.3,10.4c-4.9,3.9-10.6,13.6-8.8,17.7c2.6,6.3,11.6,14.4,17.5,14.1c13.5-0.7,27.1-5.2,40.2-9.4
	c97.7-31.3,195.6-62.2,292.8-94.9c27.9-9.4,50.8-6.3,75.9,8.4c80.9,47.6,162.9,93.4,244.4,139.9c19-19.3,19.6-23.6,2.8-37.4
	c-8.2-6.8-17.6-12.2-26.8-17.6c-65.6-38.3-130.5-77.9-197.2-114.1c-31.6-17.2-49.5-41-61.1-74.1c-35.3-101-72.5-201.3-109-301.8
	c-3.9-10.8-6.3-24.5-22.5-21.8c-13.3,2.2-17.5,15.6-11.6,33.9c1.3,4.1,3,8,4.4,12.1c26.8,73.3,53.9,146.6,80.4,220.1
	C1251.3,1438,1256.3,1457.5,1262.1,1476.7z"/>
<path d="M1189.5,2490.2c-17.1,8.8-28.4,14-39.1,20.2c-121.2,70.5-242.4,141.3-363.7,211.7c-10.1,5.9-20.9,11.2-32.1,14.3
	c-26.5,7.5-51.4-1.3-65.7-21.5c-14.3-20.2-15.7-52.4,0.8-72.2c11.3-13.6,26.1-25.4,41.5-34.5c96-56.4,192.6-111.8,289-167.6
	c36.1-20.9,72.2-41.9,108.2-63.1c4.3-2.5,7.6-6.8,15.2-13.9c-18.9-7-34.3-13.2-50-18.5c-52.7-17.7-105.4-35.7-158.5-52.5
	c-47.2-15-59.3-62-34.3-104.2c10.7-18,26.7-28.2,48.4-24.3c14.6,2.6,29.1,6.6,43.3,11.2c90.7,29,181.4,57.9,271.7,87.8
	c32.1,10.7,58.9,5.1,87.8-12.6c69.3-42.6,140.5-82.2,211.4-122.1c34.6-19.5,64.2-12.8,84.6,16.5c19.5,28,14.8,61.2-13.9,86
	c-12.8,11.1-27.5,20.4-42.3,28.9c-69.7,39.8-139.5,79.4-209.8,118.3c-17.4,9.6-26.4,24.1-32.6,41.8
	c-31.3,88.8-62.6,177.7-94.4,266.4c-6.1,17.1-14.1,33.5-21.7,50c-12.7,27.5-50.5,29.6-80,18.6c-27.3-10.2-39.3-30.8-31.1-61.5
	c9.1-34,22-67,33.8-100.3c7.9-22.2,17.2-43.9,25-66C1184.2,2517.5,1185.6,2507.1,1189.5,2490.2z M1239.3,2359.5
	c-9.3,7.2-17.6,15.3-27.3,21c-48.9,28.7-98.1,56.8-147.2,85.2c-101,58.4-201.9,116.9-302.8,175.5c-10.1,5.9-19.9,12.5-29.3,19.6
	c-8.6,6.5-13.2,16.5-5.8,24.9c4.3,4.8,14.8,5.9,22.3,5.6c5.8-0.2,11.7-4.7,17.3-7.9c90.6-52.9,181.1-105.9,271.6-158.8
	c58.2-34,116.5-68,174.9-101.6c14.2-8.2,28.6-17.1,50.6-17.6c-5.1,20.9-8.1,38.6-13.9,55.4c-21.8,62.6-44.6,124.9-67,187.4
	c-5.1,14.1-11,28-14.9,42.4c-2.7,10-6.2,22.9,6.7,28.2c14.3,5.8,21.4-5.9,26.9-16.5c4.9-9.5,8.7-19.5,12.3-29.6
	c31.8-89.7,64-179.3,94.9-269.4c9.5-27.9,25.1-48.1,51.1-62.6c76.6-42.8,152.5-86.9,228.6-130.6c6.5-3.7,14.9-6.4,18.6-12
	c4-6,5.8-15.4,4.7-22.7c-1.7-10.8-11.6-11.9-20.4-9.1c-9.1,2.9-18,6.9-26.3,11.6c-75.3,42.9-150.9,85.4-225.5,129.5
	c-22.2,13.1-43.5,16.2-67.4,8.6c-27.5-8.8-55.2-17.1-82.6-26.2c-64-21.3-127.7-43.1-191.8-64.2c-14.1-4.7-28.9-7.8-43.6-10.2
	c-10-1.6-21.4,1.3-21.8,13.1c-0.2,6.3,7.1,14.5,13.1,18.7c6.7,4.7,15.8,6,24,8.7c76,25.5,152.2,50.7,228.1,76.6
	C1212.1,2337.5,1228.4,2341.1,1239.3,2359.5z"/>
<path d="M2427.9,1849.1c-1.6,69.9-44.9,111.9-109.3,114.3c-58.7,2.1-101.7-44.6-101.5-104.9c0.2-58.9,49.1-111.7,102.8-111.1
	C2378,1748,2427.7,1794.8,2427.9,1849.1z M2383.9,1825.8c-0.4-18.4-12.6-30.8-29.7-30.2c-18.1,0.7-29.6,13.1-28.7,31.1
	c0.9,18.1,13.5,29.3,31.6,28.2C2374.1,1853.8,2384.3,1842.8,2383.9,1825.8z"/>
<path d="M1747,1857.2c-0.8,60-47.7,106.3-106.7,105.3c-52.6-0.9-104.8-57.3-103.5-112c1.3-54.3,52.1-102.8,107.7-102.8
	C1701.7,1747.7,1747.8,1797,1747,1857.2z M1640.9,1821.6c-0.5-15.6-13.3-28.3-28.5-28.2c-17.6,0.2-32.2,14.8-32.4,32.4
	c-0.2,18,12.6,30.9,29.5,29.8C1626.5,1854.4,1641.4,1838.2,1640.9,1821.6z"/>
<path d="M1976.4,2118.8c-76.6-1.3-140.6-62.9-145-139.6c-0.2-4.2-0.3-8.6,0.3-12.8c1.4-10.2,5.4-18.6,17.1-20.1
	c12.5-1.7,21,3.8,24.4,15.6c3.8,13.3,5.3,27.3,9.5,40.5c21.9,67.6,96.1,93.9,155.4,55.6c17.7-11.5,30.4-26.9,36.7-47
	c4.5-14.2,7.9-28.8,11.2-43.3c2.6-11.3,6.5-20.8,20.4-19.9c13.5,0.9,25,11.8,23,25.8c-2.5,17.8-7.1,35.7-13.6,52.4
	C2091.9,2087.3,2042.2,2119.9,1976.4,2118.8z"/>
<path d="M1879.1,645.1c0,32,0,64,0,95.9c0,7.5,0.4,15-0.6,22.4c-1.2,9-0.3,21-14.8,19.7c-12.7-1.1-13.9-11.4-14-21.4
	c-1.4-75.6-2.9-151.3-4-226.9c-0.1-8.4,0.8-17.4,4-25c1.9-4.4,9.3-9.2,14-9c4.6,0.2,11.4,5.7,13,10.3c2.7,7.8,2.6,16.8,2.6,25.2
	c0.2,36.2,0.1,72.5,0.1,108.7C1879.3,645.1,1879.2,645.1,1879.1,645.1z"/>
<path d="M3131.5,2242.7c26.1,3.7,46.8,15.8,59.7,36.1c11.2,17.7,19.3,38.1,24.7,58.5c8.2,30.9,12.1,63,19.3,94.2
	c3.6,15.3,9.9,30.2,16.3,44.7c4,9,11.4,18-0.9,24.5c-10.6,5.6-19.1-2-23.1-11.2c-9.5-21.5-19.1-43.1-25.9-65.5
	c-7.3-24.5-13.5-49.7-16.6-75.1c-4.5-37.1-23.3-60.9-57.8-73.6c-3-1.1-6.9-1.3-8.9-3.4c-4.1-4.2-10.2-9.6-9.8-14
	c0.5-4.8,6.9-9.7,11.7-13C3123.6,2242.7,3128.6,2243.2,3131.5,2242.7z"/>
<path d="M810.9,1662.9c-15.8,15.4-28.4,8.7-39.9,0.8c-22.3-15.2-35.1-37.3-39.5-63.4c-3.6-20.9-6-42.4-6.1-63.6
	c-0.3-36.6-4-72.3-16.3-106.9c-2.7-7.6-2.7-16.2-4.1-25.5c18.3-6.2,29.7-1.6,33.4,15.1c7.3,33.1,14.2,66.4,19.4,99.9
	c2.2,14.5-0.2,29.8-0.5,44.7c-0.5,31.6,8.8,58.5,34.9,78.5C799.1,1647.9,804.4,1655.7,810.9,1662.9z"/>
<path d="M1863.4,3080.6c12.7,25.9,19.1,236,8.6,275.9c-28.3,3.5-32.4,2.1-29.5-20.1c10.2-75.9,0.1-151.7,1.1-227.5
	C1843.9,3095.1,1841.8,3079.4,1863.4,3080.6z"/>
<path d="M1093.7,1092.5c-2.8,1-6.3,3.7-8.4,2.8c-32-12.7-60,0.3-89.4,10.9c-43.1,15.4-87.4,27.6-131.3,40.8
	c-5.8,1.8-12.4,1-18.5,1.4c-5.8-24.3-3.1-28.3,21.5-35.2c33.9-9.5,67.7-19,101.5-29c26.6-7.9,52.5-18.5,79.5-24.1
	C1074,1054.8,1083.3,1063.3,1093.7,1092.5z"/>
<path d="M1645.9,3102c48.5,35.8,93.7,65.9,134.7,100.8c17.6,15,27.7,39.5,39.1,60.9c2.8,5.2-0.6,18.8-5.4,21.8
	c-10.1,6.4-19.7-2-21.8-11.4c-8-34.1-36.2-48.2-61.2-66.1c-22.5-16.1-44.9-32.5-65.3-51.1C1652.2,3144.4,1642.1,3127.9,1645.9,3102z
	"/>
<path d="M2999.2,2783.3c4.9,23.7-10.7,29.1-25.6,28.8c-25.4-0.5-50.8-4.1-75.9-8c-11.4-1.8-22.4-6.9-33.2-11.5
	c-11.1-4.7-16.4-13.2-11-30.3c8.8,0.8,19.4-0.4,28.1,3c34.4,13.8,69.3,20.9,106.4,15.2C2990.8,2780.1,2994,2782,2999.2,2783.3z"/>
<path d="M1514.1,2095.9c-2.3-8.5-6.7-15.6-4.8-19.7c4.5-9.4,12.6-17,18.5-25.8c12.9-19.5,24.6-39.9,38.5-58.6
	c3.9-5.3,14.9-10.3,20.3-8.4c10.6,3.6,7.5,14.3,2.7,21.6c-17.1,25.6-34.6,51.1-52.8,75.9C1532.5,2086.3,1524.6,2089,1514.1,2095.9z"
	/>
<path d="M1786,636.9c1-13.8,1.5-27.6,3-41.3c1-8.8,4.1-18.5,15-16c5.2,1.2,12.6,9.7,12.5,14.8c-0.5,27.4-2.3,54.9-5.4,82.2
	c-0.6,4.9-9.4,8.8-14.4,13.2c-3.2-4.9-8.6-9.5-9.1-14.7c-1.3-12.6-0.4-25.4-0.4-38.2C1786.8,637,1786.4,636.9,1786,636.9z"/>
<path d="M1549.5,1972.2c-23.7,48.7-55.4,82.1-87,114.9c-13.1-5.2-15.4-14.9-9.8-21.7c25-30.4,51.2-59.8,77.4-89.2
	C1532.2,1973.8,1537.7,1974.4,1549.5,1972.2z"/>
<path d="M2504.5,1976.3c0,10.9,2.5,18.7-0.4,22.2c-23.7,29.5-48.3,58.4-73.3,86.9c-1.9,2.1-9.3-0.6-19.6-1.5
	c20.4-36.7,47.5-63.5,70.1-93.4C2485.7,1984.8,2494.4,1982.3,2504.5,1976.3z"/>
<path d="M2449.4,1980c-4.6,7.4-8.6,15.3-13.8,22.1c-18.1,23.5-36.4,46.8-55.1,69.8c-5.7,6.9-13.9,12.1-21.3,3
	c-2.8-3.5-3-13-0.3-16.3c21.7-26,44.1-51.5,67.2-76.4c4.1-4.4,12.4-4.9,18.8-7.2C2446.5,1976.7,2447.9,1978.4,2449.4,1980z"/>
<path d="M1476.9,1981.6c-6.4,36-29.5,63.6-56.3,69.8C1419.8,2026.5,1444.2,1995.2,1476.9,1981.6z"/>
<path d="M1574.1,2083.2c9.4-27.8,24.6-50.7,51.7-66.8C1630.8,2048.7,1609.1,2078.2,1574.1,2083.2z"/>
<path d="M2389.9,1978.4c-1.7,8.1-1.4,12.5-3.4,15.3c-12.2,17.2-24.5,34.4-37.8,50.7c-3,3.7-10.6,5.5-15.6,4.8
	c-2.6-0.4-7.2-10.1-5.7-12.4C2342.4,2013.6,2357.8,1990.2,2389.9,1978.4z"/>
<path d="M2480.8,2085.2c8.4-30.5,27.5-52.7,47.3-74.3c2.5,1,5.1,2,7.6,3c-1.4,7.3-0.4,16.4-4.5,21.5
	C2516.5,2053.9,2507.1,2077.7,2480.8,2085.2z"/>
</svg>
