<?xml version="1.0" encoding="utf-8"?>
<!-- Generator: Adobe Illustrator 24.3.0, SVG Export Plug-In . SVG Version: 6.00 Build 0)  -->
<svg version="1.1" id="Layer_1" xmlns="http://www.w3.org/2000/svg" xmlns:xlink="http://www.w3.org/1999/xlink" x="0px" y="0px"
	 viewBox="0 0 4000 4000" style="enable-background:new 0 0 4000 4000;" xml:space="preserve">
<path d="M3237.5,1103.1c11.5-3,19.9-4.6,28-7.3c100.1-32.5,200.7-34.2,299.9,0.8c132.1,46.6,212.6,142,248.9,275.9
	c33.6,124.2,18.2,245.2-28.8,362.5c-69.2,172.6-187.3,306-338.8,411.4c-68.7,47.7-142.7,85.3-220.2,116.5c-7.9,3.2-15.6,7-27.1,12.2
	c9.1,6.1,15.1,10.4,21.4,14.3c93.7,58.4,181.8,123.7,244.3,216.7c93.4,139,104.1,286.1,35.3,438.2
	c-36.1,79.8-91.5,145.6-157.9,202.3c-98.4,84.2-209.2,147.9-326.9,200.6c-151.8,67.9-310.5,113.3-472.9,147.4
	c-121.8,25.6-244.5,45.5-368.3,57c-174.8,16.3-350.2,18-525.6,10.3c-125.4-5.5-250.1-18.3-373.9-38.1
	c-216.4-34.5-427.6-88.5-628.1-178.7c-126.6-57-245.4-126.9-346.1-224.1c-91-87.9-150.5-192.2-163.7-319.9
	c-10.1-97,12.2-186.6,61.4-270c43.6-73.8,104.1-132,172.2-182.7c78.1-58.2,162.6-105.2,252.4-142.8c8.9-3.7,17.4-8.3,27.6-13.1
	c-2.4-7.6-3.4-14.4-6.5-20.1c-100.3-184.7-166.4-382.1-215.7-585.5c-38.8-160.1-66-322.3-78.6-486.7c-2.9-38.1-5.8-76.2-6.8-114.3
	c-2.9-102.5,32.6-192.1,96.1-270.9c68.6-85.2,154.1-149.7,250-201.5c151.2-81.7,313-133.3,480-169.9
	c153.3-33.7,308.7-51.5,465.5-60.2c119.6-6.7,239.2-6.2,358.3,2.5c104.3,7.7,208.4,21.5,312,36.4c153.7,22.2,302.8,63.4,446.6,121.6
	c136.3,55.1,263.2,126.2,365.3,234.9c64.6,68.8,109.5,148.7,122.2,242.7c5.9,44.2,1.4,89.8,1.1,134.8
	C3240,1070.9,3238.5,1085.4,3237.5,1103.1z M3137.3,1183.5c-2.3-1.2-4.5-2.4-6.8-3.5c-8,8.1-16.7,15.6-24,24.3
	c-46.4,55.6-103.7,98.2-164.3,136.6c-137.9,87.3-288.7,143.6-445.9,184.2c-185.6,47.9-374.5,73.6-565.8,80.1
	c-257.4,8.9-512.9-6.6-765-63c-134.1-30-265.5-68.3-389.5-128.8c-120.7-58.8-233.5-128.2-316.8-237.1c-3.4-4.5-9.4-7-17.6-12.9
	c0.6,10.7,0.6,16.4,1.3,22.1c15.2,127.5,35.9,253.9,66.2,378.8c42.6,175.6,99,346.3,178.5,508.9c58.8,120.3,134.3,229.9,218.9,333.1
	c78.7,96,169.1,179.6,273.1,247.7c171.7,112.4,362.6,163.6,565.5,175.7c124,7.3,246.4-4.2,367.7-30.3
	c146.2-31.5,277.3-93.1,393.3-188.4c99.5-81.7,180.3-179.7,253.3-284.3c120.7-172.8,199.8-365.4,260.2-566.1
	c46.6-154.9,80.1-312.8,104.8-472.6C3129.9,1253.4,3133.1,1218.4,3137.3,1183.5z M829.9,2451.1c-6-8.9-9.2-13.7-12.4-18.3
	c-34.3-48.8-69.1-97.4-102.9-146.6c-16.7-24.3-16.5-25.6-44.6-13.2c-79.9,35.1-157.4,75-229.2,125
	c-60.6,42.1-116.9,89.4-159.2,150.8c-42.4,61.4-67.8,127.9-56.2,204.4c8.2,53.7,31.8,100.7,65.2,142.7
	c55.7,70.1,127.2,121.5,203.4,166.6c118.9,70.4,247.8,117,379.7,154.9c289,83,585.2,116.5,884.9,123.8
	c183.4,4.5,366.1-6.6,548.3-28.2c184.1-21.8,365.5-56.4,542.5-112.4c133.1-42.1,261.3-94.6,379.4-170.1
	c63.1-40.4,123.5-84.5,167.6-145.6c80.9-112.2,84.1-203.7,20.8-308.5c-29.7-49.1-68.1-90.8-111.9-127.5
	c-58.8-49.3-123.9-89-191.2-125.7c-17.9-9.8-33.6-9.9-53-6.1c-59.4,11.7-119.2,22.5-179.3,29.4c-25.1,2.9-45.1,5.1-56.4,31.3
	c-6.1,14.1-17.9,25.6-26.6,38.6c-4.2,6.2-7.3,13-12.2,21.8c13.7,6.1,25.5,10.5,36.4,16.4c42.2,22.6,85.5,43.6,125.7,69.4
	c25.1,16.1,47.8,37.7,67.4,60.5c49.9,58.1,51.7,128.3,4,188c-21.1,26.4-47.2,49.7-74,70.6c-41.9,32.6-90.2,54.9-139.3,74.9
	c-104.6,42.7-213.1,71.9-324.2,91.9c-183.5,33-368.4,51.7-554.8,54.3c-148.9,2.1-297.7-1.1-446.2-15.3
	c-125.8-12.1-251.2-26.9-374.7-54.1c-113-24.9-224.1-56.1-328.1-108.6c-45.6-23.1-89.5-49.2-124.5-87.2
	c-37-40.2-63.1-85.2-52.2-143.2c6.6-34.9,25-63.5,49.1-88.7c40.5-42.4,89.5-72.7,142.1-97.5C804.6,2464.2,815.7,2458.3,829.9,2451.1
	z M1789.8,1575.3c86-4.7,172.1-8.8,258.1-14.3c150.8-9.8,299.3-34,445.7-72.2c141.9-37,277.8-88.4,404.7-162.6
	c69.8-40.8,133.6-89.5,186.3-151.1c88.6-103.5,99.6-235.9,35.2-350c-37.3-66.2-87.8-119.9-148.1-164.8
	c-96.7-72-204.1-123.6-317.1-164.2c-219.5-79-447.7-112.9-678.9-128.3c-158.5-10.5-317.1-6.5-475.5,9.1
	c-168,16.6-333.6,45.1-495,95.2c-123,38.2-241.7,86.5-348.7,159.5C584.9,680.4,517.8,735,472.7,810.8
	c-63.5,106.7-69,214.5,0.1,321.3c52.8,81.6,127.1,140.8,208.9,190.4c142.1,86.3,297.5,139.9,458.1,178.2
	C1353.2,1551.5,1570.3,1573,1789.8,1575.3z M1835.1,3034c100.7-5.1,201.5-9.1,302.2-15.6c151.7-9.8,302.1-29.4,449.9-65.5
	c104.9-25.6,206.9-59.5,301.9-112.1c38-21.1,72.3-47.2,100.1-80.7c41-49.6,43.3-99.3,4.5-150.1c-15.8-20.7-35.8-38.9-56.5-55
	c-42.8-33.4-92.4-54.9-142.5-75.2c-33.9-13.7-33.3-13.3-56.8,13.7c-83.8,96.5-174.4,185.9-282.2,255.7
	c-161.3,104.2-341.3,149-530.4,163.6c-135.8,10.5-270.1-1.9-403-30.1c-177.1-37.6-338.6-109.3-479.6-224.4
	c-58.5-47.8-115-97.6-163.9-155.5c-21-24.9-22.4-25.5-52.1-11.2c-31.7,15.2-63.2,31.5-92.7,50.6c-23.6,15.3-46.4,33.3-65.4,53.9
	c-45.3,49.2-47.1,103.2-8.4,157.7c5.6,7.9,12.5,15.1,19.2,22.2c52.1,54.5,118.1,86.6,186.5,114.1c116,46.7,237.5,72.8,360.3,93.6
	C1427.6,3017.7,1630.9,3028.6,1835.1,3034z M253.4,2912.6c11.8,32.5,28.7,57.3,46.8,81.6c61.8,83.3,142.1,145.7,229.3,199.4
	c143.9,88.6,301.7,144.9,463.6,189.2c219.2,60,443.7,87.2,670.1,99.4c206.9,11.1,413.4,2.7,618.8-24.1
	c180-23.5,357.2-59.9,529.4-118c151-50.9,296-114.7,424.6-210.6c73.5-54.9,138.3-118.6,182.4-200.7c4.2-7.9,7.5-16.3,11.2-24.4
	c-9.5,4.9-16.4,10.4-22.2,16.9c-44.5,50.2-95.5,92.7-151.5,129.5c-74.8,49.1-154.8,88.5-237.5,121.9
	c-163.1,65.9-331.8,111.8-505,142.2c-166.1,29.1-333.1,49.6-501.7,55.1c-265.9,8.7-530.6-3-794-44.4
	c-191.4-30.1-377.8-77.2-558.1-147.7c-109-42.6-213.5-94-303.6-170.3C321.8,2978.5,290,2946.6,253.4,2912.6z M2901.8,2254.4
	c1.2,2.1,2.4,4.2,3.7,6.3c16.2-2.4,32.5-4.4,48.6-7.2c209.3-36.5,396.4-120.4,553.8-264.6c97.5-89.4,171.6-195.6,213.1-322.3
	c30.5-93.1,41-187.6,10.1-282.8c-32.8-100.9-96.8-173.1-198.4-209.3c-104.7-37.3-204.3-18.1-301.9,26.3c-11,5-15,13.7-16.5,25.5
	c-7.4,55.3-15.6,110.5-23.4,165.7c-0.5,3.3,0.7,6.9,1.4,13.1c12.7-6.1,23.3-10.8,33.6-16.1c41.4-21.2,85-34.8,131.7-37.3
	c90.4-4.8,165.1,38.4,193.3,129.2c17,54.7,12.9,108.2-3.8,161.7c-23.6,75.4-66.2,139.8-119,197.1
	c-119.5,129.4-262.2,222.3-433.4,268.6c-16.3,4.4-26.7,12.6-33.8,28.7c-13.4,30.4-29.6,59.6-44.7,89.2
	C2911.4,2235.7,2906.6,2245,2901.8,2254.4z M3025.7,2006.8c9.7-1.8,13.5-2.2,17.2-3.3c4.7-1.3,9.4-2.8,13.8-4.8
	c115.1-52.2,220.6-118.6,306.5-212.8c47.2-51.9,86.4-108.7,105.6-177.4c10.8-38.7,12.4-77-2.6-115.1c-12.6-32.1-36.3-51.4-70-55.1
	c-20.1-2.2-41.2-0.8-61.2,2.7c-56.7,10-101.9,42.8-146.6,76.8c-18.4,14-28.4,29.6-33.5,52c-28.4,127.1-62.9,252.5-106.9,375.2
	C3041.2,1964.1,3034.2,1983.2,3025.7,2006.8z"/>
<path d="M1338.9,2148.8c-61.7,3.7-115.4-49.2-113.9-111.9c1.6-65.5,49-113.6,113.3-113.2c64.5,0.5,114.7,49.7,114.8,112.7
	C1453.2,2099.7,1402.9,2149.2,1338.9,2148.8z"/>
<path d="M2290.1,2148.5c-63.3-0.1-114.2-48.4-114.9-109.1c-0.8-65,50.6-117.1,114.5-116.2c63.8,0.8,112.2,50.4,112.6,115.1
	C2402.6,2101.7,2354.9,2148.6,2290.1,2148.5z"/>
<path d="M1184.9,2535.8c-10.6-8.7-22.3-17.4-32.9-27.1c-97.2-89.4-179.2-191.4-248.6-303.5c-113.9-184-192.6-382.3-237.1-594
	c-1.6-7.6-3-15.4-3.4-23.2c-0.4-8.7,3.2-16.8,12.9-15.7c6.6,0.7,15.3,4.8,18.3,10.1c4.7,8.1,5.7,18.5,7.7,28.1
	c30,144.5,78.1,282.8,141.9,415.7c57.9,120.7,130.8,231.8,218.2,333c41.5,48.1,86.6,93.1,129.9,139.6
	C1208,2516.2,1207.6,2518.6,1184.9,2535.8z"/>
<path d="M1207.3,2329.7c-43.2-1.9-80.8-7.2-115.8-24.1c-23.2-11.2-41.7-27.1-42.1-55.1c-0.4-28.7,16.8-47.8,41.2-59.1
	c16.6-7.7,34.9-12.8,53-16.3c52.9-10.3,105.3-6.1,156.3,10.9c12.6,4.2,25,11.7,35,20.6c30.1,26.5,29.4,67.3-3.9,90.1
	c-18.8,12.9-42,20.7-64.3,26.5C1246.1,2328.4,1224,2328,1207.3,2329.7z M1197.9,2293.6c30.5-4.6,59.6-7.6,88-13.7
	c14.7-3.2,32.7-9.1,33-28.1c0.3-16.4-14.5-25.1-28.2-30.3c-57.6-22.3-116-23.3-174.1-2.2c-13.9,5.1-28.3,13.3-27.7,30.3
	c0.6,17.1,16.5,24.1,30.1,27.7C1145.2,2284.4,1172.1,2288.5,1197.9,2293.6z"/>
<path d="M2455.9,2168.1c20.7,3.9,48.5,8.7,76.1,14.7c9.4,2,18.5,6.4,27,11c46.2,25.5,49.1,74.5,3.6,102.1
	c-21,12.8-46.7,19.4-71.2,24.6c-42.5,9.1-85.7,7.1-127.8-3.5c-15.8-4-31.7-10.7-45.5-19.4c-36.4-23.1-38.4-65.4-6-93.7
	c24.9-21.7,55.9-27,86.7-32.1C2415,2169.2,2431.8,2169.6,2455.9,2168.1z M2431,2290.2c25.1-2.5,48.4-4.4,71.7-7.4
	c8.6-1.1,17.4-3.8,25.2-7.5c13-6.3,28.9-12.1,28.1-30c-0.7-17.3-15.6-24.5-29.3-29.4c-57.8-20.6-115.3-17.1-172,4.9
	c-7.1,2.8-13.8,7.5-19.6,12.7c-12.9,11.6-12.9,24.3,1.7,34c10.3,6.9,22.6,12,34.7,14.6C2391.4,2286.3,2412,2287.8,2431,2290.2z"/>
<path d="M1812.4,2286.1c-37.8-0.6-70.7-13.1-96.8-41.3c-30.1-32.5-42.6-71.7-42.5-115.4c0-11.4,2.6-21.6,16-24.6
	c9.8-2.2,17.7-1,20,10.6c1.7,8.6,2.7,17.4,4.5,26c2.8,13.4,4.7,27.1,9.2,39.9c14.6,41.7,49.2,66.9,90.2,67.2
	c44.3,0.2,83.2-25.3,97.4-66.6c6-17.3,7.2-36.2,10.6-54.4c2.1-11.5,2.5-24.6,19.3-24.2c15.3,0.3,22.5,9,21.6,28.2
	c-1.9,39-12.8,75.2-37.7,106C1895.5,2272.9,1856.8,2286.2,1812.4,2286.1z"/>
<path d="M1329.8,2609.7c-0.7,16.1-12,24.1-24.6,17.8c-13.9-6.9-27.9-14.8-39.3-25.1c-6.1-5.5-8.8-16.9-9.2-25.8
	c-0.4-9.2,8.9-15.1,16.5-10.8c18.5,10.5,35.8,23.3,53.1,35.7C1328.9,2603.4,1329.2,2608.3,1329.8,2609.7z"/>
<path d="M1792.6,1453.4c-207.5-2.8-413.3-20.6-615.8-65.4c-154.5-34.1-304.2-82.9-441-165.3c-46.4-27.9-89.4-60.2-126.5-99.9
	c-36.7-39.2-64.6-83.6-76.4-136.9c-17.8-80.4,9.3-148.6,57.5-210.7c47.1-60.8,109.1-103.8,175-141.1
	C912.8,550.8,1073,504.5,1238,471.9c245.8-48.6,494-57.7,743.1-44.7c214.8,11.2,426.3,45.2,631.6,112
	c105.7,34.4,206.4,79.7,296.6,145.9c42.1,30.9,79.8,66.4,108.2,110.8c61.6,96.5,59.5,197.7-6.2,291.4
	c-34.9,49.8-80.9,87.5-131.4,120.2c-97.9,63.3-205.2,105.3-316,139.6c-160.7,49.7-325.5,77.4-492.8,90.3
	C1978.4,1444.6,1885.4,1448.2,1792.6,1453.4z M1798.8,456.9c-139.2-0.7-277.8,8.5-415.9,26.1c-129.4,16.5-256.3,44.8-380.5,84.7
	c-92.7,29.7-180.9,69.8-262.7,122.7c-54.5,35.2-105.1,75.6-141.1,131c-49.4,76-48.9,152.8-1.8,229.4c27.1,44.1,64.7,78.5,106,108.7
	c98.6,71.9,210.1,117.3,325.4,152.9c203.3,62.9,412.5,91.3,624.5,101.1c164.7,7.5,328.8,2.8,492.6-17.3
	c131.4-16.2,261.2-39.2,388.2-76.7c116.9-34.5,229.3-79.3,332.1-146.1c48.9-31.8,92.9-68.9,125.6-117.7
	c43.1-64.2,50.7-131.9,18.3-203.4c-18.6-41.1-47.3-74-80-104c-64.4-58.9-140.3-99.3-219.3-134.7c-115.2-51.4-236.6-81.8-359.7-106.1
	C2168.6,471.6,1984.3,457.7,1798.8,456.9z"/>
<path d="M1836.3,699.9c3-4.8,4.9-8.3,7.1-11.5c42.3-62.1,102.9-94.3,175.3-107.2c78.2-13.9,154.1-7,226.6,26.9
	c42.7,20,77.7,49,98.8,92.4c28.3,58.2,16.4,112.4-17.3,163.8c-24.6,37.6-59,65.8-96.8,88.6c-49.4,29.7-101,55.8-151.2,84.3
	c-40,22.6-80.1,45.2-118.7,70c-45.9,29.5-76.8,71.8-96.6,122.5c-3.7,9.4-9.3,18-17.3,32.9c-8.4-13.2-15.3-20.2-17.8-28.5
	c-18.3-61.6-59.2-105.5-111.7-138.8c-42.9-27.2-87.7-51.5-132.2-76c-48-26.4-97.5-50.2-144.7-77.9c-36.4-21.4-67.8-49.5-90.8-86.1
	c-50.5-80.2-34.6-170.2,42-225.8c60.4-43.9,130-58.3,203-53.9c32.8,2,65.7,10.1,97.6,18.8c54.7,14.8,98.7,46.4,132.5,92.1
	C1826.9,690.3,1830.4,693.5,1836.3,699.9z M1847.3,1183c42.8-80.7,111-124.4,183.2-163.3c37.9-20.4,77.2-38.4,114.6-59.6
	c35.7-20.3,71.5-41.1,103.8-66.1c21.9-16.9,41.7-39.3,55.8-63.1c33.8-57,18.8-125-33.5-165.6c-13-10.1-27.2-19.7-42.3-26.2
	c-92.9-39.9-186.2-42-278.5,2c-48,22.9-82.8,58.4-97,111.5c-2.8,10.7-8.3,20.6-12.6,30.8c-18.2-4.1-19.1-16.9-22.7-27.7
	c-12.9-39.5-36.5-70.9-70.5-94.8c-48.9-34.4-103.9-50-162.9-51.4c-67.6-1.6-130.2,15-183.4,58.7c-44.3,36.4-56.7,87.3-36.3,140.1
	c14.8,38.2,43.7,64.2,74.5,88.9c52.4,42.2,114,68.3,173.6,97.8C1703.1,1039.7,1791,1087,1847.3,1183z"/>
<path d="M2615.1,892.9c-0.4,65-23,110.3-60.5,149.1c-28.9,30-63.6,52.2-100.7,70.2c-92,44.6-188.2,77.1-288.3,97.9
	c-10.4,2.2-21.4,3.4-32,3c-29.4-1.2-45.9-22.1-41.6-51.4c3.8-25.4,18.8-42.8,41-53.8c36.8-18.2,74.8-34.2,110.9-53.8
	c39.5-21.4,78.2-44.5,115.8-69.1c64.3-42,100.2-102.8,113.1-178.1c2.3-13.5,5.2-27,9.6-39.9c12.4-36.3,44.9-44.9,74-19.6
	c8.7,7.6,16.6,17,22.4,26.9C2601.9,814.1,2615.8,856.5,2615.1,892.9z M2126.1,1175c21-2.6,38.8-2.3,55-7.2
	c70.9-21.6,142.1-43,211.8-68c49.9-17.9,95-45.8,134.1-82.4c70.4-65.9,61.7-154,25.9-217.6c-5.8-10.2-15.9-18-24.4-27.4
	c-15,18-15.4,17.9-20.6,47.6c-13.6,76.7-51,139.5-113.4,185.5c-36.8,27.2-76.4,51-116.4,73.3c-38.4,21.3-79,38.5-118.4,58
	C2146.1,1143.5,2130.7,1149.2,2126.1,1175z"/>
<path d="M1103.5,898.1c2.3-50.2,12.8-90.7,36.8-126.5c8-11.9,18.6-23.2,30.6-30.9c26.5-17,55.4-5.5,65,24.5
	c4.7,14.9,8.2,30.3,10.8,45.7c11.7,70.8,50.8,123.5,106.6,166c42.4,32.3,89.1,56.3,137.5,77.9c33.9,15.1,68,30,100.6,47.8
	c14.9,8.1,27.8,21.5,38.7,34.8c12.6,15.4,13.6,34.3,4.1,52.5c-9.1,17.5-25.3,19.8-42.7,18.9c-50.3-2.5-98.4-15.7-146.1-30.3
	c-79.7-24.4-157.8-52.3-227.7-99.4c-50.4-34-87.9-77.5-105.4-136.4C1107.3,926,1105.4,908.3,1103.5,898.1z M1601.6,1170.6
	c1.4-2.1,2.8-4.2,4.2-6.3c-6.6-7.5-12-16.7-20-22.1c-12.9-8.7-27.4-15-41.3-22.2c-58.3-29.9-117.5-58.2-174.8-90
	c-90.2-50.1-144.7-126.6-161.3-229.2c-1.6-9.8-6.3-19.2-9.7-28.9c-21.4,3.9-28.9,18-36.3,31.6c-40,73.7-27.1,152.3,34.8,211.6
	c30.7,29.4,66.4,51.5,104.4,70.1c86.1,42,178.9,62.6,271.1,85C1581.8,1172.5,1591.9,1170.6,1601.6,1170.6z"/>
<path d="M2797.1,915c-3.5,104.3-51.9,180.8-139.6,234.1c-63.3,38.5-132,63.7-203.5,81.5c-37.9,9.5-76.3,16.9-114.5,25
	c-10.7,2.3-22.2,4.8-25.4-10.8c-2.5-12.3,3.2-20.7,19.3-24.5c29.5-7,59.4-12.1,88.9-19c71.7-16.8,141.8-38.6,204.5-78.2
	c27.9-17.6,55.8-37.4,78-61.4c69.8-75.3,73.1-171.1,22.8-260.8c-11.8-21.1-30.1-35.8-53.6-43.2c-5.6-1.8-12.5-2.7-16-6.6
	c-4.6-5-10.4-13.9-8.6-18.7c2.4-6.8,10.7-15,17.4-15.9c8.9-1.2,19.3,2.7,27.9,6.8c26.2,12.3,47.3,30.6,62,56.2
	C2780.9,821.8,2796.2,866.6,2797.1,915z"/>
<path d="M1397.2,1257.4c-48.7-10.8-97.6-20.5-145.9-32.8c-76.5-19.4-149.1-48.4-213.1-95.6c-79.3-58.5-123.3-135.4-118.2-236.1
	c2.4-47.1,17.1-91,47.3-127.3c15.2-18.3,35.9-32.6,56-46.1c7.7-5.2,20.6-4.9,30.7-3.6c4.8,0.6,11.5,9,12,14.3
	c0.4,4.9-5.4,13.8-10.1,15.1c-45.9,13.1-71.9,45.2-87.3,88.1c-18.1,50.6-20,101.3-1.4,152.4c15.2,41.7,41.4,75.1,75.5,102.9
	c67.6,55.1,146.9,85.4,230.1,106.1c40.8,10.2,82.5,16.5,123.7,24.7c4.8,0.9,9.6,1.9,14.2,3.4c8.7,2.8,17.2,6.4,15,18
	c-1.9,10.2-9.1,14.5-19.2,14.3c-2.9-0.1-5.9,0-8.8,0C1397.6,1255.8,1397.4,1256.6,1397.2,1257.4z"/>
</svg>
