<?xml version="1.0" encoding="utf-8"?>
<!-- Generator: Adobe Illustrator 24.3.0, SVG Export Plug-In . SVG Version: 6.00 Build 0)  -->
<svg version="1.1" id="Layer_1" xmlns="http://www.w3.org/2000/svg" xmlns:xlink="http://www.w3.org/1999/xlink" x="0px" y="0px"
	 viewBox="0 0 4000 4000" style="enable-background:new 0 0 4000 4000;" xml:space="preserve">
<path d="M3166.3,1568.2c26.2-5.1,49.4-10.7,72.9-14c45-6.2,89.9-5.2,134.2,5.9c114.7,28.9,188.8,102.6,228.6,211.7
	c38.2,104.7,27.3,208.5-14.1,309.6c-45.2,110.5-118.5,200.9-209.4,276.7c-130.9,109.2-281.3,179.5-447.4,216.6
	c-2.7,0.6-5.4,1.2-8,2.1c-1.7,0.6-3.2,1.7-7.3,4.1c6.5,2.8,11.3,5.9,16.6,7.1c132.8,31.1,262.1,72.5,383.5,135.5
	c55.7,28.9,107.8,63.8,148.4,112.9c56.1,67.9,75.8,143.6,47.9,229.2c-12.2,37.5-33.5,69.4-59.8,98.2
	c-55.9,61.4-123.3,107.1-197.3,143.8c-154.3,76.5-317.6,125.4-486,159.1c-117.2,23.5-235.1,42.7-354.1,54.6
	c-148.3,14.8-297.1,22-446.2,23.2c-167.6,1.3-334.7-6.1-501.4-22.6c-199-19.7-395.2-54.4-587-111.3
	c-106.8-31.7-210.7-71.6-307.7-127.5c-51.1-29.5-99.7-62.7-141-105.4c-27-27.9-50-58.8-65.6-94.7c-37.8-87.1-24.6-167.1,34.3-240
	c42.4-52.6,98.1-88.7,156.8-119.9c90.4-48.1,185.9-83.8,284.4-111.2c49.5-13.8,99.5-25.8,149.3-38.7c3.3-0.9,6.5-2.1,11.6-3.8
	c-4.2-8.6-7-16.3-11.4-22.9c-61.4-92.4-108.1-192.1-149-294.9c-67-168.3-110.8-342.8-137.2-521.6c-11-74.5-18.4-149.6-26.4-224.6
	c-7.5-70.3,18.8-127.9,70-174.9c50.8-46.7,110.3-79.3,173.9-104.7c114.8-46,233.9-76.7,355.2-99.1c278.3-51.5,559.2-57.4,841.1-46.9
	c128.8,4.8,256.9,16.5,384.2,36.2c139.2,21.5,276.8,50.3,407.7,104.4c55.4,22.9,107.8,51.5,156,87.4c28.4,21.1,51.9,46.9,70.6,76.7
	c18.9,30.2,29.7,63,29.2,99.2C3166,1511.1,3166.3,1538.5,3166.3,1568.2z M769.7,1593.9c0.7,12.6,0.5,23.2,1.9,33.7
	c12.5,93.9,27.5,187.3,48.8,279.8c34.4,149.3,80.6,294.3,148,432.1c98.1,200.6,231.4,372.7,411.4,506.9
	c69.1,51.5,143.1,93.2,226.7,116.6c94.5,26.5,191.3,38.3,288.9,39.1c69.7,0.6,139.8-3.6,209.1-11.3c82.4-9.1,162.8-28.8,237.8-66.3
	c94.1-47,174.8-111.8,248.2-186.3c172-174.5,286.4-383.7,365.9-613.1c56.5-162.9,90.3-331.4,114.7-501.9c0.9-6.6,0.1-13.5,0.1-22.6
	c-6.6,3.1-10,4.2-12.9,6.1c-23.1,15-45.3,31.7-69.3,45c-86,47.6-179.3,76.4-274.1,98.9c-191.1,45.4-385.6,68.3-581.6,75.4
	c-247.6,8.9-494.8,2.7-740.7-31.3c-132.1-18.2-263.6-39.6-390.4-83c-79.4-27.2-157.6-56.8-221.6-114
	C778.8,1596.3,775.8,1596.1,769.7,1593.9z M1218.7,2818.9c-7.2-8-10.7-11.9-14.3-15.8c-42-46.3-85.3-91.5-125.2-139.4
	c-14.1-16.9-26.4-22.6-46.6-17.1c-78,21.2-156.7,40.1-234,63.4c-84.6,25.6-166.1,59.6-242,105.7c-38.8,23.6-74.4,51-102.4,87.1
	c-36.8,47.5-36.3,91.1,0.4,138.4c21.1,27.3,47.6,48.5,76.4,66.9c83.1,53.2,175.4,84,269.4,110.5c222.5,62.7,450.8,89,680.5,104.1
	c112.9,7.4,226.1,10.3,339.2,13.1c291,7.3,581.3-2.7,870.2-40.3c138.6-18,276.4-41.5,410.4-82.5c91.6-28,182.5-58.5,261.1-115.5
	c23.5-17.1,45.2-37.8,63.9-60.1c25-29.9,27.9-64.8,11.6-101c-16.4-36.3-42.3-64.3-73.9-87.6c-55.1-40.6-114.9-72.6-178.4-98.1
	c-123.3-49.5-252-80.3-380.9-110.4c-14.3-3.3-23.6-0.3-33.4,11.3c-42.8,50.5-86.7,100-130.1,150c-4.4,5-7.8,10.9-12.8,18
	c14,2.8,24.8,5.1,35.6,7.2c82.4,15.7,163.4,35.9,239.8,71.4c24.4,11.3,47.1,25.1,64.5,46.2c23.8,28.8,24.9,60.2-1.2,86.7
	c-16.5,16.7-36,32.7-57.3,41.9c-42,18.3-85.2,34.7-129.4,46.4c-187.7,49.8-380.1,66.2-573.1,75.7c-157.1,7.7-314.4,8.7-471.8,2.2
	c-161.9-6.7-323.3-16.7-483-45.2c-80.6-14.4-160.8-30.6-237.9-58.9c-34.7-12.7-68.3-27.7-97.1-51.4c-38.5-31.7-41.4-71.9-6.1-107
	c13.4-13.3,30.2-24.1,47.1-33c72.3-38.1,151.5-55.5,229.9-75C1196.5,2825,1205.3,2822.5,1218.7,2818.9z M1960.4,3169.8
	c183.6-3,392-11.5,599.2-39.7c86.6-11.8,172.5-27.8,255.5-55.3c36.4-12,72.4-27.4,105.6-46.4c44.4-25.4,44.1-57.4,0.4-83.2
	c-27.5-16.3-57.1-29.7-87.1-41c-71.6-27-146.9-40.3-221.8-54.8c-17.3-3.3-29.2,2.4-41.7,14.3c-57.7,54.8-122.4,100.2-193.9,135
	c-102.3,49.7-211.9,71.9-324.3,81.8c-122.4,10.8-244.5,6.1-365.3-16.7c-105.4-19.9-207.2-51.6-297.1-112.2
	c-39.5-26.6-76.5-57-113.8-86.8c-12.2-9.8-22.3-15.6-39.4-11.3c-37.3,9.4-75.8,14.4-113.2,23.6c-55.4,13.6-110,30.2-159.6,59.5
	c-59.8,35.4-60.1,64.7,0.6,97.2c30.6,16.4,63.1,30.3,96.1,41c95.6,30.9,194.2,48.9,293.8,60.7
	C1547.4,3158.5,1741,3168.5,1960.4,3169.8z M1998,1155.6c-276.6-3.1-503.7,14.4-728.7,54.6c-106,18.9-209.7,47.2-309.8,87.5
	c-58.4,23.5-113.3,53-160.9,94.7c-59.9,52.5-61,117.7-3,171.5c35.4,32.7,75.8,57.5,119.9,77.3c121.1,54.5,249.8,80.6,379.4,103.3
	c187.9,32.8,377.6,46.2,568.1,49.7c156.5,2.9,312.7-3.2,468.4-17.8c131.8-12.3,262.6-33.2,391-66c87.3-22.3,173.6-48.1,252.8-92.9
	c31.3-17.7,61.7-36.7,85.7-64.2c34.4-39.3,38.3-82.8,10.3-126.7c-7.3-11.5-16.2-22.8-26.7-31.3c-23.5-19.1-47.2-38.2-72.9-54
	c-60.7-37.3-127.4-61.5-195.1-82.4c-142.9-44.2-290.1-66.2-438.2-82.4C2209.2,1162.3,2079.6,1156.8,1998,1155.6z M507.1,3133.5
	c-0.7,1-1.5,2.1-2.2,3.1c5.8,5.4,11.2,11.3,17.4,16.2c80,63.7,170.8,107.6,265.8,143.5c157.3,59.4,320.8,94.2,486.3,120.8
	c210.3,33.8,422.2,48.4,634.9,48.8c182.2,0.3,364.1-7.3,545.2-29.8c186.4-23.2,370.8-55,550.3-112.2c94.1-30,184.9-67.1,269.9-117.5
	c23.9-14.2,47.2-29.6,66.2-50.7c-7.5,1.2-14.1,3.8-20.4,7c-82.8,41-170,69.9-258.6,94.5c-125.1,34.7-252.9,55.8-381.4,73.5
	c-138.6,19.1-278,30.8-417.6,35.4c-138.8,4.5-277.8,2.9-416.7,3.5c-173.1,0.8-345.8-8.2-518-24.7c-129.1-12.3-257.2-32.2-384.3-58.1
	c-126.5-25.8-249.8-62-366.7-117.5C553.5,3157.9,530.4,3145.4,507.1,3133.5z M3122.9,1802.1c12.6-5.4,21.9-8.9,30.8-13.2
	c34.6-16.9,71-25.4,109.4-22.5c63.1,4.9,109.6,34.7,133.7,94.6c12.6,31.3,15.5,63.7,9.9,97.5c-10.6,63.3-37.5,119-76.4,169.1
	c-99.6,128.5-231.9,209.6-383.3,262.8c-9.2,3.2-21.4,6.4-25.8,13.5c-18.2,30-33.7,61.7-48,98.9c22.2-5.1,40-8.8,57.6-13.3
	c129.4-33.2,250.7-84.2,358.6-164.1c94.5-70,173.5-153.4,221.9-262.3c31.3-70.3,47.5-143.7,29.9-220.2
	c-23.6-102.9-82.6-175.1-188.2-202.3c-67.9-17.5-132.9-6.6-196.1,21.8c-12.9,5.8-16.6,15.2-18.3,27.9c-3.8,29.1-8.8,58.1-13.2,87.2
	C3124.5,1784.3,3124,1791.3,3122.9,1802.1z M2983.9,2283.6c6.6-0.7,9.4-0.5,11.7-1.3c5.2-1.8,10.4-3.8,15.3-6.1
	c70.9-34.2,135.7-77.9,192.9-131.9c49.2-46.4,93.2-97.5,113.4-163.8c6.8-22.3,10-47.1,8.6-70.4c-2.3-38.2-29.7-62.4-67.8-62.1
	c-18.9,0.1-39.5,2.7-56.2,10.6c-28,13.3-53.4,32-80.1,47.9c-18.6,11.1-27.4,27.2-33.1,48.1c-18.2,66.5-37.7,132.6-58.4,198.4
	C3016.7,2195.8,3000.3,2237.8,2983.9,2283.6z"/>
<path d="M2028.4,733.5c-3.8,64.8-24.4,122.1-74.6,166.3c-16.9,14.9-36.1,25.1-57.9,30.6c-17.8,4.5-34.8,1.7-50.8-6.5
	c-24.9-12.7-34.1-36-25-62.4c3-8.7,7.2-16.9,10.8-25.4c17.2-41.4,14-80.9-11.6-117.9c-17.3-24.9-36.3-48.6-53.1-73.9
	c-46.9-70.7-58.5-146.1-24.2-225.3c22.3-51.5,57.7-91.6,111.7-112c24.1-9.1,46.9-6.5,66.9,11.4c22.1,19.8,25.9,36.4,14.3,63.9
	c-1.8,4.2-3.8,8.4-5.8,12.5c-25.5,53.4-18.7,103.2,15.5,150.6c16.7,23.1,33,46.5,48.2,70.6C2015.4,651.7,2026.8,691.1,2028.4,733.5z
	 M1889.4,891.2c8.7-4.6,24.5-10.3,37.1-20.2c57.5-45.2,80.7-132.3,51.2-199.5c-12.8-29.1-32.1-55.4-48.7-82.8
	c-11.9-19.6-25.7-38.2-36.2-58.5c-20.3-39.4-23.1-80.8-8-122.8c4.9-13.8,11.7-27,16.2-40.9c5.3-16.3-0.8-24.6-17.9-25.8
	c-17.5-1.2-31.9,6.7-45.6,16.6c-82.2,60-102.4,169.6-46.2,254.9c18.2,27.6,39,53.4,57.3,80.9c25.9,39,37.5,81.8,26.8,128.5
	c-3,13.3-9.5,25.8-14.1,38.7C1854.5,879.7,1862.5,891.3,1889.4,891.2z"/>
<path d="M1543.6,1037c-40.7-0.5-61.5-28.1-50.9-64.2c1.8-6.2,3.9-12.2,6-18.3c8.8-25.1,6.4-48.8-8.7-71c-10.8-16-21.5-32-32.2-48.1
	c-47.9-72.1-45.2-150.1,9.9-216.7c12.5-15.1,29.7-27.7,47.1-37c26.7-14.2,62.3-1.2,75.2,25.9c3.5,7.4,2.7,17.7,1.5,26.4
	c-0.9,7-5.5,13.5-8.2,20.3c-13,32.8-11.9,64.6,7.6,94.9c9.9,15.4,20.4,30.6,30.2,46.1c35.6,56.3,41.7,114.9,12,175.5
	c-15.7,32-40.1,54.4-75.6,63.3C1552,1035.5,1546.6,1036.4,1543.6,1037z M1555.5,619.8c-24.2-6.8-39.6,2.7-51.8,17
	c-45.8,53.5-56.2,103-20.8,163.8c11.1,19,23.6,37.1,35.9,55.4c23.8,35.5,34.3,72.7,16.6,114.4c-2.9,6.9-2.8,15.1-4,22
	c15.5,7.1,26.9,3.7,36.6-3.9c8.6-6.7,17.2-14.3,22.9-23.3c26.6-41.7,32.7-85.5,7.9-130.2c-12.9-23.2-28.5-44.9-41.7-68
	c-22.7-39.6-29.5-80.7-8.8-123.6C1551.3,637,1552.5,629.7,1555.5,619.8z"/>
<path d="M2251.1,1036.4c-35-0.8-62.7-30.9-46.3-62.4c20.8-40,10.3-76-17-109.8c-23.8-29.4-43.6-61.2-51.8-99.3
	c-14.7-68,23.9-149.9,85.3-179c18.9-9,37-9.5,55.1,1.5c26.4,16,32.5,31.4,18.7,59.5c-20.5,41.8-15.2,79.7,11,116.7
	c12.2,17.2,24.5,34.7,34.3,53.3c31.4,59.9,28.5,118.6-10.7,174.2C2310.5,1018.3,2277.7,1036.4,2251.1,1036.4z M2264.6,621
	c-26.3-3.9-34.7-1.9-50.5,14.3c-43.4,44.2-62.6,102-23.7,165.4c13.9,22.7,29.8,44.2,44.5,66.4c21.2,32,26.6,65.9,13.1,102.5
	c-2.7,7.2-3.3,15.1-4.8,22.7c19.1,6.3,31.6-0.8,42.6-11.3c20.7-19.7,33.1-43.6,36.4-72.3c3.9-33.6-4.8-63.3-23.6-91.2
	c-15.9-23.5-31.2-47.8-43.6-73.2c-16.1-33.2-16-67.5,1.8-100.9C2259.9,637,2261.5,629.8,2264.6,621z"/>
<path d="M2349.9,2359.1c-56-0.2-101.5-46.1-101.3-102.2c0.2-58.5,45-103.5,102.8-103.6c58.4,0,103.4,44.8,103.1,102.9
	C2454.4,2318.6,2412.9,2359.3,2349.9,2359.1z"/>
<path d="M936.3,1857.7c-0.7-11,1-20.7,13.9-23.3c10.4-2.1,17.2,4.9,20.2,20.9c8.8,47,16.5,94.2,26.1,141
	c39.3,192.2,108.5,372.1,221.6,533.7c35.5,50.7,77.9,95.4,121.7,138.8c17.4,17.3,20.2,25.9,10.1,36.6c-8.3,8.8-15.7,6.1-34.2-11.6
	c-127.9-121.7-213.6-270.3-277.1-433.4c-49-125.8-78.2-256.6-100.7-389.1C937.2,1866.9,936.8,1862.3,936.3,1857.7z"/>
<path d="M1498.3,2352.7c-56.7-0.1-99.7-42.8-99.4-98.7c0.3-60,44.2-102.6,105.6-102.4c55.7,0.2,99.5,43.7,99.6,99.3
	C1604.3,2310.8,1560.7,2352.7,1498.3,2352.7z"/>
<path d="M2475.2,2518c-25.4-4.1-49.2-7-72.4-12.2c-11.3-2.6-22.4-8.5-32.2-14.9c-35.2-23.1-37.3-61.7-2.5-85.8
	c18.4-12.7,40.5-22.7,62.4-27.1c39.7-7.9,80.5-8.6,120.1,2.3c14,3.8,27.9,10,40,17.7c37.3,23.8,38.1,65.3,2,90.3
	c-10.4,7.2-22.4,13.6-34.6,16.2C2530.2,2510.4,2501.9,2513.8,2475.2,2518z M2464,2481.2c0.2,1.2,0.4,2.5,0.6,3.7
	c29.6-4.9,59.5-8.6,88.7-15.2c13.6-3.1,31.7-9.5,30.5-26.7c-1-15.6-17.6-21.8-32-26.1c-32-9.5-64.8-13.1-97.6-8
	c-19.6,3.1-39.5,8.8-57.3,17.4c-24,11.6-23.4,29.1,0.6,41.5c10.3,5.4,22.3,8.1,33.8,10.4C2441.9,2480.4,2453.1,2480.3,2464,2481.2z"
	/>
<path d="M1377.5,2372.7c39.3-1.5,76.6,5.5,110.7,26.1c20.6,12.4,32,29.6,28.1,54.7c-3,18.8-13.9,32.7-30.3,40
	c-17.3,7.7-36,14.1-54.8,16.7c-40.1,5.6-80.6,5-120.1-5.1c-14.8-3.8-29.6-10.5-42.1-19.3c-28.3-19.9-30.5-53.4-6.8-78.6
	c20-21.3,46.5-28.4,74-32.2C1349.9,2373.2,1363.8,2373.4,1377.5,2372.7z M1375.4,2483.3c27.9-4.8,54.3-7.8,79.8-14.5
	c10.2-2.7,23.7-12.3,25.9-21.2c3.6-14-11.5-22.5-23-26.9c-52.5-20.1-105.6-19.8-158.1,0.6c-10.3,4-22.5,11.6-19.7,23.3
	c2.1,8.7,12.6,18.9,21.4,21.7C1325.9,2473.9,1351.2,2478,1375.4,2483.3z"/>
<path d="M1928.9,2479c-80.7-0.9-128.7-65.7-130.9-138.3c-0.1-4.5,0.6-9.2,1.9-13.5c2.6-8.8,8.4-13.6,18.2-13.6
	c10.9,0,13.7,7.1,15.5,15.8c3.9,18.8,5.9,38.3,12.3,56.2c20.8,58.4,94,77.4,139.7,35.6c12.1-11.1,20.1-28.1,26.4-43.9
	c6-15.1,7.5-32,10.7-48.2c2.1-10.8,8.1-15.8,19.3-14.9c11.3,0.9,16,7.3,16.2,18.1C2059,2396.2,2024.4,2479.7,1928.9,2479z"/>
<path d="M1476.6,2790.4c-0.8,10.7-10.5,19.1-19.3,14.2c-18.1-10.1-34.8-22.7-51.3-35.4c-2.7-2.1-3.2-11.2-0.9-14.5
	c3.1-4.6,12.1-10.7,14.4-9.2c19.1,11.7,37.4,24.9,55.6,38.1C1476.8,2784.7,1476.3,2788.7,1476.6,2790.4z"/>
<path d="M1950.5,1718.5c-162.1,1-323.7-7.8-484.8-24.4c-131-13.5-260-38.1-386.9-73.4c-56.1-15.6-110-36.3-158.7-68.8
	c-9.9-6.6-19.7-13.6-28.7-21.5c-41.8-36.9-44.8-89.1-4.8-128.1c19.5-19,42.6-35.3,66.5-48.4c78.2-42.8,164-64.1,250.1-83.6
	c135.7-30.9,273.7-45.1,412.1-56.3c190.2-15.4,380.6-14.5,570.7-3.4c153.3,8.9,306,25.7,456.3,59.1c85.4,19,169.7,42.1,247,84.5
	c23.1,12.7,46,27.7,65,45.9c39.7,38,41.3,84.8,3.3,124.6c-19.3,20.2-43.7,36.6-68.2,50.5c-55.6,31.5-116.6,48.9-178.2,64.8
	c-123.2,31.8-248.7,48.9-375,61.6C2208,1714.2,2079.3,1717,1950.5,1718.5z M2951.5,1461.9c-0.9-18-9.8-33.2-24.1-44
	c-17.6-13.2-35.9-25.7-55.2-36.3c-51.9-28.6-108.2-46.2-165-61.5c-149.7-40.5-302.8-60.2-457-71.1c-172.6-12.2-345.3-15.3-518.3-6.6
	c-163.6,8.2-326.4,22.4-487,56c-77.3,16.2-154.2,34.7-227.7,64.6c-35.9,14.7-70.4,32.1-100.1,57.3c-29.3,24.9-31.4,54.8-3.2,80.2
	c18.9,17,41.5,29.9,63.2,43.6c11.7,7.3,24.6,5.5,37.1-0.1c75.1-33.7,154.5-53.4,234.6-70.1c173.3-36.1,349-52.5,525.6-58.7
	c236.7-8.3,472.6,1.9,707,37.4c119.2,18.1,236.8,43.4,347.3,94.5c9.7,4.5,25.2,5.8,34.1,1.1c24.2-12.6,47.1-28.1,68.9-44.7
	C2944,1494.1,2951,1479.3,2951.5,1461.9z M2794.8,1577.4c0.1-2.6,0.2-5.3,0.3-7.9c-16.1-6.4-31.8-14.3-48.3-18.9
	c-61-16.8-121.8-35.6-183.7-48.2c-180.6-36.9-364-50.1-547.9-54.8c-211.7-5.4-422.5,7-632.1,38.7c-101,15.3-200.6,36.1-297.9,67.7
	c-12.3,4-23.8,10.4-38.1,16.7c5.8,4.6,7.6,7,9.9,7.8c19.3,6,38.6,12.1,58.1,17.3c219,58.1,443,79,668.3,87.1
	c199.5,7.2,398.9,1.2,597.5-21.1c115.1-12.9,229.4-30.6,341.3-61.4C2746.8,1593.7,2770.7,1585.1,2794.8,1577.4z"/>
</svg>
