<?xml version="1.0" encoding="utf-8"?>
<!-- Generator: Adobe Illustrator 24.3.0, SVG Export Plug-In . SVG Version: 6.00 Build 0)  -->
<svg version="1.1" id="Layer_1" xmlns="http://www.w3.org/2000/svg" xmlns:xlink="http://www.w3.org/1999/xlink" x="0px" y="0px"
	 viewBox="0 0 4000 4000" style="enable-background:new 0 0 4000 4000;" xml:space="preserve">
<path d="M1958,117.4c214.5-2.4,424.5,25.8,628,92.5c340.7,111.6,623.4,306.6,840.3,594.3c154.8,205.3,258.3,434.4,321,682.7
	c38.4,151.9,51.6,306.3,47.5,462.9c-6.2,236.6-52.5,464.4-145.6,682.1c-86.6,202.4-203.1,385.8-356.1,544.6
	c-176.6,183.3-384,321.8-619.4,418.6c-141.5,58.2-288.2,97.3-439.6,117.3c-119.5,15.8-239.6,19.1-360.3,11.5
	c-135.6-8.4-268.1-31.9-398.5-68.7c-202.1-57-387.4-148.9-556.2-273.8c-203.5-150.6-372.7-332.4-498.9-552.4
	c-118.2-206.2-191.7-428.3-227.8-663.1c-17.2-111.7-23-223.7-13.3-336.3c29.2-340.6,121.8-660.1,316.7-945.1
	c143.2-209.5,325.7-377.6,541.7-510.1c206.3-126.6,430.1-204.3,669.2-236.9C1789.9,126.5,1874.2,124,1958,117.4z M929.7,2677.4
	c-0.8,0-1.7,0.1-2.5,0.1c0,28.4-1.8,56.9,0.5,85.2c2,24.6,6.1,49.7,13.5,73.2c16.1,50.4,56.3,80.2,109.5,82
	c22.5,0.7,45.3-1.8,67.7-5.2c53.8-8.1,107.1-20.5,161.1-26c100-10.1,189.7,42.9,230.7,135c13.8,30.9,21.8,64.4,32.4,96.7
	c10.6,32.3,18.6,65.8,32.1,96.8c29.9,68.3,91.3,93.5,160.1,64.7c33.2-13.9,63.9-34.1,95-52.8c32.1-19.3,61.8-42.8,94.9-60.1
	c88.1-46,178.5-50.9,267.1-2c34.5,19.1,65.4,44.8,98.1,67.2c29.9,20.5,59.4,41.6,90.2,60.8c128.9,80.2,353.1,9,391.3-167.9
	c3.8-17.7,8.1-35.4,11.8-53.1c10.8-51,18.6-102.9,32.6-153c27.9-100.1,99.9-152.2,199.3-165.2c52.5-6.9,106.4-3,159.6-5.4
	c41.8-1.9,84.5-1.1,124.9-10c58.1-12.8,84.7-52,84.6-111.5c-0.1-19.2-2-38.6-5.3-57.5c-5.6-32.4-13.4-64.5-19.3-96.9
	c-9.3-50.6-12.9-101.2-0.9-152.1c17.5-74.6,60.4-131.4,122.1-174.5c30.7-21.5,62.3-41.9,95-60.1c90.2-50.1,129.6-126.7,123.3-228.4
	c-0.1-2.3-0.2-4.5-0.2-6.8c-1.7-147.7-28.7-291.2-70.4-432.4c-82.7-280-223.9-525.7-433.4-730.2
	c-199.9-195.2-436.1-328.5-704.9-403.9c-175.3-49.2-354.7-64.9-536.1-63c-145.9,1.5-290.1,17.2-431.5,54.2
	C1282.7,338,1068.1,451.1,877.5,609c-217.9,180.6-378.2,403.3-478.7,668.3c-53.8,142.1-84.3,290-102.5,440.2
	c-10.6,87.8-17.6,176.3-20.2,264.7c-2,69.4,9.9,138.3,39.6,202.4c33,71.2,88.8,113.8,166.5,125.4c31.3,4.7,63.4,4.3,94.9,7.7
	c50.7,5.4,102.3,7.4,151.6,18.8c111.6,25.8,175.7,99.6,192.9,212C928.1,2590.8,927.3,2634.4,929.7,2677.4z M331.9,2359.2
	c2.6,12,4.2,21.8,6.9,31.3c91.7,316.6,258.2,586.1,505.3,805.3c166.7,147.9,353.1,262.1,564,335.8
	c187.1,65.3,379.6,100.3,577.7,98.9c78.2-0.6,156.9-5.1,234.4-14.8c165.4-20.8,323.7-68.4,475.7-137.4
	c158.3-71.8,303.8-162.9,434.9-277.3c196.7-171.6,334.1-384.9,436.4-622.3c56.9-132,90.9-270.9,115-412.3c1.6-9.1,0.2-18.8,0.2-36.2
	c-61.8,42.4-117.7,80.7-173.5,119.1c-1.8,1.3-3.4,3.1-5,4.7c-42.7,42.7-63.2,93.8-56.2,154.3c3.3,28.1,9.8,55.8,14,83.9
	c6.3,41.5,15.1,82.9,17,124.6c4.9,111-57.9,191.6-166.3,217.8c-50.2,12.1-101.2,11.2-152.4,10.4c-45.3-0.7-91.1-1.5-135.8,4.3
	c-58.5,7.5-99.6,41.7-119.7,98.3c-5.6,16-9.5,32.7-12.7,49.3c-9.7,50.1-16.5,101-28.5,150.5c-56,230.4-283.9,308.7-454.4,262.3
	c-66.3-18.1-121.6-54.8-175.2-95.5c-27.1-20.6-54.3-41.3-83.2-59.3c-53.2-33.2-109-37.1-164.9-6.4c-31.8,17.5-62.2,37.4-93.5,55.7
	c-38.2,22.2-75,48.1-115.5,64.9c-106,44.2-235.4,12.4-291-112.6c-10.5-23.7-17.2-49.2-25-74c-13-41.1-23.7-83-38.9-123.2
	c-18.5-48.6-58.2-71.5-108.5-74.7c-23.5-1.5-47.6,1.2-71.1,4.3c-55,7.4-109.7,20.8-164.9,23.4c-124.7,5.7-211.6-61.3-237.5-183.9
	c-10-47.1-7.8-97-9.7-145.6c-1.3-32.9,2.2-66-0.2-98.7c-6.6-91.3-58.3-145.5-149.2-157.9c-28.1-3.8-56.4-6-84.7-8
	c-87.4-6.2-174.8-12.2-252.5-59.5C341.9,2357.6,339.1,2358.7,331.9,2359.2z"/>
<path d="M2430,1923.1c-2.3,255-205.4,459.3-453.8,456.4c-253.4-3-456.2-209.2-452-462.9c4.1-243.1,191-457.5,469.1-451.3
	C2272.2,1471.5,2434.3,1710.1,2430,1923.1z M2336.7,1918.1c-2.8-216.6-173.9-355-355.1-355.9c-203.2-1-363.9,160.1-362.8,359.5
	c1.1,197.1,165.2,361.6,360,360.9C2179.7,2281.8,2337.5,2121.1,2336.7,1918.1z"/>
<path d="M1330.3,529.9c27.1,29.1,25.6,37.2-8.5,53c-147.7,68.5-278.6,161.2-393.8,275.9c-65.4,65.1-120.5,138.6-168.1,217.7
	c-5.8,9.7-11.8,19.4-18.4,28.5c-7.1,9.8-16.7,11-27.1,5.3c-11.5-6.2-11.5-16.4-7.2-26.4c4.5-10.4,10.4-20.1,16.1-29.9
	c108.8-187,262.4-328.8,445.5-440.5c42.5-25.9,87.6-47.7,131.7-71C1310.4,537.3,1321,533.8,1330.3,529.9z"/>
<path d="M650.1,1210.5c21.1-0.3,30.4,12,25.2,27.9c-4.6,13.9-12,26.9-17.4,40.7c-8.3,21.1-16.1,42.4-24,63.7
	c-4.4,11.9-14.3,16.3-24.3,11.1c-6.3-3.3-11.6-12.7-13-20.2c-1.3-7.1,2.2-15.6,4.9-22.9c9.9-26.6,19.6-53.3,31.1-79.2
	C636.6,1222.4,645.8,1215.5,650.1,1210.5z"/>
<path d="M1559.6,431.5c7.2,6.9,16.5,11.8,18.2,18.5c1.7,6.6-2.3,20.2-7.2,22.1c-36.5,14.7-73.7,27.8-111.2,39.9
	c-4.7,1.5-16.2-4.9-17.9-9.9c-2.4-7.2-1.1-22,3-23.8C1481.4,461.9,1519.3,447.6,1559.6,431.5z"/>
</svg>
