<?xml version="1.0" encoding="utf-8"?>
<!-- Generator: Adobe Illustrator 24.3.0, SVG Export Plug-In . SVG Version: 6.00 Build 0)  -->
<svg version="1.1" id="Layer_1" xmlns="http://www.w3.org/2000/svg" xmlns:xlink="http://www.w3.org/1999/xlink" x="0px" y="0px"
	 viewBox="0 0 4000 4000" style="enable-background:new 0 0 4000 4000;" xml:space="preserve">
<path d="M3191.4,1535.5c17.1-8.5,28.6-13.6,39.5-19.7c86.6-48.3,180-63.5,276.7-49c115.3,17.3,194.7,85.1,240.2,191.3
	c59.5,139.2,47.8,276.4-19,409.8c-42,83.8-104.9,150.8-175.5,211.3c-113.1,96.9-242.5,169-371.2,241.8
	c-107.3,60.7-215.7,119.3-323.4,179.2c-12.7,7.1-24,16.6-40.5,28.2c12.6,4.1,19,7.3,25.7,8.2c139.3,18.3,276.4,47.4,412.4,82.5
	c77,19.8,152.6,43.5,222.2,82.7c23.2,13.1,45.8,28.3,65.6,46.1c60,53.7,60.9,126.8,4.3,183.5c-27.6,27.6-59.5,49-94.7,65.6
	c-37.9,18-72.5,40.7-106.3,65.7c-97.2,71.8-205.2,123.9-318.5,165.2c-140.4,51.3-285.9,83.1-432.8,108.3
	c-309,53.1-620.4,58.7-932.8,47.4c-145.9-5.3-290.9-19.1-435.1-40.5c-193.4-28.7-383.2-72.2-565-145.8
	c-93.7-37.9-182.7-84.4-261.1-149.8c-25.3-21-55.1-36.7-83.1-54.4c-27.1-17.1-56.5-31.3-81.6-51c-69.7-54.6-73.1-132.2-9.7-193.9
	c33.5-32.7,75.1-53,117.7-70.9c88.3-37,180.4-61.6,273.9-80.5c100.7-20.4,201.9-38.2,302.9-57.2c6-1.1,11.9-2.8,21.3-5
	c-14.7-21.7-27.5-40.9-40.7-59.9c-150.7-217.7-244.7-458.9-292.9-717.9c-16.6-89.3-25.4-180.4-33.3-271.1
	c-8.7-100.3-12.5-201.1-18.1-301.7c-0.8-14.9-0.4-30,0.4-45c2.1-39.4,20.4-70.2,53.9-89.9c26.6-15.7,54.5-30,83.4-40.9
	c88.7-33.4,181.5-50.3,274.8-64.3c84.7-12.7,169.6-25.4,254.8-34c163.2-16.4,326.6-31.2,490.8-30.5c159.7,0.7,319.5,1.6,479.1,5.9
	c191.9,5.1,382.7,23.4,572.1,55.4c90.9,15.4,181.4,31.9,269.3,60.5c39,12.7,75.5,30.4,108.6,54.8c32.3,23.8,49.8,54.5,48.1,96
	c-1.9,46.1-1.7,92.2-2.4,138.3C3191.2,1503,3191.4,1515.7,3191.4,1535.5z M3115.3,1442.9c-12.8,4.9-18.6,7.1-24.4,9.3
	c-33,12.5-65.4,26.9-99.1,37.2c-155.5,47.8-316.4,65.8-477.1,83.8c-187.6,21.1-376,31.7-564.8,30.3c-169.3-1.3-338.8-3.2-507.8-13.2
	c-138.9-8.2-277.4-25.8-415.3-44.4c-127.5-17.2-253.2-44.8-371.9-97.2c-3.6-1.6-8.1-1.2-13.4-2c-0.4,7.6-1.3,14-0.9,20.2
	c8.2,111.1,13.6,222.6,25.6,333.3c22.4,205.9,74.4,404.3,164.7,591.6c98.6,204.3,231.2,382.9,403.9,530.7
	c62.7,53.6,127.9,104.5,180.1,169.2c10.3,12.8,23.5,13.2,37.6,13.2c279.8,1,559.5,1.8,839.3,3.3c21.2,0.1,36.6-7.2,50.2-22.9
	c49.3-56.9,106.1-105.8,164.3-153.3c184.7-150.7,317-340.9,417.8-555.1c88.7-188.4,131.1-389.1,159.8-593.4
	c10.7-76.3,17.4-153.3,24.8-230C3112.3,1518.6,3113.1,1483.5,3115.3,1442.9z M1835.7,3316.5c287.7,0.2,574.4-13.7,860.4-43.4
	c175.9-18.2,351.1-41.4,522.5-86c68.2-17.8,135-41.4,201.3-65.6c25.6-9.4,49.7-25.5,71.3-42.5c31.2-24.6,31.2-49.1-0.4-73.8
	c-24.2-19-51-36.2-79.2-48.3c-45.1-19.4-91.6-36.7-138.9-50.1c-164.1-46.6-332-75-500.8-98.3c-18-2.5-29.6,1.5-41.4,16
	c-60.6,74.2-130.9,138.6-206.2,197.7c-42.3,33.1-82,68.7-117,109.7c-48.4,56.6-49.2,56.8-123.4,56.8c-234.8,0.1-469.5-0.3-704.3-1
	c-50.4-0.2-100.7-4.4-151.1-3.7c-33.5,0.5-56.8-12.5-76.3-38.5c-33.6-44.9-75.1-82.1-118.4-117.5
	c-75.5-61.8-150.6-124.2-209.9-202.8c-10.1-13.4-21.7-13.7-36.7-11.7c-121,16.1-241.2,36.9-360.5,62.9c-87,19-172.8,41.8-255.1,76.1
	c-24.6,10.2-48.8,22.7-70.6,37.8c-51.7,35.9-51.4,66.5,0.9,100.4c24.1,15.6,50,29.6,76.7,40c161.6,63,330.3,99.4,501.5,121.2
	c156.1,19.8,313.2,34.1,470.2,44.5C1512.1,3307.1,1674,3310.1,1835.7,3316.5z M3116.6,1332c-14.3-9.7-25.5-20.3-38.8-25.7
	c-41.6-16.8-82.9-36.9-126.3-46.1c-105.7-22.4-212.1-42.8-319-57.7c-180.5-25.1-362.6-34.8-544.7-39.7
	c-319.6-8.6-638.5,0.5-956.3,38.4c-119.1,14.2-237.9,31-353.4,64.6c-36.8,10.7-72.2,26.6-107.6,41.7c-13.3,5.7-27.3,13.4-30.6,32.1
	c2.9,3.4,5.5,8.8,9.8,11c36.8,19.3,73.4,39.2,111.2,56.4c25,11.4,51.7,11.8,78.3,1.5c11.9-4.6,24.7-7.4,37.3-9.3
	c131.4-19.3,262.3-43,394.3-55.9c149.2-14.5,299.2-21.5,449-27.6c239.1-9.8,478,0.2,716.1,21.9c164.2,15,327.5,38.8,488.8,74.4
	c16.9,3.7,36.5,2.6,53.3-1.9c26.8-7.1,52.5-18.5,78.2-29C3079.1,1371.9,3099.8,1359,3116.6,1332z M634.1,3294.2
	c5.9,4.3,9,7,12.6,9.1c4.6,2.7,9.3,5.3,14.2,7.3c141.3,57.3,286.4,101.6,436.4,129.6c214.3,40,430.5,60.2,648.4,66.3
	c322.4,9.1,642.5-8.6,959.3-73.2c137.8-28.1,272.2-67.3,401.9-121.9c9.9-4.2,19.3-9.7,29-14.5
	C2301.9,3427.2,1470.1,3426.1,634.1,3294.2z M2818.4,1444.4c-311.6-60.8-626.6-80.9-943.1-81.3c-334.5-0.4-864.3,46.1-946.4,84.7
	c276.4,48.9,549.8,70.7,824.8,74.6C2110.7,1527.4,2466.2,1512.1,2818.4,1444.4z M2925.4,2560.2c1,1.9,2,3.9,3,5.8
	c11-5.6,22.1-10.9,32.8-17c17.7-10,35-20.8,52.7-30.9c108.8-62.2,219-122.1,326.2-187c87.1-52.8,169.6-112.7,239.5-188.2
	c59.5-64.3,102.2-137.3,119.7-223.8c20.4-101.2,6.4-196.2-52.8-282.5c-30.3-44.2-72-73.7-123.6-86.9c-56.1-14.3-112.5-12-168.5,3.1
	c-61.3,16.6-113.3,50.4-162.5,88.7c-7.1,5.5-11.2,17.8-12.4,27.5c-4.8,39.3-8,78.8-11.4,118.3c-0.6,6.5,0.5,13.2,1.1,26.1
	c14.6-13.9,24.4-23.3,34.3-32.6c56.8-53,122.6-85.7,201.7-86.6c83.7-1,147.4,53.3,161.6,136c8.2,48.1,0.7,94-19,138
	c-26.7,59.5-65.6,110.5-112.5,155.3c-122.2,116.7-263.7,204.4-415.3,277.1c-11.7,5.6-24,15.6-29.9,26.8
	C2967,2471,2946.7,2515.9,2925.4,2560.2z M3052.4,2283.6c1.5,1.9,3,3.8,4.4,5.6c10.1-5.5,20.6-10.4,30.4-16.4
	c33.7-20.8,67.1-42.2,100.8-62.9c69.6-42.7,135.9-90.2,193.5-147.9c32.2-32.3,59.5-70,85.6-107.7c21.2-30.6,28.6-66.7,23.7-104.3
	c-6.7-51.3-42.5-79.8-93.8-74.7c-44.9,4.4-86.6,19.3-119.6,49.7c-29.8,27.3-55,59.6-82.6,89.3c-10.8,11.6-20.8,25.5-34.2,32.9
	c-16.9,9.3-24.1,21.4-28.7,39.3c-23,88-47.3,175.6-71.1,263.4C3057.6,2261,3055.1,2272.3,3052.4,2283.6z"/>
<path d="M1825.9,988.7c-20.8,0.7-29.5-7.9-35.9-20c-7.1-13.3-8.8-26.7,1.9-38.8c6.3-7.2,14.3-12.9,21.3-19.5
	c37.9-35.3,66-75.6,69.3-129.6c2.4-38.9-7.5-74.3-28.4-106.7c-9.3-14.4-20.4-27.5-30.6-41.2c-13.4-18-28-35.3-40-54.2
	c-66-104.4-35.7-242.6,67-308c7.2-4.6,14.7-9.1,22.6-11.9c16.1-5.8,28.3-1,38.7,13.8c10.7,15.2,10.7,26.5-2.4,40.2
	c-12.5,13.2-26.7,24.8-39.8,37.4c-22.8,22.1-38.2,48.3-46.3,79.3c-13.7,52.5,9,93.6,38.7,133.3c22.4,29.9,46.7,59,64.7,91.5
	c72.4,131,6.6,254.7-72.2,319C1844.9,981.1,1832.4,985.3,1825.9,988.7z"/>
<path d="M1469.9,1059.4c-8,0.3-18.1-8.6-26.1-20.9c-8.3-12.7-4.8-24.5,3.3-35.7c5-6.9,9.9-14.1,15.5-20.5
	c35.8-40.9,35.7-86.1,12.3-131.5c-13.1-25.5-32.1-47.9-47.8-72.1c-10.5-16.1-21.6-32.1-29.6-49.4c-36.7-79.2-1.6-172.4,63.7-215.6
	c22.9-15.2,38.1-15,52-0.3c15,15.9,15,32.1-0.3,47.9c-5.2,5.4-11.2,10-16.5,15.3c-47.6,46.7-52.1,91.4-14.7,146.3
	c18,26.6,37.5,52.3,54,79.8c45.7,76,38.3,166.8-17.3,233.8C1507.5,1049.4,1495.3,1058.9,1469.9,1059.4z"/>
<path d="M2310.4,975.5c-1.7,30.9-8.1,59.8-27.5,84.6c-14.6,18.7-32.8,23.1-53.8,12.8c-18.7-9.1-23.9-22.8-15.9-42.3
	c1.6-3.9,3.6-7.9,6-11.3c22.9-32.5,17.3-64.5-1.3-96.4c-12.9-22.2-27.4-43.7-38.6-66.7c-35.3-72.2-15.9-158.7,46.8-209.2
	c10.6-8.5,23.3-15.6,36.2-19.7c17.2-5.5,32.2,2.6,40.4,18c7.4,13.9,4.7,26.4-9.3,39.9c-8.5,8.2-17.9,15.4-26.2,23.8
	c-34,34.2-40.6,78.3-17.4,120.7c9.2,16.9,20.2,32.8,30.5,49.1C2299.2,908.5,2309.1,940.9,2310.4,975.5z"/>
<path d="M2333.4,2442.9c-63.5-0.5-115.9-51.8-115.8-113.6c0.1-62.4,55.9-118.5,116.8-117.6c64.5,1,113.5,52.3,113.3,118.7
	C2447.6,2395.7,2399.1,2443.4,2333.4,2442.9z"/>
<path d="M1374.9,2444.7c-64-0.6-113.2-51.4-112-115.7c1.2-62.4,55.1-117.1,114.6-116.2c63.4,0.9,116.5,55,115.4,118.3
	C1492.1,2383.2,1453,2447.6,1374.9,2444.7z"/>
<path d="M1859.8,2588.6c-77.7-4.9-140.5-46.5-166.6-114.7c-4.5-11.8-7.4-24.7-8.7-37.3c-1.1-11,2.8-21.9,15.2-25.4
	c13.2-3.7,26.1-2.7,33.6,10.9c4.7,8.4,7.9,17.5,11.5,26.5c36.4,90.5,144.5,90,199.9,46.2c21.2-16.8,28.9-41.7,38.1-65.8
	c7.5-19.6,19.3-24.4,37.5-17.2c15.3,6,20.6,15.1,16.1,36.9c-11.6,56-42.4,98.4-96.4,119.7C1914.5,2578.3,1886.6,2582,1859.8,2588.6z
	"/>
</svg>
