<?xml version="1.0" encoding="utf-8"?>
<!-- Generator: Adobe Illustrator 24.3.0, SVG Export Plug-In . SVG Version: 6.00 Build 0)  -->
<svg version="1.1" id="Layer_1" xmlns="http://www.w3.org/2000/svg" xmlns:xlink="http://www.w3.org/1999/xlink" x="0px" y="0px"
	 viewBox="0 0 4000 4000" style="enable-background:new 0 0 4000 4000;" xml:space="preserve">
<path d="M943.7,2553.2c-3.1-9.1-4.6-17.3-8.4-24.4c-89.3-164.6-144.8-341.2-185.1-523.1c-36.5-164.8-59.4-331.8-71.5-500.1
	c-5.2-71.2-6.7-142.7-8.4-214.1c-1.2-47.9,20.7-86,55.5-117.7c49-44.7,107.1-73.6,168.4-96.2c110.3-40.8,224.3-67.6,339.7-89.5
	c198.7-37.7,399.8-50,601.1-61.4c8.4-0.5,16.8-1.5,26.5-2.4c5.7-20.1,0.9-38.7-7-55.8c-8-17.3-18.5-33.6-29.3-49.3
	c-12.6-18.5-27.5-35.4-40.1-53.9c-50.1-73.3-50.2-154.7,1-227.2c14.6-20.7,33.7-38.4,51.1-57c16-17.1,34.2-32.4,48.6-50.8
	c27.2-34.7,32.1-73.4,13.6-114.3c-3.1-6.8-6.7-13.4-9-20.5c-5.7-17.6-1.7-29.9,11.8-39.5c13.4-9.5,32.2-9.6,44.1,2.7
	c8.6,8.9,16,20.4,19.9,32.1c25.2,74.1,17.9,143.3-36.5,202.9c-20.1,22-42.9,41.6-64.2,62.5c-58.3,57.1-61.9,122.1-10.6,185.2
	c11.4,14.1,21.9,28.9,33.1,43.1c26.6,33.6,40.9,72,44.8,114.6c0.9,9.3,2.9,18.6,4.9,31.3c15.9,0,30.5-0.4,45.2,0.1
	c38.4,1.2,76.8,2.3,115.2,4.4c20.9,1.1,40.8,2.1,53.7-18.9c15.1-24.3,27.5-49.6,13.6-78.1c-8.8-18-21.3-34.3-32.2-51.3
	c-10.9-17-23.8-33.1-32.5-51.1c-26-53.7-14-124.4,28.1-166.4c9.5-9.5,22-17,34.5-21.9c11.1-4.4,23.4-1.5,31.6,9.3
	c8.7,11.4,9.9,23.7,2,35.7c-5.2,8-11.7,15.2-17.8,22.6c-28.4,34.6-31,67.5-6.9,105.8c10.8,17.1,23.3,33.1,34.9,49.7
	c33,47.2,41,97.5,18.4,151.4c-1.2,2.9-1.6,6.1-2.3,9.2c-0.2,1,0.1,2.1,0.4,6.7c8,1.5,16.9,4.1,25.8,4.7
	c148.2,9.5,295.1,29.5,440.5,58.7c108.8,21.9,216.2,50.2,317.4,97.1c36.6,16.9,72,37.4,105.4,60c50.6,34.3,79.1,82.8,78.9,145.6
	c-0.1,30.9-0.3,61.9-0.4,92.8c0,10.5,0,20.9,0,36.2c14.1-4.2,25-6.9,35.5-10.6c94.4-33.6,190.8-47.9,289-22.4
	c139.6,36.2,230.8,124.4,269,264.2c32.6,119.4,11.4,232.9-44.4,340.8c-54.3,105-132.7,190.4-223.4,265
	c-111.7,91.9-234.4,167-361.9,234.6c-34.8,18.5-70.2,36-105.2,54.2c-5.3,2.8-10,6.6-18.9,12.6c10.2,4.4,16.2,8.3,22.7,9.7
	c152.8,33.7,299.4,85.1,438.4,156.7c71.5,36.8,137,82.7,187.9,146.6c6.6,8.3,13.3,16.7,19,25.7c54.3,85.5,53.7,170.3-2.6,254.8
	c-38.9,58.4-93.9,98.5-152.4,134.4c-94.3,57.8-197.4,95.7-301.9,130c-155.5,51-315.5,82-476.7,108.4c-348,57-698.4,64.7-1049.9,53.1
	c-191.2-6.3-381.1-25.4-569.8-54.7c-224.8-35-446.7-83.3-656.6-174.6c-86.5-37.6-169-82.5-236.2-150.4c-20.1-20.3-37.8-43.6-53-67.8
	c-43.6-69.8-40.6-141.5-3.3-213c24.1-46.2,59-83.3,99.9-115.2c63.6-49.5,134.3-86.5,207.7-119c132.1-58.5,270.1-98.6,409.7-133.9
	C923,2560,931.9,2556.8,943.7,2553.2z M752.5,1418c0,14.5-0.7,22.7,0.1,30.7c11.4,108.2,20.7,216.7,35.1,324.4
	c24.3,181.3,67.6,358.3,133.2,529.4c88.3,230.5,219.1,432.8,394.6,607c92.5,91.8,197.3,158.3,326.8,183.1
	c82,15.6,164.5,23.8,248,24.7c113.3,1.3,226.4-0.6,337.9-22.6c96.3-19,184.8-53.6,261.7-119c205.2-174.4,345.9-392.3,442.2-641.2
	c59.8-154.7,98.4-315.3,128.8-478c25.1-134.4,40-270,48.7-406.3c0.4-6.6-1.8-13.4-3.2-22.7c-12.5,5.9-22.4,9.7-31.4,15
	c-53.6,31.8-111.1,54.3-170.2,72.9c-165.5,51.9-335.2,84.4-507.6,99.2c-134.9,11.6-270.5,18.5-405.8,20.8
	c-295.3,5-588.3-17.5-877.1-83.7c-108.4-24.8-214.9-54.8-313.6-107.7C786.6,1436.4,772.7,1428.9,752.5,1418z M1153.8,2859.1
	c-5.9-8.3-9.6-14.5-14.2-19.8c-48.4-55.7-92-114.9-128.8-178.9c-17.6-30.7-18.3-32.1-53.2-23.6c-70.3,17.2-140.8,34.5-210.3,54.8
	c-108.7,31.7-214.3,71.9-313.5,127.3c-53.4,29.8-103.6,64-144.1,110.5c-57.5,66.1-58.9,135.3-3.4,202.6c16.2,19.6,34.5,38,54.4,53.9
	c79.4,63.1,170.6,104.7,265,139.4c205.3,75.5,419.1,115.3,634.6,146.4c161.6,23.3,324.3,36.1,487.6,41.7
	c328.1,11.4,655,1.5,980.1-46.9c146.7-21.8,292.2-49.4,434.9-90.4c114.9-33,228.3-70.2,333.6-128.4c52.5-29,103.1-60.7,142.7-106.9
	c55-64.1,56.4-134.2,5.4-201.2c-28.9-38-65.5-67.1-104.8-93c-86.2-56.9-181.3-94.5-278.3-127.9c-107.1-36.9-216.8-63.6-327.5-86.6
	c-28.3-5.9-27.2-5.8-43.4,17.6c-41.7,60.6-84.2,120.6-126.3,180.8c-4.1,5.9-7.9,12-13.8,21c12.9,4.9,23.6,8.8,34.2,13
	c42.4,17.3,85.5,33.1,127,52.4c39.9,18.6,75.6,44.1,103.1,79.4c39.5,50.7,40.6,106.7-1.9,154.6c-20.9,23.5-46.7,43.9-73.4,60.7
	c-56.3,35.5-118.8,57.8-182.7,75.6c-215.9,60.2-436.7,87.5-660.2,94.9c-176.3,5.9-352-2.1-527.1-23.4
	c-133.6-16.3-265.9-38.7-394.9-77.9c-64.6-19.6-127.3-43.8-183-82.7c-19.9-13.9-39.5-29.7-55.4-47.9c-40.7-46.4-43.6-96.6-7.5-146.2
	c15.4-21.1,35.5-40,56.6-55.6c47.5-35.2,101.8-57.7,157.4-77.2C1132.2,2867.9,1141.7,2863.8,1153.8,2859.1z M2054.2,1300.3
	c8.7,3.9,17.7,7,25.9,11.7c23.7,13.7,24.8,41.6,2.1,57.3c-6.8,4.7-15.4,7.8-23.5,9.3c-17.8,3.2-35.9,6.7-53.9,6.8
	c-66.1,0.5-132.5,2.7-198.4-1.7c-50.8-3.4-101.1-15-151.4-24.2c-16.6-3-29.6-12.8-31-31.9c-1.4-17.8,6.3-32.2,21.8-39.7
	c16.1-7.8,33.4-14.3,50.9-18c116.8-24.1,235.6-23.5,353.8-22.2c73.2,0.8,146.5,12.8,219.3,22.8c27,3.7,53.7,13.8,79.1,24.4
	c23.2,9.6,43.1,25.9,44.4,53.9c1.4,29.3-17.6,47.7-40.8,60.2c-19.5,10.5-40.7,18.9-62.1,25c-133.7,38.4-271.2,45.8-409,44.7
	c-162.3-1.3-324.2-11.8-484.8-37c-53.6-8.4-106.6-21.6-159.1-35.5c-22.2-5.9-44.6-16.1-63.2-29.5c-37.2-26.6-38.2-65.3-2.7-93.9
	c17-13.7,37.6-25.9,58.5-31.5c63.8-17,127.9-34.2,192.9-44.3c126.6-19.7,254.3-26.9,382.6-29.7c204.4-4.5,407.4,5.1,608.9,41.2
	c78.8,14.1,157.7,27.9,232.2,58.4c22.5,9.2,45,20.6,64,35.5c39.1,30.6,42.8,79,8.7,115c-15.7,16.6-36.7,28.4-56.1,41.2
	c-11.5,7.6-24.6,13-36.9,19.4c87.6-14,172.6-33.8,251-74.5c19.8-10.3,39.3-21.9,56.9-35.4c41-31.5,42.4-63.7,4.7-98.4
	c-12.4-11.4-26.9-21.2-41.8-29.2c-21.6-11.6-43.9-22.1-66.7-31c-115-45-235.1-68.8-357.2-84.1c-135.7-17-272-24.6-408.6-29.3
	c-253.3-8.8-505.5,0.8-756.2,41.8c-87.6,14.3-173.8,32.9-257.2,63.7c-42.3,15.6-82.8,34.5-118.8,61.8c-37.3,28.4-39.2,66.2-4.5,97.6
	c14.1,12.7,30.9,22.7,47.6,32.1c62.9,35.4,131.8,55.1,201.4,71.4c136.2,31.9,273.8,54.7,413.5,65.8c124.6,9.9,249.1,17.4,374.1,16.1
	c97.2-1,194.7-3.5,290.2-21.1c93.2-17.1,185.6-39.6,277.3-63.8c45-11.9,87.9-32,130.8-50.8c19.6-8.6,37.6-23.5,37.1-48.1
	c-0.5-25.2-21.1-36.9-40.7-44.6c-41.5-16.4-83.4-33.2-126.6-44.1c-146.5-36.9-296.5-51-446.8-57.6c-230.6-10-460.9-4-689.7,30
	c-59.1,8.8-118,19.6-172.2,46.6c-13.9,6.9-29.4,13-33,34.7c14,7.5,27.1,17.7,41.9,21.8c51.3,14,102.7,29.1,155,38
	c106.3,18,213.4,28.6,321.3,33.6c138.8,6.4,277.3,8.5,415.6-7.8c62.6-7.4,124.5-18.4,183.6-41.5c14.7-5.7,30.4-10.4,39-27.1
	c-9.3-19.6-28.3-25.1-46.3-30.4C2220.5,1300.9,2138,1294.1,2054.2,1300.3z M1918.8,3337.8c243,0.6,453.3-14.6,660.9-57.3
	c92.9-19.1,184.9-41.8,271.6-82.1c36.1-16.8,69.7-37.3,97.8-65.6c35.8-36,38-71.5,7-111.3c-9.7-12.5-21.5-23.9-34.2-33.3
	c-63.7-46.9-136.8-73.2-211.8-95.3c-16.8-4.9-25.3,3.8-34.9,15.1c-54.7,64.7-119.2,119-185.4,171.1c-20.7,16.3-44.4,30.6-69,39.7
	c-54.9,20.3-110.1,42-167.1,53.6c-145.1,29.7-292.4,29.5-439.8,21.8c-85.4-4.5-169.6-16.4-251.8-41.3
	c-86.8-26.2-167.6-62.7-234.6-125.7c-38.8-36.5-79.2-71.4-117.1-108.9c-16.2-16-30.8-19.7-51.2-11.1c-37.2,15.9-76.1,28.3-112,46.7
	c-31,15.9-61.4,35.1-87.2,58.3c-43.5,39-42.6,76.8-2.3,118.7c7.4,7.7,15.3,15.2,24.2,20.8c25.2,15.9,49.9,33,76.8,45.7
	c106,50.1,219.5,75.5,334.1,95.5C1577.1,3325.1,1763,3340.3,1918.8,3337.8z M2949.3,2508c9.6-1.2,13-0.8,15.7-2.1
	c17.5-7.8,34.8-15.9,52.2-24c129.7-60.7,253.9-131,369.3-215.9c88.7-65.3,171.3-137.5,238.2-226c66.5-87.9,105.4-185,95.9-297.3
	c-12.7-150.3-120-260.1-276.8-273.7c-86.3-7.5-167,14.3-242.6,56.1c-13.3,7.4-20.3,16.2-21.7,32.1c-4.2,45.6-10.2,91.1-15,136.7
	c-0.9,8.9-0.1,17.9-0.1,31.7c15.1-9.2,25.6-15.9,36.4-22.3c67.3-39.6,138.6-60.2,217.1-43c72.9,16,114.2,68.4,109.7,142.9
	c-1.5,25-8.4,50.5-17.4,74.1c-19.8,52.4-51.4,98.1-88.5,139.8c-106.7,120.4-234.9,213-374.9,290.4c-15.9,8.8-26.4,18.7-32.5,36.5
	c-12.8,37.2-28.4,73.6-42.9,110.2C2964.9,2470.8,2957.9,2487.3,2949.3,2508z M3066.4,2199.1c11.1-5.1,19.2-7.3,25.6-12
	c59.2-43.4,119.8-85.2,176.6-131.6c59.5-48.6,113.2-103.9,151.4-171.6c12.9-22.8,23-48.2,28.7-73.8c8.3-37.3-12-65.3-49.3-72.5
	c-15.4-3-31.8-3.8-47.5-2.3c-70,6.8-125.7,42.3-176.8,88c-20.1,17.9-31.4,38.3-37.3,64.5c-21.6,96.6-45.1,192.7-67.8,289.1
	C3068.7,2182.9,3068.1,2188.9,3066.4,2199.1z M2982.5,1396c46.7-10.3,85.7-33.1,116-68.4c22.2-25.9,21.2-44.6,1-72.1
	c-23.4-32-56.5-51.8-91.2-68.6c-96.5-46.8-198.1-79.3-302.5-101.9c-200.8-43.6-404.7-62-609.6-70.4c-54.4-2.2-108.8-2.8-163.3-3
	c-27.9-0.1-38.2,10.9-42.1,41.8c10.8,0,21.3,0,31.8,0c170.9-0.5,341.3,9.8,510.9,30.7c112.2,13.8,223.9,31.3,332.5,64
	c68.7,20.7,135.3,46.8,192.6,91.3c14.1,10.9,26.4,24.8,37.3,39c19.5,25.3,19.7,53.3,6.4,81.6C2996.6,1372.3,2989.2,1384,2982.5,1396
	z M883.2,1397.9c-6-14.7-8.4-22.6-12.3-29.6c-19.4-34.7-14.2-67.6,6.8-99.4c21.3-32.2,51.5-53.6,85.5-70
	c71.3-34.4,145.4-62.1,223.2-76.2c106.9-19.2,214.1-37.2,321.9-50.3c87.7-10.7,176.3-14,264.6-19.4c31.7-2,38.3-6.9,41.2-42.5
	c-13.9,0-27.7-0.9-41.3,0.1c-92.5,7-185,13.2-277.3,22.1c-140.1,13.5-279.2,34-415.6,69.9c-87.8,23.1-174.5,49.8-253,96.5
	c-24.4,14.5-46.9,33.4-66.7,53.7c-18.5,19-19.1,40.9-4.9,58.1C787.8,1350.2,832.2,1372.3,883.2,1397.9z M1701.3,1322.5
	c5.2,2.5,7.1,3.9,9,4.2c102.9,12.6,206.1,10.3,309.2,5.3c7.2-0.3,14.1-5.8,26.5-11.2c-28.6-25.6-61.6-11.6-87.6-25.5
	C1936.3,1283.4,1729.6,1309.4,1701.3,1322.5z"/>
<path d="M1921.1,3018.5c-159.9-3-304.4-37.8-433.9-123.2c-93.1-61.5-166.5-142.6-225.2-237.1c-16.9-27.1-31.9-55.4-47.3-83.4
	c-5.6-10.2-10.3-21.1-14.2-32.1c-14.4-41.2-4.5-57.1,38.6-56.3c55.4,1,110.8,4,166.1,7.9c95.7,6.9,191.2,15.9,286.9,22.8
	c157.6,11.3,315.4,11.6,473.3,8.6c144.1-2.7,287.3-16.9,430-35.8c11.6-1.5,23.5-2.8,35-1.8c26.1,2.4,33.7,12.6,28.6,38.1
	c-2.5,12.4-6.3,24.9-11.7,36.4c-97.2,208.3-252.6,350.4-474.2,417.7C2088.8,3006,2002.5,3016.5,1921.1,3018.5z M2606.8,2536.7
	c-16,1.4-26.5,2.1-36.9,3.3c-45.5,5.4-90.8,13.3-136.4,16c-116,7-232,14.4-348.1,16.7c-182.4,3.5-364.5-3.3-546.3-20
	c-79.6-7.3-159.3-13.4-239-19.3c-16.3-1.2-32.9,0.6-50.4,1.1c1.2,7.8,0.9,11.3,2.2,13.8c39.3,72.2,80.9,142.8,137.8,203.1
	c89.9,95.3,196.4,162.4,323.8,195.7c103.7,27.1,208.4,31.1,314.1,18c99.3-12.3,194.1-40.2,281.2-90.3
	c129.6-74.6,223.9-182.3,290.2-315.3C2601.8,2553.9,2603.1,2547.7,2606.8,2536.7z"/>
<path d="M2389.7,2126.6c60.2,0.8,108.4,50.8,107.9,111.8c-0.6,62.7-53.1,113.5-115.6,111.8c-54.9-1.5-108.7-54.2-106.8-107.8
	C2278,2167.7,2330.6,2124.2,2389.7,2126.6z"/>
<path d="M1474.9,2126.5c61.7-0.3,109.5,49.1,109.3,112.7c-0.3,60.5-49.3,108.4-110.8,108c-58.1-0.3-109.2-50.3-108.4-107.8
	C1365.8,2177.5,1416,2123.1,1474.9,2126.5z"/>
<path d="M1939,2465.4c-83-0.5-141.9-39.7-166.7-106.7c-4.3-11.6-5.5-24.7-6.3-37.2c-0.7-10.5,4.9-18.4,16.1-20.5
	c11.1-2.1,21.8-1.3,28.1,9.5c5.9,10.1,10.5,20.9,15.8,31.3c34.5,67.4,114.4,86.7,176.7,43.3c22.3-15.6,33.4-37.8,41.9-62.4
	c4.2-12.2,8.8-24.1,25.7-23.5c21,0.7,32.1,13.6,29.3,35.9c-6.8,54.5-60.2,112.9-115,124.4C1966.9,2463.3,1948.7,2464.2,1939,2465.4z
	"/>
</svg>
