<?xml version="1.0" encoding="utf-8"?>
<!-- Generator: Adobe Illustrator 24.3.0, SVG Export Plug-In . SVG Version: 6.00 Build 0)  -->
<svg version="1.1" id="Layer_1" xmlns="http://www.w3.org/2000/svg" xmlns:xlink="http://www.w3.org/1999/xlink" x="0px" y="0px"
	 viewBox="0 0 4000 4000" style="enable-background:new 0 0 4000 4000;" xml:space="preserve">
<path d="M3015.9,1584.4c3.9,15.9,6.8,27.2,9.3,38.5c48.8,220.6,21.7,428.3-111.4,615.1c-31.8,44.6-72.9,83.4-113.4,120.9
	c-181.9,168.2-366.1,333.9-547.6,502.4c-154.4,143.4-337.7,198.1-544.6,187.2c-71-3.8-140.1-16.2-207.3-39.2
	c-4.8-1.6-10.2-1.5-18.6-2.7c-4.8,31.1-9.8,60.9-13.9,90.7c-18.5,137-45.4,272.1-90.5,403.1c-25.6,74.4-60.5,144.2-108.3,207.1
	c-36.5,48-81,84.1-141.8,97.4c-56.1,12.3-146.1-5.8-183.4-80.9c-13-26.2-24-53.4-35.7-80.2c-8.3-18.9-15.3-38.4-24.6-56.7
	c-18.2-35.6-48.7-55-87.9-59.5c-19.3-2.2-39.1-1.9-58.5-0.8c-42.7,2.3-84.8-0.6-126-11.8c-76.7-20.9-126-70.2-147.2-146.6
	c-13.5-48.7-15.7-98.5-10.4-148.7c2.2-20.5,3.6-41.2,3.7-61.8c0.3-65.3-28.5-113-89.1-138.6c-41.9-17.8-85.8-31.1-127.4-49.4
	c-29.6-13-59.5-27.7-85.1-47.2C52,2843.5,41.9,2711.1,124.6,2609c34.1-42.1,77.7-72.5,125.8-96.4c85.2-42.4,176-68.3,268.9-86.4
	c117.5-22.9,236.3-34.9,356.2-34.1c9.7,0.1,19.4-1,29.1-2.1c1.7-0.2,3.2-2.6,6-5.1c-6.1-38.6-14.8-77.9-18.1-117.5
	c-21.2-248.2,47.9-464.6,232.8-636.8c196.4-182.9,393.7-364.8,593.2-544.3c157.8-142,345.5-193.4,555.3-169
	c70.4,8.2,138.5,24.6,207.9,53.3c3.5-23.8,7.6-45.7,9.7-67.9c10.5-108.2,27.5-215.4,53.4-321c24.1-98.4,54.6-194.5,106-282.6
	c27.1-46.3,59.5-88.2,102.9-120.8c35.7-26.8,74.5-43.2,120.3-42.6c44.4,0.6,79.6,18.4,108.4,50.9c22.7,25.7,36.8,56.2,47.7,88.3
	c7.6,22.6,14.6,45.5,22.4,68.1c24.3,69.8,74.5,103.8,147.6,106.9c34.7,1.4,69.5,2.9,103.9,7.3c64.2,8.2,121.2,32.7,166.9,80.2
	c37.3,38.7,56,85.6,56.8,138.3c0.6,34.6-4.8,69.2-7.7,103.8c-0.8,9.7-2.5,19.4-3.9,29c-12.1,83.8,22.2,143.4,95.9,181.8
	c24,12.5,49.4,22.5,73.5,35c32.7,17,66.6,32.5,96.5,53.6c85,60,106.6,170.8,54.1,260.8c-38.5,66.1-98,106.2-165.8,136.3
	c-92.1,40.9-189.4,62.7-288.6,77c-105.5,15.3-211.5,24.2-318,27.2C3049.8,1580.8,3036,1582.7,3015.9,1584.4z M2921.5,1369.4
	c13.8,28,27.7,53.6,39.1,80.3c6.7,15.8,16.4,20.3,32.6,20c140.3-2.9,279.9-12.6,418.5-34.7c77.5-12.4,153.1-31.3,224.3-65.4
	c34.6-16.5,66.6-37,91.2-67c39.9-48.6,32.7-105.4-19.8-139.8c-27.1-17.7-57.2-31.1-86.4-45.2c-48.9-23.7-98.7-46.2-138.7-84.1
	c-67.1-63.5-86.5-143.1-74.7-232.3c4.5-34.4,10.6-68.8,13-103.4c3.8-55.7-22.6-96.7-74.6-117.3c-16-6.3-33.2-10.7-50.3-12.6
	c-46.4-5.2-92.9-8.9-139.5-12.4c-41.2-3.1-78.5-16.5-112-40.3c-44.8-32-74.7-75.5-93.7-126.4c-11-29.5-19.5-59.9-29.7-89.6
	c-4.2-12.2-8.7-24.8-15.7-35.5c-13.5-20.8-40-26.8-60.2-15.5c-17.5,9.8-17.9,21.1-3.5,50.7c19,39,36.9,78.6,56.2,117.5
	c12.5,25.2,24.9,50.9,40.4,74.3c37.7,56.7,92.4,90.4,156.3,111c26.9,8.7,31.4,14.7,26.4,28.5c-5.9,16.2-16.8,20-40.8,14.1
	c-5.3-1.3-10.5-2.9-15.6-4.8c-53.2-19.3-98-50.4-136-92.5c-44.7-49.4-71.4-108.6-95.7-169.3c-11.2-27.9-20.4-56.5-31.5-87.3
	c-20.7,13.3-32.8,31.3-44.3,49.3c-32.5,50.5-56.4,105.1-75.3,162.1c-55.2,166.4-73.5,339.2-87.9,512.5c-0.6,7.7,1.7,19.4,7,23.1
	c27.8,19.5,57.1,37.1,87,56.1c2.5-6.1,4.9-10.8,6.4-15.9c32.4-112.3,80.1-217.9,138.4-318.9c4.3-7.5,8.8-15.1,14.2-21.8
	c8.3-10.3,19.3-9.1,29.5-3.5c11.1,6.2,9.5,15.7,4.1,25.3c-2.7,4.7-5.7,9.3-8.2,14.1c-26.8,53.3-56.6,105.3-79.4,160.3
	c-23.2,56-39.5,114.8-58.6,172.5c-5.9,17.9-3.6,32.9,11.9,46.8c21.7,19.4,41.2,41.2,62.6,63c12.3-6.4,23-11.5,33.1-17.5
	c72.3-42.6,140.4-91,202.3-147.7c19.2-17.6,38.4-35.3,57.7-52.9c8.4-7.6,17.1-8.7,26.1-0.7c8.7,7.8,10,17.1,3.5,26.1
	c-7,9.6-15.1,18.5-23.6,26.8c-75.1,73.1-159.1,134.7-247.5,190.4c-6,3.8-11.6,8.1-19.1,13.4c15.6,22.3,29.2,43.1,44.4,62.7
	c3.9,5,12.4,8.6,19,8.9c9.5,0.5,19.3-2.3,28.9-4.2c103.8-20.7,202.8-55.7,299.2-98.9c12.6-5.7,25.8-10.2,38-14.9
	c17.7,26.1,17.6,35.2-5.4,45.3c-54.6,24-109.3,48.2-165.7,67.4C3042,1338.9,2982.8,1352.5,2921.5,1369.4z M1290.8,2904.7
	c-4,16.4-7.4,29.7-10.4,43.1c-28,122.8-73.5,238.4-142.8,344.1c-5.3,8.1-11,16.4-18.1,22.8c-9.8,8.8-21.8,6.1-28.8-3
	c-3.9-5-2.5-15.5-0.8-22.9c1.4-5.9,7-10.8,10.6-16.2c77.4-115.7,124.5-242.9,144.1-380.5c1.9-13.3-1.1-22.7-12-31
	c-49.5-37.7-95.1-79.4-131.5-130.3c-9.7-13.5-21.2-16.1-36.8-11.3c-101.5,31.6-196.1,76.5-279.9,142.8c-10.2,8.1-20.6,16-30.9,24
	c-8.7,6.7-17.7,9.2-25.9-0.2c-8.3-9.5-8.6-19.8,0.2-29.2c5.9-6.3,12.5-12,19.2-17.5c81.5-66.4,170.7-119.5,270.1-154.5
	c9-3.2,17.6-7.3,28.8-12c-8.6-16.2-16.4-30.2-23.5-44.4c-7.3-14.7-18.6-20.3-34.6-17.3c-57.5,10.7-116.2,17.5-172.4,33
	c-59.4,16.4-116.6,40.7-174.5,62.2c-12.1,4.5-22.8,9.5-30.4-5.5c-6.5-12.7-2.4-23.7,11.7-32.8c2.7-1.8,5.7-3.2,8.7-4.5
	c93.6-41.4,189.6-75.1,291.8-88.4c18.9-2.5,37.5-6.4,58.8-10.1c-7.1-17.6-13-31.4-18.1-45.5c-5.9-16.5-16-23.3-34.4-22
	c-46.6,3.3-93.4,4-140,7.1c-121.6,8.3-241.9,25.2-359.5,58c-67.2,18.8-133.2,41.1-188.1,86.2c-16.5,13.6-32.5,29.4-44,47.2
	c-33.1,51.4-25.4,96,21.7,135.2c11.5,9.6,24.8,17.7,38.4,24.2c20.5,9.9,41.8,18.2,63,26.5c34.3,13.5,69.4,25.2,103.2,39.8
	c71.7,31,115.7,85.6,134.8,161.2c9.5,37.6,8.4,75.2,6.1,113.3c-2.2,37.8-6,76-3.2,113.6c4.2,55.8,42.2,93.2,97.8,101.5
	c17.1,2.5,34.6,2.5,51.9,2.4c23.9-0.1,47.8-2.7,71.7-1.9c82.4,2.9,150.4,33.2,191.4,108.4c16.6,30.3,28.9,63,42.8,94.7
	c8.7,19.8,15.2,40.8,25.7,59.7c13.6,24.6,31.4,28.9,60.1,18.3c0.2-3.1,1.2-6.6,0.5-9.6c-18-74.1-39.7-147.2-81.1-212
	C983.7,3411,931.5,3366.8,859,3351c-7.3-1.6-15.4-4-20.7-8.8c-4.9-4.4-9.7-12.9-8.7-18.7c1-6,8-12.7,14.1-15.7
	c5.1-2.6,13.1-2,19-0.1c24.8,7.9,50.2,14.8,73.6,25.8c61.3,28.9,102.5,78.7,135.8,136.3c29.7,51.3,45.8,107.8,63.5,163.7
	c3.5,10.9,7.8,21.5,11.8,32.5c6.6-2.2,10.2-2.4,12.5-4.3c5.8-4.8,11.2-10.2,16.4-15.7c43.9-47.1,69.7-104.4,91.3-163.9
	c59.7-164.5,86.6-336,106.7-508.9c0.8-6.5-1.6-16.7-6.1-19.8C1344.3,2937,1319.3,2922.3,1290.8,2904.7z M2016.9,2174.1
	c-12.9-0.8-21.3-1.9-29.8-1.8c-43,0.6-77.4-18.7-107.5-47c-5.3-5-11-12-11.9-18.6c-1-7.7,0.6-19.1,5.6-23.2c5-4.1,17.3-4.1,23.7-0.7
	c11.3,6,20.7,15.6,30.5,24.2c19,16.6,41.7,22.4,66.1,23.6c12.8,0.6,21-4.3,21.3-18.4c0.1-6.5,0.3-13,0.3-19.5
	c-0.4-311.7-0.8-623.5-1.2-935.2c0-28.2-0.2-56.5-0.8-84.7c-0.2-8.3-2.3-16.5-3.9-27.5c-82,29.2-156.8,64.6-219.3,122.5
	c-53.4,49.4-106.5,99.3-161.2,147.1c-16.2,14.2-23.4,27.4-23,49.4c3.8,244.4,6.9,488.7,8.8,733.1c0.2,22.9,8.5,32.2,28.1,40.1
	c71.4,29,105.6,105,81.5,179c-14,43.2-39.6,77-82.5,95.5c-16.1,6.9-30.6,14.9-25.3,38.6c22.2-11.4,41.6-23.7,62.6-31.4
	c18.9-6.9,39.8-12,59.8-11.9c35.4,0.2,55.8,27.1,48.5,61.6c-3.1,14.5-9.4,29.3-17.8,41.5c-29.7,42.9-67.8,75.9-118.4,92.5
	c-9,3-17.8,6.8-28.9,11.1c4.6,104.5-0.4,208.3,7.5,311c8.4,2.8,12.4,4.7,16.5,5.4c119.4,18.2,235.7,6.1,349.4-34.7
	c20.9-7.5,23.7-21.1,23.6-40.1c-1.1-212.9-1.6-425.8-2.3-638.7C2016.8,2203.8,2016.9,2190.8,2016.9,2174.1z M2598.6,1870
	c-16,10.5-24.8,16.3-33.7,22c-28.1,18.1-58.4,28-92.4,26.4c-36.2-1.7-59-27.4-51.1-62.7c3.6-16.3,12.4-32.6,22.8-45.8
	c12.6-16.1,29.2-29,44.2-43.2c18.2-17.1,17.5-21.5-8-38.8c-7.1,9.2-14.3,18.5-21.5,27.8c-27.7,35.9-61.5,59.8-109,63
	c-63.9,4.3-127.3-28.8-157.1-85.1c-26.5-50.3-18.2-120.3,19.8-165.3c40-47.5,105.5-64.4,168.9-43.8c5.7,1.9,11.9,2.3,20.9,3.9
	c0-12.1,0-21.7,0-31.3c-0.8-134.8-1.7-269.5-2.3-404.3c-0.2-35,0.2-34.9-32.9-45.1c-92.1-28.3-186.2-29.2-280.9-20.8
	c-9.5,0.8-18.8,3.9-31.8,6.6c0,11.2,0,21.8,0,32.3c0.3,125,0.1,250,1.1,374.9c1.7,207.5,4,415.1,6.3,622.6
	c0.1,13.7,1.7,27.3,2.8,43.2c7.7-2.5,12.1-2.9,15.3-5.1c42.4-28.7,58.9-93.5,35.3-139c-6-11.6-14.7-22.1-18.4-34.2
	c-2-6.3,1.8-18.1,7-21.9c5.2-3.9,17.8-4.1,22.9-0.3c9.2,6.9,16.5,17.2,22.3,27.4c42,73.6,13.5,173.5-62.3,213.7
	c-19.1,10.1-26.2,21-26.1,42.4c1.1,215.2,1.2,430.3,1.8,645.5c0,7.9,2.1,15.8,3.9,27.9c38-23.2,69.4-48,99.3-74.6
	c64.9-57.8,129.7-115.7,194-174.3c72.3-65.9,143.2-133.2,216.2-198.2c18-16,26-31.6,25.7-55.6c-1.7-145.6-2.1-291.2-3-436.8
	C2598.5,1908.1,2598.6,1893,2598.6,1870z M1571.6,2423.6c-86.5-19.1-133.6-66.6-139.2-140.6c-2.5-32.9,5.9-64.2,22.2-93.7
	c25.5-46.2,69.4-62.3,119.9-72.7c-4.2-231.3-8.4-460.4-12.7-689.5c-0.2-10.8-1.7-21.5-2.8-32.3c-0.1-0.8-1.1-1.7-1.8-2.3
	c-0.8-0.6-1.9-1-4.6-2.2c-5.1,4-11.1,8.3-16.5,13.2c-112.7,102.1-225.2,204.4-338.3,306.1c-13.6,12.2-17.8,25.5-17.2,43.1
	c2.5,63,4.3,125.9,5.7,188.9c5.1,239,9.9,477.9,14.6,716.9c0.3,13.7,3.3,24.8,13.4,35c70.8,71.5,147.8,134.6,239.9,176.9
	c40,18.3,80.6,35.6,127,43.1c1.1-10.9,2.9-19.3,2.7-27.7c-1.6-88-3.3-176-5.5-264c-0.2-8.4-1.8-18-6.2-24.8
	c-14.1-21.3-12.3-42.9-5.3-65.5C1577.8,2496.4,1574.4,2460.9,1571.6,2423.6z M2642.2,2352.4c13.4-9.6,20.8-13.9,27-19.5
	c37.5-34.6,73.9-70.4,112.3-103.9c22.4-19.4,34-40.7,29.5-70.7c-1.7-11.7,0-23.8,0-35.8c0-229.1-0.2-458.1,0.4-687.2
	c0.1-26.3-7.3-48.4-22.7-69.3c-85.7-116.2-189.3-211.6-319.1-276.9c-6.5-3.3-13.4-5.6-21.8-9c-1.4,6.2-3,10.2-3,14.2
	c-0.1,152-0.3,304,0.1,455.9c0,9.4,1.3,20.7,6.5,27.8c22.9,31.5,35.1,66.7,43.5,104.3c5.7,25.9,23.9,36.4,50.3,35.4
	c17.2-0.6,34.8-0.8,51.7,2c38.3,6.2,51.7,22.5,47.3,60.1c-3.2,27-2,53.5-1.9,80.4c0.9,144.4,0.2,288.8,0,433.1
	C2642.2,2310.6,2642.2,2327.7,2642.2,2352.4z M1152.9,2610.1c-0.2-274.1-10.9-547.3-20.1-821.4c-92.3,121.9-138.2,258.4-134.8,410.8
	C1001.3,2354.1,1054.9,2490.2,1152.9,2610.1z M2855.9,2118.9c44.7-48,81-192,81.1-315.7c0.1-106.5-38.3-261.7-77.4-303.8
	C2858.4,1706.7,2857.1,1911,2855.9,2118.9z M2491.6,1885.2c4.6-1.3,16.7-1.6,24.9-7.3c25.7-17.7,50.5-36.8,74.4-56.9
	c7.8-6.6,13.1-17.5,16.7-27.4c8.7-24-3.3-39.5-28.4-35.4c-53.9,8.9-92.2,41.6-119.8,86.6C2445.8,1867.1,2458.7,1884.7,2491.6,1885.2
	z M1746.4,2471.5c2.5-24-4.8-31.6-23.6-31.1c-36,1.1-116.7,67.7-123.5,102c-4,19.9,6.6,31.9,26.6,29.9c5.3-0.5,10.7-1.9,15.8-3.8
	c37.5-14.3,67.6-38.8,92.1-69.9C1740.9,2489.6,1743.8,2477.4,1746.4,2471.5z M2314.9,1559.3c-32,0.1-53.5,21.5-52.8,52.7
	c0.6,27.2,20.6,48,46.5,48.3c28.2,0.4,57.4-25.7,57.5-51.2C2366.2,1586.1,2338.6,1559.3,2314.9,1559.3z M1627.7,2207.7
	c0.8-28.1-20.8-51.9-47.1-52c-30.7-0.2-53.5,20.6-53.8,49.1c-0.3,29.5,18.9,50.1,47.5,51C1606.4,2256.7,1626.8,2238.4,1627.7,2207.7
	z"/>
</svg>
