<?xml version="1.0" encoding="utf-8"?>
<!-- Generator: Adobe Illustrator 24.3.0, SVG Export Plug-In . SVG Version: 6.00 Build 0)  -->
<svg version="1.1" id="Layer_1" xmlns="http://www.w3.org/2000/svg" xmlns:xlink="http://www.w3.org/1999/xlink" x="0px" y="0px"
	 viewBox="0 0 4000 4000" style="enable-background:new 0 0 4000 4000;" xml:space="preserve">
<path d="M2935.1,1150.6c19.7-3.8,33.5-6.6,47.4-9c133.1-23.3,262.7-11.9,387.6,41.2c130.1,55.2,213.8,154.3,264.8,283.4
	c36.8,93.3,51.5,190.5,50.3,290.5c-2.9,235.2-64.5,454.3-186.7,654.5c-116.3,190.5-280.5,324.7-493.2,396.6
	c-77.4,26.2-157.3,40.6-239.1,43.5c-8.7,0.3-17.4,0.8-27.8,1.2c-3.1,6.8-6.9,13.3-9.1,20.3c-41.5,132.3-94,260-154.2,385.1
	c-56.2,116.9-142.6,196.4-260.5,248.6c-140.1,62-286.1,98.3-437.1,118.5c-123.7,16.6-247.9,19.1-371.9,12.2
	c-218.8-12.2-431.4-53.8-629.7-152.3c-27.5-13.7-53.6-30.1-80.4-45.3c-68.1-38.6-107.6-102-144.5-167.6
	c-83.4-148.3-143.8-306-192.1-468.7c-40.4-136-72.9-274.1-94.7-414.2c-20.4-131.3-37.9-263.2-50.8-395.5
	c-35.1-360.7-28.7-722.5-19.3-1084.1c1.3-49.2,6.6-98.9,16.6-147c14.5-69.3,59.1-121.9,110-168.5c72.4-66.2,158.6-110.1,248-147.8
	c161.9-68.3,331.6-108.1,504.9-134.1c32.6-4.9,65.5-7.7,97.9-13.1c10.1-1.7,22.3-6.2,28.4-13.7c44.1-54,105.9-69.7,169.8-76.7
	c89.5-9.8,177.7,1,262.8,31.6c18.5,6.7,37.6,14.1,53.3,25.5c22.5,16.5,47.2,22.3,73.7,24.8c145.6,14.1,290.2,35.9,432.3,70
	c145.6,35,286.9,83.8,415.7,162.7c54.6,33.4,105.2,71.6,146.2,121.8c46.3,56.8,68.8,122.1,71.6,194.4c3.4,89,5.1,178,7.7,267
	C2933.3,1119.9,2934.2,1132.8,2935.1,1150.6z M2846.5,1018.6c-26.7,22.8-46.5,41.5-68.1,57.9c-111.6,85.3-238.3,139.9-371.6,180.6
	c-228.9,69.8-464.4,96.1-702.5,102.8c-166.2,4.7-332-3.6-496.9-25.5c-174.9-23.2-346.3-61-511.1-125.2
	c-113.4-44.2-221.4-97.7-305.7-189.1c-2.7-3-7-4.5-10.3-6.5c-2.6,2.4-5.3,3.6-5.6,5.3c-1.3,7.5-2.7,15.1-2.8,22.7
	c-2.9,230.9-7.7,461.7,4.1,692.5c7.9,153.8,21.5,307,41.3,459.7c31.1,240.3,79.1,477,158.3,706.5
	c45.3,131.2,100.6,257.9,174.2,376.1c25.4,40.7,56.5,75.3,98.4,100c91.3,53.9,187.7,96.2,290.2,123.2
	c106.4,28,214.4,46.7,324.5,54.4c198.8,13.9,395.2,1.3,589.4-44.2c113.2-26.5,220.1-68,319.4-129.1c37.4-23,67-52.5,89.9-89.9
	c68.3-111.1,117.9-230.6,160.6-353.4c95.4-274.4,152.3-557.3,182.5-845.4c18.3-174.8,31-350.4,39.2-526c7.2-154.8,5-310,6.4-465
	C2850.6,1076,2848.1,1050.9,2846.5,1018.6z M2760.2,2769.7c9,0.7,13.3,1.6,17.5,1.2c119.5-10.9,233-42.2,338.4-100.7
	c153.4-85.2,268.3-207.3,349.9-362c80.1-151.9,125.6-313.6,137.3-484.5c6.9-101.3,1.8-202.1-31-299.8
	c-41.2-123-117.1-215-237.5-267.3c-119.2-51.8-242.2-58.1-367.9-29.4c-33.6,7.7-33.8,7.4-34.2,40.2c-0.7,62.6-1.3,125.3-1.7,187.9
	c-0.1,9.4,1.2,18.8,2,30.7c7.8-2.6,13.2-3.5,17.7-6c44.4-24.2,92.8-32.5,142.4-36.7c113.2-9.5,216.6,52.3,261.2,157
	c28.5,66.9,39.2,137.1,36.1,209.4c-8.5,193.1-75,364.9-196.7,514.1c-91.4,112-205.4,188-354.5,198.9c-17.8,1.3-24.2,9.6-27.5,26
	c-8.2,40.9-18.1,81.5-27.6,122.1C2776.6,2702.7,2768.7,2734.5,2760.2,2769.7z M2838.6,2439.6c33-0.5,84.6-13.8,123.2-31.8
	c83.9-39,148.7-100.1,201.7-174.8c80.6-113.5,125.3-240.9,143.3-377.9c9.6-72.7,5.8-144.7-21.8-214c-28.9-72.5-81.6-111.7-160-116.7
	c-68.9-4.4-128.9,21.1-187.2,53.3c-11.3,6.2-12,16.7-12.7,28.2c-6.1,97.5-10.5,195.2-19.7,292.4c-12.4,130-28.3,259.6-43.7,389.3
	C2855.6,2337.5,2846.6,2387.1,2838.6,2439.6z M2510.5,516.9c19.3,42.1,45.2,72.6,82.3,95.7c42.2,26.3,77.2,61.3,103.3,104.8
	c42.4,70.7,39.3,147.4-11.7,212.2c-14.8,18.9-32.2,36.1-50.1,52.2c-70.3,62.7-155.5,98.5-242.7,129.6
	c-186.9,66.6-381.2,94.8-578.4,105c-223.4,11.6-446,2.9-667.1-33.8c-129.2-21.4-256.9-49-378.3-99.6
	c-73.4-30.6-142.6-68.9-199.5-126c-91.4-91.8-91.9-194.1-2-287.4c47.2-49,104.1-83.8,165-113c107.8-51.7,221.9-82.9,338.6-105.8
	c46.3-9.1,93.1-15.9,139.5-24.6c26.4-4.9,28.4-8.5,28.3-39.3c-9.7,0.6-19.4,0.5-28.9,1.7c-136.5,18-270.7,46-400.8,91.4
	c-85.1,29.8-168.8,63.3-245.4,111.9c-51.3,32.5-99.6,68.9-137.2,117.3c-63.1,80.9-59.6,162.1,8.5,238.5
	c51.2,57.4,112.3,101.6,180.2,136.6c129.9,67,268.7,108.6,411,138.1c159.5,33.1,320.9,51.7,483.8,57.3c200.6,6.9,399.8-6.3,598-36.3
	c97.9-14.8,193.6-39.7,288.2-68.4c102.3-31.1,200.6-71.9,290.4-131.1c50.1-33,95.2-70.9,128.2-121.6c44.2-67.9,43.9-137.4-3.1-203
	c-16.5-23-36.1-44.5-57.1-63.6c-67.6-61.5-149.2-100.2-231.1-138C2519.9,516.5,2516.4,517.2,2510.5,516.9z M1362.1,850.9
	c-1.3-9.7-2.1-21.8-4.5-33.6c-11.8-58.4-50.7-96.7-98.9-125.5c-64.6-38.6-135.2-61.4-209.1-76.6c-77.3-15.9-181.3,25.9-224.7,114.4
	c-18.1,36.9-30.6,75.2-36.8,115.6c-4.7,30.7-5.4,61.8,10.1,90.2c27.5,50.4,64.2,91.1,119.2,113.3c67.9,27.4,139.5,38.6,211,49.9
	c91.8,14.5,87,20.6,157.8-59.7C1332.2,986.4,1359.2,924.3,1362.1,850.9z M2026.2,1117.2c32.7,0.6,38.8-0.3,47.5-22.5
	c14.7-37.6,31.4-75.9,37.3-115.3c10.1-67-9.4-126.8-66.7-168.8c-92.4-67.8-196.8-97.2-310.3-86.8c-77,7.1-131.7,49.8-164.2,120.9
	c-17.5,38.4-28.8,78.3-35.6,119.6c-10.5,64.2,9.7,116.1,60.2,157.9c19.2,15.9,38.5,23.4,62.8,22.1c92.1-4.8,184.3-9.3,276.5-13.3
	c18.8-0.8,31.8-9.4,39.2-25.2c13-27.8,24.7-56.2,36.5-84.5c4.6-11.1,6.6-23.7,12.8-33.7c3.8-6.1,15-13.7,19.6-12
	c7.6,2.8,15.7,11.8,18,19.8c2.5,8.8,0.2,19.7-2.5,29.1c-5.2,17.9-12.1,35.3-18.2,53C2035,1089.5,2031.2,1101.7,2026.2,1117.2z
	 M1293.5,534.5c2.5,22.8,2.9,46.2,8.2,68.3c3.4,14.1,11.9,28.4,21.9,39c18.7,19.8,39.2,38.1,60.8,54.7
	c15.4,11.9,32.9,21.8,50.8,29.3c20.1,8.4,41.9,12.8,62.8,19.6c23,7.4,40.3,4.2,57.5-16.2c40.5-47.9,92.9-76.2,156.2-82.2
	c18.5-1.8,37.1-3.2,55.8-3.7c12.2-0.3,20.9-3.8,25.3-16.2c20.6-57.2,37.3-115,30-176.8c-6-51-28.8-90.3-76-115.7
	c-91.7-49.3-188.7-62.6-290.2-45.7c-71.5,11.9-117.8,54.6-141.4,122.7C1301.5,451.3,1295,492.2,1293.5,534.5z M2192.7,930.3
	c75.9,0.3,148.1-7,217.2-36.2c35.7-15.1,58.6-40.9,72-76.7c18.7-49.8,20.7-101.5,11.2-152.5c-9.3-50.3-36.2-91.7-82.6-117.2
	c-96.7-53.2-198.9-59.1-302.8-28.7c-65.5,19.2-104.9,65.1-112.7,135.4c-4.3,39-8.3,34.9,27.7,51.6c10.9,5.1,21.5,11,31.7,17.5
	c66.5,42.1,115.4,97.2,129.7,177.6C2185.8,910.4,2189.5,919.5,2192.7,930.3z M1489.3,817.6c-16.4-1.4-33.9-3-50.1-4.4
	c-2.8,35.1-2.7,66-8.1,95.8c-12.8,70.8-46.9,131.8-92.5,187c-7.1,8.6-18.6,15.4-17.9,32.2c60,3.6,118.5,7.2,185.9,11.2
	c-36.4-52-52.7-103-46.3-157.5C1466.5,928.8,1478.6,876.4,1489.3,817.6z M2163.8,1088.7c4.6,1.5,6.8,3.1,8.6,2.7
	c19.2-4.4,38.3-9.2,57.5-13.6c103.1-23.8,201.9-59.1,294.2-111.3c17.1-9.7,33.3-21.3,48.3-33.9c5.6-4.7,10.8-16.4,8.7-22.2
	c-5.8-15.8-13.2-32.3-33.8-37.8c-29.3,49.1-71.7,80.3-123.4,100.3c-54.9,21.2-111.5,32-170.3,32.3
	C2174.2,1005.4,2174.2,1005.4,2163.8,1088.7z M579.5,834.8c9.9-7,16.7-10.6,21.8-15.8c32.3-32.4,69.3-57.2,113.4-70
	c15.2-4.4,24.2-14.2,29.9-28c15.2-37.2,39.1-68.2,67.3-96.4c5.1-5.1,9-11.5,17.6-22.6c-14.3,4.1-22.6,5.6-30.2,8.9
	c-60.9,25.8-117.4,59.4-167.2,102.9c-16.2,14.2-29.2,32.6-41.5,50.5C577,783.7,573.3,806.1,579.5,834.8z M2153.3,416.4
	c-36.2-6.7-72.3-14.4-108.7-20c-44.3-6.7-88.8-12-133.3-17.1c-9.4-1.1-21.7-1.7-23.7,11.4c-2.3,14.6,9.9,17.4,20.8,20
	c2.1,0.5,4.3,0.6,6.5,0.9c46.3,7.6,92.7,15,138.9,22.8C2088.2,440.2,2120.9,435.3,2153.3,416.4z M723.8,975.8
	c-7.2-29.6-15.1-52.2-17.8-75.3c-2.8-23.8-0.6-48.2-0.6-77.1c-35.5,15.9-57.1,38-73.9,65.2c-6.6,10.6-4.1,20.9,5.3,29.4
	C661.1,940.1,689.1,956.2,723.8,975.8z M2572.8,703.2c0,16.5,1.8,28.6-0.3,40c-5.9,31.6-0.4,56.5,29.1,75.5
	c13.4,8.7,21.4,25.7,32.4,39.7C2665.5,810.9,2637.5,736.6,2572.8,703.2z M1217.4,509.9c-46.8,11.7-88.9,11.8-127,33
	c39.3,7.6,78.7,15.2,122,23.5C1214.2,545.7,1215.6,530.1,1217.4,509.9z M1906.8,496.9c-11.2,17.1-13.8,32.6-2.5,45
	c10.5,11.5,26.2,8.5,39.6,3c16.2-6.6,26.8-17.4,21.7-40C1945.7,502.2,1925.8,499.5,1906.8,496.9z M1921.7,660.2
	c1.2-17.7,2.2-32,3.4-48.6c-14.3,0-25.2-1.9-35.2,0.5c-12.4,2.9-20.2,12.4-20.9,25.9c-0.7,14.9,10.9,17.2,21.6,19.2
	C1899.7,658.9,1909.1,659.1,1921.7,660.2z"/>
<path d="M627.5,1467.5c-9.7,120.7-9.2,241.7-5.1,362.5c9,264.6,45,525.3,118.5,780.2c10,34.8,23,68.8,32.8,103.7
	c3,10.8,4.2,26-1.3,34.3c-6.3,9.4-20.2,15.9-32,18.8c-14.3,3.5-21.7-8.9-25.8-20.6c-15.9-45.6-33-90.9-46.2-137.3
	c-59.9-211.2-91.7-427.1-106.8-645.9c-10.9-157.1-9.2-314.2-4.4-471.3c0.4-14.2,2.2-28.5,5-42.5c4.7-23.4,15.9-32.6,35.1-30.9
	c20.6,1.8,30.3,14.2,30.6,39.2C628.1,1460.9,627.7,1464.2,627.5,1467.5z"/>
<path d="M1202.7,2217.2c0.2,69.9-57.2,124.6-130.7,124.6c-67.4,0.1-127.3-59.4-127.1-126.2c0.2-70.3,57.7-126.5,129.5-126.4
	C1145.2,2089.2,1202.6,2146.5,1202.7,2217.2z"/>
<path d="M2129.3,2339.8c-67.6,0.4-125.9-56.3-125.5-122.1c0.4-69.4,59.2-128.5,128-128.7c68.9-0.2,125.8,56.5,126.1,125.5
	C2258.2,2285.7,2203.2,2339.3,2129.3,2339.8z"/>
<path d="M1622,2512.8c-100.3,0.8-174.5-45.9-204.1-121c-5.1-13-8.1-27.4-9.3-41.4c-1.1-13.1,6-22.9,19.7-26.7
	c14.5-4.1,26.6-0.9,34.1,12.3c5.9,10.4,9.9,22,14.9,33c23.1,50.9,75.1,84.3,132.5,79.9c57.8-4.4,107-25.5,128.6-85.9
	c1.8-5.2,3.6-10.4,5.6-15.5c10.5-26.9,20-33.2,40.3-26.8c20,6.3,24.8,16.9,18.1,45.4c-15.2,64.7-53.8,110.1-116.3,132.7
	C1661.6,2507.6,1634.9,2510.1,1622,2512.8z"/>
<path d="M812.9,2857.8c3.2,2,11.7,5.2,16.8,11.3c7,8.2,12.4,18.2,16.9,28.1c31.9,70.4,73.4,134.9,121.4,195.3
	c5.5,6.9,10.9,13.8,15.5,21.3c10.7,17.1,8.9,30.1-5.6,43.9c-12.5,11.9-27.1,14.4-41.9,4.4c-9.8-6.6-18.7-15.3-26.3-24.5
	c-51.8-63.3-92.9-133.1-124.9-208.3c-4.7-11-8.6-22.8-10.1-34.5C772.1,2874.3,787.2,2858.5,812.9,2857.8z"/>
<path d="M819.7,883c8.4-51.5,24.4-104.6,57.9-151c14.4-19.9,26.2-24.5,37.3-17.5c13.1,8.4,14.8,22.1,5.2,44.1c-2.6,6-5.4,12-9,17.6
	C887.8,812.9,874,852.7,869,896c-3.6,31.2-10.5,38.8-26.9,36.6c-15.4-2-22.6-15.7-22.3-42C819.8,889.6,819.7,888.5,819.7,883z"/>
<path d="M1005.7,651.4c5.9,4.8,17.1,9.6,21.6,18c18.5,34.6,45.4,58.4,81.8,72.4c6.8,2.6,15,8,17.3,14.1c3.1,8.2,4.1,19.9,0.4,27.3
	c-2.7,5.4-14.3,6.7-22.1,8.9c-2.7,0.7-6.3-1.3-9.4-2.3c-50.7-16.6-86.3-51.4-112.2-96.2c-12.3-21.3-4.7-37,15.2-40.4
	C999.2,653,1000.3,652.7,1005.7,651.4z"/>
<path d="M1887.5,952.2c-41-4.4-79.8-11.2-117.1-25.6c-8-3.1-15.8-7.6-22.6-13c-10-8-10.1-18.3-4.5-29.6c6-12,14.9-15.3,27.1-11.3
	c8.3,2.8,16.8,5.3,24.8,8.8c61.7,26.8,123.8,25.7,186.4,3.6c7.2-2.5,14.7-6.1,22-6.2c6.8-0.1,16.9,2,19.6,6.6
	c2.8,5,1.2,16.2-2.9,20.7c-8.7,9.4-19.2,19.9-30.8,23.2C1956,938.7,1921.6,944.8,1887.5,952.2z"/>
<path d="M1682,424.3c4.7,33.2,0,41.2-28.7,46.8c-54.2,10.6-107.5,4.4-158.6-15.2c-24.3-9.3-47.9-22.4-68.7-37.9
	c-12.1-9-20.6-25.5-25.8-40.3c-2.7-7.7,2.9-21.7,9.4-28.3c8.7-8.9,20.4-4.5,29.1,4.4c3.1,3.1,6.5,6,9.2,9.4
	c36.5,44.3,86.2,58.5,140.5,61C1618.9,425.4,1649.5,424.3,1682,424.3z"/>
<path d="M1382.4,452.5c0.7,8.9,1.6,16.4,1.8,23.9c1,40.5,1.7,80.9,2.7,121.4c0.3,12.7,0.1,24.2-16.2,27.5
	c-15.9,3.2-25.5-2.9-29.8-17.8c-2.4-8.4-5.4-16.9-5.7-25.5c-1.1-33.9-2.3-67.9-1.3-101.8C1334.9,448.2,1345.4,442.5,1382.4,452.5z"
	/>
<path d="M2247.1,699.4c-32-6.8-64.2-12.9-96.1-20.6c-13.2-3.2-23.9-11.1-25.8-26.5c-2.1-16.3,5.7-25.6,21.9-24.4
	c7.5,0.6,15,3.2,22.3,5.3c74.1,20.9,145.2,19.8,210.2-28.2c9.8-7.2,20.6-14.2,33-5.1c10,7.4,11.9,25.7,1.6,39
	c-7.7,10-18.6,18.7-29.8,24.6C2344.9,684.6,2293,695.9,2247.1,699.4z"/>
<path d="M2420.4,678.1c36.5-5,46.3,0.9,45.5,32.7c-0.7,30.4-5.1,60.9-9.9,91c-1.4,8.7-7.7,19.1-15,23.8c-6.8,4.4-19.2,5.4-26.5,2.1
	c-5.4-2.4-10.5-15.2-8.8-21.6c9.9-38.6,11.5-77.7,10.7-117.2C2416.4,685.9,2418.6,682.9,2420.4,678.1z"/>
</svg>
