<?xml version="1.0" encoding="utf-8"?>
<!-- Generator: Adobe Illustrator 24.3.0, SVG Export Plug-In . SVG Version: 6.00 Build 0)  -->
<svg version="1.1" id="Layer_1" xmlns="http://www.w3.org/2000/svg" xmlns:xlink="http://www.w3.org/1999/xlink" x="0px" y="0px"
	 viewBox="0 0 4000 4000" style="enable-background:new 0 0 4000 4000;" xml:space="preserve">
<path d="M1973.8,506.5c2.7-9.1,5.4-18.3,8.3-27.4C2017,368.5,2072.6,270.8,2161,194c14.8-12.8,30.9-24.6,48-34.1
	c25.7-14.3,50.6-8.8,64.4,11.7c16.5,24.5,13.4,49.3-9.8,69.4c-11.5,10-24.2,18.5-36.3,27.7c-80.1,60.9-128.5,142.9-157.6,237.6
	c-0.5,1.5,0.4,3.5,0.7,5.8c22.9,1.9,46,2.7,68.8,5.9c115,16.4,197.7,78.4,250.3,181c28.5,55.6,45.2,114.7,50.4,177.1
	c1.9,22.4,2,21.8,23.2,29.8c161,60.5,308.3,143,428.5,268.3c87.3,91.1,143.9,198,158.5,324.6c2.5,21.3,11.8,33.6,27.9,45.2
	c118.7,85.3,197.6,198.6,232.5,340.7c32.6,132.7,16.7,259.6-54.4,377.7c-10.5,17.5-23.7,33.8-38,48.4
	c-12.5,12.8-20.1,26.4-23.9,43.7c-19.4,88.3-39.4,176.4-59.6,264.5c-42.5,185.8-85.1,371.6-127.8,557.4
	c-13.2,57.6-26.7,115.1-40.6,172.5c-4,16.5-9.9,32.5-15.2,48.6c-17.8,54.4-57.9,89.2-104.4,118.2c-61.2,38.3-127.7,64.8-196.2,86
	c-125.2,38.6-253.2,63.3-383.3,78.7c-133.9,15.9-268.1,18.2-402.2,8.6c-184.5-13.2-365.8-44.7-541.1-105.8
	c-60.1-21-117.8-47.3-171.7-81.8c-49.6-31.8-85-73.5-100-131.2c-28.2-108.2-57.5-216.2-84.6-324.8
	c-54.7-219.7-108-439.8-162.5-659.6c-2.6-10.6-9.1-21.6-16.9-29.4c-132.4-132.6-167.1-292.1-126-470
	c34.1-147.5,116-264.1,242.5-348.3c10.5-7,16.8-15.1,18.5-27.7c22.6-163.6,113.2-281,251-365c33.5-20.4,70.2-35.3,104.9-53.7
	c9.8-5.2,20.9-11.9,26.3-20.9c48.1-80.3,117.9-135.9,199.1-179.1c15.7-8.3,36.7-12.1,46.4-24.8c9.7-12.6,8.2-33.8,11.8-51.2
	c14.9-70.4,43.4-134.8,89-190.4c61.9-75.5,141.4-120.1,240-125.5c22.8-1.2,46.1,4.3,69.1,6.6
	C1964.3,506.8,1967.9,506.5,1973.8,506.5z M1350,1216.4c-6.2,0.8-10.7,0.7-14.9,2c-118.8,37.2-208.7,108.7-260,223.7
	c-38.1,85.5-32.3,167.2,27.6,242.1c35.7,44.6,79.5,79.6,128.9,107.9c97.7,56,204.9,83.6,314.5,103c85.5,15.1,171.8,24.1,258.6,28.6
	c129.8,6.8,259.4,5.4,389-3.9c92.9-6.6,185-19,276.6-36c95.5-17.7,188-44.3,273.4-92c40.9-22.9,78.3-50.3,109-86.1
	c50.4-58.8,73.4-126.1,62.7-203.7c-8.7-63.2-32.6-120.5-67.4-173.7c-48-73.4-113.2-128.7-184.8-177.2
	c-94.1-63.7-197-109.2-304.5-144.6c-4.7-1.6-10-1.5-12.9-1.8c-15.1,30.8-26.6,61.2-43.9,88c-51.3,79.8-124.3,128.8-217.7,148.6
	c-85.9,18.2-169.5,11.7-250-22.1c-95.3-40-154.2-113.4-184.1-211.2c-2.8-9-5.8-18-9.1-28.3c-34.2,9.1-63.6,21.7-91.2,38.4
	c-56.4,33.9-104,76.6-129.3,139c-23.4,57.8-16.7,112.2,24,160.9c4,4.8,8.4,9.3,12.1,14.3c7.1,9.9,7,20.2-0.9,29.6
	c-8.2,9.8-19.1,14.8-30.9,8.2c-9.1-5.1-19-11.7-24.1-20.2c-13.6-22.9-26.5-46.6-36.3-71.3C1357.3,1259.8,1355.1,1239,1350,1216.4z
	 M2961.4,1623.4c-3.5,5.5-5.3,7.6-6.2,10c-29.3,79.7-83,139.2-153.2,184.8c-80.7,52.4-170,83.6-263,104.6
	c-166.5,37.5-335.6,54.2-506,58.2c-100.4,2.4-200.5-1.7-300.6-9.5c-105.5-8.3-209.9-22.9-312.4-49.5c-95-24.7-186-58.9-266.1-117.5
	c-59-43.1-106.9-95.1-132.9-164.8c-1.5-3.9-4.6-7.2-7.8-12.1c-11.1,6.3-21.5,11.4-31.1,17.7c-46.8,30.9-87.8,68.2-119.7,114.4
	c-72.6,105.1-103.3,219.4-72.5,346.2c15,61.6,43.5,116,94.3,155.5c54.6,42.5,115.2,57.8,180.9,27.8c23.2-10.6,44.4-26.3,65.5-41.1
	c24.3-17.1,41.5-13.3,53.1,13.5c1.1,2.5,2.1,5,2.8,7.5c10.3,36.9,32.9,65.4,62.6,88.3c107.5,83,244.9,30.2,285.4-50.4
	c2.4-4.8,5.3-9.4,8.6-13.6c14.7-18.7,35.8-17.2,47.8,3.6c4.5,7.7,7.4,16.3,11.5,24.3c43.6,86.6,136.6,127.5,225.4,97.3
	c57.1-19.4,101.9-55.2,132.1-108.2c4-7,7.3-14.4,11.9-21c11.4-16.5,29-18.5,43.1-4.3c6.2,6.2,10.2,14.7,15.9,21.5
	c18.3,21.9,34.6,46.2,56,64.6c56.2,48.2,122.2,67.9,195.1,49.6c62.7-15.7,112.1-50,137-113.4c19.4-49.4,38.6-51,71.7-7.8
	c6,7.8,12.4,15.3,19.7,21.9c106.2,97,269.8,46.8,309.6-64.5c11.8-32.8,29.2-35.9,57.8-15.2c1.4,1.1,2.8,2.2,4.2,3.3
	c85.5,62.1,201.9,39.8,255.4-42.7c49.7-76.7,63.9-160.4,52.5-249.3c-13-100.7-61.1-184.3-130.9-256.1
	C3030.6,1668.1,2997.7,1645.2,2961.4,1623.4z M2303.3,3538.7c8.7,0,12.4,0.6,15.8-0.1c72.7-14.6,145.4-29.5,218.2-43.9
	c16.2-3.2,23.3-11.7,26.7-28.3c23.4-113,48-225.7,72.2-338.6c35.8-167.1,71.8-334.1,107.3-501.3c15.5-72.6,30.3-145.4,45.1-218.1
	c1.5-7.1,1.4-14.5,2.5-26.6c-56.4,31.5-110.7,49.1-171,45.4c-60.6-3.7-110.4-31.9-158-68.3c-15.5,18.9-19.9,38.7-22.3,59.1
	c-16,131.5-32,263-47.7,394.6c-1.4,11.9-0.2,24.2-0.2,35.7c58.9,16.6,85.4,47.3,86,96.9c0.3,22.5-7.2,41.7-19.9,60
	c-23,33.3-58.7,32.8-93.8,33.4C2343.9,3206.4,2319.4,3370.8,2303.3,3538.7z M1710,3537.3c-10.2-87.1-19.3-169.6-29.9-251.9
	c-10.7-82.9-18.5-166.2-30.1-248.9c-75,9.7-118.5-17-128.6-76.3c-4.3-25.4,4.1-47.6,17.3-68.6c19.6-31,50.5-40.3,87.1-42.2
	c-19.3-155.2-38.3-308.5-57.6-461.8c-0.6-4.8-3.9-9.3-7.1-16.5c-33.4,26.9-65,53.4-104.9,66.1c-39.7,12.6-80,17.2-121.8,12.2
	c-41.2-5-76.8-24.2-115.8-44.8c0.9,10.3,0.7,15.6,1.8,20.7c27.1,124.2,54.1,248.3,81.5,372.4c29.7,134.6,60,269,89.8,403.6
	c19.3,87.4,38.5,174.8,57,262.4c3.2,15.2,9.9,23.8,25,27.1c55.1,11.8,110,24.6,165.1,36C1660.6,3531.2,1682.9,3533.3,1710,3537.3z
	 M2034,3099.7c33-10.4,56.3-29.7,66.8-63.2c4-12.8,6.8-25.9,11.2-38.5c3.7-10.5,12-15.1,23.4-13.6c11.6,1.5,20.5,6.8,23.5,18.7
	c1.3,5.1,1.4,10.8,0.5,16c-9.4,54.4-42.4,115.5-113.5,132.5c-5,1.2-9.7,3.6-15.9,6c-2.4,133.7-0.5,266.7-0.1,398.9
	c6.2,1.9,8.7,3.4,11.1,3.3c64.3-3.4,128.7-7,193-10.5c11.2-0.6,15.1-7,16.1-17.4c2-21.4,4.6-42.7,7.2-64
	c10.1-81.7,20.4-163.3,30.4-245c8.1-66.6,16.2-133.2,23.6-199.9c1-9.3,0.6-20.3-3.6-28.3c-22.2-42.9-13.5-80.8,14.5-117.4
	c6.7-8.8,11.7-20,13.8-30.9c3.8-19.2,4.6-39,6.9-58.6c10.3-86.2,20.7-172.3,31-258.5c3.4-28.1,6.5-56.2,10.3-89.2
	c-12.6,6-21.2,10.1-29.7,14.3c-36.7,17.8-75.1,28.9-116.3,28.1c-72.4-1.3-136.9-23.9-192.3-71.1c-4.9-4.1-10.7-7.2-17.1-11.4
	C2021.8,2439.1,2026.4,3071.6,2034,3099.7z M1630.1,2441.1c-0.4,7.9-1.1,11.4-0.7,14.8c4.7,36.4,9.7,72.7,14.3,109.1
	c12.1,96.8,23.6,193.6,36.4,290.3c1.8,13.6,8.1,27.1,14.5,39.5c14.6,28.1,21.9,56.2,10.4,87.6c-3.5,9.6-4.2,21.1-3.2,31.4
	c5,49,11,97.8,16.8,146.7c14.4,120.8,28.9,241.7,43.5,362.5c3.1,25.3,3.6,25.3,27.2,26.8c50.9,3.2,101.8,6.7,152.7,9.8
	c11.2,0.7,22.5,0.1,33.5,0.1c1.3-7.1,2.4-10.6,2.4-14.1c-0.6-122.6-1.2-245.3-2.2-367.9c-0.2-19.5-1.2-20.3-23.5-25.3
	c-69.7-15.6-102.9-82.5-109.3-129.3c-0.6-4.4-0.6-9,0.2-13.4c2.4-13.1,13.2-22.6,25.7-23.4c14.2-0.9,21.3,7.5,25.1,19.6
	c1.6,5.1,1.4,10.7,3.1,15.8c4.5,13.5,7.5,28.1,14.8,40c12.8,20.8,30.9,35.8,57.4,37.1c8.3-46.4,7.7-675.5-0.9-703.3
	C1867.6,2489.6,1756.8,2513.7,1630.1,2441.1z M1967.4,637.6c-25.6-1.3-47-4.4-68.1-3c-71.5,4.9-124.9,42.2-162.4,100.8
	c-56.3,87.9-64.9,182.7-28.6,280.1c25.3,68,71.4,119.2,137.4,151.2c63.3,30.7,130.4,36.8,199.1,27.5c51.1-6.9,98.7-24.3,141.6-53.9
	c115.8-79.9,153.3-255.3,85.8-380.3c-29.8-55.1-74.9-93.1-136.5-109c-35.8-9.3-71.7-10.4-107.8-1.4c0,26.2,0,49.7,0,77
	c11.5-3.1,19.9-4.8,27.9-7.7c9.3-3.2,18.1-7.7,27.3-11.1c12.3-4.6,22.7-3,29.9,9.5c7.1,12.3,6,24.2-3.8,34.2
	c-3.1,3.2-6.7,6.1-10.6,8.2c-60.3,31.3-127.6,26.8-183.9-8.9c-12.9-8.1-19.9-20.4-18.5-36.3c1.5-18.3,11.7-25.3,29.2-18.6
	c13.9,5.3,27.1,12.2,42.2,19.1C1967.4,688.8,1967.4,665.4,1967.4,637.6z M1393.5,3464.9c-1.2-10.6-1.4-17.6-2.9-24.3
	c-7.6-34.9-15.6-69.8-23.3-104.7c-50-226.1-100.1-452.3-150.1-678.5c-23-103.9-45.8-207.8-69-311.7c-2.4-10.8-6.2-21.3-8.8-30.1
	c-35.1,12.9-66,28.8-98.8,35.1c-33.4,6.5-68.6,3.5-104.3,4.8c0.6,4.1,0.8,9.3,2,14.2c8.7,35.6,17.6,71.2,26.4,106.8
	c52.8,213.6,105.3,427.2,158.4,640.6c16.9,67.7,36.4,134.7,52.8,202.5c8.2,33.8,25.9,58.7,56.4,74c38.3,19.1,77.1,37.5,116,55.4
	C1362,3455.1,1376.5,3458.9,1393.5,3464.9z M3063.1,2326.2c-69.5,18.8-132.5,9-195.6-25.2c-86.7,389.9-165.1,776.8-250.5,1165.1
	c10.3-1.5,16.7-1.3,22.1-3.5c37.2-15.3,74.2-31.2,111.2-46.8c49.1-20.7,79.8-55.9,87-109.8c0.1-0.9,0.4-1.8,0.6-2.6
	c33.2-140.1,66.8-280.2,99.4-420.4c41.4-177.7,82-355.6,122.8-533.5C3061.6,2343.5,3061.8,2337.3,3063.1,2326.2z"/>
<path d="M1749.6,916.7c1.6-51.1,13.7-94.4,40.4-132.8c7.5-10.8,17.3-20.4,27.3-29.1c11.3-9.6,24.6-9.6,37.5-2.3
	c14,7.9,16.5,20.4,7,33.4c-1.6,2.2-3.2,4.4-5.3,6c-43.8,32.9-52.1,80.7-55.2,130.7c-0.3,4.4-0.1,8.9-0.4,13.4
	c-1.1,16.5-7.4,24-21.2,25.6c-12.9,1.4-25.5-8.3-28.1-22.9C1749.9,930,1749.9,921,1749.6,916.7z"/>
</svg>
