<?xml version="1.0" encoding="utf-8"?>
<!-- Generator: Adobe Illustrator 24.3.0, SVG Export Plug-In . SVG Version: 6.00 Build 0)  -->
<svg version="1.1" id="Layer_1" xmlns="http://www.w3.org/2000/svg" xmlns:xlink="http://www.w3.org/1999/xlink" x="0px" y="0px"
	 viewBox="0 0 4000 4000" style="enable-background:new 0 0 4000 4000;" xml:space="preserve">
<path d="M151.1,1855.2c-10.6-160.2,1.4-318.2,50.4-471.8c13.4-42,27.3-84.1,45.7-124.1C310.7,1121,380.5,985.8,460.3,856
	C543,721.6,656.4,618.5,791.3,538c7-4.2,13.9-8.4,21.2-11.9c100.5-48.5,184.5-119.9,268.9-191.3c137.1-116,291.8-197.4,468.7-234.1
	c94.8-19.7,190.8-28.3,287.4-27.4c238,2.1,472.4,31.1,702.6,93.2c199.4,53.7,374.5,150.2,521.2,295.8c69.5,69,144.6,130.4,223.7,188
	c148.8,108.4,250.8,252.8,315,424.7c30.2,80.9,49.7,164.5,64.8,249.2c28.6,160.2,67.7,318,108.9,475.3
	c23.9,91.1,43.9,182.8,48.2,277.5c5,108.7-4.4,215.8-28.1,321.8c-29.9,134.1-68.3,265.2-124.8,390.9c-89,198-216.6,364.3-391.8,494
	c-63.4,47-124,97.8-184.2,148.9c-194.7,165.6-416.7,273.9-669.2,315c-72.9,11.9-148.4,15.8-222.1,12.1
	c-130.4-6.6-259.9-3.3-389.8,6.6c-194.8,14.9-378.5-26.9-552.7-113.7c-72-35.9-139.5-78.8-203.2-127.9
	c-70.9-54.7-145.1-104.4-222.6-149.4c-120.7-70.1-225.8-159.1-316.6-265c-83.2-97.1-144.6-207.5-195.2-324.2
	c-82.7-190.9-141.3-388.6-158.8-596.7c-7-83.3-8.3-167-11.6-250.6C150.2,1911,151.1,1883.1,151.1,1855.2z M2116.1,3584.2
	c118,7.9,212,6.3,304.9-11.9c212.1-41.6,398.1-137.2,563.7-275c65.1-54.2,130.3-108.5,198.1-159.3
	c153.6-115.1,265.7-261.3,339.3-438.1c38.9-93.5,68.7-189.8,94.6-287.6c47.1-177.9,49.2-355.5-0.8-533.5
	c-21.7-77.1-42.4-154.6-60.1-232.7c-31.7-139.3-57.7-279.9-91.9-418.5c-48.2-195.4-150.2-355.5-321.6-468
	c-45.3-29.7-85.9-67-127.2-102.5c-27.3-23.4-51.3-50.5-77.9-74.9c-96.6-88.7-201.7-164.8-326.3-209.3
	c-63.3-22.6-127.7-42.5-192.6-60c-140.8-37.8-285.2-52.9-430.2-62.9c-111.4-7.7-222.7-8.7-334,5.9
	c-158.3,20.7-299.6,81.7-425.2,178.7c-45,34.7-86.9,73.5-128.9,111.9c-39.7,36.2-81.5,68.8-129.2,93.9c-38,20-75.2,41.7-112,63.8
	C745.8,772,654.7,861.6,590.3,976.8c-42.5,76-82.2,153.6-125.4,229.2c-96.6,169.2-147.7,350.1-145.5,545.4
	c0.8,70.9-0.2,141.8,2.4,212.6c3.2,84.7,5.3,169.8,15.1,253.8c22.1,189.7,80.9,369.4,161,542.2c86.2,186,215.8,334.4,389.3,444.7
	c82.3,52.3,162.8,107.3,244.2,160.9c54.3,35.7,107.3,73.5,163.3,106.3c160.9,94.4,335.5,132.3,521.5,120.6
	C1923.8,3585.8,2031.7,3577.3,2116.1,3584.2z"/>
<path d="M1151,1228.7c-5.9,95.2-45.4,190.1-147.4,247c-78.4,43.7-162.6,46.6-245.7,13.3c-71-28.5-109.6-85.5-116.9-160.4
	c-8.2-83.6,18.3-158.2,72.3-222.5c27.6-32.8,62.4-55.6,104.7-65c19.1-4.3,32.9-13.1,44.9-29.4c9-12.3,23.7-22.8,38-28.6
	c72-29,152.8-4.6,198.6,58.2C1132.7,1086.9,1151,1147.5,1151,1228.7z M1083.9,1225.7c-0.8-57.3-10.9-96.2-31.1-132.3
	c-20.1-35.8-52.5-51.9-92.2-52.2c-11.3-0.1-28.1,5.6-32.9,14c-17.5,30.8-45.2,40.8-76.7,48c-47.4,10.9-85.1,37-108.7,80.1
	c-18.6,33.8-30.1,70.4-32.9,109.2c-5.4,73,36.6,128.3,108.5,143.4c100.3,21.1,203-30.3,242.8-125
	C1073.8,1279.4,1078.9,1244.5,1083.9,1225.7z"/>
<path d="M1611.7,3367.6c-62.7-2.4-121.6-17.2-177-46.7c-44.3-23.6-73.7-59.2-89.8-106.2c-17.7-51.6-21.3-104.3-10.5-157.8
	c25-124.1,135.4-185.4,215.8-194.3c25.5-2.8,53.2,3.5,78.4,10.7c140.8,40.3,207.9,154.4,208.8,267.7c0.3,31.7-7.4,64.7-17.8,94.9
	c-25.3,73.4-78.7,115.4-156,125.9C1646.2,3364.2,1628.9,3365.7,1611.7,3367.6z M1399,3113.1c2.7,19.5,4.3,39.2,8.2,58.4
	c8.2,41.3,31.8,71.4,69.3,90.7c58.8,30.1,121.1,39.8,185.8,27.3c43.9-8.5,75.5-35,91.8-77.2c50.3-130.4-56.2-281-195.8-277.2
	c-10.3,0.3-21,1.9-30.6,5.4C1468.3,2962.4,1396.6,3017.5,1399,3113.1z"/>
<path d="M2738.2,1129.6c0.3-40.4,9.7-78.6,27.4-114.5c27.5-55.8,72.6-87.2,135-89.3c104.9-3.5,195.8,34.1,274.2,101.8
	c49.2,42.5,64.5,98.3,50.9,161.1c-10.3,47.7-22.7,94.9-35.2,142c-16.7,62.7-56.8,99.7-122.2,107.3c-90.8,10.6-170.8-12.1-235-79.2
	C2772,1295,2740.6,1218.1,2738.2,1129.6z M2931.5,996.2c-52.9-0.7-83,14.7-102.6,51.5c-9.6,18-16.9,38.9-18.8,59
	c-9.1,98.2,34.1,173.6,110.1,230.7c36,27,80,36.9,125.5,34c44.8-2.8,68.8-21.1,80.3-63.8c11.8-43.7,21.2-88,31.9-132
	c10.2-41.8-2.4-76-35.6-102.2C3063.2,1026.9,2995.1,1002.8,2931.5,996.2z"/>
<path d="M978.2,2410.3c-5.2,30.8-8.4,60.8-15.4,90c-30.2,125.8-142.9,157-233.4,137.8c-187.4-39.9-290.9-273.3-172.7-452.5
	c17-25.8,39.7-45.5,68.3-57.6c22.9-9.7,46.2-9.7,66.1,5.8c25.9,20.2,55.1,28.5,86.8,32c15,1.7,29.7,5.3,44.5,7.8
	c75.1,12.8,119.2,59.2,137.5,130.7C968.8,2338.9,972.3,2374.9,978.2,2410.3z M907.3,2413.5c-3.3-24.7-5.4-51.4-10.8-77.5
	c-13.2-64.3-34-83.6-98.4-95.3c-4.6-0.8-9.1-1.8-13.7-2.3c-43-4.2-85.4-10.1-121.9-36.3c-11-7.9-22.2-6.6-31.6,2.7
	c-8.2,8.1-16.9,16.3-22.8,26c-81.2,133.3-6.1,314.7,152.1,339.5c75.5,11.8,126.6-24.4,141.5-99.5
	C905.2,2452.7,905.3,2434,907.3,2413.5z"/>
<path d="M3230.9,2648c-4.8,83.5-33.3,152.3-86.8,209c-106.4,112.7-289.6,74.8-343.8-70.4c-21.8-58.3-23.9-117.9-4.4-177.4
	c15.1-46.2,43.5-81.9,89.8-100c37.6-14.7,75.4-29.6,114.1-41.1c93.2-27.6,208.4,22.4,227.1,140
	C3229.2,2623,3229.9,2638.1,3230.9,2648z M3158.9,2647c-0.5-9.7-0.5-16.7-1.3-23.6c-9.4-73.5-70.9-110.1-139.6-83.8
	c-23.8,9.1-48.3,16.2-72.6,24c-67.2,21.5-92.2,55.5-91.5,125.7c0.1,13.9,0.9,28,3.6,41.6c11.3,58.6,45.4,100.6,102,117.2
	c55.2,16.2,103.2-4.9,140.7-47.2C3139.5,2756.5,3155.7,2702.7,3158.9,2647z"/>
<path d="M1909.2,872.7c-41.1,0.6-81.8-7.4-121.1-22.8c-87.8-34.4-126.3-109.5-103.5-201.2c18.3-73.7,67.2-122.8,129.2-161.1
	c89.8-55.4,178.2-47.1,254.1,26.1c52.3,50.4,81.3,112.8,78.4,186.7c-2.7,68.9-35.8,118.6-100.5,145.3
	C2002.6,863.7,1957.4,873.1,1909.2,872.7z M1911.1,805.9c38.9-4.2,83.5-13.2,112.6-26.4c34.8-15.8,54.3-41.2,55.2-80.8
	c1.6-68.3-42.1-141-105.1-166.5c-18.5-7.5-41.8-12.3-60.6-8c-76.1,17.4-131.7,62-157.6,137.2c-20,58.1,2.9,104.7,60.9,123.9
	C1847.1,795.3,1879.6,799.2,1911.1,805.9z"/>
<path d="M2421.6,1734.6c65.6-0.7,120.5,54.6,121.1,122c0.6,66-54.8,121.4-121.8,121.6c-62.8,0.2-120.3-53.8-119.3-116.1
	C2302.8,1786.7,2357.2,1735.3,2421.6,1734.6z"/>
<path d="M1546.6,1855.1c-0.4,70.5-50.9,120.1-121.7,119.7c-65.6-0.3-115.7-51.6-115.7-118.3c0-68.2,54.3-125.2,118.9-125
	C1496.4,1731.9,1547,1784.6,1546.6,1855.1z"/>
<path d="M2410.5,3415.8c-41.7-3.3-86.2-19.5-112-67.4c-35.7-66.3-0.7-150,74.2-183.9c66.4-30,183.2-0.2,195,105.5
	c5.7,51.4-16.7,97.7-61.5,122.5C2479.5,3407.2,2450.9,3416.1,2410.5,3415.8z M2423.3,3345.9c0.1,0.7,0.2,1.4,0.4,2.2
	c12.3-2.6,25.1-3.9,36.9-7.9c22.6-7.7,37.1-23.6,39.7-47.9c2.5-23.6-6.7-43.1-25.3-57.6c-37.5-29.2-92.2-14.3-113.6,30.5
	c-18.7,39.1,1.4,75.6,44.7,80.7C2411.7,3346.4,2417.5,3345.9,2423.3,3345.9z"/>
<path d="M3493.6,2009c-0.2,68.7-50.9,115.2-125.4,115.2c-64.5,0-115.4-52.5-115.7-119.1c-0.3-69.1,57.9-133.8,120.9-134.4
	C3436.2,1870,3493.8,1936.4,3493.6,2009z M3428.3,2010.3c0.6-30.2-25.5-65.9-49.2-67.2c-27.5-1.5-54.6,27.2-55.9,59.2
	c-1.3,31.4,19.3,58.1,45.6,59.1C3399.4,2062.5,3427.8,2038.2,3428.3,2010.3z"/>
<path d="M1924.2,2133.6c-96.7,0-169.6-58.6-186.1-150.1c-1.8-10.2-2.7-20.9-1.7-31.2c1.7-17.3,13.1-26.7,29.9-29
	c15.9-2.2,27.3,4.7,32.4,20c4.4,13.2,7.3,26.9,11.5,40.1c16.3,52,59,83.9,111.3,83.4c56.3-0.6,99.6-31.3,116-82.7
	c4.2-13.3,7.5-26.8,11.9-40.1c5-15.3,15.8-22.7,32.1-19.7c15.9,2.9,29.7,9.8,30.9,27.9c0.8,12.5-0.2,25.7-3.1,37.9
	C2087.9,2079.5,2017.8,2133.6,1924.2,2133.6z"/>
</svg>
