<?xml version="1.0" encoding="utf-8"?>
<!-- Generator: Adobe Illustrator 24.3.0, SVG Export Plug-In . SVG Version: 6.00 Build 0)  -->
<svg version="1.1" id="Layer_1" xmlns="http://www.w3.org/2000/svg" xmlns:xlink="http://www.w3.org/1999/xlink" x="0px" y="0px"
	 viewBox="0 0 4000 4000" style="enable-background:new 0 0 4000 4000;" xml:space="preserve">
<path d="M1216.2,1056.8c41.8-28,79.4-54.5,118.2-78.9c55-34.5,114.7-58.6,177.9-73c85.3-19.5,170.4-14.8,255.6,2.3
	c117.1,23.4,228.5,64.2,336.1,114.3c130.6,60.9,260.4,123.8,388,190.8c124,65.1,245,136,356.8,221.3c66.8,51,129,106.7,181.3,173.3
	c90,114.7,134,244.4,134.2,389.7c0,13.1,0,26.3,0,43.3c20.8-2.8,38.5-5.3,56.1-7.4c143.1-16.9,285.7-16.6,427.1,14.5
	c24.8,5.4,49.4,13.5,72.5,24c64.3,29.1,94.8,82.2,98.1,150.8c3.4,69.8-26.9,126.7-74.4,175.6c-19.2,19.8-39.1,39-58.8,58.3
	c-23.3,22.8-34,50.6-32.7,83c1.1,26.6,2.4,53.1,4.4,79.6c5.8,79.2-7.8,154.8-39.8,227.3c-33.5,75.8-87.3,132.3-159.9,171.9
	c-84.8,46.3-81.9,37-124.1,138c-17.1,40.9-37.5,79.6-69.6,111c-65.6,64.2-156.4,73.2-233.3,23.4c-63.9-41.4-111.6-98.6-154.1-160.5
	c-58.9-85.7-104.2-178.1-135.9-277.2c-3.1-9.6-7.1-18.8-11.6-30.8c-7,3.6-12.4,5.6-17,8.8c-145.8,103.4-307,139.8-482.9,109.6
	c-112.5-19.3-219.4-57.6-324-102.1c-247.8-105.4-488.7-224.6-717.5-367.1c-73-45.5-143.4-94.9-203.2-157.5
	c-118.2-123.7-167-273.5-164.6-442.2c0.1-10,0-20,0-32.5c-8.8,1-15.6,0.8-21.9,2.6c-151.4,43.5-305.5,54.5-461.8,39.1
	c-26.2-2.6-52.4-9.1-77.6-17.1c-97.3-30.9-118-122.8-94.1-191.4c10.8-31.2,31.3-59.2,48.4-88.1c7.7-13.2,18.4-24.6,26.5-37.6
	c15.2-24.3,21.2-51,15.4-79.4c-5.1-25-11.3-49.9-16.7-74.8c-27.4-125.2-7.1-241.7,63.9-348.8c35.4-53.4,84.4-91.3,140.9-120
	c21.9-11.1,44-21.7,66.2-32.2c36.8-17.3,59.7-45.8,68.3-85.3c7.6-34.9,13.5-70.2,21.1-105.2c10.2-46.7,27.8-89.7,62.9-124
	c57.8-56.5,140.7-68.9,212.2-31c38.5,20.4,70.7,48.3,99.1,81.1c101.5,117.4,176.1,250.5,231.4,394.9
	C1207.6,1032.3,1211.5,1043.8,1216.2,1056.8z M2480.5,2779.4c0-9.4,0.8-15.6-0.1-21.5c-8.3-50.1-3.7-100.1,4-149.6
	c24.3-155.6,82.8-298.7,161.9-434c4.4-7.5,7.4-15.7,11.9-25.2c-11.1-3.4-18.6-6.3-26.4-8c-59.9-13.3-105.4-47.8-140.9-96.6
	c-12.6-17.3-24.6-35.2-36.7-52.9c-27.6-40.3-60.9-74.3-105.5-95.9c-40-19.4-82.4-30.3-126.6-33.9c-50.9-4.2-102.2-5.6-152.8-12.1
	c-114-14.7-209.9-64.9-284.9-153.1c-20.5-24.2-40.4-48.9-61-73c-52.2-61-116.3-103.6-195.8-117.8c-60.3-10.7-121.5-15.8-182.2-24.4
	c-63.1-9-124.8-23-178.3-60.5c-13.3-9.3-25.8-19.7-40.1-30.7c-4.9,6.1-10,11-13.4,16.8c-79.9,138.1-131.8,285.9-145.8,445.2
	c-13.2,149.7,34.1,277.8,147.4,379.6c68.1,61.1,143.8,111.5,222.3,157.5c199.5,117,405.7,220.5,619.6,308.6
	c96.5,39.8,194.6,74.3,297.2,95.1C2330.7,2808.4,2404.6,2800,2480.5,2779.4z M1167.2,1330.7c1.9,5.5,2,7.8,3.2,9.3
	c3.2,4,6.4,8,10.2,11.4c31.8,28.7,68.6,49.3,110.6,56.4c60.4,10.2,121.4,16.7,182.1,24.7c121,15.9,226,62.1,304.3,159.5
	c17.3,21.5,35.1,42.6,53.1,63.5c58.7,68,130.5,115,220.4,128.4c56.5,8.4,113.7,12,170.7,16.4c115.2,8.9,211.4,51.8,278.1,150.2
	c14.9,22,30.2,43.7,45.8,65.2c32.8,45.1,78.9,66.1,132.7,73.8c19,2.7,34.2-1.4,45.3-17.9c4-5.9,8.8-11.3,13.4-16.8
	c69.7-81.5,146-154.8,247-197c4.4-1.9,8.2-5.3,12.1-8c-0.6-4.4-0.4-7.6-1.4-10.3c-2.8-7.7-5.9-15.2-9.1-22.8
	c-34.9-82.9-90.9-149.9-157.7-208.7c-66.2-58.3-138.4-108.5-213.5-154.5c-173.7-106.5-354.8-199.1-540.1-283.4
	c-106.2-48.3-214.9-89.7-329.1-116c-119.2-27.5-232.1-14.8-335.7,52.4C1316.4,1167.3,1237.8,1244.4,1167.2,1330.7z M1018.8,1449.3
	c-10.5-4.5-19.5-8.6-28.7-12.4c-73.6-30.6-147.3-61-220.8-91.9c-12.2-5.1-24.3-11.2-35.1-18.7c-16.4-11.4-17.7-22.8-6.9-39.3
	c9.4-14.5,17.7-17.4,36.9-9.2c29.1,12.5,57.2,27.3,86.3,39.7c57.4,24.4,115,48.1,172.8,71.3c24.5,9.9,42.1-4.5,39.3-31
	c-0.4-4-1.9-7.9-3.2-11.8c-37.2-110.9-97.1-206.8-187.5-282.4c-7.8-6.5-16.1-12.9-22.3-20.8c-10.7-13.5-8.8-27.7,3.7-41.4
	c10.9-12,18.7-13,35.1-2.4c9.4,6,18.2,13.3,26.3,21c75.4,72,137.9,153.3,180.5,249.2c4.7,10.6,9,22.4,22,27.4
	c11.5-14.6,3.8-28.7,1.1-41.9c-33.6-163.5-100.1-313-193.8-450.5c-29.4-43.2-62.2-83.8-103.4-116.7c-21.4-17.1-45.5-15.2-61.6,6.6
	c-9.4,12.8-16.4,28.5-20.5,44c-6.5,24.6-10,50.1-14.3,75.2c-16.3,97-63.9,171.2-154.9,214.4c-23.1,11-46.6,21.6-67.9,35.5
	c-23.8,15.5-48.8,31.4-67,52.5c-58,67.4-70.8,147.8-56.7,233.2c5.3,32.2,16.3,63.4,22.5,95.5c14.8,76.6-3.7,145.9-49.4,208.5
	c-11.4,15.7-23.1,31.3-33.7,47.5c-4.1,6.3-5.7,14.3-9.6,24.4c15.1,2.9,26.8,6.6,38.7,7.2c124.9,6.5,249.3,6.6,372-23.5
	c74.7-18.3,146.8-43.7,217.6-73.1c21.6-9,26.3-20.1,23.6-46.2c-7,1.1-14.2,1.5-20.9,3.4c-84.3,24.7-169.9,20.5-255.6,10.6
	c-14.1-1.6-28.5-4.4-41.8-9.2c-20.8-7.3-25.7-26-13.8-44.4c11.6-17.8,27.1-13.6,43.7-9.6c103.3,24.9,205,14.3,305.6-15.3
	c7.7-2.2,16.3-9.3,19.7-16.4C1005.2,1490.2,1011,1470.6,1018.8,1449.3z M2846.1,2389.7c17.9,38.1,32.1,74.1,51,107.5
	c46,81.1,106.1,150,183.1,203.6c10.8,7.5,21.2,16.2,30.1,25.8c10.6,11.6,7.8,25-0.6,36.6c-8.1,11.3-19.6,14.2-32.5,8.1
	c-6.5-3-13.2-5.8-18.9-10.1c-46-34.3-92.1-69-127-114.9c-33.4-43.9-63.3-90.4-94.7-135.7c-5.5-7.9-10.9-15.9-16.3-23.8
	c-9.3,26.9-7.2,51.8-4.7,76.8c8.6,87.3,33.7,170.5,64.4,251.9c46.2,122.5,105.6,237.4,203.8,327.8c4.8,4.4,10.4,7.9,18.2,13.8
	c4.4-20.1,7.5-37,12-53.6c17.9-66.3,49.4-123.4,110.8-159.3c30.3-17.8,63.7-27.2,98.2-33.2c88.2-15.4,143.9-67.4,171.8-151.7
	c7.5-22.6,7.7-41.4-12.5-57.7c-7.8-6.3-13-15.7-19.3-23.7c-95.7-123.2-81-288.9,35.6-392.5c34.5-30.6,71.5-57.9,114.5-76.1
	c5.8-2.5,10.5-7.5,20.7-15.1c-21.5-5-36.9-10-52.8-12c-150.4-19.5-300-17.7-447.9,18.7c-73.8,18.2-145.2,43-206.4,90.3
	c-5.7,4.4-10.3,10.5-20.6,21.2c19.1-2,30.1-3.3,41.2-4.3c34.6-3.1,69.2-9.4,103.6-8.5c52,1.5,103.9,7.4,155.7,12.9
	c16,1.7,32.1,6.7,47.2,12.6c17.6,6.8,23.4,20.3,18.9,36.8c-4.2,15.3-14.1,21.3-33.3,19.1c-9.1-1-18.2-2.9-27.2-4.9
	c-110.7-25.5-221.3-19.7-331.8,1.7C2870,2379.9,2860.1,2384.8,2846.1,2389.7z M3010.8,1912.9c-19,9.3-32.9,13.8-44,22
	c-42.4,31.8-87.1,61.4-125.2,97.9c-149.9,143.5-240.3,320.7-286.8,521.6c-12.5,54-19.7,108.6-18.2,164.1c0.3,10.6,2.1,21.1,3.2,32.3
	c7-1.4,10.1-1.5,12.8-2.7c6.5-2.9,12.8-6.3,19.2-9.5c66.9-32.9,119.3-85.5,177.3-130.5c10.2-7.9,12.1-18.3,9.1-30.2
	c-8.9-34.6-3.8-69.1,0.4-103.6c8.3-68.9,35.9-129.4,80.7-182.3c37-43.6,82.3-76.2,133.4-101.2c12.1-5.9,23.4-11.1,24.9-27.6
	c5.1-55.9,12.3-111.6,16.4-167.6C3015.8,1970.6,3012.2,1945.1,3010.8,1912.9z M3655.1,2267.6c-1.6-2.1-3.3-4.2-4.9-6.4
	c-3.8,0.5-8,0.1-11.3,1.5c-45.4,19.8-86.4,46.7-119.8,83.3c-50.6,55.5-70.9,120.9-55.7,195.2c6.2,30.4,15.8,60.3,41.4,82.8
	c1.4-18.2,0.5-36-1.7-53.5c-9.7-78.5,11.2-147.5,63.7-206.6c14.9-16.8,31.4-32.1,46.6-48.6
	C3627.7,2299.8,3641.2,2283.5,3655.1,2267.6z M3180.1,3127.6c27-34.5,40.3-75.3,58.6-119.8
	C3200.8,3033.8,3178.6,3079.3,3180.1,3127.6z"/>
<path d="M1441.3,1857.2c-58.5,4.8-104.2-50.7-102.8-102.2c1.6-59.5,48.4-107.7,107.1-107.8c55.2-0.1,100.3,45.2,100.9,102.3
	C1547.3,1808.8,1500.6,1860,1441.3,1857.2z"/>
<path d="M2202.4,2267.1c-55.2,0.4-101.1-45.6-100.9-101.4c0.2-58,49.5-106.8,108-107c51.3-0.2,96.5,39.1,98,103.9
	C2309,2221.2,2261.6,2266.7,2202.4,2267.1z"/>
<path d="M1796.2,2175.6c-116.9-0.4-194.9-114.2-153.6-219.3c2.2-5.7,5-11.3,8.6-16.2c8.7-12,21.4-15.1,35.2-9.5
	c13.7,5.6,17.3,16.3,14.8,29.9c-2.6,14-6.3,27.9-8.1,42.1c-5.9,45.6,17.2,83.3,63.3,104.5c38.3,17.6,84.2,9.3,112.9-21
	c7-7.4,12.5-16.2,19.4-23.7c12.7-13.9,26.7-15.5,40.7-5.4c12.9,9.3,15.9,21.1,8,37.9c-12.6,26.9-34.2,45.7-59.4,60.1
	C1851.7,2170.1,1823.2,2177.6,1796.2,2175.6z"/>
</svg>
