<?xml version="1.0" encoding="utf-8"?>
<!-- Generator: Adobe Illustrator 24.3.0, SVG Export Plug-In . SVG Version: 6.00 Build 0)  -->
<svg version="1.1" id="Layer_1" xmlns="http://www.w3.org/2000/svg" xmlns:xlink="http://www.w3.org/1999/xlink" x="0px" y="0px"
	 viewBox="0 0 4000 4000" style="enable-background:new 0 0 4000 4000;" xml:space="preserve">
<path d="M770.5,2147.2c-31.8-59-52.8-121.1-57.7-187.8c-8.1-110.3,19.9-210.9,82.2-302.2c51.1-74.8,116.9-133.8,193.8-180.5
	c18.7-11.3,26.6-24.3,29.3-46.7c11.4-94.6,55.9-172.2,128.3-233.8c48.2-41,102.7-71.5,162-92.9c37-13.4,66.7-32.9,91.7-65.2
	c61.9-79.9,147.4-127.1,242.5-156.5c23.1-7.1,31.4-17.7,34-40.3c7.7-65.7,32.3-125.2,72.5-177.8c56.3-73.6,131.4-110.9,223.9-113.4
	c18.5-0.5,37.1-0.1,58.6-0.1c-14.9-52.2-34.8-99.5-61.6-143.3c-57.1-93.7-130.2-171-231.4-218.4c-9.8-4.6-19.5-10.5-27.3-17.9
	c-13.8-13.1-15.7-32.5-6.9-48.5c9.1-16.5,25.7-25.3,44.5-19.7c16.6,4.9,32.9,12.4,47.9,21.2c155,90.7,248.7,228.2,301.3,396.8
	c2.9,9.4,5.2,19.1,8,28.5c0.6,1.9,2.5,3.5,4.8,6.6c5.4-0.3,12.1,0.6,18.1-1.1c118.7-34.3,261.1,16,335.1,158.3
	c35.3,67.8,52.4,139.3,50.5,215.6c-0.2,6.4,0.7,12.9,1.2,20.6c14.8,5.7,29.1,10.8,43.2,16.6c112.4,45.7,213.1,108.7,292.9,201.4
	c65.6,76.2,104.9,164.7,113.5,265c2.3,27.2,15.1,40.9,35.7,53.7c79.7,49.6,144.6,114.2,192.1,195.3c79.9,136.2,90.3,277.4,27.4,423
	c-6.9,15.9-14.1,31.7-20.7,46.3c2.9,3.9,3.8,6.2,5.6,7.2c69,38.9,85.6,100.6,69.3,172.2c-20,87.7-43.8,174.6-67.2,261.6
	c-73.6,273.5-149.2,546.5-220.7,820.6c-21.9,84-69,142-144.2,181.8c-77.4,40.9-159.4,67.9-244,88c-221.6,52.7-446.5,68.3-673.7,62.1
	c-146.3-4-291.7-15.7-435.5-42.5c-116.7-21.8-231.7-50.2-339.3-102.6c-7.9-3.8-15.7-7.8-23.6-11.8
	c-71.5-35.8-118.4-89.4-138.6-169.6c-36.1-143.7-77.3-286.1-116.8-429c-56.4-204.2-113.6-408.3-169.3-612.7
	c-8.6-31.5-15.1-64.5-16-96.9c-1.3-50.9,21.3-91,68-115.3c3.9-2,7.6-4.4,11.1-7.1C766.8,2154.7,767.5,2152.3,770.5,2147.2z
	 M1707.7,976.8c-80.5,16.3-148.2,50.6-204.3,105.7c-17,16.7-31.7,36.7-43.2,57.6c-26.6,48.2-18.2,93.6,22,131.4
	c8.7,8.2,18.7,15.4,28.8,21.9c49.5,31.5,104.3,46,162.4,47c30.6,0.5,61.4-3.1,92.1-4.6c15.3-0.7,30.8-1.9,46-0.4
	c5.9,0.6,13.5,7,16,12.7c4,9.2-1.3,16.9-10.8,20.7c-5.1,2-10.2,4.1-15.5,5.4c-54.9,13.1-110.4,19.6-166.7,12.9
	c-59.5-7.1-116.2-23.2-165.6-59.2c-39.2-28.5-64.5-65.2-70-114.4c-0.8-7.3-3.6-14.3-6.4-25.1c-116.7,34.8-214.1,89.6-260.4,208.3
	c-30.5,78-18.9,151.5,30.9,218c31.9,42.7,72.6,76.4,120.6,100.3c68.9,34.3,142.3,50.7,218.9,54.3c95.6,4.4,188.2-12.8,278.5-42.2
	c67.8-22.1,134.4-47.8,201.8-71.1c88.8-30.6,179.4-51.8,274.3-44.9c14.1,1,28.8,3.1,41.5,8.7c6.9,3,10,14.6,14.8,22.3
	c-6.4,3.2-12.5,8.4-19.1,9.3c-11.9,1.6-24.2-0.2-36.2,0.7c-36.1,2.8-72.3,4.7-108.1,9.7c-74.6,10.3-143.9,38.7-213.8,64.9
	c-117.5,44-235.7,84.5-362.4,91.8c-105.9,6-208.2-9.4-304.6-55.2c-85.4-40.6-151.2-100.9-185.3-191.5c-1.8-4.8-5.4-8.9-7.9-12.9
	c-70.8,26.3-143.6,86.7-194,160.1c-86.1,125.4-86.6,279.9-1.3,405.2c9.5,13.9,20.7,24.1,37.8,29.6c61.1,19.6,112.5,53.9,151.9,105.3
	c3.8,5,8.7,9.2,15.5,16.3c9.9-9,18.5-16.9,27.2-24.7c59.6-53.8,129.1-78.2,209.1-66.6c81.8,11.9,147.7,53.2,201.3,115.1
	c6.9,7.9,14.1,15.6,21.6,24c151-124,297.8-126.9,444,7.3c59.3-62.1,131.1-97.1,216.3-98.7c85.4-1.6,157.9,31.6,220.8,91.8
	c11-10.6,20.9-20.6,31.4-30c21.2-19.1,41-40.2,64.2-56.4c74.8-52,156.2-73.9,246.2-45.4c47.1,14.9,86.8,41.3,117,80.1
	c4.8-1.4,8.4-1.6,10.9-3.4c5.3-3.9,10.6-8,14.8-13c36.4-42.8,82.5-71.4,132.8-95.2c16.1-7.6,31.9-20.3,42.4-34.6
	c81-110.4,94.6-229.2,38.2-354.3c-41.4-91.8-114.6-154-198.4-205.2c-4.2-2.6-10-2.4-15.5-3.6c-3.2,5.2-6,8.5-7.7,12.4
	c-47.4,114.2-151.5,154.5-255.1,146.8c-24.9-1.9-49.5-9.3-74-15.1c-10.6-2.5-18.8-10.6-14.2-21.6c2.5-6.1,11.9-11.3,19.2-13.1
	c8.2-2,17.4,0.5,26.2,0.5c28.5-0.1,57.4,2.3,85.5-1.4c63.6-8.4,118.2-34.1,150.7-93.3c16.6-30.4,22.8-64.3,23.2-98.5
	c1.1-113.6-45.2-206.7-127.7-282.2c-77.4-70.8-170-116.1-267.3-152.6c-4.7-1.8-10.3-1-13.5-1.3c-2.9,2.3-4.2,2.8-4.6,3.7
	c-3.6,8-7,16.1-10.6,24.1c-37.6,83.9-97.3,145.4-183.3,179.8c-85.4,34.2-173.8,37.9-262.1,16.4c-144.1-35.1-240-122.6-278.8-268.4
	C1714,992.1,1711.2,986.2,1707.7,976.8z M2001.3,2994.3c36-5.5,51.8-16.8,62.2-42.7c3.7-9.1,5.8-18.9,8.6-28.3
	c4-13.1,11.9-21.4,26.5-18.6c15.1,2.8,18.8,14.5,17.1,27.5c-5.1,39.9-23,92.9-85.6,109c-29.7,7.7-30,8.4-30.1,37.2
	c-0.4,174.7-0.7,349.4-0.8,524c0,10.5,1.3,20.9,2.1,32.7c104.8,0.6,205.1-6.3,306.5-15.5c5.1-47.7,10-92.3,14.5-137
	c8-79.7,15.6-159.5,23.7-239.3c9.4-92.8,19.1-185.6,29.2-278.4c1.8-16.5-2-28.5-13.4-41.4c-32.4-36.5-41.4-78.8-24.4-125.7
	c9.3-25.6,24.1-46.8,46.9-61.9c14.6-9.7,22.4-21.9,23.8-40.4c5.1-63.4,10.9-126.9,18.8-190c3.2-25.9,3.8-46.9-23.4-60.5
	c-9.4-4.7-15.8-15.1-24.3-22c-20.4-16.7-39.9-34.9-62-48.8c-71.9-45.2-145.4-48.6-215.6,2.4c-29.9,21.7-54,51.2-81.7,75.9
	c-15.2,13.6-21.2,28.9-21.1,49.2c0.6,152.7,0.4,305.4,0.6,458.1C1999.5,2970.5,2000.6,2981.2,2001.3,2994.3z M1959.4,3047.7
	c-13.1-4-24.7-7-35.9-11c-40.4-14.4-72.9-58.2-74.7-100.2c-1-23.5,13.3-38.2,30.3-29.7c6.6,3.3,11.1,12.4,14.7,19.8
	c7.6,15.6,11.8,33.3,21.5,47.3c9.6,13.9,24.4,24.1,44.9,15.6c0-8.6,0-15.1,0-21.7c0-147.2-2.4-294.5,1.1-441.6
	c1.2-51.5-15.5-88.8-52.4-120.5c-2.5-2.1-4.8-4.5-7.2-6.7c-84.3-77.9-169.4-82.7-261.7-14.5c-6.2,4.6-12.2,9.4-18,14.5
	c-25.5,22.3-50.9,44.6-79.5,69.7c0.7,8.9,1.6,21.9,2.9,34.9c5.7,57.9,13,115.7,16.7,173.8c1.9,30.4,10,52.8,36.6,71.7
	c53.2,37.7,56.2,135.2,13.2,173.7c-15.2,13.6-18,28.6-16.1,47.1c8.8,87.4,17.3,174.8,25.7,262.3c11.3,118.1,22.4,236.2,33.6,354.2
	c2.8,29.6,4.6,32.8,28.8,34.4c84.4,5.5,168.8,10.4,253.2,15.2c7.1,0.4,14.3-2,22.4-3.3C1959.4,3436.5,1959.4,3242.5,1959.4,3047.7z
	 M2348.1,3609.7c6.3,2.3,8.5,3.9,10.3,3.6c88.2-17.3,176.4-34.7,264.5-52.5c13-2.6,19.4-11.6,22.3-25.2
	c21.6-102,44.4-203.7,65.9-305.6c42.2-199.7,83.8-399.5,125.5-599.3c13.2-63.4,25.6-126.9,38.9-190.3c3.7-17.7,2.4-30.6-15.3-41.8
	c-13.3-8.5-23.3-22.9-33.3-35.9c-62.3-80.8-145-96.3-232.2-42.9c-47.9,29.3-82.4,72.2-115.2,116.2c-7.3,9.7-9.4,24.4-10.9,37.2
	c-4.9,41.4-8.9,83-12.5,124.5c-3.3,37.8-5.5,75.8-8.2,113.6c11.3,2.7,18.7,5.8,26.2,6.1c22,1.1,40,11.1,56.8,23.9
	c41.1,31.2,58.8,85.5,44.5,135.5c-15.4,53.9-52.3,83.7-110,87.5c-16.2,1.1-32.6,0.2-50.7,0.2
	C2392.3,3181.8,2370.1,3396.3,2348.1,3609.7z M1096.5,2425.5c0-0.4-0.1,4,0.8,8.2c42.4,201.9,85.3,403.8,127.4,605.7
	c33.8,162.3,67,324.6,99.5,487.2c4,20,12.1,31.3,32.1,35.3c65.6,13,131,26.9,196.6,39.8c20.1,3.9,40.6,5.6,66.4,9
	c-21-217.6-43.7-430.8-64.8-647.2c-41,5.3-79.6,9.4-113.6-14.5c-33.6-23.6-51.8-56.5-55.1-96.9c-5.9-73.3,40.5-121.5,137.6-143.2
	c0.4-5.8,1.8-12.3,1.2-18.6c-7.3-74.3-14.5-148.5-22.6-222.7c-1.2-10.6-4.6-22-10.4-30.8c-31.7-47.9-68.3-91.6-118.1-122.1
	c-32.6-19.9-67.2-31.9-106.4-25.3c-47.2,7.9-81.8,34.6-111.3,70.4C1138.5,2380.7,1119.5,2400.2,1096.5,2425.5z M2061,702.5
	c0.4-36.1-0.6-37.5-27.5-41.4c-6.5-1-13.2-1-19.6-2.3c-82.3-16.2-144.4,16.4-190,82.3c-87.3,126.3-72.8,337.9,97.7,435.5
	c112.2,64.2,229.3,60.7,343.7,4c62.3-30.9,105.6-82.2,126.5-149.4c28.6-91.7,23.4-181.9-17.8-269.3
	c-37.9-80.6-128.5-134.6-226.9-107.6c-35.1,9.6-39.5,20.9-15.5,54.2c15.5-6.2,31.3-13.4,47.8-19c12.1-4.1,26.7-11.1,35.9,3.2
	c9.4,14.7-0.3,27.2-10.5,37.8c-3.7,3.9-8.1,7.7-12.9,10.1c-61.4,30.1-124.2,33.9-187.4,6.5c-19.4-8.4-28.1-25.5-23.6-38.7
	c4.5-13.3,18.2-16,43-10.3C2035.8,700.9,2048.3,701.1,2061,702.5z M1286.2,3538.1c-2.4-13.9-3.4-21.2-4.9-28.4
	c-36.1-171.9-72.3-343.7-108.5-515.5c-39.1-185.8-78.2-371.6-117.8-557.3c-3.1-14.7-7-31.5-16.3-42.4
	c-31.4-36.5-63.7-72.6-99.1-105.2c-17.1-15.8-40.9-25.3-63.1-34.2c-22-8.9-45.3-6.6-67.3,3.6c-13.6,6.3-20.4,16.4-16.8,31.7
	c3.8,16,7.3,32.1,11.7,48c77.8,284.8,155.6,569.7,233.7,854.5c19.7,72,39.6,144,61.2,215.4c5.2,17.1,14.3,36.3,27.6,47.1
	C1172.1,3492.1,1224.8,3516.4,1286.2,3538.1z M2683.2,3537.8c12.6-2.9,21.3-3.4,28.6-6.9c34.6-16.6,69-33.7,103.2-51.1
	c33.2-16.8,53.6-43,62.9-79.8c18.1-71.2,38.5-141.8,57.8-212.8c75.1-276.2,150.2-552.5,225.2-828.8c6.3-23.3,12.1-46.7,17-70.4
	c4.2-20.2-1-28.2-20.9-34.1c-7.2-2.1-15.1-2.6-22.7-3c-37.6-2.1-69.6,13.9-95.6,37.6c-33.9,30.9-63.6,66.4-95.6,99.3
	c-14.4,14.8-22.1,32.1-26.3,51.9c-72.3,340.2-144.8,680.4-217.2,1020.6C2694.2,3484.9,2689.2,3509.3,2683.2,3537.8z M2507.6,2799.7
	c-0.5-18.5-15.9-33.1-33.8-32.1c-20.6,1.1-36.8,18.1-36.9,38.7c-0.1,18,15.3,31.9,34.4,31.2
	C2493.2,2836.8,2508.2,2821.2,2507.6,2799.7z M1504.2,2772.6c-20,0.7-36.2,14.7-36.1,31.2c0.1,17.9,18.5,38,34.7,37.8
	c20.4-0.2,37.4-18.1,36.9-38.7C1539.2,2784.2,1524.7,2771.8,1504.2,2772.6z"/>
<path d="M2564.7,3107c-26.5-5.4-53.5-9.1-79.4-16.7c-16.9-4.9-31.5-16.2-32.3-37c-0.9-20.6,12.6-32,28.1-40.8
	c11.3-6.4,23.6-11.9,36.1-15.1c40.2-10.1,80.4-6.8,119.8,4.7c12.3,3.6,24.4,10.2,34.4,18.2c22.9,18.3,22.9,44.5-2.1,59.7
	c-17.2,10.4-38.1,15.7-58,20.4c-14.7,3.5-30.4,2.3-45.7,3.2C2565.3,3104.7,2565,3105.9,2564.7,3107z M2491.3,3057.4
	c42.8,19.1,126,15.1,154.3-5.6c-14.1-20.7-36.7-27.1-91.8-22.7C2531.4,3030.9,2505.3,3028.4,2491.3,3057.4z"/>
<path d="M1402.3,3102c-15.8-2.1-37.6-4.3-59.1-8.3c-11.7-2.2-23.5-6.1-34.1-11.5c-34.5-17.6-37.4-43-6.4-65.3
	c13-9.4,28.7-16.8,44.3-20.4c42.5-9.8,85-4.6,127,5.5c1.1,0.3,2.1,0.5,3.2,0.9c21,8.5,40.4,19.3,42.5,45c1.5,17.9-16.2,35.3-43,43.9
	c-9.4,3-19,5.7-28.7,7C1434.8,3100.5,1421.6,3100.7,1402.3,3102z M1483.1,3047.6c-35.3-25.4-71.6-20.5-106.3-20.8
	c-19.7-0.2-41,0.6-54.3,20.4C1353.5,3075.4,1436.7,3077,1483.1,3047.6z"/>
</svg>
