<?xml version="1.0" encoding="utf-8"?>
<!-- Generator: Adobe Illustrator 24.3.0, SVG Export Plug-In . SVG Version: 6.00 Build 0)  -->
<svg version="1.1" id="Layer_1" xmlns="http://www.w3.org/2000/svg" xmlns:xlink="http://www.w3.org/1999/xlink" x="0px" y="0px"
	 viewBox="0 0 4000 4000" style="enable-background:new 0 0 4000 4000;" xml:space="preserve">
<path d="M2255.8,3594.4c-37.6-3.1-75.7-7.2-114-8.9c-21.6-1-44-0.5-65.1,3.7c-110.6,22.4-221.4,37.4-334.8,27.8
	c-231.9-19.7-443.8-95.6-635.8-226.1c-52-35.4-100.7-75.8-150.1-114.9c-16.5-13.1-32.3-24.5-54.7-24.4
	c-130.1,0.2-208.8-77.5-268.5-180.9c-32.2-55.8-45.8-117.6-40.4-182.1c2.1-24.4-5.9-41.5-21.5-58.9c-111-124.6-185-268.5-214.2-433
	c-11.9-67.2-15.9-136-20.2-204.3c-1.9-29.4-6.5-55.9-21.3-81.9c-80.1-140.8-87.1-288.6-39.3-441c12.5-39.7,31-76.4,59.2-107.1
	c19.5-21.1,28.9-45.4,34.2-73.1c19.2-100.9,34.9-202.8,73.4-298.9c84.1-210.1,212.6-385.2,403.2-511.9
	c31.7-21.1,61.1-46.6,88.4-73.3c208.8-205.5,457.7-325.5,749.5-356.6c122.9-13.1,243.6-3.4,362.1,31.1c22.7,6.6,42.1,4.1,63.2-6
	c141.7-68,279.4-55.1,411,26.1c28.3,17.5,52.6,43.9,73.5,70.4c14.7,18.6,29.6,30.4,52.5,34.7c182.9,34.5,333.9,127.2,463.1,257.7
	c56.1,56.7,100.9,122.8,139.4,192.7c12.1,22,25.9,35.6,52.2,40.3c47,8.3,88.7,31.8,121.7,65.1c96.4,97.1,153.9,209.8,126.2,351.7
	c-3.6,18.6,3.4,31.3,12.2,45.6c54.9,89.2,100,182.6,123.2,285.6c28.3,125.7,22.1,250.6-9.8,374.6c-5.4,21.1-6.6,39.6,4.6,59.1
	c41.7,72.9,52.8,152.4,45.8,234.6c-9.1,106.5-46.3,203.1-114.6,285.5c-19.5,23.6-47.3,41.5-73.9,57.5c-18.7,11.2-32.1,22.7-39.2,44
	c-44.3,132.7-127.4,235.1-245.9,308.6c-35.9,22.3-64.7,49.4-84,87.6c-83.1,164.4-223.4,267.2-381.2,350.3
	c-131.8,69.4-269.6,122.2-418.4,141.2C2330.8,3591,2293.7,3591.7,2255.8,3594.4z M470.9,2163.4c-1.8,6.1-3.8,10-3.9,13.8
	c-1.1,102.2,12.6,202.1,45.1,299.4c37.2,111.2,102.4,205.3,175.7,294.9c13.4,16.4,28.2,14.6,44.2,10.1c33.3-9.5,66.2-6.3,96.4,7.6
	c32.1,14.8,64.8,30.9,92.1,52.8c80.6,64.6,136,191.6,87,281.4c-9.3,17-1.3,27.4,12.1,38c116.2,92.2,234.3,180.6,373.4,237.2
	c204.7,83.3,414.6,109.8,632.2,64.8c45.6-9.4,91.4-19.1,138.5-11.2c98,16.3,194.5,4.4,289.1-20.5c130.7-34.5,252-91.5,367.3-161.9
	c100.3-61.2,183.9-139,237.9-244.5c30.5-59.6,73.7-103.7,131.4-137.1c90.5-52.4,148.3-132,183.2-229.8c8-22.3,7.4-38.3-11.8-54.3
	c-31.6-26.3-49.9-61.8-60.7-100.7c-42.5-151.8-6.3-284.9,101.2-397.8c23.8-25,55.9-49.1,88.2-57c37.9-9.3,54.3-25,56-61.4
	c0.3-6.7,3.6-13.2,4.9-19.9c13.4-70.1,23.4-140,15.6-212.2c-12.3-114.3-53.8-217.2-110.1-315.9c-12.4-21.8-25.6-31.6-51.6-28.8
	c-59.7,6.4-110.1-16.6-153.5-56.1c-54.3-49.4-90.4-110-105.7-181.8c-9.3-43.5-14-90.7,7.9-129c26.4-46.3,18.5-81.4-12.8-117.8
	c-3.5-4.1-5.7-9.3-8.6-14c-90.4-150.1-213.4-263.4-375.7-331.8c-54-22.8-109.4-41.8-167.3-48.4c-47.9,81.9-84.2,111.8-162,119.4
	c-105,10.2-201.5-16.5-284-84.2c-37.9-31.1-66.1-69.7-70.8-120.9c-1.8-20.2-14.2-26.7-31.9-31.3c-124.7-32.3-250-44.8-378.7-25.8
	c-254.6,37.4-470.5,148.8-651,331.1c-19,19.2-41.9,34.8-63.4,51.5c-49.7,38.6-103.3,73-148.9,115.9
	c-154.1,144.9-244.5,324.7-280.5,532.4c-7.2,41.4-13.3,83.1-20.1,126.1c14.2,5.2,25.8,8.8,36.9,13.7c42,18.3,80.8,41.5,108.3,79.1
	c81.2,110.9,102.8,231.6,54.1,361.5c-27.7,73.9-75.3,130.7-154.5,153.2C520.2,2159.3,496.6,2159.8,470.9,2163.4z M657.4,1871.5
	c-1.6-75.6-24.6-139.9-70-196.3c-22.2-27.6-51.3-44.6-84.3-55.8c-21.6-7.3-42-4.2-55.3,14.6c-17.3,24.3-37.2,48.8-46.4,76.4
	c-42.2,126.5-27.9,247.7,42.7,361.7c11.4,18.5,26.8,25,48.3,23.1c50-4.5,86.7-31,116.2-69.1C644.4,1979.7,654.6,1925,657.4,1871.5z
	 M3596.7,2265.4c0-45.8-7.6-90.1-28.4-131.2c-14.9-29.3-31.4-35.6-60.2-21c-20.5,10.4-40.1,23.9-57.2,39.2
	c-73,65.5-102.5,150.5-102,246c0.2,48.2,13.5,94.6,42.8,134.8c20.3,27.8,36.4,32.7,66.3,14.9c18.5-11,36.9-24.6,50.3-41.1
	C3565.1,2436.9,3595.7,2356.4,3596.7,2265.4z M2381.1,588.2c17.7-2.7,38.5-3.8,58-9.3c35.9-10,65.5-29,74-68.8
	c7.8-36.8-15.8-60.9-40.5-79.6c-85.5-64.6-180.4-83.4-282.4-46c-62.2,22.8-70.4,62.5-26.9,113.2c4.4,5.2,9.2,10.3,14.5,14.4
	C2236.8,558.1,2304,581.8,2381.1,588.2z M3423.9,1257c-1.6-81.6-42-164.9-105.9-214.3c-59.5-46-99-30.4-109.8,43.3
	c-11.1,76.3,17.2,140.5,65.6,195.7c21.1,24,49.3,43.3,77.5,59c30.3,16.8,54,4.8,62.9-27.4C3419.4,1295.1,3420.8,1275.8,3423.9,1257z
	 M960.3,3035.2c-1.6-7.3-2.9-19.7-7.1-31.1c-25.9-70.4-73-122.1-142-151.3c-63.8-27.1-98.9,1.3-89.3,69.8
	c11.2,80.3,58.2,136.6,121.8,182.4c67.8,48.8,97.2,24.3,114.8-52.5C959.4,3048.5,959.4,3044.4,960.3,3035.2z"/>
<path d="M2623.5,1384.7c0.2,70.4-15.8,135.5-60.1,192c-72.2,92.3-199.4,105.3-291.3,75c-170-56-260.1-265.4-181.1-425.9
	c13-26.3,31-54.2,54.3-70.6c45.5-32,94.3-61.2,145.4-82.8c90.1-38,168.7-15.1,245.1,70.7C2596.2,1211,2623.7,1293.6,2623.5,1384.7z
	 M2558.8,1390.1c-1.9-97.3-37.7-179.3-117.5-240.4c-43.1-33-86.7-35.7-133.5-7.6c-26.9,16.2-55,30.5-83.4,43.9
	c-46.7,22-73.1,59-87.8,107.6c-31.9,105.6,27.8,268.3,189,303.4c96,20.9,215.1-30.9,230.5-160.1
	C2557.9,1422,2557.9,1406.9,2558.8,1390.1z"/>
<path d="M2643.8,2165.3c103.3,0.3,183.9,79.1,184.4,180.3c0.5,101.9-80.2,181.8-183,181.1c-97.7-0.6-177.2-82.9-177.2-183.6
	C2467.9,2244.2,2546.2,2165,2643.8,2165.3z M2668.6,2339.7c25.7,0.3,49.6-20.3,51.1-44.1c1.6-26.6-21.7-49.9-49.4-49.3
	c-26.2,0.5-47,20.7-48.2,46.6C2621,2318.9,2641.4,2339.4,2668.6,2339.7z"/>
<path d="M1339.4,2165.4c96.6,1.8,178.3,84.6,177.2,179.6c-1.3,103.3-81.5,182.6-183.4,181.1c-95.9-1.4-176.6-87.8-174.5-186.9
	C1160.6,2240.8,1240.9,2163.6,1339.4,2165.4z M1289.6,2294.7c-0.3,25.4,18.1,44.5,43.2,44.5c25.7,0.1,49.2-20.8,50.2-44.5
	c1.1-25.8-20.1-47.1-46.1-46.5C1310.2,2248.9,1289.9,2268.9,1289.6,2294.7z"/>
<path d="M1253.1,764.2c168.9,2.7,241.7,145.3,231.4,267.7c-10.9,129.8-127.3,242.3-256.8,254.9c-130.7,12.8-233.2-73.3-241.9-205.6
	c-5.3-80.2,17.1-148.7,91.4-192.5c10.4-6.1,21.4-19.8,22.8-31.1c6.1-48.9,37.7-70.8,80.6-81.3
	C1204.4,770.5,1228.9,768.1,1253.1,764.2z M1243.3,832.7c-6.4,0.5-20.3,0.3-33.6,2.7c-21.5,3.9-38.7,14.4-43.9,37.5
	c-7.8,34.5-29.2,57.7-58.6,75.5c-32.7,19.8-50.1,50-53.9,87.5c-5.1,49.7,6.3,95.4,38.1,134.6c24.3,29.9,55.5,48.3,95,50.2
	c95.2,4.5,198.6-68.9,225.5-160.1C1447.4,940.3,1372.8,835,1243.3,832.7z"/>
<path d="M2186,2954.7c101.2-2,189.9,59.8,215.8,150.8c18.8,66,4,125.3-40.3,176.3c-79.7,92-240.9,114.2-342.7,48.6
	c-90.3-58.2-112.3-154-56.5-245.9C2013.3,3000.6,2087.7,2957.1,2186,2954.7z M2138.6,3299.2c69.6,0,124-14.8,167.9-57.5
	c41.2-40.1,50.8-96.2,22.7-142.4c-27.2-44.7-67-71.7-120.3-75.7c-84.5-6.4-170.8,48.3-202.9,126.8c-12.7,31.1-9.1,58.7,10.9,84.9
	C2050,3278.7,2094.9,3298,2138.6,3299.2z"/>
<path d="M1989.3,2646.9c-84.6-3.4-155.2-55-178.5-134.6c-4.5-15.4-4.6-32.3-4.8-48.5c-0.2-13.9,8.2-22.8,22.5-24.8
	c15-2.1,27.4,1.5,33.2,17c3.9,10.2,6.9,20.7,10.5,31c20,58.1,65.7,92.1,123.1,89.3c74.6-3.7,109.7-44.7,119-93
	c1-5.3,3.2-10.4,4.9-15.7c8.7-26.9,15.8-32.7,35.6-28.8c21.4,4.2,28.6,15.8,26.7,43c-4.7,68.4-50.5,128.6-116.4,149.5
	C2040.7,2639.1,2014.7,2641.9,1989.3,2646.9z"/>
<path d="M2787.1,2725.1c-35.4-5.1-71.1-7.9-105.5-16c-30-7.1-59.6-22.7-61.2-57.9c-1.5-32.9,26.4-48.5,51.9-62.8
	c3.6-2,7.4-3.9,11.3-4.8c76-18.9,151.3-22.5,224.4,12c7.4,3.5,14.7,7.6,21,12.7c27.4,22.2,30.3,49.8,4.4,73.6
	c-13.5,12.5-31.4,23.3-49.1,27.8C2853,2717.6,2820.1,2720.2,2787.1,2725.1z M2672.9,2647.1c28.7,25.8,81.9,32.9,169.9,22.5
	c18.9-2.2,41.1-2.1,50.6-25.1C2849.7,2606.7,2717.1,2607.7,2672.9,2647.1z"/>
<path d="M1213.4,2719.7c-47.2,0.4-90.8-2.7-131.5-22.1c-49.9-23.8-53.9-66.3-9.3-98c5.6-3.9,11.4-8.1,17.8-10.2
	c80.7-27.1,160.9-30.7,239.5,7.6c20.7,10.1,36.8,24.8,36,50.3c-0.9,26.3-17,42.6-39.1,53.5C1290,2719,1250.2,2720.2,1213.4,2719.7z
	 M1094.9,2638c3.3,9.1,3.5,12.5,5.3,13.9c4.1,3.3,8.6,6.8,13.5,8.2c52.4,14.5,105.7,11.7,159,7c7.9-0.7,16.3-3.8,23.1-8.1
	c5-3.1,10.7-10,10.6-15.1c-0.1-5.1-6.4-10.9-11.3-14.7c-4.1-3.2-9.9-5.1-15.2-5.8c-51.7-7.2-103.5-10.9-154.9,1.6
	C1115,2627.5,1105.8,2633.2,1094.9,2638z"/>
</svg>
