<?xml version="1.0" encoding="utf-8"?>
<!-- Generator: Adobe Illustrator 24.3.0, SVG Export Plug-In . SVG Version: 6.00 Build 0)  -->
<svg version="1.1" id="Layer_1" xmlns="http://www.w3.org/2000/svg" xmlns:xlink="http://www.w3.org/1999/xlink" x="0px" y="0px"
	 viewBox="0 0 4000 4000" style="enable-background:new 0 0 4000 4000;" xml:space="preserve">
<path d="M3492.2,1705.2c-9.3,198.6-17.5,389.6-27.6,580.6c-2.6,48.3-9.4,96.5-17.7,144.2c-17.7,102.5-67.2,189.4-136.9,265.2
	c-120.9,131.5-251,253-395.2,358.7c-54.8,40.2-111.5,78.3-170,113c-111.3,65.9-233.2,94.2-361.8,84.4
	c-109.6-8.4-219.2-19.6-327.8-35.7c-168.3-25-336.5-51.8-503.4-84.4c-224.7-43.9-448.6-92.4-672-142.6
	c-59.5-13.4-117.5-36.4-173.4-61.4c-94-42-153.1-118.1-181.8-215.4c-15.4-52.3-24.6-107.2-30.4-161.6
	c-18.5-173.6-18.3-348-13.7-522.2c4-153.2,11-306.4,21.9-459.2c6.6-92.5,19.9-184.8,50.1-273.6c32.8-96.7,85.1-180.7,165.9-243.2
	c75.5-58.4,152.8-115.4,233.8-165.7c120.1-74.5,242.4-145.8,367-212.5c141.8-76,293.7-92.6,453.6-71.3
	c327.4,43.6,650,112.1,973,178.9c129.4,26.8,258.3,56.5,386.9,87.1c46.9,11.2,93.4,26,138.1,44.2c80.9,32.9,134.3,93.3,162.9,175.9
	c21.6,62.4,34,126.7,37.7,192.2C3479.6,1424.5,3485.6,1568.4,3492.2,1705.2z M2712,2153.6c-28.9-3.1-56.7-2.9-82.8-9.5
	c-73-18.4-122.7-68.3-161.3-129.7c-34.2-54.3-65.5-110.4-98.4-165.5c-34.6-58-84.9-95.7-150.2-112.3c-50.8-13-101.6-7.8-151.4,6
	c-55.5,15.3-110.2,33.5-166,47.7c-77.5,19.8-148.2,3.4-210.4-46.8c-27.5-22.2-53.5-46.3-80.3-69.3c-45.6-39.2-96.7-67.9-157.3-75
	c-133-15.6-245.3,26.6-336.4,124.3c-21.4,23-40,48.5-60.2,72.6c-19.3,23.1-37.2,47.8-58.9,68.4c-86,81.9-220.1,84.6-279.3-52.1
	c-15-34.8-25.2-71.6-39.3-106.8c-11.6-29.1-24.6-57.7-39.1-85.5c-6.2-12-15.2-25.7-36.6-18.7c-2.4,19.5-6.1,40.1-7.3,60.8
	c-12.4,217.2-23.3,434.6-16.1,652.2c3.5,106,8.2,212.1,29.9,316.6c17.6,84.7,55.1,156.8,132.9,199.1c39.8,21.6,83.8,37.8,127.9,48.9
	c115.5,29.1,231.6,56.1,348.2,80.1c152.6,31.4,305.8,60,459.1,88.3c218.9,40.5,437.8,81.4,660.4,97.3c69.6,5,138.7,3.5,207-13.4
	c41.8-10.4,74.5-32,91.4-73.1c11.4-27.8,23.7-55.4,32.3-84.1c30.5-101.3,36.7-206.4,40-311c5.1-161.1,4.1-322.3,5.5-483.5
	C2715.3,2170.8,2713.1,2162,2712,2153.6z M608.4,1526.8c20.4,12.1,37.9,21,53.7,32.2c40.2,28.8,60.4,71,76,116.4
	c13.6,39.6,25.5,80.3,44.2,117.4c34.7,68.8,95.2,82.3,155.8,34.7c28.5-22.4,51.8-51.5,76-79c20.8-23.6,37.7-50.5,59.2-73.3
	c120.3-127.5,266.5-169.7,436.1-127.1c63.6,16,115.8,53.7,164.4,96.7c21.5,19.1,43.9,37.4,67.3,54.1c45.3,32.1,95.7,41.6,149.5,27.4
	c43-11.3,85.4-24.8,128.1-37.1c52.9-15.3,106.1-30,162.1-24.5c113,11.2,195.2,69.8,252.6,165.6c22.2,37.1,40.5,76.7,65,112
	c26.7,38.5,54.9,77.3,88.9,108.9c48.3,44.8,100.8,44.8,154.8,9.9c24.3-15.7,40.4-37.7,47.9-65c13.5-49.2,26.5-98.5,37.4-148.3
	c19.4-88.6,43-175.6,89.9-254.3c29.5-49.5,69.4-88.6,120.1-116c69.5-37.6,144-23.6,194.5,36.6c16.8,20.1,31.5,41.9,47.9,62.3
	c8.9,11.2,18.4,22.3,29.2,31.6c17.4,15,37.3,16.6,58.8,7.7c22.1-9.2,21.2-27.9,20.2-46.3c-5.7-102-8.8-204.3-18.9-305.9
	c-5.2-52.8-19.9-105.4-35.7-156.3c-17-54.6-56.5-90.6-111.7-107.3c-46.3-14-92.6-28.8-139.8-39.3
	c-240.3-53.2-480.6-105.9-721.3-157.3c-207.5-44.3-416.6-79.5-627.4-104.7c-116.8-13.9-227.1,4-332.6,54.1
	c-199.5,94.6-386.1,210.9-565.5,339c-127.4,91-200.8,214.8-217.6,371.3C615.3,1484.8,611.4,1506.4,608.4,1526.8z M2699.1,3064.4
	c2.2,2,4.4,4,6.5,6c11.2-6.1,23-11.4,33.5-18.4c182.2-120.9,345.2-264.2,494.2-423.8c61.4-65.8,104-141.3,116.1-231.6
	c8.2-61,17.6-122,20.6-183.4c8.3-167.5,13.5-335.2,19.6-502.8c0.4-10-1.7-20.2-2.8-31.8c-10.3,1.4-18,2-25.5,3.4
	c-43.9,8.4-80.4-5.5-109.8-37.8c-14.9-16.4-27.7-34.8-41.6-52.2c-10.6-13.3-21.1-26.7-32.4-39.4c-22.4-25-51.2-32.2-82.3-23
	c-19.7,5.8-39.2,15.2-56.1,26.9c-36.1,25-62.7,59-83.5,97.7c-32.1,59.5-47.7,124.4-64.4,189.2c-14.3,55.8-28.9,111.5-46.3,166.4
	c-12.4,38.9-32.1,74.9-64.8,101.4c-15.4,12.5-16.3,27.9-15.1,45.8c12.1,187.4,5.2,374.7-2.5,562c-3.6,86.5-13.2,172.5-36.5,256.3
	C2717.7,3005.2,2708.1,3034.7,2699.1,3064.4z"/>
<path d="M948.8,2250.9c-0.6-95.9,67.2-163.9,161.5-165.1c94-1.2,159.6,82,160.6,155.6c1.3,93.2-71.9,165.6-167.2,165.2
	C1019.2,2406.1,949.3,2335.9,948.8,2250.9z M1148.7,2197.7c0.4-25.7-14.8-41.8-39.9-42.6c-26.9-0.8-47.8,18.4-48.6,44.6
	c-0.7,25.7,15.3,42.7,40,42.2C1129.8,2241.3,1148.3,2224.4,1148.7,2197.7z"/>
<path d="M2103.4,2365.9c-0.5-93.3,68.3-164.8,158.2-164.4c88.9,0.4,162.7,70.7,164.5,156.7c1.8,86.9-73.4,164.5-160.3,165.4
	C2178.9,2524.6,2103.8,2451.7,2103.4,2365.9z M2282.1,2274.7c-28.3,0.4-47.3,19.7-46.2,46.8c0.9,22.6,17.3,38.1,40.7,38.4
	c29.4,0.4,50.1-18.2,48.6-43.9C2323.9,2292,2305.6,2274.4,2282.1,2274.7z"/>
<path d="M1678.2,2611.3c-88.5,0.5-163.3-67.9-169.6-152.2c-0.3-3.9-0.5-7.9-0.3-11.8c1.2-22.9,11-36.9,26.9-37.4
	c19.8-0.5,26.8,13.1,30.8,29.5c2.8,11.4,5.1,23,8.6,34.2c14.3,45.6,51.2,73.3,99.1,75.1c48.3,1.8,85.5-22.8,103.3-68.5
	c3.8-9.7,7-19.7,10.5-29.5c5-14.1,14.3-22,29.8-18.6c17.3,3.8,30,14.3,27,32.6c-3.3,20.4-8.4,41.5-17.7,59.7
	C1795.3,2585.7,1740.8,2609.1,1678.2,2611.3z"/>
<path d="M952.8,2432.8c34.3,6.8,68.8,13,102.9,20.9c11.1,2.6,22.2,8.2,31.6,14.9c17.8,12.7,30.2,29.5,26.5,53.1
	c-3.5,21.9-19.2,35.7-38.4,40.7c-76.7,19.9-152.4,19.4-224.3-19.5c-3.4-1.8-6.5-4.4-9.5-6.9c-37.1-30.2-34.5-59.5,7.1-82.4
	C872.6,2440.3,900.6,2435.9,952.8,2432.8z M856.5,2496.2c49.7,34.6,147.2,48,192.5,31.1c2.4-0.9,5.1-1.4,7.4-2.7
	c13.3-7.3,14.5-19.1,1.8-27.3c-7.6-4.9-16.5-9.7-25.2-10.4c-44.1-3.6-88.4-7.1-132.6-7.7C887.7,2479.1,874.9,2488.8,856.5,2496.2z"
	/>
<path d="M2369.8,2711.9c-29.8-4.4-64-6.4-96.3-15.4c-21.6-6-43.1-19.1-59.8-34.3c-21.2-19.4-20-43,2.2-60.8
	c15.6-12.5,35.6-24.2,54.9-26.6c62.8-7.9,125-3,183.3,25.3c23.8,11.5,50.6,24.7,48.4,55.1c-2.4,32.2-31.8,43-58.7,49.2
	C2421.2,2709.6,2397.3,2709.3,2369.8,2711.9z M2451.7,2656c-8.6-27-28-36.1-90.2-42.3c-74.2-7.4-96-2.5-111.9,25.4
	C2298.9,2671.8,2401.3,2680.3,2451.7,2656z"/>
<path d="M2631.9,1552.6c5.3,8.2,8,14.1,12.2,18.7c63,69.4,83.3,155.6,97,244.5c0.6,3.8,1.9,9.1,0.1,11.5c-6.6,8.6-12.9,19.7-22,23.6
	c-13.5,5.8-21.9-4.9-24.9-17.6c-7.6-31.8-14.1-63.9-22.1-95.7c-14-56-42.9-103.5-84-144c-20.3-20.1-43.9-31.4-72.5-35.6
	c-134.6-20-269.6-37.6-403.3-62.6c-292-54.5-583.1-113.4-874.7-169.7c-107.9-20.8-216.3-39.4-324.4-59c-6.4-1.2-12.9-2.2-19.3-3.8
	c-29.8-7.5-30.4-8.9-22.9-46.9c30.7-6.8,61.4,2.7,91.3,8.1c254.8,46.7,509.5,94.5,764.1,142.7c174.9,33.1,349.3,68.5,524.3,101
	c73.3,13.6,147.2,25.4,221.4,32.6c117.7,11.5,226.4-19.3,324-84.9c77.1-51.8,152.1-106.9,226.9-162.1
	c48.4-35.8,94.7-74.4,142.2-111.5c6.1-4.8,13-11.1,19.9-11.7c8-0.7,19.4,1.7,23.8,7.2c4.5,5.6,4.3,16.9,2.7,25
	c-1.1,5.4-7.9,10.1-12.7,14.4c-125.9,111-255.1,218-401.2,301.8c-41.7,23.9-87.7,40.3-131.8,60
	C2655.4,1543.4,2644.7,1547.4,2631.9,1552.6z"/>
</svg>
