<?xml version="1.0" encoding="utf-8"?>
<!-- Generator: Adobe Illustrator 24.3.0, SVG Export Plug-In . SVG Version: 6.00 Build 0)  -->
<svg version="1.1" id="Layer_1" xmlns="http://www.w3.org/2000/svg" xmlns:xlink="http://www.w3.org/1999/xlink" x="0px" y="0px"
	 viewBox="0 0 4000 4000" style="enable-background:new 0 0 4000 4000;" xml:space="preserve">
<path d="M2007.8,273.7c276.2-0.8,549.3,27.8,818.9,87.3c165,36.4,326.2,85.7,473.7,170.8c45.9,26.5,90.3,57.1,130.2,91.9
	c107.7,93.9,160.7,215.5,158.1,357.4c-1.8,98.8-10.5,197.9-23.1,296c-27.1,209.7-59.9,418.8-71.5,630.2
	c-10.7,194.1,2.4,387.3,27.9,579.8c15,112.8,30.1,225.7,41.5,338.9c5.7,57.3,1.2,115-15,171.5c-33.1,115.8-108.3,198.9-205.2,264.1
	c-127.7,85.9-269.8,140-416.7,182.8c-385.1,112.2-778.5,139.6-1177.2,117.2c-182.1-10.3-362.2-34.5-539.8-74.4
	c-182.1-40.9-360-95.8-523-190.7c-96-55.8-181.1-122.8-238.3-220.3c-41.3-70.4-62-146.7-65.8-227.8c-5.2-108.5,9.6-215.7,23.1-322.7
	c36.9-292.4,65.1-585.5,46.4-880.5c-10.3-162.3-30.1-323.9-45.5-485.8c-7.8-82.4-19.3-164.6-6.8-247.7
	c16.4-109.2,63.2-202.4,144.4-277.8c72.5-67.3,156.8-116.1,247-154.7c181.9-77.9,372.7-123.3,567.5-154.2
	C1573.6,291,1790,274.1,2007.8,273.7z M1961.9,404.2c-208.9,2.3-416.4,21.1-622.5,55.7c-157.9,26.5-312.9,63.4-461.7,123.6
	c-72.8,29.5-143.8,63-206.6,110.9c-99.2,75.7-155.5,173.8-147.5,301.4c5.9,94.4,13.4,188.8,24.5,282.7
	c19.3,163.2,32.9,326.7,37.4,491c6.9,256.6-14.5,511.3-46.8,765.6c-12.1,95.2-18.6,191.3-24.3,287.2
	c-7,118.6,44.4,211.3,133.6,286.1c96.7,81,208.2,135.3,325.8,176.6c297.3,104.3,606.1,145.2,919.3,155.7
	c231.3,7.7,461.2-11.4,689.3-51.2c161.9-28.2,321.9-64.2,475-125.4c99.1-39.6,194.9-85.3,275.4-158.4c74-67.2,109.8-150,104.2-248.8
	c-3.8-66.3-13.3-132.4-21.1-198.4c-15.7-133.6-35.7-266.9-47.4-400.9c-22.5-258.1,7.2-514.1,38.6-769.8
	c18.4-149.7,40-299,54.2-449.1c14.4-151.5-36.3-276.9-169-361.2c-39.9-25.3-81-49.2-123.3-70.1c-117.5-57.9-242.7-93.4-370-121.4
	C2523.3,425.4,2244.1,399.2,1961.9,404.2z"/>
<path d="M2038.2,1292.6c-312.2-3.7-616.1-31.9-913.3-113.8c-125.9-34.7-248-79-354.8-157c-17.5-12.8-33.1-29.4-46.2-46.8
	c-10-13.1-6.9-30.7,9-37.6c7.7-3.3,23.1,1.3,30,7.7c83.2,78.3,186.3,118.9,291.9,153.4c206.2,67.5,419.2,99.1,634.8,117.7
	c209.8,18.1,419.4,19.4,629.2,5.1c229.3-15.7,455-52.1,673.5-125.2c78.5-26.3,154.9-58.3,223.2-106.6c14-9.9,32.4-24.5,46.9-6.6
	c14.7,18.2-3.2,34.2-17.1,43.7c-38.9,26.5-77.7,54.1-119.8,74.7c-122.9,60.1-255.1,92.3-388,122
	C2505.5,1275,2269.8,1288.7,2038.2,1292.6z"/>
<path d="M1086.2,942.7c-49.2-3.9-81.3-34.4-105-75.2c-22.7-39.1-7.2-74.7,16.1-107.3c28.4-39.6,69.5-63.7,111.7-85.5
	c96.7-50.1,201-77.7,306.8-99.7c272.9-56.9,548.7-65,825.7-43.1c60.3,4.7,120.1,15.7,180.2,23.8c7.3,1,14.9,1.8,21.7,4.2
	c13.9,4.9,32.1,10.4,25.1,29c-3.2,8.4-20.8,16.6-31.3,16c-64.9-3.9-129.6-11.5-194.6-15.7c-218.9-14.2-437.3-12.9-655.3,16.5
	c-117.5,15.9-233.7,37-345.6,76.3c-48.5,17-94.5,41.4-140.8,64.3c-15.6,7.7-29.5,19.9-42.2,32.1c-37.2,35.4-36.9,71.5,0,107.3
	c7.4,7.2,17.1,12.3,23.4,20.2c6.5,8.2,10,18.7,14.8,28.2C1093.4,937,1089.8,939.8,1086.2,942.7z"/>
<path d="M1263.7,2511.9c-96.9-0.5-179-85.2-177.6-183.3c1.4-98.2,80.7-173.8,180.2-174c89.7-0.1,178.4,64.6,179.5,179.7
	C1446.6,2434.7,1364.1,2512.4,1263.7,2511.9z M1255.1,2329.4c35.3-0.9,59.9-23.3,58.3-53c-1.4-24.7-25.5-48.1-49.4-47.8
	c-29.8,0.3-55.8,27.9-54.7,58C1210.4,2313.1,1228.5,2330.1,1255.1,2329.4z"/>
<path d="M2406.6,2334c0-98.7,78-177.3,176.7-177.9c97.2-0.6,177.4,76.6,177.9,171.4c0.6,106.7-82.1,191.1-185.8,189.5
	C2485.8,2515.5,2406.6,2429.7,2406.6,2334z M2613.4,2234.3c-29.3-0.1-53.9,23.8-53.6,52.1c0.3,24.8,19.6,44.2,44.5,44.7
	c32.1,0.7,54.7-19.7,55-49.6C2659.6,2253.1,2641.5,2234.4,2613.4,2234.3z"/>
<path d="M1920.3,2651c-90.2-6.2-158.3-60.3-175.8-143.8c-3-14.2-4.9-29.9-1.7-43.7c2.1-9.3,12.9-21.1,21.8-23
	c8.9-2,24.1,4.1,29.5,11.6c9.1,12.7,12.9,29.4,18.5,44.5c29.2,78.3,105.5,107.5,179.9,69.6c26.8-13.7,43.2-35,51.9-62.9
	c3.9-12.6,6.3-25.8,9.9-38.5c5.4-19.5,16.8-30.9,38.6-27.1c18.6,3.3,27.8,17.1,26.9,39.4c-2.9,67.1-53.1,136.4-117.6,157.6
	C1975.8,2643.2,1947.6,2645.7,1920.3,2651z"/>
<path d="M1121.5,2710.8c-38.3-8.8-77.1-16.2-114.8-27.1c-13.3-3.8-25.7-14.7-35.7-25.1c-21.1-22.1-19.5-51,4.6-69.5
	c13.7-10.4,30.4-19.3,47.1-22.9c62.4-13.3,125.6-17.7,188.2-0.6c16.7,4.6,34,11.4,47.8,21.6c39,28.6,36.5,74.8-6.7,96.1
	c-23,11.3-50.5,14.4-76.3,19c-17.3,3.1-35.2,2.2-52.9,3.1C1122.5,2707.2,1122,2709,1121.5,2710.8z M1011.6,2628
	c47.9,40,183.4,39.9,222.3,1.5c-27.9-28.3-59.2-35.7-139.6-30.6C1064.6,2600.7,1032.8,2599.4,1011.6,2628z"/>
<path d="M2717.1,2709.7c-29.2-3.6-58.6-6.1-87.5-11.2c-12.7-2.2-25.7-7.7-36.5-14.8c-42-27.4-42-68.5-0.8-96.5
	c57.3-39,207.2-37.4,264.2,2.9c39.6,28,37.6,67.4-5.7,90.6C2809.2,2702.9,2763.6,2707.4,2717.1,2709.7z M2614,2638.3
	c51.2,36.6,179.4,30.9,216.1-9.6C2779.1,2591.4,2651.1,2597,2614,2638.3z"/>
</svg>
