<?xml version="1.0" encoding="utf-8"?>
<!-- Generator: Adobe Illustrator 24.3.0, SVG Export Plug-In . SVG Version: 6.00 Build 0)  -->
<svg version="1.1" id="Layer_1" xmlns="http://www.w3.org/2000/svg" xmlns:xlink="http://www.w3.org/1999/xlink" x="0px" y="0px"
	 viewBox="0 0 4000 4000" style="enable-background:new 0 0 4000 4000;" xml:space="preserve">
<path d="M2377,648.7c-5.8-50.8-12.2-97.2-16.3-143.7c-7.1-80.6-9.4-161.3,7.6-241.2c6.3-29.6,15.6-57.8,33.4-82.9
	c32.5-46,77.9-61.1,130.9-51c44.8,8.5,82.3,31.6,107.3,71.2c13.5,21.4,25.9,43.5,38.1,65.7c22.5,41,43.9,50.4,90.5,39.5
	c26.4-6.2,52.7-13.7,79.5-17.3c106.4-14.1,198,52.3,219,157.3c3.7,18.4,7.6,36.8,11,55.2c5.9,32.8,26,51.1,58,56.9
	c28.6,5.2,57.6,8.6,86,14.8c48.9,10.6,92.4,31.1,122.2,73.8c41.2,59,37.5,124.6-10.4,178.1c-25.3,28.3-55.2,50.7-88.7,68.5
	c-92.4,48.9-188,89.7-289,117.3c-9.8,2.7-19.4,6.3-31.4,10.2c3.4,7.5,5.1,13.6,8.5,18.5c102.3,147.8,148.6,311.1,128.4,490
	c-15.4,136.4-83.1,241.5-205.7,307.9c-17.3,9.4-34.5,19.1-52.4,27.5c-75.4,35.3-111.8,96.1-120.1,177.3
	c-5.6,55.1-11.7,110.3-21.7,164.7c-19.9,107.8-78.2,189.9-174.3,243.3c-36,20-74.3,36.1-110.9,55.1c-25.8,13.4-51.5,27.1-75.5,43.4
	c-46,31.3-72.3,75.9-78.8,131c-5.2,43.8-8.8,87.8-12,131.8c-5.1,71-19.4,139.2-52.8,202.8c-54.4,103.5-138,168.8-251.6,195.8
	c-100.6,23.9-201,21.2-301.3-2.4c-8.6-2-17.5-3.1-29.6-5.2c2.2,31.9,3.6,59.7,6,87.5c7.9,91,9.4,181.9-2.1,272.7
	c-4.1,32.8-12.3,64.6-29.2,93.5c-28.2,48.4-79.9,71.1-134.7,58c-49.6-11.8-89.4-38.5-116.1-82.6c-14.1-23.3-26.7-47.5-40.7-70.8
	c-17.1-28.4-20.5-30.3-52.1-24.3c-20.2,3.8-40,10-60,15c-42.6,10.8-85.1,13.9-127.6-0.5c-79.9-27-116.7-86.7-126.2-166.9
	c-1.7-14-1.6-28.2-3.5-42.1c-5.2-38.3-16.5-50.7-53.8-58.1c-23.9-4.7-48.2-7.6-72.1-12.1c-46.3-8.7-87.8-26.8-120.2-62.5
	c-64.4-71-55.3-167.3,22.7-223.1c23.5-16.8,49.4-30.8,75.6-43.3c89.1-42.6,181.1-77.3,276.5-103.2c6.9-1.9,13.7-4.5,22.8-7.5
	c-4.7-8.6-7.6-15.3-11.6-21.2c-57.9-85.5-91.7-180.3-108.2-281.6c-10.1-61.7-9.3-123.2,3.5-184.7c23.3-111.8,83.7-197.5,180-258
	c26.2-16.5,53.6-31.2,81.1-45.4c60.2-31.1,95.9-80.7,107.8-146.4c7.7-42.4,11.6-85.5,16-128.4c6.8-65.8,19.4-129.9,50.2-189.3
	c32.6-62.8,80.2-110.9,143.1-142.9c32.6-16.6,66.5-30.6,99.5-46.2c73-34.4,124-87.5,139.2-169c5-26.6,6.3-54,8.3-81.1
	c3.4-46.8,3-94,9.6-140.3c25.5-177.4,140.7-302.5,314-346.9c89.1-22.8,178.3-22.4,268.2-8C2351.9,644.8,2362.9,646.5,2377,648.7z
	 M1513.3,1878.2c-4.1,22.5-8.3,46.2-12.7,69.9c-19.9,107.8-74.1,193.2-165.6,254.6c-30.4,20.4-60.6,41.2-89.3,63.8
	c-19.5,15.3-36.2,34.2-57.6,54.6c8.9,0.4,11.7,1.1,14.1,0.5c8.2-1.9,16.4-4.2,24.4-6.5c103.9-30.8,209.8-39.2,317.5-31.3
	c69.3,5.1,138.6,9.4,208,12.4c109,4.7,217.7-0.6,325.8-16c96-13.7,189.9-34.7,280-71.6c82-33.6,85.8-37.4,100.8-124.2
	c6.7-38.8,10.9-78,17.3-116.9c10.7-65,33.7-124.8,76.1-176.2c2-2.4,2.6-6.1,3.8-9.3c-84,29.6-166.1,60.6-249.6,87.3
	c-85.1,27.3-173.1,42-262.1,50c-88.1,7.9-176.6,9.5-264.4-1.2C1691.7,1907.6,1604.1,1892.1,1513.3,1878.2z M2872.9,1218.9
	c-8,7.5-12.5,10.8-15.9,15.1c-62.2,78.8-141,137.1-228.7,184.3c-19.6,10.6-19.9,10.9-15.3,32.7c7.7,36.5-1.3,67.1-30.9,90.5
	c-42.2,33.5-103.8,17-123-32.7c-2.9-7.5-6.4-14.8-9.4-22c-95.4,27.9-191,40.4-287.8,44c-89.4,3.3-178.5-1.7-266.9-15
	c-46.5-7-90.8-11.3-128.3,25.1c-4.5,4.4-11.5,6.3-17.2,9.5c-24.7,13.6-50,26.2-73.8,41.1c-52.5,33-95.8,75.4-124.5,131.2
	c-18.1,35.3-27.2,73.1-33,114.1c21,4.7,39.2,8.6,57.3,12.8c140.7,33.3,283,47.4,427.6,37.5c129.1-8.9,254.5-34.1,376.8-76.5
	c97.8-34,191-78.7,283.2-124.9c80.9-40.5,144.3-101.4,182.4-185.2C2885.7,1412,2887.7,1319.3,2872.9,1218.9z M2363.4,2248.3
	c-7.1,1.7-14.5,2.9-21.4,5.3c-90.9,31.2-184.4,50.4-279.3,64.5c-121.4,18-243,19-365.2,11c-92.7-6.1-185.7-10-278.6-9.3
	c-84.1,0.6-165.3,20.1-243,54.1c-23.5,10.3-40,25.2-45.6,49.5c-9.3,40.1-19.5,80.4-24.3,121.2c-11.4,97.3,14.7,188,55,275.4
	c3,6.5,7.1,12.4,12.5,21.9c92-63.4,195.3-81.3,303.9-84.5c-15.3-14.9-29.8-26.4-41-40.5c-18-22.6-21.4-60.7-7.5-79.5
	c4.2-5.7,14-11.1,20.4-10.2c9.8,1.3,10.5,11.5,8.5,20.5c-0.8,3.7-2.1,7.2-2.9,10.9c-5.2,23,1.6,41.8,19.5,54.2
	c19.7,13.7,40.4,14,60.4,0.6c7-4.7,13-11.4,20.6-14.4c4.8-1.9,13-0.1,17.1,3.1c2.8,2.2,3.7,11.5,1.4,14.9
	c-6.2,9.1-13.7,17.8-22.2,24.6c-7.6,6-17.3,9.4-26,13.9c44.3,2.2,87.7,8,128.1-0.4c4.4-17.4,5.5-32,11.7-44
	c16.2-31.5,47.8-47.3,82.2-41.4c33.5,5.8,55.1,26.2,64.2,59.4c1.9,6.9,4.6,13.6,7.2,21.2c63.3-3.1,121.2-21.9,178.9-41.8
	c11.2-3.9,15-12.5,16.3-23.8c3-26.1,6.2-52.2,10.8-78c20.5-114.6,81.2-200.2,184.9-254.5c24.9-13.1,50.2-25.6,74.7-39.5
	C2314,2295.9,2341.9,2277.1,2363.4,2248.3z M1853.9,1472.6c73.4,22.3,364,26.9,420.5,7.5c-12.1-7.9-23.9-15-35.1-22.9
	c-27.6-19.5-35.4-47.7-32.1-79.3c1-9.4,6.9-19.3,13.1-26.8c2.8-3.4,12.5-3.5,17.7-1.5c3.5,1.3,6.3,9,6.3,13.8c0,7.3-3,14.6-4.1,22
	c-4,26.8,7.2,46.2,32.2,55.5c26.3,9.7,51.5,12.5,70.8-14c1.1-1.5,2.6-3.4,4.1-3.7c7.7-1.4,18.5-5.7,22.4-2.3
	c4.5,3.9,5.2,15.3,3.6,22.5c-1.8,8.1-8.1,15.1-15.1,27.2c31.7-8.4,59.1-14.5,85.6-23.4c9.8-3.3,18.9-12,25.7-20.3
	c29.7-36.8,49.9-44.3,92.7-29c14.9,5.3,27.2,4.1,40-3.8c24.8-15.3,49.9-29.9,74.4-45.6c68.7-44.1,127.7-98.5,175.2-165.2
	c7.8-11,13-21.1,8.6-36.2c-21.3-73.3-49.8-141.9-112.8-190.3c-5.2-4-9.3-9.4-14.4-13.5c-34.9-28-70-55.8-106.6-84.9
	c-3.9,8.1-6.4,12.1-7.7,16.4c-18.8,61.7-54.5,113.1-98.3,159.1c-79.6,83.7-179.5,131-290,158.5c-11.5,2.9-23.1,5.7-36.2,8.9
	c0,15.5,1.1,28.6-0.2,41.5c-4.7,44.9-37.1,73.7-83.4,75.3c-42.7,1.5-69.4-22.1-77.8-69c-1.2-6.4-1.2-13.1-1.8-19.6
	c-0.6-6.2-1.2-12.4-1.9-18.9c-26.5-2.9-51.2-5.5-73.3-7.9c-11.2,49.7-19.5,96.7-32.6,142.4
	C1910.3,1391.3,1883.5,1431.5,1853.9,1472.6z M2540.5,705.4c0.9-13.8,1.6-24.8,2.5-35.7c3.1-41.4,11.2-81.8,26-120.7
	c5.5-14.5,14.6-18.4,26-14.3c11.1,4,13.9,12.2,6.8,28.1c-18.2,41.2-22.8,84.5-24.5,129.1c-1.1,28,11,42.6,34.2,54.8
	c29,15.2,57.8,31.7,83.8,51.4c20,15.2,36.4,15.7,55.5,1.8c3.8-2.8,8-4.8,12-7.4c53.8-35.2,101.9-76.7,142.3-127
	c5.8-7.2,12.5-14.4,20.3-18.8c4.4-2.5,13.9-1.6,17.6,1.8c3.4,3,4.2,12.3,2.2,17.1c-3.5,8.5-9.6,16.1-15.4,23.4
	c-42.6,53.2-93,98-148.2,137.5c-7.2,5.2-14,10.9-21.3,16.6c12.2,18.6,28.1,18.7,44.2,18c99.4-4.3,192.1-31.2,277.7-82.3
	c5.6-3.4,11.3-6.7,17.2-9.5c7.3-3.6,14.4-4.2,20.1,3.3c6.5,8.4,4.4,16.4-2.8,22.4c-8.6,7.2-17.9,13.8-27.6,19.3
	c-74.2,42.4-154.5,67.4-238.5,81.2c-8.6,1.4-17,4.3-26.3,6.7c25.4,38.4,25.2,37.5,64.2,28.6c103.1-23.5,200.4-62.7,295.6-107.5
	c31.6-14.9,61.5-32.7,84.9-59.2c21.1-23.9,19.2-50.1-3.9-72.4c-16.9-16.3-38-24.4-60.3-28.4c-27.7-5-55.8-7.5-83.6-11.9
	c-64.6-10.2-111.9-42-130.1-108.1c-4-14.4-5.1-29.6-7.9-44.3c-3.3-17.5-5.5-35.4-10.9-52.3c-13.3-41.6-50.4-68.6-93.8-66.7
	c-22.2,1-44.2,7.4-66.2,11.3c-23.9,4.3-47.7,10.2-71.8,12.6c-57.8,5.7-99.3-21.4-128.7-69.1c-12.3-19.9-21.8-41.6-34.5-61.3
	c-10-15.6-20.9-31.8-35-43.4c-29.4-24-63.3-14.2-77.4,20.7c-5.2,13-9.4,26.8-11.3,40.6c-17.9,127.2-2.5,252.8,19.3,378.1
	c2,11.7,9.3,17.7,20,20.9C2507.3,694.5,2521.4,699.3,2540.5,705.4z M1415,3146.4c-1.7,7.5-4,13.5-4.4,19.6
	c-2.7,44.6-14.9,86.8-30.4,128.3c-2.3,6.1-4.3,13.6-8.9,17.2c-5,3.8-13.6,6-19.5,4.5c-3.6-0.9-7.5-10.2-7.2-15.4
	c0.6-8.2,4.6-16.1,7.3-24.1c14.4-42,22.9-85,25.8-129.4c1.2-17.6-4.8-27-20.1-35.4c-32.7-18.1-64.4-38.1-95.9-58.4
	c-11.5-7.4-22.3-9.2-34.4-3.7c-6.8,3.1-13.4,6.8-20,10.3c-60.3,31.4-107,78.7-150.8,129.5c-7.3,8.5-14.9,17.1-24,23.3
	c-3.9,2.6-12.9,0.9-17.6-2.1c-2.8-1.7-3.5-10.5-1.8-14.8c3.1-7.7,8.1-14.8,13.3-21.4c44.5-56.6,95.5-105.9,158-142.6
	c8.5-5,15.9-11.7,24.7-18.3c-16.4-20.7-31.8-28.4-57.3-25c-95.7,12.8-183.9,44.6-265.8,94.9c-3.2,2-6.6,3.6-9.9,5.4
	c-8.7,4.7-16.4,4-21.7-5c-4.9-8.2-4.5-16.6,3-23c5.6-4.8,12.3-8.6,18.8-12.3c71.3-41.1,147.1-70.5,228-86
	c12.3-2.4,24.5-5.4,37.8-8.4c-25.7-44.8-29.7-45.8-72.9-34.1c-97.3,26.3-191.1,61.9-282,105c-27.8,13.1-54.6,29.6-79,48.1
	c-24.5,18.6-24.7,42.3-5.6,66.5c16.5,20.9,38.7,32.4,64.5,36.9c25.9,4.5,51.9,8.2,77.9,12.2c80,12.3,125.3,58.6,135.8,138.8
	c0.7,5.6,0.9,11.2,1.6,16.8c1.8,14.9,3.2,29.9,5.8,44.7c10.6,59.6,55.8,90.5,114.7,77.5c26.5-5.9,52.3-14.8,78.6-21.7
	c67.4-17.7,123.2,6.1,157.1,66.7c11,19.7,21,39.9,32.6,59.2c7.2,12,15.2,24,25.1,33.7c32,31.2,72.2,21.9,85.6-20.1
	c6.3-19.5,10.2-40.1,12.8-60.5c14.7-113.8,0.9-226.8-11.8-339.7c-1.1-10-5-17.7-15.7-20.9C1450.3,3158.1,1433.6,3152.4,1415,3146.4z
	 M1082.8,2727.6c2-0.8,4.1-1.6,6.1-2.4c-2.3-11.9-5-23.7-6.8-35.7c-4.3-28.7-10.6-57.4-12-86.3c-7.1-152.4,43.2-280.2,166.2-375
	c30.5-23.5,63-44.3,94-67c67.9-49.7,112.4-115.6,130.6-197.6c10-44.8,16.7-90.4,23-135.9c17.8-127.6,84.7-220.4,196.7-281.9
	c18.1-9.9,36.4-19.5,54.7-29c91.9-48,148-123,165.3-224.9c10.1-59.1,14.8-119.1,22.7-178.6c16.2-122.1,70-223.2,171.2-295.7
	c61.5-44.1,131.7-66.9,206.5-76.2c5.3-0.7,10.5-2.9,21-6c-92-18.2-176.8-12.5-259.4,13.6c-61,19.3-114,52.8-152.7,105.7
	c-38.1,52-60.4,110.3-65.3,174.4c-3.6,46.8-3,93.9-6.5,140.7c-10.3,138.1-71.4,243-201.1,302c-30.7,14-61.7,27.6-91.7,43.2
	c-73.8,38.4-118.7,99.8-135.7,180.5c-7.9,37.5-11.2,76-15.7,114.2c-6,51.3-10.7,102.7-29.4,151.6c-23.1,60.4-57.4,111.8-114.7,145
	c-22.7,13.2-45.3,26.7-68.5,38.9c-119.5,62.8-178.4,162-178.4,296.5c0,84,20.4,163.6,53.9,240.1
	C1064,2697.8,1074.1,2712.4,1082.8,2727.6z M1666.6,3120.8c0.3,1.6,0.6,3.1,0.9,4.7c5.4,1.4,10.7,3.6,16.2,4.1
	c60.9,4.8,121.9,8.6,182.3-4.2c135.2-28.5,220.4-107.7,244.4-246.1c7.8-45.2,10.3-91.3,16.2-136.9c4.4-34.4,8.6-69,15.8-102.8
	c18.1-84.7,65.1-149,142.1-189.5c46.5-24.5,94.5-46,141.6-69.3c78.6-38.9,131.4-98.7,149.1-186.3c3.2-15.6,6-31.4,8-47.2
	c5.9-48.4,10.4-97,17.2-145.3c13.3-94.5,60.1-166.4,146.1-211c25-12.9,49.8-26.3,74.6-39.6c67.9-36.2,112.9-91.9,137.4-164.3
	c23.4-69.1,25.3-140,15.1-211.5c-10.3-72.2-36.1-139.7-63.6-206.7c-1.9-4.7-5.6-8.7-9.5-14.5c-1.3,4.3-2.4,6.1-2.2,7.7
	c0.7,5.6,1.8,11.1,2.8,16.6c13.3,71.4,20.3,142.7,9.4,215.5c-14.5,96.1-50.5,181.1-123.4,246.6c-40.3,36.2-84.5,68.5-128.6,100.2
	c-81,58.2-132.9,133.9-147.7,233.5c-4.1,27.9-8.3,55.7-11.9,83.6c-15.5,119.4-74.3,211-177.2,273.4c-41.7,25.3-85.2,47.6-127.1,72.6
	c-45.5,27.1-81.2,64.8-103.4,112.5c-14.5,31.1-25,64.9-31.9,98.6c-8.8,43.1-11.7,87.4-17.7,131c-8.7,62.9-26.4,123-61.2,176.9
	c-62.6,96.9-150.4,158.2-262.3,185.2C1700.9,3112.5,1683.8,3116.7,1666.6,3120.8z M1953.5,1169.1c31.2,1.9,60.9,4.4,90.7,5.1
	c7.8,0.2,17.2-3.4,23.3-8.5c24.2-20.3,49.5-16.3,76.9-8.2c15.7,4.7,33.9,8.2,49.4,5c68.1-13.9,134.6-33.2,195.5-68.7
	c75.7-44.1,136.6-102.4,176.9-180.5c11.9-23,19.7-48,29-70.9c-38.5-30.7-117.1-62.6-159.9-67.3c-52.7-5.7-104.9-3.6-157,5.9
	C2079.5,817.2,1962,965.7,1953.5,1169.1z M1192.7,2871c60.8,56.3,118.2,107.1,185.1,146.2c80.1,46.8,163.1,79.4,258.9,69.7
	c79.2-8,152.4-30.2,217.1-77.6c87.6-64.1,131.5-154.2,153.3-257.4c0.5-2.3-1.4-5.1-2.8-9.8c-10.2,3.4-19.6,7.5-29.4,9.7
	c-45.7,10.3-91.2,21.4-137.3,29.4c-17.8,3.1-31.8,7.4-42.6,22.7c-16.1,22.7-39.4,30.4-66.6,28.5c-20.7-1.5-36.9-11.7-52.9-23.9
	c-8.4-6.5-19.5-13.6-29.3-13.6c-85.4,0.1-170.9-6.8-256,4.8c-56.1,7.6-110.7,20.8-160.9,48.1C1218,2853.8,1207.6,2861.5,1192.7,2871
	z M2541.6,1418.6c-15.9-0.3-31.7,12.5-31.6,25.6c0.1,11.4,15.5,23.3,30.4,23.5c15.1,0.1,25.2-9.3,25.3-23.7
	C2565.7,1429.7,2555.4,1418.8,2541.6,1418.6z M2164.9,1216.1c-0.5-14.6-10.9-23.8-26.1-23.2c-14.2,0.6-23.8,11.5-23.2,26.4
	c0.5,14.2,9.8,23.8,22.6,23.5C2153.7,1242.4,2165.4,1230.7,2164.9,1216.1z M1736.9,2742.1c16.3-0.6,28.9-11.7,28-24.7
	c-0.9-13.4-11.8-21.6-27.7-20.9c-15.4,0.7-26.1,10.2-26.3,23.1C1710.7,2733.3,1721.6,2742.7,1736.9,2742.1z"/>
<path d="M2472.8,1571.8c23.4,10.7,25.4,21.4,11,56.5C2463.8,1618.5,2459.4,1595.8,2472.8,1571.8z"/>
<path d="M2532.2,1642.4c-9-5.9-16-8-16.8-11.6c-3.4-14.9-4.9-30.2-7.2-46.3c18.4-1.8,27.5,2.7,26.7,18.8
	C2534.4,1614.3,2533.4,1625.2,2532.2,1642.4z"/>
<path d="M2555,1586.1c20.2,2.3,18.8,15.9,20.2,25.5c1.2,8.6-0.1,18.5-3.6,26.4c-2.9,6.7-15.4,3.1-16.2-5.6
	C2554,1617.9,2555,1603.2,2555,1586.1z"/>
<path d="M1338.4,2421.4c46.5,0.8,78.4,32.5,78.2,77.9c-0.2,48.2-35.6,82.5-84.6,81.9c-44.7-0.6-78.9-35.3-76.6-79.6
	C1257.4,2463.1,1282.6,2418.5,1338.4,2421.4z M1364.4,2461.3c-14.1-0.6-23.3,7.7-23.5,21.4c-0.3,13.8,10.9,27,22.7,26.9
	c12.5-0.1,23.6-10.5,24.1-22.5C1388.3,2473.1,1378.1,2461.9,1364.4,2461.3z"/>
<path d="M1226.5,2533.6c-15.3,20.8-32,30.4-55.3,26.5C1169.7,2534,1192.9,2522,1226.5,2533.6z"/>
<path d="M1197.1,2592.9c3.8-23.1,19-32.4,47.3-29.1C1239.6,2586.2,1221.9,2597.1,1197.1,2592.9z"/>
<path d="M1229.8,2618.9c17.5-26.2,26.4-30.4,49.7-25C1270.5,2616.8,1254.8,2625.3,1229.8,2618.9z"/>
<path d="M2069.3,1338.7c-18.2,25.8-29.3,30.5-53,23.4C2027.2,1336.3,2039.9,1330.3,2069.3,1338.7z"/>
<path d="M2008.5,1274.4c-7.1,26.5-24.6,37.1-50.8,32.6C1963.3,1285.6,1977.5,1276.1,2008.5,1274.4z"/>
<path d="M2033.5,1306.6c-5.4,8.8-8.2,17.9-14.3,22.2c-7.8,5.4-18.2,7.5-27.8,9.6c-1.2,0.3-7-8.6-6-11.6
	C1989.3,1315.5,2013,1305.2,2033.5,1306.6z"/>
<path d="M2530.4,521.2c-16.3,2-29.7,4.8-31.6-13.3c-6.3-59.8-12-119.7-0.4-179.5c1.9-10,5.6-19.9,10-29.1
	c4.7-10.1,13.7-16.5,25-14.1c4.6,1,8.1,7.8,11.7,12.3c0.7,0.9-0.3,3.7-1.1,5.3c-30.6,60.7-16.1,125.2-15.5,188.5
	C2528.6,500.5,2529.7,509.6,2530.4,521.2z"/>
<path d="M2918,521.9c-2.3,3.2-4.9,10.6-9.6,12.3c-4.6,1.7-11.5-2-17-4.3c-2.1-0.9-3.4-4.4-4.5-6.9c-16.4-37.4-45.1-47.1-82.8-37.1
	c-4.4,1.2-9.7,1.7-13.8,0.3c-4.8-1.7-11.7-5.2-12.5-9.1c-1.2-5.4,1.3-12.4,4.3-17.6c2-3.5,7.3-5.5,11.5-7.2
	c43.9-17.2,108.2,13.5,121.9,58.2C2916.4,513.2,2916.8,516,2918,521.9z"/>
<path d="M1447.8,3325.7c1,3,2.9,6.4,3.2,9.9c4,57.1,8.6,114.3-1.5,171.2c-2.3,12.8-6.3,25.9-12.6,37c-4,7.1-13.1,13.7-21.2,15.7
	c-13.5,3.4-22.3-8.3-15-20.2c34.7-56.8,19-118.5,18.7-178.7c0-3.7-1.5-7.4-1.8-11.1C1415.4,3325.4,1419.9,3321.8,1447.8,3325.7z"/>
<path d="M1129.5,3396.4c-32.2-2.8-63.8-12.9-88.3-38.6c-7.9-8.3-19.1-18.2-8.9-31.5c7.6-10,25.6-7,35.6,7.6
	c20,29.1,47.8,32.8,79.3,28.8c22.7-2.9,29.6,0.5,30.4,13.2c0.7,11.2-5.9,16.2-26.1,19C1145,3395.8,1138.4,3395.8,1129.5,3396.4z"/>
<path d="M1732.4,2909.7c-19-0.2-22.3-10.4-22.9-20.5c-0.6-9.8,1.3-19.8,3.2-29.5c0.3-1.7,7.3-4.1,9.3-2.9c4.1,2.4,9.6,6.8,9.9,10.8
	C1733.1,2881.2,1732.4,2894.9,1732.4,2909.7z"/>
<path d="M1678.5,2895c-16.7-11.8-18.1-23.7-4.5-50.1c5.1,3.3,11.8,5.4,14.7,10C1693.2,2862,1687.2,2881.5,1678.5,2895z"/>
<path d="M1762.3,2861.1c13.9,12.7,13.1,29.9,11.6,46.9c-0.3,2.9-6.1,7.4-9.2,7.2c-3.5-0.2-9.6-4.6-9.8-7.4c-1-15-0.5-30.2-0.5-45.3
	C1757.1,2862.1,1759.7,2861.6,1762.3,2861.1z"/>
</svg>
