<?xml version="1.0" encoding="utf-8"?>
<!-- Generator: Adobe Illustrator 24.3.0, SVG Export Plug-In . SVG Version: 6.00 Build 0)  -->
<svg version="1.1" id="Layer_1" xmlns="http://www.w3.org/2000/svg" xmlns:xlink="http://www.w3.org/1999/xlink" x="0px" y="0px"
	 viewBox="0 0 4000 4000" style="enable-background:new 0 0 4000 4000;" xml:space="preserve">
<path d="M3236.3,1233.9c0,58.3,0.3,116.6,0,175c-1.1,206.4,41.8,403.7,119.9,594.3c29,70.7,53.6,143.3,78.4,215.7
	c6.1,17.7,15.6,25.5,32.5,30.2c65.2,18,127.9,42.5,186.2,77.1c51.8,30.8,97.5,68.4,125.6,123.2c41.9,81.9,31.8,159-23.5,231.1
	c-35.2,45.9-83.7,73.7-135.1,97.1c-77.8,35.4-160.2,54.3-244.8,62.2c-75.1,7-150.6,8.5-225.8,14.7c-42,3.5-83.9,9.7-125.2,18.3
	c-48.5,10.1-81,40.3-95.3,88.8c-1.9,6.6-4.6,12.9-6.7,19.5c-33.1,107.6-107.4,170.7-215.4,193.7c-128.8,27.4-247.6,4.5-352.6-78.1
	c-27.8-21.9-55.5-44.2-82.7-66.8c-102.3-85-217.9-98-342.3-63.8c-57.7,15.9-111.1,42-163.5,70c-61.7,33-124.9,62.5-194.4,74.5
	c-52.2,9-104.6,9.8-156.7-2.3c-80.7-18.7-144.7-60.6-186.3-133.9c-6.2-10.9-14.4-20.9-19.5-32.2c-29.5-65.6-85.7-88.7-151.7-94.6
	c-34.1-3-68.5-2.5-102.8-3.1c-92.6-1.6-185.3-0.5-277.8-5c-104-5-207.3-17.8-305.8-54.9c-66.4-25-126.4-58.4-166-120.7
	c-61-96.1-48.5-205.3,34.2-283.7c41.2-39,89.8-67.2,142.1-87.9c58.3-23.1,117.7-43.6,177.1-63.9c19.3-6.6,30.4-17,34.8-37.5
	c14.8-69.9,44.5-134.3,74.9-198.3c48-101.3,93.5-203.5,116.8-314.1c18.9-89.8,27.9-180.8,31.1-272.2c4.1-116.6,3.8-233.3,7.1-349.8
	c3-105.2,10.9-209.8,33.7-313.1c59.4-268.9,263.1-464.4,534.9-507.8c69-11,139.1-6.5,208.3,6.4c96.6,18.1,193,36.9,289.8,53.7
	c112.7,19.6,225.2,16,337.7-4.4c94.4-17.2,188.6-35.8,283.7-47.9c246.1-31.3,495.2,91.3,618.5,320.7
	c55.2,102.6,84.2,212.6,93.4,327.4c9.1,113.8,12.4,228.2,18.2,342.3C3239.6,1233.7,3237.9,1233.8,3236.3,1233.9z M2631.1,2074.2
	c37.7-6.7,39.3-6.2,45.5,19.2c12.4,51.1,25,102.2,36.5,153.5c17,75.2,27.5,151.2,10.1,227.7c-8.3,36.5-20.8,72-32,110
	c6.1,2.4,13.1,6.4,20.5,7.8c57.1,11.1,114.1,23.4,171.5,32.1c82.2,12.4,164.7,9,245-12.2c144.7-38.1,223.4-127.3,208.8-291.1
	c-6.3-70.6-26.4-136.6-51.5-201.8c-22.6-58.7-47.7-116.4-69.1-175.4c-57.1-157.3-83.3-320.5-87.3-487.3
	c-2.5-104-1.5-208.1-2.6-312.2c-1.1-109.8-5-219.5-25.2-327.9c-17.8-95.6-49.8-185-109.9-263.1
	c-113.2-147.1-262.8-216.3-447.4-206.1c-55.5,3.1-111.9,11-165.5,25.6c-213.4,58.3-426.4,58.3-640.9,7.6
	c-63.3-14.9-127.6-26.5-192-35.3c-87.1-11.8-173.6-9.2-255.7,27.9c-178.9,81-291.9,215.2-330.4,409.6
	c-23.5,118.4-26.6,238.3-29.3,358.4c-2.8,123.4-6.2,246.9-13.6,370.1c-7.2,119.1-28.1,236.4-73,347.6
	c-33.3,82.6-70,163.9-107.5,244.7c-33.8,72.8-54.8,147.7-50.4,228.5c4.2,76.1,33.9,138.9,95.5,185.6c47.5,36,101.6,56.2,159.5,67.5
	c114.1,22.4,227.5,13.7,340.7-7.2c6.2-1.2,11.9-5.6,19.1-9.2c-3.7-9.7-6.6-18.2-10-26.6c-20.8-50.5-30.7-103.2-27.5-157.5
	c6-103.4,36.4-202.1,61.2-301.8c1.6-6.4,11.8-13.5,18.9-14.8c7.8-1.4,16.9,3.6,28.5,6.6c-3,14.2-5.3,26.2-8.2,38.1
	c-14.6,60-31,119.5-43.6,179.9c-15.7,75.8-18.9,151.6,8.6,226.5c15.8,43,41.8,76.5,82.2,96.8c38.7,19.5,78.2,38.1,118.9,52.4
	c111.8,39.2,227.8,58.7,345.9,64.8c152.2,7.8,304,5.8,454.2-24.5c88.8-17.9,175.4-41.2,255.3-86.3c41.3-23.3,67.8-56.5,83.9-99.9
	c22.8-61.6,28-125.1,16.3-189.1c-11.7-64-27.1-127.4-40.6-191.1C2639.8,2120.5,2635.8,2098.3,2631.1,2074.2z M3384.9,2340.4
	c-1,12.6-2.1,24.6-2.9,36.7c-9.4,137.1-80.5,228.1-211,269.5c-54.7,17.4-110.9,26.4-168.4,28.6c-103.9,4-205.1-12.7-304.6-40.2
	c-25.8-7.1-45.1-2.9-67.2,10.8c-30.9,19.2-63.6,36.2-97.1,50.3c-119.4,50.2-246.4,67.5-373.7,80.6c-177.8,18.2-354,2.3-528.3-34.1
	c-95.5-19.9-188.5-48.9-269.1-106.3c-23-16.4-44.1-18.7-70.2-15.1c-64.4,8.9-129.1,18.6-193.9,21.9c-93.4,4.7-184.5-10.7-271.2-47.5
	c-107.5-45.7-166.4-127.9-182.5-242.4c-1.2-8.6-3.6-17-6.1-28.5c-98.3,27.1-195.2,49.5-281.5,101.2c-21.3,12.7-41.6,28.9-58.2,47.3
	c-28.7,31.7-34.3,69.4-14.5,108.1c8.2,16,19.1,31.4,31.6,44.2c42.4,43.6,98.5,61,155.2,75.3c81.3,20.4,164.3,28.2,248,29.8
	c106.3,2,212.7,2.5,318.9,6.1c33.9,1.1,68.3,7.5,101.3,15.9c64.9,16.5,115.9,52.6,146.7,114.2c9.2,18.4,20.7,35.6,31.2,53.2
	c24,40.2,59,65.5,103.7,79c64.4,19.5,127.1,11.4,187.8-12.5c40.3-15.9,79-35.8,117.7-55.4c59.3-30,119.5-56.8,184.1-73.7
	c159.9-41.9,305.7-17.9,434.3,90.1c29.8,25,58.4,51.6,90,74c91.2,64.4,189.2,74.5,292.6,31.9c46.1-19,78.1-50.5,91.2-99.7
	c4.4-16.5,9.9-32.8,15.3-49.1c15.4-46.5,45.3-81.5,86.4-107.2c33.3-20.9,69.6-35.9,108.6-39.7c86.4-8.5,172.9-15.1,259.5-21.2
	c82.2-5.8,164-13.6,242.6-40.6c46.9-16.1,91.2-36.9,127.3-71.9c49.5-48.2,50.6-107.5,3.3-157.7c-27.1-28.8-59.9-50.2-96.1-64.6
	c-55.1-21.9-111.4-41-167.3-61.1C3395.4,2339.5,3391.8,2340.4,3384.9,2340.4z"/>
<path d="M1500.6,3621.3c-60.9-5-118.8-15.7-174.3-39.3c-30.9-13.1-58.7-30.8-80.2-57.1c-37.5-45.8-44.1-96.7-22.6-151
	c12-30.2,31.5-55.7,57-76c66.6-53.1,142.7-79.8,227.8-81.6c51-1.1,94,18.1,129.5,53c45.3,44.5,73.4,98.7,81.9,162.1
	c10.2,76.7-32.1,145.1-108.8,169.1C1575.5,3611.6,1537.5,3614.6,1500.6,3621.3z M1499.9,3510c15.4-2.2,34.9-3.4,53.7-7.8
	c68.3-16.3,75.5-45,49.6-104.8c-24.8-57.4-72-82.8-132.8-69.7c-30.7,6.6-60.7,19.2-89.2,32.9c-18,8.7-34.2,22.9-48.5,37.2
	c-22.9,22.8-20.6,43.1,5,63.4c8,6.3,16.8,12,26.1,16.3C1405.7,3496.8,1450.2,3505.9,1499.9,3510z"/>
<path d="M2306,640.8c22.9,14.5,39.8,25.4,56.9,36.1c82.7,51.6,136.2,127.1,174.6,214.7c2.7,6.2,6,13.6,4.8,19.6
	c-1.3,6.8-6.2,16.5-11.5,18c-7,1.9-18-0.6-23.5-5.4c-6.3-5.6-8.8-15.7-12.5-24c-63.2-144.6-174.3-227.8-328.1-256.8
	c-119.5-22.5-238.7-21.4-357.3,5.7c-95,21.8-171.3,74.4-231.8,149.5c-22.8,28.3-40.9,60.5-61.1,91c-5,7.6-8.2,17.4-15,22.6
	c-6,4.7-16.4,7.2-23.9,5.7c-11.1-2.2-11.9-12.7-8.4-22.2c3.5-9.6,7.6-19.1,12-28.4c42.2-89.6,107.6-158,191.7-209.4
	c8.3-5.1,16.1-10.9,28.4-19.3c-15-7-24.6-12.6-35-16c-88.8-29.8-167.9-77.2-242.5-133c-21-15.7-43.7-29.2-65-44.7
	c-12.9-9.4-26.7-20.4-20.4-39.2c4-12.1,25.2-12.3,46.1,1.5c23.8,15.7,45.6,34.4,68.8,51.1c80.2,57.7,164.4,107.5,261.9,130.8
	c8.7,2.1,19.4,4.9,24.3,11.2c13.4,17.3,28.3,14.3,46,9.6c142-38.2,284.4-40.9,426.7-2.6c19.9,5.4,36.9,3.4,56.2-3.9
	c30.8-11.6,63.5-18.3,95.1-27.9c17.4-5.3,35.2-10.7,51.2-19.2c24.5-12.9,25.6-35.8,0.4-45.7c-30.3-11.9-63.4-22-95.6-22.9
	c-50-1.4-100.2,5.3-150.3,9.2c-29.6,2.3-59.1,6-88.7,8.9c-5.7,0.5-11.5,0.7-17.1,0c-13.8-1.6-19.1-10.7-19.9-23.6
	c-0.8-13,6.9-19.3,18-20.9c18.1-2.6,36.3-4.6,54.6-5.1c74.2-1.9,148.4-3.2,222.6-4.5c7.9-0.1,16.1,0.6,23.9,2.4
	c49.7,11,99.3,22.4,120.1,80.8c20.5-8.2,39-13.9,55.9-22.7c45.5-24,90.2-49.4,135.3-74c11-6,22.1-12.7,33.9-15.6
	c7.4-1.8,18.8,0.6,24,5.6c8.9,8.6,3.6,19.6-4.3,27.2c-8.2,7.8-17.1,15.3-26.8,21.2c-106.3,63.7-217.4,116.7-338.2,147.2
	C2345.5,627.4,2328.8,633.6,2306,640.8z"/>
<path d="M1434.6,648.9c-0.2,30.7-8.6,59.4-27.8,82.9c-19.4,23.7-40.4,46.7-63.9,66.1c-51.9,42.8-105.6,83.2-152.5,132.1
	c-15.9,16.6-38,30.3-59.8,37.4c-43.1,14-80.8-7.8-93.1-51.2c-5.5-19.4-9-40.8-7-60.7c9.7-94.8,40.3-182.3,97.7-259.3
	c23.4-31.4,50.4-59.6,86.3-76.6C1330.7,464.6,1436.5,545.8,1434.6,648.9z M1070.2,858.4c0,11.8-0.2,16.4,0,20.9
	c2.9,46,33.7,61.7,73.1,37.1c5.8-3.6,11.5-7.7,16.1-12.7c49.8-54.1,108.4-97.7,165.9-142.9c21.1-16.5,39.6-38.3,53.8-61.1
	c23.4-37.5,17.5-91.4-8.4-122.4c-25.4-30.3-78.2-43.6-119.6-26.4c-21.6,9-43.4,21.9-59.9,38.2C1114.7,665,1081,760.6,1070.2,858.4z"
	/>
<path d="M1474,1957.6c0.5-80.5,52.4-134.4,128.5-133.4c69.7,0.9,122.4,55.3,122,125.6c-0.5,72.9-56.8,131.7-126,131.6
	C1530.2,2081.3,1473.6,2025,1474,1957.6z M1627,1870.9c-22-0.7-41.2,16.3-41.4,36.7c-0.2,18.7,15.3,36.2,32.9,37.4
	c24.5,1.6,45-15.1,44.9-36.5C1663.3,1888,1647.4,1871.6,1627,1870.9z"/>
<path d="M2244,1955.1c-0.5-69.9,55.8-129.3,123.4-130.3c68.2-1,126.8,56.5,127.9,125.6c1.2,72.5-51.9,130.4-120.6,131.6
	C2304.5,2083.2,2244.5,2024.9,2244,1955.1z M2345.1,1946.2c23.6-0.4,41.5-16,41.7-36.6c0.3-21-15.5-37-36.4-37
	c-22.8-0.1-41.8,18.8-41.5,41.2C2309.2,1933.5,2323.7,1946.5,2345.1,1946.2z"/>
<path d="M1471,1038.1c-46.6,302.6-45.1,608.7-87.7,913.1c-12.3,0-22.9,0-37.8,0c0-13.1-0.8-25.2,0.1-37.1
	c13.2-169.7,25.7-339.4,40.5-508.9c9.7-110.3,22.9-220.3,34.7-330.4c0.7-6.8,2.5-13.5,4.2-20.1
	C1431.6,1029.6,1434.8,1028.1,1471,1038.1z"/>
<path d="M2653.8,1942.7c-33.4,7.2-36.6,6.4-40.2-22.7c-7.5-60-15.1-120.2-19.3-180.5c-11.1-160.7-19.4-321.5-31-482.1
	c-4.3-59.1-14.7-117.8-22.4-176.6c-3.4-25.7,8.3-39.4,28.4-30.5c7.7,3.4,14.8,14.3,16.8,23.1c5.7,24.4,10,49.3,12.2,74.3
	c7.5,84.2,14.6,168.4,20.4,252.7c10.1,147,19.1,294.1,28.8,441.1c1.4,21.6,4.6,43.2,6.2,64.8
	C2654.6,1918.5,2653.8,1930.8,2653.8,1942.7z"/>
<path d="M1558.4,1362.8c-35.8-0.1-39.2-1.1-35.9-28.3c11.9-97.3,25.7-194.4,39.1-291.6c0.9-6.6,2.5-15,6.9-18.9
	c20.2-17.7,22.8-40,22.9-65c0.1-14.2,5.6-29.3,11.9-42.4c41.5-85.8,104-150.2,195.7-180.7c28.8-9.6,60.3-11.7,90.9-14.7
	c8.3-0.8,19.7,5.5,25.6,12.1c8.8,10,3.4,22.9-9.5,26.4c-7.6,2.1-15.8,2-23.8,2.6c-107,8.1-183.2,63.4-235.9,154.4
	c-10.9,18.8-21.4,37.8-31.1,57.1c-8.7,17.2-16.6,34.3-12.1,55.4c2.3,10.4-2.6,22.4-4.1,33.6c-11.9,88.2-23.7,176.5-35.6,264.7
	C1562.2,1338.8,1560.4,1350,1558.4,1362.8z"/>
<path d="M3043.4,1218.5c-29,2.2-32.6,0.7-33.5-23.9c-2.4-60.4-3.8-120.9-4.7-181.4c-1.2-79.2-11.7-156.8-34.6-232.8
	c-14-46.4-35.6-88.9-62.6-128.7c-21.5-31.7-48.5-57.5-83.1-74.7c-10.3-5.1-21.8-10.6-15.6-25.6c5.7-13.7,23.8-20.8,37.1-11.9
	c20.7,13.9,41.2,28.9,58.7,46.5c73,73.3,107.6,166.2,125.9,265c22,118.5,18.5,238.7,15.6,358.6
	C3046.5,1211.6,3045.1,1213.7,3043.4,1218.5z"/>
<path d="M859.3,2389.4c-26.3,10.9-36.1,0.2-42.6-16.7c-18.6-47.7-25.4-97.1-19.8-147.9c6.5-58.4,24.3-113.7,49.9-166.5
	c21.4-44.2,45.8-87.1,63.9-132.6c18.9-47.5,32-97.4,47.5-146.2c1.7-5.4,2.1-11.2,3.4-16.8c2.9-12.4,11.4-15.8,23.2-14.3
	c13,1.6,18.3,9.7,16,21.4c-5.1,25.7-10.5,51.4-17.3,76.7c-19.1,71-51.2,136.6-85.2,201.5c-26.6,50.7-49,102.8-58,160.2
	c-7.8,49.7-3.7,97.7,11.4,145.4C855.3,2365,856.7,2377,859.3,2389.4z"/>
<path d="M3222.7,2302.2c-2.3,81.5-16.7,149.8-67.7,205.3c-7.6,8.2-16.4,17.2-26.5,20.6c-7.8,2.6-20.4-0.3-27.1-5.5
	c-10.1-7.8-4.5-18.4,2.7-26.9c1.5-1.7,3.1-3.4,4.9-4.8c68.9-53.8,75.5-129,69.8-207.4c-5.3-72.4-27.1-140.9-53-208.3
	c-9.4-24.5-18.9-49-27.5-73.8c-2.9-8.4-4.7-18-3.7-26.7c1.5-13.8,18.5-19.1,28.7-9.4c4,3.8,6.9,9.1,9,14.3
	c32,80.6,68.7,159.6,81.4,246.5C3217.8,2254.3,3220.4,2282.7,3222.7,2302.2z"/>
<path d="M1987.2,2153.9c-63.2,5.2-118.3-39.8-132.2-92.1c-2.6-9.8-4.6-20.4-3.4-30.2c0.8-6.4,7.7-16.4,12.5-16.8
	c7.4-0.6,17.2,3.9,22.5,9.5c4.9,5.2,5.3,14.7,7.8,22.2c13.8,42,46.1,65.7,89.4,65.9c46.7,0.2,77.9-22.4,91.5-66.4
	c1.7-5.4,2.6-11.1,4.6-16.5c4.9-13.7,14-20.1,29.1-16.1c15.4,4.1,19.6,14.7,16.4,28.8c-12.2,53.9-49.3,105.5-117.8,111.6
	C2000.9,2154.4,1994,2153.9,1987.2,2153.9z"/>
<path d="M1023.5,1081c34.6-3.4,39.7-0.1,38.4,27c-2.6,54.6-6,109.1-9.2,163.7c-0.3,4.5-1,9.1-1.5,13.6c-1.6,12.7-2.7,26-20.6,25.5
	c-18.1-0.5-18.5-13.5-18-26.6c1.7-45.5,3.4-91,5.7-136.5C1019.4,1125.2,1021.7,1102.8,1023.5,1081z"/>
<path d="M3053.7,1454.2c-36.5,6.1-38.8,5-40.2-24.5c-1.3-27.2-0.9-54.6-1.4-81.9c-0.3-14.5,4.2-24.1,20.9-24.6
	c17.6-0.5,20.7,10.2,20.7,24.2C3053.7,1382.5,3053.7,1417.6,3053.7,1454.2z"/>
<path d="M1479.7,2085.6c5.2,27.4-12.2,65.9-32.8,72.2c-6.2,1.9-15.8-0.6-21.1-4.6c-3.3-2.5-3.5-12.6-1.5-17.9
	C1431.1,2117.1,1456.3,2094.9,1479.7,2085.6z"/>
<path d="M1540.2,2109.2c2.6,25.4-12.7,60-29.6,68.5c-11.4,5.7-21.6,0.8-22.7-10.9c-1.6-16.3,23.9-54.9,39.9-59.3
	C1531.6,2106.5,1536.3,2108.6,1540.2,2109.2z"/>
<path d="M2480.3,2090.2c12.3,1.7,22,0,26.5,4.1c13.3,12.2,25.6,26,36,40.7c3.1,4.5,0.9,19.1-2.3,20.3c-7,2.7-20.5,3-23.7-1.4
	C2503.8,2136,2486.1,2120.3,2480.3,2090.2z"/>
<path d="M2471.7,2181.2c-1.8-0.7-6.2-0.9-7.9-3.2c-11.8-15-24.1-29.9-33.9-46.3c-2.3-3.8,2.9-14.4,7.5-19.1c2-2.1,13.5,1,16.7,5
	c11.2,14.2,21.7,29.2,30.5,45C2490.1,2172.5,2483.3,2181.9,2471.7,2181.2z"/>
<path d="M2365.8,2125.4c9.3,1.8,20.3,0.5,24.4,5.3c12.4,14.5,22.7,31,32.5,47.4c2,3.4,0.3,11.9-2.8,14.5c-3.2,2.7-10.8,3.1-15.1,1.3
	C2389.8,2187.5,2369.5,2152.5,2365.8,2125.4z"/>
<path d="M1565.9,2194.5c-14.3-30.5,1.4-61.2,34.6-71.8C1610,2147.3,1601.7,2165.1,1565.9,2194.5z"/>
</svg>
