<?xml version="1.0" encoding="utf-8"?>
<!-- Generator: Adobe Illustrator 24.3.0, SVG Export Plug-In . SVG Version: 6.00 Build 0)  -->
<svg version="1.1" id="Layer_1" xmlns="http://www.w3.org/2000/svg" xmlns:xlink="http://www.w3.org/1999/xlink" x="0px" y="0px"
	 viewBox="0 0 4000 4000" style="enable-background:new 0 0 4000 4000;" xml:space="preserve">
<path d="M1988.1,561.9c5.7-22.1,10.6-43.5,16.9-64.5c42.4-143.6,122.8-261.1,244.5-348.9c35.8-25.8,74.3-47.8,117.9-58.3
	c31.9-7.7,58.4,10.2,63.7,41.3c3.8,21.9-3.1,37.1-22.7,48.1c-6.6,3.8-13.9,6.4-21,9.4c-164.7,69.9-261.9,197.3-310.8,365.7
	c-1.3,4.4-1.4,9.2-2.4,16.9c10.6,1,19.6,2.4,28.7,2.7c165.2,5.6,289.6,101.6,336.4,260.4c6.5,22,11.5,44.6,15,67.2
	c2.2,14.3,8.3,22.3,21.7,26.8c25.4,8.5,51.1,16.7,75.7,27.1c134.1,56.7,255,132.5,350.1,245c55.2,65.3,97.4,137.7,117.3,221.6
	c3.6,15.3,11.5,25.6,24.5,33.5c18.8,11.4,38,22.6,55.7,35.6c158.4,116.7,249.1,272.9,270.3,468.5c12.3,114.2-11.5,221.2-71.1,319.7
	c-6.9,11.4-14.2,23.4-23.9,32.2c-21.9,19.8-30.3,45.3-37.7,72.6c-75.5,278.4-151.5,556.7-227.4,835.1
	c-31.5,115.6-64.7,230.7-94.1,346.9c-14.4,57-45.2,97.3-95.6,126.2c-74.8,42.9-155,71-237.8,92.4c-197.8,51-398.8,77.2-603.3,74.3
	c-205.9-2.9-409.4-25.6-608.5-79.8c-76.8-20.9-152.2-46.4-221.6-86.8c-12.4-7.2-24.1-15.6-36.4-23.1c-29.2-18-47.3-43.9-56.8-76.6
	c-19.8-68.1-40.8-135.9-60.1-204.1c-69.1-243.4-137.7-487-206.4-730.5c-26.5-94.1-52.9-188.2-79-282.4c-5.3-19-14.6-34.1-28.9-48.3
	c-51.2-50.7-80.7-114.1-97.4-183.1c-44.2-182.2-3.6-348.1,103.4-498.6c61.4-86.3,140.9-153.9,234.7-203.8
	c18.5-9.8,27.6-21.8,30.6-43.8c7.1-52.4,31.8-97.9,63.7-139.7c65.2-85.3,148.2-149.6,241.3-201.2c69.7-38.6,141.3-73.4,218.2-95.3
	c17.9-5.1,21-16.4,22.9-31.6c9.1-71.5,32.3-137.9,72.7-197.9c91.7-136.2,221.3-188.6,381.9-171.8c7.6,0.8,15.2,1.9,22.9,2.5
	C1978.8,563.4,1981.7,562.6,1988.1,561.9z M3213.1,2220.3c21-16.1,27.3-38.7,34.9-60c48.1-134.6,31.5-265-32.1-389.7
	c-57.5-112.9-147.2-195-259.2-253.1c-5.6-2.9-15-2.2-21.1,0.3c-27.5,11.3-55.5,13.8-84.6,8.1c-22.2-4.4-44.5-8.2-69.9-12.8
	c-1.5,11.7-3.1,20.7-3.7,29.9c-0.9,15.3-0.2,30.7-1.8,46c-8.2,80.9-55.8,128.3-136.4,138.2c-45.2,5.5-87.7-4.3-129.3-20.2
	c-14.3-5.5-28.1-12.3-42.5-17.7c-32.7-12.3-42.7-7.5-54,24.7c-7.3,20.8-13.6,42.1-22.6,62.1c-30.9,69.1-85.2,103.7-160.4,106.3
	c-62.1,2.1-114.8-20.7-158.5-63.1c-26.1-25.3-48.8-54-73-81.2c-42.6-48-91.6-66.7-157.1-37.3c-27.1,12.2-53.3,26.2-79.5,40.1
	c-42.5,22.6-86.2,41.9-133.8,51.1c-44.4,8.6-88.1,6.8-129.2-13.5c-59.6-29.5-89.7-78.9-92.5-144.8c-1.1-26.8,0.8-53.7-0.3-80.5
	c-1.5-35.3-22.9-60-57.9-64.1c-17.6-2.1-36.3,0.3-54,3.7c-33.8,6.6-67,16.2-100.8,23.1c-51.6,10.5-102.9,13.8-150.7-15.3
	c-9.7-5.9-17.7-3.3-26.7,1.8c-25.8,14.7-52.8,27.5-77.9,43.3c-146.9,92.4-244.6,220-271.6,394.2c-14.4,93-3.1,183.8,46.1,266.8
	c5.6,9.5,12.9,17.9,21.4,29.5c41.9-48.1,90.7-75.5,152.3-75.4c61.5,0.1,113.1,24.8,158.5,65.6c124.8-101.7,241.6-80.4,355.7,23.6
	c53.1-52.7,117.8-76.1,192.8-66.2c75.3,9.8,132.5,51.6,182.1,108c152.3-127.6,303.9-133.8,456.7,0
	c113.7-120.1,239.3-147.1,379.7-41.9c8.2-7.6,16.2-14.4,23.6-21.8c73.9-73.4,210.6-95,297.2-13.1c9.7,9.2,18.1,8.9,28,2.2
	c10.4-6.9,20.4-14.4,31.2-20.5c59.8-33.7,120.9-42,182.8-5.9C3188.4,2198.3,3199.4,2209.4,3213.1,2220.3z M1539.8,1051.2
	c-8.9,1.3-14.7,1.4-19.9,3.1c-39,13-78.8,24.3-116.8,39.9c-107.6,44.3-203.7,106.5-283.7,191.8c-31,33.1-55.6,70.3-70.8,113.9
	c-12.6,36.1,4.6,58.1,36.1,73.3c8.3,4,18.4,4.8,27.9,5.7c38.9,3.8,75.9-6.4,113.4-14.8c31.7-7.1,63.8-14.4,96.1-16.7
	c77.5-5.5,123.7,38.9,124.4,116.2c0.2,23-1.2,46.1-0.1,69c2.2,45.5,23.4,80.4,62.5,103.8c35.7,21.3,74.4,22.9,114.1,14.7
	c48.6-10,91.3-33.8,134.6-56.6c27.9-14.7,56.3-29.1,85.9-39.5c71-25,131.9-6.4,182,48.7c12.9,14.2,23.8,30,35.9,44.8
	c32.6,39.9,69.5,73.8,121.1,88c58.2,16,141.8-2.9,172.4-82.6c6.5-17,11.7-34.5,17.8-51.6c3.2-9,6.2-18.2,10.8-26.5
	c17.9-32.6,47.6-44.3,82.7-32c18,6.3,35.4,14.7,53.1,21.9c34.1,13.8,69.4,23.4,106.4,19.5c73.7-7.7,108.1-43.2,109.7-111.6
	c0.3-13.4-0.2-26.9,0.5-40.3c0.5-9.5,1.3-19.2,3.8-28.3c6.7-24,22.1-35.6,46.6-33.3c17,1.6,33.7,6.6,50.4,10.7
	c21.6,5.3,42.9,9.6,65,1.9c23.6-8.2,29.5-14.5,22.5-37.7c-9.6-32-19.4-64.5-34.5-94c-36-70.3-90.8-125.5-151.2-175.1
	c-84.1-69.1-181.3-114-282.3-151.7c-10.4-3.9-21.5-6.1-31.2-8.8c-2.9,4.3-4.6,5.7-5,7.4c-1.8,8.4-3.4,16.9-4.8,25.4
	c-9,58.6-29.3,113.3-60.4,163.5c-58.6,94.3-139.6,159.1-249.3,185.3c-59.4,14.2-119.1,16.8-179.8,11.6
	c-191.2-16.3-338.5-144.3-379.4-330.9C1544.6,1070.9,1542.5,1062.6,1539.8,1051.2z M2143.7,3755.4c1.4-8.8,3.1-15.2,3.4-21.7
	c2.8-58.4,5-116.8,8-175.2c7.1-138.8,14.4-277.6,22-416.3c7.8-140.7,16.1-281.4,24.1-422c4.9-86.1,9.2-172.3,14.7-258.4
	c1.3-20.2-1.2-37.3-16.4-52.4c-12.8-12.8-22.7-28.4-34.6-42.2c-73.7-85.3-187.8-100.8-278.8-34.5c-29.8,21.6-53.4,51.8-79.9,77.9
	c-11.9,11.7-14.8,25.7-13.7,42c4.4,67.9,7.8,135.9,12.1,203.8c12.4,193.2,25.4,386.4,37.4,579.7c9.1,147.3,17,294.8,25.7,442.1
	c1.5,25.5,4.2,51,6.5,78.1C1965.6,3761.2,2054.1,3760.6,2143.7,3755.4z M1979.5,665.8c-7.2-3-8.1-3.6-9-3.7
	c-11.3-1.9-22.6-4.3-34-5.6c-114.9-13.7-208.4,25.3-275.2,119.4c-72.2,101.8-83.8,213.9-44.1,331.5
	c31.1,91.9,91.9,159.1,178.6,200.7c93.9,45.1,192.7,53.4,294.4,28.8c211.9-51.3,311.3-276.4,261.9-457.9
	c-24.8-91.1-76-160.5-169.2-192.2c-42.3-14.4-85.3-17.4-131.2-12.7c0,18.3,0,34,0,53.4c22-6.5,41-12.4,60.1-17.7
	c11.7-3.3,23.7-4.1,30.1,8.7c5.8,11.7,1.2,22.8-7.1,31.6c-4.4,4.7-10.3,9.1-16.3,11.2c-75.8,27.4-146.9,19.7-212.1-29.3
	c-5.2-3.9-11.9-9.1-13.1-14.7c-1.8-8.5-2.2-19.8,2.1-26.3c2.9-4.4,15.5-5,22.9-3.3c9,2,17.1,8.1,25.6,12.5c9.1,4.6,18.2,9.2,31.7,16
	C1977.2,696.2,1978.4,680.8,1979.5,665.8z M1831.5,3750.3c0-9.7,0.5-19.1-0.1-28.4c-5.6-96.7-11.4-193.3-17.1-290
	c-5.1-87.1-9.9-174.2-15.2-261.3c-5.6-91.9-12.1-183.7-17.5-275.6c-8.8-150.3-16.9-300.6-26-450.8c-0.6-9.7-5.3-20.1-10.9-28.3
	c-12.5-18.1-27.4-34.5-40-52.5c-19.2-27.2-43.3-49.1-72.4-64.5c-59.4-31.3-109.2-26.4-156.2,17.1c-18.1,16.7-31.4,38.4-47.1,57.7
	c-8.4,10.4-9.8,21.4-8,34.8c20.9,156.8,41.1,313.7,61.5,470.5c2.8,21.5,5.8,43,9,67c11.1-3.9,19.1-6.5,26.9-9.6
	c93.5-36.2,193.6,35.9,188.9,136c-2.8,60-55.6,139.9-154.9,132.6c-11-0.8-22.1-0.1-32.2-0.1c-5,13.5,1.3,18.7,10.6,21.2
	c11.1,2.9,22.8,3.9,33.6,7.5c13.4,4.6,27.5,9.2,39.1,17c29.6,19.9,30.7,55.5,2.2,77c-12,9-26.9,14.3-40.8,20.6
	c-7.6,3.5-15.9,5.7-23.3,8.2c-0.9,4.5-2.3,7.3-2,10c14.9,113.1,30.2,226.1,44.9,339.2c2.1,16.6,10.6,22.3,26.3,24.1
	c54.3,6.2,108.3,14.2,162.6,20.2C1792,3752.1,1811.1,3750.3,1831.5,3750.3z M2525.5,2971.4c2.1-10.2,3.5-15.4,4.2-20.8
	c8-64.7,15.6-129.4,23.8-194c14.2-112.2,28.7-224.3,43.5-336.4c2.5-19.3,0.7-35.4-15.3-49.1c-8.4-7.3-13.6-18.4-20.1-27.9
	c-44.9-66-120-73.4-178.1-45.2c-31.6,15.3-56.9,38.8-78.5,66.2c-11.8,15.1-22.4,31.2-35,45.6c-11.5,13-16.3,27.5-17.2,44.4
	c-4,77.6-8.6,155.1-12.7,232.7c-6.1,113.9-11.7,227.9-17.9,341.9c-5.3,97.7-10.9,195.3-16.5,292.9c-6.8,118.7-14,237.4-20.5,356.1
	c-1.3,23.6-0.2,47.4-0.2,72.4c5.6,0.4,10.3,1.6,14.8,1c72.1-9.9,144.2-20.1,216.2-30.2c14.5-2,21.1-9.7,21.5-25
	c0.5-17.2,3.7-34.3,5.5-51.4c7-64.8,14-129.6,20.9-194.4c3.3-31.1,6.6-62.2,10-94.5c-13.8-2.5-24.1-3.8-34.2-6.4
	c-13.8-3.6-28-6.9-41-12.6c-19.8-8.8-31.9-24.7-32.9-46.9c-1-21.8,11.7-37.3,29.7-45.4c17.9-8.1,38-11.9,57.5-16.2
	c14.6-3.2,29.8-4.1,46.2-6.3c0-13,0-23,0-37.4c-36.5,19.8-72.6,28.1-110.3,18.5c-38.2-9.7-66.1-34.1-85.8-67.7
	c-32.9-56.1-24.2-122.9,21.3-169.5c19.4-19.8,42.6-32.8,69.9-37C2443.2,2921.3,2486.6,2935,2525.5,2971.4z M1479.9,3225.8
	c4.6-30.4-4.8-52-22.1-72c-34.9-40.3-42.3-89-19.9-134.3c18.2-36.8,20.9-69.8,10-106.8c-0.8-2.7-0.8-5.7-1.2-8.5
	c-21.1-163.5-42.1-327-63.5-490.4c-1.2-9.2-3.5-19.4-8.6-26.8c-15.8-22.9-31.6-46-50.4-66.3c-16-17.4-34.5-33.9-54.9-45.6
	c-55.5-31.8-110.5-21.7-153,26c-10.1,11.4-17.4,25.2-26.9,37.2c-11.8,14.9-12.2,30.4-8.3,48.6c42.7,199.6,84.8,399.4,126.9,599.2
	c30.8,146.3,61.2,292.7,91.8,439.1c15.5,74.1,31.4,148.1,46.6,222.3c3.6,17.9,11.7,28.8,30.6,32.9c49.6,10.7,98.9,22.8,148.4,34
	c5.3,1.2,10.9,0.7,20.9,1.3c-15.8-120.7-31.3-238.9-46.9-357.2c-19.9-3.5-37-5.6-53.5-9.7c-22-5.4-41.1-15.9-52-37.3
	c-9.4-18.3-9-33.7,6.7-46.7c14.4-11.9,31.8-20.5,48.7-29.1C1458.3,3230.9,1469,3229.2,1479.9,3225.8z M2534.1,3231.1
	c12,4.8,22,8.2,31.5,12.5c38.2,17.4,43.6,60.6,9.7,85.1c-12.1,8.7-27,15.2-41.6,18.4c-16.2,3.5-21.2,11-23,26.9
	c-10.2,93.3-21.8,186.5-32.3,279.8c-1.9,16.7-0.3,33.8-0.3,50.8c4,0.2,7.1,1.2,9.6,0.5c47-13.1,93.9-26.4,140.8-39.8
	c11.2-3.2,12.8-12.7,14.8-22.4c5.8-28.1,11.9-56.2,18-84.3c46-209.5,92-419,138-628.5c30.8-140.3,61.6-280.5,92.5-420.8
	c8.7-39.3,18.5-78.3,26.2-117.8c2.4-12.5,3.4-27.8-1.7-38.6c-8.5-17.9-21.7-33.8-34.5-49.3c-37.6-45.3-90.8-55.4-141.7-26.1
	c-16.4,9.4-31.3,22.1-44.9,35.3c-12.9,12.7-22.2,28.9-34.7,42.1c-18.9,19.9-25.5,43.7-28.7,70.2c-17.6,144.6-36.3,289-54.3,433.5
	c-8.7,69.3-21.1,138.3-18.8,208.8c0.6,17.7-3.2,36.4-8.7,53.4C2539.1,3156,2536.8,3192,2534.1,3231.1z M1304.9,3650.4
	c-6.2-33.5-10.9-61.6-16.7-89.5c-48.8-234.5-97.8-468.9-146.8-703.3c-32.5-155.7-65-311.3-97.8-466.9c-1.7-7.9-5.7-16.1-10.6-22.5
	c-10.4-13.5-23.2-25.2-33.4-38.8c-24.2-32.3-53.1-57.6-92.7-69.2c-29.5-8.6-55.6-3-76.4,19.4c-20.9,22.5-33.8,47.6-24.2,80.8
	c32.7,113.2,63.7,226.9,96.1,340.2c46,161.2,92.8,322.2,138.8,483.4c35.2,123.4,69.6,247.1,105.1,370.5c3.2,11.2,9.5,24.4,18.5,30.6
	C1205.9,3613.2,1251.7,3632.6,1304.9,3650.4z M2681.2,3644.1c11.5-3.5,19-4.8,25.6-8.1c22.4-10.9,44.1-23.1,66.7-33.8
	c23.4-11,36.2-28.7,42.9-53.8c27.9-104.6,57-208.9,85.7-313.3c64.3-233.7,128.8-467.4,193.1-701.1c18.1-65.6,35.7-131.3,54.3-196.7
	c7.2-25.2-3.5-42.5-20.9-58.2c-17.6-15.8-38.4-20.3-58.5-9.4c-19,10.3-36.4,24.3-52.6,38.9c-14.1,12.8-24.1,30.2-38.5,42.6
	c-14.1,12.1-20.7,26.1-24.5,43.7c-35,160.1-70.4,320.1-105.9,480.1c-53.9,243.3-108,486.5-161.8,729.9
	C2684.2,3616.6,2683.4,3628.7,2681.2,3644.1z M1502.8,3326.5c18.5-3,37.7-4.3,55.7-9.6c14-4.1,31.5-10.1,31.6-28.4
	c0-17.5-17.5-21-30.3-26.1c-39-15.4-76.9-5.8-114.1,7.4c-10.8,3.8-24.4,10.1-21.6,22.7c2,9,13,19.3,22.3,22.6
	C1464,3321.3,1483.3,3322.9,1502.8,3326.5z M2482.4,3322.1c24.9-1.1,50.2-0.1,71.8-16c15.8-11.6,16-21.9,0.7-34.4
	c-28.4-23.1-118.4-20.9-145.2,3.6c-12,11-12.4,21.2,1.7,30.4c10,6.6,22.1,11.2,33.9,13.8C2457.2,3322.3,2470,3321.4,2482.4,3322.1z
	 M1532.4,2973.4c-26.6,0-48.9,21.1-49.2,46.4c-0.2,20.7,21.1,40.4,44.1,40.7c27.6,0.4,45.6-17.2,45.4-44.3
	C1572.5,2990.4,1556.5,2973.4,1532.4,2973.4z M2461.6,3056.2c27.5,0.2,48.3-19.8,47.6-45.8c-0.5-18.1-22.8-38.3-43-39.1
	c-26.9-1.1-48.5,19.6-48,45.7C2418.7,3040.4,2436,3056,2461.6,3056.2z"/>
<path d="M1109.2,1705.9c31.1,0.8,56.1,12.4,74.6,37.3c11.3,15.2,16.2,31.8,12.9,51.3c-1.9,11-1.7,23,0.7,33.8
	c15.5,71.2-39.2,127.5-111.2,113.6c-0.9-0.2-1.9-0.4-2.8-0.7c-22.2-9.5-41.4-4.8-62.1,7.6c-14.9,8.9-34,13.4-51.6,14.7
	c-44.8,3.3-77.3-25.1-82.2-70c-4.7-43.3,11.8-79,43.4-107.5c13.4-12,28.7-23,44.8-30.7c32.6-15.7,66.3-29.4,100-42.8
	C1086.1,1708.3,1098,1708,1109.2,1705.9z M923,1876.3c0.7,45.5,35.7,66.5,76.2,47.1c11.9-5.7,22.4-14.5,32.9-22.7
	c13.4-10.5,26.5-13.2,42.2-4.1c8.9,5.1,19.5,8.6,29.6,9.9c40.7,4.9,71.5-36.8,54-73.6c-6.8-14.2-7.7-26-2-40.7
	c7.2-18.9-0.1-35-19.6-41.1c-14.9-4.6-31.9-6.3-47.3-4.3c-15.7,2-30.3,11.2-45.9,15.3c-39.4,10.5-69.8,34.8-98.1,62.4
	C930,1839.1,921.9,1857.1,923,1876.3z"/>
<path d="M2600.8,2113.5c-32-1.8-63.6-12.5-75.6-54c-1.8-6.2-9.4-11.5-15.5-15.5c-32.9-22.1-45.3-52.9-33.6-85.7
	c12.6-35.3,45.7-56.3,83.1-52c38.7,4.4,68.4,20.8,83.9,59.5c5.9,14.6,18,26.7,27.4,39.8c21,29.6,17.9,68.5-7.4,91.4
	C2647,2111.5,2627,2113.1,2600.8,2113.5z M2608.1,2078.4c21.2-0.1,32.7-6.2,37-20.1c5.2-17-1-30.2-15.1-39.4
	c-12.2-7.9-18.7-18.7-21.2-32.4c-4.5-24.6-20.7-37.6-43.4-44.3c-22.2-6.6-45.4,2.8-53.1,21.4c-9.3,22.3-1.8,41.7,22.4,53
	c9.6,4.5,14.7,10.4,17.7,20.4C2561.5,2067.7,2576.7,2078.5,2608.1,2078.4z"/>
<path d="M3068.7,1871.3c-0.3,17.6-7,40.2-21.5,60.3c-30.5,42.3-83.4,38.4-105.4-8.7c-7.2-15.4-17-26.7-30.8-36.4
	c-34.2-24-44.2-67.8-25.2-104.3c19.4-37.3,59.4-53.2,99.9-39.8C3035.5,1758.7,3068.6,1807.4,3068.7,1871.3z M2959.3,1767.7
	c-11.9,6.8-24.4,10.6-32.2,18.9c-19.1,20.2-14.6,57.7,8.9,73.1c15.2,9.9,26.7,20.8,31.3,38.7c1.1,4.5,3.9,8.7,6.6,12.6
	c12.1,17.4,35.2,15.8,43.1-3.6c6.5-15.8,12.3-32.1,16-48.8c1.9-8.6,1.4-20-3-27.2c-9.8-16.1-21.1-31.9-34.6-44.9
	C2986.4,1777.9,2972.7,1774.4,2959.3,1767.7z"/>
<path d="M1712.2,2058.3c-39.2-2.9-65.9-31.1-63.1-68.6c4.7-63.5,93.3-128.8,154.8-114c38.6,9.3,67.6,40.3,69.7,74.4
	c2.4,40.3-24.7,72.3-66.4,80.6c-15.5,3.1-30.3,9.9-45.6,14.4C1745.2,2049.9,1728.6,2053.9,1712.2,2058.3z M1788.1,1910.2
	c-47.5,2.6-74,27.1-94.6,60.1c-8,12.8-11.3,26.6-2.6,40.4c6,9.6,26.8,13.2,42.5,8.2c3.6-1.2,7.4-2.6,10.2-5
	c16.4-14.2,33.9-22.2,57.1-20.3c17.1,1.4,31.2-14.4,35.7-32.1c3.9-15.7-2.6-32.1-18.9-41C1806.9,1914.8,1794.5,1912.4,1788.1,1910.2
	z"/>
<path d="M1999.6,3278.2c-67.7-0.1-119-46.1-123.1-105.9c-0.8-11.1-0.7-21.7,12.9-24.9c10.3-2.4,19.3-0.3,23.2,11
	c3.3,9.9,5.4,20.4,9,30.2c12.5,34.2,38.2,50.7,78.1,50.8c32.4,0.1,64.6-21.9,75.3-52c3.2-9,4.7-18.5,7.5-27.6
	c2.9-9.3,9.3-14.2,19.4-13.1c10.9,1.1,17.7,7.3,19.1,18c0.7,5.5,0,11.5-1.1,17c-9.7,49.6-46.4,84.9-96.6,93.2
	C2014,3276.5,2004.5,3277.6,1999.6,3278.2z"/>
<path d="M1650.3,983.3c6.1-86.7,36.7-155.1,92.7-211.8c15.6-15.8,33.4-28.6,56.3-32.4c25.5-4.3,45.5,3.2,57.5,22.6
	c12.9,20.9,12.1,42-1.5,62c-6.4,9.4-14.4,17.9-22.6,25.8c-35.6,34.4-57.9,75.5-65.7,124.6c-2.6,16-5.9,32.1-10.8,47.5
	c-8.1,26.1-22.9,36.6-48,36.7c-27.6,0-42.5-9.9-50.9-37C1652.8,1007,1651.7,991.6,1650.3,983.3z M1686,987.9
	c1.7,6.4,2.9,18.2,7.9,28c6.9,13.2,19.7,11.9,25.5-1.8c2.6-6.1,3.3-12.9,4.9-19.4c4.7-19.5,8.3-39.3,14.2-58.5
	c14.5-47.7,40.5-88.4,76.1-123.2c8.3-8.1,17-17.3,6.4-29.6c-9.3-10.7-20.9-9.1-31.2-2.6c-11.3,7-23,14.4-31.7,24.2
	C1713.3,855.6,1692.3,916.2,1686,987.9z"/>
</svg>
