<?xml version="1.0" encoding="utf-8"?>
<!-- Generator: Adobe Illustrator 24.3.0, SVG Export Plug-In . SVG Version: 6.00 Build 0)  -->
<svg version="1.1" id="Layer_1" xmlns="http://www.w3.org/2000/svg" xmlns:xlink="http://www.w3.org/1999/xlink" x="0px" y="0px"
	 viewBox="0 0 4000 4000" style="enable-background:new 0 0 4000 4000;" xml:space="preserve">
<path d="M1967.7,3125.7c-132.2-0.1-314.4-8.6-496.3-28c-200.4-21.4-397.8-57.5-590.9-114.9c-147.2-43.7-290.3-98.2-419.8-183.1
	c-45.7-29.9-88.7-63.1-125.6-103.3c-60.8-66.1-99.3-142.1-99.2-234.3c0-71.6,26.6-133.3,68.4-189.7
	c50.1-67.7,115.9-117.4,187.5-159.6c49.5-29.2,100.6-56,152-81.7c18.6-9.3,23.5-23.5,27.6-40.7c32.3-137.4,65.2-274.8,97.2-412.3
	c34.7-149.2,68.8-298.5,103-447.7c5.6-24.3,10.2-48.9,15.5-73.3c12.5-57.1,45.9-99.8,92.4-133.6c52.5-38.1,111.5-63.1,172.1-84.2
	c120.5-41.9,244.8-67.5,370.8-85.7c181.2-26.1,363.3-35.9,546.2-32.1c196,4.1,390.5,22.1,582.2,64.2c94.7,20.8,186.9,49.6,274.3,92
	c29.2,14.1,57.1,31.4,84,49.6c49.4,33.4,75.8,81.9,88.2,139.6c26.6,124.3,53.7,248.5,81.5,372.6c40.2,179.2,81.7,358,121.5,537.3
	c5.1,23.1,16.6,34.9,37.2,44.3c101.4,46.2,196.5,102.5,276.2,181.9c58.4,58.2,98.7,126,113.1,208.5c12.6,72.1-3.6,138.3-38.1,200.7
	c-26.6,48-62.9,88.2-104.8,123.8c-81.3,68.9-173.9,118.5-270.5,161.6c-152.7,68-312.9,111.3-476,145.2
	C2567.3,3098.8,2293.9,3122.7,1967.7,3125.7z M1644.5,1605.3c-2.1,18.7-4.1,31.5-4.8,44.4c-1.9,35.8-3.3,71.7-4.8,107.5
	c-3.1,72.8-6,145.5-9.5,218.3c-0.8,15.6,4.1,24.7,17.4,34.6c16.8,12.6,33.2,29,42.8,47.4c30.8,58.8,16.2,115.8-40,153.7
	c-20,13.5-26.8,27.5-25.8,50.5c2.6,57.5,2.2,115.2,5,172.8c1.1,23.6,5.5,47.5,11.9,70.3c11.5,40.7,40.3,63.5,82.1,68.9
	c37.7,4.9,75.6,8.2,113.3,12.8c54.1,6.7,106.9,17.4,156.5,42c15.9,7.9,35.3,12.4,53,12.1c217.7-3.3,434-21.8,648.2-61.3
	c130.4-24,259.5-53.8,382.7-104.5c61.3-25.2,121.9-51.6,173.1-95.9c25.2-21.8,31.3-43.5,23.7-76.9
	c-67.1-292.2-132.1-585-197.9-877.5c-2.3-10.2-5.8-20.2-9.4-32.5c-8.7,3.8-15,5.5-20,9c-66.4,46.8-141.1,76.5-216,105.9
	c-30.3,11.9-30.2,11.7-25.9,44.9c9.9,77.6,20.6,155.1,29.2,232.9c6,54.8,0.2,108.8-22.9,159.5c-15.5,34-39.6,59.5-77.9,68.2
	c-54.6,12.3-103.7-8.1-134.5-56.5c-21.5-33.8-33.7-71.5-34.7-110.8c-1.4-56.3,1.3-112.8,3.1-169.2c1-32.1,3.8-64.2,6.1-100.9
	c-156.5,22-308,42.6-461,46C1954.2,1624.3,1801.1,1621.6,1644.5,1605.3z M1583.6,1984.5c0.9-6.4,2.1-11.6,2.3-17
	c4.7-114,7.3-228.1,14.8-341.9c4.3-65.9,14.4-131.7,25.8-196.8c9.9-56.7,40.4-103,87.9-136.3c34-23.8,71.5-40.8,112.3-50.4
	c74.4-17.6,148.8-13.9,223.5-2.7c43.1,6.5,86.7,11.6,129.7,2.7c33.9-7,66.7-19.1,100.4-27.4c23-5.7,46.7-12.2,70.1-12.3
	c136.8-0.6,248.3,103.2,258.2,243.4c4.2,59.4-0.5,119.4-1.5,179.1c-1.2,73.8-4,147.6-3.9,221.4c0,34.3,12.6,66.2,33.6,93.7
	c37.9,49.4,102,43.7,130.5-11.6c5.9-11.5,10.2-24.1,13.3-36.6c11-45.1,8.4-90.8,2.9-136.1c-7-58.2-17.4-116.1-23.1-174.4
	c-9.7-98.4-16-197.1-25.4-295.5c-11.5-121.1-66.9-213.5-178.2-269.7c-57.9-29.2-118.9-47.8-182-60c-96.2-18.6-193.6-26.4-291.5-29.5
	c-173.2-5.4-345.4,0.4-515,41.3c-70,16.9-138.7,37.7-201,74.3c-28.7,16.8-56.1,37.8-79.2,61.6c-30.2,31.1-29.6,61.8-4.4,97.1
	c12.6,17.7,27,34,40.6,51c17.1,21.3,25.3,45.2,21.9,72.8c-1.5,11.8-1.9,23.8-2.8,35.8c-3.5,48.7-9.8,97.5-10,146.2
	c-1.1,205.4,0.2,410.9-0.6,616.3c-0.2,57.5-3.6,115.1-7.6,172.6c-3.7,53.4-14.8,105.5-39.4,153.7c-32.6,64-94.2,98.5-165.6,93
	c-16.2-1.2-32.3-3.7-48.4-6.1c-57.9-8.8-115.6-21.6-174.8-15.1c-44.5,4.9-88.6,12.3-125.3,40.8c-27.9,21.7-30.2,47.5-5.1,72.1
	c14.6,14.3,31.2,28.3,49.5,36.5c50.4,22.6,101,46.1,153.7,62c197.6,59.4,399.8,92.6,606.3,96.1c117.4,2,234.9,2.6,350.8-20.4
	c31.7-6.3,63.2-16,93.1-28.4c33-13.7,38.1-36.7,15.1-64.7c-13.5-16.4-29.9-33-48.6-41.9c-31.1-14.7-64.3-27-98-33.6
	c-51-9.9-103.2-14.4-154.9-20.6c-79.7-9.6-128.9-40.1-146.7-143.2c-0.7-4.3-1.2-8.6-1.3-13c-0.6-33.7-1.1-67.3-1.5-101
	c-0.2-15.8,0-31.6,0-49.2c-23.6,10.3-26.5,47.8-60.2,38.2c-3.5-22.4,6.9-40,19.2-53.9c9.7-11,26.1-16,43-25.6
	c-0.5-6.7-1.3-17-2.1-27.4c-14.2-3.3-25.8-5.6-37.3-8.8c-52.6-14.3-89.8-60.1-92.4-113.4c-2.7-56.3,29-104.2,82.4-123.3
	C1551.9,1992.9,1567.7,1989.1,1583.6,1984.5z M635.4,2155.2c-2.3-1.2-4.6-2.4-6.9-3.7c-54.3,27.4-105.4,60-154.1,96.3
	c-40.3,30.1-76.6,64.3-103.7,107.3c-41,64.9-46.7,131.5-10.9,200.9c28.2,54.6,71.1,95.6,119.1,131.9c86.6,65.6,184,110.6,285,148.9
	c148.8,56.5,302.5,94.7,459.1,122.1c191.9,33.5,385.4,51.8,580,60.2c314,13.6,625.6-6.7,935-61.3c168.3-29.7,333.1-72.6,491.9-136.6
	c100-40.3,196.8-87.1,281.1-156c36.5-29.8,68.7-63.5,91.9-104.8c32.1-57.2,40.8-116.8,13.4-178.1c-10.5-23.6-23.4-46.8-39.1-67.3
	c-60.4-78.6-142.9-129.1-228.6-174.9c-2.3-1.2-5.9-0.2-11.5-0.2c1.5,8,2.8,15.3,4.3,22.4c11.9,54.1,23.1,108.4,35.9,162.3
	c6.5,27.4,0.7,51-13.5,74.5c-27.2,45.1-66.1,77.4-110.2,104.3c-73.7,45-152.9,77.7-234.8,104.3c-223.6,72.5-454.4,105.4-687.9,122.6
	c-71.5,5.3-143.2,8.9-214.8,12.9c-12.8,0.7-23.8,1.9-26.7,17.5c-5.4,28.5-25.5,45.5-49.9,56.3c-26.6,11.8-54.2,24.6-82.6,29
	c-71.8,11.2-144.1,22.2-216.5,25.7c-231.7,11.2-459.9-15.9-685.1-70.4c-88.8-21.5-176.4-46.8-257.9-89.5
	c-27.3-14.3-51.9-31.9-70.5-56.8c-26.1-34.9-27.2-69.3-3.9-106c6.3-9.9,12.7-19.6,20.8-31.9c-12.8-8.8-23.1-16.3-33.8-23.2
	c-35-22.6-65.2-50.4-91.1-83.1c-22.5-28.4-30.9-58.9-20.5-94.4c5.8-19.8,9.8-40.1,14.4-60.2C620.4,2222.5,627.9,2188.9,635.4,2155.2
	z M919.5,1396.4c-4.5,12.2-8.3,19.9-10.3,28c-18.1,76.1-36,152.2-53.7,228.3c-33.9,146-67.6,291.9-101.4,437.9
	c-17.6,76.2-35,152.4-52.5,228.6c-2.7,11.8-4.1,22.7,5.4,33.4c48.1,54.4,112.4,85,174.8,117.2c20.2,10.4,48.5,5.3,73.1,7.3
	c6.5,0.5,13,0.8,19.5,1.7c45.1,6.6,90.2,12.8,135.1,20.2c49.6,8.1,91-7.2,121.6-45.8c15.1-19.1,28.8-42.1,34.3-65.5
	c10.4-44.1,18.4-89.5,20.4-134.7c3.6-83.5,2.7-167.3,2.7-250.9c0.1-135.8-0.8-271.6-0.6-407.4c0-41.6,0.8-40.8-39.3-51.4
	c-96.9-25.7-191-58.4-276.9-111.4C955.2,1421.8,939.6,1410.2,919.5,1396.4z M2777.6,1239.1c51.2-16,98.4-34.5,142.2-60.8
	c17.6-10.6,34.9-22.4,50.3-35.8c39-33.9,41.1-68.6,5.7-107c-13.8-14.9-30.7-27.6-48-38.5c-58.4-36.8-122.9-60.1-188.4-80
	c-169.3-51.7-343.8-72.8-519.6-85.2c-142.2-10-284.4-10.2-426.7-1.4c-159.7,9.9-317.8,30-473.3,68.2c-85.6,21-169.7,46.7-247.5,89.4
	c-27.7,15.2-54.3,32.3-73,58.8c-21,29.7-22.1,56.7,2.5,83c19,20.3,41.4,38.6,65.2,53c56.1,33.9,117.8,55.1,180.7,72.7
	c5.3,1.5,11.3,0.2,21,0.2c-7.5-10.1-12.4-17.1-17.6-23.7c-40.2-50.8-39-101.9,1.8-158.4c22.7-31.4,53.5-54.9,88-71.1
	c47-22,95-43,144.2-59.4c135.1-45.1,275.4-62.5,417-63.7c108.5-1,217.1,5.1,325.5,11c111.3,6.1,219.5,28.8,322.1,74
	c94.4,41.7,164.6,108,202.5,205.5C2760.8,1191.2,2768.1,1212.7,2777.6,1239.1z M1651.3,1559.5c3.9,1.2,7.8,2.8,11.9,3.4
	c10.7,1.6,21.5,3.5,32.3,4.1c235.5,14.3,470.8,16.2,705.5-12c47.4-5.7,94.5-13.3,141.6-21c24.6-4,29.5-8.2,27.3-27.9
	c-5-43-10.3-86.1-19.2-128.4c-6.9-32.7-14.9-34.4-49-30.1c-86,10.9-172,22.8-258.4,30.6c-148.4,13.3-297.2,9.3-445.9,5.4
	c-29.3-0.8-58.6-2.4-87.8-4.8c-18.4-1.5-29,5.9-32.5,23.7c-9.6,48.9-19.1,97.8-28.4,146.7
	C1648.1,1552.1,1650.1,1555.4,1651.3,1559.5z M969.6,1173.9c-3.4,12.3-6.3,21.5-8.5,30.8c-7.7,33.8-14.7,67.9-22.8,101.6
	c-10.3,43.1-10.3,42.5,26.5,68.9c92.5,66.3,198,102.3,306,132.4c4.9,1.4,10.4,0.2,17.4,0.2c6.7-62.7,13.4-124.5,20.3-189.1
	c-10.4-3.1-20.6-6.2-30.7-9c-32.3-9.2-65.4-16.4-96.9-27.8c-69.3-25.2-139.6-48.9-195.5-100.5C982.6,1178.6,978,1177.7,969.6,1173.9
	z M3012.6,1167c-69.2,62.4-151.3,88.9-233.1,122.3c7.7,59.4,3.7,118.8,16,178.8c11-3,19.6-4.3,27.4-7.7
	c45.8-19.7,91.9-38.8,136.9-60.3c23.4-11.2,44.8-26.5,66.8-40.3c20.2-12.7,24.6-29.8,18.2-53.2c-9.7-35.5-15.9-72-23.8-108
	C3019.3,1190.1,3016.7,1181.9,3012.6,1167z M2491.2,1304.7c-4.1-6-5.3-9.3-7.6-10.9c-57.2-40.1-117.7-65-188.6-39.2
	c-12.2,4.4-24.7,8.3-36.9,12.9c-40.1,14.9-81.7,22.9-124.4,20.8c-45.5-2.3-90.9-6-136.2-10.6c-57.7-5.8-115-6.8-171.1,10
	c-31.6,9.5-63.1,20.5-87.9,46C1989.3,1346,2239.1,1347.9,2491.2,1304.7z M1601.4,2033.6c-22.4,0.9-41.1,20.6-40.3,42.6
	c0.7,19.2,21.5,35.5,43.5,34.1c23.8-1.6,39.7-18,38.2-39.4C1641.3,2049.5,1622.7,2032.8,1601.4,2033.6z"/>
<path d="M2196.2,2112.3c-0.8-66.1,53.3-123,117.6-123.8c68.6-0.9,128,56.2,127.5,125.6c-0.5,72.7-52,123.3-119.4,125.1
	C2252.4,2241.1,2197,2183.3,2196.2,2112.3z M2338.2,2067.2c-0.3-22.9-14.1-37.4-35.8-37.7c-26.5-0.4-46.3,18.1-46.7,43.7
	c-0.3,21.7,14.9,36,37.4,35.2C2320.5,2107.2,2338.5,2090.8,2338.2,2067.2z"/>
<path d="M1948.9,2325.5c-60.1-4-108.9-41.6-122.6-97.8c-1.8-7.2-2.7-15-2.2-22.4c0.8-10.6,6.2-18.5,18-19.6c11-1,19.2,3.5,23,13.9
	c2.9,8.1,4.1,16.8,6.7,25c11.4,35.1,37.1,54.6,72,54.8c40.2,0.2,67.5-18.5,79.3-54.5c2.7-8.2,4.3-16.8,6.9-25.1
	c3.7-11.4,10.5-19.3,23.8-16.7c14.2,2.8,20.5,12.9,18.6,26.1c-6,40.3-21.9,75.9-59.5,95.5
	C1993.3,2315.2,1970.3,2318.8,1948.9,2325.5z"/>
<path d="M2491.8,2299.3c-0.2,9.7-11.2,16.5-21.4,13.3c-12.3-3.9-40.6-48.6-37.1-61.9c1.2-4.6,10.7-10.7,15.7-10
	C2460.7,2242.2,2492,2287.4,2491.8,2299.3z"/>
<path d="M2369.2,2277.7c13.4-18.2,25.5-17.7,34.8-4.6c9.9,14,17.7,29.7,24.8,45.4c1.9,4.2-2.2,11.2-3.6,16.9
	c-5.8-1.6-13.9-1.3-17-5.1C2394.6,2313.6,2382.4,2295.7,2369.2,2277.7z"/>
<path d="M2369.4,2346.7c-15.8,8.6-24.6,3-31-6.6c-7.1-10.7-13.6-22-18.6-33.7c-7.3-17.2-5-19.7,19.9-25.4
	C2350.8,2301.7,2368.5,2319.8,2369.4,2346.7z"/>
<path d="M1517.1,2274.4c-7.4,25.2-17.3,47.7-38.4,62.9c-4.1,3-15.1,3.3-17.5,0.4c-3.8-4.7-6.3-15-3.7-19.5
	c10.9-18.5,23.6-36.1,36.6-53.2c2.3-3.1,10.3-4.5,14.2-2.9C1512.2,2263.6,1514.2,2269.9,1517.1,2274.4z"/>
<path d="M1393.5,2312.2c5.3-27.6,22.5-48,41.3-66.7c9-8.9,22.5-1.7,23.1,10.6c0.9,19.2-34.6,59.4-54.7,61.3
	C1400.6,2317.6,1397.8,2314.6,1393.5,2312.2z"/>
</svg>
