<?xml version="1.0" encoding="utf-8"?>
<!-- Generator: Adobe Illustrator 24.3.0, SVG Export Plug-In . SVG Version: 6.00 Build 0)  -->
<svg version="1.1" id="Layer_1" xmlns="http://www.w3.org/2000/svg" xmlns:xlink="http://www.w3.org/1999/xlink" x="0px" y="0px"
	 viewBox="0 0 4000 4000" style="enable-background:new 0 0 4000 4000;" xml:space="preserve">
<path d="M2017.6,3279.9c-220.9,0.5-408.1-19.4-591.6-65.4c-70.5-17.7-138.2-46.2-207.2-69.7c-24.1-8.2-32.7-23.8-31.8-49.7
	c2-54.4,0-109,1.4-163.4c0.5-21.5-6.6-33.3-26.5-42.6c-166.8-77.3-313.5-183.5-444.2-312.3c-155.6-153.3-266.4-335.1-344.1-538.1
	c-61.2-160-95.4-325.8-106-496.5c-3.2-52.2-3.9-104.5-6.3-156.7c-1.8-40,15.5-70.6,48.8-89.9c28-16.2,57.9-31,88.9-40
	c61.6-17.9,124.2-32,186.8-46.3c20.2-4.6,34-12,45.2-31.6c50.9-89.4,125.2-153,222.5-187.3c26.8-9.5,42.4-23.7,54.2-50.1
	c46.1-102.9,126.1-170.7,231.3-208.3c117.7-42,237.4-39.8,357.1-9c23.2,6,40.5,3.1,60.7-10.1c119.5-78.5,250.5-125.2,393.1-139.8
	c148.3-15.2,291.7,4.4,429,61.5c121.3,50.4,227.9,123.2,313.9,223.5c11.2,13.1,22,13.8,36.9,12.9c125.6-7.9,248,6.7,365.1,55.2
	c115.9,48.1,208.7,124.6,278.4,229c7.3,10.9,14.9,21.6,21.1,33c11.2,20.8,27.6,30.4,51.3,34.9c65.4,12.3,128.8,31.6,188.8,61.6
	c52.7,26.3,76.5,65.7,73.6,125.8c-10.9,225.8-47.3,446-132.6,656.6c-136.3,336.6-363.3,593.7-678.6,773.1
	c-38.8,22-78.5,42.7-119.2,60.9c-21.9,9.8-27.7,22.8-27,45.3c1.6,52.3-0.5,104.6,1.1,156.9c0.7,24.4-8.7,38-30.3,47.6
	c-70.9,31.6-144.8,53.9-220.1,71.9C2331.9,3263.6,2159.9,3280.6,2017.6,3279.9z M345.9,1470.1c0,13.2-0.6,24.8,0.1,36.3
	c8.4,129.7,27.3,257.6,63.7,382.8c55.4,190.6,142.2,364.9,268.1,518.9c138,168.9,307.6,298,500.9,396.9
	c159.6,81.6,330.4,128.6,506.5,156.9c160,25.7,320.9,28.7,482.3,14c225.9-20.7,441.4-78,642.9-183.4
	c287.1-150.1,505.4-367.9,647.6-660.3c99.1-203.9,146.4-420.7,162.8-645.3c0.3-4.8-1.8-9.7-3.1-16.5c-10.5,3-18.7,5.5-26.9,7.8
	c-39.8,11-79.3,23.9-119.6,32.7c-138.6,30.1-279.5,45.8-420.6,56c-195.6,14.2-391.4,25.9-587.4,32.8c-297.4,10.4-594.9,10-892.4,1.1
	c-82.8-2.5-165.7-3.1-248.3-8.8c-183.6-12.7-367.1-27.4-550.6-42.5c-107.5-8.8-214.2-24.5-319-50.9
	C418.3,1489.8,383.9,1480.2,345.9,1470.1z M3406.9,1439.2c-0.5-10-0.1-14.4-1.1-18.5c-5.6-22.2-10.6-44.5-17.4-66.3
	c-61.9-200.1-195.1-328.5-395.2-386.2c-161-46.4-321.8-31.6-480,14.9c-152.9,44.9-286.7,125.9-406.2,230.1
	c-40.9,35.7-77.8,76.1-116.4,114.4c-7.9,7.8-16.2,16.4-7.4,28.2c18.8,25.1,38.1,49.7,58.7,76.4c7.6-6.7,14.1-12,20.1-17.8
	c42.4-40.7,82.5-84.1,127.4-121.8c145.5-122.2,309.4-206.3,500.2-230.3c107.4-13.5,213.6-6.7,315,34
	c144.2,57.8,236.6,162.6,276.8,313c3.9,14.5,7.8,29,12.4,46.1C3332.3,1449.9,3368.4,1444.7,3406.9,1439.2z M2665.9,2951.8
	c-467.6,165-931.5,151.4-1397.2-10.1c0,37.2-0.1,69.7,0,102.3c0.1,30.8,0.2,31,29.1,41.5c138.9,50.6,282.4,81.9,429,97
	c158.5,16.4,317.3,18.2,476.4,2.5c145.9-14.4,288.6-42.4,427.7-88.5c12.1-4,23.9-9.3,34.9-13.7
	C2665.9,3039,2665.9,2998.1,2665.9,2951.8z M3230,1462.7c0.6-7.2,1.3-10.5,1.1-13.6c-0.4-5.4-0.9-10.9-2.3-16.1
	c-38.3-145.2-123.8-247.8-269.5-294c-123.2-39-247.2-31.7-370.3,1.4c-121.6,32.7-229.3,93.2-329.3,168.5
	c-62.8,47.3-119.7,101.1-172.2,159.6c-8.3,9.3-14.2,18.7-8.7,32.3c6,14.5,16.8,18.6,31.1,18.5c25-0.2,50.1-0.9,75.1,0.3
	c19.2,0.9,31.6-6.5,44.7-20.6c93.5-101,199.8-184.5,330-233.6c65.7-24.8,133.4-41.2,204.2-35.4c129.1,10.6,228.3,66.7,280.9,190.5
	c8,18.8,13.7,38.6,21.5,60.9C3120.9,1475.1,3174.5,1469,3230,1462.7z M1374.9,966.8c32.9,9.8,63.5,17.4,92.9,28.1
	c16.3,5.9,25.9,1.1,37.7-9.1c33.6-29.3,66.9-59.3,102.9-85.4c171.7-124.3,360.8-173.1,570.9-128.7c100.9,21.4,192,63.6,272.1,128.2
	c16.9,13.6,30.4,16.3,50,10.9c33.5-9.2,67.7-16,101.5-24.1c3.7-0.9,6.8-4.1,12.6-7.8c-10.3-10.9-18.4-21.1-28-29.4
	c-222.2-192.9-476.7-253.9-760.7-178.8c-177.5,46.9-322.4,149.4-445.7,283.8C1379.1,956.8,1378.3,960.1,1374.9,966.8z M644.6,1450.9
	c41,5,76.5,9.1,111.9,13.9c15.9,2.2,22.7-7.2,30.7-18.6c98.6-139.4,236.1-200.5,403.4-185.8c188.9,16.6,346.5,101.7,476,239.7
	c7,7.5,16.8,16.7,25.8,17.2c37.5,1.9,75.2,0.8,116.1,0.8c-3.4-7.2-4.4-11.4-6.8-14.4c-26.4-31.8-50.7-65.9-80.1-94.5
	c-133.8-130.2-292.5-213.5-476.9-246.4c-123.6-22.1-242.6-9.3-356.3,46.1c-98.7,48.1-177,117.8-231.1,213.8
	C653.2,1430,650.3,1438.1,644.6,1450.9z M2010.6,1522.1c0.8-6,2.1-8.7,1.3-10c-10.7-16.3-21.8-32.4-32.7-48.6
	c-130.9-196.4-307.8-332.7-533.4-403c-52.6-16.4-108.2-23.2-162.5-34.2c-23.2-4.7-28.8-13-17.8-33.3c7.6-14,19.8-25.6,30.1-38
	c6.3-7.6,17.6-12.4,15.4-25.5c-83.1,3.9-153.2,64.5-170.7,148.1c7.9,2.2,15.9,5.4,24.1,6.6c114.9,16.6,225.1,48.3,330.1,98.8
	c127.3,61.2,240.3,140.5,328.8,251.9c18.3,23,34.7,47.4,53,70.4c5.6,7,14.4,15.9,22.1,16.2
	C1935.9,1523.1,1973.6,1522.1,2010.6,1522.1z M2417.4,937.6c-134.9-92.1-278.3-137.3-436.8-124.6
	c-154.1,12.3-378.2,126.3-424.2,210.7c36.8,18.3,73.5,36.5,109.9,54.6c32.2-24.8,62-50.2,94.3-72c91.9-61.9,192.1-97.8,304.7-85.5
	c69.9,7.6,136.7,27.4,197,64.7c20.2,12.5,36.6,12.5,56.9,0.5c23.3-13.7,48.9-23.6,73.5-35.2C2399.3,947.7,2405.5,944,2417.4,937.6z
	 M3007.9,1485.5c-35.2-126.4-125.6-186.5-229-196.9c-44.6-4.5-89-0.6-132.7,10.7c-134.7,34.6-244.1,111.4-343.4,205.2
	c-2.5,2.4-2.8,7.1-4.1,10.7c50.8,0,99.6,0.7,148.4-0.6c9.8-0.3,21.3-6,28.7-12.8c40-36.8,87.4-60.7,136.8-81.1
	c42.9-17.8,87.8-24.5,134.1-21.9c46.3,2.6,83.8,21.2,109.8,60.7c7.7,11.7,15,23.7,23.4,37.2
	C2921.7,1492.9,2963.5,1489.3,3007.9,1485.5z M1592.6,1514.3c-1.8-4.4-2.1-6.7-3.4-8.1c-4.3-4.9-8.7-9.8-13.6-14.1
	c-64.4-56.4-134.9-102.9-215.2-134.2c-70.7-27.6-142.9-46.2-219.7-42.4c-105.9,5.2-197.1,42.7-269.3,121.9
	c-8.9,9.8-15.7,21.5-26.2,36c49.4,5,92.4,10.5,135.6,13c10.2,0.6,22.5-7.1,31.1-14.3c25.4-21.2,52.5-38.6,84.2-48.7
	c53.5-17.1,107.3-16.1,161.1-2.3c58.7,15.1,112.3,40.9,161.8,75.9c11.1,7.9,25,15.9,37.9,16.5
	C1501.4,1515.5,1545.9,1514.3,1592.6,1514.3z M1446.5,787.7c-7.1-3.5-9.9-5.4-12.9-6.3c-4.1-1.3-8.4-2.2-12.7-2.8
	c-68.5-10.3-137.4-10.5-204.3,7.1c-115.7,30.5-207.9,92.8-257.4,206.8c-8.7,19.9-18,39.7-24.9,60.3c-6.1,17.9-9.2,36.8-15.2,61.2
	c55.2-9,103.8-17,150.5-24.6c2.4-5.4,3.5-7.3,4-9.4c1.3-5.3,2.4-10.6,3.4-16c19.4-100.9,81.6-160.8,179.8-183.7
	c27.3-6.4,56.2-5.4,84.2-9c11.4-1.5,25.3-3.1,33.1-10.2C1398.7,838.8,1421,813.9,1446.5,787.7z M2230.9,1035.4
	c-169.2-105.1-373.7-65.6-504.2,78.4c20.1,14.7,41,28.2,59.8,44.1c14.4,12.2,26.5,12.3,40.3,0.7c4.1-3.5,8.8-6.3,13.4-9.2
	c83.6-52.1,172.6-74.9,270.7-50.9c9.5,2.3,22.5,0.8,30.6-4.1C2171.2,1076.6,2199.4,1056.5,2230.9,1035.4z M349.5,1373.8
	c71.2,40.7,146.3,51.6,222.9,65.2c3.5-45.3,6.7-86.3,9.6-127.3c0.4-5.2-0.7-10.5-1-15.7C527.6,1297.9,376.8,1346.7,349.5,1373.8z
	 M659.2,1304c53.3-65,122.1-110.5,193.1-152.9c52.3-31.2,52.5-30.8,50.1-91.1c0-0.9-1.1-1.9-2.9-4.8
	C771,1090.1,693.3,1175.1,659.2,1304z M2064.2,1156.3c-55.9-20.8-168.5,10.6-205.7,56.7c24.3,22.3,48.7,44.6,75.6,69.2
	C1975.7,1241.9,2019.6,1199.5,2064.2,1156.3z M3623.6,1371.5c-55.6-30.7-108-46.6-166.8-59.8c9.7,41.2,18,76.5,26.7,113.8
	C3530.7,1409.4,3577.2,1402.9,3623.6,1371.5z M2579.1,1501.9c0.4,2.7,0.8,5.4,1.2,8.1c76.1-2.9,152.2-5.8,232.9-8.8
	c-5.9-10.4-8.2-17.5-13-22.4c-20.3-21-46.4-28.4-74.4-25.8C2673.1,1457.9,2625.1,1477.3,2579.1,1501.9z M1306.5,1506.8
	c0.3-2.2,0.6-4.4,0.9-6.6c-76.7-36-189.3-45.3-215.7-3.4C1164.5,1500.1,1235.5,1503.5,1306.5,1506.8z"/>
<path d="M1461.1,2425.4c-76.6,0.1-140-61.4-138.9-138.7c1.1-80.1,51-147.9,143.7-148.2c73.3-0.2,138.8,66.9,138.9,140.9
	C1605.1,2360.5,1541.3,2425.3,1461.1,2425.4z"/>
<path d="M2456.8,2425.5c-62.4,5-137.4-53-138.6-139.8c-1.2-83.1,62.3-148,141.8-148.2c75.7-0.3,140.2,65.3,140.5,142.7
	C2600.6,2363,2539.2,2425.2,2456.8,2425.5z"/>
<path d="M2144.7,2303.7c37.7-4.3,46.5,2.4,46.6,33.7c0.2,76.9-55.6,155.1-147.1,146.5c-19.7-1.8-38.8-11.8-57.5-19.8
	c-9.7-4.1-17.7-12.1-27.1-18.8c-7.2,4.6-14.1,7.9-19.8,12.6c-65.7,55-179.4,30.1-205.9-77.9c-4.5-18.5-3.8-38.7-3.3-58
	c0.3-14,10.4-21,24.3-21c12.8,0.1,19.9,8,22.5,19.7c2.9,12.7,4.4,25.7,7.6,38.4c5.4,21.5,15.2,40.3,33,54.8
	c36.5,29.8,78.8,22.1,100.7-19.9c6-11.4,9.2-24.3,13.2-36.7c3.6-11.4,9.2-19.3,22.6-19.5c13.3-0.2,19.6,7.2,23.4,18.6
	c2.4,7.2,4.8,14.4,7.6,21.5c12.9,33.5,37.1,52.7,67,53.3c30.6,0.7,60.4-19.3,73.1-50.8c5.6-14,8.7-29.1,12.4-43.8
	C2140.6,2326.3,2142.3,2315.6,2144.7,2303.7z"/>
<path d="M2629.5,2613.9c-44.8-3.4-87.1-11.7-127.2-30.4c-18.6-8.7-32.6-21.6-37.3-42.5c-6.3-28.4,2-47.1,27.3-63.9
	c31.1-20.6,66.9-25.2,102.5-29.1c48.1-5.4,95.7-1.5,141.2,16c16,6.1,31.9,14.7,45,25.5c24.1,19.8,27,49.8,4.8,71.5
	c-15,14.6-34.6,27.4-54.5,33.3C2698.4,2604,2663.5,2607.6,2629.5,2613.9z M2628.4,2581.5c33-6.1,66.3-11,98.9-18.8
	c12-2.9,23.3-11.3,33.5-19.1c11.7-9,12.5-22.3,0.6-30.4c-16.7-11.3-35-24.6-54-27.5c-37.3-5.7-76-8.3-113.5-5.5
	c-27.4,2-55.5,11.6-80.5,23.7c-29.8,14.4-28.3,32.9,0.8,49.1C2549.4,2572.4,2588,2578.1,2628.4,2581.5z"/>
<path d="M1299.5,2443.1c31.3,5.9,67.6,11.6,103.3,20.2c14.3,3.5,28.1,12,40.1,20.9c27.6,20.5,31.4,54.7,7.1,79.3
	c-12.5,12.7-29.2,23.6-46,29.3c-74.3,25.4-149.4,26.4-223.9,0.1c-12.1-4.3-24.2-10.5-34.3-18.4c-30.5-23.6-32.8-62.7-2.9-86.8
	c16.4-13.2,37.1-23.2,57.5-28.6C1230.7,2451.3,1262.4,2448.8,1299.5,2443.1z M1298.7,2475.9c-46,1-84,3-118.4,22.4
	c-13.2,7.5-28.8,14.9-28.8,32.4c0,18.3,17,23.3,30.5,29.8c6.8,3.2,14,5.9,21.3,7.9c65.8,17.8,131.2,14.8,195.6-6.6
	c16.4-5.4,35.7-13.4,37.2-32.4c1.7-20.3-18.5-27.3-34-34.4C1366.9,2478.6,1329,2476.2,1298.7,2475.9z"/>
</svg>
