<?xml version="1.0" encoding="utf-8"?>
<!-- Generator: Adobe Illustrator 24.3.0, SVG Export Plug-In . SVG Version: 6.00 Build 0)  -->
<svg version="1.1" id="Layer_1" xmlns="http://www.w3.org/2000/svg" xmlns:xlink="http://www.w3.org/1999/xlink" x="0px" y="0px"
	 viewBox="0 0 4000 4000" style="enable-background:new 0 0 4000 4000;" xml:space="preserve">
<path d="M423.6,2500.8c-79.4-96.1-83-195.3-10.7-297c-4.6-6.8-8-12.8-12.4-17.9c-55.4-64.6-66-173.3-8.7-243.1
	c12.6-15.4,11.9-28.7,2.5-45.1c-35.9-63.2-29.9-124.9,10.2-183.7c10-14.8,12-26.8,2.2-42c-39.2-60.6-28.8-178.3,37.1-235.3
	c18.8-16.2,15.5-31.1,8.5-50.3c-21.6-59.1-18.8-119.5,15.9-170.4c24.4-35.8,32.8-64.3,21.5-107.6c-14.1-54.1,7.2-106,45.4-146.8
	c15.4-16.5,37.4-30.7,59-36.7c26-7.2,31.1-20.1,34.2-44.4c10-78.9,44.8-144.2,115.4-186c41.1-24.4,85.6-33.6,133.2-25.3
	c9.2,1.6,18.6,2.2,29.3,3.4c4.8-8.6,9.4-16.6,13.8-24.7c64.2-118.6,165.3-175.5,298.5-175.2c40,0.1,36.3,0.8,50.6-33.5
	c28.4-68,80.4-114.8,146.4-143c129.6-55.4,254.7-41.3,371.6,36.6c23.2,15.4,41.6,38,64.1,59c5.1-8.7,10.5-17.5,15.4-26.5
	c16.7-30.7,37.9-58,67.6-76.4c110.9-68.5,228.7-88.3,353.1-43c63.5,23.1,112.6,64,139.8,128.4c10.8,25.7,12,23.8,42.5,22.9
	c39.6-1.2,79.4,5.6,112.5,26.7c29.6,18.8,46.3,10.6,69.7-10c87.5-76.9,219.1-74.5,305,3.8c46.7,42.5,70.7,97.5,78.9,158.9
	c3,22.4,9.8,34.2,32.4,43.3c70.6,28.4,105.4,85.8,112.7,159.3c2.4,24.3,9.5,39.4,32.1,48.9c10.4,4.4,21.5,12.8,26.8,22.4
	c13.5,24.8,33.3,26.8,58.9,27.5c99.8,2.6,186.9,99,182.8,199c-0.4,9.5-0.9,19-2.5,28.3c-2.8,16.7,2.9,28.4,15.1,40.6
	c17.3,17.4,34,36.8,45.8,58.2c31.8,58,29.2,118.5,3.5,178c-7.5,17.3-10.1,28.8,6.2,43c85.1,74.4,82.4,204.4,21.9,284.2
	c-5.7,7.5-10.6,15.4-16.6,24.3c5.1,8.4,9.7,16.4,14.7,24.3c50.9,81.2,50.4,163.3,2,244.7c-11.5,19.3-10.7,31.3,2.3,50.1
	c53.4,77.3,57.1,159.1,10.2,240.6c-13.6,23.7-13.6,40.4-0.8,64.5c36.9,69.4,31.6,139.8-8.8,206.1c-13.2,21.7-16.2,37.4-4,61
	c37,71.8,31.1,144.6-6.3,214.5c-10.3,19.2-26.9,35.9-43.2,50.9c-13.4,12.3-16.9,22.8-10.5,40.1c23.4,63,18.5,125.2-7.4,186.8
	c-25.1,59.6-67.9,98.6-129.9,116.7c-29.3,8.5-29.2,8.8-32.2,40.3c-12.5,131.1-128.6,222.4-259.3,202c-23.5-3.7-37.1,0.3-49.5,21.1
	c-41.4,69.3-169.3,98.7-239.2,62.7c-21-10.8-35.5-9.3-54,5.8c-63.1,51.2-164.4,58.5-233.8,16.8c-19.6-11.7-32.5-9.6-51,1.9
	c-70.5,44-143.4,43.5-215.2,3.3c-17.6-9.9-28.7-11.3-47.5-0.3c-84.5,49.3-171.2,50.2-255.7-0.2c-19.2-11.4-31.9-13-50.9-1
	c-78.3,49.7-194.1,45.2-268.4-8.6c-24.8-18-24.8-18-50.8,2.1c-82.4,63.8-223.8,56.5-299.1-15.5c-24.2-23.1-24.3-23.3-53.7-5.5
	c-82.2,49.7-164.9,53.1-248.5,3.6c-27.2-16.1-48.7-38.2-63.2-65.8c-11.7-22.2-26-29.5-51.2-24.3c-52.9,10.9-100.5-3.5-143.7-35.4
	c-36.7-27.1-62.3-61.2-71.4-106.5c-3.2-15.9-8.3-27.2-26.1-33.6c-77.1-27.7-122-104.4-112.4-188.4c0.7-5.9,2.1-11.6,3.1-17.5
	c2.1-11.6-1.8-19.6-11.4-27.4c-78.4-62.9-100.8-142.3-65.5-236.1c8.3-22.1,7.8-38.4-6.8-58.5c-55.4-76.6-56.6-163.1-6.4-242.7
	C413.8,2518.1,418.3,2509.9,423.6,2500.8z M3397.6,1434.3c17.7-23,33.2-40.8,46-60.3c36.8-55.8,41.6-147.4-52.1-185.5
	c-9.6-3.9-18.3-9.9-29.9-16.3c3.6-11.3,7.1-21,9.9-30.9c4.8-17,11.4-33.9,13.5-51.3c9-76.7-52.6-130.6-127.1-111.9
	c-4.6,1.1-8.8,3.4-13.4,4.6c-31.3,8.6-34.1,7.4-52.9-18.8c-5.9-8.3-12.8-15.9-21.7-26.7c-6.7,14.7-10.9,25.7-16.5,35.9
	c-18.6,34.1-35.8,69.3-57.3,101.6c-16.1,24.2-29.7,47-30.3,77.5c-0.6,28.8-11.5,36.3-41,36.6c-17.7,0.2-35.6-1.2-53.2-0.1
	c-40.9,2.7-72.4,20.2-88.5,60c-3.5,8.8-7.3,17.6-12,25.8c-11.3,19.7-19.3,22.8-40.8,15.4c-13.4-4.6-26.3-10.7-39.5-15.9
	c-41.7-16.3-79.1-8.8-111.6,21.5c-10.3,9.6-19.1,21-27.5,32.4c-9.6,13-20.5,14.8-33.7,6.5c-7-4.4-13.6-9.6-20.9-13.5
	c-54.9-29-108.9-28.1-161.2,6.6c-15.5,10.3-30.8,31.2-45.1,30.2c-16.8-1.1-32.9-20.1-48.5-32.3c-43.6-34-90.3-39.2-139.7-15.1
	c-15.8,7.7-30.5,18-44.8,28.4c-13.5,9.8-25.6,11.2-38-1c-4.2-4.1-8.6-8.1-13.2-11.9c-55.1-46.5-105.6-49.5-165.1-9.2
	c-14.6,9.9-28.4,20.9-45,33.2c-11.2-9.4-21.5-18.6-32.4-27.3c-30.2-24.2-61.5-43.6-103.6-34.6c-29.8,6.4-55.3,19.6-79.2,37.8
	c-22.8,17.4-27.5,16.2-47-5.5c-9.5-10.6-18.6-21.5-28.4-31.7c-32.5-33.6-70.5-41.8-113.2-22.4c-14.9,6.8-28.9,15.8-42.8,24.7
	c-9.7,6.3-18.5,14-26.8,20.4c-5.9-2-9.9-2.4-12.4-4.5c-8.1-6.8-15.6-14.3-23.3-21.6c-72.1-67.8-166.2-64.6-223.9-7.8
	c-5.8,5.8-12.5,11-19.6,15.1c-19.7,11.4-27.9,10.2-43.3-6.7c-11.2-12.2-21.5-25.2-31.9-38.1c-42.5-52.4-94.8-72.6-160.6-49.4
	c-1.1,0.4-2.3,0.6-3.5,0.8c-29.3,6.4-30.7,5.4-44.1-20.6c-10.9-20.9-21.8-41.9-34.9-61.5c-13.9-20.9-34.7-33.2-60.3-30.7
	c-41.1,4-71-10.9-90.6-47.3c-2.2-4.1-5.6-7.7-8.7-11.2c-16.5-18.4-29.8-20.5-48.8-4.7c-9.6,8.1-18.1,18.9-23.7,30.2
	c-20.6,41.6-6.2,78.1,19.2,112.2c6.7,9.1,14.1,17.6,22.6,28.1c-44.4,31.1-92.2,54.6-95,115c-2.6,55.4,30.5,94.6,63.6,137.9
	c-15.2,8.1-27.7,14.1-39.6,21.1c-14.1,8.4-29.5,16-41.3,27.1c-50.3,47.4-50.7,122.2-1.9,175.1c12.6,13.6,25.9,26.5,41.9,42.9
	c-13.1,8.8-22.6,15.2-32.1,21.6c-10.8,7.2-22.4,13.4-32.3,21.8c-33.1,28.1-40.4,68.5-17,105.2c10.6,16.7,26.1,30.3,39.9,44.8
	c7.7,8.2,16.3,15.5,27,25.6c-17.8,11.7-31.8,20.3-45.1,29.8c-59.2,42.3-67,120.6-16.2,172.9c14.7,15.1,33,26.7,49.6,40
	c10.6,8.5,21.2,17,35.8,28.8c-20.1,13.4-35.4,23.8-50.9,34c-65.5,43.2-79.5,128.7-28.7,188.5c15.8,18.6,37.4,32.3,56.4,48.2
	c9.3,7.8,18.8,15.3,30,24.4c-24.2,18.3-44.9,32.1-63.6,48.3c-59.2,51.4-61.3,129.6-5.1,184.2c12.7,12.3,27.8,22,41.4,33.4
	c6.8,5.7,12.8,12.3,25.4,24.6c-17.3,14-33.9,24.2-46.3,38.2c-33.3,37.4-37.8,81.5-16.1,125.3c12.4,25,33.3,39.2,57.8,49.7
	c15.8,6.8,31.2,14.3,48.7,22.4c-6.4,13.3-12.5,22.4-15,32.3c-6,23.8-14.3,48.1-14.6,72.2c-0.4,45.4,31.7,76.6,77,81.1
	c16.1,1.6,32.3,3.2,49.9,5c1.1,21,1.7,38.6,3,56.2c2.9,37.6,17.9,68,51.6,88c38.8,23,77,17.1,115.3-0.6c13.5-6.3,27-12.8,41.9-19.9
	c10.3,26.5,17.6,50.2,28.5,72.2c33,67.1,99.5,99,164,78.9c40.5-12.6,74.7-35.1,100.5-69.6c7.2-9.7,15.7-18.5,25.7-30.1
	c16.2,24.5,28.5,44.7,42.3,63.8c24.3,33.6,55.8,57.8,96.9,67.5c64,15,134.4-14.7,175.9-73.7c8-11.3,15.8-22.7,26.7-38.4
	c15.4,19.5,27.3,35.4,39.9,50.5c72.6,86.7,190.5,84.3,260-5c5.6-7.2,11.9-14,20.8-24.4c12.5,14,23.5,25.7,33.8,38
	c79.2,94.2,195.8,60,243.4-11.1c5.5-8.3,12.8-15.3,20.5-24.4c16.1,16.3,29.4,29.5,42.4,42.9c66.4,68.4,139.6,49.6,192.3-13.4
	c3-3.6,5-8.1,8.1-11.7c5-5.9,10.5-11.4,17.3-18.6c18.6,16.5,34.5,32.2,51.9,45.9c68.5,53.9,159.5,36.4,204.4-38.5
	c5.2-8.6,11.5-16.5,18.3-26.2c18.1,13.5,32.6,25.5,48.3,35.6c25,16.2,51.1,30.2,82.7,26.6c50.5-5.9,85.3-32.2,104.3-79.4
	c6-14.8,12.1-29.6,18.4-44.9c24.9,8.9,45.5,17.7,67,23.7c90.1,25.1,195.2-33.1,180.4-149.5c-1.8-14-5.5-27.8-8-41.7
	c-1.6-8.8-2.4-17.7-4.3-31.2c23.5,0,43.3,0.8,63.1-0.2c66.3-3.3,118.9-50,130-115.3c8.5-49.7-7.7-93.4-33.4-134.6
	c-6.5-10.5-12.4-21.4-19.9-34.4c18.4-9.3,33.2-16.2,47.5-24c61.2-33.3,108.6-110.4,52.1-195.9c-9.7-14.7-21.8-27.9-32.5-42
	c-5.4-7.2-10.1-14.9-16.4-24.2c15.6-12.9,29.3-23.9,42.6-35.4c32.8-28.3,48-64.2,43.3-107.3c-4-36.9-23.4-66.4-48.7-92.5
	c-8.7-9-16.8-18.5-26.9-29.7c14.8-12.2,26.8-21.5,38.3-31.6c51-44.6,63.5-116.3,27-172.9c-13.8-21.3-34.4-38.3-52.4-56.9
	c-8.5-8.8-18.2-16.6-29.4-26.8c16.8-14.8,30.2-26.1,43.1-38.1c69.8-64.8,70.8-151.7,2.4-218.4c-10.1-9.9-22.4-17.5-33-26.9
	c-6.5-5.8-11.8-13-19.4-21.6c20.4-14.1,38.7-24.9,54.9-38.3c64.2-52.9,72.3-137.7,18-193.5c-12.9-13.3-30.3-22.4-46-32.8
	C3426.1,1451.2,3413.9,1444.3,3397.6,1434.3z M1589.2,957.5c-6-15.3-10.6-27.2-15.4-39.1c-16-39.9-28.6-81-22.4-124.2
	c3.9-26.8-6.9-42.4-27.6-55.5c-73-46-145.1-93.5-219.1-137.8c-21.6-12.9-48.2-23-72.9-24.2c-90.4-4.2-163.9,30.1-213.1,108.4
	c-33.2,52.9-31.2,60.1,25.2,85.7c76.7,34.8,148.9,77,216.4,127.5c79.7,59.7,117.1,136.7,103.5,236.8c-1.2,8.6-0.4,22.5,4.8,25.9
	c17.7,11.9,34.3,28.5,62.1,28.1C1435.1,1079.5,1474.7,993,1589.2,957.5z M2114.7,1218.9c3-3.3,5-4.8,5.9-6.8
	c1.5-3.2,2.5-6.7,3.2-10.1c17.1-85.7,57.7-159.4,115.5-224.1c11.7-13.1,14-26.8,9.9-42.5c-12.9-49.1-25.5-98.4-39.4-147.2
	c-3.7-13-11.7-24.8-18.7-39c-13.5,7.8-23.9,13.3-33.7,19.7c-39.5,25.9-79.6,51-118.1,78.5c-71.2,50.8-141.2,103.2-212,154.5
	c-16.1,11.6-20.9,23.6-17.6,44.8c6,38.2,6.1,77.4,8.3,116.2c0.6,10.3,0.1,20.8,0.1,30.7c18.8,8,38,11.6,50.6,22.6
	c23.9,21,42.8,14.8,65.9-0.5c40.8-27.1,86.1-31.3,132.6-16.9C2083.7,1203.9,2099.3,1212.3,2114.7,1218.9z M2156.8,687.3
	c-21.7-13.4-35.8-24.1-51.4-31.5c-23.5-11.1-48-20-72.2-29.7c-53.8-21.5-107.8-42.4-161.3-64.6c-14.1-5.9-24.7-4.7-35.3,5.7
	c-67.4,66.4-135.5,132.2-201.8,199.7c-9.5,9.7-17.1,28.4-14.9,41c6.1,34.6,17.2,68.4,27.9,102c5,15.8,17.5,23,35,25.2
	c18.5,2.3,37.5,7.2,54.3,15.2c20.5,9.8,35.3,5.6,51.5-8.2c96.1-81.3,201.6-149.3,307.8-216.2
	C2114.2,714.8,2131.8,703.3,2156.8,687.3z M2322.9,920.5c34.8,0,65.4-1.3,95.8,0.4c20.8,1.2,32.3-7.4,42.6-24.3
	c35-57.5,71.1-114.4,117.8-163.7c6.4-6.8,10.9-18.9,10.4-28.2c-3-49.4-7.4-98.7-12.5-147.9c-0.9-8.5-4.9-18.7-11-24.4
	c-37.1-34.4-97.7-36.3-140.6-8.5c-63.4,41.1-127.9,80.4-191.9,120.5c-4.8,3-9,6.9-13.4,10.3c21.3,43.6,44.8,84.6,61.6,128.2
	C2298.9,828,2309.6,875.4,2322.9,920.5z M1796.1,495.5c-3.7-7.8-4.9-11.2-6.8-14.1c-61.6-93.9-201.9-138.6-308.5-97.8
	c-50,19.1-92.3,47.8-115.5,98.5c-22,48.1-18.7,58.7,24.5,86.9c62.2,40.7,127.1,77.4,181.2,129.7c15.7,15.2,20.5,13.3,37.6-4.7
	c52.9-55.5,106.1-110.9,159-166.4C1777.3,517.5,1786.2,506.7,1796.1,495.5z M1146.4,906c-7.1-5.3-11.3-9.3-16.2-11.8
	c-68.1-35.4-136-71.4-204.8-105.3c-17.6-8.7-38.2-13.7-57.8-15.4c-42.2-3.6-81.5,7.9-107.1,43c-39.8,54.5-41.1,115.2-21.9,180
	c10.8,0,18.9-0.5,26.9,0.1c15.3,1.1,30.9,1.1,45.7,4.5c42.2,9.6,75.2,32.6,97.3,70.8c7.3,12.7,13.5,27.3,33.5,27.1
	c29.1-0.3,58.2,2,91,3.3C1048.9,1027.8,1082.2,959,1146.4,906z M3024.2,714.9c-19.8,23.8-38.2,46.7-57.5,68.8
	c-50.6,58-101.9,115.4-152.4,173.4c-53.3,61.2-77.9,136.1-104.4,213.3c35.8,5.1,67.9,9.7,102.2,14.6c36.2-60,92.6-85.1,156.3-87.5
	c17.1-23.1,29-46,47-62.1c36-32.1,51.9-72.1,57.7-118.1c2.4-18.8,5.7-37.4,9.5-55.9c7.3-35.3-1.1-68.3-14.3-100.4
	C3060.6,742.5,3050.4,724.9,3024.2,714.9z M2373.2,477.7c-15.7-24.9-27.9-45.1-40.7-64.8c-27.3-41.9-66.1-66.6-115-75.6
	c-64.6-11.8-126.8-1.9-187.7,20.8c-56.5,21-85.9,64-99.1,120.2c-6,25.5-1.7,33.9,23.9,42.6c69.4,23.6,138.3,48.2,202.8,83.4
	c14.8,8.1,25.4,4.2,38.3-5.6c33.8-25.7,68.7-49.9,103.7-73.8C2322.6,508.9,2346.7,494.5,2373.2,477.7z M2660.2,671.2
	c27.6,7.6,53.3,12.4,77,22c24.9,10.1,49.9,22.1,71.1,38.3c19.9,15.1,34.8,36.8,54.6,58.4c23.1-26.2,44.4-49.5,64.5-73.9
	c4.7-5.7,7-15.2,6.8-22.8c-1.1-35.2-3.7-70.4-5.2-105.6c-3.5-81.4-79.5-141.8-155.7-122.9c-43.1,10.7-75.9,37.1-103,71
	c-4.9,6.2-9.4,14.7-9.6,22.2C2659.7,595.4,2660.2,632.9,2660.2,671.2z M2518.6,944.4c50.2,40.6,68.5,69.7,74.8,125.4
	c2.7,24.5,0.4,49.5-0.2,74.3c-0.5,18.9-3.5,37.9-2.1,56.7c0.5,7.1,9.4,18,15.7,19c6.5,1,16-6.6,21.6-12.8c4.3-4.8,4.5-13.2,6.6-20
	c34.7-115.1,75.3-227,159.6-317.2c5.8-6.2,8.4-20.5,5.5-28.4c-6.6-17.5-15.8-34.8-27.4-49.4c-36.3-45.8-100.6-48.7-141.9-7.7
	c-40.5,40.3-76.2,84.3-102.3,135.5C2524.5,927.8,2521.7,936.6,2518.6,944.4z M2196.8,1199.9c37.7,0,72.7-5.7,104.7,1.6
	c32.2,7.3,61.5,27.5,88.5,40.3c41.4-14.9,81-29.2,126.3-45.5c1.1-38,4.1-80.2,3.1-122.4c-1.1-42.7-24.5-68.6-66.6-74.5
	c-31.5-4.4-63.6-5-95.4-5.7c-26.3-0.6-47.2,10.7-64.4,31.2c-33,39.2-60.8,81.4-81.4,128.2
	C2205.2,1167.7,2201.9,1183.6,2196.8,1199.9z M1503.5,1168.1c64.8-14.5,113.9,9.8,156.9,49.9c28.9-10.5,56.2-20.4,86.9-31.5
	c-2.5-44.1-3.6-87.7-7.9-130.9c-2.7-27.2-12-34.3-39.2-36.1c-16.4-1.1-33.1-0.7-49.5,0.7c-87.6,7.5-126.7,42.2-144.9,127.6
	C1504.8,1152.2,1504.7,1156.9,1503.5,1168.1z M1286.7,1138.6c23.2-59.7-0.5-132-55.7-174.1c-21.1-16.1-25.9-16.3-45.9,1.1
	c-49.7,43.3-75.4,99-83.8,163.6c-2.5,19,7.7,32.4,20.3,42.8c11.3,9.3,24,2.1,36.6-2.7c26.3-9.8,53.2-18.4,80.4-25.4
	C1254.4,1140,1271.2,1140.2,1286.7,1138.6z"/>
<path d="M1367.9,2120.3c103.1,0.2,185.1,83.4,184.3,189.3c-0.9,121.8-102,187.7-187.4,187.8c-100.9,0.2-187.5-88-187-188.7
	C1178.4,2203.4,1262.4,2120.1,1367.9,2120.3z M1353.9,2308.6c44,0.8,72.1-22.5,71.8-59.7c-0.2-32.8-28.1-59.6-61.8-59.4
	c-35.6,0.2-65.1,26.8-66.3,60.1C1296.3,2282.2,1320.9,2308,1353.9,2308.6z"/>
<path d="M2611.4,2120.8c99.9,0.9,188.8,88,183.6,187.6c-6.2,118.2-83.2,186.6-186.9,187.8c-100.5,1.2-185.2-84.2-183.9-182.6
	C2425.7,2206.8,2510.1,2119.9,2611.4,2120.8z M2580,2312.8c38.9-0.3,66.1-26.4,65.8-63.1c-0.3-33.9-26.9-58.8-62.1-57.9
	c-37.6,0.9-70.3,29.9-69.3,61.4C2515.5,2287.1,2544.1,2313.1,2580,2312.8z"/>
<path d="M2169.2,2572.2c18.9-32,20.4-61.6,23.2-90.9c2.5-25.9,3.7-52,5.5-77.9c1.2-17.5,12.8-20.4,27.3-20
	c14.1,0.3,28.3,2.8,28,19.9c-1.9,112.4-14.3,222.1-112.8,296.9c-130.6,99.1-324.9,61.1-399.1-92.7c-30.1-62.5-38.7-128.8-37.6-196.9
	c0.3-22.4,7.7-28.6,27.1-28.7c20.6-0.1,26.9,5.9,28.3,27.3c1.9,29.5,2.1,59.2,6,88.4c3.1,22.9,10.6,45.1,17.6,73.3
	C1914.1,2486.2,2041.6,2492.2,2169.2,2572.2z M1817.4,2629.4c45.4,46.7,98.6,77.2,166.9,73.7c63.7-3.3,117.6-27,157.4-78.8
	C2051.1,2525.8,1860.2,2552,1817.4,2629.4z"/>
<path d="M2803.7,3253.1c-38.3,0.4-66.3-8.6-91.7-24.7c-21.8-13.9-36.4-33.8-42.2-59.1c-3.5-15.2,1-28.7,15.5-36.2
	c12.6-6.5,25.3-4.9,36,5.3c4.3,4.1,8.3,8.4,12.3,12.7c43.9,47,102.5,41.3,135.9-13.2c4.9-8.1,9.6-16.3,15.1-24
	c9.7-13.6,23.7-15.5,38-10.3c14.6,5.3,25,17.3,21.6,32.7c-4,18-9.9,37.1-20.5,51.8C2892.8,3230.9,2848.8,3251.5,2803.7,3253.1z"/>
<path d="M719.5,2517.1c0.4-61.4,17.1-98.3,51.2-126c9.4-7.6,23.2-13.6,34.8-13.3c9.6,0.2,22.5,8.8,27.4,17.4
	c3.8,6.7-0.3,20.2-4.5,28.8c-4.5,9.2-14.1,15.8-20.3,24.4c-32.6,45.2-20.2,99.7,28.6,126.7c7.2,4,15.1,6.9,22,11.4
	c11.2,7.3,22,16,17.5,31.4c-4.8,16.3-17.1,28-33.8,26.1c-18.3-2.1-38.1-6.6-53.3-16.2C742.6,2598.6,720.2,2554.6,719.5,2517.1z"/>
<path d="M1289,3181.3c-85,5.3-155.8-64.2-150.2-142.4c1-13.3,5.8-28.5,14-38.5c6-7.3,21.9-12.1,31-9.5c8.8,2.5,16.3,15,21.1,24.7
	c3.4,6.8,1.1,16.3,1.8,24.5c5,57.4,56.5,88.9,109.9,67.3c6.6-2.7,12.8-6.1,19.3-9.1c15.1-7,29.8-9.2,41.6,5.8
	c10.4,13.2,7.4,33.9-7.6,47.8c-19.8,18.4-43.9,27.4-70.7,29.4C1293.5,3181.7,1287.5,3181.3,1289,3181.3z"/>
<path d="M769.1,1739.7c19.4,3.7,33.1,10.2,39.5,26.1c6.7,16.8-2.4,29.7-15.2,39.9c-5.5,4.4-12.1,7.4-18,11.4
	c-44.1,30.1-49.9,86.1-13,125.5c7.3,7.8,17.5,14.3,21.1,23.4c3.9,9.8,5.7,24.4,0.9,32.6c-4.8,8.2-20.2,16.7-28.6,14.8
	c-16.3-3.7-34.4-11.3-45.7-23.1c-58.1-60.7-52.7-168.3,10.8-223.8C734.4,1754.6,752.9,1748.5,769.1,1739.7z"/>
<path d="M3259.7,2471.9c2.6-23.5-6-43.5-21.5-61.1c-5.5-6.2-13.7-10.9-16.6-18c-3.7-8.8-7-21.1-3.5-28.6
	c3.7-7.7,16.5-16.7,24.1-15.7c15.5,2,33,6.9,44.7,16.6c74.1,61.8,54.2,199.7-33.8,239.2c-10.5,4.7-22.4,7.4-33.9,8.4
	c-16.4,1.4-25.9-9.1-31.1-23.7c-5-14.1-1.1-25.5,11.2-33.9c6.8-4.6,13.9-9,21-13.1C3247.1,2526.5,3260.9,2503.6,3259.7,2471.9z"/>
<path d="M1447.1,1580.5c45.3,2.1,84.5,17.7,110.7,57.4c13.2,19.9,11.8,35.6-1.7,47.8c-13.6,12.2-27.6,11-47.2-4.6
	c-5.5-4.4-10.5-9.4-16-13.9c-36-29.7-84.6-23.4-110.9,15c-6.6,9.6-10.6,20.9-15.5,31.6c-5.8,12.8-14.7,22.6-29.5,20.9
	c-16.8-1.9-30-13-30.5-29.5c-0.4-15.7,2.7-33.5,10.2-47C1344.5,1607.8,1388,1581.3,1447.1,1580.5z"/>
<path d="M852.8,1418.2c30.6-0.1,58.3,9,81.7,28.5c9.7,8.1,18,18.7,24.6,29.6c8.1,13.4,6.5,27.3-5.8,38.4c-11.2,10.1-23.9,9.5-36,2.4
	c-8.1-4.7-15.7-10.6-22.4-17.1c-30.8-29.6-90-12.2-105.6,29c-3.3,8.8-6.7,17.7-8.8,26.8c-4,16.8-11.4,28-31.2,25.8
	c-19.1-2.1-32.6-14.3-34.4-33.9c-0.7-6.9,0.3-14.1,1.9-20.9C730.3,1465.8,789.8,1418.6,852.8,1418.2z"/>
<path d="M3272.7,1310.9c0.4,35.6-13.1,71.5-44.1,98.5c-11.8,10.3-28.1,17.3-43.5,21.3c-16.5,4.3-29.5-5.7-37-20.9
	c-7.2-14.7,1.5-24.6,11.5-33.7c7-6.3,14.6-12.1,21.1-18.8c31.6-32.7,27.6-79.4-8.8-106.9c-7.5-5.6-17.4-10.7-20.8-18.4
	c-4.3-9.7-5.9-22.4-3.5-32.7c2.8-12.4,14.4-17.1,27.7-17.1c21.3,0.1,38.8,8.7,54.3,22.3C3258.2,1229.5,3273,1264.4,3272.7,1310.9z"
	/>
<path d="M3028.2,2010.3c-1.3,35.5-12.2,67.7-37.5,92.9c-10.4,10.4-24.3,19.5-38.2,23.5c-9,2.6-25.1-2-30.5-9.1
	c-5.4-7.2-3.9-22-1.1-32.3c2.3-8.3,10.8-15.1,17.2-22c38-41,19.8-112.7-25.9-128.2c-5.5-1.9-10.5-5.3-15.8-7.9
	c-12.8-6.3-20.9-14.6-16.7-30.7c4.1-15.9,14.2-25.6,29.8-25.1c13.7,0.5,28.2,3.7,40.7,9.3
	C2994.7,1900.7,3030.5,1961.3,3028.2,2010.3z"/>
<path d="M1197.8,2733c-19.6-0.3-31.3-11.4-30.2-25.3c0.6-7.9,3.6-16.3,7.6-23.3c22.6-38.9,45.7-77.4,69-115.9c3-4.9,7-9.7,11.6-13.2
	c12-9.2,26.6-8,35.9,1.1c5.4,5.3,5.2,19.3,3.1,28.4c-2.3,10-9.2,19-14.8,28.1c-21,34.3-41.9,68.7-63.8,102.5
	C1211,2723.6,1201.9,2729.2,1197.8,2733z"/>
<path d="M2722.4,2730.6c-19.4,1.5-34.9-17-30.4-32.8c1.9-6.7,5.1-13.3,8.9-19.2c24.5-39,48.9-78.1,74-116.7
	c9.9-15.2,22.5-18.5,35.8-11.1c13.4,7.4,17.2,19,7.2,36.3c-25.5,43.9-52.4,87-79.4,129.9C2734.4,2723.3,2726.4,2727.3,2722.4,2730.6
	z"/>
<path d="M2604,2727.1c-22-1.4-33.9-15.8-31.1-32.3c1.2-6.8,3.9-13.8,7.7-19.6c24.4-37.6,49.1-75,74.1-112.3
	c8-11.9,18.3-18.8,32.7-9.2c14,9.3,18,21.5,9.3,36.4c-23.1,39.8-45.9,79.8-70.3,118.7C2620.9,2717.8,2609.3,2723,2604,2727.1z"/>
<path d="M1413.4,2583.2c-4.2,11.6-5.9,19.9-10,26.8c-21.5,36.5-43.6,72.7-65.5,109c-7.9,13.2-19.3,17.5-33,10.7
	c-13.3-6.6-17.3-18.5-14.4-32.8c0.5-2.3,0.9-4.8,2.1-6.7c24.7-40.1,48.9-80.5,74.8-119.8c4-6,17.6-11.7,23.2-9.3
	C1400,2565.1,1406.3,2575.8,1413.4,2583.2z"/>
<path d="M2940.4,2575.7c-2.2,9-2.2,14.2-4.6,18c-25.9,42-51.7,84.1-78.4,125.6c-6.4,10-18.3,13.3-27.7,5.4
	c-7.3-6.1-11.9-16.1-15.9-25.2c-1.4-3.2,1.5-9.3,3.8-13.2c25.3-41,50.3-82.3,77.3-122.2c4.2-6.2,19.2-9.9,27.1-7.6
	C2930.1,2558.7,2935.4,2570,2940.4,2575.7z"/>
<path d="M1083.4,2727.6c-19.4-0.5-32.2-14.4-31.3-29.3c0.5-6.8,2.9-14.1,6.5-20c22.3-36.3,45.1-72.3,67.9-108.2
	c2.5-3.9,5.7-7.7,9.4-10.5c10.8-8.2,22.1-7.4,32.8,0.2c10.3,7.3,11.6,17.5,7,28.4c-3.2,7.6-7.3,14.9-11.7,21.9
	c-20.9,32.9-41.8,65.9-63.4,98.4C1095.3,2716.6,1087.5,2723.1,1083.4,2727.6z"/>
</svg>
