<?xml version="1.0" encoding="utf-8"?>
<!-- Generator: Adobe Illustrator 24.3.0, SVG Export Plug-In . SVG Version: 6.00 Build 0)  -->
<svg version="1.1" id="Layer_1" xmlns="http://www.w3.org/2000/svg" xmlns:xlink="http://www.w3.org/1999/xlink" x="0px" y="0px"
	 viewBox="0 0 4000 4000" style="enable-background:new 0 0 4000 4000;" xml:space="preserve">
<path d="M3753.2,1926.6c0,352.5-1.4,704.9,0.9,1057.4c0.6,94.1-34,168.9-97.1,234c-81.2,83.9-181.1,139.1-287.1,183.8
	c-164.9,69.5-337.7,111.7-513.3,143.6c-211.5,38.4-425,55-639.6,64.7c-178.3,8.1-356.2,7.2-534.2-2
	c-194.9-10.1-388.5-31.8-580.6-67.2c-161.4-29.7-320.3-68.8-473.1-128.8c-110.5-43.4-215.9-96.9-303-180.6
	c-71.9-69-111.2-150.3-110.7-252.5c1.7-361.6,0.5-723.1,0.9-1084.7c0.3-343.4,2.5-686.7,1.3-1030.1
	c-0.4-104.5,42.5-185.2,117.5-252.8c86.4-77.8,188.9-128.5,295.3-171.4C793.8,374.3,964,331.7,1137,301
	c303-53.7,609-74.2,916.4-70.4c235.5,2.9,470.2,20,703.3,54.4c198.5,29.3,393.2,74.6,580.5,147.6c106.9,41.6,209.2,92.6,296.6,169.1
	c57.4,50.2,99.7,109.5,113.7,185.9c3.7,20.3,4.6,41.4,4.6,62.1c0.3,359,0.2,717.9,0.2,1076.9
	C3752.6,1926.6,3752.9,1926.6,3753.2,1926.6z M327.6,1060c-3.2,0.9-6.5,1.7-9.7,2.6c0,19,0,38.1,0,57.1
	c-0.3,241.9-0.9,483.8-0.9,725.6c0,383.6,0.5,767.3,0.3,1150.9c0,27.9,4.2,53.9,16.4,79.2c25.8,53.1,66.5,92.6,113.2,126.5
	c80.6,58.7,170.6,99.2,263.5,133.3c194.9,71.7,397.3,113.4,602.5,139.4c132.7,16.8,266.4,26.9,400,34.7
	c214.4,12.5,429,10.3,643.2-4.7c180.3-12.6,359.7-33.3,537.1-68.6c178.9-35.6,354.4-81.7,518.6-163.9
	c65.5-32.8,126.9-71.5,178.6-124c41.8-42.4,66.1-90.6,64.4-153c-2.9-107.9-1-215.8-1-323.8c-0.2-524.1-0.4-1048.1-0.8-1572.2
	c0-12.2-1.7-24.5-3-43.1c-15.8,11.9-25.6,19.8-35.8,27c-34,23.9-66.6,50.1-102.4,70.8c-130.5,75.4-272,123.1-417.3,159.9
	c-190.6,48.2-385,74.4-580.3,95.3c-218.9,23.4-438.3,30.5-658.2,23.7c-178.1-5.5-355.6-18-532.6-39.7
	c-218.6-26.8-433.7-68.7-641.9-141.8c-104.5-36.7-205.9-80.4-296.5-145.6C365.2,1091.4,346.7,1075.3,327.6,1060z M1995.6,330.3
	c-163.2-2.9-330.6,7.9-497.7,22.8c-172.4,15.4-343.2,40.5-511.6,80.7c-150.8,36-298.2,82.2-436.5,153.7
	c-67.3,34.8-131.2,74.9-181.5,132.7c-69,79.4-69.9,153.4-4,235c6.5,8.1,13.9,15.5,21.5,22.5c66.6,61.9,144.4,106.1,227.5,141.2
	c218.5,92.3,448.6,139.5,682.3,171.2c167.6,22.7,336,36.4,505,42.8c294.4,11.1,587.4-2.6,879.3-42.9
	c172.7-23.8,343.6-55.4,509.9-109.1c119.2-38.5,235.4-82.9,338.5-155.9c40.6-28.8,77.2-61.6,103.3-104.8
	c33.4-55.2,33.8-110.2,0.2-165.7c-24-39.5-55.1-72-92-99.6c-90.6-67.6-192.5-113.2-297.9-151.2c-236.4-85.3-482.6-124.2-731.3-149.4
	C2341,337.3,2170.8,329.2,1995.6,330.3z"/>
<path d="M1662.8,2415.1c23.3-2.5,42.4-6.3,61.6-6.4c141.5-0.6,283-0.7,424.5-0.3c22,0.1,44,3.7,66,4.9c15.6,0.9,23.5,9,25.9,23.7
	c1,6.4,3,12.8,3.2,19.2c2.3,101.5-11.3,198.6-66.6,287.5c-89.5,143.9-316.8,190.3-444.1,17.6
	C1657.8,2659,1645.8,2542.5,1662.8,2415.1z M1757.3,2710.7c49.3,57.5,102.9,101.5,180.5,104.2c70.6,2.4,128.1-27.5,176.8-76.3
	c24.3-24.4,23.8-36.9-3.5-56.2C2004.1,2606.8,1873.4,2606,1757.3,2710.7z"/>
<path d="M2433.7,2377.7c-0.3-104.8,82.2-173.5,168.9-171.5c100.2,2.2,169.4,72,169.4,175.2c0,97.4-74.7,167.7-172.7,166.5
	C2505.8,2546.8,2432.7,2471.7,2433.7,2377.7z"/>
<path d="M1313.5,2547.4c-97.9-1.2-174.5-78-173-173.5c1.5-92.5,76.7-168.2,166.3-167.4c93.9,0.8,175,80,174.2,170.1
	C1480.1,2469.9,1403.1,2548.5,1313.5,2547.4z"/>
<path d="M500.7,1782.9c3.6-60.7,25.1-111.4,72.9-149.5c17.3-13.8,36.4-18.9,58.1-15.9c16,2.2,25.6,12.3,29.7,26.9
	c4.1,14.3-2.8,25.1-14.5,33c-9.6,6.5-19.8,12.3-29.1,19.3c-51.9,39.5-56.6,109.7-10.5,156c8.2,8.3,19.7,14.7,24.5,24.5
	c5.2,10.4,7.5,24.4,5.2,35.6c-2.9,14.2-17.1,21-30.6,17.3c-16.9-4.6-35.3-10.3-48.3-21.2C519.4,1876.3,502.8,1832.1,500.7,1782.9z"
	/>
<path d="M746.7,2913.2c17.8-1.3,30.4,7,38.3,21.9c8.2,15.6-0.9,27.4-11.4,37.8c-15.9,15.6-30.3,31.5-32.9,55.5
	c-4.6,43.1,12.2,76,51.3,95.5c10.4,5.2,21.9,8.2,32,13.9c15,8.4,29.4,18.3,24.6,39.3c-4.1,17.8-20.1,30.2-41.8,25.3
	c-26-5.9-53.6-13.5-75.3-28.2c-71.2-48-87.7-155.5-37.1-224.8C707.2,2931.5,721.9,2914.6,746.7,2913.2z"/>
<path d="M3492.8,2779.2c-2.7,66.5-25.2,117.1-76.1,152c-12.5,8.6-27.7,13.9-42.3,18.6c-17.8,5.7-29.8-4-38.1-19
	c-8.2-15-3.7-27.8,8.5-38c7.9-6.6,17-11.9,25.5-17.8c55.8-38.7,63.5-112.6,16.8-162.3c-6.2-6.6-13.7-12.1-19.1-19.3
	c-9.7-12.9-8.9-26.7,0.6-39.6c8.7-11.8,21.8-17,34.3-10.9c17.1,8.4,34.7,18.2,47.8,31.6C3475.8,2700.1,3492.7,2749.9,3492.8,2779.2z
	"/>
<path d="M3503.9,1616.7c-0.7,63.6-21.1,106.4-56.6,140.9c-13.2,12.8-32.3,21.3-50.2,27c-16.4,5.2-29.6-5.7-37.5-20.9
	c-7.6-14.5,0.5-24.6,10.2-34.1c11.1-10.8,23.6-20.5,33.4-32.4c40-48.2,35.4-106.9-10.8-149.2c-4.8-4.4-10.2-8-14.8-12.5
	c-9.6-9.5-17.5-19.8-9.9-34.2c7.9-15.1,21-26.4,37.4-21.6c17.8,5.2,37.1,13.7,49.9,26.7C3487.8,1539.9,3503.1,1582.3,3503.9,1616.7z
	"/>
<path d="M2827.1,2648.5c-4.4,10.1-7,19-11.7,26.4c-26.2,41.5-52.3,83.1-79.9,123.7c-14.7,21.6-26.5,24.1-41.3,13.1
	c-14.6-10.8-16.2-23.5-3.4-44.2c25.8-41.7,52-83.3,79-124.3c13.2-20,29.3-23.9,45.3-12.2C2820.5,2635,2823.2,2642.6,2827.1,2648.5z"
	/>
<path d="M1121.1,2818.2c-20.2,0.5-33.9-12.5-31.7-27.5c1.6-11.2,5.8-22.8,11.9-32.3c23.5-37.2,48.1-73.7,72.7-110.3
	c4.3-6.4,9.1-14.8,15.4-16.8c8.8-2.8,20.7-3.3,28.3,0.7c5.6,2.9,8,14.7,8.7,22.9c0.5,5.7-3.2,12.5-6.6,17.9
	c-25.8,41.9-51.6,83.8-78.4,125C1135.5,2806.8,1125.9,2813.5,1121.1,2818.2z"/>
<path d="M2697.5,2650c-6.1,13.4-9.4,23.2-14.7,31.9c-22.3,36.5-44.8,72.8-67.9,108.8c-13.8,21.5-25.9,26-40.9,17.2
	c-14.7-8.6-18.6-24.2-8.8-44.4c7.4-15.1,17.2-28.9,26.3-43.1c18.2-28.4,36.4-56.7,55-84.8c7.3-11,18.8-16.3,30.1-9.3
	C2685.2,2631.6,2690.7,2642,2697.5,2650z"/>
<path d="M2946.1,2661.1c-4.8,12.4-6.9,21.5-11.6,28.9c-22.1,35.2-45,69.9-67.6,104.7c-8.8,13.5-17.6,27.3-37.1,16.8
	c-15.5-8.4-21.2-25.5-10.2-43.8c24.8-41.1,50.9-81.5,78.6-120.7c5.1-7.2,21.2-12.2,29.7-9.7
	C2935.9,2639.7,2940.6,2653.3,2946.1,2661.1z"/>
<path d="M1248.2,2812.3c-19.5,0.5-32.4-11.5-30.4-26.7c1.3-9.9,5.3-20.2,10.5-28.7c21-34.2,43-67.8,64.7-101.6
	c8.8-13.7,18.7-26.2,37.7-16.7c17.4,8.7,22.2,25.7,9.6,46.4c-23.6,38.7-48.7,76.4-74.2,113.9
	C1261.5,2805.7,1252.4,2809.3,1248.2,2812.3z"/>
<path d="M1000.7,2810.3c-21.4-1.2-33.8-17.4-30.3-33.8c1.8-8.6,6.2-17,10.9-24.6c19.6-31.9,39.6-63.6,59.8-95.1
	c4.8-7.5,10-17.4,17.3-20.1c9.7-3.6,23.2-4.5,31.9-0.1c5.1,2.6,5.1,17.7,4.8,27.1c-0.2,5.9-4.8,11.8-8.1,17.3
	c-21.9,36.6-43.5,73.3-66.3,109.3C1015,2799.2,1005.4,2805.7,1000.7,2810.3z"/>
<path d="M1986,535.6c149.9,5.4,293.6,15.1,433.9,52.8c82,22,161.9,49.8,229.2,103.4c23.8,19,45.4,43.1,61.6,68.9
	c37.7,60.4,29.2,126.5-19.5,179.1c-46.3,50-106.7,77.9-168.9,101.4c-102.7,39-210.4,56.3-319,69.1c-176.9,20.9-352.9,14-528.1-15.3
	c-109.2-18.3-217-43.2-314.4-98.5c-30.1-17.1-59.4-38-83.8-62.5c-57.6-58-60.1-132.1-10.2-197.6c32.3-42.4,75.4-71.1,122.9-93.6
	c79.2-37.5,163.2-60.8,249-75.6C1755.2,547.2,1873.1,537.8,1986,535.6z M1519.9,962.1c6.6,4.4,9.4,7.4,12.5,8
	c96.8,18.5,193.5,36.8,290.4,54.9c19.6,3.7,35.1-4.8,49.9-16.6c21.4-16.9,43-33.6,65.4-49.1c127.1-87.8,254.5-175.2,381.6-262.9
	c9.9-6.9,19.1-14.9,33.2-26.1c-14.7-3.8-21.9-6.4-29.3-7.4c-88.7-11.9-177.4-23.3-266.1-35.3c-30.4-4.1-56,4.7-78.5,25.4
	c-9.5,8.7-20.8,15.6-31.6,22.7c-133.1,88.2-266.3,176.2-399.4,264.5C1538.9,946.3,1530.6,953.7,1519.9,962.1z M1956,1028
	c13.5,3.4,17,5.1,20.6,5.1c125.2,1,249.2-11.6,371.7-36.5c23.7-4.8,48.8-12.8,68.4-26.3c65.4-44.8,129.1-92,192.4-139.7
	c31.8-24,32-38-1.8-58.1c-43.4-25.8-89.4-47.3-134.6-70c-21.6-10.9-39.2-1.1-57.4,11.4c-136.2,93.1-272.9,185.5-409.4,278.3
	C1991.2,1002.2,1977,1012.9,1956,1028z M1885.2,638.8c-1-2.8-1.9-5.7-2.9-8.5c-11.3,0.7-22.7,0.8-33.9,2.2
	c-48.9,6.1-97.9,11.4-146.5,19c-104.2,16.2-206.2,40.3-299.8,91.1c-17,9.2-33.7,19.9-48,32.7c-36.9,32.9-38.4,65.4-3.9,100.4
	c16.2,16.4,36.4,28.9,54.7,43.3c22.2,17.6,41,11.3,63-3.6c122.4-82.8,245.8-164.1,368.9-245.7C1852.7,659,1869.1,649.1,1885.2,638.8
	z"/>
<path d="M881.7,537c25,9.3,51.5,15.9,74.4,28.8c21,11.8,23.2,31.2,13.1,50.4c-7.6,14.4-18.9,21.2-35.1,16.8
	c-11.2-3.1-21.9-8-33.2-10.9c-51.1-13.1-90.7,13.4-98.1,65.5c-1.6,11.5-1.8,23.2-3.6,34.7c-2.1,13.6-8.3,27.2-23.2,26.9
	c-11.6-0.2-26.6-5.1-33.8-13.4c-8.5-9.8-15-25.9-14-38.6C734.4,619,774.5,546.8,881.7,537z"/>
<path d="M3293.1,752.2c-5.4,14.1-13.7,42.6-27.4,68.3c-5.5,10.3-21.9,18.5-34.5,20.6c-23.1,4-39.2-15.9-33.9-38.8
	c2.6-11.2,7.8-21.9,11.8-32.8c16-44.2,4.1-75.8-37.4-96.8c-11.5-5.8-24-9.6-36.2-13.6c-15.2-4.9-30.8-9.4-28.5-30.2
	c1.8-16.4,18.9-33.2,37-34.4c12.7-0.9,26.1-0.2,38.5,2.8C3242.6,611.9,3291.8,674.8,3293.1,752.2z"/>
<path d="M2716.2,1244.4c-24.3-7.9-49.5-13.9-72.6-24.6c-11.9-5.5-20.8-18.6-29.3-29.7c-8.7-11.4-9.3-26.1,1.9-35.3
	c9-7.4,22-12.6,33.7-13.4c9.2-0.6,19.4,6.1,28.5,10.8c49.2,25.5,81.8,18,113.2-26.8c5.2-7.4,9.9-15.2,14.5-23
	c9.8-16.4,24.3-17.9,40.5-12.8c18,5.8,27.1,19.3,24.5,38.8c-4.7,35.9-26.5,61.3-54.7,81.3
	C2789.4,1229.2,2750.7,1240.3,2716.2,1244.4z"/>
<path d="M1230.5,1181.6c-55.1-2-98.4-30.1-124.6-84c-10.7-21.9-12-45.2-4-68.2c6.2-17.7,23.6-29.2,38.5-27.2
	c17.7,2.4,21.7,16.6,25.5,30.5c2.1,7.5,2.7,15.3,4.3,22.9c8.9,43.6,35.6,61.6,79.1,52.7c11.4-2.3,22.3-7,33.7-9.7
	c16.3-3.8,31.8-2.3,40.8,13.9c9,16.1,3.2,33.1-9.5,42c-16.4,11.5-36.5,17.8-55.5,25C1251.9,1182.2,1243.4,1180.8,1230.5,1181.6z"/>
</svg>
