<?xml version="1.0" encoding="utf-8"?>
<!-- Generator: Adobe Illustrator 24.3.0, SVG Export Plug-In . SVG Version: 6.00 Build 0)  -->
<svg version="1.1" id="Layer_1" xmlns="http://www.w3.org/2000/svg" xmlns:xlink="http://www.w3.org/1999/xlink" x="0px" y="0px"
	 viewBox="0 0 4000 4000" style="enable-background:new 0 0 4000 4000;" xml:space="preserve">
<path d="M424.7,1038.3c-7.5-11.6-14.9-23.4-22.7-35c-26.2-39.4-41.2-81.9-39.3-129.9c4.3-107.8,96.4-183,202.2-162.5
	c27.6,5.4,53.9,17.6,80.7,27.1c10,3.6,19.7,8.2,31.9,13.4c6.2-13.1,11.1-23.8,16.4-34.4c23.9-47.2,55.7-86.6,105.9-108
	c76.5-32.6,160.9-6.8,202.9,65.1c14.7,25.1,22.8,54.2,32.6,82c4.3,12.2,5.3,25.7,8.3,41.3c121.2-6.3,233.6,17,330.5,103.1
	c7.1-13.2,13.7-23.8,18.7-35.1c49.8-111.2,114.5-212.3,201.8-297.9c32.2-31.6,67-59.9,107.5-80.7c87.9-45,175.1-41.4,262.1,2.5
	c55.1,27.8,98,69.6,135.6,117.6c6.5,8.4,13.1,16.7,21.6,27.7c24.6-23.4,45.3-45.9,68.9-64.8c23.8-19.1,49.4-36.6,76.2-51.2
	c26.8-14.6,56-24.8,87.1-38.2c-1.5-12.7-2.4-25.5-4.5-38c-8.8-52.6-8.1-104.8,7.2-156.3c18.9-63.5,56.6-110,123.6-123.2
	c67.3-13.3,122.5,13,167,63.4c12.2,13.8,22.8,29,35.7,45.4c12.7-9.6,24-17.8,35-26.5c38.4-30.4,82.1-45.1,130.9-46.4
	c94.2-2.6,149,68.5,154.4,146.4c1,14,0.1,28.2,0.1,42c10.9,4.5,18.8,8.4,27,11c101.9,32.9,129,148.9,80.9,232.6
	c-23.7,41.2-57.1,71.8-97.8,95.2c-9.4,5.4-18.9,10.7-29.3,16.6c15.7,39.4,35.1,76.6,45,116.2c9.9,39.8,10.4,82.1,15.3,126.3
	c141.4,15.7,263.8,72.1,352.7,186.1c88.5,113.5,119.5,244.6,100.2,388.7c12.8,5.5,23.4,11.1,34.5,14.8
	c46.4,15.3,88.7,38.3,125.8,69.8c70.2,59.5,102.9,135.1,92.1,227.4c-3.3,28-1.1,53.4,11.5,79.6c34.8,72.5,31.4,146.6,3.1,220.4
	c-7.4,19.4-15.3,39.2-26.6,56.5c-35.9,55.1-55.4,116.7-73.7,178.8c-71.2,241.9-141.9,484-212.8,726c-2.8,9.5-6.4,18.7-9,28.2
	c-33.6,124.3-115,209.5-223.3,272.5c-112.7,65.6-234.5,108.7-359.4,143.7c-118.3,33.1-237.9,60.7-359.9,76.4
	c-67.4,8.7-135.1,14.7-202.8,21.1c-157.6,14.7-315.4,16.8-473.4,8.5c-189.8-10-378.3-29.7-563.3-74.7
	c-153.7-37.4-304.8-82.6-445.7-156.6c-63.4-33.3-123.1-71.7-174.2-122.7c-43.7-43.6-74.7-94.8-92.1-153.6
	c-70.6-237.5-140.4-475.2-210.7-712.8c-21.8-73.6-43.9-147.1-67.1-220.2c-3.8-12-12.4-23.1-20.9-32.8c-75.6-85.8-84-206.1-20-301.2
	c11.9-17.6,20.5-35.5,21.6-57.5c4.4-90.4,47.8-160.4,117.5-214.9c19.7-15.4,42.3-27.4,64.3-39.7c26.5-14.8,27.5-15.9,20-46.2
	c-4.5-18.1-10.6-36.1-12.2-54.4c-2.4-27.1-2.7-54.6-1.7-81.8c0.6-16.9-3.5-27.7-20.9-31.3c-3.2-0.6-6.1-2.5-9.3-3.4
	c-113.5-31-159.2-177.7-65.5-276C365.8,1080.2,394.2,1062.5,424.7,1038.3z M482.5,1358.5c0,8.9,0.9,14.5-0.1,19.7
	c-13.8,65.3-4.8,128.5,14.6,191.4c10.4,33.9,9.5,34.7-22.8,49.1c-52.9,23.4-100.6,53.7-136.5,100.2c-26.6,34.5-49.2,72.1-47.6,116.6
	c1.3,36.7-11.1,64.7-31.7,93.5c-50.8,71.1-47.9,181.2,9.5,245.5c29.3,32.8,44.2,69.5,56,109.6c28.7,97.8,57.9,195.6,86.6,293.4
	c50.9,173.6,103.9,346.7,151.6,521.2c27.4,100.1,74.2,185.1,158.6,246.4c38,27.6,77.7,53.8,119.3,75.7
	c183.5,96.8,382.4,146.3,584.7,183c139.4,25.3,280.4,38,421.9,43.6c165.8,6.6,331.5,4.1,496.5-13.1c150.5-15.7,299.8-40,446.7-77.6
	c131-33.6,258.6-76.2,378.6-139.5c124.8-65.8,211.5-159.7,250-301.1c68.5-251.7,145.7-501,219.4-751.2
	c15.5-52.8,34.6-103.9,65.5-150.2c9.1-13.6,16.4-28.6,22.6-43.8c32.3-78.3,34.1-155.9-9.4-230.8c-9.7-16.7-11.3-33-7-50.4
	c27.4-109.4-36-204-116-245.3c-35.9-18.5-74-33-111.3-48.7c-23.6-10-23.4-10.6-21.5-36.6c2.6-36,6.6-72.4,4.4-108.3
	c-11.8-199.4-150.7-378.4-374.3-422.2c-29.6-5.8-59.7-9-91.4-13.7c13.1-98.9-8.7-187.5-61-268.9c-3.3-5.1-4.1-11.9-6.9-20.5
	c11.4-6.4,21.7-12,31.8-18c21.6-12.9,44.3-24.4,64.4-39.3c32.4-24.1,56.5-55,65.5-95.7c15.3-68.9-19.2-125.4-87.3-142.5
	c-9.6-2.4-19.2-4.6-29-6.1c-13.8-2.1-18.2-9.8-16.5-23.1c2.2-17.4,4.8-34.8,5-52.3c0.5-59.9-46.8-109.4-106.4-112.1
	c-37.4-1.7-71.8,8-102.6,29.2c-18.1,12.4-35.4,25.9-53.3,38.7c-8.7,6.2-17.7,11.8-29.4,19.6c-7.8-12.3-14.1-22.2-20.4-32.1
	c-21.7-33.8-48.9-61.9-85.3-80.1c-58.4-29.1-123-11-157.4,44.6c-15.9,25.7-25.1,54.2-25.6,84.1c-0.6,35,1.2,70.1,3.9,105
	c1.6,20.3,7.1,40.4,11.1,62.1c-11,3.9-19.9,7.7-29.2,10.2c-92.9,24.2-166.7,76.1-223.3,153.3c-6.2,8.4-14.5,15.4-24.2,25.5
	c-9.4-12.2-16.7-21.5-23.7-30.9c-43.7-58.7-93.7-110.4-159.5-144.7c-71.4-37.2-142.9-36.6-214.7-1
	c-58.1,28.9-104.6,71.8-146.7,120.2c-72,82.8-124.8,177.3-168,277.6c-6.3,14.7-13.9,28.8-23.4,48.2
	c-51.7-52.2-105.9-92.4-172.3-112.7c-66.9-20.4-135.3-20.7-204.6-10.5c-5.4-34.2-8.6-64.7-15.4-94.5c-8.8-38.1-24.7-72.8-59.6-95
	c-60.2-38.5-141-22.6-183.1,39.3c-18.9,27.8-31,60.2-46.2,90.5c-3.7,7.4-7.1,15-11.5,24.2c-8.9-5-15.1-9.1-21.9-12.2
	c-33.8-15.4-66.4-36.3-101.9-44.4c-90.4-20.7-174.6,27.9-168.7,143.1c0.8,16,5,33.2,12.4,47.3c15.8,29.9,34.5,58.2,52.5,86.9
	c5,8,11.9,14.9,20.8,25.7c-15.2,8.4-27.5,14.8-39.3,22c-24.3,14.8-50.6,27.3-71.9,45.7c-40.9,35.3-53.6,81.9-40.5,134.2
	c12.9,51.7,46.7,83.1,98.9,94.1C449.9,1352.6,465,1355.2,482.5,1358.5z"/>
<path d="M585,1632c-61-107.2-72-216.1-24.3-332.9c-16.5,0-28,0.6-39.4-0.1c-27.3-1.7-55.3-0.6-81.5-6.8
	c-53.5-12.8-72.5-63.5-39-106.5c17-21.8,40.6-39.9,64.2-54.9c35.3-22.4,74.4-37.4,116.1-44.4c8.1-1.4,16-4.4,28.3-7.9
	c-21.6-16.5-39.9-29.9-57.4-44c-42.9-34.6-74.5-77.8-89.7-130.9c-4.8-16.8-3.7-37.2,0.8-54.4c7.3-28.2,28.8-45.2,58.1-44.4
	c23.6,0.7,48.4,4.2,70.3,12.6c48.6,18.8,90.7,48.5,125.2,88.3c6.9,7.9,14.9,14.8,26.6,26.2c1.2-15.2,2.5-24.5,2.7-33.8
	c1.2-50.3,13.5-97.9,37.1-141.9c10.1-18.9,24-37.2,40.2-51.2c35.5-30.7,81-22.2,101.6,20.2c12.6,26.1,21.2,55.5,24.6,84.3
	c4.2,34.5,1,69.8,1,110.1c58.2-16.8,112.4-35.4,170-26.3c57.9,9.1,112.9,26.5,163.5,57.2c49.5,30.1,89.3,70.3,126.7,122.8
	c6.5-15.5,10.9-25.9,15.2-36.4c23.7-57.8,44.1-117.2,71.8-173c45.6-91.8,103-176.1,180.3-245.1c33-29.5,68.9-54.3,113.4-63.7
	c58.9-12.4,110.2,5.1,157.9,38.9c57.4,40.7,101,93.8,139.4,151.8c12.5,18.9,25,37.7,40.8,61.4c8.4-14.9,14.2-24.9,19.6-35
	c35.7-65.9,84.2-120.2,147-161.2c46.1-30.1,97.6-43.9,151.8-49c9.7-0.9,19.3-2.2,31.7-3.6c-2.4-8.7-3.4-16-6.2-22.5
	c-17.7-41.7-28.6-85.1-33-130.2c-3.3-33.4-0.7-66.1,11.9-97c23.4-57.8,74.7-68,120.2-25c31.2,29.4,50.4,65.9,63.4,106.1
	c6.7,20.7,13.3,41.3,22,68.4c10.6-13.9,18-22.8,24.4-32.3c25.4-37.6,54.6-71.7,91.3-98.4c16.7-12.1,34.9-23.2,54.1-30.7
	c47-18.3,85.2,9,81.6,59.9c-1.7,24.5-11.5,48.8-19.6,72.5c-6.6,19.4-16,37.8-26.4,61.7c25.7-1.9,46.1-2.8,66.5-5
	c26.6-2.8,52.7-1.8,77.3,9.8c35.8,17,45,43.9,24.4,78c-22.7,37.6-57.3,63.5-94.6,84.7c-24.6,14-51.6,23.9-77.6,35.5
	c-9.6,4.3-19.3,8.4-32.4,14.1c44.6,36,73.2,78,93.7,126.1c28.7,67.2,30.1,136.2,15.3,206.6c-2.6,12.4-3.7,25.1-5.9,40.5
	c13.6-0.7,23.2-0.4,32.6-1.7c63.4-9.2,124.6-1.3,183.9,22.7c182.2,73.7,266,224.7,264.6,390.5c-0.2,30.3-7.4,60.8-13.3,90.9
	c-6.2,31.9-6.9,34.1,23.2,47.7c29.9,13.5,61.1,24.4,91.2,37.4c24.1,10.4,48.8,20.2,71.2,33.8c74.4,45.1,97.2,117.4,63.4,197.9
	c-6.4,15.2-3.5,26.9,4.9,39.9c11.9,18.3,25,36.6,32.7,56.7c27.1,71.2,9.4,136-34.8,194.7c-16.2,21.4-27.8,43.8-35.4,69.6
	c-68.8,231.2-138.4,462.1-207.6,693.2c-15.7,52.5-32.8,104.7-46,157.9c-28.2,113.2-99.4,190.3-198.8,245.5
	c-102.3,56.8-211.2,96.9-323.5,127.9c-227.2,62.7-459.1,96.2-694.5,103.8c-184.4,5.9-368.7,3.1-552.1-19.3
	c-203-24.8-402.5-66.5-594.1-139.6c-87.3-33.3-171-74.4-245.4-132.2c-57.8-44.8-100.6-99.5-120.9-171.6
	c-29.8-105.5-62.4-210.2-93.9-315.3c-58.3-194.3-117.3-388.4-174.3-583.1c-9.2-31.4-22.5-56.9-45-81.2c-55.6-60-55.2-143.4,0.2-206
	c20.6-23.3,30.7-43.3,22.9-75.8c-7.9-33,7.3-64.8,26.2-92.6c39.3-57.6,96.6-91.2,159.3-117.1C544.5,1648.2,562.5,1641,585,1632z
	 M490.2,2347.8c-1.9,1.6-3.8,3.3-5.7,4.9c2.1,9.3,3.6,18.7,6.3,27.8c52,174.4,103.8,348.8,156.2,523.1
	c21.5,71.4,43.6,142.6,66.3,213.6c14.1,44,40.7,79.3,77.2,108c45.1,35.4,93.2,65.7,144.9,90.2c172,81.5,355.4,124.3,541.6,156.2
	c131,22.5,263.4,31.9,396.1,37.2c154.8,6.2,309.4,2.4,463.5-12.8c139.7-13.8,278-37.6,414.3-72c125.8-31.8,248.8-70.6,362.2-135.5
	c82.1-46.9,144.9-108.1,167.8-204.5c12.6-53.2,32.1-104.8,48-157.2c62.7-206.6,125.3-413.3,187.8-619.9c2.4-7.8,2.9-16.2,4.6-26.3
	c-47.2,6.4-91.3,12.6-135.5,18.4c-12,1.6-15.9,10.1-19.1,19.8c-6.9,20.8-12.6,42.1-20.9,62.3c-44.3,107.3-126.6,161.4-240.9,169.7
	c-43.1,3.1-85.5-1-126.8-14c-38.4-12-40.7-9.5-58.1,20.9c-3.8,6.6-8.5,12.8-13.1,18.9c-68.6,91.1-159.5,138.9-273.9,137.5
	c-74.4-0.9-141.8-25.6-202.9-67.8c-27.1-18.7-28.1-19-49.1,3.1c-33.2,34.8-72.9,59.6-116.9,77.8c-141.5,58.2-270,37.1-385.2-63.9
	c-8.8-7.7-17.8-15.1-27.2-23.2c-16.8,11.8-30.6,22.7-45.4,31.8c-91.3,55.6-188.3,82.8-295.2,56c-79.6-19.9-143.4-64.1-192.7-129.4
	c-18-23.9-18.2-23.4-45.7-12.1c-21.3,8.7-42.5,17.7-64.3,25c-158.7,52.7-331.2-6.8-399.2-176c-3.1-7.8-8.3-14.8-13.1-23.1
	C683.2,2439.9,579.2,2429.9,490.2,2347.8z M3281.2,1778.1c17.1,11.9,31.6,21.4,45.6,31.7c49.1,36.2,78.6,84.4,89.4,144.5
	c13.1,73.1-18.1,135.4-85,167.6c-7.9,3.8-15.9,7.4-24.1,10.4c-31.7,11.3-54.6,32.6-67.9,63.1c-34.1,78.1-97.5,113.3-178.6,119.2
	c-36.9,2.7-74.5,0.3-111.4-3.6c-49-5.3-91,7.4-128,39.1c-16.7,14.3-33.2,28.7-49.8,43.1c-60.9,52.9-132,73.4-210.9,60.6
	c-40.9-6.6-81-19-120.6-31.5c-40.2-12.7-77.8-9.1-114.7,9.5c-21.5,10.9-42.8,22.3-64.3,33.2c-62.7,31.9-127.6,38.3-194.2,14.2
	c-30.9-11.2-61.7-23-91.7-36.2c-40.6-17.9-80.8-16.7-121.7-2.4c-25.9,9.1-51.7,18.3-77.8,26.6c-103.1,32.8-201.2,23.1-293.4-35.5
	c-19.4-12.4-39.2-24.2-59-36c-31-18.6-64.7-28.1-100.7-23.6c-33.6,4.2-67.2,10.3-100.3,17.3c-96.7,20.5-178-3.2-240.9-81.8
	c-6.8-8.6-13.7-17.1-21-25.3c-25.7-29-56.4-48.3-96.5-50c-17.5-0.7-35-2.9-52.5-3.8c-121.2-5.8-234.5-124.5-234.2-245.6
	c0-4.4,0.4-8.8,0.8-13.1c7.2-77,43.1-136.9,107.1-180.2c9.6-6.5,18.9-13.5,24.3-17.4c-23.2-24.7-44.6-47.5-67.2-71.7
	c-36.7,14.1-75.1,27.3-112,43.7c-21.8,9.7-42.9,22.4-61.4,37.5c-44.9,36.6-49.1,56.4-29.6,111c11.7,32.8,8.8,43.2-18.2,65.5
	c-12.7,10.5-26.6,19.8-37.5,31.9c-39.5,43.8-24.7,112.4,30.8,127.4c50.9,13.8,72.3,42.7,73.1,93.3c0.7,40.4,19.5,73.4,48.7,101
	c40.8,38.6,88.9,58.5,145,61.5c40.3,2.2,78-10.1,116.7-17c24.4-4.4,31.1-1.3,41.8,20.7c8.1,16.8,14.1,34.5,22.2,51.3
	c48.7,100.5,161.5,164.5,274.3,143.8c44.8-8.2,86.8-23,126.9-43.8c55.9-29,55.6-29,90.9,25.6c29.9,46.3,69.6,81.4,120.3,103.8
	c92.3,40.9,182.2,30.6,269.1-14.8c30.8-16.1,58.4-38.5,87.1-58.6c22.6-15.9,27.6-16,47.7,3.3c10.3,9.9,19.8,20.5,30.3,30.1
	c116.3,106.3,271,114.7,397.3,20.3c24.4-18.2,45.5-41.1,67.8-62.1c21.2-19.9,27.1-20.7,50.9-3.7c16,11.5,31.1,24.5,47.6,35.1
	c140.7,90.3,297.3,55.1,387.7-55.9c13.8-16.9,24.6-36.2,36-54.9c23-37.9,28.6-40.8,68.1-23c39.9,18,81.4,24.6,124.8,23.9
	c85.1-1.3,187.7-48.3,218.6-166.6c4.7-18,9.2-36.1,14.6-54c5.6-18.4,16.7-29.9,37.7-30.6c18.6-0.6,37.3-2.7,55.6-5.7
	c73.1-11.9,137.4-40.2,176.9-106.7c36.4-61.2,27.2-106.9-13.6-150.1c-4.5-4.8-8.8-9.8-13.5-14.4c-19.2-18.9-19.7-40.5-9.1-63.4
	c5.1-10.9,11.5-21.2,16.5-32.2c17.9-39.1,13.1-67.2-21.7-92.6c-22.7-16.5-49.3-28.2-75.4-39.2c-41.3-17.4-83.6-32.4-125.6-48.3
	c-3.8-1.4-8.3-1.2-13.3-1.8C3318,1720.2,3300.5,1747.8,3281.2,1778.1z M2586.8,1986.6c-4.6-34-7.4-72.4-15.4-109.7
	c-9.6-44.9-22.3-89.3-36-133.3c-34.2-109.9-67.5-220.3-121.2-322.8c-17.2-32.8-38-63.9-59.2-94.4c-14.8-21.3-37-33.4-62.3-40.2
	c-48.8-13-91,3.1-129.7,30.5c-45.2,32-81.4,73.4-113.3,118.3c-36.2,50.9-71.2,102.7-106.1,154.5c-60,89-124.8,175-169.6,273.4
	c-10.9,23.9-22.1,47.9-30.2,72.8c-36.5,113.7,20.5,226.4,132.8,262.8c34.6,11.2,70.3,14.8,107.1,11.2c44.4-4.4,86.3-16.9,125.6-36.5
	c32.6-16.2,59.4-12.4,88.6,7.7c41,28.2,86.4,47.2,135.7,56.4c114.8,21.4,217-44.5,242.4-158.4
	C2582.6,2050.6,2583.1,2020.6,2586.8,1986.6z M2214.9,1239.7c-2-12-3.3-23.7-6-35.1c-39.9-170.3-116.7-323.3-220.4-463.2
	c-24.8-33.4-53.3-64.3-89.6-86.3c-41.8-25.4-85.1-28.7-127.9-4.2c-18.8,10.7-36.3,24.7-51.9,39.7c-51.1,48.9-90.5,106.6-126.9,167.2
	c-58.3,96.9-100.1,199.9-125.2,309.7c-6,26.2-11.1,53.1-6,82.2c9.1-1.9,16.6-2.8,23.8-5c47-14.4,88.9-3.2,126.8,25.6
	c12.2,9.2,23.1,20.2,33.6,31.5c74.5,79.9,134.6,170.1,187.1,265.6c6.1,11.1,13.5,21.5,20.6,32.8c39.8-25.3,66-58,90.6-93.7
	c35.3-51.4,73-101.4,112.3-149.9c29-35.7,61.9-68.6,103.3-90.7C2176.2,1256.6,2194.4,1249.2,2214.9,1239.7z M2607.5,2126.4
	c7.7,3.3,11.4,6.1,15.5,6.6c47,5.9,94.1,8.3,140.6-2c146.7-32.5,247.6-121.5,309.3-256.3c24.1-52.6,34.4-108.4,23.5-166.7
	c-13-69.7-50.6-124.7-99.1-174.4c-98.6-101-215.8-175.3-341.3-237c-39.1-19.2-81-33.7-123-45.6c-52.4-14.9-101.3-5.4-145.6,35.1
	c21.8,30,42.6,58.7,65.5,90.2c10.3-16,18.2-31.5,29.2-44.3c7.2-8.4,18.2-15.4,28.8-18.3c11.6-3.1,18.9,7,14.4,18.3
	c-3.6,9-9.3,17.4-15.5,24.9c-13.8,16.9-28.6,33.1-45.8,52.9c8.7,23.3,11.5,56.4,55.6,57.8c20.9,0.7,28.7,15.2,30.4,39.8
	c-12.7,3.8-25.7,7.7-40.3,12.1c21.3,64.3,43.1,126.3,62.3,189c19.3,63,36.1,126.8,56.2,198.2c11.5-17.5,19.4-27.5,25.1-38.6
	c5-9.6,7.4-20.6,11.4-30.7c3.8-9.6,9.3-18.3,21.5-16.3c13.4,2.3,17.2,12.4,16.6,24.5c-1.7,34.1-16.8,60.8-46,78.9
	c-8.2,5.1-17.2,9-26.9,14C2636.1,2002.2,2627.5,2063.7,2607.5,2126.4z M1811.7,1618.4c-1-2.8-1.8-6-3.3-8.8
	c-53.7-95.9-113.1-188-187.9-268.9c-20.3-22-48.2-37.1-73.5-54.2c-13.5-9.1-28.6-8.2-44.1-2.4c-31.8,11.9-57.2,31.7-78.2,58
	c-59,73.9-112.3,151.5-150.6,238.4c-35.5,80.5-65.3,163.1-70.7,251.9c-7.3,119.5,46.8,207.3,149.2,249.2
	c66.4,27.2,136.1,33.5,206.7,26.8c45.5-4.3,90.9-11.5,134.3-28.6c-3.8-21-9.8-40.1-10.1-59.3c-0.7-33.8,2.5-67.6,3.3-101.5
	c0.4-15.1,4.3-26.4,17.3-36.5c11.5-8.8,21-21.7,28-34.6c19.3-35.5,36.8-72.1,55.2-108.1c5.9-11.5,12.5-22.8,18.4-33.5
	C1772.3,1673.7,1770.7,1659.2,1811.7,1618.4z M2358.5,1238c6.2-2.1,9.3-2.4,11.6-3.9c48.8-30.9,101.9-36.4,158-28.9
	c46.5,6.2,88.3,24.9,129.9,44.6c16.2,7.7,27.3,6.6,40.9-5.9c20.9-19.1,43.3-37.1,67-52.5c26.8-17.4,47.4-39.1,59.5-68.2
	c10.9-26.2,22-52.7,29.5-80c29.7-109.1,3.7-203-78-281.9c-61.3-59.2-135.6-92.5-217.3-108.8c-128-25.5-234.8,11.7-310.6,120.4
	c-23.5,33.7-37.1,74.1-56.3,110.9c-16.6,31.9-14.6,62.6-0.3,94.6c33.3,74.4,51.1,153.6,68.4,232.8c1.6,7.2,4,14.3,6.1,22.1
	c19.3,3.6,37.3,6.9,57.8,10.7c0.6-13.4,0.8-24.2,1.8-34.8c1-10.9,2.3-21.7,4.3-32.5c2.1-11.3,9.9-19,20.8-15.2
	c7.9,2.7,17,10.5,19.5,18c2.9,8.4-0.2,19.4-2.3,28.8C2366.8,1217.5,2362.7,1226.3,2358.5,1238z M3213.8,1840.7
	c9.2,7.7,17,13.7,24.1,20.4c64.6,60.8,66.7,133.7,3.8,195.7c-21.7,21.4-46.1,41.1-72.3,56.5c-74.1,43.3-153.1,77.3-236.3,98.2
	c-98.8,24.8-198.3,47.8-298.6,65.4c-101.4,17.8-203.7,34-306.3,40.3c-191.6,11.8-383.7,20.5-575.5,2.8
	c-98.3-9-196.6-18.1-294.4-31.3c-122.9-16.5-243.2-47.2-363.3-77.7c-93.9-23.8-185.6-53.5-269.3-103.4c-23.4-14-46.2-30-66.2-48.3
	c-67.4-61.9-73.2-139.6-17.3-211.5c6.7-8.6,15.6-15.4,22.9-23.4c4.7-5.1,8.5-11,13.7-17.9c-18.9-9.5-33.1-3.3-45.8,4.9
	c-36.3,23.4-68.1,51.8-90.3,89.6c-22.9,39-31.1,80.2-12.2,122.8c13.7,30.9,28.4,62,47.1,89.9c24,35.9,58.7,59.1,103,63.8
	c23.9,2.6,48.1,3.2,72.2,4c54.2,1.8,100.5,20,135.8,62.8c13.9,16.9,29.2,32.7,44.1,48.8c36.6,39.7,82.1,58.9,135.7,53.1
	c34.7-3.7,69.4-10.4,103.2-19.2c68.4-17.8,130.1-4.1,188.5,33.1c23.1,14.7,46.4,29.5,70.8,41.7c58.6,29.1,120.5,41.1,185.2,26
	c41.6-9.7,82.6-21.9,123.5-34.2c54.7-16.5,107.9-14.9,160.5,8.5c25,11.1,51.1,19.8,76.7,29.6c47.4,18.1,94.5,17.3,140.9-3.1
	c27.1-11.9,53.9-24.6,80.3-37.8c53.2-26.6,107.5-26.4,163.1-9.4c31.4,9.6,62.8,20.6,95.1,25.8c25.4,4.1,52.5,3.1,78-0.7
	c51.5-7.6,96.6-31.7,131.5-69.7c57.2-62.3,126-83,208.2-70.9c27.9,4.1,57,3.6,85.2,1.5c62.1-4.6,111.2-31.3,138.7-90.2
	c3.2-7,7.3-13.5,10.7-20.4c16.2-33.3,42.3-55.4,77-67.5c13.4-4.7,27.1-8.9,40.3-14.3c23.9-9.7,40.2-27.1,45.9-52.3
	c9.8-43.7,4.3-85-21.7-122.6c-20.2-29.3-45.6-53.1-74.5-73.6C3246,1806.1,3238,1807.2,3213.8,1840.7z M863.9,1759.2
	c0-20.8,0.2-33.7,0-46.7c-1.7-80.4,4.3-160.1,26.6-237.7c4.7-16.5-0.8-25.4-10.2-37.8c-17-22.4-34.1-46.1-44.6-72
	c-25.6-62.6-15.8-122.6,32-170.4c48.7-48.6,111.5-54.5,174.9-35.9c44.4,13.1,84.4,36.9,113.3,75.5c12.5,16.7,29.2,27.7,50.8,24.9
	c44.2-5.7,81.7,9.4,116.7,34.3c8,5.7,17,10.1,25.7,14.6c30.5,16,46.3,9.9,56.2-23.3c2.9-9.9,2.7-21.7,0.6-32
	c-22.3-112.2-89.6-191-187.3-244.9c-59.7-32.9-124.7-42.4-191.2-24c-71.7,19.8-138.4,49.1-189.2,106.8c-13,14.7-28.6,27.2-43.2,40.5
	c-59.5,54.2-114.5,111.4-150.8,185c-35.2,71.3-39.2,143.3-12.4,216.8c31.6,86.6,96,145.2,172,192.6
	C821,1736.4,839.3,1745.6,863.9,1759.2z M1353.1,1358.3c-10.9-6-20.7-13.3-31.7-17.1c-36.1-12.7-72.2-26-109.2-35.7
	c-45.3-11.9-91.5-8.7-137,1.5c-40.4,9-73.9,29.9-93.7,66.6c-17.5,32.6-34.2,66.5-45.4,101.6c-27.1,85.8-31.9,174.8-25.1,263.8
	c5.3,68.5,24.4,133.4,66.7,189.9c40.4,53.8,129.1,95.1,207.2,76.3c0.4-2.1,1.6-4.4,1.1-6.3c-2.7-9.5-5.9-18.8-8.8-28.2
	c-18.2-58.4-25.2-117.8-15.6-178.7c17.6-111,59.2-213,115.9-309.2C1301.4,1442.5,1326.2,1402.7,1353.1,1358.3z M3144,1822.4
	c13-7.2,24.2-11.4,32.9-18.6c115.2-95.4,167.2-218.7,149.5-366.6c-17-142.6-124.4-252.9-259.9-273.4
	c-114.6-17.3-217.4,12.9-307.7,85.1c-10.5,8.4-18.8,19.6-29.1,30.6c9.8,7.1,15.7,11.9,22.1,15.9c41,25.4,82.8,49.6,123.1,76
	c76.8,50.1,144.8,110.5,200.3,183.7c52.8,69.6,83.4,146.6,68.9,236.3C3142.8,1799.8,3144,1808.6,3144,1822.4z M1717.9,2127.8
	c-58.4,10.7-111.8,25.2-165.9,29.5c-115.1,8.9-223.4-11.1-310.6-95.6c-11.7-11.4-24.2-11.2-39.2-10.3c-32.6,1.9-66.4,6.5-97.8,0.6
	c-98.3-18.6-169.3-74.1-207.6-168.3c-5.4-13.2-10-26.8-16.5-39.4c-9.3-18.2-18.6-23-37.4-15.1c-18.9,8-38.2,17.8-53.5,31.2
	c-60.1,52.4-60.6,121.6,0.9,171.8c31.1,25.4,66.2,47.6,102.7,64.1c51.8,23.4,105.6,43.8,160.3,58.8c86.6,23.7,174.5,42.9,262.2,62.3
	c198.8,44.1,400.6,64.7,603.8,68.3c112.9,2,225.9-3.2,338.9-5.3c2.2,0,4.3-3,6-4.3c-26.6-15-54.8-26.4-77.4-44.6
	c-27.1-21.9-50.8-21.8-80.8-7.5c-56.6,26.9-117.2,35.8-179.6,30.5c-81.9-6.9-150.1-38.8-195.8-110.3
	C1726.6,2137.6,1721.3,2132,1717.9,2127.8z M2524.8,2249.5c0.7,2.2,1.5,4.5,2.2,6.7c112.3-23.9,224.9-46.3,336.7-72.3
	c79-18.3,156.3-42.8,229.2-79.7c43.2-21.9,86.1-43.9,120.6-78.7c37-37.3,38.3-79.7,6-120.9c-38.8-49.5-77.3-36.1-110.4,4.9
	c-5.4,6.7-8.8,15.1-13.3,22.6c-11.3,18.7-21.1,38.7-34.5,55.9c-115.7,148.3-262.7,221.3-453.7,186.5c-11.7-2.1-21.6-0.6-29.5,9.1
	C2560.4,2205.7,2542.5,2227.6,2524.8,2249.5z M909.3,1397.3c26.1-31.8,50.5-65,78.6-94.8c29.4-31.4,71.5-38.6,112.9-47.1
	c-2.6-6.1-3-9.9-5.1-11.6c-41.2-32.8-87.7-50.3-140.5-41.6c-33.3,5.5-62.9,19.8-78.5,52.9C855.8,1299.1,869.7,1361.5,909.3,1397.3z
	 M2512.9,314.7c-14.2,16.5-13.9,16.5-15.8,34.1c-8.6,81,16.1,153.5,57.7,221.1c11.8,19.2,28.5,35.2,58.1,34.4
	c0.5-12.1,1.9-22.7,1.3-33.2c-1.2-22.9-2.2-46-5.5-68.6c-8.4-56.8-25.6-110.7-59.3-158.1C2540.1,331.4,2531.6,316.3,2512.9,314.7z
	 M2850.5,352.2c-28.4,1.5-43.2,11.1-87,56.9c-55.8,58.4-90.3,127-100.1,209.3C2770.7,561.1,2858.3,426,2850.5,352.2z M761.3,1079
	c-2.9-10.5-3.5-16-5.9-20.5c-26.3-49.8-59.2-94.7-101.9-131.6c-26.7-23.1-56.6-41.3-91.2-50.2c-9.8-2.5-20.4-2.2-35.1-3.5
	c3,13.4,3,22.6,7,29.4c13.3,22.4,26,45.8,42.8,65.5c42.9,50.6,102.8,76.9,160.2,106.3C742.6,1077,749.6,1076.8,761.3,1079z
	 M2982.1,542.5c-77.4-25.7-213.2,24.8-253.5,103C2793.1,674.4,2951.7,611,2982.1,542.5z M818,1026.9c64.1-40.4,90.9-197,45.2-260.7
	c-26,15-33.1,42.1-40.7,67.4C803.3,897,797.2,961.3,818,1026.9z M461.6,1227.5c79.1-0.7,148.8-19.9,214.1-55.2
	c12.6-6.8,25.1-16.6,28.6-33.2C636,1122.7,489.5,1174.1,461.6,1227.5z"/>
<path d="M2259.6,3026.1c0.3-55.6,41.8-100.1,92.6-99.3c52,0.8,92.4,45.2,91.2,100.3c-1.1,52.9-44.1,94.7-97.7,95.1
	C2296,3122.5,2259.3,3081.6,2259.6,3026.1z"/>
<path d="M1709.3,3020.9c0.5,51.4-39.3,90.8-92.1,91c-50.8,0.2-92.2-40.1-93.3-91c-1.2-54,38.4-96.4,90.2-96.6
	C1667.8,2924.2,1708.8,2965.8,1709.3,3020.9z"/>
<path d="M1548.5,3268.6c-50.9-0.4-95.9-19.7-138.3-45.4c-23.2-14.1-36.1-35.8-30.5-63.7c5.4-27,25.7-40.3,51.3-43.8
	c18.1-2.5,36.9-2.6,55.1-0.6c42,4.7,79.9,22.1,115.7,43.4c26.9,16,37.5,40.7,31.5,66.1c-5.9,25.1-26.5,40.8-58.6,43.9
	C1566.1,3269.3,1557.3,3268.6,1548.5,3268.6z M1463.1,3144.1c-0.4,1.3-0.9,2.5-1.3,3.8c-6.6,0.4-14-0.9-19.5,1.7
	c-9.2,4.4-20.6,9.8-24.4,17.9c-2.3,4.9,6,18.6,12.9,23.4c40.6,28,85.4,44.8,135.4,41.5c10.2-0.7,23.9-8.6,28.6-17.2
	c6.7-12.4-6.3-21.4-15.4-29.3c-4.1-3.5-8.6-7.5-13.6-9.1C1531.7,3165.6,1497.4,3154.9,1463.1,3144.1z"/>
<path d="M2407.4,3275.5c-6.5-1.1-19.9-1.6-32-5.9c-34.6-12.3-46.8-54.8-23.6-83.1c9.5-11.6,21.9-21.7,34.7-29.5
	c38-23.3,79.9-35.6,124.3-36.7c14.8-0.4,31.1,1.9,44.5,7.8c38.7,17,47.7,58.7,17.8,88.3c-15.8,15.6-37,26.8-57.4,36.5
	C2483.8,3268,2449.3,3274.2,2407.4,3275.5z M2420.3,3244.9c29-8.8,58.2-16.7,86.7-26.9c13-4.6,25.8-12.2,36.1-21.3
	c6.2-5.5,12.4-18.5,9.9-24.5c-3.4-8.1-14.7-13.7-23.6-18.5c-4.2-2.3-10.7-1-16.1-0.5c-39.7,3.4-76.8,15.6-111,35.5
	c-12.6,7.3-28.5,14.6-27.4,33.1C2375.7,3234.4,2392.9,3241.2,2420.3,3244.9z"/>
<path d="M1976,3234.4c-64.1-0.9-116.7-45.9-127.1-113.3c-0.8-5.4-2.1-11-1.4-16.3c1.4-11.8,1.7-25,17.9-27.3
	c16.9-2.4,19.4,10.5,23.2,22c3.4,10.4,6.5,20.9,10.4,31.1c14.4,37.2,43.3,54,81.5,55.7c38.5,1.7,74.6-21.3,89.3-55.7
	c4.3-10,7.8-20.5,10.5-31.1c3.6-14,8.7-25.6,26.3-21.6c17.5,4,16.6,17.8,15.4,31.3c-5.5,67.6-62.2,121.8-130.9,125.1
	C1988,3234.5,1984.7,3234.4,1976,3234.4z"/>
<path d="M2253.6,1931.4c-4.5,25.7-7.1,50.8-13.6,74.8c-7.5,27.9-26.8,44.5-57,46.2c-5.5,0.3-10.9,1.5-16.3,1.5
	c-60,0.8-98.5-30.9-94.8-101.9c1-19.2,6.6-39.3,14.6-56.9c20.8-45.8,44-90.5,66.3-135.7c1-2,2-3.9,3.3-5.7
	c9.5-13.4,18.3-29.5,38.1-25.9c20.2,3.7,27.4,20.4,30.6,38.5C2234.6,1821.3,2244,1876.3,2253.6,1931.4z M2186.7,1798.8
	c-3.1-1.3-6.2-2.6-9.3-3.9c-2,3.9-3.9,7.8-5.9,11.7c-21,43.3-42.5,86.4-51.6,134.2c-2,10.7-3.6,21.7-3.1,32.5
	c1.3,27,16,39.2,42.9,37.2c29-2.2,46.3-17,48.8-47.7C2213.2,1906.7,2201.8,1852.4,2186.7,1798.8z"/>
<path d="M2186.7,1594.4c1.8-12.3,4.1-30.8,7.2-49.1c2.2-13.2,10.8-18.4,23.8-16.1c13,2.3,14.7,12.4,13.6,22.5
	c-3,26.1-6.6,52.1-10.7,78.1c-1.7,10.8-7.3,18.4-20.1,16.1c-10.7-1.9-13.9-9.3-13.8-19.1C2186.7,1618.2,2186.7,1609.4,2186.7,1594.4
	z"/>
<path d="M2252.3,1676.9c8.9-20.6,16.3-40.9,26.6-59.7c3.1-5.7,18.1-11.7,20.9-9.4c6.3,5.2,13.2,16.9,11.3,23.5
	c-5.8,19.7-15.2,38.3-24.2,56.9c-4.3,8.9-11.7,18.7-22.7,12.1C2258.5,1696.9,2256.9,1686.4,2252.3,1676.9z"/>
<path d="M1986.6,1986.6c9,6.3,18.2,9.7,21.2,16c2.3,4.8-1.1,15.2-5.4,20c-14.5,16.3-34.7,21.9-55.6,22.5
	c-5.9,0.2-15.1-5.9-17.2-11.2c-2.1-5.4,0.5-17,4.9-19.8C1950.5,2003.7,1968.1,1996,1986.6,1986.6z"/>
<path d="M2356.4,1726.4c-0.3,14.9-37.8,56.8-52.8,58.6c-9.6,1.2-14.1-4.2-14.5-13.2c-0.7-15.8,27.9-58.7,41.9-63.3
	C2342.8,1704.6,2356.7,1714.4,2356.4,1726.4z"/>
<path d="M1999.8,1912.3c-17.2-1.8-35.2-5.8-46-23.4c-9.3-15.2-2.3-29.4,15.2-29.4c19,0,37.1,4.9,48.6,21.6
	C2028.5,1896.9,2020.4,1911.6,1999.8,1912.3z"/>
<path d="M2050.4,1811.5c-25.5-22.3-31.7-49.9-36-78.5c23.1-8.3,31.1-4.8,44.3,17.6C2074.4,1776.9,2072.9,1792.3,2050.4,1811.5z"/>
<path d="M2135.4,1649.5c0,7.6,0.1,8.7,0,9.7c-0.7,12.2-1.1,26.4-15.7,29.2c-17.4,3.3-22.2-11.5-24.9-24.4
	c-2.4-11.5-3.4-23.9-1.7-35.3c0.9-6,8.9-15.3,13.8-15.3c7.2,0,17.2,5.2,20.9,11.3C2133.3,1633.5,2134.2,1645.1,2135.4,1649.5z"/>
<path d="M2312.6,2000.7c22.3-14.7,57.9-13.2,74.9,3.1c9.4,9,8.2,24.2-3.7,25.7c-16.6,2.1-34.3,0.2-50.8-3.2
	C2321,2023.9,2311.9,2015.1,2312.6,2000.7z"/>
<path d="M2320.3,2103c-1.8,2.8-4.7,12.2-10.9,15.6c-4.8,2.6-16,0.1-20.3-4.2c-8.8-8.9-16.4-19.8-21.5-31.2c-2.2-5,0.9-15.6,5.3-19.4
	c4.6-4,14.2-5,20.7-3.5C2308.1,2063.6,2319.8,2081.5,2320.3,2103z"/>
<path d="M2375.5,1867.1c2.1,21.6-34,48.7-51.9,41.9c-9.9-3.8-12.2-11.8-8.9-21.4c4.9-14.4,32.2-31.4,47.8-28.7
	C2367.7,1859.7,2372.2,1864.9,2375.5,1867.1z"/>
<path d="M1976.7,1317.7c0.4-6.1,0.5-10.5,1.1-14.9c2-14.2,7.9-25.8,24.1-26.2c16.8-0.4,23,12.6,24.3,25.8
	c1.2,12.7,0.2,26.7-4.1,38.5c-2.8,7.6-12.5,16.2-20.4,17.8c-12.8,2.5-18.6-9-21.5-20.2C1978.3,1331.3,1977.6,1323.6,1976.7,1317.7z"
	/>
<path d="M1609.6,1224.2c-17.2-14.4-21.9-31.3-21.1-50.5c0.7-14.3,8.1-24.5,20.6-30.7c13.3-6.6,22.3-2.4,27.3,12
	C1646.1,1182.5,1636.5,1208.7,1609.6,1224.2z"/>
<path d="M1911.7,1177.8c1.3-8.9,2.7-18.5,4-28.2c1.3-9.8,6.2-17.6,16.5-15.8c7.6,1.4,17.9,5.7,20.7,11.7c9.1,19.4,8.5,40.5-0.7,59.7
	c-2.8,5.9-13.9,11.6-20.6,11c-6.4-0.6-13.9-8.6-17.4-15.2C1911,1194.8,1912.4,1186.2,1911.7,1177.8z"/>
<path d="M1786,1321.4c0,30.6-10.5,48.4-27.1,48.6c-14,0.2-24.9-23-22.4-48.3c0.4-4.3,1-8.7,2.3-12.8c3.8-12.2,10.2-22.5,24.7-21.8
	c14.7,0.7,19.8,11.6,21.8,24.3C1786,1315.6,1785.9,1320,1786,1321.4z"/>
<path d="M2080.4,998.5c0,3.3,0,4.4,0,5.5c-0.6,25.5-7.4,37-22,37.5c-13.3,0.5-21.5-9.2-26-32c-1.4-7.3-2.1-15.1-1.3-22.5
	c1.7-14.4,8.9-24.2,25-24.6c15.3-0.4,20.7,9.5,23,22.3C2079.9,989.9,2080.1,995.3,2080.4,998.5z"/>
<path d="M1658.5,855.4c2.5-7,4.6-20.5,11.7-30.5c4.4-6.1,17.6-10.8,24.7-8.8c7,2,16.2,13.7,15.7,20.5c-1.2,15.7-6.3,31.6-12.9,46
	c-2.8,6.1-15.2,13.5-19.9,11.7c-7.4-2.8-12.5-12.6-17.4-20.3C1658.4,870.8,1659.4,865.6,1658.5,855.4z"/>
<path d="M1930.3,1488c-17.2,0.8-21.7-11.2-23.7-20.8c-3.2-15.9-3.2-32.5-3.2-48.8c0-11,6.3-18.8,17.8-20c12.7-1.3,21,5.4,24.4,17.4
	C1953.3,1443,1946.6,1467,1930.3,1488z"/>
<path d="M1884.5,1032.1c-1.7,9.8-1.8,20-5.5,28.7c-2.4,5.8-9.9,13.3-14.9,13.2c-7.1-0.2-19.2-5.8-20.1-10.8
	c-3.4-18.8-4.5-38.3-3.2-57.3c0.3-4.8,13-12.3,19.8-12.1c6.9,0.1,16.1,6.8,19.9,13.2C1884.5,1013.7,1883.4,1023.5,1884.5,1032.1z"/>
<path d="M1771.6,1200.7c0.5-4.8,0.5-10.3,1.7-15.6c3.1-14.1,11-24.6,26.5-24.1c15.7,0.5,18.2,13.8,19.9,25.8
	c1.2,8.6,1.3,17.5,0.4,26.1c-1.8,17-9.9,24.5-24.7,24.5c-15.2,0-20.9-9.8-22.9-22.9C1771.8,1210.2,1771.9,1205.8,1771.6,1200.7z"/>
<path d="M1845.2,888.7c-0.3,2-0.8,9.6-2.7,16.9c-2.6,9.9-8,20.4-19.4,17.4c-8.1-2.1-19-10.1-20.5-17.2c-3.1-14.3-2.4-30.1,0-44.7
	c1.9-11.4,11.4-18.1,24.3-17c14,1.2,17.3,11.2,18.3,22.7C1845.5,872.2,1845.2,877.7,1845.2,888.7z"/>
<path d="M1712,1018.2c1-3.5,1.5-15.5,7.4-23.4c4.6-6.2,16.4-10.6,24.4-9.8c6.1,0.6,15.4,10.2,15.9,16.4c1.2,13.6-0.8,27.9-4.3,41.2
	c-3.3,12.5-12.5,20-27,16.9c-13.4-2.8-16.3-12.5-16.4-24.3C1712,1032,1712,1028.7,1712,1018.2z"/>
<path d="M1997.7,865.8c0,0.4,0,2.6-0.4,4.7c-2.7,13.7-2.2,29.8-21,32.8c-13.4,2.1-23.8-10.1-26.8-31.2c-0.9-6.4-1.1-13.2,0-19.5
	c2.6-15.9,15.7-27.4,29.1-25.2c14.9,2.4,17.9,14.2,19,26.8C1997.9,857.4,1997.7,860.7,1997.7,865.8z"/>
<path d="M1571.8,1021.8c4.5-11.9,7.6-24.6,14.1-35.3c3-4.9,13.3-8.9,19.1-7.6c5.9,1.2,13.5,8.6,15,14.6c5,19.9,1.5,39.5-13.4,54.3
	c-5.1,5-15.7,7.7-22.7,6.3c-4.2-0.9-7-11.6-9.2-18.3c-1.3-3.9-0.2-8.6-0.2-13C1573.6,1022.5,1572.7,1022.1,1571.8,1021.8z"/>
<path d="M1813.3,716.1c-1.3,6.5-0.9,18.7-6.2,27.5c-4,6.7-15.3,12.5-23.1,12.2c-5.7-0.2-15.5-10.8-15.6-16.9
	c-0.2-14.9,2.7-30.3,7.3-44.5c3-9.3,12.5-17.9,23.2-12.7c6.3,3.1,9.6,13,13.5,20.2C1813.7,704.6,1812.9,708.4,1813.3,716.1z"/>
<path d="M2104.2,1174.8c-1.2,6-1,16.8-5.8,24.6c-3.8,6.2-14,12.3-20.7,11.7c-5.6-0.5-12.9-10.2-14.8-17c-3.1-11.3-3-23.6-3.2-35.5
	c-0.2-13.7,5.4-23.2,20.9-23.1c15,0.1,21,9.1,22.1,22.7C2103.2,1162.4,2103.6,1166.7,2104.2,1174.8z"/>
<path d="M1495.6,1216c0-14-2.3-28.5,0.9-41.7c1.8-7.3,12-15.7,19.8-17.4c6-1.3,19.2,5.7,20.5,11.1c3.4,14,6.4,31,1.3,43.3
	C1531.8,1226.1,1514.9,1224.6,1495.6,1216z"/>
<path d="M1884.3,718.4c-0.1-12.7,0.6-25.2,17.3-26.5c17.1-1.3,30.4,15.4,29.5,36.1c-0.8,17.3-8.7,28-21.2,28.6
	C1892.7,757.4,1884,744.3,1884.3,718.4z"/>
<path d="M2838,1810.2c-7.4-1.7-20.5-3.3-32.6-7.8c-12.5-4.7-19.1-15.6-15.1-28.9c4-13.6,16.2-12.7,27.3-11.4
	c5.3,0.6,10.5,3,15.7,4.4c33.5,9.3,46.4,5,67.4-22.9c7.2-9.6,13.2-20.2,20.5-29.6c6-7.7,13.4-16.5,24.6-10.3
	c10.3,5.7,10.7,16.2,6.3,26C2928.2,1782.4,2903.2,1806.5,2838,1810.2z"/>
<path d="M2774.5,2001.4c28-14.3,53.5-28.1,79.8-40.3c7.8-3.6,17.8-2.5,27.3-3.6c-1,34.4-13.4,53-37.9,61.1
	C2815.6,2027.8,2791.6,2021.8,2774.5,2001.4z"/>
<path d="M2946.6,1943.5c0-29.9,0-57.5,0-84.9c30.2-1.2,37.7,6.3,38.7,35.2C2986.5,1930.8,2978,1942.1,2946.6,1943.5z"/>
<path d="M2740.2,1530.1c-11.1-34.4,15-72.5,45.7-72.3c12.8,0.1,19,13,10.7,26.7C2784.1,1505.5,2765.3,1519.8,2740.2,1530.1z"/>
<path d="M2668.8,1481.2c-5.6,13.8-9.3,27.6-16.5,39.3c-9.4,15.2-23.9,13.3-32.6-2.7c-10.2-18.8-4.1-42.8,15.3-53.3
	c6.7-3.6,17-5.1,23.7-2.6C2663.6,1463.7,2665.2,1473.8,2668.8,1481.2z"/>
<path d="M2947.1,1618.9c-3.3,10.5-4.7,16.9-7.2,22.8c-9.2,21.4-22.1,30.5-36.4,25.4c-14.2-5-11.8-16.8-9.7-27.5
	c4.3-21.1,22.1-38.7,37-34.9C2937.4,1606.5,2942.3,1614.5,2947.1,1618.9z"/>
<path d="M2757.8,1991.4c-2.8,11.5-10.4,16.8-23.6,15.1c-20.3-2.6-30.1-11.8-29-28.2c1-15.8,10.8-27.2,23.1-27
	C2741.6,1951.6,2758.9,1974.3,2757.8,1991.4z"/>
<path d="M1498.9,1733c-1,7.5-1.4,13-2.6,18.2c-2.6,11.4-7.8,20.8-21.2,21.1c-13.1,0.3-20.3-7.8-22.5-19.5
	c-2.1-11.7-2.6-23.7-3.2-35.7c-0.7-14,6.3-23.1,20.2-25.2c13.2-2,20.2,6.9,24.2,17.6C1496.8,1717.4,1497.5,1726.3,1498.9,1733z"/>
<path d="M1422.7,1854c-2.5,7.7-3.3,17.5-8.5,23.7c-5.5,6.7-15,13.2-23,13.5c-4.6,0.2-12.5-11.4-14-18.7c-2.7-13.5-4.1-28.2-1.5-41.5
	c1.5-7.6,11.5-18.2,18.3-18.7c7-0.5,16.6,8.5,21.6,15.7C1420.3,1834.6,1420.4,1844.5,1422.7,1854z"/>
<path d="M1402.9,1590.8c-1.7,7.7-2.9,21-7.8,32.8c-2.8,6.6-12.1,15.3-17.6,14.7c-5.9-0.6-14.6-10.5-15.5-17.2
	c-2.1-15.8-1.3-32.2,0.4-48.2c1.3-12.4,10.4-18.7,23.1-17.9c12.7,0.8,15.2,10.4,16.5,20.6
	C1402.5,1578.9,1402.5,1582.2,1402.9,1590.8z"/>
<path d="M1622.1,1732.8c-0.8,8.4,0.4,15-2.3,19c-4.4,6.8-11.2,16.5-17.1,16.6c-8,0.1-21.4-6.5-22.9-12.6
	c-3.9-15.4-4.3-32.4-2.2-48.2c0.7-5.7,12.3-13.8,19.1-14c6.7-0.2,16.1,7,19.7,13.4C1620.9,1715.2,1620.8,1725.9,1622.1,1732.8z"/>
<path d="M1575.4,1905.6c-1.9,5.5-3.9,17.5-9.8,27.1c-6.7,11-21.6,10.7-26-1.2c-5.8-15.6-8.7-33.1-8.7-49.8
	c0-12.4,9.6-22.2,23.8-21.5c13.4,0.7,16.7,11.9,18.8,22.8C1574.5,1888.4,1574.5,1893.8,1575.4,1905.6z"/>
<path d="M1720.2,1816.3c-15.2-1-23.5-11.2-26.8-24.3c-3.3-13.4-5.5-27.8-4-41.2c0.6-5.7,11.7-14,18.4-14.3
	c6.8-0.3,16.2,6.3,20.4,12.6C1739.1,1765.8,1734.7,1795.5,1720.2,1816.3z"/>
<path d="M1681.7,1582.5c-1.9,10.7-1.3,18.3-4.7,23c-3.9,5.4-11.3,11.2-17.2,11.3c-5.8,0.1-15.5-5.7-16.9-10.7
	c-4.4-15.4-7.2-31.7-7.5-47.6c-0.1-6.6,7.4-18.5,12.1-18.8c8.2-0.6,20.7,3.6,24.6,9.9C1678.5,1560.1,1679.4,1573.8,1681.7,1582.5z"
	/>
<path d="M1318.6,1756.4c-0.8,7.8,0.5,14.7-2.4,18.3c-5.7,7.1-13.1,15.7-21,17.1c-5.6,1-16.6-7.5-19.1-14.1
	c-6.7-17.8-6.6-36.9,4.5-53.3c3.5-5.3,12.1-9.6,18.5-9.7c4.5-0.1,11.2,6.9,13.2,12.1C1315.9,1736.8,1316.9,1747.9,1318.6,1756.4z"/>
<path d="M1308.8,1939.2c-1.4,8.5-0.8,16-4,21.1c-3.7,5.8-10.6,12.5-16.7,13c-5.8,0.5-16.7-5.3-17.7-10.1
	c-3.7-16.6-5.5-33.9-5.1-50.9c0.1-5.2,9.6-14.3,14.7-14.2c7.1,0.1,17,5.4,20.6,11.5C1305.8,1918.7,1306.6,1930.3,1308.8,1939.2z"/>
<path d="M1580.5,1416.5c-1,4.1-0.7,12.9-4.9,18.4c-5.2,6.9-13.4,13.9-21.5,15.8c-11.1,2.5-17.2-6.8-19.8-17.1
	c-1.6-6.3-3.1-12.7-3.4-19.1c-1.1-21.7,5.9-30.7,23.4-30.8C1571.8,1383.5,1580.2,1392.9,1580.5,1416.5z"/>
<path d="M1430.7,2022.5c-0.6,22.6-10.1,39.4-20.7,40c-12.8,0.7-25.1-14.8-27.2-35.2c-0.7-6.4-0.4-13,0.6-19.3
	c1.8-12.3,9.5-18.8,21.9-19.9c11.9-1.1,18,5.8,21.1,15.9C1428.5,2011.1,1429.8,2018.6,1430.7,2022.5z"/>
<path d="M1594.1,2032.5c0,4.3,0.1,5.4,0,6.5c-1.3,20.6-11.2,34.9-23.8,32.5c-17.5-3.3-19.4-17.9-20.4-32.4c-0.3-4.3-0.2-8.6,0-12.9
	c0.6-12.1,0.9-24.8,16.8-26.9c12-1.6,23.3,8.9,26.4,23.6C1594,2027,1594,2031.4,1594.1,2032.5z"/>
<path d="M1547.7,1558.8c0.3,22.4-11.4,41.3-25,40.5c-14.2-0.8-21.9-14.6-21.5-38.7c0-1.1,0.1-2.2,0.1-3.3
	c1.1-20.7,8.4-31.2,21.5-31.2C1538,1526.2,1547.5,1538.6,1547.7,1558.8z"/>
<path d="M1419.9,1426.5c2.4-6.3,3.6-17.7,10-23.4c6-5.4,18.1-7.6,26.2-5.7c5.9,1.4,13.1,11.4,13.8,18.1c1,10.2-0.8,22.3-5.8,31.1
	c-4,7.1-15,15-22,14.3c-6.9-0.7-13.4-11.4-18.9-18.6C1420.8,1439.4,1421.3,1434.1,1419.9,1426.5z"/>
<path d="M1665.9,1439.4c-0.7,19.1-11.3,32-25.9,31.3c-13.6-0.6-22.6-12.9-22.3-30.7c0.3-17.6,9.4-28.6,24.2-28.9
	C1657,1410.9,1666.5,1422,1665.9,1439.4z"/>
<path d="M2526.6,898.5c-10.3,23.6-18.3,45.1-29.3,64.9c-2.6,4.8-15.7,6.9-22.6,5.1c-4.4-1.1-10.1-12.3-9-17.7
	c4.3-21.2,10.3-42.2,17.2-62.8c4.2-12.4,15.8-16.6,26.6-10.7C2516.6,881.1,2520.6,890.7,2526.6,898.5z"/>
<path d="M2335.9,966.2c-5.2,21.1-9.1,39.1-14.2,56.8c-3.1,10.7-11.4,15.7-22.7,14.2c-12.3-1.5-17.2-10.8-16-21
	c2.3-19.3,5.8-38.7,11-57.4c3.7-13.6,16.2-19.5,28.4-13.7C2329,948.2,2331.8,959.5,2335.9,966.2z"/>
<path d="M2434,744.2c-10.3,19-18.3,36.8-29.3,52.6c-3.5,5-16.3,8.1-22,5.6c-5.6-2.5-12.2-14.7-10.4-20c6.5-19,15.1-37.7,25.6-54.9
	c3.2-5.3,17.4-9.9,21.9-7.2C2426.5,724.3,2429.1,735.2,2434,744.2z"/>
<path d="M2594.3,1093.6c-9.8,20.6-16.7,39-27.4,55c-3.7,5.5-17,6.4-25.6,5.8c-2.7-0.2-7.6-13.2-6.1-19c4.6-17.7,10.2-35.6,18.5-51.8
	c3.6-6.9,16.9-15.3,22.1-13.3C2583.5,1073.2,2587.9,1084.8,2594.3,1093.6z"/>
<path d="M2774.3,1022.8c-9.3,19.9-16.4,37.1-25.4,53.3c-6,10.9-17.9,15.2-28,7.9c-5-3.6-7.4-15.7-5.6-22.6
	c4.5-16.8,11.5-33.1,18.6-49.1c4.4-10.1,13.9-16.3,24-10.5C2764.8,1005.9,2768.7,1015.4,2774.3,1022.8z"/>
<path d="M2655.1,867.2c6.5-17.9,10.8-33.7,17.8-48.2c4.8-9.8,14.1-18.5,26.6-11.8c10.6,5.7,14.6,16.5,10.4,28.1
	c-5.1,14.3-10.4,28.9-18.2,41.7c-3.7,6-15.7,13-20.3,11C2664.4,885.1,2660.5,874.7,2655.1,867.2z"/>
<path d="M706.1,1443.3c-2.8,3.6-6.5,13-12.9,15.4c-6.9,2.6-17.5,0.9-24.3-2.9c-16.3-8.9-24.9-41.5-17.3-58.8
	c5.4-12.3,18.4-16,29.8-7C696.6,1402.1,704.2,1418.8,706.1,1443.3z"/>
<path d="M1294.9,1165.8c6.7-9,10.8-20,17.9-22.5c6.9-2.4,19.4,1.5,25,7.1c8.1,8,13.1,19.7,17.5,30.6c4.4,10.7,3.9,22.2-8.3,28
	c-11.3,5.4-24.6,6.8-32.7-4.3C1306.3,1193.7,1301.8,1180.2,1294.9,1165.8z"/>
<path d="M801.5,1300.8c-4.8,16-6.2,29.1-23.4,31.7c-13.9,2.1-26.8-7-30.5-23.2c-3.5-15.1-4.3-31.4,8.5-42.4
	c5.1-4.4,19.8-6.1,22.9-2.6C788.4,1274.8,794.2,1288.4,801.5,1300.8z"/>
<path d="M792.5,1496.1c-21.9-0.9-46.2-32.5-41.4-53.7c3.1-13.7,19.7-22.2,29.9-12.7c12.3,11.4,23.5,25.6,30.3,40.8
	C818,1485.4,807.7,1496.7,792.5,1496.1z"/>
<path d="M1073.5,1026.8c29.3-8,49.4-1.4,58.8,19.2c4.6,10.2,8.1,23.1-3.2,29.3c-8.1,4.5-22.3,6.3-29.7,2.1
	C1080.6,1066.9,1069.7,1049.8,1073.5,1026.8z"/>
<path d="M1027.7,1146.5c-13-4.9-25.1-5.9-30.3-12.4c-6.6-8.1-11.3-21.1-10.3-31.3c1.3-13.4,15.2-13.8,26.2-12.4
	c8.4,1.1,17.2,3.6,24.6,7.7c11.7,6.4,18.3,17.7,11.3,30C1044.7,1136,1034.7,1140.8,1027.7,1146.5z"/>
<path d="M1175.2,1127.2c24.7,1,46.3,20.3,49.7,39.3c2.3,13-6.5,22.5-21,22.6c-20.1,0.3-45.2-25.5-42.3-46.1
	C1162.6,1136.2,1172.2,1130.6,1175.2,1127.2z"/>
<path d="M820.6,1622.8c-4.3,15.1-12.4,22.1-25.4,21.1c-20.2-1.6-39.1-26.7-35.3-46.9c3.1-16.3,19.2-25.2,31-14.4
	C803,1593.6,810.9,1609.2,820.6,1622.8z"/>
<path d="M1080.1,1792.9c21.6,25.7,22.3,54.8,18.1,84.2c-1.8,12.6-16,16.3-25.7,7.4c-15.8-14.5-18.1-34.5-18.4-54.4
	C1053.8,1814,1058.1,1799.5,1080.1,1792.9z"/>
<path d="M973.9,1562.4c4.2-7.9,8.7-21.6,17.7-31.4c5.1-5.6,19.4-8.6,25.9-5.4c5.9,2.8,10.3,16.2,9.2,24.1
	c-1.7,12.5-7.1,25.1-13.8,36c-3.9,6.3-15.4,14.5-19.4,12.8c-7.4-3.3-12.2-13.1-17.4-20.7C974.4,1575.4,975,1571.5,973.9,1562.4z"/>
<path d="M1180.9,1572.2c-1,9.7-1,21.9-16.7,21.6c-21.2-0.4-42.8-23.2-41.7-43.2c0.8-14.7,10.8-22.9,26.7-21.9
	C1168.5,1529.8,1181.4,1547,1180.9,1572.2z"/>
<path d="M1260.2,1429.1c0.5,17.6-10.8,33.1-24.6,33.5c-13.4,0.4-26.6-16.3-27.8-35.3c-1.1-17.8,7.6-29.7,22.1-30.1
	C1246.6,1396.9,1259.7,1410.6,1260.2,1429.1z"/>
<path d="M988.1,1723.8c0.6-16.1,11.2-33.4,23.9-35.1c6.3-0.8,15.1,2.1,19.7,6.5c12.4,12,6.6,26,0.5,38.9
	c-5.4,11.4-13.1,21.3-27.3,17.7C991.1,1748.4,987.9,1736.7,988.1,1723.8z"/>
<path d="M1120.8,1380.4c0.7,16.5-13.9,35-27.7,35.2c-11.8,0.1-23.9-14.5-24.6-29.9c-0.9-17.6,10.2-31.8,25-32.1
	C1107.6,1353.4,1120.1,1365.6,1120.8,1380.4z"/>
<path d="M3158.9,1430.8c-16.9,5.5-28.6-6.3-41.7-13c-21.9-11.3-24.3-10.5-41,8c-7.9,8.8-16.7,17.2-26.4,23.8
	c-4.3,2.9-13.4,3.1-17.6,0.4c-4.2-2.8-7.2-10.9-6.9-16.5c0.9-15.9,29-46.7,44.8-48c19.3-1.6,39.2-2.4,58.3,0.1
	C3154.5,1389.2,3163.8,1405,3158.9,1430.8z"/>
<path d="M3191.6,1596.2c-7.7-19.4-15.1-38.1-23.5-59.5c10.9-5.5,23.8-12.8,37.3-18.5c10.6-4.4,22.2-0.7,22.9,10.8
	c0.9,14.6-1.2,30.4-6.4,43.9C3217.1,1585.3,3209.6,1599.6,3191.6,1596.2z"/>
<path d="M3234.4,1391.7c15.5,0.7,25.5,11,24,24.9c-1.7,16-18.4,29.1-35.2,27.6c-13.9-1.2-25.9-13.3-25.2-25.5
	C3198.9,1405.1,3217.8,1391,3234.4,1391.7z"/>
<path d="M3104.5,1316.8c-7.7-24.4-3.7-47.1,9.2-68.3c7.7-12.5,19.9-12.9,26-1.6c8.6,16,3.9,32.1-3,47.2
	C3130.9,1306.8,3124.8,1320.7,3104.5,1316.8z"/>
<path d="M2984.5,1285.8c1-11.8,2.7-27.7,20.9-32.9c5.2-1.5,13.4,0.7,17.7,4.2c8.8,7.3,7.2,27.9-2,43.1c-2.8,4.6-6.3,9.1-10.5,12.5
	c-12,9.7-23.4,5.3-26-9.9C2983.8,1298.5,2984.5,1294.1,2984.5,1285.8z"/>
</svg>
