<?xml version="1.0" encoding="utf-8"?>
<!-- Generator: Adobe Illustrator 24.3.0, SVG Export Plug-In . SVG Version: 6.00 Build 0)  -->
<svg version="1.1" id="Layer_1" xmlns="http://www.w3.org/2000/svg" xmlns:xlink="http://www.w3.org/1999/xlink" x="0px" y="0px"
	 viewBox="0 0 4000 4000" style="enable-background:new 0 0 4000 4000;" xml:space="preserve">
<path d="M3657.3,1662.3c-0.1,61.2-7.5,120.6-31,177.2c-7.8,18.9-6.1,35.7,4.1,53.8c103.8,182.9,92.5,365.7-4.5,546.5
	c-40,74.6-94.1,138.7-167.6,183.5c-16.7,10.1-15,25-15.3,40.2c-2,80-18.2,157-51.7,229.7c-70.8,153.6-184.2,257.6-351.3,297.1
	c-23.7,5.6-34.7,18.2-43.6,39.9c-80,193.7-224.8,306-430.8,341.5c-72.4,12.5-143.5,7.8-213.8-10.8c-20.7-5.5-35.2-1.9-51.2,12.2
	c-179.8,157.6-438.2,178.7-641.4,52.4c-17.9-11.1-33.8-25.7-49.3-40.1c-12.5-11.6-24.1-14.8-41.4-9.7
	c-143.6,41.6-280.7,20.9-410.4-49.6c-111.6-60.6-193.3-150.3-240.2-268.9c-11.7-29.5-27.6-44.7-58.5-52.6
	c-236.1-60.3-372.8-267.4-383.2-479.8c-1-20-5.1-35.4-22.3-48.6c-125.6-96.3-184.1-227-190.6-382.3c-4.2-101.4,20.4-196.8,73-283.8
	c14.2-23.5,12.3-41.7,0.6-65.4c-93-188.7-50.7-422.1,100.7-562.8c19.5-18.1,22.5-35.8,18.1-59.8c-28.1-154.1,10.8-293,102.1-417.1
	c74.5-101.1,175.6-166.7,296.2-201.1c26.4-7.5,41.2-20.2,51.2-46.4c85.2-223.8,305.6-363.9,543.4-342.2c41.4,3.8,66.4-5.6,94.4-35.1
	c67.7-70.9,153.6-112.5,248.8-133.9c158.2-35.6,304.3-5,438.1,85.2c18.4,12.4,35.7,27.5,50.6,43.9c13.8,15.2,28,18.9,47.1,14.1
	c139.4-35,269.3-8.8,390.5,64.3c95,57.2,164.1,137.5,202.1,242.6c8.6,23.9,21.8,34.8,47.3,39.9c173.7,35.1,293.6,137.2,365.1,298.2
	c27.3,61.5,39.6,126,38.2,192.9c-0.6,27.8,9.9,44.2,32.5,60.8C3563.2,1305.6,3650.7,1462.6,3657.3,1662.3z M922,728
	c-20,5.4-40.5,10.7-60.8,16.5c-196.1,56.4-314,187.6-362.8,383c-17.7,71-15.3,143,2.6,213.9c5.4,21.4,0.7,35.9-16.4,49.2
	c-15.8,12.3-30.7,25.9-44.1,40.8c-128.3,143.3-148.8,359.2-49.9,527.3c8.2,13.9,9.8,23.9-0.3,38c-65.7,92.1-91.4,196.2-85.2,307.8
	c8,144.3,64.1,264.9,184.8,350c18.8,13.2,25.6,28.5,27,49.9c2.2,31.7,4.1,63.7,10.1,94.9c36,188.9,189.2,341.6,375.1,373.9
	c19.2,3.3,29.1,12.2,35.5,29c8,20.9,15.8,42.1,26.1,61.9c96.5,185.9,250.6,282.3,459,293c51.5,2.6,100.8-9.2,149.3-25
	c19.8-6.5,34.5-4,50.6,11.7c94.4,91.8,211.2,127.6,339.5,123.7c95.6-3,186-30.7,265.1-87.7c22.9-16.5,45.8-33.6,65.9-53.3
	c16-15.7,31.2-18.4,50.9-11.1c13.2,4.9,26.8,9.3,40.7,11.7c185.7,31.8,345.6-17.2,476.7-154.2c49-51.2,83.2-111.2,103.6-179.1
	c5.9-19.7,12.9-36.2,38.4-39.7c101.2-13.6,185.4-62.5,255.1-134.5c96.1-99.3,144-220.3,143.1-358.6c-0.2-32.9,8.1-53.2,36.2-72.7
	c35.5-24.5,68.9-54.3,96.9-87.2c104.3-122.9,143-265.8,121.1-425.4c-8.6-62.9-27.3-122.4-65.3-173.7c-15.3-20.7-17.4-38.1-7.7-61.5
	c52.3-125.5,47-251.5-4.6-375.1c-46.7-111.8-120.6-202.1-228.2-261.7c-14.8-8.2-18.8-18.2-17.9-34.3c2.9-52,1.6-104-13.3-154.5
	c-56.2-191.2-181.4-307.3-378.1-343c-27-4.9-39.2-15.3-48.1-41.1c-81.8-236.5-333.3-353.9-530.3-309.9c-18.4,4.1-36.7,8.7-55.1,12.8
	c-14.9,3.4-25.5-1.2-37.6-12.1c-33.2-29.8-66.2-61.3-104.1-84.1c-107.7-64.8-225.2-80.8-347.9-56.3
	c-98.4,19.6-185.1,62.8-256.1,134.8c-15.5,15.7-28.5,34-42.2,50.5C1270.5,306.8,993.2,448.1,922,728z"/>
<path d="M3262.9,1211.2c41.4,29.5,82.1,53.9,117.5,84.4c114.7,99.1,181.1,222.1,177.1,377.4c-1.6,60.9-13.5,119.6-42.4,173.8
	c-9.1,17.1-11,30.9,2.3,48.3c64.2,84.2,90.8,180.9,85.2,285.6c-8.9,164-86.6,288.5-224.2,376.5c-6,3.8-12,7.6-18.3,10.8
	c-17.2,8.5-21.8,20.8-19.2,40.4c15.2,116.3-10.9,224.1-80.4,317.9c-73.7,99.5-170.9,164.7-297.1,179.8c-11.6,1.4-23,4-36.4,6.3
	c-3.9,16.4-6.5,32.6-11.5,48.1c-57.2,178-179.6,280.6-362.9,310.8c-79.6,13.1-157.8,4.9-232.2-28.1c-18.1-8-29-5.2-41.9,10.8
	c-158.4,196.8-479.1,209.9-649.7,16.4c-12.8-14.6-23.2-15.6-39.5-8.3c-199.7,89.8-421.8-1.2-529.3-151.1
	c-34.8-48.5-59.8-101.5-72.6-160c-5.8-26.6-8.2-29.1-33.8-32c-181-20.5-296-122.1-357.4-290c-17.7-48.5-23.8-98.4-21.1-149.7
	c0.6-11.7,0.1-23.4,0.1-36c-16.8-10.9-34.4-20.4-50-32.6c-127.3-99.7-177.3-231.5-158.3-390.2c9.7-81.2,36-156.4,93.2-217.5
	c13.9-14.8,9.6-25.7-0.6-40c-48.8-68-77.4-143.6-74.4-228c4.8-133.3,55.3-244.8,164.1-326.3c23.8-17.8,24.3-17.9,15.1-50.8
	c-24.2-86.4-24.9-172.4,4.6-257.7c62.8-181.8,193.2-281.8,380.5-311.4c17-2.7,26.9-5.9,30.9-25.6c36.8-180,172.6-310.9,352.6-343.3
	c61.8-11.1,122.1-5.4,182,10.9c30.1,8.2,29.9,8.7,46.5-14.6c165.1-232,506-247.5,690.6-31.4c21.1,24.7,21.2,25.1,53.2,13.6
	c196.2-70.9,403.1,23.1,491.1,166.7c23.1,37.6,35.9,81.6,52.6,123c4.3,10.7,5.6,22.6,8.6,35.2c128.4,4.7,239.4,46.5,321.9,147
	C3261.2,970.2,3288.5,1084.9,3262.9,1211.2z M2867.9,2884c102.5-3.5,203.9-49.4,268-159.2c48.1-82.3,56.8-171.1,30.7-263.2
	c-10-35.3-8.3-36.9,23.4-56c26.2-15.8,53.3-30.6,77.5-49.1c152.9-117.2,178.6-340.7,45.6-488.8c-39.7-44.2-39.3-44.5-4-90.6
	c69.7-91,86.6-192.1,54-300.9c-26.4-88-81.6-152.5-165.4-192.8c-38-18.3-35.3-19.8-27.4-60.4c7.8-40.3,18.3-81.8,15.7-122
	c-9.6-148.2-137.6-274.7-285.3-286.2c-26.8-2.1-54.1,1-81.2,2.2c-35.5,1.7-43.5-5.1-46.6-40.9c-0.4-4.7-0.4-9.4-0.7-14.1
	c-8.4-138-101.2-251.9-235.3-286c-85.3-21.7-167.8-17.2-246.1,29c-45,26.5-52.5,23.3-78-20.4c-29.4-50.2-69.3-89.5-120.4-116.8
	c-70.6-37.7-145.8-53.6-225.7-41.2c-112.7,17.4-201.8,69.3-253.3,175.3c-24.8,51-27.2,51.9-80.1,29.3c-1.1-0.5-2.2-0.9-3.2-1.4
	c-188.6-90.2-405.6,43.1-451.9,205.6c-9,31.5-13.1,64.5-18,97c-5.1,34-7.1,36.8-42.1,38.6c-13,0.7-25.9,0.9-38.9,1.4
	C814.5,878.9,613,1024.7,635.3,1270c3.8,41.5,13.6,81.1,32.3,118.7c15.3,30.7,11.2,40.3-17.9,57.5c-3,1.8-6,3.7-9.1,5.4
	c-162.7,88.3-218,293.9-119.7,450.7c16,25.6,38.4,47.4,59.3,69.7c21.8,23.1,23.2,26.6,8.1,55c-5.6,10.4-11.7,20.5-17.2,31
	c-66.1,128-31.9,293.8,80.2,380.9c22,17.1,48.9,28.1,73.6,41.7c25.9,14.3,27.2,18.2,23.3,47.8c-3.9,29.1-10.6,58.8-8.1,87.6
	c16.9,193.2,183.1,290.2,310.7,283c18.8-1.1,37.8-0.6,56.6-1.8c18.9-1.2,28.6,7.6,31.4,25.6c1.1,7,2.2,14,3.6,20.9
	c13.3,63.5,38.4,121.5,82.6,169.7c92.5,100.8,261.4,153.9,417.1,61.9c36.3-21.5,37.9-20.3,62.9,12.8c5.7,7.5,10.9,15.4,16.8,22.8
	c23.8,29.7,50.9,55.6,84,75c169.9,100,381.7,18.8,445.1-117.9c16.7-36.1,26.3-37.4,60.7-16c68.4,42.4,143.6,49.7,218.6,33.2
	c133.8-29.5,221.3-110.5,249.7-248.5C2791.3,2881,2791.6,2881.1,2867.9,2884z M2858,3027.5c28-2.8,52.4-5.4,77-7.8
	c56.1-5.5,108-23.4,155.6-53.5c97.1-61.5,148.2-152.5,166.3-263.7c2.8-17.3,0.4-35.5,0.4-53.3c-2.7-0.3-5.3-0.7-8-1
	c-5.3,12.7-10.6,25.5-15.8,38.2c-21,51.5-42.9,102.5-81.8,143.6c-72.8,77.2-161.8,120.6-268.4,125.5c-38.5,1.8-37.6,8.4-44.8,37.2
	c-11.5,46.2-31.6,88.9-61.5,126.3c-111.7,139.8-308.8,181-453.9,117.6c-26.1-11.4-27.8-11.2-42.8,12.9
	c-46,73.8-116.6,114-196.4,135.3c-158.1,42-296.3,5.8-407.4-118.3c-9.9-11.1-18.2-13.9-33.5-9c-39,12.6-78.5,26-118.9,31.9
	c-199.8,29.6-396.1-103.7-445.2-299.7c-1.7-6.6-4.8-12.8-6.2-16.5c-42.4-5.4-83-6.4-121.4-16.2c-118-30.1-201.7-103.4-254.5-212.7
	c-7.4-15.3-15.6-30.2-23.4-45.3c-2.4,0.7-4.9,1.4-7.3,2.1c0,8.8-0.5,17.7,0.1,26.5c11.1,167.3,156,314.4,337.6,312
	c50.1-0.7,50.2,0.2,60,48.3c0.5,2.3,0.8,4.7,1.3,7c17.3,81.3,50.1,153.8,111,213c106.5,103.6,265.4,131.8,399.5,68.5
	c18-8.5,38.6-24.6,54.3-21c17.3,4,31.2,25.9,44.9,41.5c167.2,189.7,449.4,145.9,562.2-25.1c3.2-4.9,7-9.5,10.5-14.2
	c23.8-31.2,23.7-31,60.8-13.6c21.3,10,42.5,20.9,64.8,28.2c175.7,57.7,415.2-28.3,468.3-268.5
	C2847.1,3078.5,2852.4,3053.4,2858,3027.5z M3463.8,1984.4c2.2,19.6,4.1,35.5,5.8,51.3c7.9,72.6,1.8,142.8-29.4,210.4
	c-39.1,84.7-94.4,154-177,199.8c-22.7,12.6-24.5,19.3-15.8,42.8c2.3,6.4,6.1,12.2,8.9,17.8C3462.5,2471.9,3591.4,2179,3463.8,1984.4
	z M463.4,2190c-1.9,4.2-4.7,8.2-5.4,12.5c-15.3,86.4-5.8,168.8,40.4,245.1c30.5,50.3,67.8,93.5,125,114.6c8.7,3.2,18.1,6.6,27.1,6.2
	c5.5-0.2,12.5-6.4,15.3-11.8c1.9-3.5-0.9-12-4.3-15.3c-8.5-8-18.3-14.7-28.1-21.2c-41.6-27.8-77.3-61.3-103.5-104.5
	C487.8,2346.3,466.9,2271.4,463.4,2190z M3450.7,1564.7c-2,17.3-5.1,34.6-5.9,52c-2.7,55.1-18.2,106.2-45.8,153.8
	c-7.6,13.2-15.3,26.4-22.8,39.7c-6.1,10.8-4.1,19.7,5.5,27.9c17.6,14.9,32.7,15,43.2-6.1c15.5-31.3,29.7-64.1,38-97.8
	C3476.7,1677.7,3476.8,1620.5,3450.7,1564.7z"/>
<path d="M1560.7,1688.1c0.5,74-56.6,131.5-131.5,132.4c-70.8,0.9-131.4-58.3-132-128.8c-0.7-77.8,51.7-131.2,129.5-132
	C1503.8,1559,1560.2,1613,1560.7,1688.1z M1469.2,1688.9c26.1,0.2,44.5-16.4,44.3-39.9c-0.2-18.8-16.6-35-36.8-36.1
	c-21.4-1.1-42.9,19.5-44.2,42.3C1431.5,1675.2,1446.2,1688.7,1469.2,1688.9z"/>
<path d="M2381.9,1822.1c-74.3-0.6-129.9-58.4-129.4-134.4c0.5-73.3,56.7-127.9,131.6-127.9c73.5,0,132,54.9,132,123.8
	C2516.2,1763,2458.2,1822.8,2381.9,1822.1z M2423.4,1692.4c23.6-0.6,42.8-17.5,42.9-37.8c0.1-20.3-19.8-39.4-41.4-39.5
	c-21-0.2-40.1,19-40.4,40.5C2384.2,1675.5,2402.6,1692.9,2423.4,1692.4z"/>
<path d="M2449,2007.3c-10.3-1.8-28.3-2.6-44.7-8.1c-45.5-15.2-59.6-61.3-29.2-98.8c12.9-16,30.1-30.7,48.5-39.8
	c46.6-23.1,96.5-37.4,148.8-40.7c26.1-1.7,51.7,0.5,74.9,14.8c37.9,23.3,44.9,66.5,14.8,99.2c-8.6,9.3-19.5,17.3-30.6,23.5
	C2577,1987.6,2518.4,2003.3,2449,2007.3z M2448.5,1968.8c0.4,1.3,0.9,2.7,1.3,4c40.7-11.3,81.6-21.6,121.9-34.3
	c17.7-5.6,35-14.2,50.8-24.2c23.3-14.8,21.9-37.7-3.5-48c-14.6-5.9-32.8-9.3-47.9-6.3c-40.3,8.1-79.9,19.4-119.3,31.2
	c-13.1,3.9-26.3,11.6-36.4,20.9c-7.7,7-16.5,21.3-14,28.7c3.4,10.1,16.3,17.9,26.5,24.6C2433.2,1968.8,2441.5,1967.8,2448.5,1968.8z
	"/>
<path d="M1242,1821c58.9,4.8,116.5,20.3,169.8,49.5c22.1,12.1,40.4,28.4,43.8,56.1c4.2,34.8-13.1,61.3-48.3,71.7
	c-43.3,12.8-87,7.7-128.9-3.6c-32.5-8.7-64.1-23.2-93.9-39.1c-36.6-19.5-48.8-45.7-42.4-77.2c5.6-27.4,34.2-50.3,70.2-55.6
	C1221.5,1821.4,1231,1821.6,1242,1821z M1348.3,1964.2c10.6-0.5,21.3,0.1,31.7-1.7c14.1-2.5,29-7.1,32.9-22.8
	c4-16.4-8.3-26.7-20.5-33.8c-50.9-29.7-106.6-43.8-165-46c-17.2-0.7-36,4.8-43.6,24.3c-5.1,13.2,4.8,28.2,26,41.6
	c4,2.5,7.9,5.3,12.2,7C1262.7,1949.1,1303.8,1963.5,1348.3,1964.2z"/>
<path d="M2089.8,1782.1c16.1,85.2-49,183-133.7,201c-105.2,22.3-201.2-39.5-223.5-144.6c-2.9-13.7-2.8-28.1-3-42.2
	c-0.2-12,6.2-20.4,18.4-22.3c13.3-2,19.1,7.1,22.1,18.1c5,18.2,8.1,37,14.5,54.6c20.4,56.4,72.1,91.8,130.2,90.7
	c61.7-1.2,110.1-39.9,125.3-100.4c2.6-10.3,3.8-20.9,6.2-31.2C2053.8,1773.8,2056.4,1772.5,2089.8,1782.1z"/>
<path d="M2346,2927.3c-40-0.4-68.6-28.9-69.2-68.8c-0.6-38.9,32.3-73.8,69.6-74c39.2-0.2,72.8,34.1,73.2,74.8
	C2420,2898.6,2388.5,2927.7,2346,2927.3z"/>
<path d="M1518.4,924c-39-0.7-65.2-30.3-64.4-72.8c0.7-38.1,32.9-70.9,69.3-70.7c39.5,0.3,72.3,33.5,71.5,72.4
	C1594,894.6,1561.6,924.7,1518.4,924z"/>
<path d="M1211.9,2457.7c-0.9,40.2-32.7,70-73.8,69.3c-37.7-0.7-65.4-29.7-65.4-68.6c0-40.1,32.5-72.8,71.1-71.9
	C1181.5,2387.4,1212.7,2420,1211.9,2457.7z"/>
<path d="M773.6,1757.7c-0.2-39.7,32.7-74.5,70-74c39,0.5,69.8,31.6,69.4,70c-0.4,39-32.8,70.5-73.1,71.1
	C801.5,1825.4,773.8,1797.4,773.6,1757.7z"/>
<path d="M2380.6,873.4c-41.7-0.2-69.2-27.1-69.8-68c-0.5-39.5,29.7-71.2,67.7-71c41.6,0.2,72.2,30.6,71.8,71.2
	C2450,846.2,2421.7,873.6,2380.6,873.4z"/>
<path d="M2667.7,2451.2c0,41.3-26.8,67.2-69.4,66.8c-39.2-0.4-67-28.1-66.7-66.4c0.3-38.8,31.3-70.6,68.5-70.3
	C2640.5,2381.6,2667.7,2409.8,2667.7,2451.2z"/>
<path d="M2602,1207.1c-3.8,2.6-9.4,9.6-15.5,10c-18.9,1.3-47.5-25.3-47.1-44.1c0.1-5.4,7.9-14.5,13.1-15.3
	C2564.7,1155.9,2600.7,1190.6,2602,1207.1z"/>
<path d="M2957.7,1093.1c8.9,29.5-0.9,57.5-22.4,68.3c-10,5-19.8-0.5-20.1-11.3C2914.5,1131,2934.2,1103.5,2957.7,1093.1z"/>
<path d="M1781.7,2904.8c-7.2-2.3-16.4-2.9-22.1-7.6c-5.2-4.3-9.3-13.3-9-20c0.2-4.6,8.2-11.8,13.6-12.6c10.1-1.6,21.4-1.6,31,1.6
	c7.4,2.5,12.8,10.8,19.1,16.5c-6,6.2-11.6,13-18.3,18.3C1792.7,2903.5,1787.2,2903.4,1781.7,2904.8z"/>
<path d="M3094.5,1973c7,11.5,14.2,21.3,19.3,32.1c5.4,11.6,3.9,23.5-6.8,31.9c-3,2.4-9.2,3.2-12.9,1.8
	c-15.4-5.6-25.4-43.4-15.1-56.2C3081.6,1979.4,3086.5,1977.9,3094.5,1973z"/>
<path d="M2908.3,2352c-2.5-3.9-9.8-10.5-10.3-17.5c-1-13.9,18.3-30,33.3-30.1c10.7-0.1,18.2,4.3,18.7,16
	C2950.7,2334.7,2930,2353,2908.3,2352z"/>
<path d="M3002.5,1418.9c6.8,24.2-7.3,37.9-19.4,51.2c-3.2,3.6-14.3,4.3-18.5,1.5c-4.4-2.9-7.2-11.9-6.7-17.9
	C2959.3,1436.6,2975.3,1424.2,3002.5,1418.9z"/>
<path d="M1365,1192.6c10.3,1.1,15.3,7.6,14.2,18.8c-1.5,15.3-16.5,31.2-29.1,30.2c-13-0.9-18.3-9-17-21.5
	C1334.7,1204.2,1348.8,1191.6,1365,1192.6z"/>
<path d="M2670.8,2756.8c1,21.6-13.2,44.2-26.5,43.1c-5.7-0.5-14.5-8.1-15.5-13.5c-3.2-18.6,15-41.7,30.2-39.4
	C2664.1,2747.7,2668.3,2754.5,2670.8,2756.8z"/>
<path d="M1135.3,1478.5c-5.6,4.9-13.5,15.3-23.8,19.3c-10.1,4-24-12.8-23.1-24.9c0.9-12.4,13.8-22.6,27.3-20.9
	C1127.3,1453.4,1135.5,1458.7,1135.3,1478.5z"/>
<path d="M3126.1,1423.6c-10-15.4-18.4-26-23.9-37.8c-2.2-4.7,0.4-16.3,3.7-17.7c6.2-2.5,16.1-2.3,21.7,1.2
	C3143.7,1379.6,3144,1395,3126.1,1423.6z"/>
<path d="M3012.6,1321.4c-19.4,0.6-35.3-15-33.1-29.9c1.1-7.1,8.8-17.1,15.3-18.8c12.4-3.1,29.2,15.4,27.5,29.6
	C3021.4,1309.9,3015.1,1316.7,3012.6,1321.4z"/>
<path d="M1861.4,2521.6c-28-3-39.3-13.4-35.9-31.7c2.2-11.7,9.3-18.9,21.8-17.3C1861.9,2474.4,1866.4,2489.8,1861.4,2521.6z"/>
<path d="M1698.1,2626.7c-8.4-8.8-17.1-13.8-18.6-20.5c-2.4-10.7,14.6-23.9,28.7-25c13.3-1,27.7,10.2,22.4,19.1
	C1724.5,2610.5,1711.3,2616.5,1698.1,2626.7z"/>
<path d="M1934.9,1276.5c1.2,19.3-9.6,33.9-22.1,32.5c-7.1-0.8-17-8.3-19.1-14.8c-4.5-13.8,8.4-31.8,21.2-30.1
	C1923.1,1265,1930.4,1273.5,1934.9,1276.5z"/>
<path d="M1022.9,1394.9c-4.7,4.1-11.9,15.4-20.6,16.7c-12.5,1.9-21.1-8.9-22.3-22.2c-1.2-13.4,4.9-23.1,18.4-25.8
	C1009.8,1361.2,1022.4,1374.7,1022.9,1394.9z"/>
<path d="M795.6,2406.4c-3.6-4.7-12.5-11.5-14.2-19.9c-2.9-13.6,12.6-26.6,26.7-25.1c12.3,1.3,19.1,8,18.1,20.9
	C825.3,2395.7,813.4,2407.1,795.6,2406.4z"/>
<path d="M918.3,2287.6c-11.8-1-19.7-12.7-17.8-25.9c2.1-14.9,12.4-19.2,25.3-18.8c11.3,0.3,16.8,7.1,16,18.7
	C940.8,2276.5,930,2288.6,918.3,2287.6z"/>
<path d="M1032.5,1257.8c-22.7,0.2-32.4-7.6-32.3-21c0.1-14.1,9.4-17.3,21-17.4c16.5-0.1,32.4,11.7,28.3,23.1
	C1046.7,1250.1,1036,1254.8,1032.5,1257.8z"/>
<path d="M2140,1095.7c-4.1,2.7-10.4,9.7-17.8,11.2c-13.7,2.7-27.3-8.5-27.2-20.5c0.1-12.2,7-19.5,19.3-20
	C2126.9,1065.9,2140,1078.4,2140,1095.7z"/>
<path d="M1653.5,2622.8c11.6,1.5,11.9,12.6,11.3,23.1c-0.8,13.2-8.8,24.2-21.6,21.9c-7-1.2-15-13.5-17-22
	C1623.2,2633.1,1636.9,2621.8,1653.5,2622.8z"/>
<path d="M1999.1,424.5c-0.1,11.9-8.4,16.9-19.8,18.1c-14.7,1.6-29.5-8.3-26.3-19.6c2.3-8.1,11.2-17,19.3-20.1
	C1983.8,398.5,1998.2,411.2,1999.1,424.5z"/>
<path d="M2024,1223c-19.4-1.4-33.5-15.3-29-25.9c2.9-6.9,12.6-14.6,20-15.2c12.7-1.2,23.8,7.3,22.2,21.1
	C2036.2,1211,2027.5,1218.1,2024,1223z"/>
<path d="M3188.2,2183.7c-14.4,9-22,16.6-30.8,18.4c-10.9,2.3-24.2-15.2-21.8-26.3c2.4-11.1,11.2-16.4,20.7-13.2
	C3165.8,2165.9,3173.8,2173.8,3188.2,2183.7z"/>
<path d="M1183.3,2695c9.8,14.3,19.1,22.3,20.4,31.4c1.7,11.2-7.8,19.6-20.1,18.7c-13.2-1-22.9-9.4-20.5-22.8
	C1164.4,2714.4,1173.4,2707.8,1183.3,2695z"/>
<path d="M1819.3,457.7c3.9,4,13.1,9.7,16.6,17.8c3.7,8.4-14.9,25.8-25,22.6c-7-2.2-14.8-10.6-16.9-17.8
	C1790.6,468.4,1801.5,457.8,1819.3,457.7z"/>
<path d="M1914.4,489.9c10.4,16.9,18.5,25.1,20.5,34.5c2.3,11.4-5.4,20.4-18.1,20.3c-12.9-0.1-19.2-9.4-17.4-21
	C1900.6,514.9,1906.5,506.9,1914.4,489.9z"/>
<path d="M1596.6,2956.7c0.2,16.6-10.8,20.4-23.3,21.2c-9.8,0.6-19.4-1.9-20.1-14.4c-0.9-14.7,7.9-21.1,21.4-22.5
	C1586.9,2939.8,1595.2,2944,1596.6,2956.7z"/>
</svg>
