<?xml version="1.0" encoding="utf-8"?>
<!-- Generator: Adobe Illustrator 24.3.0, SVG Export Plug-In . SVG Version: 6.00 Build 0)  -->
<svg version="1.1" id="Layer_1" xmlns="http://www.w3.org/2000/svg" xmlns:xlink="http://www.w3.org/1999/xlink" x="0px" y="0px"
	 viewBox="0 0 4000 4000" style="enable-background:new 0 0 4000 4000;" xml:space="preserve">
<path d="M1904.2,263.6c103.1,3.9,182,15.5,260.1,32.2c16.6,3.6,33.5,6.2,49.9,10.6c40.4,10.8,80.5,4.7,120.3-2.5
	c188.7-34.1,376.7-29.1,564.8,6.7c109.2,20.8,215,50.8,316,97.7c89.9,41.7,170.4,95.5,236.7,170.2c16,18.1,34.9,34.8,55.2,47.8
	c132.7,84.9,179.2,208.3,160.2,359.5c-14.4,114.2-46.4,224.8-76.9,335.6c-80.9,293.5-181.5,580.6-283.9,867
	c-110.6,309.4-224.9,617.6-338.3,926.1c-35,95.1-79.9,185.4-138.2,268.9c-67.4,96.5-160.7,154-273.7,179.3
	c-156.6,35-296.7-6-416.5-107.9c-73.5-62.5-139.3-134.4-206.2-204.3c-292.1-305.2-583.3-611.4-875.1-916.9
	c-111-116.2-222.3-232.1-334.2-347.4c-60-61.8-110.3-129.6-139.8-211.2c-5.8-16-12.2-32.1-15-48.7c-3.8-23.2-15.6-37.8-35.9-49
	c-45.9-25.3-87.1-56.9-124.1-94.3c-68.9-69.8-103.9-154.9-111.7-251.2c-10.9-135,40.2-245.1,140.2-334.1
	c7.1-6.4,14.3-12.8,22.1-18.3c39.1-27.4,68.1-62.7,91.6-104.4C585,816,630,766,680.4,721.2c128-113.9,271.9-200.5,436.1-251.8
	c67.3-21,136.6-32.3,206.4-39.6c63.4-6.6,122.5-24.9,179.2-53.6c80-40.5,163.5-72.7,251.4-90.5
	C1810.6,274.1,1869,268.6,1904.2,263.6z M1935.4,299c-54.2,6.9-108.3,11.5-161.6,21c-98.2,17.5-189.4,56.1-278.5,99.6
	c-44.5,21.7-91,34.1-139.9,41.4c-71.4,10.8-143.4,21.2-213,39.6c-129,34.2-244.5,97.8-351.6,176.7c-92.6,68.2-172.3,148.3-228.8,250
	c-11.5,20.8-30.5,37.8-47.7,54.9c-12.7,12.7-28.5,22.2-42.3,33.9c-50,42.6-92,91.1-116.1,153.6c-21.3,55-24.8,111.8-19.8,169.6
	c8.5,99.5,51.6,181.5,129.2,244c32.2,25.9,67.1,48.8,102.5,70.1c20.3,12.2,31.6,26.7,34.4,49.7c1.7,13.6,5.7,27,9.7,40.2
	c19.7,65.5,55.9,121.8,101.5,171.7c63.2,69.1,128,136.7,192.5,204.6c161.4,169.6,322.9,339.1,484.6,508.5
	c149.1,156.3,298,312.9,447.8,468.5c101.8,105.8,203.3,212,308.2,314.8c100.3,98.2,223.4,136.7,362.6,120.1
	c126.1-15.1,227.2-73.8,299-179.8c56.5-83.3,98-174.4,133.1-268.1c83.2-222,165.1-444.5,246.3-667.3
	c104.5-286.7,204.9-574.8,297.4-865.6c53.9-169.2,100.8-340.4,138.2-514.1c12.1-56.4,19.1-113.5,9-171.1
	c-15.2-86.7-62.2-151.9-134.7-200.8c-25.4-17.1-51.2-35.6-71-58.6c-80.9-94.1-185-152.5-297.9-196.8
	c-112.5-44.2-230-67.6-350.2-80.4c-138.4-14.8-276.1-13.2-413.6,7.5c-50.5,7.6-100.8,17.9-152.2,7.4c-35.4-7.2-70.6-15.7-106.3-21.3
	C2049.6,313.8,1992.7,306.9,1935.4,299z"/>
<path d="M2463,3483.7c-104.4-1.1-190.2-30.3-260-95.1c-74.8-69.5-146.6-142.2-217.4-215.7c-182.4-189.3-363.4-379.8-545.1-569.7
	c-212.5-222.3-425.7-443.9-637.1-667.2c-38.6-40.7-72.3-86.4-104.7-132.4c-30.5-43.2-47.8-92.6-47.6-146.5c0-16-6.8-24.6-20.4-32.3
	c-38-21.3-76.3-42.4-112.3-66.9c-137.2-93.4-189.8-316.9-50.6-461.8c27.9-29,60.5-53.5,89.8-81.4c18.4-17.5,38.5-34.9,51.1-56.3
	c84.5-144.5,208.9-244.4,353-323.8c111.6-61.5,230.6-97.8,356.9-111.2c78.9-8.3,154.2-27,225.5-64c97.9-50.9,202.4-83,312.1-97.3
	c61.7-8,123.2-5.8,184.3,5.1c65.9,11.8,131.7,24.3,197.6,36.1c45,8.1,89.3-2.1,133-9.5c170.8-29,340.6-26.2,510.8,6.3
	c118.9,22.7,233.7,55.8,340.3,113.9c65.9,35.9,124,81.7,173.9,138.4c18.6,21.1,42,39.2,66.2,53.9c63,38.2,102.5,91.9,116.2,163.9
	c8.7,45.7,1.8,91.1-6.7,136.3c-29.4,156-73.6,308.2-119.4,459.9c-97.9,325-213.3,644.1-328.5,963.2
	c-72.2,200.1-145.4,399.8-219.3,599.2c-35.9,96.8-76.3,191.9-132.8,278.9C2697.2,3422.5,2591.2,3481.6,2463,3483.7z M3316.2,1618.3
	c5.7-12.1,11.5-22.1,15-32.8c8.5-26.3,16.3-52.8,23.7-79.4c42.6-153.6,85.7-307.2,127.1-461.1c9.9-36.8,15.9-75,20.1-112.9
	c7.1-64.6-14.7-118.7-71.5-152.7c-34.4-20.6-71.4-38.2-109.4-50.7c-74.1-24.3-151.3-33.8-229-38.3c-119.3-7-238.3-2.7-357.1,7.8
	c-59.3,5.2-118.9,10.7-177.1,22.1c-145.6,28.6-284.2,78.6-420.1,138.6c-119.7,52.8-222.4,127.6-315.7,218.4c2.4,2.7,4,5.9,6.5,7.1
	c36.9,17.7,53.7,50.6,64.1,87.2c20.8,73.2-30.5,172.2-130.3,164.3c-22.9-1.8-25-4.2-23.7-31.6c14.9-2.6,30.6-4.6,45.9-8.2
	c67.4-15.8,96.4-92.6,56.7-149c-23-32.7-50.5-37.2-80.8-11.4c-30,25.5-59.1,52.1-87.9,78.9c-74.8,69.6-149.3,139.4-223.6,209.5
	c-15.8,14.9-29.9,31.5-44.9,47.4c71.5,61.1,174.2,40.9,214-38.5c2.9-5.7,5.5-11.5,8.5-17.2c5-9.5,13.4-16.2,23-10.1
	c4.9,3.2,8.1,14.8,6.5,21.2c-7.5,30.4-21.2,57.8-46.2,78.3c-61.9,50.7-150.8,54.7-217.1,9.8c-5.9-4-12.5-7.1-19.3-10.9
	c-5,4.3-9.5,7.3-12.9,11.1c-79.3,89.6-148.9,186.1-201.3,294.1c-43.4,89.3-71,182-61.4,283.3c2.7,28.2,11.6,50.1,31.3,70.4
	c99.2,102.4,197.4,205.8,296,308.8c15.8,16.5,32.1,32.4,51,51.5c2.5-13.4,3.4-21.6,5.6-29.6c9.8-36.2,41.3-63.5,77-67.1
	c37.2-3.8,67.9,13,86.9,47c18.7,33.5,17.7,67,1.6,100.9c-13.8,29-36.2,48.1-70.2,54.8c4.8,6.4,6.9,10.1,9.7,13
	c58.2,60.7,116.3,121.3,174.7,181.8c142.6,147.7,285.2,295.5,428.3,442.8c22.9,23.6,47.5,45.8,72.7,67
	c48.4,40.8,104.5,66.7,167.7,70.9c115.7,7.7,207.9-36.6,271.8-134.1c42.1-64.2,74.6-133.8,101.9-205.5
	c69.3-181.8,139.5-363.3,205.5-546.4c100.5-279.1,203.3-557.4,290.8-841.1c2.1-6.8,3.2-13.9,4.6-20.2c-4.2-3.2-6.4-5.6-9.2-6.9
	c-89.1-39.2-109.4-153.2-27.6-230.5c23.1-21.9,51.7-29.8,87.2-19.5c-23.7,18-45,32.1-63.9,49
	C3237.5,1497.3,3248.4,1584.9,3316.2,1618.3z M626,1533.4c1.8-1.5,3.7-2.9,5.5-4.4c-3.2-14.2-5.8-28.5-9.6-42.5
	c-18.5-67.4-17.2-134.9,0.9-201.7c27.5-101.2,87.2-181.1,169-245.1c20.7-16.2,42.4-31.3,63-46.4c-22.1-71.9-13-112.1,31.5-144.1
	c17.8-12.8,37.9-18.5,59.9-18.5c29.4-0.1,52.5,13.5,71.6,32.6c4.1-1,6.5-1.1,8.1-2.2c5.3-3.5,10.7-6.9,15.6-11
	c100.3-85.7,219.5-123.9,348.2-134.4c130.2-10.6,260.9-15.1,391.1-25.9c133.5-11.1,266.8-24.6,399.7-41.1
	c92.4-11.4,184.1-15.8,276.6-4.3c33.7,4.2,67.9,7.6,101.7,6.5c98.9-3.3,197.6-9,296.4-14.1c10.1-0.5,20.1-3.6,28.8-5.2
	c13.4-56.8,53.9-81,108-66.7c30.1,8,54,25.3,68,53.6c7.6,15.3,18.8,19.9,35.4,21.6c60.2,6.4,120.1,14.9,180.2,22.4
	c5.5,0.7,11.1,0.1,21.8,0.1c-7.1-6.4-9.9-9.2-13.1-11.7c-77.9-61.1-164.7-104.8-259.2-134c-104.1-32.2-210.5-50.9-319.1-59.8
	c-117.5-9.7-233.7-1.2-349.7,17.1c-12.1,1.9-21.9,6.2-26.2,19.6c-19.2,59.3-63.5,88.5-122.3,98.1c-51.8,8.5-102,3.6-147.1-26.5
	c-22.9-15.3-25.1-25.8-11.2-56.7c10.6,6.9,21.4,12.6,30.7,20.3c51.3,42.2,141.2,34.6,192.3-9.8c9.3-8.1,19.1-16.7,15.7-32.5
	c-5.9-1.1-11-2.9-16.2-3c-70.6-1.7-139-18.6-207.9-31.4c-166.6-30.9-324.2-3.3-473,74.3c-68.9,35.9-140.1,59.4-217.2,69.4
	c-64.2,8.3-128.6,18.3-191.2,34.5C1034.7,668.9,908.2,747.9,796.2,851c-35.4,32.6-68.5,67.5-91.3,110.1
	C672,1022.6,625.8,1071,569.3,1111c-30.6,21.6-55.5,49.7-74.9,82c-21.9,36.6-33,76.4-28,119c9.3,78.8,43.4,143.9,109.9,189.8
	C592.5,1512.9,609.4,1522.9,626,1533.4z M1040.2,2059.6c1.2-10.6,2-19.8,3.3-29c3.3-24.2,4.8-48.9,10.6-72.4
	c26.7-108.5,74.6-207.7,135.5-300.8c46.7-71.5,103.9-134.3,161.2-197.3c136.9-150.6,290.7-283.3,440-420.8
	c4.9-4.5,8.5-10.2,15.8-19.1c-12.4,0-19.6-0.3-26.7,0c-140.3,6.8-279.2,25.8-417.4,50.6c-146.3,26.2-278.9,81-392.3,179.1
	c-71.8,62.1-139.8,127.4-190.6,208.8c-63.8,102.2-77.7,244.4,22.4,354.8c74.2,81.9,151.4,161,227.4,241.2
	C1031.3,2056.7,1034.9,2057.2,1040.2,2059.6z M774.1,1373.3c9.4-8.4,18.4-15.1,25.8-23.2c27.4-29.7,53-61.1,81.5-89.6
	c124.7-124.9,275.2-203.3,447.8-235.8c163.1-30.7,327.6-53.2,493.8-59.1c28.6-1,54.1-8.5,77.8-24.4c35.4-23.6,71.3-46.3,107.1-69.3
	c11-7.1,19-15,22.5-29.1c5.2-20.8,19.6-29.6,41.1-23.2c17.5,5.1,30.8-0.2,45.6-6.2c86.5-35.4,173.3-70.4,259.9-105.6
	c6.2-2.5,11.8-6.4,17.6-9.6c-11-5.7-21.3-8.1-31.4-7.4c-74.3,4.6-148.6,8.5-222.7,15.3c-86.8,7.9-173.2,21-260.2,27.4
	c-148.5,10.9-297.4,18.2-446,27.5c-127.9,8-247,41.3-350.5,120.8c-92.8,71.2-187,140.6-279.8,212c-57.1,43.9-93.9,103.1-122.1,168.8
	c-35.2,82.1-30.8,163.7-1.2,245.7c2.2,6.1,6.5,11.4,10.8,18.7c18.4-38.2,36-73.2,51.7-108.9c2.5-5.7-1-16.7-5.4-22.5
	c-23-30.6-24.5-62.1-8.5-96c4.9-10.3,8-22,9.4-33.3c3.9-31.6,10-36.6,44.2-31.3c6.1,15.8,1.2,30.6-5.5,45.3c-5.7,12.6-12,25-16.5,38
	C755.3,1335.9,754.7,1353.5,774.1,1373.3z M1566.1,2616c16.4-18.6,33.9-34.6,46.7-53.8c21.8-32.8,9.5-76.3-23.8-93.1
	c-29.5-14.9-58.9-1.1-76.7,35.2c-5.4,11.1-12.6,21.4-21.2,35.7C1515.1,2564.3,1540.1,2589.6,1566.1,2616z M886,966
	c37.1-20.9,67.2-45.2,95.1-72.8c-22.5-26.4-41.5-29.5-68.4-13.7C880.8,898.2,871.6,923.7,886,966z M3021.3,632
	c-11.4-28.5-30.8-33.8-53-32.6c-22.2,1.2-43.5,5.1-54.4,32.6C2950.2,632,2983.6,632,3021.3,632z"/>
<path d="M2805.8,2134.5c0.3,59.5-47.2,106.2-108.4,106.7c-58.4,0.4-111.4-50.4-110.6-105.9c0.9-60.6,48.2-109.8,105.9-110.2
	C2756.6,2024.6,2805.5,2072,2805.8,2134.5z M2731.4,2133.7c19.5-0.6,33.4-14.1,32.6-31.6c-0.9-18.1-17.4-34.3-35.4-34.6
	c-17.9-0.3-30.1,14.1-29.1,34.2C2700.5,2121.9,2712.8,2134.2,2731.4,2133.7z"/>
<path d="M1918.7,2113.6c59.4,0.6,105,44.7,104.8,101.2c-0.2,65-47.6,114.3-108.6,113c-58.7-1.3-108.9-51.5-108-108
	C1807.8,2158.7,1856,2112.9,1918.7,2113.6z M1945.8,2220.5c19.7-0.7,36.7-15.4,36.8-32c0.1-17.9-16.3-34.4-34.3-34.3
	c-18.6,0.1-34.4,18.3-33.5,38.3C1915.7,2210.6,1927.3,2221.1,1945.8,2220.5z"/>
<path d="M2374.8,1765.2c0.5,69-39.7,126.4-100.4,143.4c-63.7,17.8-137.5-10.2-170.1-64.4c-51-84.9,3.8-198.8,103.8-215.6
	C2302.6,1612.6,2374.1,1671.1,2374.8,1765.2z M2234.1,1874.9c73-1.8,103.5-51.7,106.7-114.1c2.7-51.6-49.9-100.3-103.6-99.4
	c-62.7,1.1-114.9,52.3-115.2,112.8C2121.8,1832.6,2169.4,1875.3,2234.1,1874.9z"/>
<path d="M2602.3,1345.7c1.8-78.2,54.3-133,125.8-131.2c72.9,1.8,127.4,59.5,125.2,132.6c-2.1,71.7-64.2,130.5-135.5,128.3
	C2649.1,1473.4,2600.6,1418.8,2602.3,1345.7z M2641,1347.9c-0.5,52.5,31.2,88.7,78.2,89.1c53.8,0.4,95.9-42.4,95.8-97.3
	c-0.1-48.4-38.8-88.5-85.3-88.6C2680.6,1250.9,2641.5,1293.6,2641,1347.9z"/>
<path d="M2997.4,2032.2c-83.6-0.7-153.4-52.3-183.9-132.2c-30.7-80.6-16.2-155.2,33.3-223.2c11.9-16.4,31.7-27.7,49.3-39
	c9.4-6,24.1-9.7,31.6,2.6c8.3,13.5-4.4,21.4-14.1,27.6c-47.6,30.4-70.2,75.3-77.2,129.7c-9.3,72,27.7,144.6,90.1,180.4
	c51.2,29.4,145.2,25.2,176.8-51.2c0.8-2,2-3.8,3-5.6c6-10.3,12.2-22.4,26.6-15.1c12.9,6.6,11.7,20.2,7,31.1
	c-22.9,53.5-57.5,84.6-122.5,93.6C3009.1,2032.3,3000.5,2032,2997.4,2032.2z"/>
<path d="M2171.4,3153.9c11.4,0,22.1-1.6,32.1,0.3c57.7,10.5,124.7-42.4,112.9-123.7c-14.1-97.4-108.2-132.9-185.1-90.2
	c-14,7.8-23.8,23.5-35.2,35.9c-7.4,8.1-10.9,22.9-26.5,17c-11.2-4.2-12.1-19-2.1-36.5c22.5-39.3,55.6-62.9,101-69.7
	c132.5-19.9,213.4,102.7,178.1,213.3c-23.7,74-92.9,97.7-157.5,88.2C2172.8,3186.1,2165.2,3176.2,2171.4,3153.9z"/>
<path d="M2401,1091.4c66.3-6.4,121.4-30,146.6-98c1.5-4,2.3-9,5.1-11.5c4.3-3.8,10.6-8.7,15.2-7.9c5.1,0.8,11.2,6.7,13.1,11.9
	c2,5.3,0.4,12.6-1.3,18.5c-10.6,35.6-29,66.1-59.1,88.7c-60.2,45.2-156.2,49.4-216.8,9.6c-56.2-36.9-74.3-111.3-39.1-168.3
	c11.5-18.7,28.2-34.3,43.3-50.6c4.9-5.3,11.9-10.7,18.6-11.6c8.3-1.1,20-0.6,25.4,4.4c9,8.3,1,16.9-6.2,24
	c-14.2,14.3-29.4,27.9-41.5,43.8c-20,26.5-24,56.8-11.1,87.6c16.3,38.8,51,51.8,88.7,59.3C2388,1092.4,2394.6,1091.4,2401,1091.4z"
	/>
<path d="M1485.8,2241.6c-57.8-0.3-107.6-51.9-107.9-112c-0.3-59.8,44.8-104.6,104.8-104.1c56,0.5,105.5,53.2,104.6,111.5
	C1586.3,2197,1542.8,2241.9,1485.8,2241.6z M1470.5,2204.8c35.6,0.6,63.5-15.7,74-42.1c11.5-28.8,1.7-64.9-23.6-86.3
	c-20-17-47.6-19.5-71.3-6.5c-25.6,14.1-36.8,35-30.8,63.5c3.7,17.4,10.3,34.4,17.4,50.9C1442.8,2199.2,1455.6,2206.2,1470.5,2204.8z
	"/>
<path d="M2781.2,2390.5c-11.5-1.8-23.3-2.3-34.4-5.6c-38.1-11.1-53-45.5-33.8-80.4c6.4-11.7,15.8-23.7,26.9-30.7
	c43.4-27.6,89.8-49.2,142-52.5c17.3-1.1,36.6,1.8,52.4,8.7c30.8,13.4,39.5,45.6,22.6,75c-5.2,9-12.5,17.3-20.3,24.3
	C2901.7,2360.6,2828.4,2388.4,2781.2,2390.5z M2766.1,2354.3c54.7-2.8,97.2-22,138-45.3c22.8-13,28.8-24.2,24.2-36.5
	c-5-13.4-21.6-20.1-44-17.5c-4.2,0.5-8.5,1.2-12.5,2.5c-25.1,8.6-50.7,16-75,26.5c-15.3,6.6-29.2,17.2-42.7,27.3
	c-10.1,7.6-15.6,20.2-8.4,30.9C2750.7,2349.6,2762.5,2352.3,2766.1,2354.3z"/>
<path d="M1800.5,2339.6c34.1,7.4,68.4,14,102.2,22.5c19.9,5,36.8,16.3,48.8,33.8c19.9,29,14.9,59.4-16,75.8
	c-17.3,9.2-37.9,15.7-57.3,16.8c-51.5,2.7-101.6-6.3-148.6-29c-5.7-2.7-11.2-6.3-15.9-10.4c-30.7-26.2-27.9-66.6,6-88.8
	C1737.9,2348.4,1760.8,2343.6,1800.5,2339.6z M1849.7,2456.3c22.2-4,39.4-5.1,55-10.7c8.5-3.1,18-13,19.9-21.4
	c1.3-5.6-8.6-16.7-16-20.8c-45-25.1-94-31.7-144.5-25.1c-21,2.7-35.2,15.1-34.7,27.4c0.8,18.2,16.3,25.1,29.7,29.1
	C1790.2,2444,1822.3,2450,1849.7,2456.3z"/>
<path d="M2771.3,2896.8c-13.8-14-22.8-22.6-31.2-31.8c-34.2-37.4-76.8-43.4-122.9-31c-34.7,9.4-56.9,33.1-62.6,69.2
	c-6.3,40-0.2,77.6,34.5,103.2c15,11,34.2,16.4,51.6,23.9c6.8,2.9,14.7,3.6,21.1,7c11.2,6.1,10.6,19.8-1.5,24.5
	c-7.5,2.9-16.7,3.7-24.8,2.8c-61.9-7.1-116.6-64.7-120.8-126.4c-4.6-67.8,33.9-124.6,98.5-142.3c50.9-13.9,97.4-2.2,136.7,32.4
	C2767,2843.4,2781.2,2862.2,2771.3,2896.8z"/>
<path d="M2328.3,2440.6c-76.7,0.2-138.9-52-152.6-127.9c-0.6-3.1-1.3-6.3-1.5-9.4c-0.6-11-0.8-21.9,13.7-24.4
	c12.7-2.1,19.7,3.7,24,15.4c6.6,17.9,11.8,36.8,21.6,52.8c35.3,57.9,106.3,70.8,160.5,31c20.8-15.3,33.3-35.6,37.6-60.8
	c3-17.8,4.9-35.8,7.2-53.7c1.2-9.4,4.5-16.7,15.4-16.5c10.2,0.2,19.2,3.2,21.8,14.6c1.2,5.1,1.6,10.6,1,15.9
	c-1.8,16.9-2.8,34-6.7,50.4C2453.5,2400.5,2402.5,2440.4,2328.3,2440.6z"/>
<path d="M1664,1557.4c2.2,14.8,4.6,27.1,5.8,39.6c2.6,24.9,14.9,43.6,34.3,58.7c67.1,52.2,172.9,26.4,208.5-51.1
	c3.1-6.8,5.5-13.8,8.5-20.7c4.2-9.7,11.2-16.5,22.3-12.8c11.2,3.8,11.9,14.1,10.1,24c-1.3,7.3-3.3,14.5-6,21.4
	c-27.5,71.9-96.8,109.7-172.4,105.6c-32.3-1.8-62.8-11.1-89.5-30.3c-35.4-25.5-52.3-60.5-52.5-103.8
	C1633.2,1571,1640.3,1559.9,1664,1557.4z"/>
<path d="M3068.4,1015.7c0-14.3-0.3-26.7,0.1-39.2c1.6-50.9-28.2-84.2-77.2-86.1c-54.5-2.1-92.2,31.1-92.3,82.4
	c0,12.6,2.7,25.2,4,37.9c1.1,11.3,1.9,22.5,2.9,33.9c-25.3,1.3-31.8-1.4-37.9-21.1c-15.3-49-8.6-95.1,25.8-134.2
	c32.6-37,74.7-46.6,121.7-34.7c64.9,16.5,103.2,77.1,87.8,137.6C3099.2,1008,3092.5,1019.8,3068.4,1015.7z"/>
<path d="M2486.2,801.2c42.4,0.2,85.9,33,95.8,66.9c3,10.3,2.4,19.4-8.2,24.3c-10.2,4.8-15.6-2-19.9-10.1
	c-13.4-25.5-35.6-38.5-63.1-43.6c-1-0.2-2.1-0.5-3.1-0.7c-13.4-1.8-23.9-9.7-20.2-22.6C2469.6,808.1,2482.5,803.8,2486.2,801.2z"/>
<path d="M1852.5,1416.4c28.2,3.1,50.4,14.4,67.8,34.1c5.4,6.1,10,14.4,11,22.2c0.8,6-3,14.6-7.7,18.8c-2.9,2.6-13,1.3-16.9-1.9
	c-21-17.1-44.2-28-70.6-33.8c-6.5-1.4-16.6-11.3-15.8-15.6c1.5-7.9,8.7-15.9,15.6-21.3C1840.2,1415.5,1848.1,1416.9,1852.5,1416.4z"
	/>
<path d="M3076.4,1615.6c28,6.1,49.6,15,64.1,34.6c4.2,5.6,2.7,15.5,3.8,23.4c-7.7,0.7-16.5,4.1-23,1.6
	c-17.7-6.6-35.4-14.4-51.2-24.6c-6-3.8-9.7-16-8.9-23.7C3061.7,1622,3072.6,1618.2,3076.4,1615.6z"/>
<path d="M3349.9,1073.2c-22.8-9.7-43.8-18.2-64.4-27.6c-9.5-4.4-15-12.8-9.8-23.3c4.7-9.6,13.6-13.4,23.9-8.9
	c16.3,7.2,33.3,13.7,48.2,23.2C3361.6,1045.2,3362.5,1058.4,3349.9,1073.2z"/>
<path d="M2034.2,1120.2c3.5-13,5.5-22.4,8.7-31.3c3.5-9.8,11-18.5,21.3-13.5c6.9,3.4,13.8,13.6,14.5,21.3c0.9,9.9-2.2,21.8-7.6,30.2
	c-4.2,6.5-15.6,13.1-22.2,11.7C2042.6,1137.4,2038.4,1125.9,2034.2,1120.2z"/>
<path d="M1262.2,1896c-2.6,23.4-15.9,36.3-33.3,45c-12.8,6.4-23.8-2.1-22.2-15.8C1209.6,1900.8,1234.3,1886.7,1262.2,1896z"/>
<path d="M2972.4,1156.3c-18.2-0.2-29.6-8.2-30.4-21.4c-0.8-11.7,9.4-21.3,22.6-21.4c17.1-0.1,36,14.2,34.3,26.7
	C2996.9,1156.1,2984.5,1156.2,2972.4,1156.3z"/>
<path d="M2749.3,2955.7c0.3-18.5,9.9-31,24.1-31.3c12.2-0.2,19.6,8.7,19.5,23.4c-0.1,15.8-12.2,31.1-25.1,31.8
	C2756,2980.3,2749,2971.2,2749.3,2955.7z"/>
<path d="M1177.5,2046.6c1.1-4.6,0.9-10.9,4-14.4c5.1-5.8,12.2-9.9,18.5-14.6c4.5,6.2,10.9,11.8,13,18.7c2,6.6,1.4,15.2-1.3,21.6
	c-2.9,6.8-9.6,12-14.6,17.9c-5.7-5.4-11.9-10.3-16.7-16.3C1178.1,2056.5,1178.5,2051.4,1177.5,2046.6z"/>
<path d="M3007.4,783.9c-13.7,0.2-23.6-8.2-23.4-19.8c0.2-13.1,11.6-24.7,24.4-23.4c12.4,1.3,22.1,7.3,24,20.7
	C3034.1,773.1,3021.9,783.6,3007.4,783.9z"/>
<path d="M3359.8,1151.5c-4.2,2.9-10.5,10.3-17.9,11.7c-12.7,2.4-22.9-8.5-21.7-20.8c1.1-11.9,7.9-19.7,19.8-21.2
	C3349.2,1120.1,3359.9,1134.2,3359.8,1151.5z"/>
<path d="M2497.3,1671.1c18.1,1,25.6,6.7,26.3,19.7c0.6,12.2-7.2,20.9-18.5,21.1c-12.7,0.1-25.7-10.7-22.3-20.8
	C2485.5,1682.6,2493.6,1675.9,2497.3,1671.1z"/>
<path d="M1583.3,678.6c-30.7,7.1-38.1,3.9-45.9-19.7c-8.1-24.3-6.2-48.4,4.7-71.3c27.1-56.9,108.7-88.1,166.4-63.4
	c10.4,4.5,20.4,11.5,28.2,19.7c3.5,3.7,3.1,14.1,0.5,19.6c-1.8,3.8-10.7,6.5-16,5.9c-8.2-0.9-16-5.4-24.1-7.9
	c-26.2-8.1-52.3-7.7-77.9,2.7c-29.7,11.9-58.7,47.9-42.5,87.7C1580.1,660.2,1581.2,669.6,1583.3,678.6z"/>
<path d="M2820,562.8c-15.3,0.3-25.3-6.5-25.7-17.4c-0.4-13.3,14.9-26,30.8-25.6c13.4,0.4,18.6,8.5,19.2,20.5
	C2845,554.3,2835.9,562.4,2820,562.8z"/>
<path d="M574.5,1304.9c0.9,16.3-8.6,29.2-20.2,30c-12,0.7-20.5-8.6-20.8-22.8c-0.3-13.8,7.4-23.2,20.2-23.7
	C566.4,1287.7,573.6,1294,574.5,1304.9z"/>
<path d="M1966.7,593.3c12.8-10.4,25-8.5,36.7-2.1c10,5.5,17,14.2,11.1,26.1c-6,12-17.5,11.1-27.6,6.8
	C1974.9,618.8,1965.3,610.6,1966.7,593.3z"/>
<path d="M1160.5,1665.4c-15,26.6-33.7,23-50.8,18.1c-58.3-16.8-91.9-57.7-108.7-114.5c-29.6-100.3,57.8-212.2,149.3-233.2
	c32.7-7.5,65.1-9.3,97.6-0.2c37.9,10.7,66,33.5,81.4,70.2c3.2,7.7,5.9,16.4,5.5,24.4c-0.3,6.3-5.8,12.3-9,18.4
	c-5.8-3.6-14.5-6-16.9-11.2c-13.8-30.6-34.1-52.9-67.2-63.3c-37.7-11.9-74.3-6.9-108.5,9c-54.3,25.2-90,67.2-98.5,128
	c-8.3,59.6,26.7,113.9,86.1,137.5C1133.1,1653.7,1145.3,1659,1160.5,1665.4z"/>
<path d="M1556.5,1169.6c-2.8-2.2-13.2-6.4-15.1-13c-3.5-12.4,17.1-27.3,33.1-26.6c12.2,0.5,16.8,7.8,17.1,18.5
	C1592.1,1162.8,1581.9,1170,1556.5,1169.6z"/>
<path d="M1012.3,1897.5c-0.8,18.4-17.6,33.9-30.3,32.7c-9.2-0.9-16.5-4.5-15.8-15.6c0.8-14,16.1-31.6,28.2-29.3
	C1001.8,1886.7,1008,1894.4,1012.3,1897.5z"/>
<path d="M984.6,1408.2c-0.6,12.6-15,28.4-26.1,27.6c-11-0.7-17.2-6.7-17.2-18.4c0.1-15.8,10.3-26.9,25.1-26.4
	C977.4,1391.4,984.7,1396.1,984.6,1408.2z"/>
<path d="M1202.8,949.5c-0.9-26.4,21.5-52.3,44.1-50.3c7.4,0.7,17.7,5.8,20.3,11.8c2.3,5.2-2.4,16.1-7.3,21.3
	C1245.4,947.7,1227.1,954.9,1202.8,949.5z"/>
<path d="M857.2,1199.7c-4.8-20.1,3.6-35.2,15.4-48.7c7-8,16.1-9.7,25.1-2.5c9.1,7.2,14.6,16.7,7.2,27.2
	C894,1191.3,880.2,1203.4,857.2,1199.7z"/>
<path d="M1902.9,799.2c3.6,3.8,12.9,9.5,15.8,17.5c3.8,10.1-13.6,25.6-26,25.7c-10.8,0.1-20.6-9.3-20.3-19.5
	C1872.7,810,1883.6,799.5,1902.9,799.2z"/>
<path d="M1382.6,918.1c-0.7,12.2-12.7,22.8-26.1,22.5c-11.1-0.2-18.2-5.1-17.4-17.3c0.9-13.2,12-22.8,25.8-22.6
	C1376.1,900.8,1383.1,907.8,1382.6,918.1z"/>
</svg>
