<?xml version="1.0" encoding="utf-8"?>
<!-- Generator: Adobe Illustrator 24.3.0, SVG Export Plug-In . SVG Version: 6.00 Build 0)  -->
<svg version="1.1" id="Layer_1" xmlns="http://www.w3.org/2000/svg" xmlns:xlink="http://www.w3.org/1999/xlink" x="0px" y="0px"
	 viewBox="0 0 4000 4000" style="enable-background:new 0 0 4000 4000;" xml:space="preserve">
<path d="M293.6,1788.3c-2-7.4-2.9-13.9-5.4-19.6c-35.3-80.7,16.1-168.4,102.1-192.9c31.7-9,66.3-8.3,99.6-11.7
	c7.3-0.7,14.7-0.1,21.6-0.1c31-127.7,188-241.6,332.9-219c-10.4-14-18.5-24.5-26.2-35.3c-51.9-72.3-85.8-150.5-81-241.9
	c3.5-67,24.3-127.3,66.1-180.2c2.7-3.4,4.9-7.1,7.2-10.7c0.5-0.9,0.6-2.1,1.8-7.3c-10.4-3.3-20.9-7.5-31.9-10.1
	c-76.3-18.3-138.6-60.6-193.7-114.3c-14.5-14.2-26.6-31.6-36.8-49.3c-17.8-31-8.5-57.7,24.6-71.3c33.4-13.7,68.1-10.2,102.4-3
	c16.8,3.5,33.2,8.7,56.3,14.8c-4.5-13.1-6.5-21.8-10.3-29.7c-16.4-34.5-29.6-69.9-34.2-108.1c-0.6-5.4-1.5-10.8-1.9-16.2
	c-4.8-62.2,25.4-84.3,83.9-61.1c44.1,17.5,81.1,45.5,113.5,79.9c10.1,10.7,20.7,20.9,36.4,36.7c0.9-19,0.3-30.5,2.1-41.7
	c4.9-30.9,9.7-61.8,16.9-92.2c2.9-12.1,10.6-23.9,18.5-34c24-30.7,57.2-32.1,83.1-2.6c12.7,14.5,23.2,31.6,31.5,49
	c28.9,61,39.8,125.8,35.8,193.1c-1.1,18.3-2.4,36.5-4.1,60.4c12.6-4,22-7.7,31.8-9.9c35.8-8.1,71.4-19.4,107.7-22.9
	c117.9-11.5,208.4,38,276.5,131.9c51.6,71.2,81.1,152.9,107.9,235.6c6.2,19.2,11.2,38.9,18.5,64.6c8.1-16.6,13.8-27.9,19.1-39.3
	c62.6-134.7,148.5-252.1,261.5-348.8c51.6-44.2,111.4-71.4,180.1-74.6c86.3-4.1,159,27.9,220.2,87.4
	c82.6,80.4,137.7,178,175.2,285.9c13.2,37.8,23.7,76.5,37.1,120c9.2-8.3,17.4-14.3,24-21.7c61.8-70.5,136.2-124.7,221.3-162.5
	c128-56.9,243.6-32.5,335.9,70.9c67.1,75.2,100.3,166.4,124.7,261.7c13.5,52.8,20.5,106.5,21.1,161c0.1,11.7,1.7,23.3,2.7,37.4
	c12.5,1.3,23.1,2.1,33.5,3.5c66.6,8.9,119.7,37.8,147.2,102.3c7,16.5,16.3,23.1,34.2,22.5c49.4-1.7,94,14.2,134.5,41.6
	c52.1,35.3,75.9,96,59.8,156.6c-8,30-8.5,31.3,18.8,49.8c75.8,51.4,93.4,150.9,38.1,218.9c-12.6,15.5-29.9,29.1-47.9,37.5
	c-20.1,9.4-29.4,21.9-34.2,43c-40.1,177.7-81.4,355.2-121.8,532.9c-22.3,98.4-45.4,196.6-64.8,295.6
	c-16.3,83.1-57.9,147.6-123.8,199.7c-92,72.8-194.3,126.6-302.3,170.3c-170.8,69.2-349.3,109.1-530.8,137.8
	c-189.1,29.9-379.2,45.3-570.5,41.5c-262.1-5.2-521.5-34.4-775.6-101.8c-154.7-41-304.5-95.3-442.1-178.3
	c-49-29.5-94.5-65.4-138.9-101.6c-48.3-39.5-79.2-91.7-93.2-152.9c-27.6-120.5-55.6-240.9-81.9-361.7
	c-32.9-151.6-64.2-303.5-96.2-455.2c-1.3-6.4-3.3-12.8-3.4-19.2c-0.3-24.7-10.7-40.4-32.4-54.8c-97.5-64.7-98.4-202.5-3.5-270.5
	C279.4,1799.3,286.1,1794,293.6,1788.3z M1497.8,1224.8c29.7-17.5,59.4-34.9,89-52.6c13.4-8.1,14.5-20.7,10.8-34.3
	c-18.1-66.9-34.5-134.4-55.2-200.6c-16.5-53-43.5-101.7-78.7-145c-47.2-58-105.4-96.4-182.4-99.7c-39.4-1.7-77.6,4.6-115.3,16.4
	c-65,20.3-122.2,55.4-178.7,92c-52.4,33.9-98.2,75.3-137,123.8c-57.1,71.4-69.7,151.6-44.3,239.1c21.7,74.9,66.4,135.4,125.4,182.1
	c72.8,57.6,151.9,107,229.7,161c12.1-9.9,21.4-17,30-24.8c90.6-82.5,181.8-164.2,282.2-235c9.4-6.6,17.1-15.7,25.6-23.6
	L1497.8,1224.8z M1501.1,1930.3c0.9,6.6,1.9,13.2,2.8,19.8c-27.3,60.6-16,112,31.7,159.2c56.6,56.1,126.4,80.9,201.6,98.1
	c65.4,15,128.5,15.2,191.4-10.3c34-13.8,61.3-35,74.2-68.8c15.3-40.3,31.4-81.6,37.4-123.9c16.2-113.3,13.5-227.3-5-340.3
	c-16.3-99.5-28-200.3-60.5-296.2c-21.9-64.6-47.5-129-116.2-161.1c-2.9-1.3-5.5-3.6-7.8-5.9c-19.8-20.4-45.5-25.1-71.9-24.2
	c-52.7,1.9-103.5,13.1-148.4,42.4c-57.2,37.3-114.8,74.1-170.5,113.6c-66.2,47.1-130.9,96.5-187.6,155.4
	c-53.4,55.4-108.2,109.7-160,166.6c-42.9,47-73.1,102.5-90.2,164c-25.5,91.8,7.6,162.1,91.9,196c98.7,39.7,197.6,30.5,296.2-1
	c13.7-4.4,21.6-13.4,24.2-27.7c3.2-18.2,6.7-36.3,10.6-54.3c36.7-168.8,79.9-335.4,164.5-488.1c5.2-9.4,7.6-23.2,5-33.4
	c-4.1-15.9,2.2-25.6,12.5-34c26.8-22,53.7-43.9,81.9-64.2c7.7-5.5,20.4-8,29.9-6.3c12.9,2.3,20.8-0.8,27.8-10.7
	c12-16.9,28-26.6,49.1-27.7c12.4-0.6,20.3-6,19.9-20.2c-0.1-6,2.7-12,4.3-18.7c7.9,0,14.4-0.9,20.6,0.2c21.7,3.9,37,17.1,35.8,31.7
	c-1.6,18.4-15.7,24.9-31.3,27.8c-22.6,4.1-30,17.5-28.8,39.4c0.7,13.1-2,26.4-19.5,28.9c-15.8,2.2-22.7-2.5-29.9-21.5
	c-8.3-22-22.5-25.3-37.4-7.7c-8.4,9.9-14.9,21.3-22.2,32.1c-21.2,31.5-44.7,61.6-62.8,94.8c-18.1,33.1-33.2,68.4-45.5,104.2
	c-33.9,98.4-65.9,197.4-98,296.5C1513,1879.7,1507.6,1905.2,1501.1,1930.3z M378,2117.7c-2.9,0.3-5.9,0.6-8.8,0.9
	c0.3,6.1-0.3,12.3,1,18.2c33.5,160.3,66.3,320.8,101,480.8c23.9,110.2,51.4,219.7,75.7,329.9c14.4,65.1,51.5,113.2,102.9,153.2
	c90.7,70.6,191.5,122.9,297.4,165.8c135.1,54.8,275.2,93,418.4,119.4c129.2,23.8,259.2,42.8,390.5,48.8c118.1,5.4,236.5,9.2,354.6,6
	c120.3-3.2,240-17.4,359.4-33.9c199.7-27.6,394.2-74.1,580.1-152.8c105.3-44.6,205-99.2,290.6-176.8c30.7-27.8,52.1-60.4,61.3-101.2
	c18.1-80.4,36.7-160.7,55.2-241c45.6-197.6,91.3-395.1,136.7-592.7c2-8.8,1.4-18.1,2-26.6c-17.3-4.6-24.5,1-26.5,14.3
	c-1.8,11.8-3,23.7-5.3,35.4c-12.5,63.7-46,112.2-106.3,138.8c-45.7,20.2-93.8,25.7-143.3,15.9c-10.3-2.1-20.8-3.1-32.2-4.8
	c-2.8,7.7-5,12.5-6.3,17.5c-20.5,79.1-72.5,126.3-149.7,147.2c-76.3,20.7-148.3,5.9-217.3-29c-10.4-5.3-20.8-10.6-34.3-17.5
	c-43.3,87.7-111.4,138.3-206.5,152.9c-95.3,14.6-176.9-17.1-254.6-72.7c-56.6,74.6-130.9,113.8-223.1,117.8
	c-93.2,4.1-171.3-29.9-235.6-98c-70.4,68.1-152.6,97.2-245.3,95.1c-94.1-2.1-171.7-40-229.5-119c-63.7,51.4-132.1,82.4-211.9,75.5
	c-80.1-6.9-144.7-42.8-186.3-111.7c-37.9,14.6-72.4,30.4-108.4,40.9c-36.9,10.8-75.2,8.5-112.8-0.2c-39-9-75.4-25.7-100.7-56.2
	c-23.7-28.6-40.7-62.7-61.8-96.1c-40.1,12.8-81.8,17.1-124.1,7.3c-62.3-14.4-116.7-41.3-150.9-98.4c-21.4-35.8-35.2-74.4-39.4-116.2
	C382.7,2142.1,380,2129.9,378,2117.7z M504.8,1621.9c-52.6-4.8-95.4,4.1-127.5,25.5c-38.5,25.7-50.3,65.3-31.7,108
	c4.3,9.9,9.9,19.3,14.3,29.2c11.4,25.1,9,33.7-14.3,48.2c-15.6,9.8-32.5,17.7-47.5,28.3c-37.5,26.5-49.8,70.2-31.6,112.3
	c15.5,35.9,43.1,59.5,80.4,70.5c18.6,5.5,38.2,7.9,57.3,11.8c33.5,6.7,38.8,13.3,38.8,48.2c0,16.3-0.6,32.6,0.2,48.8
	c4.3,86.1,69.7,152.6,155.7,159.5c39.9,3.2,77.2-5.7,114.1-20.5c30.3-12.2,38.2-6.8,44.4,25.1c2.1,10.6,3.9,21.3,6.2,31.9
	c7.6,34.6,27.2,61,55.5,81.5c38.2,27.6,81,35.4,126.8,27.8c44.1-7.3,81.6-27.4,114.3-58c27.6-25.9,46.4-20.9,61,14.3
	c1.7,4,3,8.1,4.5,12.2c15.1,41.6,45.8,68.2,85.2,84.6c76.5,31.9,180.9,6.1,235.4-56.9c37-42.7,47.6-42.9,74.4,5.5
	c51.1,92.3,150.4,122.5,238.6,107.9c67.8-11.2,124.4-42,170.1-94c24-27.4,33.1-26,56.9,1.3c2.1,2.4,3.9,5.2,6,7.7
	c54.2,66.2,124.2,97.7,209.3,88.3c72-8,133.2-37.2,171.3-103.5c28.1-48.9,32.9-48.3,75.9-9.4c75.3,68,161.3,90.2,258.9,55.7
	c53.9-19.1,93.5-53.6,114.6-107.9c4.7-12.1,8.9-24.6,15.3-35.9c9.8-17.4,20.4-20.2,37.9-10.4c11.3,6.3,21,15.3,31.9,22.4
	c75.7,49,154.9,65.9,240.3,26c39-18.3,63.7-47.7,71.5-90.6c2.5-13.9,4.8-27.8,8.2-41.5c6.7-26.5,18.2-33.5,45.3-27.7
	c14.8,3.2,29.2,9.2,44.2,10.7c22.4,2.4,45.5,5.1,67.6,2.3c85.2-10.9,131.9-54.2,121.9-149.9c-5.3-50.4-2.5-51.7,49.1-56.3
	c36.7-3.3,73.5-5.9,107-24.3c59.3-32.7,68.7-96,20.3-143.3c-9.2-9-20.4-16.2-31.3-23.1c-9.1-5.8-19.3-9.9-28.9-14.9
	c-27.9-14.3-29.5-19.2-16.3-48.1c1.4-3,3.1-5.7,4.6-8.6c28.7-57.1,12.5-108.6-43.2-139.7c-31.9-17.8-65.1-19.9-100.7-14.4
	c-45.6,7.1-56.7-2-65.9-45.2c-12.3-57.8-65.4-95.4-124.9-88.9c-12.9,1.4-20,7.3-19.8,20.6c0.5,41.5,4.7,79,51.3,98.8
	c49.5,21.1,89.7,56.3,124.5,97.5c74.5,88.3,78.2,198.4,7.7,289.8c-16.5,21.3-35.9,40.8-56.1,58.6
	c-74.3,65.6-162.3,107.7-253.2,144.3c-180.2,72.7-369.1,112.1-560,142.4c-164.2,26.1-329.8,36.5-495.9,41.3
	c-194.5,5.7-388.4-2.4-581.9-21.2c-178.5-17.3-354.2-51.3-526.8-99.8c-105.7-29.7-208.2-68.1-304.6-121.5
	c-60.3-33.4-116.2-73-158.8-127.7c-58.4-74.9-77.9-156.7-32.3-245.7c8.3-16.2,21.1-30.1,30.8-45.7c5.5-9,12.9-19.4,12.5-28.9
	C512.5,1679.2,508.1,1651.5,504.8,1621.9z M535.8,1780.7c-24.6,39.7-37.5,77.4-30.3,120.3c6.1,36.4,23.2,67.4,47.4,94.8
	c61.9,70.1,141.6,113.7,225,151.7c130.2,59.3,267.9,95.5,407.3,122.3c223,42.9,448.3,66.9,675.9,68.6c236.9,1.8,473.3-5,707.7-41.7
	c167.3-26.2,332.3-63.1,492.3-119.9c79-28,156.3-60.1,225.2-108.2c37.1-25.9,73.7-54.6,103.6-88.2c61.1-68.7,58.9-149-2.7-217
	c-22.4-24.7-49.5-45.3-74.9-67.2c-5.2-4.5-12.5-6.5-21.7-11.1c-1.9,31.2-3.6,59.1-5.3,86.9c-6.5,104.6-53.6,189.2-131.8,256.2
	c-93.1,79.8-202.4,105.7-322.3,84.8c-24.9-4.3-40.4,1.6-56.8,19.6c-16.6,18.3-35.9,34.9-56.5,48.5
	c-175.5,115.6-426.8,91.5-577.9-54.7c-16-15.5-30.8-32.1-48.6-50.7c-5.1,14.2-8.9,25.2-13,36c-22.1,58.7-54.7,108.6-114,135.9
	c-48.3,22.3-99.5,30.3-152.3,26.7c-68.7-4.7-135.1-19.8-199.3-44.9c-18.4-7.2-36.6-11.9-57-8c-48.5,9.4-97.3,7.4-145.6-2.1
	c-71-14-140.6-34.2-193.4-86.3c-28.5-28.1-60.3-44.5-97.5-54.4c-12.5-3.4-24.8-7.9-36.7-13.2c-64.1-28.3-109.8-72.7-124.9-143.9
	c-1.2-5.7-5.6-10.7-7.2-13.5c-38.2,9.6-73.4,20.4-109.4,27c-111.4,20.4-253.8-38.6-294.2-139C545.5,1792.1,542,1789,535.8,1780.7z
	 M2132.4,1604.3c-27.5,20.9-38.4,48.6-35,82.6c3.8,38.9,9.2,77.7,10.1,116.6c1.2,54.1-1.8,108.4-1.5,162.5c0.1,14.5,1,32.3,9.1,42.8
	c41.8,54.6,89.6,104.5,150.8,136.8c122.8,64.8,249.1,67.3,375.9,10.6c58.5-26.2,109.3-63.8,145.3-117c65-96,81.1-201.7,53.6-314.1
	c-0.9-3.9-3.9-7.3-6.1-11.1c-17.2-0.2-36.7,9.5-47.1-11.4c-11.7-23.5,11.1-31.5,21.9-43.5c-49.4-132-264.4-255.8-381.7-219.8
	c-0.8,8-1.6,16.5-2.5,25c-1.2,11-6.6,18.2-18.1,19.6c-12.7,1.5-21.1-4.3-24.5-16.3c-2.6-9.2-4-18.7-6.2-29.7
	c-16.7,4.8-32.2,9.1-47.7,13.7c-59.5,17.7-110.2,50.2-154.3,93.4c-13.1,12.9-24.4,26.9-28.4,44.5c8.9,6.9,16.2,12.5,23.5,18.1
	c-0.9,2.1-1.8,4.3-2.7,6.4C2156.3,1611.1,2145.9,1608.2,2132.4,1604.3z M2846.7,2052.4c8.4,2.4,12.3,4.2,16.4,4.6
	c122,13.7,222.7-28.2,298.8-122.6c111.5-138.1,86.5-350.2-45.8-476.3c-106.1-101-233.6-132.6-376.1-102.3
	c-42.2,9-83,23.6-121.1,53.7c85.6,34.1,154,85.1,206.8,156.5c52.3,70.7,83,149.3,87.9,237.5
	C2918.4,1892.8,2886.1,1973,2846.7,2052.4z M3212.8,1466c0-27.1,1.2-49.6-0.3-71.9c-2.3-33.3-2.3-67.4-23.2-96.6
	c-3.3-4.6-5.1-13.6-2.8-18.3c10.2-21.3,1.4-40.6-5.1-59.7c-23-67.1-59.6-127.4-95.1-188.2c-9-15.5-19.1-24-39.6-15.8
	c-18.2,7.3-28,0.2-34-18.8c-2.2-7.1-3.2-14.9-2.8-22.3c0.7-14.9-6.6-20.9-20.3-24.2c-33-8.1-66.1-11.3-100-8
	c-37.6,3.7-38.1,3.9-47,40c-0.9,3.8-3.8,7.1-8,14.7c-13.5-8.8-25.4-16.5-38.4-24.8c-33.5,13.7-66.1,30-93.4,55.9
	c-10.9,10.3-23.5,19.4-36.6,26.7c-47,25.8-69.3,72.4-101.2,110.9c40.3,54.6,44.4,115.3,49,178.5c37.2-15.8,71-34,106.9-44.2
	c36.8-10.4,75.7-12.9,113.4-18.8c3.3-34.5,6.6-40.7,21.7-42.1c18.3-1.7,25.5,7.3,35.7,46.4c37,9,74.9,17.5,112.5,27.5
	c15.6,4.2,28.9,4.4,41-7.8c1.3-1.4,5.8,0.3,11.4,0.8c-4.8,7.3-8.5,12.8-10.3,15.5C3101.1,1368.9,3154.6,1415.4,3212.8,1466z
	 M2068.1,1416.9c9.2-21.5,4-41.3,1.9-61.3c-2.1-20.2-5.8-41.5-1.7-60.8c15.4-71.7,49.1-134,105.5-182.4
	c11.8-10.1,17.3-20.6,15.6-36.4c-10.3-94.3-29.9-186.5-69.9-272.8c-14.3-30.9-36-59.2-58-85.5c-22.1-26.5-38.4-27.2-68.7-9.4
	c-13.9,8.2-27.1,18-39.4,28.6c-120.3,103.1-204.3,231.6-263.6,377.3c-1,2.4,0.6,5.8,1.3,11.5c17.7-2.9,34.6-5.7,51.4-8.3
	c10.7-1.7,21.8-5.5,32-4c63.1,9.3,124,24.7,166,78.3c24.7,31.5,48.3,63.9,70.8,97.1c9.1,13.4,18.2,23.5,35,24.7
	c1.2,0.1,2.1,2.9,3.9,5.6c-7.8,3.2-15.3,6.3-24.6,10C2031.9,1362.9,2040.9,1393.6,2068.1,1416.9z M2101.8,665.1
	c16.6,23.4,30.5,41.3,42.7,60.3c56.4,87.4,84.3,184.6,96.9,286.9c2,15.8,5.4,31.5,8.8,50.4c73.6-25.1,143-18.9,212.5,13.2
	c0-10.5,1.2-17-0.2-22.8c-27.8-113.8-79.7-215-159.4-301.2c-28.1-30.5-60.4-56.4-99.5-71.6C2172.7,668.3,2141,658.4,2101.8,665.1z
	 M750.2,476.5c-3,8.1-4.4,10.1-4.2,12c0.4,4.2,1.3,8.5,2.4,12.6c26.6,105.2,93.9,180.6,178.5,243.1c5.9,4.4,14.7,4.8,26.4,8.4
	c-2.4-12.4-2.7-19.8-5.4-26.4c-12.2-30-23.5-60.5-37.8-89.5c-29.3-59.4-72.1-107.5-127.7-143.6C772.8,486.9,762.1,482.6,750.2,476.5
	z M1008.8,715.9c25.9-11.2,29.4-14.3,36-40.7c21.1-84.6,8.5-165.7-26.9-244.1c-3.2-7.2-9.9-12.8-15.6-20
	C964.9,468.7,969.3,630.7,1008.8,715.9z M888.9,797.7c-11.5-10.3-21.9-20.5-33.2-29.6c-62-49.7-131.4-83-210.4-95
	c-11-1.7-23.2-6.6-32.3,5.8c1.4,3.6,1.9,7.2,3.9,9.3c61.6,67.2,139.5,104.4,227.4,122.5C858.7,813.8,874.2,814.1,888.9,797.7z
	 M1281.7,2108.9c52.8,41.4,173,70.5,214.3,54c-21-30.9-42.1-62-61.8-91.1C1382.7,2084.3,1333.8,2096.2,1281.7,2108.9z M812.9,1521.6
	c-0.5-22.4-21.9-40.4-47.1-39.4c-23.9,0.9-41.8,20.5-41.5,45.2c0.3,23,18.9,40.1,42.7,39.1C794.3,1565.4,813.5,1546.6,812.9,1521.6z
	 M2336.6,1237.7c23-0.3,40.9-17.3,40.1-37.9c-0.7-18.3-17.9-34.4-36.4-34.3c-21.4,0.1-39.3,15.7-39.8,34.6
	C2299.9,1220.3,2316.9,1237.9,2336.6,1237.7z M2078.5,1562.5c2.8,0.7,5.6,1.5,8.5,2.2c11.5-17.4,23.8-34.4,34.1-52.5
	c3.1-5.4,3.3-16.6-0.3-20.8c-13.4-16-26.6-34.3-56.8-31.8C2068.9,1494.6,2073.7,1528.5,2078.5,1562.5z M1091.7,1576.1
	c10.4-11.9,16.7-19.1,24.7-28.2c-11.1-9.7-19.5-17.1-28-24.5c-2,1.1-4.1,2.1-6.1,3.2C1084.9,1540.7,1087.6,1554.7,1091.7,1576.1z"/>
<path d="M1501.1,1930.3c6.2-7.3,11.4-16,18.9-21.6c8-5.9,19.7-14,27.1-11.8c7.7,2.2,15,14.9,17.2,24.2c2.9,12.3,2.1,26,0,38.6
	c-3.3,20.4-18.9,33-35.3,31.1c-17.5-2-26.4-16.3-25.1-40.8C1502.9,1943.6,1502,1936.9,1501.1,1930.3z"/>
<path d="M879.4,3132.1c0.1,18.4-7.1,26.2-25.4,29.8c-15.5,3.1-26.3-2.7-29.6-17.7c-6.8-30.7-13.2-61.5-17.9-92.5
	c-21.9-144.6-43.2-289.3-64.6-434c-1.3-8.5-2.4-17.4-1.3-25.8c2.1-16.8,12.1-25.4,27.9-26.1c16.3-0.7,24.6,6.1,27.4,25.2
	c8.2,55.7,15.2,111.7,23.8,167.3c18.4,118.8,37.4,237.6,56.3,356.4C877,3121.3,878.5,3127.6,879.4,3132.1z"/>
<path d="M668.4,3007.1c-4.6,4.8-10.2,14-18.3,17.9c-11.5,5.5-25,3.3-30.7-9.6c-7.4-16.7-13.6-34.3-17.3-52.1
	c-20.4-97.5-39.9-195.3-59.7-292.9c-11.6-57.3-23.4-114.6-35-172c-1.7-8.5-3.6-17.1-3.8-25.6c-0.5-18.7,5.1-25,23.6-28.8
	c16.6-3.4,26.4,1.8,32.1,19.1c4,12.3,6.3,25.2,8.8,38c31.6,156.1,63.1,312.2,94.5,468.3C664.6,2980,665.8,2990.8,668.4,3007.1z"/>
<path d="M3056.8,3132.6c8.8-54.1,18.5-110.8,27-167.6c17.4-115.8,34.1-231.6,51.2-347.4c1.6-10.7,2.9-21.5,5.4-32.1
	c4.4-18.8,11.7-23.8,29.6-21.3c17.2,2.4,25.3,10.3,23.4,28.5c-4.4,42-9.7,84-16.1,125.8c-21.1,137.2-42.9,274.2-64.4,411.3
	c-0.7,4.3-1.6,8.5-2.6,12.8c-5.4,23.7-11.3,29.2-28.6,26.6C3061.5,3166.3,3055.6,3158.2,3056.8,3132.6z"/>
<path d="M3276.6,2981.3c3-14.6,4.8-24.1,6.9-33.6c33.2-151.2,66.4-302.4,99.8-453.6c3.3-14.8,6.6-29.7,11.7-43.9
	c6.6-18.1,16.8-23.5,31.8-19.8c15.5,3.8,22.1,12.8,18.9,32.2c-8.1,49.1-16.3,98.4-26.8,147c-25,115.4-51.4,230.4-77.5,345.6
	c-2.6,11.5-5.8,23.3-11,33.8c-7.1,14.5-21.4,15-33.8,10C3288.3,2995.6,3282.3,2986.6,3276.6,2981.3z"/>
<path d="M2312.1,2785.9c54.4,1,99,46.1,98.9,100c-0.2,58-46.2,103.5-103.5,102.1c-58.2-1.3-99.7-44.7-98.2-102.7
	C2210.6,2829.7,2257.1,2784.9,2312.1,2785.9z"/>
<path d="M1708.7,2888.8c-0.2,54.5-45,97.1-101.5,96.5c-55.8-0.7-100.5-45-99.7-99.1c0.8-55.8,47.3-101.5,102.4-100.6
	C1667.2,2786.6,1708.9,2830.2,1708.7,2888.8z"/>
<path d="M2825.1,2758c-16.2,157.3-32.2,314.6-48.8,471.8c-2.9,27.6-20.3,37.5-41.2,25.9c-12.6-6.9-14.1-18.3-12.8-30.7
	c3.5-34.5,7.5-68.9,10.7-103.4c10.6-114.3,20.9-228.6,31.3-342.9c1.7-18.3,2.8-36.8,5.7-54.9c2.8-17.5,12.5-24.2,29.3-22.9
	c16.7,1.4,24.6,9.7,24.9,27.7c0.2,9.7-1.2,19.5-1.9,29.2C2823.3,2757.8,2824.2,2757.9,2825.1,2758z"/>
<path d="M1187.8,3196.2c0,7.6,0.3,15.2-0.1,22.7c-0.6,14.4-9.2,21.1-22.8,22.8c-15,1.9-26.6-3.1-29.3-18.7c-5-28.8-9.8-57.8-12.3-87
	c-7.3-83.2-13.4-166.5-19.9-249.8c-3.8-47.6-7.7-95.1-11.3-142.7c-1.9-25.6,2.8-34.5,19.2-39.2c18.9-5.4,32.4,2.2,35.4,21.7
	c2.9,19.3,4.3,38.8,5.8,58.2c11,137.3,21.9,274.6,32.9,411.9C1186.2,3196.3,1187,3196.3,1187.8,3196.2z"/>
<path d="M1961.5,3084.2c-51.8-1.9-114.1-26.1-126.6-103.7c-1-6.4-1.9-13-1.4-19.4c1.2-18,10.2-29.4,23.7-30.4
	c16.7-1.2,22.2,10.6,26.2,23.7c1.6,5.2,2.6,10.5,4,15.8c14.9,57,58.9,66.3,107,53.4c22-5.9,37-22.2,43.2-45c2.6-9.4,4.4-19,6.4-28.5
	c2.9-13.7,10.8-21.1,25.1-19.7c14.8,1.4,25.4,9.5,25.6,24.5c0.2,13.8-1.6,28.4-6,41.5C2070.6,3052,2023.5,3083.8,1961.5,3084.2z"/>
<path d="M1495.3,3144c-14.9-0.4-25.4-12.7-20.1-24.8c13.3-30.6,28.3-60.6,44-90.1c6-11.3,18.3-10.3,29-6.4
	c10.4,3.8,15.8,12.2,12.5,23.1c-11,35.7-31.6,66-56.1,93.7C1502,3142.4,1497.1,3143.2,1495.3,3144z"/>
<path d="M2374.5,3134.5c-4.3,4.5-9.1,13.8-15.4,15.1c-8.3,1.7-22.6-0.1-26-5.6c-15.8-25.7-29.9-52.6-41.9-80.3
	c-2.4-5.6,4.5-19.6,11-23.5c6.3-3.8,18.3-1.6,26.2,1.8c6.1,2.6,10.9,10.6,14.2,17.2c9.7,19.3,18.5,39.1,27.4,58.9
	C2371.7,3122,2372.3,3126.4,2374.5,3134.5z"/>
<path d="M2398.8,3025.4c3.1,2.4,11.8,6.1,15.7,12.7c14.2,24.2,27.3,49.2,39.7,74.4c5.1,10.3,4.5,21.7-7.4,28.3
	c-12.5,6.9-24.1,3.8-31-7.9c-14.8-25.1-29.8-50.4-41.8-76.9C2365.8,3037.8,2375.9,3024.5,2398.8,3025.4z"/>
<path d="M1587,3152.9c-20.2,1.1-31.4-11.2-25.1-26.9c11.2-27.8,24.9-54.6,38.7-81.4c5.4-10.5,15.1-15.1,27.3-9.3
	c13.1,6.2,18.6,17.8,11.9,32.1c-11.8,25.3-24.8,50.1-38.5,74.4C1598,3147.5,1590.1,3150.6,1587,3152.9z"/>
<path d="M2480.8,3010.7c3.6,2.9,12,6.7,15.9,13.3c13,22.2,24.8,45.1,36.1,68.3c5.5,11.3,6.2,24.1-7.4,30.5
	c-11.7,5.5-24,3.2-30.8-9.1c-13.5-24.3-27.5-48.5-38.3-74.1C2449.7,3024.3,2460.7,3011.1,2480.8,3010.7z"/>
<path d="M1477.1,3025.5c-2.1,8.7-2.2,14.6-4.8,19.1c-13.5,23.4-26.9,46.9-42.2,69.1c-3.5,5.2-17.2,9.5-21.2,6.8
	c-6.6-4.5-14.7-17.4-12.4-22.5c12.6-28.5,27.4-56.1,43.5-82.8c2.5-4.2,15.9-4.2,23.3-2.3C1469,3014.3,1473.2,3021.7,1477.1,3025.5z"
	/>
<path d="M1200.6,1809.7c25.6,0.1,38.6,16.1,31.2,35c-12.1,31.2-26.3,61.7-40.3,92.2c-4.9,10.7-13.3,17.7-26.1,12.8
	c-11.8-4.6-21.5-12.4-19.1-26.6c6-35.4,15.2-69.9,35.7-99.9C1187,1816,1196.9,1812.3,1200.6,1809.7z"/>
<path d="M1321.5,1609.9c28.7,0.3,39.4,14.9,28.7,35.9c-9.6,18.9-22.3,36.6-35.5,53.3c-8.3,10.6-21,15.2-34.7,8
	c-14.8-7.8-14.6-21.5-9.1-33.5c8.5-18.3,18.7-36,30.5-52.3C1306.4,1614.6,1317.4,1612.2,1321.5,1609.9z"/>
<path d="M1043.4,1860.2c8.5-20.6,15.5-42,26-61.5c8.4-15.7,22.3-19,35.3-13.3c13.3,5.9,18.5,17.2,12.5,35.1
	c-6.5,19.3-15,37.9-23.6,56.3c-5.3,11.4-13.8,19.7-28.1,15.3C1050.7,1887.5,1047,1875.7,1043.4,1860.2z"/>
<path d="M1310.3,1976.7c-18-0.6-30.5-13.4-26.2-26.6c7.7-23.3,17.3-46.5,29.4-67.7c8.1-14.2,23.1-14.6,37.2-6.5
	c13.9,8,11.8,19.6,6.4,31c-8.8,18.5-17.8,37.1-28.6,54.4C1324,1968.7,1314.6,1973.2,1310.3,1976.7z"/>
<path d="M1391,1736.8c7.1-30.2,17.9-53.4,36.2-72.3c9.6-10,21.6-7.4,32.7-1.4c11.6,6.3,14.1,16.4,8.4,27.3
	c-10.8,20.7-21.9,41.5-34.7,61c-5.8,8.8-16.9,16.5-27.6,7.8C1398.6,1753.1,1394.8,1742.6,1391,1736.8z"/>
<path d="M1222.9,1567.4c18.3-0.5,35.2,19.5,25.9,34.6c-12.8,20.7-29.2,39.8-47.1,56.4c-10.6,9.9-27,3-32.4-9.4
	C1158.6,1624.5,1195.5,1568.2,1222.9,1567.4z"/>
<path d="M1336,1481.9c4.3-22.9,16.6-45.5,39.1-60.8c11.8-8,24.4-5.9,35.5,4.5c10.9,10.2,11,21.7,3.1,32
	c-13,16.9-25.6,35.5-42.5,47.8C1353.4,1518.4,1335.9,1506.8,1336,1481.9z"/>
<path d="M1613.9,2093.5c-6.4-28.4-2.5-54.7,8.3-80c2.8-6.7,7.7-14.7,13.7-17.2c8.2-3.4,20.3-5.6,27.2-1.9c6.5,3.5,12.5,16,11.5,23.6
	c-2.3,18-7.9,35.9-14,53.1C1653.5,2090.9,1639.2,2100.4,1613.9,2093.5z"/>
<path d="M1904.7,1901.6c2.8-14.6,4.7-30.8,9.1-46.3c5-17.8,17.9-24.9,34.3-21.6c15,3,20.6,12.1,18.2,32.3
	c-1.5,12.8-4.6,25.5-7.5,38.1c-1.2,5.2-3,10.6-6,14.9c-8.3,11.8-20.3,15.9-34.1,12.8C1902.8,1928,1905.1,1914.7,1904.7,1901.6z"/>
<path d="M1685.8,1883c6.4-14.6,11.3-30,19.6-43.4c8.3-13.4,23.7-16.3,37-9.7c14,6.9,17.5,18.6,12.4,32.6
	c-5.6,15.1-11.2,30.3-18.5,44.6c-5.6,11-14.4,19.6-28.7,14.6c-12.8-4.5-17.8-14.8-18.8-27.6c-0.2-3.2,0-6.5,0-9.7
	C1687.7,1883.9,1686.7,1883.5,1685.8,1883z"/>
<path d="M1826.4,2104.8c-9.4,17.8-17.3,36.5-28.8,52.8c-4.2,5.9-18.2,9.9-25.2,7.5c-7.2-2.4-15-13.2-16.3-21.3
	c-3.5-22.2,4.1-42.6,17.6-60.4c8-10.5,18.7-14.2,31.5-8.7C1817.5,2079.9,1823.3,2089.2,1826.4,2104.8z"/>
<path d="M1672.3,1483.8c4.1-10.4,7.8-26.3,16.1-39.4c10-15.9,24.6-15.4,37.8-1.8c19.9,20.2,9,72.9-17.3,84.1
	c-11.3,4.8-26.2-1.7-31.5-15.1C1674.8,1504.8,1674.7,1497,1672.3,1483.8z"/>
<path d="M1857.5,1936.3c-3.7,10.2-7.9,27.4-16.3,42.1c-3.6,6.4-15.9,10.5-24.4,10.7c-11.2,0.4-21.2-6.7-22.9-19.1
	c-3.1-22.2-0.3-43.3,15.6-60.8c8.8-9.7,19.3-13.9,32-8.6C1854.3,1906.1,1858.2,1916.7,1857.5,1936.3z"/>
<path d="M1961.5,2106.9c-7.3,17.6-12.1,35.8-22.1,50.3c-5.3,7.7-20.3,13.1-30.2,12.1c-12-1.2-14.2-14.9-13.3-26.2
	c0.9-11.8,1.4-24,4.8-35.2c2.8-8.9,8.8-17.4,15.1-24.4c8.8-9.9,22.5-12.8,32.3-5.5C1955.1,2083.2,1956.7,2095.8,1961.5,2106.9z"/>
<path d="M1653.9,1666.2c3.9-9.3,8-25.3,17-37.9c4.9-6.9,18.2-11.4,27.3-10.9c13.4,0.7,20.3,13.2,19,25.7c-1.5,14.6-5.4,29.5-11.2,43
	c-7.3,16.9-22,24.4-35.6,20.7C1651.8,1701.8,1655,1686.2,1653.9,1666.2z"/>
<path d="M1782.6,1504.4c4-10.6,7.4-25.7,15-38.1c10.1-16.5,28.5-14.8,39.4,1.5c14.4,21.6,5.2,61.6-17.1,75.1
	c-14.8,8.9-27.5,4.6-33-12C1784.7,1523.9,1784.5,1516.2,1782.6,1504.4z"/>
<path d="M1910.6,1702c3-10.2,4.9-19.9,8.6-28.7c4.7-11.2,14.3-16,26.3-14.8c13.2,1.3,22.3,8.1,24.6,21.8
	c4.2,24.2-2.1,45.4-20.3,61.9c-13.3,12.1-26.1,8.5-32.5-9C1913.6,1723.1,1912.7,1712.2,1910.6,1702z"/>
<path d="M1953,1531.4c-2.8,11.5-2.9,23.7-8.7,31.8c-5.5,7.6-16.6,13.8-26.1,15.3c-11.8,1.9-18.9-7.7-22.7-19.2
	c-6.6-19.8-3.3-39.1,5-56.8c9.6-20.5,32-21,43.1-1.3C1948.7,1510.2,1950,1521.4,1953,1531.4z"/>
<path d="M1471.1,1559.2c-12.9-0.1-24.1-12.2-22.5-25c3-24.8,15.1-45,36.2-58.7c10.1-6.5,22.4-6.2,29.4,3.4
	c4.9,6.6,8.3,19.2,5.2,25.7c-7.8,16.2-18.9,30.9-30.3,45C1484.8,1554.9,1476.1,1556.6,1471.1,1559.2z"/>
<path d="M1774.1,1691.8c3.4-10,6.7-24.7,13.3-37.8c6.5-13,19.4-16.1,33.3-12c12.7,3.8,16,14.8,14.9,25.5
	c-1.3,13.6-4.5,27.4-9.2,40.3c-5,13.7-14.8,24.8-31.5,21.6C1777.2,1726.1,1777.2,1710.3,1774.1,1691.8z"/>
<path d="M1652.4,1805.1c-0.6,3.2-1.1,8.6-2.7,13.8c-6.4,20.9-24.3,33.6-40.7,29.3c-12.8-3.4-20.2-20.1-17.9-41.1
	c0.5-4.3,1.5-8.5,2.7-12.7c6-20.7,15.7-30.2,29.5-29C1639.9,1766.8,1652.4,1783,1652.4,1805.1z"/>
<path d="M1577.2,1347.4c-3.7,7.6-8.8,21.9-17,34.1c-8.1,11.9-22.2,13.9-35,9.3c-14-5-13.8-18.3-12-30.2c2.8-19.1,12.1-34.7,30.3-43
	C1562.8,1308.5,1578.3,1319.3,1577.2,1347.4z"/>
<path d="M2039.8,1964c-2.5,15.4-6.2,32.2-22.6,42.1c-13.4,8.1-26.6,4.8-30.9-10.1c-3.8-13-5.2-27.5-3.6-41
	c2.1-18.1,18.4-29.2,34.1-26.6C2031.7,1931,2040.3,1943.5,2039.8,1964z"/>
<path d="M1891,1372.7c0.8-6.2,1-12.7,2.5-18.9c2.3-9.5,5.3-20.9,17.4-19.4c7.2,0.9,17.4,6.9,19.6,13c4.9,13.5,7.8,28.6,7.6,43
	c-0.3,13.5-11.1,20.4-24.8,20c-13.4-0.4-17.9-10.2-20.3-21.4C1891.9,1383.7,1891.6,1378.3,1891,1372.7z"/>
<path d="M1648.2,1234.1c13.8,0.1,30.4,17.2,31.1,32.1c0.7,16.1-11.8,28.6-28.4,28.4c-17.5-0.3-28.1-12.9-27.5-32.6
	C1623.9,1245.3,1633.9,1234,1648.2,1234.1z"/>
<path d="M1743.4,1252c-13.5-0.1-24.2-13.8-23.4-29.8c0.8-15.2,17.1-30,33.2-30.1c12.6-0.1,22.6,11.5,23,26.6
	C1776.7,1236.9,1761.7,1252.2,1743.4,1252z"/>
<path d="M1149.6,1144c3.1-4.4,6.6-15.1,12.6-16.8c9.2-2.5,23.7-2.5,29.5,3.1c12.9,12.5,22.8,28.6,32.1,44.3
	c6,10.2,3.2,21.2-6.9,28.8c-10.4,7.9-22.4,10.3-33.1,2.2C1165.1,1191.3,1154.7,1171.3,1149.6,1144z"/>
<path d="M1206.6,823.6c0,19.1-25.6,33.6-39.3,19.6c-15.8-16.2-27.3-37.8-36.5-58.9c-5.7-13.1,11-25.8,26.3-22.8
	C1179.2,766,1206.6,800.3,1206.6,823.6z"/>
<path d="M1012.5,1021.2c3.6,2.1,13.6,4.5,17.5,10.8c9.6,15.4,18.2,32,23.4,49.2c2,6.5-4.7,18.6-11,23.8c-8.6,7.2-22.9,7.8-29.3-2.2
	c-11.5-17.7-21.9-36.9-28.1-57C980.7,1031.6,992.7,1021.5,1012.5,1021.2z"/>
<path d="M1374.7,1104.7c-8,8.7-13.6,17.3-21.4,22.6c-10.5,7.1-21.7,4-27.9-6.8c-8.5-14.8-16.2-30.3-22.3-46.3
	c-4.6-12-2.5-23.9,11.1-29.9c12.1-5.3,24.9-4.7,32.2,6.4C1356.8,1066.7,1364.3,1084.5,1374.7,1104.7z"/>
<path d="M1368.5,949.3c-5.7,8.2-9.9,20.7-17.5,23.3c-7.9,2.7-21.7-1.5-28.2-7.7c-9.8-9.2-17.2-22-22.5-34.5
	c-7.2-17.1-2.3-28.1,11.7-34.8c15.5-7.4,31.2-5,39.5,9.4C1358.8,917.6,1362.3,932.5,1368.5,949.3z"/>
<path d="M1365.2,784.8c-0.2,24.2-20,37-38.8,22.4c-13.6-10.6-24.6-26.9-31.7-42.8c-7.7-17.5,5.8-31.2,25.4-29.9
	C1344.4,736.2,1365.5,759.7,1365.2,784.8z"/>
<path d="M1491.1,899.3c-0.6,25.8-12.9,34.8-31.1,30.9c-22.7-4.9-42.2-38.6-35.3-61.2c6.3-20.7,32.2-28.1,45.8-10.9
	C1481.3,871.8,1486.6,889.9,1491.1,899.3z"/>
<path d="M1208.2,1008.5c-2.7,4.6-5.7,16-11.2,17.3c-9.3,2.3-24.7,1.9-29.4-4c-11.7-14.6-20.4-32.2-26.7-49.9
	c-2.2-6.1,4.4-19.4,10.7-23.2c6.5-3.9,19.3-3.2,26.4,0.8C1198.6,961.3,1202.5,983.5,1208.2,1008.5z"/>
<path d="M834.6,1128.5c7.2-9.1,11-17.3,17.4-21.1c9.6-5.7,22.1-6.7,29.2,3.8c10.2,15,19.8,30.9,26,47.8c2.4,6.5-3.1,18.9-9,24.6
	c-7.8,7.5-21.3,10.5-29,0.3C856.6,1167.1,846.7,1148.2,834.6,1128.5z"/>
<path d="M1354,1299.4c-18.8-10.5-27.7-28.9-36-47.6c-5.3-12-4.4-23.7,6.9-31.9c11.7-8.4,24.1-8.6,36,0.2
	C1389.9,1241.7,1386.8,1280.3,1354,1299.4z"/>
<path d="M924,977.5c-2.4,5.3-5.4,15.9-11.4,24.3c-6.5,9-16.5,9.3-26,2.8c-14.6-10-27.7-44.4-23.2-61.2c5.3-19.7,19.5-25.6,37.1-15.4
	C913.6,935.7,923.8,954.7,924,977.5z"/>
<path d="M1524.5,1053.7c-3.9,14.9-6.3,26-20.6,30.3c-13.5,4.1-23.5-0.6-29.7-12.8c-5.8-11.6-11.3-23.4-16-35.4
	c-4.8-12.2-4-24.5,8.6-31.2c11.3-6,24.9-5.2,32.7,5.2C1509.6,1023.3,1516.4,1039,1524.5,1053.7z"/>
<path d="M1006.1,1203.8c19.1,4.1,30.7,17.4,39.7,34.1c13,24.1,13.3,37,0,45.9c-10.7,7.2-25.6,1.8-41.7-15.1
	c-12.2-12.9-20.6-27.5-19.8-46C985,1209.1,993.1,1204.1,1006.1,1203.8z"/>
<path d="M1216.4,1376.6c-23.5,1.7-54-42.4-44.6-64.5c5.2-12.2,18.7-19.7,28.5-12.3c14.2,10.7,28.5,23.5,37.6,38.5
	C1248,1354.8,1234.5,1375.3,1216.4,1376.6z"/>
<path d="M1050.2,1384.9c-0.1-14.8,7.3-22,21.6-21.1c19.1,1.2,48,24.8,50.6,43.9c1.2,8.5-1.1,20-6.5,26c-3.8,4.4-15.9,4.3-23.2,2.2
	C1069,1429.2,1050.4,1405.7,1050.2,1384.9z"/>
<path d="M998.3,869.5c-0.3-26.9,15.3-35.4,33.3-26.1c15.8,8.2,33,40,29.6,57.6c-1,5.3-7,13.7-10.6,13.7c-11.1-0.1-26.4,0-32.2-6.7
	C1007.7,895.7,1002.7,878.5,998.3,869.5z"/>
<path d="M1498.9,1223.6c-29.4,2.3-52.8-17.1-52.4-45.6c0.1-8.4,4.9-21.4,11.1-23.9c8.2-3.4,21.7-1.9,29.6,3
	c23.7,14.6,26.1,35.8,10.6,67.6C1497.8,1224.8,1498.9,1223.6,1498.9,1223.6z"/>
<path d="M2468.2,1616.7c108.5,5.5,170.4,74.2,171,166.9c0.6,87.9-81.9,162.9-172.5,159.2c-110.9-4.6-171.9-83.1-170-157.9
	C2298.9,1700,2366,1613.3,2468.2,1616.7z M2459.9,1881.9c12.4-0.6,18.9-0.6,25.3-1.4c55.1-6.9,94.9-46.7,96.8-96.5
	c2.3-60.3-50-110.8-114.7-110.8c-56.6,0-104.3,41.3-112.3,97.3c-6.6,46.6,25.2,92.1,75.6,106.7
	C2441.9,1880.4,2454,1881,2459.9,1881.9z"/>
<path d="M2162.4,1906.6c13.6,0.6,26.3,14.3,26,28c-0.3,13.9-13.2,24.5-29,23.9c-14.6-0.6-24.8-13.2-23.4-28.9
	C2137.3,1916,2148.8,1906,2162.4,1906.6z"/>
<path d="M2150.8,1803.2c13.8,0.5,27.4,13.9,27.1,26.8c-0.3,12.5-12,22.7-26.2,22.9c-14.9,0.2-26.3-11.3-26.5-26.5
	C2124.9,1813.7,2137.2,1802.7,2150.8,1803.2z"/>
<path d="M2580.3,2146.7c-12.7,0.3-23.5-13-23.7-29.2c-0.2-14.4,7.2-22.3,20.9-22.7c16.1-0.4,27.6,9.4,28.3,24.3
	C2606.5,2133.5,2594.7,2146.3,2580.3,2146.7z"/>
<path d="M2365.8,2122.5c0.7,15.5-10.5,28.4-24.8,28.5c-12.2,0.1-21.4-9.8-21.7-23.5c-0.3-14.5,9.5-25.9,23-26.4
	C2355.4,2100.6,2365.2,2109.4,2365.8,2122.5z"/>
<path d="M2456,2009.9c12.6,0,21.3,9.1,21.9,23c0.6,15.4-10.1,27.6-24.9,28.2c-12.6,0.5-21.2-8.6-21.5-22.8
	C2431.1,2022.5,2442,2009.9,2456,2009.9z"/>
<path d="M2271.4,1716.9c-16.9,1-33.1-14-33.7-26.3c-0.6-13.4,7.7-19,19.7-20.3c16.5-1.7,31.5,8.5,28.6,21.7
	C2283.8,1702,2275.3,1710.5,2271.4,1716.9z"/>
<path d="M2771.8,1846.1c-14.5-1-27.4-12.5-26.2-23.3c1.3-11.1,15.8-22.8,27.8-22.4c12.3,0.4,21.8,11,21.1,23.6
	C2793.8,1836.6,2783.2,1846.9,2771.8,1846.1z"/>
<path d="M2677.4,2003c-12.6,1-24.7-10.4-25-23.5c-0.2-12.7,6.5-19.9,18.6-21.9c13.7-2.2,26.2,7.7,26.8,20.7
	C2698.3,1990,2688.3,2002.1,2677.4,2003z"/>
<path d="M2288,1955c3.1,4.1,11,10.3,12.5,17.8c2.9,14.5-7.8,27-20.2,27.7c-13.6,0.7-24.2-8.7-23.5-20.8
	C2257.5,1967.1,2269.7,1955.3,2288,1955z"/>
<path d="M2478.4,1526.1c3.8,4.2,13.2,10.3,15.8,18.6c4.1,12.9-8.6,27.1-20.9,27.2c-12,0.1-22.7-10.4-23-22.6
	C2449.9,1536.5,2459,1526.9,2478.4,1526.1z"/>
<path d="M2657.9,1644.6c0.7-19.2,14-30.8,28.6-29.8c10.4,0.7,19,4.3,19.3,16.7c0.4,13.6-12.9,25.8-28.2,23.6
	C2669.9,1654,2663,1647.4,2657.9,1644.6z"/>
<path d="M2621.3,1513.8c0.5,15.6-8.9,26.3-21,26.6c-12.3,0.2-23.8-10.5-23.5-21.9c0.3-12.2,10.9-22,23.6-21.7
	C2613.1,1497.1,2620.5,1503.4,2621.3,1513.8z"/>
<path d="M2314.7,1556c-0.9,14.5-12.3,25.8-24.6,23.4c-12.6-2.4-17.1-11.1-16.1-23.5c1.2-15,8.3-22,22.1-20.9
	C2308.5,1536,2315.4,1543.7,2314.7,1556z"/>
<path d="M2148.9,1644.5c15.6-4.2,29.5-10.3,38.7,6c4.4,7.8-6.1,23.5-14.9,24.9C2161.3,1677.2,2154.4,1669,2148.9,1644.5z"/>
<path d="M3181.3,1719.6c0.6,46.4-9.6,90.4-28.7,132.5c-6.3,14-15.2,23.6-32.5,20.7c-20.9-3.5-27.8-13.4-22.6-34.2
	c1.8-7.3,4.8-14.4,7.5-21.5c37-96.5,20.7-185.1-39.3-267.2c-5.1-7-10.8-13.6-15.9-20.6c-8-11-8.8-21.9,1.7-32.1
	c9.5-9.2,20.9-13.6,32.4-6c10.7,7,20.8,15.9,28.7,25.9C3159.4,1576.4,3180.8,1644.5,3181.3,1719.6z"/>
<path d="M2988.9,1472.1c-26.5-0.7-49-16-54.7-35.7c-6.8-23.8,7.7-42.7,31.7-37.9c15.2,3.1,30,11,43.2,19.6
	c11.3,7.3,16.3,19.2,10.5,33.9C3013.4,1467.4,3002.7,1473.5,2988.9,1472.1z"/>
<path d="M2965.5,1946.1c21.1,0.5,34.6,16,33.4,38.8c-1,19.4-13.8,28.3-39.3,27.2c-23-0.9-37.9-13.3-37.7-31.3
	C2922.2,1962.2,2943.1,1945.6,2965.5,1946.1z"/>
<path d="M3067,1907.5c17.2,0.8,29,11.1,28.4,24.5c-0.8,16.2-21.4,36.8-36,35.9c-11.9-0.8-27.2-22.4-25.9-36.7
	C3034.7,1917.5,3049.9,1906.7,3067,1907.5z"/>
<path d="M2815.5,1090.6c0,12.7-11.9,26.1-23.6,26.6c-12.4,0.5-24-12.1-23.6-25.6c0.5-14,10.9-23.9,25.2-23.8
	C2806.6,1068,2815.5,1077.2,2815.5,1090.6z"/>
<path d="M2656.8,1296.9c-13.7,0-24.2-10.9-23.9-24.9c0.3-13.5,9.7-23,22-22.5c12.7,0.5,27.4,15.3,27.3,27.5
	C2682.1,1287.7,2670.3,1296.9,2656.8,1296.9z"/>
<path d="M3092.7,1113.2c-11.5,9.8-18.3,19.1-27.2,22.2c-7.6,2.6-21.3,0.9-25.5-4.3c-4.6-5.8-3.5-18.4-1.3-27
	c3-11.4,14.2-13.8,23.9-10.1C3071.9,1097.6,3079.8,1104.8,3092.7,1113.2z"/>
<path d="M2699.4,1167.2c0,12.8-12,25.9-23.8,26c-12.8,0.1-24.1-12.5-22.9-26.1c1.2-14.6,11-20.3,24.1-21.1
	C2690.7,1145,2699.4,1153.5,2699.4,1167.2z"/>
<path d="M3109.9,1272.6c0.6-28.2,11.4-39.5,32.6-36.2c11.2,1.8,18.9,9,17.1,19.4c-1.1,6.6-9.2,12.6-15.3,17.5
	c-2.8,2.2-8.4,1.2-12.6,1C3124.4,1274,3117.1,1273.2,3109.9,1272.6z"/>
<path d="M2945.3,1191.3c0.9-13.7,12.7-25.6,24.8-25.1c12.4,0.6,21.3,11.3,20.2,24.4c-1.2,14.3-12.1,23.7-26.1,22.5
	C2952.1,1211.9,2944.5,1203.2,2945.3,1191.3z"/>
<path d="M2933.9,1031.4c-0.7,14.3-12.4,26.9-24.3,25c-12.6-2.1-17.8-11.4-18-23.4c-0.2-13.3,12.5-25.5,24.8-24.5
	C2927.3,1009.4,2934.5,1018.9,2933.9,1031.4z"/>
<path d="M2094.4,1084.4c-0.5-17.2,8.7-28.8,23-28.6c14.2,0.1,25.7,10.2,26,22.9c0.4,16-11.7,30.1-26.5,30.9
	C2103.5,1110.2,2094.9,1100.6,2094.4,1084.4z"/>
<path d="M1971,1005.3c-0.1-16.4,7.9-26.8,20.8-27c15.1-0.2,28.7,13.7,28.3,29c-0.4,14.9-12.3,25.5-27.8,24.8
	C1978.8,1031.5,1971.1,1021.9,1971,1005.3z"/>
<path d="M2084.1,929.9c-14.1,0.4-24.3-9.6-24.8-24.1c-0.5-15,11.3-26.9,26.3-26.6c12.8,0.2,22.6,9.7,23.2,22.3
	C2109.6,917,2098.8,929.5,2084.1,929.9z"/>
<path d="M2009.6,1190.2c-13.6,0.1-23.6-10.5-23.6-25c0-15.9,10.7-27.3,25.4-27.1c13,0.2,22,9.4,21.8,22.5
	C2033,1176.6,2022.2,1190.2,2009.6,1190.2z"/>
<path d="M1878.2,1072.5c-0.5,15.5-7.5,23.8-20.1,23.8c-13.5,0-26.3-13.4-26.2-27.4c0.1-13,11-22.2,26.2-22.4
	C1873.2,1046.4,1878.9,1053.8,1878.2,1072.5z"/>
<path d="M1978.5,787.7c12.7-0.5,23.2,8.6,23.9,20.9c0.9,14.3-10.5,28.6-23.7,29.9c-13.4,1.3-23.2-9.2-23-24.7
	C1955.8,798.7,1964.9,788.2,1978.5,787.7z"/>
<path d="M1857.6,928.2c0.3-16.9,7.8-26,21.6-26.3c14.6-0.3,24.4,9.4,24.2,23.9c-0.2,16.2-11,26.9-25.9,26
	C1863.6,950.9,1857.3,943.4,1857.6,928.2z"/>
<path d="M1737,1059.4c5.1,2.2,10.1,4.3,15.1,6.8c0.2,0.1-1.4,5-1.9,5c-5.4-0.7-10.7-1.8-16-2.9
	C1735.2,1065.3,1736.1,1062.3,1737,1059.4z"/>
<path d="M2343.5,964.1c-0.7,15.2-9.8,24.4-23.9,24c-13.9-0.4-25.3-13.9-24.1-28.3c1.2-14.2,11.3-23.8,25.2-23.9
	C2335.5,935.7,2344.3,946.6,2343.5,964.1z"/>
<path d="M2259.6,833.7c-13.8,0.6-25-9.9-24.8-23.5c0.2-13.2,12.9-24,28.8-24.1c11.8-0.1,21.4,3.5,22.8,17
	C2287.9,817.7,2274.2,833,2259.6,833.7z"/>
</svg>
