<?xml version="1.0" encoding="utf-8"?>
<!-- Generator: Adobe Illustrator 24.3.0, SVG Export Plug-In . SVG Version: 6.00 Build 0)  -->
<svg version="1.1" id="Layer_1" xmlns="http://www.w3.org/2000/svg" xmlns:xlink="http://www.w3.org/1999/xlink" x="0px" y="0px"
	 viewBox="0 0 4000 4000" style="enable-background:new 0 0 4000 4000;" xml:space="preserve">
<path d="M2115.8,352.2c104.7,0,209.3,0.5,314-0.1c163.7-0.9,321.5,31.1,475.1,85.5c97.8,34.6,197.4,61.3,300,77.9
	c103.7,16.7,204.1,45.3,297.2,95.9c49.5,26.9,96.8,57.3,135.2,98.9c76.9,83.2,99.9,181.3,76.5,291.2c-0.7,3.2-1.3,6.4-2.6,9.4
	c-14.3,33.8-13,61.5,15.3,91.6c28.1,29.8,25.8,71.8,17.3,111c-13.1,60.5-36.6,117.4-62.9,173c-109.3,231.2-224.9,459.2-356.4,678.7
	c-122.5,204.5-245.4,408.8-370.6,611.6c-103.7,168.1-215.7,330.8-335.2,488.1c-41.7,54.9-85.5,108.6-132.2,159.4
	c-58.8,64.1-126.5,116.9-210.4,146.3c-120.2,42-233.4,27.2-341.2-38.2c-57.5-34.9-107.8-79-155.9-125.8
	c-118.5-115.2-227.8-239.1-335.5-364.2c-154.8-179.9-309.8-359.8-460.3-543.3c-131.3-160.1-257.3-324.6-384-488.4
	c-26.1-33.8-46.3-72.6-66.9-110.2c-14.8-27-19.2-57.7-14.9-88.1c2.8-20.2-5.4-31.3-18.9-44.2c-50.4-48.7-101.2-97.2-148.6-148.8
	c-59.4-64.6-100.3-140.1-118.6-226.8c-22.6-107.3-1-208,48.7-303.6c55.8-107.5,142.9-185.4,243-250.2
	c89.9-58.2,189.6-93.2,292.7-117.8c121.4-28.9,236.2-74.4,348.5-127.6c129.2-61.2,263.7-107.5,405.3-129.3
	c61.7-9.5,124.4-15.1,186.7-16.4c119.7-2.5,239.5-0.7,359.3-0.7C2115.8,348.7,2115.8,350.4,2115.8,352.2z M593.9,1655.3
	c-16.7,41.7-27.9,77-10.9,112.2c18.2,37.7,38.4,75.1,63.2,108.6c59.8,80.5,122.3,159,184.8,237.5c77.3,97.1,155.1,193.7,233.6,289.8
	c69.6,85.2,139.4,170.4,211.1,253.9c97.7,113.8,196.2,226.9,296.5,338.4c83,92.2,168,182.6,254.2,271.7
	c45.7,47.2,94.2,92.4,153.2,123.4c84.5,44.4,172.2,58.9,265.5,28.3c67.3-22.1,125.9-58.4,173.6-109.2
	c56-59.6,110.4-121.5,159.6-186.8c145.5-193.2,278.3-395.2,404.2-601.5c112.4-184.1,221.8-370.1,330.9-556.2
	c106.4-181.5,202.5-368.6,294.3-557.9c31-64,61.3-128.3,81.2-197.2c12.7-44,0.1-76.1-35.6-101.2c-12.3-8.7-24.8-17.7-38.6-23.4
	c-43.8-18.2-87.4-37.1-132.4-51.8c-109.8-35.9-222.3-61-335.9-82.1c-160.4-29.7-322-49.5-484.6-59.8c-245-15.6-487,6.7-726.2,61.5
	c-198.4,45.4-388.7,114.6-574.5,196.6c-134.3,59.3-262.8,130.3-388.7,205.7c-16.2,9.7-32.7,18.9-52.9,30.7
	c61.7,44.8,87.1,104.5,86,173.3c-1.1,69.3-25.8,131.6-78.8,178.6c-45.2,40.1-100.6,52.4-160,47.3
	C685.5,1778.5,629.7,1735,593.9,1655.3z M1297.8,1110c7.6-3.2,14.6-5.9,21.4-9c180.6-83.5,367.8-148.2,560.7-196.2
	c133-33.1,267.9-55.6,404.7-67.7c110.9-9.8,221.9-14.6,333-8c176.6,10.5,352.6,28.2,526.6,61.7c137.7,26.5,274.8,55.1,407,103.1
	c6.1,2.2,13,2.5,23.2,4.3c-3.6-7.9-4.8-12-7.1-15.4c-39.5-56.5-86.9-104.7-149.1-136c-34.6-17.4-70.2-33.1-106.1-47.9
	c-71.3-29.4-135.2-71.5-200.7-111.2c-126.8-76.9-263.7-124.4-412.3-128.8c-99-2.9-198.4,1.2-297.5,5.7
	c-77.9,3.6-155.3,1.2-232.6-7.6c-95.6-10.9-191.6-18.1-287.4-7.4c-149.6,16.7-295,51.4-434.8,108.5c-80.9,33.1-163.3,62-249.6,78
	c-90.4,16.7-172.8,50.4-246.9,106.9c-31.9,24.3-71.7,38.9-109.3,54.8c-26.6,11.4-55.3,17.9-83.2,26.2
	C675,948.8,599,985.6,537,1047.5c-88.5,88.5-108.3,221.5-49.3,327.9c29.9,53.8,76,89.6,127.5,121c25,15.3,29.6,16.1,53.4-4.7
	c59.5-51.9,123.4-97.5,190.6-138.9c117.6-72.5,236.6-142.3,360.4-203.7c7.4-3.7,14.2-8.7,21-12.8c-9.7-25.4-20.2-40.5-39.9-55.5
	c-35-26.7-74.2-43.6-118.5-47.7c-98.9-9.2-190.8,15.8-276.8,62c-25,13.4-47.4,34.2-66.4,55.7c-47.5,53.7-52.8,124.3-17.6,186.6
	c3.7,6.6,8.2,12.7,11.8,19.3c5.7,10.5,6.3,21.1-3.8,29.2c-10.6,8.5-23,13.6-35.6,4.9c-6.9-4.7-12.8-11.6-17.7-18.5
	c-17.4-24.1-27.5-51.2-31-80.7c-12.2-103.5,38.3-197,139.3-248.4c82.5-41.9,171-68.4,264.1-67.5c101,1,188.8,33.2,241.8,127.9
	C1291.3,1105.4,1293.6,1106.4,1297.8,1110z M595.7,1556.3c-23.3-16-44.9-29.9-65.6-45.2c-150.5-111.3-181.3-316.7-69.1-465.2
	c47.7-63.1,107.5-112.5,181-142.5c49.8-20.3,100.9-37.7,152.4-53.5c50.1-15.4,96.6-36.9,138.4-68.3c65.9-49.4,139.9-80.8,219.9-97.8
	c102.6-21.8,201.8-54.1,299.1-93c192.9-77.1,393.4-112.4,601.2-102.4c58.1,2.8,116.1,8.6,174.1,13.8c113.3,10.1,226.5,2.6,339.6-3.5
	c72.5-3.9,144.9-3.7,216.5,6.1c133.2,18.3,256.8,64.2,369.4,138.4c59.5,39.2,120.8,75.1,187.1,102c30.9,12.5,60.9,27.6,91,42.2
	c93.3,45.3,165.1,112.7,210.8,206.7c2.6,5.4,6.7,10.1,12.1,18.1c3.6-8.3,6.7-12.8,7.4-17.6c5.4-39.7,8.2-79.4-0.9-119
	c-17.6-76.8-64-132.9-127-177.2c-99.4-69.8-212-106.1-330.1-124.7c-113.4-17.8-224.4-43-331.9-83.3
	c-142.9-53.6-290.8-78.8-443.4-79.5c-203.9-1-407.9-4.8-611.8-4.3c-73.1,0.2-146.6,6.4-219.3,15.2
	c-150.4,18.4-291.1,69.7-426.5,135.7c-106.1,51.7-215.4,93.7-330.4,120.7c-102.6,24-199.9,61.3-289.8,116.8
	c-94.2,58.2-175.3,129.9-224.5,231.4c-58.4,120.2-63.2,241.2,4.7,359.5c21.3,37.2,47,72.7,75.7,104.6c42.2,47,88.9,90.1,136,137.2
	C560.8,1602.5,576.8,1581.4,595.7,1556.3z M950.5,1566.6c1.5-59-22.8-97.2-57.4-130.4c-18.7-17.9-24.2-19.9-44.7-4.7
	c-57.1,42.2-115.1,83.7-169,129.8c-51.4,44-49.4,46.4-14,103.6c32.7,52.8,96,78.8,156.6,64.1
	C903.1,1709.3,949.8,1647.1,950.5,1566.6z"/>
<path d="M3274.8,1818.8c7.5,0,15.2-0.6,22.6,0.1c21.2,2.1,29.7,18.4,18.5,36.7c-13.8,22.5-36.3,25.9-59.7,23.3
	c-63.1-7-112-37-143.2-93.1c-31.9-57.4-39.3-118.1-22.3-181.5c25.2-94.4,80.5-169.8,155.7-228.8c98.8-77.5,232.5-37.7,285.8,44.7
	c12.2,18.9,10.5,29.8-5.8,41.4c-12.2,8.7-24.1,8.6-34.8-2.5c-3.7-3.9-7-8.2-9.9-12.7c-40.5-62-140.2-75.9-204.6-24.6
	c-51.3,40.9-92.2,91.1-119.6,150.9c-24.7,54.1-29.2,110.2-6.3,166.6C3173.3,1793.3,3218,1822.1,3274.8,1818.8z"/>
<path d="M1657.4,1398.8c0.8,90.5-67.4,157.1-161.3,157.7c-84.9,0.5-156.5-69.4-156.6-152.9c0-87.5,73.7-161.5,160.6-161.3
	C1585.4,1242.4,1656.7,1313.3,1657.4,1398.8z M1495.8,1502.1c77.7,1,110.1-57.8,111.2-102c1.4-56.8-46.6-103.3-105.8-104
	c-60.9-0.7-106.4,46.5-106.2,110.2C1395.2,1460.5,1439.2,1502.3,1495.8,1502.1z"/>
<path d="M1801.8,1606.8c83.9-0.2,154.4,67.9,155.5,150.1c1.1,80.9-62.2,142.5-147.1,143.3c-83.9,0.8-151.7-62.6-152.8-143
	C1656.2,1673.9,1720.5,1607,1801.8,1606.8z M1807.8,1847.9c54,0.2,98.1-38.5,98.7-86.5c0.6-51.1-49.4-101.2-101.9-102
	c-48.6-0.8-91,42.3-92.1,93.7C1711.5,1802.5,1756.9,1847.7,1807.8,1847.9z"/>
<path d="M1695.3,2343.2c-64.3-2.1-114.9-52.8-112.9-113.1c2.2-66.5,53.7-113.3,121.6-110.5c60.7,2.5,107.5,51.7,106.4,111.9
	C1809.5,2292.9,1755.5,2345.2,1695.3,2343.2z"/>
<path d="M2486.5,2335c-62.6,0-111.9-49.9-111.7-113.4c0.2-60.3,51.6-112.3,110.7-111.8c62.6,0.5,114.7,53.7,113.9,116.5
	C2598.8,2287.5,2549.4,2334.9,2486.5,2335z"/>
<path d="M2575.7,1367.8c-0.1-71.1,53.5-125.8,123.7-126.3c65.6-0.5,125.8,57.6,126.6,122.2c0.9,74.6-51.8,127.1-128.4,127.8
	C2628.8,1492.1,2575.8,1438.3,2575.7,1367.8z M2700.1,1435.6c39.3-0.4,69.4-30.3,69.6-69.3c0.2-39.3-30.7-70.5-68.9-69.4
	c-42.4,1.2-72.3,31.2-71.3,71.2C2630.2,1399.7,2655.9,1439.5,2700.1,1435.6z"/>
<path d="M2091.5,2445.5c-72.8-0.9-128.6-45.3-141.2-112.9c-1.9-10.4-2-21.4-1.3-32c1-13.9,10-20.9,23.6-21.6
	c13-0.6,23.5,3.1,26.8,17.5c1.9,8.4,4.1,16.7,5.6,25.2c5.6,32.1,25.3,51.2,55.7,60.4c34,10.3,65.8,5,95.6-13.9
	c17.7-11.3,24.8-29.1,29.1-48.4c1.7-7.3,2-14.9,3.3-22.3c2.1-12.7,7-22.5,22.4-22.2c14.3,0.3,25.8,5.3,29.6,19.8
	c2.1,8,2,17.1,1,25.4C2232.2,2397.6,2173.2,2446.6,2091.5,2445.5z"/>
<path d="M3138.2,1068.9c0.6,17.8-17.8,33.3-32.9,29.8c-5.1-1.2-9.9-4.1-14.7-6.5c-74.4-36.5-152.7-51-235.2-40.7
	c-9.6,1.2-19.5,1.8-29,0.8c-21.3-2.2-31.2-24.8-16.4-39.9c8.4-8.6,21.5-15.9,33.3-17.3c86-10,169.9-0.4,250,33.7
	c13.4,5.7,24.9,16.6,36.3,26.2C3134,1058.8,3136.1,1065.5,3138.2,1068.9z"/>
<path d="M2751.8,2751.5c-11-10.6-20.1-17.7-27.1-26.6c-8-10.2-3.4-20.3,4.3-29.1c9.9-11.3,21.1-21.8,29.7-34
	c31.5-44.8,62.2-90.3,93-135.5c4.8-7.1,8.4-15,13.4-22.1c10.3-14.5,21.9-17.9,35.6-11.2c15,7.3,21.7,21.4,16.7,37.5
	c-2.5,8.1-6.2,16.3-11,23.3c-39.1,56.6-77.9,113.4-118.3,169C2779.9,2734.1,2765.5,2740.9,2751.8,2751.5z"/>
<path d="M1813.6,3105c3.8,2.4,11.7,5.9,17.6,11.6c9.2,8.9,17.3,19.2,25.5,29.1c28.5,34.4,62.7,62,99.7,86.6
	c5.4,3.6,11,6.8,16.3,10.5c22.4,15.6,26.2,26.1,15.5,41.6c-12.5,18-30.4,22.6-50.2,7.7c-36.1-27.1-71.4-55.4-104.8-85.7
	c-18.2-16.4-33.3-36.8-47.3-57.1C1773.1,3131,1787.7,3105.2,1813.6,3105z"/>
<path d="M824.8,1979c-1-16.8,7.5-25.7,20.9-30.2c12.7-4.3,23.2-0.4,30.5,11.2c1.1,1.8,2.7,3.5,3.4,5.4c14.5,39.1,41.4,69.6,67.5,101
	c14.3,17.2,12.1,32.1-4,44.2c-10.6,8-23.4,9.9-32.4,0.5c-34.9-36.6-66.2-76-84.3-124.1C825.3,1984,825.2,1980.7,824.8,1979z"/>
<path d="M1576.5,2520.7c-21.6-0.5-34.1-16.6-26.3-33.3c14.5-31.1,31.2-61.1,47.7-91.2c7.9-14.5,20.7-13.4,33.6-7.5
	c12.4,5.7,14.1,16.4,8.8,27.1c-15.7,31.6-32.1,63-49.2,93.9C1587.9,2515.4,1579.8,2518.3,1576.5,2520.7z"/>
<path d="M2581.1,2374.8c2.9,1.9,12.1,4.9,15.8,11.1c16.9,28.6,32.8,57.8,47.8,87.4c5.3,10.4,3.1,22-9,27.2
	c-10.7,4.7-24.3,9.9-32-3.1c-17.9-30.4-35.5-61.1-50.2-93.1C2545.7,2387.5,2556.4,2375.8,2581.1,2374.8z"/>
<path d="M2494.6,2387.4c2.8,2,10.7,4.8,13.9,10.3c15.9,27.8,31.5,55.9,44.9,85c2.7,5.9-2.3,19.5-8.1,24.2c-6,4.9-17.4,4.6-26.2,4.1
	c-4.1-0.2-9.1-5.8-11.6-10.1c-14.4-25-29.4-49.7-41.7-75.8C2456.4,2405.3,2468.8,2388.2,2494.6,2387.4z"/>
<path d="M3463.7,1576.9c-7,25.4-16.9,54.8-38.2,78.4c-10,11.1-21.4,4.9-32.1-1.1c-10.2-5.8-18.5-13-13.3-25.5
	c10.3-24.6,21.2-49.1,33.4-72.8c6.1-11.8,18.5-14.3,30.9-10.5C3456.9,1549.3,3463.8,1558.3,3463.7,1576.9z"/>
<path d="M1700.7,2394.2c33.8,16.5,36.6,23.7,23.1,50.9c-11.5,23.2-22.8,46.5-34.8,69.4c-7.6,14.6-18.8,18.8-31.4,12.7
	c-12.7-6.1-17.5-17.3-12.4-29.6C1660,2462,1676.4,2427,1700.7,2394.2z"/>
<path d="M2738.8,2461.1c-7.7,10.3-11.8,21.1-19.1,24c-7,2.8-21.9,0.4-25.3-4.9c-18-27.9-34.4-57-49-86.8c-2.9-5.8,2.2-20.2,8-24.4
	c6.2-4.4,23.1-5.2,26.1-1C2700.4,2397.7,2718.8,2429,2738.8,2461.1z"/>
<path d="M1489.5,2499.2c-19.5,0.3-31.4-12.9-25.4-28.1c11.5-28.9,25.3-57,39.8-84.6c7-13.3,19.7-15.2,33.5-8.2
	c14.1,7.1,14.3,18.8,8.8,30.1c-13.2,27-27.4,53.6-42.3,79.8C1500.6,2493.8,1492.7,2496.9,1489.5,2499.2z"/>
<path d="M2572.2,1752.3c-17.9,0.4-31.5-11.3-32.7-28c-1.2-17.9,15.8-36.7,33-36.4c15.4,0.3,29.8,15,30.5,31.4
	C2604,1738.2,2591.2,1751.8,2572.2,1752.3z"/>
<path d="M1396.7,1796.2c18.1-0.2,33.6,14.3,33.5,31.5c-0.1,17.5-15,32.8-32.4,33.2c-16.2,0.4-30.9-13.7-31.2-29.9
	C1366.1,1812.2,1379.9,1796.4,1396.7,1796.2z"/>
<path d="M2135.2,1339.6c0.8-16.3,15.8-32.7,30-32.9c15.9-0.2,34.3,18,33.9,33.3c-0.4,16.5-17.4,31.6-35.2,31.3
	C2145.9,1370.9,2134.3,1358.2,2135.2,1339.6z"/>
<path d="M1766.8,3047.5c-0.5,16.8-16.8,31.3-35,31.1c-15.8-0.2-29.7-15.5-29.3-32.3c0.5-17.8,13.7-31.3,30.4-31
	C1750.8,3015.5,1767.3,3031.2,1766.8,3047.5z"/>
<path d="M2977.6,2409.8c0.6,19.5-15,36.6-33.3,36.4c-13.9-0.1-29.2-14.7-30.2-28.7c-1.2-17,17.2-36.5,34.2-36.3
	C2964.3,2381.6,2977.1,2394,2977.6,2409.8z"/>
<path d="M3360.2,1746.1c-17-0.1-32.3-14.4-31.5-29.4c0.8-14.8,16.7-29.3,32.4-29.8c17.7-0.5,32.5,12.1,32.7,27.9
	C3393.9,1732,3378.7,1746.1,3360.2,1746.1z"/>
<path d="M2617.9,2833.6c14.1-0.1,29.3,13.9,30.1,27.8c1,16.8-16.4,35.7-33.6,36.5c-15.8,0.7-26.8-11.4-26.7-29.1
	C2587.9,2850.5,2602.2,2833.7,2617.9,2833.6z"/>
<path d="M1027.7,2174.4c0.7,16.3-12.6,31.3-28.6,32.4c-16,1.1-33.1-13-33.4-27.5c-0.3-15.2,17.9-33.8,32.8-33.5
	C1012.6,2146.1,1027,2160.1,1027.7,2174.4z"/>
<path d="M2743.3,1035.7c-0.7,17.1-14.4,30.8-30.6,30.6c-17-0.1-29.3-11.8-29-27.5c0.3-15.9,15.5-31.5,30.6-31.3
	C2730,1007.8,2743.9,1021.3,2743.3,1035.7z"/>
<path d="M2411.5,593c38.9-1,74.7,9,106.2,31.9c61.3,44.6,58.3,119.5-8.8,154.7c-65.4,34.3-133.9,40.6-199.6-0.5
	c-50.3-31.4-57.6-91.2-18.7-136.3C2322.4,606,2363.9,591.9,2411.5,593z M2401.1,748.8c33.4,0.7,62.4-5.9,87.8-24
	c20.7-14.8,21.3-30.9,3.3-48.1c-39.9-38.3-122.3-34.9-158.5,6.4c-16.4,18.8-14.7,32.8,5.9,48.5
	C2358.6,746.1,2380.6,749.3,2401.1,748.8z"/>
<path d="M1446.7,847.9c-17.5,0.2-30.1-12.3-30.4-30.5c-0.4-18.9,13.8-34.3,31.3-34.1c16.5,0.2,32.2,14.2,33.1,29.5
	C1481.8,832,1466.6,847.7,1446.7,847.9z"/>
<path d="M1903,730.4c-17.4-0.1-32.5-13.9-31.9-29.1c0.7-17.4,17.2-34.6,32.6-34c14.5,0.6,28.7,14.7,29.3,29.1
	C1933.8,715.9,1921,730.5,1903,730.4z"/>
<path d="M2889.6,684.8c14.2,0.4,28.8,15.2,29,29.3c0.2,17.8-14.9,34.9-30.9,34.9c-16.3,0.1-31.2-14.7-31.1-30.7
	C2856.6,701.7,2873.7,684.4,2889.6,684.8z"/>
<path d="M416.9,1030.3c-16.5-0.1-33.7-18.9-29-33.4c9.8-30.4,30.8-53.5,57-70.9c5.1-3.4,18.2-1.4,23,3.1c5.9,5.4,12.3,19,9.5,24
	c-14.2,24.8-31,48.1-47.8,71.4C427,1028.1,420.2,1028.9,416.9,1030.3z"/>
<path d="M529.8,910.5c-12.8-0.3-26.6-16-27.1-30.7c-0.5-16,18.6-34.5,35.7-34.5c14.9,0,29.1,13.8,29.2,28.3
	C567.6,891,547.3,910.9,529.8,910.5z"/>
</svg>
