<?xml version="1.0" encoding="utf-8"?>
<!-- Generator: Adobe Illustrator 24.3.0, SVG Export Plug-In . SVG Version: 6.00 Build 0)  -->
<svg version="1.1" id="Layer_1" xmlns="http://www.w3.org/2000/svg" xmlns:xlink="http://www.w3.org/1999/xlink" x="0px" y="0px"
	 viewBox="0 0 4000 4000" style="enable-background:new 0 0 4000 4000;" xml:space="preserve">
<path d="M3348.7,2172.2c95,69.1,142.6,159,141.1,271.9c-1.6,113-57.8,196.9-153.4,261.3c115,83.5,163.2,195.7,152.9,332.3
	c-7.7,102.2-49.1,189.9-127.2,257.5c-84.1,72.7-184.4,100.5-293.5,90.6c-109.5-9.9-196.8-62.2-261.7-159.6
	c-41.2,65.4-90.1,115.5-159.5,141.1c-67.9,25.1-136.2,30.3-206.2,8.8c-71.1-21.9-125.8-65.4-170.2-130.2
	c-9.4,10.4-17.2,18.1-24,26.6c-118.4,146.7-349.7,158.9-480.1,50c-18.7-15.6-34.2-35-51.1-52.8c-6.2-6.6-12-13.5-18.4-20.6
	c-141.5,194.2-422.2,181.8-541.1-12.3c-48.1,61.4-104.8,110.2-179.5,133.4c-73.3,22.8-146.9,25.2-221.1,4
	c-75.1-21.5-139.6-59.6-189.4-120.4c-68.7-84-96.8-180.6-83.1-287.9c13.4-105.3,60-193,152.7-257.3c-61.9-42.6-111.2-91.2-136-160
	c-24.6-68.2-28.9-136.6-5.8-206.2c22.7-68.5,61.3-125.4,124.9-168.8c-92.9-68.6-142.4-158.4-141.1-271.1
	c1.3-110.9,50.5-199.9,143.5-268.7c-93-67.3-144.5-155.4-142.4-267.1c2-109.2,51-197.1,145.5-262.2
	C520.7,1025.1,471.8,921.8,479,797.5c5.9-103.1,51.1-190.7,130.1-259.6c143.3-125,408.9-127.1,545.7,60.8
	c42.3-59.4,92.3-108.3,162.5-131.2c68.8-22.4,137.7-23.8,206.8-1.6c70.1,22.5,127.4,62.4,169,131
	c71.3-105.4,170.8-149.7,289.5-149.3c117.5,0.5,215.6,46.6,290,146.3c66.5-97.4,155.8-147.7,271.4-143.3
	c114.5,4.4,202.5,57.2,265.5,158.6c77.9-114.7,185-162.9,317-158.3c98.7,3.4,185.4,38,255.4,108c76.8,76.9,111.9,172.4,106.7,280.2
	c-5.2,107.2-54.6,194.2-142.3,262.5c96.1,65.6,145.7,153.8,146.1,265.3c0.4,111.8-50.9,199.5-144.1,265
	c95.5,68.2,143.6,158.8,143.9,270.9C3492.4,2014.9,3443,2104.9,3348.7,2172.2z M857.9,512.6c-113.9,0.1-215.8,57.2-276,153.1
	C507,784.8,522,988.7,706.1,1070c7.5,3.3,15.2,6.3,21.9,10.9c22.3,15.1,20.8,40.9-3.2,52.5c-9.4,4.6-19.8,6.9-29.6,10.8
	c-67.4,27.3-116.5,73.4-140.4,142.7c-45.2,131.3,20.7,264.5,144,309.1c17.8,6.4,36.1,12,36.8,36.2c0.7,25.8-19.7,27.9-36.9,34.7
	c-97.9,38.5-157.8,126.7-159.6,234.5c-1.8,105.5,66.6,197.6,150,229.6c11.9,4.6,24.1,10,34.1,17.6c19.1,14.5,16.1,40.3-5.3,51.5
	c-6.1,3.2-13.1,4.9-19.7,7.3c-93.9,34.3-154.5,117.5-157.3,215.8c-2.9,104.5,53.8,196.5,145.4,235.9c11.8,5.1,23.8,9.6,35.9,14.2
	c15.2,5.8,26.8,14.4,27.2,32.5c0.5,18.9-12.4,25.5-27.3,31.7c-18.3,7.6-37,15.1-53.3,26c-106.8,71.7-154.8,204.3-116.9,330.8
	c39,130.2,128.1,207.4,262.3,226.9c116.5,17,259.7-36.1,309.1-162.3c1.3-3.3,3.1-6.3,4.7-9.4c6.8-13,15.1-23.4,32-22.9
	c17.2,0.6,24.3,12.3,30,25.5c6,13.9,9.6,28.9,16.5,42.4c72.9,142.9,245.3,161.2,363.1,87.9c41.9-26.1,72.7-62.1,88.3-109.8
	c2.5-7.7,5.7-15.6,10.1-22.3c15.5-23.2,43.1-22.3,56.9,1.7c4,7,4.9,15.8,9,22.8c14.1,24,25.6,50.7,44.2,70.7
	c66.5,71.1,151,97.2,245.6,81.5c98.4-16.4,180.1-59.2,212.6-163.6c5.5-17.7,17.2-27.9,36-27.4c18.2,0.5,24.1,13.7,30.5,28.9
	c9.9,23.5,19.9,48.1,35.6,67.6c96.3,119.8,260,120.2,367,23.5c23.9-21.6,41.1-47.7,52-78c4.7-13.2,8.7-26.9,15.3-39.1
	c12.3-22.8,38.9-24.5,54.3-3.4c6.8,9.3,10.6,20.8,15.7,31.2c36.5,74.7,94.9,124.7,174.7,146.1c186.9,50.3,386.2-65.7,411.3-268.2
	c15.3-123.6-62.4-273.3-183.5-311c-3.3-1-7-1.5-10-3.1c-13.7-7.2-20.6-18.9-20.8-34.1c-0.3-15.9,11.2-21.9,24-26.1
	c10-3.2,20.3-5.5,30.2-9.2c54.1-20.2,99.3-51.6,128.7-102.9c72.1-126.2,16.7-291.1-117-347.8c-7.5-3.2-15.5-5.4-22.7-9.3
	c-25.5-13.7-26.5-44.1-1.7-58.4c10.1-5.8,21.4-9.2,32-14.2c55.9-26.4,98.8-65.6,123.5-123.5c54.4-127.8-4.7-277.1-133.3-335.6
	c-7.4-3.4-15.6-5.5-22.3-10c-25.8-17.1-24.4-43.1,3.1-57.3c17.6-9.1,36.5-16,53.6-26c85.4-49.9,123.8-127.9,117.4-223.3
	c-6.6-98.3-56.6-171.9-151.4-209.4c-18.7-7.4-38.8-11.6-40.5-37c-1.7-26.1,18.6-32,36.4-40.8c65.5-32.5,115-80.4,137.8-151.3
	c36.1-112.2,13.9-213.6-65.4-299.6c-82.7-89.7-186.9-122.9-305.9-94.6c-96.4,22.9-168.3,79.3-203.7,175.2
	c-6.1,16.6-15.8,24.8-33.6,24.4c-17-0.4-25-10.5-29.5-25.1c-1.4-4.5-2.6-9-4-13.5c-18.9-61.2-57.8-106-113.3-137
	c-133-74.4-296.6-14.1-349.2,128.6c-2,5.5-4.3,10.9-6.1,16.5c-4.2,13-13.7,18.6-26.5,18.7c-13.4,0.1-25.8-2.7-32.1-16.6
	c-2.4-5.3-4.7-10.7-6.9-16.1c-46.3-112.8-160-179.8-280.9-163.7c-110,14.6-193.6,65.5-233.3,174.9c-7.3,20.3-27.2,28.9-44.7,18.7
	c-8.8-5.1-16.1-16.9-19.1-27C1614.2,526,1404.6,452.4,1264.4,571c-36.8,31.1-62.8,68.6-77.7,114.4c-7.5,23.1-18.4,29-38.5,26
	c-15.6-2.3-19.1-15-25.4-26.1c-15.5-27.2-27.1-58.5-48.4-80.3C1015.7,545.3,943.4,512.2,857.9,512.6z"/>
<path d="M1520.9,2221.2c-72.2-0.1-131.5-57.1-131.9-126.8c-0.5-74,59.3-134.8,132.8-134.9c73.5-0.1,129.2,57,129.1,132.5
	C1650.8,2162,1591.1,2221.3,1520.9,2221.2z"/>
<path d="M2569.7,2093.5c4.8,68.4-61.8,127-123,126.7c-73.1-0.3-133.4-58.1-133.6-129.4c-0.2-71.5,57.7-131.8,126.7-132
	C2515.2,1958.6,2570.1,2015.5,2569.7,2093.5z"/>
<path d="M1981.5,2338.9c-46.9-1.9-94.9-16.6-131.2-58.2c-25-28.6-35.4-62.5-33.9-100.2c0.6-15,5.2-27.4,21.3-32.4
	c17.6-5.4,29.7,0.5,34.9,18.3c2.3,7.8,3,16,4.1,24.1c9.4,71.7,81.3,99.1,140.4,83.2c41.4-11.1,70.1-36.2,75.1-82
	c0.9-8,4-15.8,5.6-23.8c3-15,12.4-22,27.2-21.6c16.2,0.5,26.8,8.9,28.6,25c3.7,33.8-5.4,65-23.3,93.3
	C2097.3,2316.7,2047.6,2337.8,1981.5,2338.9z"/>
<path d="M626.4,828.2c11.7-95.7,52.8-168.1,138.7-209.2c17.4-8.3,37.8-11.3,57.2-14c17.4-2.4,28.7,8.3,33.3,24.8
	c4.2,15-3.2,26.3-22,34.9c-5.3,2.4-11,3.7-16.6,5.3c-73,21.2-112.8,71.3-125.7,144.6c-1.6,9.2-3,18.5-3.1,27.8
	c-0.1,16.6-7.3,26.6-23.9,29.2c-16,2.5-28.7-5.7-34.3-23.1C627.6,840.9,627.2,832.7,626.4,828.2z"/>
<path d="M3080.8,3222.6c-37.2,1.4-52.3-12.7-47.2-37.4c3.8-18.5,16.6-23.4,33.5-24.1c35.9-1.5,68.3-14.3,99.1-31.9
	c34.6-19.9,58.6-48.9,75.9-84.9c11.9-24.9,28.9-28.2,46.3-9.8c6,6.4,10.3,19.6,8.1,27.6c-4.5,16.6-11.9,33.3-21.8,47.4
	C3226,3179.3,3157,3214,3080.8,3222.6z"/>
<path d="M2585.8,2422.1c-3.8-2.9-13.6-6.9-17.5-14.1c-18.6-34.8-36.2-70.2-53-106c-6.1-13.1-2.5-25.2,11.8-32
	c14.2-6.8,27.4-6.5,37.4,6.8c4.8,6.4,8.3,14,11.8,21.3c13.1,27.3,26.9,54.3,38.6,82.1C2625.1,2404.4,2613.3,2423.1,2585.8,2422.1z"
	/>
<path d="M2514.2,2413c-6.3,4.9-14.2,12.4-23.4,17.8c-10.4,6.1-21.6,4.1-27.2-6.6c-18.2-35-36.1-70.2-52.2-106.2
	c-6.2-14,4.2-30.5,18.6-36.4c14.4-5.9,26.7-0.3,32.7,11.8c17.6,35.3,33.4,71.5,49.8,107.4C2513.5,2402.8,2513.2,2405.3,2514.2,2413z
	"/>
<path d="M1468.4,2293.2c-4.3,12.2-6.1,20.4-9.9,27.4c-15.7,28.7-31.7,57.2-48.1,85.4c-6.9,11.8-15.5,20.6-31.3,12.8
	c-17-8.4-22.9-18.2-14.3-36.8c15.6-33.8,33.4-66.7,51.2-99.5c6.8-12.5,18.9-19.7,32.2-11.9C1457,2275.8,1462.5,2286.4,1468.4,2293.2
	z"/>
<path d="M2719.1,2379.6c-3.8,5.4-7.9,17.6-15.3,20.2c-7.5,2.6-23-1.5-26.9-7.8c-20.4-32.4-39.7-65.7-56.2-100.2
	c-8.7-18.1-1.3-31.7,13.3-38c16.2-7,27.5-0.1,34.6,13.9c16.4,32.1,31.9,64.6,47.6,97.1C2717.5,2367.7,2717.5,2371.5,2719.1,2379.6z"
	/>
<path d="M1498.7,2432.7c-21.8-1.4-36.1-18.2-29.4-34.2c14.3-34.2,30.6-67.7,47.9-100.5c8.2-15.6,25.3-19.1,38.7-11
	c14.1,8.5,18,21.3,10.5,35.9c-16.9,33.1-34,66-52.2,98.4C1510.8,2427.3,1502.1,2430.3,1498.7,2432.7z"/>
<path d="M1292.3,2401c-17.8,0.1-29.9-10.9-30.2-23.9c-0.1-5.6,1-11.9,3.5-16.8c14.5-29.2,28.7-58.5,44.7-86.8
	c10-17.6,23.3-21.5,37.8-14.9c14.2,6.4,19.1,19.2,9.8,38.8c-14.5,30.4-31.3,59.7-48.4,88.8C1305.2,2393.3,1296.2,2397.8,1292.3,2401
	z"/>
<path d="M1073.9,980.7c0-2.3-0.1-4.6,0-7c2-28.2,17.2-45.9,38.4-44.9c22.8,1.1,39,22.3,37.7,49.6c-0.1,2.3-0.3,4.6-0.7,6.9
	c-4.3,26.4-21.3,42.5-43.3,41.2C1085.7,1025.4,1074.1,1008.9,1073.9,980.7z"/>
<path d="M1069.5,2446.7c25.9,0.6,46.4,20.4,44.9,43.3c-1.4,22.7-19.5,37.4-46.1,37.5c-27.4,0.1-46.8-17.9-45.1-41.9
	C1024.6,2464.8,1046.7,2446.2,1069.5,2446.7z"/>
<path d="M2822.2,984.1c0.7-32.6,19-54.9,39.6-53.1c22.9,1.9,39.5,27.7,34.7,55.1c-1.4,7.9-3.8,15.8-7.3,23.1
	c-6.6,13.9-17.9,20.2-33.7,19c-14.5-1.2-23.7-8.4-28-21.9C2824.9,997.4,2823.3,988.3,2822.2,984.1z"/>
<path d="M1663.7,983.1c-0.6-28.6,15-51.3,35.7-51.9c21-0.7,39.1,19.5,39.9,44.6c1,29.4-16.1,50.7-40.8,50.7
	C1677.1,1026.4,1664.2,1010.5,1663.7,983.1z"/>
<path d="M2815.9,2889.4c0.3-37,16.8-58.4,38-56.8c21.8,1.7,38.1,24.5,35.6,52c-0.9,10.2-4,20.9-8.9,29.8
	c-10.7,19.8-39.2,21.8-52.5,3.1C2821,2907.7,2818.1,2894.7,2815.9,2889.4z"/>
<path d="M1137.3,2882.9c-0.3,26.5-16.4,45.8-37.9,45.5c-22-0.3-37.9-20-37.1-46.1c0.8-26.6,17-48.6,36-48.8
	C1120.6,2833.4,1137.7,2855,1137.3,2882.9z"/>
<path d="M2308.3,977.8c-0.7,27.9-17.5,47.7-40.3,47.6c-20.6-0.2-35.9-20.6-35.3-47.2c0.6-26.1,17.4-46.9,37.4-46.4
	C2291,932.3,2308.9,953.9,2308.3,977.8z"/>
<path d="M1064.7,1750c-25.8-0.6-43.8-16.4-44.1-38.7c-0.3-22.8,20.4-39.9,47.7-39.4c25.2,0.5,44.4,17.6,44,39.4
	C1111.9,1735.4,1093.1,1750.6,1064.7,1750z"/>
<path d="M1065.8,1383.8c-26.1-0.1-44.9-16.6-44.2-38.8c0.7-22,20.5-39,45.3-38.9c26.7,0.2,47.7,19,46.4,41.7
	C1112.1,1369.1,1092.6,1383.9,1065.8,1383.8z"/>
<path d="M1656.4,2886.3c-0.5-29.1,15.5-50.6,37.4-50c20.8,0.5,37.9,21.4,38.3,46.6c0.4,25.2-16.6,45.1-38.8,45.4
	C1671,2928.6,1656.9,2912.5,1656.4,2886.3z"/>
<path d="M2896.7,2524c-29.4,0.3-46.6-13.1-45.8-35.6c0.7-20.6,22.7-40.9,44.5-41.2c26.1-0.2,47.5,18.5,47,41.2
	C2941.7,2512.4,2927.2,2523.7,2896.7,2524z"/>
<path d="M2308,2882.3c-0.2,25.8-17.2,45.8-38.6,45.4c-22.5-0.4-36.9-16.7-37.1-42c-0.3-29.6,15.6-50.8,37.5-50
	C2290.9,2836.5,2308.1,2857.5,2308,2882.3z"/>
<path d="M2895.3,2121.4c-26-0.4-43.2-15-42.5-36.1c0.8-22.7,20.3-40.8,43.8-40.5c25.6,0.3,46.3,17,46.8,37.5
	C2943.9,2105.6,2924,2121.8,2895.3,2121.4z"/>
<path d="M1066,2038.7c25.6-0.4,46.8,18.4,46.8,41.6c0,23-17.9,38.3-44.6,38c-26-0.3-43.8-15.6-44.8-38.6
	C1022.5,2057.3,1041.4,2039,1066,2038.7z"/>
<path d="M2897.6,1683.6c26.3-0.1,44.5,16.3,43.9,39.5c-0.6,22.4-15.8,34.6-43.5,34.8c-27.5,0.3-44.1-12.3-44.3-33.7
	C2853.3,1702.1,2873.3,1683.6,2897.6,1683.6z"/>
<path d="M2900.3,1383.2c-25.8,0.5-43.5-14-43.1-35.5c0.4-20.8,19.4-37.8,42.5-38.1c24.2-0.3,45.2,15.9,45.3,34.9
	C2945.3,1367.1,2927.3,1382.6,2900.3,1383.2z"/>
<path d="M933.3,656.3c-19.1,0.6-38.5-14.6-40.1-31.7c-1.7-17.8,20.8-39.5,41-39.6c20.8-0.1,35.2,11.6,36.3,29.6
	C972,637.1,955.6,655.6,933.3,656.3z"/>
<path d="M3297.4,2915.3c21.4-0.2,36.9,13.7,36.7,33.2c-0.1,18.5-17.4,34.7-36.8,34.7c-18.7,0-34.7-17.1-34.2-36.6
	C3263.6,2927.4,3276.7,2915.5,3297.4,2915.3z"/>
</svg>
