<?xml version="1.0" encoding="utf-8"?>
<!-- Generator: Adobe Illustrator 24.3.0, SVG Export Plug-In . SVG Version: 6.00 Build 0)  -->
<svg version="1.1" id="Layer_1" xmlns="http://www.w3.org/2000/svg" xmlns:xlink="http://www.w3.org/1999/xlink" x="0px" y="0px"
	 viewBox="0 0 4000 4000" style="enable-background:new 0 0 4000 4000;" xml:space="preserve">
<path d="M230.2,1957.5c1-350.9,96.7-674.2,288.7-967.4c213.6-326.1,506.2-555.1,873-686.3c229.4-82,466.9-111,710.1-91.9
	c386.1,30.3,723.4,177.8,1013.3,431.1c247.6,216.3,413.2,487.5,508.9,801.5c67.7,222,87.9,449.4,66.8,679.7
	c-20.5,223.5-75.1,438.7-174.9,641.2c-138.9,281.7-337.1,511.4-598.6,686.2c-210.2,140.5-439.8,230.6-689.6,268.5
	c-237.9,36.1-473,21.6-705.5-40.8c-208.6-56-398.6-149.5-573.1-276.3c-120.3-87.5-228.6-187.4-322.2-303
	c-197.7-244.1-319.6-522.2-371.8-831.5C238,2165.5,229.1,2061.9,230.2,1957.5z M2576.1,3105.9c25-4.5,46.2-9.7,67.7-11.9
	c31-3.3,62.2-5.2,93.4-6.4c100.2-3.8,150.3-43.4,174.7-141.4c6.7-27.1,10.4-55.3,12.3-83.1c4.8-71.6,4.8-143.7,12.3-215.1
	c13-123.5,71-220.8,181.6-282.2c35.4-19.6,72.6-36.2,109.9-51.8c62.3-26.2,126.4-48.1,187.7-76.3c60.6-27.9,109.2-71.9,146.3-128
	c14.7-22.2,23.6-46,24.3-72.9c4.8-174.7-8.3-347.7-53.7-516.9C3476,1309.2,3381,1117.6,3247,944.9
	c-139.3-179.6-307.8-324-506.9-432.9c-206.6-113-427.5-177.3-662.8-193.8c-200.8-14.1-397.8,8.1-589.1,67.6
	c-293,91-541.8,252.9-743.9,484.7C581,1057.9,465.6,1271.3,398.9,1511c-26.3,94.5-48.9,189.6-52.2,288.1c-1,29.9,0.7,60.6,6.4,89.9
	c11,57.1,45.9,100,92.1,132.8c68.1,48.4,105.3,113.5,113.3,196c1.4,14.5,1.6,29.2,3.5,43.6c3.5,26.8,6.3,53.8,12.2,80.1
	c13.9,62,52.7,102.9,112.5,122.9c23.6,7.9,48.3,12.1,72.6,17.9c42.4,10.2,85.6,17.8,127,31c65.9,20.9,113.3,65,141.2,128.3
	c10.9,24.6,21.5,50.4,25.5,76.7c7.6,50.3,9.5,101.4,15.2,152c5.4,47.5,7.9,95.9,19.9,141.8c30.6,117.1,141.6,198.7,275.2,173.9
	c-19.5-9.6-44.3-18.2-64.9-32.7c-31.5-22.1-32.4-53.5-3.7-78.9c12.1-10.7,27.4-20.8,42.8-24.1c27.1-5.8,55.5-8.9,83.2-7.9
	c22.3,0.8,46.1,5.6,66.3,14.9c37.4,17.2,58.1,43.3,33.8,87.4c-0.6,1,0.9,3.2,1.9,6.1c8.1-1.2,16.2-2.3,24.3-3.5
	c64.2-8.8,128.3-12.7,192.5,0.6c79.7,16.5,147.3,54.7,207.2,109.2c33.8,30.7,69,60.5,106.8,86c44.6,30.1,95.3,39,149.3,28.2
	c49.8-9.9,91.9-33.9,127.8-68c36.9-35.1,71.1-73.1,106.3-110c1.8-1.8,1.6-5.5,2.7-9.8c-9.1-1-17.4-0.8-25.1-2.9
	c-20.9-5.8-43.4-9.3-61.9-19.8c-47.2-26.7-47-71.5-1.5-100.9c6-3.9,12.7-7.6,19.6-9.3c35.4-8.7,70.9-15,107.9-8.8
	C2520.8,3048.8,2557.1,3063.2,2576.1,3105.9z M340.5,2019.6c-1.4,10.2-2.6,14.2-2.3,18.1c7.8,101.8,16.9,203.4,39.5,303.2
	c56.7,249.5,162.2,475.8,322.9,675.7c116.5,145,253.1,267.2,410.5,366.3c246.1,155,515.1,236.4,805.1,247.5
	c196.4,7.5,388.3-20.9,574-86.3c354.2-124.7,633.7-345.4,837.6-660.2c126.3-194.9,202.3-409.7,238.3-638.8
	c1.3-8.6,0.2-17.5,0.2-30.6c-10,8.5-17.2,14.1-23.8,20.2c-36.9,34.5-78.6,61.7-125,81.4c-33.5,14.2-68,26.2-101.6,40.1
	c-52.8,21.8-106.8,41.5-157.6,67.4c-62,31.6-108.6,80.6-134.8,146.1c-18.7,46.9-25.2,96.4-26.4,146.8c-1.2,52-1.4,104.2-4.4,156.1
	c-3.1,53.3-14.3,105.1-36.3,154.2c-31.4,70.2-85.2,112.2-160.7,123.9c-43.1,6.7-86.9,8.8-130.4,12.3
	c-78.1,6.3-145.3,34.1-195.6,96.5c-9.8,12.2-20,24-30.2,35.9c-30.5,35.7-62.4,70.1-102.2,95.9c-104.8,67.9-212.4,75-320.5,9.8
	c-34.5-20.8-64.7-48.7-96.5-73.8c-25.3-20-48.7-42.6-75.2-60.8c-67.8-46.7-143.5-65.7-225.3-54.4c-44.2,6.1-88.1,15-131.9,24
	c-60.3,12.4-120.5,24.7-182.4,21.2c-136.1-7.7-244.9-82.6-282.9-219c-15-53.6-20.1-108.2-23.6-163.4c-3.1-47.7-5.2-95.8-13.4-142.8
	c-15.4-89-67.7-145.1-158.2-163.2c-46.9-9.4-93.9-18.8-140.2-30.6c-104.2-26.7-166.7-93.3-185.8-199.7c-1.7-9.2-2.8-18.5-3.8-27.8
	c-3.7-33.1-6.5-66.3-11.3-99.3c-4.8-33.3-12.8-66.6-37.2-91.1C415.7,2086.6,379.6,2055.6,340.5,2019.6z M2447.1,3148.4
	c20.5-4.8,48.1-8.8,73.9-17.9c21.8-7.7,22.1-22.1,4.4-36.8c-32.9-27.2-122.3-28.5-156.4-2.1c-2.4,1.9-6.3,3.7-6.7,6.1
	c-1.3,7.4-4.4,17.5-0.9,22c6.6,8.5,16.4,16.8,26.4,19.8C2404.3,3144.3,2422.1,3144.9,2447.1,3148.4z M1498.4,3114.8
	c-10.5-24.4-28.9-32.9-48-37c-31.8-6.7-64.2-7.4-95.7,2.7c-16.5,5.4-38.8,10.5-38.2,30.8c0.6,19.3,22,27,38.9,30.7
	c37.1,8.2,74.6,8.2,110.5-6.3C1477.7,3131.1,1487.7,3121.9,1498.4,3114.8z"/>
<path d="M1965,1468.9c288.3-0.1,479.4,235.1,482.2,479.7c3,271.2-214.1,495.2-477.2,496.4c-247.1,1.2-488.6-200.2-488.4-485.5
	C1481.8,1710.8,1681.9,1467.7,1965,1468.9z M1964.4,2335c199.8-3,377.3-152.6,375.1-382.1c-2.2-235.5-190-378.5-375.4-375.1
	c-197.6,3.6-376.5,159.8-373.2,388.4C1593.9,2165.8,1767.6,2337.6,1964.4,2335z"/>
<path d="M2536.1,2862.1c-0.3,87.6-69.9,157.3-156.6,156.9c-80-0.3-148.5-72.2-148-155.2c0.6-86,68.6-155.5,151.3-154.7
	C2467.9,2709.9,2536.5,2778.3,2536.1,2862.1z M2417.3,2858.5c29.6,0.1,51-19.8,50.4-46.8c-0.6-25.8-24.2-48.1-51.1-48.3
	c-29.2-0.2-48.4,18.8-49.1,48.4C2367,2840.5,2386,2858.4,2417.3,2858.5z"/>
<path d="M1622.2,2862.5c-0.7,84.8-70.5,159.5-149.7,156.6c-106.4-3.9-156.4-83.9-154.5-157.5c2.1-81.4,73-153.2,151.8-151.9
	C1556.3,2711.1,1622.9,2777.9,1622.2,2862.5z M1487.8,2812.4c0.1-27.2-20-48.7-45.7-48.9c-28-0.1-49.6,21.4-49.5,49.1
	c0.1,25.8,21.7,48.3,46.8,48.8C1468.1,2861.9,1487.7,2842.2,1487.8,2812.4z"/>
<path d="M2148.7,2608.8c-0.4,25.4-6.4,42.5-20.6,56.4c-7.4,7.3-14.5,15-22.4,21.6c-43.8,36.7-88.9,71.9-131.4,110
	c-51.3,46-134.3,17.1-151.2-53.4c-6.3-26.1-1.8-49.7,16.8-69.4c10-10.5,20.8-20.3,31.9-29.7c36.4-30.9,73.1-61.6,109.7-92.2
	c6.4-5.3,13-10.3,19.6-15.4c29.4-22.9,60.8-31.7,95.3-12C2131,2544.5,2146.5,2575.7,2148.7,2608.8z M2102.2,2616.3
	c-3.6-28-17.1-44.5-37.7-54.6c-17.3-8.5-29.2,4.4-40.9,14.3c-39.5,33.5-78.9,67.2-118.3,100.9c-7.1,6.1-14.5,11.9-20.9,18.6
	c-19.7,20.6-20.5,39.5-3.3,60.9c17.7,22,35.1,25.4,59.1,6.2c50.1-40.2,98.9-82.1,147.6-124.1
	C2094.9,2632.3,2098.6,2622,2102.2,2616.3z"/>
<path d="M3297.6,2100.4c-54.6,0.5-99.4-44.3-99.2-98.9c0-20,8.8-36.3,21.5-50.4c17.4-19.2,35.7-37.7,54.3-55.7
	c30.6-29.5,62.4-57.9,92.8-87.7c56.2-54.9,138.1-12.4,153.5,50.7c5.5,22.5,1.6,43.4-10.6,62.6c-6.1,9.6-13.3,18.7-21.4,26.6
	c-43.9,42.7-88.2,85-132.5,127.2C3339.7,2090.3,3320.8,2100.6,3297.6,2100.4z M3478.9,1881.4c-3.6-27.2-18.8-40.8-37.7-50.8
	c-18-9.6-31.7-0.1-44.3,12c-42.7,40.9-85.4,81.7-128.1,122.7c-5.2,5-10.4,10.2-14.7,16c-13.8,18.9-13.8,32.4-0.6,51.2
	c20.2,28.9,44,32.6,70.7,8.5c31.6-28.5,61.7-58.5,92.5-87.9c15-14.3,30.7-28,44.6-43.4C3469.3,1900.9,3474.2,1889.2,3478.9,1881.4z"
	/>
<path d="M3157.6,984.8c-0.5,51-27.4,86.5-71,98.9c-17.9,5.1-35,4.1-51.7-3.4c-8.5-3.8-17-8-24.9-13
	c-51.9-32.8-103.2-66.5-155.5-98.7c-54.8-33.9-51.3-110.8-9.6-148.4c25-22.6,54.3-29.9,86.7-15.9c5.7,2.5,11.5,5.1,16.7,8.3
	c54.8,34,109.6,68,164.1,102.5c8.7,5.5,15.9,13.3,23.7,20.2C3152,949.6,3156.7,968.5,3157.6,984.8z M3112.6,992.9
	c1.5-15.1-2.9-24.4-22.8-37.6c-33.8-22.4-68.4-43.6-102.7-65.1c-20.3-12.7-40.6-25.3-61.1-37.6c-12.3-7.3-24.9-8.8-38.5-2
	c-33,16.6-38.9,56.9-8.5,77.9c53,36.6,107.2,71.6,162.1,105.2C3072.6,1053.2,3108.9,1031.1,3112.6,992.9z"/>
<path d="M3131.9,1270.3c37.4,4.5,78.7,9.4,120,14.3c26.8,3.2,53.9,5.1,80.4,9.8c52.7,9.2,81.6,46.9,76.1,96.8
	c-5.7,50.9-43.7,87.1-95,83.2c-68.3-5.2-136.5-13.6-204.3-23.8c-69.9-10.5-86.2-80.5-67-126.1
	C3057.6,1287.6,3085.8,1269.3,3131.9,1270.3z M3153.7,1316.8c-0.1,0.4-0.1,0.9-0.2,1.3c-10.3-0.5-20.7-1.7-31-1.3
	c-24,0.8-35,9.6-40.4,30.9c-8,31.3,7,54.2,41.8,59.2c62.5,9,125.2,16.7,188,23.9c25.2,2.9,43.9-12.5,49.2-37.4
	c6.4-30.2-4.2-49.8-34.8-54.5C3269,1330,3211.3,1324,3153.7,1316.8z"/>
<path d="M2780.8,2299.1c0.7-24.4,7-44.9,23.7-60.9c9-8.6,18.3-17.1,28.7-23.8c48.7-31.6,97.5-63.3,147-93.7
	c35.5-21.7,72.2-20.3,104.7,5.4c30.9,24.5,42.1,57.9,33.9,97.3c-4.3,20.7-16.3,35.7-33.4,46.9c-54.7,35.8-109.9,70.9-164.4,107
	c-29.7,19.6-59.1,22.8-90.6,4.8C2797.5,2363.1,2783.7,2333.5,2780.8,2299.1z M3022.2,2150.3c-6.1,3-17.7,7.6-28,14.1
	c-28.2,17.7-56,36.1-83.7,54.5c-23.4,15.5-46.7,31.3-69.7,47.4c-11.6,8.1-19.5,18.7-17.9,34.1c4.3,40.9,39.3,58.9,74,37
	c26.3-16.7,51.3-35.7,77.3-52.8c26.9-17.7,54.9-33.9,81.7-51.8c19.4-12.9,23.5-27.8,16.1-48.3
	C3064.6,2164.3,3045.9,2149.7,3022.2,2150.3z"/>
<path d="M2115.7,947.4c0.7,36.6-21.4,72.4-57.8,83.6c-55.4,17-112,30.5-168.1,45.2c-14,3.6-28.3,6.5-42.7,8.5
	c-44.2,6.2-86-22-96.6-64.8c-10.7-43.4,14.6-97.9,52.9-107.5c72.4-18.1,144.4-38.2,217.4-52.9C2070,849.6,2114.7,894.3,2115.7,947.4
	z M1840,1039.3c5.5-1.1,14.8-2.4,23.9-4.6c55.4-13.8,110.9-27.5,166.1-42c30.8-8.1,41.4-18.8,41.6-39c0.5-38.7-25.2-59.1-62.5-49.4
	c-53.2,13.9-106.5,27.9-159.6,42.1c-11,2.9-22.1,6.2-32.4,10.9c-21.1,9.6-26.3,22.3-20.2,45.7
	C1803.4,1028.5,1815.4,1039.6,1840,1039.3z"/>
<path d="M1110.8,1908c-53.9,1.6-80.5-15.6-96.4-54.5c-15.4-37.8-7.9-82.8,21.1-106.2c12.3-10,29-17.2,44.7-19.9
	c65.7-10.9,131.6-20.6,197.7-28.8c45.5-5.6,87.6,29.2,95.5,75.8c8,46.7-17.3,90.4-61.5,101.8c-27.1,7-55.1,10.5-82.8,14.8
	C1185.9,1897.5,1142.7,1903.4,1110.8,1908z M1280.2,1744.2c-5.5,0.6-15.8,1.6-26.1,3.1c-49.3,7.3-98.5,14.6-147.7,22.1
	c-9.2,1.4-18.5,2.8-27.3,5.7c-21.2,7-28.7,22.5-25.2,50.1c2.9,23.2,16.2,37.4,37.8,37.2c16.5-0.1,33.1-2.5,49.4-5
	c51.3-7.8,102.6-15.3,153.6-24.6c28.8-5.2,36.4-20.2,31.4-53.4C1322,1751.8,1312.4,1743.6,1280.2,1744.2z"/>
<path d="M1342.2,2564.7c-0.5-36.5,16.8-62.6,50-75.5c62-24.1,124.3-48.1,187.6-68.3c64.3-20.6,121.6,26.4,118.8,94.3
	c-1.3,32.9-15.2,59.5-46.7,71.4c-65.1,24.7-130.7,48.5-196.9,70.2C1390.4,2678,1337.9,2621,1342.2,2564.7z M1650.5,2515.6
	c0.2-46.5-22.5-63.4-65.3-48.7c-42.1,14.5-83.7,30.4-125.5,46c-17.4,6.5-35,12.8-51.8,20.7c-16.9,8-23.1,22.9-21,41.3
	c3.6,31,23.4,46.4,53.7,38.1c31.9-8.7,63-20.4,94.1-31.5c31.2-11.1,62.1-23.1,93.1-34.8C1643,2541,1652.3,2531.2,1650.5,2515.6z"/>
<path d="M2636.8,747.2c1.6,33.5-12.7,59.5-42.2,73.8c-63.5,30.7-127.3,61-192.3,88c-43.5,18-89.7-5.7-109.4-50.7
	c-20.1-45.8-4.4-96.1,39.3-117c59.9-28.6,121.6-53.4,181.3-82.3c55.5-26.8,116.8,10.8,123.3,75.8
	C2637.2,738.9,2636.8,743.1,2636.8,747.2z M2594.7,750.2c1.4-41.6-31.1-64.7-67.4-48.1c-54.8,25-109.1,50.9-163.5,76.6
	c-7.5,3.5-15.4,7.3-21.1,13c-5.5,5.5-10.9,13.2-12,20.5c-5.5,38,29.8,66,64.6,51.2c32.5-13.7,64.5-28.6,96.5-43.5
	c26.4-12.2,52.6-24.8,78.5-37.8C2583.8,775.4,2594.9,766.1,2594.7,750.2z"/>
<path d="M2172.8,710c-24-0.5-43.9-8.2-59.1-25.9c-7.4-8.7-14.2-18-20.6-27.4c-30.5-44.7-60.6-89.6-91.3-134.2
	c-17.3-25.2-26.2-51.7-18.1-82.4c9.8-36.9,34.2-58.9,70.4-67.5c33.5-8,61.4,3.4,83.8,28.9c4.1,4.7,8.1,9.5,11.7,14.6
	c34.1,49.8,67.9,99.7,102.1,149.4c20.7,30.1,24.9,61.3,7.5,94C2240.8,694.6,2209.4,708,2172.8,710z M2222.9,616.2
	c-2.6-6.1-5.6-17.4-11.6-26.7c-33.4-51.2-67-102.4-101.7-152.7c-16.4-23.7-40.6-25.6-65.1-8.2c-23.2,16.4-26,35.7-8.8,61.4
	c29.9,44.9,59.7,89.8,89.7,134.6c6.3,9.5,13,18.8,20.4,27.5c13.1,15.4,24.7,17.7,44.2,9.9C2210.8,653.7,2223.3,638.4,2222.9,616.2z"
	/>
<path d="M843.3,1196.9c-47.2-0.3-79.3-26.5-90.5-71.1c-9.5-37.8,8.5-79.1,43.4-98.3c8.2-4.5,16.8-8.4,25.6-11.4
	c58-19.9,116.6-38.2,174-59.6c44.6-16.6,93.7,18,105.9,53.3c17.2,49.7,2.3,97.6-43.3,115.5c-63.8,25.1-129.2,46-194.1,68.2
	C856.6,1196.2,847.9,1196.2,843.3,1196.9z M839.1,1151.9c4.5-1.1,11.7-2.3,18.6-4.4c20.8-6.6,41.6-13.1,62.2-20.4
	c38.2-13.6,76.5-26.9,113.9-42.1c10.6-4.3,23.4-13.4,26.8-23.1c7.1-21-2.3-40.4-16.5-57.2c-13.2-15.5-28.4-9.2-42.9-4
	c-57.7,20.7-115.2,41.9-172.7,63.2c-6.7,2.5-13.3,6.1-19,10.5c-13.5,10.5-16.5,28.7-9,48.3C807.3,1140.7,821.6,1152.4,839.1,1151.9z
	"/>
<path d="M1523.4,696.4c-26.6,0-57.8,0.8-89-0.2c-42.8-1.3-69.2-22.5-81.9-63.7c-10.9-35.5,4.6-82.1,35-102.8
	c7.5-5.1,16.7-8.3,25.6-10.3c12.1-2.7,24.7-4.5,37.1-4.9c61.3-1.6,122.7-3.4,184-3.6c43.7-0.1,70,19.5,82.7,57.6
	c12,36.1,0.6,83.9-27.9,105.2c-11,8.2-25.9,14.2-39.6,15.5C1609.1,693.1,1568.5,694,1523.4,696.4z M1533.3,650.7c0-1.8,0-3.6,0-5.4
	c34.3,0,68.6,0.8,102.9-0.5c10.5-0.4,24.9-3.7,30.5-11.1c13.4-17.8,10.1-39.5,3.7-59.7c-6-19.2-22.7-18.6-38.6-18.3
	c-50.9,0.9-101.9,1.5-152.8,2.9c-16.6,0.5-33.3,1.9-49.6,4.7c-25.6,4.3-36.5,20.1-34.1,46.9c2.4,26.6,15.6,40,41.4,40.4
	C1468.8,651.1,1501,650.7,1533.3,650.7z"/>
<path d="M516.4,1633.7c1.2-45.5,19.8-71.9,64.1-84.3c66-18.4,132.3-35.3,198.9-51.2c39.3-9.3,82.8,19.3,97,60.6
	c17.2,50.4-7.2,101.4-58.3,115.7c-63.9,17.9-128.3,34.4-193.2,48.7C561.9,1737.2,514.7,1696.9,516.4,1633.7z M787.4,1542.9
	c-5.9,1.1-16.2,2.6-26.2,5.2c-50.3,13.3-100.5,26.8-150.6,40.6c-10,2.7-21,5-28.9,11c-8.4,6.4-17.3,16.1-19.4,25.8
	c-8.1,36.8,19.8,62.9,56,53.9c40.4-10.1,80.5-20.8,120.8-31.2c23.1-6,46.6-10.9,69.3-18.3c23.1-7.5,29.9-21.7,25.3-46.3
	C828.2,1554.2,816.1,1542.4,787.4,1542.9z"/>
<path d="M1785.7,1353.3c-1.6,29.7-17.9,57.7-50.1,74.1c-29.6,15.2-60.2,16.4-88.4-4.9c-52.4-39.4-105.9-77.6-156.4-119.2
	c-48.5-39.9-44.6-110.6,5.1-148.2c28.3-21.4,62.7-23.7,93.5-5.6c9,5.2,17.7,11.1,25.8,17.5c44,34.9,88.2,69.8,131.7,105.3
	C1776.2,1296.3,1786.1,1316.5,1785.7,1353.3z M1552.1,1181.3c-7.3,2-12.4,2.9-17.1,4.8c-33.3,12.9-43.2,53.4-17.6,78.5
	c16.1,15.9,35.5,28.5,53.5,42.5c33.5,26.1,66.7,52.6,100.8,78c20.1,15,38,12.3,55.1-5.8c22.2-23.5,21.8-45.2-3.8-66.3
	c-48.8-40.2-98.4-79.4-148-118.6C1567.7,1188.8,1559,1185.2,1552.1,1181.3z"/>
<path d="M1123.4,1440.5c3.9-53.8,6-107.9,12-161.5c8.8-78.3,87.7-91.4,130.8-68.7c34.4,18.1,52.8,47.2,51,86
	c-3,66.4-6.6,132.7-12.6,198.9c-4.3,47.8-37.8,73.9-88,73.7c-49.6-0.2-86.4-29.6-92-75.4c-2.1-17.4-0.3-35.2-0.3-52.9
	C1124,1440.5,1123.7,1440.5,1123.4,1440.5z M1171.5,1406.6c-0.7,0-1.3,0-2,0.1c0,24.9-0.5,49.9,0.1,74.8
	c0.6,26.2,16.6,41.8,43.2,43.5c26.9,1.8,44.1-11.5,47.5-38.1c2.4-18.5,3-37.3,4.2-55.9c2.8-44.6,5.5-89.2,8-133.8
	c0.9-16.2-2.2-30.7-16.4-41.5c-26.6-20.2-73.9-11.2-76,32.8C1178.4,1327.9,1174.5,1367.2,1171.5,1406.6z"/>
<path d="M1291.7,1001.8c1.8-5.9,3.1-19.1,9.2-29.3c35.5-58.8,70.6-117.9,108.8-174.9c24.3-36.2,66.1-45.7,105.4-29.7
	c38.9,15.7,63.5,53.8,58.5,93.6c-1.7,13-6.2,26.7-13,37.9c-33,54.3-65.7,108.7-101.3,161.2c-29.1,42.8-76.7,52.2-121,27
	C1308,1070.3,1291.6,1044,1291.7,1001.8z M1387.9,1057.1c17.1,1.1,27.1-10.4,35.8-24.1c28.4-44.8,57-89.5,85.2-134.5
	c5.5-8.8,10.4-18.1,14.2-27.7c10.6-26.7,2.9-45.9-23-59.2c-21.1-10.9-42.3-5.3-56.4,16.8c-33.5,52.7-66.9,105.4-99.1,158.9
	C1326.1,1018.2,1349.9,1056.5,1387.9,1057.1z"/>
<path d="M2474,1425.3c-1.8-28.5,14.9-49,38.5-64.6c36.4-24.1,73.5-47,110.3-70.4c19.3-12.3,38.2-25.1,57.9-36.7
	c36.5-21.5,68.9-17.5,99.4,11.3c45.3,42.7,40.5,113.1-11,148.1c-47.3,32.1-95.2,63.3-143.5,93.9c-12.9,8.2-27.6,15.5-42.4,18.7
	C2526.4,1537.9,2474.8,1490.9,2474,1425.3z M2768,1338.3c-1.4-43.4-37.8-63.3-73.2-41.3c-11.5,7.1-22.4,15.1-33.7,22.6
	c-39.9,26.4-80.4,51.9-119.4,79.4c-28.8,20.3-28.8,50.2-2.3,73.2c16.5,14.3,34.9,14.7,57.3,0.3c31.4-20.3,62.5-41.2,93.7-61.8
	c19.1-12.6,38.6-24.6,57.4-37.6C2760.1,1364.5,2769.2,1353.2,2768,1338.3z"/>
<path d="M2935,1604.8c-0.5-49.9,32.8-87.1,81.4-94.4c43.6-6.5,83.4,17.1,94.8,61.8c17.1,67.4,31.9,135.5,45.1,203.7
	c7.6,39.1-17.6,77.9-54.2,91.9c-42.1,16.1-85.3,5.4-108.6-28.9c-8.6-12.6-15.2-27.5-18.6-42.4c-13.4-57.6-25.3-115.7-37.5-173.6
	C2936,1616.1,2935.6,1608.8,2935,1604.8z M3111.2,1782.5c-3.2-16.3-7.4-37.7-11.7-59.1c-8.8-43.8-17-87.8-26.7-131.4
	c-5.7-25.7-18-36.2-39.7-36.8c-31.2-0.9-58,17.7-49.6,54c14.1,60.7,25.4,122.1,37.9,183.2c1,5.1,2.5,10.2,4.6,14.9
	c9.5,20.7,25.6,28.4,48.5,23.6C3099,1825.9,3111.4,1811.4,3111.2,1782.5z"/>
<path d="M2771.2,2026.4c-12.6,1.1-30-7.2-44.4-22c-45.1-46-90-92.2-134.9-138.4c-26.3-27.1-34.3-58.9-22.4-94.7
	c11.5-34.3,35.7-55,71.5-62.1c26.6-5.3,49.8,1.9,69.3,19.4c20,18.1,38.8,37.6,57.6,56.9c28.3,29,56.5,58.1,84.1,87.7
	c27.4,29.5,35.2,62.7,16.4,100.1C2850.1,2009.8,2819.3,2025.1,2771.2,2026.4z M2781.4,1983.6c23.3-4.6,38.8-13.3,48.5-31.2
	c9.8-17.9,1.9-32.8-9.4-45.5c-17.9-20.2-37.4-39-56.2-58.4c-26.6-27.7-52.5-56.3-80-83.1c-19.4-18.9-39.3-18.6-58.5-2.4
	c-17.6,14.8-21.8,38.2-10.5,59.1c2.4,4.5,5.1,9.2,8.7,12.9c43.5,44.7,86.8,89.6,131,133.6C2762.6,1975.9,2774,1979.4,2781.4,1983.6z
	"/>
<path d="M2376.1,1321.9c-3.1,79.7-82.3,123.7-142.2,84c-50.2-33.2-101.7-64.6-152.8-96.4c-31.9-19.9-49.7-47.2-44.4-85.7
	c5.4-39,26.9-67.1,63.3-82.4c20.2-8.4,41-6.6,60.4,3.3c14.7,7.5,28.7,16.8,42.6,25.7c44.7,28.5,89.1,57.3,133.8,85.7
	C2363.7,1273.2,2377.4,1297,2376.1,1321.9z M2081.4,1232.8c-0.5,15.2,7.8,26,19.5,33.4c54.9,35.3,110,70.3,165.3,104.9
	c16.4,10.2,32,5.6,45.6-6.6c25.1-22.5,24.3-50.9-4-70.5c-51.1-35.4-103.6-68.8-155-103.8C2119.6,1167.9,2085.3,1192.2,2081.4,1232.8
	z"/>
<path d="M1261,2458.7c-62.6-0.6-108.8-61.1-85.6-117.6c26-63.3,56.7-124.7,86.9-186.1c16-32.6,43.8-50.2,81-46.7
	c39.1,3.6,69.2,22.8,83.5,60.3c4.9,12.8,4.6,28.3,3.5,42.3c-0.8,11.1-5.3,22.3-10.2,32.5c-26.8,56.2-53.5,112.5-81.7,168
	C1321,2446,1297.2,2459.1,1261,2458.7z M1389.3,2193.7c-4.2-8-7.2-18.4-13.9-25.3c-24.2-24.8-58.6-19.3-74.8,12.5
	c-23.7,46.3-46,93.3-68.5,140.2c-5.4,11.2-10.4,22.8-13.8,34.8c-8.7,30.8,4.4,50.9,35.6,56.3c22.4,3.9,34.4-1.6,47-26.6
	c26.3-52,51.5-104.5,76.6-157C1382.4,2218.4,1384.9,2207.1,1389.3,2193.7z"/>
<path d="M848.8,2004.4c12.9-0.3,34.2,7.6,51.6,23.8c22.7,21,35.6,46.3,26.4,78.2c-19.1,65.9-38.9,131.6-58,197.5
	c-13,45-62.3,66.2-111.9,52.4c-43.6-12.1-72.1-57-61.9-101.8c9.2-40.5,22.2-80.1,34.1-120c8.1-26.8,15.5-54.1,26.3-79.9
	C770.3,2019.2,799.7,2003.9,848.8,2004.4z M792,2318.4c18.9,0.7,28.8-13.7,34.4-31.4c19.4-62.3,38.7-124.5,56.6-187.2
	c6.4-22.6-3.4-37.7-25.1-46.7c-30.9-12.8-54.7-2.9-65.4,30.8c-18.2,57.2-34.9,115-51,172.8C732,2290.7,754.2,2318.2,792,2318.4z"/>
<path d="M2411.2,2373.2c14.4,5.4,29.9,8.8,42.9,16.6c56.1,33.6,110.8,69.7,167.4,102.6c40,23.2,48.9,80.1,24.4,121
	c-26.2,43.8-70,58.2-114.7,32.9c-59.6-33.8-118-69.9-175.7-106.8c-31.6-20.2-41.7-58.9-29.4-97.1
	C2339.5,2400.5,2371.6,2375.2,2411.2,2373.2z M2567.7,2613.6c23.3-1.8,35.2-14,43.2-30.9c9.7-20.4,8.4-30.4-6.1-45
	c-6.6-6.6-13.6-13.1-21.5-18c-50.5-31-101.4-61.5-151.9-92.4c-14.1-8.6-27.5-8.1-41.1,0.3c-23.9,14.7-38.4,58.7-2.6,80.4
	c52.5,31.8,104.4,64.5,156.9,96.3C2552.4,2609,2561.7,2611.2,2567.7,2613.6z"/>
<path d="M1942.9,3110.7c-91.2,0.1-153.3-48.9-171.3-131.2c-1.1-5.1-2.4-10.2-2.7-15.3c-1.1-17.6,5.8-28.7,19.6-30.3
	c16.3-1.8,20.9,9.4,24.1,22.6c3.7,15.1,7,30.6,13.4,44.6c20.4,44.9,67.2,72.4,113.3,66.3c57.2-7.6,94.5-36.7,103.7-91.4
	c1.4-8.2,3-16.4,5.2-24.4c4.9-17.4,11.7-22.3,25.8-19.5c15.1,3.1,20.3,13.2,19,27.4c-6.1,67.7-40.9,126.6-115.3,145.9
	C1964.8,3108.9,1951.1,3109.6,1942.9,3110.7z"/>
</svg>
