<?xml version="1.0" encoding="utf-8"?>
<!-- Generator: Adobe Illustrator 24.3.0, SVG Export Plug-In . SVG Version: 6.00 Build 0)  -->
<svg version="1.1" id="Layer_1" xmlns="http://www.w3.org/2000/svg" xmlns:xlink="http://www.w3.org/1999/xlink" x="0px" y="0px"
	 viewBox="0 0 4000 4000" style="enable-background:new 0 0 4000 4000;" xml:space="preserve">
<path d="M3749.6,1880.6c-8.3,427.5-120.9,783.8-360.9,1096.3c-196.4,255.6-445.6,441.4-745.1,560.8
	c-141.6,56.4-288,93.5-438.9,112.5c-123,15.5-246.3,15.8-370,4.9c-167.2-14.6-329.3-50.2-485.8-110.5
	c-202.1-77.9-385-188.1-546.6-332.7c-101.1-90.5-193.6-188.8-271.5-300.3c-140.9-201.8-233.3-424-279.2-665.6
	c-25.4-133.5-35.5-268.4-27.1-403.8c18-291.4,101.5-562.8,254.6-812.3c170-276.8,398-492.2,685.4-642.8
	c203.2-106.5,419.1-172.5,648.8-193.9c204.2-19,405.6-6.3,603.6,45.3c368.2,96.1,679.2,287,925,578.1
	c209.4,247.9,338.6,534.2,385.8,855.9C3739.6,1753.2,3744.9,1834.7,3749.6,1880.6z M1974,245.4c-150.4,1.2-308.1,23.1-462,69.4
	c-418.3,125.8-744.4,373.7-977.3,742.8c-192.4,304.9-270.8,639-247.6,997.7c4.1,64,11,127.7,33.5,188.7
	c17.1,46.4,51.2,71.2,97.8,79.8c18,3.3,37.1,2.8,55.5,1.8c38.4-2.1,76.7-8.6,115-8.3c95.4,0.9,167.3,55,195,146.2
	c8,26.4,11.2,54.8,12.3,82.5c1.7,43.1-1.8,86.3-0.2,129.4c1,25.3,4.7,51.3,12.6,75.2c18.3,55.7,65.5,86.3,124.2,79.6
	c33.3-3.8,66.1-13,98.5-21.9c37-10.1,72.7-25.8,110.2-33.4c66.8-13.6,132.2-8.8,180.2,46.8c20.7,24,34.9,54.8,47.1,84.6
	c13.1,32.2,19.4,67.2,30.6,100.2c7.1,20.8,15.4,42,27.5,60c27,40,65,60.3,114.2,48.5c20-4.8,40.9-11.7,57.8-23
	c30.9-20.6,59.7-44.6,88.3-68.3c32.7-27.1,67.8-49,109.3-60.3c73.6-20.1,150.6,8.7,192,73.1c17,26.5,31.5,54.7,50.2,79.9
	c13.6,18.4,30.3,35.8,49,48.7c27.2,18.7,57.5,12.8,77.4-13.7c10.9-14.5,17.9-32.5,24.5-49.7c12-31.6,20.1-64.7,33.7-95.5
	c38-86,130.7-101.5,196.4-33.5c14.5,15,25.7,33.4,40.3,48.3c15.3,15.6,31.4,31.7,50,42.7c30.6,18,60.9,7,74.3-25.7
	c7.9-19.2,11.9-40.1,17.3-60.3c7.5-28.1,12-57.3,22.5-84.2c24.2-61.9,71.2-99.6,135.3-115.5c43.6-10.8,87.8-10.9,131.8-2.4
	c37.7,7.3,75,17.5,112.9,22.8c92.8,13.1,132.3-18,144.2-111c4.7-37,8.6-74.1,13.6-111c16.8-124.3,91.7-206.2,214.2-231.9
	c35.2-7.4,71.5-10.2,107.3-14.3c102.5-11.5,165.6-70.1,183.4-170.9c2-11.5,4.5-22.9,6.1-34.4c19.3-137.1,19.2-274.1,0.4-411.3
	c-24.6-179.3-73.5-351.2-154.6-513.3c-136.4-272.9-331.2-495-585.2-664.1C2646.2,345,2328.8,250.4,1974,245.4z M344.4,2373.6
	c-0.2,4.3-0.6,5.6-0.3,6.6c6.2,18.8,12.7,37.5,18.6,56.3c90.7,287.6,254.7,527.3,478.1,727.3c252.5,225.9,547.5,364.2,881.8,417
	c208,32.9,416,26.4,622.3-16.4c239.7-49.7,458.7-147.8,655.7-292.7c310.2-228.2,518.2-528.5,624.5-898.9c2.1-7.3,2.7-15,5-28.5
	c-16.3,7.9-27.6,13-38.6,18.7c-33.5,17.6-69,27.8-106.7,30.7c-23.2,1.8-46.4,4.3-69.5,7.3c-111.8,14.8-175.7,76.3-194.8,187.5
	c-2.4,13.7-2.1,27.9-4.2,41.7c-6.1,40.3-9.5,81.3-20,120.4c-15.8,58.7-56.1,97.7-116.1,108.4c-31.3,5.6-65,1.8-97-2.1
	c-36.9-4.6-72.9-15.5-109.7-21.1c-93.5-14.1-193.7,13.8-209.9,143.6c-1.3,10.4-3.3,20.8-6.4,30.8c-6.2,20-11.6,40.5-20.7,59.3
	c-24.3,50.4-77,73.4-131.7,60.7c-27.5-6.4-48.8-22-67.3-41.7c-20.7-22.1-40.4-45.2-59.9-68.3c-43.3-51.5-92.4-25.3-105.2,22.9
	c-6,22.5-12.9,44.8-20.9,66.7c-7.6,20.7-15.9,41.3-26,60.9c-43.5,83.5-145.5,79.3-196.9,30.6c-15.1-14.3-28.5-30.9-40.3-48
	c-17.2-24.9-31.5-51.7-48.5-76.8c-33.8-49.8-83.2-68.4-140.1-48.2c-26.8,9.5-51.4,26.6-74.9,43c-23.8,16.6-44.2,38.2-67.9,54.9
	c-21.7,15.3-44.5,31-69.3,39.9c-85.9,30.8-168.5,7.7-216-71.2c-18.9-31.4-29.4-68.1-42.2-102.9c-10.4-28.4-16.6-58.4-27.9-86.3
	c-21.8-54.1-63.5-80.1-121.2-72.5c-33.1,4.3-65.7,14.8-97.6,25.4c-57.7,19.1-114.9,38.4-177.3,32.1
	c-86.5-8.7-150.5-65.1-165.1-150.6c-5.5-31.9-5.3-64.9-6.1-97.5c-0.9-39.6,1.9-79.4-0.3-118.9c-4.2-76.1-47.7-126.8-122.4-140.6
	c-26.9-5-55.6-2.6-83.3-0.6c-58,4.2-116,14.4-172.2-10.3C353.3,2371.1,349.4,2372.9,344.4,2373.6z"/>
<path d="M1984.5,1357.2c286.4,1.5,536.8,227.6,535.4,541.5c-1.2,269.2-189.6,537.3-539,540.3c-267.4,2.3-524.6-208-539.8-538
	C1456.5,1557.6,1711.7,1357.1,1984.5,1357.2z M1507.8,1899.8c-7.4,213.4,168.8,473.7,468.7,475.6c299.3,1.9,480.7-222.5,482.4-478.6
	c1.9-279.8-235.2-474.4-465.6-476.9C1758.3,1417.4,1509.3,1590.3,1507.8,1899.8z"/>
<path d="M2646.5,1850.8c-2.5,28.4-3,56.5-8.4,83.6c-2,10-14.5,22.2-24.5,25c-8.5,2.4-21.8-5.4-30.4-12c-5.3-4.1-7.4-14.3-8.1-22
	c-0.9-11.5,0.6-23.2,1.3-34.8c11-178.1-41.7-333.3-168.9-460.2c-69.9-69.8-153.4-116.7-251-136.4c-13.7-2.8-27.5-5.3-40.7-9.8
	c-18.8-6.4-26.5-20.4-22.7-37.6c4.4-19.6,17.5-29.6,38.5-26c69.5,11.9,135.1,35.7,195.9,71
	C2541.9,1416.4,2632.5,1611.6,2646.5,1850.8z"/>
<path d="M1314.3,1854.1c16.7-244.4,136.5-493,407.8-597.5c26-10,53.4-16.3,80.3-23.7c6.6-1.8,13.9-1.5,20.8-1.7
	c16.3-0.3,26.4,8,30.3,23.4c4.1,15.9-2.7,28.9-19.6,36.3c-8.5,3.7-17.6,6.2-26.7,8.1c-234.7,49.7-399.2,270.4-416.1,487.6
	c-2.1,26.6-1.2,53.4-1.4,80.2c-0.1,8.1,1.1,16.3,0.9,24.4c-0.5,22.2-8.7,34.4-24.4,37.1c-16.7,2.9-40-9.3-44.7-26.2
	C1317.2,1886.6,1316.5,1870.1,1314.3,1854.1z"/>
<path d="M2949.9,1378c36.9-0.4,68.1,25.4,81.3,64.3c11.2,32.9,2.2,68.3-26.2,86.9c-22.2,14.5-47,25.3-71.4,36.1
	c-24.4,10.8-49.3,20.8-74.7,29c-33.6,10.9-62.9,0-84.9-25.7c-23.5-27.4-30.8-60.4-16.7-94.6c4.5-10.9,14.9-22.4,25.5-27.3
	c51.6-23.8,104.2-45.5,156.6-67.6C2943.4,1377.4,2948.6,1378.1,2949.9,1378z M2834.9,1539.4c45-20.5,86.6-38.5,127.2-58.6
	c11.5-5.7,12.5-18.9,6.1-30.9c-6.1-11.5-16.7-13-27-8.7c-39.8,16.4-79.5,33.1-118.4,51.4c-5.6,2.7-11.2,16.5-9.1,22.2
	C2817.2,1524.1,2827.1,1531,2834.9,1539.4z"/>
<path d="M2675.6,834.7c-30.9,0.1-56.2-9.2-71.3-36.8c-16.5-30.2-19.9-61.7-2.5-93.3c9.6-17.6,25.2-27.9,44-31.6
	c51.3-10.1,102.7-20.1,154.5-27.7c30.2-4.4,54.3,9.5,70.4,35.8c32.6,53.3,9,115-50.9,128.1C2772.1,819.6,2723.7,826.4,2675.6,834.7z
	 M2677.5,773.7c41.2-6.7,84.7-13.3,128.1-21c14-2.5,22.9-11,20.3-27.2c-2.7-16.3-13.9-20.7-28.1-18.6c-29.8,4.3-59.6,9.3-89.3,14.3
	c-13.7,2.3-27.5,4.8-40.8,8.6c-11,3.1-18.3,10.4-15.6,23.3C2654.7,765.5,2660.2,775,2677.5,773.7z"/>
<path d="M1157.5,1264.8c-71.6,1.9-107.4-35.5-101.8-99.3c3.5-39.9,22.2-62.7,62.2-67.5c48.4-5.8,97.3-9.5,146.1-10.8
	c42.3-1.1,75.6,34.1,78.8,77.9c3.4,47.5-19.3,82.6-63.2,89.3C1237.2,1260.7,1193.9,1261.8,1157.5,1264.8z M1121.2,1202.4
	c15.6,0,30.5,0.5,45.4-0.1c31.3-1.3,62.7-2.3,93.9-5.3c21.9-2.1,27.3-10.2,23.4-29.4c-1.3-6.5-5.1-12.5-8.9-21.5
	c-47.7,3.1-95,6-142.2,9.4c-12.7,0.9-18.2,10-17.5,21.7C1115.6,1185,1118.7,1192.7,1121.2,1202.4z"/>
<path d="M3322.9,1529.9c-9.1-4.5-28.9-9.1-41.1-21.3c-33.5-33.6-65-69.4-95.2-106.1c-37.5-45.5-8.5-111.7,45.7-128.1
	c24.8-7.5,49.6-6.8,68.1,13.1c35.5,38.2,70.5,76.9,103.4,117.4c18.9,23.3,20.8,51.1,5.1,78.4
	C3391.7,1512.8,3366,1528.1,3322.9,1529.9z M3360.1,1450.7c-11.2-14.1-20.8-26.8-30.9-39c-18.4-22.2-36.6-44.7-56-66.1
	c-9.5-10.5-22-13-33.8-2.3c-10.9,10-8.4,20.3,0.3,30.4c23.4,27.1,46.2,54.8,70.3,81.2C3327.4,1474,3331.8,1473.3,3360.1,1450.7z"/>
<path d="M1693.5,1024.3c0.2,68.7-53.3,108.9-115.1,85.4c-40.2-15.2-78.8-35-117-54.8c-61.4-31.7-49.3-112.4-7.1-144.3
	c18.6-14.1,40.2-21.1,62.4-11.3c47.9,21.1,95.7,42.6,142.1,66.7C1681.3,977.7,1695.8,998.2,1693.5,1024.3z M1609.2,1055.8
	c6-4.1,18-8.1,22.8-16.4c8.4-14.4-3.6-24.2-15.2-29.7c-33.3-16-67-31-100.9-45.7c-17.7-7.7-29.2-4.2-35.2,8.9
	c-5.9,12.8-0.9,24.5,16,33.2c27.8,14.2,55.9,27.6,84.1,40.8C1588.1,1050.1,1596.2,1051.7,1609.2,1055.8z"/>
<path d="M2764.2,1180.2c-1.9,5.5-3.5,20.5-11.1,31.3c-29,40.7-58.3,81.2-90.6,119.2c-22.1,26.1-52.8,32-86.1,20.5
	c-49.2-17-74.4-71.5-46.8-115.2c28.4-45,62.7-86.6,97.8-126.8c22.1-25.4,53.6-25.8,83.9-12.8
	C2744.3,1110.4,2764.3,1139.9,2764.2,1180.2z M2608.7,1294.3c3.9-2.7,11.9-6,16.8-11.8c25.3-30.5,50.4-61.1,74.4-92.7
	c11.2-14.8,9.3-28.8-2.2-36.9c-13-9.2-24.3-3.7-34.8,5c-3.5,2.9-6.3,6.8-9.2,10.5c-18.6,23.9-37.2,47.8-55.6,71.9
	c-5.6,7.4-11.6,14.9-15.2,23.4C2576.5,1279.1,2588.8,1295.4,2608.7,1294.3z"/>
<path d="M2325,1104.1c-56.3,1.1-107.5-57.9-78.8-115.4c19.7-39.4,39.2-79,60.4-117.6c16.6-30.1,42.8-44.9,78.3-39.5
	c36.7,5.6,62.1,27.3,74.3,60.7c5,13.5,2,33.1-4.1,47c-18,41.4-38,82.1-59.7,121.8C2378.4,1092.3,2356.3,1103.7,2325,1104.1z
	 M2324.8,1040.2c4.1-2.9,13-6,16.3-12.2c19.6-35.5,38.4-71.5,56.4-107.9c4.6-9.3,5.8-21.3-6.2-27.5c-12.8-6.6-26.1-5.5-33.4,7.9
	c-19.3,35.7-38.2,71.7-55.4,108.4C2296,1022.8,2307.6,1038.8,2324.8,1040.2z"/>
<path d="M771.3,2177.9c-70.5,0.8-110.2-44.9-91.4-104.5c14.9-47.3,35.2-93.8,59.1-137.3c26.3-47.7,90.3-51.8,128.6-12.7
	c17.5,17.9,26.7,39.7,18.9,63.7c-16.2,49.6-33.9,98.8-53.2,147.3C821.5,2164,798.3,2180.4,771.3,2177.9z M764.3,2119.6
	c4.3-4.2,13.9-9.8,17.6-18.1c16.1-35.9,30.6-72.6,45.3-109.1c5.2-12.9,5.6-25.9-9.3-32.6c-14.1-6.3-26.8,0.5-32.2,12.7
	c-16.9,38.1-32.7,76.7-46.9,115.8C733.5,2102.9,745.7,2118.4,764.3,2119.6z"/>
<path d="M1543.7,586.4c2.5-6.8,5.3-19.6,11.6-30.3c22.4-38.1,45.5-75.9,69.2-113.1c6.8-10.6,15.9-20.1,25.2-28.7
	c14.4-13.5,32.3-17.6,51.8-15.5c46.9,5,88.3,60.3,73,103.8c-20.6,58.6-53.6,111.2-97.5,155.4c-24.4,24.5-55.3,23-84.5,8.8
	C1562.2,652,1544,627.6,1543.7,586.4z M1691.3,460.7c-4.4,3.4-14.8,7.7-19.8,15.5c-21.1,33.3-41,67.4-60.6,101.5
	c-6.8,11.9-8.4,24.7,5.4,33.6c14,9,24.6,2.3,32.3-9.4c21.7-32.9,42.9-66.1,64.1-99.4c2.5-3.9,4.5-8.2,5.6-12.7
	C1722.2,475.3,1712,461.9,1691.3,460.7z"/>
<path d="M1968.4,846c-35,0.2-62.5-14-73-48.1c-14.6-47.7-26.9-96.3-37.6-145c-6.4-29.1,7.2-51.9,32-68.1
	c48.9-32,109.7-13.2,128,42.1c13.2,39.7,23.5,80.4,32.3,121.3C2062.3,805.1,2027.2,845.9,1968.4,846z M1990.5,768.1
	c-10.9-44.1-19.9-83.8-31.1-122.9c-1.8-6.2-13.4-13.2-20.6-13.2c-11.1-0.1-20.5,8.8-17.9,21.1c8.4,39.8,17.8,79.5,27.8,119
	c3.1,12.3,14.4,16.2,25,11.9C1980.8,781,1985.8,772.8,1990.5,768.1z"/>
<path d="M3397.3,1738.8c-7.1,34.8-14.8,84.3-27.9,132.3c-11.7,42.7-51.8,60.9-97.2,49.7c-38.3-9.4-65.3-47.1-58.8-86.7
	c7.7-46.9,15.2-94.2,28.3-139.7c13.9-48.6,59.3-67.7,105.2-49.7C3379.1,1657.3,3399.2,1688.7,3397.3,1738.8z M3339.7,1705.9
	c-34-6.8-38.6-6.4-43.6,13.3c-9.5,38.1-16.8,76.8-24.2,115.5c-2.5,13.2,4,22.7,17.5,25.5c15.9,3.3,23.6-5.1,26.3-20
	c5.1-27.3,10.5-54.5,15.4-81.8C3334.2,1741.6,3336.6,1724.7,3339.7,1705.9z"/>
<path d="M570.5,1760.4c-38.9-4.2-66.8-19.4-83.5-53.1c-15.9-31.9-10.2-61.5,13.1-86.9c29.8-32.5,59.6-65.4,92.2-95
	c48.2-43.7,108-28.1,131.6,31.9c9.1,23.1,9.5,46.8-6.6,66.2c-32.6,39.3-65.9,78.1-101.4,114.7
	C604.8,1749.6,585.8,1753.2,570.5,1760.4z M669.7,1584.6c0.6-15.5-13.2-26.2-26.4-21.9c-6.4,2.1-13,5.9-17.6,10.8
	c-25.3,27.3-50.1,55-74.7,82.8c-9.6,10.8-12.6,23.1,0.2,33.5c11.4,9.3,22.5,3.6,31-5.2c26.6-27.7,52.7-55.8,78.6-84.1
	C665.3,1595.6,667.5,1588.6,669.7,1584.6z"/>
<path d="M1677.3,2811.4c-33.9-4-58.4-17-74-45.2c-16.1-29.1-18.9-61,4-85c38.3-40.3,79.1-79,123-113c31.2-24.2,67.9-14.6,93.6,15
	c26.6,30.6,31.8,75.4,7.1,102.6c-32.8,36.2-68.1,70.4-104.7,102.8C1713.5,2800.1,1693.9,2804,1677.3,2811.4z M1787.1,2640
	c0.3-20.2-17.9-31.2-31.6-19.3c-34.1,29.3-66.1,61.1-97.6,93.2c-3.9,4-2.2,18,1.8,24.3c8.2,12.7,22.4,13.1,35.7,0.5
	c27.7-26.2,54.5-53.4,81.1-80.8C1781.8,2652.4,1784.6,2644.4,1787.1,2640z"/>
<path d="M1062.5,2532.8c-15-7.9-33.2-12.6-44.3-24.2c-31.2-32.8-60.5-67.5-88.6-103c-22.6-28.6-22.4-60.7-3.4-91.3
	c18.7-30.2,46.3-44.2,82.6-41c21.4,1.9,37,13.1,50.4,28.1c25.5,28.7,50.9,57.4,75.3,87.1c20.8,25.4,34.5,53.7,17.3,86.6
	C1133.5,2509.8,1105.3,2529.6,1062.5,2532.8z M969.5,2361.5c28.7,33,56.6,65.1,84.5,97.2c1.5,1.7,3.5,4.2,5.3,4.3
	c8.5,0.3,19.6,2.9,24.9-1.3c5.2-4.2,7.5-16.3,5.9-23.8c-1.8-8.4-8.8-16-14.6-23c-16.8-20.6-34.1-40.9-51.3-61.2
	C1003.3,2329,996.2,2329.4,969.5,2361.5z"/>
<path d="M823.5,1308.8c-28.1,1.2-50.3-10.4-61.7-33.7c-23.5-48-46.1-96.8-64.6-146.9c-15.3-41.6,11.4-82.9,54.7-93
	c47-11,75.9,1.7,97.3,45.8c18.3,37.7,34.9,76.2,51.2,114.8C925.9,1256.3,889.1,1309.2,823.5,1308.8z M849.9,1230.5
	c-3.1-9.8-4.7-16.7-7.4-23c-14.1-33-28.6-65.8-42.8-98.7c-5.5-12.7-12.2-22.8-28.7-16.2c-15.9,6.4-20.5,15.5-13.5,32.9
	c14.4,35.4,29.7,70.4,44.9,105.4c2.2,5.2,5.5,12,9.9,13.6c6.8,2.4,15.9,3,22.4,0.4C841.2,1242.3,845.6,1234.9,849.9,1230.5z"/>
<path d="M3043.5,2143.4c2.3-29.7,16.1-59.6,49-76.6c30.2-15.6,59.2-7.6,84.6,12.5c29.2,23,58.5,46.1,85.7,71.3
	c26.3,24.4,31.6,56.6,21,90c-10,31.6-33.7,50.8-66.2,54.1c-16.3,1.6-36.7-0.3-49.5-9c-35.4-24.1-68.7-51.6-101.1-79.7
	C3050.8,2192,3043,2171.9,3043.5,2143.4z M3201.9,2237.2c16.7,0.3,32.8-22.5,22.9-32.3c-29.4-29-62-54.9-94.6-80.4
	c-3.3-2.6-17.4,4.3-22.6,10.2c-4,4.6-3.9,15.1-2,21.9c1.7,6.1,7.5,11.8,12.8,16.2c24.3,20,48.9,39.5,73.6,59
	C3195.4,2234.5,3199.8,2236.1,3201.9,2237.2z"/>
<path d="M1286.3,1980.1c-4.1,8.8-8.1,27.3-19.1,39.3c-29.9,32.5-61.8,63.3-95,92.5c-23.3,20.5-51.2,20.3-78.5,6.1
	c-52-27-65.7-96.1-25.3-138.8c25.5-26.9,55.3-49.9,83.4-74.3c24.7-21.5,52.2-31.5,83.4-14.8
	C1267.6,1907.3,1285.1,1934.6,1286.3,1980.1z M1228.3,1969.2c-5.3-7.1-9.3-18.3-16-20.2c-8.6-2.5-22-0.8-28.6,4.7
	c-24.9,20.9-48,43.9-71.6,66.4c-11.3,10.8-16,22.9-4.3,36.6c9.5,11.3,20.5,12.3,36.5-1.3c24.8-21,48.2-43.8,71.7-66.3
	C1220.7,1984.6,1223.2,1977.7,1228.3,1969.2z"/>
<path d="M2415.8,2550.6c-32.5-2.6-58.1-13.9-72.8-42.8c-14.8-29.1-23-60.2-0.8-88.7c25.6-32.8,52-65.6,81.9-94.5
	c31.8-30.8,65.7-31.1,97.6-7.4c36.8,27.4,49.3,64.7,30.9,104c-22.1,47.1-57.4,84.3-98.4,115.5
	C2443.9,2544.6,2428.7,2546.1,2415.8,2550.6z M2504.8,2384.7c-6.2-6.1-11.5-14.3-19-18.2c-12.1-6.2-22.8,0.3-30.8,9.6
	c-19.9,22.8-39.1,46.2-58.9,69.1c-9.4,10.8-8.5,20.7-0.1,31.2c10.5,13,23.7,12,33.4,1.9c24.1-25.1,46.6-51.9,69.4-78.3
	C2501.6,2396.7,2502.2,2391.6,2504.8,2384.7z"/>
<path d="M2967.9,2401.7c-5,33.1-8,68-15.8,101.7c-10.7,46.4-46.1,67-95.1,59.5c-41.4-6.3-67-35.6-64.3-81
	c2.6-42.6,7.7-85.6,17-127.2c8.8-39.3,38.1-59.1,75.6-59.8c35.1-0.6,65.9,18.2,75.6,50.2C2966.3,2362.4,2965.7,2381.6,2967.9,2401.7
	z M2910.4,2397.9c-0.1-21,5.6-38.5-16.1-42.8c-14.6-2.9-25.8,8.2-29.9,31.3c-5.4,30.8-9.8,61.8-13.1,92.8
	c-1.6,14.7,6.9,24.2,22.3,25.4c14.5,1.1,20.7-7.2,22.8-20.5C2901.3,2453.3,2906.4,2422.5,2910.4,2397.9z"/>
<path d="M1069.3,747.1c-1.6-29.8,13.9-53.2,40.9-65.8c40-18.7,81.6-34.1,123.1-49.5c9.2-3.4,21-2.7,30.9-0.5
	c31.4,6.8,56.3,39.3,61.4,77.5c4.4,33.3-8.8,66.5-38.3,79.7c-39.2,17.4-79.6,33.8-121.1,43.9
	C1110.7,845.8,1068.4,806.9,1069.3,747.1z M1270.2,722.5c0.6-23.1-13.2-35.8-32.6-29.2c-32.9,11.2-64.7,25.9-96.5,40.1
	c-10,4.4-17.3,12.5-12.3,25.2c5.6,14.1,16.3,20.6,30.6,15.4c32.8-11.8,65.3-24.5,97.5-37.9C1263.3,733.4,1267.4,725.5,1270.2,722.5z
	"/>
<path d="M2272.4,2737.3c-8,17.5-12.2,39-24.9,51.7c-27,27-56.2,53.2-88.7,72.8c-51.4,30.9-104.8,8.9-124-45.8
	c-9.3-26.5-6.8-53,13.3-71.5c35-32.3,71.1-64.2,110.7-90.2c39.5-25.9,98.4,9.3,107.6,60c1.2,6.8,1.1,13.9,1.6,20.9
	C2269.5,2735.9,2270.9,2736.6,2272.4,2737.3z M2088.3,2792.5c9.6,10.3,16.4,17.5,24.5,26.1c35.7-19.6,63.7-45.5,91.8-71.1
	c9-8.2,6.6-19.2-0.6-28.5c-7.4-9.5-17.6-13.3-27.4-5.7C2146.7,2736.8,2115,2758.4,2088.3,2792.5z"/>
<path d="M3126.9,916.9c41,0.3,68.6,19.7,80.4,50.8c12.1,32,6.1,69.1-20.3,89.2c-46.6,35.5-101.1,52-159.4,50.9
	c-33.3-0.7-58.4-29-66.6-66.6c-7.5-34.4,4.6-67.6,34.4-84.4C3038.6,932.4,3087.4,926,3126.9,916.9z M3131.1,972.8
	c-34,12.4-65.7,23.3-96.9,35.6c-10.1,3.9-17.5,11.8-13.2,24.7c4.6,13.6,15.1,17.8,27.6,14.6c24.7-6.2,49.2-13.3,73.6-20.9
	c7.6-2.4,16.4-5.8,21-11.6c4.9-6.3,8.8-16.9,6.9-23.9C3148.1,984.3,3138.4,979.5,3131.1,972.8z"/>
<path d="M1132,1701.7c-33,0.7-55.6-10.4-68.2-35.5c-17.3-34.1-34.7-68.6-47.7-104.5c-14.7-40.7,0.7-72.9,39-93.2
	c34.2-18.2,76.6-10.6,99.9,21.5c27.5,37.9,46.9,80.6,57.7,126.1c9,37.7-19.9,74.9-61.4,83.5
	C1143.4,1701.3,1135.2,1701.3,1132,1701.7z M1127,1644.9c21.7-0.3,31.6-12.2,25.1-28.5c-11.5-28.9-25.9-56.8-39.7-84.8
	c-5.2-10.5-14.3-15.4-26-10c-11.1,5.2-15.4,14.9-11,26c11.1,27.9,22.6,55.8,35.5,82.9C1114.3,1637.7,1123.6,1642,1127,1644.9z"/>
<path d="M2599.9,2778.6c-53.9-0.1-76.6-15.4-89.9-52c-12.7-34.9-3.6-71.6,26.6-93.8c34.7-25.6,75.1-37.1,118-35.2
	c31.3,1.4,51.1,21.2,61.4,49.5c11.3,31.4,11.2,62.4-14.4,87.6C2670,2765.5,2630.6,2777.6,2599.9,2778.6z M2565.4,2706.4
	c26.9,8.5,69.9,2.8,84.7-11.2c4.5-4.2,8.5-12.2,7.7-17.7c-0.8-5.4-7-12.5-12.4-14.3C2621,2654.9,2577.5,2678.3,2565.4,2706.4z"/>
<path d="M2830.7,2031.3c-49.9-0.1-85.1-37.2-75.8-86.3c6.4-33.7,18.3-67.5,33.7-98.2c18.1-35.9,51.7-45.3,93.2-33.5
	c34,9.6,56.9,38.5,55.4,75.7c-1.9,45.5-19.2,86.2-49.7,120.2C2872,2026.3,2855.7,2031.3,2830.7,2031.3z M2809.5,1949.2
	c5.6,7.9,10.2,20.2,15.7,20.6c8.3,0.6,20.8-4.8,25.2-11.7c10.5-16.3,17.9-34.8,25.6-52.8c5.3-12.3,7.4-25-6.8-33.5
	c-12.9-7.7-29.1-3.4-37.4,13.8C2822.4,1905.1,2817.2,1926.6,2809.5,1949.2z"/>
<path d="M2331.5,631.2c-47.7,3.8-99.4-47.5-68-105.4c18.2-33.5,42.7-61,75-81c28.2-17.4,58-14.3,84.3,6.7
	c26.1,20.8,35.9,50.2,27,80.6C2434,586,2380.1,631.1,2331.5,631.2z M2327.4,573.6c20.6-0.6,65.1-41.8,67.3-57.4
	c2.1-14.3-8.5-23.6-23.8-20.9c-19.8,3.5-53.1,39.2-53.1,59.4C2317.9,561.8,2324.8,568.9,2327.4,573.6z"/>
<path d="M1313.9,2516.6c47.9,1.2,89.8,31,107,76.3c22,57.6-11.6,104.7-72.9,109.3c-49.2,3.7-115.5-68-112.5-110.2
	C1238.8,2546.6,1268.3,2515.5,1313.9,2516.6z M1319.7,2576.8c-13.4,0.7-23.6,10.7-21.9,21.5c2.6,16.6,38.4,44.7,54.2,40.7
	c6-1.5,14.2-9.1,14.9-14.7C1369.2,2605.1,1338.8,2575.8,1319.7,2576.8z"/>
<path d="M540.7,1996.7c-3.9,19.5-5.6,34.6-10.1,48.9c-9.2,29.6-30.4,46.3-61,50.3c-30.2,4-54.9-5.9-73-31.1
	c-26.5-37-28.8-104-4.9-143.2c14.7-24,35.3-35.1,64.1-33.7c31,1.5,55.1,14.1,67,42.1C532.2,1952.1,535.5,1976.7,540.7,1996.7z
	 M480.6,1993.9c-2.7-10.6-4.7-23.4-9.5-34.9c-2.2-5.4-10.7-12.4-15.2-11.6c-6.7,1.1-15.7,7.4-17.5,13.4c-3.6,11.8-4.8,25.1-3.6,37.4
	c2.4,24.1,15.7,42.2,27,38.8C482.9,2030.5,475.9,2010.7,480.6,1993.9z"/>
<path d="M1909.5,1036.2c2-55.4,52.7-91.8,104.9-74c38.1,13,68,35.8,78.5,77.5c11.9,47.6-15.8,89.9-63.8,98
	C1963.8,1148.7,1901.8,1086.8,1909.5,1036.2z M2035.6,1066c0.8-24.8-32.4-49.3-52.3-42.8c-10.3,3.4-14.8,10.6-12,21.3
	c4.2,16.6,31.9,35.4,48.4,31.6C2026.2,1074.5,2031.7,1068.6,2035.6,1066z"/>
<path d="M3425.1,2046.1c-0.6-48.6,34.9-90.6,77.6-91.8c52.4-1.5,91.3,36.2,91.8,88.9c0.5,53.2-34.4,90.4-85.2,90.6
	C3460.4,2134.1,3425.7,2097.9,3425.1,2046.1z M3507.2,2074.3c11,1,22-10.7,23.7-25.3c2-16.8-8.7-33.5-21.8-34.1
	c-12.4-0.5-23.4,12.4-24.3,28.7C3484,2058.8,3494.6,2073.2,3507.2,2074.3z"/>
</svg>
