<?xml version="1.0" encoding="utf-8"?>
<!-- Generator: Adobe Illustrator 24.3.0, SVG Export Plug-In . SVG Version: 6.00 Build 0)  -->
<svg version="1.1" id="Layer_1" xmlns="http://www.w3.org/2000/svg" xmlns:xlink="http://www.w3.org/1999/xlink" x="0px" y="0px"
	 viewBox="0 0 4000 4000" style="enable-background:new 0 0 4000 4000;" xml:space="preserve">
<path d="M979.1,1806.5c-8.1-2.4-14.3-4.6-20.6-6.1c-27.4-6.6-44.3-24.4-51.1-51c-10.4-40.2-11.4-81-2-121.5
	c8.3-36.1,28.1-62.4,66.9-69.9c2.2-0.4,4.1-2.4,7.8-4.7c-2.2-11.4-4.3-23.3-6.6-35.1c-8-40.3-0.5-78.4,18.6-114
	c28.1-52.4,74.4-76.2,132.3-79.5c11.2-0.6,22.6-0.1,35.6-0.1c-1.1-107.1,34.1-193.4,136.1-236c98.4-41.1,187.3-20.4,264.3,59.3
	c29.4-45.9,65.9-80.5,118.3-95.1c52.8-14.7,103.4-10.9,152.8,13.1c48.9,23.8,79.6,63.6,98.7,117.9c38.6-34.5,79.8-52,130.1-46.1
	c3.3-18.9,6.4-35.6,9.1-52.4c25.7-159.9,51.4-319.9,77.1-479.8c3.5-21.8,8.1-43.5,10.5-65.4c1.4-12.8,0.5-26-1.2-38.8
	c-2.3-17.4-0.2-33.5,13.9-44.7c17.2-13.7,21.5-31.8,22.5-52c0.4-9,0.3-18.4,3.1-26.7c4.7-13.6,16.6-19.7,30-22.5
	c14.5-3,23-11.4,25.5-26c0.7-4,1.7-8,3-11.9c7.7-22.3,18.1-31.3,40.5-24.8c23.7,6.8,39.3-3,55.8-15.5c3.9-3,7.9-5.8,11.7-8.9
	c12.1-9.6,24.9-12.7,38.1-2.4c10.7,8.4,23,7.8,35.2,7.1c75.2-3.9,150.4-8.2,225.6-12.1c43.3-2.3,86.7-4.1,130-6.3
	c67.9-3.6,135.8-6,203.5-11.7c30.7-2.6,47.9,9.8,59.5,35.7c22.1,49.2,20.1,98.7,0.8,147.9c-7.9,20.1-22.4,29.4-45.4,30.1
	c-116.2,3.7-232.3,8.6-348.5,13.7c-54,2.4-107.9,5.6-161.8,9.8c-11.5,0.9-22.6,7.4-33.9,11.2c-9.1,3-18.1,6.9-27.5,8.5
	c-12,2-21.8,4.2-25.6,18.4c-1.7,6.2-7.7,12.9-13.5,16.2c-14.5,8.2-20.3,19.4-20.2,36c0,7.1-4.5,16.6-10.1,20.9
	c-11.9,9.1-14.4,21.3-16.5,34.3c-9.9,63.1-19.6,126.2-29.5,189.2c-15.7,100.3-31.6,200.5-47.4,300.7c-1.4,8.8-1.9,17.7-3.1,29.4
	c53.4-0.7,100.3,12.1,132.9,56c30.6,41.3,40.7,88.4,36.3,140.7c7.4,0.9,13.6,2.1,19.9,2.4c91.4,4.7,159.2,89.7,143.9,180.6
	c-1.5,8.8-2.8,17.5-4.5,28.1c9.2,2,16.9,4,24.7,5.3c33.4,5.3,55.7,24.7,64.7,56.3c13.8,48.1,13.6,97-0.3,145.4
	c-6.9,24-21.7,39.1-47.6,43.5c-29.7,5.1-24.6,7.2-26.9,29.4c-8,76.5-15.3,153.1-23.3,229.6c-12.3,117.2-25.1,234.4-37.6,351.6
	c-8.8,82.2-17.3,164.4-26.1,246.6c-14.3,133.5-28.8,266.9-43.1,400.4c-15.2,141.6-30.2,283.2-45.4,424.9
	c-1.1,10.6-3.5,21.1-3.9,31.7c-1.2,30.9-18.3,51.4-42.3,68.1c-27.2,18.9-57.5,31.2-88.6,41.7c-75.5,25.5-153.2,41.6-232.3,49.8
	c-72.4,7.5-145.1,12.9-217.8,16.7c-114,5.9-227.4-2.5-340.3-18.5c-81.2-11.5-160.9-29.2-238.2-57.1c-31.7-11.5-61.6-26.3-88.5-47.1
	c-19.2-14.8-29.8-33.1-32.3-57.9c-14-141.7-28.9-283.4-43.4-425c-16.4-159.6-32.6-319.2-49-478.7c-16.3-158.7-32.8-317.5-49.2-476.2
	c-10.3-100.1-20.5-200.3-30.8-300.4C981.6,1824.7,980.4,1816.6,979.1,1806.5z M1903.4,2111.6c-8.3-1.7-13-3.3-17.8-3.6
	c-64.4-4.3-125.1-24.1-185.7-44.1c-54.4-18-108.5-36.4-165.5-45c-122.3-18.5-239.7-2.5-352.5,48c-9.8,4.4-13.9,10.4-12.4,20.8
	c1,7.3,1.5,14.7,2.3,22c16.4,153.8,33,307.6,49.2,461.5c10.8,102.6,20.8,205.2,31.7,307.8c12,112.3,24.3,224.6,37,336.8
	c7.2,63.4,15.5,126.7,23.2,190.1c3.4,27.8,17.8,47.1,43.6,57.5c20.4,8.2,40.8,17.3,62,22.8c82.7,21.3,167.2,31.3,252.3,36.4
	c159.2,9.5,317.6,5.4,474.1-27.9c32.5-6.9,63.9-19.6,95.3-31.2c20.8-7.7,32.1-24.3,35-46.6c2-15.4,5-30.7,6.8-46.1
	c8.7-74,17.1-148,25.6-221.9c11.1-95.9,22.3-191.8,33.2-287.7c6.2-54.5,11.6-109,17.8-163.5c8.6-76.4,17.9-152.8,26.4-229.2
	c8-71.6,15.1-143.2,22.9-214.8c4.8-43.9,10.2-87.8,15.6-131.6c1.5-12.2,0.9-21.9-12.3-28.4c-56.6-28.1-115.5-47.5-179.4-40.8
	c-30.7,3.2-60.8,12.3-91.3,18.2c-16.6,3.2-23.8,11.6-26.4,29.3c-19.2,129.5-39.3,258.9-60.1,388.2c-26.4,164-53.7,327.9-80.4,491.9
	c-3.6,22.3-6,44.7-8.9,67c4.5,0.6,6.2,1.3,7.7,1c6.4-1.5,12.6-3.4,18.9-5c65.6-17.2,124.9-5.1,170.8,45.4
	c45.9,50.5,58.7,110.3,33.6,175.7c-41.6,108.8-176.2,141.8-263.2,64.8c-4.4-3.9-9.7-6.7-16.4-11.3c-1.5,7.4-2.3,11.3-3,15.2
	c-6.7,39.5-13.4,79.1-19.9,118.7c-2.8,17.1-11.4,28-29,32c-53.1,12.2-104.2,7.8-152.7-17.4c-24.8-12.9-27.9-20.1-23.4-47.3
	c12.1-72.6,24.3-145.2,36.4-217.9c19-113.8,37.8-227.6,57.4-341.3c2.3-13.6,0.6-25.2-4.1-37.9c-11.4-30.5-8.6-60.1,13.4-85.2
	c10.3-11.8,15.5-24.7,17.9-39.5c8.5-52.5,17-105,25.5-157.5c17.7-109,35.4-218,53-327C1892.8,2179.7,1897.9,2146.7,1903.4,2111.6z
	 M1982.4,1619c8.3-50.9,16.4-99.3,24.1-147.6c7.7-48.4,15.1-96.9,22.7-145.4c7.5-48,14.9-96,22.8-146.9
	c-40.5,3.7-72.2,15.7-96.2,44.4c-6.3,7.5-11.7,15.8-17.8,23.4c-5.9,7.4-12.9,11.9-23.3,9.8c-10.7-2.1-14.8-9.1-16.8-18.5
	c-1.5-7.2-3-14.4-4.4-21.6c-14-71.2-70.9-123.6-139-129c-75.8-6-149,43.4-166.3,107.3c-1.5,5.5-3.1,11.2-6,16.1
	c-7.4,12.8-23.2,14-32.6,2.4c-4.1-5-6.3-11.5-10.3-16.7c-10.9-14.2-20.4-30.2-33.7-41.7c-73.7-64.1-192.2-55.6-257.1,17.4
	c-38.4,43.2-49.2,94.7-45.5,150.7c0.8,12.2,2.6,24.5,2.5,36.7c-0.1,13.4-5,17.7-18.3,16.6c-11.4-1-22.5-4.1-33.8-5.8
	c-49.4-7.3-90.9,5.7-119.8,48.6c-22,32.6-24.8,68.4-15.9,105.9c7.9,33.5,8.1,34.2,40.5,38.6c67.2,9.2,134.3,19.8,201.8,26.6
	c104.9,10.7,209.9,22.2,315.2,27.1c114.3,5.3,229,3.5,343.5,4.4C1939,1621.9,1959.3,1620,1982.4,1619z M2497.8,1830.7
	c-1.7,11.1-3.2,19.2-4.1,27.3c-10.8,100.9-21.2,201.8-32.2,302.7c-20.5,187.1-41.4,374.2-62.1,561.3
	c-9.4,85.4-18.3,170.9-27.9,256.3c-12,105.7-24.3,211.4-37.1,317c-5.2,43-11.6,85.9-18.1,128.8c-6.1,40.8-29.3,69.2-67,84.2
	c-26.5,10.6-53.8,20.1-81.6,26.3c-96.1,21.3-193.9,30.5-292.1,34.7c-96.6,4.2-193.4,2.7-289.3-10.5c-64.7-8.9-129.5-20.1-192.6-36.5
	c-94.2-24.5-119.8-58-130.5-154.1c-11.5-104.1-23.1-208.2-34.3-312.4c-14.9-139.1-29.6-278.3-44.2-417.5
	c-11.8-113.1-23-226.3-34.9-339.4c-14.4-137.5-29.3-275-44-412.5c-2-19.2-3.8-38.5-5.7-58c-26.2-3.6-50-6.9-75.7-10.5
	c0.6,9.3,0.8,15.7,1.5,22c5.6,51.3,11.7,102.5,16.9,153.7c15.4,152.3,30.3,304.6,45.8,456.8c17.5,171,35.6,341.9,53.2,512.8
	c9.3,90.4,18.3,180.8,27.4,271.1c8.5,83.9,18.5,167.6,24.5,251.7c2.2,30.8,14.2,50.1,39.5,65c44.3,26.1,92.7,41,141.9,53.3
	c125.3,31.2,252.8,45.3,381.7,47.6c146.1,2.6,291.2-8.7,434.3-39.2c61-13,120.1-31.7,174.5-63.6c17.1-10.1,26.1-23.9,28-43.2
	c1.8-18.7,4.1-37.4,6-56.1c9.2-87.9,18.2-175.8,27.5-263.7c7.2-67.5,14.6-135,22-202.5c8.6-78.9,17.2-157.8,25.8-236.7
	c9.3-86.2,18.6-172.4,27.9-258.7c7.4-69.1,14.7-138.3,22.1-207.4c7.4-69.1,15-138.3,22.3-207.4c6.1-57.8,12-115.5,17.7-173.3
	c2.6-26.6,4.6-53.3,7.1-81.7C2545.9,1822.7,2522.8,1826.6,2497.8,1830.7z M1772.5,1837.7c143.4,0.3,286.7-3,429.4-17.1
	c110.7-10.9,221-25.8,331.3-39.9c31.6-4.1,62.7-11.7,93.9-17.8c12-2.4,21.2-7.6,23.5-21.4c5.9-35.8,7.9-71.7,0.9-107.4
	c-5-25.8-18.6-36.5-44.9-35.5c-14.6,0.5-29.1,4.2-43.6,6.1c-90,11.9-179.8,25.7-270,35c-96.8,10-194,17.9-291.2,22.7
	c-148.1,7.4-296.2,5.9-444.4-3.1c-157.8-9.5-314.9-24.4-471.1-48.5c-29.9-4.6-59.9-9.7-90-11.6c-29.8-1.9-45.3,12.5-51.5,41.5
	c-6.9,31.9-3.7,63.5,1.5,95.2c2.4,14.8,11.2,22.7,25.8,25.6c22.5,4.5,44.6,10.3,67.2,14.4c137.9,25.1,276.9,40.4,416.7,48.6
	C1561.4,1830.6,1667,1833.4,1772.5,1837.7z M1849.3,2712.9c7.3,2.3,11.1,3.7,15,4.8c38.4,11.4,59.9,41.5,55.7,78.5
	c-4.3,38.1-33.3,64.7-72.7,66.7c-8,0.4-15.9,0.9-23.2,1.4c-14.7,52-92.8,546.2-89.3,566.2c32.6,14.1,67.4,16.1,102.7,14.6
	c10.9-0.4,14.8-7.2,16.6-17.5c9-52.4,18.8-104.7,27.7-157.1c1.6-9.5,1.5-19.7-0.2-29.2c-8.5-47.1-1.2-91,22.6-132.6
	c6.4-11.1,11.4-23.9,13.4-36.5c23.4-142.9,45.9-285.9,68.9-428.8c27.4-170.4,54.9-340.8,82.1-511.2c2-12.4,5.9-25.2,2.1-37.7
	c-42.9,6.9-84.5,13.5-126.7,20.3C1912.5,2313.9,1881,2512.5,1849.3,2712.9z M2199.9,536.6c-2.5,7.6-4.6,12.1-5.3,16.8
	c-5.6,35.6-10.7,71.2-16.4,106.7c-28.6,179.4-57.4,358.7-86,538.1c-21.2,132.5-42.3,265-63.2,397.5c-1.1,6.7-0.7,13.7-1.1,22.4
	c23.3-1.5,43.6-2.9,63.9-4.2c20.1-1.4,40.3-2.8,60.5-4.3c56.1-339.9,111.5-677,161.1-1013.7C2274.5,575.8,2238.6,556.9,2199.9,536.6
	z M1163.2,2023.3c12.4-4.8,19.9-7.8,27.5-10.6c89.2-32.8,181.2-49.3,276.4-45.5c69.1,2.7,135.5,19.2,201.4,39.7
	c60.8,18.9,122.3,35.3,183.8,51.6c17.8,4.8,36.7,5.7,57.3,8.8c8.7-63.6,22.7-123.7,28.6-188.2c-262.8,3.5-522.3-6.9-780.5-40
	c-3.2-0.4-6.5,0.2-9.7,0.5c-0.7,0.1-1.4,0.7-2,1.2c-0.6,0.5-1.2,1.1-2.9,2.7C1149.5,1901.6,1156.1,1960.6,1163.2,2023.3z
	 M2194.5,1604.4c10.8,0,19.7,0.8,28.3-0.1c65-6.9,130-13.6,194.9-21.6c38.1-4.7,75.8-11.8,113.8-17.6c14.7-2.3,24.3-10.1,26-25
	c2.2-18.6,5.7-37.5,4.2-55.9c-5.5-65.8-64.9-108.5-129-94.2c-8.8,1.9-17.4,4.8-26.3,5.9c-15.6,1.8-23.3-6.1-20.6-21.8
	c2.2-12.9,6.1-25.4,9.2-38.1c18.4-76.4-26.8-140.3-104.2-147.4c-23.9-2.2-25.9-1.2-30,23.4c-17.8,105.5-35.2,211.2-52.9,316.7
	C2203.7,1553.3,2199.1,1578,2194.5,1604.4z M2465,439.1c85.5-4.3,168-8.5,250.6-12.5c82.9-4,165.9-5.5,246.8-12.8
	c0-44.1,0-84.4,0-126.5c-177.2,10.4-354.3,15.9-534.4,28.9C2441.1,359.8,2453,399.4,2465,439.1z M2454.3,1839.7
	c-103.7,10.5-203.5,20.6-304.3,30.8c-5.5,51.4-17.9,101.3-21.5,155.5c52.4-10.9,101.9-23.2,153-17.2c50.6,6,98.8,20.8,148,46
	C2438,1981,2446.1,1910.8,2454.3,1839.7z M2164.6,3203.4c0.4-67.8-54.5-124-122-124.9c-67.7-0.9-123.7,54.6-123.6,122.8
	c0.1,67.9,55.9,128,121,126.4C2122.5,3325.6,2163,3267.5,2164.6,3203.4z M1952.5,2066.4c45.3-1.1,84.7-10.6,123.7-21.8
	c4.6-1.3,8.6-11.1,9.6-17.4c6.8-41.8,12.8-83.8,18.7-125.8c1.2-8.5,1.2-17.2,1.9-28.2c-43,1.4-83.2,2.7-124.8,4
	C1971.8,1940.8,1962.4,2001.8,1952.5,2066.4z M2204.2,487.9c22.1,21,107.2,63.4,130.9,64.2c7.4-14.7-1.6-24.1-11.1-33.4
	c-28.1-27.4-56.1-54.9-84.3-82.2c-2.1-2.1-4.9-3.5-5.7-4.1C2223.7,451.5,2214.1,469.5,2204.2,487.9z M2253.9,393.6
	c24.5,23.3,49.7,47.4,75.1,71.4c8.9,8.4,17.8,16.8,27.6,24.1c4.1,3.1,10.5,3.1,15.9,4.4c1.1-1.6,2.2-3.3,3.2-4.9
	c-27.1-46.7-54.1-93.3-81.8-141.1C2279,364.5,2266.5,378.9,2253.9,393.6z M2386,307.9c-19.9,10.8-36,19.5-53.2,28.8
	c6.2,10.4,11.1,18.7,16.1,27c16.6,27.2,33.1,54.4,50.1,81.4c4.9,7.8,9.6,17.8,25.4,11.3C2411.9,407.8,2399.4,359.5,2386,307.9z
	 M1876.4,2790.4c0.2-17.3-15.9-33.7-32.5-33.3c-17.8,0.4-30,13.3-30.3,31.9c-0.3,19.2,11.2,30.8,30.2,30.6
	C1863.2,2819.4,1876.3,2807.7,1876.4,2790.4z M3014.9,298.7c-13.2,1.6-12.9,12.9-14.4,21.8c-5,31.3,2,70.6,14,82.6
	C3032.3,379.4,3032.7,328.2,3014.9,298.7z"/>
<path d="M1362.7,758.6c68.6-1.1,124,52.6,125.7,126.9c1.7,72.6-55.2,129-126.4,128.4c-70.9-0.5-127.3-54.4-126.6-123.2
	C1236.2,819.9,1279.9,757.5,1362.7,758.6z M1360.5,971.1c50.5,0.1,86.4-34.3,86.5-83c0.2-49.7-37.4-88.8-85.2-88.5
	c-48.9,0.3-83.9,37.5-83.8,89.2C1278.2,934.2,1315.1,971,1360.5,971.1z"/>
<path d="M1593.4,652.1c-62.3,0.2-109.1-46-109.7-108.2c-0.6-65,45.6-112.7,109.9-113.3c60.8-0.6,109.8,48.9,110.3,111.3
	C1704.5,603.9,1656.3,651.9,1593.4,652.1z M1663.1,543.6c0-38-33.2-73.3-68.7-72.8c-38.3,0.5-68.8,31-69,69
	c-0.2,40.2,30.3,71.8,68.7,71.2C1634.7,610.5,1663.1,582.7,1663.1,543.6z"/>
<path d="M1510.6,148.4c45,0,79.8,35.9,79.4,82.1c-0.4,48-33.6,81.7-79.8,81.1c-44.8-0.6-81.9-35.9-82-78
	C1428,184.5,1463,148.4,1510.6,148.4z M1507.2,270.8c23.9,0.4,41.9-15.9,42.2-38c0.3-23.9-16.1-42.8-37.5-42.9
	c-23-0.2-41.1,17.1-41.4,39.4C1470.2,250.7,1487.7,270.5,1507.2,270.8z"/>
<path d="M1581.2,2390.9c106.6,0,194.5,88.1,191.6,195.7c-3,111.5-86.2,190.8-193,191.9c-110.9,1.1-197.9-83.7-197.9-191.5
	C1381.8,2476.2,1468.6,2390.9,1581.2,2390.9z M1578.6,2434c-86.2-0.2-154,66.2-154.3,151.1c-0.3,82.1,67.9,152.2,149.2,151.2
	c86.4-1,154.4-59.7,154.9-152.5C1728.9,2501.4,1661.8,2434.2,1578.6,2434z"/>
<path d="M1512,3207.1c-63.5,0.2-112.9-49.9-112.5-114c0.4-63.2,48.5-112,112.2-111.6c55,0.3,109.2,38.6,111.7,112.9
	C1625.6,3156.2,1574.2,3206.9,1512,3207.1z M1579.4,3096.6c0.2-40.7-29.2-72-67.8-72.1c-36.7-0.1-68.2,31.6-69,69.3
	c-0.8,35.4,33.8,70.5,65.7,69.9C1550.9,3163,1579.2,3137.7,1579.4,3096.6z"/>
<path d="M2168.3,2611.2c58.4,0.1,104,46.3,103.4,104.9c-0.6,55.4-46.4,100.9-102.4,101.5c-56.1,0.6-103.1-46.5-103-103.1
	C2066.5,2656.2,2110.9,2611.2,2168.3,2611.2z M2167.5,2775.1c34,0.4,60.9-25.8,61.2-59.7c0.3-32.7-28-63.2-58.9-63.5
	c-32.3-0.3-60.1,27.6-60.9,61.2C2108,2747.9,2133.3,2774.6,2167.5,2775.1z"/>
<path d="M1599.2,2202.8c-0.2,59-41.6,100.5-100.5,100.6c-59.5,0.1-101.8-44.3-101.1-106.1c0.7-56.8,45.2-99.4,103.1-98.9
	C1555.5,2099,1599.3,2145.4,1599.2,2202.8z M1439.8,2201.1c0.2,35.2,24.4,60.4,57.4,59.7c33.5-0.7,60.5-27,60-58.5
	c-0.5-33.4-28.8-62.2-60.3-61.6C1463.6,2141.3,1439.6,2166.7,1439.8,2201.1z"/>
</svg>
