<?xml version="1.0" encoding="utf-8"?>
<!-- Generator: Adobe Illustrator 24.3.0, SVG Export Plug-In . SVG Version: 6.00 Build 0)  -->
<svg version="1.1" id="Layer_1" xmlns="http://www.w3.org/2000/svg" xmlns:xlink="http://www.w3.org/1999/xlink" x="0px" y="0px"
	 viewBox="0 0 4000 4000" style="enable-background:new 0 0 4000 4000;" xml:space="preserve">
<path d="M1958.7,3560.8c-246.5-5.6-554.8-34-857.7-107.2c-134.3-32.5-266.8-71.1-390.5-134.9c-97-50-189.6-106-265.8-185.9
	C338,3021,278,2886.6,253.1,2735.5c-22.8-138.1-23.4-277.2-17.4-416.6c0.5-11.6-1.8-26-8.4-34.8c-39.4-52.1-51.9-112.5-56.1-175.3
	c-6.3-93.3,5.1-185.5,22.8-276.7c27-139.6,73.1-273.1,140-398.8c72.2-135.6,172.5-245.6,301-330.3c18.1-12,34.8-29.9,45.3-48.8
	c25.3-45.4,48.3-92.2,69-139.8c55.7-128,134.3-237.7,245.8-323.5c99.5-76.6,208-136.4,324.9-181.4
	c254.3-97.9,518.7-132.2,789.7-122.2c195.9,7.2,387.5,37.3,571.2,108.5C2875,471,3045.7,581,3181.6,740.8
	c26.3,30.9,49.8,64.6,71.8,98.7c15.2,23.6,33.7,41.8,57.4,56.2c87.9,53.2,165.3,118.8,228.2,200.6c87.6,114,148.8,240,173.8,382.5
	c8.7,49.9,7.2,98.9-12.1,146.9c-4.7,11.7-6.3,27.2-2.8,39c34.2,115.4,53.8,233.8,69.8,352.7c22.8,169.6,37.4,339.9,30.7,511.3
	c-3.9,99.8-15.2,198.6-45,294.5c-42.7,137.5-125,247.6-237.1,335.9c-130.1,102.5-279.6,165.4-437.7,210.4
	c-20.1,5.7-38.3,18.1-57.4,27.3c-34.6,16.7-68.1,36-103.9,49.4c-130,48.8-265.9,72.4-403.2,89.4
	C2351.1,3555.9,2187.4,3564.3,1958.7,3560.8z M637.1,1202.2c-8.9,4.3-12.2,5.1-14.6,7.2c-73.1,61.6-139.1,129.7-189.3,211.8
	c-49.3,80.5-86.4,166.8-115.8,256.2c-41.6,126.6-68.2,256.2-64,390.1c1.3,42.6,9.9,85.2,17.9,127.3c2.7,14,5.2,34.6,24.7,36.7
	c20.4,2.2,30-15.9,36-31.1c18-45,34.7-90.7,49.9-136.7c12.8-38.6,21.5-78.6,34.4-117.2c13.6-41,32.9-79.5,62-112.2
	c55.8-62.7,132.5-76,205.8-35.7c28.2,15.6,51.6,36.7,69.9,63.3c47.5,69.1,71.7,146.2,74.4,229.4c2.9,86.3-7.1,172-21.7,256.8
	c-20.4,118.3-42.4,236.1-47.7,356.4c-2.6,59.4,1.7,117.7,16.2,175c5.8,22.7,14.8,45.6,27,65.5c28.1,45.5,80.9,45.7,111.6,1.9
	c5.8-8.2,10.8-17.5,13.9-27c6.9-21.5,15.5-43.1,17.8-65.3c6.1-59.6,11.9-119.4,13.1-179.3c1.6-84.9,2.6-169.8,14.5-254.1
	c11.2-79.2,31.9-155.2,76.4-222.9c63-95.8,178.2-146.9,280.8-124.5c56.6,12.3,97,44.5,111.5,101.6c7.1,28,9.4,58,8.9,87.1
	c-0.9,47.5-7,94.8-8.8,142.3c-1.3,35.5,6.2,69.9,24.8,100.9c26.4,44.1,69.9,47.6,103.2,8.2c6.5-7.7,11.3-16.9,15.8-26
	c16.6-34.1,23.5-70.6,26.3-108.2c4-54.2,6.3-108.6,13.4-162.4c3.4-26.2,12.2-53.4,25.3-76.4c22.5-39.6,69.4-48.5,105.2-20.2
	c18.8,14.9,35.1,35.8,45.7,57.4c13.3,27.1,20.8,57.3,28.6,86.8c11.2,42.7,19.5,86.1,30.7,128.8c5.5,21,14.9,43.4,40.2,44.9
	c28.1,1.6,38.8-21.8,44.2-43.9c8.3-33.9,13-68.7,19.1-103.1c5-27.8,8.2-56,15.2-83.3c15.3-59.3,53.5-96.1,114.1-107.3
	c59.8-11.1,119.3-9.8,178.2,6.6c57.5,16,97.9,52.1,119,107c11.2,29.3,16.7,61,22.9,91.9c9.6,47.6,15.6,96.1,27.4,143.1
	c5.6,22.2,19.5,43,32.8,62.4c12.5,18.3,32.4,23.4,54.4,18.1c20.9-5,27.8-21.5,32.6-39.5c1.5-5.4,1.5-11.2,2.6-16.8
	c10.2-52.2,2-103.9-4.7-155.4c-7.3-56.2-16.1-112.4-9.9-169.1c7.4-67,33-122.3,102.6-146.3c1.5-0.5,2.1-3.6,4.3-7.5
	c-6.3-3.8-12.3-8.3-19-11.4c-85.3-39.5-175.4-61.3-268.8-65.8c-104-5.1-208.2-6-312.4-7.6c-130.2-2.1-260.6-2.3-389.8-20.3
	c-79.4-11.1-157.9-28.4-236.8-43.1c-5.5-1-11.1-2.9-16-5.6c-11.7-6.5-15.8-22.8-9.3-35.7c6.7-13.3,16.7-11.7,28.7-7.2
	c23.2,8.7,46.6,17.5,70.5,23.8c105.8,27.8,214.6,34.5,322.9,39.8c117.6,5.8,235.4,4.6,353.2,7.5c72.4,1.8,144.9,3.8,217.2,8.7
	c62.2,4.2,123.2,16.6,182.7,36.2c110.9,36.5,199.9,104.1,275,191.8c7.6,8.8,15.7,17.2,27.9,30.6c0.7-14.6,1.6-21.1,1.3-27.6
	c-3.2-70,16.2-134.2,49.5-194.8c29.8-54.1,70.5-99.4,113.6-143.1c53.2-54,106.7-108.1,156-165.5c86.9-101.3,119.7-222.2,113.2-353.4
	c-6.1-122.1-44.3-235.5-107.6-339.8c-108.3-178.6-262.2-307.4-447.7-399.2C2605.5,437.3,2440.9,394,2269.3,375
	c-183.4-20.4-366-17.4-548.5,9.6c-181.8,26.9-355.3,79.3-517.7,166.3c-126.5,67.7-236.6,153.9-319,273.6
	c-112.7,163.6-114.6,361.7-1.3,524.7c65.9,94.9,154.4,165.2,253.4,222.1c183.6,105.3,383.3,160.8,592.5,182.9
	c193.5,20.5,386.9,14,579.1-14.9c175.1-26.4,345.8-70.2,509.5-138.9c7.3-3.1,14.7-7,22.3-7.7c5.8-0.6,15.3,1.7,17.2,5.6
	c2.9,6,3.8,17.6,0.1,21.3c-9.3,9.2-20.9,17.1-33,22.3c-219.3,95.8-450.9,139.5-687.6,160.6c-116.4,10.4-232.9,8.4-349.5,0.4
	c-217.2-14.8-424.1-67.7-619.1-164.7c-104.2-51.9-198.5-117.9-276.5-205.4c-68.8-77.2-112-166.9-128.7-268.9
	c-5-30.7-6.6-61.9-10.3-98.7c-8.3,12.2-14.6,19.7-18.9,28.2c-11.3,22.2-22.8,44.3-32.3,67.3c-58.8,142-39.7,278.7,38.7,406
	c61.3,99.7,151.3,170.2,258.8,217.4c9.3,4.1,19.5,7.5,27,14c4.8,4.2,8.8,14.5,6.9,19.8c-1.8,5.2-11.8,10.7-17.9,10.4
	c-9.8-0.6-19.5-5.1-28.8-9.2c-65.8-28.8-127.5-64.8-179.8-114.2c-131.5-124.2-194.3-275.3-173.8-457.7
	C633.4,1233.7,635,1220.5,637.1,1202.2z M2049.9,3481.6c213.3,2,425.2-12.5,634.5-55.6c87.6-18,173.7-41.3,256.5-76
	c50.4-21.1,83.4-56.7,100-108.2c3.1-9.7,7.1-19.1,9.7-29c17.6-67,27.5-135.1,29.4-204.4c3.2-115.8-5.2-230.5-27.6-344.4
	c-29.9-152.3-76.7-297.8-159.7-430.2c-41.2-65.8-90.1-125.1-152-172.1c-41.5-31.5-65.4-29-106.5,3.1c-19.6,15.3-31.1,35.4-37.2,59.2
	c-9.7,38-8.4,76.4-3.8,114.7c6.4,52.8,14.6,105.4,20,158.3c4.9,48.1-0.3,95.2-25.2,138c-21.2,36.5-59.5,49.9-99.4,36.4
	c-28-9.5-48.6-27.5-64.2-52.6c-27-43.5-36-92.2-44.8-141.4c-8.3-46.7-15.4-93.8-27.7-139.5c-11.6-43.1-42.7-73.5-85.1-85.6
	c-60.7-17.3-123-17.8-184.5-0.7c-29.4,8.2-49.5,27.3-57.1,57.3c-5.3,20.8-8.8,42-12.4,63.2c-7,41.2-12.3,82.8-20.5,123.7
	c-5.2,25.9-18.5,48.6-38.1,66.9c-34.8,32.6-88.9,26.9-115.4-12.3c-20-29.5-30.6-62.9-37.4-97.6c-6.9-35.5-11.8-71.7-21.8-106.3
	c-7.4-25.7-19.2-50.8-33.4-73.5c-6.6-10.6-23.3-20-35.8-20.6c-18.5-0.8-30,15-33.8,32.8c-5,23.1-9.3,46.6-11.6,70.1
	c-5.1,51.8-7.2,103.9-13.3,155.5c-5.4,46.5-18.5,91.1-47.7,129.1c-46.5,60.5-137,55.8-173.5-10.8c-14.4-26.2-22.3-56.6-29.4-86
	c-10.6-43.8-1.4-87.8,3.7-131.6c4.6-40.5,8.8-81.1-2.5-121.4c-10.8-38.5-35.2-61.8-74.5-70.5c-84.5-18.6-184.2,20.8-236.4,93.5
	c-50,69.5-70.9,149.3-77.2,232.4c-7.8,103.8-9.1,208-14.9,311.9c-2.2,39.4-5.9,79.2-14.3,117.7c-6.9,31.6-19.1,62.8-33.9,91.7
	c-15.5,30.3-41.3,49.5-77.8,53c-54,5.2-92.3-16.8-117.1-63.4c-25.9-48.7-38.1-101.5-41.6-156.3c-5.7-87.5,2.7-174,16.4-260.3
	c16.2-101.6,34.4-203,47-305.1c10.5-85.6,10.2-171.8-16.2-255.7c-12-38.2-29.6-73.5-55.8-103.9c-65.7-76.3-163.3-68.9-215.4,17.3
	c-13.9,23.1-26.1,47.9-34.5,73.5c-19.4,59.1-34.9,119.4-54.3,178.5c-15.8,48.3-32.4,96.4-72.3,132.5c-8.5,7.7-12.3,24.1-12.9,36.7
	c-5.7,138.1-6.1,276,15.9,413.2c32.2,201.2,136.4,354.1,306.9,463c124.2,79.3,260.4,130.8,402.2,168.2
	c177.5,46.8,357.5,78.8,540.2,97.7C1738,3472.1,1893.5,3483.1,2049.9,3481.6z M3080.6,3286.1c23.8-7.9,46-15.1,68.2-22.6
	c104.4-35.4,204-80.9,293.3-146.4c97.6-71.7,175-159.8,220-274.2c50.7-129,60.1-264,59.3-400.3c-1-168.9-17.5-336.7-45.1-503.2
	c-13.7-82.5-33.2-164-51.5-245.7c-6.5-28.8-18-32.5-44.1-19.6c-26.4,13-40,35.1-46.3,63.3c-8.1,36.3-4.2,72.5,3.2,107.8
	c14.4,68.6,33.1,136.3,46.6,205.1c8.9,45.3,15.3,91.6,16.2,137.6c0.9,46.9-12.4,91.8-44.6,128.8c-13.8,15.9-30.3,26.4-51.2,30.8
	c-45.3,9.7-79.7-8.2-107.7-41.8c-27.3-32.9-43.6-71.6-52-113c-8.4-41-12.9-82.7-21.4-123.7c-7.1-34.2-16-68.2-26.9-101.3
	c-9.5-28.9-32.7-42.4-62.8-42.9c-14.3-0.2-28.6,1.1-42.9,1.8c0.9-41.7-18.2-67.1-58-75.8c-51.7-11.3-94.7,2.4-131.6,42.3
	c-95.4,103.2-96.3,265-43.2,369.4c65.1,128.1,113.6,260.8,139,402.5c25.6,142.5,33,285.6,17.1,429.2
	C3107.3,3156.6,3092.8,3218.2,3080.6,3286.1z M3073.8,1798.8c4.2,3.4,5,4.5,5.9,4.7c2.2,0.4,4.5,0.9,6.6,0.6
	c62.6-9.8,110.2,12.4,145.6,64.9c6.7,9.9,20.7,18.4,32.6,20.6c28.2,5.3,46.5,21.1,60.6,44.6c20.7,34.5,32.2,72.2,38.7,111.6
	c7,42.4,12.5,85.1,20.8,127.3c8.6,43.8,25.3,84,58,116.7c24.2,24.3,62.7,18.8,81.5-3.4c7.8-9.2,13.8-20.7,18.3-32.1
	c16.9-42.4,16.6-87,8.8-130.6c-10.6-58.9-24.8-117.3-38.5-175.6c-14.8-62.9-30.9-125.7-26.1-191c4.6-61.8,27.7-112,94.4-129.6
	c5.5-1.4,10.6-3.9,16-5.5c24.8-7.1,35.7-24.6,40.6-49.1c7.1-35.5,3.5-70.4-5.2-104.3c-49.6-192.7-150.2-352.5-309.7-473.6
	c-5.7-4.3-12.4-7.2-19.5-11.2c-0.7,4.9-1.8,7.2-1.2,9.1c3.6,11.9,7.3,23.8,11.4,35.6c31.2,88.4,48.5,179.2,44.9,273.1
	c-4.3,114.8-35.6,220.8-106.7,312.9C3199.6,1681.9,3141.6,1743.7,3073.8,1798.8z"/>
<path d="M1899.7,1508.6c207.2-4,378.1-27.3,540.7-94.1c90.6-37.2,175.2-84.7,241.6-159.5c96.5-108.8,112.9-235.6,45.4-364.6
	c-52.3-99.9-134.1-169.8-232.3-221.6c-120.9-63.7-250.1-99.3-386.3-108.7c-187-12.9-371,2.4-549.9,61.7
	c-106.3,35.3-205.3,84.5-288.1,161.5c-51.5,47.9-91,103.7-103,175.3c-13.3,79.8,7.7,150.1,58.7,212.1c51.2,62.2,119,100,192.3,129.6
	c12.6,5.1,25.7,9.3,37.4,15.9c5.7,3.2,13.5,13.6,12,16.4c-3.6,6.8-11.4,12.4-18.7,15.8c-4.3,2-11.3-0.2-16.5-2
	c-88.3-31.6-172-71.9-234.6-144.2c-96.1-111-103.8-258.1-21.6-380.4c46.4-69,109.3-120.4,181.2-161
	c148.3-83.8,308.8-127.5,477.6-143.3c118.9-11.2,237.6-11.6,355.6,7.7c151.5,24.8,294.2,72.9,419.8,164.4
	c64.2,46.8,116.4,104.1,153.7,174.2c80.5,151.7,58.9,306.9-59.9,435.2c-56.4,60.9-127.4,101.2-201.1,136.6
	c-108,51.8-222.7,81.8-340.9,99.2c-251.8,37-499,17.9-740.5-63.6c-86.2-29.1-167-69.7-240.9-123.4
	c-99.1-72.1-162.2-166.9-176.4-289.8c-3.9-34.2-1.2-70.4,5.6-104.3c16.9-83.6,54.3-158.2,113.4-220.6c12.1-12.7,29-20.8,43.1-31.7
	c9.6-7.4,18.8-15.4,27.1-24.2c12.4-13.1,22.7-28.3,35.7-40.6c16.8-15.9,30-17.2,38.1-6.6c7.6,9.9,3.2,22.7-15.1,36.4
	c-11.7,8.8-24.6,16.2-37.7,22.7c-15.5,7.7-27.7,17.6-37.7,32.5c-14.5,21.5-33.3,40-48.9,60.8c-40.6,54.1-69.9,113.7-82,180.8
	c-17.8,99.1,9.9,186.3,72.1,263c45.4,56,100.8,100.3,164.6,134.5c130.3,69.9,269.4,111.7,415.6,129.3
	C1776.5,1498.9,1854.5,1504.4,1899.7,1508.6z"/>
<path d="M1954.4,1355.8c-125.6-1.1-234.1-15.3-339.5-48.8c-71.6-22.8-139-54.4-197.1-103.3c-49.3-41.4-81.8-93.6-97.8-155.5
	c-19.2-74.3,1.5-141.8,43.5-202.4c47.9-69.1,117.6-111.8,193.4-144.3c69-29.6,141.7-46.4,215.8-57.4c94.3-13.9,188.9-21.2,284.2-11
	c84.9,9.1,167.7,26.9,245.4,63.2c71,33.1,130.6,80.2,174.1,146.8c86.1,131.7,62.8,279.4-59.7,378.2c-65.7,53-140.5,86.3-221.9,105.1
	C2110.8,1345.8,2025.8,1357.6,1954.4,1355.8z M1937.9,1309c86.4-0.1,171.7-8.4,255.6-29.9c84.9-21.7,162.3-57.3,224-121.1
	c65.3-67.5,81-147,50.6-235.2c-15.4-44.6-41.9-82.6-76.7-114.6c-70.7-64.9-155.7-101.1-248.4-117.8
	c-181.8-32.6-361.1-17.1-536.4,39.7c-66.1,21.4-127.2,54.1-176.9,104.3c-97.5,98.2-91.7,239.8,13.1,329.4
	c41.7,35.7,88.6,62.1,139.6,82.4C1696.6,1291.8,1815.7,1309.2,1937.9,1309z"/>
<path d="M2099.3,455.3c-32.8,0-65.6,0.1-98.4,0c-7.9,0-15.9-0.1-23.7-0.9c-10.5-1-18-7.4-16-17.6c1.1-5.7,8.9-11.5,15-14.3
	c5.8-2.7,13.3-2.2,20-2.2c262,0,516.3,37.4,755,152.8c147.3,71.2,267.8,172.6,351.7,314c68,114.6,104.8,237.9,91.8,372.5
	c-3.4,35.8-12.7,71-20.3,106.3c-1.8,8.4-6.6,17.3-12.6,23.4c-3.6,3.7-13.3,4.9-18.2,2.6c-4.3-2-6.4-10.1-8-15.9
	c-0.8-2.7,1.6-6.4,2.6-9.7c56.5-194.1,6.4-366.3-110-523.5c-94.3-127.3-221.6-211-366.6-270.9
	C2481.6,497.3,2292.3,468.4,2099.3,455.3z"/>
<path d="M2072.9,1647.2c-6.8,0.4-13.5,1.2-20.3,1.2c-11.6,0-23.9-0.1-25.4-15.7c-1.5-15.8,10.3-18.4,21.9-19.7
	c25.9-2.7,51.9-3.9,77.7-7.5c222.3-30.7,429.3-100.7,604.9-245c45-37,82.4-83.6,121.3-127.5c12.3-13.9,18.1-33.6,26.6-50.7
	c4.5-9.1,7.7-18.9,12.9-27.6c5.9-9.9,14.9-13.3,26.1-7.5c11.2,5.8,14.4,15.3,8.8,25.5c-17.8,32.6-33.7,66.9-55.8,96.6
	c-72.8,98-167.4,170.9-274.5,227.8c-135,71.8-278.3,118.9-429.7,140.5c-31.3,4.5-63,6.6-94.5,9.9
	C2072.9,1647.4,2072.9,1647.3,2072.9,1647.2z"/>
<path d="M328.9,1917.1c-32.3-1.3-33.3-1.5-29.9-28.1c10.5-82.6,35.7-161,70.9-236.2c27-57.7,60.2-111.5,102.7-159.3
	c11.8-13.2,23.8-25.1,46.7-9c-6.7,11.1-12.2,22.8-20.1,32.7c-56.5,71.8-101.8,149.9-129.5,237.1c-14,44.1-23.5,89.6-34.9,134.5
	C332.6,1897.6,331.1,1906.4,328.9,1917.1z"/>
<path d="M836.6,1913.3c31.2-6.1,33.1-5,44.4,19.9c32.9,72,39.6,148.2,34.5,225.7c-3.1,47.3-8,94.3-27.4,139
	c-5.8,13.3-1.2,31-1.9,46.7c-0.5,11.3,0,23-3.3,33.5c-1.7,5.5-11.8,12.9-16.3,11.8c-7.1-1.7-17.7-9.5-18-15.2
	c-0.8-15.5,2.2-31.4,4.9-46.9c14.3-80.2,27.6-160.4,24.8-242.3c-1.8-52.6-10.4-103.4-34.4-150.8
	C841.1,1928.9,839.7,1922.3,836.6,1913.3z"/>
<path d="M2674.1,1026c25.3,3.4,30.3,6,28.7,26.8c-2.2,29-5.1,58.9-14.1,86.3c-17.7,53.8-50.8,98.2-97.2,131.3
	c-26.6,19-54.5,36.2-82.2,53.7c-6.6,4.2-14.3,6.7-21.7,9.2c-11,3.7-22.3,1.5-24.8-9.9c-1.3-6,5.5-16.7,11.6-20.8
	c26.2-17.5,54.4-32.3,80.4-50.1c71.6-49.1,111.6-116.4,114.2-204.4c0.2-5.6,1.2-11.1,2-16.7C2671,1030.3,2672,1029.4,2674.1,1026z"
	/>
<path d="M1566.8,1357.2c-12.3,9.6-18.6,17.9-26.5,20c-12.5,3.4-26.6-8.7-25.9-20.3c0.9-13.7,11.3-21.4,22.7-19.9
	C1545.8,1338.2,1553.4,1347.7,1566.8,1357.2z"/>
<path d="M1333.8,2900.7c-0.1-64.9,51.9-119.4,114.2-119.5c64.7-0.2,119,51.9,119.6,114.7c0.6,64.5-54,121.3-117.1,121.8
	C1387.6,3018.1,1334,2964.3,1333.8,2900.7z"/>
<path d="M2454.2,3013.2c-60.3-0.6-113.1-55.8-112.5-117.4c0.7-62.8,55.2-117.4,117.1-117.4c65,0,117,51.9,116.4,116.2
	C2574.8,2963.8,2523.6,3013.9,2454.2,3013.2z"/>
<path d="M1957.3,3126.8c-86.1-1.6-140.4-59.4-152.7-140.1c-0.8-5.4-1.5-12.7,1.3-16.4c4.9-6.5,12.1-13.7,19.3-15.1
	c5.1-0.9,14.1,6.1,17.4,11.8c4.3,7.5,4.6,17.3,6.7,26c13.2,54.5,56.9,91,108.9,89.5c48.7-1.4,102.4-26.5,114.7-91.3
	c1.3-6.7,0.7-14.4,3.9-19.8c4.1-6.9,10.8-16.1,17.2-16.8c11.7-1.3,21.9,5.7,23.5,19.3c0.7,5.5-0.1,11.2-0.8,16.8
	C2106.7,3072.3,2042,3127.5,1957.3,3126.8z"/>
<path d="M427.2,2310.2c-0.6,10.6-1.1,21.5-2,32.4c-8.8,111.7-12.7,223.4,3.8,334.8c5.1,34.6,12.7,68.8,19.1,103.2
	c1.4,7.7,3.3,15.6,3.3,23.3c0,3.6-3.8,9.5-6.8,10.1c-4.7,1-12.8,0.2-14.9-2.9c-5.5-8.3-9.3-17.9-12.4-27.5
	c-23-72.8-32.9-147.9-34.1-223.7c-1-68.8,3.1-137.7,5.5-206.5c0.3-10,2.4-20.2,5.3-29.9C399.3,2306.7,399.8,2306.9,427.2,2310.2z"/>
<path d="M2979.1,2886.8c0,21.5,1,45.4-0.6,69c-0.5,7.1-7.3,18-13.2,19.6c-13,3.5-17-7.8-18-18.7c-1.3-14.6-2.5-29.4-2.5-44.1
	c0.1-96.7-14.3-191.6-32.6-286.2c-2.1-11.1-5.6-22.2-5.6-33.4c0-6.4,3.8-15.3,8.9-18.6c8.8-5.8,17.5-1.6,22.1,8.1
	c2.4,5.1,4.1,10.6,5.2,16.1C2961.3,2693.2,2977.2,2788,2979.1,2886.8z"/>
<path d="M2908.8,2504c-15.4,7.4-24,2.3-29.2-9.9c-19.9-46.7-39.9-93.4-59.1-140.5c-2-5,0-16.6,2.7-17.5c6.4-2.2,15.7-1.9,21.3,1.5
	c6.2,3.8,11.4,11.4,14.1,18.5c17.5,45.2,34.3,90.8,51,136.3C2910.6,2495.2,2909.2,2499,2908.8,2504z"/>
<path d="M488,2921.1c-18.2,1.6-31.7-12.8-32.6-28.4c-0.7-11.8,4.5-19.7,16.7-20.6c11.4-0.8,25.3,13.4,24.6,27.1
	C496.1,2907.4,490.3,2915.4,488,2921.1z"/>
<path d="M2763.7,2240c19.6,0.6,31.5,13,30.7,26.9c-0.7,12.3-8,18.5-19.9,17.9c-11.6-0.6-25.9-17.4-23.1-29.1
	C2753.1,2248.8,2760.9,2243.4,2763.7,2240z"/>
<path d="M3177.4,1958.2c-7.6,15.6-12.6,29.3-20.3,41.2c-40.5,63.2-51,132.6-40.9,205.3c6.6,48.1,16.9,95.8,26.5,143.5
	c16.5,82.1,34,164,50.7,246c2.5,12.2,4.2,24.7,4,37c-0.1,5.4-6.7,15.5-9,15.1c-6.6-1.1-14.2-5.1-18.3-10.4
	c-3.7-4.9-3.4-12.9-4.8-19.5c-25-113.8-50.5-227.5-74.8-341.5c-17.7-83.2-21.3-166.3,11.9-247.1c8.1-19.8,18.1-39.1,29.4-57.2
	C3140.2,1956.9,3152.9,1946.9,3177.4,1958.2z"/>
<path d="M3639.5,2523.9c-4.3,88.4-12.6,176.1-44,259.8c-6.7,17.9-14.7,35.6-24.1,52.2c-2.9,5.1-12.5,6.5-19.1,9.5
	c-2.2-6.7-6.1-13.5-6.2-20.3c-0.1-6.4,3.1-13.1,5.7-19.4c42.4-102.2,52.5-209.8,53.9-319c0.1-10.2-1.1-20.8,1.4-30.3
	c1.6-6.1,8.1-13.8,13.9-15.4c10.3-2.8,17.9,4.8,18.3,15C3640.1,2478.7,3639.5,2501.3,3639.5,2523.9z"/>
<path d="M3527.7,2883.6c10,25.1-3.6,38.8-17.2,51.8c-3.1,2.9-11.4,4-14.8,1.9c-3.4-2.1-6-9.8-5-14.2
	C3494.8,2904.8,3504.9,2890.8,3527.7,2883.6z"/>
<path d="M3199,2704.8c4.8,8,12.3,16,14.6,25.3c2.7,10.7,0.4,22.5-12.2,27.7c-2.7,1.1-6.8,0.6-9.5-0.7c-12.1-5.7-16.9-39.7-6.7-47.7
	C3187.6,2707.5,3191.2,2707.3,3199,2704.8z"/>
<path d="M3488.8,1303c16.3-8.1,26.8-4,29.7,9c9.8,42.8,22.9,85.2,10.9,130.3c-10.1,37.8-33.1,66.3-59.3,93.3
	c-29.1,30-59.2,59.3-87.6,90c-43.6,47.2-57.9,100.9-34,162.8c5.4,14,7.2,29.4,10.4,43.3c-19.1,9.7-24.9-2-30.4-11.2
	c-29.7-49.7-36.3-101.4-13.1-155.8c19.6-45.8,52.2-81.7,86.7-116.2c18.4-18.4,38-35.6,57-53.4c32.9-31,46.3-68.8,39.9-113.6
	C3495.4,1355.9,3492.4,1330.2,3488.8,1303z"/>
<path d="M3380.8,1939.5c13.5-7.9,25.3-2.6,31.8,8.8c21.7,38,29.6,79.8,29.1,123.2c0,2.6-3.9,5.1-7.4,9.5c-5.8-4.9-11.9-8.1-15-13.1
	C3409.4,2051.7,3381.4,1956.2,3380.8,1939.5z"/>
<path d="M3423.9,2112.6c21.9-4.3,31.1,5,34.1,17.1c2.9,11.2,1.6,24.1-0.8,35.7c-0.9,4.2-10.4,9.5-15.5,9.1
	c-5-0.4-12.7-6.9-13.6-11.7C3425.4,2146.6,3425.2,2130.2,3423.9,2112.6z"/>
<path d="M1916.7,1203.6c-85.7-3.4-173.8-15.9-254.3-60c-18.7-10.3-36.9-22.2-53.5-35.8c-86.6-70.7-85.4-191.6,3-260.4
	c20.3-15.8,42.8-30.4,66.6-40c149.6-60.3,302.4-72.5,458-24.9c38.1,11.7,73.7,29.1,104.4,55.1c88.8,75.4,89.6,196.9-0.7,270.7
	c-27.5,22.5-60.7,39.8-93.7,53.4C2074.7,1191.4,1998.8,1203.5,1916.7,1203.6z M1945.7,799c-74.1,1.2-149.5,9.9-220.3,38.9
	c-33.9,13.9-67,33.6-95.2,57c-50.4,41.8-55.3,104.1-12.4,153c21.1,24.1,47.8,46,76.3,60.3c67.3,33.8,139.6,50.6,215.9,49.9
	c63.9-0.6,126-11.1,187.1-28.4c41.5-11.8,80.7-29,114.4-57.1c68.8-57.3,69.9-139.7,2.1-198.4c-27.8-24-60.1-39.9-95-50.9
	C2063,805.7,2005.7,800.6,1945.7,799z"/>
<path d="M2322.7,867.5c19.1-14.7,33.1-10.4,43.6,3.9c38.6,52.9,47.4,128.8,8.3,187.2c-9.4,14-20.9,23.9-37.8,11
	c10.8-36.3,25.9-70.7,30.4-106.5C2371.9,926.1,2342.3,898.1,2322.7,867.5z"/>
<path d="M1553,842.4c-5.3,4.5-12.4,14.9-21.5,17.3c-20.1,5.1-27.3,16.9-28.8,36c-0.6,7.3-4.1,16.9-9.5,20.5
	c-6.3,4.1-17.2,5.3-24.3,2.8c-4.1-1.4-8.6-15.7-6.1-19.2c19.4-27.2,38.9-54.7,61.7-78.9C1534.3,810.4,1553.1,822.5,1553,842.4z"/>
<path d="M1827,986.7c12.3,1.7,24.1,2,35,5.2c34.4,10.2,69.3,9.1,104.3,5.5c5.6-0.6,11.2-2,16.6-3.7c15.5-4.7,30.9-10.8,33.8-29.1
	c2.2-13.3-12.1-26.5-34.5-31.8c-53.4-12.5-105.8-8.2-155.8,14.3c-13.9,6.3-27.4,16.8-37.2,28.5c-32.8,39.1-13.4,91.7,36.5,101.4
	c12.2,2.4,24.7,3.1,37,5c10.9,1.7,17,9.2,13.4,19c-2,5.6-10.3,11.8-16.4,12.8c-39.3,5.9-101.7-26.4-121.8-61.3
	c-13.3-23.1-15.1-46.9-5.9-71.8c14.8-39.9,44-65.3,82.7-80c53-20.1,108-24.9,163.6-14.4c16.4,3.1,32.8,9.4,47.5,17.5
	c52.6,29,53.2,87.9,1.1,118.8c-13.4,7.9-29.2,15.3-44.2,16c-39.3,1.9-79,2.7-118.1-1.2C1835.3,1034.5,1829.2,1022.9,1827,986.7z"/>
</svg>
