<?xml version="1.0" encoding="utf-8"?>
<!-- Generator: Adobe Illustrator 24.3.0, SVG Export Plug-In . SVG Version: 6.00 Build 0)  -->
<svg version="1.1" id="Layer_1" xmlns="http://www.w3.org/2000/svg" xmlns:xlink="http://www.w3.org/1999/xlink" x="0px" y="0px"
	 viewBox="0 0 4000 4000" style="enable-background:new 0 0 4000 4000;" xml:space="preserve">
<path d="M2498.9,399.3c15.3-4.8,29.3-9.1,43.4-13.5c61.8-19.4,122.6-23.9,182,9c35.7,19.8,62.4,47.7,81.2,83.5
	c5.4,10.2,10.4,20.6,17.5,34.5c11.9-3.6,23.7-6.7,35.2-10.7c42.6-14.9,86.3-19,130.2-9.2c72.7,16.2,124.8,58.8,154.5,127.7
	c5.4,12.6,10.6,25.3,16.5,39.4c20.4-2.2,39.7-4.5,59.1-6.5c136.8-14.3,258.4,85.2,270.5,221.3c0.7,7.9,2.1,15.8,3.2,24.4
	c21,8.3,41.6,15.7,61.7,24.3c125.1,53.9,179.5,224.8,96.5,348.9c-27.9,41.7-38.7,81.6-40.5,130.8c-7.7,208.5-17.9,417-31.1,625.3
	c-10.5,165.4-26.4,330.5-40.4,495.7c-2.3,26.5-6.9,52.9-11.2,79.2c-10.4,63.1-43.6,108.3-103.5,133.7
	c-75.8,32.1-150.2,67.5-226.6,97.7c-223.1,88.2-448,171.6-677.9,240.6c-239.7,72-479.1,145.1-719.7,213.7
	c-291.9,83.3-585.8,159.3-882.5,223.8c-139.1,30.3-279,57.4-419.2,82.5c-106.6,19-166.5-21.9-191.3-127.1
	c-7.6-32.4-10.3-66.6-10.2-100c0.6-198.3,2.6-396.6,4.2-594.9c1.1-129.9,2.3-259.8,3.2-389.6c0.1-9.1,0.1-19.4-3.8-27.2
	c-49.7-99.6-18.9-187,41-269.2c30-41.2,62.8-80.4,95.5-119.5c270.6-324.1,552.3-638.3,840.3-947
	c149.5-160.2,301.2-318.4,452.7-476.7c21.8-22.8,32.9-45,35.4-78.3c11-146.5,153.1-241.7,282.8-212.1c32.4,7.4,59.7,24.6,84,47
	c21.3,19.7,21.8,20,46.6,3.6c37.7-25,78.9-37.8,123.9-40.9c84-5.9,146.7,29.7,182.6,105.3C2488.7,378,2493.1,387.2,2498.9,399.3z
	 M3508.1,1216.7c11,15.4,21.9,30.9,33.3,47c31-18.5,49.6-41.6,58.6-71.4c19.6-65,1.5-123-42.6-170.6c-41-44.2-95.3-53.5-153.8-41.2
	c-38.3,8-71.8,25.4-103.6,47.3c-9.5,6.6-21.5,13.6-31.1,1.6c-9.6-12-4.6-25.1,5.9-34c13.2-11.2,27-22.3,42.2-30.1
	c22.6-11.7,46.5-20.8,70-30.4c11.4-4.6,21-9.6,20.8-24.1c-1-77.9-28-152.4-129.6-171.5c-90.8-17-169.1,11-234,76.4
	c-4.9,4.9-8.6,11.5-14.3,15c-5.2,3.2-13.6,6.2-18.3,4.1c-5-2.2-10.4-10.8-10-16.2c0.8-9.9,3.9-20.8,9.5-28.9
	c8.4-12.3,17.8-26.1,30.3-33.1c47.1-26.7,41.5-63.5,23.7-103.9c-2.3-5.3-4-10.9-6.5-16.1c-18-37.3-47.6-59.4-88.5-65
	c-36.3-4.9-71.8-0.1-105.4,15c-48.1,21.7-93.6,46.5-119.3,96.3c-6.3,12.3-16.8,20.3-31.4,12.1c-14.6-8.2-12.5-21.4-6.4-33.4
	c7.9-15.4,18-29.6,26.4-44.8c6-11,15.5-23,15.1-34.3c-2.5-68.9-29.3-133-120.4-130.1c-79.2,2.5-145.4,35.9-189.6,105.3
	c-3.7,5.9-6.6,13.5-12,16.7c-6.2,3.7-16.1,6.6-22,4.1c-5.2-2.3-10.7-12.8-9.8-18.8c2-13.4,5.5-27.7,12.6-39.1
	c26.9-43.6,19.9-86.6,0.1-129.5c-13.8-30-38.8-46.9-71.3-47.9c-78.7-2.5-142.5,25.7-184.7,95.3c-7.3,12-10,33-29.8,27.9
	c-18.4-4.8-14.3-24-14.9-38.7c-2.6-62.2-42.4-99.9-105.2-99.3c-89.4,0.9-163.5,77.3-162.4,166.3c0.2,20,12,24.9,27.6,29.3
	c81.3,23.1,163.2,44.5,243.6,70.6c250.7,81.3,495.3,177.6,726.4,305.6c114.9,63.6,226.9,131.3,323.4,221.5
	c24.4,22.8,47.6,48.1,65.6,76c36.9,56.9,27.2,102.1-28.9,140.1c-27.6,18.7-57.8,35.1-88.8,47.2c-137,53.6-273.7,108.5-412.5,157.1
	c-243.9,85.5-493.3,153.5-742.4,221.8c-119.5,32.8-240.3,60.9-360,93c-167.9,45-334.9,93.1-503,137.2
	c-155.7,40.8-312.7,77-468.5,117.5c-70.6,18.3-140.1,40.9-209.4,63.8c-16.6,5.5-36.1,16.4-44,30.6c-16.4,29.6-17.5,63.4-7.5,100.3
	c16.2-4,29.5-6.9,42.5-10.6c28.9-8.3,57.6-17.8,86.6-25.5c145.6-38.5,291.4-76.2,436.9-114.9c278.8-74.1,557.9-147,836-223.5
	c243.4-67,485.8-138,728.4-208c226-65.2,450.8-134.2,670.1-219.8c26.7-10.4,55.5-16.5,83.9-21.7c47.9-8.6,82.6,8.6,101.9,52.6
	c11,25.2,19.7,52.7,22.4,79.8c6.3,62.2,12.1,124.9,11.2,187.3c-2,148.4-4.1,297-13.6,445.1c-9.4,147.4-9.5,295.9-43.4,446.7
	c22.5-10.2,40.7-19.5,59.7-26.7c38.7-14.8,59.2-42.2,63.3-83.3c11.1-109.5,25.1-218.8,33.7-328.5c12.2-154.9,20.5-310,30.4-465.1
	c2.8-44,5.7-88,7.5-132c4.3-100.8,8.3-201.5,11.5-302.3c0.4-13.5-4.6-27.2-6.9-40.9C3518.5,1282.4,3513.3,1249.6,3508.1,1216.7
	C3508.2,1216.7,3508.1,1216.7,3508.1,1216.7z M3321.7,2377.1c-12.5,3.6-17,4.4-21.1,6c-149.8,59.1-299.6,118.5-449.5,177.2
	c-45.3,17.8-91.7,32.8-136.8,51.1c-32.3,13.1-49.1,11-80.1-17.4c18.9-7.5,36.8-15.2,55-21.8c71.9-26.2,144.4-50.6,215.7-78.3
	c129.6-50.3,258.5-102.6,387.7-153.8c17-6.7,29.5-14,30.2-36.4c2-57.9,8-115.6,10.3-173.5c1.7-42.6,0.3-85.3,0.3-130.1
	c-8.2,2.3-15.9,3.7-23.2,6.5c-126.7,48.2-252.5,99.2-380.3,144.4c-291.8,103.2-587,196.4-885.6,277.7
	c-286.2,77.9-573.3,152.4-861.2,223.6c-224.9,55.6-451.6,103.7-677.4,155.2c-41.6,9.5-83.3,18.9-127.4,28.9c0,113.6,0,225.6,0,341.3
	c275-51.3,546.4-113.8,820.7-174.6c3.7,12.8,6.7,23.4,10.2,35.8c-277.5,74.4-557.3,125.9-839.2,187c4.2,76.1,5.3,149.2,13.2,221.5
	c6.6,60.4,36.9,81.5,91.6,71.4c99.1-18.5,199.2-32,297.2-55c267.3-62.7,534.7-125.3,800.2-195c436.1-114.4,867.9-243.7,1292.9-394.6
	c115.7-41.1,229.3-87.9,344.5-130.4c47.6-17.6,75.3-50.2,81.6-98.7C3302.9,2558.1,3311.3,2470.7,3321.7,2377.1z M378,2791.3
	c16-2.9,25.1-4.2,33.9-6.2c171.5-39.4,343.3-77.6,514.4-118.6c257.9-61.7,516-122.6,772.8-188.9c305-78.7,607.9-165.2,907.5-262.8
	c238-77.5,474.2-159.8,705.6-255.4c17.3-7.1,26.7-15,26.3-34.8c-1.8-84.6-1-169.3-4.6-253.9c-1.4-34.3-9.2-68.9-18.1-102.3
	c-9.6-35.8-28.3-47.4-64.8-42c-23.8,3.6-47.2,11.4-70,19.3c-101.7,35.4-202.2,74.6-304.9,106.8c-195.6,61.4-392.1,119.9-588.8,177.8
	c-152.2,44.8-304.9,87.9-457.9,129.9c-131.8,36.2-264.5,69.2-396.5,104.6c-180.1,48.3-359.9,97.8-540.1,146.2
	c-157.7,42.4-315.6,83.9-473.4,126c-11.9,3.2-23.4,8-35,12.1C382.3,2496.8,380.2,2641.4,378,2791.3z M2662.2,1254.9
	c-8,5.1-15.4,8.7-21.4,13.9c-24.6,21.3-53.4,33.3-85.2,35.8c-28,2.3-41.2,13.8-49.3,42.1c-22.1,76.9-84.9,126.5-163.1,129.4
	c-64.5,2.4-126.9-10-184-42.5c-7.8-4.4-15.8-8.4-26.2-13.8c-23,35.4-44.8,69.8-88.9,79.4c-42.4,9.2-81.6-5.7-122.2-15.9
	c-4.3,13.7-7.2,24.8-11.2,35.6c-8.7,23.3-20.9,45-44.3,55.9c-58.9,27.4-118.8,53.5-184.3,59.5c-50.9,4.7-93.3-13.4-121.2-59
	c-5.8-9.6-12.6-18.6-17.6-25.8c-21.6,4.6-39.4,10-57.6,11.9c-19.2,1.9-38.8,0.4-60.3,0.4c1.3,10,1.7,15.6,2.8,21
	c11.4,56.3-6.1,103.4-54.7,130.9c-24.6,13.9-53.2,24.3-81.1,28.2c-81.1,11.3-131.8-36.3-130.1-117.8c0.2-11.4,0-22.8,0-37
	c-67.7-21.2-116.7-62.8-107.4-139.9c9.1-75.2,61.7-113.1,133.2-123.6c6-35.2,11.7-68.5,18.6-108.4
	c-111.1,122.9-218.6,241.8-329.5,364.6c14.6,1.5,22.5,2.5,30.3,3.2c61.5,4.9,106.3,35.3,137.7,87.9c46.3,77.5,8.4,165.6-80.1,181.6
	c-25.8,4.7-53.3,6.6-79.2,3.2c-67.5-8.8-105.2-47.7-117-114.4c-1.5-8.3-3.2-16.5-5.9-30.5c-117.6,139.8-237.4,269.2-343.2,411.8
	c14.9-0.7,28.2-3.6,41-7.8c17.6-5.8,34.5-13.8,52.3-18.6c116.3-31.5,232.6-62.5,349.1-93.3c153.5-40.5,307.1-80.5,460.5-120.9
	c247.6-65.2,495.4-129.8,742.6-196.2c305.7-82.1,607.4-176.8,902.6-291.4c61.5-23.9,122.6-49.3,182-78.1
	c67.2-32.6,73.9-61,23.7-116.9c-36.9-41.1-79.4-78.1-123.7-111.3c-134.2-100.6-281.7-178.9-433.2-249.7
	c-164.1-76.7-332.8-141.7-505.4-196.2c-83.9-26.5-169-49.6-253.4-74.5c-27.4-8.1-47.9-0.9-67.7,20.8
	c-81.4,89-164.4,176.5-246.7,264.8c-87.7,94.2-175.3,188.6-262.7,283c-6.6,7.1-11.9,15.3-17.3,22.4c37.3-3.4,72.7-7.4,108.3-9.3
	c13.6-0.7,22.3-5.1,26.4-17.7c10.1-30.9,32.5-51.1,60.9-63.1c20.9-8.8,28.5-21,24.6-42.6c-8-44.1,11.5-79,39-110.6
	c9.1-10.5,18.7-20.9,29.7-29.3c54.5-41.5,113-58,178.2-25.1c6.1,3.1,12.6,5.1,23.3,9.4c19.9-37.1,54-54.9,92.7-66.8
	c6.8-2.1,12.6-12.9,15.7-21c20.4-51.9,59-82.2,111.9-94.8c69.6-16.7,166.1,10.5,182.1,119c1.7,11.2,3.6,22.5,5.1,32.2
	c18.5,7.9,38.2,10.9,49.6,22.2c24.3,24.2,45.7,18.7,71.2,4.1c22.8-13,48.1-16.6,74-7.8c48.8,16.6,84.3,47.4,102.9,96.2
	c3.2,8.4,6.6,16.7,10.2,25.7c7.4-1.3,13.1-1.9,18.6-3.4c85.5-24.1,152.3,2.2,198.3,78.2c5.7,9.4,11.5,18.8,15.8,25.9
	c23.3-9.5,41.9-19.4,61.8-24.6c60.6-15.9,123,12.9,153,68.8c29.3,54.6,18.5,118.8-26.7,158.7c-51.2,45.2-140.5,48-193.5,5.6
	C2685.3,1279.3,2675.4,1267.9,2662.2,1254.9z M2318.4,1154.3c-52.6,1.5-101.6,19.2-143.8,50.8c-68.7,51.5-54.2,162,23.8,198.1
	c36.2,16.7,74,26.5,113.3,30.3c81.6,8,149.1-45.5,159.4-125.5c9.7-75.1-41-138.7-120.4-150.9
	C2340.4,1155.6,2329.9,1155.3,2318.4,1154.3z M1982.5,1014.9c-0.7,63.7,8.4,78.2,55.6,92.5c35.3,10.7,72.6,15.5,107.4,27.4
	c37.7,13,66.2,0.4,89.8-25.9c29.4-32.6,51.3-70,38.3-116.5c-24.1-86.6-134.9-135.5-216.4-96.8
	C2000.7,922.6,1981.4,970.1,1982.5,1014.9z M1687.3,1589.5c43.1-6.8,93.6-23.5,141.7-46.2c46.3-21.9,60.5-67.1,39-113.8
	c-27.7-59.9-116.9-100.9-179.7-82.5c-4.4,1.3-8.8,3.1-12.8,5.4c-48.5,28-82,68.3-93.4,123.5
	C1568.5,1542.3,1609.7,1590.2,1687.3,1589.5z M2395.6,1119.7c27.9,19.5,58.6,33.8,78.9,57.1c20.3,23.3,30.3,55.6,46.3,86.7
	c39.4-1.1,77-13.6,108.2-41.9c33.2-30.2,49.9-67.4,34.5-112.2c-17-49.6-45.5-90.2-102.5-96.4
	C2496.2,1005.8,2412.2,1048.5,2395.6,1119.7z M1522,1097.9c-11.9,4.1-36.5,8.4-56.7,20.3c-35.6,21-38.3,52.9-10.8,83.7
	c28.1,31.5,49.4,66.8,61.9,107.2c13.1,42.2,57.3,57.4,93,32c14.2-10.1,27.9-20.8,42.2-30.5c23.1-15.7,30.1-37.8,24.1-63.7
	c-5.2-22.5-11.1-45.1-19.7-66.5C1634.3,1125.9,1591.3,1101.5,1522,1097.9z M1957.1,1237.4c-17.3,3.5-35.9,5.5-53.1,11.3
	c-24.6,8.3-45,23.3-57,47.6c-12.4,25.1-9.5,35,10.7,54.2c15.7,14.9,33.5,30,43,48.7c24.7,48.3,67.7,60,115.1,62.8
	c33,1.9,57-16.8,69-47.6c29.5-76-1.6-142.7-78.9-167.5C1990.7,1242,1974.4,1240.7,1957.1,1237.4z M1680.4,1124.4
	c45.9-25.8,81.7-85.6,82.7-135.2c1.1-56.9-52.1-105.7-108.9-99.9c-56.6,5.8-112.9,53.2-127.2,108.4c-4.2,16.1-12.2,32.9-1.4,53.1
	C1587.6,1051.5,1640,1077.3,1680.4,1124.4z M1382.5,1405.5c24.4-6.2,50.1-9.2,72.7-19.2c30.1-13.3,35.4-37.9,19-65.7
	c-17-28.8-34.2-57.5-51.4-86.2c-14-23.3-34-38.1-61.6-39.3c-28.2-1.3-55.4,3.9-80.1,18.2c-56,32.3-63.1,104.5-13.9,145.8
	C1299.9,1386.6,1337.2,1404,1382.5,1405.5z M906.2,1628.3c-60.9-0.2-89.1,26.1-93.2,86.8c-0.5,6.9-0.5,13.8-0.2,20.8
	c1,29.1,15.4,50.1,39.9,64.8c38.7,23.1,105.2,19.3,141.9-7.3c19.7-14.3,28.1-33.3,26.5-56.8C1017.7,1685.5,969,1625.2,906.2,1628.3z
	 M1797.3,1054.3c48.3,4.7,93.6,9.1,140.8,13.6c0.5-5.6,1.7-11.2,1.3-16.6c-2.7-45.7,4.9-89.6,23-131.7c12.5-29,7.2-43.3-20.9-58.7
	c-37.4-20.5-96.7-14.4-131,13.4c-21.6,17.4-24.9,26.8-15.4,54c10.2,29.2,10.9,58.8,6.9,88.9
	C1800.4,1029.6,1798.8,1041.9,1797.3,1054.3z M1947.4,1189.7c-7.7-34.9-24.4-57.3-50.1-72.7c-57-34.1-132.2-17.4-177,37.8
	c-11.2,13.8-14.2,26.6-9.4,44.5c5.8,21.9,6.6,45.2,9.3,68c1.1,8.9,1.5,17.8,2.4,28.1c26.4,5.5,50.6,10.5,77.5,16.1
	C1819,1234,1874.7,1203.6,1947.4,1189.7z M1211.4,1550.9c54-0.5,89.3-23.3,101.5-64.4c8.1-27.4,2.6-43.9-20.9-59.5
	c-22.1-14.7-44.2-29.5-67.1-43c-37-21.8-85.8-8-111.9,30.7c-27,40-19.6,85.6,17.7,113.5C1155.4,1546.6,1184.1,1548.5,1211.4,1550.9z
	 M2795.4,1096.9c-45.6-0.1-64.2,13.4-78.5,56.5c-5.1,15.3-9.9,30.9-16.7,45.5c-8.4,17.9-2.4,30.3,10.8,42.7
	c39.9,37.5,106.1,42.2,150.3,10c19-13.8,28.9-31.9,29.8-55.7C2893.2,1137.8,2854.1,1097,2795.4,1096.9z M1346.5,1527.9
	c-5.8,2.8-8.6,3.2-9.9,4.9c-26.6,36.3-61.6,58.1-106.8,63.6c-6.6,0.8-15.5,7.2-18.1,13.2c-15.8,36.3,11.6,96.9,54.6,91.1
	c24.8-3.4,49.8-9.2,73.1-18.1c30.2-11.6,48.7-34.5,49.6-68.7C1390,1578,1378.8,1548.4,1346.5,1527.9z M1908.5,801.3
	c39.7,10.7,77,25.6,94.4,63.9c32.8-10.1,61.4-18.8,89.8-27.8c19.5-6.1,23.5-13.5,18.8-33.7c-9.1-39.6-46-74.1-84-78.5
	c-45.9-5.3-100.4,22.3-116.8,59.6C1909,788.7,1909.4,793.6,1908.5,801.3z M2299.4,1107.7c38.3,11.6,45.4,7.6,63.2-22.3
	c14.1-23.5,32.5-44.4,48.3-66.9c5.6-8,13.1-17.5,13-26.3c-0.5-35.4-38.5-81.1-71.9-89.7c-28.9-7.4-49.5-0.4-66.1,22.9
	c14.2,28,37.6,54.2,32.9,88.7C2314.4,1045.7,2305.9,1076.7,2299.4,1107.7z M1562.5,1395.1c-32.3-11.9-35.1-13.4-47.4,0.7
	c-33.3,38.3-76.3,48.9-124.3,48.9c-10.4,0-23.1-4.4-31.5,6.9c36.9,70.6,97.6,73.6,145.8,62.8c9.1-2,21.6-8.5,24.4-16
	C1541.9,1465.3,1551.3,1431,1562.5,1395.1z M1982.7,1139.4c3.9,14.1,7.1,28.4,12,42c2.2,6,7,12.4,12.5,15.6
	c27.5,16,55.5,31,85.8,47.8c12.4-20.4,24.6-40.5,39.1-64.4C2079.8,1166,2032,1152.9,1982.7,1139.4z M1945.8,1092.6
	c-2.6,2.3-5.2,4.5-7.8,6.8c5.8,5.8,11.6,11.6,17.3,17.4c1.7-1.6,3.4-3.2,5.1-4.8C1955.6,1105.5,1950.7,1099.1,1945.8,1092.6z"/>
<path d="M3508.2,1216.7c-17.3,0.8-34.6,2.4-52,2.3c-49-0.3-89.3,20.3-125.7,50.8c-8.8,7.4-17.7,14.9-27,21.6c-9.6,7-21.1,8-27.1-2.8
	c-3.6-6.5-4.1-20.1,0.2-24.7c46.5-50.1,100.9-85.5,172.9-78.8c13.6,1.3,26.3,12.3,39.2,19.2
	C3495.4,1208,3501.6,1212.6,3508.2,1216.7C3508.1,1216.7,3508.2,1216.7,3508.2,1216.7z"/>
<polyline points="1199.2,3003 2634.3,2594 2675.6,2618.6 1209.4,3038.8 "/>
</svg>
