<?xml version="1.0" encoding="utf-8"?>
<!-- Generator: Adobe Illustrator 24.3.0, SVG Export Plug-In . SVG Version: 6.00 Build 0)  -->
<svg version="1.1" id="Layer_1" xmlns="http://www.w3.org/2000/svg" xmlns:xlink="http://www.w3.org/1999/xlink" x="0px" y="0px"
	 viewBox="0 0 4000 4000" style="enable-background:new 0 0 4000 4000;" xml:space="preserve">
<path d="M2128.5,775.4c32.3,6.1,61,10.9,89.4,17.1c105.3,23.1,204.8,60.1,290.4,127.7c92.7,73.2,157.6,167.1,201.1,276.1
	c21.4,53.6,38.4,108.6,43.1,166.6c1.1,13.3,6.6,20.7,19.5,24.7c13.1,4.1,25.7,10.1,38.2,15.8c14.1,6.4,23.6,17.4,27.2,32.4
	c13,53.7,26.1,107.4,38,161.3c4.3,19.7-5.9,36.5-25.5,43.7c-14.3,5.2-29.5,8.5-44.5,11.4c-12.5,2.4-17.3,8.2-18.8,21.4
	c-12.6,113.7-26.2,227.3-39.4,340.9c-22.6,193.7-45.4,387.3-67.7,581c-14.6,126.6-28.4,253.3-43.1,379.8
	c-16,137.2-32.9,274.4-49.1,411.6c-6.8,57.2-13.4,114.4-19,171.7c-2.4,25.1-12.1,45.3-30.9,62c-35.8,31.8-78.3,51.1-122.8,66.3
	c-152.2,52.3-309.5,69.1-469.6,65c-121.9-3.2-241.7-19.5-358.2-56.2c-49.2-15.5-96.6-35.1-138.7-66.1c-28.1-20.6-44.1-46-47.8-82.2
	c-13.7-135.2-29.4-270.1-45.2-405.1c-15.7-135-32.7-269.8-48.5-404.7c-13.6-116.6-26.1-233.4-39.6-350.1
	c-10.5-90.7-22.2-181.3-32.9-272.1c-8.9-75.5-16.6-151.1-25.6-226.5c-8.6-71.6-18.6-143.1-27.3-214.7c-1.3-11-5.9-16.3-15.8-19.4
	c-14.6-4.6-29.4-9.2-43.3-15.5c-28-12.7-32.7-24.3-25.7-54.8c9.7-42.6,21.1-85,28-128.1c6.2-38.9,27.9-60.2,64.3-68.4
	c15.5-3.5,22.1-10,25.2-26.8c21.9-120.9,63.4-234.1,140.5-331.6c96.1-121.4,221-197.5,371.3-232.4c61.4-14.2,123.7-22.9,186.8-25
	c19.5-0.7,19.9-1.6,23.6-20.7c19.1-97.9,38.4-195.8,57.3-293.7c4.9-25.6,8.3-51.5,13.5-77.1c1.9-9.7,1.3-18-3.4-26.5
	c-10.7-19.1-9.2-36.5,7.4-52c8.8-8.2,13.1-18.1,11.3-31c-3.9-28.2,5.6-42.4,32.7-51.8c4.3-1.5,8.7-2.8,13.8-4.4
	c1.1-4.4,2.3-8.7,3.2-13.1c4.6-21.1,12-29,34-30.4c14.7-1,26.6-5.9,37.3-15.4c16.3-14.6,33.6-19.6,54.8-8.7
	c7.4,3.8,17.9,3.4,26.7,2.4c86.9-9.9,173.7-21.1,260.7-30.5c89.3-9.6,178.8-17.4,268.2-26.2c31-3,48.3,5.1,59.9,34.6
	c16.3,41.2,18,83.8,2.8,126.1c-5.9,16.6-16.8,26.1-35.5,27.8c-56.6,5.2-113,11.3-169.5,17.3c-96.2,10.2-192.3,20.6-288.4,30.9
	c-6.9,0.7-13.8,1.9-20.6,1.9c-29.4-0.1-53.4,12.9-73.3,32.8c-6.2,6.2-7.2,17.6-10.8,26.6c-2.7,6.8-3.6,16.4-8.7,19.7
	c-13.4,8.7-16.4,21.4-19,35.2c-12.3,66.4-24.5,132.9-37.2,199.2c-6.6,34.7-14.4,69.1-21.4,103.7
	C2130.3,757,2129.8,765.3,2128.5,775.4z M1324,2484.1c14.1,122.6,27.3,242.9,41.9,363c14.5,119.9,27,240.1,44,359.3
	c12.4,0,21.6,0.7,30.7-0.1c39-3.6,77.9-7.5,116.9-11.5c137.7-14.3,273.5-39.4,406.7-76.8c219.2-61.7,427.3-148.9,618.6-274
	c16.8-11,25.2-22.8,26.1-41.6c0.2-3.8,0.6-7.7,1-11.5c6.5-55.6,13.1-111.3,19.6-166.9c11.9-101.4,23.7-202.8,35.6-304.1
	c8.7-74.7,17.5-149.4,26.1-224.1c2.3-20.2,4-40.5,6.4-65.5c-208.9,135.7-429.1,235.5-661,309.3C1805,2413,1568.1,2462.1,1324,2484.1
	z M2739.9,1667.1c-505.2,102.3-1007,101.9-1511.6-2c31,263.5,61.9,526.1,92.7,787.2c4.2,1.7,5.7,2.9,7.1,2.8
	c9.2-0.8,18.3-1.9,27.4-2.8c106.2-10.3,211.7-25.9,316.3-47.2c198.9-40.5,393.6-95.4,581.3-173.2
	c147.8-61.3,290.2-133.1,424.1-221.2c14.7-9.7,26-18.3,28.1-38.1c8-75.5,18.1-150.9,27-226.3
	C2735.3,1720.5,2737.3,1694.7,2739.9,1667.1z M1257.1,1408.6c3.7,1.7,6.3,3.6,9.2,4.2c43.5,9.2,87,18.5,130.7,27.1
	c87.5,17.1,176,27.2,264.7,34.6c60.4,5,121.1,8.2,181.7,11.1c129.8,6.1,259.6,5.5,389.2-4.4c70.4-5.4,140.6-13.1,210.9-20.6
	c84.1-8.9,166.7-26.1,248.7-46.1c18.9-4.6,21.6-8.3,17.6-27.8c-8.5-42.1-14.8-85-27.9-125.7c-56.7-177.2-163.8-310.9-339.6-383
	c-29.6-12.2-59.2-24.8-91.6-28.3c-1.7,2.8-3.6,4.6-3.8,6.6c-2.3,24.6-17.5,38.6-39.2,46.4c-19.5,7-39,14.2-59.2,18.7
	c-75.5,17.1-152,20-229,12.3c-42.9-4.3-85.3-11-125.8-26.4c-29.7-11.3-57.2-24.6-58.1-62.3
	C1472.4,898.6,1278.7,1130.6,1257.1,1408.6z M2600.8,2867.7c-13.4,7.4-22.8,12.2-31.7,17.6c-28.9,17.5-57,36.4-86.5,52.7
	c-78.7,43.3-160.2,80.9-243.4,115c-96,39.4-194.1,72.8-294.4,98.7c-169.7,43.8-341.8,74-517.1,83.2c-5,0.3-9.9,2-15.8,3.3
	c11.6,102,23.7,202.5,34.1,303.2c2.4,23,12.5,38.2,30.7,50.7c37,25.4,76.9,44.7,119.6,58.1c89.7,28.3,181.6,44.5,275.3,51.6
	c158.2,12,314.4,1.3,468-39.8c56.6-15.1,111-35.5,159.8-69c12.9-8.9,20.4-19.8,22.2-35.6c13.6-118.9,27.6-237.8,41.4-356.7
	c10.4-89.9,20.9-179.9,31.2-269.8C2596.5,2911.4,2598.3,2892,2600.8,2867.7z M2800.1,1468.4c-8,2.1-12.4,3.2-16.7,4.5
	c-81.7,24.4-164.2,45.3-248.6,57.8c-61.4,9.1-123.1,17.3-185,22.7c-84.1,7.4-168.3,14.5-252.6,17c-195.2,5.9-390-1.7-583.9-27.1
	c-92.2-12.1-183.6-27.6-272.8-54.6c-23.2-7-46.7-13.2-71.8-20.3c-10.2,45.3-20,88.3-30.4,134.5c39.8,12.3,78,26.1,117.2,35.9
	c99.1,25,200,41.5,301.6,51.8c87,8.8,174.4,16.8,261.7,19.8c106.6,3.7,213.6,5.4,320.1,1.5c154.2-5.6,307.9-20.2,459.8-48.8
	c71.6-13.4,143-28.2,211.6-53.6c17.9-6.6,18.8-8.3,14.8-26.7c-5-22.5-9.5-45-14.5-67.5C2807.6,1500.5,2804.1,1485.7,2800.1,1468.4z
	 M1961.9,868.5c37.2,0,70.5,0,103.1,0c15.2-55.9,80.3-430.5,78.5-453.6c-13.8-3.9-28.5-7.7-42.9-12.4c-14.9-4.9-29.6-10.7-46.5-16.9
	C2025.5,547.6,1985.4,705,1961.9,868.5z M2257,290c11.7-2.1,20.6-4.1,29.6-5.1c41.9-4.9,83.7-10.2,125.6-14.3
	c99.2-9.6,198.4-18.6,297.6-28c10.3-1,20.5-2.9,28.4-4.1c-2.9-34-5.5-64.8-8.2-95.9c-167.6,16.4-335.5,28.7-504.8,52
	C2236.1,227.2,2246.2,257.5,2257,290z M2777.6,1445.3c0.3-2.1,0.6-4.3,0.8-6.4c-9.1-3.7-17.9-8.4-27.3-10.7c-5-1.2-11.4,0.9-16.6,3
	c-11.2,4.4-21.6,11.6-33.2,14.3c-89,20.9-179.1,35.9-269.7,46.9c-131.9,16-264.4,25.5-397.3,26.7c-227,2-452.7-13.6-676.1-55.1
	c-41.1-7.7-83.5-12.8-120.5-35.9c-13.9-8.7-36.5,0.6-46.7,17.4c34.3,9.6,68,20,102.2,28.2c83.6,20.2,168.4,33.1,253.8,44
	c120.6,15.3,241.6,21,362.9,24.8c104.4,3.3,208.9,0.7,313.1-7.4c77.2-6,154.5-12.4,231.3-22.4c64.5-8.4,128.6-21.1,192.4-34.1
	C2690.7,1469.4,2733.9,1456.5,2777.6,1445.3z M1925.3,829.2c-0.3-1.8-0.6-3.7-0.9-5.5c-12.1-0.4-24.3-2.2-36.2-0.9
	c-31.3,3.2-62.5,6.8-93.5,12.1c-10.2,1.8-26.6-0.7-28.7,13.4c-2.1,13.7,12.3,19.6,22.2,26.6c1.2,0.9,2.7,1.6,4.1,2
	c30.9,8.6,61.4,19.6,92.9,25.2c54.7,9.8,110.2,6.8,165.4,4.8c43.1-1.6,85.2-10,126.2-23.4c11.5-3.8,22.6-9.8,32.7-16.4
	c5.1-3.3,11.1-10.8,10.5-15.7c-0.5-4.5-8.7-10.5-14.4-11.8c-25.4-5.6-51.1-10.1-76.8-14.4c-8-1.3-15.3,1-16.1,12.3
	c2.3,1.6,4.5,3.5,7.1,4.8c11.3,5.9,26.5,9.3,23.7,26.5c-2.5,15.4-17.3,15.8-28.8,18.7c-58,14.9-117.2,13.9-176.2,9.8
	c-22.7-1.6-45-9.1-67.4-14.1c-2.9-0.7-6.7-1.7-8.2-3.8c-4.2-5.9-10.1-12.4-10.2-18.7c-0.1-4.7,7-11.6,12.4-13.9
	c10.4-4.5,22-6.3,33.1-9.4C1907.3,834.8,1916.3,831.9,1925.3,829.2z M2178.4,385.9c-13.2-22.5-85.6-74.6-111.7-82.7
	c-5.3,6.8-11.2,13.7-16.4,21.1c-11.5,16.3-11.4,22.2,6.9,29.8c29.6,12.2,60.3,21.9,90.9,31.5
	C2156.3,388.1,2165.8,385.9,2178.4,385.9z M2068.8,265.3c2.4,3.7,3.1,6.2,4.8,7.2c32.9,21.2,65.8,42.4,99,63.1
	c4.5,2.8,10.4,3.1,15.7,4.6c1.1-1.5,2.3-3.1,3.4-4.6c-24.3-36.6-48.5-73.2-73-110C2096.7,255.4,2096.7,255.4,2068.8,265.3z
	 M2187.3,185.6c-16.7,9.9-32,19-48.4,28.8c9.4,12,17,21.5,24.4,31.1c13,17,25.6,34.3,39.1,51c5.3,6.6,10.8,15.6,22.1,10.7
	C2226.2,287.4,2205.6,219.4,2187.3,185.6z M2759.3,180.6c1.7,11.9,3.1,25.5,5.6,38.9c1.4,7.4,4.2,16.9,13.9,14.1
	c4.5-1.3,9-9.8,9.6-15.5c1.4-12.8,1-25.9,0-38.8c-0.8-9.8-2.7-19.7-6.1-28.9c-1.3-3.7-7.5-7.1-11.9-7.6c-2.5-0.3-7.4,5.2-8.2,8.8
	C2760.4,160.4,2760.3,169.7,2759.3,180.6z M1918.6,871.8c-0.1-1.7-0.2-3.4-0.3-5.1c-3.9,0.9-7.7,1.8-11.5,2.9
	c-0.1,0,0.4,3.4,0.6,3.4C1911.1,872.7,1914.8,872.2,1918.6,871.8z"/>
<path d="M2317,2728c-44.8-0.3-80.2-35-79.8-78.2c0.4-43.2,34.9-78.5,76.9-78.6c45.3-0.1,80.2,34.9,80,80.2
	C2393.8,2696.3,2361.7,2728.3,2317,2728z"/>
<path d="M1673.2,2729.6c-42-0.2-78.2-36.3-77.9-77.7c0.4-44.3,34-79.4,75.9-79.1c45.2,0.3,81.8,36.5,81,80
	C1751.4,2694.4,1715,2729.8,1673.2,2729.6z"/>
<path d="M1996.5,2846.5c-53.8,0.1-97.5-34.4-108.1-83.1c-1.3-5.9-2.8-12.7-1-18c1.6-4.9,6.8-10.1,11.7-12.2c7-2.9,11.1,3,13.4,9.1
	c3.2,8.6,5.7,17.5,9.3,25.9c14.9,34.3,42.1,51.2,77.9,48.9c38.7-2.5,65.7-23.3,76.2-58.7c1.7-5.9,2-12.6,5.2-17.5
	c2.8-4.3,8.6-8.9,13.4-9.1c7.2-0.4,12.9,4.6,12.8,13.1c-0.1,4.6-0.3,9.2-1.2,13.7c-8.7,47.4-42,79-89.9,85.5
	C2008.6,2845.2,2000.9,2846,1996.5,2846.5z"/>
<path d="M2278.3,1298.7c-38.7-0.1-65-26.5-64.8-65c0.2-37.6,30.4-68,66.9-67.3c35.2,0.7,64.1,30.2,63.7,65.2
	C2343.8,1271.5,2317,1298.8,2278.3,1298.7z"/>
<path d="M1632,1233.5c0.7-36.9,28.6-64.5,63.5-64.8c38.1-0.4,65.3,37,64.9,67.4c-0.5,37.4-28.7,64.3-67,63.3
	C1656.6,1298.5,1631.4,1271.5,1632,1233.5z"/>
<path d="M1331.9,1303.3c4.6-16.7,7.5-30.2,12-43.2c31.8-92.3,80.9-173.6,152.9-240.2c3.9-3.6,7.9-7.3,12.2-10.4
	c6.1-4.5,12.6-6.2,18.5,0.4c6.5,7.3,1.3,11.9-3.7,17.4c-25.9,28.3-53,55.5-76.7,85.6c-42.2,53.7-69.6,115.3-90,180.2
	c-1.2,3.7-1.9,7.5-3.2,11.1c-2.1,5.9-4.7,13-12.5,9.6C1337.1,1311.8,1334.4,1306.1,1331.9,1303.3z"/>
<path d="M2640.1,1361c-0.3-4.5-0.1-9.2-1.1-13.6c-17.8-77.1-39.5-152.8-83.5-220c-9.2-14.1-19.5-27.4-29.4-41.1
	c-4.3-5.9-7.8-11.7-0.6-18c7.4-6.4,13.2-2.1,17.6,3.4c12.3,15.6,25.2,30.9,35.9,47.6c35.3,55.4,59.3,115.7,74,179.6
	c3,13.3,3,27.3,4.8,40.9c0.9,6.7,2.8,13.3,4.1,19.9c1.2,5.9,4.2,12.6,2.5,17.6c-1.5,4.4-8.1,8.7-13.1,9.5c-3.3,0.6-9.5-4.3-11.1-8.1
	c-2.2-5.3-1.3-11.9-1.7-17.9C2639,1361.1,2639.6,1361.1,2640.1,1361z"/>
<path d="M1911.9,1239.9c3,8.1,6.4,15.5,8.6,23.3c9.5,33.9,33.2,53,66,52.7c37.2-0.3,62.6-20.2,71.3-55.7c0.7-3,1.5-5.9,2-9
	c1.2-6.3,3-13.9,10.7-11.5c5.4,1.7,11.5,7.6,13.2,12.9c2,6,0.2,13.6-1.2,20.3c-12.6,58.8-79,88.6-136.3,61.4
	c-30.1-14.3-46.8-38.5-51.4-71.2C1893.4,1252.8,1894.2,1243,1911.9,1239.9z"/>
<path d="M1606,937.6c5,4.3,9.8,6.4,11,9.8c1.2,3.5,0.5,10.5-1.9,12.1c-13.8,9.2-28.2,17.7-42.9,25.3c-2.4,1.3-8.6-1.8-11.1-4.6
	c-1.6-1.8-1.2-8.6,0.7-10C1576,959,1590.7,948.6,1606,937.6z"/>
<path d="M2463.3,994.7c1.1,0.3,3.7,0.3,5.4,1.5c9.6,7.3,19.4,14.5,28.1,22.8c2.2,2.1,2.8,9.7,0.9,11.7c-3,3.1-10.9,6.4-12.9,4.8
	c-10.5-8.4-20.5-17.7-29.3-27.9C2450.8,1002.1,2455.3,995.1,2463.3,994.7z"/>
<path d="M1319.8,1357.6c2.4-2.2,6.6-9,12.4-10.9c7.2-2.4,13.9,7.6,13.1,17.2c-0.9,10.1-7.4,17.7-14.6,17.3
	C1322.7,1380.7,1318.3,1373.4,1319.8,1357.6z"/>
</svg>
