<?xml version="1.0" encoding="utf-8"?>
<!-- Generator: Adobe Illustrator 24.3.0, SVG Export Plug-In . SVG Version: 6.00 Build 0)  -->
<svg version="1.1" id="Layer_1" xmlns="http://www.w3.org/2000/svg" xmlns:xlink="http://www.w3.org/1999/xlink" x="0px" y="0px"
	 viewBox="0 0 4000 4000" style="enable-background:new 0 0 4000 4000;" xml:space="preserve">
<path d="M1711.9,767.3c-2.2-19.1-4.7-36-6-52.9c-5.3-67.1,14.3-126.3,59-176.4c50.4-56.5,113.8-72.2,186.5-55.3
	c5.3,1.2,10.4,2.8,15.7,4.1c0.7,0.2,1.5-0.2,4.4-0.5c1.7-6.5,4.1-13.8,5.5-21.2C1997,355.8,2050,266,2136.6,196.4
	c11.4-9.1,24.3-16.9,37.6-23c14-6.5,24.2-2.7,33,8.5c10.3,13,9.7,23.5-2.6,34.6c-5.2,4.7-11,8.7-16.8,12.6
	c-83.1,55.2-133,133.5-159.4,228.2c-3.3,11.7-5.9,23.6-9.4,38.2c9.8-1.1,16.5-1.6,23.2-2.5c68.6-9.7,133.2,21.6,167.5,81.9
	c31.4,55,41.7,113.4,26.2,175.5c-0.6,2.2-0.9,4.6-1,6.9c-0.1,1.5,0.5,3,1.1,6.6c5.1,2.5,11.1,5.7,17.4,8.5
	c173.8,78.6,276.1,211.8,305.6,400.5c0.6,3.8,1.4,7.8,1,11.6c-1.5,16.5,6.4,26.3,19.3,36.5c44.3,35,62.3,82.1,57,138.1
	c-2,20.5-2.3,20.8,16.2,30.1c49,24.6,94.6,54.3,132.5,94.1c77.9,81.7,120.5,180,135.3,291.2c5.2,39.6,5.6,79.1,1.4,118.8
	c-1.4,13.4,0.3,24,13,31.9c32.8,20.3,49.7,51.2,53.8,88.6c4.4,40.3,4.2,80.8-3.8,120.9c-6.9,34.7-25.7,61.4-56.1,79.6
	c-12,7.2-24.2,14.3-37.1,19.5c-13.2,5.3-18.7,14.3-21.5,27.7c-60.5,288.5-121.4,576.9-182.1,865.3c-19.4,92.1-41,183.8-56.4,276.6
	c-12.8,77.4-56.6,126.7-122.2,162.9c-75.9,41.8-158.1,64.9-242.1,82.2c-99.3,20.5-200.1,29.8-301.5,27.1
	c-149.5-4-295.9-26.2-435.3-83.3c-39.8-16.3-76.9-37.1-110.7-64.1c-33.8-26.9-54.5-61.3-63.4-103.2
	c-48.9-231.3-97.6-462.7-146.8-694c-32.2-151.4-64.9-302.7-97.4-454c-1.1-5.3-2.7-10.6-3.1-16c-0.8-14.3-9-21.6-21.5-27.5
	c-16.8-7.9-33.1-17.3-48.8-27.2c-25.5-16-42.5-38.9-48.9-68.4c-10.4-48.3-15.1-97-2.4-145.6c2.8-10.8,8.7-22.1,16.4-30
	c9.2-9.3,10.2-17.5,6.8-29.1c-12.6-43.6-19.7-88.4-18.2-133.7c5.2-158.1,67.9-287.2,197.1-381.3c19.4-14.1,40.5-26,61.6-37.6
	c11.2-6.2,17.1-13.6,19.8-26.4c11.8-56.3,41-100.9,93.6-126.5c17.6-8.6,23-20.1,24.6-37.9c10.7-117.7,58.9-218.3,141.3-302.4
	c46.2-47.1,101-82.7,160.7-110.5C1697.5,773.9,1703.8,771.1,1711.9,767.3z M1164.6,2241.6c0.5,9.5,0.1,14.9,1.2,20
	c8.3,41.2,16.6,82.3,25.3,123.4c46.6,219.1,93.4,438.1,140,657.2c25.1,117.9,51.2,235.6,74.3,353.9c8.1,41.6,25.8,74.3,60.3,98.2
	c7,4.9,13.9,10,21.2,14.4c45.5,27.7,94.9,45.8,145.6,61.6c98,30.5,198.4,45.8,300.5,49.8c81,3.2,161.6-1.7,242.1-12.3
	c85.3-11.2,168.1-31.1,248.2-61.8c41.7-16,79.9-37.9,113.7-67.7c18.4-16.2,29-35.3,34-59.3c26.1-126.4,52.9-252.6,79.7-378.8
	c30.9-145.2,62.3-290.3,93.3-435.5c24.5-114.8,48.9-229.6,73.2-344.4c1.3-6.3,0.9-12.9,1.3-20.4c-6.9,1-10.8,1.1-14.5,2.1
	c-17.9,5-35.8,10.4-53.7,15.4c-153.5,42.7-310.8,62.1-469.1,73.8c-69.8,5.1-139.9,7.3-209.9,8.5c-169.7,2.9-339.1-2.7-508-20.9
	c-120.9-13-240.1-34.2-357.3-66.3C1193.2,2249.2,1180.6,2245.9,1164.6,2241.6z M1747.5,811.8c-28.1,14.4-55,26.7-80.4,41.5
	c-141.4,82.4-215.9,206.6-226.6,369.1c-1.4,20.6-8.3,32.9-27.3,41.1c-26.9,11.5-49.1,29.8-66.9,53.2c-41.8,55-36.3,113.9,14.9,159.4
	c1.7,1.6,3.4,3.3,5.2,4.7c20.1,15.2,29.1,36.3,30.8,60.5c0.9,13.9,1.1,28.3-1.6,41.8c-8.1,39.6-17.7,78.9-27,118.3
	c-12.2,51.6-24.5,103.3-21.3,156.7c1.2,20.5,7.2,41.2,13.8,60.9c5.9,17.8,21.5,26,39.8,28c23.1,2.6,47.5-10.5,56.1-33.5
	c6.1-16.5,10.5-34.7,10.4-52.1c-0.2-35.7-3.3-71.4-6.5-107c-3.6-40.3-8.8-80.5-2.2-121c5.9-36.2,17.9-69.7,46.5-94.3
	c25.5-22,55.9-28,87.4-16.9c31.1,11,44.7,37.2,49.2,68.3c1.4,9.9,1.4,20.3,0.3,30.2c-1.9,17-5.7,33.7-7.9,50.7
	c-4.6,36.2-9.7,72.4-12.4,108.8c-1,14.3,2.8,29.4,6.9,43.4c3.4,11.3,11.5,20.6,24.8,21.9c13.2,1.2,23.5-5.6,28.6-16.6
	c7.8-16.8,15-34.3,19-52.2c7.9-35.2,5.4-71.1,3.3-106.9c-1.4-23.8-1.1-48.3,2.6-71.7c3.9-24.1,20.7-40.8,45.1-45
	c53.7-9.1,88.6,2.4,106.4,50.7c1.6,4.4,3.1,9.3,6.1,12.5c8.4,8.9,17.2,17.5,26.6,25.3c7.7,6.4,14.4,3.3,19.5-4.5
	c8-12.4,15.8-25,24.2-37.1c33.3-47.8,71.5-90.2,126.4-114.4c19.9-8.8,39.1-19.1,58.5-29c28.7-14.6,58.2-25.1,90.9-27.3
	c28.7-1.9,56.5-9.2,83.6-19.8c20.1-7.9,41.6-12.7,63-16.4c58.8-10.3,117.8-7.6,176.7-0.7c40.3,4.8,44.6,2.1,48.3-38.1
	c3.4-37.3-3.4-74.4-39.2-93.2c-29.3-15.4-39.6-36.4-38.6-66.7c0.1-1.5-0.3-3.1-0.5-4.6c-24.1-179.1-119.4-303.4-286.7-372.1
	c-17.5-7.2-18-6.9-27.4,9.6c-16,28.1-36.1,52.6-62,72c-58.2,43.6-124,56.7-194.5,44.8c-74.7-12.7-136.2-47.3-175.1-115.3
	C1755.9,823.7,1752.6,819.4,1747.5,811.8z M2080.9,2148.3c71.4-4.3,138.9-8.2,206.4-12.4c101.8-6.4,202.7-19.6,302.9-38.1
	c84.1-15.5,167.9-33,247.4-65.4c21.4-8.7,41.8-20.5,61.3-33c14.3-9.2,13.9-18.8,1.4-30.2c-6.8-6.2-15-11.1-22.8-16.1
	c-13.8-8.8-20.9-20.5-17.8-37.2c1-5.3,1.2-10.8,2.2-16.2c17.5-97.9-0.3-190.4-44.2-278.4c-42.3-84.8-111.6-142.2-193.6-186.1
	c-15.9-8.5-31.3-16.8-50.5-10.3c-5.5,1.9-12.3,0.1-18.5-0.3c-30.3-2-60.5-4.9-90.8-5.9c-57-1.9-113.1,1.4-167.3,23.3
	c-23.3,9.4-49.6,12.3-74.8,16.1c-25.4,3.9-50.8,6.8-74,19.1c-30.9,16.4-62.1,32.3-93.2,48.2c-26.8,13.7-49.6,32.3-67.4,56.4
	c-19.9,26.9-38.2,54.9-58.3,81.6c-19.6,26-32,55-40.6,85.9c-17.1,61.5-23.9,123.8-10.7,186.8c4.9,23.3,2.1,40.2-21.2,52
	c-16.7,8.5-25.7,24.5-28.2,43.4c-4.1,30.5,4.8,57,26.5,78.7c8.2,8.2,18.7,14.2,26.5,22.7c11.8,12.6,26,15.5,42.2,15.4
	C1977.3,2148.1,2031,2148.3,2080.9,2148.3z M1068.2,2001.1c8.4,4.8,13.5,8.5,19.1,10.9c53.4,23.5,107.3,46.1,164.6,58.1
	c75.3,15.7,150.8,30.7,226.7,43.4c116,19.4,233.4,25.2,350.6,32.7c4.7,0.3,9.5-1.6,17.3-3.1c-8.3-9.6-14.5-16.4-20.4-23.5
	c-35.4-42.5-40-103.7-3.9-141.1c21-21.8,28.4-41.4,20.3-68.8c-0.2-0.7-0.1-1.5-0.1-2.3c-4.8-74.2,5.6-145.8,35.9-214.1
	c2.4-5.5,4-11.4,6.6-19.3c-27.7-12.3-46-33-54.7-60.9c-8.4-27-32.4-37.9-64-31.6c-22.1,4.4-30.9,14.2-31.4,36.8
	c-0.5,22.5,1.5,45.1,1.5,67.6c0,25.6,0.6,51.4-2,76.9c-3.4,32.7-10.8,64.7-32.8,90.9c-27.8,33.2-77.3,28-97.3-10.4
	c-4.3-8.2-7.3-17.2-9.6-26.2c-6.4-25.2-7.1-50.9-2.9-76.4c5.9-36,13.7-71.8,18.4-108c2.3-17.4,1.7-35.9-2-53
	c-5.1-23.5-21.5-32.5-45.3-30.6c-20.8,1.6-37.6,10.3-48.6,27.9c-6.9,11.1-13.3,23-17.3,35.4c-9.4,29.2-11.5,59.3-8.4,89.9
	c4.7,46.4,9.8,92.8,12.1,139.4c1.7,33.7-5.1,66.6-22.9,96.3c-9.2,15.3-22.1,25.6-38.6,32.1c-37.1,14.8-88.7,0.6-108.2-43
	c-15.1-33.9-19.4-69.3-14.5-105c6.1-44.5,15.8-88.6,24.8-132.7c8.1-39.5,18-78.7,26.2-118.3c6.4-30.9-0.7-56.9-29.7-74.3
	c-20.1-12.2-32.2-31-40.4-52.7c-2.4-6.2-5.8-12-8.7-17.7c-4.6,0.8-7.1,0.7-9.1,1.7c-83.9,43.7-149.6,105.6-190.1,192.1
	c-46,98.3-55,199.9-25.8,304.7C1070.6,1949.6,1081.1,1973.8,1068.2,2001.1z M1037.9,2018.7c-1.7,31.8,0.3,62.4,3,93.1
	c2.5,28.6,16.8,48.4,42.2,59.5c39.1,17,78.1,35,118.6,48.1c99.4,32.1,202.1,49.4,305.6,62.8c148.4,19.1,297.5,27.5,446.8,29.5
	c165.8,2.2,331.3-6.7,495.9-27.4c102.6-12.9,204.5-30.2,304-59.1c48.7-14.2,95.4-32.9,139.7-57.9c22.3-12.6,34.2-31.2,36.1-56.2
	c1.9-24,3.2-48.1,4.3-72.2c0.2-4.9-1.5-10-2.6-16.7c-6.1,2.6-10.6,3.7-14.2,6.1c-29.9,20.3-62.8,34.1-96.9,45.2
	c-159.2,51.7-323.5,76-489.6,89.9c-71.3,5.9-142.8,8.9-214.3,11.4c-258.8,8.9-516.3-3-771-53.4c-70.2-13.9-140.3-28.7-207-55.3
	C1105.6,2052.9,1074.1,2035.9,1037.9,2018.7z M1976.6,918.1c16.1-2.3,32.4-3.7,48.3-7.1c123.6-26.4,198.2-164.8,152.7-282.9
	c-25.3-65.6-80.6-96.2-148.6-79.9c-24.2,5.8-44.7,3.5-67.1-7.5c-50.4-24.7-106.1-13.8-146,25.6c-56.4,55.9-72.8,143.4-41.3,220.6
	C1806.3,864.5,1886.6,916.1,1976.6,918.1z"/>
<path d="M2268,2838.7c0.1-46.7,38.7-87,83.1-86.8c47.5,0.2,85.3,38.9,84.9,87c-0.3,46.9-38.3,85.6-84,85.6
	C2306.9,2924.5,2267.9,2884.6,2268,2838.7z"/>
<path d="M1710,2839.8c-0.2,46.8-36.5,84.9-81.2,85.1c-48.1,0.3-86-37.3-86.1-85.5c-0.1-45.2,40.6-86.9,84-86.1
	C1672.5,2754.2,1710.3,2793.4,1710,2839.8z"/>
<path d="M1402.4,2965c-29.5-140.1-58.5-277.5-87.2-415c-1.5-7.3-1-15.1-1.4-22.2c20.6-4.9,22.6-4.3,26.7,14.6
	c8.8,39.5,17,79.1,25,118.7c18.2,89.9,35.7,179.9,54.7,269.7C1423.4,2946.4,1416,2953.8,1402.4,2965z"/>
<path d="M1989.2,3006.2c-57.7,0.6-106.7-42.6-111.2-98.2c-0.4-4.6-1.6-10.1,0.3-13.7c2.4-4.8,6.9-9.9,11.7-11.6
	c6.4-2.3,12,1.5,13.7,8.9c1.4,6.1,2.6,12.1,4.2,18.1c20.1,75,97.1,76.4,136.5,43.3c12.5-10.5,19.8-23.6,23.5-39.2
	c2-8.3,3.2-17,6.7-24.6c1.8-3.9,8.2-8.8,11.6-8.2c5.1,1,10.8,5.6,13.3,10.3c2.2,4.2,0.8,10.6,0.3,15.9
	C2093.6,2965.2,2048.2,3005.7,1989.2,3006.2z"/>
<path d="M1407.9,2997.1c25.5,12.2,34.4,30.8,38.6,55.5c10.3,60.4,23.6,120.3,35.7,180.5c0.6,3,1.4,6.1,1.8,9.1
	c1,7.4,0.7,14.5-8.1,16.8c-9.8,2.5-14.7-3.7-16.6-12c-4.7-20.4-8.7-41-13-61.5c-12.5-59.2-25.1-118.4-37.6-177.6
	C1408.2,3005.1,1408.3,3002,1407.9,2997.1z"/>
<path d="M1525.8,3434.3c-3.1,2.7-6.7,7.5-11.4,9.3c-7,2.6-12-1.7-13.8-8.6c-3.5-13.5-6.8-27.1-9.7-40.8c-4.1-19-7.8-38-11.7-57
	c-1.4-7.2-2-14,7.1-17c10.1-3.3,14.4,2.5,17.4,10.5c1.1,2.9,1.7,6,2.3,9C1512.3,3370.1,1518.7,3400.5,1525.8,3434.3z"/>
<path d="M1318.5,2459.9c-11.3,5.1-18.9,3.3-21.9-8.6c-2.6-10.5-5.5-21.1-5.9-31.8c-0.2-4.4,5.4-12,9.4-12.7
	c4.2-0.8,12.3,3.8,13.9,7.9C1319.6,2429.1,1322.2,2444.3,1318.5,2459.9z"/>
<path d="M1838,1423.5c-4.2-3.3-9-6-12.4-9.9c-26.1-29.8-59.9-36.9-97.2-32.9c-13.9,1.5-27.6,4.2-41.3,6.7
	c-19.1,3.4-34.3-0.7-46.6-17.6c-10.4-14.3-23.5-26.8-36.7-38.8c-25.9-23.6-56.9-30.4-91-25.1c-1.5,0.2-3,0.8-4.5,1
	c-7.7,1.3-16,3.3-20-6.2c-3.1-7.5,3.6-16.8,15.5-19.5c49.4-11.3,92,3.1,128.7,36.5c9.1,8.3,17.3,18,24.6,27.9
	c9.6,13.1,21.2,16.1,36.6,12.8c27.4-5.9,55.5-11.1,82.9-2.7c18.3,5.6,35.9,14.1,52.7,23.4c7.5,4.2,12.9,13.1,18,20.8
	C1854.1,1410.6,1851.3,1418.8,1838,1423.5z"/>
<path d="M2470.6,1269.6c-20.1,3.1-21.1,2-23-15.2c-3.2-30.1-4.6-60.6-10.9-90c-15.6-72.8-48.5-137.3-100.2-191.6
	c-2.1-2.2-5.4-4.2-6.2-6.8c-1.2-4-2.5-10.6-0.5-12.4c3.3-3,9.8-5,14-3.9c4.7,1.3,8.6,6.3,12.4,10.1c31.3,32,56,68.4,74.1,109.4
	c24.4,55.3,39.9,112.7,42,173.3c0.2,6.2,0.2,12.4,0.1,18.6C2472.3,1263.5,2471.5,1265.8,2470.6,1269.6z"/>
<path d="M1604.7,961.7c9.9,10,9.8,17.6,2.2,26.2c-49,55.2-75.3,120.8-88.1,192.6c-0.8,4.6-2.2,9.1-3.8,13.5
	c-0.7,2.1-2.4,3.9-3.9,6.1c-13.6,1.6-16.1-7-14.5-17.2c2.2-14.6,5.1-29.1,8.6-43.4c14.1-57.3,36.7-110.7,76.1-155.6
	C1588.3,975.9,1596.7,969.2,1604.7,961.7z"/>
<path d="M1614.7,949.4c5.5-5.9,10.5-12.4,16.7-17.6c13.6-11.4,27.5-22.4,41.7-33c4.1-3.1,9.6-5.8,14.5-6.1c3.7-0.2,9.2,2.8,11,6.1
	c1.7,3,1.1,10.4-1.2,12.1c-20.3,15.1-40.9,29.9-62.2,43.6c-4.2,2.7-11.5,0.4-17.4,0.4C1616.8,953.1,1615.8,951.3,1614.7,949.4z"/>
<path d="M2287.7,933.2c-7.1-8.7-13.3-14.2-16-21c-0.8-1.9,8.1-9.9,13.6-11.5c7-2,18.1,8.5,16.2,15.4
	C2300.1,921.4,2294.1,925.5,2287.7,933.2z"/>
<path d="M2631.9,1775.1c34.5-0.1,59.9,25,60.4,59.6c0.5,39.7-22.2,63.8-60.3,64c-33.4,0.2-61.7-28.9-60.8-62.9
	C2572.1,1804.2,2600.1,1772.5,2631.9,1775.1z"/>
<path d="M2052.8,1851.2c-0.4-36,23.9-62.5,57.7-62.9c35.8-0.4,63.9,26,64,60.1c0.1,33.3-28.8,61.7-63,62
	C2077.8,1910.7,2053.1,1885.8,2052.8,1851.2z"/>
<path d="M2623.1,1511.8c13.1-4.6,23.2,1.5,33.1,7.2c41.3,23.7,73.2,57.3,99.8,96.2c26.6,39,44.3,81.9,55,127.7
	c1.8,7.5,2.7,15.4,2.2,23c-0.2,3.2-5,8-8.4,8.6c-3.5,0.6-8.7-2.1-11.5-5c-2.4-2.4-2.6-7.1-3.4-10.9c-18.3-91.1-66-163.1-140.5-218.2
	C2639.3,1533.1,2626.2,1527.4,2623.1,1511.8z"/>
<path d="M2377,1980.6c-51.2-1.4-84-32.9-90.6-85.2c-0.9-6.8-1.7-14.8,7.4-17.2c9.8-2.6,13.9,3.4,16.4,11.9c2.6,8.9,5.1,18,8.8,26.5
	c11.4,26.5,36.3,39.7,68.6,36.9c27.5-2.3,47.1-18.8,54.4-46.1c1.6-6,1.5-12.9,4.6-17.9c2.8-4.4,8.9-9.1,13.8-9.4
	c7.7-0.5,12.6,5.5,12.5,13.7c-0.1,5.4-0.8,10.8-2.1,16C2458.9,1956.1,2425.9,1980.9,2377,1980.6z"/>
<path d="M2613.7,1501.8c-14.3,6.9-40,3.1-46.4-7.3c-2-3.3-2.4-9.7-0.4-12.7c1.9-2.9,8.4-5.3,11.7-4.3
	C2592.6,1481.9,2605.7,1488.3,2613.7,1501.8z"/>
<path d="M1129.4,1838.1c0-47.2,9.3-92.5,25.5-136.6c2.1-5.8,3.8-12.5,7.9-16.6c3.6-3.6,10.9-6.6,15.5-5.6c8.1,1.9,6,9.3,3.8,15.4
	c-4.2,11.7-9,23.1-12.7,35c-15.8,51.4-16.3,104-12,156.9c0.6,7,2.5,14,1.6,20.8c-0.6,4.3-4.7,11-7.9,11.4
	c-3.9,0.5-10.5-3.4-12.5-7.2c-3.4-6.7-5.1-14.7-5.8-22.3C1131.1,1872.2,1130.4,1855.1,1129.4,1838.1z"/>
<path d="M1233.6,1600.9c-11.3,30-19.5,39.1-38.7,43.1c-6-17.7,6.2-28.8,15.1-40.4C1215.8,1595.9,1217.1,1596.6,1233.6,1600.9z"/>
<path d="M1819.5,760.5c-12.7,4-18-1.5-19.7-9.9c-8.3-41.2-10-81.5,16.4-118.2c5.3-7.3,7.9-16.5,12.3-24.5
	c5.6-10,10.9-20.5,18.2-29.3c5.5-6.6,14.5-6.4,20.6,0.3c6.2,6.8,1.8,12.8-3.6,18c-1.1,1.1-2.1,2.6-3.4,3.2
	c-38.2,15.8-37.2,51.7-41,83.8c-2.5,20.5,0.5,41.7,1,62.6C1820.4,750.9,1819.8,755.5,1819.5,760.5z"/>
</svg>
