<?xml version="1.0" encoding="utf-8"?>
<!-- Generator: Adobe Illustrator 24.3.0, SVG Export Plug-In . SVG Version: 6.00 Build 0)  -->
<svg version="1.1" id="Layer_1" xmlns="http://www.w3.org/2000/svg" xmlns:xlink="http://www.w3.org/1999/xlink" x="0px" y="0px"
	 viewBox="0 0 4000 4000" style="enable-background:new 0 0 4000 4000;" xml:space="preserve">
<path d="M1573.9,546.1c-12.5-5.6-22.1-9.4-31.3-14.2c-19.3-9.9-31.3-25.5-31.4-47.5c-0.4-73.9-0.6-147.7,0.3-221.6
	c0.4-30.5,18.1-51.2,46-60.1c29.7-9.4,60.3-17,91.1-21.5c144.1-21.2,289.1-25.7,434.5-19.9c86.9,3.4,173.7,9.4,259.4,24.4
	c26.3,4.6,52.1,13.2,77.4,21.9c21.4,7.4,33.7,23.9,36,46.9c1.5,14.7,3.6,29.4,3.8,44.1c0.6,54.8-0.7,109.6,1.2,164.3
	c1.3,37.5-14.4,61.8-48.3,74.6c-12.6,4.8-17.1,11.2-16.6,24.9c4.7,121.1,20.4,240.8,46.2,359.1c28.4,130.6,78.1,253.8,134.1,374.8
	c66.8,144.4,130.5,290.1,167.9,445.7c16.5,68.6,26.8,138.2,34,208.3c23.8,231.5,23.4,463.6,15.3,695.8
	c-4.8,136.4-12.2,272.7-21.5,408.9c-7.3,107.5-18.2,214.8-29.9,321.9c-3.5,31.6-12.5,63.3-24,93c-21.7,55.8-62.9,94.9-116.4,121.4
	c-66.9,33.2-138.8,49.7-211.4,63.7c-170.1,32.7-342.1,34.9-514.4,29.1c-104.4-3.5-208.2-13.3-310.8-33.6
	c-63.1-12.5-125.2-28.9-184.5-54.6c-96.4-41.9-147.1-116.3-156.7-219.2c-10.2-109-18.9-218.2-26.7-327.5
	c-18.4-257.7-28.9-515.7-24.6-774.1c2.3-139.1,10.8-278,31.1-415.8c20.8-141.1,65.2-275.3,122.3-405.5
	c44.3-101.1,89.6-201.7,132.2-303.5c48.6-116.1,78-237.7,94.5-362.1c9.5-71.4,14.5-143.4,21.3-215.2
	C1574.5,564.4,1573.9,555.7,1573.9,546.1z M2619.4,2086.8c-12,0.9-20.5,1.8-29.1,2.2c-48.6,2.6-97.2,6.5-145.7-1.1
	c-54.6-8.5-105-29.3-154.8-52.7c-43.9-20.6-88.5-40.8-134.3-56.4c-88.6-30.3-179.5-36.9-272.5-20.4c-76.4,13.5-146.8,42-214.3,78.6
	c-77.8,42.2-160.2,60.5-248.5,54.5c-23.2-1.6-46.5-0.2-71.4-0.2c-1.1,4.8-3.3,10.4-3.6,16.2c-2.3,38.2-4.6,76.3-6.1,114.6
	c-9.1,232.2-2.1,464.1,10.6,696c0.7,12.6,3.4,25,5.1,36.9c16.8,0,30.7,0.6,44.5-0.1c96.7-5,188.2,12.6,274.1,59.1
	c32,17.3,65.7,31.9,99.8,44.7c98.9,37.1,201,45.7,305.3,29.4c73.9-11.6,142.1-38.7,207.9-73.2c43.2-22.6,87.9-41.6,136.1-51.3
	c54-10.8,108.8-10.9,163.6-11c9.2,0,18.4-1,29.7-1.7C2630.2,2662.2,2640.7,2376.1,2619.4,2086.8z M1613.4,559.2
	c-1.3,8.7-2.6,14.5-3.1,20.4c-3.8,45.9-6.1,92-11.3,137.7c-18.9,167.6-55.5,330.8-123.3,486c-43.1,98.8-87,197.2-129.4,296.3
	c-42.8,100.1-77.5,202.9-97.6,310.3c-24.4,130.4-30.1,262.5-34.8,394.6c-5.9,166.9-4.9,333.9,3.8,500.8
	c7.3,139.8,14,279.6,23.1,419.3c5.7,87.6,14.3,175,23.5,262.3c9.6,90.6,61.4,148.3,145.2,180.2c74.4,28.3,151.1,47.5,229.7,56.8
	c88.8,10.5,178.2,18.7,267.5,22.6c164.6,7.2,328.6-1,490.7-32.7c70.8-13.8,140.7-31.4,204-68.6c49.2-28.9,81.7-69.8,94.3-125.3
	c6.7-29.6,12-59.7,15-89.9c6.6-67.5,12.2-135.1,16.8-202.7c9-131.8,19.7-263.6,24.7-395.6c5.2-137.3,5-274.7,6.2-412.1
	c1.2-135.8-5.8-271.2-21.8-406c-11.7-98.6-33.5-195.1-65.1-289.4c-40.2-119.8-94.1-233.8-145.5-348.8
	c-47.3-105.7-89.9-213-116.5-326c-27.7-117.9-43.2-237.6-49.5-358.5c-0.6-11-2.2-21.9-3.5-34.2c-27.8,5.3-53,10.1-78.3,14.9
	c-0.8,6.6-1.9,10.9-1.7,15.1c2.6,46,4.1,92.1,8.5,137.9c17.3,176.8,61.2,347.4,127.3,512c46.7,116.1,97.2,230.6,143.8,346.7
	c43.9,109.4,71.8,223.3,87.1,340.2c18.3,140,21.3,280.9,24.1,421.7c3.6,183.5-3.6,366.9-13,550.2c-7,136.4-16.1,272.5-37.5,407.5
	c-5,31.6-12.1,63.2-21.6,93.8c-13.3,42.9-41.6,73.9-83.9,90.7c-20.2,8-40.4,16.2-61.2,22.1c-102.6,29.1-207.8,41.1-313.9,47
	c-151.4,8.5-302.5,3.8-453-15.5c-63.9-8.2-126.6-21-188.4-40c-77.6-23.8-123.9-73.7-138.6-153.3c-0.9-5.1-2.3-10.2-2.9-15.4
	c-11.8-107.1-27.3-214-34.3-321.4c-10.3-157.9-16.7-316.1-20.8-474.2c-4.7-180.9,1.3-361.6,17.8-542c11.8-128.8,34.4-255,82-375.6
	c45.2-114.7,91.9-229,140.5-342.4c94.1-219.9,147.1-448.6,153.5-687.8c0.2-6.6-1.2-13.2-1.9-20
	C1664.3,565.5,1640.4,562.6,1613.4,559.2z M2450.5,1419.4c-26.9,10.2-50.6,21-75.3,28.4c-92.2,27.6-187.5,36-282.9,42.2
	c-87.8,5.7-175.5,2.8-263.2-4.3c-105-8.6-208.9-21.5-308.6-68.7c-91.5,200.3-166.4,404.2-169.3,629.7c16.6,1.6,32.8,3.6,49.1,4.7
	c77.3,5.5,153,0.6,223.7-35.3c17.8-9.1,35.7-17.9,53.6-26.8c59.4-29.4,120.7-53.9,186.1-66c117.5-21.8,232.2-9.8,343.4,32.8
	c43.7,16.7,86.1,37.3,128,58.2c89.8,44.8,184,44,280.8,31C2610.4,1823.5,2539.3,1620.6,2450.5,1419.4z M1561.2,1316.3
	c284.1-56.6,562.8-57.4,841.5,4.4c-28.1-80.9-57-160.6-83.5-241.1c-26.6-81-46.5-163.9-57.1-248.5c-10.5-84-17.9-168.3-26.7-253.6
	c-168,17.3-335.9,16.5-507.4-1.2C1724.8,836.6,1664.2,1080.3,1561.2,1316.3z M2612.4,2991.6c-31.5,0-59.1,0.4-86.7-0.1
	c-72.8-1.2-141,16.6-205.7,49.5c-28.6,14.6-57.6,28.8-87.3,41.1c-100.5,41.6-204.7,59.6-313.5,48.1c-91-9.7-177.5-34.4-257.3-79.3
	c-88.9-50-183.8-66.4-284.2-57.5c-6.6,0.6-13,2.5-19.8,3.8c-0.4,6.3-1.4,10.6-0.9,14.8c11.5,103.6,22.6,207.3,35.1,310.8
	c3.4,28.2,10,56.3,27,81.4c5.4-2.3,10.9-3.3,14.7-6.4c28.6-22.8,62.4-34,96.9-43.3c93.7-25.1,190-32.4,286.3-38.2
	c113.8-6.8,227.7-5.9,341.5,0.2c97.3,5.2,194.2,13.8,288.3,41.3c30.9,9,61.2,19.9,86.5,41.1c3.7,3.1,8.8,4.7,15.7,8.2
	c4.1-8.9,9.1-16.2,10.8-24.1c9.1-41.5,19.8-82.8,25.3-124.8c10-76.7,16.8-153.7,24.8-230.6C2611.3,3017.4,2611.5,3007,2612.4,2991.6
	z M1450.7,3437.9c17.8,8.9,31,17.2,45.4,22.4c20.4,7.4,41.3,13.5,62.4,18.5c110.4,26.1,222.7,37.6,335.8,41.9
	c151.5,5.8,302.4-1.6,452.2-26.7c49-8.2,97.2-19.2,142.1-41.3c8.7-4.3,16.2-10.8,25-16.8c-13.9-18.5-30.9-25.1-47.9-31.5
	c-50.8-18.8-103.9-28.5-157.3-35.4c-127-16.5-254.8-18.9-382.7-17.3c-97.4,1.2-194.7,6.1-290.9,22.2c-41,6.8-81.5,17.1-121.8,27.6
	C1491.4,3407.2,1470.9,3417,1450.7,3437.9z M1544.8,1383.1c32.3,17.9,65.7,32.3,101.8,38.3c50.5,8.4,101,17.1,151.8,22.7
	c174.7,19,348.6,12.2,521-23c27.9-5.7,54.9-15.9,81.9-25.2c8.1-2.8,14.8-9.5,23.1-15.1c-12.2-13.9-25.7-17.2-38.9-21.2
	c-80.2-24.8-162.8-35.7-246.1-40.8c-150.3-9.2-300.4-7.9-449.6,15.4c-41,6.4-81.3,17.6-121.7,27.4
	C1558.7,1363.9,1546.8,1365.6,1544.8,1383.1z M2392.3,244c-3.2-12.1-14.2-11.1-22.9-13.2c-74.5-18.5-150.9-24.3-227-28.7
	c-146.7-8.6-293.4-6.9-439.6,10.2c-34.4,4-68.5,10.9-102.6,17.2c-8.4,1.6-18.9,2-23.2,12.9C1729,301.5,2257.6,299.5,2392.3,244z
	 M1840.9,545.7c23.6,6,47,4.5,69.8,2.7c0-75.9,0-148.4,0-223.1c-24.3-1.9-46.2-4.2-69.8,2.7C1840.9,400.4,1840.9,472.2,1840.9,545.7
	z M2017.5,549.4c4.9-27.3,3.7-207.3-1.1-222.2c-20.5,0-41.1,0-61.1,0c-7.6,25.8-8.1,199.4-0.7,222.2
	C1974.8,549.4,1995.4,549.4,2017.5,549.4z M2128.6,323c-24.7,1.2-46.7,2.3-69,3.4c0,75.8,0,148.2,0,223.3c24.5-1.6,46.5-3,69-4.5
	C2128.6,470.4,2128.6,398,2128.6,323z M1803,544.8c1.2-77.2,1.7-151.2,0.3-227.8c-24.7,0.2-45.7-4.4-66.3,1.2
	c-5.3,55.8-3.4,202,3,220.6C1759.3,540.6,1779.1,542.5,1803,544.8z M2169.1,543c15.3-1.3,28.1-2.2,40.9-3.6
	c22.7-2.4,24.7-4.2,24.7-27.4c0.1-57.3-0.3-114.6-0.8-171.8c-0.1-7.5-1.8-14.9-3.1-25.2c-21.5,2.2-40.9,4.2-61.7,6.3
	C2169.1,395.7,2169.1,467.4,2169.1,543z M2334.9,520.3c0-74.3,0-144.1,0-217.2c-22.7,3-43.4,5.8-66.4,8.9
	c4.2,73.9-2.8,144.4,1.4,218.6C2293.4,526.9,2313.5,523.7,2334.9,520.3z M1633.6,521.4c21.1,3.2,41.2,6.3,63.6,9.8
	c0-75.7,0-148.1,0-223.4c-21.1-1.4-41.3-2.8-63.6-4.3C1633.6,376.8,1633.6,446.7,1633.6,521.4z M2371.3,509.1
	c10.7-2.7,17.5-3.8,23.8-6.1c27.2-9.9,28.2-11.7,28.2-41.6c-0.1-51.1-0.1-102.1-0.4-153.2c0-8.1-1.5-16.2-2.2-24.2
	c-5.8,0-8.4-0.5-10.8,0.1c-5.8,1.5-11.6,3.4-17.3,5.3c-21.2,7.3-21.1,7.3-21.1,29c0,42.4-0.1,84.8-0.2,127.2
	C2371.2,465.5,2371.3,485.3,2371.3,509.1z M1597.8,506.9c0-68.3,0.2-134.9-0.4-201.6c0-4.7-4.9-12.2-9.1-13.5
	c-12.6-4.1-25.9-5.8-40-8.6c-1,7.8-2,12-2,16.2c0.1,55.5-0.2,111.1,0.6,166.6C1547.2,496,1560.5,507,1597.8,506.9z"/>
<path d="M2008.7,2236.8c6.8-7.4,11.7-12.2,16-17.4c36.3-44,84-67.3,139.9-71.7c35.4-2.8,71.2-1.2,106.8,0.5
	c27.1,1.3,31.9,7.6,28.3,34.6c-8,60.7-29.5,114.3-83.9,149.1c-2.9,1.9-6,3.5-11.5,6.8c13.6,7.5,23,13,32.7,17.8
	c36,18.1,58.6,48,74.9,83.7c35.8,78.5,35.2,158.4,8.6,238.9c-30.6,92.3-82.1,168.2-171.2,214c-47.1,24.2-96.5,39.9-149.9,38
	c-41.6-1.5-84.1-0.9-124.4-9.7c-94-20.6-164.9-75.8-211-160.5c-50.9-93.6-65.5-191.6-28.3-293.9c39.7-109.3,142.4-165.2,255.9-139.5
	c18.6,4.2,36.8,10,55.3,14.9c8.1,2.2,16.4,3.9,27.1,6.4c3.8-41.8,3.6-80.6-8.2-118.1c-7.2-23-18.5-44.8-28.3-66.9
	c-3.8-8.6-10.9-16.8-1.3-25.7c8.2-7.5,22.3-8.2,31,0.6c7.7,7.8,14.2,17.7,18.2,27.9C1993.7,2188.3,2000.2,2210.8,2008.7,2236.8z
	 M2085.9,2364.4c-15.5,10.6-26,22-38.8,25.8c-41.3,12.2-83.2,11.7-121.2-10.8c-28.5-16.9-58.5-20.5-90.2-19.2
	c-77.1,3.3-131.1,40.8-162.2,110.9c-17.2,38.8-23,80.2-20.6,122.3c5.5,95.8,42.7,176.1,118.3,237.4c32.3,26.2,67.5,44.9,108.5,53.8
	c38.6,8.4,77.4,9.7,116.6,9.5c43.4-0.2,84.5-10.4,123.1-29.4c125.9-61.9,180.2-167.9,182.5-303.8c0.7-44.8-10-88.3-36.1-126
	c-25.7-37.2-60.5-63.1-105.6-70C2134.8,2361.2,2108.3,2364.4,2085.9,2364.4z M2261.4,2187.6c-107.9-20.3-209,23.5-237.6,101.1
	c51.1,36.1,105.4,41.5,161.8,14.5C2233,2280.4,2252.1,2238.2,2261.4,2187.6z M2008,2341.2c12.9,14.5,23.2,16.3,38,11.6
	C2036.6,2339.5,2026.3,2337.2,2008,2341.2z"/>
<path d="M1973.1,2795.8c-48.1-1.8-86.3-37.6-88.1-84c-0.2-4.3,0-8.7,0.4-13c0.9-9.1,6.6-15.3,15.2-14.3c5.6,0.7,12.8,5.6,15.3,10.6
	c5,9.9,6.4,21.6,10.9,31.9c10.6,23.9,25.2,32.7,48.7,30.7c21.1-1.8,34.9-13.9,41.7-36.7c2-6.7,3.5-13.4,5.3-20.1
	c2.4-9.1,6.7-16.9,17.4-15.7c10.8,1.2,16.6,8.7,17.8,19.3c3.2,27.6-19.2,68.5-45.1,79.8C2000.2,2789.7,1986.3,2792.1,1973.1,2795.8z
	"/>
<path d="M2167.3,2698.1c-25.5,0.1-46.6-22.5-46.3-49.7c0.2-25,21.4-46.7,46.1-47.2c26.8-0.6,52.5,23,52,47.8
	C2218.6,2673.8,2193.1,2697.9,2167.3,2698.1z"/>
<path d="M1734.6,2648.5c0.2-26.4,20.7-47.8,45.1-47.1c25.1,0.7,47.7,24,47.8,49.3c0.1,27.2-20.2,47.5-47.8,47.6
	C1753.3,2698.5,1734.4,2677.7,1734.6,2648.5z"/>
</svg>
