<?xml version="1.0" encoding="utf-8"?>
<!-- Generator: Adobe Illustrator 24.3.0, SVG Export Plug-In . SVG Version: 6.00 Build 0)  -->
<svg version="1.1" id="Layer_1" xmlns="http://www.w3.org/2000/svg" xmlns:xlink="http://www.w3.org/1999/xlink" x="0px" y="0px"
	 viewBox="0 0 4000 4000" style="enable-background:new 0 0 4000 4000;" xml:space="preserve">
<path d="M731.3,3674.9c0-16.6,0-30.2,0-43.9c-1.7-767.9-3.3-1535.9-5.7-2303.8c-0.1-40.2,7.2-76.1,25.3-112.8
	c78.4-158.9,154.1-319.3,230.7-479.1c39-81.4,77.4-163,116.9-244.1c11.4-23.5,17.3-46.9,16.7-73.4c-1.5-61.6,1-123.2-1.1-184.8
	c-2.9-85.8,55.6-138,138.4-141.4c25.5-1,51-0.8,76.5-0.6c261.3,2.1,522.6,3.6,783.8,6.7c219.8,2.6,439.7,7,659.5,10.6
	c11.7,0.2,23.4,0.4,35,1.2c74.3,5.2,119.9,49.6,123.2,123.9c3.2,73.2,4.3,146.5,4.4,219.8c0,24.5,5.9,44.3,19.1,65.1
	c78.1,123.9,154.5,248.9,231.5,373.5c2.2,3.6,3.7,7.8,6.4,11c40,45.9,49,99.9,48.5,159.3c-1.3,184.8,0.9,369.6,1.2,554.4
	c0.8,534.3,1.2,1068.5,2.5,1602.8c0.1,22.7-7.6,37.1-24.6,50.9c-161.7,131.1-322.8,262.8-484.1,394.4
	c-30.4,24.8-61.4,49.1-90.8,75.1c-12.2,10.8-24.2,15.2-40,14.6c-77.5-3-155-5-232.4-8.1c-131.6-5.2-263.1-10.9-394.7-16.5
	c-183.6-7.8-367.1-15.9-550.6-23.5c-82.8-3.4-165.6-5.4-248.4-8.9c-140.1-5.8-280.1-12.2-420.1-18.5
	C751,3678.7,743.9,3676.9,731.3,3674.9z M775.8,1929.2c-7.5,31.8-6.1,1033.1,2.3,1062.9c603,23.2,1207.1,46.5,1810.3,69.7
	c8.2-37.6,7.2-1044.4-0.2-1069.7C1984.1,1971.1,1379.9,1950.1,775.8,1929.2z M791,1242.7c17.6,1,29.2,2,40.8,2.2
	c100.8,2.5,201.7,4.3,302.5,7.5c227.1,7.1,454.1,15.1,681.1,22.4c197.3,6.3,394.7,12.1,592,18.3c54.1,1.7,108.2,4.2,162.3,6
	c26.6,0.9,27.1,0,36.3-25.3c11.6-31.9,23.9-63.5,35.6-95.4c75.3-205.1,150.6-410.2,225.8-615.3c5-13.7,8.7-27.8,14.2-45.7
	c-43.9-0.9-84-1.7-124-2.5c-253.7-5.4-507.3-10.9-761-16.1c-194.2-4-388.5-7.8-582.7-11.4c-77.5-1.4-155-1.7-232.5-3.6
	c-21.8-0.5-35.8,5.4-44,27.2c-8.9,23.8-21,46.4-32,69.3C1005.3,788.7,905,997.1,804.9,1205.6C800,1215.8,796.9,1226.8,791,1242.7z
	 M775.7,3632.6c606.9,27.3,1211.4,55.4,1818.8,74.7c-1.8-200.5,3-398.4-1.3-595.6c-91.8-12.5-1787.9-73.7-1817.5-65.7
	C775.7,3240.7,775.7,3435.6,775.7,3632.6z M2592.3,1345.4c-606.6-18.6-1210.1-37.1-1813.2-55.5c-8.9,25.9-11.7,553.4-2.8,591.3
	c200.5,6.7,401.8,13.1,603.2,20.3c202.7,7.2,405.3,17,608,22.5c201,5.5,401.9,17.6,604.8,16.4
	C2592.3,1741.3,2592.3,1546.1,2592.3,1345.4z M2637.8,3043.6c12.8-7.8,18.4-10.7,23.5-14.3c171.5-123.3,342.6-247.1,514.8-369.4
	c18.4-13.1,23.3-26.4,23.3-47c-0.9-266.5-1.2-533-1.6-799.4c-0.1-52,0.1-104-0.2-156.1c-0.1-11-1.6-22-2.6-36.2
	c-10.9,5.9-17.6,9-23.7,13c-165.4,107.6-330.2,216.4-496.8,322.1c-28.6,18.2-36.9,37.2-36.8,68.8c0.8,322.8,0.3,645.5,0.2,968.3
	C2637.8,3008,2637.8,3022.5,2637.8,3043.6z M1158.9,436c578.6,11.5,1152.6,22.9,1727.3,34.3c1.8-8.9,3.6-14,3.6-19
	c-0.5-64.8-1-129.5-2-194.3c-0.2-11.6-1.1-23.6-4.2-34.6c-11.7-41.3-31.4-63.9-77.8-66.8c-13.8-0.9-27.6-1-41.4-1.2
	c-98.8-1.2-197.5-2.4-296.3-3.6c-390.8-4.8-781.7-9.6-1172.5-14.2c-18-0.2-36.2,0.7-54,3.1c-49.8,6.8-77.9,36.3-80.9,86.6
	c-2.1,34.9-1.5,70.1-1.7,105.1C1158.7,364.2,1158.9,397,1158.9,436z M2636.7,1922.1c13.7-6.9,21.4-9.9,28.3-14.4
	c77.5-50.1,154.7-100.6,232.3-150.6c94.5-60.9,188.9-121.8,284.1-181.6c14.3-9,17.1-19.2,17.1-34c-0.7-160.2-0.9-320.4-1.4-480.6
	c0-10.2-1.1-20.4-1.9-34c-9.6,4.5-16.1,7.1-22.2,10.4c-168.5,94.1-336.7,188.7-505.7,281.9c-21.4,11.8-29.7,24.8-29.6,49.5
	c0.6,164.4-0.4,328.9-0.9,493.3C2636.6,1880.1,2636.7,1898.1,2636.7,1922.1z M2637,3683.1c14.7-10.2,22.6-14.9,29.7-20.7
	c170.3-138.5,340.4-277.3,511.1-415.4c14.5-11.7,22-23,21.9-42.1c-0.8-158.1-0.6-316.2-0.9-474.2c0-7.9-1.5-15.9-2.7-27.3
	c-10.2,6.4-17.5,10.4-24,15.2c-22.1,16.4-43.7,33.7-66.1,49.7c-144.9,103.8-289.4,208-435.4,310.2c-22.6,15.8-32.9,31-32.8,58.8
	c0.6,166.6-0.4,333.1-0.9,499.7C2637,3649.5,2637,3662.1,2637,3683.1z M2795.2,895.3c28,11.8,336.2,54.6,370.9,51.4
	c-81.1-131.1-161-260.4-244.6-395.7C2874.3,669,2832.3,781.4,2795.2,895.3z M3133.2,1004.4c-0.7-2.6-1.3-5.2-2-7.8
	c-22.8-3.7-45.6-7.8-68.5-11.1c-87.2-12.4-174.4-24.3-261.6-37.2c-17.5-2.6-27.7,1.4-34.1,19c-33.4,91.8-67.7,183.2-101.3,274.8
	c-2.2,6-1.2,13.1-2,23.3C2822.8,1177,2978,1090.7,3133.2,1004.4z"/>
<path d="M1380.7,2326.8c-8.6,16.2-14.3,26-19.1,36.2c-30.6,64.2-60.8,128.5-91.6,192.6c-9.8,20.4-21.1,42.3-47,42.3
	c-25.4,0.1-33.7-23.6-42.8-42.1c-31.2-63.9-61.1-128.4-91.5-192.6c-4.4-9.3-9.2-18.4-17.1-34.1c-4.4,12.9-7.4,18.9-8.4,25.2
	c-19.1,116.2-37.9,232.5-56.9,348.7c-1.2,7.3-2.7,14.6-4.8,21.7c-6.1,20.3-14.7,25.5-35.1,22.3c-17.8-2.8-26.6-11-24.7-30.5
	c3.6-36.9,9.4-73.6,15.3-110.2c20.4-124.6,41.1-249.1,62-373.5c1.9-11.4,4.1-23.3,8.8-33.7c8.9-19.7,29.6-23.9,43.6-7.3
	c12.1,14.3,21.2,31.6,29.4,48.7c37.6,78.4,74.3,157.3,111.6,235.9c3,6.3,7.6,11.8,13.9,21.4c8.3-15.4,15.4-27,21.1-39.3
	c34.7-75.1,69-150.4,103.5-225.6c5.3-11.6,10.6-23.2,16.8-34.3c6.7-11.8,16.4-19.4,31.2-17.4c14.6,2,22.4,12,26.1,24.7
	c4.5,15.2,7.9,30.9,10.8,46.5c25.7,139.9,51.2,279.8,76.5,419.7c2.8,15.6,4.9,31.5,5.8,47.4c1.1,19.2-8.4,31-25.5,34.6
	c-17.3,3.6-29.6-3.5-34.1-24.5c-9.5-44.6-17-89.6-25.3-134.5c-14.5-78.3-28.9-156.5-43.5-234.8
	C1388.1,2351.2,1385,2342.6,1380.7,2326.8z"/>
<path d="M2181,2493.5c7.5-5.1,15.3-9.9,22.6-15.3c44.9-33.8,89.6-67.9,134.5-101.6c9.3-7,19.2-13.4,29.4-18.9
	c12.3-6.7,25-7,34.2,5.3c9,12.2,10.9,26.3,0.3,38.1c-9.8,10.9-21.6,20.3-33.3,29.3c-41.1,31.8-82.4,63.3-123.7,94.8
	c-5.8,4.4-12,8.3-20.5,14.1c10.5,8.1,16.1,12.4,21.7,16.6c58.8,43.5,117.6,86.9,176.3,130.6c5,3.7,9,9,13.1,13.9
	c13.3,16.2,14.2,25.8,3.7,39.5c-10.4,13.8-26.7,18.5-42.4,10.7c-8.4-4.1-15.6-10.8-23.2-16.6c-60.6-46.4-121.1-93-181.8-139.3
	c-3.1-2.4-7.3-3.4-15.3-6.9c-0.7,12.8-1.6,22.8-1.8,32.9c-0.7,37.1-0.2,74.3-2,111.3c-1.2,24.7-10.9,32.4-33.9,32.1
	c-18-0.2-27-8.1-29.5-26.4c-0.8-6.3-0.6-12.7-0.6-19.1c-0.6-163.4-1.2-326.8-1.7-490.1c0-11.7,0.7-23.3,1.6-35
	c1.2-15.6,11.9-21.6,25.8-23c17.9-1.8,31.3,5.5,34.8,20.4c2.4,10.2,2.6,21,2.7,31.6c0.5,74.3,0.7,148.5,1,222.8
	c0.1,14.6,0,29.3,0,43.9C2175.8,2490.6,2178.4,2492.1,2181,2493.5z"/>
<path d="M1967,2471.4c0,77.4,0,154.8,0,232.2c0,9.5,0.2,19.1-0.6,28.6c-1.9,23.3-9.7,30.8-31.2,31c-21,0.2-29.2-7.4-31.4-31
	c-1.8-19-3.4-38.1-3.4-57.1c0.5-148.4,1.4-296.8,2.3-445.2c0-8.5,0.3-17,1.1-25.4c2.4-25.7,11.5-32.4,37.5-30.4
	c13.9,1.1,21.9,7.7,23.9,20.8c1.7,10.4,2.3,21.1,2.3,31.6c0.2,81.6,0.1,163.3,0.1,244.9C1967.3,2471.4,1967.2,2471.4,1967,2471.4z"
	/>
<path d="M1738.8,2576c0,42.3,0,84.7,0,127c0,8.5,0.4,17-0.9,25.3c-2.4,15.2-15.9,25.7-31.3,25.7c-14.5,0-26.1-9-29.5-23.8
	c-1.4-6.1-1.4-12.6-1.5-18.9c-0.8-88.9-1.5-177.8-2.1-266.7c0-6.3,0.3-12.7,1-19c2.5-21.6,10-28.6,30-28.6
	c21.7-0.1,32.1,7.9,32.6,29.8c1,49.7,0.3,99.5,0.3,149.2C1737.8,2576,1738.3,2576,1738.8,2576z"/>
<path d="M1755.3,2270c-0.7,24.6-25.6,47.3-51.2,46.6c-22.5-0.5-43.2-24.8-42.9-50.5c0.2-22.1,23.3-45.1,45.1-44.8
	C1732.3,2221.6,1756,2245.2,1755.3,2270z"/>
<path d="M1752.2,1135c-55.8-1.4-108.9-13.2-156.9-44.2c-22.1-14.3-40.2-32-48.3-57.2c-19.2-59.5-39.4-118.8-55.1-179.3
	c-14.8-57,10.4-103.9,49.1-143.9c35.9-37.2,79.6-63.8,127.6-82.1c82.6-31.6,167.5-45.4,255.8-28.6c71.3,13.5,118.9,51.9,137,124.4
	c12.1,48.4,24.7,96.7,40.1,144c16.7,51.4,0.8,93.6-30.4,133.1c-30.2,38.1-68.1,66.8-112,87.3
	C1893.7,1118.9,1824.5,1133.1,1752.2,1135z M1710.3,920.2c76.9-0.3,148.7-23.7,214-66c33.1-21.4,62-48.1,77.4-86.1
	c18-44.4,8.7-76.4-33.7-99c-22-11.7-46.8-20.4-71.4-24.5c-78.8-13-153.6,5.1-225.7,36.3c-43.4,18.8-82.1,44.5-111.2,82.3
	c-38.2,49.6-29.5,95.1,23.6,128.5C1621.8,915.8,1664.7,920.1,1710.3,920.2z M2038.7,817.6c-131.3,142-288.1,182.5-476.7,125.1
	c9.1,24.7,15.8,44.3,23.6,63.5c12.3,30.1,34.2,49.7,64.8,61.6c38.3,14.9,77.5,20.9,118.3,19.4c48.2-1.8,94.7-12.6,139.4-29.5
	c48.3-18.2,90.2-46.9,125-85.4c14.3-15.9,28.9-33.3,28.2-55.5C2060.3,883.1,2052.3,850.4,2038.7,817.6z"/>
</svg>
