<?xml version="1.0" encoding="utf-8"?>
<!-- Generator: Adobe Illustrator 24.3.0, SVG Export Plug-In . SVG Version: 6.00 Build 0)  -->
<svg version="1.1" id="Layer_1" xmlns="http://www.w3.org/2000/svg" xmlns:xlink="http://www.w3.org/1999/xlink" x="0px" y="0px"
	 viewBox="0 0 4000 4000" style="enable-background:new 0 0 4000 4000;" xml:space="preserve">
<path d="M3731.9,1941.4c1.4,12.4,3.7,23.4,3.8,34.3c1.3,235.1-9.3,469.3-56.5,700.4c-9.5,46.5-24.4,92.2-40.8,136.9
	c-15.5,42.4-48.3,69.8-93.3,76.8c-79,12.3-158.2,23.8-237.8,32c-86.6,8.9-173.7,13.7-260.5,20.1c-9.6,0.7-19.4,0.1-30,0.1
	c-10.7-24.5-18.6-48.6-30.9-70.2c-45.2-79.2-147.3-96.5-212.7-37.2c-20.5,18.6-33.7,41.2-38.8,68.4c-3.5,19.2-6.7,38.5-10.8,61.6
	c-19,2.8-38,6.6-57.2,8.2c-231,18.3-462.1,36.6-693.2,54.1c-231.1,17.5-462.3,33.8-693.4,51.2c-238.1,18-476.2,36.9-714.3,54.9
	c-89.7,6.8-179.4,12.6-269.2,17.9c-37.7,2.2-50.4-7.6-51.4-44.1c-1.7-63.2-0.3-126.5,0-189.7c0-3.9,2.7-7.8,5-14
	c16.7-3.5,34.4-6.6,51.9-10.8c49.3-11.9,79.1-49.1,77.5-96.3c-1.6-50.4-33.4-87.5-83-97.3c-57.5-11.3-57.5-11.3-57.5-70.4
	c0-67.5-0.4-134.9,0.1-202.4c0.3-36.5,1.8-37,37.2-41.7c13.8-1.8,27.8-4.3,41.2-8.2c51.6-15.1,86.5-48.3,95.9-101.4
	c10-56-5.3-105.7-49.5-144.6c-23.6-20.7-52.4-25.8-81.9-29.3c-13.6-1.6-27.4-2.2-44-3.6c-1.7-16.2-4.3-29.8-4.3-43.4
	c0.3-123.7,2.5-247.4,1.1-371c-0.4-38.9,16.3-58.2,49.7-72.7c148.2-64.2,295.8-129.5,443.4-195.2c69.2-30.8,138.1-62.6,206.3-95.5
	c17.8-8.6,31.2-8.1,46.1,3.9c51.7,41.9,111.4,41.5,172.5,31.1c10.9-1.8,21.6-6.4,31.6-11.2c47-22.4,64.4-57.7,47.6-106.8
	c-16.9-49.1-4.6-52.2,32.7-69.3c261.8-119.7,523.4-239.8,785.1-359.9c56.1-25.8,112.8-50.7,167.8-78.6c67-34,137.2-39,209.4-28.3
	c184.3,27.2,362,78.6,534.2,149.4c148.7,61.1,290.3,135.9,420.8,229.6c63.8,45.8,123.8,97,183.1,148.5c60.9,52.9,98.4,122,123,198.2
	c25.6,79.5,35.1,161.8,41.5,244.6c1.8,23.1-4.2,38.4-29.3,42.1c-8.3,1.2-16.3,4.2-24.3,6.8c-47.4,15.9-73.3,51.4-73.8,101.2
	c-0.5,46,28.3,87.8,72.3,103.6C3692.7,1930.9,3711.7,1935.5,3731.9,1941.4z M307.3,3087.6c790.2-58.9,1574.5-117.5,2357.2-175.9
	c5.5-13.5,8.7-21.1,11.7-28.8c31-81.3,85.4-136.6,175.1-143.2c87.4-6.4,151.8,33.1,188.5,113.6c10,21.9,23.8,25.9,46.8,23.5
	c125.7-13.2,251.7-24.1,377.5-36.4c104.3-10.3,121.6-26.3,147.5-128.1c28.5-112.1,43.4-226.3,50.8-341.2
	c7.2-110.7,8.4-221.8,14.4-332.6c1.8-32.2-6.2-50.7-37.5-65.2c-57.6-26.7-90.5-74.4-94.7-139.1c-5.3-80,23.6-128.4,98.2-163.9
	c17.3-8.3,28.5-17.4,24.2-38.1c-14.2-68.6-25.7-138-43.4-205.7c-13-49.6-25.4-55.1-76.1-51.4c-105.1,7.8-210.1,15.8-315.1,24.7
	c-53,4.5-105.8,10.9-160.3,16.7c-3.1,13.1-6.1,23.8-8.2,34.5c-19.7,103.9-98.5,172.8-207,185.3c-90,10.4-204.8-38.5-239.3-140.9
	c-11-32.5-14.2-33.3-49.6-29.8c-40.7,4.1-80.2,23.8-122.5,8.7c-4.8-1.7-11.1,0.9-16.6,1.5c-94.9,10.5-189.7,21.9-284.7,31.4
	c-125.8,12.7-251.7,24-377.6,35.8c-145.4,13.7-290.8,27.5-436.3,40.8c-138.5,12.7-277,25-415.5,37.5c-144.1,13-288.2,26-432.3,38.8
	c-61.3,5.4-122.6,10.4-187.1,15.8c0,124.9,0,246.2,0,367.8c24.5,7.2,48.4,11.1,69.6,20.9c77.1,35.3,117.8,112.2,109.9,200.3
	c-6.7,75.7-71.8,158.6-146.9,170.8c-10.4,1.7-20.3,7.2-30.1,10.9c0,65.7,0,128.3,0,192.9c85.1,16.3,137.9,65.3,139.8,151.1
	c1.9,85.6-42.3,143.4-130.6,162.1C307.3,2996.5,307.3,3038,307.3,3087.6z M3556.6,1305.7c-7.7-10.8-9.5-14.6-12.4-17.2
	c-87.7-79.3-179.6-153.2-280-216c-258.5-161.6-540.6-260-839.3-313.9c-66.8-12.1-128.6-2.3-191.7,27.5
	c-299.7,141.5-601,279.6-902.3,417.8c-26.2,12-38.7,23.4-36.5,55.6c4.9,68.9-33.3,122.7-97.5,146.4
	c-72.3,26.6-143.6,24.5-211.6-13.2c-20.7-11.5-38.3-15.5-58.4-1.4c-5.6,4-12.6,6.1-19,9c-128,57.8-256,115.6-383.9,173.5
	c-8.1,3.7-15.6,8.9-23.3,13.4c9.9,5.5,18,6.1,25.9,5.4c124.5-11.2,249-22.7,373.5-33.8c142.7-12.7,285.5-24.6,428.2-37.5
	c142.7-12.8,285.4-26.3,428-39.6c93.7-8.8,187.4-17.8,281-26.7c18.9-1.8,34.7-5.3,40.8-28.4c13.1-50.2,49.6-80.1,95-100.5
	c59.9-26.8,122.9-30,185.9-18.2c47.3,8.9,94.2,27.4,123.8,66.5c22.6,29.9,47.1,35.6,79.5,30.6c12.5-1.9,25.1-2.8,37.7-4
	c40.8-4,42.2-1.1,57.7,37.6c11.8,29.5,23.7,62,44.9,84c50.3,52.2,113.9,72.2,184.8,46.9c72.7-25.9,116-76.8,120-156.7
	c0.4-8.4,1.8-16.8,1.8-25.2c0-20.5,9.7-30,30.4-32c151.1-14.2,302-29,453.1-43.6C3512.1,1310.3,3531.3,1308.2,3556.6,1305.7z
	 M2438.5,1413c-66.6-82.2-258.3-65.8-303.4,26.7C2236.7,1430.7,2334.9,1422.1,2438.5,1413z"/>
<path d="M3265.2,2024.3c133.6,6.8,240.3,92.5,245.9,253.1c4.5,129.1-114.6,243.4-248.5,240.3c-164.6-3.8-243.8-129.1-244.7-243.8
	C3016.7,2131.1,3125.7,2024,3265.2,2024.3z M3265.8,2455.3c103.8,0.1,185-81,184.1-183.9c-0.9-101.7-82.9-183.1-185.7-184.1
	c-102-1.1-185.8,81.4-185.4,183.5C3079.2,2362.9,3164.2,2458.5,3265.8,2455.3z"/>
<path d="M795.1,2694.4c-1.7-124.7,98-247.7,245-246.4c126.1,1.1,241.3,95.6,243.4,248.8c1.8,132.2-113.6,243.7-246.3,243.2
	C902.3,2939.6,794.7,2830.3,795.1,2694.4z M1033.8,2875.1c103.4,0.7,186.5-79.1,188.1-180.7c1.6-98.4-82.3-185.9-178.9-186.6
	c-102.3-0.7-190,83.9-188.1,186.6C857.1,2812.6,958.3,2879.8,1033.8,2875.1z"/>
<path d="M1683.5,2384.3c-117.9-1-208.1-97.3-206.6-220.6c1.5-118.5,96-210.6,214-208.8c114.6,1.8,212,100.8,210.4,215.2
	C1900,2267,1836.9,2383.9,1683.5,2384.3z M1840.3,2169.1c-0.3-84.3-68.9-154.6-151.2-155.1c-85.9-0.5-152.6,68.9-151.6,157.6
	c1,84,67.6,152.1,148.3,152C1774.2,2323.4,1840.6,2257,1840.3,2169.1z"/>
<path d="M794.2,2164.9c-104.8,0.1-190.6-84.7-192-189.7c-1.5-105.7,86.5-196.1,190.7-196.2c103.1,0,188.8,87.8,188.2,192.8
	C980.4,2080.7,899,2164.9,794.2,2164.9z M921.7,1975.4c-0.8-75.5-57.1-133.2-129.5-132.5c-69.2,0.6-128.1,60.8-127.8,130.5
	c0.3,69,57.8,129,124.1,129.4C864.7,2103.3,922.4,2048.1,921.7,1975.4z"/>
<path d="M2134.3,2825c-108.1,4.3-182-91.3-183.3-185.3c-1.3-101.7,85.3-185.6,189.4-185c100.5,0.6,186.6,85.6,185.1,185.6
	C2324,2740.6,2254,2828.8,2134.3,2825z M2137.6,2765.4c72.7-0.1,128.7-53.7,127.5-122c-1.2-68.5-59.4-126-127-125.4
	c-67.7,0.6-125.1,56.2-125.3,121.7C2012.7,2714,2078.7,2771.1,2137.6,2765.4z"/>
<path d="M2518.3,1792.7c96.4-0.6,177.1,79.8,177.2,176.4c0.1,104.2-73.9,180.1-176,180.3c-93.9,0.2-180.2-79.8-178.5-171.8
	C2343.2,1862.1,2424.3,1790.3,2518.3,1792.7z M2516.5,2088.8c66.2,0.3,121.8-54.3,121.1-119c-0.7-62.6-53.3-115.6-115.1-115.8
	c-67.6-0.2-119.9,51.5-120.5,119C2401.6,2034.3,2455.2,2088.5,2516.5,2088.8z"/>
<path d="M2644.6,1241.5c-31,0.6-77.5-7.3-120.3-31.5c-74.9-42.5-79.5-127.9-9.9-179.1c73.4-53.9,204.7-57.6,284.1-9.8
	c88.1,53,63.4,154.5-6.2,190.2C2751.4,1232.4,2707.4,1239.2,2644.6,1241.5z M2654.1,1181.2c25.6-4.5,54-6.3,80.2-14.9
	c26-8.6,58-20.7,57.5-53.4c-0.4-31.8-30.3-45.4-57.5-53.4c-51-15.1-102.5-14.7-152.1,5.8c-15.1,6.2-29.5,16.5-41.2,28
	c-15.3,15-15.7,33.6-0.8,48.5c11.5,11.4,26.1,22.2,41.2,27C2603.8,1175.7,2628,1177,2654.1,1181.2z"/>
<path d="M1905.3,1260.6c-26.2-8.3-54-13.5-78.4-25.6c-32.5-16.1-48.4-45.1-46.5-82.7c1.8-37.5,20-63.8,53.5-78.8
	c44.6-19.9,91-29.2,138.7-11.9c15.6,5.6,31.2,13.3,44.2,23.3c47.3,36.4,47.3,99.9,0.4,136.6
	C1985,1246.9,1947.6,1256.6,1905.3,1260.6z M1912.8,1190.4c12.6-2.8,33.8-5,52.8-12.7c9.5-3.9,19.3-17.4,20.6-27.6
	c0.9-7.2-10.6-18.7-19.2-23.9c-26.2-16-85.7-10.9-108,9.3c-7.5,6.8-16.5,20.6-14.1,27.3c3.5,9.7,15.8,18.2,26.2,22.9
	C1880.9,1190,1893.2,1188.5,1912.8,1190.4z"/>
</svg>
