<?xml version="1.0" encoding="utf-8"?>
<!-- Generator: Adobe Illustrator 24.3.0, SVG Export Plug-In . SVG Version: 6.00 Build 0)  -->
<svg version="1.1" id="Layer_1" xmlns="http://www.w3.org/2000/svg" xmlns:xlink="http://www.w3.org/1999/xlink" x="0px" y="0px"
	 viewBox="0 0 4000 4000" style="enable-background:new 0 0 4000 4000;" xml:space="preserve">
<path d="M1532.8,553.5c-59-24.8-61.9-28.6-62.2-87.7c-0.4-84.1-0.5-168.3-0.3-252.4c0.1-51.7,11.4-70.5,60.8-83.8
	c46.6-12.5,94.5-21.5,142.4-27.1c191.4-22.5,383.3-22,575-5.3c61.7,5.4,124,10.7,183.5,30.7c5.2,1.7,10.5,3,15.6,5
	c46.5,18.2,56.9,32,57.2,81.8c0.5,85,0.3,170.1,0.1,255.2c-0.1,49.9-7.2,59.9-54.6,79.5c-2.5,1-4.6,2.9-7.8,4.9
	c-0.5,3.9-1.7,8.4-1.6,12.8c4,92.2,6.8,184.6,24.9,275.6c19.2,96.5,52.2,188.2,92.7,277.6c47.5,104.8,97.1,208.8,141.4,315
	c61.3,146.8,98.6,300.2,114.3,458.7c20.5,206.9,23.5,414.4,18.6,622c-3.5,149.9-7.7,299.9-15.5,449.6
	c-7.6,144.2-19.6,288.2-31,432.1c-3.6,44.7-12.9,88.7-31.5,130c-35.4,79.1-98.1,127.6-176.8,158.8c-63.4,25.1-129.7,37.9-196.6,47.9
	c-189.8,28.1-380.9,31.2-571.9,21.1c-124.1-6.6-248.1-18.4-368.3-53.2c-29.7-8.6-59.2-19.3-87.2-32.3
	c-100.3-46.5-157.7-126-169.6-235.4c-9.8-90.8-17-182.1-21.2-273.4c-10.2-225.6-18.8-451.3-26.6-677
	c-5.4-157.3-0.2-314.6,10.2-471.6c6.8-103,17.8-205.7,40.2-306.9c33.2-150,90.4-291,155.2-429.6c38.7-82.8,77.6-165.5,112.7-249.8
	c38.9-93.3,60.4-191.7,68.9-292.4C1529.3,673.9,1530.1,613.6,1532.8,553.5z M2648.8,2044.3c-34.2,3.2-65,6-95.8,8.9
	c-49.3,4.7-96.7-2.7-141.3-24.4c-21.3-10.4-41.9-22.3-63-33.3c-151-78.6-311.8-100.4-479.2-80.5c-101.1,12-195.8,44.9-283.5,96.5
	c-55.6,32.7-114.7,46.1-178.7,39.6c-28.9-2.9-57.9-5.2-89.5-7.9c-1.1,10.9-2.3,19.7-2.7,28.6c-2.3,48.4-4.7,96.8-6.5,145.2
	c-9.1,250.6-1.6,501,11.1,751.3c0.4,7.8,2.5,15.6,3.9,24.1c27.9-1.8,53.4-3,78.8-5c64.9-5.1,124.5,8.9,180.8,42.8
	c76.5,46,158.8,78.4,247.3,93.4c97.2,16.5,194.5,19.3,291.9,2c91.8-16.3,178.1-47.8,258.2-95.5c31.8-18.9,65.2-33.9,101.8-38.7
	c28.8-3.8,58.3-3.2,87.5-3.8c24.5-0.5,49.1-0.1,76.9-0.1C2658.4,2674.4,2667.5,2361.5,2648.8,2044.3z M2305.3,579.4
	c2.8,41,5.2,78.2,7.8,115.5c11.5,164.9,51.7,322.8,117.6,474.1c42,96.3,87,191.4,128.5,287.9c63.7,147.9,107.8,301.6,119,462.7
	c9.2,132.2,16.5,264.7,18.5,397.2c2.2,146.2-1.2,292.6-4.4,438.9c-4.2,189.3-14.4,378.3-33.3,566.7c-4.5,44.5-10.3,89.1-19.6,132.8
	c-12.8,60.5-49.7,100.6-111.2,115.8c-12.4,3.1-24.6,7.1-37.2,9.4c-103.5,19-207.8,32.2-312.8,38c-209.6,11.5-418.7,4.4-626.5-26.9
	c-42.3-6.4-84.5-15.3-125.7-26.9c-45.9-13-77-44.6-92.8-89.9c-5.4-15.5-10.7-31.5-12.4-47.6c-11.1-106.3-24.6-212.6-30.9-319.3
	c-10-168.8-17.6-337.9-21.4-507c-5-225.8-3.6-451.7,18.8-676.9c12.4-125.3,34.7-248.2,82.1-365.1c39.8-98.2,82.5-195.2,125.4-292.1
	c73.8-166.8,140.4-335.8,158.4-519.4c4.8-49.1,5.9-98.5,8.4-147.8c0.5-9,1.4-20.6-10.3-22.6c-25.7-4.5-51.8-7-77.2-10.2
	c-2.1,5.8-3.6,8.3-3.8,10.9c-0.6,8.2-0.8,16.4-0.9,24.7c-1,87.1-9.5,173.5-26.8,258.8c-23.3,114.6-67.7,221.7-116.8,327.2
	c-40.5,87-81.3,173.9-118.7,262.3c-50.4,119.2-85.3,243-103.3,371.5c-15.1,108-20.2,216.7-24.1,325.4c-8.3,229.5-3.4,459,7.1,688.4
	c5.6,123.3,11.6,246.6,18.6,369.8c4.3,75.7,8.7,151.6,17.2,226.9c11.7,103,70,172.9,165.4,210.4c40.6,15.9,83.1,28.5,125.8,37.5
	c137.4,29.1,277,38.4,417,41c163,3.1,325.5-4.6,486.5-31.5c58.7-9.8,116.4-24.2,170.4-50c82.8-39.6,136.8-102.5,153.3-194.3
	c5.7-31.4,9.9-63.3,12.4-95.1c6.7-87.5,12.5-175.1,17.7-262.7c6.9-115.9,15.5-231.8,18.7-347.8c5.4-196.5,11.6-393.2,2.3-589.8
	c-4.1-86.7-8.4-173.5-16.7-259.9c-16.4-169.6-60.9-332.4-129.3-488.4c-42.6-97.1-88.8-192.6-132-289.4
	c-42.6-95.5-75.7-194.1-92.5-297.7c-11.9-73.3-16.5-147.1-16.9-221.3c-0.1-9.8-1.3-19.5-2-30.7
	C2370,568.4,2339.8,573.6,2305.3,579.4z M2642.3,3031.2c-43.1-4.7-83.6-8.6-124.6-6.7c-48.2,2.2-89.5,23.3-130.5,46
	c-172.9,95.7-357.4,122.7-551.4,91.2c-98.4-16-190.9-49-276.3-100.8c-42.8-25.9-88.8-38-138.4-36c-26.5,1.1-52.9,3.7-79.2,6.1
	c-6,0.5-11.8,2.8-16.7,4c-1.1,3.7-2.2,5.5-2.1,7.1c7,85.6,13.2,171.2,21.7,256.7c5,49.9,11.8,99.8,21.4,149
	c8.8,45.3,38.9,73.3,83.9,84.3c24.8,6,49.7,12.1,74.9,16.2c146.3,24.2,293.7,35.6,442,35.8c141.8,0.2,283.2-6.4,423.7-26.1
	c44.2-6.2,87.9-16.2,131.5-26.1c38.6-8.8,64.7-33.2,76.5-71.1c5.7-18.2,10.6-37.1,12.3-56c10-108.2,18.9-216.5,28.1-324.8
	C2640.4,3064.9,2641.1,3049.6,2642.3,3031.2z M2644.3,2001c1.9-6.3,3.1-8.1,2.9-9.7c-8.7-71.6-15.1-143.6-26.8-214.8
	c-17.1-104.2-54.1-202.9-91.6-301.2c-8-20.9-11.8-21.6-33-13.8c-18,6.6-36,13.1-54.5,18.3c-95.6,26.9-193.9,36.4-292.4,42.2
	c-157.3,9.3-314.5,7.5-470.8-14.6c-73.3-10.3-146.7-20.6-215.8-49.3c-3.1-1.3-7-0.7-11.1-1c-77.2,173-126.3,351.8-131.3,542.9
	c18.9,3.5,35.8,7.5,52.9,9.6c68.6,8.5,134.1,3.5,195.8-33.7c96.2-58,202.4-88.8,313.4-100.7c185.1-19.8,360.9,12.5,523.2,105.9
	C2482.8,2025.9,2562.8,2016,2644.3,2001z M2478.9,1368c-58.8-128.6-116.4-250.7-153.7-381c-37.5-130.7-53.4-264.3-56.1-401.3
	c-189.9,18.1-377.3,15.4-566.8,0.9c-0.7,10.6-1.5,19.5-1.7,28.4c-3.6,148.2-27.6,293.1-78.3,432.3
	c-34.6,95.2-76.2,187.8-114.6,281.5c-4.4,10.7-8.6,21.4-14.2,35.5C1822.5,1304.7,2147.3,1304.2,2478.9,1368z M2492.1,1420.2
	c-13.9-4.9-23.8-9-34-11.8c-98.3-27.4-199.4-37.2-300.6-42.8c-159-8.9-318-7.9-476.5,9.6c-60,6.6-119.3,17.4-177.3,34.2
	c-6.9,2-17.2,1.1-18.4,14.5c18,5.8,36,12.1,54.3,17.3c104.5,30,212.1,37.6,319.8,42.8c125.2,6,250.3,1.8,375.3-9
	c82.4-7.1,162.5-24,241.7-46.5C2480.5,1427.4,2484.1,1424.5,2492.1,1420.2z M2450.1,181.4c-19.7-18.4-39.9-20.3-59-24.2
	c-86.2-17.5-173.6-23.3-261.2-28.1c-137.1-7.6-274.1-4.5-410.7,7.4c-56.2,4.9-111.8,16.8-167.6,26.2c-8.1,1.4-15.6,6.1-23.4,9.2
	c0.1,2.3,0.2,4.5,0.3,6.8c11.5,4.4,22.7,10,34.6,13c62.9,16,126.7,27.2,191.6,31.5c137.8,9.2,275.6,12.3,413.5,4.6
	c84-4.7,167.4-14,249.1-34.8C2426.8,190.5,2435.9,186.4,2450.1,181.4z M1836.7,557.6c-0.2-99,1-194-0.5-289.8c-20.5,0-37.3,0-56.5,0
	c-0.2,96.1-0.9,190.3,0.2,287C1799.6,555.8,1815.7,556.5,1836.7,557.6z M1742.2,551.4c0-98.7,0-194.1,0-292.5
	c-16.7-0.8-32.4-1.7-50.9-2.6c0,98.2,0,192.6,0,289.2C1708.4,547.5,1724.2,549.3,1742.2,551.4z M1560,521.7
	c5.7-18.8,5.9-262.3,1-288.5c-15.1-5-31.1-10.4-50.3-16.8c-1,11-2.3,18.7-2.4,26.5c-0.6,70.4-0.9,140.8-1.3,211.1
	c-0.1,11.9,0.3,23.8,0.2,35.6c-0.1,9.2,3.4,16.4,12.1,19.4C1532.7,513.9,1546.5,517.7,1560,521.7z M1968.1,274
	c-7,40.2-5.8,267.3,1,286.2c15.9,0,31.8,0,48.1,0c0-96.7,0-191,0-286.2C1999.5,274,1984.4,274,1968.1,274z M2200.4,552.8
	c0-97.6,0-191.2,0-285.9c-10.1,0-18.2-0.4-26.2,0.1c-26.6,1.4-27.8,2.5-28,28.6c-0.6,77.6-1,155.2-1.4,232.7c0,8.8,1,17.5,1.8,29.3
	C2165.5,555.9,2181.6,554.5,2200.4,552.8z M2241,260.4c0,96.6,0,190,0,287c17.2-1.8,32.8-3.4,47.6-4.9c5.4-31.1,4.4-270-1.3-287.6
	C2273.5,256.4,2259.2,258.2,2241,260.4z M2057.7,272.8c-1.2,97.4-2,191.5-1.6,289.7c20-2,35.7-3.6,50.7-5.1c0-96.9,0-191.1,0-286.8
	C2089.7,271.4,2076.2,272,2057.7,272.8z M1923.6,561.7c0-99.3,0-193.8,0-288.7c-17.1,0-32,0-48.4,0c0,95.9,0,189.6,0,286.1
	C1891.5,559.9,1906.5,560.7,1923.6,561.7z M1649.3,537.5c0-98.1,0-193.2,0-290.7c-15.6,0-28.8,0-44.9,0c0,94.4,0,188,0,285.3
	C1618.5,533.8,1633.3,535.6,1649.3,537.5z M2379.1,526.9c0-94.9,0-187.4,0-283.6c-17.5,2.9-32.1,5.4-45.5,7.7
	c-7.1,38.8-5.8,264.8,1,282.6c4.5,0,9.2,0.6,13.6-0.1C2357.9,531.8,2367.5,529.4,2379.1,526.9z M2416.8,514
	c10.4-1.6,15.8-1.9,20.9-3.3c29.7-8.6,30.6-10.4,30.7-41.7c0.1-72,0.4-143.9,0.6-215.9c0-9.6,0-19.2,0-30.9c-11,2.5-18.1,3.8-25,5.6
	c-27.6,7.4-27.4,7.5-27.4,34.7c0.1,72,0.1,143.9,0.1,215.9C2416.8,489.1,2416.8,499.9,2416.8,514z"/>
<path d="M1988.5,2828.5c-12.8,10.8-20.6,16.9-27.8,23.6c-139.3,129.9-331.8,84.5-424.4-61.7c-46.4-73.3-66.4-153.6-51.3-241
	c21.4-124.3,113-198.7,239.5-193.9c10.8,0.4,21.5,0.1,35.4,0.1c-2.3-44.1-5.5-86.2-27.7-124.4c-3.2-5.5-7-10.7-10.1-16.3
	c-4.2-7.8-5.7-15.7,2.2-22.3c8.8-7.3,19.5-8.9,27.4-1c8.2,8.1,14.7,18.6,20,29c16.8,33.2,21.7,69.5,25.6,106c1,9,1.8,18,2.9,28.6
	c6.7,0.9,12.7,2.5,18.7,2.4c43.3-1.2,85.6,1.5,125,23.2c6.6,3.6,17.5,1.6,25.9-0.5c15-3.6,29.3-10,44.3-13.8
	c31.2-8,61.6-4.9,90.8,9.1c9.8,4.7,19.7,9.1,32.7,15c0-8.7,1.2-14.7-0.2-20c-14.5-54.6-42.9-100.4-86.8-136.4
	c-7.1-5.8-14.3-11.4-21.3-17.3c-8.1-6.8-9.8-14.8-4.7-24.4c5.6-10.5,14.6-14.6,25.1-10c9.8,4.3,19.6,10.1,27.5,17.3
	c16,14.6,30.8,30.5,47.9,47.8c4.9-7.8,9.3-13.3,12.1-19.6c28.5-63.1,78.4-100.5,144.6-114.6c38.2-8.1,77.7-11,116.8-13.8
	c26.6-1.9,33.4,5.4,30.9,32.2c-6,65.8-28.5,124.6-80,168.9c-39.5,34-86.6,45.4-137.7,42.7c-11.8-0.6-23.5-2.6-36.3-4
	c-6.3,19.3,2.5,34.1,9.3,53.1c12.1-4.8,22.8-8.7,33.2-13.2c63.6-27.6,124.8-24.8,181.2,17.4c33.5,25.1,51.3,61.7,63,100.6
	c41.2,137.9-24.3,310.5-145.3,387.8c-108.5,69.4-241.1,44.5-315.3-37.6C1997.4,2842.8,1994.3,2837,1988.5,2828.5z M1970.1,2790.4
	c-19.5-5.5-34.7-8.5-48.8-14.1c-29.3-11.6-38.7-36.9-41.5-65.7c-1-10.2,3.3-18.3,14.2-20.2c9.2-1.6,15.9,2.6,19.3,11.6
	c1.6,4.3,3,8.6,4.7,12.9c12.8,31,38.3,42.7,70.9,33.3c10.7-3.1,17.9-8.9,20.9-19.5c15.7-55.6,28.3-111.3,19.1-170
	c-18.2-117.3-112.7-177.2-228.8-157.8c0,7.9,0,16.2,0,26.1c11.2-2.4,20.1-4.5,29-6.2c8-1.5,16.4-4.4,24.2-3.5
	c7.2,0.9,18.3,4.8,19.6,9.6c1.6,5.7-3.7,15.6-9,20.5c-6.4,5.8-15.6,9.5-24.2,11.8c-44.4,12-88.7,9.8-132.3-4
	c-9.4-3-19.2-7.6-26.1-14.3c-4.9-4.8-7.9-14.6-6.8-21.3c0.6-3.5,11.9-8.1,18-7.5c13.5,1.2,26.6,5.4,39.9,8.4c9,2,18.7,5.3,22.5-7.3
	c3.1-10.3-3.2-16.9-17.7-17.5c-15.5-0.7-31.1,0-46.6-0.1c-43.6-0.3-79.9,16.6-110.2,47.1c-29.1,29.2-49.4,63.9-56.6,104.5
	c-18.2,103.6,10.7,194,83.1,269.2c71.2,74,156.6,93.1,253.2,56.9C1903.7,2856.8,1938.2,2827.8,1970.1,2790.4z M1998.3,2415
	c65.1,78.2,81.7,163.8,61.9,257.6c-2.1,10.2-3.8,19,3.4,28.3c7.5,9.7,6.2,21.3-0.7,30.7c-11.9,16.1-24.8,31.4-37.6,46.7
	c-5.6,6.7-12,12.7-18.5,19.5c20.8,32.8,49.1,52.7,80.6,67.7c36.6,17.4,75.1,28.9,116.5,22.4c41.4-6.5,78.8-22.4,111.8-48.4
	c81.5-64.2,119.7-150.1,123.5-251.9c1.8-48.4-10.7-94.4-39.4-134.3c-37.2-51.7-91.2-65.9-149.6-41.3c-6.7,2.8-13.4,5.8-20.2,8.5
	c-44.7,17.6-88.7,19.8-131.6-5.8c-6.2-3.7-12.9-7-19.8-9.3C2051.3,2396.2,2025.3,2397.9,1998.3,2415z M2389.1,2141.9
	c-4.1-0.9-8.5-3-12.6-2.4c-35,5.2-70.9,7.6-104.8,17.1c-54.5,15.3-88.7,55.1-110.1,106.2c-9.9,23.5-4.4,33.3,21.1,38.6
	C2276.7,2320.8,2381.3,2265.9,2389.1,2141.9z"/>
<path d="M1699.1,2640c0.5-32.3,22.2-54.6,52.2-53.6c29.9,0.9,50.4,24.1,50.1,56.5c-0.3,30.5-23.1,52.1-54.6,51.7
	C1717.5,2694,1698.6,2672.4,1699.1,2640z"/>
<path d="M2214.4,2586.8c30.9,0.2,53.9,24.5,53.4,56.6c-0.4,30.9-23.6,53.5-54.1,52.7c-27.5-0.7-52.2-27.7-51.2-57
	C2163.6,2612.4,2185.9,2584.4,2214.4,2586.8z"/>
</svg>
