<?xml version="1.0" encoding="utf-8"?>
<!-- Generator: Adobe Illustrator 24.3.0, SVG Export Plug-In . SVG Version: 6.00 Build 0)  -->
<svg version="1.1" id="Layer_1" xmlns="http://www.w3.org/2000/svg" xmlns:xlink="http://www.w3.org/1999/xlink" x="0px" y="0px"
	 viewBox="0 0 4000 4000" style="enable-background:new 0 0 4000 4000;" xml:space="preserve">
<path d="M559.5,3116.4c-6.5-1.2-10.2-2.6-13.7-2.3c-98.2,7.7-208.2-81.3-241-189.1c-24.6-80.8-19.9-158,29.9-229.1
	c26.6-37.9,63.7-63.6,103.1-86.3c112.5-65,233.1-109.2,358.8-140.2c6.1-1.5,12.1-3.7,20.2-6.2c-3.4-9.3-5.8-17.1-9.2-24.5
	c-49.4-107.5-53.6-217.9-21.4-330.6c33.1-115.4,93.3-215.8,174.4-303.2c75.6-81.4,153.4-160.7,231-240.2
	c168-172,322.7-355.4,473.3-542.5c31.3-38.8,62.9-77.6,97.4-113.6c99.8-104.1,221.9-148.3,365.5-130.4
	c90.1,11.3,172.6,44.6,251.8,87.2c12.2,6.5,24.4,13,40.5,21.5c0-20,0.3-35.6,0-51.3c-2.6-131.8,14.2-261.2,51.6-387.4
	c10.6-35.6,26.5-70.9,46.5-102.2c51.3-80.6,145.3-115.7,238.5-94.6c94,21.3,158.5,78.6,200.6,163.4c28.1,56.6,12.5,47.5,77,45.6
	c48.2-1.4,95.7,2.8,142.3,17.3c103,32,171.2,100.1,205.6,200.8c12.6,37,17.3,76.8,25.2,115.5c2.4,12,3.9,24.2,5.3,36.3
	c3.7,32.5,22.5,50.4,54,56.3c48.5,9.2,94.8,24.4,136.3,51.9c66.6,44,103.2,107.2,108.3,185.7c3.7,56.4-17.6,107-55,150.1
	c-28.2,32.5-63.5,55.9-99.9,77.7c-116.1,69.8-239.5,122.1-371.5,153.7c-22.7,5.4-45.6,9.6-72.4,15.2c4,12.3,6.4,21.8,10.1,30.8
	c25.8,61.2,42.2,125,47.5,191c10.6,131.3-32.1,245.2-120.7,341c-68.4,74-139.6,145.3-210.3,217c-202.4,205.2-396,418.5-582.8,638
	c-49,57.5-101.9,110.8-165.3,153c-98.5,65.5-207.4,91.7-324.4,85.9c-71.7-3.5-142.2-15.1-210.5-38.2c-4.4-1.5-9-2.5-13.6-3.3
	c-1.7-0.3-3.6,0.8-8,1.9c-2.1,33.6-4.5,68.1-6.4,102.6c-5.8,102.9-23.4,203.8-52.9,302.5c-15,50-36.9,96.8-73.3,135.4
	c-67.6,71.8-150.6,91.4-242.6,63c-107.8-33.3-181.1-104.6-214.8-213.8c-5-16.2-8.9-32.7-13.5-49c-9-32.3-9.8-32-42.6-29
	c-45.9,4.2-92.1,8.6-137.7-2c-77.6-18-133.5-63.3-166.2-135.9c-22.4-49.9-30.4-102.6-25.6-157.2
	C560.4,3142.8,559.5,3130.6,559.5,3116.4z M2462.4,953.3c-17.4-8.7-30-14.1-41.7-21.1c-79.6-47.5-163-86.1-253.4-108.2
	c-130.5-32-246.4-1.9-346.6,86c-33.1,29-62.4,62.7-90.9,96.4c-79.4,94.3-156.6,190.5-236.3,284.6
	c-106,124.9-218.2,244.2-332.2,361.9c-76.5,79.1-155.8,155.7-223.5,243c-62.1,80.1-106.2,168.5-124.5,268.8
	c-7.4,40.8-11.1,81.7-6.1,123.5c7.5,62.7,28.4,120.6,57.4,176.1c4.1,7.8,6.9,16.3,11.6,27.5c-15.2,4-26.9,7-38.4,10.1
	c-53.5,14.6-107.6,27.3-160.2,44.5c-87,28.4-169.3,67.8-248,114.7c-92.3,55.2-113.8,142.3-95,227.4c12.7,57.5,43.9,103.4,88.4,140.8
	c25.8,21.6,55,35.9,88.9,39.6c17.8,2,35.5,4,53.2,6.1c32.3,3.7,35.6,7.8,35.3,41.1c-0.3,35.7-2.5,71.7,0.7,107.2
	c11.5,126.8,117.1,205.7,249.2,190.2c22.4-2.6,44.7-6.2,67-9.8c17.3-2.8,29.5,3.9,36.6,19.5c3.9,8.5,7.1,17.4,9.9,26.3
	c9,28.7,16.1,58.1,27,86.2c27.3,70.7,75.9,122.1,144.4,155.1c116.9,56.4,231-0.1,278.9-98.4c5.4-11,10.3-22.2,14.7-33.6
	c36-93,51.4-190.5,59.8-289.1c4.5-52.4,3.5-105.3,5.1-158c0.3-9.9,0.9-19.8,1.5-33.6c15.5,4.2,27.4,6.4,38.4,10.6
	c83.4,32.2,169.4,49.3,259,48.8c48.2-0.3,95.4-5.3,142.2-18.1c85-23.2,157.2-67.9,217.7-130.5c52.9-54.8,103.4-112,153.3-169.6
	c202.5-233.3,414.3-457.8,632.2-676.6c43.1-43.3,86-86.8,122.2-136.6c61-83.7,80.4-176.9,69.2-277.9
	c-8.1-72.9-32.9-140.8-64.4-206.5c-4.7-9.8-8.4-20-13.8-32.8c15.4-3.1,27.2-5.8,39.1-7.9c19.4-3.5,39-6.2,58.3-10.1
	c125.7-25.2,243-72.9,354.9-134.1c43.7-23.9,87.1-49.4,120.8-87.2c46.6-52.2,59.3-112,35.4-178.3c-23.4-65-70.6-105.2-135.4-125.8
	c-27.8-8.8-56-16.3-84-24.2c-29.6-8.3-49-27.1-57.9-56.4c-3.3-10.8-6.3-21.7-8.2-32.8c-5.5-31.5-9.5-63.3-15.7-94.7
	c-23.6-120.8-113.4-225.1-256.3-235.6c-37.3-2.8-75.2-0.4-112.7,1.9c-25.5,1.5-39.9-8.5-50-31.5c-12-27.5-25-55-41.5-80
	c-39.7-60.3-94.6-99.6-168.1-106.5c-78.6-7.3-142.8,18.8-184.4,88.9c-11.4,19.3-22.1,39.8-28.6,61.2c-13.3,43.1-26,86.6-34.6,130.8
	c-22.7,116.1-25.3,233.7-20,351.6C2462.8,927.9,2462.4,937.8,2462.4,953.3z"/>
<path d="M2520.7,1044.3c-4.2-37.5-9.2-71.9-11.9-106.4c-11-142.6-3.8-284.2,30.6-423.4c9.4-38,23-76,41.1-110.6
	c37.5-71.3,113.8-95.8,188.4-65.1c50.9,21,88.4,56.3,112.8,105.6c10.9,21.9,21.9,43.7,33.5,65.2c12.9,23.7,33.1,34.9,60.4,33.7
	c19.7-0.9,39.6-2.3,59.3-1.3c34.7,1.7,69.9,1.9,103.8,8.5c73.5,14.2,124.8,58.7,156.6,125.8c15.8,33.4,24.5,69,29,105.7
	c3.2,26.1,7,52.3,11.9,78.1c10,52.9,40.1,87.9,93.2,102c24.5,6.5,49,13.4,73.2,20.9c61.4,19,107,54.2,122.4,120.2
	c9.4,40.3,3.4,78-25.5,107.8c-22.7,23.4-47.8,45.9-75.4,63c-135.8,84-281.1,143.8-440.5,165.3c-23.3,3.1-46.8,4.9-70.2,7.4
	c-10.1,1.1-20.1,2.8-33.5,4.7c4.5,9.3,7.1,15.9,10.7,21.9c39,66,70.2,135.2,88,210c30.4,127.4,4.9,241.3-85.4,337.6
	c-77.2,82.4-155.6,163.8-234.9,244.2c-157.5,159.5-307.6,325.7-455.6,493.9c-65.2,74.1-130.1,149.1-200.7,217.9
	c-72,70.2-160.8,108.3-263.3,115.2c-115.6,7.7-224.4-15.4-329.9-60.2c-15.6-6.6-31.1-13.4-46.7-19.8c-1.5-0.6-3.6,0.3-8.8,1
	c0,14.2-0.3,28.9,0,43.5c3.1,140-11.5,278.2-44.4,414.3c-7.9,32.8-18.9,65.2-32.3,96.1c-51,117.5-157.6,119.8-236.8,76.6
	c-57.9-31.5-97.6-78.8-115.4-143.2c-6.8-24.5-13.9-48.9-21.6-73.1c-3.4-10.7-8.2-21-12.9-31.2c-11.3-24.1-31.1-35.1-56.9-33.6
	c-28.1,1.7-56.2,5.2-84.2,8.3c-42.1,4.6-82.6,0.1-120.6-19.9c-45.7-24.1-72.1-62.9-81.1-112.7c-4.5-24.8-5.1-50.5-5.8-75.8
	c-0.7-27.3,1.1-54.6,0.7-81.9c-0.4-24.6-8.1-34.3-32.1-39.2c-18.4-3.7-37.3-5.8-56-6.4c-103.9-3.4-175.7-95.1-181.9-183.6
	c-3.5-50.4,13.5-94.2,52-128.8c44.1-39.6,96.5-65.3,149.6-89.6c110-50.3,225.3-84.1,344.2-105.5c5.5-1,11.2-1.2,16.8-1.9
	c5.3-0.7,10.6-1.7,20.4-3.4c-7.4-11.7-12.8-21.1-19.1-29.9c-35.2-49.4-64.1-101.7-79.3-161.1c-20.2-78.9-8-155.4,17.9-230.2
	c34.2-98.6,92.3-182.6,163.8-257.8c103.2-108.4,207.5-215.7,309.8-325c141.6-151.3,274.5-310,404.8-471.1
	c26.6-32.9,54.6-65.1,85.1-94.2c69.6-66.3,152-104.3,250-97.4c57.6,4,112.4,21.3,166.2,42.4c85.6,33.6,163.5,80.8,239.1,132.1
	c5.4,3.7,10.8,7.6,16.4,11C2511.9,1042.4,2514.8,1042.6,2520.7,1044.3z M1299.1,2286.1c-3.4,10.9-4.5,16.2-6.7,21
	c-38.6,84.5-46.5,171.6-24.1,261.8c19.6,79.2,61.9,139.8,138,175.2c70.9,33,144.6,53.1,222.9,55.8c73.4,2.6,144.8-5.2,210.1-42.8
	c4.3-2.5,9.6-3.1,16.1-5c1.8,17.2-9.5,22.2-18.5,27.7c-35.5,21.9-73.4,38.7-114.7,45.6c-92.8,15.6-183.7,5-273-23.1
	c-10.2-3.2-20.6-6-32.9-9.6c7.9,35.2,18.6,65.9,20.9,97.2c3.3,45.4,23.5,69.7,66,88.6c103.3,46,208.6,73.5,322.5,67.7
	c87.1-4.5,164.3-32.7,228.4-91.2c42.3-38.6,81.7-80.7,119.4-123.9c176-201.2,356.1-398.8,541.7-591.2c81-84,163.4-166.7,244.1-251.1
	c85.5-89.5,104.7-195.6,69.1-311.5c-40.3-131.1-109.2-247.8-193.5-354.9c-78.8-100.1-184.5-152-311.9-159.3
	c-70.9-4.1-138.5,9.1-203.1,38.4c-10.2,4.6-20.1,13.7-38.3,5.8c10.8-9,18.1-17.3,27.1-22.3c62.8-34.6,129.6-55.2,201.9-55.5
	c9.9,0,19.9,0,35.9,0c-8.6-8.1-12-12.3-16.2-15.2c-48.1-33-94.7-68.4-144.8-98.2c-73.6-43.8-150.2-82.6-234.2-103.3
	c-87.7-21.7-169.7-9.7-244.6,43.2c-35.8,25.3-65,57.1-92.6,90.5c-119.1,144.5-235.3,291.5-363.1,428.7
	c-105.2,112.9-211.6,224.8-318.2,336.4c-58.6,61.4-114.4,125-161.1,196.1c-39.8,60.6-66.5,126.7-75.6,198.8
	c-12.4,98.5,22.8,181.9,80,260.1c26.3,36,53.5,54.4,99.8,50.4c50.1-4.3,96.5,12.1,136.1,45c5.2,4.4,12.4,6.4,20.6,10.5
	c0-8.1,0.8-12.8-0.1-17.2c-7-34.5-7.6-69-3.5-103.9c5.3-45.2,14.8-89.1,35.7-129.8C1271.2,2308.4,1277.8,2294.6,1299.1,2286.1z
	 M2782.8,1206.7c9.1,8.3,17.6,15.5,25.5,23.2c16.8,16.4,35.2,31.7,49.5,50.1c10.7,13.8,21.2,17,36.2,11.7
	c44.3-15.6,89.7-28.5,132.5-47.5c80.2-35.5,156.2-78.7,224.2-134.9c6.2-5.1,12.6-12.2,23.5-4.6c-2.4,4.8-3.5,10.8-7.2,14.1
	c-106.1,97.4-226.9,169.6-368.7,209.6c15.2,21.4,29.1,40,41.8,59.4c7.1,10.7,15.5,14.9,28.2,13.7c30-2.8,60.1-3.8,90-7.2
	c153.9-17.8,295.9-70.1,427.1-151.8c25.4-15.8,49.3-34.7,71.7-54.6c25.8-23,31-52.3,18.3-84.9c-14.1-36.2-40.7-58-77.1-68.5
	c-27.1-7.8-54.6-14.3-81.7-22.2c-69.3-20.2-112.3-66-129.5-135.9c-3.4-13.7-5.4-27.7-8.4-41.5c-6.2-27.5-10.7-55.6-19.4-82.3
	c-18.4-56.3-59-88.6-117-96.9c-30.6-4.4-61.9-4.6-92.8-6.1c-49-2.4-96.3-13-135.1-43.1c-28.6-22.2-52.5-50.8-77.2-77.7
	c-21.6-23.5-39.6-50.5-62.5-72.5c-27.3-26.3-59.6-46.1-98.8-50.5c-31.9-3.6-45.7,1.8-58.9,31.4c-14.5,32.5-28.1,66-36.6,100.4
	c-34.6,140.5-39.6,283-22.4,426.2c4.7,39,14.5,77.7,26.3,115.3c10.9,34.9,37.5,56,73.1,65.4c1.8-4.2,3.3-5.9,3.2-7.5
	c-3.9-109.6,7.1-218,26.6-325.6c7.6-41.5,19-82.4,29.7-123.3c2.4-9.1,3.8-20.9,21.4-23.8c-2,13.2-3.1,24.7-5.7,35.9
	c-30.6,130.7-45.8,263.2-43.8,397.5c0.9,61.3,1.6,61.3,58,86.8c0.8,0.4,1.9,0.2,6,0.5c7.1-6.9,16.2-14.9,24.1-23.8
	c59.5-67,113.2-138.5,161.5-213.8c22.3-34.8,42.1-71.3,63.1-106.9c4.4-7.4,6.8-18.2,22-13.7c-1.2,5.8-1.4,11.3-3.4,16.1
	C2963.8,977.9,2879.5,1095,2782.8,1206.7z M960.2,2884.6c4.8-8.1,8.2-16.4,13.8-22.7c71.4-80.8,149.1-154.2,243.9-207.6
	c4.7-2.7,8-7.9,15.9-16c-14.5,0.7-23.1-0.3-31,1.6c-71.3,17-143.5,31.3-213.3,53c-62.6,19.5-122.7,47.4-183.8,71.6
	c-8.3,3.3-16.4,9.3-28.6-1.6c8.2-6.4,14.6-13,22.3-17.1c21.5-11.7,43.1-23.2,65.4-33.3c95.4-43.3,195.4-72.9,296.8-98.4
	c8.5-2.1,16.9-4.9,31.2-9.1c-15.2-10.2-24.5-17.9-35-23.4c-34.3-18.2-71.6-22.5-109.7-20.1c-169.3,10.7-330,54.3-482,129.2
	c-33.6,16.6-65.7,36.8-96.9,57.7c-26,17.4-29.4,33.9-19.1,63.7c7.7,22.3,21.5,39,42.7,50.3c24.8,13.3,51.6,16.9,78.9,18.9
	c68.8,4.9,105.3,33,122.4,100.2c9.2,36.3,14.4,73.9,18.3,111.2c11.1,107.8,79.9,168.2,184.9,178.9c20.6,2.1,41.3,3.4,61.8,6.4
	c68.3,10.2,124.8,39.9,163.4,99.4c14.8,22.9,30.1,45.7,47.5,66.6c37.5,45.2,84,75.1,144.7,77.6c24.4,1,29.1-1.9,38.3-24.3
	c2.9-6.9,4.9-14.2,7-21.4c19.4-68.1,33.7-137.5,37.7-207.9c5-87.3,5.2-174.9,4.9-262.4c-0.1-37.5-5.2-75.1-10.7-112.3
	c-6.5-44-19-86.4-44-124c-5.3-8-12.9-14.4-24.2-26.6c-4.3,19.2-7.2,31.7-9.8,44.2c-22.9,110.5-43,221.8-79.3,329
	c-17.8,52.5-38.9,103.9-58.9,155.7c-2.8,7.2-5.3,17.6-20.7,9.4c3-9.8,5.7-20.3,9.4-30.4c53.6-145.3,88.5-295.3,111.9-448.1
	c4-26,8.4-52.2,9.2-78.4c1-35.6-22.6-50.2-53.1-33.5c-23.1,12.6-45.2,27.1-67,41.9c-63.2,42.9-121.6,91.9-177.4,144
	C981.3,2882.3,975.7,2891.3,960.2,2884.6z M1020.5,3349.6c2.8,7.5,3.3,11,5.1,13.7c17.2,25.3,26.3,53.8,33.6,83.2
	c5,20,9.9,40.3,17.5,59.4c25.6,65.3,75.7,100.9,143.1,114c32.9,6.4,61.3-4.9,86-26c4.2-3.6,5.7-10.2,9.3-17.2c-9-2.6-15-4.8-21.3-6
	c-44.6-8.3-83.8-27.8-117.3-58.1c-16-14.4-31.5-29.7-45.1-46.3c-22.1-26.8-42.2-55.3-63.8-82.6
	C1056.2,3369.4,1043.7,3355.6,1020.5,3349.6z M657.7,3001.2c-4.2-10.3-7.7-19.9-12-29.2c-11.9-25.7-30-42.7-60.5-42.6
	c-11.2,0-22.4-2.4-33.6-3.3c-38.4-2.9-73.7-13.4-103.1-39.9c-4.2-3.8-10-5.6-17-9.4c0,6-0.6,8.9,0.1,11.3c1.7,5.3,3.5,10.8,6.3,15.6
	c26.1,45.7,63.5,76.1,116.7,84C587.7,2992.7,621,2996.4,657.7,3001.2z M694.8,3201.5c-3.1,39.2,6.5,73.4,39,96
	c37.8,26.3,80,29.4,123.9,17.6C788.9,3298.1,733.6,3263.1,694.8,3201.5z M3041.8,595.5c32,8,64.2,12.3,97,6.9
	C3107,592.4,3074.6,590.9,3041.8,595.5z"/>
<path d="M2427.7,1704.2c-0.6,64.8-54.5,116.2-120.5,115.2c-62-0.9-112.6-53.8-112.4-117.4c0.2-66,51.1-119,114.1-118.8
	C2375.5,1583.6,2428.4,1637.4,2427.7,1704.2z M2302.8,1616.5c-21.3-0.6-35.4,12.6-36.2,33.9c-0.8,20.3,14.2,37.7,32.8,38.2
	c19.5,0.5,37.1-17.7,37-38.2C2336.4,1631.2,2322.3,1617,2302.8,1616.5z"/>
<path d="M1802.4,2118.8c62.7,0.5,115.6,55.2,114.8,118.7c-0.9,64.9-51.1,116-113.6,115.6c-68.1-0.4-121.4-52.6-121.1-118.5
	C1682.9,2169.6,1735.9,2118.3,1802.4,2118.8z M1788.8,2225.6c22.3-0.6,39.4-18.3,38.3-39.5c-1-18.6-16.1-32.9-34.8-33
	c-22.2-0.1-39.7,16.7-39.8,38.2C1752.5,2210.4,1769.1,2226.1,1788.8,2225.6z"/>
<path d="M2875.2,1489.2c57.5,49,94.3,190.2,69.3,312.2c-19.2,93.8-118.2,235.9-173.5,249.5c-5.4-13,5.8-18,12-25.2
	c25.5-30.1,52.6-59,76.1-90.6c31.8-42.6,53.4-90.7,64.3-143.1c12.7-61.2,9.2-122-8.9-181.4c-9.8-32.2-24.5-62.9-36.8-94.4
	c-3.2-8.1-5.8-16.3-8.7-24.5C2871,1490.9,2873.1,1490.1,2875.2,1489.2z"/>
<path d="M2209.1,1979.2c-3.7,87.8-89.8,170.3-196.8,123c-2.6-1.1-5.1-2.4-7.5-3.9c-13.4-8.8-18.1-18.6-12.6-27.5
	c8.2-13.4,18.5-8,29.4-3.4c52.8,22.2,90.9,15.5,122.8-21c31.2-35.6,34.9-75.7,10.6-116.7c-2.4-4-6.6-8.3-6.4-12.3
	c0.3-6.6,1.5-15.8,6-19c4.3-3.2,15.2-3,19.5,0.3c7.8,6.1,15.2,14.9,18.7,24.1C2199.7,1941,2203.8,1960.3,2209.1,1979.2z"/>
<path d="M1799.7,2537.7c-41.6,0.2-58.1-24.6-42.2-63.1c11.9-28.8,32.5-50.3,57.2-68.3c25.1-18.2,50.3-36.6,82.5-40.4
	c35.6-4.2,57.2,18.4,49.7,52.1C1934.6,2472.4,1854.7,2537.4,1799.7,2537.7z M1798.8,2514.5c3.5-0.6,9.3-0.8,14.6-2.6
	c41.2-13.8,75.1-38.1,101.1-72.8c13.1-17.5,15.1-35.1,6-43.9c-12.9-12.5-28.2-8.5-42.2-2.8c-32.6,13.3-61.2,33-83.4,60.4
	c-8.5,10.6-14.9,24-18.6,37.2C1771.6,2506.9,1779.2,2514.4,1798.8,2514.5z"/>
<path d="M1089.1,2003c-5.7,9.3-9.8,17-14.8,24.2c-25.8,36.5-46.1,75.5-54.3,119.9c-15.2,82.4,6.1,154.6,61.2,217.4
	c10.2,11.6,20.2,23.5,30.9,35.9c-13.3,10.7-20.6,4.2-27.6-1.9c-47-40.6-79.6-90-91.4-151.8c-16.9-89,13.4-164.8,66.2-234
	C1067.7,2001.6,1068.6,2002.2,1089.1,2003z"/>
<path d="M1661.7,2930.4c10.4,4.7,17.9,7.9,25.2,11.4c119.9,58.1,231,44,333.2-40.8c20.9-17.4,40.2-36.7,60.4-55
	c8.1-7.3,16.8-13.9,25.2-20.8c1.8,1.2,3.6,2.5,5.4,3.7c-2.1,6.4-2.5,14.2-6.6,18.9c-75.2,88-162.5,153.5-285.4,152.1
	c-51.2-0.6-97.4-18.1-141.8-41.5C1668.6,2953.9,1658.7,2949.1,1661.7,2930.4z"/>
<path d="M2609.3,1691.3c-8.9,53.2-36.1,102.1-84.5,138c-7.9,5.9-18.7,9.5-28.6,10.9c-35.3,5.1-59.1-20.2-50.6-54.9
	c11.6-47.7,35.8-89,72.7-121.5c11.4-10.1,27.3-17,42.3-20.8C2588.7,1636.1,2610.8,1656.4,2609.3,1691.3z M2589.2,1693.4
	c0.5-21.4-11.3-33.2-28.3-28.6c-12.1,3.3-24.6,9.8-33.7,18.3c-27.5,25.4-44.3,57.8-55.8,93.2c-1.7,5.3-3,10.9-3.4,16.5
	c-1.4,18.9,8.8,28.1,27.6,24.8c5.5-0.9,11.3-2.6,15.9-5.5C2556.4,1783.5,2577.5,1739.6,2589.2,1693.4z"/>
<path d="M1772.2,1203.8c1.5-6,1.8-12.7,4.7-17.9c39.5-71.1,82.9-139.4,150.4-188.1c33.9-24.5,71.2-42.4,112.3-50.8
	c11.4-2.3,24.1-0.3,35.8,1.7c3.3,0.6,5.5,8.2,9.1,14.1c-6.2,2.5-10.2,5.4-14.4,5.7c-64.7,4.6-116.4,36.8-161.1,79.9
	c-28.9,27.9-52.8,61.1-78,92.7c-13.5,16.9-24.6,35.6-37.4,53.1c-4,5.5-10.1,9.4-15.2,14C1776.4,1206.7,1774.3,1205.2,1772.2,1203.8z
	"/>
<path d="M2155.1,1041.9c-22.9,6.9-44.5,11.6-64.6,19.9c-21.5,8.8-42.7,19.3-61.9,32.3c-18,12.1-33.1,28.4-49.6,43
	c-8.8-11.1-1.8-17.5,3-23.9c37.1-49,87.6-74.5,147.3-83.5C2140.1,1028,2140.3,1028.8,2155.1,1041.9z"/>
<path d="M1137.1,1923.4c1.6-6.5,1.4-14.5,5.2-19.2c32.4-40.3,67.7-77.9,110.7-107.3c2.8-1.9,6.8-2.3,14.6-4.7
	c-2.3,8.7-2.2,15.3-5.5,19.3c-8.3,10.1-18,19.1-27.3,28.4c-25.1,25.3-50.1,50.6-75.5,75.6c-4.8,4.7-11.1,7.8-16.7,11.7
	C1140.9,1925.9,1139,1924.7,1137.1,1923.4z"/>
<path d="M2288.8,1023.4c9.6,9.9,9.5,20.8-0.3,21.8c-22.7,2.3-46.7,8.3-68.2-5.9c-2.7-1.8-4.1-5.6-5.8-8.1c5.7-11.7,15.3-10,22.4-6.9
	C2255,1032.1,2272.5,1035.2,2288.8,1023.4z"/>
<path d="M2181.4,2734.7c-2.9,21.3-17.5,32.2-37.7,45.6C2150,2755.3,2161.5,2741.6,2181.4,2734.7z"/>
<path d="M2686.3,2122.8c8.6-9.8,17.2-19.6,28.4-32.3c3.6,7.6,7.5,12.2,6.4,14.3c-6.1,12.3-13.6,23.6-29.2,23.7
	C2690.1,2126.6,2688.2,2124.7,2686.3,2122.8z"/>
<path d="M1740.8,1264.7c-6-18,1-24,15.5-25.7C1758.1,1254.5,1758.1,1254.5,1740.8,1264.7z"/>
<path d="M3505.8,1139.2c-4.1,7.3-6.1,13.7-10.4,17.8c-9.5,9.1-19.3,18.1-30.3,25.1c-109.4,70.3-226.8,121-355.4,143.5
	c-12.5,2.2-27.6,9.3-39-6c5.4-12.4,17.4-10.8,26.4-12.5c72.3-13.7,141.9-35.8,209.4-65.1c60.4-26.3,119.9-54.1,172.1-95.2
	c5.1-4,11.2-6.7,17.1-9.5C3496.9,1136.5,3499.1,1137.8,3505.8,1139.2z"/>
</svg>
