<?xml version="1.0" encoding="utf-8"?>
<!-- Generator: Adobe Illustrator 24.3.0, SVG Export Plug-In . SVG Version: 6.00 Build 0)  -->
<svg version="1.1" id="Layer_1" xmlns="http://www.w3.org/2000/svg" xmlns:xlink="http://www.w3.org/1999/xlink" x="0px" y="0px"
	 viewBox="0 0 4000 4000" style="enable-background:new 0 0 4000 4000;" xml:space="preserve">
<path d="M2162.9,682.6c7-3.3,12.4-6.1,18-8.3c28.4-11.4,56.7-23.1,85.3-33.9c12.3-4.6,12.6-3.8,13.3-17
	c2.7-55.9,19.2-107.2,50.8-153.6c36.1-52.9,85.6-85.8,148.8-96.1c36.5-5.9,72.3-1,105.6,16.6c3.4,1.8,6.8,3.4,11.7,6
	c3-6.2,5.8-11.5,8.2-16.9c31.8-70.3,72.6-134.6,129.5-187.3c64.2-59.6,136-106.6,223.2-125.6c12.5-2.7,25.3-5,38-5.2
	c25-0.4,42,23.2,35.4,47.1c-3.2,11.6-10.1,20-22,22.9c-8.6,2.1-17.6,2.9-26.3,4.7c-50.4,10.4-96.2,31.6-138.5,60.5
	c-78.3,53.4-137.5,123.1-177.7,209c-1.4,2.9-2.5,6-4.1,10.1c4.6,0.9,8.2,1.9,11.9,2.3c57.7,5.5,100.4,35.8,130.5,83.2
	c42.9,67.4,45.9,140.5,24.5,215.8c-4.6,16-4.8,16,7,25.2c86.9,67.9,146.3,155.1,181.8,259c32.8,96,33.7,193.7,14.6,292.3
	c-11,56.9-30.5,110.7-61,160.1c-5.8,9.4-5.5,17.3-0.3,26.4c44.3,79,69.8,163.9,77.5,254c2.6,30.5,1.9,61.3,1.6,92
	c-0.1,11.4,2.3,19.8,10.9,27.9c25.4,24,42.2,53.4,47,88.4c1.7,12.5,1.8,25.6,0.3,38.2c-1.2,10,0.5,18.1,4.5,27.1
	c23.6,53.6,23.2,106.1-10,156.1c-6.1,9.2-13.7,17.9-22.3,24.8c-44.4,35.6-72.5,82.8-95.9,133.2c-30.3,65.4-52.9,133.7-74.1,202.5
	c-30.2,98-58.6,196.6-98.3,291.5c-32.6,77.9-70.5,152.9-118.6,222.5c-79.9,115.6-184.3,202.2-310.3,263.2
	c-20,9.7-40.6,18.5-61.1,27.1c-9,3.8-13.8,9.2-16.3,19c-9.4,37.8-13.9,75.6-6.3,114.2c0.9,4.4,2.2,8.6,3.4,12.9
	c5,17.3,15.1,28.2,33.7,33c37.2,9.6,74.3,20,110.6,32.4c22.5,7.7,44.7,17.6,65.1,29.9c52.1,31.4,65.8,92.1,58.2,138.1
	c-7.7,46.4-33.5,79.2-76.1,99.1c-39.1,18.3-80.6,29.4-122.5,38.8c-81.2,18.2-163.4,29-246.4,34.8c-80.3,5.7-160.5,5.5-240.8,2.6
	c-113.4-4.1-225.6-17.8-336-44.1c-36.3-8.7-71.7-20.6-105.3-37.4c-81.2-40.5-91.3-146.3-43.9-205.2c15.1-18.8,34.2-32.6,56.3-40.7
	c36.5-13.5,73.8-25.1,110.8-37.3c14.3-4.7,28.7-9.1,43.3-12.8c14.5-3.6,22.9-12.5,27.6-26.2c8.9-26.3,12-53.3,9.7-80.8
	c-1.5-17.2-4.8-34.2-7-51.3c-1.6-12.3-8.1-19.4-19.6-24.4c-33.2-14.5-66.8-28.5-98.4-45.9c-87.8-48.3-164.3-110.7-228.6-188
	c-81-97.3-136.8-208.3-181.3-325.8c-31.2-82.5-55.3-167.2-79.9-251.8c-17.9-61.6-36.3-123.1-62.8-181.6
	c-14.2-31.4-32-61.2-48.9-91.2c-11.1-19.7-27.5-34.9-44.9-49.1c-21-17.2-38.2-37.4-48.1-63.1c-14.8-38.4-11.4-76.5,2-114.5
	c1.3-3.7,3-7.2,4.7-11.5c-4.4-6.7-9.4-13.3-13.2-20.6c-25.4-49-18.4-96,9.9-141.1c6.1-9.8,14.7-18.2,23.2-26.2
	c5.9-5.6,8.4-11.3,7-19.2c-8.2-48.3-6.3-96.8,0.2-145c16.1-119.1,61.6-225.4,142.1-315.3c23.7-26.5,50.7-50.1,77-74.2
	c7.2-6.6,9.1-12.3,7.2-21.6c-22.5-109,34.7-224.6,145.5-272.7c11.2-4.9,25.3-5.8,33.6-13.5c8.3-7.6,10.5-21.6,16.4-32.3
	c26.4-47.4,65.4-81.4,114.2-104.3c17.1-8,35.1-14.1,53.1-19.9c7.7-2.5,12.2-5.1,14.3-13.6c18.1-72.8,66.3-116,137.4-133.4
	c31.7-7.7,64.9-10,97.5-13.8c25.8-3,50.5-9.1,72.9-22.3c27.5-16.2,42.2-40.4,44.2-72.4c0.7-11.5-1.2-22.1-7.6-31.9
	c-3.9-6.1-7.5-12.5-10.4-19.1c-12.9-29.3,7-61.1,38.9-62.1c6.6-0.2,13.4,0.8,19.8,2.4c90.2,21.4,165.5,67.6,227.2,136.3
	c29.6,32.9,55.6,68.3,73.3,109.3C2158.8,676.3,2160.5,678.5,2162.9,682.6z M2847.3,2180.6c23.5,17.6,23.6,17.8,9.4,44.9
	c-1,2-2.2,3.9-3.1,5.9c-10.4,21.6-21.4,42.9-31,64.9c-32.9,75.2-56.1,153.9-80.2,232.2c-28.7,93.3-59.4,185.9-104.1,273.1
	c-36.6,71.3-80.1,137.8-134.2,197.2c-4.8,5.3-10.2,10.4-16.3,14c-8.5,5.1-16,3.2-22.4-3.9c-6.3-7.1-6.7-14.2-0.9-22.8
	c2.5-3.7,5.6-7,8.6-10.3c41.5-46.3,77-97,108.3-150.5c48.4-82.8,82.7-171.6,110.2-263.1c31.5-104.6,62.9-209.3,107.7-309.2
	c2.4-5.3,3.8-11,6.4-18.6c-6.6,1.2-10.4,1.7-14,2.5c-64.2,14-128.4,28.2-192.7,41.8c-18,3.8-36.2,6.4-54.4,8.6
	c-11.1,1.3-18.1-4.5-20.9-14.9c-2.8-10,0.7-19,10.5-23.7c5.4-2.6,11.5-4.2,17.5-5.3c45.5-8.2,91.1-16,136.6-24.1
	c7.8-1.4,15.4-3.5,25-5.8c-11.3-9.6-21-16.3-28.6-24.8c-7.7-8.6-13.4-19.1-19.9-28.8c-8-12.2-17-15.3-29.4-7.6
	c-6.8,4.2-12.6,10.9-17.5,17.5c-10.4,14.1-21.7,26.8-36.6,36.2c-36.6,23.1-86.6,18.9-117.6-10.6c-5.8-5.5-11.6-7.4-19.5-6.5
	c-48.8,5-97.6,10.6-146.5,14.2c-61.7,4.6-123.5,7.9-185.3,10.9c-107.6,5.2-215.3,3.3-322.8-2.2c-89.6-4.6-179.2-11.5-268-24.9
	c-76.6-11.6-153.6-20.9-229.6-35.5c-124.3-23.8-246.9-55-366.9-95.7c-3.5-1.2-7.3-1.4-11.6-2.1c-6.6,20.5-5.6,38.1,11.5,52.2
	c4.7,3.9,9.4,8,13.5,12.5c17.1,18.3,35.5,35.6,50.5,55.5c36.5,48.5,62.9,102.9,82.1,160.1c27.8,82.4,53.4,165.5,78.5,248.7
	c29.3,96.7,61.9,192,107.8,282.4c30.4,59.8,65.4,116.8,108.2,168.5c67.6,81.7,149.8,144.5,246.9,187.4
	c23.4,10.3,47.1,20.3,70.6,30.4c12.2,5.3,21.5,13.5,27.3,25.8c34.4,73.4,40.1,149.2,17.1,226.5c-12.9,43.6-40.8,75-86.1,88.3
	c-6.9,2-13.7,4.7-20.6,6.8c-33.6,10.2-67.4,19.7-100.7,30.9c-14.6,4.9-28.6,12.4-41.9,20.3c-5.8,3.4-11,10-13.4,16.3
	c-7.2,19.3,0.8,41.4,18.4,52.7c6.5,4.2,13.6,7.9,20.9,10.4c24.2,8.2,48.3,17.3,73.1,23.4c102.2,25,206.4,35.8,311.3,39.8
	c101,3.9,201.9,0.5,302.5-9.4c70-6.9,139.3-17.5,207-37.3c19.2-5.6,38-12.8,56.6-20.4c18.9-7.7,25.9-23.1,25.5-42.9
	c-0.4-20.5-9.3-35.7-28.1-43.6c-18.5-7.7-37.4-14.4-56.6-20.3c-35.1-10.8-70.7-20.3-105.8-31.2c-27.5-8.5-47.5-26.9-60.4-52.2
	c-7.5-14.8-14.1-30.4-18.5-46.4c-10.2-37.1-10.1-75-5.7-112.9c3.6-31.8,12.6-62.2,25.2-91.6c7.2-16.8,18.6-28.8,35.8-35.4
	c12.5-4.8,24.8-10.1,37.2-15c146.9-57.6,261.3-153.5,342.2-289.2c39.8-66.8,73.8-136.4,99.8-209.5c26.5-74.5,50.1-150.1,74-225.5
	c23.4-73.9,46.1-147.9,77.5-218.9c29.3-66.4,66.6-127.5,122.1-175.8c3.7-3.3,7.3-7.1,9.9-11.2c9-14,9.1-28.8,4.1-45.1
	c-5.8,1-10.2,1.2-14.3,2.5c-45.2,14-90.4,28.2-135.6,42.2c-8.5,2.6-11.9,8.3-14.4,16.6c-5.2,17.6-11.9,34.7-18,52
	C2849.3,2174.7,2848.2,2177.8,2847.3,2180.6z M2917.4,1584.7c-18.4,7.3-22.9,21-23.9,35.9c-1.2,17.2-1.1,34.5-1.1,51.8
	c0,21.5-2.9,42.3-12.9,61.6c-12.9,24.8-34.9,36-61.6,36.3c-25.5,0.3-44.5-12.8-56.6-35.3c-8.1-15-12-31.2-12.2-48.2
	c-0.2-20.1,0.9-40.2-0.3-60.2c-0.9-16-3.4-32.1-7.1-47.7c-3.4-14.3-11.5-26.5-24-35.2c-24.6-17.2-55.9-7.5-65.1,21
	c-3,9.4-4.1,19.7-4.5,29.6c-0.7,15.6,0.9,31.3-0.2,46.8c-1.1,14.9-2.7,30.1-6.9,44.4c-11.7,39.8-53.9,66.1-95.1,60.1
	c-40.5-5.9-67.2-29.2-78.2-68.2c-5.4-19.1-6.4-39.5-9.3-59.3c-2.3-15.4-3.2-31.2-7.3-46.1c-11.2-41-48-63.4-89.9-56.7
	c-34.5,5.5-58.9,25.4-76.8,54.1c-9.4,15.1-16.9,31.5-26.7,46.4c-9.8,14.8-19.8,30-32.6,42.1c-45.7,43.3-122.4,34.6-150.7-26.3
	c-7.6-16.4-11.1-34.9-15.2-52.7c-3.2-14.1-3.8-28.7-6.7-42.9c-3.9-19.3-15.9-31.7-35.4-35.8c-31.4-6.6-77.8,15.8-90.1,39.4
	c-16.6,31.8-30.3,64.5-42,98.3c-33.7,97.6-34.9,195.6-5,294.3c2.5,8.1,6.8,12.9,14.6,16.6c17.5,8.5,34.7,17.8,51.3,28
	c7.4,4.5,13.9,11.2,19.3,18.2c7,9,5.8,19.6-1.3,27.6c-6.6,7.5-15.9,9.6-25.8,4.7c-8-3.9-15.2-9.4-23.2-13.4
	c-11.9-6-24-11.8-36.4-16.5c-9.7-3.7-19.5-2.4-28.7,3.6c-24.2,15.9-40.4,56.2-32.9,84.2c1.6,5.8,4.3,11.5,7.7,16.5
	c13,19.4,32.6,27.5,54.7,26.8c22.2-0.7,44.6-3.1,66.2-7.8c34.8-7.5,68.9-18.2,103.6-26.3c45.1-10.6,86.3-1.9,122.2,28.3
	c5.1,4.3,10.5,8.3,16.1,12c22.3,14.5,45.9,17,69.8,4.9c11.9-6,22.6-14.2,34-21.1c16.2-9.7,31.8-21.1,49.1-28.2
	c34.1-14,67.9-10.9,98.8,10.1c9.1,6.2,17,14.3,25,22.1c11.1,10.9,21,23.3,32.8,33.3c22.1,18.8,47.3,17.2,67.2-3.7
	c7.7-8,13.7-17.5,20.5-26.4c5.1-6.6,9.6-13.8,15.2-19.9c24.8-26.7,62.1-27.7,87.4-1.8c8.1,8.3,14.2,18.5,21.1,28
	c5.8,8.1,10.6,17.2,17.2,24.7c22.3,25.5,56.7,23,74.8-5.6c5.3-8.4,8.9-17.9,12.4-27.3c3.9-10.4,6.1-21.5,10.1-31.8
	c15.1-38.8,41.9-65.4,82.7-76.1c17.2-4.5,35.1-6.4,52.4-10.6c13.4-3.3,27.3-6.7,39.3-13.1c20.3-10.8,26.9-35.2,14.9-54.7
	c-7.1-11.6-17.3-21.5-27.1-31.2c-5-4.9-12.1-7.9-18.5-11.3c-9.3-5-13.8-11.7-12.5-23c1.9-15.5,2.2-31.1,3.5-46.7
	c6.1-78.1-6-153.4-33.7-226.4C2922.2,1594.2,2919.9,1589.9,2917.4,1584.7z M1804.6,1689c-6.1,0.9-9.9,1.3-13.6,2.1
	c-37.1,7.8-70.7-5.2-91.3-37.1c-8.1-12.5-14-26.6-20.7-40c-3-6-5.2-12.4-8.5-18.1c-14.9-25.3-45.6-29.4-67-9.3
	c-10.6,9.9-16.2,22.7-19.1,36.5c-3,14.2-5,28.5-7.1,42.9c-4.7,33.1-8.3,66.5-22.8,97.3c-19.1,40.6-58.5,65-97.2,60.5
	c-45.6-5.4-78.8-37.1-87.9-83.8c-4.3-22.2-5.1-44.6-0.7-66.5c6.5-32.2,15.4-63.9,22.4-96c2.8-13,5-26.4,4.8-39.6
	c-0.5-30.7-21.9-51.9-52.6-54.4c-29-2.4-53.9,6.8-74.9,26.4c-9.3,8.7-17.2,19-26.2,28.1c-8.2,8.3-16.2,17.1-25.6,23.9
	c-42.8,31.4-98.4,16.4-120.5-31.7c-7.2-15.5-9.3-32-10.3-48.8c-0.7-11.7-1.4-23.4-3.1-34.9c-1.8-12.6-10.6-18.9-22.4-21.8
	c-11.5-2.8-17.6,4.2-23.2,12.3c-55.6,80.7-83.3,170.7-88.9,267.9c-2.4,42,3.6,83.4,11.1,124.7c4.3,23.6,3.2,23.8-17.5,34.8
	c-11.6,6.2-22.4,14.5-32,23.5c-12.7,12-16.8,27.7-10.8,44.5c6.1,17.2,18.7,27.8,37.1,29.6c16.6,1.6,33.3,1.6,50,2.5
	c13.3,0.7,26.9,0.1,39.8,2.8c24.9,5.2,41.8,22.2,56,42.3c6.1,8.6,12.1,17.4,19.2,25.3c12.8,14.2,28.4,21,48,15.1
	c12.3-3.7,24.9-6,37.1-9.9c44.1-14.2,83.5-3.8,119.9,22.5c6.3,4.6,12.4,9.5,18.7,14.1c7.2,5.3,14.5,10.3,21.8,15.5
	c22.8,16.2,47,18.8,72.7,7.5c7.6-3.4,15.7-5.8,23.2-9.5c38.4-18.8,74.9-19,109.1,9.9c20,16.9,41.6,16.1,63.8,4.2
	c11.3-6,22.7-11.9,34.4-17.2c20.4-9.4,40.8-9.3,61.4,0.1c10.6,4.9,21.5,9.3,32.6,12.8c5.9,1.9,12.5,1.5,17.1,2
	c0.8-19.8-0.1-37.7,2.5-55.1c5-33.1,21.6-60.6,46.4-83c6.2-5.6,10.1-10.3,6.9-19.9c-21.1-62.9-25.3-127.6-19.7-193.3
	C1798.6,1730.8,1801.8,1711.1,1804.6,1689z M1716.5,1367.5c2.9,2.1,4,3.5,5.5,3.9c43.6,11.5,86.9,24.5,131,33.9
	c85.5,18.1,171.5,18.8,257.4,1c42.9-8.8,84.1-21.9,120.7-46.9c37.7-25.7,65.3-58.7,76-104.1c14.3-60.3,0.4-114.9-34.1-165
	c-5.2-7.5-12.1-13.9-19-21.7c-3.4,4.1-5.3,6-6.7,8.3c-16.8,27.5-39.1,49.9-64.3,69.7c-47.6,37.4-101.7,62-159.1,79.6
	c-36.3,11.1-73.4,19.2-111.6,19.5c-14.8,0.1-24-7.8-25.8-20.8c-1.8-12.9,5-24.2,18.4-28.2c11.2-3.3,22.7-5.5,34.1-8
	c55.8-12.2,109.9-28.6,160-56.9c40.5-22.9,74.6-52.7,100-91.9c11.6-18,20.9-37,17.6-59.5c-6.8-46.7-29.2-83.6-68.5-110.1
	c-9.2-6.2-11.5-6-18.4,1.8c-25.3,28.7-56.6,48.7-92.1,61.8c-24,8.8-49,14.8-73.4,22.8c-89,29.1-179.3,38-272.2,22.4
	c-42.8-7.2-86.1-12.3-129.4-15.7c-51.4-4-101.2,4.6-147.7,28c-5.1,2.6-9.7,6.2-15.1,9.6c33.2,15.5,64.1,30.7,95.7,44.5
	c30.6,13.4,61.3,26.9,92.9,37.5c78.4,26.4,159,33.4,241,22.7c28.7-3.8,56.9-10.4,85.4-15.8c8.9-1.7,17.6-3.2,25.7,2.6
	c18.2,13,15.6,38.4-6.3,46.5c-22.4,8.3-45.6,15-69,19.4c-100.6,18.9-199.7,12.3-297.2-19c-52.7-16.9-102.2-41.5-152.1-64.9
	c-23.1-10.8-47.2-20-71.6-27.6c-82.6-25.9-150.4,38.8-166.3,96.7c-1.5,5.3-1.6,11-2.9,20.3c6.9-5.6,10.1-8.5,13.7-11
	c10.9-7.7,21.3-16.3,32.9-22.6c37.3-20.4,78.1-26.3,119.8-24.1c55.2,2.9,107.6,17.7,157.1,42.3c4.9,2.4,9.5,5.8,13.8,9.2
	c5.1,4.1,5.1,9.2,2.2,15c-2.9,5.7-7,9-13.3,7.7c-6.5-1.3-12.9-3.4-19.1-5.8c-15.6-6-30.8-13-46.7-18.3
	c-46.6-15.5-94.2-23.7-143.2-14.5c-43.9,8.3-83,25.1-109.1,64.4c-7.1,10.8-8.3,19.3-2.4,30.6c17.5,33.3,45.4,54.5,78.8,69.3
	c46.7,20.7,96.4,27.4,146.7,29.4c100,4.1,199.4-4.3,298.4-18.3c17.7-2.5,35.2-5.6,53-7.3c12.4-1.3,21.1,5.1,24.5,15.8
	c3.1,9.8-1.5,21.1-12.2,26.5c-6.9,3.5-14.5,5.7-22,7.8C1738.1,1362.7,1728,1364.8,1716.5,1367.5z M2075.5,1476.5
	c6.5,10.2,13.6,17.9,16.8,27c5.8,16.7,9.5,34.2,13.8,51.4c4.4,17.8,6.5,36.4,13.3,53.2c9.1,22.3,29.3,29.7,52.5,23
	c13.4-3.9,24.3-11.7,31.9-23c9.3-13.8,17.1-28.7,26.1-42.7c10.4-16.4,19.9-33.8,32.4-48.5c34.8-41.1,80.2-58.2,133.1-49.1
	c54.4,9.4,90.2,42.5,105,95.7c6.1,21.8,7.3,45,10.4,67.6c2.3,16.5,2.9,33.4,12.9,47.9c9.7,14,27,21.7,42.1,17.9
	c16.2-4,26.3-14.9,28.8-31.2c2-13.7,2.2-27.7,2.8-41.5c0.7-17.2-0.5-34.6,1.6-51.6c6.7-53.5,46.7-88.5,97.9-85.2
	c41.8,2.7,70.3,25.6,86.7,63.6c10.8,24.9,15,51.3,15.5,78.3c0.3,17.3-0.6,34.6,0.1,51.9c0.4,9.3,2.2,18.8,4.6,27.8
	c1.8,6.5,6,12.3,14,12.5c7.7,0.2,15-2.4,18.2-9.5c3.3-7.4,6.1-15.7,6.5-23.7c0.9-17.8-1.1-35.8,0.2-53.5c2.6-35.6,13-67.9,44.5-89.4
	c2.6-1.7,4.2-4.8,6-7c-110.7-201.9-344.6-296.6-521-283.2c-0.6,0.9-1.5,1.7-1.9,2.7c-1,2.6-1.9,5.2-2.6,7.9
	c-14.3,60.3-48.3,107.1-98.7,142.3c-52.8,36.8-112.5,55.6-175.4,65.3C2088.1,1474.1,2082.4,1475.2,2075.5,1476.5z M2934.1,1031.8
	c-1.2-0.1-2.5-0.1-3.7-0.2c-2.3,5-4.6,10-7,14.9c-13.9,29.1-37.5,43.8-69.4,43.5c-30.4-0.3-53.6-14-66.7-42.1
	c-6.3-13.6-11.6-27.8-16.9-41.8c-5.3-13.8-12.5-26-24.6-35c-25.7-19.1-59.1-12.4-74.4,15.8c-5,9.2-8.1,19.5-11.9,29.4
	c-5.8,15-10.3,30.8-17.5,45.1c-15.8,31.4-41.6,50-76.6,55.9c-41.9,7-83.7-17.4-95.3-58.1c-3.9-13.6-3.7-28.6-3.8-42.9
	c-0.1-18.3,3.4-36.8,1.5-54.8c-3-28.4-27-43.2-54.7-35.7c-9.1,2.5-17.5,7.2-26.2,10.7c-11.3,4.5-22.4,10.3-34.2,13
	c-25,5.6-58,1.1-74.6-35.8c-6.5-14.5-10-29.5-10.4-45.3c-0.3-8.4,0-16.8-1-25c-3.3-27-23.8-47.6-51-49.2
	c-14.8-0.9-29.8,1.8-44.7,3.4c-2.7,0.3-5.2,2.7-9.4,5c3.9,3.2,6.2,5.4,8.8,7.1c68,43.2,108.7,102.6,109.8,185.3
	c0.1,7.2,2.3,12.5,7.4,17.7c36.4,36.7,62.6,79.5,76.3,129.6c3.8,13.9,7.1,28,10.8,43c97.2-0.7,190.6,17.9,279.7,56.6
	c89.1,38.7,167.1,93.1,229.7,168.1c18.3-14.5,46.1-76.1,58.7-129.6C2962.7,1196.4,2958.8,1113.7,2934.1,1031.8z M1080.7,1381.8
	c33.6,10.7,47.4,36,52.2,67.9c1.4,9.3,1.4,18.9,2.3,28.3c0.8,8.3,1,16.9,3.3,24.7c7.7,25.8,30.9,33.7,52.4,17.9
	c6.6-4.9,12.2-11.4,17.8-17.5c7.9-8.6,15.1-17.9,23.3-26.3c23.3-24.2,51.6-38.6,85-42.4c51.2-5.8,110.7,18.5,124,84.4
	c3.8,18.7,2.5,38.9,0.2,58.1c-2.3,19.2-8.7,38-13.5,56.9c-6.9,27.1-13.5,54.1-11.5,82.4c1.1,15.4,5.4,29.7,14.8,41.9
	c15.9,20.7,44,23,63.4,5.5c11.7-10.5,18.5-24,21.8-38.8c4.6-20.6,8.3-41.5,11.2-62.4c4.1-28.8,7.9-57.6,20.9-84
	c16.6-33.8,44.1-53.4,82-54.3c37.8-0.9,66.1,17.3,84.2,50.4c7.7,14.2,13.9,29.2,21.1,43.6c12.4,24.6,29.4,31.4,55.1,22.5
	c4.7-1.6,9.2-4,14-5.5c11.1-3.5,16.7-11.2,20.4-22.1c15.2-45,34.6-88.2,61.8-127.5c1.7-2.5,2.6-5.5,4.4-9.3
	c-4.6-1.1-7.7-2.3-10.9-2.6c-40.7-4.1-79.8-15.2-119.1-25.7c-56.5-15.1-113.2-29.3-170.1-42.9c-32.6-7.8-65.6-10.7-99.5-8.9
	c-65.3,3.4-130.5,1.3-194.7-13c-48.7-10.8-93.4-29.9-130-64.8c-6.1-5.8-10.9-6.7-17.2-1.1c-22.5,20-45.1,39.8-67.6,59.8
	C1081.4,1377.4,1081.5,1378.9,1080.7,1381.8z M2372.4,644.4c-2.8,28.3,11,59.7,30.9,88.7c24.7,35.9,59.8,57.4,100.9,70
	c49.4,15.1,98.1,13.3,145.1-8c54.5-24.7,83.7-69.8,96.4-126.6c8.6-38.6,6.7-76.7-13.3-111.9c-19.6-34.5-49-52.3-89.7-48.2
	c-7.8,0.8-15.5,1.6-23.3,2.5c-15.7,1.8-29.8-1.7-42.3-11.7c-10-8-20.2-15.8-30-24c-12.7-10.6-27.4-14.2-43.6-13.5
	c-38.3,1.8-67.9,20-90.8,49.5C2384.2,547.9,2373.3,590.5,2372.4,644.4z M2230.2,750.6c11.5,4.1,21.3,6.3,29.8,10.7
	c35.1,18.3,50.2,49.1,52.7,87.2c0.7,11.1-0.1,22.3,0.7,33.4c1.1,16.2,16,27.1,31.6,22.9c7.4-2,14.3-6,21.4-9.1
	c11.7-5.1,23.1-11.5,35.2-15c46.7-13.6,90.6,10.1,106.4,56.1c7.1,20.6,6.5,41.6,5,62.8c-0.8,11.1-1.8,22.3-1.1,33.4
	c1.5,21.1,16.4,37.3,36.6,39.5c19.1,2,35.7-5.2,46.6-20.8c7.2-10.2,11.8-22.6,16.2-34.5c5.4-14.6,8.4-30.1,14.2-44.5
	c19.7-49.2,70.7-72.1,120.8-54.9c31.9,10.9,51.7,33.6,63.4,64.4c5.5,14.6,10.9,29.3,17.3,43.4c5.5,12.2,15.6,18.4,29.4,18.1
	c14.3-0.3,24.9-6.1,29.7-19.9c4.7-13.7,8.6-27.6,12.8-41.5c4.1-13.1,2.5-25.3-5.5-36.5c-15.8-22.3-30.5-45.4-47.6-66.6
	c-27.5-33.9-60.2-62.7-96.3-87.4c-11.1-7.6-12.3-6.7-22.6,2.6c-11.6,10.3-23.3,20.9-36.5,28.9c-37.6,22.9-79.3,32.6-123,31.6
	c-95.6-2.3-171.5-39.2-217-127.4c-3.9-7.7-8.1-10.2-17-8.6c-33.1,5.9-65,15.2-96.2,27.5C2235.4,747.2,2233.9,748.4,2230.2,750.6z
	 M1551.6,818.7c3.9,0.9,7.6,1.8,11.3,2.6c16.8,3.7,34,6.3,50.5,11.3c46.9,14.1,93.6,29.1,140.3,44c8.6,2.7,16.8,4.8,25.9,1.2
	c31.8-12.6,61.7-28.1,87.6-51c74.2-65.9,91.8-159.1,45.8-247c-2.1-4-5.2-7.4-9.4-13.1c-1.9,7.4-3.1,11.7-4.1,16
	c-1.1,4.3-1.7,8.8-3.1,13c-15,45.9-45.3,78.7-87.7,100.6c-34.2,17.7-71.3,24.9-109.4,27.6c-28.9,2.1-58,3-85.5,13.4
	C1576.4,751.2,1554.6,777.4,1551.6,818.7z M1938.7,558.3c2.5,5.7,4,9.1,5.3,12.5c6.6,17.7,14.7,35.1,19.4,53.3
	c16.3,62.9,5.2,121.6-30.2,175.8c-22.4,34.3-52.5,60.4-87,81.9c-3.8,2.4-7.2,5.3-10.8,8c15.1,4,28.8,5.1,42.6,5.8
	c47.7,2.5,94.7-1,139.9-18.4c28.4-10.9,54.5-25.4,75.5-48.1c4.8-5.2,8-10.3,7.4-17.7c-2.4-31.3-7.5-61.8-19.8-91.1
	c-28.1-67.2-77-116.6-134.5-158.8C1945,560.6,1942.9,560.1,1938.7,558.3z M1354.3,984.3c3.8,0,5.7,0.5,7.1-0.1
	c3.6-1.5,7.2-3.2,10.4-5.3c63.4-42,133.9-53.4,208-46.3c41.5,4,82.7,11.9,124.1,17.2c42.4,5.5,85,10.6,131.2,2.8
	c-50.2-7-96.4-16.8-141.7-30.8c-29.3-9.1-58.7-17.6-88.2-26c-27.9-7.9-55.9-15.1-85.2-16.3c-59-2.4-108.5,16.3-145.5,63.7
	C1365.3,954.9,1357.2,967.5,1354.3,984.3z M1974.2,2170.4c0.2,1.4,0.4,2.7,0.6,4.1c54.4-2.3,108.8-0.5,163.2-6.2
	c-0.4-2.5-0.1-3.8-0.7-4.5c-1.4-1.7-3-3.3-4.8-4.6c-18.1-14.2-38.5-20.2-61.1-15c-22.2,5.1-44.2,11.3-66.2,17.2
	C1994.8,2164.2,1984.5,2167.4,1974.2,2170.4z M1638,2151.7c43.4,10.5,161.7,17.4,173.7,13.3c-7-5.9-13.6-11.5-21.1-17.8
	c-20.9,11.4-42.7,10.9-64.5,3.4c-11.5-4-22.4-9.8-33.9-14c-5.4-2-12.4-4.3-17.2-2.5C1662.2,2138.8,1650.3,2145.7,1638,2151.7z
	 M1040,2046.4c-5.7-14.2-10.9-25.3-23.8-27.4c-19.4-3.1-39-3.3-58.8,3.6C983.8,2030.2,1010.1,2037.8,1040,2046.4z M2334.1,2154.8
	c26.7-2.6,50.4-4.9,75.8-7.4C2391.8,2126.2,2355.8,2129.9,2334.1,2154.8z M1218.7,2088.4c13.3,7.3,27.6,10.4,42.8,9.8
	C1249.1,2087.6,1234.9,2084,1218.7,2088.4z M1477.1,2132.3c0,1.1,0,2.2,0,3.3c9.1,1.1,18.2,2.2,27.4,3.3c0.1-1.3,0.3-2.5,0.4-3.8
	C1496,2131.1,1486.7,2130.3,1477.1,2132.3z"/>
<path d="M1153.7,2234.8c6.9,16.6,12.1,29.4,17.5,42.1c35.9,83.8,60.7,171.2,84.8,258.8c28.6,104.1,65.3,204.9,119.6,298.8
	c72.5,125.4,171.3,223.2,301.5,287.7c66.5,32.9,137.2,52.8,210.9,61.2c32.1,3.6,64.4,6.8,96.6,6.5c122.3-1.2,236.8-32.1,342.4-94.6
	c3.4-2,6.7-4.1,10.2-5.7c9.5-4.2,17.3-2.9,22.8,3.6c6.1,7.2,6.9,18.8,0.1,26.1c-5.6,6-12.6,11.1-19.8,15.1
	c-49.5,27.2-100.9,50.1-155.2,65.7c-71.1,20.4-143.8,32.5-217.8,29.8c-228-8.1-416.5-97.8-559.2-277.3
	c-66.5-83.6-114.8-178-148.9-279.1c-23.6-70.2-43.9-141.6-65.3-212.6c-23.8-79.1-49.8-157.3-87-231.3c-3.7-7.5-7.3-15.1-9.8-23.1
	c-4.7-15,4.3-26.2,19.8-23.7c15.9,2.5,31.6,6.8,47.2,10.9c84.8,21.8,170.5,39.2,257,52.6c51.2,7.9,102.4,16.4,153.8,22.3
	c65.3,7.5,130.9,12.9,196.4,18.5c89,7.6,178.3,7.7,267.5,5.9c95.4-1.9,190.5-7.7,285.4-18.2c18.3-2,36.6-3.6,54.9-5.3
	c3.9-0.4,7.8-0.7,11.7-0.4c10.2,1,17.7,8.8,18.3,18.4c0.6,9.4-4.4,17.4-14.5,19.6c-12.5,2.7-25.3,4.3-38,5.5
	c-91,8.6-182.1,16.5-273.6,19c-99.3,2.7-198.5,2.1-297.7-3.7c-95.8-5.5-191.2-15.1-286.1-28.5c-108.2-15.2-215.5-35.4-321.9-60.3
	C1171,2237.6,1164.5,2236.7,1153.7,2234.8z"/>
<path d="M2127.8,3337c-103.1,22.2-204.5,19.4-308.4,2c0.3,7.3,0.5,12.6,0.9,17.8c3.7,52.2-0.2,103.9-16.5,153.7
	c-20.1,61.8-60.5,107.1-117.4,138c-13.2,7.2-26.7,13.9-40.1,20.9c-3.3,1.7-6.3,3.8-12.8,7.7c27.9,5.5,52.1,10.5,76.4,15
	c81.5,15.1,164,17,246.6,18.4c6.1,0.1,12.3-0.1,18.4,0.7c11.1,1.5,18,9.3,17.6,18.7c-0.5,10.3-6.5,16.3-19,16.3
	c-44.1-0.1-88.2,1-132.1-1.7c-47.8-3-95.5-8.6-142.9-15.6c-26.9-3.9-53.2-12.1-79.3-19.9c-10.3-3.1-20.5-9.2-28.6-16.4
	c-14.6-13-13-30.5,3.9-40.4c18.2-10.7,37.6-19.5,56.6-28.7c23.7-11.5,45.9-25.2,65.7-42.7c35.6-31.5,52.5-72.9,61.1-118.1
	c8.4-44.2,8.1-88.7,2-133.3c-3.4-24.7,8.2-35.7,33.4-30.5c63.7,13.3,128,18.1,192.9,15.2c39.1-1.8,77.7-7.2,116-14.5
	c7.7-1.5,15.4-3.1,23.1-3.4c19.2-0.8,26.4,7.7,23.3,26.9c-6.1,38.8-7.4,77.7-3.5,116.7c3.5,34.2,12.6,66.7,29.1,97.1
	c2.1,3.9,4.3,7.9,6,11.9c4.6,10.5,2.6,17.2-6.3,22.9c-8.6,5.5-16.7,4.5-23.8-3.5c-3.3-3.7-5.9-8.1-8.3-12.5
	c-22.8-41.3-34.7-85.8-36.1-132.7c-0.8-25,1.1-50.1,1.8-75.2C2127.9,3344.9,2127.8,3342.2,2127.8,3337z"/>
<path d="M2342.2,2765.2c-50.4,0.1-91.5-39.7-91.7-89.1c-0.2-48.3,35.1-91.1,90.4-91.9c50.4-0.7,90.7,40.1,90.7,89.8
	C2431.7,2724.2,2391.5,2765.1,2342.2,2765.2z"/>
<path d="M1609.4,2764.9c-48.4-0.2-89.2-41.4-89.1-89.8c0.2-54.2,42-92,88.7-91.8c56.8,0.3,90.2,38.3,91.8,89.9
	C1702.4,2722.3,1658.4,2765.1,1609.4,2764.9z"/>
<path d="M1985.4,2831.8c-74.5-0.7-124.7-40.7-138.3-104.9c-1.8-8.6-2.3-17.7-1.7-26.5c0.9-12.9,10.9-21.7,23-22
	c13.5-0.4,21.3,6,24.1,20.1c1.2,6,1.9,12.1,3.1,18.1c7.9,40.1,40.4,65.9,82.6,65.7c41.9-0.2,72-25.5,79.4-66.7
	c0.7-3.8,0.8-7.7,1.3-11.6c1.9-16.4,10-24.2,24.4-23.4c14,0.8,22.4,9.9,22.7,25.7c0.4,26.5-7.7,50.7-22.6,72.2
	C2058.1,2815.3,2021.6,2831.2,1985.4,2831.8z"/>
<path d="M1546.9,2895.9c-26.6,0.6-49.5-7.5-70.1-21.8c-16.7-11.5-26.5-27.5-22.8-48.6c3.3-18.9,14-32.5,32.8-38.8
	c1.1-0.4,2.1-0.8,3.2-1c10.4-2.5,21.1-0.8,23.1,4.5c3.6,9.4-3.8,14.3-9.3,19.6c-19,18.6-17.6,29.5,6.6,40.6
	c17.1,7.8,35.2,10.4,53.9,6.3c19.5-4.3,23.3-11.5,15.6-29.4c-0.9-2-2.5-4-2.7-6.1c-0.6-5.1-2.7-13.4-0.6-14.9
	c4.4-2.9,11.7-3.8,16.9-2.4c19.7,5.5,32.3,32.8,25.4,53.5c-4.7,14.1-14.3,23.8-27.6,29.8C1577,2893.6,1561.8,2896.7,1546.9,2895.9z"
	/>
<path d="M2402.1,2898.4c-20.1-0.7-38.1-5.4-53.7-17.6c-22.7-17.8-25.3-46.9-6.4-67.5c5.9-6.5,13.1-10.4,22-10.3
	c8.6,0.1,12.4,5.1,9.5,13.1c-1.7,4.7-4.7,8.8-6.8,13.4c-5.4,11.8-3.1,18.8,8.5,24.5c3.9,1.9,8.3,3.7,12.6,4.1
	c19.1,1.7,37.9,0,55.2-9.3c4.3-2.3,8.5-5.4,11.8-9c6.9-7.6,6.9-12.5,0-20.5c-4-4.6-8.9-8.4-13.3-12.7c-4.1-4-7.4-8-4.6-14.6
	c2.8-6.4,7.6-7.3,13.5-7.2c28.4,0.1,61.2,35.3,41.2,69.7c-9.9,17-25.1,27-42.6,33C2433.8,2892.7,2417.7,2894.9,2402.1,2898.4z"/>
<path d="M1911.8,1776.2c0.9-56.8,10.8-103.8,31.4-148.4c3.7-8,8.4-15.9,14.1-22.5c8.2-9.4,18.6-10.3,28.6-4.4
	c9.5,5.6,12.7,13.9,9.2,25.9c-1.9,6.4-4.6,12.5-7.4,18.6c-24.1,52.6-31.3,107.6-23.5,164.7c0.7,5,1.2,10,1.2,15
	c-0.1,13-5.4,20.5-15.4,22.8c-12.8,2.9-22.3-0.8-28.1-12.2c-3-5.9-5.1-12.5-6-18.9C1913.8,1800.8,1912.6,1784.7,1911.8,1776.2z"/>
<path d="M2795.7,1932.5c19.9,1.3,37.7,2.1,55.4,3.7c14.4,1.3,22.5,10.7,22,24.3c-0.4,11.8-9.7,21.1-23,21.6
	c-7.1,0.3-14.4-0.6-21.5-1.9c-31.1-5.7-59.6-1.8-84.3,20c-7,6.2-15.1,11.4-23.5,15.7c-12.5,6.4-23.9,3.8-29.6-5.4
	c-6.6-10.7-4.7-22.1,6.5-30.9c14-10.9,28.4-21.4,43.1-31.5C2757.9,1936.5,2777.4,1932.6,2795.7,1932.5z"/>
<path d="M2174.4,1979.7c33.7,2,61.5,11.8,88.1,25c11.5,5.7,14.3,13.9,10.5,24.8c-3.6,10.5-11.8,15.8-23.5,14.2
	c-6.5-0.9-12.9-3.2-19.3-5.4c-10-3.4-19.9-7.3-29.9-10.6c-20.2-6.7-39.6-2.6-58.7,5c-7.7,3.1-15.3,6.9-23.3,9
	c-12.1,3.2-19.4-0.1-24.1-9.2c-5.2-10.3-3.1-20.8,6.8-27.9C2124.1,1988,2150.7,1982.6,2174.4,1979.7z"/>
<path d="M1341.6,2004c-32.1-1.1-58.9-12.4-79.5-37.3c-1.8-2.1-3.8-4.1-5.6-6.2c-15.3-18.5-34.9-24.6-58.3-21.2
	c-17.6,2.6-35.3,5.3-53.1,6.3c-16.2,1-32.4-1.1-46.9-9.6c-12-6.9-15.9-15.9-12.8-27.9c3.1-12.1,15.8-20.6,26.8-14.8
	c23.9,12.4,47.5,8.6,71.6,2.7c44.8-11,81.7,1.8,110.2,37.4c14.8,18.4,32.3,28.2,56.2,26.5c5.4-0.4,11.2,0.6,16.4,2.2
	c9.2,2.7,13.7,9.2,14,18.6c0.4,9.2-3.5,16.4-12.9,19.2C1359.4,2002.5,1350.4,2002.7,1341.6,2004z"/>
<path d="M991.1,1687.8c0.2-31.5,5.1-62.2,14.1-92.1c2.9-9.5,6.9-18.9,12.1-27.3c7.4-12,17.4-14.5,28.4-9
	c11.3,5.7,15.5,14.6,11.2,27.7c-12,36.2-19.8,73-18.1,111.3c0.8,18.3,3.4,36.5,5.2,54.7c0.4,4.4,1.5,8.8,1.6,13.2
	c0.2,10.3-5,18.1-13.4,20.7c-10.4,3.3-21.5,0.3-25.8-9.6c-5-11.6-8.8-24.1-10.8-36.5C993,1723.4,992.5,1705.5,991.1,1687.8z"/>
<path d="M2399.9,622.9c5.7-52,23.3-97.2,71.1-125.2c4.7-2.8,10.1-4.9,15.4-6c12.2-2.5,21.1,2.4,24.1,12.3
	c3.1,10.2-0.8,18.4-13.7,22.7c-18.5,6.1-31.9,17.4-41.9,33.6c-12.6,20.4-16.9,43.3-20,66.6c-0.2,1.7-0.2,3.3-0.4,5
	c-1.8,13.7-5.3,17.7-15.3,17.6c-12.6-0.2-18.6-6.4-19.2-19.9C2399.9,627.3,2399.9,625.1,2399.9,622.9z"/>
</svg>
