<?xml version="1.0" encoding="utf-8"?>
<!-- Generator: Adobe Illustrator 24.3.0, SVG Export Plug-In . SVG Version: 6.00 Build 0)  -->
<svg version="1.1" id="Layer_1" xmlns="http://www.w3.org/2000/svg" xmlns:xlink="http://www.w3.org/1999/xlink" x="0px" y="0px"
	 viewBox="0 0 4000 4000" style="enable-background:new 0 0 4000 4000;" xml:space="preserve">
<path d="M794.6,3681.1c-1.1-34.8-3-66.8-3.1-98.8c-0.6-398-1.1-796.1-1.3-1194.1c-0.2-369.8,0.1-739.7-0.3-1109.5
	c0-27,6.2-50.8,17.8-75.2c73-152.6,144.9-305.7,216.8-458.9c38.1-81.1,75.3-162.7,113.4-243.8c10.1-21.5,14.8-43,14.4-67
	c-1.2-62.5-1.2-125-0.2-187.4c1.2-79.5,45.8-124.4,125.6-127.9c26.2-1.2,52.4-1.7,78.6-1.6c432.3,1.5,864.6,3.1,1296.9,4.8
	c36.3,0.1,72.5,1.4,108.8,2.9c71.2,2.8,114.7,43.7,117.8,115.4c2.9,67.4,2.8,135,1.8,202.5c-0.4,26.3,5.8,47.9,19.4,70.6
	c62.7,104.5,123.4,210.1,184.8,315.4c25.4,43.5,50.1,87.4,76.5,130.2c11.6,18.9,15.8,38.4,15.8,60.1c0.1,232.8,0.8,465.6,0.9,698.3
	c0.1,534.1-0.3,1068.2,0.6,1602.3c0,28-9.6,43.9-32.3,58.1c-177.8,110.8-355.2,222.2-532.3,334.2c-18.8,11.9-37.6,17.2-59.6,16.6
	c-247.8-7.1-495.5-13.9-743.3-20.7c-102.7-2.8-205.5-5.2-308.2-7.9c-212.5-5.5-425.1-11-637.6-16.5
	C843.5,3682.7,820.6,3681.9,794.6,3681.1z M2554.5,2018.4c7.7-32.7,8.3-696.6,1.6-718.5c-50.6-7.7-1694.6-34.8-1723.1-27.8
	c0,238.7,0,477.9,0,720.4C1407.9,2001.2,1980.7,2009.8,2554.5,2018.4z M834.8,3640.5c289.1,7.6,575.8,14.9,862.4,22.8
	c287.4,7.9,574.8,15.7,861.8,22.3c6.7-52.7,4.1-648.4-3-672.8c-572.8-10-1146.4-19.9-1721.2-29.9
	C834.8,3202.6,834.8,3419.6,834.8,3640.5z M2558.8,2063.4c-11.7-1-19.6-2.1-27.5-2.2c-137-2.1-274.1-4-411.1-5.9
	c-241.8-3.4-483.7-6.6-725.5-10.2c-178.3-2.6-356.7-5.8-535-8.6c-8.6-0.1-17.2,1.4-26,2.1c0,300.9,0,598.8,0,898.1
	c9.5,1.2,17.3,2.8,25.1,2.9c126.9,2.8,253.9,6,380.8,8c209.6,3.3,419.2,5.2,628.7,8.7c218.6,3.6,437.2,8.4,655.9,12.5
	c11.5,0.2,23-1.3,34.6-2.1C2558.8,2664.3,2558.8,2365.5,2558.8,2063.4z M845.2,1225.1c45.4,0,83.6-0.6,121.8,0.1
	c381.8,6.4,763.6,12.7,1145.3,19.6c140,2.5,280,6.6,420,9.8c31.4,0.7,31.1,0.3,41.2-27.5c23-63.4,46.2-126.7,69.4-190
	c60.7-165.3,121.5-330.6,182.2-496c3.2-8.8,5.3-17.9,8.5-28.6c-12.3-0.9-20.2-1.9-28.2-2c-121.9-1.3-243.8-2.5-365.7-3.8
	c-349.6-3.7-699.2-7.4-1048.8-11.1c-59.4-0.6-118.9-0.2-178.3-2c-21.9-0.7-33.6,7.3-40.6,27.4c-6.3,18-14.4,35.5-22.5,52.8
	c-94.4,200.4-189,400.7-283.4,601.1C859.5,1189.1,854,1203.9,845.2,1225.1z M2839.7,467.8c1.1-11,2.4-17.8,2.4-24.7
	c-0.2-52.4-0.6-104.7-1.1-157.1c-0.1-14.1,0-28.3-1.4-42.2c-5.6-52.3-30-75.3-82.2-76.7c-62.4-1.6-124.9-2.8-187.3-3.1
	c-406.9-1.9-813.8-3.5-1220.7-5.1c-24.2-0.1-48.4,0.3-72.4,2.2c-53.9,4.2-80.6,31.8-81.7,85.1c-1.2,61.4-1,122.9-1.3,184.3
	c0,5.8,1.3,11.6,2.3,21C1743.9,457,2290.3,462.4,2839.7,467.8z M3139.1,1759.5c-15.3,7.8-24.2,12.1-32.9,16.9
	c-159.5,88.1-318.7,176.7-478.6,264c-19.6,10.7-26.7,22.3-26.6,44.3c0.3,277-0.3,553.9-0.5,830.9c0,12.4,1.8,24.8,2.9,40.1
	c11.8-5.4,19.3-8.2,26.2-12.1c53.5-30.2,106.9-60.5,160.1-91.1c106.5-61.2,212.3-123.6,319.7-183.2c23.1-12.8,30.1-26.3,30-51.5
	c-0.8-272.9-0.3-545.9-0.2-818.8C3139.1,1788.3,3139.1,1777.5,3139.1,1759.5z M3138.5,1027.8c-15.5,6.4-24.9,9.6-33.7,13.9
	c-159.9,78.6-319.6,157.5-479.7,235.6c-16.8,8.2-23.2,18.2-23.2,36.9c-0.3,211.5-1.4,423-2,634.5c0,16.8,2.1,33.6,3.5,54.1
	c11.7-4.7,20.2-7.2,27.9-11.4c62.8-34.2,125.4-68.6,188-103.1c100.5-55.4,200.6-111.4,301.5-166c15.2-8.2,19.4-18.3,19-33.6
	c-1.1-40.3-2.4-80.5-2.4-120.8c0.1-167.2,0.7-334.4,1.1-501.6C3138.6,1055.5,3138.5,1044.6,3138.5,1027.8z M2603.2,3665.5
	c9.6-4,15.4-5.5,20.3-8.5c23.2-14.2,46.1-28.8,69.1-43.2c142.5-89.3,284.7-178.9,427.6-267.5c14.7-9.1,17.1-20.1,17.2-34.9
	c1-192.4,2.2-384.8,3.1-577.2c0-9.6-1.4-19.2-2.5-33.3c-14.4,7.9-24.8,13.4-34.9,19.3c-151.7,87.7-302.4,177.1-455.7,261.8
	c-36.4,20.1-48.5,41-48.1,80.9c1.9,185.3,0.7,370.7,0.8,556C2600.2,3632.8,2602,3646.7,2603.2,3665.5z M3107.3,958.6
	c1.5-2,2.9-3.9,4.4-5.9c-5.5-10.1-10.6-20.5-16.6-30.3c-9.4-15.4-20-30.2-29.1-45.8c-59.9-102.4-119.4-204.9-179.2-307.3
	c-4.2-7.1-10-13.3-17.6-23.4c-43.4,111.3-84.8,217.5-121.2,329.4C2870,903.7,2988.7,931.2,3107.3,958.6z M2617.8,1232.4
	c160.5-78.6,314.2-153.8,473.1-231.5c-11.6-5.2-17.3-9-23.5-10.4c-101.9-23.1-203.8-46.1-305.8-68.8c-28.6-6.4-29.1-6.3-39.3,21.1
	c-31.9,85.7-63.5,171.5-95,257.4C2624.2,1208.4,2622.3,1217,2617.8,1232.4z"/>
<path d="M1261.3,2401.3c4.8-9.7,9.4-19.6,14.5-29.1c17.7-32.8,34.7-65.9,53.6-98c15.1-25.6,39.2-36.3,69-34.9
	c31.3,1.5,54.3,14.3,64.2,45.3c6.4,20.1,14.1,40.1,17.6,60.8c17.4,103.3,32.9,206.9,50.3,310.2c12.2,72.6-47.7,99.4-94.2,90.9
	c-26.3-4.8-42-19.4-47.7-44c-7.1-31.4-12.2-63.2-17.7-95c-2.8-15.9-4.2-32-6.9-47.8c-1.3-7.4-4.1-14.5-8.2-28.3
	c-7.6,14.5-11.5,23.4-16.7,31.6c-9.2,14.3-17.7,29.6-29.2,41.8c-33,34.9-80,33.2-110.7-3.6c-10.9-13-19-28.4-28-42.9
	c-4.6-7.5-8.5-15.4-16.2-29.5c-3.7,15.2-6.2,24.1-7.9,33.3c-6.7,35.6-13.1,71.3-19.7,107c-1.1,5.9-2.9,11.7-4.5,17.6
	c-16.7,57.4-44.2,64.2-96.1,55.5c-33.2-5.5-53.5-32.9-50.9-68.3c2.7-36.1,8-72.1,14.4-107.7c15.1-83.2,31.4-166.2,47.7-249.1
	c2.5-12.7,6.6-25.4,11.9-37.3c22.7-51.1,88.2-61.6,124.1-18.8c16,19.1,27.9,41.8,40,63.7c14,25.2,26.1,51.3,39.1,77.1
	C1255.8,2401.6,1258.6,2401.5,1261.3,2401.3z M1371.5,2434.6c3.5,0.9,6.9,1.9,10.4,2.8c3.9,16.2,8.8,32.1,11.4,48.5
	c8.8,53.6,16.4,107.4,25.2,161.1c2.6,15.8,6.8,31.5,12,46.6c2,5.7,8,12.3,13.6,14.1c23.4,7.8,47.6-10,47.7-34.5
	c0-11-1.3-22.1-3.1-33c-13.8-84.4-27.5-168.8-42.1-253c-5-28.7-10.9-57.4-19.3-85.2c-6.5-21.6-22.6-27.6-42.9-17.9
	c-9.6,4.6-18.8,12.1-25.1,20.6c-9.5,12.8-16.7,27.4-24,41.7c-17,33.1-33.2,66.6-50.1,99.8c-6.9,13.5-15.3,25.8-34.3,32.8
	c-7.7-11.4-16.5-22.1-22.8-34c-21.7-40.9-42.3-82.3-63.9-123.2c-6.1-11.5-13-23-21.8-32.4c-19-20.1-48.5-14.8-59.5,10.4
	c-4.8,10.9-7.5,23-9.8,34.8c-9.3,47.4-18.5,94.8-26.9,142.3c-10.9,61.4-21.7,122.9-31,184.5c-4.6,30,6.3,40.9,36,41.3
	c21,0.2,29-5.4,34-30.2c9.4-46.3,16.9-93,25.6-139.4c5-26.6,9.6-53.5,17.1-79.5c5.3-18.4,18.6-20,30.9-5.1
	c6.3,7.7,11.3,16.7,16,25.5c14.3,26.6,27.3,53.8,42.4,79.9c25.9,44.8,53.3,45.1,80.4,1.8c5.3-8.5,10-17.4,14.7-26.3
	c12.3-23.1,23.8-46.6,37-69.2C1354.9,2450.6,1364,2443.1,1371.5,2434.6z"/>
<path d="M2205.6,2644.6c-2.5,8.8-4.8,14.2-5.4,19.8c-1,10-0.5,20.1-1.5,30.1c-4.8,44-25.1,63.7-65,63.7c-42.4,0-67.9-22.6-72.7-64.8
	c-1-9-0.8-18.1-0.8-27.1c0.1-110.7,0-221.4,0.5-332.1c0.1-16,1.7-32.2,4.7-47.9c6.5-33.3,32.1-51.6,68.2-50.7
	c35.7,0.9,57.3,18,62,53.3c3.4,25.8,3,52.2,4.2,78.3c0.9,17.9,1.7,35.8,2.6,54.2c15.8,2.3,21.3-8.5,28.8-15.7
	c15.3-14.5,29.7-30.2,45.8-43.7c22.7-18.9,45.9-18.1,71.7,0.2c27.6,19.6,38.8,45.9,27.3,72.5c-6.6,15.3-17.3,29.3-28,42.5
	c-10.1,12.4-22.8,22.7-34,34.3c-19.3,19.8-19.4,22-1.7,41.9c11.3,12.8,23.7,24.7,34.7,37.8c15.5,18.4,31.5,36.7,44.9,56.7
	c20.7,30.6,12.4,69.2-18.1,93.8c-26.9,21.6-65.1,20-90-6.3c-21.4-22.6-40.4-47.4-60.6-71.2
	C2218.6,2658.1,2213.1,2652.7,2205.6,2644.6z M2157.4,2286.6c-42.3-9.6-54.3-2.7-54.6,28c-0.8,104.7-1.4,209.5-1.8,314.2
	c-0.1,21.1,0.1,42.3,1.5,63.4c1.4,20.5,12.7,27.8,32.8,23.6c15-3.1,22.2-11.7,22.5-27.3c0.6-28.2,1.8-56.4,3.5-84.5
	c1.8-29.9,16.7-37.2,40.8-19c13.5,10.2,25.2,23.1,36.5,35.9c23.3,26.5,45.1,54.2,68.7,80.4c13.4,14.9,30.5,15,45.8,2.9
	c12.3-9.7,13.5-23.1,3-40.5c-4.1-6.9-9-13.5-14.4-19.4c-23-25.3-46.2-50.5-69.7-75.3c-34.5-36.5-34.1-43,2.9-77.8
	c19.1-17.9,38.1-36,55.5-55.5c11.3-12.7,9.8-24.8,0.1-35.2c-10.7-11.6-21.9-7.4-32.6-0.8c-5.9,3.7-11.1,8.6-16.3,13.3
	c-18.7,16.8-37.2,34-56.2,50.5c-8.3,7.2-17,14.5-26.8,19.3c-25.2,12.7-35.1,7-36.4-21.1c-2.2-45.3-3.3-90.6-4.6-135.9
	C2157,2313.1,2157.4,2300.1,2157.4,2286.6z"/>
<path d="M1948.7,2617.5c11.9,2.2,21.6,3.8,31.2,5.9c31.9,7,47.7,26.7,50.3,62.6c2.3,30.7-12.9,57.8-40.9,66.7
	c-41.3,13.2-83.6,13.3-124.4-2c-31.1-11.6-46-38.3-51.6-69.5c-3.9-21.7-6.3-44-6-66c1.2-101.6,3.4-203.2,5.6-304.7
	c0.2-11,2.1-22.1,4.5-32.8c7.6-35.1,32.2-53.9,67-52.1c38.9,2,60.7,21.1,64.2,58.3c2,21,2.1,42.2,2,63.3c-0.4,79.5-1.3,159-2,238.4
	C1948.6,2595.6,1948.7,2605.5,1948.7,2617.5z M1910,2461.5c0.2,0,0.5,0,0.7,0c0-54.3,0.6-108.7-0.3-163
	c-0.4-25.2-14.7-34.7-37.8-25.8c-7.2,2.8-14.2,10.8-17.3,18.1c-3.3,7.9-2.5,17.8-2.7,26.8c-1.7,104.6-3.4,209.2-4.8,313.9
	c-0.2,12,0.4,24.2,1.9,36.1c3.4,27.1,19.4,44.9,45.5,49.7c20.5,3.7,42,3.2,63,2.4c15.1-0.6,26.2-9.7,31.3-24.5
	c5.8-16.6,0-28-17.2-31c-11.8-2.1-24-1.5-36-2.5c-13.8-1.1-22.5-8.4-24.2-22.4c-1.2-10-2-20-2-30.1
	C1909.9,2560.1,1910,2510.8,1910,2461.5z"/>
<path d="M1599.2,2558.4c0-39.2-0.5-78.5,0.3-117.7c0.3-11.8,3.3-23.9,7.2-35.1c4.5-13,14.5-22.1,28.5-24.3c16.8-2.6,34-5.4,50.9-4.9
	c24.7,0.7,41.5,15.4,46.7,39.7c3.2,14.6,4.6,29.9,4.8,44.9c0.9,61.4,1.5,122.8,1.2,184.1c-0.1,19-2.5,38.1-5.6,56.9
	c-4,24.6-20.3,38.2-43.8,44.4c-50.6,13.3-89.8-12.4-92.9-64.3c-2.5-41.1-0.5-82.5-0.5-123.7
	C1597.2,2558.4,1598.2,2558.4,1599.2,2558.4z M1697.6,2558.7c-0.1,0-0.2,0-0.3,0c0-37.2,0.3-74.4-0.1-111.6
	c-0.4-28.3-7.1-33.7-34.7-29.9c-18.3,2.5-24.7,7.4-25.1,27.4c-1.3,78.4-1.3,156.9-1.8,235.3c0,1,0.2,2,0.2,3
	c0.5,14.6,8.9,21.5,22.7,23.4c24.3,3.4,38.4-7.8,38.9-32.9C1698.1,2635.1,1697.6,2596.9,1697.6,2558.7z"/>
<path d="M1741.4,2283.7c0,41.6-30.6,73-71.7,73.4c-39.2,0.4-73.8-33.2-74.4-72.2c-0.5-37.7,32.6-71.3,70.9-71.9
	C1706.6,2212.3,1741.4,2245.1,1741.4,2283.7z M1669.1,2253c-19.9,0.7-33.2,15.9-31.6,36.1c1.4,18.5,12.9,28.1,32.6,27.4
	c20.3-0.7,33.1-13.4,32.2-31.9C1701.4,2266.1,1687,2252.3,1669.1,2253z"/>
<path d="M1750.3,1106.3c-34.4,0.4-78.6-7.8-120.6-26.9c-42.7-19.4-72.1-49.8-83.6-96.9c-11-45-23.5-89.7-36.8-134
	c-14.5-48.2-0.6-89.5,28.4-127.2c22.4-29.2,51.9-50.8,83.8-68.3c97.7-53.6,201.8-74.1,312.1-55.2c70.2,12,121.4,47.3,134.9,123
	c2.5,13.8,7,27.3,10.4,41c8.5,34.2,16.6,68.5,25.5,102.6c9.8,37.7,2.7,71.2-20.5,102.6c-42.7,57.7-101.9,90.6-167.6,113.2
	C1866.4,1097.5,1814.7,1106.1,1750.3,1106.3z M1718.9,900.8c64.7-3.6,126.4-16.5,184-45.2c39-19.4,75-43.6,100.9-79.7
	c33.9-47.2,23.6-91.4-28.9-116.7c-21.3-10.3-45.5-17.2-69-20.1c-102.7-12.8-198.1,10-284.4,66.7c-22.2,14.6-42.3,34.5-58.8,55.5
	c-27.1,34.3-21.2,71.7,14.1,97.4c16.7,12.2,36.4,22.3,56.2,27.7C1660.9,894,1690.2,896.3,1718.9,900.8z M2047.1,800.5
	c-135.6,137.2-293.7,170.6-477.6,112.7c9.7,34.5,15,67.3,33.9,94.9c7,10.3,18.4,18.5,29.3,25.3c30.5,19,64.6,27.3,100.3,29.5
	c67.5,4.1,132.5-7.7,194.7-33.2c45-18.4,85.6-44.5,118.6-81.2c18.8-20.9,26.6-44.1,18.8-72.3c-4.8-17.4-6.9-35.5-10.8-53.2
	C2052.6,815.8,2049.7,808.6,2047.1,800.5z"/>
</svg>
