<?xml version="1.0" encoding="utf-8"?>
<!-- Generator: Adobe Illustrator 24.3.0, SVG Export Plug-In . SVG Version: 6.00 Build 0)  -->
<svg version="1.1" id="Layer_1" xmlns="http://www.w3.org/2000/svg" xmlns:xlink="http://www.w3.org/1999/xlink" x="0px" y="0px"
	 viewBox="0 0 4000 4000" style="enable-background:new 0 0 4000 4000;" xml:space="preserve">
<path d="M116.7,2263.1c-1.8-17-4.5-32.8-4.9-48.6c-3.8-173.1-6.8-346.2-11.1-519.3c-0.7-26,7.3-43.9,30.2-55.8
	c70.2-36.4,140.1-73.6,210.6-109.4c214.1-108.7,428.6-216.7,642.7-325.4c223.7-113.5,447.8-226.3,670.7-341.3
	c180-92.9,361.1-184.2,536.6-285c116.5-66.9,232.9-86.1,362.8-57c219.5,49.3,433.5,113.2,634,217
	c160.8,83.2,308.5,184.9,432.2,318.4c88.3,95.3,161.4,200.8,205.2,324.3c25.4,71.6,33.9,146.7,34.7,221.9
	c3.9,385.2,6.4,770.4,8.7,1155.7c0.2,41.5-1.3,83.6-8.3,124.4c-6.7,39.2-17,79.2-33.7,115.1c-41.1,88.1-119.8,117.7-210.5,123.8
	c-84.3,5.7-168.8,10.2-253.1,15.6c-88.4,5.6-176.8,10.8-265.1,17.9c-23.6,1.9-46.6,10-65.7,14.3c-25.5-1.8-47.9-6-69.9-4.7
	c-160.7,9.6-321.4,20.6-482.1,30.7c-203.6,12.7-407.2,24.9-610.7,37.3c-150,9.1-300.1,17.4-450,27.7
	c-108.3,7.5-216.4,17.9-324.7,26.4c-18.6,1.5-37.5-1-56.2,0.2c-158,10.7-315.9,22.4-473.9,32.5c-124.5,8-249.2,14.7-373.8,20.7
	c-52.9,2.5-56.2-2.4-57.7-56.6c-2.3-81.8-4.7-163.7-6.6-245.5c-0.9-38.4-0.6-39,37.4-47.4c43.4-9.6,77.2-29.8,91.8-74.6
	c21.9-67-15.8-129.5-85.1-140.8c-43.4-7.1-44.5-8.2-45.5-49.8c-1.7-72.4-3-144.9-5-217.3c-0.5-17.1,4.1-28.7,22.9-31.3
	c9.3-1.3,18.4-3.9,27.4-6.5c63.3-17.9,92.8-71.8,72.9-134.1c-8.8-27.6-28.3-45.2-55.7-53.6C165.2,2276,142,2270.1,116.7,2263.1z
	 M1812.2,1573c-2.3,18.6-3.2,30.6-5.3,42.4c-12,65.9-41,122.2-96.2,161.9c-126.8,91.3-337.5,56.2-400.1-119.8
	c-4.8-13.6-10.2-27-16-42.4c-380.5,29.9-758.2,59.6-1137.4,89.5c4.6,173.8,9,343.5,13.5,514.6c80.7,16,130.5,63.1,135.8,141.3
	c5.9,86.8-41.5,143.8-126.5,170.2c0,34.2,0,66.2,0,98.2c0,31.7,0,63.4,0,95c44.1,6.3,77.7,20.1,102.2,52.3
	c67.9,88.9,34.2,215.5-69.5,257c-18,7.2-29.2,14.9-28.4,37.1c2.3,60.3,2.2,120.7,3.5,181.1c0.2,10.1,3.1,20.1,5.2,32.7
	c140.6-9.4,277.9-18.6,417.4-27.9c2.4-16.2,4.7-29.2,6.3-42.3c12.4-105.5,97.4-196,197.1-212.6c136.1-22.6,240.2,54.2,272,144.2
	c8.9,25,17.8,50,27.2,76.5c505.8-31.2,1010.1-62.3,1515.4-93.5c22.3-113.7,85.5-185.1,200.6-189.7c110.4-4.4,184.1,54.7,220.3,160.2
	c9.1,0,16.9,0.5,24.7-0.1c45.5-3.3,90.9-7.4,136.5-10.2c99.1-6,198.3-10.8,297.4-17.2c49.5-3.2,99.2-6.3,148-14.3
	c76.8-12.5,127.8-63.2,142.2-139.4c6.4-34.1,10-69.2,9.9-103.9c-0.5-394.6-1.8-789.2-3.4-1183.7c-0.1-30.8-3.1-61.7-6.1-92.3
	c-4.4-44-26.7-77.3-69.4-89.9c-31.6-9.3-65.9-16-98.5-14.1c-146,8.3-291.8,20-437.6,30.8c-14.4,1.1-28.5,4.7-44.8,7.5
	c0.4,87.9-22.2,166.4-75.1,234.6c-55,70.8-129.5,107.8-216.9,117.3c-76.6,8.3-149.7-6.6-216.5-46.8
	c-93.9-56.4-140.5-144.3-162.2-251.9C2254.9,1541.4,2034.7,1557.2,1812.2,1573z M2125.4,680.8c8,33.1,20.6,60.3,19.7,87
	c-2.4,72.6-36.7,130.4-103.9,159.9c-99.4,43.8-199.5,36.8-294.2-15.8c-23.2-12.9-39.3-14.5-62.1-2.5
	c-132.9,70.1-265.8,140.3-400,207.8C951.8,1285,618,1451.2,284.6,1618.1c-7.7,3.9-14.7,9-29.2,18c14.9,1,21.1,2.2,27.1,1.7
	c104.3-8.2,208.6-16.7,312.9-24.8c132.4-10.3,264.9-20,397.4-30.3c91-7.1,181.8-15.4,272.8-22.1c20.4-1.5,30.7-9,35.7-29.7
	c9.2-38.1,33.2-66.5,65.1-88.9c84.7-59.7,178.5-72.1,276.4-47.4c63.1,15.9,122.2,42.9,153.1,107.2c7.5,15.5,19.4,14,33.8,13
	c204.8-14.8,409.5-29.3,614.4-42.8c21.8-1.4,34.2-7.1,40.2-29.6c24.5-92.5,88.7-148.3,175.5-179.1c89.5-31.8,181.6-37.3,272.7-7.4
	c78.8,25.8,152.9,60.5,191.4,141.7c6.4,13.6,16.9,14.9,29.9,13.9c149.8-11.3,299.7-22.2,449.5-33.5c51.2-3.9,101.9-4.7,149.9,18.1
	c5.4,2.5,12.1,2.1,25.9,4.2c-20.1-40.6-35.5-76.1-54.6-109.5c-93.4-162.8-223.9-290.8-378-395.2c-263.6-178.6-558-278.2-869.1-332.9
	c-42-7.4-85.8-10.4-127.6,4.3C2269.6,595.4,2198.2,640.7,2125.4,680.8z M3087.9,1477.1c-185.8,15-369.2,29.7-552.4,44.5
	c5.1,110.4,129.4,263.1,304.8,248.2C2989.5,1757.2,3101.7,1629.4,3087.9,1477.1z M3075.1,1413.6c-15.2-17.5-23.2-29.6-33.7-38.4
	c-86.7-72.2-187.2-94.7-296.9-77.8c-60.6,9.3-114.9,35.4-161.6,75.6c-25.5,21.9-46,47.7-47.6,87.2
	C2714,1450,2890.5,1440,3075.1,1413.6z M1049.8,3226.5c-12.4-114.3-122.1-188.4-213.7-171.2c-102.9,19.3-178.2,105.1-163.6,197.1
	C797.1,3243.8,922.2,3235.2,1049.8,3226.5z M1749.2,1580.6c-129.6,9.7-259.5,15.4-387.8,33c-4,86.6,117.4,162.7,204.9,155.4
	C1673.1,1760,1758.4,1677,1749.2,1580.6z M1779.5,859.6c6.9,9.6,7.9,12.4,10,13.6c5.7,3.4,11.6,6.9,17.8,9.1
	c59.9,21.9,120.9,24.5,181.4,5c21.1-6.8,41.7-19.1,59.1-33.2c42.8-34.7,51.8-94.6,21.7-143C1973.7,760.1,1877.7,809.3,1779.5,859.6z
	 M1741,1518.5c-10-11.1-14.4-17.4-20.2-22.2c-99.4-82.4-256.7-72.4-350.1,14.6c-9.7,9-14.7,23.1-26.1,41.9
	C1481.2,1547.8,1607.7,1534.2,1741,1518.5z M2686.3,3123.3c102.5-5.7,201.6-11.3,302.1-16.9c-20.6-70.7-81.3-114.8-147.6-111.5
	C2760.1,2998.9,2700.6,3045.7,2686.3,3123.3z"/>
<path d="M2348.5,2495.7c-1.9,180.6-127.6,383.4-378.9,382.5c-238.2-0.9-379.8-197.2-376-386.7c4.5-223.9,162.9-384.7,377.8-383.9
	C2224,2108.6,2349.9,2313.8,2348.5,2495.7z M2294.4,2499.8c2.4-183.6-140.4-335-317.9-337c-176.2-2-326.1,145.1-327.9,323.3
	c-1.7,171.7,123.7,334.4,314.6,335C2172.3,2821.8,2290.5,2670.2,2294.4,2499.8z"/>
<path d="M3270.2,2702.9c-132-2.8-233.7-108.3-230.5-239.1c3.3-130.6,105.8-233,230.4-230.2c129.8,2.9,236.7,111.7,230.9,239.7
	C3495.8,2590.9,3416.3,2702.6,3270.2,2702.9z M3097.3,2463.8c-1.4,98.7,78.4,182.4,175,183.5c92,1.1,170.9-77.5,172.4-171.7
	c1.6-98.7-75.2-182-169.5-183.8C3174.2,2289.9,3098.8,2362.8,3097.3,2463.8z"/>
<path d="M891.1,2382.1c-120.7-1.7-213.3-99.2-211.1-222.6c2.2-125.8,92.4-217.2,212.6-215.5c122.7,1.7,215,96.6,214.2,220
	C1105.9,2288.3,1011.4,2383.8,891.1,2382.1z M893.3,2001.6c-89.3,0.8-158,72.5-157.1,163.9c0.9,86.9,74.7,161.1,158.6,159.5
	c89.1-1.8,158.3-74.5,156.9-164.9C1050.3,2070.9,980.4,2000.9,893.3,2001.6z"/>
</svg>
