<?xml version="1.0" encoding="utf-8"?>
<!-- Generator: Adobe Illustrator 24.3.0, SVG Export Plug-In . SVG Version: 6.00 Build 0)  -->
<svg version="1.1" id="Layer_1" xmlns="http://www.w3.org/2000/svg" xmlns:xlink="http://www.w3.org/1999/xlink" x="0px" y="0px"
	 viewBox="0 0 4000 4000" style="enable-background:new 0 0 4000 4000;" xml:space="preserve">
<path d="M3859.9,1564.7c-5.3,243-50.8,477.3-141.7,702.9c-64.9,161-154.6,306.6-262.6,441.5c-12.9,16.1-12.1,27.9-2.8,44.2
	c29.3,51.6,47.1,106.8,52.3,166.3c13.1,148-100.1,259.1-248.1,244.1c-61-6.2-115.7-26.1-165.3-61.7c-25.7-18.5-26.2-18.3-53,0.8
	c-165.6,118.3-347.6,202.1-543.6,255c-200.7,54.2-405.2,70.5-612.7,57.7c-165.8-10.3-327.2-40.5-484.4-94.2
	c-138.4-47.2-268.7-111.2-391.8-190c-18.9-12.1-38.2-23.7-56.3-36.9c-12.4-9-22.5-8.5-34.2,0.6c-10.8,8.4-22.3,15.9-34,22.9
	c-64,38.2-132.6,58.7-207.2,45.9c-83.1-14.2-138.1-63.5-167.7-142.5c-25.9-69.3-14.3-136.6,9.7-203.1c7.9-22,18.7-42.9,28.8-64.1
	c10.9-22.9,11.2-22.8-4.8-40.9c-149.3-169.3-259.4-361.3-330.9-575.1c-48.6-145-78.7-294-91.2-446.6c-15.4-188.3,3.7-372.8,65-551.7
	c98.5-287.4,284.4-497.5,562.2-623c107.6-48.6,221.9-73.1,339.6-83.4c165.3-14.4,327.7,1.4,488,42.1
	c136.9,34.7,268,84.6,392.2,151.9c19.8,10.8,34.3,10.3,53.5-0.6c134.1-76.3,276.7-130.8,427.4-164.4
	c155.8-34.7,313.1-46.3,471.6-27.6c271.7,31.9,502.7,144.3,682.8,353.7c95.2,110.7,157.4,239.2,200.5,377.7
	C3841.6,1296.2,3856.6,1429.7,3859.9,1564.7z M2411.2,1761.7c6.5-9.5,13.1-16.7,17-25.1c9.1-19.4,18.2-39,25.3-59.2
	c62.1-177.2,45.4-352.7-17-525.2c-60.6-167.4-173.1-295.3-318.7-394.9c-133.8-91.5-277.8-162.8-431.5-214.6
	c-110.6-37.3-223.8-62.1-339.9-73.7c-108.3-10.8-216.3-9.3-324.4,5.9c-210.9,29.7-394,117.6-547.9,263.7
	c-162.5,154.4-258.6,346-301.4,564.7c-24.9,127.2-30.4,255.6-20.2,385.1c10.2,129.1,32.2,256,68.2,380.1
	c67.6,232.5,186.1,437.6,341.2,622.3c2.2,2.6,6.2,3.8,8.2,5c56.3-73.1,108.6-147.5,167.8-215.9c59.2-68.4,125.4-130.7,189-196.1
	c-2.6-5-4.8-10.5-7.9-15.4c-92.7-144-154.1-300.1-182.8-469c-25.9-152.7-22.8-303.7,27.8-451.4c45.8-133.5,129.9-234.4,257.8-297.3
	c105.3-51.8,217.4-64.2,331.5-50c230.8,28.8,415.3,139.3,554.8,325.7c37.4,50,76.3,99.2,118.5,145.2
	c84.5,92.2,187.7,161.7,292,229.1C2349,1720.3,2378.8,1740.4,2411.2,1761.7z M3421,2687.5c6-2.3,8.3-2.5,9.5-3.7
	c5.5-5.5,11-11.1,15.9-17.1c79.5-97.3,145.3-203.2,199.9-316.3c73.9-153.2,122.5-314.1,151.7-481.6c32.7-187.4,39.2-374.6,3.8-562.2
	c-38.3-203.3-121.3-384.5-264.3-536.5c-120.2-127.8-266.2-213.6-432.7-264c-182-55-368-57.2-554.4-28.4
	c-174.2,26.9-338.8,84.2-494.1,167.6c-8,4.3-15.4,9.9-26.5,17.2c83.7,50.3,161,101.1,229.4,164.2c69.3,64,123.7,139.7,168.2,223.1
	c11.4-3.8,19.7-6.4,27.9-9.2c125-43.8,253.3-56.9,384-37c191.8,29.1,325.9,133,397,314.8c36.5,93.3,47,191.1,45.4,290.5
	c-3.4,207.6-57.4,401.1-162.7,580.1c-15.2,25.8-30.1,51.8-45.5,78.5C3209.9,2391.7,3324.6,2531.6,3421,2687.5z M1620.1,1117.8
	c-11.3,24.5-21.3,43.3-29,63.1c-36.4,93.9-54.4,191.7-56.5,292c-2,93.3,16.6,182.5,63,264.8c32.4,57.5,75.2,106.8,120.9,153.9
	c77.3,79.5,166.6,144.7,253.5,212.6c76.1,59.6,154.5,116.2,231.8,174.4c43.6,32.8,86.9,66,132,100.2c70.3-57.6,146.6-75.2,218.6-9
	c60.4,55.6,59.9,125.1,16.6,194.1c12.1,10,22.7,18.5,33.1,27.3c142.8,120.5,274.6,252.6,404.6,386.5c30.5,31.5,62.5,61.8,95.9,90.2
	c42.7,36.4,93.6,56.6,149.4,61.9c125.3,12,236.1-72.4,216.9-219.4c-6.1-47.1-21.3-91.2-42-133.5
	c-62.8-128.4-147.3-241.8-243.6-346.4c-138.6-150.7-292.2-284.8-456.6-406.9c-146.7-109-299.2-209.5-452-309.6
	c-60.4-39.5-119.2-81.8-176.3-126c-77.8-60.3-141.1-134.8-198.4-214.4c-59.4-82.4-129.5-153.9-213.2-211.6
	C1667.9,1147.5,1646.2,1134.5,1620.1,1117.8z M3038.5,3060.7c-105.9-114.3-214.5-220.1-324.1-325.6c-3.7,4-6.4,5.7-7.4,8.2
	c-13.8,33.5-39.9,51.5-73.8,61.2c-60.6,17.4-120.9,19.6-182,2.4c-14.4-4.1-31.1-5.5-45.6-2.5c-46.8,9.6-92.8,23.1-139.5,32.9
	c-86.1,18.1-173.1,32-261.4,29.9c-132.4-3.1-262.4-23.9-389.4-62c-23.6-7.1-45.3-6.8-68.8-0.6c-23.4,6.2-47.8,12.4-71.7,12.5
	c-70.4,0.3-140.3-3.6-179.3-77c-33.7,21.9-307.3,289.3-328.4,320.8c270.5,199.4,655.5,346.6,1144.2,322.5
	C2450.9,3366.6,2757.7,3256.8,3038.5,3060.7z M1589.4,1794.2c-6.5-12.2-11.1-21.6-16.4-30.7c-54.2-91.9-75.9-192.8-72.4-297.8
	c3.8-114.8,27.7-226.5,73.1-332.8c4.1-9.6,7-19.6,10.7-30.4c-8-4.7-13.5-8.9-19.6-11.3c-123.7-48.7-250.6-74.3-383.9-52.3
	c-126.4,20.9-232.5,76.9-310.8,180.7c-71.9,95.4-102,205.3-111.2,322.1c-6.5,83.1-1.9,165.8,11.7,248.2
	c22.2,134.1,63.2,261.7,129.1,380.8c16.8,30.4,35.7,59.7,56.1,93.5C1153.9,2086.3,1371.4,1941.6,1589.4,1794.2z M1613.5,1825.1
	c-7,4.3-11.2,6.6-15.2,9.3c-82.8,55.4-166.3,109.8-248.1,166.6c-153.3,106.6-300.9,220.7-436.9,349.2
	C803.6,2453.8,700,2562.8,619.1,2691c-43.4,68.8-80.3,140.2-91.5,223.1c-14.3,105.8,64.7,247.4,231.2,214.1
	c64.1-12.8,119.2-43.8,167.2-86.5c43.1-38.2,83.9-79,124.3-120.1c91.8-93.4,186.5-183.7,286.8-268.1c33.5-28.2,66-57.5,99.9-87.2
	c-22.4-32.4-37.9-65.7-32.3-105c5.6-39,20.7-73.2,52.3-98.4c27.7-22.1,59.6-33.5,94.9-33.4c48.1,0.2,85.5,23.3,115.2,58.1
	c29-10.2,297.8-204.5,316.5-228.5C1853.1,2055.9,1716.7,1959,1613.5,1825.1z M3046,2240.8c11.8-18.1,21.5-32.4,30.6-47
	c62.2-99.2,109.1-204.9,137-318.8c23.6-96.3,35.7-194.1,34.9-293.1c-0.7-87.3-11.8-173.4-44.8-255.3
	c-51.4-127.2-139.4-217.2-269.2-264.8c-61.3-22.5-125.1-30.4-189.7-32.4c-95.8-3-188.7,13.1-278.8,45.3c-6.1,2.2-11.7,6.1-19.9,10.5
	c48.2,112.3,77.9,228,80.4,349.6c2.5,122.4-26.9,237.6-82.2,346.2C2653.6,1922.7,2857.3,2067,3046,2240.8z M1620.2,2772.7
	c135.7,37.1,271.5,63.2,411.2,58.2c118.1-4.2,233.6-26.5,349-56.8c-1.7-8.1-2.3-12.8-3.6-17.2c-12.7-41.3-4.3-66.7,31.4-90.6
	c8.8-5.9,18.7-10.5,28.6-14.5c38.9-15.9,79.9-16.4,121.1-15.8c10,0.1,21,4.5,32.1-5.9c-7.4-7.6-13.6-15-20.9-21.1
	c-23.9-19.9-24-19.8-51.1-4.7c-42,23.4-85.1,19-127.1,2.1c-67.5-27-103-119.2-77.5-179.1c2.2-5.2,3.1-11,4.5-16.1
	c-2.6-3.1-4.1-5.8-6.4-7.5c-90.5-68.1-181.1-136.3-271.8-204.2c-18.7-14-19.5-13.6-40.8,1.7c-96,69-191.8,138.3-288,207
	c-14.1,10-22.7,19.4-16.8,38.6c3.6,11.7,2.4,25.3,1.3,37.8c-9.3,104.6-124.9,170.6-207.8,121.3c-25.1-14.9-40.3-6.6-56.1,27.8
	c17.8,0,34.3-1.1,50.6,0.2c46.3,3.6,91.2,12.2,127.7,44.2c25.9,22.7,30.3,43.5,17.1,75.8C1624.9,2759.2,1623.1,2764.6,1620.2,2772.7
	z M1467,2785.5c0.1-1,0.3-1.9,0.4-2.9c11.7-0.8,23.4-0.8,34.9-2.5c27-4,53.9-9.3,76.9-25.2c26.3-18.2,26.8-36,0.7-55
	c-10.1-7.3-21.7-13.4-33.4-17.5c-59.1-20.7-118.5-19.6-177.4,0.9c-17.6,6.1-37.5,14.4-39,35.2c-1.7,22.7,15.8,36.4,35,45.9
	c7.8,3.9,16,7.9,24.4,9.4C1415.2,2778.4,1441.1,2781.7,1467,2785.5z M2536,2784.2c40-2,77.9-4.4,111.7-25
	c13.8-8.5,25.2-18.4,24-36.8c-1.1-17.6-14-24.8-27.5-30.7c-52.5-22.9-107.1-28.9-162.6-15.1c-20.4,5.1-40.2,14.8-58.5,25.5
	c-24.9,14.6-25.2,35.7-2.5,53.6c6,4.7,13.2,8.3,20.3,11.3C2472,2780,2504.6,2784.5,2536,2784.2z M1535.4,2387.6
	c-23.6-0.8-43,18-43,41.6c0,21.3,14.3,35.3,36.9,36.2c25.2,1,43.3-15,44.7-39.3C1575.3,2405.8,1557.7,2388.3,1535.4,2387.6z
	 M2438.9,2387.9c-21.2,0.7-39.5,19.4-38.8,39.8c0.7,22,17.9,36.8,41.4,35.6c20.8-1.1,40.7-20.4,40.3-39
	C2481.3,2405.9,2459.3,2387.2,2438.9,2387.9z"/>
<path d="M616.3,2137.9c0.1,30-21.2,52.4-50.3,53c-27.6,0.6-51.4-23.4-51.6-52.2c-0.2-28,21.3-50.4,49-50.9
	C593.5,2087.4,616.2,2108.9,616.3,2137.9z M562.2,2162.6c9.2-10.5,16.9-15.6,18.7-22.3c2.5-9.3-3.8-16.7-14.2-17.2
	c-11-0.5-15.6,7.5-14.9,16.7C552.3,2145.9,557,2151.6,562.2,2162.6z"/>
<path d="M2305.2,1455.7c26.9,0.3,51.8,23.7,52.1,49c0.4,26.3-25.3,50.1-53.8,50c-28.6-0.2-47.4-19.1-47.2-47.6
	C2256.5,1479.3,2279.2,1455.4,2305.2,1455.7z M2293.2,1517.8c12.4,2.4,22.8,3.3,24.6-11.5c0.4-3.5-6-11-9.5-11.1
	C2293.2,1494.6,2292.9,1505.3,2293.2,1517.8z"/>
<path d="M552.8,1815.3c0-29.1,20.5-50.4,48.7-50.6c31.2-0.2,52.9,20.4,52.7,49.8c-0.3,30.4-20.8,50.2-52.3,50.6
	C572.8,1865.3,552.7,1845,552.8,1815.3z M626.7,1815.1c-10.4-8.4-16-16.3-22.7-17.6c-10.1-1.9-16.3,6.9-14.5,16.2
	c1.1,5.8,8.3,14.7,12.7,14.6C608.8,1828.2,615.4,1821.6,626.7,1815.1z"/>
<path d="M2348.5,1195.4c0.1,28.5-23.3,52.9-51.4,53.5c-28.8,0.6-50.2-20.8-49.7-49.8c0.5-28.5,22.1-49.6,50.8-49.5
	C2327.3,1149.8,2348.4,1168.9,2348.5,1195.4z M2298,1221.7c7.8-11.1,14.7-16.8,15.9-23.5c1.5-8.5-5.5-13.8-14.7-13.5
	c-10.2,0.3-17.2,5.7-15.4,16C2284.8,1206.5,2290.9,1211.5,2298,1221.7z"/>
<path d="M958.7,1025.6c-28.3-0.3-50.2-21.8-50.6-49.6c-0.4-27.8,24.6-52.1,52.5-51.2c26.8,0.9,48.3,24,48.5,52.2
	C1009.4,1005.6,988.3,1025.9,958.7,1025.6z M963,952.9c-9.5,11.1-17.6,16.9-20.4,24.7c-3.1,8.7,4.3,14.7,13.3,14.8
	c11,0.2,19.8-5.2,19.3-17C975,969.4,969.2,963.7,963,952.9z"/>
<path d="M334.6,1624.7c-29.7-0.5-49.4-21-48.2-50c1.2-27.7,21.9-49,47.7-49.1c30.5-0.1,51,20.8,50.3,51.4
	C383.7,1608,365.8,1625.2,334.6,1624.7z M354.2,1572.3c-3.8-3-9.1-10.2-15.7-11.7c-10.6-2.5-15.7,5.8-16.5,15.5
	c-0.7,9.1,4.3,14.8,13.7,15.1C345.1,1591.5,353,1588.8,354.2,1572.3z"/>
<path d="M704,1196c0.6,26.5-23.4,51-50,51.3c-27.6,0.3-52.6-24.7-52.6-52.4c0-24.3,24.2-47.3,50.3-47.7
	C678.9,1146.7,703.4,1169.6,704,1196z M671,1192.7c-3.5-3.2-8.3-11-14.8-12.8c-10.8-3-18.1,4.2-19.8,15.2
	c-1.6,10.2,6.1,19.8,15.7,19.8C663.4,1215,669.5,1208.7,671,1192.7z"/>
<path d="M560.3,940.7c0.1,26.8-20.9,48.9-47.1,49.5c-28.3,0.7-48.1-18.1-48.8-46.5c-0.7-28.7,20.7-51.8,47.8-51.4
	C538.8,892.6,560.2,914.2,560.3,940.7z M513.2,922c-5.9,9.6-10.9,15.5-12.9,22.4c-0.7,2.2,6.4,9.6,10,9.7c9.7,0.2,16.2-6.2,15-16.3
	C524.8,933.6,519.6,930,513.2,922z"/>
<path d="M1049.6,639.3c0.8,29.5-19.8,51.7-47.8,51.7c-27.5-0.1-47.9-19.9-49-47.8c-1-25.9,21.1-50.1,46.3-50.7
	C1024.9,591.7,1048.9,614.1,1049.6,639.3z M1003.3,621.4c-6.9,9.5-14.6,15.5-14.1,20.5c0.6,5.3,8.5,12.3,14.5,13.8
	c8.3,2.1,16.2-4.1,14.6-13.1C1017.3,636.5,1010.5,631.2,1003.3,621.4z"/>
<path d="M1572.1,763.9c-30-1.2-50.4-21.9-49.6-50.4c0.7-25,25.2-48.5,50-48c27.9,0.6,49,23.2,48.4,51.9
	C1620.4,745.7,1600.1,765,1572.1,763.9z M1597.8,717.7c-10.6-8.3-16-15.1-22.8-17.2c-9.2-2.8-19,7.5-17.8,17.3
	c1.2,9.7,7.1,17.1,17,15C1581.1,731.4,1586.9,725,1597.8,717.7z"/>
<path d="M1884.1,1024.3c25.5,0.1,46.3,20.6,46.9,46.1c0.6,26.7-18.2,45-46.2,44.9c-26.5-0.1-46-18.1-45.8-42.3
	C1839.1,1048.8,1861.9,1024.2,1884.1,1024.3z M1887.2,1055.2c-5.4,7.6-10.7,12.1-11.4,17.3c-0.4,2.8,7,9.5,10.7,9.3
	c3.8-0.2,9.9-6.1,10.4-10.1C1897.4,1067.7,1892.1,1063.1,1887.2,1055.2z"/>
<path d="M1598.1,944.4c24.3,0.3,44.9,20.8,45.1,44.8c0.2,25.2-21,44-48.9,43.5c-24.4-0.4-44-19.2-43.9-42
	C1550.4,967.4,1574.4,944.1,1598.1,944.4z M1613,990.7c-6.5-6.2-11.2-13.2-13.6-12.5c-5.1,1.5-10.8,6.3-12.6,11.2
	c-1,2.6,5.8,11.6,8.7,11.4C1600.6,1000.5,1605.4,995.4,1613,990.7z"/>
<path d="M779.8,2172.8c24-0.1,43.7,19.3,43.2,42.2c-0.6,24.9-19.9,42.7-46.1,42.5c-24.4-0.2-41.8-18.2-41.5-42.8
	C735.7,2192.7,756.8,2172.9,779.8,2172.8z"/>
<path d="M2118.6,1335.2c-21-0.4-39.4-18.5-39.5-38.8c-0.1-21.3,20.4-41.7,41-40.8c22.4,1,40.8,20.6,39.4,42
	C2158.3,1318.2,2139.3,1335.6,2118.6,1335.2z"/>
<path d="M2091.1,887.7c0.3,25.6-14.1,40-39.7,39.9c-22.9-0.1-41.7-18.4-41.3-40.3c0.3-21.3,20.3-41.1,41.7-41.4
	C2074.3,845.6,2090.9,863.2,2091.1,887.7z M2063.7,888.8c-5.5-3.8-8.6-7.5-10.5-6.9c-3,0.8-5.7,4.2-7.4,7.2c-0.5,1,2.9,5.9,3.9,5.7
	C2053.5,894,2057,891.9,2063.7,888.8z"/>
<path d="M477.1,2328.2c21.5,0.1,36.2,15.3,35.7,36.8c-0.5,21.9-17,38.2-38.9,38.7c-20.3,0.4-37.5-16.8-36.6-36.8
	C438.3,2346.8,457.4,2328.2,477.1,2328.2z"/>
<path d="M636.3,1442.4c-0.1,21.1-15.2,36.1-36.8,36.7c-22.9,0.6-39.9-15.6-39-37.2c0.8-19.5,18.3-37.7,36.9-38.4
	C617.5,1402.6,636.4,1421.6,636.3,1442.4z"/>
<path d="M356.7,1929.1c-21.2,0.3-37.1-14.7-37.7-35.7c-0.6-20,15.7-38.4,35-39.6c19.7-1.2,39.7,18.2,39.8,38.5
	C393.8,1912.5,377.5,1928.7,356.7,1929.1z"/>
<path d="M1288.1,897.2c-22.2-0.6-37.1-15.9-36.2-37c0.9-19.9,18.6-37,38.2-37c20.8,0,37.6,16.4,37.6,36.7
	C1327.7,882.6,1311.4,897.9,1288.1,897.2z"/>
<path d="M3372.3,2308.4c-29.2,0.2-49.4-19.4-50.2-48.6c-0.8-27.7,24-54.1,50.3-53.7c26.9,0.4,51.4,23.3,52.4,49
	C3426,2285.6,3403.8,2308.1,3372.3,2308.4z M3395.4,2261.3c-10.1-8.9-15.4-17.1-22.1-18.6c-9.4-2.1-17.4,5.4-15.4,15.3
	c1.1,5.6,8.8,12.7,14.4,13.6C3377.8,2272.6,3384.4,2266.6,3395.4,2261.3z"/>
<path d="M2732.1,705c-31.3,0-50.1-18.3-49.7-48.3c0.3-26.4,24.6-51.7,49.6-51.8c27.8-0.1,53.2,24.1,53.9,51.2
	C2786.6,684.3,2763.8,705,2732.1,705z M2758.4,654.3c-11-5.6-16.1-10-21.5-10.6c-11.3-1.2-20.9,7.9-17.7,16.7
	c1.9,5,10.2,12.1,13.3,11.1C2740.2,669.1,2746.7,662.5,2758.4,654.3z"/>
<path d="M2548.3,851.3c-0.3,30-22.1,51.2-52.1,50.6c-29-0.6-49.5-21.4-49.3-50.1c0.2-28.2,22-51.2,48.8-51.4
	C2524.3,800.1,2548.5,823.5,2548.3,851.3z M2516,847.2c-4.4-2.3-10-7.3-16.3-8.1c-10.5-1.4-15.6,6.1-16.1,15.8
	c-0.6,10.3,6.7,12.8,15.2,12.2C2508.3,866.3,2515.1,862.2,2516,847.2z"/>
<path d="M3459.4,1068.3c29-0.5,54.6,23.2,54.3,50.4c-0.2,28.9-23.3,51.4-52.8,51.7c-27.4,0.2-49.7-20-51-46.2
	C3408.5,1096.9,3433.4,1068.8,3459.4,1068.3z M3480.3,1115.2c-3.7-2.8-9.3-10.3-16.1-11.4c-11.1-1.8-17.9,6.7-18.6,17.5
	c-0.7,10.4,6.2,15.7,16.1,16.5C3472.2,1138.5,3480.6,1130.2,3480.3,1115.2z"/>
<path d="M3605.9,2035.9c-28.9-0.4-48.1-19-48.4-46.9c-0.4-28.9,23.8-54.2,50.7-53.1c28.8,1.2,53.4,25.6,52.4,52.1
	C3659.5,2016.6,3637.1,2036.4,3605.9,2035.9z M3625.8,1979.1c-3.3-2-8.9-7.7-14.9-8.3c-11-1-18.8,5.6-19.2,17.3
	c-0.4,11,6.8,16.2,16.9,15.2C3619.4,2002.4,3626.8,1996.6,3625.8,1979.1z"/>
<path d="M3382.7,1853c28.8,0.6,51.1,23.3,49.7,50.6c-1.5,29.1-23.1,49.6-51.5,48.8c-28.9-0.8-49.3-22.7-48-51.6
	C3334.1,1874.5,3357.1,1852.5,3382.7,1853z M3380.5,1880.2c-5.9,12.9-10.7,18.8-11.1,25.1c-0.7,9.4,6.4,14.8,15.2,12.1
	c5.2-1.6,13-9,12.3-12.2C3395.3,1898.3,3389,1892.5,3380.5,1880.2z"/>
<path d="M3064.6,922.2c-29.5-0.4-48.8-20.7-48.1-50.5c0.6-25.6,21-45.2,47.3-45.4c28.3-0.3,50.1,21.7,49.5,49.8
	C3112.5,905,3094,922.5,3064.6,922.2z M3080.6,870.4c-3.5-2.3-8.9-8-15.2-9.5c-8.6-2-17.3,8.4-14,17c1.9,4.8,9,9.9,14.2,10.4
	C3073.1,889,3081.3,885.9,3080.6,870.4z"/>
<path d="M3329.3,1360.5c24.4,1.2,44.8,23.7,44.5,49c-0.3,24.9-22.7,45.3-48.5,44c-25.3-1.2-47.5-23.2-47.1-46.6
	C3278.6,1383,3304.7,1359.3,3329.3,1360.5z M3344.2,1407.9c-6.4-5.6-11.2-11.5-12.5-10.8c-5.2,2.7-9.7,7.3-13.4,12
	c-0.5,0.6,6,9.3,8.1,8.8C3331.8,1416.7,3336.6,1412.5,3344.2,1407.9z"/>
<path d="M3638.6,1490.7c0.4,26.6-20.5,46.3-49,46.4c-25,0.1-44.6-19.5-44.1-44c0.5-24.5,23.4-48.5,45.8-48
	C3617.6,1445.7,3638.2,1465.5,3638.6,1490.7z M3601.6,1485c-9.7-1.6-18.2-2.7-20.7,8.4c-0.7,2.9,3.8,9.9,6.2,10
	C3596.7,1504,3603.1,1499.5,3601.6,1485z"/>
<path d="M3439,1669c0.8,22.4-17.5,41.6-39.8,41.7c-21.4,0.1-38.3-17.3-38.4-39.4c-0.1-19.9,16.4-39.3,34.7-40.8
	C3417,1628.9,3438.2,1647.6,3439,1669z"/>
<path d="M2272.3,686.3c-0.4-20.1,18.4-40,38.4-40.5c20.6-0.5,37.6,17.4,38,39.9c0.4,22.7-16,40.5-37,40.2
	C2291.5,725.7,2272.7,706.8,2272.3,686.3z"/>
<path d="M3333.4,802.2c1.7-19.1,20.8-34.7,40.5-33.3c22.3,1.6,36.9,19.1,34.7,41.5c-2.2,23.1-18.2,36.4-41.5,34.7
	C3346.5,843.5,3331.4,824.2,3333.4,802.2z"/>
<path d="M1996.1,1667.9c0.6,29.3-23.4,52.7-54.4,53.2c-28.9,0.4-50.2-20-51-48.9c-0.9-29.7,20.7-52.5,50.4-53
	C1971.4,1618.5,1995.6,1639.9,1996.1,1667.9z M1971,1670.7c-12.8-8.5-19.4-15.6-27.1-17.2c-10.2-2.1-20.8,8.9-17.4,17.3
	c2.7,6.7,10.8,15.4,16.7,15.5C1950.4,1686.5,1957.8,1678.7,1971,1670.7z"/>
<path d="M1813.9,1384.1c-0.1,27.5-24.6,51.6-52.7,52c-26.5,0.4-51.2-23.1-52-49.2c-0.8-26.9,24.4-51.3,52.9-51.1
	C1790.8,1336,1814,1357.6,1813.9,1384.1z M1786.9,1386.7c-10.7-8.4-16.3-16.1-22.9-17.2c-10.8-1.7-17.9,6.3-18.7,17.1
	c-0.7,10,5.3,17.9,15.2,16.1C1768.3,1401.4,1775,1394.3,1786.9,1386.7z"/>
<path d="M3217.9,2885.6c-28.4-1-46.5-20.6-45.4-49.1c1.1-27.2,24.6-50.9,50.1-50.5c28.9,0.4,53,24.9,51.1,52
	C3271.9,2866,3247.7,2886.6,3217.9,2885.6z M3226.3,2816.2c-7.9,9.6-15.1,14.8-17,21.4c-2.1,7.5,2.9,17.5,11.9,15.4
	c6.4-1.5,12.8-10,15.8-16.8C3238.4,2833,3231.9,2826.2,3226.3,2816.2z"/>
<path d="M2963,2457.1c30.4,1.2,48.8,20.6,48.1,50.6c-0.8,31.4-21.7,51-52.6,49.2c-30-1.8-49.1-22.6-47.3-51.8
	C2912.8,2477,2935.4,2456,2963,2457.1z M2964.1,2482.8c-8.1,9.9-15.3,15.3-17.4,22.1c-2.7,9.1,7.6,19.6,16.6,19.9
	c9.7,0.3,19.5-9.3,16.8-19.1C2978.3,2498.7,2971.6,2493.1,2964.1,2482.8z"/>
<path d="M2465.9,2136c-0.2,28.7-22.4,51.3-49.7,50.5c-29.3-0.9-50.8-21.9-50.9-49.8c-0.2-28,22.2-50.2,50.2-50
	C2445.3,2087,2466.1,2107.3,2465.9,2136z M2421.8,2119.3c-15.5,0.8-23,9.5-22,19.8c1,10.2,7,15.7,17.1,16.1
	c10.5,0.5,20.8-8.4,18.1-17.6C2432.7,2129.9,2425.2,2123.8,2421.8,2119.3z"/>
<path d="M1836.5,1950.1c-23.8,0-41.2-18.9-40.5-43.9c0.6-22.4,21.3-42.4,43.8-42.1c23,0.2,40.5,17.8,40.5,40.9
	C1880.3,1930.2,1861,1950.1,1836.5,1950.1z M1851.1,1905.8c-6.5-2.8-11.1-6-12.3-5c-3.7,3.2-6.2,7.8-9.1,11.9
	c2.2,1.4,5.3,4.5,6.5,3.9C1840.6,1914.4,1844.4,1910.9,1851.1,1905.8z"/>
<path d="M2201.2,1872.7c0.1,23.2-20.1,43.7-42.6,43.2c-23.3-0.5-40.6-17.7-41.1-40.7c-0.5-24.1,18.2-44.9,40.6-45.2
	C2180.9,1829.6,2201.2,1849.7,2201.2,1872.7z M2169.1,1868.4c-7.3-5.6-14.2-6.3-18.5,3c-1.2,2.5,0.5,9.3,2.1,9.8
	C2162.9,1884.1,2169.3,1880.6,2169.1,1868.4z"/>
<path d="M2765.8,2179.4c21.5-0.7,40.1,16.6,40.1,37.5c0,21.3-17.4,39.6-38.1,40.1c-23.9,0.6-39.4-13.9-39.5-36.9
	C2728.2,2198.3,2745,2180.1,2765.8,2179.4z"/>
<path d="M2912,2773.1c-23.1-0.3-38.3-16.1-37.5-39.1c0.8-22.1,18.6-39.6,39.1-38.5c19.7,1.1,36.7,18.8,36.9,38.5
	C2950.7,2756,2933.5,2773.4,2912,2773.1z"/>
<path d="M1692.3,1649.7c-21.9,0.4-35.8-11.8-36.7-32.4c-1-21.6,15.6-39.7,37-40.3c21.3-0.6,38.7,15.1,38.7,34.8
	C1731.1,1633.9,1715.3,1649.3,1692.3,1649.7z"/>
<path d="M2852.7,3037.2c0.7,28.7-20.6,51.7-48,51.9c-29.8,0.2-52.1-19.9-52.6-47.3c-0.4-28.3,23.3-52.1,51.9-52.1
	C2831.7,2989.7,2852.1,3009.7,2852.7,3037.2z M2802,3061.5c8.9-8.6,17.5-13.2,19.3-19.7c2.7-9.9-5.4-15.7-15.3-16.8
	c-10.5-1.2-20.6,7.4-18.4,17.1C2789,3048,2795.3,3052.8,2802,3061.5z"/>
<path d="M2514.8,3192.1c-28.5-1.2-48.6-21.9-47.1-48.7c1.4-25.4,28-48.9,54-47.8c26,1.2,45.9,24.6,44.2,52
	C2564.3,3175.7,2544,3193.3,2514.8,3192.1z M2516.5,3165.6c7.9-10.2,14-15.7,16.6-22.5c0.8-2.1-9.2-11.8-12.1-10.9
	c-6,1.8-12.7,7.5-15.1,13.3C2504.5,3148.8,2510.8,3155.4,2516.5,3165.6z"/>
<path d="M1453.8,3220.4c-29.5-0.4-49.8-21.1-48.7-49.6c1-26.9,22.7-49.3,47.7-49.4c28.8-0.1,52.5,23.4,52,51.6
	C1504.3,3201.9,1484,3220.8,1453.8,3220.4z M1474.2,3167.9c-4.4-3.2-10.9-11.4-18.5-12.6c-11.1-1.8-17.3,7-17.9,18.2
	c-0.6,10.4,7.9,17.4,19.6,15.8C1466.5,3188,1474.4,3184.6,1474.2,3167.9z"/>
<path d="M2043.8,3156.6c28.2,0.9,48.2,21.2,47.8,48.3c-0.4,28.1-21.3,49.3-47.5,48.4c-25.2-0.9-47.6-24.8-47.2-50.1
	C1997.3,3178.6,2020.2,3155.9,2043.8,3156.6z M2044.3,3225.6c7.5-9.9,13.9-15.3,15.6-21.9c0.8-3-7.1-11.3-12-12.1
	c-9.7-1.6-17.3,4.4-16.2,15C2032.3,3211.7,2037.8,3216.2,2044.3,3225.6z"/>
<path d="M2407.9,2956.8c0.3,25.2-20.3,45.6-46.7,46.2c-26.5,0.6-46.7-18.3-47.9-44.8c-1.1-25.3,22.4-49.1,48.1-48.7
	C2386,2909.8,2407.6,2931.9,2407.9,2956.8z M2363,2940.6c-5.8,6.8-10.9,10.9-12.8,16.2c-0.7,1.9,7.6,10,9.9,9.3
	c5.2-1.6,10.5-6.4,13.1-11.2C2374.2,2953,2367.9,2947.3,2363,2940.6z"/>
<path d="M1218.5,3125.3c-25,0.3-43.7-16.8-44.4-40.6c-0.7-24.9,18.4-47.3,41.1-48.2c23.6-1,43.9,17.8,44.3,41.1
	C1259.9,3104,1241.9,3125,1218.5,3125.3z M1206.2,3090.4c10.8,2.9,19.6,4.2,21.2-8.1c0.4-3.2-4.3-9.9-7.3-10.4
	C1208.3,3070.2,1206,3078.4,1206.2,3090.4z"/>
<path d="M1774.4,3108.6c-22-0.3-36.4-16-36.6-39.9c-0.2-21.2,17.4-39.3,38.2-39.4c21.1-0.1,38.1,17.4,38.2,39.3
	C1814.3,3092.9,1798.3,3108.9,1774.4,3108.6z"/>
<path d="M1496.6,2965.2c0.6-20,18.5-36.9,38.3-36.2c20.8,0.8,38.9,20.4,37.7,40.8c-1.2,20.3-18.7,36.2-39.1,35.4
	C1510.7,3004.4,1495.9,2988.4,1496.6,2965.2z"/>
<path d="M891,2728.5c-27.7-0.1-48.2-19.6-48.9-46.5c-0.6-27.8,23.4-53.1,50.7-53.5c28.3-0.4,53,23.9,52.1,51.3
	C944,2709,922.3,2728.6,891,2728.5z M912,2675.2c-3.6-3-9.1-10.8-15.6-11.9c-10.2-1.7-15.1,6.8-15.7,16.8
	c-0.6,9.5,4.3,15.1,13.5,15.2C903.9,2695.5,911.2,2691.4,912,2675.2z"/>
<path d="M699.2,2843.4c29.9,0.3,50.4,20.1,50.2,48.5c-0.2,30.5-20.7,51.2-51.2,51.6c-28.7,0.4-49.7-18.5-50.1-45.2
	C647.6,2866.9,669.7,2843.2,699.2,2843.4z M699.4,2870.6c-7.7,9.8-14.6,15.1-16.6,22c-3.1,10.4,4.7,15.9,14.3,17.3
	c10.2,1.5,21.3-7.4,18.8-16.4C714,2886.5,707.1,2880.8,699.4,2870.6z"/>
<path d="M1336.8,2245.5c-23.3-0.2-40-18.6-40.4-44.5c-0.4-25.4,21.5-48.8,44.8-48c25.4,0.9,45.6,22.8,44.5,48.3
	C1384.8,2226.3,1363.1,2245.8,1336.8,2245.5z M1356.1,2198.4c-5.1-4.4-8.9-9.2-10.2-8.6c-5.5,2.7-10.2,6.8-15.2,10.5
	c2.6,3.2,6.4,9.6,7.6,9.1C1344,2207.2,1348.9,2203.1,1356.1,2198.4z"/>
<path d="M1071.8,2400c23.1-0.2,43.6,19.4,44.2,42.3c0.6,25.2-20.7,47.3-46,47.5c-23.8,0.2-40.9-16.1-41.9-39.8
	C1027.1,2424.6,1048.4,2400.2,1071.8,2400z M1063,2451.6c2.1,1.5,4.2,3,6.2,4.5c2.9-4,5.8-8,8.6-12c-2.3-1.3-6.2-4.1-6.6-3.7
	C1068.1,2443.8,1065.6,2447.8,1063,2451.6z"/>
<path d="M1210.9,2612.6c0.2,23.6-20.1,43.6-45,44.2c-22.8,0.5-38.4-14.8-38.5-37.8c0-23.8,18.3-43.8,40.7-44.4
	C1192,2573.9,1210.7,2590.5,1210.9,2612.6z"/>
<path d="M1809,2180.5c0.5,22.5-17,40.4-40.3,41c-24.6,0.7-43.3-16.9-43.3-41c0-22.7,17.6-41,40.1-41.4
	C1790.1,2138.7,1808.4,2156.2,1809,2180.5z"/>
<path d="M1645.2,2051.2c0.5,24.3-17.6,42.9-41.7,43c-22.9,0.1-38.9-15.1-39.8-37.7c-0.9-22.9,18.9-45.4,40.2-45.7
	C1627,2010.6,1644.7,2027.8,1645.2,2051.2z"/>
<path d="M2009.7,2757.1c-61.8,3.9-133.7-44.4-146.5-132.5c-1.3-9-1.5-18.2,9.9-21.2c11.3-3,18.7,1.3,22.4,12.6
	c4.6,13.9,8.5,28.1,14.8,41.2c30,62.6,98.8,82.3,157.7,45.8c19.8-12.3,34.1-28.9,40.4-51.7c3.1-11.3,6.1-22.5,9-33.9
	c2.4-9.6,7.7-17.8,18-13.9c7,2.6,12.4,10.6,17.3,17.1c1.8,2.4,0.2,7.6-0.5,11.4C2136.1,2711.9,2082.9,2758,2009.7,2757.1z"/>
</svg>
