<?xml version="1.0" encoding="utf-8"?>
<!-- Generator: Adobe Illustrator 24.3.0, SVG Export Plug-In . SVG Version: 6.00 Build 0)  -->
<svg version="1.1" id="Layer_1" xmlns="http://www.w3.org/2000/svg" xmlns:xlink="http://www.w3.org/1999/xlink" x="0px" y="0px"
	 viewBox="0 0 4000 4000" style="enable-background:new 0 0 4000 4000;" xml:space="preserve">
<path d="M2004.7,3670.9c-140.1-0.2-262.5-5.7-383.8-28.3c-205.1-38.2-393.2-116.8-565-234.8c-159.8-109.8-299-241.3-416.6-395.5
	c-151.6-198.8-253.8-420.8-314.4-663.2c-42.9-171.4-54.8-345.3-46.4-520.6c10.3-216,65.7-421.1,155.9-617.5
	C539.7,981.6,687,783.4,877.1,618c234-203.7,501.4-343.7,805.5-411.1c145.3-32.2,292-36.3,439.4-23.7
	c315.9,27,603.1,135.5,863.9,313.1c171.8,117,313.9,264.6,426.3,440c91,142.1,161.7,293.5,206.7,456.4
	c33.9,122.6,54.4,247.4,65.4,374.2c9.7,112.3,13.6,224.5,6.6,337.1c-20.3,328-124.4,625.6-319.9,890.8
	c-136.5,185.1-301.8,338.7-499.4,456.5c-183.4,109.3-381.9,175-593.5,203C2181.5,3667,2084.6,3669.1,2004.7,3670.9z M1980.1,3635
	c140.5,1.7,279.9-8.3,417.6-37.8c202.6-43.4,389-125.1,558.3-243.8c166.5-116.9,305.1-262,420.9-429.5
	c185.8-268.7,278.2-566.6,282.8-892.5c2.1-143.5-8.1-286-30.2-427.8c-32.7-209.4-99.5-406.3-207.3-589.3
	c-108-183.4-250.3-335.4-419.5-463c-135.8-102.5-286.1-178.5-445.1-237.2c-166-61.4-338-95.6-515.1-103
	c-88.1-3.7-175.9-0.5-263,13.7c-294,47.9-556.6,167.9-791.4,349.1c-205.3,158.4-369.2,351.9-489.3,582.8
	c-105.8,203.3-171.2,417.5-183.9,646.8c-14.6,263.7,19.6,520,115.3,767.7c78.5,203.1,195.1,381.7,340,542.6
	c88,97.7,188.3,181.8,295.4,257.6c166.6,118.1,349.8,198.7,550.9,235.9C1736.6,3629.5,1858.1,3635.8,1980.1,3635z"/>
<path d="M3559.1,1949.1c1.5,255.4-46.8,500.8-157.8,731.2c-146.9,304.9-373.7,533.7-674.2,689.6c-135.5,70.3-279,116.8-429.3,140.9
	c-134.7,21.6-270.8,23.8-407,19.6c-166.6-5.2-329.8-29.9-486.8-87.8c-159.9-58.9-304.6-144.1-435.4-253.2
	c-138.2-115.3-252.3-250.8-338.1-409c-70.1-129.2-118.2-267.1-152.5-409.9c-41.9-174.8-65.6-351.8-60.3-531.8
	c5-167.8,38.6-330.6,93.4-489c44.7-129.2,105.7-250.6,182.8-363.4C822.3,798.6,985.5,647.6,1182,532.7
	c165.5-96.7,341.7-165.5,529.9-203.3c135.3-27.2,271.4-37.3,408.8-21.5c81.4,9.3,161.3,26.5,240.4,47.8
	c144.6,39,283.6,92.3,416.4,161.7c147.4,77,275.9,178.3,389.2,300c177.7,190.7,285,417.2,343.5,668.7
	C3540.8,1617.2,3557.9,1793.6,3559.1,1949.1z M3523.8,1973.8c0-129-8.7-235.8-22.9-342.5c-22.3-167.9-71.9-327.3-146.2-479
	C3235,907.9,3049.9,724,2820.2,583c-121.7-74.7-253.3-128.2-389.4-171c-117.5-37-237.7-61.3-360.2-71.6
	c-133.6-11.2-265.7,4.1-395.8,34c-155.4,35.7-301.9,95.2-441.3,172.6c-225.6,125.2-409.8,294.7-544.7,514.8
	c-158.7,258.9-239.9,540.7-236.1,845.4c2.6,204.1,40.1,402.5,99.6,597.2c57.3,187.6,149.8,355.3,279.4,502.8
	c127.3,144.9,278.5,258.5,450.1,344.9c149.6,75.3,309,118.8,475.5,133.9c137.7,12.5,275.7,12.6,413.8,2.4
	c155.4-11.5,304.7-47.3,447.9-108.5c162.5-69.4,307-166,435.6-287.3c161.2-151.9,283.3-330,362.8-536.8
	C3492.1,2361.7,3527.6,2160.5,3523.8,1973.8z"/>
<path d="M3017.4,1899.1c71.5,0,143.1,1,214.6-0.3c68.5-1.2,92.6,39.3,88.2,96.3c-9.3,122.5-27.4,243.6-60,362.1
	c-10.8,39.3-24.5,77.9-37.8,116.5c-12,34.6-35.2,52-73.8,51.6c-120.6-1.3-241.1-0.2-361.7-1c-42.3-0.3-62.8-20.2-68.1-63.2
	c-2.1-17.2-3-34.6-3.1-51.9c-0.2-133.9-0.1-267.7,0-401.6c0-10.2,0.4-20.5,1.5-30.6c6.5-56.5,29.4-77.5,85.6-78.1
	c39.8-0.4,79.7-0.1,119.6,0c31.7,0,63.4,0,95,0C3017.4,1899,3017.4,1899,3017.4,1899.1z M2751.2,2213.4c-0.2,0-0.4,0-0.5,0
	c0,69.5-0.1,139,0.1,208.5c0,11.2-0.1,22.6,1.4,33.7c3.2,23.8,11.9,32.1,35.3,34.8c6.1,0.7,12.2,0.6,18.4,0.6
	c103.2-0.3,206.4,0,309.6-1.4c65.8-0.8,63.3,6.7,88.8-63.5c30.1-82.9,49.3-168.6,61.7-255.6c9.2-64.6,14.3-129.8,18.7-194.9
	c2.1-30.9-8.9-40.3-40.1-40.4c-148.2-0.5-296.4-0.6-444.5-0.3c-35,0.1-45,10.6-48,45.6c-0.9,10.2-0.8,20.4-0.8,30.6
	C2751.1,2078.5,2751.2,2146,2751.2,2213.4z"/>
<path d="M1225.4,2217c0,72.6,0.1,145.1-0.1,217.7c0,13.2-0.2,26.7-2.4,39.7c-4.8,29.2-23.8,47.1-52.8,51
	c-10.1,1.3-20.4,2.3-30.5,2.3c-92-0.3-184-0.8-275.9-1.4c-9.2-0.1-18.4-1-27.6-1.4c-29.2-1.1-51.4-14.4-63.7-40.6
	c-14.3-30.5-27.6-61.5-39-93.1c-45.5-125.9-67.4-256.5-74.8-389.8c-1.5-26.7-2-53.2,16.2-76c10.7-13.5,22.9-23.1,40.8-23.6
	c13.3-0.4,26.5-1.7,39.8-1.7c127.7-0.3,255.5,1.6,383.2-1.7c51.2-1.3,86,37.6,85.2,82.5c-1.4,78.7-0.4,157.4-0.4,236.1
	C1224.1,2217,1224.8,2217,1225.4,2217z M1189.9,2216.1c-0.2,0-0.5,0-0.7,0c0-77.7,0.8-155.4-0.3-233.1c-0.6-40-10.1-48.3-50-48.3
	c-131.9-0.1-263.8,0.1-395.7,0.5c-40.3,0.1-50.3,10.7-49.4,51.8c1.6,74.8,10.6,148.8,25.6,222.1c16.8,82.3,40.1,162.6,70.6,240.9
	c11.9,30.7,30.3,44.1,64.7,42.9c80.7-2.7,161.5-1.5,242.3-2.1c20.4-0.2,40.9-0.5,61.3-2.3c22.5-1.9,28-7.7,30.9-30.2
	c1.2-9.1,0.9-18.4,0.9-27.6C1189.9,2359.3,1189.9,2287.7,1189.9,2216.1z"/>
<path d="M2056.7,3000.4c0-63.4,0-126.7,0-190.1c0-11.2,0-22.5,0.4-33.7c1.9-49,27.8-75.8,76.5-76.4c84.8-1.1,169.6-1.1,254.4-1.4
	c23.5-0.1,47,0,70.5,0.2c58.1,0.5,87.3,28,87.7,86c0.8,116.5,0.3,233,0.2,349.4c0,7.1-1.1,14.2-1.8,21.3
	c-3.3,32.7-19.9,55.1-51.2,65.9c-18.3,6.3-36.6,13-55.3,18c-97.6,26.5-195.7,50.6-296.7,60.6c-10.1,1-20.5,2.3-30.5,1.2
	c-24.8-2.8-41.9-16.6-47.7-41c-3.5-14.7-4.7-30.3-4.8-45.5c-0.5-71.5-0.2-143-0.2-214.6C2057.7,3000.4,2057.2,3000.4,2056.7,3000.4z
	 M2093.8,3002.6c0,0-0.1,0-0.1,0c0,21.5-0.1,42.9,0,64.4c0.3,54.2,0,108.4,1.1,162.5c0.7,32.5,9.7,39.6,42,35.5
	c23.3-3,46.4-7.3,69.6-10.9c90.9-14.4,180.5-34.5,267.4-65.3c32.5-11.5,37.3-17.4,37.5-51c0.5-119.6,0.5-239.2,0.1-358.8
	c-0.1-33.3-11.2-45.2-44-45.4c-109.4-0.7-218.8-0.6-328.2,0.1c-32.4,0.2-41.6,10.1-44.5,42.1c-0.9,10.2-0.9,20.4-0.9,30.6
	C2093.8,2871.8,2093.8,2937.2,2093.8,3002.6z"/>
<path d="M1884.8,3004.9c0,68.5,0.4,136.9-0.1,205.4c-0.6,77.5-26.8,100.9-102.9,84.2c-80.6-17.8-160.3-40.3-239.9-62.5
	c-32.3-9-63.5-22.2-95-34.3c-26.2-10.1-40.9-29.7-43.2-57.9c-1.2-14.2-2.7-28.5-2.8-42.8c-0.4-105.3-0.4-210.5-0.8-315.8
	c-0.1-19.9,2.3-38.6,15-55c14-18.2,32-28.1,55.1-28.1c28.6,0,57.2,0,85.8,0.1c78.7,0.3,157.4,0.6,236.1,0.9
	c64,0.3,91.2,26.1,92.3,91.2C1885.6,2861.8,1884.7,2933.4,1884.8,3004.9C1884.7,3004.9,1884.8,3004.9,1884.8,3004.9z M1849,3005
	c0.1,0,0.1,0,0.2,0c0-73.6,0.3-147.3-0.1-220.9c-0.2-37.4-12.5-50.5-49.4-50.7c-105.3-0.6-210.7-0.6-316-0.1
	c-38.1,0.2-47.5,9.5-47.7,47.4c-0.5,110.5,0.4,220.9-0.5,331.4c-0.3,30.8,10.7,50.8,40.5,60.1c69.2,21.6,137.8,44.9,207.6,64.5
	c40.2,11.3,81.8,18.4,123.2,24.3c34.1,4.9,42.1-3.5,42.3-38.1C1849.2,3150.2,1849,3077.6,1849,3005z"/>
<path d="M3005.9,1726c-71.6,0-143.1,0-214.7,0c-51.1,0-78-25-78.6-76.6c-1.6-127.8-2.3-255.6-2.8-383.4c-0.1-13.1,1.5-27,6.2-39.1
	c9.5-24.6,27.8-40.5,55.4-41.6c28.6-1.2,57.2-1.3,85.9-1.5c67.5-0.4,135.1,1.5,202.4-1.6c47.2-2.2,76.8,17,98.7,57
	c42.6,77.5,74.4,159.2,99.9,243.4c14.8,48.8,24.8,99.1,36.9,148.7c0.7,3,1.1,6,1.6,9.1c8.8,58.4-11.1,83.5-69.9,84.4
	c-73.6,1.1-147.2,0.3-220.8,0.3C3005.9,1725.4,3005.9,1725.7,3005.9,1726z M3006.1,1690.8c0-0.4,0-0.7,0-1.1
	c38.8,0,77.7,0.3,116.5-0.1c37.8-0.3,75.7-0.2,113.4-2.3c26.3-1.5,32.4-10.5,27.7-36.1c-25.5-137.4-66.2-269.5-133.4-393
	c-15.6-28.6-35.6-41.1-68.1-40.6c-84.8,1.2-169.7,0.2-254.5,0.3c-8.2,0-16.4,0.3-24.5,1.4c-28.7,3.8-34.8,10.2-37.2,38.7
	c-0.3,4.1-0.4,8.2-0.4,12.3c-0.1,120.6-0.2,241.2-0.2,361.9c0,9.2,0.1,18.5,1.6,27.5c3.5,21,11.2,28.2,32.1,30.3
	c10.1,1.1,20.4,0.8,30.6,0.9C2875.3,1690.8,2940.7,1690.8,3006.1,1690.8z"/>
<path d="M2046.2,1458.2c0-58.3-0.1-116.6,0.1-174.9c0.1-13.3,0.4-26.7,2.6-39.7c6.3-37,29.6-58.1,67-58.6c79.8-1,159.6-0.8,239.4-1
	c37.8-0.1,75.7-1,113.5,0.1c37.6,1.1,60.3,21.4,67.1,58.7c2.7,15,3.4,30.5,3.4,45.8c-0.3,115.6-1.1,231.2-1.7,346.8
	c0,7.2-0.2,14.3-0.7,21.5c-3.4,43.3-27.4,67.6-70.8,68.5c-58.3,1.2-116.6,0.9-174.9,0.9c-55.2,0.1-110.5,0-165.7-0.4
	c-51.8-0.4-75.7-22.7-76.6-74.3c-1.2-64.4-0.3-128.9-0.3-193.3C2047.8,1458.2,2047,1458.2,2046.2,1458.2z M2082.9,1453.9
	c-0.2,0-0.3,0-0.5,0c0,56.2-0.1,112.4,0.1,168.6c0,11.2-0.1,22.6,1.5,33.6c3.4,23.2,12.9,31.6,36.1,33.8c6.1,0.6,12.2,0.6,18.4,0.6
	c101.1-0.3,202.3-0.6,303.4-1.1c10.2,0,20.6,0.1,30.6-1.6c20-3.3,26-9.7,29.4-29.6c1.2-7,1.5-14.2,1.5-21.3
	c0.2-119.5,0.5-239.1,0.2-358.6c-0.1-51.7-9.6-60.6-61.1-60.5c-97.1,0.1-194.1,0.2-291.2,0.4c-10.2,0-20.5,0-30.6,1.1
	c-28.7,3.3-34.6,9.6-37.2,38.4c-0.7,8.1-0.7,16.3-0.7,24.5C2082.9,1339.5,2082.9,1396.7,2082.9,1453.9z"/>
<path d="M1873.4,1456.6c0,60.3,0,120.6,0,180.9c0,8.2,0.2,16.4-0.7,24.5c-4,37-29.5,62-66.7,63.1c-44.9,1.3-89.9,1-134.9,1.1
	c-65.4,0.1-130.8,0.1-196.2-0.2c-53-0.3-75.3-21.2-75.9-74c-1.5-126.7-1.9-253.4-2.5-380.2c-0.1-11.2,0.9-22.6,3-33.5
	c6.4-34.1,26.3-52.2,61.2-52.5c115.5-1,231-0.8,346.4-1.4c30.9-0.1,50.4,15.8,59.9,43.3c4.9,14.1,6.5,29.9,6.6,45
	c0.7,61.3,0.3,122.6,0.3,184C1873.8,1456.6,1873.6,1456.6,1873.4,1456.6z M1432,1454.5c0,64.5-0.5,128.9,0.2,193.4
	c0.4,32.8,8.2,42,39,42.2c109.5,0.7,218.9,0.6,328.4-0.3c29.4-0.2,37.7-9.6,39.3-39.5c1.2-21.4,0-42.9,0-64.4
	c0-101.3,0.5-202.6-0.1-303.9c-0.3-57.6-7-63.4-63.5-63.5c-3.1,0-6.1,0-9.2,0c-59.3,0.2-118.7,0.4-178,0.6
	c-38.9,0.1-77.8-0.7-116.6,0.6c-32.1,1.1-36.7,6.7-39.1,38.4c-0.6,8.1-0.5,16.4-0.5,24.5C1431.9,1339.9,1431.9,1397.2,1432,1454.5z"
	/>
<path d="M941.7,1726.7c-67.5,0-135,0.3-202.5-0.1c-53-0.3-74.4-23-64.1-75.2c10.3-51.9,23.3-103.8,41-153.6
	c25.6-72.1,56.3-142.4,85.4-213.2c6.2-15,15-29,22.7-43.4c20.5-38.2,48.8-58.4,95.9-56.2c74.5,3.5,149.2,0.4,223.9,0.7
	c51.1,0.2,76.5,24.7,79.5,76.5c1.2,21.4,0.9,42.9,0.9,64.4c-0.2,108.4-0.1,216.8-0.9,325.1c-0.4,49.6-24.2,73.9-73.3,74.6
	c-69.5,0.9-139.1,0.2-208.6,0.2C941.7,1726.5,941.7,1726.6,941.7,1726.7z M943.2,1694c0-0.3,0-0.5,0-0.8c45,0,90,0.4,135-0.1
	c26.6-0.3,53.2-1.3,79.7-3.5c20.1-1.7,26.9-8.9,30.5-28.3c1.3-7,1.4-14.2,1.4-21.4c-0.1-113.5-0.1-227.1-0.6-340.6
	c-0.1-17.3-2-34.7-3.2-52c-1-14.6-9.9-21.8-23.5-23.9c-7-1.1-14.3-1.3-21.4-1.3c-73.6-0.4-147.3,0.5-220.9-1.7
	c-33.4-1-52.8,12.3-67.7,41.1c-45.6,88.4-85.2,179.1-113.8,274.3c-12.3,41-22.6,82.8-31,124.8c-5.1,25.1,1.6,30.9,27,33
	c7.1,0.6,14.3,0.3,21.5,0.3C818.5,1694,880.8,1694,943.2,1694z"/>
<path d="M1355.6,2198.4c2.5-89.2,61.3-145.4,147.9-144.1c77.8,1.2,137.9,76.7,135.4,142.8c-3.2,84-64.7,144.2-145.2,142
	C1412,2336.8,1353.4,2277.2,1355.6,2198.4z M1500.8,2145.4c0-21.3-13.4-34.9-34.2-34.9c-24.6,0.1-41.6,16.3-41.4,39.5
	c0.2,20,14.8,35,34.6,35.4C1483.6,2185.8,1500.9,2168.9,1500.8,2145.4z"/>
<path d="M2407.6,2056.6c76.3,0.3,139.3,62.7,139,137.9c-0.3,82.3-63.7,145.2-146.1,145.1c-76.8-0.1-136-61.2-135.5-140
	C2265.7,2115.7,2324.9,2056.3,2407.6,2056.6z M2372.4,2182.8c24.1-0.3,40.9-15.1,40.9-36.3c0.1-19.9-16.7-35.2-38.3-35
	c-24.5,0.3-41.6,17.2-40.6,40C2335.3,2170.7,2350.3,2183.1,2372.4,2182.8z"/>
<path d="M2291.9,1008.4c-57.2,0-114.5,0.6-171.7-0.5c-13.7-0.3-28.3-4.2-40.7-10c-18.7-8.7-29.4-24.8-30.6-46.2
	c-0.9-16.3-2.6-32.6-2.7-49c-0.5-93-0.6-186-0.9-279c0-4.1-0.1-8.2,0.2-12.3c2.5-39.7,29.5-64.7,69-60.6
	c34.5,3.6,69.1,8.5,102.7,16.6c78.3,19,156.7,38.2,233.9,61.4c73.4,22,85.3,40.6,86.1,117c0.7,62.3,0.3,124.7-0.6,187
	c-0.7,48-25.9,74.5-73.1,75.4c-57.2,1.1-114.4,0.3-171.7,0.3C2291.9,1008.6,2291.9,1008.5,2291.9,1008.4z M2287.5,972.2
	c0-0.4,0-0.8,0-1.3c57.3,0,114.5,0.6,171.8-0.2c30.9-0.5,39.9-8.3,40.5-37.5c1.5-70.5,0.7-141.1,2-211.6c0.5-29.7-14.3-44.6-41-52.6
	c-34.2-10.3-67.8-22.9-102.1-32.9c-77.6-22.6-156.3-40.3-237-47.9c-32.4-3.1-39.2,2.7-39.3,34.1c-0.4,102.3-0.5,204.5,0.1,306.8
	c0.2,39.2,4.8,42.8,45.5,43C2181.1,972.3,2234.3,972.2,2287.5,972.2z"/>
<path d="M1632,1012c-47.1,0-94.1,0-141.2,0c-9.2,0-18.4,0.2-27.6-0.4c-42-2.7-62.9-20.7-64.5-62.3c-2.8-72.5-3.4-145.2-3.3-217.8
	c0-31,15.5-55.3,44.1-68.4c28.7-13.1,58.1-25.2,88-35.5c84.2-29,170.4-50.6,258.1-66.2c8-1.4,16.2-2.4,24.4-2.7
	c29.4-1,48.8,11.9,57.1,40.5c4.2,14.5,6.1,30.1,6.2,45.3c0.5,95.1,0.2,190.3,0.1,285.4c0,5.1,0.1,10.3-0.5,15.3
	c-3.9,36.8-28.9,63-65.8,64c-58.3,1.5-116.6,0.4-174.9,0.4C1632,1010.3,1632,1011.2,1632,1012z M1627.7,976.5c0-0.6,0-1.3,0-1.9
	c51.1,0,102.2,1,153.3-0.3c53-1.3,58.8-8.4,58.5-62.3c-0.5-87.9-1-175.8-2.1-263.7c-0.6-50.5,4.9-64.1-62.8-49.6
	c-69.8,14.9-138.7,34.4-207.2,54.5c-37.1,10.9-72.6,27-108.7,41.2c-19.3,7.6-27.6,22.2-27.5,43.2c0.2,66.4-0.9,132.9-0.3,199.3
	c0.3,33.3,7.1,39.2,40.4,39.5C1523.4,976.8,1575.6,976.5,1627.7,976.5z"/>
<path d="M2720.6,2899.8c0-39.9-0.5-79.8,0.1-119.7c0.9-52,24.7-78.8,76.2-80.1c75.6-2,151.4-1.9,227-0.3c50.2,1,69.6,35.8,40.8,76.2
	c-34.3,48.2-71.6,94.7-112.1,137.7c-43.4,46-92,87.2-138.8,129.9c-9.7,8.9-21,16.7-32.8,22.4c-32.3,15.4-53.5,2.4-56.5-34.1
	c-1.9-23.4-2.8-47-3.4-70.5c-0.5-20.4-0.1-40.9-0.1-61.4C2720.9,2899.8,2720.8,2899.8,2720.6,2899.8z M2759.4,3030.8
	c10.8-5.5,17.5-7.9,23-12c93.2-70.9,173.4-154.7,244.8-247.3c6.3-8.2,9.3-19.1,15.8-32.9c-15.4-2-26.1-4.5-36.9-4.6
	c-55.1-0.5-110.2-0.4-165.3-0.3c-16.3,0-32.7-0.1-48.9,1.7c-26.4,2.9-31.3,8.2-34.1,34.1c-0.9,8.1-1.1,16.3-1.2,24.5
	c-0.1,68.4-0.1,136.7,0.1,205.1C2756.8,3008.1,2758.2,3016.9,2759.4,3030.8z"/>
<path d="M1226.9,2879.9c0,34.7,0.1,69.4-0.1,104.1c0,7.1-0.3,14.4-1.9,21.3c-4.7,20.2-19.5,28.7-39.1,21.8
	c-8.4-3-16.4-8.3-23.3-14.1c-79.2-66.7-148.2-143.2-211.9-224.5c-6.2-8-11.8-16.8-16-26c-13.4-29.2,4.3-60.3,36.6-60.9
	c66.3-1.2,132.7-1.1,199.1,0.3c31.4,0.7,55.9,28.9,57.3,64.7c1.5,37.7,0.3,75.5,0.3,113.3
	C1227.6,2879.9,1227.3,2879.9,1226.9,2879.9z M1191.6,2986.1c0-16.4,0-28.4,0-40.3c0-57.1,0.7-114.2-0.1-171.2
	c-0.5-30.9-6.1-36.2-35.7-37.2c-50.9-1.7-101.9-2.6-152.8-3c-11.4-0.1-22.9,3.5-34.6,5.4C980.2,2781.4,1136.4,2954,1191.6,2986.1z"
	/>
<path d="M2460.8,2536.6c-37.8,2.2-76.8-8.3-113.4-27.8c-51.7-27.4-55.8-79.9-9.4-115.6c25.9-19.9,56.4-27.8,87.9-32.3
	c57.5-8.1,114.1-6.5,166.7,22c24.7,13.4,48.1,29.9,48,61.8c-0.1,34-23.5,52.7-51.1,66.4C2550.3,2530.6,2508.3,2537.1,2460.8,2536.6z
	 M2476.6,2389.9c-40.4,3.1-78.3,10.9-112.8,30.1c-31.5,17.6-30.9,43.9,1.9,59.1c71.3,33.2,143.4,28,213.2-4
	c31.4-14.4,30.1-39.3,0.3-57.5c-5.2-3.2-10.8-6.2-16.6-7.6C2534,2403,2505.3,2396.6,2476.6,2389.9z"/>
<path d="M1422.4,2356.5c45.9-0.5,89.2,8.3,128.5,33.1c51.3,32.3,52.8,88.8-0.9,116.4c-83.4,42.9-169.6,43.2-252.2-2.3
	c-50.4-27.7-50.7-81-3.7-113.9C1332.5,2362.8,1376.9,2357.2,1422.4,2356.5z M1426.7,2504.2c0.2-1.1,0.5-2.1,0.7-3.2
	c10.2-0.6,20.5-0.2,30.5-1.9c28.1-4.8,56.7-9.1,79.7-27.9c18.8-15.4,19-30.1,0.7-45.5c-6.9-5.8-15-10.5-23.2-14.5
	c-30.8-14.8-63.8-21.6-97.7-20.7c-35.9,0.9-71.1,7.1-102.1,27c-27.8,17.9-27.5,38.5,0.7,56.5c8.5,5.4,17.9,10.4,27.6,12.7
	C1371.1,2493.4,1399,2498.5,1426.7,2504.2z"/>
<path d="M2831.9,1007.9c-22.4,0-44.9,1-67.3-0.3c-32-1.8-50.9-20.2-52.1-52.4c-1.4-34.6-1.6-69.4,0.2-103.9
	c1.8-35.3,27.4-49.5,59.9-35.3c5.6,2.4,11.4,5.1,15.9,9c41.5,36.1,82.8,72.4,124,108.9c5.3,4.7,9.5,10.7,13.5,16.5
	c20.3,29.3,8.4,55.3-26.9,57.3C2876.8,1008.9,2854.4,1007.9,2831.9,1007.9z M2750.7,965.6c29.5,7.4,116.2,6.3,137.6-0.9
	c-20.9-33.4-108.6-105.5-141.5-113.2C2746.8,890.6,2742.9,928.5,2750.7,965.6z"/>
<path d="M1110.1,1013c-17.3-0.8-34.9,0-51.9-2.6c-28.3-4.2-38.3-28.3-22.5-52c5.1-7.6,11-14.8,17.7-21.1c32-30,64.3-59.8,96.8-89.3
	c12.3-11.2,25.3-20.9,43.9-14c19.7,7.3,24.4,24.2,25.5,41.7c1.6,25.4,2.8,51.1,0.8,76.4c-3,37.8-20.6,54.8-58.2,58.3
	c-17.2,1.6-34.7,0.3-52,0.3C1110.2,1011.5,1110.1,1012.2,1110.1,1013z M1073.5,969.3c1.3,2.2,2.6,4.4,3.9,6.6
	c26.2,0,52.5,1.1,78.6-0.6c8.8-0.6,19.6-6.6,25.1-13.6c9.7-12.1,6-69.6-4.6-90C1141.7,904.7,1107.6,937,1073.5,969.3z"/>
<path d="M1943.2,2446.8c-69.9-0.4-133.4-51-148.7-119.1c-2-8.8-3.4-18.6-1.7-27.2c1.1-5.3,8-11.5,13.6-13c3.7-1.1,11.5,4.2,13.9,8.5
	c4.3,7.9,6.2,17.2,8.7,26c17,60,75.7,90.3,115.9,88.4c53.3-2.5,107.6-35.6,121-95.1c1.3-6,3-11.9,4.4-17.8
	c2.2-9.3,8.3-15.7,17.3-12.6c6.5,2.2,13.8,8.7,15.9,15c2.3,7,0.1,16.1-1.7,23.9C2085.3,2397.6,2021.1,2447.2,1943.2,2446.8z"/>
</svg>
