<?xml version="1.0" encoding="utf-8"?>
<!-- Generator: Adobe Illustrator 24.3.0, SVG Export Plug-In . SVG Version: 6.00 Build 0)  -->
<svg version="1.1" id="Layer_1" xmlns="http://www.w3.org/2000/svg" xmlns:xlink="http://www.w3.org/1999/xlink" x="0px" y="0px"
	 viewBox="0 0 4000 4000" style="enable-background:new 0 0 4000 4000;" xml:space="preserve">
<path d="M1655.8,415.7c0.6-8.8,1.5-15.5,1.5-22.2c-0.2-64.7-0.6-129.4-0.7-194c0-37.6,7.2-50.7,43.5-60.1
	c38.2-9.9,77.5-17.6,116.8-20.9c133.5-11.4,267-11.8,399.7,10c15.3,2.5,30.6,5.8,45.2,10.7c31.3,10.4,44.4,28.4,44.7,61.6
	c0.5,61.2,0.3,122.5,0.3,183.7c0,10.1,0,20.3,0,29.1c36.9,8.7,70.4,16.2,103.6,24.6c12.5,3.2,24.6,8,36.4,13.2
	c24.1,10.5,37.9,29.4,41.5,55.2c1.9,13.6,3.3,27.5,3.3,41.2c-0.3,91.4-0.9,182.8-1.8,274.2c-0.4,39.8-9.3,51.1-47.2,63.4
	c-4.1,1.3-8.2,2.6-12.5,3.4c-11.9,2.3-18,9.4-17.9,21.6c0.3,52.6-2.5,105.4,1.4,157.6c10.9,144.6,65.7,273.6,146.1,392.9
	c46.9,69.5,100.9,133.4,156.1,196.2c107.1,121.8,188,259,243.6,411.3c38.2,104.5,58.1,212.6,67.4,323
	c17.7,209.6-7.8,414.7-65.7,616.2c-43.7,151.9-98.3,299.7-171.2,440.2c-17,32.8-36.8,64.3-56.7,95.5c-55.1,86-133.7,136.6-234,155.7
	c-109.5,20.8-219.7,34.8-331.1,35.8c-127.6,1.2-255.3,2.1-382.8-1.4c-109.4-3-218.1-16.4-325.6-38.8
	c-99.4-20.7-174.8-73-229.1-158.5c-53.4-84.1-95.5-173.7-132.6-265.7c-50-124-92.6-250.5-121.7-381.3
	c-33.7-151.6-48.3-304.8-39.2-459.8c10.4-176.6,51.5-345.7,133.3-503.6c49.4-95.4,110.2-183.1,180.7-264
	c68.6-78.7,134.6-159.4,189.3-248.7c62.6-102.3,102.5-212.9,114.4-332c5.6-55.5,1.5-111.9,0.6-168c-0.3-19.5-3.2-20.9-22.1-25.8
	c-56.2-14.7-61.7-20.1-61.9-77.2c-0.4-92.3,1.7-184.5,1.3-276.8c-0.2-45.2,21-73.9,62.3-87.6c28.5-9.5,58.1-15.6,87.3-23
	C1632.7,420.2,1642.9,418.4,1655.8,415.7z M1515,1571.7c-4.7,5.1-9,9.1-12.6,13.8c-22.9,30.2-45.8,60.5-68.4,90.9
	c-53.4,72-109.5,142.2-159.1,216.7c-95.8,143.8-151.3,303.6-171.7,474.8c-16.1,135.2-10.8,270.4,12,404.7
	c24,140.8,64.9,276.7,117.4,409.4c32.1,81.1,68.1,160.2,110.5,236.4c10,18,22.3,34.8,34.3,51.6c27.4,38.4,64.9,59.6,111.2,69
	c111.8,22.8,224.9,34.2,338.6,40.1c138,7.1,275.9,4.7,413.7-5.5c83.5-6.1,166.1-18.1,248-35.6c43.3-9.3,78.8-30.8,103.4-67.6
	c20.1-30.1,39.9-60.6,56-92.9c95.4-190.6,167.5-389.2,204.3-599.8c27.1-155,30.6-310,4.3-465.6c-31.2-185-106.5-350.3-218.7-499.6
	c-55.4-73.7-111.2-147.2-166.8-220.8c-14.2-18.7-14.1-17.7-35.9-9.3c-35.3,13.6-70.7,27.4-107.1,37.5
	c-68.3,19-138.7,26.2-209.2,31.4c-119.9,8.9-239.7,6.3-358.8-9.9C1675.8,1629.9,1592.2,1613.1,1515,1571.7z M1587.9,902.1
	c0,11.6-0.1,19.1,0,26.6c0.4,23.3,1.4,46.6,1.3,69.8c-0.8,159.4-46.9,305.6-129.9,440.7c-48.4,78.8-105.9,151-166.3,220.8
	c-58.8,67.9-114.6,138.1-160.7,215.3c-101.9,170.7-155.9,355.9-164.5,554.4c-7.3,168.2,7.7,334.2,48.7,497.7
	c36.8,146.7,86.8,288.8,149.6,426.4c28.7,62.8,59.9,124.3,99.8,180.9c42.5,60.2,96.7,105.3,169.9,123.2
	c30.9,7.6,62.2,14.2,93.5,19.7c127,22.3,255.4,27.3,383.8,30.4c123.3,2.9,246.8,3.5,369.6-10.4c73.6-8.3,147-18.9,219.9-31.4
	c82-14.1,147.6-56.9,195.1-125.1c23.1-33.2,44.2-68,63.5-103.5c47.1-86.5,84.1-177.5,117.2-270.1
	c60.6-169.3,108.4-341.5,119.1-522.3c7.5-126.9,6-253.2-16.3-378.8c-37.9-214.1-128.5-402.5-270.5-566.9
	c-67-77.6-134.5-154.9-189.7-242c-100.7-159.1-152.2-331-141-520.2c0.6-10.2,0.1-20.4,0.1-30.9c-4.3-0.2-6.8-0.8-9.1-0.5
	c-17,2.8-34.1,5.3-50.9,8.7c-18.1,3.7-19.5,5.3-20.2,23.9c-5.1,140.5,16,276.5,67.8,407.8c44.2,112,112.4,209.2,184.8,303.8
	c59.2,77.3,120.4,153,172.5,235.7c106.1,168.6,163.9,352.5,176.2,550.7c9.2,147.3-5.3,293-37.8,436.7
	c-36.8,162.9-92.8,319.3-164.9,469.9c-24.9,52.1-52,103.1-86.4,149.9c-29.5,40.1-68.5,64.1-117.2,74.1
	c-112.5,23.2-226,39.2-340.8,42.1c-148.3,3.7-296.6,6.1-444.6-8.7c-80.7-8.1-160.9-19.2-240.1-36.7c-43.5-9.6-80.4-31-107.5-66.9
	c-14-18.5-27.6-37.6-39.4-57.6c-48.4-81.9-86.8-168.5-121.3-257c-69.9-179.2-120.4-362.9-132.8-556c-8.2-127.3-0.7-253.2,26.1-378
	c32.1-149.6,94-286.4,182.2-410.8c59.8-84.3,123.4-166,185.8-248.6c49.5-65.6,92.9-134.9,125.3-210.6
	c60.1-140.2,85.7-286.7,80.8-438.9c-0.2-7.4-1.8-14.8-2.9-23.2C1639.9,911.6,1615.7,907.1,1587.9,902.1z M2268.7,922.7
	c-191.9,20.1-379.9,19.5-571.6-2.6c3.4,92.2-2.1,180.2-20.2,267.4c-18,86.8-48.8,169.2-83.4,253.6c263.4-55.9,522.7-53.8,786.2,0.7
	c-42.4-82.4-70.8-165-89.7-251.1C2270.7,1103.6,2266.2,1015.4,2268.7,922.7z M1689.3,211c-0.8,4.7-2.2,8.7-2.2,12.7
	c-0.4,70.7-0.8,141.3-0.8,212c0,20.9,1.7,24.2,22,28.8c35.2,8,70.6,16,106.4,20.3c91.8,11.1,183.8,12.6,276.1,4.9
	c53.2-4.4,106.6-7.9,158.6-21.3c25.5-6.6,27.7-9.7,27.8-35.3c0.4-68.1,0.6-136.2,0.7-204.2c0-5.8-1.2-11.6-2-18.1
	C2080,251.3,1885.2,250.4,1689.3,211z M1532.3,1547.7c24.4,10.6,45,21.3,66.8,28.6c64.7,21.8,131.6,34.7,199.4,40.6
	c146.2,12.9,292.4,13.4,437.9-9.5c60.5-9.5,119.8-23.8,176.4-47.6c8.3-3.5,15.8-8.9,25.3-14.4c-8.9-16-16.4-29.4-23.9-42.9
	c-7.2-12.9-18.3-20.7-32.4-23.6c-60.7-12.3-121-27.6-182.2-35.4c-96.6-12.3-194.1-14.3-291.5-11c-102.5,3.5-204.1,14.2-304.1,39.3
	C1564,1482.1,1547.8,1509.8,1532.3,1547.7z M1699.3,176.2c10.7,3.6,17.4,6.9,24.6,8.1c43.3,7.2,86.4,16.1,130,20.3
	c114.5,11.2,228.8,7.6,342.5-10.4c21.1-3.3,43.1-5.8,64.3-18.3c-23.7-17.1-49.1-17.9-73.4-21.5c-95.8-14-192.3-15.1-288.7-11
	c-52.3,2.2-104.4,9.8-156.6,15.6C1727.9,160.7,1713.7,163.9,1699.3,176.2z M2308.6,449.9c-1.9,4.4-3.9,7.4-4.5,10.6
	c-4,20.4-16.9,30.9-36.7,34.7c-15.2,2.9-30.1,7.4-45.3,10c-118.6,20.6-237.9,27.1-357.7,15c-51.2-5.2-102-15-152.8-24.1
	c-26.4-4.7-50.3-14.9-53.9-45.7c-37.9-1.2-108.2,19.2-128,38.6c11.2,4.5,20.6,9.5,30.7,12.2c103,27.9,209.2,32,314.7,38.8
	c131.8,8.5,263.5-0.9,394.6-15.3c45.2-4.9,89.7-15.7,134.3-24.9c11-2.3,21.2-8.6,33.2-13.6C2417.6,468.5,2347.1,449.3,2308.6,449.9z
	 M1878.4,901.4c5.4-28.8,6.6-309.8,1.7-327.7c-29.4-5.9-31.5-5.9-51.7,1.6c0,107.4,0,215.5,0,326.1
	C1845.1,901.4,1861,901.4,1878.4,901.4z M2080.5,573.5c-0.1,110.5-0.5,219.3-0.1,328.2c19.8,0,36.3,0,52.2,0
	c6.4-31.2,3.4-311.8-3.5-333.5C2115.1,569.7,2100.8,571.3,2080.5,573.5z M1741.5,567.6c0,109.2,0,217,0,327.8
	c17.7,1.6,34.3,3.1,54.3,4.9c0-112.2,0-221.5,0-332.6C1777.6,567.6,1760.8,567.6,1741.5,567.6z M2254.3,560.9
	c-2.2,111.3-2.7,220.1-2.8,333.5c21.4-3.9,38.4-6.9,54.5-9.8c4.7-38.8,1.4-312.5-4.3-328.8C2287.2,557.4,2272.1,559,2254.3,560.9z
	 M2170.6,568c-6.6,30-5.5,314,1.1,333.2c11.5-0.9,23.4-1.9,35.4-2.8c11.6-0.8,16.9-7.1,16.5-18.6c-0.2-5.2-0.2-10.3-0.2-15.5
	c-0.4-94.7-0.8-189.4-1.4-284.1c0-4.8-2.2-9.6-3.8-16.4C2202,565.3,2186.8,566.6,2170.6,568z M2048.5,905.1
	c0.7-113.1,0.7-221.8-0.2-332.8c-18.7,1-33.6,1.8-50.4,2.8c-0.1,112.1-2.5,220.6-0.5,330C2015.9,905.1,2030.9,905.1,2048.5,905.1z
	 M1965.3,575.3c-17.8,0-32.7,0-50,0c0,110.4,0,218.7,0,327.6c16.8,5.6,33,6.5,50-1.3C1965.3,793,1965.3,685.5,1965.3,575.3z
	 M1708.1,890.3c0.3-30.5,0.6-57.7,0.7-84.9c0.2-27.5,0.2-55,0.3-82.5s0.3-55-0.1-82.5c-0.4-27,3.4-54.2,0-81.7
	c-14.6-0.8-25.8-1.7-36.9-2c-4.1-0.1-8.3,1-14.7,1.9c0,108.2,0,215.8,0,325.4C1674.3,886.1,1689.2,887.9,1708.1,890.3z
	 M2337.9,877.4c5.7,0,10,0.7,13.9-0.1c43.8-8.7,38-4.7,38.3-42.4c0.7-91.3,0.8-182.7,1.1-274c0-5.9-1-11.7-1.8-20.6
	c-17.8,3.5-34,6.7-51.5,10.2C2337.9,661,2337.9,768.3,2337.9,877.4z M1623.4,874.1c0-108.5,0-217.1,0-327.5
	c-16.5-2.1-31.4-4-50.1-6.4c0,12.6,0,21.8,0,31c-0.1,86-0.2,171.9-0.2,257.9C1573.1,873.7,1574.9,875.3,1623.4,874.1z M2417.8,858.4
	c36.7-5.1,45.2-13.8,45.2-42.4c0.2-91.4,0.5-182.7,0.7-274.1c0-8.3,0-16.6,0-25.4c-41.8,7.5-42.9,8.8-43.2,45.5
	c-0.9,85.3-1.8,170.6-2.7,256C2417.7,830.8,2417.8,843.5,2417.8,858.4z M1540.4,855.3c0.6-5,1.8-10.1,1.8-15.1
	c-0.1-97.2-0.2-194.3-0.6-291.5c-0.1-23.9-5.4-28-34.8-29.1c-0.8,5.7-2.4,11.6-2.5,17.4c-0.3,95.4-0.7,190.9-0.5,286.3
	C1503.7,847.3,1511.6,853.5,1540.4,855.3z"/>
<path d="M1990.3,3272.4c-123.4-1.7-246.3-10-368.6-27c-58.8-8.2-117.3-18.9-176.1-27.6c-15.2-2.3-24.5-9.6-31.9-22.6
	c-91-159.3-146.6-329.9-168.1-512.3c-17.6-149.1-8.2-295.9,27.4-441.4c4.1-16.7,9.9-33,15.2-49.4c3.4-10.7,10.7-14.7,21.9-13.1
	c13.6,2,27.4,3.4,41.1,4.9c87.7,9.2,159.3-19,212.1-91.1c23.4-32,44.7-65.7,70-96c97.5-116.9,224.9-169.4,375.1-160.5
	c149.8,8.9,270.2,75.6,355.5,201.4c14,20.7,28.9,40.8,43.7,60.9c49.5,67.4,117.4,92.5,198.9,86.6c12.9-0.9,25.8-2.2,38.7-3.4
	c27.1-2.4,28.8-2.9,36.1,24.3c12.8,47.4,27.2,94.8,34.1,143.1c41.7,294-11.3,571.2-151.6,832.5c-13.5,25.1-30.9,37.1-59.2,41.9
	c-154,26.4-309,42.4-465,48.8C2023.1,3273,2006.6,3272.4,1990.3,3272.4z M1312.7,2211.2c-2.5,6.8-4.3,10.7-5.4,14.8
	c-21.7,78.4-34.9,158.2-39.4,239.4c-7,124.9,6.4,247.9,34.1,369.6c25.4,111.6,68,216.6,120.4,318.3c14.5,28.2,32.5,40.5,62.9,43.9
	c67.6,7.6,134.8,18.9,202.4,26.9c123.5,14.6,247.5,20.9,371.7,15.3c82.6-3.7,165.2-10,247.5-18.1c65.1-6.4,129.7-17.4,194.6-26.3
	c15.6-2.1,26.3-9.7,34.3-23.9c43.5-77.7,79.1-158.8,105.7-243.8c31.3-100,49.2-202.1,56.3-306.7c8.1-119.7-0.6-237.6-29.1-354.1
	c-4.4-18.1-10.2-35.9-15.5-54.1c-10.4,0-18-0.2-25.6,0c-19,0.5-37.9,2.1-56.8,1.6c-66-1.6-123.3-24.9-167.5-74.4
	c-22.3-24.9-41.6-52.7-60.6-80.3c-71.9-104.9-168.2-172.1-295.5-188.7c-171.4-22.4-309.3,37.7-414.2,174.3
	c-15.2,19.8-28.4,41.1-42.7,61.7c-24.5,35.3-54.6,64.1-93.7,83.1c-39.8,19.2-81.8,26.2-125.5,24.5
	C1352.2,2213.5,1333.4,2212.3,1312.7,2211.2z"/>
<path d="M1981.9,2159.1c8.6-11,14.7-18.8,20.9-26.6c24.6-30.8,54.9-50.9,95.3-55.7c77.2-9.2,140,54.5,129.4,132
	c-6.9,50.4-30.9,92.5-62.7,130.9c-34.2,41.4-74.4,76.5-116,110c-15.4,12.4-30.7,25.1-46.8,36.6c-15.4,11-22.8,10.9-37.3-0.5
	c-50-39.4-101.7-76.8-145.3-123.9c-35.6-38.5-63.6-81.1-77-132.5c-6.7-25.9-5.2-51.4,3.6-76.2c24.8-70.2,92.7-89.5,153.7-69.1
	C1935.1,2095.9,1962.3,2119.6,1981.9,2159.1z M1985.6,2216.8c-2.6-0.3-5.1-0.5-7.7-0.8c-4.9-9.7-10.1-19.4-14.7-29.3
	c-15.2-32.2-37.5-56.9-69.9-73.4c-44.3-22.5-125.2,7.8-124.7,77.6c0.1,13.6,1.8,27.5,4.9,40.8c7,30,23.5,55.3,42.8,78.8
	c44.1,53.7,97.2,97.6,151.8,140c9.9,7.7,18.3,8.4,27.8,0.9c12.8-10.2,26.2-19.8,38.2-30.8c35.7-32.5,72-64.3,105.8-98.6
	c28.8-29.3,47.7-65.5,57-105.8c11.8-51.3-19.1-100-69.2-109.3c-28.2-5.2-52.8,4.5-75,20.9c-21.9,16.2-38,37.2-49.9,61.8
	C1998.2,2199.2,1991.4,2207.8,1985.6,2216.8z"/>
<path d="M2425.8,2622c-0.5,59.6-46.3,104.6-105.7,103.7c-53.6-0.8-100.6-49.9-100.5-104.9c0.1-59.2,47.4-108,103.6-106.6
	C2379,2515.6,2427.9,2562.3,2425.8,2622z M2307.6,2608.7c18.5,0.5,31.9-10.4,31.7-25.6c-0.2-14-12-27-25-27.6
	c-16.3-0.6-31.7,14-31.8,30.2C2282.4,2599.3,2292.2,2608.3,2307.6,2608.7z"/>
<path d="M1752.9,2623.7c-1.6,58.1-48.3,103.9-104.5,102.4c-56.4-1.5-102.8-50-101.5-106.1c1.4-57.8,50.9-107.6,105.6-106.1
	C1709.5,2515.5,1754.5,2564.7,1752.9,2623.7z M1623.8,2611.5c18,0.5,31.9-10.7,32.2-25.8c0.2-15.1-10.2-26.3-24.9-26.9
	c-17.1-0.7-30,11.2-30.3,27.7C1600.6,2601.3,1609.5,2611.1,1623.8,2611.5z"/>
<path d="M2382.3,2735.7c33.4,0.4,62.5,6.4,87.9,24.8c30.9,22.3,32.6,56.3,2.8,79.9c-11.1,8.8-25,15.5-38.8,19.5
	c-36,10.5-73,11.3-109.8,4c-21.5-4.2-40.9-13.4-55.8-30.2c-16.6-18.9-18.1-42.8-0.3-60.3c11.8-11.6,27.5-20.3,42.9-26.8
	c13.2-5.5,28.4-6.4,42.8-8.5C2364.3,2736.5,2374.7,2736.3,2382.3,2735.7z M2380.4,2839.2c12.8-2.5,32.4-5.1,51.2-10.5
	c13.7-3.9,30.4-9.5,30.5-26.8c0.1-17.2-16.8-23-30.1-27.9c-45.5-16.9-89.6-9.8-131.6,11.9c-19.2,10-18.8,21.8-0.7,34.8
	C2322,2836.7,2347.9,2837.4,2380.4,2839.2z"/>
<path d="M1600.3,2868.3c-31.9-0.6-61.8-6.9-89.1-23.7c-35.4-21.8-37.4-59.2-4.2-84.5c19-14.5,40.8-22.1,64.3-24.6
	c32.9-3.5,65.6-1.4,96.6,10.4c12.6,4.8,24.9,12,35,20.8c21.1,18.4,22.6,46.6,1.7,65.7c-12.8,11.8-29.5,21.1-46.1,26.5
	C1640.2,2865,1619.9,2865.4,1600.3,2868.3z M1595.9,2837.8c27.5-1.5,54.1-3.6,77.7-18.3c21.1-13.2,21-25.8-0.2-38
	c-27-15.6-56.7-21.3-87.1-16.8c-20,3-40.5,9-58.5,18c-19.8,9.9-18.8,24.6-0.2,37.2C1548.4,2834,1572.5,2835.8,1595.9,2837.8z"/>
<path d="M1982.4,2824.9c-51.4-0.1-99-30.7-115.9-75.7c-3.8-10.2-5.2-21.7-5.3-32.6c0-4.1,6.4-10.9,10.7-11.7
	c4.2-0.7,10.8,3.6,14,7.6c3.6,4.5,4.4,11,6.5,16.7c14.6,40.1,48.2,64.4,89.9,65.3c40.6,0.8,76.5-23.2,92.6-62
	c2.3-5.6,4.2-11.3,6.3-16.9c3-8.1,8.1-13.3,17.5-11.6c10.7,2,10.3,10.5,9.3,18.2c-3.9,29.3-16.5,54.3-39.4,73.2
	C2043.5,2815.8,2014.6,2825.4,1982.4,2824.9z"/>
</svg>
