<?xml version="1.0" encoding="utf-8"?>
<!-- Generator: Adobe Illustrator 24.3.0, SVG Export Plug-In . SVG Version: 6.00 Build 0)  -->
<svg version="1.1" id="Layer_1" xmlns="http://www.w3.org/2000/svg" xmlns:xlink="http://www.w3.org/1999/xlink" x="0px" y="0px"
	 viewBox="0 0 4000 4000" style="enable-background:new 0 0 4000 4000;" xml:space="preserve">
<path d="M405.7,2171.6c-22.6-21-43-38.8-62.1-58.1c-47.9-48.3-65.4-106.8-58.9-174.2c7-73.2,12.1-146.7,17.4-220
	c2.4-33.4,5.6-66.4,22-96.5c6.5-12,4.9-22.3-2.1-33.8c-24.1-39.6-27.6-81.9-22.1-128c9.3-78,16.4-156.5,18.3-235
	c2.2-89.4,43.3-152.6,115.3-200.2c79.8-52.8,167.2-88.9,257.4-118.6c166-54.7,336-92.3,509.1-116.1c77.9-10.7,155.8-21,233.8-30.8
	c15-1.9,26.3-6.1,34.3-20.2c12.9-22.5,36.5-31,59.2-39.3c77.6-28.4,155.3-56.5,233.2-84c35.1-12.4,70.8-23.3,106.3-34.6
	c36.4-11.6,73.7-13,110.5-3.8c94.8,23.6,189.6,47.2,283.8,73.1c55.3,15.2,109.5,34.6,163.9,52.9c23,7.7,44.1,17.9,58,40.8
	c5,8.3,19.8,13,30.8,14.8c118.4,19.1,237.3,35,355.2,56.4c166.9,30.3,330.5,74,487.4,139.2c68,28.3,133.5,61.9,190.2,110.3
	c50.7,43.3,76.2,98.5,76.9,164.5c1,96.8,1.3,193.7-0.1,290.5c-0.3,20.5-7.4,41.4-14.2,61.1c-5.7,16.7-7,29.7,6,44.1
	c28.4,31.5,38,70.5,39,111.8c1.9,82.7,3.2,165.4,5.2,248.1c1.6,67.2-20.5,124.5-69.3,171.2c-5.7,5.5-10.6,11.8-17.2,19.2
	c5.2,6,8.8,12.1,14.1,15.9c90.3,64.5,127.1,156.8,132.8,263.2c4,74.5,2.4,149-8,223.4c-14,99.5-62,177.3-140,238.8
	c-82.5,65-175.4,110.8-271.8,150.2c-118.9,48.5-242.9,80.6-367.7,109.1c-153.5,35.1-309,57.4-465.5,73.8
	c-218.2,22.8-436.7,27.4-655.8,17.1c-155.3-7.3-309.5-24.4-463.5-45.2c-167.2-22.6-331.6-58-493.5-104.8
	c-140-40.5-274.7-94.2-398.4-172.4c-52.2-33-99.7-72.1-138.3-121c-45.9-58.2-70.9-124-70.3-198.5c0.7-80.8,7.5-161.1,23-240.5
	c14.8-76,51.8-139.2,110-190.1C388.4,2187.9,396.2,2180.3,405.7,2171.6z M1441,823.5c-11.5,0-19.4-0.8-27.1,0.1
	c-151.8,18.9-298.9,56.7-441.1,112.9c-33.7,13.3-67.3,27.8-98.6,45.9c-22.2,12.8-43.1,30.3-59.6,49.9c-19.2,22.8-13,49.2,12.9,64.2
	c17.2,10,36.5,18.1,55.8,22c31.5,6.4,63.7,9.1,95.8,12.5c58.1,6.2,116.6,9.5,174.2,18.4c25,3.9,50.3,15.7,72,29.3
	c41.7,26.2,51.3,76,22.8,116.1c-13.7,19.4-31.5,37.3-50.8,51c-35.3,25-73.5,45.9-110,69.4c-21.1,13.6-42.6,27.4-61.5,43.8
	c-49.4,43-66.8,97.3-49.1,160.9c6.2,22.2,14.9,43.9,24.3,65c33.8,75.5,56.3,153.4,52.2,237.1c-3,60.8-16.4,119.7-35.5,177.4
	c-21.6,65-43,130.2-63.5,195.6c-13.9,44.5-21.5,90.1-18.6,137.2c6.5,105.2,132.6,177.8,223.9,121.2c35.2-21.9,54.1-54.9,61.7-93.1
	c9-45.3,15.7-91.5,18.1-137.6c5.9-109.8,7-219.8,13.2-329.5c5.1-90.7,16.5-180.8,42.9-268.2c26.8-88.9,69.3-166.1,161.1-203.5
	c93.2-38.1,172.2-95.3,239.8-169.9c31.6-34.8,71.6-58.4,118-70.2c66-16.8,128.6-6.2,187.5,24.9c65,34.3,130.2,39.1,197.8,9.9
	c5.5-2.4,11.5-3.8,17.1-6.1c83.9-35.2,169.4-33.7,254.5-7.1c125.2,39.2,240.6,98.9,346,176.7c83.8,61.8,127.6,146.3,129.3,251.4
	c0.5,34.3,1.8,68.6,0.8,102.9c-3.3,110.2,2.1,219.9,18.9,328.9c8.9,57.7,17.3,115.7,29.6,172.8c5.4,25,16.6,50.3,31.3,71.3
	c36.8,52.5,110.7,44.6,138.1-13.3c5.5-11.7,8.9-24.6,12.3-37.2c13.8-52.3,4.3-104.6-3.6-156.2c-20.8-136-22.3-270.9,10.9-405.5
	c14.5-58.6,29.6-117.5,37.6-177.2c17.3-129.8-23.9-237.9-135.4-311.6c-48.5-32.1-102.5-55.8-153.8-83.6
	c-25.6-13.9-53.3-25.4-75.8-43.3c-40.8-32.4-33.4-88.5,13.4-111.8c15.1-7.5,32.2-11.5,48.9-15c32.5-6.8,65.5-11.7,98.1-18.2
	c14.8-2.9,29.7-6.4,43.6-11.8c31.5-12.3,35.6-34.5,10.1-57.2c-11.9-10.5-25.8-20.1-40.5-25.7c-42.3-16.1-84.9-32.1-128.5-44.2
	c-102.1-28.4-206.4-46.5-311.3-60.8c-27.6-3.8-55.2-7.7-85.8-11.9c0,13.8-0.3,23.6,0.1,33.3c1.2,29.2,2.1,58.5,4.2,87.6
	c2.6,36-13.3,57.4-46.4,72.1c-98.5,43.9-196.7,88.6-293.6,136.1c-59.6,29.2-118,33.4-181.5,15.1c-157.9-45.3-316.5-88-474.8-132
	c-14.5-4-28.9-9-42.7-15c-20.2-8.8-31.6-24.3-31.8-47.1c-0.2-27.2-1-54.4-0.6-81.6C1438.3,868.8,1439.9,847,1441,823.5z
	 M2545.7,2869.8c0.5,1.7,1.1,3.4,1.6,5.2c9.9-0.9,19.9-1.3,29.8-2.7c45.9-6.8,91.7-14,137.5-20.9c157.6-23.8,313.3-56.7,465-106
	c122.3-39.8,239.1-91.4,343.8-167.7c37-26.9,70.3-57.5,95.9-95.7c44.4-66.4,43.1-139.5-6.4-202.2c-17.9-22.6-41.6-40.7-62.5-60.9
	c-12-11.6-24.4-11.1-38.4-3c-21.8,12.6-43.4,26.2-66.7,35.5c-59.9,23.9-120.2,46.8-181.2,67.6c-22.6,7.7-35.9,17.1-38.3,42.7
	c-2.8,29.5-16.6,55.4-33.8,79.9c-43.5,62.3-155.2,64-199.4-1.2c-5.6-8.3-12.2-16.4-16.1-25.5c-7.4-17.6-20.1-19.9-36.9-17
	c-37.7,6.5-75.6,12.3-113.4,18c-168.7,25.6-338.6,39.4-508.9,45.9c-212.8,8.1-425.7,9.1-638.3-5.8c-107.6-7.5-214.9-18.7-322.4-28.2
	c-25.7-2.3-51.3-4.5-74.4-6.5c-11.8,35-20.2,66.3-32.8,95.8c-16.2,38.1-42.7,68.2-81,86.4c-85.1,40.3-194.6,9.6-246.8-68.8
	c-28.1-42.2-37-88.7-33.6-138.4c0.9-13.7,0.1-27.6,0.1-40.4c-3.4-2.1-5-3.6-6.8-4.1c-5.8-1.6-11.7-3-17.5-4.3
	c-136.9-31.9-270.2-74.1-395.7-138.5c-11.9-6.1-21.7-7.6-33.2,1.5c-29.4,23.3-56.8,48.5-77.7,80c-25.3,38.3-32.9,79-19.3,123.9
	c15.8,52.4,48.3,92.3,88.4,127.4c66.1,57.8,143,97.7,222.7,132.5c149.5,65.2,306.2,107.1,465.4,139.6
	c88.8,18.1,178.4,32.7,267.6,48.8c8.1,1.5,16.4,2,27,3.3c-30.3-50.7-20.3-79.9,31.2-99.2c31.7-11.9,64.6-15.3,98.2-11
	c24.6,3.2,46.7,12.4,66,27.8c27.3,21.9,28.9,43.9,4.7,69.3c-9.1,9.6-20.3,17.3-34.5,29.2c278.8,22.5,552,26.7,832.7,5.4
	c-18.9-12.2-32.3-18.9-43.4-28.4c-24.5-20.9-25-50.5,0.8-69.6c16.6-12.3,36.4-22,56.2-27.7c50.4-14.5,98.1-6.8,139.6,26.8
	c22.4,18.2,23.6,41.9,4.6,63.3C2559.4,2858.4,2552.3,2863.8,2545.7,2869.8z M305.9,2694.8c4.8,26.9,14.2,46.4,25.9,65.1
	c30.5,48.6,71.1,87.6,116.5,121.8c74.7,56.3,158.2,96.8,244.7,130.9c163.8,64.6,333.7,108,506.5,139.5
	c228.6,41.6,459.2,65.4,691.6,71.3c303.4,7.6,605-11.6,903.8-65.6c175.9-31.8,348.3-77.5,514.3-144.7
	c90-36.4,175.4-81.9,250.2-145.2c40.8-34.5,72.4-75.7,91.7-125.8c2.3-6,2.8-12.6,5-23.4c-8.1,5.6-12.4,7.9-16,11.1
	c-48.8,43.1-104.6,75.3-162.2,104.9c-137,70.5-282,119.6-429.9,160.7c-27.1,7.5-54.9,12.9-82.3,19.2c-13.9,3.1-23.8-0.9-27.4-15.8
	c-3.5-14.5,2.1-24.1,17.6-30.1c2.8-1.1,5.8-1.8,8.7-2.6c84.1-24.5,168.7-47.6,252.3-73.7c98.5-30.7,192.8-71.5,282.1-123.4
	c55.2-32.1,107.7-67.9,148.6-117.8c10-12.2,21.5-26.4,24.1-41.1c6.7-38.3,4.6-77.3-0.1-116.7c-13.7,14.2-23.8,30-36,43.9
	c-39.5,45.1-85.6,82.6-136.1,114.6c-110,69.7-230.3,116.6-354,154.1c-174.9,53-354.2,87.9-535.5,109.6
	c-122.1,14.6-245,24.3-367.8,29.1c-264.4,10.3-528.7,4.7-791.6-27.9c-195.3-24.2-388.5-60.4-577.8-115
	c-126.2-36.4-249.8-80.1-363.7-146.9c-74.6-43.7-143.8-93.7-190-169.5c-2.8-4.6-7.8-7.7-15.9-15.5c-3,37.2-4.8,69.1-8.5,100.7
	c-2.8,24.1,5.5,42.5,21,60.1c33.1,37.5,71.9,67.6,114.2,93.7c101.1,62.2,210.8,105.3,322.7,143.3c115.5,39.3,232.9,72.3,352.1,98.7
	c8.8,1.9,17.5,5,25.5,9.1c10.3,5.2,13.1,14.4,9.9,25.6c-3.2,11.5-9.8,17.3-22,15.2c-11.9-2-23.9-3.6-35.7-6.3
	c-156.5-35.7-310.5-80.2-460-138.8c-106.3-41.7-209.1-90.9-297.3-165.7C320.7,2702.4,315.3,2700.3,305.9,2694.8z M2925.5,2221
	c-8.5,0-15.6-0.9-22.3,0.1c-84.7,13-169.2,26.7-254,39.2c-38.9,5.7-78.1,9.6-117.2,13.4c-20.9,2-27.2-5.8-26-26.4
	c1.1-17.8,12.9-20.3,26.9-22c75-9.5,150.1-18.6,225-29.2c52.7-7.5,105-17.1,160.8-26.3c-4.9-35.6-9.4-67.7-14.1-102.2
	c-537.1,77.3-1070.9,71.9-1608,3c0,39.3,0,74.8,0,110.5c3.6,1.2,6.3,2.7,9.1,3c73.2,8,146.2,17.8,219.6,23.4
	c135.7,10.4,271.7,18.3,407.5,27.3c7,0.5,14,1.4,21,2.2c13.3,1.5,19.7,9.3,19.2,22.4c-0.4,12.9-6.7,21-20.2,21.7
	c-10.1,0.5-20.2,0.9-30.2,0.4c-81.6-4-163.3-6.4-244.8-12.7c-100.5-7.8-200.8-18.7-301.1-28.4c-27.6-2.7-55.1-6.1-85.6-9.5
	c-2,49.3-3.8,94-5.6,139.6c12.8,2.4,22.6,4.9,32.5,6.1c153.3,18.6,307.2,30,461.4,36.2c186.6,7.6,373.2,8.3,559.8,0.4
	c69.5-2.9,139.2-5.9,208.3-13.6c122.2-13.5,244.1-30.5,366-46.3c11.5-1.5,22.8-5.3,34.5-8C2940.2,2301.7,2932.9,2261.5,2925.5,2221z
	 M1309.4,1890.9c16.3,2.7,29,5.4,41.9,6.8c146.4,16,293.1,27.5,440.3,31.8c318,9.3,635.1-1.4,950.2-48.9
	c45.8-6.9,91.3-15.8,136.9-23.8c9.2-1.6,18.7-3.6,19.2-15.3c1.7-34.7,3-69.5-0.4-104.5c-7.5,0-11.6-0.6-15.4,0.1
	c-76.5,12.9-152.8,26.6-229.4,38.8c-58.7,9.3-117.7,17-176.6,24.8c-19.5,2.6-26.5-2.4-29.3-17.4c-3-15.8,3.7-24.4,23-28.7
	c8.8-2,17.9-3.1,26.8-4.5c106.5-16.7,213.1-33.1,319.5-50.3c25.5-4.1,50.6-10.7,79.9-17.1c-8.4-26.5-15.8-49.8-23.4-73.9
	c-11.4,1.1-19.3,1.7-27.2,2.7c-122,15-243.7,33.5-366,43.9c-113.4,9.6-227.5,12.7-341.4,14.9c-243.1,4.8-485.9-3-727.8-29.5
	c-24-2.6-28.8-0.2-40.1,22.7C1335.2,1734.2,1321.2,1810.2,1309.4,1890.9z M1436.6,1586.2c217.6,60.5,1221.6,38.5,1398.8-26.1
	c-9.3-9.2-16.9-18.2-26-25.4c-104.4-83.3-221.7-143-348.4-183.7c-34.1-11-70.8-15.8-106.7-18.9c-50.4-4.5-97.3,13.1-143.8,30.3
	c-51,18.8-103.2,30.3-156.8,14.4c-30.7-9.1-60.2-22.8-89.7-35.6c-70.4-30.5-137.6-26.1-200.5,18.6c-18.8,13.4-36.5,28.8-52.3,45.5
	c-66.8,70.9-145.6,123.6-235.7,160.2C1462.1,1571.1,1449.6,1579.2,1436.6,1586.2z M965,885.3c-6-0.9-8.1-1.7-9.8-1.3
	c-101.5,22.1-201.8,48.5-299.2,84.9c-69.1,25.8-137.1,54.4-197,98c-25,18.2-48.1,40.1-67.7,64c-24.7,30.1-30.7,66.4-12.2,102.1
	c11.4,22.1,26,43.2,42.4,61.9c33.1,37.5,75.6,62.9,119.8,85.8c117.2,60.7,243,97,369.7,130.7c5.6,1.5,11.7,0.8,17.6,1.1
	c2.8-4.4,5.4-7.5,7-11.1c21.9-48.6,58.1-84.3,102.3-112.5c25.5-16.3,51.6-31.6,76.9-48.1c26.2-17.1,53.2-33.3,77.2-53.1
	c37.6-30.9,32.8-60.2-12.5-79.3c-20.2-8.5-42.1-15-63.8-17.4c-49-5.5-98.4-8-147.7-11.5c-52.5-3.7-104.7-9.5-152.7-33
	c-59.4-29-74.7-85.6-39.8-141.5c21.7-34.7,53.8-56.9,89.6-74.3C896.8,915.4,929.1,901.5,965,885.3z M3100.5,917.3
	c5.7,8.1,8.4,13.4,12.4,17.5c44.6,45.7,23.8,112-35.8,133c-24.6,8.6-50.1,14.9-75.5,20.8c-34.3,7.9-69.3,12.9-103.3,21.8
	c-22.3,5.8-24.7,20.5-6.3,33.9c14.5,10.6,31.1,18.4,47.1,27c55,29.5,111.5,56.5,164.7,88.9c57.4,35,105.4,81,134.3,143.7
	c5.8,12.5,11.6,24.9,16.8,35.9c5.1,0.3,7.2,1,9,0.5c92.7-27.1,180.3-64.7,253.7-128.9c18.4-16.1,32.7-38.3,44.5-60.1
	c16.9-31.2,16.5-65.1-3-95.2c-14.6-22.6-31.2-45.1-51.5-62.3c-26.7-22.5-56.9-41.7-87.5-58.8c-94.7-52.9-198.8-82.3-301.1-116
	C3114.5,917.6,3109.5,918.1,3100.5,917.3z M2897.6,1904.7c-530.7,93.8-1059.2,94-1592.1,37.8c-1.9,28.5-3.7,54-5.6,82.3
	c535.9,65.9,1067.1,71.4,1597.7-3.5C2897.6,1981.6,2897.6,1945.6,2897.6,1904.7z M2389.4,750.5c0.1-2.7,0.2-5.4,0.3-8.1
	c-9-3.8-17.6-8.7-26.9-11.3c-119.1-33.6-238.1-67.3-357.5-100.1c-51.7-14.2-103-12.9-154.4,5.5c-89,32-178.7,62.1-268,93.2
	c-9.9,3.5-19.3,8.4-28.9,12.7c0.1,2.3,0.3,4.6,0.4,6.9c11.9,4,23.7,8.5,35.8,11.8c42.8,11.5,85.8,22,128.5,33.7
	c108.6,29.9,217.1,60.5,325.9,89.9c10.6,2.9,24.3,1.8,34.5-2.5c91.8-38.5,183.2-78.2,274.7-117.5
	C2365.6,759.7,2377.5,755.2,2389.4,750.5z M1492.8,788.7c-4.6,65.6-12.8,125.2-8.5,189.4c187.3,50.9,373.4,101.5,560.3,152.3
	c2.9-7,5.7-10.5,5.7-14c0.8-52.4,1.2-104.9,1.8-157.3c0.1-13-6.7-20.2-18.7-24.1c-21.1-6.8-41.8-15.1-63.1-20.9
	c-141.9-38.9-283.8-77.3-425.9-115.6C1529.2,794.5,1513.4,792.6,1492.8,788.7z M904.2,2310.1c6.2-48.4,28.1-88.6,34.7-134.5
	c-22.9-5.8-42.2-11.2-61.8-15.7c-118.1-27.2-234.3-60.2-346.1-107.4c-66.9-28.3-132.6-59.4-188.3-107.5c-1.6-1.4-5.5-0.2-9.6-0.2
	c-5.6,46.7,5.7,88.1,34.1,124.9c31.4,40.7,72,70.2,116.6,94.7c104.2,57.3,216.7,92.3,330.7,122.9
	C842.5,2294.8,870.8,2301.6,904.2,2310.1z M987.1,2026.4c-5.2-2.8-7.7-4.7-10.4-5.4c-7.8-2-15.7-3.5-23.6-5.2
	c-133.5-27.7-264.7-63.5-389.8-118.5C487.1,1864,414,1825.5,357.6,1762c-1.7-1.9-5-2.3-11.5-5.1c-1.2,30.8-0.5,59.7-3.8,88.2
	c-2.8,23.8,5.2,41.1,22.4,55.8c6.1,5.2,12.1,10.7,18.5,15.6c58.7,45.7,125.1,77,193.9,104c104.4,40.9,212.4,70.1,321,96.8
	c18.4,4.5,37,8.3,57.6,12.8C972.3,2095.7,980.6,2061.2,987.1,2026.4z M348.2,1457.3c-11.2,64.5,7.4,112.7,48.2,153.8
	c41.1,41.4,90.7,70,142.8,94.5c139.5,65.7,288.1,101.7,438.1,132.7c6.5,1.3,13.5,0.2,24.2,0.2c-10.1-35.3-18.9-68-28.9-100.3
	c-3.8-12.2-15.6-13.8-26.8-16.2c-96.4-21.4-191.3-48.1-283.5-83.7c-91.4-35.3-179.5-77.1-258.5-136
	C386.2,1489,369.6,1474.6,348.2,1457.3z M2097.4,1127.7c14.3-5.4,24.6-8.6,34.3-13.1c53.9-25.2,107.5-51,161.5-75.9
	c46.7-21.6,93.8-42.2,140.6-63.5c29.6-13.5,30.1-14.1,28.6-45.1c-1.6-33.3-3.2-66.5-5.8-99.7c-1.4-16.7-1.5-34.2-13.5-49.9
	c-8.9,3.1-17.4,5.5-25.6,8.9c-100.3,42.3-200.6,84.7-300.9,127.2c-24.4,10.3-23.3,10.7-21.6,35.7c1.9,28.1,2,56.4,2.4,84.6
	C2097.7,1065.2,2097.4,1093.3,2097.4,1127.7z M360.3,1305.1c-1.4,19.2-1.6,34.8-4,50.1c-4.1,26.8,6.7,46.2,25.8,63.8
	c43.1,39.9,89.6,74.8,141.3,102.9c124,67.5,257.1,109.8,393.3,143.8c6.2,1.6,13,0.9,18.7,1.2c-5.4-35.7-10.5-69.2-15.8-103.7
	c-7.4-2-15.1-4.2-22.8-6.1c-111.4-28.4-221-62.3-325.9-109.9c-72.9-33.1-142.3-71.5-196.9-132C371.6,1312.4,368,1310.6,360.3,1305.1
	z M3611.1,1963.4c-27.5,17.6-50.3,33.9-74.6,47.6c-68.6,38.6-141,69-215.3,94.8c-27.6,9.6-55.6,17.9-83.3,26.9
	c-22.9,7.5-23.2,8.9-19.3,31.8c3.4,19.8,5.4,39.9,8.1,59.9c2.2,16.7,4.5,33.4,6.9,51.5c9.7-2,16.8-2.4,23.2-4.8
	c57.5-21.3,115.6-41.3,172.1-65c46.5-19.5,90.2-45.2,127.1-80.4C3601,2082.8,3622.1,2031.2,3611.1,1963.4z M996.7,1975.1
	c11-19.2,7.9-37.8,9.1-55.4c1.8-26.1,0.3-27.4-24.4-31.7c-118.4-20.7-234-51.8-346.9-92.9c-88.2-32.1-175.5-66.3-249.1-127.3
	c-5.1-4.2-11.9-6.3-21.2-11c0.5,9.9-0.2,16.7,1.3,23c6.6,27.6,24.2,48.2,43.8,67.6c47.4,47.1,105.8,76.8,165.8,103.4
	c116.5,51.7,238.8,85.5,362.5,114.4C957,1969.5,976.8,1971.7,996.7,1975.1z M3572.7,1651.8c-1.9,0.4-4.2,0.2-5.7,1.2
	c-4.2,2.7-8.4,5.6-12,9c-49.8,47-108.1,80.6-171.3,105.7c-43,17.1-86.8,32.1-130.3,48.1c-11.2,4.1-24.6,6.7-27.4,20.8
	c-7.2,36.2-15.1,72.3-14.6,112.8c12-1.6,22.1-1.5,31.2-4.4c51.8-16.4,104.1-31.4,154.7-50.9c52.7-20.3,104.3-44.6,145.8-84
	c19.4-18.4,37.2-40.1,49.7-63.6C3611.5,1712.2,3602.6,1681.3,3572.7,1651.8z M3576.5,1491.4c-11.4,6.8-18.7,11.3-26.2,15.5
	c-41.9,23.8-82.8,49.8-126.2,70.5c-44.4,21.2-91.1,37.5-137,55.2c-13.6,5.2-21.5,12.9-24,27.6c-4.8,27.7-11.2,55.2-16.4,82.8
	c-1.4,7.3-1,15-1.5,23.5c7.7-0.8,13-0.3,17.6-1.9c82.2-27.9,162.4-60.6,231.4-114.6c22.6-17.7,42.3-40.3,59.3-63.5
	C3572.8,1560.4,3578.9,1529,3576.5,1491.4z M3210.4,2088.5c9.6-1.4,16.6-1.3,22.8-3.5c59.6-21.3,119.6-41.6,178.5-64.8
	c58.1-23,112.8-53.2,163.6-89.8c38.5-27.7,47.8-60.8,30.5-108.9c-6.6,5.2-13.3,9.5-18.9,15c-33,31.7-71.1,55.8-112.2,75.4
	c-62.8,30-127.8,54-194.6,73.1c-19.3,5.5-38.6,11.4-57.9,17c-9.7,2.8-16.3,8.3-15.8,19.1C3207.4,2042.8,3208.9,2064.6,3210.4,2088.5
	z M3273.7,1582.2c11.1-2.2,19.3-2.6,26.5-5.5c42-17.1,84.2-33.7,125.4-52.5c46-21,89.2-47,127.3-80.6c8.1-7.1,18-15.8,20-25.3
	c6.4-31.1,5.3-62.9,5.2-101.8c-88.9,91.6-195.4,137.8-304.4,173.7C3273.7,1522.4,3273.7,1551.2,3273.7,1582.2z M2538.3,2817.9
	c-27.1-26.5-58.8-23.8-89.1-21.2c-24.1,2-50.1,4.1-64.9,29.4C2424.6,2851.8,2503.7,2848.8,2538.3,2817.9z M1585.1,2821
	c-21.5-26.3-52.2-22.7-79.7-24.4c-26.1-1.6-53.2,0.2-74.3,22C1468.1,2848.6,1548.5,2849.6,1585.1,2821z"/>
<path d="M1983,2632.6c36.2,0,72.5-0.7,108.7,0.2c31.5,0.8,40.3,9.7,37.8,40.7c-3.2,41.4-10.2,81.9-38.3,115.4
	c-34.2,40.8-78.3,55.8-129.6,47.4c-52.2-8.5-92.7-35.6-109.4-87.6c-8.5-26.3-11.5-55-13.1-82.8c-1.5-25.3,6.6-32.3,32.2-32.9
	c37.2-0.9,74.5-0.2,111.7-0.2C1983,2632.7,1983,2632.6,1983,2632.6z M2060.2,2768.7c-29.8-46.7-123.2-46.4-150.8,0.5
	C1948.7,2811.9,2023.6,2811.7,2060.2,2768.7z"/>
<path d="M2475.4,2646.1c-0.5,64.4-55.1,120.6-115.9,119.4c-75.3-1.5-128.3-53-127.9-124.1c0.4-68.4,52.9-119.3,122.1-118.5
	C2423.6,2523.7,2476,2576.8,2475.4,2646.1z M2359.7,2569.7c-23.6,0.2-38.8,16.1-38.4,40.3c0.3,24.1,11.5,35.4,34.6,35.1
	c26.3-0.3,41.6-14,41.4-37C2397.1,2586.2,2380.8,2569.5,2359.7,2569.7z"/>
<path d="M1612.8,2761.7c-64.1-0.3-119.3-56.8-118.1-120.8c1.2-64.7,56.4-118.2,121.5-117.7c69.4,0.5,120.2,51.9,119.7,120.9
	C1735.4,2711.9,1682.9,2762.1,1612.8,2761.7z M1629.6,2570.8c-24.2,0-43.2,18.5-42.6,41.4c0.6,21.4,17.2,37.5,39,37.7
	c23.8,0.2,43.9-17.8,44.6-40.1C1671.2,2588.2,1652.9,2570.8,1629.6,2570.8z"/>
<path d="M2031.3,3148.4c-176.8-3.3-352.7-14.5-527.7-38.4c-15-2-29.9-4.2-44.8-7.1c-22.5-4.4-30.6-12.8-28.2-28
	c2.5-16.2,11.6-21.9,34.3-19.3c52,6,103.9,13.1,156,19.1c140.3,16.2,281.2,22.6,422.4,21.6c145.2-1,290.1-7.5,434.2-26.5
	c19-2.5,38.1-4,57.1-5.5c13.6-1.1,23.7,3.4,25.7,18.9c2.1,16.1-2.9,24.7-20.1,27.1c-45.9,6.4-91.8,14-137.9,17
	C2278.8,3135.6,2155,3141.6,2031.3,3148.4z"/>
<path d="M2169.1,1790.8c3.1,6.1,6.2,10.3,7.3,14.9c4.9,21.4-1,30.3-22.9,32.5c-27.1,2.7-54.3,4.7-81.5,5.8
	c-148.4,6.4-296.4,1.6-444.3-12.1c-7-0.6-14-1.6-21-2.8c-22.8-3.9-26.9-8.2-24.7-25.5c2.5-19.6,7.9-23.2,31.2-21.6
	c135.8,9,271.7,19.1,408,14c37.3-1.4,74.5-3.6,111.8-5.2C2145,1790.4,2157,1790.8,2169.1,1790.8z"/>
</svg>
