<?xml version="1.0" encoding="utf-8"?>
<!-- Generator: Adobe Illustrator 24.3.0, SVG Export Plug-In . SVG Version: 6.00 Build 0)  -->
<svg version="1.1" id="Layer_1" xmlns="http://www.w3.org/2000/svg" xmlns:xlink="http://www.w3.org/1999/xlink" x="0px" y="0px"
	 viewBox="0 0 4000 4000" style="enable-background:new 0 0 4000 4000;" xml:space="preserve">
<path d="M1652.8,673.6c9.4-45.2,19.1-88.5,27.2-132c16.8-90.2,32.8-180.6,49.2-270.8c1.5-8,3.2-16.1,5.5-23.9
	c12.7-43.1,37.8-64.1,82.8-65.6c60-2,120-2.6,180-2.7c50-0.1,100,0.9,150,2.4c49.6,1.5,78.2,22.8,90,71.3
	c10.7,44.1,16.9,89.2,25.3,133.9c16.7,89.4,33.5,178.7,50.3,268c4.1,21.6,4.5,21.2,26.2,22.6c21.7,1.4,43.7,2.1,64.8,6.7
	c49.1,10.6,83.1,39.6,97.6,88.7c3.3,11.3,8,18.8,19.8,23.3c57.3,22,79.6,54.3,80.4,115.6c0.5,35.5,0.2,70.9,0.1,106.4
	c-0.2,48.2,0,96.4-1,144.6c-0.3,15.3-3.3,30.7-6.6,45.7c-6.1,28-21.9,49.8-46.7,64.3c-13.9,8.1-17,18.1-13.8,34
	c8.4,40.9,13.2,82.6,22,123.4c22.8,106.2,68.6,202.9,126.3,294.1c52,82.2,107.2,162.4,157.6,245.5c76.2,125.6,139.4,257.3,175,400.8
	c45.9,185,39.9,369.3-5.8,553.4c-41.4,166.5-113.5,320-197.4,468.4c-17,30-35.5,59.3-55.3,87.6c-60.8,87.1-147.4,135.2-247.9,162.1
	c-76.3,20.4-154.2,25.6-232.5,25.5c-222.8-0.3-445.6-0.6-668.4-4.1c-88.8-1.4-174.4-23-254.9-62.6
	c-66.4-32.6-119.1-80.1-157.4-142.9c-82.5-135.4-153.7-276.4-206.6-426.2c-45.9-129.8-68.5-264-70.2-401.2
	c-1-85.6,12.3-170.2,32.7-253.6c33.1-135.5,90.5-260.9,161.1-380.2c52.3-88.3,109.3-173.9,164.9-260.3
	c58.5-90.9,105.2-187.1,131.2-292.2c11.7-47.5,17.6-96.4,26.1-144.7c1.7-9.4,0.7-16.9-8.9-23.2c-40.4-26.3-55-65.9-55.1-112.3
	c-0.1-47.3-0.2-94.6,0.1-141.9c0.2-42.7,0.9-85.5,1.2-128.2c0.2-29.2,12.4-53.5,33.5-72.1c12.6-11.1,28.4-19.3,44-25.7
	c12.2-5,19.1-11.2,22.9-23.9c16.9-57.4,56.1-88.5,116.7-93.7C1609.5,676.4,1630.2,675.2,1652.8,673.6z M1461.4,1934
	c-25.8-15.2-32.4-14.3-45.9,7.2c-10.1,16.2-18.9,33.2-28.9,49.4c-146.1,236.7-213.5,491.8-181.2,770.6
	c18.3,158,71.4,303.9,152.4,439.8c42.3,70.9,103.5,117.6,185.6,136.7c62.5,14.5,125.7,20.2,189.3,20.4c178.3,0.6,356.6,1,534.8-0.2
	c42.5-0.3,85.4-4.7,127.5-11.5c90.4-14.5,163.6-56.4,212.1-137.5c104.1-173.9,159.8-361.5,163.1-564.3
	c2.2-134.1-21.3-264.1-63.2-391.2c-34.4-104.3-84.3-201-140.4-294.8c-14.1-23.5-15.2-23.1-41.7-16.4c-26.4,6.7-52.8,13.7-79.6,18.7
	c-134.5,24.8-270.4,35-406.9,36.6c-71.8,0.8-143.7-1.9-215.5-3c-10.7-0.2-21.3,0-35.7,0c0,13.7,0,24.2,0,34.8
	c0.1,46.6-2.9,93-20,136.9c-24.9,63.8-68.6,107.1-138.5,117.1c-91.2,13.1-167.6-37-194.8-125.1c-18.5-60.1-10.6-118.7,9.2-176.6
	C1448.8,1965.4,1455.4,1949.6,1461.4,1934z M2386.1,1295.5c-1.3,7.1-2.5,10.6-2.4,14.1c1.2,67.4,5.9,134.5,20.9,200.4
	c30.9,135.6,88.9,259.4,164.8,375c74.6,113.9,136.4,233.8,178.9,363.4c31.6,96.3,52.8,194.9,60.2,296
	c8.4,114.1-0.7,227.3-26.4,338.8c-29,125.9-75.9,244.5-145.1,354.1c-48.1,76.3-114.2,125-203.2,143.5
	c-58.1,12-116.7,19.7-175.8,20.1c-171,1.2-342,1.2-513-0.1c-67.3-0.5-134.3-7.8-200.4-21.1c-88.7-17.8-161.6-60.3-209.6-138.8
	c-23.7-38.7-46.4-78.2-66-119.1c-61.7-129.2-100.4-265.1-111.5-408.1c-12.8-165.7,14.4-326.1,68.7-482.5
	c39.6-114.1,97.4-219,159.6-321.9c33.4-55.2,66.9-110.5,96.1-167.9c55.8-109.7,87.8-226.9,98.3-349.6c2.7-31.3,0.4-62.9,0.4-95.7
	c-35,0-68.2,0-102.9,0c-1.5,11.2-2.7,21-4.1,30.8c-3.1,22.5-5.3,45.2-9.6,67.5c-28.2,145.2-91.3,275.1-171.3,398.3
	c-60.9,93.7-121.9,187.6-177.1,284.7C1007.5,2267,949,2469.8,963.5,2690.5c6.2,93.9,19.5,186.2,47.6,276.1
	c49.3,158,122.9,304.8,206.2,447.2c37.6,64.3,88.1,115.2,155.2,149c41.6,21,85.3,36,130.7,46.4c59.9,13.7,121,14.7,181.8,15
	c208.3,1,416.6,1.5,624.9-0.1c49.7-0.4,100-6.1,148.8-15.5c129.2-24.9,232-88.3,299.6-206.2c68.5-119.4,130.3-241.7,176.6-371.3
	c41-114.5,65.2-232.7,70.6-354.3c6.5-146.5-17.9-288.2-71.4-424.6c-52.6-134.3-123.6-258.9-204.3-378.4c-43.2-64-85.4-129-123-196.3
	c-63.7-114-102.7-236.5-113.1-367.3c-0.4-5.2-2.6-10.2-3.8-14.8C2455.1,1295.5,2421.7,1295.5,2386.1,1295.5z M1499.3,1799.6
	c6.9,0.4,11.4,1.7,15.3,0.7c13.9-3.4,20-14.7,25.1-26.6c8.9-20.9,17-42.2,27.2-62.4c3-5.8,14-13,18.3-11.4
	c7.1,2.6,15.5,11.3,16.6,18.5c1.5,10-1.1,22-5.5,31.5c-20.6,44.5-42.5,88.4-63.8,132.6c-15,31.1-31.6,61.5-44,93.6
	c-19.9,51.6-29.1,105.4-15.7,160.4c8.1,33.2,22.3,63.4,52.4,83.4c68.4,45.5,157.4,22.7,195.8-50.2c16.9-32.1,24.2-67,23.6-102.6
	c-0.8-46.3-4.8-92.5-7.5-138.7c-2.2-38.1-7.4-76.2,3.3-113.8c6.7-23.5,14-29.5,38.3-31.4c12.7-1,25.4-1.2,38.2-1.1
	c102.7,1.3,205.5,1.3,308.2,4.8c109.9,3.6,219.6,11.7,328.2,30.6c7.4,1.3,15.1,0.2,26.3,0.2c-90.9-163.8-140.4-335.5-137.9-520.5
	c-240.6,0-477.4,0-715.1,0C1620.8,1474.4,1583.9,1641.9,1499.3,1799.6z M2273.7,673c-1.3-8.8-2.1-15.1-3.2-21.2
	c-19.5-102.6-39.2-205.2-58.6-307.9c-5.2-27.7-8.8-55.7-14.6-83.2c-5.6-26.5-18.4-36.6-45.2-39.3c-6.3-0.6-12.7-0.6-19.1-0.6
	c-90-0.1-180-0.3-270.1,0c-17.2,0.1-34.4,2.2-51.7,3.5c-19.9,1.5-31.6,12.5-35.9,31.6c-4.5,20.4-8.9,40.8-12.9,61.3
	c-21.4,109.7-42.6,219.4-63.8,329.1c-1.7,8.6-2.4,17.3-3.6,26.6C1889.6,673,2081,673,2273.7,673z M1777.9,1947.6
	c9.4,1.1,14.6,2.1,19.9,2.4c112.6,4.8,225.2,6.5,338,0.6c120-6.3,239-18.4,356.3-45.5c10.1-2.3,19.9-6.1,32.4-10
	c-10.9-19.8-26.8-24-42.7-26.5c-59.2-9.3-118.3-20.3-177.8-26.1c-155.7-14.9-311.9-20.3-468.4-17.4c-15.4,0.3-30.8,2.6-46.1,4
	c-11,1-16,7.2-15.6,18.2C1775.2,1880,1776.5,1912.6,1777.9,1947.6z M1512.2,789.1c27.5,0,52.8-0.1,78.1,0
	c156.4,0.6,312.9,1.5,469.3,1.7c120.1,0.2,240.1-0.4,360.2-1c13.9-0.1,27.7-2.2,45.5-3.7c-18-38.7-44.2-58.5-80.7-63.9
	c-19.7-2.9-39.9-4.1-59.8-4.1c-223.7-0.4-447.5-0.6-671.2-0.4c-22.7,0-45.5,2-67.9,5.1C1547.6,728,1519.5,753.2,1512.2,789.1z
	 M2010.1,835.2c-5.7,47-4.3,399.1,1.1,417.3c25.7,4.4,33,4,54.4-3.6c0-137,0-274.7,0-413.7C2046.4,835.2,2028.7,835.2,2010.1,835.2z
	 M1864.5,832.1c-21.3,1.3-38.8,2.3-55.7,3.3c0,140.5,0,277.2,0,415.9c19.5,0,37,0,55.7,0C1864.5,1111.8,1864.5,974.3,1864.5,832.1z
	 M1708.6,1250.5c20.4,0,37.3,0,53.9,0c1.6-4.2,3.3-6.7,3.3-9.2c0.2-128.8,0.2-257.7,0.1-386.5c0-5.3-1.2-10.7-2-16
	c-0.1-0.8-0.9-1.6-1.4-2.3c-0.6-0.7-1.3-1.2-3.9-3.4c-15.1,0.8-31.9,1.6-50,2.5C1708.6,975.2,1708.6,1111.8,1708.6,1250.5z
	 M2311.6,836.8c-5.4,40.7-4.7,395.8,0.4,412.5c17.6,0,35.1,0,54.4,0c0-48.6,0-94.7,0-140.9c0-45.4,0.2-90.8-0.1-136.2
	c-0.3-45.8,1-91.8-1.3-138.3c-12,0-20.1-0.4-28.1,0.1C2328.9,834.5,2320.9,835.8,2311.6,836.8z M2410.5,835.7
	c-6,51.8-4.4,396.2,1.8,414.8c17.4,0.6,35.4,4.2,52-4.9c0-137.1,0-273,0-409.9C2445.5,835.7,2428.7,835.7,2410.5,835.7z
	 M1563.2,1250.6c7.3-47.9,4-396.3-3.3-417c-16.8,0-33.5,0-52.2,0c0,140.2,0,277.6,0,417C1526.5,1250.6,1544.1,1250.6,1563.2,1250.6z
	 M1964.4,1251.9c-0.2-140,1.1-278.2-0.5-418.9c-20.8,1.1-37.7,2.1-57.4,3.1c2,139.5-2,276.9,1.2,415.8
	C1927.7,1251.9,1944.4,1251.9,1964.4,1251.9z M1608.1,834.8c0,140,0,277.4,0,416c19.1,0,37,0,56.4,0c0-139.5,0-277.7,0-416
	C1644.8,834.8,1628.1,834.8,1608.1,834.8z M2164.5,1253.6c0-142.6,0-280,0-421c-18.6,0.8-35.2,1.6-54.4,2.4c0,140.3,0,277.8,0,415.9
	c5.2,1,9.6,2.5,14,2.6C2136.7,1253.8,2149.2,1253.6,2164.5,1253.6z M2264.9,1251.4c0-140.4,0-277.2,0-414.7c-19.6,0-36.2,0-52.4,0
	c-5.9,27.8-5.8,395.3,0.5,417.6C2229.2,1253.4,2246.1,1252.5,2264.9,1251.4z M1465,839.2c-37.2,7.9-51.2,24.7-51.7,63.2
	c-0.9,74.4-0.9,148.8-1.1,223.2c-0.1,17.2,0,34.5,0.7,51.7c1.1,25,12.3,45.4,31.2,61.2c4.8,4,11.8,5.2,20.8,9
	C1465,1108.5,1465,974.1,1465,839.2z M2510.1,836c0,135.8,0,269.3,0,408.9c12.4-8.6,22-13.2,28.9-20.4
	c16.7-17.5,20.2-39.9,20.2-63.1c0-84.3,0-168.7-0.4-253c0-10.8-0.4-22.1-3.7-32.2C2548.4,855.8,2535.9,840.2,2510.1,836z
	 M1493.8,1853.3c-23.1-0.8-32.6,4.1-34.8,18.6c-0.7,4.5,1.4,11.6,4.7,13.9c3.3,2.2,11.1,1.7,14.5-0.9
	C1487.8,1877.7,1494.9,1868.3,1493.8,1853.3z"/>
<path d="M2321.9,2703.2c-62.3-0.2-112.5-52.2-112.5-116.5c0-63.9,49.9-112.7,115.2-112.7c62.7,0,114.3,50.4,114.3,111.4
	C2439,2652.6,2388.6,2703.3,2321.9,2703.2z M2314.6,2593.7c22.3,0.6,38.6-14.5,39.1-36.2c0.4-19.1-16.5-36.8-35.8-37.5
	c-21.9-0.7-38.3,15.1-38.3,37C2279.7,2579.3,2292.9,2593.1,2314.6,2593.7z"/>
<path d="M1640.5,2703.6c-61.8-1.1-113.3-53.9-111.7-114.6c1.7-65.6,51.3-114.9,114.6-114.2c61.4,0.7,112.8,52.9,112.4,114.2
	C1755.5,2651.1,1701.5,2704.7,1640.5,2703.6z M1671,2522.7c-24.6-2-43.4,13.3-45,36.3c-1.4,21.4,11.7,35.6,33.9,36.9
	c22.9,1.4,39.5-11.7,41.8-33C1704.1,2542.2,1690.3,2524.2,1671,2522.7z"/>
<path d="M2433.7,2813.6c-26.5,0.4-52.6-1.1-76.2-15.5c-38.2-23.3-39.7-63.1,0.2-83c51.1-25.7,105.2-28,156.7,0.3
	c39.4,21.7,37.7,60.6-1.5,82.4C2493,2808.8,2472.6,2812.9,2433.7,2813.6z M2504.8,2757.3c-17.9-23.2-41.1-28.8-93-21.8
	c-16.6,2.3-35.7,2-44.4,21.9C2409.5,2785.5,2468.3,2785.5,2504.8,2757.3z"/>
<path d="M1531.7,2697c29.6-0.3,57.6,6.1,82.6,22.4c28.9,18.7,29.2,51.3,0.7,71.3c-20,14-43.3,17.5-66.9,19.6
	c-33.1,3-65.2,0.1-94.8-16.5c-37.6-21-38.9-55.7-2.5-78.4C1475.5,2700,1503.2,2696.3,1531.7,2697z M1601.5,2753.8
	c-9.1-7-14.7-14.1-21.6-16c-33.9-9.1-68.1-11.3-101.4,2.9c-5,2.2-11.4,7.9-11.7,12.4c-0.3,3.9,6.4,10.4,11.3,12.2
	c37.2,13.5,74.6,12.9,111.5-1.5C1592.6,2762.6,1594.9,2759.4,1601.5,2753.8z"/>
<path d="M1985,2741.7c-62.8-0.3-106.2-36.2-116.7-95.1c-1.1-6.2-3.1-13.5-0.9-18.6c2.8-6.5,8.6-13.8,14.8-16.3
	c8.7-3.5,15.5,3,18.2,11.8c2.1,6.9,2.9,14.2,4.6,21.2c8.4,35.4,35.8,58,71.7,59.1c37.5,1.1,67.3-19.8,77.9-54.9
	c2.4-7.8,3.9-15.8,5.5-23.8c2.1-10.3,7.3-16.5,18.7-15c12.1,1.5,17.5,9,16.6,20.7c-2.9,37.8-15.3,70.9-48.4,92.7
	C2027.6,2736.1,2006.1,2742.6,1985,2741.7z"/>
</svg>
