<?xml version="1.0" encoding="utf-8"?>
<!-- Generator: Adobe Illustrator 24.3.0, SVG Export Plug-In . SVG Version: 6.00 Build 0)  -->
<svg version="1.1" id="Layer_1" xmlns="http://www.w3.org/2000/svg" xmlns:xlink="http://www.w3.org/1999/xlink" x="0px" y="0px"
	 viewBox="0 0 4000 4000" style="enable-background:new 0 0 4000 4000;" xml:space="preserve">
<path d="M1205.5,391.2c279.5,4,540.9,75.9,782.2,218.5c21.3,12.6,36.3,10.8,55.5-1c126.4-77.5,261.3-135.8,404.4-174
	c261.8-70,520.7-62.7,773.3,39.8c200.3,81.2,348.3,221.3,448,412.6c75.9,145.6,119.9,301,135.4,463.9
	c41.2,432.3-51.1,835.9-266.7,1211.6c-35.4,61.7-78.5,119.2-119.7,177.5c-12.7,17.9-14.9,32.2-6.1,52.7
	c21.1,49.3,34.9,100.7,28.2,155.3c-22.4,181.6-204.4,274.8-366.1,187.3c-6-3.2-11.7-7-17.5-10.4c-24.9-14.7-25.6-14.3-48.2,1.9
	c-211.1,151.7-444.3,252.5-698.8,304.5c-132.9,27.2-267.4,36.9-402.5,26.3c-217.6-17-426.5-69.4-624.9-162.1
	c-99.9-46.7-195-101.7-285.2-164.7c-21.2-14.8-36.9-14.6-58.1-2c-65.3,38.9-135.1,50.9-209,28.3
	c-124.5-38.1-199.8-167.5-173.1-297.5c3.9-18.8,6.6-38.6,14.7-55.7c9.8-20.7,5.8-34.9-7.8-51.9c-154.5-194-263.7-411.5-334.2-648.7
	c-42.8-144-68.8-290.8-77.7-440.9c-9.6-163.1,4.2-324.1,42.8-482.4c47-192.7,132.4-365.9,271-510.4
	C595.4,534.1,756.4,456.7,938,417.9C1026,399.1,1115.2,393.6,1205.5,391.2z M604.9,2722.2c103.3-173,248.5-291.6,401.6-404.2
	c-14.7-24.1-27.8-45.1-40.6-66.3c-136.4-226.6-203.2-470.9-187.3-736.2c7.4-123.1,39.3-239.1,107-343.3
	c50.3-77.3,118.8-133.6,205.3-166.1c97-36.4,196.1-32.3,294.4-7c98.3,25.3,189.6,67.8,274.5,123.9c118.9,78.6,221.5,176.2,322,276.2
	c145.4,144.7,291.6,288.7,437.6,432.8c7.5,7.4,16.2,13.6,28.7,23.9c13.6-38.5,26.4-71.1,36-104.6c2.5-8.8-3.1-21.5-8.3-30.4
	c-11.9-20.5-27.2-39-38.7-59.7c-39.2-70.8-47.7-211.7,31.9-296.9c20.1-21.6,21.6-41.3,15-67.3c-43.8-174.1-132.8-322.1-261.2-445.9
	c-138.1-133.1-299.8-229.9-477.8-300c-236.6-93.2-481-127.9-733.5-92.2c-193.9,27.5-364.5,105.4-504.5,245.1
	c-115.8,115.7-189.3,256.2-239.3,410.1c-69,212.2-75.5,430.5-51.7,649.5c30.5,279.9,119.5,541.4,268.1,781.3
	C520.2,2603.6,561.5,2659,604.9,2722.2z M2070.1,657.6c158,109,288.9,238.3,381.4,403.1c34.5-14,65.6-27.3,97.2-39.3
	c97.8-37.2,197.9-57.4,302.9-39.1c121.4,21.1,217.3,81.7,283.8,186.1c28.7,45.1,49.2,94.3,64.4,145.7
	c32.3,108.8,41.9,219.6,35.6,332.8c-12.8,228.3-83.6,437.1-205.7,629.4c-11.3,17.9-22.1,36.1-33.7,55.2c30,24,57.6,45.5,84.7,67.8
	c28,23,56.1,46,83,70.3c26,23.5,51.3,48,75.6,73.4c25.1,26.2,49.7,52.9,72.4,81.1c21.6,26.7,40.6,55.6,62.7,86.2
	c8.9-10.4,15.3-16.6,20.3-23.8c58.3-82.5,109.8-169.1,156.4-258.7c120.6-231.5,187-478,206.5-737.7c8.7-115.6,7.9-231.1-7.3-346.2
	c-19.8-150.4-55.8-296.1-128-430.9c-74.3-138.7-174-254.2-311.4-333.7c-215.8-124.9-449.3-156.4-693-124
	c-165.7,22-320.7,78.8-467.8,157.4C2124.4,626.3,2099.3,641.2,2070.1,657.6z M1647,1532.2c-1.8,6.9-3.1,10.1-3.4,13.3
	c-8.2,82.3-37,154-105.9,204.7c-12.6,9.3-11.4,20.2-9,33.1c17.5,92,48.2,179.3,94,261.1c81.9,146,197.4,261.6,330.1,361.1
	c96.3,72.2,200,132.9,307.2,187.4c115.1,58.5,231.5,114.4,346.6,172.9c150.9,76.7,293.8,166,424.4,274.4
	c34.1,28.3,71.4,52.1,114.1,65.9c98.6,31.8,214.6-34.8,238.6-135.2c12.5-52.3,2.5-101.2-16.1-149.4c-22.6-58.7-55.6-111.4-95.1-160
	c-77.6-95.6-169.5-176.2-265.1-252.9c-108.7-87.2-220.5-171-324.8-263.2c-146-129-286.3-264.4-429.1-397c-6-5.6-13-10.2-21.4-16.7
	c-4.5,12.2-8.3,20.4-10.7,29c-36.4,127-166.8,164.4-255.6,139.4c-83.7-23.5-136.8-77-156.7-162c-2.8-11.9-3.1-24.7-2.5-37.1
	c0.7-14.4,10.2-22.4,24.3-23.8c15-1.5,23.3,6.5,26,20.8c1.1,5.6,2.1,11.1,2.9,16.8c9,63.6,46.1,104.1,104.5,127
	c89,34.9,187.6-19,206.2-112.6c2.4-12.2,3.5-24.8,6.8-36.7c4.3-15.2-0.8-25.2-11.8-35.8c-44.1-42.4-87.6-85.4-130.9-128.7
	c-105.7-105.8-208.3-215-329.6-303.8c-22.5-16.5-44.9-33.2-68.3-50.5c-6,7.2-10.7,11-12.8,15.8c-20.1,44.3-39.7,88.9-59.7,133.3
	c-4.8,10.8-1.8,18.7,5.6,27.6c13,15.5,27.5,31,35.9,49c16.4,35.1,28.9,71.9,42.9,107.5c32.3-25.7,47.4-27.5,64-6.7
	c13.3,16.7,11.6,37.3-4.2,51.6C1691.1,1567,1674.6,1562.5,1647,1532.2z M2983.7,3075.9c-11.3-10.6-16.5-16.2-22.5-21
	c-106.1-83.9-220-155.3-339.1-219.5c-43.4-23.4-78.5-23.3-123.2-5.8c-201.5,79.1-410.7,100.3-624.4,68.4
	c-134.9-20.1-265.9-55.8-388.1-118.7c-14.9-7.7-27.5-6.7-41.1,2.6c-14,9.6-28.9,17.9-43.8,26.1c-133.2,73.9-256.9,161.5-373.4,259.6
	c-3.2,2.7-4.9,7-7.3,10.5C1256,3260.7,1646.2,3419.4,2062,3404C2401.1,3391.4,2704.2,3274.6,2983.7,3075.9z M1561,2048.4
	c-21,12.7-36.1,20.6-49.9,30.3c-113.6,79.4-235.3,145-355.5,213.3c-100.8,57.3-195.5,123.4-282.1,200.6
	c-75.5,67.3-145.2,140-202.2,224.2c-36.2,53.5-62.6,111-65.4,176.3c-3.8,87.6,28.9,157,109,199.4c57.6,30.5,115.2,25.8,173.5,0.5
	c60.4-26.2,107.1-71.4,158.3-110.6c64.7-49.5,129.4-99.5,197.2-144.6c120-79.7,248.5-144.9,375-213.4c88.7-48,176-98.4,263.8-148
	c12.3-6.9,23.5-15.7,40.1-27C1771.3,2339.6,1649.3,2210.6,1561,2048.4z M1585.3,1142.5c-2.6-2.4-5.4-6.3-9.1-8.3
	c-83.3-44.6-169.4-81.5-263.6-95.8c-163.2-24.8-304.2,40.7-390.7,181.5c-45.2,73.6-72.3,154-81.7,239.4
	c-30.1,274.3,29.3,529,173.1,764.2c12.3,20.1,25.7,39.5,40.2,61.7c12.8-6.9,23.7-12.3,34.2-18.4c32.4-18.6,64.9-37,97-56.2
	c94.3-56.4,188.7-112.6,282.3-170c23.7-14.6,44.9-33.4,63.7-47.5c-20.7-69.9-39.9-134.6-59.6-201c-138.7,34.3-253.7-2-323.8-133.1
	c-54.6-102.2-44.8-206.4,30.9-295.3c91.7-107.7,206.2-120.2,332.7-59.5C1536,1249.7,1560.4,1196.7,1585.3,1142.5z M2488.5,1898.7
	c146.6,140.3,296.9,273.7,462.9,394.1c17.1-24.1,33.4-44.4,46.8-66.4c140.8-230.7,203.2-480.4,179.6-750.3
	c-6.8-77.2-25.7-152.2-59.4-222.3c-72.6-151.3-193.2-227.4-361.3-222.5c-95.6,2.8-184.4,33.9-268.9,77.3c-4,2.1-8,4.3-10.8,5.8
	c13.5,33.9,25.9,62.9,36.6,92.5c11,30.6,20.2,61.7,31.4,96.1c58.5-30.7,116.8-43.7,179.3-28.7c61.5,14.8,115,43.3,153.2,94.1
	c71.3,94.7,78.6,218.5,13.7,311.9c-90.2,129.8-212.7,153.8-355.9,94.9C2519.8,1816.5,2504.6,1856.5,2488.5,1898.7z M1526.4,2738
	c205.2,93.5,431.3,138.1,697.1,107.6c88.6-10.2,240-52.5,268.3-76.6c-11.4-6.6-21.2-13.4-31.8-18.3c-22.6-10.4-46-19.1-68.4-29.8
	c-135.1-64.3-267.4-133.5-392.2-216.3c-20.5-13.6-36.5-15.4-58.3-1c-119.9,79.6-247.3,146.3-375.1,212.2
	C1554.4,2721.7,1543.2,2728.5,1526.4,2738z M2593.6,1397c-56.8-0.7-101.2,41.1-101.7,95.5c-0.5,55.2,43.5,102.1,95.9,102.4
	c55.4,0.3,100.2-42.7,101-96.9C2689.7,1439.8,2649.9,1397.6,2593.6,1397z M1459.1,1402c-56.3,0.3-95.3,38-95.6,92.4
	c-0.3,58.1,38.9,100.9,91.7,100.3c55.4-0.7,100.3-47.3,99.6-103.3C1554.1,1440.7,1512.4,1401.7,1459.1,1402z M2695.2,1653.1
	c-1,31.2,20.8,55.9,50.1,56.7c31.8,0.9,54.5-19.6,55.7-50.5c1.2-29.4-19.8-53.3-48-54.7C2721.4,1602.9,2696.2,1624.2,2695.2,1653.1z
	 M1350.6,1658.5c0.6-26.6-22.1-50.1-48.9-50.5c-28.2-0.5-54.1,22.7-55.3,49.4c-1.2,27.1,26.4,57.9,51.7,57.7
	C1325.8,1714.7,1349.9,1688.7,1350.6,1658.5z"/>
<path d="M814.7,2315.3c-24.7-0.4-43.1-18.1-43.4-41.9c-0.4-23.5,21.6-45.4,45.2-45c22.5,0.4,43.2,20.7,43.7,43
	C860.7,2295.6,839.9,2315.7,814.7,2315.3z"/>
<path d="M316.2,1525.7c0.7-22.9,22.7-44.6,43.6-43.1c22.5,1.6,44.3,26.4,43.1,48.9c-1.2,21-22,40.9-42.7,40.8
	C335.6,1572.2,315.4,1550.8,316.2,1525.7z"/>
<path d="M610.1,1748.8c0,23.3-17.1,41.9-39.2,42.5c-25.4,0.6-44.8-18.8-44.7-44.7c0.1-22.1,18.7-43,39.1-43.7
	C588.5,1702,610.1,1724.1,610.1,1748.8z"/>
<path d="M2004.3,976.8c-0.5,24.3-16.5,39.8-40.7,39.7c-25.4-0.1-43.4-19.8-42.2-46.2c1-23.3,19.1-41.9,40.4-41.4
	C1985.4,929.4,2004.9,951.4,2004.3,976.8z"/>
<path d="M988.5,759c-23.4-0.1-39.7-16.9-39.9-41.1c-0.2-23.5,20.7-46.1,41.7-45.2c20.5,0.9,39.6,21.6,40,43.5
	C1030.8,742.2,1014.3,759.1,988.5,759z"/>
<path d="M604.5,2150.1c0.4,25-16.7,42.6-41.7,42.8c-21.7,0.2-38.2-17.6-39.1-41.9c-0.9-25.3,16.9-46,39.1-45.4
	C585.2,2106.2,604.1,2126.3,604.5,2150.1z"/>
<path d="M812,1021.6c0.2,25.2-19.6,44.5-45.2,43.8c-21.2-0.5-37.3-17-38.3-39c-1.1-24.8,19.3-46.4,43.4-46
	C794.4,980.7,811.9,998.7,812,1021.6z"/>
<path d="M643.8,1431.7c-0.5-22.6,17.3-44,37.4-44.9c22.1-1,42.2,17.2,43,38.8c0.9,23.3-18.1,45.6-39.7,46.6
	C662.6,1473.3,644.3,1455,643.8,1431.7z"/>
<path d="M1636.1,902.6c-21.1-0.7-39-18.5-38.9-38.7c0.1-20.5,18.6-39.8,37.9-39.6c23.2,0.2,42,21.1,40.2,44.7
	C1673.8,888.5,1656.6,903.2,1636.1,902.6z"/>
<path d="M594.9,2468.7c0.7,22.6-14.3,39.4-35.9,40.1c-21.1,0.7-37.8-13.9-38.6-33.7c-0.9-22,17.6-42.6,38.6-43
	C578.2,2431.8,594.2,2448,594.9,2468.7z"/>
<path d="M2285.6,1383.1c-20.3-0.5-38.2-20-36.7-40c1.5-20.5,21.2-38.7,40.4-37.2c19.9,1.5,34,17.7,33.8,38.8
	C2322.7,1367.8,2307.3,1383.6,2285.6,1383.1z"/>
<path d="M370.7,1907.4c0.7,21.4-12.5,35.8-34.5,37.4c-20.1,1.5-39-16-39.7-36.8c-0.6-18,17.6-38.1,35-38.7
	C351.4,1868.5,370,1886.7,370.7,1907.4z"/>
<path d="M402.3,1139.9c-20.9-0.7-35.7-16.9-34.3-37.7c1.2-18.3,14.8-31.4,32.9-31.5c20.9-0.2,36.9,15.9,36.1,36.1
	C436.2,1127.4,422.5,1140.5,402.3,1139.9z"/>
<path d="M1410.3,625.6c-0.1,18.9-18.1,36.6-36.9,36.3c-17.9-0.3-32.8-16.9-32.3-35.9c0.5-19.6,15.5-34.8,34-34.5
	C1393.1,591.9,1410.5,608.7,1410.3,625.6z"/>
<path d="M653.9,825.9c-18.4,0.4-34.8-14.5-35.8-32.4c-1-18,17.4-36.6,36-36.3c17.3,0.3,32.3,14.3,33.4,31
	C688.8,809.2,674.4,825.4,653.9,825.9z"/>
<path d="M2467.6,715.6c-25.2,0.8-43.2-15.8-44.2-40.9c-1-25.2,15.3-44.5,39.3-46.1c22.6-1.6,43,17.6,44.3,41.7
	C2508.4,695.9,2492.1,714.8,2467.6,715.6z"/>
<path d="M3493.7,1227.5c-23.3,0-40.2-16.6-40.9-40c-0.7-23.5,21-46.7,43.8-46.9c21.3-0.1,41.7,22.5,40.8,45.3
	C3536.5,1210.4,3518.6,1227.5,3493.7,1227.5z"/>
<path d="M3329,2157.9c-23.6-0.2-41.7-20.1-40.9-44.9c0.8-24.1,20.8-43,44.3-42c22.7,1,38.6,18.9,38.5,43.2
	C3370.7,2139.9,3353.2,2158.2,3329,2157.9z"/>
<path d="M2775.2,708.2c22.7,0.7,43.4,21.5,43.2,43.5c-0.3,22.5-21.6,40.9-45.7,39.3c-22.8-1.4-40.2-20.4-38.9-42.4
	C2735.1,725.8,2753.8,707.5,2775.2,708.2z"/>
<path d="M3051.9,573.4c23.2-0.4,40.2,16.8,39.9,40.4c-0.3,25-17.8,43.5-41.5,43.9c-23.1,0.3-39.5-16.3-40.1-40.5
	C3009.6,593.8,3028.6,573.8,3051.9,573.4z"/>
<path d="M3364.4,1486.2c-24,0.7-41.9-16-41.9-39c0-21.7,19.7-43.2,39.6-43.1c19.7,0.1,40.9,22.1,41.1,42.6
	C3403.3,1467.1,3385.1,1485.6,3364.4,1486.2z"/>
<path d="M3162.8,1060.9c2.6-21.8,21.2-39.1,40.3-37.6c21.3,1.7,39.9,23.1,38.2,43.9c-1.7,20.9-23.6,38.7-45,36.4
	C3175.1,1101.3,3160.2,1082.4,3162.8,1060.9z"/>
<path d="M3168.4,2278.6c21.1,0.5,38,18,37.9,39.2c-0.1,21.3-17.4,39.4-37.7,39.3c-20.7-0.1-40-18-40.2-37.5
	C3128,2297.1,3146.6,2278.1,3168.4,2278.6z"/>
<path d="M3374,2410.7c0.9-22.4,20.2-42.1,41.1-41.8c20.7,0.3,39.1,19,38.7,39.4c-0.4,23.7-20.8,42.4-45,41.3
	C3389.2,2448.6,3373.2,2430.8,3374,2410.7z"/>
<path d="M3566.7,1612.7c-0.1-21.3,14.8-36.8,35.4-36.7c19.2,0,33.5,14.6,33.9,34.6c0.5,20.8-17.8,37.6-39.9,36.7
	C3578.8,1646.7,3566.8,1632.6,3566.7,1612.7z"/>
<path d="M3306.5,812c18.4,1.6,31.4,18.7,29,38c-2.3,18.1-17.3,30.1-35.4,28.2c-16.3-1.7-30.9-18.7-30.1-35.1
	C3270.9,824.4,3287.4,810.4,3306.5,812z"/>
<path d="M3339.6,1826.9c-20.7,0-35.2-13.8-34.4-33c0.7-16.9,15.4-30.6,33.6-31.3c19.7-0.8,35.8,13.3,36.2,31.7
	C3375.4,1812.5,3359.9,1826.8,3339.6,1826.9z"/>
<path d="M3035.2,2711.2c-0.7,22.9-18.9,40.2-41.8,39.7c-23.8-0.5-43.5-20.2-43.2-43.1c0.4-22.4,22.2-43.6,44-42.7
	C3015.7,2666,3035.8,2688.7,3035.2,2711.2z"/>
<path d="M2431.7,2473.6c-23.8,0-41-17-40.8-40.3c0.2-22.3,18.7-42.3,39.8-42.9c23-0.7,41.3,16.5,42,39.5
	C2473.5,2455.7,2456.6,2473.6,2431.7,2473.6z"/>
<path d="M1675.3,1792.5c-22.8,0-40.3-17.4-40.3-40.1c0-21.6,19.1-41.3,40.2-41.4c18.8,0,41,22.4,41.4,41.7
	C1716.9,1773.9,1697.6,1792.6,1675.3,1792.5z"/>
<path d="M2057.8,2273.3c-0.3,22.9-15.3,37.5-38.4,37.3c-21.3-0.2-36.8-17.3-36.2-39.6c0.7-22.6,14.6-38.4,34-38.5
	C2039.2,2232.4,2058,2251.3,2057.8,2273.3z"/>
<path d="M1826.7,2069.8c0.5,21.2-16.6,38.7-38.1,39c-19.8,0.2-36.6-16.4-36.7-36.2c-0.1-21.1,17.9-42.2,35.8-42.2
	C1807,2030.4,1826.2,2049.9,1826.7,2069.8z"/>
<path d="M2371.5,2209.4c-0.5,21.5-17.6,38.6-38.7,38.5c-18.8,0-33.1-15.3-32.9-35c0.2-21.8,17.4-39,38.2-38.2
	C2357.5,2175.4,2371.9,2190.4,2371.5,2209.4z"/>
<path d="M2228.6,2012c-19.5-0.3-34.2-14.7-34.6-34.1c-0.5-21,15.3-36.7,35.9-35.8c20.7,0.9,35.2,14.9,34.6,33.6
	C2263.8,1997.6,2249.3,2012.3,2228.6,2012z"/>
<path d="M2720.6,2621.9c-19.2,0.4-35.6-14.6-35.8-32.6c-0.1-17.9,19.3-37,37.3-36.6c17.6,0.4,34.2,17.9,33.7,35.5
	C2755.3,2606.6,2739.8,2621.5,2720.6,2621.9z"/>
<path d="M1404.7,3010.9c0.5,24.9-17.2,44.8-40.3,45.4c-22.6,0.5-41.1-19.9-40.8-44.8c0.4-22.9,18.7-42,40.2-41.9
	C1385.8,2969.7,1404.3,2988.4,1404.7,3010.9z"/>
<path d="M2546.5,3126.4c0.7-20.5,19.3-37.8,40.2-37.4c23.4,0.4,44.2,22.8,44,47.1c-0.2,22.7-19.2,40.3-42,39
	C2565.1,3173.7,2545.7,3151.3,2546.5,3126.4z"/>
<path d="M2115.5,3221.3c-0.9,27.1-16,41.8-42.4,41.3c-22.1-0.4-39.2-18.9-38.5-41.7c0.6-21.9,19.7-40.7,41.3-40.6
	C2098.9,3180.4,2116.2,3198.3,2115.5,3221.3z"/>
<path d="M1825.2,3043.3c-19.5,0.6-38-18-38.3-38.5c-0.2-19.3,16.2-38,34.5-39.1c22.3-1.4,42.1,16.8,41.8,38.6
	C1863,3025.5,1846.2,3042.7,1825.2,3043.3z"/>
<path d="M1622.3,3215.9c0.5,22-15.6,38.1-38.4,38.4c-19.7,0.3-35.5-16-36.2-37.2c-0.7-21.4,13.5-36.5,35-37.3
	C1606.8,3178.9,1621.8,3192.5,1622.3,3215.9z"/>
<path d="M2284.2,3077.1c-19.5-0.7-32.1-15.3-31.2-36.1c0.9-19.8,16.2-36.6,33-36.1c17.9,0.5,34.8,20.4,33.7,39.7
	C2318.7,3064.3,2304,3077.7,2284.2,3077.1z"/>
<path d="M946.5,2812.6c23.6,0.9,42.4,21.6,41.3,45.2c-1.2,24-17.6,38.7-42.8,38.2c-24.1-0.4-39.4-17-38.5-41.8
	C907.2,2829.9,924.7,2811.8,946.5,2812.6z"/>
<path d="M1233.5,2439.8c-24.3,0-40.2-16-40.1-40.2c0.1-22.9,17.6-42.1,39.1-42.8c21.5-0.7,42.3,20.6,42.7,43.8
	C1275.6,2422.6,1257.3,2439.8,1233.5,2439.8z"/>
<path d="M1546.8,2266.6c0.3,22.9-17.9,42-39.6,41.5c-22-0.5-37.8-16.7-37.9-38.9c-0.2-25.5,15-43.5,36.8-43.6
	C1527.5,2225.4,1546.5,2244.5,1546.8,2266.6z"/>
<path d="M1605.1,2404.2c23.7-0.7,41.4,16.1,41.7,39.6c0.2,20.9-17,38.6-38.6,39.6c-21.9,1-39.9-14.9-41.2-36.3
	C1565.7,2423.4,1582.2,2404.9,1605.1,2404.2z"/>
<path d="M1360.3,2664.1c0.1,24-15.9,40.5-39.4,40.7c-21.9,0.2-38.4-15.9-38.4-37.7c0-21.6,19.4-41.8,40.2-41.9
	C1344.2,2625.1,1360.2,2641.6,1360.3,2664.1z"/>
<path d="M1085.2,2576.1c-0.2,22.7-13.8,36.8-35.1,36.5c-19.2-0.3-34.8-17.5-34.8-38.2c0.1-19,15.2-34.1,34.1-34.3
	C1070.7,2539.9,1085.4,2554.8,1085.2,2576.1z"/>
<path d="M1178.4,2005.7c-46.1-0.1-90.6-7.7-132.4-26.7c-15.1-6.9-30.2-16.6-41.2-28.8c-25.7-28.4-22.4-68.5,6.3-93.8
	c10.1-8.9,21.3-17.7,33.6-22.6c90.8-35.8,182.2-43.1,273.5-1.4c10.2,4.7,20.2,10.5,29,17.4c34.7,27.3,39.7,64.6,9.8,97.2
	c-13.9,15.2-33.5,26.6-52.5,35.5c-18.2,8.5-38.6,13.1-58.6,16.6C1223.7,2003,1200.9,2003.7,1178.4,2005.7z M1163.1,1955.8
	c55.9-3.1,98.9-5.1,138-25.7c11.4-6,29.4-11.8,25.2-27.3c-2.9-10.7-17.8-18.2-27.4-27.1c-0.8-0.7-2-1-3.1-1.4
	c-71.5-24.2-143.3-29.7-215.3-2.1c-16.8,6.5-38.7,13.1-38.3,33.1c0.4,21.1,22.3,30.9,40.6,35.5
	C1113.1,1948.6,1144.5,1952.5,1163.1,1955.8z"/>
<path d="M2884.3,2007.3c-44.7-0.3-94.1-3.5-139.9-26.4c-29.8-14.8-55-34.4-53.5-71.3c1.5-36.1,22.7-61.5,55-75.2
	c87.2-37.1,175.4-38.5,263.7-3.3c10.4,4.1,20.5,9.9,29.3,16.7c43.1,33.4,42.7,84.7-1.8,116.8c-29.7,21.5-63.4,34.6-100.1,38.6
	C2921.2,2004.9,2905.4,2005.7,2884.3,2007.3z M2870.7,1961c34.4-6.6,70.2-12,105.1-20.7c13.7-3.4,26.4-12.7,38.1-21.4
	c9.8-7.3,9.6-18.3-0.2-26c-8.8-6.9-18.4-14.6-28.8-17.3c-31.6-8.3-63.5-17.7-95.8-20.5c-44.5-3.8-88.3,3.7-127.2,28.2
	c-29.4,18.5-28.7,34.1,1.8,51.6c6.8,3.9,14.3,7.2,21.9,8.9C2813,1949.7,2840.7,1955,2870.7,1961z"/>
</svg>
