<?xml version="1.0" encoding="utf-8"?>
<!-- Generator: Adobe Illustrator 24.3.0, SVG Export Plug-In . SVG Version: 6.00 Build 0)  -->
<svg version="1.1" id="Layer_1" xmlns="http://www.w3.org/2000/svg" xmlns:xlink="http://www.w3.org/1999/xlink" x="0px" y="0px"
	 viewBox="0 0 4000 4000" style="enable-background:new 0 0 4000 4000;" xml:space="preserve">
<path d="M2011.1,3255.9c-179.8-3.5-337.6-14.7-492.6-50.4c-51.3-11.8-101.2-29.5-151.7-44.6c-4.6-1.4-8.9-3.6-13.4-5.1
	c-81.3-28.3-131.4-81.2-135.1-171c-0.9-22.7-4.4-45.4-5.3-68.1c-0.9-22.5-9.2-35.3-31.7-45.5c-199.9-90.6-377.5-213.6-528.9-373.1
	c-157.9-166.3-268.8-361.1-342.7-577.2c-63.4-185.3-92.6-376.5-98.5-572.3c-2.1-67.3,27-105.8,84-131.3
	c68.2-30.6,139.5-51.3,212.9-64.3c24-4.3,41.7-14.5,57.2-33.1c156.3-188.7,360.2-285,601.4-306.9c47.6-4.3,95.8-3,143.7-2.5
	c17.8,0.2,32.4-4,46.7-14.4c151.4-109,321.3-168.4,505.5-192.5c187.3-24.5,368.5-2.8,544.4,64.9c78.8,30.3,152.4,70.6,219.5,121.8
	c18.4,14,37.3,14.6,57.5,14.4c133.1-1.5,259.5,28.6,380.3,82.6c117.6,52.6,222.3,123.5,301.9,226.6c15.9,20.6,36.9,24.2,58.7,30.3
	c68,19,136.4,37,203.5,58.8c29.2,9.5,56.7,25.8,83.1,42c33,20.3,48.8,50.8,47.4,90.8c-11.5,327-86.5,636.6-258.4,917.9
	c-168.7,276-401.9,480.5-697.3,612.9c-29.2,13.1-42.5,28-42.3,60.9c0.2,36.9-6.3,73.9-10.9,110.8c-4.6,37-23.5,66.6-56.3,83.2
	c-41.5,21-84.1,41.2-128.2,55.4c-123.8,39.8-251.8,60.2-381.2,70.3C2119.6,3252.2,2054.8,3253.7,2011.1,3255.9z M3674.1,1424.6
	c-8-0.5-11.5-1.5-14.8-0.8c-7,1.4-14.1,3-20.8,5.5c-105.2,38.9-214.7,60.6-325.2,75.7c-109.3,15-218.9,28.1-328.8,37.6
	c-156.6,13.5-313.3,27.3-470.3,33.3c-341.9,13-684.1,12.1-1026,0.1c-133.1-4.7-266.2-11.6-398.9-22.6
	c-127.9-10.6-255.4-26.3-382.7-42.5c-133.3-17.1-265.7-39.8-392.5-87.2c-4-1.5-8.7-1.1-15.5-1.9c0,13.7-0.8,25.6,0.1,37.2
	c11.1,136.8,34.8,271.1,76.8,402.1c81.2,253.1,215.3,472.8,411.4,653.3c169.3,155.7,364,269.7,581.4,343.2
	c200.4,67.8,407.5,97.4,619.3,97.2c284.9-0.3,557.5-53,814.8-179c365.5-178.9,618.2-459.3,761.9-839.3c51.2-135.5,80.6-276,99.9-419
	C3668.3,1486.8,3670.8,1456,3674.1,1424.6z M2124.3,1201.8c14.6-11,26.8-20.5,39.4-29.6c12.6-9.1,25.2-18.5,38.5-26.5
	c260.7-156.1,528.9-164,800.6-34c131.1,62.7,228.2,161.7,278.6,301.5c1.5,4.2,4.9,7.7,8.4,12.9c45.3-7.9,90-15.6,134.7-23.7
	c4.3-0.8,8.1-4.4,14.2-7.8c-28.3-77.9-65-150.6-117-213.8c-114.2-138.7-259.8-228.5-433.9-273.4c-147.4-38-294.8-35-442-2.7
	c-131.3,28.8-254,79-364.9,156c-21.2,14.7-42.8,29.4-59.2,52.1C2056.4,1142.9,2088.9,1171.1,2124.3,1201.8z M498.2,1392.4
	c30.4,8.9,35-10.1,42.8-24.2c94.1-169.1,231.4-285.7,418.2-340.5c132.6-38.9,267.1-38.7,402.7-16.3
	c170.5,28.2,324.3,96.3,460.8,200.1c115.4,87.8,225.7,182.1,337.4,274.7c15.2,12.6,29.7,18.2,48.7,17c31.1-2,62.3-2.7,93.4-4.4
	c6.1-0.3,12.1-3.1,17.4-4.5c-41.3-37.8-80.8-74.3-120.7-110.4c-92.5-83.6-182.3-170.6-278.7-249.5
	c-132.3-108.4-281.7-185.6-450-224.2c-204-46.7-400.7-26.8-589.1,63c-167.4,79.8-291,204.6-368,374.2
	C506.8,1361,503.5,1375.9,498.2,1392.4z M612.8,1413.8c34.2,4.7,60.3,7.8,86.1,11.9c20.5,3.3,32.5-4.6,43.9-22.2
	c52.1-80.6,125.8-134.8,216.3-164.7c136.3-45.1,274.2-41.3,411.4-3.9c167.4,45.5,301.9,149.2,436.8,251.6
	c15.5,11.8,29.5,18,48.5,17.6c54-1,108-0.8,162-1.4c9-0.1,18-1.9,34.9-3.8c-25.9-20.9-46.2-36.8-66-53.3
	c-60.9-50.5-120-103.5-182.8-151.5c-217.4-166-461.1-243-735.1-206.8c-164.6,21.8-298.5,100.3-400.1,232
	C647.5,1346.5,630.6,1376.7,612.8,1413.8z M1294.4,2921.2c4.5,34.2,8.6,61,11.6,88c2.6,23.7,15.5,40.5,35.5,50.9
	c22.2,11.5,45.2,22.1,68.9,30.1c125.7,42.4,256,60.5,387.6,73.3c227.8,22.2,452.7,6.1,674.7-48c51-12.4,100.4-31.7,149.8-49.7
	c18.9-6.9,36.7-17.8,45.3-38.6c8.9-21.2,13.4-74.1,7.1-104.7C2218,3078.1,1760.4,3075.1,1294.4,2921.2z M3197.2,1437.3
	c-1.3-9.5-1.2-14.3-2.7-18.6c-2.9-7.8-6.6-15.4-10.2-23c-53.1-110.7-141.8-183.2-252.6-229.5c-172.5-72-349.6-79.7-528.3-26.5
	c-78.5,23.4-151.3,59.7-216.1,120.2c29.8,29.2,58.5,57.2,88.3,86.4c13.6-7.9,24.8-14.4,36-21c11.4-6.7,22.4-14,34.1-20
	c123.2-64.1,254.1-87.1,390.8-64.4c125.7,20.9,232.1,75.9,297.3,192.4c3.9,7.1,8.3,13.9,13,21.6
	C3096.7,1449.1,3145.3,1443.4,3197.2,1437.3z M1464.3,821.6c47.9,15.1,88.6,29.2,130,40.4c13,3.5,29.8,3.7,41.7-1.6
	c69.8-31.1,143.4-47.2,218.3-58c155.4-22.4,308.5-15.1,456.9,41.3c20,7.6,38.4,8,59.3,1.9c36.6-10.7,74.3-17.8,111.5-26.6
	c8-1.9,15.8-4.4,24.7-6.9c-64.3-57-270.7-128.8-422.9-136.2C1864.7,665.5,1657.8,703.1,1464.3,821.6z M815.6,1443.4
	c45.8,4.3,84.7,8.6,123.8,11.3c7.6,0.5,16.1-4.3,23.3-8.2c71.9-39.1,149.1-51.1,229.6-44.3c91,7.6,175.2,37.7,256.1,79
	c16.5,8.4,35.9,14.1,54.3,15c55.1,2.7,110.3,2.5,165.5,3c6.2,0.1,12.4-2.8,25.3-5.9c-46.9-30.3-88.1-56.7-129-83.5
	c-139-91.4-290.8-134.6-457.3-119.9c-86.2,7.6-166.8,33.2-236.6,86.6C849.7,1392.3,830.6,1410.1,815.6,1443.4z M2954.7,1460.8
	c-7.2-12.6-10.1-20.3-15.2-26c-39.1-43.5-85.2-77.5-141.2-95.5c-136.3-43.7-269.1-34.2-397.6,29.4c-17.6,8.7-33.6,20.5-56.3,34.5
	c24.7,17.6,44.9,29.8,62.7,45c22.4,19.2,43.4,17.9,68.7,5.6c62.7-30.5,129.7-41.7,199-35.7c45.9,4,89.6,15.1,125.7,46.7
	c5,4.4,12.7,9.1,18.7,8.6C2862.7,1470.1,2906.2,1465.5,2954.7,1460.8z M2196.3,896.1c-86.5-39.9-373.5-28.8-462.2,17.6
	c12,13.2,76,53.4,89.5,55.4c5.8,0.9,11.9,0.2,17.8-0.6c67-8.5,133.9-7.7,200.8,1.2c13.5,1.8,30,1,41.4-5.3
	C2121.2,943.9,2157,920.3,2196.3,896.1z M3518.4,1377.6c53.6-12.6,105.3-26.9,152.7-57c-29.7-31.1-167.5-80.2-208.6-75.5
	C3480.6,1288.1,3498.5,1330.4,3518.4,1377.6z M291.4,1318.1c40.1,29.6,78.2,40.6,118.7,55.4c19.2-41.7,36.6-79.7,54.1-117.8
	c-2-2.1-4.1-4.1-6.1-6.2C403,1265.4,348.3,1282,291.4,1318.1z"/>
<path d="M2479.7,2316.5c-71.2-0.6-134.7-65.8-133.8-137.5c0.9-76.6,62.5-137.5,137.2-137.4c84.9,0.1,140.4,69.8,141,138.3
	C2624.8,2259.3,2562.8,2317.2,2479.7,2316.5z"/>
<path d="M1466.8,2044c78.8,1.2,138.1,62.1,136.7,140.5c-1.3,74.3-66.7,134.2-145.6,133.4c-71.9-0.8-131.2-64.8-129.4-139.8
	C1330.4,2099.5,1388.9,2042.8,1466.8,2044z"/>
<path d="M1980.4,2440.5c-93.7,0.4-164.7-53.4-183.8-132.4c-1.4-5.8-3.3-11.7-3.4-17.5c-0.2-15.4,4.1-29,21-33.5
	c15.2-4.1,29.2-0.3,38.1,12.9c7.3,10.8,12.2,23.3,18.3,34.9c21.5,41,55.4,61.8,101.8,60.4c49.5-1.5,88.3-20.2,105.7-70.4
	c2-5.6,4-11.3,5.8-17c5.4-17.5,16.7-25.6,35.2-22.4c19,3.3,31.4,14.7,30.3,34.1c-1,17.5-4.7,36-12.3,51.6
	C2103.6,2409.6,2045.6,2439.1,1980.4,2440.5z"/>
<path d="M2733.8,2358.4c-3.6,8.5-5.8,16.9-10.3,23.7c-20.3,30.9-40.8,61.5-62,91.8c-7.8,11.1-17.8,19.6-33.2,11.8
	c-14.2-7.2-23-23-20.3-38.1c0.6-3.5,1.4-7.2,3.3-10.2c20.1-32.3,38.9-65.7,61.2-96.4c15.6-21.5,42.2-17.8,56.1,4.8
	C2730.8,2349.7,2732.1,2354.3,2733.8,2358.4z"/>
<path d="M1323,2327.3c21.8-0.6,38.6,18.7,35,36.3c-1.9,9.1-6.1,18.3-11.4,26c-20.5,29.3-41.6,58.3-63.2,86.8
	c-9.3,12.2-20.7,20.2-36.6,8.7c-14.6-10.6-21.5-25.8-12.8-40c21.9-35.5,45.4-70,69.5-104C1308.5,2333.9,1318.5,2330.3,1323,2327.3z"
	/>
<path d="M1254.1,2356.4c-8.3,16.8-13.3,30.5-21.2,42.2c-16.2,23.6-34,46.2-51.3,69.1c-7.4,9.8-15.6,19.1-29.9,12.4
	c-14.4-6.7-21.7-18.6-22.1-34.1c-0.2-5.6,1.8-12.1,4.9-16.9c19.3-30.2,38.9-60.3,59-89.9c8.4-12.4,21.3-17.2,34.3-8.6
	C1237.7,2337.2,1245.2,2347.5,1254.1,2356.4z"/>
<path d="M2622,2356.1c-4.6,11.9-6.4,20.4-10.8,27.2c-17.4,27-35.1,53.8-53.8,79.9c-8.9,12.5-21.6,19.1-37.3,10.4
	c-13.4-7.4-22.3-26-14.4-39.9c19.5-33.9,41-66.7,63.3-98.9c7.5-10.8,21.4-11.8,32-3C2609.6,2338.9,2615.8,2348.7,2622,2356.1z"/>
<path d="M2752,2487.7c-21.9,1.5-44.8-29.9-33-48.3c19.9-31.3,39.8-62.6,60.8-93.1c7-10.2,19.9-18.7,30.7-9.2
	c9.7,8.5,15.6,22.6,20.2,35.2c1.9,5.2-3.1,13.9-6.8,19.8c-17.4,27.3-35,54.5-53.6,80.9C2765.1,2480.3,2755.9,2484.6,2752,2487.7z"/>
<path d="M1458.7,2376.5c-5.8,13.1-8.9,23.7-14.8,32.4c-15.3,22.7-31.6,44.8-48.1,66.7c-8.4,11.1-18.8,18.7-33.8,11.2
	c-14.2-7.1-21.6-18.3-20.7-34.4c0.9-16.3,59.5-101.8,75-105.7c9.1-2.3,22.2-0.9,29.4,4.4C1452.9,2356.4,1455,2368.7,1458.7,2376.5z"
	/>
</svg>
