<?xml version="1.0" encoding="utf-8"?>
<!-- Generator: Adobe Illustrator 24.3.0, SVG Export Plug-In . SVG Version: 6.00 Build 0)  -->
<svg version="1.1" id="Layer_1" xmlns="http://www.w3.org/2000/svg" xmlns:xlink="http://www.w3.org/1999/xlink" x="0px" y="0px"
	 viewBox="0 0 4000 4000" style="enable-background:new 0 0 4000 4000;" xml:space="preserve">
<path d="M2311.9,1263.9c75-40.9,154.7-71.1,239.3-86.8c84.6-15.6,169.9-20.8,259.3-13.1c3.2-10.9,7.2-21.5,9.4-32.4
	c46.1-230.5,92-460.9,138-691.4c7.5-37.5,13.7-75.2,23.4-112.1c12.4-47.7,38.3-67,87-58.7c48.8,8.3,97.1,21.5,144.2,37
	c36.9,12.1,51.5,40,47.7,78.9c-1.8,18.3-5.5,36.7-10.5,54.5c-56.6,203-113.7,405.9-170.5,608.9c-2.3,8.4-3.8,17-0.4,27.3
	c22.8-51.7,46-103.3,68.4-155.2c72.6-167.9,144.5-336.2,217.5-503.9c29.8-68.4,66.5-82.8,136-55.1c27.9,11.1,55.4,23.7,82.4,36.8
	c71,34.6,82.9,67.3,47.3,139c-30.9,62.2-65.1,122.8-97.5,184.3c-102.6,194.7-205,389.5-307.5,584.2c-14,26.5-14.2,26.9,7.4,46.9
	c42.7,39.5,82.7,81.1,110.6,132.9c8.9,16.6,24.4,23.1,41.7,28.3c67.5,20.3,135.2,40.4,201.8,63.3c23.6,8.1,45.4,22.7,66.7,36.4
	c32.7,21.1,46.9,51.1,45,91.3c-9,183.6-35.3,364-90,540c-87,280-239.2,518.3-456.6,714.5c-114.4,103.3-244.6,183.2-384.7,246.6
	c-24.6,11.1-35.5,24-36.5,51.2c-1.3,36.9-7.2,73.7-11.8,110.4c-5.7,45.5-32.6,76.4-71.9,95.9c-28.9,14.4-59.1,27.1-89.8,37
	c-107.2,34.7-217.3,55.6-329.6,66.4c-130.7,12.6-261.3,16-392.2,5.6c-150.5-12-299.2-33.5-442.2-84.6c-26-9.3-50.9-22.3-75.1-35.8
	c-34-19-56.9-48-63.9-86.7c-6.6-36.4-12.2-73.2-14.4-110c-1.3-21.7-9-33.1-28.5-41.8c-178.7-79.6-337.3-188.8-475.3-327.4
	c-222.2-223.1-360.3-491.2-424.8-798.4c-25.3-120.6-35.8-242.5-40.7-365.6c-2.7-68.7,24.8-111.5,85.5-134.5
	c51.8-19.7,104.8-36.3,158.1-51.6c22.2-6.4,38.9-14.9,52.6-34.9c131-190.8,312.1-305.5,540.2-338.2
	c198.6-28.5,387.9,6.7,560.3,114.2c21.8,13.6,39.8,19.3,63.1,3.6c19.9-13.4,44.2-13.8,67.4-10.1c21.1,3.3,35-2.5,44.8-22.4
	c26.4-53.9,115.2-89,185.8-62.7c8.6,3.2,19.1,5.6,24.8,12c20.1,22.2,40,18.9,64.9,7.7c59.7-26.8,134.7-14.8,180.6,46
	C2301.8,1255.3,2305.6,1258,2311.9,1263.9z M353.3,1786.5c0,16.8-1.1,30.6,0.2,44.2c4.2,43.8,7.7,87.8,14.2,131.3
	c42.8,288.2,149.8,548.3,338.6,772.8C804.9,2852,919,2950.4,1047.9,3033c215,137.8,451.9,211.6,703.3,242.3
	c126.7,15.5,254.1,17,381.7,7c141.4-11,280.2-33.7,415.5-77.4c190.6-61.5,365.5-152.3,520.6-279.2
	c204.9-167.6,348.8-378.9,441.1-626.2c55.9-149.7,85.6-305.2,103.6-463.3c2-17.5,0.3-35.5,0.3-56.2c-33,11.6-61.9,23.2-91.7,32.1
	c-110.2,33-223.7,49.8-337.5,64.1c-98.8,12.4-198,22.3-297.3,29.9c-157.1,11.9-314.3,25.8-471.7,30.2
	c-268.7,7.5-537.7,13.2-806.6,2.5c-121.6-4.8-243.4-7.8-364.7-16.7c-137.4-10.1-274.8-22.9-411.5-40.1
	c-111.3-14-221.9-34.5-332.2-55.2C452.4,1817.8,405.3,1800.9,353.3,1786.5z M2078.2,1861.8c0,0.7,0,1.4,0,2.1
	c77.5-2,155.1-3.6,232.6-6.3c32.2-1.1,43.3-13.1,44.9-44.9c0.4-9.2,0.3-18.7-1.6-27.6c-13.6-63.4-20.9-65.4,46.2-104.2
	c10.7-6.2,22-19.1,24.4-30.7c6.3-30.1,5.4-60.2-25.2-80.2c-7.6-5-13.3-12.8-19.9-19.3c-13.9-14-16.1-29.7-8.1-47.7
	c6.1-13.7,12.1-27.7,16.1-42.1c8.1-29.7-1.6-52.2-28.8-67.2c-10-5.5-21.5-11.9-32.2-11.8c-45.7,0.6-70.2-18.4-81.1-64.9
	c-8.8-37.5-49.7-54.1-86.7-41.9c-15.9,5.3-30.7,15.4-44.3,25.6c-24.9,18.7-37.3,19.6-61-0.1c-11.5-9.6-21.6-21.2-33.8-29.9
	c-43.6-30.9-96-15.9-117.6,33c-2.8,6.3-5.4,12.8-8.5,19c-14.6,28.4-24.5,33.7-55.3,29.5c-10.3-1.4-20.5-4-30.9-4.4
	c-60.3-2.5-90.2,30.3-82.6,90.1c6.8,53.7,6.8,53.7-41.9,80.3c-2,1.1-4.1,2.1-6.1,3.3c-39.9,23.2-45.9,72.1-13,105.2
	c8.1,8.2,15.9,16.8,24.4,24.7c12.1,11.2,12.7,23.3,5.9,37.6c-6.9,14.6-14.5,29.3-18.4,44.8c-10.5,41.3,9,67.8,51.4,72.2
	c17.2,1.8,34.5,3.3,51.8,5.2c14.9,1.6,27.9,8,32.1,22.8c7.3,26.1,25.8,28.3,48.4,28.1C1932.3,1861.3,2005.3,1861.8,2078.2,1861.8z
	 M1326,3259.9c-0.6,12.5-2,20.5-1.1,28.2c11.4,91.2,8.5,93.2,94.1,124.8c147.1,54.3,301.1,72.6,456.2,83.1
	c162.5,11,324.1-0.7,484.5-27.6c82.5-13.8,162.5-36.8,239-70.8c14.1-6.3,31.4-16.3,36.7-29c14.3-33.8,14.1-70.6,12.1-109.8
	C2205.6,3406.7,1767.9,3401.2,1326,3259.9z M1635.2,1443.3c6-21.6,10.3-39.3,15.7-56.6c5.7-18.3,0.5-29.6-16.6-39.7
	c-214.4-126.2-439.7-156.2-672.8-64.4C759.7,1362,618.6,1506,545.9,1713c-4.4,12.5-8,25.2-11.3,35.7c5,4.2,5.7,5.4,6.8,5.6
	c54.7,15,55,15.1,75.1-36.4c48-123.3,124.4-224.8,234.8-298.1c232-154,525.3-149.6,752.1,4.8
	C1612.4,1431,1622.5,1435.9,1635.2,1443.3z M3571.7,479.1c-37.4-17-70.8-32.5-104.5-47.5c-12.5-5.6-22.6-2.8-28.1,10.8
	c-2.6,6.4-5.7,12.6-8.5,19c-89,207.5-177.9,414.9-266.9,622.4c-20.5,47.9-41.6,95.5-62,143.4c-8.9,20.8-7.3,24.4,12.2,36.3
	c3.9,2.4,8,4.6,12.1,6.7c21.5,10.9,25.9,9.7,39.2-10.7c2.5-3.9,4.5-8.1,6.7-12.2c128.2-245.2,256.5-490.3,384.6-735.5
	C3561.4,502.8,3565.3,493.2,3571.7,479.1z M2389.5,1314c11.1,9.2,19.9,13.8,24.6,21c15.4,23.9,33.8,19.8,57.1,12.6
	c125.9-39.3,253.3-53.3,383.3-19.6c210.4,54.5,355.2,182.4,432.4,385.8c7.3,19.2,12,39.4,19,62.9c26.8-5.3,52-10.3,79.8-15.8
	c-6-21-10-37.7-15.6-53.9c-57.1-163-151.3-297.2-306-380.9c-163.7-88.7-337.4-109.6-518.4-65.5
	C2494.2,1273.1,2442.9,1286.6,2389.5,1314z M2955.3,1194.6c17.9-36.8,223.4-788.4,223.2-815.2c-38.9-11.7-78.5-22.5-124.2-28.3
	c-19.3,94.1-38.2,185.6-56.9,277.1c-18.5,90.8-37.8,181.4-54.7,272.5c-17,91.6-40.7,182.1-52.7,276.3
	C2914.3,1183.6,2934.1,1188.9,2955.3,1194.6z M1567.2,1575.2c2-2.2,3.1-2.9,3.4-3.9c2.9-11.1,5.6-22.3,8.5-33.4
	c9.4-35.8,9.3-35.6-21.6-55.1c-127.1-79.7-264.1-115.7-414.1-93.7c-220.4,32.4-372.9,151.8-456.8,358.3c-3.7,9.1-4.8,19.2-8.4,34.2
	c27.6,2.1,51,3.9,74,5.7c5.8-11.6,10.2-19.7,14-28.1c120.1-265.5,432.6-363.2,677.1-249.6
	C1485.1,1529.1,1524.9,1552.7,1567.2,1575.2z M2467.6,1504.1c86.1-29.3,173.6-47.3,264.7-33.2c92.5,14.3,176.5,47.5,249.2,106.7
	c71.8,58.4,119.4,134.1,150.1,224c32.1-4.1,62.3-8,89.7-11.5c2.7-5.9,3.7-7,3.6-8c-0.2-3.4-0.3-7-1.3-10.3
	c-37.6-117.1-101.5-216.6-204.1-286c-158.7-107.5-330.3-124.9-510.8-63.6C2465.7,1436.8,2458.9,1450.2,2467.6,1504.1z M835.3,1802.3
	c14.4,2.5,22.3,3.7,30.2,5.3c24.1,5,39.1-1.7,53.5-24.9c19.9-32,44.8-62.3,72.8-87.7c101.5-92.1,261.5-109.7,394.1-45.6
	c81.7,39.6,146.2,97,183.6,181.8c4.2,9.5,13,21.9,21.5,23.7c16.7,3.4,34.8,0.1,50.4-0.3c-15-24.4-31-44.4-40-67.2
	c-6.4-16.4-4.8-36.5-4-54.9c0.8-17.9-4-30.8-18.9-41.6c-22.4-16.4-43.1-35.1-65.2-51.9c-101-77.2-213.6-114.4-341.3-96.1
	c-146.4,21-255.6,96.3-325.1,227.6C842.4,1779.3,840.1,1789.2,835.3,1802.3z M3046.8,1811.3c-51.1-197.5-308.8-331.8-546-232.6
	c1.7,21.9,3.5,45.1,5.6,72.4c91.1-36.4,177.4-43,265.9-11.1c90,32.5,152.3,94.1,195,179.2
	C2994.7,1816.5,3020.5,1813.9,3046.8,1811.3z M988.5,1817.2c48,14.6,69.8,12.6,92.9-6.5c92.7-76.4,234.3-65.5,313.5,23.5
	c6.5,7.3,15.8,15.7,24.6,16.7c21.1,2.4,42.7,0.8,69.6,0.8c-7.9-14.6-13.2-25.7-19.7-36c-28.8-46-72.5-74.4-119.5-97.9
	c-112.9-56.5-253.3-31.2-334.7,59.8C1005.1,1789,997.9,1803.1,988.5,1817.2z M2879,1825.1c-3.3-8.6-4-13.4-6.6-16.8
	c-41.8-55.8-94.2-95.6-164.8-106.3c-95.8-14.6-180.6,14.8-259.4,66.8c-4.6,3-10.5,7.9-11,12.5c-2.9,25.8-4.4,51.7-6.9,85
	c18.4-8.7,31.1-13.2,42.2-20.2c9.6-6.2,17.1-15.5,26-22.9c88.2-74,206.9-73.3,294.5,0.7c7.1,6,18.5,9.8,27.7,9.5
	C2838.9,1832.7,2857,1828.4,2879,1825.1z M3616.5,1684.3c-20.7-20.6-42.5-28.2-63.8-36.5c-22.7-8.7-45.3-17.9-68.6-24.8
	c-21.1-6.2-40.9-20.7-67.3-13.6c15.7,46.2,30.7,90.5,46.1,136C3515.6,1728.2,3568.5,1719.3,3616.5,1684.3z M356.4,1681.2
	c22.7,24.4,57.1,40.4,98,46.7c11.7-31.8,23.7-64.3,38.4-104.4C441.1,1639.3,400.8,1659.7,356.4,1681.2z"/>
<path d="M2348.2,2614.9c-0.1-74.8,59.5-134.1,134.4-133.8c68.9,0.3,131.9,61.9,132.6,129.7c0.8,80.4-55.9,137.5-137,137.9
	C2405.7,2749.1,2348.3,2689.9,2348.2,2614.9z"/>
<path d="M1604.6,2616.6c-1.8,75.3-61.3,131.2-138.5,130c-71.6-1.2-129.1-61.4-127.4-133.4c1.7-70.9,65.1-131.9,136-131
	C1548.7,2483,1606.4,2542.7,1604.6,2616.6z"/>
<path d="M1977.5,2899.6c-106.1-0.1-190.1-74.2-201.2-177.8c-0.9-8-1.5-16.2-0.6-24.2c2.2-20.3,17.4-34.6,36.3-35.2
	c18.1-0.6,31.5,10.6,35.8,31.1c2.4,11.3,2.7,23,5.1,34.3c11.3,53.9,47.7,83.8,98.5,95.8c48,11.4,88.7-5.6,121.8-41.3
	c16.6-17.9,21-40.7,24.4-63.8c1.5-10.3,1.8-20.9,4.5-30.8c4-14.8,14.6-23.6,30-24.8c16.8-1.3,30,5.9,36.1,21.5
	c3.6,9.3,5.3,20.3,4.6,30.3C2164.9,2820.2,2087,2903.3,1977.5,2899.6z"/>
<path d="M1292.9,2913.8c-21.2-0.4-37.7-19.3-29-36.3c19.8-38.6,43.2-75.6,67.7-111.5c9.5-14,27.2-11,41-2.5
	c13.2,8.1,14.3,22.9,7.6,33.7c-22.9,36.9-47.6,72.8-72.5,108.5C1304.3,2910.6,1296.2,2912.1,1292.9,2913.8z"/>
<path d="M2630.1,2912.4c-23.2,0.9-40.5-22.9-30.3-42.1c19-35.6,40.8-69.9,63.8-103c10.1-14.5,30.8-14.7,43.7-4.5
	c12.9,10.2,15.1,24.8,7.2,37.4c-21.4,34.3-44.3,67.6-67.6,100.7C2642.6,2906.9,2634.1,2909.8,2630.1,2912.4z"/>
<path d="M1282.6,2778.2c-2.1,8.4-2.9,13-4.4,17.3c-13.6,38.8-38.6,70.4-65,100.7c-11.7,13.4-29.2,12.1-38-3
	c-5.7-9.7-10.1-26.4-5.6-34.7c18.1-33.1,39.4-64.5,60.6-95.7c7.1-10.5,19.8-13.6,30.7-6.4
	C1269.8,2762.3,1276.4,2771.7,1282.6,2778.2z"/>
<path d="M2812.9,2805.1c-1.9,4-5.1,12.6-9.8,20.4c-13.7,22.6-27.4,45.3-42.2,67.2c-14.3,21.2-29.9,25.7-46.3,15.5
	c-18.2-11.2-22.5-28.9-8.9-50.8c17.6-28.3,37.2-55.3,56.4-82.6c8.3-11.8,19.9-15.4,33.3-8.3
	C2808.8,2773.6,2816.1,2784.4,2812.9,2805.1z"/>
<path d="M2498.4,2870.7c2.1-7.2,2.7-14.6,6.1-20.2c17-27.4,33.8-54.9,52.5-81c11.4-15.9,30.6-17.2,45.9-6.2c13,9.3,15.7,21.4,5,39.4
	c-18.2,30.6-37.6,60.5-57.5,90.1c-7.5,11.2-19.2,17.6-33,11.5C2503.3,2898,2498.7,2885.2,2498.4,2870.7z"/>
<path d="M1479.4,2798.7c-2.6,9.1-3,14.1-5.4,17.8c-18.4,29.2-36.7,58.4-56.1,86.9c-8.1,11.8-20.7,13.9-33.9,7.1
	c-13.9-7.2-23.7-24.2-16.5-37.6c16.7-31.4,35.6-61.7,55.5-91.2c7.3-10.9,21.8-15.8,33.9-7.8
	C1466.5,2780.2,1473,2791.3,1479.4,2798.7z"/>
<path d="M2053.4,1830.5c-56.2-2.4-110.2-11.4-159.5-41.4c-146.4-89.1-148.2-261.5-16.3-364.8c69.3-54.3,150.1-72.2,236.1-44.2
	c66.3,21.6,110,66.2,125.1,136.3c18.8,87.8-37.6,174.1-126.5,187.1c-32.5,4.8-67.5,3.9-99.7-2.7c-84.2-17.2-115.8-118-59.7-183
	c36.8-42.6,107.6-42.7,140.1,1.2c7.7,10.4,11,24.9,13.2,38.1c2,11.7-1.9,23.4-15.5,27.7c-11.9,3.8-22.9,2.5-31.3-8
	c-3.6-4.5-7.1-9.1-10.7-13.7c-10.9-14.1-24.4-15.6-40.3-9.3c-16,6.4-23.3,17.6-23.2,34.8c0.2,27.7,15.4,52.2,42.8,55.4
	c28.1,3.3,58.2,3.2,85.5-3.2c39.7-9.3,62.4-39.7,67-79.9c5-42.8-13.6-77.8-48.1-101.4c-18.5-12.7-41.7-22.2-63.8-25.1
	c-70.7-9.2-133,9.2-181,65.4c-68.9,80.6-52.5,182.4,38.9,236.7c42.2,25.1,88.4,33.3,137.1,28c11.5-1.2,23.1-3.4,34.5-2.9
	c23.2,1,34.8,12.6,35.8,33.8c1,20.3-7.1,29.4-31.8,32.6C2085.9,1830,2069.6,1829.8,2053.4,1830.5z"/>
</svg>
