<?xml version="1.0" encoding="utf-8"?>
<!-- Generator: Adobe Illustrator 24.3.0, SVG Export Plug-In . SVG Version: 6.00 Build 0)  -->
<svg version="1.1" id="Layer_1" xmlns="http://www.w3.org/2000/svg" xmlns:xlink="http://www.w3.org/1999/xlink" x="0px" y="0px"
	 viewBox="0 0 4000 4000" style="enable-background:new 0 0 4000 4000;" xml:space="preserve">
<path d="M2659.8,1557.9c21.6,8.9,32.6-2.9,42.9-16.6c35-46.5,69.8-93.2,105.3-139.3c163.7-212.5,327.6-424.9,491.4-637.3
	c69.2-89.7,138.6-179.3,207.5-269.3c21.5-28.1,46.2-49.6,82.8-56.2c55.9-10.1,117.2,17.7,145.9,68.2
	c29.4,51.8,24.2,107.7-16.5,152.9c-102.2,113.7-205.8,226-307.4,340.2c-137.6,154.6-273.9,310.2-410.4,465.7
	c-27.1,30.9-52.6,63.3-75.5,99.6c9.9-6.3,20.2-12.2,29.7-19.1c17.2-12.5,35.8-17.3,55.9-9.8c21.7,8,39.8,3,58.7-9.1
	c46-29.4,75.5-27.6,119.6,5.9c9.2,7,17.3,8.9,28.5,6.5c49.6-10.6,91.3,13.2,106.2,61.4c3.5,11.3,8.6,17.3,19,21.9
	c36.8,15.9,55.1,43.7,48.6,84.2c-3,19.2,8,25.4,21.8,32.5c27.6,14.2,55.9,27.6,81.8,44.6c55.8,36.6,84.2,87.5,86.5,156.3
	c9.5,285.2-58.8,550.7-200.3,797.1c-178.9,311.5-439.7,530.4-770.1,667.9c-27.9,11.6-27.9,11.3-27.8,40.4
	c0.1,38.5-1.6,77.1,0.7,115.4c1.8,30.1-11.9,46-37.3,57.5c-63.7,28.9-129.7,50.4-197.7,66.2c-209.2,48.4-420.7,64.4-634.9,47.4
	c-111.2-8.8-220.9-25.3-329-52.2c-63.6-15.9-125.3-37.4-184.2-67c-24.2-12.1-35.4-29-35-56.6c0.6-38.4-3-76.9-2.9-115.3
	c0-18.3-6.2-27.7-23.4-34.8c-123.6-51-239.1-116.6-346.5-196.2c-256-189.8-441.4-432.1-543.4-735.6c-38-112.9-59.1-229.2-68.4-347.9
	c-5.4-68.5-8.7-136.7-0.9-205.5c5.6-49.5,26.2-88.8,64.5-119.9c52.4-42.7,113.1-69.4,175.4-93.3c129.6-49.8,264.6-78.3,400.2-105.8
	c152-30.8,305.5-50.4,459.6-66.5c21.7-2.3,43.5-4.9,65.3-4.8c58,0.2,112.1-21,168.5-29.6c58.2-8.9,115.9-6.9,173.7,3.8
	c24.4,4.5,49.5,6.4,74.3,7.1c168.3,4.6,336.7,8.2,505.1,13c59.2,1.7,118.4,4.9,177.5,9.1c24,1.7,37.3-5.3,47.7-28.5
	c117.5-261.6,236.1-522.8,354.6-784c52-114.5,104.5-228.7,156.4-343.2c14.2-31.2,27.3-62.9,40.4-94.6
	c22.4-54.4,63.6-80.1,121.5-80.4c59.2-0.3,100.9,28.5,127.1,80c16.6,32.6,15.8,66.4-1.3,99c-24.1,46-48.6,91.9-73.4,137.5
	c-166.9,306.8-333.9,613.6-500.8,920.4c-17.4,31.9-34.6,64-51.4,96.2C2662.8,1543.2,2662,1550.4,2659.8,1557.9z M277.3,2340.9
	c-2.1,6.8-3.3,8.8-3.1,10.7c0.4,4.1,1.1,8.2,2.2,12.2c58.7,222.1,162.5,420.2,318.3,589.5c206.1,224.1,455.8,379.2,747.9,464.8
	c122,35.8,247.1,54.5,373.9,65.5c207.2,17.8,411.3-1.7,613.3-46.1c202.5-44.5,388.3-129.8,558.3-247.1
	c287.4-198.1,485.1-463.1,582.4-800.4c3.9-13.5,7.5-27.1,13.8-49.7c-528.5,159.3-1063.1,223.1-1605.9,222.8
	C1335.1,2562.7,799.8,2501.7,277.3,2340.9z M241.7,2172.5c7.5,45.1,13.7,85.9,21.8,126.2c1.2,5.9,11.1,12.3,18.2,14.5
	c41.6,12.9,83.6,25,125.5,36.8c174.2,49.1,351.6,83.5,530,113.1c251.7,41.7,505.9,58.2,760.4,67.8c188.1,7.1,376.2,2.4,564.2-10
	c144.2-9.5,288.3-20.1,431.4-40.2c177-24.9,353.4-53.5,526.7-98.1c82.5-21.2,164.3-44.7,246.8-66.2c18.9-4.9,28.2-14.5,30.6-33.6
	c2.7-20.6,7.8-40.8,11.3-61.3c2.4-13.9,4-27.9,6.5-46c-15.5,5-26.2,8.6-37,11.8c-72.7,21.6-144.8,45.5-218.2,64.2
	c-258.1,65.8-519.5,113.7-785,136.3c-130.4,11.1-261.2,19.9-392,24c-227.7,7.2-455.3,2.1-682.5-15.5c-198-15.3-395-37.3-590.1-76.3
	c-176.4-35.3-351.3-75.7-521.7-134C274.9,2181.5,261,2178.1,241.7,2172.5z M236.1,2004c0,37.8-0.6,72.7,0.2,107.5
	c0.6,27,1.9,28.7,28.5,37.1c68.3,21.5,136.5,43.5,205.5,62.9c180.3,50.6,363.8,86.6,548.9,114.4c206.9,31,415.3,46.7,624,55.6
	c190.1,8.1,380.4,6.4,570.6-3.8c163.1-8.7,325.3-26.2,487.2-46.8c156.8-20,312.2-48.3,465.4-87.3c110.7-28.2,220.4-60.1,330.6-90.1
	c11.3-3.1,22.7-4.9,24-19.9c3.5-42.2,7.1-84.4,11.2-132.7c-14.7,8.4-24.1,14.3-33.9,19.3c-41.7,21-81.9,46.1-125.5,61.9
	c-207.1,75.2-422.1,117.2-640,144.7c-113.4,14.3-227.5,22.9-341.3,33.1c-190.7,17.2-381.8,24.1-573.3,19.8
	c-120.6-2.7-241.4-3.5-361.6-11.9c-139.9-9.8-279.4-25.8-418.8-41.4c-202.9-22.8-402.6-61.4-596.8-125.5
	c-55.4-18.3-109.9-38.6-160.3-68.3C265.9,2023.9,251.7,2014,236.1,2004z M1223.9,3442.3c0,34.4,0.8,65.2-0.3,95.9
	c-0.7,18.5,6.5,29.4,23.5,35.3c43.1,15,85.5,32.2,129.3,45c128.3,37.7,260.2,54.3,393.2,61c190.9,9.7,380.1-6.3,566.3-49.8
	c56.3-13.2,110.7-35.1,165.7-53.7c11.5-3.9,26.2-7.7,26.7-22.8c1.2-36.8,0.4-73.6,0.4-113.6c-214.1,77.2-431.5,107.4-652.8,108.9
	C1654.2,3550,1437.9,3512.5,1223.9,3442.3z M2753.2,2163.8c5.1-0.5,13.4-1,21.4-2.3c44-7.4,88.1-14.2,131.9-22.8
	c72.3-14.2,144.5-28.7,216.3-45c14.2-3.2,29.5-12,39.1-22.8c29-32.5,56.6-66.4,82.4-101.4c10-13.5,18.2-31.1,19.5-47.5
	c2-23.7,4.2-44.7,24.4-60.8c10.6-8.4,13.3-21.6,6.9-34c-13.3-25.4-14-51.4-7.4-78.7c3.9-16.3-3.9-28.2-18.8-35.4
	c-6.5-3.1-13.1-6.8-20.1-8.2c-17.3-3.6-26.5-15.2-33-30.1c-2.5-5.7-4.8-11.6-7.9-16.9c-12.4-21.6-20.7-25.5-45.4-17.4
	c-20.1,6.6-38.7,4.5-57.4-3.9c-7.6-3.4-15.5-6.2-22.9-9.9c-17.3-8.7-32.1-4.7-45.5,8.1c-6,5.7-12.2,11.3-17.8,17.4
	c-10.7,11.6-23.8,16.1-39.2,14.9c-9.3-0.7-18.7-1.3-27.9-2.3c-18.1-2-32.8,4.2-43.3,18.9c-6.6,9.2-14.3,18.5-18,28.9
	c-7.6,21.8-21.4,30.1-44.4,29.9c-30.2-0.3-53.6,13.2-68.1,41.2c-8.6,16.6-18.2,32.8-29.2,47.8c-6.3,8.5-15.4,17.5-25,20.5
	c-15.4,4.7-20.6,13.3-24.5,27.9c-6.9,26-15.6,51.7-26.2,76.3c-6.4,14.9-6.1,25.9,1.3,40.6
	C2701.2,2050.5,2725.9,2105.3,2753.2,2163.8z M2552.9,1846.4c17.6,24.6,22.7,25.7,38.6,8.4c10.5-11.5,19.5-24.4,29.6-36.1
	c118.8-137.7,237.1-275.9,356.9-412.8c120.4-137.7,242.3-274.2,363.5-411.2c14.3-16.2,28.4-32.5,44.2-50.6
	c-31.2-25.9-57.3-53.8-93.7-74.9C3037.1,1189.7,2795,1516.9,2552.9,1846.4z M2928.2,684.4c-7.3,14-13.5,24.7-18.6,35.8
	c-17.6,38.8-34.8,77.8-52.3,116.7c-77.2,171.5-154.2,343.2-231.8,514.5c-56.2,124-113.3,247.6-169.8,371.4
	c-6.5,14.2-12.8,28.6-16.9,43.5c-1.4,5.1,2.8,15.1,7.3,17.6c4.4,2.4,14.5,0.1,18.6-3.8c6.6-6.2,10.7-15.2,15.1-23.4
	c36.9-68.7,73-137.7,110.6-206.1c137.1-249.6,274.8-498.9,412-748.4c11.4-20.6,21-42.2,32.8-66.1
	C2999.1,718.7,2965.7,702.5,2928.2,684.4z M1828.7,1891.5c16.7,14.7,28.2,24.9,39.8,35c19.6,17,20.3,17.9,42.2,2.1
	c64.1-46.3,136.7-67.7,214.1-78.5c169.1-23.7,393.4,67.5,476.3,268.9c8.2,20,16.4,40.1,25.1,61.4c24.9,0.1,48.9-1,76.1-10.6
	c-50.9-193.1-168.8-320.6-356.3-380.9C2158,1728.3,1988.7,1770.8,1828.7,1891.5z M1863.6,1569c-0.6,2.9-1.2,5.9-1.8,8.8
	c16.3,12.5,33,24.5,48.8,37.5c34.1,28.2,60.4,63.1,82.6,100.9c9.6,16.3,21,21.4,38.3,17.9c5.1-1,10.4-0.9,15.5-1.9
	c102.7-18.9,204.6-18.5,305.6,11.5c22.7,6.8,26.9,4,36.5-16.7c17.1-36.7,34.2-73.5,50.9-110.4c3.2-7.1,4.7-15,7.7-24.5
	C2251,1579.9,2057.5,1568.4,1863.6,1569z M1974.9,2218.7c0.5-62.4-56.3-186.9-114.5-247.7c-86.9-90.9-194-143.8-318.7-153.2
	c-251.7-18.9-455.5,155.3-505.8,352.1c4.7,1.4,9.4,3.4,14.3,4.1c42.8,5.9,39.8-1.6,52-27.6c16.3-34.7,34.2-69.3,56.5-100.3
	c73.8-103.1,177.2-160.8,301.5-173.4c187.6-19,388.3,82.9,453.8,310.9c3.6,12.6,6.5,25.5,9.7,38.5c15.2,0,27.5,0.3,39.9-0.2
	C1967.5,2221.9,1971.4,2219.8,1974.9,2218.7z M1132.3,2179.5c42.1,11.9,42.6,11.3,62.6-25.5c32.4-59.4,76.7-107.7,133.7-145
	c158.3-103.6,357.9-33,437.6,81.6c27.5,39.6,48.2,81.9,59.2,129.8c20.5,0,39.6,0,63.2,0c-21.6-78.5-52.8-147.9-110.3-201.9
	c-75.3-70.8-164.8-109.3-269.6-112.7C1330.2,1900.1,1155.5,2046.6,1132.3,2179.5z M1948.4,2026.6c99.5-80,210.6-100.9,329.5-66.1
	c118.6,34.7,202.1,111.1,245.5,228.5c22.1-1.4,42.9,3.8,64.6-9.8c-49.7-152.9-155.3-245.1-306.8-286.2
	c-136.7-37.1-311.4,13-363.6,84.7C1927.1,1992.6,1936.8,2008.1,1948.4,2026.6z M633.9,1708.4c-0.9-2-1.8-4-2.7-6
	c-12.5,2.8-25.4,4.5-37.5,8.7c-58.7,20.4-117.8,39.9-175.4,63.1c-37.3,15-73.5,34-107.8,55c-21.6,13.2-40.5,32-57.7,51
	c-14.7,16.3-14.4,36.7,0.6,53.9c11.5,13.2,24.7,24.9,37.2,37.3c14.6,14.5,29.8,14.3,48.1,5.5c30.7-14.8,62-29.2,94.2-40.1
	c22.7-7.7,36.3-20.6,46.4-41.7c31.4-65.5,74.8-121.7,132.7-166.1C619.9,1722.7,626.6,1715.2,633.9,1708.4z M1248.5,1835.5
	c-5.8-6.9-9.9-12.9-15.2-17.7c-6.9-6.3-14.3-12.1-22.1-17.1c-89.1-58-185.1-85-292.6-73.6c-169.8,18-314.5,133.2-365.5,296.5
	c-4.8,15.2-12.7,30.9-5.4,50.7c13.9,3.1,28.4,6.4,41.1,9.3c3.2-4,4.1-4.7,4.4-5.6c1.2-2.9,2.5-5.7,3.3-8.7
	c30.6-113.2,94.3-200.9,200.9-252.6c137.6-66.8,271-59.5,397.6,29.7C1217.9,1862.5,1224.6,1861.8,1248.5,1835.5z M1318.6,1809.6
	c-3.1-20.8-17.6-31.7-30.4-43.2c-30.4-27.1-64.7-48.1-102.2-64.4c-81.7-35.6-165.4-64.2-255.9-56.4
	c-175,15.2-309.6,99.9-405.8,245.6c-31,47-50.3,99.6-62.4,158.3c14.7,4.1,27.8,7.8,43.1,12.1c6.4-22.3,11-41.2,17.3-59.7
	c79.6-235.4,348.8-386.9,618.3-280.4c49.9,19.7,93.9,48.6,136.2,80.6C1288.3,1810.9,1299.8,1821.3,1318.6,1809.6z M3418.7,701.9
	c31,25.6,59.8,49.2,88.2,73c17.2,14.4,20.9,15.3,35.8-1c46.8-51.3,93.3-102.9,139-155.2c7.7-8.9,13.2-21.5,15.3-33.1
	c5.6-31.6-18.7-69.8-51.5-84.6c-31.5-14.2-63-7.5-86.4,21.1c-34.1,41.7-66.9,84.5-100.2,126.9
	C3446.2,665.2,3433.9,681.8,3418.7,701.9z M3132.4,556.8c8.7-13,16.3-22.7,22.1-33.4c23.3-42.9,46.3-85.9,68.9-129.1
	c6.7-12.8,12.7-26.2,18.1-39.6c7-17.3,6.1-34.4-3.1-51c-15.4-27.5-37.1-43.4-70.1-43c-33.2,0.4-58.5,12.2-72.3,43.7
	c-26,58.9-52.1,117.8-77.7,176.8c-2.2,5.1-1.5,11.5-2,16.1C3055,517.1,3091.7,535.9,3132.4,556.8z M1970.3,1756
	c-41.3-94.3-180.2-209.7-358.2-219.8c-128.3-7.3-321,75.1-360.1,154.8c33.1,26.7,36.9,26.8,65.5,1.7
	c136.2-119.4,335.2-136,489.8-41.7c46,28,83.6,64.5,116.4,106.7c13.9,17.9,17,18.7,35.5,8C1963.4,1763.3,1966.8,1759.1,1970.3,1756z
	 M1786.8,2220.8c-6.8-109.2-137.3-217.7-269.3-226.5c-122.6-8.1-273.7,91.2-293.7,193.1c36.8,15.2,45.5,12,66.8-17.7
	c13.9-19.3,29.3-37.9,46.5-54.4c73.8-70.6,182.9-86.6,274.8-42.1c56.1,27.2,95.7,69.2,115.5,128.4c5.2,15.7,13.3,22.2,29.2,20.8
	C1766.6,2221.7,1776.7,2221.4,1786.8,2220.8z M685.3,2110.7c3.5-9,6.6-14.4,7.6-20.2c12.8-71.2,53.5-124.8,107.3-170.1
	c88.5-74.5,243.6-85.5,328.3-19.2c4,3.2,9.5,8,13.3,7.2c9.3-1.9,19.7-4.8,26.6-10.8c8.9-7.8,3.9-17.3-4-23.9
	c-8.7-7.3-17.6-14.7-27.4-20.3c-69.2-39.8-143.1-54.8-221.8-38.5c-132.6,27.4-228.3,99.8-274.9,230.1c-5.4,15.1-8,31.2-12.6,49.7
	C649.4,2100.7,666.8,2105.5,685.3,2110.7z M2488.1,2193.4c-5.6-15-8.4-25.7-13.4-35.3c-46.4-88.4-121.6-141.9-215.8-166.4
	c-97.6-25.4-190-11-270.8,54.1c-22.1,17.8-23,21.5-12.4,47.7c2.2,5.5,5.7,10.4,10.3,18.8c12.6-8.6,23.8-15.4,34.2-23.3
	c146.7-111,344.7-31.4,395.5,89.9c2.3,5.6,5.9,10.7,10.2,18.2C2445,2196,2464.1,2194.9,2488.1,2193.4z M1897,1792.8
	c-11.6-26-26.1-44.4-51.5-67.3c-94.9-85.5-206.6-110.9-330-89.5c-65.7,11.4-123.8,41-174.7,84.1c-21.7,18.4-21.6,23.7-2.4,45.4
	c3.2,3.6,8,5.9,11.4,8.3c4.5-1.6,7.8-2.1,10.2-3.8c10.1-7.3,19.9-15,29.7-22.6c70.4-54.9,150.6-80.1,238.9-68.6
	c82.5,10.8,154.8,45.1,209.8,110.8C1862.7,1818.7,1865.4,1818.1,1897,1792.8z M1116.7,1943c-44.2-50.2-143.8-63.3-225.8-32.5
	c-90.7,34.1-166.1,126.7-163.4,205c2.1,1.7,4.3,4.3,7,5.4c31.4,13,38.1,9,48.7-23.4c5.8-17.6,12.9-35.3,22.6-50.9
	c51.5-82.6,160.6-129.7,260.7-85.1C1095.6,1974.5,1098.4,1972.5,1116.7,1943z M2388,2199.7c-8-13.5-12.9-23.8-19.6-32.6
	c-69.4-90.9-214.5-141.8-335.2-39.8c-30.5,25.8-35.2,48.8-16.7,87.2c17.1,0.2,25-13.2,33.6-24.2c59.9-76.6,192.1-84.7,258.1-6.8
	C2330.8,2210.1,2354.3,2210,2388,2199.7z M1319.9,2197.2c31.4,9.8,57.2,9,78.1-17.1c6.3-7.9,15.8-13.5,24.4-19.3
	c69.5-47.1,154.8-31.8,203.7,36.4c19.7,27.4,25.7,29.2,62.7,19.3c-5.7-58.2-74.1-117-152.7-131.1
	C1450,2069.9,1358,2116.6,1319.9,2197.2z M1420.9,1776.8c1.1,2.2,2.3,4.4,3.4,6.7c44.1-5.8,88.5-9.8,132.1-18.1
	c32.7-6.3,63.5-4.8,94.9,5.1c41.2,13.1,77.9,33.7,110.6,61.7c8.7,7.4,16.9,16.1,27,20.8c5.7,2.7,15.8,0.6,21.9-2.9
	c8.3-4.7,14-13.4,7.4-23.6c-5.5-8.7-10.7-18.5-18.6-24.5c-26.3-20-52.1-41.7-81.2-56.8c-97.1-50.8-191.8-41.5-282.6,18
	C1430.2,1766.7,1425.9,1772.2,1420.9,1776.8z M3379.2,1935.2c25,14.2,44.9,25.1,64.5,36.6c11.2,6.6,22.2,6.5,32-1
	c9.8-7.4,19.4-15.7,26.9-25.3c24.5-31.3,23.2-53.9-4-82.6c-27.6-29-62.2-47.8-97.7-65.1c-2.1-1-5.7,1-10.4,2
	C3385.9,1844.9,3404.7,1891.3,3379.2,1935.2z M985.3,1977.5c-69.8,2.6-136.7,48.9-162.1,114.5c-3.3,8.6-5.9,17.7-7.6,26.8
	c-2.6,13.7,4.2,21.3,17.2,24.9c22.9,6.3,31.7,1.7,41.8-22.9c28.4-69.5,77.8-96.7,150.4-82.7c3.1,0.6,6.1,1.5,9.1,1.9
	c15,1.7,25.8-6.9,30.8-23.8c4.4-14.8-4.2-22.3-15.9-25.4C1028,1985.3,1006.6,1981.8,985.3,1977.5z M1026,2075.1
	c-35.3-11.9-63.7-7.8-88.5,13.2c-18,15.3-34.7,32.4-29,63.4c22.1,4.1,44.2,8.9,66.5,11.7c5.7,0.7,15.8-3.4,17.9-8
	C1004.7,2129.5,1014.8,2102.8,1026,2075.1z M2275,2211.2c-29.9-42.1-70.1-51.4-115.1-45c-38.9,5.6-72.4,29.1-79.5,55.8
	C2145.8,2218.4,2210.4,2214.8,2275,2211.2z M2970.3,598c-16.6,16.3-24,33.5-26.9,55.5c36.2,17.1,67.7,42.1,105.8,52.3
	c20.9-28.7,20.9-28.7,23.7-53.8C3039.1,634.2,3004.7,616.1,2970.3,598z M3313,838.4c32.6,27.2,62.5,52.1,95.9,80
	c14-16.6,26.2-31.1,40.1-47.7c-35-26.5-66.9-50.7-102.4-77.6C3334.9,808.8,3324.8,822.4,3313,838.4z M1083.4,1615.5
	c4.8,5.2,6.4,8.4,8.9,9.3c34,12.4,68,24.7,102.2,36.4c5.2,1.8,13.8,2.8,17.1,0c21.2-18.6,42.4-37.4,62.4-67.5
	C1206.1,1600.5,1145.8,1604,1083.4,1615.5z M3398.1,728.7c-8.2,10.2-15.9,16.5-18.8,24.6c-2.2,6.2-1.1,17.5,3.2,21.4
	c27.8,25.7,56.9,49.9,88.3,76.9c12.2-14.5,21.5-25.6,31.6-37.7C3467.2,782.7,3434.7,755,3398.1,728.7z M3118.1,585.1
	c-37.1-19.4-69.8-36.8-102.7-53.6c-11.8-6-21.5-4.1-27.6,9.6c-7.6,17-7,27.1,6.4,34.5c28,15.3,56.8,29.3,85.1,44.1
	c11.4,5.9,20.1,3.3,26.1-7.3C3109.8,604.6,3113,596.2,3118.1,585.1z M3288.8,1675.3c25.3,39.7,24.9,39.7,33,98
	c2.5,17.9,8.2,35.4,12.7,54.1c21.7-15,29.7-28.5,22.1-47.1c-9.9-24.1-12.4-47.1-6.3-72.2c4.2-17.3-4.7-30.4-19.6-38.4
	C3315.8,1661.7,3301.5,1663.6,3288.8,1675.3z M1429.9,2209.6c55.3-0.1,105.7,9.3,159.1,7.5C1556.8,2159,1468.2,2154.4,1429.9,2209.6
	z M3188.8,1595.4c0.1,2.5,0.2,5,0.3,7.5c28.9,7.2,46.8,24.2,54.5,53c4.5,16.9,19,19.9,29.7,7.4c14.5-17,10.6-36.7,4.5-55.7
	c-5.4-16.9-19-25.1-35.7-23.4C3224.1,1586.2,3206.5,1591.6,3188.8,1595.4z M3296.3,1954.3c54-22.1,71.5-38.5,41.1-105.4
	C3311.7,1865.6,3294.3,1910.2,3296.3,1954.3z M3205.3,2062.4c1.2,2,2.3,4.1,3.5,6.1c71.8-5.2,93.7-38,81.1-90
	C3260.9,2007.2,3233.1,2034.8,3205.3,2062.4z M3074.1,1587.8c23,7.8,41.9,15.3,61.3,20.3c10.2,2.6,22.9-0.8,24.7-12.8
	c1.3-8.8-2.5-20.1-7.9-27.4c-4-5.5-14-8.5-21.6-9C3108.7,1557.6,3091.7,1567.4,3074.1,1587.8z M2942.3,1628.7
	c48,10.2,72.3-2.9,77.5-39.6C2983.2,1583.4,2957.8,1595.8,2942.3,1628.7z M3405.4,2007c-23.3-8.6-36.3-30.4-58.1-19.4
	c-17.7,9-17.6,27.6-14.1,48.1C3357.9,2030.5,3380.5,2026.4,3405.4,2007z M2817.3,1714c37.9-4.4,51.7-30.4,67.5-56.5
	C2852.5,1655.1,2835.6,1669.2,2817.3,1714z M2644.5,1610.5c-29.1,4-49.1,33.2-54.2,76.5c17.6-22.1,33.7-41.9,49.4-62.1
	C2642,1621.9,2642.3,1617.4,2644.5,1610.5z M433,1989c-21.5,7.2-37.4,12.4-47.7,31.8c12.6,5.4,23.3,9.9,38.6,16.4
	C427.3,2019.4,429.8,2006.2,433,1989z M2668.4,1872.3c-19.6,12-34,27.6-34.2,55.5C2661.1,1916.8,2664.8,1894.8,2668.4,1872.3z
	 M2751.9,1766.3c-22.9,11-31.4,27.9-37,47C2732,1803,2748.8,1792.6,2751.9,1766.3z"/>
<path d="M2294.5,2764.6c79.4-0.2,147.5,65.2,148.2,142.4c0.8,81-70.1,160.6-143.5,160.9c-82.4,0.4-154-70-154.6-152
	C2144,2833.2,2211.7,2764.8,2294.5,2764.6z M2298,2866.4c-0.2,19.5,18.1,38.3,37.3,38.2c23.4,0,42.6-18.1,42.9-40.3
	c0.3-23.4-16-41.8-36.9-41.5C2317,2823.1,2298.3,2842,2298,2866.4z"/>
<path d="M1413.5,2768.5c81.9-0.2,148.5,64.6,148.9,144.1c0.5,92.2-76.5,154.2-147.5,154.9c-77.7,0.8-147.3-72.1-147-152.1
	C1268.3,2832.8,1331.8,2768.7,1413.5,2768.5z M1499,2866.1c0-23.9-17.4-42.1-40.2-42.1c-23.1,0-41.3,19.3-42.1,44.5
	c-0.7,23.9,13.8,38.9,37.8,39.1C1479.5,2907.9,1499,2889.7,1499,2866.1z"/>
<path d="M1856.3,3169.7c-84.8-0.3-154.1-64.2-160-147.7c-0.4-6.2-0.7-12.5,0-18.6c1.8-16.8,10.9-26.2,25-26.2
	c15.5,0,21.7,10.2,24,23.6c1.4,8.2,1.7,16.6,3.5,24.7c14.8,70.1,84,108.1,150.4,82.6c33.3-12.8,56.1-34.9,62.5-71.3
	c2-11.2,3.7-22.5,5.7-33.7c4.2-23.7,12.2-30.4,32.6-27.7c17.2,2.3,22.7,11,21.8,34.5C2018.4,3101.3,1947.4,3170,1856.3,3169.7z"/>
<path d="M1361,3228.3c-43.5-3-85-10.2-123.8-29.5c-17.3-8.6-31.9-19.8-32.3-41.7c-0.4-23.3,14.5-36.9,33.3-44.2
	c24.9-9.6,50.9-18.2,77.2-22.1c60-8.8,119.8-7.8,176.5,18.6c7.5,3.5,15,7.4,21.3,12.6c22.5,18.5,24.1,46,1,63.7
	c-15.2,11.6-33.9,20.8-52.5,25.3C1428.7,3219.1,1394.6,3222.8,1361,3228.3z M1361.4,3204.2c36.4-7.1,73.1-13.3,109.2-21.8
	c14.6-3.4,32.6-8.9,34-27.4c1.5-20.2-18.2-23.1-31.8-28.7c-59-24.2-119.7-21-180.4-8.3c-14.1,2.9-28.6,6.8-41,13.8
	c-8.9,5-18.4,14.9-20.7,24.3c-3.3,13.2,10.4,18.6,20.7,23.4C1286,3195.8,1322.9,3200,1361.4,3204.2z"/>
<path d="M2343.4,3226.4c-32.5-5.4-64.4-9.6-95.7-16.3c-13.9-3-27.7-9.4-39.8-17c-33.2-20.6-35-53.9-2.3-74.8
	c18.7-11.9,41.1-20.3,62.9-24.8c62.6-12.8,125.6-16.1,187,6.5c15.4,5.6,31,12.7,43.9,22.5c21.4,16.2,23.1,41.7,2.2,58.5
	c-16.5,13.2-36.9,24-57.3,29.2C2411.3,3218.5,2377,3221.3,2343.4,3226.4z M2344.8,3103.9c-24.5,3.4-49.4,5.3-73.5,10.7
	c-16.9,3.8-34,10.3-48.8,19.2c-21.1,12.6-20.4,27.9,0.7,39.7c11.6,6.5,24.4,11.3,37.2,15c56.1,15.9,112.8,13.1,169.2,1.6
	c17-3.5,34-9.7,49.3-17.9c17.8-9.6,17.6-25.2,1.1-36.6c-6.7-4.6-14.7-7.6-22.3-10.7C2421.6,3109.9,2383.6,3106.1,2344.8,3103.9z"/>
<path d="M2768.7,1977c1.3-81.5,74.3-150.1,157.5-148.1c74.8,1.8,132.8,66.3,131.6,145.6c-1,65.2-52.8,147.2-151.7,145.6
	C2837.2,2118.9,2766.6,2066.7,2768.7,1977z M3021.6,1975.3c0-24.2-6.9-48-19.6-67.8c-24.8-38.5-72.1-54-114.5-36.6
	c-13.3,5.5-26.5,12.5-38,21c-40.9,30.5-54.7,85.6-33.8,131.1c20.2,44,64.2,67.4,109.2,58C2982.5,2069,3021.6,2026.4,3021.6,1975.3z"
	/>
<path d="M2909.8,2008.7c-23-0.7-37.4-6-44.5-21.9c-5.9-13.2-3.9-26.5,6.4-37.2c11.4-11.7,24.7-18.5,41.6-11.9c7.6,3,15.8,5,23,8.8
	c25.1,13.1,26.5,37.8,2.1,52.4C2928.3,2005.1,2915.6,2006.9,2909.8,2008.7z"/>
</svg>
