<?xml version="1.0" encoding="utf-8"?>
<!-- Generator: Adobe Illustrator 24.3.0, SVG Export Plug-In . SVG Version: 6.00 Build 0)  -->
<svg version="1.1" id="Layer_1" xmlns="http://www.w3.org/2000/svg" xmlns:xlink="http://www.w3.org/1999/xlink" x="0px" y="0px"
	 viewBox="0 0 4000 4000" style="enable-background:new 0 0 4000 4000;" xml:space="preserve">
<path d="M3604.1,1577c97.3,105.3,98.9,215.5,15,330.6c42.3,46.2,66.3,99.9,69.7,161.9c3.4,61.8-25.8,113-57.2,164.5
	c37.8,49.8,61.4,103.8,57.9,166.7c-3.3,60.7-25.8,113.7-68.9,157.8c63.4,102.1,63,199.2-15.6,292.5c4.4,9.2,8.5,18.3,12.9,27.3
	c44.1,90.6,17.9,196.5-64.4,255.6c-17,12.2-25.8,22.1-21,46.3c18,91.7-46.8,186.5-139.7,207c-24.7,5.4-54.1-0.3-74.5,11.2
	c-18.7,10.6-26.2,39.2-41.8,57.1c-49.7,56.6-142.2,77.7-214.4,46.9c-24.4-10.4-37.2-6.7-55.3,11.9c-62,63.6-160.6,75.7-240,30.9
	c-18.8-10.6-32.4-12.6-52-0.5c-79.5,48.8-159.1,47.1-236.9-5.7c-6.2-4.2-12.8-8-17.6-11c-30.6,16.5-58.1,35.5-88.4,47
	c-71,27.1-141.2,21.6-204.7-21.1c-27.3-18.4-46.3-20.6-73.5,0.9c-61.3,48.6-191,60.6-274.4-11.4c-3.8-3.3-8.1-5.9-14.3-10.4
	c-14,7.9-28.2,15.9-42.5,23.8c-93.8,51.8-185,50.3-272.1-15.2c-14.6-11-25.1-11.6-40.7-1.7c-92.7,58.5-207.5,56.3-290.6-18.7
	c-13.9-12.6-24.6-12.6-40.3-2.7c-52.6,33.1-109.6,38.1-169.3,22.8c-50.6-12.9-90.5-39.8-117.3-85.3c-7-11.9-14.6-23.4-23.1-36.9
	c-14.9,3.3-28.4,6.2-41.9,9.2c-126.5,28-249.9-72.3-248.3-193.5c0.3-22-8.3-32.8-28.4-38.1c-95-25.1-153.3-148.4-113.1-253.3
	c13.3-34.6,13-34.7-14.7-60.3c-69.1-63.9-84.9-170.6-37.5-252.4c5.1-8.7,10.1-17.5,16-27.8c-40.4-41.2-61.9-89.4-62.8-147.7
	c-0.8-56.8,21.2-103.8,55.7-146.7c-63.3-92.7-63-182.4,7-269.7c-55.8-95.8-50.3-185.1,27.2-269.2c-50.9-99.6-34.5-190.7,43.3-272.3
	c-3.6-7.8-6.6-14.7-10-21.3c-47.7-93.1-23.2-198.5,61.9-261.5c12.4-9.2,19-18.4,19-34.4c0-143.3,60.7-257.1,167.4-350.5
	c111.3-97.4,240.3-162.7,377.1-214.2c189.7-71.4,387.1-108.5,587.9-132.1c193.4-22.7,387.1-23.8,580.8-11.8
	c86.4,5.3,172.3,19,258.1,31.7c21.8,3.2,36.1-0.9,51.4-14.9c15.9-14.6,32.8-28.6,51.2-40c31.8-19.7,53.1-46.9,67-81
	c13.1-32.1,29.5-62.4,56.3-85.6c28.1-24.3,59.9-39.8,98.1-33.3c35.9,6.1,64.3,24.3,79,59.2c6.9,16.4,12.7,33.4,18.5,50.2
	c10.5,30.6,26.2,57.7,49,81.1c53,54.2,99.3,113.2,124.3,186.1c5.7,16.6,20,21.6,34.1,28c61.4,28.2,123.5,54.9,183.4,86
	c75.3,39.1,143.7,88.6,195,157.3c68.8,92.2,104.4,195.1,90.4,311.5c-2.8,22.8-2.4,41.4,18.8,56.8c70.1,51,103.1,164.7,57.9,263.7
	C3621,1544.8,3612.4,1560.4,3604.1,1577z M506.5,1294c-7.7,7.1-13.1,10.6-16.7,15.5c-39.3,54.5-34.8,112.9,12.4,163.1
	c44.9,47.8,44.9,65.8-13.3,88.4c-65.1,25.3-78.7,131.1-22,172.3c9.3,6.7,18.2,14.3,25.9,22.6c21.4,23.1,13.6,56.8-15.7,68.5
	c-13,5.2-26.5,9-39.6,14c-22,8.4-34.9,25.1-41.1,47.2c-12.1,43.1,2.2,85,37.9,112.5c9.1,7,19.3,12.9,27.2,21
	c19.9,20.4,15.8,50.8-8.4,65.1c-8.7,5.2-18.4,8.7-27.7,12.9c-65,29.4-58.2,127.4-10.6,157.2c11.9,7.4,22.7,16.7,34.8,23.6
	c22.9,13.1,17.7,54.9-1,66.4c-8.7,5.3-17.5,10.6-26.7,14.9c-40.9,19.1-58,53-56.1,95.9c1.9,41.7,15.8,77.6,60.3,92.8
	c7.2,2.5,14.1,6.2,20.5,10.3c31.3,20.2,32.6,47.1,4,71.2c-14.6,12.3-30.3,23.7-42.8,38c-51.6,59.1-4.7,168.8,58.6,170
	c8.7,0.2,17.7,3.1,26,6.2c33.1,12.3,40.8,39,18.9,66c-7.2,8.8-16.5,15.9-24.5,24.1c-33,33.7-41.6,84.8-21.6,127.4
	c17.9,38,49.5,54.4,100,51.8c54-2.7,68.3,15.6,51.4,66.2c-2,6-4.2,12-6.5,18c-11.1,28.4-5.7,55.1,8.5,80.9
	c37,67.1,122.3,86.3,184.7,41.4c7.2-5.2,13.2-12.1,20.6-17.1c21.7-14.5,47-7.1,55.8,17.2c4.7,13,5.7,27.3,8.5,41
	c12.8,60.4,58.4,97.7,119.7,97.7c44.1,0,78.4-17.6,102.3-55.8c15.9-25.5,40.5-34.9,60.7-21.2c11.6,7.9,20.3,22.9,25.6,36.5
	c31.9,82.4,166.6,100.6,226.3,18.7c6.7-9.3,12-19.8,19.6-28.2c16.4-18.3,40.2-18.6,57-0.9c6,6.4,10.8,14.3,14.7,22.2
	c25.9,51.7,71.1,72.2,125.2,72.4c51.9,0.1,92.6-23.3,118.9-70.1c26-46.2,51-46.4,81.5-1.9c2.2,3.2,4,6.5,6.1,9.7
	c40.7,60.3,111.6,80.3,178.3,51.2c30.8-13.4,50.9-36.3,67.3-65c19.3-33.9,48.6-34.9,73.2-4.5c8.8,10.9,16.1,23.1,25.3,33.6
	c67.5,76.4,184.8,55.1,219.7-39.7c1.8-4.8,3.1-9.8,5.4-14.3c14.6-29.7,48.2-32.9,67.2-6.1c5.1,7.2,8.3,15.7,12.1,23.8
	c20.5,43.6,57.3,64.2,103,68.1c45.5,3.9,77-16.9,97.5-58.9c19.3-39.6,49.1-40,76.4-4c3.1,4.1,5.7,8.4,8.6,12.7
	c24.1,36.2,59.7,46.6,100.2,41.6c41.4-5.1,70.5-27.6,84.2-68.1c2.5-7.2,4.5-14.7,7.4-21.7c14.2-34.1,41.1-40.1,69.5-15.4
	c11.5,10.1,21.4,22,33.2,31.7c52.7,43.8,135.4,16.9,151.9-49.2c3.4-13.6,4.6-27.8,8.7-41.1c9.2-29.2,23-36.6,52-28.6
	c9.8,2.7,19,7.3,28.6,10.7c39.4,13.9,78.4,2.4,106.3-31c28.2-33.8,32.7-67.4,8.6-105.4c-33-52.2-22.4-76.8,41.3-86.7
	c58.4-9.1,91.8-66.2,76.9-123.9c-7.3-28.2-24.2-49.8-45-69.6c-34.8-33-31.9-51.4,7.9-77.8c16.7-11.1,34.8-22.8,46.4-38.5
	c35.4-48.2,23.4-124-23.1-162.5c-9.8-8.1-21.1-14.8-29.4-24.1c-20.3-23-17-44.2,8.8-60.6c12.9-8.2,27-14.3,40.3-22
	c25.9-14.9,41.3-38,47.7-66.5c10.8-48.3-4.5-123.9-61.2-153c-6.7-3.5-13.4-7.7-18.9-12.8c-22.1-20.2-21.5-41.6,1.7-61.3
	c6.8-5.8,14.5-10.4,21.7-15.8c52.3-38.9,70.2-103,46.3-163.5c-13.3-33.7-37-56.3-68.4-74.1c-45.1-25.6-44.6-50.7-0.9-78.2
	c5.4-3.4,10.8-6.7,16.1-10.3c24.5-16.3,39.6-39.3,47.7-67.2c21.2-73.4-7.7-135.1-77.4-165.3c-34-14.7-39.9-42.1-14.3-69.4
	c8.6-9.3,19.5-16.5,29.1-24.8c52.1-45.2,57.1-159.6-12.3-202.5c-5.6,3-13.2,5.4-18.4,10.3c-58.9,56.2-129,74.8-208.1,62.7
	c-19.4-3-30.5,4.8-41,20.3c-20.6,30.2-48.8,52-83,65.1c-92.1,35.3-180.4,28.7-262-28.5c-19-13.3-33-14.2-51.2-1
	c-85.7,61.9-226,67-328.1-16.3c-5.8-4.7-12.5-8.2-19.3-12.7c-9.6,5.8-18.3,10.9-26.9,16.2c-97.3,60.5-199.5,65.9-297.6,9.9
	c-43.5-24.9-70.9-24.3-114.6-2.2c-97.3,49.1-197.3,45-291.1-15.7c-29.7-19.3-29.1-21-57.7,0.6c-78.2,59.2-224.1,80.3-314.4,4.4
	c-17.3-14.5-28.5-8.1-42.8,3.9c-76.8,64.8-220.7,86.5-318.8-7c-12.5-11.9-22.1-13.1-36.4-3.1c-48.5,33.7-103.8,43.1-160.7,35.9
	c-65-8.2-124.4-30.3-158.8-92.4c-9.5-17.1-22.7-21.8-41-21c-44.9,2-81.6-16.3-112.6-47.7C521.3,1305.8,515.2,1301.4,506.5,1294z
	 M3455.6,1051.9c-12.3,5.3-18.9,6.6-23.6,10.4c-69.2,55.2-151.6,76.4-236.2,91.9c-143.9,26.3-289,29.9-434.6,23.7
	c-184.8-7.9-369.5-19.3-554.3-24.8c-255-7.7-510.2-10.6-765.3-17c-179.8-4.5-359.6-9.2-537.7-38.3c-96.8-15.9-194.5-27.9-286.3-65.5
	c-4.2-1.7-9.7-0.2-17.6-0.2c-27.6,65.3-39,131.7-14.1,200c13.9,38.3,33.4,46,74.8,36.2c3.7-0.9,7.5-1.5,11.2-2.4
	c42.4-9.5,49.4-5.8,65.7,35.5c2.3,5.9,4.1,12.1,6.2,18.1c7.8,22.8,23.2,38.3,44,50.5c64.7,37.9,138.9,15.1,190.9-29.3
	c9.7-8.2,17.5-18.7,27.2-26.8c17.7-14.8,35.5-13.6,50,4.1c8.8,10.8,13.8,24.7,23,35.1c14,16,28,33.4,45.7,44.4
	c47.4,29.4,96.9,26.5,145.7,1.4c30-15.5,54.4-36.9,72.9-65.8c15.5-24.1,36.3-30.9,54.5-19.4c9.3,5.9,17.5,15.2,23.2,24.7
	c42,69.5,130.2,82.2,196.1,54.1c35.1-15,62.8-37.6,86.5-67.2c22.6-28.2,41.5-28.3,67.3-3.8c7.4,7,13.9,14.9,21,22.2
	c70.8,73.2,210.2,75.8,275.4-1.6c42-49.9,68.5-43.6,106.2-1.1c57.2,64.6,131.7,78.2,213.1,52.5c32.3-10.2,58.5-29.3,79.8-56.7
	c22-28.4,40.8-28.4,67.2-3.8c9.3,8.7,17.2,18.9,26.5,27.6c48.7,45.8,106.3,63.1,172.3,53.2c45.4-6.8,79.7-30.8,108-66.3
	c21.3-26.7,39.3-26.7,64.1-3.4c5.6,5.2,10.3,11.3,15.2,17.1c48.4,57.2,111,68.6,180.3,53.7c47.9-10.3,80.9-39.3,100.8-85.3
	c15.6-36,22.2-36.9,59.2-24.1c10.8,3.8,21.5,8,32.3,11.7c63.3,21.3,141-13.7,163.1-76.8C3476.6,1179.9,3470.4,1118.1,3455.6,1051.9z
	 M1700.3,558.6c-1.7,3.6-3.3,7.2-5,10.9c8.8,6.9,18.5,13,26.3,20.9c59.8,61,84.1,132.1,61.2,216.8c-11.5,42.5-29.6,82.1-58.4,115
	c-29.3,33.4-62.2,63.6-93.3,95.5c-9,9.2-24.4,14.5-21.8,32.9c110.7,3.1,220.3,6.5,329.8,8.8c10.5,0.2,24-3.4,31.4-10.3
	c51.2-47.9,102.6-95.7,150.8-146.4c31.9-33.5,51.6-75.6,63.9-120.6c13.3-49.2,11-97.2-18.3-139.5c-20.2-29-44.9-55.3-70.5-79.9
	c-9.6-9.2-27.4-14-41.4-13.9c-104.6,0.7-209.1,3.1-313.7,5.3C1727.5,554.4,1713.9,557,1700.3,558.6z M2733.3,852.6
	c69.1-4,122.1-9.9,172.4-30.3c46.3-18.8,68.8-54.1,71.6-103.3c2.1-36.7-4.2-72.2-23.9-102.6c-24.1-37.2-50.2-73.7-79.7-106.7
	c-36.1-40.5-67.4-82.8-84.3-134.8c-2-6-4.2-12.1-7.2-17.7c-11.4-21-25.1-23.6-42.2-6c-10.5,10.8-20.2,23.5-26.5,37.1
	c-26.7,58.4-67.1,104.1-120.5,139.9c-37.4,25.1-67,58.8-88.1,99c-40.8,77.8-21.6,141.5,55.1,182.8c13.4,7.2,27.3,14.9,42,18
	C2650.4,838.2,2699.3,846.4,2733.3,852.6z M1260.8,634.2c-0.4,2.8-0.9,5.6-1.3,8.4c8.7,6.2,17.3,12.5,26.1,18.6
	c55.6,38.8,72.9,104.6,43.2,165.2c-18.3,37.4-44.4,68.9-77.1,94c-42.4,32.6-86.8,62.7-130.2,94.1c-5.3,3.8-9.9,8.5-19.1,16.7
	c17.4,2,28.5,3.9,39.7,4.5c72.6,3.5,145.8,2.6,217.8,11.4c62.9,7.6,113.2-4.7,158.6-50.4c37.6-37.8,82.2-68.5,121.4-104.8
	c28.3-26.2,48.3-59.4,60.1-96.6c12.4-39.4,15.5-80.6-11.8-113.4c-52.4-62.7-114.4-109.1-204.1-92.2c-36.3,6.8-73.1,11.5-109.3,18.7
	C1336.5,615.9,1298.7,625.5,1260.8,634.2z M3403.3,966.5c-49.6-81.5-267.4-220.1-341.7-218c-1.7,5.7-4.1,11.6-5.3,17.7
	c-12.8,62-49.3,106.2-105.3,132.9c-28.4,13.5-59.5,22.7-90.3,29.8c-60.4,14-121.8,10.5-182.9,4.7c-20.2-1.9-31.3,2.9-41.4,23
	c-16.4,32.8-38.9,62.5-59,93.4c-5.2,8-10.8,15.7-19.8,28.8c19.3,1.6,32.7,3.1,46.2,3.7c35.7,1.5,71.4,1.8,107.1,3.9
	c145.5,8.5,290.7,9.5,435.3-12.2c65.7-9.9,130.5-23.7,190.4-54.2C3361.6,1007.2,3385.8,993,3403.3,966.5z M2221.6,559.6
	c16.7,30.8,30.9,52,40.4,75.1c29.7,73,19.7,144.8-9.9,215.6c-28.5,68.3-72.4,125.5-124.7,177c-9.4,9.3-18.4,19.1-27.8,28.9
	c5.9,4.8,7.7,7.5,9.6,7.6c101.9,3.8,203.8,7.8,305.8,10.2c11.3,0.3,26-5.8,33.5-14.1c36.8-40.5,71.9-82.5,106.9-124.5
	c4.4-5.3,5.4-13.4,9.2-23.7c-156-62.4-197.3-174.9-139-330.7C2356.9,573.7,2293,567.1,2221.6,559.6z M651.7,949.9
	c14.4,6.3,23.1,12,32.6,13.9c73.5,15.3,147,30.8,220.9,43.9c13.5,2.4,30-3.7,43.4-9.7c37.1-16.8,73-36.1,109.9-53.5
	c52.3-24.6,100.8-55,143.3-94c18.4-16.9,34.8-37.3,47.8-58.7c16.1-26.3,11.9-45.4-13.9-62.1c-23.3-15-49.8-25.1-75-37.1
	c-32-15.3-64.4-13.8-96.2-0.1c-53.8,23.1-108,45.5-160.5,71.2c-80.5,39.3-155.7,87-219.5,151C674.1,925.2,664.4,936.2,651.7,949.9z"
	/>
<path d="M1993.8,2391.9c68.9,0,137.8-0.1,206.7,0.1c12.7,0,25.7,0,38.2,2c25.3,4.2,38.1,14.7,39.3,39.7
	c5.4,112.6-20,215.3-117.1,283.8c-94.2,66.4-197.4,73.3-300.3,19.6c-72.3-37.8-114.2-101.2-127.4-181.1
	c-6.8-41.2-8.9-83.6-8.7-125.4c0.1-32.3,6.8-37.1,39.8-37.5c76.5-0.9,153.1-0.3,229.6-0.3
	C1993.8,2392.4,1993.8,2392.2,1993.8,2391.9z M2197.3,2469.2c-131.1,0.4-262.4-2.6-399.7,0.1c5.7,33.9,10.5,61.9,16.6,97.6
	c61.3-29,119.7-48.8,182.4-51.5c65.7-2.8,123.8,19.7,176.7,55.6C2193.7,2539.1,2199.9,2512.4,2197.3,2469.2z M1873.6,2642.9
	c60.2,63.4,193.8,63.9,249.1-2.7C2054.6,2581.2,1930,2582,1873.6,2642.9z"/>
<path d="M1371.7,2559.9c-86.5,0.2-158.3-74.5-157.5-163.8c0.8-88.9,72.9-162.5,159.5-163c91.8-0.5,166.9,73.5,166.7,164.3
	C1540.2,2486.7,1464.4,2559.7,1371.7,2559.9z"/>
<path d="M2618.9,2555.5c-83.1,3.6-161-69.5-160-160.7c1.1-92.8,67.8-160,158.9-162.6c90.6-2.6,168.6,72.6,167.9,162.2
	C2785,2472.2,2732.4,2556.1,2618.9,2555.5z"/>
<path d="M705.3,1917.9c-18.4-55-9.5-103.8,16.3-150.3c32.4-58.3,102.2-88.8,166.5-72.6c34.1,8.6,52.5,35.1,45.1,63.8
	c-3.7,14.4-11.5,22.3-26.8,21.4c-12.7-0.8-25.4-2.1-38.1-2.6c-37.6-1.3-71.1,19.9-81.4,51.1c-11.6,35.3,1.9,76.4,32.2,98
	c30.4,21.6,36.1,37.8,22.1,62c-8.6,14.9-20.4,22.4-38,17.1c-3.7-1.1-7.3-2.3-10.9-3.5c-50.2-15.8-84.9-1.9-103.6,41.3
	c-19.4,44.9-5.7,84.9,38.6,110.2c12.1,6.9,25.7,11.1,38.2,17.3c16.5,8.2,24.7,21.3,21.3,40.4c-3.3,18.9-15.9,31.5-36,33.7
	c-8.7,0.9-17.9,0.3-26.5-1.4c-63.8-13.1-116.7-67.6-128.6-131.8c-12.2-66.6,20.1-141.1,76.3-175.3
	C681.4,1930.9,691.5,1925.6,705.3,1917.9z"/>
<path d="M3319.8,2863.3c28.4,53.2,29.4,100.8,17.7,149.3c-18.9,78-100.4,133.3-179.9,122.4c-32-4.4-49.7-29-42.9-59.6
	c4.6-20.9,15.4-30,37.3-30.8c8.9-0.3,17.9,1.3,26.7,0.9c42.7-1.7,71.4-27.7,77.7-70c6.4-42.9-15.7-78.4-57.1-91.6
	c-35.2-11.2-45.6-27.6-36.9-57.5c5.7-19.4,17.6-30.9,38.6-30.4c12.7,0.3,25.9-0.1,38,3.1c36.8,9.7,80.8-34.3,73.9-76.3
	c-5.8-35.3-23.8-60.7-53.7-79.4c-32.6-20.4-39-35.1-27.8-57.3c11-21.7,38-30.1,67.1-16.3c17.9,8.6,34.2,22.1,48.5,36.2
	c52.3,51.5,74.5,161.4,1.4,235.2C3340.4,2849.6,3330.2,2855.4,3319.8,2863.3z"/>
<path d="M1428.5,1693.7c-5.6,47.5,5.2,72.8,47.3,89.2c38.1,14.9,83.6-2.3,106.5-38.6c8.1-12.8,12.5-27.8,19.7-41.2
	c18.2-34.1,53.6-36.2,76.2-4.8c5.9,8.3,10.4,17.5,16.2,25.9c24.3,35.7,62,43.5,99.6,20.9c26.6-16,36.8-16.4,50.7-2.2
	c17.5,17.9,18.5,40.3,3.1,62.5c-15,21.5-38,29.5-61.6,34.9c-38.9,8.9-76.7,3.8-110.2-17.9c-22.1-14.3-36.9-11.5-56.4,6.2
	c-54.3,49.1-117.5,57.9-184.6,30.2c-64.2-26.5-102.6-101.9-86.9-169.7c3.3-14.1,12.2-27.9,21.7-39.3c10.5-12.6,25.7-15.2,41.8-8.4
	c15.8,6.6,18.6,19.6,18.3,34.3C1429.5,1683.2,1428.7,1690.8,1428.5,1693.7z"/>
<path d="M3409,2086.7c0.2,89.3-55.9,161.1-132.1,174.1c-35,5.9-53.5-3.3-60.5-30.3c-5.7-21.9,0.9-37.5,21.2-47.5
	c9.1-4.5,19-7.3,28.7-10.2c33.5-9.7,51.4-33.8,55.1-66.3c4.1-36-6.5-69-37.6-90.7c-10.7-7.4-25.8-10.7-39.2-11.6
	c-32.9-2.4-48.9-14.4-48.2-40c0.6-24.3,20.1-40,50.6-40.8c72.7-1.8,141.7,53.4,157.1,126.5C3407,2063.5,3407.8,2077.6,3409,2086.7z"
	/>
<path d="M1202.2,3309c-99.9-4.7-177.2-92.3-164.7-189.6c2.7-21.1,9.8-39.5,28.5-51.6c15.9-10.3,31.8-7.3,47,1.2
	c15.6,8.7,17.4,22.6,15.5,39.5c-2.1,18.5-5.5,39,0.1,55.9c18.1,54.2,81.5,72.4,128.5,39.2c8.3-5.9,15.2-13.6,23-20
	c17.1-14,36.4-14.7,51.8-2c14.5,11.8,21.6,31.8,9.6,47.8c-15.5,20.9-34.3,42.1-56.5,54.4C1260.2,3297.2,1230,3300.9,1202.2,3309z"/>
<path d="M2934.7,1731.1c-73.4,2.3-141.4-50.2-153.4-118.2c-4.6-26.1,1.7-40.4,22.5-51.2c24.4-12.6,39.4-7.7,52.5,17.5
	c2.9,5.6,5.1,11.6,7.8,17.4c14.2,31.2,39.1,45.9,72.7,46.5c35,0.6,61.8-13.5,77.1-46c4.4-9.2,7.2-19,11.2-28.5
	c7-16.8,18.1-27.6,38-25.1c20.8,2.7,35.1,16.2,37.8,36.9c3.2,24-4.7,45.3-16.9,65.3C3050.7,1700.2,3000.1,1729,2934.7,1731.1z"/>
<path d="M656.3,2497.5c36.4-0.6,51.9,9.9,57.8,31.2c6.1,21.9-0.4,35.4-25.6,47.6c-33.6,16.2-57.5,39.2-54.2,79.1
	c3.6,42.9,19.4,79.2,64.6,94.3c18.8,6.3,36.7,13.1,36.4,37.5c-0.3,24.6-17.6,41-45.1,41.7c-30.9,0.8-56.7-12.6-79.7-31.8
	c-80.7-67.3-81.2-206.5-0.1-273.3C626.4,2510.6,646.9,2502.8,656.3,2497.5z"/>
<path d="M670,1456.7c9,2.1,19.7,1.6,25.6,6.7c10.9,9.3,23.8,20.7,27,33.4c4.2,16.9-7.7,31.4-24,39.2c-10.3,4.9-21.7,7.2-32.1,11.8
	c-40.1,17.6-48.3,67.2-16,96.6c6.6,6,13.8,11.2,21,16.4c26.5,18.9,17.3,48.3-5.2,62.8c-26.2,16.9-64.5,9-88.8-19.7
	c-23.8-28.2-35.4-61.6-35.9-98.3c-0.9-60.2,42.1-121,98.9-141C650,1461.2,660,1459.3,670,1456.7z"/>
<path d="M2911.8,2609.5c-2.5,6.6-4.6,17-9.9,25.3c-23.2,36.5-46.5,73-71.3,108.4c-16.6,23.7-31.5,27.9-47.5,17.5
	c-19.9-12.9-26.3-33.9-12.8-56.2c24.4-40.2,50.8-79.2,77.3-118c8.1-11.9,20-19.7,36.2-13.3
	C2899.2,2579.2,2909.9,2588.7,2911.8,2609.5z"/>
<path d="M1230.8,2581.1c26.1,3.1,40.3,20.9,28.1,42.4c-26.7,47.3-57.5,92.3-87.8,137.5c-7.7,11.4-21.1,14-34,6.4
	c-13.9-8.3-23.2-20-21.3-37.2c0.7-6.1,2.8-12.6,6-17.8c22.5-36.8,45-73.5,68.5-109.6C1199.7,2588.5,1212.5,2577.8,1230.8,2581.1z"/>
<path d="M993.3,2715.7c2.4-6.4,4.2-15.5,8.8-22.8c21-33.4,42-67,64.7-99.3c13.5-19.2,29.1-22.3,46.3-13.6
	c18.5,9.4,27,25.6,16.6,44.4c-23.3,42.3-49.3,83.3-75.3,124.1c-8.5,13.4-23.8,15.6-37.8,9.9C999.3,2751.4,993.7,2735.8,993.3,2715.7
	z"/>
<path d="M3031.1,2626.3c-2,4.6-4.9,14.5-10.2,23c-19.4,31.4-38.8,62.8-59.5,93.3c-17.2,25.2-32.3,30.4-50.2,20.1
	c-21.5-12.3-28-34.2-12.7-59.3c23.2-37.9,49-74.2,74.9-110.4c8.7-12.2,22.3-17.2,37.2-9.1
	C3025.1,2591.8,3033.7,2603.5,3031.1,2626.3z"/>
<path d="M2682.1,2752.2c-23.4,1.3-42.3-20.1-39.2-40.5c1.1-7.4,3.3-15.3,7.3-21.5c21.8-34.3,43.3-68.8,66.9-101.8
	c13.5-18.9,25.5-20.2,42.5-10.5c18,10.2,27.3,27,17.2,44.8c-23.1,40.6-49.5,79.4-75.7,118.2
	C2696.9,2747.3,2686.6,2749.7,2682.1,2752.2z"/>
<path d="M1286.6,2770.1c-24.8,0.5-41.9-17-40.7-37.4c0.5-8.6,3.4-17.8,7.8-25.1c17.4-29.6,35-59.1,54.3-87.5
	c15.4-22.6,34.8-28.1,51.7-17.9c18.4,11.1,22.9,33.1,8.5,57.3c-19.5,32.8-40.7,64.6-62.4,95.9
	C1300.5,2762.9,1290.5,2767.2,1286.6,2770.1z"/>
</svg>
