<?xml version="1.0" encoding="utf-8"?>
<!-- Generator: Adobe Illustrator 24.3.0, SVG Export Plug-In . SVG Version: 6.00 Build 0)  -->
<svg version="1.1" id="Layer_1" xmlns="http://www.w3.org/2000/svg" xmlns:xlink="http://www.w3.org/1999/xlink" x="0px" y="0px"
	 viewBox="0 0 4000 4000" style="enable-background:new 0 0 4000 4000;" xml:space="preserve">
<path d="M295.8,2719.1c0-175.5,0.9-350.9-0.8-526.4c-0.3-34.3,9.7-59.9,34.4-82.1c73.8-66.4,146.9-133.5,220.7-199.9
	c219.7-197.6,439.6-394.8,659.3-592.4c135.6-121.9,270.9-244.2,406.7-365.8c13.5-12.1,17.4-24.9,17.1-42.4
	c-1.1-72.7,0.5-145.5,14.8-217.2c10-50.1,27.1-97.5,55.2-140.8c70.6-108.7,247.2-128,329.6-35c42,47.4,87.8,57,145,31.1
	c60.8-27.6,125.2-37.9,192.3-34.9c80,3.6,141.6,36.9,182.8,106.3c2.9,5,5.6,10.1,8.5,15.1c10.8,19,24.7,25.1,48.4,22.4
	c42.1-4.8,85.2-6.8,127.4-3.6c58.5,4.5,108.6,31.1,133.2,86c22.7,50.8,54.2,65.1,108.2,56c40-6.8,83.2-3.8,123.7,2.9
	c84.9,13.9,147.8,61.4,187.2,138.6c9.4,18.5,18.2,37.4,26.3,56.5c7,16.3,17.9,24.6,35.9,28c56.8,10.8,112.2,26,163.1,55.1
	c59.6,34.1,101.8,81.2,122.3,148.1c19.2,62.4,27,126.5,31.1,190.9c13.1,206.5,8.4,413-3.4,619.4c-6.3,110.6-11.6,221.3-22.9,331.5
	c-9.4,91.7-26.6,182.5-40.8,273.7c-1.8,11.3-6,22.3-9.2,33.3c-19.3,66.9-61.1,113.2-127.4,135.2c-111.6,37-222.6,76.2-335.5,108.7
	c-240.5,69.3-484,127-729.8,174.7c-240,46.6-479.6,94.7-720.3,137.2c-240.7,42.5-482.1,80.8-723.8,116.9
	c-136.8,20.4-274.6,34.5-412.4,47.8c-48.9,4.7-99.5,3.5-148.1-3.3c-63.7-8.9-91.8-42.9-97.7-107.2c-3.5-37.9-4.3-76.1-4.5-114.1
	c-0.5-150.1-0.2-300.1-0.2-450.2C293.4,2719.1,294.6,2719.1,295.8,2719.1z M351.7,3118.8c17.6,0,31.4,1.2,44.9-0.2
	c137.7-13.8,275.8-24.8,413-42.8c188.6-24.8,377-52.2,564.6-83.7c204.6-34.3,408.9-71.4,612.2-112.9
	c227-46.4,452.8-98.5,678.9-149.2c169.9-38.1,339.1-79.3,503.8-136.5c35.8-12.4,70.6-28,105.2-43.7c32-14.6,47.9-42.3,54.2-75.7
	c3.8-20.4,7.4-41,9-61.6c10.2-128.8,20.1-257.6,29.6-386.5c3.4-46,5.8-92.1,7.9-138.2c3.5-78.4,9.2-156.8,8.4-235.1
	c-0.4-38.5-9.9-77.8-21.2-115c-14.4-46.9-50.4-64.5-97.8-51.8c-22.1,5.9-43.8,14.7-64.4,25c-139.1,69.5-285.4,116.7-437.5,149.1
	c-248.1,52.8-495.4,109.1-743.1,163.9c-300.5,66.6-600.8,134.5-901.7,199.3c-247.9,53.4-496.7,103.1-745,154.6
	c-6.5,1.4-12.7,4.5-21,7.5C351.7,2495.9,351.7,2805.9,351.7,3118.8z M3021.1,1523.8c-55.1-61.9-106.4-119.5-157.7-177.1
	c-6.1-6.9-12-14-18.4-20.7c-92.4-97.3-203.6-149-339.8-140.9c-35.7,2.1-71.5,2.9-107.3,2.8c-68.1-0.2-129.2-21.8-182.8-63.8
	c-15.4-12.1-30.6-24.6-45.3-37.5c-53.9-47.5-115.3-79.2-185.9-95c-95.7-21.4-192.6-19.6-289.5-18.2c-12.4,0.2-26.5,8-36.5,16.3
	c-31.1,25.8-60.6,53.3-90.6,80.5c-203.5,184.6-406.2,370-610.5,553.7c-175.1,157.4-352,312.9-528,469.3c-5.4,4.8-9.7,11-18.8,21.6
	c56.1-11.8,105.6-22.1,155-32.8c244.6-52.6,489.4-104.7,733.8-158.1c134-29.3,267.4-61.9,401.4-91.2
	c227.5-49.7,455.5-97.5,683.1-146.9c119.4-25.9,238.7-52.7,357.6-80.9c75.1-17.8,149.6-38.2,224-58.6
	C2984.5,1541,3002.8,1531.3,3021.1,1523.8z M3148.7,1464.3c1.3,2.2,2.6,4.3,3.8,6.5c18.3-8.9,36.2-18.6,55-26.4
	c104.6-43.5,176.7-10.4,210.7,90.4c16,47.6,21.9,97,20.3,146.8c-2.9,88.8-6.8,177.6-12.3,266.3c-8.8,141.7-18.4,283.3-29.2,424.8
	c-3.1,40.1-9.3,80.3-17.9,119.6c-12.4,56.3-45.1,98-99.9,119.9c-38.6,15.4-76.9,31.6-116.2,44.7c-175.3,58.5-355.3,99.2-534.9,141.2
	c-297.6,69.5-595.8,135.8-896.8,189c-213.4,37.7-427.4,72.3-641.5,105.7c-235.9,36.9-471.9,72.9-710.9,84.2
	c-8.8,0.4-17.4,3.5-25.4,5.2c-1.5,5.6-3.1,8.9-3.1,12.2c-0.1,16.2,0,32.3,0.5,48.5c2.5,78.3,21.3,97.6,100.6,97.3
	c44.9-0.2,90.2-2,134.7-7.5c164.8-20.1,329.8-39.4,494.1-63.8c190.4-28.3,380.5-59.8,570-93.4c230.5-40.9,460.7-83.2,690.2-129
	c162.8-32.5,324.5-70.5,486.1-108.5c197.6-46.5,391.9-104.8,584.6-168.8c82.6-27.5,127.5-78.4,142.6-163.6
	c24-135.5,38.3-271.9,47.2-408.9c9.4-146.2,15.1-292.8,18.1-439.3c2.2-104.9,0.1-210.1-5.3-314.9c-3.3-63-14.7-125.9-26.3-188.1
	c-7.2-38.5-23.9-49.1-61.9-53.8c-71.9-9-134.1,15.1-190.9,56.5C3257.7,1312.7,3200.8,1386.4,3148.7,1464.3z M3506.2,1138.1
	c-9.4-6.6-15.2-11.4-21.6-15.1c-43.6-25.3-92.2-36.3-140.8-45.9c-41.1-8.2-66.6-30.3-82.7-69.5c-12.5-30.4-29.6-60.8-51.4-85.2
	c-52.1-58.2-121-76.8-197.4-72c-33.4,2.1-66.8,4.6-100.2,5.4c-30.6,0.7-52.5-15.1-66.6-41.6c-7.6-14.2-14.4-28.9-21-43.6
	c-10.5-23.4-28.5-38.4-51.6-48.6c-29.1-12.8-58.8-19.6-90.9-15.7c-27.5,3.3-55.1,5.9-82.8,7.2c-35,1.7-63.1-11.2-80.9-42.8
	c-4-7-8.3-13.9-12-21c-22.1-42.1-58.1-62.9-103.8-72.6c-53.8-11.4-105.5-3.6-157,11.1c-28.8,8.2-57.3,17.8-85.9,26.8
	c-54.9,17.2-102.3,4.4-143.1-35.2c-9.1-8.8-18-17.9-27.6-26.2c-57.1-49.3-128.7-53.4-191.5-11.1c-46.6,31.4-71,78-86.5,129.8
	c-16,53.4-21.1,108.6-21.6,164.2c-0.2,25,0,50,0,77.4c15.3,0.9,26.6,2,37.8,2.2c45,0.7,90.1-0.5,135,1.9
	c88.2,4.8,175.2,18.4,252.4,64.1c42.4,25.1,81.8,55.9,119.9,87.5c57.2,47.4,121.4,68.7,195.3,63.9c34.5-2.2,69.2-2.2,103.8-3
	c115-2.4,215.9,36.3,301,111.5c46.4,41,85.4,90.4,128.4,135.3c27.9,29.1,56.4,57.6,85.8,85.1c16.3,15.2,21.2,13.8,35.7-5
	c12.7-16.4,23.6-34.3,36.7-50.3c40.1-49.1,77.7-100.8,122-145.8c67.1-68.1,146.6-115.6,246.5-117.8
	C3493.8,1143.2,3497.9,1140.8,3506.2,1138.1z"/>
</svg>
