<?xml version="1.0" encoding="utf-8"?>
<!-- Generator: Adobe Illustrator 24.3.0, SVG Export Plug-In . SVG Version: 6.00 Build 0)  -->
<svg version="1.1" id="Layer_1" xmlns="http://www.w3.org/2000/svg" xmlns:xlink="http://www.w3.org/1999/xlink" x="0px" y="0px"
	 viewBox="0 0 4000 4000" style="enable-background:new 0 0 4000 4000;" xml:space="preserve">
<path d="M1993.8,3481.5c-311-7.9-614.4-56.8-904.3-173.6c-262.2-105.6-496.7-252.9-683.1-469.1c-55.1-63.9-103.5-133.1-142.7-208.1
	c-10.8-20.7-22.9-35.4-49-38c-35.1-3.6-62.2-23.6-84-51.2c-38.1-48.2-57-104.3-68.3-163.5c-21.3-111.7-20.8-224.6-16.7-337.5
	c11.8-332.7,105.2-638.3,306.4-906.8c116.2-155,257.5-284.4,417.7-392.9c241.7-163.7,507.6-268.7,793-326.9
	c214.9-43.8,431.4-58.3,650.1-41.4c370.4,28.6,713.9,140.6,1028,337.8c378.5,237.8,597,582.9,664.5,1023.1
	c24.9,162.4,29,327.3-11.9,487.5c-113.9,445.5-363.2,790-772.9,1010c-230,123.5-475.7,197.2-734.7,228.5
	C2255.6,3475.2,2125,3484.2,1993.8,3481.5z M108.1,2118.4c0,38.9-0.2,77.8,0.1,116.7c0.1,13,0,26.2,2.4,38.8
	c9.8,50.8,17.1,102.5,32.1,151.8c8.7,28.6,26.5,56.9,46.9,79.1c36,39.1,82.1,37.7,120.2,1c13.9-13.4,25.7-29.2,37.6-44.5
	c11.2-14.3,21.5-29.2,32-44.1c64.9-91.5,184.5-81.7,250.9-24.6c47.7,41,73.7,93.9,85.3,153.4c9.1,46.9,10.6,95.2,17.2,142.7
	c5.5,39.7,11,79.7,21.3,118.3c10.2,38.5,35.9,66.5,77,74.2c40.7,7.6,69.7-14.9,93.7-44c10.6-12.8,18.9-28,26.2-43
	c9-18.6,15.6-38.4,23.9-57.4c12-27.2,22.8-55.3,37.5-81c21.8-38,56.4-57.1,100.5-53.9c42.4,3,73.1,25.7,89.8,64.6
	c10.7,24.9,18,51.3,27.2,76.9c6.6,18.3,12,37.2,21,54.3c21.3,40.2,57.8,48.8,94,21.3c15.1-11.5,27.5-27.3,39-42.8
	c18.5-25,33.7-52.5,52.8-76.9c47.6-61,120.9-73.6,187.5-34.1c28.6,17,51.6,39.4,66.9,68.8c13.8,26.4,24.8,54.3,38.8,80.5
	c18.3,34.1,34.4,70.6,58.8,100c35.1,42.3,83,54.8,137.2,37.9c44.9-13.9,74.7-45.2,99.8-82.5c21-31.2,39.4-64.5,63.4-93.2
	c75.2-89.9,174.2-112.4,284.6-90.4c74.1,14.8,127.2,60.8,163.9,126.7c17,30.5,34.8,61.1,56.3,88.4c68,86.2,183,75,232.9-23.1
	c15.1-29.6,23.2-63,31.9-95.4c11.7-43.8,17.6-89.3,31.6-132.2c26.5-81.2,85.2-129,168.7-143c80-13.4,145.1,14.3,193.5,80.4
	c16.8,23,33.4,46.5,53,67c40.8,42.7,98,31.9,116.7-24.2c10.8-32.5,13.5-68.3,15.9-102.9c2.2-30.9-4-62.5-1-93.2
	c3.5-35.7,8.1-72.8,21-105.8c28.2-72.3,124.5-114.5,199.7-52.1c11,9.1,23.1,17.1,32.8,27.4c41.2,43.5,100,30.4,122.1-30.7
	c4.8-13.4,10.3-26.8,12.9-40.7c10.2-56,24-111.9,28-168.4c9.3-131.1,3.4-261.8-21.9-391.3c-40.4-206.8-119.5-396.6-246.1-565.8
	C3466.5,948,3316.2,823.5,3145,724.8c-258-148.7-535.6-242.2-831.3-279.1c-275.6-34.4-548.8-17.5-818.9,46.8
	C1189.9,565.1,912.9,695,669.6,894.1c-199.5,163.2-352.7,361-450.5,600.6C137.4,1694.6,107.6,1904,108.1,2118.4z M3766.5,2397.8
	c-58.7,9.1-91.4-21.6-125.1-50.3c-5.9-5-11.9-10.1-18.1-14.7c-40.6-30-85.5-19.1-104,28.6c-9.6,24.8-13.9,52.6-15.4,79.3
	c-2.4,41.4-0.2,83-0.4,124.5c-0.2,42.3-10.6,82.1-31.5,119c-16.9,29.8-41.8,48.5-74.7,58c-55.9,16.1-103,0.7-140.9-41.2
	c-21.7-23.9-39.9-51-59.3-76.9c-34-45.4-79.6-60.3-133.9-49.6c-53.9,10.6-92.5,42.4-110,94c-14,41.5-22.2,85.2-31.3,128.2
	c-10.9,51.2-26.1,100.5-57.1,143.5c-38.2,53-90.1,80.5-155.4,82.5c-80.2,2.4-138.9-36.6-183.5-99c-21-29.4-37.9-61.9-55.4-93.7
	c-22.1-40.1-55.7-65.1-99.1-75.7c-77.8-19-185.7-5.6-244.8,84.8c-16.3,25-31.9,50.5-49.7,74.4c-14.6,19.7-30.4,39-48.2,55.7
	c-81.3,76.4-233.3,79.2-307.3-31.5c-15.7-23.6-27.9-49.6-41.1-74.8c-14.3-27.6-25.3-57.3-42.6-82.9c-14.1-20.9-33-40.5-53.9-54.4
	c-35.3-23.3-69.8-15.2-96.1,18.1c-11.2,14.2-19.3,30.7-29.9,45.4c-18.1,25.2-34.1,52.8-56,74.3c-65.6,64.2-167.4,46.6-209.1-34.7
	c-10-19.5-17.1-40.6-24.6-61.3c-7.5-20.7-13.2-42.1-20.8-62.7c-5.9-15.9-12.9-31.9-34-32.6c-20.2-0.6-35.6,8.9-45.2,25.4
	c-9.1,15.6-14.9,33-22.8,49.4c-18.1,37.3-34.2,75.8-55.3,111.3c-37.7,63.4-95.2,97-169.1,87.5c-76.6-9.8-116.1-64.5-133.9-134.5
	c-10.1-39.9-12.5-81.8-18.4-122.8c-7.4-51.2-12.1-103.1-22.9-153.6c-8.6-39.9-30.6-74.2-65.1-98.6c-46.7-33.1-97.1-29.5-137.4,10.8
	c-11,10.9-19.9,23.9-29.6,36c-29.9,37-59.8,74.1-92.4,114.6c0,0,2.1,6,5.2,11.5c78.3,138.4,182.4,255.2,303.7,356.5
	c145.6,121.7,309.3,213.3,484.9,283.9c153.3,61.6,311.5,106.2,474.7,132.6c127,20.5,254.8,31.2,383.5,33.9
	c243.8,5.1,484.7-16.3,720.1-83.2c224.2-63.7,432.9-159.3,617.2-304.2c196.8-154.7,346.6-345.3,439.4-579
	C3755.1,2435.6,3759,2421,3766.5,2397.8z"/>
<path d="M1955,2080c-143.6-3.7-284.2-23.7-415.5-85.5c-43-20.2-85.8-44.6-122.1-74.9c-125.2-104.3-162.1-274.2-34.3-427.2
	c48.3-57.8,108.8-100,178.8-127.2c242.5-94.5,485.8-93.4,728.4-0.7c69.4,26.5,132.3,65.2,185.1,119
	c141.7,144.4,100.5,341.6-24,447.2c-71.8,61-155.9,97-246.1,119.4C2123.2,2070.3,2039.8,2081.6,1955,2080z M1938,1611.3
	c-10.4,0-20.8-0.3-31.1,0c-126.3,3.5-247,28.3-357.4,92.9c-41.9,24.5-79.2,54.4-106.1,95.3c-20.6,31.4-19.1,41.3,9.1,66.1
	c44.3,39,95.1,67.4,150,88.5c85.2,32.9,173.5,51.3,264.6,58.7c120.3,9.8,238.3-1,354-34.5c73.1-21.1,139.6-55.6,196.2-107.4
	c39.5-36.2,42.3-55.4,4.5-94.1c-26.8-27.4-58.1-52.2-91.4-71.3C2209.2,1636.1,2076.3,1611.3,1938,1611.3z M2490.1,1740.7
	c15.1-41.2,4.8-112.4-21.3-157.6c-41.6-71.9-106.4-116.8-180.2-148.2c-207.2-88.1-419.5-98.5-634.8-33.1
	c-76.3,23.2-146.6,59.1-204.9,115.5c-40.6,39.2-66.1,86.3-74.9,141.9c-5.2,33-4.5,65.9,13.2,98.6c7.1-6.1,12.6-9.7,16.7-14.5
	c71.1-84.9,165.1-131.7,268.9-162.5c134.2-39.8,270.8-45,408.4-26.2c108.8,14.9,213.3,45.2,306.3,105.8
	C2422.9,1683.4,2454.4,1712.5,2490.1,1740.7z"/>
<path d="M2552.7,2146.6c79.1-0.7,130.4,62.2,131.9,134.8c1.5,74.4-61.9,134.4-138.1,133.4c-69.8-0.9-124.4-59.7-123.9-133.2
	C2423.2,2203.1,2478,2146.2,2552.7,2146.6z"/>
<path d="M1636.3,2280.2c-0.2,75.5-54.3,130-129.5,130.3c-71.5,0.2-126.6-55.5-127.1-128.6c-0.5-76.9,56.3-138.3,127.7-138.1
	C1581.1,2144.1,1636.5,2202.6,1636.3,2280.2z"/>
<path d="M1018.8,2469.2c-58.2-4.7-109.1-3.6-155.8-28.1c-32.1-16.9-47.7-42.2-46.2-78.5c1.7-41.4,23.2-71.1,62.9-84.1
	c11-3.6,22.6-5.8,34.1-7.3c63.8-8.4,127-3.6,188.8,12.9c44.5,11.9,65.7,39.4,68.1,79.5c3.1,52.7-19.5,84.5-71.1,95.3
	C1070.7,2464.9,1040.7,2466.5,1018.8,2469.2z M984.1,2334.7c-23.5,1.8-49.5,2-74.7,6.6c-9,1.6-22.1,13.7-22.3,21.3
	c-0.3,8.3,11.8,17.4,19.3,25.4c2.3,2.4,7.1,3.2,10.9,3.4c51.4,2.4,102.9,4.8,154.3,6.3c7.2,0.2,15.2-3.8,21.6-7.7
	c14.2-8.7,15.7-25.3,2.2-35.1c-9-6.5-20.7-11-31.8-12.6C1038.1,2338.6,1012.2,2337.3,984.1,2334.7z"/>
<path d="M2211.4,784.8c-51.3-0.2-87.4-41.2-81.9-90.2c3.2-28,13.7-54.3,35.4-71.4c48.5-38.3,97.9-76.1,149.8-109.5
	c36.3-23.3,77.5-14.2,106.2,14.9c28,28.4,34.1,65.5,9.9,103.3c-46.7,72.8-110.3,125.7-195.4,149.4
	C2226.8,783.7,2217.5,784,2211.4,784.8z M2349.9,573c-5.8,2.5-16.4,4.9-24.5,10.8c-35.5,25.8-70.7,52.2-105.2,79.3
	c-7.8,6.1-14.1,15.6-18,24.8c-2.6,6.1-2.6,17.4,1.3,21.3c5.3,5.3,15.4,8,23.4,7.8c7.1-0.1,15-4.4,21.1-8.8
	c36.6-26.5,73.2-53.2,109-80.8c7.8-6,14.3-15.3,18.4-24.4C2383.5,585.1,2373.4,571.8,2349.9,573z"/>
<path d="M1156.8,1676.6c-13.7-3.3-28.4-4.6-41-10.4c-58.1-26.6-111.7-60.4-155.1-108c-21.4-23.5-36.2-50-28.7-84.5
	c12.3-56.7,57.9-84.6,113.5-67c15.9,5,31.7,11.9,45.7,20.9c34.8,22.4,69,45.9,102.3,70.4c13.4,9.8,24.8,22.8,35.6,35.5
	c23.7,27.8,32.9,58.3,13.9,92.9C1224.4,1660.5,1196.3,1677.3,1156.8,1676.6z M1188.6,1593.6c-10-14.1-16.2-29-27.4-37.5
	c-37.2-28.1-75.8-54.2-114.5-80.1c-14.3-9.5-32.3-17.5-45.9-1.6c-14.8,17.3,0.6,31.6,11.7,43.7c32.8,35.9,74.1,60.4,116.9,82.2
	C1145.9,1608.7,1164.1,1609.5,1188.6,1593.6z"/>
<path d="M1397,1186.2c-56.1-1.3-88.2-20-102.4-61.2c-15-43.4-2.1-85.2,38.6-106.7c68.5-36.3,142.9-54.4,220.3-51.7
	c54.7,1.9,90.2,49,82.4,101.2c-4.4,29.3-21.2,51.7-46.8,62.9c-40,17.6-81.6,32-123.4,44.8C1443.8,1182.3,1420,1182.9,1397,1186.2z
	 M1386.8,1120.1c55.5-4.8,107.7-14.1,156.6-36.6c8.1-3.7,16.2-8.7,22.5-14.9c11.5-11.3,10.4-24.1-3.2-32.4c-7.2-4.4-17-7.4-25.3-6.8
	c-56.1,4-109.9,17.9-160.6,42.4c-11.6,5.6-24.5,12.5-21.1,28.8C1359.4,1118.5,1374.2,1120.1,1386.8,1120.1z"/>
<path d="M3059.9,859c-5.1,47.7-35.5,80.6-81,85.6c-29.6,3.2-57.6-3.4-82.2-18.3c-37.6-22.8-74.3-47.4-109.4-73.9
	c-15-11.3-26.3-28.5-36.5-44.7c-21.8-34.8-18.2-68.9,7.2-100.9c25.6-32.2,55.5-43.2,96.8-27.8c67.6,25.3,127,65.2,175.2,119
	C3044.6,814.2,3050.2,838.5,3059.9,859z M2963,881.5c6.8-3.6,18.2-6.2,22.9-13.3c3.3-5.1-2-16.3-4.4-24.5c-1-3.5-4.1-6.5-6.9-9.2
	c-37-36.6-78.9-66.3-125.6-89.2c-12.7-6.2-27.9-10.8-38.7,3.5c-9.5,12.7-1.3,24.7,6.2,35.2c5.2,7.3,10.9,15,18,20
	c31.6,22.1,63.5,43.7,95.9,64.6C2939.1,874.1,2949.6,876.3,2963,881.5z"/>
<path d="M374.6,1593.9c-50.6-2.5-89.9-45.4-80.6-94.7c4.1-21.9,14.1-45.6,28.8-61.9c41.7-46.2,90.4-84.9,146.3-113.5
	c23.8-12.2,48.2-17,74.8-8.3c42,13.8,68.8,53.5,58.5,96.4c-5.2,21.8-15.8,44.4-30.1,61.5c-38.6,46.1-87.6,80.4-142,105.7
	C413.2,1587.1,393.3,1589.2,374.6,1593.9z M384.4,1524.9c9.4-4.1,23.4-8,35.1-15.5c29.2-18.9,57.5-39.3,85.9-59.4
	c6.3-4.4,11.8-10.1,17-15.7c17.5-18.8,23.4-38.3,12.9-47.6c-15.2-13.4-31.2-7.1-46.4,1.8c-1.1,0.7-2.3,1.3-3.3,2
	c-35.4,25.9-71.1,51.2-105.8,78c-8.7,6.8-16.1,17.2-20.3,27.6C353.4,1511.2,364.5,1525.2,384.4,1524.9z"/>
<path d="M912.8,1195.7c-21.2-5.1-43.9-7-63.4-16c-42.1-19.5-84.3-39.9-123-65.2c-20.5-13.4-37.5-35.9-49.3-57.9
	c-17.4-32.5-9.3-64.9,13.4-94c22.3-28.7,52.1-33.5,83.7-25c70.9,18.9,134.4,53.3,191.6,99c8.9,7.1,16.2,16.9,22,26.8
	c18,30.4,17.5,62.1,1,92.6C973,1185.4,945.9,1195.3,912.8,1195.7z M908.4,1130.1c7-3.6,21.4-6.5,23.2-13c2.5-9-3.3-21.1-7.7-30.9
	c-2.4-5.3-8.8-9.6-14.3-12.6c-39.6-21.8-78.8-44.4-119.4-64.3c-25.4-12.4-45.6-8.5-52.8,5c-7,13.1,0.1,32.7,24.8,47.1
	c38.9,22.6,80,41.5,120.4,61.5C889.5,1126.3,897.5,1127.2,908.4,1130.1z"/>
<path d="M1146.5,942.4c-76.6-0.4-115.8-63.8-90.9-125.5c2.9-7.2,6.5-14.3,11.2-20.4c42.7-56.5,93.2-104.5,156.9-136.2
	c15.4-7.7,35.2-11.1,52.4-9.5c49.4,4.5,82.3,46.8,72.1,95.8c-5.4,25.6-16.3,53.6-33.6,72.4c-33,36-70.7,68.3-109.7,97.9
	C1185.2,931.9,1158.5,937.4,1146.5,942.4z M1142.2,874.5c3.4-0.8,9-0.9,13.4-3.2c53.9-28.1,96.7-69,130.6-118.9
	c4.2-6.2,2.6-21.4-2.4-27.3c-5.3-6.1-18.3-9-27.1-7.8c-9.5,1.3-19.4,7.7-27,14.3c-31.2,27.3-62,55.1-92,83.7
	c-8.1,7.8-14.3,18.7-18.6,29.3C1111.6,863.4,1120.9,875.5,1142.2,874.5z"/>
<path d="M3680.7,2048.4c-12-2.3-23.6-3.7-34.8-6.8c-52.7-14.8-102.1-37.5-146.4-69.3c-19.2-13.8-37.5-33-48.2-53.9
	c-30.6-59.6,18-128.9,84.6-123.5c14,1.2,29,3.1,41.4,9.1c49.8,24.5,99.4,49.5,147.6,77c14.9,8.5,27.4,23.9,37,38.8
	c32.2,50,10,105.5-47.4,121.7C3703.5,2044.7,3691.9,2046.2,3680.7,2048.4z M3705.9,1972.4c4.6-28.8-14.3-40.7-32.1-50
	c-36.6-19.1-74.2-36.4-112.2-52.5c-29.1-12.4-48.7-10.9-52.6,2.3c-7,23.4,11.1,37.4,26.5,46.7c35.2,21.3,72,40.6,109.7,57.1
	C3663.3,1983.9,3685.2,1987.5,3705.9,1972.4z"/>
<path d="M2711.9,1441.7c51.8,10.5,104.6,17.7,155.1,32.4c47.1,13.7,64.6,45,63.2,90.7c-1,30.5-15.3,52.3-42.6,63.9
	c-17.6,7.4-36.8,13.4-55.8,15.1c-57.3,5-114-1.1-169.4-16.4c-15.9-4.4-31.8-11.9-45.3-21.4c-30.2-21.3-44.8-60.7-35.3-92.3
	c11.1-37,36.7-59,74.7-64.9c17.8-2.7,36.2-1.9,54.3-2.7C2711.1,1444.6,2711.5,1443.1,2711.9,1441.7z M2722.9,1509.7
	c-23.3,1.4-39.2,0.1-53.8,4c-8.1,2.1-17.1,11.8-19.6,19.9c-1.7,5.8,5.9,15.5,11.2,21.8c3.9,4.6,10.5,7.8,16.5,9.4
	c51.4,14.1,103.9,17.7,156.9,12.9c12.7-1.1,29.1-6.4,26.7-21.8c-1.6-9.9-14.8-18.6-24.2-26.2c-4.5-3.6-12.1-3.8-18.5-4.8
	C2784,1519.4,2749.8,1513.9,2722.9,1509.7z"/>
<path d="M1817.1,750.4c-68.6-4.3-125-17.9-178.2-42.7c-30.1-14-55.1-34.4-58.3-71.5c-5.3-59.8,31.1-103.9,93.4-103.3
	c74.9,0.7,145.1,23.6,209.3,62.5c9.6,5.8,17.7,15.4,24.3,24.7c33.1,46.7,17.9,100.2-35.6,120.1
	C1851.9,747.6,1829.3,748.3,1817.1,750.4z M1814.4,690.6c0.4-1.5,0.8-3,1.2-4.5c6.4-0.3,13.9,1.3,19.1-1.5
	c8.4-4.4,20.3-10.8,21.6-18.1c1.4-7.4-7.7-17.2-13.1-25.3c-1.9-2.8-6.4-4.5-10-5.5c-47.1-12.6-94.2-25.4-141.6-37.1
	c-8.3-2.1-18.6-1.3-26.6,1.8c-7.5,2.9-17.9,10.1-18.5,16.2c-0.8,8.5,4.8,18.9,10.5,26.3c4.3,5.5,12.8,8.9,20.1,10.9
	C1722.7,666.4,1768.6,678.4,1814.4,690.6z"/>
<path d="M2917.7,2165.7c62.9,1.7,122.7,17.3,179.7,43.2c11.6,5.3,22.8,12.6,32.3,21.2c47.4,42.9,36.2,111.2-22.3,136.1
	c-12.9,5.5-27.3,9-41.2,9.8c-72.9,4.5-141.4-12.7-205.6-46.6c-32.3-17-49.2-44.8-49.1-82.1c0.2-46.2,25.7-75.9,71.3-81.4
	C2894.3,2164.6,2906.1,2165.7,2917.7,2165.7z M2916.2,2222.5c-17.7,5.1-37.7,2-42.1,24c-3.7,18.7,13.2,26.1,26.3,34.3
	c2.2,1.4,4.7,2.4,7.1,3c45.4,9.7,90.7,19.7,136.3,28.7c8.6,1.7,18.7,0.9,26.8-2.1c7.7-2.9,18.6-9.7,19.2-15.8
	c0.9-8.5-5.1-18.7-10.5-26.7c-3.2-4.7-10.5-7.8-16.6-9.4C3014,2246.2,2965.1,2234.4,2916.2,2222.5z"/>
<path d="M2453.5,1212c-53.5-4.7-96.7-54.2-81.2-105c28.3-92.5,91-159.6,179.3-197.6c49.1-21.1,107.2,30.3,101.7,84.1
	c-1,10.2-3.3,20.8-7.4,30.1c-30.3,67.6-74.1,124.7-135.7,166.4C2493.8,1201,2472.6,1204.8,2453.5,1212z M2585.8,1002.8
	c0.9-23.1-13.8-35.4-29.7-25.3c-52.2,32.9-92.6,77.6-119.9,133.1c-3.2,6.5,0.8,21.5,6.6,26.3c6.1,5.1,18.5,3.8,28,3.2
	c4.4-0.3,9.2-4.8,12.5-8.5c31.4-35.7,62.8-71.4,93.4-107.7C2582.2,1017.3,2583.8,1007.6,2585.8,1002.8z"/>
<path d="M2907.5,1859.3c-8.1,66.2-34,134.4-80,194.2c-24.6,32-59.9,42.2-96.7,30.1c-36.5-12-51.4-41.2-57.4-76.1
	c-1.7-10-1-20.8,0.7-30.9c10.7-63.5,34.1-122,73.4-173.2c18.4-24,41.1-43.1,73.9-44.5C2873.9,1756.6,2909.1,1794,2907.5,1859.3z
	 M2734.8,1994.9c5.8,8.6,10.4,22.2,19.8,27.8c12.8,7.6,25.5-1.6,32-13.7c25.7-47.8,47.4-97.4,55.6-151.5c1.3-8.3-4.7-24.5-9.7-25.5
	c-9.5-1.9-21.6,2.8-30.9,7.9c-6,3.3-9.9,11.7-13.3,18.5c-13,26.6-26.5,53.1-37.8,80.4C2743.7,1955.5,2740.6,1973.5,2734.8,1994.9z"
	/>
<path d="M898.3,1735.2c-5.9,14.5-11.2,37.9-23.7,56.4c-29.3,43.3-97.8,42.6-130.1-2.5c-45.2-62.9-63.8-135.9-63.3-212.5
	c0.3-46,31.4-81.3,68.6-88.2c42.3-7.8,80.8,11.6,101.8,54.2C880,1600.4,890,1663.1,898.3,1735.2z M744.9,1598.6
	c-1.3,0.5-2.6,1-3.9,1.5c11.3,40.7,22.3,81.5,34.3,122c2.5,8.3,8.2,16.3,14.2,22.7c14.7,15.7,36.2,10.3,41.2-10.5
	c2-8.5,2.3-18.2,0.5-26.8c-8.1-37.7-16.6-75.3-26.4-112.6c-2.8-10.8-8.9-21.7-16.3-30.2c-13.6-15.7-32.2-11.9-39.2,7.3
	C746.4,1580.4,746.3,1589.7,744.9,1598.6z"/>
<path d="M512.1,1893.3c-14.3,69.2-42.6,140.8-99,197.7c-28.7,28.9-72.8,33-104.1,15.1c-31.5-18-48.7-57.6-40.1-97.2
	c14.2-65.4,42.4-124.6,84.5-176.7c16.5-20.4,36-37.2,63.9-40.2C470.7,1786.1,514.2,1828.7,512.1,1893.3z M327,2024.5
	c4.5,7.4,8.2,21.2,14.8,22.8c9.4,2.3,25-0.9,31-7.7c38.2-43.4,64.3-93.7,76.2-150.5c1.7-7.9-3.9-22-10.5-25.8
	c-6.9-4.1-20.4-1.9-28.4,2.4c-8.5,4.5-15.4,13.9-20.5,22.7c-16.1,28-31.9,56.3-46,85.3C336.5,1988.5,333.1,2005.3,327,2024.5z"/>
<path d="M1193.6,1946c-2.5,8.6-5.4,26.8-12.8,42.9c-22.7,49.8-54,94-93,132.6c-17,16.8-36.5,28-61,30.9
	c-60.5,7.4-109.7-34.7-97.3-93.9c18.4-87.8,67.7-160,147.6-203.4C1131.2,1825.8,1194.6,1873.3,1193.6,1946z M1130.5,1920.9
	c-27.2-9.5-44.7-1.7-55.8,12.6c-25.9,33.4-50,68.4-73,103.9c-9.1,14.1-13.3,31.9,0.8,46.6c9.5,9.9,28,4.5,47.2-14.6
	c32.3-32.2,57.1-69.8,74.9-111.7C1129.2,1946.9,1128.6,1933.8,1130.5,1920.9z"/>
<path d="M3015.9,1196.8c19.1,7.3,40,11.6,56.8,22.3c51.4,32.9,97.2,72.8,133.5,122.4c7.5,10.3,14.1,21.9,18.5,33.8
	c22.3,60.2-23.8,118.4-87.2,110.3c-12.6-1.6-25.5-5.5-36.8-11.2c-59.8-30.5-109.6-73.2-147.5-128.6c-26.3-38.4-24.6-83.6,1.2-115.7
	C2969.7,1211,2989.3,1199.9,3015.9,1196.8z M3024.6,1264c-19.9,0.2-30.9,13.1-25.5,28.4c4.2,11.9,10.2,24.6,19.1,33
	c30.8,29.1,62.3,57.5,95.3,84.1c13.4,10.8,30.6,22.2,49.1,8.7c11.4-8.3,7-28.7-14.7-50c-33-32.4-68.2-62.7-103-93.3
	C3038.5,1269.3,3029.5,1266.6,3024.6,1264z"/>
<path d="M2088.4,1092.9c0.9,59.6-19.8,93.4-56.2,104.4c-38.5,11.6-77.9-4-103.2-43.5c-36.3-56.7-56.7-119.8-64.5-185.9
	c-7.4-62.5,40-110.4,96.5-102.6c26.2,3.6,46.4,17.7,59.9,39.3C2059.4,965.8,2081,1033.2,2088.4,1092.9z M1927.1,956.6
	c14,59.5,26.1,113.7,53.7,162.9c6.7,12,15.7,21.5,31.1,16.3c15.2-5.1,17.5-17.8,15.7-31.5c-7.4-55.7-26.3-107.8-51.8-157.5
	c-6-11.7-16.1-24.5-30.2-16.5C1936.5,935.4,1932.1,949.2,1927.1,956.6z"/>
<path d="M3106.4,1824.5c1.9-11.4,2.9-32.5,9.3-51.8c11-33.2,34.6-55,70.6-58.4c38.3-3.7,71,10,87.5,45.2
	c30.1,64.5,43.3,133.3,32.8,204.3c-5.3,36.1-22.8,66.1-62,77.2c-47,13.4-85.5-3.2-105.8-48C3115.9,1942.6,3110,1888.5,3106.4,1824.5
	z M3207,1775.8c-23.3,5.8-33.5,17-32.1,32.3c4.4,48.8,10.9,97.4,17,146c0.6,4.8,3.9,9.6,6.9,13.7c13,17.7,33.9,16,42.8-4.2
	c4-9.1,6.3-20.4,5.1-30.2c-5.3-41-11-82-19.2-122.5C3224.9,1798.4,3214,1787.4,3207,1775.8z"/>
<path d="M3439,1400.4c4.7-34.8,6.7-66,13.5-96.1c10.2-45.7,42.5-73.5,82.4-75.8c40.4-2.3,71.5,15.6,85.4,53.7
	c27.2,75,22.1,150.8-2.5,225.1c-12.7,38.3-45.9,57.9-84.1,57.4c-35.2-0.5-65.5-21.4-76.6-60.8
	C3447.3,1469.4,3444.4,1432.9,3439,1400.4z M3504.6,1408.4c1.7,20.2,2.8,39.6,5.1,58.9c1.8,15.4,8.7,27.7,26.4,28
	c19.2,0.3,28.6-11.3,29.8-29c2.6-40,4.6-80.1,5.5-120.1c0.3-11.4-2.5-23.5-6.8-34.1c-8.5-21.3-28.8-23.8-42-5.1
	c-5.7,8-8.7,18.8-10.2,28.8C3509,1360,3507.1,1384.5,3504.6,1408.4z"/>
<path d="M2031.7,2519.2c-84.6-4.6-151.4-52.7-173.8-129.3c-3.2-11-6-23.2-4.5-34.3c1.2-8.7,8-22,14.5-23.5
	c9.5-2.2,23.9,1.5,30.9,8.1c8.8,8.3,13.9,21.8,17.7,33.9c25.1,80.8,147.3,96.3,201.4,40.2c14.5-15,21.4-37.8,29.7-57.9
	c10.9-26.1,17.6-31.8,38.3-27.1c20.2,4.7,27.1,15.7,24,41.6c-7.4,60.8-41.1,103.3-96.2,126.9
	C2088,2508.8,2059.2,2512.3,2031.7,2519.2z"/>
<path d="M1307.6,2433.2c28.6,4.6,56.1,6.5,82,13.9c28.4,8.2,37.1,33.7,20.5,54.2c-5.8,7.1-17,14.2-25.5,14c-40-1-80-4.4-120-7.4
	c-5-0.4-9.9-2.9-14.7-4.9c-15.8-6.6-26.2-18.6-25-35.7c1.3-17.2,13.2-28.6,30.1-31C1272.8,2433.8,1291,2434.1,1307.6,2433.2z"/>
<path d="M2709.5,2524.5c-12.9-1-27.3-0.8-41.2-3.5c-15.6-3-24-14.7-26.6-30c-2.9-16.5,5-29.3,19.5-34.3
	c46-15.8,93.6-21.3,141.4-11.4c9.8,2,20.5,15.4,24.4,25.9c5.5,14.8-3,29.1-17.5,34.8c-16.6,6.5-34.5,10-52.1,13.3
	C2742,2522.2,2726.4,2522.8,2709.5,2524.5z"/>
</svg>
