<?xml version="1.0" encoding="utf-8"?>
<!-- Generator: Adobe Illustrator 24.3.0, SVG Export Plug-In . SVG Version: 6.00 Build 0)  -->
<svg version="1.1" id="Layer_1" xmlns="http://www.w3.org/2000/svg" xmlns:xlink="http://www.w3.org/1999/xlink" x="0px" y="0px"
	 viewBox="0 0 4000 4000" style="enable-background:new 0 0 4000 4000;" xml:space="preserve">
<path d="M379.9,2464c-93-81.7-139.2-184.2-136.5-307.6c2.7-123.7,57.8-220,159.2-293.1c-7.2-8.3-12.1-15-18.1-20.5
	c-114.1-104.6-124-278.9-39.5-390.5c20.8-27.5,17-28.4,1.4-53.8c-49.3-79.9-61.4-168-52-259.8c4.4-43.2,10.3-86.2,29.3-126.1
	c2.5-5.2,3.5-13.5,1.1-18.3c-17-34.4-2.6-63.3,15.1-91.4c34.8-55.2,84-95.1,137-132.3C594.4,687.8,726,635.2,860.2,588.2
	c51.1-17.9,103.1-33,154.9-48.7c75.6-23,150.3-50.4,227.3-66.9c103.7-22.2,209-37.4,314-52.6c65.4-9.4,131.5-13.8,197.4-19
	c17.1-1.4,27.3-9.9,38.1-21.3c26.8-28.3,53.9-56.4,82.5-82.9c13.3-12.4,29.4-22.7,45.8-30.6c45.4-21.8,91.7-23.3,138-0.9
	c49.1,23.7,86.5,61.3,120.7,102.3c13,15.6,27.5,22.4,47.4,23.2c156.2,6.5,311.6,21.3,465.5,48.1c228.4,39.7,450,102.2,660.2,201.7
	c61.8,29.3,120.9,63.2,175.2,105.4c94.3,73.3,151.7,167.9,170.1,286.2c10.8,69.6,23.1,139,34,208.7c6.3,40,6.7,80-4.4,119.4
	c-14.7,52.3-37.3,69-91.7,67.9c-12.6-0.2-25.3,0-45,0c8.7,15,12.9,25.7,19.9,34c71.2,84,82.8,179,50.3,280.8
	c-8.7,27.4-25.7,52.1-40.2,80.5c6.7,5.2,14.8,11.8,23.3,18c59.3,43.5,95.5,102.2,100.9,174.8c5.9,78.7,10.2,157.8-7,236.5
	c-17.9,81.4-50.6,154.2-110.1,213.7c-3,3-5.3,6.6-9,11.2c3,5.7,5.4,11.5,8.9,16.8c61.8,94.7,59.5,194,21,295.8
	c-3.1,8.1-9.3,15.5-10.3,23.7c-1.1,8.6-1,20.5,4,26.4c77.9,91.6,70.2,192.3,27.1,293.3c-40.6,95-114.1,162.7-201.7,214.8
	c-112.8,67.1-235.7,109.8-362.1,142.3c-136.7,35.1-275.9,56.2-415.8,73.7c-293.8,36.7-588.6,38.3-883.6,23.2
	c-204.7-10.5-408.3-33-610.7-67.1c-153.2-25.8-303.9-60.8-451.3-109.5c-117.8-38.9-232.1-86.4-331.9-161.6
	c-38.7-29.2-75.2-62.8-106.7-99.6c-129-150.5-52.4-315.1,41.3-392.2c24.9-20.5,25-19.9,16.1-50.8
	C339.3,2625.6,343.1,2546.1,379.9,2464z M2259.2,446.3c8.1,12.1,11.4,18.5,16,23.8c13.5,15.5,28,30.3,41.3,46
	c49.8,58.6,87.9,123.4,106,199c20.3,84.8,6.2,161.6-52.6,227.7c-30.9,34.8-70.4,57.6-113.2,74.4c-106,41.7-216.7,51.8-329.2,43.3
	c-71.7-5.4-141.8-19.9-206.9-52c-66.4-32.8-118.5-79.4-143.6-151.7c-21.4-61.6-14.1-122,7.1-181.5c24.7-69.4,65.3-129.4,112.5-185.3
	c7.3-8.6,13.7-17.9,25.3-33.2c-24.3,1.3-40.2,1.3-55.8,3.2c-65.6,8-131.6,14.1-196.6,25.4c-100.2,17.5-199.9,38.5-299.6,58.5
	c-8.5,1.7-16.3,7.1-25.9,11.4c17.9,19,34.5,33.3,46.9,50.6c37.8,52.5,25.7,109-30.8,140.5c-20.5,11.4-43.6,21.2-66.6,24.4
	c-58.9,8.4-118.2,15.5-177.6,17.9c-81.2,3.2-162.7,0.2-244,2.4c-38.8,1.1-78.2,4.7-116.1,13.1c-72,15.8-127.7,57.7-168.2,119
	C368,953,370,959.8,402.8,968.8c42.7,11.8,85.9,22.8,129.6,29.8c67.4,10.7,135.4,17.3,203.1,26.3c44.2,5.9,87.5,15.5,127.5,36.3
	c72,37.6,97.2,102.2,66.8,177.6c-12.1,30-28.5,58.4-44.6,86.6c-30.6,53.5-31.2,107-3.9,161.5c5.8,11.6,12.3,22.9,18.4,34.4
	c17.3,32.5,36.1,64.4,51.6,97.7c39,84.1,53.8,172,30,262.9c-12,45.9-27.8,91.1-45.5,135.2c-20.3,50.6-39.1,101.1-42.9,156
	c-3,43.1,1.2,85.1,27,121.2c38,53.1,110.3,46.6,136.9-13c9.1-20.3,14.1-43.7,15.1-65.9c1.9-40,1.5-80.4-1.7-120.3
	c-9.3-117.4-2.3-234.2,11.2-350.6c5-42.9,12.5-86.1,24.8-127.4c22.9-77.4,73.3-133.5,144.3-172.2c58.6-31.9,122-44.3,187.3-48.7
	c129.4-8.8,255.7-31.7,378.1-75.4c57.5-20.5,116.9-35.2,178.4-29.4c40.7,3.8,81.7,11.1,121.1,22.3c121.9,34.5,245.6,52.7,372.3,50.5
	c25.9-0.5,52.1,2,77.8,5.2c91.8,11.5,158,56.7,187.6,147.3c8,24.6,14,50.1,18.5,75.6c10.7,60.6,5.1,121.1-3.6,181.4
	c-6.2,43.1-0.6,84.9,17.1,124c9.6,21.3,23.3,42,39.7,58.5c23.7,23.8,61,15.9,76.7-14.1c6.4-12.3,10.4-26.2,13.7-39.7
	c9.5-39,4.2-77.8-4.4-116c-19.4-86.7-12.8-170.1,29.1-249.6c8.6-16.2,14.7-33.8,21.8-50.8c23-55,26.4-111.5,10.4-168.8
	c-7.8-28.1-18.4-55.5-27.5-83.3c-4.4-13.4-8.9-26.7-12.3-40.4c-11.4-46,3.9-83,38.7-113.3c26-22.6,57.4-34.3,89.9-43.7
	c68.1-19.6,138.3-26.7,208.6-31.2c75.9-4.9,151-13.1,224.7-32.9c51.4-13.9,90.8,1.8,121.6,45.4c9,12.8,16.5,26.8,25.8,42
	c-3.9-93.7-33.9-167.3-98.6-228.8c-33.6-31.9-70.6-61.2-109.5-86.3c-100.9-65-212-108.7-324.9-147.7
	c-232.9-80.4-473.1-125.3-718.5-143.7C2349.1,450.3,2308,448.9,2259.2,446.3z M1131.4,2133.3c0,15.3,0.3,26.8,0,38.3
	c-1.4,49.1-6.8,97.4-30.3,141.8c-26.7,50.2-79.8,77-135.8,68.4c-59.3-9.1-104.6-54.9-120-121.8c-12.4-54-9.1-107.6,5.3-160.8
	c7.1-26.3,6.2-26.5-18.8-33.7c-80.3-23.2-159.6-49.2-234.8-85.8c-42.8-20.8-83.9-45.1-125.5-68.3c-11.7-6.5-22.7-13.9-35.8-4
	c-42.6,32.2-83.6,66.2-107.8,115.4c-23.5,47.6-25.8,94.7,1.2,143c31.2,55.6,76.4,96.4,128.1,131.5c100,67.9,211.5,109.7,327.3,139.7
	c173.3,44.9,350.3,71.3,527.2,97c102.8,15,206.7,23.1,310,34.3c132.7,14.4,265.7,23.9,399.2,23.7c93.2-0.1,186.7-1.1,279.6-7.7
	c143.9-10.3,286.3-34.2,426.7-67.1c128.6-30.1,256.4-63.9,384.4-96.7c98.6-25.2,197.3-50.4,292.6-87
	c69.3-26.6,134.6-59.9,190.9-109.2c28.9-25.3,52.2-54.9,70.1-88.9c50.1-94.8,25.8-197-61.5-258.9c-24.4-17.3-26.1-16-50.5,2.2
	c-37.2,27.8-73.9,57.1-114.1,80.2c-88.7,50.9-184.3,86.1-282.4,115c-129.1,38-260,67.4-393.6,84.3
	c-118.2,14.9-236.2,33.3-354.9,42.5c-121,9.4-242.6,11.3-364.1,13.4c-194.4,3.4-388-10-581-32.5c-90.4-10.5-180.2-25.4-270.3-38.4
	C1173.8,2140.5,1154.9,2137.1,1131.4,2133.3z M3579.8,2521.7c-5.2,0.7-8.7,0.4-11.4,1.7c-6.8,3.3-13.6,6.8-19.8,11.1
	c-92.9,64.3-195.7,106.7-303.4,138.3c-199.5,58.5-403.9,89.2-610.4,108.1c-202.2,18.5-404.8,26.2-607.7,20.8
	c-136.5-3.6-273.1-10.2-409.4-18.8c-108.1-6.8-216.3-16.2-323.8-29.1c-136.6-16.4-272.2-40.4-406.5-71
	c-154.1-35.1-302.6-84.4-438.8-166.6c-4.3-2.6-9.4-3.8-19.8-7.8c1.9,14.9,1.9,25.3,4.6,35c17.3,60.7,52.7,108.7,103.6,145.4
	c50.6,36.5,106.9,62,165.4,82.4c150.5,52.7,304.2,94.5,460,128.3c150.6,32.7,303.3,52,456,71.1c17,2.1,34,3.9,52.7,6
	c2.9-10.5,5.1-18.7,7.3-26.9c12.1-45,56.4-77.9,101.8-75.4c50.2,2.7,89.7,36.9,97.5,84.6c1.7,10.3,2.7,20.8,4.3,33.9
	c182.2,12.6,361.4,14.8,544.9,3.9c-13.7-27-1.5-40,16.5-51.9c45.2-29.8,89.7-60.7,134.8-90.8c6.1-4.1,13.8-8.9,20.5-8.5
	c8.7,0.5,20.5,3.4,24.9,9.6c4.3,6.1,4,19,0.3,26.3c-4.5,9.2-13.8,16.6-22.2,23.2c-23.9,18.7-48.7,36.2-72.6,55
	c-5.7,4.5-8.9,12.2-13.3,18.5c1.3,2.4,2.6,4.8,3.9,7.2c28.8-1.5,57.9-1,86.4-5c92.3-12.9,184.4-26.7,276.4-41.5
	c144.8-23.3,286.5-58.9,423.7-111.1c85-32.4,162.3-77.2,226.4-143c28.7-29.4,48.4-63.7,58.6-103.5
	C3596.7,2560.4,3596.4,2540.6,3579.8,2521.7z M398.4,2792.5c-49,24.9-68,62.7-55.6,111.7c3.9,15.6,9.7,31.1,17,45.5
	c38.2,76.1,101.5,125.8,175.8,162.8c68.1,33.9,139.8,59.9,213.9,76.2c160.8,35.3,321.7,70.9,483.7,99.8
	c151.4,27.1,304.2,45.9,456.5,68.1c167.7,24.4,336.6,33.6,505.8,36.5c191.2,3.3,381.2-10.9,570.7-36.3
	c174.7-23.4,345.3-63.1,512.1-119.1c90.6-30.5,178.2-68.2,256.2-125c37.4-27.2,68.6-59.9,89.7-101.4c25.7-50.4,18-94.4-23.9-136.7
	c-4.9,3.8-10.6,7.1-14.7,11.8c-74.8,86-171.9,138.9-275.8,178.7c-192.3,73.8-393.9,111.2-596.8,139.7
	c-107.2,15.1-215.7,22-323.8,28.3c-281.9,16.4-563.7,10.6-844.9-15c-145.8-13.3-290.5-33.9-433.7-65.3
	c-148.6-32.6-294.5-73.1-431.8-140.3c-104.4-51-200.5-112.5-268.9-209.7C406.8,2798.6,402,2795.7,398.4,2792.5z M308.8,2245.6
	c2.8,32,12.6,55.3,25.5,77.7c36.6,63.6,89.4,111,150.1,150.6c105.9,69,224.4,107.5,345.1,139.6c151,40.1,304.7,66,459.7,86.2
	c166.8,21.7,334.5,33.3,502.2,41.8c234,11.8,468.2,12.2,702.3-4.4c211-15,420.9-36.6,627.3-85.8c140-33.4,273.5-80.9,395.2-160.6
	c100.3-65.7,155.7-157,176.9-272.2c1-5.3,0.1-11,0.1-22.8c-11.7,12.4-18.9,18.8-24.7,26.3c-47.6,61.6-109.3,105.7-179.8,135.9
	c-60.6,26-122.8,49.8-186.4,66.7c-203,54.1-406.9,104.8-610.6,156.3c-173.3,43.8-350.2,58.3-528.2,65
	c-228.3,8.6-455.2-12.7-681.6-36.2c-179.9-18.7-359.1-45.1-536.4-81.9c-123.1-25.6-245.9-52.6-362.1-102.8
	c-95.2-41.2-184.7-91-257.7-166.5C322.3,2254.8,317.7,2252.3,308.8,2245.6z M2590.9,3158.6c11.2-10.7,20.6-26.1,33.9-31.3
	c31.4-12.3,65.3-16.1,99-10.5c10.1,1.7,22.2,6.6,28.2,14.1c12,14.9,24.6,13.3,40.5,9.9c75.2-16.1,151-29.8,225.9-47
	c116.3-26.6,231.3-57.9,339.7-109.4c59-28.1,114.7-61.4,163.5-105.3c50.8-45.7,83.6-101.9,98.3-168.5c3.3-14.7,7.3-30.2,0.1-46.2
	c-4.4,2.8-6.5,3.7-7.9,5.2c-5,5.7-9.8,11.6-14.4,17.6c-46,60.5-102.7,108.2-169.7,144.2c-57.6,31-118,54.6-179.8,75
	c-168.5,55.5-341.6,89-517.3,110.6c-42.7,5.3-85.2,12.4-131.4,19.2c5.8,9,9,14.3,12.5,19.3c6.6,9.3,13.3,20.5,3.5,29
	c-7.1,6.2-19.7,9.2-29.4,8.3c-10.1-0.9-20.2-7.3-29.3-12.9c-10.1-6.3-18.2-16.1-28.6-21.3c-13.2-6.5-28-14.2-41.9-13.8
	c-55.2,1.6-110.4,6.6-165.6,9.2c-15.6,0.7-23.3,6-26.7,21.6c-7.5,34.5-25.9,62.2-57.6,78.8c-35,18.3-72.3,21.2-110.7,13.3
	c-30-6.1-54.8-20.7-72-46.1c-9.6-14.3-19.7-29.3-24.5-45.6c-6.5-22.3-19.6-27.5-40.7-27.1c-32.5,0.6-65.1-0.4-97.5-3.1
	c-18.1-1.5-31.9,2.6-43.1,16.4c-34.1,41.9-111.5,35.7-150.2-10.1c-15.3-18.1-29.9-25.8-51.9-23.8c-4.3,0.4-8.7-0.4-13-1
	c-189.3-24-378-51.4-563.8-95.8c-142.4-34-284.1-70.6-420.9-123.6c-88.1-34.1-169.4-78.3-226.1-157.7c-4.1-5.8-10.1-10.3-15.3-15.4
	c-3.4,12.1-2.4,22.4-0.1,32.3c13.6,56.3,43.5,103.6,81.6,146.2c55.9,62.5,125.2,107,199.3,143.9c146.6,73.1,302.9,117.8,462.7,149.6
	c105.2,20.9,211.7,34.9,317.7,51.2c28.5,4.4,57.5,6,87.2,9c10.7-35.2,34.5-42.5,64.7-38.4c15,2,30.2,3.3,45.4,4.2
	c20.9,1.2,34.6,10.8,40,31.6c1,4,3.6,7.6,5.1,10.7C1858.1,3200.3,2388.2,3193.1,2590.9,3158.6z M1984,1010.3
	c45.3-4,91-5.9,135.9-12.7c61.3-9.3,120.4-26.5,173.8-60.1c60-37.7,86.4-91.8,82.5-161.8c-4-70.6-30.4-132.7-72.4-188.4
	c-67.4-89.5-147.7-167.3-225.6-247.3c-6.7-6.9-14.9-12.6-23-17.9c-42.7-27.8-85.8-27.4-127.8,1c-16.1,10.9-32.1,22.7-45.6,36.5
	c-72.9,74.4-144.8,150-201,238.2c-21.3,33.4-38.8,70.5-51.1,108.2c-23.2,71.2-16,139.6,35.4,198.4c32.3,36.9,74.9,58.4,120.3,74.5
	C1849.5,1001.5,1916.3,1007.4,1984,1010.3z M3612.1,3113.9c-5.8,4.7-11.7,9.3-17.2,14.3c-56.9,51.6-122.6,88.8-193.1,118.5
	c-136.4,57.6-278.2,97.3-422.5,128.3c-216,46.4-435,66.1-655.4,71.2c-135.6,3.1-271.3,1-406.4-12.5
	c-129.4-12.9-259.1-24.5-387.8-43.2c-145.8-21.2-291-47.2-435.6-75.5c-136-26.7-271.2-58.2-406.3-89.4
	c-65.7-15.1-128.6-39.1-187.9-71.6c-76.3-41.7-144.6-92.1-186.4-171.3c-3.3-6.2-7.7-11.8-12.3-18.7c-2.9,4.4-4.6,6-4.9,7.8
	c-0.6,3.2-0.6,6.5-0.6,9.7c0.1,55.8,20.8,103.3,58.2,144.2c69.3,76,155.7,127.7,247.2,171.1c152.8,72.4,315,115.6,479.9,149.4
	c129.6,26.5,260.1,48,392,60c122,11.1,244,23.2,366.3,29.7c178.8,9.5,357.9,9.8,536.8,1.2c218-10.5,434.4-34.8,647.9-81.4
	c113.6-24.8,224.2-59.2,330.2-107.5c71.6-32.6,137.7-73.4,193.8-129.4C3577.3,3189.5,3602.8,3157.8,3612.1,3113.9z M1692.8,1803.4
	c7.5,17,12.4,26.3,15.9,36.1c13.9,38.2,6.4,73.4-19.7,103.2c-25.8,29.4-59.4,38.5-97.5,28.2c-65.7-17.7-94.4-96.1-56.8-154.3
	c3.8-5.8,6.1-12.6,9.4-19.7c-137.7-15.5-272.7-30.6-410.9-46.1c-3.7,55.3-7,106.6-10.5,159c261.2,66.7,521.9,105.7,794.3,111.8
	c-15.2-18.5-27.6-29.7-34.9-43.6c-7.8-14.8-12.9-32-14.9-48.6c-1.5-12.9,13.3-25,25.1-25.4c12.9-0.4,15.3,10.2,19,18.9
	c2.9,7,4.9,14.4,7.8,21.4c13.7,32.5,38.5,48.2,73.6,49c46.8,1,78.9-18.9,93.9-64.3c4-12.1,10.9-21.7,26.1-18.4
	c13.8,2.9,24.2,16.9,19.1,32.5c-6.3,19.1-16.9,37-27.1,54.5c-4.4,7.6-12.4,13-20.4,21.1c86.4,11.3,612.9-44.8,658.3-68.8
	c-9.4-29.9-21.8-59.1-27.1-89.6c-5.5-31.3-4.1-63.7-5.8-97.4c-87.1,9.4-171.6,18.6-258.7,28.1c8.9,18.1,16.5,31.2,21.9,45.2
	c16.6,42.7,0.3,94.9-37.3,121.7c-34.8,24.8-81.6,22.7-114.5-5.2c-37.9-32.1-47.7-78.4-26.1-123.3c4-8.4,7.9-16.8,13.9-29.6
	C2102.9,1815.8,1901.5,1812.8,1692.8,1803.4z M2442,2051.2c-20.2,1.3-38.6,1.8-56.7,3.9c-129.4,15-259.2,22.7-389.4,21.2
	c-138.8-1.7-277.5-6.3-415-27.2c-16.1-2.4-29.3-1.5-36.9,17.3c-2.6,6.5-15.4,12.7-23.4,12.6c-29.1-0.6-58.3-3.5-87.3-6.3
	c-15-1.5-22.8-11.3-24.5-26c-0.7-6.3-0.8-12.7-1.2-19.2c-94.5-20-187.8-39.8-283.4-60.1c0,37.9,0,71.2,0,105.2
	c7.3,2.2,13.2,4.7,19.4,5.8c108.7,19.7,217.5,39.1,327.8,48.1c111.2,9.1,222.1,23.8,333.5,28.6c336.6,14.7,671.7-1,1004.6-56.6
	c172.5-28.8,342-67.6,503.9-135.3c80.6-33.7,155.5-76.5,222.2-133.1c38-32.3,67-70.7,82.9-118.3c3.4-10.3,4.3-21.4,6.6-33.8
	c-7.1,1.4-9.7,1.2-11.1,2.3c-6.6,5.6-13.2,11.2-19,17.6c-50.5,55.5-112.2,95.1-179.3,127.1c-86.4,41.2-177,71-268.6,97.4
	c-54.1,15.6-109.3,26.9-164,40.2c-20,4.9-40.1,9.2-54.8,25.9c-34.6,39.4-76.2,41.3-120.9,20.5c-17.7-8.3-34.8-8.6-53.6-4.8
	c-43.5,8.7-87.4,15.7-131.1,23.7c-10.5,1.9-20.7,5-30,7.3c-8.8,37.4-10.5,39-46.8,43.3c-15.1,1.8-30.4,1.6-45.3,4
	C2473.3,2086.8,2450.5,2083.7,2442,2051.2z M2704.6,1545.4c-2.4-9.9-3-16.4-5.6-22c-23-48.6-58.2-85.6-112.6-94
	c-52.2-8.1-105.5-12.4-158.4-12.8c-111.5-1-219.9-18.8-326.2-51.4c-85.4-26.2-170.5-28.4-255.2,2.6
	c-124.9,45.8-253.9,72.2-386.4,82.1c-60.7,4.5-120.5,14.1-177,38.4c-6.1,2.6-11.3,7.5-22,14.7c12.5,1.9,18.5,2.9,24.5,3.6
	c81.7,9.8,163.4,20.4,245.2,29.1c135.7,14.3,271.3,31.7,407.5,40c231.9,14.1,463.7,5,694.8-18.6
	C2656.6,1554.8,2679.7,1549.6,2704.6,1545.4z M1145.8,1693.6c9.6,2.4,16.8,5.2,24.2,6c120.6,13.6,241,30.4,361.9,39.3
	c128.6,9.5,257.7,12.9,386.7,16.3c225.9,5.8,450.8-9,675.1-34.5c34.5-3.9,68.9-8.4,103.2-12.8c10.9-1.4,23.4-3.4,23.5-17.5
	c0.3-28.9-1-57.8-1.7-89.5c-19.3,2.1-34.2,4-49.1,5.4c-80.9,7.6-161.7,17.3-242.8,22.1c-154.9,9.3-309.8,11.4-464.9,2.5
	c-152.7-8.8-304.6-24.5-456.3-43.4c-79.6-9.9-159.1-20.3-239-28c-80.5-7.7-80.9-6.5-108.7,69.3
	C1150.5,1648.6,1140,1668.4,1145.8,1693.6z M3018.9,1493.6c13.1-2.3,21.6-3,29.5-5.3c51.8-15.4,104-29.9,155.3-47.3
	c89.5-30.3,176.6-66.9,251.8-125.4c33.1-25.7,63.7-55.5,91.3-87c33.9-38.7,41.9-87.6,37-137.5c-5.4-54.8-39.4-74.9-92.6-60.7
	c-33.3,8.9-67.3,16.9-101.5,20.6c-58.1,6.3-116.6,9-174.9,13c-55.3,3.8-109.8,12.3-161.9,31.8c-16.1,6-31.9,13.9-46.1,23.4
	c-20.7,13.8-30.3,34.2-23.4,59.1c6.3,22.9,13.5,45.6,21.9,67.9c27,71.6,37.3,144.4,18.1,219.8
	C3021.7,1473.2,3021,1480.7,3018.9,1493.6z M375.9,1022.8c-26.4,49.1-20.7,94.5-2,140.9c32.1,79.3,90.2,133.9,162.6,175.4
	c80.8,46.3,169,72.5,259.3,92.3c3.7,0.8,7.8-0.8,13.6-1.5c0-14.5-0.8-27.4,0.2-40.2c3.1-40,22-74.4,40.3-108.9
	c12.1-23,25.1-45.7,34.6-69.8c13.7-34.5,7.1-61.9-22.2-84c-17.7-13.4-38.8-25.2-60.2-30.5c-45.1-11.3-91.1-19.4-137.1-26.3
	c-65.3-9.8-131.2-16.4-196.5-26.3C437.8,1039.2,407.7,1030.2,375.9,1022.8z M2973.6,1910.5c9.5-0.9,15.1-0.5,20.1-2
	c89.4-25.8,179.4-49.7,267.8-78.5c89.8-29.3,175.5-68.5,252.1-125.2c30.8-22.8,57-49.5,76.9-82.6c21.4-35.5,20.3-68.7-2.3-103.3
	c-23.9-36.5-30.1-39.4-65.8-13.3c-78.6,57.4-165.4,98.3-256.6,131.1c-90.9,32.7-184.4,55.6-278.4,77.2c-31.3,7.2-30.3,8.7-25.7,39.2
	c5.6,37.3,8.4,75.1,11.6,112.8C2974.6,1879.6,2973.6,1893.6,2973.6,1910.5z M405.5,1472.3c-26.4,25.7-31.7,52.1-14,81.2
	c12.8,21.2,25.2,43.1,41.1,62c36.6,43.5,82,76.8,131.3,104.8c91.9,52.1,190.6,87.2,291.1,118.1c23.3,7.2,47,12.8,74.6,20.2
	c0-41.6,0.8-78.2-0.3-114.8c-1-31.9-3.5-33.4-34-41.8c-46.9-12.9-94.2-24.6-140.5-39.7c-123.3-40.3-240.6-92.2-336.6-182.9
	C415.2,1476.6,410.9,1475.3,405.5,1472.3z M350.6,1600.5c-2.6,5.3-4.8,8-5,10.8c-0.7,7.5-1.1,15.2-0.6,22.7
	c3.9,56.8,22.3,107.5,60.1,151.2c49.2,56.9,111,96.6,177,130.1c85.3,43.3,175.6,73.8,266.8,101.7c7,2.1,14.6,2.1,23.6,3.3
	c18.5-33.7,31.7-68.4,44.9-105.7c-16-4.8-28.4-8.4-40.7-12.2c-119.3-36.5-236.7-77.5-345.3-140.6c-62.5-36.3-118.9-79.4-161.2-138.9
	C364.8,1615.3,358,1608.9,350.6,1600.5z M3555.5,1310.1c-6.6,4-10.4,5.7-13.4,8.3c-86.4,72.9-185,124.3-291.1,160.8
	c-75.5,26-153.1,46.3-229.5,69.8c-11.9,3.7-27.5,7.6-33.4,16.6c-18.4,27.9-25.6,60.3-28.8,93c5.6,1.5,7.7,2.6,9.6,2.4
	c5.4-0.6,10.7-1.5,16-2.6c117.1-22.9,231.1-55.8,341.3-101.8c81.8-34.1,155.2-80.5,220-141.3c19.2-18,26-34.5,16.5-59.4
	C3557.9,1343.1,3558.2,1328.4,3555.5,1310.1z M357.7,1257.2c-1.1,9.2-2.1,12.4-1.8,15.5c0.5,5.4,1.3,10.8,2.8,16
	c15.9,58,47.6,106.5,91.1,147.4c122,114.4,272.1,169.9,431.9,204.8c4.3,0.9,9.4-1.2,14.9-2c-1.5-5.7-1.8-9-3.1-11.7
	c-19.7-38.6-40.1-76.7-59-115.7c-7.7-15.9-20-21.2-35.8-23.9c-71.9-12.3-141.3-34-208.3-62c-82.7-34.5-159.5-78.6-215.4-151.9
	C371.3,1268.8,366.1,1265.1,357.7,1257.2z M660.4,732.5c7.2,0.9,14.4,2.7,21.5,2.7c63.8,0.2,127.7,1.4,191.5-0.3
	c57.3-1.5,114.6-5,171.6-10.1c33.4-3,66.3-11.6,94.8-30.7c21.3-14.2,25-28.2,10.6-49.3c-12.7-18.7-29.6-34.4-43-52.6
	c-11.6-15.9-24.6-17.6-42.3-12c-44.3,14.1-89.1,26.6-133.5,40.3C838.6,649,748.4,685.2,660.4,732.5z M3646.7,1090
	c-4.8,60.7-10,120.9-28.8,179.2c-4.3,13.2-5.3,27.6-6.3,41.6c-1.5,20.5,5.9,38.4,19.5,53.5c15.1,16.8,31.1,15.4,41-5.3
	c6.3-13.3,10.3-28.8,11.1-43.5C3687.5,1237.7,3668.5,1163.6,3646.7,1090z M2239.2,3058.4c-32-5.4-138.9-3.1-158.2,3.3
	c6.8,34.4,42.5,58.3,84.9,56.8C2209.3,3117,2235,3095.9,2239.2,3058.4z"/>
<path d="M1641.7,2463.3c-60.7-0.3-102.4-41.7-102.4-101.8c-0.1-58.1,44.8-105.1,100.8-105.6c60.7-0.6,105.1,45.9,103.9,108.7
	C1742.9,2422.2,1700,2463.6,1641.7,2463.3z"/>
<path d="M2443.8,2254.4c57.6,0.5,100.2,47,99.8,108.9c-0.4,57-44.2,101.7-99.7,101.7c-57.2,0-102.9-48.2-102-107.4
	C2342.8,2298.3,2386.6,2254,2443.8,2254.4z"/>
<path d="M2040.6,2547.5c-61,0.2-118.2-43.6-131.3-101.5c-2.3-10.1-2.8-21.9,0.2-31.6c2-6.6,11.1-14.4,17.9-15.2
	c6.5-0.8,16.6,4.9,20.6,10.8c7.2,10.6,10.7,23.6,16.1,35.3c15.4,33.2,42.5,48.5,78.1,47.7c44.7-1,71.4-19.7,85.2-57.4
	c3-8.1,5.4-16.5,8.4-24.6c3.6-9.7,9.3-17.9,21.2-16.1c13.1,2,23,9.3,22,23.5c-1,14.9-2.4,30.6-7.8,44.3
	C2150.3,2515.7,2100.3,2547.3,2040.6,2547.5z"/>
<path d="M1997,524.4c-1.7,8.3-3.5,20-6.4,31.4c-3.4,13.1-12.1,19.9-26,19.4c-13.4-0.5-24.7-6.9-26.1-19.8c-1.9-18.9-2-38.6,1.2-57.3
	c2.5-14.9,19-23.3,32.4-20.6c14.7,2.9,21.6,13.2,23.7,27.2C1996.6,510,1996.5,515.4,1997,524.4z"/>
<path d="M2005.6,821.9c-1,12.7-1.4,19.1-2,25.6c-1.1,11.4-4.8,22.2-17.2,24.5c-13.7,2.5-26.2-2.5-32.4-15.7
	c-10-21.5-10.8-44.3-0.7-65.6c3.3-6.9,14.8-13.6,22.6-13.6c7.8,0,19,6.7,22.5,13.7C2004,801.6,2004.3,815.3,2005.6,821.9z"/>
<path d="M1808.1,749.2c-3.4,10.5-7.9,28.5-15.4,45.1c-2.9,6.4-13.5,14.1-19.2,13.2c-8-1.3-18.4-8.9-21.2-16.2
	c-8.9-23.5-4.1-47,8.5-68.4c7.1-12,19.1-13.6,31.5-9.6C1805.8,717.7,1808.9,728.9,1808.1,749.2z"/>
<path d="M1755.9,588.5c7.7-16,14.1-32.8,23.6-47.6c7.6-11.7,20.5-16.1,33.8-7.6c12.2,7.7,17.5,19.4,12.6,33.3
	c-4.6,13-10.2,26-17.2,37.9c-6.5,10.9-14.8,22.5-30.7,17.1C1763.4,616.7,1760.6,603.9,1755.9,588.5z"/>
<path d="M2111.5,691c1.7-11.4,1.8-18.1,3.8-24.2c5.5-17.3,20.6-22.6,35.9-13.2c19.9,12.4,29.9,52.3,18.4,73.2
	c-10.8,19.5-32,21.2-43.6,1.9C2118.3,716.2,2115.2,701,2111.5,691z"/>
<path d="M2195.6,538.5c-8.1,11.7-12.9,22.9-21.3,29.8c-10.8,9-23,2.4-32.6-4.9c-14.6-11-23.7-26.5-20.8-44.8
	c1.5-9.2,8.4-19.7,16.1-25.3c10-7.4,24.3-6.9,32.7,3.2C2179.6,508.5,2186.3,523.1,2195.6,538.5z"/>
<path d="M2266.6,767.7c1-8.8,0.8-15.5,2.6-21.6c4.9-16.3,29.7-23.1,42.6-12.1c13.3,11.4,18.1,59.8,7.3,73.3
	c-13.5,16.9-39.6,13.5-46.8-7C2268.6,789.3,2268.2,777.1,2266.6,767.7z"/>
</svg>
