<?xml version="1.0" encoding="utf-8"?>
<!-- Generator: Adobe Illustrator 24.3.0, SVG Export Plug-In . SVG Version: 6.00 Build 0)  -->
<svg version="1.1" id="Layer_1" xmlns="http://www.w3.org/2000/svg" xmlns:xlink="http://www.w3.org/1999/xlink" x="0px" y="0px"
	 viewBox="0 0 4000 4000" style="enable-background:new 0 0 4000 4000;" xml:space="preserve">
<path d="M2020.5,447.6c31.3-2.7,60.1-6,89.1-7.4c61.4-3.1,122.1,2,181.6,19c99.7,28.5,164.1,108.6,162.5,207.7
	c-0.5,28.6-6.4,59-17.8,85.2c-28.7,66.2-25.9,129.9-0.4,196c10.3,26.6,16.8,57.2,15.4,85.4c-3.3,66-41.7,109.7-102.4,132.6
	c-22.9,8.6-48,11.5-72.2,16.7c-7.5,1.6-15.3,2.2-29,4.1c10.4,5.3,15.2,8.3,20.4,10.2c59.7,22.3,119.8,43.8,179.1,67.2
	c19.5,7.7,38.7,18.2,55.4,30.8c54,40.8,69.1,96.2,55.1,160.8c-10.2,46.8-37.6,83.5-70.2,116.9c-4.9,5-11.1,8.8-14.9,11.8
	c1,5.5,0.8,8.1,1.8,8.7c24.7,13.5,35.1,36.6,41.1,62.3c10,43.2,20.2,86.4,4.4,130.8c-9,25.3-22.9,46.1-46.8,58.9
	c-21.8,11.7-44.2,22.4-66.3,33.5c-7.5,3.8-15,7.5-27.3,13.7c31.4,12.6,57.5,22.8,83.4,33.7c19.6,8.2,39.2,16.5,58,26.3
	c65.1,34.2,97.5,105.7,80.4,177.4c-12.7,53.5-41.5,96-90.5,122.2c-31.9,17.1-65.5,31.2-98.2,46.9c-17.9,8.6-35.6,17.9-57.8,29.1
	c10.2,6.1,14.9,9.7,20.2,11.9c136.9,57.2,178.8,203.7,164.5,307.9c-9.3,67.8-26.4,134-53.5,197c-20.7,48.2-50.3,89.7-98.6,114.6
	c-42.7,22-88.6,23.8-134.9,18c-38.6-4.8-77-11.7-115.6-17.5c-5.1-0.8-10.4-0.6-18.5-1c-0.7,8.5-2.1,16-1.9,23.5
	c1.4,54.9,3.1,109.9,4.9,164.8c0.4,10.6,1.5,21.2,2.8,31.8c6.4,53.1,43.4,88.3,97.1,91.6c14.9,0.9,30.1-1.2,45.1-1.4
	c23.3-0.3,28.6,3.2,30.3,26.7c3.5,49.5,5.8,99.1,8,148.6c2.9,66.4,5.3,132.8,7.9,199.2c0.3,8,0.1,16,0.4,23.9
	c3.4,87.3-63.8,141.4-140.2,146.8c-112.1,7.8-195.1-75.3-196.6-177.2c-1.7-118.8-7.2-237.5-11.3-356.2c-3.4-98.3-7.2-196.6-11.1-295
	c-0.2-5.9-2-11.7-3.5-19.8c-32.2,8.9-62.6,17.7-93.2,25.7c-49.7,13-99.4,27-151.5,24.3c-17.6-0.9-35.5-2.8-52.5-6.9
	c-77-18.7-129.1-78.9-132.4-163c-2.6-66.4-14-129.7-35.3-192.3c-23.5-69-15-135.1,30.2-193.8c13.8-18,31.8-32.8,49.3-50.4
	c-2.5-3-6.2-7.5-10.2-11.9c-3.6-3.9-7.8-7.3-11.2-11.3c-43.1-50.5-87.6-100-128.8-152.1c-59.5-75.3-42.9-176.9,37.4-229.9
	c26.3-17.3,57-28,85.8-41.4c7.8-3.7,16.1-6.5,24.1-14.6c-14.7-3.4-29.2-7.6-44-10.1c-29.1-5-47.6-22.3-58.6-48.6
	c-26.4-62.8-37.9-127.3-19.6-194.6c2.3-8.5,4.8-17.1,8.4-25.2c12.6-28.7,25.7-36.1,56.4-31.2c16.3,2.6,32.4,6.4,49.6,7.3
	c-11.4-14.3-26.9-22.3-41.9-30.8c-20-11.4-40.6-21.9-60.1-34c-73.3-45.5-94.5-123.6-68.6-204.5c17.1-53.6,50.8-95.8,98.2-125.1
	c33.7-20.9,70.5-36.8,106-54.8c7.7-3.9,15.9-6.9,28.4-12.2c-9-3.9-13.8-6.7-19-8.1c-9.4-2.5-19.1-3.8-28.5-6.4
	c-47.1-13.1-76.1-43.7-85.8-91.6c-3.5-17.3-5.3-35.1-6.7-52.7c-3.2-43.2-17.9-80.5-50-111.1c-15.2-14.5-28.8-31.5-40-49.4
	c-34.1-54.9-25.6-119.4,19.4-166c30-30.9,67.4-48.5,107.5-61c45.6-14.2,91.6-27.4,137.5-40.7c53-15.4,103.1-37.6,151.8-63.2
	c25.9-13.6,51.8-27.2,78.4-39.4c13-6,18.3-13.8,19.1-28.1c3.3-57.5,7.9-114.9,11.9-172.4c5.6-80.4,11.2-160.9,16.8-241.3
	c0.2-2.7,0.4-5.3,0.6-8c0.7-10.3,5.8-16.5,16.4-17.3c11.7-0.9,18.6,4.4,20.2,16.1c3.6,27.2,7.2,54.5,10.7,81.7
	c12.6,95.8,25.1,191.6,37.8,287.3C2015.2,424.7,2018.1,435.6,2020.5,447.6z M2137.7,488.9c-86.3,0.3-168.7,16.8-245.7,57.3
	c-32.1,16.9-64.3,33.8-97.2,49.1c-75.7,35.1-155.6,58.7-235.4,82.3c-34.8,10.3-69.7,20.7-100,41.9c-48.5,34-56.5,87.6-19.6,133.8
	c12.1,15.2,26,29.1,38.8,43.7c25.9,29.4,41.6,63.5,45.6,102.7c2.3,22,4,44.1,7.5,65.9c5.2,32.5,25.6,52.4,57.1,58.9
	c18.9,3.9,38.7,5.6,58,4.9c54.9-2,109.6-5.8,164.5-8.9c87.7-5,175.2-3.4,262.7,5.5c53.7,5.5,107.6,10,161.5,11.5
	c40,1.1,79.4-6.7,115.1-26.9c43.3-24.5,60.7-64,48.4-112.2c-5.5-21.4-13-42.3-20.8-63c-18.8-50-20.7-100.2-4-150.9
	c6.4-19.3,14.4-38.2,19.4-57.8c5.4-21.3,12.3-43.4,11.4-64.9c-3.3-72.6-48.6-127.9-118.1-151.1
	C2238.4,494.4,2188.5,488.7,2137.7,488.9z M2151.6,2345.5c-69,2.1-128.3,11.4-187.1,25.3c-49.9,11.8-100.2,21.9-150.7,30.9
	c-51.4,9.2-103.5,14.3-154.7,24.4c-95.7,18.8-151.3,104.9-130.4,199.9c4.3,19.8,11.7,39,18.6,58.1c13.8,37.7,22.7,76.3,23,116.7
	c0.1,11.5,0.9,23,1.5,34.5c4.4,81.3,53.7,128.7,135.5,128c24.6-0.2,49.7-3.1,73.6-8.8c53.3-12.6,106.5-26.4,158.9-42.2
	c53.8-16.2,107.4-18.3,162.7-9.1c61.1,10.1,122.6,17.8,184.2,24.5c63.4,6.9,109-20.6,139.2-76.5c29-53.7,44.3-111.7,56.3-170.8
	c8.1-40,13.7-80.1,5.4-121.2c-14.9-73.7-50.4-132-120.4-164.9C2296.2,2360.9,2220.7,2348,2151.6,2345.5z M1914.5,1165.3
	c-66.9-3.9-135.2,8.2-201,35.5c-40.9,17-82,33.5-123.5,49c-38.8,14.5-73,36-103.9,63.1c-30.9,27.1-51.6,60.4-60.3,100.9
	c-10.1,47,3.1,86.1,40.6,116c13.8,11,29.7,19.2,44.7,28.6c28.5,17.8,57,35.8,85.6,53.4c35.4,21.8,69.1,47.5,106.8,64.1
	c89.8,39.6,185.2,44.9,281.7,34.9c95.6-9.8,188-34.5,279.6-62.5c64.4-19.7,123-50,172.9-95.9c27-24.9,49.7-53.1,64.6-86.8
	c25.2-56.8,8.6-109.8-45.2-141.5c-16.6-9.8-35.2-16.6-53.4-23.5c-72.9-27.6-146.9-52.5-218.7-82.7
	C2099.4,1182.1,2011.4,1162.5,1914.5,1165.3z M2093.2,1878.9c-56.4,5-112.9,10.3-169.3,14.9c-71.4,5.8-140,22.4-204.6,53.2
	c-59.3,28.3-120,52.4-181.8,74.5c-18.3,6.5-36.6,13.9-53.2,23.8c-47.1,27.8-64.9,81-42.7,131c8.1,18.2,21.4,34.4,34.2,50
	c27.1,32.7,55.5,64.3,83.3,96.4c9.3,10.7,18.6,21.4,27.9,32.1c21.7,24.8,48.7,33.8,81.2,27.4c38.2-7.6,76.7-13.8,114.7-22.1
	c64-13.8,127.7-29,191.6-43.2c97-21.7,194.2-31.2,291.5-1.5c10.6,3.2,18.2,0.2,27-5.4c26-16.5,52.1-33.4,79.4-47.5
	c33.8-17.4,69.1-31.9,103.5-48.3c26.2-12.5,47.9-30.9,61.6-56.7c31-58.4,28.4-127-46.5-163.9c-8.7-4.3-17.6-8.4-26.7-11.9
	c-47.8-18.8-96.1-36.5-143.3-56.5C2248.1,1894.2,2172.8,1877.5,2093.2,1878.9z M2247.1,3321.9c-11.1-0.7-20.7-1-30.3-1.9
	c-67.8-6.6-125.3-48.3-137.7-112.8c-3.2-16.5-6-33.3-6.7-50c-2.6-57.5-4.6-115.1-6.1-172.7c-1.2-45.6-1.1-46.1-46.3-43
	c-5,0.3-9.9,2.1-16.2,3.4c0,9.1-0.3,16.9,0,24.7c2.7,68.2,5.8,136.3,8.2,204.5c5.4,155,11.4,310,14.9,465
	c1.1,47.7,23.1,81.1,59.1,106.9c40.5,29,83.1,23.9,125.7,2.8c39.4-19.6,52.5-52.7,50.3-94.3c-0.4-7.1-0.3-14.2-0.6-21.3
	c-3.7-96.5-7.3-193-11.1-289.5C2250,3337,2248.4,3330.2,2247.1,3321.9z M1809.8,1852.3c11.5,0,23.1,1,34.5-0.2
	c52.8-5.6,105.5-12.6,158.3-17.4c40.5-3.7,81.7-1.8,121.8-7.6c98.7-14.3,192.5-45.9,282.5-88.6c17.6-8.4,35.1-16.8,52.8-24.9
	c11.6-5.3,15.9-13.3,11.4-25.6c-1.5-4.1-2.6-8.5-3.8-12.7c-12.4-42.6-19.7-46.1-59.4-25.9c-147,74.7-305.1,105.7-467.8,118
	c-99.1,7.5-196-7.3-292.1-29.9c-19.7-4.6-39.1-11.1-58.3-17.6c-23.4-7.9-46.3-17.4-69.9-25c-22.4-7.2-30.2-2.3-36.3,20.6
	c-1.1,4.3-1.6,8.7-2.3,13.1c-7,45.2-5.4,47.6,36.4,65.2C1611.2,1833,1709,1850.6,1809.8,1852.3z M2472.2,1742.9
	c-40.5,17.9-78.1,35.2-116.3,51.2c-37.5,15.7-75.6,30.2-118.1,47.1c22.5,8.1,38.9,15.1,55.8,19.7c8.9,2.4,20.2,3.8,28.2,0.5
	c42.5-17.7,84.7-36.1,126.2-56C2472.4,1793.7,2477.8,1778.1,2472.2,1742.9z M1489.2,1814.5c-1.5,1.8-3,3.6-4.6,5.4
	c3.8,10.6,8.5,21.1,11.1,32c5.4,23.3,21.5,32.2,43.1,36.9c26.6,5.9,52.7,14.2,79.1,21.1c7.6,2,16.4,6.1,23,4
	c28.2-8.9,55.8-19.7,83.6-29.8c-0.2-1.8-0.5-3.7-0.7-5.5c-26.4-5.2-53.1-9.1-79.1-15.8c-26.4-6.8-52.1-16.6-78.2-24.8
	C1540.8,1830,1514.9,1822.3,1489.2,1814.5z M1958,332.9c-2-0.1-4-0.3-6.1-0.4c-0.5,44-8,87.6-7.4,132.4c33-4.3,33.2-5,28.6-32.6
	C1967.7,399.2,1963,366,1958,332.9z"/>
<path d="M2193.9,819.2c-0.1,27.9-26.3,52.5-55.9,52.5c-25.5,0-49.2-23.6-49.4-49.2c-0.2-28.7,27.9-56.7,56.1-55.9
	C2171.1,767.3,2194,791.9,2193.9,819.2z"/>
<path d="M1762.9,771.1c29.2,0.7,49.2,22,48.6,51.6c-0.6,28.8-22.8,50-51.5,49c-26-0.9-50.3-27.4-48.6-53.4
	C1713.1,791.5,1741.2,767.3,1762.9,771.1z"/>
<path d="M2191.8,605.4c-4.4-0.6-6.7-0.2-7.8-1.2c-47.9-42.4-102.9-36.5-157.6-20.1c-27.5,8.3-52.9,23.7-79.5,35.4
	c-8.8,3.9-19.9,15.2-27.2,1.4c-6.1-11.5,7.5-16.1,15.2-20.9c52.2-32.2,108.8-50.1,170.3-51.3c27.5-0.5,51.8,10,74.1,25
	C2189.5,580.7,2198.9,589.6,2191.8,605.4z"/>
<path d="M2115.4,1064c10.1,1.1,20.4,1.3,30.4,3.4c44.4,9.7,87.7,6.5,130.1-9.3c27.7-10.3,50.1-25.8,57.7-56.8
	c1.4-5.7,6.4-10.5,10.2-16.4c12.6,10,9.4,19.8,7.3,28.9c-6,26.1-22.9,43.9-46.2,54.8c-55.4,25.9-113.3,31.5-173,18.7
	C2121.1,1084.9,2110.7,1081.8,2115.4,1064z"/>
<path d="M1591.1,883.2c-3.2-0.9-7.5-0.8-9.5-2.9c-18-19.2-38.7-36.9-52.7-58.7c-23.3-36.3-12-68.4,26.6-87.3
	c25-12.2,51.8-14.8,78.2-15.3c5.1,11,4.5,18.2-5.7,20.9c-8.5,2.3-17.4,2.9-25.9,5.1c-14.4,3.8-29.3,6.9-42.9,12.8
	c-18.7,8.1-25,22.4-17.3,41.1c5.2,12.7,14.4,23.9,22.9,35c5.9,7.6,14.5,13.1,20.2,20.9c5.2,7.1,8,16,11.9,24
	C1595,880.3,1593.1,881.8,1591.1,883.2z"/>
<path d="M2340.4,654.5c12.8,16.5,7.4,27,3.7,37.6c-7.5,21.6-16.3,43-21.7,65.2c-9.2,37.9-3.1,75.4,7,112.5
	c2.2,8.1,3.5,16.4,5.6,26.2c-18.9,2.3-22.6-9.4-25.6-19.8c-11.5-39.3-19.8-79.2-8.4-119.9c7.6-27.2,16.4-54,25.5-80.7
	C2328.8,669.1,2334.3,663.6,2340.4,654.5z"/>
<path d="M1901.7,853.3c4.8,7.1,9.5,14.2,14.4,21.2c21.6,30.6,65.4,27.9,82.2-5.1c1.6-3.1,2.9-6.5,4.4-9.6c3.4-7.3,9.5-12.6,16.4-7.5
	c4.3,3.2,7.4,11.9,6.5,17.5c-4.2,28.1-29.8,51.2-58.5,51.3c-16.3,0.1-33.4-2.4-48.8-7.7c-18.2-6.2-25.6-23.6-29.3-41.3
	c-1.1-5.4,2.8-11.9,4.4-17.9C1896.1,853.9,1898.9,853.6,1901.7,853.3z"/>
<path d="M1601,1006.9c14.7,0.1,14.8,10.1,17.5,16.6c10.1,24,28.2,36.4,53.5,35.8c23.7-0.5,47.4-3.8,71.1-6.1
	c6.1-0.6,12.2-3,18.2-2.8c3.6,0.1,10,4.1,9.9,5.9c-0.3,4.3-2.9,10.9-6.2,12.1c-10.7,3.8-22,6.9-33.3,8c-22.8,2.3-45.7,4.8-68.5,4.1
	c-29.4-0.9-54.7-22.1-61.8-49.7C1599.4,1023.3,1601,1014.9,1601,1006.9z"/>
<path d="M1675.3,678.7c25.9-8.8,50.4-15.3,73.4-25.5c22.2-9.9,42.7-23.5,67.7-37.7c-1.4,8.9-0.5,15.7-3.5,19.2
	c-6.7,7.9-14.2,16.6-23.3,20.7c-27.9,12.6-56.6,23.9-85.4,34.4C1695,693.1,1683.4,695.9,1675.3,678.7z"/>
<path d="M1932.3,1074.8c11-25,29.2-16,42.7-16c65.9,0.3,72.1,2.3,82.6,22.6C2015.2,1083.2,1975.3,1077.7,1932.3,1074.8z"/>
<path d="M2258.3,2627.7c-0.3,30.7-25.3,54.5-56.9,54.3c-31.2-0.2-55.3-24.8-54.9-56.2c0.4-31.6,26.8-56.9,58.5-56
	C2235.6,2570.6,2258.7,2595.6,2258.3,2627.7z"/>
<path d="M1797.5,2573.6c31.4-0.1,56.1,25.2,56.5,57.8c0.4,30.2-24.8,55-56,54.9c-31.1-0.1-55.7-24.8-55.3-55.6
	C1743.1,2600.7,1769.1,2573.7,1797.5,2573.6z"/>
<path d="M1949.7,2442.8c4.1,12-3.1,18.6-14,19.2c-14.8,0.9-31.3,2.7-44.5-2.4c-40-15.5-77.7-7-113.2,9.7
	c-24,11.3-47.7,17.5-73.5,19.5c-56,4.3-85.4,31.9-90.2,88.3c-2.5,28.9,0.2,58.3,0.5,87.5c0.1,10.4,0,20.8,0,30.4
	c-10.2,4.4-17,2.3-17.9-6.5c-5.5-56.3-14.8-113.3,14.7-166.3c16.6-29.8,41.7-48.1,76.9-49.1c30.5-0.9,58.6-7.2,86.3-22
	c17-9.1,39.1-11.7,58.9-12.1C1871.4,2438.2,1909.3,2441.2,1949.7,2442.8z"/>
<path d="M2009.5,2741.1c-36.8,1-58.8-12.7-72.2-40.1c-2.7-5.5-5.4-11.8-5.1-17.6c0.3-5.3,3.4-13,7.4-14.7c3.4-1.5,10.9,2.9,14.7,6.5
	c3.6,3.4,4.7,9.4,7.2,14.1c9.8,18.5,25.3,26.1,46,25.1c19.1-1,31.1-11.1,38.4-27.9c1.8-4.1,3.4-8.2,5-12.3c3-7.6,8.2-11.5,16.5-9.4
	c9.7,2.5,11.6,9.5,10.6,18.5c-3.1,26.1-29.6,53.3-56.1,57C2015.8,2741.1,2009.5,2741.1,2009.5,2741.1z"/>
<path d="M1633.5,2802.3c3,11,5.4,20.1,8,29.1c12.4,42,39.2,62.5,83.3,63.7c15.6,0.4,31.2,0.1,52.2,0.1c-5.7,7.9-7.9,14.2-12,16
	c-62.9,27.2-138.1-16.8-144.5-84.5C1619.9,2818.6,1617.1,2808.8,1633.5,2802.3z"/>
<path d="M2283.4,2513.1c-5.5-7.1-11.1-14.2-16.5-21.5c-8.8-12.1-16.4-25.2-26.2-36.3c-15.8-17.8-36.4-27.5-60.4-29.3
	c-3.5-0.3-7.6,0.6-10.4-0.9c-4.7-2.6-8.5-6.7-12.7-10.1c4.5-3.4,8.7-9,13.6-9.7c8.5-1.2,17.7-0.5,26.2,1.3
	c20.3,4.4,38.7,13.9,52.2,29.5c14.9,17.2,27.5,36.4,40.6,55.1C2294.6,2498.1,2296.1,2505.8,2283.4,2513.1z"/>
<path d="M2062.9,2857c-17.2,8.9-32.1,4.6-46.2,2.9c-35.6-4.2-70.6-4.1-105,7.2c-3.3,1.1-7.1,2.7-10.3,2.1c-5.2-1-10.1-3.7-15.2-5.7
	c3.4-4.6,6-12.2,10.2-13.2c21.4-5.1,43.2-11.6,64.9-11.6c29.9,0.1,59.8,5.4,89.6,9C2054.3,2848.2,2057.2,2852.4,2062.9,2857z"/>
<path d="M2315.7,2843.6c6.2-3.7,12.2-8.1,18.8-10.9c38.6-16,64.5-42.6,73.9-84.2c2-8.7,3.2-20.6,17.8-17.8
	c11.2,55.5-54.4,127.6-107.8,118.6C2317.5,2847.4,2316.6,2845.5,2315.7,2843.6z"/>
<path d="M2391.4,2502.4c10.7-7,18.3-3.9,22.8,3.2c20.3,31.6,35.6,65,29.3,104.1c-0.3,2.2-3,3.9-7.2,9.2c-6.5-22.2-11-42.2-18.3-61.1
	C2410.8,2539.2,2400.8,2521.7,2391.4,2502.4z"/>
<path d="M2448.4,2654.3c-4.7,5.1-8.3,9.1-12,13.1c-2.8-4.6-7.8-9.2-7.7-13.7c0.1-4,6-7.8,9.4-11.7
	C2441.1,2645.5,2444,2649,2448.4,2654.3z"/>
<path d="M1895.4,1591.6c-7.3,9.7-9.7,16.6-13.9,18c-45.2,15.5-90.5,30.9-139.7,26.2c-46-4.4-82.7-25.4-109.6-62.4
	c-14-19.3-24.8-40.8-37.4-61c-11.2-17.9-23-35.5-34.6-53.1c-2.4-3.7-5.6-6.8-8.4-10.3c-46.6-57.8-31.5-126.1,35.5-158.8
	c12.6-6.2,26-11.4,40.9-4.1c2.1,13-8.3,14.5-16,16.9c-20,6.5-36.6,17.7-50.1,33.5c-21.8,25.4-27.3,56.8-6.7,83.1
	c31.8,40.7,55.3,86.4,83.9,128.8c24.2,35.8,55.3,63.5,100.4,66.7c23.4,1.7,47.6-1.8,70.9-5.6c20-3.3,39.2-10.8,58.9-15.8
	C1875.6,1592.3,1882.3,1592.6,1895.4,1591.6z"/>
<path d="M2184.3,1378.6c-0.5,29.7-25.4,52.6-55.9,51.3c-28.6-1.2-47.4-21.3-46.9-50c0.5-28.1,25.2-54.2,51.3-54.3
	C2160.9,1325.5,2184.8,1350.1,2184.3,1378.6z"/>
<path d="M1766.5,1335.1c28.6,0.6,49.7,22.7,49.2,51.7c-0.5,30.8-20.9,51.1-50,49.8c-29.5-1.3-50.7-22.7-50.3-50.9
	C1715.8,1358.7,1740.2,1334.6,1766.5,1335.1z"/>
<path d="M1697.9,1305.1c-6.5-18.1,2.7-24.4,10.4-31.3c41.4-37.5,90.9-44.5,143.7-37.4c13.1,1.8,26,4.8,38.7,8.6
	c4.8,1.4,8.3,6.8,16.2,13.6c-9.7,2.1-14.4,4.2-18.8,3.8c-13.2-1-26.3-2.9-39.4-4.7c-47.6-6.6-91.4,1-129,33.5
	C1714,1296.1,1706.9,1299.4,1697.9,1305.1z"/>
<path d="M1901,1417.1c4.2,6.5,9.8,13.2,13.1,20.9c6.9,16.1,19.7,22.2,35.9,22.5c17.8,0.3,33.2-4.9,42-22.3c4.6-9,6.3-21,21.2-22.3
	c11.3,10.9,7.8,23.6,2.4,35.7c-10.8,24-35.6,36.8-66,35.2c-28.3-1.5-53.3-19.3-61-43.7C1884.9,1432.3,1883.6,1422,1901,1417.1z"/>
<path d="M2073.1,1628.2c-1.8-13.4,8.6-15.5,15.8-19.3c34.8-18.4,71.4-31.2,111.2-32c16.7-0.4,31.5-2.2,39.1-20.6
	c1.6-3.9,9.7-5.1,14.8-7.5c1.2,6.2,4.9,13.3,3.2,18.5c-5,15.3-16.6,24.9-32.5,28.1c-9.5,1.9-19.2,3.7-28.9,4
	c-32.5,1.1-62.6,10.3-91.4,24.9C2094.7,1629.2,2084.4,1636.4,2073.1,1628.2z"/>
<path d="M2415.9,1470.6c5-11.7,9.2-21.2,13.2-30.8c17-40.9,5.8-67.5-35.7-83.8c-11.5-4.5-23.5-7.5-35-11.9
	c-6.7-2.6-12.8-6.7-19.2-10.1c0.4-1.8,0.9-3.5,1.3-5.3c5.5-1.1,11.1-3.2,16.6-3c29.2,1.4,55.9,11.1,76.4,31.6
	c9.9,9.9,16.6,25,19.8,38.9c5,21.9-0.1,43.8-10.2,64.1C2438.4,1469.7,2431.9,1475.9,2415.9,1470.6z"/>
<path d="M2329.1,1324.8c-55.9,1.7-117.8-26.2-130.1-54.6c5.4,0,10.6-1.3,14.6,0.2c31.4,11.9,62.8,23.9,93.7,37.1
	C2315.6,1311,2321.9,1318.9,2329.1,1324.8z"/>
<path d="M2028.6,1268.7c-6.8,0.5-13.1,2.2-18.6,0.8c-3.7-1-6.3-6.4-9.3-9.9c3.2-2.5,6.3-6.8,9.8-7.2
	C2020.6,1251.5,2029.6,1253.7,2028.6,1268.7z"/>
<path d="M1700.2,1521.9c2-12,7.1-18.4,17.6-15.1c2.9,0.9,6.5,9.3,5.2,12.4C1718.4,1530.3,1710,1527.7,1700.2,1521.9z"/>
<path d="M2176.6,2154.9c-30.6,0.3-52.5-20.9-52.4-50.6c0.1-28.4,26.1-54,54.5-53.6c28.1,0.4,51.1,22.8,51.1,50.1
	C2229.9,2130.6,2206.4,2154.6,2176.6,2154.9z"/>
<path d="M1804,2165.9c-30.1-0.1-50.6-20-51-49.4c-0.4-29.5,20.4-52.8,47.7-53.2c31.9-0.5,56.5,23.7,55.8,54.7
	C1855.7,2146.9,1834.8,2166,1804,2165.9z"/>
<path d="M1570.7,2198.5c26.2,3.1,42.3,20.2,52.6,43.5c5.7,12.8,8.3,27,12.9,40.3c11.9,34.9,29.8,47.8,66.6,49.5
	c42.2,1.9,82.2-9.3,122.3-20c9.1-2.4,18.1-4.8,30.9-2.9c-2.4,4.5-3.7,11.6-7.4,13.2c-54,22.9-108.5,42.7-169,28.4
	c-33.1-7.8-55-26.6-63.4-60.2c-1.7-6.8-4.4-13.5-5.9-20.3c-4.6-21.5-14.2-39.6-33.1-52.3c-4.6-3.1-7.3-8.9-10.9-13.4
	C1567.8,2202.3,1569.2,2200.4,1570.7,2198.5z"/>
<path d="M1641.5,2045.9c8.4-5.7,15.1-10.7,22.1-15c27.3-16.4,54.8-32.2,82-48.7c33.5-20.4,69.1-35.3,107.9-42.1
	c30.4-5.3,59.8-0.7,88.5,9.5c6.8,2.4,12.5,7.8,19,12c-8.5,15.3-18.6,8.7-27,6.8c-24.1-5.4-47.9-10.6-73.2-7.1
	c-34.7,4.8-66.7,15.7-97,33.1c-30.6,17.6-61.6,34.5-92.8,50.9C1663.2,2049.4,1654.2,2055.8,1641.5,2045.9z"/>
<path d="M2089.6,2258.2c-4.5-10.9,2.2-15,8.9-17c37.9-11.3,74.6-24.6,116.6-15.8c41.6,8.7,80.8-6.1,114.2-31.5
	c9.6-7.3,15.1-21.2,20.1-33.1c4-9.5,4.2-20.5,6.2-31.3c15.1-1.4,19.8,5.9,18.7,18.7c-1.7,20.1-8.5,38.7-23.4,52.2
	c-36.2,32.8-76.4,54.5-127.8,39.5c-17.4-5.1-34.8-4.7-52.4,0.3c-23,6.5-46.1,12.2-69.3,17.9
	C2097.5,2259,2093.2,2258.2,2089.6,2258.2z"/>
<path d="M1996.3,2217.6c-32.8-0.6-53.7-14.3-65-41.4c-2.6-6.2-3.6-13.7-3.1-20.5c0.6-9.6,10.1-13.1,17.1-6.7c3.7,3.5,6.3,8.3,8.8,13
	c9.1,17.3,22.6,26.3,42.7,24.6c18.4-1.5,31.5-10,38.3-27.4c1.3-3.3,2.2-7.3,4.7-9.3c4.3-3.5,9.6-5.8,14.5-8.6
	c2.7,5.1,7.3,10.1,7.7,15.3c1.7,26.7-23.5,54.4-53.3,59.6C2003.6,2217,1998.3,2217.3,1996.3,2217.6z"/>
<path d="M2368.9,2005.6c7.5-0.7,15.3-3.7,21.6-1.7c26.7,8.7,54.3,16.1,78.8,29.1c35.9,19.1,46.3,73.1,23.6,106.5
	c-2.9,4.2-7,8.8-11.5,10.2c-4.1,1.3-10.3-0.4-13.9-3c-1.9-1.3-1.2-8,0.1-11.6c1.5-4,5.3-7,7.6-10.7c17.9-28.7,10.5-60.8-20.4-76.2
	c-19.5-9.7-41.4-14.6-62.3-21.4C2382.6,2023.8,2371.2,2023.1,2368.9,2005.6z"/>
<path d="M2220.1,1973.2c13.1,3.6,22.7,3.5,28.3,8.2c31.1,25.8,56,56.7,67.8,96.2c3.7,12.3,5.8,25.7-3.6,41.8
	c-4.8-5.9-10.5-9.8-10.9-14.1c-4.1-47.1-31.7-79.5-65.8-108.1c-3.4-2.8-6.8-5.7-9.6-9.1C2224.6,1986.3,2224.2,1983.5,2220.1,1973.2z
	"/>
<path d="M1501.1,2158.3c-12.4-18.8-5.3-37.4,17.8-52.2c20.5-13.1,29.2-11.9,41.1,7.5c-12.8,3.2-27.3,3.3-36.7,10.3
	C1513.8,2131,1509.3,2144.9,1501.1,2158.3z"/>
<path d="M1735.1,2261.4c-9.4,5.3-13.8,9.6-18.8,10.3c-8.4,1.1-17.1-2.4-16.3-11.9c0.4-4.5,8.9-12,13.3-11.7
	C1719.4,2248.5,1725.1,2254.9,1735.1,2261.4z"/>
<path d="M2231.7,3693.1c-13.8,2-17.3-4.2-17.5-13.5c-1-38.9-2.1-77.9-2.6-116.8c-0.1-7.7,3-15.5,4.4-23.2c0.7-4,2.4-8.5,1.3-12.1
	c-15.8-54.5-9.5-110.6-12-166c-0.2-4.3,5.9-8.9,9-13.4c3.7,4.1,8.9,7.5,10.6,12.3c2,5.6,1.2,12.2,1.2,18.4
	c0.1,49.6-0.6,99.2,0.3,148.7c0.9,46.9,3.5,93.7,5.2,140.5C2231.9,3676.5,2231.7,3685,2231.7,3693.1z"/>
<path d="M2090.9,3290.5c6.7,5.2,12.4,7.4,13.3,10.9c2.2,8.4,2.8,17.4,3.1,26.2c1.9,50.4,3.5,100.7,5.2,151.1
	c0.1,1.8,0.4,3.6,0.2,5.3c-0.9,7.9,4.2,20-9.6,20.2c-10.5,0.1-10.9-10.3-11.1-18c-1.8-60.1-3.2-120.2-4.6-180.3
	C2087.2,3302.5,2088.8,3299.1,2090.9,3290.5z"/>
<path d="M2117.9,3742.3c-20.2-9.1-17.5-22.9-17.8-34.3c-1.1-44.2-1.2-88.4-1.7-132.6c-0.1-7.7,0-15.4,0-29.6
	c8.8,7.3,14.9,9.9,16.4,14.1c2.5,7.3,2.7,15.6,3,23.6c1.2,41.5,2.4,83.1,3,124.6C2120.9,3718.3,2119.1,3728.5,2117.9,3742.3z"/>
<path d="M1589.9,1775.2c38.5,5.6,70.8,10.9,100.8,28.6c-7.7,14.1-16.9,9.2-24.8,7.7C1624.5,1803.4,1603.8,1794.5,1589.9,1775.2z"/>
<path d="M1555,1770.2c-21.2-0.2-31-9.2-25.3-24c1.6-4.2,6.4-8.4,10.6-9.8c2.7-0.9,8.1,2.5,10.5,5.5
	C1557.8,1750.2,1562.4,1759.5,1555,1770.2z"/>
<path d="M2344.6,1732.8c5.6-24.1,12-29,34.9-28.3C2377.5,1723.6,2369.2,1730.8,2344.6,1732.8z"/>
<path d="M2422.8,1664.4c11.5,1.4,19.9,13.5,16.5,22.7c-1.9,5.1-8.6,10.8-14,11.7c-6.9,1.2-14.2-13.1-11.4-23
	C2415.3,1671,2420.4,1667.3,2422.8,1664.4z"/>
<path d="M1536.5,1856.6c7-6.5,12.8-5.8,17.1,1.2c0.9,1.5-1.3,7.3-3,7.8C1542.9,1868,1537.9,1864.8,1536.5,1856.6z"/>
</svg>
