<?xml version="1.0" encoding="utf-8"?>
<!-- Generator: Adobe Illustrator 24.3.0, SVG Export Plug-In . SVG Version: 6.00 Build 0)  -->
<svg version="1.1" id="Layer_1" xmlns="http://www.w3.org/2000/svg" xmlns:xlink="http://www.w3.org/1999/xlink" x="0px" y="0px"
	 viewBox="0 0 4000 4000" style="enable-background:new 0 0 4000 4000;" xml:space="preserve">
<path d="M1981.4,3523.7c-259.7-3.8-488.7-26.3-713.8-78.2c-186.8-43.1-366.9-106.1-531.9-206.2
	c-185.4-112.4-337.3-257.8-432.3-455.3c-93.4-194.3-132.9-399.8-115.1-615.3c29.3-355.6,184.2-648.7,444.4-889
	c126.5-116.8,269.6-209.8,421.4-289.4c115.5-60.6,233.5-116.4,350.7-173.8c109.7-53.7,217.6-110.4,318.6-179.5
	c95.6-65.4,178.9-142.7,240.2-242.4c39.5-64.3,84.9-82.2,159-65.6c70.3,15.7,130.8,50.9,180.1,102.4c38,39.7,72.6,83.1,105.9,126.9
	c82.5,108.4,178.6,201.8,296,271.7c66.5,39.6,135.2,75.4,202,114.6c81.4,47.7,164.5,93.2,242.1,146.6
	c158,108.9,288.7,245.4,395.3,405.6c99.4,149.4,172.3,310,209,485.2c54.6,260.8,33.3,515.4-77.3,759.7
	c-91.6,202.3-237.1,357.5-424.2,475.2c-191.9,120.7-401.3,196.7-622.1,242.6C2406.2,3505.8,2180.7,3528.7,1981.4,3523.7z
	 M1952.9,531.8c-22.1,20.1-42.4,37.1-61,55.8c-65.7,66.3-143.1,117.4-223.9,161.6c-125.6,68.6-254,132.2-382.5,195.2
	c-166.8,81.8-332.7,164.5-482.5,276.3c-162.9,121.6-299.8,265.8-399.1,444.1c-162.2,291.3-201.2,598-110.9,919.5
	c38.7,137.8,106.7,260.9,200.9,368.7c145.3,166.1,326.9,277.9,532.5,353.7c139.8,51.5,283.3,87.4,430.4,110.5
	c132.3,20.8,265.1,35.1,398.7,41.1c182.7,8.2,365,0.2,546.3-24.1c148.4-19.9,294.7-49.2,437.3-96.1
	c177.8-58.5,344.6-137.8,490.9-256.3c100.6-81.5,187.5-175.2,251.6-288.7c65.4-115.8,108.1-239,126.2-371.2
	c24.6-179.3,16.7-356.3-39.3-528.8c-109.7-338-316.7-602.5-615.6-793.3c-99.1-63.3-204.4-116.9-307.3-174.2
	c-144.5-80.4-271.6-181.2-371.3-314.5c-24.1-32.3-49.5-63.7-75.1-94.8c-12.5-15.2-26.8-28.9-40.2-43.3c-2.1,8.4,0,13.9,2.5,19.3
	c12.4,27,26.9,53.2,36.8,81c22.3,63,43.8,126.3,63.1,190.3c39,128.7,106.6,239.7,201.4,334.6c48.8,48.8,97.4,97.7,144.9,147.8
	c53.9,56.9,94.7,122.6,121.8,196.1c9.9,26.7,15.3,55,21.4,82.9c3.1,14.3-0.9,25.5-19.5,23.4c-2-3.1-4.4-5.4-5.4-8.3
	c-2-6-3.7-12.2-4.9-18.4c-17-86.7-57.3-162-116.4-226.5c-47.3-51.6-97.9-100.1-147.6-149.4c-55.9-55.4-108.7-113.1-149.5-181.2
	c-51.3-85.6-79.5-180-109.3-274.2c-18.2-57.5-40.1-114-62.6-170c-15.5-38.8-40-72.3-71.2-100.5c-12.3-11.1-25.4-20.8-48.9-26.4
	c6.9,15.1,11.6,24,15.3,33.4c9.6,24.6,20.8,48.9,27.7,74.2c22.6,82.9,19.3,166.3-3.1,248.5c-17.9,65.5-38.3,130.2-58.2,195.1
	c-57.9,188.3-56.2,376.3,3.5,563.8c8,25.3,17.6,50,25.9,75.2c2.8,8.5,10,19.9-2.7,24.8c-12.4,4.9-18.7-5.7-23.2-15.9
	c-2.5-5.8-5.3-11.6-7.3-17.6c-13.5-39.1-28.2-77.8-39.9-117.4c-33.5-113.3-43.5-228.8-31-346.4c7.7-73.2,26.9-143.7,48.4-213.7
	c22.7-73.9,50-146.6,59.3-224.1c9.5-79.7,2.7-156.8-33.8-229.5c-2.9-5.9-7.3-11-14.2-21.2c-1.2,14.5-2.4,22.9-2.4,31.2
	c-0.2,117-37.7,221.8-110,312.3c-42.2,52.8-91.8,99.9-139.1,148.5c-45.1,46.4-93.2,89.9-137.2,137.3
	c-126.1,136-211.5,293.7-249.1,476.2c-1.4,6.9-4.8,13.4-7.1,19.6c-25.1-4-26-4.6-21.9-24.5c18.3-89.7,45.4-176.4,85.9-259
	c65.5-133.6,160.1-244.3,266.8-346.1c50.6-48.3,101.3-96.9,148.5-148.4c59.9-65.3,99.3-142.4,116.6-229.9c6.3-31.9,10.2-63.8-2-96.6
	c-6.8,9.3-10.9,19.3-14.1,29.6c-20.6,67-54.7,126.2-102,178c-55,60.3-121.3,106.1-190.9,147.3c-74.8,44.3-152.1,84.6-226.2,130.1
	c-124.8,76.9-228.5,175.7-300.2,305.3c-0.5,0.9-1,1.9-1.5,2.8c-4,8-9,16.1-19.2,11.8c-12.7-5.3-7.6-16-4.1-24.4
	c4.9-11.7,10.7-23.1,17-34.1c68.3-118.3,162.8-211.6,277.4-284.3c61.8-39.2,126.1-74.3,189.5-110.8c76.5-44,150.9-90.8,214.3-153.2
	C1903.9,609.8,1932.1,574.9,1952.9,531.8z"/>
<path d="M424,2383c5.4,9.4,11.4,15.6,12.4,22.4c3.6,25.2,5.1,50.6,8.3,75.9c18.4,146.7,65.6,282.6,154.2,402.2
	c89.4,120.6,206.2,206.1,344.3,263.3c8.8,3.6,17.8,7.3,25.4,12.7c2.9,2.1,3.8,9.4,2.9,13.8c-0.5,2.4-6.9,5.7-10,5.1
	c-9.3-1.6-18.6-4.2-27.4-7.6c-196.4-76.6-341.8-208.6-434.4-398.4c-54.2-111.2-80.2-229.6-91.5-351.9c-0.7-7.3-1.7-15.2,0.3-22
	C409.7,2393.7,416.1,2390.5,424,2383z"/>
<path d="M1663.3,1242.7c4.8-12.6,7.6-21.7,11.5-30.3c22.7-50.7,54.5-95.5,89.3-138.4c2-2.5,4.2-4.8,6.4-7c8.3-8.1,19-13.3,28-4.5
	c10.4,10.2,0.6,18.7-6.7,26.6c-42.8,46.2-78,97.3-98.7,157.4c-2.9,8.3-6.2,18.2-16.9,13C1670.1,1256.6,1667,1247.8,1663.3,1242.7z"
	/>
<path d="M440.4,2187.3c-1.2,25.6-2.1,50.5-3.5,75.4c-0.5,9.1-3.8,16.9-15,16.1c-10.5-0.8-14.4-8.1-13.6-17.5
	c1.6-20.9,3.4-41.8,6-62.6C415.7,2186.9,423.4,2182.9,440.4,2187.3z"/>
</svg>
