<?xml version="1.0" encoding="utf-8"?>
<!-- Generator: Adobe Illustrator 24.3.0, SVG Export Plug-In . SVG Version: 6.00 Build 0)  -->
<svg version="1.1" id="Layer_1" xmlns="http://www.w3.org/2000/svg" xmlns:xlink="http://www.w3.org/1999/xlink" x="0px" y="0px"
	 viewBox="0 0 4000 4000" style="enable-background:new 0 0 4000 4000;" xml:space="preserve">
<path d="M1531.7,892.3c41,5.6,83.9,9.7,126,18.1c20.1,4,33.6,1.7,48.3-12.9c65.2-65,143.8-106.1,234.9-119
	c163.2-23.1,309.3,12.6,427.5,133.9c12.8,13.1,23.3,13.4,39.7,9.3c97.7-24.7,196.1-31.3,294.5-3.3
	c119.4,34.1,211.8,103.1,271.6,213.2c10.1,18.5,20.2,37.2,27.8,56.7c9.4,24.1,24.9,35.8,51,39.4c66.7,9.2,127,36,182.7,73.4
	c81,54.3,130.5,131.6,161.8,222.2c18.8,54.6,26.1,111.3,28.9,168.6c0.9,18.1,7,29,22.8,38.3c27.5,16.4,55.8,32.9,79.3,54.2
	c113.3,102.4,154.3,230.9,130.7,380.6c-4.7,29.6-11.8,59.1-20.4,87.9c-6.7,22.5-3.3,39.9,12,58c58,68.7,96.3,147.7,115,235.7
	c10.9,51.3,16.5,103.2,4.7,155.3c-3.5,15.6-6.9,31.4-12.1,46.5c-28,81-86.6,122.2-170.5,130.8c-78.4,8-154.1-6.5-228.6-28.1
	c-27.1-7.8-48.8-4.3-74,7.8c-141.7,68.3-291.4,113.1-444.8,146.6c-178.9,39-359.8,59.8-542.7,67.7c-171.7,7.4-343.4,7.3-514.7-3.2
	c-237.5-14.6-474.1-39.3-705.9-96.1c-140.8-34.6-276.4-84-401.3-159.3c-16.3-9.9-31.8-9.4-49-5.3c-62.7,15-126.3,23-190.9,21.1
	c-45.8-1.4-89.6-11.3-130-33.4c-66.5-36.5-96.5-97.3-107.3-168.8c-15.4-101.9,11.4-195.5,64.6-281.4c23.1-37.3,52.2-71.1,80.4-104.9
	c13.6-16.3,18.1-30.9,12.1-51.8c-17.9-62.1-26.9-125.4-21.3-190.3c11.6-134.7,75.7-236.8,190-307.7c20.4-12.7,42-23.7,63.7-33.9
	c14.4-6.8,20.4-15.9,21.7-32.1c4.1-54.4,16.6-107,37.3-157.5c52.2-126.9,146.2-208.9,274.8-251.9c33.1-11.1,67.7-19.1,102.2-23.7
	c20.8-2.8,33-10.1,40.9-28.8c19.1-44.8,46.4-84.2,79.6-119.8c68.2-73.3,153.9-115,250.4-134.6
	C1439.1,900.7,1484.4,898.1,1531.7,892.3z M3533.9,2821.2c13.8-0.7,29.1-0.1,43.8-2.6c79.5-13.2,117.7-42.7,133.8-120.6
	c14.8-71.4,3-139.6-22-206.6c-21-56.1-52.4-106.3-91-151.6c-25.5-29.8-30.7-59.8-19-97.1c11.6-37.1,19-75.8,24.8-114.4
	c11.4-75.2-4.5-145.4-42.7-211.1c-33.3-57.2-80-100.7-137.4-131.7c-40.7-21.9-59.9-51.6-59.5-98.5c0.4-48.1-6.2-96.2-22.4-142.2
	c-48.4-137.9-143.8-223.7-286.3-256.8c-16.6-3.9-33.2-7.8-49.9-11.1c-21.5-4.2-35.7-16.7-44.6-36.4c-7.9-17.3-16.7-34.3-24.8-51.5
	c-70.3-148.9-214-236.7-378.6-227.8c-47.8,2.6-95.9,10.4-142.4,21.9c-34.7,8.5-59.5,2.8-83.2-23.3
	c-51.9-57.5-116.9-94.2-191.6-113.3c-155.5-39.8-292.4-7.2-406.2,108.1c-19.3,19.6-37.8,27.8-63.7,20.6c-7.7-2.1-15.7-3.1-23.5-5
	c-68.3-16.3-137-17.2-206.3-7.7c-112.4,15.4-206.3,64.7-276.5,154.4c-22.7,29-40.8,62-58.4,94.5c-12.1,22.3-28.3,35.5-53.1,39
	c-17.9,2.5-35.8,5.2-53.5,8.8c-166.5,33.5-274.2,130.5-317.1,296c-7.5,29-10.6,59.2-13.9,89.1c-3.5,31.5-16.4,53.9-46.6,67.9
	c-30,13.8-59.4,29.8-86.5,48.5c-101.9,70.1-149.3,168.4-141.1,291.4c3,44.8,12.2,89.4,22.2,133.3c7.7,33.5,2.1,61.4-20.2,86.6
	c-10,11.3-20.3,22.2-30.2,33.5c-52,59.3-87.4,127.1-104.1,204.3c-11.5,53-10.7,105.6,8.5,157.1c14.9,39.8,41.6,69.1,81.4,83.5
	c43.8,15.9,89.4,23.8,136.1,17.3c48.7-6.8,97.3-14.2,145.5-23.5c19-3.6,35-2.5,51.7,7.2c29.5,17.2,59.2,34,89.7,49.2
	c132.9,66.4,273.8,109.8,419,137.6c110.2,21.1,221.5,37.8,333,50.8c110.6,12.9,221.8,22.8,333,26.5c208.7,7.1,417.4,5.9,625.8-14.6
	c134.1-13.2,266.1-36.9,397.2-66.7c141.6-32.1,276.2-83.9,407-145.8c22.9-10.8,42.7-11,66-2.7
	C3413.2,2805.8,3472.2,2816.9,3533.9,2821.2z"/>
<path d="M1917,1298.6c-14.8,14.6-22.3,32.9-30.4,50.6c-30.6,66.8-65.6,130.9-110.5,189.4c-70.5,91.6-154.5,168.5-251.6,230.9
	c-11,7.1-25.8,21.9-36.6,6.4c-11.9-17.1,9.5-22.8,19.7-30c135.9-96,245.6-215.3,322.7-363.4c4.4-8.4,7.9-17.2,7.6-29.2
	c-6.5,3.8-13.6,6.8-19.3,11.5c-82.3,67.3-176.8,114-270.4,162.3c-79.3,41-159.6,80.4-235.8,126.7c-186.9,113.4-324,273-421.7,467.7
	c-61.4,122.5-106.5,251-144.9,382.1c-4.2,14.4-8.5,28.9-14.4,42.7c-1.7,4-10.6,8.8-13.7,7.4c-5.2-2.2-9.7-8.6-11.8-14.2
	c-1.5-4,1.5-9.6,2.7-14.5C745.4,2378.7,792,2236,859,2100.3c91-184.2,215.2-340.6,383.7-459.7c96.9-68.5,202-123,308.8-174.5
	c63.1-30.5,123.7-66.3,184.8-100.8c65.6-37,117.6-90,168.1-144.8c12.7-13.8,26.9-27.4,42.8-37c25.8-15.5,54.1-15.4,80.1,0.7
	c20.4,12.7,40.1,26.8,58.5,42.2c87.9,73.4,188.1,126.5,290.4,175.4c122.3,58.5,245.1,115.8,355.9,194.8
	c127.2,90.6,235.3,199.2,318.9,332.2c67.3,107.1,116,222,156.5,341c28.5,83.8,49.8,169.4,66.2,256.2c1.7,8.8,3.3,18,2.3,26.8
	c-0.5,4.3-6.4,10.6-10.6,11.2c-4.3,0.7-11.5-3.1-13.9-7.1c-3.5-5.7-4.1-13.3-5.5-20.1c-30.9-145.8-75.6-287.1-138.5-422.4
	c-68.5-147.5-159.3-279-284-384.5c-94.5-79.9-197.6-147.8-307.5-205.1c-94.3-49.2-189.9-96.1-282.6-148.2
	c-54.9-30.8-105.3-69.7-157.6-105c-8.7-5.9-17.1-12.4-25.7-18.5c-1.8,1.5-3.6,3-5.4,4.5c5.2,9,9.9,18.4,15.6,27.1
	c46.7,71.4,91.9,143.7,126.2,222.2c38.5,88.1,62.6,179.9,70.6,275.8c1.1,12.7,0.1,25.6,0.1,38.2c-24.9,1.6-26,1.7-27.5-16.8
	c-14.1-175.7-89.3-327.3-185.2-470.8c-19.5-29.2-37.7-59.2-56.9-88.6c-4.4-6.8-10.4-12.5-15.7-18.7c-2.4,0.8-4.8,1.7-7.2,2.5
	c-0.8,12.4-2.2,24.8-2.4,37.2c-1.9,99.4-2.4,198.8-23,296.7c-18.3,86.8-45.9,170.4-88.3,248.7c-3.8,7-7.6,14.7-13.4,19.7
	c-3.4,2.9-11.3,2.8-16,1c-2.7-1-4.4-8.5-3.9-12.7c0.7-5.8,3.6-11.4,6.3-16.8c67.6-137.8,95.8-284.4,97.4-436.9
	c0.2-20.1,0.2-40.1,0.1-60.2C1921.5,1303.7,1919.6,1302.2,1917,1298.6z"/>
<path d="M1193.1,2840.7c-11.3-1.2-23.1-0.7-33.9-3.8c-142.5-41.2-233.6-131-261.9-279.3c-15.8-82.9-5-164.1,20.7-243
	c15.4-47.4,37.2-92.9,57-138.8c3.8-8.7,11.1-16.5,18.5-22.6c3.4-2.8,12.8-2.3,16.3,0.5c3.1,2.5,3.6,10.9,2.2,15.8
	c-1.8,6.5-6.7,12.2-10,18.3c-60.4,112-95,230.2-76.3,358.3c18.4,126,90.4,211.1,209.9,255.4c15,5.6,30.5,10.1,45.2,16.4
	c6.3,2.7,11.1,8.6,16.7,13.1C1196,2834.2,1194.5,2837.5,1193.1,2840.7z"/>
<path d="M3128.7,2661.6c10.1,19.4,1.6,30.9-6.5,41.9c-29,39.4-66,70.1-108.9,92.9c-75.3,40-156.4,60.8-240.9,69.5
	c-4,0.4-8.4,1.5-11.9,0.2c-5-1.9-9.3-5.6-13.9-8.6c3.8-4.9,6.8-12.9,11.6-14.2c14.4-3.9,29.5-5.1,44.4-7.6
	c74.5-12.7,146.6-32.1,212.2-71.6c34-20.5,61.5-47.9,87.7-77.1C3110,2678.6,3118.7,2671.2,3128.7,2661.6z"/>
<path d="M2928.7,2007.7c-20.5,3.8-24.3-9.6-29.3-19.8c-28.8-59.3-69-110.1-115.8-155.9c-39.6-38.8-83.1-72.2-133.9-95.1
	c-3.6-1.6-8.6-2.9-10.2-5.9c-3-5.5-6-12.4-5.1-18.1c0.5-2.8,9.9-6.5,14.7-5.9c7.7,1.1,15.3,4.7,22.2,8.5
	c110.8,61.5,196.2,147.4,251.5,262C2927,1986.4,2926.8,1997.5,2928.7,2007.7z"/>
<path d="M1335.3,1066.9c-9.4,9.1-18.1,17.2-26.5,25.7c-26.3,26.5-37.7,58.3-34.8,95.7c3.2,42.5,21.2,78.8,44.3,113.6
	c9.6,14.4,23.7,27.1,24.3,47.8c-14.5,4.9-24.3-1.8-31.8-11.3c-41.4-52.6-71-109.8-64.2-179.4c4.2-43,24.2-78,59.6-103.6
	C1319,1046.1,1328.3,1049,1335.3,1066.9z"/>
<path d="M616.9,2142.8c-86.1-12.4-164-65.3-160.8-163.5c0.7-21.9,4.6-43.7,7.7-65.4c0.8-5.8,2.5-12.6,6.3-16.6
	c4.1-4.4,11-6.2,16.7-9.2c3.2,6.5,9.6,13.3,8.9,19.3c-1.9,15.7-8.2,30.9-10.5,46.7c-10.6,73.5,20.7,124.2,91.3,148.8
	c14.2,4.9,29.3,7.4,42.9,13.6c5.4,2.4,9.7,11.6,10.3,18.1C629.9,2137.4,619.7,2141.2,616.9,2142.8z"/>
<path d="M1163.4,1301.7c19.6-9.5,30.3,0.9,40.5,9.5c38.1,32.2,67.4,71.7,85.8,117.7c12.9,32.2,20.3,66.7,28.9,100.5
	c3.1,12.3,3.7,26-15.3,35.5c-5.1-11.3-11.7-21.1-14-31.8c-17.6-80.3-56.3-149-111.8-209C1171.9,1318,1168.5,1310,1163.4,1301.7z"/>
<path d="M2939.8,1349.5c-5.2,9.3-8.5,18.4-14.4,25.4c-48.8,57.8-87.3,121.7-116.3,191.4c-0.4,0.9-0.8,1.9-1.3,2.7
	c-5.7,9.5-6.8,27.2-23.1,21c-13.2-5-6.8-19.1-4.1-29.2c20.7-77,58.9-144,116.5-199.3C2907.5,1351.5,2918.6,1340,2939.8,1349.5z"/>
<path d="M471,2218.7c18.8-21.5,83.6-30.1,139.9-19.1c68.5,13.3,123.4,43.1,133.7,73.1c-15.2,8.3-29.1,0.4-42.8-4.2
	c-29.5-9.8-58.4-21.2-88-30.5c-35.8-11.3-73-11.7-110.2-11.2C492.4,2226.9,479.5,2231.1,471,2218.7z"/>
<path d="M3502.5,2410.2c68.9,2.1,107,28.1,126.4,86.8c8.4,25.4,10.5,52.9,14.8,79.5c0.9,5.6,0.3,12.9-2.7,17.4
	c-2.7,4-9.6,6.9-14.8,7.1c-3.2,0.1-8.2-5.4-9.4-9.3c-2-6.5-1.4-13.9-2.3-20.8c-2.1-16.9-3-34.1-6.9-50.6c-12-51.8-46-78.2-99.2-78.1
	c-12,0-24,2.1-36,3c-9,0.6-19.1,2.1-20.7-10.8c-1.5-11.5,7-16.4,16-18.4C3481.3,2412.8,3495.3,2411.3,3502.5,2410.2z"/>
<path d="M736.6,1700.2c68.9-17.6,235,92.2,238.9,156.9c-12.3,5.6-20.8-1-28.5-9.2c-52.9-56.6-116.8-96.5-188.6-124.5
	C748.4,1719.5,736.7,1716.8,736.6,1700.2z"/>
<path d="M3184.4,1425.9c-10.3-1.3-19.8-1-28.3-3.7c-52.5-17.1-100-5.4-141.1,28.2c-25.3,20.7-46.4,46.7-68.8,70.8
	c-8.3,8.9-14.5,20.2-29.1,9.8c0-3.3-1.1-6.9,0.2-9.1c39.2-67.3,89.4-122,170.9-134.2c23-3.5,47.8,1.3,71.1,5.5
	C3172.4,1395.5,3186.1,1402.9,3184.4,1425.9z"/>
<path d="M2590.7,1015.9c68,4.4,119.2,22.6,164.5,56.7c5.5,4.1,10.9,9.3,14.1,15.2c1.8,3.3,0.4,10.5-2.3,13.4
	c-2.5,2.7-9.6,4.1-12.9,2.4c-7.9-4-14.8-10.1-22.1-15.4c-59.2-42.6-124.3-53.9-194.1-34.5c-15,4.2-28.6,14-42.4,21.9
	c-8.6,4.9-17,8.6-23.6-1.2c-6.6-9.8-0.2-17.6,7.5-22.8c9-6.2,18.6-12.7,28.9-15.6C2539,1027.6,2570.2,1020.8,2590.7,1015.9z"/>
<path d="M3100,1925.7c24.2-22.6,54.2-27.1,78.6-41.5c25.8-15.3,51.7-30.5,77.9-45c24.8-13.8,43.4-37.3,69.8-47.4
	c10.3,11.1,6.4,19.5,0.6,26.6c-9.4,11.6-18.9,23.5-30,33.4c-47.2,42-101,71.5-163.4,83.8C3118.6,1938.3,3118.5,1937.9,3100,1925.7z"
	/>
<path d="M3259.9,2293.6c45,3.3,89.4,9.5,133.8,8.8c44.3-0.6,88.5-8.1,133.6-12.6c0,20.1-14.9,24-27.3,28.7
	c-64.8,24.4-130.7,26.4-197.4,8.8c-9.7-2.5-19.4-5.2-28.7-8.7C3263,2314.5,3263.2,2314,3259.9,2293.6z"/>
<path d="M316.5,2548.6c6.4-28.4,13-58.5,20-88.6c0.9-3.8,2.2-8.6,5-10.6c5-3.6,11.4-5.5,17.1-8.1c2.6,5.8,8.1,12.2,7.2,17.4
	c-3.8,21.6-11.9,42.6-14,64.2c-2.2,23.5-2.6,48.2,2,71.2c7.2,36,28.5,63.4,64.2,77.3c3.7,1.4,8.5,2.5,10.5,5.4
	c2.6,3.6,4.8,9.5,3.6,13.3c-1.1,3.4-7.7,7.9-10.8,7.2c-12.4-2.8-25.6-5.4-36.4-11.7c-28.1-16.3-45-42.4-54.2-72.9
	C324.6,2592.7,321.6,2571.9,316.5,2548.6z"/>
<path d="M2377.7,1069.2c-2.3,13.5-3.1,24.2-6,34.3c-17.2,58.1-26,117.4-29,177.8c-0.5,9.9-1.8,20.2-5.2,29.4
	c-1.3,3.7-9,6.9-13.9,7.1c-3.5,0.2-8.2-4.4-10.6-8c-2-3-1.6-7.7-1.9-11.7c-4.8-70.1,4.2-138.2,32.3-203
	C2348.7,1082.8,2352.7,1067.7,2377.7,1069.2z"/>
<path d="M1805.7,1261.6c0-33.9,1.5-62.3-0.4-90.5c-2-29.8-7.2-59.4-11-89.1c-3.6-28.2-19.7-54.2-16.5-84.9
	c20.3-1.9,26.1,11.4,31.7,23.9c16.3,37,25.3,76,27.8,116.1c1.5,24.9,0.9,50-0.7,74.9C1835.3,1229.7,1831.2,1247.5,1805.7,1261.6z"/>
<path d="M2985.6,2123.4c-4.3,5.6-7,12.5-11.2,13.5c-4.1,0.9-12.4-3.1-13.9-6.8c-5.6-14.6-9.7-29.9-13.1-45.2c-0.8-3.4,3-10,6.3-11.5
	c3.1-1.4,10.9,0.8,12.2,3.5C2973.2,2091.7,2979,2107.3,2985.6,2123.4z"/>
<path d="M3176.4,2609.4c-11.2,8.8-17.9,15-25.8,19.1c-1.2,0.6-10.7-8.5-10.9-13.4c-0.5-10.6,4.7-20.3,17.7-18.5
	C3162.7,2597.3,3167.1,2602.9,3176.4,2609.4z"/>
<path d="M1391.2,1405.8c-12.6,4.9-19.2,9.7-25.3,9.4c-8.7-0.5-19.2-5-16.1-16.3c1.6-6,11.8-15.1,15.3-14
	C1373,1387.5,1379.1,1395.5,1391.2,1405.8z"/>
<path d="M3641.4,2669.2c-9.4,6.5-15.1,10.5-20.8,14.5c-3.8-5.9-10.3-11.8-10.6-17.9c-0.2-4.4,9-13.5,12-12.8
	C3628.1,2654.6,3632.7,2661.5,3641.4,2669.2z"/>
<path d="M2893.8,1588.9c5.2,11.5,5.5,20.6-8.1,23.6c-3,0.7-10.1-4.2-10.5-7.3C2873.1,1591.5,2881.8,1588.7,2893.8,1588.9z"/>
</svg>
