<?xml version="1.0" encoding="utf-8"?>
<!-- Generator: Adobe Illustrator 24.3.0, SVG Export Plug-In . SVG Version: 6.00 Build 0)  -->
<svg version="1.1" id="Layer_1" xmlns="http://www.w3.org/2000/svg" xmlns:xlink="http://www.w3.org/1999/xlink" x="0px" y="0px"
	 viewBox="0 0 4000 4000" style="enable-background:new 0 0 4000 4000;" xml:space="preserve">
<path d="M1653.7,2280c-16.6-7.7-29.8-13.9-43-19.9c-39.9-18-78-39.2-111.3-67.8c-61.1-52.5-87.8-120.7-85.5-199.9
	c1.5-51.3,33.7-85.4,86.1-93.9c32.9-5.3,66.2-9.2,99.5-10.3c98.1-3.3,192.9-23.6,286.4-52.1c33-10.1,36.4-14.9,30.3-56.3
	c-22.3,3.1-44.7,6-67.1,9.5c-89.8,14.1-179,14.9-267.7-8.1c-33.6-8.7-64.7-22.5-92.2-44c-64.7-50.6-75.3-125.4-26.9-191.6
	c8.2-11.2,17.4-21.7,26.2-32.4c29.4-35.8,42.2-75.1,29.3-121.6c-9.2-33.1-15.1-66.9-8.8-101.7c11.7-64.2,48.3-111.5,100.5-147.7
	c22-15.3,46.1-27.6,69.2-41.3c5.3-3.1,10.5-6.5,19.2-11.9c-10-4.2-16.3-7-22.7-9.6c-45.6-18.1-92.3-33.9-136.6-54.8
	c-61.1-28.8-95.9-91.6-86.6-157.3c4.3-30.7,16.1-60.7,27.5-89.9c8.8-22.3,21.9-42.9,33.9-63.8c21-36.4,29.5-75.2,28.4-117.3
	c-0.9-33.2-1.3-67,4.2-99.5c9.7-56.9,44.3-96.7,96.8-120.6c44.6-20.3,91.9-29.2,140.4-30.5c51.8-1.4,103.7-0.3,157.7-0.3
	c2-8.2,4.5-15,5.2-21.9c7.8-75.6,15.3-151.2,22.9-226.8c0.5-4.6,0.1-10.3,2.7-13.4c4.3-5.1,10.3-11,16.2-11.9
	c4.3-0.6,11.7,5.3,14.1,10.2c3.6,7.2,4.8,15.9,5.8,24.1c7.3,63.5,14.2,127.1,21.6,190.7c1.9,16.4,4.9,32.8,7.8,51.7
	c11.2,0,21,0.1,30.9,0c54.7-0.9,109.4-3.6,164.1-2.2c24.5,0.6,49.4,7.4,72.9,15.1c45.9,15,73.5,48.3,85.7,94.6
	c2.8,10.7,5.4,21.7,6.6,32.7c6.6,60.3,22.5,118.2,44.1,174.8c19.4,51,29.7,103.5,20.1,158.2c-16.7,95.4-76,158.2-157.8,203.2
	c-7.3,4-15,7.2-22.4,10.9c-0.7,0.4-1.1,1.5-2.5,3.5c8.2,10.2,21.4,7.8,32,11.4c26.2,9,53.7,15,79,26.1
	c97.6,43.1,148.6,141,126.9,246.1c-7.1,34.2-21,67-33,100c-16.8,46.1-35,91.7-52.3,137.6c-5.6,14.7-10,29.9-15.6,44.6
	c-13.6,36.3-33.2,68.2-72.9,90.8c10.6,3,16.8,5.3,23.1,6.5c76,14,133.5,53.9,167.9,123.6c9.7,19.6,15.5,41.9,19,63.6
	c7.4,46.5-6.5,87.5-44.2,116.2c-33.8,25.7-70.2,48.1-106.1,70.9c-50.8,32.4-102.2,63.9-153.2,96c-7.7,4.8-14.5,11-23.6,17.9
	c4.9,3.4,7.3,6.2,10.3,7c154,42.8,232.3,152.3,259.2,302.2c17.1,95.2,2.3,188.5-41.3,275.9c-17.4,34.9-43.7,61.9-77.8,81.1
	c-45.2,25.4-89.9,51.8-135.4,76.7c-42.6,23.3-87.9,27.8-134.6,13.8c-13.3-4-26.4-8.5-43.3-14c-1,10.2-2.5,18.9-2.5,27.5
	c1.6,173.4,3.4,346.9,5.3,520.3c0.8,76.1,2.1,152.1,2.8,228.2c0.3,39.1-24.3,63.2-64.3,64.4c-40.9,1.2-66.9-20.3-69.3-59.4
	c-2.4-38.9-3.7-77.8-4.1-116.8c-2.1-219.8-3.7-439.6-5.6-659.5c-0.1-7.3-0.7-14.7-1.2-24.9c-9.8,1.8-18.5,2.9-27,4.9
	c-59.1,14.6-118.6,20.5-179.1,10.6c-69-11.3-139.5-53.6-155.8-141.6c-9.7-52.3-31.5-98.2-63.3-140.5c-13.7-18.3-24.2-39.5-33.3-60.7
	c-22.4-52.2-13.6-102.5,17.7-147.8c16.1-23.4,36.8-44.2,58.1-63.2c32.5-29,67.2-55.4,100.9-83
	C1645,2289.7,1647.3,2286.8,1653.7,2280z M2205.4,1077.6c-24.1,1.2-48.4,0.8-72.2,4c-90.1,12.3-180.5,21.7-271.5,18.8
	c-81.2-2.6-153.1,24-220.6,65.3c-73.8,45.2-106,111.3-94.6,197.8c2.1,15.6,4.9,31.2,6.5,46.8c1,10,1.1,20.3,0.5,30.3
	c-1.9,33.5-14.9,62.5-35.5,88.9c-13.6,17.5-27.3,35.5-37.2,55.2c-23.8,47-11.3,95.4,32.8,124.2c22.2,14.5,47,26.1,72,34.9
	c43.1,15.1,88.1,22,134,20.6c128.5-4.1,254.1-26.4,376.6-64.7c24.5-7.7,49.4-17.4,70.6-31.4c22.2-14.7,43.9-17.9,68.5-13
	c13.6,2.7,27.1,6.5,40.8,8.6c45.5,7.1,73.2-5,94.1-46.1c14.2-27.9,25.5-57.6,34.8-87.6c13.8-44.4,30.1-87.4,50-129.4
	c11.8-24.9,20.7-51.7,26.5-78.7c21.9-100.9-28.2-186.5-125.8-221.4C2306.9,1083.2,2256.8,1077.6,2205.4,1077.6z M1867.8,376.8
	c-38.3,2.7-76.3,4.8-114.1,8.2c-51.9,4.6-99.9,19-139.1,55.9c-19.7,18.6-32.9,40.5-35.4,67.4c-2.6,28.6-5.2,57.4-4.3,86
	c1.3,45.7-8.4,88.3-28,129.1c-8,16.7-17.2,32.9-24.6,49.9c-10.3,23.7-22,47.3-28.4,72.1c-17.7,69.3,7.9,122.4,71.5,154.4
	c8.2,4.1,16.8,8,25.7,10.3c26.9,6.9,53.8,13.8,81,19.1c15.7,3.1,28.8,8.9,35.3,23.6c8.9,20.1,24.4,22.1,43.5,20.1
	c35.9-3.9,72-8.7,108.1-9.2c101.3-1.4,201.7-10.7,301.5-28.3c74.5-13.2,143.1-38.6,198.3-92.8c71.3-70,91.9-151.9,56.8-246.6
	c-8.4-22.6-16.9-45.1-24.6-67.9c-15.8-46.7-25.1-94.7-32.1-143.5c-8.5-59.8-34.2-86-94.4-96.6c-29-5.1-59-6-88.5-6.1
	c-65.8-0.2-131.7,2.3-197.5,1.8C1941.5,383.4,1904.6,379.2,1867.8,376.8z M2163.9,2220.5c-92,0.6-159.8,15.8-227.5,31.2
	c-74,16.8-146.6,39.6-222.2,49.1c-15,1.9-30.5,9-43.5,17.2c-55.2,34.7-103.8,77.8-147.6,125.8c-30,32.9-40.9,73.3-27.4,116.3
	c7.4,23.4,18.7,46.8,33.2,66.4c34.9,47.1,60,97.7,67.8,156.2c0.7,5.5,2.9,10.7,4.5,16c11.3,38.2,36.5,63.6,72.4,79.4
	c39.1,17.2,80,21.7,122.3,19.3c44.8-2.6,88-12.7,130.2-26.9c46.3-15.6,88.6-11.2,129.8,15.7c18.4,12,39.4,20.3,60,28.4
	c28,11,56.3,9.1,83.7-3.5c10.9-5,21.8-10.2,32.4-16c35.8-19.5,71.1-39.9,107.1-58.9c52-27.3,87.3-68.7,103.5-124.8
	c23.2-80.4,30.4-162,8.7-244.2C2414,2325.9,2300,2217.8,2163.9,2220.5z M1674.8,2090.3c19.3,0,37.8,2.2,55.6-0.4
	c84.2-12,159.5-46.9,230.7-91.9c96.4-61,192.4-122.5,289.2-182.7c79.5-49.4,173.4-18,208.2,68.1c2.2,5.4,7.1,13,11.6,13.7
	c15.8,2.3,32,9.6,51.1,0.9c-10-46-26.6-87.2-64.5-116.7c-44.4-34.6-95.6-48.3-151.1-46c-72.2,3.1-137.7,28.8-199.2,64.4
	c-54.5,31.6-106.9,66.9-160.5,100c-49.7,30.7-99.5,61.2-154.2,82.6c-48.9,19-96.1,23.3-143.3-7.8c-22.1-14.6-48.2-23.6-73.1-33.4
	c-26.8-10.5-54.4-9.6-81.9-1.4c-25.1,7.5-40.5,24.3-41.2,50c-2.4,77.3,17.4,144.5,87.4,189.3c51.3,32.8,107,54.9,164,74.6
	c20.9,7.2,41.4,8.2,62.8,3.1c70.2-16.8,140.5-33.5,210.9-49.7c56-12.9,112.2-24.5,170.5-21.5c12.5,0.6,26.8-6.6,38.2-13.6
	c76.6-47.2,153.1-94.4,228.4-143.5c29.3-19.1,55.8-42.6,83.1-64.8c5.1-4.2,7.7-11.5,11.6-17.6c-4.7-2.7-6.9-4.5-9.5-5.4
	c-3.5-1.3-7.1-2-10.7-2.8c-32.5-6.7-33.6-7.4-51.1,20.6c-24.4,39-94.4,57.7-136,6c-18.4-22.8-30.5-48.5-38.2-76.6
	c-2.6-9.3-5.7-18.4-8.6-28c-5,2.3-8.5,2.7-9.8,4.6c-16.7,24.3-42.8,34.4-68,46c-14.3,6.6-28.4,13.8-41.7,22.2
	c-46.3,29.1-92.1,59-138.4,88.2c-54.3,34.2-111.5,62.7-172,84.2c-48.6,17.3-98.1,28-149.9,16.6c-10.7-2.4-16.4,2.7-23.5,9.9
	c-19.7,20.1-44,31.4-72.7,27.7c-37.5-4.9-83.1-54.3-86.2-92.2c-3.1-37.6,28.2-71.9,69.1-59.8c32.7,9.7,61.7,25,85.5,49.5
	c4,4.1,8.4,7.8,14.9,13.9c-0.8-17.7-2.7-31.6-1.8-45.3c0.9-12.8,9.4-18.2,21-16.3c12.4,2,14.8,11.2,12.3,20.8
	C1688.8,2048.5,1682.2,2066.7,1674.8,2090.3z M1963.6,2894.5c-0.7,12.8-1.9,23.6-1.8,34.4c2.4,254.1,5,508.3,7.5,762.4
	c0.1,7.4-0.3,15,0.9,22.2c3,18.2,14.8,26.3,34,24.5c19.8-1.9,25.2-7.5,26.1-28.2c0.4-11.1,0.2-22.3,0.1-33.4
	c-2-248.6-4-497.2-6-745.8c-0.2-26.6-5.2-32.8-31.1-36C1984.3,2893.5,1975.2,2894.5,1963.6,2894.5z M2281.3,1843.7
	c9.6,24.9,18.8,50.8,29.7,76c3.9,9,11.5,16.6,18.3,24.1c14,15.4,31.3,18,50.6,11.7c39.5-12.9,54.7-53.6,33-89.1
	C2387.9,1825.4,2324.3,1813.4,2281.3,1843.7z M1916.6,1877.3c-1.9-1.9-3.8-3.8-5.7-5.8c-89.7,18.5-179.5,37.1-273.7,56.6
	c15.7,8,29,12.6,39.7,20.6c27,20.1,55.4,20,83.6,6.4c49-23.6,97-49.1,145.5-73.7C1909.4,1879.8,1913,1878.7,1916.6,1877.3z
	 M1593.2,2126.6c2.1-0.3,6.8-0.3,11.2-1.4c26.6-6.5,34.2-25.8,17.1-47.2c-15.3-19.2-35.6-32.1-60.2-35.8c-22.5-3.4-33.2,7.7-31,29.8
	C1533.1,2099.5,1562.9,2126.5,1593.2,2126.6z M2016.1,1759.7c-15.9,3.1-30.7,4.9-44.6,9.3c-5.5,1.7-12.4,9.3-12.7,14.6
	c-1,14.3,1.2,28.8,2.2,43.4C2006.9,1821,2020.9,1804.1,2016.1,1759.7z M2061.7,1778.1c26.5-14,51.3-27.1,76-40.2c-0.8-2-1.6-4-2.4-6
	c-22.5,6.6-45.1,13-67.5,20C2056.7,1755.4,2054.4,1763.1,2061.7,1778.1z M1978.2,347.4c14.5,4.8,22,2.1,21.1-9.1
	c-2.1-23.5-5.8-46.8-8.8-70.2c-2.4,0.1-4.9,0.3-7.3,0.4C1981.6,294.6,1979.9,320.7,1978.2,347.4z M2232.2,1701.2
	c-0.1-1.1-0.2-2.3-0.3-3.4c-6.5,0.5-13.1,0.9-19.6,1.4c0.1,1.3,0.2,2.5,0.3,3.8C2219.2,1702.4,2225.7,1701.8,2232.2,1701.2z"/>
<path d="M1645.8,1303c-19.2-12-21.8-19.5-15.4-37.3c18.4-51.2,76.2-91.8,131-92.8c29.6-0.5,56.9,7.6,82.5,21.2
	c17.1,9.1,32.9,20.6,49.3,31.1c22.6,14.4,45.2,28.9,67.8,43.2c6.3,3.9,13.6,6.5,19,11.3c3.6,3.2,7,9.9,5.9,13.8
	c-1,3.9-8.3,9.3-11.9,8.7c-14.3-2.4-29.3-4.7-42.1-11.1c-16.4-8.2-31-20.1-46.3-30.6c-16.8-11.5-32.8-24.4-50.5-34.5
	c-65.2-37.2-137.3-16.8-174.3,48.5C1656,1283.3,1651.5,1292.3,1645.8,1303z"/>
<path d="M1886.4,1640.4c10.6,0,19.7-0.6,28.7,0.1c35.4,2.7,66.2-7.6,90.6-33.4c17.8-18.8,34.1-39.1,51-58.8
	c17.9-20.9,38.6-37.7,66.9-41.5c8.8-1.2,18.3,0.2,27.1,2.3c3.1,0.7,6.9,6.7,7,10.3c0.1,3.5-4.2,7.1-6.8,10.5c-0.5,0.6-1.7,0.8-2.5,1
	c-43.5,9.2-68.4,41.5-93.3,74.3c-35.1,46.1-80.4,73.3-140.2,71.8C1890.2,1676.4,1885.8,1671.4,1886.4,1640.4z"/>
<path d="M1825.6,1365.3c-0.1,30.6-24.7,54.4-55.3,53.4c-27.5-0.8-50.6-26.9-50.1-56.5c0.5-28.5,25.6-53.8,53.2-53.5
	C1803.6,1309.1,1825.7,1332.9,1825.6,1365.3z"/>
<path d="M2171.1,1313.8c28.9,0.7,50.6,22.8,50.6,51.6c0,31.7-23.7,55.5-53.9,54.2c-27.7-1.2-50-25-49.7-53
	C2118.5,1337.3,2142.7,1313.2,2171.1,1313.8z"/>
<path d="M1574,1648.6c-0.4-24.8,8.2-36.2,27.9-40.4c18-3.9,36.4-6.3,54.5-10.1c38.1-8.1,68.9-26,84.6-64.2
	c4.6-11.1,11.5-22.7,26.8-18.2c11.3,3.3,13.8,19.4,4.5,36.4c-22.9,41.8-56,70.9-104.5,78.9c-14.6,2.4-29.3,3.9-44.1,5.2
	c-9.9,0.9-18.5,3-21,14.2c-2.1,9.2-7,17-16.9,12.4C1579.6,1659.8,1576.1,1651.3,1574,1648.6z"/>
<path d="M2393.3,1269.2c-0.3,27.7-3.1,50.7-16.4,70.6c-3.4,5.1-11.9,10.6-17.2,9.9c-10-1.4-10.9-11.2-9.5-19.9
	c1.5-9.1,4.5-18,5.5-27.2c1.8-15.5,4.2-31.3,3.4-46.8c-1.7-32.5-23.3-57.1-55-64.9c-9.8-2.4-20-3.7-30.1-5
	c-9.5-1.2-15.7-5.6-15.7-15.8c0.1-10.9,5.7-16.5,16.9-17.8c35.3-4.2,85.9,22.1,102.9,54.3
	C2389.3,1227.5,2393.9,1249.9,2393.3,1269.2z"/>
<path d="M1974.2,1474.3c-46,0.5-74.2-19.9-81.4-55c-2-9.5-2.5-18.8,9-22.9c9.7-3.5,15.8,1.8,20.5,9.4c2.9,4.7,5,10,8.1,14.5
	c21.9,31,64.5,27.2,80.5-7.1c1.6-3.3,2.3-7,3.8-10.4c3.9-8.5,9.9-13.5,19.7-10c9.2,3.3,12.2,10.3,11.4,19.7
	c-2.1,24.5-23,49-50.1,57.3C1987.1,1472.5,1977.9,1473.6,1974.2,1474.3z"/>
<path d="M1615,1449.4c6,22,0.7,41.7-5.9,60.7c-3.5,10.2-11.9,17.3-23.9,13.9c-11.8-3.3-10.8-13.4-9.7-22.8
	c1.2-10.1,2.5-20.2,4.1-30.3C1583.6,1445.9,1585.6,1444.6,1615,1449.4z"/>
<path d="M1823.4,1461.6c22.9,26.8,14.5,46.5-23.6,60C1796.1,1494.9,1803.2,1475.9,1823.4,1461.6z"/>
<path d="M2425.4,1387.8c-9.7,0.6-20.2-10.5-20.5-21.6c-0.3-10.9,9.2-23,19-23.2c11-0.3,16.4,6.4,17.6,16.8
	C2443,1371.8,2433.9,1387.3,2425.4,1387.8z"/>
<path d="M2086.5,1265c0,12.2-6.8,20.2-17.7,19.6c-10.1-0.5-17.9-4.6-18.1-16.3c-0.2-11.6,9.5-21.8,20.2-21.7
	C2081.1,1246.8,2086.5,1253.1,2086.5,1265z"/>
<path d="M2356.7,1507.2c0.9-19.2,8.2-27.1,19.8-25.7c8.8,1.1,15.6,5,15.2,15.5c-0.5,12.4-11.7,24.4-22.6,21.6
	C2363.3,1517.2,2359.1,1509.6,2356.7,1507.2z"/>
<path d="M2260.5,857c1.1,1.3,2.1,1.9,2.2,2.6c8.2,58.2-35.6,124.9-91.8,138.8c-34.5,8.6-68.1,6.8-99.2-12.7
	c-8.6-5.4-17.4-10.7-26.2-15.7c-35-19.8-71.5-24.8-109.5-9.4c-16.3,6.6-32.1,14.4-48.3,21.2c-15.3,6.4-25,4.6-28.9-5.2
	c-4.7-11.9,1.5-20.2,11.2-25.2c61.4-31.6,123.7-51.7,190-13.1c11.2,6.5,22.6,12.8,34.2,18.6c50.3,25,98.3,9,123.8-41.4
	c6.7-13.2,11.9-27.2,18.7-40.4C2241.6,865.6,2246.7,854.8,2260.5,857z"/>
<path d="M1878.2,411.6c57.7,0.4,95.7,16.1,132.3,37c16.8,9.6,33.8,19.2,51.5,26.8c19.1,8.1,37.6,6.2,54.5-8
	c6.8-5.8,15.5-10.6,24.1-12.7c13.3-3.2,22.4,6.6,17.9,19.3c-2.5,7.3-8.1,15.5-14.5,19.1c-40.3,22.2-80.9,30.8-122.5,1.4
	c-31.2-21.9-64.4-41-103.3-45c-50.5-5.2-97.7,2-135.1,41.1c-3.1,3.3-6.8,8.5-10.3,8.5c-6.7,0.1-14.9-1-19.7-5
	c-3.4-2.9-5.3-13.6-2.8-16.7c10.3-12.7,21-26.4,34.5-35C1817.5,421.8,1853.7,410.9,1878.2,411.6z"/>
<path d="M2186.7,631.7c33.8,0.4,54.2,21.7,54.3,56.6c0.1,37.5-23.5,61.7-59.9,61.6c-32.1-0.1-56.6-26.3-55.9-59.9
	C2125.7,657.2,2153,631.4,2186.7,631.7z"/>
<path d="M1752.1,752.6c-30.1,0.4-55.9-25.9-55.9-56.8c0-30,26.3-58.5,54.6-59.3c32.1-0.9,59.3,25.9,60.4,59.6
	C1812.2,726.8,1785.8,752.1,1752.1,752.6z"/>
<path d="M1687.7,499c-6.3,7.2-10.2,13.6-15.8,17.8c-15.4,11.7-20.8,27.4-22.1,45.9c-2.7,38.8-3.3,77.9-9.7,116.1
	c-4.3,26-16.8,50.6-26.1,75.7c-1.9,5.1-4.7,11.4-9,13.6c-5.8,3-14.2,4.7-19.9,2.7c-3.8-1.3-6.4-10.2-6.7-15.8
	c-0.2-5.1,2.9-10.7,5.7-15.4c22.2-37.1,27-78.2,28.6-120.2c1-25.8,2.5-51.8,5.9-77.4c2.8-20.8,13.5-38.9,30.5-51.3
	c6.5-4.8,17-5.8,25.5-5.2C1678.8,485.8,1682.5,493.5,1687.7,499z"/>
<path d="M2333.3,848c5.6-11.6,9.1-20.8,14.1-28.9c23.9-38.3,24.1-71.8-2.4-108.1c-15.8-21.6-34.7-40.8-51.4-61.8
	c-12.6-15.9-25.2-32.4-15.9-57.9c6.2,2.9,12.9,4.1,16.4,8.1c27.3,31.4,55.5,62.2,80.4,95.3c26.9,35.7,30.2,76.9,16.3,118.8
	C2381.8,840.7,2366.3,850.2,2333.3,848z"/>
<path d="M1966.4,810.2c-32.4-1.6-57.7-14.4-72.8-43.6c-2.9-5.7-5.2-12.1-5.8-18.4c-0.9-9.3-0.2-20.9,10.9-22.3
	c5.9-0.7,13.4,6.7,19.1,11.6c3.3,2.8,4.6,7.9,6.7,12.1c9.3,19.2,25.7,25.7,45.7,25c19.9-0.7,36.2-7.5,43.9-27.7
	c1-2.6,2.3-5.1,3.4-7.6c4.3-10.4,10.2-18.3,23-12.6c11.4,5,13,14.5,10.4,25.6c-7.6,31.7-34.2,53-71.1,56.9
	C1975.1,809.5,1970.5,809.9,1966.4,810.2z"/>
<path d="M1565.6,906c-14.8,0.8-25-7.9-26-17.7c-1.1-10.3,7.4-19.3,18.5-19.6c11-0.3,21.1,8.3,18.8,18.7
	C1575.2,895,1568.5,901.5,1565.6,906z"/>
<path d="M2292.6,521.7c-0.3,9.9-2.3,18.8-14.4,19.9c-11.6,1.1-19.8-7.9-20.1-21.3c-0.2-12.5,6.9-20.7,17.5-19.9
	C2285.8,501.1,2292.4,509.3,2292.6,521.7z"/>
<path d="M1998.5,2412.7c-9-18.7,1.3-30,12.2-39.9c34.8-31.5,76.6-41,121.4-32.1c65.2,12.9,116.9,49.6,158.7,100.1
	c15.3,18.4,28.7,38.7,40.7,59.4c6.2,10.7,8.9,24.1,10.3,36.6c0.6,5.4-5.5,16.1-9.5,16.5c-6.8,0.8-16.4-2.7-21-7.8
	c-5.9-6.5-8-16.4-11.7-24.9c-26.1-59.2-68.9-102.6-126.2-131.3c-51.2-25.5-101.4-26.7-147.8,12.2c-4.9,4.1-10.8,7-16.6,9.8
	C2006.8,2412.6,2003.7,2412.1,1998.5,2412.7z"/>
<path d="M1585.6,2448.6c6.5,4.8,16.3,8.5,19.8,15.3c5.6,10.7-4.3,16.4-13,20.3c-10.7,4.7-25.8,5.3-28,19.4
	c-2,13.3-1.2,27.5,1.3,40.8c5,26.3,20.8,47.3,38.5,66.4c32.1,34.6,48.3,76.1,55.6,121.8c1,6.3,2.9,13.6,0.8,19.1
	c-2.3,5.9-8.4,13.2-13.8,14c-5.1,0.8-13.5-4.7-16.6-9.7c-4.2-6.8-5.4-15.7-6.5-23.9c-5.3-39.9-21.9-74.1-49.2-103.5
	c-21.8-23.5-37-50.8-43.6-82.4c-7.8-37,9.4-64.5,34.9-88.3C1570.1,2453.8,1577.1,2452.4,1585.6,2448.6z"/>
<path d="M1814.7,2848.1c-39.3-2.9-75.5-15.6-94.8-56.9c-2.7-5.8-5.9-12.4-5.3-18.3c0.5-5.5,4.7-13,9.3-15c4.1-1.7,11.1,2.5,16.3,5
	c2.2,1,3.5,4.2,4.8,6.7c21,40.8,52.5,50.1,101.5,36.6c20.1-5.5,38.9-16.5,57.8-26c16.5-8.3,31.6-19.7,48.7-26.2
	c12.3-4.7,27-5.7,40.2-4.1c11.7,1.4,13.1,15.5,3.4,23c-2.2,1.7-4.7,3.1-7.3,3.9c-31.4,9.5-58.2,27.5-85.4,45.1
	C1877.8,2838.8,1848.3,2846.5,1814.7,2848.1z"/>
<path d="M2160.5,2599.9c-29.8-0.5-54.4-27.9-53.3-59.4c1-29.1,27.5-53.5,57.1-52.5c31,1,53.8,25.3,52.9,56.3
	C2216.1,2577.1,2192.4,2600.4,2160.5,2599.9z"/>
<path d="M1694,2541.4c0.4-30,24-53.9,52.3-53.1c29.7,0.9,54,26.2,53.9,56c-0.1,32.6-23.7,55.6-56.6,55.1
	C1713.5,2599,1693.6,2575.8,1694,2541.4z"/>
<path d="M1900.1,2304.3c2.9,2.4,10.3,5.7,12.3,11c3.2,8.8,2,18.9-8.1,23.8c-5.6,2.7-12.3,3.7-18.5,4.6c-33.7,5.1-67.5,9.9-101.2,15
	c-17.5,2.6-34.3,6.7-47.9,19.4c-6.8,6.4-16.3,8.7-21.9,0.8c-4-5.7-5.5-16.1-3.1-22.6c2.5-6.9,9.9-13.7,16.8-16.8
	c12.5-5.6,25.9-9.7,39.4-12.2c39.8-7.6,79.8-14,119.8-21C1890.4,2306,1893.1,2305.5,1900.1,2304.3z"/>
<path d="M1961.6,2662.6c-35.1-0.2-59.5-10.2-74.2-35.6c-5.6-9.7-6.8-22.6-7.3-34.2c-0.2-4.3,6.6-10.8,11.6-12.7
	c3.2-1.2,10,3,13.3,6.6c4.2,4.7,6.3,11.2,9.8,16.7c22.6,35.1,64.2,34,84.7-2.3c2.3-4,4.1-8.3,6.4-12.3c4.5-8,11.8-14.7,19.9-9.1
	c5.4,3.7,9.5,13.8,8.9,20.7C2031.9,2636.6,1997.9,2662.5,1961.6,2662.6z"/>
<path d="M2402.3,2618.8c5.2,17.4,0.5,34.7-5.4,50.8c-7.5,20.7-16.5,41.2-27.5,60.1c-5.6,9.7-16.2,17.9-26.5,23
	c-5.2,2.6-16.5-0.7-21.6-5.2c-7.2-6.3-3.9-15.2,2.8-21.8c2-1.9,3.9-4,6.1-5.7c20.9-16.1,31.2-38.3,36.7-63.4
	c1.6-7.2,2.8-14.5,4.7-21.6C2376.7,2616.2,2378,2615.6,2402.3,2618.8z"/>
<path d="M2428.6,2508.7c-5.3,6.3-9.3,15.5-16,18.3c-12.7,5.3-17.8-5.1-20.8-15.5c-3.3-11.5-8-23.1-8.3-34.7
	c-0.1-6.4,6.3-15.5,12.3-18.4c3.8-1.9,15.1,3.7,17.7,8.7C2419.9,2478.9,2423.1,2492.5,2428.6,2508.7z"/>
<path d="M2253.7,2319.4c3.2-3.3,8-12.2,15-14.5c10.8-3.6,27.2,15.4,27,29.5c-0.1,8.4-4,14.1-13.1,14.7
	C2268.7,2350.1,2254.4,2337.9,2253.7,2319.4z"/>
<path d="M2110.3,2796.2c0.1,11.3-7.8,20.5-17.8,20.6c-10,0.1-18.2-8.8-18.4-20.2c-0.2-11.1,5.2-17.2,16.4-17.9
	C2102.8,2778,2110.2,2784.5,2110.3,2796.2z"/>
</svg>
