<?xml version="1.0" encoding="utf-8"?>
<!-- Generator: Adobe Illustrator 24.3.0, SVG Export Plug-In . SVG Version: 6.00 Build 0)  -->
<svg version="1.1" id="Layer_1" xmlns="http://www.w3.org/2000/svg" xmlns:xlink="http://www.w3.org/1999/xlink" x="0px" y="0px"
	 viewBox="0 0 4000 4000" style="enable-background:new 0 0 4000 4000;" xml:space="preserve">
<path d="M3615.8,2854.2c-63.5-4.2-116.7-6.7-169.7-11.7c-40.6-3.8-78,4.2-115,20c-77.3,33-154.6,66.5-233,96.8
	c-116.5,45.1-237.8,73.2-360.5,95.8c-194.5,35.9-390.9,48-588.2,51c-189.7,2.9-379.4,0.7-568.7-13.4
	c-202.1-15-402.6-40.6-599.4-90.1c-102.4-25.7-202.9-58.1-298.3-103.4c-42.6-20.2-81.2-20.6-125.4-5.4
	c-53.1,18.3-108.2,31.7-163.4,42.7c-43.9,8.8-89,6.9-133.4-2.1c-117.5-23.9-180.8-109.1-192.1-211.3
	c-16.1-145.4,37.3-264.8,146-360.7c3.2-2.8,6.8-5.2,10.1-7.9c21.7-17.6,21.7-18.3,11.5-45.7c-5.9-16-11.6-32-16.9-48.2
	c-61.7-190,35.6-353.7,180.8-432.9c17.7-9.7,36.4-17.5,54.8-25.9c24.4-11.1,24.9-12.6,21.2-38.6c-4.3-30.5-9.9-61.1-10.8-91.8
	c-5.5-176.6,100.6-318.5,264.6-373.6c47-15.8,97-23.8,146.2-31.9c20-3.3,30-10.3,35.9-29c20-63.6,51.1-121.4,92.2-174.1
	c70.8-90.9,163.5-144.3,276.6-163c90-14.9,178.7-8.2,264.7,21.7c26.5,9.2,41.5,4.8,59.6-16.4c107.9-126.5,248-174.8,411-162.1
	c87.5,6.8,169.3,33.2,241.3,84.6c27.6,19.7,53.1,42.8,77.2,66.8c14.2,14.1,26,17.7,44.8,10.2c79.4-31.8,162.2-44.4,247.4-36.7
	c139.4,12.7,249.1,74.8,321,197.7c9.7,16.5,20.3,32.9,27,50.6c10.9,28.7,28.9,39.2,60.1,39.6c66.7,0.8,130.4,17.1,190.1,48.4
	c87.9,45.9,143.8,118.1,176.3,210c20.8,58.8,31.2,119.7,30,182c-0.5,25.3,7.5,40.6,31,52.5c77.5,39.2,141.8,94.3,188.6,168
	c66.7,105.1,83,219.6,61.1,340.8c-0.6,3.1-1.4,6.2-1.9,9.4c-9.8,57.8-10.1,58.1,33.2,98.8c58.3,54.7,106.1,116.7,134,192.3
	c25.1,68,35.6,138,24,210.4c-16.3,101.4-69.4,157.2-171.6,175.1C3688.9,2850.7,3647.1,2851.5,3615.8,2854.2z M3617.9,2813
	c47.4,0.5,93.6-5.9,138.8-19.6c53-16.2,87.6-49.6,101.2-104.8c9.6-38.9,12.5-77.8,6.8-117.2c-12.5-86.6-46.9-163.5-105.6-228.7
	c-24.2-26.9-50.2-52.2-76.2-77.3c-19.3-18.6-27.2-38.3-20.4-65.8c7.4-29.8,11.7-60.6,15-91.3c12.4-117-18.2-221.4-93.5-312.3
	c-42.9-51.8-96.3-90.1-156-119.9c-24.7-12.3-34.6-30-36.3-57.9c-3-49.8-5.7-100.5-17.3-148.7c-33.9-140.6-119.9-232.9-263.9-264.3
	c-35.1-7.6-71.6-10.2-107.6-11.5c-27-1-43.8-11.3-54.5-35.7c-10.2-23.4-21.5-46.5-34.1-68.7c-26-45.9-59.3-85.4-103.2-116
	c-87.8-61.1-185.5-79.4-289-62.9c-49,7.8-96.9,24.2-144.4,39.5c-25.8,8.3-44.3,5.2-62.2-15.6c-17.3-20.1-35.9-39.8-57-55.8
	c-128.7-97.5-271-123.1-425.6-76c-85.1,25.9-153.5,77-210.5,144.4c-29.1,34.4-29.4,34.2-72.8,19.3c-45.4-15.6-91.5-29-139.8-31.8
	c-131.4-7.6-249.3,23.8-344.2,120.6c-53.3,54.3-89.4,118.8-113.7,190.5c-19.6,57.7-19.6,58-79.3,63.9c-63.2,6.2-124,21.3-180.2,51.2
	c-114.3,60.8-180.9,153.9-184.1,285.5c-1.1,43.3,6.5,86.9,11.8,130.1c3.6,29.9,1.6,37.3-24.2,52.2c-7.3,4.2-15.7,6.7-23.1,10.8
	c-35.2,19.7-73.2,35.9-104.8,60.4c-99.8,77.5-145.8,178.7-120.3,305.9c6.7,33.2,18.6,65.5,30.4,97.3c23.4,63.3,13.3,54.1-24.6,83
	C150,2464.5,99.4,2568.7,107.1,2699c6.6,111.5,74.7,184.5,185.5,196.6c36.5,4,75,2.7,110.9-4.5c54-10.8,107.1-27.3,159.6-44.5
	c40.9-13.4,78.3-11.1,117.5,6.6c53.3,24,107.4,47.1,162.9,65.5c206.2,68.5,419,106.6,635.1,123.4c144.4,11.2,289.3,17,434.1,20.7
	c234.5,6,468.7-0.7,701.8-31.5c156.8-20.7,310.7-52.6,458.8-108.7c80.6-30.5,160.2-63.8,239-98.7c54.7-24.2,110.4-28.4,168.6-21.9
	C3526.5,2806.9,3572.3,2809.4,3617.9,2813z"/>
<path d="M3323.3,2601.7c0.8,15.9-4.6,23.2-17.8,24.8c-13.1,1.6-20.6-4.3-23.2-16.3c-5.6-26-10.6-52.2-16-78.2
	c-37.3-179.4-96.1-351-185.1-511.7c-135.9-245.4-334.3-422.1-590.7-534.5c-8.8-3.8-17.9-7.1-26.2-11.7
	c-14.9-8.1-20.2-19.9-13.9-30.9c7.1-12.5,17.6-13.7,30.1-7.7c48,22.9,97.3,43.4,144,68.7c233.2,126.5,404,312.4,520.9,549.6
	c83.9,170.2,142.5,348.6,175.7,535.3C3322,2594.5,3322.9,2599.7,3323.3,2601.7z"/>
<path d="M678.1,2568.8c7.5-34.3,14.7-76.4,25.9-117.3c32.4-118.1,70.2-234.5,125.8-344.1c93.7-184.7,218.8-344.2,380-475.3
	c73.8-60,152.2-112.7,234-160.7c8.2-4.8,17.4-10.7,26.1-10.6c7.8,0.1,17.6,5.9,22.9,12.3c7.2,8.5,3.5,18.6-5.8,24.6
	c-15.2,9.8-30.9,18.8-46.5,28c-120.1,70.1-230.9,152.2-327.7,252.7c-185.7,192.7-303.6,421.7-366,680.7c-9.5,39.3-17.3,79-27,118.3
	c-2.1,8.4-7.4,18.9-14.3,22.6C691.3,2607.4,677.2,2594.4,678.1,2568.8z"/>
<path d="M1699.5,1388.4c-2.4,5.9-6.4,16.9-11.1,27.6c-35.5,81.4-95.5,142.7-163,197.8c-68.5,55.9-138.9,109.8-197.9,176.2
	c-28.9,32.5-53.5,68.8-80.5,103c-5,6.3-11.5,13.5-18.6,15.3c-11.3,3-23-10.5-19.7-22.3c3.2-11.1,8.7-21.7,14.4-31.8
	c34.5-61.2,83.2-110.4,134.8-156.9c36.4-32.8,75.1-63,111.9-95.3c36-31.6,71.5-63.8,106-97.1c36.4-35.2,65.1-75.9,82.3-124.1
	c1.4-4,3-8,5-11.7c5-9.3,12-14.8,23.4-11C1698.9,1362.2,1702.4,1371.1,1699.5,1388.4z"/>
<path d="M2373.6,2575.6c-53.3,0.5-98.2-43.1-99.3-96.3c-1-54.7,43.3-102.5,96-103.3c56.1-0.8,99.6,41.6,100.3,97.9
	C2471.3,2529.9,2428.2,2575.1,2373.6,2575.6z"/>
<path d="M1603,2575.7c-52.4-0.3-95.2-43.1-95.3-95.1c-0.1-54.8,45-101.5,97.8-101.2c52.8,0.3,97.7,45.4,97.3,97.8
	C1702.5,2532.3,1658.1,2576,1603,2575.7z"/>
<path d="M1842.5,1319.1c36.2-6.7,41.1-2.9,41.6,29.1c1.9,126.3-37.9,240.5-101.7,347.6c-41.9,70.3-84.2,140.5-125.7,211.1
	c-6.9,11.7-13.9,18.7-27.8,13c-15.1-6.2-13.4-17.8-8.1-29.2c9.9-21.2,19.5-42.6,31.4-62.6c29.9-50.3,61.4-99.6,91.5-149.7
	c46.9-78.2,82.2-161,93-252.5c2.9-24.2,2.9-48.8,4.2-73.2C1841.5,1341.2,1842,1329.8,1842.5,1319.1z"/>
<path d="M2602.9,1878.3c1.1,12.6-3.9,20.9-16.2,24.1c-13.9,3.6-22.3-2.5-26.7-15.7c-9.4-28.2-17.3-57.1-29-84.3
	c-22.1-51.4-56.5-95.1-92.8-137.1c-36.3-41.9-74-82.5-109.1-125.4c-32.4-39.7-60.9-82.3-74.9-132.6c-2.5-9.1-4.2-18.8-3.8-28.1
	c0.5-11.8,7.5-20,20-21c11.2-0.9,17.7,5.6,21,15.8c1,3,1.8,6.1,2.5,9.3c11.5,55,42,99.6,77.3,141.5
	c49.4,58.6,100.5,115.8,148.2,175.8c36.7,46.2,62.1,99.2,78.2,156.2C2599.8,1863.7,2601.2,1871,2602.9,1878.3z"/>
<path d="M2186.4,1886.6c-33.1,9.9-40.6,7.1-38.9-17.8c8.3-122.6-32-234.9-71.1-347.6c-17.5-50.3-32.7-101.3-37.1-154.7
	c-0.9-10.6-0.8-21.3-0.4-31.9c0.4-12,5.5-20.3,19-20.9c14.5-0.6,21.6,7.3,23.1,20.8c1.8,16.9,0.5,34.5,4.8,50.7
	c16,60.6,31.9,121.3,51.2,180.9c25,77.2,48.5,154.4,51.2,236.2C2189,1830.8,2187,1859.3,2186.4,1886.6z"/>
<path d="M1993.3,2695.3c-68.5-3.3-119.4-39.5-135.3-99.4c-1.9-7.1-4.8-15.4-2.8-21.7c2.2-7,8.4-14.9,15-17.9
	c9.2-4.1,19.2-0.9,23.7,9.9c3.3,7.8,5.4,16.1,8.4,24c15.2,40.4,43.4,57.4,93.1,56.4c40.1-0.8,69.2-21.6,82-58.5
	c2.1-6,3.9-12.2,5.9-18.2c4.4-13.6,13.8-18.6,27.2-14.5c13.4,4.1,18.9,14.4,15.5,27.3c-10.9,41.5-29.8,78.3-71.9,95.8
	C2034.8,2686.5,2013.6,2689.9,1993.3,2695.3z"/>
<path d="M3574.6,2229.1c-9.4,9.6-14.4,18.1-21.7,21.4c-9.4,4.2-20.7,3.8-31,6.1c-64.2,13.9-128.4,27.9-192.6,42
	c-5.2,1.1-10.1,3.2-15.3,4.4c-17.6,4-25.3,0.3-29.7-14.1c-4.3-14.2-0.3-22.7,16.8-28.8c16.9-6,34.5-10.7,52.1-14.4
	c54-11.5,108-22.5,162.2-33c11.3-2.2,23.7-3.3,34.8-1.1C3557.7,2213.1,3564,2221.2,3574.6,2229.1z"/>
<path d="M833.4,2568.1c1.1-10.5,1.3-21.2,3.6-31.5c2.5-11.4,10.1-18.5,22.6-18.4c14.4,0.1,17,10.6,17.9,21.7
	c1.1,13.7,0.8,27.6,1.9,41.3c5.1,62.4,30.8,111.9,89.4,140.4c2.9,1.4,5.5,3.1,8.3,4.7c10.2,5.8,17.1,13.6,11.1,25.9
	c-5.1,10.6-14.4,16.3-26.1,13.5c-10.2-2.5-20.4-6.2-29.5-11.4c-33.3-19.1-56.9-47.5-73.3-81.7
	C843.7,2639.6,833.2,2605.2,833.4,2568.1z"/>
<path d="M1019.2,1375.8c4.1,2.5,11.3,5.2,16.3,10.2c8.2,8.2,15,17.8,22.5,26.8c39.5,47.2,79,94.3,118.5,141.5
	c4.8,5.7,9.6,11.3,14.3,17.1c7.8,9.6,8.9,19.5-0.8,28.2c-9,8-19.7,8.6-29,0.9c-8.9-7.4-17.2-15.8-24.7-24.7
	c-42.5-50.2-84.8-100.5-126.9-151.1c-5.3-6.4-10.1-13.9-12.5-21.7C992.8,1390,1003.7,1376.2,1019.2,1375.8z"/>
<path d="M837.1,1986.3c0.2,19-14,31.9-27.5,29.9c-5.1-0.8-10.3-2.8-14.9-5.3c-59.5-32.8-118.8-65.8-178.1-98.9
	c-5.4-3-11.1-7.1-14.5-12.1c-7.5-10.9-5.6-22.4,2.7-32.2c7.7-9.1,16.2-6.4,25.6-1.2c61.2,34,122.8,67.4,183.8,101.5
	C823.7,1973.1,831.4,1981.5,837.1,1986.3z"/>
<path d="M3305,1715.3c-4.4,4.4-10.5,12.9-18.6,18.4c-35.2,23.8-71.2,46.3-106.5,70.1c-22,14.8-43,31.1-64.6,46.6
	c-21.9,15.7-28.5,16.4-38.1,4.2c-11.9-15-9.7-26.1,12-41.8c36.1-26.2,72.9-51.4,109.8-76.5c22.8-15.6,45.7-31.1,69.5-45.1
	C3285.9,1680.9,3305.2,1691.8,3305,1715.3z"/>
<path d="M408.5,2398.5c45.1,7.7,90.9,15.7,136.8,23.2c19.9,3.2,40,5,59.9,7.8c9.4,1.3,18.9,2.9,27.9,5.7
	c13.2,4.1,17.7,14.7,15.7,27.6c-2.2,13.7-13.1,16.2-24.2,14.7c-46.2-6.2-92.4-12.5-138.4-20.1c-21.9-3.6-43.6-9.2-65-15.2
	C392.9,2434.4,390.8,2426.7,408.5,2398.5z"/>
<path d="M2756.7,1528.1c-19.3-1.4-30.3-16.7-24.4-30c7.7-17.4,17.1-34.2,27.5-50.2c29-44.5,58.8-88.4,88.4-132.4
	c3.5-5.3,6.7-12.8,11.7-14.6c8-2.9,18.4-4.7,26-2c11.3,4,10.3,15,5.3,24.3c-5,9.4-10.9,18.2-16.5,27.2
	c-33.3,53-66.4,106.1-100.2,158.8C2769.3,1517.1,2761.2,1523.4,2756.7,1528.1z"/>
<path d="M1710.9,1300.1c-3.3,3.4-8.2,11.9-15.3,15.1c-10.8,4.8-21,0.9-25.9-11.3c-2.4-5.9-4.6-11.9-6.3-18.1
	c-16.7-58.3-33.6-116.5-49.4-175c-2.2-8.2-1.6-19.8,2.9-26.2c3.3-4.8,15.5-6.3,22.7-4.5c5.9,1.4,12.8,8.9,14.6,15
	c19.2,64.2,37.4,128.7,55.9,193.1C1710.6,1290.3,1710.4,1292.5,1710.9,1300.1z"/>
<path d="M2300.5,1312c-35.1,3.7-41.5-1.8-36.3-31.4c8.1-46,17.9-91.8,26.7-137.7c3.6-18.8,5.9-37.9,10.3-56.4
	c4.3-17.7,12.7-23.3,26.4-20.8c13.4,2.4,18.8,10.3,15.2,29.6C2329.4,1167.4,2314.9,1239.2,2300.5,1312z"/>
<path d="M1074.4,2809.1c-12.6,0.3-23.5-8.4-24.7-19.8c-1.4-13.3,13.4-28.6,27.8-28.7c11.4-0.1,21.8,10,22.4,22
	C1100.7,2796.5,1088.9,2808.7,1074.4,2809.1z"/>
<path d="M906.6,2420.1c-0.2,12.3-12.5,23.8-25.1,23.7c-13.3-0.2-24.8-11.2-24.9-23.9c-0.1-13.3,10.7-23.3,24.9-22.8
	C896.2,2397.5,906.9,2407.3,906.6,2420.1z"/>
</svg>
