<?xml version="1.0" encoding="utf-8"?>
<!-- Generator: Adobe Illustrator 24.3.0, SVG Export Plug-In . SVG Version: 6.00 Build 0)  -->
<svg version="1.1" id="Layer_1" xmlns="http://www.w3.org/2000/svg" xmlns:xlink="http://www.w3.org/1999/xlink" x="0px" y="0px"
	 viewBox="0 0 4000 4000" style="enable-background:new 0 0 4000 4000;" xml:space="preserve">
<path d="M2173.6,400.1c7.8-3.7,16.3-7.7,24.7-11.8c41.5-20.3,76.6-17.1,109.4,15.5c21.1,21.1,39.9,45.5,55.2,71.2
	c107.8,181.9,263.6,311.9,444.4,415.3c93.2,53.3,187.4,104.7,280.1,158.8c137,80,264.5,172.2,374.8,287.6
	c122.7,128.3,213.6,276.3,281.7,439c77.5,184.9,117.9,377.5,110.7,578.4c-6.9,192-49.8,375.1-148.9,542.1
	c-77.7,130.9-183.4,235.4-307.9,321.8c-122,84.6-256.1,143.8-396.4,190.4c-135.5,45-274.9,72.5-415.8,93
	c-284.1,41.3-569.5,47.9-855.6,28.3c-215.7-14.8-429.6-42.8-638.7-99.6c-188.5-51.2-367.9-123.6-528.9-236.8
	c-218.9-153.9-357.8-360.9-416.3-622.4c-23.1-103.1-35.9-207.5-31.5-312.4c10.6-255.9,83.7-493.5,224.6-708.6
	c121.8-185.8,282.5-331.3,468.7-450.6c148.2-94.9,309.5-161.9,472.3-225.9c121.3-47.7,241.3-98.2,352.7-166.8
	c68.1-41.9,130.9-90.5,186.9-147.8c33.9-34.8,63.1-73,85.8-116c11.6-21.9,25.1-40.6,52.2-45.8c7.4-1.4,13.6-11.5,19.3-18.4
	c2.9-3.5,3.2-9,5-13.5c25.6-61,84.2-76.1,134.3-32C2137.7,351.9,2153.8,376.6,2173.6,400.1z M1965.8,480.6c-3.6-1.7-7.2-3.4-10.8-5
	c-11,12.1-23.4,23.1-32.7,36.4c-74.3,105.8-171.3,185.7-282.6,249.4c-121.8,69.7-252,120.9-382,172.7
	c-176.2,70.2-348.6,147.6-503.9,259c-181.3,130-330.8,288.1-437.3,485c-118.4,219-167.3,453.6-151.4,701.5
	c7.5,116.2,29.6,229.8,73,338.3c76.9,192.3,208.4,340,377.9,455.2c155.5,105.7,329.1,171.3,509.6,218.3
	c222.6,58,450.2,85.9,679.6,94.5c224.3,8.4,448.7,7.7,672.3-19c147.5-17.6,293.8-40.1,436.8-80.8c205.2-58.5,395.4-146.5,558.6-287
	c148.8-128.2,249-286.7,297.6-477.3c47-184.3,49.5-370.3,13.4-556.1c-75-385.7-282-684.3-605.3-904.4
	c-112.9-76.9-234.9-138.1-353.9-204.5c-114.2-63.7-222-136-317.6-226.1c-49.5-46.7-90.8-99.8-129.6-155.2
	c-5.6-7.9-13.1-14.5-23-25.4c-1.2,10.5-2.4,14.1-1.8,17.4c2.6,15.5,5.1,31,8.7,46.2c44.5,187.2,138.2,346.5,277.2,478.4
	c55.9,53,117.5,100,176.5,149.8c23,19.4,27.6,31.3,16.9,44.3c-11.1,13.5-23.8,12.4-47.5-5.6c-105.9-80.5-207.1-166-287.5-273.5
	c-116.5-155.9-192.8-327.8-210.8-523.3c-1-10.7-2.3-21.8-5.9-31.8c-7.7-21.2-21.3-27.2-42.8-20.7c-31.9,9.6-44,30.6-38.1,67.4
	c6.7,41.7,16.4,83,20.5,124.9c10.5,108,17,216.5,28,324.5c20.4,200.1,86.1,382.7,215.2,539.8c6.1,7.4,13.4,15.2,15.7,24
	c2.1,7.9,0.7,19.4-4,25.7c-7.2,9.6-19.6,9.8-29.1,1.9c-8.3-6.8-15.2-15.4-22.1-23.7c-103.4-125.4-168.6-269.3-204-427
	c-24.1-107.5-33-216.8-38.1-326.7c-4.4-94.2-14.9-187.8-39.4-279c-8.7-32.2-23.5-63.1-38.9-92.9c-8.7-16.8-23.9-32.9-46.2-28.6
	c-24.3,4.7-24.8,26.3-26.6,45.8c-0.5,6-1.7,12-2.2,18c-9.6,114.1-46.1,219.3-108.4,314.9c-75.9,116.3-178.5,205.2-294.5,279.4
	c-62,39.6-125.5,76.8-187.5,116.4c-125.5,80.2-235.9,175.9-311.4,306.9c-2.4,4.2-4.8,8.5-8,12c-8.6,9.7-20.4,10.8-29,3.1
	c-5.8-5.1-9.8-16.5-8.6-24.2c1.5-10.2,8.4-19.8,13.8-29.1c51.1-87.6,118.1-161.3,196.1-225.5c67.3-55.4,140.5-101.9,215.2-146.4
	c106-63,208.1-131.5,291.9-223.7c74.1-81.5,131.9-172.3,159.4-280.1C1961.4,513.2,1963.1,496.7,1965.8,480.6z"/>
<path d="M1739.3,1648.6c-36.2,5.8-42.3,1.6-39.7-30.2c6.7-81,26.1-159.3,54.3-235.4c32.9-88.5,78.9-170.5,123.2-253.6
	c34-63.8,65.5-129,96.1-194.5c32.4-69.4,48.5-143.6,59-219.2c1.7-11.9,3.7-23.8,6.2-35.6c2.7-12.9,12-17.2,24.3-16.4
	c12.6,0.8,20.2,7.8,21.4,20.2c0.7,8.3,0,16.8-0.8,25.2c-8.5,86-31.5,168.6-67.2,246.8c-36.5,80-76.2,158.7-117.7,236.2
	c-57.6,107.7-113.6,215.7-137.8,336.8C1752.7,1568,1746.5,1607.3,1739.3,1648.6z"/>
</svg>
