<?xml version="1.0" encoding="utf-8"?>
<!-- Generator: Adobe Illustrator 24.3.0, SVG Export Plug-In . SVG Version: 6.00 Build 0)  -->
<svg version="1.1" id="Layer_1" xmlns="http://www.w3.org/2000/svg" xmlns:xlink="http://www.w3.org/1999/xlink" x="0px" y="0px"
	 viewBox="0 0 4000 4000" style="enable-background:new 0 0 4000 4000;" xml:space="preserve">
<path d="M1975.6,170.5c350.5,3.9,677.6,101.6,975.6,297.8C3125,582.6,3273.1,723,3395.1,891c150,206.7,255.3,433.9,309.3,684.3
	c32,148.4,50.4,298.2,44,450c-14,336.1-105.9,648.2-290,931.9c-178.3,274.8-414.6,484.2-706.2,631.6
	c-165.1,83.5-340.1,136.7-523.2,164.5c-149.3,22.6-299,27.8-448.6,10c-276-33-532.5-122.1-767-273.4
	c-154.9-99.9-292.9-218.7-410-360.3c-198.4-239.9-331-512-387.4-819.3c-31.8-173.1-40.4-347.8-20.9-523
	c30.6-275.1,116.8-531.5,262.3-767.9c103-167.3,229-314.6,379.9-439.9c196.7-163.3,418.1-279.8,665.9-345.8
	C1656.3,192.8,1812,172.9,1975.6,170.5z M2515.3,2353.5c10.1,6.1,20,9.7,26.5,16.5c7.4,7.6,11.7,18.2,17.4,27.4
	c26.3,42.7,56.5,56,104.5,43.3c29.3-7.8,57.8-18.5,86.8-27.7c12.7-4,15.7-14.3,17-25.3c3.7-33.5,8.9-66.9,10-100.5
	c2.1-68.5,0.8-137,3-205.5c1.8-55.4,4-111,11.1-165.8c13.8-107.4,83.2-166.4,176.1-175.3c43.3-4.1,86.7-6.4,129.9-11.2
	c83.4-9.2,122.9-71,98.5-151.7c-12.2-40.2-36-71.6-70.1-95.3c-22.3-15.5-45.8-29.3-68.2-44.7c-75.1-51.8-104.3-122.7-85.8-212.2
	c6.1-29.7,13.9-59.3,22.6-88.4c21.7-72.6-14.2-157.7-82-195.6c-40.2-22.5-82-39.4-127.3-48.6c-53.7-10.9-107.8-13.1-162.3-11.4
	c-95.8,3-191.4-0.4-286.1-16.2c-150-24.9-299.2-19.6-446.9,13.9c-142,32.2-283.2,39.3-426.5,7.7c-71.9-15.9-145.2-27.4-218.5-34.9
	c-81.9-8.4-162.9,0.3-239.2,35.1c-69.5,31.8-112.9,83.9-121.6,161.1c-3.6,32.3-3.8,65-5.5,97.6c-3.7,71.4-17,139.7-78.1,185.8
	c-27.4,20.7-59,36.2-90.2,51.2c-31.3,15.1-64.6,25.8-96.4,39.7c-31,13.6-60.1,30.7-82.5,57c-57.5,67.5-36.2,147.6,47.1,177
	c8.2,2.9,16.7,4.9,25.1,6.9c18,4.2,36.1,7.9,54,12.2c99.9,24.2,169.7,68.5,190.5,213.9c8.5,59.2-1.4,117.2-11.2,175
	c-12.8,75.1-28.5,149.8-24.1,226.5c1.6,27.8,6.4,56.5,15.6,82.7c20.6,59,64.4,90.8,121.9,91.2c62.8,0.5,112.6-23.1,139-83.2
	c8.6-19.7,16.1-41.1,17.7-62.3c3.4-44.2,4.2-88.8,3.1-133.2c-1.4-59.8-5.1-119.3,4.3-178.9c21.3-135.4,105.1-248.1,257.5-275.1
	c132.2-23.5,264.3,32.8,296.8,194.2c11.9,59.2,11.8,118.7,10.1,178.6c-1.4,49.9-2.6,100.3,2.3,149.8
	c7.8,78.9,42.2,144.3,115.9,181.3c60.5,30.4,121.5,31.7,178.6-10c32.8-23.9,55-56.9,64.3-95.7c11.7-48.4,18.2-98,27.2-147.1
	c8.6-46.9,12.4-95.5,27.3-140.3c28-84.4,89.1-132.7,179.6-136.3c83.7-3.4,148.4,32.2,186.3,107.2c15.3,30.3,23.9,65.3,29.5,99.1
	c10.1,60.5,1.3,121.4-2.6,182.1c-3.9,60.7-8.9,121.5-8.2,182.2c0.8,63.8,21.8,119.6,82.6,152.6c32.1,17.3,64.7,18,97.1,3.1
	c54-24.9,96.5-102.8,90.7-166.5c-8.4,1.9-16.9,2.7-24.5,5.8c-34.2,13.7-69.8,16.2-105.8,14c-46.1-2.8-79.4-27.6-102.5-66
	C2505,2401.2,2505,2379.7,2515.3,2353.5z M2408.7,2042.2c-6-11.3-9-19.4-14-25.8c-39.5-51.3-116.3-67.6-173.8-37
	c-55.1,29.2-79.3,78.7-87.8,137.2c-6.2,43-8.8,86.5-14.2,129.7c-7.2,57.5-16.8,115.7-51.4,163.2c-24.2,33.3-34.1,66.5-28.5,105.8
	c0.5,3.2,0.1,6.5,0.1,9.8c0.1,137,0.2,274.1,0.5,411.1c0,13.8,1.2,27.7,1.8,41.6c14.3,2.2,25.8,4,40.5,6.3c1.9,36,0.1,71-20.1,100.6
	c-21.7,31.7-29,64.5-23.5,101.6c1.6,10.7,0.8,21.7,0.8,32.6c0.1,151.2,0.1,302.3,0.2,453.5c0,12.5,0.8,25.1,1.3,37.5
	c356.3-17.9,675.1-130.8,955.3-343.9c287.9-218.9,492.2-499.9,608.2-844.5c72.2-214.5,99.1-527.7,81.3-614c-277.5,0-555.4,0-836.2,0
	c-2,15.5-5.1,29.2-5.4,42.9c-2.1,81.5-3.9,163.1-5.4,244.6c-1.8,97.8-4.1,195.4-24.2,292c-12.3,58.8-33.8,111.5-70.5,159.1
	c-45.6,59.1-44.7,60-118.2,60.4c-122.9,0.7-245.8,1.1-368.7,1.4c-14.1,0-28.4-0.1-42.3-1.9c-21.9-2.8-35.3-15.8-39.1-37.7
	c-1.5-8.5-2.3-17.3-2.4-25.9c-0.5-180.5-1.1-361.1-1-541.6c0-40,12.2-52,51.7-55.8c7.6-0.7,15.2-0.7,22.8-0.7
	c42.4-0.1,84.8,0.1,127.2-0.1C2383.9,2044,2394.2,2043,2408.7,2042.2z M243.7,1912.7c-10.1,491.6,150.7,917.5,492.2,1273.7
	c351.9,367,827.3,519.2,1140.1,518.5c0-27.8,0.1-55.8,0-83.8c-0.6-139.2-1.5-278.4-1.5-417.6c0-21.1-5.4-34.9-26.7-42.2
	c-12-4.1-23.1-12.1-33.3-20c-44.7-34.9-54-84.7-55-137c-0.3-16.2,12.3-27.1,26.5-27.9c14-0.9,22,8.2,24.6,28.3
	c0.8,6.5,0.6,13,1.1,19.5c1.8,25.9,12,48.3,28.8,67.8c8.5,9.9,17.7,18.7,32.7,18.2c0-197.6,0-393.7,0-592.3
	c-46.7-4.7-88.2-15.2-126.9-44.6c-1.1,11.9-2.2,19-2.2,26c0.2,47.8,1.8,95.7,0.8,143.5c-0.9,42.1-17.5,58.2-59.4,62.3
	c-5.4,0.5-10.9,0.7-16.3,0.7c-137-0.1-274-0.3-411-0.6c-7.6,0-15.3-0.4-22.8-1.6c-23.5-3.5-36.9-16-41-39.4
	c-1.7-9.6-1.5-19.5-1.6-29.3c-0.2-84.8-0.3-169.6-0.4-254.5c-0.1-88.1-0.8-176.2,0-264.2c0.5-52.2,17.1-68.2,68.2-68.4
	c108.7-0.4,217.5-0.2,326.2-0.4c11.4,0,22.9-1.1,37.2-1.8c-4.1-37.4-7.1-70.8-11.6-104c-4.5-32.8-5.5-34.2-39-34.5
	c-110.9-0.9-221.8-1.2-332.7-0.9c-38.5,0.1-43.4,4.4-53.7,42.8c-16.7,62.3-23.7,125.7-21.5,190.5c2,57.5,3.2,115.2,0.9,172.7
	c-3.1,76.9-32.8,141.3-100,184.2c-12.3,7.8-16.2,17.5-15.4,32.7c2,37.9,2.8,76.1,1.3,114.1c-1.7,43.8-16.8,59.9-60.1,60.1
	c-130.5,0.7-260.9-0.7-391.4-0.9c-19.7,0-33.4-8.3-42.1-25.2c-10.5-20.2-21.4-40.4-30.4-61.3c-65.3-151.9-105.2-310.6-123.7-474.7
	c-2.1-18.3-2.7-37-1.3-55.3c2.1-25.8,13.9-36,40-37.8c10.8-0.8,21.7-0.7,32.6-0.7c89.2,0,178.3,0,267.5,0c11.8,0,23.6,0,39.1,0
	c4.8-47.3,12-91.5,7.8-135.9C751.8,1903.5,275.3,1904.2,243.7,1912.7z M3053.4,1121.6c14,1.1,22.4,2.4,30.9,2.4
	c45.7,0.2,91.3-0.2,137,0.1c75.9,0.5,76.2,0.4,113.6,68.4c79.7,144.8,137.4,297.8,170.7,459.9c1.7,8.5,3.3,17.2,3.6,25.8
	c0.8,24.7-8.2,35.9-33.2,39.9c-13.9,2.2-28.2,2.8-42.2,2.8c-58.7,0-117.5,0-176.2-1.2c-17.6-0.4-30.9,3.3-42.7,17.5
	c-19.9,24.1-45.9,40.5-77.1,45.5c-33.1,5.4-66.6,9-100,12.3c-27,2.7-54.5,1.8-81.2,6.1c-40.4,6.5-70.8,27.9-91.3,72.6
	c277.9-2.6,549.8,2.7,822-1.7C3636.8,916.8,2841.7,246.1,2041,237.1c0,185.2,0,370.3,0,556.5c44.5-2.3,86.3-4.4,131.1-6.6
	c0-13.2,0-23.8,0-34.4c-0.4-100-1.5-200.1-1-300.1c0.2-42.2,18.6-55.7,60.2-49.7c94,13.5,185.2,38.3,273.9,71.3
	c53.9,20,106.2,44.3,158.8,67.8c33.3,14.9,47.6,41.8,47,78.5c-0.8,54.4,0.2,108.7,0.5,163.1c0.1,12.8,0,25.6,0,38.9
	c45.6,8,87.8,15.5,133.1,23.4c1.2-11.9,2.9-22.3,3.3-32.8c0.9-25,0.9-50,1.7-75c0.3-8.7,0.2-17.6,2.5-25.9
	c6.8-24.7,24.8-33.1,47.1-20.6c15.1,8.4,29.6,18.6,42.4,30.1c60.6,54.5,120.8,109.4,180.4,165c13.4,12.5,25.2,27.3,34.7,42.9
	c14.7,24.1,3.5,46.2-24.3,49.3c-20.4,2.3-41.2,1.1-61.9,2c-11.3,0.5-22.5,2-38.8,3.6C3057.6,1029.4,3062.4,1073,3053.4,1121.6z
	 M788.4,1870.4c-7.7-30.8-20.6-56.9-38.7-80.3c-24.8-32.1-55.4-55.8-98-57.3c-57.6-2-115.1-2.9-172.7-4.4c-15.2-0.4-30.6,0.2-45.6-2
	c-21.3-3.1-30.3-13.7-31.3-35.2c-0.5-9.7,0.5-19.6,2.4-29.1c7.2-35.1,13.6-70.5,23.3-105c7.6-27,16-55,30.6-78.4
	c19.8-31.7,33.8-65.3,48.6-99.2c32.7-74.6,67.9-148.1,101.8-222.2c10.7-23.4,27.5-33.9,54-32.8c39.1,1.7,78.3,0.8,117.4,0.7
	c11.7,0,23.3-1.2,35.2-1.8c5.9-47.6,11.4-92.1,17.1-137.8c-17.2-1.8-32.4-2.3-47.1-5.1c-35.6-7-45.9-28.7-25.4-58.7
	c15.9-23.1,34.5-44.9,54.9-64.2c56.8-53.8,114.7-106.4,173-158.6c15.3-13.8,33.6-27.2,55.9-15.3c19.7,10.6,15.7,31.3,16.5,49.5
	c1,22.3,2,44.7,3.1,67.6c45.4-5.2,87-10,132.7-15.3c0-12.9,0.2-25.7,0-38.4c-0.7-40.2-0.1-80.5-2.6-120.7
	c-2.1-33.9,11.5-56.2,41.3-70.3c18.6-8.9,36.8-18.7,55.6-27.3c80.2-36.8,163.2-66.1,248.1-89.5c46-12.7,92.9-22.6,140-30.1
	c43-6.9,55.6,5.7,57.2,48.3c0.4,10.9,0.3,21.7,0.4,32.6c0.6,105.5,1.2,211,1.9,316.5c0.1,12.7,1.3,25.4,2.2,40.9
	c47.6-10.8,92.9-13.7,135.8-28.1c0-196.1,0-389.2,0-586.1C1443.8,264.3,1071,423.2,765,728.3c-316.2,315.3-485.8,698.7-520.1,1143
	C283.2,1879.9,756.7,1879.5,788.4,1870.4z M1682.7,2646.8c1.5-9.4,3.5-16.7,3.6-24c0.8-59.8,2.2-119.6,1-179.4
	c-0.3-14-7.2-29.4-15.3-41.3c-20.4-30.2-33.8-62.8-42.8-98c-13.9-54.5-13.2-109.8-12.2-165.3c0.2-10.3,0-20.7,0-30.5
	c-67.8-6.9-341.9-3.1-366.5,5.2c0,177,0,354.8,0,533.4C1395.6,2646.8,1538.5,2646.8,1682.7,2646.8z M462.2,2107.9
	c-0.6,8.1-1.8,12.5-1.1,16.6c13.4,78,25.1,156.5,41.3,234c19.4,92.8,56.3,180,90.9,267.9c7.6,19.3,19.9,22.1,37.8,22
	c110.8-0.9,221.6-0.9,332.3-1.4c9.3,0,18.6-1.5,30-2.5c1.5-41.4,3.1-79.8-0.8-119.8c-13.1,0-22.7-0.4-32.2,0.1
	c-44,2.2-83.1-10.3-119.1-35.9c-43.3-30.7-66.1-74.1-79.3-123.3c-16.1-59.9-11.5-120.5-4.2-181.2c3.1-25.2,11.7-50,8.1-76.4
	C664.1,2107.9,564.6,2107.9,462.2,2107.9z M1677.9,847c0.7-129.2,3.7-254.5-1-383.4c-51.2,13.5-98.4,24.7-145,38.4
	c-88.7,26-174.4,60.2-257.5,100.7c-15.6,7.6-22.7,17.9-22.3,35.6c0.7,40.2-0.1,80.4-0.1,120.6c0,9.5,0.8,19,1.5,31.7
	C1395.7,799.4,1530.3,852,1677.9,847z M2229.2,788.3c141.3,20.9,280.7,39.5,423.6,27.2c1-5.9,2.7-11.1,2.7-16.3
	c-0.1-58.7-0.9-117.4-0.3-176.1c0.2-17.9-7.2-27-23.1-34.5c-119.7-55.7-244.1-97.2-373.6-123.1c-9-1.8-18.4-1.9-29.3-2.9
	C2229.2,572.9,2229.2,680,2229.2,788.3z M3447.6,1663.7c-1.8-11.2-2.5-18.7-4.1-25.9c-35-152.2-92.7-295.9-161.9-435.4
	c-8.7-17.5-19.9-22.5-38.5-22c-47.7,1.1-95.5,0.3-143.3,0c-64.5-0.4-57.7-8.8-71.8,59.3c-12.2,58.7,6.1,107.2,55.9,142.2
	c18.6,13.1,37.9,25.3,57.2,37.5c84.5,53.4,127.2,128,117.3,229.6c-0.4,4.1,0.3,8.2,0.6,14.7
	C3321.3,1663.7,3382.4,1663.7,3447.6,1663.7z M2479.4,2648.4c-12.6-18.8-22.6-31.6-30.3-45.6c-29.9-54.1-37.9-113.1-34.6-173.5
	c3.3-59.6,9.7-119.1,15.4-178.6c4.6-47.6,3.6-95.1,1.9-141.5c-32.2-9.8-171.5-9.8-201.3-0.5c0,179.3,0,359,0,539.6
	C2313.1,2648.4,2393.1,2648.4,2479.4,2648.4z M2004.6,796.8c0-191.4,0-377.9,0-563c-31.9,0-61.4,0-90.5,0c-7.2,79-5.1,548.1,3,575.8
	C1945.3,805.5,1973.8,801.3,2004.6,796.8z M1909.2,2521.7c-2.3,200.1,0.7,399.3,0.8,598.5c71.9-0.2,97.4-26.6,96.9-90.8
	c-1.4-168.4-1.6-336.8-2.4-505.2c-0.1-11.4-1.4-22.8-2.2-34.1C1970.3,2500.9,1941.8,2510.6,1909.2,2521.7z M2004.7,3710.8
	c1-10,2.3-17.4,2.3-24.7c-0.4-165-0.9-330-1.6-494.9c0-10.3-2.2-20.6-3.3-29.8c-31.9,7-60.2,13.2-88.4,19.4
	c-7.6,39-7.4,503.9,0.6,530C1942.8,3710.8,1971.8,3710.8,2004.7,3710.8z M814.1,1181.5c-44.5,0-86.7,0.7-128.8-0.3
	c-19.4-0.5-29.4,7.8-37.1,24.7c-21.1,46.5-43.7,92.3-65.2,138.6c-3.8,8.1-5.3,17.2-9.5,31.3c28.3-12.4,51-22.3,73.7-32.3
	c33.7-15,68.4-28.2,100.8-45.7C792,1274.1,809.4,1233.3,814.1,1181.5z M1240.7,1873.2c114.7-2.8,228.1,5.9,345.8,1.6
	c-6-11.5-8.4-18.6-12.8-24.1c-19.7-24.4-45.5-40.4-75.3-48.9c-60.6-17.4-120.6-12-179,9.8
	C1287.7,1823.4,1261.4,1844.1,1240.7,1873.2z M3071.9,923.9c-22.5-37.4-138.8-143.9-166.4-152c0,28.9-0.6,56.9,0.4,84.8
	c0.2,6.5,4.1,15.1,9.1,18.8c22.7,16.4,46.4,31.4,69.9,46.6c3.5,2.3,8,4.2,12,4.1C3021.4,925.9,3045.7,924.8,3071.9,923.9z
	 M1001.4,763.7c-64.5,47-156.2,137.7-165.7,163.3c19,5.4,31.1-4.3,41.2-18.3c25-34.5,59.9-56.5,97.5-74.1
	c29.6-13.8,31.1-7.8,29.3-48.2C1003.3,780.2,1002.4,774,1001.4,763.7z"/>
<path d="M1419.9,1501.2c-97,0.4-171.6-72.2-171.3-166.8c0.3-94.5,72.8-166.8,166.8-167.8c91.3-1,167.7,70,168.7,162.5
	C1585.3,1429.8,1516.2,1500.8,1419.9,1501.2z M1461.6,1318.3c27.8,0.3,49.8-19.4,50-44.7c0.2-25-20.7-46.7-44.5-46.3
	c-27.3,0.5-48.4,23-48.1,51.1C1419.3,1300.5,1438,1318,1461.6,1318.3z"/>
<path d="M2405.1,1501.6c-108.7,3.6-171.3-95.5-169.3-168.9c2.5-95.1,76.1-167.1,172.6-165.5c88.8,1.4,167.2,76.2,165.1,160.4
	C2570.5,1445.2,2481.5,1505.9,2405.1,1501.6z M2456.8,1229.1c-26.5,0.7-49.6,24.2-49.1,50.2c0.5,24.2,19.7,43.8,42.5,43.4
	c28.2-0.5,51.6-22.3,51.5-47.6C2501.5,1250.4,2480.1,1228.5,2456.8,1229.1z"/>
<path d="M1916.6,1654.3c-94,2.3-172.9-60-186.1-148.5c-2.3-15.7-0.5-32.4,1.9-48.3c2.1-14.3,14-18,27.2-17.5
	c12.3,0.5,20.8,6.5,23.4,18.7c1.8,8.4,2.1,17.2,2.9,25.8c5.2,51.5,33.2,87.4,79.6,106.5c44.4,18.3,87.5,9.7,126.1-18.7
	c26.2-19.3,37.9-46.7,41.9-78.1c1.4-10.8,2.2-21.6,3.4-32.4c1.7-15.2,9.5-23.7,25.5-23.2c16.7,0.5,28.3,8.2,30.1,24
	c1.5,13.8,1.1,28.4-1.4,42.1C2075.5,1593.7,2007,1652.1,1916.6,1654.3z"/>
<path d="M1355.2,1684.1c-31.4-4.5-63.9-7.7-95.6-14.3c-17.7-3.7-35.4-11.1-51.1-20.2c-39.9-22.9-40.3-59.2-1.8-84.1
	c10.8-7,22.8-12.8,35-17c73.8-24.9,149.1-29.8,224.4-9.2c24.5,6.7,48.6,19.1,69.5,33.6c23.6,16.4,22.6,40.2,2.7,61.5
	c-18.7,20-43.3,29.6-68.9,34.3C1432.1,1675.5,1394.3,1679,1355.2,1684.1z M1340.6,1658.6c39.2-3.7,67.5-4.9,95.2-9.4
	c28.8-4.6,57.7-11.2,81.7-29.6c14.4-11,14.8-20.9,0.2-31c-10.6-7.2-22.6-13.1-34.8-16.9c-76.7-24-153.7-23.4-230.3-0.1
	c-12.2,3.7-24.4,9.6-34.7,17.1c-17.3,12.7-16.3,26.6,1.7,38.8c6.2,4.2,13.2,8.1,20.4,9.8C1276.9,1645.6,1313.8,1653,1340.6,1658.6z"
	/>
<path d="M2446.9,1683.5c-39.3-8.9-80.9-16.5-121.4-28.1c-24.3-7-48-20.9-48.8-50.4c-0.8-29.5,22.2-44.4,46-53.1
	c94.1-34.4,188.8-37.6,283.1,0.2c10,4,19.7,9.4,28.4,15.8c25.1,18.5,26.7,44.1,4.9,66.9c-17.3,18-39.7,27.6-63.2,31.7
	C2534.2,1673.6,2492.1,1677.7,2446.9,1683.5z M2469.4,1654.9c64.3-3.4,112.8-13.2,137.5-26.6c26.9-14.6,27.6-31.9,1.9-47.8
	c-4.6-2.8-9.5-5.4-14.6-7.1c-86-29.5-172.3-28.8-258.3-0.6c-15,4.9-33.8,11-33.7,30.4c0.1,17.5,17.9,22.7,31.7,28.7
	C2379.8,1651.5,2428.3,1654.4,2469.4,1654.9z"/>
<path d="M2176.2,3199.2c0-92.4,0.3-184.8-0.2-277.2c-0.2-23.9,0.6-45.4,26.9-57.1c7-3.1,11.4-12.5,16.3-19.4c2.5-3.4,3.3-8,5.3-11.9
	c26.3-51.7,63.7-87.6,125.7-89c65-1.5,113.5,27.9,144.2,83.3c11.4,20.4,21.9,27,44.7,26.2c45.5-1.6,91.3-0.1,136.9,1.8
	c34.5,1.4,51.1,17.2,56,51.1c2,13.9,2.2,28.2,2.2,42.3c0,122.8-1.1,245.7,0.1,368.5c0.3,32.7-11.8,52.3-40.5,66.6
	c-141,69.9-287.8,122.3-442.9,149.6c-50.2,8.8-73.5,7.6-72.8-60.9c1-91.3,0.2-182.6,0.2-273.9
	C2177.6,3199.2,2176.9,3199.2,2176.2,3199.2z M2522.7,2911.6c-10.9,25.3-17.7,50-31.3,70c-13.7,20.2-32.8,37.5-52.1,52.8
	c-19.8,15.7-44.5,22.7-70,23.7c-25.2,1-50.8-0.5-72.2-15.1c-19.9-13.5-38-29.8-60.6-47.9c-10.7,163.4-2.8,321.5-0.8,484.2
	c46.1-11,88.2-20.4,129.9-31.1c96-24.8,187.6-61.8,278-102.1c30.6-13.7,30.8-12.9,31.2-47.9c1.2-119.6,2.5-239.1,3.5-358.7
	c0.1-9.2-1.9-18.4-2.9-28C2620.8,2911.6,2570,2911.6,2522.7,2911.6z M2406.5,2884.7c26.8-0.7,46.1-18.2,45.3-41.1
	c-0.8-21.3-18.5-37.4-41.4-37.3c-23,0-40.5,18-40.6,41.9C2369.8,2869.4,2385.7,2885.3,2406.5,2884.7z"/>
<path d="M3209.2,2048.1c91.3,0,182.6-0.4,273.9,0.2c51.4,0.3,66.8,19.5,61.4,71.5c-19.8,188.7-72.3,368.2-149.2,541.3
	c-12.6,28.3-29.8,41.4-61.9,41.1c-134.8-1.2-269.5-0.3-404.3-0.7c-12.7,0-26.2-1.9-37.9-6.6c-20-8.1-23.4-27-23.6-46.2
	c-1-68.5-2.1-136.9-2.5-205.4c-0.6-96.7-0.8-193.5-0.9-290.2c0-18.4-0.2-37.1,2.2-55.3c4.8-36.3,19.2-49.3,55.9-49.5
	C3017.9,2047.6,3113.6,2048,3209.2,2048.1C3209.2,2048.1,3209.2,2048.1,3209.2,2048.1z M2920.5,2647.5c23.4,0,41.7,0,60,0
	c109.7-0.2,219.4-0.8,329.2-0.4c22.3,0.1,34-7.4,43.6-29c47.4-106.6,85-216.2,107.6-330.6c11.5-58.3,19.3-117.4,29.3-179.7
	c-190.4,0-376.3,0-566.6,0C2920.8,2287.9,2921.1,2465.5,2920.5,2647.5z"/>
<path d="M3071.9,2851.8c46.7,0,93.4-0.6,140.1,0.2c39.6,0.6,55.2,28.2,36.9,63.7c-3,5.7-6.6,11.3-10.7,16.3
	c-87.9,104.9-178,207.8-287,292.1c-8.5,6.6-17.6,13.3-27.6,16.9c-26.2,9.6-48-4-51.3-31.8c-1.8-15-1.7-30.3-1.7-45.5
	c-0.1-78.2,0-156.3,0-234.5c0-6.5-0.2-13.1,0.4-19.5c3.4-38.5,22-56.5,60.9-57c46.7-0.7,93.4-0.2,140.1-0.2
	C3071.9,2852.1,3071.9,2851.9,3071.9,2851.8z M2930.1,3160.2c49.6-23.9,223.6-205.9,237.7-248.1c-78.9,0-157.4,0-237.7,0
	C2930.1,2995.3,2930.1,3076.3,2930.1,3160.2z"/>
<path d="M1743.8,3194.3c0,87,0.2,173.9-0.1,260.9c-0.3,67.2-15.3,81.4-80.4,66.4c-68.7-15.8-136.7-35.2-204.2-55.8
	c-78.2-23.9-150.8-61.3-223.5-98.1c-27.2-13.7-40-32.3-39.6-64.1c1.4-125,0.7-250,0.9-375.1c0-8.7,0.1-17.5,1.5-26
	c4.1-25.1,22.4-43.3,47.7-45.8c19.4-1.9,39.2-2.7,58.6-1.4c21.1,1.3,32.9-5.2,42.5-25.6c27.9-59,76.2-88.2,141.9-83.2
	c56.5,4.3,102.5,29.2,128.7,81.3c10.5,21,21.9,30.8,46.5,30.8c67.2-0.1,77,11.6,77.4,78.2c0.3,43.5,2.2,86.9,2.8,130.4
	c0.5,42.4,0.1,84.8,0.1,127.2C1744.2,3194.3,1744,3194.3,1743.8,3194.3z M1680.9,3468.7c8.8-34.3,8.4-521.7,1.1-550.7
	c-37.1-5.9-37-4.8-47.5,27.8c-20.5,63.6-64.2,102.3-130.7,112.1c-65.1,9.6-114.6-18.1-149.6-71.2c-13.4-20.3-20.6-44.7-31.6-69.4
	c-20.3,0-42.7,0-65.7,0c-1.5,6.6-3.6,11.8-3.6,17c-0.8,117.3-0.9,234.5-2.6,351.8c-0.3,22.1,8.8,33.1,27.4,42
	c86.2,41.3,173.5,79.9,265.8,105.8C1588.5,3446.5,1633.8,3456.8,1680.9,3468.7z M1522.2,2890.5c26.1,0.2,47.9-19.1,48.6-42.9
	c0.5-20.5-18.2-40.2-38.7-40.7c-22.9-0.5-47.4,23.4-46.6,45.8C1486.1,2873.6,1502.5,2890.4,1522.2,2890.5z"/>
<path d="M862.6,2851.7c43.4,0,86.9,1,130.2-0.3c43.9-1.3,62.4,24.2,62.1,61.2c-0.6,87.9,0,175.8-0.2,263.7
	c0,16.4-0.4,32.7-18.8,41.5c-17.5,8.4-33,2.3-45.3-8.4c-50.7-44.2-102-87.8-149.9-134.9c-42.5-41.8-81-87.6-120.9-132
	c-8.6-9.6-16.4-20.3-22.9-31.5c-19.6-33.7-6.5-58.2,32-59.4c33.6-1,67.3-0.1,100.9,0C840.9,2851.7,851.7,2851.7,862.6,2851.7z
	 M988.5,3132.6c2.3-1.1,4.6-2.2,6.9-3.3c0-71.9,0-143.9,0-215.5c-40.4-7.3-198.8-5.4-224.3,4C842,2993,911.9,3066.1,988.5,3132.6z"
	/>
<path d="M2425.9,3216.1c-50.1-1.2-90.6-2.2-127.5-20.3c-14.2-6.9-28-17-38.3-28.8c-16.3-18.7-13.5-37.6,4.9-54.4
	c19.1-17.4,42.4-26.2,67.4-30.2c53.8-8.5,108.1-13.6,161.7-0.9c26,6.2,52.3,15.8,75,29.5c32.6,19.6,32,43.6,2.3,67.3
	c-22.6,18.1-49.7,26.9-77.6,31.4C2468.2,3213.8,2442.1,3214.6,2425.9,3216.1z M2567.2,3147c-8.5-19.9-26.5-26.2-43.7-31.9
	c-50.2-16.6-101.9-24.1-154.2-15.1c-27.4,4.7-55.1,12.8-80.1,24.8c-23.7,11.4-22.9,29.1,1.2,39.6c23.5,10.3,48.9,17.7,74.3,22.4
	c47.5,8.8,95.4,7,142.4-5C2529.7,3176.1,2553.4,3170.1,2567.2,3147z"/>
<path d="M1426.9,3215.4c-41.5,1.8-82.3-1.7-120.5-19.9c-3.9-1.9-8-3.4-11.8-5.5c-40.7-23.1-41.7-58.7-1.8-83
	c35.1-21.4,74.8-30.4,114.8-31.9c55.5-2.1,110.2,5.9,161.3,30.2c19.1,9.1,39.4,19.4,39.5,42.9c0.1,23.4-20.1,34.6-38.6,44.1
	c-32.5,16.7-68.4,19.6-104,22.8C1453,3216.4,1439.9,3215.4,1426.9,3215.4z M1582.3,3153.2c-4.6-18.1-17.9-23.5-30.8-29.4
	c-76.7-34.8-154.2-30.2-231.8-3.9c-15.3,5.2-29.6,13.4-34.4,30.4C1334.9,3206.7,1527.7,3208.4,1582.3,3153.2z"/>
</svg>
