<?xml version="1.0" encoding="utf-8"?>
<!-- Generator: Adobe Illustrator 24.3.0, SVG Export Plug-In . SVG Version: 6.00 Build 0)  -->
<svg version="1.1" id="Layer_1" xmlns="http://www.w3.org/2000/svg" xmlns:xlink="http://www.w3.org/1999/xlink" x="0px" y="0px"
	 viewBox="0 0 4000 4000" style="enable-background:new 0 0 4000 4000;" xml:space="preserve">
<path d="M334.3,3062.6c-2.3-2-3.1-3.2-4.1-3.4c-55.2-13.6-66-28.4-53.7-86.2c15.5-72.8,40-143.1,73.3-209.7
	c25.3-50.7,54.4-99.5,83.2-151.4c-3.3-2.6-8.4-6.6-13.6-10.6c-32.9-25.9-37.9-48.2-14.6-84c15.8-24.2,33.8-47.3,53.4-68.6
	c61.5-66.9,129.7-126.2,206-175.8c4.7-3.1,8.8-7.2,14.9-12.1c-5.9-9.2-11.6-17.5-16.7-26.1c-16.4-27.9-15.4-45.9,8.1-68.6
	c15.7-15.1,33.9-28.4,52.8-39.3c93.9-54.5,193.2-95.3,299.7-118c7.8-1.7,15.3-4.7,24.3-7.5c0.4-6,2.3-12,0.9-17
	c-10.8-38.4,10.8-61.9,49-75c13.6-4.7,27.9-7.3,47.1-12.2c-22.6-16-41.4-27.4-58-41.5c-23.8-20.3-46.7-41.8-68.6-64.2
	c-38.4-39.3-38.7-49.9-6.4-97.3c-5.1-6.4-10.2-13.8-16.2-20.3c-45.8-50-82-106.6-113-166.6c-3.7-7.2-7.2-14.6-10.4-22
	c-21.7-49.3-19.1-63.7,20.6-102.7c-4.3-11.3-8.3-24.4-14.3-36.5c-40.6-82.1-81.8-163.9-122.4-246.1c-10.2-20.7-20.9-41.6-27.8-63.6
	c-11.1-35.3,0.4-59,35.8-71.2c27.2-9.4,55.9-15,84.3-20.5c91.3-17.6,183.1-30.3,276.4-28.2c4.4,0.1,8.9-1.2,15.5-2.1
	c6-48.2,40.4-57.2,80.7-57c93.6,0.4,185.3,11.3,271,52.1c17.1,8.2,29.5,9.6,41.8-7.3c10.6-14.6,27.1-18.4,43.8-14.3
	c19,4.7,38.2,10,55.7,18.5c78.9,38,152.1,84.2,208.9,152.6c4.3-0.7,8.7-0.1,10.7-2c26.7-24.9,52.8-16.6,78.7,1.1
	c13.3,9.1,26.4,18.4,42.6,29.7c3.4-9.8,6.8-16.6,8.2-23.8c17.4-91.3,37.2-181.9,74.3-267.6c6.4-14.8,13.6-29.6,22.4-43.1
	c19.6-30,34.3-34.2,67.2-21.5c4.2,1.6,8.4,3.4,16.1,6.4c6.1-9.5,12.6-18.6,18-28.3c29.7-54.3,67.2-102.9,108.3-148.8
	c3.1-3.5,6.2-6.9,9.5-10.1c32.9-32,50.4-33.5,98.3-6.5c6.8-5.5,15.3-11.1,22.4-18.1c86.5-84.4,185.9-149.6,295.6-199.5
	c7.4-3.4,14.9-6.4,22.7-8.9c27.4-8.8,55.5-5,69.2,28c1.7,4.1,4.6,7.8,7.1,12.1c47.9-16.3,94.2-34.4,141.8-47.5
	c56.9-15.7,114.8-28.1,172.6-39.9c31.3-6.4,63.3-7.7,83.7,25.2c7.9,12.8,19.9,9.6,31.2,7.8c51.6-8,103-16.5,154.6-24.3
	c44.7-6.7,89.4-13.9,134.3-18.7c49.2-5.2,73.1,16.9,70.5,65.8c-4.1,76.4-10.6,152.8-15.7,229.2c-3.5,52-6.2,104-9.3,155.9
	c5.5,2.9,9.4,5.5,13.6,7.2c26.1,10.3,36.1,29.6,35.8,57.3c-0.7,72.3-9.8,143.5-26.4,213.7c-16.2,68.9-35.8,136.9-68,200.5
	c-2,3.9-2.6,8.6-3.8,12.4c47.6,34.8,52.6,47.6,30.1,102.6c-49,119.8-121.9,223.7-215.5,313.1c-8.3,7.9-17.5,14.9-24.3,20.7
	c1.3,6.7,1.1,9.4,2.3,11c30.5,41.6,31.5,62.8-4.3,97c-30.9,29.5-65.9,54.7-99.4,81.4c-9.7,7.7-20.3,14.3-33.4,23.4
	c24.1,12.9,45.1,22.1,64,34.7c25,16.6,49,34.8,72,54.2c19.3,16.2,27.6,37.8,16.4,62.4c-7.9,17.4-1.4,26.7,12.1,37.9
	c58.2,48.4,111.1,102,154.1,164.7c9.8,14.3,17.9,29.7,26.9,44.6c14.6,24.1,16.8,48.4-1.4,71.3c-10.6,13.3-4.3,22.5,3,34
	c50.9,80.3,101.2,160.9,151.7,241.5c1.8,2.9,3.7,5.9,5.3,9c29.5,54.6,17.3,86.6-40.6,107.5c-99.4,36-199.9,67.7-304.8,83.5
	c-15.6,2.3-26.7,7.4-29,24.2c-3.6,26.3-23.2,36.9-45.3,42.1c-29.3,6.9-59.1,14.6-88.9,15.5c-57.8,1.7-115.9-0.1-173.7-2.6
	c-23.8-1-44.9-5.7-58.7,22.3c-4.5,9.1-23.4,15.3-35.8,15.4c-28.8,0.4-58.2-1.3-86.5-6.4c-114.8-20.5-226.3-51.4-325.4-116.1
	c-12.5-8.1-22.8-9.7-33.8,2c-23.4,24.9-50.7,22.7-75.5,4.9c-25.2-18.1-47.7-40.1-70.9-61c-8.1-7.3-14.7-16.3-27.4-30.7
	c-1.9,19-2.9,28.8-3.8,38.6c-8.3,87.2-26.6,171.8-64.1,251.6c-3.9,8.4-8.8,16.3-12.9,24.7c-11.1,22.8-29.8,31.3-54.2,29.3
	c-11.5-0.9-22.9-2-31.5-2.7c-32.9,50.8-62.4,100.6-96.1,147.4c-53.9,74.9-119.4,138.9-194.8,192.5c-8.5,6-17.3,11.8-26.4,16.9
	c-44.4,24.7-73.7,22.5-104-16.1c-2-2.5-5.5-3.8-10.3-7c-7.2,4.4-15.1,8.7-22.6,13.7c-112.3,73.7-231,133.2-362.2,165.3
	c-14.6,3.6-29.5,6.5-44.3,8.8c-28.1,4.3-50.4-3.9-63-31.4c-2.3-5.1-6.2-9.5-10.4-15.6c-40.7,10.4-80.6,21.5-121,30.8
	c-73.6,16.9-147.7,30.1-223.4,33.4c-10.4,0.5-20.9,1-31.3,0.6c-46.6-1.6-60.5-11.7-78-58.8c-26.4,2.6-53.9,4.7-81.2,8.2
	c-97.7,12.8-195.3,26.2-293,39.1c-16.1,2.1-32.4,3.4-48.6,3.6c-34.2,0.4-53.8-19.1-52.4-54.5c1-25.4,5-50.8,8.6-76
	c17.9-125.1,33.2-250.7,63.1-373.8C335.2,3070.5,334.3,3065.8,334.3,3062.6z M1310.9,2478.1c-17.3-4-26.1-7.3-35-7.9
	c-52-3.7-104.1-7.9-156.2-9.8c-142.7-5.3-279.1,22.4-409.4,80.3c-6.4,2.8-12.4,7.7-19,8.3c-6.9,0.7-14.1-2.5-21.2-4.1
	c1.7-7,1.3-16.2,5.6-20.5c7.2-7.1,17.2-11.5,26.6-16.1c109.4-53.3,226.8-73.9,346.8-80.6c95.3-5.3,190.2,1.8,284,20.3
	c20.1,4,38,1.9,56.2-10.1c88.3-58.2,181.3-108,277.3-152.3c3.5-1.6,5.7-6,12.4-13.4c-160.5-62.3-322.8-83.7-489.6-73
	c-0.5-27.6,0-29.1,14.4-32.7c6.7-1.7,13.8-1.7,20.7-2.2c164.1-10.9,320.7,22.2,472.8,81.3c26.6,10.3,80.8-2.1,98.5-24.1
	c2.7-3.4,5-8.4,4.8-12.5c-1.2-38.8-3-77.6-4.8-118.7c-18,4.6-31.3,7.9-44.6,11.3c-67.9,17-136.8,25.1-206.9,21.8
	c-41.4-1.9-46-9.3-32.7-49.1c0.6-1.9-0.6-4.3-1-6.7c-33.2-5.2-67.4-6.7-99.2-16.4c-59.8-18.1-118.2-40.9-177.1-61.7
	c-26.1-29.6-56.3-22.3-92-10.4c20.3,22.7,43.8,40,46.4,73.5c-21.7,4.6-42.7,9.8-64,13.3c-117.6,19.6-230.2,54.1-334.8,112.1
	c-16.7,9.3-32.7,19.9-49.8,30.4c17.5,15.5,32.1,26.4,44.2,39.6c13.5,14.7,12.2,22.4-3.1,34.6c-9,7.2-19.1,13.1-29,19.2
	c-95.5,58.9-180.3,130.6-255.1,214.1c-7.8,8.8-12.3,20.6-17.9,30.3c4.3,3.6,5.1,4.6,6.1,5c59,22.1,61,28.6,24.4,79.4
	c-69.1,96-121.2,200.3-154.4,313.9c-3.5,11.8-5.6,24-8.9,38.5c14.2,0.9,24.4,1.6,34.6,2.1c38.9,1.9,47.6,12.4,37.2,50.7
	c-38.8,142.6-57,289-80.8,434.3c-1.6,9.6-1.1,19.5-1.7,30.1c81.8-11.2,159.6-24.5,237.9-31.8c77.9-7.3,155.3-22.6,236-24.1
	c4,25.1,7.4,46.2,10.7,66.7c6.1,0.7,9.6,1.7,12.9,1.4c86.8-7.2,172.9-19,257.1-41.9c34.6-9.4,68.6-21.2,102.4-33.3
	c43.1-15.4,53.6-10.3,63.5,33.2c1.9,8.5,5.1,16.7,7.8,25.3c7.6-0.9,12.3-0.7,16.6-2c90.7-25.9,178.1-60.3,259.4-108
	c49.9-29.3,96.7-63.9,144.4-96.8c26.5-18.3,35-17.5,53.2,9.2c4.5,6.7,7.6,14.4,11.9,21.2c4.8,7.5,10.3,14.5,17.1,23.9
	c11.6-7.7,21.4-13.4,30.3-20.2c123.9-95.3,219.2-213,280.2-357.6c7.2-17.1,13.6-34.7,22.4-50.9c12-22.3,33.1-21.9,44.9,0.7
	c5.8,11,8.5,23.6,15.6,44.2c9.3-24,17.7-40.1,21.9-57.3c30.3-126.4,38.9-254.3,22.7-383.5c-0.9-7.3-5-14.2-7.7-21.4
	c-42.2,16.5-46.8,14.6-65.4-24.8c-24.5-51.6-41.8-105.6-53-161.6c-3.7-18.9-7.9-37.7-12-57.2c-22.6,10.7-41.3,24-61.8,28.2
	c-22.1,4.5-45.9-0.2-69,0.2c-16,0.3-32.1,2.1-41.1,12.8c18.7,66.7,39.5,129.6,53.7,194c32.3,146.7,20.9,292.6-16.5,436.9
	c-3,11.5-11.7,23.3-20.9,31.3c-40.7,35.3-89.5,43.3-140.5,33.4c-33-6.4-45.1-52.7-19.4-74.4c38.9-33,82.5-56.2,136.8-45.3
	c7.5,1.5,15.5,0.2,23.7,0.2c2.3-7.6,5.1-14.1,6.2-20.8c17.3-103.6,21.9-207.6,6.2-311.9c-10.6-70.3-28.5-138.6-55.2-204.4
	c-10.5-25.8-13.4-26.3-42-25.2c-7.6,0.3-15.3-1.2-24-2c-1.6-15.4-3.1-28.6-4.7-44.4c-10.7,4.4-19.4,7.2-27.5,11.3
	c-105.3,53.8-210.1,108.8-316.1,161.2c-40.4,20-56.7,43.1-52.7,92.7c10.6,134-7.6,266.3-44.8,395.7c-3.7,12.8-5.4,28.3-1.7,40.6
	c8.9,28.9,45.5,48.8,78.7,46.3c37.2-2.7,64.5-23.1,72.6-54.5c2.3-8.9,2.8-18.5,6.3-26.9c1.7-4,8.9-8.4,13.1-8
	c4.1,0.5,10.9,7.2,10.6,10.7c-1.5,17-1.5,35.4-8.3,50.6c-26.8,60.2-110.8,78.5-162.7,36.6c-9.7-7.8-18.6-16.7-29.7-26.7
	c-4.3,11.5-7.2,20.3-10.9,28.6c-22.1,49.8-43.8,99.7-67.1,148.9c-7.9,16.6-19.6,31.4-30.5,46.4c-5.7,7.8-13.5,13.4-26.7,2.1
	c4-10.1,8-21.7,13.1-32.8c29.5-64.2,62.6-127,88.1-192.8c50.8-131.2,72.4-268.3,71.3-408.9c-0.2-31.6-4.3-63.2-6.8-98.1
	c-10.7,5.3-17,7.8-22.8,11.3c-157.4,96.8-307.4,204-449.2,322.6c-22.4,18.7-31.8,39.2-33,68.5c-5.7,139.8-38.3,273-105.5,396.7
	c-13.6,25.1-25.6,34.6-33.9,25.3c-13.4-15.1,0.7-28.3,7.3-40.6c60.5-112.2,91.3-232.6,99-359.3c0.4-7-2.6-14.3-4.8-25.1
	c-12.9,11.3-23.3,18.8-31.7,28.2c-93.2,103.5-187.4,206.2-264.9,322.5c-3.9,5.8-7.9,11.5-12,17.1c-6,8.4-11.8,20.3-24.3,13.4
	c-13.7-7.7-4.1-18.4,0.8-26.8c9.4-16,19.4-31.7,29.8-47c60.1-88.6,128.5-170.4,201.3-248.7c11.3-12.2,26.1-22.2,33-44.4
	c-22.9,5-43,6.5-60.7,13.7c-46.1,18.7-91.3,39.7-136.6,60.2c-12.3,5.6-23.3,16.1-38.3,7.6c1.5-21.9,1.1-22.5,20.5-34.9
	c62.5-39.7,130.3-68.8,203.7-75.9c46.2-4.5,78.4-23.1,111.2-53.7c130.1-121.7,274.4-225,426-318.2
	C1289.2,2493.8,1296.3,2488.3,1310.9,2478.1z M3527.8,332.8c-26.6,5-48.1,9.3-69.8,13c-82.3,14.2-164.7,27.7-246.8,42.4
	c-46.1,8.3-45.9,9.2-61.2-36.1c-0.7-1.9-2.9-3.3-5.3-5.9c-7.4,0.5-15.5,0.2-23.4,1.6c-83.6,14.7-165.1,37.1-243.7,69.3
	c-29,11.9-57.9,23.8-87.4,34.3c-19.2,6.8-28,1.6-33.6-17.8c-3.4-11.7-5.1-23.9-8.4-39.5c-17.1,7.2-31.1,12.1-44.2,18.7
	c-105.7,53.5-197.1,126.1-279.1,211c-7.3,7.5-13.9,15.7-21.7,22.6c-17.2,15-26.5,14.1-40.4-3.5c-6.9-8.7-13-17.9-20.4-28.2
	c-8.2,7.7-15.2,12.5-19.7,18.9c-37.5,53-74.7,106.2-111.7,159.5c-7.9,11.4-13.9,24.1-21.7,35.6c-8.6,12.7-20.1,14.8-32.9,5.8
	c-8.2-5.7-16.2-11.6-28.2-20.1c-49.7,115.5-73.3,232.2-78.4,355.9c-17.1,0-31.2,0-49.9,0c27.7,80,53.9,155.7,80.5,232.5
	c8.1-3.9,14.2-7.2,20.5-9.8c22.5-9.3,30.9-6,40,16.8c3.4,8.6,5.8,17.7,7.2,26.8c5.4,36.7,11.3,73.4,14.8,110.3
	c3.1,33.1,3.3,66.6,4.8,99.9c46.6-7.5,92.1-13.8,137.1-22.7c21-4.2,24.4-19.1,8.3-40.1c-28.9-37.6-45.3-80.8-59.4-125.1
	c-48.6-152.8-51.4-307.9-20.5-464.3c5.4-27.2,13.6-54,21.4-80.7c3.9-13.4,9.3-26.9,32.6-21.1c-1.5,12.2-1.5,24.6-4.7,36
	c-40.6,142-45.8,285.9-21.1,430.9c10.2,59.6,26.8,117.7,53,172.5c6.2,13,15.2,24.7,26.7,43.1c13.6-18.9,24.7-31.8,33.1-46.2
	c81.6-139.9,182.3-265.9,285-390.3c16.3-19.7,22.4-37.5,19-62.8c-11.6-85.6-9.9-171.2,7.7-256.2c18.3-88.2,49.3-171.5,93.6-249.8
	c7.4-13.2,12-31.4,34.2-28.5c11.1,18.3-1.9,31.1-9.2,44.8c-71,134-107.2,276.2-100.1,428.4c0.8,16.8,2.9,33.6,5.1,58.7
	c15.5-14.6,25-22.4,33.3-31.4c174.9-189,369.5-355.3,581.1-501.8c6.6-4.6,13.7-10,21.2-11.4c5.6-1.1,14.7,2,17.7,6.3
	c2.7,3.9,1.2,13.8-2.2,18c-5.6,7-14.3,11.5-21.7,17.2c-103.1,79.1-206.2,158.1-309.1,237.4c-6.8,5.2-12.3,12.2-22.3,22.2
	c16.3,3.4,27,6.9,38,7.7c69.9,5,139.4,1.3,207.5-14.8c35.9-8.5,70.7-22,106-33.1c8.9-2.8,20.4-6.7,23.1,5.8c1.5,7-3.8,17-8.9,23.4
	c-3.8,4.8-12,6.5-18.5,8.6c-23.2,7.5-46.1,15.9-69.7,21.7c-96.7,23.7-194.3,33.1-292.9,13.5c-16.9-3.4-28.9,1.7-40.4,13.4
	c-30.9,31.5-62.3,62.4-93.5,93.6c-100.3,100.3-192.8,207.3-279.9,319c-8,10.3-13.8,22.2-22.4,36.2c17.9,4.1,30.2,7.6,42.6,9.6
	c92.2,14.1,184.5,18.6,277.4,6.5c141.9-18.6,276.7-57.6,397.9-136.4c5.7-3.7,12.2-7.6,18.6-8.3c4.7-0.5,11.8,3,14.3,6.9
	c2.4,3.7,2.2,11.8-0.4,15.4c-4.6,6.3-11.2,11.9-18.1,15.8c-32.2,18.3-63.7,38.7-97.6,53.3c-204.4,88-415.3,120.8-635.1,69.4
	c-18-4.2-31.3-0.2-41.6,15.9c-49,76.1-98.5,151.8-147.5,227.8c-5,7.7-9.1,16.3-12,25c-8.6,25.1,1.6,47.6,27.2,54.6
	c65.3,17.9,131.8,24.9,199.6,17.8c46.1-4.9,92.3-11.6,138.5-12.9c51.3-1.5,103.8-3.2,149.7,27.2c-8.6,3.9-17.3,7.9-30.6,14
	c8.8,4.5,12.6,8.2,16.2,8c42.6-3.3,82.4,11.4,123.3,18.5c37.5,6.5,77,11.2,85.5,61.6c74-32.6,143.3-65.4,200-120.2
	c-17.3-23.5-50.1-25.9-55.1-59.3c12.8-11,26.4-23.4,40.6-35c87.1-71.5,159-155.8,214.3-253.9c13.4-23.8,24.5-49,37.3-74.8
	c-10.5-5.1-16.5-8.4-22.8-10.9c-48.5-19.3-49.8-23-26.1-70.8c0.5-1,1-2.1,1.5-3.1c50.9-95.3,80.8-197.1,94.3-304
	c4-31.9,6.5-63.9,9.7-96.3c-11.1-2.6-17.7-4.4-24.5-5.6c-35.3-6.6-36.5-7.4-34-42.4c2.4-34.7,6.4-69.3,8.9-104
	c4.1-56.7,7.4-113.4,11.2-170.1C3521.5,421.7,3524.6,379.1,3527.8,332.8z M2836.8,2256.7c2.3,17.5,2.9,27.7,5.1,37.6
	c24.5,109.7,72.4,207.8,147.5,291.8c17,18.9,36,36,54.3,53.8c7.9,7.7,15.8,16.1,6.1,26.5c-8.8,9.3-19.1,5.4-27.9-2
	c-1.8-1.5-3.5-3-5.2-4.6c-113.7-105.3-183.4-235.1-212.4-386.6c-4.3-22.4-12.5-34.8-33.4-42.7c-86.7-32.8-172.9-67.1-259.6-100.1
	c-20-7.6-41.1-12.2-66.9-19.7c1.9,27.2,2,49.1,5.1,70.5c22.3,153.3,80,289.9,190.7,401.5c9,9.1,27.2,20.4,14.7,33.8
	c-14.6,15.6-26.6-3.3-36.6-12.9c-66-63.9-115.8-138.9-148.8-224.5c-32-82.7-52.8-168-56.5-257.1c-1.1-27.2-2.2-26.9-28.5-35.4
	c-51.9-16.7-103.4-34.3-155.2-51.3c-9.3-3-18.9-5-32.2-8.4c0,19.7,0.9,34.7-0.2,49.4c-4.6,62.9-24.1,118.2-82.6,151.5
	c-14.1,8-14.1,18.5-12.2,32.3c8.6,62.4,25.1,122.7,47.1,181.5c2.6,7,7.2,13.2,11.5,20.9c13.5-6.5,24.7-11.9,40.2-19.4
	c2.8,4.5,6.1,9.3,8.9,14.3c5.7,10.1,11.1,20.3,16.6,30.5c44,81,95.2,156.6,164.2,218.7c6.2,5.6,14.2,9.2,23.3,15
	c4-11.3,6.5-18.8,9.2-26.3c9.8-26.4,19.3-30,44.4-15.8c8,4.5,15.3,10.5,23,15.6c20.2,13.6,40,27.9,60.8,40.5
	c92.8,56.3,195.6,83.7,301.1,102.7c12.9,2.3,26.6,0.3,39.2,0.3c7.6-55.5,8.3-56,59.3-47.6c3.4,0.6,6.9,0.9,10.3,1.7
	c66.3,15.5,133.3,17,200.7,11c23.7-2.1,47.1-6.2,72.4-9.7c-1.2-12-2.5-19.9-2.8-27.8c-1.2-27.8,4.8-35.7,32.9-37.6
	c119.1-8.1,232.2-42.8,345-78.2c5.2-1.6,9.8-5.3,17-9.4c-14.1-21.5-27.5-41.6-40.4-62c-47.3-74.3-94.2-149-141.9-223.1
	c-23-35.7-22.8-41.1,10.9-67.9c1.6-1.2,1.9-4,3.2-6.8c-0.7-2.7-0.6-6.5-2.4-9.2c-50.9-78.6-110.8-148.8-188.8-202.1
	c-8.6-5.9-17.2-11.9-25.4-18.3c-14-11-16.7-24.3-7.2-39.8c6-9.7,11.8-19.4,19.4-32c-9.5-6.8-17.3-13.1-25.9-18.3
	c-60.8-36.8-124.9-66.4-192.3-88.7c-7.7-2.5-15.6-4.7-23.1-7.8c-30.7-12.6-33.2-23.7-11.8-48.1c4.2-4.8,7.6-10.4,13.1-17.9
	c-10.1-4-17.1-8.5-24.5-9.4c-49.4-6-98.8-11.3-148.3-16.4c-10.3-1.1-21,0.8-31.2-0.8c-19.8-3.1-24.3-12.8-15.9-32.1
	c2.6-5.9,5.4-11.7,10.9-23.4c-52.4,2.3-99.5,4-146.6,6.6c-84.5,4.6-165.1,23-237.9,68.7c-14.7,9.2-30.2,17.2-45.9,24.9
	c-12.5,6.1-20.4,14.8-21.7,29c-5.6,63.2-38.4,110.4-87.4,148.1c-6.7,5.1-12,12.1-21.7,22.1c51,15,96.3,28.5,141.8,41.7
	c12.8,3.7,21.5-3.1,30.7-11.4c63.4-58.1,137.3-98.5,218.2-126.4c59.5-20.5,121.4-30.4,184.1-34.9c12.3-0.9,24.7,0.1,24.7,16.5
	c0,14.9-12.9,14.2-22.8,15.5c-25.3,3.4-50.7,5.4-75.8,9.6c-100,17-190.8,56.5-273.5,114.8c-9.8,6.9-17.6,16.8-30.8,29.5
	c15.6,7,25.5,12,35.8,15.9c109.5,41.3,219.3,81.9,328.5,124.2c21,8.1,38.1,9.1,59.4,0.9c90.9-35,185.4-50.7,282.9-45.4
	c9.3,0.5,19.1,0.3,27.5,3.5c6.2,2.4,10.5,9.7,15.7,14.9c-5.5,4.6-10.4,11.9-16.5,13.1c-10,1.9-20.7-0.1-31.2-0.6
	c-78.6-3.8-154.8,9.3-229.6,32.2c-6.7,2-12.5,6.7-22.4,12.2c14.5,7.9,24.4,13.7,34.6,18.8c150.5,75.6,297,157.8,436.4,252.5
	c10.9,7.4,29.2,14.5,17.3,31.2c-9.8,13.7-23.1,1.9-33.3-5c-113.4-77.1-232.7-144.2-353.9-208
	C2943.1,2306.3,2893.5,2284,2836.8,2256.7z M1613.8,1449.7c3.2-3.6,5.7-5.1,6-6.9c1.1-5.6,2.4-11.5,1.9-17.1
	c-10.7-120.5-54.2-226.8-136.7-316.3c-6.2-6.8-13.6-13.2-17.5-21.2c-2.3-4.7-1.2-14.7,2.4-17.9c3.8-3.4,12.7-3.2,18.5-1.4
	c4.9,1.5,8.7,7.3,12.5,11.5c50.6,55.4,90.4,117.7,117,187.9c22.4,58.9,39.9,119.2,35.2,183.1c-1.7,23.2,4.7,39.2,21.7,54.8
	c70.2,64.3,137.9,131.2,195.8,207.2c5.6,7.3,14.3,12.3,25.3,21.5c19.5-59.8,23-115.1,20.3-170.7c-4.2-86.7-25.4-169.5-63.7-247.7
	c-4.9-10-8.2-20.8-12.5-31.8c26.1-5,28.5-3.9,40.5,21.6c56.2,119.3,81.7,243.8,61.1,375.5c-3.9,24.9-11.8,49.1-17.3,73.8
	c-1.5,6.5-3.7,14.5-1.3,19.9c14.3,31.6,35.8,57.6,65.1,84.7c3.3-14.2,5.9-21.6,6.6-29.3c3-33,1.2-67.6,32.7-90.4
	c3.3-2.4,4.3-8.1,6-12.4c11.6-29,30.1-46.9,63.5-51.1c31-3.8,37.1-13,36.3-44.5c-1-44-3.2-88.1-7-132c-2-23.3-8.2-46.2-12.6-70.1
	c-6.7,2.8-9.2,3.3-10.8,4.7c-11.1,9.2-18.5,28.1-35.9,22.7c-18.2-5.7-16-26.3-20.8-41.3c-1.4-4.4-1.2-9.3-2.7-13.6
	c-15.5-47.3-29.1-95.3-47.3-141.6c-21.1-53.6-61-94-102.8-138.4c-4,12-6.5,18.3-8.3,24.7c-8,28.7-21.9,33.2-43.7,14
	c-4.3-3.8-8.3-8.2-11.7-12.9c-57.1-77.8-134.9-129.7-218.8-173.6c-11.7-6.1-25.1-9.1-37.4-13.4c-3.6,6.3-6,9-7,12.2
	c-10.9,38.2-14.1,39.9-48.9,23.9c-5.3-2.4-10.3-5.3-15.6-7.7c-79.1-35.5-161.4-57.8-248.4-61c-12.3-0.5-24.6,0.9-39.5,1.5
	c0,20.6,0,37.4,0,58.5c-25.6,0.7-48.5,2.5-71.3,1.9c-103.7-2.7-206.2,6.6-307.5,29.4c-10.5,2.4-20.6,6.8-33.2,11.1
	c6.2,13.7,10.1,23.2,14.7,32.4c23.8,47.7,48.7,95,71.6,143.1c29.5,61.7,57.7,124.1,86.1,186.3c10.5,23,8.1,28.1-15.3,40.6
	c-8,4.3-15.9,8.6-27.4,14.8c12.8,33.8,31.2,62.9,50.7,91.1c20.5,29.5,41.6,58.7,64.4,86.5c21.9,26.6,46.3,51.2,72.7,80.1
	c-13.6,11.1-29.9,24.5-47.9,39.2c5.8,6.8,10.2,13.4,16,18.4c48.2,42,98.4,81.2,156.6,108.9c15.7,7.5,31.5,15,46.3,24
	c20,12.2,20.2,21.3,2.5,37.5c-9.7,8.8-19.7,17.4-33.2,29.2c53.5,23.3,100.4,46.6,152.5,54.1c52,7.4,104.4,11.8,160.4,17.9
	c-7.5,18.2-14.2,34.5-21.2,51.4c5.6,2.4,8.7,4.8,11.7,4.8c76,1.3,150.1-10.3,222.5-33.4c19.1-6.1,24.5-19.6,23.3-37.6
	c-1.2-17.8,5.6-29.8,20.7-40.7c11.3-8.1,21.1-21.6,26-34.8c12.5-33.6,33.9-54.3,69.5-60.7c9.5-1.7,18.4-7,28.1-10.8
	c-15.4-25.5-15.8-24.7-34.7-16.6c-58.5,25-116.3,52.5-176.6,72c-41.3,13.4-86.2,17.6-129.8,21.2c-34.5,2.8-69.6-0.8-104.3-3.2
	c-23.3-1.6-25.9-5.9-25.2-33.6c73.6,4.5,147.2,10,220.5-7c74.2-17.3,142.7-45.9,207.7-85.9c-1.1-3.4-1.2-7.2-3.2-9.5
	c-44.5-55-88.7-110.3-134.1-164.5c-13.3-15.9-30-29-45.1-43.4c-11.5-11-23-10.8-38-5.4c-41.3,14.9-82.8,30.3-125.4,40.1
	c-111.8,25.6-223.4,21-333.8-10.4c-22.7-6.5-32.7-17.4-27.2-28.8c9.4-19.3,24-7.7,36.2-4c123.8,37.7,247.4,31.8,370.6-2.2
	c23.9-6.6,46.4-18.5,74.6-29.9c-11.9-13.2-18.7-22.3-27-29.7c-19.9-17.8-39.9-35.6-60.8-52c-53.8-42.3-108.1-83.9-162.4-125.5
	c-10.2-7.8-21.5-14.8-35.2-7.6c-53.1,28.2-111.7,30-169.4,32.4c-38,1.5-76.5-2.5-114.5-6.4c-22-2.3-23.6-8.3-15.4-31.7
	c45.2,2.3,90.1,6.6,135.1,6.3c45.7-0.3,90.3-9.1,136-30c-7.2-6.5-10.1-10.1-13.8-12.3c-82.7-49.6-167.9-94.2-257.7-129.7
	c-12.9-5.1-26.5-8.6-39.5-13.4c-11.3-4.2-17.4-12.6-12.4-24.5c4.6-11,14.2-10.3,23.6-6.5c23.7,9.4,47.5,18.6,70.9,28.7
	c164,70.7,315.9,161.2,451.7,277.9C1600.5,1442.9,1607.7,1446,1613.8,1449.7z M1883.3,2058.4c4-22.3,17.8-27.4,30.7-30.9
	c16.7-4.5,34.4-4.7,51.2-8.9c17.7-4.4,35.3-10,51.8-17.6c6.2-2.9,8.9-13.1,13.1-19.8c-30.1-18.7-62.8-2.3-93-19.3
	c42.2-28.4,85.8-18.1,128.9-14.2c-0.9-8.4,0-13-1.8-14.8c-33.1-33-69.4-42.8-106.5-28.4c-40.5,15.7-62.4,49.5-91.2,77.7
	c-36.1,35.5-21.1,82.1-35.1,121.9c-1,2.8,1.9,6.6,2.2,10.1c0.9,11.4,2.6,23,2,34.3c-1.3,22-4.8,43.8-5.9,65.8
	c-1,20.3-5.4,41.6,11.3,62c18.4-5.1,37-11.6,56-15.3c33.8-6.7,64.9-31.1,102.9-14.1c6.8,3,20.1-4.3,28.4-9.8
	c9.4-6.3,17.2-15.5,24.3-24.5c9.9-12.5,19.7-22.3,37.9-17.1c14.1,4.1,25.6-3.4,32.5-14.8c24-40,44-82,46.9-129.3
	c0.8-13-1.7-29.6-9.5-38.9c-15.4-18.5-34.7-34.1-54-48.8c-13-9.9-25.6-2.7-25.6,14.1c0,10.1,4.6,20.1,6.4,30.3
	c4.4,25,10,49.9,11.6,75.1c0.8,11.8-0.2,28.3-20.5,32.3c-14.4-32.5-4-70-24.5-103.6c-9.9,8.7-18.5,15.9-26.6,23.6
	c-24.3,23-37,49-27.3,84.1c4.1,15.1,2.8,32.4,0.8,48.3c-1.7,14.4-4.6,30.5-24.5,34.5c-20.2-23.7,5.9-56.2-15.5-84
	c-13.3,14.8-24.1,28.1-36.2,40c-11.6,11.3-16.3,34-45.1,27.4c24-50.2,63.7-86.4,96.3-136.8
	C1940.6,2052.3,1913.6,2055.2,1883.3,2058.4z M2163.1,1681.9c-25,10.2-45.2,18.4-65.5,26.7c-27.3,11.2-46.9,29.9-54.8,58.9
	c-6.4,23.5-11.9,47.2-16.7,71.1c-1.5,7.5-2.4,19,1.9,23.2c18.1,18,35.1,38.4,66.7,51.1c-2.2-22.1-4.5-37.8-5.3-53.5
	c-1.4-29.9-3.3-59.9-2.3-89.8c0.4-11.1,3.2-26.9,25-24c5.4,33.8,11,68.3,17.2,106.9c29.1-17,39.2-40.4,47.2-64.2
	c10.1-30.2,31.7-51,54.8-70.4c10-8.5,22.1-17.1,41-8.1c-15.9,30.6-48.6,49.5-57.7,88.4c23.6-6.9,42.7-12.4,62.7-18.2
	c6,18.6,0.6,29.2-12.4,34.9c-9.4,4.1-20.3,7.9-30.1,7.1c-45.3-3.8-63.8,28.3-89.5,63.5c40.1-4.6,73.8-8.5,106.6-12.3
	c7.9,20.3-3.4,25.4-15,27.5c-27.3,5-54.8,8.7-82.3,12.6c-14.7,2.1-30.3,2.2-35,22.6c18.3,14.8,36.9,28.6,54.1,44
	c14.3,12.9,28,12.7,44.6,4.9c30.1-14.2,54.6-35.2,75.1-60.8c17.3-21.5,30.2-44.5,6.9-72c23.2-15.1,22.8-36.2,22.5-59.2
	c-0.5-39.3,2.8-78.7,4-118.1c0.2-7.4-1.6-15-2.5-22.5c-36.9,5.2-71.2,9.5-105.3,15.1c-25,4.2-25.6,6-27.4,31.5
	c-0.8,11.6,3.4,25.4-15.2,34.9C2171.8,1715.6,2167.7,1699.8,2163.1,1681.9z M1805.9,2964.7c29.4-1.1,56.8-9.5,81-25.8
	c7.2-4.8,15.2-17.6,13.4-24.1c-1.9-6.9-14.6-11.7-23.4-15.6c-4.8-2.2-11.8-2.2-16.9-0.5c-24.9,8-49.9,16.1-74.1,26
	c-10.3,4.2-22.2,13.6-15.3,26.4c3.8,7,16.2,9.5,25.1,13.4C1798.5,2965.8,1802.4,2964.7,1805.9,2964.7z M2436.9,1740.9
	c-0.3-2.2-0.5-4.4-0.8-6.6c-25-5.7-50-11.4-79-18c-1.8,22.4-3.2,40.8-5.1,64C2384.2,1765.3,2410.5,1753.1,2436.9,1740.9z"/>
</svg>
