<?xml version="1.0" encoding="utf-8"?>
<!-- Generator: Adobe Illustrator 24.3.0, SVG Export Plug-In . SVG Version: 6.00 Build 0)  -->
<svg version="1.1" id="Layer_1" xmlns="http://www.w3.org/2000/svg" xmlns:xlink="http://www.w3.org/1999/xlink" x="0px" y="0px"
	 viewBox="0 0 4000 4000" style="enable-background:new 0 0 4000 4000;" xml:space="preserve">
<path d="M401,3347.3c-23.4-1.3-66.7-2.5-109.8-6.3c-120.8-10.5-161.5-130.4-124-219c3.7-8.6,7.5-17.4,12.6-25.1
	c13.3-20,14.4-41.2,9.9-64.1c-2.7-13.7-3.7-27.9-4.2-41.9c-5.2-173.5-10.3-347-14.9-520.5c-1-37.5,0.3-75.1,0-112.6
	c-0.2-32.8,7.6-63.7,27.6-89.1c37.6-47.9,75-96.2,116.7-140.4c222.2-235.6,454.2-461.2,693.6-679.2
	c173.4-157.9,348.2-314.3,522.8-470.8c14.8-13.2,20.3-25.1,15.1-45.4c-15.8-61-17.5-122.8-3.6-184.6
	c37.4-166.4,172.1-255.4,332.5-247.5c84,4.1,161.7,27.4,225,86.4c11.5,10.8,22.7,7.9,35.7,5c30.8-6.8,61.7-16.2,92.9-17.5
	c86.2-3.7,161.8,24.4,221,88.4c17.3,18.7,33.8,20.1,56,15.2c79.4-17.4,156.8-12.5,227.7,30.2c26.6,16,51.7,36.9,72.1,60.3
	c17.7,20.3,34.9,26.8,60.6,24.2c53.2-5.4,104.9,1.2,154.7,23.2c58,25.6,103.2,65,132.5,120.8c10.5,20.1,23.5,25,44.2,25.6
	c90.6,3,169.5,34.2,230.5,103.1c16.9,19.1,31.6,41.1,43.1,63.8c10.1,20,22.9,26.3,44.2,26.2c38.8-0.2,76.7,5.5,113.7,19.2
	c112.9,41.9,173,125.1,186.8,242c17.2,145.4-54.2,269.3-188.3,329.6c-64.3,28.9-53.6,17.9-68,81.5
	c-28.5,125.7-52.7,252.4-81.1,378.2c-31.8,140.6-65.4,280.7-100.2,420.6c-8.4,33.8-23.3,66.2-36.9,98.6
	c-18.4,44-50.3,77.1-93.5,96.2c-50.3,22.2-101.5,42.9-153.8,59.8c-201,64.9-406.6,112.2-613.1,154.9
	c-199.6,41.3-400,78.5-600.8,113.8c-195,34.4-390.6,65.3-586.2,95.4c-113.5,17.5-227.6,30.9-341.5,45c-114,14.1-228,27.4-342.2,39.6
	C547.4,3336.9,484.2,3340.6,401,3347.3z M266.9,3075c54.9-3.1,103.9-4.7,152.8-8.8c174-14.5,348.4-26.7,521.9-45.5
	c196.8-21.4,393.1-48.7,589.5-74c241.9-31.1,481.5-75.1,719.9-125.8c156.9-33.4,313.1-70.4,469-108.5
	c108.1-26.4,213.8-61,318.3-99.8c63.7-23.7,101.5-64,113.7-129.8c0.4-2.3,1.2-4.5,1.7-6.8c17-77.8,36.2-155.2,50.5-233.4
	c29.4-161.3,56.1-323.1,83.7-484.7c2.9-16.8,4.5-33.8,7.2-54.2c-12.4,4-20.1,6.2-27.6,8.9c-91.3,33.4-181.3,70.9-274.1,99.5
	c-166.7,51.3-334.6,99.1-502.9,145.1c-212.5,58.1-427.9,103.7-644.4,143.9c-192.3,35.7-384.7,70.6-577.6,102.2
	c-179.1,29.4-358.9,54.6-538.5,80.7c-139,20.2-278.3,38.9-417.4,58.8c-21.5,3.1-42.7,8.7-66.2,13.6
	C247.5,2596.6,256.3,2833,266.9,3075z M3312.6,1638.2c4.7-13.8,8.5-24.4,12-35.1c19.1-58.2,44-113.8,80.5-163.3
	c28.4-38.4,63.9-68.5,108.9-86.1c76.6-30.1,156.3,6,173.8,80.1c13.6,57.6-1.9,109.1-39,154.2c-15.6,19-29.5,23.7-37.9,14.4
	c-13.9-15.6,2.8-24.5,9.3-35.8c12.7-22.2,29-43.4,36-67.3c10.6-36.2,6.6-73.6-23.6-100.7c-29.7-26.6-65.3-29.2-102.2-15
	c-39.4,15.2-71,40.6-96.3,74c-60.1,79.6-91,172.4-109.3,268c-32,166.8-56.2,335.1-85.9,502.4c-18.4,103.8-37.5,207.5-68.8,308.6
	c-14,45.3-40.2,75.9-84.1,91.8c-73.8,26.6-146.5,57.1-221.7,78.6c-343.8,98.2-693.5,171.1-1045.9,230.1
	c-176.6,29.6-354.1,54.5-531.7,78.2c-133.5,17.9-267.5,32.1-401.6,45.1c-162.1,15.7-324.5,28.4-486.8,42
	c-37.4,3.1-74.9,4.9-112.4,5.9c-21.6,0.6-35.6,9.6-42.6,29.7c-3.5,9.9-7.5,19.8-9.8,30c-11.3,51.1,12.8,87.5,65,95.9
	c23,3.7,46.8,5.6,70,4.1c94.7-6,189.8-10.2,284-21.4c217.6-25.9,435.1-52.7,651.9-84.4c212.1-31,423.6-66.1,634.6-103.7
	c193.7-34.5,386.9-72.3,579.3-113.2c145.4-30.9,289.9-66.8,433.6-104.9c77.9-20.6,153.8-49.4,229.9-76.4
	c48.6-17.3,84.7-50.3,101.8-100.1c19-55.3,40.5-110.3,53.3-167.2c42-186.2,80.5-373.3,120.7-559.9c12.8-59.5,26.9-118.8,40.4-178.2
	c7.4-32.3,26.5-53.8,57.8-65.3c16.5-6,32.1-14.2,48.2-21.3c80.9-35.9,125.2-99,139.1-185.3c16.9-104.9-47.6-210.5-148.3-242.7
	c-43.2-13.8-87.4-17.3-132-15c-103.7,5.3-176.2,55.8-217,151.6c-3.1,7.4-6.9,14.5-10.3,21.5c-27.5-8-29.9-11.1-20.3-35.8
	c30.4-77.9,86.3-129.6,164.4-157.9c11.7-4.3,23.6-8.1,37.1-12.6c-3.2-8.9-4.6-14.4-7-19.4c-3.6-7.3-7.6-14.5-12.1-21.4
	c-39.6-61.3-94.7-97.2-167.2-111.6c-127.3-25.4-231.4,42.1-267.6,159.4c-2.8,9-4.1,18.8-8.9,26.5c-2.9,4.7-11.7,9.1-16.7,8
	c-4.9-1-12-9.6-11.5-14.1c1.8-16.1,4.3-32.6,10.2-47.6c26.4-67.2,73.4-116.2,136.6-150.2c9.1-4.9,18-10.1,30.2-17
	c-5.7-11.9-9.8-22.5-15.6-32c-48.1-79-122.8-104.4-210.2-101.7c-37.5,1.2-75.8,4.3-107.8,26.8c-51.5,36.2-90.1,81.8-99.4,147
	c-2.1,14.6-6.3,28.9-9.6,43.6c-25.7-8.5-27.1-10.3-23.9-32c11.3-75.3,46.2-136.9,106.9-183.5c9.7-7.5,18.8-15.7,30.1-25.1
	c-10.5-13.4-17.5-24.3-26.3-33.2c-47.3-47.9-105.9-68.2-172-66.3c-130.5,3.7-224.8,70.1-246.5,199.9c-1.4,8.1-2.2,16.7-5.7,23.8
	c-2.6,5.3-9.4,12.2-13.7,11.8c-4.9-0.5-12.9-8.2-13-12.9c-0.4-16.2,0-33,3.7-48.7c14.1-61.3,46.8-111.9,93.7-153.4
	c26-23,25.9-26.4,2.6-52.6c-92.9-104.1-291.2-77.1-347.7,47.4c-12.9,28.3-18.2,60.1-26.1,90.6c-3.4,13.2-4.7,26.9-7,40.5
	c-24.1-5.3-25-5.2-26.5-14.9c-1.4-9.2-1.9-18.8-0.8-28c7.7-60.7,29.2-115.6,69.5-162.4c5.8-6.8,10.9-14.2,16-20.8
	c-79.6-91.5-208.5-112.6-303.9-78.9c-45.1,15.9-84.9,41.4-111.8,81.8c-57.9,87-53.7,180.6-28.1,277c9.3,1.6,16.1,2.8,22.9,4
	c122.2,21.9,245.2,40,366.4,66.6c274.5,60.2,538.5,153.2,793.2,271.3c138.6,64.3,270.2,141.1,387.2,240.4
	C3236.6,1565.8,3271.6,1600.3,3312.6,1638.2z M3284,1667.1c-10.7-12.7-19.3-25.1-30-35.4c-27.9-26.7-55.7-53.9-85.5-78.4
	c-116.8-95.9-248.1-168.1-384-232.5c-162.2-76.8-330.6-137.8-501.7-191.8c-202.9-64-410.6-104.5-620.4-136.2
	c-24.8-3.7-42.5,3.7-59.5,21c-27.9,28.4-56.8,55.9-86.3,82.7c-165.6,150.6-331.7,300.6-497.3,451.3
	c-198.6,180.7-392.2,366.6-578.8,559.7c-56.2,58.1-109.3,119.2-163.4,179.2c-6.3,7-10.1,16.1-18.8,30.3c28.6-4.9,49.1-8.8,69.7-11.7
	c104.4-14.8,208.8-28.8,313.1-44.1c170.4-24.9,340.9-49.1,510.9-76.2c188.5-30.1,376.7-61.8,564.6-95.4
	c236.3-42.4,470.7-94.2,704-150.9c288.3-70.1,570.7-158.8,848.2-263.2C3273.1,1674,3276.8,1671.3,3284,1667.1z"/>
<path d="M2127.7,2379.3c0.2,52.2-34.6,87.2-87.7,87.9c-50.1,0.7-87.4-35.7-87-84.9c0.4-50.2,38.7-90.2,87.2-91.2
	C2091.5,2290.1,2127.5,2326.4,2127.7,2379.3z"/>
<path d="M1288,2423.8c49.8,0.3,87.1,37.1,87.3,86.2c0.2,52.4-38.7,89.5-92.7,88.2c-45.6-1.1-83.9-41.7-82.9-87.8
	C1200.9,2462.8,1240.9,2423.5,1288,2423.8z"/>
<path d="M1158.9,2787c-12-2-31.2-2.6-48.5-8.6c-50.2-17.5-58.6-65.8-18.7-101.1c6.1-5.4,12.8-10.5,20-14.1
	c53.6-26.1,109.5-33.4,166.7-15.4c47.2,14.9,56.6,61.5,21,96.2c-25.5,24.8-58,34.2-92,39.3C1193.7,2785.5,1179.6,2785.5,1158.9,2787
	z M1171.9,2752.5c0.2-0.8,0.4-1.7,0.7-2.5c12.8-0.9,26.2,0.4,38.2-3.2c22-6.6,44.5-13.5,64.1-25c20-11.7,17.5-28.1-3-40.1
	c-4-2.3-8.4-4.3-12.8-5.5c-50.5-13.7-96.6-2.3-139.6,25.3c-2.9,1.8-5.3,4.6-7.4,7.4c-9.8,12.9-8.7,25.3,6.3,31.2
	C1135.3,2746.7,1154,2748.6,1171.9,2752.5z"/>
<path d="M2231,2458.3c32.6-1.7,57.6,2.3,79.3,18.6c22.6,17,30.5,40.1,16.6,64.5c-10,17.5-24.5,35.6-41.6,45.2
	c-45.9,25.7-96.2,35-148.7,22.8c-6.8-1.6-13.5-3.7-19.8-6.5c-41.2-18.2-49.6-56.8-19.1-90.4c28-30.8,64.9-44.6,104.8-51.6
	C2213.8,2458.8,2225.6,2458.7,2231,2458.3z M2180.8,2582.1c25.2-6.2,51.9-10.4,76.6-19.8c18.6-7.1,41.2-16.1,38.5-43.3
	c-1.8-17.6-28.1-32.4-57.9-27.8c-31.9,5-63,15.5-94,25c-8.4,2.6-16.2,9.5-22.4,16.2c-13.5,14.6-11.4,28.3,6.9,35.9
	C2144.4,2574.9,2161.9,2577.3,2180.8,2582.1z"/>
<path d="M1783.8,2482.9c23.4-2.5,28.8,9.6,27.1,25.4c-4.9,45.1-20.4,85.5-64.9,105.1c-53.2,23.5-106.6,25.7-156.1-11.5
	c-17.4-13.1-29.6-30.2-33.2-51.8c-1-5.8,2.5-17.1,5.6-17.7c6.7-1.3,15,1.6,21.6,4.7c3.6,1.7,5.1,7.5,7.8,11.4
	c34.1,48.8,90.6,61.2,141.2,31c23.4-13.9,38.8-33,42.5-60.9C1777.2,2506.2,1781.1,2494.3,1783.8,2482.9z"/>
<path d="M1863.6,639.5c-42.1,3.3-84.4,4.8-118.5,33.8c-31.7,27-55.3,59.4-64.9,100.5c-23.7-6.2-21.1-18.4-17.5-31.5
	c17.8-65.6,81.3-119.7,149.2-126.7c11.6-1.2,23.7-2.6,34.9-0.6c7.3,1.3,13.5,8.6,20.2,13.2C1865.8,631.9,1864.7,635.7,1863.6,639.5z
	"/>
<path d="M2518.1,803.4c-7.9,6.6-13,13-19.6,16.1c-33.9,15.6-61.1,38.8-82.1,69.5c-3.3,4.8-6.6,11.2-11.3,12.8
	c-5.6,1.9-13.7,1.1-18.7-2c-3.3-2-4.9-10.4-3.7-15.1c1.6-6.5,5.8-12.9,10.2-18.2c23.2-28.6,51.2-51.4,84.5-67.1
	C2488.8,793.9,2501.1,788.5,2518.1,803.4z"/>
<path d="M3175.3,1081.4c-12.2,8.2-19.6,15.7-28.5,18.7c-28.3,9.5-53.6,23-73.7,45.7c-6.1,6.9-15.7,15-23.6,5
	c-4.3-5.4-5.1-19.4-1.1-24.5c26.4-33.8,62.8-51.5,104.8-57.2C3158.3,1068.5,3164.3,1075.1,3175.3,1081.4z"/>
<path d="M2873.3,912.1c-7.8,7.4-12.8,15.7-19.9,18.2c-31.7,11.2-58,29.7-81.1,53.6c-3.9,4-9.3,8.3-14.5,9c-4.9,0.7-11.4-2-15.1-5.5
	c-2.4-2.2-2.5-9.1-1-12.8c12.5-32.2,83.1-73.5,118.2-69.4C2862.8,905.5,2865.6,908,2873.3,912.1z"/>
<path d="M2138.1,710.9c23.5-23.7,49.7-29.4,82.6-24.9c-5.2,29.7-26.8,36.4-46.7,44C2158.5,735.9,2147.1,730,2138.1,710.9z"/>
<path d="M1709.2,1986.3c-28.7-1.8-54.7-7.5-76.2-26.2c-13.7-11.9-26.1-10.9-41.6-3.1c-51.6,25.8-102.3,22-149.9-10
	c-10.8-7.3-21.7-18.5-26.1-30.3c-5.8-15.6-15.5-21-29.8-25.5c-90.5-28.4-89-57.3-77.2-129.9c4.7-28.9,12.4-55.2,1.6-85.3
	c-5-13.9,2-35,9.7-49.8c11.2-21.6,26.6-41.4,42.2-60.2c83.2-100.5,186.1-178.9,296.2-246c87-53,182.1-92.4,284.3-107.2
	c34.2-4.9,69.9-1,104.7,1.4c13.4,0.9,29.1,5.8,38.9,14.3c24.1,20.9,50.5,20.9,79.3,17.6c14.9-1.7,30.7-1.1,45.2,2.1
	c36.2,7.9,61.3,29.7,68.7,66.9c3.3,16.7,9.1,27.1,25.8,33c76.5,26.8,94.6,94.9,65,166.4c-12.2,29.5-34.3,55.4-54.5,80.9
	c-24.7,31.1-51.1,61-78.8,89.5c-42.8,43.9-92,80-147.5,106c-28,13.1-53.6,25.6-70.9,53.9c-9.1,14.8-27,26.3-43.4,34.3
	c-63.1,31-126.6,61.2-191.1,89C1760.5,1978,1734.1,1980.4,1709.2,1986.3z M2247.5,1369.2c-45.8,1.4-88.1,10.8-128.4,27.3
	c-194.4,79.7-343.8,211.7-450.3,392.2c-14.7,24.9-26.4,52.8-33.1,80.9c-12,50,22.4,87.5,74,83.1c18.4-1.6,37.4-6.2,54.2-13.8
	c70.4-32,140.3-65,209.5-99.2c11.5-5.7,22.8-18,27.3-29.9c8.6-22.4,23.6-33.3,45.3-39.3c72.8-20.3,128-66.4,176.7-121.9
	c23.1-26.4,47.7-51.5,70.2-78.5c17.8-21.4,37.6-42.8,49.1-67.6c27.6-59.8-4.1-117.2-68.6-130.4
	C2264.4,1370.1,2254.9,1369.9,2247.5,1369.2z M1434.7,1857.5c3.3,9.5,7.3,17,8.4,24.9c4.1,29.7,24.1,44.7,49.6,53.6
	c35.2,12.2,66.8-1.8,97-17.9c5.5-3,9.9-13.8,9.7-20.9c-1.9-50.8,21.9-92.5,45-134.7c2.7-4.9,4-10.7,5.9-16.1
	c-11.4,3.9-17.6,10.8-23.2,18.1c-27.3,35.1-54.5,70.3-81.8,105.4c-10.6,13.6-20.1,29.4-43.2,25.8c-4.7-29,12.6-49.9,28.1-68.9
	c36.2-44.5,73.2-88.7,113.6-129.2c103.7-103.7,214.3-198.8,339.4-277.2c74.1-46.4,150.6-79.8,238.1-86.4c8.4-0.6,16.6-4.1,32.4-8.2
	c-13.3-15.3-20.5-27.4-30.9-35c-19.1-13.8-42.2-15.2-64.2-9.2c-54.1,14.8-108.2,29.7-161.5,47.3c-99.7,33-191.1,81.4-273.8,147.5
	c-78.2,62.5-145.7,135.4-215.1,206.7c-9.7,9.9-16.7,22.6-24,34.5c-14.1,22.9-27.1,46.6-41.5,69.4c-9.9,15.7-21.8,29.8-48.7,28.6
	c7.1-53.1,55.6-83,67.7-129c-24.4,13.5-46.4,30.7-71.4,38.2c-31.7,9.6-48.4,25.4-47.2,58.9c0.2,5.8-1.8,11.6-2.1,17.4
	c-1.9,35.8,9.4,49.6,44.9,53.5C1402,1856.4,1418.3,1856.6,1434.7,1857.5z M2063.2,1261.1c-0.2-3.3-0.3-6.5-0.5-9.8
	c-11.9-2.9-24-8.7-35.7-8.1c-43.1,2.3-86.4,4.6-129,11.1c-49.3,7.4-90.9,36.2-136.1,55.2c-132,55.7-240.7,143.9-342.4,241.6
	c-25.7,24.7-45.1,56.6-64.8,86.9c-16,24.5-16.1,42.8-3.9,51.3c17.8,12.5,34.4,2.4,48.6-7.3c37.6-25.8,75.2-51.9,110.9-80.3
	c67.7-54,132.8-111.4,201.2-164.5c98.1-76.1,207.2-131.7,326.9-165.9C2047,1268.8,2055,1264.5,2063.2,1261.1z"/>
<path d="M974.2,1896.5c33.5-22.7,63.6-44.4,95-64c29.2-18.3,61.9-28.3,96.5-29.2c44.7-1,67,21.3,69.2,65.5
	c1.6,33.5-8.9,63.4-30.1,87.7c-34.6,39.6-71.5,77.4-108.5,114.9c-16.1,16.4-37.4,23.5-60.7,23.7c-39.7,0.5-64.4-16.1-76.7-53.9
	c-5.7-17.4-8.7-35.7-13.2-54.5c-3.7,2.4-6.2,3.1-6.9,4.7c-33,67.3-118.1,95.3-184.4,58.8c-11-6.1-21.3-19.3-25.2-31.3
	c-10.9-33.9-7.6-68,14.9-96.8c39.2-50.1,91.1-83.7,149.5-107.5c8.5-3.5,18.2-4.6,27.5-5.6c27.5-2.8,45.1,10,50.8,37
	c1.7,8,1.9,16.3,2.3,24.5C974.4,1878.5,974.2,1886.7,974.2,1896.5z M984.6,1984.7c2.5,13.8,3.6,28,7.7,41.2
	c11.7,36.9,42.2,46.5,74.4,24.2c5.7-4,11-8.8,15.9-13.8c28.6-29.4,57.4-58.6,85.2-88.9c9.3-10.2,17.5-22.3,23-34.9
	c9.6-22.1,15.4-47.1-3.2-66.2c-18.4-18.8-43.6-10.8-62.4,0c-38.5,21.9-75.5,46.7-111.6,72.5C992.3,1934.2,985.2,1958.3,984.6,1984.7
	z M936.1,1843c-11.2,2.3-21.3,2-28.9,6.3c-39.4,22.7-78.9,45.4-116.8,70.4c-21.9,14.4-29.5,38.5-29.8,64.4
	c-0.3,23.8,7.6,34.1,30.2,40.8c47.9,14.3,104.9-5.7,133-47.7c4-6,4.5-14.6,5.5-22.2c2-14.6,2.3-29.4,5-43.8
	C938.5,1889.9,949.2,1869.1,936.1,1843z"/>
<path d="M1338.1,1343.9c0.8-24,10.4-51.9,27.4-75.8c16.1-22.6,33.8-45.3,55.2-62.5c46.3-37.2,100.9-58.5,159-69.1
	c35.1-6.4,50,5.3,58.1,39.4c13.7,57.8-15.2,138.2-65.2,169.9c-42.3,26.8-86.5,51.2-131.8,72.4
	C1386.5,1443.4,1339,1410.3,1338.1,1343.9z M1605.8,1210.9c0-3.5,0.2-7,0-10.5c-1.9-36.9-12.1-43.7-46.4-28.2
	c-32,14.4-63.8,29.5-94.4,46.6c-33.4,18.6-60.6,45-76.8,79.9c-7.6,16.4-12.9,35.7-12.8,53.6c0.2,38,21.6,51.4,55.7,35.5
	c37.1-17.3,73.4-36.5,109.1-56.7C1586.3,1305,1604.2,1262.1,1605.8,1210.9z"/>
<path d="M1172.3,1519.1c16.1,2.5,44.2,5.1,71.4,11.6c23.3,5.5,28.5,15.2,24.7,38.7c-5.1,31.4-21.4,57-46.7,75.9
	c-45,33.7-96.5,52.4-151.9,59.5c-27.9,3.6-46.8-13.2-52.9-44.6c-9.2-48,10.3-84.4,47.4-113C1092.6,1525.4,1126,1520.5,1172.3,1519.1
	z M1055.8,1664.7c9.5,0,20.7,2.9,29.4-0.5c40-15.9,79.7-32.6,118.5-51.2c12-5.8,21.4-17.7,30.6-28.2c3.4-3.9,2.7-11.5,5.6-26.5
	c-16.3,10.6-26.1,15.8-34.6,22.7c-23.3,19-50,29.7-79.4,33.7c-5.4,0.7-11.4-3-17.2-4.7c-0.3-2.4-0.6-4.8-0.9-7.2
	c14.6-5.7,29.3-11.1,43.7-17.3c14.7-6.3,35.5-5.3,38.5-28.5C1109.4,1539.6,1040.2,1594.6,1055.8,1664.7z"/>
<path d="M2772.8,1627.3c0.4,72.5-33.8,111.4-90.2,109.1c-12.3-0.5-26.2-3.9-36.1-10.8c-43.1-29.7-77.5-67.7-100.7-115.1
	c-17.5-35.8-11.2-68.1,15-97.3c21.7-24.2,48.5-40.7,79.2-50.1c40.7-12.5,70.6-0.8,93.3,35.7
	C2759.3,1540.6,2770.4,1587,2772.8,1627.3z M2739.5,1637c-5.7-43.5-10.9-84.3-31.1-121c-11.1-20.3-22.4-26.9-43.1-19.6
	c-24.1,8.4-47.4,19.8-69.3,32.9c-18.5,11.1-25.9,30-20.6,51.9c11.9,48.9,40.7,87.2,81.1,115.1c30.1,20.8,67.3,4.4,77.9-30.8
	C2737.4,1655.5,2738.1,1644.9,2739.5,1637z"/>
<path d="M2260.4,1780.8c2.7-79.4,31.4-118.7,107.8-139.3c27.8-7.5,57.2-9.7,86.1-12.1c20.1-1.7,35.8,9.3,47.2,25.5
	c35.2,50.1,23.4,118.7-28.7,151c-52.8,32.8-112.8,43.3-173.8,48c-19.8,1.5-30.8-9.9-34.1-28
	C2262.2,1811.1,2261.8,1795.8,2260.4,1780.8z M2298.9,1816.4c33.1,3.4,98.9-10.6,141.4-27.5c38.7-15.4,58.4-36.5,46.8-95.6
	c-5.3-26.7-18.4-36.1-45.2-30.5c-27.3,5.7-54.7,13-80.7,22.9C2302.7,1707.9,2281.9,1752.4,2298.9,1816.4z"/>
<path d="M2513.9,1407.5c-40.2-0.5-76.2-34.5-76.1-72.1c0-36.5,30.9-68.7,65.9-68.6c45.7,0,83.5,35.2,83.4,77.5
	C2587,1381.7,2556.5,1408,2513.9,1407.5z M2510.5,1301c-21.3-0.3-38,13.9-37.8,32.3c0.2,21.6,21.3,41.5,43.6,41.2
	c19.6-0.3,34.2-13.2,35.2-31.2C2552.9,1320.4,2534.4,1301.4,2510.5,1301z"/>
<path d="M2946,1674.6c-39.2,0.4-70.1-26.6-71.4-62.4c-1.5-41.3,34-79.4,73.3-78.6c39.1,0.7,71.3,33.5,71.3,72.4
	C3019.2,1645.8,2989,1674.2,2946,1674.6z M2947,1568.9c-22.9,0.5-38.6,16.5-37.2,37.7c1.3,20.1,16.8,34.9,36.6,35.1
	c21.9,0.2,39.4-15.8,39.4-36.3C2985.9,1584.5,2968.8,1568.4,2947,1568.9z"/>
<path d="M591.1,2200.9c-43.5,0.1-71.9-23.4-72.2-59.6c-0.3-40.1,36.8-77.5,76-76.9c42.2,0.7,70,27.1,69.9,66.7
	C664.7,2175.9,638.4,2200.8,591.1,2200.9z M588.4,2166.1c26.2,0.5,46.7-15.6,46.2-36.5c-0.4-18-16.9-31.9-38.4-32.4
	c-23.9-0.6-43.6,17.5-43.5,40.1C552.7,2155.6,565.2,2165.7,588.4,2166.1z"/>
<path d="M1292.1,1966.7c39.6,0.3,62.3,25,62.4,68c0.1,38.9-30.9,66-74.7,65.1c-37.2-0.7-61.5-27-61.2-66.2
	C1219,1993.9,1249.1,1966.4,1292.1,1966.7z M1292.5,2002.2c-24.3-0.5-39.2,12.3-39.2,33.8c0,17.1,10.6,28.8,27.1,30
	c21.2,1.4,41.9-17.2,41.7-37.6C1322,2011.6,1311.8,2002.6,1292.5,2002.2z"/>
<path d="M1770.1,1078.3c40.5,2.4,69.6,32.8,67.3,70.1c-2.4,37.4-37.4,66.2-77.9,64.1c-37.6-2-69.1-34.3-66-67.7
	C1696.8,1107.1,1732.7,1076.1,1770.1,1078.3z M1763.4,1110.1c-22,0.7-35.2,14.7-33.9,36c1.2,20.1,16.9,34.2,37.5,33.6
	c19.7-0.6,37.2-17,37-34.8C1803.8,1125.4,1785.2,1109.4,1763.4,1110.1z"/>
<path d="M1789,1849.8c-12.9,0.6-20.9-9.5-16.1-18.8c4.7-9,11.5-18.1,19.6-23.9c47.8-34.4,88-76.4,128.8-118.5
	c26.4-27.2,60.3-47.9,93-68c50.9-31.4,100.1-64.7,144.2-105.4c15.4-14.2,32.9-26.4,50.6-37.6c10.6-6.8,23.2-11.2,35.5-14.2
	c5.1-1.2,14.8,2.8,16.8,7.1c1.9,4-1.8,14.9-5.9,17c-52.4,26-90.8,69.4-134.9,105.8c-16.1,13.3-34.9,23.6-53.5,33.3
	c-60,31-110.8,72.9-157.3,121.8c-31.2,32.9-67.9,60.6-102.4,90.3C1801.4,1843.6,1793.8,1846.9,1789,1849.8z"/>
<path d="M2113.6,1654.4c13,1.9,20.6,3,28.5,4.1c-1,5.3-0.7,8.3-2,9.3C2129.9,1675.9,2122,1674.4,2113.6,1654.4z"/>
<path d="M1858.8,1442.8c-10.5,8.3-22.2,17.3-33.6,26.7c-38.8,31.6-77.7,63.2-116.3,95.1c-8.8,7.2-16.1,16.9-32.4,11.3
	c2-7.1,1.9-14.8,5.7-19c44.5-48.2,94-90.6,150.7-124.1C1842.2,1427.3,1852.6,1423.3,1858.8,1442.8z"/>
<path d="M1545.7,1475.3c51.8-67.9,128-99.6,196-143.3c1.8,2.5,3.7,5,5.5,7.5c-21.6,15.8-43.2,31.6-64.7,47.6
	c-22.5,16.7-44,34.7-67.3,50.1C1593.2,1451.7,1576.6,1476.1,1545.7,1475.3z"/>
<path d="M1035.5,1949.3c3.1-8.7,4.3-18.8,9.5-25.9c16.8-22.8,50.6-39.7,81.9-42.2c-0.5,5.6,1.1,13.6-1.7,15.5
	c-27.4,19.4-52,43.5-82.4,58.2C1040.4,1953,1038,1951.2,1035.5,1949.3z"/>
<path d="M887.2,1898.5c-1.8,5-2.5,10.9-5.7,14.7c-15.8,18.7-32.2,36.9-48.5,55.3c-3.1,3.5-6.1,8.9-9.9,9.5c-7.2,1.2-15-0.3-22.5-0.7
	c1.4-6.2,0.7-14.2,4.4-18.4c14.6-16.7,29.9-33,46.4-47.7c8.8-7.8,20.7-12.2,31.2-18.1C884.3,1895,885.8,1896.8,887.2,1898.5z"/>
<path d="M1437.9,1318.4c5.8-48.5,68.5-101.3,116.9-102.5c-7.9,30.1-37.4,36.4-56,52.8C1480.7,1284.5,1469.4,1310.1,1437.9,1318.4z"
	/>
<path d="M2677,1663.3c-31.3-14-38.4-43.8-47.2-71.3c-5.9-18.3-15.6-39,5.3-64.3C2648.4,1576.7,2674.5,1615.2,2677,1663.3z"/>
<path d="M2339.5,1773.4c0.7-32.7,15-46.8,56.2-55.4C2404.6,1746,2380.1,1770.1,2339.5,1773.4z"/>
</svg>
