<?xml version="1.0" encoding="utf-8"?>
<!-- Generator: Adobe Illustrator 24.3.0, SVG Export Plug-In . SVG Version: 6.00 Build 0)  -->
<svg version="1.1" id="Layer_1" xmlns="http://www.w3.org/2000/svg" xmlns:xlink="http://www.w3.org/1999/xlink" x="0px" y="0px"
	 viewBox="0 0 4000 4000" style="enable-background:new 0 0 4000 4000;" xml:space="preserve">
<path d="M1891.8,743.8c-26-49.8-39.7-100.6-45.4-153.4c-5.6-51.5-8-103.1,2.9-154.3c9.4-44.5,29-59.9,72.5-49.7
	c111.8,26.2,219.6,63.7,306.6,142.1c32.7,29.5,57.8,67.5,86,101.9c8,9.7,14.9,20.4,23.6,32.4c7.5-6.6,13.6-10.3,17.3-15.6
	c54.8-79.5,131.4-129.5,220.2-162.7c75.3-28.1,154.5-39.4,233.4-50.9c43.8-6.4,64.5,13,62.2,58.2c-6.4,122.4-35.5,236.8-122.3,329.5
	c-6.3,6.7-11.4,14.4-19.5,24.7c10.6,3.9,18.6,7.8,27,9.9c199.5,49.3,320.2,177,370.9,373.6c27,104.5,20.7,209.6,1.4,314.5
	c-5.8,31.5-6.1,31.6,15.9,47.3c118.2,84.9,236.5,169.7,354.1,255.5c61.6,45,121.6,92.3,182.8,137.9c47.4,35.3,71.8,79.4,71.6,140.8
	c-0.5,117.4,3.3,234.9,6.6,352.3c6,211.3,12.8,422.7,20.2,634c0.9,25.6,7.5,51,12.2,76.3c8.1,44.2,11.3,88.1,4.9,133.1
	c-8.1,57.2-38.3,92.1-95.3,102.2c-42.7,7.5-85.4,16.4-128.6,20.3c-203.8,18.4-408.2,21.9-612.6,18.3
	c-197.3-3.5-394.6-8.9-591.7-18.9c-171.2-8.8-342.1-23.6-512.9-38.8c-138-12.3-275.7-27.4-413.2-44.5
	c-166.6-20.7-332.2-48.2-495.9-85.4c-35.3-8-69.9-20.2-104-32.6c-53.3-19.4-92.5-55.8-115.4-107.5c-15.6-35.3-31.3-71.3-40.7-108.6
	c-43.1-171.9-85-344.1-125.4-516.7c-35.3-150.9-63.8-303.3-108.3-452.1c-9.1-30.6-22.3-48.3-55-59.6
	C190.6,1926.3,114,1650,280,1468.9c62-67.7,139.5-110.4,230.9-125.7c17.8-3,32.7-6.7,41.8-26.3c54.1-115.8,150-173.8,273.3-189.5
	c26.2-3.3,40.8-12.3,54.8-34.8c55.6-88.7,138.9-133.9,241.9-143.4c26.7-2.5,54-0.4,80.9,1.8c15.9,1.3,25.9-3.7,36.3-15.4
	c78.4-88.3,178.1-116.7,292.5-100.8c17.3,2.4,30.9,1.6,44.5-12.3c78.6-80.3,175.8-97.2,282.3-79.8c7,1.1,13.9,2.5,20.9,3.3
	C1882.2,746.3,1884.5,745.3,1891.8,743.8z M3677.5,2199.3c-13.6-1.7-22.7-3.3-32-3.8c-120.7-7.5-241.4-16.2-362.2-22.1
	c-281.6-13.6-563.2-26-844.9-38.7c-295.7-13.4-591.5-26.1-886-57c-202-21.2-403.6-46.1-605.4-69c-23.3-2.6-46.8-4.9-70.2-4.6
	c-24.6,0.3-29,5.8-27,30c2.2,26.9,5.8,53.7,9.7,80.4c25.4,174.5,64.3,346.4,104.1,518c16.2,69.7,35.6,138.7,55.3,207.5
	c17.3,60.4,57.9,97.8,119.4,112.1c4.6,1.1,8.8,3.3,13.4,4.3c81.5,17.3,162.3,38.9,244.6,50.6c145.2,20.7,291,38.4,437,51.7
	c181.3,16.5,362.9,28.9,544.7,39.7c147.7,8.8,295.7,14.2,443.6,18.3c270.2,7.5,540.3,7.6,810.2-11.5c23-1.6,45.8-5.8,72.8-9.3
	C3695.5,2795.3,3686.5,2497.7,3677.5,2199.3z M2324.9,1045.8c-5-7.8-12.3-14.9-14.5-23.4c-7.4-28.7-28.2-41.4-53.8-50.3
	c-39.9-14-80.6-26.1-118.9-43.7c-59.8-27.4-121.6-33.6-185.7-27.5c-93,8.8-181.1,33.6-252.6,96c-112.3,97.9-175.4,221.8-181.6,372
	c-4,96.4,16.4,189,49.4,279.1c41.3,112.8,110.6,206.3,200.4,284.9c18.6,16.3,38.6,30.1,65.2,31.6c65.6,3.8,131.1,9.3,196.8,13
	c229.7,13.1,459.5,25.4,689.1,39.2c29.4,1.8,51.5-6.3,73.3-25.4c103.2-90.4,173.4-202.7,221.8-329.6
	c48.6-127.5,70.2-258.6,41.2-393.6c-26.7-124.3-87.1-227.7-202.1-291.3c-82.5-45.6-171.7-59.2-265.3-52.7
	c-63.1,4.3-120.9,27.1-180.7,43.9c-26.8,7.6-43,21.4-50.7,47.5C2352.3,1028.9,2347.6,1042.9,2324.9,1045.8z M3719.7,3243.6
	c-10.8,0.5-21.2,1-31.6,1.5c-150.1,7.5-300.2,17.4-450.4,22c-227.9,7-455.9,1.5-683.5-9.8c-171.2-8.5-342.1-23.4-513-37.3
	c-114.7-9.3-229.3-20.4-343.6-33.5c-139.9-16-279.7-33.8-419.2-52.7c-90.8-12.3-180.2-31.5-267.6-59.9
	c-64.9-21.1-109.7-61.8-130.9-127.1c-10.5-32.4-22.3-64.5-30.5-97.4c-72.5-289.6-129.6-582.1-170.3-877.9
	c-10.7-78.2-26-155.3-62.2-226.6c-20.4-40.3-44.5-78.3-84.4-101.6c-19.8-11.6-42.6-20.7-65-24.3c-41.2-6.6-75.4,10.3-103.5,41
	c-10.3,11.2-19.1,27.6-39.3,22.4c-2.2-25-1.8-28,8.9-43.2c23.9-34.1,58.3-50.5,98.4-54.9c74.8-8.2,132.1,24,177.2,81.1
	c30.2,38.3,48.1,83.1,64.2,128.6c4.2,11.8,8.6,23.5,13.8,37.9c9.8-7.3,16.8-11.5,22.6-16.9c23.2-21.6,46.3-43.4,69.1-65.4
	c140.8-135.9,302.5-241.6,478.1-326.3c66.6-32.1,135-60.4,203-89.6c18.8-8.1,28.1-18.9,32.4-40.6c22.5-114.3,70.5-215.9,156.7-297
	c4-3.8,6.3-9.4,9.8-14.7c-4.4-5.5-7.7-10.2-11.6-14.5c-35.7-39.1-83.8-50.4-133.2-56.7c-86.9-11.2-159.4,17.8-217.8,82.5
	c-5.7,6.4-9,15-14,23.5c10.1,7.8,16.9,14.3,24.8,18.9c56.8,33.4,88.8,85.7,110.4,145.6c2.8,7.7,6.3,15.8,6.2,23.7
	c-0.1,5.7-4.9,15.5-8.7,16.1c-6.5,1.1-17-1.6-20.4-6.5c-6.5-9.4-9.3-21.3-13.5-32.3c-17.8-47.5-46.7-86.6-88.7-115.5
	c-83.8-57.8-227.7-67.1-328,48.4c-14.3,16.4-28.2,34.3-30.8,55.6c1.9,3.3,2.2,4.9,3.1,5.3c7.4,3.5,14.8,7,22.3,10.3
	c62.9,27.9,108.9,72.6,135,136.8c4,9.7,8.5,20.2,8.3,30.3c-0.2,7.4-7.7,14.7-11.9,22c-6.1-4.2-14.2-7.1-17.9-12.9
	c-5.6-8.7-7.8-19.5-12-29.2c-34.6-81.4-98.4-125.5-184.4-132.2c-78.2-6.1-200.4,40.4-248.4,149.3c-3.1,7-3.9,15-6.2,24.1
	c10.1,2.6,17.8,4.6,25.6,6.5c65.7,16.7,117.3,53,152.1,111.4c8.9,15,15.7,31.7,20.3,48.4c1.9,6.9-4.5,16.2-7.2,24.3
	c-7.2-4.3-15.6-7.5-21.2-13.3c-4.6-4.7-5.6-12.7-8.5-19.1c-39.6-88.2-129.4-136.1-224.4-121.4c-52,8.1-100.2,25.6-144.3,53.5
	C337.2,1513,283,1577.4,272.4,1672c-13.2,117.3,53.5,222.7,165.7,259.2c7.8,2.5,15.7,4.7,23.6,7.3c21.2,7,36.9,19.8,44.7,41.5
	c7.9,22.1,18.6,43.3,24.7,65.9c19.9,72.5,39.9,144.9,56.8,218.1c43.3,187.6,83.4,376,127.8,563.4c19.5,82.1,45.7,162.6,70.1,243.5
	c18.6,61.7,61,98.2,124,111.8c66.5,14.3,132.3,32.7,199.4,43.6c159.8,26,319.8,51.5,480.4,71.8c152.6,19.2,305.8,34.3,459.1,46.2
	c182.7,14.1,365.7,24.5,548.7,33.6c261.8,13,523.9,10.5,785.8,1.4c86.7-3,173.4-12,259.6-22.9c80.6-10.2,88.3-23.5,80.7-105.5
	C3723.2,3249.8,3722.3,3248.8,3719.7,3243.6z M3706.9,3137.3c-12.7,0-20.8-0.4-28.9,0.1c-100.8,6.2-201.5,15.3-302.4,18.1
	c-244.3,6.8-488.7,4.1-732.9-7.2c-118.5-5.5-237.1-10-355.4-18.1c-154.7-10.6-309.1-24.1-463.6-36.6
	c-160.3-12.9-320.2-30.2-478.8-57.9c-79.9-13.9-158.6-31.9-235.6-57.8c-60.8-20.5-99-61.3-118.4-120.7
	c-15.3-46.8-31.9-93.6-42.4-141.6c-41-188.1-80.5-376.5-119.1-565c-8.7-42.4-13.1-85.9-16.7-129.2c-2.8-33.2,13.3-49.8,46.5-53.6
	c8.1-0.9,16.5-0.8,24.6,0.1c43.2,4.6,86.4,9.3,129.5,14.5c142.2,17.1,284.2,36.6,426.7,50.9c142.5,14.3,285.5,24.7,428.4,34.4
	c148.8,10.1,297.8,17.5,446.7,25.6c56.3,3.1,112.7,4.5,169,7.1c245.2,11.1,490.5,22.2,735.7,33.8c127.9,6,255.7,13,383.6,19.7
	c23.1,1.2,46.2,2.9,70.4,4.4c0-20.9,0-38.8,0-58.1c-11.8-1.7-20.9-3.8-30-4.2c-55.1-2.8-110.3-5.2-165.4-7.8
	c-170.1-8.1-340.3-16.1-510.4-24.2c-126.7-6-253.4-11.6-380.1-18.3c-144.3-7.7-288.5-16.2-432.7-24.7c-136-8-272.1-15-407.9-25.3
	c-174.5-13.2-348.9-27.7-523.1-44.5c-142.5-13.7-284.7-31.6-427-47.7c-29.8-3.4-59.7-7-92.8-10.9c1.4,15.8,1.8,27.3,3.6,38.6
	c9.4,58,20.2,115.7,28.6,173.8c32.1,221,76.2,439.7,127.2,657.1c13.6,58.2,30.4,115.8,48.5,172.8c18.4,57.9,58.7,93.7,117.8,110.6
	c114.4,32.7,231.4,51.8,348.8,67c156,20.3,312.4,37.7,468.8,54c140.2,14.6,280.5,28.3,421,38c157,10.9,314.2,18.6,471.5,24.4
	c239.6,8.8,479.3,7,718.8-4.7c76.2-3.7,152.2-11,228.3-17c8.9-0.7,17.6-3.6,29.6-6.1C3713.4,3179.1,3710.4,3159.9,3706.9,3137.3z
	 M1487.7,1469c-11.1,4.2-17.5,6.4-23.8,9c-77.5,31.3-152,68.5-222.2,113.7c-47.3,30.5-93.4,63-140.3,94.1c-6.6,4.4-15.3,5.6-24,8.6
	c-6.5-23.9,6.9-33.6,18.8-42.2c32.3-23.4,64.6-47,98.4-68c86.8-53.9,175.3-104.9,270.6-142.8c11.5-4.6,21.8-10.6,21.6-24.6
	c-0.2-16.9-1.6-33.9-2.6-52.9c-10.2,2.6-16,3.2-21.2,5.5c-50.5,22-101.1,43.8-151.3,66.4c-150.8,67.8-290,154.6-418.2,258.8
	c-49.1,39.9-94.6,84.3-141.2,127.2c-9.7,8.9-21.3,18.1-20.2,33.9c76.9,24.5,939.7,107.7,1004.9,96
	C1593.5,1822.4,1516.3,1660.5,1487.7,1469z M3637.9,2058c-28.6-41.8-531.7-405.3-578.5-419.8c-10.1,23.1-20.2,46.6-30.7,69.8
	c-10.2,22.4-20.2,45-31.6,66.8c-11.9,22.9-24.7,45.4-38.4,67.3c-13.8,21.8-28.6,43.1-44.2,63.6c-14.9,19.6-31,38.4-47.3,56.8
	c-16.3,18.4-33.7,36-55.9,59.5C3091,2034.2,3361.9,2046,3637.9,2058z M2275.3,949.7c2.1-1.7,4.2-3.5,6.3-5.2
	c-4.3-10.6-7.9-21.5-13.1-31.6c-13.4-26.1-27.9-51.6-41.3-77.7c-24.2-47-61.5-75.7-114.2-84.2c-20.8-3.4-41.4-8.4-61.7-14
	c-12-3.3-24.8-7.8-23.8-24.6c29.5-10.4,60.1,7.2,94.6-7.3c-22.1-18.8-40.9-34-58.7-50.3c-18.2-16.6-36.6-33.2-53-51.5
	c-15.6-17.4-41.3-26.1-48-52.8c23.2-7.3,37.8,4.8,51.7,17.6c22.4,20.7,44.1,42.2,66.6,62.8c5.5,5,12.8,8,19.4,12
	c13.2-21.9-11.6-51.9,20-68c19.2,21.8,20,48.5,24.4,73.2c7.3,40.8,23.2,75.9,55.9,102.6c16.6,13.5,20.4,13.6,33.7-2.4
	c4.7-5.7,10-10.9,18.9-20.6c-2.3,28.2-8.4,50.8-4.7,71.7c3.5,19.9,16.3,38.6,26.9,56.7c10.6,18,14.9,41.1,37.3,52.5
	c9.2-52.1-8-148.7-37.3-199.5c-18.1-31.3-36.4-63.7-60.6-90.2c-75.5-82.7-174.2-124.8-280.7-151c-1.8-0.5-4.2,1.3-7.9,2.6
	c-1.2,3.2-3.8,7.4-4.2,11.7c-10.8,123.3,27.2,229.7,104.9,325.8C2092.1,889.2,2184.6,916.4,2275.3,949.7z M2386.6,936.9
	c79.3,1.4,235.1-83.8,304.8-167.2c61.5-73.7,97.4-157.8,103.4-258.8c-74.2,11.7-142.2,27.5-208.2,52.5
	c-66.5,25.2-121.1,66.4-165.5,121.3c-52.2,64.6-75.2,138.4-66.7,222.5c15.2-18.9,28.5-38.7,40.1-59.6c11.9-21.4,22.5-43.6,32.8-65.8
	c9.6-20.9,1.2-48.3,23.8-69c5.4,14.7,9.5,26.1,14.2,38.9c6-3.3,10.5-4.9,13.9-7.8c31.9-28.2,61.5-57.4,69.5-102.6
	c3.5-19.9,11.3-40.6,41.9-45.6c-2.6,20.4-4.8,37.9-7.8,61c13.1-7.2,22.5-11.2,30.7-17.1c18.1-13,35-27.7,53.3-40.4
	c18.7-12.9,37.8-26.7,69.4-19.7c-41,47.5-93.6,72.7-145.1,110.4c29.9,0,52.8,0,75,0c6.7,17.9-1.9,24.8-15.2,26.5
	c-23.3,2.9-46.7,6.3-70,6.2c-46.9-0.1-68.7,35.4-101.2,62.5c24.6,10.1,50.1-3,69.1,20.4c-9,4.7-15.4,9.6-22.5,11.4
	c-18.2,4.5-37.1,6.4-55,11.6c-11.8,3.5-25.1,8.5-33.1,17.1C2414.2,871.8,2398.1,902.8,2386.6,936.9z M1925.9,866.8
	c-60.5-77.5-239.5-62.8-303.4,25.2c24.2,20.9,48.6,41.9,70.3,60.5c40.4-19.4,75.2-39.6,112.4-53.2
	C1843.3,885.4,1883.8,877.9,1925.9,866.8z"/>
<path d="M2920.9,2630.8c0.6,55-35,91.2-89.6,91.2c-44.9-0.1-83.2-37.5-84.5-82.4c-1.4-48.9,42.6-96.1,89.1-95.7
	C2880.1,2544.1,2920.4,2585.3,2920.9,2630.8z"/>
<path d="M2094.2,2703.4c-47.2,0.2-84-37.1-84-85.1c0-47.1,37.7-86.5,83.2-87.1c49.8-0.7,87.2,36.4,86.8,85.9
	C2179.8,2668.8,2145.4,2703.3,2094.2,2703.4z"/>
<path d="M2958.3,2732.3c32,2.8,62.1,6.2,89.1,22.5c20.7,12.5,37.6,28.7,35.8,55.8c-1.7,24.8-16.8,41.5-38,50.8
	c-55.8,24.3-113.2,27.2-170.3,4.6c-24.3-9.6-40.5-27.8-41-55.8c-0.5-26.7,14.4-45.5,37.4-54.2
	C2899.3,2745.4,2929.2,2739.9,2958.3,2732.3z M2953.3,2846.5c25.1-5,47.5-7.3,68.2-14.5c10.5-3.6,23.7-14.8,25.6-24.6
	c3.1-16-13.1-24.5-26.6-27.6c-21.4-5-43.7-9.4-65.5-8.9c-25.5,0.6-51.7,3.9-72.7,21.8c-16.1,13.7-16.4,27.4,2.7,35.2
	C2907.3,2837.1,2931.7,2840.9,2953.3,2846.5z"/>
<path d="M1961.2,2724.6c35-1.3,67.9,6.5,98.1,23.8c39.2,22.5,41.3,68.8,4.2,94.9c-9.4,6.6-20.5,12.1-31.6,15
	c-45.4,11.5-91,11.4-134.9-6.2c-13.8-5.5-27.5-14-37.9-24.5c-22-22.3-20.6-49.1,0.7-72.2c16-17.3,36.8-24.9,59.3-28
	C1932.9,2725.5,1947.1,2725.5,1961.2,2724.6z M1972,2756c-21.4,3.2-42.7,4.1-62.4,10.2c-10.5,3.3-23.1,14.1-26.2,24.1
	c-4.4,14.5,11.1,21.7,22.7,26.5c39,16.3,79.6,17.7,119.8,6.1c10.7-3.1,24.2-13.5,26.9-23.2c4.3-15.2-10.2-25.8-23.4-30.3
	C2010.9,2763.1,1991.2,2760.3,1972,2756z"/>
<path d="M2461.1,2811.7c-59-2.7-104.5-32.8-120.8-81.9c-1.8-5.5-5.1-11.7-4.1-16.9c1.6-8.1,6.3-15.7,9.7-23.4
	c6.2,4.4,13.2,8,18.3,13.5c3.8,4.1,4.9,10.5,7.3,15.9c24.5,55.4,103.8,76,151.6,38.4c10.6-8.3,17.9-21.2,25.7-32.7
	c3.8-5.7,4.7-13.3,7.7-19.6c4.7-9.7,13.3-15.4,22.6-8.6c5,3.6,9.2,13.8,8,19.8c-8.3,42.5-32.8,72.4-74.3,85.9
	C2496.3,2807.5,2478.4,2808.6,2461.1,2811.7z"/>
<path d="M2759.3,1018.7c-20.1,1.3-32.5,3.8-44.5,2.7c-74.7-7.1-145.1,8.8-211.3,42c-94.8,47.5-189.5,45.8-285.8,5.6
	c-41.1-17.1-82.2-35.2-124.9-47.6c-241-69.8-422,107.8-454.6,293.3c-18.5,105.5-7.7,208,26.8,308.7c4.6,13.3,9.5,26.6,12.1,40.4
	c1,5.2-3.2,15-7.2,16.4c-4.7,1.6-12.4-2.9-17.4-6.6c-3.3-2.4-4.7-7.9-6.3-12.3c-40.3-109.4-65-221.1-42.8-338.1
	c26.3-138.8,92.8-251,224.1-314c87.7-42.1,180.4-50.7,274.1-19.4c50,16.7,99.4,35.5,148.5,55c66.9,26.5,133.2,22.5,199.4-1.3
	c26.5-9.5,52.7-19.8,78.7-30.7c53-22.3,108.6-29,165.4-27.2c16,0.5,32.2,5.7,47.6,11C2746.6,998.5,2749.9,1007,2759.3,1018.7z"/>
<path d="M2827,1026.7c29,6.6,48.1,24.4,65.9,42.4c75.7,76.5,118,167.8,118.9,276.7c0.2,21.1,1.8,42.1,2,63.2
	c0.1,11.7-4.1,20.9-18.3,20.2c-12.4-0.6-14.5-9.8-15.9-19.5c-0.3-2.3-0.6-4.8-0.1-7c11.3-47.8-5-93-14.8-138.4
	c-17.2-79.4-55.1-146.1-124.4-192.5C2817.6,1056.6,2818,1054.8,2827,1026.7z"/>
<path d="M2547,1485.2c-0.7-35.1,29.1-67.5,62.1-67.5c32.1,0,61.1,29.8,62.4,64.1c1.5,37.2-24.9,66.4-60.9,67.4
	C2573.9,1550.3,2547.8,1524.1,2547,1485.2z"/>
<path d="M2058.9,1480c0.2-36.4,29.6-66.8,63.5-65.7c34.1,1.2,62.5,31.5,63.4,67.7c0.8,33.3-30,61.5-67.7,62.1
	C2083,1544.7,2058.7,1518.3,2058.9,1480z"/>
<path d="M2345.2,1692.9c-17.7-1.2-46.8-13.4-60.9-42.6c-12.4-25.7-17.2-55.4-23.4-83.7c-1.1-5,6.9-12.1,10.7-18.2
	c5.4,5.1,12.8,9.3,15.6,15.6c4.1,9.5,3.6,20.9,7.5,30.6c6,15,11.5,31.4,21.6,43.5c30.2,36,85.2,26.5,102.8-17.4
	c6.9-17.2,10.1-36,14.5-54.2c2.3-9.7,5.2-20.8,17-16.5c5.8,2.1,12.2,14.5,11.3,21.2c-3.3,23-6.8,46.8-15.5,68.1
	C2431,1676.7,2400.5,1694.4,2345.2,1692.9z"/>
<path d="M2928,1271.6c-4.8,6-9.5,16.8-17.4,20.4c-12.9,5.8-17.8-6.4-21.9-16.3c-1.3-3.2-2.1-6.7-2.6-10.1
	c-7-50.4-34.9-88.2-71.9-120.8c-8.6-7.6-16.5-16.5-22.8-26.1c-2.1-3.1,0.5-11.1,3.3-15.1c1.7-2.4,8.9-2.9,12.4-1.4
	c8.4,3.8,16.7,8.6,23.9,14.4c45.1,36.1,75.9,82,92.3,137.4C2924.6,1258.5,2925.7,1263,2928,1271.6z"/>
<path d="M1792.3,1861.1c-11.7-4.1-22.6-4.5-27.2-10.1c-21.4-26-41.6-53.1-60.7-80.8c-3-4.4-0.8-17.8,3.2-20.4c4.8-3,17.8-1.6,21,2.7
	c22.5,29.6,43.4,60.3,64.5,90.9C1794.6,1845.5,1792.9,1850,1792.3,1861.1z"/>
<path d="M1278.7,1122.8c-8.9-4.3-18.1-8.1-26.8-12.9c-48.1-26.6-96.9-32.7-147.1-6c-4.1,2.2-8.4,5.5-12.6,5.5
	c-5.3,0-14-1.6-15.2-4.8c-2.1-5.6-0.3-13.1,1.3-19.4c0.7-2.7,5-4.6,7.9-6.6c46.7-32.2,136-29,178.9,7.3c8.9,7.5,14.6,18.9,21.8,28.5
	C1284.2,1117.1,1281.4,1120,1278.7,1122.8z"/>
<path d="M1612.3,990.5c-10.8-2.9-22-4.9-32.4-8.7c-36.3-13.5-72.7-17.6-109.7-2.9c-10.1,4-21.4,8.2-27.5-4.4
	c-6.4-13.1,1.5-22.3,12.7-28.7c39.2-22.3,123.9-8.3,154.1,25.7c2.9,3.2,4.4,7.7,6.6,11.5C1614.8,985.4,1613.5,987.9,1612.3,990.5z"
	/>
<path d="M1000.5,1752.2c-23.5,39.4-56.3,61.3-83.5,89.1c-15.7-7.8-23.8-20.5-13-31c23.9-23,51.1-42.6,77.5-63
	C983.6,1745.9,989.7,1749.4,1000.5,1752.2z"/>
</svg>
