<?xml version="1.0" encoding="utf-8"?>
<!-- Generator: Adobe Illustrator 24.3.0, SVG Export Plug-In . SVG Version: 6.00 Build 0)  -->
<svg version="1.1" id="Layer_1" xmlns="http://www.w3.org/2000/svg" xmlns:xlink="http://www.w3.org/1999/xlink" x="0px" y="0px"
	 viewBox="0 0 4000 4000" style="enable-background:new 0 0 4000 4000;" xml:space="preserve">
<path d="M1711.9,2661.4c-63.5,6.6-74.3,1.4-90.4-60.6c-13.5-51.9-20.5-105.6-30.1-158.5c-2.1-11.5-3.1-23.3-4.9-37.6
	c-13.3,2.8-23.6,4.7-33.7,7.2c-13.1,3.2-25.9,7.7-39.1,9.9c-48.6,8.2-60.6-0.7-65.9-49.7c-2.6-23.8-3.3-47.9-5.1-75.4
	c-30.6,3.1-58.5,4.6-86,8.8c-165.4,25.6-328.1,11.8-488-34.8c-125-36.5-242.3-90.3-346.8-169.4c-15-11.3-30-23.2-42.6-37.1
	c-27.3-30.1-27.6-53-3.9-86.7c3-4.2,6-8.4,11.3-15.7c-11.4-10.5-21.6-20.7-32.6-29.9c-65.6-54.9-123.9-116.1-168.1-189.8
	c-12.4-20.7-23.5-42.6-32.1-65.1c-16.1-42.3-9.8-62.1,25.2-92.1c5-4.3,9.6-8.9,14.6-13.6c-17.8-39.1-36.4-76.5-52.1-115
	c-21.3-52.4-39.8-105.9-44.9-163c-4.9-56.4,3.7-72.8,54.7-98.7c3.4-1.7,6.2-4.9,9.4-7.5c-8-60.3-19-120-23.3-180.1
	c-5.2-73.8-6.6-148.1-6-222.1c0.4-56.2,19.2-71.3,76.6-65.1c96.4,10.3,192.6,22.7,288.9,34.2c9.2,1.1,18.4,1.6,28.5,2.4
	c4.4-8,8.4-14.8,12-21.8c12.3-24.1,31.8-36.4,58.8-34.4c22.8,1.7,45.7,3.9,68,8.2c80.9,15.5,160.1,37.4,234.6,73.4
	c16.2,7.8,29.7,12,42.9-4.1c26-31.6,59.3-31.6,91.4-14.7c60.7,31.9,121.6,64,178.9,101.4c69,44.9,130.4,99.7,183.4,166.2
	c8-3.4,15.4-5.9,22.1-9.6c36.6-20.1,56.4-20,87.5,8.5c24.6,22.6,47.1,48.2,67.5,74.7c48.7,63.4,85.3,133.9,116.2,207.5
	c6.2,14.7,13.5,28.9,22.4,47.7c12.1-10.9,21.2-20,31.3-27.9c29.9-23.5,59-48.4,102-28.2c6.5,3.1,21-3.4,27.9-9.7
	c63.3-57.1,143-79.4,221.1-104.4c41.1-13.2,58.8-2.5,73.4,39.9c21.7,63.1,29.4,128.5,27.6,195.1c-0.3,12.1-1.2,24.1-1.4,27.9
	c15.5,23.2,31,38.7,36.9,57.3c5.6,17.9,1.2,39,1.2,62.3c42.3-12.2,80.5-24.6,119.3-34.1c111.9-27.4,225.2-42.6,340.4-27
	c23.2,3.1,49.7,10,66.5,24.6c16.4,14.4,22.3,40.8,35.4,67.1c28.6,3.9,63.1,7.7,97.3,13.3c92,15.2,182.2,36.7,265.8,79.7
	c19.1,9.8,37.9,21,54.5,34.3c28.2,22.6,44.6,50.5,28.9,88.4c-1.9,4.7-1.1,10.5-1.2,11.8c56.5,48.1,113.8,91.1,164,141.1
	c60.1,59.8,114.4,125.4,170.7,188.9c25,28.2,49.6,56.9,73.2,86.2c35,43.6,35.6,60-3.7,101c-45.7,47.6-91.8,95.4-142.4,137.6
	c-57.8,48.2-120.2,91-181.6,134.9c-15.5,11.1-27.7,19.6-21.7,41.7c5.4,19.8-2.6,37.8-17.4,51.1c-14.9,13.3-30.7,26.5-48,36.2
	c-102.1,57.3-213.9,79.7-329.1,87.8c-27.5,2-43.5,7.1-49.9,38.3c-6.6,31.7-37.4,39.8-66.3,43.9c-59.3,8.5-118.6,5.4-177.1-5.4
	c-42.3-7.8-83.6-20.5-125.4-30.9c-8.8-2.2-17.8-3.6-30.7-6.2c-2.4,22.1-3.1,42-6.9,61.4c-10.9,55.4-20.3,111.2-35.5,165.4
	c-12.1,43-25.7,48.3-69.7,35.6c-91.1-26.4-177.1-64.7-256.1-117.4c-19.3-12.9-35.9-20.8-59-8.1c-24.3,13.3-49.1,3-68-12
	c-43-34.3-83.8-71.5-125.2-107.9c-7-6.2-12.7-13.9-18.4-21.5c-11.4-15.2-24.9-24.1-45-19.2c-28.8,7-50.6-4.7-65.4-28.5
	c-24.7-39.9-48.3-80.5-71.8-121.2C1724.4,2688.8,1718.3,2674.3,1711.9,2661.4z M872.3,1244.7c-9.2-12.6-12.2-18.8-17-22.9
	c-62.9-52.9-124.9-106.9-189.6-157.5c-41.3-32.3-86.8-59.2-130.2-88.8c-12-8.2-21.5-18.8-10.4-33.4c9.3-12.3,21.5-7.3,32.6-1.1
	c2.4,1.3,4.6,2.7,7,4.1c175.6,103.2,333.7,227.5,466.7,382.7c8.1,9.5,17.2,18.1,26.3,27.6c4.6-6.4,6.9-8.3,7.4-10.5
	c1.2-5.2,1.9-10.6,2.1-16c3.5-113.9-18.1-222.5-69.7-324.6c-6.7-13.2-13.8-26.3-19.8-39.8c-4.6-10.3-7.3-23.4,5.8-27.4
	c7.9-2.4,22.3,1.4,27.3,7.6c14.3,17.7,27.5,36.9,37.1,57.4c57.5,122,83.5,249.9,67,384.9c-2.2,17.7-2.6,33.9,9.7,49.6
	c28.2,36,55.1,73,81.8,110.1c9.4,13,19.4,21.9,36.7,18.8c30.4-5.5,58.2,4,86.3,14.7c41.8,15.9,86.1,16.5,131.1,21.2
	c3.7-11.9,7.7-20.5,9-29.4c10.1-65.6,11.6-131.6,3.6-197.5c-4.5-37.4-12.2-74.4-18.1-111.6c-1.7-10.8-2.8-24.5,11.5-25.4
	c8.6-0.5,21.2,6,25.9,13.3c7,10.9,9.9,25,12.4,38.1c20,102.4,32.4,205,7.4,308.7c-2,8.3-2,21.5,3,26.4c22.3,22,46.8,41.8,73.5,64.9
	c4.8-19,7.8-32,11.5-44.9c7.8-27.2,15.2-54.5,24.5-81.2c6.3-18,16.3-37.6,36.9-39.4c35.8-3.1,50.3-25.9,62-54.8
	c6-14.9,13.9-29.3,22.5-42.9c8.3-13,7-24.6,1.3-38c-40-94.7-86.5-185.7-148.5-268c-7.7-10.3-17-19.5-25.9-29.5
	c-9,6.3-15.2,9.4-19.8,14c-29,28.9-63.7,26.2-90.7-7c-5.1-6.3-10.7-12.2-16-18.2c-86.8-98.1-189.9-175.2-305.8-235.5
	c-28.9-15-29-14.9-48.4,11c-19,25.3-29.2,29.1-58.5,19.1c-16.5-5.7-31.9-14.6-48.4-20.3c-73.7-25.4-147.5-50.9-221.7-74.8
	c-15.7-5-33.4-3.6-49.4-5.1c-14.9,60.5-20.3,65.7-79,58.7c-70.9-8.5-141.2-21.1-212.1-29.6c-39.5-4.7-79-14.6-122.7-9.4
	c-1,15.7-3.6,28.9-2.5,41.8c8.5,97.9,17.2,195.8,26.9,293.6c2.6,26.8,9.8,53.1,12.5,79.8c3.4,33.5-5.7,46.4-36.7,58.5
	c-9.7,3.8-19.2,7.9-31,12.8c2.5,17.8,2.4,34.2,7.3,49.1c14.6,44.8,29.6,89.5,47.2,133.1c14.1,34.9,33.3,67.6,48.5,102.1
	c16.2,36.7,8.1,61.4-24.2,83.5c-7.5,5.1-14.6,10.7-25.4,18.8c12.2,19.6,22.5,38,34.6,55.3c52.1,74.7,117.9,136.3,187.5,194.3
	c44.8,37.4,44.9,58.6,4.5,98.6c-1.7,1.6-1.7,4.9-2.5,7.4c99,124.3,528.5,265.4,699.5,224.2c-29.2-11.2-50.4-21.2-72.6-27.6
	c-61.8-17.7-117-47.7-168.6-85.4c-21.1-15.4-35.7-32.8-29.1-61c3.9-16.7-2.9-27.9-17.8-36.4c-37.2-21.3-64.9-51.4-84.7-89.8
	c-12.3-23.9-26.4-47.3-42.9-68.4c-9.2-11.7-24.1-24.1-37.9-26.2c-67.7-10.1-129.7-35.3-190.3-65.2c-6-3-12.6-5.2-17.9-9.2
	c-11.4-8.5-20.7-19.1-12.4-34.1c8.9-16.3,22-11.3,34.8-4.6c20.3,10.6,40,22.6,61.1,31.2c30.5,12.5,61.9,23.3,98.9,22.1
	c-6.2-15.8-11.7-27.9-15.8-40.6c-13.1-40.8-5.2-53.8,32.5-72.9c79.3-40,163.1-62.4,251.2-71.1c10.8-1.1,24.4-7.4,30.5-15.8
	c19.3-26.6,44.3-32.5,74.5-28.2c5.4,0.8,11.3-1.9,19.6-3.4c-14.9-17.7-26.9-31.9-38.9-46.1c-58.5-68.7-117.3-137.2-175.4-206.2
	c-11.9-14.1-24.3-17.9-42.4-14.4c-119.2,22.7-232.9,1-343-45.8c-7.3-3.1-14.5-7.7-20.1-13.2c-10.6-10.7-14.1-22.6,2.3-38
	C643.5,1243.7,751,1264.1,872.3,1244.7z M3010.4,2249.9c0.7,10.2,0.1,13.1,1.1,15.3c44.3,95.2,113,166.5,208.2,211.5
	c10.9,5.2,23.3,8.5,32.5,15.9c6.1,4.9,11.9,16.5,10.1,23c-1.9,6.8-12.9,15.2-20.2,15.3c-12.9,0.3-27-2.9-38.8-8.5
	c-99.3-47.3-175.6-118.8-226.1-217c-9-68.8-58-81.5-115.4-82.2c-2.7,0-5.4-0.3-8.1-0.6c-114.1-10.3-228.1-20.7-342.2-30.7
	c-14.4-1.3-29-0.2-44.7-0.2c0.3,7.6-0.3,13.2,1,18.2c20.7,78.8,51.7,152.9,99.7,219.5c55,76.3,120.7,141.3,199.8,192.4
	c17.2,11.1,31.1,22.2,13.5,48.8c-15.6-6.1-32.3-10.6-46.9-18.8c-59.5-33.4-108.7-79.1-152.6-131c-11.8-13.9-25-26.7-37.9-40.5
	c-23.5,14.3-32.1,29.9-23.1,52.9c3.4,8.8,6.7,17.6,9.7,26.6c24.5,72.9,48.6,146,43.6,224.6c-1.2,18.9,9.1,24.5,25.2,29.9
	c81.6,27.6,166.3,31.9,251.1,36.6c6.1,0.3,12.4-3,19.3-4.8c1.9-9.4,3.5-17.2,5-25.1c7.1-37.2,14.6-45.6,50.9-51.9
	c17.2-3,34.8-4.3,52.2-5.4c83.7-5.6,166.1-17.8,245-47.6c28.6-10.8,58.7-19.3,81.3-40.8c-10.8-59.4-9.7-63.5,35.4-90.3
	c120.1-71.5,226.3-160.5,324.8-258.9c9.2-9.2,16.9-19.7,26.5-31.1c-11.7-15.5-20.8-28.7-31.2-40.8
	c-63.7-74.9-126.6-150.7-192.3-223.9c-29.5-32.9-63.6-62.2-97.9-90.2c-29.1-23.8-61.7-43.3-92.7-64.8c-21.9-15.3-35.4-35.2-23.7-62
	c13.9-31.7,3.9-40.6-26.6-55.1c-69.9-33.2-143.9-54-219.3-68.4c-48.8-9.3-98.7-13.4-148.3-17.6c-47.8-4-56.5-11.6-56.9-58.3
	c0-1.3,0.3-2.7,0.3-4c-0.3-29-2.2-33.2-32.3-32.8c-64.6,0.8-129.4,1.8-193.7,7.3c-82.3,7-161.4,30.3-238.1,60.2
	c-39.4,15.3-78.6,86.6-62.3,119.3c17,34,8.7,61.8-10.3,86.4c-37.9,48.9-79.2,95.1-120.1,141.5c-10.1,11.5-23.8,19.7-39.9,32.6
	c27.5,8.7,49,15.7,70.7,22.2c5,1.5,10.4,1.7,16.8,2.7c5-6.7,10.5-12.5,14.4-19.3c82-140.1,205.9-228.4,353.9-287.2
	c7.4-2.9,16.2-7.3,22.9-5.6c7.9,2,18,8.7,20.2,15.6c1.9,5.8-4.5,16.7-10.4,21.9c-6.7,5.9-16.9,7.9-25.5,11.8
	c-95.5,43.4-181.5,100.1-253.4,177.3c-28.6,30.8-49.3,65.6-65.7,102.9c37.3,23.2,70.1,44.2,103.5,63.9c7.7,4.5,17.9,6.1,27.1,6.6
	c86.1,5.2,172.2,9.7,258.3,14.8c16.3,1,27.2-4.5,37.1-18.4c101.3-142.3,244.7-214.5,412.3-245.6c11.5-2.1,24.8-2.2,35.6,1.6
	c6.4,2.2,12.5,13.5,13.3,21.2c0.5,5.4-7,14.9-12.9,17c-13.8,5-28.7,7.3-43.3,9.7c-122.6,19.7-225,79.5-316.1,160.8
	c-17.4,15.5-36.7,31.2-43.6,58.1c13.5,2.6,25.1,6.1,37,7c139.9,11.2,278.2,33,416,58.7c78.1,14.6,156.7,26.3,235.1,39.3
	c23.9,4,33.3,12.4,30.3,28.6c-3.9,21-20.7,18.1-35.2,17c-28.2-2.2-56.5-4.1-84.4-8.6c-87.7-14.1-175.3-29.4-263-43.9
	C3041.9,2252.2,3027.4,2251.5,3010.4,2249.9z M1847.7,2772.1c59.6-15.7,56.9-13.4,97.4,33.8c38.4,44.7,83.3,83.8,125.1,125.6
	c13.1,13.1,24.5,11.2,39,1.1c28.7-19.9,35.4-20.2,63.7,2.7c75.7,61,165,95.8,252.7,133.7c7.8,3.4,17.6,2.4,28.1,3.6
	c4-13.8,7.6-25.1,10.6-36.7c16.6-64.6,19.4-130.4,15.4-196.7c-1.1-18.1-1.9-34.5,17-45.6c17.7-10.5,18.2-29.1,15.6-46.9
	c-9.8-66.8-22.4-133-53.7-193.8c-28.6-55.5-28.8-55.4,7.4-105.5c-33.2-69.1-73.5-135.4-131-189.7c-20.5-19.4-37.7-37.5-35.4-68.3
	c1.2-15.8-8.1-27.5-22.5-35.5c-70.7-39.7-141.5-78.7-225.2-83.3c-45.2-2.5-90.5-9.7-137.1-0.4c-2.5,16.2-5.1,29.3-6.3,42.6
	c-1,10.7-1.3,21.7,0,32.3c5.6,44.8,50.5,74.3,92.9,62c16.8-4.9,33.6-9.9,50.8-13.2c44-8.4,88.4-11.3,132.4-1
	c17.7,4.1,37.3,9.4,38.4,36.5c-34,18.7-69-3.8-102.6,3.1c-34.1,6.9-72-0.9-103.4,24.9c29,31.5,59.9,58.4,82.4,91.1
	c29.2,42.3,63.1,58.9,115.1,52.9c48.3-5.6,92,16.9,131.7,43.7c11.1,7.5,27.2,15.5,16.2,40.3c-57.2-9.3-111.4-47.8-179.5-35.1
	c26.6,43.1,48.2,81.8,73.4,117.9c60.8,87.4,96.9,186,132.3,285c5.2,14.5,14.1,35.3-6.1,42.3c-20.4,7-24.1-15.2-30.1-29.5
	c-14.6-34.7-28.6-69.7-44-104.1c-5-11.1-9.2-25.2-29.7-27.8c-3.6,56.6-7,110.9-10.4,165.4c-26.8,3.4-30.4-11.8-32.5-28.7
	c-7.6-60.8-3.8-121,8.1-180.9c4.3-21.4,9.1-43.4-4.5-62.6c-54.4-76.9-109.3-153.4-164.8-229.5c-5.5-7.6-15.9-11.7-24.9-17.9
	c-5.4,8.2-9.1,12.3-11.1,17.2c-3.6,8.7-7,17.6-9,26.8c-18.9,89-24.8,178.7-14.3,269.3c1.4,12,4.7,24.3,3.4,36.1
	c-1,9.3-7.7,18-11.8,27c-7.1-6.5-15.4-12.3-21.1-19.9c-3.7-5-4.3-12.6-5.6-19.2c-22.4-121.3-21.4-241.5,22.9-358.2
	c10.5-27.7,4.5-47.1-16.4-63.9c-30.2-24.4-61.1-47.8-94.3-73.6c-13,12.5-25.1,24.9-37.9,36.3c-12,10.6-23.3,24.6-37.5,29.5
	c-27,9.3-45.3,27.7-64.7,46.5c-11.2,10.9-25.3,19.9-39.5,26.5c-19,8.9-48.9,9.2-57,23.2c-9.6,16.6-2.6,43.9,0,66.3
	c5.2,43.8,11.5,87.5,26.9,128.2c65.6,0.7,65.2,0.9,89.1,63.9C1789.9,2688.3,1813.7,2731.9,1847.7,2772.1z M1183.1,1710.8
	c24-20.4,38.5-12.3,52.9-0.7c35.9,29,68.7,60.8,91.5,101.4c13.9,24.7,34,40.2,60.4,50.6c41.2,16.3,81.4,35.2,122.1,52.8
	c4.1,1.8,8.9,2,19.6,4.3c-7.5-19.7-11.3-34-17.9-46.7c-16.9-32.1-34.9-63.7-52.7-95.3c-8.3-14.7-20.6-28.1-14.6-47.4
	c28.3,5.6,32.2,7.5,51.4,28.9c33.9,37.9,53.7,83.5,70.1,130.9c5.1,14.7,10,29.5,14.9,44c32.7-15.2,61.1-28.3,89.4-41.4
	c-1.9-6.4-2.6-10.4-4.2-13.9c-39.8-87.4-110.6-148.1-180.5-209.5c-10.1-8.9-21.7-10.7-33.2-2.1c-31.7,23.5-60,15.7-87.4-8.3
	c-9-7.9-19.1-15-29.7-20.8c-16.5-9-33.7-19.4-53.3-9.4c-27.6,14-53.5,7.9-81.8,0.1c-30.6-8.4-63.7-14.2-88.2,19.1
	c-5.7,7.7-21.2,11.4-32.2,11.4c-85.6-0.3-164.3,26.2-241.2,59.9c-10.5,4.6-19.5,12.3-29.2,18.6c29.1,61.4,59.4,116.4,114.3,153.4
	c16.3,11,28.1,26.9,23.8,47.9c-4.8,23.3,8.1,35.7,24.7,45.9c18.3,11.3,37.7,20.8,56.3,31.7c15.6,9.2,31.7,21,24.4,41.3
	c-13,36.2,6.7,54.4,34.6,66c50.9,21.1,102.6,40.2,154.6,58.6c25.3,8.9,51.7,13.9,71.8,34.6c6.7,6.9,19,11,29,11.6
	c30.9,1.8,61.9,1.4,92.9,1.5c17.5,0,28.2-8.1,28.5-26.6c0.6-39.1,7.7-76.4,29.2-111.4c-14.7,5.3-26.4,14.1-39.4,19.6
	c-34.5,14.6-69.1,29.1-104.6,40.5c-8.4,2.7-26.4-4.2-30.1-11.5c-7.2-14.6,8.6-19.5,19.4-24.4c6.1-2.8,12.5-5.1,19-6.7
	c74.3-18.7,126.2-68.3,176-125.7c-51.2-36.9-107.2-58.7-163.9-79.3c-14.5-5.3-21.6,3.4-30,13.4c-12.1,14.2-24.6,29.2-40,39.2
	c-59.3,39-127.9,47.5-196.4,54.4c-17.2,1.7-31.5-6.5-34.1-28.1c18.6-19.1,44-16.3,67.3-18.9c53-5.9,103.4-19,146.3-52.5
	c7.3-5.7,11.7-15,20.1-26.2c-93-26.2-179.7-50.6-266.4-75.2c-12.9-3.7-25.9-7.4-38.2-12.6c-11.7-4.9-22.2-13.3-17.8-27.7
	c4.5-14.8,17.6-14.5,30.2-11.5c7.8,1.9,15.4,4.9,23.2,7c79.2,21.7,158.4,43.4,237.6,64.8c3.3,0.9,7.3-0.8,18.9-2.3
	C1253.1,1787.2,1219.2,1750.3,1183.1,1710.8z M1841.1,1802.2c9.1-11.8,14.8-17.6,18.7-24.4c29.1-51.6,58.8-102.9,86.1-155.5
	c6.2-12,5.4-28.2,5.6-42.6c0.3-33.5-2.8-67.2-0.7-100.6c1.3-21.2,10-41.5,38.3-47.4c15.8,34.6,0,71.8,11.5,112.6
	c9.9-16.5,15.9-26.6,22.1-36.7c15.6-25.2,30.1-51.1,47.3-75.2c11.4-16,26.1-31.1,53.9-15c-27,63.3-68.7,116.9-104,175.8
	c59.4,8.5,89.9-52.9,143.4-51.4c5.9,24.9-9.8,35.9-22.5,46.6c-35.4,30-75.6,52.5-121.5,60.8c-30.9,5.6-50.5,20.8-64,48.7
	c-19.9,41.2-42.4,81.2-63.5,121.9c-4,7.7-6.5,16.2-10.7,26.9c10.3,0,17,1.2,23.2-0.2c59.4-12.8,117.7-28.7,171.7-57.9
	c16.1-8.7,32.5-18.2,53.2-6.8c-6.5,30.4-30.2,42-52.4,53.5c-56.8,29.4-118,45.1-180.8,55.2c-10.6,1.7-21.7,2.7-31.4,6.8
	c-26.6,11.1-30.8,27.6-12.5,50.1c13.6,16.7,30.8,30.6,43.2,48c15.6,21.9,35.2,26.7,59.8,22.6c113.5-18.8,188.5-91.8,253.6-179
	c8.8-11.9,6.5-23.5-4-32.3c-21.9-18.1-13.2-36.9-4.7-57.8c22.4-54.8,44-109.9,64.3-165.5c5.7-15.7,5.8-33.4,8.4-49.7
	c-16-7.3-28-12.8-43.9-20c3.1-87.1,11.8-175.9-18.4-262.8c-83.3,16.1-152.9,52.7-217.9,99.4c-6.4,4.6-11.2,11.6-16.1,18
	c-20.5,26.7-21.1,28.5-52.7,16.5c-27-10.3-47.4-2.7-65.8,15.8c-17.1,17.2-33.3,35.3-49.8,53.1c-27.1,29.3-48.1,61.5-49.8,103.2
	c-0.3,7.6-4.5,15.1-7.6,24.9c-16.2,2-32,5.2-47.9,5.7c-20.7,0.6-32.6,9.4-36.5,30c-5.5,29.1-11.8,58.1-17.3,87.2
	c-5.2,27.9,1.4,52.7,17.3,76.5c18.7,27.9,34.8,57.6,52.2,86.3c4.2,6.9,8.5,13.9,14.2,19.5c13.8,13.6,43.5,20.9,55.8,14.6
	c16.1-8.2,25.6-33.3,20.2-57c-2.7-11.8-7.7-23-11.4-34.5c-23-73-29.1-147.5-20.5-223.6c2.2-19.7,9.2-32.4,35.2-33.2
	C1819.2,1635.5,1802.8,1719,1841.1,1802.2z M1616.2,2035.6c-2.2-20.6,7.5-24.4,18.6-26.2c30.6-4.8,61.2-9,91.8-13.7
	c14.5-2.3,29.6-3.6,43.2-8.6c7.4-2.7,17.3-12.4,17-18.5c-0.3-6.9-10.2-17.8-17.2-18.9c-23.4-3.9-47.9-7.9-71.2-5
	c-38.4,4.8-69,28.7-99.5,51.1c-20.5,15-32.7,34.8-39.4,59.2c-7.1,25.9-14.1,52.2-24.8,76.7c-28.4,64.9-28.5,133.5-30.1,202.1
	c-0.1,4.9,3.3,9.9,5,14.6c24.9,10.7,45.4-3,66.8-9.1c32.2-9.2,64-20.8,96.7-27.5c32-6.5,57.2-20.7,78.6-45.1
	c13.9-15.9,30.6-30.1,48.2-41.8c62.1-41.4,86.4-126.4,51.7-192.6c-6.1-11.6-18.9-22.5-31.1-27.2c-10.3-3.9-26.9,21.8-26.6,40
	c0.1,9.2,3.6,18.4,5.1,27.6c3.7,23.9,8.4,47.8,10.3,71.9c1,12.3-3,24.9-5.6,43c-54.1-23.8-30.7-76.8-53.8-112
	c-11.2,14.2-19,26.9-29.5,36.6c-28,26-37,57.3-33.9,94.6c1.4,17.1-1.7,35-5.3,51.9c-1.3,6.1-10.3,10.4-15.8,15.6
	c-5.8-6.2-15.2-11.7-16.7-18.8c-2.7-13.2-0.8-27.3-0.8-43.8c-38.8,21.1-37.2,77.9-90.2,81.9c-1.2-53.4,45.8-79.1,59.7-121.5
	c-29-4.4-53.4,20.4-80.3,4.7c16.2-25.4,17-26.6,40.5-35c17.7-6.3,36.2-10.7,53.8-17.2c35-12.8,76.6-55.9,86.2-89
	C1684.5,2035.6,1651.4,2035.6,1616.2,2035.6z M2374.2,2187.8c4.8,37.3,26.6,56.5,59.9,75c-3.1-19.7-4.9-34-7.7-48
	C2419.7,2181.4,2419.5,2181.5,2374.2,2187.8z"/>
</svg>
