<?xml version="1.0" encoding="utf-8"?>
<!-- Generator: Adobe Illustrator 24.3.0, SVG Export Plug-In . SVG Version: 6.00 Build 0)  -->
<svg version="1.1" id="Layer_1" xmlns="http://www.w3.org/2000/svg" xmlns:xlink="http://www.w3.org/1999/xlink" x="0px" y="0px"
	 viewBox="0 0 4000 4000" style="enable-background:new 0 0 4000 4000;" xml:space="preserve">
<path d="M466.5,3508.2c-52.4-5.8-100.9-7.5-147.6-17.4c-56.9-11.9-105.9-39.4-133.5-95c-23.6-47.6-25.8-95.9,1-141.8
	c17.9-30.7,22.2-60.3,19.7-95.9c-13.1-184.9-22.9-370.1-33.7-555.1c-2.3-39.7-2.5-79.5-6.7-119c-4.6-43.4,6.6-80.4,33.8-114.1
	c67.2-83.4,133-168.1,200.8-251c229.3-280.8,471.3-550.6,713.3-820.4c86-95.9,172.5-191.4,259.6-286.3
	c17.8-19.4,22.9-37.2,18.9-64.5c-20.1-136.3-8.6-269.2,55.5-393.8c59.3-115.3,150.9-189.5,280.6-210c83.9-13.3,161.3,4.8,223.3,65.8
	c19.2,18.9,34,19.1,57.1,10.2c115.2-44.2,230.2-43.4,344.1,6.3c47.4,20.7,86.4,52.6,118.1,92.8c13.6,17.3,26.4,23.8,48.9,19.1
	c71.9-15,143.7-12.4,214.2,9.3c98.1,30.1,175.6,88.6,232,174c12.3,18.7,25.4,25,47.1,23.4c176.5-13,323.1,94.1,385.8,243.2
	c2.8,6.7,5.8,13.3,8.2,20c6.4,17.8,17.6,25.7,37.7,26.6c160.7,7.5,366.5,147.1,360.2,400.9c-4.3,171-95.3,282.1-245.1,351.9
	c-16.3,7.6-33,14.9-50.2,20.3c-23,7.2-36.2,21.3-41,45.2c-13.5,67.2-28.2,134.2-41.8,201.4c-43.5,214.7-85.1,429.7-131.1,643.8
	c-11.7,54.7-33.6,107.9-56.5,159.3c-31.2,70-84.9,117.5-158.3,144.2c-163.2,59.3-330.1,105.7-499.4,142.8
	c-255,55.9-510.3,110.3-766.1,162.2c-141.4,28.7-283.9,52.2-426.3,75.8c-148.3,24.7-296.7,49.1-445.7,69.3
	C783.4,3473.5,623,3489.9,466.5,3508.2z M266.9,2480.4c4.6,248.3,25.6,492.4,41.9,739.9c14.2,0,26,0.4,37.7-0.1
	c186.7-6.6,372-29,556.7-55.7c214.3-30.9,428.3-64.2,641.9-99.7c193.4-32.2,386.3-67.4,579-103.9c137.1-26,273.5-55.4,409.8-84.8
	c129.5-28,256.4-64.9,379.1-115.9c32-13.3,55-33.5,66.2-66.7c16.6-49,35.3-97.3,50.2-146.8c59.3-197.2,105.1-397.7,142.4-600.2
	c6-32.7,11.2-65.6,17.6-103.5c-16.6,6.2-27.7,10.1-38.6,14.4c-52.6,20.7-104.9,42.3-157.9,62.2c-185.1,69.2-375.5,121.2-566.8,169.4
	c-347.9,87.7-702,144.4-1055.4,204c-154.2,26-308.7,50.3-462.9,76.2c-162.5,27.2-324.9,55.2-487.3,83.2
	C370.8,2460.9,321.3,2470.4,266.9,2480.4z M2418,625.7c-30.1-59.9-74.1-96.8-131.5-118.1c-53.1-19.7-108.2-24.4-163.6-14.1
	c-128.6,23.9-228.4,82.3-267.1,242.9c-2.3,9.3-2.7,20.2-7.9,27.5c-4.7,6.4-15.4,12.9-22.5,11.9c-6.9-0.9-15-10.2-17.9-17.7
	c-2.7-7-0.3-16.7,1.6-24.8c15.8-67.6,40.3-131,88.1-183.4c18.7-20.5,18.5-31.3,1-53.8c-27.7-35.6-65.3-52.9-109.8-53.4
	c-101.2-1.1-178.1,45.1-233.8,127c-62.4,91.9-75.7,196.2-69.9,304.1c1.8,33.2,6.8,66.3,10.1,96.5c321.6,38.1,619.6,137.5,907.9,268
	c288.3,130.5,559,289.9,798.5,507.2c2.6-17.3,4.6-28.9,6-40.5c3.6-31.1,5.7-62.3,10.5-93.2c11.6-74.1,30.4-145.8,70.4-210.8
	c68.3-110.9,217.3-176.6,355.8-128.5c5.8,2,12.4,1.5,23.9,2.6c-7.5-11.4-11.4-18.7-16.5-24.9c-58.7-71.7-134.8-112.2-226.7-119.7
	c-92.3-7.5-174.9,17.1-237.7,88.7c-19.5,22.3-33.4,49.7-48.9,75.4c-7.4,12.2-16.3,17.7-29.7,12c-13.3-5.7-16.7-16.4-12.4-29.8
	c1.9-5.7,4.1-11.3,6.7-16.8c36.2-76.7,94.1-129.7,173.6-159.2c14.3-5.3,28.5-10.8,46.3-17.6c-23.9-80-57.9-149.4-129-192.1
	c-111.1-66.8-223.8-66.1-334.2,2.7c-63.5,39.5-105.7,97.1-133.3,166.2c-12.2,30.6-16.1,31.4-49.4,16.7c-3.2-26.1,9.6-48.5,20.8-70.6
	c44.9-89,113.1-154.3,203-191.3c0.6-6.2,1.2-7.5,0.8-8.5c-1.4-3.3-2.9-6.6-4.6-9.7c-60.5-104.7-153.5-158.3-272.1-163.9
	c-128.7-6.1-243.1,49.1-303,174.5c-9.3,19.5-16.3,40.1-25,59.9c-7.4,16.7-27.6,23.1-36.9,10.2c-5.7-7.9-6.9-23.2-3.5-33
	c26-75,62.9-143.3,128.3-192.1C2394.9,644.2,2405,635.9,2418,625.7z M287.9,2417.4c1.8,2.3,3.5,4.6,5.3,6.9c8.2-1,16.5-1.7,24.7-3.2
	c173-30.4,345.7-61.7,518.9-91.1c249-42.3,498.3-83.2,747.4-124.8c229-38.2,457.5-78.6,683.9-130.3c301.7-68.9,599.3-151,885-272
	c5.1-2.2,9.9-4.9,18.5-9.1c-8-9.6-13.1-17.5-19.8-23.4c-35.2-31.1-69.6-63.2-106.5-92.1c-258.5-203.4-544.9-357.6-850.7-476.1
	c-184.2-71.4-372.4-130.4-567.7-163.7c-35.5-6.1-71.7-7.8-107.5-11.4c-20.8-2.1-36.4,5-49.4,22.6c-17.8,24.2-37.9,46.8-57.9,69.2
	c-121.1,135.5-242.9,270.4-363.6,406.4c-107.1,120.6-213.7,241.7-319.1,363.7c-114.9,133-228.5,267.2-341.8,401.6
	C352.8,2331.6,321,2375.1,287.9,2417.4z M481.8,3403.4c102.6-11.1,219.1-20.1,334.6-36.8c228.6-33.1,457.3-66.5,684.6-107
	c243.9-43.4,486.7-93.4,729.2-143.9c195.4-40.6,391.1-81.2,582.8-137.7c76.1-22.4,151.6-47.1,226.8-72.4
	c52.8-17.8,91.4-53.1,113.2-104.7c13.1-31,26.6-62.2,35.3-94.5c54.8-203.5,90.4-411.2,130.3-617.9c16.4-85,32.9-170,50.8-254.7
	c12.3-58.2,46-98.1,103-120.5c36.7-14.4,72.1-33.8,105.2-55.4c94.7-61.6,133.7-151,125.2-262.6c-1.7-21.9-10.8-39.1-28.4-52
	c-46-33.7-97.3-47.2-153.4-37.7c-107.5,18.2-182.5,79.7-222.3,179.7c-18.5,46.4-29.4,96.8-37.2,146.4c-15.9,101-25.6,203-41.2,304.1
	c-27.2,176.3-69,349.5-116.8,521.2c-23.3,83.4-51.3,165.4-77.7,247.9c-15.7,48.8-47.3,83.5-95.9,100.9
	c-63.4,22.8-126.4,46.7-190.8,66.5c-160,49.3-324.3,81.4-488.1,114.4c-141.4,28.5-283.8,52.5-425.8,78.3
	c-120.7,21.9-241.1,45.6-362.2,64.8c-204.3,32.3-408.9,63.5-613.8,91.6c-123.9,17-248.6,28.5-373.2,40.2c-53.8,5-108.2,4.4-162.3,6
	c-13.4,0.4-26,0-34.8,13.6c-20.7,32-15.1,72.5,17.8,91.5c21.3,12.3,46.2,21,70.5,24.8C400.1,3402.4,434.2,3401.3,481.8,3403.4z"/>
<path d="M1184.1,2580.2c56.1,1.2,100.2,46.6,99.5,102.3c-0.7,56-48.4,101.6-105.2,100.7c-58.4-0.9-101.7-47-99.4-105.4
	C1081.1,2624.4,1129.9,2579.1,1184.1,2580.2z"/>
<path d="M1997.1,2499.5c46.9-4.1,97.2,49,97.4,100.9c0.2,60.1-44.4,103.8-105.4,103.5c-53.9-0.3-97.5-47-97.3-104.1
	C1892.1,2544.2,1939.6,2498.9,1997.1,2499.5z"/>
<path d="M1042.1,2990c-23.9-6.7-49.4-10-71.4-20.7c-44.8-21.9-51.4-71.8-16.9-107.7c41.3-43,141.2-55.5,191.5-24
	c51.9,32.6,52.5,88.8,1.2,122.2C1121,2976.4,1084.1,2985.6,1042.1,2990z M980.2,2912.6c3.5,4.6,5.3,7.7,7.9,10
	c2.6,2.4,5.7,4.8,9,5.7c41.6,12,82.7,12.3,121.2-10.1c21.8-12.7,21.1-28.4-1.7-39c-29.8-13.9-60.9-10.5-91-1.2
	C1007.5,2883.5,988.7,2889.9,980.2,2912.6z"/>
<path d="M2147.8,2871c-28.1,0.3-55.2-3.7-78.9-20.3c-37.5-26.3-41.5-64.8-10.6-98.6c16.8-18.3,37.4-29.9,61.4-35.6
	c44.2-10.5,88.1-13.6,129.4,10.4c53,30.7,54.1,84.5,1.8,117.1C2219.6,2863.5,2184.8,2871.9,2147.8,2871z M2155.2,2822.8
	c18-4.9,44.3-9.1,68-19.3c22.6-9.7,21.2-27.4-0.3-39.9c-25.8-15.1-101.3-7-124.6,13.3c-15.9,13.8-13.8,32.6,5.9,39.1
	C2117.5,2820.4,2132.4,2820,2155.2,2822.8z"/>
<path d="M1529.8,2840.8c-58.4-0.5-96.8-33.1-102.3-96.6c-1.1-12.8,3.4-24,18.5-26.5c14.5-2.4,22.8,4.6,26.1,18.3
	c1.7,7,2.9,14.1,4.9,21c5.3,18.6,15.3,32.1,36.4,34.8c21,2.7,38.1-2.3,49.6-21.1c5.7-9.2,10.4-19,16.6-27.8
	c10.9-15.2,22.1-16.8,36.1-4.5c8,7.1,14.1,16.4,21.4,24.3c14.8,15.9,33.7,18.2,53.2,13c19.8-5.3,28.1-21.1,30.6-40.4
	c1.4-10.7,2-21.5,3.6-32.2c1.8-11.8,7-20.4,21-19.4c12.6,0.9,21.5,7.8,21.6,19.9c0.2,17.7,0,36.2-4.7,53.1
	c-13.8,50.2-54.1,78-102.2,69.9c-19.5-3.3-38.4-19.6-56.6-18.2c-16.7,1.2-31.6,19.5-48.5,27.8
	C1545.8,2840.7,1534.1,2840.1,1529.8,2840.8z"/>
<path d="M1329.2,2055.9c-28.3,5.8-52.7,13.1-77.5,15.3c-58.1,5-99.1-39.6-89.6-97.6c3.8-23.3,1.3-39.3-17.8-56.7
	c-21.1-19.2-21.5-48.1-9.1-73.9c19.3-40.1,38-80.7,61.1-118.5c109.5-179.6,264-306.6,458-386.6c74.1-30.5,149.9-53,231-48.9
	c23.5,1.2,47.9,6.3,69.8,15c18.3,7.2,33.9,9.1,51.8,1.9c31.4-12.6,63.9-10.6,95.9-3.2c40.6,9.4,62,34.2,64.5,75.4
	c0.9,15.6,6.4,26.6,17.5,37.5c41.6,40.9,46.6,69.9,19.8,122.9c-9.6,18.9-15.9,37.2-13.4,58.5c3.7,32.9-6.6,62.7-26.9,87.5
	c-22.7,27.9-46,56.1-73.4,79c-168.7,141.2-356.9,248.7-565.5,319.1c-31.5,10.6-65.5,16.1-98.8,18.6
	C1386.1,2104.1,1351.3,2088.1,1329.2,2055.9z M1232.3,1899.2c-3,13.3-5.2,24.7-8.2,35.8c-3.1,11.6-7.9,22.8-10.3,34.5
	c-8,39.3,13.6,61.4,52.6,52.2c19.7-4.7,38.9-12.6,57.6-20.8c19.1-8.5,32.9-4.6,41.9,13.8c18.2,36.9,48.8,42.9,85.2,35.4
	c55.5-11.4,108-31.1,160.9-51.7c100.6-39.1,195.2-88.8,284-148.8c64.7-43.7,125.2-93.6,186.2-142.6c26.2-21.1,48.6-47.1,60.1-80
	c15.2-43.3-6.7-71.4-50.9-62.5c-29.2,5.9-58.7,14.6-85.4,27.4c-83.1,39.8-156.8,94.6-225.5,155.2
	c-72.9,64.3-148.5,127.6-173.4,229.2c-4,16.5-22.2,19-34.1,6.6c-11.1-11.6-14.1-26.3-7.2-40.2c13.8-27.9,26.2-57.3,44.9-81.9
	c103.7-136.4,234.6-240.3,385.5-320.6c53.7-28.6,106.2-51.1,167-24.2c26.6-40.2,13.3-59.6-57.9-83.3c-7.9-16.3,0.3-29.5,7.4-43.7
	c11.6-23,7.6-34.6-17.5-39c-22-3.8-46.2-5.2-67.6-0.2c-38.5,9.1-75.5,24.1-113.3,36.1c-79.5,25.3-155,59.6-227.1,101.3
	c-156.1,90.3-287.6,209.3-402,348.1c-13.4,16.3-28.8,31-42,45.1c-21.1-7.9-23.5-19.7-17.4-33.8c4.7-11,9.4-22.7,17.1-31.6
	c38.4-44.6,76.3-89.9,117.1-132.3c146-151.4,317.9-263.8,515.4-336.7c5.6-2.1,10.1-6.9,15.1-10.4c-19.9-4.5-37.8-4-55.1-0.7
	c-127.2,24.5-242.3,77.4-349.4,149.5c-133.6,89.9-230.4,210.1-297.3,355.6c-6.4,13.9-15.3,28.1-3.1,44.7
	C1198.7,1889,1212.4,1893.2,1232.3,1899.2z"/>
<path d="M2496.1,1544.4c81.1,0.6,157.5,20,229,57.6c43.6,22.9,79.1,55,99.7,100.9c28.4,63.3-3.2,122.7-70.6,136
	c-38.8,7.7-77.2,5.3-114.5-4.5c-100.9-26.7-184.5-80.8-248.4-163.9c-8-10.4-15.2-21.9-20.5-33.8c-20.3-45.2-2.4-79.8,46.3-87.1
	C2443,1545.6,2469.7,1545.9,2496.1,1544.4z M2409.5,1604.2c4.8,10.6,6.8,18.9,11.5,25c62.7,81.9,140.5,142.1,244.2,161.1
	c26.8,4.9,55.6,5.8,82.4,1.8c41.2-6.2,55.7-35.4,35.5-71.3c-12.6-22.3-31.1-43-51.3-58.9c-49.6-39-109.2-54.6-170.7-62.8
	C2512.1,1592.5,2463.2,1586.4,2409.5,1604.2z"/>
<path d="M920.4,1886.7c60.4,0.4,103.5,51.6,94,114.8c-7.5,49.9-31.8,90-68.7,123.4c-77.1,69.8-170.6,101-271.4,114.4
	c-11.5,1.5-24.2-0.5-35.4-4c-22.1-6.9-31.4-24.3-27.5-47.8c1.4-8.3,2.9-16.7,6-24.5c42.8-108.4,108.4-197.8,213.3-253.9
	C857.5,1894.8,886,1885.8,920.4,1886.7z M663.5,2191.8c23.2-3.2,40.9-4.7,58.3-8.3c78.3-16.2,150-46.4,203.8-107.7
	c17.7-20.1,32.3-45.7,40-71.3c13.3-43.8-18.8-77.6-63.8-69.6c-20.9,3.7-41.8,12.1-60.4,22.4c-58.2,32.2-102.9,79-136.1,136.4
	C688.6,2122.7,670.3,2151.1,663.5,2191.8z"/>
<path d="M2115.5,2024c-30.6-4.2-64.5-6.2-96.9-14c-45.2-10.9-54.8-39.6-29.4-78.2c2-3,4-6,6.4-8.7
	c78.3-87.9,172.3-149.1,290.1-168.2c59.8-9.7,99.6,31.9,91.6,92.5c-10.3,77.1-69.7,141.1-151.8,159.8
	C2190.6,2015.2,2154.5,2018.2,2115.5,2024z M2033.2,1966.2c81.5,15.3,159.2,11.9,232.5-27.8c28.7-15.6,47.9-40.1,58-71.1
	c6.3-19.3,15.4-41-0.6-58.2c-14.9-16.1-36.4-9.1-54.8-4.6c-94.8,23-169,78.8-233.7,149.1C2033.3,1955,2034,1958.2,2033.2,1966.2z"/>
<path d="M1421.3,1384.8c-23.8-2.2-39.7-2.2-54.8-5.4c-38.1-8.1-50.3-29-38.6-65.9c3.9-12.4,9.7-24.9,17.3-35.4
	c68.4-93.4,161.9-140.7,276.5-146.5c17.5-0.9,36.1,3.2,52.9,9.1c32.2,11.2,44.5,34.1,39.6,67.9c-4.5,31.1-20.1,56.3-43.1,77.1
	c-46.5,42.2-102.2,67.4-162,83.1C1477.9,1377,1445.5,1380.5,1421.3,1384.8z M1369.8,1331.8c11.2,2.1,16.8,4.2,22.4,4
	c82.1-3.2,159.7-22.1,227.5-70.6c16.2-11.6,30.5-27.6,41.4-44.4c15.3-23.4,6.8-37.9-21.6-41.9c-7.1-1-14.4-0.6-21.6-0.5
	c-40.8,0.1-78.1,14.5-114.1,31.1c-45.1,20.9-86.3,48.2-115.8,89.7C1381.5,1308.2,1377,1318.7,1369.8,1331.8z"/>
<path d="M1243.4,1549.7c-0.5,35.3-6.8,69.4-26,99.7c-35,55.5-78.4,102.9-135.5,136.5c-5.1,3-10.9,5.1-16.4,7.3
	c-54.8,21.4-92.6-6.1-84.3-65c4.8-33.9,14.7-68.3,28.9-99.4c27.3-59.6,66.1-111.6,122.3-147.8c57.7-37.2,106.8-11.2,111,57.9
	C1243.5,1542.5,1243.4,1546.1,1243.4,1549.7z M1029,1752.9c14.9-5.7,26.3-8.5,36-14.2c53.2-31.2,93.5-75,120.6-130.1
	c7.2-14.7,12.7-31.9,13-48c0.2-14.2-3.8-33.1-13.3-41.8c-13.9-12.7-29.4,1.8-41.2,11.2c-60.3,48.1-99.2,110-114.8,185.8
	C1027.2,1725.8,1029,1736.6,1029,1752.9z"/>
<path d="M1372.8,1967.2c-12.4-15.1-7.8-30.4-0.4-44.1c13.7-25.4,27.4-51,43.9-74.5c98.6-140.8,228.9-246.3,375.6-332.8
	c44.5-26.3,90.5-50.4,137-73c25.8-12.5,53.9-20.4,81.4-29c10.1-3.2,21.3-2.9,32.1-3.5c11.2-0.6,17.9,5.5,20.7,16.2
	c3.3,12.5-1.3,21.2-12.8,26.3c-5.5,2.4-11.2,4.5-17,6.1c-127,36.4-237.8,103.6-343,181.2c-88.7,65.4-168.4,140.3-234.2,229
	c-17.2,23.1-31.6,48.3-47.5,72.4C1400.1,1954.1,1393,1969.1,1372.8,1967.2z"/>
</svg>
