<?xml version="1.0" encoding="utf-8"?>
<!-- Generator: Adobe Illustrator 24.3.0, SVG Export Plug-In . SVG Version: 6.00 Build 0)  -->
<svg version="1.1" id="Layer_1" xmlns="http://www.w3.org/2000/svg" xmlns:xlink="http://www.w3.org/1999/xlink" x="0px" y="0px"
	 viewBox="0 0 4000 4000" style="enable-background:new 0 0 4000 4000;" xml:space="preserve">
<path d="M3827.7,2602c-5.4,133.7-9.1,267.6-16.9,401.1c-5.3,90.5-14.9,180.9-25.5,270.9c-3.9,33.1-14.9,65.7-24.9,97.8
	c-15.1,48.3-49.9,74.7-99.5,80.5c-32.3,3.8-64.9,7-97.4,7.1c-194.6,1-388.5-10.1-581.8-31.9c-167.6-18.8-335.3-37.6-502.5-59.6
	c-154.5-20.3-308.7-43.4-462.5-68c-149.2-23.9-298.5-48.4-446.6-78.1c-155-31-309.2-66.4-462.7-103.9
	c-91.3-22.3-180.8-52.2-270.9-79.4c-55.3-16.7-92.6-53.8-109.1-108.7c-22.8-75.7-46.6-151.3-62.9-228.5
	c-44.1-209.4-83.9-419.7-126.5-629.5c-8.3-40.9-21.3-80.9-33.1-121c-9.2-31.2-31.1-50.3-61.2-62.3c-43.2-17.3-87-33.7-127.9-55.5
	c-130.1-69.2-180.1-182.2-170-325c8.8-124.7,95.1-232.7,217.8-272.4c21.3-6.9,31.3-16.8,37.7-38.8c45.3-155.5,144.5-257.4,304-295.5
	c30.2-7.2,62.4-10.6,93.4-9c27.6,1.4,41.4-6.5,53.4-31.4c44-91.3,112.1-159.9,205.7-200.1c78.6-33.7,161.4-45.1,246-28.7
	c27.8,5.4,42.3-3.3,56.7-25.3c51-77.4,123.6-126.4,212.8-147.6c88.2-20.9,175.6-15.4,259.3,23.3c28.1,13,28.4,12.8,48.3-7.2
	c90.2-90.6,197.7-102.5,312.8-63.8c107.4,36.2,169.3,118.7,206.6,221.9c24.6,68.2,27.7,139,20.8,210.2c-2.1,21.4,4,34.1,20.7,46.9
	c218.4,168.5,428.3,347.3,635.9,528.8c214.7,187.7,425.7,379.3,625.7,582.7c28.5,29,55.1,60,82.5,90.1c28.8,31.6,41.8,69,41.7,111.7
	c-0.3,117.6-0.1,235.1-0.1,352.7c0,15.1,0,30.3,0,45.4C3827.5,2602,3827.6,2602,3827.7,2602z M788.4,1845.3
	c0.9,17.8,0.8,30.3,2.4,42.6c24.9,190.4,52,380.6,97.7,567.2c24.6,100.4,55.4,199.3,83.7,298.8c7.2,25.4,24.5,41.6,49.5,49.8
	c54.1,17.7,107.4,38.8,162.5,52.6c142,35.5,284.3,70.5,427.5,100.4c146.7,30.7,294.4,57.7,442.3,81.8c153.8,25,308.3,45.6,462.8,66
	c74.9,9.9,150.5,15.3,225.8,22.1c144.8,13.2,289.6,27.3,434.5,38.6c134.5,10.6,269.3,18.7,404,26.7c37.9,2.3,76.1,0.3,117.6,0.3
	c28.5-297,31.1-592.9,33.7-891.7c-32.5-3.3-62.4-6.2-92.3-9.4c-100.6-10.9-201.2-22-301.8-32.9c-114.5-12.5-229.1-23.7-343.4-37.6
	c-113.2-13.7-226-29.5-339-45.1c-156.7-21.6-313.5-42.4-469.8-66.3c-182.8-27.9-365.5-56.1-547.4-88.9
	c-202.5-36.5-404.2-77.5-606-118.3C953.1,1886.1,874.4,1865.5,788.4,1845.3z M3692.3,3245.7c-35.4-1.7-67.7-2.6-99.9-4.8
	c-149.7-10.4-299.5-20.5-449.1-32c-148.5-11.5-297-22.9-445.2-37.4c-192.1-18.8-383.6-42.7-574.5-72.6
	c-295.4-46.3-588.7-102.4-878.4-176.5c-85.6-21.9-170.9-44.8-252.3-80.5c-30.9-13.5-51.8-34.5-63.7-65.3
	c-4.6-11.9-10.3-23.6-13.6-35.9c-26.5-97.6-54.7-194.8-78.4-293.1c-37.1-153.9-62.3-310.2-81.7-467.3c-5.6-45-9.9-90.2-12.9-135.5
	c-2.5-36.8,11.9-49.5,47.9-44.4c21.8,3.1,43.5,7.5,65,12.3c91.8,20.8,183.2,43.8,275.5,62.5c126.5,25.7,253.3,49.5,380.4,72
	c187.8,33.1,375.7,65.2,563.9,96.1c98.7,16.2,197.8,29.4,296.8,43.5c158.9,22.6,317.6,46.2,476.8,67c128,16.7,256.4,30.2,384.8,44.2
	c161.9,17.7,323.9,34.4,485.8,51.4c3.1,0.3,6.4-1.6,13.1-3.5c-1-17.7-2.1-35.5-3.2-54.2c-13.3-2.3-23.4-4.4-33.7-5.7
	c-127-15.9-253.9-32.1-380.9-47.4c-151.3-18.2-302.8-34.6-454.1-53.3c-228.6-28.3-457.4-55.1-685.3-87.6
	c-195.7-27.9-390.4-62.6-585.4-94.9c-212.3-35.2-423.9-74-632.7-126.4c-61.9-15.5-123.1-34.6-183.5-55.4
	c-56.8-19.6-61.9-38.3-23.5-85.5c33-40.5,68.2-79.7,105.9-115.9c128.5-123.2,274.6-222.5,430.1-308.2
	c169.7-93.5,348.3-165.9,532.9-224c147.7-46.5,297.4-84.3,451.1-105.1c46.3-6.3,46.7-6.8,49.9-53.7c0.6-9.3,1.7-18.6,2.1-27.9
	c2.7-54.1-3.1-106.8-24.2-157.3c-44.9-107.5-132.8-163.1-244.5-151.1c-61.1,6.5-104.5,40.1-132.6,96.8c9.3,10.6,17.3,20.5,26.1,29.5
	c31.8,32.5,49.3,73,63.7,115c8.1,23.6,1.8,40.4-13.5,44.1c-15.2,3.7-22.5-2.9-30.1-29.7c-12.4-43.7-35.6-80.5-68.6-111.5
	c-56.9-53.4-126.4-76.3-202.2-84.7c-116.1-12.8-224.7,43.9-278.9,146.1c-3.6,6.8-5.3,14.6-8.2,22.8c8.7,6.7,16,12.2,23.3,17.7
	c37.5,28.5,69,62.3,91.6,103.9c5.5,10.1,10,21.1,12.8,32.3c3.4,13.5,0.4,25.8-14.6,31.4c-16.9,6.3-21.8-5.7-28.3-17.7
	c-12-22.4-22.5-46.6-38.9-65.4c-81.2-93.2-186.3-114.3-301.5-88.1c-105.5,24-179.5,89.3-221.7,189.7c-14.7,35-15.6,34.8,17.1,54
	c59.5,35,107.3,81.5,139.2,143.2c9.8,18.8,7.5,27.7-6.4,35.6c-14.4,8.2-22.4,5.1-33.1-13c-1.8-3-3.1-6.3-4.7-9.3
	c-29.1-54.1-71.7-93.9-127.1-120.1c-145.8-68.9-337,3.7-399.7,152.3c-12.4,29.5-23.7,59.9-20.4,94.3c15.3,2,28,3.2,40.6,5.4
	c89.8,15.9,159.5,61.7,206.5,140.4c4.1,6.9,6.9,14.9,8.8,22.7c2.8,11.5-1.7,20.2-12.8,25.6c-10.9,5.3-20.5,4.3-27.7-5.7
	c-5.4-7.5-10-15.7-14.2-24c-13.6-26.5-32.8-48-56.9-65.1c-72.9-52-152-67.9-238-38.6c-90.7,30.9-146.7,93.2-159.8,188.7
	c-14,101.7,25.2,180.6,114.4,231.3c37.1,21.1,77.8,36.6,118,51.6c59.7,22.2,99.9,62.6,121,121.9c9.7,27.3,19.2,55.1,24.9,83.5
	c37.7,184.6,73.3,369.7,111.8,554.2c20.2,96.7,41.5,193.4,68.2,288.5c24.4,87.1,22.4,93.8,124.2,121.3
	c161.5,43.7,323.7,85.2,486.6,123.2c192.5,45,387.1,80.3,582.7,109.9c143.7,21.7,287.5,43.3,431.5,63.2
	c154.4,21.3,308.7,44.5,463.7,59.5c182.9,17.7,366.5,29.1,550,40.1c64.8,3.9,130.2-1.8,195.3-3.1c13.6-0.3,25.5-3.5,31.4-17.4
	C3679.3,3309.8,3688.4,3280.2,3692.3,3245.7z M777.3,1672.6c20.7,7.7,34.3,13.5,48.4,17.9c183.7,56.8,372,93.7,560.7,128
	c199,36.2,398.8,68.5,598.8,99.2c221.9,34,444,66.7,666.6,95.3c226.1,29,453,51.8,679.4,78.3c106.2,12.5,212.2,27.3,318.3,41
	c11.9,1.5,23.8,2.5,43.5,4.4c-11.6-14.6-17.3-23.1-24.3-30.3c-43.2-44-86-88.5-130.2-131.5c-267.8-260.8-551.8-503.5-837.1-744.6
	c-115.5-97.6-234.8-190.7-351.9-286.4c-18.2-14.8-36-23.5-60.2-18.8c-47.9,9.4-96.2,16.6-144.1,25.7
	c-146.6,27.6-289.1,70.2-429.2,120.8c-241.9,87.3-470.5,200.5-677.1,355.6c-75.6,56.8-146.1,119-211.4,187.2
	C811.5,1631.2,797.2,1649.4,777.3,1672.6z"/>
<path d="M2714.2,2679.3c-58-0.1-98.9-40.6-98.8-97.8c0.2-53.4,44.1-99.6,95.2-100.2c56.2-0.6,101.8,44.7,102,101.1
	C2812.9,2630.7,2781.9,2682.4,2714.2,2679.3z"/>
<path d="M1926.1,2397.8c55.8,1.5,98.2,45.8,97,101.6c-1.1,55.3-46.1,95.2-104.6,92.7c-52.7-2.2-92.2-45.3-90.8-99.1
	C1829.1,2437.9,1872,2396.3,1926.1,2397.8z"/>
<path d="M1748,2598.1c37.6,3.3,72.2,12.1,102.9,33c21.5,14.7,34.8,34.8,31.9,61.9c-3.1,28.4-20.8,47.5-46.5,56
	c-52.9,17.5-105.3,16.4-154.9-12.4c-5-2.9-9.7-6.5-14.1-10.3c-40.9-35.8-33.4-91.7,16.9-113C1704.1,2605,1726.7,2603,1748,2598.1z
	 M1834.8,2688.7c-22.2-40.9-98.6-57.7-134.2-30.5c-14.1,10.8-14.4,21.5-0.8,34.4c27.3,25.8,96.1,29.6,127.4,6.5
	C1830.7,2696.6,1832.5,2691.9,1834.8,2688.7z"/>
<path d="M2844.5,2878.3c-25.5-6.5-55.9-10.6-83-22.2c-39.2-16.8-54.4-58.6-37.8-91.8c9.2-18.5,24-31.9,43.8-37.3
	c56.2-15.4,110.2-11.3,159.9,22.3c23.2,15.7,34.7,37.3,30.4,65.4c-4.2,27.1-22.2,43.1-47.3,50.3
	C2890.7,2870.8,2869.9,2873.4,2844.5,2878.3z M2914.9,2803.3c-10.6-10.3-17.8-21.7-28.2-26.6c-32.5-15.3-67.2-18.6-101.4-6
	c-8.3,3-17.5,12.7-19.4,20.9c-1.3,5.9,7.3,16.4,14,21.5C2812.8,2838,2876,2834.9,2914.9,2803.3z"/>
<path d="M2300.6,2701.2c-11,5.2-23.9,13.8-38.2,17.6c-38.7,10.5-77.5-6.5-99.1-41c-14.8-23.5-19.8-49.6-18.3-76.8
	c1-18.6,10-27.2,25.1-27.5c17.9-0.4,19.5,12.5,21.3,25.8c2,14.9,2.7,30.5,7.9,44.3c13.6,36.4,47,42.8,74.3,15.2
	c6.5-6.6,11.4-14.9,18-21.3c13.7-13.2,22.6-12.5,34.5,3c7,9.2,11.8,20.1,18.8,29.3c27,35.5,70.7,23.1,79.3-10.5
	c3.1-12.3,8.3-24.2,12.3-36.3c3.9-11.7,11.9-17.3,23.9-14.9c11.6,2.3,17.2,10,17.8,22.3c2.7,62.1-52.2,114.8-112.2,103.3
	C2344.7,2729.6,2325.4,2713.9,2300.6,2701.2z"/>
<path d="M2527.9,1811.4c-137.4,2.9-274.6-0.9-410.1-27.3c-89.7-17.5-176.3-42.8-252.8-95.4c-34.3-23.5-61.7-52.8-79.4-90.8
	c-38.3-82.6-13.1-166.9,64.5-214.9c39.5-24.4,83.3-35,128.9-39.4c15.1-1.4,30.2-2.5,45.3-3.2c13.4-0.6,21.4-6.9,25.1-19.8
	c30-104.3,138.4-136,231.1-120.5c89.6,15,167.4,56.4,234.8,116c133.9,118.5,210.8,269.7,248.6,442.6c1.2,5.7,2.2,11.5,2.5,17.3
	c1.1,23-3.8,29.6-25.8,33.4c-9.1,1.6-18.5,1.9-27.8,1.9C2651.2,1811.5,2589.5,1811.4,2527.9,1811.4z M2716.7,1764.8
	c-0.8-9.4-0.3-17.5-2.3-24.9c-29.5-110-73.5-213.2-145.6-302.5c-59.9-74.1-129.6-136.2-219.5-172.9c-48.8-19.9-99.1-24.7-150.5-18.1
	c-49.9,6.5-96.5,35.6-104.5,91.7c-0.8,5.7-3.2,11.2-4.6,16.8c-5.1,21.3-19,30.7-40.4,30.8c-16.3,0-32.6,0.2-48.8,1.1
	c-53.2,3-103.4,15.1-146.1,49.4c-32.4,26.1-48.7,59.5-41.6,100.9c5.1,30.2,19.1,57.1,40.3,79.9c28.2,30.1,61.7,52.7,99,69.9
	c109.6,50.6,226.8,69.6,345.4,75.5c131.1,6.5,262.6,4.3,393.9,5.6C2699.1,1768.1,2706.9,1766.1,2716.7,1764.8z"/>
<path d="M2307.5,1644.5c-43.5-0.9-83.4-6.7-119.7-27.5c-25.5-14.6-37.9-35.7-32.6-55.6c5.9-22.4,26.9-36.4,57-36.1
	c63.8,0.8,111.7,34.7,153.6,78.1c15.1,15.7,9,29-12.5,35.5c-5.5,1.7-11.3,2.9-17,3.5C2325.9,1643.6,2315.5,1644,2307.5,1644.5z"/>
<path d="M2436.3,1545.4c-37.8-8.7-79.4-25.6-112.2-58.8c-20.6-20.9-23.2-44.1-10.8-63.2c12.9-19.9,38.5-28.2,64.9-19.1
	c54.8,18.9,81.6,62.8,97.1,114.7C2481.3,1539.3,2470.3,1547.3,2436.3,1545.4z"/>
</svg>
