<?xml version="1.0" encoding="utf-8"?>
<!-- Generator: Adobe Illustrator 24.3.0, SVG Export Plug-In . SVG Version: 6.00 Build 0)  -->
<svg version="1.1" id="Layer_1" xmlns="http://www.w3.org/2000/svg" xmlns:xlink="http://www.w3.org/1999/xlink" x="0px" y="0px"
	 viewBox="0 0 4000 4000" style="enable-background:new 0 0 4000 4000;" xml:space="preserve">
<path d="M1236.8,3437.1c-60.9,40.4-122.4,77.3-189.7,102c-41,15-83.7,26-126.2,36.1c-30,7.1-59.3,3.5-80.2-23.7
	c-8.3-10.7-18.1-7.4-28.5-4.8c-41.5,10.7-82.7,24-124.8,30.9c-82.8,13.5-166.2,23.5-249.3,34.5c-27.4,3.6-55,6.6-82.5,8.7
	c-42.1,3.1-70-17.5-71.6-59.5c-2-50.3-1.1-101.2,4.3-151.3c5.9-54.9,18.4-109,27.9-163.5c0.6-3.6,0.5-7.4,0.9-13.3
	c-48.4-13.3-50.5-50.2-45.9-91c7.9-69.6,25.5-136.8,50.3-202.1c2-5.3,4.5-10.5,6.7-15.8c4.9-11.8,4.8-21.4-7.8-29.4
	c-22.4-14.2-26.1-35-20.3-60.1c11.6-50.4,37.5-93.9,65.3-136c21-31.7,46.5-60.4,70.1-90.3c4.7-5.9,9.7-11.6,14.6-17.4
	c-1.1-3.4-1.2-6.6-2.9-8.6c-26-30.2-21.9-60.7-2.1-92.1c34.6-54.9,79.3-100.6,130.4-139.4c37-28.2,77.4-52.2,117.2-76.4
	c13.8-8.4,22.9-15.1,17.3-33.2c-5.6-18,0.4-35.2,14.6-46.6c19.1-15.4,40-28.7,60.7-42.1c7.6-5,16.7-7.7,29.2-13.3
	c-9.2-5-14.4-8.2-19.9-10.6c-24.3-10.9-50-19.5-72.8-32.9c-27.3-16-48-38.6-42.8-74.4c2.1-14.4-6-20.3-17.3-25.7
	c-44.5-21-83.1-50.4-117.4-85.5c-6-6.1-12.3-12.1-17.4-19c-24-32-42.6-65.1-12.9-103.9c-13.1-18.4-25.3-35.3-37.4-52.4
	c-34.5-48.9-58.1-102.9-72.7-160.8c-3-11.9-4.4-24.4-5.6-36.7c-1.9-20.3,3.4-38.3,20.9-50.3c14.6-10,14.8-21.2,8.8-36.9
	c-37.4-98-49.2-199.7-40.3-303.9c2.1-24.6,7-49.2,12.7-73.2c9.1-38.2,34-69.9,89.7-50.2c43.1,15.2,86.3,30.6,130.3,43
	c35.7,10.1,72.5,16.1,108.9,23.9c13.3,2.8,23.7-0.4,32.2-12.4c11.2-15.9,27.8-23,47.3-21.6c19,1.3,38.3,1.5,56.8,5.4
	c51.4,10.8,101.9,24.9,149.8,46.7c10.9,4.9,19.7,6.3,28.3-3.1c18.4-20.1,42.1-18.9,63.8-10.8c35.6,13.3,69.9,30.1,104.5,45.9
	c7.7,3.5,15,8.6,21.4,14.2c34.1,29.7,70.2,54.8,121.3,53.1c0-5.7,1-14.6-0.2-23.3c-5.2-37.8,1.9-74.1,12-110.1
	c9.8-34.9,30.7-56.5,68.7-58c3.7-0.1,7.3-1.7,12.2-3c4-26.3,6.5-52.8,12.2-78.5c11-49.4,24.2-98.3,49.7-142.7
	c6.2-10.7,13.2-21.1,21.2-30.5c18.2-21.3,40.2-31.9,68.6-20.9c2.6,1,5.6,0.9,8.4,1c0.9,0.1,1.8-0.5,5-1.6
	c4.1-7.4,9.3-16.4,14.1-25.5c25.3-48.5,56.4-93,93.9-132.9c10.4-11.1,21.2-22.1,32.9-31.8c32.8-27.3,51-30.2,94.5-15.2
	c6.1-6.9,13-14.5,19.8-22.2c45.1-51.4,97.3-94.3,156.2-128.8c17.2-10,35.9-17.6,54.5-24.9c31-12.2,59.8-10.2,83.9,15.9
	c1.8,2,4.8,2.9,9.2,5.5c7.5-3.8,16-7.6,24.1-12.3c112.8-66.2,232.3-114.9,361.6-137.8c20.6-3.6,41.7-4.4,62.6-5.4
	c47.1-2.3,92.7,23.1,80.6,93c-5.9,33.8-12.4,67.6-18.1,101.4c-16.7,98.4-19,197.2-9,297c3.9,2.2,7,5,10.4,5.5
	c33.7,5.8,49.1,29.7,52.5,59.7c4.2,36.8,6.7,74.4,3.5,111.1c-4.5,52.1-14.9,103.8-22.7,155.6c-0.6,3.7-0.7,7.4-1.2,12.7
	c52.3,23.8,53.3,68,46.4,116.2c-8.2,57.2-25,111.6-48,164.3c-5.2,11.8-9.5,21.7,2.2,33.5c26,26,26.8,59.1,16.4,91
	c-12.4,37.9-29.4,74.4-44.4,111.4c-2.8,6.8-5.8,13.6-9.6,22.2c34.6,7.4,70.2,10.8,77.5,53.2c23.6,0,44.4,0.1,65.3,0
	c72.6-0.6,145.2,0.4,216.1,18.5c16.5,4.2,32.9,9.9,48.4,16.9c24.1,10.9,40.6,29.5,43.4,56.3c1.8,16.9,10.8,21.3,25.1,25.4
	c67.5,19.2,130.5,48.3,186.9,90.6c8.4,6.3,16,13.5,24,20.3c23.5,20.1,29.7,45.3,22.9,74.9c-5.6,24.3-4.8,24,15.9,38.5
	c109.4,76.4,201.2,169.5,268.4,285.5c9.9,17.2,18.3,35.9,23.4,55c9.8,36.5-3.7,61.8-39.1,74.8c-25.9,9.5-52.9,16.3-79.5,23.8
	c-78.1,22-154.6,48.9-229.6,80c-17.3,7.2-28.8,15.5-29.1,36.7c-0.2,18.1-13.1,31.2-26.4,42.7c-25.7,22.2-55.3,38-87.5,47.3
	c-43.9,12.7-88.4,23.2-133,33.1c-12.9,2.9-20.8,6.9-23,20.5c-5,30.7-26.6,48.6-52.7,59.4c-24.5,10.2-50.4,18-76.5,22.8
	c-65.2,12.2-130.9,13.1-196.6,3.2c-12.6-1.9-24.1-3.7-31.9,10.8c-13.3,24.6-36.8,31.5-62.7,33c-58.2,3.4-113.9-9.2-168.5-27.3
	c-33.3-11.1-65.6-25.4-99.7-38.8c-34,40.2-75.5,30-117.1,14.5c-55.4-20.6-102-55.4-147-92.8c-7.1-5.9-14.4-11.6-26.4-21.3
	c-1.3,15.6-2.2,25.6-2.9,35.5c-7,92.7-21,184-56.6,270.7c-7.6,18.4-16.6,36.6-27.2,53.4c-13.9,22.2-33.6,36.4-61.8,33.3
	c-15.2-1.7-23.7,4.3-31,18.6c-32.7,64.5-77.4,120.3-130.7,168.9c-16.7,15.2-36.8,27.2-56.6,38.4c-17.4,9.8-35.9,10.4-54.3-1
	c-20.4-12.6-20.9-12-37.5,6.4c-58.2,64.6-126,116.5-204.4,154.2c-19.7,9.5-40.4,17.2-61.2,24.1c-35.6,11.8-69.6,10.9-98.9-16.7
	C1244.5,3440.3,1241.5,3439.5,1236.8,3437.1z M664,3062.2c-13.6,1.9-22.9,2.1-31.5,4.7c-57.4,17.5-109.9,43.5-151.4,88.3
	c-3.9,4.2-7.6,9.2-12.5,11.6c-4.4,2.2-12.4,3.7-15.1,1.3c-4.2-3.6-8.5-12.1-6.9-16.3c3.6-9.4,9.3-19.3,16.8-25.9
	c60.6-53.3,128.6-92.4,210.3-101.9c16.8-2,28.5-8.2,38.1-21.4c14-19.3,28.6-38.2,43.2-57c66.6-86.3,140.6-166.1,216.1-244.4
	c5.5-5.7,9.8-12.7,16.7-21.6c-10.9-1.3-17.4-2.5-23.9-2.8c-161.5-6.6-306.5,40.6-437.7,133.5c-6.2,4.4-12.3,9.9-19.3,12
	c-5.3,1.7-14.4,0.9-17.4-2.5c-3.1-3.6-3.3-13.7-0.3-17.6c6.8-9,15.4-17.1,24.7-23.5c145.2-99.9,305-146.1,481.4-129.6
	c19.8,1.8,34.4-2.3,48.5-16.6c84.2-85,177.2-159.6,274.2-229.4c3.4-2.5,5.7-6.6,12-14c-17.7-5.4-31.6-11-46-13.9
	c-60-12-120.5-19.8-181.7-20.7c-120.8-1.8-237.9,14.9-347,70.5c-4.2,2.2-8.8,5.6-13.1,5.4c-6.7-0.4-16-1.3-19.4-5.7
	c-6-7.7-6.6-18.1,3.5-25c4.7-3.2,9.8-5.9,15.1-8.1c23-9.3,45.8-19.3,69.2-27.2c116.8-39.4,237.3-47.9,359-38.4
	c62.6,4.9,125.3,13.7,184.2,38.4c11.4,4.8,20.1,0.8,29.3-5c41-26.1,82.2-51.8,123.2-78c3.9-2.5,6.6-6.9,11.8-12.6
	c-62.6,1.1-119.1-10.9-174.5-29.8c-15.3-5.2-28-13.2-32.8-29.2c-4-13.7-14-20-25.8-24.7c-25.6-10.1-46.8-25.9-62.5-48.3
	c-9-12.9-20.2-16.1-34.7-12.5c-60.6,14.9-122.4,18.9-184.5,21c-13.2,0.5-27,2.1-39.2,6.8c-47.1,18.3-93.8,37.6-140.2,57.7
	c-13.5,5.8-25.2,15.5-36.6,22.7c1.2,5.7,1.1,7.8,2,9.3c23.2,37.5,20.4,46.9-19.6,68.1c-19.4,10.2-38.9,20.3-57.9,31.3
	c-67.3,39.2-127.8,86.9-178.7,146.2c-11.5,13.4-23.8,27-27.3,46.7c9.4,4.6,18.3,8.1,26.2,13c20.3,12.6,22.7,25.5,8.1,44.9
	c-7.4,9.9-15.9,19-24.1,28.3c-43.9,50.4-88.3,100.5-120.5,159.6c-10.3,18.9-18.3,39.1-28,60.1c11.7,3.9,19.9,6.2,27.6,9.3
	c20.3,8.1,25,16.2,19.4,37.7c-3.6,13.8-8.9,27.2-14.7,40.3c-26.6,60.6-44.3,123.9-57,188.7c-2.7,13.6-3.5,27.6-5.4,42.7
	c12.7,1,22.2,1.2,31.4,2.6c23.8,3.6,29.3,10.9,25,34.7c-4.6,25.3-10,50.5-15.3,75.7c-17.1,81.4-30.5,163.2-31.4,246.6
	c-0.1,11,0.7,22,1.2,34.4c10.4-0.7,16.9-0.9,23.4-1.7c52.1-6.4,104.1-12.8,156.2-19.4c101.3-12.9,202-29.2,298.8-63.5
	c5.4-1.9,10.8-3.7,16.3-5.1c26.3-6.6,34.3-2.4,43.4,22.5c2.9,7.8,6,15.4,9.5,24.5c10.4-2,19-2.6,26.9-5.3
	c47.7-16.3,96.1-31.1,142.7-50.3c60.2-24.8,114.6-60.5,166.9-99.3c26-19.3,39.7-14.5,52.5,15.4c4,9.3,7.7,18.8,11.9,29.1
	c7.4-1.6,12-2.2,16.4-3.5c12.7-4.1,25.6-7.7,37.9-12.8c81.1-34.2,152.4-82.7,211.9-148c18-19.7,35.4-40.1,53.9-59.3
	c15.5-16.1,26.6-14.8,39.3,3.4c6.8,9.8,12.4,20.5,18.6,30.9c6.5-2.9,10.2-3.9,13.3-6c5.5-3.7,10.9-7.8,15.9-12.1
	c54.1-46.6,97.8-101.6,132.5-163.9c9.7-17.5,19.8-34.9,30.8-51.6c11.9-17.9,18.7-19.8,38.7-15.1c24.8,5.9,26.7,5.2,36.9-17.2
	c4.7-10.4,9.2-21,12.7-31.9c34.7-106.3,49.9-215.5,44.9-327.1c-2.8-62.7-29.2-117.2-64.2-173.9c-11,32-31.4,43.8-60.5,44.4
	c-7.4,0.2-15.4,9.4-21.8,15.8c-18.7,19-35.2,40.2-55.2,57.6c-24.5,21.3-37.4,20.2-58.6-3.5c-17-19.1-31.5-40.6-46.3-61.5
	c-6.7-9.5-12.1-20.6-25.4-20.4c-20.1,0.3-28.8-11.8-34.4-28.4c-7.9-23.4-15.9-46.9-24-70.6c-28.2-11.8-29.4-13.6-33.2-45.4
	c-0.9-7.8-2.7-15.5-5-28.2c-56.5,50.5-123,77.4-176.4,121.2c6.3,18.5,11.4,32.8,16,47.3c36.7,116.3,46.1,235.5,38.8,356.6
	c-1.4,22.5,0.5,27.6,20.4,35.1c53.9,20.4,103.7,1.9,127.4-44.3c4.4-8.5,7.8-17.5,12.9-25.5c5.8-9.2,13.5-17.3,25.8-10.9
	c11.4,5.9,12.5,16,8,27.1c-27.6,68.6-88.5,116.8-179.5,88c-6-1.9-12.2-3-21.1-5.1c-3.1,15.9-6,29.7-8.4,43.6
	c-13.8,79.5-38.7,155.5-75.6,227.3c-13.9,27.1-30.1,53.1-46.9,78.5c-9.8,14.8-14.2,13.8-32.9-0.5c3.4-6.2,6.8-12.8,10.4-19.2
	c19.4-35,40.9-69,57.7-105.2c30.7-66.2,47.5-136.6,59.5-208.4c4.4-26.7,4.6-49.6-11-73.4c-13.3-20.3-15.1-45-13.2-69.2
	c1.3-16.9,3.3-18.3,21.5-17.9c3.7,0.1,7.4,0.4,11,0.7c11.6-67.7-18.8-251.4-51-303.8c-7.1,3.8-14.8,7.1-21.5,11.8
	c-98.4,69.5-190.7,146.6-278.6,228.7c-47.4,44.3-91.1,92.5-137.5,137.8c-13.8,13.5-17.3,25.7-8.9,42.9c4.1,8.4,5.7,18.2,8,27.4
	c24.6,100.6,18.9,200.7-4.3,300.6c-14.9,64.4-36.4,126.5-67.7,184.9c-10.2,19.1-11.5,19-35.1,6.7c3-7.3,5.8-15.1,9.3-22.4
	c5-10.3,11.1-20.1,15.9-30.4c31.9-68.9,51.9-141.4,62.2-216.5c10-73.5,9.9-146.6-11.3-218.5c-2.3-7.7-6-15.1-9.9-24.9
	c-7.2,6.6-12.3,10.6-16.6,15.4C731.7,3014,609.1,3182.7,510,3368c-4,7.6-7.9,15.3-12.7,22.4c-5.2,7.6-12.1,12.2-21.6,6.4
	c-1.9-20.6-1.8-20.5,9.4-42.8c46.9-93.1,102-181.2,162.3-266.2C652.4,3080.9,656.6,3073.7,664,3062.2z M2636.4,289.4
	c-15.5,1.2-27.6,1.3-39.5,3.1c-110.2,17.6-214.8,52.4-312.8,106c-36,19.7-70.7,41.6-106.7,61.2c-25,13.6-37.2,11-50.1-12.2
	c-19-34-23.3-25.2-52.3-14.3c-7.9,3-15.2,8-22.6,12.3c-54.2,31.6-100.4,72.6-140.9,120.2c-11.1,13.1-22,26.4-33.7,39
	c-19,20.4-29.8,21.2-51.7,5c-6-4.4-12-8.9-18.8-14.1c-6.2,4.4-12.2,7.5-16.5,12.1c-19.9,21.8-41.8,42.4-58.2,66.7
	c-25.1,37-46.5,76.5-69.2,115.1c-17.6,29.9-28.5,34.5-60.8,24.7c-21.3-6.5-21.9-6.4-33.4,13.8c-24.2,42.8-39,89-47.7,137.2
	c-5.9,32.9-9.9,66-15.6,98.9c-4.8,27.4-11.5,31.5-39.2,26.8c-10.1-1.7-20.1-3.6-29.3-5.2c-32,58.7-16.1,214.6,27.9,286.4
	c2.5,0.2,5.7,1.5,8,0.5c24.9-10.7,40.4,2.5,52.6,21.4c14.4,22.5,28.9,45.1,40.9,68.9c40.6,81,66.9,166.2,73.1,257.1
	c0.8,11.8,3.3,23.4,5.8,40.1c9.3-7.8,15-11.1,18.5-16c5-6.9,8.2-15,12.6-22.4c19.3-33.1,39.4-65.5,69.6-90.1
	c9.1-7.4,19-14.9,30.9-7.2c16.7,10.9,28.2,1,36.7-10.2c10.2-13.5,16.5-29.9,25.4-44.5c9.3-15.3,6.9-26.4-5.5-40.1
	c-19.1-21-36.5-44.1-51.7-68.2c-85.6-135.7-127-285-132.2-444.6c-1.1-34.2,2.9-68.6,5.4-102.8c0.8-10.8,7.1-17.9,19.3-15.7
	c11.8,2.1,11.2,11,10.1,20c-8.3,65.8-5.3,131.4,3.4,196.9c17.4,130.1,63.4,249.1,137.7,357.2c7.2,10.4,16.4,19.4,28.4,33.5
	c5.7-25.7,9.1-45.2,14.5-64.1c33.9-119.4,70.5-238,123-350.6c15-32.2,17.5-59.5,6.4-94.4c-33.4-105.1-34.2-212.4-5.4-319.1
	c7.7-28.4,19.5-55.7,30.5-83.1c3.7-9.3,11.7-16.1,22.9-9.7c10.2,5.9,6.4,14.4,2.6,22.5c-20.2,42.7-29.5,88.4-37.4,134.6
	c-12.8,75.5-8.2,150.2,8.2,224.6c2.2,9.8,5.7,19.3,9.9,33.1c6.2-9,10.1-14,13.2-19.4c36.8-63.6,71-128.7,110.6-190.4
	c84.3-131.4,184.1-250.6,296.4-359.2c4.1-4,8.1-9.3,13.1-10.7c5.6-1.5,14.4-1.3,17.7,2.1c3.2,3.4,3.4,12.7,1.1,17.6
	c-3,6.6-9.7,11.6-14.8,17.2c-43.3,47.1-87.9,92.9-129.5,141.4c-118,137.6-217.9,287.2-293.9,452.2c-6.1,13.3-11.1,27-18.4,44.8
	c16.8-3,27.9-4.5,38.9-7c74.9-17.1,146.3-44.1,212.6-82.7c75.3-43.8,146.7-93.1,201.7-162.4c2.9-3.7,6.3-8.4,10.3-9.5
	c5.7-1.5,14.1-2.3,17.8,0.9c3.7,3.1,5.6,12.7,3.5,17.2c-4.4,9.3-11.3,17.6-18.2,25.4c-41.5,46.6-89.5,85.9-141.2,120.5
	c-97.9,65.6-203.5,112.7-321.2,129.1c-18.9,2.6-29.1,11.4-35.1,28.3c-11.2,31.4-23.6,62.5-34.3,94.1
	c-29.7,87.6-59.7,175.3-74.3,267.1c-2,12.6-2,25.5-3.1,39.6c8.7-1,13.6-1,18.1-2.2c35-9.3,70.1-18.4,104.9-28.3
	c17.7-5.1,33.4-2.8,42.9,13c10.2,17.1,22.6,16.5,38.9,11.9c74.1-20.6,143.4-52.2,208.6-92.4c59.5-36.7,115.1-78.5,160-133
	c11.3-13.7,23.7-16.3,31.7-7.7c11.2,12,1.7,21.1-6.2,29.3c-21.3,21.8-41.5,45.1-64.9,64.5c-95.7,79.9-203.4,137.9-323.6,172.1
	c-7,2-13.8,4.8-22.2,7.7c3.4,9.1,5.2,16.5,8.7,22.9c16.3,29.7,25,61.8,29.9,95c2.7,17.9,4,36.1,7.7,53.8
	c2.8,13.5,8.4,26.4,13.5,42.1c14.3-7.9,25.3-13.4,35.7-19.7c19.6-11.8,38.3-25.2,58.4-36.1c101.3-54.8,207-97.4,321.7-114.6
	c13.5-2,25.7-6.8,33.5-19.5c20.4-33.4,42.2-65.9,61.1-100.2c14.6-26.5,25.4-55,31.3-87.5c-12.2-3.6-23.2-6.1-33.7-10.1
	c-17.7-6.7-23.3-18.2-16.8-36c5.2-14.3,11.9-28.1,18.4-41.9c27.8-60,50.2-121.7,58.4-187.8c0.9-7.1,0.1-14.4,0.1-21.2
	c-5.3-1.8-7.8-3.1-10.5-3.4c-51.6-5.9-55.4-12.2-45.3-63.5c10.2-51.4,19.9-102.9,27.7-154.7c5.8-38.5,4.8-77.5,1.8-117.2
	c-9.2-1.3-15.6-2.5-22.1-3c-27.5-2.5-35.9-8.8-39.3-35.8c-9.4-74.9-15.4-149.8-9-225.5c5.8-68.6,16.2-136.3,30.1-203.7
	C2634.2,313.3,2634.7,303,2636.4,289.4z M2864.8,2102.6c0.7,2.1,1.5,4.2,2.2,6.3c4.4,0.9,8.8,2,13.3,2.6
	c105.8,15.1,211.2,33.2,313.8,63.2c77.7,22.7,154,50.3,230.8,76.1c10.8,3.6,21.6,8.3,30.9,14.6c4.1,2.7,6.8,11.2,6,16.5
	c-1.2,8.4-8.1,12.7-17.2,10.2c-6.4-1.8-12.5-4.6-18.8-6.8c-78.5-26.7-157-53.5-235.7-80c-9.5-3.2-19.5-4.8-29.3-7.1
	c-1.4,1.7-2.8,3.4-4.1,5c5.3,10.6,9.1,22.3,16.1,31.5c33.8,44.7,74,82.2,125.9,105.4c7,3.1,15.1,4.9,20.5,9.7
	c3.9,3.5,6.4,11.4,5.4,16.6c-0.6,3.4-8.8,8.3-13,7.8c-9.2-1.1-18.6-4.1-27.1-8.2c-71.6-34.8-129.9-83.7-161.6-158.9
	c-6.7-15.9-17.2-23.1-33.7-26.4c-162.9-32.9-326.9-57.1-492.9-67.3c-12.1-0.7-24.3-0.1-37.9-0.1c-1.4,27.4,11.4,48.2,21.2,69.2
	c58.2,124.6,155.1,210.6,275.3,272.9c15.2,7.9,31.5,13.5,47.1,20.7c8.9,4.1,17.8,9.1,13.2,21.5c-4.6,12.6-14.7,10.8-23.8,7
	c-19.4-7.9-38.8-16.2-57.6-25.4c-116.4-57.3-208.8-140.2-267.8-257c-18-35.5-32-73-49.5-113.4c-101.2-4.6-205.2-3.4-309.5,8.3
	c0,7.9-0.7,11.8,0.1,15.3c30,131.7,92.9,243.8,199.6,328.6c31.3,24.8,65.8,45.5,98.9,68c7.1,4.8,16.9,9.7,10.2,19.6
	c-3.3,5-13.2,9.3-18.9,8.2c-9.9-2-19.3-7.8-28.2-13.1c-136-81-230.6-195-276.5-347.7c-7.3-24.4-14-49-20.8-73.1
	c-4.5-0.5-7.4-1.3-10.1-1c-59.5,8.5-119,16.8-178.3,26.2c-9.3,1.5-17.8,8.2-25.5,12c9.4,27,20.4,49.7,24.9,73.7
	c6.4,33.7,9.7,69.6-15,98.1c-14.6,16.8-14.8,31.6-5.9,49.4c11.5,23.1,22,46.7,34.7,69c15,26.5,29.4,54,48.6,77.3
	c57.5,69.8,125.1,128.5,205,171.9c14.7,8,30.7,13.5,47.6,20.8c4.9-9.8,8.3-16.4,11.6-23c14.1-27.8,33.1-34.9,60.9-22.3
	c6.1,2.7,11.9,6.1,17.5,9.7c67.6,42.9,142.2,63.9,221.4,70.3c6.2,0.5,12.6-1.4,18.3-2.1c1.6-4.5,2.9-7.1,3.5-9.8
	c9.5-45.6,16.9-50.6,61.7-43.4c48,7.7,96.1,16,145.1,13.1c47.6-2.7,94.2-10.5,139.1-26.9c0-6.5,0.4-11.2-0.1-15.9
	c-3.8-41,5.7-53.5,45.8-60c24.5-4,49.5-6,73.2-12.9c44.7-13,88.7-28.6,132.9-43.6c12.7-4.3,22.9-12.1,16.9-27.7
	c-10-26.4,3.2-41.7,24.4-53.5c7.5-4.2,14.9-8.6,22.8-12c66.6-28.7,133.5-56.5,204-74.7c34.2-8.8,68.1-18.6,101.9-28.5
	c10.4-3.1,20.2-8.2,33.8-13.8c-19.7-30.6-36.1-58.5-54.8-84.8c-64.4-90.5-146.4-163-235.8-227.7c-13.9-10-28.1-20.1-40.1-32.1
	c-16.1-16.1-16-26.9-3.9-45.9c4.9-7.6,9.5-15.4,14.7-23.7c-29.2-25.4-58.3-45.5-91.3-58.3c-46.2-17.9-93.1-34-139.9-50.2
	c-25.6-8.8-30.2-15.6-26.3-41.9c1.5-9.9,2-19.9,3-30c-40-15.5-79.3-17.1-118-20.9c-69.6-6.8-139.3-1.9-208.8,1.9
	c-31.5,1.7-38.3-4.6-38.3-34.3c0-26.3-1.9-28.5-28.9-30.7c-62.4-5.2-124,1.1-184.4,17.1c-118.4,31.4-227.2,83.3-326.8,154.6
	c-6.8,4.9-15.4,10.8-17.6,17.9c-10.4,33.2-31.2,63.3-28.8,100.7c0.9,13.5-3.8,28.7-10.2,40.9c-11.5,21.8-25.4,42.6-39.8,62.6
	c-12,16.6-26.3,31.4-42.7,50.7c33.6-5.5,62.4-11.3,91.4-14.8c48.3-5.8,96.7-10.6,145.2-15c15.6-1.4,25.5-7.8,34.3-21.3
	c12.9-19.9,28-38.6,44.1-56.1c55.7-60.8,124-104.3,198.3-138.4c91.2-41.8,187-65.4,287.8-66.5c26-0.3,26.8,1.1,25.1,29.2
	c-7.1,0.6-14.4,1.2-21.8,1.9c-29.4,2.5-59.1,3.4-88.2,7.9c-112.5,17-214.9,60.2-306.5,126.8c-34.4,25-63.4,57.6-94.2,87.3
	c-6.1,5.9-9.5,14.7-15.5,24.4c8.8,0.7,12.6,1.3,16.3,1.2c153.9-3.8,307.2,4.1,459.9,23.6c21.3,2.7,39.1,1.1,52.6-18.7
	c5.7-8.3,15.4-14.1,24.1-20.1c102.3-70.4,216.8-90.5,338.1-80.9c16.5,1.3,17.1,3.6,15.1,27.7c-8.9,0.5-18.2,1.3-27.4,1.4
	c-18.1,0-36.3-1-54.4-0.6c-89.8,2.2-173.2,25.6-248.6,75.4C2880.5,2089.3,2872.9,2096.3,2864.8,2102.6z M1342.8,1858.4
	c-14,11-24,20-34.9,27.4c-132.1,89.2-275.9,103.3-427.5,66.3c-16.5-4-21.9-11.6-17.8-22.9c5.4-15.1,17.2-7.9,26.7-6.3
	c26.3,4.4,52.3,11.3,78.8,13.7c86.8,8,171.6-0.7,252-37.2c36.6-16.6,69.2-38.8,97.8-73c-51.4-49-101.8-96.9-152-145.1
	c-9-8.7-18.2-8.8-28.7-4c-51.9,23.5-107,34.5-163.1,40.9c-112.9,12.8-220.7-3.5-321-59.3c-4.1-2.3-9.7-4.3-11.5-8
	c-3.1-6.2-3.8-13.7-5.5-20.6c6.7-1.6,13.4-4.4,20.1-4.5c4.2,0,8.5,3.9,12.7,6.1c132.7,69.6,270.3,72.4,411.1,30.1
	c13.1-3.9,25.7-9.8,40.9-15.7c-5.7-6.3-8.3-10.3-11.9-13c-28.2-21.3-55.7-43.5-85-63.1c-62.7-41.8-126.4-82.1-189.8-123
	c-81.8-52.8-163.1-106.3-237.3-169.8c-6.5-5.5-13.8-11.1-17.6-18.3c-2.4-4.4-0.9-13.9,2.5-17.4c3.4-3.5,11.6-3.3,17.6-2.8
	c3.1,0.2,6,4.4,8.9,6.9c97.4,82,204.2,150.6,311.6,218.4c6.7,4.2,14.1,7.2,23.2,11.8c0.8-8.7,1.9-13.4,1.7-18
	c-3.6-64.4-23.5-123.4-59.1-177c-6.9-10.3-14.5-20.1-21.7-30.3c-5.2-7.4-9.4-14.9-0.3-22.6c10.2-8.6,18.1-3.1,24.2,5
	c9.7,13,19.2,26.2,27.4,40.2c39,66.8,69.5,136.2,62.2,216.3c-1.2,12.9,6.9,18.9,15.9,24.7c23.2,15.1,47.1,29.1,69.5,45.3
	c71.1,51.7,137.5,109.1,201.1,169.9c6.3,6,13.5,11.1,23.5,19.3c2-13.1,4-20.4,4.2-27.8c4.7-136-29.1-260.7-110.3-371.2
	c-12.3-16.7-13.8-29.8-3.4-34.6c16.2-7.5,21.6,6.2,28.7,16.1c92.1,129.2,128.5,272.9,112.8,430.4c-0.9,8.8-0.3,20.3,4.6,26.6
	c22.4,28.2,46.5,55,69.2,81.3c20.8-2,40.6-5.8,60.4-5.2c19.7,0.6,39.3,6.1,59.1,8.5c6,0.7,14.3,0.2,18.1-3.4
	c13.4-12.7,27.7-15.5,44.8-10c5.1,1.6,11,0.7,16.1,1c44-116.7-10.8-347-98.3-451.9c-2.5,0.7-5.5,0.9-7.9,2.1
	c-35.1,16.5-37.6,15.8-57.2-18.1c-2.4-4.1-4.7-8.3-7.3-12.3c-21.3-32.9-43.1-65.4-74.3-90.2c-7.6-6-15.6-14.7-25.1-8
	c-23.3,16.3-39.2,4.6-54.5-11.9c-43.2-46.4-96.9-76.8-154.6-101c-20.5-8.6-23-8.9-34.8,9.9c-9.1,14.5-19.7,16-34,11
	c-19.8-6.9-39.6-13.9-59.6-20.2c-43.7-13.7-87.3-27.4-131.3-40.1c-10.5-3-22.1-2.1-32.8-2.9c-2.7,5.9-4.6,9.2-5.8,12.7
	c-8.2,22.9-11.6,26.3-34.1,26.7c-16.2,0.3-32.5-0.5-48.5-2.6c-81.9-10.6-160.1-34.9-236.3-66.2c-8.9-3.6-19-4.5-29.2-6.8
	c-11.8,37.8-12.7,73.2-13.3,108.3c-1.6,97.9,20.5,191.1,58.7,280.9c13.4,31.4,8.9,41.6-21.6,51.4c-24.1,7.8-24.6,9.3-18.4,34.8
	c10.8,44.3,31,84.1,57.5,120.7c19.6,27,41,52.6,60.8,79.5c12.9,17.6,11.6,24.3-3.6,39.6c-6.4,6.5-12.8,13-20.5,20.9
	c10.2,12.6,18,23.4,27,33c36.5,38.5,79,68.8,127.2,91.1c10.4,4.8,21.1,9.3,30.4,15.7c15.9,10.9,17.6,19.1,9.6,36.4
	c-3.5,7.5-7.3,14.9-11.8,24c9.9,6.1,17.3,12.3,25.9,15.6c39,15.1,78,30.7,117.7,43.8c64.1,21.1,129.6,31.9,197.2,19.7
	c29.6-5.3,59.2-10.3,91-15.7c-3.4-8.5-5.3-13.6-7.5-18.7c-12-28.2-12.2-33.1,9.6-52.7c19.8-17.8,41.5-33.5,63-49.3
	c13-9.6,30.2-15.1,40.3-26.9c21.4-25.1,47.6-40.2,78.3-49.4c1.3-0.4,1.9-3,4.5-7.3C1360.2,1877.9,1352.3,1869,1342.8,1858.4z
	 M1648.9,1791.7c-3,23.9-3.9,46.6-9.1,68.4c-3.9,16.2-1.2,27.4,10.4,38.4c36.9,34.6,61.6,77.3,81.5,123.2c4,9.3,9.2,18.1,14.2,27.9
	c23.7-22.6,27.1-45,10.3-66.4c-31.1-39.8-55.9-82.1-58.2-134.2c-0.3-6.6-1.4-13.7,0.5-19.8c1.4-4.3,6.9-9.9,10.9-10.2
	c4.1-0.3,10.4,4.1,12.7,8.2c3.1,5.6,4,12.7,4.7,19.3c4.2,36.9,19.5,69.6,38.6,100.7c3,4.8,8.7,7.9,14.6,13
	c10.8-24.6,19.9-46.6,30-68.1c12.2-25.9,15.2-51.3,7.9-80.2c-7.1-28.2-7.9-58.4-8.6-87.8c-0.4-18.1,5.2-21.2,24.4-22.8
	c9.7,31.9-0.9,67.4,15.8,103.3c7.9-12.4,13.6-20.9,19-29.6c20-32.5,39.1-65.6,60-97.4c12-18.2,26.4-35,40.9-51.4
	c8-9.1,17.9-17.4,35.5-9.8c-2.7,9-3.8,18.3-8.2,25.7c-5.8,9.7-13.8,18.2-21.4,26.8c-40.3,45.3-67.8,98.6-97.3,153.7
	c29-0.8,53.5-8.2,76.1-20.2c22.6-12,43.4-27.4,65.6-40.3c4.7-2.7,15.1-3.6,17.1-1c3.9,5.2,5.5,13.7,4.6,20.3
	c-0.6,4.7-6.5,9-10.7,12.7c-23.1,20.8-49.5,35.9-79.4,44c-23.9,6.5-48.5,10.2-72.4,16.8c-10.4,2.8-24.5,7.3-28.5,15.2
	c-20.2,39.7-34.5,81.9-47.4,126.1c62.8,6.9,118.7-9.5,172.8-33.6c9.9,19.1-1.3,26.3-11.7,32.8c-31.5,19.8-66.5,28.3-103.3,29.9
	c-17.2,0.8-34.4,0.1-51.5,0.6c-11.3,0.3-21.6,2.3-18.4,20.1c7.4,1.8,15.4,5.1,23.5,5.6c30.1,1.8,54.6,15.7,77.1,34.2
	c8.1,6.7,16.1,13.5,23.6,20.8c9.5,9,19.8,10.9,31.3,4.7c8.4-4.5,17-8.7,24.8-14.2c38.2-26.7,66.2-63,92.3-100.8
	c4.6-6.7,6.5-15.2,9.5-22.4c-8.9-6.5-15.8-11.5-22.6-16.5c5.7-9.3,7.9-14.6,11.5-18.7c29-33.8,36.3-74.7,39-117.2
	c0.9-13.3-2.5-24.8-15.8-30.9c-14.6-6.6-14.6-15.6-9.7-30.1c10.8-31.9,6.2-64.2-5.7-95.3c-11.6-30.1-24.2-59.8-36.3-89.7
	c-9-22.3-13.7-25.1-36.6-18.6c-34.9,9.8-69.8,19.4-104.2,30.8c-10.1,3.3-19,11.5-27.1,19c-19.5,18-37.8,37.3-57.6,55.1
	c-8.3,7.5-18,13.5-31,5.3c-4.1-2.6-14.5,0.8-19.7,4.6c-31.6,23.1-55.2,52.2-65.8,90.9c-3.4,12.4-10.4,23.8-16,36.4
	C1664.6,1795.9,1656.8,1793.8,1648.9,1791.7z M1473.2,2041.5c1.2-2.7,2.4-5.4,3.7-8.2c-16-14.5-32.2-28.9-47.9-43.7
	c-6.7-6.3-17.3-13.3-9.7-23.6c8.5-11.5,18.8-3.3,27.8,2c3.3,1.9,6.6,4.1,9.1,6.9c17.4,18.9,34.4,38.1,52.1,56.8
	c5.5,5.9,12.2,14.4,18.8,14.9c24.1,1.8,48.4,0.7,75,0.7c-15.8-35.2-48.2-54.6-63.8-87.5c19.3-12.1,31.7-2.5,43.2,7.2
	c20.9,17.7,32.7,41.8,44.4,65.9c11.5,23.6,49.4,35.4,77.2,23.3c-16.3-42.5-30.1-86.2-62.1-120.7c-10.3-11.1-22.1-21-33.7-30.9
	c-9.6-8.2-21.3-11.1-31.7-3.5c-19,13.8-37.6,9.4-57,2.5c-25.7-9.2-52.3-11.4-79-5.9c-9,1.9-21.3,4.7-25.2,11.3
	c-10,17.1-25.3,18.4-41.5,20.1c-14.2,1.5-28.4,3.3-42.7,4.5c-10.7,1-19.3,4.4-18.5,16.9c1.2,16.5-9.5,23.4-21.6,30.3
	c-20.7,11.8-41.5,23.5-61.3,36.7c-11.5,7.7-21.1,18.4-32,28.1c26.9,57,63.8,99.9,120.9,123c11.5,4.7,24.1,7.9,27.1,22.5
	c3.2,15.7,14.6,21.1,28.5,24c20.5,4.3,41,8.9,61.5,13.5c45,10,89.3,7.5,132.3-8.9c8.9-3.4,17-11.5,22.9-19.4
	c23.8-32.1,46.7-64.9,69.8-97.6c3.9-5.6,7.1-11.7,12.9-21.5c-48.2-0.9-91.1-0.7-133.9-3.1c-20.4-1.1-33.3,3.9-43.9,22.6
	c-16.4,28.9-42.3,49-72.9,62.2c-19.3,8.3-25.5,5.6-37.5-14.8c9.5-5.6,19.4-10.7,28.5-16.9c18.1-12.2,36.3-24.4,53.4-37.9
	c4.8-3.8,6.3-11.9,10.2-20c-10.9-0.9-17.5-1.4-24.1-2.1c-37.9-4-75.9-7.6-113.7-12.2c-17.5-2.1-25.1-9.7-21.8-20
	c4.2-13.3,15.8-11.7,26.2-10.8c14.2,1.3,28.4,3.7,42.6,5.1C1415,2036.4,1444.1,2038.9,1473.2,2041.5z M1790.5,2191.3
	c5.9,47.2,11.2,89.6,16.4,132c1,8.5,2.9,17.2,1.8,25.5c-3.6,26.4-8.2,52.7-12.7,78.9c-1.9,10.8-5.3,21.8-19.6,19.1
	c-12.3-2.3-12.7-12.3-11.3-22.5c3.5-25.5,7-51,10-76.6c0.9-7.8,0.1-15.7,0.1-27.5c-8.8,4.9-13.6,6.3-16.5,9.4
	c-7.1,7.7-12.5,17.1-20.2,23.9c-4.9,4.4-12.8,5.4-19.3,7.9c-1.3-6-4-12.1-3.6-18c1.5-19.2,12.8-33.3,25.8-46.4
	c25.6-25.6,31.3-70.7,11.8-106.3c-13,9.9-26.7,18.5-38.1,29.5c-12.2,11.9-22,26.2-33.2,39.2c-5.2,6-9.6,14.8-22.2,9.1
	c0.8-4.5,1-9.1,2.6-13.1c14.2-36.8,39-64.9,71-87.4c7.4-5.2,17.8-12.6,18.3-19.6c1.5-20.4,0-41.5-15.6-60.9
	c-10.8,5.6-21.8,9.3-30.5,16c-36.6,28.5-66,63.7-86.9,104.9c-13.2,26-1.4,54.1-0.5,81.2c0.1,3.7,4.9,8.6,8.7,10.7
	c15.9,8.7,16.9,22.5,17.9,38.8c1,17.7,6.2,35.6,12.3,52.4c2.2,6,13.2,13.9,18.6,12.8c15.5-2.9,20.6,7.2,26.9,16.3
	c12,17.2,23,35.1,35.3,52.1c30.4,42.3,41,42.6,73.8,1.2c12.4-15.7,23-32.8,34.6-49.1c7.9-11,16.7-16.4,31.6-10.4
	c18.8,7.6,24.2,4.6,32.2-14.7c5.4-13.2,9-27.1,13.2-40.8c6.4-20.9,9.7-43.3,19.8-62.2c7.7-14.6,11.9-27.8,9-43.2
	c-3.7-19.6-6.4-39.8-13-58.5c-24.3-68.1-71.6-108.8-145-115.8c-6.2-0.6-12.6,1.3-20.7,2.2c1.1,9.3,2.1,16.6,2.8,24
	c3.1,34.8,17.7,59.3,52.7,73.1c39.5,15.6,60.2,51.4,77.7,88c2.2,4.6,1.3,13.7-2,17.1c-6.9,7.1-14.2,2.4-18.9-4.6
	c-4.8-7.1-8.8-14.7-12.9-22.2C1855.2,2225.2,1825,2209.8,1790.5,2191.3z"/>
<path d="M1337.4,2611.7c-0.3,45.7-42.5,88.2-87.5,88.1c-38.5-0.1-76.1-42.2-76.2-85.3c-0.1-43.9,36.3-84.2,76-84.2
	C1300.6,2530.3,1337.7,2564.8,1337.4,2611.7z"/>
<path d="M1809.6,2794.1c-48.4-0.1-82.7-33.2-82.3-79.7c0.4-48.6,33.4-83.5,79.1-83.5c47.5,0,82.6,34.3,82.4,80.1
	C1888.5,2758.7,1854.7,2794.2,1809.6,2794.1z"/>
<path d="M1828.2,2916c-13.3-3.7-24-15.4-19.5-23.9c11.8-22.6,25.8-44,39.8-65.4c1.7-2.5,9.9-3.8,12.5-2c4,2.8,8.4,9.1,8,13.4
	c-0.7,7.2-4.3,14.5-8,20.9c-8.4,14.9-17.8,29.2-26.5,43.9C1832,2907.1,1830.3,2911.6,1828.2,2916z"/>
<path d="M1143.1,2717.4c-2,4.8-2.8,8.7-4.9,11.7c-10.5,14.5-21,29.1-32.1,43.1c-5.6,7.1-13.1,11.2-22.3,5.8
	c-10.2-6-7.7-15.1-2.8-22.1c11.8-16.9,24.5-33.3,37.9-49c2.6-3,11-3.8,15.1-2C1138.1,2706.9,1140.3,2713.3,1143.1,2717.4z"/>
<path d="M1202.8,2724.9c-2.2,5.8-3.1,10.7-5.7,14.4c-11.3,16.2-22.2,32.8-35.2,47.7c-3.4,3.9-14,3.9-20.1,1.9
	c-2.6-0.8-5.1-13.1-2.6-17c11.5-18.3,24.2-35.9,37.9-52.7c3.1-3.8,11.8-4.4,17.8-3.9C1197.9,2715.6,1200.3,2721.6,1202.8,2724.9z"/>
<path d="M1862.1,2913.7c9.6-31,22.8-51.2,40.1-68.6c7.8-7.9,17.9-14.9,31.3-3.6c-7.1,27.6-26.1,48.6-43.8,69.9
	C1886.3,2915.5,1874.9,2912.9,1862.1,2913.7z"/>
<path d="M1815.1,2824.4c-9.8,30.2-27.8,53-48.1,74c-7.1,7.3-19.7-0.3-19.9-10.9c-0.4-16.2,36.8-64,52.7-66.9
	C1803.7,2819.9,1808.3,2822.6,1815.1,2824.4z"/>
<path d="M1262.2,2745.5c-13.5,17.6-26.6,35.8-41.1,52.8c-2.2,2.6-11.7,2-15.3-0.6c-3.5-2.5-6.6-11.3-4.8-14.3
	c10.6-17.6,22.1-34.8,34.8-50.9c2.6-3.3,12.2-2.5,17.9-1.1C1256.7,2732.2,1258.2,2738.6,1262.2,2745.5z"/>
</svg>
