<?xml version="1.0" encoding="utf-8"?>
<!-- Generator: Adobe Illustrator 24.3.0, SVG Export Plug-In . SVG Version: 6.00 Build 0)  -->
<svg version="1.1" id="Layer_1" xmlns="http://www.w3.org/2000/svg" xmlns:xlink="http://www.w3.org/1999/xlink" x="0px" y="0px"
	 viewBox="0 0 4000 4000" style="enable-background:new 0 0 4000 4000;" xml:space="preserve">
<path d="M1488.6,960.7c-10.1-6.8-17.9-12.2-25.9-17.3c-37.2-23.9-66.4-55.3-89.7-92.9c-23.3-37.7-48.2-74.3-72.4-111.5
	c-3.1-4.8-6.2-9.8-8.7-15c-13.8-27.7-10.3-44.1,14.5-62.7c8.4-6.3,17.8-12,27.6-15.4c73.2-25.5,148.1-34.8,224.9-19.1
	c36.4,7.4,69.5,22.7,100.3,43.3c6.3,4.2,12.7,8.2,21.7,14.1c58.5-89.9,142.5-134.9,247.5-138.3c104.5-3.4,192.5,32.8,260.3,118.7
	c7.9-3.1,16.7-6.1,25.2-10.1c115.4-53.9,260.9-32.4,354.3,52.9c12,11,22.2,24.1,32.2,37c10,12.9,18.9,26.7,29.9,42.3
	c10.3-2.5,21.3-5.2,32.2-7.9c112.4-28.1,216.2-10.1,310.3,58.2c38.3,27.7,66.6,64,87.5,106.2c4.7,9.5,9,19.1,14.5,30.9
	c9.5-0.6,19-0.8,28.3-1.8c135.2-15.2,249.4,48.1,303.2,173.1c13.9,32.2,29.8,41.8,64.7,44.7c90.4,7.6,165.2,50.5,220.7,123
	c32,41.8,55.1,88.5,60.5,142.1c10.9,108.8-22.7,197.6-117.8,257.9c-16.3,10.3-32.8,20.5-50.3,28.5
	c-71.9,32.6-104.7,90.9-111.3,166.6c-12.1,138.4-26.9,276.7-52.2,413.3c-16.1,87.1-35.9,173.8-59.4,259.3
	c-25.8,93.7-42.9,108.9-133.5,144.2c-143.1,55.8-290.4,98.3-438.7,137.4c-210.8,55.6-423.9,101.2-637.5,144.1
	c-212.6,42.7-425.5,84.2-638.6,124.7c-115.5,21.9-231.7,40.7-347.5,60.7c-143.4,24.8-286.6,51.4-430.4,73.5
	c-97.1,14.9-195.1,25.2-293,34c-33,3-67.6-1.6-100.3-8.5c-50.3-10.6-81.2-45-88.6-95.5c-9.7-66.7-19.5-133.8-22-201
	c-6.5-171.6-8.8-343.4-13.1-515.2c-0.8-32.7-3.6-65.4-4.8-98.2c-1.8-47.4,12.3-90,43.6-125.5c43.3-49.2,87.2-98,132.9-145.1
	c160-164.9,328.9-320.6,498.3-475.7c101-92.5,203.5-183.4,305.8-274.6c11.1-9.9,15.5-20.7,16.9-34.9c7.5-75,30.1-145.1,70.3-209.3
	c44.7-71.5,107-120.6,187.1-147.1C1474.1,967,1480.1,964.1,1488.6,960.7z M312.4,3111.2c22.4,0.8,44.4,2.5,66.4,2.2
	c75.6-0.9,149.8-14,223.7-27.6c162.1-29.8,324-60.8,485.8-92.5c194.9-38.1,389.6-76.7,584.2-116.3
	c170.9-34.8,341.6-70.9,512.2-107.5c248.9-53.4,496.4-112.2,741.9-179.5c54.8-15,109.1-32.3,164-46.9c37.2-9.9,60.8-30.9,69.4-69
	c6.8-30,17.6-59.3,22.6-89.6c10.5-63.7,19.9-127.6,26.9-191.8c11.6-106.5,19.6-213.3,18.9-320.6c-0.1-9.4-1.3-18.7-2-27.6
	c-18.3-6.4-33.2-1.5-47.5,3.6c-61.7,22.1-124.7,41.3-184.3,68.2c-92.3,41.7-188.8,60.1-288.7,65.8c-106.3,6.1-210.7,23.4-313,53.2
	c-136.2,39.6-274.2,71.3-413.6,97.4c-109.8,20.6-219.2,43.8-328.6,66.7c-99.1,20.8-198.7,38.5-299.4,49.9
	c-67,7.6-134.1,15.2-200.8,25.3c-98.5,14.9-193.6,44-288.5,73.3c-107.2,33-215.7,58.5-327.6,69.5c-54.6,5.4-109.1,12.9-163.3,21.9
	c-28.2,4.7-55.5,14.7-84.6,22.6c0,13.4-0.2,23.8,0,34.3c1.8,76.2,3.6,152.4,5.4,228.7c2.4,100.3,4.4,200.7,7.7,301
	C300.7,3053.6,301.7,3081.7,312.4,3111.2z M315.1,3149c-6.9,40.4,13.1,72.6,49.9,77.9c22.7,3.3,46.2,4.3,69.1,2.8
	c131.1-8.4,260.5-30.7,389.9-51.7c132.3-21.5,264.2-45,396.1-68.6c172.7-31,345.4-61.9,517.7-94.8c153.4-29.3,306.4-60.4,459.3-92.3
	c199.1-41.5,398-84.2,594.5-137.2c138.7-37.5,276.1-79,411-129c50.9-18.9,77.6-50.1,92.6-100.3c38.6-128.9,62.1-260.7,79.1-393.8
	c11.4-89,19.3-178.4,29.1-267.5c10-91.2,51.6-162.4,132.7-208.6c24.3-13.8,49.1-27.1,71.9-43.3c58.7-41.7,83.4-100.2,75.4-170.8
	c-9.3-81.9-55-141.4-125.8-180.2c-68.4-37.5-140.7-46.1-214.4-14.4c-43,18.5-75.4,49.6-100,89.2c-4.6,7.3-10,16-20.6,10.4
	c-10.1-5.3-11.3-15.1-7.9-25.1c1.9-5.4,4.6-10.7,7.9-15.4c24.9-36.4,55.5-66.2,95.3-86.7c13.6-7,37.4-4.1,38.8-24.2
	c1.1-15.2-8.1-31.2-12.7-46.8c-0.3-0.9-0.7-1.8-1.1-2.7c-58.5-139.2-228.5-180.2-344.3-83.3c-36.3,30.4-63.4,67.2-81.4,110.9
	c-3.6,8.8-8,15.8-19.1,12.7c-12.9-3.7-13-14-9.4-23.3c7-17.9,14.2-36,24.3-52.2c23.1-37.1,51-70.4,88.8-93.8
	c9.9-6.1,17.7-12.9,11.4-25.5c-14.6-29.3-25.8-61.2-45.3-86.8c-47.2-61.9-113.2-91-190.3-95.4c-110.9-6.3-191.9,40.5-242.5,139
	c-11,21.4-18.7,44.4-28.5,66.4c-4.6,10.4-2.7,27.6-21.5,25.1c-12.9-1.7-15.8-10.5-9.2-33.4c18.3-64.2,47.2-122.3,98.9-166.8
	c4.3-3.7,7.7-8.3,11.1-12c-37.3-97.1-123.2-160.8-224.2-160.6c-143.6,0.3-233.9,71.2-263.9,212.8c-27.5-3-30.6-6.1-27-27.3
	c1.6-9.4,4.6-18.7,7.9-27.7c16-43.8,37-84.6,73.8-117c-7.2-12-12.8-23.2-20-33.2c-52.7-73.8-167.2-108.7-260.4-81.5
	c-62.9,18.4-105.8,61.5-143.6,111.4c-4.1,5.4-6.6,15.3-4.6,21.3c5.9,17.5,14.4,34.2,22.3,52c4.3-3.6,6.2-4.6,7.2-6.1
	c13-20.3,25.1-41.2,39-60.9c15-21.2,30.1-42.7,47.8-61.6c24.5-26.3,46.6-27.2,74.2-7c40.8,30,42.2,67.7,3.6,100.8
	c-5.1,4.4-11,8-15.7,12.8c-16.6,17.4-34.8,33.7-48.7,53.1c-31.1,43.5-51.6,92.5-68.8,142.9c-2,5.8-1.7,12.4-3,23.2
	c25.8-6,48.3-10.1,70.2-16.4c125-35.8,248.2,28.8,302.8,125.5c8.9,15.8,21.2,22.7,38.6,26.3c40.6,8.2,81.8,15.4,120.9,28.7
	c95.8,32.4,190.9,67.1,285.7,102.6c100.8,37.8,194.8,88.3,281.7,152.2c35.7,26.2,74.4,48.3,111.3,72.9
	c53.7,35.9,107.8,71.2,160,109.2c23.1,16.8,44,37.7,62.5,59.6c21,24.8,15.6,48-11.8,65.4c-8.8,5.6-19,9.3-29,12.9
	c-75.4,26.8-151.3,52.2-226.3,80.1c-91.1,33.9-185.2,51.7-281.8,60.4c-98.9,8.9-197.2,23-293.5,48.8c-79.2,21.2-158,44.2-238.2,60.6
	c-184.1,37.8-368.8,72.8-553.5,107.5c-84.3,15.9-169.1,29.3-253.9,42.4c-114.4,17.6-228.3,37.2-339.8,68.8
	c-142,40.3-285.9,72.3-431.7,95.8c-85.6,13.8-170.9,29.6-256.4,44.2c-9.1,1.6-18,2.8-18.6,14c-1.1,18.7-4.3,37.7,2.9,56.5
	c5.7-0.7,9.6-0.6,13.2-1.7c63-19.8,127.9-28,193.3-34.5c123.1-12.2,244.3-34.3,362.1-73.3c135-44.7,272.9-75.2,414.6-90.2
	c98.7-10.5,197.1-25.2,294.7-43.3c139.3-25.8,277.4-58.1,416.7-84.2c115.7-21.7,231.2-44,343.9-77.8c129.9-39,261.9-64.5,397.6-71.5
	c96.3-4.9,188.2-28.5,276.5-67.8c48.3-21.5,98.6-39,148.8-55.8c24.4-8.2,50.5-12.4,76.2-15.2c20.6-2.3,28.4,4.5,32.8,24.5
	c3.5,15.9,5.7,32.5,5.3,48.7c-1.5,67.5-1.2,135.3-7.3,202.4c-8.8,96.9-20.4,193.8-35.3,290c-7.3,47.2-23.8,93.2-38.1,139.2
	c-8.2,26.3-27.6,43.7-53.9,52.7c-10,3.4-20,7.2-30.2,10.1c-89.1,25.1-177.7,52.1-267.4,74.7c-178.5,44.9-357,90.4-536.7,130.1
	c-228.6,50.6-458.4,96.1-687.8,143.3c-146.3,30.1-292.6,60.1-439.3,88.6c-191.1,37-382.4,72.8-573.8,108.3
	c-84.4,15.7-169.2,29.1-255.6,26.6C327.7,3146.7,321.1,3148.3,315.1,3149z M301.2,2313.5c1,1.6,2.1,3.3,3.1,4.9
	c14.9-2.6,29.8-5.1,44.6-8c46.3-9.1,92.3-21.1,139-27.2c152.3-20.2,302.2-51.6,449.8-93.7c161.8-46.1,327.3-72.6,493-98.7
	c76.2-12,152.2-25.3,227.9-39.6c85.2-16.2,169.8-36.2,255.2-51c104.5-18.2,209.1-36,311.4-64.2c153.7-42.4,308.7-76.6,468.2-88.8
	c62.4-4.8,124.8-14.2,184.4-34.6c95.7-32.8,190.8-67.5,286.1-101.7c9.6-3.4,18.5-9,31.4-15.4c-9.4-11.6-15.1-21.9-23.5-28.6
	c-40.7-32.5-80.7-66.2-123.6-95.5c-70.8-48.4-144.5-92.6-215.4-141c-58.4-39.9-119-75.2-184.2-102.6c-32-13.5-64.4-25.9-96.4-39.4
	c-106.8-45.1-215.9-83.2-329.4-108c-10.9-2.4-22.1-3.6-38.8-6.4c28.7,72.3,26.8,143.4,25.2,214.7c10.5,1.4,17.1,2.3,23.7,3.1
	c54.2,6.9,105.5,23.1,153.1,49.8c53.4,29.9,80.2,86.3,66.8,140.9c-8.8,35.8-28,66.6-59.4,86.2c-29.3,18.2-61,32.7-92.2,47.5
	c-14.7,6.9-31.1,10.2-46.5,15.8c-22.9,8.2-23.3,8.4-22.3,33.2c1.3,29.7-8.5,55.4-28.8,76.3c-10.6,10.9-23.2,20.5-36.4,28.1
	c-61.2,35.1-127.9,48.3-197.6,44.8c-46.2-2.3-92.2-8.4-138.2-13.4c-61.7-6.7-118.7,6.7-172,38.1c-28.3,16.6-56.6,33.3-86.1,47.5
	c-46.6,22.3-95.8,36.2-147.9,35.2c-56.4-1.1-103.5-22.6-135.8-70c-14.2-20.8-32.1-29.4-56.3-27.3c-9.6,0.8-19.4,0.9-28.7,3
	c-41.3,9.4-82.4,20.2-123.8,29c-38.2,8.2-76.6,10.1-114.1-4.3c-50.3-19.4-76.1-64.8-66.4-117.6c8-43.9,29.8-81.1,58.3-114.8
	c51.3-60.6,115.2-105.3,184.4-142.6c33-17.8,67.8-32.4,101.7-48.6c10.4-4.9,22.8-8.7,19.3-24.4c-6.8-30.4-14-60.8-21.9-95.4
	c-13.2,11.8-22.6,19.9-31.7,28.2c-123.3,112.5-247.8,223.7-369.5,338c-132.2,124.2-262.4,250.6-392.2,377.3
	c-45.5,44.4-87.5,92.5-130.9,139.1C311.3,2297.9,306.6,2306,301.2,2313.5z M1688.2,1050.1c-26.8-5.8-51.9-12.2-77.4-16.5
	c-72.8-12.1-140.2,1.3-200.1,45.8c-82.6,61.3-118.1,147.8-128.2,246.4c-7.7,75,3.3,148.3,30.8,218.7c24.4,62.5,55,121.4,103.2,169.2
	c60,59.4,130.7,83.2,211.4,50.9c59.4-23.8,115.8-26.7,177-6.4c60.7,20.2,122.1,14.6,178.5-19.5c35.3-21.4,63.5-50.9,86.2-84.6
	c76.5-113.8,117.9-238.3,106.3-376.7c-5.8-68.8-29.6-132.3-76.3-184.1c-56.1-62.1-126.1-90.5-210.6-74.3
	c-32.2,6.2-64.2,13.3-96.2,20.3c-28.1,6.2-28.4,6.7-29.3,36.3c-0.3,9.1,0.3,18.1,0.5,30.9c18.9-7,32.9-13.4,47.5-17.1
	c8.7-2.2,19.2-2.4,27.4,0.5c11.4,4,12.4,14.8,3.7,22.9c-3.5,3.2-7.8,5.7-12.2,7.6c-70.6,29.7-141.8,34.5-213.5,4.2
	c-4.4-1.8-10.5-3.9-11.9-7.4c-2.8-7.4-4.9-16.2-3.4-23.7c0.5-2.5,12.9-4.5,19.4-3.5c8.4,1.3,16.1,6.3,24.4,8.8
	c13.4,4,27.1,7.1,42.7,11.2C1688.2,1088,1688.2,1070.2,1688.2,1050.1z M1280,1552.6c-31.3,13.3-59.2,24-86.1,36.6
	c-86.5,40.8-163.9,94-224.6,169.2c-22.8,28.3-39.1,59.4-39.2,97.3c-0.1,24.4,10.1,42.8,30,55.9c26.4,17.4,55.9,20.7,86.2,16.1
	c21.9-3.3,43.4-9,65-13.6c33-7,65.8-14.7,98.9-21c46.2-8.7,83.6,4.4,109.4,45.8c18.7,30,48,45.1,81.9,48c24.7,2.1,50.2,0.6,74.7-3.3
	c53.2-8.6,99.6-34.5,146.2-60.4c32.6-18.1,67.5-33.2,102.8-45.1c52.6-17.6,106.8-10.4,160.6-3.3c49.8,6.5,99.6,12.1,149.8,3
	c42-7.6,83.2-16.9,119.7-40.3c31.4-20.1,54-44.5,41.4-85.9c-0.6-1.8-0.4-3.8-0.5-5.8c-1.1-22.6,2.6-29.4,23.8-37.1
	c22.6-8.2,45.8-15,68.6-22.8c36.9-12.6,72.3-28.5,99.3-57.3c12.8-13.7,24.9-30.4,30.4-47.9c13.6-42.9-3.7-82.2-44.7-109
	c-50.7-33.1-108.3-42.9-169.7-50.1c-5.7,20.5-10.9,39.8-16.5,58.9c-26.5,89.8-64.5,173.5-130.5,242c-55.5,57.5-123.1,86-203,79.1
	c-31.4-2.7-62.5-11.6-93.1-19.8c-27-7.3-52.8-8.6-79.3,1.7c-17.9,7-36.4,12.7-54.9,18.2c-69.3,20.7-133.7,9.9-192.4-32
	c-56.3-40.2-95.9-94.3-125.5-156.2C1299.6,1594.4,1290.7,1575.4,1280,1552.6z M1723.4,881.8c0-12.8,1.4-19.8-0.2-25.8
	c-11.4-41.6-28.8-80.5-63.8-107.4c-82.5-63.5-174.7-75.8-273.5-47.7c-7.5,2.1-14.1,7.2-20,10.4c22.9,35.4,43.8,67.6,64.5,100
	c69.3,108.5,158.8,122.3,262.1,107.5c3.4-0.5,6.5-2.9,11-5.1c-2.4-4.5-3.5-8.4-6-10.8c-64.6-61.6-132.8-117.7-222.5-139.5
	c-7.4-1.8-15.5-3.7-21.4-8.1c-4.5-3.4-8.9-11.5-7.8-16.2c0.9-4,9.5-8.1,15.1-8.7c6.3-0.7,13.2,2,19.6,4.1
	c79.7,26.1,152.1,64.9,213.3,123.2C1701.7,865.2,1710.7,871.5,1723.4,881.8z M1881.8,749.6c-34-25.8-40.4-25-60.2,5.6
	c-11,17-21.6,34.2-31.6,51.8c-49.8,87.8-68.7,183.3-70.3,283.1c-0.1,4.4,3.1,8.8,4.8,13.2C1750.9,973.4,1786,849.1,1881.8,749.6z
	 M1906.3,729.5c0.8-16.2-16.2-32.6-28.8-32.5c-10.5,0.1-15.9,6.4-17.1,16.1c-1.2,9.8,14.9,26.1,27.2,25.3
	C1894.7,738,1901.4,732,1906.3,729.5z"/>
<path d="M3567.9,1424.2c-153.8,3.6-216.9,102.5-243.7,236.7c-24.8,1.1-26.7-0.4-26.3-18.8c2.3-95.6,85.2-208.5,177-237
	c22.4-6.9,47.4-7.1,71.2-7.3C3564.3,1397.6,3567.3,1403.1,3567.9,1424.2z"/>
<path d="M2578.8,1063.2c1.4-10,0.5-22,4.8-31.7c27.2-60.5,69.9-105.8,132.9-129.9c1.8-0.7,3.6-1.5,5.4-2c17.2-4.9,26-2.4,29,8.8
	c4,14.9-7,17.8-17.4,21.2c-58.9,19.5-96.2,62.1-122.7,115.8C2604.8,1057.8,2601.4,1072.4,2578.8,1063.2z"/>
<path d="M3109.4,1108.4c-4.6,5.1-7.5,10.5-12.1,12.9c-49.1,25.9-81.1,66.3-100.8,117.4c-3.4,8.7-8.7,15.3-19.6,11.8
	c-10.3-3.4-12.5-10.9-10-20.6c1.5-5.6,2.3-11.4,4.6-16.6c21.8-48.5,54.5-88,100.3-115.5c7-4.2,17.8-3.9,26.5-2.9
	C3102.2,1095.4,3105.2,1102.9,3109.4,1108.4z"/>
<path d="M2286.8,795.6c-61.5,30.1-84.9,85.3-100,144.6c-24.5-2.8-28.3-5.3-24.8-22.8c3.6-17.7,9.5-35.3,17.1-51.6
	c15.6-33.5,36.6-63.5,66.9-85.5C2264.9,766.6,2272.9,769.6,2286.8,795.6z"/>
<path d="M2114.8,1272.5c-0.5,5.1-0.9,11.9-1.8,18.5c-3.8,26.8-16.1,40.4-38.6,43c-30.2,3.6-47.6-5.4-58.1-31c-4-9.7-6.5-20.1-9-30.4
	c-8.3-33.9-24.4-62.6-53.2-83.3c-4.7-3.4-9.1-7.2-13.2-11.2c-19.4-18.9-24.5-39.6-14.9-59.8c10.4-21.9,34.3-34.5,59.7-31.2
	c24.7,3.2,45.7,14.3,64.1,30.7C2085.6,1149.9,2116.4,1222.5,2114.8,1272.5z M2084.8,1268.7c-2.7-45.6-17.3-85.5-47.4-119.1
	c-14.7-16.4-33.4-26.8-55.1-28.6c-8-0.7-19.1,4.4-24.6,10.6c-7.7,8.8-0.2,17.9,6.6,25.1c3.3,3.5,6.8,6.9,10.5,9.9
	c36.5,28.8,56.5,67.4,66.4,111.9c1,4.7,0.9,10.4,3.6,13.8c4.3,5.4,10.1,12.3,16,13.3c9.9,1.5,19.1-3.5,21.5-14.8
	C2084,1283.3,2084.1,1275.5,2084.8,1268.7z"/>
<path d="M1927.4,1502.1c-0.2,26.7-24.8,51.7-51.5,52.2c-28.7,0.5-50.7-21.7-50.7-51.2c-0.1-28.7,22.5-53.1,49.4-53.5
	C1904.8,1449.1,1927.6,1471.8,1927.4,1502.1z"/>
<path d="M1524.9,1565.9c-21.6,4.3-45.5-23.4-45.6-49.4c0-24.7,21.1-47.7,44.5-47.7c26.2,0,48.6,21.1,49.5,46.8
	C1574.3,1542.4,1552.1,1565.5,1524.9,1565.9z"/>
<path d="M1767.1,1524.6c2.6,8.4,8.6,17.5,7.1,25.1c-5.7,28.2-17.5,53.4-47.9,63.4c-29.4,9.7-56.7,3.5-76.4-19.4
	c-11.3-13.1-16.5-31.8-22.9-48.6c-1.3-3.5,4.2-9.6,6.5-14.4c5.3,2.9,12.3,4.6,15.6,9c5.1,6.8,6.8,15.9,11.4,23.1
	c11.2,17.6,27.4,26.7,48.7,24.7c21.7-2,30.8-17,36.6-35.7c3-9.4,7.3-18.4,11-27.6C1760.4,1524.4,1763.8,1524.5,1767.1,1524.6z"/>
<path d="M2051.2,1358.3c5.6,10.5-0.4,28.5,18.4,25.3c17.8-3,11.1-16.5,8.1-27.1c29.9-4.4,38.9,5.6,29.7,31.3
	c-5.9,16.6-17.1,27.6-34.3,31.6c-16.9,4-35.6-4.7-41.4-18.4C2025.1,1385.7,2031.6,1370.7,2051.2,1358.3z"/>
<path d="M1908.8,1611.5c0-10.3,0-20,0-29.8c-1.5-0.6-3-1.2-4.5-1.8c-8.7,12.2-17.4,24.5-27.2,38.3c-14.5-33.2-0.4-46.4,53.2-54.7
	C1942.9,1587.8,1935.7,1605.6,1908.8,1611.5z"/>
<path d="M1492.8,1582.4c6.2,31.7-1.8,45.9-25.9,49C1463.5,1605.8,1471.2,1590.1,1492.8,1582.4z"/>
<path d="M1464.1,1584.6c-9.7,19.9-10.9,42.1-35.5,50C1425.9,1598.9,1436.7,1582.7,1464.1,1584.6z"/>
<path d="M1972.4,1560.9c3.4,25.5-2.9,39.2-22.8,49.7C1940.1,1585.1,1948.5,1566.8,1972.4,1560.9z"/>
<path d="M1513.3,1631.1c-10.1-31.2-7.2-39,15.9-46.7C1536.4,1604.7,1534.7,1610,1513.3,1631.1z"/>
</svg>
