<?xml version="1.0" encoding="utf-8"?>
<!-- Generator: Adobe Illustrator 24.3.0, SVG Export Plug-In . SVG Version: 6.00 Build 0)  -->
<svg version="1.1" id="Layer_1" xmlns="http://www.w3.org/2000/svg" xmlns:xlink="http://www.w3.org/1999/xlink" x="0px" y="0px"
	 viewBox="0 0 4000 4000" style="enable-background:new 0 0 4000 4000;" xml:space="preserve">
<path d="M2118.3,427.3c179.1-93.7,423.8-44.8,530.7,157.9c100.4-31.2,201.4-32.3,300.2,9.4c100.3,42.3,167.1,116.8,204.1,222.3
	c11.3-1,22.4-1.7,33.3-3c151.1-17.3,324.1,75.3,377.2,240.8c7.4,23.1,20.1,30.3,43.1,35.4c101.5,22.6,181.5,78.1,237.7,166.1
	c27.9,43.7,49.3,90.3,57,142.1c17.8,120-21,218.6-114.9,294.3c-31.9,25.7-68.7,45.1-102.5,68.5c-30,20.7-60,41.7-88,65
	c-33.4,27.8-54.7,64.7-64,107.1c-15.6,71.4-30,143-43.5,214.8c-43.7,232.3-86.7,464.8-130.1,697.1c-2.5,13.5-6.5,26.6-9.1,40.1
	c-11.8,61.1-47.1,100.8-104.8,125.2c-117,49.6-237.5,88.3-359.8,122c-248.9,68.6-500.9,123.8-754.7,171.1
	c-159.3,29.7-319.3,55.8-479.1,83.1c-128.3,21.9-256.3,45.5-385.1,64.2c-181.9,26.5-364,51.8-546.6,72.6
	c-128.1,14.6-257.1,22.5-386,30.1c-41.7,2.5-84.7-1.6-125.9-9.3c-99.9-18.9-146.1-95.8-116.9-193.2c8.9-29.7,12.3-56,0.5-86
	c-8.1-20.6-10.2-45-9.4-67.4c6-169.4-10.6-337.9-16.5-506.8c-1.8-52.5-2-105.1-4.5-157.6c-2.1-44.7,5.5-87.9,29.1-125
	c47.2-74.1,94.2-148.9,148.4-217.8c264.6-335.8,542-660.6,837.8-969.6c117.8-123.1,240.4-241.1,367.2-354.7
	c18.6-16.6,21.8-32.3,19-56.7c-13.9-120.7-0.1-238.3,61.6-344.8c61.7-106.5,158.8-162,280.9-170.5c121.4-8.5,224.7,30.5,304.1,125.5
	C2111.1,422.1,2114.1,423.9,2118.3,427.3z M1333.9,1300.2c6.7-14,12.9-28.3,20.3-42c7.1-13,21.1-22.1,22.1-39.7
	c-25.2,18.2-47.9,38.4-69.3,60c-47.7,48.3-87.7,102.3-117,163.7c-10.9,22.9-8.1,29.7,15.3,39c8.8,3.5,18.9,4.1,29.4,6.3
	c3-8.8,5.6-14,6.5-19.4c9.8-54.6,37.5-99.9,72.4-141.7c7.3-8.7,13.6-18.2,20.3-27.3c13.8,5.5,20.7-5.4,29.4-12.3
	c29.5-23.3,58.5-47.4,89-69.4c19.9-14.3,41.7-26.6,69.8-22.7c-6.3,10.8-14.1,19.6-23,27.1c-33.2,27.9-67.9,54.2-99.8,83.5
	c-29.4,26.9-58.3,55.1-82.7,86.3c-14.8,19-23.4,44.1-29.9,67.8c-5.4,19.4,4.8,29.2,24.7,25.1c25.5-5.2,51.5-11.9,74.9-23
	c45.3-21.6,90.3-44.5,132.8-71c88-54.9,164.9-122.4,222.1-210.3c15.2-23.4,26.2-48.3,28.3-76.2c2.6-34-14.7-51.8-48.4-51
	c-5.7,0.1-11.6,0.4-17,1.9c-97.4,28.2-189.6,66.7-264.2,138.3C1403.7,1228,1369.2,1264.5,1333.9,1300.2z M150.6,2518.6
	c-1.4,10.3-3.5,18-3.4,25.6c1.4,90.2,2.7,180.5,4.9,270.7c2.7,109.6,5.9,219.1,9.6,328.7c1.2,35.3,3,70.8,7.7,105.7
	c4.3,32.3,13.8,41.6,46.7,44.4c34,2.9,68.7,4.2,102.6,0.7c187.3-19.5,374.7-39,561.6-61.9c159.7-19.5,319-42.5,478.2-66
	c149-22.1,298.2-43.7,446.2-71.3c282.6-52.7,564.6-109.1,842.6-183.2c121.3-32.3,242.1-65.7,360.5-108
	c60.8-21.8,98-59.7,111.2-122.2c0.5-2.2,1.6-4.3,2-6.5c15.2-76,33.5-151.6,44.6-228.2c18-123.1,32.6-246.7,46-370.4
	c10-91.9,16-184.3,23.4-276.4c0.9-10.6-0.5-21.3-0.9-34.1c-68.7,16.3-132.7,33.1-197.3,46.5c-63.3,13.2-122.3,34.6-177.9,68.4
	c-25.6,15.6-56.7,23.8-86.5,30.2c-28.8,6.1-59,6.7-88.6,7.5c-60.1,1.7-114.4,17.2-160.6,58c-27.6,24.3-59.7,42.4-95.8,51.6
	c-122.9,31.4-246.3,61.3-374.1,60.5c-72.4-0.5-137.4,16.6-195,61.7c-30,23.5-64.5,40.8-102.4,45.2c-47.4,5.5-95.4,6.8-143.1,9.1
	c-35.3,1.7-71-0.1-106,3.7c-45.4,4.9-83.7,28.6-121.1,53.2c-50.5,33.3-105,57.5-166.6,54.4c-74.6-3.8-140.7,15.4-204.7,54.1
	c-76.4,46.2-161.6,67-251.3,70c-46.9,1.6-89.8-14.9-134.3-24.1c-22-4.6-43.1-5.2-63.8,3.2c-29.6,12.1-59.3,23.8-88.1,37.7
	c-44.3,21.4-88.5,43.9-138,49.4c-46.5,5.2-93.3,6.6-140,9.5C183.1,2516.9,167.4,2517.6,150.6,2518.6z M3497.9,1116.3
	c-24.5-93.5-78.2-157-160.2-195.2c-88.9-41.4-221.7-40-301.6,55.1c-18.2,21.7-32.6,46.6-48.3,70.3c-6.1,9.1-12.6,17.5-24.6,13.1
	c-11.9-4.3-13.6-15.4-10.4-25.8c3.7-11.9,8.5-23.7,14.8-34.3c24.8-42,58.2-76.2,99.5-102.2c11.5-7.2,20.4-14,15.3-29.8
	c-22.2-67.9-54.8-128.9-117.8-167.2c-70.4-42.8-146.5-63.3-229.5-49.3c-80.4,13.7-146.9,50.4-189.4,122
	c-17.9,30.2-30.9,63.4-46.1,95.2c-5.6,11.6-6.3,29-26.2,24.8c-13.7-2.8-16.9-14.2-11.4-37.5c1-4.4,2.6-8.8,4.1-13.1
	c20.5-61.9,52.1-116.9,102.9-158.9c14.9-12.3,18.9-24.6,10.2-41.5c-20.4-39.9-42.8-78.6-78.1-107.3
	c-123.5-100.3-283.9-84.2-396.9,9.8c-22.9,19-40,46.9-54.3,73.7c-13.2,24.8-19.1,53.5-28.3,80.4c-2.8,8.2-5.9,16.4-8.7,24.2
	c-31.1-6.8-32.3-7.5-28-32.9c9.9-57.3,31.7-109.3,69-154.6c19.7-24,19.5-25,0.2-49.5c-44.7-56.6-99.1-97-173.1-107
	c-112.5-15.2-205.6,16-272.2,111.5c-11.7,16.7-22.6,34.8-29.6,53.8c-31.5,85.8-47.4,173.9-31.7,265.6c4.7,27.4,5.7,28.4,33.9,34.5
	c7.8,1.7,15.6,3.6,23.6,4.3c26.1,2.3,52.3,4.9,78.5,5.9c33.1,1.2,66.3,0.9,99.4,1.3c73.8,0.9,142,18,202.3,63.4
	c56.7,42.8,121.3,68.2,191.7,77.8c30.5,4.1,61.6,4.6,92,9.2c36,5.4,72.2,11.1,107.2,20.9c72.7,20.3,135.8,60,193.1,107.8
	c42.1,35.1,89.8,55.1,142.6,61.4c67.7,8.2,118.9,38.5,160.2,93.4c50.3,66.8,113.6,118.6,197.6,139.8c14.3,3.6,27.9,10.1,41.3,16.4
	c29.3,13.9,55.8,32.1,74,59.4c31.1,46.5,61.1,93.7,91.3,140.8c12.5,19.6,15.8,41.1,5.3,62c-12.4,24.7-14.6,49.7-10,76.4
	c1.9,11.1,1,22.8,0.3,34.2c-14.6,245.4-41.9,489.4-86.4,731.2c-12.6,68.2-33.9,134.9-53,201.7c-9.3,32.4-32.1,54.6-63.7,67.4
	c-22.2,9-44.1,18.9-66.5,27.4c-110.1,41.8-224,71.2-337.7,100.9c-197.7,51.7-396.6,97.8-597.2,136.9
	c-107.5,20.9-214.9,42.8-322.9,61.1c-126,21.4-252.4,40.5-378.9,58.5c-190.9,27.2-382,53.3-573.2,78.7
	c-108.6,14.4-217.3,28.8-326.3,39.1c-88.4,8.3-176.9,23.9-266.3,13.1c-13.2-1.6-22.8,2.1-26.5,15.5
	c-19.9,73.2-11.3,101.5,63.1,117.2c7.8,1.6,15.9,2.1,23.9,2.2c30.8,0.2,61.8,1.7,92.5-0.4c86.6-6.1,173.3-11.7,259.5-21.1
	c164.6-18,329.2-36.3,493.1-58.8c156-21.5,311.6-46.5,466.7-73.6c233.8-40.9,467.4-83.7,700.6-128c205.3-39,408.3-88.1,609.6-143.8
	c112.2-31.1,223-66.8,330-113.3c29.6-12.8,49.5-31.1,55.8-63.6c3.9-20.1,11-39.7,14.7-59.8c39.1-213.3,77.1-426.9,116.9-640.1
	c16.3-87.5,34.3-174.7,54.8-261.3c14.9-62.7,48.8-116.2,99.7-156.1c39.4-30.9,82.1-57.7,123.3-86.2c26.2-18.2,55-33.6,78.3-54.9
	c56.3-51.6,77.6-116.8,63.9-192.3c-18.8-103.3-80.4-175.6-171-222.8c-108.9-56.8-224.1-38.9-296.6,39.3
	c-9.5,10.2-20.6,24.8-37.3,11.2c-9.9-8.1-6.1-22.4,8.7-38.8c3.1-3.4,6.5-6.4,9.8-9.6c36.7-36.6,81.7-57.7,131.4-70.1
	C3474.3,1122.6,3484,1120,3497.9,1116.3z M149,2470.9c55.4,0,103.2,0.4,150.9-0.1c51.6-0.5,98.3-18.1,143.3-41.7
	c23.2-12.2,47.2-22.9,71.2-33.7c45.3-20.3,91.6-24.8,140.3-12c29.6,7.8,60.6,15.1,90.9,14.9c88-0.6,173.4-18.1,248.9-64.6
	c61.4-37.9,124.4-59.6,197.2-54.9c63.4,4.1,122.2-12.6,173.5-52c6.3-4.8,13.5-8.5,20.3-12.7c38.4-23.7,79.7-40.8,124.9-43.8
	c48.9-3.2,98.1-2.5,147.1-4.2c26.2-0.9,52.6-1.5,78.4-5.3c44-6.5,81.4-29.2,117-54.4c47-33.2,97.9-51.3,156.3-52.8
	c110.9-2.8,220.2-17.4,328.5-44.1c70.2-17.3,134.5-42.1,191.2-87.1c29.4-23.3,63.9-35,101.1-38.6c28.4-2.8,56.9-5,85.3-6.7
	c50.8-3,99.5-12.3,142.8-41.5c38.4-25.9,81.9-40.1,126.3-51.4c52-13.3,104.4-24.7,156.3-38c29.8-7.6,59.8-15.3,88.2-26.6
	c28.3-11.3,31.9-24.5,16.5-51c-15-25.6-35.5-48.2-48.2-74.7c-35.7-74.6-95.6-116.2-173-138.8c-70.3-20.5-126.8-63-168.5-122.9
	c-41.2-59.2-95.4-92.7-167.6-99.1c-46.5-4.1-87.8-23.5-125.1-51.6c-25.5-19.3-50.9-38.8-77.4-56.7c-64.4-43.7-134.6-71.8-212.9-78.5
	c-43.2-3.7-86.8-6.5-129.2-14.9c-66.7-13.2-128.7-40-184.1-79.9c-47-33.9-98.1-52.9-156.5-50.9c-8,0.3-16-0.7-24-0.9
	c-69.6-1.6-139.5,1.7-207.8-16.5c-14.5-3.9-25.8,1.1-36.7,12.1c-22.5,22.7-46.6,43.8-69.7,65.9c-10.9,10.5-20.8,21.9-31.2,32.9
	c1.5,1.9,2.9,3.9,4.4,5.8c26.1-10.7,52.1-21.7,78.4-32c42.9-16.8,86.8-28.7,133.6-23.4c28.6,3.2,48.9,17.5,59.1,44.9
	c2.7,7.3,5.4,14.7,8,22c12.5,2.4,23.7,4.4,34.7,6.7c24.6,5.1,42.1,20.3,48.2,43.8c5,19.3,8.5,41.4,4.1,60.3
	c-6.6,28.5-17.9,56.6-31.9,82.4c-27.5,50.7-67.9,91.6-110.2,130.2c-75.9,69.3-164.6,119.1-256.4,163c-37.7,18.1-77.7,34-121.4,32.1
	c-25.1-1.1-50.2-2-75.2-3.5c-20.2-1.2-40.5-6.9-50.4-24.8c-20-36.5-36.8-74.7-54.4-112.4c-2.3-4.9-1.7-11.2-2.7-16.8
	c-1.6-8.6-3.4-17.1-6-30.1c-13.1,9.8-24,16-32.5,24.6c-60.2,60.9-122.6,119.8-179.1,184c-96.5,109.7-188.9,223-283.6,334.3
	c-45.2,53-92.9,103.8-137.4,157.4c-51.1,61.5-100.8,124.2-149.2,187.7c-47.7,62.6-93.6,126.6-139.3,190.7
	C164,2434.9,158.2,2452.3,149,2470.9z M1151.9,1392c7.4-3.7,12.3-4.7,14.9-7.8c14-16.5,28-33.1,40.8-50.5
	c77.2-105.9,173.7-189.9,286.9-255.4c45.7-26.4,93-48.4,144.7-60.1c6.6-1.5,13.5-3.5,19.2-7c10-6.1,9.1-20.3-1.9-24.2
	c-8.3-2.9-18.2-4.4-26.8-3c-25.8,4.1-52.4,6.8-76.8,15.4c-165.3,57.9-295.5,160.4-387.8,310.1
	C1150,1334.1,1143.8,1359.5,1151.9,1392z"/>
<path d="M1267.7,2782c0,53.9-42.6,96.7-97.2,97.6c-53.2,0.9-96.5-43.9-95.7-99c0.8-53.8,45.4-98.7,98.1-98.4
	C1223.4,2682.3,1271.6,2727.2,1267.7,2782z"/>
<path d="M1898.8,2769.5c-55.6-0.5-93.7-40.2-92.7-96.3c1.1-55.5,43.8-97.8,98.1-97.1c54,0.7,94.1,44.5,93,101.7
	C1996.2,2731.5,1954.9,2770,1898.8,2769.5z"/>
<path d="M1624,2873.4c-13.2-3-26.9-4.6-39.4-9.5c-19.3-7.5-33.2-6.9-46.9,12.3c-19.8,27.8-50.3,34.3-82.5,28.5
	c-33-6-48.5-31.3-60-59.7c-1.7-4.1-4.1-9.6-2.7-13c2.8-6.7,6.9-14.5,12.7-17.7c3.5-1.9,12.6,2.5,16.9,6.5c5.6,5.3,8.9,13.1,13,19.8
	c18.3,29.4,44.6,33.8,71.2,11.1c9.5-8.1,17.9-17.6,26-27.1c12-13.9,24.6-19,41.5-7.4c8.4,5.8,17.9,10.2,27.4,13.9
	c31.7,12.4,59-0.6,70.6-33.1c2.7-7.5,2.8-16.4,7-22.7c3.7-5.6,11.9-12.3,17.2-11.6c5.9,0.7,12.3,8.5,15.9,14.6
	c2.5,4.2,1.3,11.2,0.5,16.7C1706.1,2837.6,1667.6,2870.9,1624,2873.4z"/>
<path d="M1051.6,3050.5c-6.6-8.4-13.5-13.5-14.7-19.6c-1.4-7.2,1-15.8,3.8-23c8.1-21.1,17.1-41.9,26.1-62.6c2.2-5.1,4.8-11.4,9.1-14
	c7-4.1,15.5-5.6,23.4-8.2c2.3,8.1,5.5,16.1,6.7,24.3c0.6,4-2.2,8.7-4,12.8c-10.9,23.6-21.6,47.3-33.2,70.6
	C1065.4,3037.1,1059.2,3041.9,1051.6,3050.5z"/>
<path d="M2098.6,2784.9c-13.5,30.6-25.4,59-38.8,86.6c-2.1,4.4-12.6,9.1-16.5,7.4c-6-2.6-11.1-10-13.7-16.5
	c-1.8-4.5,0.4-11.3,2.4-16.5c9.3-23.3,18.8-46.5,28.8-69.4c4.5-10.2,13.2-18.4,24.1-12.9C2091.3,2766.8,2094,2777.3,2098.6,2784.9z"
	/>
<path d="M973.4,3050.7c-4.7-5.7-10.2-10-11.9-15.4c-1.4-4.8,0.7-11.2,2.8-16.3c11-26,22.3-52,33.9-77.7
	c4.5-10.1,12.7-18.7,23.6-11.5c5.6,3.7,10.7,16.6,8.4,22.2c-12.4,30.3-26.8,59.8-41.4,89.1C986.9,3045.1,980,3046.7,973.4,3050.7z"
	/>
<path d="M2005.4,2778c3.5,13.3,10,23.9,7.7,31.7c-8.1,26.9-18.8,53.1-30,78.9c-1.7,3.9-12.2,7.1-17.1,5.7
	c-4.9-1.4-10.6-8.7-11.4-14.2C1951.4,2860,1981.8,2796,2005.4,2778z"/>
<path d="M1179.7,2938.3c-12.2,28.8-23.8,57-36.6,84.7c-1.4,3.1-11.7,5.7-14.4,3.7c-5.7-4-14-13.2-12.6-16.9
	c10.7-28.4,23.1-56.2,36.1-83.6c1.5-3.2,11.4-5.8,14.9-4C1172.2,2924.8,1175,2931.8,1179.7,2938.3z"/>
<path d="M2163,2757c1.5,4.2,5.2,9.1,4,12.4c-9.7,28.8-19.9,57.5-31.1,85.8c-1.4,3.6-9.5,7.2-13.7,6.5c-4.4-0.8-9.7-6.1-11.4-10.6
	c-6.8-17.6,20.4-84.4,38.1-93.7C2152.3,2755.5,2157.6,2757,2163,2757z"/>
<path d="M3614,1297.4c22.2,4.5,44.9,7.4,66.3,14.3c7.4,2.4,16.8,14.8,16.3,22.1c-0.9,14-14.5,15.5-26.5,14
	c-20.3-2.6-40.5-7.9-60.9-8.3c-82.7-1.4-143.3,39.6-189.5,104.2c-31.6,44.2-49.1,94.9-60.8,147.8c-3,13.5-0.7,34.1-23.5,29.3
	c-19.6-4.2-12.4-22.3-10.2-34.4c12.7-68.1,36.1-131.9,80.1-186.7C3458.7,1333.2,3527.3,1298.4,3614,1297.4z"/>
<path d="M2815.8,722.9c-1.1,13.5-11.4,14.2-21.8,16.3c-25.5,5-51.5,8.8-75.9,17.3c-32.8,11.5-59.7,32.9-80.5,61.3
	c-7,9.5-15,19.8-27.6,9.5c-11.1-9.1-7.4-21.3,0.2-30.5c46.3-55.7,102.2-93.8,178.1-93.6C2801.9,703.2,2813.3,706.7,2815.8,722.9z"/>
<path d="M2119.8,722.5c-27.9-5.3-29.1-5.6-25.2-25.8c12-61.9,43.8-111.9,93.8-150c7.9-6,18.1-11.4,27.6-12.3
	c7.3-0.6,17.8,4.4,22.4,10.4c6.6,8.6,1.3,17.2-8.2,22.1c-59.3,30.6-90.2,81.4-104.2,144.7C2125.4,714.8,2122.8,717.5,2119.8,722.5z"
	/>
<path d="M1789.6,433.2c2.9,0.9,11.2,1.9,17.5,6.1c12.4,8.1,10.3,23.5-3.4,29.2c-5.2,2.1-11,2.7-16.6,3.6c-31.8,5-58.1,19.1-78,44.9
	c-8,10.4-16.8,26.9-32.1,13.7c-12.6-10.8-4.3-25,4.3-36.5C1705.6,461.7,1752.1,434.3,1789.6,433.2z"/>
<path d="M2566.6,1491.6c21.7-9.6,36-15.9,50.3-22.3c64-28.6,129.7-50.9,200.6-53.4c15.9-0.6,32,0.2,47.8,1.9
	c26.6,3,48.5,14.7,58.6,40.8c5.7,14.6,14.8,21.7,29.7,24.4c52.6,9.5,94.6,69.8,59,137.5c-13.5,25.7-32.2,51.3-54.7,69.1
	c-125.9,100-267.2,165.8-429.3,180.5c-21.5,2-43.6,2.3-65-0.1c-49-5.4-87.8-43.1-85.3-90.3c1.3-25.2-4.5-33.5-31.4-69.6
	c-10,6.3-20.2,12.7-30.4,19.2c-104.1,65.4-213.4,119-334.6,144.5c-23.4,4.9-47.3,7.9-71.1,9.6c-42,2.8-75.8-13-99.9-48.2
	c-2.6-3.7-5.3-7.3-8.1-10.9c-0.7-0.8-1.9-1.3-5.9-3.9c-8.4,1.4-19.5,3.2-30.6,5.2c-30,5.3-59.2,3.6-86.7-10.7
	c-38.1-19.8-58-51.2-56.3-94.2c0.8-21.4-2.8-38.4-16.6-56.6c-32.4-42.5-28.5-90-7.9-136.4c27.3-61.2,66-115.3,113.1-162.3
	c125.5-125.2,275.8-205.8,450.2-238.2c38.8-7.2,79.7-6,119.4-4.3c36.6,1.6,67.5,18.9,91.5,47.7c16.1,19.2,32.8,38,50.6,55.6
	c6.7,6.6,17,10,26.1,13.5c5.1,2,11.3,1.1,17,1.7c94.4,10.9,145.7,86.4,121.4,179C2582.7,1441.3,2575.7,1461.6,2566.6,1491.6z
	 M2549.1,1383.8c-1.3-8.1-2.4-24.2-6.8-39.4c-12.7-44.1-40.3-63.7-86-62.3c-10.2,0.3-20.7,1.2-30.4,4.2
	c-34.9,10.6-70.6,19.4-103.9,33.9c-164,71.4-302.1,177.9-415.8,315.8c-19.4,23.6-35.3,50.5-50.3,77.3c-8.7,15.6-15,33.6-17.9,51.3
	c-7.8,46.3,20.1,79.6,66.6,77.1c33.9-1.8,68.1-7.4,101-15.7c187.3-47,336.4-158.7,476.6-284.9c7.6-6.8,14.2-14.9,20.4-23.1
	C2531.2,1480.7,2547.8,1439,2549.1,1383.8z M2485.4,1832.5c72.1-5.8,136.8-18.3,199.9-38.9c74.3-24.2,142.1-61.9,208.2-102.4
	c23.9-14.6,45.5-34.6,64.1-55.8c12-13.7,20.2-33.3,23.8-51.5c6.6-32.9-10-55.5-43.3-61.9c-20-3.8-40.7-4.6-61.2-4.7
	c-59.3-0.2-113.9,20.6-168.7,40.2c-81.5,29.2-155.1,71.4-218.5,130.9c-25.2,23.7-47.4,49.5-61.1,81.5c-10.7,25-5,42.3,19.5,53.4
	C2461.3,1829.3,2476.5,1830.4,2485.4,1832.5z M2381.3,1254.5c0.8-3.1,1.5-6.2,2.3-9.3c-9.7-4-19.2-10.3-29.3-11.5
	c-14.5-1.8-30.2-2.7-44.2,0.8c-50.7,12.6-103,22.4-151,42c-153.5,62.8-283,161.6-393.7,283.7c-36.3,40-66.1,87.5-91.2,135.6
	c-23.7,45.4,5.1,86.8,56.7,91c13.4,1.1,27.1-1.8,40.7-2.8c17.4-1.3,24.2-11.8,29.2-28c8.2-27,17.4-54.3,31-78.8
	c16.6-29.7,36.5-58,58-84.4c101.8-125.1,230.4-216.8,371.8-291.3c30-15.8,63.2-25.5,95-37.9
	C2364.7,1260.5,2373,1257.6,2381.3,1254.5z M2321.4,1185.9c0.7-3.2,1.3-6.4,2-9.6c-10.8-4.6-21.4-12.4-32.5-13.2
	c-29.4-2.2-59.5-5.3-88.4-1.3c-212.8,29.6-382.5,134.8-516.7,299.9c-28.1,34.6-50,73.7-59.5,118.3c-4.7,22.3-3,42.6,18.1,62.3
	c9.1-9.1,19.1-16.3,25.7-25.9c88.2-130.1,206.5-227.5,337.6-310.8c76.6-48.7,159.9-82.6,247.7-105.4
	C2277,1194.4,2299.3,1190.6,2321.4,1185.9z M2868.8,1465.8c-28.9-11.4-56.9-8.1-84.6-3.1c-128.3,23.4-238.7,82.7-335.3,168.8
	c-15.3,13.6-28.9,29.2-42.7,44.4c-10.7,11.8-14.1,24.7,0.4,42.3C2526.9,1569.7,2688.4,1501,2868.8,1465.8z"/>
<path d="M1333.1,1732.6c10.1,0,21.5,0.4,32.8-0.1c82.6-3.1,131.4,61.6,110.4,141.3c-9.1,34.5-25.9,69-46.8,98.1
	c-77.8,108.3-173.7,196.4-296.4,253c-40.4,18.6-78.8,41.5-118.3,62.1c-48.4,25.2-99.8,38.9-154.5,40c-46.5,0.9-85.9-12.4-109.4-55.9
	c-7.2-13.3-16.9-14.9-30.8-15.3c-22.4-0.5-46.1-1.1-66.9-8.3c-52.6-18.1-76.5-64.1-61.1-117.1c6.3-21.5,4.4-36.7-11.4-52.2
	c-23.7-23.3-25.2-53.1-18.9-83.2c8.5-40.7,25.1-77.6,52.8-109.9c54.5-63.5,121.6-110.3,193.1-151.8
	c90.5-52.6,186.3-92.3,289.7-110.9c32.3-5.8,66.1-7.9,98.9-5.8c60.5,3.9,107.3,30,125.5,93c1.6,5.5,4.1,10.7,6.4,15.9
	C1328.9,1727.6,1330.6,1729.2,1333.1,1732.6z M1343,1775.4c-20.1,5.7-61.6,12-98.4,28.8c-144.7,66-275.6,152.9-382.8,271.8
	c-25,27.7-46.3,59.6-64.4,92.3c-16.3,29.5-23.4,63.7-0.7,94c23.1,30.9,58.4,30.6,91,23.3c36.5-8.2,73-19.2,106.9-34.8
	c59-27.2,116-58.8,173.8-88.7c10.1-5.2,19.9-11.2,29.4-17.5c84.5-56.9,153.7-129.2,211-212.8c13.3-19.4,23.5-42.2,29.3-65
	C1453.3,1807.9,1424.1,1773.4,1343,1775.4z M1259.2,1750c-44.2-1.4-80.8,5.4-116.6,16c-159.5,47.2-299.3,128.7-416.6,246.7
	c-31.1,31.3-57.4,67.9-83.1,104c-18.8,26.4-16.7,54.9,0,76.6c16.4,21.4,49,30.9,77.5,23.3c13.4-3.6,22.7-10.3,24.7-24.7
	c4.9-35.3,24.7-63.2,44.6-91.2c82.5-115.9,193.7-199,313.9-270.7C1151.3,1801.6,1202.5,1778.9,1259.2,1750z M1266.3,1699.8
	c-8-28.4-26.5-41.3-50.5-42.2c-32.9-1.2-66.5-1.7-98.7,3.9c-130.4,22.7-247.6,78.1-356.7,151.5c-49.6,33.4-93.2,73.8-127,123.5
	c-12,17.7-22.6,37.3-29.3,57.5c-7.8,23.4-6.2,47.2,18.6,67.3c40.9-29.8,65.3-75.6,104.2-106.6c39.3-31.3,76.7-65.4,118.2-93.4
	c42.4-28.6,87.6-53.8,133.8-76c45.1-21.7,91.9-41.1,139.9-55.3C1166.1,1716,1215.9,1709.8,1266.3,1699.8z"/>
<path d="M1706.8,2041.8c-25.7-5.9-57.9-9.4-87.1-20.7c-51.1-19.8-58.1-59.8-18.6-98.5c13.5-13.2,30.5-24.9,48.1-31.4
	c77.3-28.5,150.5-17.2,217.6,29.7c31.5,22.1,31.6,57,0.1,79.5c-15.3,11-34.1,19.1-52.5,23.4
	C1781.2,2031.5,1747.1,2035.4,1706.8,2041.8z M1619.7,1967.2c21.2,26.6,33.5,31.9,71.4,33.7c59.6,2.7,113.6-8,133.1-28.2
	C1756.6,1959.6,1690.8,1955,1619.7,1967.2z M1658.4,1931c61.8,0.2,122.1-3.1,182.2,31.8C1805.8,1920,1704.4,1904.2,1658.4,1931z"/>
<path d="M352.8,2271c2.9-55.9,26.2-96.8,60.5-131.8c17.8-18.1,44.8-20.9,62.9-10.3c20.6,12.1,31.8,36.5,19.6,62.6
	c-19.5,42-42,83.3-68.2,121.4c-19.1,27.8-54,20.7-67.9-10.8C354.8,2291.1,354.3,2278.2,352.8,2271z M459.4,2163.6
	c-44.4,16.7-71.6,72.7-56.6,116.2C432.8,2245.5,449.4,2208,459.4,2163.6z"/>
<path d="M1400.1,1655.1c-38-0.5-57.9-20.9-50.9-50.9c4.1-17.8,14-36.7,26.8-49.7c25.1-25.4,57.2-41.4,92.2-49.3
	c11.6-2.6,25.1-2.1,36.6,1.1c16,4.5,23.5,19.1,18.6,35c-4,12.8-9.2,26.9-18.2,36.2c-23.1,23.5-47.7,45.7-73.5,66.1
	C1421.6,1651.3,1406.5,1652.8,1400.1,1655.1z M1475,1553.3c-46.3,2.7-79,27.7-82.1,62.1C1428.6,1603.3,1450.9,1576.9,1475,1553.3z"
	/>
<path d="M2178.4,1953.7c-39.1,3.7-47.3-30.9-36.6-54.8c3.2-7.2,7.3-14.4,12.7-20.1c30.8-33,69.3-52,113.7-56.6
	c34.8-3.6,48.5,15.4,37.4,48.9c-3.8,11.6-10,23.5-18.3,32.3C2257.9,1934.4,2220.8,1950.3,2178.4,1953.7z M2188.8,1908.8
	c30.4-1.1,54.6-13.9,72.6-38.4C2230.3,1870.2,2208.1,1886.7,2188.8,1908.8z"/>
<path d="M1925.2,1116.3c-14.4,0.5-30.5-1-33.4-16.6c-2.2-11.6,1.5-27.5,8.6-37.1c14.9-20.1,37.7-30.1,62.9-26.5
	c10.7,1.5,23.3,9.2,29.7,18c8.6,12,3.4,26.6-6.4,37.4C1970.2,1109.6,1948.5,1115.2,1925.2,1116.3z"/>
<path d="M2683.5,1362.7c-19.5-0.2-34.7-13-35.3-29.8c-0.8-19.8,21.4-41.9,42.1-42c19.3-0.1,35.8,14.9,36.5,33.4
	C2727.6,1346.1,2708.8,1362.9,2683.5,1362.7z"/>
<path d="M980.1,1575.3c-15.4-1-25.3-15.2-22.2-31.6c3-16.1,29.7-42.9,46.1-46.3c16.2-3.3,30.7,6.6,31.8,21.9
	C1037.2,1539.8,1000.5,1576.7,980.1,1575.3z"/>
<path d="M2485.6,1404.1c-2.5,7.2-3.3,13.3-6.4,17.8c-8.5,12-15.8,26.6-27.4,34.3c-43.5,28.7-75.6,68.8-112.2,104.6
	c-57.5,56.1-124.3,99.7-197.6,133c-7.2,3.3-14.9,5.6-22.5,8.1c-9.2,3.1-20.4,5-22.6-6.5c-1.7-8.5,1.9-19.8,6.9-27.3
	c3.8-5.7,13.5-7.6,20.9-10.6c94.9-38.4,174.6-97.5,239.7-176.3c4.3-5.2,8.3-11.6,14-14.8c28.9-16.6,56.2-34.1,73.2-64.6
	c3.1-5.6,15.4-7.5,23.7-8.4C2478.3,1393,2482.2,1400.4,2485.6,1404.1z"/>
<path d="M2832.8,1646.6c-17.9-23.7-39.8-17.6-61.1-7.6c-49.5,23.2-98.6,47.3-148.1,70.5c-11.5,5.4-24.1,8.5-36.3,12.7
	c-2.1-2.1-4.2-4.1-6.3-6.2c2.3-7.6,2.5-17.1,7.3-22.4c7.5-8.2,17.5-14.7,27.5-19.7c65.4-32.1,130.4-65.3,203.3-78.3
	c16.7-3,32.6-10.1,49.2-13.3c10-2,23.1-0.7,24,12.3c0.5,6.5-7.3,15.3-13.5,20.3C2865.7,1625.4,2851.1,1634.2,2832.8,1646.6z"/>
<path d="M986.1,2165.4c-12.9,1.4-22.6-10-18.5-20.5c3.2-8.1,8.9-16.2,15.5-21.9c22.5-19.2,44.7-39.2,69.2-55.7
	c75.6-50.8,146.9-108.7,232.2-143.8c12.6-5.2,25-11.3,38-15.3c4-1.2,11.9,1.7,14.2,5.3c2.4,3.7,2.4,12.8-0.3,15.3
	c-9.9,9-20.6,18.2-32.6,23.8c-78.9,36.8-151.8,83.6-222,134.6c-27.6,20-52.9,43.3-79.3,65.1C996.5,2157.2,990.3,2162,986.1,2165.4z"
	/>
</svg>
