<?xml version="1.0" encoding="utf-8"?>
<!-- Generator: Adobe Illustrator 24.3.0, SVG Export Plug-In . SVG Version: 6.00 Build 0)  -->
<svg version="1.1" id="Layer_1" xmlns="http://www.w3.org/2000/svg" xmlns:xlink="http://www.w3.org/1999/xlink" x="0px" y="0px"
	 viewBox="0 0 4000 4000" style="enable-background:new 0 0 4000 4000;" xml:space="preserve">
<path d="M1881.5,658.3c-5.1-26.1-9.2-49.2-14.1-72.1c-25-117.9-75-223.5-154.6-314.6c-6.7-7.7-13.2-15.8-18.7-24.4
	c-20.3-31.6-18.1-68.9,7.2-96.7c10.2-11.3,22.3-21.8,35.5-29.2c36.8-20.4,73.8-40.8,112.3-57.6c43.9-19.2,73.7-9.2,99.7,32.7
	c48.6,78.1,84.3,162.1,108,251.1c2.9,10.8,5.7,21.5,8.7,33.2c17-1.7,20.5-15,26.5-24.7c36.7-58.9,80.9-111.2,134-156.1
	c88.1-74.4,190.5-115.9,303.5-133.3c122.8-18.8,241.6-2.2,357,42.2c60.9,23.4,69.3,36.9,53.4,99.3
	c-39,153.2-114.6,283.5-245.2,376.8c-70,50-147.2,85.6-231.6,104.6c-8,1.8-16,3.7-23.9,5.8c-2.9,0.8-5.6,2.4-12.4,5.4
	c9.2,5,15.4,9.8,22.5,11.9c193.5,59.4,361.3,162.1,503.7,304.9c215.5,216.1,345.3,477.3,400.4,776.7
	c20.9,113.6,30.8,228.1,28.2,343.5c-5.3,234.4-55.4,458.5-161.4,668.4c-104.8,207.5-256.1,374-452.5,498.2
	c-65.9,41.6-135.4,77.5-204.2,114.4c-64.4,34.6-130,67.5-183,118.6c-37.6,36.2-72.1,75.9-106,115.9
	c-49.7,58.6-107.3,104.4-183.1,124.1c-110.8,28.9-209.7,4.5-296.7-68.3c-23.5-19.7-46.2-41.5-64.8-65.7
	c-70.5-91.6-162.3-152.9-267.8-196.3c-96.2-39.6-188.5-86.5-275.2-144.3c-208.9-139.4-364.7-323.5-465.7-553.6
	c-91.8-209.2-138.8-427.8-131.2-656.4c10.8-328,109.4-626.8,316.3-883.7C1122,941,1398,764,1734.7,685.9c39-9,78.8-14.3,118.2-21.5
	C1860.9,663,1868.8,661,1881.5,658.3z M717.4,2156.6c-2.7,84.9,17.7,228.9,57.9,370.1c53.3,186.9,144.6,353.2,276.7,496
	c105.9,114.4,231.2,203.1,371.9,269.9c61.2,29.1,123.4,56.2,183.9,86.8c71.2,36,134.9,82.3,184.7,146c17.7,22.6,37.1,44,56.3,65.4
	c100.9,112.6,250,78.4,317,3c17.8-19.9,35.8-39.7,52.1-60.8c62.1-79.9,138.1-143.3,226.5-192.1c74.6-41.2,151.2-79.1,224.3-122.8
	c163.4-97.6,297.4-226.3,394.3-390.9c163.9-278.6,215.6-581.5,182-899.4c-24.8-234.5-100.3-452.6-236.2-647.6
	c-67.4-96.7-145-184.1-237.4-257.5c-207.6-164.9-448-238.5-709.7-245c-215.7-5.3-419.4,47.8-610.9,146.5
	c-227.1,117.1-410.6,281.8-542.7,501.9C784.7,1631.8,724,1855.2,717.4,2156.6z M2851.4,228.1c-220.7,41.8-622.3,267.6-736.6,387
	c41.2,4.4,79.5,9.5,117.9,12.2c64.1,4.5,127.3-4.4,189.6-18.3c171.3-38.1,306.3-126.5,388.2-285.8
	C2825.3,294.3,2836.3,263.5,2851.4,228.1z M2092.4,556.2c222.9-170.1,467.5-295.7,733.3-382.5c-153.6-47.5-303.9-46-448.5,28.1
	C2230.3,277,2141.9,401,2092.4,556.2z M1781.9,210c104.2,133.9,167,280.7,183.6,448.5c18.3-1.2,33.1-2.2,47.2-3.2
	c18.4-128.8-62.8-433.9-132.5-497.1C1848.7,174.8,1816.6,191.7,1781.9,210z"/>
<path d="M821,2093c11-330.7,132.4-648.9,401.8-902c160.6-150.9,349.8-250.6,567-294c151.8-30.3,303.8-31.8,456.2-1.9
	c232.2,45.6,431.2,151.4,590.4,327.2c118.2,130.4,202.9,281.1,256.9,448.7c45.1,139.8,72.3,283.2,67.8,430.4
	c-8.2,272.4-81,524.8-242.6,747.7c-98.2,135.4-223.1,240.4-369.7,320.2c-151.1,82.2-312.9,130.1-484,142.3
	c-302.4,21.5-575.8-56.1-814.2-247.1c-171.5-137.4-290.8-310.8-360.5-519C844.7,2409.6,823.8,2270.2,821,2093z M2053.8,922.6
	c-128.5,0.8-230.5,13.4-314.8,37c-263.7,73.9-479.6,219-636.8,443.7c-200.1,286.1-272.5,603-210.7,948.3
	c50.7,283.5,183.5,517.8,414.6,694.4c162.9,124.4,345.8,195,548.8,215.9c152.2,15.7,301.7-0.4,447.9-43.8
	c277.8-82.4,494.7-245.4,643-495.5c105.4-177.8,154.8-372.6,165.3-577.7c12.3-238.9-42.3-462.7-154.7-673.2
	c-66.7-124.9-154-232.9-264.8-321.2C2496.8,995.3,2272.8,924.6,2053.8,922.6z"/>
<path d="M2006,1884.9c0.5,50.3-22,80.4-61.7,84.9c-23.7,2.7-44.6-6.2-63-20.3c-38.3-29.3-77.6-57.7-114-89.2
	c-122.7-106.2-244.6-213.4-366.4-320.6c-29.4-25.9-55.6-54.9-73.9-90c-42-80.7-33.4-148.1,28.4-214.8c40.9-44.2,90.6-77.4,143-106
	c70.5-38.5,143.7-71.6,223.9-83.6c30.1-4.5,62-5.9,91.9-1.3c66.6,10.2,112,49.6,131.9,114.4c8.7,28.3,14.9,57.9,17.7,87.3
	c7.2,75.6,12.7,151.5,17.5,227.3c8.5,132.2,16,264.5,23.9,396.8C2005.6,1875.9,2005.9,1882.1,2006,1884.9z M1956.1,1837.7
	c-0.8,0-1.6,0-2.4,0c-6.8-113.8-13.8-227.6-20.5-341.4c-4.4-73.8-7.5-147.7-13.1-221.4c-2.3-30.5-7.3-61.3-15.3-90.9
	c-18.1-66.3-67.2-99.4-135.8-95.1c-48.7,3.1-95,16.3-140,34.1c-84.6,33.4-164.8,74.6-231.4,138c-57.9,55.2-63.9,121.3-15.3,184.7
	c21.7,28.3,46.8,54.8,73.5,78.5c90.6,80.5,182,160,274.1,238.8c53.8,46.1,109.3,90.2,164.3,134.9c8.7,7.1,18.1,13.8,28.1,18.7
	c22.4,11,33.1,4.3,33.7-20.5C1956.5,1876.7,1956.1,1857.2,1956.1,1837.7z"/>
<path d="M2018.1,2332.8c0-17.5-0.6-34.9,0.1-52.4c2.4-63.7,65.6-99.1,121.4-67.8c11.5,6.5,22.8,14.3,32.5,23.2
	c140.9,130.5,282,260.8,421.7,392.6c28.1,26.5,54.4,56.5,75.4,88.9c42.7,65.9,41.6,134.6-4.1,199c-18.8,26.4-41.9,51.1-67.3,71.3
	c-89.4,71.2-188.8,123.6-301.6,147.5c-35.2,7.5-70.6,11.6-106.9,4.5c-54.8-10.7-93-40-113.7-92.6c-16.8-42.9-20.6-87.8-23.2-132.9
	c-9.4-163-18.2-326-27.3-489.1c-1.7-30.8-4.1-61.5-6.1-92.2C2018.6,2332.8,2018.4,2332.8,2018.1,2332.8z M2067.9,2346.6
	c0.2,0,0.5,0,0.7,0c7.4,130.3,14.9,260.6,22,390.8c3.7,67.7,5.2,135.6,10.4,203.1c2.4,30.3,9.4,60.7,18.1,90
	c8.7,29.3,31.7,47,60.1,57.6c29,10.8,58.6,9.5,88.2,4c97.8-17.9,185.1-60.7,266.2-116.4c28.6-19.6,55.9-42.4,79.2-68
	c46.7-51.5,50.4-111.5,12.7-169.8c-13.3-20.5-29.2-40-47.1-56.7c-144.8-135.4-290.4-270.1-435.9-404.8c-8.2-7.6-17.7-14.2-27.5-19.6
	c-25.8-14.3-44.8-4.4-46.8,25C2066.8,2303.4,2067.9,2325,2067.9,2346.6z"/>
<path d="M1977.4,2593.7c-4.3,100.5-7.5,201.1-13.4,301.5c-2.5,42.9-7.5,86.2-17.3,127.9c-23.1,98.2-90.3,146.1-189.8,134.7
	c-117-13.3-225.5-52.9-324.3-117.1c-40.2-26.2-74.3-59.5-85.5-108.7c-4-17.5-4.4-36.7-1.7-54.5c5.4-36,19.8-69.5,42.8-97.7
	c44-54.1,88.4-108,134.8-160c99.1-111.1,199.1-221.3,299.7-331c20.7-22.6,43.7-43.7,68.4-61.8c38.6-28.3,86.6-4.9,92.3,43.3
	c1.5,13.2,1.3,26.7,1,40c-1.8,94.4-3.7,188.9-5.6,283.3C1978.4,2593.7,1977.9,2593.7,1977.4,2593.7z M1931,2488c1.4,0,2.8,0,4.1,0
	c0-62.6,0.2-125.3-0.2-187.9c-0.1-10.5,5.2-26.3-9.1-28.9c-8.4-1.5-20,7.2-28.2,13.7c-11.2,8.8-21.1,19.6-30.8,30.1
	c-97.2,105.9-194.8,211.5-291.2,318.2c-47.5,52.6-93.8,106.3-138.1,161.5c-17.6,21.9-31.6,48.1-41.9,74.4
	c-13.8,35.3-6.3,69.9,22.1,96c21.8,20,45.4,38.7,70.5,54.1c50.1,30.7,104.7,52.7,161.3,67.9c43.3,11.7,88,22.2,132.6,24.7
	c58.7,3.3,98.5-30.3,115.8-86.8c2.4-7.8,4.9-15.8,5.9-23.9c5.6-47.9,13.6-95.7,15.6-143.7C1924.7,2734.4,1927.3,2611.2,1931,2488z"
	/>
<path d="M968.4,2368.9c1.6-92.4,56.7-166,147.9-185.1c61.1-12.8,123.6-19.8,185.8-25.6c159.4-14.9,319.1-27.9,478.6-41.2
	c14.2-1.2,28.6,0.5,42.9,1.2c30.6,1.6,44.3,23.1,53.7,47.9c5.5,14.5,0.2,28.8-8.9,40.5c-16.4,21.1-32.3,42.7-50.8,61.8
	c-119.1,122-238.4,243.7-358.5,364.6c-34.7,34.9-71.2,68.1-108.4,100.3c-27,23.4-60.4,35-95.6,39.3c-59.3,7.2-106.1-16.6-143.1-61.7
	c-62.4-76-100.4-164.2-126.9-257.8C977.2,2425.8,973.8,2397.1,968.4,2368.9z M1827.3,2169.2c-21.9,0-37.1-1.1-52,0.2
	c-181.1,14.9-362.2,29.6-543.2,45.7c-37.6,3.4-75.6,9.6-111.9,19.6c-69.8,19.2-104.2,71.2-99.3,143.4c0.6,9.2,2,18.4,3.7,27.4
	c15.1,79.6,45.7,153.5,86.5,222.8c15.4,26.2,36.9,49.2,57.8,71.5c24.8,26.3,57.4,32.4,90.9,22.2c22.2-6.8,44.2-17.2,63.3-30.4
	c23.5-16.3,45.1-35.8,65.3-56.1c118-118.7,235.5-238,352.8-357.4c23-23.4,44.8-48.1,66-73.1
	C1814.6,2196.3,1818.6,2184.9,1827.3,2169.2z"/>
<path d="M2040.6,1565.5c3.7-98.5,6.8-197,11.5-295.5c1.6-33.7,4.5-67.9,12.3-100.5c6.4-26.4,18.1-52.6,32.8-75.5
	c27-42.3,67-64.2,118.4-66.5c49.3-2.2,96,8.7,141.9,23.6c76.7,24.7,148.6,59.7,213.8,107.3c19.7,14.4,38.9,30.8,54.5,49.6
	c36.5,43.9,47.4,94.5,31.2,150.1c-15,51.5-44.3,94.8-79,134.3c-129.6,147.3-264.1,290-403.5,428.1c-12.3,12.2-26.1,23.4-40.7,32.7
	c-42.3,26.8-85.5,9.3-96.7-40c-4.2-18.7-4.4-38.7-3.9-58.1c2.4-96.5,5.6-193,8.5-289.5C2041.3,1565.5,2041,1565.5,2040.6,1565.5z
	 M2084.6,1916.4c24.9,1.6,34.9-13,46-24.3c92-93.8,184-187.6,275.1-282.2c44.8-46.6,89.3-93.6,131.2-142.8
	c25.7-30.2,50.1-62.9,68.3-98c27.3-52.7,15.9-101.4-26.1-143.2c-6.5-6.5-13.2-13-20.6-18.5c-93-69.1-195.9-115.6-311-132.3
	c-58.7-8.5-106.5,18.7-127.5,73.9c-10.4,27.4-16.7,57.4-18.6,86.7c-5.2,80.9-7.7,161.9-10,243c-3.7,129.3-6.6,258.6-9.5,387.9
	C2081.6,1882.5,2083.6,1898.6,2084.6,1916.4z"/>
<path d="M1477.3,2114.4c-86.3,0-172.6,1.2-258.8-0.6c-37.8-0.8-76.1-4.3-112.9-12.4c-84.7-18.6-133.8-78-133.3-164.9
	c0.7-126.5,39.5-242.1,110-347c5.7-8.5,12.8-16.1,19.9-23.4c53.3-54.4,120.5-68.8,188.6-35.4c37.5,18.4,73.6,41.4,106.5,67.2
	c143.8,112.9,286.2,227.4,428.8,341.8c16.8,13.4,32.6,28.4,47.1,44.2c34.3,37.2,20.8,91.1-27.7,105.5c-25.2,7.5-52.4,10.2-78.9,11.3
	c-96.4,4.3-193,7-289.5,10.3C1477.3,2112.2,1477.3,2113.3,1477.3,2114.4z M1840.4,2039.6c-3.3-28.3-3.9-30.2-31.3-52.1
	c-131.6-105.3-262.9-210.9-395.3-315.1c-40.3-31.7-81.9-62.5-126.2-88.1c-66.5-38.5-128.3-22.2-171.2,41.6
	c-14.8,22-27.5,45.9-38.4,70.2c-32.2,71.7-56.3,145.9-58.6,225.2c-2.4,82.4,35.3,126.3,117.5,137.5c32.4,4.4,65.5,6.6,98.3,6.1
	c118.2-1.7,236.3-4.5,354.5-8c70.9-2.1,141.7-6.2,212.4-10.1C1815.1,2046.1,1827.9,2042,1840.4,2039.6z"/>
<path d="M2533,2074.2c69.8-2,139.6-5.7,209.4-5.5c42.9,0.1,86.2,3.5,128.7,9.7c77.7,11.4,124.6,57.8,141.9,134.3
	c9.5,42,7.7,84.3-1.4,125.4c-12.1,55-25.8,110-44.9,162.9c-12.3,34.1-32.2,66.7-54.2,95.8c-48.2,63.8-126.7,81.5-198.7,46.5
	c-28.4-13.8-55.8-30.9-80.8-50.3c-56.7-44.1-111.8-90.2-167.3-136c-91.9-75.8-183.7-151.6-275-228.1c-15.6-13-29.9-28.5-41.4-45.2
	c-27.6-40-5.5-88.3,42.3-93.7c31.6-3.6,63.4-5.4,95.2-6.7c82.1-3.2,164.2-5.7,246.3-8.5C2533,2074.7,2533,2074.5,2533,2074.2z
	 M2185.1,2145.5c6.7,25.1,24.1,36.8,39.6,49.6c136.8,113.3,273.6,226.6,411.1,339c27.7,22.6,57.6,42.9,88.2,61.5
	c24.9,15.2,52.9,20.9,82.9,14.9c43-8.6,71.3-36,90.8-72.3c48.9-91.1,75.4-188.4,72.6-292.4c-1.7-61.9-33.6-102.9-94-117.4
	c-29.5-7.1-61-9.1-91.5-8.6c-122.2,2.1-244.3,5.7-366.5,9.6c-65.7,2.1-131.3,5.9-196.9,9.5C2209.7,2139.5,2198.2,2143,2185.1,2145.5
	z"/>
<path d="M2207.2,2071.8c-19.8,1.2-38.9,0.7-55-13.9c-25.2-22.8-30.5-54.9-10.7-83c10.6-15,23.1-29,36.3-41.8
	c92.9-90.2,186.2-180,279.6-269.7c40.8-39.2,81-79,123.3-116.4c27.6-24.3,56.8-48,88.6-66.1c70.7-40.4,149.6-26.1,204.2,34.6
	c15,16.7,27.9,35.7,39,55.2c41.1,72,71.5,148,81.2,231c2.4,20.3,2.9,41.2,1,61.5c-5.8,59.1-35.7,101.4-91.2,125
	c-48,20.4-99,27.9-149.9,33c-177.9,17.6-356,33.5-534,49.9C2215.4,2071.5,2211.3,2071.5,2207.2,2071.8z M2178.1,2016.6
	c13,0.8,24,2.5,34.9,1.9c36.9-2.3,73.8-4.9,110.6-8.2c158.6-14.6,317.2-28.8,475.6-44.9c29.2-3,58.3-11.8,86.2-21.6
	c43.9-15.4,63-50.4,65.8-95.1c0.8-13.2-0.3-26.8-2.5-39.9c-13.8-83.1-43.9-160.2-87.9-231.9c-6.4-10.5-13.5-20.8-21.8-29.8
	c-33.1-35.5-73.9-49.1-120.2-33.2c-22.8,7.8-45.4,20.3-64,35.6c-41.2,33.9-80.5,70.2-119.3,106.9
	c-110.5,104.6-220.3,209.7-330.3,314.8C2193.6,1982.3,2179.5,1992.2,2178.1,2016.6z"/>
<path d="M1879.3,1643.7c-0.9,9.1-0.9,18.5-3,27.4c-7.4,32.4-23.6,41.1-53.8,25.9c-45.1-22.7-78.9-58.7-104.1-101.6
	c-12.2-20.8-18.7-45.1-27.2-68c-2.1-5.6-2.6-12.2-2.2-18.2c2.4-32,10.3-62.2,43.4-75.3c30.7-12.1,57.6,1.8,77.3,23.9
	c17.4,19.5,33.7,42.3,42.4,66.5c13.8,38.2,20.8,78.8,30.7,118.3C1881.7,1643,1880.5,1643.3,1879.3,1643.7z M1829.4,1641.5
	c-3.7-53.3-18.3-96.4-40.4-136.9c-11.4-20.8-26.5-28.3-38.5-22.5c-13.1,6.4-16.7,24-9.2,46.6c13.1,39.8,38.1,71.8,67.3,100.8
	C1812.7,1633.5,1818.7,1635.4,1829.4,1641.5z"/>
<path d="M2150.2,2570c1.3-6.9,2.3-21.4,7-34.7c6.4-18.1,18-23.3,36.6-19.1c6.9,1.6,13.7,4.6,20,8c60.8,32.8,101.3,82.7,122.2,148.1
	c4.6,14.3,5.7,30.5,4.8,45.6c-2.5,42.1-38.6,68.4-79.9,59.6c-26.6-5.7-46.4-21-61.4-43.2C2167.6,2686.9,2152.3,2634.4,2150.2,2570z
	 M2201.2,2577.3c0.2,40.5,8.7,74.3,23.8,106.5c5.1,10.9,12.4,21.1,20.1,30.5c9.3,11.3,22.5,15.6,35.7,8.7c13.5-7,11.2-20.6,8.3-32.7
	c-10.2-42.5-34.7-75.7-68-102.9C2216.8,2583.9,2211,2582.2,2201.2,2577.3z"/>
<path d="M1836.1,2627.5c-3.3,41.5-12.3,80.3-32.6,115.5c-8.9,15.5-21.7,30.5-36.2,40.7c-41.6,29.5-94.5,7.7-104.3-42.3
	c-3.1-15.7-3.5-33.2,0.1-48.7c14-59.3,43.8-110,89.6-150.7c6-5.4,13.1-10.4,20.5-13.1c19.5-7.1,38.9,1.7,46.2,24.1
	C1827.4,2577.2,1830.8,2602.6,1836.1,2627.5z M1776.7,2594.3c-5.8,3.4-12.1,5.2-15.6,9.4c-22.3,27.1-40.9,56.4-48.4,91.3
	c-2.1,9.8-2.9,20.4-1.8,30.3c2.1,18.5,14.9,24.7,30.4,14.2c8.1-5.5,16.7-13.7,19.7-22.5c8-22.9,14.8-46.6,18.8-70.5
	C1782.5,2630.2,1787.4,2612.3,1776.7,2594.3z"/>
<path d="M1498.1,2256.6c8.9,0,12-0.1,15.1,0c43.5,1.9,55.8,21.4,35.4,59.9c-22.3,42.1-50.6,79.7-91.2,106.4
	c-24.5,16.1-51.2,26.2-80.7,26.8c-27.4,0.6-50.2-8.6-65.1-33.2c-15.2-25-11.9-49.8,3.5-72.4c9.6-14.1,21.8-27.7,35.8-37.4
	C1396.7,2275.1,1448.8,2260.6,1498.1,2256.6z M1490.8,2312.3c-47.5-0.7-90,10.5-124.8,42.5c-10.4,9.5-17.7,21.2-9.9,35.5
	c7.4,13.5,20.9,11.9,32.8,8.7C1435.8,2386.1,1466.6,2353.5,1490.8,2312.3z"/>
<path d="M2187.3,1587c0.4-56.7,9.8-101.8,37.1-140.6c11.3-16.1,27.5-30.8,44.6-40.6c32.8-18.8,64.7-5.6,80.8,29.1
	c14.4,31,11.3,62.5,0.8,93c-17.3,50.5-46.9,93.4-87.7,127.7c-29.7,24.9-56.7,16.7-67.5-20.5
	C2190.1,1616.7,2188.9,1596.9,2187.3,1587z M2242.9,1603.8c39.1-33.6,62.3-75.2,67.7-125.9c1.1-10.2,0.5-23.6-11.9-24.8
	c-8.2-0.8-20.3,5-25.6,11.8C2241.5,1505.6,2231.3,1551.9,2242.9,1603.8z"/>
<path d="M1480.3,1965.3c-47.1,0-89.2-6.4-127.3-29.5c-20.6-12.5-37.4-28.7-45.2-52.3c-11.9-36,4.4-72.7,40.7-84
	c17.9-5.5,39.6-9,57.1-4.1c64.3,17.8,120.8,49.8,162,104.4c1.2,1.6,2.5,3.3,3.5,5c16.1,27.2,7.3,47.4-23.9,54.4
	c-3,0.7-6.1,0.9-9.1,1.2C1517.7,1962.2,1497.3,1963.9,1480.3,1965.3z M1509.1,1912.5c-14.8-27.8-53.1-55.5-91-65.5
	c-12.7-3.3-26.5-5.1-39.4-3.7c-8.9,1-21.4,7-24.2,14c-2.6,6.7,4.5,17.9,8.9,26.4c2.1,4.1,7.4,7.1,11.8,9.6
	C1417.1,1916.8,1461.5,1920.7,1509.1,1912.5z"/>
<path d="M2519.8,2214.5c44.7,0.4,84.3,5.7,121.2,23c15.6,7.3,31,16.4,44.1,27.6c20,17.1,28.2,39.8,21.9,66.5
	c-6.4,27.2-25.2,41.4-50.5,48.3c-27.7,7.6-55,4.4-81.7-4.7c-45.7-15.6-84.3-42.4-117.5-76.7c-13.3-13.8-27.8-29.5-19.4-51.6
	c8.4-22.2,28-28.5,49.5-30.3C2499.5,2215.6,2511.8,2215,2519.8,2214.5z M2497.1,2272.2c39.5,35.5,79.9,57,128.2,63
	c4.8,0.6,10.2-0.9,15-2.6c22.1-7.8,24.9-24,6.9-39C2620.7,2271.6,2536.6,2257.6,2497.1,2272.2z"/>
<path d="M2463.4,1947.9c-15.6,0.5-37.3,1.6-49.1-20.2c-12-22,2.1-39.8,13.3-56.6c30.3-45.7,72-78.8,120.7-102.6
	c15.1-7.4,33.5-11,50.5-11.1c58-0.4,88.7,50.5,63.2,102.9c-12.2,24.9-32.4,42.1-56.6,54.9
	C2566.4,1935.7,2516.1,1947.7,2463.4,1947.9z M2476.6,1896.4c39.8,0.4,76.3-7.2,110.6-24c15.2-7.5,27.1-18.5,30.9-35.9
	c4.6-21.4-5.4-33.5-26.2-28.4C2541.1,1820.4,2504.9,1853.1,2476.6,1896.4z"/>
</svg>
