<?xml version="1.0" encoding="utf-8"?>
<!-- Generator: Adobe Illustrator 24.3.0, SVG Export Plug-In . SVG Version: 6.00 Build 0)  -->
<svg version="1.1" id="Layer_1" xmlns="http://www.w3.org/2000/svg" xmlns:xlink="http://www.w3.org/1999/xlink" x="0px" y="0px"
	 viewBox="0 0 4000 4000" style="enable-background:new 0 0 4000 4000;" xml:space="preserve">
<path d="M135.9,1595.2c2.2-202,25.1-379.8,88.6-550.7C281,892.8,366.4,760.5,491.8,655.7c117.8-98.4,254.5-155.3,404.2-183.2
	c148.8-27.7,297.5-24.7,446.7-2.3c193.5,29,375.8,89.9,547.2,184c8.3,4.5,17.8,7.7,24.4,14c25.1,23.6,46.1,13.9,72.1-1.5
	c105.8-62.6,219.2-108.4,337.1-142.9c95.5-28,192.5-50.4,291.4-61.2c206.4-22.5,409.6-12,605.5,65.5
	c178.1,70.5,313.5,189.9,409.2,355c94.9,163.5,141,341.9,155.4,528.7c25.3,327.5-33.1,641.8-154.1,946
	c-60,150.7-138.5,290.8-233,422.2c-8.3,11.6-12,21.9-9.4,37.3c13.8,78.6-22.2,196.3-148.1,236.8c-21.7,7-44.9,9.7-67.5,13.7
	c-16.7,3-32.1,7.1-45,19.7c-85.5,83.2-184.5,147.8-288.3,205c-177,97.5-367.3,155.1-566.9,184.4c-158.4,23.3-317.2,25.1-476,10.2
	c-266.3-24.9-516.2-103-747.8-237.6c-99.9-58.1-193.6-125.3-277.3-204.8c-32.5-30.9-66.1-53.2-108.4-69.1
	c-77.9-29.3-125.5-88.5-139-172c-3.4-21.3-12.3-38.4-24-56.5c-43.3-66.6-87.3-133.2-124.8-203.1c-110.7-206.9-176.6-429-213.7-660
	c-8.3-51.6-14.5-103.7-19.1-155.8C138.4,1677.1,137.4,1625.7,135.9,1595.2z M1479.6,1874.3c27.5,88.4,53.2,171.8,100.3,250.7
	c126.1-84.3,241-174.4,316-307.6c-7.1-8-12.9-13.8-18-20.2c-21-26.3-30.8-56.9-31.8-90.1c-0.5-15.3,8.7-24,22.5-25.1
	c13.1-1.1,18.9,7.4,21.9,18.1c3.1,11.1,4.1,22.7,7.7,33.6c3.9,12.1,3.6,27,20.7,35.6c6.8-12.7,15-23.7,18.9-36.2
	c16.2-51.9,32.5-103.8,46.2-156.3c54.2-207.4,165.3-374.4,350.2-486.6c164.9-100,342.3-156.5,538-134.2
	c133.2,15.2,239.9,76,311.6,192.2c55.6,90.1,82.6,189.7,93.8,293.7c14.8,137.2,8.9,273.8-18.4,409.4
	c-42.8,212.5-115.6,412.8-237.3,593.6c-5.7,8.5-10.5,17.5-16,26.9c56.1,29.2,110.2,56.5,163.4,85.3c73.9,40.1,145.9,83,191.1,158.1
	c1.7,2.9,6.3,4.1,12.2,7.7c27.8-44.8,55.9-87.6,81.4-131.8c104.7-181.6,181.4-374.2,226.1-579.5c28.1-129.1,49.3-259.2,51.3-391.5
	c1.1-75.2-0.9-150.8-7.1-225.8c-15-180.8-62.9-351.8-161.3-506.4c-88.7-139.4-209-241.2-362-303.7c-141.1-57.6-289-76.5-439.9-71.6
	c-193,6.3-379.9,44.1-559.2,116.9c-149.6,60.7-286.8,141.6-407.6,249.5c-110.1,98.3-197.8,212.9-257.1,348.4
	c-74.4,170-92.9,348.5-79.3,531.7c0.2,2.7,2.7,5.3,5,9.5c9-1.2,18.3-1.7,27.2-3.8c39.2-9.4,78.8-10.6,118.5-4.6
	c31.3,4.7,61.6,13.3,84.8,36.8c16.6,16.8,16.4,30.7-2.4,44.7c-11.5,8.6-25.2,14.7-38.7,19.9c-40.1,15.5-82.2,13-124.1,12.4
	C1513.7,1874.1,1499.2,1874.3,1479.6,1874.3z M1891,726.6c-11.3-7.6-19.2-14.3-28.2-18.6c-58.5-27.9-116-58.6-176.2-82.2
	c-244.7-95.8-496.4-140.3-759.4-97.4c-271.8,44.3-472.9,187-601.1,430.7c-69.2,131.5-104.2,273.6-119.4,420.3
	c-15,145.1-13.9,290.4,5,435.5c39.7,305.4,134.5,590.9,303.7,849.9c4.3,6.5,9.5,12.4,16.9,22c36.8-82.5,103.2-129.1,177.1-166.2
	c50.4-25.3,102.8-46.6,154.3-69.7c7.2-3.2,14.3-6.8,23.5-11.1c-5.8-11.2-10.6-20.3-15.1-29.5c-31.8-63.6-66.6-125.9-94.6-191.1
	c-66.3-154.8-108.9-316.1-126.9-484c-14.5-135.4-13.1-269.4,20.3-402.2c16.5-65.3,38.7-128.4,75.5-185.1
	c81.9-126.3,200.9-189,349.2-197.5c153.5-8.8,296.3,31,431.8,100.8c9,4.6,18.2,8.8,29.3,14.2C1644.8,929.1,1756.6,819.1,1891,726.6z
	 M1976.2,1799.8c27.5,6.2,31.8,5.7,49.2-3.9c36.5-20.2,53.1-51.2,53.8-92.6c0.3-17.8,8.8-24.5,22.5-24.1
	c14.5,0.5,25.3,10.6,24.2,26.9c-1.1,16.5-4.4,33.3-9.1,49.2c-14.8,49.4-46.9,80.7-98.9,89c-14.4,2.3-29.2,3.7-43.7,3
	c-18.8-1-30.4,5.1-40.1,22.3c-13.8,24.5-29.7,48.2-47.5,69.9c-72.9,89-159.8,162.2-256.5,224.4c-145,93.2-302.1,162.2-460.4,228.3
	c-120.6,50.3-242.2,98.3-362.7,148.9c-57.9,24.4-113.1,54.6-162.6,94c-73.5,58.5-86.6,153.6-32,229.1c17.7,24.5,41.9,40.2,68.8,52.9
	c56.8,26.9,116.6,21.2,175.9,15c91.8-9.7,180.4-35,269.3-58.9c279.6-75.2,550.2-173.3,805.4-311.7c141.1-76.5,267.1-172,376.1-290
	c102.7-111.3,175.8-238.8,212.9-386.1c2.1-8.2,2.6-16.8,4.2-27.6c-17,4.5-29,7.9-41.2,10.8c-59.5,14.4-118.3,11.4-175.9-8.6
	c-11.5-4-22.9-11-31.7-19.4c-16.6-15.9-16.4-31.7,1.9-45.2c15.7-11.6,33.6-23.2,52.1-27.2c61.1-13.1,122.5-15.9,181.8,10.4
	c7.1,3.1,15,4.4,22.8,6.5c35.2-232.6-56.8-521.9-172.6-639.7c-6.7,3.7-14.7,6.7-20.9,11.8c-36.6,29.5-75.4,56.9-108.7,89.9
	c-105.1,103.9-166.5,231.9-197.7,375c-11.6,53.4-25.7,105.6-50.3,154.7C1980.9,1783.9,1979,1791.9,1976.2,1799.8z M1526.8,2156.6
	c-84.8-165.2-134.7-335.6-133.7-520c1-183.7,48.3-355,129.5-516.9c-5.1-4.8-7-7.6-9.6-9c-142.5-76.5-292.7-119.2-455.7-96.4
	c-111.8,15.7-199.4,72.4-260.1,168.4c-55.6,87.8-80.7,185.5-90.1,287.8c-12.6,136.6-1.3,271.8,26.5,405.8
	c35.6,171.2,90.1,335.3,181,485.8c10.2,16.8,20.7,33.5,33,53.5C1143.1,2334.5,1340.1,2261.9,1526.8,2156.6z M2949,2443.4
	c3.6-3.9,7.8-7.1,10.5-11.3c24.2-37.9,50.7-74.7,71.9-114.2c140.5-262.1,211.4-540.4,191.4-839.3c-5.7-84.4-24-165.8-58.7-242.9
	c-59.5-132.2-161.1-209.1-306.4-222.4c-148.1-13.6-286.5,23.4-418.4,88.4c-7,3.4-13.1,8.8-17.4,11.7
	c223.6,342.6,239.8,691.4,46.7,1051.8C2621.8,2269.2,2783,2359.1,2949,2443.4z M814.2,3001.3c24.4,21.7,42.5,38.9,61.7,54.7
	c107.9,89,225.7,162.3,352.8,220.9c167.7,77.4,343.5,126.1,526.6,147.1c124,14.2,248.3,16.3,373.1,8.2
	c133.3-8.7,263.7-31.6,391.2-70.6c193.3-59,368.8-152.6,527.5-277.7c6.1-4.8,10.7-11.6,19.6-21.5c-31.2-6.7-57.6-11.6-83.6-18.1
	c-144.7-36.2-281.4-94.5-417.9-153.1c-17.8-7.7-31.8-8.8-49.8-0.1c-129.4,62.5-265.8,100.4-409.3,112.1
	c-238.5,19.3-464.5-26.8-678.5-132.4c-23-11.3-42-12.6-65.2-4.6c-142.6,49.2-288.4,86.6-436.2,116.4
	C891.9,2989.6,857,2994.2,814.2,3001.3z M2066.4,2553.7c11,7.8,16.6,12.3,22.7,15.9c58.9,36,117.1,73.2,177,107.5
	c177.4,101.6,362.9,185.7,555.5,253.9c92.6,32.8,185.7,64.1,284.1,76.1c46,5.6,89.8,0.4,132.2-16.9c69-28.3,105.4-95.6,93.5-169.7
	c-10.4-64.7-45.1-113.8-96.6-152.3c-66.6-49.8-140.9-86.3-215-122.7c-194.6-95.5-385.2-197.9-564.9-319.7
	c-6.6-4.5-14.2-7.6-23.9-12.7C2332.6,2350.1,2207.8,2457,2066.4,2553.7z M1486.8,2822.7c-0.2,2.9-0.4,5.8-0.6,8.8
	c139.4,66.4,286.4,106.6,441,115c185,10.1,363.6-19.2,538.1-99c-11.8-7-19.2-12-27-16.1c-66-34-133.3-65.7-197.7-102.4
	c-71.8-40.8-141.2-85.8-211.1-129.7c-14-8.8-25.1-11-40.1-2.2c-146.6,86.1-303,151-461.9,210
	C1513.7,2812.2,1500.3,2817.5,1486.8,2822.7z M1437.1,1826.4c7.6,4.1,14.4,8.8,22,11.7c58.6,22,118.5,20.8,178.7,8.4
	c11.1-2.3,21.8-7.5,31.8-13c17.6-9.6,18.1-21.9,2-33.6c-4.2-3-8.9-5.5-13.8-7.2c-64.6-22.5-129.2-20.4-193.3,1.7
	C1451.7,1798.7,1439.5,1805.6,1437.1,1826.4z M2407.6,1860.2c33.9-2.9,65.8-7.8,95.8-21.4c9.7-4.4,23.8-11.7,25.2-19.5
	c2.6-14.4-13.9-19.6-24.9-23.5c-42.9-15.1-87.2-23.3-132.5-15.7c-21.3,3.6-42.5,10.8-62.4,19.3c-8.1,3.4-12.8,14.6-19.1,22.2
	c7,5.5,13.2,13.9,21.1,16.1C2342.7,1846.2,2375.3,1852.8,2407.6,1860.2z"/>
<path d="M1607.9,1487.4c70.5-0.1,127.7,54.2,129.1,122.5c1.4,71.8-59.2,134.8-129,134.3c-66.8-0.5-125.7-61.7-125.9-130.7
	C1481.8,1539.2,1533.5,1487.5,1607.9,1487.4z M1683.8,1572.6c1.5-19-12.1-34-31.4-34.8c-20.3-0.9-38.8,15.3-40.3,35.2
	c-1.4,18,11.3,34,27.7,34.9C1661.8,1609.1,1682.3,1592.7,1683.8,1572.6z"/>
<path d="M2397.9,705.1c-18.3,0.5-31.8-12.6-31.4-30.4c0.4-16.6,15.6-32.2,31.4-32.3c15.2,0,29.6,14.5,29.6,29.8
	C2427.5,690.5,2414.7,704.7,2397.9,705.1z"/>
<path d="M3299.5,730.3c15.7,0.8,29,15.5,28.6,31.7c-0.4,17.1-16.5,31.9-33.3,30.4c-14-1.3-28.5-18.9-27.4-33.4
	C3268.6,743.8,3284.6,729.5,3299.5,730.3z"/>
<path d="M3429.5,1676.7c-0.9,16.4-14.9,28.2-32.2,27c-16.3-1.1-30.1-16.3-28.4-31.4c1.7-15.3,18.2-29.8,32.4-28.3
	C3416.4,1645.6,3430.3,1661.6,3429.5,1676.7z"/>
<path d="M3370.7,2375.5c18.9-0.1,29.6,10.3,29.6,28.6c-0.1,15.6-14.1,30.3-29.5,31c-15.6,0.7-29.4-13.5-29.3-30.2
	C3341.6,2387.2,3353.1,2375.6,3370.7,2375.5z"/>
<path d="M2815.3,669.3c-0.4,16.2-14.5,29.8-30.3,29.2c-17-0.6-28.9-13.2-28.7-30.4c0.2-16.9,13.3-32,27.9-32.1
	C2799.5,636,2815.7,653.4,2815.3,669.3z"/>
<path d="M1916.4,1346.9c-17.2,0-30.8-13-29.9-28.5c0.8-13.9,14.7-28.5,27.9-29.2c16.7-0.9,33.1,14.3,32.8,30.4
	C1946.8,1336.6,1935.1,1347,1916.4,1346.9z"/>
<path d="M3579.5,1949.6c-0.1,16.5-15.1,30.3-33.2,30.5c-14.1,0.2-27.6-13-28.4-27.6c-0.8-16.7,13.9-31.5,31.4-31.5
	C3566.4,1921,3579.6,1933.5,3579.5,1949.6z"/>
<path d="M1892,996.5c-17.1,0-28.3-11.8-28.3-29.9c0-16.8,13-31.2,28-31.3c16.4,0,31,15.8,30.3,32.9
	C1921.3,985.6,1909.8,996.5,1892,996.5z"/>
<path d="M2249,974.8c-16.3,0.7-31-12.2-31.5-27.8c-0.6-16.5,14.9-32.5,31.3-32.3c14.5,0.1,27.1,13,27.5,28.2
	C2276.7,959.9,2264.6,974.1,2249,974.8z"/>
<path d="M3618.4,1538.3c-15.1,0.6-27-11-28-27.2c-0.9-16.6,11-30.9,26.8-32.2c15.4-1.3,31.8,12.4,32.3,26.8
	C3650.2,1522,3635.2,1537.6,3618.4,1538.3z"/>
<path d="M3151.2,2390.5c15.8-0.7,31.5,13.3,31.3,28c-0.1,14.2-13.6,29.2-26.7,29.6c-17,0.5-32.2-11.7-33-26.4
	C3122,2406.2,3135.6,2391.2,3151.2,2390.5z"/>
<path d="M3085.1,886.7c0.6,17.7-10.8,31-27,31.3c-15.1,0.3-28.6-11.5-29.8-26c-1.4-15.7,14.7-33.9,29.7-33.8
	C3072.6,858.4,3084.6,871,3085.1,886.7z"/>
<path d="M3407.6,1229.6c15.2,0.2,30.1,15.5,29.9,30.8c-0.1,15.6-14.7,29.3-31,29.2c-15.5-0.1-27.4-12.3-27.6-28.3
	C3378.7,1245.1,3392.9,1229.4,3407.6,1229.6z"/>
<path d="M3343,2137.9c-17.4,0-29-12.4-28.3-29.9c0.7-16.9,13.5-28.6,30.9-28.1c15.9,0.4,28.4,12,28.9,26.9
	C3375,2125,3361.9,2137.9,3343,2137.9z"/>
<path d="M2631.1,858.9c0.5,15.7-13.8,29.9-29.7,29.5c-15-0.4-27.1-12.6-28-28.1c-0.9-17,11.3-30.8,27.7-31.2
	C2616.5,828.8,2630.6,842.8,2631.1,858.9z"/>
<path d="M1675.1,1298.9c0.6-16.5,14-30,29.5-29.6c15.9,0.4,30,14.4,29.8,29.7c-0.2,16-13.7,29.1-30,29.1
	C1687.2,1328.1,1674.5,1315.4,1675.1,1298.9z"/>
<path d="M3471.2,1031.7c-0.9,15.5-15.4,27.9-32.3,27.7c-15.4-0.3-26.8-13-26-28.9c0.9-16.6,12.3-28.1,27.8-27.9
	C3457.5,1002.8,3472.1,1016.7,3471.2,1031.7z"/>
<path d="M529.9,1494.4c18.7,0.8,33.9,14.7,33.3,30.7c-0.6,15.6-17.7,31-34.2,30.5c-18.2-0.5-30.7-14.5-29.7-33.3
	C500.2,1504.1,511.7,1493.6,529.9,1494.4z"/>
<path d="M435.9,2250.8c-17.7-0.1-30.5-13.5-30.3-31.8c0.2-15.6,13.9-30.1,29.2-30.8c16.4-0.7,32,14.6,31.9,31.3
	C466.5,2238.1,453.9,2250.9,435.9,2250.8z"/>
<path d="M1599.2,786.7c-16.1-0.2-28.6-14.5-27.6-31.7c0.8-15.2,15.8-30.4,30.4-30.9c16.7-0.5,32.3,15.6,31.2,32.3
	C1632.1,773.3,1616.7,787,1599.2,786.7z"/>
<path d="M634.1,2128.8c-15.3,0.1-27-11.7-27.7-28c-0.8-18.1,12.7-32.7,30.4-32.8c16.7-0.1,31.4,12.9,32,28.2
	C669.5,2114.3,654.1,2128.7,634.1,2128.8z"/>
<path d="M298.8,1593.4c15.7-0.7,32.8,15.6,32.8,31.2c0,15.5-14.1,29.5-30,29.5c-16.8,0.1-30.3-12.5-30.8-28.6
	C270.4,1609.9,284.1,1594.1,298.8,1593.4z"/>
<path d="M427,1894.6c17.8-0.3,32.4,13.4,32.7,30.5c0.2,16.8-14.7,31.2-32.2,31c-16.3-0.2-28.4-13.1-28.5-30.7
	C398.9,1907.8,410.6,1894.9,427,1894.6z"/>
<path d="M1102.4,664.6c-17.7,0.3-29.3-11.3-29.2-29.2c0.1-16.8,13-32.2,27.4-32.6c15.4-0.5,30.7,13.4,31.6,28.8
	C1133.2,649.2,1119.6,664.3,1102.4,664.6z"/>
<path d="M620,2477.5c0.8,15.9-14.9,34.6-29.2,34.7c-16,0.2-30-13.4-30.1-29.3c-0.2-17.8,13.5-32.1,30.7-32.2
	C606.6,2450.7,619.3,2462.6,620,2477.5z"/>
<path d="M458.7,1195.5c-0.6,16.9-12.5,27.8-30.6,28c-16.8,0.1-29.3-12.4-29.3-29.4c0-19,12.8-32.4,30.3-31.6
	C446.5,1163.3,459.4,1177.6,458.7,1195.5z"/>
<path d="M637.6,787.4c-0.9,14.5-17.6,29.6-31.7,28.7c-16.3-1.1-30.3-18.2-28.5-34.8c1.7-16.2,13.6-26.9,28.9-26.1
	C624.2,756.2,638.6,771,637.6,787.4z"/>
<path d="M1374.3,854.8c0.6,15.5-12.4,30.1-28.2,31.5c-14.7,1.4-30.1-12.4-31.4-28.1c-1.3-16.3,13.8-33.4,29.5-33.4
	C1358.7,824.8,1373.7,839.8,1374.3,854.8z"/>
<path d="M881.1,880.3c-15.2-0.4-27.9-15.1-27.5-31.8c0.4-17.2,13.8-30.1,29.8-28.8c16.2,1.3,29.2,15.6,28.3,31.3
	C910.8,866.9,896.4,880.7,881.1,880.3z"/>
<path d="M650.7,1054.7c16.5-0.8,31.6,12.3,32,27.7c0.4,14.4-14.5,31.1-28.8,32.3c-16.3,1.4-30.8-11.8-31-28.2
	C622.5,1069,634.4,1055.5,650.7,1054.7z"/>
<path d="M2357.3,1488.5c71.2-0.2,132.4,56.6,132.9,123.4c0.4,65.2-66,133-130.5,133.3c-66.1,0.3-128.7-64.3-129.1-133.1
	C2230.2,1542.4,2285.3,1488.7,2357.3,1488.5z M2361.8,1572c-0.3,19.7,13.6,35.4,31.8,35.6c22.5,0.3,42.2-17.4,42.1-37.8
	c-0.1-17.8-18.6-34.4-38-34.1C2378.6,1535.9,2362.1,1552.6,2361.8,1572z"/>
<path d="M1500.1,2325.3c17.8-0.3,31.5,12.9,31.8,30.7c0.3,18.1-12.7,31.6-30.6,31.8c-16.5,0.2-29.7-12.4-30.1-28.7
	C1470.8,2341.5,1484.5,2325.5,1500.1,2325.3z"/>
<path d="M2007.6,2169.2c16.7,0.5,32.6,16.6,32,32.3c-0.7,17.4-15.6,30.6-33.5,29.6c-16-0.8-27.9-12.6-27.9-27.8
	C1978.1,2184.8,1992,2168.8,2007.6,2169.2z"/>
<path d="M1104.6,2551.7c-0.3,17.8-11.9,29.9-28.9,30.3c-15.8,0.4-28.9-13.1-29.2-30c-0.3-17.3,14.3-34.7,29.3-34.9
	C1091.3,2516.9,1105,2533.3,1104.6,2551.7z"/>
<path d="M765.7,2697c-0.8,16.7-14.1,29.5-30.6,29.5c-15.8,0-32.7-17.5-31.6-32.8c1.1-15.1,17.3-28.7,32.9-27.7
	C753.3,2667.3,766.5,2681.1,765.7,2697z"/>
<path d="M2293.7,2063.5c-18,0.6-32.7-13-32.4-30.3c0.2-14.8,14.8-28.2,31.4-28.7c17.6-0.6,30.3,10.6,31.4,27.7
	C2325.3,2051,2313.8,2062.8,2293.7,2063.5z"/>
<path d="M1362.9,2629.4c-0.9,17.4-16.1,30.8-33.2,29c-15-1.5-25.4-14-25.2-30c0.3-18.2,15.1-32.8,31.3-31
	C1352,2599.2,1363.7,2613.1,1362.9,2629.4z"/>
<path d="M961.6,2801.2c0.7,18.8-11.6,31.3-30.8,31.2c-14.9-0.1-27.6-12.3-28.5-27.4c-1-17.6,12.9-33.3,29.6-33.4
	C947.9,2771.4,961,2784.5,961.6,2801.2z"/>
<path d="M1816.3,2452.5c-1.3,17.3-13.4,28.1-31,27.6c-15.5-0.4-28.6-15.2-27.7-31.2c1-17.3,16.5-31,33.3-29.3
	C1806.9,2421.3,1817.6,2435.1,1816.3,2452.5z"/>
<path d="M2450.8,3123.6c-16.5-0.7-28.7-14.5-27.8-31.4c0.9-16.9,17-32.6,32.5-31.6c14.3,0.9,28.7,17.2,28.5,32.3
	C2483.7,3109,2467.1,3124.3,2450.8,3123.6z"/>
<path d="M2876.7,3088.3c-1.5,18.2-13.2,28.8-30.6,27.9c-16.6-0.8-30.8-14.9-30.1-29.6c0.8-16,17.5-30.6,34.2-29.9
	C2867,3057.4,2878.2,3070.8,2876.7,3088.3z"/>
<path d="M1127.3,3086.6c15.6,0.1,29.9,14.7,29.5,30.2c-0.5,17.7-14.8,31.8-31.9,31.3c-15.5-0.5-27.8-12.6-27.9-27.6
	C1096.9,3103.6,1112.2,3086.5,1127.3,3086.6z"/>
<path d="M2109.1,3159.9c-14.7,0.1-27.5-12.5-28.1-27.7c-0.7-17.5,14.2-33.2,30.7-32.4c15,0.7,29.3,16.4,28.6,31.5
	C2139.6,3146.9,2125.5,3159.8,2109.1,3159.9z"/>
<path d="M2698.5,3195.2c-0.4,15.5-15.3,29.5-31.2,29.2c-15.1-0.3-29.1-16-28.4-31.9c0.7-15.8,16.4-30.8,30.9-29.5
	C2685.3,3164.2,2698.9,3179.5,2698.5,3195.2z"/>
<path d="M1550.5,3287.1c-14.7-0.1-28.7-15.4-28.8-31.6c-0.1-14.7,13.2-29.3,27-29.8c16.7-0.5,32.7,15.1,32.4,31.8
	C1580.9,3273.7,1567,3287.1,1550.5,3287.1z"/>
<path d="M1314.2,3047.5c-16,0.8-30.4-11.9-31.8-27.8c-1.3-15.3,12.9-31.1,28-31c15.7,0,30.6,13.3,31.9,28.4
	C1343.8,3033.2,1331.3,3046.7,1314.2,3047.5z"/>
<path d="M1614,3047.9c-0.1,15.6-15.1,30.4-29.9,29.4c-13.6-0.8-26.2-15.2-26.6-30.1c-0.4-17,12.6-30.8,28.5-30.3
	C1602.8,3017.5,1614.1,3030,1614,3047.9z"/>
<path d="M1818.7,3145.9c-14.5,0.2-28.4-12.8-28.7-26.9c-0.3-14.3,15.1-30.3,29.7-30.9c14.9-0.6,30.3,14.7,30,29.7
	C1849.4,3134.1,1836.6,3145.6,1818.7,3145.9z"/>
<path d="M1978.2,3294.7c-0.2,16.5-14,30.1-29.9,29.4c-13.4-0.6-25.4-12.9-25.9-26.5c-0.6-16.4,13-30.9,28.6-30.6
	C1966.9,3267.3,1978.4,3279,1978.2,3294.7z"/>
<path d="M2286.2,3348.7c-14.4,0.8-29-11.6-30.6-26c-1.7-15.3,9.9-29.8,24.5-30.8c16.1-1.1,31,11.7,32.3,27.6
	C2313.7,3334.7,2301.8,3347.9,2286.2,3348.7z"/>
<path d="M2820.3,2641.8c-0.1,16.6-13.1,32.3-27,32.7c-16.8,0.4-31.1-14.8-30.7-32.5c0.4-16.5,13.7-30.2,29.4-30.3
	C2808.9,2611.5,2820.4,2623.8,2820.3,2641.8z"/>
<path d="M3223.7,2804.9c-15.1-0.6-27.1-13.9-26.3-29c0.9-16.3,15.3-29.9,30.9-29.1c14.6,0.7,28.8,14.6,28.5,28
	C3256.5,2791.6,3241.2,2805.6,3223.7,2804.9z"/>
<path d="M2557.5,2489.4c-17.6,0.2-29.2-11.3-29.1-28.9c0.1-16.7,13-29.5,29.7-29.2c16.7,0.3,29.7,13.3,29.5,29.6
	C2587.2,2477.7,2575.2,2489.2,2557.5,2489.4z"/>
<path d="M2987.4,2873.7c-17.1,0-30.6-13.3-29.9-29.4c0.7-16.2,14.8-29.5,30.7-28.9c16.3,0.6,28.2,12.3,28.1,27.5
	C3016.2,2859.7,3003,2873.8,2987.4,2873.7z"/>
<path d="M2320.3,2537.2c17.1,0.7,30.6,16.5,29,33.9c-1.4,15.4-13.4,25.4-30,25.2c-15.9-0.2-26.9-11.8-26.7-28
	C2292.9,2550.1,2305,2536.5,2320.3,2537.2z"/>
</svg>
