<?xml version="1.0" encoding="utf-8"?>
<!-- Generator: Adobe Illustrator 24.3.0, SVG Export Plug-In . SVG Version: 6.00 Build 0)  -->
<svg version="1.1" id="Layer_1" xmlns="http://www.w3.org/2000/svg" xmlns:xlink="http://www.w3.org/1999/xlink" x="0px" y="0px"
	 viewBox="0 0 4000 4000" style="enable-background:new 0 0 4000 4000;" xml:space="preserve">
<path d="M1885.5,785.1c-4.9-24.2-8.6-44.6-13.1-64.9c-34.2-155.5-103-294.4-200.9-419.3c-10.7-13.6-21-27.7-30.3-42.3
	c-14.8-23.1-13-47-0.2-70.3c4.8-8.7,10.8-17.1,17.6-24.4c37.3-39.7,83.1-65.2,135.9-78.2c39.9-9.8,70.8,5.4,92,38.4
	c26.6,41.5,52,83.9,75.7,127.1c28.5,52.2,51.7,107,69.2,164c1.5,4.9,4.1,9.5,8.5,19.3c6.8-11.2,11.8-18.3,15.6-25.8
	c56-109.6,138.2-192.4,250.5-244c134.6-61.9,274.6-71.6,418.2-41.4c60.4,12.7,69.4,27.7,63.4,89.6c-9,94.2-34.1,183.3-81.7,265.3
	c-72,124.1-177.5,207.7-313.9,251c-47.7,15.1-97.4,23.8-145.3,35.3c1.1,0.6,4.7,3.6,8.9,4.8c152.2,44.9,249.5,150.1,316,288.5
	c48,99.9,72.6,206.7,87.9,315.9c8.8,62.5,16.9,125,25.7,187.5c19,135.9,63.9,262.7,137.5,378.6c35.3,55.6,72.4,110,109.4,164.4
	c85.7,125.6,154.8,258.9,189.7,408c25,106.6,34.6,214.5,28.6,324c-4.9,88.9-14.1,176.9-39.7,262.4
	c-87.4,291.9-271.5,497.3-554.4,611.1c-133.2,53.6-271.8,62.3-412.5,34.1c-24.2-4.9-48.4-9.8-72.2-16.3
	c-53.3-14.6-105.9-13.5-159.8-1c-56,13-112.7,24.2-169.7,30.8c-124.6,14.4-244.3-8.7-358.8-57.8
	c-131.7-56.4-244.2-139.6-335.2-250.6c-101-123.2-167.2-263.5-201.3-418.9c-32.5-148.1-35.9-297.5-14-447.3
	c22.9-156.4,81.8-299.2,168-431c35.5-54.3,72-108.1,109.4-161.1c84.9-120.3,135.6-253.8,161-398.3c18.5-105.3,37.5-210.6,61.4-314.7
	c31.3-136.3,94-257.1,193.7-357c66.2-66.3,144.1-112.5,236.9-129.5c30.3-5.6,61.9-4.2,92.8-5.8
	C1864.8,784.7,1873.6,785.1,1885.5,785.1z M2081.1,925.9c6.2,0,12.3,0.5,18.2-0.1c12.7-1.4,25.3-4.4,38.1-4.8
	c11.8-0.4,21.2,5.4,24.5,17.9c3,11.3-1.7,20.1-11,25.7c-6.9,4.2-14.8,7.1-22.6,9.2c-30.6,8.2-61.7,7.2-92.6,2.9
	c-58.2-8.1-109.3-34.3-159.2-63.8c-9.8-5.8-21.6-11.5-32.5-11.5c-46.1,0.4-90.6,9.2-132.3,30.7c-64.7,33.5-117,80.8-159.8,139.3
	c-61.1,83.7-95.9,178.6-116.3,278.9c-20.3,100.3-35.2,201.8-55.4,302.1c-27,133.8-74,260.1-150.9,374
	c-42.5,62.9-85.5,125.4-127.5,188.6c-48.9,73.4-89.6,151.1-115.6,235.7c-54.2,176.7-60.6,356.2-26.8,537.2
	c25.8,138.3,83.1,263,171.2,372.6c73.7,91.7,163.2,165.1,269.2,216.9c96.2,46.9,198,72.2,305.2,63.4c55.3-4.5,110-17.1,164.5-28.6
	c53.9-11.4,107.8-22.6,162.9-13.6c38.7,6.3,77.3,14.4,115.3,24.1c89.4,23,179.4,26.1,268.9,4.5c243-58.4,418.1-204.2,528.3-426
	c87.8-176.8,101.6-366.4,79.7-559.8c-16.9-149.1-69.5-285.5-150.8-410.9c-42.8-66-89.2-129.5-132.1-195.4
	c-86.4-132.7-145.8-276.3-169.8-433.4c-13.3-86.8-24.2-173.9-38.3-260.5c-14.7-90.6-38.9-178.6-83.4-259.9
	c-26.1-47.9-59.4-90.2-99.8-126.5c-58.7-52.7-130-76.4-207.1-84.8c-19.7-2.1-39.5-3-62.2-4.7C2081.1,887,2081.1,905.5,2081.1,925.9z
	 M2080.7,680.6c11.2,2.2,16.2,3.9,21.3,4c89,1.4,177-4.2,262.2-33.4c98.4-33.8,182.5-87.5,244.8-172.3
	c50.9-69.2,77.1-148.6,94.3-231.6c0.8-3.8-1.1-8.2-2-14.4C2460.1,334.3,2265.4,495.5,2080.7,680.6z M2662,195
	c-153.5-21.4-291.5,6.4-413.6,99c-96.4,73.2-188,244.6-178.3,330.4c60.3-54.9,119.5-110,179.9-163.7
	c61-54.2,126.4-102.9,196.3-144.8C2515.6,274.3,2587.3,236.6,2662,195z M1725.8,225.8c5.6,8,8.1,11.9,10.9,15.5
	c53.6,67.7,97.5,141.4,134.7,219.1c64.2,134.2,103.2,275.2,111.1,424.2c0.5,10.4,1,21.5,14.5,22.5c15.1,1,14.3-11.9,14.8-21.3
	c4.6-81.4,5-162.8-8.7-243.5c-26.7-156.8-81.8-303.1-164.7-438.9c-6.6-10.8-14-21.1-22.1-33.1
	C1782.8,184.4,1754.9,203.8,1725.8,225.8z"/>
<path d="M2383.7,3542.2c-15,1.7-21.7-3.2-24.3-13.6c-2.7-10.6-2.2-20.4,9.5-25.4c5.8-2.5,12.1-3.8,18.3-5.5
	c215-58.4,359.7-194.7,442.7-399.4c3.4-8.5,6.6-17,10.1-25.5c5.2-12.7,15-14.9,27-11.1c12.6,4,17.2,10.9,11.6,25.8
	c-13.6,35.8-26.4,72.5-44.4,106.1c-78,145.1-191,253.3-344.6,316c-30.3,12.4-62.5,20.2-93.9,30
	C2390.4,3541.2,2384.9,3541.9,2383.7,3542.2z"/>
<path d="M1975.6,3086.9c-34.8,0.1-77.4-13.9-114.6-43.4c-25.9-20.6-42.4-47.4-52.3-78.6c-3.9-12.2-3-23.5,5.3-33.6
	c13.4-16.3,34.3-15.3,46,2.5c4.5,6.8,7.3,14.7,11,22c24.5,49.4,65.6,73.2,119.5,71.4c52.1-1.8,92.9-24.5,114.7-74.6
	c1.8-4.2,3.4-8.5,5.5-12.5c8.7-16.9,19-21.3,35.5-15.6c15.3,5.4,22.2,17.1,18.1,35c-7.1,31-21.8,58-45.7,79.5
	C2081.6,3072.1,2037.7,3087.2,1975.6,3086.9z"/>
<path d="M1529.9,2730.7c49.3,0.4,90.7,42,90.8,91.1c0,52.6-40.8,92.3-94.9,92.4c-51,0.1-90.3-38.9-90.5-89.9
	C1435.1,2773.3,1478.6,2730.2,1529.9,2730.7z"/>
<path d="M2446.1,2912.9c-51.5-0.2-89.6-38.8-89.1-90.2c0.5-50.3,42.7-92.2,92.8-92.1c50.2,0.2,93.4,43.1,92.6,92.1
	C2541.6,2875.8,2501.7,2913.1,2446.1,2912.9z"/>
<path d="M1076.6,2592.7c6.3-28.5,10.9-53.7,17.5-78.3c24.8-92.7,67-177.6,120.7-256.5c46.8-68.6,96.6-135.2,145.1-202.7
	c2.1-3,4.5-5.8,6.9-8.5c8.2-9.2,18.1-12.5,29.4-6.3c9.9,5.4,12.3,18.3,4.3,31.4c-9.4,15.6-20.7,30.1-31.2,45
	c-52.1,73.8-106.6,146.1-155.7,221.8c-45.5,70.1-74.6,148.2-91.3,230.4c-1.8,8.9-3.9,17.9-6.5,26.6c-3.4,11.2-11.8,17.9-22.7,13.7
	C1086.2,2606.7,1081.7,2598.1,1076.6,2592.7z"/>
<path d="M1529,1357.3c1.2-6.3,2.2-12.6,3.6-18.8c19.7-86.4,53.5-166.5,106.7-237.8c25.9-34.7,57.9-63.1,95-85.6
	c7-4.2,14.5-7.7,22-10.9c9-3.9,18.4-4.7,24.6,4.5c6.9,10.2,5.9,20.9-2.7,30c-3.1,3.2-7.1,5.8-11,8c-73,41.5-120.6,105.1-152.7,180.5
	c-16.4,38.4-27.5,79.1-40.9,118.8c-2.3,6.9-3.6,14.2-6.3,20.9c-3.8,9.5-10.6,14.9-21.5,11.9C1535.1,1375.9,1527.7,1370,1529,1357.3z
	"/>
<path d="M1105.2,2747.6c0,12.8-0.1,25.6,0,38.4c0.2,13-8.6,17.4-19.1,19.2c-12.1,2.1-21.1-4.7-21.7-15.7c-1.5-30-1.4-60.2-0.7-90.3
	c0.2-11,9.5-15.2,19.5-14.9c10.7,0.4,20.7,3.8,21.3,16.6c0.8,15.5,0.2,31.1,0.2,46.6C1104.9,2747.6,1105.1,2747.6,1105.2,2747.6z"/>
<path d="M2916.6,2903.6c-3.1,18-5.8,36-9.4,53.9c-2.3,11.2-8.9,17.4-21.5,15.8c-12.7-1.6-17.5-9.2-16.6-20.7
	c2.1-25.5,4.5-50.9,7.5-76.3c1.5-12.9,9.5-19.3,22.9-17.6c13.6,1.7,18.6,10,17.6,22.9c-0.6,7.3-1,14.6-1.5,21.9
	C2915.9,2903.5,2916.2,2903.6,2916.6,2903.6z"/>
<path d="M1544.7,1475.1c-2.1,10.8-4.6,28.8-9.1,46.3c-3.8,14.7-10.6,17.9-23.6,15.1c-12.7-2.7-15.6-11.7-14.2-22.5
	c2.3-18,4.7-36,8.7-53.6c3.9-17.2,11.2-22.3,23.5-19.9C1542,1442.8,1545.9,1449.9,1544.7,1475.1z"/>
</svg>
