<?xml version="1.0" encoding="utf-8"?>
<!-- Generator: Adobe Illustrator 24.3.0, SVG Export Plug-In . SVG Version: 6.00 Build 0)  -->
<svg version="1.1" id="Layer_1" xmlns="http://www.w3.org/2000/svg" xmlns:xlink="http://www.w3.org/1999/xlink" x="0px" y="0px"
	 viewBox="0 0 4000 4000" style="enable-background:new 0 0 4000 4000;" xml:space="preserve">
<path d="M2418.9,451.6c-13.4,32.1,5.2,56.8,31.7,81.7c29.6,27.7,44.2,65.5,54.4,104.2c4.1,15.5,11.8,26.9,24.1,37.2
	c137.5,115,203.1,263.9,204.7,441.6c0.2,28.2,7.5,45.7,30.9,62.2c70,49.3,112.9,119.6,143.2,198c37.6,97.4,47,198.1,32,301.1
	c-3.9,26.7-7.8,53.4-13.3,79.8c-3.1,14.9-1.9,27.7,5.4,41.2c22.8,42,29.8,87.4,26.5,134.7c-5,71.4-46,124.6-114.5,144.4
	c-18,5.2-22.8,15.8-26.7,31.6c-33.3,134.2-67.1,268.4-101.1,402.4c-4.3,17.1-10.3,33.9-16.7,50.4c-18.3,47.7-52.4,79.7-100.1,97.4
	c-6.3,2.3-12.7,4.7-19.2,6.3c-18.1,4.4-26.3,15.6-32.7,33.7c-37.2,104.9-75.1,209.7-115.5,313.4c-61.6,158-125.9,314.9-202.1,466.6
	c-27.3,54.3-54.8,108.6-95,154.9c-33.7,38.8-75.6,64-127.1,72.1c-69.4,10.9-126-13.7-173-63.1c-36.4-38.4-60.3-85.3-84-131.9
	c-77.6-151.9-143.4-309.1-204.6-468.1c-45.4-118-87.1-237.5-129.8-356.6c-5.5-15.2-13.6-22.3-30-25.8c-62-13-107.1-47.6-129.7-108.3
	c-31.8-85.6-54.5-173.8-75.4-262.5c-15.5-65.6-28.1-132-41.9-198c-2.3-10.9-4.9-20.4-16.9-26c-70-32.5-99.9-92.6-109.4-164.9
	c-5.8-44.4,1.5-87.8,23.1-127.5c9.2-16.9,9.5-32.4,5.9-50.8c-31.5-159.6-12.5-310.8,79-448.6c28.1-42.4,61.4-80.6,103.1-110.5
	c13-9.3,17.8-19.3,16.9-35.9c-7.7-150.4,31.4-287.2,121.8-408.4c49.8-66.8,112.7-118.2,187.8-154.4c11.6-5.6,21.6-11.3,26.8-24.7
	c30.9-79.5,93-126.2,168.7-157.9c16.2-6.8,33.5-11.9,50.7-15.2c15.9-3.1,23.9-11,30.3-25.9c42.5-97.6,113.8-164.5,217.1-193.1
	c72.1-20,143.8-15.4,212.7,15.6c75,33.7,119.6,93.5,145.2,169.6C2414.5,370.1,2417.9,407.8,2418.9,451.6z M1612.8,635.6
	c-47.5,22.2-87.9,47.9-123.1,81.3c-91,86.4-139.1,193.9-151.5,317.3c-4.6,46-2.6,92.7-1.4,139.1c0.5,18.5-6.1,29.3-20.5,39.5
	c-25.4,18-51.5,35.8-73.6,57.4c-71.7,70.4-106.2,159-118.3,257c-8.7,70.4-2,140,17.1,208.1c6.3,22.6,3.5,41-11.6,58.7
	c-35.2,41.2-36.5,111.5,1,162.8c24.7,33.7,58.9,47.3,100.1,37.9c21.3-4.8,41.8-12.9,62.7-19.5c37.7-12,63-2.9,84.6,30.2
	c8.3,12.7,15.5,26.2,24.6,38.4c23.6,31.6,57.4,41.7,94.3,27.6c13.3-5.1,25.4-13.1,38-19.9c12.6-6.8,24.9-14.2,37.7-20.6
	c15.2-7.6,29.6-4.9,42.4,5.9c7.7,6.5,15.1,13.5,22.6,20.4c32.1,29.8,67.7,35.2,107.2,16.2c12.2-5.8,24.5-11.4,36.8-16.8
	c27-11.9,52.7-8.6,76.7,8c10.4,7.2,20.4,15,30.5,22.5c14.3,10.5,27.7,22.3,42.9,31.2c59.1,34.7,117.7,37.7,175.1-4.8
	c11.5-8.5,23.8-16.1,36.2-23.3c25.8-14.9,52.9-16,80.3-4.9c11.7,4.7,22.9,10.7,34.4,16.1c49,23.3,94.7,20.2,136.2-16.9
	c3.1-2.8,6.8-5,9.9-7.8c23.6-21,49.4-23,77.5-10c17.6,8.2,35.7,15.2,53.3,23.2c40,18.1,74.1,6.7,104.4-21.2
	c10.5-9.6,19.3-21.2,28.1-32.5c17.1-22,38.3-34.4,67.1-34.1c20.2,0.2,40.5-1.7,60.6-3.9c44.2-4.8,67.6-29.4,73-73.6
	c4.9-39.9-5.1-75.4-29-107.1c-11.1-14.7-13.1-29.4-9.3-47.4c17.4-82.8,29.3-166.1,17.9-251.2c-11.6-86.5-40.8-165-99.7-231
	c-24.4-27.3-51.3-51.3-82.8-70c-19.2-11.4-28.6-26.2-25.7-49.9c2.9-23.4,3.4-47.2,2.6-70.8c-3.3-96.1-32.2-183.9-88.5-262.3
	c-29.2-40.7-63.4-76.2-108.1-103.9c-6.1,6.4-11.7,12.3-17.4,18.2c-20.2,21-42.9,37.4-72.2,44.2c-49.9,11.6-95.3,1.7-137.9-25.2
	c-10.7-6.8-21.6-13.3-32.3-20c-24.1-15.2-47.8-14.2-71.2,1.4c-11.2,7.5-22.3,15.2-33.8,22.3c-71.2,43.8-148.1,27.7-195.2-40.9
	c-5.7-8.3-10.8-17.1-16.3-25.7c-23.6-37.3-43-44.1-85.5-29.7c-6.4,2.2-12.4,5.4-18.8,7.5c-16,5.2-31.9,11.2-48.3,14.8
	c-39.3,8.6-72.2-6.8-91.5-41.6C1621.5,650,1617.6,643.7,1612.8,635.6z M1240,2102.7c1.2,10.6,1.2,16.4,2.5,21.9
	c24,99.2,48.5,198.2,71.9,297.5c4.5,19.1,14.8,27.6,32.9,33c80,24,160.8,43.9,243.4,57.2c120.9,19.4,242.6,30.8,365,32.2
	c70.8,0.8,141.8-0.3,212.4-5.7c81.4-6.2,163-15,243.5-28.4c68.8-11.5,136.2-31.3,204.3-46.8c16.4-3.7,23.4-13.2,27.1-28.8
	c23-96.7,46.8-193.3,70.1-289.9c2.3-9.5,3.3-19.3,5.4-31.7C2224,2219.3,1733.4,2212.7,1240,2102.7z M2194.5,598.6
	c20.3-2,52.1-5.3,83.9-8.4c9.7-0.9,14.8-6.7,18.1-15.2c21.3-53.9,35.7-109.3,28.8-167.7c-9.1-76.6-45-136.3-119.1-165.5
	c-87.6-34.5-165.9-11.6-234.2,48.3c-57.8,50.6-80.6,118.6-87.6,193.1c-1.3,13.8,5.4,22.2,15.2,29.7c28.9,22.4,60.3,39.9,94.6,52.4
	C2055.2,587.8,2118.7,594.3,2194.5,598.6z M2347.9,570.3c-3.2,7-7,14.3-9.8,21.8c-7.5,19.9-22,31.6-42.4,36
	c-14.8,3.2-29.7,6.2-44.8,7.9c-85.2,9.8-168.3-2.6-249.7-26.9c-48-14.3-92.4-36.5-131.5-68.6c-20.4-16.7-31.8-36.7-26.1-64.1
	c1.4-7,1.3-14.4,2.1-23.5c-29.3,0.1-53.3,10.2-77.2,20c-36.6,15-68.3,36.7-90.8,70c-15,22.2-24.4,46.2-22.2,73.6
	c2.4,29.3,28.7,48.7,57,41.6c10.5-2.7,20.5-7.6,30.8-11.3c16.6-6,33-12.8,50-17.4c38.4-10.2,69.8,1.9,93.6,33.4
	c13.2,17.5,24.9,36.1,38.7,53.1c34.7,42.9,83.9,50.9,130.9,21.8c12.9-8,25.2-17,38.1-24.9c37.3-22.7,74.7-23,112.1,0.2
	c16.5,10.2,32.7,20.9,49.8,30c37.7,19.9,75.9,20.2,113.8,0.2c26.4-14,42.8-35.8,45.7-65.6C2418.8,646.3,2384.8,582,2347.9,570.3z
	 M1341,2495.4c7.5,40.8,19.8,55.9,51.3,66.5c8.8,2.9,17.6,6,26.5,8.4c157.8,43.2,318.9,64.8,482,70.5
	c176.6,6.2,352.7-0.9,526.5-35.8c47.8-9.6,94.7-23.8,141.4-38.1c30.7-9.4,46.2-32.2,46.2-60.8c-207.2,62.1-419.8,83.1-634.8,81.2
	C1764.3,2585.3,1551,2563,1341,2495.4z M2124.5,3121.7c66.8-60.7,126.2-124.2,186.6-188.6c-15.1-13.8-28.5-25.2-40.9-37.6
	c-32.1-32.3-63.6-65.2-95.6-97.5c-6.2-6.3-13.6-11.3-21.1-17.4c-62.3,62.8-122.5,123.5-184.5,186
	C2021.2,3018.7,2071.6,3069.1,2124.5,3121.7z M1740,3101.7c5-2.1,9.4-2.9,12.5-5.4c49.3-40.9,98.4-82,147.4-123.2
	c8.4-7.1,6.3-14.3-0.7-21.6c-12.3-12.8-24.5-25.6-36.1-38.9c-35.4-40.7-70.2-81.9-105.7-122.5c-13.5-15.5-17.1-15.8-30.9-3.7
	c-39.3,34.4-78.2,69.4-117.6,103.7c-8.8,7.7-11.9,14.7-7.1,26.3c10.3,25.1,21.7,49.2,39.7,70c27.5,31.9,54.3,64.5,81.4,96.7
	C1728.2,3089.3,1734.1,3095.3,1740,3101.7z M2125.4,2751.2c-8.8-9.9-16.3-17.8-23.1-26.2c-41.9-51.1-23.6-40.2-87.8-40.4
	c-52.2-0.1-104.4-3.2-156.5-5.6c-14-0.6-26.6-1.1-36.5,11.4c-14.6,18.4-30,36.1-46.7,56c50.9,65.1,107.3,125.7,165.3,190.1
	C2003.7,2875.7,2065.6,2816.7,2125.4,2751.2z M2096.5,3151.5c-4.2-5.1-6.5-8.6-9.3-11.4c-37.2-36.7-74.5-73.2-111.7-109.8
	c-9-8.9-17.8-17.9-26.7-26.9c-6.3-6.4-13.2-6.9-20.3-1.5c-5.3,4.1-10.6,8.4-15.7,12.7c-45,38.1-89.9,76.3-134.8,114.6
	c-2.4,2-3.8,5-6.5,8.6c49.5,56.9,101.5,110.1,157.2,163.8C1985.7,3250.6,2040.7,3201.4,2096.5,3151.5z M2122.3,3481.3
	c6.3-9.5,11.2-15.2,14.3-21.7c27.9-59.4,55.3-119.1,83.5-178.4c5.3-11.2,3.3-18.1-5.9-26c-22.4-19.1-44.1-39.1-65.8-59.1
	c-19.9-18.3-20.8-18.5-41.1-0.3c-47.1,42.1-94.1,84.2-141.1,126.4c-2.9,2.6-4.8,6.4-8.8,12C2010,3384.6,2064.3,3431.9,2122.3,3481.3
	z M1821.8,3435.9c10.7,21.3,18.7,39.9,28.9,57.2c17.2,28.9,33.4,58.8,54.3,84.8c38.8,48.2,98.4,52.4,144.2,10.6
	c18.3-16.7,32.1-38.7,47.2-58.8c7.6-10.1,3.9-18.4-6.5-25.2c-10.5-7-20.7-14.6-30.1-23c-40.7-36.6-81-73.5-121.4-110.3
	c-14.5-13.2-16.4-13.7-31.9-1.7c-17.9,13.9-35.3,28.6-53.1,42.7C1843.7,3420,1833.6,3427.2,1821.8,3435.9z M2184.2,2749.6
	c26,35.1,122.9,127.7,154.3,147c15.6-15.2,32.6-30.1,47.6-46.9c8.7-9.8,15.9-21.7,20.7-33.9c12.5-32.2,23.1-65.1,34.7-97.6
	c2.9-8.1,6.7-16.5-0.9-23.4c-14.5-13.2-17.5-37.8-41.3-41.6c-2.4-0.4-5,0.2-7.5,0.6c-43.4,6-86.8,11.5-130.1,18.4
	c-8.4,1.3-17.9,6-23.5,12.2C2219.7,2704.9,2202.7,2726.9,2184.2,2749.6z M1504.7,2635.6c3.7,35.6,63.9,200.7,81.3,222.5
	c42.8-37.6,85.4-75,128.9-113.2c-5.2-8-8.7-13.5-12.4-18.9c-11.3-16.7-23.6-32.8-33.7-50.2c-7.1-12.3-16.2-17.4-30-19.1
	c-27.5-3.4-54.8-8.7-82.2-13.1C1540.2,2640.8,1523.8,2638.5,1504.7,2635.6z M1894.5,3331.2c-9.4-10.7-16.3-18.9-23.5-26.8
	c-39.9-43.3-80-86.4-119.8-129.8c-11.8-12.8-16.4-14-29.8-5.6c-13,8.2-14.9,13.9-8,29.2c25.1,56,50.3,112,75.6,167.9
	c4.4,9.7,9.4,19.2,15.7,32C1835.1,3375.3,1863.6,3354.1,1894.5,3331.2z M2244,3228.5c37.1-90.4,72.5-176.2,105.9-268.6
	c-9.6,4.3-14.9,5.1-17.9,8.2c-58.6,60.2-117,120.7-176.5,182.3C2184.6,3176.1,2212.2,3200.5,2244,3228.5z M1888.7,2145.9
	c0.7-2.1,1.4-4.3,2.1-6.4c-14.6-11.3-30.1-21.5-43.5-34.1c-16.7-15.6-33.4-15.7-53-6.8c-17.6,8-35.7,15.6-54.4,20.4
	c-47.4,12.2-92.1,7.9-130.1-27.1c-5.6-5.1-11.2-11.1-18-13.7c-6.3-2.4-15.5-3.4-21-0.4c-15.2,8.4-29,19.1-48.7,32.5
	C1647.8,2132.1,1768,2141,1888.7,2145.9z M1221.6,2042.1c19.3,16.4,116.1,42,153.7,42.7c-18.9-25.3-27.6-54.7-50.2-75.8
	C1291,2019.8,1258.6,2030.2,1221.6,2042.1z M1714.9,2666.6c-1.1,1.9-2.2,3.7-3.3,5.6c9,11.5,17.7,23.2,27.2,34.3
	c2.2,2.6,8.5,4.7,11,3.4c14.5-7.6,28.8-15.9,34.4-36.7C1759.8,2670.9,1737.4,2668.7,1714.9,2666.6z M2121.4,2683.1
	c8.5,10.2,14.6,19.1,22.5,26.3c3.6,3.3,12,5.8,15.4,3.8c13.4-7.7,27.6-16,28.2-36C2165.6,2676.7,2144.9,2674.7,2121.4,2683.1z
	 M2145.9,2144.7c27.6-2,55.2-4,86.7-6.3C2194.4,2112.9,2167.2,2114.2,2145.9,2144.7z M1673.9,3086.1c-1.7,1-3.5,1.9-5.2,2.9
	c4.8,13.1,8.8,26.5,14.8,38.9c1.5,3,9.6,2.8,14.7,4c0.7-4.5,3.6-10.6,1.7-13.4C1692,3107.2,1682.7,3096.8,1673.9,3086.1z"/>
<path d="M1947.2,1724.6c-52.1-0.6-96.3-35.8-111.4-90.2c-4-14.4-5.8-29.8-6.5-44.8c-0.7-14.8-2.2-28-14.2-38.8
	c-4.5-4-8.9-12.3-7.9-17.6c1.6-8.2,6.5-17,12.6-22.7c6.7-6.2,15.8-3.8,23,2.3c2.6,2.2,5.3,4.3,7.5,6.8
	c27.4,31.3,63.5,39.9,102.8,37.3c20-1.3,40.6-3.3,59.4-9.5c14.5-4.8,27.3-15.8,39.6-25.7c9.4-7.6,18.3-11.9,29.9-7
	c16.1,6.9,21.4,21.8,9.2,34.3c-12.4,12.8-15,27.2-17.1,43.2c-4.1,31.3-15.2,60.2-33.6,86.2
	C2017.7,1710.8,1985.8,1724.4,1947.2,1724.6z M1870.8,1593.2c-6.2,25.9,11.5,62.8,40.1,82.2c23.6,16,57.4,15.4,80.9-1.6
	c24.8-17.8,43.2-58.6,37.1-81c-26.1,2.7-52,7.5-77.9,7.6C1925.2,1600.4,1899.2,1595.9,1870.8,1593.2z"/>
<path d="M1483.5,1170.2c46.6,1.1,83.9,22.5,116.8,53.4c14.1,13.3,27.8,27,41,41.2c27,29,57.1,35.3,93.4,17.7
	c18-8.7,37.8-14.2,57.2-19.6c27.7-7.8,55.2-4.7,81.8,5.4c7.6,2.9,16,7.3,20.6,13.5c3.6,5,4,14.8,1.6,20.6
	c-1.6,3.8-10.8,4.8-16.7,6.3c-2.2,0.6-5-0.6-7.4-1.4c-41.4-14-81.3-8.9-120.2,9.3c-6.8,3.2-14.2,5.2-21.2,8.1
	c-40.5,17-76.2,6.8-107.4-21.1c-18.2-16.2-34.3-34.7-51.6-52c-19.4-19.5-41.7-33.7-69.2-39.4c-29-6.1-55.1,0-79.2,16.4
	c-6.3,4.3-11.6,10.7-18.4,13.1c-6.2,2.2-16.3,2.9-20.2-0.6c-4.2-3.7-6-14.5-3.7-20c3.8-8.8,10.6-17.5,18.3-23.3
	C1423.6,1178.9,1452.1,1169.6,1483.5,1170.2z"/>
<path d="M2785.6,1650.5c0.7,88.1-17.4,172.5-49.4,254.1c-4.9,12.4-12.1,24-19.1,35.4c-6.5,10.5-16.7,11-26.7,5.8
	c-11-5.7-12.1-15.3-7.7-26c1.3-3.1,2.6-6.2,4.2-9.2c38.4-69.4,53.8-144.8,58.2-223c2.8-50.6,0.7-101.1-9.7-151
	c-1-4.9-2.2-9.9-2.4-14.9c-0.3-10.9,5.5-17.3,16.2-19c10.4-1.6,19.1,1.3,21.5,12.3c4,18.1,8.1,36.2,10,54.6
	C2783.4,1596.6,2784.1,1623.6,2785.6,1650.5z"/>
<path d="M1191.9,1608.1c1.3-58.4,9.7-115.7,30.5-170.6c14.5-38.3,36.3-72.1,63.9-102.2c4.4-4.8,10.2-11.1,15.8-11.5
	c7.3-0.6,16.4,2.3,21.9,6.9c3.1,2.6,2.4,12.7,0.1,18c-2.8,6.7-8.8,12.2-13.7,18c-51,59.2-75,128.8-78.7,206c-1,21-0.5,42.1-1.1,63.2
	c-0.6,19.2-4.5,23.7-18.6,23.4c-13.6-0.2-18.6-5.7-20-23.4C1191.3,1626.7,1191.9,1617.4,1191.9,1608.1z"/>
<path d="M2347.4,1460.2c0.4,38.8-27.5,66.1-67.5,66.3c-35.8,0.2-64.6-28.6-64.3-64.2c0.4-35.2,31.6-65.9,66.9-65.8
	C2318.5,1396.6,2347,1424.6,2347.4,1460.2z"/>
<path d="M1615,1524.5c-38.5,1.9-61.7-33.5-62.3-62.7c-0.7-34.8,31.6-66.5,66-66.1c36.1,0.4,65.4,30.7,64.4,66.7
	C1682.2,1499.6,1654.3,1525,1615,1524.5z"/>
<path d="M1406.4,951.9c3-10,6.6-24.7,11.7-38.9c25.1-70.3,64.1-131.3,121.2-180c9.5-8.1,20.1-15.2,30.9-21.7
	c10.3-6.2,19.2-3.1,26,6.9c6.4,9.3,4.2,17.6-2.9,25c-3.4,3.6-7.5,6.8-11.6,9.6c-67.6,46.1-109,110.8-132.9,187.8
	c-2.5,8-5.2,16-7.8,24c-3.7,11.4-11.8,12.8-22.1,10.3C1408.8,972.6,1404.7,966.6,1406.4,951.9z"/>
<path d="M2434.1,1312.9c-23.5-3.1-48.5-6.2-73.5-9.8c-9.2-1.3-21.3-3.7-18.9-15.4c1.7-8.4,10.1-16.4,17.4-22.4
	c3.6-2.9,11.4-1.4,17.2-0.9c9.2,0.9,18.5,2,27.4,4.4c37.1,10,69.2,0.8,99.2-22.4c26-20.2,56.4-30.7,89.6-27.9
	c10,0.8,20.5,6.3,29,12.3c4,2.9,6.3,12.9,4.4,17.8c-1.7,4.6-9.7,7.2-15.3,9.7c-2.9,1.3-6.7,0.8-10,0.6c-32.8-2.5-60.9,9.1-87,28
	c-19.4,14-41.1,22.9-65.2,25C2444.1,1312.3,2439.9,1312.5,2434.1,1312.9z"/>
<path d="M1198.3,1753.5c0.6-11.5,2.6-20.7,15.5-23.4c12.1-2.5,18.5,1.2,23,17.1c6,21.9,10.9,44.1,15.1,66.4
	c2.5,13.6-3.7,22.5-14.9,25.5c-10.5,2.8-19.9-2.1-23.9-16.7C1206.9,1799.8,1203.1,1776.5,1198.3,1753.5z"/>
<path d="M2736.4,1426.8c-2.8,2.7-7.2,9.6-13.3,11.8c-4.9,1.8-14.8,0.2-17.5-3.5c-14-18.9-26.6-38.8-39-58.7
	c-4.3-6.9-4.2-15.7,3.6-20.1c5.9-3.3,14.4-5.8,20.5-4.1C2703.1,1355.6,2736.8,1409.7,2736.4,1426.8z"/>
<path d="M1385.2,1067.4c1.6-10.8,2.4-21.8,5-32.3c2.6-10.4,10.4-15,21.2-13c10.1,1.8,13.9,8.8,13.5,18.3c-0.8,16-1,32.1-3.2,47.8
	c-2.2,15.8-8.8,20.6-21.1,19.2c-13.8-1.6-14.7-11.9-15.4-22.2c-0.4-5.8,0.5-11.8,0.8-17.6
	C1385.8,1067.4,1385.5,1067.4,1385.2,1067.4z"/>
</svg>
