<?xml version="1.0" encoding="utf-8"?>
<!-- Generator: Adobe Illustrator 24.3.0, SVG Export Plug-In . SVG Version: 6.00 Build 0)  -->
<svg version="1.1" id="Layer_1" xmlns="http://www.w3.org/2000/svg" xmlns:xlink="http://www.w3.org/1999/xlink" x="0px" y="0px"
	 viewBox="0 0 4000 4000" style="enable-background:new 0 0 4000 4000;" xml:space="preserve">
<path d="M2009.4,313c20.7-94.8,38.7-114.6,100-112.8c63.1,1.8,86.2,26.9,101.1,112.3c8.7,0,17.9,0.1,27.1,0
	c104-1.6,201,20.6,285.7,84.4c63.1,47.6,108.1,109.7,141.3,180.4c46.2,98.3,65.9,203.2,71.8,310.9c3.1,55.8,4.7,111.8,5.1,167.7
	c1.1,166.3,36.3,325.1,101.3,477.8c34,79.8,68.3,159.6,99,240.6c52.6,138.9,79.5,283.4,90.8,431.5c11.7,153.2,1.5,304.6-29.8,454.5
	c-51.8,248.3-155.4,471.6-325.6,661.8c-100.3,112.1-215.9,203.9-355.6,262.2c-112.1,46.7-229.5,64.4-350.7,59.5
	c-110.7-4.5-218-25.6-322.2-63c-149.1-53.5-276.6-139.3-383.3-256.2c-119-130.4-201.2-281.9-256.4-448.7
	c-64.5-194.9-85.6-395.7-71-599.6c14.3-201.3,69.5-392.3,160.4-572.7c46.4-92.1,93.5-183.9,140.2-275.9
	c61.3-120.9,93.4-250.5,114.6-383.5c16.5-103.7,33-207.4,53.1-310.5c13.9-71.3,40.2-138.9,79.5-200.6
	c73-114.8,173.3-192.7,307.6-223c63.9-14.4,128.2-13.9,192.4-1.3C1992.9,310.3,2000.4,311.4,2009.4,313z M2955.5,2312
	c-1.4-26.7-2.7-68.1-6.1-109.5c-10.3-127.4-32.6-252.7-77.4-372.7c-35.4-94.8-74.7-188.1-113.9-281.4
	c-64.3-153.2-96.2-312.5-99.3-478.5c-1.6-85.7-7.4-171.5-15.6-256.9c-7.9-82.3-32.1-160.8-73-233.1
	c-54.7-96.8-133.9-160.6-246.4-177.7c-42.6-6.5-85-3.1-126.6,5.5c-62.6,12.8-124.2,14.2-185.7-5.4c-19.2-6.1-39.4-9.1-59.4-12.5
	c-42.2-7.1-84.8-9.2-126.7-0.5c-107.9,22.4-192.7,80.6-255.8,170.6c-47.4,67.6-74.4,143.8-88.9,224.2
	c-15.2,84.4-28.7,169.2-40.4,254.2c-22.1,161-66.4,314.8-141.1,459.5c-45.5,88.3-91.7,176.2-134.9,265.7
	c-98,202.9-149.5,417-146.5,642.9c2.7,208.1,45,408,133.5,596.9c54.5,116.3,126.1,221.7,220.8,308.9
	c201.1,185.3,439.9,264.2,711.9,241.5c109.1-9.1,211.6-41.9,305.5-99c156.8-95.4,277.8-226.2,369.1-384.1
	C2891.4,2840.9,2952.1,2591.3,2955.5,2312z M2081.2,334.1c40.2,13.9,50.6,6.9,48.7-28.9c-0.4-6.7,0.9-14.4-1.9-19.8
	c-3.5-6.8-9.7-14.6-16.3-16.5c-4.4-1.3-15.1,5.8-16.9,11.2C2088.8,297.7,2085.5,316.3,2081.2,334.1z"/>
<path d="M1097.3,2390.8c1.1-214.3,53.1-428.7,153.1-631.8c53.2-108.1,107.5-215.7,158.1-325c55.9-120.6,88.3-248.4,107-379.9
	c14.2-100.1,24.7-201,51.7-298.9c20.6-74.9,48.3-146.5,101.9-205.2c63.3-69.4,141.7-106.9,235.6-103.3
	c37.7,1.5,77.1,10.7,111.8,25.7c54.8,23.7,105.2,23.7,161.8,4.5c142-48.2,266.7,22.3,333.5,129.6c45.9,73.8,66.2,156,73.2,241.3
	c4.8,58.5,3.9,117.5,6.1,176.3c2.6,67.4,2.7,135.1,9.5,202.1c13.4,132.5,54.3,258.1,104.9,380.7c39,94.4,81.4,187.5,108.6,286.4
	c46.3,168.7,69.1,340.3,59.3,515c-12.1,213.5-74.4,412.6-180.1,598.3c-55.2,96.9-120,186.7-200,264.5
	c-101.4,98.6-219.2,169.5-357.4,204.1c-129.9,32.5-258.1,21.8-385.2-16.1c-139.3-41.4-257.2-116.9-356.5-222.2
	c-101.7-107.9-169.9-235.7-219.4-374C1121.3,2714.4,1097.9,2560.6,1097.3,2390.8z M2533.1,997c-2.7-44.3-4-110.9-11.3-176.9
	c-8-72.5-28.3-141.8-73.2-201.6c-48.4-64.6-136-122.6-247.2-86.6c-18.3,5.9-37.1,10.6-55.5,16.2c-31.5,9.5-62.7,9.3-93.7-2.1
	c-19.9-7.3-39.8-14.8-59.9-21.5c-40.4-13.6-81.1-26-124.5-18.5c-80.7,13.8-141.8,57.2-186.5,125c-30.8,46.6-50,98.4-61,152.3
	c-16.1,79.3-30,159.2-40.9,239.4c-23.8,176.3-69.2,345.8-148.7,505.5c-43.4,87.2-87.3,174.1-130.3,261.5
	c-91.3,185.4-139.1,381.6-144.6,588.1c-3.5,130.1,12.5,258,48.3,383.2c39.9,139.3,96.8,270.6,188.9,384.1
	c129.5,159.6,293.6,258.7,499.7,283.7c162.1,19.7,310-19.5,445.4-108.7c90.5-59.6,164.6-136.5,227.9-223.9
	c127.3-175.7,211.8-369.2,239-585.4c19.1-152.3,12.2-304.1-13.7-455.3c-23.4-136-70.3-264.4-124.9-390.3
	C2576.8,1458.8,2521.1,1246,2533.1,997z"/>
<path d="M2500.4,2167.8c2.9,197.6-41.9,383.2-109,564.5c-49.8,134.6-112.7,262.1-201,376c-34.4,44.3-72,85.6-121.9,113.7
	c-82.9,46.8-163.9,42-243.1-8.9c-49-31.5-83.6-76.6-114.7-124.6c-58.1-89.6-100.3-186.7-133.4-287.8
	c-43.9-134.2-76-271.1-87.6-412.1c-14-169.6-1.5-337.1,42.8-501.7c53.7-199.4,138.4-384.2,263.1-549.5c21.4-28.4,45.2-55.4,71-79.8
	c120.9-114,283-97.9,381.6,35.8c46.8,63.4,81.5,133,112,205.1c57.3,135.6,97.4,276.3,121.2,421.5
	C2495,2002.9,2501.7,2086.5,2500.4,2167.8z M2429.9,2150.8c3.2-141.1-25.6-284.8-65.2-426.2c-31.8-113.4-71.7-224.2-132.4-326.1
	c-24.7-41.5-50.8-82-89.2-112.9c-52.9-42.5-116.8-47.7-175.4-13.6c-38.7,22.5-72.3,51-100.6,85.9
	c-70.5,86.7-123.4,183.7-170.7,284.5c-91.3,194.4-137.7,398.9-138.8,613c-0.9,171.9,27.1,340.1,80.7,503.6
	c33.4,102,74.3,200.8,133.1,291.2c28.6,43.9,59.8,85.4,105.7,113.1c32,19.4,65.8,24.4,102.8,17.2c55.3-10.9,96.7-43.5,131-84.7
	c31.9-38.5,62.8-78.6,88.4-121.4c70.6-117.9,126.4-242.7,164.9-374.9C2406,2455.3,2434,2308.9,2429.9,2150.8z"/>
<path d="M1760.6,2100.7c10.6-44.5,28.4-78.4,78.4-82.2c56.8-4.2,78.2,31.5,89.6,80.7c11.4-2.7,20.4-5.1,29.5-7.1
	c38.1-8.1,77.1,10.6,94.6,45.1c17.6,34.7,9.4,81.6-18.6,106.5c-42.8,38-114,20.4-134.9-33.4c-3.4-8.8-6-17.9-8.6-25.9
	c-21.6,1.3-42,6.2-61,2.8c-18.1-3.2-34.6-15.1-53.1-23.7c-9.4,30.1-21.3,60.6-56.9,72c-22.7,7.2-45.5,8.9-67.5-2.2
	c-43.9-22.2-60.2-79-35.1-121.8C1646.6,2061,1694.6,2056.6,1760.6,2100.7z"/>
<path d="M1926.3,2356.6c76.1-13.8,118.3,9,131.2,95.7c75.5-11,113.8,7.9,124,61.3c8.7,45.4-17.8,87.2-61.7,96.8
	c-29.8,6.5-57.5,1.7-82-17.3c-25.8-20.2-21.4-51.6-27.7-79c-72.7,25.1-146.3-15.6-122-116.6c-19.9,0-40.1,2.6-59.4-0.5
	c-42.1-6.9-70.2-50.2-64.4-94.8c5.1-38.7,41.8-72.6,78.5-72.3c47.2,0.3,85.5,34,87.7,78.7C1931.3,2323.6,1928,2338.9,1926.3,2356.6z
	"/>
<path d="M1815.6,2673.8c-9.9-20.6-19.8-41.2-30.8-63.9c-5.3,3.2-11.9,7.8-19.1,11.4c-31,15.6-62.8,20.7-93,0
	c-28.8-19.7-39.7-49.1-34.4-83.3c5.8-36.9,28-60.6,63.6-71c33.8-9.9,74.1,11.4,92.3,48.4c5,10.2,8,21.5,12.5,33.9
	c7-4.5,13.8-9.1,20.9-13.3c33.8-20.1,74.7-17.2,105.1,7.7c22.3,18.3,28.5,42.7,25.5,70c-1.4,12.3-4.5,24.4-7.4,39.7
	c9.8,1.3,18.9,2.3,27.9,3.8c60,10.1,91,76.4,59.8,128.7c-22,36.8-54.3,48-97,35.2c-41.7-12.6-63-47.3-57.3-88.3
	c1.8-13.1,5.7-25.8,8.1-36.7c-26.8-8.1-52.2-15.8-77.5-23.4C1814.6,2672.8,1815.6,2673.8,1815.6,2673.8z"/>
<path d="M1904.7,2993.4c-52.9,15.1-96.5,3.4-116.2-29.6c-20.7-34.7-15.3-82.3,12.5-109.5c27.4-26.8,71.7-31.5,103.9-10.9
	c39.6,25.2,48.5,62.6,29.3,122.1c57.6-13.7,97-0.5,117,39.2c17.6,34.8,9.6,81.7-18,106.5c-27.4,24.6-73.7,27.5-104.9,6.7
	C1891.4,3093.2,1883.7,3054.7,1904.7,2993.4z"/>
<path d="M2059.2,1556.5c-47.6-0.7-83-37.8-82.1-86.1c1-49.7,40-90.1,87.1-89.9c47.4,0.1,85.4,39.6,84.4,87.8
	C2147.6,1522.8,2112.6,1557.3,2059.2,1556.5z"/>
<path d="M2146.8,2384.3c-47.9,0-83.8-35.7-84.7-84.2c-0.9-48.6,37.7-92.5,81.3-92.4c46.5,0.1,88.3,40.8,88.4,86
	C2231.9,2345.3,2195.3,2384.3,2146.8,2384.3z"/>
<path d="M1822.4,1903.7c1.8-48.6,38-82.3,86.6-80.6c46.9,1.7,86.1,40.5,85,84.3c-1.3,52.8-39.6,90.9-89.5,89.1
	C1855.5,1994.8,1820.4,1955.1,1822.4,1903.7z"/>
<path d="M2196.8,2882.3c-0.4,52.2-34.3,88.4-82.8,88.2c-49.8-0.3-85-36.1-84.9-86.4c0.1-50.4,37.6-88.6,86.8-88.3
	C2163.4,2796,2197.2,2832.1,2196.8,2882.3z"/>
<path d="M1907.8,1681.1c-47.6,0.4-81.2-33.1-81.8-81.4c-0.6-50.2,36.8-92.4,82.5-93.2c45.1-0.8,87.4,40.5,87.8,85.8
	C1996.7,1644.8,1961,1680.7,1907.8,1681.1z"/>
<path d="M2035.2,1849.3c-43-0.8-84-43.8-83.4-87.6c0.7-48.3,37.6-87.7,81.9-87.5c49.7,0.3,90.6,40.2,89,86.8
	C2121,1812.3,2083.5,1850.1,2035.2,1849.3z"/>
<path d="M2361.4,2450.8c-0.7,51.5-34.1,82.4-87.4,82.6c-60.2,0.3-81.2-49-81.4-89.2c-0.2-45.7,39.8-83.7,86.1-83.1
	C2325.7,2361.8,2362.1,2401.2,2361.4,2450.8z"/>
<path d="M2207.5,1743.1c-48.5,0.2-83.1-34.6-83.3-83.7c-0.2-47.8,37.6-86.8,84.9-87.6c46.4-0.7,84.7,36.5,84.9,83.2
	C2294.2,1697.5,2262.1,1746.3,2207.5,1743.1z"/>
<path d="M1708.8,2014.5c-49.4-0.7-84.9-35.6-84.3-82.9c0.7-51.1,35.5-87.2,84.1-87c51.6,0.2,86.9,37.8,85.6,91.3
	C1793.1,1981.4,1756.4,2015.2,1708.8,2014.5z"/>
<path d="M1814.6,2672.8c10.5,12.3,22.3,23.7,31.1,37.1c22.5,34.2,16.4,77.4-13.4,105.3c-28,26.3-76.5,28.3-109.9,4.5
	c-31.4-22.3-42.8-65.1-26.9-100.6c17.1-38,54.6-57.2,97.7-49.9c7.5,1.3,14.9,3.1,22.4,4.7
	C1815.6,2673.8,1814.6,2672.8,1814.6,2672.8z"/>
<path d="M1874.8,1762.2c0,48-33.3,82.5-80.6,83.6c-45,1-87.3-41.4-86.9-87.1c0.4-45.3,42.4-85.8,88.6-85.5
	C1840.8,1673.6,1874.9,1712,1874.8,1762.2z"/>
<path d="M2201.5,2762c-49.1,0.1-81.6-33-82.7-84.2c-1-48.1,37.4-86.7,85.8-86.3c47.1,0.4,80.2,36.8,79.8,87.7
	C2283.9,2731.8,2253.8,2761.8,2201.5,2762z"/>
<path d="M2273.8,1856.4c0.2,50.2-35.4,86.9-84.4,87.2c-46.3,0.2-82.8-36.3-82.4-82.4c0.4-50,38.8-90.1,86.4-90.2
	C2236.7,1770.9,2273.6,1810.2,2273.8,1856.4z"/>
<path d="M1601.2,2377.9c-3.1-46,39-88,87.3-87.4c51.6,0.6,82.2,53.9,81.2,88.5c-1.3,44.9-42.4,83.5-87.4,82.3
	C1636.1,2460,1600.6,2423.5,1601.2,2377.9z"/>
<path d="M2395,1999.9c0.5,47.4-35.1,83.3-83.7,84.3c-48.9,1-81.5-32-82.8-83.7c-1.2-47.5,36.5-84.6,86.4-85.1
	C2359.1,1915.1,2394.5,1952.4,2395,1999.9z"/>
<path d="M2395,2175.2c-0.2,51-36.8,86.1-88.5,85c-41.3-0.9-78.1-38.7-78.6-80.7c-0.5-47.5,38.4-88.3,84.3-88.6
	C2359.9,2090.7,2395.2,2126.7,2395,2175.2z"/>
<path d="M2209.6,2062.8c0,46-37.9,82.4-86,82.6c-43.5,0.2-81-36.9-81.4-80.5c-0.4-46.6,37.3-86.7,82.1-87.2
	C2174.6,1977.2,2209.6,2012.1,2209.6,2062.8z"/>
</svg>
