<?xml version="1.0" encoding="utf-8"?>
<!-- Generator: Adobe Illustrator 24.3.0, SVG Export Plug-In . SVG Version: 6.00 Build 0)  -->
<svg version="1.1" id="Layer_1" xmlns="http://www.w3.org/2000/svg" xmlns:xlink="http://www.w3.org/1999/xlink" x="0px" y="0px"
	 viewBox="0 0 4000 4000" style="enable-background:new 0 0 4000 4000;" xml:space="preserve">
<path d="M1941.9,758.3c-25.9,2-52,4.6-78.2,5.8c-156.6,7-301.2-28.1-426.6-125.9c-87.5-68.3-141.2-160.1-176-264
	c-24.3-72.5-36.2-147.1-38-223.3c-0.2-8.8,0.4-17.7,1.6-26.5c2.3-17.5,12.3-28.5,29.6-32.5c5.7-1.3,11.5-2.8,17.4-3.1
	c135.2-8,267,6.5,394.1,56.7c156.6,61.8,258.5,174.8,316.5,330.4c3.1,8.3,6.1,16.5,9.6,24.7c0.6,1.5,3,2.4,6.5,5
	c4.6-11.3,9.4-21.9,13.4-32.7c21.4-57.5,49.4-111.6,83.6-162.4c19.1-28.3,43.3-51.2,78.3-58.8c7.6-1.7,15.5-3.1,23.3-3.1
	c57.7-0.2,126.4,50.6,144.3,105.4c10.1,30.8,3.7,58.5-14.2,83.9c-21.5,30.6-44.7,60-66,90.8c-56.7,82-92.4,173.3-117.5,269.2
	c-0.5,1.7,0.4,3.8,1,7.9c7.5,2.1,15.6,5.1,24,6.8c174.6,34.3,298.5,134.2,378.2,291.7c47.2,93.3,70.8,193.7,90.8,295.4
	c15.6,79.2,29.7,158.8,50.2,236.7c31,118.3,86.3,225.5,158.5,324.4c57.5,78.6,116.9,156.4,167.5,239.4
	c124.6,204.4,181.8,426.6,154.9,666.5c-27.9,249.3-138.1,457.4-323.7,625.6c-157.1,142.4-342.7,225.7-551.1,256.9
	c-63.9,9.6-129.4,10.6-194.2,11.4c-76.8,0.9-153.6-3.2-230.4-4.3c-93.6-1.4-186.6-6.5-278.5-27.5c-358.6-82.2-671-360.1-763-740.8
	c-62.9-260.4-18.7-505.9,106.1-739.5c45.2-84.6,102.4-161.2,161.1-236.6c94.2-121,168.5-252.3,204.3-402.4
	c20.3-85.1,34.6-171.6,51.4-257.5c23.3-118.8,57.6-233.5,130-332.8c88-120.6,206.3-191.8,354.9-211c25.3-3.3,50.9-4.8,76.4-6
	C1946.3,800.4,1948.8,797.5,1941.9,758.3z M1937.4,877.3c-36.4,3-69,3.6-100.7,8.8c-112.3,18.3-205.1,71.4-277.6,159.6
	c-58.9,71.6-93.5,155-113.9,244c-18.4,80.5-31.9,162.2-47.5,243.3c-26.1,135.6-70.6,264.8-144.2,381.8
	c-47.6,75.7-101.5,147.5-154.3,219.8c-96.4,131.9-169.3,274.3-202.2,435.7c-27,132.3-26.9,264.5,5.5,395.4
	c40.3,163.1,120.5,304.5,239.8,423.8c180.1,180.1,397,276,651.3,285.9c107.2,4.2,214.6,4.4,321.9,6
	c161.3,2.4,314.2-32.5,459.4-102.8c130.6-63.2,243.7-148.6,332.1-264.2c112.9-147.8,175.8-314.8,188.1-501
	c10.2-154.6-18.2-301.5-79.3-443.1c-48.4-112.2-116.7-211.8-190.9-307.9c-62.2-80.6-117.1-165.5-159-258.4
	c-50.2-111.2-78.1-228.8-98.6-348.5c-14.3-83.4-28.8-166.9-58.4-246.7c-53.2-143.6-142.8-252.7-291.4-305.2
	c-28.6-10.1-57.4-18.6-87.4-19.7c-8,29.9-7.9,41,0.1,62.9c8,22.1,4.1,35-15.6,47.5c-7.4,4.7-15.7,8.9-24.1,10.8
	c-57.2,13.1-113.4,11.4-167.2-14.1c-8.5-4-16.4-11-22.5-18.4c-9.6-11.6-9.9-25.9-4.1-39.1c5.3-12.1,16.3-15.9,29.5-14.5
	c4.4,0.5,9-1.9,15.1-3.3C1939.9,904,1938.9,893.6,1937.4,877.3z M1300.3,207.7c15.1,148.4,63.5,276.4,177.8,370.5
	c122.2,100.6,265.7,127.1,421,110.7C1869.8,620.7,1482.6,309.7,1300.3,207.7z M1370.5,158.8c-1.1,3-2.3,6-3.4,9.1
	c22.4,15.3,44.9,30.6,67.3,45.9c22.7,15.6,45.5,31.1,68,47c21.7,15.3,43.2,30.9,64.7,46.6c22.3,16.2,44.6,32.4,66.6,49
	c22,16.6,43.7,33.6,65.1,50.9c21.5,17.3,42.6,35,63.6,52.8c20.3,17.1,40.5,34.4,60.6,51.8c20.8,18.1,41,36.9,61.8,54.9
	c20.1,17.3,35.4,40.3,63.8,57.8c-2.2-16.3-2.5-26.1-5.1-35.4c-8.4-30.3-15.8-61.1-26.8-90.5c-41-109.8-110.2-196.3-213-255.1
	c-82.9-47.4-173.5-67.7-266.9-78.9C1414.8,162,1392.6,160.7,1370.5,158.8z M2277.3,378.1c-14.3-24.5-33.1-36.8-53.2-47.6
	c-20.9-11.2-40.5-8.1-56.6,8.6c-10.8,11.2-20.4,24-28.8,37.1c-48.8,76.5-75.6,161.6-97.8,248.7c-25.5,99.9-29.1,202.2-35,304.3
	c-0.2,3.5,1.7,7.1,2.7,10.8c5.1,0.8,8.9,2,12.7,1.9c27.7-1.1,29.1-2.7,32.5-29.8c2.3-18.5,4.6-37.1,7.7-55.5
	c27-159.8,84.6-306.4,185.8-434.6C2258.3,408.2,2267.2,393,2277.3,378.1z"/>
<path d="M1003.8,2748.9c3-38.2,5.6-76.5,9.3-114.7c1.1-11.8,5.1-26.1,18.3-27.3c11.5-1,25.9,2.8,34.9,9.8c6.6,5.1,9.1,18.9,8.9,28.7
	c-0.9,52.1-6.8,104.3-4.3,156.2c11,230.1,105.4,418.8,287,562.3c17.7,14,37.8,25,55.7,38.7c18.2,13.8,18.9,33,3.6,47.8
	c-8.7,8.5-18.9,11-29.7,6.2c-12.6-5.5-25.4-11.1-36.6-18.7c-152.9-104.6-254.8-246.7-308.1-423.6
	C1016.8,2927.9,1004.8,2839.3,1003.8,2748.9z"/>
<path d="M2929.2,3050.5c-1.9,6.3-4.2,16.9-8.1,26.9c-73.3,184.8-199.2,320.8-379,406.3c-9.7,4.6-19.9,8.6-30.3,11.5
	c-18.1,5-27.9,0.2-36.1-16.2c-7.7-15.4-5.5-28.1,9.3-38.6c11.1-7.9,23.7-14,36-20.1c94.2-46.2,175.9-108,240.5-191.2
	c38.8-49.9,72.1-103.2,94-163c4.7-12.9,10.1-25.8,17-37.5c8-13.5,19.1-15.8,36.1-10.3C2924.5,3023.5,2929.6,3030.4,2929.2,3050.5z"
	/>
<path d="M1495.6,1562.1c14.2-76.3,27.8-152.7,42.9-228.9c11.8-59.2,33.3-115.1,63.1-167.7c28.1-49.5,64.7-91.5,110.2-125.4
	c8.4-6.3,18.6-11.5,28.7-13.9c15.1-3.6,30.4,5.9,35.9,19.5c5.5,13.4-2.1,22.5-10.9,31c-2.8,2.7-5.9,5.2-9.2,7.4
	c-70.2,48.4-112.6,116.6-140.2,195.6c-25.1,72-36.7,146.7-47.7,221.7c-3.6,24.3-7.3,48.7-13,72.5c-5,20.9-14.7,27.1-30.5,24.3
	C1506.3,1595,1497.1,1582.7,1495.6,1562.1z"/>
<path d="M1966,2741c-64.9-4.6-124.5-30-156.5-100.5c-3.6-8-6.5-16.6-8-25.2c-2.4-14.5,5.3-28,18-34c13.3-6.3,25.7-3.2,36.4,10
	c3.7,4.5,7,9.6,9.1,15c23.7,60.8,96.5,73.2,141.7,61.9c37.9-9.4,69-26.9,84.8-66c9.5-23.4,20.8-28,38.1-21.7
	c18,6.6,24.5,20.8,18.9,43.2c-11,44-38.9,74.6-78.1,95C2040.4,2734.3,2007.6,2740.9,1966,2741z"/>
<path d="M1565.7,2593.9c-43.9,0.1-80.3-37.2-79.6-81.5c0.7-43.7,40.4-83.8,83.2-83.9c43.1-0.1,80.4,37.8,80.5,81.7
	C1649.9,2558.5,1614.4,2593.8,1565.7,2593.9z"/>
<path d="M2376.6,2594c-43.3-0.4-80-36-80.2-77.9c-0.2-44.5,38.7-86.5,80.2-86.7c46.4-0.2,84.9,38.4,84.5,84.7
	C2460.6,2559.7,2423.9,2594.4,2376.6,2594z"/>
<path d="M1040,2501.9c8.7-21.5,16.6-43.5,26.5-64.5c6-12.6,18.3-13.5,30.5-8.7c12.8,5,23.3,13.5,19.4,28.5
	c-5.4,20.7-12.4,41.1-20.4,60.9c-5.3,13-17,18.7-31.3,15.7C1051.2,2531,1042.8,2518.6,1040,2501.9z"/>
<path d="M2966.1,2890.1c-2.3,11-4.3,26.7-9.1,41.5c-5.1,15.7-15.7,20.1-32.4,17.8c-15.2-2.1-23.5-12.2-23-25.9
	c0.8-18.4,3.8-37,8.6-54.8c4.9-18.2,14.5-23.7,29.6-21.9c16,1.9,24.8,12,26.3,30.1C2966.3,2879.7,2966.1,2882.7,2966.1,2890.1z"/>
<path d="M1527.5,1723.7c-2.5,9.7-6.3,26.9-11.7,43.6c-4.6,14.3-16.2,18.7-30.4,16.4c-13.8-2.2-21.7-12-21.3-24.2
	c0.6-18.3,3.3-37,8.3-54.6c5.8-20.5,17.7-26.6,34.8-22.4C1523,1686.4,1528.7,1695.8,1527.5,1723.7z"/>
</svg>
