<?xml version="1.0" encoding="utf-8"?>
<!-- Generator: Adobe Illustrator 24.3.0, SVG Export Plug-In . SVG Version: 6.00 Build 0)  -->
<svg version="1.1" id="Layer_1" xmlns="http://www.w3.org/2000/svg" xmlns:xlink="http://www.w3.org/1999/xlink" x="0px" y="0px"
	 viewBox="0 0 4000 4000" style="enable-background:new 0 0 4000 4000;" xml:space="preserve">
<path d="M1983.7,3736c-59.8-1.1-118.3-8.5-174.3-31.5c-65.2-26.8-112.4-69.9-132.8-139.7c-24.2-82.4-49.6-164.5-75.4-246.4
	c-79.3-252.9-159.1-505.6-238.4-758.6c-5.2-16.6-13.2-26.2-31.2-29.4c-23.9-4.3-43.7-18-61.6-34.1
	c-63.1-56.4-102.7-127.8-130.7-206.3c-38.9-109-52.2-222.1-50.7-337.2c0.2-17.7-3.7-30.1-17-43.1c-87.9-85.8-100-245.1-10.9-341.2
	c12.2-13.2,15.1-23.5,7.9-40.9c-37.7-90.6-36.6-181.6,1.2-272.1c25.4-60.8,64.6-110.4,122.4-143.3c15.6-8.9,19.9-18.4,20.2-36.6
	c1.4-76.5,22.6-147.8,64.9-212.1c51.5-78.4,118.2-139,206.3-173.8c12.1-4.8,20-11.3,22.3-24.8c4.6-26.5,15.4-50.7,31.5-72.2
	c8.9-11.9,8.2-22.3,1.8-35.3c-38.1-77-75.7-154.3-113.1-231.7c-8.7-18.1-16.3-36.8-23.3-55.5c-19.3-51.6,13.5-122.1,68.5-145.3
	c57.9-24.5,126-4.9,155.2,49c34.8,64.2,66.7,130.1,99.7,195.3c12.8,25.3,25.7,50.5,37.8,76.1c7.6,16.2,17.3,25.4,37.3,25.7
	c40.2,0.7,76.3,16.3,110.1,37.7c8,5,18.5,10.3,27.1,9.4c60.3-7,120.3-6.1,180.4,1.5c87,11,170,34.4,246.6,78
	c97.4,55.6,173.9,130.1,213.3,237.6c5.4,14.7,14.7,20.9,29.2,25.2c44.9,13.2,88,31.1,125.5,59.9c104.5,80.5,141,189.7,130.7,317.2
	c-1.8,22.6,1.7,40.2,15,58.4c54.3,74.5,76.8,158,59,248.8c-7,35.7-12.5,67.2,14.5,95.9c40.2,85.4,18.7,197.4-52.9,265.1
	c-13.3,12.6-18.1,24.4-18,42.5c0.9,137.5-16.7,271.8-74.7,398.4c-25.3,55.3-58,105.8-101.4,148.7c-21.1,20.9-44.9,37.6-74.4,44.4
	c-13.9,3.2-21.4,11.5-25.7,25.2c-66.7,210-133.8,419.7-200.6,629.7c-38.5,121.1-78.6,241.7-114.2,363.6
	c-24.3,83.3-80.1,130.3-158.6,156.1C2084.1,3729.9,2034.4,3736.5,1983.7,3736z M1219.5,1168.9c-24.5,11.6-42.8,28-57.8,47.7
	c-52.7,69.5-70.4,147.7-53.9,232.9c5.2,26.7,15.4,52.5,25,78.1c13.2,35.1,13.9,36.3-12.7,61.9c-38.9,37.4-58.6,82.8-60.8,136.7
	c-3.6,89.8,49,160.5,137.2,177c72.7,13.7,146,24,219.3,33.7c135.2,17.7,271.1,27,407.4,30.7c253.5,6.8,506.7,1,758.4-32.7
	c72.3-9.7,144.1-24.1,216-37.1c27-4.9,49-19.5,67.1-40c32.9-37.3,49.4-80.4,47.7-130.5c-2.2-64.9-26.9-91-91.6-95.1
	c-55-3.5-95.3,22.2-115.5,73.5c-2.7,6.8-5.3,13.8-9.3,19.8c-9.1,13.3-21.9,16-35.8,7.9c-4.7-2.7-8.5-7-12.9-10.2
	c-29.2-21-60-25.2-92.7-8.4c-7.3,3.8-14.4,8.2-22,11c-10.5,3.9-21.3,6.1-29.9-4.8c-8-10.2-12.3-22.2-4.4-32.8
	c7.8-10.6,17.9-21.2,29.3-27.3c34.6-18.2,71.8-21.4,109-9.3c15.4,5,24.1,3.7,34.6-10c44.3-57.4,103.5-78.3,174.6-66.7
	c19.2,3.1,21.8,1.9,27.6-16.1c1.7-5.2,3.2-10.5,4.1-15.9c15.4-87.2-3.6-165.4-62.7-232.1c-15.5-17.5-20.7-34.9-15.8-57.5
	c7-32.4,8-65.2,2.9-98.2c-9.4-61.2-33-115.6-75.6-161.3c-10.4-11.2-21.3-16-36.5-10.9c-44.4,14.9-78,58.4-80,104.6
	c-1.8,40.6-22.8,52.2-56.8,31.1c-39.5-24.5-81.2-31.2-126-17.1c-20.7,6.5-37.2,18.8-52.3,33.8c-9.4,9.4-20.6,11.4-32.5,4.4
	c-12-7.1-18.9-22.1-13.5-35.4c3.9-9.8,10.4-19.5,18.2-26.5c28.8-26,63.8-38.5,101.9-42.8c35.8-4.1,70.8-0.1,103.9,11.9
	c39.6-66.1,39.6-66.1,94.9-107.2c-7.1-3.5-12.9-7.3-19.4-9.5c-16.4-5.7-32.8-11.8-49.7-15.6c-25.8-5.8-40-20.7-49-45.7
	c-30.3-83.6-84.6-148.4-158.9-197.2c-113.5-74.6-239.2-101.7-373.1-98.1c-5.9,0.2-11.8,2.2-18.1,3.4c0.7,4.8,0.4,7.6,1.5,9.9
	c37.9,82.5,24.6,159.1-29.6,228.8c-50.3,64.6-118.9,99.6-199.5,108.4c-94.2,10.4-210.9-28.7-245.4-152.5c-1.8-6.5-6-12.4-9.5-19.4
	c-8.8,3.4-15.8,5.5-22.2,8.6c-42,20.3-75.3,51.6-106.3,85.4c-69.8,76.1-102.4,165.3-92.5,268.9c2.1,22.3,3.9,23.9,25.3,28.7
	c15,3.4,30.7,6.2,44.4,12.8c17.8,8.6,34,20.7,52.7,32.5c3.9-1.6,9.8-3.8,15.5-6.4c59.3-27.5,115.6-21.7,168.1,16.4
	c10.7,7.8,19.9,19,26.5,30.5c7.6,13.2,2,28.9-9.3,36.5c-11.3,7.6-23,6.7-35.1-3.2c-5.6-4.6-10.4-10.3-16-15
	c-42.8-35.5-93.6-31.6-130.3,10.1c-9.2,10.5-21,17.8-33.7,12.5c-8.8-3.6-16.5-13.7-21.1-22.7c-11.1-22-27-36.8-51.6-40.7
	c-10.7-1.7-22.1-2.6-32.8-1c-26.7,4.1-47.5-0.2-54.3-30.7C1223.7,1173.3,1221.2,1171.3,1219.5,1168.9z M1152.6,1960.8
	c-0.9,4.4-2.3,7.8-2.3,11.3c0.6,106.8,13.6,211.6,52.7,311.8c22.4,57.6,52.8,110.3,96.8,154.6c21.3,21.5,46.4,35.2,76.3,40.1
	c28.8,4.8,57.5,10.6,86.5,14.1c100.7,12.1,201.2,27.7,302.2,33.9c168,10.3,336.4,8.1,504.4-4.4c89.2-6.6,178.1-17.9,267.2-27.4
	c11.8-1.2,23.3-4.6,35.1-5.7c55.2-5.2,94.4-35.3,126-78.6c39.2-53.7,67.8-112.6,87.2-176.1c25.3-82.9,33.1-168.3,37.5-254.3
	c0.3-6.1-1.1-12.3-1.8-20C2263.9,2061.9,1708.6,2055.7,1152.6,1960.8z M1728.3,728.8c7.2-1,14.5-1.5,21.6-3.2
	c42.2-10.6,58.6-42.7,42.4-82.7c-2.1-5.1-4.2-10.1-6.6-15c-64.9-131.9-129.8-263.8-194.9-395.6c-5.2-10.6-10.9-21.2-17.5-31
	c-18.2-27.1-46.3-34.7-76.8-21.3c-28.1,12.3-43.3,39.4-36.4,68.8c3.5,14.9,9.2,29.7,16,43.5c64.7,130,129.8,259.7,194.9,389.5
	c4.1,8.2,8.4,16.3,13.4,23.9C1694.7,721.1,1708.6,730.3,1728.3,728.8z M1584,641.6c-5.7,4.4-7.8,5.2-8.5,6.6
	c-34.2,69.7-16,146.7,45,187c46.8,30.8,98.7,37.4,152.5,24.4c69.9-16.9,126.4-53.1,156.6-121c41.9-94-17.5-175.7-95.1-200.3
	c-6.4-2-13.6-1.4-25-2.4c5.5,11.1,9.2,18.1,12.5,25.3c10.6,23.2,22.8,45.9,31.1,69.9c5.2,15.1,7.3,32.3,6.2,48.3
	c-4.7,64.4-49.7,99.9-111.4,108.9c-59.2,8.5-103.2-17.3-128.7-71.2c-7.8-16.5-14.4-33.6-21.9-50.2
	C1593.6,658.8,1589.1,651.2,1584,641.6z M1923,2708.6c-34.8-37.7-66.1-72.1-98.2-105.7c-5.1-5.4-13.8-8.4-21.3-10.2
	c-9.7-2.2-20-1.6-29.9-3.1c-13.9-2-24.3,2.5-34.3,12.4c-28,27.6-57,54.1-85.4,81.2c-3.7,3.5-6.3,8.2-7.3,9.5
	c46.9,48.6,92.4,95.7,140.7,145.8C1832.7,2795,1877.3,2752.4,1923,2708.6z M2288.2,2989.9c41.9-39.6,85.3-80.7,130.3-123.2
	c-44.2-44.7-84.8-90-134.2-131.2c-44.5,42.6-87,83.2-130.3,124.7C2198.8,2903.6,2241.3,2944.6,2288.2,2989.9z M2241.3,3031.6
	c-43.4-44.7-84.3-87-128-132.1c-44.8,42.6-86.9,82.6-130.8,124.4c45.9,42.9,89.6,83.7,135.7,126.7
	C2158.7,3111.4,2198.3,3073.1,2241.3,3031.6z M1942.2,3317.5c-44.1-43.4-86-84.6-130.6-128.4c-40.2,40.3-77.8,78.1-116.1,116.5
	c3.6,5.4,5.6,9.6,8.6,12.6c34.6,33.9,69.1,67.7,104.1,101.2c13.8,13.2,17.5,13.5,31.9-0.5
	C1873.6,3386.6,1906.2,3353.5,1942.2,3317.5z M2109.7,3481.7c-43.6-40.2-79.3-84.3-126.3-122.3c-40.4,38.5-79.6,75.7-119.8,114
	c37.1,37.5,71.6,72.8,106.5,107.6c17.8,17.8,21.4,17.6,40.3-0.7c28.3-27.3,56.5-54.7,84.6-82.2
	C2099.4,3493.9,2103.3,3489,2109.7,3481.7z M1965.3,2753.8c-26.4,13.2-122.3,105.1-134.3,128.7c35.7,33.1,71.7,66.5,107.4,99.6
	c21-11.9,120-109.9,128.7-127.9C2033.4,2821,1999.2,2787.3,1965.3,2753.8z M2541.8,2559.3c-29.3,4.5-57.9,8.6-86.3,13.8
	c-4.6,0.8-8.6,6.2-12.4,10c-33.4,32.5-66.7,65.1-99.9,97.8c-5,4.9-9.5,10.5-15.8,17.6c43,41.2,84.7,81.2,126.7,121.5
	C2470.6,2797.2,2539.2,2594,2541.8,2559.3z M2113.5,2820.4c44.4-43,86.4-83.8,123.8-119.9c-30.4-33.6-57.8-65.2-86.7-95.5
	c-14.6-15.3-20.2-15.2-34.6-2.1c-35,31.9-69.2,64.6-103.5,97.3c-3.1,2.9-4.7,7.3-5.6,8.9C2042.1,2745.8,2075.9,2781.1,2113.5,2820.4
	z M2291.4,3316.6c35.8-57.7,47-117.6,61-161.5c-26.4-33.2-46.8-58.8-69.7-87.5c-43.7,42.7-83.8,81.8-125.2,122.3
	C2202.6,3232.4,2244.8,3272.4,2291.4,3316.6z M1661.4,2963.1c28.3-28.6,55.4-55.9,84.6-85.4c-48.9-47.5-95.6-93-144.6-140.6
	c-31.4,28.9-59.8,55.1-90.6,83.4C1562,2869,1610.6,2915,1661.4,2963.1z M2076.6,3189.5c-44.8-41.9-87.8-82.2-132.7-124.2
	c-30.4,28.9-59.2,56.3-86.7,82.5c42.6,43.5,83.8,85.7,127,129.8C2016.9,3252.5,2042.7,3218.3,2076.6,3189.5z M2242.2,3348.4
	c-41.2-40.1-80.1-78-121.6-118.3c-32.8,29.9-64,58.3-91.5,83.4c39.6,43.3,76.8,84,116.5,127.3
	C2178.3,3409.4,2209,3380.1,2242.2,3348.4z M1652.5,3261.6c45.7-33.7,80.2-73.1,117.1-112.1c-34.1-34.6-66.6-67.5-99.1-100.4
	c-8.1-8.2-15.9-7.2-23.6,0.7c-11.5,11.7-22.4,24.1-34.7,34.8c-11.3,9.8-13.1,19.8-8.4,33.8c14,41.4,26.7,83.2,40.1,124.8
	C1645.4,3248,1648.2,3252.7,1652.5,3261.6z M1700.2,3000.5c38.6,38,74.5,73.3,110.4,108.7c29-29.4,56.7-57.6,85.7-87.1
	c-35.1-33.2-70.5-66.7-107.9-102.1C1757.9,2947.8,1730,2973.2,1700.2,3000.5z M1822.1,3513.1c-19.2,18.2-35.9,33.5-52.1,49.4
	c-17.3,17-17.3,22.3-0.4,40.7c37.8,40.9,88.9,51.3,140.6,59.5c12.6,2,23.8-4.8,29-16.5c5.1-11.5-5.1-18.2-11.8-25.3
	c-27.6-29.1-55.4-58.1-83.2-87C1837.9,3527.3,1831.1,3521.5,1822.1,3513.1z M2150.1,3525.6c-40.5,37.6-78,71.9-114.6,107.1
	c-4.9,4.8-8.8,15.7-6.7,21.3c1.9,4.8,13.2,9.1,19.9,8.5c45-3.6,87.9-14.8,125.9-40.2c14.2-9.4,28.3-19.7,35.9-39.6
	C2191.3,3564.5,2171.7,3546,2150.1,3525.6z M1441.9,2583.2c-0.3,20.4,41.4,156,53.7,174.8c24.1-17.7,44.9-38.4,60.6-57.8
	C1517.3,2660.4,1480.6,2622.8,1441.9,2583.2z M1604,2652c20.8-12.2,60.5-53,66.3-71.3c-25.6-2-50.7-4.5-75.9-5.7
	c-25.3-1.1-50.2-11.5-79.5-6C1546.1,2598.2,1573.9,2624,1604,2652z M2037.8,2593.4c-29.6,0-52.2-0.2-74.8,0c-22,0.2-44.3-1.7-69,2
	c25.5,24.4,48,45.8,72.8,69.4C1989,2644.7,2013.3,2622.8,2037.8,2593.4z M2375,3087c16.3-51.1,34.2-93.6,44.4-139.3
	c-36.2,24.4-63.1,57.4-93.4,83.3C2342.3,3049.6,2356.5,3065.8,2375,3087z M2222,2591.3c23.8,22.9,43.2,41.6,64.3,62
	c25.2-20,49.2-43.5,77.3-72.3C2313.5,2584.6,2270.4,2587.7,2222,2591.3z M1727.3,3516.2c28.2-12.8,44.6-27.7,49.7-41.9
	c-14-15.4-26.1-30.2-39.8-43.5c-13.6-13.2-23.7-30.6-46-40.6C1703.9,3434.9,1715.6,3475.4,1727.3,3516.2z M2234.1,3524.4
	c15.4-29.8,36.3-105.2,34.5-124.5c-27.7,26.1-53.5,52.3-80,83.3C2204.9,3497.9,2218.8,3510.5,2234.1,3524.4z M1619.5,3003.7
	c-25.4-22.1-41.7-46.5-64.3-64.4c-1.6,1.2-3.3,2.4-4.9,3.5c8.9,28.9,17.9,57.9,27.9,90.4C1592.7,3022.8,1604.1,3014.7,1619.5,3003.7
	z"/>
</svg>
