<?xml version="1.0" encoding="utf-8"?>
<!-- Generator: Adobe Illustrator 24.3.0, SVG Export Plug-In . SVG Version: 6.00 Build 0)  -->
<svg version="1.1" id="Layer_1" xmlns="http://www.w3.org/2000/svg" xmlns:xlink="http://www.w3.org/1999/xlink" x="0px" y="0px"
	 viewBox="0 0 4000 4000" style="enable-background:new 0 0 4000 4000;" xml:space="preserve">
<path d="M1605.7,3517.5c-131.6-0.1-234.2-14.6-332.3-54.8c-70-28.7-125.4-74.9-169.2-135.9c-7.2-10.1-15.2-19.7-21.7-30.2
	c-32.6-52.1-82.6-72.7-140.7-78.2c-49.4-4.6-98.9-7.1-148.2-12.2c-97.9-10.3-194.1-28.5-284.3-70.2
	c-52.1-24.1-99.2-55.5-136.3-100.1c-77.3-92.9-77.6-210.7,0-303.4c16.5-19.7,34.2-39.4,54.8-54.5
	c124.7-91.1,187.4-219.3,222.3-364.9c21.2-88.7,33.2-178.8,37-269.7c4.6-109.4,4.8-219,7.8-328.4c3.3-120.8,4.8-241.8,12.2-362.4
	C717,1185,746.1,1020.5,810.4,864c46.7-113.7,113-213.5,211.4-289.4c113.6-87.6,243.2-124.2,385.5-118.1c31.9,1.4,63.9,4.8,95.6,8.6
	c100.3,12,197.9-6,294.6-28.1c108.6-24.8,216.1-54.4,324.8-79.2c102.1-23.3,205.1-35.3,310.5-23.3C2576.5,351,2702.3,405,2802.6,510
	c77.7,81.3,126.3,180.3,160.9,286.7c41.9,128.6,64.3,260.9,72.9,395.2c10.9,170.1,15.5,340.5,26.1,510.6
	c10.7,172.5,35.4,342.9,89.5,508.1c56.6,173,155.2,315.7,298.3,428.2c40.5,31.9,80.5,64.7,118.5,99.5
	c31.4,28.8,54.7,64.5,71.2,104.1c28.3,67.9,22.4,133.4-15.3,195.9c-34,56.5-83.9,96.2-140.9,127.4c-91.7,50.2-191.2,77.1-293,96.2
	c-142.6,26.7-287.1,32.3-431.7,37.7c-81.5,3-163.1,7.4-244.1,15.9c-114.5,11.9-224.1,46.5-334.1,78.8c-104,30.5-207.9,61.8-313.2,87
	C1773.4,3504.1,1677.2,3519.2,1605.7,3517.5z M2016.6,582.2c8.7,22.6,1.7,32-15.4,32.6c-43.2,1.4-87,6.4-129.6,1.6
	c-76.8-8.8-153.2-22-229.1-36.4c-78.1-14.8-155.9-31.9-235.6-34.8c-175.3-6.3-318.1,57.8-425.5,198.1
	c-56.1,73.3-93.7,155.5-120.4,243c-47,154.3-64.8,313.3-69.7,473.8c-5.6,183.8-7.3,367.7-13.3,551.5c-4.3,132.5-22.9,263.3-60.3,391
	c-41,139.9-112.5,258.9-233,345.1c-14.2,10.1-27.2,22.4-39,35.2c-50.5,55-54.1,127.5-8.7,186.7c11.8,15.4,26.2,29.3,41,41.9
	c36,30.5,78.3,49.7,122.6,64.6c75.8,25.6,154.4,37.2,233.8,43.8c46.3,3.8,92.7,6.6,138.9,11.5c60.7,6.5,113.5,30.5,153.7,77.7
	c18,21.2,34.5,43.8,50.9,66.3c44.2,60.7,103.4,100,174.4,122.4c63.5,20.1,128.9,29.2,195.3,30.5c112.2,2.1,223-12.5,331.1-40.8
	c113.8-29.8,226.5-63.7,338.8-98.6c163-50.7,329.1-77.4,499.9-78.5c119.8-0.8,239.4-8.6,358.5-23.1c95.6-11.6,189.7-29.5,280.6-61.8
	c60.9-21.6,118.5-49.2,164.6-95.9c60.8-61.6,65.4-133.9,9.3-199.6c-27.3-31.9-60.6-58.9-92.4-86.7c-28.8-25.1-59.2-48.3-88.9-72.4
	c-84.5-68.8-150.2-153-202.3-248.2c-68.2-124.5-109.3-258.2-134.7-397.3c-31-170.2-39.3-342.5-48.7-514.8
	c-7.3-134-14.7-268.2-26.7-401.8c-9.8-109.2-32.9-216.3-71.8-319.5c-30.2-80-69.1-155-128.5-217.2
	c-90.8-95.1-205.9-138.5-334.4-149.9c-102.3-9-201.5,11.2-300.3,34.6c-119.5,28.2-239.1,55.9-358.7,84c-8.4,2-16.6,5.3-24.9,7.9
	c0.1,2.1,0.3,4.2,0.4,6.2C1816.1,579.3,1915.1,591.9,2016.6,582.2z"/>
<path d="M941.8,1621.8c28.8-2.1,32.6,0.5,35.3,20.8c0.3,2,0.3,4.1,0.4,6.2c12.3,269.4-17.5,532.2-122.3,783.4
	c-36.8,88.1-85,169.8-137.1,249.4c-10.7,16.4-20.5,33.4-30.6,50.3c-37.6,62.9-7.7,121.8,32.7,154.6c47.9,39,104.7,59.6,165.1,64.3
	c69.8,5.5,140.2,4,210.3,6.3c32.9,1.1,66.1,1.7,98.6,6.4c41.8,6,74.8,28.5,97.7,64.6c3.9,6.1,8.2,11.9,11.8,18.2
	c48.7,83.8,123.8,130.7,215.7,153.9c95.1,24,192,28.5,289.3,23.5c127-6.6,253.3-20.2,377.5-48.7c92.8-21.3,183.7-48.9,267.1-96.4
	c23.2-13.3,47.2-27,66.6-45c65.8-61.1,143.4-71.9,228-60.5c77,10.4,154.3,14,231.8,3.5c62.8-8.5,124.8-20.6,178.6-56.3
	c19.4-12.9,37.9-29.1,52.2-47.4c27.4-35,34.3-75.4,14.1-116.5c-16.8-34.2-35.3-67.7-55.1-100.4c-49.9-82.3-95.6-166.7-128.4-257.4
	c-15.8-43.7-29.2-88.2-42.5-132.7c-7.3-24.4-4.3-32.2,9.1-36.8c13.2-4.5,19.8,1.3,26.2,26.2c36.7,142.3,97.7,273.9,174.6,398.6
	c16.8,27.2,31.9,55.5,45.7,84.3c40.1,83.6-1.4,154.2-49.9,193.7c-54.6,44.4-119.5,63.8-187.6,75c-83.3,13.7-166.5,12.9-250.1,2.8
	c-29.7-3.6-59.8-3.9-89.7-6.1c-44.3-3.2-80.3,15.6-113.2,42.4c-76.5,62.2-163.2,104.7-257.6,131.7c-49.6,14.2-99.6,27.1-150.1,37.7
	c-141.9,29.9-285.5,45.3-430.6,44.6c-77.7-0.4-154.7-7.4-229.8-29.3c-90.3-26.3-167.8-70.3-214.4-156c-30.9-56.9-79.9-81.2-142.1-83
	c-29.9-0.9-59.9,1.1-89.9,0c-59.8-2.1-119.7-3.7-179.2-8.9c-55.3-4.8-106.1-25.4-153.3-54.8c-80.6-50.2-103.9-149.2-55.1-223.4
	c30.6-46.6,60.2-93.9,89.1-141.6c62.5-103.3,104.6-215,136.6-331c35.4-128.2,53.7-258.6,55-391.5c0.6-62-0.4-124-0.7-186
	C941.8,1643.4,941.8,1632.4,941.8,1621.8z"/>
<path d="M1605,1407.2c-6.3-136,2.7-270.3,50-399.5c36.5-99.7,93.7-183.5,187.1-238.9c7.1-4.2,14.3-9.4,22-10.7
	c5.6-0.9,15.3,2.2,17.6,6.4c2.6,4.9,0.3,13.7-2.4,19.7c-1.8,4-8,6.2-12.4,8.8c-89.1,53-146.4,131.5-182,227.4
	c-32.7,88.1-47,179.7-49.1,273.1c-1.2,54.6,2.6,109.4,2.8,164.1c0.1,26.7-0.5,53.9-5,80.1c-7.5,43.6-37.1,71.3-75.2,75.3
	c-44.3,4.7-78-14.2-98-54.8c-16.3-33.1-21.5-68.7-23.3-105c-4.3-90.2,6.9-179.4,20.6-268.2c17.7-114.5,46-226.4,84.9-335.6
	c3.1-8.7,5.3-18.5,11-25.3c4.3-5.1,15.2-9.8,19.9-7.7c5.1,2.3,8.1,12.7,9,19.9c0.7,5.6-3.2,11.8-5.2,17.6
	c-39.2,110.1-70.9,222.2-87.7,338.1c-12.9,89.1-21,178.4-17.3,268.5c1.2,30.1,4.9,59.7,19.8,86.8c8.2,14.9,18.9,27.2,35.8,32.4
	c28.7,8.8,57-4.6,66.9-34.5c6-18.3,7.4-38.3,10-57.6c1.1-8.1,0.1-16.5,0.1-24.8C1605,1444.4,1605,1425.8,1605,1407.2z"/>
<path d="M2820.8,1162.2c0,26.8,1.8,53.7-0.4,80.4c-2.9,34.8-25.6,55.6-60.4,59.3c-51.8,5.5-96.1-25.4-106.8-77.7
	c-8.3-40.4-11.4-81.8-19.6-122.2c-9-44.4-18.2-89.1-32.5-131.9c-26-77.4-75.4-136.6-148.8-174.5c-14.7-7.6-29.1-15.7-43.1-24.4
	c-47-29.5-61.2-79.4-35.8-128.8c23.2-45.1,62.7-67.3,111.7-72.9c57.6-6.7,104.8,18.8,147.3,53.1c60.3,48.6,98,113.4,125.1,185
	C2800.8,921.8,2817.3,1040.9,2820.8,1162.2z M2789.3,1167.6c-1.2-77.7-9.9-154.7-26.5-230.4c-18.5-84.3-45.5-165.4-99.6-234.8
	c-30.8-39.6-66-74.1-113.2-93.9c-48.3-20.3-102.8-8.5-136,29.4c-33.8,38.4-27,83.1,16.8,109.6c12.4,7.5,24.8,15,37.7,21.5
	c83.1,41.9,134.8,109.9,165.4,196.1c23.7,66.8,33.8,136.1,41.9,206c2.3,19.4,5.6,39,11.6,57.5c9.8,30.1,33.7,45.1,63.9,43.2
	c24.7-1.5,36.3-11.4,37.8-35.9C2790.4,1213.1,2789.3,1190.4,2789.3,1167.6z"/>
<path d="M1186.8,746.7c49,3,89.8,52.2,79.8,101.4c-4.2,20.7-14.2,40.8-24.7,59.4c-25.3,44.9-54.7,87.5-78.5,133.2
	c-41.9,80.6-61.3,168.3-73.7,257.8c-3.7,26.6-7.1,53.3-12.8,79.4c-6.4,29-19.9,40.8-45,43.6c-28.4,3.3-50.1-5.9-61.2-31.5
	c-8.9-20.5-14.8-43-17.9-65.2c-8.8-65-3.1-129.8,7.3-194.3c18.2-113.8,54.5-220.4,125.9-312.5c15-19.3,33.7-36.4,53.4-51
	C1152.9,757.2,1170.9,753.3,1186.8,746.7z M982.3,1261.3c1.5,17.9,3.5,48.8,6.8,79.6c1.1,10.1,4.5,20.2,8.5,29.6
	c5.2,12,13.9,20.9,28.5,19.3c14.1-1.5,18.2-12.8,20.4-24c4.9-25.3,9.4-50.7,12.8-76.3c11.6-87.4,31.1-173,69.5-252.6
	c22.8-47.2,53-90.7,79-136.4c10.1-17.8,20-36.2,26.2-55.5c7.1-22-3.1-40.9-20.7-54.3c-17.1-13-35.4-9.4-51.9,2
	c-10.9,7.6-22.3,15.6-30.6,25.8c-19.4,24-38.9,48.3-54.9,74.7C1009.8,1002,986.6,1122.7,982.3,1261.3z"/>
<path d="M2300.5,2133.7c-62.9,0.3-112.9-48.6-112.9-110.4c0-64.3,48.9-112.3,114.4-112.3c60.3,0,112,50,112.4,108.9
	C2414.8,2083,2364.4,2133.4,2300.5,2133.7z"/>
<path d="M1542.1,2134.4c-64,0-111-45.6-111.2-108.2c-0.2-63.9,48-112.6,111.1-112.3c60.6,0.4,109.8,48,110.5,107.1
	C1653.3,2084.9,1605.1,2134.3,1542.1,2134.4z"/>
<path d="M1914.1,2245.7c-64.5-2.2-115.3-39.3-132-98.9c-3.5-12.7-4.1-26.4-4.7-39.7c-0.6-13.2,6.1-21.4,19.8-22.9
	c12.3-1.3,19.5,4.8,22.9,16.1c2.9,9.9,5,20.1,8.3,29.8c21.6,64.2,90.4,86.6,145,45.7c12.3-9.2,20.2-25.3,27.6-39.5
	c5.1-9.8,5.5-22,9-32.7c5.8-17.4,14.5-22.5,29.8-19c15.3,3.5,18,14.6,17.9,28.2c-0.1,53.5-40.4,108.5-92.1,123.5
	C1949,2241.2,1931.4,2242.7,1914.1,2245.7z"/>
<path d="M1379.7,2507.6c-7.7,146.2-40.1,287.6-81.8,427.3c-3.8,12.7-7.1,30.2-24.8,24.8c-18.1-5.5-9.8-22.1-6.3-34.4
	c25.6-89.2,48.3-179.1,61.4-271.1c6.5-45.9,10.8-92.1,16.1-138.2c0.7-6.1,0.7-12.4,1.6-18.5c1.5-10.9,7.7-16.7,19-15.2
	c11,1.4,16.4,7.7,15.2,19.1C1379.9,2503.5,1379.9,2505.6,1379.7,2507.6z"/>
<path d="M2492.7,2470.1c10.4,0,18.2,0,27.4,0c2,7.5,4.7,14.1,5.6,20.9c6.2,47,10.1,94.4,18.4,141c15.9,90.3,34.3,180.2,51.5,270.2
	c2.8,14.7,8.7,30.4-10,41.4c-17.8-6.6-19.6-23-22.9-37.4c-13.2-58.3-27.7-116.4-37.7-175.2c-12.8-75.1-21.9-150.9-32.1-226.4
	C2491.5,2494.8,2492.7,2484.4,2492.7,2470.1z"/>
<path d="M2670.6,1416.2c21.1-8.3,29.2,1.1,33.1,15.8c3.2,11.9,4.4,24.3,7.3,36.3c2.2,8.9,4.9,17.9,9,26.2
	c6.8,13.9,18.4,23.3,34.1,22.3c14.4-1,25.1-10.8,29.2-24.4c5.4-17.6,8.7-35.8,12.5-53.9c2.1-10,5.4-17.9,17.6-17.2
	c13.5,0.8,18.5,9,15.8,20.9c-5.5,24-9.6,48.9-19,71.4c-19.6,46.8-80.4,53-109.7,11.4C2678,1493.1,2669.5,1456.4,2670.6,1416.2z"/>
<path d="M2464.4,2161.6c5.6,10.2,11.3,16.7,12.7,24.1c1,5.1-3.1,11.9-6.5,16.9c-13.7,20.6-27.7,41-42.1,61
	c-7.1,9.9-16.7,16.8-28.9,8.3c-12.1-8.5-5-18.4,0.5-27c14-21.6,28.1-43.2,42.9-64.2C2447.5,2174.6,2454.7,2170.2,2464.4,2161.6z"/>
<path d="M1425.8,2179.9c-1.1,5.8-0.5,11.6-3.1,15.4c-17.3,25.5-35.2,50.6-53,75.7c-5.1,7.2-11.5,12.4-20.8,7.1
	c-10.3-5.9-10.6-15.6-5.2-24c15.6-24.1,32-47.8,48.9-71.1C1400.3,2172.5,1411.2,2170.8,1425.8,2179.9z"/>
<path d="M2397.2,2187c-1.8,4.9-2.4,8.1-4,10.5c-15.4,23.1-30.9,46.1-46.6,69c-5.1,7.5-11.9,11.5-21,6.3c-10.1-5.7-12-15.4-6.6-23.7
	c15.6-24.1,32.1-47.7,49.5-70.5c3.1-4.1,13.1-5.5,18.9-4.1C2391.7,2175.5,2394.4,2183.1,2397.2,2187z"/>
<path d="M1345,2187.8c-2.7,6.2-4,11.4-6.9,15.5c-15.2,21.9-30.6,43.5-46.2,65.1c-5.7,7.9-13.3,9.2-21.5,3.9
	c-9-5.7-8.6-13.9-3.6-21.4c15.9-23.9,32-47.7,49.2-70.6c3.1-4.2,12.5-6.2,18.2-5.2C1338.4,2176,1341.4,2183.4,1345,2187.8z"/>
<path d="M2491.5,2274.3c-11.9,0.3-21.3-13-14.5-24c15.6-25.2,32.9-49.5,50.9-73.2c3-4,13.1-5.3,18.8-3.7c3.2,0.9,7.5,12.1,5.6,15.2
	c-17.7,28.6-36.5,56.4-55.3,84.3C2496.1,2274.1,2493.2,2273.9,2491.5,2274.3z"/>
<path d="M1502.1,2188.4c-4.9,10.4-6.6,15.2-9.3,19.4c-13.1,20.6-25.9,41.6-40.4,61.3c-3.6,4.8-14.2,8.4-20,6.7
	c-10.8-3.1-12.4-13.8-6.7-22.6c15-23.1,30.7-45.7,47.2-67.7c2.5-3.3,10.8-3.4,16.2-2.9C1494.1,2183.2,1498.6,2186.8,1502.1,2188.4z"
	/>
</svg>
