<?xml version="1.0" encoding="utf-8"?>
<!-- Generator: Adobe Illustrator 24.3.0, SVG Export Plug-In . SVG Version: 6.00 Build 0)  -->
<svg version="1.1" id="Layer_1" xmlns="http://www.w3.org/2000/svg" xmlns:xlink="http://www.w3.org/1999/xlink" x="0px" y="0px"
	 viewBox="0 0 4000 4000" style="enable-background:new 0 0 4000 4000;" xml:space="preserve">
<path d="M1055.8,3666.8c-28.7,11.7-54.6,25.9-82.4,33.2c-166.5,43.6-320.8-60.2-348.3-232.4c-12.2-76.5-5.3-150,31.3-219.2
	c7.8-14.7,8.1-25.7-2.4-39.5c-86.5-113.6-76.9-286.1,1.3-387.6c2-2.6,3-5.9,5-10c-97.9-144.2-92.2-288.6,2.5-433.4
	c-100.6-144.3-101-290.5-3.1-439.8c-96.7-144.6-101.7-290.8,3.3-439c-5.3-8-10.9-17.5-17.6-26.2c-81.2-107.3-78.2-280.1-1.8-389.9
	c16.7-24.1,16.7-24.1-0.7-48.6c-72.2-101.9-71.9-269.9,3-368c14.9-19.6,14.6-33.1,4.6-53.8c-60.3-123.9-55.9-245.6,20.8-361.1
	c76.8-115.6,251.1-154.7,368.2-79.8c2.8,1.8,5.8,3.2,11.9,6.4c8.7-6,19.5-11.8,28.2-19.9c80.5-75.3,237.7-83.5,333.5-6.4
	c13.2,10.7,24.2,15.8,37.7,2.5c81.9-80.2,257.4-72.6,340.7,8.9c1.5,1.4,4,1.7,10.3,4.3c33.4-23.2,67.7-50.6,111.8-59.7
	c43.6-9,87-10.2,130.4-1.5c43.7,8.8,82.3,28.7,117.2,61.5c120.8-89.8,243.7-96.9,370.6-2.8c53.4-46.1,118.1-68.8,190.2-66.2
	c70.9,2.5,133.8,26.3,185.5,80.6c10.2-4.7,20.4-8.8,30-14c122.6-66.3,297.9-24.5,369.6,105.6c60.2,109,63.9,220.4,15.3,333.4
	c-10.1,23.5-11.1,39,4.6,60.5c51.9,71,62,152.5,50.4,237.4c-6.5,47.2-22.2,91.8-49.4,131.3c-11.5,16.7-9.4,28.7,1.6,45.1
	c76,112.9,75.3,277.9-0.4,391.8c-17.9,27-17.9,27-1,52.4c76.1,113.9,75.8,273.9-0.8,388.1c-16.6,24.7-16.6,24.7,0.4,49.3
	c75.1,108.7,74.7,280.9-1.7,387.9c-11.4,15.9-13.1,27.3-1.7,44.8c67.8,103.3,73,214.3,35,328.9c-6.6,19.9-17.9,38.8-29.5,56.4
	c-12.1,18.2-11.8,32-0.1,51.7c60.2,101.1,66.7,207.5,24.3,316.7c-6.8,17.6-16,35.2-27.9,49.6c-15.3,18.4-14.9,34.1-5.7,55.2
	c43.4,99,41.5,199.8-1.5,297.4c-61.2,139.1-198.6,179.4-314.7,152.3c-26.8-6.3-52.1-20.3-77.2-32.5c-13-6.3-22.4-7.4-32.3,4.5
	c-63.2,75.9-208,98.5-307.8,43.5c-11.7-6.4-22.5-14.6-33.1-22.8c-19.8-15.5-19.7-16-40-1.2c-73.8,53.9-154.9,70-242.2,42.8
	c-28.3-8.8-55.1-24.6-80.2-40.8c-26.1-16.8-25-19-49.2-1.4c-78,56.9-163.4,64.2-252.7,35.1c-24-7.8-46.2-22.4-67.7-36.4
	c-22.5-14.7-21.5-15.9-43,0c-86.2,63.7-179.5,70.7-277.2,32.3c-19.4-7.6-36.5-21.4-53.8-33.6c-11.2-7.9-20.3-12.7-32.6-1.8
	c-97.2,85.5-272.7,74-352.8-17.8C1061.3,3669.3,1058.9,3668.6,1055.8,3666.8z M816,2376.5c-92.7,49.4-128,123.3-130.7,216.2
	c-2.8,95.9,37,168.4,128.1,218.6c-63,23-95.2,65.7-113.5,119.8c-18.2,53.7-17.4,107.9-2.2,162.4c15.7,56.1,58.7,90.5,105.7,127.3
	c-40.1,19.5-59.7,50.1-72.7,85.8c-19.3,53.1-22.5,107.5-10.7,162.5c16.6,76.9,84.4,137.2,157.5,146.5
	c63.4,8.1,157.5-31.5,175.5-119.8c1.1-5.1,8.5-9,12.9-13.4c4.4,5.5,9.9,10.5,12.9,16.8c2.8,5.9,2.3,13.2,4.1,19.7
	c16.4,58.7,50.3,102.2,109.2,123.1c90.4,32.1,189.6-18.8,220.3-112.6c3.6-10.9,7.8-21.5,11.8-32.4c21.6,6,19.9,21.8,23.9,33.7
	c29.6,87.9,110,136.8,196.7,118.5c71.5-15.1,115.6-60.3,138.2-128.4c3.6-10.8,8.8-21.2,13.2-31.7c2.9,0.1,5.8,0.1,8.7,0.2
	c4.7,13,9.7,25.8,14,38.9c32.7,99.6,139.8,148.9,232.7,106.8c48.9-22.2,80.7-59.2,95.9-110.8c3.5-12,9.1-23.5,14.2-36.3
	c21.8,10.1,20,28.2,24.7,42.1c25.7,75.4,93.9,125.7,167.2,122.2c79.6-3.8,138.5-52.6,158.9-131.1c2.4-9.1,6.8-17.6,10.3-26.4
	c2.6-0.3,5.3-0.7,7.9-1c5.2,8.8,10.9,17.3,15.4,26.4c8.9,18.1,15.4,37.6,25.9,54.6c34.5,55.6,86.9,81.4,150.7,77.6
	c88.4-5.3,148.7-62.5,165.5-150.2c1.3-6.9,4.9-13.4,7.4-20c2.5-0.4,5-0.8,7.4-1.2c4.6,9,10.1,17.6,13.6,27
	c12.1,32.5,31.1,59.4,60.4,78.6c65.1,42.7,155.9,34.7,215.2-18.8c41.8-37.6,59.6-86.6,63.9-140.5c6.1-77.5-5.3-150.2-68.4-205.3
	c-3-2.6-4-7.5-5.4-10.4c1.7-3.6,2.2-6.2,3.7-7.4c4.3-3.6,8.6-7.3,13.6-9.8c35-18,55.8-47.8,70-83.1c23.6-58.5,25.7-118.1,6.2-177.8
	c-15.5-47.4-43.2-85.9-87.7-110.9c-7.1-4-12.5-11-21.8-19.4c56.8-29.5,96.4-68.7,112.7-127.7c15.9-57.9,15-115-4.3-172.2
	c-19.4-57.4-60.9-94.6-114.8-123.2c30.3-26.5,58.9-47.9,82.8-73.5c24.2-25.8,36.9-59.8,40.8-94.6c3.9-35.4,4.5-71.7,1.3-107.1
	c-3.1-34.9-16.9-68.7-40.4-94.8c-23.4-26.1-52-47.4-78.8-71.2c25.7-22.9,54.5-44.3,77.8-70.5c24.2-27.1,37.1-62.2,41.2-98.2
	c3.8-34.2,4.3-69.4,0.9-103.7c-3.6-36.1-18-70.5-43.3-97c-24.2-25.3-52.9-46.4-79.9-69.6c25.3-21.8,54.5-42.6,78.2-68.4
	c24.4-26.7,37.5-61.1,44.4-96.9c6.9-35.4,9.6-71.1,2.7-107c-6.9-35.8-17.6-70.6-42.1-97.8c-23.3-26-50.6-48.3-77.4-73.4
	c7.4-5.5,13.1-11,19.9-14.6c117.1-62.6,144.2-280.9,12.3-371.2c-8.7-6-15.9-14.1-24.2-21.5c4.9-6.9,7.3-10.6,10-14
	c15.7-20.2,35-38.7,46.6-61c27.7-53.2,36.2-111.2,25.6-170.2c-12.7-70.7-45.6-129.1-114.8-159.9c-108.1-48.2-214.4,14.2-232.7,105
	c-1.2,5.9-5.6,11.1-8.4,16.4c-20.8-3.3-18.9-18.7-21.3-31.3c-9.7-49.6-32.9-90.4-77.1-117.1c-97.6-59-226.5-7.9-257.8,101.9
	c-2.8,9.9-7,19.4-10.9,29.9c-20.9-6.8-20.4-21.6-23.8-33.9c-11.1-40.7-33.8-73-69.7-95.5c-101.1-63.6-233.4-7.8-259.4,109.1
	c-2.3,10.3-6,20.3-8.7,29.7c-25.7-0.5-23.5-17.9-26.7-31.3c-18.7-77.9-87.6-133.3-165.5-133c-78.4,0.3-148.7,58-166.5,136.1
	c-2.3,10.1,0.1,25.9-15,26.6c-17.8,0.8-15-16-17.6-27.4c-18.1-79.9-82.1-134.1-162-137.2c-75.5-2.8-144.2,46.7-168.8,120.2
	c-3.9,11.7,0.3,32.2-16.6,33.3c-21.4,1.3-15.2-21.5-19.2-33.6c-25-75.8-97.5-125.4-179-120.4c-78.3,4.8-142.7,63.8-156.4,142.9
	c-1.6,9.4-4.5,18.6-6.7,27.5c-20.4,0-21.2-14.1-24.1-25.5c-7.9-30.8-26.1-54.3-50.2-73.8c-68-55-174.5-43.3-237.7,25.1
	c-89.3,96.7-68.7,278.4,19.2,340.5c7.5,5.3,13.1,13.2,21.9,22.2c-57,27-91.6,68.1-108,123.4c-16.1,54.1-15.3,108.4,2.5,162.3
	c18.1,54.7,61,88.5,110.7,123.8c-62.8,30.2-98,75.8-116.1,135.3c-18,59-16.6,117.6,4,175.3c20.8,58.3,63.6,98.4,123.7,131.7
	c-50.7,20.5-83.1,50-106.1,89.8c-22.5,39-31.9,81.7-32.3,125.8c-0.4,45.5,11.4,88.4,33.7,128.8c22.2,40.2,59.2,64.8,98.8,92.4
	c-94.4,47.4-130,123.6-130.9,219.4C681.8,2255.7,726.8,2327.2,816,2376.5z"/>
<path d="M1023.7,1943.1c0-353.6,0-707.3,0-1060.9c0-43.9,1.7-87.6,18.7-129c41.2-100.6,114.4-160.9,224.2-165.3
	c115.5-4.7,231.2-3.8,346.8-3.8c308.7-0.1,617.4,0.6,926.2,1.2c51.6,0.1,103.4,0,154.9,3c141.2,8.3,230.6,107.3,248.3,235.9
	c3.4,24.3,3.2,49.3,3.2,74c0.2,684.8,0.2,1369.6,0.1,2054.4c0,25.8-0.8,51.6-2.3,77.4c-7.8,133.6-107.5,233.2-240.9,239.8
	c-39.2,1.9-78.6,1.1-117.9,1.1c-427.7,0-855.4-0.4-1283.2,0c-50.2,0-98.4-5.5-142.9-30.7c-79.1-44.7-123.6-112.2-131.6-202.6
	c-2.9-32.4-3.2-65-3.2-97.6c-0.2-332.3-0.1-664.6-0.1-996.9C1023.9,1943.1,1023.8,1943.1,1023.7,1943.1z M1064,1933
	c0.1,0,0.1,0,0.2,0c0,342.5-0.1,684.9,0.2,1027.4c0,29.1,0.3,58.6,4,87.4c8.1,62.3,39.9,111,91.1,147.1
	c46.4,32.7,99.3,37.8,154.1,37.7c444.6-0.9,889.2-1.2,1333.9-1.7c19.1,0,38.2,0.1,57.2-1.3c95.3-7.1,170.5-68.4,193.4-160.7
	c6.9-27.9,8.6-57.8,8.6-86.7c0-666.9-0.5-1333.9-1.2-2000.8c0-50.5,0.2-101.2-3.1-151.5c-4.5-67.6-35.4-121.7-91.3-161.2
	c-40.8-28.8-85.4-41.3-135.8-41.2c-359.3,0.7-718.6-0.1-1077.9-0.2c-107.8,0-215.6-0.6-323.4,1.2c-103.4,1.7-191.8,81-205.7,183.2
	c-3.8,27.7-4.1,56-4.2,84C1063.9,1241.4,1064,1587.2,1064,1933z"/>
<path d="M2416.3,2428.2c-0.3,29.5-23.7,52.4-53.7,52.6c-28.9,0.2-51-22.2-50.3-51.1c0.7-30.1,24.3-55.4,51.5-55.5
	C2392.9,2374.3,2416.7,2398.7,2416.3,2428.2z"/>
<path d="M1612.1,891.1c-27.8-0.2-49.5-23-49.7-52.3c-0.2-27.6,25.8-54.7,52.4-54.7c28.7,0,52.3,25.1,51.5,54.6
	C1665.5,867.4,1640.8,891.3,1612.1,891.1z"/>
<path d="M1663.8,2428.9c-0.5,31.2-22.6,52.3-53.9,51.5c-28-0.7-48.8-24.2-47.7-53.9c1-28.3,24.4-52.3,50.8-52.3
	C1642.7,2374.3,1664.2,2397.4,1663.8,2428.9z"/>
<path d="M2365.5,891.1c-29,0.2-49.8-21.2-49.9-51.3c-0.1-28.3,24.9-54.6,52.1-55c27.2-0.3,48.9,22.6,49.6,52.4
	C2418.1,867.2,2395.3,890.9,2365.5,891.1z"/>
<path d="M1662.6,3025.3c0.7,31.2-20.8,54.8-50.8,55.6c-27.3,0.7-50.1-22-51.4-51.4c-1.3-29.4,22.3-55.3,50.7-55.6
	C1638.9,2973.5,1661.9,2996.6,1662.6,3025.3z"/>
<path d="M2362.7,3079.9c-27.1,0-50.7-24.4-50.8-52.6c-0.1-28.2,25.6-53.8,53.9-53.7c27.7,0.1,50.4,24,50,52.6
	C2415.4,3056.6,2392.4,3079.9,2362.7,3079.9z"/>
<path d="M1663.3,1460.8c-0.3,31.4-21.2,51.4-53.3,51.1c-30.7-0.3-49.1-19.6-48.4-51c0.7-29.5,24.9-53.8,53-52.9
	C1642.7,1408.7,1663.6,1431.4,1663.3,1460.8z"/>
<path d="M1261.6,1093.1c30.4,0.1,52.4,23.1,51.7,54c-0.7,28.5-23.3,51-51.7,51.3c-28.8,0.3-49.8-21.8-49.7-52.1
	C1212.1,1118,1235.4,1093,1261.6,1093.1z"/>
<path d="M2764,1142.9c1,31.9-19.2,53.3-51.2,54.1c-28.4,0.8-49.6-18.7-51-46.8c-1.5-28.4,23.2-56.9,49.8-57.5
	C2739.8,1092,2763.2,1114.4,2764,1142.9z"/>
<path d="M2041.6,1148.1c-1,29.2-23.3,50.7-52.2,50.5c-28.6-0.2-49.8-22.8-49.5-52.7c0.4-29.3,26-54.1,54.1-52.3
	C2022.5,1095.4,2042.6,1118.4,2041.6,1148.1z"/>
<path d="M1258,2767.7c-27.7-0.5-47.4-21.8-46.5-50.2c0.9-29.3,23.2-52.7,50-52.5c28.7,0.2,51.6,25.7,50.2,55.7
	C1310.4,2749.7,1289.2,2768.3,1258,2767.7z"/>
<path d="M2711.5,2665.2c29.3-0.2,52.1,23.9,51.7,54.7c-0.4,29.4-21.2,49.7-51.8,50.5c-26.8,0.8-51-24.1-50.6-52
	C2661.2,2691.1,2685.7,2665.4,2711.5,2665.2z"/>
<path d="M1988.9,2770.6c-26.6,0-48-21.9-48.9-49.9c-0.9-27.7,22.5-53.9,48.8-54.7c28.6-0.9,52.5,24,52.2,54.4
	C2040.7,2749.4,2018.8,2770.5,1988.9,2770.6z"/>
<path d="M2417.3,1457.5c0.6,29.5-22.8,52.9-53.2,53.3c-28.2,0.4-47.5-19.2-48.3-49c-0.8-28.9,20.6-52.5,48.7-53.7
	C2393.4,1406.9,2416.8,1428.8,2417.3,1457.5z"/>
<path d="M1236.2,1754.9c-0.3,31.4-21.2,51.4-53.3,51.1c-30.7-0.3-49.1-19.6-48.4-51c0.7-29.5,24.9-53.8,53-52.9
	C1215.6,1702.8,1236.5,1725.5,1236.2,1754.9z"/>
<path d="M1990.2,1751.6c0.6,29.5-22.8,52.9-53.2,53.3c-28.2,0.4-47.5-19.2-48.3-49c-0.8-28.9,20.6-52.5,48.7-53.7
	C1966.3,1701,1989.7,1722.9,1990.2,1751.6z"/>
<path d="M2741,1509.9c0.6,29.5-22.8,52.9-53.2,53.3c-28.2,0.4-47.5-19.2-48.3-49c-0.8-28.9,20.6-52.5,48.7-53.7
	C2717.1,1459.3,2740.5,1481.2,2741,1509.9z"/>
<path d="M1415.1,1930.7c-0.3,31.4-21.2,51.4-53.3,51.1c-30.7-0.3-49.1-19.6-48.4-51c0.7-29.5,24.9-53.8,53-52.9
	C1394.5,1878.7,1415.4,1901.3,1415.1,1930.7z"/>
<path d="M2469.5,1751.2c0.6,29.5-22.8,52.9-53.2,53.3c-28.2,0.4-47.5-19.2-48.3-49c-0.8-28.9,20.6-52.5,48.7-53.7
	C2445.5,1700.6,2468.9,1722.5,2469.5,1751.2z"/>
<path d="M2037.8,2052.9c-0.3,31.4-21.2,51.4-53.3,51.1c-30.7-0.3-49.1-19.6-48.4-51c0.7-29.5,24.9-53.8,53-52.9
	C2017.2,2000.9,2038.1,2023.5,2037.8,2052.9z"/>
<path d="M2791.8,2049.7c0.6,29.5-22.8,52.9-53.2,53.3c-28.2,0.4-47.5-19.2-48.3-49c-0.8-28.9,20.6-52.5,48.7-53.7
	C2767.8,1999,2791.2,2020.9,2791.8,2049.7z"/>
</svg>
