<?xml version="1.0" encoding="utf-8"?>
<!-- Generator: Adobe Illustrator 24.3.0, SVG Export Plug-In . SVG Version: 6.00 Build 0)  -->
<svg version="1.1" id="Layer_1" xmlns="http://www.w3.org/2000/svg" xmlns:xlink="http://www.w3.org/1999/xlink" x="0px" y="0px"
	 viewBox="0 0 4000 4000" style="enable-background:new 0 0 4000 4000;" xml:space="preserve">
<path d="M1884.7,263.5c87.4,6.4,174.8,12.1,262.1,19.7c21,1.8,42.5,7.2,62,15.3c80,33.2,164.6,45.4,249.3,58.3
	c42.2,6.4,84.1,15.5,126,23.8c8.9,1.8,17.6,5.1,26.1,8.5c69,27.5,93.7,69.4,85.1,143.3c-2.7,23.3-5.9,46.6-7.2,70
	c-3.1,51.7,12.4,96.7,52.5,131.1c18.6,15.9,37.5,31.5,57.6,45.5c54.3,37.8,74.5,89.1,65.1,153.9c-3.5,24.1-5.9,48.6-6.2,73
	c-0.8,49.7,15.2,72.4,61.4,90.9c44.3,17.7,91.5,18.8,138,24.3c9.1,1.1,18.3,1.3,27.4,2.5c65.3,8.4,111,42.4,136.3,103.6
	c9.8,23.5,21.1,46.4,30.9,69.9c33.8,81.4,88.8,143.2,167.6,183.2c49.8,25.3,90.1,61.7,129.8,100.5c58.1,56.8,88.9,125.2,103.6,203.4
	c12.6,66.9,13,133.3,4.6,200.8c-7.7,62.6-11,125.9-14.2,189c-5.4,104.1-32,203-68.5,299.8c-26.6,70.6-54.8,140.6-79.9,211.6
	c-36.3,102.5-92.7,192.2-165.1,272.9c-41.5,46.2-81.2,94.2-119.5,143.2c-65.9,84.4-144.6,150.9-244.6,192.5
	c-44.9,18.7-88.8,41.7-129.5,68.3c-98.4,64.3-204.5,109-317.7,139.3c-139.2,37.2-279.8,64.4-423.5,76.9c-66.7,5.8-132.5,1.1-198-9.3
	c-107.6-17.2-215.2-34.7-322.2-55c-131.8-24.9-256.5-73.3-380.6-122.3c-106.5-42-192.7-114.2-269.5-197
	c-92.9-100.1-184.6-201.5-274.5-304.3c-56.4-64.6-104-135.8-142.8-212.8c-22-43.6-45.8-86.5-71.4-128.1
	c-60.2-97.8-88.8-205-98.9-318.2c-7.5-84.3-16.1-168.4-23.5-252.7c-11.1-126.3,2.1-250.3,37.1-372.2
	c15.5-53.9,28.9-108.3,45.3-161.9c12.8-41.8,25.5-84.2,44.3-123.5c52-108.4,105.3-216.3,161.7-322.4
	c55.3-104.1,130.7-191.9,228.3-259.3c77.1-53.3,153.7-107.5,232.2-158.7c105.9-69,213.3-135.7,320.2-203.1
	c109.6-69.1,229.7-103.6,358.9-106.5c47.9-1.1,95.8-0.2,143.7-0.2C1884.5,268.5,1884.6,266,1884.7,263.5z M2569.1,475.7
	c-0.4-2.7-0.8-5.5-1.2-8.2c-45.8-8.3-91.4-17.7-137.4-24.7c-74.6-11.3-148.7-23.8-220.2-49.3c-31.4-11.2-64.5-20.9-97.5-23.9
	c-132.1-12-264.4-15.5-397.2-8c-94.8,5.3-182.4,30.1-263.5,79c-192.1,115.9-381.8,235.2-563.8,366.6c-85.9,62-157,136.7-207.4,229.5
	c-49.1,90.5-94.1,183.1-141.2,274.6c-28.6,55.5-50.2,113.6-65.9,174c-18,69-36.8,137.8-55.3,206.7c-22.8,84.8-26.6,171-19.6,258
	c7,87.4,15.8,174.6,22.6,262c8.2,106.3,35.2,206.4,90.5,298.5c29.3,48.9,57,98.9,83.8,149.2c28.4,53.4,61.9,103.1,101.2,148.9
	c49.1,57.3,98.5,114.3,149,170.3c57.4,63.6,115,127,174.6,188.4c56.5,58.1,120.9,106.9,196.2,138.3
	c129,53.8,260.3,101.6,397.7,128.6c89.9,17.7,180.8,30.2,271.5,43c47.3,6.7,95.4,13.9,142.9,12c75.2-3,150.3-11.3,224.9-21.3
	c110.3-14.8,217.2-45.2,323.2-78.5c62.6-19.7,121-47.7,177.3-81.3c60.3-36,121-72.1,184.6-101.7c81.7-38,148-92.2,203.4-162.3
	c44.2-56,89.7-111.1,137.5-164c68.1-75.5,117.1-161,147.9-257.8c16.1-50.4,33.5-100.7,54.1-149.4c50.3-118.8,79.9-241.4,80.7-370.9
	c0.3-38.6,4.8-77.3,10.5-115.6c9.8-66.5,8.8-132.1-9.1-197.1c-2.2-7.9-4.9-15.8-5.3-23.9c-1.2-25.1-16-33.1-38.9-38
	c-77.9-16.7-153.4-40.3-224-79c-92-50.5-172-113-223.5-206.8c-5.9-10.7-10.4-22.6-18.1-31.8c-6.7-8-16.5-17.4-25.8-18.3
	c-57.6-6.1-112.1-22.8-163.4-48.1c-33.5-16.6-56.8-13.5-86.7,11.4c-51.5,42.9-109.5,77.9-163.4,118.1
	c-30.9,23.1-64.4,33.8-102.3,34.4c-25.5,0.4-50.9,2.3-76.4,3.2c-24.7,0.9-44.6,11-62.9,27.3c-33.4,29.9-67.8,58.8-102.5,87.3
	c-12.4,10.2-26.9,22.2-43.7,9c-16.4-12.9-6-28.4,0.6-41.4c43.2-85.6,87.6-170.5,151.2-243.6c39.5-45.4,78.7-91,117.7-136.7
	c14.4-16.9,31.6-32.6,30.6-57.8c-1.6-39.8-13.2-73.8-50.7-94.8c-22.2-12.4-43.9-26.1-64.4-41.1c-55.5-40.5-61.2-82.4-16.2-133.3
	c33-37.4,68.5-72.7,104.4-107.4c18-17.4,22.5-33.5,11.6-56.8c-12.5-26.7-21.8-54.9-31.5-82.8c-18.5-53.3-1.6-95.8,41.7-129.3
	c8.8-6.9,18.4-12.9,27.5-19.4C2556.3,485.3,2562.7,480.5,2569.1,475.7z M2305.3,1543.6c14.6-11,29.5-21.6,43.6-33.1
	c34.7-28.2,74.5-40.9,119-40.4c18.3,0.2,36.7,0,55-1c20.6-1.1,40-5.6,57.4-18.2c65.9-48.1,132.9-94.6,197.8-143.8
	c25.2-19.2,47.4-22.9,75.4-7.9c56.3,30,116.7,48.1,180.2,55c18.4,2,32.8,10.2,42.8,25.9c6.6,10.3,12.7,21,19.9,30.8
	c27.2,36.8,50.6,77.5,83.1,109c87.7,85,194.8,135.8,313.4,162.7c7.1,1.6,14.8,0.2,25.7,0.2c-5.5-8.2-8.3-13.6-12.2-18
	c-36.6-41.4-74.9-79.9-125.5-105.4c-81.4-41-144.4-102.1-185.6-184.2c-13.7-27.3-25.8-55.4-38.7-83.1c-6.9-14.8-13.8-29.5-21.2-44
	c-11.1-21.8-28.9-33.3-53.6-34.7c-22.4-1.3-44.7-3.5-67-5.8c-51.9-5.4-102.8-14.5-150.4-37.6c-37.6-18.2-65.1-46.4-78.5-85.6
	c-8.1-23.8-13.4-49.4-14.4-74.4c-1.2-30.3,1.8-61.1,6-91.3c4.1-29.4-2.7-51.3-28.2-68.3c-20.3-13.5-39.2-29.4-57.6-45.4
	c-51.7-44.8-81.9-101.4-85.6-170c-1.7-31.4,1.8-63,3-94.5c0.4-9.7,1.3-19.4,2.1-32.5c-30.6,10.3-50.2,29.6-72,45.5
	c-23.6,17.3-31.4,38.5-21.3,66.6c11.6,32.6,21.2,66,33.5,98.3c11.7,30.6,4.6,55.6-17.2,78.2c-8.5,8.8-16.8,17.8-25.3,26.6
	c-27.1,27.7-54.7,54.9-81.4,83c-31.9,33.5-32.1,45,2.3,74.6c20.7,17.9,43,34.9,66.9,47.9c62.8,34.3,96.1,138.1,32.9,202.8
	c-7.8,8-14.4,17.1-21.8,25.6c-37.3,43.2-75,86.1-111.8,129.7C2357.1,1432.9,2325.2,1483.5,2305.3,1543.6z"/>
<path d="M3480.2,1195.8c-42.3-1.1-75.1-17.3-90.6-59c-5-13.6-12.9-21.8-26.7-26.6c-63-21.9-93.8-84.5-74.1-149.4
	c12.4-40.9,37.8-69.9,79.8-80.9c20.3-5.3,33.2-13.8,41.2-34.9c10.2-27,32.5-43,61.5-49.8c62.4-14.8,128.9,22.4,147.6,83.2
	c5.6,18.1,7,36.1-0.2,53.9c-11.2,27.8-10.9,55.1-0.2,83.3C3649.2,1096.2,3570.3,1199.3,3480.2,1195.8z M3371.7,997.7
	c-0.6,21.5,5.8,32,27.6,37.1c28.4,6.6,46.3,23.9,58.3,49.1c2.6,5.5,4.4,12.1,8.6,15.9c4.8,4.4,12.6,9.6,17.9,8.5
	c32.2-6.5,68-41.4,50.6-78.4c-17.3-36.9-21.8-73.2,0.7-110.7c9.3-15.5,4.5-24-10.5-32.8c-23.2-13.8-37.2-9.6-46.2,17.3
	c-8.2,24.6-24.6,39.1-47.4,48c-12.3,4.8-24.5,10-37.2,13.7C3377.5,970.4,3372.3,982.2,3371.7,997.7z"/>
<path d="M3169.6,761.5c-32.6,0.3-57.5-6.9-78.4-28.6c-10.1-10.4-24.7-17.8-38.5-23.1c-57.7-21.9-77.9-74.8-63.7-131.7
	c8.5-34.1,31.8-56.7,64.6-67.8c24.1-8.2,41.5-20.6,55.4-43.5c27.8-45.7,92.2-54.5,133.8-20.4c32,26.2,55.7,59.6,70.6,98
	c18.4,47.3,7.2,89.5-27.3,126.5c-15.9,17-31.1,34.8-45.1,53.3C3221.8,749.4,3198.3,764.3,3169.6,761.5z M3185.9,509.8
	c-8,10-12.8,14.1-15,19.3c-12.7,29.1-34,47.1-65,54.2c-7.8,1.8-15.7,4.9-22.2,9.5c-14.3,9.9-14,25.6,1.1,34.4
	c25.1,14.6,51,27.8,77.7,42.2c24-25.2,48-49.7,70.7-75.3c3.2-3.6,2.8-14.5-0.3-19.2C3219,553.9,3203.7,534.1,3185.9,509.8z"/>
<path d="M1004.3,1422.8c-123.7,1.1-222.2-97.9-222.7-223.6c-0.6-132.5,93.7-229.9,226-229.2c137.8,0.8,224.1,98.6,224.5,220.9
	C1232.6,1325.4,1140.1,1421.8,1004.3,1422.8z M819.4,1196.2c-0.8,105,79.9,189.7,181.9,190.9c108.6,1.3,197.3-83.4,195.9-191.6
	c-1.7-122.6-96.2-190.1-182.9-191C917.6,1003.5,818,1076.7,819.4,1196.2z"/>
<path d="M2027.9,624.5c98.2-2.3,166.7,78.3,166.4,173.4c-0.3,95.3-76.4,169.6-169.4,168.5c-96.8-1.1-167.9-74.7-167.3-173.2
	C1858.1,694.6,1929.9,623.5,2027.9,624.5z M2025.4,928.1c86.1,0.3,134.7-71.5,133.1-137.5c-1.8-73.4-62.7-132.4-134.3-130.4
	c-75.1,2.1-129.2,61.3-129.3,138.2C1894.8,859.8,1950.1,933.4,2025.4,928.1z"/>
<path d="M1020.3,2491.6c71.4-5.7,148.7,62.8,148,153.6c-0.7,86.3-64.3,149.2-151.7,149.1c-82.8-0.1-147.9-66.4-146.8-151.5
	C871,2551.3,943.8,2487.5,1020.3,2491.6z M1015.4,2757.2c65.2,0.5,115.2-46.1,116-108.5c0.9-65.7-47.5-118.5-109.6-119.5
	c-62.7-1-111.9,49.7-112.4,116C908.9,2705.5,957.4,2756.7,1015.4,2757.2z"/>
<path d="M2080.5,2773.1c84.7-2.4,149,68.3,150.5,149c1.5,84.9-66.2,151.4-151.3,150.8c-83-0.6-147.2-67.6-146.3-152.6
	C1934.2,2836.1,1997.8,2772.6,2080.5,2773.1z M2193.2,2926.2c2-60.5-47.2-114.9-105.2-116.3c-64.4-1.6-115.3,45.2-116.7,107.1
	c-1.4,62.2,45.4,115.8,103.5,118.4C2138.7,3038.4,2191.1,2990.1,2193.2,2926.2z"/>
<path d="M586.6,1830c0.6-72.7,51.5-123.2,123.4-122.7c68.9,0.5,123.3,55.9,122.9,125.1c-0.4,72.2-53.5,124.9-125.9,124.9
	C639.4,1957.3,586,1900.8,586.6,1830z M795.3,1830.5c-0.4-46.8-39.7-87.6-84.2-87.4c-47.3,0.1-86,38.1-86.4,84.6
	c-0.4,52.4,36.5,90.2,87.1,89.4C759.8,1916.2,795.7,1879,795.3,1830.5z"/>
<path d="M2643.4,2790.8c0.1-69,51.3-121.2,118.4-120.9c67,0.3,120.6,53.4,120.8,119.7c0.2,70.9-51.4,121.7-124,122.2
	C2694.8,2912.3,2643.3,2858.2,2643.4,2790.8z M2759.9,2873.6c47.5,0.3,85.9-37.3,85.7-84c-0.1-45.2-36-81.5-80.8-81.7
	c-46.2-0.2-82.7,34.4-83.5,79.2C2680.3,2835.5,2714.6,2873.3,2759.9,2873.6z"/>
<path d="M1996,1923.6c0.1-69,51.3-121.2,118.4-120.9c67,0.3,120.6,53.4,120.8,119.7c0.2,70.9-51.4,121.7-124,122.2
	C2047.4,2045.1,1995.9,1991,1996,1923.6z M2112.6,2006.4c47.5,0.3,85.9-37.3,85.7-84c-0.1-45.2-36-81.5-80.8-81.7
	c-46.2-0.2-82.7,34.4-83.5,79.2C2033,1968.4,2067.3,2006.1,2112.6,2006.4z"/>
<path d="M1404.9,2491.2c0.1-69,51.3-121.2,118.4-120.9c67,0.3,120.6,53.4,120.8,119.7c0.2,70.9-51.4,121.7-124,122.2
	C1456.2,2612.7,1404.8,2558.6,1404.9,2491.2z M1521.4,2574c47.5,0.3,85.9-37.3,85.7-84c-0.1-45.2-36-81.5-80.8-81.7
	c-46.2-0.2-82.7,34.4-83.5,79.2C1441.8,2535.9,1476.1,2573.7,1521.4,2574z"/>
<path d="M2916.9,1699.8c0.2-68.7,49.3-116.9,118.1-115.8c62.4,1,111.9,52.5,112.3,117c0.4,65.3-51.8,118.3-115.2,117
	C2968.3,1816.6,2916.7,1763.7,2916.9,1699.8z M2954.9,1698.3c-0.4,46.3,33.2,83.4,75.2,83.1c43.5-0.3,78.2-35.7,78.7-80.4
	c0.5-43.6-35.7-81.8-77.4-81.6C2990.1,1619.5,2955.3,1655.4,2954.9,1698.3z"/>
<path d="M1524.5,837.8c0.2,47.6-31.1,80.2-77.2,80.4c-47.6,0.2-83.9-33.9-83.8-78.8c0.1-45,36.6-83.3,80.1-84.3
	C1486.6,754.2,1524.2,792.7,1524.5,837.8z M1486.7,841c0.5-24-17.6-46.1-38.2-46.8c-22.6-0.7-41.9,18.1-42.8,41.8
	c-1,26.2,12.7,44.3,33.9,45C1467.3,881.8,1486.2,865.9,1486.7,841z"/>
<path d="M1763.6,1421.8c-44.7,0.3-77.8-30-78.6-71.9c-0.9-45.1,32.9-81.7,76.3-82.7c40.2-0.9,77.7,36,78.8,77.6
	C1841.3,1389.4,1809.4,1421.5,1763.6,1421.8z M1802.4,1345.4c-0.6-22.4-20.1-41.9-40.6-40.7c-22.5,1.4-36.7,17-36.5,40.2
	c0.2,25.6,15.2,40.8,39.2,39.8C1786.4,1383.8,1803,1366.6,1802.4,1345.4z"/>
<path d="M1549.2,1858.7c-44.7,0.3-77.8-30-78.6-71.9c-0.9-45.1,32.9-81.7,76.3-82.7c40.2-0.9,77.7,36,78.8,77.6
	C1626.9,1826.3,1595,1858.4,1549.2,1858.7z M1588,1782.3c-0.6-22.4-20.1-41.9-40.6-40.7c-22.5,1.4-36.7,17-36.5,40.2
	c0.2,25.6,15.2,40.8,39.2,39.8C1572,1820.6,1588.6,1803.4,1588,1782.3z"/>
<path d="M2644.4,2033.7c-44.7,0.3-77.8-30-78.6-71.9c-0.9-45.1,32.9-81.7,76.3-82.7c40.2-0.9,77.7,36,78.8,77.6
	C2722.1,2001.3,2690.2,2033.4,2644.4,2033.7z M2683.2,1957.3c-0.6-22.4-20.1-41.9-40.6-40.7c-22.5,1.4-36.7,17-36.5,40.2
	c0.2,25.6,15.2,40.8,39.2,39.8C2667.3,1995.6,2683.8,1978.4,2683.2,1957.3z"/>
<path d="M2194.3,2519.3c-44.7,0.3-77.8-30-78.6-71.9c-0.9-45.1,32.9-81.7,76.3-82.7c40.2-0.9,77.7,36,78.8,77.6
	C2272,2486.9,2240.1,2519,2194.3,2519.3z M2233.1,2442.9c-0.6-22.4-20.1-41.9-40.6-40.7c-22.5,1.4-36.7,17-36.5,40.2
	c0.2,25.6,15.2,40.8,39.2,39.8C2217.1,2481.3,2233.7,2464.1,2233.1,2442.9z"/>
<path d="M1076.5,2183.4c-123.7,1.1-222.2-97.9-222.7-223.6c-0.6-132.5,93.7-229.9,226-229.2c137.8,0.8,224.1,98.6,224.5,220.9
	C1304.8,2085.9,1212.4,2182.4,1076.5,2183.4z M891.6,1956.8c-0.8,105,79.9,189.7,181.9,190.9c108.6,1.3,197.3-83.4,195.9-191.6
	c-1.7-122.6-96.2-190.2-182.9-191C989.8,1764.1,890.2,1837.3,891.6,1956.8z"/>
<path d="M1835.8,2182.4c-44.7,0.3-77.8-30-78.6-71.9c-0.9-45.1,32.9-81.7,76.3-82.7c40.2-0.9,77.7,36,78.8,77.6
	C1913.5,2150,1881.6,2182.1,1835.8,2182.4z M1874.6,2106c-0.6-22.4-20.1-41.9-40.6-40.7c-22.5,1.4-36.7,17-36.5,40.2
	c0.2,25.6,15.2,40.8,39.2,39.8C1858.6,2144.4,1875.2,2127.1,1874.6,2106z"/>
<path d="M3196.2,2485.4c0.8,43.8-29.4,76.3-72.2,77.8c-43.2,1.5-76.7-30-77.2-72.5c-0.5-43.7,30.3-77.1,72.1-78.3
	C3161.5,2411.1,3195.4,2443.2,3196.2,2485.4z M3158.1,2486.6c-0.2-21-16-37.5-36.1-37.5c-20.5,0-37.4,18.4-37.2,40.4
	c0.2,20.1,17.4,38.1,36.3,37.8C3141.6,2527,3158.2,2508.7,3158.1,2486.6z"/>
<path d="M1416.3,2991c40.6,0.5,72.6,33.5,72.3,74.5c-0.2,42.5-30.9,72.2-73.8,71.6c-42.1-0.6-72.2-29.9-72.1-70.2
	C1342.9,3022.1,1373.5,2990.5,1416.3,2991z M1383.1,3063.9c-0.6,19.9,11.9,34.5,29.9,34.8c19.7,0.4,35.5-14,36.4-33.1
	c0.9-18.6-12.9-34.3-30.4-34.8C1399.2,3030.2,1383.6,3044.6,1383.1,3063.9z"/>
<path d="M598.9,2237.6c5.6-33,10.9-66.1,16.8-99.1c1.2-6.9,4.1-13.7,7.3-19.9c4.9-9.5,14.4-13.6,22.9-8c5,3.3,8.6,13.6,7.6,19.9
	c-3.4,22-10.4,43.5-13.6,65.6c-10.8,76,2.8,147.9,39.2,215.5c1.9,3.6,5.5,6.9,5.8,10.6c0.4,5.5,0.6,14.1-2.6,16.2
	c-4.9,3.3-14.2,5-18.9,2.4c-6.5-3.5-11.9-11-15.4-18C618.8,2364.7,600.4,2303.8,598.9,2237.6z"/>
<path d="M3454.5,2022.1c-2.1,61-10.4,110.9-32.9,157.6c-4.4,9.1-8.9,18.6-15.6,26c-3.8,4.2-15.4,8-17.6,5.9
	c-4.8-4.7-7.1-13-7.9-20.2c-0.5-4.4,3.3-9.4,5.4-14c37.1-81.8,46.3-165.7,19.1-252.4c-2.7-8.7-5.3-17.8-5.7-26.8
	c-0.2-5,3.5-13.5,7.2-14.5c5.6-1.6,14.7-0.3,18.7,3.5c5.4,5.2,8.8,13.7,10.7,21.3c5.3,20.6,10.5,41.4,13.8,62.5
	C3452.9,1991.1,3453.6,2011.5,3454.5,2022.1z"/>
<path d="M1678.7,452.1c30.5,5.9,58.5,10.7,86.2,17.1c8.5,2,17.2,7,23.7,13c9,8.3,4.1,21-8.3,21.5c-11,0.5-22.3-1.3-33.1-3.9
	c-57.1-13.9-113.1-12.2-167.9,10.1c-3.8,1.5-8.2,5-11.2,4.1c-7-2.1-16.9-4.8-19.1-10c-2.4-5.5,0.5-16.5,5.1-21
	c6.1-6,15.8-9.6,24.5-11.4C1612.3,464.2,1646.3,458.2,1678.7,452.1z"/>
<path d="M2401.1,3231.2c-8.1,0-16.4,0.7-24.4-0.2c-12-1.4-22.4-6.1-21.7-20.6c0.7-14.5,12.3-14.7,22.6-14
	c28.2,1.7,54.5-5.3,80.6-14.6c31.2-11.2,58.2-29,82.5-51.4c7.7-7.1,16.2-19.5,28-8.3c12.4,11.8,2.6,22.5-6.1,31.4
	C2518.4,3199.2,2466,3227.9,2401.1,3231.2z"/>
<path d="M2313.7,3324.9c36.7-7.8,73.3-15.5,110-23.3c4-0.8,7.9-2.1,11.7-3.5c9.3-3.5,18.8-5.1,23.1,6.4c4.2,11.3-1.1,20.4-11.5,25
	c-11.1,5-22.7,10.6-34.5,12c-41.4,4.8-82.9,8-124.4,11.5c-4.9,0.4-10.2-0.8-15.1-2c-9.8-2.5-18.4-8.5-14.8-18.9
	c1.9-5.5,11.3-10.7,18.1-11.8c11.9-1.9,24.4-0.5,36.6-0.5C2313.1,3321.4,2313.4,3323.1,2313.7,3324.9z"/>
<path d="M3342.2,2049.1c-1.6,13.4-3.2,30.6-6.1,47.5c-1.1,6.7-3.8,14.3-8.4,19c-4.2,4.3-12.7,8.3-17.8,6.9
	c-4.9-1.4-9.4-9.3-11.2-15.3c-1.6-5.4,1.4-11.9,1.5-18c0.2-27.2,1.4-54.4-0.2-81.4c-1.2-20.6,0-27.4,12.2-28.7
	c13.8-1.5,22.6,5.8,25.6,23.8C3340.3,2016.8,3340.6,2031.1,3342.2,2049.1z"/>
<path d="M756.9,2323.1c-19.7,6.2-31.2-2.3-33.2-18.3c-3.9-29.9-6.5-60.2-5.9-90.3c0.3-19.5,5.9-21.1,33-20.7
	C752.7,2236.2,754.7,2278.8,756.9,2323.1z"/>
<path d="M1741.5,599.3c-7.5,0.9-15.3,2-23.2,2.6c-20,1.6-40.1,2.7-60,4.4c-9.6,0.8-20.5,1.1-21.4-10.4c-0.6-7.5,5.5-15.8,9.4-23.3
	c1.1-2.1,5.2-3.6,8-3.7c23-1.1,46.2-3.7,69-1.9C1739.5,568.3,1742.7,577.1,1741.5,599.3z"/>
</svg>
