<?xml version="1.0" encoding="utf-8"?>
<!-- Generator: Adobe Illustrator 24.3.0, SVG Export Plug-In . SVG Version: 6.00 Build 0)  -->
<svg version="1.1" id="Layer_1" xmlns="http://www.w3.org/2000/svg" xmlns:xlink="http://www.w3.org/1999/xlink" x="0px" y="0px"
	 viewBox="0 0 4000 4000" style="enable-background:new 0 0 4000 4000;" xml:space="preserve">
<path d="M3143.2,1599.9c0,80.3-1,160.6,0.2,240.9c3,198.9,21.9,396.1,65.9,590.4c9.6,42.3,20.4,84.3,30,126.6
	c4.5,19.7,14,30.6,35.1,36.8c88,25.6,167.8,68.1,234.5,131.2c64.3,60.9,105,136.2,114.8,224.8c9.5,86.3-19,161.8-76.6,226.4
	c-31.7,35.5-69.9,62.8-110.4,87.3c-115.3,70-240.7,116.1-368.9,155.3c-93.6,28.6-188.5,52-284.8,69.2
	c-139.7,25-280.4,31.3-421.9,21.8c-154.2-10.3-305.5-37.8-455-76.6c-99.1-25.6-198.1-51.7-299.7-66.1
	c-71.4-10.1-143.1-16.4-215.2-15.2c-118.1,2-236.2,5-354.3,9c-113.9,3.8-227.2-0.1-338.6-25.5c-89.6-20.5-175.5-51-247.5-111.5
	c-59.6-50.1-98-112.2-106.8-190.7c-5.1-45.2,5.3-88.1,23-129.3c32.9-76.4,89.9-132.1,157.5-177.8c46-31.1,94.4-57.9,146.2-78.1
	c19.2-7.5,28.2-18.9,32.5-39.7c14.8-70.4,33.1-140,48.7-210.2c24.4-109.9,40.8-221.2,54.6-333c20.8-168.1,24.1-336.6,18.1-505.7
	c-4.1-115.3-6-230.7,2.9-346c12-156,46-306.2,115.1-447.5c33.1-67.5,74.1-129.9,124.6-185.6c108.1-119.2,243.8-168.4,402.8-154.9
	c68,5.8,135.8,13.8,203.7,21.1c134.4,14.4,264.8-0.7,391.6-49.1c59.4-22.7,119.5-44,182.6-54.7c156.7-26.3,296.9,8.4,416.8,114.7
	c17.9,15.8,37.9,18.1,58.7,19.3c37.4,2.2,72.7,12.3,107.1,25.8c78.6,30.7,137.3,85.3,183,154.8c65.2,99,99.2,209.6,118.1,325.4
	c18.8,115.2,21.1,231.5,19,347.9c-1.6,89.5-4,179-6.1,268.5C3144.2,1599.9,3143.7,1599.9,3143.2,1599.9z M2580.4,3048.2
	c7.9,0,13.2,0.5,18.5-0.1c52.3-5.5,104.4-11.5,156.7-16.7c56.9-5.6,114.1-8.6,170.8-15.9c64.6-8.4,125.4-29.1,181.5-63.4
	c47.7-29.1,81.8-68.5,98.9-121.9c11.9-37.4,17.6-76,11-114.8c-8.9-52.7-18.1-105.6-31.7-157.2c-73.5-279.8-99.7-564.6-94.9-853
	c2.8-168.9,7.2-337.8,7.4-506.7c0.1-128.9-16.5-256-60-378.3c-26.6-74.8-63.7-143.6-121.1-199.4c-80.7-78.4-176.2-107.1-287.2-83.4
	c-63.9,13.7-122.3,40.6-179.5,70.8c-73.4,38.7-144.9,81.4-226,103.4c-4.4,1.2-8,5.1-14,9.2c54.7,30.9,101.7,66.4,135.9,115.8
	c22,31.8,42.8,64.6,61,98.6c31.4,58.8,56.1,120.5,66.7,186.8c1.4,8.8,2.4,19-0.8,26.8c-2.6,6.3-11.3,12.4-18.1,13.7
	c-4.2,0.8-12.7-6.9-14.8-12.4c-6.8-18.1-12.1-36.8-17-55.5c-15.1-57.4-35.6-112.6-65.2-164.1c-39.8-69.2-90.4-127.6-162.1-166.2
	c-38.3-20.7-77.6-32.4-121.6-30.4c-60,2.7-119.8-0.6-179.4-10c-19.7-3.1-41.2-3.9-60.5,0.4c-64,14.4-121.6,42.3-169.3,88.9
	c-59.1,57.8-100.9,126.7-132.1,202.7c-8.5,20.7-15.8,25.3-29.3,20.4c-13.2-4.9-14.8-12.7-6.9-35c20.2-56.9,48.1-109.9,83.8-158.5
	c43.1-58.8,93.5-109.4,162.2-138.6c5.5-2.3,10-7,16.4-11.6c-5.5-3.8-8.9-7.1-13-8.9c-55.5-24.6-102.7-61.7-148.6-100.4
	c-8.4-7.1-16.6-15.2-22.1-24.4c-6.3-10.5-3.1-21.4,6.1-29.9c10.1-9.3,18.5-4,26.6,3.3c9.6,8.7,19.1,17.4,28.8,26
	c73.1,64.8,156.9,106.8,254.8,116.6c45.8,4.6,92.4,2.6,138.2,7.4c96.3,10.1,184.5-17.1,270.5-55.3c8.2-3.7,14.7-11.3,22.7-17.6
	c-12.7-16.3-27.7-17.3-42.1-19.1c-33-4-66-7.3-99-11.5c-34-4.4-67.3-12-97.5-29.1c-8.6-4.9-16.8-11.7-22.8-19.4
	c-8.6-11.1-7.1-25.9,1.6-32.7c10.8-8.5,18.9-1.2,26.7,5.5c23.3,19.8,50.3,30.1,80.7,32.7c34.9,3,69.8,6.7,104.7,9.6
	c34.3,2.9,65.3,12.1,87.3,41c2.6,3.4,6.9,5.5,12.4,9.9c25.7-14.9,50.8-30.3,76.6-44.3c26.7-14.5,53.5-29.2,81.4-40.9
	c26.3-11.1,54.2-18.3,83.4-27.9c-4.7-4.9-6.3-7.2-8.5-8.8c-107.6-77.3-227.6-103.9-357-80.1c-49.5,9.1-97.6,27-145.4,43.6
	c-64.5,22.4-128.3,46.9-195.9,58.3c-103.1,17.4-206.1,11.6-308.6-4.6c-72.3-11.5-144.6-18.1-217.8-13.4
	c-88,5.7-165.1,38.4-231.3,95.2c-105.4,90.3-170.8,206.9-214.1,336.9c-46.9,140.6-65.9,285.6-65.7,433.3c0.1,77.5,2.2,155,3.8,232.5
	c3,146.8,2.1,293.4-14.3,439.7c-14.6,130.3-30.6,260.3-58.9,388.4c-20.3,91.9-42,183.4-60.7,275.6c-10.9,53.6-4.7,106.6,19.4,156.6
	c26.6,55.2,72.8,90,124.8,117.5c67.7,35.8,141.5,52.8,216.9,62.5c54.9,7,110.1,11.3,165.2,16.7c5.7,0.6,11.6,0.1,17.4,0.1
	c-0.3-3.4-0.1-5.3-0.7-6.9c-1.2-3.5-2.6-6.9-4.2-10.2c-25.1-51.5-35.8-106.2-37.8-163.2c-2.4-67.9,7.6-134.4,19.5-200.7
	c17.8-99.9,36-199.7,54-299.5c3.1-17.2,5.4-34.6,9.1-51.7c2.3-10.7,10.9-14.5,21.2-13.3c10.1,1.1,17.8,6.3,18,17.4
	c0.2,11,0,22.3-1.8,33.1c-14.8,88.2-29.5,176.5-45.4,264.6c-14.8,81.7-32.2,163-30.1,246.8c0.9,37.2,6.2,73.6,18.2,108.8
	c19.2,56.3,51.7,99.4,108.4,125.5c135.1,62.2,275.8,98.3,424.4,104c155.2,5.9,307.8-9.9,457.2-53c54.9-15.8,108.9-34.6,163.3-52.1
	c44-14.1,73.7-43.2,93.2-84.9c17.4-37.3,27-76.4,32.1-116.9c8.3-65.8,0.3-130.9-9.8-195.7c-15.5-99.4-33.5-198.3-48.8-297.7
	c-7.3-47.3-10.8-95.3-15.6-143c-1.2-11.7,1-22.9,15.9-24.4c13.9-1.4,19.7,7.7,22.5,19.5c0.8,3.6,1.1,7.3,1.7,10.9
	c21.2,131.1,42.4,262.3,63.7,393.4c11.1,68.4,21.5,136.9,18.1,206.5c-3,61.3-13.5,121-42.9,176
	C2586.1,3032.4,2584,3039.3,2580.4,3048.2z M3260.3,2645c1.3,9.2,2.4,15.4,2.9,21.7c2.5,31.2,7.9,62.6,6.6,93.6
	c-4.5,112.4-55.5,196.8-156.3,249.5c-44.4,23.2-91.1,40.2-140.1,50.4c-68.9,14.3-138.8,18.5-208.8,22.8
	c-69,4.2-138.5,7.6-205.5,26.4c-62.1,17.5-123.7,36.8-184.9,57.2c-132.2,44-268,68.9-406.9,74.6c-199.3,8.2-392-22-572.7-111.1
	c-64.8-31.9-133.8-45.9-204.8-54.4c-62.2-7.4-124.5-15.4-186-27.3c-74.9-14.5-145.3-41.8-206.5-89.2
	c-59.6-46.1-97-105.6-107.4-180.7c-3.6-26.2-4.7-52.9-7.1-80.6c-4.5,1.1-9.2,1.4-13.1,3.2c-81.6,38.8-156.5,87.2-215.5,156.8
	c-85.9,101.4-80,222.7,13.7,312.2c47,44.9,102.6,74.9,164,94.6c119.9,38.5,243.4,51.7,368.7,48c93.2-2.7,186.2-8.2,279.4-12
	c112.8-4.6,225.7-1.8,336.8,17.2c98.9,16.9,196.9,40.6,294.3,65.1c152.4,38.5,305.5,70,463,78.3c132.4,7,264.1,0.8,394.4-22.5
	c172-30.8,339.4-78.7,500.2-147.9c70.5-30.3,139.2-64.3,200.4-111.1c49.6-37.8,87.7-84.5,101.4-147.3c17.7-81-2.8-153.4-50.8-219.3
	c-62.5-85.7-150.6-133.9-247.9-168.4C3269.3,2644.2,3266.4,2645,3260.3,2645z"/>
<path d="M961.4,1251.5c12.6-198.6,59.4-382.9,182.2-541.6c26.7-34.5,56.2-66.3,92.7-90.4c15.9-10.5,33.7-19.1,51.8-25.2
	c71.8-24.2,141.4,39.7,122.7,119.6c-4,17.3-14.5,33.7-24.7,48.6c-8.7,12.7-20.7,23.6-32.4,33.9c-92.7,80.7-147.2,183.2-170.8,302.6
	c-10.7,54.2-17.9,109.2-27.9,163.6c-3.8,20.7-9.3,41.5-16.9,61.1c-14.8,38.1-49,59.2-88.9,57.4c-37.3-1.7-65.2-24.3-77.7-63.8
	c-3-9.6-5.2-19.6-6.6-29.6C963,1274.9,962.4,1262,961.4,1251.5z M1002.5,1246.4c2.1,16.9,2.5,41.2,8.4,64.1
	c7.9,30.5,39.4,42.3,65.8,25.1c11.5-7.5,21.3-20.6,27.1-33.3c6.8-14.8,9.1-31.8,12-48.1c9.8-56.2,16.9-113.1,29-168.8
	c26.1-119.7,77.4-226.3,170.5-309.5c10.3-9.2,21.6-17.6,30.7-27.8c9.7-10.9,19.8-22.5,25.4-35.6c18.2-42.9-12.2-83.1-58.4-80.1
	c-22.4,1.5-41.5,10.7-57.2,25c-27.8,25.4-57,50.4-80,79.8C1060.8,884.5,1015.9,1056.4,1002.5,1246.4z"/>
<path d="M2994.9,1197c0,22.1,0.1,44.3,0,66.4c0,4.6-0.5,9.2-1.1,13.8c-7.3,59.6-39.9,96-91.5,102.4c-49.9,6.1-104-26.6-121.4-77.5
	c-8.8-25.8-12.6-53.8-15-81.1c-5.3-58.8-10.5-117.5-26.4-174.7c-15.8-56.8-42.6-107.8-78.6-154.2c-6.8-8.7-13.4-17.6-19.6-26.8
	c-32.4-48.4-31.6-103.4,1.8-146.8c31.3-40.6,91.4-57.6,142.6-40.1c23,7.9,42.8,20.9,60.2,38c42.4,41.7,68.3,93.5,90.8,147.3
	c28,67,41.9,137.5,49.9,209.2c4.6,41.2,7,82.7,10.4,124C2996.3,1196.9,2995.6,1196.9,2994.9,1197z M2956.3,1187.3
	c-0.6-0.1-1.2-0.1-1.9-0.2c-1.6-24.8-2.4-49.7-4.9-74.5c-9.2-91.1-26-180.5-64.7-264.4c-16.3-35.2-34.7-69.4-61.5-97.9
	c-22.1-23.5-48.2-40.1-82.2-39.3c-67.4,1.7-104.8,67.3-71.4,125.3c5,8.7,11.2,16.9,17.5,24.8c67.9,85.5,105.9,182.5,113.2,291.6
	c2.1,32.2,4.6,64.4,9.2,96.2c2.6,17.9,8.3,35.9,15.8,52.5c9.1,20.1,26,33.1,47.9,38.4c37.1,9,70.5-10.3,76.1-48.1
	C2954.6,1257.4,2954.2,1222.2,2956.3,1187.3z"/>
<path d="M1625.1,1206.1c4.2-117,35-225.4,106.6-319.7c14.8-19.5,33.7-36.7,53.3-51.7c22.9-17.5,50.2-23,78.6-14.1
	c46.4,14.6,72,65.9,53.4,111.2c-7.9,19.3-20.4,37.1-33.1,53.9c-40,53.2-70.4,110.4-78.7,177.4c-3.1,24.6-2.6,49.7-4.9,74.5
	c-1.9,20.1-2.9,40.8-9,59.8c-9.3,29-29.3,48.7-61.8,51.7c-35,3.3-63.7-7-82.3-38.7C1628.3,1278.1,1624.9,1242.6,1625.1,1206.1z
	 M1661.9,1192.7c4.9,29.8,7.8,60.2,15.5,89.4c6.1,23.2,23.7,32.5,43.7,30c22.1-2.8,34.8-16.2,37.1-41.2c1.4-14.7,0.6-29.5,1.4-44.2
	c3.4-59.2,10-118.1,37.2-171.8c15.8-31,36.4-59.6,55-89.2c8.8-14,19.7-27,26.7-41.9c10.1-21.7,3.9-44.1-13-57.5
	c-15-11.9-34.6-13.1-53.9,1c-16.9,12.4-33.4,26.6-46.4,42.9C1699.5,992.5,1669.8,1087.9,1661.9,1192.7z"/>
<path d="M1388.5,2060.8c-33.1,5.6-37.8,2-36.4-26c5.9-121.6,11.9-243.2,18.1-364.8c7.2-142.9,21.3-285,51.1-425.2
	c6.5-30.6,15.1-60.8,24.1-90.8c2.4-8,8.4-18,15.3-20.8c6.9-2.8,19,0,25,4.9c4.3,3.6,4.7,15.2,3,22.4
	c-11.1,46.6-26.5,92.5-34.2,139.6c-13.5,82.7-25.8,166-32.5,249.5c-10.5,132.4-15.8,265.1-23.8,397.7
	C1395.8,1984.9,1391.8,2022.4,1388.5,2060.8z"/>
<path d="M1020.9,1939.8c-5,155.2-22.2,308.9-57.2,460.3c-13.5,58.3-29.1,116.2-44,174.2c-2,8-4.2,16.8-9.1,22.8
	c-3.7,4.5-12.3,7.4-18.3,6.8c-7.9-0.8-17.1-4.9-16.2-15.5c0.9-10.9,3.5-21.8,5.9-32.5c21.3-93.4,45-186.2,63.5-280.1
	c21.4-108.7,29.4-219.1,32.9-329.8c0.4-12.9,1.6-25.7,2.4-38.6c0.9-12.6,7.9-17.7,20.2-16.8c12,0.8,19,7,19.8,18.9
	C1021.5,1919.5,1020.9,1929.6,1020.9,1939.8z"/>
<path d="M2975.2,1710.6c-10.8,90.8-14.8,182.1-8.5,273.2c4.9,70.6,15.6,140.9,24.8,211.2c3.8,29.2,10.6,58,15.6,87.1
	c1.2,7.2,3,15.4,0.6,21.7c-2.2,5.7-9.1,12.2-14.9,13.2c-5.6,1-14.4-3-18-7.7c-4.8-6.2-6.5-15.1-8.5-23.1
	c-19.4-78.9-33.7-158.8-38.3-239.8c-4.3-75.4-5.6-151-5.5-226.5c0.1-36.7,6.2-73.3,10.1-110c1-9.9,2-20.6,14.5-24.1
	C2966.5,1680.6,2976.2,1689.1,2975.2,1710.6z"/>
<path d="M2523.7,1829.8c-30,8-35.5,5.7-37.6-20.9c-3.6-45.9-5.5-92-6.7-138c-2.4-90.2-3.1-180.5-6.1-270.8
	c-1.2-37.7-6.5-75.2-9.7-112.8c-0.9-10.1-1.4-20.2-1.1-30.3c0.4-11.7,9.5-15,19-16.3c9.3-1.3,17,2.4,18.7,12.2
	c4.1,23.5,9.2,47.1,10.4,70.9c4.7,88.3,9,176.6,11.5,265c2,70,1.2,140,1.6,210.1C2523.8,1808.9,2523.7,1818.9,2523.7,1829.8z"/>
<path d="M1145.6,1522.9c-2.7,11.7-4.5,27.5-10.1,41.8c-12.9,33.1-38.4,48.4-73.4,46.4c-32.7-1.9-55.6-20.2-65-54
	c-8-28.6-6.3-56.5,10.5-82.1c16.2-24.5,37.1-41,68.6-36.8c31.9,4.2,57.8,27.8,65.4,59.1C1143.3,1504.4,1143.9,1511.8,1145.6,1522.9z
	 M1108.3,1529.6c-1.5-11.5-1.7-17.1-3-22.4c-4.6-19.2-17.6-31.5-33.2-31.6c-17.6-0.1-33.5,11.7-37.9,30.5
	c-4.6,19.3-4.2,38.5,8.3,55.5c13.3,17.9,32,20.7,46.7,3.9C1098.9,1554.3,1103.6,1538.9,1108.3,1529.6z"/>
<path d="M2528.8,1937.9c0,7.3,0.2,14.6-0.1,21.9c-0.4,10.1-6.4,14.4-15.9,15c-9.1,0.5-17.5-1.9-18.8-11.7
	c-2.1-17.1-3.5-34.5-3.2-51.7c0.2-11,9.4-14.7,19.7-14.3c10.4,0.4,17.7,4.6,18.1,16.1C2529,1921.5,2528.8,1929.7,2528.8,1937.9
	C2528.8,1937.9,2528.8,1937.9,2528.8,1937.9z"/>
<path d="M3056.7,2481.5c-0.5,12.4-5.7,20.7-17,23.5c-11.1,2.8-17.9-4.3-20.6-13.8c-4.3-15-7.9-30.2-10.4-45.6
	c-1.4-9.1,3.7-17.8,13.2-17.7c7,0,17.7,4,20.3,9.3C3048.9,2451,3052.1,2466.6,3056.7,2481.5z"/>
<path d="M845,2759.1c-4.6-5.4-14.7-11.9-14.3-17.9c0.8-13.2,5.5-26.7,11.4-38.7c2.2-4.5,12.6-8.3,18.2-7.1c5.8,1.2,12.2,8,14.7,13.9
	c4.8,11.1-8,40.6-18.5,46.1C854.1,2756.7,851.3,2757.1,845,2759.1z"/>
<path d="M760.4,3173.2c-85-12.9-163.5-37.2-221.6-103.4c-41.9-47.8-52-102.8-25.7-162.1c16.1-36.3,47.3-51.2,82.9-42.5
	c21.7,5.3,35.5,18.8,43.2,38.9c3.9,10.3,7,21,9.4,31.8c6.1,27,22.1,46.6,45.9,59.3c17.8,9.5,36.6,17.2,55.1,25.4
	c17.6,7.9,36.1,14.1,53,23.4c27.5,15,41.4,46.9,35.7,77.5c-3.9,20.7-15.8,35.7-35.4,42.5C789.1,3169,774.3,3170.4,760.4,3173.2z
	 M758.3,3131.2c7.6-0.7,12.2-0.9,16.7-1.7c10.9-1.7,20.8-7.2,21.6-18.2c0.6-8.1-3-18.4-8.4-24.5c-6.4-7.2-16.3-11.8-25.4-15.8
	c-19.5-8.4-39.9-14.6-59.1-23.5c-49.9-23.3-87.7-57.6-98.7-114.6c-0.7-3.6-1.9-7.2-3.2-10.6c-6.7-16.6-16.4-20.4-32.7-12.1
	c-19.2,9.7-27.2,27.1-28.8,47.4c-2.7,33.2,9.1,62.4,31.4,85.8C623.1,3097.4,689.6,3120,758.3,3131.2z"/>
<path d="M3438.1,2907.1c-2.1,57.1-17.9,98.8-45.1,136.2c-47.8,65.7-114.5,105.8-187.8,136.3c-19.5,8.1-28.2,5.4-33.3-6.3
	c-6-13.8-0.2-24.7,17.9-34.7c32.2-17.9,65-34.8,96.1-54.3c38.7-24.3,71-55.6,92.2-97.1c20.9-40.9,25.1-82.3,6.1-125.1
	c-2.2-5-5.5-10.3-5.6-15.5c-0.2-7.5-0.7-18.4,3.7-22c7.9-6.5,19.5-6.1,27.8,2c4.5,4.3,8.7,10.1,10.4,15.9
	C3427.8,2867.1,3434,2892,3438.1,2907.1z"/>
<path d="M2910,3271.4c-3.4-2.9-12.3-7.1-15.2-13.8c-4.6-10.6,1.4-19.5,12.5-23.7c6.9-2.6,13.9-4.8,21-6.6
	c35.5-9.2,71-18.3,106.6-27.4c6.2-1.6,12.4-3.4,18.8-4.3c11-1.6,19,4.8,20.4,14.2c1,6.6-3.5,15-7.8,21c-2.8,3.9-9.4,5.7-14.6,7
	c-42.6,11-85.3,21.6-128,32.3C2921,3270.7,2918.2,3270.6,2910,3271.4z"/>
</svg>
