<?xml version="1.0" encoding="utf-8"?>
<!-- Generator: Adobe Illustrator 24.3.0, SVG Export Plug-In . SVG Version: 6.00 Build 0)  -->
<svg version="1.1" id="Layer_1" xmlns="http://www.w3.org/2000/svg" xmlns:xlink="http://www.w3.org/1999/xlink" x="0px" y="0px"
	 viewBox="0 0 4000 4000" style="enable-background:new 0 0 4000 4000;" xml:space="preserve">
<path d="M3182.2,1303.4c17.1,0,29.9,0.4,42.7-0.1c32.7-1.1,55.1,14.5,69.9,42.5c4,7.6,9.6,15.4,10.3,23.4
	c2.5,31.5,23.9,45.2,48.6,58c26.6,13.8,52.5,29.2,77.5,45.7c31.6,20.9,51.8,50.7,61.8,87.3c25,91.2,14.5,81.6,97.1,138.7
	c48.3,33.4,74.9,77,85.7,133.8c30.9,161.1,11.9,314.9-71.4,457c-41.1,70.3-62.7,145.1-74.8,224.1
	c-24.9,161.5-87.9,306.4-189.6,434.4c-50.1,63-111,113.3-180.2,153.7c-32.4,18.9-65.1,37.7-99,53.6c-50,23.4-88.8,58.5-122.5,101.6
	c-25.7,32.9-53.5,64.4-82.7,94.2c-112.5,114.7-250.6,164.9-410,159.9c-5.4-0.2-10.8-0.1-16.1-0.8c-45.5-6.2-85.7,5.7-125.7,28.5
	c-137,77.9-280.6,84.5-428.7,34.9c-74.9-25-143.3-63-209.9-104.2c-21-13.1-40.7-16.4-63.8-11.4c-71.8,15.7-144.4,20.7-217.5,10.9
	c-183-24.5-349.7-85.9-484.1-217.8c-70-68.7-119.2-151.3-152.4-243.5c-5.5-15.1-11.4-30.1-16-45.5c-6.2-20.5-17.7-35.7-36.3-47
	c-59.3-36.1-103.2-86.7-134-148.6C522.6,2689,484.6,2611,446.4,2533c-34.6-70.6-50.8-145.9-51.8-224
	c-0.8-60.1-12.2-117.1-35.4-172.1c-33.6-79.3-60.5-160.5-72.1-246.3c-22.8-169.3,2.9-329.2,92.3-476.6
	c29.7-49,67.4-92.3,111.8-128.1c102.3-82.5,167.7-186.3,202.1-313.3c18.7-68.9,45.5-136.4,75.7-201.3
	c76.9-165.2,214.3-244.7,390.8-264.7c68.2-7.7,136.2-16.6,204.5-23.3c23.4-2.3,39.8-13.4,54.8-29.7
	c50.6-54.9,108.7-100.4,174.6-135.7c129-69.1,265.8-92.9,410.8-71.5c77.1,11.4,149.6,37.5,221,67.1c33.5,13.9,67.4,20,103.6,15.9
	c30.9-3.5,62-5.5,93-7.8c77.8-5.8,154,2.2,229.2,23.2c30.7,8.6,48.1,25.9,53.7,56.6c5.7,31.7,11.8,63.3,17.5,94.9
	c9.2,50.8,30.2,93.6,77.6,119.7c9.3,5.1,17.7,12.1,25.9,19c37.5,31.8,52.5,71.9,43.6,120.6c-3.7,20-7.2,40.1-10.6,60.2
	c-3.7,22,3.6,40.4,20.1,54.8c12.1,10.6,24.7,20.6,37.7,30.1c25.4,18.6,42.7,43,47.1,74.1c10.5,73.8,51,128.8,107.8,173
	c43.6,33.9,75.6,75.5,95.8,126.7C3171.3,1284.5,3177.1,1293.6,3182.2,1303.4z M3617,1815.1c-19.9,3.2-36,4.1-51.1,8.4
	c-43.2,12.3-85.8,26.9-129.2,38.9c-60.7,16.9-104-0.3-137.8-53.3c-11-17.2-20.6-35.2-31.8-52.2c-19.5-29.5-45.9-43.1-82.4-36.8
	c-28.5,4.9-57.4,8.3-86.2,9.6c-41.8,1.8-74.9-16.7-98.3-50.9c-10.2-15-18.1-31.6-26.1-47.9c-8-16.4-14.8-33.3-22-50
	c-11.6-27.1-32-42.4-61.3-45.3c-21.3-2.1-42.7-3.5-64.1-5.4c-61-5.3-85.6-27.7-96.3-87.9c-0.8-4.2-2.3-8.4-2.3-12.6
	c-0.5-48.9-26.9-74.4-72.2-89.3c-48.9-16.2-65.7-49.4-58.8-100.5c1.7-12.7,3.1-25.6,6.3-38c7.1-27.6-4.6-44.8-28-58
	c-17.7-10-35.6-20.5-50.8-33.7c-35.9-31-53-70-40.5-117.8c6.5-24.8,14.3-49.5,24.2-73.1c12.2-28.9,8.4-52.3-11.4-77.3
	c-19.1-24.1-36.8-50.7-48.5-78.9c-30.8-74.4-8-131.8,64.2-168c20.3-10.2,30.3-22.2,31.1-46.5c1.6-51.9,18.2-98.7,57.8-135.3
	c4.8-4.4,7.2-11.5,11.7-18.9c-72.7-18.6-143.1-18.7-213.9-13.3c-34.2,2.6-68.4,6.3-102.7,6.3c-45.9,0-88.1-17-129.9-33.9
	c-74.9-30.4-151.3-55.2-233-57.2c-176.5-4.3-327,57.9-454.5,178.8c-55.4,52.5-93,117.4-128.8,183.6c-4.6,8.5-8.3,18.1-15,24.5
	c-5.2,5-14.8,8.6-21.9,7.8c-10.9-1.3-15.5-11.1-13.7-21.9c1.7-10.5,3.6-21.3,7.7-31c10.1-23.6,21.7-46.6,32.5-70
	c2.9-6.2,4.9-12.8,8.2-21.5c-9.4,0-15.8-0.6-22.1,0.1c-55.4,6.2-110.8,12.2-166.1,19.1c-169.4,21.3-291.9,107.1-357.4,266.6
	c-26,63.3-46.9,128.9-67.9,194.2c-23.6,73.2-53.9,142.8-104.8,201.2c-28.1,32.2-58.9,62.4-90.2,91.6
	c-41.7,38.9-82.4,78.6-112.7,127.3c-82.7,133-99.8,278.7-81.8,430.7c10,84.8,37.2,165.1,68.8,244c24.6,61.3,39.8,123.8,38.2,190.9
	c-1.7,69.7,17.1,135.6,48.7,198c31.4,62.1,62.9,124.4,91,188.1c32.6,73.9,78.2,135.2,148.8,176.3c19.6,11.4,31.2,28.3,37.9,49.9
	c7.9,25.6,16.5,51.1,26.8,75.8c46.7,112.5,116.3,207.3,218,276.3c106.7,72.4,224.3,114,352.4,130.2c126.2,15.9,245.6-3.4,360.6-55.7
	c4.9-2.2,9.9-4,14.9-5.9c11.4-4.3,23.5-2.5,28,8.1c3.6,8.3,3.9,22.6-1.1,29.1c-7.9,10.4-21.1,17-32.7,24.2
	c-10.2,6.3-21.3,11.2-36.5,19.1c79.2,49.9,155.5,88.7,241.5,108.2c110.9,25.1,215,10,314.3-43.8c17-9.2,34.8-16.7,51.9-25.7
	c22.5-11.9,46-16.2,71.4-15c30,1.5,60.1,1.7,90.1,1.1c156.8-3.1,283.1-68.8,382.6-188.2c21.3-25.5,39.6-53.6,61.6-78.5
	c16.1-18.2,34.2-35.7,54.5-48.9c28.6-18.7,60.1-33.1,90.2-49.5c68-36.9,135-75.3,189.5-131.6c88.3-91.1,151.4-197.6,186.8-318.9
	c17.9-61.5,29.2-125.2,39.7-188.6c9.8-59.1,27.9-114.5,59.7-165.1c48.8-77.7,78.2-161.7,87.2-253.1
	C3636.9,1958,3628.1,1889.3,3617,1815.1z M3570,1758.3c-14.1-8.9-23.4-15.6-33.4-21.1c-42.7-23.4-70.1-59-84.4-105
	c-5.4-17.4-9.9-35.1-14.7-52.6c-7.9-29.4-24-52.2-51.4-66.7c-22.8-12-46.4-22.8-67.4-37.4c-19.1-13.3-33.1-16.5-53.2-0.4
	c-37.3,30-107.4,18.5-128.5-37.3c-11.2-29.7-19.1-58.9-10.6-90.8c2-7.5,1.9-17.5-1.5-24.2c-25.5-50.7-52.6-99-99.1-136.2
	c-57.7-46.1-102-104.1-113.9-181c-4.5-29-20.8-49.7-45.8-66.4c-63.2-42.3-78.4-85.9-62-160c14.1-63.6,21.9-79.6-48.1-121.4
	c-49.2-29.4-75.6-74.7-87.7-129.2c-4.2-18.8-6.5-38-9.9-57c-1.3-7-3.4-13.8-5.8-23.3c-28.3,21.2-44.9,46-49,78.5
	c-1.6,12.8-2.2,25.6-3.1,38.5c-2,28.7-15,51-39.3,66.6c-13.5,8.7-27.4,16.9-40.6,26.1c-27.9,19.6-36.3,41.2-22.6,72.2
	c10.6,24.2,23.3,49.4,41.3,68.1c39.6,41.4,42.9,86.2,23.9,136.5c-6.8,18-14.2,36-19.4,54.5c-11.9,41.8-4.7,60.8,30.9,85
	c15.1,10.2,30.9,19.4,45.8,29.9c33.7,23.7,49.6,55.3,41.7,97.1c-2.8,14.7-4.9,29.6-6.9,44.5c-3.4,25.1-1.3,29.3,20.7,40.8
	c12.4,6.4,25,12.4,37.6,18.3c34.4,16.3,55.7,42.6,62.6,80.3c2.9,15.8,5.7,31.7,9.3,47.3c7.1,30.9,11.9,35.3,42.8,37.9
	c17.1,1.5,34.3,1.2,51.4,2.6c60.7,4.7,106,31.4,128,90.9c7,19.1,14.1,38.3,22.2,56.9c17.5,40,46.9,56.2,90.1,50.1
	c18-2.6,35.8-7.1,53.8-9.7c58.2-8.3,106.1,7.6,137.9,60.1c8.9,14.7,17.8,29.3,27.1,43.8c29.5,45.9,53.5,54.1,106,36.5
	c7.1-2.4,14-5.5,21.1-7.9c24.3-8.3,48.6-16.4,73-24.6C3547.3,1766,3555.9,1763.1,3570,1758.3z M3186.5,1390.7
	c-0.5,26.4,9.9,42.7,27.6,43.3c20.1,0.8,38.4-19.9,38.1-43c-0.2-18.9-12.9-30.4-33.4-30.3
	C3196.5,1360.7,3186.8,1369.6,3186.5,1390.7z"/>
<path d="M3213.5,979.7c1.7-8.3,3.2-16.8,5.2-25c11.9-48.9,37.8-91.2,67.3-130.6c27.9-37.2,79-37.2,108.7-2.4
	c13.6,15.9,29.2,23.2,49.1,26.7c27.2,4.8,50.9,16.5,64.5,42.8c10.6,20.4,10.7,41,3.2,62.3c-12.8,36.3-25.7,72.7-38.1,109.2
	c-13,38.5-40.3,60.4-79.6,66c-37.1,5.4-64.1-12.9-83.5-42.9c-11.9-18.4-30.4-26.5-48.7-35.3C3232.1,1036.1,3214.4,1014,3213.5,979.7
	z M3347.4,852.8c-8.8,7.3-19.4,12.9-25.2,21.6c-15.4,23.1-29.8,47.1-42.6,71.7c-14.4,27.6-11.4,39.6,14.6,56.5
	c23.5,15.3,44.8,31.8,62.8,54c18.5,22.9,49.5,17.6,62.2-9.9c12.6-27.1,22.6-55.4,33.2-83.4c3.4-8.9,6.8-18.3,7.6-27.7
	c2.3-25.9-17.2-41.6-46-35.9c5.8,9.6,13.7,17.9,15.9,27.6c2,9.2,1.1,21.9-4,29.1c-7.4,10.4-20.9,9.4-32.3,3.7
	c-14.1-7-21.5-21.4-18.7-37.5c1.4-8.3,5.2-16.2,7.3-22.6C3371,884.7,3360.5,870.5,3347.4,852.8z"/>
<path d="M1418.8,1269.7c2.9-39.3,17.9-67.6,45.8-86.4c24.3-16.3,41.4-36.5,51.6-63.4c1.1-3,3-5.7,4.5-8.5
	c26.9-50,61.3-64,114.4-42.8c25.1,10,48.1,11.3,74.5,5.7c55.3-11.9,85.5,7.3,101.3,61.4c8.6,29.4,21.9,54.2,43.7,76.8
	c39.2,40.7,38.4,90.3,0,132.4c-23.2,25.4-46.6,49.7-60.1,82.3c-7.5,18.2-23.8,26.7-44.2,25.9c-10.7-0.4-21.4,0.8-32.1,0.2
	c-24.3-1.2-46.4,5-67.9,15.9c-14.1,7.2-29.2,14.3-44.7,16.9c-38.3,6.3-69.6-6.9-90.6-40.7c-5.1-8.2-9.8-16.7-13.3-25.6
	c-11.5-29.3-27.6-55-50.5-77.2C1429.7,1321.8,1418.9,1295.1,1418.8,1269.7z M1709.8,1396.4c30.6,9.3,41.2-4,52.3-24.7
	c10.9-20.3,28.2-37.5,44.1-54.8c28.7-31.3,30.6-47.1,0.1-76.1c-26.9-25.6-43.1-54.8-48.9-91.4c-4.1-25.8-9.2-28-35.2-20.8
	c-34.1,9.4-67.5,10.5-100.3-5.1c-3.8-1.8-8-3.3-12.1-4.3c-24.9-6.1-37.5-1.6-44.5,23.1c-10.6,37.3-32.3,63.4-64.4,84.4
	c-33,21.5-36.6,45.2-11,75.3c27.5,32.3,49.1,66.9,65.2,106.2c11.2,27.6,29.3,33.7,57.5,23.8c13.1-4.6,24.9-12.7,38-17.3
	C1671.5,1407.2,1693,1401.4,1709.8,1396.4z"/>
<path d="M1487.1,2257c2.9-39.3,17.9-67.6,45.8-86.4c24.3-16.3,41.4-36.5,51.6-63.4c1.1-3,3-5.7,4.5-8.5c26.9-50,61.3-64,114.4-42.8
	c25.1,10,48.1,11.3,74.5,5.7c55.3-11.9,85.5,7.3,101.3,61.4c8.6,29.4,21.9,54.2,43.7,76.8c39.2,40.7,38.4,90.3,0,132.4
	c-23.2,25.4-46.6,49.7-60.1,82.3c-7.5,18.2-23.8,26.7-44.2,25.9c-10.7-0.4-21.4,0.8-32.1,0.2c-24.3-1.2-46.4,5-67.9,15.9
	c-14.1,7.2-29.2,14.3-44.7,16.9c-38.3,6.3-69.6-6.9-90.6-40.7c-5.1-8.2-9.8-16.7-13.3-25.6c-11.5-29.3-27.6-55-50.5-77.2
	C1498,2309.1,1487.2,2282.3,1487.1,2257z M1778.2,2383.6c30.6,9.3,41.2-4,52.3-24.7c10.9-20.3,28.2-37.5,44.1-54.8
	c28.7-31.3,30.6-47.1,0.1-76.1c-26.9-25.6-43.1-54.8-48.9-91.4c-4.1-25.8-9.2-28-35.2-20.8c-34.1,9.4-67.5,10.5-100.3-5.1
	c-3.8-1.8-8-3.3-12.1-4.3c-24.9-6.1-37.5-1.6-44.5,23.1c-10.6,37.3-32.3,63.4-64.4,84.4c-33,21.5-36.6,45.2-11,75.3
	c27.5,32.3,49.1,66.9,65.2,106.2c11.2,27.6,29.3,33.7,57.5,23.8c13.1-4.6,24.9-12.7,38-17.3
	C1739.8,2394.4,1761.3,2388.7,1778.2,2383.6z"/>
<path d="M1445.4,2999.3c0.1-1.6,0.4-4.8,0.3-8c-1.5-58,20.6-98.6,79.7-116.4c15.1-4.5,29.4-18,39.8-30.9
	c40.6-50.2,115.7-40.7,143.8,11.6c16.1,29.9,37.3,52.5,66.3,71.6c44.3,29.1,51.1,96.5,16.1,140.3c-22,27.5-46.7,53.3-72.8,77
	c-36.4,33.1-97.4,30.7-135.3-3.8c-15.6-14.2-32-23.2-52.8-28.2C1465.3,3096.9,1444.6,3068.6,1445.4,2999.3z M1502.9,2999.4
	c0,8.4-0.5,15.9,0.1,23.4c2,26.9,5.8,30.2,32.2,33.8c12.6,1.7,25.8,3.6,37,9c17.2,8.4,33.1,19.4,49,30.1c29.7,20,42.5,19.5,67.5-4.4
	c17-16.3,32.9-33.7,50.6-49.1c28.4-24.6,28.5-66.2-12.1-82c-27.4-10.7-44.9-31.8-55.1-59.2c-2.2-6-4.9-11.9-8.3-17.3
	c-12.3-19.5-26-23.7-45.9-12.5c-8,4.5-16.2,11.3-20.7,19.1c-13.3,22.8-33,37.5-57.5,42.9c-25.8,5.7-36.1,19.6-35.2,44.7
	C1504.8,2985.4,1503.4,2992.9,1502.9,2999.4z"/>
<path d="M2964.9,2362.1c-18.7,1-37.4-6.5-52.2-21.6c-18.7-19-41.8-29.1-66.4-37.2c-11.1-3.7-22.4-7.7-32.4-13.6
	c-25.5-14.9-38.9-43.9-28.8-71.4c11-30.2,12.4-60.1,10.9-91.4c-2.9-62.9,16.2-86.5,77.5-101.8c21.7-5.4,43-12.7,63.8-21.1
	c56.1-22.5,93.2-8.7,116.6,46.6c11,25.9,24.9,49.2,42.7,71c29.8,36.3,29.5,75.3-2.3,110.3c-21.3,23.4-37.3,48.6-49,78
	C3031.6,2344.3,3003.3,2361.7,2964.9,2362.1z M2995,2053.1c-8.9,0-14.4-1.2-19.3,0.2c-37,10.5-73.9,21.4-110.8,32.3
	c-16,4.7-17.1,16.8-15.1,30.8c5.3,36.3,8.4,72.4-6.9,107.5c-5.2,12-0.8,22.4,11.5,25.4c35,8.7,64.7,26.9,94.3,46.8
	c20.5,13.7,36.9,8.1,46.2-14.9c13.8-34.2,31.5-65.5,56.6-92.6c11.6-12.6,10.6-26.3-1.3-37C3021.4,2125.2,3004.9,2092.3,2995,2053.1z
	"/>
<path d="M2691.7,2660.6c27,1.6,47.7,13.4,63,31.8c17.7,21.2,34.1,44.1,47,68.4c18.5,35.1,11.2,75.2-17.7,102.9
	c-16.4,15.7-26.3,33.2-30.2,54.9c-1.3,7.3-3.3,14.6-5.7,21.7c-14.5,43-53.7,64.1-96.8,48.8c-27.5-9.8-55-15.9-83.9-19.2
	c-42.2-4.8-62.4-26.5-66.5-68.9c-3.6-37.2-5.3-74.6-8-111.9c-2.2-30.5,13.3-51,37.8-65.6c9-5.3,19.8-9.8,30-10.4
	c34.4-2.1,63.5-14.8,90.4-36.2C2662.1,2668.3,2678,2665.9,2691.7,2660.6z M2558.3,2909.9c4.4,1.7,7.4,3.9,10.3,3.7
	c35.7-2.5,70.1-0.4,102.3,18.5c13.5,7.9,22.9-1.5,25.2-15c6.7-38.3,25.6-69.6,51-98.2c5.5-6.1,10.2-19.4,7.2-25.5
	c-14.3-29.5-30.6-58.2-59.6-78.3c-13.2,8.5-25.9,14.7-36.2,23.6c-21.3,18.4-45.7,27-73.2,28.6c-3.2,0.2-6.4,0.3-9.6,1
	c-20.6,4.1-24.4,8.9-23.7,30.6c1,29.9,2,59.8,3.4,89.7C2555.8,2896,2557.3,2903.1,2558.3,2909.9z"/>
<path d="M2108.7,1725.3c-1.5-18.1-2.7-36.3-4.7-54.4c-4.2-37.4,8-61.4,41.6-78.4c9.5-4.8,19.7-8.6,29.9-11.4
	c22.2-6,40.8-16.7,58-32.5c37.1-34,91.3-24.5,116.9,19.5c5.8,10.1,8.5,21.9,13.6,32.5c9.2,19.2,17.4,39.2,29,56.8
	c20.1,30.4,22.4,55.4,3.3,86c-15.8,25.4-31.9,50.6-48.1,75.8c-18.2,28.2-42,38.2-74.6,27.7c-34.8-11.2-69.6-19.7-106.3-22.7
	c-39-3.2-57.9-26.9-59.7-66.8c-0.5-10.7-0.1-21.4-0.1-32.1C2107.9,1725.3,2108.3,1725.3,2108.7,1725.3z M2293.7,1796.2
	c19.6-30.6,38.8-58.6,55.5-88c3.3-5.9-1.5-17.9-5.1-26c-11.1-25.3-24.3-49.7-35.1-75.1c-10.1-23.8-20.8-29.1-40.3-12.1
	c-26.4,23.1-55.7,39.1-89.1,48.7c-16.1,4.6-21,15-18.9,31.7c2.7,21.1,2.6,42.5,3.9,63.8c0.5,9.2,1.4,18.3,2.3,29.5
	C2212.7,1768.1,2255.1,1771.2,2293.7,1796.2z"/>
<path d="M986.6,2512.4c-14.4-3.4-29.8-4.7-43.1-10.6c-25.4-11.3-50-24.3-74.1-38.1c-24.4-14-37.2-35.4-31.7-64.4
	c6.2-32.5,11.8-65.3,20.7-97.2c9.8-35.2,36.7-50.5,73.1-48.6c22.1,1.2,44.7,0.6,66.6-2.3c26.4-3.5,46.4,3.9,60.5,26.3
	c15.4,24.4,30.4,49,45.4,73.6c12.9,21.2,13.1,43.2,0,63.8c-14.9,23.4-30.6,46.5-47.7,68.3C1039,2505.2,1013.8,2510.5,986.6,2512.4z
	 M891.3,2412c26.1,13.7,50.3,27,75,39.2c20.1,9.9,31.9,7.9,45.8-8c11.9-13.7,22-28.8,33-43.3c8.1-10.8,7.7-21.6,0.6-32.7
	c-12.1-18.7-24-37.5-36.5-57c-26.2,0-52.6,0.2-79-0.1c-11.1-0.1-18.4,3.5-20.8,15.1C903.7,2353.4,897.7,2381.4,891.3,2412z"/>
<path d="M993.1,1710.2c0.6-26.5,10.6-62.1,50.2-82.9c7.3-3.8,14.3-10.3,18.6-17.2c20.6-33,51.8-41.8,86.5-33.9
	c24.4,5.6,49.1,15.9,70.1,29.5c26.9,17.3,39.1,45.4,34.2,78c-4.6,30.5-4.4,63.1-24.1,88.9c-13.5,17.6-29.4,34-46.9,47.6
	c-26,20.2-54.5,21.4-83.9,3.8c-14.5-8.7-30.9-14.6-47.1-19.9C1005.5,1789.1,992.4,1771.7,993.1,1710.2z M1145.7,1779.3
	c31.9-18.7,44-52.1,50.6-88.9c5.2-29-0.6-39.6-29.4-51.9c-28.7-12.3-46.5-8.5-62.5,12.2c-6.3,8.2-13,19.5-21.7,22
	c-29.5,8.6-31.6,31.5-33.5,55.4c-0.9,12.2,4,19.2,16.8,23C1091.3,1758.7,1115.8,1768.5,1145.7,1779.3z"/>
<path d="M465,1800.2c3-139.5,45-260.5,150.7-354.3c9.6-8.5,20.1-16.2,31.1-22.6c11.9-6.8,22.7-2.9,31.1,7.8
	c8,10.2,6.1,20.1-1.5,29.2c-4.7,5.7-10.3,10.9-16,15.7c-111.4,95.6-152.8,219.1-142.7,362.3c3.8,53.8,15.7,105.9,40.5,154.5
	c5.4,10.5,11.5,23.7,0.4,32.4c-7.2,5.7-21,9-29,5.9c-8.4-3.2-15.5-14.3-19.8-23.5c-20.9-45-33.6-92.7-39.8-141.9
	C467.4,1843.6,466.6,1821.1,465,1800.2z"/>
<path d="M2268.4,430.5c41.7-0.4,81.1,8.9,118.4,26.5c10.4,4.9,20.3,12.1,28.5,20.3c8.2,8.3,10,21,1.4,29.1
	c-5.7,5.4-16.6,5.7-25.4,6.9c-3.7,0.5-8.1-2.5-11.9-4.3c-72.4-35.9-146.1-28.8-219-4C2089,529.2,2028,570.2,1980,629.3
	c-2,2.5-4,5.1-6.2,7.4c-15.7,16.5-27.5,18-41.4,5.6c-12.5-11.2-13.6-23.2,0.3-39.6C2020.8,499,2130.2,436.5,2268.4,430.5z"/>
<path d="M3409.6,2431.5c-9.8,123.8-51.7,223.5-143,299.3c-21.2,17.6-44,30.2-72.4,29.9c-13.9-0.2-25.3-4.3-30.8-18.4
	c-5.9-15.1-0.4-28.1,15.3-32.8c12.2-3.7,25.3-4.6,37.6-8.2c19.2-5.6,35.6-14.3,37.9-37.9c1.3-13.5,9.4-23.7,21.9-29.7
	c19.5-9.3,31-25.8,39.8-44.5c24-50.9,37-104.6,40-160.7c0.6-10.6-0.9-23.8,12.3-26.6c9.7-2.1,24.1-2.3,30,3.4
	C3406.1,2412.8,3407.8,2426.9,3409.6,2431.5z"/>
<path d="M836.8,1175.7c9.1-33,16.7-66.5,27.6-99c23-68.9,56.6-132,108.9-183.7c21.6-21.4,46.3-38.5,75.1-48.5
	c11-3.8,22.8-6.6,34.4-7c13.8-0.4,21.1,9.5,23.3,22.3c2.3,13-5.2,19.6-16.8,23.3c-12.2,3.9-24.7,7.4-36.2,13
	c-40.4,19.8-68.5,50.4-81,94.7c-2.4,8.3-9.3,15.6-14.9,22.7c-7.7,9.9-19.5,18-23.7,29c-15.5,41-28.6,82.9-42.4,124.6
	c-2,6.1-2.3,12.7-4.3,18.8c-6,17.9-12.1,21.4-28.1,18.5C842.5,1201.5,838.4,1190.7,836.8,1175.7z"/>
<path d="M2229.5,1015.4c-49.6-0.5-89.5-41.4-89-91.2c0.5-49.2,44.9-95.8,91.1-95.5c45,0.3,83.5,44,82.5,93.5
	C2312.9,979.1,2279.4,1016,2229.5,1015.4z M2258.8,924c-0.3-21-11.9-36.5-27.7-36.9c-17.9-0.5-35.7,18.5-35.6,37.9
	c0.1,19.5,14.8,33.8,34.7,33.8C2248,958.7,2259.1,945.3,2258.8,924z"/>
<path d="M2370,3238.4c-44-0.2-73.9-34.1-73.7-83.2c0.2-46.6,35.6-82.2,81-81.3c49,0.9,82.1,35,81.5,84
	C2458.3,3206,2422.2,3238.7,2370,3238.4z M2404.3,3155.8c-0.7-16.7-12.7-28.5-28.3-28c-14.6,0.5-26.9,14.6-26.3,30.2
	c0.6,16.6,13.1,28.8,28.3,27.7C2394.3,3184.6,2405,3172.4,2404.3,3155.8z"/>
<path d="M1406.3,3336.8c-70.6-1.4-126-33.1-172.8-82.1c-8.6-9-14.6-21.1-19.6-32.8c-5.9-13.8,0.2-25.2,12.3-32.9
	c12.5-7.9,19.7,1.7,27.2,9.3c13.5,13.7,25.5,29.3,40.5,41c49,38.4,103.1,55.8,164.8,33.8c5-1.8,10.8-4.9,15.3-3.8
	c8.5,2.2,18.7,5.1,23.8,11.4c7.3,9.1,5,21.1-4.5,28.6c-8.2,6.5-17.6,12.9-27.5,15.6C1446.4,3330.2,1426.2,3333,1406.3,3336.8z"/>
<path d="M1668.2,693.2c50.6,0.1,86.4,12.8,120.1,32.4c5.5,3.2,10.8,7,15.3,11.5c12.9,12.7,15.6,26.8,7.5,37.1
	c-10.6,13.4-22.5,7.9-34.4,1.9c-16.2-8.1-31.6-18.8-48.7-23.7c-59.9-17.3-114-6.2-159.8,37.8c-3.8,3.7-7.3,7.8-11.3,11.3
	c-8.7,7.7-18.2,11.6-28.9,3.9c-10.4-7.4-11.6-18.4-7.3-28.7c4-9.6,10-18.9,17.1-26.5C1576,709.6,1624.9,694.5,1668.2,693.2z"/>
<path d="M825.1,2803.8c-6.5-3-18.7-7.2-29.4-13.8c-36-22.4-58.5-55.6-72.9-94.8c-13.5-36.8-18-74.8-15.6-113.6
	c1.3-21.2,9.7-29.7,25.9-29.6c16.3,0.1,23.5,8.4,25.3,30.4c0.8,9.6,0.1,19.3,0.6,28.9c2.2,40.3,10.7,79.2,38,110.1
	c13.8,15.6,32.4,27,49.5,39.3c9.2,6.6,17.9,12.2,14.3,25.4C857.3,2798.7,846,2805.6,825.1,2803.8z"/>
<path d="M2074.7,3473.9c-64.7-1.4-113.5-15.6-156.8-46.1c-8.5-6-17.1-13.9-21.7-22.9c-6.2-11.9-5.3-25.2,7-34.6
	c11.4-8.7,19.5-1.7,28.2,5.5c47.5,39.2,102.5,51.8,162.5,43.2c14.5-2.1,28.6-8.6,42.3-14.4c12-5.1,23.3-7.3,31.4,4.8
	c8.3,12.4,5.6,25.4-5.5,34.6c-8.8,7.4-19.1,14.8-29.9,17.8C2109.6,3468.1,2086.3,3471.6,2074.7,3473.9z"/>
<path d="M598.3,2260.5c3.4-42.6,22.9-79,61.1-104.4c6.8-4.5,16.1-8.6,23.6-7.7c9.6,1.2,23.2,5.4,26.5,12.4
	c3.1,6.7-2.8,19.8-8.2,27.8c-5.1,7.6-14.5,12.3-22.1,18.2c-27.9,21.5-36.4,49.7-26.4,82.6c4.9,16.1,12.8,31.7,21.4,46.3
	c6.6,11.2,12.3,20.5-0.9,30.2c-14.3,10.4-28.4,9.4-39.2-4.7C612,2332.5,599.4,2300,598.3,2260.5z"/>
<path d="M3382.4,2095.8c4.8-44-13.6-76.5-50-100c-6.3-4.1-12.7-7.9-18.7-12.4c-9.7-7.4-12.6-16.8-7-28.2
	c5.3-10.7,13.9-17.8,25.5-14.8c13.2,3.5,27,8.3,37.9,16.1c46,32.9,66.5,80.2,67.9,135.2c0.4,14.9-7.2,31.1-14.8,44.5
	c-3.5,6.1-17.3,11-24.3,9c-6.9-2-13.5-12.6-16-20.8C3380.3,2115.7,3382.4,2105.4,3382.4,2095.8z"/>
<path d="M3033.2,2926.8c-1.7,66.1-40,120.4-95.5,138.6c-8,2.6-16.6,4.8-24.9,4.4c-13.2-0.5-23.2-9.3-23.9-21.6
	c-0.4-7.4,6.7-17.1,13.1-22.4c8-6.6,18.6-10.2,28.4-14.4c28.4-12.1,42.4-34.4,46.1-64.1c1.3-10.6,2.4-21.2,3.5-31.8
	c1.3-13,6.8-23,21.2-23.5c14.2-0.5,24.8,6.4,29.8,19.8C3033.1,2917.5,3032.8,2924.3,3033.2,2926.8z"/>
<path d="M2671.5,734.3c17.5-0.5,30.7,11.9,31.1,29.1c0.4,16.8-15.5,32.7-32.5,32.6c-17.2-0.1-30.6-13-30.8-29.6
	C2639.2,747.9,2652.3,734.9,2671.5,734.3z"/>
<path d="M2840.1,1017.6c16.9,0.6,32,17.8,30.5,34.7c-1.2,12.6-18.3,25.7-32.7,24.9c-18.1-1-32.7-14.1-32.4-28.9
	C2805.8,1031.6,2822.3,1017,2840.1,1017.6z"/>
<path d="M3367.1,1614.8c14.6,0.5,28.8,15.2,28.1,28.9c-0.8,16.1-18.5,31-35.2,29.7c-14.4-1.1-24.2-12.9-23.6-28.3
	C3337,1628.8,3351.8,1614.2,3367.1,1614.8z"/>
<path d="M2809.4,1227.1c17,2,28.9,15,27.1,29.8c-1.9,15.7-16.1,28.4-30.5,27.2c-18.1-1.6-33.2-18.6-30.6-34.7
	C2777.8,1234.6,2792.4,1225.1,2809.4,1227.1z"/>
<path d="M2986,1270.7c15.1-0.6,28.2,11.7,29.1,27.4c1,16.9-11.8,31.9-27.7,32.4c-14.2,0.5-29.4-15.5-29.7-31.2
	C2957.4,1284.7,2970.7,1271.2,2986,1270.7z"/>
<path d="M2693.8,1000c-0.3,16.3-14.7,29.4-31.5,28.7c-14.7-0.6-26.5-14-26.5-29.9c0-16.7,11.6-29.1,27.2-29
	C2679.4,969.9,2694.1,984.4,2693.8,1000z"/>
<path d="M3153,1538.5c-0.2,15.1-14.3,27.3-30.4,26.3c-15.8-0.9-30.6-14.9-29.8-28.1c0.8-13.1,17-27,31.6-27
	C3139.6,1509.6,3153.2,1523.3,3153,1538.5z"/>
</svg>
