<?xml version="1.0" encoding="utf-8"?>
<!-- Generator: Adobe Illustrator 24.3.0, SVG Export Plug-In . SVG Version: 6.00 Build 0)  -->
<svg version="1.1" id="Layer_1" xmlns="http://www.w3.org/2000/svg" xmlns:xlink="http://www.w3.org/1999/xlink" x="0px" y="0px"
	 viewBox="0 0 4000 4000" style="enable-background:new 0 0 4000 4000;" xml:space="preserve">
<path d="M2069.1,371.1c199.6,2,396.9,24,589.8,76.2c181.1,49,351.5,123.5,507.8,228c135.2,90.4,256.1,196.6,352,329.4
	c113.2,156.8,173.2,333.8,198.7,523.6c27.3,202.9,22.3,405.7-3.4,608.4c-21.3,167.8-60.7,330.9-124.3,487.8
	c-93.9,231.7-243.1,422.2-437.7,576.8C2973.6,3343.1,2770,3436.2,2551,3497c-233.1,64.7-470.9,85.9-711.6,72.9
	c-191.2-10.3-378.7-44.1-561.2-104.2c-313.5-103.4-576.1-279.6-776.4-543.1c-117.6-154.8-195.3-329.7-241.5-518.7
	c-28.2-115.6-44.4-232.8-54.7-351.2c-10.6-122.9-13.6-246-6-369.1c12.8-206.9,70-399.4,186.7-572.8C490.1,956.7,623,833,776.5,729.6
	c204.8-138,429-230.3,667.8-289.7C1649.6,389,1858.1,369,2069.1,371.1z M3230.3,2032.4c10.7-5.6,22.5-9.8,32-17
	c21.5-16.5,42.4-33.8,62.6-51.9c67.1-59.9,125.2-127.7,168.1-206.8c80-147.5,97.9-300.4,37.3-460.3
	c-33.2-87.6-79.9-166.9-136.8-240.5c-71-91.8-155.8-169.3-250.2-236.7c-164.6-117.4-343.8-202.8-540.2-251.9
	c-138.5-34.6-278.7-56.7-421.3-64.2c-161.9-8.5-323.2-3.1-483.5,20.3c-154.5,22.6-305.8,59.9-452.7,113.6
	c-218.7,80-419,191.1-587.8,353.9c-95.8,92.4-177.4,195.9-235.5,316.4c-31.1,64.5-55.2,132-59.7,203.7c-7,112,17.9,217.6,75.6,314.8
	c69.8,117.5,168.4,205.3,282.8,277c1.4,0.9,3.8,0.1,6.4,0.1c-29.1-28-58.6-55.2-86.7-83.7c-80.6-81.9-138.6-177.6-173.7-287.2
	c-24.2-75.5-31.6-153-22.4-231.1c18.3-155.8,81.3-292.7,182.5-412.1C739.1,956.7,875.1,854.7,1028,775.7
	c276.9-143.2,573.9-216.3,883.3-238.5c213.2-15.3,424.1,7,631.8,58.4c199,49.2,386.6,124.5,555.7,242.2
	c118.2,82.2,221.1,179.4,292.9,305.7c64.4,113.3,98.8,235.4,93.2,366.3c-7,162.8-69.2,304.6-171.6,429.7
	c-26.3,32.1-54.8,62.5-82.2,93.8c-9.8,5.9-19.5,11.9-29.3,17.8c1.6,2,3.2,4.1,4.8,6.1C3214.4,2048.8,3222.4,2040.6,3230.3,2032.4z
	 M1459.2,1218.9l1.1,1c-25.8-17.9-51.5-35.9-77.3-53.8c-89.9-62.6-180.3-124.5-269.4-188.1c-29.8-21.3-56.5-47-84.5-70.7
	c9.1-2.5,14.6,0.2,19.9,3.2c175.1,99.2,340.8,212.9,505.7,327.8c16.9,11.8,30.4,17.7,48.3,4.1c15-11.4,31.4-10.8,48-2.8
	c9.1,4.4,18.5,8.5,27.9,12.2c28.4,11.2,37.3,6.8,47.1-23c4.6-13.9,5.9-29.7,13.6-41.4c10.4-15.9,7.8-28.5,0.4-43.7
	c-30.4-63.1-60.3-126.4-89.8-189.9c-30.9-66.6-61.8-133.2-91-200.5c-9.5-21.9-14-46-20.8-69.1c2.5-0.9,4.9-1.9,7.4-2.8
	c3.9,6.3,8.2,12.4,11.6,19c65.1,124,131.9,247.1,194.1,372.5c23.6,47.6,50.2,89.6,92.2,122.8c39.4,31.1,81.8,19.7,91.2-29.3
	c4.8-25.3,5.6-51.6,6-77.4c1.4-107.3,1.1-214.7,3.2-322c0.8-41.3,6.5-82.5,9.9-123.8c2.7,0,5.3-0.1,8-0.1c2.4,13,6.1,25.9,6.9,39
	c5,83.4,10.2,166.9,13.6,250.4c2.2,54.2,1.2,108.5,2.2,162.7c0.3,13.9,2.7,27.8,4.4,43.5c20.5-6.3,36.4-11.2,55.6-17.1
	c9.3,28.7,17.9,55.6,28.4,87.9c13.6-13,24.4-20.1,30.6-29.9c15.6-24.7,31.2-49.8,43.2-76.4c23.1-51.4,43.2-104.3,65.6-156.1
	c34.1-78.8,68.9-157.2,104.1-235.5c5.3-11.9,9.3-25.9,26-37c-2.5,13-3.6,20.7-5.5,28.2c-30.8,118.4-73.2,232.6-122,344.6
	c-15.8,36.2-29.3,73.3-44.6,109.7c-7.6,18.1-2.6,32.7,8.8,47c20,25.2,42.1,33.3,71.6,19.8c21.2-9.7,41.1-23.6,58.8-38.9
	c27.3-23.6,52-50.3,78.2-75.1C2517.5,986.9,2641.3,858,2779.1,744c5-4.1,8.7-9.7,12.8-14.3c-2.3-3.2-3.2-5.8-4.9-6.6
	c-7.2-3.3-14.5-6.1-21.9-9c-111.9-43.7-228-72.3-345.4-96.2c-185.4-37.8-372.4-44.7-560-27.3c-195.2,18.1-385.9,59.7-570.7,126.4
	c-196.2,70.9-377.9,166.6-533.9,307.5c-99.8,90.1-177.7,195.4-224.2,321.9c-75.9,206.5-42.9,398,86.9,573.3
	c54.9,74.1,124.4,134.3,198.5,188.4c137.6,100.5,290.7,168.8,456.1,208.3c141.9,33.9,285.7,56.3,431.6,64.8
	c324.8,18.8,645.8-1.4,960-91.6c73.8-21.2,147.2-44.2,215.1-81.2c89.4-48.7,176.8-100.6,257.2-163.3c101-78.8,186-171.2,239.4-289.7
	c85.4-189.5,78.3-377-11.8-562.7c-8.7-17.9-20.8-34.2-31.2-51c-42.5,15-81.3,30.1-120.9,42.4c-171.5,53.1-343.3,105-514.7,158.1
	c-45.3,14-89.8,30.2-134.6,45.7c-12.2,4.2-24.1,9.3-36.1,14c0.4,2.3,0.8,4.7,1.2,7c12.7,1.8,25.7,2.5,38.1,5.6
	c14,3.5,24.8,12.9,26.1,27.8c1.4,16.1-10,25.1-24.1,28.2c-14.1,3.1-28.9,3.2-43.2,5.2c-6.5,0.9-12.9,3.5-19.3,5.3
	c0.1,2.4,0.3,4.8,0.4,7.3c17.4,3,34.7,6.9,52.2,8.7c36,3.6,72.2,4.9,108.1,9c107.7,12.3,215.3,25,322.8,38.6
	c85.2,10.8,170.1,23,255.1,34.9c8.4,1.2,16.5,5.1,24.7,7.8c-9.6,6.7-17.4,7.7-25.1,7.5c-56.5-1.4-113-1.8-169.4-5
	c-188.4-10.9-375.9-30.9-563.2-53c-14.2-1.7-28.8-6.7-41.4-13.5c-20.1-10.7-24.9-28.1-14.9-49c5.3-11.1,13.3-20.8,20.4-31
	c13.6-19.7,11.4-34.9-10.5-37.7c-30.4-3.9-35.1-23.6-39.7-46.3c-1.5-7.5-3.1-15-5-24.2c-11.9,0.6-21.8,1.7-31.7,1.4
	c-27-0.9-54.1-0.9-80.9-4c-22.9-2.7-39.4-15.2-43.7-40.4c-1.4-8.4-6.6-16.1-10.5-24.9c-10.7,1.2-19.6,1.7-28.3,3.4
	c-28.6,5.8-50.9-0.2-64.3-29.2c-4.3-9.3-13.6-16.2-20.7-24.3c-7.2,4.5-11.1,6.8-14.8,9.3c-50.4,33.9-59.5,32.5-98.6-13.1
	c-9.8-11.4-21.4-21.1-31.9-31.3c-20.6,19.6-36.3,37.6-54.9,51.8c-41.7,32.1-59.3,32-103.9,4.1c-17.1-10.7-34.1-21.4-54.9-34.5
	c-5.8,15.3-11.2,27.2-14.7,39.7c-10.4,37.2-23.4,49-62.4,48.5c-20.1-0.2-40-6-60.1-8.8c-11.6-1.6-23.4-2.2-36.8-3.4
	c-1.2,13-1.9,21.8-2.7,30.6c-2.8,31-12.9,45.6-43.3,52.7c-18.2,4.2-37.9,3.2-56.9,2.5c-15.7-0.6-30.9-2-43.9,6.9
	c0.4,4.6-0.3,7.5,0.9,8.8c6.1,6.5,12.5,12.8,19.1,18.8c41.2,37.4,40,72.1-4.1,106.8c-9.2,7.3-18.9,13.8-27.1,19.7
	c28.7,17,57.5,30.2,81.6,49.4c28.5,22.7,23.2,55.6,11.2,92c16-8.5,27.1-13.7,37.5-20.1c19.9-12.4,42.3-20.9,64.3-14.4
	c14.3,4.2,25.5,19.4,39.9,31.2c10.4-6.3,22.6-14.3,35.4-21.3c39.5-21.7,81.2-12.9,107.9,23.1c13.8,18.7,26.1,38.6,39.9,59.2
	c10.7-6.6,20.2-12.6,29.7-18.5c36.7-22.9,65.3-21.7,99.4,5.4c11.4,9.1,21.5,20,32,30.1c10,9.6,15.1,29.3,33.1,23.7
	c16.6-5.2,14.3-23.9,17.1-37.8c11.2-55.3,26.8-65.5,81.7-55.2c14.7,2.8,29.8,12.4,46,1.7c0.8-6.9,1.2-13.6,2.3-20.3
	c5.9-37.6,37.7-55.3,71.9-40c5.2,2.3,10,5.4,15.2,7.6c28.1,12,33.1,9.7,43.7-19.4c9-24.4,13.7-28.7,39.2-28.6
	c12.1,0,24.4,3.3,36.4,5.8c8.5,1.8,16.7,4.6,24.3,6.8c34.2-52.6,108.6-54.1,140.1-5.1c12.8,19.9,6.1,36.8-17.1,38.4
	c-14.2,1-28.8-3.7-43.3-5.6c-7.9-1-15.8-1.4-23.8-2c-0.7,2.7-1.3,5.4-2,8.1c103.6,51,207.8,100.7,310.5,153.4
	c103.5,53.1,209.7,101.5,306.4,167.6c-145.8-51.3-287.1-112.8-429.7-179.1c1.7,15.9,4.2,28.9,4.2,42c0,12.4-1.7,24.5-15.5,31.3
	c-25.8,12.7-67.8-1.8-85.5-30.4c-15.8-25.5-9.2-46.4,21.1-67.4c2.5-1.7,4.2-4.4,7.4-8c-20-10.6-38.5-21.5-57.9-30.3
	c-33.1-15-33.4-14.5-59.8,12.9c-17.2,17.8-35.2,21.6-50.4,7c-18.9-18.1-34.9-38.6-28.8-68.2c2.6-12.9,5.8-27.1-9.2-35.6
	c-52.2,18.1-61.1,49.1-23.9,85.8c39.4,38.9,80.3,76.3,120.3,114.5c100.7,96,197.5,195.6,281.8,306.6c4.9,6.5,8.6,14,12.8,21.1
	c-1.8,1.4-3.7,2.9-5.5,4.3c-28.7-26.6-57.8-52.7-85.9-79.9c-107.1-103.7-213.9-207.8-320.8-311.8c-29.2-28.4-58.2-56.8-87.3-85.2
	c-11.7-11.4-23.6-21.4-42.8-4.8c8.3,14,17,26.8,23.7,40.6c5.2,10.8,10.6,22.8,11,34.5c0.6,18.1-9.2,33.1-26.3,40
	c-18.1,7.3-29.8-4.9-39.7-18c-8.1-10.8-15.4-22.3-23.5-33.2c-15.9-21.6-24-22.2-46-6.1c35.8,89.8,73.4,178.1,106.2,268.1
	c33,90.7,65.3,181.9,78.8,278.9c-12.9-18.4-23.6-37.7-31.8-58.1c-48.4-120.5-95.8-241.4-144.6-361.7
	c-15.3-37.6-34.1-73.9-51.3-110.7c-12.2,27.9-23,53-15.8,81c1.6,6.3,0.6,13.5-0.4,20.1c-2.9,18.8-16.4,25.5-33.2,28.4
	c-16.7,2.9-29.5-2-34.8-18.8c-5.7-18.2-10.2-36.9-14.7-55.5c-3.5-14.4-6.6-28.7-27.9-34.2c-1.9,13.1-4.9,24.7-5.2,36.4
	c-3.3,128.8-5.4,257.6-9.5,386.3c-1.3,41.7-7.6,83.2-12,124.7c-0.7,6.9-3.6,13.7-5.5,20.5c-2.3-0.1-4.6-0.2-6.9-0.3
	c-2.2-21.9-6.3-43.7-6.3-65.6c-0.5-165-0.2-329.9-0.1-494.9c0-8.5,0-17,0-26.1c-33.1,6-39.6,12-42,37.6c-1,11.2,0.3,22.7-1,33.9
	c-2.4,20.5-14,33.1-30.7,35.3c-18,2.3-30.9-5.6-36-27.8c-3.7-16-2.2-33.4-2-50.1c0.3-19.8,4.5-40.2-14.7-60.3
	c-46,60-66.5,130.1-100.7,192.7c-34.1,62.3-63.1,127.5-96.2,190.4c-33.1,62.8-65.1,126.5-107.5,184
	c68.2-207.6,169.3-400.1,266.7-594.2c-21.7-9.4-40.3-9.3-51.5-0.4c-14.5,11.5-4.8,24.4-2.6,37.2c6.1,34.6-23.2,71.7-58,74.3
	c-21.1,1.5-30.6-7.1-31.9-29.1c-0.6-9.6-1-19.2-1.9-36.4c-16.1,15.2-27.2,25.6-38.1,36.2c-20.2,19.6-39.9,39.8-60.5,59
	c-24.8,23.1-50.2,45.6-75.6,68c-67.8,59.7-135.7,119.4-203.8,178.8c-6.5,5.6-14.6,9.4-21.9,14c-1.3-1.9-2.6-3.8-3.9-5.8
	c13.3-16.7,25.3-34.6,40.1-49.9c55.7-57.7,112.3-114.5,168.6-171.6c7.9-8,15.7-16.1,27.7-28.5c-57.9,8.6-65.9,3.6-77.4-43.6
	c-185.9,91.6-362.2,202.1-556.9,276c17.1-15.8,35.3-29.8,54.9-41.7c169.1-102.4,339-203.3,517-289.7c21.2-10.3,41.3-23.3,60.8-36.7
	c22.6-15.6,39.3-36.9,51.7-61.7c8.1-16.1,3.9-28.7-9.2-38.7c-7.1-5.4-15.4-9.9-23.9-12.4c-51.2-15.6-103.4-23.9-157.1-16.7
	c-8.4,1.1-16.5,4.8-25.1,7.3c0.6,12.7,2,22.8,1.3,32.8c-1.4,19.7-10.4,35-30.6,39.9c-15.2,3.7-30.9,7.2-46.4,7.4
	c-20.2,0.3-28.3-7.6-32.5-27.5c-2.5-11.7-3.4-23.7-5.1-36.7c-65.4,8.1-128,16.9-190.8,23.4c-64,6.6-128.2,11.4-192.4,16.3
	c-62,4.8-124,9.7-186.3,3.9c8.3-5.1,16.8-7.4,25.4-8.7c112.7-17.1,225.4-34.9,338.3-50.9c88.3-12.5,176.8-24.6,265.5-33.4
	c76.1-7.6,150.4-17.3,211.3-69.5c1.7-1.5,4-2.2,5.7-3.7c5.5-4.8,10.9-9.9,18.6-16.8c-35-30.8-65.3-62-109.5-75.2
	c-131.9-39.5-263.6-80.1-395.2-120.5c-93.8-28.8-189.3-52.9-279-93.9c-8.8-4-17.1-9.1-32.6-17.5c11.6,0,14.8-0.6,17.7,0.1
	c58.1,13.9,116.7,26.5,174.3,42.4c181.7,50.1,363.1,101.4,544.7,152.1c8.6,2.4,17.8,4.4,26.6,3.8c33.7-2.3,67.5-5,101-9.2
	c9.1-1.1,23.8-6.8,24.9-12.4c1.7-9.2-3-22.5-9.7-29.8c-19.7-21.7-41.4-41.6-62.9-61.6C1472.4,1222.9,1465.2,1221.6,1459.2,1218.9z
	 M334.8,1721.7c-7.3,132-6.7,262.8,7.4,393.5c17.4,161.6,50.8,318.7,113.7,469.1c50.6,120.9,119.2,230.4,205,329.3
	c104.1,119.8,227.2,216,364.1,295.2c96,55.5,195.4,104.4,301.3,137.7c173.1,54.5,350.1,86.5,532.1,93.7
	c243.6,9.6,483.1-11.8,716.2-84.8c209.3-65.5,400-165.2,564-313.6c105.8-95.7,195.1-204.1,264.6-328.3
	c83.5-149.2,136-309.7,166.6-477.6c34-186.6,38.2-375,32-563.9c-0.2-6-2.5-12-3.8-18c-10.4,11.8-14.9,24.2-20.5,36.2
	c-14.7,31.7-27.7,64.5-45.2,94.5c-52.8,90.6-121,168.6-200.1,237.3c-80,69.4-170.9,122.2-264,170.9
	c-197.8,103.4-409.4,167-628.3,206.2c-121.3,21.7-244,31-367.2,36.6c-131.2,6-262.2,5.3-392.9-4.8
	c-223.8-17.3-442.9-59.5-655.5-132.9c-160.1-55.3-311.5-127.9-444.2-234.7c-101.8-81.9-184.9-179-230.1-304.2
	C345.4,1746.4,339.9,1734.1,334.8,1721.7z M2463.4,1364.7c14.1-2.6,24.1-3.4,33.4-6.3c59.3-17.9,118.1-37.7,177.8-54.3
	c188-52.3,376.3-103.5,564.5-154.9c26.7-7.3,53.9-13.1,81.7-19.8c-98-165.4-326.6-326.7-515.9-394.2c-2.3,2-5.1,3.8-7.2,6.4
	c-102,125.7-218.3,237.9-334.1,350.4c-50.2,48.8-100.6,97.4-150.9,146.2c-9.2,9-16.4,18.7-11.3,32.9c5.2,14.5,15.8,22.2,30.6,22.4
	c16.8,0.2,33.7-1,50.5-2.1c23.4-1.6,46.9-5.5,70.2-5.1c25.5,0.5,35.9,17.6,27.5,41.6C2476.4,1339.1,2470.5,1349.6,2463.4,1364.7z
	 M1490.7,1798.3c31.7-27.5,67-45.1,88.6-79.4c-34.1-15.3-63.8-11.9-91.9,6.9c-12.5,8.4-18.7,18.1-10.6,33.8
	C1482.3,1770.2,1485.1,1782.2,1490.7,1798.3z M1611.4,1693.5c13.8-4.2,22.9-7,34.6-10.6C1628.9,1668,1628.9,1668,1611.4,1693.5z"/>
<path d="M2302.5,1860.4c-0.9-31.4,21.7-48.2,51.2-38.1c29.4,10.1,51.6,46.4,47.6,78c-2.8,21.8-26.7,35.6-48.5,27.9
	C2331.5,1920.6,2303.2,1882.5,2302.5,1860.4z"/>
<path d="M1534.2,1908.3c1.2-22,9.3-41.4,25.1-57c15.4-15.2,34.3-17.6,52.3-7.5c17,9.6,23,23.6,14.2,46.3c-6.7,17.3-17,34-28.8,48.5
	c-10.5,12.9-26.8,16.6-42.9,8.7C1538.2,1939.5,1531.6,1926.1,1534.2,1908.3z"/>
<path d="M2047.7,1983.6c2.9-13.3,3.4-23.9,7.5-32.7c10.3-22.4,37.3-28.5,57.3-14.1c22.7,16.4,31.5,66.8,15.6,89.5
	c-18.9,27-49.5,27.3-65.9-1C2054.5,2012.1,2051.9,1996,2047.7,1983.6z"/>
<path d="M1459.2,1218.9c29.4,31.4,32.8,57.4,10.7,82.4c-15.5,17.5-31.4,21-50.2,7.3c-12.4-9-23.7-20.7-32.3-33.4
	c-16.3-24.2-9.1-44.4,17.6-57c18.7-8.8,37-6.1,55.1,1.7C1460.3,1219.9,1459.2,1218.9,1459.2,1218.9z"/>
<path d="M1853.7,924.8c-4.1,15.9-5.2,26.4-9.3,35.4c-9,19.6-30.3,24.4-48.3,12.3c-27-18.2-40.3-65.2-26.5-94.4
	c10.7-22.7,39.4-28.8,55.6-8.4C1838.6,886.6,1845.7,908.7,1853.7,924.8z"/>
<path d="M1087.2,1790.9c-27-0.1-41.8-23-29.9-50.3c12.2-28,56.7-47.7,85.5-37.8c27,9.3,35.1,37.3,16.2,59.3
	C1141,1783.1,1116.2,1789.6,1087.2,1790.9z"/>
<path d="M2378.1,953.7c22.9-0.5,39,16.2,35.2,38.7c-4.3,25-15.5,47-36.4,62.5c-13.7,10.2-28.9,12.3-44.1,2.9
	c-14.4-8.9-20.3-26-15.9-44.3C2324.4,982.4,2353.2,954.2,2378.1,953.7z"/>
<path d="M1851,1928.7c-8.9,16.3-15.8,34-27.1,48.4c-10.2,12.9-26.5,16.1-42.9,9.8c-15.7-6-22.9-18.8-21.7-34.4
	c1.3-16.4,3.2-33.7,9.5-48.6c9.1-21.4,31-30.5,49.4-24.7C1839.2,1885.8,1848.2,1900.7,1851,1928.7z"/>
<path d="M1566.5,1173.4c0.8,27.2-12.7,37.6-38.2,28.3c-12.7-4.6-26.3-9.2-36.4-17.6c-11.8-9.7-22.5-22.2-29.4-35.7
	c-7.4-14.5-6.2-31.2,6.4-44.1c12.9-13.2,27.2-6.7,40.8-1.2C1541.5,1116,1565.6,1146.1,1566.5,1173.4z"/>
<path d="M2896.8,1743.7c-15.7-5.7-32.2-9.7-46.8-17.4c-19.8-10.4-25.9-25.2-20.8-41.1c5.9-18.5,24.1-33.6,42.9-31.1
	c16.3,2.2,32.9,7.3,47.5,14.9c19.6,10.2,27.3,28.4,23.1,44.4C2938,1731.8,2922.6,1741.2,2896.8,1743.7z"/>
<path d="M1121,1483.5c-11.1-1.9-22.6-2.3-32.9-6c-26.8-9.4-32.6-39.3-12.2-59.2c20.3-19.7,68.8-22,90.9-3.7
	c10.6,8.8,19.9,19.4,16.3,34.5c-3.6,15.1-12.9,26.2-28.7,29.6C1143.5,1481.1,1132.3,1481.9,1121,1483.5z"/>
<path d="M1265.6,1238.4c-21.6-2.3-42.9-11.4-58.3-31.1c-15.6-19.9-11-40.6,10.8-53.8c31.5-19,88.2,8,93.4,44.4
	C1314.6,1220.2,1295.5,1238.2,1265.6,1238.4z"/>
<path d="M1832.1,2090.3c-8.1,16.8-14.8,34.4-24.7,50c-7.7,12.2-21.2,16.5-35.9,11.8c-13.8-4.4-23.9-12.8-26.9-27.6
	c-5.7-28.3,0.8-54.3,19.2-76c17.8-20.9,54.2-11,61.9,16.1c2.1,7.5,1.8,15.6,2.5,23.4C1829.5,2088.8,1830.8,2089.6,1832.1,2090.3z"/>
<path d="M2034.2,900.3c7.2-18.5,11.8-38.7,22.3-55.2c14.2-22.3,41.1-19.8,55.7,2.4c16.7,25.4,8.4,74.2-15.7,92.8
	c-11.7,9-25.2,12-38,4.9C2042.1,936.1,2037.3,919.9,2034.2,900.3z"/>
<path d="M1559.1,1075c-33.7,1.2-81.3-54.4-56.6-90.3c13.6-19.7,30.3-26.1,47.6-10.1c16,14.8,30.3,33.4,39.8,53
	C1600.8,1050,1582.2,1075.5,1559.1,1075z"/>
<path d="M2910.1,1422.2c-7.4-1.7-19.9-3.2-31.2-7.5c-21.4-8.2-27-26.5-15.7-46.3c16.5-28.9,74.7-37.3,98.7-14.2
	c14.2,13.7,14.9,33,1.6,48.1C2950.5,1416.8,2933.3,1420.8,2910.1,1422.2z"/>
<path d="M1312.3,1492.1c-30.5,0.2-45-12-55.4-31.2c-6-11.2-5.3-20.6,2.6-30.9c23.5-30.6,68-32.4,93.8-3.2
	c17.6,19.9,15.7,39.7-7.4,53.2C1333.7,1487,1319,1489.7,1312.3,1492.1z"/>
<path d="M2718.7,1701.8c-31,0.2-56.7-25.2-56.1-55.2c0.5-23.5,14.4-37.4,38-38.1c30.2-0.9,60.8,24.3,61.7,50.9
	C2763,1680.9,2741.7,1701.7,2718.7,1701.8z"/>
<path d="M2121.9,1048.3c-1.8,24.3-6.3,43.6-25.1,56.1c-18.6,12.3-37.1,8-48.3-11.2c-14.3-24.6-11.5-58.8,6.5-78.3
	c24.1-26.1,52.9-19.9,63.6,14C2120.9,1036.1,2121.3,1044.1,2121.9,1048.3z"/>
<path d="M1347.4,1727.4c-18.5,0-30.1-5.9-37.4-21.2c-7.4-15.4-4.4-28.4,6.4-40c16.9-18,37.5-28.4,62.7-26.3
	c31.2,2.6,44.2,30.1,25.8,55.5C1390.4,1715.5,1369.6,1725.6,1347.4,1727.4z"/>
<path d="M1818.6,1082.8c2.8-11.8,3.6-21,7.2-28.9c14.5-31.5,39-34.1,58.6-5.4c8,11.8,13.7,25.9,17,39.8c4.9,20.4-5,39.2-22,48.6
	c-19,10.5-35,7.1-45.2-12.3C1827.1,1110.9,1823.3,1095.6,1818.6,1082.8z"/>
<path d="M2299.2,1129.4c-4,26-9.7,47.6-28.7,62.7c-15.6,12.4-32,13.6-46.5,4c-15-10-20-24.3-11.2-44.3c7.1-16.2,17.1-31.4,27.9-45.5
	c8.9-11.6,22.9-15,36.5-8.3C2290.8,1104.9,2300,1116,2299.2,1129.4z"/>
<path d="M1663.6,1116.6c3,1.4,12.1,3.7,18.5,9.1c17,14.3,26.2,33.6,29.2,55.5c1.9,14.1-1.2,27.5-14.1,35.6
	c-13.9,8.8-28.2,6.6-41.2-2.4c-20.6-14.2-32.8-33.6-34.3-59.1C1620.3,1131.4,1633.7,1117.1,1663.6,1116.6z"/>
<path d="M2738.6,1485.8c-5.7-1.3-17.1-2.4-27.3-6.4c-29.3-11.4-34.3-40-11.3-61.3c24-22.2,71-17.6,90.6,8.7
	c9.3,12.5,9.1,24.6,0.5,37.2C2781.3,1477.9,2765.5,1485.3,2738.6,1485.8z"/>
<path d="M2348.4,2931.4c-58.5,0.8-105.8-45.2-106.7-104c-0.9-57,46.9-106.9,103.7-108.1c58.8-1.2,109.1,47.1,110.2,105.7
	C2456.6,2884.9,2410.7,2930.6,2348.4,2931.4z"/>
<path d="M1543,2717.1c58.7,1.7,104.4,49.2,103.2,107.5c-1.3,61.8-49.4,105.8-113.6,103.8c-56.6-1.8-99.5-49-98.1-108.2
	C1435.8,2764,1486.8,2715.5,1543,2717.1z"/>
<path d="M1951.6,3047.5c-83.5,3-149.3-40.6-167.5-109.4c-3.4-12.8-4.5-26.8-3.3-40c1.6-17.1,16.8-30.4,31.5-30
	c16.6,0.6,27.3,9.4,31.4,25.7c1.1,4.4,1.7,8.8,2.8,13.2c12.5,50.3,46.7,76.4,98.5,74c14.6-0.7,29.4-2.5,43.4-6.4
	c27.4-7.8,48.4-23.8,56.5-52.9c3-10.8,6-21.7,9.3-32.5c4-13.1,12.3-22.2,26.7-21.4c14.1,0.8,27.8,5.9,31.3,21.1
	c2.7,11.6,3.7,24.8,0.8,36.1c-16.4,65.6-58.9,104.7-124.9,118C1974.9,3045.7,1961.3,3046.4,1951.6,3047.5z"/>
<path d="M706.1,2690.4c-15.8-0.2-29.5-12.2-30.1-26.4c-0.7-17.1,15-33.5,31.7-33c15.5,0.5,26.9,12.6,27.2,28.9
	C735.2,2677.9,723.3,2690.6,706.1,2690.4z"/>
<path d="M3085.9,3007.9c-15,0.9-31.2-14-31.7-29.1c-0.4-14.5,12.2-29.6,25.7-30.8c15.8-1.4,33,12,33.9,26.4
	C3114.8,2988.6,3099.4,3007.1,3085.9,3007.9z"/>
<path d="M3288.1,2667.1c-14.4,1-30.5-13.7-32-29.3c-1.7-18.1,9.5-31.9,26.3-32.5c15.8-0.6,32.5,13.1,33.5,27.6
	C3316.9,2646.5,3300.9,2666.2,3288.1,2667.1z"/>
<path d="M3406.1,2457c0.9,15.9-12.1,34.4-25,35.7c-15.8,1.5-33.9-12.6-33.8-26.4c0.1-15.8,14-32.6,27.7-33.7
	C3391.1,2431.3,3405.3,2442.5,3406.1,2457z"/>
<path d="M617.3,2650.3c-18.3,0.1-32.5-13.4-32.6-30.9c0-15.6,9.3-25.3,24.6-25.7c18-0.4,34.6,13.3,35.1,29.1
	C645,2638.6,633.5,2650.2,617.3,2650.3z"/>
<path d="M3231.8,2743.4c-0.3,18-14.2,34.8-29.1,35.2c-15.3,0.4-27.3-11.9-26.9-27.6c0.5-18,15-33.4,31-32.9
	C3222,2718.6,3232.1,2728.8,3231.8,2743.4z"/>
<path d="M1085.6,3054c0.8-19.5,12.2-31.5,28.5-29.8c14.8,1.5,28.7,15,28.8,28c0.2,16.2-16.5,32.1-32.9,31.6
	C1094.2,3083.3,1084.9,3072,1085.6,3054z"/>
<path d="M1006.9,3096.9c14-0.5,29.3,12.4,30.4,25.7c1.1,12.5-15.9,33-28,33.7c-12.4,0.7-29.3-17.1-29.8-31.5
	C979.1,3109.8,991.2,3097.4,1006.9,3096.9z"/>
<path d="M530.2,2517.9c-0.2-19.4,10.4-32.6,25.8-32.3c15.7,0.3,30,14.3,30.3,29.7c0.3,16.9-12.1,29.5-29.3,29.5
	C540.3,2544.9,530.3,2534.9,530.2,2517.9z"/>
<path d="M702.1,2463.1c0.5,17.4-9.5,29.8-24.7,30.3c-14.6,0.6-29.4-12.3-30.3-26.4c-1-15.8,13.4-32.4,28.2-32.7
	C690.2,2434.1,701.6,2446.4,702.1,2463.1z"/>
<path d="M1254.6,3225.1c-15.4-7.7-32.3-14.3-26.8-36c3.4-13.3,11.8-27.5,27.1-24.3c9.8,2.1,22.2,13,25.2,22.5
	C1286.2,3207,1270.7,3216.9,1254.6,3225.1z"/>
<path d="M3194.1,2903.7c-11.5,0-25.4-14.8-25.7-27.3c-0.3-15,15.1-31.1,29.8-31.2c14.9-0.1,25.5,10.7,25.1,25.8
	C3222.9,2886,3207.2,2903.7,3194.1,2903.7z"/>
<path d="M1507.9,3281.3c0.1,15.5-9.4,26-24.2,26.5c-17.5,0.6-28.7-9.6-28.5-25.9c0.2-15.9,12.3-29.7,26.4-29.8
	C1496.3,3251.9,1507.8,3264.7,1507.9,3281.3z"/>
<path d="M1114.7,3199.4c-0.4-13.3,14.2-28.9,27.3-29c13.3-0.1,27,11.5,28.1,23.8c1.3,14.2-11.6,30-24.9,30.8
	C1130.8,3225.8,1115.1,3212.6,1114.7,3199.4z"/>
<path d="M2608.2,1082.9c4.4,2.9,16.8,8.3,25.1,17.4c10.5,11.5,5.8,26.1-2,37.5c-14.9,21.8-34.5,38-60.8,45.1
	c-14.7,4-26.6-0.4-36.1-11.6c-9.5-11.3-11.1-23.4-4.9-37.5C2542.1,1106.1,2573.1,1082.8,2608.2,1082.9z"/>
<path d="M2693.3,1247.2c-1.8,17.8-8.9,33.4-28.2,40.6c-8.4,3.1-16.9,5.9-25.6,8c-26,6.3-53-13.5-52.9-39.8c0-6.9,4.2-15.5,9.3-20.2
	c18.8-17.6,41.8-25.8,67.7-23.5C2683,1214,2693.7,1226.6,2693.3,1247.2z"/>
<path d="M2414,1281.9c-26-0.1-39.6-19.5-32.5-46.3c5.8-22.3,38.3-47,61.2-46.5c28.5,0.6,43.5,20.7,35.6,47.8
	C2470.1,1264.8,2445.5,1282.1,2414,1281.9z"/>
</svg>
