<?xml version="1.0" encoding="utf-8"?>
<!-- Generator: Adobe Illustrator 24.3.0, SVG Export Plug-In . SVG Version: 6.00 Build 0)  -->
<svg version="1.1" id="Layer_1" xmlns="http://www.w3.org/2000/svg" xmlns:xlink="http://www.w3.org/1999/xlink" x="0px" y="0px"
	 viewBox="0 0 4000 4000" style="enable-background:new 0 0 4000 4000;" xml:space="preserve">
<path d="M1739.1,539.5c8.4-17.1,14.4-29.3,20.4-41.5c54.7-110.9,146.2-160.9,267.3-156.6c86.3,3,163.9,31.4,225.2,95.1
	c13,13.5,25.3,12.2,40.3,7.1c107.4-36.8,208.1-19.1,301.8,40.8c25.5,16.3,48.3,38.8,67.7,62.3c15.8,19.1,30.5,26.8,55.2,22.5
	c102.9-17.7,194.6,13.3,280,68.3c38.4,24.7,68.1,57.4,86.2,100c3.5,8.4,8.1,16.3,13.3,26.8c9.5,0,19.5-0.1,29.5,0
	c135.4,1.5,248,49.5,327.2,162.9c14.9,21.4,25.8,45.9,36,70.1c7.1,16.8,16.9,24.4,35.1,27.3c59.7,9.4,114.1,33.7,164.4,66.5
	c148,96.7,183.3,295.3,79.3,441.4c-29,40.8-64.7,74.5-109,97.9c-21.7,11.5-29.7,27.3-32.1,51.5c-11.2,115.1-20.9,230.5-37.6,344.9
	c-33.3,227.8-72.4,454.7-131.5,677.6c-10.8,40.7-27.1,80.2-43.4,119.2c-18.5,44.3-50.6,76.3-97.2,91.2
	c-76.3,24.3-152.6,48.9-229.5,71.3c-249.6,72.7-501.8,135.4-755.3,192.5c-221,49.8-443.1,95.3-665.7,138.1
	c-200,38.5-400.7,74.5-602.1,104.6c-201.5,30.1-404.2,52.2-606.5,76.1c-52.2,6.2-105.1,6.5-157.7,8c-17,0.5-34.4-2-51-5.7
	c-58-13-94.1-59.2-94.4-118.9c-0.1-31.5,6.1-61.6,20.8-89.5c6.8-12.9,8.1-24.8,5-39.3c-15.9-75.3-24.7-151.5-24.8-228.5
	c-0.1-107.7,2.7-215.5,0.3-323.1c-1.6-70.9-9.9-141.6-15.9-212.4c-3.1-36.4-9.4-72.6-10.9-109c-0.8-19.9,0.9-42.4,9.7-59.6
	c14.4-28.2,32.2-56.2,54.3-78.6c81.3-82.3,164.2-163,247.9-242.9c165-157.4,329.7-315.1,497.3-469.7c39.3-36.3,60.3-73,67.2-126.7
	c11.3-88.6,58.3-160.8,130.7-214.1c17.4-12.8,26.4-26.9,29.2-47.3c16.6-124.1,89.3-202.1,203.1-245.6c14.5-5.5,23.1-13.6,26.5-28.3
	c15.2-65.7,57.9-110.1,112.1-146.1c30.5-20.2,62.2-39.7,81.3-72.6c7.9-13.7,14.8-28.4,19.6-43.5c5.5-17.3,1.8-34-11.1-47.9
	c-3.1-3.4-6.4-6.6-9.2-10.2c-10.1-12.9-20-25.8-9.4-43.3c10-16.6,25.9-17,42.4-15.3c32.7,3.4,61.5,17.1,89.1,33.8
	C1718.9,526.3,1727.2,531.9,1739.1,539.5z M3367.8,1785.7c-10.5,2.6-19.3,4.4-27.8,6.9c-71.3,21-141.7,46.4-214.1,62.6
	c-255.8,57.2-511.7,113.5-768.5,165.8c-253.4,51.6-507.9,97.8-762,146.3c-278.8,53.2-557.7,105.6-836.3,159.6
	c-147.2,28.5-293.7,60.3-440.7,89.6c-39,7.8-78.7,12-120.1,18.2c0,9.5-0.6,18.4,0.1,27.3c4.3,58.3,11.1,116.4,12.8,174.8
	c2.9,100.8,2.9,201.6,3.7,302.4c0.8,99.9,8.8,199.1,26.4,297.4c1.5,8.6,5.1,16.9,7.8,25.5c6.5,0.6,11,1.6,15.5,1.4
	c166.1-8.3,330.5-31,494.6-56c166.3-25.3,332.6-51.3,498.6-78.8c168.2-27.9,336.3-56.7,504-87.5c132.8-24.3,264.8-52.9,397.5-78.3
	c201.3-38.5,401.3-82.6,598.5-138.3c126.6-35.8,251.4-77.6,377.3-115.9c50.9-15.5,81.5-48.4,93.6-99.6
	c11.9-50.1,24.9-99.9,35.9-150.2c45.1-207.1,84.2-415.1,103.1-626.5C3368.9,1817.8,3367.8,1803.1,3367.8,1785.7z M2817.8,1211.8
	c0-9.2,1.2-16.1-0.2-22.5c-9.2-42.9,0.2-84.4,10-125.6c3.1-13.1,9.6-25.8,16.5-37.5c8.4-14.3,22.1-14.2,36.3-9.1
	c15.3,5.4,17.3,17,14,30.5c-2.1,8.9-5.9,17.3-8.4,26.1c-31.4,107.6,2.8,244.1,140.3,299.4c27.8,11.2,56.6,23.3,90.5,21.6
	c1.9-15.2,3.9-28.7,5.2-42.1c4.1-42.6,15-83.4,32.7-122.2c6.8-15,16-28.5,36.2-24.9c25.9,4.5,34.1,21.6,21.3,48.3
	c-26.5,55.4-36.2,112.8-25.5,173.7c16.6,94.5,76,156.6,153.7,204.9c5.9,3.6,14.1,3.6,24.4,6c-4.5-30.7-9.3-57.6-12.3-84.7
	c-8.5-74.8,2.7-146.5,38.2-213.1c32.8-61.5,83.8-98.7,153.9-108.1c49.9-6.6,96.8,17.2,124.2,62.7c27,44.9,19.4,87.8-7.5,129.1
	c-5.4,8.3-13.5,17.7-22.2,20.4c-9.5,2.9-22.5,1.2-31.5-3.3c-12.1-6.1-11.2-18.6-5.6-30.1c5.5-11.3,12.4-22.1,16.6-33.9
	c17.3-48.3-14-89.7-64.6-85.5c-11.2,0.9-22.6,4-33,8.3c-34.3,14.1-58,40.3-76.2,71.7c-22.4,38.5-31.5,80.7-33.6,124.9
	c-2.6,55.7,9.2,109.4,23.3,162.6c5.8,21.8,7.1,43.2-2.7,63.8c-8.2,17.5-8.6,35-5.7,53.6c1.9,12.3,2.5,25.2,1.5,37.6
	c-4.2,50.2-6.1,100.9-14.5,150.4c-28.7,170.5-58.4,340.9-90.5,510.8c-11.4,60.5-28.7,120.2-47.2,179.1
	c-17.6,55.9-57,92.7-113.3,110.9c-89.3,28.9-177.7,60.8-267.8,87c-307,89.2-619.7,153.9-933.4,214.1
	c-136,26.1-272.3,50.2-408.6,74.6c-120.5,21.5-241,43.5-361.9,62.9c-159.3,25.5-318.9,49.8-478.7,72.3
	c-105.4,14.9-211.2,27-317,38.1c-47.7,5-96,4.4-144.1,6c-25.1,0.8-26.1,1.3-32,25.9c-1.3,5.6-2.8,11.1-3.6,16.8
	c-5.8,39.5,12.5,66.8,52,75.7c15.5,3.5,31.9,5.7,47.6,4.8c74.3-4.3,148.8-7.3,222.7-15.7c133.1-15.1,266.2-31.1,398.6-51.3
	c207.1-31.6,414-64.7,620.2-101.4c150.9-26.9,300.8-59.9,450.9-91.2c344-71.8,686-152.1,1024.1-248.6
	c84.7-24.2,168.7-50.6,253.2-75.8c44-13.1,73.5-41.1,87.2-84.9c15.7-50.2,34.3-99.9,45-151.2c34-163.6,67-327.5,96.4-492
	c29-162.3,53-325.6,54.3-491.1c0.1-16.4,5.8-29,19.2-37.9c15.2-10.2,31.5-18.9,46-30c23.6-18,48.2-35.4,68.6-56.6
	c92.8-96.4,91.4-292.4-50.1-376.5c-45.9-27.3-94.3-45.9-147-54.8c-76.9-13-148.2-3.2-211.4,45.6c-3.6,2.8-7.5,5.4-11.6,7.4
	c-10,4.7-19.8,5.9-28.1-3.6c-8.7-10-15.1-20.9-7.1-34.1c3.5-5.7,8.4-10.9,13.6-15.2c38.7-32.1,82.3-53.6,132.4-60.9
	c11.8-1.7,23.4-5.4,36.8-8.5c-3.1-9-4.5-14.6-6.9-19.6c-4.5-9.3-8.9-18.6-14.4-27.3c-50.5-79.5-124.7-123.7-215.8-138.4
	c-87.8-14.2-166,6.9-227.8,74.9c-5.4,5.9-10.9,11.8-16.9,17.1c-10.1,8.9-22.6,9.4-30.8,0c-6.7-7.6-11.3-19.6-11.2-29.6
	c0-7.8,7.9-16.1,13.3-23.3c25.1-33.8,58-58.3,94.7-78c8.7-4.7,16.9-10.1,26.1-15.6c-23.8-44.3-54-78.4-94.9-101.4
	c-86.7-48.8-176.9-67.3-273.1-27.7c-42.6,17.6-77.1,44.6-104.2,81.3c-9.6,13-20.7,17.4-35.5,9.6c-14.1-7.4-19.2-21.3-13.2-38.2
	c2.2-6.4,5.5-13,10.2-17.7c21.6-21.9,43.5-43.5,65.9-64.6c8.1-7.6,17.8-13.5,28.7-21.6c-6.7-9.4-11.1-17.2-17-23.6
	c-34.4-37.4-78.2-59.4-126.1-73.5c-111-32.7-259.9,11.2-307.9,119.4c-1.4,3.1-3.7,5.8-5.4,8.8c-5.8,10.1-15.1,16.7-25.4,10.5
	c-8.8-5.3-17.5-14.5-21-23.9c-2.7-7.2,1.8-17.8,4.8-26.2c11.9-33.1,33.5-59.7,58.8-83.5c8.1-7.7,16.2-15.3,26.9-25.4
	c-12.6-11-21.8-21.1-32.9-28.3c-45.1-29.2-94.3-47.1-148.5-48.1c-103.8-1.9-189.3,43.7-229,151.7c-6.4,17.4-6.8,32.2,4.3,48.4
	c22.6,33.1,42.4,68.1,65.6,100.8c13.7,19.4,29.5,38.7,48.2,52.8c43.6,33,96.9,44.4,148,63.1c3.6-20.3,5.2-37.3,9.9-53.5
	c4.1-14.2,14.6-23.2,31-21.5c15.1,1.6,25.4,12.8,26.7,30.8c0.7,10.2,0,20.7-1.8,30.8c-4.9,26.8,1.9,45,28.5,58.3
	c44.6,22.3,77.1,59,93.9,105.5c13.5,37.6,38.9,54.3,75,61.1c10.1,1.9,20,5.1,30.2,6.4c29.2,3.5,58.5,6.5,90,1
	c-2.2-13.6-4-23.6-5.4-33.7c-6.3-46.1-3.6-91.4,11.3-135.7c4.8-14.3,13-24.6,30-21.9c16.9,2.6,26.3,15.4,25.4,34.7
	c-0.3,6.8-2.3,13.5-2.9,20.4c-2.2,23.9-6.2,47.8-5.8,71.7c1.6,89.3,44.6,153.8,121,198c52,30.1,109.5,38.8,167.8,44.7
	C2799.2,1215.8,2808.1,1213,2817.8,1211.8z M3363.2,1720.8c0.3-3.5,0.6-7,0.9-10.6c-10.6-5.7-21.1-11.7-31.9-17.1
	c-89.4-44.1-160.6-106.3-194-203.1c-8.5-24.5-20.5-32.6-45.8-35.5c-110.8-12.6-196.3-64.9-247.4-167.1c-2.5-5-5.7-9.8-8.6-14.8
	c-13.1,0-25.6-0.1-38,0c-129.2,1.2-239-37.6-310.9-152.7c-10.2-16.4-23.8-17.3-40.9-17.9c-42.2-1.3-84.3-5-126.3-8.4
	c-13.3-1.1-26.4-4.6-42.7-7.6c-4.4,25.4-8.4,48.4-11.8,68.2c49.2,28.4,95.6,53.2,140,81.2c47.2,29.8,85.3,69.6,111.6,119.2
	c27.8,52.2,47.4,106.7,37.7,167.7c-16.7,105.9-76.2,179-170.8,225.9c-52.8,26.2-108.9,42.6-166.4,53.1
	c-180.2,32.9-361,62.8-544.2,73.3c-124.3,7.1-247.3-0.3-367.3-36.8c-138-42-243.6-120.1-290.8-262.8c-2-6.2-6.1-11.7-11.6-22
	c-18.2,15.7-34.9,29.1-50.4,43.7c-210.5,199.3-421.1,398.5-631.1,598.3c-34.8,33.1-67.8,68.3-100.3,103.6
	c-10.6,11.5-19.4,25.9-25.3,40.4c-8.3,20.5,0.2,30.9,22,29.2c17.1-1.4,34.2-3.5,51-7c94.1-19.4,187.9-40.6,282.3-58.8
	c249.4-48.1,499.1-94.6,748.6-142.3c131.5-25.1,262.8-51.4,394.2-76.8c227-43.7,454.2-86.3,681-130.9
	c148.2-29.2,296-60.5,443.7-91.9c157.8-33.6,316.1-65.2,470.2-114.2C3314.6,1738.8,3338.8,1729.4,3363.2,1720.8z M1611.5,1812.6
	c0.5-2.4,0.9-4.8,1.4-7.2c-5.1-1.9-10.1-3.7-15.1-5.7c-43.6-17.3-87.5-34.1-130.7-52.4c-13.5-5.7-26.4-14-37.8-23.3
	c-12.3-10-12.4-23.8-4.8-37.4c7.5-13.4,19.1-10.3,30.1-6.1c16.1,6.1,32,12.4,47.7,19.4c101.1,45,206.7,74.3,315.7,92
	c36.4,5.9,72.7,4.5,109.3-2.3c75.4-13.9,151.3-25.4,226.9-38.4c31.1-5.3,62-11.9,94.8-18.3c-6.6-59.7-21.5-110.1-66.7-146.3
	c-12.9-10.3-18.3-19.7-7.9-34.4c10.3-14.5,21.5-17.4,38.4-6.3c11.3,7.4,21.7,16.9,30.6,27.2c27.4,31.9,43.6,69.6,55,109.6
	c2.7,9.4,6,18.7,9.9,30.9c25.6-11.7,49.2-20.6,70.9-32.7c113.2-62.9,149.3-191.6,84.4-303.7c-13-22.5-29.6-44.1-48.5-61.9
	c-77.2-72.9-170.8-114.6-274.1-133.3c-105.5-19.1-212.2-15.3-318.8-10.6c-72,3.2-143.6,13.9-216.1,4.6
	c-111.8-14.3-191.6-85.2-216.4-195.4c-1.9-8.5-5.1-16.7-7.6-24.8c-93,23-176.1,138.8-162.1,231.3c13,85.6,51,158.6,130.1,204.1
	c92.2,53.1,190.6,59.8,292.8,41.8c63.5-11.1,123.6-32.9,183.7-55.7c89.8-34.1,179.3-69.6,275.5-83.4c72.1-10.3,143.7-15.6,213.9,9.4
	c13.6,4.9,27.1,12.4,38,21.8c5.2,4.5,7.8,17.8,5,24.3c-2.5,5.9-13.8,10.5-21.6,11c-9.9,0.6-20.2-2.8-30.1-5.5
	c-55-14.7-110.4-17.7-166.9-10.5c-68.6,8.8-134.3,28.9-199,52c-60.3,21.5-118.5,49.3-179.1,69.7c-101.2,34.1-205,48.4-311.2,24.8
	c-93.6-20.8-174-63-231.4-142.6c-5.1-7.1-11.9-12.9-18.7-20.2c-3.5,4.5-6.5,6.8-7.1,9.6c-1.7,7.8-3.2,15.8-3.2,23.7
	c-0.4,78.9,28.8,145,87.3,197.8c16.1,14.6,33.8,27.4,50.4,41.4c15.4,13.1,18,25.2,9.1,38.5c-10.5,15.7-23.9,10.1-36.4,3.9
	c-11.2-5.5-23.5-10.8-32.2-19.3c-27-26.3-57.2-51-77.6-81.9c-54.5-82.4-76.2-171-33.4-266.8c3.5-7.7,3.8-16.9,6.2-28.4
	c-26.2,4.8-38,22-50,37.9c-82.3,109.7-75.2,268.1,14.4,372.2c63.5,73.8,145.7,113.8,237.9,134.8
	C1446.8,1810,1529,1816,1611.5,1812.6z M1706.1,592.2c0.8,13-0.3,19,1.6,23.9c10.7,27.7,10.9,55.8,5.2,84.5
	c-8.2,41.5-17,82.9-24.2,124.6c-17.4,99.8,13.7,180.3,97.6,239c12.2,8.5,25.6,15.3,37.3,24.4c20.1,15.6,42.7,19.7,67.5,20.3
	c73.2,1.5,146.4,4.4,219.6,6.4c6.3,0.2,12.7-1.9,22-3.3c-13.3-38.2-25.9-74.2-38.4-110.1c33.2-12.5,41.2-11.2,57.7,9
	c20.5,25.1,28.9,54.2,26.9,86.4c-0.7,11.1-1.4,22.2-2.1,33.1c30.6,3.8,40-3.8,43.6-33.2c9-73.7-30.9-152.5-99.6-188.7
	c-33.2-17.5-68.6-31.9-104.6-42.6c-96.7-28.7-171.3-83.8-222.6-171.5c-16-27.4-38.2-51.3-58.3-76.2
	C1728.5,609.8,1719.1,603.6,1706.1,592.2z M1757.8,1119.2c-28.4-30.1-55.4-52.4-74.6-80.1c-55.2-79.3-64.7-166.7-38.1-259
	c8.5-29.6,14.4-60,20.5-90.3c2.1-10.4,4-22-7.6-34.2c-28.9,56.9-78.5,88.1-126,122.2c-21.1,15.2-39.5,34.8-56.7,54.5
	c-18.4,21.1-27.8,47-31.3,75c-12.1,97.6,49.8,184.9,146.2,206.4C1644.5,1125.9,1698.9,1119.2,1757.8,1119.2z"/>
<path d="M1922.6,1496.5c-20.6,0-41.2,0-61.8,0c-14.3,0-23.8-6.3-27.8-20.5c-3.8-13.3-0.4-22.7,13.3-26.7c6.6-1.9,13.4-3.1,20.2-3.7
	c80.6-7.7,160-2.3,237.8,21.6c7.6,2.3,15.9,4.6,21.9,9.4c6.5,5.2,16.2,15.9,14.5,19.7c-4.1,9.2-13.1,20.2-22,22.3
	c-11.2,2.7-24.6-1.6-36.6-4.9C2029.9,1499.3,1976.8,1492.5,1922.6,1496.5z"/>
<path d="M1367.1,1039.7c-2.5,14.6-3.6,24.9-6.2,34.8c-14.3,54.8-3.7,106.4,20.2,156.2c6.4,13.4,15.4,26.1,18.8,40.1
	c1.9,7.7-3.2,20.1-9.4,25.8c-4.6,4.2-17.2,3.3-24.1,0.1c-7.7-3.6-14.6-11.4-19.1-19c-37.5-63.9-57.9-131.4-40.6-206.1
	c4.2-18.2,11.4-35.3,28.5-44.9c6.2-3.5,16.3-5,22.3-2.3C1363,1026.8,1365.2,1036.3,1367.1,1039.7z"/>
<path d="M1476.4,1397.4c-15.2-9.8-30.7-17-42.2-28.3c-5.4-5.2-7.3-21.2-3.2-27.1c5.2-7.6,19.6-15.3,27.3-13.2
	c14.5,3.9,28.6,13.2,39.6,23.7c5.5,5.2,7.3,19.8,4.1,27.1C1498.8,1386.9,1487.1,1390.4,1476.4,1397.4z"/>
<path d="M2085.1,987.1c-21.2,3.9-37.7-1.7-46-20.8c-6.6-15.3,4.3-27.7,15.9-33.6c8.3-4.2,24.7-4.1,30.8,1.4
	C2103.5,950.4,2091.7,969,2085.1,987.1z"/>
</svg>
