<?xml version="1.0" encoding="utf-8"?>
<!-- Generator: Adobe Illustrator 24.3.0, SVG Export Plug-In . SVG Version: 6.00 Build 0)  -->
<svg version="1.1" id="Layer_1" xmlns="http://www.w3.org/2000/svg" xmlns:xlink="http://www.w3.org/1999/xlink" x="0px" y="0px"
	 viewBox="0 0 4000 4000" style="enable-background:new 0 0 4000 4000;" xml:space="preserve">
<path d="M648.2,2726.4C541,2691.5,465.6,2625,427.7,2519.8c-37.5-104.1-26.8-204.6,28.3-302.3c-12-12.5-23-23.4-33.3-34.8
	C320.5,2068.2,298,1938.8,352.2,1796c17-44.7,45.4-82,82.8-112.2c22-17.8,21.8-18,9.8-44.1c-53.9-117.6-44.8-230.6,27.5-337.6
	c34.8-51.5,83.6-86.5,140.6-110.4c11.3-4.7,22.7-9.2,36-14.5c-19.4-134.9,9.8-256.8,99.7-359.7c89.9-103,207.5-143,346.6-139.9
	c36.4-128.2,112-228.2,238.5-282.5c125-53.6,249.8-53.1,374,13.2c88.3-111.1,204.8-163.8,345.9-156.6
	c140.8,7.2,250.2,74.7,334.3,189.1c125.6-62.8,250.8-62.7,375.2-1.1c125,61.9,192.3,166.3,217.5,304C3121,748.1,3243.1,794,3331,909
	c87,113.9,111.4,241.6,74.7,379.7c12,8.1,20.9,14.7,30.3,20.5c110.3,67.8,168.6,170.4,193.2,293.8c21.4,107.6-3.4,206.5-64,297.1
	c-17.2,25.7-17,25.4,1.7,52.4c110.1,159.1,99.8,369.3-14.8,513.8c-35.3,44.5-78.7,79.3-130.9,102.5c-8.1,3.6-16,7.7-27.1,13
	c0.7,10.1,0.7,20.9,2.2,31.6c18.8,135.6-17.7,255.2-107.2,357.6c-76.5,87.5-175.1,128.9-291.2,128.7c-12.2,0-24.4,0-37.6,0
	c-3,10.8-5.7,19.2-7.5,27.7c-30.8,142-114.3,240.9-247.4,296.5c-113.4,47.4-228.8,47.6-343,1.1c-18.3-7.5-27.7-2.7-39.4,11.6
	c-68,83-155.1,136.4-261.6,150.1c-166.2,21.3-310.6-21.6-418.6-157.8c-3.4-4.3-7.3-8.2-13-14.6c-122.6,53.6-247.1,57.8-371,5.6
	c-126.1-53.1-205.9-147-236.3-284.4c-115.4,10.4-216.2-21.3-293.6-108.2C652.8,2942,628.4,2839.9,648.2,2726.4z M3002.4,3034.9
	c25.7-4.3,54.9-6.5,82.7-14.2c209.2-58.4,280.4-272.5,241.7-424.8c-15.1-59.3-15-60.1,40.9-79.8c142.9-50.6,221.9-198.2,211.4-339.9
	c-5.9-80.4-34.4-152-90.4-211.8c-29.2-31.1-28.3-40.6,1.5-73.5c30.6-33.7,52.3-72.4,65.5-115.9c50-164.1-26.9-342.2-182.8-422.9
	c-48.3-25-48.8-25.9-31.3-77.3c19.6-57.6,22.4-116,9.2-175.3c-40-180-205.4-300.5-383-282c-41.5,4.3-45.2-1.5-51.5-41.5
	c-5.7-36.3-10.5-73.8-24-107.5c-74.4-186.7-310.6-264.2-477-162.4c-41.3,25.3-52.2,21.6-78-19.4c-59.1-94-144.8-150.6-253.2-164.9
	C1952,304.4,1838.3,343,1757.7,456c-27.5,38.5-27.6,39-69.9,17.8c-3-1.5-6.1-2.9-9-4.6c-86.8-48.3-178.4-58.2-272.5-28.3
	c-129.8,41.2-218.5,123.6-247.4,261.4c-8.4,39.9-18.8,47.7-60.5,43.8C977.1,734.8,874.8,774.9,795.6,866
	c-70.4,80.9-98.5,176.7-80.5,284c2.4,14.3,7.1,28.2,9.9,42.5c5.4,26.9,1.4,33.7-24.3,42.3c-17,5.7-34.4,10.2-51,16.7
	c-118.8,46.2-185.9,154.5-170.1,274.4c6.1,46.3,25.1,87.8,49.6,127.2c18.4,29.6,16,37.5-13.4,56.7c-3.7,2.4-7.6,4.7-11.5,6.9
	c-54.3,31.3-89.6,77.8-104.2,138.1c-27.5,113.4-3,212.8,84.8,293.3c14,12.8,28.2,25.6,41.5,39.1c11.8,11.9,12.6,25.6,2.8,39.5
	c-4.5,6.4-9.2,12.7-13.4,19.3c-95.9,148-30.4,361.1,150.7,413.3c9.6,2.8,19.4,5.8,28.4,10c23.3,11,27.7,19.8,24.1,45
	c-1.8,12.2-3.2,24.4-5.7,36.5c-12.2,58.4-1.4,113.9,23.1,166.7c29.6,63.4,77.4,108.2,143.3,134.1c49.5,19.4,99.7,22.3,151.7,14.8
	c43.1-6.2,48.8,0.7,58.3,43.6c7.2,32.5,15,66,29.8,95.5c72.5,145.1,237.8,198.3,364.2,179.7c46.7-6.9,91.5-20.4,134-41.7
	c30.4-15.3,34.3-12.8,55.1,15c16,21.4,31.8,43.7,51.1,61.9c86.7,82,191.9,114.6,308.7,100.8c110.4-13.1,202.3-62.6,262.3-161
	c3.5-5.7,7.5-11.1,11.7-16.4c8.1-10.2,18.3-12.2,29.9-6.9c7.1,3.2,14,6.9,20.9,10.7c149.8,83,316.2,37.2,415.9-42.7
	c77.8-62.4,116.8-145.1,123.2-244.2c2.1-32.6,10.8-38.8,42.9-34.8C2959.1,3028.2,2978.9,3031.5,3002.4,3034.9z"/>
<path d="M1171.4,1387.3c-92.4-0.8-162.3-70.5-161.5-161c0.9-98.5,73-169.2,170.7-167.5c85.1,1.5,157.8,77.5,157.4,164.6
	C1337.6,1317.9,1266.2,1388.1,1171.4,1387.3z M1171.9,1320.8c57.9-0.3,100.1-40.4,99.9-94.8c-0.3-57.5-44-102.2-98.6-101
	c-57.7,1.3-102,47-101,103.9C1073.1,1285.8,1128.2,1326,1171.9,1320.8z"/>
<path d="M1123.5,2751.3c-83.7,0.1-151.4-65.3-152.1-147.1c-0.9-92.4,63.8-161.1,152.3-161.7c85.9-0.6,156.7,69.3,156.9,155
	C1280.6,2684.2,1212.3,2751.1,1123.5,2751.3z M1127.4,2683.9c53.3-0.6,90.4-37,89.3-87.7c-1.1-48.8-42.2-88-91.8-87.6
	c-50.9,0.4-87.8,39.4-86.3,91.1C1040.1,2650.6,1075.7,2684.4,1127.4,2683.9z"/>
<path d="M2615.4,2807.8c0.1,83.3-67,150-149.6,148.8c-78.9-1.2-146.8-66.9-143.3-143.6c4.8-106.1,74.8-150.8,149.6-151.8
	C2556.8,2659.9,2616.3,2735.9,2615.4,2807.8z M2549.1,2809c0.4-46.2-31.7-81.6-74.6-82.4c-45.8-0.9-87,38.2-87.9,83.4
	c-0.8,41.1,36.6,79.6,78.3,80.5C2510.4,2891.5,2548.7,2854.5,2549.1,2809z"/>
<path d="M2389.2,1003.4c81.5-3.1,144.3,61.6,145.6,142.5c1.3,78.1-67.7,144-149.8,145.1c-79.3,1.1-146.7-62.2-147.6-138.4
	C2236.6,1068.6,2302.6,1003.7,2389.2,1003.4z M2468.8,1146.2c-0.4-43.1-33.7-76.3-76.8-76.6c-46.7-0.4-88.5,36.3-89.4,78.4
	c-0.8,39.7,39.9,77.4,82.4,76.3C2432.4,1223.1,2469.2,1188.8,2468.8,1146.2z"/>
<path d="M3130.1,1790.3c-84.9,1.4-133.9-74.4-133.3-131.4c0.8-77.9,59.4-137.8,134.7-137.9c72.6-0.1,132.1,61.7,131.8,137
	C3263.1,1736.7,3208.6,1790.8,3130.1,1790.3z M3134.1,1723.6c37.2,0.3,64.9-28,64.9-66.2c0-36.2-29.8-68.8-63.8-69.6
	c-37-1-68.4,30-68.8,67.7C3066,1693.5,3095.6,1723.3,3134.1,1723.6z"/>
<path d="M818,2099.4c-25,0-42.9-19.1-42.7-45.6c0.1-24.1,21.6-47.9,42.9-47.5c21.8,0.5,42.1,21.3,42.7,43.9
	C861.5,2078.9,843.6,2099.4,818,2099.4z"/>
<path d="M1628.9,744.6c-27.3,0-46.4-17.1-46.5-41.7c-0.1-23,19.1-40.9,43.8-40.9c26.4,0,50.5,21.6,49.5,44.3
	C1674.7,728,1654.5,744.5,1628.9,744.6z"/>
<path d="M2912.7,1042c25,0.5,45.3,21.4,44,45.2c-1.4,24.8-18.9,41.9-43.3,42.2c-24.2,0.2-42.8-21-41.3-47
	C2873.4,1058.8,2890.7,1041.6,2912.7,1042z"/>
<path d="M1933.2,3131.9c25.2,0.7,46.6,21.4,45.6,44c-1,21.5-21.8,38.3-47.1,38c-24.7-0.2-43.8-18.7-43-41.5
	C1889.5,3149.6,1909.6,3131.3,1933.2,3131.9z"/>
<path d="M1605.7,2720.6c-23.8-1.1-42.2-20.6-41.1-43.9c0.9-21.8,22.5-42.4,44.1-42.1c22.9,0.3,41.4,20.6,40.3,44.3
	C1647.8,2702.7,1628.2,2721.6,1605.7,2720.6z"/>
<path d="M3104.2,2516.2c-23.9,0.1-39.7-15.8-39.7-39.9c0-22.9,19.7-44.9,40.7-45.5c22.7-0.7,44.4,19.4,44.6,41.2
	C3150,2495.9,3129.2,2516.1,3104.2,2516.2z"/>
</svg>
