<?xml version="1.0" encoding="utf-8"?>
<!-- Generator: Adobe Illustrator 24.3.0, SVG Export Plug-In . SVG Version: 6.00 Build 0)  -->
<svg version="1.1" id="Layer_1" xmlns="http://www.w3.org/2000/svg" xmlns:xlink="http://www.w3.org/1999/xlink" x="0px" y="0px"
	 viewBox="0 0 4000 4000" style="enable-background:new 0 0 4000 4000;" xml:space="preserve">
<path d="M2332.5,3204.4c-387.6,2.4-775.3,4.8-1162.9,7.2c-20.2,0.1-40.3,0.1-60.5,0.1c-60.5-0.1-52.9,2.3-70.1-48.1
	c-10.6-31-27.8-57.8-55.1-76.7c-72.3-49.9-172.1-17.1-201.4,65.9c-2.4,6.7-4.2,13.6-6.1,20.4c-10.9,38.8-10.8,39.8-49.4,40.1
	c-130.4,1.1-260.8,1.8-391.2,1.8c-39.7,0-45.5-6-45.9-45.7c-2-195.6-3.5-391.2-4.7-586.8c-0.3-41.6,5.3-46.8,45.5-52
	c8.2-1.1,16.6-1.1,24.8-2c48.5-5,85.1-29.4,107.9-71.7c34.3-63.7,31.5-127.4-7.3-188.8c-26.8-42.5-67.9-60.5-115.8-67.1
	c-53.9-7.4-54.5-8.4-55.1-61.6c-1.9-148.2-4-296.3-5.3-444.5c-0.6-68.2,0-69.3,59.8-103.2c28.8-16.3,58.9-30.5,89.3-43.7
	c191.2-83.1,382.8-165.3,573.7-248.9c27.2-11.9,46.6-11.3,69.8,10.1c55,50.5,127.5,55.7,190.3,18.2c37.9-22.7,58.2-54.7,53.6-100.1
	c-0.4-3.5-0.5-7.1-0.8-10.6c-4.3-55.2-4.6-55.9,47.9-77.8c143.1-59.9,286.7-118.7,429.6-179.2c26.8-11.4,44.6-4.5,62.4,15.3
	c33.2,36.8,74.4,54,124.2,46.2c64.6-10,111.5-55.1,93-131c-9.8-40.4-6.9-46.7,31.5-62.6c104-42.9,208.4-84.7,312.9-126.5
	c44-17.6,88.6-33.5,132.7-50.9c69.3-27.5,134.7-21.4,201.7,12.2c122.9,61.4,233.5,140,338.2,227.7
	c149.8,125.6,280.3,268.9,390.2,430.7c27.3,40.1,53.3,81.1,79.2,122.2c64.2,101.7,90.2,215,103.3,333
	c17.7,159.2,28.4,318.8,27.4,478.9c-0.9,155.3-0.1,310.7-8.4,465.7c-6.8,128.7-25.5,256.9-39.5,385.2c-1.8,16.4-6,32.6-10.4,48.6
	c-8.3,30.5-12.9,34.6-43.8,36.1c-39.1,1.9-78.2,3.2-117.3,3.5c-379.3,3.1-758.7,5.9-1138,8.8
	C2332.5,3203.6,2332.5,3204,2332.5,3204.4z M1309.1,1689c-319.4,0-637.6,0-959.6,0c-1.5,150.3,1.6,297.4,6.3,443.1
	c123.4,29.8,193.4,107,202.6,221.9c4.1,51-9.8,98.6-35.8,142.6c-37.1,62.6-95.4,93-163.5,103.4c0,184.2,0,364.8,0,545
	c120.6,0,236.2,0,352.4,0c4.8-12,8.3-22,12.6-31.5c33.5-73.4,91.1-114.9,171-120.1c75.3-5,136,26,179.2,88.4
	c13.3,19.1,19.3,48.8,36.8,58c19.5,10.2,48.4,2.8,73.2,2.6c361.5-3.5,722.9-7.1,1084.4-10.7c13.7-0.1,27.4-1.2,39.4-1.8
	c4-37.5,5.1-70.8,11.4-103c30-154.4,202.6-240.7,345.1-174c99.5,46.6,144.1,128.8,154.6,233.8c1.3,12.5,2.3,25,3.7,39.9
	c250.6-0.2,497.8-0.5,743.7-6.7c69.9-239.1,73.4-1240.8,6.5-1453.7c-178.5,0-356.8,0-534.6,0c-26.7,91.1-83.1,146.2-173.7,155.8
	c-112.1,11.9-184.2-44.6-221.6-148.4c-294.1,1.9-585.4,3.7-877.3,5.6c-26.5,135.4-100.7,212.1-239.2,209.8
	C1419.9,1887.1,1351.3,1822.9,1309.1,1689z M465.9,1609.7c0.4,2.7,0.8,5.3,1.2,8c5.4,0.6,10.8,1.7,16.3,1.7
	c180.2-0.2,360.4-0.4,540.5-0.8c88.9-0.2,177.8-1.1,266.7-0.9c20.4,0,34.2-5.8,47.8-23.1c14.8-18.9,35.2-35.8,56.6-46.8
	c82.2-42.3,168-45.3,255-15.6c30.6,10.5,61.3,24.3,77.2,53.5c12.8,23.7,29.8,25.5,52.4,25.3c267.9-2.8,535.8-5.1,803.6-7.5
	c17.8-0.2,35.6-0.7,53.3-0.4c13.1,0.2,22.9-4.3,28.7-16.5c12.6-26.5,36.3-40.3,61.6-51c48.8-20.8,100.2-29.7,152.9-23.1
	c54,6.8,104.1,24.5,139.8,68.9c11.6,14.4,26.2,13.8,41.7,13.6c152.9-1.6,305.8-3.2,458.7-4.9c10.1-0.1,20.2-1.6,34.4-2.7
	c-7.1-16.2-11.3-29.7-18.5-41.4c-42.5-69.7-82.4-141.4-129.2-208.1c-148.8-211.8-332-389.2-548.6-530.9
	c-55.2-36.1-116.1-63.6-174.8-94.4c-27.8-14.6-56.9-14.5-86.2-3.9c-11.1,4-22.4,7.8-33.4,12.1c-126.6,50.2-252.9,101.1-380,150.2
	c-25.9,10-39,20.1-39.8,52.1c-1.6,67-30.8,122.7-95,150.7c-75.1,32.8-148.4,27.2-213.9-25.4c-17.2-13.8-30.8-16-51.1-7.6
	c-123.6,51.3-247.7,101.3-371.6,151.8c-27.2,11.1-27.4,11.1-27.4,41.5c0.1,47.2-17.2,86.6-48,122.6
	c-71.8,83.8-224.1,79.9-289.3,23.4c-13.4-11.6-25.1-13.4-41.7-6.2c-111.8,49-224,96.7-335.9,145.4
	C601.9,1548.8,534,1579.5,465.9,1609.7z M2748.7,3122.6c6.4-107.7-45.4-173.2-105.4-202.4c-65.7-32.1-144-23.2-198.7,25.3
	c-54.9,48.7-71.5,110.3-61.2,180.5C2423.1,3135.1,2705.9,3132.2,2748.7,3122.6z M1535.1,1819c82.6,0.1,147.5-56,157.7-134.8
	c4.2-32.3-6.7-54.7-34.5-71.2c-31.6-18.8-66.5-25.2-102-27.7c-48.1-3.3-94.6,4.5-137.2,28.8c-33.3,19-44,41.7-37.5,76.3
	C1395.3,1763.7,1461.1,1818.9,1535.1,1819z M2833.8,1751.8c66.5,0,120.1-39.3,132-96.6c6.5-31.3,2-45-27.1-57
	c-68.1-28.1-135.9-29.4-200.2,11.9c-24.2,15.6-29,30.7-20.8,57.3C2732.1,1713.7,2784.5,1751.9,2833.8,1751.8z"/>
<path d="M3316.2,2308.4c-113.9-1.3-201.2-90.6-200.2-204.7c1-119.7,91.8-210.2,210.3-206.1c124,4.3,200.6,102.7,202.3,214.2
	C3530.3,2223.1,3434.1,2309.7,3316.2,2308.4z M3317.6,2239.6c79.3-0.8,140.3-59.8,139.7-134.9c-0.7-73.7-66.4-138.9-139.1-137.7
	c-75.6,1.2-133,63.7-132.7,142.2C3185.7,2177.2,3250.9,2244.4,3317.6,2239.6z"/>
<path d="M2402.2,2325.1c-1,84.3-66.2,146-152.1,144c-71.8-1.7-137.6-73-135.7-147.1c2-78.8,69.6-142.5,149.2-140.7
	C2337.7,2182.8,2403.1,2250.7,2402.2,2325.1z"/>
<path d="M1283.2,2466c-80.8-0.5-140.1-58.7-140.3-137.9c-0.2-81.3,59.9-140.9,140-143c76.3-2,144.9,67.8,144.1,141.1
	C1426,2406.5,1364,2466.5,1283.2,2466z"/>
<path d="M889.8,2116.8c-93-1.8-164.4-73.3-162-163.4c2.6-100.5,81-170,171.3-166.1c83,3.5,158.2,81.1,157.9,166.9
	C1056.5,2045.1,981,2118.6,889.8,2116.8z M889.8,2046c54.2-0.1,96.1-41,95.9-93.5c-0.3-50.6-46.6-97.5-95.3-96.4
	c-51.7,1.2-91,44.5-90.2,99.3C801,2007.7,839,2046.1,889.8,2046z"/>
<path d="M1658.1,2492.7c42.2-10.2,79.4-20.6,117.2-27.8c39.3-7.5,71.5,18.1,107,30.9c14.1-24.3,12.8-48.3,15.7-71.3
	c1.7-12.8,2.5-25.9,5.4-38.5c3.4-14.9,14.5-20.9,29.3-19.9c14.5,1,25,7.9,28.1,22.5c1.7,8,2.7,16.8,1.2,24.6
	c-8,40.5-13,82.1-26.3,120.9c-25.9,76.2-84.8,120.7-158.7,120.2c-76.4-0.5-133.2-37.5-167.2-106.2c-20.8-41.9-28.5-87.5-29.9-134.1
	c-0.2-8.1,0.9-16.7,3.7-24.2c5-13.9,16.6-19.2,30.8-19.5c14.5-0.4,22,8.7,25,20.8c4,16,5.9,32.5,8.8,48.8
	C1651.4,2457.3,1654.7,2474.6,1658.1,2492.7z M1851.7,2552.4c-25.8-26-46.2-32.2-93-25.7c-23.8,3.3-49.1,5.9-61.1,32.2
	C1743.3,2601.9,1826,2597.8,1851.7,2552.4z"/>
<path d="M3267.3,2655.4c84.6-0.1,152.3,68.3,152.5,154.2c0.3,81.5-64.3,145.3-147.5,145.8c-82.9,0.4-150.9-65.5-151.5-146.6
	C3120.3,2719.8,3181.7,2655.5,3267.3,2655.4z M3350.7,2810.7c0.1-48-35-84.3-81.5-84.1c-44.8,0.1-77,32.9-77.5,78.9
	c-0.5,44,36.5,80.3,81.5,80C3316.7,2885.3,3350.6,2852.5,3350.7,2810.7z"/>
<path d="M707.6,2926.9c-61.8,0.1-108.3-45.4-109.2-106.9c-0.9-65,47.1-116.5,108.5-116.5c66-0.1,111.9,45.3,112.6,111.2
	C820.3,2879.1,772.7,2926.8,707.6,2926.9z M748.8,2817.3c0.5-23.8-13.3-40-34.8-41.1c-23.2-1.1-43,18.4-42.9,42.3
	c0.2,21.1,14.7,36.1,35.5,36.6C731.5,2855.7,748.3,2840.6,748.8,2817.3z"/>
<path d="M2403.7,2007.2c0.9-59.3,40.1-99,97.6-98.8c55.6,0.2,101.5,46.5,100.9,101.9c-0.6,56.9-42.5,98.6-98.9,98.4
	C2444.8,2108.4,2402.8,2065.5,2403.7,2007.2z M2532.7,2009.8c0.1-15.2-13.5-28.1-29.7-28.1c-15,0-26.9,11-27.7,25.6
	c-0.9,17,10.9,30.2,26.6,29.6C2518.7,2036.4,2532.6,2024.1,2532.7,2009.8z"/>
<path d="M2444.5,1438.6c-85.5,0-157.9-70.5-159-154.8c-1.3-96.6,65.5-163.7,161.8-164.1c91.5-0.4,156.1,68.7,158.7,157.5
	C2608.6,1369.9,2537.8,1438.6,2444.5,1438.6z M2443.6,1365.5c54.3,0.1,93.3-34.7,94.5-84.5c1.2-49.5-41.8-91.2-93.6-90.7
	c-50.1,0.4-91.8,41.1-91.5,89.5C2353.3,1326.2,2394.7,1365.4,2443.6,1365.5z"/>
<path d="M2687.2,1037.1c-56.9,0.6-104.3-44.4-104.1-98.9c0.1-61.3,44.5-109.4,101.8-110.5c58.3-1.1,107.7,46.8,107.5,104.2
	C2792.2,993.9,2749.6,1036.5,2687.2,1037.1z M2688.1,965.8c18.9,0.5,33.2-11.2,34.4-28.4c1.3-19-13.1-36-30.8-36.4
	c-18.2-0.4-36.1,14.5-37.4,31.2C2653,949.6,2668.8,965.2,2688.1,965.8z"/>
</svg>
