<?xml version="1.0" encoding="utf-8"?>
<!-- Generator: Adobe Illustrator 24.3.0, SVG Export Plug-In . SVG Version: 6.00 Build 0)  -->
<svg version="1.1" id="Layer_1" xmlns="http://www.w3.org/2000/svg" xmlns:xlink="http://www.w3.org/1999/xlink" x="0px" y="0px"
	 viewBox="0 0 4000 4000" style="enable-background:new 0 0 4000 4000;" xml:space="preserve">
<path d="M1996,3701.1c-157.7-3-315.5-4.2-473.2-9.6c-113.3-3.9-226.4-12.9-339.6-20.5c-57.6-3.8-115-9-172.5-14.5
	c-37.4-3.6-72-15.7-104.1-36.2c-17.2-11-36.5-18.9-55.1-27.7c-30.8-14.4-62.8-26.5-92.5-42.8c-85.3-46.7-137.5-119-160.8-213
	c-19-76.5-25.1-154.5-30-232.7c-16.2-259.6-15-519.4-8.1-779.2c5.2-197.9,12-395.7,17.3-593.6c0.9-31.8-2.1-63.8-3.6-95.7
	c-1.1-22.7-10.4-41.9-27.1-57.2c-16-14.6-31.9-29.3-48.8-42.8c-109.9-87.6-170.2-202.8-185.2-341.1
	c-18.9-174.7,31-332.7,126.6-477.1c84.9-128.3,202.4-221.3,334-298c172.8-100.8,359.8-162.5,554.5-203.5
	c272.8-57.5,548.8-76.2,827-66.8c216.3,7.3,428.8,41.3,636.7,100c201,56.7,389.5,141.5,553.1,273.9
	c158,127.9,267.4,287.9,306.2,490.4c21.7,112.8,13.2,223.7-31.4,330.7c-24.6,58.9-59.9,110.5-106.4,154
	c-24.8,23.3-50.8,45.3-76.9,67c-22.7,18.8-36.7,41.3-36.5,71.6c0.2,44.3-1,88.6,0,132.8c1.9,83.5,3.4,167,7.6,250.4
	c12,233.9,15.5,467.8,11,701.9c-3.3,171.1-10.7,342.1-29,512.3c-3.1,28.6-8.8,57-14.5,85.3c-23.4,114.6-91.4,193.7-195.6,243.5
	c-22.3,10.6-45.4,19.5-68,29.6c-16.9,7.6-34.9,13.7-50,24.1c-49.3,34-105.1,45.6-163.1,51.7c-261.9,27.5-524.7,31.9-787.6,31.9
	c-38.2,0-76.3,0-114.5,0C1996,3700.6,1996,3700.8,1996,3701.1z M1976.1,3642.3c262.1-1,523.9-6.2,785.3-24.3
	c55.4-3.8,110.7-11,165.9-17.8c74.5-9.1,123.4-50.8,143-122.5c14.6-53.5,26.6-108.1,33.8-163c21.9-167.7,31.3-336.6,36.6-505.5
	c8.8-280.4,3.3-560.8-8.9-841c-4-92.7-6.9-185.4-9.4-278.1c-1.8-67.6,21.4-121.3,82.1-158.6c65.5-40.2,109-99.8,132.8-173.1
	c26.9-83,32.8-167.6,16.7-253.3c-30-159.6-117.9-283.6-240.8-385c-132-109-284.6-177.4-449.3-218.9c-231.4-58.2-467.6-76-705.4-71.8
	c-163.8,2.8-327.3,14.2-489.6,39.6c-161.8,25.4-318.4,67.4-466.6,137.8c-101.3,48.2-192.9,111-270.3,193
	c-38.4,40.7-71.1,85.8-96.6,135.5c-44.8,87.4-63,180.7-55.8,278.5c9.9,135.1,66.1,245.2,178.8,323.8c5.9,4.1,11.8,8.3,17.8,12.3
	c41.4,28.2,61.7,68.5,64.9,117.3c1.9,27.7,1.7,55.6,0.6,83.4c-6.2,161.7-15.3,323.4-18.8,485.1c-4.8,221.6-7.6,443.2,2.1,664.8
	c6.2,141.2,14.3,282.1,33.4,422.1c8.2,60.2,16.7,120.4,40.9,177.1c23.4,55,62.6,89.1,122.8,94.8c90.2,8.6,180.5,18.7,271,22.7
	C1520.7,3627.3,1748.5,3634.2,1976.1,3642.3z M834.3,3514.3c-3.3-13.9-4.9-20.6-6.5-27.2c-6.5-27-14.4-53.8-19.1-81.1
	c-31.4-181.3-43.5-364.5-48.1-547.9c-4.2-169-4-338.2-2.5-507.3c1.1-118.5,7.1-237,11.7-355.5c3.6-94.8,8.5-189.5,12.3-284.3
	c0.7-16.4-1.1-32.9-2.4-49.4c-1.6-20.7-11.1-37.4-27.3-50.1c-16.2-12.7-32.3-25.7-49.3-37.4c-81.7-56.3-133.4-134.7-160.7-228.2
	c-55.7-190.7-21.6-367.6,93.7-528c88.9-123.8,211.3-207.5,346.5-272.6c152.6-73.5,315.6-113.4,482.5-137.8
	c157.2-23,315.2-37.7,474.2-39.2c246.1-2.3,490.8,10.7,730.5,71.1c191.3,48.2,368.3,128.1,516,261.7
	c165.3,149.4,253.8,333.5,232.7,560.4c-11.3,122.2-56,229.9-156.9,307.6c-12.2,9.4-24.4,19.1-37.2,27.7
	c-30.1,20.3-43.2,48.1-41.6,84.2c2.7,62.8,4.3,125.7,6.2,188.5c6.1,199.9,14.9,399.9,17.4,599.8c2.9,223.8-4.4,447.5-23.5,670.6
	c-10.3,120.1-20.5,240.4-53.7,357.2c-1.3,4.6-1.3,9.5-2.1,16.4c7.5-1.6,13-1.5,17.1-3.8c18.7-10.8,37.2-22.1,55.4-33.6
	c57.8-36.7,93.3-89.4,109-155.4c7.4-31,15.2-62.4,18-94c9.3-104.7,20.5-209.5,23.3-314.4c5.2-192.7,8.6-385.6,5.9-578.4
	c-2.5-182.4-14.4-364.7-20.5-547.1c-1.8-54.4,1.2-109.1,3.6-163.6c1.9-42.5,22-76.6,54.8-103.4c16.8-13.7,33.7-27.2,50.2-41.2
	c93.9-79.1,145.8-180.4,155.8-302.2c9.7-118.2-18.1-229.2-72-334.2c-75-146.3-187.5-257.5-324.5-345.2
	c-133-85.2-277.3-145.1-428.7-188.6c-134.9-38.7-272.3-65.5-411.8-81.9c-133.4-15.7-267.1-22.2-401.3-18.6
	c-179.5,4.9-358,20.5-535,51.4c-165.1,28.8-325.6,72.6-479.2,140.5C782.4,473,635,570.6,521,713.7C427.4,831,374,963.6,370.8,1114.5
	c-1.8,86.9,13.7,170.3,58.6,246.5c36.2,61.5,84.5,111.6,142.7,152.2c28.3,19.8,48.9,45.7,54.8,79.4c6,34.3,9.7,69.5,9.2,104.3
	c-2.9,182.5-7.4,364.9-11.6,547.4c-6.5,278.4-11.2,556.8,6,835c4.9,79.2,9.9,158.4,27.9,236.2c17.8,76.5,58.7,135.3,127.7,173.7
	C800,3496.9,814.3,3503.9,834.3,3514.3z"/>
<path d="M1563.8,2060.1c4.9,78.1-67.9,164.7-166.5,162.8c-90.9-1.8-161.8-71-161.9-160.5c-0.1-97.7,67.9-165.2,165.7-164.6
	C1493.9,1898.3,1564.1,1968.3,1563.8,2060.1z M1392.4,1999.4c-0.4-24.2-17.4-41-40.9-40.3c-23.6,0.7-41.1,18.4-40.8,41.3
	c0.2,21,18.6,38.6,40.1,38.5C1376.2,2038.7,1392.8,2022.9,1392.4,1999.4z"/>
<path d="M2353.4,2061.7c-2.1-75,66.8-168.5,168.6-164.7c89,3.3,161.6,72.3,158.9,159.7c-3.7,120.7-81.3,167.3-166.3,167.9
	C2429,2225.2,2352.3,2146.3,2353.4,2061.7z M2612.2,2000.1c0.7-22.5-20.1-44.6-41.9-44.7c-23.8-0.1-45.8,20.7-46.8,44.3
	c-1,22.8,16.3,40.9,39.9,41.7C2589.3,2042.1,2611.5,2023.4,2612.2,2000.1z"/>
<path d="M1793.6,2352c108.6-75.5,216.8-78.4,324.1,1.1c17.7-20.6,19.1-44.7,21.6-67.5c2.6-23.4,1.7-47.3,2.5-70.9
	c0.8-21.7,6-28.5,22.6-30.6c19.3-2.4,33.4,5.8,35.5,25.4c17.2,157.6-65.6,325.2-279.2,298.9c-108.9-13.4-185.7-92.9-201.7-203.7
	c-4.5-31.2-2.9-63.5-1.6-95.2c0.3-8.5,7.8-19.9,15.3-24.3c19.1-11.2,40,1.8,40.9,24.4c0.9,21.6,0,43.3,0.7,64.9
	C1775.2,2300.3,1780.9,2325,1793.6,2352z M1830,2400.9c64.6,77.2,213.8,59.2,251.6,0.7C2016.7,2331.2,1886,2330,1830,2400.9z"/>
<path d="M2722.8,802.1c-20.9,0.1-36.3-13.4-37.2-32.7c-1-19.9,20-39.7,42.7-40.1c24-0.5,45.8,16.5,46.3,36.1
	C2775,787,2754,801.9,2722.8,802.1z"/>
<path d="M1277.7,3222.3c-21,0.5-41.4-19.5-42.3-41.3c-0.8-19.7,14.4-37.1,32.9-37.9c21.2-0.9,46.2,21.4,46.6,41.5
	C1315.2,3204.5,1298.1,3221.9,1277.7,3222.3z"/>
<path d="M3021.4,901.9c0.7,21.9-11.8,37.1-31.4,38.2c-24.8,1.3-44.2-18.2-44.5-44.7c-0.2-19.8,14.6-36.8,33.2-38
	C2999.5,856.1,3020.6,878.2,3021.4,901.9z"/>
<path d="M2797.1,1077.6c-22.9,1.2-34.5-7.6-42.5-22.2c-8.4-15.3-11.9-31.7-0.3-46c5.7-7,16.5-12.7,25.4-13.5
	c16.8-1.4,28.5,9.7,36,24.1c8,15.4,10,32-0.6,46.4C2810.4,1073,2800.4,1075.7,2797.1,1077.6z"/>
<path d="M825.5,1234.6c-19.2-2-35.3-21.7-33.6-41.2c1.7-19.6,24.1-38.9,42.7-36.7c18.5,2.1,34.9,23.1,32.8,41.9
	C865,1220.8,846.5,1236.7,825.5,1234.6z"/>
<path d="M1024.7,3092c-0.5,17.2-18.9,35.5-36,35.7c-20.9,0.3-42.3-21-41.6-41.3c0.7-17.8,18.8-35.6,35.9-35.3
	C1005.4,3051.5,1025.3,3071.1,1024.7,3092z"/>
<path d="M983.5,1000.5c-0.4,21-18.5,37.7-40.7,37.5c-19.6-0.2-35.1-15.3-35.4-34.8c-0.4-20.9,18.1-39.7,38.7-39.4
	C967.2,964.1,983.9,980.5,983.5,1000.5z"/>
<path d="M3028.4,1294.1c-22.3-0.5-36.8-15.5-35.8-37c1-20.4,18-37.6,37.2-37.4c20.9,0.2,39.2,19.2,38.3,39.9
	C3067.3,1278.8,3049.1,1294.6,3028.4,1294.1z"/>
<path d="M1149.2,3420.3c-20.8-0.5-38.3-19.7-37.1-40.6c1-18.6,17.8-33.6,37.1-33.1c20.7,0.5,40.3,19.9,39.5,39
	C1187.8,3405.2,1169.9,3420.9,1149.2,3420.3z"/>
<path d="M1446.1,3436.8c-0.6,20-18.8,37.3-38,35.9c-21.6-1.5-36.7-17.8-35.6-38.2c1.1-19.1,20.5-38,38.3-37.1
	C1430,3398.3,1446.7,3416.9,1446.1,3436.8z"/>
<path d="M1017.8,1191.3c1.4-18.5,19.3-35.4,36.6-34.5c18.9,0.9,36.3,20.7,34.9,39.6c-1.5,20.9-18.7,36.3-38.8,35
	C1029.5,1230.1,1016.1,1213.6,1017.8,1191.3z"/>
</svg>
