<?xml version="1.0" encoding="utf-8"?>
<!-- Generator: Adobe Illustrator 24.3.0, SVG Export Plug-In . SVG Version: 6.00 Build 0)  -->
<svg version="1.1" id="Layer_1" xmlns="http://www.w3.org/2000/svg" xmlns:xlink="http://www.w3.org/1999/xlink" x="0px" y="0px"
	 viewBox="0 0 4000 4000" style="enable-background:new 0 0 4000 4000;" xml:space="preserve">
<path d="M230.9,2197.3c0-140.3-0.2-280.6,0.2-420.9c0.1-21.9-3-42-13.6-61.9c-25.7-48.2-33.7-100.7-29.6-154.4
	c8-103.8,30-204.8,66.9-302.4c19.4-51.3,49.7-94.5,96.6-123c83.1-50.5,166.5-100.5,251.6-147.5c268.8-148.4,537.7-296.5,807.9-442.1
	c98.8-53.3,200.6-101.6,302.9-147.8c63.6-28.7,132.4-45.7,202.7-39.7c53.7,4.6,107.9,14.5,159.5,30.1
	c286.4,86.6,572.5,174.4,857.9,264.5c195,61.6,389.2,126.1,578.6,204c32.6,13.4,63.9,30.1,95.6,45.8
	c63.3,31.6,103.5,83.5,128.5,148.2c37.5,97.2,52,198,41.9,301.5c-3.1,32.1-16.3,63.2-24.5,94.8c-3.7,14.4-9.4,29.1-9.3,43.6
	c1.7,214.9,4,429.7,6.8,644.6c0.9,69.5,5,139,5.1,208.4c0.1,42.8-2.5,85.9-7.7,128.5c-10.1,82.9-49.7,151.8-114.8,202.6
	c-72.6,56.7-147.5,110.8-224.3,161.7c-248.8,164.9-509.1,310.4-770.1,454.5c-79.6,44-160.8,85.2-240.2,129.4
	c-128.2,71.5-263.3,80.6-404.2,50.3c-180.6-38.8-356.4-94.3-531.7-151.6c-230.5-75.2-461.2-149.9-691.1-227.1
	c-111.3-37.4-221.2-78.9-331-120.6c-29.2-11.1-56.9-27.7-82.9-45.4c-66-44.7-96.4-112.5-111-187.5c-8.9-45.7-15.2-92.6-15.9-139.1
	c-2.1-134-0.7-268-0.7-402C231.1,2197.3,231,2197.3,230.9,2197.3z M1899.4,432.2c-42.4,9.6-88.2,15.2-130.2,30.8
	c-60.2,22.3-119.5,48.6-176.1,79c-248.3,133.2-495.7,267.9-742.8,403.2c-133,72.8-265.1,147.2-396.8,222.3
	c-30.5,17.4-59.7,38.3-86.3,61.3c-34.8,30-32.7,59.5,2.4,87.8c8.8,7.1,18.4,13.6,28.4,18.6c30.4,15.4,60.3,32.4,92.1,44.3
	c103.9,39.2,208.4,77,313.1,114.2c274.9,97.5,550.1,194.4,825.1,291.6c117.9,41.7,235.1,85,353.6,124.8
	c120.2,40.3,236.8,29.1,347-34.9c205.4-119.2,410.8-238.5,615.7-358.7c180.9-106.1,361.7-212.4,541.2-320.9
	c45-27.2,88-59.7,126.3-95.7c40.7-38.2,35.9-68.6-7.7-104.5c-12.6-10.4-26.7-19.3-41.1-26.9c-24.6-12.8-49.4-25.9-75.3-35.7
	c-107.5-40.6-214.1-84.4-323.5-119.2c-376.7-120-754.2-237.1-1131.8-354C1990.7,446.5,1946.4,441.6,1899.4,432.2z M2139,3405.7
	c1.7-20.5,4.2-36.4,4.2-52.4c0.2-286.9,0-573.8-0.1-860.7c0-5.1-0.4-10.1-0.1-15.2c0.6-13.1-5.7-21.3-17.6-26
	c-56.2-22.1-90.8-66.3-119.5-116.7c-13.7-24.2-27.1-48.6-42-72c-18.2-28.5-31.6-33.2-63.7-23.4c-15.6,4.8-30.4,12.4-45.6,18.5
	c-65.3,25.9-129.4,9.6-173.4-45.6c-14.9-18.7-26.7-39.8-39.3-60.2c-12.7-20.4-23.8-41.7-37-61.7c-40.4-61.4-78.5-59.7-115.9,3.4
	c-19.3,32.5-37.5,66.8-62.5,94.7c-89,99.7-230.9,98-286.5-46.5c-13.1-34-19.7-70.4-28.9-105.8c-8.2-31.8-13.6-64.5-24.3-95.4
	c-14.5-41.9-39.9-76-83.6-92.5c-59.8-22.5-109.6,2.6-124.5,63.9c-7.1,29.4-9.3,60.2-17.9,89.1c-11,37.2-21.5,75.9-40.5,109.3
	c-47.4,83.2-169.7,90.9-225.2,7.9c-24.4-36.4-41.2-75.9-46.3-119c-6.4-53.9-7.7-108.4-13.7-162.3c-3.5-31.1-8.5-62.9-19-92.2
	c-18-50.1-58.7-64.7-106.4-40.9c-22.6,11.2-42.6,27.6-65.5,38c-24.5,11.1-31.5,27.4-31.4,53.4c1.1,260.3,0.7,520.7,1.6,781
	c0.1,36.6,3.9,73.2,7.2,109.6c8.9,98.7,53.8,172.2,148.9,209.9c25.8,10.2,50.8,22.7,77,31.6c170.8,58.4,341.4,117.3,512.8,173.8
	c214.6,70.8,429.8,139.7,644.9,209c120.3,38.7,241.9,72.6,367.2,91C2093.3,3404.5,2114.6,3404.2,2139,3405.7z M3666.9,1524.8
	c-19.6,5.2-35.3,9-50.8,13.7c-40.6,12.3-63.1,38-65.3,82.3c-2.2,44.1-5.7,88.5-13.1,131.9c-5.2,30.6-15.5,61.1-27.9,89.7
	c-15,34.7-45.4,50.4-82.5,50.1c-37.6-0.3-65.1-19.2-80.9-53c-11.7-25.1-20.5-51.6-31.7-77c-5.3-12-13-23-19.7-34.7
	c-29.8,10.8-41.4,35-57,53.7c-30.7,36.9-109.5,43.6-140.8,9.3c-6.8-7.4-15.1-13.4-22.9-19.9c-31.1-25.9-49-26.5-80.2-1.1
	c-9.7,7.8-18.1,17.6-25.6,27.6c-27.4,36.4-41.2,78.5-43.8,123.3c-4.5,78.2-6.5,156.5-10,234.8c-2.6,57-7.5,113.8-34.7,165.6
	c-23.7,45.1-60.5,70.4-113.1,68.3c-51-2-80.6-33.8-98.9-76.6c-11.8-27.6-18.4-57.6-25.8-87c-7.4-29.4-11.2-59.7-19.6-88.7
	c-12.5-43.1-39.9-58.9-83.8-48.4c-16.7,4-33.5,11.7-47.6,21.6c-36.3,25.5-57.7,62.7-75.2,102.6c-19.7,45.1-38.4,90.8-61,134.5
	c-23.5,45.6-54.7,85.5-106.1,103.1c-17.5,6-22.2,17.2-21.4,34.8c1.2,26.5-0.2,53.1-0.2,79.6c-0.3,266.7-0.7,533.4-0.8,800.1
	c0,10.7,1.7,21.3,3.1,38.2c35.7-14.9,67.9-25.9,97.8-41.2c103.4-53,206.7-106.3,308.8-161.7c248.8-135.1,494.7-275.2,730.6-432
	c74.6-49.6,146.7-103.3,217.6-158.1c61.8-47.6,90.6-113.6,91.6-191.5c0.5-35.4,0.8-70.8,0.5-106.2c-2.5-247.7-5.1-495.5-7.8-743.2
	C3668.8,1555.7,3667.7,1542.2,3666.9,1524.8z M285.5,1677.4c18.2-9.5,31.3-16.1,44.2-23.2c19.9-10.9,38.5-24.7,59.4-32.8
	c80.1-31.1,160.1,0.5,196.9,78.3c11.2,23.7,20.5,49.6,24,75.3c7.3,53.7,8.4,108.3,15.4,162.1c4.9,37.2,12.9,74.5,24.2,110.3
	c7.7,24.4,25.5,44,55.1,44.9c31.6,1,49.6-18,58.2-45.1c9.4-29.9,15.4-60.9,22.4-91.6c7.9-34.4,12.7-69.7,23.5-103.1
	c14.1-43.4,45.8-71.4,89.4-85.9c82.1-27.2,175.3,2,226.5,71.9c32.8,44.7,50,96,61.5,149.6c5.3,24.7,9.6,49.7,16.3,74
	c6,21.8,12.5,44,22.4,64.2c25.1,51.5,69.8,62.8,114.8,27.3c19.3-15.2,34.4-36.7,48.9-57c17.6-24.6,30.9-52.4,49-76.5
	c60.3-80.1,153-80.8,213.1-0.7c22.6,30.2,39.9,64.3,60.2,96.2c10.1,15.9,20.8,31.5,32.7,46.1c20.2,24.7,46,29.1,75,17.3
	c19.9-8,39.8-16.1,59.6-24.2c41.1-16.7,80.3-11.9,113.8,16.2c18.9,15.9,35.2,36.1,48.8,56.8c21.4,32.7,37.8,68.7,59.5,101.2
	c48,72.2,135.2,69.3,177.8-6.7c20.9-37.3,35.3-78.2,53.3-117.1c15.4-33.2,29.4-67.3,48.2-98.5c31.3-51.8,77.7-85.5,136.6-101.2
	c73.3-19.5,145.5,12.6,176.4,81.5c12.3,27.3,18.8,57.4,26.5,86.6c8.6,32.9,14.7,66.6,23.6,99.4c3.9,14.4,11.2,30.1,29.1,31.1
	c20.2,1,32.7-11.8,39.3-29.9c5.2-14.2,11.4-28.5,13.3-43.2c4.4-33.8,7.8-67.8,9.2-101.8c1.7-42.9,0.4-85.9,1.6-128.9
	c2.1-73.5,7.7-146.4,38.9-214.7c27.2-59.7,70.3-101,134.4-118.7c31.1-8.6,60.1-4,86.8,13.9c10.5,7,20.7,14.5,30.4,22.6
	c35,28.9,35.2,28.9,65.1-7.1c6.5-7.8,12.7-15.8,19.7-23c55.2-56.7,133.5-45.9,169.6,24.4c12.1,23.5,19.8,49.1,30.4,73.4
	c5.1,11.9,12.1,22.9,21.6,40.4c7.7-14.6,13.5-21.5,15-29.1c3.9-21,6.2-42.4,8.7-63.7c5.5-47.6,8.2-95.7,16.7-142.8
	c9.3-51.1,37.7-91.2,86.8-112.2c19.4-8.3,40.9-13.7,61.9-15.8c33.1-3.3,53.6-20.7,65.1-49.9c5.5-14,11.2-29,11.4-43.7
	c0.9-52.9,0.2-105.9-1.6-158.8c-0.5-15.4-6.7-30.7-10.6-47.6c-8.1,4.1-12.1,5-14.6,7.5c-71.6,73.1-158.4,125.5-245.4,176.7
	c-275.5,161.9-552,322.3-828.3,482.8c-87.3,50.7-174.6,101.8-263.6,149.5c-72.7,39-152.1,54.8-234.4,49.6
	c-61.9-4-122.7-16.7-181.3-37.5c-103.5-36.8-206.6-75-310.1-111.7c-251.1-89.2-502.4-177.7-753.6-266.7
	c-135.7-48.1-271.9-94.7-406.4-145.8c-43-16.3-81.2-45.1-121.6-68.1c-7.1-4-14.5-7.5-25.1-13
	C279.9,1473.4,252.7,1570.7,285.5,1677.4z"/>
<path d="M1952,731.7c-9.9-2-22.7-3-34.1-7.4c-17.6-6.7-27.4-24.4-25.9-41.6c1.5-17.7,13.8-31.7,33.5-35.5c23.1-4.4,45.2,0,64.5,13.5
	c13.9,9.8,23.4,23,19.4,41.6c-4.2,19.1-18.4,25.5-36,27.2C1967.1,730.1,1960.8,730.8,1952,731.7z"/>
<path d="M3197.3,1060.9c-2.5,0-5.1,0.1-7.6,0c-31.6-1.3-50.6-16.8-49.5-40.1c1.1-22.9,22.1-41,50.3-41.7c9.8-0.2,20.2,1.6,29.5,4.7
	c24.2,8,36.3,24.7,33.7,44c-2.3,16.9-18.5,29.8-41.3,32.6c-5,0.6-10.1,0.1-15.1,0.1C3197.3,1060.6,3197.3,1060.8,3197.3,1060.9z"/>
<path d="M1606,1461.9c38.9,0.5,61.6,15,63,35.5c1.7,23.1-20.1,41.1-52.7,42.6c-10,0.4-20.3-0.3-30-2.5c-15.8-3.7-27.5-13-29.5-30.3
	c-1.9-17,5.8-29.9,20.9-36.8C1588.9,1465.3,1601.4,1463.2,1606,1461.9z"/>
<path d="M2432,1039.9c-12.8-1.8-21.9-1.8-30.1-4.5c-25.5-8.3-34-36.3-18.5-58c22-30.8,79.2-25.8,96,8.3c8.3,16.8,4.7,33.1-12.1,42
	C2455.5,1034.1,2441.7,1036.7,2432,1039.9z"/>
<path d="M876.2,1317.2c-27.2,0.2-51.1-19.1-50.8-41c0.3-22.9,26.6-46.6,51.7-46.5c25.7,0.1,49.5,20.1,50.4,42.3
	C928.4,1295.8,904.4,1317,876.2,1317.2z"/>
<path d="M1266.8,1041.8c-9.2-1.6-18.1-2.3-26.5-4.8c-16.5-4.9-24.4-17.8-26.2-33.8c-1.7-15.1,5.9-26.5,18.7-34.6
	c18.5-11.7,50.3-10.9,68,2.9c12.1,9.5,23.1,20.9,19.1,38.3c-4.1,17.9-16.4,27.7-34.7,29.8
	C1278.8,1040.3,1272.6,1041.1,1266.8,1041.8z"/>
<path d="M2210.7,1525.2c24.8-0.1,48.9,17.9,50,37.2c1.4,24.4-24.3,44.9-55.3,44.1c-25.2-0.7-44.5-16-45.6-36.2
	C2158.5,1547.1,2183.2,1525.3,2210.7,1525.2z"/>
<path d="M2844.9,1286.5c-26,0.9-47.9-15.8-49-37.5c-1.2-23.1,21.2-44.7,46.6-44.9c25.8-0.2,50.8,20.5,50.3,41.7
	C2892.4,1265.2,2868.3,1285.7,2844.9,1286.5z"/>
<path d="M1658.1,2828.4c-60.2,0.3-110.4-50.1-110.7-111.5c-0.2-48.8,42.5-122.8,120.3-122c58.8,0.6,109.6,54.9,109.8,117.8
	C1777.7,2777.9,1726,2828.1,1658.1,2828.4z"/>
<path d="M725,2526.3c0.3-64,49.9-115.3,111.1-115.1c63.8,0.2,115.6,55.2,113.2,122.2c-2.7,76.6-51.4,108.8-117.6,112.4
	C774.5,2648.8,724.7,2590.9,725,2526.3z"/>
<path d="M729.4,2861.4c-61.5-2.5-108.8-14.3-149.6-45c-35.7-26.9-50.6-68.4-40.5-106.5c7.6-28.8,24.6-49.6,51.9-61.1
	c29.5-12.5,59.8-18.2,92.3-13.4c40.9,6,77.2,22.7,112.1,43.4c22.7,13.5,37.1,33.9,45.8,58.4c17.7,49.7-2.9,96-52.6,112.8
	C766.5,2857.5,742.2,2859.1,729.4,2861.4z M660.5,2699.7c-7,1.1-17.3,1.5-26.8,4.4c-15.6,4.7-36,9.8-34.6,28.8
	c0.9,12.2,13.4,29.1,24.9,34c30.9,13.1,63.7,22.2,96.4,30c11.3,2.7,25.6-0.5,36.6-5.4c10.5-4.7,22.7-13.5,26.7-23.4
	c5.6-14.2-5.5-25.7-17.4-34.3C735.5,2711.6,700.8,2701.9,660.5,2699.7z"/>
<path d="M1742.1,3093.1c-42.8-3.8-81.1-14.6-116.6-36.2c-40.2-24.5-61.2-65.2-53.8-104.1c8.2-42.8,41.3-71.6,89.4-80.3
	c54.7-9.8,105.8,0.2,153.2,27.3c17.1,9.8,33.7,23.2,45.8,38.7c37.4,47.7,23.9,107.7-31.3,132.6
	C1802,3083.2,1771.1,3086.1,1742.1,3093.1z M1704.6,2930.6c-20.3,5.5-41.9,8.3-60.6,17.2c-21.2,10.2-22.4,26.4-4,41.3
	c40.5,33,88.1,40.4,138.4,31.5c15-2.7,32.1-10,31.3-27.4c-0.6-11.8-9.6-25.9-19.1-34.1C1766.6,2938.5,1736.5,2933.9,1704.6,2930.6z"
	/>
<path d="M1247.5,2866c-90,0.1-164.9-51-184.1-129.2c-6.2-25.2-4.8-52.5-4.7-78.8c0.1-17.2,10-28,28.9-28.1
	c19.2,0,32.8,9.3,36.2,26.5c1.5,7.3,0.9,15.1,1,22.7c1.5,65.6,33.6,101.6,99.5,111.7c53.8,8.2,93-10.9,120.1-58.8
	c4.4-7.7,8-15.8,12.5-23.4c7.1-12.3,17.4-18.5,31.6-13c13.6,5.2,26.3,13,24.3,29.7c-1.8,14.8-5.2,30-11.1,43.6
	C1375.5,2829.2,1316.4,2865.9,1247.5,2866z"/>
</svg>
