<?xml version="1.0" encoding="utf-8"?>
<!-- Generator: Adobe Illustrator 24.3.0, SVG Export Plug-In . SVG Version: 6.00 Build 0)  -->
<svg version="1.1" id="Layer_1" xmlns="http://www.w3.org/2000/svg" xmlns:xlink="http://www.w3.org/1999/xlink" x="0px" y="0px"
	 viewBox="0 0 4000 4000" style="enable-background:new 0 0 4000 4000;" xml:space="preserve">
<path d="M1994.2,942.2c5.9-22.6,12-44.8,17.6-67.1c29.5-117.1,59.2-234.2,88.3-351.4c5.1-20.6,9-41.7,11.9-62.8
	c2.5-18.3,8.3-34.3,22.4-46.9c17.7-15.9,29.6-34.5,31.8-59.5c0.7-8.1,8.6-17.1,15.5-22.9c22.3-18.8,46.1-35.8,68.5-54.5
	c11.2-9.3,22.4-16.6,37-19.6c53.9-11.1,108-21.4,161.2-34.9c152.3-38.8,304.4-78.3,456-119.5c37.7-10.3,64.9,0.6,87,28.4
	c47.2,59.7,56.6,126.8,34.4,198.8c-5.9,19.2-18.6,29.9-39.2,35.2c-184.9,47.5-369.6,96-554.3,144.3c-6.9,1.8-13.6,4.2-20.4,6.1
	c-16.9,4.7-27.4,15.6-32.2,32.4c-14.9,53-30.7,105.7-44.8,158.9c-20.2,76.5-39.1,153.2-58.5,229.9c-2.1,8.4-3.6,17-5.8,27.7
	c38.7,6,75.5,10.6,111.9,17.5c122.3,23,244.3,46.9,358,100.7c38.7,18.3,76.1,38.7,108.6,66.8c39,33.7,61.1,76.2,61.4,128.1
	c0.6,83.6-0.3,167.1-0.2,250.7c0,20-5.9,37-22.2,48.9c-24.3,17.7-48.8,35.4-74.1,51.6c-12,7.7-19.3,14.9-20.6,30.7
	c-8.2,99.2-17.2,198.3-27,297.3c-9.2,92.8-19.8,185.5-29.8,278.3c-12.2,113.1-24.8,226.1-36.5,339.2
	c-13,125.5-25.1,251.1-38.1,376.6c-15.5,150.3-31.6,300.5-47.3,450.7c-4.7,45.1-9.4,90.2-12.8,135.4c-1.6,20.8-9.4,36.9-24.1,51.5
	c-25.1,24.9-55.2,41.6-86.6,56.5c-88.3,42-182.2,64.3-278.3,79.2c-171.5,26.7-343.5,28.1-515.7,9.7c-92-9.8-182.8-26.6-270.3-58.2
	c-57.1-20.6-111.2-46.8-159.3-84.7c-21.8-17.1-32.2-37.1-34.8-65.2c-18.6-199.1-38.8-398-58.2-597c-9.7-99.1-18.2-198.2-28.2-297.2
	c-14.9-147.6-31.1-295.2-46-442.8c-10.1-100.8-18.6-201.8-28.3-302.6c-7.3-76.1-15.5-152.1-22.6-228.1c-1.5-15.9-8.9-24.1-22.5-32.4
	c-27.2-16.6-52.5-36.1-77.9-55.4c-15.1-11.5-20.5-27.8-20.4-47c0.4-73.8-0.6-147.6,0.2-221.4c0.3-23.8,2.7-48.1,7.9-71.3
	c7.4-33.2,29.1-58.5,53.9-80.8c41.6-37.4,90.9-61.8,142.2-82.6c95.2-38.7,195.1-59.6,295.3-79.8c116.2-23.4,233.8-33.9,352.1-38.2
	C1850.5,947,1920.6,944.7,1994.2,942.2z M2409.3,2818c5-1.6,10.7-2.2,15.1-4.9c65.4-39.5,130.6-79.3,195.9-119
	c10-6.1,13.8-14.7,14.6-26.5c1.8-27.5,4.7-54.9,7.7-82.2c9.9-91,20.3-181.9,30.1-272.9c12-111.3,23.7-222.6,35.5-334
	c3-28.9,5.6-57.8,8.9-91.5c-481.6,284.8-992.5,488.7-1522.3,652.6c24.2,244,48.5,487.8,72.9,733.3c10.4-1.9,17.3-2.6,23.9-4.6
	c97.9-29,196.4-56.1,293.4-87.7c267.5-87.1,525.5-196.9,774-328.9c13.2-7,25.1-16.3,37.7-24.5
	C2400.8,2824.3,2405,2821.2,2409.3,2818z M2625.8,2759.5c-210.9,136.4-429.2,244.5-654.5,339c-226.3,94.8-458.3,172.5-697.8,232.4
	c0.5,9.7,0.7,17.6,1.5,25.3c5.2,53.1,11.3,106,15.3,159.2c1.4,18.8,8.4,31.6,23.8,41.6c41.9,27.2,86.4,49.2,133.4,65.9
	c111.5,39.7,227.5,55.1,344.7,63.8c80.8,6.1,161.6,5.5,242.5,0.6c105.8-6.4,210.4-21,312.6-49.2c60.1-16.6,117.7-40,170.9-73.2
	c17.9-11.2,28.5-25.2,29.7-47.1c1.5-27.5,4.8-54.9,7.5-82.3c6.3-64.5,12.5-129.1,19.1-193.6c7.7-76,15.7-152,23.8-227.9
	c6.3-59.2,13-118.3,19.4-177.5C2620.4,2813.1,2622.7,2789.6,2625.8,2759.5z M1190.5,2480.3c10.2-2.8,16.1-4.1,21.9-6
	c61.6-20.3,123.1-40.7,184.7-61c296.5-97.6,585.9-212.9,867.6-347.7c152.5-72.9,299.9-155,445.3-240.9c9.7-5.7,16.1-11.9,16.9-24.6
	c2.2-34.5,6.2-69,9.1-103.4c0.7-8.3,0.1-16.6,0.1-28.1c-12,4.2-20.2,7.3-28.4,10c-50.7,16.4-100.6,35.8-152.2,48.5
	c-157.5,38.8-318.1,58.4-479.9,65c-202.9,8.3-405.3,1.8-606.3-30.3c-116.9-18.7-232.2-43.5-342.9-86.5c-4.6-1.8-9.8-2.1-18.2-3.9
	C1135.9,1941.3,1156.8,2209.5,1190.5,2480.3z M988.2,1386.5c0,47.1,0,88.8,0,130.4c0,12.1,8.1,18.9,16.8,25.7
	c40.3,31.3,84.3,55.8,131.9,74.3c88,34.4,178.8,58.7,271.5,76.2c156.8,29.5,315.4,41.1,474.6,45.3c110.4,2.9,220.4-4.5,330.3-14.2
	c142.9-12.7,283.5-37.5,420.5-80.9c70.6-22.3,138.6-50.3,198.6-95.1c12.6-9.4,18.1-19.9,17.9-35.9c-0.4-35.5,1.2-71.1,1.7-106.6
	c0.1-4.8-1.3-9.6-2-14.4c-3.9,0.5-5.9,0.2-7.3,1c-6.1,3.6-12.3,7.1-18,11.4c-44.6,33.3-94.3,56.9-146.1,76
	c-141.9,52.4-289.9,77.1-439.1,94.4c-67.9,7.9-136.5,10.1-204.8,13.7c-128.1,6.6-256.2,1.6-383.7-10.4
	c-85.7-8.1-171-21.9-255.8-36.6c-90.3-15.7-178.6-40.2-264-73.7C1081.4,1447.5,1034.7,1422.1,988.2,1386.5z M1956.9,1101.2
	c-8.9-0.9-13.2-1.7-17.5-1.7c-121.8,1.5-243.3,7.9-363.6,28.8c-77.9,13.6-155.4,30.1-228.2,62.1c-23.3,10.3-45.7,24-66.1,39.3
	c-25.4,19-25.6,38.1-2.2,59.9c12.2,11.4,26.6,20.9,41.1,29.1c52.4,29.5,110,44.9,168.2,57.9c118.4,26.4,238.8,36.5,359.6,41.6
	c160.4,6.7,319.6-6.1,477.3-36.5c66.3-12.8,132.1-28.6,192.3-60.6c17.9-9.5,35.2-21.1,50.1-34.7c20.1-18.2,20-37.1-0.2-54.8
	c-15.9-13.9-33.6-26.5-52.4-36.1c-73.5-37.8-153.7-54.4-234-69.6c-16.2-3.1-32.8-4.4-49.4-6.5c-3.2,8.7-5.8,14.3-7.2,20.3
	c-10.3,42.3-21.3,84.4-30.1,127c-5.8,28.3-21.2,46.9-48.1,54.9c-22.9,6.8-46.2,13.8-69.8,16.1c-54.9,5.3-103.2-12.2-144.4-49.2
	c-14.1-12.7-18.6-26.8-12.2-45.3c5.6-15.9,9.3-32.4,13.5-48.8C1941.2,1164.4,1948.6,1134.4,1956.9,1101.2z M2246.5,1057.6
	c7.4,2.1,12.3,3.9,17.3,4.9c34.8,7.1,69.8,13.3,104.4,21.3c65,15.1,128.8,34.3,187.6,67c27.4,15.3,52.3,33.5,69.3,60.9
	c13.5,21.7,17.4,44.2,10.6,68.8c-8.2,29.8-26.5,52-51.5,68.9c-36.3,24.6-75.6,43.2-117.3,56.4c-121.8,38.6-247.2,57.7-374.2,67
	c-131.5,9.6-262.9,7.2-394.2-5.4c-103.7-10-206.3-26-306.2-56.2c-53-16-103.8-37.1-147.5-72.4c-29-23.4-44.2-53.6-40.1-91
	c3.7-34.3,25.5-58.6,52.7-76.7c22.8-15.1,47.5-28.1,72.6-38.9c76.4-33,157.1-51.1,238.8-63.9c129.3-20.3,259.6-28.9,390.6-25.4
	c3.3,0.1,6.6-1.6,11.5-2.9c1.6-11.4,3.2-22.5,5.3-37.2c-12.3,0-21.9,0.1-31.4,0c-106.8-1.5-213.1,6-319.4,15.9
	c-126.9,11.8-251.3,36.6-374,70.5c-65.3,18.1-128.6,42.1-185.6,79.3c-22.1,14.4-43,31.9-60.7,51.3c-25.2,27.8-26.2,57.1-4.8,87.8
	c11,15.8,25.1,30.1,40.1,42.1c38.6,30.7,83.3,51,129.1,68.4c105.9,40.4,216.1,64.3,327.8,81.6c104.6,16.1,209.9,24.7,315.7,28.6
	c243.7,9,484.9-8.8,722.2-66.7c77.8-19,153.8-43.7,223.5-84.5c27.8-16.3,53.7-34.8,73.9-60.3c27.7-35.1,28.4-59.9,2.4-96.7
	c-20.5-29.1-49.4-48.3-79.7-65.5c-50.5-28.7-104.3-50.4-160.4-64.4c-86.9-21.8-174.7-40.3-262.4-59.1c-24.8-5.3-50.4-6.5-77.6-9.8
	C2251.8,1034.9,2249.3,1045.7,2246.5,1057.6z M2161.9,510.6c-3.4,12.5-5.9,20.9-8,29.4c-18.5,73.2-37.1,146.3-55.4,219.6
	c-39.6,158.5-79.1,317.1-118.4,475.7c-4.7,18.8-2.2,23,15.7,30.7c36.4,15.5,73.8,16.9,112.3,8.5c20.7-4.5,31.7-15,36.3-36.4
	c10.6-49.5,23-98.5,35.5-147.6c35.1-137.6,70.7-275.1,105.8-412.8c8.2-32.3,15.4-65,23.4-98.9
	C2254.3,568.1,2207.8,544.8,2161.9,510.6z M2422.9,449.3c163.7-42,327.3-84,494.5-126.9c-30.1-47.9-35.6-98.6-36.1-151.1
	c-182.9,45.9-363.5,91.3-544.4,136.7C2366.1,356,2394.1,402,2422.9,449.3z M2304.5,519.1c1.4-2.1,2.9-4.1,4.3-6.2
	c-33-34.9-66-69.9-100-105.9c-8.4,16.7-22,31-24.3,52C2223.5,482.6,2261.5,506,2304.5,519.1z M2362.4,465.9
	c-14.4-37.2-67-124.1-80.9-135c-12.6,10.3-25.3,20.6-38.9,31.7c20.6,18.8,39.4,36.1,58.5,53.1C2319.7,432.5,2333,455.9,2362.4,465.9
	z M2945.9,167.9c-15.5,36.5,1.5,105.2,30.6,123.7C2992.2,258.7,2974.5,187.2,2945.9,167.9z"/>
<path d="M2396.5,2827.4c-32,11-64.4,20.7-98.8,16.6c-15.7-1.9-31.7-4.9-46.5-10.2c-26.1-9.3-44.7-28-46.4-56.2
	c-1.8-30.7,12.7-55.7,40.5-69.6c41-20.5,84.3-25.2,129.3-13.8c63.4,16.1,87.1,75.7,34.6,123.8
	C2405,2821.2,2400.8,2824.3,2396.5,2827.4z M2307.9,2799.4c18.2-4.5,40.6-8.9,62.1-16c9.4-3.1,20.1-9.8,19.1-22.7
	c-1-11.9-10.1-18-20.2-22.4c-30.8-13.5-88.4-2.4-112,21.6c-12.6,12.8-11.7,24.3,4.9,30.7C2274.5,2795.4,2289,2795.9,2307.9,2799.4z"
	/>
<path d="M1545.9,2751.1c16.5,2.7,34,2.9,49.4,8.6c16.1,6,32.6,15,44.7,26.9c28.2,27.9,24.3,68.7-7.2,92.8
	c-9.7,7.4-21,13.8-32.5,17.6c-36.8,12.1-74.7,15.4-112.6,5.8c-10.9-2.8-21.9-7.7-31.3-13.9c-40.3-26.8-43.3-73.1-7.4-105.8
	c20.5-18.7,46-25.9,72.8-29.3c7.8-1,15.9-0.2,23.9-0.2C1545.7,2752.9,1545.8,2752,1545.9,2751.1z M1537.2,2863.4
	c14.9-3.7,34.1-6.7,51.8-13.6c8.5-3.3,18.8-13.2,20.2-21.5c2-12.7-11.3-18.9-22-23c-34.1-13.1-67.8-11-99.6,6.5
	c-7.4,4.1-16.6,15.3-15.5,21.6c1.4,8.4,10.7,18.6,19.1,22C1503.7,2860.7,1518.5,2860.5,1537.2,2863.4z"/>
<path d="M1604,2728.4c-48.9-0.6-83.9-34.5-83.7-81.2c0.2-46.4,39.8-86,84.9-84.9c46.3,1.1,82.2,38.2,81.7,84.4
	C1686.5,2694.5,1651.5,2729,1604,2728.4z"/>
<path d="M2224.5,2675.2c-45.5,0.2-80.8-35-81.2-81.2c-0.4-47.6,36.4-85.6,83.2-85.9c44.7-0.2,80.8,37.5,81.1,84.9
	C2308,2639.4,2272,2675,2224.5,2675.2z"/>
<path d="M1915.3,2805c-58.6,0-104.9-29.6-123.2-78.3c-4.9-12.9-5.3-27.6-6.5-41.6c-0.8-10.2,5.5-16.6,15.5-18.5
	c10.3-2,20-0.4,24.9,10.3c4.5,9.6,8.2,19.7,11.7,29.7c8.3,24.1,25.6,37.7,49.9,43.3c32.3,7.5,61.5,0.1,88.7-18
	c13.6-9.1,19.6-22.6,23-37.7c2.1-9.5,3.5-19.2,5.1-28.9c1.7-10.4,5.3-18.8,17.8-19.6c13.6-0.9,26.2,5.6,29.1,18.2
	c2.1,9.2,2.3,19.5,0.8,28.9c-10,60-51.3,100.2-111.5,109.1C1930.8,2803.4,1921.1,2804.3,1915.3,2805z"/>
</svg>
