<?xml version="1.0" encoding="utf-8"?>
<!-- Generator: Adobe Illustrator 24.3.0, SVG Export Plug-In . SVG Version: 6.00 Build 0)  -->
<svg version="1.1" id="Layer_1" xmlns="http://www.w3.org/2000/svg" xmlns:xlink="http://www.w3.org/1999/xlink" x="0px" y="0px"
	 viewBox="0 0 4000 4000" style="enable-background:new 0 0 4000 4000;" xml:space="preserve">
<path d="M356.5,1638.7c-7.4-11.5-14.2-21.9-20.8-32.4c-51.5-80.9-49.5-176.1,7.7-253.3c12.6-17,13.7-28.8,4.3-47.6
	c-34-67.9-34.4-138.9-15.5-211.4c5.2-19.7,6.7-41.2,5.8-61.6c-2.6-53.7,10.9-101.4,45.5-143.1c40.4-48.7,92.4-81.7,147.4-110.6
	c107.3-56.3,222.1-92.8,338.9-122.7c189.2-48.3,381.8-77.4,575.7-97.5c250.5-26.1,501.8-38.1,753.6-27.4
	c123.5,5.3,246.8,14.7,370.1,23.6c130.8,9.4,260.3,28.7,389.2,52.4c161,29.6,319.4,68.6,470.5,133.6
	c53.3,22.9,103.5,51.2,148.5,87.5c20.1,16.3,38.5,35.7,54,56.5c30.9,41.3,42.5,88.4,32.9,139.7c-4.1,22-4.5,42.7,3.9,64.6
	c28.4,74.3,33.4,148.9-4,222.4c-6.7,13.3-5.5,25.5,1.9,38.7c45.5,81.1,35.3,156.8-24.4,226.5c-10.6,12.4-15.9,22-4.7,38.1
	c61.3,87.3,46.4,167.6-10.4,243.7c-5.5,7.4-10.9,14.9-17.6,24c8.1,9.4,15.7,17.9,22.8,26.7c36.8,45.3,61.5,94.8,55.5,155.5
	c-3.4,34.3-16.7,65-35.6,93c-10,14.7-11.5,26-2.4,42.6c55.4,101.3,40.9,197-40.5,277.9c-5.8,5.8-11.3,12-17.4,18.6
	c9.3,13.9,18.2,26.6,26.4,39.7c41.8,66.4,39.5,133.3-2,198.2c-14.5,22.6-19.8,42.1-14,69.7c11.7,55.9-1.7,109.2-38.6,153.4
	c-20.6,24.7-44.5,47.8-70.7,66.2c-94.2,66.6-200.5,108.8-309,145.2c-130.5,43.8-265,71.1-400.6,93c-299,48.2-599.9,64.3-902.5,52.1
	c-166.6-6.7-333-17-498.2-39.3c-236.9-32-471.8-74.2-699.5-149.8c-81.7-27.1-161.1-59.8-235.6-103.3
	c-51.9-30.4-99.6-65.9-133.7-116.9c-57.3-85.5-48.3-185,23.9-258.3c5.1-5.2,10.2-10.6,16-15.1c10.8-8.3,11.9-17.3,7.2-30.2
	c-6.7-18.6-12.3-38-15.1-57.6c-5.6-39.2,0.1-77.6,16.9-113.5c8.3-17.7,9.1-32-1.3-49.7c-44.7-76.2-37.6-152.6,4.9-226.9
	c10.4-18.1,13.9-32.4,4.2-52.1c-22-44.9-24.2-92.9-14.3-141.3c3.4-16.7,0.7-29.3-9.7-43.5c-14.8-20-28.8-41.8-37.6-64.9
	c-24.1-63.5-12.3-123.5,24.2-179.5C340.1,1661,348.3,1650.2,356.5,1638.7z M1724.6,612.2c-0.7-1-1.4-1.9-2.1-2.9
	c-19.9,0-39.8-0.9-59.6,0.1c-167.5,8.9-334.2,26.5-499.6,54.8c-134.3,23-267.8,49.4-397.4,92.5c-85.6,28.4-170.8,58.4-247,107.8
	c-27,17.5-53.2,37.8-75.3,61.1c-55.1,58-53.2,118,4.8,173.6c21.7,20.8,46.8,38.9,72.4,54.9c98,61,206.5,96.2,317,126.4
	c48.5,13.2,97.4,24.8,145.2,40.3c57.3,18.6,91.4,60.2,107.3,117.9c14.6,53,22.9,106.8,18.2,161.6c-4.2,49-11.1,97.8-18.1,146.5
	c-5.5,38.6-0.8,75.6,16.1,110.3c11.6,23.9,27.8,44.6,58.3,46.5c33.1,2.1,57.2-13,72.4-40.7c9.4-17.2,18.4-36.5,20.1-55.6
	c3.8-41.5,3.5-83.5,3.7-125.2c0.1-32.5-3.9-65.1-1.9-97.3c7.5-121,96.7-199.2,216.2-190.2c53.3,4,106.3,10.9,159.6,14.7
	c107.6,7.8,215.3,17.7,323.1,20.6c138.3,3.7,276.8,0.8,415.1,2c66.8,0.6,122.1,28.2,163.1,80.9c37.7,48.4,58.8,104.1,60.4,165.6
	c1.1,43.9-0.9,88-2.8,131.9c-1.7,39.7-8.1,79.5-6.7,119.1c0.9,27.6,6.9,56.9,18.6,81.7c22,46.9,80.3,50.1,110.2,7.6
	c9.9-14.1,17.9-31.9,19.6-48.8c4.2-40.4,5.9-81.4,5.4-122c-0.5-37.6-6.2-75.2-8.1-112.9c-4-80.4,4.8-159.1,33.9-234.7
	c34.8-90.3,94.9-150.4,193.3-170.1c69.7-13.9,138.8-31.8,207.3-50.9c92.8-25.9,184.9-54.5,270.7-99.6c46.6-24.5,91.5-51.3,127.9-90
	c51.3-54.5,53.1-127.6-0.1-180.2c-28.7-28.3-62.3-53.7-97.9-72.5c-53.6-28.2-109.7-52.3-166.8-72.8
	c-156.4-56.1-318.5-90.4-482.7-112.7c-132.8-18-266.5-29.8-400-42.4c-38.8-3.7-78.2-0.6-124.2-0.6c15.3,7.2,24.2,12.3,33.6,15.8
	c48.5,18,88.7,48.4,120.3,88.2c68.4,85.9,57,185.6-25.1,246.2c-28.2,20.8-61.3,36.3-94.3,48.8c-55.1,20.9-113.6,28.3-172.2,33.8
	c-102.8,9.7-205.3,6.9-307.4-7.2c-70.7-9.8-140.5-24.2-207.1-50.8c-44.9-18-88.2-39.4-119.2-78.9c-28.6-36.5-36.7-76.4-22.1-121
	c11.2-34.1,31.6-61.2,59-83.5c38.5-31.5,81.4-55.1,127.9-72.6C1700.2,622.6,1712.3,617.3,1724.6,612.2z M422.7,2466.1
	c-4.3,14.7-8.4,24-9.7,33.8c-5.9,44.3,8.3,83.2,36.2,116.6c16.7,20,35.6,38.7,55.5,55.4c76.5,64.2,165.9,106,258.1,141.3
	c164.9,63.1,335.6,104.9,510.6,129.2c30.1,4.2,60.2,8.1,90,13.9c9.3,1.8,21.8,7,25.4,14.3c12.1,24.1-7.5,52.8-34.1,50.7
	c-27.1-2.2-54-6.8-80.9-10.8c-186.1-27.5-368.5-69.7-544-138.3c-111.7-43.7-219.4-94.9-308.8-177.7c-15.9-14.7-20.8-14-36.3,1.9
	c-49.7,50.8-53.4,120.7-9.4,177.2c25.5,32.6,57.4,58.1,91.9,80.3c79.1,51.1,167.2,82,255.7,111.5c143.4,47.8,290.9,78.4,439.2,106.7
	c196.1,37.4,394.1,57.8,592.8,68.9c156.9,8.7,314.5,9.8,471.6,6.7c118.2-2.3,236.4-14.2,354.2-25.9c144-14.3,286.3-40.1,427.2-72.9
	c125-29.1,245.7-70.2,360.5-128c46.1-23.2,88.4-52.2,125.6-88.3c22.3-21.6,38.8-47,44-78.1c1.7-10.4,0.3-21.4,0.3-37.4
	c-13.8,7.1-21.9,11.1-29.9,15.4c-23,12.5-45.4,26.3-69.1,37.4c-125.1,58.7-257.3,94.6-392.1,122c-134.6,27.4-270.2,48.1-406.9,60.8
	c-43.8,4.1-87.8,6.4-131.8,8.8c-7.9,0.4-21.8-0.8-22.9-4.4c-4.7-14.3-7.1-30-7-45.1c0.1-13.6,13.3-14.4,23.6-15.5
	c35.4-3.6,70.9-6.7,106.4-10.3c136.5-13.9,272.8-30.1,407.4-57.8c124.4-25.5,246.6-58.4,364-107.4c55.3-23.1,107.8-51.9,152.8-92.2
	c58.8-52.5,63.5-113.5,15.5-175.4c-10.1-13.1-19.8-17-34.6-8.4c-12.6,7.4-25.8,13.9-39.2,19.9c-111.8,49.7-229.9,78.1-349.6,100
	c-198.1,36.4-398,59.6-598.7,73.2c-173.5,11.7-347.6,16.3-521.5,21.6c-179.4,5.5-358.6-2.4-537.4-15.5
	c-127.4-9.3-254.3-25.7-381.2-41.2c-114.5-13.9-227.3-37.7-337.9-70.9c-97.7-29.3-192.3-66.2-275.6-127.1
	C457.6,2494.2,443.2,2482.2,422.7,2466.1z M1335.1,1675.9c0,15.5,0.1,25.8,0,36.1c-0.5,30.3,1.2,60.9-2,90.9
	c-6,54.8-27.9,102.3-70.7,139.5c-45.9,39.9-145,46-183-6.1c-4.9-6.7-15.1-11.5-23.6-13.4c-43.9-9.5-88.5-16.3-132.2-26.7
	c-176.1-41.7-348.2-93.6-498.2-200.3c-11.5-8.2-21.1-8.3-29.8,3.2c-26.4,35.1-40.3,73.3-27.6,117.6c13.7,48.2,47.5,80.7,87,107.9
	c51.1,35.1,105.8,63.6,163.2,87.3c125.3,51.8,255.4,88.2,387.2,117.9c241.6,54.5,486.1,90.4,733.9,98.7c209.6,7,419,3.1,627.7-22.5
	c163.3-20.1,325.3-47.5,486-83c174.2-38.5,345.3-86.6,507.3-163c64.5-30.5,128.4-62.1,182.5-109.9c23-20.3,43.3-42.7,56.3-70.9
	c22.2-48.3,14.3-95.5-24-134.7c-8.2,4.7-17.3,9.3-25.8,14.8c-65.1,42.8-134.7,76.8-207.1,104.9c-159.7,62-324.5,105.2-493.2,134.5
	c-30.6,5.3-35.8-1.7-38.6,39.6c-3.1,46.3-15.7,90.5-43.5,129.4c-49.3,69.1-171.8,66.8-215.7-7.2c-28.6-48.2-38.7-99.3-35.5-153.7
	c3.3-55.4,9.3-110.6,13.8-166c0.9-11.1,0.1-22.3,0.1-36.1C2130,1732.1,1733.8,1726.5,1335.1,1675.9z M429.2,2189
	c-32.7,53.5-37.2,105.7-8.4,159.5c23.8,44.5,59.7,78.1,100.2,106.8c90.4,64.1,193.9,98.1,299.2,127
	c144.9,39.8,293.3,60.7,442.4,74.7c131.4,12.4,263.2,21.8,395,27.5c286.1,12.2,572.1,6.8,857.7-15.4
	c149.4-11.6,298.4-25.5,446.8-47.3c132.8-19.5,264-46.2,392.5-84.8c59.3-17.8,116.6-41.1,168.5-75.7c30.7-20.5,58.8-43.9,77.3-76.9
	c27.3-48.5,23.4-110.1-11-154.7c-6.7,4-13.6,8.3-20.6,12.4c-42.2,25.2-83.1,53-126.9,75c-117.8,59.2-244.6,92-372.2,122
	c-233.5,54.9-471.2,76.9-710.1,86.1c-372.7,14.4-743.8-4.8-1112.7-61.9c-158.5-24.6-315.4-56.8-468.9-104
	c-119.7-36.8-235.8-81.5-333.5-163.4C441.5,2193.3,437.1,2192.4,429.2,2189z M3556.6,1926.9c-9.2,5.9-17.7,11.7-26.6,16.8
	c-41.7,24.1-82.3,50.5-125.5,71.5c-131.5,63.9-270.3,108-411.1,145.8c-147.8,39.7-298.3,66.4-449.3,91
	c-167.9,27.4-336.8,42.7-506.7,47.1c-257.3,6.6-513.4-7.5-767.7-48.9c-190.5-31-379-70.3-561.9-132.9
	c-94.3-32.2-187.9-66.1-270.9-123.3c-3.9-2.7-9.2-3.5-18.2-6.7c-0.7,12.7-2.6,22.8-1.7,32.6c3.6,40.1,19.2,74.8,48.7,102.7
	c38.3,36.3,80.6,66.5,127.7,90.6c106.1,54.3,218.6,90.2,333.9,118.2c151.8,36.8,305.5,62.9,460.4,83.7
	c152.9,20.5,306.6,31.6,460.3,39.9c259.9,14,519.7,9.4,779-15.7c185-17.9,367.5-48.5,547-96.4c112.8-30.1,221.5-71,321.5-132
	c41.4-25.3,79.2-55.3,105.2-97.5c16.8-27.3,28.8-56.8,20-89.5C3610.6,1985.5,3588.6,1954.2,3556.6,1926.9z M2001.2,641
	c-25.3,2.2-74.5,4.4-123.2,11.2c-81.4,11.3-160,32.9-232,74.3c-28.4,16.3-54.2,36-72.3,64c-17.9,27.6-17,50.6,6,73.9
	c14.5,14.7,31,29.5,49.5,37.6c39.1,17.2,79.1,34.4,120.5,44.1c164.1,38.4,329.7,44.5,495.8,12.9c48.6-9.3,95.8-24,135.9-54.5
	c42.5-32.3,52.4-79.5,26.2-125.5c-9.2-16.1-21.6-31-34.9-44.1c-24.2-23.8-53.7-39.7-85.3-52C2203.1,649.8,2114.6,642.6,2001.2,641z
	 M1325.2,1604.8c236.3,44.8,1093,63.9,1192.3,26.3c-1-5.7-1.2-12-3.2-17.6c-28.1-78.5-89-116.5-161.7-115.1
	c-82.7,1.7-165.5,2.7-248.2,1.8c-158.2-1.6-316.1-8.6-473.7-23.6c-56.3-5.3-112.5-10.6-168.9-14.5
	C1393,1457.3,1324.6,1505,1325.2,1604.8z M407.3,1390c-49.2,47-54,117.8-25,161.4c16.1,24.2,34.3,47.8,55.5,67.6
	c41.6,39,92.2,65,143.4,89.3c132.1,62.7,270.9,105.4,413.7,135.4c8.7,1.8,17.7,1.9,29.7,3c-13.3-73.4,0.7-142,11.1-211.9
	c-13.2-3.5-23.1-6.5-33.1-8.9c-104.8-25.1-210.1-48.8-311.3-86.5c-95.4-35.5-188.9-74.9-268.3-141.1
	C418.4,1394.6,412.3,1392.6,407.3,1390z M2806.6,1607.7c39.2-7.1,71.9-12.9,104.5-19c131.8-24.7,262.6-53.8,388.8-100.1
	c72.9-26.7,143.9-57.8,208-102.4c36.2-25.2,70.5-53.1,93.3-92c27.9-47.5,30-98.1,18.9-156.3c-11.1,8.1-18.2,13.3-25.4,18.4
	c-36.9,25.6-72,54.4-111.1,76.1c-110.6,61.6-231.7,96.5-353.2,128.9c-61.6,16.4-124.2,29.3-186.2,44.6c-26,6.4-48.5,20.3-66.8,39.6
	C2836.6,1489.1,2818.5,1542.9,2806.6,1607.7z M2811.8,1837.3c39.4-8.1,74.2-14.9,108.8-22.5c168-37.1,333.6-82.1,489.5-157
	c56.9-27.3,111.6-58.1,159.2-100.2c24.7-21.8,45.3-46.7,56.8-78c12.2-33.5,4.8-68-19.1-89c-4.6,3.7-9.8,7.2-14.2,11.5
	c-37.7,37.1-80.2,67.9-128.1,89.9c-54.2,24.9-108.8,49.6-165,69.5c-135.6,48.1-276.4,76.6-417.6,102.5c-21.6,4-43.3,7.8-65,11.3
	c-12.9,2.1-17.9,9.3-16.8,21.8C2804,1741.9,2807.6,1786.6,2811.8,1837.3z M395.6,1149c-2.3,4.6-4.7,7.1-4.9,9.9
	c-7.1,72.8,14.5,134,71.8,181.6c43.9,36.4,92.2,65.3,143.6,89.5c121,57.1,248.9,92.7,379.2,120.6c16.9,3.6,33.8,7,54.4,11.2
	c-1.3-52.8-6.8-100.4-29-143.9c-6.5-12.7-20.8-23.7-34.1-29.9c-19.7-9.2-41.5-14.4-62.8-19.5c-92.8-22-184.5-48-273.4-82.5
	c-82.3-31.9-162-68.9-228.6-128.9C407.5,1153.5,401.4,1151.9,395.6,1149z"/>
<path d="M2490.1,2998.4c0,0-739.8,10.8-1153.9-47s18.6,69.8,18.6,69.8s539,61.1,1153.8,40.3"/>
</svg>
