<?xml version="1.0" encoding="utf-8"?>
<!-- Generator: Adobe Illustrator 24.3.0, SVG Export Plug-In . SVG Version: 6.00 Build 0)  -->
<svg version="1.1" id="Layer_1" xmlns="http://www.w3.org/2000/svg" xmlns:xlink="http://www.w3.org/1999/xlink" x="0px" y="0px"
	 viewBox="0 0 4000 4000" style="enable-background:new 0 0 4000 4000;" xml:space="preserve">
<path d="M2397.4,686.4c12.5-44.9,24.1-86.5,35.6-128.3c22.4-81.3,44.4-162.7,67.2-243.9c4-14.2,9.4-28.8,17.5-41
	c16.2-24.3,42.4-32.3,69.8-34c43.7-2.6,84.3,9,121.5,32.1c16.6,10.3,28.1,25.1,37,42.2c6.7,13,9.4,26.5,5.8,41.2
	c-12.6,51.3-24.5,102.7-37.3,154c-32.5,130.8-65.4,261.5-98.1,392.3c-1.7,6.8-2.8,13.7-4.6,22.3c71.5,19.9,132.1,55.2,172.6,117.5
	c39.9,61.4,59.1,128.5,40.7,202.6c17.1,6.9,32.8,12.1,47.5,19.2c92.9,45.4,144.6,121.2,161.3,222c5.3,32,7.7,64.3-0.9,96.3
	c-2.7,10.2,1.7,16.1,10.7,20.6c16.9,8.5,33.8,17,49.9,26.9c34.2,21,52.2,52.2,52.9,92.2c1,49.7,0.5,99.4,1,149.1
	c0.3,28.2-11.1,50.9-33.7,66.9c-17.3,12.3-35.3,24.1-54.6,32.7c-15,6.7-21.6,16-24,31.4c-11,70.9-22.6,141.7-33.9,212.5
	c-22.9,142.4-45.7,284.9-68.5,427.3c-21.4,133.9-42.7,267.8-64.2,401.7c-15.4,95.7-30.8,191.5-47.1,287
	c-6.8,40-20.8,77.6-45.5,110.6c-7.7,10.3-11.5,21.9-12,35.1c-0.7,17.3-3.3,34.5-5.1,51.8c-4.2,39.5-24.3,69-56.6,91.3
	c-51.8,35.9-109.3,59.5-169.2,77.4c-136.7,40.8-277,51.3-418.8,48.8c-106.8-1.8-212.3-14.3-316-40.3c-70.7-17.7-138.4-42.8-201-81
	c-45.1-27.5-71.9-66.1-72.1-119.8c-0.1-30.5-9-56.2-26.6-81.1c-27.5-38.9-37.2-85-44.7-131c-30.6-187.5-60.7-375.1-90.8-562.7
	c-27.8-172.8-55.4-345.6-83.1-518.4c-10.6-66.2-22-132.2-31.8-198.5c-2.9-19.8-10.3-32.6-29.4-41.2c-19.2-8.7-36.9-21.2-54.1-33.5
	c-25.2-18-39.4-42.4-39.2-74.3c0.4-47.3,0.4-94.5,0.9-141.8c0.4-38.9,19.4-67.5,50.9-88.4c13.7-9.1,28.7-16.5,43.3-24.2
	c8.9-4.7,11.6-10.3,9.5-20.9c-20.9-110,12-202.3,94.1-277.1c16.7-15.2,36.6-27.4,56-39.3c11.2-6.9,17.5-13.6,16.1-27.9
	c-14.3-150.9,97.8-265.7,241.6-288.6c12.3-2,19.6-4.7,22.9-18.3c13.9-58.7,50.3-100.7,101.4-130.7c41.2-24.2,86.3-38.2,132.1-50.2
	c29.7-7.7,59.7-14.7,88.7-24.6c16-5.5,31.5-14.7,44.9-25.2c21.3-16.7,29.9-40,26.6-67.2c-0.6-4.7-1.2-9.4-2.1-14
	c-8.2-41.2,6.9-61.2,49.4-62.7c54.5-1.9,106.4,10.6,156.3,31.9c48.3,20.6,92,48.3,129.1,85.9
	C2389.2,681.2,2391.9,682.6,2397.4,686.4z M2973.9,1966.6c-9.9,3.2-16.4,5.3-23,7.3c-39.1,12.1-78,25.2-117.5,36
	c-98.9,27.2-199.2,48.3-301.4,58.2c-87.1,8.4-174.3,17.2-261.7,20.7c-130.1,5.2-260.3,3.6-390.2-7.3c-89.6-7.5-179-16.5-267.5-32.5
	c-94.8-17.1-187.9-40.7-278.8-72.7c-6.9-2.4-14.2-3.6-23.5-6c0.5,8.9,0.4,14.3,1.3,19.5c6.6,39.7,13.7,79.2,20.2,118.9
	c21.8,133.9,43.5,267.8,65.2,401.7c20.2,124.5,40.3,249.1,60.4,373.7c14.5,90.3,28.9,180.7,43.4,271c9.2,57.6,17.7,115.3,28.2,172.7
	c6.6,36.3,22.9,68.6,48.7,95.7c26.6,28,59.7,46.4,93.7,63c77.3,37.6,160,58.2,244.4,70.8c157,23.5,314.4,24.4,471.4-0.1
	c88.5-13.8,173.5-39.2,253.4-81c63-33,102.3-83.4,114.3-153.3c18.1-105.6,34.8-211.5,51.8-317.4c17-105.8,33.6-211.8,50.6-317.6
	c19.5-121.4,39.2-242.8,58.9-364.2c15.1-93.4,30.3-186.7,45.5-280.1C2965.6,2018.8,2969.5,1994.2,2973.9,1966.6z M2127.7,1137.2
	c-9.4,1.6-14.8,2.8-20.3,3.3c-88,8.3-175.2,4.5-260-21.9c-56-17.4-110.9-38-146.2-89.8c-5.2-7.6-12.3-9.5-20.6-8.3
	c-21.1,2.9-42.4,4.7-63.1,9.3c-98.8,21.6-166,112.8-156,210.1c3.9,38.2,19.3,69.1,51.2,91.8c29.7,21.2,61,39.1,95,52.4
	c80.9,31.6,165.7,46.4,251.5,52.3c72.3,4.9,145,3,217.5,4.1c6.3,0.1,13.1-1.3,18.7,0.7c4.1,1.5,8.8,7.3,9.1,11.4
	c0.2,3.7-4.5,9.1-8.5,11.4c-3.7,2.1-9.2,1.1-13.9,1.4c-94.7,4.8-189.2,3.7-283.3-9.6c-75.2-10.6-149-26.7-218.9-57.3
	c-33.3-14.6-65.6-31.2-92.7-56.1c-9.8-9-19.5-18-30.6-28.2c-29.7,8.2-57.3,24.7-83.1,44.4c-86.1,65.5-100.3,178.7-66.7,260.3
	c13.4,32.6,33.9,56.4,69.9,63.8c6.9,1.4,13.6,3.9,20.4,5.8c110.7,30.4,224.3,44.3,338.1,54.8c98.1,9.1,196.7,13.1,295.2,17.3
	c153.9,6.5,307.6-1.2,461-13.2c92-7.2,183.5-19,274.1-36.8c44.8-8.8,89-20.5,133.3-31.5c17.1-4.3,32.5-12.1,41.6-28.7
	c43.6-78.9,42.3-184-11.9-257.7c-40.4-55-96.9-81-161.5-94c-11.1-2.2-19.3,1.7-28.2,8.2c-29.7,21.8-63.7,34.4-99.2,42.9
	c-4.6,1.1-12.9-2.2-15.4-6.1c-4.5-7.1,0.1-13.5,7.5-16.9c5.7-2.6,11.8-4.3,17.6-6.8c23.2-9.9,46.6-19.2,69.3-30
	c18.7-8.8,29.9-24.4,36.6-44.2c14.4-42.2,14-83.9-3.4-124.8c-36.2-85.1-106.3-124.4-193.8-141.5c-1.8,6.1-3.5,11.3-4.8,16.5
	c-3.7,14.3-13.1,23.8-26.7,27.7c-54.9,15.8-105.1,7.8-146.3-33.9c-10.1-10.2-16-25-22-38.5c-4-8.9-2-17.5,6.8-25.1
	c7.2-6.2,13.4-15.3,16.4-24.3c8.2-24.6,13.8-50.1,21.9-74.8c4.5-13.5,2-24.2-6-35.2c-57.8-80.6-133.5-135.4-230.8-158.3
	c-13.4-3.1-27.2-4.1-40.7-6.1c-1.5,5.2-2.7,7.4-2.7,9.6c-0.8,78.5-41.5,128.8-112.9,155c-33.1,12.2-67.9,20.1-102.3,28.7
	c-46.2,11.6-90.5,26.9-129.9,54.8c-35.8,25.4-53.9,60.5-60.7,102.9c-3.4,21.3,2.7,38.8,18.3,53.4c23.2,21.9,49.5,39,79.3,50.5
	c84,32.5,171.4,40.4,260.5,34.9c15.7-1,31.3-2,49.1-3.1C2126.1,1122.5,2126.8,1128.9,2127.7,1137.2z M1195.1,1748.2
	c-1.2,1.7-2.7,3-2.7,4.2c0,35.5-0.5,71,0.9,106.4c0.3,7.3,6.1,17,12.3,21c27,17.5,54.1,35.7,83.1,49.4c75.1,35.7,155,57.7,235.8,76
	c171.5,38.8,345.8,54.6,521,59.8c207,6.2,413.2-5.5,617.4-41.7c101-17.9,201-40.9,296-80.6c37.6-15.7,72.3-38.2,108.1-57.9
	c13.8-7.6,18.7-20.3,18.2-35.9c-0.8-26.8-0.9-53.6-1.4-80.5c-0.1-6.8-1.1-13.6-1.8-22.1c-7.4,3.4-12.4,5.4-17.2,7.9
	c-59.4,32-122.6,53.9-187.9,69.9c-102,25-205.8,39.8-309.9,51.7c-126.2,14.4-253,21.8-380.1,23.5c-136.6,1.9-272.8-4.1-408.8-16.8
	c-111.6-10.4-222.5-24.6-332.1-48.2c-85-18.3-168.7-40.4-244.4-85.5C1199.7,1747.9,1197.1,1748.4,1195.1,1748.2z M1299.6,1652.7
	c-30.2,7.5-56.4,17.8-81,31.9c-29.7,16.9-29.7,28.6-0.1,45.9c39.7,23.2,82.3,39.6,126.4,52.3c165.3,47.7,335.1,67.7,506,78.9
	c155.9,10.2,311.9,12.9,468.2,6.3c159.4-6.7,317.6-22.6,474.2-52.9c72.7-14.1,144.8-31.5,213.2-60.7c16.6-7.1,33.1-15.1,48.1-25
	c27-17.7,26.7-32.5-1.8-48.8c-19.7-11.2-41.6-18.6-62.4-27.9c-12.3-5.5-21.4-2.6-27.3,9.5c-9.3,19.1-25.8,29.1-45.1,35.6
	c-8.2,2.8-16.2,6.2-24.5,8.6c-96.4,27.9-195,45.2-294.4,56c-86.9,9.5-174.2,18-261.6,20.3c-132.4,3.5-265,4.5-397.3,0.4
	c-100.7-3.1-201.2-14.8-301.6-24.5c-90.4-8.7-179.2-26.4-266.6-51.3C1342,1698.8,1313.4,1687.8,1299.6,1652.7z M2566.1,335
	c-5.2,16.7-10.6,33.1-15.3,49.7c-38,134.1-76,268.3-113.6,402.5c-14.6,52.3-28,105-41.9,157.5c-2.9,11-4.8,22.2,5,30.8
	c27.1,23.9,58.2,37.7,95.1,32.3c25-3.7,29.5-9.1,34.9-34.3c1.1-5.4,1.9-10.9,3.2-16.2c47.5-189.4,95-378.8,142.4-568.2
	c2-8,2.8-16.2,4.2-24.3c-21.4-2.7-40.5-3.2-58.5-7.9C2603.5,352.2,2586.7,343.3,2566.1,335z M1589.9,3471.3
	c-3,39.2,5.1,69.3,38.4,90.3c30.8,19.4,62.5,36.5,96.6,49.1c114.3,42.4,233.4,59.2,354.2,64.6c96.9,4.3,193.8,1.9,290-13.2
	c80.5-12.6,159.2-31.7,233.4-65.8c24.1-11.1,47.3-25.3,68.8-40.9c23.4-16.9,31.1-54.3,19.7-80.6c-3.5,1.8-7.1,3.4-10.4,5.5
	c-52.4,33-109.5,55.3-168.6,72.9c-101.9,30.3-206.8,42.3-312.3,45.9c-115.2,3.9-230-3.2-343.1-27.9c-89.7-19.6-176.5-47-255.3-95.7
	C1598.8,3474,1595.7,3473.4,1589.9,3471.3z M2678.1,338.5c-22.1-27.4-66.8-39.2-92.1-26.1C2612.2,334.9,2643.1,335.7,2678.1,338.5z"
	/>
<path d="M2609.3,2642.8c-0.5,21.6-4,42.3-16.5,60.6c-33.1,48.3-97.6,45.9-126.6-4.8c-23.3-40.6-16.8-95.9,15-129.7
	c24.4-25.9,64-29.3,92.1-7.1C2599.1,2582.4,2610,2610.2,2609.3,2642.8z"/>
<path d="M1834.8,2645.8c-1.9,19.2-5.1,40.8-18.2,59.7c-28.9,42-87.9,43.2-118.2,2.1c-30.1-40.9-26.1-103,9.1-139.4
	c24-24.7,60.1-27.9,88.1-7.8C1818.8,2577.1,1834.7,2610.7,1834.8,2645.8z"/>
<path d="M2148.1,2825.7c-40.2-1.4-76.3-9.9-104.6-39.1c-18.2-18.8-28.7-41.1-29.1-67.7c-0.1-10.2,1.6-19.5,13.6-21.4
	c10.5-1.6,15.6,5.4,18.6,14.4c1,3,1.8,6,2.8,9c23.2,67.1,113.8,89.9,167.2,42.1c13.6-12.2,19.6-28,24.1-45
	c5.1-19.5,10.3-23.9,21.9-20.8c12,3.1,15.6,10.7,13.5,28.5c-5.8,50-49,91.1-103.5,98.2C2164.1,2824.9,2155.4,2825.1,2148.1,2825.7z"
	/>
<path d="M2587.6,2888.5c-20-1.7-40.4-3.8-51.2-25.8c-5.9-12.1-8.2-24.7-0.7-36.1c8.6-12.9,17.7-26.6,29.6-36
	c33-26.2,71.4-39.6,113.7-40.5c7.8-0.2,15.9,0.8,23.3,3c30.7,9.3,42.7,37.7,26.8,65.5c-6.1,10.7-14.8,20.8-24.6,28.3
	C2670.4,2872.8,2631.4,2886.4,2587.6,2888.5z M2592.8,2862.3c33.6-3.8,66.9-14.3,96.3-35.5c5.7-4.1,11-9.1,15.2-14.6
	c11.4-14.9,4.8-33.7-13.5-38.5c-5.1-1.4-11-1.3-16.3-0.5c-36.4,5.6-69.6,19-98.3,42.4c-5.9,4.8-11.7,10.9-15,17.7
	c-6.3,12.8,1.1,25.4,15.2,28.1C2581.2,2862.2,2586,2861.9,2592.8,2862.3z"/>
<path d="M1610.5,2751.6c43.5,4.4,83.3,18,118.6,43.2c12.8,9.2,23.1,21.3,27.1,37.5c6.4,25.9-3.6,46.7-29.4,53.1
	c-16.4,4-34.5,5.2-51.2,2.9c-37.2-5.3-70.8-20.8-100.3-44.3c-7.2-5.8-14.1-12.9-18.9-20.7c-18.8-30.7-8.3-57.3,26.4-67.5
	C1591.8,2753.2,1601.4,2752.9,1610.5,2751.6z M1613.9,2775c-7.9,1.5-16.8,1.9-24.6,4.9c-16.2,6.3-20,17.3-10.4,31.5
	c5.1,7.6,12.2,14.6,20,19.4c26.1,16.3,54.4,28,84.7,33.8c9,1.7,19,1.9,28,0c23.2-4.9,29.2-22.9,12.3-39.2
	C1693.5,2796.3,1656.3,2781,1613.9,2775z"/>
</svg>
