<?xml version="1.0" encoding="utf-8"?>
<!-- Generator: Adobe Illustrator 24.3.0, SVG Export Plug-In . SVG Version: 6.00 Build 0)  -->
<svg version="1.1" id="Layer_1" xmlns="http://www.w3.org/2000/svg" xmlns:xlink="http://www.w3.org/1999/xlink" x="0px" y="0px"
	 viewBox="0 0 4000 4000" style="enable-background:new 0 0 4000 4000;" xml:space="preserve">
<path d="M3342.5,1279.3c31.7-5.5,58.1-12.4,85-14.3c132.2-9.1,251.4,22.6,342.6,124.1c67.8,75.4,100.4,167.4,103.4,268.2
	c4.4,148.6-48.5,277.6-141.9,391.2c-95.9,116.7-217.3,200-351.3,266.8c-98.9,49.3-200.7,91.3-306.1,124.7c-6.8,2.2-13.4,4.9-21.1,13
	c11.2,3.7,22.2,7.9,33.5,11.2c110.6,32.4,215.1,77.8,309.3,145.1c54.6,39,94.6,88.8,113.9,154.1c14.3,48.3,11.5,95.3-8.2,141.6
	c-21,49.3-52.1,90.9-93.3,125.1c-77.9,64.7-168.1,106.6-261.2,143.8c-140.2,56.1-286.3,90.4-434.3,117.6
	c-312.5,57.4-628.1,73.3-945,61.6c-179.6-6.6-358.7-23.3-535.9-54.3c-126.3-22.1-251.4-50.4-373.2-90.9
	c-116-38.5-228.8-84.7-326.4-160.9c-52.2-40.7-94.3-89.6-117.5-153c-24.5-67-15.3-130.1,21.1-190.3c28.4-47,69.3-81.4,114.3-111.2
	c75.8-50.2,157.7-87.8,244-115.9c38.9-12.7,77.9-25.1,116.7-37.9c5.7-1.9,10.9-5,18.1-8.4c-4.5-7.7-7.6-14.2-11.8-20
	c-131.8-178.2-227.8-374.6-297.8-584.4c-58.4-175.1-96.6-354.6-118.4-537.7c-6.3-53.2-12-106.5-17.4-159.8
	c-6.9-68.6,14.5-128.3,58-181C587.1,892.8,646,856.9,708.6,826c99.5-49.1,205.1-80.5,312.3-106.9c145.1-35.8,292.7-56.2,441.2-71.3
	c164.4-16.7,329.1-24.5,494.2-22.8c223.1,2.4,445.1,19.6,665.2,56.9c149.3,25.3,296.4,60.4,437.2,117.7
	c67.5,27.4,131.2,61.7,188.4,107.2c59,47,100.1,105.8,106.2,182.7c2.8,35.3-2.9,71.2-5.1,106.8
	C3346.7,1223.1,3344.6,1249.9,3342.5,1279.3z M1871.6,714.2c-77.7,3.1-155.4,5.3-233.1,9.6c-210.1,11.7-418.3,37.7-622.5,90.3
	c-95.7,24.7-189.6,54.9-277.6,101.1c-42.1,22.1-81.4,48.3-116,80.9c-34.4,32.4-56.5,70.8-50.5,120.2
	c12.3,101.2,21.6,202.8,38.5,303.2c42.6,252.3,119.5,493.5,241.4,719.7c110.1,204.3,253.6,379.6,434.3,526.1
	c133.2,108,282.2,170.7,452.7,187.2c114.5,11.1,228.7,12.7,343,2.9c77.7-6.7,153.8-22.2,227.6-47.7
	c87.7-30.2,163.8-81.4,235.8-137.7c180.3-141,324.4-313.4,434-514.3c124.8-228.8,212.5-470.6,249.4-729.4
	c14.5-101.8,23.8-204.4,36-306.5c5.6-47-12.5-85.4-45.3-115.7c-27.6-25.5-57.7-49.4-90.1-68.2c-123.9-72.3-260.5-111.2-399.5-140.8
	c-131.5-28-264.5-47.7-398.5-60.1C2178.3,720.6,2025.2,713.5,1871.6,714.2z M1287.9,2713.5c1.9-2.7,3.8-5.5,5.7-8.2
	c-5.4-3-11.3-5.5-16.3-9.1c-73.5-53.3-138.8-115.6-199.4-182.8c-13.9-15.4-27.8-20.2-47.1-14.6c-57.5,16.6-115.5,31.3-172.5,49.4
	c-84.2,26.7-166.6,58.6-241.7,106.1c-43.7,27.6-85.2,58.3-109.9,105.9c-26.8,51.5-21.9,84.1,19.9,124.4
	c38.3,36.9,83.7,63.4,131.9,84.8c122.5,54.5,251.1,89,382.4,113.9c241.1,45.7,484.8,67.3,729.8,74.5c280.8,8.4,561-2.2,840.1-35.9
	c166-20,330.3-48.7,490.9-95.9c83.9-24.7,166-54.5,238.1-105.3c26.3-18.5,50.2-41.3,72.1-65c23.7-25.8,25.9-57.8,8.4-87.9
	c-13-22.5-29.1-43.8-46.9-62.8c-34.3-36.5-78.5-59.5-122.7-81.7c-138.3-69.5-287.1-106-437-139.1c-19.7-4.4-31.2,3.7-43.2,17.5
	c-61.7,70.6-130.1,134.3-204.1,191.9c-6,4.7-10.9,10.9-18.2,18.3c18.9,7.8,34.6,13.6,49.7,20.5c30.8,14.1,59.9,30.6,80.1,59.1
	c19.2,27,21.3,55.9,2,82c-13.4,18.1-30.7,36.1-50.4,45.9c-40.1,20.2-82,38.1-124.9,51.2c-118,36-239.7,53.5-362.6,61.5
	c-228.3,14.8-455.9,9.5-681.5-32.2c-76.5-14.1-152.2-32.8-221.5-69.8c-19.3-10.3-38.2-22.7-54-37.6c-36.1-33.9-37.3-78.7-3.8-114.9
	c11.2-12.1,25.3-22.2,39.6-30.6C1242.5,2734.8,1265.5,2724.6,1287.9,2713.5z M2868.6,2392.1c15.8-2.7,25.1-3.5,33.8-6
	c83.7-23.9,168.3-45.2,250.6-73c126.9-42.8,246.3-101.7,355.1-180.8c85.7-62.3,162.7-133.3,215.6-226.5
	c52.9-93.2,77.2-192.5,57.1-299.9c-32.9-176.5-186-265.8-339.8-251.6c-57.6,5.3-109.9,25.9-161.9,49.1
	c-16.2,7.3-19.6,19.7-22.1,34.8c-7.5,46.6-15.8,93.1-23.5,139.7c-0.8,4.8-0.1,9.9-0.1,19.3c16.1-9.7,29.4-17.7,42.6-25.8
	c58.2-35.8,119.5-61.2,189.7-58c81.7,3.7,143.5,54.8,161.9,134.2c13.7,59,1.7,114.9-21.9,168.8c-36,82.1-95.9,145.1-165.1,199.5
	c-131.6,103.5-280.3,172.3-442.7,211.4c-24.9,6-40.3,19.3-52.8,40.3c-20.3,34.3-42.1,67.8-63.2,101.6
	C2878.7,2374.5,2875.8,2379.8,2868.6,2392.1z M1929,3005.7c113.5,0.8,237.1-8,360.2-24c84.5-11,168.4-26.1,248.4-55.9
	c33.1-12.3,65.6-28.7,94.7-48.7c40-27.4,39.1-61.3-1-88.4c-24.1-16.3-52.2-26.6-78-40.4c-29.4-15.8-53.6-11.1-80.1,10.1
	c-40.2,32.3-86.4,55.7-135,73.8c-111.6,41.6-228.2,57.1-346,61.6c-72.2,2.8-145-1.7-217.2-7c-69.1-5.1-137.6-15.8-204.9-34
	c-78.9-21.4-152.2-54.3-218.6-102.1c-10.1-7.3-19.8-17.1-34-12.2c-36.8,12.9-72.8,27.9-102.9,53.4c-31,26.3-30.4,60.1,2,85.1
	c15.7,12.1,33.2,22.3,51,30.9c57.1,27.6,118.1,43.8,180.1,55.8C1603.2,2993.8,1760.2,3005.6,1929,3005.7z M3333.8,2965.4
	c-6.3,3-12.8,5.6-18.8,9.2c-76.6,45.7-160.4,72.9-245.8,95.5c-194.4,51.3-392.4,83-592.3,101.1c-111.9,10.1-224.4,16.1-336.7,19.3
	c-272.4,7.9-544.2-1.7-815.3-30.7c-125.4-13.4-249.7-33.7-372.6-62c-125.1-28.8-247.9-64.6-361.2-127.3c-1.3-0.7-3.5,0.2-6.5,0.5
	c60.3,50,128.9,83.3,199.6,113.2c170.6,72.1,351,107.4,532.2,138c115,19.4,231.4,27.3,347.8,35.2c218.7,14.9,437,11.3,655.2-4.9
	c187.8-13.9,373.3-44.1,556.5-87.5c118.8-28.1,234.3-66.5,343.7-121.4C3260.7,3023,3301.4,3001.1,3333.8,2965.4z M3114.9,2094.9
	c12.6-2.8,16.9-3.1,20.6-4.7c116.8-47.7,224-110.5,313.2-201.3c31.9-32.5,58.7-68.7,76.3-111c11.4-27.4,19.4-55.5,17.9-85.6
	c-3.1-62.3-43.4-94.8-105.4-86.6c-51.4,6.8-96.2,28-138,57.7c-24.1,17.1-40.5,37.7-49.2,66.6c-32.2,106.6-69.9,211.3-114.5,313.5
	C3129.2,2058.5,3123.4,2073.8,3114.9,2094.9z"/>
<path d="M1869.6,761.1c260.6,4.3,467.2,13.7,672.3,45.4c132,20.4,263.3,43.9,387.2,96.1c42.4,17.9,83.7,39.3,123.1,63.1
	c21.9,13.2,41.2,32.8,57.5,52.9c35.8,43.9,35.2,90.2,1.2,135.6c-27.2,36.4-64.8,59.4-105,78.4c-101.3,48-208,79.4-318.1,98.1
	c-108.6,18.5-217.4,38.5-327,48.1c-135.9,12-272.7,18.9-409.1,18.8c-148-0.1-296.3-6.4-443.8-18c-180.2-14.1-358.7-42.3-532.7-93.5
	c-64.5-19-128.1-41.2-185.4-77.5c-15.9-10.1-31.5-21.2-45.2-34c-52.8-48.9-57.2-114.3-9.3-168.1c19.3-21.6,42.6-40.9,67.2-56.2
	c87.6-54.6,185.7-82.3,285.2-105.5c148.6-34.6,299.1-55.9,451.5-64.6C1667.1,773,1795,765.5,1869.6,761.1z M1924.8,797.8
	c-115.4,4.9-230.9,8.5-346.3,14.9c-158.5,8.8-315.8,27-470.5,64.1c-84.8,20.4-169.3,42-247.7,81.6c-36.6,18.5-72.8,38.1-100.4,69.6
	c-33.1,37.8-34.5,77.4,0.7,112.4c23.5,23.4,52.4,41.6,79.8,60.8c13.3,9.3,27.7,4.2,41.9-2.1c23.9-10.6,48-21.8,73.1-28.8
	c61.6-17.3,123.3-34.7,185.9-48c209.2-44.5,421.6-63.2,635-68.6c242.9-6.1,485.4,2.5,726.2,37.1c154.1,22.1,305.8,54.8,449.4,117.8
	c8.6,3.8,21.8,4.9,29.9,1c39.8-19.4,77.4-42.9,105.8-77.8c21.9-27,24.2-52.7,3.8-81.2c-14.4-20.1-32.1-40.1-52.9-52.9
	c-39.1-24.1-80-46.7-122.7-63.5c-138.7-54.6-284.3-81.6-431.3-100.8C2298.8,809.2,2112.1,800.2,1924.8,797.8z M907.5,1225.6
	c11.5,5.2,17.7,8.9,24.4,11c41.2,12.5,82.1,26.1,123.7,36.7c209.6,53.2,423.4,77.7,638.8,86.9c223.7,9.6,447.3,7.2,670.4-16.1
	c179-18.7,355.9-46.4,527.8-101.5c6.2-2,11.9-5.7,23.5-11.3c-14.8-6.5-23.9-11.1-33.3-14.6c-128.5-48.1-261.9-75.9-397.4-94.6
	c-127-17.6-254.6-28.2-382.7-33.8c-162.9-7.1-325.7-5.6-488.2,6.6c-110.9,8.3-221.7,20.3-331.9,35.3
	c-111.3,15.1-221.5,37.6-327.8,75.3C940.3,1210.6,926.4,1217.6,907.5,1225.6z"/>
<path d="M1524.2,1994.4c-0.3,40.3-10,72.8-35.6,99.2c-34,35.1-89.4,36.4-125,3.3c-54.3-50.4-53.2-152.4,2.2-201.2
	c37.9-33.4,92.3-29.4,126.7,9.7C1515.9,1932.1,1524.1,1964.1,1524.2,1994.4z"/>
<path d="M2524.5,2008.4c-1.2,28.3-10.1,65.1-44,91.2c-40.3,31.1-98.1,23.5-128.7-17c-36-47.8-37.2-116-2.9-165
	c43-61.5,119.6-58.1,156.8,7C2518.4,1946.8,2525.3,1970.7,2524.5,2008.4z"/>
<path d="M1924.5,2233.2c-42.3,0.4-81.2-9.7-114.9-36.2c-27.6-21.6-44.7-50-51.5-84.2c-1.8-9.1-3.5-19.9-0.2-27.8
	c3-7.2,12.2-14.6,19.9-16.1c5.4-1.1,14,6.5,18.7,12.3c4.4,5.4,6.2,13.3,7.7,20.5c9.2,43.4,39,66.1,79.1,76.7c32,8.4,64.6,8,96-4.3
	c33-12.9,56.8-35.3,67.7-69.9c1.9-6,4-12,5.8-18c3.6-12,8.9-22.3,24.1-18c14,3.9,20.9,13.5,19,28.3c-4.6,35.5-18.3,66.9-44,92.1
	C2016.5,2223.4,1971.8,2232.3,1924.5,2233.2z"/>
<path d="M1240.6,2134.8c57.5,6.1,109,25.4,153.6,60.5c11.8,9.3,21.2,23.5,27.5,37.4c16.4,36.2-3.8,75.3-43,81
	c-22.3,3.3-46.3,2.7-68.4-1.8c-39.3-8.1-76.1-24.5-107.7-49.4c-14.3-11.3-27.2-26.4-36.1-42.3c-22.5-40.5,8.5-73.9,37.5-80.8
	C1216.1,2136.5,1228.8,2136.2,1240.6,2134.8z M1244.2,2167.9c-3.1,0-6.3-0.1-9.4,0c-16,0.8-33.2,1.7-38.9,20
	c-5.8,18.6,5.3,32,18.9,43.1c4,3.3,8.4,6.4,13.1,8.6c24.5,11.6,48.6,24.7,74.1,33.7c17.3,6.2,36.6,7.9,55.2,9.1
	c13.8,0.9,27.6-3.8,34.1-17.9c7-15.2-2.4-27-12.4-36C1340.5,2194.6,1296.7,2171.4,1244.2,2167.9z"/>
<path d="M2506.1,2313.8c-9.4-0.8-15.7-0.9-21.8-2c-54-9.5-72.2-57.5-38.1-100.8c22.8-28.9,53.7-46.9,87.5-58.9
	c23.5-8.4,48.2-14.2,72.9-18.1c14-2.2,29.5-0.1,43.3,3.6c42.8,11.7,57.6,50.7,34.3,88.6c-4.3,7.1-9.8,13.8-15.9,19.4
	C2621.6,2288.5,2565.2,2307.9,2506.1,2313.8z M2616.6,2167.4c-54.8,1.3-100.6,24.5-140.5,60.7c-9.4,8.5-17.8,19-11.4,33
	c6.3,13.8,18.4,19.4,33.2,19.5c2.1,0,4.2,0,6.3-0.2c49.9-6,95.3-23.7,135.2-54.2c13-9.9,27.9-21.8,20.6-41.6
	C2652.4,2164,2633.2,2168.3,2616.6,2167.4z"/>
</svg>
