<?xml version="1.0" encoding="utf-8"?>
<!-- Generator: Adobe Illustrator 24.3.0, SVG Export Plug-In . SVG Version: 6.00 Build 0)  -->
<svg version="1.1" id="Layer_1" xmlns="http://www.w3.org/2000/svg" xmlns:xlink="http://www.w3.org/1999/xlink" x="0px" y="0px"
	 viewBox="0 0 4000 4000" style="enable-background:new 0 0 4000 4000;" xml:space="preserve">
<path d="M3151.9,1268.1c47.8-9.6,88.6-21.1,130.1-25.5c207.8-22,386.3,33.7,514.8,207c59.2,79.8,94,172.3,105.8,271
	c35.9,298.9-52.4,561.9-242.6,790.5c-154.9,186.3-353.7,304.1-592.3,352.1c-17,3.4-34.3,5.4-51.6,6.6c-22.8,1.6-33.6,11.5-39.4,35.1
	c-19.3,79.4-42.9,157.8-62.8,237.1c-46.9,186.5-169.8,309.2-331.7,400c-152,85.2-315.3,137.1-486.6,165.7
	c-131.2,21.9-263.2,34-396.1,29.3c-208-7.2-412.2-37.4-607.2-113.6c-117.2-45.8-226-107.5-323-188.4c-97.9-81.7-152.7-190-191-308.7
	c-46.1-143-79.6-289-104.8-437c-35.2-206.6-58.8-414.6-76.6-623.4c-30.9-362.3-42-725.2-41.4-1088.6c0.1-38.7,4.2-76.7,20.6-112.5
	c20-43.5,48.4-80.6,84.6-111.9c55.7-48.2,117.6-86.7,184.4-117.4c161-74.1,330.8-118.8,504.7-148.9c56.1-9.7,112.7-16.5,169.2-23.3
	c17.9-2.2,30.7-8.4,37.2-25.4c22.5-58.2,67.8-94,121.5-119.7c121.2-58.2,248.4-83.7,382.7-62.7c42,6.6,81.8,21,117,45.3
	c39.8,27.5,69.5,64.2,83.3,110.9c7.7,26,23.4,34.2,48.4,36.2c182.3,14.2,360.9,49.3,535.9,101.5c120.2,35.8,236.4,82.6,340.9,153.9
	c12.3,8.4,23.7,17.9,35.6,26.9c86.1,65.1,128.3,151.9,128.7,259.6c0.3,78.1,1.3,156.2,1.9,234.3
	C3152,1237.4,3151.9,1250.8,3151.9,1268.1z M462.6,1066.6c-0.9,26.4-2.3,48.3-2.3,70.2c0.3,303.9,16.5,607,39.8,910
	c17,221.4,43.3,441.5,84.8,659.6c26.6,140,56.2,279.5,104.5,414.1c30.5,84.8,69.2,164.5,139.5,224.7
	c68.1,58.4,141.7,108.3,222.6,147.2c179.5,86.1,370.7,123.1,567.9,132.9c178.8,8.9,356.8,1.6,532.7-36
	c165.3-35.3,319.6-96.1,459.5-192.6c93.1-64.3,160.2-146.7,192.7-256c11.3-38,25.1-75.2,35.7-113.4c50.4-180.4,85.1-363.9,113.6-549
	c35.2-229.2,59.5-459.6,77.7-690.5c18.2-229.9,19.7-460.7,18.3-691.3c-0.1-12.9-1.8-25.8-2.8-38.7c-2.5-1.2-5-2.4-7.4-3.6
	c-7.8,9.3-14.3,20.1-23.5,27.5c-34.7,27.9-68,58.3-105.9,81.1c-70.2,42.2-145.8,74.1-223.9,99.1c-239,76.2-484.9,112.8-734.6,122.3
	c-293,11.2-585,1-873.7-57.4c-138.7-28-275.7-62.2-404.4-122.7c-69.6-32.7-138.8-66.6-191.5-125.5
	C478.3,1074.5,472.3,1072.5,462.6,1066.6z M3078.2,1677.1c16.2-11.6,26.8-19.4,37.6-26.9c73.4-51.6,151.8-86.6,244.3-86.9
	c137-0.6,228.5,92.8,243.1,218.6c5.8,49.9,3.6,101.8-2.3,151.9c-13.6,115.4-58.3,220.6-122,316.5
	c-113.8,171.3-268.8,282.2-476.2,311.2c-18.2,2.5-25.7,9.6-28.4,27.1c-7.4,49-16.1,97.8-23.9,146.7c-1.3,8.1-1,16.5-1.5,25.1
	c5.6,1.5,9,3.1,12.5,3.2c7.4,0.2,14.9,0.1,22.3-0.6c79.5-7,156.9-24,230.4-55.3c266.9-113.4,451-305.9,545.2-580.6
	c48.6-141.6,65-287.2,33-435.9c-46.3-214.7-218.6-352.6-437.8-349.1c-88.5,1.4-170.4,28.3-250.3,63.9c-17,7.6-19.9,19.1-20.2,35.2
	c-1.5,65.7-3.8,131.4-5.7,197.1C3077.9,1648.9,3078.2,1659.5,3078.2,1677.1z M2054.2,548.4c-7.5,17.5-1.4,25.6,11.1,29.2
	c10.6,3.1,21.8,4.4,32.8,6.2c106.3,17.2,213.6,30.2,318.8,52.8c110,23.7,219.8,51.3,321.5,102.4c41.1,20.7,81.5,42.7,112.4,77.8
	c59.1,67.2,57.4,151.2-7.9,212.4c-28.5,26.7-62.3,49.4-97,67.7c-68.1,35.9-140.9,61-215.5,80.7c-180.6,47.7-365.3,69.6-551.1,80.2
	c-318.3,18-634.5-0.2-947.2-65.8c-101.1-21.2-198.9-52.4-290.3-101.4c-31.9-17.1-63.2-35.3-85.4-64.6
	c-54.9-72.5-52.3-125.3-5.4-182.2c22.4-27.2,50.8-51.4,80.8-69.8c76.4-46.8,159.3-79.7,246.2-102.4
	c127.3-33.2,256.4-56.3,386.7-73.6c12.2-1.6,24.6-3.8,36.1-7.9c4.3-1.5,9.7-9.9,8.7-13.6c-1.5-5.9-7.6-14.4-12.4-14.9
	c-15.9-1.5-32.3-1.6-48.1,0.8c-133.5,20.6-267.4,39.2-397.9,75.1c-116.2,32-229.4,71.8-334.5,132.2c-51,29.3-98,63-130.9,113.3
	c-36,54.9-33.8,98.4,8.7,149.2c33,39.5,72.8,70.8,117.1,96.6c75.4,43.9,156.4,74.5,239.2,101.2c217.7,70.3,442.7,96.8,669.6,111.2
	c189.6,12,379.1,10.1,568.6-6.8c167-14.9,332.3-39.2,494.2-83.3c114-31.1,224.7-70.7,324.8-135.3c39.8-25.6,77.6-53.6,105.6-92.7
	c39.8-55.6,40-101.2-0.3-157c-27.3-37.8-63.5-65.8-102.8-90.1c-92.6-57.2-193.8-94.5-297-126.1c-170-52-345-80.3-521.1-101.6
	C2079.2,547,2065.8,548.4,2054.2,548.4z M3068.4,2432.9c75.1-15.7,169-66.6,228.9-124.5c96.2-92.8,157.8-205.8,190.1-334.9
	c16.1-64.4,22.9-129.6,7.4-195c-19-80.3-84.3-120.8-165-105.7c-65,12.1-120.7,43.5-174.3,79.9c-12.7,8.6-16.2,20.1-17.7,34.6
	c-20.1,194.7-40.6,389.4-61.1,584.1C3074.6,2390.7,3071.5,2409.9,3068.4,2432.9z M1378.5,1151.9c22.2-3.8,56.3-9,90.2-15.4
	c39.3-7.5,66.1-31.3,84.9-66c30.6-56.5,46.6-116.6,53-180.4c5.5-54.8-16.9-94.3-61.2-121.9c-25-15.6-52.4-27.8-80-38.4
	c-65.5-25.2-134.6-33.8-203.9-36.5c-36.7-1.4-74,3.1-110.5,8.3c-45.6,6.5-78.7,33.5-104,71.3c-34.5,51.5-51.8,109.3-63.4,169.3
	c-12,62-1.2,88.7,50.9,122.8c10.3,6.8,21.4,12.6,32.6,17.6C1162.2,1125.1,1262.7,1143.8,1378.5,1151.9z M2230.4,650.2
	c-46.7,5.2-93.5,9.8-140.1,16c-20.8,2.8-41.4,7.9-61.6,13.7c-61.4,17.6-90.8,56-89.8,119.7c0.7,45.8,2.2,91.7,6.8,137.2
	c8.7,84.6,40.2,120.6,121.7,143.7c14.3,4,28.9,6.9,43.6,9.1c86.5,12.9,173.3,11,259.1-3.5c38.5-6.5,76.1-21,112.6-35.8
	c26.2-10.6,44.5-32.3,47.2-62.2c6-65.7,6.9-131.4-12.2-195.3c-13.6-45.7-40-80.3-84.8-102.5C2368.5,658.4,2300.6,651.5,2230.4,650.2
	z M2034.2,638.1c-19.2-60.1-35.3-114.5-53.8-168c-19.9-57.7-62.6-89.9-121.3-103.8c-83.2-19.7-165.4-13.4-245.7,12
	c-38.6,12.2-76.5,29.2-111.4,49.8c-46.6,27.6-68.6,70.3-57.5,126.2c5.8,29.2,14,58.1,16.7,87.5c3.6,38.4,21.1,59,58.6,70.7
	c59.9,18.6,103.3,57.6,121.4,120.4c1.7,5.7,4.8,11.1,8.1,18.6c79.8,2.8,155-16.3,228.2-43.7c9.7-3.6,20.8-16.4,22.6-26.6
	C1913.7,707.6,1949.2,654.5,2034.2,638.1z M683.2,991.4c6.2-2.8,11.2-4.1,15-7c71.4-53.8,152-87.2,238.6-106.9
	c17.7-4,27.6-14.5,33.7-30.7c18-47.6,38.6-93.8,70.3-134.3c1.6-2.1,0.5-6.3,0.8-11.5c-10,0.9-18.7,0.5-26.8,2.6
	C922,727,832,757.8,750,808.2c-24.1,14.8-47.5,31.9-67.4,51.9C644,899.1,644.7,946.9,683.2,991.4z M2823.8,993.5
	c49.9-38.6,43.7-107.3,11.7-137.5c-25.9-24.5-53.8-48-84.1-66.5c-63.9-39-135.6-60.3-206.7-82.1c-7.7-2.3-15.9-2.9-25.1-4.5
	c0.5,6.6-0.4,10.7,1.2,13.6c22.4,40.5,38.4,83.2,44.1,129.3c2.5,19.6,16.4,24.8,33,29.8C2680,900.3,2761.3,926.9,2823.8,993.5z
	 M1421.3,672.8c-1.2-20-0.3-36.8-18.4-36.8c-30.5-0.1-61.1,3.7-88.9,22.9C1348.4,663.4,1382.8,667.8,1421.3,672.8z M2095.3,625.5
	c-0.1-3.1-0.3-6.2-0.4-9.2c-11.3-3.2-22.7-8-36.7,11C2074,626.5,2084.6,626,2095.3,625.5z"/>
<path d="M2188.5,2403.4c0.5-41.2,13.7-77.9,40.3-109.1c44.2-51.8,118.3-50.8,161.8,1.5c47.2,56.8,49.8,147.8,5.9,207.4
	c-36.2,49.2-105.9,57.6-154.7,17.9C2204.8,2491,2189.8,2450.2,2188.5,2403.4z"/>
<path d="M1271,2400.7c-0.2,45.3-12.6,85.8-47.4,116.8c-47.9,42.7-114.3,37.6-155-11.5c-52.2-63-46.6-160.2,12.4-216.5
	c50.9-48.6,129.1-38,166.1,22.5C1262.2,2336.8,1270.8,2368.9,1271,2400.7z"/>
<path d="M1728.7,2675.9c-43.2,0.8-83.5-9-120-32.5c-39.6-25.5-63.3-61.9-71.8-108c-1.7-9.5-3.4-21.2,0.6-28.9
	c4.4-8.5,14.5-17.2,23.6-19.1c6.2-1.3,17.1,7.2,21.9,14.2c6.2,8.8,8.4,20.4,12.3,30.9c21,57,76.1,92.4,136.4,86.4
	c15.9-1.6,31.7-5.4,47.3-8.8c45.2-10,74.6-36.6,85.7-82.3c2.3-9.6,5.7-19,9.1-28.2c5.7-15,17-20.8,32.4-17.5
	c15.3,3.4,25.3,14.2,22.9,29.1c-3.7,22.9-7.7,46.9-17.8,67.4c-30.1,61-84,88-149.3,95.5C1751,2675.3,1739.8,2675.3,1728.7,2675.9z"
	/>
<path d="M2540.6,2561.9c2.9,0.1,10.4-0.2,17.7,0.9c55.6,8.4,81.2,59.4,52.1,107.3c-10.5,17.2-26.8,32.4-43.6,44.1
	c-38.9,27.2-83.1,44.1-129.3,53.7c-20.1,4.2-42.2,4.6-62.5,1.1c-57.3-9.9-78.8-65.1-45.3-112.5c5.6-8,12.4-15.5,19.6-22.1
	C2391.4,2595.7,2478.9,2562,2540.6,2561.9z M2386.3,2732.9c71.5-4.1,126.7-27.3,177.1-62.7c15-10.6,23.2-26,17.8-45.2
	c-5.1-18.1-19.6-25.2-36.8-25.4c-69-0.7-127.2,26.3-176.9,72.5c-12.2,11.3-20.3,28.8-10,43.4
	C2364.8,2725.9,2380.9,2729.9,2386.3,2732.9z"/>
<path d="M1048.2,2772.4c-63-3.2-122.2-35-175-79.9c-20.4-17.4-31.5-41.1-27.6-69.5c3.9-27.7,21.4-43.4,46.2-52.7
	c30.5-11.4,61.3-7.7,91.3,0.2c45.7,12.2,88.6,31.2,125.6,61.5c5.7,4.7,11.5,9.5,16.6,14.8c22.8,23.9,36.6,51.4,22.7,84
	c-13.2,30.9-41.4,40.5-73,41.5C1068.9,2772.6,1062.7,2772.4,1048.2,2772.4z M1058.4,2732.8c2.5,0,5,0.1,7.4,0
	c17.7-0.8,36.1-2.2,43.9-21.2c8.2-19.8-5.9-33.1-18.9-44.5c-33-29.1-70.9-50.5-113.7-59.8c-22.2-4.8-46.9-5.5-69.1-1.2
	c-25.7,5-30.8,22.6-17.5,44.8c4.4,7.3,9.9,14.4,16.3,20.1C950.1,2709.2,1001.4,2728,1058.4,2732.8z"/>
<path d="M1513.9,838.4c-9.8,7.6-18.7,17-29.6,22.4c-34.1,17-71.4,19.3-108.7,19.3c-79.6,0.1-154-21.6-224.9-56.2
	c-19.9-9.7-38.5-22.4-34.2-55.6c13.7,4.5,25.3,6.8,35.4,12c100.5,50.9,205.8,68.7,317.2,49.3c13-2.3,26.6-1.5,39.9-2.1
	C1510.6,831.1,1512.2,834.7,1513.9,838.4z"/>
<path d="M1387.5,1086.3c18-76.4,41.7-144.7,101.4-193.6c8.9-7.3,21.9-11,33.6-13.1c5.3-0.9,14.8,4.7,17.4,9.9
	c2.5,5,0.4,14.2-2.9,19.7c-3.5,6-10,11-16.3,14.7c-53.4,31.1-76.9,81.3-89.9,138.5c-1.9,8.4-3.7,16.9-5.8,25.3
	c-2.8,11.3-7.9,24.1-20.9,20.2C1396.5,1105.6,1392.1,1092.7,1387.5,1086.3z"/>
<path d="M2454.5,756.8c-5,10.9-6.9,20.9-12.9,26.6c-7.8,7.4-18.2,13.3-28.5,16.5c-116.2,35.2-231.7,37.9-345.4-10.2
	c-32.7-13.8-36.8-21.4-35-59.9c36,6.4,63.9,32.5,98.2,38.9c35.2,6.6,70.6,14.5,106.2,15.6c35.6,1.1,71.5-4.9,107.1-8.8
	C2379.5,771.6,2412,751.6,2454.5,756.8z"/>
<path d="M2003.9,811.5c19.9-5.8,33.4,2.8,42.8,16.2c39.6,56.7,54.7,120.8,54.4,189.1c0,9.7-2.4,22.2-15.7,20
	c-5.7-0.9-14-11-14.2-17.2c-2.8-68.8-25.2-130.5-63.8-186.9c-2-3-3.2-6.7-4.1-10.3C2002.7,820.3,2003.5,817.8,2003.9,811.5z"/>
<path d="M1511.8,497c135.8,34.6,256.6,1,369.2-71.6c11.6,18.3,4.4,30.8-5.1,39.8c-14.2,13.4-29.7,26.4-46.7,35.8
	c-82.7,45.9-172,59.9-265.4,51.9c-9.7-0.8-19.6-3.3-28.8-6.6C1514.9,539.4,1505.7,525.5,1511.8,497z"/>
</svg>
