<?xml version="1.0" encoding="utf-8"?>
<!-- Generator: Adobe Illustrator 24.3.0, SVG Export Plug-In . SVG Version: 6.00 Build 0)  -->
<svg version="1.1" id="Layer_1" xmlns="http://www.w3.org/2000/svg" xmlns:xlink="http://www.w3.org/1999/xlink" x="0px" y="0px"
	 viewBox="0 0 4000 4000" style="enable-background:new 0 0 4000 4000;" xml:space="preserve">
<path d="M615.2,2344.5c-39.9-4-76.2-7.4-112.4-11.2c-13.1-1.4-26.3-2.8-39.2-5.5c-33.5-6.9-53.6-37.1-45.6-70.1
	c3.8-15.6,9.9-31,17-45.4c59.2-121.3,118.6-242.5,178.9-363.3c10.3-20.6,24.1-39.9,38.5-58c8.9-11.1,12.8-21.7,12.9-35.7
	c1.2-262,2.8-524.1,4.2-786.1c0.6-108.7-0.6-217.4,1.3-326c1.9-106.6,6.2-213.1,10.4-319.6c0.8-19.1,5.1-38.3,9.9-56.8
	c23.6-91.6,84.8-146.9,174.3-168.6c47.9-11.6,98.1-17.9,147.5-19.1c552.3-14.3,1104.8-19.5,1657.3-15.2
	c80.2,0.6,160.6,0.5,239.9,14.3c22.9,4,45.8,9.6,67.6,17.4c109.2,39.2,156,124.2,164.8,233.6c4.9,61.7,5.2,123.8,6.4,185.7
	c3,152.3,5.2,304.6,7.9,457c4.4,249.8,8.9,499.6,13,749.4c0.3,16.1,4.5,28,15.5,40.6c89.9,102.1,178.9,204.9,267.8,307.9
	c15.9,18.4,31,37.7,45,57.6c27.7,39.2,21.7,68.7-18.6,94.9c-41.7,27.1-83.7,53.7-125.4,80.8c-17,11-33.2,23.3-50.4,33.8
	c-10.2,6.2-12.9,14.7-12.9,25.5c0,26.4-0.3,52.8-0.3,79.2c0.5,314.8,1.5,629.7,1.3,944.5c0,62.9-2,125.9-7.1,188.6
	c-4.9,60.8-29.6,115.8-63.2,166.3c-46.2,69.3-114.8,105.7-193.8,121c-56.5,10.9-114.7,18.4-172.2,18.9
	c-355.5,3-710.9,4.4-1066.4,4.7c-246.8,0.2-493.6-1.4-740.4-4.5c-50.3-0.6-100.9-9.6-150.7-18.3c-54.9-9.6-103.8-35-147.7-69
	c-64-49.5-100.7-116.5-116-194.5c-8.3-42.6-13-86.6-13.4-130c-2.8-330.1-4.1-660.1-5.8-990.2C615,2435.3,615.2,2391.8,615.2,2344.5z
	 M3168.4,2431.8c-8.3,5.4-11.8,7.2-14.8,9.6c-102.5,83.1-205,166.3-307.5,249.4c-18.9,15.3-37.9,30.7-57.5,45.2
	c-21.4,15.8-44.5,18.6-68.7,5.8c-9-4.8-18.1-9.2-26.8-14.4c-55-32.7-109.8-65.5-164.8-98.2c-96.8-57.7-193.5-115.4-290.4-172.9
	c-69.8-41.4-140.2-82-209.7-123.9c-19-11.5-37-13-57.8-6.1c-66.4,22.2-134.1,40.6-199.5,65.5c-143.2,54.5-285,112.3-427.7,168.2
	c-50,19.6-100.5,38.3-151.2,55.9c-33.2,11.5-60.3,1.7-84.3-25.1c-59.7-66.5-121.8-130.7-181.5-197.2c-22.4-24.9-46.1-41.7-81-37.7
	c-5.9,0.7-12-1.7-18.1-2.2c-29.1-2.1-58.1-4.1-89.9-6.3c-0.8,20.3-2.1,38.4-2.1,56.4c0.1,121.9,0.1,243.7,0.9,365.6
	c1.7,239.6,3.5,479.3,6.5,718.9c0.4,32.2,5.5,64.9,13,96.2c10.8,45.4,34.1,84.7,71.7,113.8c37.6,29,79.4,49.8,126.8,55.4
	c45.2,5.4,90.9,10.6,136.3,10.7c543.3,0.9,1086.6,1,1629.9,0.7c62.9,0,126-2,188.7-7.2c41.2-3.4,82.6-11.2,122.4-22.4
	c59.6-16.7,100.6-56.9,119-116.2c9.5-30.7,15.9-63.2,18-95.2c3.8-58.7,4.7-117.7,4.6-176.6c-0.5-293.5-1.8-587-2.8-880.4
	C3170,2457,3169.1,2447,3168.4,2431.8z M1571.6,2013.7c0.6-13.5,1.3-22.5,1.4-31.5c0.2-70.1,0-140.2,0.6-210.2
	c0.2-20.3,1.9-40.5,3.7-60.7c1.8-21,11.4-38.5,25.5-54.1c22.1-24.5,49.9-32.9,82-32.7c131,0.7,262.1,1.7,393.1,0.5
	c34.4-0.3,60.7,11,84.2,34.1c34.3,33.8,58.1,70,55.8,122.5c-3.5,81.1-1,162.5-1,243.7c0,12,0,24,0,36c35.3-1.6,59.2-6.9,79.9-17.8
	c0-24.4-0.1-49.7,0-75c0.2-80.2-0.2-160.5,1-240.7c0.9-61.2,34.1-95.4,95.5-99.9c24.3-1.8,48.7-1.8,73.1-1.9
	c87.3-0.4,174.7-0.5,262.1-0.7c29.4-0.1,58.9-0.2,88.3,0.5c8.9,0.2,19,1,26.5,5.1c50.5,27.6,86.3,67.1,94.1,126.3
	c4,30.7,5.3,61.7,8.2,96.8c36.2-19.3,69.3-36.2,101.4-54.9c4.9-2.9,6.8-14,7-21.3c0.4-27.4-0.3-54.8-0.9-82.3
	c-5.8-270.1-12.1-540.2-17.4-810.3c-3.3-163.5-5-327-7.9-490.5c-0.5-27.4-3.1-54.8-6.1-82c-6.1-55.3-35.3-91.9-90.2-105.5
	c-22.6-5.6-45.5-12.1-68.5-13.6c-71.9-4.7-143.9-9.7-215.9-10.1c-497.7-2.6-995.4-0.9-1492.9,12.3c-50.8,1.3-101.6,1.6-152.3,4.7
	c-33.3,2-67.1,5.1-99.4,13.2c-53.2,13.3-99.3,46.1-102,116.3c-0.6,16.2-2.1,32.4-2.3,48.7c-2.4,159.4-5.7,318.8-6.7,478.3
	c-2.1,312.8-3,625.6-4,938.4c0,5.9,3.8,15.7,8.1,17.2c19.5,6.9,39.9,11.5,64.7,18.2c0-38.7-0.4-72.1,0.1-105.5
	c0.8-52.2,32.8-100,99.9-98.7c45.7,0.9,91.4-0.6,137.1-0.6c87.4-0.2,174.7-0.1,262.1-0.1c21.5,0,43.4,0.4,61.6,13.3
	c45,31.7,77.6,70.8,77.1,130.1c-0.5,66,0.3,132,0.8,198.1c0.1,8.9,1,17.8,1.5,27.4C1523.7,2001,1546,2006.9,1571.6,2013.7z
	 M1978.5,2197.5c9.5,6.5,14.7,10.7,20.4,13.8c20.5,11.2,41.5,21.3,61.6,33.1c110.5,64.4,220.7,129.3,331.2,193.9
	c108.7,63.6,217.8,126.2,325.7,191.1c24.4,14.7,26.3,16.8,49.8-2.1c125.7-101.3,250.9-203.4,377.6-303.4
	c67.7-53.4,138.3-103,207.5-154.4c6.1-4.5,11.5-10.1,18-15.8c-42.7-49.5-83.1-97.7-125-144.6c-41.6-46.6-78.4-97.6-121.1-136.3
	c-89.2,38.9-172.4,79.5-258.6,111.8c-202,75.8-411.7,124.5-623,166C2157.2,2167.3,2071.1,2181.1,1978.5,2197.5z M1891.5,2252.7
	c-16.1-8-24.9-12.8-34.1-16.8c-51-22.7-102.2-44.8-153-67.8c-123.2-55.8-250.9-98.7-381.6-133.1c-78.4-20.6-157.1-40.4-236-59
	c-112.5-26.4-225.3-51.6-338.1-76.8c-25.2-5.6-26.2-5.1-37.5,17.5c-45,89.8-89.5,179.8-134,269.8c-5.7,11.5-10.5,23.5-17.4,39.1
	c22.8,2.2,41.6,3.8,60.4,5.8c87.7,9.6,175.3,20.2,263.1,28.3c31.2,2.9,56.9,13.8,78.3,35.4c25.7,26,51.2,52.1,75.9,79
	c44.5,48.4,88.4,97.5,134.5,148.4C1409.9,2435.8,1639.4,2324.9,1891.5,2252.7z M2156.2,1768.2c-145,1.5-286.6,3-426,4.5
	c-3,5.9-4.6,7.7-4.6,9.5c-0.2,92.4-0.3,184.7-0.4,277.1c0,10.6,5.3,16.3,15,20.1c23.5,9.4,47.1,18.9,69.9,29.9
	c22.2,10.6,44.8,11.5,68.3,8.2c86.4-12,172.8-23.7,259.2-35.7c5.8-0.8,11.4-3.6,18.5-5.9C2156.2,1974.2,2156.2,1873,2156.2,1768.2z
	 M2447.1,1772.2c1.5,82.7-2.5,160.4,0.1,241.1c34.1-8,63.5-15.1,93-21.9c107.9-25.1,213.6-57.3,316.2-99.1
	c15.3-6.3,23-14.1,21.7-31.3c-1.2-15.1,0.6-30.4,0.6-45.7c0-14.8-0.6-29.5-0.9-46.3C2733.3,1772.2,2592.5,1766.1,2447.1,1772.2z
	 M1010.1,1867.3c142.6,34,284.1,67.6,427,101.7c0-64.5,0-130.8,0-196.8c-58-7.7-400.4-3.3-427,5.7
	C1010.1,1807.3,1010.1,1837.3,1010.1,1867.3z M953.8,1685.7c18.8,24,36.7,31.5,59.8,31.2c120.8-1.8,241.5-2.7,362.3-4.2
	c6.5-0.1,13-2,20.1-3.2c-1-15.6-9.5-21.8-21.4-23.9c-8.9-1.6-18.1-2.5-27.2-2.6c-120.8-0.5-241.6-0.9-362.3-1
	C976.5,1682,967.8,1684,953.8,1685.7z M1673.8,1685.1c13.5,21.9,27.6,31.3,49.5,31c122.8-1.5,245.7-2,368.5-3
	c7.6-0.1,15.2-1.3,24.7-2.1c-3.2-15-10.7-22.2-22.4-24.7c-8.9-1.9-18-3.5-27-3.6c-123.9-0.4-247.7-0.6-371.6-0.7
	C1689.8,1681.9,1684.1,1683.5,1673.8,1685.1z M2836,1710.8c-2-5.3-2.6-9.4-4.7-12.4c-10.8-15.5-27.6-15.5-43.9-15.6
	c-122.8-0.6-245.7-1-368.5-1.3c-6.5,0-13,1.7-20.9,2.8c18.8,24.8,29.6,31.5,50.3,31.3c122.8-0.8,245.6-1.6,368.5-2.5
	C2822.5,1713.1,2828.3,1711.8,2836,1710.8z M2353.6,1730.7c0,103.9,0,202.5,0,301.1c35.9-0.4,38.6-2.4,38.5-34.6
	c-0.2-69.9-1.4-139.7-1.4-209.6C2390.6,1762.9,2380.9,1745.3,2353.6,1730.7z M1637.4,1734.9c-7.2,26.5-8.5,271.1-2,304.1
	c9.2,2.8,19.4,5.9,33.3,10.2c0.7-14.5,1.7-25.3,1.7-36.1c0.1-76.1-0.9-152.3,0.5-228.4C1671.5,1759.6,1662.4,1744.5,1637.4,1734.9z
	 M913.1,1731c-0.8,39.9,0.6,76.5,1.5,115.1c11.8,2.7,22.1,5.1,36.6,8.4c0.8-25.3,1.2-47.1,2.3-68.8
	C954.9,1758.7,941.1,1743,913.1,1731z"/>
<path d="M976.1,2805.1c0,38.6,0.1,77.2-0.1,115.7c-0.1,12.2,0,24.4-1.5,36.5c-4.6,38.4-31.4,64.1-67.9,65.9
	c-40.7,2-69.8-18-79.3-56.1c-3.2-12.7-4.7-26-4.8-39.1c-0.7-84.3-1.1-168.5-0.9-252.8c0-14,1.8-28.6,6-41.9
	c11.6-37.3,43.4-57.3,82-53.4c35.2,3.5,60.4,27.2,62.5,67c2.7,52.6,0.7,105.5,0.7,158.3C973.9,2805.1,975,2805.1,976.1,2805.1z
	 M931.8,2806.2c-0.5,0-1.1,0-1.6,0c0-41.6,0.3-83.3-0.2-124.9c-0.1-11.1-1.6-22.4-4.2-33.1c-3.2-12.8-11.6-21.5-25.9-21.7
	c-15.2-0.1-25.1,8.3-28.8,22.4c-2.5,9.7-3.2,20.1-3.3,30.2c-0.6,82.2-0.9,164.5-0.9,246.8c0,9.1,1.1,18.4,3.3,27.1
	c4.8,19.5,15.2,27.6,31.6,26.2c16.1-1.4,26.5-11.6,29.1-29.9c1.1-8,0.9-16.2,0.9-24.3C931.8,2885.4,931.8,2845.8,931.8,2806.2z"/>
<path d="M1572.5,577.9c0-71.1-0.2-142.1,0.1-213.2c0.2-37.1,9.9-71,41.6-93.5c11.9-8.4,26.8-13.8,41.2-17.2
	c13.6-3.3,28.2-2.9,42.4-3c123.8-0.3,247.7,1.4,371.5-1.1c73.2-1.5,108,46.2,140.6,98.7c5.9,9.5,6.6,23.5,6.6,35.4
	c0,132-2.3,264-0.4,395.9c0.9,59.3-69.2,129.4-130.7,127.6c-128.8-3.8-257.8-1.2-386.7-2.6c-22.9-0.3-47.6-2.8-68.1-11.9
	c-39.8-17.6-57.7-52.4-57.8-95.8c-0.2-73.1-0.1-146.2-0.1-219.3C1572.6,577.9,1572.5,577.9,1572.5,577.9z M2158.1,781.6
	c0-129.4,0-255.8,0-384.9c-146.1,0.9-288.5,0-433.4,2.6c0,121.2,0,238.3,0,357.8c13.6,0.8,25.5,2.1,37.4,2.2
	c99.5,0.7,199,1,298.4,1.8C2094.5,761.3,2129.9,755,2158.1,781.6z M1632.9,360.2c0,147.1,0,291,0,435.5
	c32.2-12.6,36.4-17.8,36.4-48.6c0.1-112.6-0.7-225.2,0.1-337.7C1669.6,383.7,1656.8,371.2,1632.9,360.2z M1670.8,308.6
	c10.2,28.5,28.9,32,50.6,32c125.7-0.4,251.4-0.5,377.1-0.9c6.4,0,12.7-2.4,24.2-4.7c-8.8-9-13.3-17.3-19.6-19.2
	c-14.3-4.2-29.5-7-44.3-7.1c-120.6-1.3-241.2-2-361.8-2.7C1689.2,305.9,1681.5,307.5,1670.8,308.6z M1678.5,846.9
	c22,0,39.9,0,57.8,0c109.5-0.2,219.1-0.3,328.6-0.7c13.1,0,26.3-1,39.3-3c3.5-0.6,8.4-6.5,8.7-10.3c0.3-3.8-3.6-10.5-7-11.5
	c-9.5-2.7-19.7-4.2-29.7-4.3c-112.6-0.8-225.1-0.8-337.7-2C1714.2,814.8,1695,821.4,1678.5,846.9z"/>
<path d="M856.9,577.7c0-76.1,0.1-152.3-0.1-228.4c-0.1-22.2,6.9-41.6,19.7-59.6c15.1-21.2,34.8-33.8,61-35
	c18.3-0.8,36.5-1.7,54.8-1.8c120.8-1,241.6-2.1,362.4-2.6c84.5-0.4,147.6,62,147.6,146.7c-0.1,128.9-1,257.9-2,386.8
	c-0.5,62.8-50.7,116.6-113.2,122.4c-4,0.4-8.1,0.6-12.2,0.6c-138.1-0.1-276.2-1.7-414.2,0.5c-50.3,0.8-107.1-49.9-105.1-104.3
	c2.8-75,0.7-150.2,0.7-225.3C856.6,577.7,856.8,577.7,856.9,577.7z M1442.5,397.1c-5.3-0.8-9.1-1.9-12.9-1.9
	c-131.9,0.2-263.8,0.4-395.6,0.9c-8.7,0-17.4,2.3-26.6,3.5c0,121,0,239.1,0,361.2c14.1,0,26-0.1,37.9,0c65.9,0.5,131.9,0,197.8,1.8
	c66.2,1.8,132.8-5.1,199.4,10.9C1442.5,646.9,1442.5,522.6,1442.5,397.1z M912.9,799.5c27.5-13.8,39.3-30,38.9-57.3
	c-1.4-111.7-1.1-223.3-1.7-335c-0.1-26.3-8.3-35.4-37.2-43.1C912.9,508.3,912.9,652,912.9,799.5z M1407,337.9
	c-8.7-26.7-25.6-28.7-43.3-28.8c-124.6-0.4-249.2-0.6-373.8-0.7c-9.6,0-19.2,1.7-32.8,3c13.2,23.6,29.6,29.9,51.6,29.7
	c121.6-0.9,243.2-0.9,364.7-1.4C1383.1,339.7,1392.8,338.7,1407,337.9z M963.4,844.7c8.5,1.3,14.3,2.9,20,2.9
	c127.8-0.1,255.6-0.1,383.5-0.9c11.9-0.1,31.5,3.3,30-16c-1.4-17.5-19.8-13.1-32.4-13.2c-53.8-0.5-107.5-0.7-161.3-1
	c-64.9-0.3-129.9-0.4-194.8-1.1C988.6,815.3,972.5,820,963.4,844.7z"/>
<path d="M2297.5,574.7c0-72.1-0.1-144.2,0.1-216.3c0-21.5,2.3-42.5,14.9-61.2c18.6-27.4,40.7-45.1,77.2-45
	c139.1,0.4,278.2-1.3,417.4-2.4c24.7-0.2,46.6,7.5,63.5,24.9c19,19.5,38.2,39.7,53,62.4c8.7,13.4,12.4,32.3,12.6,48.8
	c1.4,88.3,1.2,176.7,1.3,265.1c0.1,40.6-2.8,81.4,0.1,121.8c4.5,63.8-58.7,135.2-133.5,133.6c-86.3-1.8-172.6-0.4-259-0.8
	c-47.7-0.2-95.5,0.5-143.1-2.2c-67-3.7-103.5-42.6-104.2-109.4C2296.9,721,2297.5,647.8,2297.5,574.7
	C2297.5,574.7,2297.5,574.7,2297.5,574.7z M2877.2,778.5c6.7-45.8,4.8-360.6-1.5-381.4c-49.6-5.2-406.1,0.2-430.5,7.2
	c2,116.3-2.1,233.3,0.3,352.4c16,0.8,28,1.8,39.9,1.9c99.5,0.7,199,1.1,298.5,1.8C2815,760.6,2846.9,756.4,2877.2,778.5z
	 M2353.1,795c29.6-12.5,38-32.5,37.8-59.3c-0.6-107.3-0.3-214.7-0.5-322c0-7.1,0.2-14.5-1.8-21.1c-5-16.8-14-30.1-35.5-33.7
	C2353.1,504.6,2353.1,648,2353.1,795z M2843.9,338.2c-14.8-29.3-37.7-29.1-59.9-29.4c-119.5-1.1-239-2-358.5-2.7
	c-9.6-0.1-19.1,1.6-32.4,2.8c16.2,24.4,34.8,32.2,58.8,32.1c121.5-0.4,243.1-0.2,364.6-0.4C2824.2,340.6,2832,339.3,2843.9,338.2z
	 M2401.1,846.5c17,0,29.9,0,42.9,0c88.1-0.3,176.2-0.5,264.3-0.9c31.4-0.1,62.8-0.1,94.2-0.9c11.7-0.3,29.4,0,29.8-13.8
	c0.6-18.8-18.3-14.4-30.5-14.5c-66.8-0.6-133.7-0.4-200.5-1c-49.6-0.4-99.2-1.3-148.8-2.4C2430.6,812.5,2412.6,817.9,2401.1,846.5z"
	/>
<path d="M1572,1263.1c0-71.1-0.1-142.2,0-213.3c0.1-67.6,41.9-111.1,109.4-111.5c135.1-0.8,270.2-0.2,405.3-0.6
	c24.6-0.1,45.3,7.2,64,23.3c25,21.5,46.6,45.5,60,75.7c4.4,9.8,6.8,21.4,6.8,32.1c-0.2,132-0.4,264.1-2.1,396.1
	c-0.7,56.7-35,93.5-81.6,119.2c-11.6,6.4-27.5,7-41.4,7.1c-105.6,0.6-211.3,0.6-316.9,0.5c-33.5,0-67.1-0.4-100.5-1.8
	c-64.1-2.5-101.7-40-102.6-104.4c-1.1-74.1-0.3-148.3-0.3-222.5C1572.2,1263.1,1572.1,1263.1,1572,1263.1z M1721.9,1084.9
	c1.6,121-1.8,238.8,1.3,359.5c14.2,0,24.2-0.1,34.2,0c101.5,0.9,203.1,1.5,304.6,2.8c33.8,0.4,68.9-5.7,98.4,20.4
	c0-129.9,0-256.3,0-382.7C2013.8,1084.9,1870.2,1084.9,1721.9,1084.9z M2120.2,1028c-8.5-28.3-9.8-30.4-37.5-30.8
	c-129.7-1.8-259.4-3-389.1-4.1c-7.3-0.1-14.7,2.4-26.4,4.4c15.7,18.1,25.9,32.2,49.3,31.9c123.6-1.3,247.3-1.1,370.9-1.4
	C2097.5,1028,2107.5,1028,2120.2,1028z M1631.7,1487.5c24.3-14.3,38.4-26.7,38.2-52.4c-1-113.5-0.4-227.1-0.7-340.7
	c-0.1-25.5-8.6-34.9-37.4-42.8C1631.7,1195.5,1631.7,1339,1631.7,1487.5z M1678.9,1533.7c138.7,0,271.7,0,404.6-0.1
	c5,0,11.1,0.6,14.9-1.9c5.9-3.9,10.3-10.2,15.4-15.4c-5.1-3.9-9.6-9.8-15.4-11.3c-8.7-2.3-18.1-1.8-27.2-1.9
	c-83.3-1-166.5-1.9-249.8-2.8c-29.4-0.3-58.9-0.8-88.3-1.1C1710,1499,1693.6,1509.7,1678.9,1533.7z"/>
<path d="M2297.8,1263.6c0-75.1,0.3-150.2-0.2-225.3c-0.2-28,9-51.3,28.1-71.6c17.6-18.7,37.6-29,64.2-28.9
	c139.1,0.3,278.1-0.2,417.2-0.6c21.2-0.1,39.8,6.3,56.7,18.6c28.3,20.6,50.4,47.1,69,76.4c4.7,7.4,6.6,16.9,8.3,25.7
	c1.7,8.9,2.2,18.2,2,27.3c-1.7,125.8-2.5,251.7-5.7,377.5c-1.9,74.4-55.8,127.9-130.6,128.5c-137,1.2-274-1.5-411.1-0.6
	c-54.3,0.3-100.1-47.8-98.6-101.7c2.2-75,0.5-150.2,0.5-225.3C2297.8,1263.6,2297.8,1263.6,2297.8,1263.6z M2881.3,1464.5
	c0-131,0-255.2,0-379.2c-45.7-6-412-2.4-434.1,4.7c0,116.3,0,233.4,0,352.6c10.1,0.7,18.9,1.8,27.7,1.9
	c101.4,0.9,202.8,1.5,304.2,2.5C2812.2,1447.4,2846,1442.8,2881.3,1464.5z M2354.2,1046.2c0,147.8,0,291.1,0,435.8
	c29.8-10,38.5-29.6,38.3-56.9c-0.8-98.5-0.4-196.9-0.7-295.4c0-14.2-0.4-28.5-2.5-42.5C2386.4,1068.4,2376.7,1054.2,2354.2,1046.2z
	 M2394.4,995.2c13.4,22.7,29,33.3,52.4,33.3c122.6-0.3,245.2-0.2,367.8-0.5c8.4,0,16.8-1.8,28.6-3.2c-5.3-8.7-7.1-16.3-11.3-17.8
	c-12-4.6-24.8-9.3-37.4-9.6c-123.6-2.1-247.2-3.3-370.8-4.5C2415.1,992.7,2406.4,994.2,2394.4,995.2z M2402.3,1532.4
	c7.7,1.1,11.5,2.1,15.4,2.1c124.6-0.7,249.1-1.4,373.7-2.5c11-0.1,22.3-1.9,32.9-4.8c8.6-2.4,13.1-9.2,8-20.8
	c-6.7-1.1-14.5-3.5-22.3-3.6c-119.5-1.5-239-2.5-358.5-4C2428.9,1498.5,2413.6,1508.4,2402.3,1532.4z"/>
<path d="M857.5,1259.5c0-72.1,2.3-144.3-0.7-216.3c-2.5-60,51.2-106.4,105.2-105.7c137.1,2,274.2,0.3,411.3-0.4
	c28.2-0.2,51.9,8.3,70.4,29.6c14,16.1,28,32.2,40.5,49.4c10.9,15,15.8,32.4,15.7,51.5c-0.3,73.1,0.1,146.2-0.1,219.3
	c-0.1,60.9-0.4,121.9-1.1,182.8c-0.7,61.7-48.6,114.4-110.3,121.3c-16.1,1.8-32.4,2.5-48.6,2.5c-114.8-0.4-229.5-1.1-344.3-1.8
	c-12.2-0.1-24.5-2.1-36.5-1c-50.3,4.4-104.7-50.7-103-102.7c2.5-76.1,0.6-152.3,0.6-228.5C857.1,1259.5,857.3,1259.5,857.5,1259.5z
	 M1004.8,1447.1c29,0,54.1-0.2,79.2,0c59.9,0.5,119.7,0.1,179.5,2c59.1,1.8,118.7-7.4,178,9.3c0-125.6,0-249,0-375.4
	c-19.6,0-37.6,0-55.5,0c-116.7,0.3-233.3,0.4-350,1c-29.8,0.2-30,0.8-30.2,31.3c-0.5,88.3-0.7,176.5-1,264.8
	C1004.7,1400.3,1004.8,1420.5,1004.8,1447.1z M912.9,1486c25.5-13.1,38.3-26.4,38.1-51.7c-1-113.6-0.6-227.2-1-340.8
	c-0.1-24.5-9.4-34.9-37.1-43.9C912.9,1193.7,912.9,1337.3,912.9,1486z M1403.4,1028.4c-4.6-27.3-19.4-31.5-36.4-31.7
	c-128.8-1.1-257.7-2-386.5-2.7c-7.4,0-14.8,2.8-24.7,4.7c14.6,24.3,33,31.6,57.5,31.3c115.7-1.1,231.3-1.2,347-1.7
	C1373.2,1028.3,1386.2,1028.4,1403.4,1028.4z M963.9,1533.3c11.2,0.7,19.9,1.8,28.6,1.8c72.1-0.1,144.2-0.5,216.3-0.7
	c49.8-0.2,99.5,0.1,149.3-0.6c11-0.1,22.3-2.1,32.7-5.5c3.9-1.3,7.4-9.1,7.8-14.1c0.2-2.8-6.2-8.1-10.2-8.8
	c-9.9-1.8-20.2-2-30.3-2.1c-112.7-0.9-225.4-1.7-338.1-2.5c-8.1-0.1-16.3,0-24.3,1.1C978.8,1504.1,969.7,1514.8,963.9,1533.3z"/>
</svg>
