<?xml version="1.0" encoding="utf-8"?>
<!-- Generator: Adobe Illustrator 24.3.0, SVG Export Plug-In . SVG Version: 6.00 Build 0)  -->
<svg version="1.1" id="Layer_1" xmlns="http://www.w3.org/2000/svg" xmlns:xlink="http://www.w3.org/1999/xlink" x="0px" y="0px"
	 viewBox="0 0 4000 4000" style="enable-background:new 0 0 4000 4000;" xml:space="preserve">
<path d="M2355.7,599.3c4-12.2,6.6-19.8,8.9-27.5c23.2-78,47.5-155.6,69.2-234c25.1-90.6,87.9-142.1,173.2-169.7
	c22.7-7.3,48.1-8.2,72.3-8.8c111.5-2.6,223-4,334.6-6c39.9-0.7,79.8-0.9,119.6-3.7c40.6-2.8,67.8,15.8,83.7,50.6
	c24,52.5,24.2,105.8-2.7,157.7c-14.8,28.7-37.1,46.8-71.4,46.8c-22,0-43.9,1.8-65.9,2.3c-111.5,2.1-223,4-334.6,6.2
	c-13,0.3-26,1.4-38.9,2.6c-17.3,1.6-28.2,10.9-33,27.8c-10.2,36-21,71.8-30.8,108c-20.8,77-41.1,154.1-61.5,231.2
	c-1.4,5.4-2.3,10.9-3.1,14.8c24.3,18.9,48.7,35.2,70,54.9c53.4,49.4,83.5,111.7,92.5,183.6c2,15.8,12,21.6,22.2,29.4
	c28.4,21.7,58.5,41.5,84.4,65.9c83.4,78.6,131.3,177,152.7,288.5c6.6,34.2,8.9,69.2,13.4,105.9c13.6,6.7,28.8,14.2,44.1,21.6
	c35.3,17.1,57.3,44.7,65.5,83.1c11.3,52.5,22,105.1,33.9,157.5c8.3,36.8-1.6,68.7-27.1,94.3c-25.7,25.8-53.6,49.9-83,71.4
	c-14.6,10.7-22.2,21.6-25,38.8c-21,126.8-42.5,253.6-63.9,380.3c-22,130-44.4,259.9-66.4,389.8c-35.2,208.6-70.2,417.2-105.4,625.8
	c-12.6,74.6-25.6,149.2-38.4,223.8c-7.6,44.3-35.2,74.2-71.1,97.7c-52.2,34.3-109.7,56.8-169.5,73.5c-89.6,25-181,38.9-273.9,45.7
	c-119.9,8.7-239.3,4.4-358.1-11.6c-96.1-12.9-190.3-35.5-279.9-74.2c-35.2-15.2-68-34.7-98-59c-27.3-22.1-43.7-49.8-49.2-84.3
	c-9.4-58.7-19.2-117.2-28.8-175.9c-17-102.8-33.9-205.5-51-308.2c-23.8-142.9-47.7-285.7-71.8-428.5
	c-21.8-129.2-44-258.3-65.9-387.4c-17.7-104.3-35.4-208.6-52.5-313c-2.4-14.8-7.8-24.9-21.3-32.7c-31.8-18.4-60.4-41.2-85.5-68.4
	c-26.9-29.2-36.3-61.7-27-101.1c10.6-45.1,19.2-90.7,27-136.4c8.8-51.5,34.7-90,84-108.1c27.1-9.9,32.3-25.4,33.2-52.4
	c4.7-132.8,60.2-241.6,164.3-324.2c28.5-22.6,61.1-40.1,92.3-59.3c9.6-5.9,16.1-11.1,17-23.9c6.7-96,44-179.4,107.7-250.9
	c81.8-91.9,185.2-144,306.1-162.8c31.3-4.9,62.7-9.6,94-14.6c20.3-3.2,39.7-8.9,56.3-21.8c23.1-18,29.9-45.5,17.4-72
	c-3.8-8.1-9-15.5-13.3-23.3c-17.5-31.6-1.1-64.9,35.1-67.2c21.7-1.4,44,0.7,65.5,4.7c72.5,13.6,137.8,43.4,194,92
	c5.5,4.8,10.5,10.2,15.6,15.4C2342.5,584.9,2347.2,590.2,2355.7,599.3z M1278,2167.8c0.8,10.2,0.9,17.4,2.1,24.4
	c24.7,146,49.6,291.9,74.4,437.9c22.3,131.5,44.7,263.1,66.9,394.6c13.2,77.8,26.7,155.6,38.7,233.5c3,19.4,11.7,30.6,29.8,36.5
	c26.3,8.6,51.9,19.2,78.4,26.9c146.9,42.7,297.1,64.7,449.7,70.6c147.6,5.8,294.5-3.1,440-28.8c85.8-15.1,170.4-34.8,251.7-67.2
	c14.4-5.7,22.3-13.1,24.8-29.1c9.9-65.1,20.8-130.1,31.9-195c21.6-126.7,43.8-253.2,65.3-379.9c25.9-152.3,51.6-304.7,77.2-457
	c3.5-20.6,6.3-41.3,10.1-66.5c-11.2,3.6-18.6,5.6-25.7,8.5c-10.5,4.3-20.6,9.8-31.1,14c-87.9,35-179.1,58.9-271.4,78.4
	c-73.3,15.5-147.5,24.3-222.1,30.8c-99,8.5-198.1,13.1-297.5,9.9c-104.2-3.4-207.9-12.5-311.1-26.5
	c-125.9-17.1-249.8-44.1-371.5-80.4C1352.7,2192.9,1317.4,2180.6,1278,2167.8z M2108.1,537.9c1.8,12,2.9,19,3.9,26.1
	c3,21.3,2,42.1-5.6,62.5c-16.7,45.1-51,71.4-95.4,83.3c-35.2,9.4-71.6,14.8-107.8,20.2c-51,7.7-100.8,19.2-146.9,42.9
	c-143.6,73.8-231.1,184.7-231.4,352.5c0,14.2-7.6,19.3-18.3,25.2c-35.5,19.6-72.5,37.6-105.3,61.2
	c-88.1,63.4-135.6,151.6-148.6,258.8c-5.8,48.2,0.6,95.4,9.2,143.1c4.5,25.1,15.5,37.1,38.1,43.1c51.1,13.5,101.5,30.1,153.1,40.8
	c155.8,32.5,313.8,47.1,472.6,51.9c242,7.3,483.3-1.1,723.2-37.3c87.8-13.2,173.7-34.7,258-62.7c15.3-5.1,25.4-12.3,27-29.8
	c5.2-55.9,10.7-111.7,1.4-167.9c-25.5-153.2-102.6-270.5-239.6-346c-14.3-7.9-21.7-15.6-22-33.1c-1.4-78.1-33.9-141.3-95.3-189.4
	c-16.4-12.8-33.8-24.3-57.2-30.3c-8.8,33.3-17,64-25.5,96.2c15.8-3.3,28.6-6,42.8-9c-0.1,24.6-14.3,33.4-30.8,39.6
	c-58.6,22-116.5,18.9-173.4-5.8c-28.2-12.2-51.6-31-68.6-56.9c-5.7-8.7-11.6-18-0.6-31.1c11.4,9,22.2,17.6,34.4,27.3
	c3.4-6.4,6.8-11,8.3-16.2c14.4-48.3,28.7-96.6,42.5-145.1c1.9-6.7,3-15.1,0.5-21.2c-27.1-66.5-66.3-123.1-132.7-156.5
	C2184.3,557.6,2149.4,545.6,2108.1,537.9z M1226.4,1584c-19.9,8.3-34.1,14.1-48.1,20.3c-23.2,10.2-37.2,26.5-41.7,52.7
	c-8.1,48.1-18.3,95.9-28.1,143.7c-3.2,15.8,0.5,28.4,11.9,39.9c31.2,31.5,65.1,59.7,106.3,76.5c44.3,18.1,89.3,35.4,135.1,49.1
	c156.1,46.9,317.1,65.2,479.1,72.7c117.8,5.5,236,5.8,354,4.7c167.9-1.6,334.9-15.8,499.8-48.7c90.1-18,179.6-39.3,264-77.4
	c42.7-19.3,81.5-44.1,113.9-78.4c10.5-11.1,17.4-23.1,14-39.5c-11.3-53.3-22-106.8-33.6-160c-1.6-7.4-6-15.7-11.8-20.5
	c-21.6-17.8-46.8-28.3-77.2-34.9c-0.4,15.9-1.5,29.5-1,43c0.8,19.5-6.6,32.9-25.3,39.8c-17.5,6.5-34.6,14.3-52.4,20
	c-100.9,32.6-204.4,52.6-309.7,65.8c-123.7,15.5-248,22.1-372.3,27.8c-179.3,8.1-358.1-1.6-536.4-19.7
	c-102-10.3-203.6-24.6-302.3-53.7c-37.3-11-73.7-25.6-110.3-39c-13.5-5-19.4-14.4-19.4-30C1234.8,1621.7,1229.9,1605.3,1226.4,1584z
	 M2955,1955.6c-10.1,2.6-15.6,3.6-20.9,5.5c-132.3,47.6-269.1,75.8-408.3,92c-128.5,15-257.6,23.5-387.1,24.9
	c-182.5,1.9-364.3-6.5-545.2-32.7c-111.4-16.1-220.4-41.4-326.7-78.6c-6.7-2.4-13.7-4.1-22.6-6.8c0,8.6-0.9,15.1,0.1,21.2
	c7,43.4,14.8,86.6,21.5,130c2.2,14.4,7.9,24,22.4,28.1c7,2,13.6,5.3,20.5,7.7c76,26.7,153.3,48.8,231.8,67.1
	c127,29.6,255.6,50.1,385.6,58.4c98.1,6.2,196.8,6.6,295.2,6.1c153.5-0.8,304.9-21,453.7-58.9c79.7-20.3,157.9-44.8,232.2-80.9
	c12.6-6.1,20.9-12.9,23-28.2c5-37,12-73.8,18.1-110.7C2950.5,1986.4,2952.4,1972.9,2955,1955.6z M2723.7,3324.5
	c-206.1,74.8-414.7,102.1-626.3,99.9c-212.1-2.3-421.9-27.1-622.8-103.5c-0.9,3-2.5,5.4-2.1,7.5c6.8,42.6,13.2,85.3,21.3,127.6
	c1.4,7.5,8.9,15.6,15.7,20.1c52.1,33.8,107.9,60.2,166.8,80c121.3,40.9,246.4,60.1,373.8,65.9c96.3,4.4,191.9-3.2,287.1-18
	c110.3-17.2,215.2-50.7,313.8-103c49.8-26.4,49.4-27,57.8-82.9C2713.2,3389.3,2717.9,3360.6,2723.7,3324.5z M3109.8,224.1
	c-11.4,0-19.3-0.1-27.2,0c-46.4,0.6-92.8,1.1-139.1,1.7c-91.9,1.3-183.9,2.6-275.8,4.3c-13.7,0.3-28.1,0.7-41,4.7
	c-64.8,19.9-109.6,59.1-129.3,127c-50.8,174.9-103.9,349.2-155.9,523.8c-5,16.9-9.1,34-13.4,49.9c30.9,20.5,61.4,29,102.1,29.5
	c26.3,0.3,28-0.8,35.1-26.8c24.7-90.2,49.2-180.4,74-270.5c22.6-82.3,45.5-164.6,67.9-246.9c7.3-26.7,23.4-45.7,46.9-59.7
	c20.9-12.4,43.2-17.7,67.4-18.2c121.2-2.2,242.4-4.7,363.6-7.2c7.1-0.1,14.2-1.1,25.5-2C3095.8,297.2,3102.5,262.1,3109.8,224.1z
	 M1502.3,3509.5c2.9,23,6.3,41.9,7.3,61c2,36.2,22.1,59.3,51.2,77.8c43,27.3,89.2,47.1,137.8,61.3c102.7,30.2,207.8,45.7,314.7,51.7
	c156.3,8.8,310.7-2.3,462.4-41.9c58.4-15.2,115.3-35.3,165.1-70.7c11-7.8,22.8-17.3,28.9-28.9c16.5-31.3,18.1-66.2,23-105.7
	c-19.3,9.9-33.6,17.2-47.9,24.7C2517,3605.8,2379,3634,2237,3646.5c-123.8,10.9-247.1,6-369.9-13.7
	c-113.2-18.2-221.9-50.5-324.7-101.7C1530.2,3525,1518.4,3518.2,1502.3,3509.5z M3144.9,330.7c6-2.3,8.9-2.5,10.3-4
	c16-16.6,18.2-77.8,3.6-94.9c-7.3-8.5-17.1-7.2-19.8,4.4C3131.8,267.3,3131.9,298.4,3144.9,330.7z"/>
<path d="M2452.6,2822.1c-45.5-0.4-80-38.3-79.2-86.7c0.8-50.7,39.4-90.8,86.6-90.1c45.8,0.6,83.2,40.1,83.3,87.8
	C2543.3,2787.9,2508,2822.6,2452.6,2822.1z"/>
<path d="M1790.7,2735.2c-0.2,51.1-38.4,87.2-91.5,86.3c-42.5-0.7-78.1-40.1-78.3-86.5c-0.2-50,38.2-89.8,86.5-89.7
	C1753.8,2645.5,1790.9,2685.6,1790.7,2735.2z"/>
<path d="M2081,2984.6c-64.1,0.6-113.9-43.7-126.5-112.8c-1.9-10.4-2.8-21-2.9-31.5c-0.2-19.4,7-29,21.1-30
	c14.8-1.1,22.9,6.7,26.3,25.6c2.5,13.6,3.8,27.5,7.6,40.7c12.3,43,47.4,64.7,91.4,57.3c31.7-5.3,58-34.3,64.5-71.3
	c1.8-10.4,2.7-21,4.9-31.3c3.5-15.7,11.7-22.1,25.1-20.7c12.5,1.3,22.9,11,22.4,24.8C2212.1,2903.5,2177.8,2983.7,2081,2984.6z"/>
<path d="M2535.9,2970.7c-15.8-3.2-32.1-4.7-47.2-9.9c-49.8-17.1-54.1-69.9-24-100.1c45-45.2,101.1-62.9,164.9-52.2
	c7,1.2,13.9,4.6,20.3,8c37.7,19.7,46.7,57.2,22.3,92.2c-14,20-33.8,32.7-55.5,42.4C2591.3,2962.3,2564.4,2968.3,2535.9,2970.7z
	 M2527.3,2939.7c44.1-1.4,78.5-11.6,107.9-35.7c13.4-10.9,22.3-24.2,17.1-42.3c-4.9-17.2-19.2-23.4-35-25.9
	c-50.1-8-92.3,9.6-129.6,41.9c-2.4,2.1-4.4,4.8-6.2,7.5c-12.3,19.5-7.2,39.1,14.3,47.9C2507.6,2937.8,2520.9,2938.4,2527.3,2939.7z"
	/>
<path d="M1577.5,2800c44.5,1.5,82.5,18.2,116.9,44.7c5.7,4.4,10.9,9.9,15.3,15.7c28.1,36.3,14.4,81.3-29.4,96
	c-34.4,11.5-69.7,10.4-103-1.6c-23.3-8.4-45.4-21.7-65.7-36.1c-20.4-14.4-29.9-37-25.6-62.1c4.6-26.8,23.5-42.2,48.6-49.3
	C1548.4,2803.3,1563.1,2802.3,1577.5,2800z M1628.4,2936.6c12.8-1.9,26-2.3,38.2-5.9c32.1-9.6,38.8-36,14.2-59
	c-35.1-32.9-77.5-46.8-125.3-39.7c-16.7,2.5-35.4,7.5-40,26.9c-4.7,19.5,7.4,33.9,22.2,45.2
	C1564.4,2924.3,1594.7,2934.2,1628.4,2936.6z"/>
<path d="M1326.6,1493.2c4.4-115.4,54.9-200.2,149-259.9c2.7-1.7,5.6-3.3,8.5-4.8c6.5-3.4,13.6-4.2,16.5,3.4c2,5.2,2.2,13.6-0.8,17.4
	c-5.3,6.8-13.5,11.5-20.8,16.5c-66.9,45.2-108.2,107.1-119.6,187.3c-3.2,22.3-1,45.4-0.9,68.1c0,6.5,1.6,13,1.4,19.4
	c-0.2,7.7-2,14.9-12,15c-8.6,0.1-14.3-4.2-15.4-12.5C1330,1525.5,1328.3,1507.7,1326.6,1493.2z"/>
<path d="M1822.4,802.4c9.1,22.8,8.4,25-11.5,31.6c-36.8,12.1-69.9,30.4-99,56c-43.2,37.8-69.8,84.9-79.4,141.6
	c-1.1,6.4-1.9,12.9-3.1,19.2c-1.3,6.9-3.9,12.5-12.5,11.9c-9.5-0.7-12.3-6.9-11.9-15.1c0.5-9.7,0.9-19.6,2.8-29
	c19.6-95.8,77.1-160.7,165-200.3c11.8-5.3,24.2-9.4,36.5-13.7C1812.9,803.2,1817.1,803.2,1822.4,802.4z"/>
<path d="M2847.2,1466.7c-11-0.2-12.8-8-14.7-14.8c-3.5-12.5-6.5-25.2-9.1-37.9c-13.4-67.1-47.6-122.1-98.1-167.4
	c-4.8-4.3-10.8-8.2-13.7-13.6c-2.2-4-2.3-11.8,0.3-15c2.7-3.3,9.8-4.1,14.8-3.9c3.5,0.2,7.1,3.7,10.1,6.4
	c66.2,57.9,109.6,128.1,116.8,217.7C2854.4,1448.4,2856.2,1459.2,2847.2,1466.7z"/>
<path d="M2828.5,1566c-6.2-29.9-2.6-51.8,5.6-73c1.3-3.4,7.7-7.1,11.3-6.7c3.7,0.4,9.9,5.9,9.7,8.8c-1.3,18.4-3.1,37-7,55
	C2847.1,1555,2838.2,1558.3,2828.5,1566z"/>
</svg>
