<?xml version="1.0" encoding="utf-8"?>
<!-- Generator: Adobe Illustrator 24.3.0, SVG Export Plug-In . SVG Version: 6.00 Build 0)  -->
<svg version="1.1" id="Layer_1" xmlns="http://www.w3.org/2000/svg" xmlns:xlink="http://www.w3.org/1999/xlink" x="0px" y="0px"
	 viewBox="0 0 4000 4000" style="enable-background:new 0 0 4000 4000;" xml:space="preserve">
<path d="M3048.5,2468.1c5.8,3,11.5,6.1,17.5,8.9c92.6,42.6,180.9,92,252.8,165.7c45.4,46.5,76.3,101.7,88.6,166.1
	c14.5,76.3-9.3,143.4-53.1,204.5c-49.9,69.5-118.4,117.2-192,157.7c-120.1,66.1-249.1,108.8-381.6,142.1
	c-123.6,31-248.6,54-374.8,69.5c-70,8.6-140.4,14.3-210.9,18.4c-177.8,10.5-356,12.5-533.6,0.1c-110.9-7.8-221.6-21.7-331.6-38
	c-87.3-12.9-174.2-30.5-260-51.7c-153-37.7-300.9-89.7-435.8-173.4c-66.7-41.3-125.5-91-163.7-161.5c-47.9-88.5-43-175.4,7.9-260.7
	c32.2-53.9,77.4-95.5,127.9-131.8c90.3-64.9,190.3-111,293.8-150c10.1-3.8,20-7.9,31.9-12.6c-4-9.2-6.2-16.8-10.2-23.2
	c-88.2-140.7-152.2-292.4-204.3-449.4c-64.8-195.2-104.2-395.8-121-600.7c-6.3-77.3-10.8-154.7-14.4-232.1
	c-3.3-72.3,17.7-137,64.9-193.1c40.2-47.9,88.2-85.9,141.6-117.5c97.2-57.6,201.5-98.8,309.9-129.4c174.5-49.3,352.3-79.7,533.5-92
	c175.9-11.9,351.7-14,527.6-3.5c224.1,13.3,444.7,47.4,658.1,119c102,34.2,200.7,76.4,287.8,141.5c45.8,34.2,86,73.7,114.9,123.6
	c24.9,43.1,38.7,89.6,38.4,139.2c-0.4,52.6-3.3,105.3-5.1,157.9c-0.4,11.7-1,23.4-1.7,39c15.5-5.3,27.5-9.3,39.4-13.6
	c84.6-30.6,171.6-43.3,260.8-28.3c133.4,22.5,218.3,102.5,261.9,228.4c35.3,101.9,27.5,203.4-4,304.7
	c-44.8,143.7-131.9,259.2-239,361.7c-139.5,133.6-303.5,226.4-483.4,293.3c-12.8,4.8-25.6,9.5-38.4,14.3
	C3048.7,2463.5,3048.6,2465.8,3048.5,2468.1z M1907.7,657.1c-136.5-3-284.9,10.6-433,28.7c-140.4,17.2-278.4,44.5-412.9,89
	c-88.1,29.2-173.1,64.9-250.7,116.4c-36.6,24.2-71.2,50.9-99.1,85.3c-23.6,29-42.7,60.8-45.1,98.8c-2.1,32.6-0.6,65.4,0.2,98.1
	c3.3,142.5,21.5,283.5,46.3,423.5c33.5,188.7,90.7,370.4,168.4,545.7c99.1,223.7,231.1,423.5,421.5,581.1
	c88.9,73.5,184.4,134.4,296.7,166.3c176.2,50.1,354.6,58.4,534.3,27c91.2-15.9,179.5-43.2,260.4-90.7
	c83.8-49.2,157.9-110.7,226.4-178.9c138.6-137.7,239.6-301.3,321.9-477.1c50.2-107.3,88.4-219.2,121.8-332.8
	c41.1-139.5,71.1-281.2,86.6-425.8c8.4-79,15.5-158.2,21.4-237.5c2.4-32.6,4-66.1-1.1-98.1c-10.5-66.4-51.5-115.2-102.8-155.4
	c-49.5-38.8-103.6-70.4-161.4-95.3c-145.1-62.6-297-101.7-452.4-126.7C2278.4,670.4,2100.1,655.9,1907.7,657.1z M1189.3,2675.3
	c-2-5.9-2.1-9.4-4-11.3c-51.7-53.8-102.2-108.7-143.3-171.4c-7.4-11.4-16.9-11.6-28.5-7.3c-30.7,11.4-61.9,21.8-92.5,33.4
	c-82.8,31.4-164.8,64.5-238.9,114.1c-45.6,30.5-88.8,63.8-122.4,108c-52.6,69.2-52.4,148.2-1.1,217.6c40.6,55,94.2,93.9,152.2,127.2
	c109.3,62.7,227.3,104.6,348.3,137.6c229.4,62.7,464.2,90.6,701.1,100.1c219.8,8.7,439.4,2.6,657.8-27.5
	c141.9-19.5,282.7-44.8,420.2-84.9c116.7-34.1,229.7-77.6,333.2-142.8c44.1-27.8,84.5-60.1,115.8-102c57.8-77.2,59.9-163-4.9-237.5
	c-29.1-33.4-63-64.1-99.2-89.4c-107.1-74.9-228-120.3-353.2-154.7c-16.1-4.4-26.8-0.6-38.1,13.6c-41.3,52.1-84.7,102.6-127.2,153.8
	c-4.7,5.7-8.8,11.8-14.4,19.2c22.1,9.7,41.4,17.5,60.1,26.4c49.6,23.7,97,50.9,132.2,94.6c40.3,50,42,100.3,7.1,153.9
	c-21.8,33.6-53.3,55.9-86.6,76.1c-69.5,42.2-145.7,67.9-223.9,88c-184.9,47.6-373.5,66.7-563.8,70c-165.4,2.8-329.9-11-493.3-36.1
	c-112.2-17.2-222.6-42.2-327.7-86.8c-50.6-21.5-99.3-46.4-137.8-86.8c-58.8-61.6-58.9-128.5-1-190.5c31-33.3,69.5-56.1,109.8-75.8
	C1145.9,2694.2,1166.8,2685.4,1189.3,2675.3z M1997.2,3143.7c123,0.4,310.7-16.6,495.7-58.5c88.3-20,174.9-46.3,252.6-95.1
	c21.8-13.7,43.4-28.6,61.7-46.4c40.4-39.3,42.2-90.5,6-133.6c-12-14.3-26.6-26.9-41.8-37.9c-40.6-29.4-86.3-48.7-133.7-64.5
	c-15-5-25.9-2.5-37.9,7.9c-30.8,26.5-63.2,51.3-94,77.8c-8.6,7.4-17.7,17.6-20.2,28c-10,41.7-36.4,69.7-70.2,92.6
	c-39.1,26.5-82.5,43.6-127.4,56.8c-75.6,22.2-152.9,34.1-231.6,39.3c-158.8,10.6-315.8-0.2-470.4-38.3c-53-13-104.8-31.3-151.6-60.7
	c-31.1-19.5-56.7-43.1-63.3-82.3c-1.4-8.6-9.5-17.4-16.8-23.3c-36.9-30.1-75-58.8-111.7-89c-12.3-10.1-23.4-13.1-37.9-6.2
	c-31.4,14.9-63.7,28-94.6,43.9c-30.1,15.6-57.4,35.6-79.1,62.4c-29.7,36.6-31.2,71.1-3.7,108.9c8.1,11.1,18.1,21.2,28.2,30.6
	c42.4,39.3,93.5,63.2,147,82.8c81.4,29.9,165.5,49.6,250.6,65.1C1611,3132.7,1770.5,3142.5,1997.2,3143.7z M2851,2418.5
	c13-1.6,22.5-2.1,31.7-4.1c17.4-3.8,34.6-8.8,52-12.9c199.3-46.5,376.2-137.2,532.5-268.8c93.8-78.9,174.3-168.9,228.5-279.8
	c44-90.1,67.6-185.3,51.2-286c-17.8-109.7-73.9-189.4-185.9-221.3c-42-12-84.5-10.7-127.2-5.9c-80.4,9-153.7,38.4-224.8,75.2
	c-14.9,7.7-22.2,17.7-24.4,34.1c-6.6,48.2-14.5,96.3-21.6,144.5c-1,7.1-0.1,14.6-0.1,25.8c13.2-8.5,23.3-14.4,32.7-21.2
	c48.2-34.5,100.6-59.9,158.3-74c32.4-7.9,64.8-8.6,97.5-2c80.5,16.3,119.7,83.7,115.3,164.4c-1.9,35-12,70.7-24.4,103.8
	c-23.3,62.1-61.6,115.3-106.2,164.3c-127.5,140-285,230.1-466.1,280.6c-18,5-29.4,13.4-37.9,29.5c-23.6,44.8-48.2,89.1-72.4,133.6
	C2857.2,2403.6,2855.2,2409,2851,2418.5z M3060.1,2114.2c16-6.1,25.8-8.6,34.3-13.3c41-22.4,82.8-43.4,122.2-68.4
	c90.1-57.2,166.5-128.8,222.5-220.8c23-37.8,39.6-78.1,45.4-122.1c6.9-53.1-19.7-84.8-72.4-87c-7.8-0.3-15.8,1.2-23.6,2.5
	c-68.9,11.9-125.2,48.4-178.3,91.4c-18.7,15.2-29.6,33.3-35.5,56.6c-27.5,107.9-59.5,214.5-99.6,318.5
	C3070.5,2083.5,3066.6,2095.5,3060.1,2114.2z"/>
<path d="M1922.3,1468.9c-204.3,1.7-406.9-18-607.9-53.5c-111.7-19.7-222-45.9-326.9-89.8c-48.3-20.2-95.4-44.7-139.9-72.4
	c-27.2-17-50.9-41.6-71.5-66.6c-42.5-51.4-45.3-111.5-12.1-169.4c24.8-43.4,61.3-75.4,102.7-102c67.4-43.3,141.2-72.2,217.1-96.6
	c129.1-41.4,261.8-66.1,395.8-83.6c193.7-25.4,388.5-29.9,583.4-22.4c140,5.3,279.9,15.4,418.1,40.4
	c136.1,24.7,270.3,57.1,397.4,113.2c53.8,23.7,105.3,51.8,148.5,92.8c12.2,11.6,24,23.8,34.6,37c48.9,60.8,50,133.7-0.2,193.9
	c-20.1,24.1-44.1,46.4-70.2,63.7c-91.3,60.5-193.2,97.2-298.3,125.2c-120.2,32-242.7,51.7-366,66.7
	C2192.4,1461.8,2057.6,1469.8,1922.3,1468.9z M2970.1,1224.7c-18-11.9-28.7-20.8-40.9-26.8c-35.6-17.7-71.1-35.7-107.8-50.9
	c-82.1-33.9-168.2-54.5-254.9-72.3c-155.2-31.8-312.4-46.4-470.5-53.9c-201.2-9.6-401.7-2.3-601.6,19.3
	c-133.5,14.5-265.3,39.4-394.5,76.5c-63.2,18.2-124.7,41-181.8,74c-15,8.7-28.6,19.8-45.3,31.6c8.3,6.8,12.4,10.8,17.1,13.8
	c79.5,51.3,168.1,81.5,258.3,105.8c188,50.6,380.2,74.2,574.3,84c183,9.2,365.9,7.4,548.3-11c125.6-12.7,250.5-30.8,373.3-60.8
	c94.9-23.2,187.1-54.1,273.8-99.8C2933.3,1246.2,2948.4,1237.1,2970.1,1224.7z M1884.6,746.6c-48.6,1.8-131.2,2.7-213.5,8.2
	c-129,8.7-256.8,27.2-383.7,51.8c-117.5,22.7-232,54.9-340,107.4c-48.6,23.6-93.9,52.4-130.3,92.9c-49.9,55.4-49.1,119.2,0.9,173.9
	c17.2,18.8,20.9,19.8,42.2,3.9c36.2-27.1,76.1-46.5,117.7-63.5c68.3-27.9,138.8-48,210.5-64.8c206-48.3,415.4-69.3,626.4-75.3
	c172.2-4.9,343.9,1.9,515.1,21c140.4,15.7,279.9,37.1,415,79.7c80.7,25.5,159.6,55.4,230.8,102.6c25.7,17,29.5,16.5,49.4-6.7
	c7.1-8.3,13.4-17.2,19.6-26.2c22.4-32.6,22.6-66.7,6.2-101.8c-12.4-26.5-29.7-49.2-52.7-67.5c-44.7-35.5-93.9-63.1-146.3-85.5
	c-137.2-58.6-281.7-90.2-428.2-113.5C2256.4,756.7,2087.7,747.6,1884.6,746.6z"/>
<path d="M2394.6,2214.3c-70.6,3.8-106.4-60.7-107.4-107.9c-1.2-60.2,49.6-112.1,108.2-112.5c56.5-0.3,104.8,49.5,104.6,108
	C2499.8,2167.8,2456.3,2214.2,2394.6,2214.3z"/>
<path d="M1347.2,2102.6c0.2-61.7,46.3-109.2,105.8-109c57.8,0.2,104.1,48,104.3,107.6c0.2,64.1-45.2,112.6-105.7,112.8
	C1394.6,2214.2,1347,2163.4,1347.2,2102.6z"/>
<path d="M1912.8,2414.1c-40.1-1.6-82.3-18.5-112.5-58.5c-28.5-37.7-41.3-81.1-39.3-128.3c1-23.4,13.1-33.4,34.1-30.8
	c15.9,2,22.2,10.7,25.2,31.4c2.8,19.5,5.1,39.5,11.3,58c13.7,40.9,47.1,66,85.4,67.3c45.5,1.5,82-20.3,98.1-62.7
	c7.6-20.1,10.1-42.2,13.6-63.7c3.8-23.9,9.7-31.4,27.6-31c19,0.4,30.1,11.5,32,32C2097.3,2326.2,2020.6,2411.9,1912.8,2414.1z"/>
<path d="M1365.7,2397.7c-68-3.1-116.1-21.7-157-57.7c-6.6-5.8-12.7-12.7-17.9-19.8c-31.4-42.6-18.2-94.9,30.5-116
	c15.1-6.6,32.4-10.9,48.8-11.5c61.1-2.2,118.1,11.2,166.2,51.7c7.5,6.3,14.7,13.4,20.7,21.2c30.2,39,20,92.2-24.7,113.1
	C1407.8,2390.1,1379.7,2393.9,1365.7,2397.7z M1283.4,2228.3c-3.4,0.4-12.3,1.1-21.1,2.5c-21.1,3.6-42.8,9.2-49.9,31.8
	c-7.8,24.7,9.2,41.9,26.4,55.5c42.3,33.6,90.8,48.3,144.8,39.5c22.8-3.7,47.2-10.5,52.7-36.7c5.1-24.3-12.8-40.7-30.7-53.8
	C1371.1,2241.9,1332,2228.9,1283.4,2228.3z"/>
<path d="M2484.7,2396.7c-21.9,1-46.2-2.2-68.7-14.8c-37-20.7-50.7-58.5-32.4-96.5c6.7-13.9,16.7-27.7,28.6-37.4
	c54.5-44.1,117.2-61.9,186.8-51.5c33.1,5,62.2,19.5,72.6,53.7c10.3,33.8-3.8,62.9-28.3,86.1c-35.9,34.1-80.4,50.3-128.5,57.8
	C2506,2395.5,2497,2395.7,2484.7,2396.7z M2560,2228.5c-47,1.3-87.9,16.7-124.2,45.6c-16.7,13.3-27.1,30.3-22.1,51.8
	c5.3,22.7,25,28.8,45.2,32.8c2.9,0.6,5.9,0.8,8.9,1c54.8,2.8,103.9-12.6,146.8-46.9c5.3-4.3,10.2-9.6,13.9-15.4
	c16.4-25.9,9.5-49.4-19.2-59.7C2593.8,2232,2576.5,2231.4,2560,2228.5z"/>
<path d="M3705.6,1606.2c0,6.9,0.2,13.9-0.1,20.8c-0.4,9.3-5,14.5-14.8,14.7c-9.1,0.2-15.7-3.1-17.2-12.6c-1.5-9.8-2.3-19.7-3.2-29.6
	c-3.5-40.2-14.2-78.1-35.8-112.4c-22.8-36-54.4-60-96.6-69c-6.8-1.4-13.7-2.5-20.4-4c-10.2-2.3-15.7-8.9-14.5-19.2
	c1.2-10.1,8.2-18,17.9-15.9c22.1,4.7,45.1,8.8,65.1,18.6c61.2,29.9,95.6,82,111.5,146.7c4.9,20.1,6.7,41.1,9.9,61.6
	C3706.8,1606,3706.2,1606.1,3705.6,1606.2z"/>
<path d="M3657.3,1729.2c1.6-18.9,12.2-29.8,27.3-28.1c12.7,1.4,18.3,8.9,17,22.7c-1.7,17.5-13.8,32.1-25.9,31
	C3663.6,1753.8,3656.1,1743.4,3657.3,1729.2z"/>
</svg>
