<?xml version="1.0" encoding="utf-8"?>
<!-- Generator: Adobe Illustrator 24.3.0, SVG Export Plug-In . SVG Version: 6.00 Build 0)  -->
<svg version="1.1" id="Layer_1" xmlns="http://www.w3.org/2000/svg" xmlns:xlink="http://www.w3.org/1999/xlink" x="0px" y="0px"
	 viewBox="0 0 4000 4000" style="enable-background:new 0 0 4000 4000;" xml:space="preserve">
<path d="M2072.6,180.1c260.5,2.8,469,17.5,674.6,60.1c131.2,27.2,259.5,63.7,380.5,124.3c91.6,45.9,154.6,112.1,180.8,212.3
	c12.9,49.2,30.1,97.3,42.1,146.7c6.2,25.4,18,40.7,42.2,49.9c19.5,7.4,37.8,18.2,56,28.8c30.8,17.9,53.9,43.5,62.7,78.4
	c21.1,83.7,41,167.6,60.5,251.7c10.4,44.7-6.6,81.4-40.7,109c-31.7,25.7-65.3,49.2-99.7,71.2c-16.5,10.5-25.3,22.7-28.6,41.5
	c-42.3,246.5-84.8,492.9-127.4,739.3c-29.6,171.2-59.7,342.3-88.9,513.5c-41.6,244.3-82.7,488.8-123.8,733.2
	c-9.6,57-21.4,112.8-51.7,163.4c-39,65.1-96.5,108.7-161.2,144.5c-97.7,54.1-202.4,88.9-311.3,111.2
	c-142.4,29.2-286.1,47.1-431.8,42.1c-193.6-6.7-383.1-37.1-565-105.9c-58.1-21.9-113.1-50.3-164.5-85.8
	c-87.4-60.4-139.7-141.1-156.4-247.5c-30.5-194.6-64.7-388.5-97.9-582.7c-45.9-268.3-92.5-536.5-138.3-804.8
	c-34.8-204-69-408.1-102.9-612.2c-3.5-21.1-12.5-35.4-30.9-47.4c-37.9-24.8-74.2-52.1-110.8-79c-36.8-27.1-49.7-61.8-37.5-107.5
	c21.4-80.1,40.4-160.9,59.9-241.5c9.5-39,32.1-67.7,66.9-86.5c20.4-11,41.5-20.9,63.1-29.4c17.2-6.8,25.8-18,30.7-35.6
	c17.2-60.6,35.6-120.9,53.9-181.2c4.5-14.8,10.4-29.2,15.6-43.7c18.6-52.4,53.9-90.5,100.7-119.3c68.3-42.1,141.3-73.6,217.7-96.8
	c158.2-48,319.3-81.9,484.2-95.3C1904.6,190.2,2014,184.1,2072.6,180.1z M975.4,1333.3c2,16.1,2.9,27.9,4.9,39.5
	c36.2,210.5,72.8,420.9,108.6,631.5c41.1,241.1,81.6,482.3,122.1,723.5c35,208.5,70.3,416.9,104,625.5
	c10.8,66.8,39.9,121.3,93.3,162.6c17.5,13.5,35.4,26.7,54.3,38c59.2,35.4,122.9,60.8,188.4,81.5c146.7,46.5,297.9,66.6,451,71.1
	c142.2,4.2,283.2-9.2,422.1-40.1c101.9-22.6,200.3-55.8,291.8-107.1c81.3-45.5,136.1-108.6,150.1-205.9
	c19.8-137.9,46.3-274.9,69.5-412.3c49.7-293.4,98.2-587,148.8-880.3c41-237.6,84.3-474.9,126.4-712.3c1.2-6.9,0.2-14.1,0.2-24
	c-11.8,4.5-21.4,7.1-30,11.6c-79.9,42.1-165.7,68.3-252,92.4c-235.7,65.6-476.8,96.3-720.8,105.8c-248.4,9.8-495.7-3-741.9-37.6
	c-192.6-27.1-379.8-74.3-558.7-151.7C998.6,1341.3,989.3,1338.4,975.4,1333.3z M1068.9,581.5c-7.6,21.6-13.9,37.8-19,54.4
	c-21.8,70.8-42.9,141.9-65,212.7c-12.1,38.8-10.3,46.2,23.3,69.2c5.5,3.7,11.3,7,17,10.3c83.8,49.4,175.6,78.2,269.1,101.9
	c225.5,57.1,455.7,78,687.3,85.3c189.4,6,378.5,1.4,567.3-17.6c142.2-14.3,283.3-34.6,422.3-68.1c102.6-24.7,201.4-59.9,293-113.4
	c29.5-17.2,31.9-20.6,23.5-53.3c-21.9-85.7-45.4-171-68.6-256.3c-1.3-4.8-5.2-9-8.8-15c-9,5.6-16.7,9.8-23.6,14.9
	c-38.8,28.4-81.5,48.9-126.5,65.1c-109.6,39.4-221.9,68.4-337,86.1c-66.7,10.3-133.6,19.1-200.5,27.6c-7.4,0.9-19.1-2.1-22.4-7.4
	c-3.8-6.1-3.9-19.6,0.4-24.4c5.6-6.2,17-8.4,26.3-9.9c93.8-15.4,188-29,281.6-45.9c102.6-18.6,202.6-46.7,296.8-92.7
	c18.8-9.2,36.9-20.3,53.8-32.7c35.6-26.2,36.9-41.4,4.4-70.2c-20.6-18.2-43.2-34.7-66.9-48.6c-76.1-44.5-159.1-72.2-243.8-94.4
	c-205.5-53.9-415.6-76.8-627.2-84.7c-182.9-6.9-365.1,7.8-546.4,32.6c-37.2,5.1-74.2,12.7-110.9,20.7c-39.9,8.7-53.8,25-58.9,65.6
	c-4.7,37.4,10.4,67,37.3,91.4c37.8,34.3,83.4,53.7,131.4,68.3c92.8,28.2,188.7,40.2,284.8,44.6c102.7,4.7,206,4,308.7-0.8
	c80.5-3.7,160.8-16.3,237.3-44.6c19.5-7.2,38.9-16.3,56.2-27.8c19.8-13.2,20.6-31.4,2.5-46.9c-14.1-12-30.7-21.9-47.6-29.5
	c-83.9-37.6-173.7-52.8-264-61c-71.5-6.5-143.8-5.5-215.7-5.5c-55.5,0-110.5,6.9-163.6,24.1c-12.5,4-25,9.6-35.6,17.2
	c-17.6,12.6-17.4,24.4,0.3,36.5c11.7,8,25,14.3,38.4,18.9c89.5,30.4,182.1,35.5,275.5,30.5c26.3-1.4,52.7-6.3,78.5-12.1
	c11.6-2.6,21.9-11.2,35-18.4c-17.2-19-35.2-23.7-53.8-25.5c-51.8-5.1-103.6-11.6-152.8,14.1c-12.7,6.6-23.6,0.9-30.7-11.3
	c-7.3-12.5-0.9-22.5,8.7-28.4c11-6.7,23.7-12.1,36.3-14.5c48.3-9.1,97.1-9.4,145.3,0.7c20.3,4.2,40,12.6,58.9,21.5
	c17.9,8.5,29.6,23.3,29.4,44.6c-0.3,22.8-13.9,37-33.2,45.6c-14,6.2-28.9,11.2-43.9,14.7c-88.9,20.5-178.1,15.4-267.3,1.6
	c-48.3-7.5-96-17.6-138.8-42.8c-54.5-32.1-54.9-84.2-1-117.1c10.3-6.3,21.8-11.2,33.4-14.4c20.2-5.6,40.7-11.2,61.5-13.6
	c146-16.5,291.6-14,436.9,9c57,9,113.4,21.3,166.3,44.5c26,11.4,52.1,25.7,73.1,44.4c36.1,32.1,33.1,75.8-5.6,105.2
	c-19.1,14.5-41,28-63.7,34.4c-57.4,16-115.3,32.7-174.2,40.1c-161,20.2-322.6,19.8-483.7,0.5c-85.8-10.3-171.4-23.7-251.5-58.1
	c-34.2-14.7-68.3-32.7-97.5-55.6c-45-35.4-64.1-83.5-48.3-141.7c2.4-8.9,2.7-18.4,4.8-33.4c-35,10.4-64.6,18.8-94,27.9
	c-76.2,23.6-152.3,47.4-220.8,89.6c-18.7,11.5-36.9,24.7-52.6,39.9c-21,20.4-21.6,36.9-1.6,57.6c16.7,17.3,35.2,34.7,56.2,45.7
	c40.1,20.9,81.4,40.7,124.2,54.7c175.6,57.6,357.6,82.4,540.7,99.9c140.2,13.5,280.8,15.2,421.4,12.5c6.6-0.1,13.3-0.2,19.9-0.2
	c14.6,0,18.9,9.3,18.8,21.8c0,12-6.5,18.3-18.4,18.8c-8.8,0.4-17.7,0.6-26.6,0.7c-135.1,2.1-270-1-404.8-12.4
	c-160.2-13.5-319.3-33.7-474.6-75.8C1260.5,694.8,1154.9,666.4,1068.9,581.5z M3333.2,847.5c0,10.9-1.5,19.7,0.3,27.8
	c6.5,30.6-7.9,51.2-31,67.9c-7.2,5.2-14.7,9.8-22.4,14.3c-77.7,46.2-162.3,75.7-248.7,100c-114.1,32.1-230.8,51.6-348.2,67.8
	c-157.1,21.7-314.9,33.8-473.2,36.4c-274,4.4-546.5-14.4-816.2-65.9c-102.3-19.6-203.3-45.2-299.4-85.9
	c-42.6-18-83.1-41.5-123.2-64.7c-26-15.1-39.1-38.5-30.6-70.3c1.5-5.8,0.2-12.3,0.2-22.3c-22.2,9.8-41.2,18.3-60.3,26.7
	c-19.9,8.7-29.7,23.8-34.3,45.3C831.6,994,816,1063.1,799,1131.8c-5,20.2-0.7,33.1,15.5,45.6c59.9,46,122.6,87.4,190.8,119.8
	c163.3,77.5,336.6,122.2,514,151.8c149.7,25,300.9,36.6,452.6,41.8c259.5,8.9,518.1,0.9,774.6-42.3
	c158.5-26.7,314.1-64.9,463.4-125.8c87.6-35.8,168.2-83.8,242.8-142.1c20.8-16.3,27.8-33.6,20.9-60.1
	c-17.8-68.5-33-137.7-49.7-206.5c-2-8.4-4.7-18.8-10.8-23.6C3390.1,872.2,3365.7,855.4,3333.2,847.5z"/>
<path d="M2149.9,3225.8c-185.4-0.4-369.3-16.4-549.2-63.2c-56.5-14.7-111.2-36.5-166.7-55.1c-29.6-9.9-42.2-31.3-47-61.8
	c-32.2-207.7-65.3-415.3-98.5-622.8c-22.9-143.1-46.6-286-69.7-429.1c-2.3-14.1-3.8-28.7-3.1-42.9c1.5-28.2,16.6-38.6,44.4-31
	c72.5,19.7,144.3,42.5,217.6,59.1c158.8,35.8,319.6,59.1,482.4,69.1c139.5,8.6,279,9.1,418.1-2.4c212.1-17.6,421.5-51.1,624-119.3
	c3.1-1.1,6.1-2.6,9.3-3.5c41.9-11.8,62.4,4.9,56.3,48.3c-11.9,83.2-25.3,166.2-38.2,249.3c-17.7,113.7-34.9,227.4-53.3,341
	c-26.3,162.7-53.8,325.3-79.8,488.1c-5.3,33-20.6,53.7-52.3,65.6c-85.2,31.7-172.5,56.2-261.7,73.1
	C2439.6,3215.2,2295.2,3226.1,2149.9,3225.8z M3028.3,1965.2C2436.6,2139.7,1850,2134,1259.1,1963c1.6,17.8,2.1,30.7,4.1,43.4
	c36.8,229.5,73.9,459,110.6,688.6c18.2,113.7,35.9,227.4,53.1,341.3c3.4,22.2,12.7,35.8,35.2,42.3c48.8,14.1,96.5,32.8,145.7,45
	c202.2,50.2,407.8,69.8,615.8,61.2c70.7-2.9,141.5-8.3,211.9-15.7c131.4-13.8,259.6-42.4,383.8-88.3c23.1-8.6,35.3-20.6,39-46.8
	c12.9-90.9,28.6-181.4,43.4-272c13.7-84.1,27.9-168.1,41.4-252.2c21.6-134.4,42.8-268.8,64-403.2
	C3014.4,2060.9,3020.8,2015.2,3028.3,1965.2z"/>
<path d="M2596.9,2632.9c-60,0.4-104.5-44.4-104.1-104.8c0.4-58.2,48.7-109,103.4-108.8c56.5,0.2,100.9,48.6,100.7,109.8
	C2696.8,2591.8,2657.5,2632.5,2596.9,2632.9z"/>
<path d="M1581.1,2525.9c0-57.6,49-107.7,104.4-106.8c53.6,0.9,97.6,47.7,98.5,104.7c0.9,62.6-42.6,107-105.2,107.3
	C1627.1,2631.4,1581.1,2581.7,1581.1,2525.9z"/>
<path d="M1983.7,2658.6c0.6-8.2,0.8-15.9,1.7-23.6c1.6-14.6,11.2-20.9,24.6-22.1c13.3-1.2,24.6,3.1,29,16.6c3,9.3,2.9,19.6,5.3,29.1
	c4.2,17,7.2,34.8,14.3,50.5c15.3,34,42.6,54.1,80.5,53.6c39-0.6,71.9-16.4,87-54.7c9.2-23.3,13.1-48.7,19.4-73.2
	c3.1-12.2,6.7-23.5,22.9-23.4c15.9,0.1,28.1,5.2,33.7,21.1c1.1,3.1,1.9,6.5,1.8,9.7c-1.4,64.2-21.6,120.8-77.4,156.4
	c-56,35.8-116.4,35.7-171.8-1.5C2006.9,2765.1,1985.3,2715.9,1983.7,2658.6z"/>
<path d="M2682.6,2810.8c-23-6.4-47.4-9.8-68.8-19.8c-33.1-15.4-46.1-50.4-31-83.5c8.4-18.4,21.3-36.6,36.7-49.4
	c45.2-37.6,98.7-53.2,157.3-45.9c18.1,2.3,36.6,9,52.6,17.9c43.2,23.8,50.8,67.7,19.5,105.9c-34.9,42.7-83.2,59.8-135.4,68.7
	c-9.7,1.7-19.8,1.5-29.7,2.2C2683.3,2808.1,2682.9,2809.5,2682.6,2810.8z M2757.5,2647.6c-46.4,4.2-88.4,16.5-123.2,47
	c-27.5,24.2-20.6,60.1,13.1,70c39.7,11.6,125.4-2.2,164.4-49.5c2.1-2.6,4-5.3,5.7-8.2c12.2-20.2,8.9-36.4-12.7-46.5
	C2790.1,2653.7,2773.3,2651.7,2757.5,2647.6z"/>
<path d="M1595.1,2807.8c-51.1-2.6-95.3-21.4-136.8-48.1c-5.5-3.5-10.5-8.1-15.1-12.9c-41.4-42.8-30.2-100.4,24.4-124.5
	c32.4-14.3,66.8-16,100.8-10.2c39.5,6.7,76.5,21.4,106.4,49.7c7.2,6.8,14.1,14.2,19.6,22.3c28.8,42.7,13.6,93.4-34.9,110.7
	C1639.1,2802.1,1616.7,2803.7,1595.1,2807.8z M1536.1,2648c-16.1,3.3-33,4.4-48,10.3c-33.4,13-39.1,40.6-12.1,63.8
	c45.2,38.9,98.4,54.2,157.2,40.8c39.6-9,47.1-39.8,17.9-68.3C1619.4,2663.7,1579.6,2652.2,1536.1,2648z"/>
</svg>
