<?xml version="1.0" encoding="utf-8"?>
<!-- Generator: Adobe Illustrator 24.3.0, SVG Export Plug-In . SVG Version: 6.00 Build 0)  -->
<svg version="1.1" id="Layer_1" xmlns="http://www.w3.org/2000/svg" xmlns:xlink="http://www.w3.org/1999/xlink" x="0px" y="0px"
	 viewBox="0 0 4000 4000" style="enable-background:new 0 0 4000 4000;" xml:space="preserve">
<path d="M1289.7,1298.9c-0.3-6.7-0.3-12.7-1-18.5c-13.1-114.4,27-206.1,119.6-274c40.7-29.9,85-54,133.9-68.2
	c12.3-3.6,20-8.3,22.4-23.3c14-86.8,63.5-146.9,141.8-185c53.5-26,110.9-38.7,168.5-50.7c30-6.2,60.5-11.4,89.5-21.2
	c19.7-6.6,39.8-17.3,54.6-31.5c24.2-23.1,33.1-52.1,19.2-86.3c-15.9-39.3,2.1-67.7,44-72.9c10.1-1.3,20.7-1.8,30.6,0.1
	c38.4,7.4,77.6,12.9,114.8,24.5c99.8,31.2,184.8,87.1,256.3,163.2c15,16,27.9,34.1,43.5,53.5c4.2-7.1,8.1-12.2,10.4-18
	c59.3-150.9,118.3-301.8,177.5-452.7c4.7-11.9,10-23.6,15.4-35.2c12.1-26.4,34.1-41.4,61.6-44.7c61.3-7.3,112.5,15.3,152.8,60.7
	c22.4,25.3,28.6,55.8,16.1,88.6c-20.9,55-42,110-62.6,165.1c-51.8,138.2-103.4,276.5-155,414.8c-6.2,16.6-12.1,33.4-18.8,52.3
	c148.9,44.9,223.8,143.6,219.6,301c8.1,4.6,17,9.4,25.7,14.6c92.6,55.2,151.2,133.7,165.5,242.3c2.1,16.1,6.5,27.7,23.5,35.4
	c41.7,19.1,62.5,54.6,66.6,99.2c5.9,64.7,6.7,129.7,0.2,194.4c-5.2,52.6-24.1,97.9-75.3,122.6c-11.6,5.6-14.8,15.5-16.9,26.8
	c-10.5,54.5-21,108.9-31.8,163.3c-26.5,133-53.6,266-79.8,399.1c-37.7,190.9-75,381.8-112.2,572.8c-26.1,134-50.9,268.3-77.6,402.2
	c-6.8,34.1-16.2,68.2-29.1,100.4c-19.1,47.5-59.9,75.6-102.9,99.6c-77.6,43.3-161.6,68.6-248.2,85.7
	c-142.5,28.1-286.2,33.1-430.8,23.2c-76.8-5.2-152.9-15.5-227.7-33.1c-74.1-17.5-146.2-41.4-213-78.8c-17.1-9.5-33.5-20.5-49.2-32.2
	c-40.8-30.1-66.6-69.8-76.2-120.2c-19.5-103.1-39.7-206.1-60.1-309.1c-36.3-182.4-73.3-364.7-109.3-547.2
	c-39.8-201.8-78.6-403.7-118-605.5c-7.5-38.5-16.9-76.7-24-115.3c-3-16.5-9.8-27.2-25.2-35.2c-33.6-17.6-56-46.4-62.6-83.2
	c-14.1-78.5-16.1-157.9-7-237.1c4.4-38.8,25.3-69.5,58.7-88.6c22.6-13,32-28.5,37.7-54.6c15.6-72.3,58.4-127.9,120.7-168.1
	C1273.6,1308.9,1281.5,1304.1,1289.7,1298.9z M1326,1985.3c1.4,9.6,2.3,17.9,3.9,26c24.5,123,49.5,245.9,73.7,369
	c32.2,164.1,63.7,328.4,95.8,492.5c23.1,118.1,46.9,236,70,354.1c16.5,84.6,32.6,169.3,48.5,254c4,21.4,13.6,38.5,32.5,49.6
	c17.6,10.3,34.9,21.6,53.6,29.7c88.6,38.2,182.4,56.1,277.8,65.5c85,8.4,170.3,9,255.8,5.3c96.9-4.2,191.6-20,284.4-47.4
	c36-10.6,70.8-24.6,102.7-45.2c17.7-11.4,28.7-26.5,33.1-46.6c5-23.3,9.2-46.9,13.8-70.3c27.2-137.2,54.4-274.4,81.5-411.6
	c27.3-138,54.3-276.1,81.9-414.1c39.2-195.7,78.8-391.2,118.1-586.8c1.6-7.9,1.9-16.1,2.9-24.5
	C2412.2,2096.3,1871.3,2096.6,1326,1985.3z M2179.9,1542.9c-6.3,1.1-11.3,2.5-16.3,2.6c-79.3,1.6-158.8,6.3-238,3.8
	c-123.9-4-247-17.4-365.9-54.9c-78.4-24.8-151.7-58.3-198.4-131.4c-0.8-1.2-2.8-1.7-5.9-3.4c-30.4,7.5-55.7,26.1-79.5,46.8
	c-61.2,53-82.7,138.2-56.2,211.9c10.2,28.4,27.4,43.6,57.3,51.1c136,34.2,273.5,58.3,413,72.6c124.9,12.9,250,21,375.6,22.9
	c185.4,2.7,370.4-4.7,554.7-25.6c125.5-14.3,249.2-39,372.2-67.8c36.3-8.5,54.7-27.5,63-61c0.8-3.3,1.9-6.6,2.7-9.9
	c25.2-106.6-28.1-254-180.6-298.4c-2.4,2.8-5.2,5.9-7.9,9c-16.7,19.2-31.7,40.4-50.6,57.2c-44,39.3-97.5,62.3-152.7,81.2
	c-21.8,7.4-44,13.6-66.1,19.8c-8.8,2.5-15-1.4-17.1-10.5c-2.1-8.9-2.2-17.3,8.5-21c5.6-2,11.5-3.2,17.2-4.8
	c68.3-20,134.5-44.8,191.1-89.5c79.6-62.8,92-169.9,29.7-250.4c-44.5-57.6-108.1-76.2-175.7-89.8c-8.6,19.2-19.1,35.4-21.2,57.6
	c12.6-5.8,22.9-10.6,34-15.7c5,18.3-1.6,31.5-14,39.9c-12.4,8.4-26.6,16.1-41.1,19.3c-66.3,14.6-122.8-6.3-171.5-51.4
	c-14.9-13.8-23.8-31.5-24.9-51.9c-0.4-7.9,2.6-16.5,6.2-23.7c1.7-3.4,8.9-6.4,12.8-5.7c3.5,0.6,7.2,6.3,8.7,10.4
	c2.4,6.5,3,13.6,5.4,26c6.2-9.4,9.5-13.1,11.5-17.5c11.1-24,22.3-48,32.5-72.3c7.2-17.3,14.4-34.8,18.7-52.9
	c2.3-9.9,1.4-22.6-2.9-31.7c-11.4-23.8-23.9-47.4-38.7-69.2c-78.8-115.1-187.7-186.4-322.9-218.2c-8.9-2.1-17.9-3.3-26.1-4.8
	c-2.1,3.6-3.6,5-3.7,6.5c-0.3,8.5-0.2,17-0.5,25.6c-1.8,59.7-26.8,106.5-77.3,139.4c-26.3,17.1-55.5,26.2-85.6,32.7
	c-35,7.6-70.4,13.4-105.4,20.9c-45.2,9.7-89.3,23.1-129.3,47.1c-41.4,24.8-70.2,59.2-78.4,108.3c-5.1,30.5,1.1,58.6,23.2,80.4
	c16.9,16.6,35.3,32.6,55.6,44.5c51.8,30.3,110.1,41.2,168.7,47.7c39.7,4.4,80,3.4,120.1,4.8c15.3,0.6,23.1,6.9,22.3,18.4
	c-0.9,13.2-11.2,13.7-20.6,13.7c-29.9-0.2-59.9,0.6-89.6-1.7c-71-5.3-140.5-18.1-205.3-49.5c-31.8-15.4-60.9-34.3-81.6-64
	c-12.2-17.5-13-17.8-33.8-12.3c-44.7,11.9-87.6,28.6-126.8,53.5c-43.4,27.6-78.9,62-97.6,111.6c-27.3,72.1-12.7,170.8,59,227.3
	c43.7,34.5,92.8,57.3,145.7,72.4c118.2,33.7,239.3,47.5,361.7,49.4c71.6,1.1,143.4-2.3,215-3.6
	C2181.4,1514.1,2182.2,1515.1,2179.9,1542.9z M1125.7,1653.8c-1.3,3.8-2.9,6.1-2.8,8.4c1.3,56.3,2.5,112.6,4.3,168.8
	c0.5,15.1,7.3,28.4,18.6,38.2c12.2,10.5,24.6,22.1,39,28.4c35.8,15.8,72,31.2,109.4,42.6c141,42.9,286.4,62.6,432.6,75.7
	c95.1,8.5,190.7,12.3,286.1,17.7c119.5,6.7,239,2.5,358.3-3.6c83.4-4.3,166.5-14.7,249.7-22.6c119.1-11.3,236.5-32,352-62.9
	c47-12.6,92.8-28.9,134.5-55c26.3-16.5,43.1-38.9,43.9-70.7c1.4-50.3,2-100.5,2.6-150.8c0.1-4.6-2.1-9.3-3.5-15.2
	c-6.5,2.1-11.2,3.7-16,5.3c-41.3,13.6-82,29.2-123.9,40.4c-119.5,31.9-241.1,53.3-363.9,68.9c-121.2,15.4-242.8,24.7-364.7,28.1
	c-266.6,7.4-532.3-4-795.6-50.2c-84.8-14.9-169.5-30.6-251.9-56.2C1198.7,1678,1163.3,1666.1,1125.7,1653.8z M3057.6,1950.8
	c-17.6,5.2-30.9,9.8-44.5,12.9c-16.5,3.8-23.5,14-26.4,30.2c-7.3,41.2-15.7,82.1-24,123.1c-33.2,165.6-66.7,331.2-99.6,496.9
	c-41.7,210.1-82.9,420.2-124.4,630.3c-16.4,82.9-33.2,165.6-49.3,248.6c-6.4,33-22.4,59.6-52.4,74.9c-31,15.8-62.6,31.6-95.5,42.4
	c-107.7,35.6-219.5,49.5-332.2,54.8c-139.7,6.5-278-5.7-413.9-40c-54.7-13.8-108-32-156-63c-28.7-18.5-46.4-42.9-53-77.6
	c-33.8-178.5-68.7-356.9-103.7-535.2c-38.7-197.6-78.1-395-116.7-592.6c-24.1-123.1-47.3-246.3-71.3-369.3
	c-1.2-6-5.3-14.4-10.1-16.1c-19.6-7.2-40-12.2-63.9-19.2c1.5,12.7,2,20.9,3.5,29c4.3,21.8,9.3,43.4,13.6,65.2
	c45.7,232.8,91.3,465.6,137.1,698.3c22.5,114.7,45.5,229.4,67.9,344.1c28.7,147.4,57.9,294.8,84.8,442.5
	c8.2,45.1,32.1,75.7,69.3,99.1c53.2,33.5,110.9,56.4,171.4,72.5c83.4,22.3,168,36.7,254.5,42.2c160.4,10.4,319,2.8,475.1-37.8
	c60.4-15.7,119.1-35.8,173.1-68.4c42.5-25.6,70.6-58.8,79.2-109.8c15.4-90.8,34.2-181,51.8-271.4c40.9-210.1,81.7-420.3,123-630.3
	c40.3-205,81.4-409.9,121.9-614.9C3050.9,1993.5,3053.6,1974.3,3057.6,1950.8z M2637.3,951.5c3.5-4.8,5.3-6.5,6.1-8.5
	c15.4-41.4,31.2-82.7,45.6-124.5c2.4-6.9,0.4-16.7-2.6-23.9c-14.1-34.6-29.2-68.9-44.2-103.2c-2.9-6.6-6.8-12.8-11.4-21.3
	c-4,6.4-6.9,9.6-8.4,13.4c-14.4,36.4-29.2,72.6-42.5,109.4c-2.9,8-2.5,18.8,0.1,27.1c8.1,25,17.1,49.9,27.5,74.1
	C2615.8,913.1,2626.6,931.1,2637.3,951.5z M2707,759.9c4-3.7,6.7-5,7.4-7c15.3-40.5,30.6-81.1,45.1-121.9c1.8-4.9,0.5-12-1.7-17.1
	c-16.1-37.5-32.6-74.8-49.3-112c-1.8-4-5.3-7.1-10.4-13.7c-17.4,44.8-34,85.6-48.8,127c-2.8,7.7-0.4,18.7,2.9,26.8
	c13,31.4,27.2,62.3,41.2,93.3C2697.2,743.5,2702.1,751,2707,759.9z M2556.1,851.2c-5.3,6.8-8.1,9.2-9.3,12.2
	c-14,34.7-28.1,69.4-41.1,104.4c-2.8,7.5-3,17.1-1.2,25c4.7,20.7,11.3,41,16.7,61.6c3.5,13.1,12.4,20.1,24.8,22.9
	c7.4,1.6,15.2,1.7,22.8,2.4c14.7,1.3,23.9-4.5,28.9-19.1c4.9-14.4,11.4-28.5,18.4-42c6.5-12.4,6.6-23.1-0.1-36
	c-12.9-24.9-23.8-50.8-35.4-76.4C2573.1,889.3,2565.6,872.4,2556.1,851.2z M2774,579.6c5-5.3,6.7-6.3,7.3-7.8
	c15-38,30.3-75.9,44.3-114.3c2.2-6-0.4-15-3.3-21.5c-13.9-31.1-28.5-61.9-43.3-92.6c-3-6.2-7.4-11.8-14-22.3
	c-16.4,41-31.2,76.1-44.1,112c-2.8,7.8-0.6,18.8,2.6,27c11.2,29.5,23.6,58.4,35.8,87.5C2763.4,557.5,2768.2,567.1,2774,579.6z
	 M2880.7,315.2c-18-7.2-32.8-13.2-47.7-19c-15-5.8-24.9-22.5-47.6-22.6c16,46.6,34.4,88.7,55.6,136.9
	C2855.4,376,2867.6,346.8,2880.7,315.2z M2888.8,277.8c-2.3-23.3-22.1-28.4-38.3-35.8c-12.8-5.9-27-14.7-41.8-2.2
	C2829.4,265,2862.9,280.9,2888.8,277.8z M1179,1586.9c-18,9.8-37.4,11.1-43.7,32.6c20.1,9,38.2,19.6,63.8,22.8
	C1192.1,1623,1186.2,1606.7,1179,1586.9z M3093.8,1589.9c-6.9,19.7-12.8,36.6-20.6,59c26.3-11.7,48.6-17.9,72.7-34.8
	C3126.7,1605.2,3112.1,1598.4,3093.8,1589.9z M2482.3,1027.8c-12,15.6-11.4,18.6,5.4,28.7C2492,1045.7,2492.4,1036,2482.3,1027.8z"
	/>
</svg>
