<?xml version="1.0" encoding="utf-8"?>
<!-- Generator: Adobe Illustrator 24.3.0, SVG Export Plug-In . SVG Version: 6.00 Build 0)  -->
<svg version="1.1" id="Layer_1" xmlns="http://www.w3.org/2000/svg" xmlns:xlink="http://www.w3.org/1999/xlink" x="0px" y="0px"
	 viewBox="0 0 4000 4000" style="enable-background:new 0 0 4000 4000;" xml:space="preserve">
<path d="M3357.8,1303.7c25.8-4.7,48.1-9.4,70.7-12.8c72.2-11.1,142.4-2,209.4,26.4c110.3,46.9,175.8,132.1,204.1,247.1
	c23.8,96.5,14.2,191.6-15.5,285.2c-37.5,118-102.3,220.1-186.5,310c-112.9,120.4-245.7,211.7-401.4,268.3
	c-12.8,4.6-25.9,8.3-38.8,12.5c-11.8,3.9-23.6,7.9-40.6,13.6c11.6,6,18.2,10.8,25.7,13.1c88.9,27,171.3,67.4,247.6,120.4
	c43.7,30.3,81.2,66.7,107.5,112.9c50.3,88.6,41.1,174.8-14.5,257.6c-34,50.7-81.3,87-132.1,119.2
	c-97.5,61.6-204.8,100.5-313.9,134.9c-142.2,44.9-288.3,72.4-435.5,95c-255.8,39.2-513.2,49.3-771.3,41.7
	c-210.7-6.2-420.7-22.4-628.3-61.3c-148.4-27.8-295.4-60.8-437.2-113.9c-92.6-34.7-181.4-76.7-261.4-135.7
	c-40.2-29.7-73.2-66.2-97.3-109.8c-39.4-71.2-41-143.9-3.4-216.5c26.2-50.5,65.6-89.2,111.3-122c78.3-56.2,165.5-94.5,256.2-124.8
	c58.5-19.6,118.4-35,177.6-52.4c2.8-0.8,5.3-2.6,11.1-5.6c-4.4-9.5-7.7-19.1-13-27.5c-92.1-145-160.2-301.3-217.1-462.8
	c-76.6-217.7-122.2-442-144.7-671.3c-3.4-34.4-5-69.1-9.5-103.3c-12.2-91.5,22.3-164,89.2-223.4c57.1-50.7,123.2-86.9,193.4-115.6
	c130.4-53.4,266.1-88.9,404.6-113.5c254.7-45.3,511.7-61.8,770.1-55.7c176.1,4.2,351.9,15.6,526.1,43.5
	c160.6,25.7,319.6,57.9,471.2,119.2c70.4,28.4,136.3,64.3,196.4,110.9c30.2,23.5,55.7,51.1,76,83.1c20.5,32.3,34.9,67.6,32.2,106.7
	c-3.9,58.5-10,116.8-15.2,175.2C3360,1282,3358.9,1292.1,3357.8,1303.7z M3277,1203.8c-35.2,25.1-63.7,48.2-94.8,67.1
	c-79.3,48.3-166.2,78.9-254.8,105.5c-217.3,65.3-440.7,92.5-666.1,103c-252.5,11.8-504.9,9.9-756.6-21.3
	c-167.8-20.8-333.6-49.6-494.7-102c-100.1-32.6-196.5-73.1-278.1-142.2c-3.7-3.1-8.4-5-15.6-9.2c0,11.5-0.9,19.5,0.1,27.3
	c19,149.8,41.8,298.8,80.4,445.1c59.2,224.1,141.5,438.4,264.6,635.9c94.1,151.2,210.7,281.4,356.3,384.9
	c29,20.6,60.5,38.8,85.8,63.4c39.6,38.4,86.2,57.8,138.8,67.5c98,18.2,196.6,30.1,296.4,32.9c144.1,4,286.9-7.2,428.5-33.6
	c38.8-7.2,73-23.8,103.4-49.8c26.2-22.4,54.2-43,83-62.1c122.2-81,222.5-184.5,308.2-302.2c103.7-142.3,183.1-297.8,244.3-462.8
	c80.9-218,133.8-442.8,162.9-673.4C3272.2,1254.3,3274.2,1230.6,3277,1203.8z M1320.5,2675.8c-1.6-5.3-1.6-7.8-2.9-9.1
	c-43.4-42.5-87.1-84.6-130.1-127.3c-9.8-9.7-19.9-9.2-31.7-6.8c-43.1,8.7-86.5,16-129.4,25.6c-118.8,26.4-235.7,59-347.7,107.5
	c-50.2,21.8-98.4,47.5-136.6,87.9c-37.3,39.5-39.1,77.4-1.7,116.4c23.7,24.7,51.6,46.1,80.3,64.8c52.2,33.7,110.6,55,169.1,74.8
	c139.3,47,282.5,78.5,427.6,100.8c226.2,34.8,454.1,52.3,682.7,55.6c318.1,4.5,635-11.2,948.9-67.3
	c121.8-21.8,242.7-46.9,359.6-88.1c71.3-25.1,141.2-54.1,202.7-98.9c22.4-16.3,41.7-37.9,59.2-59.7c16.4-20.4,15.7-44.1,2.9-67.9
	c-14.9-27.6-35.4-49.8-61.7-65.7c-32.2-19.5-64.7-39.2-99.2-54c-152.1-65.2-311.8-103.3-474.6-129.8c-17.9-2.9-29.7,3.3-40.8,16.5
	c-34.4,41.1-70.4,80.5-113.8,112.5c-4.7,3.4-7.9,8.8-14.2,15.9c15,6.8,27.6,11.4,39.1,18c23.5,13.6,48.2,26.1,69,43.1
	c42.6,34.9,43.1,84.4,3.2,122.7c-10.5,10.1-22.7,18.6-35,26.5c-55.5,35.4-117.3,55.5-180.6,70.8c-107.2,26-216.5,40.1-326.1,48.7
	c-251.9,19.9-502.8,10.1-751.5-37.3c-66-12.6-131.3-28.6-192.1-57.8c-29-14-57.7-30.7-82.2-51.3c-42.3-35.5-40.6-89.2,1.2-125.4
	c13.3-11.5,28.9-20.7,44.3-29.5C1278.3,2696.6,1299,2686.8,1320.5,2675.8z M3245.3,1632.4c15.3-12.5,24.4-21,34.6-27.9
	c31.2-21,61.6-43.6,94.6-61.4c41.4-22.4,87.2-29.8,134.1-24.6c53.8,6,90.6,35.7,110.6,85.6c20.2,50.3,14,101.1-0.7,151.1
	c-76.8,263.3-331.1,466.1-582.6,482c-13.7,0.9-23.4,5.6-30.5,18.1c-21.1,37.4-43.2,74.2-64.7,111.4c-2.4,4.2-3.7,8.9-6.8,16.3
	c11.7,1.3,20.8,3.8,29.6,3.2c29.3-2,58.6-4.2,87.6-8.1c120.5-15.9,230.6-60.2,332.9-124.6c144.5-91,256.4-212.1,329.7-366.8
	c41.5-87.7,63-179.6,46.2-277.7c-23.4-136.8-134.6-229.7-273.5-229.7c-67,0-127.7,21.2-186.6,49.3c-8,3.8-16.1,14.5-18,23.3
	C3269.2,1509.1,3258.4,1566.6,3245.3,1632.4z M1977.9,1446.7c181.5,0.6,331.2-6.2,480.4-21.9c148.1-15.6,294.5-40.6,438.1-81.4
	c100.2-28.5,197.2-63.8,286.6-118.2c33.6-20.5,61.7-46.6,84.9-78.3c23.9-32.7,23.9-65.6,3.7-99.8c-19-32.2-45.7-57.2-75.4-79.1
	c-51.8-38.3-109-66.7-168.7-90c-95-37.1-193.8-60.7-293.2-82.1c-195.3-42-393.5-61.6-592.7-67.6c-301.4-9-601.4,5.3-897.5,68.3
	c-137.9,29.3-271.5,70.7-397,136c-44.4,23.1-82.5,53.9-113.5,92.9c-34.5,43.4-34.4,89.5,1.3,131.9c15.4,18.3,33.9,34.4,52.9,48.9
	c75.4,57.6,163.6,88.5,252.2,117.9c153,50.8,311.6,74.5,470.7,94.3C1676.1,1439.1,1842.5,1448.1,1977.9,1446.7z M1947.3,2979.6
	c115.3,2.6,230.5-1.2,345.3-12.4c107.5-10.4,214.1-26.4,317.6-58c47.1-14.4,93.7-30.9,133.2-61.8c37.7-29.3,38.5-63.2-1.2-89
	c-28.6-18.6-61.5-30.7-92.7-45.3c-12.9-6.1-24-1.7-34.9,6.4c-43.6,32.5-88.4,63.6-131.2,97.2c-29.6,23.2-61.8,38.5-98.3,46.4
	c-89.3,19.1-179.8,28.8-270.8,34.2c-105.9,6.3-211.7,3.1-317-7.9c-61.3-6.4-122.2-17.4-182.8-29.1c-39.2-7.6-78.6-20.2-107.2-49.1
	c-38.2-38.6-86.2-62.8-129-94.5c-7.9-5.8-22.5-8.5-31.7-5.5c-37.9,12.2-74.4,28.7-105.6,54.3c-26.2,21.5-28.4,42.5-4.8,67
	c14.3,14.9,31.6,27.8,49.7,37.8c61.2,33.6,128.6,50,196.1,64.6C1635.4,2968.1,1791.1,2976.7,1947.3,2979.6z M643.1,2987
	c-0.5,0.9-0.9,1.7-1.4,2.6c4.6,3.7,8.8,7.9,13.8,11c11.5,7.3,23,14.7,35,20.9c97.2,50.1,200.1,85.3,305,114.5
	c145.5,40.5,294.1,64.5,443.7,84.5c149.8,20,300.2,30.6,451,34.5c231.7,5.9,462.8-3.2,692.9-35.2c147.4-20.5,293.8-45.2,436.4-88.5
	c90.1-27.4,179.9-55.9,263.9-99.6c12.4-6.5,24.5-13.6,36.7-20.4c-31.3,6.8-59.6,19.4-88.6,30c-90.6,33.3-184.6,53.9-278.8,74.5
	c-166.1,36.3-334.1,58.8-503.3,72c-88.8,6.9-177.9,9.2-266.8,13.9c-200.3,10.6-400.4,0.1-600.1-11.6c-154.6-9-308.2-30.9-460.7-59.7
	c-140.3-26.5-278.1-60.6-411.1-112.7C687.7,3008.7,665.6,2997.3,643.1,2987z M3144.3,2112.3c1.6,2.1,3.2,4.2,4.8,6.3
	c10.6-3.1,21.6-5.4,31.7-9.5c49.6-20.3,95.8-47,137.9-80.2c94-74.1,167.5-163.8,204.2-279.4c9-28.4,13.4-59.1,14.7-89
	c1.3-30.1-16.1-47.4-46.4-47.9c-20.3-0.4-41.8,3.4-61,10.2c-51.1,18.1-93.5,50.2-132,88.1c-17,16.8-28.4,35.4-34.3,58.5
	c-24.8,97.5-59.3,191.7-96.6,285C3159.7,2073.6,3152,2093,3144.3,2112.3z M697.9,2611.1c6.5,1.3,8.8,2.5,10.4,1.9
	c133.1-51.1,269.7-89.7,410.3-114.1c8.4-1.5,16.2-6.4,25.6-10.2c-10.8-21-25.2-13.3-36.8-10.2c-72.7,19.4-145.5,38.5-217.7,59.8
	C825.5,2557.4,762,2578.6,697.9,2611.1z M3292.2,2610.1c0.7-0.4,1.5-0.8,2.2-1.2c-11.4-5-22.4-11-34.1-14.9
	c-77.1-26.1-153.9-53.3-231.7-77c-48.9-14.8-99.4-24.3-149.2-35.7c-9.3-2.1-20.4-8-30.7,8.7c75.4,18.1,149.2,34.1,222.1,53.9
	C3145.1,2564.2,3218.4,2588,3292.2,2610.1z"/>
<path d="M1986,753.2c162.9,4.3,325.2,13,486.6,31.6c151.9,17.5,303.2,40.7,449.7,86.9c73.1,23.1,144.8,50.1,207.5,95.5
	c20.1,14.6,39.2,32,54.7,51.3c37.2,46.3,34.2,102-5.8,146c-35.2,38.8-79.8,64.2-126.9,85.4c-94.2,42.4-194,66.6-294.5,87.7
	c-155.2,32.5-312.7,45.8-470.6,57.8c-204.4,15.6-408.5,12.1-612.5-2.8c-156.8-11.4-313.1-29.3-466.8-62.9
	c-102.4-22.4-204.1-48.9-297.5-98.5c-30.2-16-58.2-37.1-84.7-59c-14-11.5-24.2-28.9-32.8-45.3c-18.3-34.6-13.9-68.8,7.1-101.2
	c22.2-34.3,53.3-58.9,88-79.2c81.2-47.4,169.2-78,260.1-99.8c148.9-35.7,299.7-60.7,452.6-70.7
	C1728.7,767.8,1857.4,760.8,1986,753.2z M957.3,1206.6c5.1,6.8,6,9.4,7.6,9.9c13.8,4.9,27.9,8.9,41.5,14
	c115.2,43.6,235.4,68.1,356.4,87.4c149,23.8,299.2,38.1,450.2,42.2c265.3,7.2,530.2,3.4,793.3-36c137.9-20.7,274.2-48.6,405.1-98.6
	c6.2-2.4,11.9-6.2,20.3-10.6c-19.4-19.1-41.5-26-62.8-33.7c-113.6-40.8-230.4-69.5-349.4-89.4c-137.6-23-276.2-35.3-415.6-40.3
	c-297.9-10.6-595-6.7-889.4,47.3c-107.2,19.7-213.2,44.9-314.5,86.3C985.9,1191.1,972.6,1198.9,957.3,1206.6z M2009.4,802.1
	c-158.7-0.8-298.8,4.7-438.8,18.4c-152.4,15-303.7,35.1-451.3,77.1c-75.7,21.5-150.9,45.1-217.6,88.1
	c-24.3,15.7-47.4,34.9-66.4,56.5c-22.8,25.9-22.5,53-1.7,80.6c13.6,18.1,32.2,32.4,48.6,48.5c16,15.7,31.8,14.5,50.9,3.5
	c24.4-14,49.9-27,76.4-36.2c49.4-17.2,99.3-33.4,150-46.4c212.2-54.5,429.2-74.3,647.2-82c179.1-6.3,358.3-4.6,537.2,10.9
	c166.3,14.3,331.2,36.5,493,77.6c75.1,19.1,149.8,41.3,217.5,80.4c19.8,11.4,34.1,12.3,50.8-1.5c8.1-6.7,16.8-12.5,24.7-19.4
	c58.7-50.9,57.3-96.1-3.9-144.6c-48.3-38.3-103.6-63.2-160.8-84.1c-121.5-44.5-247.4-71.4-375.3-88.8
	C2391.2,813.9,2191.8,798,2009.4,802.1z"/>
</svg>
