<?xml version="1.0" encoding="utf-8"?>
<!-- Generator: Adobe Illustrator 24.3.0, SVG Export Plug-In . SVG Version: 6.00 Build 0)  -->
<svg version="1.1" id="Layer_1" xmlns="http://www.w3.org/2000/svg" xmlns:xlink="http://www.w3.org/1999/xlink" x="0px" y="0px"
	 viewBox="0 0 4000 4000" style="enable-background:new 0 0 4000 4000;" xml:space="preserve">
<path d="M3136.9,1379c26.4-3.6,49-6.7,71.6-9.8c187.2-25.9,370.7,62.6,468.2,224.5c95.7,158.8,122.7,331.2,104.3,512.9
	c-9,89.3-27.2,177-59.8,260.7c-71.5,183.3-187.5,328.1-369.7,411.7c-109.4,50.2-224.5,64.9-343.7,46.2c-13.6-2.1-27.3-3-43.7-4.8
	c-5.1,15.6-10,29.5-14.2,43.6c-67.3,230.5-213,392.6-429.3,493.6c-156.2,73-320.1,116.5-491.4,134.4c-198,20.7-394.9,11-589.2-29.8
	c-169.2-35.6-330.7-93.6-473.1-195.6c-117.2-84-203.2-192.5-257.5-326.5c-46.1-113.9-74.6-232.4-88.6-353.8
	c-21.6-186.8-39.4-374.1-57.1-561.4c-16.5-174.6-31.5-349.3-45.8-524.1c-11.4-138.9-20.2-278-31.3-417
	c-9.8-122.5,38.8-219.1,129.2-297.6c88.2-76.6,191.7-125.9,300.1-166.2c157.5-58.6,321.3-90.7,487.2-114.1
	c170.8-24,342.5-31.2,514.5-25.3c239.7,8.2,477.5,33.6,708.3,102.9c127.3,38.2,249.9,87.5,357.8,167.8
	c55.7,41.4,104.2,89,136.7,151.1c26.4,50.4,38.6,104.4,35.5,161.4c-4.4,81.2-9.4,162.3-14.2,243.5
	C3140.4,1330.3,3138.6,1353.2,3136.9,1379z M602.8,1187.6c-1.2,6.3-2.6,9.6-2.3,12.9c15,192.2,29.1,384.4,45.5,576.5
	c17.8,208.2,37.1,416.3,56.9,624.4c12.2,128.4,33.1,255.5,64.1,380.9c54.4,220.2,183.7,379.1,388.5,477
	c177.8,84.9,367.2,121.2,562,134.8c96.4,6.8,192.6,2.9,288.7-7.6c166.1-18.2,327.1-54.9,478.3-128.4
	c96.2-46.8,183.3-105.2,249.6-190.8c58.4-75.4,96.6-160.9,122.5-252.2c34.3-121.1,48.5-245.8,64-370.1
	c13.7-109.4,25-219.1,36.7-328.8c15.8-147.7,32.2-295.4,46.4-443.3c14.7-153.7,27.3-307.6,40.5-461.4c0.9-11,0.1-22.1,0.1-37.2
	c-7.2,5.3-11.2,7.3-14.1,10.4c-77.3,84.3-175,137.8-278.8,179.8c-199.7,80.7-408.7,122.4-622.8,140c-139,11.4-278.2,13.1-417.8,8.3
	c-243.7-8.5-483.7-39.5-716.8-113c-139.3-44-271.9-101.8-378.6-206.4C613.2,1191.1,609.4,1190.5,602.8,1187.6z M1829.3,581.7
	c-67.3,2.9-134.6,5-201.9,8.7c-211.9,11.7-420.1,45-622.4,110.6c-87.5,28.4-171.6,64.3-250.6,112c-46.3,28-86,63.2-119.7,105.3
	c-58.6,73.1-60,148-3.8,223.3c28.8,38.7,65.1,69.5,105.3,95.5c87.5,56.6,183.1,95.5,282.2,126.2c216.8,67,439.6,97,665.5,106.9
	c135.9,6,271.6,3.1,407.4-7c188.5-14,373.2-46.1,552.8-105.6c96.3-31.9,188.4-72.8,273-129.6c41.9-28.1,78.3-61.5,106.7-103.7
	c37.5-55.7,39.4-112.6,8.6-171.2c-22.6-43-54.8-78.1-94-106c-32.1-22.9-65.4-44.5-100.1-63c-132.3-70.3-273.7-115.7-420.1-144.8
	C2223.9,600.8,2027.4,584.1,1829.3,581.7z M2961.2,2509.2c-2.4,5.5-5,9.4-5.7,13.6c-8.6,50.3-16.6,100.8-25.4,151.1
	c-3,17.2,7.3,23.9,20.3,26.9c37.3,8.5,74.6,20.7,112.3,22.5c154.5,7.3,290.4-39.5,402.6-148.3c66.8-64.8,116.8-141.2,151.1-227.5
	c54.2-136.1,74.4-277.7,61.6-423.4c-7.5-85.1-28.5-167.4-70-242.6c-80.8-146.3-202.2-223.3-373-211.7c-49,3.4-95,19.7-141.3,35.5
	c-29,9.9-39.6,26.5-40.3,55.9c-1,42.9-5.5,85.7-8.1,128.6c-0.7,11.3-0.1,22.6-0.1,40c14.6-8.6,25.5-14.3,35.7-21
	c40.3-26.7,84.3-43.7,131.8-51.7c93.2-15.6,187.4,26.6,234.2,108.9c18.7,32.9,34.5,69.1,43.1,105.8c38.3,163,14.3,318.5-67.7,464
	c-47.5,84.3-114.1,149.7-207.1,182.6c-80.2,28.3-160.9,34.2-240.1-5.3C2971.3,2511,2966.7,2510.6,2961.2,2509.2z M3034.3,2421.4
	c37,12.3,69.4,13.5,101.4,6.7c91.9-19.6,159.2-73.3,204.2-154.4c58.4-105.3,72.9-218.9,57-337c-5.3-39.3-16.3-77-36.3-111.8
	c-26.2-45.7-65.1-67.6-117.9-64.4c-45.7,2.8-84.2,23-121.4,47.8c-17.9,11.9-26.9,26.1-29.1,48c-17.2,168.4-35.5,336.8-53.3,505.2
	C3036.8,2380.7,3035.9,2400.1,3034.3,2421.4z"/>
<path d="M1785.3,1367.7c-221.6-2.4-440.4-30-655.9-80.5c-114.5-26.8-225.3-65.6-322.8-134.8c-30.8-21.9-56.1-48.3-74.9-81.3
	c-26.4-46.2-26.9-92.6-2.8-139.7c20.6-40.2,51.2-71.6,87.9-97.3c96.5-67.3,203.2-111.3,317.2-138.6
	c229.3-54.9,461.8-78.4,697.6-77.8c164.3,0.4,327.5,9.9,489.4,36.1c124,20,246.2,48.7,362.4,97.9c68.7,29.1,134.5,63,186.4,119.3
	c79.3,85.9,76.8,187-12.9,262.1c-37.8,31.7-81.7,57.7-126.1,79.7c-100.6,49.7-208.8,77.4-318.5,98.8
	C2205.2,1352,1996.2,1371.2,1785.3,1367.7z M1571.5,838.3c5.5-10.7,9.2-16.5,11.7-22.8c14.2-35.6,39.7-59.5,75.2-72.9
	c100.8-38,203.4-44.5,307.7-16c40.1,11,71.1,33.2,89.8,71.3c4,8,9.7,15.2,15.4,24c16.9-3.9,32.5-7.5,48.2-11
	c92.3-21.1,184.2-23.5,275,7.1c37,12.5,71,30.6,92.3,64.8c11.6,18.6,27.2,25.5,47.6,30.5c45,11.1,89.8,23.7,133.6,38.8
	c66.2,22.9,129.2,52.3,181.6,100.6c4.4,4.1,11.9,4.8,19.5,7.7c21.9-34.9,24.4-70.7,6.7-104.1c-14.4-27.1-33.8-53.1-56.2-74.2
	c-48.1-45.2-108-72.1-168.7-95.9c-163.6-64.1-334.8-96.1-508.9-110.6c-223.9-18.6-447.9-19.2-671.6,6
	c-112.1,12.6-223.2,30.2-332.4,58.5c-86.8,22.4-171.6,50.5-250,95.1c-41.6,23.7-81.5,49.6-110.5,88.9
	c-32.8,44.5-33.4,94.3-1.3,139.9c6.5-3.9,13.9-7.1,19.8-12.1c45.6-38.8,96.5-69,152.1-90.2c42.2-16.1,85.7-28.7,128.8-42.4
	c15.6-4.9,32.4-7.3,39.6-24.8c23.8-58.1,73.4-80.8,129.6-94.2c98.2-23.5,193.7-13.2,286.9,24.2
	C1544.9,829.1,1556.8,833,1571.5,838.3z M1974.4,1023.8c6.5,36.2,12.2,72.8,19.8,108.9c6.5,30.5,25.6,52.8,54.8,62.9
	c37.1,12.8,74.7,26.4,113.2,32.7c87.4,14.3,171.1-2.7,249.9-42.4c33.3-16.7,55-43.3,56.3-81.9c1.4-44,3.9-88.2,0.7-131.9
	c-5.4-72.4-27.3-96.5-97.4-117.6c-7.8-2.3-15.6-4.5-23.6-6.1c-103.3-20.3-203.4-7.6-300.5,31.1c-28.4,11.3-49.6,32-58.1,61.2
	C1981.9,967.2,1979.5,995,1974.4,1023.8z M1394.6,1222.8c23.1-1.8,46.4-2.4,69.3-5.6c19.4-2.8,38.4-8.6,57.5-13.3
	c40.4-10,67.6-34.5,79.8-74.5c8.8-28.8,18.2-57.5,24.6-86.9c17.4-80.1-14.5-144-90.7-173.5c-39.6-15.3-82-24.9-123.9-32
	c-60.1-10.2-120.2-4.5-179.1,11.6c-49.1,13.4-81.2,44-89.6,95.3c-6.4,38.8-10.4,78-15.8,116.9c-5.8,41.6,12.7,72.2,45.1,95.1
	c18.8,13.3,39,25.4,60.1,34.4C1283.6,1212.3,1338.2,1222.2,1394.6,1222.8z M1842.6,750.6c-54.6,4.2-107.2,10.5-158.1,28.5
	c-24.9,8.8-45.3,22.7-59,45.9c-11.1,18.9-13.1,35.9,3.9,53.4c32.9,34.1,40.5,76.9,38.8,122.3c-1.6,41.4-1.5,41.2,36.4,54.7
	c68.2,24.2,137,16.8,206.1,5.4c16.5-2.7,23.9-12.3,23.7-28.7c-0.1-7,0.3-13.9,0.3-20.9c0.8-65.4,14.7-124.5,75.7-161.8
	c13.6-8.3,13.7-20,6.8-33.1c-12.1-23-31.6-38.3-55.7-44C1922.3,763.1,1882.3,757.7,1842.6,750.6z"/>
<path d="M2370.2,927.4c10.6,21.3,0.6,30.8-10.4,37c-17,9.5-34.9,18.5-53.5,23.8c-47.3,13.5-95.5,18.1-144.1,6.8
	c-27-6.3-54.1-12.6-80.7-20.3c-9.6-2.8-20.9-7.4-26.3-14.9c-5-6.8-6.5-20-3.3-27.8c2.4-5.7,15-10.6,22.7-10.1
	c11.1,0.7,22.4,5.6,32.8,10.5c69.9,32.9,140.8,32.4,212.9,7.8C2336.2,934.8,2353,931.8,2370.2,927.4z"/>
<path d="M1538,985.4c-20.4,2.3-36.6,2.8-52.3,6.1c-65.7,13.5-129.4,5.9-191.9-16.1c-6.6-2.3-13.1-4.8-19.3-8
	c-11.9-6.1-23.4-14.1-17.7-29.5c5.8-15.9,19.5-13.6,32.4-9.5c7.7,2.5,15.1,6.6,23,7.9c39.9,6.7,79.8,15.8,120,18.1
	c25.9,1.5,52.6-6.2,78.5-11.9c34.2-7.5,45.4-3.3,62.2,27.6c13.4,24.7,15.9,51.2,9.8,77.8c-5.1,22.4-12.7,44.4-21.3,65.7
	c-2.2,5.3-15.2,11.5-19.2,9.5c-6.7-3.5-14-13.3-14-20.4c0-13.6,4.3-27.4,7.9-40.8C1542.7,1037.9,1543.3,1014.2,1538,985.4z"/>
<path d="M1691.7,821.8c10.6,1.7,21.9,2.8,32.8,5.4c49,11.9,98.1,16.6,147.7,3.1c8.8-2.4,18.5-3.4,27.4-2.5
	c5.8,0.6,14.1,4.9,15.9,9.5c1.9,5.1-0.4,14.9-4.5,18.5c-7.5,6.6-17.2,12.6-26.8,14.7c-58.5,12.6-117.3,13.4-175.4-1.9
	C1684,862.1,1681.1,852.1,1691.7,821.8z"/>
</svg>
