<?xml version="1.0" encoding="utf-8"?>
<!-- Generator: Adobe Illustrator 24.3.0, SVG Export Plug-In . SVG Version: 6.00 Build 0)  -->
<svg version="1.1" id="Layer_1" xmlns="http://www.w3.org/2000/svg" xmlns:xlink="http://www.w3.org/1999/xlink" x="0px" y="0px"
	 viewBox="0 0 4000 4000" style="enable-background:new 0 0 4000 4000;" xml:space="preserve">
<path d="M1920.6,545.6c0-15.8,0-28.4,0-41c-0.2-96-0.6-192.1-0.4-288.1c0.1-47.6,15.8-71.1,61-84.9c94.4-28.9,189.3-26.9,283.5,1.4
	c12.9,3.9,25.3,10.8,36.7,18.1c23.7,15.3,36.3,36.4,35.8,66.2c-1.5,99-1.6,197.9-2.2,296.9c-0.1,9.6,0,19.3,0,31.4
	c14.4,3.3,27.5,6.2,40.4,9.4c136.6,33.8,268.4,79.4,387.6,156.5c160.4,103.8,280.4,243,362.9,414.7c46.5,96.8,79,198.2,93.8,304.8
	c2.2,16.1,9.5,24.4,24.8,27.9c33.8,7.8,54.2,30.4,63.6,62.5c7.4,25.3,13.8,51.1,18.3,77.1c7,39.5,13.2,79.3,17.6,119.1
	c5.3,47.7-13.8,76.2-59,92.2c-4.6,1.6-9.4,2.8-14.1,4.2c-42.7,13.1-43.4,13-50.1,58c-22.1,148.2-43.8,296.5-65.6,444.7
	c-16.5,112.4-33.1,224.8-49.4,337.2c-22.9,158-45.5,316-68.4,474c-19.6,135.7-39.7,271.4-59,407.1c-5.4,38.2-21.8,70.4-47.1,99.2
	c-38.2,43.5-85.3,74.7-136.2,100.7c-102,52.2-210.6,84.5-322.6,106.1c-174.4,33.6-349.7,40.1-526.4,19.6
	c-139-16.1-273.8-48-403.1-101.4c-70.1-29-135.9-65.4-190.2-119.9c-30.7-30.8-50.7-66.2-56.8-110.1
	c-18.9-137.8-38.9-275.4-58.5-413.1c-24.7-173.5-49.5-347.1-74.4-520.6c-26.2-183.2-52.6-366.4-78.8-549.6
	c-9.7-67.9-19.9-135.7-29-203.6c-1.7-12.7-7.3-19-19.1-22.3c-20.7-5.9-41.6-11.4-61.6-19.3c-40.4-16-51.9-37.6-45.6-80.4
	c9-62,17.9-124,26.8-186.1c5.8-40.8,27.5-68.8,67.4-80.4c17.8-5.2,23.8-15.5,26.8-33.2c43.1-251.2,156.8-464.2,349.2-632.5
	c139.4-122,302.5-197.2,483.6-234.3C1894.8,551.8,1906,548.9,1920.6,545.6z M1822.8,3644.2c5.8,4.4,7.2,6.3,8.8,6.6
	c31.8,5.6,63.6,11.4,95.5,16.4c213.6,33.8,423.8,16.8,630.5-45.3c66.7-20,131.1-46.2,189.7-85c28.9-19.1,50.6-41,54.5-78.5
	c5.9-56.4,15.6-112.5,23.5-168.7c17-121.2,33.8-242.4,50.7-363.6c18.6-133.8,37.2-267.7,55.9-401.5
	c16.9-121.2,34.1-242.4,51.1-363.6c2.8-20.1,5-40.2,7.5-60.1c-4.6-0.9-6.6-1.9-8.2-1.5c-4.8,1-9.5,2.3-14.1,4
	c-105.4,38.7-214.9,60.1-325.8,73.8c-88.4,11-177.2,18.7-266.1,25.1c-137,9.8-274.3,8.5-411.3,1.5c-128.1-6.5-255.9-17.5-382.8-38.2
	c-91.8-15-183.7-29.5-271.6-61.5c-4.9-1.8-10.5-1.6-18.1-2.7c0.7,9.1,0.9,15.8,1.9,22.3c8.5,61.1,17.2,122.2,25.5,183.4
	c22.3,164,44.3,328.1,66.8,492.1c30.3,221.2,61.3,442.4,91.2,663.7c3.6,26.3,14.5,45.2,35.8,60.7c60.3,43.8,128.8,69.9,198,94.7
	c3,1.1,6.6,0.5,13.9,0.9c-23.8-31.9-39.5-62.7-35-100.4c4.6-38.4,21.1-69.1,55.4-88.4c54.1-30.5,126.6-15,153.8,33.2
	c15.2,26.9,24.5,55.4,16.5,87.2C1904.2,3599.6,1868.5,3625.2,1822.8,3644.2z M1098.6,1485.5c19.8,5.6,36.6,10.3,53.3,15.1
	c170.9,49.4,346.1,76.1,522.6,93.2c142.4,13.8,285.3,19.5,428.4,20.4c167.7,1.1,335-5.4,501.9-21c137.4-12.8,273.9-33.5,408.4-65.7
	c45.7-10.9,91.3-22.1,136.6-34.1c20.2-5.4,21.3-8.4,17.7-29.3c-4-23.1-8.3-46.2-13.1-69.2c-39.2-188.7-122.9-354.3-257.3-493.3
	c-147.2-152.2-329.3-239.7-533.2-286.2c-9.6-2.2-20.2-0.3-31.2-0.3c6.1,17.8,6.5,17,20.2,23.4c25.6,11.8,52.8,21.8,75.6,37.8
	c32.1,22.5,32.2,60.9,0.3,83.8c-21,15-45.9,26.5-70.7,34c-92.8,28-188.4,35.4-284.8,29.7c-63.6-3.8-127.1-11-187-34.3
	c-21.6-8.4-43.6-18.7-61.5-33.1c-32.2-25.8-29.7-61.8,3.2-86.6c8.5-6.4,18.1-11.8,27.9-15.9c16.2-6.8,33-12.1,49.4-18.5
	c8.6-3.3,19.8-4.7,18.4-20.7c-19.2-5.9-38.1-1.5-56.5,3.8c-34.7,10.1-69.3,20.9-103.6,32.4c-137.9,46-258.9,120.4-363.6,220.8
	c-115.3,110.5-196.6,243-250,393C1124.8,1334.8,1108.8,1407.2,1098.6,1485.5z M987.2,1739.1c4.8,3.2,7.6,6.2,11.1,7.4
	c26,8.6,51.9,17.8,78.2,25c221.8,60.6,448.4,92.6,676.9,111.1c106.3,8.6,213.1,12.3,319.8,14.6c181.3,3.8,362.4-1.7,542.8-21
	c158.7-17,316.5-40.2,472-76.6c56.1-13.2,111.7-29.1,167.1-44.9c31.9-9.1,33.4-13.2,28.2-46.3c-2.1-13.5-3.7-27.2-5.9-40.7
	c-6.3-37.6-11.5-75.5-19.6-112.8c-7.1-33.1-17.3-38.7-49.8-33.5c-8.7,1.4-17.5,2.6-26,4.8c-120.3,31.3-241.7,56.9-364.4,77
	c-152,24.8-305,38.2-458.6,44c-173.3,6.5-346.6,4.9-519.9-3.7c-150.9-7.5-300.3-26.1-449-51.1c-107.2-18-213.4-40.4-317-74.2
	c-33.6-10.9-53.2,0.8-59.7,35.5c-6.7,35.6-11.5,71.5-16.6,107.4C993.2,1687,990.4,1713.1,987.2,1739.1z M2777.1,1924.1
	c-0.3,1.5-0.6,2.9-0.8,4.4c13.4,2.4,26.8,5.6,40.3,7.2c54.1,6.1,105.1,23.2,155.2,43.1c13.5,5.3,26.1,13.5,38.1,21.8
	c17.4,12,25.9,28.4,22.8,50.4c-3.6,26.2-5.6,52.6-9.3,78.8c-31.6,227-63.5,453.9-95.3,680.9c-30.8,220.2-61.9,440.3-91.6,660.7
	c-4.7,34.7-18.9,60.5-46.5,81c-40.4,30.1-84.5,53.3-130.9,72.2c-129.9,53.1-265.5,82.6-405,92.2c-200.5,13.8-397.1-7.6-587.2-76.4
	c-65.6-23.7-129.4-50.8-184.9-94.6c-23.1-18.3-34.9-40.4-38.7-69.4c-16.1-124.3-33.1-248.5-50.2-372.7
	c-16-116.4-32.8-232.7-48.9-349.1c-23.2-167.8-46.1-335.6-69.1-503.5c-8.8-64-16.5-128.2-26.5-192c-5.8-36.9,7.9-61.4,41.1-74.7
	c33.5-13.4,67.3-26.9,102.1-36.2c41.1-11,83.3-17.5,123.4-25.6c-130.4-24.1-261.8-48.4-395.4-73.1c0.7,9.6,1,19.2,2.3,28.6
	c4.7,33,9.9,65.9,14.7,98.8c36.7,252,73.6,504,109.9,756.1c26.9,187.1,52.9,374.4,79.5,561.6c10.9,76.6,22.2,153.2,32.9,229.8
	c4.4,31.7,18.6,57.6,43.6,77.3c19.9,15.8,39.7,32.1,60.8,46.1c70,46.7,148.1,75.8,228.1,99.3c125.5,37,253.9,56.7,384.8,61.5
	c196.8,7.2,389.2-15.7,575.6-80.2c78.9-27.3,154.2-62.7,218.6-117.9c27.3-23.4,44.1-51.2,49-87.3c11.2-81.5,23.9-162.7,35.6-244.2
	c13.5-94,26.2-188.1,39.7-282.1c17.8-124,36.1-248,54.1-372c21.1-145.3,42-290.7,63.4-436c15.3-103.6,31.3-207.2,46.7-310.8
	c1.4-9.4,1.3-19,1.9-30C3031.5,1873.8,2904.3,1898.9,2777.1,1924.1z M1284.3,2034.8c4.7,18.6,18.1,24.2,30.5,28.6
	c32.2,11.5,64.5,23.6,97.7,31.2c147.3,33.7,296.9,53.3,447.4,63.3c155.4,10.4,311,16.7,467,8.1c158.6-8.7,316.5-22.4,472.2-54.3
	c58.5-12,116.5-26.5,171.1-51.6c10-4.6,19-11.4,29.5-17.8c-14.7-21.5-35-27.6-53.6-34.7c-77.3-29.7-158.4-44-240.1-53.4
	c-50.5-5.8-101.3-9.9-152.1-10.9c-39-0.8-78.2,4.3-117.3,6.8c-190.9,11.9-381.9,13.4-572.8,1.4c-93.9-5.9-187.4-11.8-281.4,2
	c-76.6,11.2-153,22.6-226.9,46.4C1330.7,2007.7,1305.3,2015.6,1284.3,2034.8z M2272.3,762.4c1.8-170.5,3.5-337.1,5.2-506.3
	c-100.6,29-197.6,32.8-296.7-3.4c0,171.9,0,338.9,0,508.4C2076.8,778.2,2172.7,776.2,2272.3,762.4z M2268.1,210
	c-2.4-16.3-15.5-17.9-26-20.9c-72.7-20.8-146-23.7-219.5-5.1c-11.4,2.9-28.9,3.3-30.1,18.6c-1.3,16.7,17.7,14.3,27.7,20.5
	c2.4,1.5,5.6,1.4,8.4,2.2c76.7,22.1,152.4,14.1,227.6-7.9C2260.6,216.1,2264.2,212.5,2268.1,210z M2334.3,748.7
	c27.1-9,52.1-9.5,67.7-34.1c-18.1-21.6-41.2-24.1-67.7-25.9C2334.3,708.9,2334.3,725.8,2334.3,748.7z M1919.8,685.5
	c-24.3,6.5-48,6.8-65,27.7c16.4,22.4,38.5,29.4,65,34.7C1919.8,726,1919.8,707,1919.8,685.5z"/>
<path d="M1900.4,3081.3c72.8,2.3,129.3,60.1,127.2,130.3c-2.2,74.8-61.5,130.6-136,128c-72.7-2.5-125.7-57.8-124-129.1
	C1769.4,3138.5,1830.5,3079.1,1900.4,3081.3z"/>
<path d="M2087.3,3106.9c-72.4-0.2-126.6-54.5-126-126.1c0.7-74.5,57.7-132.9,128.7-131.7c73.7,1.3,130.2,56.7,129.7,127.3
	C2219.2,3052.1,2163.3,3107.2,2087.3,3106.9z"/>
<path d="M1737.1,2997.4c-0.9,73.5-59.2,131-131.5,129.8c-70.4-1.1-127.4-59.2-126.1-128.4c1.4-71.5,60.6-133.3,127-132.7
	C1678.6,2866.8,1738,2926.5,1737.1,2997.4z"/>
<path d="M2360.4,3625.3c-67.4,0.4-122.8-55.2-123-123.2c-0.2-74.6,56.5-137,124.9-137.4c72.7-0.4,128.1,54.9,128.6,128.2
	C2491.4,3570.2,2437.5,3624.9,2360.4,3625.3z"/>
<path d="M1627.7,3192c71-1.2,127.9,69.7,125.8,129.2c-2.8,76.6-61.5,133.9-135.8,132.3c-69.3-1.5-128.6-65.4-126.1-135.9
	C1494.1,3247,1556.1,3189.8,1627.7,3192z M1595.1,3265.6c0.4-12.9-8.7-23.6-20.4-24c-18.4-0.6-37.7,18.2-38.3,37.5
	c-0.5,13.5,7.2,21.1,21.8,21.5C1576,3301.1,1594.5,3283.6,1595.1,3265.6z"/>
<path d="M1956.2,3465.6c1.1-79,57.4-135.6,133.2-133.9c68.4,1.6,126.5,63.6,125.3,133.9c-1.3,71.2-59.2,126.3-132.1,125.7
	C2015.5,3590.7,1955.3,3530.8,1956.2,3465.6z M1997,3428.5c-0.2,16.3,7.2,25.5,21,26.1c17.5,0.8,31.6-13.2,31.4-31.1
	c-0.1-14.4-11.7-26.7-25.3-27C2009,3396.3,1997.1,3410.2,1997,3428.5z"/>
<path d="M2339.4,3029.7c64.5,2,127.3,48.7,126.1,127.3c-1.3,88.1-67.5,128.2-134.4,129.3c-62.1,1.1-123.7-62.2-120.9-124
	C2214.1,3080.7,2275.3,3027.4,2339.4,3029.7z M2302.6,3074.1c-20.5-0.2-36.3,12.6-36.8,29.8c-0.4,15.2,9.7,25.4,25.4,25.7
	c18.4,0.3,34.6-14.5,35.2-32.1C2326.9,3083.2,2317.7,3074.2,2302.6,3074.1z"/>
<path d="M2532.5,2994.1c2.1-64.4,44.5-123.4,127.9-126.6c72-2.8,128.4,57.2,126.5,129.4c-1.9,69.5-62.2,126.8-132.9,126.3
	C2586.7,3122.7,2531.4,3064,2532.5,2994.1z M2640.4,2935.8c-3.9-6.2-6.2-13.1-11-16.7c-12.1-9.2-33.5-2.5-43,12.3
	c-9.3,14.6-7.5,34.9,3.9,42.3c9.8,6.5,27.6,0.5,37.6-13.7C2632.7,2953,2635.8,2944.8,2640.4,2935.8z"/>
<path d="M2494.8,3331.1c-1.4-83.3,73.4-132.1,130.4-130.9c71.9,1.5,126.1,61,123.7,136.2c-2.3,70.3-60.5,121.3-136.6,119.6
	C2545.6,3454.4,2493.1,3398.7,2494.8,3331.1z M2532.5,3298.9c-0.4,17.9,9.5,31.4,23.1,31.1c16-0.3,32.5-18.9,33.9-38.2
	c1-14.5-9.6-26.2-24.3-26.6C2547.3,3264.7,2533,3279.5,2532.5,3298.9z"/>
<path d="M1807.4,2630.2c-54.8,0.5-97.8-41.3-98.1-95.3c-0.3-54.9,43.2-101.5,96-102.9c52.9-1.4,98.9,44.2,99.6,98.6
	C1905.6,2586,1862.8,2629.7,1807.4,2630.2z"/>
<path d="M2492.6,2630.1c-53.4,0.5-96.6-42.5-97.5-96.8c-0.8-54.6,41.2-98.6,94.7-99.1c55.2-0.6,98.7,40.9,99.2,94.6
	C2589.5,2584.9,2547,2629.6,2492.6,2630.1z"/>
<path d="M2158.2,2727.2c-72.2-2.2-118.1-33.5-134.6-88.7c-3.3-11-5-23.2-4.1-34.6c0.5-5.9,7.8-14.9,13-15.7
	c7.2-1.1,17.5,2.3,22.5,7.5c5.6,5.8,7.6,15.7,9.8,24.1c19.5,74.8,119.6,74.1,156.2,35.2c11.3-12,15.5-30.9,21.7-47.2
	c4-10.6,7.2-20.3,21.2-20.1c17.2,0.3,26.1,10.4,24.6,28.8c-3.9,47.9-45.5,95.7-93.1,106C2181.2,2725.7,2166.4,2726.2,2158.2,2727.2z
	"/>
</svg>
