<?xml version="1.0" encoding="utf-8"?>
<!-- Generator: Adobe Illustrator 24.3.0, SVG Export Plug-In . SVG Version: 6.00 Build 0)  -->
<svg version="1.1" id="Layer_1" xmlns="http://www.w3.org/2000/svg" xmlns:xlink="http://www.w3.org/1999/xlink" x="0px" y="0px"
	 viewBox="0 0 4000 4000" style="enable-background:new 0 0 4000 4000;" xml:space="preserve">
<path d="M2715.9,1056.1c-2-32.3-4.6-62.3-5.6-92.4c-5.1-153.5,21.3-300.7,88.7-439.6c21-43.3,46.2-84.1,78.9-119.6
	c14.7-16,30.9-31.1,48.3-44.1c43.3-32.3,66.7-31.1,108.4,4.2c31.6,26.7,53.4,61.1,71.1,97.9c8.5,17.7,14.8,36.6,20.5,55.5
	c3.7,12.3,9.5,20.4,22.4,22.7c56.8,10.1,81.3,51.7,92.7,101.7c7.1,31.1,6.9,63.9,9.3,96c1,13.2,0.2,26.5,0.2,44.9
	c17.5-8,31.5-13.6,44.9-20.6c40.1-21,81.3-37.2,127.7-36.5c34.8,0.5,66.1,10.1,90,36.3c11.2,12.3,23.4,14.9,38.9,14.1
	c49.4-2.4,97.7,3.5,144.1,21.7c48.3,19,61.4,40.8,52.7,91.7c-10.7,62.1-40.9,115.6-78,165.2c-113.9,152.3-266,246-449.9,290
	c-13.1,3.1-26.3,6.1-39.4,9.4c-1.8,0.5-3.3,2.5-4.8,3.6c-4.4,23.6-9.7,46.9-12.6,70.5c-1.1,9.5,0.4,21.5,5.5,29.2
	c77.8,116.2,41.5,284.3-54.2,371.7c-6,5.5-11,12.2-19.3,21.5c11.9,12.5,22,25.7,34.6,35.6c26.6,20.9,50.4,43.7,63.6,75.6
	c5,12.1,14.6,16.9,26.2,19.7c50.8,12.1,79.6,47.7,95.1,94.3c5.9,17.9,13.4,31.3,28.5,42.3c47.6,34.8,66.5,84.2,65.3,141.3
	c-0.4,20.7,6.9,31.9,23.6,42.8c53,34.9,106.7,69.2,156.8,108.1c94,72.9,166.5,163.6,206,277c54.4,156.1,25.1,299.8-70.6,431.5
	c-69.8,96.1-162.3,166.9-263.1,227.4c-153,91.9-318.7,153.2-490.3,199.5c-157.2,42.5-317.2,70.2-479.1,85.6
	c-184.8,17.6-370.2,19.7-555.8,10.6c-161.6-8-321.7-28.3-480.2-59.3c-200-39.2-393.6-99.7-575.2-194.1
	c-114.4-59.5-220-131.4-306.8-228.2c-76.8-85.8-123.7-185.9-131.1-300.9c-6.2-96.1,21.4-185.4,70.8-267.8
	c48.4-80.8,115.4-144.5,187.3-203.8c13.5-11.1,32.7-21.9,36.4-36.2c2.9-11.4-13.7-27.9-21.8-42c-36-62.4-39.8-126.4-7.6-191
	c8.1-16.3,21-31.2,34.5-43.7c14.1-13.1,20.2-25.1,17.1-45.6c-6.4-42.8,1.6-83.8,33.3-115.8c13.5-13.6,30.6-24.6,47.7-33.6
	c12-6.3,19.5-12.6,23.5-26.2c22.2-76.3,75.1-117.2,156.3-118.2c22.1-0.3,34.1-6.4,43.6-25.9c18.1-37.2,49.4-61.6,86.3-78.2
	c58.2-26.1,118.2-32.7,179.1-10c14.5,5.4,25.3,3,37.4-5.8c64.8-47.1,133.8-53,205.9-18.3c13.5,6.5,24.6,6.7,38.2,0
	c64.2-31.6,127.8-31.7,190.9,4.5c8.9,5.1,22,2.7,33,4.5c36.3,5.8,55.8-10.8,75.2-41.8c43-68.7,109.9-102.7,190.5-109
	c27.1-2.1,28.4-1.4,34.4-25.8c25.6-104.9,121.5-155.4,216.9-151.2c19.6,0.9,27.6-5,35.8-20.8c46.2-88.6,118.4-134.1,219.8-131.1
	c9.3,0.3,22.8-2.3,27.5-8.7C2656.7,1089.9,2683.8,1070,2715.9,1056.1z M2613.1,1200.8c-74.4-4.9-128.9,25.2-162.9,91.9
	c-5.7,11.1-11.8,22-17.1,33.4c-6.9,14.9-18.4,21.6-34.6,21.9c-22.9,0.5-45.8,1.1-68.7,2.7c-65.3,4.5-110.7,42.6-126.6,105.6
	c-3.1,12.1-6,24.2-9.1,36.3c-4.5,17.8-14.1,29.6-34.3,30.3c-15.6,0.5-31.1,2.8-46.6,4c-64.3,5-116.7,30.8-148.5,89
	c-10.3,18.9-16.8,40.1-23.6,60.8c-4.9,14.8-7.2,30.3-11,45.5c-4.7,19.2-16.4,30.4-36.6,32.8c-21.7,2.6-43.4,5.2-64.8,9.4
	c-74.2,14.6-127.1,54.9-151.3,128.4c-5.9,17.8-10.8,36-14.2,54.3c-4.1,22.2-17.7,31.7-38.5,34c-18.6,2-37.3,3.7-55.8,6.3
	c-81.6,11.6-132.8,59.2-159.5,135.5c-5.1,14.7-9.8,29.7-14.5,44.5c-4.2,13.1-12.3,20.9-26.4,23.3c-15.4,2.7-30.6,6.3-45.7,10.4
	c-106.4,28.3-177.5,111.4-186.5,220.9c-3.1,37.8-11.5,71.5-41.9,96.9c-6.2,5.2-10.6,12.8-15.5,19.6c-38.2,53.6-45.4,110.6-17.8,171
	c3.9,8.5,8.2,17,13.2,24.8c9.6,14.9,10.3,30,7.6,47.6c-2.9,19-2.9,39.8,1.5,58.4c22.5,95.5,97.4,156.5,198,159.5
	c28.7,0.8,45.5,10.8,60.4,34.4c61.6,97.8,180,142.8,291.3,108.3c36.7-11.4,65.6-12.3,101.8,5.9c79.7,40,188.8,14.8,255-55.2
	c20-21.2,36.6-23.5,62.4-15.3c23.3,7.4,49.5,12.6,73.4,10c66.9-7.3,123.5-35.7,161.6-94.2c6.8-10.5,14-20.7,20.5-31.4
	c8-12.9,19-17.4,34.1-16.8c17.5,0.7,36,1.8,52.6-2.7c74.8-20,126.2-68,140-143.8c8.7-47.4,29.1-70.1,73.5-86.4
	c71.1-26.1,115.1-80.8,128.6-156.6c4.5-25.4,5.9-51.8,5-77.6c-0.8-23.2,7.5-37.4,28-46.8c15.1-6.9,29.8-15,44-23.7
	c65.8-40.5,98.1-100,98.4-176.9c0.4-82.4-13.2-57,53.3-109.5c69.6-54.9,93.7-127.5,78-213.8c-3.3-18.4-8.1-36.7-14.5-54.3
	c-7.1-19.2-2.9-34.7,10.6-48.6c13.8-14.2,28.3-27.7,41.8-42.2c71.5-76.7,83.5-181.8,28.9-270.7c-15.3-24.8-21.1-47.2-13-76
	c16.5-59.3-3.8-111.2-40.9-156.8c-20.8-25.6-49.3-43.6-82.9-45c-27.7-1.1-42.9-12-55.1-36.4c-22.5-45-61.4-65.5-111.7-66.9
	c-53.5-1.5-96.3,18.5-124.2,63.8c-15,24.3-33.4,31.9-59.7,26.7C2619.4,1201,2616.2,1201.1,2613.1,1200.8z M726.5,2461
	c-7.2,3.3-10.4,3.9-12.6,5.9c-48,43.3-93.3,88.9-131.3,141.8c-105.3,146.5-94.1,321,2.4,458.2c53.6,76.2,123.6,134.9,199.6,187
	c129.1,88.6,271.1,150.7,419.5,197.7c253.7,80.3,514.9,120,780.3,130.3c169.7,6.6,339.4,3.2,508.8-14.9
	c149.4-16,297-40.4,442.3-77.9c174.1-45,341.9-106.4,496.4-200.2c97.7-59.3,187.3-128.3,254.4-223c92-129.9,98.8-298.5,12.1-438.3
	c-53.4-86.2-126.3-151.4-208-208.6c-12.4-8.6-25.3-16.5-37.3-24.2c-8.2,30-12.9,58.1-23.8,83.5c-9.4,22-8.2,39.9,4.5,58.5
	c17,25,34.5,49.5,51,74.7c65.3,99.2,68.3,201.2-3.2,302.9c-38.6,54.8-89.8,95.6-145.2,131.2c-118.6,76.1-249.2,125.4-384.3,161.8
	c-238.4,64.2-482.1,93.8-728.6,99.7c-140.7,3.4-281.1-3.8-421.4-16.4c-173.6-15.5-344.9-42.7-512.4-92.3
	c-116.2-34.4-229.6-75.3-334.8-136.2c-69.8-40.5-135-87.2-180.8-155.7c-66.6-99.7-70.9-192.3-6.2-291.7
	c8.4-12.9,16.7-25.9,26.7-41.6C753.8,2546.9,736.4,2507.5,726.5,2461z M3128.6,1972.5c-2.7,0.7-5.4,1.4-8.1,2.1
	c-4.1,19.1-6.5,38.7-12.5,57.2c-20.1,62-54.3,114.4-107.8,153.2c-11.8,8.6-22.3,16.7-21.4,34.9c5.5,119.4-48.2,205.6-151,262.8
	c-12.4,6.9-18.9,14.6-19.3,28.8c-0.5,16.6-1.8,33.3-4.4,49.7c-16.4,103.7-73.4,177.6-168,221.1c-21.1,9.7-33,19.6-38.6,42.8
	c-15.8,65.1-51,118-108.3,154.7c-35.2,22.6-74.4,30.9-115.5,34.2c-26.3,2.1-30.5,8-33.5,39.7c18.2,8.7,37.3,1.9,53.9-2.9
	c23.3-6.8,39.1-1.4,56.3,14c37.4,33.4,81.9,43.1,131,33.1c37.3-7.6,72.2-20.7,101-46.3c14.6-13.1,28.2-14.5,45-4.6
	c11.6,6.9,24.6,11.3,36.9,16.8c43.4,19.5,88.4,22.5,134.4,11.9c42-9.8,72.8-34.6,93.5-72.2c6.3-11.4,15.6-15.9,28.5-14.6
	c11.4,1.1,22.9,1.5,34.3,2.2c53.3,3.6,97.6-17.1,136.5-51.4c25.1-22.1,43.5-50.1,44.4-83.4c1.1-39.5,16.4-62.7,54-76.2
	c33.1-11.8,48.4-39.2,41.2-74.9c-5-24.8,1.2-42.9,18.7-61.7c28.9-31,30.8-66.9,10.5-103.8c-4.5-8.2-9.2-16.3-14.1-24.3
	c-7.4-12.1-6.7-23.5,1.5-34.9c5.5-7.6,10.9-15.2,15.9-23.2c19.5-30.9,26.9-86.9-11.2-120.6c-16.1-14.2-18.9-31.3-14.9-50.9
	c1.5-7.1,3-14.3,4-21.5c6.8-50.9-7.3-79.1-54.1-100.4c-24.6-11.2-36.7-26.1-37.5-54.4c-1.1-40.1-24.5-61.5-65.2-66.1
	c-4.1-0.5-8.3-0.5-12.4-1.1c-24.6-3.5-26.7-6.2-31.9-30.3C3137.4,1998.9,3132.5,1985.8,3128.6,1972.5z M983.3,2715.8
	c-2.7-30.3-8-58.1-7-85.7c2.2-63.6,26-119.4,69.9-166c11.6-12.3,19.8-24.6,21.1-43.2c7-105.1,51.7-189.3,142.5-246.2
	c32-20.1,66.8-34,104-40.7c16.5-3,26.2-11,30.1-27.1c1.4-6.1,3.6-11.9,5.6-17.9c26.7-79.8,80.1-132.6,160.7-156.8
	c28.7-8.6,58.2-14.7,84.4-21.3c18.3-38.4,33.8-77,54.5-112.6c20.8-35.8,53.6-61.8,91.3-78.1c37.1-16,76.7-26.5,121.5-41.6
	c-16.9,0-28.7-2.8-38.4,0.6c-20.6,7.2-36,0.5-51.7-11.7c-29-22.5-62.5-29.8-97.3-19.4c-19.4,5.8-37.7,17.1-54.8,28.4
	c-23.5,15.5-22.8,16.6-46.4,1.4c-7-4.5-14.1-9-20.7-14.1c-28.9-22.3-61.4-24.4-95-16.1c-23.4,5.8-46,14.9-61.2,35
	c-17.4,23.1-36.8,26.7-62,12.2c-12.4-7.1-27.2-10.2-41.3-13.8c-79.1-19.9-151.8,16-184.2,90.3c-5.3,12.2-10.7,24.4-16.8,38.4
	c-12.7-1.7-23.9-3.4-35-4.5c-13.4-1.3-27-3.9-40.2-2.8c-46.6,3.9-87,35-86.2,75.2c0.8,42.1-16.1,58.2-54.3,66.8
	c-36.9,8.4-51.1,31.4-49.4,69c0.7,16.4,5,32.9,9,49c6.1,24.9,4.4,29.9-16.7,43.7c-11.2,7.4-23.3,14.2-32.6,23.7
	c-36.4,37-39.2,102.8-6.8,150.2c8.2,12,17.3,23.5,26.8,34.5c12.5,14.4,13.9,29.2,5.5,46.1c-5.1,10.2-9.1,21-12.7,31.9
	c-20.1,61.1-1.1,111,54.5,143.6c9,5.3,18.2,10.1,27.5,14.8c16.8,8.6,23.6,21,21.1,40.6c-2.2,17.3-2.5,35.5,0.3,52.7
	C909,2685.3,938.7,2711,983.3,2715.8z M1597.8,3225c-0.2,2.1-0.4,4.2-0.5,6.3c29.5,3.7,58.9,7.8,88.4,11.2
	c63.1,7.2,126,17.1,189.3,20.6c158.2,8.7,316.5,11.1,474.9,2.9c147-7.6,292.7-25.2,436.4-55.9c113-24.2,224.8-53.5,332.7-95.8
	c98.4-38.6,191.4-87.2,273.6-154.6c35.1-28.8,64.3-62.7,84.8-103.1c36.4-71.8,32.5-142.7-9.5-211c-6.6-10.8-17.1-19.1-26.5-29.3
	c-14.9,24.9-28.2,45.9-40,67.7c-3.7,6.9-5.2,16-4.7,23.9c4.4,62.4-23.6,106.2-77.5,134.5c-12.5,6.6-18.4,14.3-20.1,28.4
	c-7.4,60.6-39.9,106.2-88.2,141.6c-45.1,33.1-96.4,48.4-151.8,50.3c-17.8,0.6-30.8,6.3-43,20.4c-22.8,26.2-50.9,45.6-85,56
	c-66.6,20.3-131.5,17.6-194.8-11.9c-11.9-5.5-23.2-9.7-35.5-2.3c-7.1,4.3-13.8,9.4-21.1,13.3c-86.9,45.7-172.9,47-258.4-4.5
	c-8.8-5.3-21.3-5.2-32.2-6.1c-27.9-2.3-56.6-0.3-83.5-6.7c-24-5.7-43.1-4.2-65.3,6.5c-53.4,25.7-110.4,39.8-169.6,26.9
	c-26.4-5.7-43.4-0.1-64.8,15.9c-95.1,71-197.5,95-309.3,38.1c-7.4-3.8-18.2-4.2-26.5-2.4C1645.7,3211.2,1621.9,3218.5,1597.8,3225z
	 M3251,863.5c-11.2,2-17.2,3.3-23.2,4.1c-56.1,8.1-62.3,1.2-56.5-54.6c5.1-49.6,12.3-99.4,3.4-149.4c-8.7-49.1-15.4-54.9-64.4-57.4
	c-2.1-0.1-4.2-0.2-6.2-0.1c-19.6,0.6-31-9.6-36.4-27.7c-3.8-12.6-7.8-25-12.2-38.9c-4.8,3.7-7.9,5-9.5,7.4
	c-11.1,16.4-23.1,32.3-32.6,49.6c-65.2,118.7-112.4,243.8-132.4,378.3c-2.9,19.6-3.8,39.4-5.8,59.1c-1.6,15.1,6.4,23.3,19.6,27.8
	c12.2,4.1,19.9-2.3,25.9-11.8c3.3-5.3,6.2-10.9,9.3-16.3c53.6-92.4,92.6-191,124.3-292.7c4.6-14.9,8.8-30,14.7-44.4
	c2.2-5.3,8.9-8.8,13.5-13.1c2.2,0.9,4.4,1.8,6.6,2.7c-1,11.8-0.1,24.2-3.3,35.3c-16.5,56.9-30.7,114.8-52.1,169.9
	c-24.1,62-55.2,121.2-82.6,181.8c-3.5,7.8-7.5,20.4-3.8,25.5c12.3,17.3,27.9,32.2,45,51.1c33.5-58.5,73.7-106.1,117.2-150.6
	C3153.6,954.1,3200.6,911.6,3251,863.5z M3681.7,869.8c-7.1-3.8-9.7-5.6-12.6-6.6c-49.2-16.2-100.1-17.3-151.2-16.6
	c-14.4,0.2-21.8,9.9-28.6,21c-13.6,22.1-26.8,44.7-42,65.6c-81,111.4-183.8,197.4-305.6,261.3c-10.5,5.5-19.9,13.2-29.7,19.8
	c15.8,27,29.8,50.9,45.7,78.1c39.6-11.4,79-20.9,117-34.1c135.9-47.3,250.4-125.5,339.1-239.8c27-34.8,49-72.3,61.2-115
	C3678.1,892.9,3679.4,881.8,3681.7,869.8z M1401.7,3187.5c-44.4-30.3-87-61.4-114.7-108.5c-6.6-11.3-16.8-13.2-29-14.1
	c-138.9-11-233-105.8-244.8-245.7c-0.8-8.9-3.3-17.7-5-26.9c-49.4-6.4-94.7-16.7-130.4-51.1c-36.9-35.4-44.7-82.3-49.5-135.5
	c-10.8,10.4-18.2,15.9-23.7,23c-55.8,72-65.8,156.2-15.9,238.4c25.8,42.5,60.8,76.4,99,107.2c62.9,50.6,133.6,87.6,207.5,119.6
	C1193.8,3136.5,1295.8,3167.2,1401.7,3187.5z M3051.9,519.5c-12.3-39-32.9-69.5-58.9-96.8c-9.3-9.8-20.9-11.3-30.6-2.3
	c-17.4,16.2-35.4,32.3-49.6,51.2c-44.2,58.8-73.9,125-95.8,194.9c-36.6,116.9-41.4,237-36.9,358.1c0.1,3.9,1.7,7.8,2.9,13
	c6.6,0.8,12.5,2.1,18.5,2.3c12.2,0.3,24.4,0.1,38.7,0.1c1.2-17.2,1.2-31.6,3.3-45.6c20.1-131.5,58.5-257.1,121.7-374.6
	C2986.1,580.8,3010.4,545,3051.9,519.5z M3025,1152.1c53.9,38.7,53.9,38.7,107,9.3c5.5-3,11-5.9,16.4-9
	c102.1-57.2,190.2-131.1,262-223.5c19.7-25.3,36.2-53.5,50.8-82c13.4-26.3-2.1-49.8-31.7-53.3c-3.1-0.4-6.3-0.8-9.3-0.4
	c-35.1,4.8-65.7,17.9-89.5,45.4c-12.8,14.9-26.5,29.3-41.2,42.2c-38.3,33.7-78.2,65.6-116,99.7
	C3117.1,1031.7,3069.4,1090.6,3025,1152.1z"/>
<path d="M1394,2734.3c-52.3-0.6-85-33.1-84-83.4c1-45.8,39.1-82.4,84.7-81.4c46.4,1.1,83.7,39,82.7,83.9
	C1476.4,2703.1,1443.6,2734.8,1394,2734.3z"/>
<path d="M1961.9,2846.5c-47.9,0.3-84.2-35.2-83.8-81.9c0.4-44.7,36.9-81.8,81-82.4c46.2-0.7,83.1,34.6,82.8,79.1
	C2041.6,2811.9,2009.4,2846.2,1961.9,2846.5z"/>
<path d="M2672.4,1879.7c42.1-0.6,75.6,30.3,75.7,70c0.1,39.6-30.8,71.6-70,72.4c-44.6,1-74.2-28.1-74.5-73.2
	C2603.3,1910.6,2633.4,1880.3,2672.4,1879.7z"/>
<path d="M2278.2,1751.4c-38.5-0.7-68.3-32.3-67.4-71.6c0.8-36.4,34-66.6,72.8-66.3c39.9,0.3,70.3,30.8,68.8,69.1
	C2350.8,1722.6,2319.1,1752.1,2278.2,1751.4z"/>
<path d="M1668,2884.8c-64.3,0.2-106.7-33.6-117.3-93.5c-0.9-5.1-1.7-10.3-1.7-15.5c-0.1-18.9,6.9-29.7,19.7-30.3
	c17.7-0.9,19,12.5,21.2,25c0.4,2,0.5,4.1,0.8,6.2c10,57.6,61,83.7,114.3,58.5c15.8-7.5,25.9-19.4,33.3-35.3
	c3.3-7,12.5-14.9,19.8-15.7c15.8-1.8,24.7,14.2,17.4,30.7C1760.6,2848.6,1731.9,2886.2,1668,2884.8z"/>
<path d="M2448.8,2446.3c-3.6,55.2-27.6,100.8-82.2,126.9c-6.5,3.1-14,7.5-20.4,6.6c-7-0.9-15-6.1-19-11.9
	c-1.8-2.5,3.7-12.9,8.3-16.6c8-6.4,18.3-9.9,27-15.5c38.4-24.6,57-59.4,53.9-105.4c-2.5-35.7-17.9-61.5-53.7-72.2
	c-10.8-3.2-21.1-6.9-15.8-20.9c4.8-12.5,17.4-13.7,26.3-8.8c16.9,9.4,34.6,19.7,47.4,33.8
	C2440.7,2384.5,2448.8,2412.8,2448.8,2446.3z"/>
<path d="M2456.3,1962.7c-68.5,0.4-119.2-59.6-106.1-122.8c1.5-7.1,3.7-14.2,6.9-20.6c4.6-9.5,12.8-13.7,23.2-10.4
	c10.9,3.5,14.5,12.6,11.1,22.4c-6.8,19.8-6.6,38,3.5,56.9c19.6,36.3,56.9,47.1,91.9,25.4c2.6-1.6,5.2-3.4,7.7-5.3
	c7.8-5.9,15.5-11.2,24.5-1.8c9.8,10.3,8.2,20.6-0.5,30.5C2501.3,1956.4,2478,1960.9,2456.3,1962.7z"/>
<path d="M1821.3,2001c2.2,0.2,8.5-0.9,12.2,1.7c5.4,3.7,11.9,9.9,12.2,15.4c0.3,4.4-7.4,10.3-12.7,13.5c-4.1,2.4-10.2,1.2-15.3,2.2
	c-31.9,6-56.2,22.6-66.7,54c-10.6,31.8-5.9,61.4,20.1,85.6c7.2,6.6,18.8,12.5,11.5,25.4c-5.2,9.3-19.8,9.1-33.5-0.4
	c-20-13.8-29.4-34.5-35.2-57C1696.8,2074.7,1751.5,2001.3,1821.3,2001z"/>
<path d="M2619,1312.1c-47.5-0.4-77.1,23.7-86.1,68.4c-2.2,11.2-1.6,22.9-4.3,33.9c-1.2,4.9-7.5,12.3-11.1,12.1
	c-6-0.3-12.8-4.9-17.2-9.6c-2.9-3.2-2.8-9.8-3.1-14.9c-4-74.9,63.3-136.2,137.4-125.8c23.6,3.3,39.8,17.3,51.8,36.3
	c2.9,4.6,2.9,15.5-0.3,18.4c-3.7,3.3-14.4,3.5-18.7,0.4C2651.9,1319.8,2636.3,1310.4,2619,1312.1z"/>
<path d="M3080.4,1614.2c-1.3,48.3-22.4,79.7-58.6,101.6c-6.8,4.1-15.5,6.9-23.4,7.1c-4.9,0.1-12.2-4.9-14.3-9.4
	c-1.8-4,0.8-12.1,4.3-15.7c6.4-6.6,14.8-11.3,22.5-16.5c52.6-35.7,43.4-116.3-4.1-138.5c-10.6-5-25-10.6-17.3-27.5
	c4.5-9.8,20.3-10.1,36.1,0.8C3061.5,1540.8,3078.3,1576.1,3080.4,1614.2z"/>
<path d="M3074.2,2204.1c22.9-13.5,36.9-8,49.7,2c37.6,29.7,51.8,69.6,46.5,116c-1.8,16.2-8,32.5-15,47.3
	c-8.1,17.1-6.8,30.2,4.5,45.8c30.2,41.7,37.1,88.3,17.3,136.1c-6.8,16.5-20.5,30.7-32.9,44.2c-6.5,7-17.3,15.1-27.3,5.1
	c-11.4-11.5,1.2-19.2,7.8-25.6c30-29.4,36.5-65,25.8-103.5c-4.3-15.4-13.7-30.2-23.9-42.8c-21.2-26.1-22.9-30.3-6.5-60.5
	c11.6-21.4,20.2-43.4,19.2-68.2c-1.2-30.2-15.4-53.2-39.1-71.4C3091.8,2222.3,3084.7,2214.2,3074.2,2204.1z"/>
<path d="M2968.3,2771.2c20.7-3,28.5,8.3,29,24.8c1.3,41.7-10.5,79.5-45.8,104.1c-48.5,33.8-100.8,36.2-153.6,8.8
	c-21.9-11.4-26.2-22.9-19.3-52.4c9.4,5.7,18.3,9.7,25.7,15.7c33.4,27,69.8,25,105.8,9c36.2-16.2,57.1-44.4,54.7-86.2
	c-0.3-5.2-0.2-10.4,0.2-15.5C2965.2,2777.4,2966.5,2775.6,2968.3,2771.2z"/>
<path d="M923.1,2390.9c-22.6,9.2-32.7,0.1-40.2-13.8c-17.3-32.4-22-67.4-0.8-97.7c22.1-31.7,28.1-60.8,21.1-100
	c-11.5-64.8,39.8-131.7,102-143.5c10.7-2,22.6-0.6,33.4,1.7c4,0.9,8.1,9,8.7,14.2c0.4,3.2-5.4,8-9.4,10.4c-3.3,2-8,1.4-12.1,2.2
	c-61.9,12.4-102.8,71.9-84.3,133c11,36.4,8.6,61.5-20.2,87.4c-20.1,18-19.6,44.7-11.2,70C914,2366.3,918.4,2377.7,923.1,2390.9z"/>
<path d="M1466,1875.3c-6.5-5.8-11.1-9.7-15.4-14c-31.7-31.8-77.9-38.9-117.7-18.4c-22.6,11.7-37.9,28.8-42.3,54.6
	c-0.7,4.1-0.6,8.9-2.8,12.1c-4.2,6.2-9.4,15.7-14.8,16.1c-12.7,1.1-18.9-10.5-17.4-21c2.4-16.2,5.9-33.4,13.9-47.3
	c36.4-63.5,124.8-80.3,188.1-33.4C1479.7,1840.2,1481.4,1852.3,1466,1875.3z"/>
</svg>
