<?xml version="1.0" encoding="utf-8"?>
<!-- Generator: Adobe Illustrator 24.3.0, SVG Export Plug-In . SVG Version: 6.00 Build 0)  -->
<svg version="1.1" id="Layer_1" xmlns="http://www.w3.org/2000/svg" xmlns:xlink="http://www.w3.org/1999/xlink" x="0px" y="0px"
	 viewBox="0 0 4000 4000" style="enable-background:new 0 0 4000 4000;" xml:space="preserve">
<path d="M2243.4,676.4c6.9-31.2,14.3-63.1,21.2-95.2c30.5-143.1,60.9-286.3,91.4-429.4c1.3-6.1,3.2-12.1,4.6-18.2
	c5.2-22.7,20.3-35.4,42.3-39.5c63.9-11.8,125.2-1.6,181.5,29.1c32.6,17.7,42.3,35.3,33.4,75.5c-27.8,126.4-54.3,253.1-81.4,379.6
	c-9.9,46.2-20.1,92.4-30,138.7c-1.1,5.1-0.9,10.5-1.5,17.3c6.4,3.1,12.4,6.6,18.8,9.1c237.9,94.3,410.3,257.6,516.7,490.3
	c35.1,76.7,58.5,157.1,73.2,240.1c0.5,2.6,1.5,5.3,1.4,7.9c-1.4,25.4,5.7,43.7,33.4,51.6c15,4.3,24.5,18.4,27.6,34
	c12.2,59.5,23.9,119,35.1,178.6c4,21.1-6.1,36.7-24.9,45.7c-13.6,6.5-27.8,12.5-42.4,16.4c-17.5,4.6-24,15.2-26,32.3
	c-12.4,103.7-25.3,207.4-38.5,311c-24,187.7-48.5,375.4-72.5,563.1c-15.2,118.7-29.9,237.4-45,356.1c-18.8,147-37.7,294-56.6,441
	c-4.1,31.9-9,63.7-12.2,95.6c-4.5,44.6-26.7,78.7-60.2,106.7c-41.5,34.8-88.6,59.9-138.2,80.9c-98.4,41.6-201,68.3-306.6,82.9
	c-149.3,20.6-299.1,22.4-448.8,4.7c-146.2-17.3-288.2-50.9-420.1-119.3c-36.5-18.9-71.2-40.8-100.8-70.1
	c-25.8-25.5-39.5-55.4-43.8-92c-18.1-155.2-38.1-310.1-56.9-465.2c-16.8-138.2-32.8-276.6-49.7-414.8
	c-10.8-88.6-22.6-177.1-33.7-265.7c-14-112.5-27.5-225.1-41.6-337.6c-12.2-97.4-25.3-194.7-37.4-292.2c-1.6-12.7-7.5-18.5-18.9-22.4
	c-16.9-5.8-33.6-12.3-49.6-20.1c-23.9-11.6-29-21.2-23.9-47c10.9-55.2,22.6-110.1,34-165.2c5.4-26,20.5-43.6,46-50.6
	c15.7-4.3,22.2-11.9,24.6-29.2c33.9-240.3,145.1-438.7,329.5-595.3c118.5-100.6,255.3-165.9,408.2-196.4
	c94.2-18.8,189.3-24.9,285.1-21.5c14.3,0.5,28.6,0.6,42.9,0.7C2235.8,678.8,2238.4,677.6,2243.4,676.4z M1375.1,2157.8
	c0,6.8-0.6,12.8,0.1,18.7c3.6,31,7.4,62,11.2,93c11.4,94.8,22.6,189.6,34.3,284.4c11.7,94.8,24.3,189.4,35.9,284.2
	c13.5,110.7,25.9,221.6,39.2,332.3c15.1,124.9,31.1,249.7,45.8,374.7c2.4,20.4,10.3,34.3,27.7,45.5c53.1,34.1,111,57.2,170.7,75.7
	c125.5,38.9,255.1,51.8,385.6,53.7c99.2,1.4,197.8-9,295.5-26.3c94.6-16.8,184.8-46.5,269.9-91.7c20.5-10.9,32.8-23.9,35.6-48.6
	c8.6-75.3,19.8-150.3,29.5-225.5c9.8-77,18.6-154.1,28.5-231.1c11.7-91.1,24.1-182.1,36-273.2c10.6-81.4,20.9-162.8,31.2-244.2
	c7.5-59.3,14.7-118.6,22.4-177.9c9.6-73.4,19.6-146.7,29.2-220.1c0.6-4.6,0.1-9.4,0.1-13.8c-30.4,11.7-59,24-88.5,33.8
	c-73.1,24.2-148.6,38-224.8,47.7c-135.7,17.3-272.1,24.6-408.6,25.8c-181.3,1.6-362.3-6.7-541.7-35.4
	C1548.4,2225,1458.3,2205.4,1375.1,2157.8z M3075.1,1829.8c-27.1,6.6-49.9,11.1-71.8,18.1c-5.9,1.9-11.7,10.7-13.4,17.4
	c-3.2,12.9-3.1,26.5-4.8,39.8c-16.5,128.4-33.3,256.8-49.7,385.2c-20.6,161.2-41,322.4-61.5,483.6
	c-22.8,178.9-45.4,357.8-68.4,536.7c-11.5,89.4-24,178.8-35.1,268.2c-2.4,19.6-11.6,32.4-27.2,43.4c-44.2,31.2-92.7,53.7-143.2,71.9
	c-115,41.5-234.5,62-356.1,70c-152.4,10-303.3-2.1-452.3-36.5c-82.3-18.9-161.3-46.2-233.8-90.2c-57.9-35.1-57.4-35.3-65.4-102.7
	c-17.1-144.5-34.5-289-52-433.5c-12.4-101.9-25.1-203.8-37.8-305.7c-19.3-155-38.9-310-58.2-465.1c-10-80.6-19.8-161.3-29.4-241.9
	c-9.1-76.2-17.8-152.5-26.6-228.7c-1-8.6-3.6-15.5-13.3-17.6c-22.5-4.9-45-10-71.8-15.9c2.3,24.3,3.8,46.2,6.5,68
	c29.9,237.4,60.2,474.8,90,712.2c17.8,141.8,34.8,283.6,52,425.4c15.2,125,30.3,250,45.3,375c7.3,61.2,15.2,122.3,21.2,183.6
	c3.2,32,13.7,59.8,39.8,78.6c29.6,21.3,59.8,42.3,91.9,59.4c69.6,37.2,144.4,61.5,221,79.5c100.2,23.5,202,35.8,304.9,39.3
	c186.2,6.3,369.2-11.1,546.2-73.3c66-23.2,128.9-52.4,183.4-97.6c26.3-21.8,41.2-48.2,43.4-82.6c1.5-23.1,5.5-46.1,8.5-69.1
	c12.9-99.1,26-198.2,38.7-297.4c15.3-119.5,30.2-239.1,45.6-358.6c13.2-102.7,26.9-205.3,40.3-308c15.7-121.2,31.3-242.5,47-363.8
	c12.8-99.1,25.9-198.2,38.6-297.4C3070.6,1878.1,3072.4,1856,3075.1,1829.8z M2177.2,1895.1c50.3-1.7,136.9-3,223.3-8
	c116.7-6.8,233.1-17,348.9-34.7c131.6-20.2,261.6-46.6,387.5-91c5.9-2.1,11.7-4.2,17.5-6.7c8.5-3.6,11.8-9.9,10.1-19.3
	c-8.4-45.6-15.8-91.4-25.3-136.8c-7.2-34.7-21.7-39.3-53.7-21.8c-25,13.7-49.9,28.8-76.8,37.2c-50.1,15.6-101.1,29.4-152.7,39.3
	c-120.1,23.2-241.6,36.4-363.7,44.5c-133.7,8.9-267.5,14-401.5,11.5c-152.7-2.8-305.1-10.9-456.9-27.9
	c-117.2-13.1-233.6-29.9-346.6-65.2c-35.9-11.2-70.8-24.1-100.4-48.8c-20.4-17-38.5-10.7-47.2,14.6c-2.6,7.6-4,15.5-5.6,23.4
	c-7.9,38.5-15.5,77-23.4,115.5c-4.4,21.5-3.4,24.8,16.9,32.1c29.4,10.5,58.8,21,88.8,29.7c148.6,43.1,300.1,71.1,454,86.9
	C1826.8,1885.6,1983.6,1893.4,2177.2,1895.1z M1321.1,1459.4c-30.8,12.1-60.2,22.5-88.5,35.2c-23.2,10.4-24.2,33.7-2.6,48
	c11.8,7.8,24.9,14.4,38.3,18.7c36.5,11.6,73.1,23.2,110.3,32.2c124.3,30,251.2,43.5,378.4,52.8c108.5,7.9,217.4,14.4,326.2,15.4
	c113.2,1.1,226.6-3.8,339.8-8.7c79.3-3.4,158.7-8.3,237.4-18.1c85.7-10.6,170.9-25.9,255.6-42.7c39-7.7,76.7-23,114.2-36.9
	c16.2-6,33-14.3,40.3-32.5c-3.7-14.2-15.1-19.5-26.5-24.9c-47.6-22.7-97.3-39.5-148.5-52c-85.9-20.8-172.7-35.7-260.7-44.4
	c-63.9-6.3-127.7-13.6-191.7-19.1c-24.6-2.1-49.5-0.3-76.3-0.3c-3.1,16-6.3,33.4-9.8,50.7c-7.1,34.9-15,69.7-21.4,104.7
	c-5.9,32.2-23.7,51.9-55.1,61.9c-71.6,22.7-137.3,9.9-198.8-30.7c-19.8-13.1-28.2-31.2-21.8-55.4c5.2-19.8,9.3-39.9,13.4-60
	c5.3-25.8,10.2-51.7,15.9-80.6c-10.6,0-17.5-0.2-24.4,0c-152.5,5.6-304.9,13.1-456.6,30.4c-39.9,4.6-79.5,11.1-119.3,16.6
	c-14.4,2-25.2,7.5-28.4,23.5c-1.4,6.8-5.2,13.2-8.2,19.7c-12.3,26.5-33.9,37.8-62.4,38C1360.5,1501.1,1338.7,1487.7,1321.1,1459.4z
	 M2197.7,887.4c-25.9,0-45.4,0.2-64.9,0c-85.2-1-169-11.6-251-35.2c-40-11.5-78.7-25-98.1-69.3c-175,65.6-311.5,176.8-420.1,325.1
	c-79.6,108.8-145.2,284.2-140.1,333.5c24.6-8.2,48.7-17.8,73.6-24.2c18.3-4.7,26.9-13,32.3-32.3c52.8-190.1,157-346.4,313.1-467.5
	c11.8-9.2,25.8-15.8,39.1-22.9c12.5-6.7,25.8-5.8,39-1.7c54.8,17.2,71,84.4,29.7,124c-9.7,9.2-20,17.8-30,26.7
	c-20.5,18.6-41.6,36.5-61.2,56c-64.3,64.2-117.3,136.7-156.5,218.8c-7.4,15.6-15.9,31.2-16.1,52.6c201.6-31.9,402.6-44.3,604.3-46.2
	c3.4,0,6.8-1.9,12.4-3.5C2134.3,1178.6,2165.5,1035.2,2197.7,887.4z M2018.8,1970.7c-13.4,0-22.2-0.6-30.9,0.1
	c-91.7,6.8-183.5,12.7-275.1,21c-73.8,6.7-146.9,18.8-218.6,38.3c-39.7,10.8-78.6,24.3-112.3,48.9c-18.4,13.4-19.8,29.5-2.6,44.2
	c11.3,9.7,25.1,17.1,38.7,23.5c60.3,28.5,125,42.1,190.1,53.6c117.1,20.7,235.5,31.7,354.1,36c246.7,8.8,492.9,3.9,736.7-41.2
	c52.7-9.8,104.9-21.9,154.4-42.8c13.1-5.5,26-12,37.7-20.1c23.1-16,23.7-31.8,2.3-49.3c-8.2-6.7-17.3-13.3-27.1-16.9
	c-40.1-14.8-79.8-31.6-121-42c-142.7-36.1-288.8-46.3-435.2-53c-21.5-1-22.2-0.2-26.6,20.7c-7.5,35.8-15.2,71.6-21.8,107.6
	c-4.7,25.6-19.8,41.1-43.3,49.8c-66,24.5-128.4,15.9-186.4-22.5c-35.5-23.5-39.7-37.8-30.1-79.5c2.6-11.3,6.3-22.3,8.9-33.6
	C2013.5,2000.5,2015.6,1987.4,2018.8,1970.7z M3058.8,1447.1c3.7-72.9-78.7-259.9-165-372.8c-98.7-129-224.8-222.1-373.8-285.5
	c-9.1,14.6-15.4,28.6-25.3,39.5c-10.9,11.9-15.8,25.1-19.1,40.3c-28.4,132.6-57.2,265.1-85.8,397.7c-4.3,19.8-8.3,39.6-12.8,61.3
	c10,1.5,17.7,3,25.5,3.8c106.5,10.9,213.2,20.3,319.4,33.1c97.5,11.7,193.5,32.6,286.8,63.9
	C3025.4,1434,3041.8,1440.7,3058.8,1447.1z M2245.3,891.8c-1.9,7.2-4.3,15.7-6.2,24.3c-23,106.2-45.9,212.4-69,318.5
	c-19.3,88.8-39,177.4-58.4,266.2c-5.6,25.8-3.2,31.2,19.9,42.4c33,15.8,67.3,22.3,103.9,15.2c46.4-8.9,46.3-8.4,55.9-52.8
	c41.4-190.6,83.1-381.2,124.2-571.9c4.8-22.2,12.2-44.3,9.2-68.6C2365.5,874,2307.5,882.6,2245.3,891.8z M2257.7,836.2
	c7,0.7,11.5,2.1,15.5,1.3c51.5-9.6,103-19.4,154.4-29.3c11.3-2.2,15.4-11.2,17.5-21.3c3.1-14.8,5.7-29.8,8.9-44.6
	c32.5-151.5,65-303,97.5-454.4c4.8-22.4,9.4-44.8,14.6-69.4c-59.6,4-115.2-2.9-168.2-33.9C2353,404.3,2299.4,618.1,2257.7,836.2z
	 M1937.3,1938.4c0.2-1.6,0.4-3.3,0.6-4.9c-10.7-0.5-21.3-0.8-32-1.5c-81.9-5.9-164.2-8.2-245.6-18.7
	c-101.6-13.1-202.4-33-303.6-49.7c-6.6-1.1-13.5-0.1-22.9-0.1c8.6,64.5,17,127.2,25.9,193.4c51.1-37.4,106.1-52.3,161.5-66
	c93.8-23.2,189.5-34.3,285.5-42.2C1850.4,1945.1,1893.9,1941.8,1937.3,1938.4z M2943.5,1863c-192,45.8-381.5,58.4-571.5,74.5
	c100.2,12.8,199.3,22.9,297.5,38.6c83.6,13.4,166.6,32.2,238.9,80.7c2.6,1.8,6.1,2.2,11.7,4.1
	C2927.8,1995.8,2935.3,1932.6,2943.5,1863z M1363.4,1421.5c-0.7,20.9,4.4,30.1,15.2,34.1c12.3,4.5,27.4-0.7,34.4-13.3
	c4.3-7.7,6.8-16.4,9.7-24.9c8-23.6,14.6-47.8,23.8-71c42.3-106.9,106.8-199.5,186.8-281.3c27.4-28,58-52.8,86.9-79.3
	c15.6-14.3,17-22.7,7.6-36.8c-9.8-14.5-21.6-17.1-39.5-7.8c-6.3,3.3-12.4,7.2-18,11.5c-143.5,108.3-241.1,248.8-295.2,419.8
	C1369.5,1390.4,1366.3,1408.9,1363.4,1421.5z M2233.3,727.2c-11.9-1.3-21.4-2.7-30.9-3.2c-73.2-4-146.4-1.7-218.7,9.7
	c-46.5,7.3-92.1,20-137.9,30.9c-5.2,1.2-9.7,5.8-18.3,11.2c12.3,7.5,20.6,14.4,30,18c23.3,8.8,46.7,17.5,70.7,23.9
	c71.9,19.2,145.8,23.9,219.8,26.1c19.3,0.6,38.6,0.1,59.5,0.1C2216.3,804.2,2224.5,767,2233.3,727.2z M2068.5,1941.8
	c-7.8,37.4-15.8,73.7-22.9,110.2c-4.6,23.8-2.4,28.6,19,41.1c42.5,24.9,88,25.6,134.7,15.6c14.5-3.1,19.7-12.8,22.2-26.4
	c7.6-42.1,16.2-83.9,24.1-126c0.9-4.8-0.3-10-0.5-14.6C2185.5,1941.8,2127.9,1941.8,2068.5,1941.8z M2426.1,138.4
	c21.9,20.7,45.7,21.5,66.9,27.5c26.3,7.4,51.9,5.9,67.6-2.8C2517.6,148.5,2477,134.5,2426.1,138.4z"/>
<path d="M1827.5,2691.9c54.3-0.3,97.6,44.1,99,101.5c1.2,50-44.2,97.5-93.6,98c-55.5,0.6-103.4-46.2-103.5-100.9
	C1729.4,2736,1772.9,2692.3,1827.5,2691.9z"/>
<path d="M2476.4,2888c-54.8,0-96.8-43.6-96.4-99.9c0.4-54.1,42.8-96.4,97.1-96.6c54.6-0.3,95.6,43.1,95.1,100.7
	C2571.7,2849.8,2533.5,2888,2476.4,2888z"/>
<path d="M2157.3,2966.2c-51.5-1.5-112.9-24.6-126.2-88.5c-0.9-4.4-2.3-8.7-2.5-13.1c-1-15.4,4.4-24.4,15.7-27.3
	c13.5-3.4,21.9,1.8,28.1,17.7c0.6,1.7,0.8,3.5,1.4,5.2c17.7,50.7,69.4,72.4,118.4,49.5c15.1-7,26.5-18.1,32.3-34.1
	c2.7-7.5,4.5-15.4,7.5-22.9c5.8-14.6,15.3-19.3,29.3-15.3c12.6,3.6,16.7,11.2,14.6,27.3c-6,46.3-42.4,86.7-88.2,97.1
	C2176.6,2964.3,2164.9,2965.1,2157.3,2966.2z"/>
<path d="M2512.9,2972.5c53-6.6,106.7-4.3,159.7-2.3c12.4,30.1,7.8,40.2-21.7,41.9c-38.1,2.1-76.4,2.4-114.5,1.1
	C2508.4,3012.2,2505.4,3005.6,2512.9,2972.5z"/>
<path d="M1701.8,3010.7c-20.4,0-40.9,0.3-61.3-0.1c-12.5-0.2-19.6-6.9-20.9-19.6c-1.2-11.3,2.2-19.2,14.7-20.8
	c7.9-1,15.8-2.9,23.8-3.1c35.5-0.6,71.1-1.2,106.6-0.6c17.6,0.3,24.3,6.2,25.1,17.9c1.1,14.8-6.7,24.4-24.1,25.4
	c-21.2,1.3-42.6,0.3-63.9,0.3C1701.8,3010.3,1701.8,3010.5,1701.8,3010.7z"/>
<path d="M2594.4,2952.8c-23.2,0-46.4-0.1-69.5,0c-12.1,0-17.9-5.9-18.5-17.8c-0.6-13.6,3.7-21.1,17-22.5c19.5-2,39.2-2.6,58.8-2.7
	c22.3-0.1,44.6,0.4,66.9,1.7c7.6,0.5,17.4,2.3,21.8,7.3c5,5.6,7.2,15.8,6.4,23.6c-0.4,3.9-10.2,9.4-15.9,9.7
	c-22.2,1.1-44.6,0.5-66.9,0.5C2594.4,2952.7,2594.4,2952.7,2594.4,2952.8z"/>
<path d="M1705,2955.3c-19.6,0-39.2,0.7-58.8-0.2c-20.3-1-25.9-5.8-26.4-19.2c-0.7-15.5,6.2-24,24.9-24.3c40-0.7,80.1,0.2,120.2,1
	c5,0.1,12.3,1.6,14.6,5c4.5,6.8,8.1,15.3,8.8,23.4c0.8,10.1-8,13.2-16.5,13.4c-22.2,0.4-44.5,0.1-66.7,0.1
	C1705,2954.7,1705,2955,1705,2955.3z"/>
</svg>
