<?xml version="1.0" encoding="utf-8"?>
<!-- Generator: Adobe Illustrator 24.3.0, SVG Export Plug-In . SVG Version: 6.00 Build 0)  -->
<svg version="1.1" id="Layer_1" xmlns="http://www.w3.org/2000/svg" xmlns:xlink="http://www.w3.org/1999/xlink" x="0px" y="0px"
	 viewBox="0 0 4000 4000" style="enable-background:new 0 0 4000 4000;" xml:space="preserve">
<path d="M2148,3208.3c-174.2,1.5-347.7-10.3-520-33.9c-209.9-28.8-416.5-73.5-615.5-148.1c-108.5-40.7-212.4-90.8-307.7-157.3
	c-58.7-41-112.3-87.7-155.6-145.3c-90.9-121-95.7-270-12.2-396.1c31.2-47.2,68.8-89,113.3-123.7c18.4-14.4,24.9-28.9,22.5-52.1
	c-15.7-152.2,0-301.9,41.1-448.8c72.3-258.6,216.1-468.3,433.6-626.9c157.4-114.7,332.1-191.4,520.1-239.8
	c166.2-42.8,334.7-65.5,506.4-58.7c244.2,9.7,479.5,58.1,699.9,167.6c145.4,72.2,278,162.3,386.6,283.9
	c147,164.5,241.7,356.3,289.4,571.5c25.8,116.4,38.4,234.3,36.3,353.6c-0.3,17.5,6.4,27.9,19.8,37.5c47,33.5,87,73.6,120.4,121.1
	c92.9,132.3,92.4,279.1-2.1,409.7c-64.1,88.6-148.9,152.8-243,205.4c-151.8,84.9-314.5,141.7-483,182.6
	c-156.5,38-314.8,64.7-475.2,79.7C2398.2,3201.7,2273.4,3209.1,2148,3208.3z M2128.1,2854.5c132.7,0.3,356-15.8,497.4-37.4
	c130.2-19.9,259.1-46.3,385.3-84.1c91.1-27.2,180.2-59.6,262.6-108.2c83.2-49,156.2-107.6,200-196.9
	c37.9-77.2,53.1-159.6,57.2-244.1c7.6-155.5-12.3-308-55.3-457.6c-91.7-319.4-290.5-552.4-579.4-710.1
	c-165.5-90.4-343.9-143-530.6-169c-171.4-23.8-342.6-22.4-513,3.9c-175.9,27.1-344.4,79.5-502.6,162.7
	c-223,117.3-400.1,280.1-511.6,509.6c-111.2,229.1-141.4,469.3-99.9,719.1c11,66.3,34,129.2,70,186.9
	c54,86.4,128.8,150.7,215.6,201.2c157.8,91.8,330.4,141.9,508.3,175.4C1720.6,2841.7,1911.3,2852.7,2128.1,2854.5z M3583.8,2240.3
	c-3.5,13.9-6.4,23.6-8.4,33.4c-16,80.9-37.8,159.9-84.5,229.3c-56.9,84.6-135.5,144.1-225.4,189.7c-106.4,53.9-218.9,91-334.2,120.2
	c-196.2,49.8-396.2,76.1-597.7,89.1c-324,21-645,0.4-961-78c-138.7-34.4-272.9-81.8-395.4-157.5
	c-146.8-90.7-249.8-214.1-285.7-386.9c-1.7-8.1-5.6-15.7-9.7-27c-9.8,7.2-18.4,11.7-24.7,18.3c-21.6,22.6-44.2,44.5-63.2,69.2
	c-79.1,102.6-84.6,219.3-14.9,328.5c40.7,63.7,96.9,112.8,158,156.1c124.6,88.3,264,145.9,408.5,191.6
	c248.4,78.4,504.2,116.1,763.4,131.9c142.3,8.7,284.7,10.4,427.2,2.5c150-8.3,299-23.9,446.8-49.7
	c143.6-25.1,285.1-59.7,422.4-108.9c116-41.6,228.3-91.5,329.7-163.2c49.6-35.1,95.9-73.8,134.3-121.1
	c50.8-62.5,81.1-133.3,72.7-215.1C3731.1,2385.7,3666.2,2310.7,3583.8,2240.3z"/>
<path d="M1538.5,2129.9c2-76.6,61-133.7,135.3-130.8c70,2.7,122.7,60.9,121.2,133.8c-1.5,72.3-62.6,129.6-135.8,127.4
	C1590.6,2258.1,1536.7,2199.9,1538.5,2129.9z"/>
<path d="M2668.9,2128.2c0.4,72.2-53.4,128-124.7,129.1c-68.9,1.1-126.7-54.7-128.7-122c-2.7-92.3,68.6-137,127-138.3
	C2613.1,1995.4,2668.5,2053.4,2668.9,2128.2z"/>
<path d="M2109.9,2356.3c-80.2,0.5-137.5-34.2-161.5-94.6c-4.7-11.9-8.1-24.7-9.7-37.3c-2.3-18.8,4.9-29.3,19-32.4
	c15.1-3.2,25.1,2.5,32.4,19.3c3,6.9,4.9,14.2,7.6,21.3c16.9,44.4,51.5,67.4,102.8,68.5c52.1,1.1,85.7-19.5,104.7-64.5
	c4.2-9.9,7.5-20.2,11.2-30.3c5.6-15.1,17.2-18,31.3-15.2c15.5,3,20.5,13,20.2,28.1c-1,57.3-57.7,120.9-119.6,132.5
	C2133.6,2354.5,2118.5,2355.3,2109.9,2356.3z"/>
<path d="M2681.8,1065.3c14,5.1,23.4,7.7,32.1,11.7c89.4,41.3,174.8,89,249,154.6c12.1,10.7,23.4,22.3,33.9,34.6
	c12.5,14.7,11.3,23-2.1,35.9c-11.5,11.1-22.7,10.2-34.4,0.4c-29.7-24.8-58.6-50.9-89.6-74.1c-58.8-44.1-122.3-80.5-190.8-107.9
	c-23.9-9.5-28.9-19.7-18.4-38.6C2665.9,1074.3,2676,1069.8,2681.8,1065.3z"/>
<path d="M2701.4,2372.3c30,1.6,60.1,3.3,90.1,4.7c14.4,0.7,21.5,7.7,21.9,22.1c0.4,13.9-5.9,22.6-19.6,25.2
	c-8.4,1.6-17,3.1-25.6,3.2c-48.4,0.7-96.7,0.9-145.1,1.2c-4.3,0-8.7-0.2-12.8-1.2c-14.9-3.6-23-15.2-22.5-30.9
	c0.5-15.2,10.4-21,23.2-21.3c30.1-0.7,60.2-0.2,90.2-0.2C2701.4,2374,2701.4,2373.2,2701.4,2372.3z"/>
<path d="M1388.9,2347.1c-4.7-39.4,0.7-46.6,36.7-46.9c52.7-0.4,105.5-0.6,158.2,0.4c25.5,0.5,31.4,8.4,29.3,31
	c-1.3,14.2-7.8,21.5-22.5,21.3c-62.4-0.6-124.8-0.9-187.2-1.7C1398.4,2351.3,1393.4,2348.5,1388.9,2347.1z"/>
<path d="M2807.1,2351.1c-70.5,3.3-141.9,1.4-212.1,0.6c-14.9-38.6-8.5-50.6,26.4-51.2c50.5-0.9,101.1-1.4,151.7-0.4
	C2808.7,2300.7,2815.2,2310.6,2807.1,2351.1z"/>
<path d="M1388.7,2379.2c10.4-1.8,19.8-4.8,29.1-4.8c56.1,0.3,112.2,0.8,168.3,2.2c21.1,0.5,30,13.4,22.1,31.7
	c-2.8,6.6-11.8,14.8-18.1,14.9c-61.3,1.3-122.7,2.1-184.1,0.6C1387.2,2423.5,1385.4,2415.7,1388.7,2379.2z"/>
<path d="M2439.7,988.3c35.9,10.4,72,19.9,107.5,31.5c11.4,3.7,19.5,13.3,14,28c-5.8,15.7-15.6,23.2-31.7,20.2
	c-32.6-6.1-65.1-12.8-97.4-20.4c-19.1-4.5-25.2-13.4-23.2-28.9C2411.1,1001.2,2421.3,992,2439.7,988.3z"/>
<path d="M3079,1360.6c3.2,1.8,11.3,3.9,15.4,9.1c22.7,28.7,45.4,57.5,66,87.7c10.6,15.6,6.9,24.7-6.5,32.7
	c-15.7,9.3-26.7,8.6-36.9-4.9c-20.8-27.5-41.5-55.2-60.5-83.9C3044,1382.4,3054.4,1361.8,3079,1360.6z"/>
</svg>
