<?xml version="1.0" encoding="utf-8"?>
<!-- Generator: Adobe Illustrator 24.3.0, SVG Export Plug-In . SVG Version: 6.00 Build 0)  -->
<svg version="1.1" id="Layer_1" xmlns="http://www.w3.org/2000/svg" xmlns:xlink="http://www.w3.org/1999/xlink" x="0px" y="0px"
	 viewBox="0 0 4000 4000" style="enable-background:new 0 0 4000 4000;" xml:space="preserve">
<path d="M1986.8,835.9c160.5,6.3,321.3,9.1,481.6,19.8c200.8,13.4,400.4,38.6,594.3,95.5c142.7,41.9,279.2,97.8,399.4,187.6
	c83.1,62.1,151.7,136.2,193.5,232.9c24.4,56.6,38.2,115.2,36.5,176.8c-2.6,95.7-6.2,191.4-10.4,287.1
	c-5.5,126.5-11.8,253-18.1,379.5c-6.2,125.4-11.8,250.8-19.5,376.1c-6.8,111.6-56.3,203.9-135.7,280.6
	c-87.1,84.2-191.4,140.8-302.6,186.2c-146.6,59.9-299.8,94.6-455.3,120.8c-356.8,60.1-716.2,59.3-1075.9,43.1
	c-159.5-7.2-318.4-23-475.8-50.1c-189.4-32.6-374-82-545.2-172.6c-73.7-39-141.9-85.9-199.8-146.8c-81.8-86-126.2-186.2-129.6-306.6
	c-5.1-179.7-15.3-359.3-23.3-539c-2.2-50-4.5-99.9-6.5-149.9c-3.4-84-6-168-9.8-252c-8-176.7,61.4-318.2,194.9-430.9
	c113.1-95.6,243.2-159.4,383-204.8c119.6-38.8,242.5-64,366.6-83.3c175.9-27.4,353.1-39,530.8-43.7c75.5-2,151.1-0.3,226.7-0.3
	C1986.7,840,1986.8,837.9,1986.8,835.9z M3626.5,1791.4c-11.2,14.7-18.8,25.9-27.7,35.9c-27.4,31-53,64.1-83.5,91.8
	c-109.1,99.3-239.9,160.1-378.2,206.3c-168.5,56.3-343,83-518.8,100.7c-169.4,17-339.3,27-509.8,28.2
	c-331.4,2.3-661.9-10.6-989.3-65.8c-174.7-29.5-344.7-75.6-501.6-162.2c-101.3-55.9-188.9-126.4-253.3-223.7
	c-2.9-4.4-8-7.2-12.6-11.2c0,57.7-1.7,112.9,0.4,168c4.2,110.6,10.5,221.1,15.7,331.6c4.7,99.9,9.3,199.8,13.7,299.8
	c2.1,47.9,17.8,91.4,41.2,132.8c43,76,106.3,132.3,176.9,181.1c108.9,75.3,230.7,122.5,356.9,158.7
	c199.1,57.2,403.2,87.2,609.4,101.4c194.4,13.4,389.2,17.2,584,12.7c95.7-2.2,191.5-6.2,287-13.3c146.5-10.9,291.7-31.6,435.5-62.1
	c138.9-29.4,273.7-70.7,401.2-134c77.7-38.6,149.8-84.8,210.9-147.3c66.6-68.2,106-147.8,108.6-244.6c1.7-65.9,5.9-131.8,9-197.7
	c4.5-94.6,8.9-189.2,13.8-283.8c3.2-62.7,7.7-125.3,10.3-188C3627.7,1870.8,3626.5,1834.8,3626.5,1791.4z M1967.6,2204
	c123.4-3.2,246.8-5,370.2-10c74.4-3,148.7-9.1,222.7-16.9c84.6-8.9,168.9-20.4,253.1-32.5c155.4-22.3,306.3-61.7,449.6-126.9
	c99.6-45.2,191.4-102.6,265.1-185c52-58.1,87.9-125.5,104.5-201.8c28.4-130.3-9.6-244-91.4-345.2c-61.9-76.6-141-132-226.8-178.5
	c-155.4-84.4-324.7-126.3-496.8-157.4c-166.7-30.1-335.8-42.3-504.7-50.4c-239.2-11.4-478.6-11.5-718,3.6
	c-188.3,11.9-375.2,31.5-559.4,73c-158.9,35.8-310.3,90.1-446.9,181c-71.5,47.6-135.4,103.7-182.6,176.1
	c-81.5,125.2-91.7,256.7-25.8,391c35.6,72.5,89.6,131.3,153.2,181.5c117.6,92.7,253.5,146.4,395.3,187.3
	c136.3,39.4,276.6,59.5,417.1,74.9C1552.5,2190.7,1759.8,2201.2,1967.6,2204z"/>
<path d="M1506.1,2615.2c0.3-62.6,48.3-114.4,106.8-111.4c66.4,3.4,109.5,44.5,110.5,115.3c0.9,60-50.1,106-112.7,105.1
	C1549.9,2723.3,1505.7,2677.3,1506.1,2615.2z"/>
<path d="M2465.5,2613.4c0.7,62.9-45.6,110.6-107.1,110.4c-55.6-0.1-109-52.3-110.1-107.7c-1.2-59.8,47.9-113.8,106.2-113.3
	C2411.9,2503.3,2463.5,2538.7,2465.5,2613.4z"/>
<path d="M1993,2808.1c-68.9-1.1-117.7-33.9-136.7-87.5c-3.8-10.8-5.9-22.8-5.4-34.1c0.3-6.8,6.9-18.6,11.2-18.8
	c9.2-0.5,20.8,2.7,27.5,8.7c6.4,5.7,7.6,17.1,11.4,25.9c16,37.3,48.4,56.6,91.8,54.8c41.5-1.7,69.8-22.9,83-62.2
	c2-6,3.9-12.1,5.7-18.3c3.7-12.6,12.6-16.1,24.6-14.3c13.4,2,21.7,9,20.4,23.4c-3.9,44.3-24.9,78.9-62.6,101.8
	C2040,2801.9,2012.9,2808.1,1993,2808.1z"/>
<path d="M2497,2809c-22.3,0-44.5,0-66.8,0c-14.9,0-24.1-6.5-25.4-22.2c-1.3-16.2,4.9-25.8,24.1-26.5c44.4-1.6,88.9-0.9,133.4-0.6
	c6.1,0,12.6,2.6,18.2,5.4c11.5,5.7,19.3,16.3,14.5,28.2c-2.6,6.6-13.9,13-21.7,13.6c-25.3,1.7-50.8,0.6-76.2,0.6
	C2497,2808.1,2497,2808.5,2497,2809z"/>
<path d="M1392.9,2803.1c-5.8-35.9-3-41.9,25.7-43.2c42.3-1.9,84.6-1.4,126.9-1.7c13.9-0.1,24.8,4.7,29,19.4
	c4.4,15.2-0.6,24.3-16.2,28.1c-5.1,1.2-10.5,1.8-15.7,1.8c-40.2,0.2-80.4,0.5-120.6,0.1C1412.6,2807.5,1403.3,2804.8,1392.9,2803.1z
	"/>
<path d="M1482.6,2821c22.2,0,44.4-0.1,66.6,0c10.8,0,21.8,0.3,24.5,14.3c2.6,13.3-6.4,27.2-20.5,30.9c-6.1,1.6-12.5,2.8-18.8,2.8
	c-39.1-0.1-78.2-0.3-117.2-1.1c-11.7-0.2-23.3-2.1-26.7-17.1c-3.9-17.3,1.4-27.3,19.3-28.4c24.2-1.4,48.6-0.3,72.9-0.3
	C1482.6,2821.8,1482.6,2821.4,1482.6,2821z"/>
<path d="M2502.8,2823.6c22.3,0,44.5-0.2,66.8,0.1c10.7,0.1,22.3,0.2,24.4,14.5c1.9,12.8-2.3,23-14.9,28.4c-2.9,1.3-5.9,3.2-8.9,3.2
	c-48.7,0.5-97.4,1.3-146.1,0.5c-13.8-0.2-19.1-12.2-19-25.2c0.1-13.7,9.5-17.9,21.4-18c25.5-0.2,50.9-0.1,76.4-0.1
	C2502.8,2825.9,2502.8,2824.7,2502.8,2823.6z"/>
<path d="M1954,912.5c159.5,6.3,319.2,9.4,478.4,19.6c180.6,11.6,360,34.6,535.5,81.2c131.1,34.8,257.5,81.6,373.3,153.8
	c77.6,48.4,147.5,104.7,195.9,184.1c75.9,124.5,75.3,249.1,1.2,374.3c-35.5,59.9-84.9,106.2-140,146.9
	c-108.4,80.1-230.5,131.8-359.2,168.7c-135.3,38.8-273.8,61-413.5,77.1c-262.7,30.4-526.3,38.6-790.5,31.2
	c-185.2-5.2-369.7-18.5-553.6-41.9c-170.9-21.8-336.3-64.2-497.1-124.7c-73.8-27.8-144.5-63.1-207.1-112
	c-51.3-40.1-99.6-83.7-134.1-139.9c-86-140.4-72.8-294.1,34-420.1c77.3-91.2,173.1-157.3,280.5-206.5
	c150.9-69.2,310.6-109.1,473.9-135.2C1472.6,930.6,1723.1,918.7,1954,912.5z M1187.1,1911.1l-0.4,0.1c-5.5,33.8-37.7,23.1-54,31.1
	c0,29.9,0,56.6,0,83.2c138.4,42.6,718,83.5,800.1,66.7c0-28,0.1-56.6,0-85.1c-0.4-90.5-0.7-180.9-1.3-271.4
	c-0.1-11.2,4-26.1-9.7-30.9c-23.1-8.1-30.9-27.3-40.4-46.4c-10.1-20.3-22.9-37.7-48-42.8c-9.6-1.9-19.5-9.1-26.5-16.5
	c-32.5-34.7-69.8-42.1-112.8-22.7c-19.6,8.8-39.5,8.6-58.8-0.2c-36.9-16.8-72.3-14-106.8,6.4c-12.6,7.4-26.1,11.4-39.5,5
	c-14.3-6.8-27.2-2.8-40,2.1c-16.9,6.5-34.1,12.7-49.6,21.7c-11.6,6.7-24.3,15.6-30.2,26.9c-13.1,25.3-30.2,39.8-59.7,37.6
	c-6.2-0.5-12.8,1.3-18.9,3c-14.8,4.2-26.9,11.7-31.9,28.6c17,21.4,29,44.6,28.1,72.8c-0.7,24.2-9.4,44.2-32.3,54.4
	c-24,10.7-50.3,17.1-73.1,0.2c-28.7-21.3-39.7-52.8-34-87.7c4.8-29.4,25.9-44.5,54.5-50.9c7.3-1.6,17.2-7.5,19.2-13.5
	c11.9-36.7,39.9-47.9,74.1-48.8c18.2-0.5,30.2-6.6,36.4-24.3c10.1-28.6,31.3-44.6,60.7-50.5c6.2-1.3,13.4-2,18-5.8
	c5.1-4.2,10.4-11.1,11-17.3c3-34.1-19-71.1-52-83.9c-18.8-7.3-28.7-17.8-33.9-37.6c-7.5-28.9-24.4-39.3-54.4-38.6
	c-10.6,0.3-21.3,0.9-31.8,2.3c-14.7,1.9-25.1-2.9-29.6-17.6c-8.7-28.1-27.8-38.3-56.3-34.2c-17.7,2.5-33.6-0.7-45.3-16.6
	c-10.6-14.3-26.3-16.7-43-15.6c-23.2,1.6-43.7,9.6-59.6,26.9c-11.1,12.2-23,13.4-37.2,5.9c-7.5-3.9-15.6-6.9-23.7-9.4
	c-29.5-9-56.9-9.3-76.7,19.9c-8,11.8-19.7,14.3-33.4,14.1c-41.3-0.6-51.3,7.1-63.8,46.7c-9.4,29.8-9.4,29.8-40.8,31
	c-46.3,1.7-69.5,24.4-66.8,70.2c1.7,29.2-3.4,31.3-30.7,37.1c-34.1,7.2-37.7,10.3-42.6,45c-2.9,20.6-7.3,40.3-24.6,53.6
	c-14.5,11.1-16.2,25.1-16.9,42.1c-0.6,15.2-5.1,31.3-11.8,45.1c-15.4,31.6-13.7,48.2,13.9,68.9c33.2,24.8,66.2,50.2,101.3,71.9
	c124.6,77,261.9,121.3,404.2,151.4c5.6,1.2,12-1.2,21.1-2.4c1.8-23.8,3.6-46.6,5.5-71.4c-16-2.9-28.3-5.4-40.7-7.2
	c-11.2-1.7-19.3-8-16.3-18.7c1.6-5.8,11.6-9.6,18.2-13.4c2.4-1.4,6.3-0.6,9.4-0.3C1104.6,1904.3,1145.9,1907.7,1187.1,1911.1z
	 M491.9,1704.2c3.2-0.6,6.3-1.3,9.5-1.9c1.6-13.2,3.9-26.3,4.7-39.5c1.3-21,6.7-39.7,24.5-53c13.9-10.3,18.9-25,20.3-41.6
	c3-36.2,20-62.5,55.6-74.1c14-4.6,20.7-13.9,22.7-27.7c6.7-46.1,36-71.1,78.8-81.4c20.5-4.9,33.7-14.1,41.4-34.4
	c10.7-28.2,33.7-44.6,63-47.4c23.4-2.2,42.3-10.4,61.1-23.8c25.4-18.1,55.2-25.7,84.6-12.6c22.4,10,40.3,6.7,59.9-4.8
	c33.7-19.8,68.7-19.7,104.1-4.2c8.8,3.8,17.4,8.6,26.6,10.6c33.3,7.1,65.7,15.6,93.3,45.8c0.8-12.9,1.2-19.9,1.6-26.9
	c2.2-35.5,12.3-66.2,44.3-87.3c9.5-6.3,16.9-19.1,20.6-30.5c20.5-62.9,62.9-96.1,129-100.9c13-1,27.5-5.8,38-13.3
	c56.1-40.4,127.4-40.8,183.1,3c14.8,11.7,28.3,15.2,46.5,13.7c65.4-5.3,116.5,28.5,136.9,91c6.3,19.5,16.3,33.5,33.7,44
	c22.9,13.8,36.7,34.8,42.8,60.9c2.8,11.9,6.8,23.5,10.2,35.3c5.9-109.7,7.8-218.5,6.9-329.3c-13.7,0-23.1-0.3-32.4,0
	c-81.9,2.6-163.9,4.2-245.7,8.2c-201,10-401.1,27.7-597.3,76.1c-119.3,29.4-234.7,68.3-342.2,128.8c-82.3,46.3-158.3,99.9-215,177.3
	c-73.6,100.6-85.9,205.9-25.9,317.1C481.3,1689.3,486.9,1696.6,491.9,1704.2z M2939.1,1186.3c-15.9,0-31.9-1-47.8,0.2
	c-62.4,4.5-121.2,22.5-175.6,52.8c-66.8,37.3-93.8,92.2-81.2,168.1c5.2,31,18.3,60.7,27.2,91.2c8.1,27.7,27.1,36.3,54.6,39.2
	c119.7,12.5,226.1,56.4,313.1,141.5c14.2,13.8,29.3,19.6,48.5,18.6c70.8-3.9,138.9-18.7,201.9-52.2c15.8-8.4,31.6-18,45-29.9
	c43.6-38.8,83-101.1,48.5-183.1c-21.2-50.3-51-93.2-92.4-127.8C3182.1,1222.3,3066.5,1186.6,2939.1,1186.3z M2857.6,2027.1
	c5.6,1.1,7.9,2.3,9.7,1.9c71-18.2,142-36.6,213-54.8c15.3-3.9,19.8-13.4,18.4-28.4c-8.9-100.6-45.2-187.5-124.1-253.8
	c-66.1-55.6-141.2-89.3-227.5-99.4c-208-24.5-381.6,40.5-519.5,198c-47.1,53.7-78.3,116.6-91.7,187.1c-7.1,37.2-11.5,75-7.7,113.3
	c22.3,0,40.8,0,61.6,0c0-15,0.2-27.6,0-40.1c-2.1-114.8,64.5-218,171.2-260.9c120.8-48.6,239.7-42,353.6,21.5
	c70.2,39.1,116.6,98.1,134.1,178C2851.3,2001.8,2854.5,2014,2857.6,2027.1z M1826.4,1551.9c34.2-26.3,57.1-55.6,57.2-99.1
	c0.1-17.8,3.3-35.6,5.2-53.4c0.9-8.4,4.7-17.3,2.9-25c-7.8-34.1-15.2-68.5-26.8-101.3c-4.8-13.6-17.8-29.2-30.7-33.9
	c-26.5-9.5-33.4-27.7-39.3-51.9c-11.5-47.8-42.5-68.4-91.6-65.1c-6.3,0.4-12.9,0.9-18.9,2.7c-18.5,5.6-31.3,0.3-44.2-14.9
	c-33.7-39.6-98.8-45.1-137.8-11.3c-16.7,14.4-32.7,20-54.4,18.9c-35.5-1.8-68.3,11.4-81.3,44.9c-14.6,37.5-28.7,71.3-59.7,100.5
	c-28.8,27.1-15.4,61.2,22.9,73.9c24.4,8.1,40.3,23.2,46.9,47.6c3.6,13.3,11.3,21.4,23.4,28.1c35.1,19.4,58.7,46.8,64.9,88.8
	c5.6,38.2,23.3,46.8,58.5,29.4c41.1-20.3,81.6-20.7,122.8-2.9c14.7,6.4,27.6,5.6,42.5-0.9c13.1-5.8,28.4-7.4,43-9.1
	C1767.2,1513.7,1796.2,1528.9,1826.4,1551.9z M2544.9,1088.3c100.3,21.7,100.3,21.7,169.8,91.8c10.6-4,22.2-8.6,34-12.9
	c12-4.4,23.8-9.5,36.1-12.7c195.9-49.8,373.1-11.3,530.4,115.2c55.2,44.4,95.3,101,112,170.5c19.9,83.2,25.2,168.1,17.3,253.5
	c-1.9,20.6-2.6,41.3-4.3,69.6c25.6-20.6,38.5-41.2,51.5-61c47-70.8,64.7-147.9,41-230.9c-17.2-60.3-49.8-112.8-93.9-157.4
	c-52-52.7-112.2-94.6-177-129.6c-131.2-70.9-272.1-114.4-417.2-145.6c-110.4-23.7-222.4-36.2-334.7-46.5
	c-134.7-12.3-269.5-18.7-404.7-17.3c-8.1,0.1-16.2,2-23.5,2.9c-5.7,34.8-4.9,201.1,2,219.5c33.9-52.3,78.6-87.7,139.2-101.2
	c-0.9-7.6-1.9-12.7-2.1-17.8c-1.2-26.8,5.3-34.7,32-36c13.7-0.6,27.8,0.3,41.2,3.3c34.1,7.6,34.6,8.5,49-21.4
	c7.6-15.8,19.2-21.9,35.7-20.4c15.3,1.4,25.3,10.3,32.1,23.2c6.8,12.8,13.3,25.9,21.7,42.4c12.9-9.8,23.5-18,34.2-25.9
	c28.3-20.7,51.8-14.9,67.1,16.7C2537.9,1068.9,2540.9,1078,2544.9,1088.3z M2821.5,2029.3c-9-64.9-35.3-121.1-87.9-163
	c-100.9-80.3-280.3-101-404.9-17c-48.6,32.8-83.2,75.9-96.8,133.7c-8.2,35.1-10,70.5-3.1,106.7c27.3,1.2,51.3,4.3,72.9-3.6
	c1.8-3.6,2.6-4.5,2.7-5.5c0.5-4.2,0.9-8.5,1.1-12.7c4.1-72.3,41.7-120.9,106.8-149.4c41.2-18.1,84.7-21,128.5-14.8
	c82.8,11.7,140.1,53.2,156.5,139.9c0.5,2.8,3.3,5.2,4.8,7.5C2742.4,2052.3,2798.8,2042.3,2821.5,2029.3z M3149.1,1948.8
	c24.7-10.4,44.8-17.3,63.3-27.1c44-23.2,87.7-47.2,130.9-72c26.7-15.4,39.5-39.8,42.1-70.7c2.4-28.5,8.7-56.7,10.7-85.2
	c1.8-24.8,9-50.1-1.2-76.8c-5.7,3.5-11,5.4-14.3,9c-60.5,65.4-137.8,96.8-223.7,111.1c-22.3,3.7-44.3,8.4-70.6,13.5
	C3125.9,1812.4,3139,1877.8,3149.1,1948.8z M2023.2,2097.9c0-377.1,0-750.9,0-1129c-14.6,3-25.2,5.2-38,7.8c0,127,0,251.3,0,375.6
	c0,124.4-0.8,248.8,0,373.3c0.7,123.8-1.6,247.7,0.9,372.2C2000,2097.9,2009.4,2097.9,2023.2,2097.9z M2283.5,1594.8
	c11.3,1.6,19.7,2.3,27.9,3.9c9.3,1.8,18.8,3.7,27.7,6.9c35.4,12.4,51.9,1.3,53.5-36.7c2.4-56.3,5.2-112.7,6.8-169
	c1.1-37.2,1.2-74.5,0.4-111.7c-0.4-20.1-2.5-40.4-6-60.3c-2.7-15.4-13.3-20.3-25.4-11.1c-11.5,8.7-22.1,20.2-29.4,32.6
	c-21.8,37.1-34.6,78.1-40.4,120.3c-7.2,52.6-10.9,105.7-15,158.7C2282.2,1549.3,2283.5,1570.5,2283.5,1594.8z M2288.5,1659
	c-1.1-3.1-2.1-6.3-3.2-9.4c-13.1-1.8-26.3-5.2-39.4-5c-19.8,0.3-37.6-2.9-54-15.1c-15.7-11.7-33.8-12.2-51.8-5.8
	c-41.2,14.9-69.1,35.5-67.7,87.1c3.1,121.2,2.6,242.4,3.7,363.7c0,2.6,1.5,5.2,2.3,7.8c-2.4-83.7,17.9-162.6,55-236
	C2170.4,1773,2227.1,1713.7,2288.5,1659z M2332.4,1193c-12.1,1.3-19.4,1.1-26.2,2.9c-55.5,15.3-92.5,51.8-111.2,105
	c-28.2,80.7-30.5,164.5-23.9,248.8c0.5,6.5,4.7,16,9.7,18.2c22.8,9.9,46.5,17.7,72.7,27.3C2251.9,1455.6,2258.6,1319.5,2332.4,1193z
	 M2450.2,2078.6c0.4-6.3,1.4-9.6,0.7-12.5c-7.6-34.8,5.7-51.9,41.3-51.6c28.2,0.2,51.6,10.6,68.9,33.8c5.4,7.3,12.5,17.6,19.8,18.5
	c27.3,3.4,54.6,1.1,78.5-13.5c-2.9-76.7-43-99.3-91.3-111.6c-45.4-11.6-91-8.4-135.1,7.9c-30.8,11.4-55.9,31-73.6,58.8
	c-14.4,22.8-22.1,47.5-13.8,77.3C2381.5,2083.2,2415.8,2080.9,2450.2,2078.6z M2421.9,1583.3c27.7-7.6,53.1-8.6,62.5-37.4
	c14.8-45.5,30.6-90.6,44.2-136.5c4.7-15.9,7.9-34.1,5.3-50.1c-8.2-50.2-28.3-95.8-63.3-133.5c-6.3-6.8-14.7-12.6-23.2-15.9
	c-12.5-4.9-20.3,0.9-22,14.4c-0.7,5.2,0.1,10.6,0.1,15.9c-1.1,103.1-2.3,206.3-3.5,309.4C2421.8,1559.7,2421.9,1569.9,2421.9,1583.3
	z M2139.4,1571.8c0-8.4,0.1-17.7,0-27c-0.2-36.1-1.9-72.3-0.4-108.4c1.9-46.9,9.5-93.1,26.1-137.3c22.4-59.5,55.8-109.9,117.5-135.7
	c4.1-1.7,7.2-5.8,13.6-11.2c-59.9-16.1-106.1,0-145.3,40.3c-23.4,24.1-38.5,53.3-50.1,84.4c-31.7,85.2-24,171.4-5.5,257.6
	c2.4,11.1,9,21.4,14.9,31.4C2116.5,1576.5,2126,1579,2139.4,1571.8z M2488.8,1184.9c26.2,48.2,50.4,92.6,76.9,141.3
	c16-21.4,30.1-39.5,43.4-58.3c6.2-8.8,4.9-17.8-3.1-25.7C2573.4,1210.3,2535.1,1190.6,2488.8,1184.9z M2530.8,1545.4
	c36.1-4.1,63.8-7.3,94.2-10.8c-9.1-21.8-16.8-40-24.3-58.4c-7.6-18.5-6.8-40.4-23.7-62.8C2561,1459.2,2547.1,1498.9,2530.8,1545.4z
	 M2514.8,1147.2c50.7,15.8,91.9,45.9,126.6,83c29.2-17.9,31.7-24.5,18.2-42.1C2633,1153.3,2560.7,1131.2,2514.8,1147.2z
	 M1878.9,1581.5c17.4,15.6,27.3,38.7,54.9,50.1c-0.4-49.5,3.2-94.9-2.9-142.4C1913,1521.1,1897,1549.6,1878.9,1581.5z
	 M2525.5,2074.2c-0.5-24.2-12.4-26.7-26.1-25.1c-13.3,1.6-19.7,9.6-18.7,27.6C2496,2075.8,2509.8,2075,2525.5,2074.2z"/>
<path d="M989.7,1699.9c-14,17-25.7,32-38.2,46.3c-10.5,12-22.9,14.3-36.8,4.7c-10.5-7.2-21.3-13.9-32.2-20.4
	c-34.1-20.3-43.5-46-30.6-83.6c2.1-6,3.9-12,5.7-18.1c0.3-0.9-0.5-2-0.8-3c-25-9.1-47.8-3.4-64.6,16.2
	c-17.2,20.1-21.7,58.2-9.5,81.4c14,26.6,35.1,34.2,81.9,28c3.6,17-5,25.5-19.7,29.5c-23,6.2-44.4,1.7-63.1-13.2
	c-49.3-39-46.9-119.4,5.6-153.9c10.8-7.1,25.4-10,38.6-11.8c13.5-1.8,27.8,1.9,41.3-0.1c14.4-2.1,28.9-6.3,42-12.5
	c15.1-7,20.4-20.9,17.3-37.5c-3.2-17-15-25.2-30.7-28.2c-21.5-4.1-39.8,3.8-55.8,17.5c-9.5,8.1-18.2,17.3-27.4,26.1
	c-13.4-17.1-13.8-29.5-2.3-45.1c31.1-42.3,115.2-39,142.3,5.5c17.8,29.1,9.1,65.5-20.6,83.1c-11.8,7-25.1,11.6-37.5,17.6
	c-15.4,7.4-26.8,18.7-26.5,36.6c0.3,20.4,9.6,37.8,27.6,47.3c7,3.7,18.5,1.4,27.1-1.1c11.1-3.3,21.1-10,31.9-14.4
	C968.2,1691.1,968.4,1691.5,989.7,1699.9z"/>
<path d="M1111.2,1713.4c-10.6-6.1-4.8-14.2-3-22.2c3.5-15.4,8.3-31,8.9-46.6c1-22.9-15.9-39.7-38.9-42.5
	c-21.6-2.6-50.2,12-55.9,28.9c-3.4,10.2-2,19.1,9.7,23.1c7,2.4,14.4,3.7,21.4,6.2c11.6,4.1,16.6,13.4,15.2,25
	c-1.5,12-9.3,18.7-21.8,18.7c-6.3,0-12.6-0.8-21.5-1.3c4.2-6.3,7.2-10.9,10.4-15.7c-42.9-12.6-53.7-45.9-26.8-81.9
	c19.8-26.5,44.8-42.8,79.3-35.3c31.4,6.8,53.1,25.6,62.3,57.1C1160.4,1661.4,1144.4,1696.6,1111.2,1713.4z"/>
<path d="M1043.6,1815.4c-2.8-15.6-10-24.2-26.8-23.3c-20.3,1.1-41-0.3-55,18c-10.6,13.8-3.4,35.1,15.2,45.2c6.4,3.5,13.8,5.3,21,7
	c7,1.7,14.2,2.3,26.7,4.2c-7.4,7.7-11,14.2-16.4,16.8c-22.8,10.6-47.2,4.4-63-14.7c-18.5-22.3-19.7-47.4-3.3-69.8c1.9-2.6,4-5,6-7.4
	c29.6-35.4,46.7-39.4,90.4-21.2c2.8-14.2,2.8-14.2-10.3-46.1c16.1-5.4,26.3,1.2,33.2,15C1072.8,1762.5,1066.1,1794,1043.6,1815.4z"
	/>
<path d="M1187.1,1911.1c-19.1-14.3-41.8-13.5-63.9-15.8c-21.1-2.1-42.3-4.3-63-8.4c-13.5-2.7-27-8.2-27.4-29
	c5.7-2.2,12.2-6.9,18.5-6.7c27.4,1,54.7,3.5,82.1,5.4c4.2,0.3,8.5,0,12.8,0.4c25.1,2.4,32.7,9.8,36.9,35.4c1,6.2,2.3,12.4,3.6,18.6
	C1186.7,1911.2,1187.1,1911.1,1187.1,1911.1z"/>
<path d="M2743.7,1644c128.7,7.7,233.3,101.1,254.7,228c1.7,10.2,2.2,21.4-0.3,31.3c-1.3,5.1-10.1,10.3-16.2,11.3
	c-3.4,0.6-9.9-6.7-11.9-11.7c-3-7.8-3.2-16.6-4.8-24.9c-20.5-106.1-78.2-166.8-196.9-193.9c-12.4-2.8-25.1-4.5-37.8-5.6
	c-12.6-1.1-20.6-6.6-19.7-19.6c0.9-14.4,12.4-15.1,23.4-15.4C2737.4,1643.5,2740.6,1643.9,2743.7,1644z"/>
<path d="M2748.2,1733c10.6,1.9,17.1,2.2,23,4.2c54.4,18,92.6,54,115.5,106.2c4.4,9.9,8.5,20.7-5.2,27.1c-12.5,5.8-20-1.7-25.8-11.5
	c-3.2-5.4-5.9-11.3-8.7-16.9c-15.8-32-40.4-53.9-74.6-64.6c-9.1-2.8-18-6.2-27.1-9c-11.2-3.6-16-12.2-12.1-22
	C2735.7,1740.1,2744.2,1736.3,2748.2,1733z"/>
<path d="M1644.4,1204.8c25.6-0.1,46.1,9.3,61.3,29.2c7,9.1,9.7,20.9,0.3,28.6c-4.7,3.8-15.6,2-22.9-0.1c-10-2.9-19-9.7-29-12.6
	c-14.3-4.1-27.9-0.8-37.1,11.7c-9.2,12.4-7.5,25.9-1.3,39.3c6.8,14.6,18.8,19.5,33.9,18.3c6.3-0.5,12.4-3.3,18.7-3.8
	c15.6-1.1,23.1,11,15.9,25c-9.2,17.8-39.2,26.6-59,14.8c-27.5-16.3-46.9-40.9-53.8-72.2C1563.2,1246.1,1606.6,1200.3,1644.4,1204.8z
	"/>
<path d="M1484.9,1177.9c25.6-0.1,46.1,9.3,61.3,29.2c7,9.1,9.7,20.9,0.3,28.6c-4.7,3.8-15.6,2-22.9-0.1c-10-2.9-19-9.7-29-12.6
	c-14.3-4.1-27.9-0.8-37.1,11.7c-9.2,12.4-7.5,25.9-1.3,39.3c6.8,14.6,18.8,19.5,33.9,18.3c6.3-0.5,12.4-3.3,18.7-3.8
	c15.6-1.1,23.1,11,15.9,25c-9.2,17.8-39.2,26.6-59,14.8c-27.5-16.3-46.9-40.9-53.8-72.2C1403.8,1219.2,1447.1,1173.4,1484.9,1177.9z
	"/>
<path d="M1726.6,1352.8c25.6-0.1,46.1,9.3,61.3,29.2c7,9.1,9.7,20.9,0.3,28.6c-4.7,3.8-15.6,2-22.9-0.1c-10-2.9-19-9.7-29-12.6
	c-14.3-4.1-27.9-0.8-37.1,11.7c-9.2,12.4-7.5,25.9-1.3,39.3c6.8,14.6,18.8,19.5,33.9,18.3c6.3-0.5,12.4-3.3,18.7-3.8
	c15.6-1.1,23.1,11,15.9,25c-9.2,17.8-39.2,26.6-59,14.8c-27.5-16.3-46.9-40.9-53.8-72.2C1645.4,1394.1,1688.8,1348.3,1726.6,1352.8z
	"/>
</svg>
