<?xml version="1.0" encoding="utf-8"?>
<!-- Generator: Adobe Illustrator 24.3.0, SVG Export Plug-In . SVG Version: 6.00 Build 0)  -->
<svg version="1.1" id="Layer_1" xmlns="http://www.w3.org/2000/svg" xmlns:xlink="http://www.w3.org/1999/xlink" x="0px" y="0px"
	 viewBox="0 0 4000 4000" style="enable-background:new 0 0 4000 4000;" xml:space="preserve">
<path d="M3896.6,1824.5c0,237.7,0.3,475.4-0.4,713.1c-0.1,35.5-3.5,71.3-8.1,106.6c-6.7,50.8-30.9,93.1-71.4,124.6
	c-23.7,18.4-48.7,35.7-74.9,50.2c-306.4,169.5-613.5,337.9-919.7,507.8c-83,46.1-169.5,78.2-264.4,88.2
	c-58.9,6.2-115.8-3.9-172.8-13.4c-216.6-36.1-433-73.3-649.6-109.9c-212.2-35.8-424.4-71.3-636.6-106.8
	c-177-29.6-354.1-58.8-531.1-88.6c-38.7-6.5-76.4-17.7-108-42.3c-49.6-38.6-74.1-91.1-80.2-152.5c-2.4-24.4-2.5-49-2.5-73.6
	c-0.3-508.9-0.3-1017.7-0.6-1526.6c0-66.3,12.2-128.5,55.8-181.5c24.7-29.9,53.8-53.4,90.3-66.9c94.1-34.7,188.6-68.5,282.6-103.5
	c305.1-113.5,610-227.4,915.2-340.8c30.3-11.2,61.2-20.9,92.1-30.1c66.5-19.8,133.1-7.5,199.1,2.5c198.5,29.8,396.8,61,595.1,91.7
	c117.9,18.2,235.8,36.6,353.7,54.6c114.6,17.5,229.4,34,344,51.8c138.8,21.6,277.5,43.7,416.1,66.7c58.3,9.7,108.5,35.1,139.7,88
	c23,39,35.5,81.7,36.4,127.4c0.4,22.3,0.1,44.6,0.1,67C3896.5,1360.3,3896.5,1592.4,3896.6,1824.5
	C3896.5,1824.5,3896.5,1824.5,3896.6,1824.5z M465.9,2070.2c-1,0-1.9,0-2.9,0c0,250-0.3,499.9,0.4,749.9c0.1,32.1,3.7,64.7,9.7,96.3
	c7,37.2,29.9,64.8,65.1,79.5c16.2,6.8,34.2,10.2,51.6,13.3c79,14,158.1,27.5,237.3,40.9c188,31.7,376,62.9,564,94.8
	c150.6,25.6,300.9,52.7,451.6,78c158.3,26.6,316.8,52.4,475.3,77.7c55,8.8,110.3,15.4,165.5,22.4c31.5,4,55.3-11.1,69.2-37.3
	c11.2-21.2,18.2-45.1,23.5-68.7c3.6-16,1.5-33.3,1.4-50.1c-0.3-315.8-0.4-631.6-0.9-947.4c-0.2-148.4-0.7-296.8-1.7-445.2
	c-0.3-51.4-4.2-102.4-23.4-151.2c-25.2-63.8-70.1-105.3-136.8-121.2c-30.2-7.2-61.6-9.7-92.4-14.8
	c-146.2-24.5-292.4-49.4-438.6-73.6c-254.1-42.1-508.2-83.9-762.3-125.7c-159.5-26.2-319.1-52.5-478.7-78.1
	c-30.8-4.9-62-10.1-93-9.9c-49.5,0.3-86,21.8-83.3,77.2c0.4,7.8-0.6,15.6-0.6,23.4C465.9,1556.9,465.9,1813.5,465.9,2070.2z
	 M3809.3,1820.4c-0.4,0-0.7,0-1.1,0c0-184.2,0-368.3,0-552.5c0-67-0.5-133.9-0.2-200.9c0.3-51.6-14.5-66.8-74-60.2
	c-7.6,0.9-15.2,3.8-22.3,6.7c-22.7,9.3-45.5,18.4-67.7,28.8c-184,85.7-367.7,172.1-551.9,257.5c-111.3,51.6-223,102.3-334.8,152.8
	c-75,33.9-121,91.2-133.6,171.9c-7.7,49.3-11.3,99.8-11.2,149.8c0.5,399.5,2.4,799.1,3.9,1198.6c0.3,70.3,0.6,140.6,0.9,210.9
	c0.1,26.1,4.6,51.2,20.1,73c23.8,33.7,42.4,38.8,80,22.2c9.2-4.1,18.1-8.7,26.9-13.5c56.8-31,113.6-62,170.3-93.1
	c243.4-133.8,486.8-267.5,729.9-401.7c35.1-19.4,69.2-40.8,102.6-63c33.3-22.1,53.4-53.8,56.9-94.1c2.8-33.3,5.2-66.8,5.2-100.1
	C3809.5,2282.5,3809.3,2051.4,3809.3,1820.4z M545.8,1151.7c8.3,3,13.3,5.6,18.5,6.5c61.6,10,123.3,19.6,184.9,29.7
	c210.2,34.4,420.5,68.8,630.6,103.6c170.6,28.2,341,56.9,511.5,85.3c180.4,30.1,361,59,541.1,90.7c90.7,16,176.9,9.1,261.2-30
	c132.5-61.4,266.4-119.9,399.1-181c146.8-67.7,292.9-137,439.3-205.7c56.5-26.5,113-53.1,169.2-80.5c11-5.4,26.5-8.3,25.9-30.2
	c-17.6-4.3-35.4-10.1-53.7-13c-221.3-35.3-442.6-70.1-664-105.1c-105.7-16.7-211.3-34.2-317.2-50.2c-145.6-22-291.3-42.7-436.9-64.4
	c-111.4-16.6-222.7-34-334-51c-41.9-6.4-82.5,0.4-121.6,14.9c-71.1,26.3-141.7,54-212.7,80.5c-235,87.8-470,175.5-705.2,262.9
	c-96.2,35.7-192.8,70-289.1,105.5C576.5,1126.2,558.7,1131,545.8,1151.7z M2630.3,1505.2c-36.5,4.8-66.6,8.8-99.6,13.2
	c20.4,29,38.4,54.5,57.2,81.2C2601.9,1568.4,2614.9,1539.3,2630.3,1505.2z M2628.3,3320.8c1-2.5,1.9-4.9,2.9-7.4
	c-9.7-9.6-19.3-19.1-31.6-31.3c-6.9,16.4-11.6,27.6-18.4,43.9C2601.5,3323.8,2614.9,3322.3,2628.3,3320.8z"/>
<path d="M574.9,1772.2c-29.6,2.5-30,2.3-32.3-17.3c-0.5-4.4-0.5-8.9-0.5-13.4c-0.3-110.4-1.3-220.8-0.4-331.2
	c0.4-53.2,22.2-96.5,74.2-116.1c21-7.9,46.2-9.4,68.8-7.1c54.3,5.5,108.2,14.6,162.2,22.7c69.4,10.5,138.8,21.4,208.2,32.3
	c7.7,1.2,15.3,2.9,22.8,4.9c14,3.8,16.3,13,10.3,28.3c-13.7-0.8-28-0.6-42-2.7c-111.4-16-222.7-32.7-334.1-48.6
	c-18.7-2.7-37.8-3.7-56.7-3.1c-39.6,1.3-67.1,24.8-73.9,64.3c-3.6,20.7-4.2,42.2-4.4,63.3c-1.1,97-1.5,194-2.2,291
	C574.9,1750.6,574.9,1761.6,574.9,1772.2z"/>
<path d="M567.4,2515.9c0,15.9-0.1,29,0,42.2c0.4,79.1,0.4,158.3,1.3,237.4c0.6,45.9,15.4,86.1,56,111.4c16.6,10.3,36.1,18,55.3,21.7
	c87.4,16.9,175.2,31.9,262.9,47.5c13.3,2.4,27.4,3.7,23.6,26.2c-12.3,0-24.5,1.6-36.1-0.3c-86.8-13.9-173.7-27.6-260.2-43.2
	c-62.1-11.2-104.7-47.2-123.6-108.5c-3.9-12.6-6.5-26.1-6.6-39.3c-0.8-90.3-1.1-180.5-1-270.8C539.2,2517,540.2,2517,567.4,2515.9z"
	/>
<path d="M2449.7,1935.2c-16.1,5.6-24.2,1.5-25.3-13.3c-0.6-7.8-0.3-15.6-0.4-23.4c-0.1-65.8,0-131.6-0.2-197.4
	c-0.1-13.3-0.2-26.9-2.4-40c-8.4-49.3-37.8-79.9-86.5-90.3c-38.1-8.2-76.6-14.6-115.1-21.1c-34.1-5.7-68.3-10.3-102.5-15.6
	c-6.6-1-13.1-2.9-19.6-4.2c-11.9-2.5-22.3-7.7-20.5-21.6c2.1-16.9,15.8-12.6,26.3-11c46.2,7.2,92.4,15,138.5,22.7
	c30.8,5.1,61.9,8.7,92.2,15.8c79.4,18.6,119.7,69.2,120,150.3c0.2,73.6-0.9,147.2-1.7,220.8
	C2452.3,1916.6,2450.6,1926.4,2449.7,1935.2z"/>
<path d="M2489.4,2945c21.8-6.5,31.2-0.5,31,17.3c-0.7,71.4,0.3,142.8-3.3,214c-2.4,47.6-30.9,76.7-78.1,81.1
	c-31.7,2.9-64.3-1.5-96.3-4.1c-11.6-0.9-20.9-7.7-18.9-23.8c12.3-10.4,26.8-5.8,40.7-4.4c16.6,1.7,33.2,4.9,49.8,4.8
	c45-0.4,68.4-22.4,69.8-67.3c1.5-49,0.4-98.2,1.2-147.2C2485.8,2991.4,2488.1,2967.3,2489.4,2945z"/>
<path d="M3702.3,1809c0-13.8,0-28,0-42.1c-0.1-155.1-0.2-310.2-0.5-465.3c0-17.8,0.2-35.8-1.8-53.5c-4.5-38.3-31-60.2-69.5-54.9
	c-20.6,2.8-41.3,9.7-60.3,18.4c-113.5,52.2-226.4,105.5-339.6,158.3c-12.1,5.6-24.6,10.9-37.4,14.4c-5.2,1.4-16.6-1.8-16.9-4
	c-0.8-6.6,0.4-15.3,4.5-20.1c4.7-5.5,13.2-7.9,20.2-11.2c118.6-57,237.1-114,355.8-170.7c15-7.2,30.7-13.4,46.6-18.4
	c55.4-17.2,106.6,9.1,124.1,64.5c5,15.7,7.5,32.8,7.5,49.3c0,169.6-0.6,339.2-1.4,508.8C3733.5,1810.6,3732.7,1810.5,3702.3,1809z"
	/>
<path d="M2732.2,2549.9c0,13.4-0.1,25.6,0,37.7c0.9,146.1,1.8,292.3,2.9,438.4c0.1,13.4,0.4,26.9,2.5,40
	c5.1,32.7,29.4,51.6,61.9,45.5c19.3-3.6,38.5-11.4,56-20.6c101.5-53.8,202.4-108.6,303.5-163.1c30.4-16.4,60.7-33,91.1-49.4
	c3.9-2.1,7.9-4.2,12-6c9.1-4.1,20.1-10.1,26,2.2c5.7,11.8-5.3,18.3-13.9,23.1c-49.7,27.7-99.5,55.1-149.4,82.4
	c-81.1,44.5-162.1,89.4-243.6,133.2c-22.4,12-45.9,23.6-70.2,30.4c-47.6,13.2-86.8-10.3-100.3-58c-4.2-14.8-5.9-30.8-6.1-46.2
	c-1.5-152.8-2.5-305.7-3.5-458.5c0-5.6,0.1-11.2,0.4-16.7C2702.2,2545.7,2711.7,2541.5,2732.2,2549.9z"/>
<path d="M1008.1,1017.1c9.3,19.1-4.8,26.3-17.9,31.8c-26.7,11.3-54.2,20.6-80.9,31.8c-13,5.4-25.1,13.3-45.5,24.3
	c19.4,7.4,30.6,13.7,42.6,15.9c74.5,13.8,149.1,27.1,223.9,39.7c55,9.3,110.2,17.1,165.2,25.9c12.6,2,30.8,1.5,28,20.6
	c-3,20.8-21.2,11.8-32.7,10c-131.1-20.4-262-41.4-392.9-63c-15.1-2.5-30.7-7.5-44-15c-28.4-16.1-28.6-46-1.9-64.9
	C877.5,1056.2,973.8,1020.8,1008.1,1017.1z"/>
<path d="M2232.2,778.7c-13.4-1.7-24.2-2.7-34.9-4.5c-77-12.7-154-25.3-230.9-38.3c-45.4-7.7-88.7-0.8-130.8,17
	c-47.2,19.9-94.6,39.7-142.2,58.6c-11.2,4.5-27,15.9-34.2-3.1c-6.7-17.6,10.9-21.7,22.8-26.7c49.4-20.5,98.8-41.1,148.5-60.8
	c45.4-18,91.8-25,140.8-16c78.9,14.6,158.2,27.2,237.4,40.3C2225,748,2236.1,753.9,2232.2,778.7z"/>
<path d="M3239.6,902.6c72.3,13.8,142.4,26.8,212.3,41c20.2,4.1,33.4,17.4,35.9,39.1c2.5,21.5-7,37.6-25.4,46.8
	c-32.9,16.5-66.5,31.4-100,46.6c-29.5,13.3-59.2,26.1-88.9,38.9c-9.7,4.1-20,6.6-25.6-6c-5-11.2-0.2-19.7,10-25
	c9.9-5.1,20.2-9.3,30.4-13.8c42.7-19.1,85.6-38,128.2-57.3c7.1-3.2,14-7.2,19.9-12.3c4.7-4,11.5-11.4,10.3-14.9
	c-2.1-6.2-8.9-11.7-15-15.2c-5.5-3.2-12.7-3.9-19.3-5c-52.7-9.2-105.4-18.3-158.1-27.4c-5.5-0.9-11.1-1.5-16.5-2.5
	c-11-2.1-25.2-3.8-20.7-19.1C3218.8,910.3,3231.7,907.2,3239.6,902.6z"/>
</svg>
