<?xml version="1.0" encoding="utf-8"?>
<!-- Generator: Adobe Illustrator 24.3.0, SVG Export Plug-In . SVG Version: 6.00 Build 0)  -->
<svg version="1.1" id="Layer_1" xmlns="http://www.w3.org/2000/svg" xmlns:xlink="http://www.w3.org/1999/xlink" x="0px" y="0px"
	 viewBox="0 0 4000 4000" style="enable-background:new 0 0 4000 4000;" xml:space="preserve">
<path d="M2686.4,1698c20.4,5.1,27.6-4.4,34.3-15.1c25.6-41.1,51.4-82.2,77.1-123.3c129.5-207,259.4-413.7,388.2-621
	c89.1-143.4,177-287.5,265.1-431.4c32-52.3,82.4-71.9,140-50.9c53.4,19.5,95.2,52.9,115,108.5c11.9,33.3,8,64.5-13,93.5
	c-43.2,59.6-86.2,119.3-129,179.2c-140.7,197.4-281.5,394.8-421.7,592.5c-64.1,90.4-126.9,181.7-190,272.7
	c-6.8,9.7-12.2,20.4-19.6,33.1c10.4,2.8,17.5,5.1,24.9,6.5c126.8,24.6,251.5,56.7,372,103.4c50.1,19.4,97.9,43.6,141.4,75.9
	c53.6,39.8,82,92.6,86.4,158.6c20.1,302.7-43.3,585.2-205.4,843.4c-116.3,185.2-271.1,331.8-456.6,446.5
	c-41.2,25.4-83.4,49.4-126.5,71.5c-18.7,9.6-24.8,20.7-21.8,40.8c3.8,25.7,3.4,52,7.8,77.5c6.5,37.7-8,63.3-39.6,82.5
	c-44.8,27.1-93.2,45.3-143,60.6c-75.5,23.2-153.1,36-231.2,46.6c-130.9,17.8-262.3,19.9-394,14.7c-137.1-5.4-272.3-24.1-404.3-62.7
	c-53.4-15.6-104.2-37.1-151.8-66.3c-24.1-14.8-35.2-34.1-30.8-62.7c4.8-31.6,8.5-63.4,11.8-95.2c2.2-21.8,1.4-21.6-17.7-31.5
	c-198.2-103.3-372.8-236.1-511.8-412.5C696.5,2847.8,605,2638,572.5,2403.8c-16-115.3-16.5-231.4-5.9-347.3
	c4.6-50,27.7-90.3,65.8-122.5c37.4-31.5,79-56.1,123.9-75.1c133.7-56.4,272.6-95.4,415.4-120.5c116-20.3,232-40.7,349.5-50.1
	c101-8.1,202.2-12.7,303.4-18c152.4-8,304.7-5.4,457.1,0.6c60.5,2.4,121.1,5.4,181.6,8.3c19.5,1,20.7,0.3,27.4-22.5
	c35.9-122,71.3-244.2,107.8-366c47.2-157.5,95.7-314.6,142.9-472c50.4-168.2,100.2-336.7,149.9-505.1c21.4-72.6,71.1-105.1,144.7-90
	c26.7,5.5,53.4,15.7,77.2,28.9c55.2,30.7,73.8,81.7,52.5,141.3c-28.5,79.9-58.9,159.1-88.5,238.6c-68.2,183.3-136.7,366.5-204.5,550
	c-58.5,158.3-116.2,316.9-174,475.5C2694.2,1670.4,2690.9,1683.4,2686.4,1698z M642,2420.3c4,20,7.7,38.3,11.5,56.7
	c41.1,200,127.9,378.4,259,534.2c149.4,177.6,331.6,313.4,542.3,410.3c128.4,59.1,264.3,92.5,404.4,109
	c155.7,18.4,311,15.2,465.8-10c105.5-17.2,208.4-44.1,306.3-86.9c142.6-62.4,275.3-141.5,395.1-241.7
	c232.8-194.8,382.4-439.4,443.9-737.2c1.7-8.1,2.5-16.3,4.3-28.4c-11,3.1-18.4,4.4-25.3,7.1c-80.7,32-164.5,53.4-248.3,74.6
	c-127.6,32.3-256.7,56.6-387.2,74c-127.9,17-256.1,30.9-384.8,38.3c-173.8,9.9-347.7,13.9-521.9,8.2
	c-237.4-7.7-473.6-26.5-708.1-64.2c-127.4-20.5-253.6-46.9-377.4-83.7C762.9,2463.1,705.4,2441.7,642,2420.3z M3493.9,2227.7
	c-13.2,4.6-21.8,7.5-30.5,10.6c-61.1,21.8-121.1,47.5-183.4,64.6c-154.4,42.3-311.4,73.8-470.3,93.9
	c-81.5,10.3-163.2,20.3-245.2,26.3c-100.1,7.3-200.5,11.7-300.9,14.6c-271.2,7.8-541.8-1.2-811.9-27.8
	c-157-15.4-312.3-40.3-466.3-74c-116.1-25.4-229.8-58.1-339-105.4c-5-2.2-10.9-2.4-19.6-4.2c2,43.3,5.3,83.8,5.2,124.3
	c0,21.6,8.2,32.2,27.6,40.2c73.8,30.3,149.5,54.4,226.4,75.3c142.2,38.7,287,64.1,432.9,84.6c164.8,23.2,330.4,37.3,496.5,43.4
	c294.5,10.8,588.6,5.5,881.7-28.7c142.8-16.7,284.7-37.8,424.9-69.8c115.6-26.3,229.8-57.6,340.5-100.7c15.9-6.2,24.1-13.7,24-31.5
	c-0.1-19.8,2.7-39.7,3.8-59.6C3491.6,2279.9,3492.6,2256,3493.9,2227.7z M3489.2,2083.3c-28.4,18-51.7,36.8-78.1,48.6
	c-41,18.3-83.3,34.7-126.5,46.8c-120.9,33.7-243.1,62.9-367.8,77.9c-133.1,16.1-266.4,32.7-400.2,41.2
	c-158.1,10-316.6,14.2-475,16.1c-153.3,1.8-306.5-5.5-459.2-19.2c-104.3-9.3-208.6-19.3-312.5-32.2
	c-144.4-17.9-287.5-43.5-427.6-83.7c-71.8-20.6-142.6-43.3-201.2-92.7c-1.7-1.5-4.6-1.6-11-3.6c-0.8,33.2-2.1,64.8-1.9,96.5
	c0,4.1,6.6,9.9,11.3,12c34.9,15.2,69.5,31.4,105.4,43.9c104.8,36.4,212.1,63.9,320.9,85.5c149.6,29.7,300.2,52.4,452.4,63.3
	c122.6,8.8,245.2,18.9,368,23c232.1,7.7,464,2.4,695.6-17.4c148.5-12.7,296.1-31,442.3-59.3c115.5-22.4,230.5-47.4,341.8-86.9
	c37.5-13.3,74.3-28.5,111.4-42.8c8.3-3.2,16.2-6.6,15.8-17.7C3491.8,2149.9,3490.6,2117.3,3489.2,2083.3z M2675.8,3450.4
	c-411.9,163.9-821,161.9-1232.6,2c-1.4,11.5-2.7,20.7-3.6,29.9c-2.4,24.1-4.3,48.3-7.2,72.3c-3.2,26.6-3.9,27.1,20.6,39.1
	c64.1,31.3,131.8,52.2,201.3,67.2c115.4,24.9,232.5,34.9,350.4,38c162.4,4.3,323.3-8.3,482.1-44c61.8-13.9,121.4-34.6,178-63.3
	c24.6-12.4,24.4-13,21.7-39.8c-2.6-25.8-4.5-51.7-7-77.5C2678.8,3467.7,2677.4,3461.1,2675.8,3450.4z M2832.5,753.5
	c-117.9,391.9-234.5,779.8-351.2,1167.4c40.4,15.4,44.1,14.5,56.7-20.5c21.1-58.6,40.3-117.9,61.9-176.3
	c110.8-300.3,222.1-600.4,333.2-900.6c3.8-10.2,6.5-20.9,10.5-34C2905.9,777.4,2870.8,766,2832.5,753.5z M2720.7,1828.2
	c29.1-8.3,56.4-15.4,83.2-24.1c5.6-1.8,10-9.1,13.6-14.7c17.4-27.8,33.1-56.9,51.7-83.9c73.7-106.9,147.7-213.5,222.5-319.6
	c83.3-118.1,167.5-235.5,251.3-353.2c10.4-14.6,20.9-29.2,32.4-45.3c-30-21.2-58.1-41.2-86.4-61c-2.7-1.9-6.1-2.6-8.8-3.8
	C3258.2,944,2728.3,1800,2720.7,1828.2z M907.7,2163.6c2.7-2.1,4.6-2.9,5.3-4.3c2.6-5.4,5-10.9,7.3-16.5
	c24.5-59.7,56.6-114.4,101.7-161.5c97.6-101.9,216.8-154.8,357.5-148.8c141.5,6,260.9,62.2,350.2,175.7c3.6,4.5,11.8,9.5,16.5,8.4
	c20.7-4.9,40.9-11.9,61-18.1c-0.9-4.2-0.8-6.1-1.7-7.5c-2.8-4.4-5.9-8.6-9-12.7c-76.6-101.8-177.4-168.8-299.5-202.8
	c-116.5-32.5-232.5-26.8-342.8,22.4c-148.7,66.5-249.1,180.2-305.5,332.8c-1.7,4.6-1.6,9.8-2.5,15.1c4,2,6.9,4,10.1,4.8
	C873.7,2155.3,891.2,2159.5,907.7,2163.6z M1705.1,2036.1c-76.6-118.9-262.3-210.1-447.5-160.4c-147.6,39.6-309.6,195.5-307.1,298.9
	c20.9,4.4,42.3,9,61.9,13.2c3.8-4.4,5.2-5.5,6-7c1.3-2.2,2.4-4.6,3.5-7c48.5-108.4,126.6-184.5,241.7-219.3
	c76.7-23.2,153.2-25.9,228.4,7.2c52.7,23.2,102.2,51.3,138.9,97.3c6.6,8.3,13.7,13.7,24.2,7.5
	C1671.8,2056.6,1688.4,2046.3,1705.1,2036.1z M2334.7,2277.7c-49.3-117.6-200.5-260-419.4-261.6c-99.3-0.7-189.6,34.9-269.6,94.7
	c-48.5,36.2-108.6,108.8-119.6,147.4c18.2,1.8,35.9,3.4,53.5,5.4c13.6,1.5,22.2-4.7,30.6-15c16.4-20.1,33.1-40.2,52-57.7
	c101.5-94.2,220.9-127.3,354.9-92.8c97.5,25.1,179.3,76.6,231.5,167.1c3.5,6,10.6,13.8,16.3,14.1
	C2286.9,2280.2,2309,2278.5,2334.7,2277.7z M3332.5,2123.4c-73.2-150.8-189.9-244.3-349.8-282.6c-130.5-31.3-344.9,24.1-414.9,104
	c1,1.3,1.7,3.3,3,3.9c13.3,6.2,27.2,11.2,40,18.3c15.3,8.5,28.4,9.2,42.4-3c8.3-7.3,18.7-12.5,28.7-17.5
	c116.9-59,236.8-58.7,357.1-13.8c88.7,33.1,156.6,93.7,208.4,172.5c8.5,12.9,16.6,26.1,24.7,38.9
	C3294.3,2144.6,3312.1,2137.1,3332.5,2123.4z M2871.4,625.2c41.6,14.7,80.2,28.4,120.4,42.5c4.8-11.7,8.7-20.3,11.9-29
	c19.2-51.8,38.4-103.6,57.4-155.5c14-38.1,28.5-76,41.4-114.4c9.4-28.2,5.2-38.4-18.3-55.5c-25.5-18.5-54.3-25.4-85.5-24.3
	c-20.6,0.7-34.4,8.9-39.4,30c-2.6,10.9-6.9,21.3-10.1,32.1c-23.3,79.5-46.6,159.1-69.7,238.7
	C2876.4,600.5,2874.5,611.4,2871.4,625.2z M3450.1,878.6c6.5-7.4,11.9-12.8,16.3-18.9c49.8-68.7,99.4-137.5,149-206.4
	c9.1-12.6,17.7-25.6,26.4-38.5c6.5-9.6,6-19.1,0.8-29.3c-16.8-32.5-42.4-54.5-77.6-64.3c-28.4-8-38.9-4.2-54.5,20.8
	c-51.4,82.2-102.4,164.7-153.3,247.2c-3.4,5.5-4.7,12.3-7.1,18.6C3383.6,831.5,3415.3,853.9,3450.1,878.6z M2837.2,2236.3
	c-13.4-22.7-23-39.7-33.3-56.3c-27.9-45.3-61.4-85.9-101.2-121c-82.9-73.1-182.8-104.9-290.5-110.7c-89.5-4.8-175.5,14.9-255,58.3
	c-10.1,5.5-19.2,13.1-29.1,20.1c38.8,37.5,54.7,40.9,98.4,22.8c4-1.7,7.9-3.6,12-5c50-17.5,100.6-31.3,154.4-29.1
	c9.2,0.4,20.4-4.3,27.8-10.2c10.9-8.6,20-10.1,33-5.1c63.2,24.3,124.7,51.6,180,91.2c51.8,37.2,99.1,78.4,124.7,139.1
	c1.6,3.8,4.6,7.1,8.2,12.7C2787.4,2241.2,2808.6,2239.1,2837.2,2236.3z M1639.6,2259.9c5.9,3.8,7.2,5.3,8.7,5.5
	c15.4,2.1,30.9,3.6,46.2,6.1c17.6,2.9,31-2.8,44.6-14.5c61.4-52.8,133.8-75,213.8-67.8c65.7,5.9,123.1,32.5,169.5,80.8
	c5.5,5.7,14.2,11.8,21.4,11.9c23.7,0.2,47.3-2.4,76.2-4.3c-72.2-98.3-163.8-153.1-279.8-159.5
	C1816.9,2111.3,1719,2164.7,1639.6,2259.9z M3236.5,2157.2c-106.2-226.2-399.3-283.7-565.1-161.1c13.8,11,28,21,40.6,32.7
	c11.4,10.5,22.1,9.4,35.7,5.1c27.9-8.9,56.1-17.4,84.8-22.8c17.9-3.4,32-9.7,45.1-22.4c14.8-14.3,31.8-26.5,48.6-38.6
	c10.4-7.5,21.3-6.6,29.8,4.2c9.7,12.2,20.4,23.7,28.6,36.8c19.2,31,45,54,76.9,71.6c36.8,20.3,68.9,46.4,89.9,84.1
	c5,8.9,9.6,18,14.8,27.6c6.9-1,12.9-1.3,18.6-2.8C3201.4,2167.2,3217.9,2162.4,3236.5,2157.2z M2292.1,1925.3
	c-8.9-25.8-21.5-41.8-37.6-55.1c-16.6-13.8-33.9-26.8-51.4-39.5c-124-90.1-319.1-78-433.7,45.2c-3.9,4.2-6.8,9.4-10.9,15.3
	c10.5,11.6,20.2,22.4,31.2,34.4c8.3-5.5,15.5-10,22.3-14.9c14.7-10.6,28.8-22.2,43.9-32.2c38.7-25.4,79.8-45.1,127-48.4
	c95.2-6.8,177,22.1,244.2,90.9c5.6,5.7,14.1,12.2,21.2,12.2C2261.6,1933.1,2274.9,1928.7,2292.1,1925.3z M808.9,2136.5
	c12.9-28.6,23.1-54.2,35.6-78.6c13-25.3,27-50.2,42.5-74c14.8-22.7,32.1-43.7,50.6-68.5c-9.9,0.7-15.2,0.4-20,1.6
	c-78.7,20.2-155.6,45.6-227.4,84.4c-11.2,6.1-21.7,14.2-31,23.1c-12.3,11.8-12.1,17.8-1.1,31c4.9,5.9,10.7,11.3,16.8,16.1
	C714.1,2102.5,760.7,2118.1,808.9,2136.5z M1122.4,2209c17.9-26.6,31.6-50.8,48.9-71.9c26.8-32.8,60-57.7,98-77.9
	c37.2-19.7,64.1-53.1,92.6-84.6c-70-3.1-133.7,17.6-189.3,55.8c-57.1,39.1-96.5,94.7-121.8,164.3
	C1077.3,2199.9,1100.5,2204.6,1122.4,2209z M1539.8,1759.5c27.2,10,49.8,17.7,75.5,16.4c81.3-4.2,162.6-6.9,243.8-11.3
	c19.7-1.1,39.5-4.7,58.7-9.6c62.5-16.2,124.5-16.2,187.4-1.6c29.2,6.8,59.7,9.3,89.8,10.8c50.1,2.5,100.3,2.7,150.5,3.8
	c32.9,0.8,65.8,1.7,98.7,2.3c10.1,0.2,21.3,1.1,23.2-16.8c-7.4-1.7-14.4-4.1-21.6-4.7C2202.4,1725.9,1628.8,1731.9,1539.8,1759.5z
	 M2213.2,1796.8c5.2,7.7,6.1,10.6,8,11.7c42.7,24.5,78.9,55.4,102.3,99.8c2.4,4.5,9.3,9.4,14,9.3c29.9-0.5,59.7-2.4,89-3.8
	c8.7-37.2,16.7-71.2,25.3-107.5C2372.4,1799.9,2295.4,1796.8,2213.2,1796.8z M3234.3,1930.4c-1.1,2.1-2.2,4.2-3.3,6.2
	c11.2,11.6,22.9,22.8,33.6,34.9c33.8,38.2,64.1,79.1,88.8,123.9c10.1,18.3,14,21.4,27.5,14.3c28.1-14.9,55.6-31.2,82-48.8
	c12.6-8.4,11.7-17.3,0.2-27.8c-8.9-8.1-18.9-15.1-28.9-21.8c-39.8-26.7-83.9-44.1-129.1-59.1
	C3281.7,1944.5,3257.9,1937.7,3234.3,1930.4z M2083.6,2282.2c-71.5-77.7-253.2-81-308.2-6.2
	C1878.1,2280.5,1978.4,2283.5,2083.6,2282.2z M1335.6,2163c-27.1-19.5-47.4-44.4-63.7-74.7c-48.7,33-88.9,69.6-110.7,127.4
	c23.6,3.9,44,7.1,64.2,10.6c12.2,2.1,21.2-2.3,29.7-11.2c8.9-9.2,19.1-17.6,30-24.4C1301.1,2180.8,1318,2172.5,1335.6,2163z
	 M2622.3,2257.2c-20.4-28.4-40-51.1-62.2-71.4c-5.3-4.8-17-6.9-24-4.7c-18.2,5.8-28.3-1.3-39.8-14.5c-15.7-18-38.3-24.3-60.9-29.8
	c-8.7,24.6-16.4,46.1-24.5,69.1c9.5,1.8,17,4,24.6,4.5c37.8,2.4,70.5,16,97.2,43.3c4,4.1,10,8.1,15.3,8.5
	C2571.2,2263.6,2594.3,2264.6,2622.3,2257.2z M1564.7,2143.3c13.4-13.1,28.7-26.8,42.3-42c3.2-3.6,2.5-12.7,0.5-18.2
	c-1.9-5.2-7.5-9.2-11.8-13.4c-31.2-30.1-64.4-57.5-104.8-74.4c-9.4-3.9-19.2-11.4-31.5-5c5.6,13.8,13.5,26.1,15.2,39.2
	c1.8,13.5-2.5,27.7-3.9,40C1500,2092.5,1530.3,2116.3,1564.7,2143.3z M1480.8,2250.6c2.3,0.2,4.5,0.4,6.8,0.6
	c13.9-22.4,28.2-44.7,41.7-67.3c5.6-9.4,3-18.9-4.3-26.1c-16.6-16.2-32.6-33.3-51.1-47.1c-21.1-15.8-33.2-14.7-53.7,1.6
	c-16.7,13.3-31.8,28.6-51.9,46.9C1429.3,2164.9,1462.1,2199.4,1480.8,2250.6z M1350.3,2137.1c12.9-13.1,23.3-24.2,34.3-34.7
	c17.4-16.7,35.1-33.1,52.8-49.6c10.5-9.8,11.7-20.8,3.6-32.4c-10.3-14.6-22.5-27.3-36.1-36.7c-35.7,32.5-69.3,63-104.2,94.7
	C1317.1,2098,1332.5,2116.1,1350.3,2137.1z M2438.6,2034.3c-6.9,12.4-13.9,23.1-19,34.7c-6.2,13.8-4.6,19.3,9.6,23.9
	c44.7,14.6,85,37.8,125.8,60.3c7,3.8,15.5,5,22.8,7.2c21.5-45.3,17.4-58-23-78.3c-4.6-2.3-9.4-4.4-14.2-6.4
	C2507.9,2062.4,2475.2,2049.2,2438.6,2034.3z M2756.8,2066.9c18.2,22.1,33.4,41.6,50.2,59.8c3.3,3.6,12.6,2.1,19.1,2.1
	c30.2,0.4,60.4,0.5,90.5,0.7c4.6,0,9.3,0,19.3,0c-22.9-28.6-42.4-53.6-62.8-77.7c-4-4.7-11.7-8.8-17.8-8.9
	C2822.2,2042.4,2791,2050.9,2756.8,2066.9z M2011.7,1859.3c13.5,17.9,26.8,36.3,41.1,54.1c4.1,5,10.4,9.7,16.6,11.3
	c26.5,6.9,48.6,21.5,70.1,37.6c5.7,4.2,14.8,8.6,20.6,6.8c15.1-4.6,29.3-12.4,43.9-19C2176.5,1896.8,2071.1,1848.9,2011.7,1859.3z
	 M2981.8,695.2c-40.8-14.8-78.3-28.4-115.2-41.7c-15.1,23.8-22.8,50.2-22,73.8c17.4,5.3,35.5,10.3,53.3,16.3
	c18.4,6.2,36.4,13.3,57.8,21.1C2965,740.1,2973,718.9,2981.8,695.2z M2610.2,2121.6c-4.7,9.7-7.8,18.7-13.2,26.3
	c-8.8,12.4-5.3,21.2,3.9,31.8c19.8,22.7,38.2,46.6,59.9,73.3c19.5-1.8,42.1-3.9,65.5-6.1C2712.7,2205.1,2664.5,2153.5,2610.2,2121.6
	z M3330.8,832c-10.5,17.4-20.1,32.3-28.8,47.9c-5.7,10.2-1.3,17,8.2,23.5c22.7,15.6,44.4,32.7,66.7,49c4,2.9,8.7,4.8,15.9,8.7
	c11.7-15.5,23.3-30.1,34.1-45.4c6.5-9.1,1.9-16-6.3-21.5c-20-13.5-40-27.1-59.9-40.8C3351.6,847,3342.8,840.5,3330.8,832z
	 M2988.7,2216.6c-23.6-47.4-112.2-71.5-156.8-52.1c11.3,22,22.5,43.8,34.3,66.8C2906.4,2226.5,2946.3,2221.7,2988.7,2216.6z
	 M2886.2,2018.8c24.9,33.7,47.6,64.6,72.4,98.2c17.1-14,31.4-25.7,46.6-38.2c-19.6-27.8-37.4-53.1-55.4-78.3
	c-3.4-4.8-8-8.7-14.5-15.6C2919.1,1996.2,2903.3,2007.1,2886.2,2018.8z M1931.5,1872.8c-6,1.2-11,1.6-15.5,3.3
	c-27.9,10.5-52.3,26.8-74.4,46.6c-27.9,24.9-28.4,32.2-4.3,61.7c1,1.2,3,1.5,8,3.8c16.4-12.3,33.2-27.4,52.3-38.5
	C1927.8,1932.1,1932.3,1905.1,1931.5,1872.8z M2363,2048.8c-47.8,5.7-94.8,11.6-139.4,42.3c17,15.2,30.6,28.2,45.1,39.9
	c4.1,3.3,11.7,5.5,16.7,4.2c17.5-4.5,34-9.9,43.1-29.2C2337.3,2087,2350.1,2069.7,2363,2048.8z M1440,2254.3c0.7-2.2,1.3-4.4,2-6.5
	c-16.7-28.1-37.1-51.3-73.7-51.9c-33.3-0.5-62,8.9-84.4,40.7C1338.3,2242.7,1389.1,2248.5,1440,2254.3z M1661.9,1806.9
	c-0.6,1.6-1.2,3.2-1.8,4.8c16.8,13.2,33.4,26.6,50.4,39.6c17.5,13.4,19.7,13.3,37.9-1.1c17.5-13.9,35-27.9,52.2-42.2
	c2.8-2.3,4.3-6,8.6-12.2C1757.4,1799.7,1709.7,1803.3,1661.9,1806.9z M3133.5,2183c-14.7-21.4-24.3-38.7-37.1-53.3
	c-16.8-19.2-27.2-17.5-38.4,5.1c-7.2,14.5-12.7,30-17.8,45.4c-1.9,5.8-0.8,12.6-1.2,22C3070.4,2195.8,3098.6,2190.1,3133.5,2183z
	 M2001.2,1975c31.7-22.9,34.2-34.2,15.1-62.6c-3.3-5-7-9.9-11.4-13.9c-8.6-8.1-17.1-18.5-31-11c-9,4.8-14.2,21.8-10.8,34.9
	c1.5,5.6,4.2,11.4,7.8,16C1980.3,1950.4,1990.4,1962,2001.2,1975z M2484,2266c0.3-2.9,0.5-5.8,0.8-8.6
	c-33.5-19.6-70.1-23.5-108.4-17.9c-8.3,1.2-18.5,4.1-16.7,15.7c1.7,10.5,6.5,21.1,19.6,20.2C2414.3,2272.7,2449.1,2269.1,2484,2266z
	 M2381.3,2085.7c-16.6,17.7-25.8,37.7-31.1,59.4c-3.5,14.4,6.6,31,19.5,35.1c10.6,3.4,16.9-2.2,26.3-18.8
	C2412,2133.3,2407.2,2109.4,2381.3,2085.7z M2023.6,1999.5c22.7,4.6,41.8,8.7,61,12.3c4.1,0.7,9.6,1,12.5-1.2
	c6.6-4.9,14.8-10.6,16.8-17.5c1.4-4.8-5.1-13.9-10.4-18.2c-31.3-25.4-51.4-22-73.1,11.3C2028.5,1989,2027.3,1992.2,2023.6,1999.5z
	 M1008,1848.8c-32.8-2.6-198.8,54.5-238.9,83.4c23.4-8.3,40.8-15.4,58.7-20.5c45.5-13.1,91.2-25.2,136.8-37.8
	C980.8,1869.3,998.1,1866.4,1008,1848.8z M3115.7,1853.5c17,17.9,39.4,23.4,61.5,29.4c33.3,9,66.9,17.2,100,27.2
	c27.2,8.3,53.8,18.7,80.6,28.2C3280.8,1899.1,3200.5,1869.8,3115.7,1853.5z M3011,2115.7c-14.8,11.5-28.7,22.2-44,34
	c11.7,10.5,22.8,20.4,37.6,33.8C3007.1,2157.6,3009,2137.3,3011,2115.7z M1907.2,1989.7c18.9-0.1,37.7,6.3,56.8-0.8
	C1950,1961.2,1931.1,1961.2,1907.2,1989.7z M2644.7,1824.4c-12.3-5.8-22-5.1-26.9,7.1c-4.9,12.3-8,25.3-11.9,38
	C2627.6,1860.4,2642.3,1847.6,2644.7,1824.4z M2312.5,2166c10.8,35.5,28.5,47.7,50.3,35.7C2343.9,2193.8,2336.9,2171.4,2312.5,2166z
	 M2641.6,1774c10,10.9,17.5,13.9,28.6,6.2C2663.4,1767.2,2655.5,1765.7,2641.6,1774z M3037.2,2109.9c12.3-2.3,18.2-4.9,15.8-13.8
	c-0.4-1.6-5.7-3.4-5.8-3.2C3044.1,2097.4,3041.5,2102.2,3037.2,2109.9z"/>
<path d="M2371.2,3079.2c-48.5-0.6-86.3-39.1-86.3-88.1c0-48.4,39.4-87.1,87.7-86.1c46.7,0.9,83.8,39.7,83.7,87.8
	C2456.4,3039.5,2416.7,3079.8,2371.2,3079.2z"/>
<path d="M1783.1,2989.3c0.6,48-36.3,86.6-83.6,87.7c-45,1-87.8-39.8-88.5-84.6c-0.8-46.7,40.5-89.3,86.4-89.1
	C1744.5,2903.4,1782.5,2941.6,1783.1,2989.3z"/>
<path d="M3300.5,2765.1c-2.8,6.6-4.8,12.3-7.5,17.7c-64.5,130-149.5,244.5-256.2,343c-66.4,61.4-140.3,112.4-217.2,159.3
	c-8,4.9-16.9,8.8-25.8,11.7c-2.9,1-9-1.7-10.6-4.4c-1.5-2.6-0.2-9.1,2.2-11.1c8.6-7.2,17.8-13.7,27.4-19.5
	c114-68.9,217.5-150.5,303.7-252.7c45.9-54.4,85.3-113.2,118.6-176.1c10.9-20.6,21.9-41.2,33.2-61.6c3.3-5.9,7-12.3,12.2-16.3
	c3-2.4,9.9-1.8,14-0.1C3297.6,2756.3,3298.7,2761.7,3300.5,2765.1z"/>
<path d="M1614.8,3219.8c-25.4,2-52.9-4.3-78.9-17.4c-42.7-21.5-45.5-66.2-4.9-91.9c33.7-21.4,71.9-24.7,110.1-19.1
	c20.9,3.1,41.7,10.7,61,19.7c17.7,8.2,31.4,22.9,30.7,44.4c-0.9,23.8-14.9,39.8-35.9,49.9
	C1672.1,3217.3,1645.6,3219.8,1614.8,3219.8z M1621.4,3192.5c10.1-1.2,25-1.4,39.1-5.2c12.2-3.3,24.2-9.3,34.8-16.4
	c13.2-9,12.8-19,1-29.8c-3.2-2.9-6.8-5.4-10.6-7.4c-45.6-23.1-91.5-23.7-136.8-0.1c-23.5,12.2-22.7,28.1,0.6,42
	C1570.2,3188,1593.2,3191,1621.4,3192.5z"/>
<path d="M2451.2,3219.9c-26.3,0.4-51.7-3.1-75.1-16.1c-19.3-10.7-33.2-25.3-32.6-48.9c0.6-23.1,13.6-39.7,33.9-48.1
	c51.5-21.4,103.7-24.6,155.4,0.1c6.9,3.3,13.6,7.7,19.5,12.6c24.4,20.1,25.4,47,3.1,69.5c-18.7,18.8-43,24.8-68,28.5
	C2475.5,3219.2,2463.3,3219.1,2451.2,3219.9z M2452.8,3192c29-1.1,54.8-4.4,77.6-18.5c18.5-11.4,18.7-23.4,1-35.9
	c-18.2-12.9-39.2-18.1-61-19.9c-30.1-2.4-58.9,3.5-84.7,19.1c-20.7,12.5-20.1,26.1,0.1,39.1
	C2407.1,3189.7,2431.4,3190.7,2452.8,3192z"/>
<path d="M2147.1,3040.6c24.2-2.5,31,2.1,28.7,21.1c-8.8,71.3-50.9,129.1-134.9,131.4c-81.8,2.2-143-50.7-149.5-127.7
	c-0.4-4.3-0.5-8.7,0-13c1.1-8.9,6.2-15.6,15.2-13.8c5.4,1.1,12,6.4,14.2,11.5c3.7,8.6,3.9,18.5,6.2,27.8
	c22,89.4,123.9,104.8,179.4,57.3c19.6-16.8,28.1-38.8,33.4-62.9C2142.3,3061.5,2144.8,3050.7,2147.1,3040.6z"/>
<path d="M1239.4,2042.3c4.3,4.4,8.5,8.8,15.2,15.6c-17.3,3.1-28.2,1.3-36.5-9.9c7.4-2.2,14.5-4.3,21.6-6.4L1239.4,2042.3z"/>
<path d="M1239.8,2041.6c-7.4-6.1-14.8-12.2-21.7-17.9c14.9-7.7,16.8-6.2,21.4,18.5C1239.4,2042.3,1239.8,2041.6,1239.8,2041.6z"/>
</svg>
