<?xml version="1.0" encoding="utf-8"?>
<!-- Generator: Adobe Illustrator 24.3.0, SVG Export Plug-In . SVG Version: 6.00 Build 0)  -->
<svg version="1.1" id="Layer_1" xmlns="http://www.w3.org/2000/svg" xmlns:xlink="http://www.w3.org/1999/xlink" x="0px" y="0px"
	 viewBox="0 0 4000 4000" style="enable-background:new 0 0 4000 4000;" xml:space="preserve">
<path d="M3514.9,2832.5c-38.9-4.5-78-8.2-116.7-13.8c-14.9-2.2-25.3,1.2-34.2,12.8c-63.9,83.7-152.1,133.1-246.6,173
	c-132.3,56-270.9,89.8-412.1,113.2c-220.2,36.4-441.9,45.7-664.8,38.8c-128.9-4-257.2-13.1-384.7-32.7
	c-128.4-19.8-255.3-46.4-378.3-89c-91.7-31.8-180-70.5-256.5-131.6c-24.2-19.3-48.4-40.2-67-64.7c-16.2-21.3-32.6-24.2-56.7-21.7
	c-52.9,5.4-106.2,10-159.4,10.6c-53.7,0.6-106-11.2-155.2-33.5c-109.3-49.7-170.2-136.9-184.6-253.9
	c-18.6-151.1,38.5-275.5,146.2-379.2c8.7-8.4,17.6-16.6,27.1-24c48.4-37.7,66.5-89.1,67.2-148.4c0.5-40.3-1.3-80.7,1.6-120.7
	c8.6-117.1,53.2-218,141.7-297.3c40.2-36,87.1-61.4,136.2-82.6c35.1-15.1,70.8-28.8,106.5-42.3c40.9-15.4,69-42.7,86.5-83.1
	c16-36.9,33.1-73.5,53.1-108.3c64.9-113.3,159.2-187.4,289.6-211.7c61.2-11.4,122.2-6.4,183.3,0.7c23,2.7,46.1,4.3,69.2,5.1
	c44.3,1.5,82.7-13.4,116-42.6c34.1-29.8,67.5-60.6,103.5-87.9c150.5-114,349-113.3,498.7,1.5c29.5,22.6,57.6,47.2,84,73.4
	c42,41.7,91,59.6,150,56.5c58.2-3,116.9-6.4,174.9-2.3c107.9,7.8,202.8,48.8,279.2,127.2c41.4,42.5,67.5,94.7,88.5,149.6
	c5,13.1,10.2,26.3,14,39.9c14.7,52.2,49.1,85.7,97.3,108.3c45.4,21.4,91.4,42.5,134,68.8c150.9,93.1,223.5,231.9,230.7,406.9
	c1,25.1,1.2,50.3,0.4,75.5c-1.7,49.2,15.6,90.6,49.4,125.5c34.5,35.5,65.7,73.5,89.8,117c56.7,102.6,77.2,210.9,49.2,326.2
	c-27.9,115.1-101.6,186.5-213.6,220.6C3607.6,2826,3561.7,2830.5,3514.9,2832.5z M2119.2,1414.8c-1.5,12.4-3.2,23.1-4.1,33.9
	c-1.5,18-1.3,36.3-4,54.2c-24.3,159.4-82.2,306.3-166.2,443.4c-3.7,6-6.8,13.4-12.2,16.9c-5.8,3.7-14.9,6.3-21.2,4.5
	c-9.9-2.9-8.4-12.1-4.4-20c2.3-4.5,4.7-8.9,7.1-13.3c23.4-44.5,48.5-88.2,69.8-133.6c42.7-91.5,74-187,89.6-287
	c5.2-33.2,11.5-66.9,7.9-103.5c-31.1-4.9-60.3-9.5-87.1-13.7c-16.4,35-29,66.9-45.7,96.3c-77.9,137.1-190.9,240.1-321,325.9
	c-19.6,12.9-27.8,13.4-33.6,2.8c-9.4-17,5.6-23,15.5-30.6c39-30.1,79.6-58.3,117-90.4c93.2-80.1,173.7-170.6,220.2-286.9
	c3.5-8.9,6.3-18,10.1-29.1c-27.5-9.4-51.8-17.7-77.2-26.4c-34.3,66.3-90.8,106.6-150,143.5c-33.3,20.8-67.7,39.7-101.8,59.1
	c-111.8,63.8-225.6,124.4-327.3,204.5c-116.3,91.6-219.7,194.8-294.3,324.3c-73,126.6-114.8,261.4-106.3,408.8
	c9,157.5,74.7,283.6,209.1,371.3c69.8,45.5,145.8,76.7,224.6,101.6c195.9,61.9,397.4,92.4,602,103.5c170,9.2,340,9.3,509.8-4.5
	c143.5-11.7,286-30.4,425.4-67.6c108-28.9,214.3-62,311.5-119.8c145.4-86.4,218.9-214.3,224.3-382.4c4.3-136.8-34.4-262.4-101.3-380
	c-99.6-174.9-235.8-318.2-392.8-441.6c-81.3-63.9-168.6-120.4-253.2-180.1c-61.4-43.4-129.1-79-175.1-141.6
	c-3.4-4.6-13.2-9.2-17.7-7.6c-23.8,9-48.6,17-67.9,35.5c4.1,7,6.4,11.4,9.2,15.6c51.6,77.5,114.2,145.6,182.4,208.5
	c58.4,53.9,117.4,107.2,175.9,160.9c18,16.5,20.2,24.6,10.8,34.3c-8.3,8.6-16.3,6.5-33.3-8.8c-47.8-43.2-95.9-86-143.2-129.7
	c-57.7-53.2-116.8-105.1-163.6-168.8c-19.6-26.7-37.6-54.6-56.4-82c-6.7-9.8-11.8-22.9-26.9-20.1c-24.3,4.4-48.9,8.3-73.6,19.9
	c4.3,14.7,8.6,27.8,12,41.3c39.6,156.9,99.1,306,172.7,449.8c7.8,15.2,15.3,30.7,21.1,46.7c1.8,4.9-0.6,15.1-4.5,17.5
	c-4.6,2.9-14,2-19-1c-5.4-3.3-8.8-10.6-12.1-16.8c-7.6-14.2-14.7-28.6-22-43c-73.6-144.9-130.8-296.1-173.5-452.8
	c-3.9-14.2-6.9-28.6-10.1-41.7C2201.4,1414.8,2161.4,1414.8,2119.2,1414.8z M3386.5,2734.9c74.1,13.6,144.1,22.6,214.1,7.4
	c115.9-25.3,192.4-89.4,199.6-236.1c3.8-78.3-18.4-149.8-59.8-214.6c-23.7-37.1-52.6-71.1-81.4-104.6c-39-45.4-61.5-96.2-61.3-156.5
	c0.1-28.2,0.9-56.4-0.2-84.5c-5.4-135.1-57.2-246.6-172.9-321.2c-49.6-32-103.7-57.4-156.6-84c-54.8-27.5-93.7-68.4-115.8-125.4
	c-8-20.6-15.8-41.4-23.5-62.1c-36.7-98.6-101.7-170.4-200.8-208.2c-53.3-20.3-109.1-27.3-166.1-23.4c-40.2,2.7-80.3,6.3-120.5,7.4
	c-54,1.5-103.4-13.8-146.3-47.5c-16.6-13-32.4-27.1-48.4-40.9c-19.1-16.4-37.1-34.1-57-49.4c-70.1-53.7-147.9-84.7-238.2-77.7
	c-54.4,4.2-105.2,20.9-150,50.5c-41.7,27.6-81.8,58.9-118.2,93.2c-61.8,58.1-133.5,79.1-216.2,69.7c-37-4.2-74-8.6-111.1-10.7
	c-143.7-8.2-270.3,66.4-333.3,195.7c-14.1,28.9-28,58-40.4,87.7c-25.9,62-68.4,105.8-133.2,126.6c-28.7,9.2-57.5,18.4-85.7,29
	c-144.5,54.1-229.5,155.1-241.7,311.6c-3.1,39.1-2.6,78.4-3.4,117.7c-1.6,83.6-29.8,155.3-92.9,211.9
	c-11.2,10.1-22.5,20.2-33.5,30.4c-80.8,74.7-121,166.5-116.5,277c4.8,119.6,80.7,209.5,197.3,235.1c60.1,13.2,120.2,7.9,180.2,1.6
	c21.7-2.3,43.1-7.3,68-11.6c-4.3-13.1-7.1-23.5-11.1-33.4c-59.9-147.3-59.3-295.8-9.4-445.4c3.3-10,5-20.5,7.7-31.6
	c-45.5-19.4-88-37.5-130.5-55.7c-9.5-4.1-20-8.5-15.8-21.5c4.3-13.3,14.4-15,26.7-9.7c16.6,7.2,33.4,13.9,50.2,20.7
	c26.7,10.8,53.5,21.5,82.8,33.2c42.8-94.3,91.5-180.8,156-257.4c64.2-76.3,137.9-142.6,218.7-204.9c-10.8-10.3-19.1-17.3-26.4-25.3
	c-29.9-32.6-59.6-65.3-88.9-98.3c-5.9-6.7-10.5-14.8-14.4-22.9c-4.4-9-3.8-17.5,6.4-23.1c8.8-4.9,15.6-2.2,21.1,4.9
	c8,10.3,15.6,21,23.4,31.5c31.5,42.2,68.2,78.8,112.9,108.3c7-4,13.1-7.1,18.9-10.9c47.4-30.4,93.9-62.2,142.3-91
	c79.5-47.4,161.3-91,239.8-139.8c34.6-21.5,64.6-50.9,94.7-78.9c20.6-19.3,26.1-42,10.8-70.6c-14.6-27.2-22.3-58-32.8-87.3
	c-3.3-9.1-4.6-18.3,7.3-22.2c11.9-3.9,19,1.7,23.2,12.8c6.9,17.8,14.6,35.3,21.1,53.3c14.5,40,43.2,63.4,82.6,77.5
	c98.5,35.5,200.1,44.6,303.4,35.5c61.2-5.4,120.6-20,177-46.7c34.3-16.3,53.6-40,57.7-77.7c2.6-24,7.7-47.6,11.4-71.5
	c1.9-12.3,9.1-18.1,20.8-16.2c11.5,1.9,12.8,11.3,11.5,21c-1.1,9-2.8,17.9-4.1,26.9c-3,20.9-4.4,42.2-9.2,62.7
	c-9.5,40.8,7.2,71,37.1,95.2c31.2,25.3,63.5,49.4,96.2,72.8c99,70.8,198.4,140.9,297.5,211.6c12.9,9.2,24.7,20,38.5,31.3
	c8.1-6.2,16.2-10.7,22-17.1c28.4-31.3,56.1-63.1,84.1-94.8c6-6.8,10.8-15.2,18.2-19.7c4.4-2.7,13.9-1.2,18.7,2
	c3.1,2,3.2,10.8,2.2,16.1c-0.8,4.6-4.8,8.7-7.8,12.7c-17.2,22.3-34,44.9-51.9,66.7c-16.4,20-33.9,39.1-53.2,61.1
	c151.1,135.9,282.2,285.4,368.5,469.8c11.5-4.2,19.1-6.7,26.4-9.7c31.6-13,63-26.5,94.7-39.3c23.8-9.6,37.1-8.3,39.1,4.1
	c2.9,18.3-14.5,18.6-24.9,24.9c-0.8,0.5-1.9,0.7-2.8,1.1c-26.5,12.1-53,24.2-79.5,36.4c-39.9,18.4-40.1,14-24.4,60.2
	c50.9,149.5,50.5,298.2-9.2,445.6C3392.3,2714.1,3390.3,2722.7,3386.5,2734.9z"/>
<path d="M1921.1,2414.1c0.5,55.1-41,96.8-96.7,97.1c-52.3,0.3-92.9-40.8-92.9-94c0-53.9,40.9-96.5,93.7-97.5
	C1878.9,2318.7,1920.5,2359.7,1921.1,2414.1z"/>
<path d="M2617,2418.4c-2.2,55.9-46.1,97.3-100.3,94.4c-52.4-2.8-92.4-48.5-89.5-102.1c2.7-50,48.2-91.4,99.4-90.1
	C2577,2321.9,2619,2367.3,2617,2418.4z"/>
<path d="M3256.5,2543.1c3-26,5.9-52,8.9-77.9c1.1-9,1.7-19.4,14.7-18.2c14.7,1.3,13.1,12.5,12.4,22.6c-0.1,2-0.3,4-0.6,6
	c-16.5,86.7-30,174.1-87.2,246.8c-56.7,72-127.7,124.5-211.1,161.4c-98.4,43.4-202.1,66.6-307.8,82.4c-6.9,1-14.2,1.8-21,0.8
	c-4-0.6-9.9-4.7-10.5-8c-0.7-3.7,2.7-10.5,6.1-12.1c7.1-3.2,15.4-4.2,23.2-5.5c93.4-15.4,185.9-34.4,273.9-70.8
	c83.9-34.7,160.6-80.4,216.1-154c22.2-29.4,38.3-63.5,56.4-95.8c7.3-13.1,12.9-27.2,18.6-41.2c4.6-11.4,8-23.2,11.9-34.9
	C3259.2,2544,3257.9,2543.5,3256.5,2543.1z"/>
<path d="M998,2506.2c0-16.2-1.1-27.5,0.5-38.3c0.7-4.4,7-10.9,11.1-11.1c4.4-0.3,11.8,4.8,13.2,9c2.7,8.4,2.2,17.8,2.9,26.8
	c7.8,100.9,43,189.8,116.4,261.2c47.5,46.2,103.1,80.6,164.7,104c46.9,17.8,95.6,30.8,143.4,46.1c11.7,3.8,31.1,3.1,27.8,20.5
	c-3.7,20.1-21.6,8.8-32.5,6.3c-90.6-21.1-177.9-51.2-256.1-103.1C1072.7,2750.2,1012.7,2638.9,998,2506.2z"/>
<path d="M1742.9,2669.6c-44.1-1.5-76.2-5.5-103.8-24c-11.2-7.5-21.3-18.3-28.3-29.9c-10.4-17.1-8-35.5,6.5-49.7
	c9.1-8.9,19.8-17.6,31.4-22.4c54.4-22.7,109.5-22.1,163.8,0.7c23.9,10,44.8,24.4,45.3,54.3c0.4,25-17.7,47.5-49.8,57.3
	C1783.3,2663.6,1757.3,2666.8,1742.9,2669.6z M1628,2596.6c18.1,13,28.1,23.8,40.3,28.2c44.9,16.3,90.3,17.9,134.5-3
	c9.6-4.6,23.5-9.4,20.4-22.4c-2.2-9.2-11.8-17.4-19.6-24.4c-4.9-4.5-12.2-7.2-18.9-8.9c-37.7-9.7-75.7-11.5-112.5,2.6
	C1658.9,2573.8,1647.5,2584,1628,2596.6z"/>
<path d="M2624,2668.9c-41.5-1.8-71.1-7.1-97.3-23.9c-36.8-23.7-37.6-66.8-1.9-92.1c50.5-35.8,147.7-35.5,197.5,0.7
	c35.6,25.8,34.7,64.5-2.5,88.7c-9.1,6-19.4,11.5-29.9,13.9C2664.7,2662.1,2638.9,2666.1,2624,2668.9z M2620.4,2634.9
	c-0.1,0,6,0.2,12,0c25.5-1.2,49.9-6.8,71.4-21c17.3-11.4,17.4-22.6,1.6-35.8c-3.1-2.5-6.5-4.9-10.1-6.5
	c-51.3-22.6-102.1-18.4-150.9,6.3c-21.5,10.9-20.3,28.1,0.5,41.4C2566,2632.9,2589.8,2635.9,2620.4,2634.9z"/>
<path d="M2176,2618.1c-70.5-0.3-127-52.3-130-119.9c-0.4-8.7-3.3-19.7,8.6-22.8c13.4-3.5,20.1,4.6,23.4,17
	c2.6,9.6,5.9,19.2,9.7,28.4c15.5,38.3,48.7,60.6,88.6,59.7c41.8-0.9,73.7-24.7,87.3-65.7c3.5-10.4,4.9-21.8,9.6-31.5
	c2.4-4.9,10.7-10.5,15.5-9.8c5.2,0.8,9.8,8.1,13.8,13.3c1.5,1.9,0.9,5.9,0.5,8.8C2295.3,2552.2,2262.5,2619.8,2176,2618.1z"/>
<path d="M3553.9,1912.8c-5.8,5.8-10,13.4-15.7,14.9c-11.1,2.8-15.1-5.5-17.3-15.6c-5.9-27.4-9.5-55.8-19.4-81.8
	c-36.2-95.3-104.2-160.7-196.7-201.7c-6.4-2.8-13.2-4.9-19.3-8.4c-9.2-5.3-17.4-12.6-10.6-24.2c5.7-9.8,15.5-7.8,24.1-3.6
	c13.6,6.6,26.9,13.7,40.2,20.8c81.1,43.8,146.3,103.6,181.9,190.2C3535.1,1837.4,3542.6,1874.2,3553.9,1912.8z"/>
<path d="M3738.7,2505.7c-1-94.5-33.8-176-102.1-242.4c-7.8-7.6-15.4-15.7-21.7-24.6c-2.1-3-1.6-10.5,0.7-13.3
	c2.4-2.8,9.8-4.6,13-2.9c8.8,4.5,17.7,9.8,24.5,16.8c76.7,79.3,119.4,172.4,113.9,284.6c-0.4,7.9-1.1,16.3-3.9,23.6
	c-1.8,4.6-7.6,7.7-11.6,11.5c-4.3-4.7-11.5-9-12.3-14.2C3737.4,2531.9,3738.7,2518.7,3738.7,2505.7z"/>
<path d="M1645.4,1179.5c-29.1-3.5-51.9-6.9-74.9-9c-88.4-7.9-164.2,20.2-228.7,80.5c-5.9,5.5-11.3,12.1-18.2,15.6
	c-4.1,2.1-11.7,0.6-16-2.1c-2.2-1.4-2.6-10.3-0.4-13.3c7-9.7,14.7-19.3,23.7-27.1c57.2-49.9,123.2-79.8,199.8-80.9
	c35-0.5,70.1,4.3,105.1,6.8c2,0.1,4,0.5,5.9,1.1c8.2,2.8,20.5,3.7,16.9,16.1C1656.9,1173.5,1647.7,1177.6,1645.4,1179.5z"/>
<path d="M2758.2,1152.5c71.6-2.1,132.5,13.3,190.7,40.4c8.9,4.2,17.7,10.2,24,17.6c3.3,3.9,2.9,13.3,0.7,18.8
	c-1.1,2.6-10.4,3.2-15.7,2.5c-4.7-0.7-8.9-4.3-13.3-6.9c-63.7-38.1-133-49.4-206.1-42.9c-32,2.8-64.1,5.6-96.2,7.3
	c-11.3,0.6-27.8,3.5-28-14c-0.2-17.7,16.6-13.4,27.6-14.3C2682.9,1157.8,2724,1155,2758.2,1152.5z"/>
<path d="M1010.5,1579.8c7,15.8,5.3,23.6-4.9,28.3c-5.5,2.5-11.2,4.4-16.9,6.3c-89.9,30.6-149,92-180.3,180.9
	c-5.7,16.1-9.1,33-15.4,48.8c-1.9,4.8-9.9,7.1-15.1,10.6c-3.1-5.4-9.7-11.5-8.8-16.2c3.8-19.6,8.5-39.3,15.3-58
	c32.2-89.1,93.5-150.9,180.2-187.7C978.8,1586.6,994.6,1584.1,1010.5,1579.8z"/>
<path d="M648.3,2249.6c10.8,12.7,1.4,20.1-6.7,27.8c-27.1,25.8-50,54.7-67.7,87.9c-26.2,49.2-36.6,101.6-34.7,156.9
	c0.2,7,1.9,14.3,0.4,20.9c-1.1,4.7-6.2,11.4-10,11.8c-4.4,0.5-11.6-4-13.7-8.2c-3-5.9-3.1-13.6-3.5-20.5
	c-5.6-101.3,29.7-187,100.1-258.7C622,2257.8,632,2246.6,648.3,2249.6z"/>
<path d="M1883.1,1121.8c2.2-5.5,2.9-12,6.5-15.7c52.6-54.3,104.8-109.7,177.4-137.4c30.7-11.7,63.9-16.8,96-24.6
	c3.8-0.9,8.8-1.5,11.8,0.3c4.6,2.7,10.4,7.3,10.9,11.7c0.5,4.3-3.9,11-8,13.6c-4.7,2.9-11.6,3.3-17.5,3.3
	c-58.2,0.5-107.5,24.9-151.8,59.4c-30.8,24-58.8,51.7-87.8,78.1C1903.9,1125.8,1904.1,1126.1,1883.1,1121.8z"/>
</svg>
