<?xml version="1.0" encoding="utf-8"?>
<!-- Generator: Adobe Illustrator 24.3.0, SVG Export Plug-In . SVG Version: 6.00 Build 0)  -->
<svg version="1.1" id="Layer_1" xmlns="http://www.w3.org/2000/svg" xmlns:xlink="http://www.w3.org/1999/xlink" x="0px" y="0px"
	 viewBox="0 0 4000 4000" style="enable-background:new 0 0 4000 4000;" xml:space="preserve">
<path d="M1166.8,2115.4c133.8-554.4,416.5-1018,828.1-1405.7c-1.2-1.7-2.5-3.4-3.7-5.1c-10.4,1.3-20.9,2.3-31.2,4
	c-202.6,33.2-383.5-18.9-546.8-139.5c-12.8-9.5-25.4-19.4-37.1-30.4c-21.3-20-22.4-36.8-0.1-55.5c29.8-25,61-48.5,93.1-70.4
	c115.2-78.4,242.7-121.6,382.2-121.9c160.1-0.3,304.1,50,429.5,150.3c16.5,13.2,30.1,19.5,50.9,10.7c29.9-12.7,58.8-6.7,85.1,11.8
	c8.9,6.3,17.7,13,25.6,20.6c40.7,39,46.6,66.1,24.2,117.8c-40.5,93.2-65.7,190.6-80.2,290.7c-16.1,111-19,222.8-10.6,334.7
	c19.6,261.5,94.5,507.4,210.6,741.4c19.9,40.1,42.8,78.6,65.7,120.5c13.3-5.9,25.1-10.6,36.3-16.2c59.8-29.8,117.3-65.7,179.6-88.6
	c202.8-74.5,386.7-33.3,551.1,102.8c101.5,84,162.8,195.7,208.7,316.5c56.9,149.5,73.4,304.6,54.3,462.6
	c-31.9,263.5-168.6,456.2-401.9,580.9c-107.6,57.5-223.8,89.7-342.7,113.8c-104.2,21.1-209.3,31.8-315.6,24.7
	c-231.1-15.3-423.6-106.5-567.9-291.2c-13.5-17.3-25.2-35.9-37.9-53.9c-5.6-8-11.4-15.8-19.9-27.6c-7,11.3-12.3,19.1-16.9,27.3
	c-74.2,133.3-176.5,238.6-311.4,311c-87.2,46.8-180.9,73.1-278.2,88.8c-126.6,20.5-252.8,14-379-2.2c-85.3-11-169.6-26.8-250.9-55.6
	c-226.3-80.4-383.7-231.2-465.5-458.4c-49-135.9-60.6-276.5-47.9-419.3c13.4-149.8,57.6-289.8,145.5-413.2
	c100.5-141,236.7-227.8,409.4-250c88-11.3,175.4-2,258.9,31.9C1093.7,2087.3,1127.3,2100,1166.8,2115.4z M1158.1,2201.8
	c-46.9-18.4-88.1-36.1-130.3-51c-127.9-45.1-253.3-38.7-374.1,23.9c-126.8,65.8-214.9,168.4-266.8,300
	c-79.6,201.8-82.3,407.3-14,612.6c67.8,203.6,206.6,339.6,407.1,413.4c69.5,25.6,141.5,41.1,214.9,51.6
	c140.2,19.9,280.1,25.2,420.1-1.4c149.5-28.4,279.2-93.9,383.9-205.5c89.3-95.3,146.6-207.8,177.5-334.6
	c39.3-161.5,42.7-322.2-9.4-481.4c-29.6-90.4-76.4-171.3-148.7-235.2c-80.3-70.9-173.5-111.7-281.4-104.9
	c-67.4,4.3-134.1,19.1-201.1,29.2c-10,1.5-16.5,7.1-18.2,17.1c-4.5,26-8.7,52-13.8,83c28.9-4.8,52.2-8.9,75.6-12.6
	c10.7-1.7,24.5-5.4,28.7,7.8c4.6,14.5-10,17.3-20,20.8c-114.1,39.9-221.9,27.8-322.5-40.1c-9.5-6.4-16.6-16.8-23.5-26.4
	c-1.8-2.6,0.3-9.5,2.7-13c1.4-2.1,7.7-2.8,10.6-1.5c9,4.1,17.3,9.9,26.2,14.3c18.2,8.9,34.7,22.8,59.8,22.6
	C1147.1,2260.4,1152.6,2231.4,1158.1,2201.8z M2562,2286.9c-13.3-24.8-24.9-44.3-34.4-64.8c-9.5-20.5-21.9-30.5-46.3-27.5
	c-22.6,2.8-45.9-0.4-68.8,0.2c-29.9,0.8-60.3-0.5-89.5,4.7c-130.9,23.2-228.5,94.1-294.1,209.8c-8.5,15-10.1,27.6-3.1,44.6
	c35.2,85.6,54.7,174.7,61,267.3c7.2,104.9-6.3,207.1-31.3,308.5c-6.4,25.8-17.9,53.2-14.1,77.9c3.9,25,22.8,48.2,36.9,71.1
	c125.6,204.9,311.5,308.1,548.8,323.7c101.3,6.6,201.1-4.6,300.4-24.7c116-23.5,228.5-56,332.8-113.7
	c172.1-95.2,283.9-236.7,325.9-429.6c38.4-176.3,22.5-349.4-41.3-517.9c-40.6-107.3-101.3-202-191.6-274.1
	c-152.5-121.8-319.1-148.8-498.1-64.1c-55.8,26.4-108.5,59.2-162.6,89.3c-2.2,1.2-3.1,4.8-5.5,8.6c15,21.8,30.1,43.7,45.4,66
	c5.3-1.8,9.3-2.5,12.6-4.3c13.1-7.2,26.1-14.6,39.1-22c6.9-4,13.4-9.4,20.8-11.7c4.8-1.5,13.1-0.2,15.8,3.1c2.7,3.3,2.6,12.2-0.1,16
	c-6.2,8.8-13.9,17-22.4,23.8c-78.3,62.8-168.3,84.1-266.8,73.5c-16.7-1.8-33.1-7.3-49.6-11.2c-9.7-2.3-18-8.4-14.8-18.4
	c1.6-5,11.6-9.1,18.4-10.2c7.6-1.3,15.7,1.5,23.7,2.2C2524.9,2284.2,2540.5,2285.3,2562,2286.9z M2455.8,2112.1
	c-27.9-57.4-54.3-108.7-78.1-161.2c-23.4-51.8-45.8-104.2-65.5-157.5c-20.1-54.2-38.4-109.3-53.6-165.1
	c-15.3-55.7-27.6-112.5-37.9-169.4c-10.4-56.9-19-114.3-24.2-171.9c-5.2-56.6-7.4-113.6-6.7-170.4c0.7-57.8,5-115.6,10.4-173.2
	c5.4-56.8,14.1-113.3,21.4-169.9c-142,117.7-272.4,243.3-385.5,386c-112.7,142.1-207.9,295.2-289.6,457
	c-74.9,148.4-190.1,464.5-184.1,510.6c39.2-5.8,78.3-12.7,117.7-17.3c158.4-18.6,296.1,26.2,410.5,137.9
	c27.5,26.9,51,57.9,79.6,90.7c51.9-78.3,119.6-140.1,205.9-179.8C2263.2,2118.5,2355.9,2109,2455.8,2112.1z M2665.8,2258.2
	c-3.1-5.8-5.9-11.9-9.5-17.6c-94.5-148.9-172.3-306.3-233-471.7c-69.5-189.5-112.8-384.5-122.7-587c-6-123.5,1.4-245.5,25.7-366.4
	c16.7-83.2,35.7-165.9,72.4-243.4c3.5-7.5,6.1-18.2,3.5-25.3c-9.4-25.4-38.6-32.1-60.8-15.5c-27.2,20.3-54.7,40.2-81.5,61
	c-56.1,43.4-114.1,84.5-167.2,131.3c-150.2,132.5-288.3,276.8-404.2,440.6c-61.1,86.3-120.2,174.4-173.6,265.6
	c-60,102.4-109.9,210.3-154.6,320.7c-69.5,171.9-117.5,349.8-155.5,530.8c-1.6,7.4-1.2,15.2-1.9,25.6c12.7,0.8,23,1.4,33.3,2
	c2.6-7.6,4.6-12.1,5.8-16.9c22.1-88,41.7-176.8,66.7-263.9c57.3-199.4,137.7-389.6,239.8-570.1c167.7-296.4,386.2-550,649.6-765.1
	c27.8-22.7,57.6-43,87-63.6c12.7-8.9,26.5-17.4,45.2-12.4c3.5,25.2-4.9,47.9-10.6,70.8c-46.6,186.2-69.8,374.2-52.6,566.8
	c20.1,224.1,75.8,438.1,167,643.4c54.8,123.4,121.2,240.7,188.5,357.5C2634.5,2276,2641.3,2276.5,2665.8,2258.2z M2218,532.6
	c-105.4-8.3-204.3-20-303.8-18.7c-99.3,1.3-198.6,6.4-297.8,9.8c-1.6-24,0-26.8,25.9-28.5c76.7-4.9,153.4-13.1,230.1-12.2
	c115.7,1.3,231.3,9.2,346.9,14.2c9.2,0.4,18.5-0.3,30.4-0.6c-59.1-81.7-277.5-158-417.7-149.1c-146.2,9.3-353.4,97.6-391.1,166.6
	C1683.5,709.5,2011.8,701.3,2218,532.6z"/>
<path d="M1585,2858.7c0.7,63-48.2,113.7-109.8,113.9c-59.1,0.1-111.4-53.1-111.9-113.9c-0.5-58.8,51.4-110.9,110.5-110.9
	C1532.4,2747.9,1584.4,2799.6,1585,2858.7z M1490.4,2787.6c-21.2,0.1-38.4,16.8-38.3,37.2c0.2,21.1,14.7,36.5,34.5,36.5
	c23.7,0,41-16.3,40.6-38.2C1527,2804.1,1509.8,2787.5,1490.4,2787.6z"/>
<path d="M895.4,2836.7c0.3,61.1-51.6,112.1-113.3,111.3c-58.1-0.7-108.3-54.1-107.9-114.6c0.5-60.3,49.1-109.1,108.6-108.9
	C845.8,2724.7,895.1,2773.8,895.4,2836.7z M796.6,2839.2c23.3-0.4,41.4-17.5,41.2-38.7c-0.2-20.8-18.1-37.3-39.3-36.2
	c-21.7,1.1-37.4,17.4-37.3,38.9C761.3,2824.1,776.5,2839.6,796.6,2839.2z"/>
<path d="M765.4,2222.1c42.1-0.1,68.1,17.4,75.3,42c7.2,24.7-5,53.8-29.4,69.4c-5.9,3.7-12,7.3-18.5,9.7
	c-59.6,22.5-105.7,62.9-146.6,110.3c-10.4,12.1-20.5,24.5-32,35.5c-19.9,18.9-47.1,21.9-68.8,8.9c-20.2-12-29.9-35.9-22.2-62.7
	c4.6-16,11.8-32,21.1-45.8c39.5-58.8,89.3-107.4,152-140.8C721.3,2235.3,749.6,2228,765.4,2222.1z M545.5,2446.1
	c5.6,8.5,10,18.5,17.3,25.3c9.5,8.9,21.6,5.3,29.9-2.5c14.4-13.6,27.6-28.6,40.5-43.7c38-44.3,80.7-82.4,135.7-104.6
	c9.2-3.7,17.8-8.8,26.5-13.7c12.4-7,19.3-17.1,16.1-32c-2.9-13.3-14.5-23.5-31.5-21.5c-19.4,2.3-39.7,6.3-57,14.8
	c-64.6,31.7-117.7,77.6-157.9,137.6C557.4,2417.1,552.9,2430.5,545.5,2446.1z"/>
<path d="M1587.6,2981.5c33.1,1.9,62.8,5.6,88.6,23.1c18,12.1,34.4,26.7,30.2,50.8c-4.1,23.3-19.3,39.2-42.5,45.6
	c-51.5,14.3-102.6,12.1-152.8-6.3c-4.7-1.7-9.2-4-13.4-6.6c-37.2-22.7-37.3-64.6,0.3-86.4
	C1526.5,2985.1,1558.5,2982.7,1587.6,2981.5z M1598.8,3085.3c19.9-4.3,39.3-8,58.4-13c10.7-2.8,23.4-8.6,20.5-21.5
	c-2-9.1-11.6-17.1-19.2-24.2c-4-3.8-10.7-5.2-16.4-6.9c-37.3-11-74.8-10.8-112.2-0.4c-6.6,1.8-13.1,5.1-18.9,8.8
	c-14.9,9.5-16.1,19.9-3.3,31c5.9,5.1,13.1,10,20.5,11.8C1551.3,3076.4,1574.8,3080.5,1598.8,3085.3z"/>
<path d="M664.8,3080c-25.7-5.4-52.3-9.3-77.7-17c-22.4-6.8-37.2-23.2-38.1-48.3c-0.8-22,13.7-42.3,39.3-50.8
	c53.8-17.9,107.5-18.6,160,5.9c20.2,9.5,35.6,23,33.4,47.8c-2.2,24.4-15.9,41.2-39.3,47.2C717.4,3071.1,691.8,3074.8,664.8,3080z
	 M664.4,3049.5c38.3-2.4,59.7-6.3,75.9-16.3c17.4-10.7,18.1-22.4,1.5-34.5c-6.4-4.6-13.6-8.8-21.1-11.1
	c-39.3-11.9-78.9-10.3-118,0.8c-12.8,3.7-24.7,11.3-24,26.9c0.6,14.2,13,20.5,24.2,23.4C623,3043.8,643.9,3046.1,664.4,3049.5z"/>
<path d="M1127.8,3072.9c-56.9-2.5-104.4-40.1-116.6-95c-2.5-11.4-2.9-23.9-1.3-35.4c0.7-4.8,8.7-10.4,14.4-11.8
	c3.3-0.8,10.5,5,12.5,9.4c3.9,9,5.2,19.1,8.1,28.6c12.7,41.5,42.6,66.2,81.1,67.5c38.7,1.3,67.1-18.9,83.7-59.3
	c3.8-9.2,6.1-19.4,11.8-27.2c3.9-5.3,12.5-10.4,18.8-10.1c10.9,0.5,13.8,10.7,12.7,20.1c-5.1,45.1-37.5,92-78.5,104.2
	C1159.3,3068.3,1143.4,3070,1127.8,3072.9z"/>
<path d="M534.9,2606.1c-1,17.3-8.5,35.3-23.3,50c-13.4,13.3-30,16-47.1,10.2c-17.9-6.1-26.2-20.6-27.4-39.1
	c-1.3-19.7,4.6-37.4,16.2-53.2c14.7-20,32.1-27,51.4-21C523.9,2559,535.6,2578.1,534.9,2606.1z M464,2621.5
	c2,3.2,4.8,13.2,11.1,16.6c9.9,5.3,18.8-1.3,25-10.5c9-13.4,12.3-34,4.5-42.1c-3.9-4-12.4-6.3-18.1-5.3
	C474.5,2582.6,464.6,2600.1,464,2621.5z"/>
<path d="M2536.8,2802.7c0.1,56.6-43.3,100.7-99.7,101.3c-54.7,0.6-103.8-47.6-103.3-102.6c0.4-45.5,29.9-101.8,98.4-102.2
	C2491.3,2698.8,2536.7,2743.3,2536.8,2802.7z M2477.7,2769.4c-0.4-18.6-13.8-33.5-30.5-33.9c-19.8-0.5-35.3,15.5-35.2,36.1
	c0.1,20.3,11.9,33.3,30,32.9C2464.2,2804.1,2478.2,2790.3,2477.7,2769.4z"/>
<path d="M3066.9,2855.3c-52.8,0.4-102.6-50.9-102.1-105.1c0.5-56.9,41.6-99.1,97.5-100c57.7-1,105.7,45.2,106.7,102.7
	C3169.9,2810.4,3125.6,2854.9,3066.9,2855.3z M3070.1,2753.6c21.7,0.3,37.8-13.8,38-33.2c0.2-18.7-15.5-34.4-33.9-34.1
	c-18.8,0.3-33.7,15.1-34.4,34.2C3039.1,2739.2,3052.1,2753.3,3070.1,2753.6z"/>
<path d="M2109.3,2630.1c11.4-94.2,46.4-177.1,115.4-243.7c21-20.2,46-35.2,75-41.8c29.5-6.6,52.6,1.5,65.9,22.7
	c14.4,23.1,13.1,54-4.9,75.5c-8.9,10.6-19.5,20.2-30.6,28.5c-55.2,41.4-91.4,93.8-99.9,163.9c-1.8,14.7-6.5,29.3-12.2,43.1
	c-9.7,23.7-30.2,36-54.1,34.8c-24.8-1.3-41.3-14.6-48.4-41.3C2112,2658.4,2111.3,2644.3,2109.3,2630.1z M2139.3,2628.3
	c1.1,10.6,1.1,18.7,3,26.3c3.2,13.1,9.3,25.4,24.4,26.8c15.6,1.5,23.4-10.3,27.7-22.9c5.5-16,9.7-32.5,13.1-49.1
	c13.8-67.7,49.6-121,104-162.7c9.5-7.3,18.8-14.9,27.3-23.3c9.6-9.6,9.7-21.7,4.3-33.4c-5-10.9-14.8-18-26.4-15.7
	c-14.3,2.8-29.8,6.4-41.5,14.4C2190,2446.9,2149.6,2530.4,2139.3,2628.3z"/>
<path d="M2336.9,3036.7c-22-5.5-45.3-7.9-65.6-17.1c-39.4-17.9-41.1-58.8-3.8-80.9c49.4-29.3,101.9-30,155.1-10.4
	c18,6.7,30.4,18.5,31.2,39.3c0.9,21.2-8.7,36.5-26.6,46.5c-23.1,12.9-48.6,16.8-74.5,18.9c-4.9,0.4-9.9,0.1-14.9,0.1
	C2337.5,3034.3,2337.2,3035.5,2336.9,3036.7z M2333.9,3007c0.1-0.8,0.2-1.5,0.4-2.3c5,0,10,0.4,15-0.1c22.9-1.9,46-3.6,65.8-17
	c16.7-11.4,16.3-24.4-1.1-34.2c-6-3.4-13-6.6-19.6-6.8c-26.8-0.7-53.7-1.4-80.4,0.4c-10.3,0.7-21.2,6.5-29.9,12.7
	c-6.5,4.7-14,14.1-13.5,20.8c0.5,6.4,9.8,15,16.9,17.4C2302.3,3002.8,2318.3,3004.2,2333.9,3007z"/>
<path d="M3180.5,2970.2c-24.4,1.1-47.6-2.6-69.3-15c-17.4-10-24.7-25.5-25.5-44.5c-0.8-19.2,12.6-28.3,27.3-35.7
	c44.6-22.2,91.3-28.5,139.4-14.5c31.2,9.1,45.8,25.8,46.1,48.1c0.3,22.9-16.7,41.6-47.2,51.1c-10.4,3.3-21.2,6.1-32,7.7
	C3206.5,2969.2,3193.5,2969.3,3180.5,2970.2z M3183.2,2944.8c0.1-0.7,0.3-1.5,0.4-2.2c4-0.2,8-0.5,11.9-0.7
	c21.8-1.6,43.9-2,63.2-14.6c17-11.1,17.8-26.8,0.8-37.7c-7.3-4.7-16.4-9-24.8-9.2c-21.7-0.6-43.7-0.3-65.2,2.6
	c-14.4,1.9-29,7.3-41.9,14.1c-6.7,3.6-14.2,13.8-13.7,20.6c0.4,6.4,9.8,15.3,16.9,17.5C3147.7,2940.1,3165.6,2941.8,3183.2,2944.8z"
	/>
<path d="M2763.5,2986c-52.5-3.4-92-30.7-108.8-77.8c-1.7-4.7-3.5-9.5-4-14.3c-1.1-11.5-6-25.8,9.9-30.3c15-4.2,16.5,10,20.9,19.7
	c5.4,11.7,10.5,23.9,17.9,34.3c19.2,26.7,45.5,38.7,78.1,30.8c31.3-7.5,53.8-25.2,59.4-59.3c1.6-9.8,4-19.5,6.5-29.1
	c2.6-9.8,9.2-16,19.5-14.6c10,1.4,14.8,8.5,15.8,18.9c3.3,33.8-24.4,87.3-56.5,102.7C2803.8,2975.8,2783.1,2979.8,2763.5,2986z"/>
</svg>
