<?xml version="1.0" encoding="utf-8"?>
<!-- Generator: Adobe Illustrator 24.3.0, SVG Export Plug-In . SVG Version: 6.00 Build 0)  -->
<svg version="1.1" id="Layer_1" xmlns="http://www.w3.org/2000/svg" xmlns:xlink="http://www.w3.org/1999/xlink" x="0px" y="0px"
	 viewBox="0 0 4000 4000" style="enable-background:new 0 0 4000 4000;" xml:space="preserve">
<path d="M3804,1895.9c-5.6,209.6-11.1,432.6-17.9,655.6c-0.9,28.1-6,56.7-13.5,83.8c-18.9,67.7-61.6,117.2-123.3,150.5
	c-61.5,33.3-123.1,66.6-184.7,99.6c-228.3,122.4-456.6,244.8-685.1,366.9c-48.2,25.8-96.7,50.9-145.4,75.7
	c-83.1,42.2-169.5,54.2-260.8,30.3c-140.6-36.8-281.5-72.4-422.3-108.1c-207.5-52.7-415.1-105-622.7-157.6
	c-220.3-55.8-440.4-112-660.8-167.3c-76.7-19.3-140.6-55.9-175.6-129.7c-12.9-27.2-20.4-57.5-26.4-87.2c-4.7-23.3-4.3-47.9-4.3-71.9
	c-1-412.3-1.8-824.6-2.1-1236.9c0-33.7,1.4-68.1,8.1-101c16.1-78.7,59.2-138.3,135.3-169.3c113.4-46.1,227.6-90,340.9-136.1
	c284.4-115.8,568.6-232,852.6-348.8c64.1-26.3,129.7-40,198.5-28.7c40.9,6.7,81.3,16.9,121.8,26.1c149.2,34,298.3,68.2,447.4,102.5
	c277.9,64,555.8,128.2,833.7,192.2c75.6,17.4,151.2,34.6,226.8,51.9c9.6,2.2,19.1,4.8,28.6,7.5c95,26.6,145.3,91.6,159,191.1
	c1.5,10.8,2.2,21.8,2.1,32.7c-1.4,133.4-2.9,266.8-4.8,400.2C3807.9,1707.5,3805.9,1795,3804,1895.9z M3733.7,1982.5
	c4.9-298.6,8.5-510.8,11.5-723c0.4-25-0.8-50.4-4.1-75.2c-7.6-56.9-38-96.7-93.3-115.7c-10.3-3.5-20.8-6.7-31.5-9.2
	c-129.8-30.4-259.5-61-389.4-91c-217.2-50.2-434.5-100.1-651.8-150c-185.3-42.6-370.9-84.2-556-127.8
	c-66.8-15.7-129.9-8.7-192.2,17.6c-52.4,22.1-105.1,43.3-157.7,64.7c-313.9,127.7-627.8,255.3-941.7,383
	c-33.4,13.6-67.2,26.4-99.9,41.4c-60.5,27.7-90.1,77.1-95,142.2c-1.6,20.7-1.4,41.5-1.4,62.3c0.4,400.3,0.8,800.6,1.4,1201
	c0.1,32.8,0.8,65.7,3.4,98.3c3.3,40.6,21.1,75.2,48.4,105.2c28.9,31.8,68.2,42.6,107.3,52.6c275.1,70.3,550.5,139.9,825.7,209.6
	c166.2,42.1,332.5,84.2,498.7,126.1c125,31.5,250,62.9,375.1,94.2c48.5,12.1,97.8,15.8,145.7,0.2c34.1-11.1,67.4-26,99.1-42.7
	c140.3-73.8,279.9-148.8,419.7-223.5c163.9-87.5,327.9-175,491.6-262.9c29.8-16,59.4-32.8,87.5-51.6c50.7-33.8,77.4-82.5,79.5-143.4
	C3722.2,2342.1,3729.3,2119.1,3733.7,1982.5z"/>
<path d="M2295.7,1697.8c-29.7-5.7-56.5-9.8-82.8-16.1c-271.8-65.5-543.8-130.6-815.3-197.5c-210-51.8-419.3-106.1-629-159.2
	c-13.8-3.5-28-5.3-41.5-9.4c-6.7-2.1-13.8-6.6-18.1-12.1c-6.4-8.1-1.6-18.6,8.4-19.1c8.5-0.4,17.3,1.7,25.7,3.7
	c211.2,51.8,422.4,103.3,633.4,155.8c239.6,59.5,479,119.8,718.4,180.1c59.3,14.9,118.3,31,177.3,47.1
	C2282.9,1673.9,2297,1674.9,2295.7,1697.8z"/>
<path d="M2467.3,1889.2c9.1-1.1,13.4-2.1,17.6-2c3.1,0.1,6.1,1.8,11.5,3.6c0.5,10.2,1.5,21,1.5,31.7c0.4,337.7,0.8,675.4,0.9,1013
	c0,54.6-1.9,109.3-2.9,163.9c0,2.2,0,4.4-0.2,6.6c-0.8,9.8-0.1,21.2-14.7,20.3c-13.9-0.9-13.4-11.9-13.5-21.8
	c-0.4-28.4-1-56.8-1-85.2c0.2-365,0.6-730,0.9-1095C2467.3,1913.4,2467.3,1902.7,2467.3,1889.2z"/>
<path d="M3605.5,1185.5c2.3,26.4-13.8,30.6-25.1,36.9c-39.2,21.6-78.6,43.1-118.8,62.7c-251.4,122.4-502.9,244.3-754.5,366.2
	c-21.6,10.5-43.6,20.2-65.6,29.8c-6.9,3-14.3,5.7-21.7,6.8c-3.5,0.5-10-2.3-10.9-4.9c-1.4-4.3-1-11.6,1.9-14.4
	c6.1-5.9,13.8-10.6,21.6-14.4c262-127.8,524.1-255.5,786.2-383.1c49.1-23.9,98.3-47.6,147.6-71
	C3577.5,1194.8,3589.7,1191.3,3605.5,1185.5z"/>
<path d="M1111.1,1539.8c-19.9-3.4-41.3-5.5-62-10.8c-73-18.6-145.6-39.2-218.8-57.2c-27.4-6.8-55.9-11.6-83.9-12.2
	c-46-0.9-74,22-84.5,66.6c-4.7,20-6.2,41.1-6.6,61.7c-2.3,107.1-3.7,214.3-5.5,321.4c-0.1,8.5-1.4,16.9-2.2,25.8
	c-21,4.2-23.4-7.4-23.3-22.1c0-33.8-0.4-67.7-0.5-101.5c-0.2-80.9-1.2-161.8-0.1-242.7c0.3-22.6,4-46,10.7-67.5
	c14.6-46.9,48.2-73.1,97.1-73.5c32.4-0.3,65.8,2.3,97.2,10.1c81.6,20.2,162.4,43.8,243.4,66.3c10.5,2.9,20.9,6.5,31,10.6
	C1112.1,1518.3,1117.5,1524.6,1111.1,1539.8z"/>
<path d="M3660.1,1720c-14,5-23,2.8-24.7-12.1c-1-8.7-1-17.4-1-26.2c0-62.3,0.5-124.5,0-186.8c-0.2-21.8-0.4-43.9-4.4-65.2
	c-7.5-40.4-34.6-57.8-74-47.5c-20.9,5.5-41.3,14.2-60.8,23.7c-57.9,28.2-115.2,57.8-172.9,86.4c-13.7,6.8-27.9,12.7-42.3,17.5
	c-4,1.3-13.1-1.6-13.9-4.3c-1.5-5.2-0.5-13.2,2.8-17.1c4.7-5.5,12.3-8.8,19-12.4c55.8-30,111-61,167.7-89.1
	c32-15.9,65.5-30.1,99.9-39.7c41.7-11.6,82.1,10.7,97.5,51.6c7.9,21.2,14.2,44.4,14.3,66.8c0.3,79.7-2.2,159.4-3.9,239.2
	C3663.1,1709.9,3661.2,1715,3660.1,1720z"/>
<path d="M2592.5,2901.6c0-36.1,0-72.1,0-108.2c0-7.6-1.3-16,1.3-22.7c2.3-5.8,8.9-11.7,14.8-13.5c2.9-0.9,10.9,6.8,12.5,11.8
	c2.4,8.1,1.6,17.2,1.8,25.9c2.2,74.2,4.3,148.5,6.6,222.7c0.2,6.5,1,13.1,2.2,19.5c7.3,38,30,54.3,68.4,46.2
	c19-4,37.9-10.9,55.2-19.7c67.2-34,133.7-69.4,200.5-104.2c9.7-5,19.1-11.4,29.5-14c6.8-1.7,15.1,2.3,22.7,3.8
	c-3.3,6.1-6.5,12.3-10.2,18.2c-1,1.6-3.7,2.2-5.6,3.3c-76.6,42-152.8,84.7-230,125.5c-19.9,10.6-42.4,17.7-64.6,22.3
	c-44.1,9.1-85-16-93.8-60.5c-7.1-36.1-7.3-73.7-9.9-110.6c-1-15.2-0.2-30.6-0.2-45.9C2593.4,2901.6,2593,2901.6,2592.5,2901.6z"/>
<path d="M1890.2,3046.2c22.5,4,42.8,6.2,62.5,11.2c76.1,19.4,151.9,40.4,228.2,59.2c20.9,5.2,43.2,7.5,64.8,6.9
	c39.6-1,68.4-24.2,77.5-63c5.7-24.2,7.9-49.5,8.8-74.5c1.8-51.3,1.2-102.7,2.4-154.1c0.3-14.6-2.1-30.9,16.9-44.7
	c3.7,8.6,9.4,15.5,9.3,22.4c-0.8,81.9,0.8,164-5,245.5c-4.5,62.4-46.9,97.2-109.6,100.1c-19.4,0.9-39.7-0.1-58.4-5
	c-92.9-24.3-185.4-50.2-278-75.5C1898.5,3072,1888.4,3068,1890.2,3046.2z"/>
<path d="M1285.7,1335.8c-21.5-4.3-41.7-7.7-61.5-12.4c-84.9-20.3-169.9-40.5-254.6-61.8c-18.8-4.8-37.8-11.8-54.5-21.7
	c-32.5-19.1-36.8-53.1-10.2-79.7c11.2-11.3,25.7-20.9,40.5-26.7c65-25.5,130.6-49.6,196.2-73.5c11.2-4.1,27.5-14.8,33.5,2.7
	c5.1,14.8-13.5,17.2-23.7,21.6c-60.3,25.7-120.9,50.4-181.2,75.9c-12,5.1-24.1,10.7-34.7,18.2c-15.5,11.1-15.1,23.6,1.8,33.1
	c15.1,8.4,31.7,15,48.4,19.4c68.5,18.3,137.5,35.1,206.1,53.2c26.3,6.9,52.3,15.4,78.3,23.6
	C1280.7,1311,1291.6,1314.9,1285.7,1335.8z"/>
<path d="M2928.3,1886.2c-17.5,0.9-32.2-13.7-33.2-32.8c-0.9-17.8,17.7-39.7,34.9-41.2c15.7-1.4,32.9,14.7,34.6,32.4
	C2966.6,1865.4,2949.4,1885.2,2928.3,1886.2z"/>
<path d="M3512.2,2503.3c-15.5-0.4-27.5-14.7-26.2-31.1c1.3-16.5,19-34.6,33.8-34.5c15.2,0,29.9,15.1,28.8,29.4
	C3547.3,2484.7,3528.2,2503.7,3512.2,2503.3z"/>
<path d="M1297.8,1769.4c-14.5,0.8-28.1-12.4-29.4-28.5c-1.2-15.9,12.2-33.6,26.9-35.6c14.1-1.9,31.6,13.4,33.2,29
	C1330.3,1751,1315,1768.4,1297.8,1769.4z"/>
<path d="M3142.9,1244.9c-3.7-3.9-13.8-10-16.1-18.3c-3.8-13.7,14.4-29.5,31.4-30.1c15.6-0.5,28,9.2,26.8,21.2
	C3183.6,1231,3165,1245.1,3142.9,1244.9z"/>
<path d="M2349.5,2774.3c-17.3-23.1-13.8-48.5-11.2-73.5c0.2-2.2,7.4-6,10.1-5.2c4.4,1.3,10.7,5.6,11,9.2
	C2361.8,2728.2,2362.8,2751.8,2349.5,2774.3z"/>
<path d="M2121.8,813.8c10.9,8.4,21.2,13,25.8,20.9c4.5,7.8-8.3,19.2-20.8,18.3c-11.7-0.8-26.6-2.4-26.5-17
	C2100.2,829.3,2112.7,822.7,2121.8,813.8z"/>
<path d="M1975.7,961.4c-23.6-0.1-36.8-9.1-32.7-19.6c2.3-5.8,11.8-11.6,18.6-12.4c15.8-1.8,30,9.3,26.8,19.8
	C1986.5,955.4,1977.9,959.4,1975.7,961.4z"/>
<path d="M3382.3,2222.8c7.8,11.5,14.2,17.5,16.2,24.8c2.3,8.3-12,20.3-22.1,19.3c-9.6-0.9-18.7-6.4-15.3-16.6
	C3363.9,2241.6,3372.7,2234.8,3382.3,2222.8z"/>
<path d="M1679.7,1277.2c15-8.7,22.1-15.1,30.3-17.1c9-2.3,20.7,10.6,16.5,18.1c-3.2,5.8-12.4,10.9-19.2,11.3
	C1700.9,1289.9,1694,1283.9,1679.7,1277.2z"/>
</svg>
