<?xml version="1.0" encoding="utf-8"?>
<!-- Generator: Adobe Illustrator 24.3.0, SVG Export Plug-In . SVG Version: 6.00 Build 0)  -->
<svg version="1.1" id="Layer_1" xmlns="http://www.w3.org/2000/svg" xmlns:xlink="http://www.w3.org/1999/xlink" x="0px" y="0px"
	 viewBox="0 0 4000 4000" style="enable-background:new 0 0 4000 4000;" xml:space="preserve">
<path d="M1410.1,3756.2c-170.1-2.8-309.9-19.2-444-71.4c-206.7-80.3-358.6-218.6-451.1-420.9c-31-67.9-53.3-138.2-64.6-212.4
	c-13.6-88.3,10-165.2,63.7-234.7c43.1-55.8,96.7-99.8,154.3-139.6c107.8-74.5,224.9-130.6,348.6-171.9
	c128.6-42.9,259.1-80.3,389-119.5c122.2-36.9,244.6-72.9,359.2-130.7c139.3-70.4,254.5-169.2,349.1-292.8
	c87.9-114.7,159.2-239.7,227.5-366.4c105.6-196.2,208.4-393.9,315.3-589.3c79.7-145.7,168.7-286,270-417.8
	c81.7-106.3,173.4-202.6,288.1-275.1c118.9-75.1,247.3-97.9,383.8-71.5c88.6,17.1,164.4,57.6,205.4,144.6
	c24.1,51.1,29.1,104.8,18.1,159.8c-6.5,32.6-21.2,61.8-45.8,84.5c-23,21.2-46.6,42-72.2,59.9c-139.6,97.6-254.9,218.8-353.6,356.9
	c-235.4,329.4-395.9,694.8-513.4,1079.9c-53.8,176.4-97.6,355.8-147.7,533.3c-48.3,170.9-101.6,339.9-186.3,497.7
	c-120.2,223.9-298.2,382.4-530.1,482.4c-135.4,58.4-277.3,91.5-424,104.3C1493.6,3750.4,1438.1,3754.1,1410.1,3756.2z M3701.1,375
	c-12.3-9.6-21.2-18.7-31.8-24.6c-37.8-21.2-78.7-34.7-121.7-39.7c-108.3-12.7-207.2,14.1-297.7,73.7
	c-82.1,54.1-152.7,120.7-216.4,195.3c-114.4,133.9-209.7,280.8-294.5,434.4c-91.5,165.5-180.1,332.7-269,499.6
	c-79.2,148.5-159,296.7-253.8,436c-75.6,111.1-164,210.6-272.4,291c-66.6,49.4-140.8,85.2-216.4,118.4
	c-123.7,54.3-254,88.3-383.3,125.2c-131.6,37.5-263.8,72.9-390.3,126.2c-116,49-227,106.3-321.9,190.8
	c-44.7,39.8-83.8,84.5-102.5,142.5c-26.1,81.2,1.2,132.9,57.2,164.7c23.1,13.1,47.4,24.4,72.2,34c67.9,26.3,139.3,34.8,211.5,37.1
	c166.6,5.4,331.6-10.1,495.7-37c154.7-25.3,306.9-61.1,456.4-109c248.8-79.8,443.5-226.9,578.3-453
	c79.3-133,145.6-272.1,204.6-414.8c75.8-183.3,148.5-367.9,223.1-551.6c96.3-237.1,210.4-465,350.5-679.5
	c134.5-205.9,295.6-387.1,493.2-534.8C3681,393.1,3689.3,385.2,3701.1,375z M553.7,3142.4c2.8,13.7,3.4,20.6,5.7,27
	c64.5,175.8,177,311.1,341.1,402.5c115.9,64.6,242.4,93.5,373,101.7c214.4,13.5,424.3-12.8,625.9-89.4
	c201.5-76.5,369.9-197.2,489.8-379.5c69.3-105.4,119.6-219.8,160.9-338.6c55.3-159.1,95.1-322.6,136.5-485.6
	c103.7-408.1,250.2-798.8,463.8-1163c105.1-179.1,223.6-347.8,379.9-486.3c52.8-46.8,111-87.7,168.1-129.4
	c53.9-39.4,69.3-82.3,49.2-163.3c-2-8.2-8.5-15.2-14.1-25c-12.6,7.5-22.7,13-32.1,19.3c-103.6,70-194.4,154.7-277.5,247.3
	c-143.5,159.7-260.5,338.3-362.4,526.5c-86.2,159.3-158.5,325.3-226.1,493.3c-82.7,205.6-158.4,413.9-251.1,615.4
	c-63.2,137.4-132,271.1-222.9,392.7c-83.2,111.4-183.7,202.2-306.4,268.7c-145.3,78.7-301.5,126.3-461.4,162.3
	c-147.1,33.1-295.9,57.3-446.2,71.8c-115.8,11.2-231.4,18.3-347.4,4.5c-76.5-9.1-151.2-24.3-219.1-63.4
	C574.6,3148.1,566.6,3146.8,553.7,3142.4z"/>
<path d="M1529.1,2233.4c-9.2-2.5-25.4-5-40-11.3c-28.5-12.3-42.3-41.2-34.5-71.4c4.6-17.9,11.3-35.3,18.7-52.3
	c22.4-51.5,25.2-103.9,3.1-155.4c-15.9-37.1-35.4-72.9-55.5-107.9c-29-50.4-57.7-100.9-65.8-159.6c-13.8-100.7,10.5-188.6,89-257.6
	c25.8-22.7,55.9-37.1,89-45.2c10-2.4,20.7-3.6,30.9-3c35.4,2.3,51.9,24.7,44.1,59.1c-2,9-5.1,17.9-8.8,26.3
	c-42.8,96.6-22.8,185.6,32.6,270.2c19,29.1,39.7,57.1,58.1,86.6c48,76.8,71,158.9,44.8,248.7c-18.5,63.2-53.3,115.5-112.3,148.8
	C1595.6,2224.6,1566.6,2231.4,1529.1,2233.4z M1558.4,1423.9c-2.1-2.2-4.2-4.5-6.2-6.7c-13.8,4.9-28.3,8.3-41.3,14.9
	c-84.9,43.5-129.1,143.6-107.8,242.5c10.1,47.1,31.3,89.3,55.1,130.7c20.2,35.1,40.7,70.3,57,107.3c30.2,68.7,34.4,138.9,2.8,209.1
	c-3.8,8.4-7.4,17.2-9.4,26.1c-5.1,23.1,4.9,36.7,28.1,36.5c12.4-0.1,25.8-2,37.1-6.9c67.9-29.5,108.5-80.7,120.1-154.4
	c10.2-64.9-3.9-124.5-39.1-179.2c-22.5-35.1-47.5-68.7-69.6-104c-55.6-88.7-68.8-183.1-35.8-283.2
	C1552.9,1445.8,1555.4,1434.7,1558.4,1423.9z"/>
<path d="M958.6,2197.7c-1-60.4,15.4-105.9,38.8-149.3c12.7-23.5,26.3-46.4,39.7-69.5c33.7-58.5,37.6-118.3,8.1-179.7
	c-2-4.2-4-8.4-5.7-12.7c-14.7-36.6,1.3-62,41.5-62.7c53.5-1,96.8,23.4,130.8,62.3c54.9,62.8,65.8,137,44.6,215.4
	c-10.5,38.9-25.6,77-42.7,113.7c-24.2,52-33.7,103.4-8.8,157.5c2.9,6.3,4.5,13.2,6.4,19.9c15.7,56.2-10.2,94.1-68.2,99.1
	c-27.3,2.3-53-3.7-76.9-17.2C993.4,2333.3,962.9,2267.8,958.6,2197.7z M1092.2,1774.5c2.1,9,3.2,14.6,4.6,20.1
	c6.2,24.6,16.3,48.9,17.9,73.7c3.3,50-14,95.6-38.5,138.8c-20,35.3-40.3,70.6-56.6,107.6c-19,43-18.4,88.4-2.4,132.6
	c16.3,45.1,48.3,76.1,92.5,93.6c17.4,6.9,38,9.1,53.1-4.3c15.8-14,2.1-30.5-3.1-44.8c-14.2-38.8-24.2-78.4-14.6-119.2
	c6.5-28,18.6-54.7,28.6-81.8c13.9-38,31.9-75,41.3-114.1c18.2-76.1-13.1-148.3-77.4-190.3
	C1125.1,1778.4,1112.5,1770.1,1092.2,1774.5z"/>
<path d="M1747.5,2510c159.2-0.4,266.7,7,371.3,37.4c24.3,7,48.4,17,70.1,30c67.7,40.6,80,118.2,24.6,174
	c-33.2,33.4-72.3,61.9-112.1,87.4c-99.6,63.9-210.5,102.2-323.2,135.2c-166.2,48.7-336,79.8-507.6,102.8
	c-134.8,18.1-269.7,33.8-405.8,26.6c-49.4-2.6-99-12-147.1-24.1c-26.1-6.5-51.3-22.2-73.1-38.8c-41.1-31.2-50.8-77.5-30-124.7
	c20.1-45.8,52.8-81.5,91.2-112.5c58.3-47,124.5-80.6,191.6-112.7c173.5-82.9,358.3-127.7,547-154.9
	C1561.2,2518.9,1680.1,2515.4,1747.5,2510z M965.3,3055c20.8-1.2,41.8-1.4,62.5-3.9c117.4-14.3,235.1-27,352-44.5
	c166.5-25,330.5-61.8,489.4-118.7c94.1-33.7,185.8-73,266.6-133.5c14.8-11,29.1-23.3,41-37.3c33.8-39.7,27.4-74.1-18.7-99.4
	c-19.2-10.5-39.9-19.3-61-24.9c-70.8-19-142.9-30.1-216.4-32c-117.4-3-234,7-350.6,19.9c-199.6,22-392.6,69.2-578.3,145.5
	c-69.9,28.7-136.7,63.9-198.1,108.2c-35.8,25.9-69.6,54.7-90.7,94.8c-17.9,34-12.2,61.1,21.2,80.1c24.8,14.1,52.6,24.3,80.3,31.5
	C830.3,3057.9,898,3055,965.3,3055z"/>
<path d="M3169.6,729.8c-49.4,1.3-73.6-22.6-70.5-65.9c1-14.4,5.7-29.9,12.9-42.4c27-46.8,63.1-86.1,110.7-112.1
	c19.5-10.7,43.2-17.1,65.5-18.5c35.2-2.2,61.9,25,61.7,60.4c-0.1,16.9-3.2,35.2-10.4,50.3c-29.1,61.5-77.4,102.6-141.8,124.1
	C3186.9,729.2,3174.9,729,3169.6,729.8z M3309.7,563.8c-0.5-24.5-7.2-32.2-25.3-31c-10,0.7-20.4,4-29.5,8.5
	c-40.1,20-72.1,50-98.2,85.9c-11.3,15.4-27.4,34.8-11.1,52.9c14.7,16.3,37.2,8,55-0.4c40.6-19.3,73-48.6,97.2-86.3
	C3304.4,583,3307.2,570.2,3309.7,563.8z"/>
<path d="M1813.1,3326.7c-49.2-0.7-85-37.6-84-86.6c1.1-50,34.9-82.7,82.6-83.3c52.1-0.6,83.5,47,82.9,84.6
	C1893.9,3290.3,1858.6,3327.3,1813.1,3326.7z"/>
<path d="M1247.4,3254.7c44.9-0.4,81.5,35.9,81.7,80.9c0.2,45-35.9,83.3-79.2,84.3c-44,1-83.7-36.2-84.5-78.9
	C1164.6,3296.1,1203.7,3255,1247.4,3254.7z"/>
<path d="M1537.1,3487.5c-53.4-0.4-96.2-32.2-111.6-83.3c-2-6.6-4.7-14.4-2.8-20.2c2.5-7.8,9.2-14.2,14.1-21.2
	c6,4.4,13.7,7.7,17.7,13.6c6.4,9.5,10.1,20.8,15.4,31.1c17.8,34.6,49,40.2,83.2,36.1c33.4-4,59.6-19.6,69.8-54
	c3.9-13.2,5.6-27.2,7.5-41c1.3-9.6,2.5-21.4,14.3-19.2c8.4,1.6,16.4,10.4,22.5,17.6c3,3.6,2.5,11.2,1.8,16.8
	C1660.9,3432.6,1628.2,3485.8,1537.1,3487.5z"/>
<path d="M1207.3,3564.9c-14.8-2.2-30.2-2.5-44.2-7c-34.2-11.1-43.8-45-18.8-71c13.2-13.8,30.5-26.9,48.4-32
	c25-7.1,52.4-9.1,78.6-8.4c26.6,0.7,51.7,22.2,53.9,41.7c3.1,27-12.9,45.4-34.6,54.9c-25.9,11.4-54.3,17-81.6,25.1
	C1208.4,3567.1,1207.8,3566,1207.3,3564.9z M1238.5,3475.7c-17.7,6.2-41.6,13.4-64.3,23.2c-5.5,2.4-11,13.7-9.9,19.7
	c1,5.7,10.1,12.9,16.6,14.1c35.1,6.2,69.1,0.4,100.2-16.9c15.1-8.3,14.2-25-1.4-31.7C1269.4,3479.7,1257.4,3479.4,1238.5,3475.7z"/>
<path d="M1862.1,3456.2c-9.5-1.8-26.2-2.5-40.9-8.3c-33.8-13.3-40.2-50.2-14.8-76c31.7-32.1,105.3-45.5,146.1-26.5
	c42.7,19.8,46.7,58.4,8.9,86.5C1933.8,3452.5,1900.8,3452.1,1862.1,3456.2z M1873.5,3425.9c0.5,1.3,1.1,2.5,1.6,3.8
	c23.9-7.5,48.7-12.7,71.3-23.1c18-8.3,15.9-24.6-2-33.4c-25.9-12.8-93.3-2.6-112.4,16.9c-12.1,12.4-9.3,27.4,7.2,32
	C1850.2,3425.2,1862.1,3424.8,1873.5,3425.9z"/>
<path d="M1546.9,2826.4c-23.8-4.2-60.3-9.9-96.4-17.4c-11-2.3-21.6-8.6-31.4-14.6c-46.1-28.1-47.6-67.1-3.9-99.9
	c31.9-23.9,70.2-30.2,108.1-35c57.1-7.2,113.7-2.3,167.9,18.5c14,5.4,28,11.6,40.4,19.8c36.8,24.3,37.9,61.4,3.1,89.2
	c-25.5,20.4-56.7,26.3-87.7,30.7C1618.4,2821.9,1589.3,2822.9,1546.9,2826.4z M1721.8,2746.1c-33.5-39.8-76.9-43.1-118.4-46.1
	c-80.4-5.8-148.5,13.8-172.3,48c36,31.3,81.5,29,123.8,32.4C1611.6,2785,1667.9,2781.2,1721.8,2746.1z"/>
<path d="M1213.3,2734.9c2.2,10.3,4.3,16.6,4.9,23.1c3.2,32.3,5.5,39,36.7,45.2c47.5,9.4,95.8,14.9,143.9,20.8c24,3,48.5,2.6,72.6,5
	c9.3,0.9,18.3,5.5,27.4,8.4c0.1,3,0.2,6,0.3,8.9c-12.3,4.3-24.4,11.9-36.8,12.5c-80.1,3.9-159.5-0.5-236.3-26.6
	c-7.6-2.6-15-6.2-21.9-10.2c-17.1-10-28.2-24.5-27.4-45C1177.5,2756.4,1189.7,2743.7,1213.3,2734.9z"/>
<path d="M965.9,2805.8c1,4.7,2.7,8.1,2.2,11.2c-6.7,40.7-3.8,46.5,35.6,60.4c58.4,20.7,119.7,25.1,180.8,30.6
	c12.7,1.1,25.8,0.2,38,3.1c8.9,2.1,22.8,8,23.7,13.9c2.3,14.5-12.7,12.6-22.3,14.6c-5.6,1.1-11.5,1.5-17.3,1.2
	c-66-2.4-132.1-4.7-195.7-24.4c-22.9-7.1-45.5-17.3-65.9-29.8c-14.5-8.9-26.3-24.6-20.4-44.1C930.5,2823,943.5,2809.3,965.9,2805.8z
	"/>
<path d="M1839.2,2648.9c-5.4-20.2,3.3-29.7,19.5-30.7c55.2-3.2,109,3.6,157.8,31.6c22.6,13,24.7,21.7,17.3,46.4
	c-20.6-9.8-40.3-21.6-61.5-28.4c-20.7-6.6-43-8.6-64.8-11.5C1884.8,2653.2,1861.9,2651.3,1839.2,2648.9z"/>
</svg>
