<?xml version="1.0" encoding="utf-8"?>
<!-- Generator: Adobe Illustrator 24.3.0, SVG Export Plug-In . SVG Version: 6.00 Build 0)  -->
<svg version="1.1" id="Layer_1" xmlns="http://www.w3.org/2000/svg" xmlns:xlink="http://www.w3.org/1999/xlink" x="0px" y="0px"
	 viewBox="0 0 4000 4000" style="enable-background:new 0 0 4000 4000;" xml:space="preserve">
<path d="M2193.5,2970.1c-149.5-3.3-272.1-4.4-394.5-9c-150.1-5.7-299.9-16.5-446.1-55c-86.2-22.7-167.7-55.5-239.7-109.6
	c-64.5-48.5-110.9-110.2-136-187c-5.6-17.1-15-23.9-31.7-29.2c-70.2-22-140.5-44.3-209.4-70c-105.8-39.6-147-147.4-125.6-245.3
	c13.6-61.9,44-112.7,94.1-151.6c12.4-9.6,24.8-19.1,36.9-29.1c18.8-15.6,28.8-35.4,28.5-60.3c-0.3-26.7-0.6-53.5,0.1-80.2
	c1.2-47.6,11.7-93.2,33.2-135.8c29.7-59.1,78.8-96.1,139.6-119c21.5-8.1,43.2-16,64.6-24.3c38.7-14.9,64.3-41.4,75.2-82.1
	c6.9-25.8,15.3-51.2,24.2-76.4c37.4-105.8,128.5-172.3,240.8-175.9c23.9-0.8,47.9-0.3,71.9-0.3c41.2,0.1,75.6-13.5,100.1-48.3
	c8.5-12,17.9-23.4,26.9-35.1c69.2-89.8,159.2-124.1,270.5-101.9c19,3.8,38.1,6.9,57,10.6c57.4,11.2,107.5-2.5,150.2-43.1
	c22-20.9,43.9-42.2,67.6-61.1c29.5-23.5,64.2-35.1,102.1-37.4c46.7-2.9,84.4,14.6,115.8,47.7c10.1,10.7,19.2,22.6,30.2,32.2
	c36.2,31.9,79.1,42,126.1,35.3c33.7-4.8,67.2-11.8,101-15.6c72.3-8,137.2,9.6,190.1,61.6c18.3,18.1,35.4,37.6,51.2,57.9
	c28,36,63.3,53.5,109.4,54.1c35.7,0.5,72,3.6,107,10.6c99,20,166.9,78.1,201.2,173.7c8.7,24.2,16.3,49.1,21.8,74.2
	c11.6,53.3,41.4,91.5,89.8,115.8c17.3,8.7,34.4,17.8,51.3,27.1c95.2,52.3,142.4,132.9,140.9,241.6c-0.3,21.2-1.7,42.4-3.4,63.5
	c-4.1,49.3,8.7,92,42.5,129.7c25.1,27.9,49,57.9,67.7,90.3c28.6,49.6,40.9,103.7,32.1,162.1c-11,72.5-48.1,126.4-115.3,154
	c-59.4,24.4-121.5,42.7-183.2,60.8c-22.3,6.5-35.8,14.8-44,38.1c-40.9,115.6-119.8,196.4-231.6,246.2
	c-92.6,41.3-190.1,62.9-290.1,76.2c-153.1,20.4-306.9,20.4-460.8,19.1C2284.6,2969.7,2225.6,2970.1,2193.5,2970.1z M2038.1,1486.1
	c-3.1,3.3-4.9,4.4-5.6,5.9c-34.6,81.3-91.6,144.4-162.7,194.7c-42.8,30.3-88.2,56.8-132.6,84.8c-50.6,31.9-102.5,62.1-144.6,105.6
	c-5.2,5.4-11,10.1-20.8,1.1c7.9-9.8,14.6-21,24-29.2c32.5-28.6,64.7-57.6,99.2-83.6c47.7-36.1,98.1-68.6,146.1-104.5
	c58.9-44,108.1-97.4,144.1-161.9c5.7-10.2,9.9-21.8,12.2-33.3c0.9-4.3-4.7-11.7-9.3-14.7c-3.2-2-10,0.4-14.7,2.3
	c-3.2,1.3-5.5,4.8-8,7.5c-41.6,47.3-94.3,79-149.5,107.2c-75.4,38.5-152.3,74.7-225.7,116.7c-150.6,86.2-287.1,190.1-395.9,327.4
	c-79.9,100.8-142.4,210.5-171.8,336.9c-16,68.9-22.4,138.8-5.6,208.1c24.2,100.2,84.3,175,172.3,227
	c105,62.1,221.3,91.1,340.9,104.2c107,11.7,214.8,19.4,322.4,22.1c202.6,5,405.4,5,608.1,7.2c120.9,1.3,241.3-5.3,361-22.5
	c85-12.2,168-31.9,247.1-66.8c115.3-50.9,191.6-134.7,221.4-258.4c17.3-71.9,17.1-144.4,3.7-216.7c-28.1-151.3-97.9-283-193.9-401.3
	c-77.7-95.8-168.5-178-271.1-246.4c-63.6-42.4-129.9-80.7-194.1-122.1c-55.6-35.9-110.4-73.3-164.7-111.1
	c-10.9-7.6-19.9-9.7-29.8-2.1c-11.9,9-2.9,18,2.1,26.3c3.3,5.5,7.4,10.6,11.1,15.8c33.4,46.8,73.6,86.9,117.9,123.6
	c43.9,36.4,88.3,72.7,128.3,113.2c26.2,26.4,45.4,59.9,66.9,90.8c5.1,7.3,11.1,16.3,4.5,30c-6.5-6.9-11.9-11.4-15.9-17
	c-37.8-53-84.1-97.4-136.6-135.8c-34.2-25-67.7-51-100.9-77.4c-46.6-37-86.1-80.4-115.5-132.5c-2.6-4.6-6.6-8.4-10.1-12.9
	c-30.1,7.4-59.2,14.5-91.3,22.4c8.2,27.3,14.6,52.1,23,76.1c22.1,63.5,45.2,126.6,67.7,189.9c19.6,55.1,29.5,112.2,31.3,170.5
	c0.3,9.3,4.3,20.6-11.1,29.2c-2.7-8.1-6.3-15-7.1-22.2c-8.3-75.2-33.7-144.9-64.7-213.2c-32.4-71.3-62.7-143.5-78.1-220.9
	c-0.5-2.3-3-4.3-3.8-5.4c-34.7,0-68.2,0-101.5,0c-1.4,4.3-2.8,6.9-3,9.5c-4.9,74.5-24.5,145.6-56.7,212.3
	c-37.2,77.1-78.6,152.1-118.6,227.8c-1.5,2.8-7,3.5-15.7,7.6c3.3-13.3,4.5-22.3,7.8-30.3c18.6-45.1,36.5-90.5,57-134.7
	c40.6-87.4,74-176.6,82.2-273.6c0.8-9.7,2.1-19.3,3-28C2085.6,1502.4,2062.3,1494.4,2038.1,1486.1z M2422.6,1426.5
	c-13.5-21.9-27.2-39.6-35.9-59.4c-27.4-62.3-52.9-125.4-79.1-188.3c-7.8-18.7-14.3-38-23.2-56.1c-23.4-47.3-71.8-67.2-120.7-47.1
	c-22.5,9.2-43.2,24.1-62.9,38.9c-25,18.7-47.9,40.3-72.2,60c-40.7,32.9-87.4,47-139.3,40.4c-25.5-3.2-50.6-9.1-75.8-14.6
	c-93.2-20.5-169,5.4-225.8,83.4c-11.4,15.6-23.4,30.8-35.4,46c-24.9,31.2-57.5,48.9-97.2,51.5c-36.7,2.4-73.6,2.5-110.4,3.7
	c-30.8,1-59.9,7.8-87.5,22.2c-54,28.1-86.3,73.3-104.6,129.8c-8.2,25.4-15,51.3-24,76.4c-16.9,47.2-46.1,83.5-94.7,101.6
	c-26.7,9.9-53.3,20.3-79.9,30.7c-26,10.2-49.2,24.7-69.3,44.4c-41.3,40.5-57.2,91.4-59.6,147.3c-1.3,30.4-0.6,60.8-1.1,91.2
	c-0.6,37.1-15.1,67.9-42.6,92.5c-11.7,10.4-24.1,20-35.6,30.6c-16.2,15-33.4,29.3-47.4,46.1c-72.1,86.3-48.5,207.9,49.9,260.6
	c9.7,5.2,19.9,9.8,30.3,13.3c55.8,18.9,111.7,37.5,167.6,55.9c3.1,1,6.8,0.1,11.3,0.1c-5.6-114.8,18-223.4,63.3-329
	c-9.1-3.7-15.8-6.3-22.4-9.2c-39.5-17.7-79-35.1-118.2-53.5c-8-3.7-19.9-7-14.8-24.1c57.8,12.1,111.1,36.9,170,54.1
	c59.4-117,140.3-217.6,232.2-308.6c-16.2-16.9-30.2-31.3-44-45.9c-13.9-14.7-28.5-28.9-41.4-44.5c-12.3-14.9-30.7-25.5-33.1-48.9
	c57.3,25.4,95.6,77.1,149.3,110.4c90.5-82.1,193.2-146.5,298.2-209c-9.4-22.6-17.7-41.9-25.5-61.4c-8.1-20.6-16.1-41.2-23.3-62.1
	c-6.5-19.1-19.7-36.8-15.1-61.2c13.8,4.2,18.9,13.7,23.8,23.4c21.4,41.8,42.7,83.6,64.2,125.4c2.8,5.4,6.4,10.4,9.5,15.4
	c4.4-1.1,7.3-1.2,9.6-2.4c65.5-33.5,131.6-66.2,196.4-101.2c45.8-24.7,86.6-56.6,114.2-102c13.8-22.7,24.8-47.1,36.7-71
	c9.9-19.8,18.7-40,28.9-59.6c5.9-11.3,14.8-18.8,31.3-10.4c-0.9,7.6-0.9,15.7-2.9,23.4c-8.7,32.9-17.3,65.9-27.1,98.5
	c-8.3,27.5-8.8,33.9,16.1,48.1c25.3,14.4,52.6,26.8,80.5,34.8c63.2,18.2,127.7,14.5,191.7,3.3
	C2344.6,1453.7,2382.7,1443.7,2422.6,1426.5z M3038,1809.2c18.2-15,35.2-28.8,52-42.8c21.3-17.6,42.2-35.6,63.8-52.9
	c7.4-5.9,15.4-12.9,31.3-5.9c-36.7,47.1-81.7,83.9-119.4,130.7c92.3,94.6,165.9,200.3,217.8,320c58.8-11.7,109.2-41.6,169.7-44.9
	c-4.7,19.2-18.1,23.1-29,28c-31.9,14.3-64.4,27.4-96.6,41.1c-8.9,3.8-17.7,7.9-27.7,12.4c42.3,112.7,63.9,225.6,48.3,347.6
	c20.9-6.4,38.3-11,55.2-17c47.6-17,95.9-32.4,142.2-52.5c48.7-21.1,70.4-62.9,72.6-114.8c2.6-60.8-18-113.9-56.7-160.2
	c-12.4-14.8-25.3-29.3-38.6-43.3c-42.5-44.3-56.3-97.8-51.3-157.5c2.1-24.8,3.7-49.6,4.4-74.5c0.7-25.9-2-51.2-11.7-75.9
	c-16.9-42.8-44.5-76.2-83.8-99.5c-30.1-17.8-61-34.4-91.4-51.7c-48.3-27.6-77.7-69.4-91.2-122.9c-5.2-20.5-9.8-41.2-15.7-61.6
	c-28.3-97.4-95.2-153.7-196-164.2c-25.6-2.7-51.4-3.9-77.2-5c-55.4-2.3-101.8-22.9-137.8-65.7c-13-15.5-25.5-31.5-39.1-46.5
	c-43.8-48.6-97.7-70.4-163.3-60c-19.1,3-38.1,6.6-57.1,10c-47.4,8.3-94.7,15.1-141.8-2.5c-4.6-1.7-10.5-0.2-20.3-0.2
	c23.1,50.3,43.9,98.4,67.1,145.3c25.7,52.1,63.9,94.4,109.3,130.2c60.9,48.2,129.5,84.3,196.4,123.2c2.1,1.2,5.2,0.8,10.2,1.4
	c4.1-8.7,8.3-17.7,12.6-26.6c20.8-43.1,41.5-86.3,62.7-129.2c4.1-8.3,8-18.7,24.7-17.5c-4.7,15.3-8.3,29.2-13.2,42.7
	c-16.1,44.1-33,87.9-49.1,132c-8,21.9-7.8,22.5,10.1,33.7C2871.1,1668.8,2956.7,1732.4,3038,1809.2z"/>
</svg>
