<?xml version="1.0" encoding="utf-8"?>
<!-- Generator: Adobe Illustrator 24.3.0, SVG Export Plug-In . SVG Version: 6.00 Build 0)  -->
<svg version="1.1" id="Layer_1" xmlns="http://www.w3.org/2000/svg" xmlns:xlink="http://www.w3.org/1999/xlink" x="0px" y="0px"
	 viewBox="0 0 4000 4000" style="enable-background:new 0 0 4000 4000;" xml:space="preserve">
<path d="M3800.5,2204.9c-5.2,167.9-6.3,302.7-14.6,437.1c-6.3,102.4-19.9,204.5-33.6,306.3c-7.5,55.4-14.5,59.3-69.6,67.5
	c-102.8,15.2-205.9,29.3-308.7,44.6c-156.1,23.2-312,47.5-468.1,70.3c-112.6,16.5-225.4,30.7-338,47.2
	c-157.3,23-314.4,47.8-471.8,70.5c-116.2,16.8-232.8,30.9-349.1,47.4c-161.1,22.9-321.9,47.2-483,70.3
	c-110.2,15.8-220.5,30.6-330.7,46.1c-115.1,16.2-230.1,32.8-345.2,49.1c-69.4,9.8-81.7,0.2-82.4-68.6c-1.8-177.6-3-355.1-4-532.7
	c-0.3-46.3,6.3-53.2,53.1-63c102.2-21.4,149.1-116,103.1-209.2c-18.7-37.9-48.5-60-91.9-63.3c-71.8-5.3-74.9-9.5-76.9-81.5
	c-4.8-173.8-9.2-347.6-15.5-521.3c-1.2-32,8.5-51.7,35.6-69.1C668.9,1750,827.6,1646,986.5,1542.3c33.8-22.1,67.4-44.6,100.4-67.9
	c22.6-15.9,43.2-17.4,67.2-1.6c50.6,33.3,104.1,31.6,157.5,6.6c50.9-23.8,74.7-71.7,64.1-127c-0.5-2.4-1.3-4.7-1.8-7.1
	c-12.7-59.4-9.6-67.2,40.5-99.7c103.7-67.3,207.8-134,310.9-202.2c22.6-15,42.6-15.6,64.6-2c33.7,20.7,70,27.4,109.2,22.2
	c79.3-10.7,119.2-69.8,98.7-147.4c-2.2-8.3-4.7-16.5-6.9-24.8c-5.3-19.8,0.1-36.6,15.7-49.4c15.1-12.4,30.7-24.4,46.8-35.5
	c122.1-83.8,245.8-165.4,366-251.9c48.8-35.1,94-42.3,150.4-23c124.3,42.5,243.6,95.7,360.2,155.4
	c189.5,97.1,364.3,215.6,521.5,359.5c81.4,74.6,155.4,155.8,220.1,245.7c41.7,58,70,120.3,78,191.5c10.3,92.4,24.1,184.6,30,277.4
	C3789.8,1919.9,3794.9,2079,3800.5,2204.9z M2208.8,1701c-13.3,1-21.8,1.1-30.2,2.4c-94.3,14.5-188.6,29.2-282.9,43.8
	c-42.2,6.5-42.2,6.5-51.2,50c-1,4.8-2,9.6-3.1,14.4c-24.5,106-102.6,175.4-210.2,185.9c-99.4,9.7-203.4-41.7-241.1-142.6
	c-3.6-9.8-10.2-18.4-14.6-26.2c-126.2,18.4-248.4,36-370.7,53.9c-139.2,20.4-278.3,41.1-417.5,61.3c-27.4,4-28.5,4.5-27.5,31.7
	c5.6,145.6,11.3,291.2,17.2,436.7c0.4,9.4,2.3,18.8,3.5,28.1c9.2,2.5,16.2,4.6,23.2,6.4c57.6,15.1,99.8,49,128.5,101.4
	c67,122.1,11.1,274.4-118.6,320.7c-26.6,9.5-26.9,9.5-26.7,39.3c1.4,144.5,2.9,289,4.5,433.4c0.1,9.3,2,18.5,3.4,31.5
	c421.4-60.7,840.1-121,1261-181.7c29.5-127.3,99.6-216.3,234.7-235.4c133.3-18.9,229.6,38.4,292.9,157.5
	c132.5-15.3,263.7-34.1,395.6-53.5c1.6-96.1,19-182.6,75.9-256.8c57.8-75.4,135-120.7,227.8-135.9c76.5-12.5,150.7-1.2,220.9,35.2
	c104.3,54.1,159.5,144.3,188.1,255c62.1-9.5,120.7-18.5,177.2-27.2c63.9-243.3,54-1302.6-13.3-1457.6
	c-315.1,49.7-630.9,99.6-949.9,149.9c8.9,74,1,140.5-37.7,201.5c-40,63.1-97,99.7-169.4,111.1c-58.6,9.2-114.7-2-166.1-32.5
	C2257.5,1857.9,2225.5,1785.4,2208.8,1701z M3628.3,1385.8c-4.2-8.4-5.8-13-8.5-16.8c-63.7-92-136.8-175.9-219.2-251.5
	c-206.1-189-440.2-334.2-697.3-442.9c-55.2-23.3-112.1-42.4-168.2-63.5c-15.9-6-29.8-5.1-44.8,5.2
	c-126.6,85.9-253.6,171.4-381,256.2c-19.7,13.1-26.8,26.1-22.7,51.2c14.9,90.5-35.2,175.4-120.4,208.8
	c-56.7,22.2-114.7,26.7-172,3.5c-25.9-10.5-45.7-6.3-68.1,9c-73.7,50.5-147.5,101.2-223.6,147.9c-33.2,20.3-46.5,41-43.1,81.5
	c5.6,67.2-18.4,124.8-76.8,164.8c-72.2,49.5-149.6,58-230.7,27.8c-22.4-8.4-38.8-5.5-57.9,7.1c-127.7,84.3-255.9,167.8-383.9,251.7
	c-5.1,3.3-9.1,8.3-15.9,14.7c59.5-1.2,649.6-93.9,682.3-106.9c1.7-6.1,4.1-13,5.5-20.1c9.4-48.4,37.1-84.8,75.5-113.5
	c116.7-87.1,272.1-63.7,360.6,54.4c8.2,11,15.6,16.4,30.2,14.1c114.9-18,229.8-35.3,344.8-52.3c14.7-2.2,23.7-8.5,30.5-22.2
	c46.7-94.3,127.3-136.2,228.4-140.5c74.5-3.2,143.3,16.9,198.2,70.7c14,13.7,28.2,16.7,46.4,13.7c170.3-27.4,340.7-54.4,511-81.5
	c119.6-19,239.2-38,358.8-57.3C3586.5,1395.7,3606.2,1390.5,3628.3,1385.8z M3403.6,2968.1c-33-140.5-159.7-245.9-324.9-210.1
	c-132.4,28.6-237.5,177.4-206.3,287.9C3048.4,3020.1,3224.5,2994.3,3403.6,2968.1z M1613.5,1632.9c-51,1.1-93.2,20.7-127.7,56.9
	c-37.7,39.4-43.8,91.3-17.4,138.8c49.8,89.4,167.8,120.1,255.3,33.7c60.4-59.7,72.1-182.6-59.8-220.7
	C1647.6,1636.8,1630.4,1635.7,1613.5,1632.9z M2296.1,1687.7c2.2,66.6,43.2,126.9,100.5,150.5c67.6,27.9,128.4,11.3,179.9-35.8
	c47.7-43.7,60.1-100.7,49.1-168.2C2513.5,1652.4,2404.5,1670.1,2296.1,1687.7z M1953.3,3175.4c37.8,2.5,309.7-40.2,333.5-52.4
	c-29.4-60-112.9-96.5-188-82.3C2023,3055.1,1958.6,3114.7,1953.3,3175.4z M2544.7,1560.7c-65.7-43.7-182.8-21.9-209.7,35.6
	C2406.6,1584.2,2475.7,1572.5,2544.7,1560.7z"/>
<path d="M3045,2130.7c3.5-133,91.4-281.5,282.5-279c155.2,2,271.2,121.1,272.8,282.7c1.5,146.9-106.6,276.1-280.8,277.5
	C3167.8,2413.1,3043.3,2283,3045,2130.7z M3131.7,2129.3c0.1,107.2,85.3,197.3,186.6,197.1c110.3-0.2,197.9-85.9,194.8-196.1
	c-3.3-120-89.1-193.9-192.8-194.2C3214.6,1935.9,3131.6,2020.6,3131.7,2129.3z"/>
<path d="M586.4,2192.5c3.5-133,91.4-281.5,282.5-279c155.2,2,271.2,121.1,272.8,282.7c1.5,146.9-106.6,276.1-280.8,277.5
	C709.1,2475,584.6,2344.9,586.4,2192.5z M673,2191.2c0.1,107.2,85.3,197.3,186.6,197.1c110.3-0.2,197.9-85.9,194.8-196.1
	c-3.3-120-89.1-193.9-192.8-194.2C755.9,1997.8,672.9,2082.5,673,2191.2z"/>
<path d="M1141,3187.3c-83.8,0.3-145.6-59.6-145.7-141.4c-0.2-90.6,59.8-152.6,144.8-155.8c70.6-2.7,147.9,63.9,148,151.1
	C1288.1,3123.6,1223.5,3187,1141,3187.3z M1140.7,2973.9c-34.6-0.1-62.7,29.6-63.6,67.3c-0.8,34.5,26.6,63.1,61.5,64
	c37.7,1,66-26.1,65.8-63C1204.3,3007.5,1173.1,2974.1,1140.7,2973.9z"/>
<path d="M1912.8,2525.6c-83.8,0.3-145.6-59.6-145.7-141.4c-0.2-90.6,59.8-152.6,144.8-155.8c70.6-2.7,147.9,63.9,148,151.1
	C2059.9,2461.9,1995.3,2525.2,1912.8,2525.6z M1912.5,2312.1c-34.6-0.1-62.7,29.6-63.6,67.3c-0.8,34.5,26.6,63.1,61.5,64
	c37.7,1,66-26.1,65.8-63C1976.1,2345.7,1944.8,2312.3,1912.5,2312.1z"/>
<path d="M2507.6,2503.4c30,1.5,62.2,7.2,90.2,26.8c37.8,26.5,43.9,68.5,14.9,104.6c-6,7.5-13.1,14.9-21.1,20.1
	c-61.7,39.6-127.1,46.7-195.4,19.6c-29.3-11.6-48.7-32.5-51-65.3c-2.3-32.8,14.3-55.6,41-72.3
	C2422.3,2514.1,2462,2504.1,2507.6,2503.4z M2401.3,2608.1c38.1,27.8,122.2,28.2,156.6,2c17.1-13,15.2-28.8-4.7-39.6
	c-33.4-18-110.5-8.7-138.3,17.5C2409.1,2593.5,2405.7,2601.4,2401.3,2608.1z"/>
<path d="M1348.1,2806.6c-24.9-5.5-50.7-8.5-74.5-17.1c-59.1-21.5-70.5-83.4-23.3-125c44.4-39.1,98.3-48.2,154.8-40.6
	c21.2,2.9,43.7,10,61.4,21.5c49.9,32.6,49.5,89.6,0.8,124.4c-30.8,22-66.8,29.5-103.7,33c-4.9,0.5-9.8,0.1-14.7,0.1
	C1348.6,2804.2,1348.3,2805.4,1348.1,2806.6z M1273.5,2724.1c13.8,9.4,20.2,17,27.7,18.2c41.5,7,83,7.9,121.5-12.5
	c8.6-4.6,20.9-17.3,19.3-22.8c-2.8-9.6-13.7-21.3-23.4-23.7c-37.4-9.2-75.5-8.9-110.8,8.6
	C1295.9,2697.8,1287.4,2710.6,1273.5,2724.1z"/>
<path d="M2342.2,1387.2c-28.2,1-57.3-6.9-84.6-22.3c-66-37.3-89.4-113.2-54-180.2c29.5-55.9,79.1-82,140.6-85.5
	c62-3.5,112.9,19.6,147.5,72.1c39.5,60,28.2,128.7-27.7,173.8C2429.7,1372.9,2390.1,1387.6,2342.2,1387.2z M2341.6,1299.5
	c29.6,1.8,56-5.3,76.6-27.7c16.3-17.7,16.7-38,2-56.3c-30.5-38-98-39.7-130.5-3.3c-14.9,16.7-22.1,36.3-13.7,57.5
	c8,20.3,26.3,27.7,47.4,28.5C2329.4,1298.5,2335.5,1299.1,2341.6,1299.5z"/>
<path d="M2663,831.4c0.2,76.5-60.3,135.1-139.2,134.8c-78.6-0.3-135.4-56.4-135-133.6c0.3-74.1,61.9-134,137.2-133.5
	C2605.5,699.7,2662.8,755,2663,831.4z M2519.8,877.9c36.8-0.1,61.1-19.5,60.9-48.6c-0.1-25.6-25.2-46-55.9-45.7
	c-33.1,0.4-56.7,23.5-55.6,54.3C2470.1,863.9,2488,878,2519.8,877.9z"/>
</svg>
