<?xml version="1.0" encoding="utf-8"?>
<!-- Generator: Adobe Illustrator 24.3.0, SVG Export Plug-In . SVG Version: 6.00 Build 0)  -->
<svg version="1.1" id="Layer_1" xmlns="http://www.w3.org/2000/svg" xmlns:xlink="http://www.w3.org/1999/xlink" x="0px" y="0px"
	 viewBox="0 0 4000 4000" style="enable-background:new 0 0 4000 4000;" xml:space="preserve">
<path d="M3230.1,1339.2c14.1-7.7,23.5-13,33-18c95.4-50,195.2-69.2,299.2-33.8c120.8,41.1,186.4,131.7,211.2,253.6
	c22.7,111.3-3.5,215.7-52.9,314.9c-61.3,123.3-153.6,221.2-259.8,306.8c-134.9,108.8-287,188.5-444.6,258
	c-48.5,21.4-99.5,36.8-149,56.2c-11.8,4.6-24.4,12-32.2,21.7c-75.4,93.2-165.9,169.3-265.6,235c-12.1,8-14.9,17.4-15.5,30.5
	c-1.7,37.8-5.4,75.4-7.1,113.2c-2.9,62.5-38.1,101.6-91.1,127.8c-47,23.3-96.4,39.8-147.6,51c-118.3,25.9-238.4,37.1-359.2,40.7
	c-166.1,4.9-331.5-3-494.9-35.1c-68.2-13.4-135-32.7-197-66.2c-46.5-25.1-76.2-61.4-82.2-114.6c-4.4-39.6-8-79.3-10-119.1
	c-0.8-16.1-6-25.8-19.6-34.7c-151.9-100.4-272.5-230.9-368.6-384.9c-120.8-193.4-194.3-404.8-239.3-627.2
	c-26-128.7-37-259-47.5-389.6c-7.9-99.3,30.1-169.7,113.1-220.7c80.2-49.2,167.9-79.8,257.4-105.7c138.9-40.1,281.1-63.4,424.4-81.1
	c241.3-29.9,483.5-36.8,726.2-29.9c127.9,3.6,255.6,11.2,382.4,29.2c111.3,15.8,222.8,31.4,333.3,52
	c109.8,20.4,216.7,52.6,318.8,98.7c41.1,18.5,79.9,41.2,114.9,70.2c46.6,38.6,68.6,87.8,67.9,147.9
	C3228.1,1301.8,3229.3,1317.8,3230.1,1339.2z M567.6,1377.6c0,18.4-1,31.6,0.1,44.7c17.8,213.1,58.7,421.3,137.1,621
	c68.3,174,162,332.6,292,468.2c160.8,167.7,352.5,275.7,585.8,307c194.1,26,387.2,27.9,580.7-3.5c255.8-41.5,457.7-173.7,622-368.8
	c104-123.5,175.9-265.5,233.5-415.3c76.9-200.3,108.9-410.4,133.7-622c0.6-5.5-1.3-11.3-2.5-20.2c-10.6,4.9-18.7,8.4-26.7,12.3
	c-32.2,15.5-63.7,32.7-96.7,46.4c-136,56.3-279.1,86.6-423.6,109.5c-193.2,30.6-388.2,44.1-583.6,49.3
	c-223.2,5.9-446-0.3-668.2-23.2c-137.4-14.1-274.1-32.1-408.9-62.9c-113-25.8-223.9-57.3-325.7-114.8
	C601.8,1396.8,586.9,1388.4,567.6,1377.6z M829.8,1404.5c0.3,2.6,0.6,5.3,0.8,7.9c7.3,2.8,14.4,6.6,21.9,8.4
	c73.6,17.3,146.8,36.3,220.9,51c188.1,37.2,378.8,53,569.9,58.8c250.5,7.7,501,6.6,750.8-21.4c157.8-17.7,313.4-45,466.3-88.1
	c6-1.7,11.2-5.9,21.9-11.6c-19.4-7.9-33.1-14.2-47.2-19.1c-76.4-26.8-154.7-46.2-234.3-60.4c-150.3-26.9-302.1-39.3-454.3-47.8
	c-310.1-17.4-619.5-7.6-927.9,30.2c-116.9,14.3-232,37.4-344.1,74.3C859.2,1391.6,844.7,1398.5,829.8,1404.5z M1784.2,1060.1
	c-140.7,2.9-307.1,10-473,29.2c-115.9,13.4-231.2,29.2-344.7,56.4c-66.8,16-132.4,36-193.1,68.5c-24.9,13.3-48.8,30.2-69.5,49.4
	c-22.2,20.6-20.1,48.7,0,71.3c4.1,4.6,8.8,8.6,13.2,12.8c17.9,17,20.8,17.1,42.8,7.5c29-12.7,57.5-27,87.5-36.6
	c107.3-34.5,217.3-57.4,328.8-73.3c213.1-30.4,427.7-40.2,642.5-43c182.1-2.3,364,6.6,545.4,24.4c118.1,11.6,235.8,26.2,351.3,54.5
	c73.5,18,147.3,35.4,215.5,69.7c45.7,23,48.5,22.9,84-12.9c5-5.1,9.8-10.5,14.4-15.9c10.6-12.6,12-26.6,1.5-39.2
	c-11.6-14-23.3-28.9-38-39.2c-67.1-47.6-144.8-70.2-222.9-91.6c-133.7-36.7-271-51.9-408.2-66.5
	C2178.5,1065.7,1994.5,1059.7,1784.2,1060.1z M3208.9,1564c2,1.4,3.9,2.8,5.9,4.1c7.5-7.6,15.1-15.1,22.5-22.8
	c51.7-54.5,114.4-85.8,190.1-85.7c66.3,0.1,115.3,30.7,143.6,91.7c16.3,35.3,20.4,72.6,16,111c-7.4,64.3-32.2,122.3-65.4,177
	c-61.3,100.6-146.8,177.9-241.2,245.8c-79.7,57.3-161.7,111.5-251.6,152c-19.4,8.8-34.1,21.3-43.8,40.7
	c-12.7,25.6-27.1,50.4-40.4,75.7c-2.9,5.6-4.6,11.8-8.5,22.4c14.4-5.9,23.9-9.4,33-13.7c30.5-14.4,60.8-29.2,91.2-43.8
	c123.9-59.2,243.5-125.8,351.7-211c102.3-80.6,189.7-174.5,249.4-291.4c39.9-78.2,57.4-161.3,45-249.5
	c-21.8-155.7-152.7-249.3-307.2-219.9c-62.9,12-116.4,43.5-168,78.8c-6.5,4.5-12,14.6-12.8,22.7
	C3214.1,1486.6,3211.8,1525.4,3208.9,1564z M1237,2787.8c2.6,30.8,4.6,55.8,6.7,80.8c2.3,26.5,14.2,47.5,38.7,58.5
	c38.1,17.2,75.8,36.3,115.6,48.1c101.5,30.2,206.7,40,312,45.9c193.8,10.9,386.7,5.7,577.5-34.2c53.2-11.1,104.8-27.7,152.3-55.2
	c18.9-10.9,32-25.2,35-47.4c3.4-25.3,7.1-50.6,10-76c0.7-6.2-1.3-12.8-2.3-21.5c-11.3,5.4-19.3,9.8-27.6,13.2
	c-39.7,16.3-78.7,34.7-119.3,48.1c-114.5,37.8-233.2,52.6-352.9,60.1c-122.9,7.7-245.5,2.5-367.7-12.6
	c-115.3-14.2-227-42.7-334.3-87.5C1267.7,2803,1255.3,2796.5,1237,2787.8z M3054.7,2139.6c14-5.6,22.8-7.5,29.8-12.2
	c64.5-43.1,130.9-83.8,192.4-130.8c73.3-56,138.3-121.2,186.7-201c30.7-50.5,52.1-104.5,52.1-164.4c0-73.8-46.3-110.7-118.6-96.5
	c-2,0.4-3.9,1.1-5.9,1.6c-53.2,12.5-94.9,43.2-126.8,85.9c-25.6,34.2-47.2,71.5-69.1,108.3c-13,21.7-27.8,44-33.7,68
	c-25.5,104.4-58,206.4-96.2,306.7C3062.1,2114.5,3059.7,2124,3054.7,2139.6z M625.4,1332.1c-16.2-78.9,26-121.8,78.4-158.3
	c18.3-12.8,38.4-23.6,58.7-33c65.1-30.2,133.1-52.4,202.9-68.9c172.7-40.8,348.6-60,525.1-71.9c189.9-12.7,380.2-15.8,570.5-7.5
	c201.5,8.8,402.2,24.5,600.7,61.6c89.6,16.7,178.2,37.3,262.5,72.9c51.9,21.9,102.5,46.1,142.3,88.2c24.7,26.1,36.5,56.1,36.1,91.5
	c-0.1,6.9-0.7,13.8-1.5,28.7c17-16.5,30.4-27.1,40.8-40.2c20.2-25.5,20-49.9-0.6-75.5c-10.1-12.6-22.6-23.7-35.4-33.6
	c-64.2-49.7-139.1-77.5-215.4-101.2c-130.2-40.5-263.9-64.4-398.8-83.4c-131.8-18.6-263.9-33.7-396.8-39.4
	c-287.7-12.3-574.8-5.2-860.4,35.8c-151,21.7-300.6,49.6-445.2,99.6c-63,21.8-124.9,46.4-177.6,88.3c-17.2,13.7-31.9,31.6-44.1,50
	c-5.8,8.7-7.4,25.1-3.1,34.5C575.8,1295.2,594.3,1315.5,625.4,1332.1z"/>
<path d="M3001.3,1865.2c-2.2,10.2-4.8,27.5-9.7,44.1c-29.4,100.4-66.3,197.8-118,289.1c-6.5,11.5-13.8,22.7-21.8,33.3
	c-8.2,10.9-19,14.7-32.5,8.9c-15.4-6.6-24.9-17.8-22.8-32.3c1.5-10.9,5.2-22,10.4-31.6c54.3-99.2,95-203.8,124.5-312.8
	c1.9-6.9,3.6-13.9,6.3-20.5c8.1-19.4,19.4-25.4,38.5-21C2995.2,1826.8,3002.2,1836.8,3001.3,1865.2z"/>
<path d="M2959.6,1727.3c5.1-22.8,8.8-46,15.7-68.1c6.1-19.5,17.4-24.8,34.7-21.7c20.3,3.6,33.2,15.8,30.9,35.1
	c-2.9,24-8.3,48.1-16,71.1c-6.9,20.7-19.6,26.7-37.3,23.2C2970.2,1763.3,2961.4,1750.1,2959.6,1727.3z"/>
<path d="M2748.4,2368.3c-2.8-0.9-10.3-1.8-15.8-5.6c-18.1-12.3-19.6-34.2-4.7-57.3c16.3-25.4,35.9-32.7,56.2-20.8
	c18.2,10.7,23.7,27.9,13.8,47.1C2788.3,2350.1,2777,2367.3,2748.4,2368.3z"/>
</svg>
