<?xml version="1.0" encoding="utf-8"?>
<!-- Generator: Adobe Illustrator 24.3.0, SVG Export Plug-In . SVG Version: 6.00 Build 0)  -->
<svg version="1.1" id="Layer_1" xmlns="http://www.w3.org/2000/svg" xmlns:xlink="http://www.w3.org/1999/xlink" x="0px" y="0px"
	 viewBox="0 0 4000 4000" style="enable-background:new 0 0 4000 4000;" xml:space="preserve">
<path d="M2028.3,3718.5c-121.7-3.5-328.9-8.2-536-16.2c-114.8-4.4-229.1-17.1-341.5-42.8c-51.2-11.7-100.6-28.4-147.7-51.7
	c-95.6-47.2-150.2-127.6-181.4-226.2c-18.6-59-26.7-120-31.8-181.5c-14.6-177.1-18.8-354.5-18.3-532c0.9-321.2,3.8-642.3,8.5-963.4
	c0.5-37.1-9.6-57-40-76.2c-115.8-73.1-173.3-184.4-190.1-316.2c-30.1-236.5,47.3-438.6,208.6-610.1
	C864.8,589.1,995,509.9,1135.6,446.6c148.7-66.9,304.9-108.7,465-135.9c228.4-38.7,458.9-49.8,690-41.2
	c199.2,7.5,396.4,32.8,589.6,84.2c148.1,39.4,292.3,89.2,426,165.4c105.2,60,201,132.1,271.8,232
	c130.6,184.3,181.4,386.8,127.2,609.3c-38,156-131.5,271.5-272.7,347.3c-22.8,12.3-28.1,25.5-28.1,50.2
	c-1,371.4-1.7,742.9-6.3,1114.3c-1.5,120.8-7.8,242-28.1,361.7c-12.4,73-30.2,144.3-60.1,212.6c-45.3,103.2-122.1,170.3-228.7,204.4
	c-67.7,21.7-137.3,33.6-207.8,40.6C2620.7,3716.7,2367.3,3717.2,2028.3,3718.5z M842,2324.7c1.7,322.7-2.4,569.1,16,814.9
	c4.7,63.2,14.3,126.3,25.6,188.8c8.6,47.6,27.4,92.4,56.6,131.9c44,59.4,104.5,94.1,174.1,114.7c116.8,34.6,237.4,46.9,358.1,53.3
	c150.6,8,301.4,11.7,452.2,14.2c297.6,5,595.2,3.6,892.1-19.6c69.2-5.4,138.5-16.5,206.5-30.8c118.6-25.1,199-95.6,237.8-212.4
	c23.7-71.5,40.3-144.6,46.3-219.1c10.3-127.7,21-255.7,23-383.8c4.4-292.4,3.6-584.9,5-877.3c0.2-51.3,0-102.6,1.3-153.9
	c1.7-66.4,2.4-66.1,61.2-98.2c136.4-74.5,220.9-187.7,247.9-340.8c20.7-117.6,7.4-233.2-33.6-345.2
	c-47.6-130.2-131.1-233.4-241.4-315.7c-96.3-71.9-204.1-122-316.5-162.1c-232.4-83-472.9-128.3-718.9-140.7
	c-220.6-11.1-440.9-2.3-660,28.7c-165.2,23.4-325.7,63.3-479.9,128.1C1061.9,555.6,938.9,628,834.4,729.6
	c-130.8,127.3-211.3,278.3-218.5,463.9c-2.6,67.3,4.1,133.5,26.2,197.2c29.7,85.8,86.8,150.7,163.4,197.7c34,20.8,45.7,47.2,45,86.4
	C846.3,1916.8,844,2159,842,2324.7z"/>
<path d="M926,1638.4c-28.1-14.1-54.4-24-77-39.3c-117.5-79.1-178.2-191.6-181.4-331.9c-5.4-241,98.2-429.1,289.1-571.6
	c137.9-102.9,294.8-163.8,460-206.5c104.5-27,211-42.6,317.9-55.2c190.9-22.6,382.6-30.8,574.5-17.1
	c206.9,14.8,412.2,42.4,611.3,103.9c144.9,44.7,283.1,104.3,402.9,199.7c137.1,109.2,226,248.7,251,423.6
	c22.5,156.6-9.9,300-117.8,421.3c-33.8,38-74.2,67.4-117.9,92.7c-10.6,6.2-20.8,13.7-32.3,17.8c-28.2,10.2-33.1,30.1-32.7,57.8
	c4.1,273.9,9.8,547.9,9.2,821.8c-0.4,165-9.6,330.2-18,495.1c-4.3,83.9-12.9,167.9-37.1,249c-9,30.3-19.6,60.7-33.7,88.9
	c-50.2,100.8-137.4,150.9-243.9,173.8c-82.5,17.7-166.4,24.8-250.3,29.1c-258.4,13.2-517,8.5-775.5,3.8
	c-134.4-2.5-268.7-8-402.9-15.4c-92.1-5.1-184.2-13.5-275.6-25.1c-39-4.9-78.3-17.7-114.5-33.7c-88.1-38.9-140.7-109.7-169.2-200.3
	c-20.4-65-31.4-131.7-36.6-199.3c-13.2-173-15-346.5-13.9-519.9c1.6-248.3,5.1-496.6,8.4-744.9c0.8-62.6,4.1-125.1,6.1-187.7
	C926.3,1658.7,926,1648.5,926,1638.4z M2186.3,3524.5c200.1,1.9,400.2,6.1,599.9-11.9c66.4-6,132.5-14.2,196.3-35.1
	c72-23.5,125.4-67.8,156.1-138.2c21.5-49.4,34.4-101.4,39.3-154.4c11.8-129.7,24.8-259.5,29.4-389.5c10.4-295.4,3.4-591-0.7-886.5
	c-1.1-74.9-1.1-149.8-2.4-224.7c-0.5-26.8,9.9-45.1,34.2-56.3c16.8-7.7,33-16.6,49.4-24.9c107.8-54.5,178.5-139.3,208.4-256.7
	c22-86.5,19.3-172.9-5.7-258.4c-42-144-131.2-253.6-251.5-339.7c-83.3-59.6-175.5-101.9-271.7-135.5
	c-214.8-74.9-437.5-108.2-663.3-123c-149.7-9.8-299.3-7.7-449,4.5c-131.1,10.7-260.9,28.7-389,58.3
	c-137.6,31.8-269.8,78.3-391.5,151.2c-115.7,69.2-212.8,157.2-273.7,279.9c-54.8,110.4-80.1,226.2-54.4,348.9
	c21.5,102.6,78,179.3,174.7,223.9c10.2,4.7,20.1,10.2,30.6,14.5c33.6,13.8,48.3,37.9,46.2,74.6c-3,52.2-4.3,104.6-5.3,156.9
	c-3.1,158-5.3,316-8.5,474c-5.4,267.8-7.6,535.6,9.8,803.1c3.9,59.1,12.6,118.4,24.3,176.5c25.2,125.4,98.9,204.9,228.4,225.1
	c56.7,8.8,113.7,17.1,170.8,20.6c146.4,9.1,292.9,17.4,439.5,22C1966.6,3527.3,2076.5,3524.5,2186.3,3524.5z"/>
<path d="M3354.8,1204.8c-5.6,29-7.8,59.2-17.5,86.8c-15.8,45.2-48.1,72.5-98.6,74.8c-58.4,2.7-103.4-34.9-109.1-93.4
	c-1.7-17.3-1.4-34.8-1.5-52.3c-0.5-88.8-37.2-155.9-117.5-197.3c-14.6-7.5-29.1-15.4-42.6-24.6c-35.9-24.5-51.2-67.6-40.4-111.2
	c10.6-43.2,44.7-73.6,88.3-78.7c33.3-3.9,65.4,1.5,96.3,14.3c60.4,25.2,108.7,66.3,147,118C3316.9,1019,3350.1,1106.2,3354.8,1204.8
	z M3285.7,1210.5c-0.5-52.7-13.8-102-34.6-149.2c-34.1-77.3-86-139.4-163.7-176.1c-17-8-37-11.3-55.9-13c-16.5-1.4-30,8.8-35.1,24.9
	c-5.1,16.1-4.5,32.9,9.7,45.3c7.6,6.7,16.3,12.3,24.9,17.8c14.7,9.3,29.9,17.8,44.5,27.2c57.9,37.4,94.3,90.6,108.8,157.4
	c6.9,31.8,7.3,64.9,10.3,97.5c0.8,8.1-0.3,16.5,1.1,24.5c4.1,24.1,20,34.7,44.4,30.3c18.9-3.4,32.4-13.9,36.9-32.5
	C3281.3,1247,3282.9,1228.6,3285.7,1210.5z"/>
<path d="M1294.3,778.3c0.3,22.9-16.7,40.9-39.7,42c-22.7,1.1-40.7-16.8-40.5-40.2c0.2-22.7,18.7-42.8,39.3-43
	C1275.5,737,1294,755.6,1294.3,778.3z"/>
<path d="M2819.9,3120.7c-22.6-0.4-36.6-15.9-36.4-40.2c0.2-24.4,17.3-42.7,39.1-42.1c21.4,0.6,41.7,21,41.6,41.6
	C2864.1,3103.9,2845.3,3121.1,2819.9,3120.7z"/>
<path d="M2914.9,3305.2c-21.1-0.3-37.1-17.8-37-40.4c0.2-23.1,18.1-41.4,40.5-41.3c22.2,0.1,41.6,19.5,40.9,40.9
	C2958.6,3288.4,2939.8,3305.6,2914.9,3305.2z"/>
<path d="M1247.7,3026.2c-21.4-0.4-38.1-17.6-38.5-39.7c-0.4-21.5,19.7-41.8,40.7-41.2c22.7,0.7,40.2,19.1,39.9,41.9
	C1289.4,3010,1271.5,3026.6,1247.7,3026.2z"/>
<path d="M1404,1148.3c-21.9-0.5-37.5-16.8-37.7-39.2c-0.2-22.6,17.7-41.8,39.3-42.1c22.2-0.3,42.9,21.4,41.5,43.7
	C1445.7,1133.7,1428.3,1148.8,1404,1148.3z"/>
<path d="M1264.3,1311.3c-0.7,21.9-20.4,39.1-43.6,38.3c-21.1-0.7-37.5-19.5-36.5-41.5c1-21,20.5-40.4,39.5-39.2
	C1245.6,1270.2,1265,1290.4,1264.3,1311.3z"/>
<path d="M1602,731c-21.4,0.6-38.4-15.7-39.6-37.7c-1.2-21.9,17.1-43.5,37.5-44.4c21.1-0.9,40,18,40.9,40.9
	C1641.8,713.9,1626.2,730.3,1602,731z"/>
<path d="M1066.7,1075.3c-22.7-0.4-38.5-16.6-38.1-39.1c0.4-23,19.6-43,40.2-42c21,1.1,41.2,22.1,40.9,42.6
	C1109.4,1059.1,1090.7,1075.8,1066.7,1075.3z"/>
<path d="M1284.8,925.7c21.4,0.3,39.3,17.9,39.2,38.6c-0.1,23.2-17.7,42-39.6,42.1c-21.5,0.1-40.2-20-39.2-42.1
	C1246,943.7,1264.8,925.4,1284.8,925.7z"/>
<path d="M2710.2,3431.7c-21.6,0.2-38.2-16.6-38.2-38.8c0-24.9,15.6-41.6,38.7-41.3c22.8,0.3,41.5,18.6,41.2,40.3
	C2751.5,3414.4,2733.7,3431.4,2710.2,3431.7z"/>
<path d="M1518.7,3020.4c0.7,24.1-14.7,41-38.6,42.3c-22.1,1.2-39.5-14.5-40.5-36.6c-1.1-23.9,14.8-42.9,36.9-44
	C1500.4,2980.9,1518,2997,1518.7,3020.4z"/>
<path d="M1336.9,3234.4c21,0.2,38.3,17.8,38.7,39.5c0.5,22.7-17.4,40.5-40.7,40.7c-21.4,0.1-39.1-17.5-39-38.8
	C1296.1,3253.9,1315.5,3234.3,1336.9,3234.4z"/>
<path d="M2589,3289.1c0.4,23-14.7,39-37.4,39.4c-22.5,0.4-38-14.7-38.7-38.1c-0.8-22.4,14.9-41.2,35.3-42.4
	C2569.2,3246.7,2588.6,3266.3,2589,3289.1z"/>
<path d="M1191.2,2794.6c-20.5-0.7-36.7-17.2-36.8-37.4c-0.1-22.4,19.7-42.2,40.8-40.9c19.7,1.2,37.3,19,37.5,37.8
	C1232.9,2775,1212,2795.3,1191.2,2794.6z"/>
</svg>
