<?xml version="1.0" encoding="utf-8"?>
<!-- Generator: Adobe Illustrator 24.3.0, SVG Export Plug-In . SVG Version: 6.00 Build 0)  -->
<svg version="1.1" id="Layer_1" xmlns="http://www.w3.org/2000/svg" xmlns:xlink="http://www.w3.org/1999/xlink" x="0px" y="0px"
	 viewBox="0 0 4000 4000" style="enable-background:new 0 0 4000 4000;" xml:space="preserve">
<path d="M860.6,2603.8c-5.7-462.3-9.7-830.6-15.4-1198.8c-0.8-49.5,8.2-94.4,30.8-138.4c80.9-157.6,160.7-315.8,240.8-473.8
	c38.8-76.4,77.3-153.1,116.6-229.2c10.3-20,14.2-40.3,13.6-62.6c-1.7-67.4-3.1-134.9-2.6-202.4c0.2-22.6,4.1-45.7,10-67.5
	c20.2-74.7,85.1-126.7,163.4-128.6c61.7-1.5,123.5,0.3,185.2,2.4c165.7,5.7,331.4,11.8,497.1,18.9c254.8,10.8,509.5,22,764.2,34.2
	c110.9,5.3,178.3,66.9,190.8,178c7.2,64.5,9.5,130.2,6.6,195.1c-2.5,57.8,14,101,55.2,142.9c84.8,86.5,163.4,179,245.5,268.2
	c33.9,36.9,52.5,76.6,52.6,128.9c0.5,227.6,5.3,455.1,6.7,682.7c2.7,460.9,4.2,921.8,6.2,1382.8c0.2,38.9-1.4,77.8-0.4,116.7
	c0.8,28.9-9.9,50.6-32,68.3c-51.8,41.4-103.3,83.2-154.7,125c-141.8,115.6-283.5,231.3-425.4,346.8c-28.4,23.1-57.7,45-86,68.2
	c-18.8,15.4-39.6,21.4-63.6,19.5c-153.9-11.8-307.8-23.3-461.7-34.7c-138-10.2-276-20-413.9-30.5c-96.9-7.4-193.7-15.8-290.6-23.7
	c-126.5-10.3-253-20.2-379.4-31.1c-59.2-5.1-118.5-10.3-177.3-18.6c-53.5-7.5-67.4-24.8-68.9-80c-2.5-97.2-4.3-194.4-5.3-291.6
	C865.3,3083.8,862.6,2796.8,860.6,2603.8z M2637.7,2205.8c-555.3-36.1-1105.8-71.9-1661.2-108c4.9,282.7,9.8,561,14.6,838.3
	c45.6,12.3,1613.1,115.5,1646.6,109.3C2637.7,2767.6,2637.7,2489.9,2637.7,2205.8z M975.3,2032.6
	c61.3,11.3,1632.9,110.5,1660.8,104.5c0-72,0-144.8,0-217.7c-0.1-72,0-144.1-0.4-216.1c-0.4-72.6,2.4-145.3-1.7-220.6
	c-551-33.7-1097.4-67.1-1643.8-100.5c-4.4-0.3-9,0.9-13.4,1.6c-1,0.2-1.9,1.1-2.8,1.8c-0.9,0.7-1.7,1.6-6.1,5.8
	C970.2,1602.5,972.7,1817,975.3,2032.6z M2640.7,3116.8c-66.5-12.5-1618.8-114.2-1647.8-108.1c-0.6,6.1-1.8,12.7-1.8,19.3
	c2,189.8,4,379.6,6.3,569.5c0.1,9.8,2.5,19.6,4,30.4c524.7,41.7,1046.5,83.3,1568.2,124.7c21.5,1.7,43.2,1.7,64.9,2.4
	c1.1,0,2.3-0.6,3.2-1.2c0.9-0.6,1.5-1.7,3.1-3.6C2640.7,3540.1,2640.7,3329,2640.7,3116.8z M2928.9,660.3
	c-39.2-1.9-72.3-3.4-105.3-5c-156.5-7.7-312.9-15.8-469.4-23.2c-178.2-8.5-356.4-16.5-534.6-24.9c-143.9-6.8-287.8-13.6-431.7-20.8
	c-18.6-0.9-29.9,5.7-37.7,22.6c-13.9,30.1-28.8,59.7-43.9,89.2c-99,194.6-198.2,389.1-297.2,583.7c-5.5,10.8-9.7,22.2-15.9,36.5
	c12.8,1.9,21.5,4,30.2,4.5c159.8,9.6,319.6,19.1,479.4,28.6c130.1,7.7,260.3,15.2,390.4,23.3c239.7,14.8,479.3,29.9,719,44.8
	c30.7,1.9,30.8,1.6,42.1-27.4c26.8-68.1,54.1-135.9,80.1-204.3c60.9-160.2,121.3-320.6,181.6-481.1
	C2921,693.2,2923.8,678.9,2928.9,660.3z M3298.5,1774c-12.3,6.9-20.3,10.3-27.2,15.3c-73.3,52.7-146.1,106.2-219.8,158.3
	c-112,79.2-224.3,157.9-337.3,235.6c-15.2,10.5-17.3,21.9-17.2,37.2c0.8,257.3,1.5,514.6,2.3,771.8c0,10.9,1.6,21.8,2.8,36
	c10.2-5.8,17.2-8.9,23.3-13.3c185.7-133.3,371.2-266.9,557.2-399.8c15.4-11,22.5-22,22.4-41.8c-2-252.7-2.9-505.4-4.2-758.1
	C3300.6,1803.2,3299.4,1791.1,3298.5,1774z M2938.6,600.5c2.4-11.2,4.2-15.5,4.2-19.8c-0.8-70.9-0.8-141.7-3.1-212.6
	c-2-61-27.7-86.4-88.7-89c-253.5-10.8-507-21.5-760.5-31.4c-186.2-7.3-372.4-13.3-558.5-19.8c-33.1-1.2-66.3-1.5-99.4-2.8
	c-17.3-0.7-30.5,6.2-43,17.4c-18.5,16.8-23.9,37.8-23.6,61.8c0.8,62.9,1,125.7,1.7,188.6c0.1,8.8,1.8,17.6,3.2,30.2
	C1893.7,549,2414.9,574.7,2938.6,600.5z M3290.6,1102.2c-10.4,5.2-16.7,7.7-22.3,11.3c-63.5,40.8-126.5,82.3-190.3,122.6
	c-120.8,76.3-241.9,152.2-363.3,227.4c-14.8,9.2-19.6,19.6-19.5,36.2c0.9,191,1.1,382,1.6,573c0,14.4,0,28.7,0,49.9
	c15.7-9.9,25.3-15.4,34.3-21.7c89.3-63.9,178.1-128.4,267.7-191.7c92.4-65.3,185.4-129.9,278.7-194.1c16.9-11.6,24.7-24.2,22.5-45.5
	c-2.8-26.1-2.3-52.5-2.5-78.8c-1.2-148.7-2-297.4-3.3-446C3294.1,1131.7,3292,1118.6,3290.6,1102.2z M3304.1,2672.1
	c-12.6,7.5-19.5,10.9-25.5,15.4c-57,42-113.4,84.9-170.9,126.3c-129.8,93.4-259.9,186.6-390.8,278.5c-16.3,11.4-18.3,23.5-18.2,40
	c0.8,174.9,1.3,349.7,2.1,524.6c0.1,20.2,1.9,40.4,3.3,67.8c20.7-16.9,36.2-29.6,51.7-42.2c176.1-143.8,352.1-287.8,528.5-431.3
	c14.4-11.8,20.8-24.3,20.7-43.7c-0.9-165.7-0.7-331.4-0.8-497.2C3304.1,2699.4,3304.1,2688.6,3304.1,2672.1z M2725.7,1374.3
	c2.4,2.3,4.7,4.7,7.1,7c169.9-107.7,339.7-215.4,509.6-323.1c-0.7-2.9-1.5-5.8-2.2-8.6c-124.9-12.4-249-31.7-374.2-42.7
	C2818.3,1132,2772,1253.1,2725.7,1374.3z M2886,949.1c63.5,8,119.7,16.3,176.2,21.7c56.6,5.4,112.9,17.8,176.8,16.8
	c-87.9-98.6-170.7-191.4-258-289.3C2948.5,784.3,2918.4,863.7,2886,949.1z"/>
<path d="M1197.5,2449.1c-9.6,48-19.3,96.1-28.9,144.1c-7.4,37-14.6,74-22.2,110.9c-2.1,10.1-4.4,20.2-7.9,29.8
	c-9,24.7-25.8,34.8-46.7,29c-21.8-6-31-21.9-25.8-48.3c8.2-41.5,17.4-82.7,26.3-124c16.2-74.8,32.5-149.6,49.1-224.3
	c3-13.3,6.7-26.7,11.7-39.3c13.9-34.8,51.8-40.6,75.5-11.1c8.4,10.5,14.8,23.2,19.8,35.8c24.2,60.4,47.7,121.2,71.5,181.8
	c2.8,7.2,6.4,14,12.7,27.5c8.7-16.2,15.4-27.3,20.8-39.1c24.4-52.9,47.9-106.2,72.7-158.9c6.2-13.2,14.2-26.5,24.3-36.9
	c21.5-22,55.3-15.9,68.3,11.8c5.8,12.2,9.6,25.8,11.7,39.2c18.8,117.4,37,234.8,55.3,352.3c0.9,5.6,1.5,11.4,1.7,17.1
	c0.9,25.8-10.5,42.3-31.3,45.8c-23.1,3.8-38.6-8.3-43.9-37c-5.8-31.4-10-63.2-14.6-94.9c-8.8-59.9-17.3-119.9-26.1-179.8
	c-0.9-6.3-2.4-12.6-5.1-26.5c-8.3,14.8-13.5,22.9-17.6,31.6c-22.5,48.8-44.7,97.7-67.2,146.5c-3.8,8.3-7.8,16.7-12.9,24.1
	c-22.8,33.3-61.9,31.8-78.5-4.8c-20.3-44.7-37.1-91-55.4-136.5c-9.2-22.8-18.5-45.5-27.8-68.2
	C1203.9,2447.7,1200.7,2448.4,1197.5,2449.1z"/>
<path d="M2319.6,2585.7c10.1,11.6,19.6,22.6,29.3,33.5c39.5,44.3,79.3,88.4,118.5,133c9,10.2,17.4,21.3,24.2,33.1
	c12.1,20.9,10.4,33.4-4.1,45.9c-15.2,13.2-34.4,15.8-50.4,4.1c-10.8-8-20-18.6-28.8-29c-37-43.5-73.7-87.3-110.1-131.3
	c-5.8-7-9.5-15.5-14.2-23.4c-3.2,1.9-6.3,3.8-9.5,5.7c-1.4,6.9-3.6,13.8-3.9,20.8c-1.7,33.1-2.4,66.2-4.5,99.3
	c-0.8,12.4-3.2,25-7.2,36.7c-5.6,16.1-18.8,21.5-35.5,20.6c-17.4-0.9-27.4-10.5-31.3-26.5c-1.9-7.6-1.7-15.9-1.5-23.8
	c2.7-127.9,5.2-255.8,8.4-383.7c0.9-35,10.8-47.1,35.8-48.2c23.5-1.1,37.1,9.7,38,33.7c1.1,28.5-0.1,57.1,0.1,85.7
	c0.1,14.3,0.9,28.6,1.6,50c13.5-10.4,21.7-15.7,28.7-22.2c36.9-34.1,73.5-68.6,110.3-102.7c7.5-7,15.2-14,23.7-19.7
	c17.9-12.1,30.9-11.5,43.3,0.6c14.8,14.5,16.9,31.7,3.3,49.1c-10.5,13.4-23.3,25-35.8,36.7c-37.6,35-75.6,69.6-113.3,104.6
	C2330,2572.7,2326,2578.3,2319.6,2585.7z"/>
<path d="M1944.6,2740.8c34.5,1.3,68.4,2.2,102.3,4c14.7,0.8,29.8,1.3,43.8,5.3c20,5.7,32.4,24.2,30.4,40.4
	c-2.5,20-16.7,34.3-40.8,33.3c-59.2-2.4-118.5-6.3-177.5-11.9c-27.6-2.6-38.1-14.8-39.4-42.9c-1.7-34.1-0.8-68.4,0.4-102.6
	c3-88.9,6.8-177.8,10.3-266.8c0.3-8,0-16,1.1-23.9c3.4-25.2,15.4-36.8,36.9-36.5c23.1,0.3,37.5,13.4,37.8,39.4
	c0.5,38.8-1.6,77.5-2.7,116.3c-2,74.1-4.1,148.3-5.8,222.4C1941.3,2723.8,1943.1,2730.4,1944.6,2740.8z"/>
<path d="M1678,2567.5c1.7-60.6,3.4-121.1,5.3-181.7c0.3-9.1,1.1-18.3,3.5-27.1c5.5-20.5,16.9-28.4,37.3-27.6
	c21.2,0.8,35.3,11.9,37.7,32.4c1.6,13.5,0.2,27.4-0.2,41.1c-3.4,115.4-6.7,230.8-10.5,346.2c-0.3,10.1-2.6,20.4-5.9,29.9
	c-5.6,16-18.1,22.9-34.9,21.5c-16.6-1.4-31-13.2-34.1-29c-1.7-8.9-1.2-18.2-1.3-27.3c-0.1-59.4,0-118.9,0-178.3
	C1676,2567.5,1677,2567.5,1678,2567.5z"/>
<path d="M1877.1,1238.4c-52.8,0-102.3-11.9-149.5-34.6c-51.6-24.8-86.1-64.5-99.4-119.9c-10.9-45.5-19.9-91.7-25.6-138.1
	c-6.1-49.9,15.3-91.7,49.7-126.5c38.6-39.1,86.4-63.7,138.1-80.2c75.4-24.1,151.8-31.9,229.8-11.7c81.5,21.1,131.4,70.5,143.2,155.5
	c5,36.2,10.1,72.4,15.4,108.6c8.9,60.5-12.7,109.9-54.9,151.8c-46.1,45.7-102,73.1-165.1,85.4
	C1931.8,1233.8,1904.3,1235.2,1877.1,1238.4z M1820.7,1030.9c84.8-0.8,149.7-21.2,208.4-59.1c19.8-12.8,38.3-29.5,52.9-48.1
	c30.5-39,23.6-81-16.9-110.1c-14.6-10.5-31.9-18.1-49-23.8c-69.4-23.1-138-11.6-205.5,8.8c-45.4,13.7-86.6,36.4-119.5,71.3
	c-41.9,44.4-35.2,94.7,16.5,126.8C1746.5,1020.7,1789.1,1032.3,1820.7,1030.9z M2118.8,972.6c-57.8,63.3-126.4,95.8-203.8,111.3
	c-79,15.8-155.5,9.6-227.9-27.8c-2.2,5.8-3.6,7.9-3.5,9.8c0.2,3.3,1,6.7,2.2,9.9c12.4,32.4,34.9,55.3,65.6,71.2
	c103.3,53.8,258.5,29.3,340.4-53.8C2123.9,1060.6,2126.4,1021.8,2118.8,972.6z"/>
</svg>
