<?xml version="1.0" encoding="utf-8"?>
<!-- Generator: Adobe Illustrator 24.3.0, SVG Export Plug-In . SVG Version: 6.00 Build 0)  -->
<svg version="1.1" id="Layer_1" xmlns="http://www.w3.org/2000/svg" xmlns:xlink="http://www.w3.org/1999/xlink" x="0px" y="0px"
	 viewBox="0 0 4000 4000" style="enable-background:new 0 0 4000 4000;" xml:space="preserve">
<path d="M3179.6,1523.6c13,44.8,26.4,84.8,36.2,125.7c27.2,113.9,6,221.5-45.8,324.5c-39.9,79.2-95.3,147.3-153.6,213.1
	c-136.8,154.5-286.2,296.1-441.4,431.9c-131.4,115.1-265.4,226.8-410.5,324.4c-75.1,50.5-154.5,91.6-243.9,111.5
	c-98.8,21.9-195.7,19-290.5-18.7c-2.9-1.2-6.3-1.1-13.6-2.4c-2.4,11.2-5.5,22-7,33.1c-14.7,112.3-39.9,221.7-86.6,325.5
	c-27.8,61.7-60.9,120-111.7,166.1c-41.2,37.3-87.5,62.5-145.7,62.4c-61-0.1-110.2-24.4-146.9-70.6c-20.5-25.8-34.9-57.1-49-87.3
	c-13.7-29.4-22.2-61.1-35.5-90.7c-13.3-29.6-21.1-31-53.7-29.1c-35.6,2-72.3,6.7-106.8,0.4c-113.2-20.5-145.5-111.6-139.8-195.6
	c2.1-31.3,6.6-62.5,11-93.6c2.7-19.2-4.5-31.4-22-38.1c-17.2-6.6-34.6-12.6-51.7-19.4c-34.2-13.6-69.6-25-102-42
	c-104.9-55.3-122.7-172.7-40.8-258.5c30.4-31.8,66.9-54.8,105.6-74.9c104.9-54.4,217.1-86.1,332.5-108c33.8-6.4,67.6-12.2,105.2-19
	c-4.3-13.3-7.2-25.5-12-37c-30.9-75.1-47.1-152.9-45.8-234.4c1.8-107.9,40.4-202.9,98.3-291.6c45.8-70.2,101.2-132.8,158.1-193.8
	c220.8-236.5,455.5-458.2,710.4-657.8c63-49.3,129.2-95.2,197.3-137.2c77-47.4,162.8-70.3,254-68.4c87.4,1.8,168.5,26.3,244.1,69.8
	c5.4,3.1,11.3,5.4,20.6,9.9c3.1-13.4,6.2-24.5,8.1-35.8c18.9-112.8,50.9-221.6,101.5-324.5c24-48.8,51.8-95.2,87.9-136.2
	c32-36.3,68.8-65.6,115.8-80.8c72.8-23.6,150.9-1.1,199.3,58.2c30.1,36.9,46.9,80.1,60.5,125c7.6,24.9,15.4,49.6,23.5,74.3
	c5.8,17.6,17.7,24.3,37,24.3c33.4,0.1,67.6,0.1,100.1,6.6c82.1,16.4,133.4,79.2,138.3,162.6c2.6,43.9-5.7,86.3-15.1,128.7
	c-9.4,42.5-5.8,47.8,33.1,69.1c42.7,23.4,85.5,46.8,126.8,72.5c30.9,19.1,54.5,46.2,70.5,79.3c33.3,68.9,14.3,148.3-50.7,197
	c-30.1,22.5-63.6,41.8-97.9,57.1c-98.7,44.1-203.5,66.8-310.5,79.6c-34.4,4.1-69.1,5.3-103.7,8.1
	C3207.4,1519.9,3193.6,1521.9,3179.6,1523.6z M2880.2,1097c4.4-18.1,7.5-30.3,10.3-42.6c20.2-90.6,54.6-175.7,98.3-257.3
	c5.6-10.4,12.7-20.1,19.8-29.7c7.8-10.4,18.1-10.3,29.1-5.3c19.9,9,22.7,22.6,9.1,45.2c-60.2,99.9-95,208.5-112.7,323.3
	c-1.9,12.1,0.8,20.6,8.5,29.5c21.3,24.6,42.5,49.3,62.6,74.8c9,11.4,19,17.1,33.3,15.3c24.7-3.1,49.7-4.8,74.1-9.6
	c77.9-15.4,153.1-39.2,224.5-74.3c20.5-10.1,31.3-6.7,40.4,11c7.9,15.4,4.3,26.1-13.6,37.6c-7.3,4.7-15.1,8.5-23,12
	c-81.5,36.3-165.7,63.9-254.6,75.7c-7.9,1-15.5,3.9-24.2,6.1c17.2,27.4,32.9,51.9,47.9,76.8c7.1,11.8,17,14.6,30,14.8
	c131,1.9,259.6-14.1,384.7-53.5c48.6-15.3,96.4-34,136.4-67c30.8-25.5,30.2-49.7,0.3-75.9c-7.3-6.4-15.3-12.2-23.8-16.9
	c-25.6-14.1-51.8-27.2-77.4-41.3c-28.4-15.7-57.8-30.1-84.2-48.8c-36.6-25.8-51.8-63.5-45.5-108c4.1-28.9,12.7-57.1,16.7-86
	c3.7-26.6,6.8-53.8,4.8-80.3c-1.8-25.4-17.2-38.6-42.4-41.5c-22.5-2.6-45.5-1-68.1-2.8c-23.6-1.9-47.8-2.8-70.3-9.4
	c-45.8-13.3-68.9-51-85.6-91.9c-11.9-29-18.1-60.1-28.6-89.7c-8.3-23.4-16.7-47.3-29.4-68.3c-21.5-35.5-59.6-45.8-95.8-26.1
	c-18.6,10.1-36.3,24.5-49.8,40.7c-20.7,24.8-39.8,51.7-55.6,79.9c-69.7,124.3-101.5,259.6-112.9,400.5c-0.6,7.2-1,17.3,3.1,21.6
	C2835.3,1055.5,2855.9,1073.9,2880.2,1097z M1440.6,2925.1c-2.2,14.8-4.4,23.3-4.5,31.8c-1,65.4-11.7,129.6-29.1,192.3
	c-8.9,32.2-21.9,63.4-35,94.2c-7.9,18.7-25.9,24.1-42.9,16.3c-13-6-14.4-14-6.3-35.8c1.5-4.1,3.3-8,4.8-12.1
	c37.1-99.5,58.4-201.5,53.1-308.4c-0.9-18.8-7-31.5-20.4-44.8c-43.6-43.6-86.2-88.3-126.9-134.5c-12.6-14.3-24.2-20.8-41.5-16.3
	c-47,12.3-95.3,21.3-140.3,39c-47,18.4-90.9,45.1-135.9,68.7c-20.4,10.7-29.2,10.4-39.4-3.7c-9.4-13.1-7.9-23.2,6.4-36.8
	c6.3-5.9,13.4-11.1,20.6-15.9c75.8-50.1,157.8-85.3,247.1-103.3c6.7-1.4,13.1-4.6,20.7-7.4c-5.2-10.2-8.9-18-13.1-25.6
	c-6.9-12.4-16-17.6-31.8-15.7c-100.1,12.3-198.9,30.7-295.4,60.7c-60.2,18.7-119,41-172.2,75.1c-20.6,13.2-39.4,30.4-55.6,48.9
	c-13.8,15.7-11.2,28.5,4.4,42.7c9.4,8.6,20.8,15.8,32.5,21c23.8,10.4,48.4,18.7,72.5,28.4c29.1,11.7,59.3,21.5,86.7,36.3
	c41.3,22.2,63.8,58.2,61.3,106.3c-1.4,26.9-6.3,53.7-9.1,80.6c-2.2,21.5-5.9,43.1-5,64.5c1.3,33,23,54.4,55.9,56.4
	c20.4,1.2,41-1.3,61.5-2.7c15.1-1,30.1-3.6,45.2-4.2c46.1-1.6,83.3,17.2,106.4,56.4c17.9,30.5,30.5,64.2,44.6,96.9
	c11.5,26.8,19.7,55.3,33,81.1c19.8,38.1,57,56.5,91.3,43.9c20.7-7.6,40.2-21.3,56.9-36c29.6-26.2,48.9-60.4,65.3-96.1
	c46.7-101.3,73.1-208.1,85.3-318.7c3.1-27.7,5.8-55.5,8.5-81.6C1479.7,2952.5,1462.3,2940.3,1440.6,2925.1z M2011.9,2897.7
	c-15.6-15.7-28.6-28.1-41-41.3c-183.6-195.8-231.7-490-117.5-732.4c57.7-122.6,146.7-213.7,278.8-256.8c5.6-1.8,10.6-5.4,19.3-10
	c-36.5-20-72.3-26.7-109-27.6c-98.8-2.5-187.6,30.3-270,81.7c-133.3,83.1-226.5,200.3-286.7,344.3c-48,114.8-70.8,234.4-60.4,358.9
	c4.3,51.7,13.5,103.1,23,154.2c2.3,12.3,12.2,25.9,22.6,33.6c42.6,31.5,84.8,64.6,130.8,90.5
	C1734.5,2967.4,1870.1,2967.3,2011.9,2897.7z M2191.6,1813.7c2-1.9,4-3.9,6-5.8c-9.2-16.8-16.8-34.8-28-50.1
	c-45.4-62.4-108-99-182.2-116.4c-113.6-26.7-225.9-14.7-337.9,11.4c-71.1,16.5-138.1,44.2-204.4,73.8
	c-37.9,38.6-75.8,77.1-113.5,115.9c-9.8,10.1-19.8,20.2-28.3,31.3c-36.8,48.2-75.8,94.9-109,145.5c-55,83.6-76.6,176.1-60.6,276.1
	c10.9,68.4,37.5,130.9,72.3,190.3c43.5,74.2,98.1,140.1,152.6,206.1c5,6.1,11.8,10.8,21.2,19c-0.7-12.7-0.3-20.3-1.7-27.6
	c-11.3-62.4-9.9-124.8-4.3-187.8c16-179.1,79.8-338.3,193.3-477.5c80.4-98.7,178.6-173.1,299.9-214.7c105.2-36.1,209.8-42.1,313,7.5
	C2183.6,1812.3,2187.7,1812.7,2191.6,1813.7z M2162.3,1917.9c-8,1.2-13,1.3-17.5,2.8c-66.6,22-121.4,61.7-167.1,114
	c-72.8,83.2-115.8,180.1-127.4,290c-21.5,203.7,40.5,378.2,186.8,522.2c24.7,24.2,27.3,25.1,54.2,4.3
	c108-83.5,215.6-167.5,323.1-251.7c20.2-15.8,39.2-33.2,58.7-49.7c-2.7-3.7-3.6-6.3-5.3-7c-8.9-3.9-17.9-7.4-27-10.9
	c-100.1-39.1-187.2-96.6-248.6-186.2c-81.2-118.5-102.5-246.3-49.5-382.8C2148.1,1948.8,2154.7,1935.2,2162.3,1917.9z
	 M2967.5,1379.9c-4.1,17-7.1,27.3-9.1,37.8c-21.1,113.8-66.3,216.9-134,310.7c-58.7,81.3-130.1,148.6-219.9,193.7
	c-103.9,52.2-212.1,75.4-326.4,33.9c-2.4-0.9-5.8,1-8.8,1.6c18.2,48.3,57.8,90.5,110.6,119c93.9,50.6,194,56.5,297,41.9
	c123.8-17.5,234.2-68.8,337.9-135.7c17.5-11.3,33.1-28.6,43.8-46.6c55.6-93.2,68.6-192.1,36.6-296.9
	c-26.2-85.7-66.9-164.3-111.8-241.1C2980.4,1393,2975.4,1388.9,2967.5,1379.9z M2337.5,1912.9c0.7,2.3,1.4,4.5,2.1,6.8
	c50.6,6.4,100.8,3.2,150-11.5c86.9-25.9,162.3-71.9,225.7-136.5c121-123.3,186.9-271.6,199.3-443.9c1.2-16.5-3.1-29.7-14.2-41.4
	c-40.3-42.4-79.1-86.4-121.3-126.9c-72.1-69.2-154.9-121.8-251.7-150.1c-9.8-2.9-19.9-4.8-37.3-8.9c10,16.9,16,26.8,21.6,36.9
	c6.4,11.3,13.1,22.5,18.6,34.3c89.7,193.6,89.9,390.5,16.1,587.8c-37.6,100.6-101.2,183.7-193.7,242.2
	C2347.3,1904.9,2342.5,1909.1,2337.5,1912.9z M2306.9,1858.3c11.4-5.2,17.3-7.3,22.5-10.5c51.4-30.5,91.3-72.5,122.7-123
	c53-85.4,80.9-178.4,89.4-278.5c13.3-156.9-19.9-300.9-110.1-431.1c-11.4-16.5-23.1-22.5-43.1-19.8c-52.2,7-100.9,23.5-147.4,47.8
	c-80.1,42-150.4,98-220.9,153.7c-3.6,2.9-5.3,8.1-9.2,14.3c13.1,6,23.7,11,34.4,15.6c58.1,25.3,110.2,59.8,156.7,102.8
	C2334.3,1452.1,2404.5,1656.5,2306.9,1858.3z M2936.9,2103.4c-1.8-2.6-3.6-5.3-5.3-7.9c-18.4,8.2-36.6,16.8-55.2,24.5
	c-130.9,54.2-265.7,79.1-406.3,47.4c-113.5-25.5-203.5-83.8-255.2-192.2c-2.2-4.6-5.8-8.6-8.8-13c-3,2.3-5.1,3.3-6.2,5
	c-2.3,3.6-4.4,7.4-6,11.4c-37.3,88.8-36.8,178.3,3.1,265.1c58.4,126.9,161.2,202.9,292.3,244.9c29.5,9.5,50.9,5.4,73-16.3
	c111.3-109.4,223.7-217.7,335.4-326.6C2911.4,2132.2,2923.9,2117.5,2936.9,2103.4z M2256.8,1822.3c2.5,0.1,4.9,0.3,7.4,0.4
	c4.4-8.4,10.1-16.5,13.1-25.4c37.9-110.7,29.5-217.6-28.3-319.6c-62.5-110.2-158.5-178.1-277.5-216.3c-15.3-4.9-27.4-3-39,7.1
	c-13.9,12.1-28,24-41.6,36.3c-108.4,98.1-216.7,196.3-324.8,294.7c-5.5,5-9.2,11.8-17,22c10.2-2.5,14.4-3.3,18.4-4.5
	c78.1-22.8,157-40.6,238.6-45.3c86.5-4.9,171.3,2,252.1,34.6c89.4,36.1,155.6,96.8,188,190
	C2249.3,1805.2,2253.3,1813.7,2256.8,1822.3z"/>
</svg>
