<?xml version="1.0" encoding="utf-8"?>
<!-- Generator: Adobe Illustrator 24.3.0, SVG Export Plug-In . SVG Version: 6.00 Build 0)  -->
<svg version="1.1" id="Layer_1" xmlns="http://www.w3.org/2000/svg" xmlns:xlink="http://www.w3.org/1999/xlink" x="0px" y="0px"
	 viewBox="0 0 4000 4000" style="enable-background:new 0 0 4000 4000;" xml:space="preserve">
<path d="M2229.9,893.1c9.1-5.8,17-10.7,24.9-15.7c9.3-6,18.3-12.5,28-17.8c35.5-19.4,65.1-15.8,95.3,12.3
	c14.4,13.4,27.3,28.3,42.7,44.4c6.5-4,12.9-8,19.4-12c12.1-7.5,23.8-15.6,36.3-22.3c32.2-17.1,63-12.9,90.5,10
	c13.8,11.5,25.5,25.8,37.4,39.4c12,13.6,13.6,14.4,29.4,4.8c11.5-7,22.4-15,34.2-21.2c38-20.1,68.9-16,99.1,14.5
	c14.4,14.5,26.7,30.9,41.5,48.2c5.7-3,11.9-5.8,17.7-9.2c14.9-8.9,29.1-19.1,44.5-27.1c31.8-16.5,61.3-12.7,87.2,12.1
	c15.3,14.7,28.4,31.6,44.5,49.9c6.3-3.5,13.6-7.3,20.8-11.5c14.9-8.8,29.4-18.5,44.7-26.5c28.1-14.7,55.6-11.5,79.8,8.3
	c14.5,11.9,26.7,26.7,39.7,40.4c4.3,4.5,7.7,9.8,13,16.7c7.8-3.9,15.5-7.2,22.7-11.4c16.3-9.6,31.8-20.9,48.7-29.3
	c39.2-19.3,73-13.6,103.8,17.2c13.9,13.9,25.9,29.6,40.4,46.4c7.8-3,16.4-6.3,24.9-9.7c19.1-7.5,37.7-16.8,57.4-22
	c55.9-14.8,102.9,23.2,99.4,80.6c-1.2,20.2-5.6,40.9-12.2,60.1c-13.6,39.6-29.1,78.5-45,117.2c-7.6,18.3-9,35.5-4.7,55.1
	c17.5,80,22,161.1,17.1,242.8c-8.7,145.3-31,289.1-47.8,433.5c-14.6,125.6-29.2,251.2-44.4,376.7c-9.9,81.6-20.1,163.1-31.8,244.4
	c-11.5,80.4-38.6,156.4-70.6,230.5c-9.4,21.7-13.5,42.3-9.2,66.3c7.1,39.6,11,79.8,14.9,119.9c1.5,14.7,1.4,30.2-1.5,44.7
	c-9.9,49.1-54.2,74.7-102.3,60c-26.2-8-48-23.8-69.1-40.6c-14.8-11.8-17.9-12.1-33.2-1.5c-15,10.3-29.3,21.6-44.6,31.2
	c-32.2,20-63.2,16.4-92.1-7.1c-12.9-10.5-25.4-21.3-37.5-32.7c-17.3-16.3-17.1-16.6-37.8-3.2c-7.3,4.7-14.2,10.1-21.4,14.8
	c-9.3,6-18.5,12.2-28.1,17.5c-31.5,17.6-61.1,13.5-87.5-10.1c-15.9-14.2-30.2-30.1-45-45.4c-11.5-11.9-13.9-12.6-28.3-4
	c-16.3,9.7-32,20.5-48.5,29.7c-33.4,18.7-60.2,15.9-89.2-9.6c-13-11.5-25.2-24-36.8-36.9c-9.1-10.1-18-11.4-29.1-4.1
	c-9.2,6.1-18.4,12.3-28.2,17.4c-13.3,6.8-26.7,13.8-40.8,18.6c-27.4,9.2-53.3,5.5-75.3-14.3c-14.1-12.7-28-25.7-40.4-40
	c-9.1-10.5-17.8-11.7-28.9-5.2c-9.5,5.6-19,11.3-28.6,16.8c-7.5,4.3-15,8.9-22.8,12.5c-37.3,17.2-66.1,11.9-94.5-17.9
	c-9.3-9.7-17.6-20.3-26.4-30.4c-13.2-15.2-13.3-15.3-31.1-4.3c-13.4,8.3-26.3,17.7-40.1,25.3c-40,22.1-73.6,16.8-105-15.8
	c-6.6-6.8-12.6-14.2-18.7-21.4c-14-16.2-14.2-16.6-33.4-7c-22.1,11.1-44.8,19.5-69.6,22c-20.4,2.1-39.4-2.4-56.7-12.9
	c-26.2-15.9-38.3-43.2-29.6-73.1c10.8-37.1,22.5-74.1,36.7-110c19.5-49.2,28.5-96.9,18-151.5c-13-67.9-15.7-138.1-19.1-207.5
	c-4.4-90.2,5.9-180,15.6-269.6c12.2-112.3,25.8-224.5,40.6-336.5c17.8-134.7,35.9-269.4,56.8-403.6
	c17.2-110.3,55.6-213.9,113.3-309.8c12.9-21.5,16.4-42.7,13.1-67.6c-6.4-48.5-9.8-97.5-14.2-146.3c-0.8-8.6-0.3-17.4-0.1-26.1
	c0.7-31.6,17.6-51.5,46.2-62.2c34.6-13,68.7-11.1,100.1,8.8c15.8,10.1,29.7,23.4,44.2,35.5C2218.1,880.7,2223.3,886.6,2229.9,893.1z
	 M1894.1,2207.2c63.2,8.7,121.7,17.5,180.3,24.2c16.2,1.8,28,6.8,38.9,18.6c42.9,46.3,93.8,81.9,149.4,111.4
	c48.3,25.6,98.1,47.4,150.2,64c99.1,31.6,200.3,51.2,304.6,53.8c77.7,1.9,154.8-4.1,230.9-20.2c73.8-15.7,144.9-39.1,208.5-81.1
	c9.9-6.5,19.4-9,31.1-7.4c50.8,7.3,101.7,14.2,152.6,20.9c10.7,1.4,21.7,1.5,32,2.1c10.2-35.7,65.6-519.7,61.8-536.7
	c-1.4-0.7-2.8-1.8-4.2-2c-58.8-7.3-117.5-15.1-176.3-21.4c-16.7-1.8-29.8-6.6-40.9-19.8c-25.1-29.9-55.4-54-87.8-75.5
	c-140.3-92.7-297.2-133.6-462.7-145.6c-71.9-5.2-143.8-1.6-215.1,9.8c-93.6,15-183.2,41.5-263.6,94c-6.6,4.3-16.2,5.8-24.4,5.7
	c-13.3-0.1-26.7-2.4-40-4.2c-47.7-6.5-95.4-13.2-143.2-19.6c-4.4-0.6-9.1,0.6-16.4,1.2C1937.9,1854.4,1916.2,2029.1,1894.1,2207.2z
	 M3443.8,1813.7c1.9-14.3,4-26.6,5.1-39c7-78.6,15.9-157.2,20.1-236c3.7-69.6-6.4-138.7-18.2-207.4c-2.9-16.6-4.2-17.4-21.1-19.4
	c-33.7-3.8-67.5-7.6-101.1-12c-75.2-9.9-150.3-20.1-225.4-30.5c-107.1-14.9-214.3-29.8-321.3-45.2c-91.4-13.2-182.7-27.5-274.1-40.6
	c-68-9.7-136.1-18.8-204.3-26.8c-56.5-6.6-113.3-10.6-169.8-16.6c-14.3-1.5-22.2,4-28.1,15.9c-7.4,14.8-15.6,29.3-23.4,43.9
	c-28,52.4-51.8,106.6-67.3,164.1c-23.2,86.5-35.7,174.8-45.5,263.6c-0.3,2.8,0.9,5.8,1.4,8.6c3.3,1,5.5,2,7.7,2.3
	c48.6,6.3,97.3,11.4,145.6,19.2c24,3.9,45,2.7,63.7-14.1c3.4-3.1,8.2-4.6,12.4-6.8c93.1-48.8,193.7-71.6,297.1-83
	c79.6-8.8,159.1-6.7,238.7,3.8c104.1,13.8,204.5,40,300.1,83.2c76,34.4,146.8,77,203.7,139.8c5.7,6.2,15.9,10.5,24.5,11.6
	C3322.9,1799.9,3381.6,1806.4,3443.8,1813.7z M3370.7,2441.4c-4.7-1.9-7.5-3.6-10.5-4.1c-54.7-8.1-109.4-15.9-164-24.1
	c-10.8-1.6-19.9,0.9-29,7.1c-35.6,24.1-75,40.5-115.6,53.9c-158.7,52.4-320.6,59.1-484.5,31.7c-97.8-16.4-192.4-43.5-282.1-86.7
	c-71.5-34.5-138.7-75.3-195.5-131.9c-7.1-7.1-19-11.3-29.3-13c-50.7-8.1-101.5-14.9-152.4-22c-5.1-0.7-10.4-0.1-17-0.1
	c-3.3,37.3-7.7,72.5-9.4,107.9c-5.5,115.7,2.1,230.5,24,344.4c2.4,12.4,6.9,19.1,20.5,21.4c92.5,16.2,184.6,34.6,277.3,49.8
	c81,13.3,162.3,25.4,243.9,34.4c107.5,12,215.3,21.6,323.2,30.2c142.5,11.4,285.2,21.1,427.8,31c20.4,1.4,40.9,0.2,61.3,0.2
	c15.2-23,55.1-124.3,67.6-171.5C3349.8,2615.2,3359.1,2528.2,3370.7,2441.4z M2125.2,1095.9c5.6,1.1,8.6,2,11.7,2.3
	c73,7.7,146.2,13.9,219,23.4c144.8,18.9,289.4,39.3,434,59.9c77.4,11,154.5,24.1,231.8,35.2c77.4,11.1,154.9,21.2,232.4,31.2
	c59.5,7.7,119.1,14.7,178.7,21.5c20.6,2.3,21,1.8,28.3-16.2c15.8-38.7,31.4-77.6,46.6-116.5c3-7.7,4.2-16,7.2-27.7
	c-9.8,3.3-15.6,4.7-21.1,7.2c-19.4,8.7-38.5,18.3-58.1,26.6c-25.3,10.7-47.2,7.3-65.4-15.6c-13.7-17.3-29.6-32.8-44-49.6
	c-8-9.3-16.3-11.3-26.9-4.8c-12.1,7.5-24.3,14.8-36.6,21.9c-16.4,9.5-32.7,19.1-49.5,27.8c-16.3,8.4-32.5,6.8-46.4-5.2
	c-11.3-9.7-22.2-20.2-32.1-31.4c-10.9-12.2-20.6-25.6-32.1-40c-12.3,7-23.8,13.5-35.2,20.2c-16.3,9.7-32.2,20-48.7,29.3
	c-19.5,11.1-38.1,9.4-54.1-6.7c-11.1-11.2-21.5-23.1-31.9-34.9c-9.2-10.5-18-21.4-28.1-33.6c-11,6.7-20.4,12.2-29.6,18.1
	c-12,7.6-23.8,15.5-35.9,23c-5.3,3.3-11,6.3-16.8,8.8c-23,9.7-38.6,7.2-55.6-11.3c-16.6-18-31.7-37.3-47.1-56.3
	c-7.2-8.9-14.8-10.7-24.6-4.2c-9.8,6.6-20.1,12.6-30.2,18.7c-10.1,6.1-20,12.8-30.6,17.9c-28.2,13.5-42.1,11.4-63.4-11.2
	c-14.6-15.5-27.4-32.7-41.2-48.9c-4.4-5.1-9.3-9.7-14.9-15.5c-15.6,10.5-29.2,19.9-43.2,28.7c-11.3,7.2-22.8,14.2-34.7,20.1
	c-19.6,9.6-38.6,8.2-54.7-7.4c-15.3-14.8-29.9-30.3-44.5-45.8c-15-15.9-16.9-16.6-35.7-4.5c-16.6,10.7-32.2,23-49.2,32.9
	c-25.9,15-39.7,13.2-62.4-6.3c-9-7.7-17.2-16.3-25.5-24.7c-11.2-11.2-22-22.7-33.2-33.8c-6-6-12.1-12.8-24.5-6.9
	C2110.2,973.2,2117.6,1034.7,2125.2,1095.9z M1851.9,2919.4c12.7-5.7,21.2-9.2,29.3-13.3c14-7.2,27.8-15,41.7-22.4
	c20.1-10.6,38.4-7.4,53.8,9c12.9,13.8,25.1,28.4,37.2,42.9c18.1,21.6,19.3,21.8,42.1,6.4c16.4-11,32.5-22.6,49.6-32.2
	c29.1-16.4,43.6-14.5,67.9,8.9c14.8,14.2,28,30,41.9,45.1c14.5,15.8,15,16.1,33.8,5.4c19.9-11.4,39.4-23.4,59.2-34.9
	c21.5-12.4,42.3-11.7,61.3,5c18.3,16.2,36.3,32.8,54,49.6c18.2,17.4,19.3,17.9,40.1,4.9c17.4-10.9,34-23.1,52-32.9
	c34.1-18.5,50.1-15.9,78.5,11c13.2,12.5,25.4,26,38.3,38.8c16.6,16.4,18.1,16.6,38.1,3.4c16.5-10.8,32.3-22.8,49.2-32.9
	c30.3-18.1,44.3-16.7,70.1,6.8c18.1,16.5,34.9,34.4,52.5,51.3c16.7,16.1,19,16.3,38.5,3.8c8.7-5.5,16.7-11.9,25.2-17.7
	c11.1-7.6,21.9-15.7,33.6-22.2c29.3-16.1,40.9-14.8,66.1,7c16.1,13.9,31.5,28.7,47.3,43c17.6,15.9,17.4,15.6,37.6,1
	c18.6-13.4,37.5-26.3,56.7-38.7c17.5-11.3,36.1-11.7,53.7-0.6c17.3,10.9,33.8,23.1,50.7,34.7c6.7,4.6,13.4,9.2,24.1,16.5
	c-0.9-54.2-8.6-101.8-15.1-149.8c-8.7-0.7-14.1-1.3-19.6-1.7c-152.1-9.7-304.4-17.6-456.4-29.5c-155.9-12.2-311.4-27.7-466.3-49.6
	c-129-18.2-257.5-39.3-385.1-65.7c-9.1-1.9-18.4-3-29.5-4.7C1884.1,2814.3,1864.4,2862.2,1851.9,2919.4z"/>
<path d="M2464.4,2054.3c4.8-39.1,9.5-78.2,14.4-117.3c2.2-17.2,4-34.5,7.4-51.5c3.7-19,12-25.5,26.5-23.5
	c14.9,2.1,23.3,12.8,21.5,31.2c-4,40.1-9,80-13.8,120c-4.4,36.9-8.7,73.7-13.4,110.6c-1.2,9.4-2.3,19.1-5.5,27.8
	c-7.5,20.1-29.8,24.1-43.4,7.6c-7.4-9-12.7-19.9-17.8-30.6c-23.8-49.9-47.2-100-70.8-150c-3.9-8.3-8.5-16.2-12.7-24.3
	c-1.7,0.2-3.5,0.4-5.2,0.6c-1.8,10.3-4.2,20.5-5.4,30.9c-4.7,41.6-9,83.2-13.6,124.8c-0.8,7-2,14.2-4.2,20.8
	c-4.3,12.7-12.5,17.3-25.6,15.5c-11.8-1.6-19-8.6-19.6-20.2c-0.6-11.8,0.3-23.7,1.5-35.4c7.4-69.1,15.1-138.1,23-207.2
	c0.9-7.8,2.5-15.7,5.3-23c8.8-22.5,28.4-26.3,44-8.2c7.6,8.9,14,19.2,19.2,29.7c26.6,53.8,52.6,107.9,78.8,161.8
	c1.7,3.4,3.4,6.8,5.1,10.2C2461.4,2054.6,2462.9,2054.4,2464.4,2054.3z"/>
<path d="M3148.5,2042.7c25.4-19.4,48.5-36.9,71.5-54.6c8.1-6.3,15.7-13.3,24-19.3c5-3.6,10.9-6.7,16.8-8.2c11.3-2.8,20,2.1,26,11.8
	c5.7,9.1,2,17.2-4.5,23.5c-13.6,13.2-27.5,26.1-42.1,38.2c-21.3,17.6-43.2,34.4-65,51.4c-3.1,2.4-7,3.7-11.4,6.1
	c24.5,32.9,46.1,61.9,67.6,90.9c10.3,13.9,21,27.7,30.7,42.1c11.5,17.1,10.8,28.8-0.9,37.6c-13.5,10-27.2,8.8-39.8-5.5
	c-11-12.4-20.6-26-30.4-39.3c-16.3-22.3-32.2-44.9-48.5-67.2c-2.1-2.9-5.5-5-11.1-9.9c-2.9,20.5-5.3,38.1-7.9,55.7
	c-1.7,11.7-2.6,23.7-5.5,35.1c-4.2,16.5-14.4,22.8-29.6,20.1c-15.4-2.8-21.8-11.4-19.8-29.4c4.4-40,9.4-79.9,14.4-119.9
	c5.4-42.3,11.1-84.5,16.9-126.7c0.8-6.2,1.8-12.6,4-18.4c4.9-12.9,13.9-18.8,24.9-17.4c11.8,1.5,22.1,11,22.8,23.6
	c0.7,12.5-0.7,25.2-1.7,37.8c-0.9,11-2.6,22-3.7,32.9C3146.3,2034.9,3147.1,2036.4,3148.5,2042.7z"/>
<path d="M2776,2176.5c1,15.6-5,24.5-17.7,27.6c-13.9,3.3-25.5-1.7-29.8-16.1c-5.4-18.1-8.5-36.9-12.1-55.4
	c-4.2-21.8-3.9-22.2-26.2-25.9c-18.7-3.1-37.5-5.8-56.3-7.6c-20.1-1.9-20.4-1.1-28.4,16.9c-5.4,12.3-10.3,24.8-16.4,36.8
	c-3.9,7.6-8.7,15.2-14.7,21.2c-8.3,8.2-18.5,7.5-28.3,1.4c-9.4-5.9-12.5-13.8-8.1-24.2c7.1-16.7,13.5-33.7,21.5-50
	c29.3-59.5,59-118.7,88.9-177.9c5-9.8,10.6-19.5,17.6-28c16.2-19.9,40.7-16.5,50.8,7.2c4.9,11.5,8,24,10.6,36.3
	c15.8,75.7,31.3,151.5,46.8,227.3C2774.9,2169.7,2775.5,2173.6,2776,2176.5z M2703.7,2061.2c-6.7-34.6-12.5-64.8-18.3-94.9
	c-1.9-0.2-3.9-0.4-5.8-0.5c-14.9,26.9-26.4,55.4-41.1,87.2C2661.5,2055.8,2680.4,2058.2,2703.7,2061.2z"/>
<path d="M2144.3,2129c-33.4-1.6-64.2-12.4-89.8-35.4c-15-13.5-25.1-30.5-27.6-51c-2-16,4.4-25.9,17.5-29.2
	c13.8-3.5,23.4,1,29.3,16.6c6.4,16.9,15.4,30.8,31.3,40.1c19.5,11.3,40.4,13.2,61.8,8.2c17.5-4.1,28.9-15.7,33.3-33.3
	c4.4-17.4-2.4-31.6-15.4-41.9c-11-8.7-23.7-15.5-36.1-22.2c-13.2-7.1-27.6-12.1-40.4-19.7c-31.8-18.9-45.2-51.4-37.4-87.2
	c7.2-32.8,34.8-55.7,71-59.9c30.4-3.5,58.4,2.1,82.4,21.4c8.4,6.8,15.9,15.4,21.6,24.6c9.6,15.2,7.2,25.9-5.8,34.7
	c-13,8.9-21.5,6.8-33.6-8.1c-19.3-23.8-41.9-30.9-66.5-22.2c-12.8,4.5-18.8,13.4-21,26c-2.2,13,2.3,23.6,13,30.8
	c7.2,4.8,15.3,8.1,23.1,11.8c15,7,30.6,12.9,45,21c39.3,22,59.8,59.3,53,94.7c-8.1,42.6-40.4,72.1-86.7,78.7
	C2159.5,2128.5,2152.3,2128.5,2144.3,2129z"/>
<path d="M2806.5,2097.2c2.9-54.7,17.9-100.4,52.5-138.3c37.9-41.4,99.3-51.5,147.5-25.1c15.5,8.5,28.4,20.1,37,35.7
	c6.5,11.9,5.2,22.7-3.2,30.2c-8,7.2-19.9,7.7-30.7,0.6c-4.6-3-8.4-7.1-12.4-10.9c-31.5-29.2-73.7-27.2-102.4,5.2
	c-15.6,17.6-24.8,38.5-29.8,61.2c-5.8,26.4-7.3,52.3,1.3,79.3c14.8,46.8,77.1,65.9,116.2,31.7c4.2-3.6,7.9-7.9,12.3-11.1
	c9.4-6.8,22.7-6.1,30.6,1c7.8,7.1,9.9,17.2,1.1,27.6c-11,13-23.4,26.6-38.1,34.3c-72.1,37.7-157.7-4.3-176.8-85.8
	C2808.5,2119.9,2807.7,2106.4,2806.5,2097.2z"/>
</svg>
