<?xml version="1.0" encoding="utf-8"?>
<!-- Generator: Adobe Illustrator 24.3.0, SVG Export Plug-In . SVG Version: 6.00 Build 0)  -->
<svg version="1.1" id="Layer_1" xmlns="http://www.w3.org/2000/svg" xmlns:xlink="http://www.w3.org/1999/xlink" x="0px" y="0px"
	 viewBox="0 0 4000 4000" style="enable-background:new 0 0 4000 4000;" xml:space="preserve">
<path d="M2093.5,53.6c99.1-3.5,192.6,19.1,281.6,61.6c111,53,200,132.8,274.3,229.3c91,118.2,158.9,249.3,210.1,389.2
	c7,19.1,16.6,33.2,34.5,44.9c53.4,35.1,67.8,93,39.5,152c-7.4,15.5-9.7,29.4-5.4,46.4c72.9,288.5,91.5,581.9,77.1,878.1
	c-14,288.4-52.4,573.5-123.3,853.5c-64.3,254-164.1,493.6-307.9,713.4c-93.1,142.1-200.6,272.1-341.6,370
	c-160.2,111.3-336.5,154.7-530,120c-21.6-3.9-43.3-8.7-63.7-16.4c-19.8-7.4-35-3-52,7.3c-14.5,8.8-31.1,16.1-47.7,19.5
	c-85.9,17.5-155.8-56.1-133-143.4c7.2-27.8,1.7-44-14.9-64.4c-56-68.8-85.2-150.5-105.6-235.4c-28.7-119.7-28.9-240.5-11.5-361.9
	c22.1-154.1,66.5-302.3,117-448.9c10.2-29.5,20.4-59,31.7-88c5-13,4.5-23.5-3.2-35.6c-32.1-50.8-12.6-134.2,37.9-158.5
	c14.9-7.2,20.7-20.5,24.4-35.9c34.8-146.2,67.6-292.8,85.6-442.3c3.7-31,5.3-62.2,8.7-93.2c1.6-15-3.2-26-13.1-37.4
	c-43.1-49.5-45.7-99.3-7-150.8c12.2-16.3,16.3-32.4,13.4-51.6c-12.7-82.3-23.7-164.8-38.4-246.7c-26.5-148.1-52.4-296.3-53.3-447.3
	c-1.1-176.9,28.4-347.7,110.9-506.5c57.6-110.8,140.3-198,251.8-255.2C1919.3,78.7,2004.1,56.8,2093.5,53.6z M1566.2,854.2
	c30,5.9,45.6,23.7,50.3,51.8c5.4,32.5-3.4,59.5-29.2,80.4c-9,7.3-18.7,12.7-16.3,27.6c6.2,37.6,10.4,75.6,16.6,113.2
	c19.7,118.6,40.9,237,59.7,355.8c7,44.4,9.1,89.7,12.8,134.6c1.4,16.6-2.7,30.5-17,42.8c-33.7,28.9-33.3,46.8,1,75.2
	c15.9,13.2,22.6,27.5,20.8,47.9c-3.2,34.5-3.2,69.4-7.2,103.8c-20.1,171.4-53,340.3-98.5,506.9c-7.1,25.9-17.2,45.9-42.8,59
	c-30.1,15.5-33.9,32.1-13,58.3c19.1,23.9,20.4,46.8,10.8,74.1c-22.3,63.2-43.4,126.9-64.6,190.5c-42.5,127.5-79.2,256.5-91.9,390.8
	c-9.8,102.9-11.2,205.7,17,306.6c19.8,70.6,45.4,139.1,92.6,196.3c89.4,108.2,206.4,161.9,345.9,163.3c133.4,1.4,254.8-38.9,365-114
	c86.9-59.3,159.1-133.9,225.3-214.8c87.7-107,156.9-225.8,223.4-346.5c11-20,13.2-35.2,3-57.3c-25.7-55.9,2.2-110.5,62-125.9
	c16.6-4.3,21.7-14.3,25.9-28.4c31.3-105.3,62.9-210.4,94.2-315.6c2.9-9.8,4.1-20,6.2-30.1c-9.6-7.4-18.7-12.7-25.8-20.1
	c-23.6-24.3-31.4-53.2-22.4-86.1c8.1-29.7,24.8-52.2,55.3-61.5c32.5-10,32.6-9.6,35.8-43c0.7-6.9,1.3-13.8,2.1-20.7
	c15.4-133.2,33.5-266.2,45.4-399.7c13.6-152.1,16.6-304.7,9.6-457.7c-8-175.3-33.4-347.5-78.8-516.8c-8.8-32.8-17.8-62.1,13.2-91.8
	c22.4-21.5,11.9-55.2-17.9-63.2c-30.9-8.3-39.7-29.7-50.4-55.1c-30.5-72.3-60.4-145.3-96.7-214.8
	c-61.5-117.8-139.5-223.4-245.5-306.3c-73.3-57.3-153.8-101.3-245.9-114.2c-212.7-29.7-382.2,46.8-502,224.3
	C1597.5,516.6,1567.5,679.4,1566.2,854.2z M2825.1,2547.7c18.5-21.6,21.3-41.5,13.1-64.8C2809,2499.7,2805.5,2515.2,2825.1,2547.7z
	 M1489.5,3797.7c-8.6,22.3-1.2,34,11.6,40.2c12.8,6.2,27.8,8.3,41.6-9.5C1524.7,3818,1508.6,3808.8,1489.5,3797.7z"/>
<path d="M2351.1,1843.4c-13.8-0.9-21.9-0.9-29.9-2c-30.7-4.3-52-27.7-56.4-61.6c-3.6-28,11.9-57,36.9-68.9
	c18-8.6,25.6-5.4,36.8,16.5c-7.1,5.1-14.9,9.8-21.6,15.7c-15.5,13.7-19.6,33.7-12.2,50.2c5.8,12.8,17,16.9,28.4,14.2
	c7.3-1.8,13.9-10.1,18.7-17c2.9-4.2,2.5-11.2,2.4-16.9c-1.3-87.8-0.5-175.7-5-263.4c-4.8-93.4-14.5-186.6-22.3-279.9
	c-1-11.5-3.6-22.8-4.7-34.3c-1-10.2-3.4-22.8,11.2-24.7c12.8-1.7,13.8,10,15.2,18.9c3.8,22.8,7.4,45.7,10.2,68.6
	c21,170.2,29.7,341.1,23.7,512.3c-4.8,138.8-20.5,276.7-46.2,413.2c-16.5,87.4-35.7,174.3-54.2,261.3c-5.2,24.4-6.1,24.2-31.3,17.9
	C2301.5,2260.9,2335.5,2055.4,2351.1,1843.4z"/>
<path d="M2519.2,2900.4c4.6-17.6,7.9-35.6,14-52.6c73.7-205,125.7-415.5,158.8-630.7c28.3-184.4,38.6-369.9,34.9-556.3
	c-0.3-15.8,0-31.7,0-45.8c15.4-6.6,22.6-3.5,24,8.4c2,17.2,3.5,34.5,4.1,51.8c5.8,166.8-6.1,332.6-28.5,497.9
	c-30.1,221.8-84,437.7-155.4,649.6c-6.3,18.6-12.7,37.3-21,55c-4.9,10.4-13.5,19.1-20.5,28.6
	C2526.1,2904.3,2522.7,2902.4,2519.2,2900.4z"/>
<path d="M2360.3,335.5c13.8,12.9,24.6,20.7,32.5,30.8c57.8,73,101.5,154.5,137,240.1c82.8,199.6,138.5,406.7,165.9,621.2
	c6.3,49.3,13.4,98.5,19.6,147.8c1.3,10.2,1,20.7-0.2,30.9c-0.4,3.1-6,7.4-9.6,7.8c-3.6,0.3-10-2.7-11-5.7
	c-3.3-9.7-5.3-19.9-6.6-30.1c-20.8-164-43.1-327.8-89.7-487.1c-40.9-140-85.3-278.7-160.2-405.1c-21.2-35.8-45.7-69.5-68.7-104.1
	C2361.9,370.8,2351.5,360.6,2360.3,335.5z"/>
<path d="M1966.3,3651.7c6.9-7.9,12.6-17.6,21-23.3c171.8-116.3,295.4-274.5,395.4-453.4c23.1-41.4,45.9-83,69.5-124.1
	c7.2-12.5,13.6-26.8,31.8-30.8c5.6,23-5.5,40.4-14.6,56.9c-63.4,115.6-128.2,230.3-210.7,334c-63.7,80.2-135.6,151.6-217.4,213.1
	c-14.8,11.1-30.2,21.5-46.2,30.6c-6.8,3.8-15.9,3.4-24,4.9C1969.4,3657,1967.8,3654.3,1966.3,3651.7z"/>
<path d="M1686.7,3704.5c8.8-15.4,13.4-25.7,19.9-34.6c132.9-183.9,234.9-384.4,318.3-594.8c5.1-12.9,9.9-26,16.6-38.1
	c2.7-4.8,10-7,15.3-10.4c11.6,13,4.6,23.2,0.6,33.7c-45.4,118.9-97,235-156.5,347.7c-50.9,96.3-107.3,189-174.6,274.8
	C1712.8,3700,1712.7,3699.9,1686.7,3704.5z"/>
<path d="M1924,271.7c-3.6,6.8-4.9,11.4-7.8,14.5c-69.7,73-96.7,164.5-111.1,260.6c-15.7,104.7-11.5,210-4,315.2
	c1,13.4,0.1,26.9,0.1,46c-9-6.2-15-8.6-18.2-13c-3.1-4.4-4.1-10.8-4.9-16.4c-21.7-149.4-18.7-297.6,23.8-443.4
	c16-54.9,42.5-105.1,79.2-149.3C1890.6,274.6,1900.3,257.8,1924,271.7z"/>
<path d="M1542.6,3600.2c-18.8,2.6-21.3-8.8-23.5-18.6c-4.7-21.4-9.2-42.9-12.2-64.6c-18-130.4,2.9-257.9,31.2-384.5
	c10.8-48.4,25.1-96,37.9-143.9c3.8-14.2,8.1-28.2,24.8-37.2c8,22.9,0.1,41.4-5.3,59.3c-25.5,84.2-43.6,170-56,257
	c-14.3,100-19.8,200,0.4,299.9C1542.2,3578.1,1541.8,3589.3,1542.6,3600.2z"/>
<path d="M1733.9,2440.9c7-29,12.5-53.8,19-78.4c33.6-127.6,56.2-257,67.9-388.4c2.8-31,7.3-61.9,10.9-92.9
	c1.1-9.2,0.3-20.2,13.6-19.6c16.1,0.7,12.6,13,11.8,23.2c-10.5,129.1-26.4,257.3-55.4,383.7c-12.1,52.9-25.8,105.4-38.7,158.1
	c-1.1,4.5-1.5,9.6-4,13.2c-4,6-9.5,11-14.4,16.4C1740.7,2450.4,1736.6,2444.6,1733.9,2440.9z"/>
<path d="M2080,246.6c25.5,2.3,29.3,17.1,35.4,28.9c43.9,85.6,79.1,174.7,106.3,266.9c16,54.3,30,109.2,44.6,163.9
	c2.6,9.8,3.8,19.9,5.7,30.6c-17.6,7.7-26.2,2.1-30-13c-4.2-16.8-7.8-33.8-12.1-50.6c-34.4-132.3-79-261-136.1-385.4
	C2088.2,276.2,2085.3,263.1,2080,246.6z"/>
<path d="M1869.7,1606.8c-21.1,1.6-22.2-8.8-22.8-19.7c-1.5-27.6-2.6-55.2-4.6-82.8c-4.1-57.4-8.9-114.7-12.8-172.1
	c-0.9-12.8,0.5-25.8,1-40.4c23.9,4.3,22.7,19.9,24,32.6c4.9,48.1,9.7,96.2,13.2,144.4c2.5,35.6,3.1,71.3,4.1,107
	C1872,1585.8,1870.5,1595.8,1869.7,1606.8z"/>
</svg>
