<?xml version="1.0" encoding="utf-8"?>
<!-- Generator: Adobe Illustrator 24.3.0, SVG Export Plug-In . SVG Version: 6.00 Build 0)  -->
<svg version="1.1" id="Layer_1" xmlns="http://www.w3.org/2000/svg" xmlns:xlink="http://www.w3.org/1999/xlink" x="0px" y="0px"
	 viewBox="0 0 4000 4000" style="enable-background:new 0 0 4000 4000;" xml:space="preserve">
<path d="M305,2096.2c16.7-512.8,217.1-943.8,643.4-1260.7c134.1-99.7,278.9-180.3,434.6-241.2c19.4-7.6,34.4-15.2,40.3-39.2
	c23.5-95.8,90.8-144.5,183.7-163c72.2-14.3,142.2-3.6,207.8,27.4c36,17,60.1,9.4,84.1-18.9c30.6-36.1,66.5-65.4,111.2-83.9
	c98.2-40.6,196-19.6,265.8,60.9c17.4,20,31.8,43.1,45.1,66.2c11.7,20.4,24.7,26.7,49,22.1c38-7.2,77-9.8,115.7-12.5
	c43.2-3,85.3,3.4,126.3,18.5c77,28.2,129.9,79.6,151.2,159.4c7.3,27.4,22.1,43.4,46.6,55.6c195.1,97.8,356.9,235.5,489.3,408.7
	c150.4,196.6,245,418.1,289.8,660.1c60.7,327.6,36.7,649.6-85.1,960.8c-96,245.3-251.5,447.7-464.3,604.3
	c-223.6,164.5-474.7,261.8-747.8,306.9c-173.3,28.6-347.2,33.3-521,13.9c-359.4-39.9-682.2-168.3-957.7-407.1
	c-284.4-246.6-443.4-559.4-493.6-930c-3.1-22.6-6.1-45.2-7.5-67.9C309.1,2193.6,307.6,2150.8,305,2096.2z M1833,1152.6
	c-32,11-60.5,21.2-89.3,30.6c-92.9,30.4-184.3,34.9-270.9-19.3c-76.9-48.1-105.7-135.2-75.8-220.8c19.9-56.8,55.7-100,105.9-132.3
	c14.2-9.1,27.5-19.5,42.6-30.4c-7.4-12.6-12.2-22-18.1-30.7c-30.4-45.1-31.1-45.2-81.2-26.5c-137.6,51.4-266.3,119.3-385.7,205
	c-275,197.3-468,452.7-560.5,781.2c-58.8,208.8-68.7,420-34.2,633.2c39.7,245.3,140.4,463.3,304.3,650.5
	c159.2,181.7,352.2,316.4,577.8,403.4c298.3,115,605.6,143.4,920.7,92.4c205.8-33.3,399.9-99.4,578.9-207.4
	c193.3-116.6,349.1-270,458.5-468.7c104.6-190.1,156.1-394.6,171-610.2c16.4-236.5-14.2-465.8-100.2-686.5
	c-85.8-220.4-220.6-406.3-403.2-557.5c-76.9-63.7-163.7-111.6-248.3-163.3c-20.1-12.3-38.5-10.7-54.7,5.7
	c-12.7,12.8-23.8,27.2-37.5,43.1c15.4,13,26.3,22.6,37.6,31.7c45.5,36.4,75.2,83,89.9,139.3c26,99.1-25,194.6-121.8,227.8
	c-56.3,19.3-113.4,20.7-169.9,2.9c-39.5-12.4-77.7-28.9-116.4-43.7c-27-10.3-29.9-8.8-43.4,16.8c-13.1,24.9-25.5,50.3-41.4,73.4
	c-76.4,111.4-222.7,131.2-327.6,46c-44.5-36.2-69-84.5-88.9-136.3C1845.8,1187.3,1840.4,1172.4,1833,1152.6z M1670.4,513.2
	c-0.4,1.2-0.7,2.3-1.1,3.5c-16,1.3-32.3,1.2-48,4.1c-62.2,11.1-92.6,62.8-71.2,122.4c7.2,20,18.4,38.6,28.4,57.4
	c6.9,13,15.7,25,22.3,38.1c23.7,46.9,18.5,69-23.5,99.6c-17.3,12.6-36.3,23.1-52.9,36.6c-18.6,15.1-37.9,30.5-52.3,49.4
	c-45.8,59.7-32.9,136.6,28.4,180.2c32.6,23.1,69.3,34.7,109.2,35.5c47.7,1,92.9-11.1,137.2-27.2c22.6-8.2,44.9-17.8,68-24.5
	c34.2-9.9,53.7-2.2,70.3,28.9c11.3,21.2,19.3,44.2,28.7,66.4c16.3,38.7,37.1,74.3,69.1,102.5c51.1,44.9,111,52.7,171.5,22.3
	c30.9-15.5,55.1-38.2,71.9-68.2c14.4-25.7,27-52.4,40.4-78.7c21.2-41.4,37.4-47.9,80.7-31.8c12.5,4.7,24.2,11.6,36.6,16.5
	c33.6,13.3,66.8,28.1,101.3,38.5c49.2,14.8,98.2,10.4,145.1-11c63.5-28.9,91.3-92.4,64.7-156.8c-11.5-27.8-30.3-53.4-49.6-76.9
	c-15.1-18.3-36.2-31.7-54.5-47.4c-37.5-32.3-41.1-57-12.1-97c14.1-19.5,30.7-37.2,46.4-55.5c26.3-30.5,26.5-62.9,7.5-96.8
	c-17.4-31-43.4-51.6-78.3-57.5c-23.5-4-48.1-5.6-71.9-4c-41.4,2.8-82.9,7.3-123.8,14.2c-56.2,9.4-96.3-8.2-122.6-60.1
	c-12-23.7-27.2-46.6-44.9-66.4c-53.5-59.6-117.4-61.2-175.4-6.2c-15.5,14.7-30.5,30.3-44.3,46.7c-45.7,54.5-101.8,65.1-166.6,40.9
	c-10-3.7-19.6-9-29.9-11.7C1740.4,530,1705.4,521.8,1670.4,513.2z"/>
<path d="M2586.7,2551.6c-101.1,0.2-183.1-81.9-183.8-183.9c-0.7-101.5,83.5-188.3,181.3-187c98.5,1.3,183.1,84.6,183.8,181.1
	C2768.8,2469.2,2690.3,2551.4,2586.7,2551.6z M2670.5,2308c0.7-30.2-27.4-61.7-56.1-63c-37.2-1.7-66.5,26.2-67.9,64.5
	c-1.2,33.9,22.1,59.8,55.3,61.4C2639.8,2372.7,2669.6,2345.5,2670.5,2308z"/>
<path d="M1460,2184.3c102.1-0.4,182.6,80.6,182.4,183.8c-0.2,100.2-81.2,181.5-180.9,181.4c-100.6-0.1-185-84.1-182.7-184.7
	C1280.8,2275.2,1347.2,2181.8,1460,2184.3z M1490.6,2243.8c-37.1,0-70.6,32-70.7,67.6c-0.1,31.8,29.5,59,63.5,58.2
	c36.1-0.8,67.3-32.1,66.3-66.4C1548.9,2272.8,1520.1,2243.8,1490.6,2243.8z"/>
<path d="M808.9,1605.5c-47.8-0.1-83.9-42.3-76.6-92.1c2.9-19.6,8.3-39.7,16.8-57.5c49.7-104.6,119.5-193.2,214.2-260.9
	c28.4-20.3,58.6-36.9,95-39.6c75.8-5.5,103.2,72,77.7,117.4c-10.2,18.2-24.1,36.5-40.9,48.3c-81.7,57.2-144.4,130.8-194.5,216.2
	c-9.4,16-21.7,30.6-34.5,44.2C848.6,1600.2,833.3,1605.5,808.9,1605.5z M769.3,1525.4c7.9,10.6,15,25.2,26.4,34.3
	c15.1,12,31.8,3.8,43.2-8.3c12.6-13.6,23.5-29.2,33-45.3c50.3-85.5,114-158.6,194.7-216.8c9.7-7,19.2-14.9,26.9-23.9
	c12.6-14.8,13.1-32.6,4.5-49c-9.2-17.7-26.8-23.3-44.8-18.5c-16.5,4.3-33,11.5-47.4,20.7c-97.4,62.5-167,149.6-218.3,252
	C779.7,1485.8,776.4,1503.3,769.3,1525.4z"/>
<path d="M2782.1,2560.5c33,4.5,66.3,7.5,98.8,14c27.8,5.6,52.3,19.2,72.3,40.5c35.5,37.8,32.1,81.6-9,114.1
	c-27.4,21.7-60.1,29.7-93,34.1c-55.9,7.4-112.1,6.6-167-8.9c-16.6-4.7-32.8-11.7-47.9-19.9c-56.6-30.8-60.7-96.4-8-133.7
	c32.4-22.9,70.5-31.3,109.4-35.4c14.5-1.5,29.4-0.2,44-0.2C2781.8,2563.6,2781.9,2562.1,2782.1,2560.5z M2774.8,2603
	c-0.2,1.3-0.3,2.6-0.5,3.9c-9.4,0-19.2-2-28,0.4c-30.6,8.2-62.6,14.4-90.7,28.2c-27.8,13.7-28.2,39.1-2.5,56.9
	c17,11.8,37.8,19.7,58.1,24.8c55.8,14.1,111.5,7.2,166.5-6c34.6-8.3,56.2-25.8,53.7-45.4c-3.6-28.4-27-39.8-50.3-45.3
	C2846.2,2612.2,2810.3,2608.6,2774.8,2603z"/>
<path d="M1274.3,2563.2c46.2-1.4,90.8,4.9,133,24.9c32,15.2,57.2,35.9,56.8,75.1c-0.4,39.6-21.9,65.5-57.4,79.2
	c-85.7,33-172.5,33.5-259.3,4.4c-13.6-4.6-26.6-13.2-37.7-22.6c-36.5-30.8-37.8-78.8-4.7-113.2c29.9-31.1,69.1-39.4,109.2-44.7
	C1234,2563.6,1254.2,2564.1,1274.3,2563.2z M1265.3,2604.2c-23,2.8-48.7,3.6-73,9.7c-18.8,4.8-37.8,13.9-53.3,25.5
	c-19.9,14.9-20.4,34.8-1.4,50.7c13.7,11.5,31.3,21,48.7,25.2c62.3,15.3,124.6,8.2,186-7c10.1-2.5,20-7.7,28.8-13.5
	c28-18.5,29.2-40.7,1.2-59.9c-15-10.2-33.3-17.5-51.1-21.1C1323.8,2608.5,1295.7,2607.4,1265.3,2604.2z"/>
<path d="M2025.9,2741.2c-103.7,0.7-190.5-77.5-201.3-181.2c-0.4-4-0.6-8-0.7-12c-0.3-15.5,1.1-30.8,20.7-33.1
	c16.4-2,23.8,9.3,27.9,23.2c2.7,9,4.3,18.3,7.5,27.1c5.5,15,10.4,30.6,18,44.5c29.1,53.4,86.6,82.5,144.2,74.2
	c60.6-8.8,105.5-48.9,120.7-108c3.3-12.9,6.2-26,9.1-39.1c3.7-16.6,12.7-26.4,30.9-23.7c17.9,2.7,25.1,13.8,23.2,31.2
	C2215,2643.2,2149.9,2739.1,2025.9,2741.2z"/>
<path d="M630.6,1798.4c-0.3-29,7.9-55.4,26.2-78c18-22.2,47.2-30.5,71.8-21.5c24.9,9.1,44.7,34.3,40.7,62.3
	c-3.7,25.6-12.2,51.9-24.8,74.5c-16.1,28.7-48.5,37.7-76.1,27.6C645.5,1854.9,630.8,1829.6,630.6,1798.4z M730.9,1761.3
	c-4.4-5.7-9.9-19.2-19.5-23.5c-13.7-6.1-26.7,4.4-30.9,17.5c-5.1,15.8-8.3,33.2-7.5,49.6c0.8,16.9,13.8,21.7,28.6,12.8
	C720.1,1806.7,727.3,1788.7,730.9,1761.3z"/>
<path d="M2101.8,1021.5c-97.7,3.4-189.5-25.5-272.6-82.9c-68-47-91.8-124.6-61.8-197.8c17.6-42.9,49-66.6,95.4-67.3
	c22.6-0.4,45.6,1.7,67.7,6.2c28.6,5.8,52.2,1.8,73.6-19.5c13.1-13.1,28.6-24.7,44.8-33.5c33.6-18.2,66.9-16.4,97.6,8.2
	c8.4,6.7,16.9,13.4,24.3,21c22.9,23.3,50.3,34.4,83,34.4c13.3,0,26.8,1.7,39.9,3.9c71,12,120.3,65.1,126.4,135.7
	c6,69.1-31.8,129.5-98.2,154C2252.2,1009.4,2179.8,1021.7,2101.8,1021.5z M2224.9,945.4c43.2-6.2,79.8-17.8,109.3-44.9
	c44.5-40.8,29.4-117.9-27.1-138.9c-13.6-5-28.6-6.8-43.1-8.6c-41.9-5.1-80.1-17.2-114.4-44c-59.1-46-63.2-45.6-119,3.8
	c-24.1,21.3-49.7,29.9-80.8,26.1c-21.3-2.6-42.6-5.6-64-6.5c-56.1-2.3-85.3,36.9-64.8,89.4c16.6,42.6,47.2,73.2,94.5,90.4
	c37.5-61.4,85.7-104.7,163.1-95.5C2154.7,826,2202.5,868.7,2224.9,945.4z M2149.6,955.5c-8.2-46.3-37.4-71.2-77.6-72.4
	c-41.6-1.2-75.4,20.6-84.9,56.8C2038.7,962.8,2092.7,955.1,2149.6,955.5z"/>
</svg>
