<?xml version="1.0" encoding="utf-8"?>
<!-- Generator: Adobe Illustrator 24.3.0, SVG Export Plug-In . SVG Version: 6.00 Build 0)  -->
<svg version="1.1" id="Layer_1" xmlns="http://www.w3.org/2000/svg" xmlns:xlink="http://www.w3.org/1999/xlink" x="0px" y="0px"
	 viewBox="0 0 4000 4000" style="enable-background:new 0 0 4000 4000;" xml:space="preserve">
<path d="M2162.4,3523.6c-270.3-2.2-501.6-31.5-724.3-113.5c-282.9-104.1-522.7-269.6-711.2-505.7
	c-150.6-188.8-242.8-404.3-283.6-642.2c-20.3-118.3-28.2-237.6-19.5-357c28.7-395.8,188.5-730.1,481.4-997.7
	c224.1-204.7,488.9-333.2,784.8-398.6c157.2-34.7,316.4-50.9,477.5-48c188.6,3.4,374.6,28,554.8,83.8
	c237.3,73.4,454.3,185.7,639.2,354.6c240.5,219.7,393.9,489.3,454.9,809.1c58.1,304.8,33,602.7-90.2,889.5
	c-84,195.6-210.4,360.8-368.3,502.5c-166.8,149.7-359.7,254-571.4,324.6c-145.3,48.5-294.6,77-447.2,88.1
	C2268.9,3518.3,2198.5,3521.5,2162.4,3523.6z M3759.7,1979.6c-4.6-49.4-8.1-130.4-20.5-209.9c-33.6-214.7-113.1-411.7-241.1-587.8
	c-160.6-220.9-371.4-379-621.2-486c-187.7-80.4-384.1-126.3-587.6-141.3c-207.8-15.3-413.6-3-616.2,48.6
	c-240,61-460.7,160.7-652.2,320.9C846,1070.2,707,1243.1,617.6,1453.6c-79.9,188-118,384.5-108.4,588.8
	c3.5,73.6,11.6,147.4,23.4,220.2c22.3,138,67.3,269.2,134.1,392c123.6,227.1,299.4,404.7,519.7,538.7
	c265.1,161.2,556.1,231.8,863.3,243.4c126.4,4.8,252.4-4.1,377.7-20.8c279.9-37.2,539.3-128.7,767.3-298
	C3565.5,2842.7,3757.7,2475.1,3759.7,1979.6z"/>
<path d="M2123.6,2250.9c-112.6-2.1-223.6-26.1-324.5-87.5c-49.2-29.9-90.8-68.5-121.9-117.2c-66.7-104.7-60-227,17.3-328.1
	c36.5-47.7,82.3-84.7,135.1-112.8c112.2-59.7,231.7-84.3,358.7-74.6c103.7,7.9,201.8,32.8,289.5,90.5
	c72.4,47.7,126.3,109.9,151.9,194.7c20.1,66.8,12.6,130.9-17.7,192.1c-44.5,89.8-119.3,147.5-208.8,187.6
	C2315.8,2234.8,2223.3,2250.6,2123.6,2250.9z M2142.9,2162.3c26.1-3.3,73.8-7,120.5-15.9c81.7-15.5,156.2-48.6,218.5-104.9
	c92.1-83.3,97.2-201.7,13.9-293.6c-29.4-32.4-63.2-59-102.9-77.3c-164.7-75.5-330-74.8-494.7-0.5c-53.3,24-100.4,57.8-136.7,104.8
	c-55.6,72.2-58,166.2-1.6,236.7c22.4,28,49.7,53.8,79.3,73.9C1924,2142.9,2020.8,2160.1,2142.9,2162.3z"/>
<path d="M2077.9,691.6c0.6,18-12.6,32.7-30.4,33.8c-16.6,1-32.5-14.2-33-31.6c-0.5-15.4,16-33.4,31.4-34.4
	C2062.5,658.4,2077.3,673.3,2077.9,691.6z"/>
<path d="M1544.4,955.7c-17.3,0.4-32.6-14.3-33.3-31.9c-0.7-17.7,16.4-34.2,35.1-33.8c16.9,0.4,29.7,12.9,30.7,30
	C1578,939.8,1564,955.2,1544.4,955.7z"/>
<path d="M1815.8,1135.2c-16.5-0.6-29.6-15.3-28.2-31.7c1.4-17.2,17.9-33.3,33.4-32.5c16.3,0.7,31.7,18.4,30.5,34.9
	C1850.3,1122.4,1834,1135.9,1815.8,1135.2z"/>
<path d="M1353.8,1545.6c-18.1-0.1-32.2-14.4-31.6-31.9c0.6-16.9,16.1-32.4,32.6-32.4c16.9,0,31.7,15.6,31.2,33
	C1385.6,1532.9,1372.5,1545.6,1353.8,1545.6z"/>
<path d="M2127.4,1158.3c-0.2,18.5-14,32.4-32.2,32.4c-18.9,0-34-14.3-33.1-31.3c0.9-15.9,18.1-31.3,34.9-31.3
	C2113.6,1128.1,2127.6,1142,2127.4,1158.3z"/>
<path d="M1211.4,1062.5c-18-0.5-30.4-12.4-30.7-29.5c-0.3-18,17.6-34.6,35.7-33.1c16.6,1.3,29.1,15.5,28.5,32.2
	C1244.2,1051.3,1231.2,1063,1211.4,1062.5z"/>
<path d="M1432.3,1143.9c19.1-0.2,33.7,12.8,34,30.3c0.3,15.7-16.3,31.1-33.8,31.5c-16.4,0.4-32.8-16.6-32-32.9
	C1401.3,1156.9,1415.4,1144.1,1432.3,1143.9z"/>
<path d="M3432.3,1457.5c0.2-16.1,16.6-33,32.1-32.9c17.1,0.1,31.9,15.6,31.3,32.7c-0.6,16.3-16.9,33.5-31.9,33.7
	C3448.3,1491.3,3432.1,1474.1,3432.3,1457.5z"/>
<path d="M2920.1,861.4c0.5,16.4-13,33.7-27,34.5c-16.4,0.9-32.8-14.7-33.5-32.1c-0.8-18.1,13.5-33.8,30.9-33.9
	C2905.7,829.8,2919.6,844.6,2920.1,861.4z"/>
<path d="M2767.6,1313.9c-15.8-0.4-30.9-18.4-29.8-35.5c1-16,15.6-29,32.2-28.6c18.7,0.4,32.2,14.4,31.6,32.7
	C2801,1298.3,2783.7,1314.3,2767.6,1313.9z"/>
<path d="M3370,1690.8c-17.1,0.1-30.1-12.1-31.1-29.1c-0.9-16.4,15.1-33.1,31.7-33.1c16.1,0.1,33.3,16.7,33.5,32.3
	C3404.3,1677.8,3389.5,1690.8,3370,1690.8z"/>
<path d="M1687,729.2c15.3,0.4,30.6,18.8,29.5,35.5c-1.1,17.1-14.4,30.6-30.2,30.6c-17.6,0.1-31.4-14.7-31.1-33
	C1655.7,744.3,1670.6,728.8,1687,729.2z"/>
<path d="M2415.9,1127.5c-13.8,0.1-29.1-16.9-29.3-32.5c-0.1-16.3,13.7-31.7,28.9-32.3c17.2-0.7,33.4,14.6,33.6,31.7
	C2449.4,1110.2,2432.1,1127.4,2415.9,1127.5z"/>
<path d="M2887.5,1528.1c0.2,17.9-14.2,32-32.5,31.8c-16.4-0.2-29.9-13.4-30.7-30c-0.9-18.2,13-33.7,30.4-33.7
	C2872.7,1496.1,2887.3,1510.3,2887.5,1528.1z"/>
<path d="M3068,1132.2c0.2,17.1-14.6,32.7-31.4,33c-18.2,0.3-31-10.7-31.9-27.5c-1.1-19.5,13.9-35.8,32.4-35.1
	C3053.4,1103.2,3067.8,1116.9,3068,1132.2z"/>
<path d="M2573.9,776.1c0.6,16.5-11.9,29.8-29.5,31.2c-17.9,1.5-32.2-12.5-32.4-31.5c-0.2-16.7,13.2-31.8,28.8-32.3
	C2557.1,742.9,2573.3,758.8,2573.9,776.1z"/>
<path d="M780.6,1600.1c-0.5,18.1-15.5,31.4-33.7,30c-17.1-1.3-31.3-17.8-29.9-34.7c1.3-16.3,15.2-28.2,32.3-27.7
	C768.1,1568.3,781.1,1581.7,780.6,1600.1z"/>
<path d="M1172.8,1270.2c16.8-0.9,34.4,14.9,34.4,31c0.1,15.2-14.1,30.2-30.1,31.9c-17.2,1.8-31.1-9.7-32.9-27
	C1142.5,1287.9,1155.8,1271.1,1172.8,1270.2z"/>
<path d="M3557.2,1899.6c0.3,17.4-14.4,32.5-32.1,33c-16.7,0.4-30.9-12.6-31.6-29c-0.8-17.2,14.1-32.5,32.1-32.9
	C3542.7,1870.2,3556.9,1883.3,3557.2,1899.6z"/>
<path d="M3166.9,1432c0.4,15.3-13.8,31.1-29.1,32.3c-17.1,1.3-33.7-13.7-33.9-30.6c-0.2-15.3,14.1-31.5,28.8-32.7
	C3148.8,1399.8,3166.5,1415.8,3166.9,1432z"/>
<path d="M1625.4,1312.8c-0.6,16.2-18.3,32.9-33.2,31.3c-16.3-1.7-30.3-19.3-28.7-36.3c1.6-17.3,14.9-29.2,31.6-28.3
	C1613.8,1280.5,1626.1,1294,1625.4,1312.8z"/>
<path d="M1981.1,857.7c-0.4,18.6-13.7,31.2-32.6,31c-15-0.2-29.8-15.8-29.5-31.1c0.3-16.5,16.5-33.3,32.1-33.4
	C1968.5,824.1,1981.5,838.6,1981.1,857.7z"/>
<path d="M3085.1,1703.8c17.6,0.5,33,16,32.2,32.3c-0.7,14.7-19.8,30-36,29.1c-14.8-0.9-29-17.4-28.1-32.6
	C3054.2,1717.3,3069.7,1703.4,3085.1,1703.8z"/>
<path d="M3235,2000.4c-15.7,1.1-32.9-15.5-33.3-32.1c-0.3-15.7,11.1-30,25.2-31.4c16.4-1.7,33.8,12.9,35.4,29.8
	C3263.7,1981.2,3248.9,1999.4,3235,2000.4z"/>
<path d="M949,2076.1c0,17-12.3,29.5-29.5,29.9c-17.2,0.5-32.1-14.5-31.7-31.9c0.3-16.6,13.7-30.4,29.6-30.5
	C934.2,2043.4,949,2058.7,949,2076.1z"/>
<path d="M2287.8,878.8c-18.6-0.1-30.8-11.2-31.5-28.6c-0.8-19.3,12.3-34,30.1-33.9c15.6,0.1,32.1,14.7,32.8,29
	C2319.9,862.3,2304.3,878.9,2287.8,878.8z"/>
<path d="M3335.4,1208.5c-0.1,18.3-14,31.5-32.7,30.9c-17.3-0.5-29.1-13.3-28.6-30.8c0.5-16.3,14.3-31.8,28.7-32.3
	C3319.1,1175.8,3335.4,1191.9,3335.4,1208.5z"/>
<path d="M2689,998.2c16.6-0.4,30.8,12.3,31.7,28.5c0.9,16.4-15,32.5-32.1,32.6c-14.3,0.1-30-16.2-29.9-31.1
	C2658.7,1012,2672.3,998.6,2689,998.2z"/>
<path d="M1022.6,1523.9c17.2,0.8,29.8,14.3,29,31c-0.8,17.2-17.3,31.2-34.9,29.4c-14.2-1.4-26.2-16.1-25.4-31.2
	C992.2,1536.5,1006.5,1523.1,1022.6,1523.9z"/>
<path d="M1194.2,1815.3c0.6,17.5-14.1,31.8-32.7,31.8c-16.7,0-28.5-10.7-29.5-26.5c-1.1-16.8,14.4-32,32.6-32.2
	C1180.4,1788.2,1193.7,1800.3,1194.2,1815.3z"/>
<path d="M943.8,1210.7c17.4,0.1,30.6,13,30.2,29.6c-0.3,16.1-13.9,29-31.2,29.6c-15.4,0.5-30.9-14.8-30.5-30.1
	C912.8,1224.2,927.5,1210.6,943.8,1210.7z"/>
<path d="M703.2,1900.7c-17.8-0.3-29.3-12.2-29.1-30c0.2-16.9,13.5-31.4,28.7-31.4c13.8,0,29.3,16.4,29.7,31.3
	C732.9,1887.4,719.6,1901.1,703.2,1900.7z"/>
</svg>
