<?xml version="1.0" encoding="utf-8"?>
<!-- Generator: Adobe Illustrator 24.3.0, SVG Export Plug-In . SVG Version: 6.00 Build 0)  -->
<svg version="1.1" id="Layer_1" xmlns="http://www.w3.org/2000/svg" xmlns:xlink="http://www.w3.org/1999/xlink" x="0px" y="0px"
	 viewBox="0 0 4000 4000" style="enable-background:new 0 0 4000 4000;" xml:space="preserve">
<path d="M2158.8,3441.7c-189.5-0.9-378-13.8-564-52.3c-76.2-15.8-150.8-37.3-221.6-71.2c-60.6-29-102.3-74.8-127-136.7
	c-9.6-24.1-20.1-48-27.1-72.8c-6.6-23.8-20.5-38.4-41.3-50.8c-115.7-68.9-221.7-150.5-316.4-246.5c-115.7-117.3-208-251-278.6-399.8
	c-93.8-197.6-145.8-406.1-162.7-623.8c-3.3-43.1-4.5-86.3-6.9-129.5c-3.8-67.5,23.3-121.7,70.8-167.4
	c49.8-47.8,108.4-82.3,170.9-110c139.1-61.6,285.5-98.9,434.6-126.3c146.7-26.9,294.2-48.5,442.9-60.7c19.9-1.6,32.9-10.4,45.4-26.1
	c67.2-84.4,146.9-152.7,251.8-186c112.7-35.8,219.8-22.2,320,41.1c33.4,21.1,61,48.4,79.5,83.6c9.6,18.3,22.3,25.5,43.8,25.5
	c64.8,0,129.7,2.4,194.5,4.5c18.5,0.6,32-2.9,43.9-19.9c113.7-161.9,228.4-323,342.7-484.4c12.5-17.6,23.8-36.1,36.2-53.8
	c25.9-37,45-43.6,85-21.6c37.7,20.8,74.8,43.8,108.4,70.7c130.8,104.5,208.3,243.1,250.5,403c19.7,74.7,27.1,150.9,24,228.1
	c-1.1,28.4-0.9,28.6,28.5,36.4c104.8,27.7,206.5,63.3,301.6,116.3c40.8,22.8,78.3,49.8,110.5,84.1c40.3,42.9,64.6,93.4,60.6,152.3
	c-6,88.3-13.5,176.8-26.1,264.3c-24.8,172.9-69,341.1-142.3,500.3c-86.9,189-205.5,354.7-363.8,491.3
	c-71.5,61.7-148.7,114.9-228.8,164.4c-18.6,11.5-29.8,25.6-35.9,47c-8.6,30-21.1,58.9-32.5,88.1c-21.2,54.1-60.7,90.8-111.7,116.7
	c-76,38.5-157.4,59.7-240.4,75.4C2506.5,3427.8,2333.4,3442.6,2158.8,3441.7z M3776.7,1732.1c-17.2,11.4-28.2,19.4-40,26.4
	c-29.7,17.7-58.7,36.8-89.6,51.9c-119.3,57.9-245.5,94.5-374.9,121.8c-153.4,32.4-307.7,59.9-463.6,74.1
	c-153.8,14.1-308.2,24.2-462.5,28.9c-378.7,11.6-756.5-1.1-1131.4-61c-164.3-26.3-328-56.1-484.5-115.5
	c-76.9-29.2-153.5-59-215.6-115.8c-2.8-2.6-7.2-3.6-13.8-6.7c0,15.3-0.9,27.8,0.1,40.2c7.6,93.8,21,186.7,41.7,278.6
	c37.6,167.1,101.5,323.3,192,468.5c109.3,175.4,255.8,314.4,425.5,430.2c29.4,20.1,62.8,35.1,89.6,58.1
	c47.4,40.6,103.5,62.5,160.4,82.2c199.8,69.1,407,98.2,617.3,106.3c128.6,5,257.1,1.3,385.5-10.8c152.1-14.4,302.4-37.5,447.4-86.7
	c47.8-16.2,95.4-35.8,139.1-60.8c51.4-29.4,98.1-66.8,147.3-100.1c203.6-137.5,357.7-317.1,463.4-539.1
	c88.4-185.7,134.5-382.4,158.9-585.2C3772.1,1791.2,3773.8,1764.8,3776.7,1732.1z M770.4,1681.3c35.9,22.3,68.2,31.1,99.9,40.5
	c128.8,38,260.7,60.7,393.3,80.8c178.7,27.2,358.2,45.8,538.7,53.4c235.6,9.9,471.2,10.3,706.9-2.8
	c192.3-10.7,383.5-30.6,573.7-60.5c130.4-20.5,258.7-50.2,383.4-94.1c10.6-3.7,20.7-9,32.6-14.3c-5.9-10.1-9.1-16.9-13.5-22.8
	c-22.8-30.7-55.7-47.1-89.5-62.1c-28.6-12.7-60-21.3-85.4-38.7c-41.9-28.9-86.4-37-135.3-32.4c-11.8,1.1-23.9,2.4-35.6,1.5
	c-38.7-3-78.2-3.2-115.7-11.9c-28.8-6.6-55.8-22.9-82.1-37.4c-42.6-23.6-86.4-31.6-134.3-20c-24.1,5.9-48.9,9.2-73.5,12.5
	c-51.7,6.9-102.5,2.9-146.8-26.7c-58.7-39.3-123.6-60.5-191.6-75.8c-68.9-15.5-126.2-51.2-167-109.5c-22.2-31.8-41.4-65.8-59.9-99.9
	c-24.4-45-60.9-75.7-107.5-94c-52.3-20.6-106.5-27.8-162.3-17.1c-77.7,14.9-143,53.1-200.6,106.3c-41.8,38.5-73.8,84.8-104.8,131.6
	c-38.5,58.1-92.1,89.5-160.4,97.9c-47.2,5.8-94.3,11.8-141.5,17.9c-81.1,10.5-153.4,35.6-198.5,111.4c-19.3,32.5-51,48.8-88.7,53
	c-11.8,1.3-23.5,3.8-35.2,5.3c-53.8,6.7-102.6,26.3-145.6,58.8C805.9,1645.4,790.9,1662.2,770.4,1681.3z M3347.7,1370.5
	c-0.8,3-1.5,6-2.3,9.1c6.6,2.6,13.1,5.4,19.9,7.8c48,16.5,96.5,31.4,143.8,49.7c50.6,19.6,98.7,44.4,136.2,85.4
	c47.4,51.9,48,106.4,1.2,159.2c-8.5,9.6-18,19.1-28.7,26.1c-23.5,15.3-47.1,31-72.3,43c-106.1,50.6-219.5,78.3-334,101.3
	c-235.7,47.4-474.2,72.5-714.1,83c-269.1,11.8-538.2,13.1-807.1-5.8c-221.2-15.6-441.3-39.3-658.6-84.5
	c-100.7-20.9-200-46.1-293.8-89.7c-34.6-16.1-67.1-35.1-94.9-61.4c-40.3-38.1-66.9-105.7-8.1-163.2c25.9-25.3,56.5-47.5,88.5-64.2
	c77.8-40.7,160.8-68.2,246.8-86.2c126.8-26.6,253-56,382.3-68.2c33.3-3.1,66.5-7.6,99.6-12.6c10.5-1.6,22.8-2.7,29.1-16.7
	c-8.5,0-15-0.7-21.3,0.1c-83.5,11.4-167.2,21.1-250.3,35c-80.9,13.5-161.5,29.2-241.4,47.5c-119.3,27.3-235.6,63.9-343.7,123
	c-43.1,23.6-82.6,51.4-110.3,93.2c-29.2,44.2-28.5,82.3,8,120.6c20.6,21.6,45.2,40.4,70.7,56.2c95.8,59.2,202.5,91.1,310.3,119.7
	c203.3,54,411.2,81.5,619.9,101.7c179.7,17.4,360.2,26.4,540.8,26.2c150.2-0.2,300.5-4,450.5-12c134.8-7.2,269.6-18.5,403.6-34.8
	c140.4-17,280-41.4,417.4-75.9c102.8-25.8,204.5-55.3,299.4-103.7c43.4-22.1,85.5-46.7,118.3-84c40.1-45.6,42.5-88.2,0.2-132.4
	c-28.8-30.1-62.7-56.4-97.9-78.9c-69.8-44.8-149.7-66.6-227.7-92.1C3401.6,1383.5,3374.4,1377.6,3347.7,1370.5z M1302.8,3089.2
	c3.6,30.3,15.4,50.8,23.7,72.4c13.4,35.1,37.7,60.6,70.8,76.7c31,15.1,62.4,30.1,95,40.9c157.4,51.7,320.7,69.1,484.9,76.4
	c164.1,7.3,328.4,6.6,492.2-11.5c92.4-10.2,184.4-23,274.4-46.3c55.4-14.4,109.8-32.2,159.1-62.8c52.6-32.7,65-87.3,84.1-145.9
	c-274.3,111.6-556,143.4-842.3,144.5C1857.8,3234.7,1576.9,3196.8,1302.8,3089.2z M3016.1,1436.5c32.7,9.2,41.6,7.3,53.8-15.4
	c10.1-18.9,17.7-39.3,25.6-59.4c35.7-90.3,34.7-184.1,22.3-277.9c-7.1-53.7-31.8-101.7-60-148.9c-30,37.7-89.7,80.4-133.6,96.7
	c-33.2,12.3-47.3,4.5-48.8-31c-0.8-17.4,4.7-35.1,7.6-54.4c-11.4,0-23.1,0.7-34.7-0.1c-23.7-1.8-37.3-15.5-39.7-38.9
	c-5.1-49.2,38.2-99.6,87.8-102c43-2.1,60.1,17.1,52.7,59.1c-4.4,25.3-16.5,46.4-33.4,65.4c-10.7,11.9-21.5,24.6-12.3,44.8
	c9.7,0,19.7,2,28.5-0.4c33.5-9.2,65.5-22,92.8-44.5c16.9-14,18.5-19.4,5.3-38c-38-53.5-88-91.2-150.5-112.3c-11.9-4-21-2-28.7,7.7
	c-14.1,17.8-29,35-42.1,53.4c-84.7,118.7-169.1,237.6-253.3,356.6c-24.8,35-48.6,70.7-72.5,105.7c2.6,3.1,3.7,5.8,5.3,6.2
	c55.7,12.7,104.6,39.6,151.4,71.1c19.7,13.3,42.2,16.3,65.3,12.7c33-5.2,65.9-11.7,98.9-16.7c22-3.3,44.2-5.1,66.3-7.5
	c1.1-6.9,2-11,2.3-15.3c3.4-39.2,18.8-55.3,58-51.9c26.4,2.3,52.9,9.7,77.8,18.9c13.2,4.9,24.9,17,34.4,28.3
	c15.4,18.2,15.3,33.2,1.7,53.2C3036.6,1413.1,3026.9,1423.3,3016.1,1436.5z M3094.2,1448.1c50.7,0,93.7,0,136.7,0
	c12.7,0,16.1-9.4,17.9-19.3c9.7-53,24-105.6,27.7-159c16.4-237.5-70.5-432.4-250.5-586.6c-16.3-14-35-25.3-53-37.1
	c-9.8-6.4-20.1-8.1-28.4,3.4c-18.7,25.9-37.6,51.8-58.5,80.7c136.4,62.3,213.4,172.2,252,309.7
	C3177,1178,3162.6,1313.3,3094.2,1448.1z M1086.9,1393.3c-79.1,11.9-149.6,31.8-219.2,54.7c-57.4,18.9-116.1,35.8-166.4,70.8
	c-20.1,14-38.3,31.5-54.1,50.2c-7.3,8.6-11.3,24.8-8.9,35.8c6.6,30.5,28.7,48.1,55.7,59.4c15.4-22.9,26.7-44.1,42-61.8
	c33.2-38.3,74.8-66,122.8-81.4c41-13.2,83.6-21.2,125.2-32.6c14.2-3.9,31.1-7.5,40.5-17.2C1046,1448.9,1063.6,1423,1086.9,1393.3z
	 M3577.8,1658.6c15.4-10.8,29.6-18.5,40.8-29.3c24.9-23.9,25.8-46.6,5.4-74.6c-19-26-45.1-43.5-72.8-58.2
	c-62.4-33-128.9-55.1-197.1-72.4c-6.9-1.7-14.5-0.9-22.8-1.3c-2,6.4-3.7,11.4-5.2,16.4c-10.4,35.4-9.9,38,24.7,54
	c28.4,13.1,57.7,24.2,86.7,36.1c44,18,81.1,44.6,108.1,84.5C3554.7,1627.2,3564.4,1640,3577.8,1658.6z M2440.8,1219
	c-63.1-9.4-118.9-8.2-140.6,4.1c23.1,18.3,44.4,35.9,66.5,52.4c9.2,6.9,21.1,9.4,29.5-0.2C2410.8,1258.8,2423.7,1240.8,2440.8,1219z
	 M2973.7,1397.5c8.1-2.7,17.6-4.8,26.1-9.1c20.7-10.5,22.7-29.1,1.9-38c-19.9-8.5-42.9-12.6-64.6-13.3c-18-0.5-24.7,17.5-14,32.4
	C2934.9,1386,2952.7,1393.3,2973.7,1397.5z M2918.8,837.8c-13.7-1.3-25.4-3.9-36.9-3.1c-6.3,0.4-16.1,5.3-17.7,10.3
	c-6.3,19.6-10.1,40-15,61.3C2888,904.4,2915.9,876.9,2918.8,837.8z"/>
<path d="M2944.4,1604.2c-1.3-21.1,7.5-31.2,25.2-32.8c8.4-0.8,18.2-0.8,25.4,2.7c22.6,10.9,43.7,17.2,65.5-2.3
	c3.3-2.9,14.7-0.2,19.6,3.5c3.5,2.7,4.6,12.1,3,17.4c-4,13-12.6,22.9-27.4,23.7c-9.6,0.5-19.5,0.5-29-0.7
	C3000.1,1612.3,2973.6,1608.3,2944.4,1604.2z"/>
<path d="M1374.8,1616.7c-6.7,17.6-20.6,19.5-34.6,19c-19.1-0.6-35.3-8.5-48.6-22.7c-12.4-13.3-25.2-26.2-38.2-38.9
	c-7.3-7.1-9.8-14.2-3-22.6c7.5-9.4,17.1-14.7,27.9-6.6c6.6,5,13.3,12.3,15.8,19.9c10.5,31.4,32.2,44.4,64.2,42.9
	c3-0.1,6.3,1.2,9.2,2.5C1369.5,1611,1370.9,1613,1374.8,1616.7z"/>
<path d="M1799.1,1161.1c23.6-0.9,31.5,4.3,34.9,23.4c4.2,23.4-4.4,43.2-21.6,58c-17.4,15-37.6,19.2-58.8,9.2
	c-4.9-16.6,7.4-20.2,16.1-25.3c33.9-19.8,34-19.6,27.8-56.6C1797.2,1167.7,1798.3,1165.5,1799.1,1161.1z"/>
<path d="M2033.9,1729.6c-19.8-8.7-42.5-18-64.4-28.8c-9.4-4.6-14.8-13.7-7.3-24.1c7.1-9.8,16.6-8.2,25.8-2.5c3.6,2.3,7,5,10.2,7.9
	c20.9,18.6,44.6,18.9,69.8,10.9c9.6-3,18.7-0.4,19.4,10c0.3,5.4-6.1,14.2-11.5,16.3C2064.3,1724.2,2051.2,1725.7,2033.9,1729.6z"/>
<path d="M2011.9,1273.2c2.8-7.3,6.4-22.1,13.8-34.8c5.9-10.1,17.9-12.6,28.3-5.1c9.3,6.7,5.2,15.7,0.1,23
	c-15.8,22.5-12.1,41.8,7,60.6c4.2,4.1,3.4,13.2,4.9,20c-7.9,0.5-16.8,3.6-23.7,1.1C2026.2,1332.2,2012.4,1304,2011.9,1273.2z"/>
<path d="M2547.4,1700.7c8.3,2.5,17.7,3.2,24.6,7.8c24.3,15.9,45.9,15.6,67-5.9c6.9-7,15.7-19.1,26.8-7.2
	c10.3,11.1-0.7,19.9-7.8,27.5c-26.8,29-70.4,33.4-99.5,9.1c-7.2-6-11-15.9-16.4-24.1C2543.9,1705.5,2545.7,1703.1,2547.4,1700.7z"/>
<path d="M1692.5,1503.5c1-2.7,2-9.3,5.4-14.3c6.8-9.8,17.8-9,23.2,1.5c2.4,4.7,4.1,10.2,4.3,15.4c0.9,24.3,12.4,40.5,35.2,48.9
	c4,1.5,9,3.4,10.8,6.7c2.8,5,5,11.6,3.9,16.9c-0.5,2.7-9.1,6-13.3,5.2c-8.3-1.6-16.6-4.9-23.8-9.1
	C1715.6,1561.4,1693,1527.2,1692.5,1503.5z"/>
<path d="M2310.7,1550.1c-22.6,29.1-54.8,30.3-85.7,6.7c-23.4-17.9-27-30.1-14.1-47.4c2,0.3,4.9-0.2,6,0.9
	c20.1,22.4,42.2,38.9,75.1,31.4C2296.6,1540.7,2302.8,1546.4,2310.7,1550.1z"/>
<path d="M3102.6,1100.2c-0.6,7.5-0.6,15.1-1.9,22.5c-6.1,36-27.5,54-63.2,48.8c-28.6-4.2-57.1-11.2-84.5-20.5
	c-25.8-8.7-42-29.5-51-55.1c-7.2-20.5-3.3-32.1,16.1-43.5c36.8-21.6,77.2-32.7,119.4-36.4c22.3-2,40.8,8.7,50.3,28.7
	c8.1,17.1,12,36.2,17.7,54.4C3104.6,1099.5,3103.6,1099.9,3102.6,1100.2z M2933.1,1091.7c10.3,7.9,17.6,15.9,26.6,19.9
	c17.6,7.8,35.9,14.7,54.5,19.6c37.4,9.8,46.1,2.3,46.2-36.5c0-5.4-0.2-10.8-1.1-16.1c-4.7-26.2-15.5-33.2-40.8-24.7
	c-23.5,7.8-46.6,16.9-69.6,25.9C2944.3,1081.5,2940.8,1085.8,2933.1,1091.7z"/>
<path d="M3034.6,1197.1c-18.2,2.6-29.4,4.6-40.6,5.7c-12.9,1.2-26,1-38.8,2.7c-10,1.3-19.4,5-16.4,20.6c29.8,15,61.7,27.1,96,32.4
	c22.5,3.5,25.6,1.7,37.8-20c2-3.6,4.5-7.1,7.4-10c1.2-1.2,4-0.7,6.1-0.9c16.4,33.6,3.6,59.9-30.9,60.3c-35.6,0.4-71.4-0.8-106.9-3.3
	c-33.8-2.4-54-22.6-55.6-51.8c-1.4-24.7,22.6-56.3,49-61.4c27.1-5.2,53.9-1.6,79.2,9.6C3024.1,1182.3,3026.1,1186.8,3034.6,1197.1z
	 M2943.9,1244.1c-1.2,2.1-2.5,4.3-3.7,6.4c7.1,3.5,14.2,7,21.2,10.5c0.9-1.7,1.7-3.4,2.6-5.1
	C2957.3,1252,2950.6,1248.1,2943.9,1244.1z"/>
</svg>
