<?xml version="1.0" encoding="utf-8"?>
<!-- Generator: Adobe Illustrator 24.3.0, SVG Export Plug-In . SVG Version: 6.00 Build 0)  -->
<svg version="1.1" id="Layer_1" xmlns="http://www.w3.org/2000/svg" xmlns:xlink="http://www.w3.org/1999/xlink" x="0px" y="0px"
	 viewBox="0 0 4000 4000" style="enable-background:new 0 0 4000 4000;" xml:space="preserve">
<path d="M3234.9,1282.5c-3.2,190.1-22.1,378.4-54.4,565.5c-2.8,16.5-5.8,32.9-8.2,49.5c-3.1,21.2-1.5,40.4,8.7,61.1
	c27.5,56.1,19.8,110.3-18,160c-4.7,6.1-9.8,13.9-16.4,16.2c-27.5,9.7-33.5,33.1-40.1,57.1c-43.2,155.8-97.2,308.1-153.3,459.6
	c-5.8,15.7-12.4,31.2-16,47.4c-2.8,12.5-3.4,26.3-1.5,39c8.9,58.9-17.6,120.3-70.3,147.2c-27.8,14.2-44.9,34.9-59.2,60.7
	c-71,127.9-149.3,251.1-241.4,364.9c-114.2,141.2-242.3,268-396.3,366c-117.5,74.8-242.1,133.5-381.9,152.6
	c-212.2,28.9-403.3-19.5-566-161.9c-97-84.8-149.5-195.3-170.8-321.3c-18.8-111-5.6-219.7,22.7-327.5
	c41.5-158.1,116.6-300.7,201.2-439c35.5-58,71.7-115.5,108.2-172.9c11.2-17.5,17.4-35,15.5-56.4c-2.7-30.3,1.8-60,15.8-87.7
	c10.9-21.5,25.1-40.2,47.9-49.2c22.9-9,34.6-26.5,43.8-47.6c60.7-139.1,112.9-281.1,146.7-429.4c9.6-42.3,17.9-85,27.8-127.3
	c4.1-17.4,2.6-31.9-8.6-46.9c-40-53.3-24.2-150.3,22.1-186.7c11.7-9.2,19.2-20.2,20.1-36.5c4-79,8.8-157.9,14-236.8
	c1.2-17.6-3.2-31.5-14-46.1c-53.9-72.9-42-162.8,28.8-219.6c13.5-10.8,18.7-24,21.7-39.7c24.4-131,71-253.1,149.4-361.4
	c102.3-141.3,234.6-240,407.4-277.7c130.9-28.6,256.9-7.8,378.9,43.7c156.7,66.1,273.5,176.5,359.8,321.8
	c97.8,164.4,144.1,344.5,162.8,532.6C3229.1,1130.9,3230.6,1206.8,3234.9,1282.5z M3107.5,1301.6c-6.1-85.5-10.1-171.3-18.8-256.6
	c-13.4-130.4-42.7-257.4-99.9-376.2c-83.6-173.7-207.9-304.3-395-367.4c-130.9-44.1-257.5-34-377.7,32.6
	c-126.6,70.1-213.9,176.8-270.1,308.9c-41.3,97.1-62.8,199.6-74.4,304.2c-19.7,177.2-15.6,356.4-46,532.8
	c-8.7,50.4-9.4,102.1-17.8,152.6c-17,102.4-45.4,202-75.2,301.4c-58.3,194.4-140.3,377.8-246.8,550.5
	c-77.7,126.2-160,249.9-219.6,386.2c-25.8,59-49.7,119.5-67.2,181.4c-28.9,102-37,206.4-9.3,310.6c18.2,68.5,45.4,132.8,96.7,184.4
	c43.8,44,94.2,78.2,150.5,103.8c140.4,63.8,284.3,66.6,430.8,24.1c128.6-37.3,240.3-105.5,344.1-187.7
	c132.3-104.8,239.4-233,335.3-370.8c156.5-224.8,274.1-469.2,361.7-728.1c40-118.1,76-237.6,113.5-356.6c3.6-11.6,4.5-24,6.2-36.2
	c6.4-46.3,10.7-93,19.2-138.9C3081.4,1673.1,3103.1,1488.6,3107.5,1301.6z"/>
<path d="M1461,3610.1c-17,1.1-23.8-8.8-27.8-21.2c-4.2-13.1,1.5-21.4,14.3-25.4c4.3-1.3,8.3-3.3,12.6-4.4
	c115.8-31.5,217.8-90.4,314-160c182.4-132,333.1-295.4,465.4-476.5c24.3-33.3,46.8-67.9,70.4-101.7c6.3-9.1,13.1-18.1,20.7-26.1
	c9.9-10.4,22.3-10.2,33.6-2.8c12.8,8.4,7.7,19.7,1.6,29.4c-19,30.2-37.5,60.7-58.2,89.8c-106.4,149.2-222.8,290-359.8,412.5
	c-126.4,113-265.3,206.9-424.6,268c-17.6,6.8-36,11.6-54.1,17.1C1465.9,3609.6,1462.5,3609.9,1461,3610.1z"/>
<path d="M2098,1192.8c5.2-115.7,7-231.6,16.4-346.9c10.7-131.4,36.4-260.3,97.1-379.2c18.1-35.5,41.2-68.6,62.8-102.2
	c5.3-8.2,12.7-16.5,21.2-20.7c6.6-3.3,19.8-3.7,23.8,0.6c5.5,5.8,6.1,17.2,6.9,26.3c0.3,3.4-4.1,7.6-7,11
	c-80.7,96.1-116.9,211.1-139.8,331.6c-19.6,103.1-26.3,207.5-27.8,312.3c-2,135.8-4.2,271.7-6.8,407.5c-0.3,16.6-2.8,33.3-5.4,49.7
	c-2,12.4-10.4,20-23.3,19.6c-13.5-0.4-19.2-9.7-20.3-22.1c-0.5-5.5-0.2-11.1,0-16.7c2.1-90.2,4.3-180.3,6.4-270.5
	C2100.8,1192.9,2099.4,1192.8,2098,1192.8z"/>
<path d="M2807.4,1237.9c0,40.1,0.3,80.2-0.2,120.3c-0.2,13.3-2.4,26.5-4.1,39.7c-1.7,12.8-8.7,20.1-22.4,19.4
	c-13.6-0.7-19.9-9.1-21.2-21.4c-1.2-12.2-1.3-24.4-1.7-36.7c-2.9-91.2-1.1-182.9-9.6-273.6C2727.4,866.8,2678,655,2575,458.7
	c-15.5-29.5-34.3-57.3-51.4-85.9c-11.3-18.9-8.5-32.1,7.9-38.1c14.2-5.2,24.2,2.2,31.3,12.8c16,24.1,32,48.2,46.1,73.4
	c86.4,154.5,132.1,322.8,165.8,495C2795.4,1022.1,2804.5,1129.7,2807.4,1237.9z"/>
<path d="M1251.3,3420.6c12.2-48.4,21.9-97.6,37.3-145.1c35.9-111,89.7-213.8,157.4-308.4c73.2-102.4,150.5-201.8,225.9-302.6
	c14-18.7,27.5-37.8,41.3-56.7c1.3-1.8,2.6-3.7,3.8-5.5c22.8-32.8,36-41,51-31.5c13.8,8.7,11.9,24-12.5,58.6
	c-32.7,46.4-67,91.7-101.1,137.1c-79,105.1-160.4,208.3-228,321.5c-45.9,76.9-85.3,156.7-106.2,244.1c-9,37.7-12.2,76.8-18.5,115.1
	c-2.1,12.6-0.5,28.3-18.8,31.1c-12.1,1.8-21.4-9.1-25.1-30c-1.6-8.7-1.4-17.7-2-26.6C1254.2,3421.4,1252.7,3421,1251.3,3420.6z"/>
<path d="M2117.2,1681.7c-6.1,32.3-12.5,67.3-19.3,102.3c-31.6,162.6-85.6,318.1-150.9,469.8c-4.4,10.2-9.6,20.1-14.7,30
	c-6.5,12.4-17.4,12.6-28.8,9.2c-12.9-3.9-13-14.5-10.3-24.5c2.8-10.7,7.1-21,11.6-31.2c63.3-145.4,111.4-295.7,144.6-450.8
	c7.9-37,14.1-74.3,21.6-111.4c2.5-12.4,6.6-24.3,23.2-23.1C2109.5,1653.2,2117.2,1662.1,2117.2,1681.7z"/>
<path d="M2690.1,2081c-2,8.5-4.4,21.7-8.3,34.3c-35,112.6-78.4,221.9-127.1,329.2c-2.7,6-5.6,13.8-10.6,16.4
	c-7,3.6-17.1,5.8-24.2,3.4c-5.3-1.8-11.1-11.4-11.2-17.7c-0.3-9.5,2.7-19.9,6.8-28.7c49.6-105.8,87.5-216,123.5-326.9
	c2.7-8.4,5.8-16.8,9.5-24.9c4.9-10.9,12.1-18.7,25.8-15.1C2686.4,2054.2,2690.3,2060.3,2690.1,2081z"/>
<path d="M2784.8,1647.9c-6.3,40.6-11.6,81.3-19.2,121.7c-9.4,50.2-20.4,100.1-31.1,150c-2.1,9.7-5,19.4-8.4,28.8
	c-5,13.9-16,17.7-29.5,14.8c-14.3-3.1-16.3-14.2-14.3-25.9c3.7-21.9,9-43.5,12.9-65.3c11.5-65.6,22.6-131.2,33.9-196.8
	c1.9-10.9,3.9-21.9,6.5-32.6c5-20.1,12.6-26.2,29.3-24.2C2779.9,1620.1,2783.7,1626.1,2784.8,1647.9z"/>
<path d="M3023.4,1621c-1.9,74.8-65.8,102.6-114.2,96.7c-16.9-2.1-26.8-11.8-26.1-24.8c0.8-16.1,13.1-18.8,25.7-20.6
	c4.4-0.6,8.9-0.5,13.3-0.8c22.3-1.1,38.8-12.4,45.7-32.9c7.4-21.8,6.9-44.1-11.6-61.8c-6.4-6.1-13.6-11.4-19.9-17.6
	c-9.6-9.4-14.6-20.2-5.2-32.4c8.2-10.5,18.2-9.2,29.8-4.3C2997.1,1537.9,3023.6,1578.7,3023.4,1621z"/>
<path d="M2233.9,3252.1c20-7.5,33.8-2.9,39.7,15c13.4,40.5,10,79.9-17.6,113.5c-26.6,32.4-63,40.4-102.7,30.3
	c-12.5-3.2-24.7-10.2-35.2-18c-14.5-10.9-17.7-29.3-9.8-41.5c7.1-11,19.8-10.7,38.3,0.9c32.4,20.3,55.4,16.9,77.8-10.9
	c10.8-13.4,10.3-28.6,9.6-44.3C2233.4,3282,2233.9,3266.9,2233.9,3252.1z"/>
<path d="M1798.2,1836.9c0.6-33.1,15.1-59.1,40.2-77.7c8.2-6.1,23.3-7.3,33.8-4.8c14.4,3.4,17.8,20.5,8.1,32.3
	c-6.3,7.7-14.9,13.4-21.3,21.1c-17.2,20.5-14.5,37,7.7,52.8c2.7,1.9,5.5,3.7,8.3,5.5c8.4,5.4,19,10.6,13.7,23
	c-5.4,12.6-16.8,17.7-30.1,15.8C1826.5,1900.5,1793.9,1867.9,1798.2,1836.9z"/>
<path d="M2979.1,1089.7c-7.8,15.2-14.3,31.3-24.2,45c-3.6,4.9-16.2,6.6-23.2,4.5c-4.3-1.3-6.5-12.2-8.2-19.2c-1-4,0.3-8.9,1.6-13
	c8.5-26.2,1.6-45-24.5-56.7c-11.8-5.3-20.1-14.8-15-29.2c4.4-12.4,20.7-18.2,36.7-14.2C2952.3,1014.6,2974.7,1049.1,2979.1,1089.7z"
	/>
<path d="M1323.4,2877.4c4.7-24,10.7-49.2,31.9-66.1c8.1-6.4,20.8-13.2,29.4-11.2c11.3,2.6,24,11.8,29.8,21.8
	c6.6,11.4-5.3,19.5-15.5,25c-14.7,7.8-24.3,19-23.6,36.7c0.6,15.1,0.4,30.3-20.3,30.7C1336.9,2914.7,1323,2898.4,1323.4,2877.4z"/>
</svg>
