<?xml version="1.0" encoding="utf-8"?>
<!-- Generator: Adobe Illustrator 24.3.0, SVG Export Plug-In . SVG Version: 6.00 Build 0)  -->
<svg version="1.1" id="Layer_1" xmlns="http://www.w3.org/2000/svg" xmlns:xlink="http://www.w3.org/1999/xlink" x="0px" y="0px"
	 viewBox="0 0 4000 4000" style="enable-background:new 0 0 4000 4000;" xml:space="preserve">
<path d="M3781.8,1942.7c-1.6,231.7-35.5,458-116.3,675.6c-114,307.3-303.8,557.4-573.1,745.8c-205.8,143.9-433.2,232.7-681.7,268.7
	c-154,22.3-308.4,27.1-462.9,8.9c-161.7-19-316.9-62.8-464.7-131.7c-237.2-110.5-441.5-264.2-608.4-466.1
	c-151.4-183.1-250.3-393-311.6-621.6c-47.4-176.5-74.6-355.7-70.1-538.8c7.4-302,91.8-579.9,263.5-829.8
	C959.1,759,1232.3,557.5,1568.4,439c117.1-41.3,237-71.1,359.6-89.7c182.4-27.7,364.2-23,545.3,11.7
	c209.2,40,404.7,114.6,583.8,230.6c117.1,75.9,222.2,165.8,314.6,270.6c215.8,244.5,351.9,526,395.4,850.5
	c3.8,28.7,6.8,57.5,8.5,86.4C3778.4,1847,3779.8,1894.9,3781.8,1942.7z M3672,1941.6c0.7-84.1-4.9-167.8-18.4-250.8
	c-42.4-261.2-149.2-493.9-315.7-698.8c-163.2-200.9-364.7-351-607.3-443.8c-134-51.3-272.4-84.7-415.4-98.1
	c-105.7-9.9-211.4-8.8-317,3.2c-100.5,11.4-199,32.3-295.8,60.9c-240.8,71-459.8,182-644.3,355.4
	c-187.3,176.1-321.7,385.7-396.4,632.1c-57.5,189.8-72.9,384-51.9,580.9c18.6,174.6,57.8,344.6,123.9,507.5
	c90.2,222.3,228.3,410.4,408.8,568.5c179.5,157.2,382.9,269.1,612.8,333.1c84.1,23.4,169.8,37.7,256.5,42.6
	c154.9,8.8,309.7,4.2,462.6-24.7c160.3-30.3,310.4-88.1,451.3-170.7c279.9-164.1,484.6-394.8,611-693.2
	C3632.1,2421.2,3668.7,2184.4,3672,1941.6z"/>
<path d="M2568.7,1970.3c-2.8,238.3-198.8,434.1-431.5,431c-238.9-3.2-430.3-200.1-425.3-439c5.1-243.1,198.6-436,436.7-433.1
	C2404.6,1532.4,2569.2,1747.9,2568.7,1970.3z M1821.4,1967.7c-0.6,174.9,142.7,321.2,315.2,321.9c178.2,0.7,320.2-143.1,321.4-325.5
	c1.2-176.6-140.4-321.8-314.2-322.2C1967.3,1641.6,1822,1788.4,1821.4,1967.7z"/>
<path d="M2819.1,1564.1c-19.8-0.5-34.7-17-33.4-36.9c1.2-18.5,17.3-33.9,34.9-33.5c19.7,0.4,35.9,17.2,35.2,36.4
	C2855,1550.7,2839.8,1564.7,2819.1,1564.1z"/>
<path d="M1049.8,2801.5c0.2,20.1-12.9,33.4-33.6,34.1c-20.8,0.7-37.2-14.6-36.9-34.4c0.2-17.7,16.7-34.9,34.2-35.6
	C1032.6,2764.8,1049.5,2781.5,1049.8,2801.5z"/>
<path d="M1312.5,1984.7c-0.6,21.1-17.6,36.5-39.4,35.6c-17.6-0.8-31.6-15.1-31.8-32.7c-0.3-20.5,18.4-39.4,37.7-38.2
	C1297.5,1950.6,1313,1967,1312.5,1984.7z"/>
<path d="M1300.8,2366.5c-19.2-0.5-34.2-15.9-33.5-34.5c0.7-18.5,16.8-34.9,34.4-35c18.1-0.1,34.8,16.2,35.1,34
	C1337,2351.4,1321.1,2367,1300.8,2366.5z"/>
<path d="M3113.9,2868.8c-19.5-0.3-33.6-15.2-32.7-34.5c0.8-17.5,17.9-34.6,34.6-34.6c17.5-0.1,35,16.9,35,33.9
	C3150.7,2852.1,3132.9,2869.1,3113.9,2868.8z"/>
<path d="M3320.3,1617.4c18.2,0.3,33.9,16.4,33.6,34.8c-0.3,18.5-17.9,35.1-37.5,35.2c-17.3,0.1-31.9-17.1-31.2-36.6
	C3285.9,1632.5,3302.1,1617.2,3320.3,1617.4z"/>
<path d="M2462.2,3212.1c-18.4,0.6-33.1-14.1-34.3-34.3c-1.1-18,14.3-35.2,32.7-36.4c18.2-1.2,35.6,14.7,35.8,32.8
	C2496.6,3195.3,2482,3211.5,2462.2,3212.1z"/>
<path d="M2019.1,2994.3c-18.4,0.6-33.1-14.1-34.3-34.3c-1.1-18,14.3-35.2,32.7-36.4c18.2-1.2,35.6,14.7,35.8,32.8
	C2053.6,2977.5,2039,2993.7,2019.1,2994.3z"/>
<path d="M1890.8,2772.5c-18.4,0.6-33.1-14.1-34.3-34.3c-1.1-18,14.3-35.2,32.7-36.4c18.2-1.2,35.6,14.7,35.8,32.8
	C1925.2,2755.7,1910.6,2771.9,1890.8,2772.5z"/>
<path d="M1711,3066.6c0.5-18.3,16.9-35,34.2-34.6c18,0.4,34.8,17.1,34.7,34.5c-0.1,19.3-17.7,36.8-36.3,36.2
	C1725.7,3102.2,1710.5,3085.2,1711,3066.6z"/>
<path d="M1362.9,2864c-20.2-0.1-33.6-13.5-33.6-33.7c0.1-19,15.1-36,32.1-36.6c18.3-0.6,37.5,17,38.3,35
	C1400.5,2847,1382.7,2864.1,1362.9,2864z"/>
<path d="M2187.9,699.9c-18.4,0.1-33.7-15.4-33.9-34.4c-0.2-18.7,14.9-35.6,32.6-36.1c18.3-0.6,34.8,14.9,35.5,33.2
	C2222.8,683.4,2207.9,699.7,2187.9,699.9z"/>
<path d="M2643,758.1c-0.8,21.5-15.4,34.4-37.2,33.1c-19.5-1.2-30.3-13.2-29.9-33.4c0.4-21.2,16.2-37.4,35.1-36
	C2629.5,723.2,2643.7,739.3,2643,758.1z"/>
<path d="M2351.2,1047.9c-19.1-0.6-33.2-15.9-32.3-35.2c0.9-18.6,16.9-34.2,34.8-34c18.2,0.2,35.1,17,34.6,34.2
	C2387.7,1032.7,2371,1048.5,2351.2,1047.9z"/>
<path d="M989.5,2420.7c-20,0.7-34.8-13-35.2-32.5c-0.4-18.5,15.2-36.7,32-37.4c17.1-0.7,36.4,16,37.5,32.5
	C1025.2,2403.3,1009.8,2420,989.5,2420.7z"/>
<path d="M3388.6,2376.7c-20.4,0.3-36.5-13.3-37.2-31.3c-0.6-18.3,15.4-37.1,31.8-37.5c17.9-0.4,37.9,18.6,37.8,35.8
	C3420.9,2360.7,3405.4,2376.5,3388.6,2376.7z"/>
<path d="M1707.1,831.9c-18.1-0.6-33.6-17.3-33-35.5c0.6-18.9,17-35.4,34.3-34.5c17.1,0.9,33.3,18.7,33,36.4
	C1741.1,817.9,1726.2,832.5,1707.1,831.9z"/>
<path d="M2032.4,958.5c-0.3,20-16.7,35.1-37.3,34.2c-17.4-0.7-31.5-17.9-30.6-37.3c0.9-18.1,17.8-33.8,35.4-32.8
	C2018.2,923.6,2032.8,939.7,2032.4,958.5z"/>
<path d="M1546.2,3191.3c-19.5-0.2-34.7-15.1-34-33.4c0.7-17.7,17.4-35.5,33.3-35.6c18.5-0.1,36.1,17.6,36,36.3
	C1581.5,3175.8,1564.7,3191.4,1546.2,3191.3z"/>
<path d="M2811.7,3161.7c0.1,20.6-14.9,35.9-35.3,36.1c-19.5,0.2-33.3-14.1-32.8-34.1c0.4-18.4,15.8-34.4,33.6-35
	C2796.1,3128.1,2811.6,3143,2811.7,3161.7z"/>
<path d="M1615.6,2560.4c0.1,20.6-14.9,35.9-35.3,36.1c-19.5,0.2-33.3-14.1-32.8-34.1c0.4-18.4,15.8-34.4,33.6-35
	C1600,2526.8,1615.6,2541.7,1615.6,2560.4z"/>
<path d="M2923.9,1814.9c-18.9,0.5-34.1-14-34.4-32.7c-0.3-17.5,15.5-35.7,32.1-36.8c16.4-1.1,35.7,15.9,36.7,32.3
	C2959.5,1795.9,2942.4,1814.5,2923.9,1814.9z"/>
<path d="M1022.2,1705.5c0.5,18.1-15,35.5-32.7,36.6c-18.2,1.2-35.9-14.6-36.3-32.3c-0.4-18.3,15.6-36.5,32.3-36.9
	C1003.7,1672.4,1021.8,1688.5,1022.2,1705.5z"/>
<path d="M852.9,2007.7c-19.2-0.4-33-15-32.6-34.2c0.4-19.1,15.1-33.8,33.9-34c19.1-0.2,34.4,14.6,34.2,33.3
	C888.3,1993.5,873.4,2008.2,852.9,2007.7z"/>
<path d="M3129.2,2110.1c-0.4,19.4-18.2,35.8-37.6,34.7c-17-1-30.7-16.4-30.6-34.4c0.1-17.5,17.4-35.4,34.3-35.5
	C3112.7,2074.8,3129.6,2092.3,3129.2,2110.1z"/>
<path d="M2883.3,2289.9c-18.3,0.7-34.3-13.9-35.5-32.4c-1.2-17.3,14.9-35.2,32.4-35.9c18.1-0.7,38,17.5,37.8,34.5
	C2917.6,2274.2,2902.3,2289.2,2883.3,2289.9z"/>
<path d="M2707.1,1235.3c17.8-0.2,34.7,15.9,35.5,33.8c0.8,18.1-17.7,35.7-36.9,35.4c-16.5-0.3-31-15.7-31.7-33.5
	C2673.3,1253.1,2689.7,1235.5,2707.1,1235.3z"/>
<path d="M1200.7,2560.9c19.4-0.3,34.9,14.4,34.7,32.8c-0.2,19.3-17.3,36.4-36,35.9c-17.6-0.5-33.5-17.1-33.4-34.9
	C1166.1,2576.9,1182.1,2561.2,1200.7,2560.9z"/>
<path d="M2182.3,1257.6c-0.4,20.5-15.8,35.8-36,35.7c-17.5,0-33.3-17-32.8-35.3c0.4-18.4,16.3-33.9,34.6-33.8
	C2168,1224.3,2182.7,1238.7,2182.3,1257.6z"/>
<path d="M1013.7,1385.1c-18.6,0.1-34.5-14.7-35.3-32.8c-0.8-18.4,17.2-36,36.3-35.5c17.3,0.5,33,15.3,33.4,31.5
	C1048.7,1368.6,1033.4,1385,1013.7,1385.1z"/>
<path d="M1846.2,1090.2c0.8,19.1-12.9,33.5-33,34.7c-17.8,1-33.3-14.4-33.9-33.8c-0.6-19,14.5-35.4,32.5-35.3
	C1829.5,1055.9,1845.5,1071.9,1846.2,1090.2z"/>
<path d="M1390.1,874.1c-0.5,20.3-16.4,34.8-37,33.7c-16.4-0.9-29.3-16.3-29.3-34.8c0-19,15.4-34.7,33.4-34.2
	C1375.1,839.3,1390.5,855.9,1390.1,874.1z"/>
<path d="M2968.6,1009.3c-0.2,18.3-15.4,33.4-34.1,33.7c-19.4,0.3-33.2-13.7-33.1-33.6c0.1-18.3,16-34.5,33.6-34.3
	C2953.5,975.3,2968.7,990.8,2968.6,1009.3z"/>
<path d="M3352.4,1902c-19.5-0.4-33.3-15.1-32.7-34.9c0.6-18.5,17.3-34.8,34.6-33.6c18,1.2,33.6,18.1,33.3,35.8
	C3387.2,1888.3,3372,1902.4,3352.4,1902z"/>
<path d="M1438.1,1864.1c-18-0.3-31.3-13.9-31.6-32.3c-0.3-19.5,17-36.9,36-35.9c16.7,0.8,32.2,17.1,32,33.5
	C1474.3,1850,1459.1,1864.5,1438.1,1864.1z"/>
<path d="M2822.3,2890c18.1-0.2,36.2,18.3,35.7,36.5c-0.5,17-15.1,31.5-32.5,32.4c-18.4,1-34.1-13.9-34.7-32.8
	C2790.2,2907,2804.9,2890.1,2822.3,2890z"/>
<path d="M1422,1211.5c-19.7,0.1-33.4-13.6-33.6-33.5c-0.2-19.9,14.1-35.5,32.3-35.1c17.4,0.4,34,16.9,34.4,34.4
	C1455.5,1196.2,1440.8,1211.5,1422,1211.5z"/>
<path d="M3060.5,2571.8c-20.1,0.3-34.1-13.2-33.9-32.7c0.1-16.8,15.3-33.2,31.3-33.8c17.1-0.7,35,15.9,35.7,33
	C3094.3,2557.7,3080.7,2571.5,3060.5,2571.8z"/>
<path d="M1461.9,1511.5c-20.7-0.1-35.1-14-34.1-33c0.9-17,16.5-33.8,31.8-34c18-0.3,36.9,18.8,36.3,36.6
	C1495.3,1498.1,1480.2,1511.5,1461.9,1511.5z"/>
<path d="M2051.2,3314.4c-19.5-0.4-33.1-15.2-32.1-34.8c1-18.3,14.8-31.9,32.7-31.9c18.5-0.1,34.3,15.6,34.3,34.1
	C2086,3300.2,2070.4,3314.8,2051.2,3314.4z"/>
<path d="M2706.9,2651.6c-19.5-0.4-33.1-15.2-32.1-34.8c1-18.3,14.8-31.9,32.7-31.9c18.5-0.1,34.3,15.6,34.3,34.1
	C2741.7,2637.4,2726.1,2652,2706.9,2651.6z"/>
<path d="M2323,2770.5c-19.5-0.4-33.1-15.2-32.1-34.8c1-18.3,14.8-31.9,32.7-31.9c18.5-0.1,34.3,15.6,34.3,34.1
	C2357.8,2756.3,2342.2,2770.9,2323,2770.5z"/>
<path d="M3160,1294.2c-19.2,0.1-31.5-11.9-32-31.2c-0.6-20.1,12.5-34.7,31.8-35.4c19-0.7,34.7,14.3,34.2,32.9
	C3193.4,1280.1,3179.3,1294.1,3160,1294.2z"/>
</svg>
