<?xml version="1.0" encoding="utf-8"?>
<!-- Generator: Adobe Illustrator 24.3.0, SVG Export Plug-In . SVG Version: 6.00 Build 0)  -->
<svg version="1.1" id="Layer_1" xmlns="http://www.w3.org/2000/svg" xmlns:xlink="http://www.w3.org/1999/xlink" x="0px" y="0px"
	 viewBox="0 0 4000 4000" style="enable-background:new 0 0 4000 4000;" xml:space="preserve">
<path d="M3418,1451.5c27.8,9.1,53.1,15.7,77.1,25.6c51.1,21.1,102.1,42.5,151.8,66.5c22.4,10.8,42.5,26.9,62.3,42.5
	c54.3,42.8,75.7,99.2,65.6,167.5c-6.8,46.1-12.5,92.4-21.3,138.1c-34.9,181-89.8,355.4-174.8,519.7
	c-103.1,199.3-239.2,371.8-414.7,512.3c-63,50.4-131.2,93.4-202.1,132c-27.6,15-27.8,15.1-24.4,46.9c4.8,45.3,8.9,90.8,15,135.9
	c4.8,35.1-7.2,60.5-37.5,78.2c-46.6,27.2-97.6,43.2-149,57.4c-168.3,46.7-340.3,68.3-514.6,72.2c-70.8,1.6-141.8,1.4-212.6,0.1
	c-124.5-2.3-247.6-18.1-370.3-37.9c-70.1-11.3-138.8-28.5-205.9-51.2c-36.5-12.4-71.7-29.4-106.3-46.7
	c-29.5-14.7-39.6-41.1-35.7-73.2c5.8-47.2,11.5-94.4,17.6-141.5c3.4-26.4,4-26.8-19.1-38.4c-100.4-50.5-191-115.5-275-189.5
	c-162.6-143.3-285.6-316.4-378.8-511.3c-89.2-186.5-143.4-383-167-588.2c-1.7-14.5-2.1-29.1-3.2-43.6c-4-51,14.9-92.9,51.1-127.9
	c39.8-38.4,87.5-64,137.8-85.3c78.9-33.5,161-57,244.6-74.3c88.3-18.3,177.1-33.9,265.9-49.1c20.3-3.5,29.4-12.7,35.6-31.6
	c26.1-79.5,75.8-139,153.3-173.3c38.5-17,78.9-26.9,121.1-28.3c37.8-1.3,75.7-0.6,113.5-2.5c61.7-3.1,114.1-28.4,159-70.3
	c29.8-27.8,59.1-56.3,90-82.9c57-48.9,121.7-81.8,196.3-96c138.7-26.3,263.7,60.9,304.4,186.1c17.9,55.2,15.9,110.9,3.9,166.9
	c-1,4.7-2.7,9.3-3.8,14.1c-6.2,27.3-3.9,32.5,23.4,38.8c28.3,6.4,57.2,10.6,85.8,15.8c14.8,2.7,25.8-1.7,35-14.5
	c100.8-140.3,201.9-280.4,303.1-420.4c73.9-102.3,148-204.4,222.1-306.5c6.8-9.4,15-17.9,22.1-27c15.2-19.5,35.1-23.2,57.4-16
	c11.9,3.8,23.5,9.1,34.6,15.1c150.8,81.1,245.5,208.2,299.1,368c57.9,172.5,46.8,342.1-25.4,508.4
	C3422.7,1437.1,3421.1,1442.6,3418,1451.5z M3682.6,1838.2c-5.1-0.9-7.3-2-8.7-1.4c-7.2,2.9-14.4,5.8-21.1,9.6
	c-68.8,39.4-143,65.2-219.6,83.8c-174.7,42.5-352.1,71.2-530.9,86.6c-165.3,14.2-331.2,25-497.1,28.6
	c-380.7,8.2-761.2,1.2-1140-43.6c-140.8-16.6-281.1-36.2-418.6-71.3c-83.8-21.4-166.2-47.2-241.3-91.9c-3.7-2.2-8.4-2.5-14.7-4.3
	c0.6,9,0.2,15.8,1.7,22.2c12.6,56.8,23.6,114.1,38.8,170.2c66.4,245.6,180,466.9,349,657.6c189,213.4,418.6,362.5,699.9,424.2
	c58.6,12.8,118.5,19.9,178,28.7c27.8,4.1,39.8,10.9,39.2,25.9c-0.7,16.3-11.3,21-41.7,17.1c-33.7-4.2-67.4-8.5-100.9-13.9
	c-98-15.9-193.4-41.6-285.6-78.7c-14.2-5.7-27.9-12.5-46.5-21c-6.2,57.7-12,111.4-17.7,165.2c-1.1,10.3,4.8,16.3,13.5,20
	c15.2,6.5,30.1,13.4,45.7,18.9c130.8,46.2,266.9,67.1,404.1,81.7c118,12.6,236.4,14.6,354.9,11.9c141.9-3.3,282.9-16.6,421.8-46.7
	c69.3-15,137.7-33.4,202.2-63.5c22-10.2,23.3-12.8,20.6-35.5c-5-42.4-10.2-84.8-15.6-127.2c-0.8-6.2-2.9-12.2-4.3-17.9
	c-4.3,0-6.3-0.5-8,0.1c-6.4,2.1-12.9,4.2-19.1,7c-89.9,40.6-184.1,66.9-281.1,82.8c-47.8,7.9-96,14.1-144.1,19.9
	c-15.2,1.8-23.1-5.6-24.3-18.5c-1.2-12.5,4.5-20.4,16.8-23.3c4.7-1.1,9.4-2.3,14.2-3c42.2-6.2,84.6-11.5,126.7-18.4
	c105.8-17.3,208.4-46.5,305.8-91.3c238.7-110.1,429.9-276.4,575.6-494.7c126.6-189.6,210.6-397.1,257-620
	C3672.2,1888.8,3677.4,1863.5,3682.6,1838.2z M966.1,1744.7c60.7,10,117.7,22.1,175.3,28.4c124.4,13.7,248.9,26.9,373.6,36.1
	c233.4,17.1,467.2,25.7,701.3,22.7c114.5-1.5,229.1-2.8,343.5-8.9c152.1-8.1,304.2-18.4,455.8-32.3c92.6-8.5,184.3-25.6,276.4-39
	c5.8-0.9,11.4-4.1,19.2-7c-5.5-4.7-8-7.8-11.3-9.6c-42.1-24.1-83.7-49.3-126.7-71.6c-21.3-11-44.8-18.6-68.2-24.1
	c-45-10.7-90.7-6.4-136.2-2.5c-45.6,3.9-91.1,5.9-136.4-2.9c-103.6-20-197.3-59.7-265.5-143.8c-34.6-42.7-76.9-65.7-130.7-72.9
	c-43.2-5.8-86.2-14.2-124-38.7c-44.1-28.7-56.7-61.9-41-111.9c5.8-18.5,12.9-36.7,17.5-55.5c23.4-97-40.7-195.2-138.7-214.4
	c-43.6-8.6-85-1-125.4,14.7c-55.2,21.6-101,57.1-143.1,98.1c-21.5,21-42.2,43.2-65.6,61.9c-57.9,46.1-124.6,69.9-198.8,72.5
	c-43.6,1.5-87.7,0.1-130.7,6c-84.9,11.6-144,58.5-173.9,140c-3,8.2-5.9,16.4-8.4,24.8c-16.4,54-50.7,93.1-99.6,120.1
	c-25.5,14.1-51.1,27.9-76.9,41.4c-37.9,20-74.1,42.6-104.7,73C997.4,1674.9,976.3,1703.4,966.1,1744.7z M3130.7,1545.8
	c23.6,8.7,42.9,14.9,61.5,22.8c26.6,11.3,27.9,11.7,47-9.8c81.6-92.1,139-196.2,155-320c32.1-249.1-48.3-450.4-255.4-597.4
	c-24.2-17.2-30.2-16.1-46.6,8.5c-14,21-25.9,43.4-40.6,63.8c-38,52.7-77,104.7-115.6,157c-110.6,150-221.3,299.9-331.8,450
	c-10.7,14.6-20.5,29.9-30.2,44c29,31.5,55.7,60.8,82.9,89.6c7.3,7.7,15.9,14.3,24.6,20.4c76,53.4,160.7,75.6,253,70.3
	c35.8-2.1,71.7-4.4,107.6-5.6c18.3-0.6,33.2-6.3,47.8-17.7c85.9-67.4,138.9-155.9,167-259.9c38.2-141.4,20.2-275.2-59.9-398.9
	c-28.8-44.5-66-81.2-110.3-110.6c-11.4-7.6-26.1-13.9-26.2-33.5c21.5-10.9,39.9-0.8,57.1,9c44.6,25.5,79.5,61.8,108.8,103.6
	c156.1,223.1,102.6,529.4-78.5,697C3142.5,1533.4,3137.5,1538.9,3130.7,1545.8z M1078.1,1499c-0.3-2.1-0.5-4.3-0.8-6.4
	c-29.3,6-58.7,11.5-87.8,18.1c-85.1,19.4-170.5,38.4-251.7,71.3c-39.4,16-77.4,36-114,57.5c-15.9,9.3-30,25.2-39.6,41.3
	c-22.9,38.5-14.9,76.6,21.9,102c27,18.7,55.9,35.3,85.7,48.9c99.7,45.6,206.3,67.6,313.2,87.4c140.4,25.9,282,42.7,424.3,54.6
	c153.9,12.9,307.9,23.2,462.3,25.9c332.1,5.9,664.1,4.2,995.3-27.4c138.3-13.2,275.7-31.9,412-58.7c95.2-18.8,189.5-41.6,279.2-80.1
	c34.1-14.6,66.1-32.6,94.4-56.8c17.5-14.9,25.2-33,24.8-56.2c-0.5-30-15.1-51.7-37.4-69c-37.1-28.7-77.6-51.6-121.6-67.8
	c-31.8-11.7-63.6-23.9-96.1-33.3c-21.5-6.2-42.2-18.7-66.5-12.7c10,5.7,20.5,9.7,31.3,12.6c44.2,11.7,87.6,26,127.2,48.9
	c17.3,10,34.3,22.6,47.4,37.5c21.5,24.4,20.4,58-1.2,82.4c-10.7,12.1-24.4,22.4-38.4,30.5c-17.6,10.1-36.6,18-55.6,25.2
	c-107.6,41-219.2,66-333.1,80.5c-96.2,12.2-192.8,21.8-289.5,30.5c-177,16-354.5,25.1-532.2,27.2c-214.6,2.5-429.2,1.3-643.6-10.9
	c-212.2-12.1-424.4-25.3-634.7-58.6c-95.3-15.1-188.1-39-277.6-74.8c-20.6-8.2-41.1-18.3-59.1-31c-46.3-32.5-46.5-88.4-7-118.4
	c16.1-12.2,33.2-23.6,51.4-32.3c68.2-32.4,142.5-43.1,215.4-58.6C1010.9,1521.2,1047.6,1520.1,1078.1,1499z M3438.9,1746.7
	c26.2-10.7,51.5-19.9,75.8-31.4c15.5-7.3,35.8-15.6,36.9-33.7c1.3-20.5-20.2-28.7-35.9-37.7c-52.6-30.3-110.9-45-169-60
	c-6.7-1.7-18,2.1-22.6,7.4c-11.1,12.6-19.6,27.7-30.3,43.5C3352.4,1659.3,3399.9,1693.1,3438.9,1746.7z M961.9,1578.5
	c-74.1,13.5-146.8,28.7-212.1,67.1c-7.4,4.3-14.3,10.1-20,16.5c-11,12.4-11.4,22.3,2.1,32.3c32.7,24.3,66.8,46.4,108.3,53.5
	c12.7,2.2,19.7-2.2,24.9-13.8C889.8,1678.2,916.7,1623.6,961.9,1578.5z"/>
<path d="M2269.4,1685.5c-10.3-5.7-22.9-9.4-30.3-17.7c-10.5-11.7-4.3-25,11.2-27.7c8.5-1.5,17.4,0,26.1-0.5
	c27.7-1.6,45-18.9,48.7-48.3c3.6-28.4-10.2-49.8-37.1-57.4c-5.6-1.6-11.3-2.8-17-3.8c-9.8-1.7-16.5-6.1-15.2-17.2
	c1.3-11,7.9-17.6,18.7-19.2c18.2-2.8,34.5,2.5,49.5,12.6c34.1,23,50.1,70.6,37.5,110.8C2348.8,1657.4,2315.5,1681.4,2269.4,1685.5z"
	/>
<path d="M1549.3,1425c-8.8,0.5-18.3,0.6-27.7,1.6c-29.2,2.8-52.5,15.4-62,44.5c-9.7,29.6-1.6,55.2,22.8,75.2
	c3.7,3.1,8.7,5.4,10.9,9.4c3,5.3,7.3,14.7,5.1,17.1c-5,5.7-13.4,10.9-20.7,11.2c-6.8,0.3-14.4-5-20.7-9.4
	c-35.6-24.9-49.2-76-32.3-119.8c16.9-44,57.7-70.4,101.8-65.9C1550.4,1391.3,1555.2,1398.2,1549.3,1425z"/>
<path d="M1841.1,1378.1c-34.7,0.1-57.7-15.8-64.4-46.1c-1.8-8-1.6-17.8,1.4-25.2c2.5-6,10.5-12.7,16.6-13.3c6-0.6,12.8,6,19,9.8
	c1.4,0.8,1.8,3.3,2.5,5.1c3.7,10.5,1.8,26.2,15.7,28.4c10.4,1.6,21.9-5,33.1-5.5c7.7-0.4,19.3,1.1,22.3,6c3.3,5.4,1,16.9-2.8,23.5
	C1876.7,1374.3,1864.4,1378,1841.1,1378.1z"/>
<path d="M1264.7,1708.8c-19.5,0.2-33.7-13.2-33.9-31.9c-0.2-19.5,13-33,32.4-33.2c21.7-0.2,36.5,13.4,36,33
	C1298.7,1694.9,1283.9,1708.6,1264.7,1708.8z"/>
<path d="M2128.7,1125.8c-0.4,20.1-15.8,36.2-34.3,35.9c-16.7-0.4-31.3-17.4-30.7-35.8c0.6-18.3,16.1-34.4,32.9-34.2
	C2114.8,1091.8,2129,1107,2128.7,1125.8z"/>
<path d="M1870.9,1694.5c-26-2.3-41.5-14.9-40.3-32.7c1.1-16.4,17.2-30.7,33.5-29.6c18.9,1.3,36.7,21.8,34.6,39.7
	C1896.8,1687.5,1886.5,1695.9,1870.9,1694.5z"/>
<path d="M2719.9,1716.2c-4.2,8.4,9.7,20.6-6.1,24.6c-11.9,3-20.2-2.8-26.4-12.7c-13.9-22.4-1.5-48.5,24.6-51.7
	c17.4-2.1,33.2,8.6,33.9,23.5C2747,1720.1,2730,1713.8,2719.9,1716.2z"/>
<path d="M2956.6,1062.7c42.5-2.3,85-4.7,127.5-6.7c12.6-0.6,25.3-1.1,37.7,0.3c18.1,2,30.4,14.8,30.5,29.5c0.1,15.7-11,28-30.4,28.7
	c-66.8,2.3-133.6,2.9-198.4-5.7c-13.6-18.7-3.2-33.3,3.6-48.8c-2.8-2.7-5.9-5-8.3-8c-13.3-16.7-12.4-26.5,4.1-38.9
	c7.7-5.8,17.2-9.3,24.5-15.5c11.7-10,22.3-21.3,33.4-32c20.2-19.4,38.5-41.6,61.3-57.2c16.7-11.4,38.9-17.2,59.4-19.9
	c25.7-3.4,48,12.2,56.1,32.8c8.9,22.8,3.2,54.2-17.8,68.6c-17.9,12.3-39.2,20.7-60.1,27.1c-30.5,9.3-62.2,14.7-93.1,22.9
	c-11.5,3-22,9.3-33,14.1C2954.7,1057,2955.6,1059.9,2956.6,1062.7z M3118.3,950.6c-14.7-22.4-18.7-24.6-37.8-17.7
	c-26.4,9.5-43.7,29.4-63,57.8C3057.5,981.6,3092.4,978,3118.3,950.6z"/>
<path d="M2897.3,1181.7c11.1,4.5,24,6.9,33.1,14c42.7,33.4,85.6,66.8,125.8,103.1c16.6,15,29.5,36,39.1,56.6
	c13.7,29.4,3.8,60.2-19.2,74.8c-23.5,14.9-55.2,11.2-75.8-14.2c-24.3-30-47.1-61.7-65.7-95.4c-16.7-30.3-27.4-64-39.3-96.7
	c-4.1-11.1-3.7-23.9-5.4-35.9C2892.4,1185.9,2894.8,1183.8,2897.3,1181.7z M2976.1,1292.9c9.8,34,28.4,61.9,49.7,88
	c7.2,8.8,16.7,13.3,29.8,3.5C3047.6,1338.2,3010.8,1316.3,2976.1,1292.9z"/>
<path d="M2950.2,1126c50.5,7,105.1,14.4,159.6,22c26.6,3.8,46,19.4,61.6,40.1c23.7,31.3,7.8,75.3-30.5,84.9
	c-22.5,5.6-45,3.5-64.5-8.8c-48.3-30.4-95.9-61.9-143.6-93.2c-4-2.6-8.8-5.7-10.5-9.8c-3.5-8.4-8-18.3-6.3-26.3
	c0.9-4.3,13.8-6.3,21.4-8.9C2940,1125.3,2943.2,1126,2950.2,1126z M3135.4,1226.4c1.3-16.3-5.8-25.8-18.6-30.6
	c-26-9.7-52.8-13.1-82.2-9.6C3059.2,1218.7,3101.6,1235.5,3135.4,1226.4z"/>
<path d="M2827.8,1381.6c-3.7,16-5.4,31.6-10.8,45.8c-9.9,25.8-35.3,40.1-59.8,36c-24.9-4.1-44.8-28.5-44.9-56.6
	c0-11.5,0.9-23.5,4-34.5c11.2-40,23.3-79.7,35.4-119.4c1.7-5.4,4.5-10.8,8-15.3c12.3-16.3,29.3-15.3,39.6,2.8
	c4.3,7.4,7.7,15.9,9.2,24.3C2815.4,1303.6,2821.5,1342.7,2827.8,1381.6z M2760.4,1424.7c6.9-5.9,15.3-9.5,16.6-14.8
	c6.3-26.1,5.5-52.4-1.2-82.6C2759.4,1358.3,2754.1,1391.5,2760.4,1424.7z"/>
<path d="M2936.2,1383.1c0.2,21.1-10.4,38.2-26,43.4c-16.1,5.5-35.2,0.3-45.8-16.1c-8.3-12.7-15.1-27.4-18.2-42.1
	c-9-42.5-15.9-85.5-23.3-128.3c-1.1-6.6-1.9-14.2,0.4-20.1c3.3-8.3,8.3-20.1,14.9-21.8c8.5-2.2,20.2,2.3,28.6,7.2
	c5.9,3.5,10,11.9,12.7,18.9c17.5,45,34.5,90.2,51.2,135.5C2933.7,1367.8,2934.7,1376.6,2936.2,1383.1z"/>
</svg>
