<?xml version="1.0" encoding="utf-8"?>
<!-- Generator: Adobe Illustrator 24.3.0, SVG Export Plug-In . SVG Version: 6.00 Build 0)  -->
<svg version="1.1" id="Layer_1" xmlns="http://www.w3.org/2000/svg" xmlns:xlink="http://www.w3.org/1999/xlink" x="0px" y="0px"
	 viewBox="0 0 4000 4000" style="enable-background:new 0 0 4000 4000;" xml:space="preserve">
<path d="M2119.2,2954.9c-424-2.1-848-4.2-1272.1-6.5c-73.2-0.4-145.6-8.3-214.2-35.4c-100.3-39.7-166.2-113.1-200.9-214.5
	c-31.4-91.9-29.1-185.5-12.2-279.7c2.9-16.2,4.2-33.1,3.6-49.5c-2.9-77.8,14.3-148.1,70.3-205.9c17.7-18.3,32.8-39.2,49.2-58.8
	c13.1-15.6,15.3-31.7,9.6-51.9c-25.6-89.9-12.6-175.9,34.2-255.8c42.1-72,104.7-121.7,181.3-153.8c20.8-8.7,42.3-16,63.8-22.9
	c16.8-5.4,29.3-14.6,37.5-30.6c17.2-33.7,43.8-57.9,78.4-72.8c15.7-6.8,24-17.4,29-34.1c47.1-156.8,150.7-259.2,304.7-311.2
	c84.5-28.6,171.3-33,259.3-19.7c3.9,0.6,8,0.5,11.7,1.6c29.1,9.1,48-1,67-25.5c49.5-63.7,119.8-90.3,197.8-97.7
	c64-6,125.4,2.8,181.7,37.4c8.8,5.4,23.1,7,33.3,4.3c69.1-17.7,136.6-12.5,202.9,12.2c13.7,5.1,24.1,2.2,36.2-3.8
	c96-47.9,186.5-34.1,271.8,26.6c10.2,7.2,17.3,18.6,26.6,27.3c14.2,13.2,28,27.3,44,37.9c6.5,4.3,18.7,2,27.7-0.2
	c35.3-8.4,69.9-21.4,105.6-26.4c122.7-17.1,236.8,5.9,338.3,80.2c57.7,42.3,101,96.2,128.9,161.9c12.7,29.8,23.6,60.5,33.1,91.4
	c4.8,15.6,11.4,23.1,28.4,22.9c106.4-1.1,236.7,79,250.7,238.9c2.2,25.1,11.8,37.2,35.3,46.7c122.7,49.6,191.4,144.1,213.8,272.1
	c6.5,37.2,3.6,76.5,1.5,114.7c-1.2,22.7,2.7,42.8,12.5,62.5c30.9,62,53.2,127.2,65,195.3c19.4,112.1,11.8,221.7-39.2,325.4
	c-50.4,102.4-136,159-245.6,178.4c-59.8,10.6-121,17.6-181.6,18c-346.3,2.2-692.6,1.9-1038.9,2.5c-76.7,0.1-153.5,0-230.2,0
	C2119.2,2955.9,2119.2,2955.4,2119.2,2954.9z M466.6,2501.2c-1.4,6.3-3.2,10.8-3.3,15.2c-0.8,66.6,7.5,131.5,34.7,193.1
	c29,65.8,76.1,113.9,141.3,144c48.9,22.6,100.9,33.2,154.2,36c63.8,3.4,127.8,5,191.8,5.4c608.1,3.2,1216.3,6.7,1824.4,8.3
	c207.6,0.5,415.2-3.5,622.7-7.7c45.8-0.9,92.2-8.1,137-18.4c112.4-26,189-94.2,222-206c32.3-109.3,24-217.8-13.4-324.7
	c-2-5.7-7-10.3-13.1-19c-9.6,22.7-16.7,41.8-25.7,60.1c-7.4,15.1-7.3,28.9-3,45.3c6.1,23.5,11.6,48.4,10.4,72.3
	c-2.1,44-9.1,87.8-14.2,131.7c-0.5,3.9-1.8,7.7-2.9,11.4c-27.5,92.2-104,133.7-193.5,133c-19.1-0.1-26.2-6.4-29.9-26.1
	c-3.8-20.2-6.1-40.9-7.7-61.4c-15.1-193.2-66.1-377.1-141.5-555c-92.1-217.5-230.8-399.1-416.6-545
	c-109.3-85.8-229.3-152.2-360.4-198.1c-122.3-42.8-248.3-67.9-377.6-76.1c-112.5-7.2-223.9,1.8-334.6,23.6
	c-147.8,29-288.8,76.1-420.1,150.8c-213.2,121.3-376.6,292.7-500.2,502.6c-106.9,181.6-171.7,379.3-213.8,584.9
	c-8.9,43.3-17.2,86.8-27.8,129.7c-13.3,53.9-71.9,57.6-104.1,35.5c-30.9-21.2-50.4-50-57-86.3c-4.2-23-3.5-46.9-5.9-70.4
	c-0.9-9.4-1.1-21.5-6.8-27.4C512.2,2541.4,490,2522.6,466.6,2501.2z M3461.3,2256.2c12.4-13,20.5-20,26.8-28.4
	c55.1-73,67.5-153.7,39.3-239.8c-37.7-115-125.5-179.3-244.2-172.5c-12.4,0.7-25.1,0.5-36.1,12.2
	C3340.4,1957.7,3408.4,2099.5,3461.3,2256.2z M3560,2719.8c14.2-8.7,23.7-13.6,32.2-19.9c146.3-109.4,126.3-337.7-37.9-427.1
	c-12.2-6.6-21.9-6.1-30.7,5.7c-7,9.4-14,19.4-23,26.6c-14.8,11.9-14.9,24.6-10,41.6c25.2,87.9,43,177.4,54.9,268.1
	C3549.6,2647.7,3554.5,2680.6,3560,2719.8z M832.8,2090.7c8.7-14.2,14.4-21.9,18.4-30.5c60.1-130.6,142.4-246,240.2-350.8
	c4.9-5.3,8.4-12,13.2-18.8c-22.4-14.7-45.2-15.9-67.4-15.1c-102.4,4.1-181.2,48.2-227.4,141.8
	C764.3,1909.5,782.5,1997.8,832.8,2090.7z M680.3,2559.5c2.6-9.2,5.3-17.3,7.2-25.6c26.2-113.9,55-227.1,99.5-335.6
	c5.6-13.6,11-27.4,14.8-41.6c7.1-26-16-50.2-41.4-42.5c-18.6,5.6-37.6,12.4-53.8,22.9c-156.2,101.2-140.4,280.5-75.7,378.6
	C642.7,2533.5,656.2,2550.6,680.3,2559.5z M2360.7,1278.2c-35.7-98.5-145.9-164.5-260.3-159.9c-82.8,3.3-183,61-217,160.9
	C2042.3,1253,2199.9,1257.5,2360.7,1278.2z M1170.7,1621.1c117.4-103.4,248.3-184.6,391.2-248.5c-40.4-43.6-161.6-64.9-247.9-20.6
	C1217.8,1401.2,1151.6,1493.3,1170.7,1621.1z M2677.4,1252.4c84.3-24.1,165.7-12.2,243,30.6c79.2,43.9,122.3,113.9,140.7,195.6
	c47.8,9.6,91,18.4,135.7,27.4c-1-7.1-1.1-13.9-2.9-20.3c-26.6-95.3-77.5-173.7-161.6-228c-108-69.7-223.7-79.6-344.8-41.7
	C2663.8,1223.4,2664,1224.9,2677.4,1252.4z M752,2050.8c-3.3-10.5-6.6-20.7-9.7-31c-13-42.9-17.4-86.4-11.1-131.2
	c9.3-66.3,35.9-124.1,80.3-174.1c7.2-8.1,11.9-18.4,19.6-30.5c-80.5,10-182.6,95.4-214.7,178.9c-32.9,85.4-25.8,168.5,18.3,249.6
	C674.7,2091.6,711.7,2072,752,2050.8z M2619.4,1350.6c71.2,26.2,141.1,54.4,204.6,95.3c63,40.5,124.5,83.6,186.9,125.7
	c21.1-92.5-46.6-210.2-144.1-252C2777.7,1281.5,2656.7,1295.6,2619.4,1350.6z M3716.2,2044.6c-3.5-14.1-4.8-23.7-8.2-32.4
	c-29.7-77.4-79.3-137.2-155.4-173.1c-16.9-8-33.7-16.1-50.9-23.3c-14.2-5.9-21.9-16.1-23.9-30.9c-2-14.6-3.7-29.2-5.2-43.8
	c-11.1-103.7-92.4-183.3-191.3-186.9c-6.9-0.3-13.9,1.8-23.4,3.2c4.2,7,5.5,10.8,8.2,13.3c48.9,46.8,70,105.6,73.6,171.6
	c0.9,17.1,8.7,22.6,24.3,27c30,8.5,60.8,17.1,88,31.7c56.8,30.5,92.6,81,117.6,139.1c6.7,15.6,14.8,26.4,30.8,32.5
	c35.1,13.5,67.2,32.1,94.6,58.5C3699.5,2035.5,3705.9,2038.2,3716.2,2044.6z M1558.7,1212.7c-248.3-61-473,93.3-518.9,263.3
	c1.7,0.9,3.5,2.6,5.1,2.5c20.5-2,40.9-5.2,61.4-6.1c16.8-0.8,26.6-7.6,33.6-23.1c8.4-18.6,18-37.4,30.7-53.4
	c72-90.7,167-130.4,282-123.3c12.7,0.8,25.2,4.8,37.9,5.4c7.1,0.3,17-1.1,21.1-5.7C1527.5,1254.1,1541.8,1234.3,1558.7,1212.7z
	 M3073.7,1545c-2.5,25.8-5.9,50-6.7,74.2c-0.2,7.4,5.1,17.3,11,22.1c42.9,34.9,80.8,74.3,113.5,119c3.9,5.4,12.9,10.8,19,10.3
	c24.2-2.3,48.1-6.9,71.3-10.5C3300.1,1656.3,3184,1535.6,3073.7,1545z M3565.3,2211.3c29.9,19.5,56.8,33,78.5,52.3
	c21.9,19.6,38.5,45,58,68.5c59.3-92,1-258.6-104-296.8C3603.5,2097.9,3586.5,2155.6,3565.3,2211.3z M1564.7,1296.7
	c17.9,11.7,36.1,20.4,50.1,33.5c13.8,13,25.7,13.1,42.4,8c44.1-13.5,88.8-24.8,133.3-37.1c6.6-1.8,13.6-3,19.8-5.7
	c14.3-6.4,20-20.3,19.7-33.6c-0.2-7.2-10.1-16.3-17.7-20.7C1733.4,1195.1,1622.4,1219.6,1564.7,1296.7z M1949,1108.9
	c-13.4-6.8-23.6-14.9-35.1-17.5c-86.9-20-165.4-3.9-232.1,57.7c-4.2,3.9-6.5,9.8-13,20.1c70.2-12.6,130.6-0.3,187.1,33.6
	c15.2-18.9,26.7-36,41-50.3C1911.6,1137.5,1929.1,1125.2,1949,1108.9z M2401.4,1223.5c7.6,20.1,13.8,38.6,21.8,56.3
	c2.8,6.2,9.4,13,15.6,14.9c28.9,9,58.2,17.2,87.7,23.9c8.4,1.9,20.2,0.2,27.1-4.6c20.5-14.4,39.3-31.1,58.9-46.9
	C2572.4,1199,2456.6,1174.5,2401.4,1223.5z M907.7,1641.2c66.2-19,132-29.7,200.1-12.9c0-34.6,0-65.1,0-97.9
	C1025,1541.5,949.4,1559.7,907.7,1641.2z M560.2,2507.2c-51.8-113.8-38.9-222.5,18.3-329.8c-59,27.9-88.5,76.2-94.7,137.5
	C476,2391,497,2458,560.2,2507.2z M2315.9,1126.1c14.1,13.4,24.5,22.2,33.6,32.2c9.6,10.6,19.3,11.3,31.4,4.9
	c29.1-15.6,60.7-21.9,93.4-23.4c4.7-0.2,9.3-2.4,18.2-4.8C2432.9,1106,2377.7,1095.2,2315.9,1126.1z M608,2574.9
	c-16,36.4-5.4,94,19.1,115.7c1.5,1.3,2.9,2.7,4.5,3.8c11.5,7.6,22.2,5.6,25.5-7.6c5-19.8,6.9-40.5,9.4-60.9c0.4-3-2.9-7.3-5.7-9.6
	C644.1,2602.9,627.2,2589.9,608,2574.9z"/>
<path d="M2985.2,2376.3c-19.4,0.2-32.1-11.7-31.7-29.9c0.4-17.5,16.5-34.7,33-35.4c17.5-0.8,32.5,12.9,33.2,30.2
	C3020.5,2361.4,3006.1,2376,2985.2,2376.3z"/>
<path d="M1828,2063.5c-17.5,0.7-30.1-11.2-30.2-28.5c-0.1-18.5,12.9-34.7,28.4-35.4c17.9-0.8,34,14.6,34.4,33
	C1860.9,2049.4,1846.8,2062.8,1828,2063.5z"/>
<path d="M2521.8,1704.2c-17.9-0.1-31.1-13.5-30.9-31.2c0.2-18,16.7-33.9,34.1-32.9c16.8,1,31.6,16.6,31.1,32.7
	C2555.5,1692.2,2542.3,1704.3,2521.8,1704.2z"/>
<path d="M2372.6,2027.7c16.4,0.7,31,16.9,30.2,33.4c-0.9,17.9-17.5,32.1-35.9,30.7c-15.2-1.1-26.6-13.7-26.6-29.4
	C2340.1,2044.3,2356.2,2027.1,2372.6,2027.7z"/>
<path d="M2092.2,1819.8c-1.2,18.2-15.1,31-32.7,30.5c-16.6-0.5-30.8-16.5-29.7-33.6c1.1-17.2,16.7-31.5,33.2-30.6
	C2080.2,1787.1,2093.3,1802.2,2092.2,1819.8z"/>
<path d="M1200.6,2258.4c-17.9-0.2-31.5-13.4-31.7-30.7c-0.2-17,14.3-31.7,31.3-31.8c17.9-0.1,34,15.9,33.6,33.4
	C1233.3,2246.1,1219.1,2258.7,1200.6,2258.4z"/>
<path d="M2876.9,1998.5c0.3,16.5-14.8,33.5-30.1,33.9c-16.3,0.4-31.3-15.2-31.1-32.2c0.3-17.8,14.4-31.9,31.4-31.5
	C2863.5,1969,2876.6,1982.2,2876.9,1998.5z"/>
<path d="M1605.8,1748.7c-15.8-0.2-29.6-14-30-30.2c-0.5-17.9,16.1-34.9,33.2-33.9c15.7,0.9,28.8,15.7,28.4,31.8
	C1637,1733.7,1622.1,1748.8,1605.8,1748.7z"/>
<path d="M1367.4,2022.3c-18.8,0.4-32.2-12.1-32-29.8c0.1-15.7,13.7-30,29.4-31c17.8-1.1,33.2,12.3,33.7,29.3
	C1399,2008,1385.2,2022,1367.4,2022.3z"/>
</svg>
