<?xml version="1.0" encoding="utf-8"?>
<!-- Generator: Adobe Illustrator 24.3.0, SVG Export Plug-In . SVG Version: 6.00 Build 0)  -->
<svg version="1.1" id="Layer_1" xmlns="http://www.w3.org/2000/svg" xmlns:xlink="http://www.w3.org/1999/xlink" x="0px" y="0px"
	 viewBox="0 0 4000 4000" style="enable-background:new 0 0 4000 4000;" xml:space="preserve">
<path d="M734.3,2197.2c3.4-12.6,5.8-22.4,8.7-32.1c70.2-236.3,210.5-413.1,442.9-505.2c179.6-71.2,361.5-67.1,540.2,8.3
	c19.4,8.2,33.7,7.3,51.4-4.3c155.8-102.1,326.5-134.4,509.3-104.5c38.5,6.3,76.1,18.4,113.6,29.5c25.3,7.5,24.9,8.7,41.8-11
	c45.9-53.4,102.8-89.3,171.7-104c25.1-5.4,51.2-8.5,76.8-8.2c25.6,0.3,42-8.9,56.3-29.8c58.6-85.1,118.4-169.4,178-253.7
	c160.5-226.8,321.2-453.6,481.9-680.2c9.5-13.4,19.8-26.5,31.1-38.6c47.7-51.1,115.2-57.1,173.7-15.9c53,37.3,70.8,106.3,39.8,165.1
	c-12.4,23.5-29,45.3-46.2,65.7c-189.5,225.4-379.6,450.3-569.2,675.6c-49.2,58.5-96.9,118.3-146,176.9c-20,23.9-27.7,47.5-18.1,79.5
	c13.2,44,11.2,89.9,2.1,135.1c-1.6,7.9-2,16-3.5,27.6c17.8,2.2,33.8,4.4,49.9,6c90,9.1,172.8,38.8,249,87.3
	c100.3,63.8,175,150.2,227.8,256.1c10.1,20.3,20,40.8,28.2,62c4.6,11.9,11.2,15.5,23.1,15.4c24.8-0.2,49.6,0.7,74.3,1
	c32.4,0.4,53.1,18.6,61.6,47.3c6.3,21.2,8.6,44.9,6.9,67c-11.9,152.6-59.5,295-127.6,431c-120.6,240.9-301.1,424.8-534.1,558.1
	c-43,24.6-87.5,46.6-132,68.3c-17.2,8.4-24.4,18.4-23.4,38c1.7,30.9,0.3,62,0,93c-0.1,9.3-0.4,18.6-1.7,27.8
	c-3.8,28.1-9.6,33.5-37.2,35.2c-12.4,0.8-24.8,0.8-37.2,0.8c-364.8,0.1-729.6,0.2-1094.3,0.3c-39.3,0-78.5,0.5-117.8-0.4
	c-35.8-0.8-46.5-10.7-48.1-46c-1.7-37.1-2.4-74.4-1-111.6c0.7-19.8-6.4-28.8-24.3-36.6c-216.5-93.3-400.9-230-547.6-414.9
	c-153-192.8-240.3-412.8-262.9-658c-1.5-16.3-0.8-33.2,2-49.3c6.1-35.3,22.9-49.5,58.4-52.3c12.3-1,24.8-0.9,37.2-1
	C710.9,2197.1,722.1,2197.2,734.3,2197.2z M687.7,2462.9c0.8,6.7,0.6,11.9,2.2,16.5c20.8,59.4,38.5,120.2,63.3,177.9
	c73.5,171,185.9,313.9,325.9,435.4c114.8,99.7,243.3,177.4,382.4,238.4c28.4,12.5,56.2,17.8,86.6,17.6
	c121.9-0.8,243.9-0.7,365.8-0.8c253.2-0.2,506.4-0.5,759.6-0.3c24.2,0,46.6-3.6,68.4-15.3c47.3-25.3,96.4-47.3,143.4-73.2
	c308.2-169.7,512.8-423.5,614.9-760.1c3.7-12.4,5.6-25.3,8.4-38.1C3456.3,2453,720.9,2454.8,687.7,2462.9z M3534.1,2262.3
	c-10.5-1.4-15.5-2.7-20.4-2.7c-52.7-0.2-105.4-0.2-158-0.3c-334.8-0.2-669.5-0.9-1004.3-0.5c-315.1,0.4-630.3,2.4-945.4,3.2
	c-234.5,0.5-469.1,0.1-703.6,0.2c-13,0-26.1,1.1-42.8,1.9c4.1,45.2,7.9,86.7,11.9,130.2c13.5,0,23.7,0,33.9,0
	c473.2,0.4,946.5,0.6,1419.7,1.3c434,0.6,867.9,1.8,1301.9,2.7c25.8,0.1,51.7-0.3,77.5-0.3c11.3,0,21.1-2.3,22-16
	C3529,2343.1,3531.4,2304.1,3534.1,2262.3z M2480.4,1621.2c5.4,4.3,8.2,7.3,11.7,9.2c56.7,30.6,107.5,69.3,154.7,113
	c16.4,15.2,30.8,37.6,50.1,43.4c19.7,5.9,44.3-4.4,66.6-8.2c46.8-7.9,48.9-10.1,56.6-57.5c0.7-4.1,0.8-8.2,1.3-12.3
	c5.3-38.8-2.4-76.4-13.5-113c-8.4-27.6-3.2-50.6,14.8-71.9c6-7.1,11.3-14.8,17.2-21.9c111.9-135.2,223.4-270.9,336.1-405.6
	c129.2-154.5,259.6-308,389-462.3c13.2-15.7,25.1-32.9,34.7-51c5.4-10.2,8-24,6.6-35.6c-3.9-30.9-20.4-53.8-51-64.1
	c-29.9-10-55.4-1.6-75.2,21.8c-17.3,20.5-33.6,41.9-49.1,63.8c-108.7,153.3-217,306.9-325.5,460.4
	c-100.7,142.5-200.8,285.5-302.2,427.4c-55.2,77.3-42.3,67.9-124.6,68.1c-54.6,0.1-103.5,16.8-148.3,46.9
	C2511.8,1584.5,2493.9,1598.4,2480.4,1621.2z M1498.7,3506.6c58,7.2,1181.3,2.6,1211.4-4.4c6.6-28.1,5.8-70.7-2.8-95.8
	c-10.3,0-21.5,0-32.8,0c-93,0.1-185.9,0.3-278.9,0.2c-287.2-0.2-574.3-0.4-861.5-0.5c-11.8,0-23.6,2.4-35.5,3.6
	C1498.7,3444,1498.7,3474.6,1498.7,3506.6z M799.3,2197.4c16.4,0,29.6,0.1,42.8,0c26.3-0.2,25.2-0.7,35.4-24.6
	c18.9-44.6,35.7-90.5,59.5-132.4c62.4-109.7,150.4-194.6,265.9-246.7c153.6-69.3,310.3-73.1,465.7-5.7
	c162.6,70.5,287.9,180.2,350.3,351.4c7,19.2,12,39.1,17.9,58.7c24.5,0,47.5,0,70.9,0c-51.8-277.3-340.8-540.2-677.1-530.5
	C1063.2,1678,836.2,1974.6,799.3,2197.4z M3370.4,2196.6c-26.4-55.4-52.7-106.3-89-151.5c-77.2-96.1-171.3-167.8-293-196
	c-180.9-42-346.4-6.4-493.1,108.2c-69.2,54-124.3,120.7-163.2,199.9c-6.1,12.3-9.3,26.1-15,42.5c23.4,0,41.8,0.3,60.2-0.1
	c11.4-0.2,17.4-6.8,23.2-16.9c16.5-28.5,33.5-57,53.2-83.4c123.6-165.2,344-235.2,539.7-170.7c131.7,43.4,229.6,127.4,291.2,252.4
	c4.9,9.9,9,18.9,21.5,18.5C3326.4,2198.8,3346.7,2197.7,3370.4,2196.6z M1764.6,1905.1c-149.6-119.1-383-151.6-580.8-39
	c-126,71.8-256.4,246.8-244.8,333.7c19.6-1.2,39.4-2.5,60.7-3.9c0-13.5,0-22.6,0-31.7c-0.2-71.2,26-129.2,87.2-167.8
	c19.8-12.5,42.6-20.5,64.1-30.3c18.7-8.5,39.3-14.3,56.1-25.6c85.5-57.3,180.3-75.2,280.7-66.9c49.4,4.1,97.9,14.7,141.5,41.1
	c8.8,5.4,21.6,7.8,31.9,6.5C1695.8,1917.2,1730,1910.8,1764.6,1905.1z M1814.3,1709.2c14.3,9.8,27.5,16.5,37.5,26.3
	c16.3,16,30.3,13.7,49.7,4c167.9-84.4,338.6-92.4,509-9.5c50.6,24.6,96.4,59.3,143.3,91.1c14.6,9.9,27.1,13.4,42.7,5.8
	c9-4.4,18.1-8.6,27.5-13.1C2459,1594.7,2088.3,1531.4,1814.3,1709.2z M3223,2196.8c-55.2-134.8-210.1-238.6-383.5-236.6
	c-182,2-339,131.7-375.2,237.7c19,0,37.2-0.3,55.4,0.1c15.6,0.3,25.8-5.9,36.1-18.6c75.5-93,170.6-147.3,293.7-145.8
	c17.9,0.2,35.9-6.7,53.8-10.1c16-3.1,32.2-9.1,48.1-8.4c48.5,2.2,91.4,21,121.7,59c25.6,32,45.4,68.6,68.3,102.9
	c4.8,7.3,11,18.2,17.5,19C3179.8,2198.3,3201.2,2196.8,3223,2196.8z M1570.9,2199.6c23.5,0,47.9,0.1,72.3,0
	c24.8-0.2,49.5-1,74.3-0.9c25.8,0.1,51.6,1.3,77.4,1.3c23.8,0,48,6.3,77.6-4.4c-12.5-5.8-19.2-10.1-26.6-12.1
	c-23.5-6.5-42.9-19.5-60.9-35.5c-22.5-20.2-22.6-29.7,2.4-48.1c13.2-9.8,28-17.4,41.7-26.5c8.8-5.8,16.9-12.5,25.3-18.8
	c-1.4-2.2-2.8-4.4-4.2-6.6c-10.5,5.5-21.1,10.7-31.4,16.6c-16.1,9.2-31.5,19.8-48.1,28c-24.9,12.3-34.4,7.6-46.9-23.3
	c16.2-9.5,33.1-18.9,49.5-29c14.1-8.6,28.1-17.4,41.3-27.2c3.3-2.4,5.7-9.6,4.5-13.3c-1.2-3.8-7.8-9.2-11-8.6
	c-10.5,2-22.1,4.4-30.4,10.5c-8.8,6.4-14.1,17.6-21.6,26c-10.8,12.2-21,25.4-40.8,28.4c-26.8-30-8.8-58.6,4-87.1
	C1640.2,1964.9,1554.3,2105.1,1570.9,2199.6z M2098.1,1897.6c-2.8,34.1,7.1,50.5,35.7,60.3c39.6,13.6,80.9,16.8,122.4,14
	c17.3-1.1,34.5-5.7,51.3-10.1c19.8-5.1,29.1-20,28.3-39.4c-2-43.5-8.8-86.3-28.5-125.9c-6.4-12.9-14.3-25-31.2-29.3
	c-16.5,23.4,4,62.8-32.1,77.3c-16.9-8.3-20.8-23.4-24.4-38.5c-3.1-13-4.8-26.4-8.1-39.4c-3.1-12.1-12.9-12.3-22.3-9.5
	c-10.4,3.1-11.4,11.6-7.2,19.9c5.1,10.1,11.9,19.3,17.5,29.2c6.1,10.7,12.5,21.4,17.3,32.6c5.1,11.9,0.7,22.4-9.1,30.3
	c-10.6,8.5-19.6,2.1-27.6-4.8c-15.7-13.6-30.1-28.2-36.1-49.2c-1.4-4.9-6-9-8.2-12.2c-12.9,10.7-23.7,19.7-34.6,28.8
	c19.5,11.3,39.4,21.8,58.2,34.1c9.2,6,20.9,16,13.6,27.5c-4.9,7.8-18.1,11.5-28.3,14.2c-6.3,1.6-14-1.9-21-3.5
	C2115.9,1902.3,2108.2,1900.2,2098.1,1897.6z M1250.5,2022.2c-1.2,12.1-2.5,19.9-2.6,27.8c-0.2,13.4,0.5,26.8,0.5,40.3
	c0,12.3-4.2,21.2-16.9,26.4c-13.6,5.6-21-1-29.6-9.3c-17.8-17.2-36-34-54.4-50.5c-6.5-5.9-13.1-14.6-26.5-2
	c8.8,8.2,17.3,16.3,26.1,24.1c13.1,11.6,27.6,21.9,39.5,34.6c13.5,14.3,12.3,23.7-2.1,36.7c-5,4.5-11.5,7.4-18.9,12
	c-11.9-28.2-35.6-41.8-58.1-56.2c-16.1-10.3-21.5-6.6-27.9,16.6c26.3,15.4,60.2,19.7,79.2,48.7c-23.1,31.6-59.4,0.9-84,21.5
	c94.6,4.2,188.8,10.8,286.4,5.5C1349.8,2121.9,1329.7,2057.1,1250.5,2022.2z M1280.6,1970.6c17.2,11.3,35.2,21.2,50.8,34.1
	c15.5,12.7,30.7,14.4,48.7,8.2c29.7-10.3,60.7-12.2,91.6-8.3c22.4,2.9,44.7,7.3,66.5,13.2c12.6,3.4,22.2,3.5,29.6-7.9
	c10-15.4,19.8-30.9,29.7-46.4C1516.3,1914.2,1332.9,1918.3,1280.6,1970.6z M2322,2054.1c-74.5-13-142.2-29.3-216.3-37.7
	c7.1,18.9,12.8,32.9,17.6,47.3c6.5,19.2,18.6,27.8,39.5,26.3c38.6-2.8,73.1,9.6,104.6,31.5c4.6,3.2,10.8,4.2,18.7,7.2
	C2297.8,2104.4,2308.8,2081.6,2322,2054.1z M2622.9,2197.8c34.3,4.5,67.4,9.6,99.1-8.9c9.8-5.7,19.6-12.5,30.4-15.2
	c41.2-10.3,61.9-40.7,79.3-76.2C2753.6,2091.7,2646.4,2142.7,2622.9,2197.8z M1531.2,2070.2c-49.4-15.6-111.5-15.5-144.5-0.5
	c7.4,21.8,14.9,43.7,23,67.4c32.4,0,64.2,0.7,95.8-0.6c6-0.3,15.3-7.9,16.9-13.9C1526.9,2106,1528.3,2088.5,1531.2,2070.2z
	 M2514.1,1873.1c-32.8-38-118.2-92-153-97.1c12.5,28.5,23.6,56,36.5,82.7c11.5,23.7,36.5,32.1,57.1,45.1c4.4,2.8,14.4,0.1,20-3.1
	C2487.8,1892.9,2499.7,1883.3,2514.1,1873.1z M2100.2,1739.1c-54.8,3.3-131.3,27.3-169.3,54.5c14.2,14.9,27.8,29.8,42.4,43.7
	c3.1,3,10.2,4.7,14.3,3.4c24.3-8.2,50.6-14.1,67.3-35.3C2071.1,1784.8,2084.7,1762.1,2100.2,1739.1z M2833,2200.3
	c45.3,5.1,82.6,5.3,119,0.5c5.6-17.4-2.1-23-13.9-28.4c-20-9.1-22.5-14.8-16.9-35.9c2.8-10.8,8.3-21,12.5-31.4
	c2.9-7.2,5.8-14.3,9.1-22.5c-24.4,1.4-38,4.7-48,19.2C2873.9,2131.9,2855.7,2163.7,2833,2200.3z M2161.6,2153.5
	c3.6,16.4-0.6,35.6,16,42.2c14.5,5.8,32.1,5,48.3,4.7c10.1-0.2,20.2-5.1,30.9-8.1C2241.1,2160.1,2209.7,2147.5,2161.6,2153.5z
	 M1945.6,2104.9c-3.3,35.8-5.9,64-8.6,93.9c12.8,0,25.4,0,42.6,0C1968.1,2166.9,1957.8,2138.6,1945.6,2104.9z M2972.7,2153.2
	c14.3-13.8,32.5-24.9,37.1-51.8C2983,2112.6,2977.6,2132.7,2972.7,2153.2z M1826.3,2126.9c0.2,3,0.4,5.9,0.5,8.9
	c17.3-4.2,34.5-8.4,51.8-12.6C1858.3,2110.4,1842.2,2118.1,1826.3,2126.9z M1160.4,2028.5c14,11.7,24.8,20.8,38,31.8
	C1191.2,2029.4,1188.2,2026.9,1160.4,2028.5z M3048.2,2171.3c-17.9,0.2-30.4,6.4-38.8,22.7C3039.3,2195,3040.8,2194.1,3048.2,2171.3
	z M1485.4,2198.9c0-0.2,0-0.4,0-0.5c-6.7,0-13.4,0-20.1,0c0,0.2,0,0.4,0,0.5C1471.9,2198.9,1478.6,2198.9,1485.4,2198.9z
	 M2400.6,1953.9c-1.6-0.8-3.2-1.5-4.8-2.3c-2,4.4-4,8.8-6.1,13.2c1.4,0.6,2.9,1.3,4.3,1.9
	C2396.2,1962.5,2398.4,1958.2,2400.6,1953.9z"/>
</svg>
