<?xml version="1.0" encoding="utf-8"?>
<!-- Generator: Adobe Illustrator 24.3.0, SVG Export Plug-In . SVG Version: 6.00 Build 0)  -->
<svg version="1.1" id="Layer_1" xmlns="http://www.w3.org/2000/svg" xmlns:xlink="http://www.w3.org/1999/xlink" x="0px" y="0px"
	 viewBox="0 0 4000 4000" style="enable-background:new 0 0 4000 4000;" xml:space="preserve">
<path d="M2488,1036.9c132.9-62.1,265.5-68.4,397.2-4.3c134.3,65.3,201.6,179.4,225.6,324.7c137.3,6,248.7,62.4,323.7,177.2
	c73.9,113.1,91.5,237.6,49.8,370.2c109.6,53.6,182.6,136.5,219.6,250.2c37.5,115,17.3,224.1-36.8,329.8c6.6,5.5,11.4,9.9,16.7,13.8
	c112.3,83,179.9,273.7,99.2,430.9c-41.2,80.4-108.5,127.2-197.1,144.2c-73.6,14.1-143,2.5-208.3-33.3c-14.4-7.9-25.4-8.5-40.3-1
	c-53.6,26.9-112.5,36.1-170.9,45.6c-131.3,21.5-263.6,35.5-396.3,44.9c-78.5,5.5-157,9.5-235.6,13c-225.3,10-450.6,9.4-675.8-0.2
	c-163.9-7-327.9-14.1-491.2-32.2c-88.7-9.8-177.7-18.2-265.9-31.4c-48.6-7.3-98.1-17.8-143.1-36.8c-31.9-13.5-56.7-12-87.2-1.7
	c-95.1,32.1-189.2,30.9-278.8-19.3c-86.1-48.3-132.4-125.5-144.3-220.7c-19.6-156.1,33.9-282,166.7-371.1c2.4-1.6,4.4-3.6,9.7-7.8
	c-5-11.4-10.3-23.4-15.4-35.5c-51.1-121.6-52.7-241.5,13.3-358.5c38.9-68.9,95.5-119.2,166.8-153.1c9.6-4.5,19.1-9.1,29.3-13.9
	c-2.5-27.8-6-54.6-7.2-81.6c-4-95,18.7-183.3,72.6-261.9c73.7-107.3,177.3-162.4,306.8-169.1c31.9-1.7,32-1.3,38.3-33.5
	c19.8-101.5,68.2-185.5,153.4-245.6c114.9-81,239.7-94,371.2-48.5c31.5,10.9,28.6,8.8,45.6-12.3c151.5-188.2,440.8-211.9,621-48.6
	c15.7,14.3,29.1,31.1,43.2,47.2C2472.2,1016.1,2479.5,1026.2,2488,1036.9z M2145.5,3099.4c151.5-4.7,310.7-9.1,469.8-15
	c62.1-2.3,124.1-7,185.9-13.2c94.6-9.5,189.1-20,283.4-32.7c57.6-7.7,115.2-17.6,171.7-31c82.4-19.5,108.8-54.9,111.6-139.5
	c0.1-1.9,0.1-3.9,0.1-5.8c4.3-189.5-18.6-375.9-65.6-559.4c-57.4-224.2-153.6-429.3-305.6-605.4
	c-150.4-174.3-335.1-296.1-558.6-356.1c-132.7-35.6-267.4-45.2-404.1-29.1c-175.1,20.6-335.1,80.8-480.3,180.1
	c-175,119.6-309.3,276-410.5,461.2c-92.4,169.1-156,348.7-192.1,538c-19.7,103.1-34.6,206.9-34.9,312.1
	c-0.1,37.6,3.8,75.5,8.7,112.9c6.2,48.2,37.6,75.4,82.7,86.9c37.6,9.5,75.5,18.1,113.8,24c147.8,23,296.9,35.8,446,44.7
	C1757.3,3083.5,1947.5,3090.3,2145.5,3099.4z M1100.4,1914.5c-8-5.1-13.6-8.6-19.1-12.3c-18.7-12.3-37.8-23.8-55.8-37.1
	c-16.6-12.2-19.4-24.2-11.6-37.1c8.1-13.4,19.5-16.4,37.9-7c17.2,8.8,33.7,19.2,49.9,29.8c25.4,16.5,26.7,16.1,43.1-8.2
	c23.8-35.4,48.3-70.4,72.8-105.4c9.4-13.4,19.5-26.2,30.5-40.9c-19.2-21.2-37.3-41.1-55.4-61.2c-6.5-7.2-13.5-14.2-18.7-22.3
	c-7.8-12.2-5.7-25.6,4.1-34.2c10.1-8.9,21.2-10.1,31.7-1.4c9.7,8,18.8,16.8,27.2,26c14.7,16.3,28.7,33.3,41.8,48.5
	c60.9-55.1,117.6-109.4,177.6-159.8c60.7-51,130.6-89.1,201.3-129c-10.6-22.2-20.2-41.1-28.7-60.6c-5-11.5-9.7-23.4-11.9-35.6
	c-2.3-12.5,3.1-23.4,16.2-27.4c12.1-3.7,23.4-1.2,30.9,9.9c4.3,6.4,7.5,13.6,11,20.5c11.3,22.2,22.4,44.5,34.2,67.9
	c137-60.8,280.3-82.2,426.6-93.5c0-19.8,0-36.2,0-52.5c-0.1-19.4-1.4-38.9,0-58.2c1.2-16.9,9.3-23.4,23.7-23.7
	c14.1-0.3,23.8,6.4,27.1,21.3c2.1,9.3,2.1,19.3,2.2,28.9c0.3,27.9,0.1,55.9,0.1,86.4c89.2,7.7,175,16.4,258.6,38.6
	c83.2,22.2,162.9,54.1,242.5,90.9c6-12,10.3-20.5,14.6-29.1c8.7-17.4,16.5-35.2,26.2-52c10-17.2,21.1-20.1,36.2-12.3
	c14.3,7.4,17.7,15.6,10.6,34.1c-8.7,22.6-19.1,44.6-28.4,67c-3.2,7.7-5.2,15.8-7.9,24.5c120.1,69.6,220.1,159.1,311.5,264.2
	c18.6-17.2,35.4-32.9,52.3-48.4c10-9.2,19.7-18.9,30.7-26.7c12.1-8.7,23.9-4.5,34.2,4.9c11,10,9.2,20.7,0.9,30.9
	c-8.5,10.5-17.8,20.5-26.9,30.6c-16.7,18.5-33.6,36.9-53,58.1c66.7,88.2,121.2,187.2,171.1,291.4c22.3-9.2,41.9-17.3,61.4-25.3
	c8.1-3.3,16-7.2,24.5-9.1c15.3-3.4,28.5,4.9,34.3,20c5.5,14.4-3.6,22.3-13.9,28.2c-11.7,6.7-24.5,11.7-36.7,17.6
	c-15.4,7.3-30.8,14.7-45.2,21.6c15.5,46.4,30.8,89.2,44.3,132.7c13.6,44.3,25.4,89.1,38.3,134.6c9.3-1.4,15.9-2.1,22.3-3.4
	c21.9-4.3,43.6-9.8,65.6-12.9c19.3-2.7,28.9,4.6,32.3,21c3.5,16.5-2.7,26.8-20.2,32.8c-8.2,2.8-16.8,5-25.3,6.8
	c-19.7,4.2-39.5,7.9-58.8,11.8c13.7,108.9,27.1,215.1,40.8,323.7c12.2,0,24.7-0.1,37.1,0c15.5,0.2,31.2-0.6,46.5,1.3
	c17.2,2.1,25.3,13.3,24.8,30.2c-0.4,14.5-6.3,21.6-23.6,24c-13.3,1.9-27.1,1.2-40.6,1.4c-14.2,0.2-28.5,0-45.1,0
	c0,13-0.1,22.4,0,31.8c0.7,54.5-0.1,108.9-19.7,160.9c-9.5,25.3-9,27.8,16.9,38.5c54.7,22.4,111.4,27.3,168.4,12.7
	c82.5-21.2,138.7-71.9,161.7-155.3c34.3-124.5-13-253.5-121.9-326.5c-46.8-31.4-37.4-38.9-14.7-72.8c35.3-52.5,52.5-111,52.5-173.1
	c0-143.8-64.5-251-191-319.7c-59.5-32.3-58.5-30.9-40.8-94.1c36.8-131.1,7.6-248.3-82.3-349.1c-67.9-76.2-156.5-108.4-257.5-109.1
	c-35.3-0.3-43-6.9-43.9-42.2c-1.5-53.9-18.7-102.7-44.9-149c-73.6-129.9-227.9-200.7-374.6-172.8c-45.3,8.6-87.5,24.6-128.5,45.3
	c-30.4,15.3-38.8,11.8-57.8-15.9c-12.6-18.4-24.4-37.8-39.5-53.9c-86.4-92.1-193.1-130.5-318.2-115.1
	c-108.5,13.4-196.6,62.3-258.9,154.4c-26.5,39.2-21.7,42.2-72,20.2c-36.7-16-73.8-29.9-114-33.5c-153.2-13.7-295.1,75.8-346.2,221
	c-10.8,30.6-13.9,64.2-18.6,96.6c-4.1,28.6-7,33.2-35.7,34.9c-20.3,1.2-40.8,0.9-61.1,1.6c-77.1,2.8-143.8,32.2-199.4,84.3
	c-92.1,86.5-127.9,194.4-114,319.2c2.2,20.2,6.8,40.2,9.5,60.4c3.2,23.6,0.1,29-21.2,38.3c-10.7,4.7-21.8,8.2-32.6,12.5
	C709,1966.9,629,2084,628.3,2209c-0.4,67.6,17.6,130.2,51.4,188.7c22.7,39.3,20.1,46.5-18.3,68.8c-3.4,1.9-6.6,4.1-9.9,6.1
	c-126.7,75.9-183.7,225.7-137.8,365.6c21.2,64.7,62.3,113.8,124.9,142.5c75.7,34.7,152.7,30.8,229.7,4.1c5.1-1.8,9.1-6.3,15.7-11.1
	c-29.6-68.3-23-140.6-23.1-213.6c-9.8,1.1-16.4,1.7-23,2.6c-23,3.2-46.1,6.8-69.1,9.9c-13.6,1.8-22.3-4.4-26.3-17.4
	c-4-13.2,1.4-23.2,12-29.9c6.3-4,14.2-6.4,21.6-7.7c22.9-4.1,45.8-8.2,69-10.5c15.5-1.5,20.5-8,22.6-23.5
	c11.3-80.6,24.1-161.1,36.9-241.5c3.3-20.7,8.4-41.1,13.1-63.7c-17.1-3.7-31.2-6.7-45.2-9.7c-15.2-3.3-30.7-5.5-45.3-10.3
	c-16-5.2-21.5-17.1-17.7-31.7c3.7-14.1,15.3-22.8,30.4-20.9c11.5,1.4,22.8,4.8,34.1,7.3c18.6,4.1,37.2,8.1,58.3,12.8
	C974.9,2181.8,1028.7,2045.1,1100.4,1914.5z"/>
<path d="M1215.6,2299.7c-20.9-0.4-30.1-10.3-28.6-29.4c0.4-4.8,1.1-9.8,2.8-14.2c24.6-60.9,48.7-122,74.7-182.4
	c9.8-22.7,25.3-24.5,43.9-9.6c8.6,6.9,11.7,15,8.2,25.5c-1.2,3.7-2.7,7.2-4.2,10.8c-24.1,59.1-48.4,118.1-72.3,177.2
	C1235.1,2290,1230.1,2301.4,1215.6,2299.7z"/>
<path d="M1352.5,2004.8c-22.4-1.4-34.5-17.2-30.4-34.9c1.7-7.4,4.6-15.1,8.8-21.3c30.7-45.7,61.9-91,93-136.4
	c1.6-2.4,3.7-4.5,5.9-6.4c12.3-10.9,24.3-11.4,36.3-1.6c13.1,10.6,14.9,20.1,4.8,35.3c-34,50.5-68.3,100.9-102.9,150.9
	C1363.4,1997,1356.1,2001.6,1352.5,2004.8z"/>
</svg>
