<?xml version="1.0" encoding="utf-8"?>
<!-- Generator: Adobe Illustrator 24.3.0, SVG Export Plug-In . SVG Version: 6.00 Build 0)  -->
<svg version="1.1" id="Layer_1" xmlns="http://www.w3.org/2000/svg" xmlns:xlink="http://www.w3.org/1999/xlink" x="0px" y="0px"
	 viewBox="0 0 4000 4000" style="enable-background:new 0 0 4000 4000;" xml:space="preserve">
<path d="M3303.6,1485c68.4,3.3,126.9,26.6,169.8,80.9c41.7,52.7,51.8,115,51,180.3c4,2.4,6.9,5.4,10.4,6.2
	c75.7,17,124,92.6,110.6,178.6c-3.5,22.7,2,34,20.1,47.3c84.2,62,113.3,148.7,101.1,249.3c-4,33.4-2.8,63.7,5.4,96.2
	c31.2,124.2,41.1,249.6,6.3,374.9c-35.6,128.3-116.5,212.5-246.5,248c-67.3,18.4-135.9,28.3-205.1,34.9
	c-443.6,42.4-888.4,47.5-1333.5,40.8c-243.2-3.6-486.4-10.6-729.1-27.7c-119.3-8.4-238.5-18.7-357.4-31.3
	c-51.6-5.4-103-16.2-153.3-29c-143-36.3-228.5-129.7-261.4-272.3c-19.8-86-16.2-172.6-3.5-259c4.8-32.4,12.9-64.3,17.9-96.7
	c1.7-10.9,1-23.4-2.5-33.8c-54-160.2-0.2-354.5,166.4-463c17.6-11.5,37.2-20.5,56.8-28.4c16.9-6.8,25.6-15.3,27.3-35.2
	c5.5-67,21.6-131.1,57.8-189.1c46.7-74.7,112.6-123.2,197.3-146.1c15.6-4.2,26.6-9.7,32.4-27.6c30.2-92.4,120.5-143.2,217.5-123.7
	c45.3,9.1,34.4,14.7,59.6-26.8c62.9-103.8,157.5-158.2,275.7-175.2c49.4-7.1,98.3-4.3,146.1,10c14.5,4.3,23.5,1.3,30.9-12.1
	c40.2-72.5,150.3-93.6,225.4-48.6c19.3,11.6,33.7,9.7,53.2,1c147-64.9,290.7-57.5,429.5,24.7c38.4,22.8,73.3,50.4,101.6,85.2
	c11.6,14.3,22.2,16.6,39.7,10.7c115.6-39.2,222.6-21.8,319,53.6c15.8,12.3,31.9,26.6,41.7,43.6c16.8,29,38.1,33.4,69.2,29
	c79.5-11.2,143.2,21.5,194.6,80c30.8,35,45.4,78,53.2,123.4C3300.2,1466.3,3301.8,1474.7,3303.6,1485z M3722.8,2366
	c-14.8,1.4-18.5,10.4-17.9,22c0.6,12.5,1.9,25,3.6,37.5c9.9,73.7-2.1,144.5-31.2,212.2c-29.5,68.6-79.8,118.1-148,147.7
	c-42.5,18.5-57.5,6.8-55.2-38.3c0.1-1.9,0.2-3.9,0.3-5.8c9-156.3-2.7-310.5-45.4-461.8c-43.8-155.1-112.6-297.9-211.6-425
	c-162.3-208.5-370.9-352.3-621.2-436.1c-126-42.2-255.3-68-388.1-75c-109.2-5.8-218.2-3.1-326.1,16.4
	c-93.2,16.9-184.7,39.9-273.5,73.5c-129.9,49.2-252.2,112.5-360.4,200.1c-152,123-276,268.6-360.7,446.7
	c-80.4,169-126.7,345.6-128.8,533c-0.5,43.4,3.1,86.8,4.1,130.1c0.4,19.4-7.4,29.6-22.1,32.7c-15.4,3.1-28-5.6-34.4-24
	c-1.3-3.6-2.7-7.5-2.8-11.2c-0.4-17.2-9.1-28.6-23.2-37.5c-6.4-4.1-11.7-10-17.1-15.5c-62.2-63.3-100-138.8-113.2-226.6
	c-1.5-10.1-4.1-20.1-7.1-34.2c-2.5,6.2-3.5,7.8-3.7,9.5c-11.5,68.6-6,137.3,6.9,204.5c14.7,77,51.9,143,118.4,189.1
	c46.1,32,98.5,48.2,152.7,59.1c124.2,25.1,250.3,36,376.3,44.3c161.8,10.7,323.8,18.3,485.9,24c145.7,5.1,291.5,8.4,437.3,8
	c226.9-0.6,453.8-1.4,680.5-8.9c173.5-5.7,346.8-20.5,520-34.2c59.4-4.7,118.7-15.3,177-28.3c126.7-28.2,207.4-105.4,236.5-233.7
	c21.6-95,15.8-189.8-1.8-284.5C3727.8,2372.5,3724.8,2369.5,3722.8,2366z M1218.3,1575.4c10.2-6,19.6-10.4,27.7-16.4
	c96.6-71.8,201.7-128.3,313.8-171.3c56.6-21.7,115.2-38.1,172.8-57.3c10.1-3.4,23.4-2.4,28.6-15.4c-76.7-61.5-226.9-87.5-351.4-26.6
	C1284.3,1349.8,1213.2,1480.9,1218.3,1575.4z M1983.7,1126c6.3-0.5,12.7-0.9,19-1.5c21.1-1.9,42.5-6.8,63.3-5.2
	c84.9,6.5,158.6,38.6,217.9,101.1c5.2,5.4,11,10.2,14.4,13.4c39.2-20,74.5-42.5,112.9-56.5c37.9-13.8,78.9-19.1,119.1-28.3
	c-66.1-75.9-185.8-134.5-306.2-125.6C2132.7,1030.2,2050.5,1059.2,1983.7,1126z M1153.4,1625.6c-67-28.9-199.7,13.1-267.5,96.9
	c-72.3,89.4-92.9,230.8-41.9,307.4c2.3-1.4,5.4-2.3,6.8-4.4c4.9-7.1,9.6-14.4,13.5-22c32.4-62.6,69.1-122.3,112-178.3
	c44.6-58.4,94.6-111.6,147.3-162.5C1135,1651.7,1150.2,1643.1,1153.4,1625.6z M769.6,1831.4c-185.7,56-278.9,272.8-203.8,435.1
	c7.3-13.8,13.7-25.2,19.5-36.9c27.8-56.2,64.3-105.7,115.3-142.6c23.1-16.8,49.1-29.5,77.2-46.1
	C760.7,1974.6,750.9,1905.4,769.6,1831.4z M3202.7,1743.1c5.2,7,7.6,11,10.7,14.4c61.5,67.3,113.6,141.4,156.1,221.9
	c24.8,46.9,46.4,95.4,69.5,143.2c5.1,10.5,9.9,21.4,24.8,20.2c13.5-1.1,20.9-9.5,24.3-21.4c4.7-16.7,9.3-33.4,12.4-50.4
	c24.2-132.7-47.8-266.1-172.1-318C3289.5,1736.6,3249.3,1728.8,3202.7,1743.1z M811,2098.6c-96.4,14.9-188.4,139-207.7,269.6
	c-13.3,90.3,41.4,244.8,96.8,269c-0.8-92.7,11.2-183.2,29-273C746.9,2274.4,775.8,2187.9,811,2098.6z M3469.1,2206.1
	c27.7,84.3,46.7,165.8,54.9,248.8c8.3,83.6,9.8,168,14.3,252.1c83.5-36.8,123.8-174.8,115.7-259.7
	C3641.5,2315.8,3558.4,2226.8,3469.1,2206.1z M3219.1,1669.2c-15.9-64.6-37.9-125.2-84.7-172.2c-65.2-65.3-146-86.6-236.2-73
	c-21.8,3.3-42.3,11.8-57.1,32.7c7.2,4.9,13.2,9.4,19.6,13.3c99,61.7,197.3,124.3,278.4,210c3.9,4.1,12.1,7.5,17.2,6.4
	C3176.7,1681.9,3196.8,1675.5,3219.1,1669.2z M2340.3,1288.8c0.9,2.2,1.8,4.4,2.7,6.6c18.9,3.2,37.8,6.2,56.7,9.6
	c117.2,20.9,229.4,58.1,339.1,103.6c8,3.3,16.2,8.7,24.2,8.7c8.6-0.1,18.9-3.7,25.1-9.4c3.5-3.3,2.4-14.6-0.2-20.9
	c-5.2-12.3-12.8-23.7-19.5-35.4c-76.5-132.6-267.3-182.6-403.3-84.9C2356.3,1273.2,2348.6,1281.4,2340.3,1288.8z M3563.2,1993.4
	c2.7,58.7-8.9,109.2-24.5,159.1c-3.6,11.5,2.6,18.4,12.2,23c51.8,25.3,84.6,68.9,113.2,116.7c4.1,6.9,10,12.7,15.7,19.8
	c43.3-63.5,42.7-148.8,13.5-210.1C3667.9,2048.7,3629.9,2008.9,3563.2,1993.4z M1177.6,1455.9c-173.8-28.5-342.4,88.6-365.5,261.4
	c11.6-12.9,21-22.3,29.1-32.6c20.4-25.9,42.5-49.9,70.4-68.1c61.5-40,128.3-61.6,202-60.5c13.2,0.2,26.4,0,41,0
	C1162.7,1521.1,1170.1,1488.6,1177.6,1455.9z M1849.2,1190.4c-126.1-118.1-348.4-97.1-442.2,31.6c133.9-48.9,260.8-37.7,382.3,38.2
	C1809.6,1236.5,1828.8,1214.2,1849.2,1190.4z M2253.7,1282.5c-32.1-63.5-143.3-110-228.2-100.8c-83,9-172.4,64.2-185.8,118.7
	c67.8-5.9,135.7-14.3,203.8-17.2C2112.6,1280.2,2181.8,1282.5,2253.7,1282.5z M2663.8,1185.1c42,18,80.3,40.4,108.6,74.9
	c28.4,34.6,53.6,71.8,79,106.2c45.6-3.3,91.1-6.5,136.6-9.8C2968.2,1230.5,2759.8,1118.7,2663.8,1185.1z M3456.8,1764.2
	c23.9-56.6-1.3-142.1-51.3-183.4c-43.1-35.6-112.3-44.2-147.8-19.6c6,33.8,12.8,66.7,17.2,99.8c2,15.1,7.9,21.5,22.8,23.7
	c53.9,7.8,100.1,32.2,141,67.6C3443.7,1756.5,3449.6,1759.4,3456.8,1764.2z M3042.5,1315.3c4.5,17.7,7.7,35.6,13.9,52.3
	c2.5,6.9,10.9,12.6,17.8,16.6c18.3,10.5,39.2,17.4,55.5,30.2c27,21.3,51.4,45.9,76.3,69.8c7.6,7.3,12.7,18.4,25.7,12.9
	c12-5.1,9-16.1,6.7-25.1c-6.5-25-11-51.1-21.7-74.4c-26.9-58.5-102-96.4-165.7-86.7C3048.3,1311.4,3046,1313.5,3042.5,1315.3z
	 M1107.5,1387.2c2.3,1.4,4.6,3.8,7.2,4.1c26.6,2.9,53.2,5.9,79.9,7.9c5,0.4,12.3-2.2,15.1-6c16.8-23,32.5-46.7,49-70.8
	C1201.4,1298.9,1122.4,1334.1,1107.5,1387.2z M1960,1055.7c-39.8-26.9-107.1-14.9-131.7,21.2c-5.5,8.1-7.3,16.1,1.3,22.7
	c18,13.8,36.5,27,55.7,41.1C1911.1,1111.4,1934.8,1084.4,1960,1055.7z M3510.9,1809.4c-0.8,6.7-2.3,9.9-1.3,12.1
	c14.6,34.3,29.4,68.5,44.3,102.7c3.8,8.6,10.2,16.2,19.8,11.5c6.7-3.2,14.2-10.8,15.6-17.6c7-35.7-18.7-85.8-51.7-102.4
	C3529.8,1811.9,3520.4,1811.5,3510.9,1809.4z"/>
<path d="M1286.5,1894.6c-0.1-18.1,15-35,31.2-34.9c16.5,0.1,31.9,17.3,31.2,34.8c-0.7,16.8-14.2,30-31.7,30.9
	C1300.4,1926.3,1286.6,1912.4,1286.5,1894.6z"/>
<path d="M1025.2,2540.1c16.8,0.1,32.1,14.9,31.5,30.6c-0.6,16.6-17.2,32.5-34,32.6c-16.4,0-31.6-14.9-31.4-30.8
	C991.6,2555.6,1008,2540,1025.2,2540.1z"/>
<path d="M2458.3,1690.5c-17.3-0.1-31.2-14.3-30.6-31.3c0.6-16.6,15.5-32.7,30.7-32.9c16.1-0.3,31.4,14.7,31.8,31.2
	C2490.7,1676.4,2476.9,1690.6,2458.3,1690.5z"/>
<path d="M2952.4,1921.4c-18.3,0.5-31.8-11.2-32.8-28.5c-1-18.1,15.8-36.9,32.8-36.6c15.6,0.2,31.3,15.7,31.8,31.3
	C2984.7,1904.9,2969.7,1920.9,2952.4,1921.4z"/>
<path d="M1544.6,1682.6c0.7,18.6-10.3,30.9-28.7,32.2c-18.4,1.3-31.6-9.8-33-27.6c-1.4-18,15.4-37.9,31.7-37.5
	C1529.5,1650,1543.9,1665.9,1544.6,1682.6z"/>
<path d="M3058.9,2293.6c-20,0.1-32.4-12.4-31.8-32.2c0.5-17.9,13.4-32.5,29.3-33.1c17.5-0.7,34.3,17,33.8,35.5
	C3089.8,2282,3077.6,2293.6,3058.9,2293.6z"/>
<path d="M1153,2191.7c18.1-0.1,31.5,12.3,32.2,29.8c0.7,18-14.6,33.8-32.1,33.2c-18-0.6-30.7-13.7-30.4-31.4
	C1123,2205.3,1135.9,2191.8,1153,2191.7z"/>
<path d="M1749.2,1943.3c-17.5,0.6-29.6-10.2-30.7-27.2c-1.2-18.6,12.6-35.3,29.6-35.9c16.6-0.6,33.1,13.8,33.7,29.2
	C1782.5,1926.6,1766.9,1942.7,1749.2,1943.3z"/>
<path d="M3133.5,2616.8c0.4-17.2,14.7-31.1,31.3-30.5c16.8,0.6,31.2,15.4,30.8,31.5c-0.4,17.3-14,31.7-30.3,32
	C3147,2650.2,3133.1,2635.8,3133.5,2616.8z"/>
<path d="M2565.3,1950.8c0-19.8,10.7-30.6,30-30.4c18.1,0.2,32,13.3,31.7,29.8c-0.4,18.5-14.8,33.2-32.6,33
	C2577.8,1983.2,2565.2,1969.2,2565.3,1950.8z"/>
<path d="M2156.4,1950.3c-18.6,0.5-31.7-11.6-31.6-29c0.1-18,15.1-33.6,32.1-33.5c14.8,0.1,29.5,14,30.5,28.8
	C2188.7,1934.8,2174.9,1949.8,2156.4,1950.3z"/>
<path d="M2028.7,1624.7c0.5,19.8-11.7,32.8-31.6,33.5c-16.6,0.6-30.4-13.6-30.3-31.2c0.1-16.7,14.3-32.2,30.2-32.9
	C2013.3,1593.3,2028.3,1607.9,2028.7,1624.7z"/>
</svg>
