<?xml version="1.0" encoding="utf-8"?>
<!-- Generator: Adobe Illustrator 24.3.0, SVG Export Plug-In . SVG Version: 6.00 Build 0)  -->
<svg version="1.1" id="Layer_1" xmlns="http://www.w3.org/2000/svg" xmlns:xlink="http://www.w3.org/1999/xlink" x="0px" y="0px"
	 viewBox="0 0 4000 4000" style="enable-background:new 0 0 4000 4000;" xml:space="preserve">
<path d="M1085.3,3336.9c-181.2,45.9-312.8-72.1-301.5-259.5c-80.1-11.4-141.8-50.9-178.1-126c-35.5-73.4-29.7-146,5.6-221.7
	c-75.5-38.9-122.9-99.3-133.8-183.2c-10.6-81.7,17-153.2,69.7-218.2c-58.1-52.7-90.4-116.6-89.4-193.8c1-75.5,32.8-138.7,88-188.9
	c-15.2-24.5-29.2-45.7-41.9-67.6c-55.2-95.3-23.2-218.4,52.6-277.2c22.8-17.7,22.5-19.2,7.2-45.5c-37-63.6-40.5-129.5-14.8-197.6
	c16.6-44,44.5-78.4,86.5-100.6c9.1-4.8,17.8-10.4,29.7-17.4c-29-64.6-33-129.6-6.3-195.5c27.2-67.1,80.3-102.4,148.4-120.5
	c-0.9-10.6-1.5-18.5-2.3-26.3C793.4,793.8,874.6,710,957.6,700.5c18.9-2.2,30.2-7.6,34.5-30.3c27.3-145.4,170.4-218.1,305.6-157
	c4.1,1.9,8.4,3.4,16.7,6.7c30.5-58.5,74.9-100.5,140.5-119c65-18.3,123.7-4.3,182.8,28.6c28.3-39.7,54.5-79.7,101.8-97.6
	c45.7-17.2,91.6-24.3,139.8-13.7c47.7,10.5,88.7,32.6,124.5,72.5c48.5-62.5,110.2-97.1,188.2-97.8c76.5-0.6,139.2,30.1,191.2,89.6
	c51.7-57.6,114.8-80.4,188.9-71.5c74.1,8.9,128,50.6,172.3,112.8c66.1-44.4,136.5-61.1,212.1-36.4c75.1,24.5,127.9,73.3,152,152.9
	c85.2-30.3,160.6-17.1,226.6,40c64.9,56.2,91.1,129.5,89.1,217.3c75.5,13.7,136.7,48.7,170.9,120.9c32.9,69.6,26.8,139.4-2,211.5
	c72.2,32.2,119.4,83.2,138.2,158.1c18.6,74.2-0.3,142.2-37.5,209.8c39.8,27.2,73.3,58.4,89.8,103.9c16.6,45.7,23.8,92.2,14.5,140.2
	c-9,46.6-31.8,86.8-63,123.4c2.6,4.8,4,9.4,6.9,12.4c89.4,90.6,97.5,266.1-23.4,366.6c-23.2,19.3-23.2,20.2-3.3,47.5
	c82.3,113.2,46,256.4-12.9,324.2c-15,17.3-33,31.9-51,49c38.8,72,52.3,146.2,22.9,224.7c-29.1,77.8-84.3,128.7-163.4,156.2
	c19.8,94.7,2.2,178.5-59,250.3c-61.5,72.2-141.3,102.7-236.8,93.4c-3.1,9.3-6.1,16.6-8,24.3c-29.3,117.5-142.4,154.2-228.9,139.7
	c-21.4-3.6-42.2-12.3-62.7-20.3c-16.4-6.4-28.6-6.2-37.9,11c-50.9,94.7-206.7,129.1-304.3,62.1c-24.5-16.8-25.7-15.8-45.3,6.9
	c-24.3,28.2-54.8,47.1-90.4,55.9c-71.8,17.7-168.2,20.9-252.2-62.8c-130,106.2-255.9,99.8-379.2-18.9c-8,5.2-17.8,11.1-27.1,17.6
	c-130.6,90.7-282.2,26.7-333.5-75c-15.4-30.4-17.4-30.3-51.5-18.5c-42.9,14.7-86.8,18.2-130.4,8.6
	c-76.7-16.9-130.7-62.7-160.2-136.1c-3-7.5-5.4-15.3-8.3-22.9C1092.3,3353.9,1089.2,3346.5,1085.3,3336.9z M1060.4,709.8
	c0.2,4.2,0.7,10,0.8,15.8c0.6,34.7-8.1,43.7-42.3,43.7c-11.6,0-23.2-1.2-34.8-0.9c-61.7,1.9-107.5,48.3-106.4,110
	c0.4,20.5,5.3,41.3,10.8,61.2c8.3,30.3,0.4,46.1-30.7,53.2c-14.7,3.4-29.9,4.5-44.5,8.1c-58.9,14.8-95,58.2-100.9,118.7
	c-3.2,32.6,5.4,62.1,21.1,90c5.7,10.1,12.7,19.5,17.8,29.9c9.9,20,6,36.4-12.8,48.1c-11.7,7.3-26,10.3-37.8,17.4
	c-22.5,13.6-48.3,25.1-65.3,44.1c-42.6,47.5-42.5,126.3-4,177.6c11.1,14.8,24,28.4,34.9,43.4c16,22.2,13.1,36.9-9.7,52.6
	c-8.6,5.9-19.1,9-27.2,15.3c-17.2,13.4-36.7,25.6-49.5,42.6c-52.3,69.8-40.7,155.1,27,214.7c6.1,5.4,12.8,10,19,15.3
	c31,26.9,30.2,43.7-3.5,68.7c-8.4,6.2-17.4,11.7-25.6,18.1c-87,67.9-90.1,198.8-6.5,270.6c12.3,10.6,25.9,19.7,37.5,31
	c18.2,17.7,18.5,28.8,1.8,47.9c-12.2,14-27,25.7-38.7,40.1c-81.1,99.7-45.1,256.3,66.1,281.1c43.6,9.7,46.6,25.7,27.2,66.5
	c-3,6.3-7.3,12.1-9.3,18.7c-7.7,25.4-18.5,50.6-21.3,76.7c-11.1,102.8,67.9,179.2,153.7,174.2c57.2-3.3,68.5,11.9,53.7,68.4
	c-10.5,40.2-7.6,78,9.4,115.3c19.4,42.7,52.9,69.6,96.3,85.1c28.9,10.3,57.4,5.7,84.8-5.7c19.3-8,37.6-18.4,57.1-25.7
	c22.8-8.6,32.5-3.2,37.8,20.2c2.8,12.3,3.1,25.2,4.2,37.9c8.6,98.9,94.5,163.8,176.8,154.6c35.7-4,66.1-19.6,94.6-40.6
	c27.3-20.1,43.7-14.8,56,16.1c7.7,19.4,13.6,39.7,23.2,58.1c38.1,72.8,122.1,105.3,198.4,77.5c31.3-11.4,56.3-31.2,76.8-57.7
	c28.1-36.2,45.5-34.6,70.9,4.3c8.9,13.6,17.2,27.9,28.2,39.6c87.3,92.7,224.5,63.7,267.8-16c3.9-7.1,8.3-14.2,13.6-20.2
	c14.7-16.5,32.3-16.8,48.3-1c4.9,4.8,9.1,10.6,12.6,16.6c22.6,38.5,58.1,58.7,99.3,71.4c70.8,21.8,149.3-8.7,186.2-72.5
	c3.5-6,6.5-12.4,10.5-18.1c14.1-19.8,30.4-23,50.4-8.4c11.2,8.1,21.2,18,31,27.9c66.3,67,210.2,38.8,239.9-51.3
	c2.5-7.7,6-15.1,9.7-22.3c15.5-30.3,28.5-33.7,58.2-15.7c14.9,9,29,19.6,44.7,26.9c95,44.5,197.3-8,198-112.6
	c0.1-8,1.2-16.2,3.1-24.1c4.1-16.9,15-25.9,32.9-24.1c9.2,0.9,18.3,2.7,27.3,4.7c33.5,7.6,66.8,6.8,99.7-3.2
	c122.9-37.5,163.9-161.6,128.1-254.6c-2.9-7.5-5.5-15.3-7-23.3c-5.3-29.5,1.3-41,29.3-49.8c13.3-4.2,27.1-6.6,40.5-10.2
	c45.3-12.1,78.7-39.7,99-81.4c32.7-67.3,30.2-133-17-193c-39.4-50.1-29.3-70.4,18.8-93.6c53.9-26,85.5-71.3,91.4-131.2
	c6.6-65.5-9.3-124.5-59.7-170.6c-6-5.5-12.2-10.8-17.6-16.8c-22.8-25.3-20.8-39.8,7.9-58.7c17.5-11.4,36.3-21,52.6-33.9
	c81.6-64.7,90.3-207.2,6-272.2c-8.3-6.4-16.7-12.8-23.9-20.2c-18-18.4-18.1-39.9-0.4-58.4c7.2-7.5,15.5-14,23.4-20.8
	c70.1-60.7,77.2-205.2-27.2-262.8c-11.2-6.2-22.8-11.6-33.5-18.4c-25.3-16.2-28.2-35-9.2-57.6c6-7.1,13.2-13.1,19.5-19.9
	c72.1-78.4,42.5-234.4-69.2-266.7c-8.9-2.6-17.9-5.1-26.3-8.9c-28.8-13-34.9-31-20-58.6c6.1-11.2,13.6-21.7,19.1-33.1
	c39-81.1,3.2-181.1-75.4-215.2c-24.2-10.5-47.8-5.2-71.9-4.2c-37.7,1.5-51.6-14.5-44.8-50.9c1.1-5.7,3.4-11.1,4.5-16.8
	c15.3-73.3-8.6-132.7-65.6-179.2c-46.2-37.7-96.5-41.2-149.2-12.5c-9.2,5-18.1,10.7-27.9,14.1c-28.4,10-44.4,1.9-52.9-26.9
	c-3.9-13.3-5.7-27.2-9.1-40.8c-22.7-91.6-161.5-168.2-259.4-71.1c-8.2,8.2-16,17-25.1,24.1c-23.3,18.2-39.1,15.2-53.9-10.3
	c-8.7-15-15-31.5-24-46.3c-52.9-87.3-182-107.9-252.8-14.8c-5.6,7.4-10.5,15.4-16.4,22.5c-20.4,24.3-36.9,24.7-56.7,0.6
	c-9.6-11.6-17.4-24.7-26.4-36.8c-41.9-56.4-117.4-79.2-183.6-56.3c-42.6,14.7-74.1,41.5-96.3,80.7c-26.8,47.2-44.7,47.3-78.9,4.3
	c-12.9-16.2-27.4-32-43.8-44.4c-83.2-63.1-195.6-29.3-230.7,68.6c-2.4,6.6-4.3,13.3-7.2,19.6c-14,30.7-33.6,35.1-60.4,13.6
	c-9-7.3-17.1-15.7-26.3-22.8c-75.2-57.9-181.6-28.9-216.9,59c-4.3,10.8-7.5,22-12.2,32.6c-13.4,30.5-28.5,35.6-57.7,19.3
	c-17.2-9.6-33.7-20.5-50.9-30.1C1188.2,533.8,1048.9,594.4,1060.4,709.8z"/>
<path d="M2131.1,635.4c207.4,3.7,412.9,23.6,616.6,60.2c100.5,18.1,199,44,292.9,86.6c96.1,43.5,171.2,108.9,228.5,197.1
	c80.5,124,134.1,259.3,175.7,400.2c71.3,241.3,88.8,488.4,73.3,737.9c-13.7,221-54,437.5-129.3,646.6
	c-30.4,84.3-67.6,165.3-112.2,243.1c-86.1,150.3-215.5,241.8-381.3,287.4c-106.7,29.4-214.8,48.7-324.4,61
	c-151.5,17-303.4,20.9-455.6,14.8c-142.8-5.7-284.6-20.4-425.4-45.8c-111-20-220.3-44.8-325.1-87.9
	c-176.2-72.4-310.1-191.4-405.1-356.5c-80.5-139.9-124.6-292-155.2-448.6c-24.8-126.8-34.8-255.6-33.2-384.6
	c3.3-272.4,43.2-539.1,144-793.6c28.5-71.9,64.7-141.4,103.2-208.7c85.8-150.1,217.6-244.6,378.9-300.6
	c145.5-50.5,295.7-79.1,448.8-91.5C1941,644.9,2036.1,641,2131.1,635.4z M2268.5,3301.6c63.3-3.8,156.1-7.7,248.6-15.3
	c121.6-9.9,241.2-31.8,359.4-63c164.8-43.6,284-140.9,361.4-292.6c40.2-78.8,75.3-159.4,102.7-243.4
	c72.4-221.4,104.6-449.6,110.2-681.4c5.3-218.2-18.3-433.5-84-642.8c-38-121.1-85-238.2-156.7-344.2
	c-43.7-64.6-96.2-119.8-167.1-153.9c-45.9-22.1-92.9-43.1-141.5-57.9c-194.5-59.3-395.4-79.3-597.2-91.2
	c-163.7-9.6-327.3-6.2-490.3,13.1c-124.6,14.8-247.5,37.1-367.4,75.5c-178.8,57.3-314.4,164.5-401.1,333
	c-58.7,114.2-103.3,233.2-134.5,357.5c-75.6,301.4-89.8,605.5-38.1,911.9c25.8,153.1,71.3,300,149.8,435.5
	c103.1,178,251.7,296.3,449.1,356.4c100.4,30.5,202.5,50,305.5,66.6C1930.2,3290.3,2084.6,3295.1,2268.5,3301.6z"/>
<path d="M3253.7,2336.4c-1.3,7.8-2.6,17-4.2,26.1c-37.7,216.6-124.8,409.4-274.5,572.3c-66.8,72.7-146,128.7-232.2,175.4
	c-14.1,7.7-30.2,11.7-45.2,17.9c-15.6,6.4-26.9,1.8-35.3-12.2c-9.3-15.7-7.7-32.8,5.8-43.9c7-5.9,15.4-10.4,23.8-14.3
	c143-66.9,252.6-171.4,337.5-302.6c78.1-120.5,123.7-253.8,149.7-394.3c2.3-12.5,4.1-25.3,7.7-37.4c5.9-19.8,22.2-17.2,37.3-15.1
	C3246.9,2311.5,3253.2,2317.6,3253.7,2336.4z"/>
<path d="M1285.2,1482.6c7-17.7,11.6-30.8,17.4-43.4c36.6-79.7,86.2-150.8,144.5-216.1c4.6-5.2,9.7-10.1,14.9-14.6
	c21.1-18,31.5-16.6,48.8,4.8c9.2,11.4,11.9,22.2,1.6,34.1c-2.3,2.6-4.2,5.6-6.6,8.1c-65.8,69.8-117.8,148.9-158.8,235.6
	c-10.4,22-30.1,27.4-47.5,13.4C1292.6,1498.9,1289.1,1488.8,1285.2,1482.6z"/>
<path d="M1116,2465.5c3.5,2.8,12.1,7.9,18.2,15c4.3,4.9,6.1,12.5,7.5,19.2c13,61.9,39.5,118.5,68.2,174.2c3.2,6.2,7,12.1,9.3,18.6
	c6.5,18.5,2.5,30.9-11.8,38.9c-15.7,8.8-33.2,6.9-44.5-5.4c-3.9-4.2-7-9.3-9.7-14.3c-33.7-62.5-60.3-127.8-77.1-196.9
	c-0.8-3.4-1.4-6.8-1.8-10.3C1071.2,2478.1,1082.6,2465.5,1116,2465.5z"/>
<path d="M3270.4,1990.9c0,22.8,0.9,37.9-0.2,52.9c-1.5,20.5-12.1,28.6-35.1,29.3c-18.3,0.5-25.8-5.9-27.8-27.5
	c-2.4-26.5-2.1-53.3-4.7-79.8c-4-40.3-9.7-80.4-14.5-120.7c-1.2-10.3-2.9-20.8-2.4-31.1c0.8-16.7,11.7-26.9,29-28.8
	c16.1-1.8,28,5.2,31.9,20.5c5.7,22.4,9.2,45.4,13.4,68.2c1.2,6.8,1.5,13.8,2.2,20.7C3265,1929.3,3268,1963.9,3270.4,1990.9z"/>
<path d="M1069.8,2184c16.3-0.3,26.2,8.3,30.1,23.3c2,7.7,1.4,16,2.1,24c3.6,42.5,6.7,85,11,127.4c2.7,26.9-4.4,38.8-27.7,42.3
	c-18.7,2.8-27.2-2.3-34.1-20.9c-1.6-4.3-3.1-8.8-3.5-13.3c-4.4-47.1-9.8-94.1-12.4-141.3C1033.6,2196.9,1046.7,2183.6,1069.8,2184z"
	/>
<path d="M1659,1117c-2.5,4.2-5.3,14-11.8,19.3c-20.6,16.8-42.2,32.3-64,47.4c-13.9,9.6-23.8,0.2-32.9-9.4c-8.8-9.3-13.1-20.6-5-31.4
	c19.8-26.4,44.4-47.7,76.5-57.6C1639,1079.9,1657.6,1094.7,1659,1117z"/>
<path d="M3270.3,2186.3c-2,15.3-1.9,36-23.8,42.1c-9.6,2.7-23.9,1.5-31.6-4c-16.8-12.1-16.3-31.9-12.5-50.4
	c5-24.3,19.3-34.6,41.2-31.3C3263.9,2145.8,3271.2,2156.8,3270.3,2186.3z"/>
</svg>
