<?xml version="1.0" encoding="utf-8"?>
<!-- Generator: Adobe Illustrator 24.3.0, SVG Export Plug-In . SVG Version: 6.00 Build 0)  -->
<svg version="1.1" id="Layer_1" xmlns="http://www.w3.org/2000/svg" xmlns:xlink="http://www.w3.org/1999/xlink" x="0px" y="0px"
	 viewBox="0 0 4000 4000" style="enable-background:new 0 0 4000 4000;" xml:space="preserve">
<path d="M2196.4,273c35-28.5,63.1-54.4,94.1-76.4c119.8-84.8,253.8-129.6,400.3-138.3c78.7-4.7,156.8,0.1,234.5,12.6
	c52.8,8.5,61.4,20.8,43.2,70c-77,207.8-209.7,364.2-421.2,443.7c-50,18.8-104.1,27-156.3,39.9c-8.2,2-16.7,3.3-29.4,5.7
	c7.8,5.8,11.4,9.1,15.5,11.4c101.4,55,169,141,220.9,241.2c47.3,91.2,77,188.6,99.2,288.4c23.2,104.3,45.6,208.8,69.2,313
	c33.4,147.7,90.2,285.6,173.8,412.3c47,71.2,94,142.4,138,215.4c97.1,161.2,167.5,333.1,191.6,520.8c32.9,256.7-5.3,501-142.1,724.4
	c-115.3,188.4-279.6,320.8-480.3,409.8c-131.1,58.2-268.8,90.3-410.9,107.2c-171.3,20.4-342.8,18.6-514,3.9
	c-193.6-16.6-378-67-547.5-164.9c-148.5-85.7-272.9-197.1-365-343.1c-92.5-146.7-140.7-307.5-154.7-479.4
	c-23.5-289.3,55.5-550.7,215.9-789.7c30.6-45.6,61.5-91,92.6-136.2c96.4-140.3,157.5-295.1,190.5-461.5
	c21.9-110.5,42.2-221.4,66.2-331.5c27.7-127,67.1-250.1,141.3-359c105-154.1,252-240.1,435.6-265.1c29-4,58.2-6.2,90-9.4
	c2.8-20.9,5.6-41.9,8.5-63c14.7-109.1,39.8-215.8,74.6-320.2c1.6-4.7,2.9-9.4,4.7-13.9c21.2-55.7,54.9-76.9,113.8-69.4
	c34.4,4.3,67.2,15.1,94.6,37.2c33.1,26.8,52.2,57.9,32.2,105.6C2208.8,231.4,2204.1,249.4,2196.4,273z M1890,635
	c-112,2.2-213.2,27.9-304,88.3c-91.5,60.9-156.3,144.4-201,244.2c-39.6,88.2-63.4,181-83,275.3c-25.1,120.9-48.8,242.1-76.8,362.3
	c-34.8,149.5-98.4,286.7-184.6,413.9c-55,81.1-109.8,162.5-158.9,247.2c-89.2,153.9-131.9,322.1-138.2,499.4
	c-2.8,80.6,6.1,160.4,21.8,239.6c41.7,211,145.5,386,309.5,523.7c186.3,156.5,405.5,234.5,645.8,255.6
	c148.7,13.1,297.7,12.2,446.7,1.9c128.9-9,254.3-33.3,375.4-78.8c133.6-50.2,255.8-119.9,359-219.1
	c187.1-179.9,275-403.7,284.7-660.3c7.8-206-42.3-399.3-140-579.1c-57.4-105.7-124.7-206.2-188.8-308.2
	c-66.1-105.2-121.6-215.5-153.7-335.6c-32.9-123-60.8-247.4-89.2-371.5c-20.4-88.9-41-177.6-77.4-261.8
	c-37.5-86.9-88.1-163.8-165.8-220.5c-81.3-59.3-174.1-88.3-271.9-104.2c-7.3-1.2-14.8-1.3-24.6-2.1c-4.8,45.5-11.4,88.2-8.3,131.2
	c37,4.8,65.5-24.4,99.4-15.2c5,25.1-11.9,32.2-26.5,39.2c-33,15.8-68.1,25-104.6,27.8c-76.8,5.9-148.1-10.7-211.7-55.2
	c-9.1-6.4-16.6-16.3-22.2-26.1c-2.3-4,0.9-13.4,4.7-17.8c2.5-2.9,11.2-2.9,15.7-0.9c17,7.6,33.2,16.8,50,24.8
	c5.5,2.6,11.9,3.4,18.3,5.1C1890,716.7,1890,677.8,1890,635z M2136.8,537.9c170,45.8,332.7,36.3,485.1-54.6
	c139.2-83.1,230.7-204.9,289.3-356.9c-192.8-27.9-373.7-12.1-541,88c-114.2,68.3-194.2,167-259,289.5c17.1-4.5,27.6-6.1,37.2-9.9
	c55.6-21.7,111.9-42.1,166.4-66.4c128.2-57.1,251.6-123.5,370.6-197.8c8.2-5.1,16.9-10.5,26.1-13c5.2-1.4,14.8,0.9,17.1,4.7
	c2.6,4.3,0.9,13.2-2,18.3c-3.2,5.6-9.6,9.7-15.2,13.6c-12.9,8.9-26,17.5-39.4,25.7c-157.6,96.4-322.6,177.8-495.8,242.4
	C2162.8,526.2,2149.9,532.3,2136.8,537.9z M1956.4,769.5c6,1.9,10.5,4.1,15.2,4.8c29.5,4.5,34.4,0.2,36.6-28.9
	c2.4-31.3,4-62.7,8.4-93.7c22.1-153,62-301.2,121.4-444c3.6-8.6,5.7-17.9,9.6-30.1c-23.1-7.7-43.1-15.1-63.5-20.9
	c-20.8-5.9-26.1-3.7-34.3,16.3c-10.8,26.3-20.6,53-29.1,80.1c-50.7,160.6-67.6,325.8-66.7,493.4
	C1954.1,754.1,1955.5,761.8,1956.4,769.5z"/>
<path d="M1545.7,3014.5c-93.2,0.2-137.4-79.6-136.8-138.7c0.8-76,60.7-136.5,135.9-136.8c75.3-0.4,138.8,63.3,138.8,137.9
	C1683.7,2942.1,1628.9,3018.4,1545.7,3014.5z M1558.8,2876.1c27.2,0.8,49.6-20.6,49.6-47.3c0-21.1-19.8-42.5-40.3-43.3
	c-25.4-1-49.4,24.1-49.5,51.8C1518.5,2857.7,1537,2875.5,1558.8,2876.1z"/>
<path d="M2400,3013.8c-76.2-1.1-135.3-62.1-133.7-138.1c1.7-77.7,60.8-136.9,136-136.1c74.8,0.8,136.9,63.5,136.1,137.4
	C2537.5,2955.7,2477.7,3014.8,2400,3013.8z M2461.3,2830.1c-0.5-24.2-19.7-44.9-41.5-44.7c-26.6,0.2-47.8,24.4-46.7,53.2
	c0.9,22.3,17.1,36.9,40.7,36.5C2441.2,2874.7,2461.9,2855.1,2461.3,2830.1z"/>
<path d="M3034.9,3029.9c-4.5,19-7.4,38.4-13.7,56.8c-49.9,146.4-135.3,268.7-254.4,366.9c-28.5,23.5-61.2,42.4-93.8,60
	c-16.6,8.9-37.1,13.7-56,14.2c-36.8,1.1-59.4-27.5-54.1-64.1c3.4-23.5,15.9-42.2,33.6-56.9c18.8-15.6,38.8-29.8,58.5-44.3
	c104-76.9,179.9-176,233.3-293.2c12.2-26.7,23.7-53.9,38.9-78.9c17.9-29.6,48.1-36.6,76.2-20.6
	C3026.1,2982.8,3034,3004.1,3034.9,3029.9z M3003.7,3036.7c1-25.7-5.2-36.5-19.7-41.5c-14.6-5-25.7-0.4-35.7,17.7
	c-9.9,18-18.3,36.9-27,55.5c-30.4,65-64.9,127.4-110,183.7c-51.4,64.1-113.7,116.1-179.2,164.7c-10.2,7.5-20.4,15.6-28.7,25
	c-13.3,15.1-15,33-6.4,46c8,12.1,21.3,16.5,42.3,8c24.3-9.9,49.1-20.9,70.3-36.1c134.9-96.5,227.9-224.7,282.6-380.9
	C2997.6,3063.2,3000.9,3046.8,3003.7,3036.7z"/>
<path d="M1417.9,1204.3c1-6.8,1.4-15.8,3.5-24.2c24.7-96.3,64.8-184.7,134.1-257.5c15.4-16.2,33-31.1,51.9-42.8
	c14.5-8.9,32.3-14.7,49.3-16.7c24.7-2.9,46.9,6,59.7,29.2c13,23.6,10.7,47.3-4.6,69.3c-5.5,8-12.4,15.4-19.8,21.6
	c-71.5,60.5-118.6,137.2-150.6,224.3c-4,11-8.9,21.8-14.8,31.9c-16,27.7-39.4,38-66.3,30.1C1434.7,1262,1416.5,1234.9,1417.9,1204.3
	z M1448,1198.9c-0.2,26.3,5.6,36.4,20.1,40.7c13.9,4.2,25.6-1.7,34.9-19.3c6.8-12.9,12.6-26.5,17.9-40.2
	c32.6-84.4,79.6-158.9,148-219.2c7.2-6.4,13.5-14.2,19-22.2c7.9-11.5,8.9-24.1-0.7-35.2c-8.9-10.3-20.5-15.4-34.2-10.7
	c-8.3,2.8-17.2,5.6-23.8,11c-22.7,18.5-46.8,35.9-66.1,57.6c-53,59.4-86,130.1-108.1,206.1C1451.4,1179.5,1449.5,1192.1,1448,1198.9
	z"/>
<path d="M1403.3,3179.7c-20.9-2.3-40.7-2.8-59.7-7c-15.9-3.5-32.2-9.3-46.1-17.7c-42.9-25.9-44.1-74.6-3.1-103.2
	c9.4-6.6,20.6-11.7,31.8-14.5c54-13.5,108.3-17.8,162.2,0.1c11.9,4,23.8,9.4,34.2,16.3c36.3,24.2,37.1,73.7,0.9,98.3
	c-13.4,9.1-29.8,15.3-45.7,18.6C1453,3175.6,1427.4,3176.9,1403.3,3179.7z M1404.8,3146.5c18.8-2.4,42.2-4.6,65.3-8.8
	c10.3-1.9,20.8-6.2,29.6-11.9c25.3-16,24.2-33.2-2.1-48.6c-2.5-1.5-5.1-3-7.9-4c-55.5-18.9-111-22.5-166.3,0.4
	c-12.7,5.3-26.7,12.2-27.4,27.7c-0.7,16.7,12.6,25.8,26.4,31.8c9.7,4.2,20.3,7.4,30.8,8.9
	C1368.9,3144.5,1384.6,3144.9,1404.8,3146.5z"/>
<path d="M2551.7,3023.7c23.4,4.2,50.5,7.9,77,14.3c13,3.1,25.7,10,36.9,17.6c34.1,23.1,36.4,66.2,4.1,92.1
	c-12.6,10.1-28.6,18-44.3,21.9c-53.3,13.3-107,11.5-159.9-3.2c-13-3.6-25.8-10-36.9-17.6c-35.5-24.4-36.6-68.5-1.5-93.5
	c14-10,30.9-17.7,47.7-21.5C2498.5,3028.1,2523.2,3027.1,2551.7,3023.7z M2543.5,3053.3c-20.5,4.6-47.2,9.8-73.4,17
	c-16,4.4-35.5,11.2-35.3,30.2c0.3,19.2,18.9,28.1,35.6,34.7c5.4,2.2,11.2,3.9,17,4.6c22.3,2.6,44.7,6.9,67,6.3
	c29.2-0.7,59-2.4,85.2-18.1c27-16.1,27.5-34.7,0.9-50.8c-11.5-7-24.7-12.2-37.8-15.3C2585.6,3057.9,2567.9,3056.7,2543.5,3053.3z"/>
<path d="M2094.4,2981.8c28.2,0.7,34.2,5.6,30.9,27.3c-4.7,30.3-14.8,58.8-31.9,84.7c-53.6,81.1-201.5,82.6-248.2-16.7
	c-9.9-21-16.4-43.9-21.5-66.7c-4.3-19.2,1.7-28.2,14-30.4c12.9-2.4,19.5,3.8,24.6,22.4c3.9,14.2,6.5,29,12.5,42.2
	c18.5,40.6,50.2,67,95.1,67.8c45,0.8,81.3-20.4,102.5-62c6.1-12.1,9.4-25.7,13.5-38.7C2089.1,3001.6,2091.7,2991.4,2094.4,2981.8z"
	/>
<path d="M2375.1,3628.5c-11.7-0.1-29.1-4.5-38.5-24.1c-9.6-20-1-36.4,11.5-50.9c19.6-22.9,44.2-34.5,75.3-29.2
	c19.4,3.3,32.1,15.1,37.5,33c5.8,19.3,0,36.8-15.4,50.2C2427.6,3623.1,2406,3628.2,2375.1,3628.5z M2409.7,3548.9
	c-13.7,7.8-26.7,13.9-37.8,22.4c-4,3.1-6.8,13.9-4.5,17.8c3.2,5.5,12.5,11.7,17.9,10.7c13-2.4,26-7.4,37.3-14.2
	c5-3,9.7-14.5,7.7-19.4C2427.8,3559.6,2418.5,3555.8,2409.7,3548.9z"/>
<path d="M1470.9,1396c-3.3,10.6-6.1,26.3-13,39.9c-11.2,22.1-30.1,29-54.6,23.5c-18.3-4.1-29.6-21-30.1-45
	c-0.4-20.2,4.7-38.8,16.9-55.2c10.4-14.1,23.1-24.2,42.2-20.8c19.8,3.5,30.3,16.7,35,35.2C1468.7,1379.3,1469.2,1385.2,1470.9,1396z
	 M1444.2,1391.2c-6.4-7.6-10.8-17.5-17.8-19.7c-4.5-1.5-15.7,7-18.3,13.3c-4.3,10.1-5.9,22.3-5,33.3c1,12.5,15.2,17.6,23.2,8.1
	C1433.9,1417.3,1437.5,1404.9,1444.2,1391.2z"/>
<path d="M2968,2802.8c6.2-16.1,10.7-33.2,19-48.1c8.7-15.7,23.8-22.1,42.5-18.8c18.3,3.3,29.7,13.5,34.9,31.1
	c5.5,18.4,5.3,36.5-1.5,54.5c-10.2,27-29.6,40.5-52.8,36.5C2985.4,2853.7,2970.7,2833.3,2968,2802.8z M2997.8,2799.8
	c0.8,6.1,0.3,9.4,1.7,11.7c3.7,6.2,7.2,15.8,12.4,17c5.5,1.2,14.6-4.2,19.1-9.3c10.2-11.9,10.8-27.1,6-41.1
	c-2-5.9-10.2-12-16.5-13.2c-4.3-0.8-12.3,5.4-15,10.4C3001.1,2783.6,2999.7,2793.4,2997.8,2799.8z"/>
</svg>
