<?xml version="1.0" encoding="utf-8"?>
<!-- Generator: Adobe Illustrator 24.3.0, SVG Export Plug-In . SVG Version: 6.00 Build 0)  -->
<svg version="1.1" id="Layer_1" xmlns="http://www.w3.org/2000/svg" xmlns:xlink="http://www.w3.org/1999/xlink" x="0px" y="0px"
	 viewBox="0 0 4000 4000" style="enable-background:new 0 0 4000 4000;" xml:space="preserve">
<path d="M3123.4,1234.2c33.1,2.9,62.9,3.5,91.9,8.5c92.2,15.9,173.3,55.2,238.1,123.5c61.4,64.7,90.6,145,102.5,231.8
	c3.7,27.2,3.3,55,3.2,82.6c-0.1,25.3-0.8,26.7,22.6,37.2c47.2,21.2,89.6,49.2,126.2,85.7c106.6,106.5,157.6,285.7,85.1,458.1
	c-9.5,22.6-20.1,44.8-31.2,66.7c-13,25.5-14.2,26,6.6,47.2c58.8,60,98.6,130.8,116.5,212.5c19.5,89,17,176.9-26.7,260
	c-46.3,88-121.4,133.2-217.8,144.7c-53.3,6.4-106.2,2.7-157.3-16.4c-12.7-4.7-24.8-6.5-36.8,4.8c-51.6,48.6-115,77.3-179.5,103.9
	c-106.5,43.9-218.2,68.8-330.6,91.2c-131.5,26.1-264.5,41.1-398.2,51.1c-190.2,14.1-380.3,14.2-570.5,3.9
	c-234.2-12.8-467-37.3-695.5-92c-122.6-29.4-242.7-66.7-351.3-133.5c-21.7-13.3-42.6-28.4-62.1-44.7c-13-10.9-23.7-12.2-38.7-4.8
	c-44.4,22.1-91.2,35.8-141.3,36.5c-167.1,2.7-294.1-115.2-302.5-282.3c-6.1-120.6,37.7-222,122.3-306.6c24-24,24-23.3,9.3-54
	c-54.6-113.8-69.5-230.4-21.3-350.3c35.9-89.2,97.5-155.6,183.5-197.8c21.6-10.6,26.8-22.4,25.6-44.8c-3-57.5,2.2-114.8,20.7-169.6
	c54.2-160.4,168.1-251.6,332.3-282.9c18-3.4,36.4-4.7,54.7-6.3c23.8-2.1,23.2-2,30.7-25.8c10.7-34.1,19.4-69.2,34.3-101.5
	c72.3-156.3,197.3-234.4,367.9-242.1c55.6-2.5,110.6,2.9,163.6,20.1c21.1,6.8,33,2.7,46.7-14.4c36.1-44.8,77.2-84.9,127.3-114.2
	c158-92.7,316.6-90.3,474.8-0.9c46.7,26.4,86.7,61.4,121.5,102.3c15.5,18.2,15.8,18.1,38.7,9.1c84.7-33.5,172.4-44.6,262-29.2
	c158.7,27.1,264.5,120.8,327,266.6C3107,1189.6,3114.8,1211.8,3123.4,1234.2z M2207.6,3179c87-3.8,222-7.5,356.7-16.3
	c122.5-8,244-25.4,364.5-49.3c118.5-23.5,235.5-52.4,346.2-102.3c44.9-20.2,88.2-43.1,126-75.3c15.4-13.1,26.5-28.5,29.7-48.6
	c5.6-35.3,13.2-70.5,15.5-106.1c9.5-147.8-0.6-294.3-30.5-439.5c-49.8-241.7-147.6-461.7-305.1-652.1
	c-216.3-261.5-490-423.4-830.8-462.2c-92.8-10.6-186.2-9.4-278.5,5.9c-273.4,45.2-505.7,170.6-699.7,367.1
	c-160.8,162.8-274.4,355.6-354.1,568.9c-45,120.3-71,245.4-87.5,372.6c-12,92.8-12.3,185.5,0,278.4c6.5,49.4,24.8,90.2,69.4,116.3
	c14.1,8.3,27.2,18.2,41.3,26.4c97.6,56.2,203.7,89.7,312.4,115.7c120.4,28.8,242.6,47.6,365.4,63.4
	C1818.3,3163.8,1988.7,3173.1,2207.6,3179z M1989.8,1170.4c2.7-13.8,4.8-23.8,6.7-33.8c7.1-38.5,24.7-72.1,52.9-98.4
	c15.2-14.2,34.8-24.9,54.2-33c15.6-6.5,29.4,3.2,36.8,19.4c7.7,17,4.6,28.5-11.6,39.2c-9.3,6.2-19.6,11-29,17.2
	c-27.7,18.3-37.6,45.7-42.4,79.5c189.1-15.1,368.1,15.3,543.1,77.2c6.4-8.4,11.8-15.6,17.4-22.8c23.9-31,54.5-52.9,92.9-61.1
	c16.6-3.6,34.7-3.8,51.6-1.6c15.9,2,25.5,18.6,24.2,34.4c-1.4,18.2-9.6,25.3-30.2,27.3c-12.2,1.1-24.7,1.5-36.3,4.9
	c-22.7,6.8-42.4,18.6-56.7,44.6c166.4,80.2,313.7,185,439.9,317.6c6.3-3.6,10-5.3,13.2-7.7c33.7-25.2,71.9-33.3,113.1-29.6
	c20.8,1.9,40.4,7.6,54.8,24.1c10.5,12,10.9,25.8,2.8,39.7c-7.8,13.4-19.7,17.5-34,14.5c-7.9-1.7-15.2-5.9-23-8.4
	c-30.6-9.7-59.2-1-78.9,24.5c91.8,112.8,167,236.3,223.8,368.3c3.6,1.4,4.6,2.2,5.4,2.1c6-0.7,12-1.4,18-2.4
	c52.6-9.2,99.3,4.9,141.6,35.9c16.1,11.8,27.3,27.7,33,46.9c4.7,15.7-0.8,29.3-14.2,36.7c-13.4,7.3-25.4,5.5-35.9-6.1
	c-7.5-8.3-15.1-16.8-23.4-24.4c-27.1-24.7-62.9-31-93.2-16.5c0.6,3.6,0.8,7.7,2,11.4c10.7,32,22.4,63.7,32.2,95.9
	c30.2,99.1,47.8,200.9,61,303.5c3.4,26.1,3.4,25.8,27.6,32.2c32.4,8.6,61.5,24.1,83.2,49.5c13.6,15.9,24.3,35.4,32.2,54.9
	c7.1,17.5-3,33.6-19.4,39.3c-16.5,5.8-27,1.4-37.7-16.2c-4.2-7-7.2-14.9-12.1-21.3c-15-19.7-32.9-35-63.2-38.3
	c2.4,110.5-0.2,217.4-22.4,323.6c78.5,33.7,153.5,27.7,227-7.7c57.9-27.9,94.1-74.3,110.1-136.2c24-92.9,10.6-181.5-38-263.1
	c-21.7-36.5-50.6-69.1-78.2-101.9c-31-36.9-33.6-48.3-9.5-89.4c25-42.6,43.9-87.3,55.7-135.6c40.4-165.1-44.6-329.2-180.6-396
	c-16.5-8.1-33-16.3-49.7-24.2c-22.8-10.7-33.2-27.1-31.5-53.6c2.2-34.6,4.8-70-0.1-104c-20.3-139.7-94.5-236.5-231.5-281.5
	c-50.3-16.5-101.6-22.4-154.1-21.9c-27.3,0.2-33.7-5.1-42.4-30.6c-6.9-20.3-12.5-41.1-19.8-61.3c-26.6-73.1-70.5-134.3-133.3-179.8
	c-95.3-69-201.8-85.8-315.3-57.6c-33.6,8.4-66,21.4-99.1,32c-27,8.6-35.2,5.8-53.5-15.4c-14.7-17-28.4-35.3-44.9-50.3
	c-121.6-110.3-260.8-150.4-419.6-97.5c-83,27.6-147.4,82.6-198.7,153c-27.9,38.3-33.2,39.5-79.5,25.8c-28.4-8.4-57.1-16.8-86.2-21.1
	c-196.8-29.1-364.6,74.1-418.5,266.5c-4.7,16.7-7.6,33.9-12,50.8c-9.4,36.1-18,42.8-54.7,46c-25.4,2.2-51.1,3.4-76.2,7.8
	c-173,30.4-292.5,168.1-298.6,343.7c-1,28.6-0.8,57.3,0.2,85.9c0.6,19.6-7.3,33.5-23.4,43.4c-7.8,4.8-16,9.2-24.3,12.9
	C579.2,1910.5,491.7,2056.8,526,2214c11,50.5,28.8,97.9,53.1,143.3c15.7,29.3,13.6,38.6-9.5,62.4c-15.7,16.2-32.4,31.4-47.5,48
	c-51.3,56.3-81.4,122.1-85.9,198.8c-4.6,79.4,13.3,151.8,75.5,205.5c89.5,77.2,186.7,71.6,284.1,28.3c13.3-5.9,13-15.9,10.4-28.1
	c-13.8-65.4-18.3-131.6-17.7-198.3c0.3-29.9,0.4-30.2-28-41.7c-39.1-15.9-67.2-42.6-80.7-82.9c-3.4-10.3-3.8-22.1-3.1-33.1
	c0.9-14,11.2-21.3,24.2-24.2c12.4-2.8,22.4,2.2,28.6,13c5.6,9.7,9.5,20.4,15.2,30.1c10.8,18.4,22.9,35.8,49.9,38.6
	c9.2-120.7,38.2-236.3,68.5-350c-53.4-34.2-77.2-62.6-94.6-113.4c-4.2-12.3-6.8-25.9-6.8-38.9c0-19.9,14.3-35.3,30.6-36.5
	c16.9-1.2,28.2,10.7,31.4,33.9c3.8,28.1,13.9,53.5,34,73.8c6.7,6.7,15.5,11.3,28,20.2c47.7-135,107.6-258.5,182.7-373.5
	c-6.4-8.4-10.5-14.2-15.1-19.6c-25.3-29.9-38.7-64.8-42.2-103.5c-2.2-24,0.9-47.3,17.2-66.5c11.4-13.4,30-16.1,44.7-7.7
	c14.4,8.3,14.1,21,10.4,34.8c-1.8,6.9-4.1,13.9-4.7,20.9c-2.9,30.5,3.6,57.9,28.9,81.7c7.2-8.7,13.2-15.4,18.5-22.6
	c90.4-123.3,199.5-227.4,324.1-315.6c18.1-12.8,24.4-14.7,16.2-42.3c-13.3-44.9-9.1-89.4,14.4-130.5c5.8-10.2,14.4-20.3,24.2-26.6
	c18.1-11.6,45-1.4,46.5,17.5c0.8,9.8-5.1,21.4-11,30.3c-18.7,28.4-21.6,58.3-13.5,92.2c75.6-34.1,148.6-70.6,224.2-100.2
	C1827.3,1201.6,1907,1182.5,1989.8,1170.4z"/>
<path d="M1522.5,1687.2c-1.1,2.6-2.4,7.8-5.3,11.7c-4.2,5.7-9.3,10.8-14.4,15.8c-99.1,97.5-182,206.7-239.6,334
	c-3.4,7.4-6.9,14.9-11.5,21.6c-9.9,14.5-22.1,17.4-37,9.8c-13.6-6.9-18.8-16.7-11.6-33.2c15.9-36.4,32.4-72.8,51.5-107.6
	c54-98.5,129.2-180.9,204.7-262.8c5.5-5.9,11.8-11.5,18.6-15.8C1495.3,1649.6,1521.8,1664.1,1522.5,1687.2z"/>
<path d="M1579.2,1649.7c-7.3-9-13.1-14.8-17.1-21.6c-9.8-16.5-9.1-24.9,6.2-37.3c17.4-14.1,36.1-26.7,55-38.8
	c25-15.9,50.3-31.4,76.3-45.5c17.4-9.5,24.1-6.3,34.8,11.2c11.7,19.1,11.8,30-3.6,39.6C1681.6,1588.1,1631.8,1617.8,1579.2,1649.7z"
	/>
<path d="M1822.2,1516.1c-21.8,0.9-29.5-8.4-33.6-20.5c-4-12-5.4-25.7,8.5-31.8c20.3-8.9,41.3-16.6,62.7-22.4
	c13.1-3.6,23.5,4.7,29.2,16.8c6.2,13.3,1.2,25.9-9.7,31.9C1859.3,1501.4,1837.3,1509.4,1822.2,1516.1z"/>
</svg>
