<?xml version="1.0" encoding="utf-8"?>
<!-- Generator: Adobe Illustrator 24.3.0, SVG Export Plug-In . SVG Version: 6.00 Build 0)  -->
<svg version="1.1" id="Layer_1" xmlns="http://www.w3.org/2000/svg" xmlns:xlink="http://www.w3.org/1999/xlink" x="0px" y="0px"
	 viewBox="0 0 4000 4000" style="enable-background:new 0 0 4000 4000;" xml:space="preserve">
<path d="M1933.2,3747.1c-303.3-10.7-606.5-21.4-909.8-32.4c-42.1-1.5-83.7-7-122.6-24.5c-114.4-51.4-172.4-142.9-184.7-265.1
	c-3.2-31.8-2.6-64.1-1.9-96.1c5.6-262.7,11.4-525.3,17.8-788c6.1-250.3,12.6-500.7,19.7-751c0.8-26.7-4.3-47-27.6-63.6
	c-108.7-77.2-159.3-187.9-178.5-315.9c-19.7-131.2,3.4-257.9,40.6-383C645.7,827.2,770,677,941,560
	c215.2-147.2,453.6-236.5,705.4-294.6c199.3-46,401.2-65.7,605.7-60.5c271,6.9,534.6,51.7,787.8,150.8
	c128.2,50.1,248.6,114.6,355.7,201.9c168.1,137,269.2,315.2,316.9,525c27.1,119.2,31.3,239.5,8.8,360
	c-22.4,119.9-76.5,221-179.2,291.2c-23.8,16.3-33.5,34-34,63.6c-5,272.6-12.2,545.1-18.1,817.6c-4.8,223.2-8.2,446.5-13.7,669.7
	c-1,40.4-5,81.5-14,120.9c-21.8,95.7-74.2,172-160.3,221c-114.2,64.9-235.6,112.4-363.8,142c-54.6,12.6-110,12.7-165.6,10.6
	c-249-9.7-498-19-747-28.4c-30.8-1.2-61.6-2.7-92.4-4.1C1933.3,3746.8,1933.2,3747,1933.2,3747.1z M3088.9,3665.1
	c68.4-25.8,125.8-53.3,181.5-84.8c96.6-54.7,144.9-138.9,148.5-248c5.9-180,9.7-360,14-540c4.5-188.7,8.6-377.3,12.8-566
	c3.3-150.4,7.5-300.9,9.1-451.3c0.4-33.7,11.5-55.4,40-72.4c23.1-13.8,45.2-30.3,64.9-48.7c60.7-56.9,93-129.4,110.3-209.4
	c21.9-101.8,15.5-203.9-1-305.3c-25.9-158.9-87.7-302.5-192.3-426.2C3390,610.6,3283.2,533.6,3165,472.9
	C2908.4,341,2632.5,283.4,2346.7,264c-133.5-9-266.3-4.7-399,9c-125.2,13-249.1,34-370.1,69.7c-26.9,7.9-53.4,17.3-80,26.1
	c6.5,4.1,12.2,4.6,17.7,4c85.8-8.8,171.3-21.6,257.3-25.7c157.9-7.5,315.7-0.8,472.5,21.2c222.4,31.2,437.1,88.8,637.3,193.1
	c136.7,71.2,262.7,156.4,355.4,283.4c146.1,200.1,202.8,422.6,163.7,667.2c-21.1,132-77.3,244.3-202.4,309.9
	c-16.5,8.7-19.8,22.7-20,40.1c-3.7,247.9-7.7,495.8-12.1,743.7c-4.9,275-10.3,550-15.4,825c-1.3,72.6-14.4,142.1-51.4,205.8
	C3096.6,3642.6,3094.8,3649.7,3088.9,3665.1z M1933.4,3690.5c0,0.7,0,1.4,0,2.1c13.6,0,27.2-0.5,40.7,0.1
	c215.7,9,431.4,18.3,647,27.2c65.3,2.7,130.7,6.2,196,6.4c126,0.4,225.8-65.9,263.1-177.6c12.3-36.8,18.1-77.1,18.9-116
	c7.8-378.7,14.1-757.4,20.6-1136c2.5-148,5.6-296.1,6.2-444.1c0.2-36.7,12.3-61.5,45.2-76.6c4.5-2,8.5-5.1,12.7-7.5
	c71.9-41.1,118.5-102.7,146-179.8c39.2-109.9,39.7-222.5,21.6-336c-29.6-186.2-107.6-347.3-248.4-475.8
	c-67.9-62-142.8-113.6-223.9-156.3c-250.9-131.9-520-196.8-801.4-214.9c-182.7-11.7-364.9-5.4-546.2,21.9
	c-180.6,27.2-354,76.6-516,162.3C921.8,639.4,837.5,701.2,772,785.4c-136.6,175.8-190.3,377-173.5,596.7
	c9.9,129,62.3,237.8,174.6,311c2.1,1.3,4,2.9,6,4.3c17.7,12.2,25.7,28.9,25.4,50.5c-0.4,27.1,0.8,54.3,0.1,81.4
	c-7.7,334.3-15.6,668.5-23.5,1002.8c-4.3,181.3-9.1,362.6-12.8,543.9c-0.5,25.7,1.2,52.1,6.5,77.2c18.9,89.8,76.1,180.6,200.9,200.1
	c25.6,4,51.4,7.4,77.2,8.3C1346.4,3671.6,1639.9,3681,1933.4,3690.5z"/>
<path d="M1939.9,3597.2c-247.9-7.8-495.8-15-743.6-24c-41.5-1.5-84.2-6.7-123.9-18.4c-126.8-37.2-211.6-151.7-214.2-288.6
	c-1.5-78.9,2.4-157.9,4.1-236.8c5.8-256.6,11.4-513.1,17.6-769.7c3.9-164,8.1-328.1,13.5-492.1c1-29.7-8.3-50.9-29.9-71.2
	c-127.6-120.3-177.1-268.9-157.4-442.1c7.4-65.2,21.5-128.8,42.7-190.9c57.1-166.9,164.8-292.9,312.9-385.7
	c161-100.9,339.8-148.4,525.6-176c254.3-37.8,506.6-26.6,757.8,25.5c165.1,34.2,324,85.6,472.3,167.1
	c97,53.3,184.3,119.4,255.1,205.2c87.8,106.4,138.5,229.4,159.7,364.9c13,83.5,13.1,166.8-4.7,250.1
	c-23.7,110.5-78.3,201.7-166,272.4c-21.3,17.1-29.9,35.3-30.3,62.7c-4.3,280-9.6,560.1-15,840.1c-3.9,201.1-8.5,402.1-12.7,603.2
	c-1.9,91.3-30.8,171.5-95.9,237.4c-53.6,54.3-119.7,85-194.5,87.6c-99.7,3.5-199.8,1-299.6-2.2c-157.8-5-315.6-12.8-473.4-19.4
	C1940,3596.5,1939.9,3596.8,1939.9,3597.2z M1923,3540.5c0,0.9-0.1,1.8-0.1,2.7c230.5,7.7,461,15.5,691.6,23
	c27.1,0.9,54.4,1.8,81.4-0.6c111.3-9.6,195.3-60.6,234.6-168.3c13.6-37.3,17.6-79.5,18.8-119.7c5-170.1,7.2-340.4,10.6-510.5
	c6-307.1,13.1-614.1,17.1-921.2c0.6-46.6,14.5-76.9,51.7-105.1c86.1-65.2,137.1-153.1,153.2-261.1c18-120.1,2.1-236-38.6-349.3
	c-57.3-159.2-166.9-274.5-308.5-361.5c-149.8-91.9-313.2-150.3-484.5-186.1c-215-44.9-432.6-56.9-651.4-38
	c-159.1,13.7-314.5,45.2-463.4,105.3c-111.5,44.9-211.3,108.2-293.7,195.1c-127.3,134.2-184.1,298.1-186.5,481.5
	c-1,72.5,12.7,142.3,48.2,206.7c27.7,50.3,64.4,93.4,106.9,131.4c26.8,23.9,38.9,51.1,37.5,87.7c-3,80.1-1.9,160.3-4,240.5
	c-6,226.9-13.1,453.7-19.1,680.6c-4.2,156.6-7.5,313.2-10.6,469.9c-0.9,46.8-3.5,94,0.6,140.5c11.9,136.4,118.1,229.8,235.5,233.3
	c16,0.5,32,2.3,48,2.7C1439.6,3527,1681.3,3533.7,1923,3540.5z"/>
<path d="M1289.3,1694.9c-33.6,9.7-37.3,9.1-50.3-11.2c-21-32.7-24.6-69.1-21.6-106.7c9-115.7,101.4-196.9,214.9-186
	c83.6,8,148.6,67.4,137.1,163.1c-0.6,4.9-1,9.9-2.1,14.6c-3.5,15-15.8,20.2-28,17.6c-7.1-1.5-15.1-11.9-17.2-19.8
	c-4.1-15.3-4.2-31.7-6-47.6c-4.4-37.1-24.5-60-60.6-70.8c-72.7-21.9-150.5,17.1-175.6,89.8c-13.7,39.6-15.1,79.6-1.3,119.7
	C1282.7,1669.8,1285.8,1682.4,1289.3,1694.9z"/>
<path d="M1300.9,804.8c8.8,2.7,27.3,5.9,42.9,14.3c7.2,3.9,10.1,17.8,11.9,27.8c0.3,1.9-13.3,7.9-21,9.3c-9.5,1.8-19.6,0.7-29.4,1
	c-71.6,2.4-120,37.8-147.1,103.5c-4.2,10.2-6.3,21.7-12.4,30.6c-4,5.9-14.8,12.6-19.9,11c-7.4-2.4-16.7-11.5-17.6-18.7
	c-4.8-38.8,9.1-73.2,32.9-102.6C1179.5,833.5,1230.1,808.5,1300.9,804.8z"/>
<path d="M2599.9,3070.8c-13.2,0-26.2,0.2-39.2,0c-65.3-1.1-113.8,25.3-141.3,86.2c-4,8.9-7.8,18.5-14.1,25.7
	c-5.1,5.8-14.8,13-20.5,11.5c-7.9-2-16.3-10.2-20.2-18c-3.4-6.8-2-16.8-0.6-25c14.6-85.1,113.7-149.7,197.6-129.2
	C2591.7,3029.5,2597.9,3036.5,2599.9,3070.8z"/>
<path d="M2092.5,1064.5c-116.2,11.5-136.2,8.2-185.2,153.9c-22.5,5.2-32.4-9.6-34.4-27.3c-1.9-16.5,0.6-34.4,5-50.7
	c18.4-67.9,81.8-117.6,152.1-119.4c14.4-0.4,29.5,2.7,43.2,7.1C2088.4,1033,2098.1,1043.8,2092.5,1064.5z"/>
<path d="M1333.3,3198.2c-3.1,13-3.5,27.6-10.2,38.4c-4.6,7.4-18.1,13.2-27.1,12.6c-5.8-0.3-13.7-12.9-15.5-21.1
	c-3.8-16.7-2.8-34.4-6.1-51.2c-8.2-41.4-34.3-67.1-74-79.6c-3.5-1.1-7-2.3-10.6-3.4c-26.4-8-36.1-17.6-31.9-31.9
	c3.8-13.2,22.3-21.4,43.9-19.5C1275.5,3049.1,1330.4,3115,1333.3,3198.2z"/>
<path d="M2856.9,1585c-0.6,34-27.4,59.5-62.1,59.1c-35.4-0.4-58.8-25.7-57.6-62.2c1.1-34.5,28.7-61.9,61-60.6
	C2830.8,1522.6,2857.5,1551.6,2856.9,1585z"/>
<path d="M1853.6,3365c0.3,32.8-27.6,60.8-61.3,61.4c-32.5,0.6-56.3-24.1-57-59.5c-0.7-34.2,26-63.9,57.7-64.2
	C1824.9,3302.4,1853.3,3331.6,1853.6,3365z"/>
<path d="M3083.3,1305.1c0.7,36.6-24.5,63.4-61.1,64.9c-34.1,1.4-57.1-21.7-57.2-57.4c-0.2-34.2,26.1-63,58.2-63.9
	C3056.4,1247.8,3082.7,1272.5,3083.3,1305.1z"/>
<path d="M2598.1,869.4c-31.5-0.7-56.2-27.5-56.1-60.9c0.1-34.6,26.7-62.6,58.8-62c33.6,0.7,58.6,27.3,58.6,62.5
	C2659.5,842.2,2631.1,870.1,2598.1,869.4z"/>
<path d="M1017.1,1294.9c0.4,32.9-24.6,58.7-57.4,59.4c-33.4,0.7-59-23.9-59.4-57c-0.4-32.8,25-61.9,54.8-62.9
	C987,1233.4,1016.7,1262.4,1017.1,1294.9z"/>
<path d="M2826.5,2780.2c-0.4,32.9-29,60.3-62.2,59.5c-30.1-0.7-55-26.4-55.7-57.5c-0.7-31.6,29.6-62.9,60.3-62.3
	C2799.8,2720.5,2826.8,2748.9,2826.5,2780.2z"/>
<path d="M1589.1,686.1c0.8,35.3-21.7,60.6-54.8,61.6c-33.1,1-60.2-23.7-61.3-56.1c-1.1-29.9,27-61.2,56.4-62.8
	C1561.7,627,1588.3,652.6,1589.1,686.1z"/>
<path d="M1087.5,2758.7c0.5,32.5-23.9,57.2-57.6,58.5c-31.4,1.2-58.2-24.9-59.2-57.4c-0.9-31,25.5-59.6,56.3-61
	C1060,2697.3,1087,2724,1087.5,2758.7z"/>
<path d="M2785.1,3288.5c-0.3,32.9-25.4,56.3-60.2,56.3c-30.1,0-54.9-26.4-54.3-57.6c0.6-30.9,29.7-61,58.3-60.4
	C2759.4,3227.4,2785.4,3255.9,2785.1,3288.5z"/>
<path d="M1089.5,3248.7c-0.1,18.3-17.4,35.2-36.1,35.3c-19.6,0.1-34.9-13-35.1-30.3c-0.3-21,16.2-37.4,37.6-37.1
	C1075,3216.8,1089.6,3230.7,1089.5,3248.7z"/>
<path d="M2008.6,2943c-16.6-0.6-30.2-14.1-30.3-30.1c-0.1-19.8,16.4-38.1,32.8-36.3c15.6,1.7,29.6,20.1,28.2,37
	C2037.6,2931.8,2025.3,2943.7,2008.6,2943z"/>
<path d="M2521.4,2879.2c0.6,17.5-14.8,35.6-30.2,35.7c-15.9,0.1-29.6-14.6-29.5-31.5c0.1-15.5,14.5-32.9,28.3-34.1
	C2504.7,2847.9,2520.9,2863.4,2521.4,2879.2z"/>
<path d="M1930.7,1359.1c-16.7-0.8-27.3-14.3-26.2-33.4c1-17.3,11.8-28.8,27.1-28.8c17.9,0,33.8,16.6,32,33.3
	C1961.8,1346.3,1946.4,1359.8,1930.7,1359.1z"/>
<path d="M1510.2,3175.7c15,0.7,27.5,14,27.4,29.1c-0.1,18.6-15.3,34.9-31.5,33.9c-15.6-1-28.5-16.5-27.6-33.3
	C1479.5,3188.8,1494.3,3174.9,1510.2,3175.7z"/>
<path d="M1831.8,1897c-0.2,17.3-15.4,30.5-34.6,29.9c-15.3-0.4-27.6-13-27.3-28.3c0.2-17.6,15.7-33.3,32.5-32.9
	C1818.2,1866,1832,1880.7,1831.8,1897z"/>
<path d="M1292.7,1049.6c16.8,1,29.6,15.3,28.7,32c-1,17.4-18,33.6-34,32.3c-15.3-1.2-26.9-17-25.5-34.8
	C1263.5,1060.3,1275.7,1048.6,1292.7,1049.6z"/>
<path d="M2672.8,978.1c2-20.2,13.5-32.3,29.3-30.5c17.7,1.9,30.2,17.7,28.7,36.3c-1.3,15.9-16,28.3-32.9,27.6
	C2680.8,1010.9,2670.9,997.7,2672.8,978.1z"/>
<path d="M2107.3,3215.5c0.1,17.1-16.6,33.6-32.9,32.6c-14-0.9-26.5-15.5-26.2-30.4c0.4-16.3,14.2-31.7,29.1-32.5
	C2093.4,3184.4,2107.3,3198.4,2107.3,3215.5z"/>
<path d="M2616.9,1792.5c0.1,15.9-14.5,31.4-29.8,31.8c-15.5,0.3-28.9-14.3-29-31.8c-0.1-17.9,12.3-31.3,29-31.2
	C2603.2,1761.5,2616.9,1775.8,2616.9,1792.5z"/>
<path d="M1944.1,761.2c0.8,14.7-13.3,30.8-28.7,32.8c-14.4,1.8-30.5-12.3-32.2-28.3c-1.9-18.1,12.1-34.6,29.3-34.4
	C1927.3,731.5,1943.4,746.7,1944.1,761.2z"/>
<path d="M1082.4,1968.4c-0.7,18.2-16.8,34.9-31.9,33.3c-13.2-1.4-26.9-16.8-26.9-30.4c-0.1-16.9,16.5-33.3,32.9-32.4
	C1071.6,1939.7,1083,1952.6,1082.4,1968.4z"/>
<path d="M2865.4,2069.1c0.6,17.9-13.4,32.7-31.5,33.3c-15,0.5-28.1-12.2-28.2-27.4c-0.2-18.2,14.4-33.4,31.8-33.3
	C2853.6,2041.9,2864.9,2052.9,2865.4,2069.1z"/>
<path d="M1410.2,1812.2c0,15.2-15.8,29.7-31.7,29.3c-14.8-0.4-27.3-13.4-27.6-28.7c-0.3-17.3,12.6-31.5,28.8-31.4
	C1394.8,1781.4,1410.2,1797,1410.2,1812.2z"/>
<path d="M2295.9,1651.7c0.1,15.9-14.4,32.6-28.7,33.1c-15,0.5-31-14.8-31.5-30.1c-0.5-15.9,13.8-29.6,30.9-29.4
	C2283.3,1625.5,2295.8,1636.8,2295.9,1651.7z"/>
<path d="M1214.5,3379.9c-14.4,0.5-26.3-12.2-26.8-28.7c-0.5-17.4,11.7-33.3,26.3-34.3c13.9-1,31.4,14.7,32.6,29.2
	C1247.9,3361.8,1231.2,3379.3,1214.5,3379.9z"/>
<path d="M1339.1,2844.5c0.3,18.7-13.8,32-33,31.3c-15-0.5-25-11.2-24.7-26.2c0.4-19.4,14.7-35.4,31-34.7
	C1327.6,2815.6,1338.9,2828,1339.1,2844.5z"/>
<path d="M2501.1,1283.9c-0.4,17.5-14.4,31.3-30.4,30.1c-16.3-1.3-28.8-13.5-28.9-28.2c-0.2-16.4,14.3-30.1,31.2-29.6
	C2489.8,1256.7,2501.4,1268.1,2501.1,1283.9z"/>
<path d="M2161.5,700.5c-13.8-0.4-28.4-15.2-28.6-29c-0.3-15.6,17.6-34.3,32.9-34.5c13.6-0.2,25.7,14.9,25,31
	C2190,685.3,2176,700.9,2161.5,700.5z"/>
<path d="M1578.8,2726.8c15.9-0.4,32.4,13.4,33.3,28c1.1,16.7-14.2,32-32.5,32.6c-16.7,0.5-26.9-9.7-27.2-27.1
	C1552.2,2741.5,1563.5,2727.2,1578.8,2726.8z"/>
<path d="M2368.1,3448.1c0,16.9-16.7,35.9-31.2,35.3c-11.6-0.5-26.4-17.6-26.9-31.2c-0.6-15,14.6-31,30-31.6
	C2355.3,3420,2368,3432.5,2368.1,3448.1z"/>
</svg>
