<?xml version="1.0" encoding="utf-8"?>
<!-- Generator: Adobe Illustrator 24.3.0, SVG Export Plug-In . SVG Version: 6.00 Build 0)  -->
<svg version="1.1" id="Layer_1" xmlns="http://www.w3.org/2000/svg" xmlns:xlink="http://www.w3.org/1999/xlink" x="0px" y="0px"
	 viewBox="0 0 4000 4000" style="enable-background:new 0 0 4000 4000;" xml:space="preserve">
<path d="M2137.3,372.6c8.2-12.2,14.8-20.6,19.9-29.8c44.1-80,115.5-117.7,203.1-122.6c142-8.1,253.5,47.4,320.4,175.3
	c28.9,55.1,48.7,115.4,68.6,174.7c26.8,79.7,51.3,159.9,91.7,234.4c47.3,87.2,110.7,160.6,188.1,221.2
	c82,64.2,166.5,125,250.2,186.9c82.9,61.2,161.8,127,230.8,203.8c135.9,151.4,228.5,325,260.3,527.3c8,51,5.6,103.8,5.9,155.8
	c0.2,22,2.9,41.7,14.7,60.9c62.1,101.1,93.3,212.7,102.4,329.6c15.1,195.7-25.2,380.1-126.6,549.1
	c-91.9,153.1-220.2,266.7-382.8,341c-127.2,58.1-262,90.2-398.4,117.1c-121.7,24-243.7,46.6-364.5,74.6
	c-116.1,26.8-220.6,78.2-309.4,160.3c-52,48.1-90,50-151.5,13.4c-15.8-9.4-26.4-5-39.9,3.3c-54.6,33.5-102,33.6-145.9-11.2
	c-114.5-116.8-260.1-162.5-414.1-192.8c-158.3-31.1-317.4-59.5-474.2-96.8c-167.2-39.8-319.2-112.9-444-235.2
	c-144.7-141.8-226.7-314.9-255.6-513.9c-24.2-166.4-3.7-327.3,66-481.2c5-10.9,8.4-23.4,15.9-32.2c30.3-35.5,29.9-76.2,28.6-119.9
	c-5.4-185.4,57.1-350.9,154.6-505.2c93.6-148.2,221.6-262.2,361.8-364.5c74.4-54.3,148.4-109.2,220.6-166.3
	c118.3-93.4,200.1-213.7,251.8-354.7c22-60.1,41.8-121,62.7-181.5c19.7-57,43.7-111.9,81.8-159.5c101-126.5,305.7-154.6,428.9-58.3
	c15.6,12.2,29.6,27,42.1,42.5C2113.8,333.4,2123.4,351.1,2137.3,372.6z M2138.9,902c-4.1,0.3-8.2,0.6-12.3,0.9
	c-24.6,63.2-54.1,125.1-73,190c-64,221-175.2,408.1-366.5,543.4c-59.7,42.3-116.1,90.3-169.2,140.8
	c-133.5,126.8-232.2,275.9-269.1,459.1c-40.1,199.5-10.9,383.9,123.5,545.8c37,44.5,78.5,73.1,133.7,87.6
	c111.1,29.3,218.9,68.4,321,122.1c113,59.4,209.4,137.5,280.6,244.8c9.1,13.8,18,27.8,28.3,43.7c6.7-8.5,11.5-13.3,14.9-18.9
	c63.8-105.5,153.5-183.9,259.1-245.1c102.1-59.2,211-104,324.3-135.2c89.9-24.8,151.3-80.1,200.8-154.8
	c91.8-138.8,113-292.8,91.3-453c-27-200.1-125.4-364.8-273-499.1c-73.9-67.3-155.3-126.3-233.6-188.7
	c-52.5-41.8-101.5-87.1-140.2-142.1c-68.1-96.8-118.4-202.2-152.7-315.8c-16.9-56-39.3-110.5-60.1-165.2
	C2158.9,941.6,2148.3,922,2138.9,902z M3240.6,2724.8c8.5-0.5,12.8,0.4,15.8-1.1c83-40.6,165.3-84.1,231.1-149.4
	c211.2-209.4,285.8-457.9,197.8-746.6c-61.9-203.2-186.7-364.8-350.3-496.4c-99.7-80.2-205.2-153.3-307.7-230.1
	c-113.1-84.8-204.3-188.7-259.6-319.6c-36.2-85.8-64.9-174.9-96.2-262.8c-18.5-51.9-41.6-101.1-75.3-145
	c-60.7-79.1-189.1-117.8-282.2-84.8c-83.1,29.4-127.3,94.1-139.1,176c-10.6,73.4-11.1,149-9,223.4c5.8,202.9,91.2,366.3,250.1,493.4
	c97.4,77.9,203.5,141.8,309.4,206.4c136.8,83.3,274.6,165.2,393,274.7c147.1,136.1,250.5,297.8,283.9,498.3
	c28.6,171.6-0.8,332-101,476.8C3282.1,2666.1,3262.4,2693.9,3240.6,2724.8z M1024.2,2726.2c-2.4-9.1-2.4-12.1-3.9-14
	c-6.4-8.5-13.2-16.7-19.9-25c-97.9-121.3-142.5-262.9-144.9-415.7c-1.7-108.7,26.3-214.2,72.7-313.6
	c56.2-120.4,135.7-223.3,236.2-309.7c103.6-89.1,217.8-162.9,335.3-232.2c127.7-75.3,253.5-153.5,368.8-247.3
	c115.2-93.7,187.7-213.3,218.4-358.5c23.1-109.6,18.9-220.5,12.5-331.1c-1.9-32.2-15.3-64.9-28.9-95
	c-24.6-54.6-69.4-87.5-127.4-100.3c-103.6-22.9-231.1,13.2-296.4,132.2c-14.1,25.6-26.1,52.7-36.4,80.1
	c-14.1,37.4-26.7,75.5-38.1,113.9c-66.2,223.3-193.4,401.5-385.4,534.9c-94.2,65.5-186.2,134.6-274.3,207.9
	c-148.5,123.6-261,275.4-321.6,460.3c-71.7,218.9-50.4,429.5,73.3,626.2c81.6,129.8,200.5,215.9,337.2,279.9
	C1007.3,2721.8,1013.6,2723,1024.2,2726.2z M3762.6,2223c-9.3,23.6-15.7,37.7-20.4,52.3c-32.7,100-81.6,191.1-148.1,272.7
	c-100.8,123.8-232.1,205.4-380.3,256c-144.9,49.5-293.6,87.8-441,129.7c-135.5,38.6-264.5,91.3-383.1,168
	c-82.1,53.1-149.6,119.9-197.5,205.7c-21.3,38.1-34.4,77.5-28.8,122.2c2.8,22.4,1.3,45.3,1.5,68c0.4,52-0.8,104.1,1.2,156.1
	c2,52.1,47.2,74.2,90.2,44.9c15.4-10.5,29.3-23.2,43.2-35.6c58.5-52.2,125.1-90.7,199-116.5c139.1-48.6,284.4-70.3,428.2-98
	c137.6-26.4,274.5-54.5,403.9-111c183.5-80.2,329.5-201.3,418.3-383.8c107.3-220.7,123.6-447.1,36.8-678.7
	C3780.1,2260.5,3773.1,2246.6,3762.6,2223z M510,2233.8c-10.2,21.6-17.6,35.2-23.2,49.6c-51.1,131.1-66.5,266.6-44.6,405.3
	c50,316,221.9,536.5,519.3,658c101.9,41.7,208.8,64.8,315.9,86.5c122.9,25,246.5,46.3,369,72.8c132.3,28.6,255.1,78.1,352.6,177.2
	c8.3,8.4,18.5,15.5,28.8,21.4c21.5,12.2,47.5,9.6,61.7-9.4c8-10.7,12.1-26.7,12.3-40.5c1.3-89.5,2.1-178.9,0.7-268.4
	c-0.3-20.6-6.7-42.3-15.2-61.3c-37.2-83.5-95.1-150.7-167.4-206.1c-87.9-67.4-185.9-116.4-290.7-149.4
	c-108-34-218.1-61.6-327.8-90.1c-141-36.7-280.7-75.2-408.4-149.2c-160.4-92.9-280.5-220-347.4-394.5
	C534,2305.1,523.9,2273.6,510,2233.8z M2313.7,1181.8c2.1,12.5,2.1,17.9,4,22.4c45.7,112.5,104.9,216.5,198.8,296.1
	c69.1,58.6,141.6,113.4,212.3,170.2c158.1,127.2,272.2,284.9,330.3,480.5c62.4,210.3,43.7,411.3-73.8,599.8
	c-3.8,6.1-6.2,13-12.6,26.8c12-6.2,16.7-7.9,20.6-10.7c69.6-50.7,121.2-116,155.3-194.7c39.1-90.3,46.5-185.6,41.9-282.5
	c-0.4-9.3-1.4-18.6-1.5-28c-0.1-16.6,6.4-28.5,24.4-30.8c17.9-2.3,27.3,8.1,32.6,23.2c2.2,6.2,3.2,13,3.8,19.6
	c14.5,162.6-16,313.4-116.8,445.9c-4.1,5.4-6.9,11.8-10.2,17.7c27.4-17.1,49.7-37.8,71.7-59c9.6-9.2,19.1-18.7,27.3-29.2
	c125.7-158.5,160.6-336.8,112.4-531.6c-40.4-163.3-131.4-296.2-253.5-409.2c-110.5-102.2-239.3-178.1-366.9-256
	c-130.8-79.8-265.3-154.6-379.9-258.5C2330,1190.7,2325.1,1188.7,2313.7,1181.8z M1952.7,1188.6c-2.3-1.2-4.7-2.5-7-3.7
	c-5,4-10.2,7.9-15,12.1c-85.2,73.4-177.1,137.3-273.2,195.5c-76.5,46.3-152.8,92.9-228.8,140.1c-98.9,61.4-193.5,128.7-275.7,211.7
	c-127.6,128.8-217.1,277.1-233.2,462c-17,195.6,41.6,363.2,187.3,497.8c5.3,4.9,11.9,8.2,18,12.2c1.1-10.3-1.2-17.6-5.5-23.2
	c-66.6-86.9-96.8-186.9-101.3-294.5c-1.8-43.6,5.4-87.6,8.7-131.4c0.4-5.2,1.8-10.6,3.8-15.5c7.1-17.9,20.4-25,37.7-21
	c17.5,4.1,24.6,14.7,20.4,36.6c-10.5,55.5-11.8,111.1-7.2,167.4c10.7,130.4,79.2,229.8,168,318.5c10.1,10.1,21.6,20.9,42.7,21.5
	c-83.6-119.6-120.4-249.4-119-388.8c1.7-172.8,55.7-330.3,150.9-473.9c75.4-113.8,173.7-205.6,279.7-290
	c45.9-36.6,92.3-72.7,137.3-110.4c95.6-79.9,158.7-182.7,204.6-297C1949.3,1206.4,1950.5,1197.3,1952.7,1188.6z"/>
</svg>
