<?xml version="1.0" encoding="utf-8"?>
<!-- Generator: Adobe Illustrator 24.3.0, SVG Export Plug-In . SVG Version: 6.00 Build 0)  -->
<svg version="1.1" id="Layer_1" xmlns="http://www.w3.org/2000/svg" xmlns:xlink="http://www.w3.org/1999/xlink" x="0px" y="0px"
	 viewBox="0 0 4000 4000" style="enable-background:new 0 0 4000 4000;" xml:space="preserve">
<path d="M3063.9,1279.6c47.8,13.1,90.5,24.6,133,36.6c138.4,39,271.7,90.1,395.8,163.7c63.4,37.6,122.1,80.8,168.8,139
	c47.6,59.4,74.4,125.6,70.5,202.8c-16.6,329.6-88.3,644.1-257.2,931.5c-129,219.5-300.8,397.7-518.9,530.4c-6.6,4-13,8.6-19.9,12.1
	c-16.7,8.4-23.2,20.4-22.3,40c2,43.2,0.4,86.7,1.8,129.9c0.7,22-7.5,38-23,52.6c-43.3,40.7-97.1,62-151,82.5
	c-95.9,36.4-195.9,56.9-296.8,73.3c-182.8,29.8-367,36.5-551.4,26c-189-10.7-375.9-36.4-553.8-105.8c-40-15.6-78-37.3-115.4-58.7
	c-33-18.8-50.7-47.4-48.4-88c2.1-37.6-1.2-75.5-0.2-113.3c0.5-19.1-6.5-29.6-23.2-39.3c-203.2-117.5-372.5-272-504.4-466.6
	c-110.8-163.3-188.8-341.4-239.7-532c-39.4-147.8-57.6-298.1-66-450.6c-6.3-113.6,34.6-203.2,117.3-277.4
	c75.3-67.5,161.4-117.8,253.5-157.8c162.6-70.6,331.8-120.1,506.6-149.2c112.7-18.8,225.8-36,339.3-49.3
	c221.1-25.9,443.2-32,665.4-20.2c129.7,6.9,259.1,19,388.6,29.2c26.5,2.1,53,5.7,79.4,9.1c27.8,3.5,29.1,3.7,39.8-22.5
	c43.1-105.9,86-211.9,128.4-318c63.4-158.7,126.1-317.8,189.5-476.5c22.9-57.3,60.4-101.3,121.6-119.2
	c136.2-39.8,217.5,70.3,204.7,177.4c-5.3,44-23.7,83.1-44.2,121.3c-114.7,213.2-229.8,426.2-344.6,639.3
	C3079.4,1246.8,3072.7,1261.9,3063.9,1279.6z M503.1,1971.3c0,12.2-0.8,18.8,0.1,25.2c8.7,59.3,15.3,119.1,27.1,177.8
	c78.2,388.3,261.7,714.1,574.8,962.5c129.1,102.4,271.5,180.8,426.3,235.9c138.5,49.3,281.7,78.2,428.5,91.3
	c180.4,16.1,359.5,7.7,537.4-23.5c194.3-34.1,376.2-101.1,544-206.8c230.2-145.1,406.2-339.3,532.7-578.9
	c109.1-206.7,168-428.9,198.1-659.5c0.7-5-0.7-10.3-1.4-20.2c-10.7,8.4-18.9,13.5-25.5,20.2c-80.2,81.1-176.9,137-280.2,182.3
	c-254.7,111.8-524,165.6-798.4,197c-98.1,11.2-196.9,16.3-295.4,22.4c-187.6,11.7-375.4,8.2-562.6-5.2c-127.2-9-254.1-25-380.3-43.3
	c-187.2-27.1-370.1-73-546.8-141.3c-110.3-42.6-214.8-96.3-307.2-171.1C551.2,2017.1,530.1,1996,503.1,1971.3z M3565.3,1910.8
	c-15.1-13.8-25-26-37.7-33.6c-38.9-23.5-77.6-48-118.6-67.3c-167.2-78.4-345.6-119.1-526-152.7c-17-3.2-27.5,2.7-34.5,18
	c-14.8,32.3-29.1,64.9-45.5,96.4c-6.9,13.3-16.2,29.1-28.6,35.1c-47.9,23.1-107,17.8-150.8-16.6c-13.3-10.5-19.6-23.6-12.4-41
	c12.3-29.7,24.1-59.6,35.8-89.6c4.3-10.9,7.7-22.2,11.7-33.9c-6.7-1.9-9.8-3.5-13-3.6c-140.8-8.3-281.4-20-422.3-23.9
	c-253.5-7-506.1,9.3-757.2,45.4c-167.3,24.1-331.7,61.1-491,118.4c-79.7,28.7-156.7,62.7-224.5,114.8c-11.9,9.2-22.5,20.2-36.2,32.6
	c14.9,13.7,25.7,26.5,39.1,35.5c35.9,24.1,71.7,48.9,109.6,69.4c122.2,66.2,254.7,104.2,389.4,133c108.4,23.2,218,42.2,327.9,56.2
	c114.4,14.6,229.7,25.5,344.9,29.8c283.4,10.7,566.3,3.6,847.5-38.4c151.7-22.6,301.6-53.4,447.6-101
	c100.6-32.8,198-72.8,285.1-134.2C3525.3,1945.8,3542.9,1929.3,3565.3,1910.8z M2798.9,1283.7c-36.8-3.9-67.6-6.1-98.1-10.7
	c-124.3-18.6-249.5-26.4-375-30.7c-235.6-8-470.7-1.5-705.2,25c-205.6,23.2-408.5,59.1-605.9,122.1
	c-138.1,44.1-270.9,99.6-387.3,188.5c-37.4,28.5-70.8,60.7-97,99.9c-50.1,75.1-51.5,151.5-4.6,228.5
	c28.8,47.3,68.7,84.1,112.9,116.4c89.5,65.5,189.5,111,292.5,150c164.7,62.4,335.8,100.9,509.2,128.4
	c171.2,27.2,343.7,41.2,517,48.3c265.9,11,530.7-0.5,794.2-36.5c150.7-20.6,299.9-50.4,446-93.1c144.3-42.1,283.5-97.1,410.6-179
	c47.7-30.8,92.3-66,126.3-112.3c65.8-89.5,64-178.6-3.9-266.3c-34.4-44.4-75.7-81.1-122.2-112.1
	c-138.4-92.3-292.5-148.1-451.1-193.5c-33-9.4-66.4-18.1-100-25.3c-8.1-1.7-21.2,1.2-26,7c-8.5,10.1-12.4,24.2-18.4,37
	c65.3,18.3,126.3,34.3,186.8,52.5c115.2,34.8,226,79.7,326.2,147.8c38.9,26.4,73.8,56.8,101.6,95.2c57,78.7,56.1,170.4-5.6,246
	c-20.9,25.6-45.1,49.4-71.1,69.7c-79.6,62-170.2,104.2-264.4,138.6c-182.4,66.6-372.2,102.4-563.7,128.4
	c-189.4,25.7-380,36-571.4,36.6c-183.6,0.6-366.3-11.5-548.5-30.8c-138-14.7-274.2-41.3-409.1-74.8
	c-130.9-32.5-258.4-73.8-377-138.9c-69.5-38.2-134.8-81.8-178.1-151.5c-45.4-73.1-43.9-144.6,4.1-215.3
	c23.9-35.2,54.1-64.5,88.2-89.9c103.1-76.8,220.8-122.8,342.1-160.3c164.8-51,333.8-81.7,504.8-102.8
	c196.5-24.2,393.6-37.7,591.4-35.7c184.4,1.9,368.3,14.4,551.5,36.3c20.6,2.5,41.5,2.7,63.7,4.1
	C2789.4,1314.8,2793.1,1302.6,2798.9,1283.7z M2755.5,1386.1c-18.2-2.4-33.5-4.2-48.6-6.5c-138.4-21.7-277.9-33.1-417.8-37.3
	c-267-8.1-532.8,7.1-797.2,45.8c-174,25.5-344.6,64.6-509.3,127c-80.3,30.4-156.9,67.8-225.6,120.1c-32.1,24.4-61.6,51.6-80.6,87.6
	c-24.4,46-24.5,92.2,2.8,140.5c10.4-6.9,18-11.2,24.7-16.6c53.2-42.7,111.6-76.2,174.2-103.3c177.7-77,365.8-115.7,555.4-146.8
	c210.7-34.5,423.6-47.5,637-50.8c195.7-3,390.8,7.3,585.6,24.8c17.8,1.6,29.8-0.8,36.9-18.9c19.6-49.5,40.3-98.6,60.3-148
	C2754.8,1399.8,2754.4,1395.2,2755.5,1386.1z M2663.3,1764.3c22.3,2.3,38.5,4.2,54.8,5.5c17.3,1.5,29.9-5.9,37.9-21.4
	c4.6-8.9,9.5-17.6,14.2-26.4c64.6-121.4,128.6-243.2,194-364.2c140.7-260.6,282.4-520.7,423.1-781.4c14.7-27.2,26.8-56,37.3-85.1
	c12.2-33.9,7.4-67.8-8.1-100.2c-18.3-37.9-48.7-57-90.5-55.7c-53.7,1.7-92.4,29-117.6,75c-13.8,25.2-25,52-35.7,78.7
	c-166.5,412.4-332.9,824.9-499,1237.5C2669.5,1736.6,2667.8,1747.4,2663.3,1764.3z M1327.5,3337.9c-0.4,38.9,0.4,72.8-1.3,106.7
	c-1.3,26.8,9.4,45.2,32.7,56.3c42.9,20.6,84.9,44.1,129.7,59.7c147.6,51.6,301.1,75.2,456.5,86.5c174.3,12.7,348.3,10.1,521.8-12.5
	c117.9-15.4,234.8-36.1,346.6-77.5c41.4-15.3,80.3-37.3,120.3-56.6c23.3-11.2,34.6-28.4,32.2-55.9c-2.4-26.4-0.5-53.3-1-79.9
	c-0.2-8.4-2.1-16.8-3.5-27.7c-257.5,133.7-531.2,185.1-815.4,184.9C1862,3521.8,1588.9,3467,1327.5,3337.9z M3598.8,1864.3
	c5.5-11.1,11.5-20.2,14.8-30.2c16.7-50.4-1.1-93.8-30-133.9c-33.1-45.8-77.9-78.6-126-106.8c-139.3-81.7-291.1-129.6-448-162.9
	c-26.1-5.5-30.1-3.1-42.1,20.2c-22.3,43.4-44.4,86.9-66.3,130.5c-3.8,7.6-6.1,15.8-9.8,25.7c9.7,2.9,16.7,5.9,24.1,7.1
	c142.4,23.8,281.7,59.5,417.2,109.7c86.6,32.2,170.4,69.6,243.1,128.2C3581.4,1856.6,3588.9,1859.1,3598.8,1864.3z"/>
<path d="M2147.6,1818.3c21-29.3,37.9-58.3,60-82.4c30.6-33.3,69.5-51.1,116.5-41.7c36.3,7.3,55.9,31,56.1,67.5
	c0.2,26.3-6.9,50.6-23.5,71.3c-13.1,16.3-27.5,31.6-42.7,49c7.2,13.4,15.8,27.5,22.5,42.3c29.9,65.6-6.1,120-77.6,118.6
	c-35-0.7-64.8-13.2-90.2-36.6c-8.8-8.1-17.4-16.5-28.5-27.1c-8.4,10.7-15,19.1-21.4,27.5c-32.6,42.4-77,58.5-128.6,55.2
	c-40.1-2.6-61-29.9-57.4-70.1c2.4-26.9,15.8-48.1,33.4-67.1c6.6-7.2,14.1-13.6,23.1-22.2c-11-9.5-21.2-17.6-30.6-26.4
	c-24-22.3-37.6-49-33.8-82.8c3.7-33.2,19.6-51.9,52.2-61c25.5-7.1,50.8-5.1,75,4.5c36.7,14.6,69.7,34.4,87.5,72.3
	C2141.4,1812.7,2145.1,1815.5,2147.6,1818.3z M2198,1873.3c-2,0.2-6.4,0.4-10.7,1.4c-29.7,7-39.4,29-21,53
	c13.9,18.2,30.3,35,47.7,50c16.5,14.3,37.6,18.5,59.2,13.4c18-4.3,23.8-13.1,22.4-31C2292.4,1916.9,2243.9,1872.7,2198,1873.3z
	 M2201.2,1815.7c22.1,8.5,39,13.8,54.9,21.3c13.7,6.5,27.2,6.9,37-3.5c14.9-15.9,28.7-33.2,39.9-51.8c6.7-11.2,7-26.5-5-36.7
	c-11-9.2-24.1-10.3-37.6-5C2252.8,1754.6,2227,1782.3,2201.2,1815.7z M2099.7,1865.2c-5.8-51.6-50.9-89.4-98.3-84
	c-20.6,2.4-28.1,12.8-22.5,31.2C1991,1851.6,2052.6,1890.9,2099.7,1865.2z M2095.4,1939.3c-45.2-17.8-98.8,5.9-109.2,46.6
	c-4.4,17.2,1.3,25.6,18.3,27C2041.7,2016.1,2088.3,1979.2,2095.4,1939.3z"/>
<path d="M1523.3,1823.2c54.2,2,107,9.6,156.5,31.1c24,10.4,48.3,23.7,67.5,41.3c47.6,43.6,39.3,112.2-17.8,142.5
	c-29.9,15.9-63.5,27.6-96.7,34.2c-82.2,16.2-163.8,7.6-243.2-18.3c-21.8-7.1-43.6-17.7-62.2-31.1c-49.7-35.8-53.2-94.2-10.2-138
	c27.7-28.2,63.5-40.9,100.6-48.4C1452.5,1829.5,1488.1,1827.5,1523.3,1823.2z M1527.6,1871.5c-31.8,4.1-64.3,5.5-95.1,13.3
	c-25.2,6.4-50.4,17.6-72.3,31.8c-33.2,21.4-31.6,49.9,1.3,70.8c10.2,6.5,21,13,32.4,16.7c92.7,29.9,186.2,40.2,280.3,6.7
	c14.3-5.1,28.4-12.9,40.3-22.3c15.8-12.5,18.5-28.1,6.4-43.9c-10.5-13.6-24.2-26.4-39.2-34.4
	C1634,1884.4,1582.2,1873.5,1527.6,1871.5z"/>
<path d="M2582.2,2103.5c-37.3,1.3-72.8-5-105.4-24c-25.3-14.7-43.8-35-43.8-65.7c0-32.3,19.2-55.1,46.8-66.9
	c75-32,149.6-27.7,219.2,15.1c43.5,26.8,40.3,89.9-5.3,115.7c-20.6,11.7-45.2,17.1-68.6,22.9
	C2611.4,2104,2596.5,2102.7,2582.2,2103.5z M2482.5,2023.8c10.8,6.9,22.4,17.8,36.1,22.4c43.1,14.4,87.3,13.6,131.1,1.8
	c7.3-2,14.7-5.4,20.9-9.7c12.6-8.9,14-19.6,3.9-31c-5.8-6.5-13-12.4-20.8-16.3c-46.1-23.4-93.4-24.4-141.4-5.5
	C2497,1991.5,2485.8,2001.2,2482.5,2023.8z"/>
<path d="M2999.1,1815.6c38.6,0.9,71.4,9.5,99.8,31.1c40.5,30.7,38.9,86.7-6.3,109.9c-61.4,31.5-126.3,34.4-188.5,1.8
	c-49.9-26.2-49.3-88.2-0.5-118.3C2933.7,1821.5,2967.7,1816.6,2999.1,1815.6z M2995.2,1933.2c19.3-4.1,39.2-6.5,57.8-12.9
	c9.2-3.2,20.7-12.5,22.6-21c3-13.3-9.4-21.6-21.6-25.4c-39.4-12.5-78.8-12.4-116.5,5.7c-7.5,3.6-16.6,14.5-16.2,21.4
	c0.5,7.6,10.1,18.2,17.9,20.8C2956.8,1927.7,2975.7,1929.5,2995.2,1933.2z"/>
<path d="M1551.8,1987.6c-29.3,0.1-51.1-16.4-52.1-39.6c-1-23.1,16.9-40.4,42.1-40.5c26.3-0.1,52.7,23.4,51.4,45.6
	C1592.1,1971.7,1573.1,1987.6,1551.8,1987.6z"/>
</svg>
