<?xml version="1.0" encoding="utf-8"?>
<!-- Generator: Adobe Illustrator 24.3.0, SVG Export Plug-In . SVG Version: 6.00 Build 0)  -->
<svg version="1.1" id="Layer_1" xmlns="http://www.w3.org/2000/svg" xmlns:xlink="http://www.w3.org/1999/xlink" x="0px" y="0px"
	 viewBox="0 0 4000 4000" style="enable-background:new 0 0 4000 4000;" xml:space="preserve">
<path d="M3596.2,1864.7c13,5,22.6,8.5,32,12.4c61.7,25.5,101.8,70.9,122.7,133.8c13.2,39.7,9.1,79-3.7,117.9
	c-5.4,16.6-11.1,33.1-17.1,49.4c-12.4,33.7-4.6,62.5,21.1,86.8c9.7,9.2,20.4,17.2,30.4,26c35.8,31.6,66.5,67,81.5,113.5
	c25.3,78.4,3.6,149.4-42.7,211.7c-25,33.7-39.8,65.4-40.4,107.8c-0.6,46.1-13.1,91.5-32.2,133.9c-48.1,106.6-133.6,164-247.2,178.9
	c-51.6,6.8-104.4,7.1-156.6,7.1c-619.8,0.2-1239.5-0.2-1859.3-0.4c-205.2-0.1-410.4,0.1-615.7-0.8c-38.9-0.2-78.4-1.4-116.4-8.3
	c-114-20.6-186.8-91.6-220-199.7c-13.3-43.3-32.1-78-61.9-112.3c-87-100.2-91.1-242.7-15.6-353.9c13.2-19.5,29-37.2,43.1-56.1
	c10.4-13.9,21.1-27.8,29.7-42.9c15.4-27,20-55.5,8.8-85.7c-10-26.9-20-53.9-28.1-81.4c-30.4-102.4,6-199,95.5-256.5
	c33.4-21.5,70.3-32.9,108.9-40.3c13.9-2.7,27.7-5.4,44.6-8.7c0-14-0.6-26.1,0.1-38.1c3.5-60.9,25.6-114,79.8-144.3
	c41.7-23.3,59.9-54.4,62-100.3c1-22.2,6.3-44.8,13.6-65.9c27.4-79.3,86-120.1,167.7-128.3c30.5-3,61.5,0.2,92.2-0.7
	c27.6-0.8,55.5-0.9,82.5-5.4c38.6-6.5,67.1-29.2,85.2-64.3c7.5-14.6,14.7-29.3,22.1-44c53.6-106.7,179.3-136.5,272.8-80.9
	c37.2,22.1,38.1,21.2,67.8-11.6c32.1-35.4,71.5-54.3,119.4-54.4c19.5,0,39,0.4,58.4,2.1c20.9,1.8,38.1-3.8,53.1-18.6
	c11.6-11.5,24.2-22.2,36.6-32.9c100.3-85.9,232.6-82.2,328.5,9.2c13.4,12.7,26.7,25.5,39.5,38.8c11.5,12,25.2,16.9,41.5,16.3
	c19.5-0.7,39-0.7,58.4-1.8c43.2-2.5,80.6,11.9,114.1,38c24.8,19.3,25.2,19.4,48.4-1.5c70-63.1,149-77.6,236.5-42.2
	c34.5,13.9,60.6,38.4,79,70.3c12.8,22.2,24.8,45,34.6,68.6c20.8,49.8,58.9,70.9,111,72c29.7,0.7,59.4,2.9,89.1,4.9
	c125.7,8.7,214.6,83.9,242.7,207.1c7,30.9,10.5,62.7,13.5,94.2c1.5,16.7,7.4,26.5,23.6,31.1c10.8,3,21.2,7.6,31.6,12
	c86.4,37.2,128.8,104.2,133.1,196.8C3596.7,1836,3596.2,1849.3,3596.2,1864.7z M582.3,2819.7c4,13.4,4.9,21.4,8.7,27.6
	c10.7,17.5,21.4,35.2,34.4,51c38.6,46.8,87.3,78.4,148.4,84.4c45.8,4.5,92.1,5.3,138.2,5.3c760.5,0.8,1520.9,1.4,2281.4,1.8
	c82.1,0,164.2-0.8,246.3-1.9c21.5-0.3,43-2.3,64.3-5.4c107.2-15.4,194.8-99,215.5-205.2c0.8-3.9-0.6-8.3-1.5-17.3
	c-8,9.7-12.2,15.2-16.9,20.4c-16.5,18.2-31.5,38.3-50.2,53.9c-35.2,29.2-76.7,14.3-86.3-30.4c-5.4-25-8.7-50.7-9.6-76.2
	c-3.7-103.9-17.9-206.4-38.3-308.1c-70.4-352.6-249.1-636.7-540.1-848.7c-208-151.5-442-236.6-697.2-262.4
	c-218.1-22-430.7,9.3-635,86.1c-265.4,99.8-487.2,259.9-653.5,492.9c-122.6,171.7-201.2,361.7-237.7,568.7
	c-16.2,91.8-24.6,184.9-37.5,277.3c-3.1,22.2-7,45-15.5,65.5c-16.7,40.4-43.8,50.2-84.7,34.4
	C606.5,2829.8,597.5,2825.9,582.3,2819.7z M638,2777.4c1.8-1.7,3.6-3.4,5.4-5c-100.8-77.7-136.9-181.1-115.3-301.8
	c21.7-121.7,93.2-204.8,216-241.6c-6.2-11.4-11.8-19.8-15.7-29c-9.1-21.6-20.1-43-25.4-65.6c-21.5-91.4-6.9-176.9,46.5-255.1
	c5.3-7.7,14.2-14.6,11.3-27.9c-55.1,6.4-105.2,22.3-148.1,56.2c-34.6,27.3-53.1,64.2-57.4,108.2c-3.3,34.6,4.6,67.1,15.9,99.3
	c8.1,23.2,16,46.5,22.1,70.3c9.1,35.1,4.9,69.7-12.8,101.2c-11.4,20.3-26.5,38.7-40.2,57.7c-16.8,23.2-36.8,44.6-50.3,69.5
	c-43.6,80.8-46.6,162.7,3.1,242.4c28.1,45,66.1,80.7,112.8,106.6C616.3,2768.6,627.4,2772.6,638,2777.4z M3354.8,1559.1
	c-2.8-49.3-18.6-93-43.9-133.3c-27-43-65.8-69.9-115.4-79.9c-22-4.4-44.6-6.1-67.1-7.9c-30.6-2.4-61.5-2.2-92-5.8
	c-60.4-7.2-104.9-37.9-131-93.9c-10.4-22.3-21-44.4-32.3-66.3c-11.1-21.5-28-37.4-48.9-49.7c-69.4-41-149.6-15.8-198.6,36
	c-3.5,3.7-6.5,8-8.6,12.6c-7.4,16.2-2.4,25.5,15.1,27.3c13.2,1.4,26.6,1.8,39.9,2.5c35.5,1.8,68.2,12.9,99.5,29.1
	c76.7,39.5,127.2,98.7,140.3,186.1c0.8,5.6,2.6,11.2,4.4,18.5c79.3-38.7,159.7-49.8,243.3-25.6
	C3244,1433.1,3310,1481.4,3354.8,1559.1z M2567.9,1196c-11.8-12.2-25-24.7-36.9-38.3c-16.7-18.9-37.4-28.3-62.1-29.2
	c-18.4-0.6-37-1.8-55.3,0c-52.9,5.4-96.5-11.6-133-49.9c-13.4-14.1-28-27.2-43.4-39.1c-62.7-48.8-137.5-51-202.5-5.3
	c-19.2,13.5-36.3,29.9-54,45.5c-28,24.6-59.4,39.6-97.8,36.9c-20.4-1.5-41-1.3-61.5-2.1c-29.7-1.1-54.1,11.5-74.3,31.6
	c-22.8,22.7-34.2,52.2-47.2,80.9c32.6,15.3,61.8,29,92.3,43.3c4.5-7,8.8-12.6,12-18.7c93.1-175.1,331.6-208,478.7-67.6
	c13.9,13.2,24.1,14.9,40.1,7.4c39.9-18.8,81.5-20.8,122.6-5.1c18.8,7.2,35.4,20.1,53.4,29.5c8.6,4.5,19.3,11.4,27.1,9.5
	C2541.3,1221.6,2557.9,1216.4,2567.9,1196z M3304,1805.3c56.2-81.5,20.8-225.9-71.9-299.9c-81-64.7-217.6-68.2-277.6-17.5
	c66.1,43.5,129.7,89.8,185.3,145.7C3195.1,1689.4,3248.3,1747,3304,1805.3z M3762.9,2601.4c10.5-10.7,17.1-15.4,21.1-21.8
	c18.2-28.9,30.7-60.2,35.1-94.2c5.5-43-6-81.8-34.8-113.8c-22.5-25.1-49-46.6-72-71.3c-38.5-41.5-52.5-89.2-31.8-144.3
	c6.1-16.3,11.7-32.8,17.1-49.3c18.6-57.8,3.5-107.6-38.8-148.7c-22.6-22-49.2-39.4-84.8-35.1c17.2,43.6,36.3,84,48.9,126.4
	c12.9,43.3,14.1,88.5,6.4,133.9c-7.6,45.1-24.8,85.9-50.8,126c58.3,25.1,104.3,61.4,135.8,114.1
	C3745.7,2475.7,3762.4,2533,3762.9,2601.4z M1033.1,1744.8c105.3-119.4,224.9-215.6,360.4-293.6c-62.1-49.1-189-42.1-268.3,17.4
	C1038.7,1533.5,998.9,1649.6,1033.1,1744.8z M971.6,1755.1c-29.1-179.4,42.8-301.5,204.6-380.3c-20.1-1.4-33.3-3-46.5-3.1
	c-12.3-0.1-24.6,0.8-36.8,2.1c-84.2,8.7-133.7,58.4-142.6,142.7c-1.6,15.3-3.6,30.5-5.6,45.8c-4.1,31.3-19.3,55.4-45.5,73.3
	c-17.7,12.1-35.5,24.7-51.1,39.3c-32.6,30.5-47.5,89-32.1,130.9C862.8,1777.5,911.5,1754.6,971.6,1755.1z M3535.3,2264.5
	c5.2-4.1,8.1-5.5,9.7-7.8c3.4-5.1,6.4-10.5,9-16c38.9-82.7,36.6-165.2-4.9-245.6c-36.3-70.2-95.3-110.9-173.6-122.9
	c-7.2-1.1-14.7-0.1-27-0.1C3435.1,1995.1,3487.4,2128,3535.3,2264.5z M737.9,2291.5c-88.7,23-159.4,127.9-161.5,231
	c-1.5,73.3,44.9,170.5,89.3,183.5C674.9,2566.8,698.7,2430.4,737.9,2291.5z M3615.3,2777.9c56.2-23.4,100.3-126.9,93-212.2
	c-7.9-92-71.6-181.2-147.2-199C3592.4,2503.2,3604.2,2640.1,3615.3,2777.9z M1300.4,1358.2c43.4,11.9,79.4,21.7,115.6,31.6
	c1.9-2.8,4.2-5,5.2-7.8c33.2-91.7,99.9-141.5,194.8-156.4c11.5-1.8,22.8-5.2,37.1-8.6c-6-9.9-8.8-18-14.4-23.2
	c-64-59.1-150.8-54.6-200.8,0c-12.3,13.4-23.3,28.8-31.8,44.9C1381.3,1286,1356.8,1333.1,1300.4,1358.2z M778.6,2167.3
	c12.3-27.8,22.7-52,33.7-76c11.1-24.2,22.1-48.5,34.2-72.2c12.5-24.6,25.6-49.1,39.7-72.9c13.6-22.9,28.5-45.1,43.4-67.2
	c14.4-21.4,29.6-42.3,44.4-63.4c-2.1-2-4.1-4-6.2-6c-86.4,8-147.5,55.1-191.1,128.9C739.2,2002.2,733.7,2114.6,778.6,2167.3z
	 M2263.9,1250.7c-37.3-65.6-145.1-108.9-227.5-95.7c-80.2,12.9-163.9,69.7-173.5,120.4C1994.6,1249,2126.7,1241,2263.9,1250.7z
	 M3371.5,1810.6c28.1,9.2,57.3,16.1,84,28.3c27.2,12.4,52.1,29.9,78.7,45.5c31.1-122.5-31.8-215-146.1-217.5
	C3382.6,1714.6,3377.1,1761.9,3371.5,1810.6z M2526.4,1294.7c61.7,22,117.1,40.2,171.3,61.5c53.5,21.1,105.9,45.3,162.5,69.7
	c-21.3-79.9-63.4-136.3-140.8-161C2652.1,1243.4,2589.4,1254,2526.4,1294.7z M1726.7,1305.5c-49.8-32.9-103-35.9-156.3-14.3
	c-49.2,19.9-82.8,56.1-100.1,115.5C1558.4,1368.5,1639.5,1331.2,1726.7,1305.5z M2331.6,1257.5c45.2,8.2,84.9,15.6,124.9,22.3
	c4,0.7,8.9-3.3,13.2-5.1C2453.9,1229.1,2377.6,1216.8,2331.6,1257.5z"/>
<path d="M2195.7,2709c-66.1-4.8-113.9-38-137.8-100.2c-13.1-34.1-21.9-70.6-27-106.8c-3.5-24.7-13.7-34.1-36.1-41
	c-46.8-14.4-82.6-44.9-106.7-87.7c-7.4-13.1-12.5-28.2-15.6-43c-4-19.4,3.8-30.8,20.5-35.9c14.6-4.5,23.5-0.1,29.6,22.6
	c12.6,47,43.5,76.5,86.8,92.7c53.5,20.1,108.7,18.6,163.1,2.2c19.5-5.9,38.7-14,56.4-24c23.8-13.4,42.4-32.3,46.9-61.3
	c0.9-6,2.9-12,5.2-17.7c5.4-13.4,15.5-18.5,29.6-15.5c15.3,3.2,25,13.5,21.8,28.2c-3.6,16.7-8,35.2-18,48.2
	c-19.1,24.6-17.9,46.8-6.2,73.9c18.9,43.5,30.9,88.8,27.1,137.4C2329,2657.1,2272.7,2709.7,2195.7,2709z M2079.6,2482.5
	c2.7,53.4,12.9,102.9,45.8,144.9c8,10.2,19.3,18.7,30.7,25.2c51.5,29.1,118.9-2.1,129.2-60.2c9.5-53.5-6.7-102.6-26.1-150.5
	c-3.7,0.2-4.8,0-5.7,0.4c-11.5,4.3-23.1,8.5-34.5,13c-26.1,10.2-26.2,10.5-17.9,38.5c5,16.7,10.7,33.2,14.6,50.2
	c4.5,19.8-0.6,32.3-13,36.8c-14.8,5.3-26.8-1.7-34.7-21.5c-4.1-10.4-8.3-21.4-9.5-32.4c-6.1-59.5-13.5-48.7-65.9-48.5
	C2089.8,2478.4,2086.9,2480.1,2079.6,2482.5z"/>
<path d="M1495.1,2228.5c1.3-71.1,60.5-128.4,131.4-126.9c65.7,1.4,123.5,61.7,121.4,126.7c-2.4,73.2-59.7,131.8-128.3,131
	C1552.1,2358.6,1493.9,2297.4,1495.1,2228.5z M1588.2,2161.9c-24.4-0.5-41.2,14.9-42,38.4c-0.7,22.1,13.3,36.7,35.2,36.5
	c23.8-0.2,39.4-14.3,40.5-36.4C1622.9,2178.5,1608.9,2162.4,1588.2,2161.9z"/>
<path d="M2571.9,2228.5c32.8,15.2,64.2,29.3,95.2,44.3c10,4.9,19.8,11.1,28.2,18.4c16.1,14,17.4,30,5.5,46.3c-11,15-23,16.2-43,4.4
	c-2.6-1.6-5.1-3.4-7.6-5.2c-49.9-37.4-105.5-58.1-168.3-58.6c-12.8-0.1-28.6,2.1-33.1-15.2c-4.6-17.4,0.6-32.7,16.2-42.9
	c22.2-14.7,43.6-31.2,67.4-42.7c36.8-17.8,75.2-32.4,113.2-47.7c7.3-3,16-4,24-3.7c15.6,0.6,23.7,11.3,27,25.2
	c3.1,13.1-3.9,22.1-15.3,26.9c-20.7,8.7-42.2,15.7-62.8,24.7C2602.4,2209.6,2583.8,2213.2,2571.9,2228.5z"/>
<path d="M2667.4,2545.5c-27.3,0.4-59.4-4.8-88.9-20.8c-54.8-29.7-56.8-86.2-3-118.1c45.2-26.8,95.1-30.4,145.4-19
	c21.6,4.9,43.9,12,62.7,23.3c42.4,25.6,42.8,73.8,3.3,104C2760.7,2534.8,2720.5,2545.6,2667.4,2545.5z M2579.8,2467.2
	c9.1,17.4,25.7,24.9,43.6,29.4c38.7,9.9,77,7.1,114.5-6.1c14.3-5,32.7-9.4,32.7-27.5c0-17.4-17.3-24.7-31.7-29.2
	c-43.1-13.3-86.5-14.7-128.7,4C2597.4,2443.7,2584.3,2450.5,2579.8,2467.2z"/>
<path d="M1566.7,2382.2c12.9,3.1,38.7,6.5,62.1,15.8c28.2,11.1,53.5,29.2,53.9,64c0.4,34.8-23.4,53.2-52.2,65.1
	c-57.7,23.8-115.8,22.8-173.5-0.6c-27.4-11.1-48.6-30.7-49.9-60.8c-1.4-32.1,20.7-52.5,48.4-65
	C1486.7,2386.6,1519.9,2381.1,1566.7,2382.2z M1645.3,2461.1c-7.5-14.9-21.2-22-35.6-26.9c-43-14.5-86.3-15.4-129.1,0.7
	c-14.2,5.3-31.8,11.8-31.5,29.3c0.3,17.4,18,24.3,32.3,28.5c42,12.4,84.6,13.8,126.5-1.2C1623.2,2486,1637.8,2478.5,1645.3,2461.1z"
	/>
<path d="M1482,2734.6c-0.1,16.1-13.2,29.6-28.8,29.9c-16.2,0.3-29.3-13.2-28.5-29.3c0.9-16.3,14.1-30.5,28.6-30.8
	C1467.4,2704,1482.1,2719.5,1482,2734.6z"/>
<path d="M2871.8,1806.2c16.7,0.1,29.9,12.6,29.8,28c-0.1,14.1-15.8,31.2-28.3,30.8c-15.9-0.6-29.1-13.8-29.4-29.4
	C2843.7,1818.7,2855.6,1806,2871.8,1806.2z"/>
<path d="M1116.8,2361.8c13.7,0.6,27,14.9,26.7,28.8c-0.3,14.9-15.1,30.2-29.2,30.2c-15.5,0.1-29.8-15-28.4-29.9
	C1087.1,2376.8,1103.6,2361.3,1116.8,2361.8z"/>
<path d="M3214.1,2609.8c16-0.1,30.7,13.3,30.4,27.7c-0.3,14.9-14.7,29-29.5,29c-15.7-0.1-26.9-10.9-27.4-26.4
	C3186.9,2621.9,3197.5,2609.8,3214.1,2609.8z"/>
<path d="M3005.8,2157.9c0.7,16.8-10.6,29.1-27.5,29.6c-14.8,0.5-26.2-10.4-27.6-26.2c-1.3-15.3,11.5-31,26-32.1
	C2991.4,2128.1,3005.1,2141.6,3005.8,2157.9z"/>
<path d="M1269,1970.2c-0.2-16.2,9.7-27.6,25-28.4c16.7-0.9,31.9,13.4,31.4,29.8c-0.4,13.2-13.9,26.4-27.9,27.1
	C1281.1,1999.4,1269.3,1987.6,1269,1970.2z"/>
<path d="M2487.7,1595.3c14.4,0.5,26.4,13.6,26.1,28.6c-0.3,16.5-12.9,27.9-30.3,27.4c-15.2-0.4-27.3-12.9-26.7-27.7
	C2457.4,1609,2472.8,1594.8,2487.7,1595.3z"/>
<path d="M2124.3,1822.9c15-0.2,30.5,14.2,30.5,28.2c0,14.8-13.7,28.7-29.1,29.4c-16.3,0.7-27.6-11.4-27.2-29.2
	C2098.9,1835.6,2110.3,1823,2124.3,1822.9z"/>
<path d="M1781.4,1642.6c-16,0.2-29.9-13.3-29.5-28.5c0.4-14.4,13.6-28,27.1-28c15.4,0.1,29.6,14.1,29.6,29.1
	C1808.6,1629.4,1795.7,1642.4,1781.4,1642.6z"/>
<path d="M2691.7,2849.9c-14.1-0.6-26-13.8-25.7-28.7c0.2-15.9,14-30.1,28.6-29.6c14.9,0.6,25.9,12.9,25.2,28.5
	C2719,2837.3,2706.6,2850.5,2691.7,2849.9z"/>
<path d="M948.3,2749.3c14.1,0.3,28.6,13.4,29,26.2c0.4,15.6-12.8,28.8-28.8,28.8c-16.2,0-26.8-10.9-26-26.6
	C923.2,2761.8,934.9,2749,948.3,2749.3z"/>
</svg>
