<?xml version="1.0" encoding="utf-8"?>
<!-- Generator: Adobe Illustrator 24.3.0, SVG Export Plug-In . SVG Version: 6.00 Build 0)  -->
<svg version="1.1" id="Layer_1" xmlns="http://www.w3.org/2000/svg" xmlns:xlink="http://www.w3.org/1999/xlink" x="0px" y="0px"
	 viewBox="0 0 4000 4000" style="enable-background:new 0 0 4000 4000;" xml:space="preserve">
<path d="M3115.5,2068.4c-3.3,307.4-6.4,614.8-9.9,922.2c-1.3,119.1-5.5,238.2-4.9,357.2c0.8,160.7-76,271-214.4,343.7
	c-76.6,40.3-158.8,64.3-243.2,81.5c-98.6,20.1-198,33.2-298.4,41.8c-100.3,8.5-200.5,17.2-301.2,13.5
	c-160.9-5.8-320.2-23.1-475.8-66.4c-85.9-23.9-167.4-58.2-239.3-112c-101.8-76.1-157.4-177.2-159.3-304.9
	c-3.6-248.3-5.1-496.6-8.4-745c-5.1-392.3-11.2-784.6-16.3-1176.9c-2.5-186.5-3.8-372.9-5.6-559.4c-0.5-48.2,2.9-96,13.5-143
	c26.5-116.6,99.8-192.6,208.4-237.2c6.8-2.8,13.8-5.4,20.9-7.2c15.6-4,21.5-13.9,23.4-29.8c11.5-96,85.7-167.9,194-159.3
	c33.8,2.7,53-4.7,70.2-35.5c62.2-111,197.8-108,276.6-49.1c24.7,18.4,24.6,18.2,51.5,0.5c48.4-32,101.4-43,158.5-32.6
	c35.6,6.5,66.7,22.9,89.6,51c14.3,17.5,30.2,25.8,52.2,23.5c1.8-0.2,3.8-0.2,5.5,0.3c25.5,7,43-3.6,60.5-22.3
	c64.9-69.4,213.6-86.6,283,32.4c7.4,12.8,14.5,25.8,21.7,38.6c13.7,24.1,15.3,24.8,41.5,20.6c11.8-1.9,23.7-3.9,35.6-5.4
	c76.2-9.6,141.5,25.2,174.9,94c7.6,15.7,14.1,32.2,18.9,48.9c3.9,13.4,10.3,22.2,22.6,29.2c110.1,63.2,168,159.9,170.6,285.5
	c2.9,140.2,0.2,280.6-1.7,420.9c-3.9,293.5-8.8,587.1-13.3,880.6C3116.8,2068.5,3116.2,2068.5,3115.5,2068.4z M1203.3,719.4
	c-3.2,12.6-6.6,21.3-7.5,30.3c-3.9,39.4-9.7,78.9-10.1,118.5c-0.8,70.1,2,140.3,3,210.4c3.9,271.4,8.1,542.7,11.4,814.1
	c5.8,473.5,11,947,16.5,1420.5c0.2,15.7,0.2,31.4,1.3,47.1c6.7,93,45.5,170.2,116.7,230.4c53.4,45.2,114.4,77.2,179.7,101.7
	c66.8,25,135.8,41,205.8,53.7c157.8,28.5,316.8,38.6,476.9,31.8c110.2-4.7,212.6-34.8,305.2-95.5
	c101.4-66.5,175.1-157.9,231.8-263.3c78.3-145.2,118.6-301.5,128.2-465.8c10.3-175.4-4.1-348.6-48-518.9
	c-66.9-258.9-187.6-490.5-359.4-694.9c-139.5-166-306-302.1-488.1-418.3c-142.3-90.8-289.1-174.5-432.8-263.1
	c-65.1-40.2-130.1-81.4-190.3-128.2c-64.1-49.9-115.2-112-133.4-195C1209.4,730.7,1206.7,726.8,1203.3,719.4z M3045,626.5
	c-1.4,0.4-2.9,0.9-4.3,1.3c-0.9,6.1-2.5,12.1-2.7,18.3c-1.8,60.3-27,110.9-67.5,153.6c-27.9,29.4-56.6,58.9-89.1,82.7
	c-70.7,51.7-143.2,101.1-216.7,148.9c-163.4,106.2-321.4,219.8-473.2,342c-9.1,7.3-17.2,15.9-27,25c7.6,6.7,13,11.5,18.5,16.1
	c36.3,29.9,73.1,59.3,108.9,89.8c199.8,170.6,351.1,377.9,461.3,615.4c60.8,131,104,268.2,130.4,410.5
	c35.8,193.3,42.8,386.6,6.9,580.7c-27,146-76.6,282.9-159.7,406.7c-59.3,88.3-129.4,165.7-222.5,219.9c-2.1,1.2-3.4,3.7-6.5,7.3
	c7.3,0,12.8,0.9,17.8-0.1c69.4-14.5,139.3-27.4,208.1-44.6c74-18.5,142.3-51.3,203.3-97.5c58.6-44.3,100.8-100.6,113-174.6
	c5.8-35.3,7.6-71.6,8.2-107.5c3.5-221.5,6-443.1,9-664.6c3.6-258.4,7.4-516.9,11.2-775.3c4.1-277.8,8.7-555.7,12.5-833.5
	c1.3-92.3,1-184.6,0.6-276.9c-0.2-38.2-9.6-75-23.4-110.5C3057.6,648.2,3050.8,637.5,3045,626.5z M2081.3,1312.5
	c-5.8,22.3,11.5,36,30,46.9c16.9,10,27.1-6.3,37.6-15.2c118.4-100.4,245.4-189.2,372.8-277.5c84.1-58.3,170.5-113.3,255.3-170.7
	c53.5-36.2,106.2-73.5,150.3-121.5c25.3-27.6,45.4-58.1,55.2-94.7c6.3-23.6,8.8-47.3,0.6-70.8c-7.8-22.5-19.2-28.4-42.4-24.1
	c-41.3,7.7-72.9,27.9-94.3,65.3c-14.1,24.7-31.4,47.7-48.5,70.6c-20.3,27.3-48.3,42.5-82.1,45.8c-22.9,2.3-45.9,3.5-68.9,5
	c-42.7,2.7-84.3,9-122.3,30.6c-48.5,27.6-81.8,68.1-102.3,119.6c-8.2,20.6-14.9,41.8-24.1,61.9c-22.9,50.4-58.8,86.6-114.3,100.1
	c-18.8,4.6-37.3,10.2-56,15.4c-42.5,11.8-75.8,36.4-102.1,71.7C2095.2,1211.8,2086.2,1259.3,2081.3,1312.5z M1679.7,1082.8
	c117.7,73.5,233.8,146,352,219.8c1.9-12,3.4-21.9,5-31.8c10.5-64.3,33.2-122.8,82-168.3c11.4-10.6,9.4-19.1,2.9-31.3
	c-29.9-55.8-77.1-91.1-134.5-113.4C1870.9,912.7,1737.7,967.8,1679.7,1082.8z M2609.3,449.5c37.2-1.3,70.4-5.7,102.9-2.6
	c32.4,3,60.3,21,87.2,39.7c28.3,19.6,39.3,52.1,59.4,79.9c11.7-6.7,22.5-10.6,30.1-18c5.8-5.7,11.6-16.4,10.2-23.5
	c-6.2-32.5-11.9-65.7-23.4-96.5c-18.5-49.6-60.4-73.2-113.7-69c-18.4,1.4-36.6,4.3-54.9,6.3c-34.9,3.8-61.1-9.2-78-40.4
	c-9.3-17-18.2-34.2-28.5-50.6c-26-41.8-64.3-59.1-112.9-53.7c-63.3,7-99.7,52.3-137.3,92.5c29,24.7,55.4,47,83.5,71
	c6.4-5.6,13.2-11.4,19.9-17.4c13-11.7,25-24.7,39.1-35.1c46.4-34.1,101.3-11.2,109.7,45.3c1.2,8.2,1.6,16.5,2.4,24.8
	C2606.4,418.7,2607.9,435,2609.3,449.5z M2131,918c16.4-10,32.2-21.1,49.2-29.5c14.3-7.1,22.3-17.4,28.5-31.7
	c11.1-25.2,21.9-51.1,37.2-73.7c22.4-33,35.6-68,39.5-107.4c5.7-56.7,0.2-110.6-35.9-157.5c-18.7-24.2-41.5-43.2-75.5-51.6
	c-3.9,14.9-7.8,27.9-10.6,41.1c-17.8,82.8-35.8,165.5-52.5,248.5c-3.2,15.8-2.2,33.1,0.1,49.2C2116.6,842.6,2124.1,879.4,2131,918z
	 M1450.9,529c5.8-0.6,9,0,11-1.2c38.6-24.3,80-41.8,124.8-50.7c10.5-2.1,14.5-9.6,18.1-18.7c5.3-13.6,10-28,18.3-39.8
	c29.3-41.6,70.3-57.7,120.5-50.1c12.2,1.9,24.2,4.3,33.3-6.6c28.1-33.8,65.2-46,107.8-47c7.3-0.2,17-4.4,21.1-10
	c11.2-15.3,20-32.4,30.2-49.5c-23.1-16.9-46.4-29.9-72.5-36.3c-53.2-13-118.1-4.1-153.5,62.5c-5.6,10.6-12.5,20.5-17.9,31.2
	c-9.9,19.6-25.6,27.9-47.1,27.2c-23-0.7-46.1-1.2-69.1-1c-29.8,0.2-56.6,9.8-77.5,31.3C1455.2,414.6,1447.9,469.5,1450.9,529z
	 M2077.5,940.5c0-10.1,0.4-19.9-0.1-29.6c-5.5-114.6-52.8-210.8-134.5-288.9c-167.4-160.1-441.2-136.3-570.6,57.7
	c-15.9,23.9-14.6,33,10.3,54.1c5.1-6.4,11.1-12.2,15-19.1c25-43.6,62.4-74.8,102.5-103.3c54.2-38.5,115.1-52.7,180.5-50
	c10.1,0.4,20.3,2.2,30,4.9c18.4,5.1,24.2,12.3,23.8,31.8c-0.5,25.8-2.1,51.6-4.3,77.3c-3.2,36.9-7.5,73.8-11.3,110.7
	c14.8-29,26.1-59,35.7-89.5c8.6-27.2,14.5-55.3,23-82.6c7-22.5,14.6-28,37-20.4c23.2,7.9,46.5,18.5,66.4,32.6
	c96.3,68.2,147,162.8,155.8,280C2038.5,930.1,2044.9,936.9,2077.5,940.5z M2682.3,718.8c0.4-2.5,0.9-4.9,1.3-7.4
	c-36-24.3-75.3-41.6-119.1-45.6c-122.7-11.2-248.3,62.8-298.7,174.9c-3.2,7.2-4.8,15-8.4,26.5c47-0.9,84.8,16.9,122.1,42.6
	c4.9-11.5,8.9-19.6,11.9-28c14.5-40.2,39.1-72.9,72.6-99.1c42.7-33.4,92.1-49.8,145.1-56.3C2633.4,723.4,2657.9,721.3,2682.3,718.8z
	 M2048.8,424.5c28.9-13.9,56.4-19.9,85.4-19.9c5.8,0,14.1-5.7,16.9-11c17.5-33.8,46-54.5,79.1-70.5c6.2-3,12.1-6.6,20.8-11.3
	c-12.1-18.4-21.2-35.6-33.5-50.1c-25.8-30.4-59-47-99.7-45.2c-71.8,3.1-122.2,41.1-159.5,99.6c-1.3,2.1-1.1,5.2-2,9.7
	C2000.1,344.5,2025.2,381.8,2048.8,424.5z M1939.8,557.9c5.1-5.9,7.6-7.6,8.5-10c12.5-31.2,29.4-59.2,55-81.8
	c4.1-3.6,6.3-14.1,4.1-19.2c-19.6-45.3-53-76.5-102.4-83.4c-43.2-6-82.7,4.9-107.4,45.9c-6.7,11.2-16.3,14-28.3,11.7
	c-8.1-1.5-16.2-3.4-24.5-4.5c-25.9-3.3-49.7,1.9-69.2,20.2c-7.8,7.3-16.2,15.1-12.1,30C1764.5,468.3,1859.1,490.5,1939.8,557.9z
	 M2740.1,701.7c6.4-4.4,12.1-6.5,15.1-10.6c18.6-25.2,37.7-50.1,54.1-76.8c4.8-7.8,4.1-21.9,0.7-31.2
	c-26.3-71.5-114.9-110.7-184.9-81.8c-6.3,2.6-13.9,11.4-14.2,17.6c-1.4,34.8-0.7,69.7-0.7,105.8
	C2658.4,641,2702.3,663.7,2740.1,701.7z M2260.2,915.7c-46.2,1.3-84.7,19.1-112,58.6c-15.1,21.9-14.9,30,0.6,52.4
	c6.3,9.1,12.7,18.1,18.9,27.2c5.2,7.8,11.4,11,21.1,7.6c33.1-11.4,66.5-21.6,99.4-33.4c24.2-8.7,43.3-24.2,55.1-47.7
	c8.7-17.4,7-26.1-7.7-38.7C2314.3,923.4,2288.2,918.3,2260.2,915.7z M1539.3,1002.3c2.2-1.1,4.4-2.2,6.5-3.2
	c-1.3-44.8,2.1-89.8-9.7-134.1c-7.5-28.3-26.3-45-54.5-47.6c-19.8-1.9-40.2,1.3-60.3,3.4c-14.2,1.5-20.4,10.9-19.9,25.1
	c0.5,14.7,1.3,29.5,0.5,44.2c-1,19,7.8,30.9,23.5,40.3c28.4,17.1,56.1,35.3,84.2,53.1C1519.4,989.7,1529.3,996,1539.3,1002.3z
	 M2072.4,709.7c3.6-7.8,5.3-10.1,5.8-12.7c15.9-73.9,31.8-147.8,47.2-221.7c1.2-5.5-0.9-11.7-1.5-17.4c-59.1,0.8-124,73.9-137,124.6
	c-1.6,6.3,2.4,16.8,7.3,21.6C2024.9,633.7,2051.8,666,2072.4,709.7z M2313.3,525.3c18.4-19.1,36.1-36.4,52.6-54.8
	c37.4-41.8,36.8-47.4-4.9-85.3c-45.6-41.5-130.3-28.7-162.1,24.7c-0.8,1.4-0.2,3.5-0.3,5.2c20.9,14.6,44,27.1,62.2,44.5
	C2279.7,477.7,2294,500.6,2313.3,525.3z M1762,933.4c-37.2-48-100.4-62.1-149.3-36.9c-9.8,5-13,11.7-12.5,22
	c0.8,18.4,1.1,36.8,1.3,55.3c0.3,17.5,0.4,35,0.4,52.5c0,16.7,11.4,24.6,24.3,30.2c14.4,6.3,18.9-6.8,25.5-15c2.3-2.9,4.2-6,6.2-9.1
	c21.6-32.6,47.3-61.1,81.2-81.6C1746.8,946.1,1753.5,939.9,1762,933.4z M1677.1,834.6c-14.6-78.8,10.7-150.6,5.6-222.7
	c-47.5-3.8-111.3,12.9-139.5,36.2c39.8,58.3,79.7,116.8,119.7,175.1C1665.2,826.5,1669.4,828.5,1677.1,834.6z M1777.9,879.4
	c12.3,12,19.6,31.3,42.1,24c43.9-14.4,89.3-11.7,134.4-11.5c9.7,0,19.4,0,28.9,0c1.6-28.8-12.6-81.8-30.1-114.3
	c-3.1-5.8-9-10.2-12.6-14.2C1885,803,1832,840.9,1777.9,879.4z M2452.5,454.7c-8.9,7.9-15.9,13.2-21.8,19.5
	c-18.9,20.1-37.3,40.9-56.3,61c-13.9,14.7-34.5,26.6-40.9,43.9c-6.8,18.3-0.2,41.5,0.5,62.5c0.4,11.3,0.8,22.6,1.2,34.7
	c32.2-14.4,60.5-27.3,89.1-39.8c10.1-4.4,11.6-12.4,12.9-22.2c4.3-32.9,10.3-65.5,14.4-98.4C2453.9,497.3,2460,478.4,2452.5,454.7z
	 M2556.8,615.9c1.5-6.1,2.7-8.7,2.7-11.4c-0.8-68-1.7-136.1-2.9-204.1c-0.1-6.4-1.6-12.7-2.9-19c-2.4-11.9-10.1-13.9-20.7-11.2
	c-19.6,5.1-31.2,18.5-30.2,40.3c2.9,61.1-6.4,121-14.9,181.1c-1.2,8.6-0.2,17.6-0.2,28.6C2512.4,618.8,2534.1,617.4,2556.8,615.9z
	 M1500.6,675.6c-34,20.8-68.2,65.3-74.1,93.5c1.8,0.4,3.6,1.3,5.4,1.2c62.5-2,116.8,12.7,151.9,70.6c7.8,12.9,11.7,11.3,29.5-5.7
	C1576.2,782.7,1538.8,729.7,1500.6,675.6z M1819.6,646.6c-19.7,58.2-29.6,116.3-45.8,173.4c43.8-34.4,92.5-60.7,132.8-101
	C1884.7,686,1857.5,663.4,1819.6,646.6z M1344.1,858.4c4-39.5,4.8-77.9-15.3-112.9c-13.7-23.7-37.2-33.1-67.6-27.6
	C1269.5,776,1298.9,821.3,1344.1,858.4z M1410.6,557.7c-47.9-0.7-117.2,51.8-131.3,93.8c29.9,21.6,35.8,20.3,58.1-7.3
	c16.1-19.9,34.1-38.3,50.9-57.7C1395.1,578.6,1401.1,569.9,1410.6,557.7z M1707.4,821.6c-0.9,5.9-3.3,12.6-1.9,13.5
	c13,8.4,26.6,15.7,45.8,16.6C1736,841.2,1723.5,832.7,1707.4,821.6z"/>
<path d="M2123.5,2266.3c-0.7,16-13.3,27.9-28.8,26.8c-13.6-0.9-23.7-12.2-23.2-25.8c0.6-15.1,14.6-28.5,28.9-27.4
	C2113,2240.8,2124,2253.4,2123.5,2266.3z"/>
<path d="M1431,3165.2c-0.2-14.7,11.9-27.5,25.5-27.2c14.1,0.3,27.5,13.4,27,26.2c-0.5,12.8-12.5,25.3-24.5,25.5
	C1443.7,3190,1431.2,3179.1,1431,3165.2z"/>
<path d="M1384,2363.6c15.2-0.3,26.4,10.6,26,25.5c-0.4,14.4-12.7,26.7-26.3,26.1c-12-0.5-25.5-15.6-25.3-28.2
	C1358.6,2374.4,1370.1,2363.9,1384,2363.6z"/>
<path d="M1908.1,2024.2c-15-0.4-25-9.8-24.6-23.3c0.4-14.7,12.1-27,25.5-27.1c13.8,0,27.6,13.2,26.6,25.7
	C1934.6,2013.5,1922.2,2024.6,1908.1,2024.2z"/>
<path d="M1426.2,1243.2c-13.9-0.4-23.6-10.9-23.2-25c0.4-14.8,12.5-26.7,26.3-25.8c14.3,0.9,25.2,13.2,24.7,27.6
	C1453.5,1235,1443.1,1243.7,1426.2,1243.2z"/>
<path d="M2365.7,3071.9c0.3,14-9.2,24.4-23.1,25.4c-15.2,1-27.6-9.7-27.5-23.8c0.1-13.1,11-25.3,23.2-25.9
	C2353.1,3046.7,2365.4,3057.7,2365.7,3071.9z"/>
<path d="M1732.9,3434.8c-14.4,0.6-25.7-9.1-25.8-22.2c-0.1-14.9,11.1-28.2,23.9-28.6c13.3-0.3,25.4,10.4,25.8,23
	C1757.3,3421.9,1746.7,3434.2,1732.9,3434.8z"/>
<path d="M1458,1759.2c11.8-0.8,25.3,11.7,25.6,23.6c0.4,13.9-11.9,27.4-24.9,27.7c-11.6,0.2-22.5-9.9-23.9-22
	C1433.4,1775.2,1445.4,1760,1458,1759.2z"/>
<path d="M2366.5,3378.9c0.4,14.6-11,25.9-25.7,25.7c-12.1-0.2-21.6-9.7-22.5-22.6c-0.9-14.3,11-28.5,23.5-28.2
	C2353.4,3354.1,2366.2,3367.2,2366.5,3378.9z"/>
<path d="M1711.9,1533.8c-0.4,13.4-12.1,23.8-25.8,22.9c-13.4-0.9-23.6-12.6-22.8-26.1c0.9-13.7,10-23.2,22.4-23.2
	C1699.6,1507.3,1712.3,1520.1,1711.9,1533.8z"/>
<path d="M2437.9,2170.5c14.6-0.1,25.7,9.4,26.1,22.5c0.4,13.9-9.5,24.5-23.4,25c-14.6,0.5-26.1-9.3-26-22.2
	C2414.6,2182.2,2425.4,2170.5,2437.9,2170.5z"/>
<path d="M2831.2,1371.1c0.8,15-11.6,28.2-26.6,28.5c-12.4,0.3-23.4-11.3-23.8-24.9c-0.3-14,11.7-27.2,25-27.3
	C2818.8,1347.3,2830.5,1358.2,2831.2,1371.1z"/>
<path d="M2717.8,1762.3c-13.7,0.5-26.6-11.5-26.9-25.1c-0.2-12.4,11.2-23.6,24.7-24.3c13.9-0.7,25.5,9,26.3,22.1
	C2742.9,1749.6,2732.1,1761.8,2717.8,1762.3z"/>
<path d="M2940.9,3391.3c-14.6,0.6-26.5-10.2-27.4-24.9c-0.8-13,9.9-24,24.2-24.8c14.8-0.8,25.9,8.2,26.6,21.8
	C2965.2,3379.3,2955.7,3390.7,2940.9,3391.3z"/>
<path d="M2556.7,1440.9c-13-0.2-24.7-12-24.9-24.9c-0.1-13.5,13.4-26.2,27.2-25.7c12.8,0.5,22,10,22.4,23.2
	C2581.8,1428.9,2570.8,1441.1,2556.7,1440.9z"/>
<path d="M2914.2,1979.9c0.2,12.6-11.4,24.3-24.5,24.9c-13.5,0.6-26.2-12.4-25.9-26.4c0.2-12.7,9.6-22.1,22.6-22.6
	C2901.1,1955,2914,1966.3,2914.2,1979.9z"/>
</svg>
