<?xml version="1.0" encoding="utf-8"?>
<!-- Generator: Adobe Illustrator 24.3.0, SVG Export Plug-In . SVG Version: 6.00 Build 0)  -->
<svg version="1.1" id="Layer_1" xmlns="http://www.w3.org/2000/svg" xmlns:xlink="http://www.w3.org/1999/xlink" x="0px" y="0px"
	 viewBox="0 0 4000 4000" style="enable-background:new 0 0 4000 4000;" xml:space="preserve">
<path d="M2153.4,706.3c114.7,4.9,253.3,8.2,391.4,17.4c175.9,11.7,351.2,32,523.9,68.9c159.2,34,316.5,74.6,464.6,144.6
	c62.9,29.7,122.3,64.7,175.6,109.9c63.1,53.5,104.4,118.4,104.8,202.9c0.5,102.8,0.4,205.8-4.3,308.4
	c-5.5,118.7-24.1,235.9-53.7,351.1c-60.6,235.6-169.6,446.1-326.3,632.5c-100.7,119.8-216.1,222.9-345.1,310.9
	c-13.1,8.9-17,18.3-16.4,33.7c1.7,41.9,0.9,84,2.1,125.9c1.6,55.2-23.4,93.8-70.8,120.4c-63.9,35.9-132.9,57.1-203.6,73.1
	c-264.9,59.7-533.1,77.5-803.9,64.5c-130.1-6.2-259.6-18.1-388-39.7c-89.1-15-177.5-33.7-261.4-67.9c-31.6-12.9-61.8-31-89.8-50.8
	c-29.6-20.9-44.9-51.9-44.8-89.4c0.2-46.2-0.9-92.4,0.5-138.5c0.5-18-5.2-28.5-20.2-38.5c-344.7-232.2-568.2-550.5-673.3-952
	c-42.3-161.5-54-326.8-55.5-493.1c-0.5-52.5,0.8-105,0.7-157.5c-0.1-48.2,16.7-90.3,44.4-128.7c37.5-52,87.1-90.5,140.9-124
	c89.7-55.8,186.9-95.1,287.2-126.6c154.4-48.4,311.6-85.4,472.1-106.8c141.5-18.9,283.2-35.6,426-40.7
	C1930.1,712.7,2029.8,710,2153.4,706.3z M516.4,1405.3c0,23.4-1.1,41.2,0.2,58.8c5.9,80.6,10.4,161.3,19.4,241.5
	c15.3,136.4,50.7,267.9,105,394c119.9,278.8,305.4,504.6,551.7,681.1c88.5,63.4,183.2,114.4,288,145.4
	c134.5,39.8,272.7,59.8,412,69.7c255.3,18.2,509.8,10.9,762.1-36.6c109.8-20.7,216-52.6,315.1-105.4
	c66.9-35.6,128.1-80.1,187.2-127.3c212.6-169.5,374.2-377.8,479.1-629.5c89.5-214.7,121.8-439.6,120.8-670.6c0-4.7-2.2-9.4-3.3-13.6
	c-4.4,0.3-6.8-0.2-8.3,0.8c-4.3,2.9-8.7,6-12.3,9.7c-50.6,51.8-111.7,88.2-175.5,120.8c-140.3,71.7-290.1,115.7-443.1,149.2
	c-227,49.7-457.3,76.3-689.3,87c-279.3,12.9-558.1,7.7-836.5-22.6c-160.8-17.5-320.4-41.6-478.1-77.3
	c-131.3-29.6-259.7-68.7-380.7-128.6c-72.5-35.9-143.6-74.7-197.9-137.2C529.5,1412,525.3,1410.7,516.4,1405.3z M2194,763
	c-220.3,3.6-378.6,6.3-536.6,22.2c-188,18.9-375,42-558.4,89.7c-145.6,37.9-288,83.5-418,161.8c-48.1,29-92.1,62.5-127.6,106.1
	c-47.6,58.6-52.2,122.7-13.5,186.9c10.7,17.8,23.2,35.6,38.4,49.4c29.4,26.7,59.8,53,92.7,75c76.5,51,162.4,82.7,248.4,113.4
	c115,41,234.1,65.9,353.7,88.1c205.6,38.1,413.3,59,622,68.7c165.7,7.7,331.6,6.6,497.4-0.4c81.7-3.4,163.5-9,244.9-17.2
	c81.3-8.1,162.3-20.4,243.4-31.2c157.4-20.9,311.8-54.4,462.3-105.7c96.6-33,190.1-72.7,275.8-128.8
	c42.3-27.7,82.1-58.5,110.8-101.2c40.8-60.5,41.2-121.3,1.5-182.5c-22.6-34.9-51.8-63.2-85.4-87.3
	c-95.7-68.7-202.8-113.6-313.8-150.4c-246.7-81.8-502.4-116.1-759.8-138C2426.2,769.2,2279.1,767,2194,763z M3011,2900.5
	c-9.1,3.4-14.2,4.4-18.4,6.9c-57.8,35.6-121.5,57.1-185.9,75.8c-156.9,45.6-318.1,66.3-480.6,75.8c-239.7,14-478.2,3.8-714.4-42.6
	c-112.6-22.1-222.4-52.7-324.3-107.2c-5.9-3.2-12.9-4.2-22-7.2c-5.8,41.3-3.9,79.8-1.6,118.3c1.4,24.1,13.1,41.3,32.6,54.4
	c37,24.7,77.2,42.2,119.7,54.6c166,48.5,336.6,70,508.5,81.2c201.5,13.1,402.7,6.8,603.2-17.8c110.5-13.5,220.4-30.5,326.7-63.8
	c44.6-14,86.8-36.2,129.4-56c14.4-6.7,26.6-18.5,26.8-36.2C3011.4,2992.8,3011,2948.9,3011,2900.5z"/>
<path d="M1861,2330c12.2-1,20.5-2.1,28.8-2.2c159.3-1.1,318.6-2.1,477.9-3c7.3,0,14.6,0.6,22,1.1c12.3,0.8,19.5,7.9,20.4,19.8
	c8.8,111.1-2.2,217.9-88.5,299.2c-80.9,76.2-179.7,88.9-281.6,54.6c-101.6-34.2-154.8-114-174.5-216.6
	C1856,2433.6,1856.3,2383.3,1861,2330z M1936.8,2536.1c41-29.4,80.2-56.7,128.1-68.5c48-11.8,95-12.1,142.7,0.6
	c47.7,12.7,84.5,43.3,123,78.2c26.8-55.8,29.1-110.1,32.9-165.9c-10.2-1.5-16.3-3.1-22.3-3.1c-132-0.3-264-0.6-396-0.5
	c-11.1,0-22.1,2.2-35.4,3.7C1912.7,2434.3,1911.6,2485.3,1936.8,2536.1z M1970.2,2587.2c71.7,97.7,249,101.6,322.3,8.9
	C2244.1,2489.4,2061.7,2483.5,1970.2,2587.2z"/>
<path d="M2695.9,2436.8c-92.5-0.9-165.1-73.3-164-163.4c1.2-92.8,72.7-164.7,163.4-164.4c95.5,0.3,165.5,70.2,164.9,164.7
	C2859.6,2365.3,2786.7,2437.7,2695.9,2436.8z M2796.2,2234.7c0.6-30.1-21.8-55.7-48.5-55.3c-29.3,0.4-52.8,22.6-53.8,50.9
	c-1.1,30.7,16.6,50.2,46.7,51.5C2772.3,2283.2,2795.6,2263.4,2796.2,2234.7z"/>
<path d="M1569.6,2436c-84.2-0.8-158.4-75.7-156.6-160.9c1.9-89.9,62-163.1,162.6-163.1c88.5-0.1,161.8,75.1,160.4,163.6
	C1734.5,2367.7,1662.7,2436.9,1569.6,2436z M1526.7,2281.2c31.2,0.6,49.5-16.3,50.5-46.7c1-30.7-17.4-52.9-44.5-53.7
	c-30.7-1-55.8,24-55.7,55.3C1477.2,2262,1497.7,2280.7,1526.7,2281.2z"/>
<path d="M2107.4,1624.8c-198.1-0.1-376.4-8.1-554-27.1c-182.8-19.5-363.9-49.6-540.9-100.3c-83-23.8-163.3-54.5-236.5-101.3
	c-32.9-21.1-62.8-45.7-85.9-77.7c-41.9-57.8-40.6-115,4.1-170.2c28.8-35.6,64.9-62.4,104.4-84.9c85.4-48.7,177.4-80.8,271.8-106.6
	c180.7-49.4,365.4-76.1,551.3-95.6c218.6-22.9,437.9-27.5,657.4-23.4c175.3,3.3,350,16.5,523.9,41c144.6,20.4,288.3,43.8,428.8,84
	c89.9,25.8,178.3,55.8,258.5,105.7c40.3,25.1,77.9,52.8,102.9,95.2c28.5,48.2,30.4,96.1-0.6,142.3c-15.5,23.1-35,45-56.7,62.3
	c-75.1,59.8-163.2,94.6-254,121.6c-158.2,47-320.2,76.7-483.8,97.1C2562.1,1616.5,2325.3,1627.6,2107.4,1624.8z M3500.1,1331
	c-12.6-10.8-19.6-18.4-28-23.6c-19.5-12.3-39.4-24-59.7-34.9c-103.5-55.7-215.5-87.9-328.9-114.6c-217.2-51-438.3-75.6-660.7-85.9
	c-264.4-12.2-528.7-9.8-792.5,16.4c-162,16.1-322.4,40.6-480.1,82.1c-92.5,24.3-183.7,52.2-269.8,94.3
	c-34.6,16.9-69.1,34.5-99.1,61.2c10.9,21.3,31.3,28.7,49.3,38.3c83.9,44.7,173.7,73.5,265.5,96.4c228.8,57.2,461.5,88.1,696.8,98.9
	c295.9,13.7,591.7,12,886.9-16.6c136.9-13.3,272.7-33.4,406.9-63.7c120.9-27.3,240.8-57.6,351.9-114.7
	C3457.1,1355,3475.1,1344.6,3500.1,1331z M733,1280.2c12.3-6.4,22.9-10.9,32.4-17c80.7-52.6,168.3-89.7,259.8-118.5
	c161.7-50.9,327.5-80.8,495.5-101.8c191-23.8,382.7-33.6,574.9-34.6c199.5-1,398.7,4.7,597.3,28.5c179.4,21.5,357.8,46.9,531.2,99.8
	c102.8,31.4,202.5,69.3,291.2,131.8c2.6,1.8,5.1,3.7,7.9,5.2c18.4,9.4,26,5.4,31.1-15.1c9.6-38.5-7.6-67.6-33.1-93.2
	c-29.9-30.1-65.8-51.8-103.7-70.4c-87.1-42.8-178.8-72.7-272.9-95.1c-298.6-71-602-101-908.2-105c-255.3-3.4-509.9,7.4-763.3,41.8
	c-148.9,20.2-295.8,49.8-440.2,91c-87.1,24.8-170.2,60-245.3,111.8c-23.6,16.3-44.7,34.9-58.9,60.3
	C714,1225.4,712.9,1250.9,733,1280.2z"/>
<path d="M1809.6,1302.7c-1.8,27.1-28.9,40.7-47.5,27.9c-8.5-5.8-15-14.5-22.4-21.9c-37.6-37.9-74.1-77-113.1-113.3
	c-25.4-23.6-29.1-22.7-55.7,0.1c-46.2,39.4-91.5,80-137.1,120.1c-6.3,5.5-12,11.8-18.6,16.8c-11.6,8.8-22.7,8.8-33.5-2.4
	c-12.4-12.9-14.1-22.7-4.5-36c3-4.2,6.9-7.9,10.8-11.3c50.8-45.3,100.8-91.6,152.9-135.4c55.4-46.6,78.1-44.4,128.2,6.3
	c41.2,41.8,82.7,83.2,123.6,125.3C1800.3,1286.8,1805.5,1296.9,1809.6,1302.7z"/>
<path d="M2804.9,1288c-7.1,9.1-12,18.6-19.7,24.6c-9.4,7.4-21.7,9.1-32.3,1.4c-6.7-4.9-11.7-11.9-17.8-17.7
	c-40.7-39.4-81.1-79.1-122.4-117.8c-20.5-19.2-26.3-20.7-49.4-3.5c-45.4,33.7-88.9,70-133.1,105.2c-8.2,6.5-15.7,14.3-24.7,19.3
	c-12,6.6-24.3,5.5-34.1-5.8c-9.8-11.2-10.2-22.9-0.6-34.1c7.5-8.7,15.4-17.3,24.2-24.6c44.6-36.6,89.4-72.9,134.6-108.8
	c9.8-7.8,20.9-14,32.1-19.7c21.4-10.8,42.4-9.9,62.1,4.8c6.7,5,14.2,9.3,20.2,15c47.8,45.7,95.4,91.5,142.7,137.6
	C2793.1,1270.3,2797.9,1278.6,2804.9,1288z"/>
<path d="M2218.6,1298.2c14.5,7.2,29.2,11.5,39.9,20.6c33.6,28.5,65.8,58.6,98.1,88.5c9.5,8.8,16.5,19.5,10.8,33.6
	c-8.1,20-28.5,26-46.2,11.8c-15.5-12.4-28.9-27.3-43.7-40.6c-11.7-10.5-23.8-20.6-36.2-30.3c-20.8-16.1-26.7-16.7-47.1-1.2
	c-28.3,21.6-55.7,44.6-83.6,66.8c-7.4,5.9-14.6,12.1-22.7,16.8c-12.1,7.1-23.9,6.9-33.8-4.9c-9.5-11.4-10.5-25.6-1.9-37.5
	c2.4-3.4,5.6-6.3,8.8-8.9c41.1-32.6,82-65.4,123.7-97.2C2194.2,1308.2,2206.4,1304.3,2218.6,1298.2z"/>
<path d="M1203.8,1238.9c5.7,1.9,14.8,2.7,21.2,7.3c24.4,17.7,49.2,35.1,71.3,55.4c17.2,15.9,16.2,27.2,3.3,40.3
	c-12.5,12.7-24.1,13.2-41.7,0.2c-9.2-6.8-17.1-15.3-25.9-22.7c-23.3-19.9-33.6-20.3-57.7-1.6c-10.7,8.3-20,18.4-31,26.3
	c-12.8,9.1-26.3,7.1-36.8-3.1c-10.4-10.1-8.3-22.1-1.6-31.5c21.7-30.2,51.4-51.4,84-68.6C1192.3,1239.1,1197.1,1239.7,1203.8,1238.9
	z"/>
<path d="M3077.4,1261c6.7,2,15.8,2.7,22.4,7c22.6,14.9,45.3,29.8,66,47.2c16.5,13.8,16.2,28.9,3.7,43.8
	c-12.4,14.8-24.9,15.3-43.5,0.6c-9-7.1-16.6-15.9-25.3-23.4c-16.2-13.9-23.8-15-42-3.2c-15.7,10.2-29.8,22.9-45.6,33
	c-15.7,10.1-26.2,8.4-36.2-3.1c-8.6-9.8-11.1-21.2-2.3-31.3c25-28.5,53.8-52.3,89-67.5C3067.4,1262.6,3071.7,1262.3,3077.4,1261z"/>
<path d="M2064.6,1108.4c6.2,1.9,14.1,2.5,20,6.3c24.5,15.9,49.4,31.6,72.3,49.6c14.9,11.7,15.1,23.1,6.1,35.5
	c-9.9,13.6-22.7,17.4-38.5,9.1c-11-5.8-20.9-13.9-31-21.3c-23.7-17.3-31.8-17.5-56.3-0.3c-12.8,9-24.7,19.6-38.4,27.1
	c-15.3,8.4-28,3.8-37.9-10.4c-6-8.6-8.4-18.1-0.5-25.8c27.2-26.2,55.2-51.6,90.8-66.2C2055.2,1110.4,2059.4,1109.8,2064.6,1108.4z"
	/>
</svg>
