<?xml version="1.0" encoding="utf-8"?>
<!-- Generator: Adobe Illustrator 24.3.0, SVG Export Plug-In . SVG Version: 6.00 Build 0)  -->
<svg version="1.1" id="Layer_1" xmlns="http://www.w3.org/2000/svg" xmlns:xlink="http://www.w3.org/1999/xlink" x="0px" y="0px"
	 viewBox="0 0 4000 4000" style="enable-background:new 0 0 4000 4000;" xml:space="preserve">
<path d="M1821,280c7.4-21.8,14-41.2,20.4-60.6c20.2-61,89.3-83.3,139.8-67.7c23,7.1,41.5,20.7,55.4,40.1
	c12.4,17.2,25.2,31.4,49.3,31.5c25.9,0.1,49.5-2.6,68.8-22.6c11.1-11.5,23.3-22.3,36.4-31.5c60.2-42.4,138.3-34.6,186.2,21
	c23.7,27.5,45.6,50.3,86.8,44.8c24.8-3.3,46.6,11.6,63.2,30.2c13,14.6,25.8,15.7,42.7,7.6c26-12.4,53.5-20.2,82.9-17.6
	c62.5,5.5,102,40.8,120.3,98.7c6.8,21.3,17.3,31.6,37.8,38.9c64.7,23.2,120.9,60.8,172.3,106.1c49.3,43.5,81.3,97.7,93,161.9
	c9.3,50.8,16.3,102.5,18.9,154c9.4,190,17.6,380.1,24.2,570.2c5.3,150.9,9.1,301.8,11,452.7c2.5,191.1,4,382.3,2.8,573.5
	c-0.9,146.5-4.6,293-10.9,439.3c-5.4,125.8-14.7,251.4-25.1,376.8c-5.8,70.3-19.4,139.6-42.5,206.8
	c-43.8,127.5-127.9,218.6-247.5,279c-99,50-204.2,80-312.9,98.9c-166.1,28.8-333.4,39.4-501.7,26.6
	c-136.5-10.5-271.3-31.9-401.4-76.6c-53.3-18.3-104.9-40.4-154.1-68.1c-120.1-67.5-196.5-168.2-232.8-300.7
	c-20.9-76.3-30.4-154.2-35.9-232.6c-31.1-438.8-31.4-878.4-26-1317.9c2.5-206.3,8.8-412.6,15.9-618.8
	c4.6-135.6,12.6-271.2,21.4-406.6c3.2-49.7,10.6-99.4,20.3-148.3c13.6-68.1,49.2-124.2,105.8-165.3c17.1-12.5,23.2-24.5,19.5-47
	c-11.7-71.8,46.8-123.1,117.9-104.9c17.2,4.4,33.8,11.6,50.1,18.7c13.8,6,24,3.1,32.5-8.8c6.8-9.4,13.6-18.9,20.5-28.1
	c48.5-64.4,112.7-87.6,191.2-71.7c21,4.2,41.6,10.1,62.5,14.9C1806.1,278.2,1812.2,278.7,1821,280z M1238.5,797.6
	c-2.1,19.2-4.6,33.9-5.3,48.7c-7.5,150.8-16.1,301.5-21.6,452.4c-5.2,141.1-8,282.2-10.4,423.4c-7.4,426.2-9,852.3,13.6,1278.2
	c5.4,101.7,11.1,203.4,28,304c9.8,58.4,25.4,115.2,52.8,168c39.1,75.2,99.3,130.1,171.5,172.6c76.1,44.7,158.8,72.2,244.2,93.2
	c199.9,49.2,402.2,61.8,606.3,36.6c104.5-12.9,197.2-54.6,275.5-126.5c65.5-60.1,114.1-132.4,152.7-211.7
	c63.8-130.9,96.9-270.4,110.4-414.5c11.3-120.3,9.3-240.9-4.1-361.2c-23.9-216.2-84-421.6-181.9-615.8
	c-129-256.1-312.8-466.4-540.4-638.8c-126.1-95.5-258.6-181.8-395.6-261.1c-100.5-58.2-200.4-117.3-299.2-178.3
	c-70-43.2-137.6-90.3-185-160.2C1248.5,804.4,1245.8,803.2,1238.5,797.6z M2198.7,1390.5c6.9,6.3,10,9.4,13.3,12.2
	c35.4,29.9,71.9,58.7,106.2,90c185.3,168.9,329.6,367.8,432.7,596.3c81,179.6,134.3,367.2,154.5,563.4c22.6,219.4,17,437-48.7,650.1
	c-34.5,111.9-82,217-154.6,309.8c-33,42.2-71,79.5-115.8,117.9c13.4-2.1,22-2.6,30.2-4.9c80.5-22.4,157.1-53.5,226.2-101.2
	c49.2-33.9,89.7-76.1,120.8-127.3c43.6-71.6,66.1-150.5,75-232.7c9.9-91.4,16.5-183.2,21.7-274.9c6-107,10.9-214.1,12.7-321.3
	c3.6-213.5,8.7-427,5.8-640.5c-3.9-285.8-14.6-571.5-23-857.2c-3.3-113.4-8.5-226.7-13-340.1c-0.4-11.4-1.9-22.7-2.9-34.1
	c-2.3-1.5-4.6-2.9-6.9-4.4c-3,5.3-5.6,11-9.2,15.9c-10,13.7-19.7,27.7-30.7,40.6c-45,53.1-100.6,94-158.7,130.7
	c-113.2,71.5-228.7,139.5-342,210.9c-83.8,52.8-165.8,108.5-248.3,163.6C2228.8,1363.4,2215.4,1376.6,2198.7,1390.5z M2287,824.6
	c3.2-5.1,4.7-6.5,5-8.1c13.6-74.8,45-140.6,97.7-196c6.1-6.4,10.8-17.3,10.7-26.1c-0.4-38.6-5.5-77-21.3-112.5
	c-60.2-135.4-220-140.5-298.4-80.1c-37.7,29.1-65.7,64.9-89.2,105.5c-8,13.7-7.5,23,2.6,35.6c65.4,80.9,100,174.1,107.2,277.7
	c0.5,6.6,2.6,13.1,4.4,21.8C2166.2,818.9,2226.2,815.6,2287,824.6z M2226.8,960.4c-81.6,4.7-154.1,41.8-206.7,116.1
	c-25.4,35.8-37.1,76.2-44.9,118.9c-4.2,23,1.4,35.9,20.5,48.6c47.5,31.4,93.8,64.8,140.3,97.6c17.1,12,17.3,12.5,34.4-1.1
	c88.8-70.7,182.8-133.6,280.8-190.5c16.1-9.3,17.6-12.8,10.6-30C2418.7,1014.8,2335.3,964.7,2226.8,960.4z M1842.1,1148.4
	c3-9.2,5.1-15.8,7.4-22.4c14.7-43,25.4-87.5,53-125.2c4.4-6,6.3-18.2,3.3-24.7c-22.2-47.7-42.2-97-70.1-141.3
	c-26.3-41.8-68.9-62.3-120.1-53c-21.7,3.9-42.7,12.1-63.5,19.7c-12.5,4.6-23.6,12.6-35.8,18.1c-46.3,20.8-100.7,22.4-137.5-36.7
	c-17.9-28.7-39.4-55.2-59.6-82.5c-8.2-11-18-19.7-33.2-19.6c-17.3,0.1-23.7,5.7-20.6,22.4c3.2,17.5,8.3,34.7,13.5,51.8
	c10.4,34.2,22.9,67.8,20.9,104.5c-0.7,11.6,4.7,20.7,14.3,27.1c7.4,5,14.7,10.2,22.3,14.8C1570.3,983.1,1704.5,1064.7,1842.1,1148.4
	z M2594.4,1059.2c6.8-3.7,13.9-7.2,20.6-11.3c24.4-14.8,48.6-29.9,73-44.8c74.6-45.7,148.2-92.8,215.7-148.8
	c34.7-28.8,65.2-61.1,85.7-101.5c17.8-35,25.5-72.2,17.4-111.5c-2.3-11.2-5-22.9-18.3-28.5c-2.7,1.6-6.6,2.7-8.5,5.2
	c-9.3,11.9-18.9,23.7-27.1,36.4c-19.5,30.2-46.9,49.1-82,55c-21.8,3.7-44.4,2.9-66.4,5.6c-27.3,3.3-55.5,4.5-81.3,12.8
	c-65.3,21-108.3,69.8-144.7,125.4c-15.6,23.9-30.3,48.5-47.8,70.9c-9.7,12.5-9,20.6-0.9,32.8
	C2551.4,989.6,2571.7,1023.1,2594.4,1059.2z M2561.2,341.4c2.2,5,3.2,9.5,5.7,12.8c25.1,33.3,30,67.2,6.8,104.1
	c-14,22.2,4,40.6,10.8,60.1c5.4,15.6,19.1,13.4,31.3,14.6c84,8.2,153.8,42.6,205.8,110.5c13.3,17.3,20.4,17.6,44.3,8.4
	c11.7-4.5,17.1-11.1,15.4-24.1c-2.2-16.8-2.8-33.8-4.6-50.6c-2.2-20.4-4-40.9-7.9-61c-4.1-21-11.8-26.4-33.2-27.1
	c-13.4-0.5-26.8,0-40.1-1c-31-2.3-51.2-19.3-60.8-48.3c-3.6-10.9-5-22.6-7.4-33.9c-3.1-14.8-4.9-30.1-9.5-44.4
	c-11.4-35.4-39.5-53.4-75.9-48.7C2613.5,316.3,2586.6,325.4,2561.2,341.4z M2009.7,886.4c11.6-6.2,19.5-10,27-14.5
	c11.1-6.6,14.9-16.4,14.2-29.4c-4.6-86.5-29.8-165.9-76.8-239.3c-46.5-72.6-108.4-126.3-189.1-155c-88-31.2-170.6-19-242.6,44.4
	c-46.2,40.7-64,95.4-75.8,153c-1,4.9-0.4,11.3,2.1,15.5c9.8,16.5,20.6,32.3,31,48.4c6.9-12.1,9.1-22.4,10.5-32.7
	c5.7-40.4,18.6-77.9,42.4-111.5c41.2-58.1,98.9-80.4,167.7-73.9c98.6,9.3,167.9,65.1,218.8,146c39.2,62.3,60.6,130.8,64.2,204.7
	C2004.2,855.9,2007.3,869.6,2009.7,886.4z M1930.1,1195c23.5-139.6,95.6-238.5,235.6-268.7c162-34.9,273.4,39.1,344.3,185.5
	c10.8-7,20.2-13,29.4-18.9C2514,1022.1,2474,965.7,2412,926c-88.5-56.6-183.7-67.6-282.5-35.7c-125.5,40.6-199.1,130.3-230.7,256.4
	C1891.2,1177.4,1895,1183,1930.1,1195z M2054.8,356.5c-4-6.1-6.4-10.9-9.8-14.7c-15.5-16.9-24.9-36.9-31.4-58.5
	c-4.1-13.7-7.7-27.5-12-41.1c-9.4-29.5-30.6-42.5-61.4-38.8c-29.9,3.6-46.5,22.6-53.4,49.4c-13.6,52.3-31.7,102.3-63.4,146.5
	c-0.9,1.3-0.6,3.4-0.6,3.8c39.8,25.7,79.1,51,121.3,78.3C1972.2,433,2006.8,389.4,2054.8,356.5z M2488.6,303.5
	c-17.8-13.9-36.7-11.8-54.9-10.9c-28.3,1.5-50.2-8.9-67.8-30.6c-10.1-12.5-20.2-25.1-31.5-36.5c-27.8-28-66.3-33.8-100.8-14.3
	c-12.2,6.9-23.8,16.2-33.1,26.7c-27.3,30.8-61.3,45-101.8,46c-6.4,0.2-12.7,2-20,3.3c19.8,34.8,25.3,38.5,60.8,30.9
	c80.8-17.1,154.3-3.9,219.3,48.9c2.6,2.1,6.3,2.8,12.7,5.5C2399.9,333,2434.4,301.6,2488.6,303.5z M2758.2,660.7
	c-7.1-9.1-11.6-18-18.7-23.4c-50.4-37.9-106.9-58.8-170.2-49.2c-80.6,12.2-141.8,55.7-183.9,125.6c-22.3,37-35.2,77.4-43.3,122.2
	c13.5,3.7,24.8,6.8,37.2,10.1c2.3-8,4.1-12.9,5.2-18c12.5-59.8,41.7-110.5,88-149.6c64.5-54.6,159.8-72.8,232.7-19.4
	C2720.5,670.3,2736,671.2,2758.2,660.7z M1764.4,547.3c1.1,8.7,2,14.7,2.6,20.6c2.5,24.8,6.7,49.6,6.8,74.5
	c0.1,13.6-4,28.7-10.8,40.5c-16.4,28.4-55.7,28.1-72-0.2c-8.3-14.5-15.2-30.5-19.1-46.8c-5.5-23.3-7.6-47.5-11.4-71.3
	c-0.9-5.6-3.1-11.1-5.2-18.1c-43.6,16.1-73.8,42.2-89.1,84.6c2.9,2.2,4.8,4.6,7.1,5.3c45.9,13.6,83.5,39.1,114,76.2
	c4.8,5.9,15,9.4,23,10.3c21.9,2.4,44.1,2.8,64.4,3.9c14.2-19,25.7-39.6,42.1-55c17.1-16.1,39-27.3,58.6-40.5
	C1863.5,603.1,1808.7,560.8,1764.4,547.3z M1510.9,438.2c-8.7-3.9-16.4-8.1-24.6-11c-17.5-6.4-35-13.5-53-17.9
	c-41.1-9.9-54.2,2.6-49.9,45.3c0.4,3.5,0.8,7.1,1.5,10.6c6.8,35.9,3.6,70.6-10.8,104.6c-6.8,16-10.4,33.3-16.3,52.9
	c21.9,1.4,40,2.6,56.1,3.6c12.6-35.4,20.9-69.5,36.6-99.9C1466.1,496,1489.1,469.5,1510.9,438.2z M2404.5,417
	c26.1,48.3,43.4,97.4,49,151.7c28.3-11.2,52.6-20.8,77.7-30.8c-2.9-9.2-3.7-15.6-6.6-20.8c-16.1-29.1-14.3-57.4,0-87
	c14.3-29.5,10-40-18-56.5c-20.2-12-39.9-9.1-57.6,4.3C2434.1,389.1,2420.9,402.5,2404.5,417z M1789.9,339.5
	c-1.2-1.7-2.3-5.1-4.2-5.7c-38.5-11.5-77.1-23.3-118.1-17.4c-39.6,5.7-81.6,45.5-89.2,85c5.6-1.5,10.8-2.3,15.6-4.2
	c39.1-15,80.2-21.7,121-15.6c36.9,5.6,59.6-6.3,73.9-39C1789.2,341.9,1789.4,341,1789.9,339.5z M1302.9,594.8
	c-61.5,58.6-37.4,188.3,39.4,222.3c-4-17.9-6.3-33.5-11-48.3c-8.1-25.4-17.8-50.3-26.7-75.5c-7.6-21.4-10.3-42.9-4.6-65.5
	C1302.7,617.2,1302.1,605.8,1302.9,594.8z M1565.7,776.2c20.8-7.4,41.9-14,62.3-22.5c16.3-6.8,18-14.4,7.1-28.7
	c-14.4-19-34.2-30.9-56.3-38.8c-11.1-4-19.8,0.6-22.9,11.8c-4.8,17.1-9.4,34.4-12.1,51.9C1541.4,765.9,1549,773.2,1565.7,776.2z
	 M2552.4,801.5c-3.6-40-20.3-68-30.8-101.8c-29,23.4-50,47.5-70.3,78.6C2486.4,786.3,2516.7,793.3,2552.4,801.5z M1931.2,715.9
	c-6.6-12.9-10.3-20.9-14.6-28.6c-5.6-10-14.4-13.8-24.7-8.5c-24.8,12.7-47,28.9-62,53.1c-2.4,3.9-2,9.6-3.4,17.6
	C1864.7,745.8,1894.6,726.4,1931.2,715.9z M1951.5,923c12.4-28.8,10.1-56.7,4.1-86.9c-17.6,3.8-31.8,6.8-48.7,10.5
	C1921.3,875.2,1927.8,903.3,1951.5,923z M1725.3,651.1c8.3-23.4,2.8-85.5-6.8-102.6c-2.3-4.1-8.6-6-18.9-12.7
	C1705.5,579.6,1701.2,618.3,1725.3,651.1z M1870.2,792.4c31.1,9.4,55.5,8.9,79.8,0.7c-1.9-26.3-5.1-32.4-19-31.2
	C1909.7,763.9,1890.4,771.8,1870.2,792.4z M2514.1,849c-22-12.8-44.2-15.9-66.4-17.8c-3-0.3-6.7,7-11.4,12.2
	C2483.6,854.3,2491.6,854.9,2514.1,849z M2930.6,526c2.8,19.4,4.8,33.4,6.9,48.4C2965.9,560.5,2964.9,550.1,2930.6,526z
	 M2627.9,713.5c11.7-8.7,19.2-14.4,26.8-20.1c-0.5-2.3-1.1-4.6-1.6-6.8c-11-2.4-22.1-4.9-38.5-8.5
	C2619.7,691.9,2622.7,699.7,2627.9,713.5z M2590.4,737.6c-2.4-36.2-8.5-45.4-26.4-42.1C2568.5,710.8,2569.7,727.8,2590.4,737.6z
	 M2459.4,879.8c0.2-1.2,0.4-2.5,0.6-3.7c-4.5-0.8-9-1.6-13.4-2.3c-0.2,1.3-0.4,2.5-0.6,3.8C2450.5,878.3,2454.9,879.1,2459.4,879.8z
	"/>
<path d="M2080.3,2867.9c53.5,0,107.1-0.6,160.6,0.2c32.9,0.5,40.4,9.2,41.5,41.8c1.6,48.8-5.7,95.8-25.4,140.9
	c-41.3,94.7-133.3,119.9-203.3,110.5c-77.7-10.5-130.5-54-157.4-127.6c-15.8-43.2-23-88-16.7-134.1c3.3-24.3,9.9-30.3,34.8-31.1
	c55.3-1.9,110.6-3.1,165.8-4.7C2080.3,2865.2,2080.3,2866.5,2080.3,2867.9z M1957.3,3067.1c83.1,87.3,208.5,53.4,240.5-0.9
	C2142.6,3000,2012.5,3004.5,1957.3,3067.1z"/>
<path d="M1634.6,2686.3c70.1-0.7,125.5,52.2,127,121.1c1.5,73.3-57.7,134.5-130.4,134.9c-65.6,0.3-124.5-58.3-125.2-124.8
	C1505.2,2742.4,1559.3,2687.1,1634.6,2686.3z M1661,2736.7c-22.6,0.5-42.2,21.4-41.4,44c0.7,19.8,19.9,35.6,42.6,35.1
	c22.7-0.5,40.1-17.2,39.8-38C1701.6,2755.5,1682.4,2736.2,1661,2736.7z"/>
<path d="M2658.4,2812.9c-0.8,81.9-66.3,127.5-133.3,129.3c-63.8,1.7-120.2-59.9-119.5-127.1c0.8-74.3,56-129.9,128.4-129.4
	C2604.6,2686.3,2658.7,2741.6,2658.4,2812.9z M2558.9,2816.3c23.3,0.2,42.7-16.8,43.2-38c0.6-21.3-18.4-41.5-39.9-42.4
	c-23.8-0.9-44.9,19.7-44.6,43.5C2518.1,2799.4,2536.7,2816.1,2558.9,2816.3z"/>
<path d="M2201.2,1586.1c-0.8,12.9-14.3,21.1-24,16.3c-5.5-2.7-10.2-7.1-14.7-11.3c-68.4-64.3-144-119.5-221.2-172.5
	c-5.8-4-13.1-8-15.8-13.9c-2.9-6.2-3.5-15.6-0.9-21.8c3.5-8.1,12.5-9.5,20.7-5.3c5.5,2.8,10.9,6.1,15.8,9.9
	c63.1,48.1,126.3,95.9,188.9,144.6c15.4,12,28.8,26.6,42.6,40.5C2196.9,1576.9,2199.2,1582.8,2201.2,1586.1z"/>
<path d="M1293.4,1830.3c-27.5,3.9-30.4,2.1-29.9-22.2c1.6-85.4,3.5-170.9,5.8-256.3c0.7-25.7,4.2-27.4,31.8-20.8
	C1307.7,1554.7,1302.1,1779.1,1293.4,1830.3z"/>
<path d="M2650,3417.1c-2.9,9.9-4.8,20.2-8.8,29.6c-21.2,49.9-53,92.9-91.3,130.6c-25.3,24.8-52.9,47.5-81.4,68.7
	c-19,14.1-30.5,12.2-37.1,0.8c-5.8-10-1.8-17.3,18.1-30.6c63.3-42.4,113.8-96.6,151.3-163c5.7-10,11.7-20.3,19.6-28.5
	c6-6.2,15.3-9.3,23.2-13.7C2645.7,3413,2647.8,3415,2650,3417.1z"/>
<path d="M2767.3,2962c-3.7,8-5.6,15.2-9.8,20.6c-21,27.4-42.2,54.8-64.3,81.3c-9.4,11.2-19.2,11.4-27.8,3.7
	c-9-8.1-8.3-17.6-1.7-26.2c22.9-29.3,46.2-58.4,69.7-87.2c5.5-6.7,13.1-10,21.2-4.7C2759.4,2952.6,2762.9,2957.5,2767.3,2962z"/>
<path d="M1462.3,3073.6c-16.3,1.3-28.2-16.7-19.6-28.3c22.2-30.1,46.1-59,69.8-88c6.7-8.2,15.8-7.3,24.2-1.6
	c9.3,6.4,8.3,15.4,3.9,23.8c-4.2,7.8-9.5,15.1-15.1,22c-16.3,20.1-32.7,40.1-49.5,59.8C1471.5,3066.5,1465.7,3070.6,1462.3,3073.6z"
	/>
<path d="M2660.4,2948.4c19.4,1,27.3,16.8,17,30.8c-16.8,22.9-34.8,45-53.4,66.5c-3.6,4.2-13.8,7.6-17.9,5.5
	c-6-3.1-11.7-11.1-13-17.8c-1.1-5.9,2.6-14.1,6.7-19.2c15.4-19.5,31.7-38.5,48.1-57.2C2651.7,2952.7,2657.6,2950.3,2660.4,2948.4z"
	/>
<path d="M1389.7,3055.7c-6-9.4-12.6-15.7-13.8-22.9c-1-5.8,3.5-13.6,7.6-18.9c14.7-19,30.2-37.3,45.4-55.8c2.2-2.7,4.7-7.1,7.3-7.3
	c7.4-0.5,16.3-1.5,21.8,2c3.8,2.4,4.4,12.3,3.7,18.5c-0.5,4.7-4.9,9.3-8.1,13.5c-14.1,18.3-28.2,36.6-43,54.3
	C1406,3044.8,1398.9,3048.6,1389.7,3055.7z"/>
<path d="M2832.3,2994.2c-4.4,8.9-6.4,16.1-10.8,21.2c-15.5,18.2-31.7,35.9-47.9,53.5c-7.9,8.6-17,9.3-25.4,0.7
	c-7.6-7.9-9.7-16.6-1.7-25.9c16.8-19.4,33.2-39.1,50.2-58.3c5.5-6.3,13-10.4,21.2-4.8C2823.2,2984.1,2827.4,2989.4,2832.3,2994.2z"
	/>
<path d="M1609.2,2995c-5,8.9-8,16.5-12.9,22.4c-14.2,17-29.4,33.2-43.8,50c-7.7,9-15.7,10.9-25.1,2.9c-8.8-7.5-10.9-16.2-3-25.5
	c17.9-20.8,35.8-41.7,54.6-61.7c3.2-3.4,11.9-5,16.2-3.1C1600.6,2982.6,1604.2,2989.4,1609.2,2995z"/>
<path d="M1377.1,1771.9c-26.2,5.9-30.8,3.1-31.5-18.2c-0.3-10.6,0.1-21.4,1.4-32c1.2-9.8,6.5-16.3,18-15.2
	c10.1,1,14.1,7.4,14.1,16.2C1378.8,1739.4,1377.7,1756.1,1377.1,1771.9z"/>
<path d="M1995.8,1532.5c19.1,7,34.1,16.3,43.9,31.6c2.5,3.8,1.2,13-2,16.7c-3.2,3.7-12.5,6.9-16.1,4.8c-13.7-7.8-26.8-17-38.8-27.3
	c-2.9-2.5-2.7-12-0.4-16.4C1984.9,1537.4,1991.6,1535.3,1995.8,1532.5z"/>
<path d="M1296.2,1912.2c-0.8,4.8-0.3,12.7-3.6,18.5c-2.9,5.1-9.9,10.9-15.1,10.9c-5.3-0.1-13.7-6-15.1-11c-2.8-9.9-3-21.1-1.9-31.5
	c1.3-12.1,11.1-18.2,22.8-16.9c12.4,1.4,12.1,10.9,12.8,19.8C1296.4,1904.6,1296.2,1907.3,1296.2,1912.2z"/>
<path d="M1503.7,3394.6c-10.9,0.3-19-7.1-19.3-17.5c-0.3-10.8,8.7-21.7,18.6-22.6c11-1,20.9,8.2,20.7,19.4
	C1523.5,3384.9,1514.6,3394.3,1503.7,3394.6z"/>
<path d="M1880.1,2087c0.7,10.7-8.7,20.3-19.8,20.3c-10,0.1-19.2-8.1-20-17.8c-0.8-10.3,8.7-21.6,18.6-22.2
	C1869.2,2066.9,1879.4,2076.3,1880.1,2087z"/>
<path d="M2202.8,2206.1c-11.5-0.3-18.5-8.9-17.8-21.7c0.6-12,7.5-19.2,17.7-18.7c10.5,0.5,20.4,10.4,20.6,20.6
	C2223.5,2197.2,2213.9,2206.5,2202.8,2206.1z"/>
<path d="M1589.5,3454.1c10.5,0.7,19.1,11,18.3,21.9c-0.8,10.9-9.1,19.2-18.4,18.5c-10.3-0.8-19.5-11.5-18.7-22
	C1571.5,3462.4,1580.6,3453.5,1589.5,3454.1z"/>
<path d="M2673.6,3359c-1,21-6.5,29.2-17.5,28.7c-10.2-0.5-19.4-12.9-15.2-22.9C2648.1,3347.8,2660.9,3357.4,2673.6,3359z"/>
<path d="M2982.2,1484c26.6-6.7,31.6-5.2,34.2,14.6c8.9,67,5.8,134.4,7.6,201c-27.5,7.8-32.1,6.2-33.5-14.6
	c-4.1-60.3-7.4-120.6-10.6-180.9C2979.5,1497.2,2981.4,1490.3,2982.2,1484z"/>
<path d="M3029.2,1786.5c-0.9,5.4-0.2,12.6-3.4,17.2c-3.5,5.1-10.6,10.8-16,10.7c-4.9-0.1-12.6-6.9-13.8-12c-2.3-10-1.3-20.9-1-31.4
	c0.2-9.1,5.1-15.5,14.3-15.9c9.9-0.4,16.8,5,18.9,14.9C3029.2,1775.1,3028.9,1780.5,3029.2,1786.5z"/>
<path d="M2311.1,580.2c0.5-35.4-4.6-69-30-96.6c-7.4-8.1-12.2-18.5-1.7-28.3c7.4-6.9,22.3-5.2,31.4,4c5.5,5.6,10.4,12.2,14,19.2
	c20.9,40.8,25.5,84.7,23,129.6c-0.8,14.4-7.6,20.2-19.6,20c-12.3-0.2-16.8-5.7-17.1-21.4C2311,598,2311.1,589.1,2311.1,580.2z"/>
<path d="M2036.3,501c7.6-10.9,13.7-21.2,21.4-30.1c8.6-9.9,19.2-18,28-27.8c13.6-15.2,31.1-23.3,50-28.8c9.1-2.7,18.1-1.8,22.8,8.1
	c4.3,9.1,2.2,18.4-5.7,23.8c-9.3,6.4-19.7,12.4-30.5,15.3c-19.3,5.1-33.9,14-42,33.1c-3,7.2-8,14.3-13.9,19.2
	c-4.6,3.9-13.2,7.4-18,5.6C2043.6,517.6,2041.3,509.1,2036.3,501z"/>
<path d="M1694.2,893c-15.6-0.5-28.2-9.1-27.8-19.1c0.4-9.8,14.9-20.2,27.8-19.9c14,0.3,24.5,10.7,23.5,23.1
	C1716.8,887.7,1708.3,893.4,1694.2,893z"/>
<path d="M1642.4,894.9c-0.1,12.6-10.9,22.3-24.7,22.1c-11.8-0.1-20-8.7-19.3-20.2c0.9-13.2,11.2-22.5,24.7-22.3
	C1635.2,874.7,1642.5,882.4,1642.4,894.9z"/>
<path d="M2787.2,757.3c18.2-1.3,26.6,5.8,30.6,18.1c2.9,8.9,0.3,16-9.7,18.5c-5.2,1.3-10.5,2.4-15.8,3.2
	c-46.4,7.2-83.1,30.8-112.9,66.1c-2.3,2.7-4.3,5.8-6.6,8.4c-5.8,6.4-12.8,10.7-21.1,5.3c-9.6-6.2-11.8-15.2-6.7-25.6
	c1.2-2.4,2.6-4.7,4.3-6.8c35.3-42,77-74.3,131.8-86.4C2784.5,757.3,2788.1,757.2,2787.2,757.3z"/>
</svg>
