<?xml version="1.0" encoding="utf-8"?>
<!-- Generator: Adobe Illustrator 24.3.0, SVG Export Plug-In . SVG Version: 6.00 Build 0)  -->
<svg version="1.1" id="Layer_1" xmlns="http://www.w3.org/2000/svg" xmlns:xlink="http://www.w3.org/1999/xlink" x="0px" y="0px"
	 viewBox="0 0 4000 4000" style="enable-background:new 0 0 4000 4000;" xml:space="preserve">
<path d="M502.8,3006.9c-3-6.1-3.5-8.6-5-10c-70.1-70.5-81-154.9-55.1-246.2c10.2-35.8,24.3-71,40.3-104.7
	c63.1-132.6,138-258.7,216.4-382.6c180-284.2,364.2-565.7,543.5-850.4c142.4-226.1,287.7-450.1,444.6-666.3
	c50-69,103.7-135.3,156.4-202.3c14.7-18.7,31.6-35.7,48-53.1c101.8-107.6,238.9-123.5,369.8-69.1c63.2,26.3,116.3,67.7,159.6,119.5
	c68.5,81.9,136.7,164.3,200,250.2c114.5,155.5,226.6,312.9,337.2,471.3c87.8,125.7,172.4,253.7,257.5,381.3
	c114.1,171.1,228.7,341.8,340.4,514.4c75.2,116.3,146.8,235.1,217.7,354.1c26.7,44.9,44.5,94.5,54.4,146.4
	c10.5,54.9-1.8,103.5-37.5,146.5c-21.4,25.8-21.8,29-3.6,56.2c13.2,19.8,28.8,38.1,41.6,58.2c25,39,39.7,80.9,38,128.5
	c-1.1,30.5,1.9,61.4,5.5,91.8c6.2,51.3-14,87.9-57.4,114c-69.6,41.9-144.8,71-221.2,97c-208.1,70.9-422.1,117.9-638,157
	c-136.5,24.7-274,41.1-411.9,55.2c-190.1,19.4-380.6,33.7-571.6,34.4c-148.8,0.5-297.8-4.7-446.4-13.3c-120.1-7-240.3-19-359.5-35.6
	c-141.6-19.7-282.4-45.7-423.2-71.1c-68.1-12.2-135.5-28.6-203-44.2c-22-5.1-43.4-13.3-64.6-21.2c-31.3-11.6-50.8-35.3-56.7-67.3
	c-4.5-24.3-6-49.7-4.4-74.3c1.6-24.2,2.7-47.3-8.2-69.9c-11.8-24.5-8.9-50.1,4.5-72c20.1-32.7,43.4-63.5,66.1-94.5
	C484.3,3024.9,493.8,3016.5,502.8,3006.9z M1858.6,3116.5c186.6-2.3,372.6-11.5,558.3-29.1c199.1-18.9,397.4-43.4,593.2-84.5
	c180-37.8,358.6-82.1,532.9-141.5c56.9-19.4,114-39,163.9-74.2c51.6-36.4,67.7-75,48.8-135.3c-12.8-40.9-28.4-82.1-49.8-119
	c-57.1-98.1-116-195.4-177.9-290.5c-115.9-178-234.2-354.5-351.9-531.3c-204.6-307.4-410.1-614.2-633.4-908.5
	c-57.6-75.9-119.7-148.6-182.2-220.7c-37.5-43.2-82.9-78.3-137.5-98.2c-86.4-31.5-170.4-29.2-245.1,30c-32.7,25.9-62.8,56-90,87.6
	c-99.5,115.6-185.8,241.4-270.3,367.9c-154.5,231.5-306,465-456.9,699c-136.1,211-270.4,423.1-403.9,635.7
	c-77.9,124.1-154.5,249.3-215.6,382.8c-16.9,36.9-30.1,76.3-38.4,115.9c-13.3,63.5,7.8,117.8,61.7,154.7
	c24.8,17,53.6,30.9,82.6,38.6c62.4,16.6,125.7,30.9,189.4,41.4c188.4,31.3,378.5,48.9,569.1,60.2
	C1556.5,3106.5,1707.7,3110.4,1858.6,3116.5z M3799.2,3117.7c-21.6,10.7-40.2,21.8-60.1,29.4c-100.7,38.6-200.1,81.6-302.9,113.3
	c-207.7,63.9-421.9,99.5-636.4,131.8c-67.5,10.2-133.5,20.6-197.2,48.6c-72.4,31.9-149.5,38.4-226,10.1
	c-29.6-10.9-59.4-12.6-90.4-10c-167.7,13.9-335.8,20.3-504,14c-106.7-4-213.5-8.5-320-16.3c-81.5-5.9-163-14.7-243.7-27.5
	c-35-5.6-66.4-4.4-99.9,5.4c-55,16.1-111.2,20.3-168.6,12.6c-69.3-9.4-131.1-36.2-187.6-76c-23.8-16.8-49.3-26.2-77.9-31.7
	c-42.3-8-83.9-19.5-125.7-30.2c-23.9-6.1-47.5-13.6-75.3-21.7c0,13.1,0.1,22.8,0,32.6c-0.5,27.3,10.6,45.1,38.8,51.7
	c20.9,4.9,41,13.6,61.9,18.6c156.9,37.1,315.2,66.4,474.6,90.9c175.3,26.9,351.4,46.5,528.3,56.6c232.7,13.2,465.6,13.6,698.4-3.7
	c214.1-15.9,427.5-37.9,639.3-74.4c209.5-36.1,417.4-78.3,619.3-145.5c74.1-24.7,145.9-56.7,217.2-89
	C3802.9,3188.3,3810.2,3165.8,3799.2,3117.7z M2107.9,3186.9c-11.5,15.9-19.2,26.3-26.7,37c-20.2,28.7-37.7,59.9-61.1,85.6
	c-33,36.1-76.3,46.1-124.7,37.1c-34.1-6.3-59.6-26.5-85.9-46.5c-20.6-15.7-24.3-15.5-44.8-0.9c-5.6,3.9-10.8,8.3-16.2,12.4
	c-79.1,59.6-167.8,50.8-229.1-10.2c-3.2-3.2-6.9-6-10.3-8.9c-30.7-26.4-35-27.1-67.7-4.5c-40.2,27.9-83,46.4-133.2,44.3
	c-10.3-0.4-22.9-2.7-29.6,10.2c27.9,14.4,309.1,39.4,469.1,42c245.6,3.9,447.2-2.4,476.9-16.2
	C2170.1,3320.9,2143.2,3256.6,2107.9,3186.9z M3367.2,3212.5c-2.5-5.2-2.9-8.1-4.5-8.9c-47.4-24.5-95-48.4-142.2-73.2
	c-16.9-8.9-33.1-9.6-48.2,1.2c-19.2,13.7-37.1,29.3-55.5,44.1c-21.9,17.7-41.6,39.5-66,52.5c-45.9,24.6-94.5,21.3-141-1.4
	c-27.3-13.3-53.5-29-80.3-43.7c-20.9,48.1-41.7,96.1-64.7,149C2967.6,3290.9,3169.2,3263,3367.2,3212.5z M2280.3,3172
	c30,98.1,135.1,154,238.8,130.8c84.3-18.9,158.3-103,148.2-169.7C2539.4,3145.9,2411.5,3158.8,2280.3,3172z M765.5,3098.7
	c38.2,91.7,103.5,141,193.6,156.4c81.8,13.9,155.6-6,217.3-63.6c10.5-9.8,22.3-19.6,19-37.4
	C1053.4,3135.8,912.2,3117.6,765.5,3098.7z M2022.9,3183.2c-24.5,1.2-43.4,3.3-62.4,2.9c-172.5-3.6-344.9-7.7-517.4-11.6
	c-41.5-15.3-63.1,5.8-76.2,41.9c-4.2,11.6-18.7,19.6-13.2,39.5c19.9-11.8,37.4-21.7,54.4-32.5c46.3-29.4,84.9-28.4,129,4.3
	c15.5,11.5,30,24.3,45.3,36c31.6,24.2,65.2,24.8,98.4,4.6c16.4-9.9,31.3-22.5,45.8-35.1c15.5-13.6,32.7-18.9,53.1-18.2
	c23.6,0.8,44.4,8.4,63.4,21.7c13.9,9.8,27.4,20.2,41.2,30.1c21.5,15.4,44.8,16.4,67.6,4.7
	C1987.1,3253.5,2004.8,3221.2,2022.9,3183.2z M1312.7,3166.3c-44.4-11.8-47.7-9.7-70.9,25.1c-11.2,16.8-24.5,33-39.5,46.5
	c-100.4,90.6-262,99.1-372.7,21.2c-55.5-39.1-96.4-88.8-118.6-153.6c-10.2-29.8-23.8-35.7-53.1-26
	c36.3,161.2,170.5,268.6,316.4,279.6C1124.1,3370.1,1282.8,3279.4,1312.7,3166.3z M2761.3,3121.4c-32.1-1.8-31.3-1.5-39.8,25
	c-8.7,26.9-16.8,54.4-29.5,79.5c-58.8,116.3-200.6,166.1-319.9,114.3c-65.7-28.5-110.8-77.2-141.4-140.7
	c-14.3-29.8-18.5-30.6-47.3-12.5c49.4,151.2,191.2,231.8,335.6,209.9C2689.6,3370.8,2762.6,3221.3,2761.3,3121.4z M3235.1,3022.6
	c4.8,8.7,7.7,16,12.2,22.1c29,39.9,69.1,65.2,113.4,84.4c99.2,43.1,264.5,26,317.7-132.9c10-29.8,14-61.7,19.8-92.8
	c1.3-6.8-1.7-14.5-2.7-21.8c-30.9,5.7-32.1,7.8-36.3,33c-4.4,26.7-6.7,54.7-16.6,79.4c-33.1,82.2-115.3,116.3-199.5,115
	c-61.1-1-112.4-25.1-152.2-72C3276.8,3020.3,3262.5,3006.5,3235.1,3022.6z M3330.2,3004.9c26,23.2,49.5,38.6,77.2,46
	c53.8,14.4,104,4.7,146.7-31c30.7-25.7,46-59.6,40.5-101.7C3506.1,2947.2,3420.7,2975.2,3330.2,3004.9z M2857.2,3109.4
	c-0.3,2.4-0.7,4.9-1,7.3c36.7,20.7,70.4,49.2,114.3,53.3c20.1,1.9,42.6-4.2,61.5-12.6c15.9-7,29-21.5,41.6-34.5
	c23.1-23.8,47.2-45.7,78.7-58.1c4.2-1.6,7-7,12.9-13.3c-8.2-3-13.6-7-17.9-6.1C3050.5,3066.5,2953.9,3088,2857.2,3109.4z
	 M578.8,3034.8c-15.2,9.3-24.4,12.2-29.5,18.5c-23.6,28.8-47.6,57.5-68.3,88.4c-15.8,23.7-12.1,36.9,14.3,48.5
	c39.1,17.2,80,30.7,120.4,44.9c6.8,2.4,15.2,0.3,30.7,0.3C605.8,3174.5,590.3,3109.2,578.8,3034.8z M3765.9,2952.1
	c-12.2,40.7-23.5,78.2-34.8,115.7c2.5,1.6,4.9,3.3,7.4,4.9c17.1-14.2,35-27.6,50.9-43c5.6-5.5,10.1-17,8.5-24.1
	C3793.3,2986.2,3785.9,2967.3,3765.9,2952.1z"/>
<path d="M1541.9,2098.5c0.2-80.5,59.7-139.2,138.5-140.6c77.7-1.3,140.8,64.5,140.4,136.3c-0.4,79.3-65,144.6-141.6,144.5
	C1605.1,2238.7,1541.8,2174,1541.9,2098.5z M1713.2,2015c-23.6-0.6-44.8,20.3-46.1,45.4c-1.2,22.9,18.7,42.4,43.3,42.6
	c23.6,0.2,44.9-18.5,46.5-40.9C1758.7,2038.3,1737.6,2015.7,1713.2,2015z"/>
<path d="M2607.5,2105.5c36.8,15.1,71.5,28.9,105.7,43.7c12.4,5.4,24.4,12.4,35.3,20.3c11.3,8.3,18.7,19.7,16.3,35.2
	c-3.1,20.2-16.4,29.9-35.9,23.3c-20.4-6.9-40.8-14.5-59.9-24.1c-46.8-23.6-94.7-44-146.4-54.4c-9.9-2-19.9-5.2-29.1-9.5
	c-21.3-10-25.4-33.9-8.2-49.9c7.4-6.9,16.5-12.2,25.4-16.9c62.2-32.9,124.5-65.7,187-98c25.6-13.3,35.6-11.9,48.2,3.9
	c14.5,18.1,14.6,33.6-4.5,46.7c-24.2,16.6-50.7,30-76.5,44.2C2645.4,2080.8,2624.4,2089.3,2607.5,2105.5z"/>
<path d="M2174.7,2416.6c-111.9-3.9-175.2-64.3-201-155.1c-2.7-9.6-2.5-20.3-2.5-30.5c-0.1-12.3,3.9-22.7,17.9-25
	c13.5-2.1,25.5,1.1,31.2,14.7c4.8,11.4,7.9,23.6,11.3,35.6c12.1,42.9,37.6,74.3,78.3,93.5c71.9,33.9,162.1-7.9,181.8-84.8
	c3.4-13.2,4.9-26.8,8.2-40.1c4.5-17.9,12.8-23.5,28.8-20.9c15.2,2.5,24.8,12.6,23.3,28.4c-8.1,85-54.4,152-126.4,173.9
	C2206.2,2412.2,2185.7,2414.5,2174.7,2416.6z"/>
<path d="M3423.9,2405.2c-1.7,10.7-3.2,25.4-6.7,39.7c-3.6,14.5-14.8,19.3-28.9,17.2c-14.9-2.2-21.3-11.7-20.5-26.3
	c0.2-4.5,1.3-9,2.1-13.4c6.3-32.9-0.3-63.4-17.9-91.4c-34.5-54.8-69.4-109.2-104.3-163.8c-9.2-14.3-19-28.3-28-42.7
	c-8.7-14-5.4-26.1,7.5-35.6c11.8-8.6,22.2-5.9,35.1,8.7c1.5,1.7,2.9,3.5,4.2,5.4c41.2,63.9,83.4,127.2,123,192.1
	C3409.1,2327,3421.6,2362.7,3423.9,2405.2z"/>
<path d="M790,2561.7c1.9-77.3,49.4-146.6,121.8-173.7c11.3-4.2,24.2-6,36.4-5.9c19,0.1,28.8,9.9,29.3,25.8
	c0.6,17.3-9.7,22.7-25.1,25.9c-76.6,16.1-120.4,81.2-106,157.8c2.5,13.1,9,25.4,14,38c4.6,11.4,12.9,23-1.9,32.9
	c-11.4,7.6-30.5,4.9-39.5-8.3c-8.8-12.8-15.5-27.7-20-42.6C794.1,2595.5,792.9,2578.4,790,2561.7z"/>
<path d="M2136.2,2939c-22.7,0-45.3-0.2-68,0.1c-14.9,0.1-27.6-2.7-29.4-20.6c-1.7-16.1,6.8-27,26.1-29.2c20.2-2.3,40.7-1.8,61.1-2
	c27.2-0.3,54.4,0.3,81.7-0.2c38.3-0.7,68-12.2,77.7-55.4c5.3-23.8,24.9-30.8,39.5-16.5c6.2,6.1,9.5,17.9,9.6,27.2
	c0.5,36.6-29.2,75.9-70.2,86.3c-30.3,7.7-62.6,8-94.1,10.6c-11.2,0.9-22.6-1.1-33.9-1.7C2136.2,2938.1,2136.2,2938.5,2136.2,2939z"
	/>
<path d="M1397,1734.8c-23.8-0.2-34.2-14.9-28.3-32.1c1.5-4.3,3.4-8.4,5.6-12.4c35.7-67,71.3-134.2,107.4-201
	c8.6-15.9,18.1-31.6,29.4-45.7c10.9-13.7,23.4-14.3,35.9-5.4c13.3,9.5,10.9,20.8,4.3,32.9c-44.7,81.5-89.2,163.1-134.5,244.3
	C1411.7,1724.3,1401.6,1730.4,1397,1734.8z"/>
<path d="M2169.7,690.6c64.9,5.2,119.8,35.1,148,103.5c9.5,22.9,16.5,47,22.9,71c3.6,13.8,2,26.9-16.1,31.8
	c-17.6,4.8-25.8-4.6-31-18.3c-7.2-19-12.4-38.9-19.9-57.8c-22-55.2-62.4-81.3-121.4-79.3c-26.2,0.9-35.8-3.9-37.4-18.5
	c-1.9-17.8,12.1-30.8,35.1-32.3C2154.5,690.3,2159.1,690.6,2169.7,690.6z"/>
<path d="M3102.4,2759.2c-14.7,1.3-25.1-4.3-27.2-19.3c-2-14.6,1.3-27.6,18.5-31.3c9.9-2.1,20.1-3.4,30.1-5.3
	c24.5-4.7,49.5-7.8,73.3-15c29.9-9,56.7-23.9,70-55c6-14.1,15.4-22.9,31.8-17.4c13.9,4.7,17.8,18.3,10.6,37.5
	c-12.2,32.5-35.8,55-65.8,70.8C3199.5,2747.5,3150.9,2753.4,3102.4,2759.2z"/>
<path d="M2882.8,2245c17.6-1.2,26.8,9.3,22.8,23.6c-1.8,6.4-5.1,12.7-8.9,18.2c-18.3,25.9-36.9,51.7-55.8,77.2
	c-4,5.4-8.6,12.3-14.3,14c-7.8,2.4-19.1,3.7-24.8-0.3c-5.5-3.9-7.3-15-8-23.2c-0.4-4.9,3.4-10.9,6.8-15.2
	c22.4-28.5,45.1-56.9,68.2-84.8C2872.9,2249.7,2879.6,2247.2,2882.8,2245z"/>
<path d="M1577.2,2268.3c-2.4,4.8-5,12.4-9.5,18.7c-19.9,27.4-40.1,54.6-60.6,81.6c-3.3,4.4-7.9,10.4-12.4,10.8
	c-8.2,0.8-18.4,0.3-24.6-4.1c-4.3-3.1-4.6-13.7-4.1-20.8c0.4-5.1,4.4-10.3,7.8-14.7c20-25.9,40-51.9,60.8-77.2
	c4.8-5.8,11.8-10.9,18.9-13.4C1565.5,2245.1,1577.6,2254.3,1577.2,2268.3z"/>
<path d="M1471.2,2243.9c19,0.9,26.5,11.6,20,25.9c-4.6,10.1-11.9,19.2-18.7,28.2c-13.7,18-27.8,35.8-42.1,53.4
	c-7.8,9.6-17.7,15.4-29.5,7c-11.5-8.2-17.1-21.1-8.2-32.5c20.9-26.7,43.8-51.9,66.5-77.1C1462.5,2245.1,1469.3,2244.6,1471.2,2243.9
	z"/>
<path d="M2815.2,2261.2c-3.1,8.2-4.3,16.7-8.9,22.4c-17.6,22-35.9,43.5-54.9,64.4c-9.5,10.5-22.3,12.2-33.4,2.9
	c-11-9.2-6.9-21.3,0.4-30.5c19-23.9,38.2-47.7,59.2-69.6c5.4-5.7,18.1-6.3,27.2-5.6C2808.5,2245.4,2811.5,2255.3,2815.2,2261.2z"/>
<path d="M2386.8,1267.3c4.2,2.4,13.2,5.5,19.1,11.5c15.6,16.1,30.2,33.3,44.7,50.5c7.1,8.4,10.7,18.1,0.6,26.8
	c-9.9,8.6-22.8,15.4-33.5,5.2c-19.5-18.5-38.1-38.4-54.1-59.9C2352.9,1287,2364.8,1268.1,2386.8,1267.3z"/>
<path d="M2951.5,2275.3c17.3-0.8,28.5,15.7,19.6,28.5c-17.3,25.1-36.4,49.2-56.9,71.7c-10.6,11.7-28,3-28.6-13.1
	c-0.2-6.4,1-14.4,4.8-19.3c15.7-20.7,32.4-40.7,49.3-60.5C2943.1,2278.7,2949,2276.9,2951.5,2275.3z"/>
<path d="M1630.4,2274.6c18.5,17,17.3,30.8,5.5,45.3c-14.3,17.5-28.5,35.2-42.6,52.8c-9.1,11.4-19.9,15.5-32.1,5.4
	c-11.2-9.3-8.5-20.6,0.1-29.8C1583.8,2324.1,1598.8,2292.2,1630.4,2274.6z"/>
<path d="M1862.5,981.8c0.3,16.2-33.4,64.5-45.4,68.9c-15,5.5-33.7-8.6-27.3-22.6c9.6-21.1,23.8-40.3,37.9-58.9
	c3-3.9,15.3-3.9,21.6-1.3C1855.5,970.4,1859.5,978.4,1862.5,981.8z"/>
<path d="M1068.2,2880.3c-12.3-2.6-26.2-3.5-38.2-8.8c-6.4-2.8-11.9-12.9-13.2-20.4c-1.9-11,5.2-21.1,16.7-21.1
	c15.4,0.1,31.1,2.5,45.9,6.6c11.1,3,20.3,11.4,18.2,24.8C1095.1,2877.3,1081.6,2878,1068.2,2880.3z"/>
<path d="M2817.7,1843.7c-18,1.1-47.5-29.8-45.1-47.2c2.3-16.9,21.1-28.5,35-18.8c12.3,8.6,23.2,21.3,30.3,34.5
	C2845.3,1825.8,2832.8,1842.7,2817.7,1843.7z"/>
<path d="M2033.8,1786.7c-4.2,4.4-9.3,13.7-16.9,16.9c-9.9,4.2-21,0.3-24.8-11.4c-4.2-12.7-8.3-26-9.2-39.2
	c-0.8-12.2,6-21.7,19.8-23.3c13.8-1.6,21.6,5.5,24.4,18.2C2029.5,1759,2030.9,1770.3,2033.8,1786.7z"/>
<path d="M1815.4,2631.2c0.3,14.5-12.4,26.7-29,27.9c-12.8,1-24-9-25-22.3c-1.2-15.5,10.7-28.6,26.4-29.3
	C1803.4,2606.9,1815.1,2616.9,1815.4,2631.2z"/>
</svg>
