<?xml version="1.0" encoding="utf-8"?>
<!-- Generator: Adobe Illustrator 24.3.0, SVG Export Plug-In . SVG Version: 6.00 Build 0)  -->
<svg version="1.1" id="Layer_1" xmlns="http://www.w3.org/2000/svg" xmlns:xlink="http://www.w3.org/1999/xlink" x="0px" y="0px"
	 viewBox="0 0 4000 4000" style="enable-background:new 0 0 4000 4000;" xml:space="preserve">
<path d="M3214.6,875.4c8.8,3.1,15.4,5.9,22.3,7.8c135.5,38.2,266.3,88.4,386.8,161.7c45.4,27.6,87.6,60.8,129.1,94.1
	c34.5,27.7,60.2,64,83.3,101.5c28.7,46.5,43,97.6,44.7,151.9c7,216.2-4.4,431-49.9,643.2c-35.8,166.9-90.8,326.5-176.6,474.6
	c-77.4,133.6-175.8,249.5-297,345.7c-94.7,75.2-196,139.7-307.6,186.8c-15.7,6.6-21.8,16.5-24.6,32.5
	c-6.5,37.1-14.4,73.9-22.3,110.7c-11.1,51.8-42.6,87.5-89.4,110.6c-70.2,34.5-145.6,52.1-221.6,67.2
	c-209.4,41.7-421.4,51.6-634.2,47.6c-145.7-2.7-290.5-16.3-434-41.1c-79.3-13.7-157.5-32.4-233.1-61.7
	c-76.1-29.5-122.9-80.4-135.6-161.7c-3.5-22.7-9.8-45.1-12.3-67.8c-2.3-21-10.9-33.3-30.8-42.2c-105.4-47.5-203.3-107.9-294.1-179.4
	c-185.6-146.1-317.3-331.6-401.8-551.4c-63.1-164.3-100.3-334.4-115.2-509.6c-10.3-121.1-13.3-242.5-10.9-363.9
	c0.6-29.2,3.3-58.6,8.1-87.4c11.9-70.7,49-128.2,98.1-178.8c65.1-67,143.1-115.7,225.8-156.9c144-71.8,295.7-122.2,452.3-157.4
	c101-22.7,202.6-42.9,304.7-59.7c78.4-12.9,157.8-20.8,237-26.9c97-7.4,194.3-11.6,291.6-15.4c151.8-5.8,303.6-1.8,455.1,8.4
	c93.9,6.3,187.4,18.5,281,28.1c3.1,0.3,6.3,0.5,9.3,1.2c29.2,6.7,49.8-2,70.5-25.8c50.3-57.8,109.3-106.8,173.2-149.2
	c21.5-14.3,45.7-26.2,70.3-33.5c58.5-17.4,110.6,8.3,131.2,65.9c10.4,29,15.2,60.9,17.5,91.8c2.6,35.4-0.5,71.1-1,106.7
	C3214.5,854,3214.6,864.4,3214.6,875.4z M454.9,1574.5c0,27.3-0.5,49.2,0.1,71c4.9,175.5,28.2,348.4,78.7,516.8
	c62.6,208.9,163.4,395.9,319.6,550.7c151.5,150.1,331.8,253.4,531.4,324.7c172.4,61.6,350.5,97.9,532.8,111.7
	c232.7,17.6,464.3,9.2,693.9-36.3c190.1-37.7,371.8-98.1,540.2-195.9c243.5-141.4,422.6-339.3,529.1-601.3
	c92.6-227.9,129.1-466.8,140.5-710.6c0.4-7.6-2.1-15.3-3.8-26.7c-8.7,7.2-14.7,11-19.4,16.1c-63.1,69-139.4,119.9-221.4,162.9
	c-105.1,55.1-215.3,97.7-329,131c-281.7,82.5-570.2,123.1-862.7,136.8c-216.7,10.2-433.3,7.5-649.5-10.9
	c-182.7-15.6-363.8-41.5-542.4-83.6c-162.3-38.2-321.6-85.4-471.3-160.3c-94.2-47.2-182.7-102.2-251.1-184.5
	C467.3,1582.2,462.6,1580,454.9,1574.5z M3358.7,1370.6c2.7,14.2,4.3,23.1,6,31.9c4.6,23.6,10.8,47,13.5,70.8
	c4.5,40.1-5,54.5-42.7,69.6c-34,13.6-69.2,24.4-102.2,40c-53.1,25.1-106.2,28.5-161.5,10.1c-62.2-20.7-126.4-27.2-191.8-26.7
	c-52.5,0.4-104.3-6.5-154.4-23.8c-41.5-14.3-83.1-28.4-124.7-42.4c-51.5-17.4-102.8-35.4-154.7-51.6
	c-72.3-22.5-147.7-28.2-222.3-37.9c-25.5-3.3-51.8-9.5-75.1-20.1c-31.5-14.4-33.4-41.2-8.5-64.5c4.6-4.3,9.8-8.2,13.3-13.3
	c29.1-42.6,64.2-79.8,102-114.6c0.9-0.9,0.1-3.7,0.1-7.6c-10.1-0.7-20.2-1.8-30.4-1.9c-179-2.2-357.7,1.2-536.1,19.3
	c-167.9,17-334,42.1-497.8,82.8c-116,28.9-229.4,65.1-335.9,120.4c-46.6,24.2-91.4,51.1-129.2,88.1c-4.8,4.7-8.2,11-13.4,18
	c10.4,8.7,18.3,17.4,27.9,23.1c49.5,29,97.8,61,149.7,85c138.4,64.1,285.8,100.5,434.8,130.2c199.5,39.7,401.6,58.2,604.5,67.7
	c235.6,11,470.7,3.4,705.2-23.1c202.1-22.8,401.4-58.4,595.7-120.1c110.4-35,215.9-79.5,309.7-148.6c9-6.6,17.5-14,29.2-23.5
	C3512.6,1440.9,3440.1,1404.4,3358.7,1370.6z M3243,952.4c2.1,45,17.1,65,50.8,78.8c59.9,24.6,119.8,49.7,178.4,77.3
	c61.2,28.8,114.8,69,159.8,119.8c90,101.5,90.1,225.3-9.4,318.7c-31.7,29.8-68.3,55.4-105.7,78c-136.7,82.6-287.2,130.8-441.2,168.3
	c-261.4,63.6-527.8,90.4-796,99.1c-241.1,7.9-481.4-4.2-720.8-34.9c-180.9-23.2-359.5-56.3-533.5-112.6
	c-98-31.7-193.4-68.1-281.1-122.8c-57.6-35.9-108.3-79.1-142.2-139c-18.3-32.2-31.1-66.7-28.3-104.5c3.6-48.4,22-91,53.2-128.4
	c27.7-33.3,59.5-61.5,95.2-86c126.3-86.5,268.7-135.1,414.7-174.2c135.6-36.3,273.8-59.5,412.9-77.9
	c150.7-19.9,302.1-30.5,453.8-34.2c220.1-5.3,439.6,3.1,658.3,29.9c9.1,1.1,21,3.2,27.3-1.3c19.1-13.6,37.7-28.7,48.1-53.5
	c-13.4-2.6-24.5-5.8-35.8-6.7c-128.3-10.7-256.4-25.4-384.9-30.7c-273.5-11.4-546.2,1.6-817.5,40.7
	c-144.2,20.8-286.3,50.5-426.4,89.9c-137.4,38.7-270.3,89-393.3,162.7c-67.8,40.6-130.2,87.6-177.9,152
	c-61.2,82.6-61.3,175.5-0.4,258.7c48.7,66.5,114.1,113.3,183,155.6c119.8,73.5,251.6,118.1,385.6,156.4
	c141,40.4,284.3,69.8,429.6,90.5c140,19.9,280.6,35,421.8,39.8c240.8,8.2,481.4,4.3,721.4-22.5c191.7-21.4,380.9-55.4,566.5-108.2
	c141.4-40.2,278.4-91.7,404.1-169.3c61.7-38.1,120.1-81.2,162.6-141.2c62-87.6,63.2-165.3,4.9-253.6
	c-34.4-52.1-79.8-94.2-130.9-129.7c-111-77.2-233.5-130.7-361.7-171.8C3273.3,960.8,3258.5,956.9,3243,952.4z M2219.5,1342
	c15.6,1.9,27.7,3.2,39.7,4.8c42.5,5.7,85.2,10.3,127.4,17.4c87.2,14.6,169.7,45.5,251,78.9c96.9,39.9,196.1,63.7,302,61.8
	c44.2-0.8,90.5,6.8,132.5,20.7c56.9,18.7,107.9,15.7,159.7-12.7c19-10.4,41-15.1,61.6-22.6c5.6-2.1,10.9-5,17.9-8.3
	c-1.9-12.5-3-23.9-5.5-34.9c-15.1-66.3-32.3-132.2-45.6-198.8c-17.9-89.6-41.4-177.2-80-260.4c-21-45.4-31-93-28-143.3
	c1.6-27.2,2.3-54.4,1.9-81.6c-0.4-24-0.3-48.5-4.9-71.9c-10.6-54.1-37-66.3-85.4-40.3c-21.1,11.3-41.2,25-60.4,39.3
	c-73.5,54.5-139.3,117.4-195.4,189.7c-37.2,47.9-82,85.1-135.7,114.1c-58.8,31.7-116.4,66.6-171.4,104.7
	c-61.9,42.9-121.2,89.6-179.7,137.1c-31.5,25.6-59.2,56-88.1,84.6C2228.5,1325,2225.8,1332,2219.5,1342z M660.5,1460.4
	c11.7-9.2,18.7-15.1,26.1-20.6c27-19.8,52.9-41.2,81.3-58.7c82.4-50.8,172.1-85.9,263.8-115.5c143.7-46.3,291.4-75.4,440.3-98.5
	c194.7-30.2,391.1-42.1,587.9-44.6c93.1-1.2,186.2,2.2,279.3,4c13.1,0.2,24.1-1.7,34.4-11.1c55.9-51,118.5-92.7,183.1-131.7
	c5.7-3.5,10.8-8.1,20.4-15.4c-9.5-2.1-14.2-3.7-19-4.1c-71.9-6-143.8-14.3-215.8-17.4c-278.6-12.1-556.6-4.3-832.8,37.1
	c-184.4,27.6-366.5,64.8-541.8,130.6c-81.7,30.7-161,65.9-229.1,121.3c-28.1,22.9-55.3,48.7-76.6,77.7
	C628.8,1358.4,634.9,1407.3,660.5,1460.4z M2955.8,3088.2c-550.5,181.5-1096.2,183.2-1643.7-3.9c0,6.8-1.2,13.1,0.2,18.7
	c5.4,21.3,11.9,42.3,17.6,63.5c8.8,32.8,29.5,55.1,60.3,67.6c31.9,13,63.6,27,96.6,36.7c136.3,39.7,276.3,57.8,417.4,67.4
	c145.3,9.9,290.8,11.2,436.2,1.8c130.7-8.4,260.6-23.4,388.3-52.9c50.7-11.7,99.8-30.6,148.9-48.3c22.6-8.1,44.1-20.9,54-45.1
	C2945.2,3160.8,2952.1,3126.3,2955.8,3088.2z M3614.2,1453.2c21.7-38.1,23.5-72.2,11.6-107.5c-15.5-46-44.6-82.3-81.8-112.5
	c-68.9-56-147.7-94.1-230.3-124.9c-4.2-1.6-9.4-0.2-15.8-0.2c1.3,7.3,2,12.3,3.1,17.3c10.3,46.9,22.2,93.5,30.2,140.8
	c3.8,22.3,11.3,33.8,33.8,41.2c82,27.2,156.9,68,222.1,125.5C3594.6,1439.5,3603.2,1445,3614.2,1453.2z"/>
<path d="M2133.5,2474.7c59.6,0,119.3-0.3,178.9,0.2c17.7,0.1,35.5,2.3,53.2,3.1c17.8,0.8,26.3,10.5,28,27.5
	c9.1,91.4-5.1,178-59.2,253.9c-65.6,92.2-204.3,124.7-310.9,76.6c-83.5-37.7-129.9-103.9-144.7-191.7c-6.9-40.9-6.7-83.2-6.6-124.9
	c0.1-32,9.9-41,41.7-42c73.2-2.5,146.4-3.7,219.6-5.4C2133.4,2472.8,2133.4,2473.7,2133.5,2474.7z M2290.9,2731.6
	c-69-90.2-252.2-90.7-319.3,0.3C2044.5,2835.3,2228.5,2822.1,2290.9,2731.6z"/>
<path d="M2538.2,2392.4c1.2-92.7,75.2-166.4,166.1-165.6c91.3,0.8,164.8,76.1,163.9,167.8c-1,91.6-78.8,167.4-170.3,165.8
	C2608.5,2558.8,2537,2483.6,2538.2,2392.4z M2795.3,2344.5c0.5-31.2-21.6-54.1-52.3-54c-31.8,0.1-53.6,20.8-54.6,52.2
	c-1,31.4,20.4,53.7,51.9,53.9C2770.9,2396.9,2794.8,2374.2,2795.3,2344.5z"/>
<path d="M1715.1,2393.4c4.5,77.2-58.9,165.3-168.2,164.8c-85.5-0.3-155.2-76.4-154.5-165.2c0.8-95.4,66.4-164.2,157.5-163.1
	C1646.3,2231.1,1720.1,2304.4,1715.1,2393.4z M1586.6,2398.1c33.2,0.6,56.7-21,57.4-52.8c0.7-28.4-24.9-54.3-53.6-54.4
	c-30.8-0.1-56.2,24.3-57.3,55C1531.9,2376.5,1553.4,2397.5,1586.6,2398.1z"/>
<path d="M3022.9,2599.5c-3.9,6.9-6.7,13.7-11,19.3c-27.7,36.6-55.7,73-83.6,109.4c-1.9,2.5-3.7,5.8-6.3,6.9c-7.9,3.3-17.7,10-24,7.7
	c-12.2-4.5-19-16.3-16.1-30.4c1.2-5.9,4.6-11.8,8.4-16.5c28.5-36,57-72,86.3-107.3c13.5-16.2,27.2-16.7,39.4-2.9
	C3019.1,2589.2,3020.4,2594.5,3022.9,2599.5z"/>
<path d="M1387.5,2575.6c30.5,20.1,31.8,25.2,13.6,49.3c-23.3,30.8-46.7,61.6-70.3,92.2c-5.7,7.4-11.9,14.6-18.5,21.2
	c-7.1,7.1-15.5,11.2-25.1,4.3c-10.3-7.4-16.2-16.8-10.3-29.5c3.5-7.5,7.7-15,12.8-21.5c26.4-33.7,53.1-67.3,80.1-100.5
	C1374.8,2584.9,1381.9,2580.4,1387.5,2575.6z"/>
<path d="M2816.1,2715.2c-17.2-0.1-30.7-20.6-26.2-35.1c1.8-5.8,5.3-11.5,9.3-16.1c23-27,45.8-54.2,70-80.2c5.5-5.9,16.4-10.8,24-9.8
	c18.3,2.4,24.8,19.3,13.7,35c-12.6,17.9-27.2,34.3-40.9,51.4c-11.1,13.8-21.8,28.1-33.4,41.4
	C2827.3,2707.7,2820.2,2712,2816.1,2715.2z"/>
<path d="M1209.3,2711.7c-18.6,0.8-32-16-27.6-30.3c2.4-7.7,7.2-15.2,12.4-21.4c21.4-25.6,43-51,65.2-75.9
	c13.1-14.7,22.5-15.7,34.6-5.5c12.4,10.5,12.9,17.8-0.4,34.8c-21.8,27.9-44.1,55.5-66.7,82.8
	C1221.1,2703,1213.3,2708.2,1209.3,2711.7z"/>
<path d="M3019.5,2743.6c-19,1-32-17.3-26.9-33.2c1.8-5.8,5.6-11.2,9.5-15.9c18.7-22.3,37.4-44.6,56.9-66.2
	c12.2-13.6,24.4-15.7,35.4-8.2c11.5,7.9,13.2,19.7,1.7,35.4c-19,26-39.1,51.2-59.6,76.1C3031.5,2737.6,3023.4,2741,3019.5,2743.6z"
	/>
<path d="M1467.1,2617.4c19.7-1.3,31.9,14.6,26.9,29.6c-2.3,6.7-6.8,12.8-11.3,18.5c-18,23-35.9,46-54.7,68.3
	c-7.6,9-18.3,15.8-29.8,5.7c-10.3-9-14.4-20.5-6.8-33.5c3.7-6.3,7.9-12.3,12.5-17.9c15.1-18.6,30.3-37.1,46-55.2
	C1455.7,2626.1,1463.2,2620.8,1467.1,2617.4z"/>
<path d="M1755.9,1612.2c-3.5-1.9-13.4-6.6-22.6-12.4c-15.6-10-30.1-21.7-46.1-30.9c-22.6-12.9-30.5-29.1-20.7-47.7
	c9.4-18,35.3-24.2,54.5-11.2c22.3,15.1,43.7,31.7,64.8,48.5c10.5,8.4,14.7,20.1,9.9,33.6C1791,1605.4,1780.8,1611.7,1755.9,1612.2z"
	/>
<path d="M2618.8,1679.6c-9.6-5.3-21.9-8.4-28.4-16.2c-12.2-14.7-27-22.1-44.8-26.4c-6.8-1.7-13.6-5.3-19.1-9.7
	c-10.5-8.3-12-20.9-5.9-31.2c4.7-7.9,14-14.9,22.8-18c7-2.5,17.2-0.5,24.4,2.9c24.5,11.6,48.8,23.7,72,37.6
	c15.3,9.1,17.9,22.1,12.4,38.1C2647,1672.1,2635.5,1676.9,2618.8,1679.6z"/>
<path d="M1839.9,1399c-13.1,1.3-21.8-4.3-27.5-16.2c-6.2-13.1-3.9-25,5.4-34.7c5.5-5.8,13.4-11.1,21-12.7c20-4,37.3-12.4,53.5-24.6
	c5.5-4.2,13.4-6.5,20.4-7c15.3-1,25.8,7,31.4,21.1c4.8,12.2,2.2,24.8-8.4,30.8c-27.1,15.2-55.4,28.2-83.4,41.7
	C1848.7,1399.2,1844.1,1398.5,1839.9,1399z"/>
<path d="M1090.6,1511c-22.2-1-34.3-18-28.3-37.2c0.9-3,1.8-6.8,4-8.3c29.6-20.5,58.6-42.2,89.8-60.1c12.5-7.1,26,2.9,33.6,15.9
	c6.5,11.2,6.4,24.3-3.5,31.5c-27.7,19.9-56.8,37.9-85.6,56.3C1097.3,1511.1,1092.5,1510.6,1090.6,1511z"/>
<path d="M2133.8,1621.7c-14.5-0.9-28.1-1.9-29.6-18.3c-1.4-14.6,8.4-23.1,21.4-26.7c15.3-4.2,31.6-6.2,43.2,7.7
	c3.8,4.6,5.6,14.2,3.5,19.7C2165.1,1622.1,2146.9,1618.4,2133.8,1621.7z"/>
<path d="M1315.8,1388.4c-16.3,0.1-24.6-7.2-24.5-21.3c0.1-15.4,12.1-28.3,26.9-28.9c13.9-0.6,27.8,10.7,28.7,23.3
	C1348,1377.2,1335.2,1388.3,1315.8,1388.4z"/>
<path d="M1380.4,1557.5c13.7-0.3,26.4,9.3,27.1,20.3c0.9,13.6-12.5,25.7-28.9,25.9c-15.2,0.2-24.2-7.8-24.2-21.6
	C1354.3,1567.8,1365,1557.8,1380.4,1557.5z"/>
<path d="M2891.4,922.1c4.1-28,12.3-47.8,28.8-63.3c9.1-8.6,20.2-11.3,31.2-4.1c10.5,6.9,15.8,18.6,11.2,29.8
	c-7.9,18.9-17.5,37.5-29.2,54.2c-3.6,5.1-18.6,7.7-24.5,4.5C2900.4,938.4,2895.4,927.4,2891.4,922.1z"/>
<path d="M2565,1222.6c-0.7,22.9-17.9,42.3-37.5,42.2c-15.2-0.1-27.9-15.2-26.9-32c1.2-20.9,21.7-41.7,39.9-40.5
	C2555.5,1193.3,2565.5,1205.8,2565,1222.6z"/>
<path d="M2755.6,1165.8c-20.6-0.7-34.3-14.2-33.3-32.6c1-18.3,13.9-30.1,32.5-29.8c20.4,0.3,35.1,13.5,35.2,31.5
	C2790,1154.5,2776.6,1166.6,2755.6,1165.8z"/>
<path d="M3001.7,1328.9c-17.9,0.5-30.5-10.5-31.8-27.5c-1.3-18,12-32.4,30.2-32.7c17-0.3,32.9,15,32.6,31.4
	C3032.4,1316.3,3019.3,1328.5,3001.7,1328.9z"/>
<path d="M2995.2,1060.7c0.1-16.2,8-26.2,20.7-26.2c13.2,0,23.1,10.3,23.6,24.3c0.5,15.3-7.6,24.6-21.6,25.1
	C3002.7,1084.4,2995.1,1076.6,2995.2,1060.7z"/>
<path d="M2736.3,1391.3c-12.5-0.7-20.7-9.7-20.3-22.5c0.5-14.9,12.2-27.1,25-26c12.2,1,21.5,13.2,20.4,26.6
	C2760.2,1382.9,2749.8,1392,2736.3,1391.3z"/>
<path d="M3103.7,1208.8c12.8,0.5,22.2,9.8,22,21.7c-0.3,14.1-13.5,28.1-25.1,26.8c-12.6-1.4-19.8-10.5-19.4-24.1
	C3081.7,1217.8,3090.4,1208.3,3103.7,1208.8z"/>
<path d="M3072.1,794c0.3,13.9-9.7,25.5-22,25.6c-11.9,0.1-21.7-9.3-22.5-21.6c-0.9-13.9,8.7-24.6,22.1-24.7
	C3063.3,773.1,3071.9,781.1,3072.1,794z"/>
<path d="M3113.8,1476.3c-12.9,0.5-22.6-7.6-23.4-19.6c-0.9-12.6,10-23.6,23.3-23.5c12.4,0.1,21.1,8.9,21.4,21.7
	C3135.3,1467.7,3127.3,1475.8,3113.8,1476.3z"/>
</svg>
