<?xml version="1.0" encoding="utf-8"?>
<!-- Generator: Adobe Illustrator 24.3.0, SVG Export Plug-In . SVG Version: 6.00 Build 0)  -->
<svg version="1.1" id="Layer_1" xmlns="http://www.w3.org/2000/svg" xmlns:xlink="http://www.w3.org/1999/xlink" x="0px" y="0px"
	 viewBox="0 0 4000 4000" style="enable-background:new 0 0 4000 4000;" xml:space="preserve">
<path d="M1951.6,3753.6c-436.6-15.3-828-156.5-1163.5-443.3c-279.4-238.8-465.8-537.5-559.7-892.5c-59.4-224.4-76.2-452.8-43-683.3
	c59.3-411.6,238-762.7,542-1047.1c278.3-260.4,607.8-418,984.9-473.3c193.8-28.4,387.9-23.3,580.6,12.7
	c294,54.9,559.9,172.6,796.4,356.7c250.9,195.3,432.9,442.4,554,734.9c56.5,136.4,89.1,279.5,109.7,425.4
	c16.8,118.7,19.3,238,8.2,357.1c-33.8,364.4-158.2,694-388.6,980.3c-179.7,223.2-400.5,394.5-662.7,511.2
	C2469.4,3699.5,2217.7,3754.6,1951.6,3753.6z M3715.8,1953.7c-2.3-212.3-41.7-417.1-121.1-613.9c-131.9-327-344.9-589.4-636.8-786.2
	C2593.2,307.8,2189.9,213.7,1754.1,262c-191.2,21.2-373.8,77.2-547.2,161.4C980.3,533.4,783.6,682.1,620.6,874.9
	c-113.7,134.5-201.8,284-269.5,446.3C266.4,1524.6,222,1736,221.8,1956.4c0,26.4,3.1,52.9,6.6,79.1c3.9,29,16,55.1,34.6,77.8
	c33.6,40.8,70.4,48.4,117.6,25.3c15.8-7.8,31.3-16.8,48-22.2c41.2-13.3,78.2,5.1,92.8,45.8c5.5,15.4,9.2,32,10.8,48.3
	c5,48.3,7.3,96.9,13,145.1c5.5,46.4,16.2,91.7,47.7,128.5c34.6,40.4,82.9,37.4,109.1-9c13.4-23.6,23.7-50.3,28.9-76.8
	c10.4-53,15.9-107,24.2-160.4c4.9-31.1,17.5-59.4,37.5-83.8c52.2-63.8,156.7-63.4,195.6,19c11.8,24.9,21.2,51,33.6,75.6
	c8.8,17.6,18.5,35.8,31.8,49.8c37,38.8,94.4,30.2,119.8-16.8c6.7-12.5,12.5-26.4,14.5-40.2c5-34.9,8.9-70.1,10.6-105.2
	c2.2-44.1,0-88.4,2.8-132.5c4.4-70.7,19.4-139.4,72.5-190.8c44.3-42.8,79.8-91.1,110.1-144.1c21.6-37.8,53.4-64.2,94.3-79.6
	c20.7-7.8,41.2-16,61.8-23.9c63.7-24.5,115.5-64.1,153.7-121c12.3-18.3,23.2-37.8,36.9-55c23.2-29.3,44.8-61.3,73-85.1
	c84.7-71.4,182.8-80.2,275.5-20.9c18.6,11.9,36.4,25.1,53.7,38.7c44.8,35.3,95.1,50.1,151.9,43.1c24.1-3,48.3-5.4,72.4-8.3
	c146.2-17.3,263,58.1,308.5,198.4c21.7,66.8,31.1,135.6,33.5,205.3c3.1,88.3,2.4,176.7,5.9,265c2.2,55.1,7,110.2,14.8,164.7
	c5.8,40.5,19.3,79.7,48.7,110.6c33.6,35.3,83.4,32.1,111-7.8c9.9-14.4,17.4-30.7,24.1-47c9.3-22.4,16.5-45.7,25.5-68.3
	c5.3-13.3,10.9-26.8,18.7-38.6c33.5-50.4,101.7-52.1,137.1-3.2c8.3,11.4,15,24.8,18.9,38.4c9.8,33.9,16.4,68.7,26.6,102.4
	c10.1,33.6,19,68.6,35.4,99.2c31.2,58.2,96.7,56.7,127.1-1.9c13-25.1,20.7-53.3,28.6-80.8c12-41.3,20.3-83.7,33.7-124.5
	c11-33.6,33.5-59.6,68.3-72.2c49.3-17.8,91.2-4.3,127.2,31.4c12.5,12.4,23.1,26.7,34.8,39.9c17.6,19.9,38.8,23.3,63.1,14
	c20.8-8,36.3-22,44.2-42.2c7.1-18.3,13.7-37.7,15.5-57.1C3712.7,2039.8,3713.6,1996.7,3715.8,1953.7z M236.5,2168.2
	c0,12.3-0.9,20.7,0.1,28.9c11.7,88.8,29.3,176.4,55.2,262.2c60,198.6,153,380.2,279.8,544.9c193.1,250.7,435.1,438.8,726.4,559.9
	c296.6,123.3,605.5,165.7,925,116.7c163.7-25.1,321.2-70,471.8-139.3c257.5-118.5,475.8-287.4,651.5-509.8
	c182.4-230.8,296.2-492.7,345.2-782.7c1-6.1,0.1-12.5,0.1-18.2c-4.3-1.1-6.5-2.3-8.4-1.9c-4.3,0.7-8.6,1.9-12.7,3.5
	c-53.9,21.2-96.8,3.2-133.6-37.1c-10.4-11.4-20.2-23.6-31.8-33.6c-30.6-26.2-73.2-19.8-94.1,14.4c-7.4,12-12.4,25.9-16.1,39.7
	c-7.4,27.7-13.1,55.9-19.7,83.8c-9.4,39.9-22.2,78.4-44.6,113.4c-47.4,74.2-148.9,71.9-194.7,10.7c-15.6-20.9-28.9-44.8-37.8-69.2
	c-11.9-33-18.3-68.1-27.5-102.1c-6.3-23.4-12.1-47-20.3-69.7c-4.9-13.5-13.9-26.1-31.1-25.6c-16.4,0.5-25.8,11.6-31.6,25.5
	c-8.5,20.4-15.9,41.2-24.1,61.7c-14.8,37.2-32.4,72.6-62.1,100.7c-35.9,34-77,40.4-122.7,24.3c-28.1-9.9-51.8-27.2-65.9-52.8
	c-16.3-29.7-31.2-61-41-93.4c-19-62.9-19.4-128.5-20.2-193.8c-1.2-87.3-2-174.5-3.6-261.8c-1.2-64.3-9.2-127.7-28.2-189.4
	c-43.4-140.6-153.6-182.7-254.1-167.9c-15.3,2.3-30.8,3.2-46,5.9c-84.4,15.2-159.6-4.2-226.8-57.8c-19.7-15.8-41-30.3-63.3-42
	c-44.6-23.6-91-23.3-137.6-4.3c-40.2,16.4-71.7,43.2-95.9,78.7c-25.5,37.4-50.1,75.4-74.9,113.3c-1.5,2.3-1.4,5.7-2.7,11.7
	c11.3-3.8,20.6-6.4,29.4-10c70.5-28.7,143.6-42.5,219.8-41.8c168.7,1.5,313.3,60.3,428.8,184c204.2,218.7,209,579.4-16,811.8
	c-188.2,194.3-489.7,228.7-717.9,82c-170.1-109.4-264.4-267.6-275.6-469.6c-8.5-154.2,45.9-290.2,141.9-410.1
	c6.9-8.6,18.7-14.7,18.2-32c-42.7,9.9-81.6,20.1-105,59c-33.2,55.1-73.1,104.6-118.9,150c-39.6,39.3-61.4,88.7-64.4,145.2
	c-1.7,32-2.7,64-4.3,95.9c-2.2,44.1-1.5,88.6-8,132.1c-5,33.3-15.3,67.1-30.2,97.2c-27.8,56-86,77-146.2,59.5
	c-46.7-13.6-72.5-48.4-92-89.3c-12.3-25.9-21.4-53.3-33.9-79.1c-22-45-62.1-53.6-99.7-20.2c-13.4,11.9-23.2,29.3-30.9,45.9
	c-6.4,13.7-8.1,29.7-10.4,45c-6.8,45.9-11.5,92-19.4,137.7c-7.2,41.8-21.9,81-49.5,114.3c-36.9,44.6-92.6,54.5-143.1,26.1
	c-45.5-25.6-71-67.1-82.9-115.1c-11.4-45.8-15.9-93.3-22.5-140.2c-5.1-36-7.3-72.5-13.6-108.2c-3.5-20.1-11.8-23.6-31.2-17.1
	c-17.7,6-34.6,14.4-51.7,22.1c-30.4,13.6-62.2,17.2-93.7,7.1C277,2191.9,260.2,2180.4,236.5,2168.2z M1971.7,1515.9
	c-330.4,7.1-538.7,271.1-534.1,532.6c5.3,303.4,259,540.4,547.4,530.6c290.2-9.8,521.7-254,513.8-545.8
	C2490.5,1725.6,2240.7,1515.6,1971.7,1515.9z"/>
<path d="M3198.8,1676.9c-0.3,49.2-35,89.1-77.1,92.1c-24.9,1.8-45.2-7.6-62.3-25.1c-37.8-38.7-75.9-77.2-113.5-116.1
	c-14.8-15.4-26-33.2-27.1-55.3c-1.5-29.7,8.3-55,33.8-71.2c25.9-16.5,54-19.3,81.7-3.8c10.5,5.9,20.6,13.2,29.3,21.4
	c36.2,34.1,71.9,68.7,107.5,103.3C3187.3,1638,3200.2,1655.7,3198.8,1676.9z M3148,1679.4c-4-5.2-9.7-14.3-17.1-21.8
	c-33.3-33.6-67-66.7-100.7-99.9c-5.5-5.4-11-11.1-17.4-15c-11.8-7.3-23.1-4.8-32.9,4.8c-10.2,9.9-12,20.7-3.5,32.3
	c5.2,7.1,10.8,13.9,16.9,20.1c33.2,33.6,66.6,66.9,100.1,100.3c3.1,3.1,6.3,6.3,10.1,8.4C3121.2,1718.4,3147.4,1704,3148,1679.4z"/>
<path d="M1654.1,737.9c-24.6-0.4-46.2-8.8-60.2-29.1c-34.3-49.9-69.2-99.5-100.4-151.4c-23-38.3-10.4-82.4,24.6-104.3
	c37.9-23.8,82.2-17.5,108.8,19.5c32.7,45.6,62.4,93.4,93,140.5c4.7,7.3,8.2,15.7,10.7,24.1C1746.4,690.4,1709.6,738.7,1654.1,737.9z
	 M1570.3,495.8c-26.4,2-40.2,23.2-25.6,43.4c30.8,42.8,59.3,87.2,89.5,130.4c11.7,16.7,21.5,18.2,35.9,8.9
	c14.6-9.4,17.4-18.8,6.2-36.3c-28.3-44.4-57.6-88.3-87.4-131.8C1583.9,503.2,1574.4,499,1570.3,495.8z"/>
<path d="M1081.6,1473.8c-0.2-60,64.8-110.3,123.5-70.3c47.4,32.3,95.4,63.8,142.1,97.1c32.2,23,41.6,60.6,26.4,93.8
	c-15.5,33.9-53.7,55-89.8,47.1c-15.8-3.5-31.9-9.9-45.5-18.6c-39.8-25.7-78.8-52.8-117.5-80.3
	C1092.9,1522.8,1081.2,1500.7,1081.6,1473.8z M1324.1,1557.1c-4.7-5.1-11.4-15-20.4-21.5c-37.5-27-75.8-53-113.8-79.3
	c-21.3-14.8-37.2-14.2-49.2,1.8c-11.9,15.7-7.8,28,16.9,45.1c36.2,25.1,72.7,49.7,109.2,74.3c6.4,4.3,13,8.6,20.2,11.2
	C1305.3,1595.2,1323.7,1582.3,1324.1,1557.1z"/>
<path d="M1982.9,1132.8c-1,32.7-16.3,56.9-45.1,71.8c-27.8,14.4-55.8,14.1-81.1-5.3c-45.6-34.9-91.5-69.5-135.1-106.8
	c-49.6-42.3-34.5-115.5,26.5-138.4c26-9.8,50.8-6.9,72.1,9.8c46.9,36.8,93.2,74.4,138.9,112.7
	C1976,1090.8,1983.6,1110.4,1982.9,1132.8z M1928.7,1130c-2.3-3.8-4.7-10.4-9.3-14.7c-11.3-10.5-23.7-19.8-35.5-29.7
	c-28.8-24.1-57.2-48.6-86.5-72.1c-19.1-15.4-33.8-13.8-45.2,2.7c-10.3,14.8-7.7,25.9,11.8,42c37.6,30.7,75.6,60.9,113.6,91.1
	c5.1,4,10.9,8,17,9.8C1909.8,1163.6,1929.9,1147.3,1928.7,1130z"/>
<path d="M1070.9,1098.3c-0.6,32.6-15.3,57.5-43.3,73.2c-27.2,15.2-55.5,15-81.2-3.5c-45.6-32.9-91.3-65.7-135.2-100.8
	c-38.1-30.5-41.9-82.6-11.9-117.6c26.7-31,65.9-38.1,101.1-15c34.1,22.3,66.2,47.6,99.1,71.8c15.1,11.1,30.6,21.8,44.8,34
	C1063.8,1057,1071.1,1074.6,1070.9,1098.3z M1020.6,1098.8c-6.6-9.1-10.2-17.8-16.7-22.6c-43.2-32.2-87-63.6-130.6-95.2
	c-13.3-9.6-25.1-5.6-35,5.6c-10,11.2-6.3,22.3,1.9,32.8c2,2.6,4.1,5.3,6.7,7.2c43,32.5,85.7,65.3,129.4,96.8
	c5.6,4.1,18.3,4.7,23.9,1.1C1008.4,1119,1013.3,1108.4,1020.6,1098.8z"/>
<path d="M701.7,1706.5c0-38.2,22-67.2,54.3-78.1c33.8-11.5,67-3.4,87,21.9c6.8,8.6,12.5,18.2,17.9,27.8
	c23.7,42.4,47.1,84.9,70.5,127.4c23.9,43.4,14.2,83.1-26.2,109c-37,23.7-81.7,15.8-106.7-24c-31.7-50.4-59.6-103.1-88.2-155.4
	C704.6,1724.8,703.3,1712.2,701.7,1706.5z M790.9,1677.1c-27.3,1.5-38.6,19.3-28.2,39.8c24.1,47.1,49.2,93.7,75.2,139.8
	c10.3,18.3,20.3,20.6,35.2,13.5c16.8-8.1,21.5-18.4,11.3-38.1c-25-47.9-51.5-94.9-78.2-141.8C802.4,1683.6,794,1679.6,790.9,1677.1z
	"/>
<path d="M3255.2,2063.5c-29.8-1.1-52.9-13-66.5-40.8c-14.8-30.1-16.2-59.9,4.6-87.3c9.2-12,21.4-22.3,33.8-31.2
	c35-25,70.7-48.9,106.3-73.1c6.4-4.3,12.9-8.5,19.7-12.1c38.4-20.1,76.8-12.8,100.7,19c26.3,34.9,24,77.3-6.4,108.3
	c-4.6,4.7-9.8,8.9-15.2,12.8c-37.6,27-75.2,54.1-113.1,80.6C3300.1,2053,3279.9,2064.4,3255.2,2063.5z M3417.1,1894.6
	c1.6-28-19.4-41.9-40.3-28.2c-46.9,30.8-92.2,64.1-137.1,97.9c-14.3,10.7-12.5,23.7-0.1,36.9c12.7,13.5,26,9.7,38.5,0.8
	c41.4-29.2,82.7-58.6,123.5-88.6C3409.1,1907.9,3413.8,1898.7,3417.1,1894.6z"/>
<path d="M1600.3,1180.8c0.7,22.1-8.9,43.3-29.2,57c-50.2,34-100.4,68.4-152.7,99.1c-35.9,21.1-72.6,10.1-96.5-22.5
	c-24.6-33.5-23.5-73.6,3.4-103.2c5.9-6.5,12.7-12.5,20-17.3c44.1-29.3,89.3-57.1,132.6-87.6
	C1520.4,1076.6,1600.3,1106,1600.3,1180.8z M1380.2,1296.2c11.4-5.6,20.7-9,28.8-14.3c38.8-25.1,77.5-50.5,115.9-76.2
	c21.5-14.4,25.8-29.7,14.4-46.9c-8.7-13.2-21.1-14.4-43.7-0.1c-40.9,25.9-80.9,53.2-121.2,80.2c-4.5,3-9.9,6.5-11.9,11.1
	c-3.2,7.4-7.7,17.7-4.9,23.5C1361.8,1282.2,1371.8,1288.2,1380.2,1296.2z"/>
<path d="M3253.7,1234.9c-5.1-1.8-17.4-4-27.5-9.9c-48.4-28.4-97.1-56.6-144.1-87.1c-40.9-26.6-49.5-70.8-25.1-112.7
	c19.5-33.5,59.9-49.3,93.9-30.9c56.1,30.5,110.8,63.6,164.5,98.1c28.7,18.4,36.5,56.1,24,88.8
	C3325.9,1216.2,3296.1,1236.6,3253.7,1234.9z M3122.9,1039.9c-7.8,5.6-18.2,10.2-24.1,18.1c-7.6,10.2-2.7,21.4,6.5,29.2
	c7.5,6.4,15.8,12,24.2,17.2c35.6,22,71.3,43.8,107,65.7c22.7,13.9,38.6,12.8,49.2-3.6c10.2-15.8,4.7-29.5-19.8-44.7
	c-39.3-24.3-79.1-48.1-118.8-71.7C3140.6,1046.3,3133.1,1044.1,3122.9,1039.9z"/>
<path d="M3465.1,1683.3c-63.6,0.8-101.3-46.9-83.7-103.7c16.3-52.6,34.6-104.7,54-156.3c11.9-31.6,36.5-48.9,71.1-50.3
	c33.8-1.4,60.1,11.8,77.4,41.2c9.9,16.8,14.1,34.9,7,53.9c-21.5,57.9-42.7,115.8-65,173.4
	C3514.7,1670.2,3492.2,1683.9,3465.1,1683.3z M3429.9,1596.4c-2.1,18.6,5.5,30.3,20.7,34.7c14.6,4.2,23.7-2.8,28.7-15.2
	c11.5-28.6,22.3-57.4,33.1-86.2c8.5-22.7,16.6-45.5,24.7-68.3c4.6-12.9,3.3-24-10.5-30.6c-13.8-6.6-26.3-4.1-35.4,7.8
	c-5.2,6.8-8.4,15.4-11.6,23.6c-14.4,36.9-28.5,73.9-42.5,111C3434,1581.4,3431.8,1589.9,3429.9,1596.4z"/>
<path d="M2472.5,945.7c-0.8,24.8-10,46.4-31.1,59.2c-51,30.9-102,61.8-154.9,89.2c-38.7,20-78.8,5-99.8-31.3
	c-21.5-37.3-15.3-83.7,20.1-106.1c50.3-31.8,102.9-60,155.6-87.8C2412.5,842.3,2471.7,879.3,2472.5,945.7z M2250,1048.7
	c10.7-4.7,18-7.3,24.7-11c36.8-20,73.5-40.1,110.1-60.5c8.6-4.8,17.1-10.2,24.6-16.6c14.1-12.1,14.7-22.5,4.3-37.2
	c-9.4-13.4-21.2-14.9-34.5-7.2c-45.8,26.4-91.4,53.1-137,79.9c-3.7,2.2-9.1,5.4-9.5,8.7c-1,9.1-2,19.3,1.1,27.5
	C2236.3,1039.1,2244.8,1043.7,2250,1048.7z"/>
<path d="M2911.1,1196.6c-0.7,21.2-9,44.3-31.5,57.8c-52,31.2-104.2,62.5-158,90.3c-35,18-75.5,1.1-96.3-34.3
	c-22-37.4-17.7-82.6,16.2-103.7c53.3-33.1,108.2-64.8,165.4-90.3C2857.4,1093.9,2911.1,1136,2911.1,1196.6z M2856.2,1198.1
	c-0.8-26.9-17.4-38.7-38.7-30.9c-10.3,3.7-20,9.3-29.5,14.8c-33.4,19.4-66.7,38.9-99.9,58.7c-6.6,3.9-13,8.5-18.5,13.7
	c-9.9,9.3-8.3,21.3-1,29.9c5.5,6.5,15.4,10.1,24.1,12.7c4.4,1.3,10.9-1.7,15.6-4.4c45-25.8,89.9-51.6,134.3-78.3
	C2849.3,1210.3,2853.2,1201.7,2856.2,1198.1z"/>
<path d="M2126.3,724.2c-5.1-1.4-18.5-3.2-30.2-8.6c-45.9-21.4-91.5-43.5-136.8-66.1c-33-16.4-47.5-42.6-44.7-77.5
	c3.1-38.1,23.8-66.3,59.6-74.3c15-3.3,33.7-2.2,47.7,3.9c52.4,22.9,104,47.8,155.1,73.7c35,17.7,48.3,51.8,38.3,89.1
	C2205.3,701.6,2173.1,725.5,2126.3,724.2z M1990.7,547.8c-6.5,4.8-16.5,9.4-22.3,17.2c-7.6,10.1-3.3,21.5,5.6,29.5
	c6.4,5.8,14,10.6,21.8,14.3c38.7,18.4,77.6,36.5,116.5,54.4c6.9,3.2,14.3,5.8,21.7,7.3c12.5,2.5,23.3-3.1,25.6-15
	c1.8-9.5-1-20.8-4.8-30c-2-4.9-10.3-7.7-16.2-10.5c-41.6-20-83.3-39.8-125-59.5C2007.7,552.8,2001.2,551.3,1990.7,547.8z"/>
<path d="M507.9,1273.4c27.2,0.2,49.9,10.7,65.4,32.8c31.7,45,63.5,90.1,93,136.6c25.8,40.8,15.9,86.2-20.8,110.5
	c-35.8,23.6-84.9,15.4-111.4-21.9c-33.1-46.7-65.6-94.1-94.5-143.5C409.2,1335.7,447.9,1273.3,507.9,1273.4z M632.1,1491.7
	c-4-9-5.9-15.5-9.5-20.8c-29.8-43.7-59.5-87.6-90.2-130.6c-12.6-17.7-25.2-19.7-39.2-9.8c-13.3,9.4-14.9,21.5-3.3,40.5
	c10.4,16.9,22.3,32.8,33.8,49c19.8,27.9,39.8,55.6,59.7,83.4c6.3,8.7,14.2,15.6,24.9,9.1C617.2,1506.9,624.3,1498.7,632.1,1491.7z"
	/>
<path d="M2674.2,632c26.1,0.4,47,10.7,61.6,32.7c3.6,5.5,7.1,11.3,9.6,17.4c20.4,51.2,39.6,103,61.2,153.7
	c20.3,47.5-22.5,113.6-85.4,105.1c-24.7-3.3-44-14.8-55.6-36.9c-7.7-14.6-14-30-20-45.4c-16.2-41.1-33.2-81.9-47.4-123.6
	C2575.2,668.3,2629.3,631.6,2674.2,632z M2760.6,866.2c-4.2-13.4-6.7-23-10.2-32.2c-15.8-41.1-31.9-82.2-47.9-123.2
	c-2-5.1-4.7-10-6.8-15.1c-5.3-12.9-15.5-14.5-27.3-11.4c-19.4,5-25.7,16.7-18.1,37.9c16.3,45.7,33.4,91.1,50.4,136.5
	c2.3,6.1,5.4,12.3,9.6,17.1c9.2,10.7,21.8,11,33.3,5.7C2750.5,878.5,2755.4,871.1,2760.6,866.2z"/>
<path d="M1283.3,594.7c62.5,1.2,99.7,60.1,73.9,114.3c-6.1,12.8-14.6,24.6-23.5,35.8c-28.1,35.3-56.4,70.4-85.4,105
	c-30.9,36.9-72.5,40.5-110.7,10.7c-34.6-27.1-43.8-74.2-17.1-108.5c35.8-46,74.5-89.7,112.6-133.8
	C1246.6,602.7,1264,593.2,1283.3,594.7z M1193.1,827.5c4.9-4.3,13.9-10.4,20.6-18.4c27.6-32.9,54.5-66.3,81.6-99.6
	c4.9-6,9.3-12.3,13.8-18.5c8.6-12,5.6-22.6-4-32.5c-9.7-9.9-21.1-12.8-32.8-5.3c-8.1,5.2-15.2,12.6-21.4,20.1
	c-25.9,31.4-51.4,63.2-76.8,95c-4.8,6-9.8,12.2-12.7,19.1C1154.2,804.3,1170.2,828,1193.1,827.5z"/>
<path d="M432.4,1710c52.9,0,88.2,40.8,76.4,91.6c-12.7,54.8-26.7,109.4-42.7,163.3c-14.5,48.6-56.3,68.2-104.6,52.6
	c-37.6-12.1-60.4-46.2-51-84.8c14.1-57.8,30.6-115.1,49-171.7C371.2,1725,396.4,1710,432.4,1710z M362.4,1941.2
	c-1.7,17.3,6.3,24.6,20,27.5c18.8,3.9,30.1-1.3,35.4-20c14.4-50.9,28.2-102,41.2-153.3c5-19.8-1.2-29.4-17-33.5
	c-16.8-4.3-30.2,2.3-37.3,18.5c-1.8,4-3,8.3-4.1,12.6c-11.2,41.5-22.5,82.9-33.5,124.5C364.8,1926.1,363.6,1934.9,362.4,1941.2z"/>
<path d="M1633.1,2842.6c0,105.6-80.3,189.2-181.5,189c-100.7-0.2-183.7-81.6-183.5-179.9c0.2-103,84.5-184.2,190.9-184
	C1557.1,2667.7,1633,2744.1,1633.1,2842.6z M1556.6,2787.8c0.4-32-26.7-61-56.9-60.9c-36.2,0.1-65.1,26.2-66.3,59.7
	c-1.2,33.2,25.5,59.5,60.7,59.9C1528.6,2846.9,1556.2,2821,1556.6,2787.8z"/>
<path d="M2462.2,2669.4c87.7,0.4,184.4,56.9,183.3,176.9c-1,107.6-82.3,180.7-180.2,183.6c-96.3,2.8-182.4-84.8-181.6-181.4
	C2284.6,2748,2363,2669.3,2462.2,2669.4z M2431.1,2846.3c33.6-0.5,59.1-25.8,58.5-58.2c-0.7-33-30.1-62.6-60.9-61.3
	c-34.9,1.5-61.5,28.3-60.6,61.1C2369,2820.8,2397.1,2846.8,2431.1,2846.3z"/>
<path d="M2574,3234c-40.6-3.6-79.8-9-116.8-25c-11-4.8-22.1-10.4-31.6-17.7c-34.7-27-38.5-65.8-7.9-97.2
	c12.7-13,28.5-26.2,45.3-31.5c72.4-22.8,145.3-24.3,217.1,4.2c11.2,4.4,22.1,10.4,31.9,17.3c41.1,29.3,42.9,77.5,2.5,108.2
	c-15.4,11.7-34.4,20.5-53.1,25.6C2632.9,3225.6,2603.2,3228.8,2574,3234z M2654.2,3097.6L2654.2,3097.6
	c-53.1-19.4-107.6-20.4-161.5-6c-17.1,4.5-33,17.3-46.8,29.3c-14.2,12.5-13.6,24.5,1.5,36c12.8,9.7,28,17.3,43.3,22.4
	c42.6,14.3,87.2,13.3,130.6,6.9c23-3.4,46.4-14.1,66.3-26.6c22.5-14.2,20-36.1-3.1-49.8C2675.2,3104.3,2664.3,3101.6,2654.2,3097.6z
	"/>
<path d="M1342.9,3232c-46.3-0.7-85.6-6.1-122.1-23.4c-13.7-6.5-26.9-15.6-37.6-26.3c-20.7-20.8-22.3-51.5-5.6-75.9
	c16.2-23.8,39-38.9,66.4-46.8c64.4-18.5,128.8-18.7,192.1,4c16.4,5.9,32.4,14.7,46.2,25.2c37.2,28.2,37,76.4-0.8,103.9
	c-14.9,10.8-32.7,18.3-50.1,24.7c-15.4,5.6-32.1,8.2-48.4,10.7C1367.7,3230.5,1352.1,3231.1,1342.9,3232z M1335.3,3192.2
	c29.2-4.8,58.7-8.2,87.5-14.9c13.2-3.1,26.5-11,36.9-20c17.2-14.9,16.9-27.6-1.5-40.3c-15.1-10.4-32.5-20.9-50-23.7
	c-37.8-6-76.5-10.1-114.7-8.8c-21.8,0.8-45,10.7-64.3,22c-33.3,19.5-31.1,46.4,3,64.6C1264.3,3188.2,1299.5,3190.2,1335.3,3192.2z"
	/>
<path d="M1972.5,3141.1c-86.1-1.8-147.5-28.5-185.2-95.8c-10-17.8-15.2-39-19-59.3c-3.8-20.4,3.7-30.7,17.9-33.7
	c14.9-3.1,23.1,3.2,29.7,23.6c2,6.3,3.1,12.9,4.8,19.2c12.7,46.9,44,75.2,89.8,88.3c44.6,12.8,87.5,6.9,128.4-13.9
	c29.3-14.9,48.1-38.1,53.7-71.1c1.7-9.8,3.2-19.7,6.2-29.1c3.9-12.2,14.2-18.8,25.7-14.7c7.8,2.8,17.4,11.6,18.8,19.1
	c2.3,12.5,0.5,26.6-2.9,39.1c-15.6,57.3-51.2,97.3-108,115.7C2009.5,3136.1,1985.1,3138.6,1972.5,3141.1z"/>
<path d="M2536.2,3163c13.9-28.9,22.4-52.9,53.3-59.1C2591.5,3133.7,2574.1,3154.9,2536.2,3163z"/>
<path d="M2654.2,3097.6c14.6,34.5-1.3,62.6-37.1,62.1c-1.5-21,12.7-33,25.2-46.1C2646.9,3108.9,2650.3,3103,2654.2,3097.6
	C2654.2,3097.6,2654.2,3097.6,2654.2,3097.6z"/>
<path d="M2517,3110.4c-6.6,14.2-10.7,25.9-17.4,35.9c-2.4,3.5-12.7,5.3-16.7,3c-3.8-2.2-7-11.4-5.6-16
	C2482.3,3117.5,2493.2,3108.4,2517,3110.4z"/>
<path d="M1360.4,3105.2c-7.8,39.7-17.1,50.7-42.4,52.7C1319.7,3126.6,1330.7,3112.2,1360.4,3105.2z"/>
<path d="M1288.6,3110.5c-6.1,13.8-10.3,26.8-17.5,37.8c-2.8,4.3-15.8,7.5-18.5,5c-5.3-4.7-9.9-14.4-8.8-21.2
	C1246,3117.2,1260.6,3110.5,1288.6,3110.5z"/>
<path d="M1392.2,3151.8c3-33.2,12.5-41.6,38.7-33.8C1424.7,3151.5,1419.8,3155.9,1392.2,3151.8z"/>
</svg>
