<?xml version="1.0" encoding="utf-8"?>
<!-- Generator: Adobe Illustrator 24.3.0, SVG Export Plug-In . SVG Version: 6.00 Build 0)  -->
<svg version="1.1" id="Layer_1" xmlns="http://www.w3.org/2000/svg" xmlns:xlink="http://www.w3.org/1999/xlink" x="0px" y="0px"
	 viewBox="0 0 4000 4000" style="enable-background:new 0 0 4000 4000;" xml:space="preserve">
<path d="M830.1,2758.5c22.2-87.5-26.1-147.6-102.4-194.5c-116-71.3-133.1-204.7-88.1-299.6c14.4-30.3,27.5-61.2,41.8-91.6
	c10.6-22.6,9.4-44.2-4-65.1c-14.5-22.6-28.8-45.3-44.2-67.3c-58.8-84.3-51-187.4,20.8-261.2c15.9-16.3,33.4-31.1,51-45.7
	c26.9-22.4,35.2-47.6,21.7-81.9c-12.7-32.3-23-66.1-29.6-100.1c-16.4-85.2,24.3-166.5,105.7-194.8c55.9-19.5,80.3-44.7,79.1-107.7
	c-1.3-73.4,41.5-128.2,114.4-148.1c69.6-19,102.2-61.2,107.6-131.6c2.1-27.4,12-55.2,23.1-80.7c26.6-61.1,79-89.6,141.5-100.5
	c34.2-6,69.3-7.5,104.1-9.4c64-3.5,78.5-13.7,101.2-72.1c10.7-27.5,20.8-55.6,35.6-80.9c46.1-78.6,136.9-111.3,223.1-80.8
	c34.1,12,67,27.5,99.7,42.9c28.3,13.3,54.6,10.9,80.1-5.5c19.1-12.4,37.8-25.5,56.2-39.1c95.3-70.4,189.3-71.1,286.2-2
	c15.3,10.9,31.3,20.9,46.3,32.1c24.2,18,49.2,18.5,75.9,6.4c20.8-9.4,41.6-18.9,63-26.7c63.3-22.9,119-7,167.6,36.6
	c16.9,15.1,31,33.4,46.3,50.3c17.5,19.5,37.5,28.3,64.6,21.1c25.9-6.8,52.6-10.4,79.2-14.4c62.3-9.5,121.5,18.2,153.2,73.6
	c13.9,24.3,25,50.5,35.7,76.5c8.3,20.1,21.2,29.3,43.1,28.5c24.1-0.8,48.4-0.2,72.5,0.6c81,2.9,138.8,53.9,152.1,134.2
	c2.8,17.2,6.3,34.5,7,51.9c1.1,24.1,14.3,35.7,35.6,42.5c17.8,5.7,35.3,12.8,52.4,20.4c57.5,25.3,79.6,73.1,81.2,132.4
	c0.5,20-2.6,40.2-5.2,60.1c-2.7,20,4.6,33.4,22.3,42.5c14.3,7.3,28.4,15.2,41.9,24c58.2,38,89,90.7,73,160.5
	c-11.7,51.1-4.4,86.9,41.1,120.4c55.1,40.6,68,100.6,45.9,166.4c-3.4,10.2-7.1,20.4-11.8,30c-13.1,26.5-10.9,49.7,6.3,75
	c48.9,72,48.2,147,1.3,219c-23.3,35.7-25.1,68.1-8.2,105.7c19.4,43.1,33.5,87.5,25.2,136.5c-9.7,57.7-39.3,102.8-86,135.7
	c-28.4,20-36.9,43.1-28.1,76c5.1,19.3,7.7,39.7,8.2,59.7c2.1,77.4-32.4,133.6-101,169.2c-90.7,47.1-76,17-87.1,127.2
	c-10.7,106.2-78.2,182.1-182.5,202.3c-27.7,5.4-55.4,10.2-83.2,15.2c-32.6,5.8-56.8,22.6-71.7,52.6c-12.5,25.2-24.4,50.9-38.8,75.1
	c-49.8,83.4-130.6,118.9-226.5,100.4c-25-4.8-50-10.3-74.9-15.5c-22.8-4.7-42.1,0-58.1,18.4c-10.5,12.1-22.7,22.9-35,33.3
	c-57.4,48.5-122,58.6-192.3,34.3c-17.7-6.1-35.1-13.6-52-21.8c-23.4-11.4-42.1-7.6-62.5,9.2c-24.7,20.3-51.3,39.4-79.8,53.5
	c-70.6,35-140.4,28.6-207.3-12.1c-18.3-11.2-37.2-22-53.6-35.7c-20.5-17.1-39.7-18.2-62.6-5.6c-35.4,19.4-72,35.9-113.2,39.5
	c-78.1,7-142.8-17.6-191.1-80.5c-17.2-22.3-32.7-45.9-48.7-69.1c-20.4-29.6-47.9-40.6-83.6-35.6c-39.8,5.6-79.9,11.3-120,12.9
	c-94.1,3.9-158.4-42.4-197.2-125.6c-13-27.9-22.5-57.5-31.3-87.1c-10.6-35.6-31.6-58.2-68.6-65.5c-18.4-3.6-36.6-8.5-55-12.3
	c-85.2-17.4-143.6-84.6-148.7-172C829.1,2804.8,830.1,2785.9,830.1,2758.5z M942.9,2786.8c-1.4,70.7,12.9,88.8,74.1,101.5
	c10.5,2.2,21.2,3.5,31.7,5.5c82.6,16.1,137.5,62.9,161.1,144.9c6.3,21.9,13.4,43.7,21.6,65c19.2,50.2,56.4,73.7,109.4,68.3
	c24-2.4,47.8-7.2,71.5-11.6c100.5-18.7,167.9,9.6,224.7,94.6c11.2,16.7,22.4,33.6,35.1,49.2c34.8,42.8,75,52.3,125.5,30.4
	c11.1-4.8,21.7-10.6,32.2-16.5c65.3-36.9,127.9-34.3,187.8,12.2c11.6,9,24,17.3,36.4,25.2c47.1,29.9,86.1,28.5,130-4.7
	c13.9-10.5,26.9-22.3,40.8-32.9c48.9-37.2,102-45.1,159.3-21.9c19.9,8.1,39.6,16.6,59.5,24.7c27.9,11.4,52.5,6.2,74.1-14.6
	c10.7-10.2,21.6-20.2,32.4-30.3c52-48.1,112.4-59.4,179.7-41.3c19.4,5.2,38.9,10.6,58.6,14.4c51.6,10,88.4-8.2,112.4-55.6
	c9.7-19.1,17.7-39.2,26.9-58.5c29-60.8,76.2-99.7,142-114.7c27.4-6.3,55.3-10.5,83.2-14.8c71.7-11,99.5-41.7,102.9-115.2
	c0.3-6.7,0.5-13.4,0.8-20.1c3.8-81.4,38.5-141.1,118.1-170.1c10-3.7,19.7-8.7,29-14c35.5-20.4,44.3-39.4,36.9-80.2
	c-2.6-14.5-6.1-28.9-9.6-43.2c-16-66.4,6.9-118.5,58.5-160.1c10.5-8.4,20.7-17.2,31.4-25.3c29.8-22.7,36.2-51.8,24-86
	c-5.9-16.4-12.1-32.8-19.2-48.7c-26.7-59.9-24-118.1,12.4-172.6c31.7-47.4,38.4-93.1,1.1-140.4c-4.9-6.2-7.4-14.2-10.8-21.6
	c-16.4-35.7-19.8-72.2-5.9-109.6c6.1-16.4,11.5-32.9,17.9-49.2c8.6-21.8,4.3-38.7-15.5-52.5c-14.3-9.9-27.7-21.4-40.4-33.3
	c-38.9-36.5-57.6-80-45-134.1c3.7-15.7,5.5-31.8,8.6-47.5c4.8-23.5,0.3-42-23.6-53.3c-14.5-6.8-27.2-17.4-41.6-24.4
	c-70.2-33.8-84.3-103.1-76.8-154.5c1.7-11.9,4.2-23.8,6.1-35.7c2.8-18.4-3.5-30.8-22.3-37c-19.1-6.3-37.5-14.6-56.4-21.5
	c-46.1-16.8-71-51.4-81-97.6c-4.2-19.6-6.2-39.8-7.6-59.8c-3.1-44.1-15.2-55.5-60.6-55.4c-18.8,0-37.6-1.1-56.4-0.3
	c-73.1,3-126.6-40.9-150.2-105.6c-5.5-15.1-10.5-30.5-17-45.2c-8.5-19.5-23.2-28.7-45.2-24.7c-18.5,3.3-37.2,5.3-55.7,8.9
	c-86.8,17.2-160-2.3-212.3-78.3c-3.8-5.5-8.7-10.3-12.6-15.7c-16.7-23.4-38.2-27.6-63.8-16.7c-17.3,7.4-34.4,15-51.7,22.4
	c-64.3,27.5-125.4,22.9-183.1-18.1c-19.7-14-39.5-27.9-60.1-40.5c-46.2-28.3-91.6-26.2-135.5,5.7c-17.4,12.6-34.7,25.5-52.7,37.2
	c-69.4,45-141.5,54.9-217.3,16.2c-21.5-11-43.3-21.7-65.8-30.4c-42.2-16.5-73.9-5.8-94.8,33.8c-14.3,27.2-25.3,56.2-37,84.8
	c-31.6,77.3-91.7,112.3-172.3,117.3c-32.2,2-64.5,2.9-96.5,6.3c-48.3,5-71.3,27.2-81.4,74.7c-6.2,28.9-12.1,57.9-20.4,86.2
	c-15.8,53.9-47.4,95.9-98.8,121.1c-22.9,11.2-46,22.1-69.4,32.2c-19.1,8.2-29.7,21.9-32.3,42.4c-2.8,22.6-5.2,45.4-9.2,67.8
	c-10.9,60.3-44.4,102.4-102.3,124.3c-8.8,3.3-17.7,6.3-26.4,9.9c-51.3,21.2-61,39.4-47.5,94c8.3,33.8,19.8,66.9,28,100.8
	c11.8,48.7,0.3,93.9-28.1,133.8c-14.6,20.5-34.9,36.9-52.4,55.4c-13.7,14.6-28.9,28.3-40.1,44.7c-16.9,25-20.3,52.3-2.9,79.4
	c10.2,15.8,20.6,31.4,30.5,47.4c10.6,17.1,22,33.8,30.6,51.9c28.6,60.4,20.4,119.9-6.1,179c-13.7,30.5-27.2,61.5-37.1,93.4
	c-13.1,42.1-2.2,80.1,30.7,109.9c20.9,18.9,43.3,36.1,65.6,53.3c83.2,64.3,121.3,148,110.2,253.2
	C944.3,2767.4,943.4,2780.8,942.9,2786.8z"/>
<path d="M2139,2528.5c-106.6,0.3-201.4-78.9-221.8-186.5c-4-21-6.5-42.7-5.7-64c1.1-29.4,22.6-48,49.7-47.2
	c26.8,0.8,41.4,16.2,45,46.8c2.4,19.9,3.1,40.4,8.6,59.5c17.1,59.9,69.9,98.2,128.5,95.4c63.7-3,115.7-46.9,127.8-108.8
	c3.6-18.4,5.1-37.3,9-55.6c5.8-27.2,20.3-39.2,43.8-37.9c26.5,1.4,44.7,18.8,45.9,46.2C2374.5,2387.2,2300.1,2527,2139,2528.5z"/>
<path d="M2720.3,2051.7c75.6-1.8,138.7,54.7,139.6,144.9c0.8,77.6-66.1,139.2-147.9,139.6c-77.2,0.4-139.3-60-140.4-136.5
	C2570.5,2119,2637.9,2051.8,2720.3,2051.7z"/>
<path d="M1424.3,2194.7c1.8-82.4,66-144,148.4-142.2c77.7,1.6,137.7,65,136.8,144.5c-0.9,82.4-65.7,144.2-148.3,141.5
	C1481.3,2335.9,1422.6,2274.3,1424.3,2194.7z"/>
<path d="M2892.6,2601c-46.3-3.2-89-12.1-129.9-31.6c-61-29-68.6-103.4-7-136.4c84.4-45.1,172.1-47.6,258.6-4.2
	c28.8,14.5,48.9,38.4,47.6,73.6c-1.3,37.3-25,60-56.8,70.9C2968.6,2585.7,2930.2,2592,2892.6,2601z M2885.4,2549.2
	c0.1-0.8,0.2-1.6,0.4-2.4c16-1.1,32.2-1,47.9-3.5c18.3-2.9,37.4-5.5,54.2-12.9c32.7-14.3,33.6-40.6,3.8-60.2
	c-4.4-2.9-9.3-5.3-14.3-7.1c-62.9-24-125.4-21.9-187.3,3.5c-6.1,2.5-11.7,6.5-16.7,10.8c-15.8,13.5-17,26.5-0.9,40.1
	c10.9,9.2,24.4,17.4,38,20.7C2835,2544,2860.4,2545.7,2885.4,2549.2z"/>
<path d="M1402.8,2594.8c-42.4,1.4-82.7-6.8-120.9-25.5c-28.3-13.9-47.6-34.3-50-67.4c-2.5-33.9,16.1-55.7,41.9-72.7
	c67.8-44.7,208.6-39.1,272.4,10.3c39.4,30.5,38.7,85.8-1.9,117.5c-29.6,23.1-65.2,30.5-101.3,35.7
	C1429.8,2594.6,1416.2,2594.2,1402.8,2594.8z M1398.6,2550.7c0.3-1,0.7-2,1-3c18.6-1.9,37.7-1.5,55.6-6.2
	c20.2-5.3,41-12.4,58.3-23.8c18.4-12,17-28.3,0.3-43.3c-5.8-5.2-12.9-9.8-20.2-12.7c-62.6-24.8-125.2-24.6-186,4.9
	c-11.7,5.6-24.6,19.1-27,31c-3.7,18.1,13.5,28.5,29,32.9C1338.8,2538.7,1368.8,2544.1,1398.6,2550.7z"/>
<path d="M3327.7,2157.3c0,10.7,0.9,21.5-0.2,32.1c-2.9,27.4-15.5,40.5-39.3,42.4c-28.1,2.2-46.9-7.4-50.8-33.7
	c-3.8-25.8-3.8-53.4,1.3-78.8c5.7-28.5,27.3-39.3,54.3-34.8c24.9,4.1,36,18.8,36.6,48.9c0.2,8,0,16,0,24.1
	C3329,2157.3,3328.3,2157.3,3327.7,2157.3z"/>
<path d="M3060.3,1322c0.5,31.6-21.5,54.1-52.5,53.7c-33-0.4-70.7-39.8-72.1-75.3c-1.2-30,25.3-56.3,56.4-55.9
	C3025.5,1244.9,3059.7,1283.8,3060.3,1322z"/>
<path d="M2594.3,2926.7c-1.4,9.2-2.5,24-6.1,38.2c-7.5,30-30.2,44.2-60,39.2c-25.1-4.2-38.7-22.8-36.3-53.4
	c1.3-17.2,4.3-34.7,9.8-51c10.5-30.6,32.1-43.2,57.5-36.6C2586.8,2870.4,2597.1,2887.2,2594.3,2926.7z"/>
<path d="M1768.1,1117.5c5.6-17.7,8.8-36.5,17.3-52.7c13.5-25.6,42.8-32.9,69.6-20.7c24.5,11.2,31.8,29.5,22.8,60.2
	c-3.7,12.8-9.2,25.1-14.6,37.3c-13.7,30.4-30,39.3-59.3,33.3C1781.1,1170.2,1770,1151.1,1768.1,1117.5z"/>
<path d="M2522.1,1443.4c1.7,48.3-8.2,64.5-36.6,68.5c-34.4,4.9-59.5-12.9-64.5-50c-2.4-17.9-0.6-37.6,4.3-55.1
	c6.9-24.1,25.7-35.1,48.5-34.1c23.3,1.1,38.4,13.5,44.5,38.9C2521.2,1424.6,2521.5,1438.2,2522.1,1443.4z"/>
<path d="M1466,2874.8c-0.5,31.7-11.4,49.3-29.7,55.3c-20.5,6.7-43.7-0.7-56.6-20.2c-15.3-23.2-21.6-49.3-17-76.8
	c4-24,24.7-43.8,45.1-45.5c21.5-1.8,42.3,13.5,49.4,39.2C1462.2,2844.8,1464,2863.6,1466,2874.8z"/>
<path d="M1207.8,1773.5c0,33.7-29.1,60.9-66.1,61.9c-30.4,0.8-50-22.9-49.3-59.5c0.7-36.9,25.9-63.9,58.8-63.2
	C1183.3,1713.3,1207.8,1739.7,1207.8,1773.5z"/>
<path d="M1531,1382.5c-1.3,51.5-34,81-75.1,73.7c-26.9-4.8-42.5-27.3-32.5-52.6c7.2-18,19.2-34.8,31.8-49.9
	c13-15.5,31.2-20.2,50.8-11.1C1525.6,1351.6,1532.1,1368,1531,1382.5z"/>
<path d="M2958.2,1784c-0.3,27.9-28.4,51.9-60.3,51.4c-25.6-0.4-47.1-22.7-47.5-49c-0.4-27,29.7-55.1,58.4-54.6
	C2936.6,1732.2,2958.5,1755.4,2958.2,1784z"/>
<path d="M1055.9,2309.1c-1,29-26.2,53.4-54.8,53.2c-29.4-0.1-52.9-25.5-51.1-55.1c1.5-25.2,28.7-49.8,54.5-49.3
	C1031.7,2258.5,1056.8,2283.5,1055.9,2309.1z"/>
<path d="M2971.9,2745.2c28.3-1,50.4,19,50.5,45.8c0.1,27.6-25.3,54.1-53.5,55.8c-26.6,1.6-48.1-16.4-49.9-41.8
	C2916.8,2774.8,2942.2,2746.2,2971.9,2745.2z"/>
<path d="M1905.8,1754.2c0.6-25.7,20.8-46.7,45.2-47.1c25.1-0.3,47.1,21.4,46,45.5c-1.2,25.7-26.3,49.8-49.9,48
	C1924.1,1798.8,1905.2,1777.5,1905.8,1754.2z"/>
<path d="M2359.6,932.2c22.8,1,43,23.5,41,45.9c-2.1,23.7-22.6,42.2-46.2,41.7c-22.5-0.4-41.7-22.2-40.7-46.2
	C2314.5,951.2,2336.6,931.3,2359.6,932.2z"/>
<path d="M1967.4,3012.3c-24.1-0.7-42.2-20.8-40.5-45c1.6-22.6,24.2-43.5,45.6-42.4c22.2,1.2,42.4,24.2,41,46.7
	C2012.1,2994.2,1990.8,3013,1967.4,3012.3z"/>
</svg>
