<?xml version="1.0" encoding="utf-8"?>
<!-- Generator: Adobe Illustrator 24.3.0, SVG Export Plug-In . SVG Version: 6.00 Build 0)  -->
<svg version="1.1" id="Layer_1" xmlns="http://www.w3.org/2000/svg" xmlns:xlink="http://www.w3.org/1999/xlink" x="0px" y="0px"
	 viewBox="0 0 4000 4000" style="enable-background:new 0 0 4000 4000;" xml:space="preserve">
<path d="M2935.1,1331.9c6.1-7.7,13-14.8,18.2-23.1c95.3-150.4,190.1-301.1,285.5-451.4c42-66.3,83.6-132.8,127.9-197.6
	c43.1-63.1,105.3-94.4,181.4-98.4c79.5-4.2,152.7,46,180.3,121.1c28.4,77.2,19.3,152.6-25.3,219.5
	c-43.4,65.1-94.1,125.4-142.8,186.9c-99.9,126.2-200.6,251.8-300.9,377.7c-6,7.5-11.1,15.6-19,26.6c12.3,2.6,19.8,4.5,27.4,5.8
	c120.2,20.4,237.8,51.3,351.5,95.1c34.3,13.2,67,32.5,97.4,53.4c43.6,30,63.8,73.3,60.1,127.4c-8.5,123-32,243.2-66,361.5
	c-46.5,161.6-114.7,313.5-207.2,454c-108.6,164.9-244,304.1-405.6,417.5c-38.7,27.1-78.8,52.3-119.1,76.9
	c-22.8,13.9-25.9,19.3-19.6,42.9c9.4,34.9,15.7,70.7,21.6,106.4c3.4,20.7,4.4,42,4.7,63c0.3,28.2-14,48.3-40.2,57.8
	c-19.7,7.1-40.3,13.7-61,16.1c-114.9,13.2-229.8,25.8-344.9,37.1c-149.4,14.7-299.4,15.8-449.3,15.2c-159.1-0.7-317.8-10.2-476-26.6
	c-68-7-135.8-15.9-203.4-25.8c-21.6-3.1-43.1-10.3-63.3-18.8c-36.8-15.3-49.3-35.9-47.1-75.2c1.1-20,4.6-39.9,8-59.7
	c5.3-31.7,10.3-63.6,17.6-94.9c4.1-17.5-2.3-25.2-16.7-33c-132.7-72.3-250.4-164.1-356-272.1c-178.6-182.6-302.8-397.2-379.3-640.4
	c-40.4-128.3-61.4-260-76.1-393.3c-6.7-60.5,14.8-105.9,62.7-140.8c56.2-40.9,120.2-64.2,186-83.9c126.6-38,256.5-59.1,386.9-78.1
	c57.7-8.4,115.6-15.4,173.4-22.8c12.3-1.6,23.1-3.7,30.7-15.7c48.1-76.4,122.5-118,203.6-148.3c86.2-32.1,175.6-51,268.5-49.1
	c39.2,0.8,78.3,0.6,116.7-10.7c91.6-26.9,136.1-96.4,120.9-190.7c-1-6-2.6-11.8-3.3-17.8c-4.7-37,12.8-59,50.6-57.4
	c32.9,1.4,66.1,6.2,98.4,13.3c127,27.8,229.8,93.4,305.5,200.2c35.2,49.6,81.8,76.7,144.3,69.6c104.2-11.8,196.2,21,281.9,77
	C2926,1329.7,2928.2,1329.9,2935.1,1331.9z M3681.1,1884.7c-11.1,4.3-15.9,5.9-20.4,7.8c-127.3,55.6-261.2,87.7-397.9,107.2
	c-133.4,19-267.3,34.2-401.4,47.3c-198.4,19.4-397.6,27.1-596.9,29.8c-270.8,3.7-541.4-4.8-811.4-27.3
	c-164.4-13.7-328.4-30.3-490.8-61.1c-119.8-22.7-238.1-50-349.6-101.1c-3.3-1.5-7.5-1.3-13.6-2.3c0.6,9.4,0.3,17.3,1.8,24.8
	c9.6,47.3,18.9,94.7,29.6,141.8c45.5,200,130.7,382,251.5,547.3c133.5,182.7,303.2,323.9,500,433.6c13.4,7.5,30.2,10.9,45.7,12
	c52.2,3.7,104.5,6,156.8,8.1c134.7,5.5,269.5,14.1,404.3,15.1c173.1,1.3,346.2-2.1,519.2-6.5c109.6-2.8,219.1-10.5,328.6-17.6
	c20.5-1.3,42-7.3,60.3-16.7c35.7-18.3,70-39.6,103.9-61.2c225.4-143.3,395.9-336.5,517.3-573.6c70.1-137,118.3-281.6,149-432.2
	C3671.9,1936.6,3675.8,1913.1,3681.1,1884.7z M2889.3,1408.2c-15.3-9.2-28.5-16.4-40.9-24.7c-54.7-36.6-114.8-51.9-180.4-47.5
	c-18,1.2-36.2,0.8-54.3,0c-68.9-3-126.8-28.5-169.6-84.4c-12.2-16-24.1-32.4-37.9-46.9c-19.3-20.3-39.2-40.5-61-58.1
	c-46.8-37.9-101.4-61-159-77.4c-14.2-4-28.7-7.2-46.3-11.5c-1.3,12.9-2.4,22.6-3.3,32.3c-12,121.8-85.7,207.8-203.3,231.3
	c-39,7.8-80,7.3-120.1,8.4c-94.4,2.7-185.9,18.7-272.9,56.7c-51.5,22.5-97.1,52.8-130.4,99.3c-18.8,26.2-18.3,28.8,4.4,53.2
	c52.3,56.3,117.5,90.1,190.4,111.1c87.4,25.1,177.1,36.6,267.3,45c99.3,9.3,198.9,11.2,298.5,8.5c15-0.4,30.1-3.8,45-3.1
	c20.8,1,37.3,19.3,38.4,39.7c1.1,20.7-13,39.5-33.9,43.4c-10.8,2-22,2.9-33,3.3c-166.3,6.6-331.9-0.8-496.3-28.2
	c-66.6-11.1-131.7-28.5-193.7-55.8c-59-26-109.1-64-150.4-113.6c-12.9-15.5-27.3-24.9-49.3-22.7c-118.5,12.2-227.4,50.3-324.6,119.6
	c-55.7,39.7-95.8,91.5-115,158c-2.9,10.1-4.2,20.8-6.4,32.4c8.8,2.4,14.4,4.5,20.2,5.5c86.1,15.4,171.7,34.4,258.3,45.2
	c126.6,15.8,253.8,29.1,381.1,37.4c163.6,10.7,327.5,18.2,491.3,22c294.9,6.9,589.5-4.9,883.4-29.3c86.1-7.2,172.2-16.6,257.8-28.7
	c85.5-12.1,170.4-28.6,255.5-43.6c9.2-1.6,17.9-6.2,26.4-9.3c-6.2-74.5-40.5-128.7-97.2-169.8c-47.2-34.3-94.4-68.6-141.7-102.7
	c-7.1-5.1-14.7-9.5-23.5-15.1c-8.5,10.2-15.9,18.4-22.4,27c-10.3,13.6-20,27.7-30.3,41.4c-29.7,39.6-53.7,47.9-99.1,27.3
	c-36.4-16.5-72.2-36-105-58.8c-25.2-17.5-46.6-41.1-67.2-64.2c-21.3-23.9-21.5-50.7-2.4-77.3
	C2853.8,1459.7,2870.2,1435.6,2889.3,1408.2z M2869.7,3132.9c-245.1,15.9-487.2,25.5-729.5,24.6c-242.1-0.9-484-10.5-727.1-24.9
	c-8.6,44.1-16.5,84.4-24.3,124.7c-2.5,12.9,2,21.3,16,23.7c18.8,3.2,37.3,8.4,56.2,10.9c198.7,26.2,398.6,37.2,598.7,42.4
	c133.8,3.5,267.7,0.7,401.2-10.2c119.2-9.8,238.4-20.5,357.5-32.4c26.3-2.6,54.1-3.2,80.8-18.3
	C2889.7,3228,2880.3,3183,2869.7,3132.9z M3039.3,1600.8c9-10.8,15.5-18.2,21.6-25.9c42.4-53.7,84.2-107.9,127-161.2
	c122.8-153,246.1-305.6,369-458.6c23.3-29,46.2-58.4,68-88.6c25-34.6,36.2-73.9,32.4-116.7c-7.3-82.7-81.6-125.7-157.6-92.3
	c-32,14.1-53.3,38.9-71.6,67c-57.7,88.4-115.6,176.8-172.7,265.7c-80,124.4-159.2,249.3-239,373.7c-29.3,45.7-59.4,90.9-89.1,136.4
	c-13.1,20-13.3,24.4,5.6,36.3C2966.7,1558.1,3001.5,1578.1,3039.3,1600.8z M923.1,1614.8c-1.1-2.3-2.1-4.6-3.2-6.9
	c-8.7,1.2-17.6,1.7-26.2,3.7c-27.4,6.4-54.9,12.6-82,20.3c-59,16.7-118.1,33.8-171.6,65c-15.4,9-30.1,20.4-42.4,33.2
	c-14.1,14.7-13.5,24.9,0.9,39.3c11.3,11.2,24.4,21,38,29.4c39.4,24.4,82.1,40.9,130.4,51.9C791.7,1752.6,843.4,1674.4,923.1,1614.8z
	 M3512,1853.1c60.7-14.2,114.2-33.2,160.6-68.3c23.3-17.6,25.1-36.5,3-55.1c-21.3-17.9-45-34-69.9-46.2
	c-69.1-33.8-143.7-50.9-218.3-67.4c-8.8-1.9-18.1-1.5-27.2-2.2c-0.8,2-1.6,3.9-2.5,5.9C3438.6,1676.7,3493.2,1751.1,3512,1853.1z"/>
<path d="M2120.2,2803.3c-95.7,0-171.8-84.4-161.7-179.2c2.2-20.8,16.3-36.9,32.8-37.4c16.5-0.5,30,14.1,33.3,36.3
	c1.8,11.9,2.6,24,5.2,35.8c9.4,42.9,45.5,73.9,86.8,75.3c41.2,1.4,78.7-27.1,90.5-70.2c3.7-13.4,2.6-28.2,6.6-41.5
	c3.2-10.8,8.3-23.8,16.8-29.9c22.2-16.1,52.7,1.3,52,31.3c-0.6,25.6-5.8,52.1-14.3,76.3C2245.6,2764.6,2188.1,2803.3,2120.2,2803.3z
	"/>
<path d="M2628.2,2559.3c-0.4,57.3-48.3,102.4-108.7,102.3c-53.8-0.1-96.4-44.1-96.2-99.3c0.2-56,48.1-106,102.3-106.8
	C2583.1,2454.7,2628.5,2500.7,2628.2,2559.3z"/>
<path d="M1711.8,2659.4c-57.9-0.2-102.7-42.3-102.5-96.3c0.2-56.6,47.4-107.2,100.9-108.2c57.3-1,106.2,47.9,105.3,105.3
	C1814.6,2616.1,1769.1,2659.7,1711.8,2659.4z"/>
<path d="M1598.3,2701.5c23.8,4.6,50.9,7.6,76.4,15.6c26.4,8.2,46.3,26.1,45.9,56.7c-0.4,28.8-18.9,46.2-44.2,55.2
	c-50.7,17.9-102.6,19.5-153.9,3.7c-32.2-9.9-50.8-33.6-50.5-57.3c0.3-25,20.3-50.7,51.7-60.2
	C1546.5,2708.3,1570.8,2706.4,1598.3,2701.5z M1587.6,2811.3c28.8-2.6,56.7-5,82-18.9c18.1-9.9,19.2-21.6,4.3-35.3
	c-4.4-4-9.5-7.9-14.9-9.8c-43.2-14.6-86.6-15.5-128.7,3.1c-8.6,3.8-17.8,14.8-19.5,23.8c-2.6,13.5,10.3,21.4,21.7,24.8
	C1550.4,2804.5,1569.2,2807.3,1587.6,2811.3z"/>
<path d="M2645.4,2842.5c-31.4-1.5-61.5-2.2-88.4-19c-39.1-24.4-41.8-65.8-5.1-93.7c7.9-6,16.9-11.5,26.3-14.4
	c51.7-15.6,103.1-14.5,153.1,7c20.3,8.7,35.4,22.4,37.5,46.6c1.8,20.1-5.7,37.1-21.9,46.5c-17.8,10.4-37.8,17.6-57.8,23.1
	C2674.8,2842.7,2659.2,2841.5,2645.4,2842.5z M2646,2812.3c22.6-5.5,47-10.2,70.5-17.8c6.9-2.2,14.1-11.8,16-19.3
	c2.8-10.8-5.4-19-15.4-23c-45.7-18.3-91.7-20.4-136.8,1c-7.9,3.8-18.4,15.1-17.5,21.5c1.2,8.7,10.8,20.1,19.3,23.2
	C2601.6,2804.8,2622.6,2807.3,2646,2812.3z"/>
<path d="M2230.7,1393.9c-4.8,31.2-18.8,60.7-44.7,83.5c-14.1,12.4-33.3,12.2-47.6,2.1c-14.8-10.5-19.7-25.9-11.5-45.3
	c9.3-22.2,19.4-44.2,31.5-65c10.4-17.8,25.5-21.8,44.1-16C2220.7,1358.7,2231,1372.5,2230.7,1393.9z"/>
<path d="M1266.7,1724c-1.4,3.7-2.4,11.3-6.5,16.4c-18.1,22.1-39.9,39-69.7,42.4c-15.1,1.7-27.9-1.9-35.9-15.9c-8-14-9.5-29-0.4-42.6
	c14.9-22.3,36.2-37.6,61.9-44.6C1241.3,1672.9,1267.2,1695.1,1266.7,1724z"/>
<path d="M2544.5,1517.7c0.4,18.9-7.9,32.1-22.5,38.6c-15.1,6.8-35.1,5.2-43.9-8.1c-12.5-18.9-23.1-39.6-30.9-60.9
	c-6-16.2,2.8-31,18-40.7c15.1-9.6,29.7-9.2,44.3,3C2531.4,1468,2538.8,1494,2544.5,1517.7z"/>
<path d="M1782,1435.4c-2.2,4.7-5.2,14.5-10.8,22.2c-13.6,18.5-32.9,28.8-55.4,32.7c-30.3,5.3-53.1-21.7-41.5-50.3
	c9.8-24.3,28.8-41.1,53.3-49.2C1754.4,1382,1781.5,1402.8,1782,1435.4z"/>
<path d="M1929.2,1497.1c-0.1,32.3-34.7,65.9-61.7,64.3c-29.9-1.7-47.7-35.8-31.7-63.2c6.4-11,16.6-20.1,25.9-29.1
	c12.8-12.2,27.6-16.3,44.1-7.1C1921.2,1470.6,1928.7,1484,1929.2,1497.1z"/>
<path d="M1445.4,1798.1c-0.9,28.4-31.8,57.2-60.4,56.5c-20.5-0.6-35.7-15.5-36.9-36.1c-1.5-28.3,25.8-60.7,53.7-63.5
	C1425.2,1752.6,1446.1,1773.3,1445.4,1798.1z"/>
</svg>
