<?xml version="1.0" encoding="utf-8"?>
<!-- Generator: Adobe Illustrator 24.3.0, SVG Export Plug-In . SVG Version: 6.00 Build 0)  -->
<svg version="1.1" id="Layer_1" xmlns="http://www.w3.org/2000/svg" xmlns:xlink="http://www.w3.org/1999/xlink" x="0px" y="0px"
	 viewBox="0 0 4000 4000" style="enable-background:new 0 0 4000 4000;" xml:space="preserve">
<path d="M3809.3,1984.7c-0.6,360.1-101,689-311,982.6c-198.5,277.5-460.3,473.3-778.7,593.8c-199.8,75.6-406.7,112.7-620.7,106.9
	c-176.6-4.8-347.9-39.1-513.9-98.5c-300.5-107.5-551.2-287-750-535.5c-199-248.8-318-533.1-351.1-851.1
	c-43.7-419.1,52.3-804.9,292.7-1150.6c220.2-316.7,517.9-532.7,887.8-644.5c173.7-52.5,352.2-78.7,534.4-71.5
	c136.4,5.4,270.1,28.1,401.4,65c187.9,52.9,360.4,137.8,519.5,250.4c173.9,123.1,315.9,276.3,429.5,456.3
	c124.1,196.6,203.1,410.1,240.1,639.6C3803.2,1812.8,3809,1898.4,3809.3,1984.7z M3710.9,2146.7c2.6-38.6,6.7-72.4,6.7-106.2
	c0-54.1-1.1-108.4-4.6-162.3c-14.3-219.1-70.9-426.8-172.5-621.6c-93.4-179.2-218.2-333.6-370.3-466.3
	c-126.1-110-266.8-195.8-421.5-259.1c-159.4-65.2-324.7-106.3-496.4-119.5c-136.3-10.5-271.6-0.3-405.8,25.7
	c-158.6,30.7-309.5,83.9-451,161.5C1143.1,737,940,927.6,792.6,1175.6c-81.8,137.7-144.9,283.5-182.4,439.7
	c-28.4,118.2-40.5,238.4-46.8,359.6c-6.3,122.6,30,232.5,94.4,334.7c20.6,32.7,46.6,60.6,80.7,79.9c54.1,30.5,114.8,21.9,156.6-24
	c12.7-14,23.7-30.2,32.6-46.9c19-35.6,34.2-73.2,54.5-108c17-29.1,35.6-58.6,59.4-82c67.4-66,176.4-56.4,232.4,19.4
	c16.8,22.8,29.2,49.2,41,75.2c16.3,35.7,28.5,73.3,45.5,108.6c11.8,24.6,26.4,48.7,43.9,69.6c26.6,31.7,61.7,42,103.4,32.8
	c36-8,65.6-25.9,88.1-53.5c33.5-41,64.4-84,96.1-125.6c-120.3-231.6-46.8-489.5,107.6-629.3c168.7-152.7,398.4-165.1,572.9-77.1
	c99.9,50.3,175.9,125,226.8,224.9c71.7,140.6,73.3,285.2,21.6,431c58,36.8,57.7,31.2,97.4,111.9c5.6,11.4,10.6,23.2,16.4,34.5
	c4.3,8.5,8.8,17,14.1,24.9c28.5,42.5,90.2,49.6,119.1-5.6c10.8-20.7,18.5-42.9,29.1-63.7c13.5-26.3,25.5-54.4,43.7-77.2
	c70.1-88,215.4-88.4,276.3,15.8c12.8,22,23.8,45,35.6,67.6c6.9,13.2,12.6,27.1,20.8,39.4c29,43.1,83.4,46,116.2,6.1
	c8.6-10.5,15.3-23,21.1-35.4c10.3-22.1,18.3-45.4,29.2-67.2c11.8-23.7,23.8-47.7,39.3-69c50.4-69.5,147-84.8,207.8-49.1
	C3692.9,2141.4,3700.2,2142.9,3710.9,2146.7z M1744.2,2336c-14.1,19.7-27.3,37.4-39.9,55.7c-24.8,36.2-53.5,68.5-89.3,94.4
	c-102,74-233.3,50.9-304.7-53.2c-30.5-44.4-47.6-94.5-67.7-143.7c-11.2-27.4-23.2-55.2-39.7-79.4c-30.4-44.5-78.8-45.3-110.9-1.6
	c-19.3,26.3-33.1,56.6-48.8,85.5c-17.8,32.6-32.8,66.8-52.7,98c-81.2,127.2-234.5,145.4-344.3,42.1c-5.1-4.8-10.8-9-16.3-13.5
	c-3.3,13.2-1.6,24,1.5,34.5c75,249.3,207.4,464.3,390.3,648.5c190.8,192.1,416.3,328.3,675.1,407c278,84.5,558.8,86.3,839.6,14.3
	c181.7-46.6,348.8-126.4,503.5-232.6c209.9-144,373.9-329.2,494.9-552.6c76-140.3,124.7-290.3,155.8-446.3
	c9.3-46.6,8-48.8-36.6-69.4c-46.4-21.5-85.9-9.7-110.8,35.1c-11.8,21.2-18.8,45.1-30,66.7c-16,31-30.3,63.8-51.6,90.9
	c-60.8,77.5-180.3,97.4-258.9-5.7c-14.7-19.3-25.5-41.5-37.6-62.7c-10.5-18.5-18.8-38.2-30.4-55.9c-20.1-30.9-53.2-41.3-86.2-25.2
	c-16.5,8.1-31.9,21.2-43.7,35.4c-11.2,13.6-16.7,31.7-25,47.7c-15.7,30-28.7,62-48.2,89.4c-40.5,56.7-110.2,76-176.1,53
	c-46.6-16.3-79.5-48-101.5-91.4c-13-25.6-23.3-52.6-38-77.1c-22-36.6-38-34.1-61-3.9c-88.4,115.9-203.9,187.5-350.7,203.2
	c-140.7,15-267.6-19.9-377.5-110.2C1799,2390.2,1774,2364,1744.2,2336z M2141.7,2434.6c243.4-2,423.4-187,424-431.4
	c0.5-210.5-170.6-418.4-424.6-418.8c-218-0.3-420.7,179.1-418.3,428.2C1724.9,2243.4,1915.8,2436.4,2141.7,2434.6z"/>
<path d="M2124.5,897.8c-36.8,1.1-57.4-25.3-47-57c4.2-12.9,11.3-25.2,19-36.4c37.1-54.3,74.6-108.3,112.5-162
	c8.5-12.1,17.8-23.9,28.6-34c16.8-15.8,36.5-15.9,55-2.4c20.1,14.7,26.2,34.2,16.9,55.4c-2.5,5.8-5.5,11.5-9.2,16.7
	c-44.6,63.3-89.1,126.5-134,189.5C2155,883.3,2143.3,898.9,2124.5,897.8z"/>
<path d="M1556.2,1061.9c27.1,0.3,48.4,22.4,46.2,49.2c-1,11.5-4.3,22.8-7.6,33.9c-19.1,63.9-38.4,127.6-57.8,191.4
	c-2.8,9.1-5.5,18.3-9.6,26.9c-10.9,23.1-32.8,31.5-58.4,23.1c-22.3-7.3-34.4-25.1-28.2-49.6c12.3-49.2,26.8-97.9,41.2-146.6
	c9.3-31.4,19.3-62.7,30.5-93.5C1521.5,1072,1536.1,1061.6,1556.2,1061.9z"/>
<path d="M3175.5,945.6c27.5,1.3,41.8,10.4,51.1,27.8c9.2,17.3,4.7,33-6.4,47.2c-5.8,7.4-12.8,14.2-20.1,20.1
	c-51.9,41.8-104,83.4-156.2,124.9c-6.6,5.3-13.5,10.3-20.7,14.6c-23.7,14.2-45.9,10.8-62.3-9.1c-17.7-21.5-16.2-43.9,4.7-64.9
	c6-6,12.4-11.5,19-16.8c52-41.7,103.9-83.6,156.5-124.5C3153.1,955.7,3167.8,949.9,3175.5,945.6z"/>
<path d="M1118.4,1513.7c-42.9-4.9-89.2-10.1-135.4-15.4c-30.5-3.5-61.1-6.2-91.4-11.1c-34.7-5.6-50.3-38-34.8-69.5
	c10.2-20.6,23.4-27.1,49.6-24.3c73.6,7.9,147.3,15.9,220.9,24c36.2,4,56.4,24.5,53.4,53.7C1177.7,1501,1158.6,1514.8,1118.4,1513.7z
	"/>
<path d="M3194.7,2075.8c-4.7-2.6-15.6-6.8-24.1-13.8c-8.9-7.3-15.8-17.1-23.2-26.1c-39.5-48.5-79.3-96.8-118.1-145.9
	c-21.5-27.2-20.4-50.7,0.4-71c17.1-16.6,42-18.9,60.7-4c9,7.2,16.7,16.3,23.9,25.4c34.9,44,69.5,88.3,104,132.6
	c8.5,10.9,17.2,21.7,24.1,33.5C3262.9,2042.3,3242.5,2076.4,3194.7,2075.8z"/>
<path d="M1888.9,779.9c-1.5,38.6-37.8,59.6-66.9,44c-6.5-3.5-12.8-7.7-18.3-12.6c-46.1-40.6-92.6-80.8-137.9-122.3
	c-25.7-23.5-26.4-51.3-4.9-75.7c14.6-16.5,28.4-19.5,48.2-10.4c2.9,1.3,5.9,2.6,8.2,4.7c53,48.7,106.1,97.2,158.3,146.7
	C1883.4,761.8,1886.2,774.4,1888.9,779.9z"/>
<path d="M1430.3,1857.7c-36.6,0.1-60.5-35.5-48.3-63.8c4.5-10.4,12-19.9,19.5-28.6c36.8-42.3,74.1-84.2,111.4-126
	c6.3-7.1,13.2-13.9,21-19.2c19.9-13.3,41.8-9.1,59.5,10.3c18.3,20,21,36.8,4,56.4c-45.8,52.7-92.6,104.5-140.1,155.7
	C1449.4,1851.1,1436,1854.7,1430.3,1857.7z"/>
<path d="M794.5,1891.3c0,35,1.8,70.1-0.5,104.9c-1.9,28.9-18.7,41.5-46.4,40.7c-27.8-0.7-44.6-15-44.8-43c-0.4-63.7,0-127.4,2.2-191
	c1-30.9,18.6-48,43.8-49.1c29.9-1.2,48.7,15,49.6,45.1c1,30.7,0.2,61.6,0.2,92.3C797.2,1891.3,795.8,1891.3,794.5,1891.3z"/>
<path d="M2725.1,867.1c0.6,28.8-15.5,49.4-37.6,53.1c-24.1,4.1-44.5-7.5-51.6-31.6c-4.5-15.2-6.5-31.1-9.4-46.7
	c-8.8-48-17.9-95.9-26.2-143.9c-5.6-32.2,8.7-54.2,37.1-59.4c27.5-5,49.6,9.1,55.2,39.2C2704.6,742.3,2714.9,807.2,2725.1,867.1z"/>
<path d="M1839.1,1297.8c-40.1-1.3-62.8-42.2-46-70.8c4.2-7.1,10.2-13.7,16.8-18.9c44.1-34.9,88.1-70.1,133.1-103.8
	c25.2-18.9,48.3-13.8,65.5,11.4c12.6,18.4,11.6,38.6-3.9,55.2c-7.9,8.5-17.3,15.6-26.4,23c-34.5,28.3-68.7,56.9-103.9,84.2
	C1862.1,1287.5,1847.3,1293.3,1839.1,1297.8z"/>
<path d="M2637.2,1584c-15.8,1.3-27.3-7.6-35.8-20.7c-29-44.4-58.5-88.6-86.1-133.9c-16.2-26.5-10.6-47.1,13.1-63.6
	c23.3-16.2,49.7-13.4,67,11.3c24.3,34.7,45.7,71.5,68.4,107.4c6.2,9.9,13.2,19.3,18.7,29.6C2702.4,1551.4,2681.1,1584.9,2637.2,1584
	z"/>
<path d="M1117.6,1127.5c6.6-55.5,12.1-108.2,19.3-160.7c4.2-30.9,25.5-48,51.6-44.6c28.7,3.7,45.2,25.8,41.5,57.1
	c-5.8,49.5-11.9,99-18.6,148.3c-4.3,32.2-15,45.5-36.8,48.8C1137,1182,1115.7,1162.6,1117.6,1127.5z"/>
<path d="M3590.9,1794.8c0.8,28.6-18.7,50.8-44.2,52c-9.2,0.4-19.6-0.6-27.8-4.4c-47-21.9-93.9-43.9-140-67.7
	c-25.7-13.3-32.4-43.6-18.1-68.3c10.5-18.2,24.2-24.7,45.2-21.1c5.2,0.9,10.4,2.3,15.1,4.5c46,21.4,92.1,42.8,137.8,64.8
	C3576.9,1763.3,3591,1775.6,3590.9,1794.8z"/>
<path d="M2914.8,1598.7c1.8-8.1,4.7-22.6,8.5-36.9c8.1-30.8,16.3-61.5,25.1-92c3.5-12.1,7.5-24.5,13.6-35.5
	c11.8-21.2,32.7-28.4,54.3-20.5c20.5,7.4,35.7,28.9,30.5,49.8c-13.1,53.5-26.9,107-43.4,159.6c-8.4,26.8-36.8,35.8-62.8,24.7
	C2921.7,1639.7,2913.5,1626.4,2914.8,1598.7z"/>
<path d="M3278.7,1533c-38.3,0.1-62.1-32.3-45-62.7c27.5-48.8,58.2-96,89.9-142.2c15.5-22.6,38.1-24.8,58.5-11.6
	c24.2,15.7,31.2,37.4,16.1,63c-26.3,44.7-54.5,88.3-82.5,131.9C3306.6,1525.6,3293.8,1534.7,3278.7,1533z"/>
<path d="M1028.6,1906.5c-20.9,0.4-36.4-13.1-42.9-36.3c-5.8-20.6,1.6-42.5,19.1-52.6c8.1-4.7,17.5-7.3,26.5-10.3
	c40.1-13.2,80.3-26.1,120.3-39.4c21.2-7,36.3-3.9,48.5,11c14.5,17.6,17.9,42.5,5,58.7c-7.5,9.5-18.3,18.5-29.4,22.6
	c-41.6,15.3-83.9,28.7-126.1,42.5C1042.6,1905,1035.1,1905.4,1028.6,1906.5z"/>
<path d="M2412,1088.9c-0.7,3.5-0.9,11.4-4,17.9c-21.6,45-43.3,89.9-65.9,134.3c-8.2,16.1-22.1,24.1-41.4,24.7
	c-32.5,1-56.6-35.9-43.4-61.5c23.9-46.2,45-93.8,69.3-139.7c11.4-21.6,31.1-27.5,51.4-20.9C2397.8,1050.1,2411.5,1066.7,2412,1088.9
	z"/>
<path d="M2771.4,2052.5c-42.5-1.4-62.6-37.2-49.7-66.1c17.7-39.5,30.2-81.4,48.2-120.8c16.7-36.8,58.6-40.3,81.8-9.2
	c9.5,12.7,12.5,27.1,7.1,42c-15.4,42.8-31.1,85.5-47.5,127.9C2804.6,2043.7,2790.3,2052.2,2771.4,2052.5z"/>
<path d="M1618.1,867.3c0.4,31.6-21.6,53.2-51.5,46.2c-46.3-11-92.1-24.7-137.2-40.1c-26.2-9-35.3-36.8-25.4-63.4
	c8.8-23.5,30.2-34.8,56.6-27.2c39.7,11.4,79,24.3,118.2,37C1602.3,827.4,1615.9,843.5,1618.1,867.3z"/>
<path d="M2802.3,1142.9c-42.4-6.6-82.4-11.6-122-19.3c-26.3-5.1-39.2-28.8-34.1-56.1c4.4-23.9,26-40,51.7-36.5
	c37.8,5.1,75.6,11,113.1,17.8c34.7,6.3,53.2,39.7,39.6,69C2842.4,1135.4,2825,1143.9,2802.3,1142.9z"/>
<path d="M2209.6,3151.6c-79,0.2-145-55.1-160.7-136.4c-3.5-18.4-4.4-37.9-2.4-56.5c1.9-18.4,16.2-29.2,32-29.6
	c18-0.5,30.8,10.2,34.7,30.3c2,10.4,2.2,21.1,3.6,31.6c6.7,49.7,44.8,87.6,89.1,89.1c48.8,1.6,93.5-36.9,101.5-87.9
	c1.8-11.5,1.3-23.4,3.6-34.8c4.1-19.7,15.5-29,32.5-28.5c17.8,0.5,31.9,12.5,35.7,30.5c0.6,3.1,0.7,6.3,0.9,9.5
	C2386.6,3067.3,2308.2,3151.3,2209.6,3151.6z"/>
<path d="M2631.6,3005.8c-59-0.2-106.1-47.4-105.3-105.2c0.8-56.3,50.8-106.3,106.2-106.3c61.2,0,108.2,44.4,108,101.8
	C2740.2,2957.3,2691.8,3006,2631.6,3005.8z"/>
<path d="M1789,3005.8c-58.5,0.5-107.5-45.5-109-102.3c-1.5-57.6,48.5-108.3,106.5-108.2c59.6,0.1,107.5,48.1,107.1,107.4
	C1893.2,2958.3,1845.4,3005.3,1789,3005.8z"/>
<path d="M1662.9,3197.5c-32.4,1.2-63.3-4.4-91.8-20.6c-40.7-23.1-44.9-66.7-9.2-96.6c7.2-6,15.4-11.8,24.1-15
	c51.5-18.9,103.6-20,155.3-0.9c11.6,4.3,22.8,11.6,32.2,19.8c29.7,26.2,27.7,62.2-4.7,86.3c-21.8,16.2-47.3,23.1-74.1,25.4
	C1684,3196.9,1673.4,3197,1662.9,3197.5z M1652.5,3163.8c38.9-2.7,69-2.5,94.5-21.3c15.4-11.4,16-20.9,2.4-33.5
	c-4.6-4.3-9.9-8.6-15.7-10.6c-45.6-16.2-91.5-16.7-136.2,2.6c-9.1,3.9-20,16.2-20.1,24.7c-0.1,8.5,10.7,21.6,19.5,24.9
	C1617.5,3158.1,1639.7,3160.9,1652.5,3163.8z"/>
<path d="M2752.6,3197.7c-29,0.9-57.2-1.9-83.5-15.6c-22.9-11.9-40.5-27.9-41.1-55.8c-0.6-27.3,18.1-42.1,39.1-53.5
	c12.8-7,27.2-12.2,41.5-15.3c40.2-8.8,80.2-6,119.3,6.4c9,2.8,17.9,6.9,25.9,11.9c36.6,22.7,39.8,65,7.3,93.5
	c-20.1,17.6-44.8,23.4-70.4,26.4C2778.1,3197.3,2765.3,3197.1,2752.6,3197.7z M2746,3164.4c33-0.2,60.3-2.5,84.8-17.2
	c20.4-12.3,21.3-27.6,1.7-41.7c-6.7-4.8-14.9-9.8-22.7-10.4c-30.4-2.3-60.9-4.6-91.2-3.2c-14,0.6-28.6,7.9-41,15.4
	c-18.2,10.9-18.1,24.3-1.2,37.5C2698.5,3162.1,2724.3,3165.9,2746,3164.4z"/>
</svg>
