<?xml version="1.0" encoding="utf-8"?>
<!-- Generator: Adobe Illustrator 24.3.0, SVG Export Plug-In . SVG Version: 6.00 Build 0)  -->
<svg version="1.1" id="Layer_1" xmlns="http://www.w3.org/2000/svg" xmlns:xlink="http://www.w3.org/1999/xlink" x="0px" y="0px"
	 viewBox="0 0 4000 4000" style="enable-background:new 0 0 4000 4000;" xml:space="preserve">
<path d="M3443.7,1127.4c0,0.4,0,1.7,0,3c-0.6,52.5-0.8,53.4,49.9,65.3c66.3,15.5,113.2,50.7,126.8,120.5c3.3,17.1,4.2,35.5,2.2,52.8
	c-4.1,35.3-10.1,70.5-17,105.3c-7.2,35.8,2.5,65.1,28.9,89.6c9.3,8.6,18.6,17.4,27.1,26.8c29.5,32.8,34.7,69.8,15.5,109.2
	c-8.3,17.1-17.7,33.7-26.4,50.7c-9.1,17.7-6.8,34.5,5.3,49.9c13.3,17,26.9,33.8,40.5,50.6c42.2,52.2,45.5,92.9,12.3,150.6
	c-2.5,4.4-4.6,9.2-7.8,13.1c-45.4,54.7-42.4,113.8-17,175.6c10.6,25.8,19.5,52.4,28.3,78.9c21.9,65.4,7.5,122.9-39.8,172.2
	c-19.3,20.1-39.9,39.2-60.9,57.6c-22.3,19.4-30.7,42.9-25.4,71.6c3.5,18.7,8.2,37.2,11.1,56c3.1,20,6.9,40.3,6.7,60.4
	c-0.7,49.4-24.8,84.6-71,102.8c-21.2,8.4-43.3,14.8-65.3,20.8c-41.3,11.2-65.4,37.2-71.3,79.7c-3,21.4-5.6,42.8-7.7,64.2
	c-1.4,15.2-0.8,30.5-2.4,45.7c-7.5,73.8-42,108.9-115.8,118c-25.2,3.1-50.6,5.2-75.8,8.4c-44.1,5.6-56.3,17.2-66.7,60.1
	c-6,24.7-11.3,49.7-20,73.4c-16.9,45.9-47,66.5-95.8,66.1c-26.6-0.2-53.3-2.7-79.7-5.9c-27-3.2-47.1,5.4-61.6,28.4
	c-15,23.6-30.2,47-45.9,70.2c-24.8,36.8-60.4,55.2-104.1,51.5c-36.4-3.1-72.6-11.2-108.5-18.4c-22.3-4.5-43.9-12.9-66.2-17.4
	c-49-9.8-93.1,0.4-131.4,34c-17.2,15-34.9,29.7-54,42.3c-44.3,29.3-90,31.8-135.9,2.6c-15-9.5-30.2-18.8-45.4-28
	c-31.5-19.3-64.9-21.1-98.9-8.5c-22.6,8.4-44.4,18.8-66.4,28.5c-17.4,7.7-34.3,16.8-52.1,23.5c-64.4,24.4-115.2,11.6-161.1-40.7
	c-12.5-14.3-24.3-29.5-34.4-45.6c-12.3-19.5-28-23.5-48.9-16.7c-14.5,4.7-29.2,9-44.2,11.8c-36.8,6.9-71.2-0.5-89.9-34.3
	c-23.8-43.2-57.6-46.7-99.6-37.4c-19.6,4.3-40.3,4.3-60.6,4.9c-40,1.4-67.7-17.8-84.5-53.5c-4.9-10.3-9.3-20.9-13.5-31.5
	c-15.5-38.5-15.4-38.5-58.5-36.3c-20.3,1.1-40.6,2.3-60.9,3.6c-57.3,3.7-98.3-19.5-120.7-73.4c-7.3-17.6-14.5-35.2-22.4-52.6
	c-10.4-23.1-20.1-46.7-32.5-68.8c-28.1-50.3-67.4-88.9-122.6-109.1c-7.2-2.6-14-6-21.2-8.4c-73.2-24.4-91.2-75.2-80.1-143.4
	c3.1-18.8,5.9-37.7,9.7-56.3c3.9-18.8-2.3-32.5-18.8-41.5c-18.9-10.4-37.4-21.8-57.2-30.4c-66.3-29.1-95.4-82.7-95.8-151.4
	c-0.4-57,4.4-114.3,9.8-171.1c3.5-36.4-5.8-64.7-35.2-86.8c-14.2-10.6-27.5-22.6-40.1-35.2c-39.1-39-47.6-82-26-132.6
	c8-18.7,18-36.5,27-54.6c6.2-12.5,12.5-25,18.6-37.5c29.3-59.6,33.4-118.3-1.6-177.9c-14.7-25-25.1-52.7-35.8-79.9
	c-22.3-56.6-6.3-104.7,36.2-145.2c18.4-17.5,38.2-33.5,58-49.4c42-33.9,58.9-78.4,56-131.2c-2-35.5-6.5-70.9-7-106.4
	c-1-62,27.4-107.6,84.2-133c28.9-12.9,59.3-22.7,89.8-31.3c21.2-6,33.6-18.3,36.1-39c6.3-51.2,35.5-83,82.6-99.5
	c42.7-15,60.1-47.1,65.6-89.5c3.4-26.4,7.6-52.9,14.5-78.5c19-70.4,53.8-99.1,126-107.1c46.7-5.1,93.4-10.3,140.1-15.5
	c6.3-0.7,12.7-1,18.9-2.4c96.3-21.7,88.6-20.5,121.9-100c10.7-25.6,22.8-51.6,39.3-73.6c40.5-54,95.9-74.3,161.6-57.5
	c29.2,7.5,56.8,21.5,85.1,32.8c15.3,6.2,30.4,12.8,45.5,19.5c21.8,9.8,42.2,6.9,61.2-6.7c17.6-12.5,35-25.4,52.1-38.5
	c73.8-56.5,150.4-61.8,230.5-13.7c18.5,11.1,37.9,20.7,56.6,31.4c19.7,11.2,38.6,10.3,57.4-2.1c18-11.9,36.2-23.6,54.6-35
	c70.2-43.3,121-35.2,173.7,27.8c13.9,16.6,27.9,33,40.8,50.3c15.8,21.1,36.1,26.1,60.6,20.3c35.8-8.4,71.7-16.6,107.7-24.5
	c75.4-16.5,124.1,4.4,164.5,70.1c13.3,21.7,26.6,43.3,40.7,64.5c26.9,40.5,64,59.9,113.4,55.1c22.7-2.2,45.7-2.7,68.6-2.9
	c75.6-0.5,121.5,37.1,136.2,111.5c5.2,26.2,9.9,52.5,13.4,78.9c4.9,37.2,22.2,60.9,62,65.4c14.9,1.7,29.4,7.5,43.8,12.3
	C3432.8,1026.2,3448,1068.7,3443.7,1127.4z M2957,3261.6c0,0.5,0,1,0,1.5c15.2,0.8,30.5,2,45.7,2.2c33.2,0.3,40-4.4,50-35.1
	c5.8-18.1,10.4-36.7,15.6-55c21.2-74.8,54.2-102.3,131.5-110.5c24-2.5,48-5.4,71.8-9.2c29.7-4.7,48.5-20.6,51.3-52.3
	c1.5-17.7,2.4-35.6,5.5-53c6.6-36.1,11.9-72.7,22.5-107.6c12.5-41.1,41.6-69.1,82.7-83.5c24-8.4,47.9-16.8,71.9-25.1
	c26.2-9.1,39.9-27.3,36.8-55c-3.1-28.9-6.6-58.1-13.2-86.3c-10.6-45.4-3.2-86.1,27.3-121.3c15.7-18.1,33.2-35,51.4-50.7
	c54.9-47.5,65.6-88.4,39.8-155.5c-11-28.4-22.1-56.8-32.2-85.6c-21.5-61.4-15.3-120,19.2-175.3c8.7-14,16.9-28.4,25.7-42.4
	c13-20.7,13.4-40.2-3.3-59.4c-12.5-14.4-23.3-30.2-36.2-44.2c-42.4-45.9-49.4-95.5-17.2-149.8c4.5-7.6,8.5-15.6,12.5-23.6
	c17-33.6,17.8-36.4-9.3-62.8c-51.8-50.5-70.8-108.8-53.3-180.1c7.5-30.6,10.6-62.8,11-94.3c0.5-43.5-21.9-71.3-63-85.1
	c-16.8-5.7-34.2-9.8-51.2-15c-48.9-15-65.6-36.6-67.7-88.1c-0.8-19-0.8-38.1-0.2-57.2c0.7-21.2-9.3-33.2-29.3-38.4
	c-20.9-5.4-41.5-11.8-62.5-16.8c-57.2-13.6-89-51.1-100.7-107c-6-28.6-10.2-57.5-15.2-86.3c-7.7-44.2-24.7-59.1-69.2-59.3
	c-27.9-0.1-55.9,0.6-83.8,1.7c-70.3,2.8-122-28.3-159.3-86.1c-14.5-22.4-28.5-45.1-42.9-67.6c-21.7-34-51.7-47.3-91.4-37
	c-32,8.3-64.4,15-95.9,24.5c-60.5,18.3-106.7-1.2-143.4-50.2c-13.7-18.3-27.7-36.5-43.2-53.2c-23.2-25-37.2-27.3-67.3-10.7
	c-18.8,10.4-36.3,23.4-53.8,36c-44.8,32.4-91,35.6-139.2,8.3c-21-11.9-42.4-23-63.5-34.8c-52.4-29.2-102.3-23.7-150.1,10.7
	c-18.6,13.4-36.1,28.1-54.8,41.3c-41.9,29.4-86.6,34.1-133.5,12.7c-26.6-12.1-52.5-25.6-79.3-37.3c-68.2-29.6-118.1-10.7-150.1,56.7
	c-9.2,19.5-17.4,39.6-24.7,59.9c-21.5,60.1-65,92.1-127,100.5c-40.3,5.5-80.6,10.4-120.9,15.3c-25.2,3.1-50.6,5.2-75.7,8.6
	c-36.4,4.9-61.1,23.4-68.1,61.3c-3,16.2-7.3,32.3-9.1,48.7c-8.9,79.1-42.5,140.3-120.5,170.4c-1.2,0.5-2.3,1.1-3.5,1.6
	c-15.2,6.7-24.8,18.1-26,34.7c-3.8,53.9-39.1,79.8-85,96.1c-21.5,7.7-43.5,13.9-65,21.7c-45.3,16.5-60.3,37.2-60.6,85.4
	c-0.2,22.8,1.5,45.7,3.6,68.5c8.8,96-23.4,174.4-98.5,235.4c-15.7,12.8-30.1,27.4-43.6,42.5c-14.5,16.2-19.6,35.2-10.1,56.4
	c11.3,25.5,20.9,51.9,33.7,76.7c37.1,71.5,38.6,143.5,5.9,216.7c-8.3,18.5-17.4,36.7-25.9,55.2c-7.9,17.3-16.1,34.5-23,52.2
	c-9.7,25.2-3.9,47.5,15.4,66.1c14.6,14.1,30,27.5,44.8,41.4c32.5,30.6,47.8,68,44.3,112.9c-2.9,36.7-7.1,73.5-7.8,110.2
	c-0.6,34.1,1.2,68.3,4.6,102.2c2.3,22.7,16.3,39.7,36.8,50.3c22.6,11.6,45.3,22.8,68.1,34.1c49.1,24.3,69,60.1,62.9,114.2
	c-1.4,12.6-4.6,25-6.6,37.5c-11.6,73.1-12.4,75.1,55.2,102.6c76,30.9,128.8,84.2,164.4,156.3c9.5,19.3,17.7,39.4,26.5,59
	c7.8,17.4,15.5,34.8,23.6,52c12.2,25.8,31.3,37.5,61.1,34.3c31.5-3.3,63.5-2.6,95.2-4.3c31.6-1.6,53.6,11.9,67.1,40.2
	c9.3,19.5,18.2,39.2,28.8,58c13.7,24.4,22.7,28,49.9,23.5c17.5-2.9,35.1-5.3,52.5-8.8c48.9-9.8,88.1,5.7,116.4,46.1
	c29,41.4,33.7,36.3,76.1,23.7c4.9-1.4,9.6-3.2,14.5-4.6c36.3-10.4,67.9-3.1,93.6,25.4c17,18.9,33.6,38.2,50.7,56.9
	c35.9,39.4,55.3,43.1,104,20c25.3-11.9,49.9-25.4,75.6-36.2c69.9-29.4,138.1-30.9,202.7,15.2c9.2,6.6,20.1,10.9,29.9,16.7
	c24.9,14.6,48.6,11.9,71.2-4.8c19.4-14.4,38.4-29.2,57.6-43.9c41-31.4,87.3-46.9,138.8-42.7c23.9,1.9,47.6,7.1,71.1,12.2
	c34.7,7.6,69,17,103.7,24.6c36.4,7.9,64.8-3.4,84-36.6c12.1-20.9,25.2-41.2,38.6-61.2c22.2-33.2,53.4-49.7,93.7-48.3
	C2931.6,3262,2944.3,3261.6,2957,3261.6z"/>
<path d="M2730.5,2630.7c-95.1,0.1-172.9-76-173.5-169.8c-0.7-100.9,73.9-175.5,174.9-175c96,0.5,178.3,77.3,177.2,167.3
	C2908.1,2538.4,2845.3,2633.9,2730.5,2630.7z M2799.9,2455.4c28.6-0.5,52.3-22.9,52.3-49.1c-0.1-26.8-24.1-51.2-50.5-51
	c-28.8,0.2-48,21-47.7,51.8C2754.3,2437.2,2772.1,2455.9,2799.9,2455.4z"/>
<path d="M1517.5,2631.5c-93.4,1.1-172.9-74-174.6-164.8c-1.8-98.4,74.7-177.5,173.3-179.3c98.5-1.7,178.9,73.3,179.7,167.6
	C1696.7,2556.9,1622.5,2630.3,1517.5,2631.5z M1580.3,2455.3c30.2,0.9,54-21.5,54.4-51.1c0.3-28.1-22.5-51.8-49.7-51.6
	c-26.1,0.2-47.5,21.2-49,48.1C1534.1,2432.3,1552.1,2454.4,1580.3,2455.3z"/>
<path d="M1426.7,2881c-33.8-6.5-72.5-12.4-110.4-22c-16.6-4.2-33.1-13.7-46.5-24.6c-46.5-37.9-44.4-95.8,6.8-126.8
	c25.4-15.4,55.4-25.4,84.7-31.7c64.2-13.8,128.6-12.3,191.5,9.3c25.6,8.8,48.7,21.7,65.5,43.8c23.1,30.4,22.5,61.1-2.5,90
	c-22.6,26.1-53.1,39.4-85.5,46.5C1498.2,2872.5,1465.2,2875.5,1426.7,2881z M1299.9,2777.8c54.2,55.5,222.7,52.6,270.5-3.7
	c-3.9-20.2-19.9-29.4-36.8-34.1c-66.1-18.4-132.5-20.5-197.8,4.1C1320.9,2749.8,1304.2,2755.8,1299.9,2777.8z"/>
<path d="M2821.1,2880.4c-29.4-5.3-69.4-11.5-108.9-20c-14.6-3.1-28.9-10.1-41.7-18c-53.7-33-57.9-88-10.7-129.5
	c28.8-25.3,64.2-37.4,100.8-41.4c64.7-7.1,129.4-6,191.5,18.6c37.4,14.8,68.9,34.4,71.7,79.4c2.3,37.2-21.4,67-68.5,86.2
	c-16.4,6.7-33.6,11.9-51,15C2880.5,2874.9,2856.3,2876.4,2821.1,2880.4z M2687.4,2768.3c0,4.3,0,8.6,0,12.9
	c13.6,8.1,26.2,19.5,40.9,23.7c65,18.7,130.7,17.1,195.3-1.9c14.2-4.2,33.8-16.2,36.5-28c4.9-21.4-18.7-28.1-34.7-33.1
	c-65.8-20.8-132.3-23-197.8,1.1C2713.1,2748.4,2700.8,2759.7,2687.4,2768.3z"/>
<path d="M2134.6,2913.5c-119.3-3.9-189.8-81.7-207.2-194.6c-1.7-11,3.6-25.7,10.7-34.9c16.6-21.7,40.5-16.5,48.1,9.7
	c3.9,13.3,4.7,27.5,7.6,41.1c16.5,78.8,81,127.4,156.6,118.3c56-6.8,98.5-46.2,108.8-101.4c3.5-18.7,5.9-37.6,9.2-56.3
	c3-17.1,12.1-27.7,30.9-26.8c18,0.9,28.6,12.1,30.7,32.2C2341.2,2811.2,2246.7,2914.2,2134.6,2913.5z"/>
<path d="M997.8,2083.7c-6.6-3.2-11.1-4.9-15.3-7.4c-24.4-14.7-29.3-34.3-14.5-57c22-33.8,79.4-51,123.7-37.2
	c35.2,11,63.9,51.7,64,90.8c0.1,44.5-35.3,81.3-79.2,82.1c-17.8,0.3-28.1-14.6-19.4-31.3c6.3-12.1,16.6-22.3,25.7-32.8
	c8.5-9.8,18.5-19.2,9.5-33.3c-9.2-14.6-24-20.4-39.6-14.8c-13.4,4.8-25.1,14.5-33.1,19.4c10.7,30.1,18.7,54.7,28.3,78.7
	c6.4,16.2,15.8,31.2,22.5,47.3c4,9.7,9.1,21.5,6.9,30.8c-3.5,14.6-18.5,15.1-31.6,14.8c-22.9-0.5-37.7-14.1-48.5-32.3
	c-16.6-27.9-16.3-58.2-9.5-88.7C989.7,2104.4,993.4,2096.2,997.8,2083.7z"/>
<path d="M1244.8,1559.9c1.9,10.1,4.3,18.6,5.1,27.3c2.3,25.1-6.3,40.8-24.2,45.5c-22.4,5.9-46.4-1.6-54.9-22.3
	c-7.9-19.2-9.7-40.9-15.4-67.1c2,1.8-0.4-1.1-3.4-3c-50.9-31.8-56.9-70.6-17.7-115.9c29.3-33.9,66.9-44.4,109.7-36.6
	c35.2,6.4,65.2,38.6,69.6,71.9c5.1,37.9-11.2,70.3-44.8,88.8C1261.3,1552.6,1253.3,1555.9,1244.8,1559.9z M1222.1,1550.3
	c9.8-21,18.1-39.1,26.8-56.9c5.9-12,10.2-24-1.1-34.9c-14.6-14.2-32.2-13.5-49.8-7.1c-13.8,5.1-28.6,15.6-24.1,30
	C1182.6,1508.7,1184.7,1543.3,1222.1,1550.3z"/>
<path d="M1743.9,961.5c11.9,14.7,22.1,27.3,33,40.9c8.3-3.7,15.7-5.7,21.7-9.8c14.5-10,25.4-23.6,18-41.7
	c-6.7-16.5-23.2-16.9-39.1-16.7c-17.6,0.3-35.6,1.6-52.7-1.6c-22.4-4.2-36.8-25.4-33.7-43.8c3.2-18.8,18.4-29.5,43.1-27.5
	c25.2,2.1,50.6,4.6,75.2,10.2c45.5,10.3,68.7,40.9,69.6,87.4c1.1,60.5-60.9,115.1-122.3,107.6c-27.4-3.3-44.8-18.7-50.6-44.4
	C1701.2,999.4,1713,979.7,1743.9,961.5z"/>
<path d="M3139.7,1321.5c1.9,11.7,4.3,21.5,4.8,31.4c0.7,15.2-5.9,26.9-19.8,34c-14.9,7.6-27.6,2.2-37.8-8.3
	c-8.7-9-14.9-20.4-22.8-30.3c-11.6-14.6-23-29.3-35.6-43c-14.9-16.2-19.1-40.4-9.3-63.6c21-49.6,91.4-75.6,138.6-50.1
	c26.6,14.4,41.5,37.7,39.7,68.4c-1.7,27.8-15.8,47.5-45,53.8C3149,1314.4,3146.1,1317.5,3139.7,1321.5z M3080,1288.9
	c16.9-7.8,33.8-15.6,53.7-24.7C3103.6,1245,3091.9,1249.9,3080,1288.9z"/>
<path d="M3355.7,2244.6c-0.3-28.1,7.9-40.9,29.4-46.3c20.1-5,45,5.5,55.9,23.6c10.5,17.5,6.2,36.2-10.8,54.3
	c-12.9,13.7-24.1,29-36.3,43.3c-33.9,39.8-82.9,50.8-126.3,28.5c-45.3-23.2-67.5-69.1-55.6-117.1c2.3-9.4,6.9-19.1,13.2-26.4
	c10.1-11.8,24.3-13.2,38.2-7c14.2,6.3,20,17.3,18.1,33.7c-1.8,14.7-2.1,30.1,0.1,44.6c2.2,14.4,13.7,20,28.3,19.2
	C3338.5,2293.8,3356,2274.8,3355.7,2244.6z"/>
<path d="M2457.9,1399.3c-10.1-3.4-31.1-8.5-50-17.7c-16.5-8-28-23.7-26.6-42.9c0.7-10,7-21.4,14.3-28.7c9.5-9.7,20.7-4.3,30.6,3.3
	c9,6.9,18.2,15.1,28.6,17.9c8.4,2.2,21.8,0.1,27.2-5.7c5.2-5.5,5.7-18.9,3.3-27.3c-4.8-16.4-16-28.5-33.8-32.8
	c-11.1-2.7-22.4-5-32.9-9c-12.5-4.8-22.2-13.3-21-28.3c1.2-16.5,8.5-31.3,26-32.8c15.7-1.3,33.5-0.1,47.8,6
	c46.4,19.8,74.3,56.7,83.8,105.8C2564.4,1356.4,2524,1398.7,2457.9,1399.3z"/>
<path d="M1783.6,3094c9.3,4.7,28.8,9.9,41.5,22.1c28.6,27.5,40.4,63.9,39.1,103.5c-0.7,22-14.4,35.8-31.8,35.7
	c-17.7-0.1-28.3-13.2-29.4-36.8c-0.4-7.6,0.4-15.2,0.2-22.8c-0.5-16.9-1.8-33.8-22-39.5c-17.6-4.9-41.8,6.7-51,24.7
	c-3.4,6.7-5.4,14.2-7.5,21.5c-4.3,15.1-12.3,25.2-29.7,22.1c-18.1-3.3-27.1-17-24.9-32.8c2.5-18.2,7.8-37.8,17.9-52.7
	C1706.3,3108.8,1738.1,3096.3,1783.6,3094z"/>
<path d="M1913.1,1702c-37.8-0.1-58-21.1-58.6-58.6c-0.2-14.6-2.9-29.3-5.6-43.7c-5.5-29.1,13.3-53.5,43.6-52.1
	c17.3,0.8,35.2,4.8,51.3,11.2c37.3,14.9,55.2,49.1,47.1,84.6C1982.5,1679.8,1952.8,1702.2,1913.1,1702z M1930,1626.8
	c-0.8-3.2-1.6-6.5-2.4-9.7c-6.9,1.5-13.9,3-20.8,4.6c0.9,4.2,1.9,8.5,2.8,12.7C1916.4,1631.8,1923.2,1629.3,1930,1626.8z"/>
<path d="M2746.6,1845.7c0-0.6-1.9,6.6,0.5,11.8c2.9,6.2,9,14.4,14.6,15.1c7.4,1,18.7-2.2,22.8-7.7c5.6-7.4,7.3-18.6,8.2-28.3
	c1.4-16.8,5.1-30.7,25.3-31.2c18.2-0.4,32.3,7.3,38.1,25.3c2.6,8.2,3.8,17.5,2.9,26.1c-6.9,64-81.5,102.4-138.5,71.7
	c-33.2-17.9-50.1-57.7-39.7-94.4c1.4-4.8,3.5-9.6,6.2-13.8c10.2-16,30-24.4,45.9-19.2C2752.9,1807.6,2749.6,1823.5,2746.6,1845.7z"
	/>
</svg>
