<?xml version="1.0" encoding="utf-8"?>
<!-- Generator: Adobe Illustrator 24.3.0, SVG Export Plug-In . SVG Version: 6.00 Build 0)  -->
<svg version="1.1" id="Layer_1" xmlns="http://www.w3.org/2000/svg" xmlns:xlink="http://www.w3.org/1999/xlink" x="0px" y="0px"
	 viewBox="0 0 4000 4000" style="enable-background:new 0 0 4000 4000;" xml:space="preserve">
<path d="M2197.9,3620.8c-67.3,3.2-134.5-13.9-201.9-27.6c-64-13-128.2-20.2-193.4-20.7c-65.9-0.5-131.8-0.6-196.7-16.2
	c-64-15.4-121.4-43.6-164.3-93.2c-54.3-62.9-123.2-100.3-198.9-128.9c-49.7-18.8-96.8-42.4-140.5-73.2
	c-51.4-36.1-88.9-82.8-113.9-140c-6-13.7-12.3-27.4-17.9-41.2c-21-51.7-52.3-96.4-91.8-135.6c-14.9-14.8-29.1-30.3-44.3-44.8
	c-98.7-94.3-163.8-209.2-199.9-339.6c-33.7-121.4-70.4-241.6-112-360.5c-12.4-35.5-18.1-73.7-23.6-111.1
	c-6-41.1,2.6-81.6,13.4-121.3c14.4-53,33.4-105,43.3-158.8c10.8-58.7,12.5-119.1,19.9-178.5c7.6-61.4,14.6-123.1,26.8-183.7
	c16.6-82.6,57-155.4,105.5-223.4c69.8-97.9,147.9-188.8,233.9-272.9c53.8-52.6,103-108.8,142.2-173.4
	c52.5-86.5,129.1-139.5,227.2-163.5c47.4-11.6,95.1-24,140.6-41.3c70.3-26.8,134-66.8,195.6-109.7c50.2-35,102.7-65.5,162.2-82.6
	c52.5-15.1,105.4-20,160-13.8c39.6,4.5,79.9,6.4,119.6,4.7c138.1-6.1,273.5,6.1,404.7,52.3c44.3,15.6,87.5,34.2,132.2,48.3
	c48.5,15.2,98,27.7,147.4,39.7c108.1,26.1,201.5,80.6,288.9,147.1c47.4,36.1,87,79.6,121.9,127.4c21.6,29.6,46.6,55,79.2,71.9
	c81.6,42.3,134.7,110.6,177,189.8c24.4,45.7,51.1,90.3,78.2,134.5c12,19.5,28,36.4,41.5,55c51.9,71.2,77.2,152.8,91.6,238.4
	c4.3,25.6,8.4,51.4,9.9,77.3c3.8,62.9,19.7,122.4,49.4,177.7c68.5,127.5,76.6,261.1,40.2,398.6c-15.1,56.9-33,113.2-53.2,168.5
	c-21.4,58.8-33.9,118.8-40,180.8c-6.3,64.6-13.7,129.2-24.2,193.2c-5.6,34.2-17.4,67.7-29,100.6c-29.1,82.8-81.2,148.9-153,198.6
	c-58.2,40.3-108.6,87.5-148.3,146.5c-64,95.1-148.9,169.3-241.5,235.2c-44,31.3-88.5,61.8-133.9,90.9
	c-84,53.9-177.3,81.6-275.7,93.9c-82.3,10.3-163.6,24.5-242.9,50.9C2342.2,3609.4,2272.3,3623,2197.9,3620.8z M3726.5,1972.2
	c-1.9-21.9-3.1-43.8-6-65.5c-8-61.3-32.7-117-59.4-172c-20.2-41.6-34.1-85.2-40-131.3c-5.3-41.6-10.1-83.3-16.9-124.7
	c-12.8-77.6-33.9-152.9-83.6-215.7c-48.1-60.7-87.3-126.3-121.7-195.4c-34.9-70.2-83.5-128.7-154.8-166.1
	c-40.4-21.2-72.1-52.7-99.8-89.1C3041,676.4,2902.9,593,2739,551.5c-73.7-18.7-146.6-39-217.4-66.9
	c-128.2-50.6-261.1-73.9-398.9-65.5c-51.1,3.1-101.8,2.7-152.5-4.7c-68.2-10-134.1-0.6-195.2,30.7c-44.3,22.7-87.1,48.8-128.7,76.2
	c-90.8,59.9-186.1,109.1-293.8,130.6c-10.7,2.1-21,6.5-31.7,8.9c-89,19.9-154.4,71.5-202.3,147.9c-40.5,64.6-88.6,123.2-143.8,176
	c-91.3,87.4-172.6,183.3-243,288.3c-48,71.5-82.8,148.2-94.7,234.1c-5.3,38.6-10.2,77.3-13.4,116.1
	c-9.5,112.7-20.8,224.7-59.9,332.2c-16.1,44.3-24.8,91.5-17.6,138.6c6,39.3,15.1,78.7,28.3,116.1c35.4,99.9,68.4,200.4,95,303
	c20.2,77.8,50.6,151.6,92.9,220.1c34.3,55.6,75.2,106,123.5,150c63.3,57.7,110.1,125.9,139.7,206.4
	c27.7,75.1,82.7,126.5,151.9,162.9c36.1,19,74.2,34.5,112.4,49.3c64.3,24.9,122.7,58.1,169.8,109.3c7.4,8.1,15.6,15.5,23.3,23.3
	c43,43.3,95.1,70.5,155.1,78.2c53.4,6.8,107.4,10.3,161.2,11.3c66.3,1.2,131.3,9.3,196.3,21.6c53.9,10.3,108.1,20.6,162.6,25.8
	c80.6,7.7,159.9-6,236.4-30.4c84.2-26.9,170.1-42.8,257.6-53.2c86.2-10.2,168.5-35,241.8-82.7c61.1-39.8,120.3-82.4,179.6-124.8
	c80.3-57.5,149.8-125.8,204.6-208.6c33.5-50.6,76.2-92.4,126.3-126.6c11.5-7.9,22.4-16.8,33.8-24.9c52.9-37.4,92-86.5,115.3-146.3
	c16.2-41.6,30.1-85,38.1-128.8c10.1-55.9,14.2-112.9,19.1-169.6c4.7-55,13.2-109,32-161.1c14.2-39.4,29.1-78.7,42-118.6
	C3708.3,2123,3725.1,2049.2,3726.5,1972.2z"/>
<path d="M2671.4,1909.2c75.4-1.2,159.8,57.5,158.4,154.1c-1.3,89.6-67.9,161.1-162.9,161c-84.6,0-154.6-71.2-154.4-158.5
	C2512.7,1977,2581.4,1909.4,2671.4,1909.2z M2777.5,2018.9c0.3-27.1-17.8-48.1-41.9-48.5c-25-0.5-44.3,19-45.1,45.4
	c-0.7,28,16,45.4,43.3,45C2760.9,2060.4,2777.2,2044.7,2777.5,2018.9z"/>
<path d="M1691.5,2062.3c-1.6,94.7-72.2,164.3-166.1,163.7c-78-0.5-150.5-77.1-149.3-157.8c1.3-93.8,70.2-162.2,161.2-160.1
	C1624.1,1910.1,1692.9,1978.8,1691.5,2062.3z M1635.2,2018.6c-0.3-26.2-20-48.1-43.2-48.1c-24.7,0-44.5,20.9-44.3,46.5
	c0.3,27.3,18.1,44.1,45.8,43.3C1616.9,2059.6,1635.5,2041,1635.2,2018.6z"/>
<path d="M1625,1150.4c-1.4,74.5-22.8,134.6-75.8,181.7c-28.5,25.4-62.4,39.8-98.2,49.2c-45.9,12.1-92.8,14.5-139.7,6.3
	c-38.7-6.7-71.7-24.7-97.5-54.6c-37.5-43.5-60.7-93.7-68.3-150.8c-5.9-44.4,5-85.8,27.4-123.6c15.2-25.7,33.4-49.8,51.8-73.3
	c47.7-61.1,111.7-83.2,186.3-68.9c34.8,6.7,69.8,18.9,101.3,35.2C1594.3,994.1,1622.1,1068.5,1625,1150.4z M1369.2,1346.2
	c28.2-5.8,57.1-9.3,84.4-17.9c50.8-16.1,91.5-46.7,107.5-99.6c8.8-29.1,14.5-60.7,13.2-90.8c-3-67.8-28.6-124.4-96.8-151.8
	c-21.2-8.5-42.9-16.5-65.1-21.8c-58.6-13.8-108.9,0-146.1,49.7c-18.5,24.7-37.3,49.4-53.1,75.8c-15.5,26-23.7,55.3-19.3,86
	c5,34.9,17.1,67.4,36.2,97.4C1262.3,1324.2,1307.5,1349.3,1369.2,1346.2z"/>
<path d="M3074.3,2964c-8.4,91.6-42.2,159.7-126.9,193.7c-33.4,13.4-66.4,27.8-100.2,40.1c-75.1,27.5-149.6,4.6-196-60.9
	c-132.7-187.4,9.8-372.1,160.1-394.1c66.6-9.7,128.9-7,178.9,42.7c35.8,35.5,61.2,79,74.2,128.4
	C3069.3,2932.1,3071.8,2951,3074.3,2964z M2873.3,2786.7c-64.7,0.4-114.6,17.6-154.8,53.3c-86.9,77-94.2,197.7-17.1,279.3
	c40.8,43.2,83.4,52.6,138.2,29.8c27.6-11.5,54.1-26.1,82.4-35.5c92.9-30.8,121.8-142.9,85.7-214.7c-9.9-19.5-20.9-38.5-31.9-57.4
	C2953,2802.2,2917.8,2785.6,2873.3,2786.7z"/>
<path d="M1308.9,3105.1c-46.1-2.2-99.7-24.7-147.7-61.3c-20.5-15.6-32.8-37.6-40.5-61.9c-15.5-49.1-22.5-99.5-17.7-150.9
	c3.8-41,22.2-74.1,57.3-97.2c59.8-39.2,153.3-58.2,223.3-9.2c61.1,42.8,97.8,101.7,102,175.3c3.7,63.8-18.8,122.1-63.6,169.4
	C1396.4,3096.6,1368,3105.6,1308.9,3105.1z M1148.6,2858.5c4.8,31.5,8.3,63.3,14.7,94.5c5.9,28.6,21.7,52.1,48.5,65.1
	c28.6,13.8,57.6,27.9,87.9,37c41.2,12.5,77.2,0.6,103.1-35.1c20.2-27.9,33.5-59.2,36.6-93.8c6.2-68.8-28.6-118.3-78.7-159.1
	c-25.2-20.5-55.8-28.5-87.4-21.9c-25,5.3-50,13.9-73,25.1C1164.7,2787.8,1146.5,2817.3,1148.6,2858.5z"/>
<path d="M3186.7,1263.9c-2.9,89.9-33.6,142.5-92.7,176.2c-59,33.6-119.1,29.4-176.4-6c-126.8-78.4-111.9-204.3-47.8-286.2
	c22.3-28.5,48.6-52.8,84.2-65.2c29.2-10.1,55.3-4.9,79,13.3c34.1,26.1,67.9,52.7,101.3,79.7
	C3169.1,1203.6,3188.4,1239.3,3186.7,1263.9z M3137.4,1285c1.5-34.1-14.3-58.7-41-78.4c-27.2-20.1-53.9-41-79.6-62.9
	c-26-22.1-37.4-24.5-66.4-6c-36.9,23.5-60.3,57.7-73.2,98.9c-26.5,84.6,44.8,179.1,133.8,178
	C3079.9,1413.7,3136.5,1355.8,3137.4,1285z"/>
<path d="M956.6,1573.3c36.5-1.3,63.3,17.5,86.5,41.9c28.6,30.1,48.7,66.1,58.4,106.5c15.9,66.2-5.7,123.2-53.5,168.1
	c-21,19.7-50.1,32.3-77.4,43.6c-31.9,13.3-64.7,8.2-95.5-7.5c-35.5-18.1-63.9-44.1-84.6-78.2c-15-24.7-23.6-51.8-17.4-80.1
	c8.5-38.8,18.5-77.5,31.8-114.8c14.1-39.6,45.8-62.1,86.5-70.5C912.9,1577.8,934.9,1576.2,956.6,1573.3z M961.3,1622.7
	c-20.6,3.2-41.4,5.7-61.8,9.8c-25.4,5.1-43.8,20.8-52.2,44.7c-10.5,30-19.1,60.8-26.1,91.7c-2.7,12-2.2,26.8,2.5,37.9
	c16.7,39.5,47.7,66.2,87,81.7c32.7,12.9,59.6-6.3,86.6-21.1c4.4-2.4,8.4-5.3,12.5-8.2c43.1-30.5,62.2-86.7,41.5-134.8
	c-12.5-28.9-31.2-55.3-48.4-81.9C993.6,1628.4,979.3,1621.5,961.3,1622.7z"/>
<path d="M2340.9,657.5c47.5-1.2,81.7,20.1,105.7,58.5c27.8,44.4,41.5,93.1,36.8,145.6c-4.7,52.7-30.6,91.2-83.3,105.4
	c-39.4,10.6-79.7,18.6-120.1,24.5c-40.5,6-70.9-12-93.8-46c-44.6-66.2-47-133.8-10.9-204c16.9-32.9,42.2-56.1,77.8-65.7
	C2282,668,2311.6,663.5,2340.9,657.5z M2436.5,837c-1.8-34.8-12.8-72.6-37.5-105.8c-11.2-15-25.4-27.9-45-25
	c-30.5,4.5-60.9,10.7-90.4,19.3c-12.5,3.7-25.7,13.3-33.4,23.9c-42.3,58.3-43.6,123.7,8.9,180c13.6,14.6,28.2,20.8,48,15.6
	c28.9-7.6,58.3-13.5,87.2-21.2C2422.4,911.2,2436.4,892.4,2436.5,837z"/>
<path d="M3238.4,2005.7c1.4-8.9,2.3-24,6.1-38.3c14.2-53.2,44.5-91,101.8-100.6c21.5-3.6,43.5-8.5,65-7.7
	c85,3.2,133.1,77.6,129.5,153.5c-2.3,48-20.8,91.2-50.1,129.2c-26.2,34.2-61.2,51-104.6,45.2c-80.3-10.6-137.6-58.6-146.4-151.4
	C3239.2,2027.7,3239.1,2019.7,3238.4,2005.7z M3288.8,2021c0.6,5.3,0.9,15.4,2.7,25.1c8.1,44,33.4,73.8,75.4,88.9
	c29.9,10.7,56.4,6.3,79.1-18c29.2-31.3,44.6-68.5,48.1-110.3c3.4-40.7-26.8-84.6-63.1-96.1C3355.5,1886.8,3287,1937.7,3288.8,2021z"
	/>
<path d="M2747.2,2252.4c39.3,0.1,77.5,7.6,114,21.1c17.4,6.4,34.2,16.8,48.3,29c31.3,27,31.4,66.4,0.4,93.5
	c-13.2,11.5-29.4,21.2-45.9,27.1c-78.2,27.6-156.5,26.4-233.6-5.1c-31.3-12.8-56.2-33.8-55.9-70.3c0.3-34.8,24.1-55.3,53.8-69.1
	C2662,2262.8,2711,2252.3,2747.2,2252.4z M2750.8,2393.7c31.6-5.6,65-10.6,97.9-17.9c14.2-3.2,31.8-8.7,33-26.2
	c1.2-18-16.4-23.5-30-28.8c-63.9-24.9-128.4-25.6-193.1-3.2c-8.3,2.9-16.6,7.2-23.4,12.8c-14,11.5-13.7,24.4,1.2,34.1
	c9.9,6.5,21.1,12.1,32.5,14.6C2694.9,2384.9,2721.5,2388.6,2750.8,2393.7z"/>
<path d="M1459,2441.9c-46.5-1.6-90.9-7.1-132.1-27.6c-22.5-11.2-39.5-27.9-44.1-53.4c-3.9-21.6-0.3-43.4,18.3-57.1
	c18.2-13.4,38-26.4,59.1-33.5c60.1-19.9,121.8-21.1,182.8-3.8c18.9,5.3,37.4,14.3,54.1,24.9c49.5,31.6,48.4,89.9-4.1,117.3
	c-26.9,14-57.9,20.6-87.7,28.4C1490.1,2441.4,1473.7,2440.6,1459,2441.9z M1451.8,2394.8c34.1-6.5,68.4-12.1,102.1-20.1
	c13.1-3.1,28.3-9.8,28.3-26.8c0-15.7-14.9-20.2-26.4-25.2c-65.9-28.5-132.2-24.9-198.2-0.2c-11.9,4.4-27.6,10.9-25.4,25.4
	c1.4,9.2,13.5,18.8,23,24.4C1384.6,2389.5,1417.8,2390.6,1451.8,2394.8z"/>
<path d="M2091.5,2456.6c-72.2-4.4-143.5-38.5-186.6-120.1c-14.3-27-21.7-55.9-21.3-86.4c0.2-19.7,7.4-27.8,23-28.8
	c17.6-1.1,27,6.4,27.8,27.1c3,71.5,42,117.8,105,143c71,28.4,137.4,14.4,195.3-35.6c25.1-21.7,39.2-50,44.2-82.8
	c1.8-11.8,3.4-23.7,5.8-35.5c2.6-12.8,11.4-18.3,24.1-17c13.7,1.3,23.9,8.6,22.8,22.7c-1.7,21.7-3.3,44.2-10.2,64.5
	C2290,2400.3,2206.9,2457.4,2091.5,2456.6z"/>
<path d="M1974.3,3338.9c-70.3,0-121.5-54.4-115.4-123c2.9-33.2,18.8-58.3,48.4-74.1c8.7-4.7,18-8.5,27.4-11.7
	c59.4-20.3,104.5,0.8,126,59.5c5.1,13.9,8.4,28.8,9.9,43.5C2077,3296.1,2037.6,3338.9,1974.3,3338.9z M2022.4,3237.9
	c-0.5-38.7-21.8-66.9-49.8-66c-36,1.2-66.1,28.3-66.1,59.8c0,32.2,32.2,59.5,69.5,58.7C2007.4,3289.7,2022.9,3272.2,2022.4,3237.9z"
	/>
<path d="M1858.8,1470.6c0.8-63.5,39.2-99.6,105.4-99.1c63.4,0.5,104.1,41.4,102.6,103.2c-1.4,58.6-47.7,104.9-104.9,104.9
	C1903.4,1579.7,1858,1531.6,1858.8,1470.6z M1963.3,1418.5c-36.5-0.7-56,16.7-56.3,50.3c-0.3,35.1,20.3,57.8,53.4,58.8
	c34.9,1,58.5-22.1,58.4-57.2C2018.7,1436.9,1999.7,1419.2,1963.3,1418.5z"/>
<path d="M1016.6,2359.2c53.4,0.8,101.2,47.8,100.5,98.9c-0.7,56.5-41.5,98-95.7,97.5c-46.7-0.5-93.1-48.8-91.2-97.3
	C932.4,2400.9,969.7,2355.7,1016.6,2359.2z M983.2,2457.4c0,27,21.2,51.9,43.4,51c20.5-0.9,41.9-26.3,42.2-50.4
	c0.3-23.9-22.9-49.3-45.9-50.3C1000.5,2406.7,983.2,2428.4,983.2,2457.4z"/>
<path d="M3210.3,2509.4c45.5-3,89.6,40.3,89.1,89.3c-0.5,49.4-43.2,86.5-99,85.9c-49.3-0.6-82.5-32.7-82.1-79.2
	C3118.9,2549.3,3158.1,2508.4,3210.3,2509.4z M3250.5,2593c-0.8-22.8-18.1-37.9-41.5-36.3c-24.1,1.6-41.6,20.9-41.3,45.5
	c0.2,22.5,15.1,35.5,39.1,34C3232.4,2634.6,3251.3,2615.9,3250.5,2593z"/>
</svg>
