<?xml version="1.0" encoding="utf-8"?>
<!-- Generator: Adobe Illustrator 24.3.0, SVG Export Plug-In . SVG Version: 6.00 Build 0)  -->
<svg version="1.1" id="Layer_1" xmlns="http://www.w3.org/2000/svg" xmlns:xlink="http://www.w3.org/1999/xlink" x="0px" y="0px"
	 viewBox="0 0 4000 4000" style="enable-background:new 0 0 4000 4000;" xml:space="preserve">
<path d="M507.2,1782.3c-5.7-27.7-11.4-54.1-16.4-80.7c-16.3-85.2-8.2-170,16-251.7c71.8-242.3,227.1-407.3,469.4-483.8
	c46.2-14.6,74.3-33.1,94-79.6c35.8-84.2,106.3-138.5,185.7-180.9c85.4-45.6,177.4-69.9,272.4-85.2c73.9-11.9,148.6-19.7,220.2-44
	c57.3-19.5,109.4-47.7,157.1-84.6c31.6-24.5,53.9-56.5,73.5-90.6c8.1-14.1,15.5-28.7,23.2-43.1c43.4-82.1,116-112.5,208.8-92
	c62.9,13.9,111.8,51.6,152.6,100.3c11.8,14.2,22.9,29,34.7,43.3c25,30.4,53.5,56.8,87,78c57,35.9,113.8,72.4,161.3,121.2
	c44.3,45.6,82.6,95.9,107.5,154.4c12.2,28.9,30.2,40.4,59.5,46.4c125.1,25.2,229.7,85.9,305,190.5c22,30.5,37.3,66,53.6,100.2
	c8.4,17.6,18.5,30.9,36.9,38.7c185.2,79,278.4,227.8,315.7,418.3c6.7,34,9.3,68.9,11.9,103.5c1.3,17.8,6.9,30.9,22.5,40.4
	c42.6,25.8,68.6,65.1,89.3,109.4c10.9,23.3,24.4,46.3,40.8,66.1c42.3,51.1,67.7,108.9,74.3,174.4c6.5,64.6-10.3,125.6-39.2,182.5
	c-13.3,26.2-13.6,46.8-0.2,72.8c15.2,29.6,26.1,61.9,35.7,93.9c13.2,43.9,10.8,88.4-4.8,131.5c-9.9,27.3-7.4,52.3,3.7,78.9
	c34.7,83.2,26.9,162.6-21.5,239.5c-11.3,18-13.9,43.1-15.6,65.3c-8.2,107.7-35.7,209.9-84.7,305.9
	c-69.8,136.7-178.5,233.5-313.9,302.8c-144.5,73.9-298.4,118.9-456.8,150.3c-136.6,27.1-274.8,42.2-413.5,54.1
	c-195.5,16.8-391.1,17.8-586.7,10.3c-232.7-8.9-464.4-29.6-692.9-76.8c-181.8-37.6-357.6-93.8-519.6-186.5
	c-95-54.4-179.1-123.1-246.8-210.3c-73.9-95.2-113.4-204.8-131.6-322.5c-9.3-60.1-14.7-120.8-8.4-182c1.5-14.5,0.1-31.8-6.8-44.1
	c-57.4-103.7-42.5-207.7-2.9-311.7c9.6-25.3,22-49.8,35.6-73.2c11.9-20.5,13.6-38.5,4.8-61.3c-44.3-114.3-34.7-226.5,22.3-333.7
	c33.6-63.3,84.6-109.8,152.6-135.9c8.1-3.1,16-6.8,23.8-10.6C498.8,1788.8,501.2,1786.6,507.2,1782.3z M2097.5,3696.5
	c95-3.9,220.1-6.6,344.8-14.8c168.2-11.2,335.1-34.3,499.4-73.2c133.6-31.6,263.1-73.8,384.5-140.3
	c140.3-76.8,240.7-187.1,299.5-335.8c32.4-81.9,46-167.3,50.8-254.5c0.8-15.1-0.9-30.4,11.9-42.4c46.1-43.3,52.5-98.1,41.6-156.2
	c-5-26.5-13.5-52.7-23.6-77.8c-8.7-21.5-10.7-40.9-1-62.5c18.4-41.1,18.9-84,10.5-127.8c-8.2-42.3-26.5-80.4-47-117.5
	c-10.6-19.3-12.1-36.5,0.8-54.7c4.4-6.2,7.8-13,11.4-19.8c57.2-109.1,51.7-212.4-27-310.1c-16.8-20.9-31-44.7-42.4-69
	c-21.9-46.6-51.7-85.7-95.9-112.4c-18.1-10.9-24.3-24.5-24.4-45.3c-0.5-75.5-11.6-149.5-38.8-220.4c-52-135.6-139.4-237-279.9-285.9
	c-20.8-7.3-30.9-20.2-37.5-40.6c-25.4-78.7-70.5-143.8-137.5-193.4c-67.7-50.1-142.6-83-226.2-94.2c-20.1-2.7-32.9-10-41.4-30.1
	c-49.6-117-130.1-207.2-240.8-269.9c-50.8-28.8-94.4-65.7-130.8-111.3c-15.6-19.5-31.5-38.8-47.7-57.9
	c-30.6-36.1-69.4-58.7-115.5-69c-61.9-13.9-115,8.3-147.6,62.2c-10.1,16.7-17.8,35-28.7,51.1c-18.9,27.7-36.7,56.9-59.7,80.9
	c-72.6,75.7-165.6,114.7-265.9,136.2c-82.8,17.7-166.9,28.7-249.9,45.5c-73,14.8-141.6,42.7-203.6,84.4
	c-64.2,43.2-120.9,95.1-143.7,171.6c-10.8,36-29.3,53-64.3,56.3c-2.2,0.2-4.3,0.8-6.4,1.3c-199.3,52-344.7,171.3-435.2,355.2
	c-63.1,128.4-78,263.4-40,403.1c11.6,42.6,7,49.6-31.5,69.8c-10.6,5.5-21.9,9.6-32.4,15.2c-17.2,9.2-35.5,17.2-50.9,28.9
	c-89,67.8-120.3,161.9-117.9,269.5c1.1,49.4,14.9,96.7,37.4,140.8c8.5,16.6,8.1,29.7-3.4,44.8c-41.6,55-63.4,118.7-75.2,185.6
	c-10.7,61.1-9.6,121.9,24,177c12.6,20.7,17.1,41,15.1,64.8c-6.2,71.9-1.8,143.2,12.5,214.1c34.7,172.1,123.4,308.5,265.6,411.5
	c106,76.8,223.6,129.4,346.5,171.1c110.3,37.4,223.9,61.8,338.5,82.2c154.4,27.5,310.1,43.2,466.3,52.9
	C1852,3692.5,1959.8,3692.6,2097.5,3696.5z"/>
<path d="M3588.4,2260.2c13.7,20.9,27.4,38.1,37.1,57.3c13.1,26.1,24.6,53.2,33.9,80.9c14,41.6,13.8,84-5.4,124.1
	c-14,29.2-12,56,1.6,84.3c19.6,40.7,31,83.5,27.4,129.3c-1.9,25.1-10.4,47.7-32.4,60.9c-17.5,10.4-22.2,23-21.5,42.5
	c3.9,99.6-19.3,194.2-55.9,285.9c-46.9,117.2-127.5,206.2-232.5,274.1c-97.7,63.2-205.1,104-316.1,136.5
	c-139.2,40.7-281.8,63.6-425.4,81c-256.7,31.1-514.2,30-772.1,21c-185-6.4-369.2-22.3-551.2-55.7c-172.3-31.6-342.6-72.3-500-153.5
	c-73.6-38-144.6-79.7-207.4-134.6c-125.6-109.8-188.7-250.3-202.3-413.9c-4.2-50.6,0.7-102,3.3-152.9c0.7-14.1-1-25.4-9.5-36.3
	c-44.4-57.3-48.5-121-31.3-188.8c15.5-61,42.8-116.2,78.7-167.2c13.2-18.8,13.1-33.5,2.1-53.4c-48.8-88.7-61.4-180.8-17.3-275.1
	c33-70.4,83.3-121.6,164.3-134.3c14.8-2.3,26.3-8.7,31.1-24.8c2.4-8.1,6.1-17.1,12-22.7c17-15.9,17.1-32.9,9.8-53.3
	c-62.1-173.8-21.4-332.6,76.4-479.9c89-134.1,217.2-213.3,373.2-248.7c9.5-2.2,19.2-3.7,28.9-4.8c33.6-3.8,33.6-3.7,41.5-38.3
	c15.2-67.3,49.8-121.9,105-163.9c77-58.5,164.1-93,258.4-110.4c75.8-14,152.3-24.7,227.8-40.2c103.4-21.2,195-67.9,270.8-141.7
	c24.6-23.9,43.4-54,63.4-82.3c11.9-16.8,20.4-35.9,31.3-53.4c31.7-50.4,83.1-65,134.9-35c23.1,13.3,42.9,33,62.3,51.7
	c14.8,14.3,26.9,31.3,39.5,47.7c37.2,47.9,82.1,86.3,135,116.3c77.8,44,145,100.2,190,179c16.1,28.2,29.7,58.1,42,88.2
	c11,26.8,26.3,39.8,57.7,42c89.2,6.3,168,40.8,236.7,98.6c54.3,45.6,91.5,102.4,107.7,170.8c6.8,28.8,21.3,42.2,47.3,50.6
	c54.3,17.6,103.9,43.8,147,82.1c70.1,62.3,110,141.8,133.9,230.6c16.5,61.3,23.5,123.9,20.7,187.3c-0.8,18.9,5.1,29.3,22.7,37.9
	c54.7,26.5,91.9,67.5,103.3,129.9c2.2,12,14.1,24,24.4,32.4c57.5,46.3,80.3,107,74.4,178.8c-4.4,53.4-25.9,100.6-60.2,141.9
	C3599.9,2245,3594.8,2251.9,3588.4,2260.2z M3093,1351.5c-19.1-9.2-20.1-9.7-23.4-27.7c-5-27.8-9.8-55.7-13.7-83.7
	c-19.2-136.6-108.6-239-241.6-273.2c-32.4-8.3-66.3-11.4-99.7-14.8c-22.7-2.4-39.1-11.5-49.4-31.8c-11.3-22.3-24.1-43.9-33.9-66.8
	c-38.4-89.2-101.7-156.4-183.5-206.2c-78.1-47.5-145.8-105.7-200.5-179.2c-11.5-15.4-26.8-28.9-42.8-39.6
	c-29.5-19.6-55.4-12.9-74.9,16.8c-7.7,11.8-13.4,25-21.3,36.6c-18.3,26.9-34.7,55.6-56.6,79.3c-83.6,90.4-188.1,146.8-306.8,175.6
	c-61.1,14.8-123.9,22.4-185.7,34.4c-74.6,14.5-149.4,28.6-218,64.1c-84.3,43.6-147.3,103.6-161.7,202.7c-0.6,4.3-2.2,8.4-3.2,12.7
	c-4.4,20.1-15.4,32.5-36.9,35.5c-20.4,2.8-40.7,6.9-60.8,11.5c-115,26.3-216.3,77.3-296.9,165.6c-71.4,78.3-119.1,169.7-138.1,273.1
	c-23,125.3-1.9,242.6,84.9,342c20.2,23.1,43.9,41,71.3,55.7c43.4,23.2,89.2,26.8,136.2,22.6c50.2-4.5,91.6,12.8,127.8,45.9
	c20.1,18.3,39.9,36.9,59.9,55.3c74,68.1,161.3,104.4,261.8,110.6c82.2,5,162.5-6.9,242.4-24c76.1-16.2,146.4-45.8,214.4-83.8
	c102.8-57.5,159.7-49.2,248.7,27.5c23,19.9,46.2,39.7,70.9,57.5c38.6,27.8,82,43.4,129.7,48.7c69.2,7.7,134.1-8,196.9-34.2
	c60.7-25.4,122.5-37,187.8-23.6c26,5.4,50-0.3,71.5-14.8c21.6-14.5,43.3-29.4,62.5-46.8c64.6-58.7,136.5-81.6,222.3-54.2
	c33.3,10.7,68.1,10.6,103.2,3.6c63.8-12.7,116.5-45.6,167.1-84.3c53.8-41.2,81.7-96.5,85.3-162.1c5.3-98.3-3-195.9-37.3-289.2
	c-40.9-111.3-116.9-186.5-232.9-218c-6.6-1.8-13.8-1.2-21.4-1.8C3092.1,1297.9,3104.7,1325.2,3093,1351.5z M426,2741.7
	c-0.9,40.1-3.4,75.8-2.3,111.4c5.1,155,61.8,287.4,175.8,393.9c65.1,60.8,141.5,104.8,221.2,142.5
	c132.4,62.6,272.7,102.2,416.2,128.3c97.2,17.7,195.6,28.3,293.7,41.2c151.1,19.7,303.2,26.6,455.4,30.1
	c271.3,6.3,541.1-10.3,808.6-58.1c155.7-27.9,307.4-68.8,449.4-140.3c76.6-38.5,145.6-87.4,199.8-154.4
	c97.6-120.7,130.1-262.7,132.6-414.2c0.2-12.2-5.3-19.1-14.2-27.1c-24.1-21.7-47.1-44.7-69.5-68.1c-12-12.5-21.1-27.8-33-40.4
	c-24.3-25.7-54.8-27.2-80.9-3.3c-11.9,10.9-21.3,24.5-31,37.6c-18.8,25.3-35.4,52.4-55.8,76.3c-43.8,51.2-98.5,64.9-161.7,42.2
	c-24.5-8.8-48.1-20.1-72.4-29.7c-43.9-17.4-83.8-9.6-117.4,22.8c-17.1,16.5-32.6,35.1-45.7,54.9c-17.9,27.2-31.5,57.2-49.4,84.4
	c-21.9,33.5-43.4,68.1-70.3,97.5c-51.1,56-116.9,72.4-190.4,57.7c-45.5-9.1-86.1-30-123-57.6c-38.3-28.6-75.8-58.3-113.4-87.9
	c-71.4-56.1-147.3-63.8-228.7-23.4c-28.2,14-56.5,28.3-86,39.3c-33.4,12.5-67.6,25.2-102.5,30.9c-67.1,11-126.6-11-178.6-53.8
	c-31.9-26.3-62.3-54.4-95-79.5c-63.8-48.9-135-67-214.8-49.6c-39.9,8.7-76.2,25.1-111.6,44.2c-34.4,18.5-68,39-103.4,55.3
	c-119.5,54.9-223.4,38.9-307-69.8c-17.9-23.3-35.9-46.5-55.5-68.3c-50.1-55.8-111.6-80.9-187-67c-25.6,4.7-51.3,9.5-77.1,13
	c-50.7,6.9-101.6,13.5-150.9-8.2C444.7,2742.2,437.8,2743,426,2741.7z M468.2,2360c-5.1,3-8.7,4-10.5,6.3
	c-43.2,56.3-71.7,119.1-79.5,190.1c-3.8,34.5,4.1,66.7,26,95.1c34.9,45.1,82.5,58.9,136,53.9c41-3.8,81.6-12.5,122.3-19.1
	c64.3-10.4,125.7-4,182,31.6c34.6,21.9,60.9,52.1,85.8,83.9c20.1,25.6,39.8,52,63,74.7c37.7,36.8,83.5,56.1,136.8,42.7
	c32.4-8.2,64.5-19.2,94.8-33.1c35.5-16.3,68.6-37.5,103.2-55.8c65.7-34.7,134.7-54.1,210.1-44.2c59,7.7,110.1,32.8,156.1,69
	c29.9,23.5,58.1,49.1,87.2,73.6c55.3,46.4,117.3,60.2,185.6,34.9c38.6-14.3,75.9-32.3,114.3-47.4c30.2-12,60.6-24.4,91.9-32.7
	c39.5-10.5,79.1-8.8,118.4,6c51.9,19.5,94.8,52.4,137.3,86.4c24.6,19.7,48.9,39.9,74.4,58.3c33.1,23.8,69.8,41.4,110.8,43.9
	c58.7,3.6,106.2-21.7,141.4-67c23.2-29.9,41.6-63.5,61.9-95.6c20.3-32.1,38.9-65.4,60.9-96.4c41.5-58.6,121.4-94,205.5-56
	c22.7,10.3,46,19.4,69.7,27.4c34.1,11.5,65,3.9,89.6-22.1c14.8-15.7,27.3-33.7,39.9-51.3c14.6-20.3,26.7-42.5,42.7-61.6
	c47-56.4,110.7-61.6,165.6-12.7c20.1,17.9,36.2,40.3,54.2,60.6c12.2,13.8,24.2,27.9,37,41.2c9,9.3,20.4,12.7,32.7,6.4
	c12.7-6.5,14.1-18.3,12.7-30.8c-0.7-6.5-1.8-13-3.7-19.2c-8.6-29.2-15.8-58.9-26.6-87.2c-13.1-34.3-16.2-66.2,2.3-100
	c16.1-29.4,21.9-62.8,8.2-94.6c-16.7-38.8-37.1-75.9-56.4-113.5c-4.7-9.2-12.8-16-24-12c-25.2,9-44.1-2.8-62.6-17.3
	c-5.6-4.4-12.5-7.2-22.4-12.9c-3.5,15.5-6.1,27.8-9,40.1c-24.7,104.3-86.2,176.1-188.3,211.2c-60.5,20.8-123.3,25.2-186.6,21.8
	c-46.7-2.5-93.3-5.8-139.9-9.8c-22.3-1.9-38.5,4.2-54.4,21.3c-31,33.4-63.2,66.2-98.3,95.2c-111.7,92.4-238.5,127.6-380.6,88.6
	c-53.3-14.6-105-35.1-156.8-54.5c-19.8-7.4-37-7.5-56.2,1.5c-25.5,11.9-51.8,22.8-78.5,31.6c-83.6,27.3-168.7,41.8-256.7,25.2
	c-56-10.6-108.3-31.5-160.2-54.1c-42.8-18.6-86.1-36.4-129.4-53.9c-19.4-7.9-39.1-9.6-60.5-4.5c-48.6,11.7-97.7,21.1-146.5,31.4
	c-132.2,28-252.8,3-359.6-80.6c-31.6-24.7-60.8-52.5-90.3-79.8c-17.3-16-35.2-26.6-60-28.5c-56.3-4.1-112.5-10.9-168.6-17
	c-63.1-6.9-120.3-28.3-169.1-69.9C485.2,2371.6,476.2,2365.9,468.2,2360z M2821.6,2514.9c-14.6-2.7-24.1-4.7-33.7-6.3
	c-121.2-20.3-241-47.2-358.5-82.8c-196.6-59.6-381.2-147-553.1-259.1c-38-24.8-64.6-29.8-106.7-8.7c-79.3,39.8-168.2,49.4-255.3,62
	c-28.3,4.1-57.1,5-85.6,7.4c5.9,11.7,13.1,17.6,20.8,22.6c21,13.5,42.6,26.2,63.3,40.1c95.9,64.6,198.6,116.7,304.4,162.4
	c93.7,40.5,188.3,78.8,282.9,117.2c75.4,30.6,151.1,60.9,227.3,89.5c53,19.9,107.9,35.5,165.1,34
	C2629.8,2689.6,2730.8,2617.2,2821.6,2514.9z M2124.2,2634.8c-60.2-24.6-115.1-47.7-170.6-69.5c-134.6-52.8-267.3-109.9-391.6-184.3
	c-70.7-42.3-143.4-82.4-204.1-139.5c-17.2-16.2-36.4-26.9-59.3-31.9c-90.9-19.7-166.7-66.4-232.6-130.7
	c-14.8-14.4-30-28.4-45.7-41.7c-22.4-18.9-47.9-28.2-78.1-26.7c-29.2,1.5-58.6,0.7-87.9-0.2c-13.7-0.4-27.3-3.2-41-5
	c-0.6,4.9-1.5,7.2-0.9,9.1c1.9,6.2,4.3,12.3,6.7,18.3c44.2,110,119,196.4,211.8,267.6c95.2,73,199.4,131.6,309.2,179.5
	c131.3,57.2,263.3,113.2,395.7,167.8c36.9,15.2,75.9,27.3,115,34.9c88.3,17.1,172.4-5.4,255-34.7
	C2110.5,2646.2,2114.3,2641.9,2124.2,2634.8z M3399.2,2239c-34.2-0.9-63.6-4.8-92.2-1.9c-63.7,6.5-127.1,16.1-190.6,25.1
	c-85.6,12.1-170.9,14.1-256.4-1.8c-63.4-11.7-125-29.2-183.3-56.3c-46.7-21.7-92.1-21.6-138.4-0.8c-4.9,2.2-10.2,3.7-15.1,6
	c-48.8,22.8-100.7,34.7-153.8,40.8c-95,10.9-181.4-10.8-256.2-72.4c-19.3-15.9-37.5-33.3-57.5-48.2c-19.9-14.9-40.5-29.5-62.6-40.8
	c-35.4-18.1-78.6-8.2-111.2,23.8c24.5,14.8,48.5,29.2,72.5,43.6c162.3,96.7,333.6,172.8,515,226.1c130.6,38.3,263.3,66.6,398.2,83.9
	c89.6,11.5,179.6,20.4,270,13.8c129.1-9.4,216-66.4,252.7-193C3394.5,2273,3395.8,2258.3,3399.2,2239z M2762.3,2179.8
	c3.8,2.8,5.9,5.6,8.6,6.3c61.8,16.6,123.7,31.9,188.5,33.6c90.9,2.3,179.3-15.4,268.3-28.8c28.9-4.4,58.1-7.6,87.3-9.7
	c64-4.4,122.1,12.6,175.8,47.8c29.8,19.6,32.2,18,58.2-7.2c31.4-30.5,50.9-67.6,59.7-110c14.7-70.8-15.6-136.2-75.8-163.7
	c-37.3-17-77.3-22.2-117.7-19.4c-11.7,0.8-24.4,8.3-34,16c-22.7,18.4-42.5,40.6-65.9,58.1c-84.3,63.2-177,95.9-283.7,73.1
	c-17-3.6-33.9-7.4-50.9-11c-30.8-6.5-61.7-6.4-87.7,12.8C2848.9,2110.4,2806.5,2145.2,2762.3,2179.8z M1417.5,2582
	c0.6-2.6,1.2-5.2,1.8-7.8c-7.4-4-14.6-8.2-22.1-11.8c-74.5-35.6-150.3-68.5-223.1-107.1c-112-59.4-215.6-131.2-298-229.2
	c-58-69-102.8-145.3-120.8-235.3c-2.1-10.6-10.4-20.8-17.9-29.3c-22.8-26-46.6-51.1-70.2-76.4c-5.4-5.8-11.3-11.2-18.9-18.8
	c-18.2,32-19.6,63.5-17.6,94.7c4.1,61.7,23.4,119.1,53.4,173.1c79.4,142.9,181.3,267.9,303.3,376.5c35.8,31.9,76.4,56.9,121.1,75.6
	C1212.7,2629.6,1314.9,2602.4,1417.5,2582z M578.6,1925.1c-75.1,18.7-123.5,59.8-144.2,129.2c-39.4,131.8,40.5,281.5,171.4,324.6
	c61.8,20.3,125.6,22.6,189.8,22.4c1.1,0,2.3-3.1,4.7-6.6c-8.1-10.5-17-21.3-25-32.8c-41.9-60.7-85.7-120.3-124.6-182.9
	c-36.4-58.6-58.9-123.4-67-192.5C581.4,1967.4,580.4,1948.1,578.6,1925.1z M3444.3,1803.2c-7.9,26.5-14.5,48.5-22.2,74.1
	c30.9,2.8,58.3,5.3,90,8.2C3500.5,1847.2,3477.9,1824.2,3444.3,1803.2z"/>
<path d="M1794.5,868.6c-44.3,16.4-81.6,30.7-119.3,44c-42.8,15.1-81.2,36.1-109.2,73.2c-4.7,6.2-12.2,10.3-18.4,15.4
	c-2.2-1.4-4.4-2.8-6.6-4.2c2.4-7.2,3.3-15.4,7.5-21.3c23.8-33.2,53-60.5,91.9-75.2c34.5-13.1,69.3-25.3,104.1-37.5
	c33.7-11.8,63.8-27.6,78.7-63c1.4-3.4,5.6-5.6,10.5-10.2c2.5,5.8,5.9,9.8,5.3,13c-6.8,33.8-9.3,70.1-36.7,95.2
	c-25.4,23.3-52.7,44.9-80.3,65.6c-14.6,11-31.5,19.3-48,27.4c-64,31.5-104.1,83.5-129.3,148.5c-2.7,7-6,13.8-9.6,20.4
	c-0.7,1.3-3.7,1.3-6.4,2.1c-10.2-7.3-6.1-17.3-3.2-26.1c20.6-62.1,50.8-117.6,109.1-152.8c23.2-14,46.8-27.4,70.4-40.8
	C1737.3,924.3,1767,902.9,1794.5,868.6z"/>
<path d="M698.3,1561.3c0.7-11.5-0.3-23.4,2.2-34.5c30-134.3,99.5-241.9,215.8-317.6c53.1-34.5,113-43.1,174.5-45.2
	c16.3-0.6,32.6-0.2,48.9,0.6c9.9,0.5,16.6,4.9,13.2,19.8c-18.3,6.6-38.9,5.2-58.9,5.2c-84.2,0.1-158.2,27.8-220.3,84.1
	c-61.4,55.7-106.1,123.5-134.1,201.7c-8,22.5-13.3,45.9-20.5,68.7c-2.3,7.1-6.6,13.6-10,20.4
	C705.5,1563.3,701.9,1562.3,698.3,1561.3z"/>
<path d="M1481.4,1330.2c-3,7.1-4.9,14.9-9,21.3c-26.1,41.2-65,66.6-108.7,84.9c-45,18.8-91.6,33.8-136.3,53.4
	c-33.6,14.7-67.3,31-97.2,51.9c-69.1,48.2-99.7,118-102.7,201c-0.4,10.6-1.3,21.1-2,31.6c-21.6,3.1-20.7-10.9-20.9-22.2
	c-1.1-60.2,13.5-116,47.9-166.1c35.7-51.9,84.4-86.9,142.3-109.7c46.4-18.3,93.6-34.9,139.8-53.6c47.7-19.3,92.3-43.7,124.1-86.3
	c3.5-4.7,9.8-7.3,14.7-10.8C1476.1,1327,1478.7,1328.6,1481.4,1330.2z"/>
<path d="M3112.8,1908.3c68.4,16.5,148.5-42.4,171.8-95.6c30.5-69.7,33.5-141,15.3-213.5c-6.3-25.1-17.3-49-26.3-73.4
	c-3.1-8.6-6.6-17-11.3-29.1c21.8,3.3,31.1,15,37.6,28.5c46.8,97.3,52,196.8,8.8,296.2c-30.2,69.5-105.2,113.4-178.2,109.6
	C3117.8,1930.3,3117.8,1930.3,3112.8,1908.3z"/>
<path d="M1997.5,985.3c8.3,15.3-0.5,25.4-4.3,35.8c-14,38.1-23.8,76.7-18.1,117.8c4.7,34.1,18.1,64.3,38.6,92
	c25.7,34.8,53.8,68.2,67.9,110.3c18.5,55.2,9.5,107-16.8,157.1c-4.2,8-7.4,19.4-23.4,14.4c0.6-5.4,0.5-11.5,2-17
	c2.3-8.3,5.7-16.4,8.9-24.5c25.3-65.2,16.8-125.4-25.9-180.9c-15.9-20.6-31.9-41.3-45.5-63.5c-46.6-76.5-37.3-153.2,2-229.2
	C1985.5,992.7,1991.8,990,1997.5,985.3z"/>
<path d="M2077.8,1955.8c6.6,0.7,14.6-0.7,19.6,2.5c14.4,9.4,28.1,20.1,41.3,31.3c28.8,24.6,55.6,51.9,86,74.4
	c66.5,49.1,136.5,49.8,206.8,7.3c22.3-13.4,43.3-28.9,65.1-43c11.4-7.4,22.9-16.1,41.4-10c-4.9,6.6-7.6,12.7-12.2,15.9
	c-30.1,21.3-59.6,43.7-91.2,62.4c-79.2,46.9-164.9,39-235.8-20c-15-12.5-28.3-26.9-42.8-39.9c-21.8-19.5-43.8-38.7-66.1-57.6
	c-5.6-4.7-12.9-7.5-19.5-11.1C2072.9,1964,2075.3,1959.9,2077.8,1955.8z"/>
<path d="M2825.7,1734.3c-3.3-11.2-5.7-16-6-20.9c-2.4-58-25.3-107.2-64.8-148.9c-26.1-27.6-53-54.4-79-82.2
	c-34-36.4-58.3-78.3-67.6-127.8c-2.4-12.8-7.7-27.5,11.8-37.3c3.4,8.5,7.3,14.8,8.4,21.7c8.7,52.7,37.8,93.9,72.8,132
	c31.6,34.3,63.3,68.6,93.4,104.2c27.3,32.4,41.1,71.3,45.7,113.1C2841.9,1702.7,2843.3,1718.1,2825.7,1734.3z"/>
<path d="M1310.4,1513.7c11.3,14.1,6.4,22.5-2.4,28.2c-9,5.9-19.3,9.8-29,14.5c-49.3,23.6-95.6,51.3-129.9,95.5
	c-45.3,58.4-48.1,126-42.7,195.4c1.4,18,2.3,36.1,3.9,61.6c-10.1-8.7-16.8-11.5-17.9-15.9c-34.5-125.5-8.7-242.8,108.8-319.9
	C1235.3,1550.8,1273,1533.9,1310.4,1513.7z"/>
<path d="M1243.9,1088.9c7.5-28.5,14-54.7,21.2-80.7c15.7-56.6,46.6-102.1,96.7-134.1c51.4-32.8,106.9-52.8,167.9-56.1
	c12.1-0.7,26.1-4.4,36.9,15.2c-28.2,5.7-53.9,11.5-79.8,16.1c-56.3,10.2-104.2,36.3-145.4,75.2c-27.5,26-44.6,58.4-54.4,94.9
	c-5.1,18.8-10.8,37.6-17.4,55.9C1265.2,1087.3,1264.2,1087,1243.9,1088.9z"/>
<path d="M2891.7,1825.2c1.3-10.1,2.5-20.2,4-30.3c3.5-22.5,9.2-44.8,10.4-67.4c2.6-50.2-8.3-97.8-39.2-138.3
	c-27.6-36.2-58.3-70-87.1-105.3c-8.2-10-15.3-21-21.3-32.4c-1.5-2.9,2-10.1,5.2-13.2c1.7-1.7,8,0.1,11.6,1.6
	c2.8,1.2,4.7,4.3,6.9,6.8c29.2,33.6,59.6,66.2,87.2,101c58.4,73.6,80.8,155.2,49.1,247c-4,11.7-10.7,22.4-16.2,33.5
	C2898.8,1827.2,2895.3,1826.2,2891.7,1825.2z"/>
<path d="M2069.5,1154.4c4.5,3.8,11,6.7,13.2,11.6c13.5,29.9,38.3,49.6,61.2,71.1c15,14.1,30.2,28.4,43.1,44.3
	c38.5,47.9,37.5,128.9-1.8,176.1c-3.1,3.8-10.8,3.8-16.3,5.6c-1-5.8-4.2-12.4-2.6-17.2c4.5-13.3,11.9-25.6,16.9-38.8
	c16.6-43.7,8.7-83.6-21.7-118.4c-12.8-14.6-27.8-27.5-42.7-40.1c-22.8-19.3-40.9-42-52.4-69.6c-2.7-6.4-2.6-13.9-3.8-20.9
	C2065,1156.8,2067.3,1155.6,2069.5,1154.4z"/>
<path d="M2542.2,955.1c51.4,17.4,82.1,56.1,111.4,94.7c44.9,59.1,74.7,123.7,59.4,205.6c-7-5.4-12.6-8-15.1-12.3
	c-2.5-4.3-2.3-10.5-2.5-15.8c-4.4-102.2-58-176.5-134.3-238C2551.5,981.4,2538.2,976.3,2542.2,955.1z"/>
<path d="M2391.6,836.4c-6.8-8-12.3-11.8-13.9-16.8c-3.4-11.3-5.1-23.2-7.1-35c-7.9-45.6-24.9-87.3-52.9-124.4
	c-22.2-29.4-45.1-58.3-65.8-88.8c-9-13.2-23.1-26.3-17.2-49c7.6,6,14.5,9.5,18.7,15c33.7,43.8,67.2,87.6,100,132.1
	C2379.7,704.9,2403,791.8,2391.6,836.4z"/>
<path d="M2046.9,873c6-8.5,9.7-15,14.6-20.4c41.9-45.9,53.7-100.1,45.3-160.3c-4-29-7.3-58.2-10.1-87.3c-0.9-9.3-2-20.6,12.9-21.1
	c14.3,65.4,32.5,130.3,17.1,197.8c-7.1,31.2-23.1,58.5-43.7,82.9C2074.9,874.3,2066.1,885,2046.9,873z"/>
<path d="M2780.3,1218.2c-19.3,3.5-21.1-9.6-23.7-21.1c-3.7-16.9-5.4-34.3-10.1-50.8c-12.8-44.7-34.4-83.7-73.9-111.1
	c-7.1-4.9-11.8-13.2-19.7-22.3c24.2-12.5,37.4-0.9,49.3,11.1c42.6,42.6,69.6,93.5,77.7,153.5
	C2781.8,1190.9,2780.3,1204.8,2780.3,1218.2z"/>
<path d="M1928.7,1933.9c-29.2-15.4-20.8-38.3-21.8-56.8c-3.7-72,22.4-131,83.8-173.7c-6.2,13.3-10.5,27.9-18.8,39.7
	c-33.5,47.5-45.5,100-41.3,157.2C1931.4,1910.1,1929.6,1920.1,1928.7,1933.9z"/>
<path d="M3246.3,1464.1c-18.4,1.4-29.8,0.1-33.1-18.2C3230,1438.3,3239.8,1442.3,3246.3,1464.1z"/>
<path d="M1378,3189.8c-0.4-70.6,50.3-122.1,120.3-122.3c67.2-0.2,122.9,54.1,124.3,121.1c1.5,70.1-55.8,124.5-130.8,123.9
	C1429.1,3312.1,1378.4,3257.4,1378,3189.8z M1519,3185.4c24.5,0.4,43.9-15.6,45.1-37.1c1.1-19.5-16.1-38-35.7-38.4
	c-23-0.5-40,17.3-39.6,41.5C1489.1,3172.9,1500,3185.1,1519,3185.4z"/>
<path d="M2273.3,3086.1c63.7,0.1,122.3,56.2,121.5,116.3c-1,72.6-53.8,125.2-126.3,125.9c-63.8,0.6-119.4-56.2-119.1-121.9
	C2149.6,3139.3,2204.5,3086,2273.3,3086.1z M2338.9,3164.2c-0.7-21.3-16.8-36.8-37.8-36.5c-21.1,0.3-35.7,16.7-34.6,38.8
	c1.1,21.5,15.2,35,35.1,33.7C2326.2,3198.6,2339.6,3185.6,2338.9,3164.2z"/>
<path d="M1888.1,3360.3c-68.6-2.3-121.5-45.5-134.6-110.3c-1.5-7.3-3.5-15.6-1.5-22.3c1.8-5.9,8.4-13.4,13.9-14.3
	c5.6-0.9,14.9,3.8,18,8.8c4.9,8,5.8,18.4,8.6,27.7c13,42.7,48.2,69,95.1,69.5c38,0.4,83.3-16.9,97.6-65.8c2.1-7.3,3.1-15.6,7.5-21.3
	c3.8-5,12.1-10.2,17.5-9.3c5.7,0.8,14.1,8.3,14.6,13.6c1.2,11.5,0,23.9-3.5,35C2003.5,3327.9,1951,3362.4,1888.1,3360.3z"/>
<path d="M3272,3292.5c-3.6,5.8-5.8,13.4-10.9,17.1c-15.7,11.5-31.9,22.7-49,31.8c-107.4,56.7-222.3,91.9-340.3,118
	c-40.2,8.9-80.7,16.8-121.3,23.9c-12.5,2.2-27.5,6.7-41.6-12.8c16.6-4.5,29.2-9,42.1-11.2c138.4-24.2,273.5-59.6,402.7-115.3
	c26.8-11.6,52.1-26.7,78.1-40.2c11.3-5.9,22.6-11.7,33.9-17.5C3267.8,3288.2,3269.9,3290.4,3272,3292.5z"/>
<path d="M1394.2,3449.2c-35.7,0-68.8-10.4-100.8-24.3c-9.8-4.3-19.3-10.4-27.3-17.4c-32.8-28.7-26-68.4,14.3-84.8
	c33.5-13.7,68.7-13.4,102.4-4.5c25.8,6.8,50.3,19.8,74,32.7c19.2,10.5,29.6,28.2,26.7,51.6c-3,24.4-19.9,35.4-41.1,40.5
	C1426.8,3446.6,1410.3,3447.2,1394.2,3449.2z M1339.1,3338.4c-17.8,3.7-36.4,5.4-53.3,11.7c-18.4,7-19.8,21.5-5.7,35.8
	c4.4,4.5,10.2,8,15.9,11c34.3,17.9,70.8,27.3,109.5,25.1c13.6-0.8,28.1-4.3,40.2-10.5c18-9.1,18.6-22.4,3.7-36
	c-5.5-5-12.1-9.3-18.9-12.4C1401.7,3349.7,1371.7,3341.2,1339.1,3338.4z"/>
<path d="M2367.8,3471.6c-17.1-4.3-36.9-6.6-54.4-14.2c-36.8-16-41.8-55-12-81.4c5.6-5,12-9.7,18.8-12.6
	c46.4-20.3,94.3-32.8,145.2-20.8c12.4,2.9,25,8.1,35.5,15.1c24.1,16.2,28.7,47.6,7.5,67.2c-15.3,14.2-35.1,26.1-55,32.2
	C2426.8,3465.2,2398.2,3466.8,2367.8,3471.6z M2369.8,3443.6c20.6-1.7,35.1-0.8,48.5-4.4c21.7-5.9,43.8-12.2,63.4-22.9
	c20.7-11.3,18.5-30.7-2.2-42.7c-3.7-2.1-7.7-4-11.9-5.1c-52.2-14.2-101-3.3-146.2,23.3c-22.8,13.4-20.6,33.6,4.1,42.8
	C2341.3,3440.5,2359,3441.6,2369.8,3443.6z"/>
<path d="M740.6,3263.3c-12.4-3.1-21.1-3.5-28.1-7.2c-108.5-57-179.5-144.5-212-262.8c-3.1-11.3-7.8-23.3,10.2-32.8
	c4.4,8.4,10.2,16.1,12.5,24.7c26,97.8,88.5,170,162.9,233.8c8.8,7.6,20.5,11.7,31,17.4C726.1,3241.1,737.8,3243.2,740.6,3263.3z"/>
<path d="M3483.6,2992c0,12.4,1.8,20.9-0.3,28.4c-23.3,84.3-62,160-127.8,219.5c-12.2,11-23.9,25.4-47.3,20.3
	c4.8-7.2,7.1-13.6,11.6-17.2c72.7-56.5,111.6-134.4,140.1-219.1c2.4-7.2,4.3-14.8,8.1-21.2C3470.3,2999,3475.9,2997.2,3483.6,2992z"
	/>
<path d="M509.2,2947.1c-18.2-6.5-21-18.5-21.8-29.9c-2-29-2.9-58.2-3.2-87.3c0-2.4,7.9-4.9,17.1-10.3
	C504,2864,506.5,2903.9,509.2,2947.1z"/>
</svg>
