<?xml version="1.0" encoding="utf-8"?>
<!-- Generator: Adobe Illustrator 24.3.0, SVG Export Plug-In . SVG Version: 6.00 Build 0)  -->
<svg version="1.1" id="Layer_1" xmlns="http://www.w3.org/2000/svg" xmlns:xlink="http://www.w3.org/1999/xlink" x="0px" y="0px"
	 viewBox="0 0 4000 4000" style="enable-background:new 0 0 4000 4000;" xml:space="preserve">
<path d="M2124.5,273.1c372.5,4.9,703.8,104.6,1000.8,313c271.9,190.8,469.8,440.9,596.4,747.4c67,162.2,107.2,331.3,122.3,506.2
	c34.3,396.9-65.3,759.8-282.6,1090.8c-168.4,256.5-394.3,449.4-668.8,586.1c-163.7,81.6-336,135.8-516.8,161.7
	c-130.8,18.7-262.1,21.6-394.1,9.9c-270.7-24.1-520.4-110.4-750.3-253c-238.3-147.8-431.2-341.5-575-583.2
	c-109-183.2-180.8-380.1-217-589.8c-16.7-96.9-27.4-195-25.1-293.4c3-128.9,18.5-256.6,50.5-381.8
	c99.8-390.5,307.2-711.5,625.1-959.6c175.4-136.8,371.7-233.8,586-293.1c113.5-31.4,229.5-49.7,347.3-55.8
	C2060.7,276.4,2098.1,274.5,2124.5,273.1z M2134.3,323.5c-45.5,1.8-93.3,1.6-140.6,6c-166.2,15.4-327.7,50.3-483,114.1
	C1203,569.9,954.3,769,764.9,1041.7c-140.7,202.5-234.3,425-276.7,668.7c-20.6,118.4-29.3,237.2-21.6,357.2
	c2.8,44.8,11.7,88.7,30.9,129.4c9.8,20.8,22.1,41.5,37.4,58.3c32.8,36,78.2,35.7,112.3,1.4c14.3-14.4,26.6-30.6,40.6-45.3
	c10.4-10.9,21.1-22.2,33.5-30.6c33.5-23,72.9-17.8,97.4,14.4c11.3,14.9,21.9,33.3,24.4,51.3c4.8,34.8,7.3,70.8,3.8,105.6
	c-4.3,43.1-15.2,85.7-24.2,128.3c-12.4,58.6-24.3,117.1-21.4,177.5c1.5,31.8,7.7,62.7,23.1,90.5c38.9,70.3,107.3,59.9,145.3,15.1
	c9.5-11.3,17.9-25.5,21.2-39.6c5.7-24.4,10.2-50,9.3-74.9c-1.4-38.4-8.6-76.5-12-114.8c-2.7-30.2-6.2-60.8-4.1-90.8
	c4-56.4,21-109.3,56.1-155c14.4-18.7,30.9-34.9,53-44.3c42.9-18.2,90.7-0.6,110,41.8c5.8,12.8,10.5,26.7,12.3,40.5
	c4.7,37.1,8.1,74.5,11,111.8c3.1,40.1,11.9,78.2,36,111.3c37.1,50.8,96.8,56.6,141.6,12.5c15-14.7,26.2-33.3,38.6-50.6
	c17.7-24.7,33.8-50.5,52.4-74.5c19.7-25.3,46.2-42.2,76.3-53.3c66.8-24.6,138.9,2.4,169.8,66.2c14,28.9,22.7,60.5,33.5,90.9
	c13.5,38.1,25.7,76.7,40.6,114.2c5,12.5,15.5,23.8,25.8,33.1c19,17.2,38.9,17.1,56.5-1.3c11.6-12.2,20.1-27.7,28.8-42.4
	c13.2-22.7,23.8-47.1,38.3-68.9c20.5-30.9,51.4-45.5,88.3-44.5c25.7,0.7,51,7,70.9,23.7c23.9,20.1,46.4,42,68.2,64.4
	c28.2,29,52.3,62.6,83.1,88.1c48.6,40.3,104.7,28.2,135.6-27.1c12.6-22.6,20.7-48.4,26.9-73.7c8.2-33.4,12.3-67.7,18.5-101.6
	c5.5-30.1,13.7-59.2,31.8-84.6c38.4-53.5,104.5-58,148-8.5c13.1,14.9,22.9,33.4,31.1,51.7c14.1,31.4,24,64.7,38.7,95.7
	c27.5,57.7,93.1,83.7,153.9,64.5c56.3-17.8,89.3-57.9,107.5-111.3c10.1-29.6,15-61,24.8-90.8c9.7-29.6,19.3-60.1,34.8-86.9
	c40.1-69.2,127.2-57.3,163.6-6.9c13.9,19.3,24.2,42.1,32,64.8c12.1,35.2,8.7,71.9,4,108.4c-6.5,50.2-13.7,100.4-16.5,150.8
	c-2.2,39.5,11.3,75.7,38.4,105.9c46.1,51.5,139.8,40.5,163.7-31.6c8.8-26.6,14.7-54.8,17.1-82.7c3.7-42.7-3.8-84.9-13.9-126.4
	c-10.3-42.3-22.8-84.2-31-126.9c-9.5-49.5-8.4-99,14.8-145.6c33-66.6,96.3-88.8,163-56.3c20.9,10.2,40.1,23.6,60.2,35.3
	c14,8.1,27.6,17.4,42.5,23.2c57.3,22.4,113.3-7.7,124.3-67.8c6.2-33.8,10.3-68.2,11.9-102.5c5.6-123.9-1.5-246.9-23-369.4
	c-45.1-257.9-141.6-493.7-297.5-704.6c-143.1-193.5-319-349.5-529.2-467.2C2697.9,393,2425.7,326,2134.3,323.5z M497.2,2293.3
	c65.2,391.4,342.5,900.2,899.6,1179.3c538.8,269.9,1206.5,234.7,1740.9-163.7c253.1-188.7,432.7-432.6,550.7-723.7
	c45.7-112.6,85.4-260.2,79.5-293.7c-6.9,1.8-13.7,3.3-20.4,5.3c-55.5,15.9-106.2,6.7-152.3-28.2c-12.1-9.2-24.5-18.1-37.3-26.2
	c-57.8-36.9-107.3-16.2-123.2,50.9c-8.6,36.5-4.9,72.4,2.9,108.4c12.6,58.4,27.6,116.4,36.5,175.4c8.4,55.4,5.6,111.2-14.2,165
	c-32.3,88-129.6,124.9-212,79.6c-50-27.6-73.6-73.5-85.6-126.8c-9.4-41.4-4.3-82.7,1.9-123.9c4.9-32,10.6-64,14.5-96.1
	c4.4-36.1-1.5-71.3-18.4-103.3c-22.7-42.9-68.5-45-94.3-4.5c-9.6,15.1-16,32.7-21.5,49.9c-8.6,27-14.8,54.8-22.5,82.1
	c-10.9,38.4-27.9,73.9-51.7,106c-74.3,100.3-246,109.8-311.7-27.7c-10-21-17.2-43.3-26.5-64.7c-8.8-20.4-16.5-41.8-28.6-60.1
	c-24-36.3-61.9-32.7-80.3,7.2c-8.4,18.2-13.6,38.2-18.1,57.8c-7,30.6-10.1,62.2-18.4,92.4c-9.1,33-18.1,67.1-34.2,96.8
	c-43.1,79.3-136.1,97.5-207.5,42.4c-20.6-15.9-38.2-36.1-55.9-55.5c-19.1-20.9-35.5-44.5-55.4-64.5c-14.8-14.8-32.1-28.4-50.7-37.8
	c-35.3-17.8-64.9-7.6-85.4,26.3c-7.9,13-14.3,26.8-21.9,40c-9.6,16.7-18.5,33.9-29.8,49.4c-36.5,50-96.1,57.5-143.4,17.7
	c-10.6-8.9-19.5-20.6-27.2-32.3c-22.1-33.4-33.1-71.3-43.1-109.8c-8.7-33.3-16.7-67.2-30.3-98.6c-27.3-63.3-90.9-78.1-144.9-35.1
	c-14.8,11.8-27.5,26.9-39.1,42.1c-13.5,17.7-23.5,38-37,55.6c-16,20.8-31.9,42.4-51.7,59.3c-69.6,59.3-168.8,42.1-214.1-37
	c-12.9-22.5-23.2-47.7-28.8-73c-7.3-32.4-8.1-66.2-12.8-99.3c-4-28-7.1-56.5-15.2-83.4c-8.5-28.4-27.9-34.5-51.2-16.1
	c-17.1,13.5-32.1,31.1-43.7,49.6c-32.2,51.4-36.5,108.5-29,167.3c4.9,38.2,10.8,76.3,14.5,114.6c5.2,53.5-1,105.6-29.6,152.5
	c-45.4,74.4-143.9,90.1-207.6,33.6c-27.6-24.5-42.5-56.5-51.3-91.4c-12.7-49.9-12.7-100.6-3.8-150.9c8.7-48.8,21.8-96.9,30.1-145.7
	c7.1-41.8,11.4-84.2,14-126.5c1.1-17.6-3.2-36.6-9.3-53.4c-11.7-32.5-33.3-36.4-57.3-11.8c-9.1,9.4-16,21-25.1,30.5
	c-13.9,14.6-27.3,30.3-43.4,42.1c-45.1,33.2-98.1,32.6-144.5,0.7C514,2303.3,506.4,2299,497.2,2293.3z"/>
<path d="M2134.5,1564.7c239.4,2.5,408.1,173.1,443.5,378.6c39.1,226.8-112.9,469.9-364.1,515.4c-215.1,39-491.3-108.2-517.9-394.3
	c-21.6-232.5,124.6-439.8,339.8-484.3C2068.3,1573.4,2101.5,1569.8,2134.5,1564.7z M1743.3,2016.5
	c-4.9,213.6,175.8,392.2,383.1,397.1c209.8,5,405.3-150.8,406.6-394.4c1.3-246-193.9-397.5-382.4-401.1
	C1924.6,1614,1746.2,1789.5,1743.3,2016.5z"/>
<path d="M2699.1,1816.6c-11.8,43.3,5.2,86.8,24.4,129.7c45.2,101.5,33.3,197.3-28,288.4c-5,7.5-10.9,14.7-17.6,20.6
	c-10.4,9.1-22.1,9.8-33,0.2c-10.8-9.5-11.9-20.4-3.4-32.2c6.5-9.1,13-18.1,19.1-27.4c44.7-67.4,52.6-138.8,22.9-214.2
	c-3-7.5-5.9-15.1-9.6-22.3c-23.5-45.4-33.3-92.7-24.7-144c4.7-27.9,4.7-56.4-4.4-84.3c-11.2-34.6-31.7-61.1-65-76.3
	c-23.9-10.9-48.4-20.9-73-30.1c-42.1-15.8-73.3-42.6-89.3-85.3c-12.7-33.6-36.6-50-72.4-48.4c-57.1,2.6-110.2-10.3-160.6-37.6
	c-48.7-26.4-97.3-25.2-142.6,9.2c-44.6,33.9-97.2,44.5-150.8,50.6c-50,5.7-81,31.7-98.3,78.2c-14.1,38-29.6,76.1-58.9,105.3
	c-22.2,22.1-47.3,41.1-70.6,62c-17.3,15.4-36.5,29.7-50.3,47.9c-28.8,38.2-35.5,80.9-15.5,126c2.5,5.5,4.5,11.4,7.8,16.4
	c28.5,44.5,36.1,91,17.8,142c-17.9,50.1-6.2,96.6,26.5,136.9c20.3,25,43.6,47.7,66.9,70c13.8,13.3,30.1,23.9,45.3,35.7
	c18.5,14.3,21.8,22.3,14.1,34.4c-10.9,17-27.4,21.4-44.1,8.1c-46.7-37.3-93-75.2-127.7-125c-36.4-52.2-48.1-109.4-31.2-170.4
	c10.7-38.5,8.4-72.8-12.1-107.6c-58.8-100-8.8-187.1,51.8-238c17.8-15,37.1-28.2,55.9-42c32-23.4,54.7-53.8,69.2-90.5
	c4.5-11.3,9.1-22.6,13.3-33.9c24.4-65.1,70.7-102.6,140.3-108.5c48.4-4.1,92.5-18,133.4-45.5c54.8-36.8,113.3-40.1,172.9-10.3
	c11.8,5.9,24,10.8,35.8,16.7c27.7,13.9,57,22.6,87.9,19.8c69-6.4,117.4,19.6,144.9,84.6c14.3,33.8,41.6,53.3,77.1,63.1
	c20.4,5.6,40.1,14.4,59.1,23.7c60.1,29.1,90.9,78.6,96.3,144.3C2700.3,1774.7,2699.1,1793,2699.1,1816.6z"/>
<path d="M3327.5,976.1c0.9,21.2-8.9,40.4-29.5,53.1c-16.3,10-33.5,18.7-50.6,27.4c-35.1,17.8-69.9,36.6-106,52.1
	c-18,7.7-39.2,14.2-57.9,12.2c-30.5-3.3-50.1-24.9-58.1-54.8c-7.7-28.7-1.4-54.2,21.9-74c6.9-5.9,14.3-11.5,22.3-15.6
	c50.4-25.6,100.5-52,151.9-75.6C3277.1,875.6,3328.1,911.1,3327.5,976.1z M3279.5,977.4c0.5-27.8-19.6-41.6-41.7-30.8
	c-50,24.3-99.5,49.7-148.6,75.8c-18.4,9.8-20.4,18.5-13.1,34.5c6.8,15,16.3,19.5,35.1,10.6c52.1-24.5,103.6-50.4,155-76.5
	C3272.5,987.8,3276.7,980.3,3279.5,977.4z"/>
<path d="M869.3,1348.2c36.2-0.2,63.4,19.1,77.8,53.7c13.3,32,2.7,58-21.2,78.8c-45.7,39.7-92.5,78.4-139.4,116.7
	c-53,43.3-112,1.6-121.3-46.5c-4.3-22.2-1.5-42.3,14.6-59.1c9.1-9.5,18.2-19,28.1-27.6c36-31,72.2-61.7,108.6-92.2
	C832.1,1359.1,848.4,1346.9,869.3,1348.2z M737.8,1570.7c8.4-5.3,14.8-8.4,20.1-12.8c41.1-34.1,82-68.4,122.9-102.8
	c5.4-4.5,10.9-9.1,15.3-14.6c10.7-13.2,9.6-22.5-3.1-33.8c-13.6-12.1-24.7-12-42.8,3c-40.3,33.5-80.2,67.5-120.1,101.5
	c-5.3,4.5-10,9.9-14.4,15.4c-6.6,8.2-6.4,17.2,0.5,24.8C722.5,1558.3,730.3,1564.1,737.8,1570.7z"/>
<path d="M1817.6,590c-0.4,16.3-9.2,35-28.3,47.7c-51.2,34.3-101.8,69.6-154.3,101.8c-51.5,31.6-108.5,3.1-117.5-56.3
	c-3.4-22.4,1.5-42.2,18.7-57.9c5.2-4.8,10.3-9.8,16.2-13.6c49.9-32.5,100.2-64.5,150.1-97.1C1756,479.4,1818.3,529.4,1817.6,590z
	 M1771.9,581.4c-7.3-10.7-11.6-20.1-18.7-26.5c-9.8-8.7-21.1-4.5-30.9,1.9c-45.7,30-91.4,60.2-136.9,90.5c-4.2,2.8-8.2,6-11.7,9.7
	c-12.4,13.1-12.4,18.1-0.8,34.3c10.9,15.2,15.8,17,32.8,7.2c14.9-8.5,28.7-19.1,43.1-28.5c33.1-21.7,66.4-42.8,99.1-65
	C1756.5,599.1,1763.1,590.3,1771.9,581.4z"/>
<path d="M1917.6,1301.7c-32.3-1.2-55.9-16.3-68.8-46c-12.9-29.6-9.5-57.3,13.5-81.2c7.7-8,16-15.4,24.4-22.7
	c25.9-22.5,52-44.9,78.1-67.2c13.1-11.1,25.8-22.9,39.7-32.8c44.5-31.7,94.8-17.5,116.8,32.3c13.1,29.7,8.8,54.3-14.3,77.6
	c-9.2,9.3-19.7,17.3-29.5,26.1c-32.5,28.8-64.9,57.8-97.6,86.3C1962,1289.7,1942.9,1302.9,1917.6,1301.7z M2080.7,1115
	c-1.7-5.5-2.4-9.6-4.2-13.1c-10.1-20.2-28.5-24.1-47.2-8.2c-40.2,34-79.6,68.9-119.3,103.5c-3,2.6-5.7,5.7-8.3,8.8
	c-12.5,15.2-12.3,23.7,0.4,36.8c10.8,11.1,19.7,12.2,34.6-0.1c44.5-36.7,88.4-74.2,132.2-111.8
	C2073.8,1126.6,2076.9,1120.1,2080.7,1115z"/>
<path d="M1865.4,795.6c-1.2-14.2,9-31.8,25.3-44.9c48.2-38.6,97.1-76.2,146.1-113.7c21.9-16.8,45.5-14.7,68.6-2.7
	c53.8,27.9,61.7,91.4,15.1,129.5c-43.9,35.8-89.3,69.8-134.4,104.2c-24.5,18.7-51.1,23.6-79.4,8.4
	C1877.7,860.8,1866.1,835.4,1865.4,795.6z M1939.3,835.5c5.3-2.8,13.9-6.1,21-11.4c42.6-32.5,85-65.2,127-98.5
	c17.5-13.9,18.4-23,6.9-38.2c-10.8-14.2-21.8-15.8-39.7-4.8c-6.9,4.2-13,9.6-19.3,14.6c-33,26.7-66,53.3-98.9,80.2
	c-6.2,5.1-12.9,10.2-17.3,16.7C1909.6,807.9,1920.8,834,1939.3,835.5z"/>
<path d="M2545.7,575.4c-4.6,14.3-7.2,29.5-14.1,42.6c-17.7,34-52.7,48.2-87.2,31.9c-57.6-27.1-114.2-56.4-169.9-87.3
	c-26.5-14.7-39.9-40.5-34.1-72c6.1-33.6,25.4-58,59-66.1c13.5-3.2,31.1-0.9,43.6,5.4c56,28.1,111.1,58.1,165.8,88.5
	C2530,530.2,2545,547.7,2545.7,575.4z M2316.7,471.2c-6.6,4.5-17.3,8.7-23,16.5c-6.9,9.5-4.8,21.6,4.7,30.1
	c5.9,5.3,12.6,10,19.6,13.9c12.3,6.9,25.1,12.9,37.6,19.5c32.1,17,64,34.5,96.3,51c22.5,11.5,42,0.6,43-22.9
	c0.6-13.4-7.7-20-17.9-25.5c-46.3-24.7-92.6-49.5-138.9-74.1C2332.9,477,2327,475.2,2316.7,471.2z"/>
<path d="M1609.8,1231.9c-13.6-3.5-27.9-5.4-40.6-10.9c-29.5-12.8-50.8-52.6-38.6-83.3c23.6-59.2,46-118.9,71.2-177.4
	c12.3-28.6,36.7-41.7,69.2-38.3c33.3,3.5,57.1,20,69.9,50.5c3.6,8.6,3,19.9,1.5,29.6c-1.8,11.9-6,23.6-10.3,34.9
	c-18.3,48.3-36.5,96.6-55.9,144.5C1664.4,1210.3,1645.6,1231.8,1609.8,1231.9z M1609.2,1183.9c13.1-0.3,16.4-13.1,21-24
	c19.9-47.6,39.6-95.4,59.3-143.1c1.5-3.7,3.2-7.5,4.3-11.3c6-20.4-6.2-37.3-26.9-36.7c-14.3,0.4-21.3,10.3-25.9,22.2
	c-20.3,51.8-40.9,103.6-60.5,155.7C1573.1,1166.2,1585.2,1182.4,1609.2,1183.9z"/>
<path d="M3619.3,2000.8c-3.2,26.6-18.9,48.7-46.4,61.9c-26.6,12.7-52.7,12.7-76.6-7c-4.7-3.8-9.4-7.8-13.1-12.5
	c-34.2-42.4-69.6-84-101.9-127.9c-34.2-46.4-19.8-94.6,32.8-118.9c24.3-11.2,47.4-9,67.7,8.7c10.6,9.2,20.1,19.8,29,30.8
	c29.8,36.9,58.9,74.4,88.7,111.3C3611.3,1961.9,3619.6,1977.5,3619.3,2000.8z M3569.6,1996.4c-2.5-4.8-5.6-13.6-11-20.5
	c-32-40.5-64.2-80.8-97-120.5c-13.6-16.5-23.7-17.7-35.9-7.8c-14.9,12-16,21.6-2.8,38.6c29.8,38.3,60,76.3,90.3,114.2
	c4.4,5.5,9.1,11.2,14.8,15C3543.5,2025.5,3568.2,2016.2,3569.6,1996.4z"/>
<path d="M2852.8,2003.6c-3.1-0.4-9.2-0.8-15.2-1.9c-49.7-9-75.6-50.6-55.6-96.8c25-57.5,53-113.8,82.4-169.3
	c19.5-36.7,56.2-45.1,94.1-26.3c38.1,18.9,53,52.3,40,90.1c-2,5.7-4.2,11.5-6.9,16.9c-24.6,48.8-48.8,97.9-74.2,146.3
	C2900.6,1994.7,2886.3,2003.2,2852.8,2003.6z M2853.5,1957c12.6-1.2,18.3-12,23.8-23c22.7-45.2,45.3-90.4,67.9-135.7
	c2.3-4.5,3.9-9.3,6-13.9c6.1-13.7,0.9-23.9-11-30.6c-11.9-6.6-23.8-5.4-32.9,5.3c-4.5,5.3-7.5,11.9-10.6,18.3
	c-19.6,39.9-39.1,79.9-58.7,119.9c-4,8.2-8.7,16.1-11.7,24.6C2820.1,1939.6,2833.2,1957.1,2853.5,1957z"/>
<path d="M3049.6,2167.6c0.7,21.7-7.5,39.7-23.6,53.8c-16.8,14.6-34.3,28.3-51,43.1c-26.5,23.4-52.9,47.1-78.9,71.1
	c-49.1,45.3-107,10.6-122.6-32.6c-9.6-26.6-5.9-50.8,14.4-69.8c45.8-42.8,92.6-84.5,139.4-126.2c23.6-21.1,51.3-24.2,79.1-10.6
	C3035.2,2110.3,3048.2,2135.9,3049.6,2167.6z M2847.6,2309.8c6.5-4.3,16.4-9.5,24.5-16.6c23.5-20.7,46.4-42.2,69.4-63.4
	c17.1-15.7,34.7-31,51-47.6c12.8-13.1,12.6-22.2,2.3-34.4c-9.9-11.6-19.7-13.1-34.8-4c-6.9,4.1-13.2,9.4-19.2,14.7
	c-35.3,31.8-70.4,63.8-105.5,95.8c-4.5,4.1-8.9,8.4-12.2,13.4C2814.1,2281.1,2828,2308.6,2847.6,2309.8z"/>
<path d="M1339.3,709.4c25.5-0.7,47.8,13.8,58.4,42.1c21.9,58.7,41.3,118.4,63.1,177.2c12,32.3-11.5,73.4-40.2,85.6
	c-36.9,15.7-75.9,4.6-95.3-28.4c-3.6-6.1-6.5-12.6-8.9-19.2c-19.1-52.2-38.9-104.3-56.9-156.9C1241.6,757,1277.8,709,1339.3,709.4z
	 M1413.7,943.8c-1.8-6.2-3.9-15.1-6.8-23.7c-15-44.1-30.1-88.1-45.3-132.1c-2-5.7-4.5-11.3-6.9-16.9c-4.7-11.2-13.4-14.1-24.7-12.2
	c-22.2,3.7-29.3,18.2-20.6,43.6c16.1,46.9,32.3,93.7,48.6,140.6c2,5.7,4.7,11.2,7.1,16.8c5,11.6,13.7,13.9,24.9,9.8
	C1401.4,965.6,1414.1,962.7,1413.7,943.8z"/>
<path d="M3289.1,1804.7c0,28.4,0.6,56.8-0.1,85.1c-1.7,66.9-53.8,85.8-106,72.3c-30.5-7.9-48.3-33.8-48-69.6
	c0.4-53.7,2.7-107.4,4.4-161c0.2-7,2-14,3.3-21c7.6-41.1,36-62.7,78-59.3c45,3.6,69.3,28.1,70.2,71.5c0.3,14.2-0.3,28.4-0.3,42.6
	c-0.1,13.2,0,26.3,0,39.5C3290,1804.7,3289.6,1804.7,3289.1,1804.7z M3188,1814.1c-0.9,0-1.9,0-2.8,0c0,25.3-0.3,50.5,0.1,75.8
	c0.3,19,6.6,27.9,19.6,29.3c17.9,2,31.6-7.4,32.5-26.9c2.6-56.5,4.1-113.1,4.6-169.6c0.2-18.2-10.2-24.5-28.4-21.7
	c-17.1,2.6-24.7,9.6-25.4,28.3C3187.2,1757.4,3188,1785.8,3188,1814.1z"/>
<path d="M802.4,2039.4c-10.6-0.3-26.1-8.1-37.8-21.1c-39.8-44.3-79.7-88.7-118-134.3c-18.6-22.2-25.1-48.4-10.7-76.2
	c14.7-28.5,39.2-43.5,70.5-45.1c11.3-0.6,23.8,3.9,34.1,9.2c9.5,5,17.7,13.5,24.9,21.8c35.4,40.2,69.9,81.2,105.5,121.2
	c20.8,23.4,28.6,48,14.5,77.6C871.3,2021.9,842.5,2040.2,802.4,2039.4z M677.1,1833.6c0.9,2.7,1,6.2,2.8,8.4
	c38.8,46.5,77.8,93,116.9,139.3c7.7,9.1,17,9.2,27.3,3.8c18.9-9.9,21.8-22.9,5.9-41.7c-33.3-39.4-67-78.4-101.7-116.5
	C707,1803.4,696.2,1805.5,677.1,1833.6z"/>
<path d="M1545,1441.4c-1.7,31.1-13.8,56.7-41.6,72.8c-26.6,15.4-52.1,10.7-77.1-5.1c-47-29.7-94.6-58.3-141.2-88.5
	c-44-28.6-50.7-74.7-18-114.3c23.5-28.6,50.9-36.8,83-18.7c55.4,31.1,109.5,64.7,163.4,98.5C1533,1398.1,1546.6,1416,1545,1441.4z
	 M1498.2,1440.8c-4.4-4.6-10.2-12.9-18.1-18.1c-27-17.7-54.8-34.2-82.2-51.3c-20.6-12.8-40.8-26.3-61.8-38.2
	c-14.8-8.4-24.7-5.1-33.6,8.2c-8.9,13.3-8.2,23.8,4.1,34.8c6.7,6,14.9,10.4,22.6,15.1c25.9,15.7,52,31,77.8,46.8
	c17.2,10.6,33.9,21.9,51,32.7C1477.3,1483,1498.4,1463.2,1498.2,1440.8z"/>
<path d="M2802.8,1272c0.2-33.9,20.5-61.4,49.3-72.1c28.6-10.6,62.8-3.7,80.5,17.6c8.4,10,15.6,21.2,22,32.6
	c22.9,40.4,45.6,81,67.8,121.9c27.2,49.9,3.2,101.9-52.1,113.8c-31,6.7-56.8-3.6-74.3-33.6c-29.1-49.7-56.3-100.5-84.3-150.9
	c-1.9-3.5-3.6-7.3-4.6-11.2C2805,1282.3,2803.4,1274.5,2802.8,1272z M2986.5,1415.1c-5.8-12.3-9.9-22.5-15.2-32.2
	c-15.4-28.3-31.3-56.4-47-84.5c-7.3-13.2-13.9-27-22.2-39.5c-12.2-18.4-32.2-17.8-43.9-0.1c-6.8,10.3-2.7,19.4,2.1,28.3
	c23.6,43.3,47.4,86.6,71.4,129.7c2.9,5.2,6.9,10.2,11.6,13.7c10.1,7.6,21.3,6,31-0.5C2979.3,1426.5,2982.5,1420.1,2986.5,1415.1z"/>
<path d="M1469.6,2180.5c0,26.3,0.7,52.7-0.1,79c-1.3,43.7-27.1,69.7-69.9,71.8c-41.3,2.1-74.2-23.3-76.7-65.3
	c-3.7-62.6-3.2-125.5-4.2-188.3c-0.3-20.1,10.8-34.1,26.2-45.5c40.2-29.8,119.9-14.9,123,54c1.4,31.3,0.2,62.8,0.2,94.1
	C1468.6,2180.5,1469.1,2180.5,1469.6,2180.5z M1374.7,2278.6c38.8,7.1,46,1.4,46.1-32.6c0.1-46.4-0.1-92.7-0.2-139.1
	c0-6,0.3-12.2-0.7-18.1c-2.6-15.7-9.1-20.9-24.5-20.4c-20,0.7-27.1,8.8-26.7,31.4c0.9,48.4,1.8,96.7,3,145.1
	C1372,2255.9,1373.6,2266.7,1374.7,2278.6z"/>
<path d="M965.9,995.5c19.3-1.6,37.3,7.5,49.9,24.5c37.5,50.1,75.2,100.1,110.3,151.9c20.2,29.8,8.3,70.6-22.7,93.3
	c-28.7,21-70.1,18.5-94.3-6c-5.6-5.7-10.6-12.2-15.3-18.7c-29-40.1-57.8-80.3-86.6-120.5c-2.9-4.1-5.5-8.5-8.3-12.7
	c-15.1-22.7-20-46-5.5-71C909,1009.6,932.7,995.6,965.9,995.5z M962.5,1037.6c-8.3,6.2-16.1,10.7-22.2,16.9
	c-7.8,8-4.2,16.9,1.3,24.7c32.4,46.2,64.5,92.7,97.7,138.4c11.4,15.7,21.4,16.2,36,5.7c12.6-9,14.6-17.6,3.4-33.8
	c-31.5-45.7-63.9-90.7-96.4-135.6C977.8,1047.7,970.3,1043.9,962.5,1037.6z"/>
<path d="M2868.6,845.2c0,26.3,0.5,52.6-0.1,78.9c-1.4,56.7-48.3,90.1-102.2,73.3c-29.4-9.2-46.2-28.2-47.7-59.5
	c-2.6-54.5-3.4-109.2-4.5-163.8c-0.2-8,1.5-16.1,2.8-24.1c6.6-40.4,34.4-63.4,75.9-63.1c39.3,0.3,69.2,26.7,72.2,67.2
	c2.2,30.2,0.4,60.6,0.4,91C2866.5,845.2,2867.6,845.2,2868.6,845.2z M2764.1,840.7c0.6,0,1.3,0,1.9,0c0,29.3-0.9,58.6,0.3,87.9
	c0.8,19.5,10.7,26.7,29.7,25.2c17.5-1.3,24.1-8.5,24.2-31.4c0.3-51.5-0.5-103.1-0.9-154.6c0-3-0.3-6.1-0.9-9
	c-3.3-16.8-10.3-22.4-27-22.1c-18,0.4-26.4,7.1-27.1,25.2C2763.4,788.2,2764.1,814.5,2764.1,840.7z"/>
<path d="M2396.6,1124.6c-63.8-0.8-96.8-55.9-67.1-110c26.9-48.8,54.6-97.2,83.2-145c32.1-53.7,93.5-55.2,128.9-4.2
	c16.9,24.3,16.5,49.6,2.9,74.6c-13.5,24.9-28.4,49.1-42.7,73.6c-14.8,25.4-28.7,51.3-44.4,76.1
	C2443.1,1112.3,2423.4,1127.4,2396.6,1124.6z M2505.9,904.4c-2.1-4.6-3.5-9.5-6.4-13.3c-13.1-17.4-35-16.6-47.3,4.2
	c-28.1,47.7-54.5,96.5-81.4,145c-5.5,9.9-4.6,18.7,3.8,27.3c17.4,17.8,30.6,17.5,43.2-4c27.5-47,54-94.5,80.8-141.9
	C2501.6,916.5,2503.3,910.7,2505.9,904.4z"/>
<path d="M1332.4,1791.9c0,55.9-52.9,95.9-104.2,73.7c-50.7-22-99.4-49.4-146.7-78.2c-32.7-19.9-36.9-60.9-15.7-96.9
	c21.6-36.6,48.6-47.4,86.7-29.3c51,24.3,100.8,51.1,150.4,78.2C1324.7,1751.4,1332.4,1768.2,1332.4,1791.9z M1284.5,1790.7
	c-4.4-4.7-10.2-14.6-18.8-19.4c-40.6-22.3-81.9-43.3-123.2-64.3c-17.1-8.7-26.4-5.7-35.6,9.3c-8.8,14.5-7.5,26.4,9,35.7
	c43,24.2,86.7,47.1,130.8,69.1C1261.3,1828.4,1283.1,1812.7,1284.5,1790.7z"/>
<path d="M3458.8,1655.2c-53.8,0.7-83.1-26-88.7-65c-5.4-37.4,14.2-71.2,50.1-79.3c47.3-10.6,95.2-19.5,143.3-26.2
	c39.5-5.5,69.1,18,77.5,56.5c7.6,35.1-10.1,72.9-45.1,82.8C3545.4,1638.3,3493.5,1647.5,3458.8,1655.2z M3456.6,1605.9
	c35.8-8,78.4-16.8,120.6-27.3c15.3-3.8,18.1-12.8,14.5-28.2c-3.4-14.4-11.9-20.8-26.3-18.2c-41.8,7.6-83.7,14.8-125.3,23.6
	c-19.1,4.1-25,14.4-21.7,30.2C3421.9,1602.6,3429.1,1607.2,3456.6,1605.9z"/>
<path d="M2331,1386.6c-78,0.9-111.4-45.8-90.8-105.2c6.4-18.5,18-32.7,38-35.2c55.1-6.7,110.4-12.6,165.7-17.7
	c17.2-1.6,31.1,8,42.1,20.7c34.5,39.7,15.1,105.4-35.3,119.8c-7.7,2.2-15.7,3.8-23.7,4.9C2389.9,1379,2352.8,1383.8,2331,1386.6z
	 M2306.8,1342.1c41.9-5.6,83.9-10.8,125.7-16.9c19.7-2.9,25.8-10.6,24.4-27.5c-1.3-16.7-8.7-23.5-29-21.7
	c-41.1,3.6-82.1,8.6-123.2,13.1c-3,0.3-6,1.1-8.7,2.3c-14.5,6.1-13.7,17.9-11.3,30.5C2287,1334.3,2292.2,1342.7,2306.8,1342.1z"/>
<path d="M3351.4,1453.8c-17.9,1.5-33.3-6.8-42.6-22.1c-25.1-41.3-50.8-82.5-72.2-125.8c-16-32.3-0.8-66.5,31.3-84.7
	c34.3-19.4,71.3-15.3,91.7,15.7c25.5,38.6,49.4,78.8,68.5,120.9C3449.2,1404.1,3408.1,1453.9,3351.4,1453.8z M3383.3,1384.3
	c-1.5-8-1.3-11.4-2.6-13.9c-18.6-34.5-37-69.2-56.6-103.2c-6.2-10.8-17-9-26.6-3c-9.9,6.2-18.9,13.6-13,26.8
	c6.6,14.7,14.5,28.8,21.9,43.1c10.2,19.7,20.2,39.4,30.9,58.9c6.4,11.8,17.1,14.7,28.2,7.9C3373,1396.3,3378.8,1388.7,3383.3,1384.3
	z"/>
<path d="M1625.6,1647c-25.6-0.4-36.9-17.2-27.3-34.9c15.9-29.2,32.6-58,49.9-86.5c10.2-16.7,24.4-20.5,38.5-12.3
	c15.2,8.8,18.5,20.1,7.9,38.9c-15.4,27.3-31.8,54.1-49.3,80.1C1640.2,1639.9,1630,1643.9,1625.6,1647z"/>
<path d="M2767.6,2899.4c-0.7,76.6-67.7,141.3-145.7,140.7c-72-0.6-137.5-66.7-137.7-139c-0.2-80.3,61.9-141.5,143.1-140.4
	C2701.8,2761.6,2764.1,2818.5,2767.6,2899.4z M2679.7,2816.6c-20.8,0.1-39.9,20-39.6,41.3c0.3,22,18.7,39.3,41.1,38.7
	c24.6-0.7,38.4-13.7,38.8-36.5C2720.5,2835.9,2702.5,2816.5,2679.7,2816.6z"/>
<path d="M1647.3,2760.3c76.4-1,145.8,63.6,143.7,138.3c-2.5,88.9-67.2,138.9-138.7,139.8c-67.7,0.9-140.1-46.6-142.6-139.5
	C1507.9,2828.7,1561.1,2759.3,1647.3,2760.3z M1739.1,2855.5c0.1-23.4-17.1-40.6-40-40c-21.4,0.5-38.4,17.7-38.5,38.8
	c-0.2,23.6,16.6,41.5,38.5,41.5C1722.2,2895.7,1738.9,2878.8,1739.1,2855.5z"/>
<path d="M2143.5,3279.5c-87.5-0.1-157-45.5-188.8-127c-10.9-27.9-16.6-58.2-21.2-87.9c-3.5-23,4.6-33.4,19.1-35.3
	c16-2.1,27.1,8.5,30.6,29.8c1.9,12,2.7,24.2,4.6,36.1c15.5,99.2,104.1,156.9,198.6,128.6c57.1-17.1,88.9-57.6,99.5-115
	c3.3-17.8,2-36.3,3.6-54.4c1.7-19.2,8-25.6,23.1-25.3c16.4,0.4,27.1,8.8,27.2,26.3C2340.2,3171.9,2271.7,3279.1,2143.5,3279.5z"/>
<path d="M1570.9,3232.4c-24-3.1-48.8-3.6-71.8-10.2c-21.8-6.2-44.4-15.7-62.2-29.4c-33.7-26.1-32-66,1.1-93.2
	c26-21.4,57.7-29.9,90-32.8c32.1-2.9,64.7-2.4,97-1.3c31,1.1,59.3,12.3,83.9,31.4c37.5,29.1,35.6,74.8-3.9,101.5
	c-30.3,20.5-65.1,27-100.5,30.7c-11,1.2-22.2,0.2-33.4,0.2C1571.1,3230.4,1571,3231.4,1570.9,3232.4z M1688.7,3143.5
	c-11.9-7.9-20.8-16.4-31.4-20.5c-56.6-21.7-113.3-16.9-169.3,2.8c-10.9,3.8-23,9.5-22.9,24.6
	C1509.6,3195,1638.8,3193.3,1688.7,3143.5z"/>
<path d="M2704,3232.8c-24.3-3.2-48.5-5.5-72.3-9.8c-12.8-2.3-25.4-7.1-37.2-12.7c-27.7-13.1-52.4-31.4-50.7-65.3
	c1.7-33,26.1-52.3,54.9-62.7c74.6-26.8,148.8-25,221.3,8.7c7.3,3.4,14.1,8.1,20.3,13.2c31,25.9,32.8,63.9,1,88.3
	c-17.9,13.7-40.3,23.3-62.2,29.5C2755.1,3228.9,2729.3,3229.5,2704,3232.8z M2703.4,3185.4c27-5.1,54.8-9.7,82.3-15.8
	c11.6-2.6,27.6-7.1,25.3-21c-1.5-8.9-15.9-15.7-24.6-23.3c-1.5-1.3-3.6-1.7-5.5-2.4c-51.6-18.2-103.4-16.2-155.1-0.9
	c-7.5,2.2-14.9,6.7-21,11.7c-11.5,9.3-11.1,17.8,1.3,26.9c6.4,4.7,13.8,9.2,21.5,10.8C2652,3176.6,2676.9,3180.6,2703.4,3185.4z"/>
</svg>
