<?xml version="1.0" encoding="utf-8"?>
<!-- Generator: Adobe Illustrator 24.3.0, SVG Export Plug-In . SVG Version: 6.00 Build 0)  -->
<svg version="1.1" id="Layer_1" xmlns="http://www.w3.org/2000/svg" xmlns:xlink="http://www.w3.org/1999/xlink" x="0px" y="0px"
	 viewBox="0 0 4000 4000" style="enable-background:new 0 0 4000 4000;" xml:space="preserve">
<path d="M2229.7,615.6c219.9-0.9,443,32.1,660.1,100.2c211.3,66.2,403.8,167.5,568.8,317.8c161.5,147.2,263,326.8,301.3,542.4
	c19.9,111.9,25.2,224.3,19.9,337.8c-7.9,171.2-38.2,338-97.4,498.8c-103.3,280.3-279.9,503.6-528.1,670
	c-180.2,120.8-378.6,196.8-590.1,241.2c-178.6,37.5-358.6,49-540.8,38.6c-195.9-11.2-385.9-49.4-568.2-121.1
	c-261.5-102.8-483.4-261-652.3-487.7c-105.5-141.7-182.3-298.8-233.8-467.8c-36.4-119.2-60.6-240.8-70.5-365.2
	c-19.2-240.8,42.2-457.1,190.3-649.5c147.6-191.8,337.7-328.2,551.8-434.8c175.4-87.3,361.2-142.1,553-179
	C1935.2,629.9,2077.7,615,2229.7,615.6z M675.9,2212.4c-2.7,1.8-5.4,3.7-8.1,5.5c4.3,16.3,7.7,32.9,12.9,48.9
	c61.9,188.1,155.1,358.3,288.7,505.5c129.9,143.1,284,253.1,459.2,333.2c212.7,97.2,438.1,137.8,670.4,144
	c140.9,3.8,280.6-9.1,419.5-34.3c206.3-37.4,397.3-111.8,572.2-227.1c234.3-154.4,397.6-364.3,491.6-628.7
	c45-126.5,69.9-257.1,84.3-390.1c1.5-14.3,0.2-29,0.2-43.4c-11.1,9.1-16.9,19.4-21.9,30c-9,19.4-16.2,39.7-26.5,58.4
	c-66.3,119.9-153.6,223-256.5,312.7c-132.5,115.4-282.2,203.9-442.5,274.2c-236.5,103.7-485.1,158.7-741.9,177.7
	c-160,11.8-319.7,6.1-478.5-17.7c-170.8-25.5-337.8-65.6-496.2-136.3c-202.2-90.2-379.3-213.7-513.8-392.7
	C684.3,2225.9,680.3,2219,675.9,2212.4z M2019.8,2738.6c179.1,0.9,355.3-21,529.6-61.9c232.4-54.5,449.1-144.8,646.8-279.1
	c132.8-90.2,247.2-199.2,337.8-332.4c79.2-116.5,125.4-244.8,128.4-385.9c4.1-188.1-64.4-350.5-186.4-491.1
	c-121.8-140.3-273.1-241.1-441.5-315.6c-214.6-94.8-440.9-144.9-674.6-158.2c-164.1-9.4-327.9-1.7-490.4,25.6
	c-174.3,29.3-343.4,76.5-506.1,146.3c-181.5,77.8-346.8,180.3-488.6,318.3c-106.3,103.5-191.4,221-241.1,363.1
	c-63.2,180.8-53.7,356.3,29.3,528c67.7,140.1,172.4,248.7,296.6,339.3c176.4,128.9,375.3,207.3,587.2,254.3
	C1702.4,2723.8,1860.3,2739.7,2019.8,2738.6z"/>
<path d="M1997.4,2687.4c-168.7-2.7-371-24.8-566.9-85.4c-199.5-61.7-383.4-153.9-537-299.2c-121.7-115.2-204.3-252.2-235.3-418.7
	c-21.1-113.4-4.8-222.9,31.2-330.6c38.5-115.1,104.5-213.3,185.5-302.4c151-166.1,336.9-280.2,542.2-366
	c155.9-65.1,318.2-105.2,484.9-129.7c153.9-22.6,308.5-27,463.2-16.9c271.5,17.8,530.2,83.2,768.2,219.3
	c124.1,70.9,234.8,157.9,320.3,274.1c93.7,127.4,149.2,268.1,148,428.1c-0.8,105.8-29,205.3-74.9,299.8
	c-66.2,136.4-164.5,246.8-282.4,340.3c-222.5,176.5-477.7,280.6-753.6,338.1C2327.7,2672.4,2176.7,2688,1997.4,2687.4z
	 M2024.1,2644.6c99.6,1,202.2-7,304.2-20.4c142.7-18.7,282.3-50.6,418-99.5c178.7-64.4,344.9-150.9,492.2-271.9
	c106.8-87.8,194.7-190.7,255.6-315.7c58.8-120.6,81.9-246.9,60.1-379.9c-24.4-148.9-95.1-274.2-200.6-380.2
	c-112.8-113.3-244.7-199.4-391.6-261.3c-213.6-90-437.7-132.8-668.8-140.1c-154.2-4.9-306.9,8.1-459.1,34.3
	c-186.1,32.1-363.8,88.3-531.9,173.9c-112.9,57.4-219.8,124.1-314,210c-96.6,88.1-180.6,185.6-234.6,305.7
	c-103.7,230.4-83.4,449.9,64.5,655.5c72.3,100.5,165.7,179.4,269.1,246c147.2,94.8,309.1,155.1,478.8,194.2
	C1715.4,2629.7,1867,2647.2,2024.1,2644.6z"/>
<path d="M2465.4,1383.5c7.6,5.7,12.7,10.6,18.8,13.8c18.1,9.4,27.5,20.7,21.5,43.7c-5.2,19.9,8.3,32.9,32.8,33.7
	c32.8,1.1,65.1-3.9,95.2-18c27.6-13,54.5-27.4,82.1-40.4c128-60.3,256.2-120.2,384.2-180.4c19.3-9.1,38.3-19,57.7-27.9
	c7.2-3.3,15.5-7,22.9-6.3c5.5,0.5,12.2,7,14.8,12.5c1.9,4.1-0.4,12.1-3.6,16.2c-3.4,4.5-9.8,6.9-15.3,9.5
	c-117.3,54.5-235.1,107.8-351.7,163.6c-58.7,28.1-115.3,60.6-172.8,91.3c-4.3,2.3-7.8,5.9-12.3,9.4c6.6,18.3,16.7,30.7,37.2,34.8
	c2.4-4.3,5.7-8.2,6.9-12.6c9.4-36,49.4-58.9,85.1-48.5c22.2,6.4,32.4,26.7,23.1,48c-7.2,16.6-19.1,29.3-38.2,31.8
	c-19.1,2.4-38.4,4-57.7,5.1c-15.2,0.8-29.9,2.2-44.7,12.4c4.5,5.8,8.2,10.1,11.4,14.8c7.9,11.5,17.9,22.3,22.7,35
	c5.2,13.7,13.4,18.6,26.7,20.4c108.8,15.1,217.6,30.5,326.4,45.9c53.4,7.6,106.8,15.4,160.2,23.3c7,1,15.2,1.5,20.2,5.5
	c4.5,3.6,8.1,12.2,7,17.6c-1,5.3-7.8,11.4-13.3,13.2c-6.3,2-14.1,0.2-21.1-0.8c-109.8-16.1-219.5-32.3-329.2-48.7
	c-55.3-8.3-110.3-18.2-165.7-25.6c-26.5-3.5-53,1.7-76.9,14.4c-22.7,12.1-25.1,22.8-11.2,43.9c8.9,13.6,19.3,26.4,27.3,40.5
	c14.2,25,9.1,37.4-18.1,45.3c-16.1,4.7-32.7,8.1-55.2,13.6c12.8,10,20.4,16.3,28.2,22.1c122.6,91,245.3,181.8,367.9,272.9
	c17.2,12.7,34.3,25.7,50.6,39.4c16.6,14,19.4,24.5,10.9,32.7c-7.9,7.6-20.6,5.3-35.5-6.2c-29-22.4-57.7-45.3-87.2-67
	c-118.9-87.5-238.2-174.5-357.1-262c-31.8-23.4-64.7-20.1-98.5-6.9c-20.5,8-31.2,24.2-27.3,45.8c3.2,17.6,8.8,35.6,17.3,51.1
	c19.3,35.1,20.3,34.5-3.8,65.9c23.9,46.7,49.1,94.3,72.9,142.6c24.8,50.2,48.3,101,72.2,151.7c3.4,7.3,7.1,15.3,7.2,22.9
	c0,5.7-4.7,15-9.2,16.3c-6.3,1.8-16.1-0.2-21-4.5c-5.7-4.9-7.7-14-11.3-21.3c-39.6-80.3-79-160.8-118.8-241
	c-15.4-31-32.1-61.4-47.3-92.4c-20.4-41.6-56.3-63.7-98.3-76.5c-39.2-11.9-64-1.2-90.6,32.2c-9.3,11.7-20,23.5-32.5,31.3
	c-13.5,8.4-16.7,18.2-16,32.8c5.2,118,10,236.1,14.7,354.2c0.4,10.9,0.1,21.9,0.1,35c-12,1-20.6,1.7-28.6,2.4
	c-2.7-4.6-5.2-7-5.5-9.7c-1.6-13.1-3.2-26.3-3.6-39.5c-3.4-100.8-6.3-201.6-9.7-302.4c-0.6-19.3-2-38.7-4.2-57.9
	c-1-8.9-3.6-18.2-8-25.9c-29.3-52.2-89.1-53.6-119.4-1.5c-12,20.8-17.9,45.2-25.7,68.3c-5.2,15.4-8.3,31.5-13.3,47
	c-2.4,7.6-5.4,16.5-11.1,21.3c-5.2,4.5-14.9,6.8-21.6,5.3c-4.4-1-10.3-10.7-9.7-15.9c1.6-13.9,5.9-27.6,9.9-41.1
	c6.3-21.1,18.5-40.5,18.4-64.3c-4.5-2-8-4.6-11.7-5c-22.2-2.3-31-16.7-34.6-36.6c-1.4-8-3.3-16-6.3-23.6
	c-5.7-14.4-15.6-20.1-28.7-12.3c-16.2,9.6-33.2,21-44.2,35.9c-106,143.2-210.8,287.4-316.1,431.1c-13.6,18.6-21.2,21.5-31.5,14
	c-11.2-8.1-10.9-18.3,2.9-37.1c55.7-75.4,112.1-150.2,167.4-225.8c42-57.6,83-115.9,123.8-174.4c9.3-13.3,17.1-27.9,23.3-42.8
	c4.3-10.3,4.5-22.3,7.3-37.6c-13.3,2.3-21,3.7-28.7,5c-3.9,0.7-9.5,3.3-11.5,1.7c-29-24.2-61.7-3.6-92.5-7.6
	c-31.9-4.2-61.4,12.5-90,25.6c-120.4,55-240.4,110.9-360.6,166.2c-34.2,15.8-68.7,30.9-103.1,46.3c-0.9,0.4-1.8,0.9-2.8,1.3
	c-11.5,4.7-23.5,10.4-32.3-4c-6.9-11.4-1.3-21.8,16.3-29.8c85.2-38.9,170.3-77.9,255.8-116.2c76.2-34.1,152.9-67,229.1-101
	c18.5-8.3,36.4-18.3,53.7-28.9c8.5-5.2,16-12.9,22-20.8c11.6-15.3,8.3-30-9.5-36.8c-12.1-4.6-25.7-5.3-38.7-7
	c-21-2.8-42.5-3.5-60-19.8c22.9-40.6,67.4-27.3,100-40.9c-3.9-31.1-15.7-44.7-45-48.2c-44.4-5.2-89.1-8.6-134-12.7
	c12.8,12.2,26.4,22.3,36.2,35.4c12.9,17.3,8.5,32.8-10.3,43.4c-23,13-48.3,16.2-74,12.1c-17.3-2.8-29.5-13.5-35.2-30.4
	c-5.9-17.5,0.1-32,12.7-44.3c5-4.8,10.3-9.3,19.7-17.8c-49.3-3.7-93.7-6.8-138-10.6c-67-5.7-133.9-11.5-200.8-17.8
	c-26.2-2.5-27.1-4.9-19.2-35.8c10.1,0,21-0.8,31.7,0.1c86.2,7.2,172.4,14.9,258.7,22.1c71,5.9,142.2,10.6,213.1,17.2
	c46.5,4.3,91.4-0.8,135.4-15.6c20.2-6.8,23.6-12.9,13.4-31.2c-7.7-13.9-17.9-27.7-30.3-37.3c-27.4-21.1-56.3-40.3-85.5-58.9
	c-119.5-75.8-239.4-151.1-359.1-226.6c-0.9-0.5-1.8-1-2.7-1.5c-17.2-11.2-21.8-20.7-15.2-31.4c6.8-10.9,15.5-11.4,34.7,0.7
	c87.8,55.4,175.2,111.6,263.2,166.8c62.1,39,124.8,77,187.5,114.9c6.5,4,15.2,6.4,22.8,6.3c34.6-0.8,69.3-1.3,103.8-4.6
	c45.2-4.3,67.4-51.8,42.6-89.8c-49.4-75.8-99.7-151.1-149.6-226.7c-21.3-32.3-42.4-64.7-63.6-97c-6.9-10.5-14.1-21.6-1.4-32.4
	c9.2-7.8,24.1-2.8,33.3,11.2c30.5,46.9,60.2,94.4,91,141.2c38.1,57.8,77.3,114.9,115.1,172.9c10.8,16.6,23.6,26.8,43.6,29.3
	c15.1,1.9,29.8,6.6,44.6,10.1c30.5,7.1,42.6,0.9,54.1-28.4c2.9-7.4,4.4-15.3,6.8-23.6c-40.8-16.7-44.8-52.7-49-88.3
	c-1.1-9.4,1.3-20.2,12.2-21.6c8.1-1,20.2,0.9,24.6,6.3c8.6,10.6,14.7,24,18.6,37.3c4,13.3,4,27.8,5.7,40.8
	c22.9,7.7,43.9,15.4,65.2,21.8c31.8,9.6,46-0.7,47.7-34.4c0.7-14.2-0.2-28.5-1-42.7c-5.7-100.7-11.6-201.3-17.3-302
	c-0.3-6.1-0.6-12.2-0.4-18.3c0.4-11.4,7.4-16.2,17.9-16.5c10.7-0.2,17.6,4.9,18.5,16c1.8,23.4,3.4,46.7,4.6,70.1
	c4.2,77.3,8.4,154.6,12.4,231.9c1.5,28.4,7.1,54.9,32.2,72.5c7.4,5.2,15.6,9.9,24.1,12.7c23.5,7.6,39.9,0.8,49.6-21.9
	c9.2-21.5,15.8-44.1,25.1-65.5c3.2-7.3,11.2-17.6,17.1-17.6c12.9,0,18.5,12.5,18.1,23.9c-0.4,11.9-3.9,24-7.6,35.5
	c-5.2,16.5-13.4,32.1-17.5,48.8c-6,24.7,5,39.8,29.9,43.1c33.4,4.5,60.4-7.3,79.1-35.3c34.5-51.7,68.7-103.5,102-155.9
	c45.3-71.3,89.6-143.3,134.6-214.9c5.4-8.5,11.1-17.3,18.5-23.9c3.4-3.1,12.5-3.4,16.7-1c4.1,2.3,8,10.6,6.9,14.9
	c-2.7,10.6-7.1,21.3-12.9,30.6c-44.9,71.6-90.3,142.8-135.5,214.3c-25,39.6-50,79.2-74.6,119.1
	C2476.2,1360.8,2471.4,1371.9,2465.4,1383.5z M1662.5,1846c15.4-2.8,26.1-5.2,37-6.5c41.9-5.2,84.7-13,109.3,33.3
	c55.7-10,55.7-10,88.4,37.8c9.6,14,19.4,27.8,30.5,43.6c15.1-15.3,26.9-29.4,40.9-40.9c37.1-30.5,69.3-31.3,108.4-3.8
	c9.9,7,18.8,15.5,28.1,23.3c6,5,12.1,10,23.5,19.4c13.4-15.9,25-31.4,38.3-45.2c27.7-28.9,62.6-38.9,100.5-28.5
	c24.1,6.6,46.7,19.3,69.6,29.9c9,4.2,17.2,10.2,28.7,17.2c2.9-13.9,5-24.7,7.4-35.3c10.9-48.6,36.8-71.8,86.3-75.8
	c14-1.2,28.4,1.6,42.5,1.2c8.6-0.3,17.5-2.1,25.7-5c15.1-5.3,29.6-12.2,44.6-17.7c9-3.3,18.4-5.3,30.3-8.7
	c-6.3-9.2-9.9-15.1-14.2-20.6c-42.2-54-31.3-93.1,32.7-117c5.7-2.1,11.8-3.1,17.5-5.1c4.6-1.7,8.9-4.1,14.8-7
	c-14.5-18.2-31.9-33.5-40.7-52.8c-9.4-20.6-10.6-44.8-15.7-69c-14.2-1.4-27.3-2.5-40.3-3.9c-16.1-1.8-32.3-3.5-48.3-6.2
	c-23.7-4-37.2-19.3-43.6-41.7c-1.4-4.9-2.3-9.9-3.7-14.8c-7.2-25.2-10.6-27.1-37-19.9c-13.7,3.7-27.4,7.6-41.2,11.2
	c-33.3,8.7-63,3.1-85.4-24.6c-10.9-13.5-24.1-16.7-40.4-15.7c-23,1.5-44.2-4.7-63.5-17.6c-5.6-3.7-12.3-5.8-18.2-8.6
	c-17.4,15.8-27.5,40.1-53.8,38.7c-22-1.2-43.9-5.5-67.6-8.6c-4.2,7.3-9,15-13,23c-14.7,29.1-38.6,40.7-70.3,37.1
	c-12.1-1.4-24-4-36-6.3c-11.6-2.2-23.2-4.7-36-7.3c-2.9,9.6-5.3,16.1-6.9,22.9c-10.8,46.6-35.8,69.1-84.1,73.9
	c-19.2,1.9-38.6,1.4-57.9,2.6c-10.6,0.7-21.2,2.5-32.3,3.9c1,7.9,1.1,11.9,2,15.8c11.3,49.4-0.9,67.8-50.2,76.4
	c-10.4,1.8-20.7,4.7-34.9,8c8.4,9.8,13.6,15.7,18.6,21.6c16.6,19.5,16.6,28.5,0.1,47.6c-4.9,5.6-9.6,11.3-14.9,17.5
	C1686.3,1761.1,1706.3,1761.9,1662.5,1846z"/>
<path d="M2885.9,1774.6c12.2,3.9,26.5,6.4,38.6,13c18.8,10.2,26,30.2,21.2,49.6c-5.3,21.4-21.2,34.6-44.2,34.9
	c-22.9,0.3-44.3-6.5-63.1-19.6c-14.3-9.9-21.8-24.4-19.2-42.1c2.3-16.1,14.6-24,28.8-28.1
	C2859.6,1778.7,2871.8,1777.3,2885.9,1774.6z"/>
<path d="M2672,2169.4c-34.6,4.2-76.7-51.9-72.6-80.6c3.1-21.4,21.4-36.4,42.9-33.8c30.3,3.7,65.3,37,71.3,67.7
	C2718.6,2149,2700.4,2169.5,2672,2169.4z"/>
<path d="M1398.1,2087.3c2.5-4.9,6-15.9,12.8-24.1c17.4-21,40.7-33.4,67.4-38c27.5-4.7,45.2,14.8,39.3,42
	c-6.5,29.9-44.9,64.2-75.5,67.2C1416.1,2137,1395.2,2117.6,1398.1,2087.3z"/>
<path d="M2758.7,1152.2c27.2-0.6,44.8,20.2,40.9,48c-4.4,31-53.5,70.1-84.9,67.6c-14.4-1.1-27.2-14.2-29.5-30.3
	C2680.7,1206.2,2726.6,1152.9,2758.7,1152.2z"/>
<path d="M1264.7,1867.8c-23.3-3.8-37.4-12.8-44.2-31.1c-7.1-18.9-1-37.3,16.7-50.9c22.8-17.5,65.6-19.5,89.5-4.2
	c27,17.3,28.1,47.1-0.2,63.4C1307.7,1855.9,1285.4,1860.4,1264.7,1867.8z"/>
<path d="M1558.3,1194.8c39.1,0.2,78.3,56.1,65.1,92.7c-6.4,17.7-16.5,23.9-34.8,20.5c-31.7-5.9-56.7-21.5-70.8-51.5
	C1504.4,1227.8,1526.5,1194.6,1558.3,1194.8z"/>
<path d="M2283.8,2189.9c3.3-13.8,4.5-25.1,8.7-35.1c10.3-24.8,33.1-31.5,54.4-15.5c24.3,18.3,35.5,44.1,34.8,74.2
	c-0.4,20.2-13.7,35.7-31.3,40.4c-22.3,6-41.9-0.2-52.3-20.1C2290.8,2219.8,2288,2203.5,2283.8,2189.9z"/>
<path d="M2342.5,1138.4c1.2-26.5,6.5-46.6,23-62.3c15.8-14.9,34.5-17.4,52.8-7.1c16.7,9.4,25.6,26.9,21.1,46.3
	c-6.2,26.3-20.8,48.6-41.6,65.4c-21.4,17.2-43.8,9.3-51.9-16.9C2343,1154.3,2343.2,1143.9,2342.5,1138.4z"/>
<path d="M1665,1955.6c-0.2,34.5-22.7,64.4-56,74.8c-15.6,4.8-29.9,4.2-41.9-8.5c-12.2-13-17.8-29.3-8.8-44.4
	c9.6-15.9,23.5-29.5,36.8-42.8c5.4-5.4,14-7.8,21.3-11.2C1649.5,1908.1,1665.2,1918.7,1665,1955.6z"/>
<path d="M1854.3,2221.2c-8,20.5-14.2,42.1-24.7,61.3c-10.8,19.7-33.7,25-53,16.4c-18.3-8.2-26.7-25.9-22.9-48.1
	c3.9-22.9,16.1-41.6,31.1-58.5c15.2-17.2,28-21.4,42.5-15.2C1843,2183.8,1851.1,2198.7,1854.3,2221.2z"/>
<path d="M1966.7,1149.9c-1.3,5.6-2.2,16-6.1,25.1c-8.3,19.6-25.9,26.3-45.3,17.4c-28.1-13-43.1-36.7-48.4-66.2
	c-3.2-17.8,8.8-37.1,24.9-45.3c16.9-8.7,35.9-6.1,51.1,6.8C1957,1099.6,1966.7,1123.1,1966.7,1149.9z"/>
<path d="M2875.3,1507.1c-21.8-3.5-39.7-2.1-47.7-20.5c-7.8-18.1-1.5-34.2,10.9-47.7c18-19.4,40-31.4,67.5-29
	c21.2,1.9,37.4,16.1,41.1,34.9c3.7,18.7-3.2,36.1-22.6,45.6C2907.5,1498.8,2888.4,1502.8,2875.3,1507.1z"/>
<path d="M1636.4,1460.5c-26-4.9-51.8-20.5-67.6-48.4c-13.8-24.4,10.3-58.5,38.6-57.3c31.2,1.3,71.1,34.1,78.2,64.4
	C1691.1,1442.1,1671.1,1461.2,1636.4,1460.5z"/>
<path d="M2765.1,1783.8c-7.1-1.6-21.4-3.6-34.8-8.1c-25.2-8.4-37.2-24.4-35-43.7c1.9-17.2,20.9-36.6,41.5-39.7
	c24.1-3.6,46.8,3.4,66.2,17.3c16.9,12.1,22.4,32.5,16.4,48.8C2812.9,1775.7,2796.1,1784.8,2765.1,1783.8z"/>
<path d="M2599.2,1993.4c0.8,29.1-28.7,51.8-56.1,41.9c-31.3-11.4-48.4-35.9-54.4-67.6c-3.8-19.9,11.6-38.3,31.3-41
	C2550.8,1922.5,2598.3,1962.4,2599.2,1993.4z"/>
<path d="M1379.7,1542.1c-10.7-1.7-22-2.4-32.6-5.6c-22.2-6.7-33.4-23.7-32.1-45.8c1.2-20.6,19.2-40.7,40.5-43
	c29.2-3.2,54.3,6,72.8,29.5c19.4,24.7,11.6,50.2-18.2,59.5C1400.6,1539.6,1390.3,1540.3,1379.7,1542.1z"/>
<path d="M3050.3,1591.2c-20.9-1.8-40.3-3.7-52.5-22.3c-10.8-16.4-9.7-30.6,4.7-43.4c19.8-17.6,43.2-26.8,69.9-25.5
	c22.8,1.2,42.3,18.7,44.5,38.9c2.4,21.6-11.1,40.6-34.9,47.1C3071.3,1589,3060,1589.7,3050.3,1591.2z"/>
<path d="M1944.5,1309c-4.2,15.3-5,32.5-22.3,40.6c-17.6,8.2-35,5.5-47.7-7.8c-12.4-12.8-23.7-27.9-31-44
	c-9.4-20.7-0.1-42.5,19.1-55.4c16.1-10.9,34.2-8.2,52.3,8.1C1931.9,1266.1,1941.4,1285.7,1944.5,1309z"/>
<path d="M2657.6,1423.4c-16.8,0.7-30.3-5.7-38.5-20.2c-7.5-13.3-1.3-25.8,6.1-37.1c13.8-21,30.9-37.7,56.6-43.4
	c33.5-7.5,56.3,14.1,49.5,48.2c-6,30.1-29.3,42.3-55.6,50.4C2670,1423,2663.6,1422.8,2657.6,1423.4z"/>
<path d="M1815.9,2015.2c20-0.6,35.4,14,38,35.9c3,25.1-22,68-45.3,77.9c-24.5,10.3-54.7-8.7-58.2-36.7
	C1746.6,2061.7,1785.3,2016.1,1815.9,2015.2z"/>
<path d="M2742.4,1921.1c-27.5-3.2-50.1-17.1-62.4-44.3c-12.6-28,7.5-57.6,38.2-56.1c30.7,1.5,54,17.6,69.2,43.3
	C2803.5,1891.5,2780,1921.7,2742.4,1921.1z"/>
<path d="M2021.1,2226.2c-2.8,21-7.5,39.2-22.4,53.5c-20.4,19.6-50.5,15.2-64.3-9.3c-16.9-30.1,1.9-86.8,33.3-100.3
	c13.5-5.8,31-1.2,39.2,14C2013.9,2196.9,2016.6,2212.1,2021.1,2226.2z"/>
<path d="M2255.7,2016.9c0.3-3.5,0.1-9.6,1.4-15.5c6.7-31.2,35.9-41.6,59.5-20.2c19.3,17.5,30.5,40.1,33,66.3c2,21.5-5.1,34-22.4,42
	c-15.8,7.3-36.6,2.5-49.8-11.4C2265.7,2065.8,2256,2039.4,2255.7,2016.9z"/>
<path d="M2252.1,2106.4c-2.7,25.5-14.4,44.2-32.2,48.2c-20.7,4.6-46-8-53.3-30.6c-5.1-15.8-6.6-33.8-5.3-50.4
	c1.8-21.4,14.3-33.2,31.3-35.9c19.3-3.1,39,6.2,47.3,25.3C2245.8,2076.7,2248.2,2091.9,2252.1,2106.4z"/>
<path d="M2464.6,1259.7c-4.3,27.7-14.9,52.7-37.1,70.8c-13.2,10.7-28.4,8.7-42.8,0.3c-16.8-9.9-24.9-23.4-21.4-39.9
	c5.3-24.5,17.9-45.2,37.4-61.1c13.7-11.2,28.7-7.8,43-1.2C2456.6,1234.6,2465.1,1244.1,2464.6,1259.7z"/>
<path d="M2061.5,2082c-6.6,15.7-10.1,31.1-18.6,42.7c-16.8,22.9-44.2,21.5-61.9-1c-21.9-27.8-14.4-78.4,14.6-98.7
	c16.6-11.6,34-10.9,45.3,6.5C2050.4,2046.1,2054.5,2064.3,2061.5,2082z"/>
<path d="M2115.6,1232.5c-2.5,11.9-3.3,21.1-6.3,29.6c-6.2,17.5-18.4,29.2-37.5,31.2c-17.9,1.8-27.7-10.6-35.7-23.8
	c-10.9-18-14.1-37.9-10.4-58.5c3.6-20.2,17.9-35.5,35-37.5c18.2-2.1,31.7,7.8,40.3,22.1C2108,1207.3,2111.4,1221.3,2115.6,1232.5z"
	/>
<path d="M1564.7,1800.2c-11.9,36.4-36.3,54.3-71.8,58.4c-24.6,2.8-40.5-5.9-48.4-26.8c-7.6-20-2.3-34,18.5-48.7
	C1504.9,1753.5,1529.4,1757.3,1564.7,1800.2z"/>
<path d="M1748.9,1428.1c-32-2-67.8-41.7-65.4-72.6c1.8-23.6,30.5-41.6,54.5-34.2c31.2,9.7,56,59,45.1,89.6
	C1777.8,1425.6,1770.2,1429.4,1748.9,1428.1z"/>
<path d="M2618.8,1324.2c0.1,30.3-34.3,65-64.9,65.6c-20.9,0.4-38.7-17.6-36.9-39.2c2.3-27.9,16.2-50.2,39.5-64.9
	C2582.3,1269.4,2618.8,1292.8,2618.8,1324.2z"/>
<path d="M1548.2,1602.3c-20.7-1-41.5-4.7-57-21.9c-17.5-19.4-15.4-39.3,5.6-54.4c29.4-21.1,89.3-5.2,102.3,28.3
	c2.7,7.1,0.5,18-3.2,25.3C1588,1595.2,1571.4,1602,1548.2,1602.3z"/>
<path d="M2205.4,1214.7c2.1-36.1,22.1-59.6,50.4-57.5c28,2.1,44.6,29.6,37.3,64.7c-2.4,11.6-7.1,23.6-13.9,33.3
	c-19.8,28.4-53.2,24.2-66.3-8.2C2208.8,1236.8,2207.8,1225.4,2205.4,1214.7z"/>
<path d="M2846.5,1630.8c-29.4,1.1-48.8-7.4-60.4-29.6c-8.1-15.5-6.3-28.1,9-36.3c17.4-9.4,36.6-17.7,55.9-20.9
	c26.1-4.3,44.5,11.2,48.3,34.7c4,24.8-10.2,44.5-36.9,50.5C2855.6,1630.7,2848.4,1630.6,2846.5,1630.8z"/>
</svg>
