<?xml version="1.0" encoding="utf-8"?>
<!-- Generator: Adobe Illustrator 24.3.0, SVG Export Plug-In . SVG Version: 6.00 Build 0)  -->
<svg version="1.1" id="Layer_1" xmlns="http://www.w3.org/2000/svg" xmlns:xlink="http://www.w3.org/1999/xlink" x="0px" y="0px"
	 viewBox="0 0 4000 4000" style="enable-background:new 0 0 4000 4000;" xml:space="preserve">
<path d="M2157.8,3743.7c-401.2-9.2-749.6-118.8-1058.4-348.8c-144.4-107.6-271.5-232.2-376.3-378.2
	c-159.9-222.6-260.6-470-303.5-741c-21.4-135.5-27.2-271.7-17.5-408.1c13.4-187.3,56.9-368.4,130.6-541.2
	c202.5-474.5,544.8-805,1028.9-984.4c209-77.5,427.1-108.6,650.1-97.2c322,16.5,616.9,116.9,886.2,292.9
	c349.3,228.3,578,546.7,701.6,943.3c39.1,125.6,57.9,254.5,68.7,385.2c16.6,200.7-5.4,397.6-56.9,591.2
	c-48.5,182.6-125.1,353.5-229.6,511.1c-212,319.9-501.3,541.8-860.6,673.2c-129.7,47.5-264.1,76.2-401.6,89.3
	C2259.6,3736.5,2199.5,3740.4,2157.8,3743.7z M3718.9,1975.5c-3-110.2-18.6-226.2-41.2-331.4c-24-111.5-84.9-193.5-183.4-250.2
	c-57.6-33.1-119-56.4-180.8-79.2c-49-18-98.5-35.1-146.7-55c-91.3-37.6-159.3-101-197.1-192.7c-20.7-50.2-34.5-103.3-51.8-155
	c-17.3-51.7-32.2-104.4-53.2-154.6c-40.5-96.8-111.5-161.5-214-189.7c-76.5-21-151.2-10.7-224.7,13.2
	c-75.3,24.5-141.3,67.1-207.2,109.9c-41.9,27.2-83.9,54.7-127.8,78.4c-71.4,38.6-148,51.6-227.8,33.2
	c-47.5-10.9-94.6-24.4-141.1-39.1c-91.4-29-183.4-54.2-280.6-48.5c-139,8.1-263.2,77.6-306.5,227.6c-17.6,60.9-28.1,124-38.5,186.7
	c-17.7,106.7-74.8,180.7-174.9,221.7c-42.1,17.2-84.3,34.1-126.1,51.9c-111.4,47.5-174.7,132.4-198.5,250.6
	c-15,74.6,1.7,139.7,46.7,198.7c19.3,25.2,40.2,49.5,62.3,72.3c58,60,86.4,130.7,76,214c-5.4,43.8-15.3,87.2-24.5,130.5
	c-10.4,49-20.7,97.8-18.5,148.4c1.4,33.1,11.7,62.2,32.5,87.8c25.5,31.6,59.6,49.6,98.2,57.3c55.6,11.1,111.8,19.5,168,28
	c50.7,7.7,100.6,16.9,147.7,38.9c50.7,23.7,84,62,99.4,114.8c7.9,27,11.8,55.6,13.9,83.7c2.6,33.9,0.3,68.2,2.2,102.3
	c1,17.9,4.1,36.4,10.1,53.2c13.8,37.9,44.8,56,83.6,45c30.1-8.6,58.3-24.3,87-37.5c28.8-13.3,56.1-30.6,86-40.6
	c60.1-20,117.3,0.4,151.3,54.1c16.2,25.6,26.9,54.9,38.9,83c13.3,31.3,22.7,64.5,38.5,94.5c33.1,63.2,87,79.8,148.2,43.9
	c29.9-17.5,55.7-42.6,81.6-66.2c24.3-22.2,45-48.4,69.6-70.2c70.2-62.3,149.8-80.7,236.3-38.9c44.8,21.6,85.9,50.9,129.3,75.5
	c32.5,18.4,64.9,38.1,99.5,51.6c82.1,32.2,175.4,0.8,208.7-91.7c11.1-30.9,18.3-63.2,27-94.9c11.2-40.4,18.6-82.3,33.8-121.1
	c31.2-79.8,92.2-123.9,176.9-136.6c48.8-7.3,97.2-5.4,146.2-2.6c36,2,73,1.4,108.3-5.2c52.6-9.8,87.3-42.4,95.6-97.6
	c3-20.1,4.6-40.6,4.9-61c0.5-34.1-2.2-68.3-0.5-102.3c4.1-83.3,39.9-148.3,115.2-188.1c28.1-14.9,58.1-26.1,86-41.3
	c31.8-17.3,63.9-35,92.9-56.5c32-23.7,52.4-56.9,56.1-97.8C3714.8,2045.8,3716.5,2010.6,3718.9,1975.5z M3688.6,2283.1
	c-51.9,23.6-101.1,46.5-150.8,68.6c-53.7,23.9-79.3,65.7-81,123.3c-0.4,12.5-0.2,25-0.2,37.5c0,31.8,1.6,63.8,0,95.5
	c-5.9,112.5-73,192-181.9,211.8c-35.4,6.5-72.4,5-108.7,5.3c-37.5,0.3-75.1-4.2-112.5-2.3c-70.3,3.5-129.8,37.5-149,116.5
	c-4.6,18.8-8,37.8-12.8,56.5c-9.7,38.5-17.5,77.8-30.6,115.2c-27.3,78.2-76.7,136.1-159.5,159.9c-52.7,15.1-106.4,17.4-157.7-1.8
	c-43.3-16.2-84.9-37.8-125.8-59.8c-42.9-23.1-83.2-51.2-126.2-74c-35.9-19.1-73.4-14.2-107.3,6.9c-18.1,11.3-34.3,26.2-49.7,41.2
	c-16.3,15.8-29.6,34.7-46.1,50.3c-24.7,23.4-48.9,48.4-77.1,66.8c-121.4,78.8-251.3,33.8-302.6-77.8
	c-15.1-32.9-26.5-67.6-39.6-101.5c-6.6-16.9-11.6-34.7-20-50.6c-16.3-30.6-32.9-36.5-64.5-23.5c-18.8,7.7-35.9,19.6-54.6,27.7
	c-36.3,15.8-72.1,34.7-110.1,44.4c-85.2,21.9-160-11.3-195.4-84.6c-11.1-23-18.6-49.4-20.6-74.8c-3.7-46.3-1.6-93.1-2.7-139.7
	c-1.5-63-26.4-96.8-86.3-115.4c-25.9-8.1-52.7-13.7-79.5-18.7c-63.6-11.9-128.2-19.7-191-34.9c-85-20.5-151.4-66.5-182.2-153.3
	c-17.5-49.3-22.9-99.8-13.4-151.1c12.1-65.9,25.9-131.5,39.6-197.1c11.2-54-2.1-101.5-36.8-143.2c-26.2-31.4-53.2-62.2-80.1-93
	c-2.5-2.9-6.9-4.2-11.3-6.7c-37.2,397.2,112.5,959,595.5,1339.1c470.8,370.5,1113.3,446.4,1659.5,189.8
	C3368.3,3176,3633.9,2659.6,3688.6,2283.1z M1327,631.5c7.6-1,15.1-2,22.7-2.9c30.4-3.4,60.7-8.7,91.1-9.9
	c101.4-3.9,198.2,20.3,293.7,51.4c42,13.7,84.3,27.1,127.1,38.1c60.4,15.4,119.7,10.3,175.7-18.1c32.3-16.4,64-34.3,94.9-53.3
	c44.5-27.3,87.1-58,132.4-83.8c77.3-44,157.8-80.6,247.7-90.9c6.8-0.8,13.4-2.7,20.1-4.1c-237.4-68.6-475.9-77.5-715.6-28.9
	C1641.2,464.8,1476.4,529.4,1327,631.5z M3564.4,1316.7c-146.2-320.4-372.3-565.3-692.3-731.9c5.1,11,6.1,15.2,8.6,18.3
	c48.8,60.2,79.5,129.4,101.6,203c17.7,58.8,34.6,117.8,54.2,175.9c16.9,49.8,40.7,96.3,79.9,133.2c42.3,40,94,63.1,147.8,82.3
	c52.4,18.7,105.7,34.9,157.4,55.3C3470,1272.1,3516.9,1295.3,3564.4,1316.7z M1094.2,807.9c-109.4,55.5-378.4,424.6-390.5,533
	c6.9-2.4,13.3-4.2,19.2-6.7c40.7-17.3,81.4-34.7,121.9-52.4c20.8-9.1,42-17.6,61.9-28.2c46.2-24.7,78.2-61.8,91.5-113.2
	c6.2-24.2,11.5-48.6,15.6-73.2C1029,977.3,1043.3,887.4,1094.2,807.9z"/>
<path d="M2138.6,2519.1c-255.6,2.4-478-183.6-515.8-436.6c-29.5-197.8,29.5-368.5,182.5-498.4c256.8-218.1,628.2-124,775.6,126.7
	c169.4,288.1,44,636.1-227.2,762.9C2293.8,2501.8,2215.2,2518.4,2138.6,2519.1z M2501.9,1993c-0.9-210.2-164.2-377.6-370.9-373.5
	c-211.9,4.2-360.2,186.7-358.1,369.8c2.1,181.3,130.2,375.1,363.4,373.7C2368.9,2361.5,2499.9,2184.3,2501.9,1993z"/>
<path d="M3051.5,1332.4c-2.1,7.3-3.2,17.9-7.8,26.7c-31.6,60.3-63.9,120.4-96.2,180.4c-14.3,26.4-38.5,34.6-66.3,31.6
	c-29.3-3.1-52.2-17.6-60.4-47.3c-3.4-12.4-3-26.9-0.2-39.5c3.2-14.1,10.2-27.7,17.1-40.7c23.4-44.2,47.1-88.2,71.5-131.8
	c7.1-12.7,15.5-25.5,26.1-35.3c22.4-20.8,49.2-22.1,76.1-9.3C3037.1,1279.5,3050,1301,3051.5,1332.4z"/>
<path d="M3198.6,2149.6c-0.2-24.9,7.8-43.2,25.8-55.8c18.5-13,37.9-24.9,56.9-37.1c36.3-23.3,72.1-47.3,109-69.7
	c33.5-20.4,66.4-11.1,91.3,23.7c23.2,32.5,20.3,65.4-8.4,91.2c-9.3,8.3-19.2,16-29.7,22.8c-43.8,28.4-87.9,56.2-131.9,84.3
	c-23.2,14.9-47.6,22.2-73.7,8.6C3209.5,2202.8,3201.5,2176,3198.6,2149.6z"/>
<path d="M1320.9,1750.9c0.4-40.1,25.5-70.1,56.8-77.2c32.3-7.4,66.9,8.3,77.5,40.1c9.6,28.8,13.7,59.4,19.7,89.4
	c7.3,36.7,14.7,73.3,21,110.2c6.4,37.7-16.6,69.2-56.9,79.6c-39.9,10.3-74-5-82.5-43.9C1341.6,1880.5,1331.4,1810.9,1320.9,1750.9z"
	/>
<path d="M1680.6,2662.3c1.3-31.2,10.5-57.7,41.4-72.2c17.5-8.2,35.2-10.7,51.9,0.2c59.8,38.8,119.8,77.4,178.6,117.8
	c25.1,17.2,30.6,44.6,22.9,73.1c-7.9,29.1-28.9,44.5-58,50.8c-19.8,4.3-35.6-3.5-50.9-13.5c-51.3-33.4-102-67.5-153.5-100.5
	C1692.1,2704.6,1679.2,2687.9,1680.6,2662.3z"/>
<path d="M3485.5,1650.8c0.7,10.7-5.4,29.5-22,41.5c-56,40.6-112,81.4-169.8,119.3c-29.1,19.1-64.3,8.5-84.1-19.4
	c-23.3-33-22.3-72.8,5.3-95.5c24.5-20.1,51.6-36.9,77.5-55.3c26.8-19.1,54-37.7,80.1-57.6c22.8-17.4,45.9-23.7,72.4-9.2
	C3471.3,1589,3484.2,1611.3,3485.5,1650.8z"/>
<path d="M1001.6,1598.1c-0.1,2.3,0.1,4.6-0.4,6.8c-16.4,67.2-31.5,134.8-49.9,201.5c-7.7,27.9-35.8,39.3-69.8,35.1
	c-30.1-3.7-55-25-58.8-53.1c-1.8-13.1-0.7-27.4,2.4-40.3c11.7-48.5,24.7-96.7,37.3-145c2.6-9.9,5-19.8,8.5-29.4
	c13.4-36.3,39.1-52,73.4-45.1C980.3,1535.7,1001.9,1561.9,1001.6,1598.1z"/>
<path d="M1305,1461.2c-37.7-4.3-66.6-25.2-79-59.8c-11.8-32.6-4.1-66.7,24.9-88.7c49.7-37.7,100.3-74.5,152.4-108.8
	c37.4-24.6,76.7-14.5,105.1,21.8c27.4,34.9,25.7,76.6-4.6,108.2c-3.9,4.1-8.2,8-12.8,11.2c-45.4,32.2-90.4,65-136.7,95.7
	C1339.8,1450.4,1321.6,1454.6,1305,1461.2z M1295.7,1416.4c14.7-5.8,26.3-8.3,35.5-14.3c46.5-30.6,92.7-61.5,138.3-93.5
	c18.9-13.3,21.2-30.8,10-50.8c-15.1-26.9-38.1-31.9-65.8-12.4c-41.8,29.4-82.9,59.8-123.9,90.2c-7.2,5.3-13.6,12.2-19,19.3
	c-9.2,12.3-8.5,26.4,0.1,38.1C1277.5,1402.2,1287.6,1409,1295.7,1416.4z"/>
<path d="M2525.8,1022.8c-41.4,2.7-68.9-7.2-86.5-36.9c-18.7-31.7-14.3-63.2,3.5-93.6c9.8-16.6,25.6-25.1,44.4-28.5
	c60.2-10.9,120.3-22.9,180.7-32.6c43-6.9,81,23.3,90.3,68.8c8.6,41.7-13.9,80.6-56.7,91.2c-38.4,9.5-77.8,15.1-116.9,22
	C2562.4,1017.2,2540,1020.5,2525.8,1022.8z M2522.2,980.2c46.4-8.2,104.6-17.4,162.3-29.2c27.3-5.6,34.8-20.8,29.9-48
	c-4.3-23.9-16.6-33-44.6-28.9c-38.1,5.6-75.9,13.2-113.8,20.1c-18.9,3.4-38.1,6.1-56.7,11.1c-24.6,6.7-31.5,20.4-26.3,46.7
	C2477.8,976.3,2484.5,981.4,2522.2,980.2z"/>
<path d="M1502.4,889.1c7,2.6,23.1,5.7,36.2,13.7c47.6,28.8,94.8,58.2,140.9,89.2c45.4,30.4,52.5,81.6,19.2,124.1
	c-27.2,34.7-64.2,42.9-102.5,20.7c-25.5-14.8-49.4-32.3-74-48.5c-27.5-18-56.1-34.7-82.4-54.3c-29.3-21.7-36.3-50.9-24-84.7
	C1429.4,911.6,1459.3,888.5,1502.4,889.1z M1678.5,1055.7c-3.9-5.4-8.9-17.9-18.2-24.1c-48.1-32.3-96.9-63.7-146.3-94.1
	c-18.3-11.3-34.9-6.4-48.4,9.7c-19,22.6-17.6,43,8,60.4c46,31.4,93.6,60.3,140,91.2C1640.7,1116.9,1676.5,1091.8,1678.5,1055.7z"/>
<path d="M2884.2,2211.2c15.1,7,32.7,11,45,21.4c47.7,40.3,95.1,81,139.7,124.6c33.7,32.8,30.5,79.5-2.4,112.3
	c-33,32.8-82.1,34-113.5,5.2c-35.9-33-74.2-63.5-111.3-95.2c-9.5-8.1-19.2-16.2-27.3-25.6c-22.3-25.7-26.1-54.8-11.9-85.6
	C2818.2,2234.4,2849.6,2213.8,2884.2,2211.2z M2887,2256c-23.7,2.9-37,14.2-45.6,31.4c-9.5,19.3,2.4,33.9,14.4,45
	c41.6,38.3,84.2,75.7,127.4,112.2c19.4,16.4,39.5,12.7,56.4-7c17.8-20.7,18.1-37.6-2.2-56c-42.8-38.8-86.4-76.7-130-114.4
	C2900.9,2261.5,2892.1,2258.7,2887,2256z"/>
<path d="M1802.8,1377c-40.6-2.1-64.9-15.6-78.9-45.6c-13.9-29.9-16.8-59,5.5-86.4c8.6-10.6,17.4-21.1,27.1-30.6
	c31.7-31,63.9-61.4,95.8-92.2c20.6-19.9,43.5-32.6,73.5-27.3c33.3,5.9,55.6,24.8,67.2,56c10.9,29.5,5.2,56.3-17.1,78.5
	c-41.9,41.7-84,83.2-126.6,124.2C1834.4,1368.2,1816.9,1378.7,1802.8,1377z M1799.9,1335.2c4.1-2,13.6-4.1,19.7-10
	c42.6-40.7,84.7-81.9,126.4-123.4c13.2-13.1,11.9-28.4,2.2-43.5c-18-28.1-41.8-30.7-67.6-5.9c-35.9,34.5-71.2,69.7-106.6,104.8
	c-4.8,4.8-9.3,10-13.3,15.4c-9.2,12.5-8.3,25.4,0.2,37.9C1769.3,1322.7,1777.8,1335,1799.9,1335.2z"/>
<path d="M2474.2,2562.8c37.6-1.7,58.2,21.9,75,50.2c26.1,43.8,51.6,87.9,76.9,132.2c5.6,9.8,10.2,20.3,13.8,31
	c12.3,36.6-6.5,75.3-45.5,94.9c-36.8,18.4-80.2,11-99.9-21.1c-33.2-54-65.1-109-94.5-165.1c-19.8-37.8-11.7-74,16-99.6
	C2432.4,2569.9,2451.5,2561,2474.2,2562.8z M2553.5,2837.7c36.9,0.6,58.3-28.6,42.6-58.9c-27.1-52.3-56.1-103.7-85.6-154.7
	c-14.3-24.6-34.2-28.7-57.7-15.3c-23,13.1-28.6,31.5-15.1,57.4c15.1,29.2,31.9,57.5,47.9,86.2c11.6,20.8,22.6,41.9,34.8,62.3
	C2528.2,2827.5,2538.2,2838.5,2553.5,2837.7z"/>
<path d="M2835.1,1714.4c29.8,1.2,57,12.9,70.8,44.9c23.8,55.2,48.2,110.4,69.5,166.6c24.7,65.2-23.1,121.9-92.7,112.2
	c-25.2-3.5-44.9-15.1-55.1-39.8c-24.3-58.8-50.4-116.8-72.8-176.3C2734.4,1767.9,2773.2,1715.6,2835.1,1714.4z M2897.9,1999
	c34.1-0.4,53.9-30.5,41.5-57.5c-19.9-43.3-37.5-87.7-55.9-131.7c-4.8-11.5-8.2-23.7-14.1-34.6c-11.7-21.6-28.3-26.2-52-16
	c-21.9,9.4-31.7,24.7-23.4,45.9c22.7,58.2,47.3,115.6,71.7,173C2871.4,1991.6,2882.5,1999.2,2897.9,1999z"/>
<path d="M1128.7,2191.9c-6.8,16.8-11.5,34.5-20.6,49.6c-27.8,46.7-57.1,92.6-86.2,138.6c-27.3,43.3-71.8,53.7-114.3,27.2
	c-39.9-24.9-50.6-70.5-25-112.5c29.5-48.4,60.3-96,90.1-144.2c39.2-63.4,112.5-44,140,2C1119.5,2164,1122.9,2177.2,1128.7,2191.9z
	 M912.7,2332.4c-2.1,22,6.8,34.3,21.7,42.7c15.1,8.6,31.1,6.7,43.3-6.4c8.4-9,15.2-19.7,21.7-30.3c19.8-31.7,39.3-63.6,58.8-95.5
	c7.1-11.6,14.4-23.1,20.6-35.2c8.3-16.3,4.1-30.5-9.2-42.7c-21.3-19.4-45.1-16.2-62.5,10.7c-28.3,43.7-55.7,88.1-83,132.5
	C918.7,2316.7,915.4,2326.5,912.7,2332.4z"/>
<path d="M1615.5,2427.7c2.7,56.3-56.4,109.1-115.5,76.5c-37.6-20.7-79-34.6-118.6-51.7c-11.5-5-23-10-33.9-15.9
	c-44.2-24.1-56.7-64.8-34.1-109.6c18.9-37.4,53.7-53.3,93.7-41.3c15.1,4.5,29.5,11.8,44,18.2c31.1,13.8,62.4,27.4,93.1,41.9
	c15.3,7.2,30.6,15.1,44.2,25C1608.2,2384.9,1617.6,2405.1,1615.5,2427.7z M1390,2324.4c-20-0.7-34.5,10.3-40.3,28.5
	c-6.8,21.1-2.2,37.4,16.4,46c50.4,23.2,101.3,45.1,152.1,67.4c4.1,1.8,8.7,2.6,13.2,3.1c20.4,2.6,35.4-7,41.7-26.4
	c6.7-20.8,1.4-37.2-20.8-47.8c-50.1-23.8-101.1-45.5-151.9-67.9C1396.3,2325.6,1391.8,2324.9,1390,2324.4z"/>
<path d="M2638.4,1431.4c-1.3,36.1-19.5,62.2-50.6,78.7c-29.9,15.8-57.3,6.6-81.9-13.4c-44-35.8-88-71.7-131.4-108.1
	c-27.4-22.9-34.9-52.5-23.4-85.9c11.6-33.7,35.8-55.7,70.7-61.5c13.1-2.2,31.2,1.9,41.5,10c53.2,42.2,105.1,86.2,156.5,130.7
	C2633.8,1394.1,2640.3,1411.7,2638.4,1431.4z M2425.2,1280.4c-11.8,10.3-25.2,18.7-34.3,30.5c-10.4,13.5-4,28.1,5.7,40.5
	c1.4,1.8,2.7,3.7,4.4,5.2c44.3,37.2,88.5,74.5,133.2,111.3c9.8,8.1,21.2,12.5,34.7,6c28.5-13.7,37-49.3,13.8-70.1
	c-42.2-37.8-86.3-73.6-130.1-109.7C2446,1288.6,2437,1286.1,2425.2,1280.4z"/>
</svg>
