<?xml version="1.0" encoding="utf-8"?>
<!-- Generator: Adobe Illustrator 24.3.0, SVG Export Plug-In . SVG Version: 6.00 Build 0)  -->
<svg version="1.1" id="Layer_1" xmlns="http://www.w3.org/2000/svg" xmlns:xlink="http://www.w3.org/1999/xlink" x="0px" y="0px"
	 viewBox="0 0 4000 4000" style="enable-background:new 0 0 4000 4000;" xml:space="preserve">
<path d="M1731.8,1559.1c8.7-19.5,16.3-38.7,25.7-57c87.4-170.7,327.7-171.5,423.4-26.9c10.1,15.2,17.6,33.2,38.8,43.7
	c86.1-95.4,191.5-124.3,316.5-82.2c5.1-10.7,9.9-20.1,14-29.9c105.3-249.7,210.5-499.4,315.6-749.1c25.2-59.9,50-120.1,75.1-180
	c18.8-44.8,45.4-82.7,90.5-105.1c106.1-52.8,274.3-5.4,297.5,162.1c4.9,35.2-5.1,68.7-19.3,100.5c-26.1,58.5-53.7,116.3-80.1,174.7
	c-79.3,175.1-158.5,350.2-237.3,525.5c-37.6,83.6-74.3,167.6-111.3,251.4c-3.2,7.2-6.9,14.5-8,22.1c-0.7,4.8,1.7,11.9,5.3,15.1
	c17.6,16.2,37.7,18.5,56.4,4.4c70-52.8,194.8-61.5,287.5,9.8c57.4,44.1,85.8,103.8,94.8,174.2c0.9,6.8,1,13.8,1.8,20.6
	c0.2,1.8,1.5,3.6,3.6,8.3c9.3,2.3,20.7,4.6,31.8,7.9c46.2,13.5,92.7,26.1,138.4,41.3c51.6,17.2,73.1,55.7,73.1,109.1
	c0.1,256.2-46.6,502-163.7,731.7c-110.5,216.7-268.7,390.3-477.7,516.2c-18.4,11.1-25.3,21.3-23.2,44c5.3,57.9,5.4,116.2,9.2,174.2
	c2.6,39.8-16.1,65.3-51.4,76.6c-55.2,17.7-110.9,35.2-167.6,46.7c-234.2,47.7-471.2,57.6-709.3,47.2c-144-6.3-287-21.3-427.8-52.9
	c-45.9-10.3-90.6-26.5-135.4-41.6c-40.9-13.9-62.6-42-60.4-87.2c2.7-55.1,2.7-110.4,6.3-165.4c1.4-21.5-4.3-33.8-23.1-45.1
	c-150.8-90.5-277.9-207.2-379-351.2c-113.9-162.2-185.8-342.1-223.6-536.2c-23.1-118.5-31.1-238.1-31.8-358.8
	c-0.3-59.3,26.4-94.4,78.9-114.6c48.9-18.8,99.4-32.5,151.4-38.4c24.4-2.8,37.2-10.7,46.3-35.4c37.1-101.1,144.9-164.2,252.1-150.5
	c37,4.7,73.8,13.5,111.5,7.2c11.3-1.9,23.3-4,33-9.5c28.4-15.8,55.7-33.5,83.6-50.2c33.6-20.2,70.4-30.6,109.1-34.1
	C1625.1,1567.5,1677.1,1563.6,1731.8,1559.1z M3491.1,2066.3c-28.7,7.9-51.1,15.1-73.9,20.3c-73.4,16.8-148.3,21-223.2,22.8
	c-187.3,4.5-374.6,7.7-561.9,11.1c-492.1,9-984-0.4-1476-12c-69-1.6-138-4.7-206.7-11c-47.8-4.4-95-15.5-142.5-23.8
	c-6.4-1.1-12.6-3-23.5-5.6c2.7,35.5,4.6,67.7,7.6,99.8c14.2,154,44,304,106.9,446.5c44.8,101.5,97,198.4,167,284.8
	c111.9,138.2,244.5,251,405.1,329.4c156.1,76.3,321.4,116.8,494.3,129.6c158,11.7,315.3,7.5,471.8-17.2
	c183.7-28.9,354.6-92.8,508.3-197.6c192.1-130.9,333.2-305.5,426.5-518.4c62.3-142.1,97.1-291.2,111.7-445.3
	C3486.2,2143.9,3488.1,2107.7,3491.1,2066.3z M2828.2,3304.8c-68.3,25.1-130.6,51.8-195.2,70.8c-64.1,18.8-129.9,32.9-195.9,43.5
	c-67,10.8-134.9,17.7-202.7,21.2c-67.8,3.5-136.2,3.5-204-0.1c-67.8-3.6-135.7-10.3-202.7-21.4c-65.9-10.9-131.6-25.7-195.6-44.6
	c-64.5-19.1-126.9-45.4-190.2-68.5c-1.2,1.5-3.4,3-3.4,4.5c-0.9,48.3-1.5,96.5-2.3,144.8c-0.2,13.5,8.3,19,19.3,22.4
	c25.4,7.9,50.6,16.5,76.2,23.3c114.8,30.4,232.5,43,350.4,52.4c128.8,10.3,257.8,14.4,387.1,8c129.1-6.4,257.7-17.3,384.5-43.1
	c52-10.6,103.4-24.4,154.6-38.7c26.1-7.3,25.7-9.5,24.4-35.7c-1.5-29.5-3.2-59.1-4.3-88.6C2827.7,3339.6,2828.2,3324,2828.2,3304.8z
	 M1650,1642.5c-50.1,0.2-97.5,13.2-144.3,28.4c-30.7,10-55.4,28.4-76.4,53.1c-16,18.8-18.5,35.9-7.4,58.8
	c22.6,46.5,36.7,95.4,29.3,148.3c-2,14.2,5.2,23.7,16.5,32c41.1,30.4,87,48.3,136.6,60.1c102.1,24.4,228.2-75.5,219.8-195.7
	c-0.6-8.4-3.1-18.2-8.3-24.5c-33.9-41.7-58.9-88.3-79.3-137.6c-4.7-11.4-12.8-16.5-24.9-17.3C1691,1646.6,1670.5,1644.4,1650,1642.5
	z M3066.9,1999.9c33.3,0,62.6-8.2,95.5-27c60.9-34.7,93.7-112.7,76-180.5c-25.3-96.7-121.7-150.1-219.2-121.4
	c-88.7,26.1-131.9,100.3-123.6,175.7C2906.8,1949.7,2995,2000.3,3066.9,1999.9z M2147,1615.3c-0.6-81.8-52-148.6-129.2-165.4
	c-92.6-20.1-188.1,29.7-211.3,131.8c-20.1,88.2,42.8,181.9,135,200.6c20.3,4.1,41.6,7.2,60.7-3.4c30.9-17.1,62-34.4,91-54.5
	C2130.7,1698.5,2147.7,1660.8,2147,1615.3z M2537.2,2043.7c0,0.1,0,0.1,0,0.2c31.6,0,63.1-0.1,94.7,0c16.6,0.1,30.2-4.5,41.4-18.2
	c79-95.9,33.3-247.1-86.8-278.9c-63.6-16.9-141,5.4-179.9,54.4c-51.6,65-52.8,155.3-3.8,222.9c9.5,13.2,20.3,20,36.8,19.7
	C2472.1,2043.1,2504.7,2043.7,2537.2,2043.7z M1274.9,2032c0,0.4,0,0.8,0,1.2c11.8,0,24,1.7,35.4-0.5c9.9-1.9,22.1-5.8,27.7-13.1
	c32.3-42.2,49.6-89.2,40.2-143.5c-12.3-71.2-60.5-123.8-128.1-139c-70.2-15.8-140,9-178.3,63.4c-44.5,63.1-46.3,127.1-7.4,190.8
	c14.2,23.3,32.6,34.7,60,35.2C1174.5,2027.5,1224.7,2030.1,1274.9,2032z M3190.7,447.7c4.1,12.6,5.6,20.2,8.9,26.8
	c17.4,33.8,16.5,68.3,4.1,103.2c-5.2,14.8-10.6,29.7-17.1,44.1c-51.3,114.1-103,227.9-154.2,342c-46.8,104.2-93.6,208.4-139.7,313
	c-40.9,92.8-80.9,186-120.9,279.2c-5.2,12-7.9,25-12,38.1c30,5.3,31.1,4.9,40.4-16.2c5.9-13.5,11.1-27.4,17.2-40.8
	c108.7-239.4,217.5-478.8,326.1-718.2c35-77.1,71-153.8,104-231.7C3268.7,537.5,3245.1,479.6,3190.7,447.7z M2320.4,2043.7
	c-3.3-11.6-6.2-21.7-9.2-31.8c-3.8-13.2-8.8-26.2-11.4-39.6c-8.6-44.1-6.3-88.1,5.1-131.5c3.5-13.1,5.9-25.9-8.2-33.9
	c-26.4-15-52.6-30.4-80.1-43.2c-15.3-7.1-33.1-7-48.6,1.8c-54.8,31.2-108.5,64.1-152,110.5c-8.6,9.2-13.8,23.9-15.6,36.7
	c-5.3,37.3,4,71.8,23.1,104.4c11.1,18.9,24.2,28.2,47,28.1c77.7-0.3,155.4,1.1,233.1,1.7C2308.3,2047,2312.9,2045.2,2320.4,2043.7z
	 M2673.2,1592.3c18.5-2.8,25.1-14.2,30.4-25.8c21.9-47.4,43.7-94.7,64.2-142.7c3.3-7.7,2.6-19.6-0.9-27.5
	c-17.7-39.5-36.9-78.3-55.9-117.2c-3.7-7.5-8.7-14.3-13.3-21.7c-3.7,3-5.9,3.8-6.5,5.3c-27.7,69.4-55,139-82.9,208.4
	c-4.8,12-0.3,19.8,6.3,29.4c16.7,24.2,31.8,49.4,47.5,74.2C2665.7,1580.5,2669.2,1586.1,2673.2,1592.3z M2890.5,1139.3
	c6-7.2,9.1-9.8,10.6-13c20.1-42.7,40.5-85.3,59.4-128.6c3.4-7.9,2.8-19.9-0.7-27.9c-19.1-44.2-39.5-87.9-59.7-131.6
	c-3.9-8.4-9.3-16.1-16.4-28.2c-6.4,12.6-10.7,20.2-14.1,28.1c-15.7,36.1-30.5,72.6-47,108.3c-8.5,18.6-8.1,35,1.1,53.4
	c17.7,35.1,33.4,71.3,50.1,106.9C2878.3,1116.3,2883.5,1125.7,2890.5,1139.3z M3085.2,703.3c3.1,0.2,6.1,0.3,9.2,0.5
	c17.8-49.9,43.9-96,59.3-147c12.4-41.2-3.2-73.5-31.4-101.2c-23.2-22.8-53.4-22.8-76.4,0.6c-12.8,13.1-21.9,30-31.8,45.7
	c-9.6,15.2-9.6,31.2-2.1,47.8c17.4,38.5,33.9,77.5,51.6,115.9C3069.6,678.7,3078,690.7,3085.2,703.3z M2975.4,589.9
	c-21.9,53.7-41.5,100.6-59.8,148c-2.8,7.2-1.1,17.9,2.2,25.4c20,44.9,41,89.3,62,133.8c3.1,6.6,8,12.4,13.1,20.2
	c4.2-5.2,7.3-7.7,8.8-11c17.9-40.4,36.4-80.7,52.8-121.7c3.5-8.7,1.9-21.6-1.9-30.6c-19.5-46.2-40.4-91.8-61.1-137.5
	C2988.5,609.5,2983.6,603.2,2975.4,589.9z M2797,1344.2c4.1-2.6,6.5-3.2,7.1-4.5c19.5-43,39.4-85.8,57.5-129.4
	c3.2-7.6,0.6-19.4-3.1-27.6c-17.3-38.6-35.7-76.7-54.1-114.8c-4.9-10.1-11.1-19.5-18.3-32c-4.6,7.2-7.2,10.1-8.5,13.5
	c-16,40.2-31.4,80.7-48,120.7c-5.9,14.3-3.4,26.7,2.5,39.7c16.7,36.7,33.1,73.6,50.1,110.2C2786.3,1328.5,2792,1336.2,2797,1344.2z
	 M2537.9,1665.2c14.6-1.5,28.2-2.5,41.7-4.4c17.4-2.5,22-8,21-25.1c-0.4-6.8-1.9-13.7-4-20.2c-43.2-134.1-190.6-157.2-281.2-84.4
	c-4.7,3.8-7.3,10.3-10.7,15.3c38.2,33.2,38.2,33.2,81.3,17.5c55-20.1,108.3-0.4,134.9,51.4
	C2528.4,1629.8,2531.6,1646.4,2537.9,1665.2z M1947.6,2044c-0.5-4.4-0.1-7.6-1.2-10.1c-22.7-50.6-22.1-103.1-13.4-156.4
	c1.1-6.5,0.1-13.3,0.1-21c-12.2-1.9-22.5-3.6-30.5-4.8c-13.9,36-23.6,70.4-40.1,101.1c-16.8,31.3-40.2,59-62.7,91.2
	C1850,2044,1897.6,2044,1947.6,2044z M965.2,1921.5c-58.7,0-155,32.4-174.3,56.9c1.7,2.1,3.1,5.8,5.3,6.4
	c41.4,12.2,82.8,24.3,124.4,35.6c11.1,3,19.4-3.1,22.4-14C950.6,1979.1,957.4,1951.7,965.2,1921.5z M2216.6,1683.5
	c45.8,10.2,83,33,117.7,60.7c5.2,4.1,13.2,4.7,20.5,7c9.3-61.7-62.7-142.2-129.9-147.2C2222.2,1629.8,2219.5,1655.7,2216.6,1683.5z
	 M2658.6,1692.3c15.5,12.1,28.1,19.8,38,30.1c12.4,13,24.6,16,42.1,11.4c24.9-6.5,50.3-6.6,75,4.3c19.8,8.7,21.3,7.8,31.8-11.5
	c4.5-8.2,7.9-17,13.2-28.6C2792.2,1670.5,2729.3,1664.2,2658.6,1692.3z M2848.1,1949.7c-17,9.4-30.8,18.9-46,25.1
	c-28.9,11.8-35.6,35.7-39.8,66.7c34.1-2,66.1-3.5,98.1-6c7.5-0.6,15.3-3.7,22-7.5c13.5-7.5,15.9-16.9,6.8-28.9
	C2876.8,1982.8,2863.1,1967.6,2848.1,1949.7z M3352.7,1932.4c11,28.6,21,54.6,30.8,80.1c51.7-3.9,91.3-20.2,101.3-41
	C3462.1,1953.7,3388.8,1931.4,3352.7,1932.4z M3220.5,2025.2c17.9,6.7,55.4,2.8,83.7-9.2c-4.3-19.9-12-37.9-28.2-53.4
	C3256.6,1984.3,3238.5,2004.8,3220.5,2025.2z M2426.1,1627.8c-2.6,1.1-9.4,1.9-10.8,5.2c-2.8,6.4-5.3,15.2-3.2,21.2
	c4.2,11.5,7.1,26.9,22.5,28c7.5,0.5,15.8-5.6,23.2-9.5c1.9-1,2.6-5.2,2.9-8C2462.4,1649.9,2443.1,1628.2,2426.1,1627.8z
	 M2793.8,1893.3c22.9-20.2,16.7-42.6,13.5-62.8c-2.3-14.9-15-21.8-34.1-20.8C2775.9,1838.4,2783.9,1864.4,2793.8,1893.3z"/>
<path d="M901.8,2320.5c5.4-20.7,8.6-42.4,16.7-62c10.7-25.9,32-38.7,61.1-37.3c28.6,1.4,49.3,15.2,59.3,41.1
	c6.6,17.1,10.1,36.1,11.5,54.6c8.2,105.6,38.6,204.5,85.9,298.8c8.4,16.7,16.7,33.5,22.9,51.1c11.1,31.1-1.4,67.3-27.1,83.2
	c-27,16.7-63.4,12.9-86.6-11.6c-12.7-13.4-23.8-29.1-32.4-45.4c-59.5-113.8-95.6-234.7-107.6-362.7c-0.3-2.9-0.3-5.9-0.4-8.8
	C904.1,2321.1,903,2320.8,901.8,2320.5z M952.1,2308.1c0.5,10.6,0.5,14.5,0.8,18.4c11.2,124.4,48.5,241,105,351.8
	c4.9,9.6,11.4,18.4,17.9,27.1c8.3,11.2,19.3,13.1,31.3,6.2c10.7-6.3,14.3-16.1,10.2-27.9c-2.9-8.3-6.5-16.5-10.5-24.4
	c-55.4-109.1-94.8-222.9-102.9-346c-0.6-9.7-1.9-20.3-6.4-28.6c-3.6-6.6-12.5-14.2-19.2-14.4c-7-0.2-17.1,6.4-20.6,12.9
	C952.8,2292.2,952.9,2303.8,952.1,2308.1z"/>
<path d="M2599.1,2696.6c-0.5,62.6-51,111.6-114.3,110.9c-57.8-0.7-106.3-50.5-106.1-109.1c0.2-62.9,50.2-114.1,111.7-114.2
	C2551.5,2584,2599.6,2633.8,2599.1,2696.6z"/>
<path d="M1719.7,2587.6c60.7,0.3,107.8,48.1,107.8,109.3c0,62.7-48.6,111.4-110.2,110.4c-61.6-1-110-48.7-109.6-108.1
	C1608.2,2634.4,1655.5,2587.2,1719.7,2587.6z"/>
<path d="M2105.8,2969.4c-87.6,3.7-156.3-68.9-163.1-144.3c-0.9-9.6,0.1-19.6,2-29.1c3-14.9,14.3-20.8,28.3-20.9
	c13.7-0.1,25.7,4.8,30.3,19c3.6,11.2,5.3,23,8.3,34.4c11.6,44.1,41.6,67.9,87.4,69.8c49.7,2.1,85-19.4,99.9-61.9
	c4.2-12,5.6-24.9,8.8-37.3c4.8-18.8,11.8-24.8,27.7-24.5c18.7,0.3,31.7,8.9,34.5,26c1.8,11.4,1.4,23.7-0.5,35.1
	C2256.3,2913.7,2183.1,2974.2,2105.8,2969.4z"/>
<path d="M1236.2,2854.7c0.1,32.3-18.2,52.7-46.8,52.2c-32.1-0.5-54.7-23.9-55-56.9c-0.3-29.9,20.4-53.1,47.2-53
	C1211.7,2797.1,1236.1,2822.8,1236.2,2854.7z M1198.6,2861.9c-1.1-11.4-2.2-22.6-16.4-22.1c-3.3,0.1-9.6,10.4-8.6,14.7
	C1176.7,2869.2,1186.7,2868,1198.6,2861.9z"/>
<path d="M1507.6,2960.6c-20.6-1.5-33.8-20.8-25-36.5c14.4-25.7,30.8-50.3,48-74.1c8-11.1,20.7-14.1,34.3-7
	c13.9,7.3,19.2,15,11.4,28.2c-16.4,27.9-35,54.5-53.7,80.9C1519.3,2957,1511.3,2958.6,1507.6,2960.6z"/>
<path d="M1614.9,2962.6c-22.5,1-38.4-18.6-28.9-34.9c14.3-24.5,31.4-47.5,48.6-70.1c8.3-10.8,20.8-10.5,31.9-3.1
	c11.2,7.5,16,19.3,8.9,30.7c-15.6,24.8-33,48.6-50.3,72.3C1622.6,2960.8,1616.7,2961.7,1614.9,2962.6z"/>
<path d="M2733,2873.8c-4.5,10.1-6.5,16.9-10.3,22.5c-12,18-24,36-37.3,53c-11.2,14.4-23.9,16.7-35.8,8.9
	c-12.3-8.1-15.8-20.7-6.6-36.1c12.5-21.1,26.7-41.2,40.8-61.4c7-10.2,17.7-13.9,28.3-7.2C2720.3,2858.7,2726.4,2867.2,2733,2873.8z"
	/>
<path d="M2567.9,2955.5c-22.8-0.9-36.1-21.3-26.4-37.9c13.8-23.6,29.3-46.4,46-68.1c10.3-13.5,21-12.4,35.9-1.9
	c12.8,9,11.2,19.6,4.1,30.6c-14.4,22.2-28.7,44.4-44.1,65.9C2579.3,2950,2571.4,2953.1,2567.9,2955.5z"/>
<path d="M1624.4,1713.1c15.7,1.5,31.6,1.6,46.9,4.6c43.3,8.4,70.4,36.3,75.4,79.7c6.8,58.8-16.9,119.3-93.2,146.5
	c-55.2,19.7-122.7-5.3-155.2-55.6c-39.5-61.1-17.9-162.6,84.6-172.8c13.7-1.4,27.6-0.2,41.3-0.2
	C1624.3,1714.6,1624.3,1713.8,1624.4,1713.1z M1629.3,1795.6c-0.1-0.6-0.1-1.1-0.2-1.7c-15.4,2.3-30.9,4-46.1,7.1
	c-33.3,6.8-35.1,37.9-18,58.8c16.2,19.8,37,27.5,62.7,22.6c26.9-5.1,43.8-21.1,51.6-46.4c8-26-1.7-38.6-29.4-40.5
	C1643.1,1795.2,1636.2,1795.6,1629.3,1795.6z"/>
<path d="M3171.4,1832.6c0.2,58.7-44,104.4-101.5,104.9c-55,0.5-103-46.6-103.2-101c-0.2-64.8,41.6-108.6,103.3-108.1
	C3129.3,1728.8,3171.2,1771.9,3171.4,1832.6z M3070.6,1861.5c18.3-0.3,30.7-12,30.6-28.9c-0.1-17.3-12.7-30.5-29.2-30.8
	c-18.2-0.3-30.1,11.3-30,29.2C3042,1849.4,3053.7,1861.8,3070.6,1861.5z"/>
<path d="M2078.4,1617.2c0.2,58.4-41.5,99.1-101.4,98.9c-60.6-0.2-105.8-42.3-106.6-99.5c-0.9-60.8,44-105.6,106.4-106.3
	C2035.4,1509.7,2078.1,1554.6,2078.4,1617.2z M2007.4,1613.7c-0.4-19.7-13-32.1-31.5-31c-18.8,1.2-29.8,12-30,29.6
	c-0.2,19.9,11.2,31.8,30.4,32C1996.9,1644.5,2007.8,1633.7,2007.4,1613.7z"/>
<path d="M2644.3,1917.8c-1.2,61.1-45.3,104.9-104.5,103.9c-62.3-1.1-104.6-45.2-103.5-108c1-59.4,49.4-105.9,107.9-105.1
	C2597.3,1809.3,2649.9,1860.8,2644.3,1917.8z M2568.8,1918.6c0.7-20.5-10.3-34.7-27.4-35.3c-18.7-0.6-29.1,10.7-29.6,32.5
	c-0.5,21.3,8.1,33,24.6,33.5C2554.9,1949.9,2568.2,1937.2,2568.8,1918.6z"/>
<path d="M1313.8,1904.4c-2,61-49.2,107.2-107.7,105.4c-59.2-1.7-102.5-49.6-100.9-111.7c1.5-58,47.2-101.7,105.2-100.4
	C1268.2,1799,1315.7,1848,1313.8,1904.4z M1236.2,1904.7c0.5-18.8-10.4-31.1-27.3-31c-17.3,0.1-29.3,12.4-29.3,29.8
	c0,16.2,11.4,29,26.2,29.4C1223.7,1933.5,1235.7,1922.3,1236.2,1904.7z"/>
<path d="M2069.3,1931c0.6-62.7,42.9-103.9,106.8-104.1c58.5-0.2,100.7,45.8,100.8,107.7c0,49.6-34.7,103.6-105.8,101.7
	C2109.1,2034.7,2068.7,1994.2,2069.3,1931z M2205.9,1932.7c0.5-18.7-11.9-33-29.2-33.8c-19.6-0.9-35.7,14.4-36,34.1
	c-0.3,19.7,11.5,33.8,28.5,34.1C2188.4,1967.4,2205.5,1951.5,2205.9,1932.7z"/>
</svg>
