<?xml version="1.0" encoding="utf-8"?>
<!-- Generator: Adobe Illustrator 24.3.0, SVG Export Plug-In . SVG Version: 6.00 Build 0)  -->
<svg version="1.1" id="Layer_1" xmlns="http://www.w3.org/2000/svg" xmlns:xlink="http://www.w3.org/1999/xlink" x="0px" y="0px"
	 viewBox="0 0 4000 4000" style="enable-background:new 0 0 4000 4000;" xml:space="preserve">
<path d="M1519.4,482.1c-20.4-16.2-42.7-17.2-64.6-18.4c-15.9-0.9-31.8,0.3-47.7,0c-12.2-0.3-19.6-7.1-21.9-19
	c-2.4-12.3-1-23.9,11.2-30.3c7.4-3.8,15.8-6.4,24-7.4c32-4.1,63.5-2.2,93.5,11.4c8.3,3.8,17.2,6.5,28.9,10.8
	c-0.6-10.9-0.5-18-1.4-25.1c-11-93.6,21.8-170.5,88.8-234.5c1.5-1.5,3.2-2.8,4.9-4.1c33.7-27.1,48-24.4,68.5,14.3
	c23.6,44.5,39.2,92,42.2,142.3c1.4,22.9-4.3,46.2-7.2,69.2c-1.5,12.4-3.9,24.6-6.4,39.8c27,6.6,51.4,13,76,18.2
	c7,1.5,14.9,0.6,22.1-0.9c39.5-8.3,49.2-30.5,26.6-63.9c-10-14.8-23-27.6-35.3-40.7c-11.8-12.4-19-25.8-13-43
	c5.7-16.4,20.3-21.5,35.3-22.9c24.2-2.2,48.7-3.6,73-3.6c192.4-0.1,368.6,52.5,525,165.7c67.4,48.7,127,105.9,173.7,175.6
	c7.8,11.6,17.8,21.7,32.2,39c4.6-19.1,9.5-30,9.3-40.7c-0.4-32.7-2.6-65.3-4.2-98c-0.2-3.1-1.2-6.2-1.7-9.4
	c-1.7-12.1-1.7-23.8,11.9-29.5c12.6-5.3,26.1,0.5,34,15.7c14.6,28.2,16.2,59,16.3,89.9c0.1,14.7-1.2,29.4-2.1,49.4
	c11.7-4.7,20-7.5,27.8-11.3c57.4-28.2,117.4-34.5,179.8-22.6c7.3,1.4,14.5,3.4,21.3,6.2c22.3,9.1,28.3,20.2,19.2,42.3
	c-32.1,77.9-78.1,143.3-161.4,173.8c-2.9,1.1-5.9,2.5-8.5,4.2c-1.7,1.1-2.7,3.1-5.5,6.4c3.8,5.3,7.6,11.1,11.9,16.6
	c44.2,56.1,82.9,115.6,108.6,182.5c9.8,25.5,23.6,37.6,51.3,43.3c146,30.2,265.5,103.6,353.2,225.7
	c110.6,153.9,169.8,326.2,182.2,514.8c3.6,55.4-2.7,110-16.9,163.8c-17.5,66.5-51.3,123.3-101.3,169.8c-22.8,21.1-36.3,43.9-42.5,75
	c-85.7,426.2-173.5,851.9-258.6,1278.2c-13.3,66.8-48,110.9-107.2,139.9c-78.7,38.5-161.5,64.1-246.9,82.1
	c-318.5,67-640.6,87.2-965.1,69.2c-180.1-10-359.6-27.7-535.9-68.5c-79.6-18.5-158.7-39.3-232.7-74.9c-28.4-13.7-55-31.7-80.8-50.1
	c-22.5-16-34-40.1-39.2-67.1c-25.1-130.1-50-260.2-75.2-390.2c-30.4-157.2-61-314.3-91.7-471.5c-27.2-139.4-54.7-278.7-82.1-418.1
	c-0.8-4.2-2.2-8.3-2.5-12.4c-3.9-45-24.4-77.9-58.3-110c-82-77.7-115.5-178.8-113.9-290.7c1.9-134.1,47.1-251.4,144.3-345.8
	c22.6-22,49.1-40.4,75.2-58.4c16-11,21.8-21.8,18.1-42c-29.5-158.7,19-291.5,139.9-396.6c89.1-77.5,195.6-121.9,309.6-148.8
	c19-4.5,32.6-10.4,37.9-32c32.9-134.7,123.7-213.6,251.1-254.9C1477.2,540.2,1469.2,546,1519.4,482.1z M1438.7,612.1
	c-111.9,22.8-201.8,105.9-223.2,212.8c-9.1,45.3-29.2,63.5-72.1,72.4c-90.1,18.6-174.1,54.5-249.8,107.2
	c-132.4,92.3-199.1,214.3-167.7,379.4c11.2,59,10.5,58.4-40,92.5c-131.3,88.6-198.3,212.4-196.6,371c0.8,73.3,18.9,143,62.7,203.6
	c95,131.6,298.1,227.4,496.7,152.6c34.7-13.1,69.3-26.7,103.7-40.5c82.9-33.3,159.7-23.3,231,30.7c25.4,19.2,51,38,77.1,56.2
	c82.3,57.4,168.8,63.7,258.5,19.1c19.8-9.9,38.4-22.5,57-34.7c22.2-14.5,43.2-30.8,65.7-44.7c73.6-45.6,149.3-50.6,226.5-9.3
	c19.6,10.5,38.4,22.5,57.1,34.6c17.8,11.5,34.7,24.4,52.6,35.7c107.6,68.3,215,63.3,316.3-14.2c23.6-18,47.1-36.2,71.6-53
	c65.9-45.4,136.6-54.9,211.6-25.4c27.6,10.9,55,22.4,82.2,34.3c136.8,59.7,270.3,54.4,399.8-20.9c122.4-71.2,184.7-177.8,182.7-320
	c-2.4-162.4-44.7-313.8-126.7-454.3c-89.8-153.9-220.6-249.2-396.9-279.8c-20.9-3.6-34.4-13.4-43-32.8c-14.5-33-30.1-65.5-45.7-98
	c-4.7-9.8-8.1-21.4-23.1-27.6c-1.2,77.1-28.4,141-82.3,192c-54.4,51.5-120.4,75.4-195,68.9c-133.7-11.6-232.4-115.7-234.8-245
	c-1.3-68.3,16.8-130.5,62.8-182.1c65.8-73.9,151-92.7,246-79.1c-9.6-69.4-134.2-199-247.7-271.1
	c-160.9-102.1-393.3-131.3-472.2-110.8c8.8,14.9,17.9,28.8,25.4,43.5c21.2,41.4,13.5,74.8-22.9,103.8c-6.3,5-12.1,10.9-20.6,18.6
	c46.4,45.4,71.1,99,77.3,161.4c6.3,62.9-8.1,120.6-45.5,171c-68.8,92.7-178.8,127.8-285.1,93.7c-53-17-98-46-131-91.1
	C1433.2,767.4,1421.6,693.9,1438.7,612.1z M2101.3,3743.9c1.3-11.1,2.3-16.3,2.5-21.4c2.4-61.4,4.6-122.9,7-184.3
	c8.1-205.5,16.3-410.9,24.3-616.4c7.4-190.7,14.4-381.3,21.6-572c0.4-11.7,0.5-23.3,0.9-35c0.5-12.7-4.4-22.2-15.5-29.1
	c-29.7-18.5-58.8-37.9-88.6-56.2c-57.8-35.6-116.5-35.8-174.4-1.3c-30.9,18.4-60.1,39.7-90.2,59.5c-11.7,7.7-16.8,17.8-15.8,32.1
	c1.6,23.3,1.6,46.6,2.5,69.9c7.8,198.1,16.8,396.1,23.3,594.2c7.9,241.6,13.7,483.2,20.7,724.8c0.3,11.1,2.4,22.1,3.8,34.5
	C1917.7,3747.7,2008.3,3747.8,2101.3,3743.9z M2501.3,3708c9.1,0,15.5,1,21.5-0.1c69.8-13.1,139.6-26.3,209.2-40.1
	c34.5-6.9,33.9-7.6,39.5-43.1c13.5-86.9,27.1-173.9,41.5-260.7c18.5-111.9,38.3-223.6,56.5-335.6c23.7-145.4,46.4-291,69.6-436.5
	c15.2-95.3,30.6-190.5,45.6-285.8c1.2-7.8,0.2-15.9,0.2-25.1c-71.6-10.4-134.9-37.3-197.7-65.8c-20.1-9.1-41.7-15.8-63.2-21.1
	c-15.2-3.8-31.4-4.9-47.1-4.5c-24.4,0.6-28.1,5.6-30.5,30.7c-12,126.7-24.6,253.3-36,380c-8.4,92.9-15.2,185.9-23.1,278.8
	c-2,23.1-5.1,46.2-8,69.2c-5.8,44.9-11.8,89.7-17.8,135.4c13.2,3.6,22.7,5.1,31.2,8.7c19.4,8.1,40.1,14.7,57.2,26.3
	c37.6,25.7,39.3,65.3,6.7,97.2c-23.9,23.4-53.9,32.5-85.7,38.1c-29,5.1-28.8,5.4-31.5,33.7c-12.5,127.7-25.3,255.3-37.6,382.9
	C2500.3,3682.1,2501.3,3693.7,2501.3,3708z M945.8,2282.8c1.4,11.6,2,19.9,3.4,28.1c7.4,42.8,15.5,85.5,22.3,128.4
	c32.4,203.1,64.9,406.1,96.5,609.3c30.1,193.7,59.2,387.6,88.6,581.5c3.8,24.8,6.8,29.7,30,34.5c71.6,14.7,143.4,28.8,215.1,42.7
	c6.8,1.3,14.2,0.2,23.5,0.2c0-7.7,0.5-13.8-0.1-19.8c-2.4-24.3-5.4-48.5-7.6-72.7c-10.2-109.8-20-219.6-30.3-329.3
	c-2.6-27.6-3.7-26.2-31-35.8c-22.7-8-46.4-16.6-65.5-30.6c-35.6-26.1-36.1-69.7-2.2-97.6c14.3-11.7,32.5-20.1,50.2-25.7
	c17.7-5.6,24.4-14.6,21.9-32.3c-1-7.3-0.9-14.8-1.6-22.2c-7.1-73.8-14.5-147.6-21.2-221.4c-12.2-133-23.8-266.1-35.9-399.1
	c-6-65.5-12.2-130.9-19-196.3c-3.4-33.5-7.6-35.9-39.8-31.8c-39.3,5-75.8,18.8-112.4,33.2c-43.3,17-87.6,31.6-131.9,46
	C983,2277.1,966.1,2278.8,945.8,2282.8z M1764,3742.4c10.6-46.7-33.5-1371.8-46.3-1414.2c-9.8,2.4-20,4.4-29.8,7.5
	c-83.1,26.2-161.8,13.8-235.4-30c-29.9-17.8-56.6-40.9-84.9-61.3c-8.9-6.4-15.3-18.7-32.8-12.6c17,178.1,34,356.8,51.6,540.9
	c16.9-9.8,28.4-16.6,40.1-23.2c71.3-40.3,164.2-28.1,216,30.7c51.4,58.4,64.6,147.1,5,225c-48.4,63.2-135.3,82.8-208.8,46.2
	c-7.8-3.9-16.1-6.7-26.7-11c0,13.9,0,22.9,0,32.6c31.6,7,61.4,13.7,91.2,20.2c24.2,5.3,46.2,15.2,64.9,31.9
	c33.8,30.1,34.9,61.3,1.2,92.1c-11.5,10.5-25.6,19.8-40.2,24.7c-21.9,7.4-45.2,10.5-67.9,15.3c-7.9,1.7-15.8,3.1-26,5.1
	c16.4,152.7,26.8,303.6,47.3,457.1C1577.4,3727.2,1670.1,3734.8,1764,3742.4z M2216,2327.9c-9.7,25.5-65.6,1387.7-58.3,1414.3
	c95.4-4,191.1-9.7,287.7-26.2c12.9-152.7,35.1-302.3,44.2-455.6c-15.1-2.5-27.5-4.6-39.8-6.6c-27.5-4.6-53.9-12.5-75.7-30.7
	c-30.2-25.2-33.5-59.3-9.1-90c15.6-19.8,35.6-33.4,60.2-39.1c20.6-4.8,41.4-8.8,62.3-12.5c26.4-4.8,28.5-9.3,15.5-35.2
	c-1.1,0-2.2-0.3-3.1,0.1c-5.8,2.4-11.7,4.9-17.4,7.5c-69.2,32.5-132.5,20.9-189-28c-90-77.8-67.4-234.1,40.8-283.7
	c64.1-29.4,125.7-23.3,183.4,17.8c6.5,4.6,13.8,8,21.4,12.4c2.4-5.3,4.6-7.9,4.9-10.8c16.9-166.7,33.7-333.4,50.2-500.1
	c0.8-8.3-0.2-16.8-0.5-25.3c0-1-0.6-2.1-1.3-2.9c-0.7-0.7-1.8-0.9-6.4-3.1c-8.4,5.7-18.9,12.2-28.7,19.6c-21.1,16-41,33.7-63,48.4
	c-74.8,49.7-155.8,64.1-242.9,39C2240.2,2333.9,2229,2331.2,2216,2327.9z M2819.3,3637.6c7.5,0.9,10.8,2.2,13.5,1.5
	c54.4-15.5,106-37.6,152-70.7c10.5-7.5,18.4-20.4,24.1-32.4c6.2-13.2,9.4-28.1,12.4-42.6c40.9-201.5,81.2-403.2,122.3-604.6
	c33.3-163,67.4-325.9,101.3-488.8c9.7-46.7,20.6-93.2,29.8-139.9c2.3-11.4,8.9-24,0.4-35.5c-3.7,0.2-6.1-0.4-7.8,0.4
	c-67.1,33.4-137,57-212.7,59.4c-15.2,0.5-18.4,10.1-20.4,23.1c-18.8,119.3-37.9,238.6-57.2,357.9
	c-41.7,258.5-83.5,516.9-125.4,775.4C2841.1,3505.5,2830.3,3570.1,2819.3,3637.6z M1105.2,3637.3c-0.9-11.3-1-20.5-2.4-29.5
	c-11.8-77.5-23.7-155-35.8-232.4c-19.5-124.6-39.1-249.2-58.7-373.8c-23.1-146.6-46-293.2-69.3-439.8
	c-13.5-84.8-27.2-169.5-41.3-254.1c-4.5-26.8-5.2-26.6-32.3-28.9c-64.2-5.4-124.5-24.5-181.9-53.4c-6.8-3.4-14.1-5.7-26.9-10.7
	c6.2,27.4,11.6,48.7,15.9,70.3c22.4,113.3,44.4,226.7,66.7,340c43.7,222.5,87.6,445,131.1,667.5c13.4,68.6,25.8,137.5,38.8,206.2
	c5.4,28.6,13.6,55.4,40.1,72.9c41.9,27.7,87.2,47.8,134.7,63.5C1089.6,3636.9,1096,3636.4,1105.2,3637.3z M2600.8,766.4
	c-64.4-14-126.3-1.6-173,33c-83.4,61.9-107.8,173.4-57.7,264.5c51,92.7,157.1,129.9,257.2,90.1c112.1-44.6,162.8-184.9,104.7-289.8
	c-13.2-23.9-19.3-27-45.9-23.4c-12.6,1.7-25.1,4.8-37.7,5.4c-35,1.5-52.9-18.1-50.1-53.4C2598.9,784.4,2599.9,776.2,2600.8,766.4z
	 M1692.4,884.5c81.4,0.2,191.7-60.7,201.6-187.3c7.7-98.9-62.5-192.6-157.1-209.2c-21.3-3.8-37.3,0.2-48.6,19.8
	c-5.8,10.1-13,19.4-20.4,28.4c-28.4,34.9-49.2,35.4-80.8,2.3c-2.2-2.3-4-5-6.3-7.2c-14.1-13.4-20.4-13.8-34.8,0.3
	c-25.4,24.7-45.4,52.9-55.4,87.7C1451.7,754.4,1551,885.2,1692.4,884.5z M1661.7,215.5c-67.9,43.4-100.5,184.9-35.2,276
	C1698.3,435.7,1716.5,297.5,1661.7,215.5z M2657.7,789.9c115.6,14.6,225.6-62.6,236.8-141.8C2805,624.7,2669.5,704.7,2657.7,789.9z
	 M2507.6,3223.4c39.1,2.3,76.1-5.4,110.9-23c13.3-6.8,25.8-16.3,24.2-34c-1.4-16.2-14.2-22.9-27.2-28.1
	c-42-16.5-85.5-24.2-130.7-21.6c-27.2,1.5-51.9,10.3-75,23.9c-12.8,7.5-29.9,16.2-25.7,32.3c3.2,12.3,16.1,24.7,28,31.6
	c14.2,8.2,31.6,11.8,48.1,15C2475.6,3222.4,2491.7,3222.2,2507.6,3223.4z M1427.5,3225.4c28.3-4.5,53.7-6.9,78.2-12.8
	c22.2-5.3,42-17.5,48.8-40.9c4.1-14-18.3-34.5-47.1-40.4c-34.1-7.1-69-13.8-103.6-14c-24.5-0.2-49.8,8.8-73.5,17.1
	c-15.7,5.5-31.9,16-30.8,36.3c1,18.5,17.1,25.3,31.7,32.1c3.8,1.8,7.8,3.5,11.9,4.4C1371.9,3213.4,1400.8,3219.6,1427.5,3225.4z
	 M1610.2,2841.9c0.5-31.6-23.8-59.2-52.9-60.1c-35.1-1.1-62.3,24.9-63.4,60.7c-0.9,30.9,22.8,54.2,56.5,55.4
	C1583.3,2899,1609.8,2874.2,1610.2,2841.9z M2434.9,2844.2c0.5-31.3-24.3-59.4-53-60.2c-34.5-0.9-60.5,22.5-60.9,54.8
	c-0.4,32.2,25.7,58.4,57.8,58.2C2408.7,2896.8,2434.4,2872.6,2434.9,2844.2z"/>
<path d="M1931.4,1664.9c2.2-178,148.1-279.6,306.3-246.3c18.4,3.9,35.9,12.5,53.2,20.3c13.1,5.9,24.1,8.4,32.9-5.9
	c7.5-12.3,17.8-18.3,32-12.5c12.5,5.1,18.7,20.4,12.5,38.3c-6.3,18-3.3,30.2,9.4,45.2c121.3,142.3,43.4,366.3-140.2,405.1
	c-117.2,24.8-232.6-29.6-282.5-133.1C1939.6,1744,1931.5,1706,1931.4,1664.9z M2278,1505c0.1-2.9,0.2-5.7,0.3-8.6
	c-11.1-11.1-25.5-11-40.4-12.1c-11.8-0.9-23.3-6.4-35-9.8c-12.8-3.7-26.2-11.7-38.3-10.2c-71.2,9.2-129,41.4-162.2,107.4
	c-57.8,114.6,3.4,276.5,161.6,292.5c130.7,13.3,257.5-104.7,213.8-262.3c-3.6-12.9-11.4-24.9-18.6-36.6c-6-9.9-14.6-13.4-27.1-9.1
	c-16.9,5.8-34.7,9.1-52,13.6c-27.5,7.2-52.5-2.9-76.7-12.9c-17.1-7.1-17.9-24.1-3.2-35.2c5.6-4.2,13.1-6.8,20.2-8.1
	C2239.5,1510.3,2258.8,1507.9,2278,1505z"/>
<path d="M1014.6,1299.1c5.7-19.9-5-34.7-19.5-50.9c-44.5-49.6-26-130.9,35.4-156.9c17.8-7.5,29.2-16.8,37.1-35.2
	c16.8-39.2,65.4-58.2,107.4-44.5c8,2.6,16.7,5.4,22.9,10.6c20.6,17.3,43.6,21.8,70.2,22.9c46.9,1.8,85.7,34.2,95.9,79.5
	c3.7,16.4,1.1,36.1-4.5,52.3c-7.1,20.6-8.4,37.4,3.6,56.9c43.9,71.2-17.1,157.7-92.6,154c-5.3-0.3-10.9,0.7-15.8-0.6
	c-25.6-6.9-46.1,1.2-68.1,15.5c-47.3,30.8-109.6,20.2-147.6-21.4C1020.2,1360.7,1013.6,1339.1,1014.6,1299.1z M1198.7,1310.5
	c9.3,3.3,16.1,5.9,23,8.1c14.9,4.8,29.8,12.8,44.9,13.5c44.6,2,68.3-34.5,49.4-74.7c-5.7-12.2-15.3-22.6-23.7-33.4
	c-9.6-12.4-12.3-24.2-0.8-37c4.9-5.5,9.3-11.6,12.9-18c12.6-22.2,10-39.5-7.4-57.6c-14.8-15.5-32.6-19.5-52.3-13.6
	c-22.8,6.8-41.2,3.3-55.6-17.2c-4.7-6.7-11.8-12.4-18.9-16.8c-20-12.4-46.6-4.4-56.5,17c-3.5,7.6-5.8,16.1-7,24.4
	c-2.5,17.2-11.9,26.3-28.8,28.8c-5.2,0.8-10.1,3.1-15.2,4.4c-18.7,4.7-33.6,13.8-37.1,34.4c-3.5,20,5,37.6,21.1,46.4
	c31.5,17.1,35.5,38.5,23.6,70.4c-5.3,14.1-3.9,35.2,3.2,48.4c21,39,77.3,39.6,103.3,3.5C1184,1331.3,1191.1,1321.1,1198.7,1310.5z"
	/>
<path d="M1399.8,1858.7c-24.9-8-50.1-15.1-74.5-24.2c-13.1-4.9-19.2-16.2-15.8-30.9c3.1-13.4,10.9-20.6,25.1-17.6
	c8.2,1.7,16.4,4.5,24.2,7.6c48.7,19.3,91.3,7.1,129.7-25.5c8-6.8,14.9-15.1,22.7-22.1c9.8-8.8,20.9-10.8,31.5-1.8
	c10,8.5,12.5,19.6,6.2,31.5c-3.4,6.5-7.6,12.9-12.6,18.2C1499.6,1832.5,1455.3,1854.4,1399.8,1858.7z"/>
<path d="M2227.5,511.5c-1.3,71.2-46,130.8-114,151.5c-10,3.1-20.6,4.8-31.1,5.9c-13,1.4-26.2,1.3-30.6-15.1
	c-3.5-13.2,3.3-24.1,20.2-31.2c7.8-3.3,16-5.4,24.2-7.8c46.3-13.6,72.8-45,82.1-91.7c1.9-9.3,2.6-18.9,4.5-28.2
	c2.5-12.4,8.1-22.5,22.6-22c16.2,0.5,20.8,12.2,22,26C2227.8,503,2227.5,507.3,2227.5,511.5z"/>
<path d="M3126.9,1629.3c-65.8-2-117.6-21.2-151.9-73.7c-8.4-12.9-13.5-28.5-17.2-43.5c-3.1-12.2,2.9-24.9,15.9-26.7
	c6.8-0.9,15.6,7.2,22.2,12.8c4.6,3.9,7,10.4,10,16c24,44.9,63,63.2,112.2,63.4c11.6,0,23.2-0.5,34.8-0.5c14.8,0,24.7,7.6,26.4,22
	c1.6,13.8-8.8,21.1-20.5,24.3C3146.6,1626.6,3134,1628,3126.9,1629.3z"/>
<path d="M1964.1,3118.1c-68.8,0.4-127-50.6-135.5-118.7c-2.2-17.7,3.7-27.4,18.9-31.4c10.6-2.8,19.1-0.7,23.2,10.4
	c4,10.9,6.9,22.2,11.2,33c14.3,35.7,47.5,57.3,84.4,55.5c39.1-1.9,66.3-24,77.7-63.2c2.1-7.1,1.9-15.3,5.5-21.4
	c4.4-7.4,10.8-16.9,18-18.6c12.5-3,22.8,5.4,25.9,18c2.2,8.9,2.5,19,0.9,28C2082.4,3074.4,2030.2,3117.7,1964.1,3118.1z"/>
<path d="M2563.7,3191.5c4.8-14.9,6.9-27.4,13-37.6c3.3-5.5,14.5-11,20.2-9.4c11.3,3,10.9,14,7,23.7
	C2598,3182.9,2588.6,3193.1,2563.7,3191.5z"/>
<path d="M2456.1,3145.6c12.3,19.5,1.4,30.2-10.1,39.4c-3.8,3.1-12.8,4.2-16.5,1.8c-3.9-2.5-6.7-10.9-5.6-15.9
	C2427.2,3154.9,2438.3,3146.8,2456.1,3145.6z"/>
<path d="M2535.4,3141.4c-8.4,21.8-12.9,41-36.5,45.7C2490.7,3157.2,2497.8,3147.5,2535.4,3141.4z"/>
<path d="M1386.8,3145.9c-9.9,13.4-15.9,24.9-25.1,32.7c-4.2,3.6-17.6,2.8-21.4-1.2c-3.8-4-3.8-16.9-0.1-21.5
	C1350.4,3143.2,1364.4,3136.7,1386.8,3145.9z"/>
<path d="M1479.9,3190.4c5.5-14,8.3-25.4,14.4-34.6c2.9-4.3,12.5-5.9,18.7-5.3c2.3,0.2,6.3,11.2,4.9,15.8
	C1513.4,3181.1,1505.1,3192.9,1479.9,3190.4z"/>
<path d="M1455.7,3147.4c-12.2,15.3-17,35.7-39,41.1C1407.2,3159.4,1423.2,3142.3,1455.7,3147.4z"/>
<path d="M1260.3,1216c0,40.8-17.3,60.4-57.9,65.1c-15.8,1.8-31.5,4.2-47.3,5.5c-23.6,2-32.7-5.2-39.5-27.1
	c-4-12.9-9.5-25.4-15.1-37.7c-9.8-21.4-6.7-35.4,11.6-50.2c8.1-6.5,18.3-12.4,23-21c9.3-17.2,23.2-19.5,40.1-18.6
	C1226.2,1134.8,1260.2,1168.1,1260.3,1216z M1189.1,1190c-21-0.3-35.3,10.8-34.6,23.3c0.7,12,7.8,19.6,19.8,21
	c12.9,1.4,31.1-15.8,27.9-28.2C1200.3,1198.9,1191.9,1193.3,1189.1,1190z"/>
</svg>
