<?xml version="1.0" encoding="utf-8"?>
<!-- Generator: Adobe Illustrator 24.3.0, SVG Export Plug-In . SVG Version: 6.00 Build 0)  -->
<svg version="1.1" id="Layer_1" xmlns="http://www.w3.org/2000/svg" xmlns:xlink="http://www.w3.org/1999/xlink" x="0px" y="0px"
	 viewBox="0 0 4000 4000" style="enable-background:new 0 0 4000 4000;" xml:space="preserve">
<path d="M1365.2,2120c3.7-12.1,7.2-22.2,9.7-32.5c42.1-168.4,93.2-333.5,170.4-489.7c123.6-249.9,285.2-472.8,479.1-672.4
	c137.2-141.3,288-266.6,451.8-376.1c14.2-9.5,22.8-18.8,19.3-37.3c-5.1-27,8.6-45.8,29.3-61.6c45.5-34.8,98-53.4,153.1-65
	c205.4-43.5,396.4-6.1,573.5,104.9c143.4,89.9,245.9,216.7,323.9,364.7c41.5,78.6,76.9,160.1,102.9,245.3c2.9,9.4,5.4,19,7.3,28.7
	c6.3,31.7-0.5,45.4-32.3,53.2c-31.8,7.9-64.5,13.1-97.1,16.7c-184.5,20.6-365.5,7.6-541.6-55.5c-119.5-42.9-224.9-108-315.9-196.5
	c-9-8.7-19.3-16.1-34.8-29c-25.8,136.5-35.2,266.8-34,398.3c2.6,303.4,82.5,603.6,175.8,814.5c11.5-5,23.5-9.2,34.7-15.1
	c77.3-40.9,159-68.8,246.2-77.7c140.4-14.3,267,22.6,379.9,107c94,70.2,159.1,163,204.2,269.6c84.7,200.4,102.3,407.5,48.6,618.4
	c-59.2,233-201.7,397.8-421.4,495c-137,60.7-281.3,91.5-431,94c-157.5,2.7-307.3-27.9-443.7-111.3c-111-67.8-198.5-158-262.2-271.4
	c-4.3-7.6-8.6-15.3-13.1-22.8c-1.1-1.8-3.2-2.8-8.3-7.2c-6.7,9.1-14.1,17.6-19.9,27.1c-62.6,104.1-143.2,191.2-245.4,257.2
	c-105.2,68-221.4,104.3-345.5,117.3c-154,16.1-304.6-2.2-451.6-47.6c-184.2-56.9-335.5-160.2-438-327.3
	c-64.8-105.6-100.3-221.3-113.6-343.9c-16.3-150.9,1.5-297.6,57.9-439.1c34.9-87.6,83.8-167.1,150.7-233.4
	c128.2-126.9,283.7-174.1,461-145.8c48.3,7.7,95.2,24.5,142.8,37.3C1346.1,2113.4,1354.1,2116.4,1365.2,2120z M2569.3,2270.6
	c-51.4-7.5-148.3,17.7-189.1,39.5c-151.9,81.3-229.1,212.8-250,379.1c-20.4,161.9,7.9,316.9,81.2,462.8
	c57.7,114.8,138.7,210,247.9,279.5c120.3,76.5,253.6,107.4,394.5,104.8c145-2.7,285.1-31.9,417.8-91.4
	c180-80.6,303.7-212.5,358.7-404c31.8-110.8,39.5-224.1,27-338.7c-16.4-150.2-62.4-289.2-160-407
	c-85.8-103.6-195.9-163.9-331.1-173.5c-110-7.8-209.2,28.5-304,80.2c-2.9,1.6-6.4,3-8,5.6c-2.6,4.2-6.2,9.9-5.1,13.9
	c1.1,4.3,6.8,10,10.9,10.3c7.1,0.6,15-1.5,21.8-4.3c10.1-4,19.6-9.7,29.5-14.4c12.1-5.7,23.5-5.6,32.4,6
	c8.5,11.1,14.4,24.2,5.5,36.3c-8.1,11-18.9,22-30.9,28c-93,45.7-190.2,55.8-291.1,31.7C2600.4,2308.6,2576.4,2300.1,2569.3,2270.6z
	 M1295.1,2189.4c-18.7-6.1-34.2-11.5-49.9-16.1c-158.5-46.4-301.1-16.8-426.8,90.7c-54.9,46.9-98.2,103.6-129.7,168.2
	c-101.6,207.9-110.1,421.6-32.2,638.2c72,200.1,215.4,329.5,412.7,400.1c139.8,50,284.6,69.4,433.4,55.2
	c266.5-25.4,459.1-157.5,578.1-397.4c9.4-19,12.3-36.3,4.2-56.4c-7.3-18.2-12.3-37.5-17.5-56.5c-30.7-112.4-40.1-226.2-22.4-341.9
	c9.4-60.9,25-120.1,46.6-177.7c5.2-13.8,7.7-26.1,0.1-40.7c-53.3-101.4-128-179.9-235.8-223.6c-79.3-32.2-161.2-38.9-245.2-24.3
	c-17.3,3-31.9,8.5-32.2,31.2c11.8,2.7,23.5,4.9,34.8,8.2c14,4.1,17.2,15.5,17.2,28.5c0,12.2-4.9,21.6-16.8,25.3
	c-9.4,2.9-19.2,5-28.9,5.9c-60.7,5.6-120.7,0.4-178.6-18.4c-30-9.8-58.9-23.5-87.6-37c-17-8-27-22-23.6-42.6
	C1295.8,2203.2,1295.1,2197.8,1295.1,2189.4z M1605.2,2114.5c238.4-18.1,423.7,64.5,548.1,274.4c106.9-137.3,243.3-207.7,413.3-209
	c-32.8-110.5-67.2-217.6-96.2-326.1c-29.2-109.1-47.6-220.6-58-333.3c-10.4-112.6-13.4-225.3-7.2-338.3
	c6.2-112.3,27-222.4,45.5-333.9c-11.1,4-19.4,8.9-26.7,15c-177.9,151.1-339.1,317.8-474.7,508.4c-152,213.6-268,444.6-334.3,699.2
	C1611.6,2084.2,1608.9,2097.9,1605.2,2114.5z M2579.3,546.3c0,12-1.9,20,0.3,26.6c14.6,42.4,25.6,86.8,46,126.4
	c102.7,199.9,268.4,322.1,482,383c127.1,36.2,257.2,40.3,388,32.7c20-1.2,39.9-4.2,59.8-6.4c-72.2-58.7-148-106.3-225.5-151.3
	c-60.5-35.1-121.3-69.8-182-104.5c-0.7-0.4-2.2,0.1-3.1,0.7c-0.9,0.5-1.4,1.6-3.6,4.4c2.8,8.9,5.5,19.3,9.3,29.3
	c17.3,46.2,34.8,92.3,52.2,138.4c2.7,7.2,5.6,14.4,6.9,21.8c2.3,12.6-3.8,23-15.4,25.3c-8.1,1.6-20.3-1.2-25.9-6.8
	c-8.1-8.1-13.2-20.1-17.3-31.3c-24.1-65.9-48.5-131.6-70.6-198.2c-7.5-22.5-18.6-37.9-39.8-48.7c-60.6-30.7-120.4-63-180.7-94.3
	c-5.9-3.1-13-3.8-24.5-6.9c6,20.6,9.9,36.3,15.1,51.6c16.1,47.8,32.7,95.4,48.8,143.1c3.1,9.3,6,18.9,6.7,28.6
	c1,13.8-7.4,22.1-20.1,26.5c-14,4.9-20.7-3.6-25.4-14.2c-6.6-15-12.9-30.3-18-45.8c-22.1-67.7-44.6-135.3-65.1-203.5
	c-6.6-21.9-18.1-35.3-38.5-45.3c-44.3-21.6-87.4-45.7-131-68.6C2599.7,554.7,2590.9,551.4,2579.3,546.3z M3559.1,1037.8
	c1.8-2.3,3.7-4.5,5.5-6.8c-1.5-5.1-2.4-10.6-4.6-15.3c-52.1-108.9-105.9-216.7-187.7-307.5c-103.8-115-226.7-199.4-379.3-235.4
	c-114.2-27-228-28.8-340.1,11.2c-12.6,4.5-24.5,11.4-41.1,19.3c10.8,6.7,15.8,10.4,21.4,13.2c45,22.7,90.5,44.3,134.7,68.4
	c19.2,10.5,35.9,10.9,56.1,4.3c65.6-21.4,131.6-41.5,197.7-61.3c12.4-3.7,25.8-4.6,38.8-5.3c13-0.7,19.7,7.9,22.4,19.8
	c4,18.3-3.3,27.7-26.2,33.8c-49.8,13.2-99.6,26-149.2,39.7c-11.7,3.2-22.5,9.5-34.3,14.6c3.8,5.6,4.6,8.1,6.3,9
	c60.9,32.6,121.9,64.7,182.6,97.5c16.7,9.1,32.2,8.1,50.3,3.5c63.7-16,127.8-30,191.9-44.5c6.3-1.4,13.1-1.4,19.6-1.3
	c14.3,0.2,22.3,8.4,24.2,22c1.9,13-1.3,24.5-15.4,29c-10.4,3.3-21.2,5.7-31.9,7.8c-35.4,7.2-71,13.6-106.3,21.4
	c-11.8,2.6-23,8.2-37.8,13.6c71.6,43.2,137.7,83.8,204.5,123.2C3428.5,951.4,3490.9,999.4,3559.1,1037.8z M1493.5,2235
	c2.4-9.3,3.8-13.4,4.5-17.6c38.2-224.6,112.7-436.6,220.1-637.2c157.4-293.9,372.4-540.8,622.6-758.4c52.9-46,109.2-88,164.6-131
	c13.2-10.2,19.1-20.1,11.6-35.9c-2.7-5.8-4.5-12-8.2-21.7c-16.6,9.9-32.1,17.5-45.7,27.7c-41.3,30.8-82.7,61.6-122.6,94.2
	c-210.1,171.6-396.1,365.6-548.9,590.6c-95.9,141.2-174.3,291.4-237.3,449.9c-38.1,96-65.6,195.2-91.3,295
	c-11.4,44.1-19.5,89.1-29.7,136.4C1455.1,2229.8,1473.2,2232.2,1493.5,2235z M2766.4,2250.8c-4.9-13.6-7.2-22-10.9-29.7
	c-47.9-97.6-86.4-198.9-118.4-302.7c-75.4-244.6-103.1-495.1-89.4-750.1c6-112.7,17.7-225,46.8-334.6c6.6-24.9-4.9-42.7-34.4-53.7
	c-5.5,23.5-10.1,47.1-16.6,70.2c-39.1,140.4-53.5,284.2-56.1,429.1c-1.9,109.7,8.6,218.8,23.1,327.6
	c29,216.7,95.5,422.6,176.7,624.5c3.1,7.8,12.1,17.5,19.5,18.6C2724.4,2252.7,2742.9,2250.8,2766.4,2250.8z"/>
<path d="M2192.5,2789.3c8.8-128,49-241.5,136.7-335.3c19.9-21.3,44.9-38.3,69.4-54.5c12.2-8.1,28.3-12.2,43.1-14
	c35.9-4.4,60.8,10.4,74.6,40.9c13.8,30.6,7.7,64.5-16.3,87.8c-7,6.8-14.8,13.1-22.9,18.7c-81.3,56.5-113.9,138.7-123,233.1
	c-2.2,22.9-0.3,46.1-2.5,69c-4.6,47.1-34.3,72.2-81.3,71.9c-30-0.2-51.4-14.1-60.6-41.5C2201.3,2840.9,2198,2814.7,2192.5,2789.3z
	 M2247.7,2797.7c1.4,11.8,1.5,28.6,6.2,44c2.2,7.2,13.5,16.3,20.4,16.1c7.1-0.2,16.1-9.4,20.4-16.9c4.1-7,3.4-16.9,4.3-25.6
	c3.1-29.3,4.4-58.9,9.4-87.9c16.6-96.2,58-178.2,139.6-236.3c7-5,15-10.5,18.8-17.7c3.4-6.6,4.8-17.7,1.4-23.4
	c-3.5-5.9-14-10.5-21.4-10.3c-9.3,0.2-20.1,3.8-27.4,9.4c-24.1,18.6-50.1,36.1-69.6,59C2280.5,2589.8,2254.7,2688.2,2247.7,2797.7z"
	/>
<path d="M3099.5,2936c-1.3,89.9-58.6,148.9-147.3,158c-76.4,7.8-149.7-44.2-167.4-118.8c-5.2-21.8,2.7-39.2,20.8-45.9
	c15.5-5.8,28.7,0.1,40.3,19.1c5.7,9.3,9.4,19.8,14.7,29.3c32.2,58.4,120.9,61.3,156.2,4.5c6-9.7,7.8-22.4,10-34.1
	c2-10.7,0.9-21.9,2.6-32.7c3.5-22.1,10.2-28.6,28.2-29.8c19.1-1.3,32.2,6.4,37.9,24.5C3098.7,2920.4,3098.9,2931.6,3099.5,2936z"/>
<path d="M2565.6,2793.2c53.2,0.1,96.6,45.1,96.3,99.8c-0.3,54.8-43.3,97.9-98.1,98.2c-47.9,0.3-95.3-49.1-95.4-99.4
	C2468.2,2836.2,2510.7,2793.1,2565.6,2793.2z"/>
<path d="M3261.6,2863.3c-52.1,0.4-94.1-41.2-94.4-93.7c-0.3-54.5,44-100.8,96.4-100.8c53.9,0,98.3,44.5,98.2,98.5
	C3361.6,2821.4,3318.3,2862.8,3261.6,2863.3z"/>
<path d="M2412.5,3164.3c-22.3,0.9-38.6-17-31.9-34.9c9.5-25.5,21.8-50.2,35.4-73.8c8.1-14.1,25.8-16.4,37.4-8.2
	c12.3,8.8,15.7,21.5,9.4,34.9c-11.2,23.7-23.2,47.1-36.1,70C2423.4,3158.2,2415.7,3161.6,2412.5,3164.3z"/>
<path d="M3485.8,2975.3c-19,0.1-35.3-15.9-30-30.4c10.1-27.4,23-53.9,37.3-79.4c6.3-11.2,20.3-11.8,32.3-5.4
	c12.5,6.7,16.8,17.9,11.2,30.4c-11.1,24.8-23,49.3-35.9,73.3C3497.6,2969.7,3489.3,2972.7,3485.8,2975.3z"/>
<path d="M3357,2946.1c13.4-26,26.2-52.5,40.6-77.9c6.3-11.1,19.5-12.6,28.8-5.6c7.7,5.8,12.9,16.3,16.2,25.7
	c1.8,5.1-1.8,12.9-4.7,18.7c-9.6,19.6-19.5,39.2-30.2,58.2c-6.6,11.7-17.1,16.6-30.6,11.2C3364.2,2971.1,3358.5,2961.8,3357,2946.1z
	"/>
<path d="M2475,3125.2c12.5-24.1,24.1-48.7,37.8-72c6.1-10.3,17.9-12.2,29.2-6.2c10.8,5.8,17.2,16.1,12.8,27.2
	c-10,25.3-21.2,50.4-34.5,74.1c-3.1,5.5-17.4,8.4-25.3,6.8C2481.7,3152.2,2477.2,3140.2,2475,3125.2z"/>
<path d="M693.2,2639.2c4.9-42.6,20.3-89.4,41.8-133.9c49.7-102.7,122.7-183.6,225.9-234.9c31.7-15.8,64.7-27.2,101.2-22.3
	c46.6,6.2,76.9,50.9,65.1,96.4c-4.6,17.7-14.1,32.2-30.7,40.8c-9.7,5-19.7,9.7-30.1,13c-107.7,33.3-171.2,109.5-206.9,212.6
	c-6.8,19.6-11,40.2-17.2,60c-14.4,45.8-47.1,65.5-93,56.7C713.1,2720.7,691.9,2690,693.2,2639.2z M742.6,2642.4
	c1.1,21.7,5.9,30.9,20.4,34.7c16.4,4.3,25.1-1.6,32.2-23.3c7.5-22.8,13.6-46.2,21.8-68.7c40-110.8,111.8-191.4,223.7-233.5
	c8.2-3.1,16.1-6.9,24.1-10.4c10.7-4.6,16.2-14,11.9-23.6c-3.4-7.5-12.7-16.5-20.2-17.3c-13.6-1.5-28.7,0.2-41.7,4.9
	c-22.5,8.1-45.1,17.4-65.3,29.9c-82.7,51.3-140.3,124.2-176.3,214.1C761.1,2579.5,752.7,2611.3,742.6,2642.4z"/>
<path d="M1377.2,3082.9c-87.1-2.9-160.2-60.6-159.7-166.1c0.1-29.4,13-42.1,35.7-40.2c14.6,1.2,25.2,7.5,28,22.7
	c2.5,14,3.7,28.2,6.4,42.1c7.5,39.4,36.5,63.7,81.3,68.6c38.7,4.2,73.6-14.5,88.7-48.2c4.9-10.9,7.8-22.7,12.2-33.9
	c8.4-21.2,19.5-26.9,40.6-21.4c16.9,4.4,27.2,18.2,24.4,37.2c-7.5,50.1-30.7,90.9-75.2,117.2
	C1433.6,3076.2,1405,3082.6,1377.2,3082.9z"/>
<path d="M1842.5,2852.1c0,54.2-46.4,99.8-101.4,99.6c-49.4-0.1-96-46.2-95.7-94.7c0.3-58.6,44.9-104.7,100.5-103.9
	C1801.4,2753.9,1842.5,2796,1842.5,2852.1z"/>
<path d="M1029.3,2868.3c-55.4,0.2-97.3-42.3-96.6-98c0.6-50.9,45.8-95,97.1-96.8c64.2-2.2,99.1,53.1,100,99.6
	C1130.6,2815.6,1092.4,2870.8,1029.3,2868.3z"/>
<path d="M1812.3,3094.8c-16.5-1.2-32-23.9-23.2-36.9c17.4-25.8,37.9-49.9,59-72.9c9.2-10,21.5-2.2,28.3,6.1
	c5.3,6.6,11.5,20.6,8.4,24.7c-19.3,26-40.8,50.3-62.1,74.7C1820.2,3093.4,1814.9,3093.8,1812.3,3094.8z"/>
<path d="M802.4,2990.9c-20.7,0.7-37.6-21.5-27.9-35.9c16.9-25,36.5-48.5,57.2-70.5c10.1-10.8,24.4-6.2,35.4,3.1
	c10.5,8.9,8.8,19.6,1.8,29.1c-16.1,21.8-32.7,43.3-50.1,64.1C814.4,2986,806.4,2988.5,802.4,2990.9z"/>
<path d="M1904.6,3115.2c-16.6,1.1-33.2-22.7-23.4-37.3c16.4-24.4,35.5-47.1,55.6-68.6c4.3-4.6,20.4-4.4,26,0
	c7.1,5.6,15.3,22.3,12.3,26.3c-19.9,27-42.5,51.9-64.4,77.3C1909.4,3114.3,1906.6,3114.4,1904.6,3115.2z"/>
<path d="M967.9,2923.7c-3.5,7.9-4.8,13.5-8.1,17.6c-15.1,18.7-30.3,37.4-46.2,55.3c-9.2,10.4-20.8,11.3-32.4,3.1
	c-11-7.8-12.2-20.2-5.9-29.2c15.5-22.2,32.6-43.5,51.2-63.1c4.7-5,18.8-4.7,26.7-1.8C959.7,2907.9,963.4,2917.8,967.9,2923.7z"/>
</svg>
