<?xml version="1.0" encoding="utf-8"?>
<!-- Generator: Adobe Illustrator 24.3.0, SVG Export Plug-In . SVG Version: 6.00 Build 0)  -->
<svg version="1.1" id="Layer_1" xmlns="http://www.w3.org/2000/svg" xmlns:xlink="http://www.w3.org/1999/xlink" x="0px" y="0px"
	 viewBox="0 0 4000 4000" style="enable-background:new 0 0 4000 4000;" xml:space="preserve">
<path d="M2280.3,3580.3c-18.5,11.1-32.3,19.3-46,27.7c-11.9,7.2-23.2,15.5-35.6,21.5c-36.3,17.8-59.7,13.3-86.6-17
	c-14.6-16.4-27.5-34.3-41.1-51.6c-17.7-22.6-23.4-24.5-49.6-12.5c-12.6,5.7-24.3,13.4-36.5,20.1c-11.1,6.2-21.9,13.2-33.6,18.1
	c-34.4,14.6-52.2,11.2-77.6-16.4c-16.4-17.9-30.8-37.6-45.9-56.6c-21.1-26.5-23.2-26.4-54.8-11c-24.9,12.1-50.2,23.6-76.1,33.4
	c-30,11.3-54.7,1.5-72.9-24.2c-12.7-17.9-23.9-36.9-36.5-55c-14.6-20.9-19.7-22.5-43.3-12.4c-16,6.8-31.1,15.6-47,22.4
	c-12.7,5.4-26,9.5-39.2,13.6c-21.4,6.6-39.4,0.1-52.2-17.5c-13.6-18.6-25.9-38.3-38.2-57.9c-18.9-30.3-20.8-31.1-51.8-16.2
	c-17.7,8.5-35.1,18.1-53.4,25.2c-44.8,17.4-68.8,8.8-93.7-31.8c-10.1-16.5-20.2-33.2-31.7-52.2c-14.9,7.5-26.9,13.9-39.2,19.7
	c-15.6,7.5-30.9,16.3-47.3,21.4c-34.7,10.8-54.4,3.3-74-27.2c-10.6-16.5-19.2-34.3-29-51.4c-13.8-24.1-17.2-24.8-44.6-19.3
	c-23.7,4.8-47.7,9.9-71.7,11.2c-33.2,1.8-54.7-22-50.1-55c2.7-19.3,7.5-39,15.7-56.5c29.4-62.8,59.5-125.4,91.9-186.8
	c12.7-24.1,17.1-46.1,10.9-72.8c-29-125.4-30.6-252.5-19.8-380c5.9-70.4,11.6-140.8,20.2-210.9c23.7-193.1,58.4-384.4,99.3-574.6
	c42.1-195.8,87.6-390.7,146.7-582.2c38.3-124.1,82.5-246,141.7-361.7c23.7-46.2,52.3-90,80-134c11.5-18.2,18.1-35.4,17.1-58.1
	c-3.8-88-3.5-176,11.5-263.3c2-11.4,3.9-22.9,7.1-33.9c16.4-57.2,64.7-77.8,115.9-46.8c22.4,13.6,42,32.6,60.9,51.1
	c38.1,37.3,39,37.9,83.5,7.2c13.3-9.2,26.4-19,40.4-27c39.3-22.3,69.4-16.8,98.1,18.3c14.6,17.9,26.8,37.8,41.3,55.8
	c16.7,20.8,24.4,22.2,46.9,8.7c19.8-11.9,38.2-26.3,58.1-38.1c40.7-24,67-19.5,97.3,17.1c13.2,16,24.4,33.7,36.2,50.8
	c14.6,21.2,19.7,23.4,42.6,11.3c18.4-9.6,35.5-21.8,53.5-32.3c45.8-26.8,76.7-20,107.1,23.2c8.7,12.3,16.3,25.3,25.1,37.5
	c14.4,20.1,17.1,21.1,40.1,10.3c20.9-9.8,41-21.4,61.5-32.2c43.9-23,76.3-16.4,106.6,22.5c17.7,22.7,34.6,46,53.8,71.7
	c16.1-7.5,30.4-14,44.6-20.8c19.8-9.5,38.9-20.7,59.4-28.3c29-10.7,54.9-3.2,75.2,20.3c14.4,16.7,27.6,34.3,41.6,51.2
	c16.4,19.9,20.9,21.5,44.3,11.2c21.2-9.3,41.2-21.2,62.3-30.5c48.8-21.6,76.5-13.3,106.9,31c10.5,15.3,20.5,30.9,30.2,46.7
	c8,13,18.2,17,32.2,10.3c16.7-8,33.3-16.2,50-24.1c14.6-6.9,29.1-14.2,44.1-20.3c25.4-10.2,48.9-5,66.5,15
	c15.9,18.1,29.1,38.7,42.3,59c16.1,24.6,16.7,25.3,44.7,17.2c26.7-7.7,53-17.2,80.1-22.3c16.4-3.1,34.8-2.1,51,2.2
	c33,8.7,49.1,31.3,43.2,65c-8.5,48.9-18.2,98-33.3,145.2c-17.5,55-40.6,108.3-62.9,161.6c-7.9,18.8-13.2,36.8-9,57
	c29.3,141.1,25.4,283.7,14.4,425.8c-23.4,301.8-74.1,599.6-137.2,895.4c-34.1,159.6-68.3,319.2-115.3,475.8
	c-39.3,131-80.4,261.2-145,382.6c-12,22.5-23.8,45.2-38.1,66.2c-15.2,22.4-20,44.6-15.6,71.8c14,87.4,12.8,175.3,5.5,263.3
	c-0.5,5.8-0.9,11.6-1.9,17.3c-8.8,51.4-49.9,75.9-97.7,53.7c-25.7-11.9-48.1-31.6-70.3-49.9c-27.8-22.9-33.2-24.4-63.3-3.9
	c-17.2,11.7-33.3,25.2-51.4,35.4c-30.2,17.1-54.2,14-79-10c-16.6-16.1-31-34.4-46.3-51.8c-21.8-24.8-30.3-26.6-59.3-9.6
	c-16.9,9.9-32.5,22.3-49.5,32.1c-41.4,24-62.8,21.1-95-13.8C2320.7,3629.3,2302,3605.8,2280.3,3580.3z M3263.3,1859.3
	c-12.1-2.5-22.2-5.3-32.5-6.5c-108.3-12.6-213.9-39-319.5-64.8c-67-16.4-129.4-42.7-180.9-91.1c-84.9-79.6-187.8-125.8-298-157.6
	c-125.1-36.2-253.1-55.7-383-61.5c-129.3-5.7-256.7,3.1-378.4,53.8c-54.2,22.6-112,30.2-170.3,24.4c-86.3-8.5-172.4-19.3-258.6-29.5
	c-31.6-3.7-63.2-8.2-93.7-12.2c-42.4,122.4-130,568.3-120.9,611.1c80.6,15.3,161.3,30.1,241.7,46.1
	c95.6,19.1,184.1,52.9,256.6,121.9c97.2,92.6,216.4,145.3,343.4,181.4c107.2,30.4,216.8,47.7,328.3,53
	c138.9,6.7,275.3-5.8,406.6-54.5c52-19.3,105.2-28.1,160.1-23.4c81.8,6.9,163.5,15.2,245.2,24.1c45.8,5,91.3,12.4,136.3,18.6
	C3167.5,2444.4,3265.7,1917.1,3263.3,1859.3z M3127.8,2569.2c-11.2-2.6-21-5.8-31.1-7.2c-88.3-11.7-176.6-24.1-265.1-34.4
	c-83.6-9.8-165.4-6.5-245.6,26.4c-62.2,25.6-129.5,35.2-196.6,40.4c-177,13.7-351.4-1.9-523-48.8
	c-142.6-38.9-274.5-97.9-385.2-198.6c-47.2-42.9-102-72.4-164.3-86.1c-77.9-17.1-156.1-33-234.4-48.5c-23.2-4.6-46.6-12.8-72-6.9
	c-1.5,6.6-3.2,12.1-3.9,17.6c-9.7,75.8-20.2,151.4-28.8,227.3c-17.3,153.7-20.3,307.1,6.8,460.4c4.5,25.5,14.5,37.8,38.9,45
	c200,58.3,401.7,109.6,605.4,153.5c219.5,47.4,440.1,88.7,662.4,120.6c182.1,26.1,364.3,51.8,546.4,78.4c20,2.9,33.7-1.8,43.1-19.7
	c26.9-51.2,57.6-100.7,80.5-153.6c75.3-173.8,122.3-356.6,164.6-540.6C3127.5,2586.8,3127.1,2578.8,3127.8,2569.2z M1168.1,1436.3
	c6.6,1.8,12,4,17.5,4.7c95.1,13.5,190,28.5,285.3,39.6c63.5,7.4,126.6,4.6,187.5-21.4c96.3-41.1,198.7-52.7,302.3-53.7
	c140.6-1.3,279.6,14,416.6,46.1c151.7,35.6,294,90.6,411.1,198.4c27.4,25.3,61.7,39.8,97.6,51.2c108.5,34.6,220.7,51.3,332,72.9
	c18.7,3.6,37.9,4.3,59.4,6.7c9.1-74.1,18.9-143.9,25.9-213.9c15.6-155.8,24.7-311.7-1.9-467.5c-6.4-37.5-6-38.8-43.7-46.7
	c-73.6-15.5-147.4-29.9-220.8-46.1c-223.7-49.2-447.1-100.1-671-148.3c-135.7-29.3-271.9-56-408.3-81.9
	c-155.7-29.5-311.9-56.7-467.8-85c-19.1-3.5-33.3,0.6-43.3,19.2c-37,68.1-80,133.4-111.5,203.8c-72.5,162.1-121.1,332.6-165.4,504.3
	C1168.2,1424,1168.6,1429.7,1168.1,1436.3z M1478.2,626.3c14.3,3,23.2,5.2,32.3,6.7c82.1,13.6,164.6,25.3,246.4,40.9
	c189.7,36.1,379.3,72.5,568.4,111.7c144.9,30,288.7,64.8,433.1,96.9c130.9,29.1,261.9,57.5,392.9,86.3
	c39.5,8.7,78.8,18.5,118.5,26.1c11.6,2.2,30.8,3.4,35.2-2.9c15.3-22,29.8-45.9,29.9-75.5c-307.3-80.5-614.4-152.9-924.2-213.1
	c-309.4-60.1-619.9-113.9-938.8-147.2C1474.2,582,1476.1,603.2,1478.2,626.3z M3176.8,660.8c-13.4,6.7-22.6,11.2-31.8,15.9
	c-17.5,9-34.4,19.2-52.4,27c-52,22.5-79.8,14.9-113.9-30.8c-10.4-13.9-19-29-28.7-43.4c-13.1-19.5-15.3-19.9-36.5-9.7
	c-23.9,11.6-47.1,25.1-72,34.1c-40.5,14.6-67.7,5.8-95.3-27.4c-11.1-13.3-20.7-27.9-31.3-41.6c-17.4-22.3-20.6-23-46-8.6
	c-18.1,10.3-35.2,22.4-53.7,31.8c-44.1,22.4-69.3,17.4-100.8-20c-14.9-17.7-28.7-36.4-40.8-56c-10.2-16.6-21.6-18.7-37.5-9.9
	c-17.2,9.6-34.6,18.7-52,28c-60.6,32.6-85.7,27.7-128.1-25.7c-6.5-8.1-11.7-17.2-18-25.6c-5.4-7.3-11.5-14-19.2-23.4
	c-11.9,6.5-22.7,12.4-33.6,18.3c-17.3,9.3-34,20.1-52.2,27.3c-39.2,15.7-65.6,8.7-92.8-23.4c-11.9-14.1-22.7-29.3-33.2-44.4
	c-16.4-23.6-18.8-24.7-44.6-11c-13.3,7-25.9,15.2-38.8,23.1c-61.3,37.4-87.2,33.3-134-21.6c-16.4-19.2-32.3-38.8-49.8-59.9
	c-11.8,7.4-21.5,13.3-31.1,19.4c-16.6,10.5-32.9,21.5-49.7,31.7c-32.7,19.9-64.6,17.1-93.2-7.1c-18.4-15.6-33.8-34.6-51-51.8
	c-8.2-8.3-17.3-15.7-27.5-24.9c-13.3,41-18.1,102.5-11.4,141.2c317.3,34.9,633.2,86,947,149.9c314.5,64.1,628.1,131.8,939,221.7
	c14.9-45.1,29.4-85.7,35.5-135.2c-15.7,6.6-25.9,11.3-36.4,15c-18.5,6.5-37,13.1-55.8,18.4c-35.9,10.3-63.2-1.6-83-33.2
	C3208.3,706.6,3193,685,3176.8,660.8z M2861,3374.2c-13.6-2.7-22.5-4.9-31.5-6.2c-174.2-23.9-348.7-45.7-522.5-72
	c-148.6-22.5-296.9-47.9-444.6-76c-251.1-47.9-500.6-103.4-746.3-174.8c-36.6-10.7-72.9-22.6-109.7-32.9
	c-26.7-7.5-31.7-4.9-44.7,18.8c-4.7,8.7-8,18.1-13.6,31c313.4,99.4,626.9,182.6,945.6,245.7c319.7,63.3,640.9,115.9,967.3,145.3
	C2861,3424.7,2861,3400.9,2861,3374.2z M2868.1,3514.6c-8.1-1.3-14.7-2.6-21.4-3.3c-131.2-13.9-263-23.1-393.4-42.7
	c-194.4-29.2-388-63.6-581.2-100c-117-22.1-232.9-50.2-348.5-79c-132.4-33-264.1-68.9-395.7-105.2c-60.2-16.6-119.3-37.2-178.8-56
	c-12.1-3.8-25.8-11.1-34.9,2.1c-9.2,13.4-18.9,28.2-15.5,48.2c13.5-0.9,25-1.3,36.3-2.6c25.4-2.9,45.5,5.1,58.9,27.6
	c7.7,12.9,15.4,25.8,23.2,38.6c6.5,10.6,13.1,21.1,20.7,33.2c24.5-11.7,46.1-22.6,68.2-32.4c43-19,68.6-11.4,95,27.9
	c5.8,8.6,10.5,17.9,15.6,27c14.7,26.2,16.1,26.7,42.8,14c17.8-8.4,35-18.2,53.2-25.5c39.5-15.9,65.4-8.8,91.8,24.5
	c7.9,9.9,14,21.2,21.2,31.7c9,13.1,18.2,26.1,28.5,40.8c26.8-11.6,50.7-22.8,75.2-32.4c53.5-21,80.2-12.2,111.9,35.9
	c12,18.2,24,36.5,37.4,56.8c12.2-5,22.7-9,33-13.7c17.9-8.1,35.2-17.7,53.5-24.7c46.5-17.9,69-12.6,102.1,23.6
	c14.8,16.2,28,33.9,42.3,50.6c5.8,6.8,12.7,12.6,20.7,20.5c26.6-14.6,51.6-29,77.1-42.2c41.5-21.4,70.4-17,103.1,16.8
	c14.4,14.9,26.3,32.3,39.1,48.6c14.9,18.9,19.7,20.2,40.2,7.7c16.8-10.2,32.6-22,49.7-31.7c40-22.6,59.4-19.6,92,14.1
	c15.3,15.8,29.1,32.9,43.4,49.7c18.3,21.5,21.8,22.4,45.8,6.5c18.3-12.1,35.8-25.6,53.9-38c24.9-16.9,50.1-16.6,74.2,1.3
	c12,8.9,23.4,19,33.9,29.6c13,13.1,24.6,27.7,37.3,41.2c15.1,16,19.9,16.4,38.5,3.7c12.4-8.5,24.6-17.3,36.6-26.4
	c51.8-39.5,99.5-25.2,135.6,14.4c8.2,9,17.9,16.6,32.6,30C2872,3584,2871.6,3550.3,2868.1,3514.6z"/>
<path d="M1707.4,1885.6c-3.8,23.6-7.3,47.4-11.6,70.9c-6.8,37.6-13.9,75.1-21.3,112.6c-2,10.2-5,20.3-9,29.9
	c-8.2,19.5-18.6,25-38,21.4c-20.9-3.8-33.2-15-33.2-34c0-17.3,2.2-34.7,5-51.8c13-77.6,26.2-155.2,40.1-232.6
	c3.5-19.3,7.7-38.8,14.8-57c11.4-29,41.8-36.1,64.4-14.5c13,12.5,23.7,28.8,31.4,45.2c26.6,56.5,51.4,113.9,76.8,171
	c6.3,14.2,12.1,28.6,18.2,42.9c2.6-0.5,5.3-0.9,7.9-1.4c5.3-30.2,10.3-60.5,16.1-90.7c6.4-32.9,13.1-65.8,20.6-98.5
	c2.5-11.1,6.8-22.2,12.1-32.3c6.9-13.2,17.5-21.3,34-17.9c17.5,3.7,30.1,15.6,31.2,32.5c0.7,10.3-0.6,20.9-2.4,31.1
	c-15.3,89-30.3,178-46.9,266.8c-3.8,20.1-10.9,40.4-20.7,58.3c-14.5,26.5-47.6,27.1-66,2.7c-6.9-9.1-11.8-19.9-16.4-30.5
	c-26.6-61.6-52.7-123.4-79.3-185.1c-5.8-13.5-12.6-26.6-19-39.9C1713.2,1885.1,1710.3,1885.3,1707.4,1885.6z"/>
<path d="M2208.6,2096.4c-40.4-7-76.9-12.8-113.1-19.8c-19.3-3.7-30.4,3.2-38,20.9c-9.1,21.2-18.7,42.6-31.1,61.9
	c-6.2,9.6-18.5,19.6-29.2,21.2c-26.8,4.1-51.8-23.4-38.5-48.9c12.8-24.6,23.6-50.4,37.2-74.5c38.6-68.6,77.7-136.9,117.9-204.5
	c9.9-16.6,23.4-31.9,38-44.6c24-20.7,54.6-16.6,72,10c10.6,16.2,20.3,34.8,23.7,53.5c18.4,101.3,35.5,202.9,51.2,304.6
	c4.8,31.1-7,46.4-29.7,50.1c-23.4,3.8-35.5-2.2-42.6-24.9c-5.1-16.5-7.4-33.9-10.2-51C2213.2,2133.4,2211.3,2116.2,2208.6,2096.4z
	 M2116.2,2002c26.8,12.9,52.3,10.3,82.6,9.5c-6.2-38.4-12-73.8-17.7-109.3c-3.3-0.8-6.7-1.6-10-2.5
	C2154.5,1934,2130.4,1963.9,2116.2,2002z"/>
<path d="M2808.1,2017.6c11.9-7.3,23.4-14.2,34.6-21.4c32.1-20.5,63.3-42.8,96.5-61.3c24.7-13.8,48.7,1.1,47.9,27.5
	c-0.3,8.5-4.4,18.2-9.8,24.9c-7.1,8.8-16.7,15.9-26,22.7c-37.5,27.1-75.3,53.7-112.8,80.8c-6.2,4.5-11.5,10.3-17.5,15.7
	c34.7,47.1,68.3,92.5,101.5,138.1c9.5,13.1,18.5,26.6,26.3,40.8c10.7,19.4,9.3,33.1-2.6,44.2c-12.6,11.8-35.5,12.8-51,0.2
	c-10.6-8.6-20-19.3-28.3-30.2c-23.1-30.3-45.4-61.3-68.2-91.9c-6.1-8.2-12.9-15.8-24.1-29.6c-3.5,18.4-5.9,31.1-8.4,43.7
	c-4.3,21.5-6.7,43.5-13.5,64.2c-7.1,21.8-19.3,27.7-39.6,25.3c-17.8-2.1-28.8-14.2-30.9-35.9c-0.9-9.1-0.7-18.6,0.8-27.7
	c16.1-98.1,32.3-196.1,49-294.1c2.1-12.4,5.7-24.9,10.5-36.5c8.5-20.7,20.8-27.5,40.3-24.6c18.1,2.7,29.6,15,30.9,36.1
	c0.7,12.5-1.6,25.3-3.2,37.8c-1.7,13.7-4.3,27.4-6.1,41.1C2803.9,2009.4,2805.7,2011.6,2808.1,2017.6z"/>
<path d="M1448.2,1662.1c33.5-0.3,64.4,9.6,91.9,27.6c12.1,7.9,22.4,19.8,30.5,31.9c8,12.1,9.9,29.3-2.5,38.1
	c-9.8,6.9-25.4,7.8-38.3,7.2c-8.2-0.4-16-8.4-23.9-13.1c-21.4-12.7-43.8-20.3-69.3-16.4c-19.2,3-32.6,13.4-38.1,31.1
	c-5.7,18.3,6.1,30.9,20,40.5c21,14.4,42.6,27.9,63.6,42.3c25.1,17.2,46.8,37.3,60.3,65.6c35.6,74.9,0.1,151.4-81,169.1
	c-62.4,13.6-119.8-0.1-168.9-41.8c-12-10.2-21.9-24-29.3-37.9c-9.7-18.1-3.1-39.4,11.9-49.3c16.5-10.9,34.7-8.5,47.9,11.5
	c21.5,32.4,52.5,44.4,88.4,46.7c23.5,1.5,47.3-1.2,59.8-25.9c10.7-21,3.3-48.9-20.1-67.9c-21.5-17.4-45.8-31.4-67.9-48.2
	c-15.5-11.8-32-23.8-43.7-39.1c-48.4-63.1-7.6-155.4,74-169.4C1424.9,1662.7,1436.6,1662.9,1448.2,1662.1z"/>
<path d="M2560.6,1864.5c26.5,0.8,63.3,8.9,92,38c16.6,16.9,18.6,29.5,10.1,46.7c-7.1,14.4-18.4,21.2-33.9,17.4
	c-12.2-3-24.4-7.6-35.4-13.5c-42.9-23-80.8-12.2-115.1,17.2c-42.4,36.4-61.4,113.2-42.4,166.1c17.1,47.7,62.4,74,112.7,64.8
	c14.7-2.7,29.1-7.5,43.9-10c20.8-3.5,33.4,3,40.1,18.9c6.4,15,2.1,30.8-14.8,42c-36.1,23.9-76.7,32.8-119.2,26.2
	c-80.6-12.5-140-74.4-149.1-156.4c-8.1-73.6,11.7-140,60.5-196.4C2446.1,1883.6,2492.4,1863.2,2560.6,1864.5z"/>
<path d="M2639,3180.9c-30.3-0.7-44.8-9.3-47.9-29.9c-3.2-21.4,5.8-34.4,29.2-38.9c15.8-3.1,32.1-3,48-5.9
	c59.8-10.8,101.8-46.4,132.4-97.1c8.9-14.8,15.8-30.8,24.2-45.9c12.7-22.8,29-29.2,47.8-19.6c17.5,9,23.1,23.9,13,47.5
	c-38.7,90.4-98.9,157.9-199.1,181C2670.8,3175.6,2654.8,3178,2639,3180.9z"/>
<path d="M2907.6,2801.2c20.9,0.3,36.4,14.5,36.6,33.3c0.2,23.7-20.2,46-42.1,46c-20.9,0-35.9-16-35.6-37.9
	C2866.9,2817.7,2883.7,2800.8,2907.6,2801.2z"/>
<path d="M2516.1,3120.9c0.7,22.3-16.8,42.1-36.8,41.9c-18.7-0.2-38.2-19-38.8-37.4c-0.6-18.7,17.5-37.9,36.6-38.9
	C2499.1,3085.3,2515.4,3099.7,2516.1,3120.9z"/>
<path d="M1390.1,1164.9c-25-1-39.1-17.2-31.8-41.4c24.2-80.5,58.1-156.1,122.4-213.4c41.7-37.1,89.8-60.6,147.1-60.4
	c21.3,0.1,31.1,8,35,25.8c3.4,15.7-2.5,27.1-17.1,33.7c-4.1,1.9-8.9,2.7-13.4,3.2c-77.3,8.6-128.7,53.7-163.3,119.5
	c-17.7,33.5-30.7,69.5-45.3,104.6C1413.9,1159.8,1407.7,1165.6,1390.1,1164.9z"/>
<path d="M1350.3,1309.1c-22.6,0.6-37.5-13.8-37.5-35.9c0-23.2,16.7-41.5,37.6-41.4c18.6,0.1,35.3,16.3,36.1,35.2
	C1387.6,1290.2,1371.8,1308.5,1350.3,1309.1z"/>
<path d="M1773.9,863c19.9,2,34.5,19.3,32,37.9c-2.7,20.4-20.5,34.8-41.4,33.6c-19.4-1.2-36-21.1-33.9-40.7
	C1732.6,874.9,1752.4,860.8,1773.9,863z"/>
</svg>
