<?xml version="1.0" encoding="utf-8"?>
<!-- Generator: Adobe Illustrator 24.3.0, SVG Export Plug-In . SVG Version: 6.00 Build 0)  -->
<svg version="1.1" id="Layer_1" xmlns="http://www.w3.org/2000/svg" xmlns:xlink="http://www.w3.org/1999/xlink" x="0px" y="0px"
	 viewBox="0 0 4000 4000" style="enable-background:new 0 0 4000 4000;" xml:space="preserve">
<path d="M3142.6,735.6c31.2-1.2,62.7-4.4,94-3.3c81,2.9,147,37,192.2,104.6c16.6,24.8,25.2,55,38.7,85.4c18.7,2.4,41.3,3.9,63.3,8.4
	c121.7,25.1,186.7,106.9,183.7,231.1c-0.4,15.7,2.5,28.7,13.3,40.6c43.4,47.7,64.2,106.1,74.6,168.1c6.9,40.7,12,82.3,11.4,123.5
	c-2.2,159.8-5.9,319.6-10.9,479.3c-4.9,157.8-10.2,315.5-18.8,473.1c-6.8,124-18.6,247.8-28.6,371.6c-1.3,15.7-5.3,31.1-7.7,46.7
	c-13.6,87.7-63.3,147.8-143.7,181.5c-54.4,22.8-110.4,42.3-166.6,60.6c-199,64.8-401.8,115.2-606.6,157.5
	c-274.2,56.6-548.5,112.5-823,167.1c-144,28.6-288.4,55.9-433.3,80.2c-183.7,30.9-367.7,61.7-553.5,77.6
	c-102.2,8.7-204.6,14.8-307.1,18.4c-32.7,1.2-66.4-7.3-98.6-15.3c-33.5-8.2-55.6-31.9-69.6-63.5c-14.6-33-21.4-67.6-23.1-103.4
	c-5.3-109.4-10.9-218.7-15.4-328.1c-9-219.8-16.7-439.7-26.2-659.5c-6.2-142.9-14.7-285.7-21.6-428.6c-1-21.6-0.4-43.5,1.6-65
	c5.5-60.7,32.1-112.2,76.5-152.6c48.9-44.3,99.6-86.9,151.9-127.2c280.7-216.2,570.6-419.5,861.6-621.4
	c48.6-33.7,96.8-68.1,144.5-103.1c8-5.9,15.9-15.9,18.1-25.3c17-73.8,62.5-124.1,128.6-156.8c33.5-16.5,68.7-29.8,103.1-44.5
	c32.8-14.1,64.7-29.4,89.3-56.5c16.8-18.5,30.1-38.8,36.7-63.3c6.7-24.7,2.8-46.8-13.5-66.7c-3.8-4.6-7.4-9.2-11.4-13.6
	c-42.1-45.9-13.3-124.7,47.1-133.4c29-4.2,59.2-5.5,88.3-2.4c109.9,11.7,212.1,46.3,298.9,116.5c23.8,19.3,44,23.3,73.9,19.3
	c81.3-10.7,152,15.9,207.3,77.1c14.3,15.9,26.2,19.1,45.9,12.6c56.1-18.5,113.3-24.2,171.8-10c66.3,16.1,115.5,53.2,146.5,114.2
	c4,7.9,8.1,15.8,12.3,23.6C3139.5,732.7,3141.1,734,3142.6,735.6z M590.5,2448.4c16.8-2.3,29.3-3.9,41.7-5.7
	c106.3-15.2,212.7-30,319-45.6c92.6-13.6,185-28.7,277.7-42.1c120.9-17.5,242.1-33.3,363-51.1c91.6-13.5,183.1-28.3,274.4-43.8
	c195.2-33.1,390.6-65.3,585.3-101.3c143.3-26.5,286-57,428.3-88.4c193.3-42.6,386.1-87.8,579.1-132.1c19.8-4.5,39.3-10.5,58-15.6
	c0.8-5.8,1.7-8.7,1.6-11.6c-4-93.6-6.7-187.3-12.9-280.7c-2.2-33-10.6-66.3-20.7-98c-18.2-57-61.8-83.8-120.7-75.5
	c-45.8,6.5-91.6,14.2-136.7,24.2c-129.8,28.8-258.9,61-389.1,88.4c-188.9,39.8-378.1,78.9-567.9,114c-187,34.6-374.9,64-562.4,95.4
	c-189.5,31.8-379,63.4-568.5,95c-179.8,30-359.6,59.9-539.3,90c-10.3,1.7-20.4,4.8-32.5,7.7C575.4,2131,582.9,2287.4,590.5,2448.4z
	 M579.9,1916c1.4,1.9,2.7,3.7,4.1,5.6c8.7-0.8,17.5-0.9,26-2.4c125.3-21.5,250.6-43.3,375.9-64.8c137.9-23.6,275.9-47.4,413.9-70.5
	c193.5-32.3,387.2-63,580.5-96.4c166-28.7,332-58,497.2-91.1c214.4-43.1,427.9-90.6,642-135.4c79-16.6,158.1-33.6,237.9-45.8
	c74.6-11.5,130.5,22.4,162.8,90.5c18.1,38.1,26.4,78.8,28.6,120.2c5,94.5,9.8,189.2,11.3,283.8c1.6,103.6,3.1,207.3-1.8,310.7
	c-8.4,178.3-21.4,356.4-33.1,534.5c-4.5,68.1-13.8,135.4-36,200.4c-1.4,4-1.5,8.5-2.9,17.7c40.1-15.1,75.7-28.5,106.9-51.8
	c24.8-18.5,41.6-42.1,45.8-73.2c5.9-43,13.1-85.9,16-129.1c9.4-139.7,18.1-279.5,25.2-419.4c6.3-125.1,10.7-250.3,15-375.6
	c4.2-122.3,8.6-244.5,10.5-366.8c0.8-52.1-1.7-104.7-8.6-156.3c-4.7-35.6-17.9-70.4-30.3-104.5c-6.9-18.9-15.4-19.6-31.2-6.8
	c-22.4,18.3-48,27.9-76.4,27.2c-51.3-1.2-102.5-4.1-153.7-6.6c-7.8-0.4-15.6-2.5-23.3-4.3c-26.8-6.3-46.7-21.6-56-47.8
	c-5.9-16.6-9.1-34.2-12.7-51.5c-5.1-25.1-9-29.1-35-31.1c-23.6-1.8-47.3-2.7-70.8-4.7c-28-2.3-48.2-17.7-60.5-41.8
	c-8-15.6-12.7-33-17.4-50c-9.2-33.3-16.5-40-51.3-41.3c-20.7-0.8-41.4-0.4-62.1-0.9c-41.5-1-73.5-19.6-97-53.6c-9-13-18-26-28.1-38
	c-15.6-18.7-35.9-27.2-60.5-23.8c-7.8,1.1-15.6,2.4-23.4,3.7c-42.9,7.1-80-2.7-109.6-36.4c-10.4-11.8-21.9-22.8-33.5-33.4
	c-8.6-7.9-18.1-15.4-30.9-11.6c-10.9,32-6.9,46.3,18.9,63.3c38.6,25.3,70.4,56.5,92.4,97.8c59.9,112.4,39.9,210.8-47.8,295.3
	c-21.7,20.9-47.7,38.4-74.1,53.4c-90.1,51.1-189.8,70.3-291.1,82.7c-91.4,11.2-182.9,10.2-274.6,0.6
	c-71.1-7.4-140.1-22.5-206.6-48.5c-52.1-20.4-99.4-48.5-137.2-90.3c-46.8-51.7-65-111.5-49.1-180.5c1.2-5.3,0.9-11,1.6-21
	c-12.4,7.4-21.9,12.3-30.5,18.4c-112,79.1-223.5,158.9-335.8,237.6c-197.2,138.1-391,280.8-580.5,429.2
	c-41,32.1-78.3,69-116.6,104.4C593.3,1894.4,587.3,1906,579.9,1916z M609.8,2910.8c476.3-57.6,949-121.8,1418.2-209.9
	c-10-2.7-19.9-2.9-29.6-4.2c-58.9-7.6-103.8-35.7-129.3-90.8c-4.1-8.8-7.1-18.5-8.5-28.1c-1.6-11.3,5.5-18.7,15.8-22
	c10.1-3.2,17,1.9,21.4,10.9c3.5,7.1,7.3,14,10.5,21.2c10.3,23.7,28.2,39.3,50.5,51.8c65.7,36.9,187.3,1.7,192.2-98.3
	c0.2-3.9,0.8-7.8,1.2-11.8c1-11.7,7.4-18.1,19.2-17.8c10.9,0.2,19.1,5.2,21.6,16.5c1.2,5.7,1.2,11.8,0.9,17.6
	c-2,49.6-24.4,88.5-62.7,119c-7.1,5.6-14.1,11.3-21.1,17c471.7-80.7,935.8-187.4,1397.2-312.5c9.4-132.6,14.4-263,9.5-396.6
	c-11.9,2.1-20.5,3.2-28.8,5.1c-87.2,20.7-174.2,42.8-261.7,62c-233.9,51.2-467.8,102.3-702.2,151c-132.1,27.4-265.1,51.2-398,74.2
	c-130.1,22.5-260.6,42.3-391,62.7c-95.4,14.9-190.8,29.6-286.4,43.3c-92.7,13.3-185.6,24.7-278.3,37.9
	c-177.6,25.2-355,51.1-532.5,76.7c-14.4,2.1-28.7,4.6-45.4,7.2C598.3,2632.5,604,2770,609.8,2910.8z M3487.8,2680.2
	c-317.1,84.7-630.2,164-946.3,231.3c-316.2,67.3-633.8,127.1-953.2,177.4c-319.2,50.3-639.4,92.6-962.5,131.4c0,9.4-0.2,17,0,24.6
	c1.5,40.4,2.3,80.9,4.8,121.3c1.9,29.5,5,59,9.4,88.2c5.2,34.1,13.6,41,49,41.7c32.5,0.7,65.2,1.3,97.7,0
	c178.6-7.3,355.8-29.5,532.3-55.9c142.3-21.3,284.6-43.7,426-70.2c244.1-45.9,487.6-95,731.1-143.5
	c107.3-21.4,214.2-44.6,321.3-66.9c193.1-40.1,384.1-88.2,572.4-147.3c39.9-12.5,64.3-35.7,79-72.5c4.4-11,8.4-22.1,11.7-33.5
	C3481.2,2834.6,3479.1,2760.2,3487.8,2680.2z M3506,2421c-7.4-0.9-9.4-1.7-11.2-1.3c-30.6,7.8-61.1,15.4-91.6,23.6
	c-258.9,69.8-519.5,132.3-781.5,189c-293.7,63.6-588.8,120.7-885.8,166.9c-207.4,32.2-415,63.1-622.9,92
	c-150.3,20.9-301.2,37.6-451.8,56.4c-16.3,2-32.4,4.9-50.5,7.7c3.4,74,6.7,145.3,10.1,220.1c487.8-56.3,969.7-123.4,1448-214.6
	c477.9-91.2,952.5-196.9,1420.2-329.8C3495,2558.8,3500.5,2490.4,3506,2421z M2536.8,630.8c2.2,5.7,2.6,9,4.4,11
	c34,39.3,58.3,84,74,133.4c3.9,12.4,12.8,18.2,25,22.5c17.4,6.2,35.1,13.4,50.3,23.6c13.7,9.1,25.5,21.9,36,34.8
	c15.1,18.4,33,26.6,56.8,24.3c17.6-1.7,35.4-1.4,53.2-2c39.5-1.2,70.3,15.3,94.3,46.1c12.1,15.6,24.7,30.8,37,46.1
	c12.6,15.6,28.9,23.2,49,22.7c20.7-0.5,41.4-1.2,62.1-0.8c42.8,0.8,72.6,22.2,87.6,62.3c5.2,13.8,9.4,28,14.4,41.9
	c9.9,27.7,13.7,30.3,42.2,32c22.6,1.3,45.3,2.1,67.8,4.8c35.5,4.2,56.3,24.2,64,59.5c2.7,12.5,4.6,25.3,8.2,37.5
	c8.2,27.3,16,32.9,44.1,34.5c45.2,2.6,90.5,5.2,135.7,8.1c22.3,1.4,43.2-3.2,62-15.4c11.4-7.4,14.2-16.3,8-30.1
	c-5.8-12.9-8.4-27.7-9.7-42c-1.5-15.6,0.4-31.5,0.3-47.3c-0.1-40.5-20.2-68.6-54.8-87.9c-30.6-17.1-63.7-19-97.5-18.6
	c-18.7,0.2-37.6,1.1-56.1-1c-27.5-3.1-37.3-14.8-39.2-42.7c-0.8-11.8-0.5-23.7-1.3-35.5c-4.4-58.4-41.2-98.3-98.7-109
	c-29.8-5.6-58.8-1.2-88.1,2.9c-21.4,3.1-42.9,7.5-64.4,8c-28,0.7-41.4-10.7-49.4-37.3c-3.4-11.3-5.4-23-8.7-34.4
	c-14.2-49.6-48-77.4-97.6-87.8c-45.5-9.5-87.7,1.1-129.2,19.1c-65.8,28.5-75.9,25.6-116.8-32.5c-21.9-31.1-49.9-53.1-87.9-60.2
	C2587.6,616.5,2562.1,619.9,2536.8,630.8z M1766.7,1036c-72.7,54.3-87.5,139.3-38.9,210.6c19.2,28.1,43.9,50.5,72.1,69.1
	c36.5,24.1,76.4,41,118.4,52.6c60.1,16.6,120.8,27.3,183.8,16.6c90.9-15.4,178.5-40.4,260.6-82.9c68.8-35.7,133-77.3,180.4-140.3
	c29.3-39,52.2-81.3,60-130.2c1.9-11.7,0.3-24,0.3-40.5c-5.7,6.7-8.1,8.6-9.5,11.1c-43.2,80.1-111.9,129-196.5,155.7
	c-156,49.3-313.6,55-471.3,8.4c-64.5-19.1-117.3-55.3-149.5-116.9C1774.5,1044.9,1770.9,1041.5,1766.7,1036z M2250,539.2
	c-0.5,1.7-1.8,3.5-1.5,5c1.7,7.7,3.8,15.3,5.8,22.9c22.3,87,4.4,166-48.9,237.1c-35.9,48-85.9,77-140,100.4
	c-34.3,14.8-68.7,29.9-101.2,48.1c-37.6,21-63.7,52.8-71.6,96.5c-11.1,62-5.6,61.2,46.4,77.7c3.8,1.2,7.6,2.1,11.4,3.1
	c57.4,14.7,115.7,22.2,177.3,21.8c20.6-70.5,75.8-110.9,129.4-153.1c18.5-14.6,36.5-30.2,52.8-47.1c28.2-29.4,49.3-63.4,61.6-103
	C2404.5,742.3,2354.2,616.9,2250,539.2z M2314,524.6c21.1,29.4,44.8,57.4,62.9,88.5c60.1,103.2,66,208.7,6.4,314.8
	c-25.6,45.5-62.9,80.5-103.2,112.7c-24.6,19.7-48.4,40.5-71.8,61.6c-13.8,12.4-26.5,26.1-29.9,46.3c4.1,1.5,6.7,3.3,9.2,3.3
	c10.8-0.1,21.7-0.4,32.5-1.3c12.8-1.1,25.5-2.7,38.2-4.6c70.7-10.5,139.1-28,200.9-65.7c75.8-46.2,119.7-112.5,126.7-201.9
	c5.9-75-20.7-139.8-66-197.1C2465.1,612,2392.5,564.7,2314,524.6z M2651.9,956.6c-1.3,13.4-2.3,19.9-2.5,26.4
	c-3.6,117.2-55.1,209.2-145.3,282.2c-62.9,50.9-134,86.3-207.9,117.1c-6.2,2.6-12.1,6-23,11.5c9.7,1.7,12.6,3,15.3,2.7
	c77.4-8.6,154.7-18.1,228.7-44.3c61-21.6,117.9-50.1,164.3-96.6c38.4-38.5,57.7-85.7,54.2-139
	C2731.7,1054.9,2699.5,1005.4,2651.9,956.6z M1843.9,1065.4c1.3-2.8,3.3-5.2,3.7-7.8c10.2-75.9,51.8-128.3,120.4-160.3
	c33.1-15.4,66.1-30.8,99.3-46c33.5-15.4,63.8-35.5,89.8-61.5c59.7-59.8,77.1-146.3,44.8-224.1c-4.9-11.9-13.1-22.4-19.8-33.5
	c-4.6,11.9-5.5,21.6-4.4,31c4,35.2-1.5,68.8-15.3,101.2c-26,61.1-71.4,103.3-130.5,131.3c-36.5,17.3-74.1,32.3-111,48.8
	c-30.9,13.8-58.7,32.1-81.9,57.2C1801,942.7,1798.8,1017.4,1843.9,1065.4z"/>
<path d="M2427.2,2525.6c-34.7,0.5-57.8-8.9-76.6-28.2c-42.1-43.2-48.1-113.2-14.5-163.2c32.5-48.2,99.2-55,141-14.3
	c37.8,36.8,50.3,95.4,30.8,144.3C2492.3,2503.5,2460.6,2525.5,2427.2,2525.6z"/>
<path d="M1726.6,2535.7c-0.5,69.2-45.7,116.7-103.6,114.2c-29.5-1.3-52.5-14.9-70.6-37.5c-37-46.3-34.1-119.9,6.4-163.3
	c38.7-41.6,101.7-39.8,137.3,4.6C1716.3,2479,1725.9,2508.7,1726.6,2535.7z"/>
</svg>
