<?xml version="1.0" encoding="utf-8"?>
<!-- Generator: Adobe Illustrator 24.3.0, SVG Export Plug-In . SVG Version: 6.00 Build 0)  -->
<svg version="1.1" id="Layer_1" xmlns="http://www.w3.org/2000/svg" xmlns:xlink="http://www.w3.org/1999/xlink" x="0px" y="0px"
	 viewBox="0 0 4000 4000" style="enable-background:new 0 0 4000 4000;" xml:space="preserve">
<path d="M3305,3168.6c2,20.4,22.8,36.8,2.6,54.4c-19.3,16.9-31.1-7.1-49-10.2c-14.5,11.5-29.7,23.8-45.1,35.8
	c-17.3,13.5-30.8,25.9-16.6,52c9.3,17-4.1,29.4-23.9,25.4c-6.2-1.3-12-4.8-17.7-8c-4.7-2.6-8.8-6.3-14.5-10.5
	c-282.8,192.4-598.7,279.5-935.3,292.9c-2.8,4.3-4.6,6-5,8c-2.3,13.2-3.8,27.6-20.6,29.6c-16.6,1.9-22.6-11.1-26.9-23.8
	c-4.3-12.7-13.3-16.5-25.3-16.3c-76.1,1.6-150.7-11.5-225.8-20.9c-114-14.3-223-46.1-329.5-88c-20.2-8-40.3-16-63.4-25.2
	c-3.8,10.7-7,18.4-9.3,26.3c-3.5,12-10.4,19.4-23.7,17.6c-12.6-1.7-19.6-9.8-20.3-22.2c-0.6-9.8-0.4-19.8,0.9-29.5
	c1.8-13.9-2.9-22.4-16.1-28.5c-19.7-9.1-38.4-20.1-60.4-31.8c-4.5,8.9-8.7,16-11.8,23.6c-5.4,13-12.3,24.9-28.5,20.4
	c-15.6-4.3-17.3-18.1-16.5-32c0.1-1.1-0.1-2.3,0.3-3.3c14.4-34.5-6.9-48.6-32-66.7c-62.1-44.9-121.2-94-181.5-141.4
	c-4.2-3.3-8.5-6.4-13.5-10.1c-10.7,7.1-19.9,15.2-30.5,20c-18.4,8.3-30-0.8-28.4-21c0.4-5.4,0.7-11.5,3.2-16
	c14.2-24.9,1-38.5-17.3-54.6c-59.5-52.3-110.6-112.5-156.7-176.9c-6.9-9.6-14-19.1-21.3-29c-9.3,3.1-16.4,7.5-23.5,7.4
	c-8.8-0.1-21.2-1.1-25.5-6.7c-4.6-6-3.6-18.4-1.3-27c2.2-7.9,9.4-14.5,15.2-22.8c-13.3-19.9-26.5-39.5-40.2-59.9
	c-9.8,4-17.5,8.3-25.8,10.1c-11.6,2.4-25.1,5.8-32.1-7.9c-6.3-12.2-2.2-23.4,8.1-32.3c5.8-5,11.6-10,20.2-17.4
	c-13.1-23.2-25.8-47-39.7-70.1c-8.3-13.7-23.2-14.4-37.5-16.8c-29-4.9-34.4-10.3-43.9-40.1c12.4-4.8,25.1-9.7,41.4-16.1
	c-6.2-12.7-11.9-25.3-18.3-37.5c-77.5-148.8-133.6-304.9-164.7-470.1c-42.4-225.4-12.6-440.7,84.6-647.7
	c93-198,228.8-363.8,389.4-509.1c269.5-243.8,580.4-414.9,930.2-514.7c209.2-59.7,422.3-90,640.2-81.7
	c201.2,7.7,396.6,45.1,582.8,122.6c160.2,66.6,300.4,163.2,414.7,294.9c91.5,105.4,151.1,227.6,188.1,361.8
	c48.8,177.3,78.5,357.5,92.6,540.7c10.9,141.6,11,282.7-6.8,423.7c-1.4,10.9-3.6,21.6-5.9,32.3c-4.8,22.5-4.9,41.4,18.2,57.2
	c20.1,13.8,15,32.6-9,36c-21.5,3-29.3,13.1-33.7,32.8c-14.2,63.1-30.5,125.8-45,188.8c-2.3,9.8-2.9,23,1.9,30.7
	c8.7,14.1,4.8,23.9-6.1,30.8c-24.7,15.5-31.4,40.5-40,65.6c-13.9,40.4-29.3,80.3-44.7,120.1c-6.8,17.5-15.1,33.4-1.9,52.4
	c7.6,10.9,1.4,22.9-12.2,24.1c-22.4,2-30,17.1-39.3,34.2c-54.1,99.5-116.4,193.6-188,281.4c-16.6,20.3-35.6,38.7-53.5,58
	C3324.1,3147.8,3313.9,3159,3305,3168.6z M1695.7,2639.6c132,1,262.9-12.2,392.7-34.9c143.9-25.1,284.4-62.9,421.4-114.2
	c225.9-84.6,433.6-200.3,617.9-356.8c132.3-112.5,246.6-240.4,330.9-393.1c85.6-155.1,139.9-318.8,131-499.2
	c-5-101.8-32.1-196.7-82.9-284.6c-83.7-144.9-206.1-249.1-351.4-328.1c-147.5-80.2-306.6-124.7-471.7-146.8
	c-212.9-28.5-424.9-17.3-634.4,29.2c-261.6,58.1-505.2,160.8-730.8,305c-225.1,143.9-421.7,318.4-568.2,544.5
	c-87.6,135.1-152.2,279.3-168.1,441.5c-23.4,237.7,56.8,432.4,243.9,582.7c138.2,110.9,296.8,176.6,468,214.8
	C1426.1,2629,1560.4,2640.1,1695.7,2639.6z M868.4,2725.5c5.5,9.7,13.1,20.6,18.2,32.5c8.4,19.3,19,33.3,42.6,35.2
	c15.5,1.3,20.4,13.5,18.8,29.2c-0.9,8.9-0.6,20.9,4.6,27.1c51.7,62.5,104.6,124,157.1,185.8c37.7,15.2,58.4,48.9,85.6,76
	c30.9,30.8,68.4,54.9,101.3,83.8c55,48.3,122.4,76.6,182.5,116.6c9.6,6.4,22.5,12.2,33.4,11.4c20.1-1.5,33,4.3,43.9,21.2
	c4.9,7.5,15.3,12,23.9,16.4c11.7,5.8,24.3,10.1,36.4,15.1c85.3,35.6,173.8,60.6,264.4,78.2c14.4,2.8,26.6,3.9,37.9-10.5
	c15-19,25.4-18.1,37.6,2.1c8.8,14.5,18.3,23,35.9,23.8c44.9,2,89.7,5.2,134.6,8.1c16.9,1.1,32.5-0.3,45.5-13.4
	c11.2-11.3,22.1-9.1,34.5,1.4c7.5,6.3,19.3,9.1,29.5,10.2c13,1.4,26.3-0.5,39.4-0.9c31.2-0.9,30.5-1.2,43.3-30.8
	c3.4-7.9,12.6-17.6,20.1-18.4c7-0.7,16.5,7.9,22.3,14.7c5.2,6.1,6.8,15.2,10.6,24.4c19.9-3.1,38.2-6.2,56.5-8.6
	c96.1-12.4,189.1-37,280-70.4c31.2-11.4,63.7-20.4,69.5-60.5c0.2-1,0.8-2.1,1.4-3c9.1-13.7,21.6-14.9,32.2-2.2
	c5.3,6.4,8.9,14.1,14.5,23.3c22.2-10.7,45.4-17.5,62.3-31.7c8.8-7.4,6.6-27.8,9.4-42.4c0.2-1.1,0.1-2.5,0.7-3.2
	c5.9-5.9,11.3-15.3,18.1-16.5c6.4-1.1,15.4,5.2,21.4,10.4c6.1,5.3,9.8,13.2,16.3,22.4c50.3-39.2,111.7-56.8,152.4-105.8
	c6.1-7.3,15.9-11.5,23.7-17.6c18.1-14.2,36.9-27.7,53.9-43c125.5-113.1,221.7-248.1,297.7-398.4c9-17.9,15.2-33.4-0.2-50.6
	c-3-3.4-2.5-10-4.6-19.6c39.3,2.9,47.3-26.7,58.4-52.9c5.2-12.1,9.1-24.8,14.8-36.6c5.4-11,4.5-19.5-2.3-30.3
	c-16.2-25.6-14.8-30.8,13.1-44.4c13.4-6.6,19.8-15.9,23.3-29.4c23-89.1,51.8-176.7,65.5-268.1c2.9-19.5,5-34.8-12.7-49.6
	c-13.8-11.6-10.3-24.4,7.4-28.8c21.6-5.3,27.9-18.6,29.2-37.7c4.2-64.6,11.4-129.1,12.2-193.7c1.9-159.4-13.3-317.7-38.7-475
	c-2.7-16.7-7.1-33.1-10.7-49.7c-10.7,31.7-13.6,62.9-19.5,93.5c-29.2,149.8-92.1,286.3-175.8,412
	c-112.5,168.9-255.8,308.2-423.2,423.5c-186.7,128.6-388.1,226.2-603.8,294.6c-208,66-421.3,102.9-639.4,112.9
	c-215.7,9.9-427.2-13.7-632.9-80.1c-183.3-59.2-342.8-156-467.3-305.7c-5.2-6.2-11.5-11.5-17.3-17.1c-0.2,13.6,2.4,25.2,7.1,35.9
	c35.9,81.2,71.3,162.7,108.7,243.2c15.2,32.7,34.4,63.6,53.2,94.5c4.5,7.4,13.8,14.4,22.1,16.6c40.3,10.4,40.5,9.8,20.3,44.9
	C868.7,2720.9,868.9,2722.1,868.4,2725.5z"/>
<path d="M1660.8,1332.5c1.8-3.7,3.8-6.3,4.3-9.2c6.1-32.1,25.6-49.3,57.6-54.3c23.5-3.7,46.7-9,72.4-14.1
	c-2.2-10.6-3.6-17.4-5.4-26.1c-4.4,2.4-8,3.1-9.2,5.1c-10.6,17.9-25.3,18.8-42.5,10.9c-23.1-10.6-45.8-20.9-56.8-46.8
	c-14.5-34.3-3.9-57.6,32-67.1c4-1.1,8.2-1.8,15.5-3.5c-5.4-9.1-9.2-16.6-14.1-23.3c-43.2-58.1-86.5-116.1-129.8-174.1
	c-6.6-8.8-14-17-19.8-26.2c-13.3-21-11.8-26.6,12.8-48.9c8.2,7.5,18.1,14.2,24.9,23.3c74.8,100.2,149.2,200.6,223.3,301.3
	c10.9,14.8,19.2,31.6,30.2,50c36.4-18.2,56.6-49.1,73-82.2c3.9-7.9-0.7-21.4-4.1-31.3c-40.4-118.2-81.5-236.3-122.1-354.4
	c-8.7-25.2-5.6-36.8,9-42.4c16.1-6.2,26.6,2.3,35.4,28.9c37.1,111.3,75.1,222.3,110.7,334.2c10.9,34.4,28.3,54.7,65.7,57.3
	c13.7,0.9,27,8.3,40.3,13.3c22.6,8.5,44.3,8.5,68.8-5.7c-7.4-5.1-12.5-8.4-17.5-12c-30.1-21.7-41-70.4-23.2-103.3
	c12.5-22.9,24.4-26,60.1-14.4c1.8-8.5,4.2-16.7,5.2-25.1c12-105.7,23.8-211.3,35.8-317c0.9-7.6,1.1-16.4,5.2-22.1
	c4.4-5.9,12.8-11.5,19.9-12.1c10-0.9,19.8,4.1,20.2,16.7c0.3,9.8-0.2,19.8-1.3,29.5c-14.7,128.6-29.5,257.2-44.6,385.7
	c-1.9,16.2-6,32.1-9.5,50c16.5,4.3,23.6-4.4,27.1-20.8c3.3-16,6.2-32.6,12.9-47.3c11.9-25.8,32.8-27.5,51.7-6.2
	c24,27.1,20.8,65-8.1,97c21.9,29.2,56.1,38.2,92.3,24.4c57.5-22,57.5-22,102.5-87.9c-3-3.6-5.9-8.1-9.6-11.5
	c-12.7-11.8-29.2-22.1-23.4-43.2c8-29.2,20.8-56,50.3-69.6c14-6.4,34,0.8,43.8,14.2c5,6.9,8.5,14.9,14.9,26.4
	c9.2-9.5,17.7-17.2,24.9-25.9c63.4-75.7,126.5-151.6,190.1-227.2c6.9-8.3,15-16.9,24.4-21.4c6.2-3,18.3-1.6,23.2,2.8
	c4.9,4.5,6.5,15.5,5.2,23c-1.1,6.8-7.5,13.2-12.4,19c-80.7,95.6-161.1,191.4-242.6,286.3c-29.3,34-61.6,65.5-92.2,98.3
	c-5.1,5.4-9,11.9-14.6,19.3c24.7,17,35.1,39.1,33.9,67.8c-0.4,9.1,4.6,19.2,9.4,27.6c13,22.6,26.5,26.1,48.8,11.6
	c191.5-124.6,397.3-223.7,596.9-333.9c6.7-3.7,13.5-7.6,20.8-9.8c11.5-3.4,21.9-1.5,27.9,10.6c5.7,11.5,3.5,22-7,28.9
	c-11.9,7.8-24.7,14.2-37.2,20.9c-118.9,63.6-237.8,127.2-357.6,191.3c3.6,19.6,30.8,32.8,16.2,53.5c-11,15.5-25.7,30.7-42.3,39.4
	c-35.4,18.7-57.4,7.8-76.8-34c-55.4,32.5-110.7,64.9-165.5,97.1c18.8,51.5,43.5,71.9,92.4,70c77.7-3.1,155.4-8.9,233-14.5
	c108.3-7.7,216.6-16.2,324.9-24.3c31.7-2.4,63.4-5.1,95.1-7.1c7.5-0.5,17-1.3,22.3,2.6c5.9,4.4,10.3,13.6,11.3,21.2
	c1.5,11.6-7.6,18.3-17.9,19.9c-22.7,3.5-45.6,6.4-68.5,8.1c-134.5,10-269.1,19.3-403.7,29.3c-72.2,5.4-144.3,12-216.4,17.9
	c-31.4,2.6-53.3,19.1-66.5,46.8c-9.6,20.2-6.1,29.6,13.9,39.8c10.5,5.4,22.2,8.6,39.4,15c-5.5-12.5-9.4-19.7-11.9-27.2
	c-8.9-26.9,3.3-51.1,31-53.7c20-1.9,41.3,1.8,60.8,7.2c14.6,4.1,28.1,16.2,28,33.1c0,18.5-10.8,33.3-27.6,41.8
	c-8.5,4.3-18.1,6.5-28.3,15c30.5,9.5,61,18.9,91.6,28.4c114.1,35.4,228.1,70.8,342.1,106.4c8.3,2.6,18.3,4.5,23.8,10.3
	c5.8,6.1,10.4,16.6,9.8,24.8c-0.8,12.3-12.2,14.6-22.7,12.3c-19.2-4.3-38.4-8.8-57.2-14.7c-107.8-33.6-215.5-67.6-323.3-101.3
	c-37.7-11.8-75-24.8-113.2-34.6c-30.7-7.8-62.4-11.9-93.7-17.1c-17.6-2.9-32.1,5.4-45.5,15.4c-25.7,19.4-25.5,36.5-1.3,58.1
	c10.4,9.3,19.7,20.4,27.4,32.1c10.4,15.7,6.9,31.6-4.7,45.5c-10.8,12.9-32.4,17.9-48,11.6c-7.8-3.1-15.2-7.1-27-6.6
	c4.5,6.2,8.6,12.8,13.6,18.7c78.1,92,156.3,183.9,234.3,275.9c5.6,6.7,10.7,13.9,15.2,21.4c5.9,9.8,4.2,19.1-4.9,26.3
	c-9.5,7.5-19.7,10-29.4,0.3c-4.6-4.6-8.4-10.1-12.6-15.1c-77.7-92.3-155.4-184.6-232.9-277c-8.3-9.9-15.5-20.6-24.2-32.2
	c-4.4,3.8-8.1,6.1-10.6,9.4c-18.1,23.2-41.7,25.7-68.1,19.1c-48.9-12.1-53-8.7-50.8,41.8c0.5,10.8,2.2,21.5,3.2,31.6
	c49.7,9.3,80.6,47.9,80,97.5c-0.3,22-8.9,35.7-26.1,41.2c-18.8,6-31.7-2.8-42.4-17c-4.5-5.9-9-11.8-17.9-23.4c0,13-1.2,19.8,0.2,26
	c20.6,90.9,41.6,181.7,62.1,272.6c2.4,10.6,4.2,22.1,2.2,32.5c-1.3,6.8-8.8,14.8-15.4,17.8c-9.9,4.3-20,0.1-23.7-11.2
	c-4.8-14.5-8.9-29.4-12.2-44.3c-15.9-71.7-31.3-143.6-47.1-215.4c-1.6-7.3-4.5-14.4-7.6-24c-10.2,2.2-19.4,4.6-28.7,6.1
	c-22.7,3.8-34.2-0.8-40.5-22.9c-5.9-20.7-8.9-43-8-64.5c0.4-11.2,10.5-23.2,18.8-32.5c6.2-6.9,16.5-10.1,27.6-16.4
	c-3.5-16.3-7-32.6-10.5-48.9c-17.4,14.1-33.8,26-48.3,39.9c-5.5,5.2-9.2,15.3-9,22.9c3,80,6.9,160,10.7,240
	c0.4,7.7,1.8,15.3,1.9,22.9c0.4,24-7.8,35.4-24.6,35c-13.1-0.3-20.3-9.9-21.3-31.7c-1.9-40.6-2.5-81.2-4.3-121.7
	c-2.2-49.2-5.4-98.4-7.5-147.7c-0.6-13-3.5-23.9-15.8-30.1c-19.6-9.8-38.6-21.2-59-28.7c-33-12-46.4-6.2-59.4,26.1
	c-17.5,43.7-34,88-49.1,132.6c-39.3,116.4-77.4,233.1-116.3,349.6c-9.9,29.6-19.7,36.9-37.3,30.9c-13.7-4.7-16-15.8-5.7-46.3
	c33.3-98.7,67-197.2,101.1-295.6c18.3-52.8,37.9-105.2,56.5-157.9c3.8-10.9,6.1-22.3,9.1-33.4c-2-1.7-4.1-3.4-6.1-5.1
	c-12,8-24.9,15-36,24.2c-38.3,31.8-48.3,33.2-90.7,9.6c-21.1-11.8-21.7-11.8-38.3,6.7c-117.3,130.5-234.6,261.1-351.9,391.7
	c-6.6,7.3-12.3,16.7-20.6,20.9c-7.4,3.8-19.5,5.3-26.4,1.7c-10.9-5.7-11.8-17.8-4.7-28.6c4.2-6.4,9.2-12.3,14.3-18
	c102.1-113.2,204.6-226.1,306.2-339.9c25.5-28.5,49.8-58.5,70.9-90.3c18.1-27.2,13.7-46-7.1-64.5c-17.1-15.3-27.6-15.8-46.6-1.7
	c-7.7,5.7-14.7,12.4-22.2,18.8c2.9,2.3,4.4,4.6,6,4.6c45.2,0.2,57.8,20.6,35.9,59.6c-14.4,25.8-33.7,46.1-64.8,50.8
	c-28.1,4.2-54.3-13.7-56.8-41.5c-0.8-9.3,5-21.2,11.5-28.6c12.2-13.8,27.1-25.3,42.2-38.9c-10-15.2-19.4-29.4-30.5-46.3
	c-10.8,4.2-20.9,7.3-30.4,11.9c-73.1,35.1-145.6,71.3-219.1,105.4c-107.4,49.8-215.5,98.2-323.4,147.1c-10,4.5-19.9,9.3-30.2,12.9
	c-11.8,4.2-21.5,1.1-27.3-10.9c-5.6-11.5-4.4-21.7,6.5-28.8c9.1-6,19-11,28.9-15.4c111.1-49.6,222.4-98.9,333.4-148.6
	c17.8-8,34.9-17.5,53.3-26.9c-5.6-23-26.2-42.9-10.4-63.8c9.9-13.2,25.3-24.6,40.6-31c36.5-15.2,56.6-2.3,76.1,47
	c53.6-24.8,116.6-33.2,147.2-94.2c5.3-10.6,10.5-22.1,12-33.7c2.7-21.4-12.3-35.1-34-34.1c-12.8,0.6-21.1,5.6-21.2,19.5
	c-0.1,19.5-3.2,37.4-22.1,48.1c-23.7,13.4-49.5,18.1-76.1,14.5c-16.6-2.3-25.2-14.6-26-33c-0.6-13-0.1-26.1-0.1-41.1
	c-7.9,0-16.2-0.3-24.4,0.1c-141.3,6.9-282.7,13.8-424,20.8c-28.5,1.4-57,3.8-85.4,3.9c-8.7,0-20.5-3.7-25.5-10
	c-12.8-15.9-2.2-33.4,20.4-34.8c42.7-2.6,85.5-4.4,128.2-6.3c135.9-5.9,271.8-12.1,407.7-17.4c39.4-1.5,79-0.3,118.5-0.4
	c7.4,0,14.7-0.8,22.2-1.2c-7.4-50.3-6.9-48.9,43.2-67.3c21.1-7.8,41.1-20.9,58.5-35.4c21.8-18.2,21.5-39,3-68.2
	c-4.3,8.5-7.7,16.1-11.9,23.3c-21.4,36.9-75.6,38.8-99.4,3.3c-8.7-12.9-10.3-26.6,0.1-39.5c4.8-5.9,10.4-11.1,17.7-18.8
	c-7.2-4.5-12.7-9.1-19.1-11.8c-132.2-56.3-264.4-112.4-396.7-168.5c-6.1-2.6-12.5-4.4-18.2-7.5c-15.2-8.1-20.6-21.9-14.3-35.4
	c5.5-11.9,16.5-15.3,33.9-8c60.6,25.5,121.1,51.5,181.4,77.5c93.6,40.4,187.1,80.9,280.5,121.6
	C1623.1,1314.4,1641.6,1323.5,1660.8,1332.5z M2530.9,1433.9c-5.7-5-8.5-8.5-12.1-10.4c-33.6-18.2-53.1-44.3-50.2-84.6
	c0.6-7.8-5.4-16.1-8.8-24c-9.6-22-21.3-43.3-28.7-65.9c-15.1-46.2-15.4-48.4-61.5-33.6c-50.1,16.1-94.7,13.9-132.5-27.2
	c-16.7-18.1-37.5-23.7-59.5-11.1c-54.6,31.2-109.9,31.8-167,7.7c-27.4-11.5-46.8-2.9-63.9,22.1c-13.2,19.3-30.7,38.4-50.7,49.8
	c-44.8,25.5-93,44.2-144.1,54c-56.6,10.8-47.1,17.2-44.2,57.4c2.3,32.1-1.3,63.4-19.3,91.7c-13.8,21.7-36.1,31.1-57.2,42.6
	c-11.9,6.5-23.1,14-36.5,22.2c46.9,54.3,43.9,106.3,5.6,159c-3.2,4.5-2.8,11.5-4.3,18.3c16.1,3.1,30,6.1,44,8.4
	c37.7,6.2,60.2,29.3,71.4,64.5c4,12.5,5.7,25.7,9.3,38.3c10,35.3,27.9,41.2,57.5,19.2c2.6-2,5.1-4.2,7.6-6.3
	c22-18.4,47.5-26.6,76.1-25.6c18.6,0.6,37.3,1.9,55.9,1.5c32.8-0.8,62.6,7.8,90.7,24.5c33.7,19.9,42,18.9,72.6-6.2
	c7.6-6.2,15-13,21.3-20.5c44-51.9,98.4-62.1,160.1-38.9c16,6,28.2,5,36.7-9.7c16.4-28.5,38.2-50.6,71.5-59.1
	c3.8-31.9-5.8-67,17.9-89.8c22.2-21.4,51.2-35.8,78.4-54.2C2466.5,1501.1,2488.3,1463.9,2530.9,1433.9z M2182.7,1812.4
	c-3.2,0.5-6.5,0.9-9.7,1.4c6.4,30.8,12.9,61.7,19.3,92.5c2.8-0.6,5.6-1.1,8.3-1.7C2205.4,1871.9,2198.2,1841.4,2182.7,1812.4z"/>
<path d="M2300.6,1100c6-18.6,10.6-37.8,18.3-55.6c29.4-68.2,59.8-136.1,90.1-203.9c4.4-9.9,8.9-21.1,16.7-27.6
	c6-5,18.5-6.8,25.8-4.1c5.2,1.9,10.1,14.5,8.9,21.3c-2.4,13.7-8.1,27.2-14,40c-17.8,38.7-37.2,76.7-54.4,115.7
	c-12.5,28.2-11.9,31.9,12.7,49.4c16.7,11.8,20.4,24.7,13,41.8c-9,20.9-18.8,41.6-29.1,62c-6.9,13.6-19,16.4-33.5,13.9
	C2319.5,1146.7,2302.6,1130,2300.6,1100z"/>
<path d="M2583.7,1719.2c12.1,13.1,22,23.9,35.7,38.7c-12.8,2.4-20.3,6.2-26.5,4.6c-45.1-11.6-82.9-34.4-105.2-77
	c-13.6-26-4.9-49.1,23.4-56.1c19.7-4.8,41.6-5.7,61.6-2.5c31.4,5,43.6,34.1,29,62.8C2596.8,1699.4,2590.4,1708.2,2583.7,1719.2z"/>
<path d="M2618.1,1090.4c22.9,0.1,35.7,12.2,28.6,32.4c-14.5,41-36.8,77.3-81.9,91.1c-9.8,3-21.7,2.5-31.9,0.2
	c-13-2.9-19.2-12.6-18.3-27C2517.1,1148,2578.5,1090.2,2618.1,1090.4z"/>
<path d="M1646.8,1234.2c0.8,22.6-9.8,35.2-29.2,35.1c-39.9-0.1-70.9-19.5-94.9-49.7c-11.7-14.7-8.9-34.9,3.2-51.8
	c10-14,21.3-17,43.7-10.2c31.7,9.6,56,28.6,70.8,58.7C1643.5,1223.1,1645.4,1230.5,1646.8,1234.2z"/>
<path d="M1460.9,1526.4c-13.6-2.2-29.2-3.1-43.6-7.6c-20.2-6.3-35.1-30-32.8-48.2c2.2-17.3,20.4-33.1,41.8-36.2
	c37.1-5.4,73.8,11.7,92.6,43.1c11.4,19.1,4.7,37.2-17.1,43.1C1489.1,1523.9,1475.7,1524.3,1460.9,1526.4z"/>
<path d="M1356.5,1877.6c0.9-2.8,2.3-10.4,5.9-16.8c15.5-27.7,61.4-48.8,93.1-43.5c28.9,4.8,35.8,19.7,22.4,45.8
	c-15.9,30.8-38.6,52.1-73.7,58.8C1374.3,1927.5,1355.9,1912.7,1356.5,1877.6z"/>
<path d="M1752.3,1949.6c-5.3,32.4-19.9,64.7-48.7,88.8c-12.8,10.8-28.4,10.1-43.1,2.2c-15-8-16.6-21.9-14.6-36.7
	c4.7-35.9,25.5-62.7,53.3-82.7C1722.6,1904.4,1751.5,1919.2,1752.3,1949.6z"/>
<path d="M1891.2,1115c-0.6,27-22.5,40.4-44.8,25.6c-28-18.5-49.2-43.7-60.3-76c-6.7-19.7,0.6-37.3,18-48.2c16-9.9,33.1-7.7,48,6.1
	C1868.7,1038.1,1891.7,1092.4,1891.2,1115z"/>
<path d="M2649.6,1763.9c29.3-1,74.7,26.7,86.4,52.5c7.5,16.5,6.1,32.1-4.5,46.6c-9.7,13.3-24.8,16.1-38.5,12.1
	c-32.9-9.7-59.7-28.6-71-62.6C2613.3,1785.9,2626.4,1764.6,2649.6,1763.9z"/>
<path d="M2648.7,1410c-2.3-0.2-9.1,0.3-15.2-1.7c-16.7-5.3-28.2-16.7-32.4-33.9c-4.1-17.2,4.5-29.7,17.8-39.2
	c25.7-18.4,54.6-22.4,84.2-14c28.9,8.2,35.4,43.2,12.8,66.1C2698.8,1404.7,2676.8,1410.4,2648.7,1410z"/>
<path d="M1657.6,2119.5c-3.9,28.5-13.9,54.6-37.3,73.5c-15.9,12.7-36.8,12.9-51.7,2c-13.3-9.8-20.3-25.9-11.8-43.8
	c10.1-21.2,23.9-41.3,39.2-59.1c10.5-12.2,26.9-12.4,42.5-5.1C1652.3,2093.6,1656.2,2105.3,1657.6,2119.5z"/>
<path d="M1973.4,1925.3c-6.5,19.5-11.4,39.7-19.9,58.2c-10.2,22-25.7,29.2-44.5,24.7c-16.9-4-34-25.4-30.8-45.3
	c3.3-21.2,9.6-42.8,19.1-62c10.6-21.4,27.1-26.2,46.1-19.6C1964.5,1888.8,1970.5,1898.4,1973.4,1925.3z"/>
<path d="M2290,2076.8c3.3-12.9,4.5-21.6,7.7-29.6c9.6-23.8,27.6-29.4,50-16.2c25.6,15.1,43,52.3,37.8,82c-3,17.1-10,31.2-28.8,36
	c-16.6,4.3-36.4-1-45.6-17.8C2301.4,2113.5,2296.1,2093.2,2290,2076.8z"/>
<path d="M1514.5,1078.2c-0.8,30.7-23.5,49.3-48.7,43.9c-24.5-5.2-44.2-18.1-57.1-39.9c-11.1-18.7-9.1-40.1,4.4-54.4
	c13.8-14.6,29.3-17.5,50.6-7.4C1490.3,1033.1,1510.7,1051.5,1514.5,1078.2z"/>
<path d="M2060.9,1055.6c-2.6,14.3-3.8,26.3-7.1,37.8c-5,17.5-20,22.2-35.7,23.8c-15.1,1.6-26.3-6.8-29.5-20.7
	c-5.5-24.2-10.8-49-11.4-73.6c-0.5-21,13.8-35.1,30-37.7c18-2.9,34.5,6.8,42.8,28.2C2055.4,1027.5,2057.7,1042.7,2060.9,1055.6z"/>
<path d="M2878.2,1266.1c30.4,0.5,51.1,15.2,54.5,36.6c3.6,22-10.4,41.4-37.1,50.7c-18.8,6.6-37.8,10.5-57.5,2.8
	c-26.2-10.2-35-35.7-18.5-58C2834.7,1277.9,2855.6,1267.2,2878.2,1266.1z"/>
<path d="M2390.8,1890.3c0.5,23.9-7.8,37.6-26.4,43.6c-20.8,6.8-38.8,1.6-50.4-18.6c-9.1-15.8-17-33.3-20.5-51
	c-5.6-27.8,13.7-46.1,41.7-43.2C2368.6,1824.7,2390,1851.3,2390.8,1890.3z"/>
<path d="M2735.9,1061c-28.4,0.3-46.2-29.5-32.1-56.1c13.3-25.2,35-42,63.1-48c32-6.9,53.3,17.4,43.9,48.8
	C2802.7,1032.7,2764.8,1060.7,2735.9,1061z"/>
<path d="M1964.3,2087.4c-3.8,23.3-9,43.3-24.7,58.8c-21.4,21.2-48.8,16.5-62.3-10c-14.6-28.7,2.8-84.7,31.3-99c13-6.5,27-6,35.2,6.9
	C1952.3,2057.4,1957.6,2072.9,1964.3,2087.4z"/>
<path d="M1986.4,862.4c2.3-25.6,14.9-44.6,33.7-48.2c18.1-3.5,37,7,46.6,28.7c11.5,25.9,16.3,52.7-3.4,77.4
	c-21.8,27.2-53.8,22.3-65.4-10.5C1992.4,894.6,1990.1,878.3,1986.4,862.4z"/>
<path d="M1346.5,1982.2c-1.3,32.6-50.3,74.4-83,71c-22.2-2.4-36.6-26.6-29-49.2c9.1-27.4,54.4-57.2,83.1-54.7
	C1335.8,1950.8,1347.3,1963.9,1346.5,1982.2z"/>
<path d="M1511.2,1942.2c-5,31.8-18.8,59.1-51,73.6c-15.2,6.8-30,6.7-42.5-5.6c-11.7-11.5-18.1-26.1-11.4-41.7
	c12.6-29.4,34-51.2,65.9-58.4C1496.4,1904.6,1511.8,1918.2,1511.2,1942.2z"/>
<path d="M1250.5,1640.9c28.2,4,44.7,14.8,49.8,35.4c5.7,23-10.4,44.3-41.3,54.4c-34.7,11.4-63.2,4.5-72.6-17.6
	c-6.8-16.1-3.3-37.1,12.1-47.2C1214.5,1655.4,1233.1,1649,1250.5,1640.9z"/>
<path d="M1448.3,1406.9c-14.4-5-27.5-7.7-38.5-13.8c-18.9-10.4-28.6-31-24.1-46c6.2-20.9,31.2-38,53.2-35.6
	c29.7,3.3,49.8,20.7,64.3,45.6c8.3,14.4,2.5,27-9.8,33.6C1479.6,1398.4,1463.4,1401.8,1448.3,1406.9z"/>
<path d="M2576.6,1849.9c-0.5,29.4-32,50.6-57.9,36.8c-21.2-11.3-39-27.8-45.4-53c-8.3-32.7,17.5-58.7,50-50.4
	C2552.3,1790.8,2577.1,1821.7,2576.6,1849.9z"/>
<path d="M1248.9,1475.5c-6.7-0.3-8.9-0.3-11.1-0.5c-30.2-2.2-51.8-20.5-51.9-44c-0.1-22.8,22.8-44.4,51.4-45
	c13.6-0.3,28.2,3.3,40.7,9c15.2,6.8,27,18.9,26.4,37.8c-0.5,16.9-15,33.7-34.3,39.4C1261.9,1474.4,1253.1,1474.8,1248.9,1475.5z"/>
<path d="M2780.3,1577.3c-37.5-0.1-59.5-16.9-58.7-42.3c0.9-27.8,24.5-48.1,57-45c15.4,1.5,31.2,8.6,44.8,16.6
	c13,7.6,18,21.9,13.8,37.3c-4.3,15.9-14.1,27-31,30C2796.4,1575.6,2786.6,1576.5,2780.3,1577.3z"/>
<path d="M2337.5,920c-8.8,18.2-15.3,38.1-27.1,54.2c-15.1,20.5-39.5,18.2-55.1-2c-21.5-27.8-4.5-85.7,28.5-97
	C2310.3,866.1,2334.9,887.3,2337.5,920z"/>
<path d="M2006.1,2995.3c45.4-0.4,82.2,33,95.3,85.8c11.5,46.5-7.4,94.3-44.8,113.5c-42.7,21.9-92,7.5-116.9-34
	c-28.3-47.3-22.3-106.8,14.5-142.5C1968.8,3003.9,1985.6,2994.3,2006.1,2995.3z"/>
<path d="M2775.3,2973.6c-4.7,25-9.3,47-24.5,66.1c-27.6,34.5-74.7,43.2-112.1,20.2c-59.4-36.5-67.6-126.8-15.9-173.4
	c40.2-36.3,99.2-26.6,128.9,23.6C2763,2929.2,2767.6,2952.3,2775.3,2973.6z"/>
<path d="M2351.4,3258.2c-45.4-1.9-90.1-20.7-117.3-70c-5.2-9.3-8.1-20.3-10-30.9c-1.8-10.3,1.8-21.7,13.3-23
	c8.2-0.9,18.7,3,25.4,8.2c6.4,5,9,14.7,13.4,22.3c19.5,34.1,56.2,52.2,94.3,45.3c15-2.7,30.1-6.9,44.1-12.8
	c31.8-13.5,50.7-37.4,53.4-72.7c0.6-7.7,0.9-15.3,1.6-23c0.9-10.3,2.7-20.8,15.6-21.4c12.9-0.6,25.1,4.2,28,17.9
	c2.5,11.5,2.4,24.1,0.7,35.8C2503,3209.4,2442,3258.3,2351.4,3258.2z"/>
<path d="M3224.3,2912.5c-6,22.3-9,41-16.1,57.9c-11.8,28.1-25.5,55.4-40,82.2c-6.2,11.5-17.8,16-30.8,8.3c-13-7.7-9.8-18.7-4.1-28.4
	c22.3-38.1,35.5-79.6,47.3-121.7c3.5-12.4,10.2-24.4,25-18.5C3213.6,2895.5,3218.7,2906.2,3224.3,2912.5z"/>
<path d="M3489.3,2203c34.6-5.7,45-0.9,46.1,23.6c1.7,38.1,1.4,76.4,0,114.6c-0.7,20-12.1,27.2-31,21.4c-5.9-1.8-14.3-9.3-14.4-14.3
	C3488.8,2299.6,3489.3,2250.9,3489.3,2203z"/>
<path d="M3547.8,1982.2c-3-21.5-5.9-43.1-9.1-64.6c-1.7-11.6-1.6-22.2,12.1-26.3c12.3-3.7,30.2,2.5,33,14.2
	c10.1,41.5,16.6,83.6,2.3,125.7c-3.7,10.8-12.4,14.7-23.4,13.4c-11.6-1.3-17.5-8.9-18.2-19.7c-0.8-14.1-0.2-28.3-0.2-42.4
	C3545.5,1982.4,3546.6,1982.3,3547.8,1982.2z"/>
<path d="M1638.5,3092.7c-1.3,16.2-16.3,26-29.7,21c-6.8-2.6-13.7-7.6-18.1-13.3c-17.9-23.4-35.4-47.3-51.9-71.7
	c-4.7-6.9-9.3-17.2-7.5-24.4c2.3-9.3,9.6-19.1,17.6-24.4c3.7-2.4,15,4.5,21.3,9.3c4.9,3.7,7.2,10.8,10.8,16.3
	c15.7,23.5,31.5,47,47.2,70.6C1632.3,3082.3,1636,3088.7,1638.5,3092.7z"/>
<path d="M1032.3,2697.9c-0.1-18.6,4.6-28.8,19.3-31.3c14.1-2.4,18.9,6.5,22.5,18.1c9.9,32.3,17,65.8,40.3,92.4
	c6.8,7.7,6.4,17.6-2.1,22.9c-7.6,4.7-17.3,7.1-26.4,7.8c-4.1,0.3-10-4.8-12.9-9C1050.7,2766.9,1038.5,2730.9,1032.3,2697.9z"/>
<path d="M1645.7,3239.5c-0.5,20.6-15,32.5-29,27c-36.8-14.3-65.6-39.2-85.5-73.2c-7.8-13.4-2.4-27.2,9.8-33.9
	c12.1-6.7,20.9-1.4,28.1,8.4c16.4,22.3,35.7,41,60.5,54.3C1637.3,3226.2,1642.2,3235.6,1645.7,3239.5z"/>
<path d="M3345.7,2288.5c-1.2-12.3-3.1-30.7-4.8-49.1c-0.9-10.7-4.1-23.3,11.2-26.4c13.9-2.8,28.6,0.2,32.3,15.1
	c8.6,34,12,68.8,0.3,103.1c-4.5,13-13.6,19.2-28.1,15.1c-13.4-3.8-15.9-13.5-14.8-25.4C3342.7,2312.2,3343.9,2303.5,3345.7,2288.5z"
	/>
<path d="M1200,2726.6c4.4,4.4,12.3,10.2,17.5,17.9c14.6,21.6,27.8,44.1,42.1,65.9c7.7,11.8,2.4,20.9-4.8,29.6
	c-7.4,8.9-16.7,9.8-26.2,3.4c-5.4-3.7-11.2-7.6-14.6-12.9c-13.5-21.1-27.7-42.1-38.7-64.6C1166.2,2747.3,1178.4,2726.4,1200,2726.6z
	"/>
<path d="M3370.3,2571.7c-4,20.2-8.2,47.3-15,73.8c-4.8,18.6-16.9,25.1-31.4,19.9c-16.9-6-14.4-19.6-12-33
	c4.3-23.7,9.2-47.3,12.5-71.2c1.8-13.1,4.1-24.1,20.5-24C3361.7,2537.3,3369.7,2546.1,3370.3,2571.7z"/>
</svg>
