<?xml version="1.0" encoding="utf-8"?>
<!-- Generator: Adobe Illustrator 24.3.0, SVG Export Plug-In . SVG Version: 6.00 Build 0)  -->
<svg version="1.1" id="Layer_1" xmlns="http://www.w3.org/2000/svg" xmlns:xlink="http://www.w3.org/1999/xlink" x="0px" y="0px"
	 viewBox="0 0 4000 4000" style="enable-background:new 0 0 4000 4000;" xml:space="preserve">
<path d="M376.7,1547.9c-2.1-358.5,78-698.2,241.2-1017.8c13-25.4,28.1-50,45.2-72.8c28.3-37.9,56.4-45.9,101.5-31.5
	c14.6,4.7,28.7,11.2,42.3,18.5c226.8,122.1,453.4,244.6,680.3,366.4c45.8,24.6,74.5,60.4,83.7,111.8c6,33.6,11.7,67.3,20,100.4
	c9.9,39.4,21.2,78.5,34.2,117c16.1,48,35.1,95,51.9,142.7c14.5,41.3,34.1,78.5,71.2,104.5c25.2,17.7,39,43.6,50.3,71.9
	c29.6,74.9,87,120.2,162.3,142.6c55.8,16.6,97.4,50.8,129.4,97c18.5,26.7,42.1,44.4,71.1,56.5c13.2,5.5,26.6,10.7,39.2,17.4
	c33.7,17.9,67.7,27.6,107.4,22.3c43.8-5.9,83.5,11.6,113.6,42.6c28.9,29.8,61.4,40.6,101.1,34.9c10.9-1.5,22-1.3,32.9-2.7
	c34.8-4.7,69.1-1.3,99.5,15.8c40.1,22.5,80.3,19.4,121.3,6.9c33.6-10.3,67-21.6,99.8-34.2c55-21,98.3-57.8,134.4-103.7
	c10.2-13,20.3-26.1,31.4-38.3c23.6-25.9,52.8-35.7,86.7-24.9c44,14.1,87.9,28.5,131.2,44.4c176.6,64.8,352.4,131.9,529.8,194.6
	c60.2,21.3,92.6,56.2,99.8,120.1c9.8,87,9.5,173.8,1,260.5c-14.9,152-49.5,299.8-106,441.8c-75.8,190.5-188.5,355.6-347.1,487.4
	c-121.8,101.2-260.5,172.1-409.1,224.3c-129.3,45.5-262.7,72.7-399,87.5c-146.2,15.9-292.3,17.8-438.7,4.9
	c-242.2-21.4-475.2-79.2-696.6-180.6c-218.3-100.1-415.4-231.6-581.2-406.6c-192.1-202.8-333.4-436.7-424.2-701.1
	c-66.3-193-102.7-391.6-111.6-595.3C375.1,1631.6,376.7,1589.7,376.7,1547.9z M909.7,639.3c-4.9,9.9-8.3,15.5-10.6,21.6
	c-88.6,237-141.4,481.2-146.1,734.9c-3.4,182.7,16.9,362.2,64,539.3c71.8,270.2,203.3,505,403.8,700.5
	c123.6,120.5,265.2,214.3,424,281.4c119.3,50.3,243.8,80.4,372.8,94.7c140.5,15.5,279.4,7.4,417.1-20.8
	c218.6-44.8,412.9-142,588.1-279.2c180-141,324.1-313.5,442.8-507.6c37.2-60.8,67-126.2,99.7-189.8c4.8-9.4,7.2-20,11.2-31.2
	c-38.7-14.8-74.4-28.8-110.3-42.2c-108.2-40.5-216.6-80.5-324.6-121.4c-17-6.4-28-3.7-39.6,10.9
	c-91.7,115.3-217.4,168.3-358.1,191.6c-39.2,6.5-81.2,7.7-115-17.2c-45-33.2-88.4-13.5-133.1-4.9c20.7,8.7,42.1,13.2,62.3,21
	c18,7,33.6,19.8,31.6,41.7c-2.1,22.5-15.4,38.9-37.5,45.7c-40.2,12.4-80.4,12.5-119.4-4.6c-9.7-4.2-18.9-11.6-25.8-19.7
	c-23.7-27.8-15.7-60.6,18.4-74.9c11.5-4.8,24.4-6.2,44.3-11c-43.6-4.9-73.2-24.3-99.1-48.3c-27.1-25.1-57-35.6-93.4-30.8
	c-40.9,5.5-78.3-5.5-114.2-24.8c-24.2-13-48.8-25.6-74.2-36.2c-41.2-17.3-73.7-43.5-94.5-83.4c-14.6-28-37.4-45.4-67.5-54.2
	c-34.3-10-64.6-27.5-92-50.4c-7.8-6.5-17.2-11.1-27.2-17.3c-10.8,52.2-32.5,66.3-78.1,53.3c-37.1-10.6-57.5-39.2-71.9-72.5
	c-11.5-26.5-2-45.2,26-52.7c13.6-3.7,27.9-4.6,42.4-6.9c-34.8-60.8-39.6-93.2-75-106.7c-3.1,5.1-6.1,10.6-9.5,15.9
	c-19.2,29.7-44.2,37.9-76.8,24.5c-38.6-15.8-57.7-47.7-63.1-86.5c-5.8-41.9,23.7-65.8,64.6-56c3.5,0.8,7,1.4,14.5,3
	c-15.5-39.9-29.2-75.2-44.5-114.6c-3.3,8.6-5.2,12.6-6.4,16.7c-5.1,17.9-12.1,33.5-34.6,33.5c-22.5,0-39.1-10.5-45.5-31.4
	c-5.4-17.5-9.6-36.6-8.3-54.6c2.1-30.5,20.9-41.5,50.3-34c5.9,1.5,11.7,3.3,22.9,6.5c-37.1-79.1-40.4-162.2-63.8-241.5
	c-9.9,22.8-14.2,46-21.3,68.3c-25,78.2-31.4,157.2-14,237.9c2.5,11.7,2.3,24.1,2,36.1c-0.2,11-5.5,20.7-17.6,19.3
	c-8.6-1-19-5.2-24.3-11.5c-5.9-7.1-7.8-18-9.7-27.7c-11.8-58.9-12.9-118.5-1.8-177.3c10-52.9,25-104.8,37.6-157.2
	c8.6-35.5,8.6-35.8-24.1-52.9c-139.5-72.8-279.2-145.5-418.8-218.2C943.4,657.1,928,648.9,909.7,639.3z M3676.7,2023.3
	c-12.2-6.1-18.7-10.1-25.8-12.8c-24-9.2-27.5-7.9-37.6,15.6c-51,119.1-119,228-193.6,333.5c-123.8,175.2-268.9,329-447,449.8
	c-316.2,214.5-663.2,299.3-1042,239.3c-248.1-39.3-468.9-142.2-661.8-302.6c-250.4-208.1-408.9-475.5-496.2-786.7
	c-69.3-247.1-82.3-498.8-54.4-753.1c21.6-197,71.3-387.1,141.8-571.9c2.6-6.7,3.5-14.1,5.3-21.8c-10.6-5.4-19.2-10.1-28-14.3
	c-9.5-4.5-19.2-8.7-27.4-12.3c-4.5,3.8-6.7,4.9-7.8,6.7c-2.2,3.8-3.9,7.9-5.7,11.8C691.5,830,626.5,1066.5,602.8,1314.5
	c-10.3,107.7-14.2,215.5-7.4,323.4c12.7,200,51.9,394.6,119.5,583.6c80.5,225.1,201.3,425.3,366.8,597.9
	c175.7,183.2,383.3,316.3,627.5,388.2c214.5,63.2,432.4,77.2,653.4,36.7c278.3-51,519.9-174.9,729.1-363.6
	c211.2-190.5,373.3-418.3,501.8-670.7C3623.8,2150.4,3648.2,2087.8,3676.7,2023.3z M3775.4,2107.8c-2.9-0.3-5.8-0.6-8.8-0.9
	c-4.5,9.7-9.2,19.4-13.6,29.2c-14.3,32.2-27.1,65.1-42.8,96.5c-92.9,186.9-201.5,363.5-336.3,523.8
	c-157.5,187.2-337.2,347.2-553.4,463.7c-235.8,127-486.5,197-756,191.7c-8-0.2-16.1,0.7-24.2,1.1c58.4,12.6,117,21.1,175.8,26.6
	c181,16.7,360.8,5.3,539-28.6c147.6-28.1,290.4-71.9,422.4-145.8c95.5-53.5,185.2-115.3,262.4-193.1
	c117.6-118.5,197.2-260.9,253.5-417c57.3-159,83-323.5,83.9-492.1C3777.4,2144.4,3776.1,2126.1,3775.4,2107.8z M3730.2,2049.9
	c-3-0.9-6-1.8-9-2.7c-5.6,11.6-11.7,23-16.7,34.8c-131.3,311.6-315.5,586.2-563.8,817.4c-153.5,142.9-325.4,254.3-523.1,325.7
	c-115.5,41.7-234.2,68.7-356.1,82.5c-100,11.3-200,9.1-299.9-2c-107.6-12-213.3-33.8-315.7-67.9c-138.7-46.1-267.4-114-386.4-198.7
	c-168-119.6-304.2-269.8-414.6-443.7c-166.8-262.7-256.6-551.6-289.4-859c-16.9-158.1-15.8-316.8,6.5-474.5
	c12.8-90.3,27.5-180.7,47.6-269.6c31.4-138.9,83.3-271.2,142.6-400.5c5.1-11.1,8.3-23.2,14.2-40.1c-23.8,14.5-23.7,14.5-35.7,36.1
	c-139.2,251-209.2,522-230,806.4c-19.8,270.8,9.5,536.3,94.3,795.2c115.8,353.6,309.8,652.7,609.6,878.2
	c153.9,115.7,324.1,199.2,510.7,247.7c79.9,20.8,161.8,31.1,244,40c107.1,11.6,213.6,8.5,319.6-5.8c154.6-21,302.3-65.9,443.2-134.7
	c133.5-65.2,256.6-145.1,368.2-242.6c118.1-103.1,225.7-215.9,320.6-341.2c121.7-160.7,220.8-334,297.6-520.1
	C3716.7,2090.9,3723,2070.3,3730.2,2049.9z M2459.9,2056.7c18.9,14.4,38.6,16.4,62.5,5.1C2500.4,2046.2,2480.4,2049.7,2459.9,2056.7
	z M1578.3,1462.9c2.4-3.2,8.4-7.6,8.6-12.3c0.7-13.9-8.3-22.3-21.1-25.2c-3.2-0.7-10.3,4.4-11.4,8
	C1551.3,1444.4,1564.2,1461.5,1578.3,1462.9z M1742.3,1653.3c2.2-3.6,4.3-7.2,6.5-10.7c-10.6-5.6-21.2-11.2-31.8-16.8
	c-1.6,2.7-3.1,5.3-4.7,8C1722.3,1640.3,1732.3,1646.8,1742.3,1653.3z M1494.5,1232.1c-2.4-0.8-4.7-1.5-7.1-2.2
	c-1.8,5.1-3.7,10.1-5.5,15.2c1.7,0.7,3.3,1.4,5,2.1C1489.4,1242.2,1491.9,1237.1,1494.5,1232.1z"/>
<path d="M1595,1815.9c47.9,3.5,88.1,39.2,94.4,88.5c7.1,55.2-14.1,99.8-59.1,130.6c-35.7,24.4-75.2,23.7-111.6,0.1
	c-34.6-22.4-47.2-57-41.7-97c6.3-45.6,26.6-83.8,68.8-105.9C1561,1824.3,1578.6,1821.2,1595,1815.9z"/>
<path d="M2246.6,2365.5c-59.6-4.7-105.1-58.1-97.3-117.9c5.7-43.8,27-78.3,65.1-101.6c63.6-39,134.1-7.2,147,66.3
	c8.2,46.9-16.7,107.3-57.5,131.5C2286.6,2354.1,2265.8,2358.5,2246.6,2365.5z"/>
<path d="M2234.9,2075.7c-39.8-2.3-77-7.7-110.2-26.1c-15.9-8.8-31.8-20.9-42.1-35.4c-23.7-33.3-9-72.8,30.6-82.5
	c18.5-4.5,39.3-3.4,58.4-0.7c39.2,5.6,77.4,15.5,111,38.4c21.3,14.5,37.1,31.5,31.2,59.8c-6.2,29.6-27.9,40.2-54.8,44.2
	C2250.4,2074.7,2241.6,2075.1,2234.9,2075.7z M2121.1,1986.8c39.4,39.8,106.9,54.9,139.7,32.9
	C2241,1988.4,2159.9,1968.3,2121.1,1986.8z"/>
<path d="M1862.5,2328.9c-43.3-1.5-95.2-30.1-126.9-92.1c-19.9-38.8-16.5-78.7-5.3-118.9c3-10.9,8.2-20.4,21.4-22.2
	c15.1-2,25.9,6.6,25.7,22.2c-0.1,7.5-2.7,15.1-4.4,22.5c-12.4,55.8,12.5,102.7,69.4,130.8c45.4,22.4,100.1,10,133.8-30.8
	c4.9-5.9,8.5-12.9,13.5-18.7c11.3-13.5,21.6-15.3,34.1-6.6c12.5,8.7,14.6,18.3,5.4,34.3C1998,2304.5,1950,2329.9,1862.5,2328.9z"/>
<path d="M1828,1771.4c57.7,9,106.1,35.8,139,83.9c27.4,40.1,0.6,86.7-48.3,88.5c-10.7,0.4-22.7-0.1-32.2-4.5
	c-31.7-14.5-62.8-30.4-93.4-47c-8.3-4.5-15.6-12.7-20.6-20.8c-12.7-21-23.8-43.9-9.4-67.9C1777.2,1780.1,1800.1,1770.2,1828,1771.4z
	 M1928.7,1888.8c-13.3-36.7-42.8-49.4-72.2-60.9c-15.6-6.1-33.3-11.8-48.3,3.3C1827.6,1873.4,1878.3,1898.2,1928.7,1888.8z"/>
<path d="M1384.6,1467.1c0.8-6.5,1.2-15.4,3.2-23.9c3.7-16.1,13.3-27.8,29.2-32.9c16.4-5.3,27.6,4.5,37.2,15.4
	c26,29.4,42.9,63.9,51.2,102.1c5.4,24.8-1,39.6-17.7,48.4c-18.9,9.9-46.5,6.9-61.1-8.7C1401,1540,1386.8,1507.2,1384.6,1467.1z"/>
<path d="M1622.5,1770.2c-45.4-0.8-97.7-55.7-96.3-101.2c1.1-36.2,29.4-56.1,63.1-42.9c38.8,15.2,66.2,42.7,79.1,82.8
	C1679.8,1744.2,1659.3,1770.8,1622.5,1770.2z M1576.5,1689.9c11.9,19.1,23,27.5,44.2,26.2
	C1610.3,1699.5,1601.6,1687.5,1576.5,1689.9z"/>
<path d="M3404.7,2908c-8.6,13.5-15.6,25.8-23.9,37.2c-49.6,68.4-114.4,121.5-178.8,174.9c-16.9,14-35.1,26.5-53.2,39
	c-7.2,5-15.3,8.8-23.4,12.1c-10.7,4.4-19.2,0.2-25.6-9c-6.8-9.9-4.9-19,3.4-26.4c6.5-5.8,14-10.7,21.2-15.6
	c86.9-59.6,161.4-132.3,227.4-214.2c4.1-5.1,7.7-12.4,13.1-14.4c7.4-2.7,17.1-3.5,24.3-0.9C3395.1,2892.6,3398.8,2900.9,3404.7,2908
	z"/>
<path d="M3405.2,3040.2c-5.4,8.8-8.6,17.4-14.6,23.2c-35.4,34.7-70.6,69.6-107.4,102.7c-20.1,18-33.2,18.3-43.2,6.9
	c-11.6-13-8.3-23.7,13.6-43.9c35.5-32.9,71.2-65.7,106.5-98.8c8.8-8.3,18.3-13.6,29.4-7.2
	C3395.5,3026.5,3399.4,3033.7,3405.2,3040.2z"/>
</svg>
