<?xml version="1.0" encoding="utf-8"?>
<!-- Generator: Adobe Illustrator 24.3.0, SVG Export Plug-In . SVG Version: 6.00 Build 0)  -->
<svg version="1.1" id="Layer_1" xmlns="http://www.w3.org/2000/svg" xmlns:xlink="http://www.w3.org/1999/xlink" x="0px" y="0px"
	 viewBox="0 0 4000 4000" style="enable-background:new 0 0 4000 4000;" xml:space="preserve">
<path d="M3196,750.3c-96.3,69.9-201.5,120.8-317.3,149.5c-57.7,14.3-116.3,17.6-175.2,17.7c-90.4,0.1-179.9-10.4-269-25
	c-5.6-0.9-11.1-2.6-16.3-4.7c-52-20.6-103.9-41.5-155.8-62.1c-1.6-0.6-3.6,0.1-9.1,0.3c-1.8,32.9-3.7,66.1-5.6,100.2
	c37.4,6,72.1,10.6,106.5,17.2c193.9,37.4,375.4,106.7,543.6,210.8c107,66.2,208.6,139,295,231c67.9,72.2,124.3,153.3,176.4,237.3
	c21.4,34.6,40.1,71,60,106.5l0.6-0.6c-4.8-3.4-11.5-5.7-14-10.2c-43-81.7-93.9-158.5-149.4-232c-48.7-64.5-102-125-168.9-173.2
	c6.1,6.9,11.8,14.1,18.3,20.5c69.9,69,131.1,145.3,186,226.4c98.7,145.7,162.7,306.2,199,478.1c30.1,142.4,38.9,286.1,22.7,430.6
	c-18.1,161.4-58.9,317-128.9,464.3c-40.9,86.1-87.5,168.7-147.3,243c-51.8,64.4-106.7,126.1-169.2,180.7
	c-30,26.2-59.8,52.8-89.4,79.4c-5.1,4.6-13.6,7.6-9.3,18.3c0.9,2.2-5.8,9-10.2,11.6c-82.5,48.7-165.1,97.3-248.2,145
	c-7,4-17.5,1.8-26.3,2.5c-2.3,1.5-4.6,3.1-7,4.6c-10.4,4-20.7,8-31.1,12l1.1-0.7c-28.1,8.5-56.3,16.5-84.3,25.5
	c-176.3,56.6-356.7,72.3-540.5,56.4c-258.9-22.4-493.6-108.4-703.1-262.9c-101.7-74.9-191.7-161.9-269.2-261.1
	c-39.1-50-71.7-105-107.1-157.8c-5.7-8.5-10.9-17.4-20-24.8c1.8,6.5,3.7,12.9,5.5,19.4c-0.7,0.6-1.5,1.2-2.2,1.8
	c-2.8-3.8-6.3-7.2-8.4-11.4c-13.3-26.3-27.2-52.3-38.9-79.2c-9-20.7-16.2-42.4-22.2-64.2c-22.1-79.5-43.8-159.1-65-238.9
	c-24.8-93.5-32.5-189.3-30.1-285.3c1.9-76.8,7.9-153.8,18.4-229.9c15.7-114.2,48.6-224.4,92.5-331.1
	c58.8-142.7,139.5-271.8,240.3-388.4c57.9-67.1,123.1-126.5,192.8-181.3c114.4-90,239.5-160.6,376.9-209
	c131.5-46.3,266.1-76.9,406.1-80.3c5.7-0.1,11.4-0.4,17-0.9c1.7-0.2,3.4-1.4,6.6-2.9c0.6-2.5,2.4-6.1,2-9.5
	c-14.9-116.6-41.8-229.7-98.7-334c-23.8-43.7-51.3-84.4-88.9-117.6c-2.1-1.9-4.1-4-6.1-6c-60.7-60.9-43.5-151.5,35.5-186.9
	c51.9-23.2,111.7-9.7,149.2,35.9c14.3,17.4,26.2,37.3,36.7,57.4c42.3,80.6,67,167.2,85.2,255.9c1.1,5.5,2.7,11,4.2,16.4
	c0.2,0.6,1.4,0.8,6.9,3.9c0.9-2.1,1.8-6.1,3.9-9.1C2315.6,540.1,2394.8,466,2479,398c61.8-49.9,132.7-82.9,213.7-94
	c81-11.1,161.5-24.5,243.6-20.9c36.1,1.6,72.1,6.9,108.1,6.3c82-1.4,159.3,21.2,237.5,41c46.8,11.9,95,18.1,142.6,26.5
	c14,2.5,28.4,3,42.3,5.9c22.1,4.6,32.9,19.2,28.9,41.3c-2.2,11.7-7.5,23.7-14.2,33.6c-13.3,19.6-27.9,38.5-43.2,56.6
	c-56.8,67.6-109.2,139-175,198.7c-3.3,3-5.2,7.7-7.7,11.6c0,0,0.9-0.6,0.9-0.6c-9.9,7.9-19.8,15.8-29.7,23.7l1-0.9
	c-10.7,7.8-21.5,15.7-32.2,23.5L3196,750.3z M2466.8,640.5c0,0-0.2-0.3-0.2-0.3c36.6-10,73.2-19.9,109.7-30.1
	c117.9-33,236.5-62.5,357.9-80.4c92.9-13.7,185.5-30,278.2-45c6.1-1,12.3-0.7,18.5-1c-8.2,8.2-17.5,11.7-27.1,14.3
	c-25.6,7-51.3,13.7-77.1,20.3c-50.5,13-100.9,26.4-151.6,38.9c-89.3,22.1-179.7,40.5-268,66.2c-128.4,37.4-255.4,79.8-382.9,120.2
	c-3.9,1.3-7.3,4.5-13,8.2c6.7,3.6,10.5,6.5,14.8,8c105.4,36.2,212.6,63.7,324.9,68.1c164.3,6.5,316.2-29.8,452.9-124.3
	c97.2-67.2,177.3-151.5,249.9-243.6c4.5-5.7,7.4-12.5,12.5-21.1c-11.6-2.6-20.4-5.1-29.5-6.6c-74.9-12.3-150-23.5-224.7-36.9
	c-103.3-18.6-207-28.1-311.7-15.5c-68.2,8.2-134.3,24.1-196.2,55.3c-89.4,45.1-166,106.5-232.1,181.2c-21.7,24.5-41,51.3-61.3,77
	c1.2,1.7,2.4,3.3,3.6,5c12.8-5.3,25.5-10.8,38.4-15.7C2390.7,668.4,2428.8,654.5,2466.8,640.5z M2135.3,1031.2
	c-15.1,0-28.2-0.8-41.2,0.1c-156.6,11.3-307.1,44.9-451,110.3c-216.4,98.3-394,242.6-528.7,438c-150,217.5-227.8,459.4-236.2,723.7
	c-5.8,180.3,27.1,353.3,93.3,520.7c38.7,97.8,88.7,189.4,152.7,272.5c79.3,102.9,173.2,191.2,278,268.3
	c214.8,158,455.8,238.9,721.5,247.5c129.1,4.2,255.5-12.3,379.4-50.5c225.2-69.3,422.6-181.7,580.6-359.8
	c131.1-147.8,233.3-311.5,286.8-502.9c45.3-162.3,65.5-327.2,46.8-496c-12.6-113.7-33.3-225.1-74.9-332.3
	c-85.9-221.1-219.1-407.4-404.7-555.3c-141.4-112.7-300.1-192.9-474.8-240c-59.4-16-120.5-26.3-180.9-38.2
	c-14.3-2.8-29.4-2-44.7-2.8c-7.9,47.1-15.1,90.6-22.4,134.4c4.7,0.3,6.7,0.9,8.4,0.5c5.5-1.5,10.9-3.2,16.3-5.2
	c59.4-22.5,120.3-25.5,182.2-13.8c11.4,2.2,23.6,4.6,32.5,21.2c-67.4,0.9-131,3.5-187.5,37.3c28.2,18.7,56.8,34,80.9,54.6
	c37.1,31.6,49.2,57.4,45.5,84.8c-7.5-5.9-14.5-10.3-20.1-16c-23.1-23.4-50.4-40.4-80.4-53c-121.2-50.7-238.9-41.7-353.4,21.3
	c-8.5,4.7-17.1,9-25.7,13.4c-1.4-9.4-0.2-15,2.9-19c36.6-45.9,86.6-71.6,141.9-91.7c-14.2-10.2-27.9-18.4-42.6-24.2
	c-39.1-15.4-79.4-25.5-121.8-26.6c-9.2-0.2-19.9,1.8-31.6-9.2c97.3-29.9,184.7-5.4,272.7,29
	C2135.3,1123.3,2135.3,1078.3,2135.3,1031.2z M2193.2,979.7c0.7-9.1,1.9-18.2,1.9-27.3c0.1-56.9,1.6-113.9-0.4-170.7
	c-4.2-121.5-29.1-238.7-76.5-350.9c-4.2-10-9.8-19.4-15.3-30.2c-16.5,10.5-29.4,20.3-43.7,27.3c-14.9,7.3-31,11.9-48.1,18.2
	C2139.1,602.6,2175.7,787.6,2193.2,979.7z M1994.4,405.4c21.1-7.1,43.5-11.7,62.8-22.1c17.5-9.5,18.7-27.6,5.2-40.4
	c-37.4-35.5-76.7-28.3-98.8,11.3C1947.5,382.8,1959.7,401.5,1994.4,405.4z"/>
<path d="M3473.9,1781.3c10.7,34.2,23.1,68,31.7,102.7c11.2,45.1,20.1,90.8,28.9,136.5c4.5,23.2,8.1,46.9,9.3,70.5
	c6,116.6,13.3,233.1,3.2,350c-13.8,159.8-43.5,315.7-109.4,463c-31,69.3-65.1,136.9-112.5,197.4c3-6.3,5.6-12.8,9.1-18.7
	c52.9-88,99-179.5,131.9-276.8c31-91.8,51.2-186.2,63.6-282.6c16.6-128.7,16.6-257.5,6-386.5c-5.6-68.2-19-135.3-36.3-201.5
	c-4.3-16.3-6.1-32.3-6.4-49.6c-0.4-24-10.4-47.8-16.6-71.6c-2.6-9.9-6.1-19.6-9.2-29.4C3469.4,1783.5,3471.6,1782.4,3473.9,1781.3z"
	/>
<path d="M806.1,2795c-4.2-5.6-10.2-10.5-12.3-16.7c-50.7-147.4-76.2-298.9-73.4-454.9c0.2-12.1,0-24.2,0-36.3
	c1.8-0.2,3.7-0.5,5.5-0.7c1,9.6,2.4,19.2,2.9,28.8c3.2,61.5,4.2,123.2,9.9,184.5c8.5,91.8,31.2,180.9,59.5,268.6
	c2.9,9,5,18.2,7.5,27.4L806.1,2795z"/>
<path d="M789.5,1978.5c30.9-127.3,78.4-248.2,141.7-362.8c10.5-19,21.4-37.8,32.7-56.4c2.6-4.2,7.6-7,11.4-10.5l-0.6-0.5
	c-3.5,8.5-6.1,17.5-10.8,25.3c-73,120.5-125.1,249.6-161.7,385.4c-2,7.3-1.2,18.1-13.2,19.1L789.5,1978.5z"/>
<path d="M1397.2,3521.4c40.8,21.8,81.5,43.9,122.5,65.3c71.6,37.5,147.1,65.4,223.9,90.1c5.3,1.7,10.5,3.9,14.4,10.6
	c-29.3-8.7-59.1-16-87.9-26.2c-90.4-32.2-177.3-71.9-257.6-125c-5.8-3.8-9.9-10.2-14.8-15.4L1397.2,3521.4z"/>
<path d="M996,3123c41.1,51,81.1,104.9,125.5,154.7c44,49.4,92.6,94.8,137.8,140.6C1199.1,3385.1,1007.2,3173.8,996,3123z"/>
<path d="M772.7,2094.4c-5.6,52.8-12.6,105.4-16.6,158.3c-3.9,51.9-4.8,104.1-6.9,154.3c-9.3-68.6-4.4-139.2,1-209.8
	c1.7-22.7,5-45.3,8.6-67.8c2-12.4-0.9-27.3,14-34.8L772.7,2094.4z"/>
<path d="M1209.1,1263.7c2.1-3.8,3.5-8.6,6.5-11.4c70.5-63.8,147.3-118.7,230.7-164.3c4.5-2.5,9.6-3.9,16.5-1.8
	c-11,6.7-21.9,13.7-33.1,20.2c-69.9,40.3-135.1,87.1-196,140c-7.6,6.6-16.8,11.2-25.3,16.7L1209.1,1263.7z"/>
<path d="M2612.2,3648.9c-7,5.2-13.4,13-21.2,15.2c-60.5,16.7-121.3,32.3-182.1,48.1c-0.1-0.1,0.4,0.3,0.4,0.3
	c7.3-13.2,21.4-9.7,32.5-12.9c53.5-15.3,107.3-30,160.9-45.1C2606.1,3653.5,2609,3650.8,2612.2,3648.9
	C2612.2,3648.9,2612.2,3648.9,2612.2,3648.9z"/>
<path d="M975.3,1548.9c0-2.7-1-6.2,0.2-8.1c27.7-40.1,55.6-80,83.7-119.9c1.3-1.8,4.7-2.2,7.2-3.2c0,0-0.6-0.5-0.6-0.5
	c-1.6,4.2-2.4,9-4.9,12.6c-25.2,36.6-50.7,73.1-76.3,109.5c-2.5,3.6-6.6,6.1-10,9.1C974.7,1548.4,975.3,1548.9,975.3,1548.9z"/>
<path d="M1208.5,1263.1c-24.6,26.1-49.2,52.2-73.9,78.4c-1.5-1.5-3-3.1-4.5-4.6c24.9-25.9,45.6-56,78.9-73.2
	C1209.1,1263.7,1208.5,1263.1,1208.5,1263.1z"/>
<path d="M2302.5,3729.7c1.9-2.1,3.5-5.7,5.6-6.1c29-4.8,58-9.3,87.1-13.4c4.4-0.6,9.2,1.3,14,2.1c0.1,0.1-0.4-0.3-0.3-0.2
	C2373.5,3718.1,2337.9,3723.9,2302.5,3729.7C2302.4,3729.7,2302.5,3729.7,2302.5,3729.7z"/>
<path d="M2687.6,3618.1c2.4-1.5,4.7-3.1,7-4.6c1,2.4,3,6.7,2.9,6.7c-26.9,14.1-52.4,32.3-85.3,28.7c0,0,0,0,0,0
	c16.7-2.9,33.4-5.6,45.4-19.5c0,0-1.1,0.7-1.1,0.7C2666.9,3626.1,2677.2,3622.1,2687.6,3618.1z"/>
<path d="M3429.1,1729c10.9,26.6,21.9,53.1,32.8,79.7c-2,0.8-3.9,1.6-5.9,2.4c-9.7-24.9-19.6-49.7-29-74.6c-0.8-2,1.6-5.2,2.6-7.9
	C3429.7,1728.4,3429.1,1729,3429.1,1729z"/>
<path d="M2810.3,924.6c-23.7,3-47.4,6-71.1,9c-0.2-1.4-0.4-2.9-0.6-4.3c11.8-1.1,23.7-2,35.5-3.3c12-1.3,23.9-3.1,35.8-4.7
	C2810.1,922.4,2810.2,923.5,2810.3,924.6z"/>
<path d="M1397.8,3520.8c-21.6-4.8-38.9-15.6-49.9-35.3l-0.7,0.6c16.7,11.8,33.4,23.5,50.1,35.3
	C1397.2,3521.4,1397.8,3520.8,1397.8,3520.8z"/>
<path d="M3196,750.3c0,0-0.4,0-0.4,0c10.7-3.8,21.4-7.5,32.1-11.3l-0.6-0.5c-12.5,11.3-25.1,22.6-37.6,33.9c-1.5-1.4-3-2.8-4.5-4.2
	C3188.6,762.2,3192.3,756.3,3196,750.3z"/>
<path d="M3255.6,704.6c2.4,1,4.8,2,11.7,4.9c-14.8,10.7-27.5,19.8-40.1,28.9c0,0,0.6,0.5,0.6,0.5c0-4.1,0.1-8.1,0.1-12.2
	c0,0-1,0.9-1,0.9c9.9-7.9,19.8-15.8,29.7-23.7C3256.5,704,3255.6,704.6,3255.6,704.6z"/>
<path d="M3443.5,1713.6c5.9,12.6,11.9,25.2,17.8,37.8c-1.9,0.9-3.8,1.7-5.8,2.6c-5.4-12.8-10.9-25.6-16.3-38.4
	C3440.6,1714.9,3442,1714.3,3443.5,1713.6z"/>
<path d="M772.8,2094.7c-5.4-18.3-3.6-35.9,7.3-52.6c-2.5,17.3-5,34.7-7.5,52.1C772.7,2094.4,772.8,2094.7,772.8,2094.7z"/>
<path d="M3086.1,836.3c-9.2,4.7-18.4,9.5-27.6,14.2c-0.8-1.5-1.6-3.1-2.3-4.6c9.3-4.5,18.6-9,27.9-13.4
	C3084.8,833.7,3085.4,835,3086.1,836.3z"/>
<path d="M1089.5,1389.2c7.1-11.5,14.1-23,21.2-34.6c1.7,1.2,3.4,2.4,5.2,3.6c-5.3,12.9-14.4,23-26.9,30.4
	C1088.9,1388.7,1089.5,1389.2,1089.5,1389.2z"/>
<path d="M816.8,2767.9c21.3,3.4,12,23.2,17,35.2c-5.6-11.8-11.2-23.6-16.7-35.4L816.8,2767.9z"/>
<path d="M789,1978.1c6.7,14.9,2.2,28.3-8.7,40.6c3.1-13.3,6.3-26.5,9.3-40C789.5,1978.5,789,1978.1,789,1978.1z"/>
<path d="M2905,906.2c10-5.2,20-10.3,30.1-15.5c0.7,2.1,1.5,4.1,2.2,6.2c-11,3-21.9,5.9-32.9,8.9C2904.4,905.7,2905,906.2,2905,906.2
	z"/>
<path d="M2904.4,905.7c-11.8,3.2-23.5,6.3-35.3,9.5c-0.3-1.8-0.7-3.7-1-5.5c12.3-1.2,24.5-2.5,36.9-3.6
	C2905,906.2,2904.4,905.7,2904.4,905.7z"/>
<path d="M1088.9,1388.7c-7.7,9.5-15.4,19-23,28.5c0,0,0.6,0.5,0.6,0.5c3.8-12.6,8.6-24.4,23-28.5
	C1089.5,1389.2,1088.9,1388.7,1088.9,1388.7z"/>
<path d="M3474.7,1860.7c-2.4-7.2-4.9-14.3-7.3-21.5c1.2-0.4,2.4-0.8,3.6-1.2c2.3,7.2,4.6,14.4,6.9,21.7
	C3476.9,1860,3475.8,1860.3,3474.7,1860.7z"/>
<path d="M963.2,3072c5.7,6.6,11.5,13.2,17.2,19.8c-1.9,1.2-3.8,2.4-5.7,3.6c-3.6-8-7.3-16-10.9-24.1
	C963.9,3071.3,963.2,3072,963.2,3072z"/>
<path d="M963.9,3071.3c-5.4-6.9-10.7-13.8-16.1-20.7c1.7-1,3.5-2,5.2-3.1c3.4,8.2,6.8,16.3,10.1,24.5
	C963.2,3072,963.9,3071.3,963.9,3071.3z"/>
<path d="M805.5,2795.6c3.2,9.3,6.4,18.5,9.6,27.8c-9.9-7.7-14-16.9-9.1-28.3C806.1,2795,805.5,2795.6,805.5,2795.6z"/>
<path d="M2302.4,3729.7c-10.7,0-21.4,0-32.1,0c0-0.7,0.1-1.4,0.1-2C2281.1,3728.4,2291.8,3729.1,2302.4,3729.7
	C2302.5,3729.7,2302.4,3729.7,2302.4,3729.7z"/>
<path d="M817.1,2767.7c-1.4-9.9-2.8-19.8-4.9-34.9c7.8,14,10.8,23.6,4.8,35C816.8,2767.9,817.1,2767.7,817.1,2767.7z"/>
<path d="M1347.9,3485.6c-12.2,0.8-19.9-5.1-24.2-16.1l-0.6,0.6c8,5.4,15.9,10.8,24,16.1C1347.2,3486.2,1347.9,3485.6,1347.9,3485.6z
	"/>
<path d="M1323.7,3469.5c-6.3-2.5-12.6-5.1-18.9-7.6c1.1-1.8,2.3-3.5,3.4-5.3c4.9,4.5,9.9,9.1,14.9,13.6
	C1323.1,3470.1,1323.7,3469.5,1323.7,3469.5z"/>
<path d="M3021.9,3425.7c-3.7,2.7-7.3,5.5-11,8.2c-0.8-1-1.5-2-2.3-3c3.6-2.8,7.3-5.5,10.9-8.3
	C3020.3,3423.6,3021.1,3424.7,3021.9,3425.7z"/>
<path d="M3272.4,3184.6c-3.1,3.8-6.1,7.7-9.2,11.5c-0.9-0.6-1.8-1.2-2.7-1.7c2.7-4.3,5.4-8.5,8.1-12.8
	C3269.9,3182.6,3271.1,3183.6,3272.4,3184.6z"/>
<path d="M3300,3146.3c-3.6,4.3-7.2,8.7-10.8,13c-1.1-0.8-2.1-1.5-3.2-2.3c3.1-4.7,6.3-9.4,9.4-14.2
	C3296.9,3143.9,3298.4,3145.1,3300,3146.3z"/>
<path d="M1091.7,1843.1c6.4,30.8-6.7,46-19.4,60.8c-5.7,6.7-17.5,2.1-16.2-6.2c1.9-11.8,5.9-23.9,11.8-34.3
	C1071.8,1856.5,1080.5,1852.3,1091.7,1843.1z"/>
<path d="M3195.8,2354.5c14.6,21.8,10,44.7-12.2,60.4C3168.9,2391.4,3173.3,2369.6,3195.8,2354.5z"/>
<path d="M2637.3,3482.5c-36.4,23.2-132.7,55.4-173,59.4C2519.7,3522.9,2576.8,3503.3,2637.3,3482.5z"/>
<path d="M1000.5,2118.5c9.7,23.8,1.7,41-12.8,57.2C967,2156.5,972.1,2131.8,1000.5,2118.5z"/>
<path d="M1971.5,3383.4c-25.4,1.6-51.1,4.4-73.1-16.8C1919.1,3357.1,1946.3,3362.6,1971.5,3383.4z"/>
<path d="M3298.6,2675c7.3,31-0.4,45.6-26.8,50.4C3266.7,2699.9,3275.6,2683.1,3298.6,2675z"/>
<path d="M914.5,2205.7c10.2-52.8,20.4-105.6,30.7-158.4c1.7,0.2,3.5,0.4,5.2,0.6c0.2,3.9,1.2,8,0.4,11.8
	c-8.8,43.6-17.7,87.2-27.2,130.7c-1.2,5.4-6.1,10-9.4,15L914.5,2205.7z"/>
<path d="M2782.2,3331.5c15.2-17.2,34.8-27.5,55.8-39C2830.8,3325.9,2814.1,3338.4,2782.2,3331.5z"/>
<path d="M2956.2,3037.4c7.1,17.2,2.2,29.2-9.1,37.7c-4.8,3.6-13.2,2.3-20,3.3c-0.7-6.1-3.7-13-1.7-18
	C2930.5,3047.7,2940,3038.9,2956.2,3037.4z"/>
<path d="M2666.1,3088.9c4.2-25.1,6.6-27.5,32.3-32.3C2706.9,3081.4,2694.7,3093.6,2666.1,3088.9z"/>
<path d="M2541.8,3309.8c-13.9,10.8-19.5,17.8-26.5,19.8c-7.1,2.1-15.7-0.4-23.5-2.1c-0.9-0.2-1.7-8.8,0.1-12
	c5.6-9.7,23.2-16.4,32-13.1C2528.3,3304.1,2532.6,3306,2541.8,3309.8z"/>
<path d="M1232.7,2155.9c-5.3-5.7-9.5-8.3-10.8-12c-4.4-12.5,8.4-33,21.2-34.3c3.1-0.3,9.4,2.7,9.3,3.6c-0.9,8.8-1.7,18-5,26
	C1244.9,2145.2,1238.6,2149.6,1232.7,2155.9z"/>
<path d="M2573.1,3429.5c0,13-9,22.3-19.8,19.7c-6-1.4-13.3-7.2-15.4-12.7c-3.2-8.8,7.8-19.3,18.8-19.6
	C2566.2,3416.7,2573,3420.4,2573.1,3429.5z"/>
<path d="M2936.6,3179.7c11.9-18,21-33,40.3-37.5C2984.4,3167.4,2970.3,3181.3,2936.6,3179.7z"/>
<path d="M1198.3,1932.8c-6.5-4.6-13.3-7.1-15.9-11.8c-5.7-10.8,1.2-19.7,8.5-26.9c2.5-2.5,11.8-2.9,12-2.2c2.6,7.2,5.5,15,5,22.4
	C1207.6,1920,1202.5,1925.2,1198.3,1932.8z"/>
<path d="M2576.8,1144c-35.3-9.8-70.5-19.6-105.8-29.4c37.4,2.4,73.9,8.1,105.3,30L2576.8,1144z"/>
<path d="M2449.2,3507.1c-21,19.5-45.9,13.5-72.5,19.6C2393.3,3507.9,2419.8,3501.5,2449.2,3507.1z"/>
<path d="M1457,1745.2c-6,11.2-9.4,20.9-15.8,27.9c-2.9,3.2-12.4,3-17.3,0.8c-2.9-1.3-4.8-10.2-3.5-14.6
	C1425,1744.4,1435.5,1739,1457,1745.2z"/>
<path d="M3031.8,2781.6c14.8,13.7,16.7,20.4,7.7,32.6c-2.7,3.7-9.6,7.7-13.1,6.7c-4.1-1.2-9-7.4-9.6-12
	C3015.1,2796.7,3021.7,2787.9,3031.8,2781.6z"/>
<path d="M3378.4,2163.4c2.8,4.4,7.8,8.6,8.1,13.1c2.9,36.7,4.8,73.5,3.8,110.5C3386.4,2245.8,3382.4,2204.6,3378.4,2163.4
	C3378.5,2163.4,3378.4,2163.4,3378.4,2163.4z"/>
<path d="M3138.1,2752.8c10.3,9.5,12.2,20.7,5,31.9c-2.5,3.9-10.4,6.6-15.4,6c-3.3-0.4-8.3-8.2-7.8-12
	C3121.3,2767.9,3124,2756.7,3138.1,2752.8z"/>
<path d="M1203.3,1531.5c8.3-12.2,15.7-25.1,25.2-36.3c13.9-16.5,29.2-31.7,46.3-49.9c-7.6,17.9-55.3,73.5-72,85.8
	C1202.7,1531,1203.3,1531.5,1203.3,1531.5z"/>
<path d="M3178.2,2585.7c14.6,3.2,19.6,10.4,16.5,19.6c-2,5.9-8.4,13.5-13.8,14.4c-10.2,1.7-16.1-6.6-13.7-16.2
	C3168.8,2596.5,3174.9,2590.7,3178.2,2585.7z"/>
<path d="M1619.9,3387.8c18.9,6.3,37.8,12.5,60.7,20.1c-22.6,10.6-37.1,6.3-62.9-14.6C1618.5,3391.5,1619.2,3389.7,1619.9,3387.8z"/>
<path d="M2678.9,3330.2c0.3,4.5,1.7,8.5,0.5,11.4c-4.8,11.6-17,18.1-26.5,13.7c-3.3-1.5-7-6.7-6.9-10.2c0.3-13.4,10.5-16,21.4-16.5
	C2670.9,3328.5,2674.4,3329.6,2678.9,3330.2z"/>
<path d="M3290.5,2519.4c0-13.8-1.1-23.6,0.5-32.9c0.7-3.9,7-6.8,10.7-10.1c3.8,4.4,10.4,8.7,10.7,13.4
	C3313.2,2501,3309.7,2511.7,3290.5,2519.4z"/>
<path d="M2894,2931.7c1.4,26.1-2.3,31.6-22.9,36C2867.6,2943.3,2869.6,2939.9,2894,2931.7z"/>
<path d="M1408.9,1417.9c6.6-16.4,16.1-27.2,36.2-22.9C1438.4,1422.9,1428.6,1429,1408.9,1417.9z"/>
<path d="M2375.9,3397c-13.1,6-20.1,11.8-26.8,11.5c-5.4-0.3-13.2-6.9-15.1-12.4c-2.6-7.3,10.5-17.1,19.8-14.6
	C2359.9,3383.1,2364.8,3388.9,2375.9,3397z"/>
<path d="M1132.5,2060.4c-8,6.8-13.4,14.8-18,14.4c-5.3-0.5-12.6-7.7-14.1-13.4c-2.2-8.2,1-19.1,11.6-18.1
	C1118.1,2043.9,1123.6,2052.6,1132.5,2060.4z"/>
<path d="M1446,1591.6c0.9,3,1.5,4,1.3,4.8c-2.2,14.4-11,21.5-25,21c-2.5-0.1-6.9-6.5-6.8-9.9
	C1416.1,1595.6,1426.2,1590.5,1446,1591.6z"/>
<path d="M3131.9,3031.9c-16.7,23.1-33.3,46.1-50,69.2c-1.9-1.3-3.8-2.7-5.7-4c16.5-23.4,33-46.7,49.6-70.1
	C3127.8,3028.7,3129.8,3030.3,3131.9,3031.9z"/>
<path d="M914.3,2205.4c0.6,19.8,2.2,39.6,1.5,59.4c-0.8,19.8-3.9,39.6-9.6,59.1c2.9-39.3,5.7-78.6,8.5-118
	C914.5,2205.7,914.3,2205.4,914.3,2205.4z"/>
<path d="M1030.7,2467c-17.7-7.7-16.1-18.7-14.5-28.4c0.7-4,6.3-7.2,9.7-10.7c3.6,3.7,10.2,7.4,10.2,11.1
	C1036.2,2447.6,1033.1,2456.2,1030.7,2467z"/>
<path d="M3329.2,2340.6c10.3,10.8,12.1,21.2,6.9,32.3c-1.6,3.5-6.7,7.6-10,7.4c-3.1-0.1-8.6-5.5-8.5-8.5
	C3317.8,2361.3,3314.5,2349,3329.2,2340.6z"/>
<path d="M1304.2,1536.3c-3.5,7.8-5.9,16.3-11,22.9c-2.2,2.8-11,3.5-14.6,1.3c-2.7-1.6-4.3-11-2.2-13.7c5.1-6.6,12.6-11.4,19.1-17
	C1298.4,1532,1301.3,1534.2,1304.2,1536.3z"/>
<path d="M2238.7,3546.3c-28.7,8.4-44.9,1.4-55.7-23.9c7.9,5.6,15.1,12.9,23.9,16.5C2216.8,3543.1,2228.1,3544,2238.7,3546.3z"/>
<path d="M1599.1,1361.3c4.1-18.6,13.5-25,29.9-22.8C1628.8,1362.7,1626.4,1364.7,1599.1,1361.3z"/>
<path d="M1088.3,1696.3c-15.1,30.4-30.1,60.8-45.2,91.1l0.7,0.6c4.9-13.9,8.3-28.4,14.9-41.4c8.8-17.2,20.1-33.2,30.3-49.7
	C1089,1696.9,1088.3,1696.3,1088.3,1696.3z"/>
<path d="M3091.4,2491.3c-8.9,7.3-14.7,15.3-18.4,14.4c-5.5-1.3-11.8-8.2-13.6-14c-2.5-8,3-15.4,12-14
	C3077.1,2478.6,3082,2484.6,3091.4,2491.3z"/>
<path d="M1140.5,1617.3c-14.8,28-27.9,57.3-52.2,79.1c0,0,0.7,0.6,0.7,0.6c11.9-30,27.3-57.6,52.1-79.2
	C1141,1617.7,1140.5,1617.3,1140.5,1617.3z"/>
<path d="M2176.9,3304.9c-8.2,7.3-13.3,13.7-19.9,16.7c-2.2,1-11.5-6.3-12.2-10.7c-1.4-9.6,5.4-16.1,15.2-15.7
	C2164.5,3295.4,2168.7,3300,2176.9,3304.9z"/>
<path d="M1882.5,3480.4c16-8.4,27.9-7.5,32.2,3.2c1.3,3.2-0.4,9.8-3,11.8C1903.1,3502,1892,3495.9,1882.5,3480.4z"/>
<path d="M2031.2,3465.4c10.5-1.3,21.1-2.5,31.7-3.8c3.5,14.3-1.5,21.8-10.4,22.2c-7.5,0.4-15.2-4.9-22.9-7.7
	C2030.1,3472.6,2030.6,3469,2031.2,3465.4z"/>
<path d="M3068.4,2947.6c5.1,6.9,11.4,12.5,10.4,14.7c-2.8,5.9-8.1,13.4-13.4,14.4c-6.7,1.2-16.7-3.3-13.4-13.2
	C3053.9,2957.8,3061.5,2954,3068.4,2947.6z"/>
<path d="M1228,1717.1c-7.8,6.1-13.6,11.5-20.3,15.1c-1.1,0.6-8.7-6.6-9.2-10.6c-1.3-9.9,9.3-20.7,16.7-17.8
	C1219.5,1705.4,1222.3,1710.8,1228,1717.1z"/>
<path d="M3191.8,2879.7c7.7-22.2,13.3-38.2,19.5-56C3224.5,2839.8,3221,2849.8,3191.8,2879.7z"/>
<path d="M1483.9,1477.9c3.4-8.3,3.9-13.9,6.9-16.2c4.7-3.5,11.1-5.2,17-6.2c1.3-0.2,5.9,6.7,5.1,8.2c-3.1,5.9-7.1,12-12.3,16
	C1498.2,1481.6,1492.3,1479,1483.9,1477.9z"/>
<path d="M2362.7,3266.3c-1,12-10.5,19.2-20.7,16.3c-4.1-1.1-9.9-7.2-9.6-10.6c0.9-11.7,10.8-14.6,20.4-14
	C2356.6,3258.3,2360.2,3264.1,2362.7,3266.3z"/>
<path d="M1082.8,2248.9c11.2,10.8,16.3,20,5.3,31.8C1064.3,2272.6,1063.7,2270.1,1082.8,2248.9z"/>
<path d="M3234.2,2221.5c-6-9.3-11.9-14.6-12.3-20.2c-0.3-4.1,6.1-11,10.9-12.5c8.7-2.6,16.9,5.8,14.7,14.7
	C3246.1,2208.7,3240.8,2212.8,3234.2,2221.5z"/>
<path d="M1351.7,1974.8c-6.4-11.3-11.5-16.4-11.7-21.8c-0.2-4.8,4.1-13.2,7.9-14c8.1-1.9,14.5,3.8,13.5,12.7
	C1360.7,1957.4,1356.8,1962.9,1351.7,1974.8z"/>
<path d="M1183,2403.2c-6,7.3-9.3,11.3-12.7,15.4c-5.1-4.6-11.4-8.5-14.5-14.2c-1.2-2.1,6.2-12.4,7.9-12
	C1169.8,2394.1,1175.3,2398.6,1183,2403.2z"/>
<path d="M1327.6,2247.6c3.9-4.5,7-11,11.9-12.9c4.4-1.7,10.7,1.6,16.2,2.6c-2.3,5.4-3.2,13-7.3,15.5c-4.5,2.7-11.9,0.6-18,0.6
	C1329.5,2251.5,1328.5,2249.6,1327.6,2247.6z"/>
<path d="M1641,1538.7c-8.8,4.1-14.4,8.9-19,8.1c-4.7-0.8-11.8-7.1-11.9-11.1c-0.3-10.2,9-10.9,16.3-9.2
	C1630.7,1527.5,1633.9,1532.4,1641,1538.7z"/>
<path d="M2971.7,2669.4c-8.9,6.3-15.3,13.6-18.5,12.4c-5.8-2.1-9.6-9.3-14.3-14.4c4.4-4,9.2-11.5,13.2-11.1
	C2957.9,2656.9,2963.1,2663.3,2971.7,2669.4z"/>
<path d="M1293.3,1833.1c0,9,0,17.4,0,25.6c-11.5,2.4-20.5,0.7-20.8-9.8C1272.3,1838.6,1279.6,1832.5,1293.3,1833.1z"/>
<path d="M1559.7,1653.4c8.6-5.1,12.9-9.6,17.3-9.8c8.2-0.3,15.5,4.1,13.6,13.6c-0.7,3.8-7.9,9.9-10.5,9.2
	C1573.9,1664.7,1568.6,1659.5,1559.7,1653.4z"/>
<path d="M2797.7,3134.3c6.1,6.5,12.8,10.3,13.4,14.9c1.2,9.5-7,13.8-14.9,12.1c-4.9-1-11.8-7.5-11.9-11.7
	C2784.2,3145.4,2791.4,3141,2797.7,3134.3z"/>
<path d="M2538.2,3198.5c6.4-14.1,15.4-12.6,23.9-6.9c2.1,1.4,2.7,10.1,0.8,11.7C2554.1,3210.4,2545.8,3208.1,2538.2,3198.5z"/>
<path d="M1657.8,1171.1c-19.1,11-38.3,22-57.4,33c16.7-15.8,35.7-27.3,58.1-32.3L1657.8,1171.1z"/>
<path d="M2697.3,1194.9c19,8.5,38,17,57.1,25.5c-1.3,2.4-2.6,4.9-3.9,7.3c-17.6-11.1-35.1-22.2-52.7-33.3
	C2697.7,1194.3,2697.3,1194.9,2697.3,1194.9z"/>
<path d="M2874.1,2826.9c-9.9,5.8-15,11.2-19.6,10.7c-4.7-0.5-8.8-6.6-13.2-10.2c3.9-3.2,7.6-8.9,11.6-9
	C2858.1,2818.1,2863.4,2822.3,2874.1,2826.9z"/>
<path d="M2635.1,1165.8c20.7,9.7,41.4,19.4,62.2,29.1c0,0,0.5-0.5,0.5-0.6c-23.6-3.5-44-13.9-62-29.2
	C2635.6,1165.2,2635.1,1165.8,2635.1,1165.8z"/>
<path d="M973.4,2696.4c15.9,17.5,16.2,40.6,22.5,61.5c-12-19-20.1-39.5-22-62.1C974,2695.8,973.4,2696.4,973.4,2696.4z"/>
<path d="M2243,3442.4c-4.5,4.1-7.3,8.5-9.7,8.3c-6.7-0.7-13.3-3-19.7-5.4c-0.8-0.3-0.5-7.3,0.1-7.4c6.6-1.5,13.3-2.8,20.1-3
	C2235.9,3434.8,2238,3438.1,2243,3442.4z"/>
<path d="M1043.1,1787.4c-5.6,16.8-11.2,33.6-16.8,50.4c1.7-18.2,0.8-37.5,17.4-49.8C1043.7,1788,1043.1,1787.4,1043.1,1787.4z"/>
<path d="M3366.9,2093.9c12.8,3.1,9.9,14.9,10.8,22.8c1.8,15.4,0.6,31.1,0.7,46.7c0,0,0,0,0,0c-3.7-23.3-7.5-46.6-11.2-70
	L3366.9,2093.9z"/>
<path d="M2399.4,3159.1c-11.3,4.2-18.3,2.1-20.8-7.9c-0.5-2.1,3.2-7.4,5.6-7.8C2394.7,3141.5,2399,3147.3,2399.4,3159.1z"/>
<path d="M2576.3,1144.6c22.7-1.5,40.2,11.4,58.7,21.3c0,0,0.6-0.7,0.6-0.7c-22.4,0.6-40.3-11.2-58.9-21.1
	C2576.8,1144,2576.3,1144.6,2576.3,1144.6z"/>
<path d="M1007.7,2784.6c6.1,14.9,12.1,29.9,18.2,44.8c-1.4,0.6-2.9,1.2-4.3,1.8c-6.2-14.9-12.4-29.7-18.6-44.6
	C1004.6,2785.9,1006.1,2785.3,1007.7,2784.6z"/>
<path d="M1384.5,1342.6c-10.5,11.4-20.9,22.8-31.4,34.1c-1.5-1.5-2.9-3-4.4-4.5c10.5-11.4,21-22.7,36.4-29
	C1385.2,1343.2,1384.5,1342.6,1384.5,1342.6z"/>
<path d="M3266.5,2885.8c-5.9,12.1-11.8,24.2-17.6,36.3c-1.2-0.5-2.5-1.1-3.7-1.6c5.5-12,11.1-24,16.6-36.1
	C3263.4,2884.9,3264.9,2885.4,3266.5,2885.8z"/>
<path d="M955.5,2598.5c-13.6-11.5-10.9-27.8-11.2-43.2c3.7,14.4,7.4,28.9,11.2,43.3L955.5,2598.5z"/>
<path d="M3191.6,2916.8c-3.3,8.1-6.7,16.1-11.5,27.8C3177.1,2927.5,3177.1,2927.5,3191.6,2916.8z"/>
<path d="M1585.6,3277.2c10.4,5.5,20.8,11.1,31.2,16.6c-0.6,1.4-1.3,2.8-1.9,4.2c-11-5.3-22-10.6-33-15.9
	C1583.1,3280.4,1584.4,3278.8,1585.6,3277.2z"/>
<path d="M2925.6,3299.6c8.7-9.3,17.4-18.7,26-28c1.7,2,3.5,4.1,5.2,6.1c-10.6,7.1-21.2,14.2-31.7,21.3
	C2925.1,3299,2925.6,3299.6,2925.6,3299.6z"/>
<path d="M1347.4,1687.7c-0.9,6.8-1.7,13.5-2.7,21C1331.5,1701.4,1331.5,1701.4,1347.4,1687.7z"/>
<path d="M955.4,2598.6c3.7,17.5,7.5,35,11.2,52.5l0.4-0.4C951.8,2635.9,950.2,2618,955.4,2598.6
	C955.5,2598.5,955.4,2598.6,955.4,2598.6z"/>
<path d="M2701.5,3447.3c9.2-5.1,18.4-10.2,27.6-15.4c0.8,1.4,1.7,2.8,2.5,4.2c-9.1,5.6-18.3,11.2-27.4,16.8
	C2703.3,3451.1,2702.4,3449.2,2701.5,3447.3z"/>
<path d="M1162,1582c-7.2,11.7-14.4,23.5-21.6,35.2c0,0,0.6,0.5,0.6,0.5c0.3-16,10.4-25.9,21.6-35.1
	C1162.7,1582.6,1162,1582,1162,1582z"/>
<path d="M1124.7,2787.6c-4.4-9.9-8.7-19.7-13.1-29.6c1.5-0.6,3-1.3,4.5-1.9c4.1,9.5,8.3,19,12.4,28.5
	C1127.3,2785.5,1126,2786.5,1124.7,2787.6z"/>
<path d="M3367.3,2093.4c-4-14.7-8-29.4-11.9-44.1l0,0c19,10.8,15.3,27.5,11.7,44.4C3366.9,2093.9,3367.3,2093.4,3367.3,2093.4z"/>
<path d="M3355.3,2049.3c-3.5-15.9-7-31.7-10.4-47.6l-0.4,0.6C3360.8,2015.1,3358.9,2032,3355.3,2049.3
	C3355.3,2049.4,3355.3,2049.3,3355.3,2049.3z"/>
<path d="M2924.7,1343.3c-8.3-5.5-16.5-11-24.8-16.6c1.4-1.6,2.8-3.3,4.1-4.9c6.7,7.4,13.4,14.8,20,22.1L2924.7,1343.3z"/>
<path d="M2924.1,1344c8.2,4.7,16.4,9.5,24.6,14.2c-1.2,1.6-2.4,3.1-3.6,4.7c-6.8-6.5-13.6-13.1-20.4-19.6
	C2924.7,1343.3,2924.1,1344,2924.1,1344z"/>
<path d="M1180.9,1560.2c7.5-9.6,14.9-19.1,22.4-28.7c0,0-0.6-0.5-0.6-0.5c-7.5,9.5-15,19-22.5,28.6L1180.9,1560.2z"/>
<path d="M3344.9,2001.8c-2.9-11.4-5.9-22.8-8.8-34.1c2-0.3,4-0.6,6-0.9c0.9,11.8,1.8,23.6,2.6,35.4
	C3344.5,2002.3,3344.9,2001.8,3344.9,2001.8z"/>
<path d="M966.7,2651.1c2.3,15.1,4.6,30.1,6.8,45.2c0,0,0.6-0.6,0.5-0.5c-6.8-14.2-14.5-28.3-7.1-45
	C967.1,2650.7,966.7,2651.1,966.7,2651.1z"/>
<path d="M3061.2,3180.5c4.1-4.4,8.2-8.8,12.3-13.3c0.9,0.9,1.9,1.8,2.8,2.7c-4,4.3-8.1,8.6-12.1,13
	C3063.2,3182.1,3062.2,3181.3,3061.2,3180.5z"/>
<path d="M3383.9,2479.5c2.2-7.8,4.4-15.5,6.5-23.3c0.8,0.3,1.6,0.6,2.4,0.9c-3,7.4-6,14.8-8.9,22.2L3383.9,2479.5z"/>
<path d="M2791.7,1249.8c-4.6-2.7-9.1-5.3-13.7-8c0.4-0.9,0.8-1.8,1.3-2.6c5,2.4,10.1,4.7,15.1,7.1
	C2793.5,1247.5,2792.6,1248.7,2791.7,1249.8z"/>
<path d="M1560.6,3269.7c-5.3-3.5-10.9-7.2-16.6-11c0.6-1.1,1.2-2.3,1.9-3.4c5.7,3.3,11.3,6.7,16.9,10.1c0.6,0.3,1.2,1.6,1,2
	C1563.4,3268.1,1562.4,3268.5,1560.6,3269.7z"/>
<path d="M1408.4,1326.4c-7.9,5.4-15.9,10.8-23.8,16.2c0,0,0.6,0.6,0.6,0.6c8-5.4,15.9-10.8,23.9-16.1
	C1409.1,1327.1,1408.4,1326.4,1408.4,1326.4z"/>
<path d="M1409.1,1327.1c4.5-5.7,9-11.4,13.6-17.1c1.5,1.6,3,3.2,4.4,4.8c-6.2,3.9-12.5,7.8-18.7,11.7
	C1408.4,1326.4,1409.1,1327.1,1409.1,1327.1z"/>
<path d="M2873,1298.4c4.1,3.4,8.1,6.7,12.2,10.1c-0.7,0.9-1.3,1.9-2,2.8c-4.4-3-8.8-5.9-13.3-8.9
	C2870.9,1301.1,2872,1299.8,2873,1298.4z"/>
<path d="M1658.5,1171.8c6.9-4,13.8-8.1,20.6-12.1c0.8,2.1,1.6,4.2,2.3,6.3c-7.9,1.8-15.7,3.5-23.6,5.2
	C1657.8,1171.1,1658.5,1171.8,1658.5,1171.8z"/>
<path d="M3379.8,2546.8c-0.2,4.1-0.4,8.2-0.5,12.3c-0.8,0-1.6-0.1-2.4-0.1c0.2-4.1,0.4-8.2,0.7-12.3
	C3378.2,2546.7,3379,2546.7,3379.8,2546.8z"/>
<path d="M3383.9,2479.3c1,8.4,1.9,16.8,2.9,25.1c-0.9,0.1-1.9,0.1-2.8,0.2c0-8.3,0-16.6,0-25
	C3383.9,2479.5,3383.9,2479.3,3383.9,2479.3z"/>
<path d="M2803.6,3379c3.4-2.5,6.7-5.1,10.1-7.6c1.3,1.3,2.6,2.7,3.8,4c-3.6,2.2-7.2,4.4-10.8,6.6
	C2805.6,3381,2804.6,3380,2803.6,3379z"/>
<path d="M1392.4,3315.5c6.7,4.4,13.3,8.7,20,13.1c-9.9-0.3-18.7-2.1-19.3-13.7L1392.4,3315.5z"/>
<path d="M2925.1,3299c-4.7,4.8-9.4,9.7-14.1,14.5c1.1-9.2,4.8-15.7,14.6-13.9C2925.6,3299.6,2925.1,3299,2925.1,3299z"/>
<path d="M1393.1,3314.8c-6.9-2.6-13.7-5.3-20.6-7.9c0.9-1.7,1.8-3.4,2.7-5.2c5.7,4.6,11.4,9.2,17.2,13.7
	C1392.4,3315.5,1393.1,3314.8,1393.1,3314.8z"/>
<path d="M1375.7,3125.1c3,2.7,5.9,5.4,8.9,8.2c-0.7,0.7-1.3,1.5-2,2.2c-3-2.6-6.1-5.3-9.1-7.9
	C1374.3,3126.8,1375,3125.9,1375.7,3125.1z"/>
<path d="M1180.2,1559.6c-6,7.5-12.1,15-18.2,22.5c0,0,0.6,0.6,0.6,0.6c6-7.5,12.1-15,18.2-22.4
	C1180.9,1560.2,1180.2,1559.6,1180.2,1559.6z"/>
<path d="M2981.7,718.4c-101.6,8.1-200.7-4.1-298.4-29.1C2782.3,705.2,2881.2,722.3,2981.7,718.4z"/>
<path d="M2466.8,640.5c1.1-7-0.1-16,3.8-20.8c40.1-49.7,85.2-94.3,140.2-127.9c1.4-0.9,3.5-0.9,10.5-2.4
	c-8.2,7.4-12.7,12.7-18.2,16.3c-52.1,34.4-94.1,79.4-134.5,126.2c-1.6,1.9-1.5,5.3-2.1,8.2C2466.6,640.2,2466.8,640.5,2466.8,640.5z
	"/>
<path d="M2615.7,760.8c-49.5-8.4-99-16.8-148.5-25.4c-6.4-1.1-12.7-3.1-18.1-9.1c56.4,9.2,112.8,18.4,169.2,27.7
	C2617.4,756.3,2616.5,758.5,2615.7,760.8z"/>
<path d="M2666.6,526.3c30.6-31.4,68.3-56.1,113.7-75.6c0.6,0.7,1.5,1.3,1.8,2.2c0.3,0.8,0.2,2.3-0.3,2.6
	C2744.8,478.3,2707.8,501,2666.6,526.3z"/>
<path d="M2925.5,606c48.7,4,97.3,8,146,12c-0.1,1.7-0.3,3.5-0.4,5.2c-48.7-3.7-97.3-7.5-146-11.2C2925.2,610,2925.4,608,2925.5,606z
	"/>
<path d="M2750.5,756.5c35.4,4.1,70.9,8.2,106.3,12.3c-0.2,1.7-0.4,3.4-0.5,5c-35.7-4-71.3-8-107-11.9
	C2749.7,760.1,2750.1,758.3,2750.5,756.5z"/>
<path d="M2976.8,408.6c-27.7,7.8-54.9,16.3-83.1,16c-0.3-2.5-0.6-5-0.9-7.5C2920.8,414.3,2948.8,411.5,2976.8,408.6z"/>
<path d="M2897.2,503.4c24.3-11.3,48.5-22.6,72.8-33.9c1,2.1,2,4.1,3,6.2c-22.8,14.3-47.9,23.9-73.1,33.5
	C2898.9,507.2,2898.1,505.3,2897.2,503.4z"/>
<path d="M3139.7,446.5c-11.4,4-22.7,8.2-34.2,11.7c-4.2,1.3-9,0.6-14.3-3.9c15.8-4,31.6-8,47.4-11.9
	C3138.9,443.8,3139.3,445.2,3139.7,446.5z"/>
<path d="M3210.4,567.6c-5.1,3.1-10.1,6.3-15.2,9.4c-0.7-1.1-1.3-2.2-2-3.3c5.1-3.1,10.1-6.3,15.2-9.4
	C3209.1,565.3,3209.7,566.5,3210.4,567.6z"/>
</svg>
