<?xml version="1.0" encoding="utf-8"?>
<!-- Generator: Adobe Illustrator 24.3.0, SVG Export Plug-In . SVG Version: 6.00 Build 0)  -->
<svg version="1.1" id="Layer_1" xmlns="http://www.w3.org/2000/svg" xmlns:xlink="http://www.w3.org/1999/xlink" x="0px" y="0px"
	 viewBox="0 0 4000 4000" style="enable-background:new 0 0 4000 4000;" xml:space="preserve">
<path d="M2122.3,740.8c6.5-12.9,10.8-20.1,13.9-27.7c38.1-94,91-179,159.2-253.9c78-85.7,174.9-142.1,283.6-180.5
	c94.7-33.5,192.7-47.6,292.2-52c114.2-5.1,228.5-8.2,342.8-12.9c23.4-1,46.8-4.5,69.9-8.4c47.5-8,67.2,11.7,55.4,59.1
	c-28.5,114.5-70.7,224-125.6,328.5c-6,11.4-11.9,22.7-17.8,34.1c-109.8,210.8-285,335.7-513.7,388.6
	c-165.5,38.3-329.1,21.8-491.3-21.5c-12.1-3.2-24.3-6.5-38-10.1c0,67.9,0,132.7,0,200.3c21.3-5.3,39.5-11.2,58.1-14
	c45.4-6.8,90.9-15.8,136.5-17.1c59.5-1.7,118.6-13.6,178.6-5.1c95.6,13.5,183.9,46.3,265.4,97.7c21.7,13.7,43.5,27.2,64.8,41.4
	c7.4,4.9,13.6,11.7,18.9,19.9c-128.6-85.1-261.6-156.5-421.7-153.8c21.8,3.2,43.9,5.5,65.5,9.8c23,4.6,45.9,10.1,68.4,16.9
	c144.8,43.4,267.6,122.1,368.1,234.8c145.9,163.5,241,353.8,296.1,565.1c33,126.5,56.4,254.3,63.4,385c6.2,116.6,5.9,232.8-7.2,349
	c-26.7,238.2-97.6,461-226.4,664.5c-69.8,110.1-158.7,201.1-266.7,273.2c-121.3,81-254.8,123.4-401.3,122.9
	c-63.8-0.2-124.9-15.6-185.4-33.4c-15-4.4-28.2-5.3-43.4-0.4c-161.8,52.5-323.4,50.6-485-1.7c-138.3-44.8-255.3-122.1-355.5-226.9
	c-147.2-154-244.1-336.1-304.7-538.8c-50.6-169.3-72.6-342.9-71.4-518.9c1.7-255.7,54.4-500.8,168.1-730.9
	c64.4-130.3,147-249,253.8-347.8c157.3-145.4,343.3-221.1,560.1-211.5c30.6,1.4,61.1,5.7,91.9,8.7c1.3-5.5,3.1-8.6,2.6-11.4
	c-26.3-154.8-67.4-304.5-152.1-439.2c-38.4-61.1-83.6-116.2-141.4-160.1c-5.1-3.9-9.8-8.3-14.8-12.2c-51-40.4-45.8-93.9-22.8-135.1
	c50.3-90.2,167.1-102.2,234.5-22.3c49.2,58.2,86.9,124.4,116,194.8C2083.6,635.6,2101,684.8,2122.3,740.8z M2719.1,2489.3
	c-4.4-61.8-7.1-123.8-13.7-185.3c-20.5-192.8-67.4-378.5-155.7-552.2c-69.1-135.9-155.6-258-280.8-348.8
	c-169.6-123-354.1-160.4-554.9-92.6c-125.8,42.5-226.3,123.2-313.3,221.3c-100.6,113.6-169.9,245.4-221.5,387.2
	c-88.7,243.7-112.4,494.6-82.3,751.4c14.5,123.6,40.7,244.1,84.7,361c66.8,177.6,167.7,331.7,310.9,456.2
	c162.1,140.9,348.7,202.4,564,164.9c149.8-26,275.5-93.5,376.2-208.3c83.6-95.3,147-202.1,189.4-321.1
	C2695,2918.2,2720.8,2706,2719.1,2489.3z M2221,1294.6c11.9,7.1,18.4,10.5,24.3,14.5c38.7,26.6,79.6,50.5,115.5,80.4
	c113,93.9,194.3,212.9,257.1,344.1c107.5,224.8,162.2,463.1,168.3,712.1c1.7,70.4-1.5,141-4,211.4c-6.2,172-36.6,339.8-96.4,501.4
	c-69.9,188.9-180.8,348-345.2,467.4c-5.2,3.8-8.8,9.9-15.2,17.3c121.3,22.9,234.2,9.9,340.6-43.6c134.9-67.9,241-168,320.9-296.3
	c135-216.7,196.1-455.4,212.7-707.6c6.6-100.6,4.2-200.7-7.4-300.8c-17-148.1-45.6-293.4-100.9-432.5
	c-60.6-152.7-143.4-291.4-262.1-406.3c-132.8-128.5-290.2-197.3-477.4-189.5C2309.1,1268.4,2267,1274.9,2221,1294.6z M2186.3,843.9
	c16-8.9,26.4-13.7,35.7-20.1c39.6-26.8,78.3-54.8,120.8-77.4c41.3-22,80.8-47.1,122-69.2c79.7-42.7,158.2-87.7,241.9-122.5
	c22.5-9.4,43-23.6,64.5-35.4c5.6-3.1,11.2-6,17.1-8.5c40.3-16.7,80.9-33,121.1-50.1c23.6-10,46.2-22.3,69.9-32
	c54.3-22.3,109-43.8,163.6-65.4c8.4-3.3,17.1-5.6,25.7-8.3c0.9,2,1.8,4.1,2.7,6.1c-72,41.1-143.5,83.1-216.1,123.1
	c-72.1,39.7-146.9,74.4-216.9,117.9c0.6,2.3,1.2,4.6,1.8,6.9c97.4,0,194.9,0,292.3,0c0.1,2.3,0.1,4.5,0.2,6.8
	c-13.5,0.7-27.1,2.1-40.6,2c-84.4-0.5-168.9-0.2-253.3-2.6c-22.5-0.6-42.7,2.6-61.6,13c-96.3,52.8-192.4,105.9-288.3,159.5
	c-35.4,19.8-70.4,40.3-104.6,62.1c-24.5,15.7-52.4,27.6-72.3,53.8c127.2,36.2,252.8,44.8,380.3,27.1c67.9-9.4,134.9-22.9,198.4-49.6
	c125.2-52.6,221.8-138,293.3-253.5c59.9-96.9,105.2-200.3,144.4-306.8c0.9-2.4-0.7-5.6-1.4-10.6c-26.1,2.4-51.4,5.7-76.8,6.8
	c-99.3,4.6-198.6,8-297.9,12.7c-83.6,4-165.9,16.2-245.1,44.4c-87.3,31.1-169.6,70.8-234.5,139.6
	c-56.9,60.3-103.6,127.8-140.2,202.1C2213.6,753.9,2194.7,792.3,2186.3,843.9z M1841.1,545.8c73.4,62.5,116.1,146,158.4,230.2
	c42.4,84.3,69.2,173.8,91.9,264.9c-2.7-200.3-48.1-387.9-159.2-554.8C1901.4,506.3,1872.4,525.3,1841.1,545.8z M1843.9,410.8
	c-7.8,1.2-18.7,1.6-28.8,4.6c-24.3,7.3-42.5,31.3-42.8,54.3c-0.2,13.5,5.1,25,18.8,25.2c27.5,0.3,56.2,0.8,78.9-18.7
	c13.1-11.2,25.3-26,19.5-44.3C1883.3,412.6,1864.1,412,1843.9,410.8z"/>
<path d="M1129.6,1666.4c-149.4,316-216.8,644.8-180.2,993.1c-2.3,0-4.7-0.1-7-0.1c-2.6-16.4-6.7-32.8-7.6-49.4
	c-5.3-101.4-14-202.9,0.3-304.1c8.4-59,19-117.9,32.3-176c19.5-85.2,44.4-169.2,62.8-254.6c12.4-57.6,35.3-110.6,59.4-163.4
	c3.7-8.1,15.3-12.3,21.9-19.6C1118,1685,1122.9,1676.1,1129.6,1666.4z"/>
<path d="M3083.4,3421.4c4.7-9.2,8.4-19.1,14.1-27.7c68.9-103.6,124.5-213.5,158.3-333.7c15.9-56.4,32-112.7,46-169.5
	c7.1-28.9,10.4-58.8,14-88.4c17.8-146.7,21-293.8,13.1-441.3c-1.4-26.6-0.2-53.2,4.6-80c3.5,94.8,10.6,189.6,9.8,284.4
	c-1.5,170.4-23.8,338.3-76.6,501.2c-39.1,120.6-95,232.9-166.7,337.4c-4.5,6.6-11.5,11.4-17.4,17
	C3082.7,3420.8,3083.4,3421.4,3083.4,3421.4z"/>
<path d="M1440.8,3639.5c-10.1-5.6-21.1-10-30.2-17c-157-121-268-276.7-345-457.9c-2.4-5.7-2.3-12.4-3.3-18.6l-0.7,0.6
	c5.2,7.5,11.7,14.3,15.4,22.5c55.6,122.3,124.1,236.5,217.2,334.1c34.6,36.2,73.5,68.2,110.3,102.3c12.2,11.3,23.8,23.2,35.7,34.8
	L1440.8,3639.5z"/>
<path d="M3199.9,1752.2c-5.5-7.3-12.6-13.8-16.2-21.9c-48.7-108.6-112.6-207.6-187.5-299.7c-2.4-3-4.6-6.2-5.2-10.7
	c23.4,16.1,44,34.8,59.1,59.2c32.4,52.6,66.9,104,96.9,157.9c20.6,36.9,35,77.1,52.2,115.9L3199.9,1752.2z"/>
<path d="M1062.3,3146c-4.6-8.1-10.1-15.8-13.6-24.4c-46.1-114.8-77.1-233.6-91.9-356.6c0.1-0.2-0.1,0.3-0.1,0.3
	c16,7.5,12,23.8,14.8,36.3c11.8,51.9,19.9,104.7,33.5,156.1c14.2,53.5,33.4,105.6,50,158.4c3.1,9.8,4.4,20.3,6.6,30.4
	C1061.7,3146.5,1062.3,3146,1062.3,3146z"/>
<path d="M3128.7,201.5c-130.4,7.4-260.8,14.8-391.1,22.2C2866.8,200.3,2997.7,201,3128.7,201.5z"/>
<path d="M3199.2,1752.8c19.8,48.1,42.5,95.3,58.6,144.5c18.3,55.6,30.8,113.1,45.6,169.8c1.8,7,2,14.4-0.7,22.4
	c-14.6-52-28.1-104.3-44.1-155.8c-15.2-48.8-33.3-96.7-49.7-145.1c-4-11.8-6.1-24.3-9-36.4
	C3199.9,1752.2,3199.2,1752.8,3199.2,1752.8z"/>
<path d="M3051.3,3466.5c-2.1,4.8-3.2,10.4-6.4,14.3c-57.8,70.3-127.6,126.6-209.9,179.6c5-8.8,5.8-11.9,7.8-13.2
	c74.3-49,138.7-109.1,198.6-174.5c2.5-2.8,7-3.8,10.6-5.6C3051.9,3467.1,3051.3,3466.5,3051.3,3466.5z"/>
<path d="M1481.2,1274.9c-75.7,55.6-149.8,113.2-216.9,179.2C1325.8,1381.3,1397.4,1320.8,1481.2,1274.9z"/>
<path d="M3337.4,2952.1c-11.4,38-22.1,76.2-34.6,113.8c-5.3,16.1-14.5,30.9-22,46.3c0,0,0.7,0.6,0.7,0.6c0.2-4.2-0.5-8.7,0.7-12.6
	c13.6-44.5,27.3-89,41.8-133.2C3325.9,2961.2,3332.8,2957,3337.4,2952.1C3337.4,2952.1,3337.4,2952.1,3337.4,2952.1z"/>
<path d="M2912.3,1296.2c21.4,22.6,42.7,45.3,64.1,67.9c0.4-0.4,0.8-0.9,1.2-1.3c-21.1-18.5-42.3-36.8-62.9-55.7
	c-2.2-2-1.1-7.6-1.6-11.6L2912.3,1296.2z"/>
<path d="M3006.7,881.4c20.7-21.6,41.5-43.3,62.2-64.9c1.5,1.5,2.9,3.1,4.4,4.6c-21.6,20.8-39,45.9-67.3,59.6L3006.7,881.4z"/>
<path d="M3192.3,3312.1c10.5-23.8,21-47.5,31.5-71.3c1.8,0.9,3.7,1.8,5.5,2.7c-10.9,23.5-16.6,49.6-37.6,68.1
	C3191.7,3311.6,3192.3,3312.1,3192.3,3312.1z"/>
<path d="M3245.7,1783.5c-14.2-15.5-21.9-33.4-27.5-74.1c8.9,24.9,17.9,49.8,26.8,74.7L3245.7,1783.5z"/>
<path d="M1203.1,1521.7c13.3-17.1,26.6-34.3,39.9-51.4c-3.5,22.8-18.8,40.1-40.7,50.7L1203.1,1521.7z"/>
<path d="M3337.4,2952.1c-9.5-27.6,2-52,12.4-76.5C3345.6,2901.1,3341.5,2926.6,3337.4,2952.1
	C3337.4,2952.1,3337.4,2952.1,3337.4,2952.1z"/>
<path d="M3051.9,3467.1c4.3-19.5,15.1-34.5,31.5-45.7c0,0-0.6-0.6-0.6-0.6c-10.5,15.2-21,30.4-31.5,45.6
	C3051.3,3466.5,3051.9,3467.1,3051.9,3467.1z"/>
<path d="M1440.2,3640.2c18.1,0.7,29.9,10.7,38.1,25.9l0.7-0.7c-12.7-8.6-25.4-17.3-38.2-25.9
	C1440.8,3639.5,1440.2,3640.2,1440.2,3640.2z"/>
<path d="M3139.7,3404.2c-6.3,9.3-12.6,18.6-18.9,27.9c-1.8-1.2-3.7-2.3-5.5-3.5c6.3-9.5,12.5-19,18.8-28.6
	C3135.9,3401.5,3137.8,3402.9,3139.7,3404.2z"/>
<path d="M2913,1295.5c-9.5-4-19-8.1-28.5-12.1c1-1.9,2.1-3.8,3.1-5.7c8.1,6.2,16.2,12.4,24.5,18.5
	C2912.3,1296.2,2913,1295.5,2913,1295.5z"/>
<path d="M3254.5,1820c5,8.2,10,16.3,15,24.5c-2.1,1-4.3,1.9-6.4,2.9c-2.7-9.3-5.4-18.7-8-28.1
	C3255.2,1819.3,3254.5,1820,3254.5,1820z"/>
<path d="M3325.3,2222.8c0.5,8.5,0.9,17,1.4,25.5c-1.3,0.1-2.6,0.2-3.8,0.3c-0.6-8.5-1.2-17-1.8-25.5
	C3322.5,2223,3323.9,2222.9,3325.3,2222.8z"/>
<path d="M3173.1,3344.4c6.4-10.8,12.8-21.5,19.2-32.3c0,0-0.6-0.5-0.6-0.5c0.1,14.6-5.6,25.8-19.2,32.2L3173.1,3344.4z"/>
<path d="M3172.5,3343.8c-4.1,10-8.2,20-12.3,29.9c-3.7-14,2.2-23.1,13-29.4C3173.1,3344.4,3172.5,3343.8,3172.5,3343.8z"/>
<path d="M1478.3,3666.1c9.7,3.5,19.4,7,29.1,10.4c-1.3,2.5-2.6,4.9-3.9,7.4c-8.2-6.2-16.4-12.4-24.6-18.6
	C1479,3665.3,1478.3,3666.1,1478.3,3666.1z"/>
<path d="M3268.3,3144.5c4.4-10.6,8.8-21.1,13.2-31.7c0,0-0.7-0.6-0.7-0.6c1.2,12.9,2.6,25.8-13.1,31.7
	C3267.7,3143.9,3268.3,3144.5,3268.3,3144.5z"/>
<path d="M3267.7,3143.9c-1.8,9.3-3.5,18.6-5.3,27.8c-2.5-0.9-5-1.7-7.4-2.6c4.5-8.2,8.9-16.4,13.4-24.6
	C3268.3,3144.5,3267.7,3143.9,3267.7,3143.9z"/>
<path d="M957.9,2716.6c-2.9-2.5-7.1-4.5-8.4-7.7c-1.5-3.6-0.3-8.2-0.3-14.4c3.4,8.7,6.1,15.5,8.7,22.2L957.9,2716.6z"/>
<path d="M3006,880.7c-5.6,5.9-11.2,11.8-16.8,17.7c-1.4-1.7-2.7-3.4-4.1-5.1c7.2-3.9,14.4-7.9,21.6-11.8
	C3006.7,881.4,3006,880.7,3006,880.7z"/>
<path d="M3044.2,3526.1c2.7-3.4,5.3-6.7,8-10.1c0.9,0.7,1.7,1.5,2.6,2.2c-2.9,3.1-5.8,6.3-8.7,9.4
	C3045.5,3527.2,3044.9,3526.6,3044.2,3526.1z"/>
<path d="M957.8,2716.7c-0.3,16.1-0.6,32.2-1,48.4c-0.1,0.1,0.1-0.3,0.1-0.2C957.1,2749,957.5,2732.9,957.8,2716.7
	C957.9,2716.6,957.8,2716.7,957.8,2716.7z"/>
<path d="M1202.3,1521c-3.1,7.8-6.1,15.6-9.2,23.4c-2.1-1.2-4.2-2.4-6.3-3.5c5.4-6.4,10.8-12.7,16.2-19.1
	C1203.1,1521.7,1202.3,1521,1202.3,1521z"/>
<path d="M3245,1784.2c3.2,11.9,6.4,23.8,9.6,35.8c0,0.1,0.6-0.7,0.5-0.6c-6.5-11-16-21.2-9.5-35.7
	C3245.7,1783.5,3245,1784.2,3245,1784.2z"/>
<path d="M1312.8,2144.6c5-104,30.2-195,69.6-282.4c44.2-98,98.2-189.6,173.2-267.7c35.1-36.6,74.9-67.3,120.2-89.6
	c21.5-10.6,46.1-18.3,69.9-20.4c35.4-3,50.6,19.8,40.3,53.8c-12.7,41.9-40.2,75-65.9,109.1c-45,59.7-91.1,118.7-134.5,179.5
	c-52.4,73.4-88.6,155.9-126.6,237.2c-16.2,34.8-33.7,69.2-52.4,102.7c-8.7,15.6-20.7,30-33.4,42.7c-22.4,22.5-46.3,15.9-54.4-15.3
	C1314,2175.8,1314.1,2156.2,1312.8,2144.6z M1324.4,2149.6c1.5,9.3,2.8,27.6,7.9,44.7c4.5,15.4,13.9,19.1,26.9,9.7
	c13.4-9.7,26.6-22.2,34.7-36.4c18.9-33.3,35.7-68,51.6-102.9c43.4-95.4,89-189.6,150.6-274.8c38.8-53.6,81.6-104.2,120.8-157.6
	c20.7-28.2,39.4-58.2,55.1-89.4c17.5-34.8-5.3-48.8-36.1-44c-22.7,3.5-45.4,12.5-65.9,23.3c-41.8,21.9-78.2,51.8-110.6,86.2
	c-86.3,91.8-147,198.9-188.9,317C1345.7,1995.1,1328.2,2066.5,1324.4,2149.6z"/>
<path d="M1568.3,3271.1c4.8-23.3-4.6-35.8-12.8-47.7c-23-33.4-48.2-65.3-70.4-99.2c-21-32-39.5-65.8-58.8-98.9
	c-2.4-4.1-2.8-9.4-0.4-15.7c3.6,5.8,7.7,11.4,10.8,17.5c27.8,54.5,63.6,103.6,100.2,152.3c17.2,22.8,30.5,48.7,43.5,74.3
	c3.5,6.8-0.9,17.6-1.7,26.6c-8.9-0.9-19.3,0.9-26.3-3.1c-39.6-22.8-70.4-56.1-96.3-92.7c-60.5-85.5-104.3-178.7-119.5-283.6
	c-0.9-6.2-1.1-12.6-1-18.9c0-1.5,2.5-3.1,6.6-7.7c3.1,7,9.4,15,7.5,18c-8.7,14.2-2.3,26.9,1.2,40c23.5,87.4,58.8,169.6,112.5,242.6
	c20.7,28.1,47.4,51.9,72.4,76.6C1543.6,3259,1555.1,3263.2,1568.3,3271.1z"/>
<path d="M1302.8,1921.9c-29.2,102.8-60.1,204.6-73.2,310.7c-12.9,105.3-11.7,210.8-4.6,316.1
	C1195.7,2332.9,1223.3,2123.8,1302.8,1921.9z"/>
<path d="M2650.4,2583.8c7.7,113.3-13.5,219.8-32.6,326.6C2628.5,2803.3,2639.1,2696.3,2650.4,2583.8z"/>
<path d="M1212.8,2925.2c4.2,3.6,11,6.4,12.2,10.8c24.7,92.3,68.5,176,115.6,258.2c1.3,2.3,1.2,5.4,0.1,8.8
	c-57.6-85.9-98.1-179.5-127.5-278.2L1212.8,2925.2z"/>
<path d="M1193.2,2809.8c-2.9-5.1-7.8-10-8.5-15.4c-7-57.8-13.4-115.8-19.6-173.7c-0.6-6,0.7-12.1,3.2-18.2
	c8.1,69.3,16.2,138.5,24.3,207.8L1193.2,2809.8z"/>
<path d="M1775.3,3568.4c13.6,2.4,27.1,4.9,40.7,7.2c34.5,5.9,69,11.6,98.9,16.6c-38.2,6.9-110.9-5.1-139-24.6L1775.3,3568.4z"/>
<path d="M1294.6,1811.8c-15.9,36.2-31.8,72.4-47.8,108.6c-1.9-0.8-3.9-1.6-5.8-2.4c15.1-36.6,30.3-73.3,45.4-109.9
	C1289.1,1809.3,1291.9,1810.6,1294.6,1811.8z"/>
<path d="M1536.6,1483.5c-1.5,3.7-2.1,8.4-4.7,11c-26.2,25.7-52.7,51.1-81.2,74.3c27.7-29.4,50.8-63.4,86.5-84.7L1536.6,1483.5z"/>
<path d="M1350.2,3110.3c19.4,31.2,38.8,62.5,61,98.1C1387.7,3189.9,1365.3,3155.5,1350.2,3110.3z"/>
<path d="M1472.9,3293.3c27.3,25.8,54.6,51.7,81.8,77.5c-33.1-20-62.8-43.3-81.2-78.2L1472.9,3293.3z"/>
<path d="M2635.8,2134.1c-6.6-31.3-13.3-62.7-21.3-100.7C2633.2,2074.7,2639.9,2104.6,2635.8,2134.1z"/>
<path d="M2567.4,2945.8c-8.1,29.4-16.1,58.8-24.2,88.2C2549.5,3004.1,2542.9,2970.5,2567.4,2945.8L2567.4,2945.8z"/>
<path d="M2365,3177.8c10.6-20.3,21.3-40.6,34.5-66c-2.3,27.8-13.6,47.1-35.2,65.4C2364.3,3177.1,2365,3177.8,2365,3177.8z"/>
<path d="M1376.7,1663.7c-10.7,18.7-21.4,37.5-32.1,56.2c3.7-23.1,13.3-42.6,32.7-55.7L1376.7,1663.7z"/>
<path d="M2525.5,3090.9c-6.9,16.9-13.8,33.8-20.6,50.7c-1.7-0.6-3.3-1.3-5-1.9c6.7-17.3,13.4-34.6,20.1-51.8
	C2521.8,3088.9,2523.6,3089.9,2525.5,3090.9z"/>
<path d="M2429.4,3370.2c10.5-16.5,21-33,31.5-49.4c-4.2,20.9-14.7,37.3-32.2,48.8L2429.4,3370.2z"/>
<path d="M2324,3289.3c8.2-8.7,18.1-19.3,28-29.8c0.9,0.8,1.8,1.7,2.7,2.5C2343.9,3271.6,2333.1,3281.2,2324,3289.3z"/>
<path d="M1736,3555.9c-18.4-5.9-36.9-11.9-55.3-17.8c0.8-2,1.6-4,2.4-5.9c18.3,6.2,38.3,8.2,52.5,24.4
	C1735.5,3556.6,1736,3555.9,1736,3555.9z"/>
<path d="M1846.1,3518c14.5,2.7,29,5.4,43.5,8.2c-0.2,1.4-0.4,2.8-0.7,4.2c-15.5-2.5-30.9-5.1-46.4-7.6
	C1843.7,3521.1,1844.9,3519.6,1846.1,3518z"/>
<path d="M1635.3,3432.5c15.3,9.1,30.6,18.3,45.9,27.4c-17.4-5.7-39.5-4.8-45.1-28.2C1636.1,3431.8,1635.3,3432.5,1635.3,3432.5z"/>
<path d="M1613.5,1425.7c-14.7,10.9-29.3,21.9-44,32.8c0,0,0.6,0.6,0.6,0.6c9-18.5,26.6-25.4,44-32.7L1613.5,1425.7z"/>
<path d="M2368,3341.4c-8,7.9-15.9,15.9-23.9,23.8c-1.1-1-2.1-1.9-3.2-2.9c7.7-8.4,15.3-16.8,23-25.2
	C2365.3,3338.6,2366.7,3340,2368,3341.4z"/>
<path d="M1588.7,3402.1c15.5,10.2,30.9,20.4,46.5,30.5c0.1-0.1,0.8-0.8,0.9-0.9c-22.7,0.9-36.2-12.4-46.9-30.3L1588.7,3402.1z"/>
<path d="M1377.3,1664.3c8.2-14.6,16.4-29.1,24.7-43.7c2,1.3,4.1,2.7,6.1,4c-8.9,14.2-15.6,29.9-31.4,39.1
	C1376.7,1663.7,1377.3,1664.3,1377.3,1664.3z"/>
<path d="M2428.7,3369.5c-8,11.8-16,23.7-24,35.5c-1.8-1.4-3.5-2.7-5.3-4.1c9.3-10.8,14.6-24.9,30-30.7
	C2429.4,3370.2,2428.7,3369.5,2428.7,3369.5z"/>
<path d="M1213.3,2924.7c-3.8-17.7-7.5-35.4-11.2-53.1c0.1-0.1-0.5,0.6-0.5,0.6c15.1,15.1,18.3,32.9,11.4,52.9
	C1212.8,2925.2,1213.3,2924.7,1213.3,2924.7z"/>
<path d="M1192.5,2810.4c7.1,19.9,14.8,39.7,9,61.6c-0.1,0.1,0.5-0.6,0.4-0.5c-5.7-20.1-16.8-39.5-8.9-61.7
	C1193.2,2809.8,1192.5,2810.4,1192.5,2810.4z"/>
<path d="M2364.3,3177.1c-4.4,10-8.7,19.9-13.1,29.9c-4.5-15.2,0.6-24.8,13.8-29.3C2365,3177.8,2364.3,3177.1,2364.3,3177.1z"/>
<path d="M1473.5,3292.7c-8.9-7.7-17.8-15.5-26.8-23.2c1.9-1.8,3.8-3.7,5.8-5.5c8.1,8.6,18.2,15.5,20.4,29.4
	C1472.9,3293.3,1473.5,3292.7,1473.5,3292.7z"/>
<path d="M2399.3,3297.9c5.7-6.5,11.4-13,17.1-19.4c1.1,0.9,2.2,1.8,3.3,2.7c-5.4,6.7-10.7,13.4-16.1,20.1
	C2402.2,3300.2,2400.7,3299,2399.3,3297.9z"/>
<path d="M1537.2,1484.1c11-8.3,21.9-16.7,32.9-25c0,0-0.6-0.6-0.6-0.6c-11,8.3-22,16.7-33,25
	C1536.6,1483.5,1537.2,1484.1,1537.2,1484.1z"/>
<path d="M2567.4,2945.9c-3-13.6-6.6-27.3,5.5-42.9c-2.2,16.8-3.9,29.8-5.6,42.8C2567.4,2945.8,2567.4,2945.9,2567.4,2945.9z"/>
<path d="M1942.4,3525.9c8.3-0.5,16.6-1.1,25-1.6c0.1,1.2,0.2,2.4,0.3,3.5c-7.9,0.5-15.8,1.1-23.7,1.6
	C1943.5,3528.3,1942.9,3527.1,1942.4,3525.9z"/>
<path d="M2470.2,3192.5c6.7-9.4,13.4-18.8,20.1-28.1c-4,11.4-0.3,28.5-20.5,27.7C2469.8,3192.1,2470.2,3192.5,2470.2,3192.5z"/>
<path d="M1775.9,3567.8c-15,1.9-28.9,0-39.9-11.8c0,0-0.5,0.6-0.5,0.6c13.2,4,26.5,7.9,39.7,11.9
	C1775.3,3568.4,1775.9,3567.8,1775.9,3567.8z"/>
<path d="M1331.2,1740c-4.2,7.8-8.3,15.5-12.5,23.3c-1.6-0.7-3.3-1.5-4.9-2.2c3.7-8.1,7.3-16.2,11-24.4
	C1327,1737.8,1329.1,1738.9,1331.2,1740z"/>
<path d="M2469.8,3192.1c7.6,13.1-2.8,20.6-11,28.7c3.9-9.3,7.8-18.6,11.6-28.1C2470.2,3192.5,2469.8,3192.1,2469.8,3192.1z"/>
<path d="M1647.4,1408.1c6.2-5.3,12.5-10.6,18.7-15.9c1.2,1.8,2.4,3.5,3.6,5.3c-7.6,3.3-15.3,6.7-22.9,10
	C1646.8,1407.4,1647.4,1408.1,1647.4,1408.1z"/>
<path d="M1614.1,1426.3c11.1-6.1,22.2-12.2,33.3-18.3c0,0-0.6-0.7-0.6-0.6c-11.1,6.1-22.2,12.2-33.3,18.3
	C1613.5,1425.7,1614.1,1426.3,1614.1,1426.3z"/>
<path d="M1744.7,3490.3c10,3.4,20,6.7,29.9,10.1c-12.6,3.5-22.8,1-29.2-10.6L1744.7,3490.3z"/>
<path d="M1427,3230.9c4.2,5.9,8.4,11.7,12.7,17.6c-1.3,0.9-2.6,1.8-3.9,2.8c-4.2-5.9-8.4-11.8-12.6-17.7
	C1424.5,3232.7,1425.8,3231.8,1427,3230.9z"/>
<path d="M1589.3,3401.5c-8.3-4.2-16.5-8.4-24.8-12.6c1.6-2.1,3.1-4.3,4.7-6.4c6.5,6.6,13,13.1,19.5,19.7
	C1588.7,3402.1,1589.3,3401.5,1589.3,3401.5z"/>
<path d="M1745.4,3489.7c-8.9-1.4-17.7-2.8-26.6-4.3c0.5-1.8,1.1-3.7,1.6-5.5c8,3.5,16,7,24.1,10.5
	C1744.7,3490.3,1745.4,3489.7,1745.4,3489.7z"/>
<path d="M2005.7,3590.9c4.9,0,9.8,0,14.6,0c0,0.3-0.1,0.7-0.1,1c-4.9,0-9.7,0-14.6,0C2005.7,3591.6,2005.7,3591.2,2005.7,3590.9z"/>
<path d="M1417.9,1605.2c4-5.2,8-10.3,11.9-15.5c1.2,0.8,2.4,1.7,3.6,2.5c-3.6,5.4-7.3,10.8-10.9,16.1
	C1421,1607.3,1419.4,1606.3,1417.9,1605.2z"/>
<path d="M3075,2919.2c11.6-56.3,26.2-112.1,34-168.9c17-123.7,28-248,10.4-372.9c-2.1-14.6-2.6-29.5,1.3-45.2
	c1.5,9.2,3.7,18.4,4.5,27.7c11.5,131,16.7,261.9-8.1,392.1c-9.2,48.1-18.8,96.1-29.3,143.8c-1.8,8.1-9,15-13.6,22.6
	C3074.3,2918.5,3075,2919.2,3075,2919.2z"/>
<path d="M2779.7,3027.6c9.2-43.6,19.3-87,27.4-130.8c10.5-56,19.4-112.3,32.2-168.2c-3.1,30.3-4.4,60.9-9.7,90.8
	c-10.7,59.5-23.2,118.7-36,177.8c-2.3,10.5-9.5,19.9-14.5,29.8C2779.2,3026.9,2779.7,3027.6,2779.7,3027.6z"/>
<path d="M2817.6,2237.5c2.7,2.9,7.4,5.5,7.7,8.6c6.3,66.3,12.2,132.7,18.1,199c-2.2,0.2-4.3,0.4-6.5,0.6
	c-6.3-69.6-12.6-139.2-18.8-208.9L2817.6,2237.5z"/>
<path d="M2974.4,3036.8c-8.3,26-14.6,52.9-25.3,77.9c-13.4,31.4-30.3,61.3-45.7,91.9c-1.9-1-3.8-1.9-5.7-2.9
	c11.1-22.3,23-44.2,33-66.9c11.4-26.1,20.6-53.2,31.5-79.6c3-7.2,8.5-13.3,12.8-19.9C2975,3037.4,2974.4,3036.8,2974.4,3036.8z"/>
<path d="M2646.7,3421.2c-2.2,5.7-3.2,12.4-6.8,17.1c-26.4,34.5-53.7,68.2-90.8,93.1c4.9-6.1,9.6-12.4,14.9-18.2
	c27.7-30.6,55.5-61,83.3-91.4C2647.3,3421.7,2646.7,3421.2,2646.7,3421.2z"/>
<path d="M3036,2771.1c5.9-46.6,11.8-93.1,17.6-139.7c2.2,0.3,4.3,0.5,6.5,0.8c-4.3,44.6-6,89.6-17.4,133.4c-0.5,2.1-4.8,3.2-7.3,4.8
	L3036,2771.1z"/>
<path d="M2435.6,1394.3c35.7,24.1,67.8,51.7,89.2,90l0.6-0.6c-16.4-15.8-33.1-31.4-49.2-47.6c-13.7-13.8-26.7-28.3-40.1-42.4
	L2435.6,1394.3z"/>
<path d="M3036.6,3034.7c12.9-38.4,25.7-76.9,38.5-115.4c-0.1-0.1-0.8-0.8-0.9-0.8c0.4,7.2,2.9,15.1,0.9,21.6
	c-8.8,28.5-18.7,56.7-28.9,84.8c-1.4,3.8-6.8,6.2-10.4,9.2L3036.6,3034.7z"/>
<path d="M2647.3,3421.7c16.9-31.5,33.8-62.9,50.6-94.4c2.1,1.2,4.1,2.4,6.2,3.5c-15.6,32.2-30,64.9-57.4,90.3
	C2646.7,3421.2,2647.3,3421.7,2647.3,3421.7z"/>
<path d="M2878,3120c-4.6,22.4-13.9,42.7-32.7,58.1c11.1-19.2,22.2-38.4,33.3-57.7C2878.6,3120.5,2878,3120,2878,3120z"/>
<path d="M2818.1,2236.9c-4.9-24.9-9.7-49.8-14.6-74.8l-0.4,0.4c3.6,3.1,9.9,5.8,10.2,9.2c2.2,21.8,3.1,43.7,4.3,65.7
	C2817.6,2237.5,2818.1,2236.9,2818.1,2236.9z"/>
<path d="M2836.7,3415.9c-11.5,11.3-22.9,22.7-34.4,34c-1-0.9-1.9-1.7-2.9-2.6c11-11.5,22-23,32.9-34.4
	C2833.8,3413.9,2835.3,3414.9,2836.7,3415.9z"/>
<path d="M3035.5,2770.5c6.9,20.2,1.2,38.9-7.6,63.4c-5-26,4.8-43.9,8.2-62.7C3036,2771.1,3035.5,2770.5,3035.5,2770.5z"/>
<path d="M2883.6,3236.2c-7.9,13.2-15.9,26.4-23.8,39.7c-1.7-1-3.5-2-5.2-3c7.9-13.6,15.7-27.2,23.6-40.8
	C2880,3233.4,2881.8,3234.8,2883.6,3236.2z"/>
<path d="M2803.5,2162.1c-2.8-19.5-5.7-38.9-8.5-58.4c10.9,18.6,16.8,37.8,8.3,58.6C2803.1,2162.5,2803.5,2162.1,2803.5,2162.1z"/>
<path d="M3073.6,2033.8c3.3,4.5,7.8,8.5,9.7,13.5c4.2,11.1,7.1,22.8,10.5,34.2l0.1,0c-18.4-11.2-12.9-32.3-20-48.2L3073.6,2033.8z"
	/>
<path d="M2878.6,3120.5c3.2-13.2,5.8-26.7,10.2-39.5c1.2-3.4,7.9-4.9,12.1-7.3c0,0,0-0.1,0-0.1c-7.6,15.5-15.3,30.9-22.9,46.4
	C2878,3120,2878.6,3120.5,2878.6,3120.5z"/>
<path d="M2563,1525.9c6.2,9,12.4,18.1,18.5,27.1c-1.4,1-2.9,2-4.3,3c-6.3-9-12.6-17.9-18.9-26.9
	C2559.9,1528.1,2561.4,1527,2563,1525.9z"/>
<path d="M3093.8,2081.5c1.6,14,3.3,28.1,4.9,42.1C3087.7,2110.5,3088.6,2096.2,3093.8,2081.5
	C3093.8,2081.5,3093.8,2081.5,3093.8,2081.5z"/>
<path d="M2731.3,1434.6c6.8,5.6,13.6,11.3,20.4,16.9c-1,1.3-2.1,2.6-3.1,3.9c-6.8-5.6-13.7-11.2-20.5-16.9
	C2729.2,1437.2,2730.2,1435.9,2731.3,1434.6z"/>
<path d="M2832.8,1542.5c-5.4-6-10.8-12-16.2-18c0.6-0.7,1.2-1.3,1.9-2c6.5,5.2,13,10.3,19.4,15.5
	C2836.2,1539.6,2834.5,1541.1,2832.8,1542.5z"/>
<path d="M2975,3037.4c-1.1-14.7-3.8-30,15.1-36.4l-0.6-0.6c-5,12.1-10.1,24.3-15.1,36.4C2974.4,3036.8,2975,3037.4,2975,3037.4z"/>
<path d="M2524.8,1484.4c8.4,7.7,16.9,15.5,25.3,23.2c-2.2,1.7-4.4,3.5-6.6,5.2c-6.1-9.7-12.1-19.3-18.2-29
	C2525.4,1483.8,2524.8,1484.4,2524.8,1484.4z"/>
<path d="M3073.9,2033.2c-3-13.2-5.9-26.3-8.9-39.5c11.1,11.5,12.6,25.1,8.7,39.9C3073.6,2033.8,3073.9,2033.2,3073.9,2033.2z"/>
<path d="M2826.4,1614c6,7.9,12,15.8,18,23.6c-1.3,1.1-2.5,2.1-3.8,3.2c-6.4-7.4-12.8-14.9-19.1-22.3
	C2823.1,1617,2824.7,1615.5,2826.4,1614z"/>
<path d="M2436.2,1393.7c-9.8-5.8-19.5-11.5-29.3-17.3c1.5-2,3.1-4.1,4.6-6.1c8,8,16,16,24.1,24
	C2435.6,1394.3,2436.2,1393.7,2436.2,1393.7z"/>
<path d="M2779.2,3026.9c-0.8,11.1-1.6,22.3-2.4,33.4c-2.1-0.3-4.3-0.6-6.4-0.9c3.2-10.5,6.4-21,9.5-31.7
	C2779.7,3027.6,2779.2,3026.9,2779.2,3026.9z"/>
<path d="M2990.1,3001c0-10.8,0-21.6,0-32.4c2.4,0.2,4.7,0.4,7.1,0.6c-2.6,10.3-5.3,20.7-7.8,31.2
	C2989.5,3000.4,2990.1,3001,2990.1,3001z"/>
<path d="M2684.2,3531.5c6.2-4.3,12.5-8.6,18.7-13c0.9,1.3,1.8,2.6,2.7,3.9c-6.3,4.3-12.5,8.5-18.8,12.8
	C2686,3534,2685.1,3532.7,2684.2,3531.5z"/>
<path d="M2900.8,3073.7c-0.9-9.2-1.7-18.5-2.6-27.7c2-0.1,4-0.1,6-0.2C2903.2,3055.1,2902,3064.3,2900.8,3073.7
	C2900.9,3073.6,2900.8,3073.7,2900.8,3073.7z"/>
<path d="M3024,3067.8c-1.5,8.5-2.9,16.9-4.4,25.4c-2.2-0.7-4.4-1.3-6.6-2c4-7.5,8-15.1,12-22.6C3025,3068.6,3024,3067.8,3024,3067.8
	z"/>
<path d="M2776.3,3471.2c-3.9,3.5-7.7,6.9-11.6,10.4c-1.4-1.4-2.8-2.9-4.2-4.3c3.5-3.9,7-7.8,10.4-11.7
	C2772.7,3467.5,2774.5,3469.3,2776.3,3471.2z"/>
<path d="M2615.3,3564.7c5.8-2.8,11.6-5.5,17.3-8.3c0.8,1.2,1.7,2.3,2.5,3.5c-2.5,1.8-4.8,4-7.6,5.2c-3.5,1.5-7.3,2-11,3
	C2616.1,3566.9,2615.7,3565.8,2615.3,3564.7z"/>
<path d="M3035.9,3034c4.6,14.3,1.3,25.7-11.9,33.8c0,0,1,0.8,0.9,0.8c3.9-11.2,7.8-22.5,11.7-33.8
	C3036.6,3034.7,3035.9,3034,3035.9,3034z"/>
<path d="M2465.6,758.7c82.9,11,165.8,22.1,248.7,33.1c-0.3,2.3-0.6,4.7-0.9,7c-83.2-10.6-166.4-21.1-249.6-31.7
	C2464.4,764.3,2465,761.5,2465.6,758.7z"/>
<path d="M2814.8,727.1c-41.6-7.5-83.3-15-124.9-22.5C2732.3,707.3,2775.2,706.9,2814.8,727.1z"/>
<path d="M2486.6,586.3c-6.3,35.6-32.4,60.8-48.2,91.5c11-33.1,23.3-65.6,48.8-91L2486.6,586.3z"/>
<path d="M2613.6,898.2c-39.3,0-78.7,0-118,0c0-0.6,0-1.2,0-1.8c39.2,0,78.5,0,117.7,0C2613.4,897,2613.5,897.6,2613.6,898.2z"/>
<path d="M2473.5,488.9c20.1-17.5,40.2-34.9,60.3-52.4c0.2,0.2,0.4,0.4,0.7,0.6c-20.1,17.6-40.1,35.2-60.2,52.7
	C2474.1,489.5,2473.8,489.2,2473.5,488.9z"/>
<path d="M2961.7,530.3c28.2,0,56.5,0,84.7,0c0,0.9,0,1.8,0,2.8c-28.2,0-56.5,0-84.7,0C2961.6,532.2,2961.7,531.3,2961.7,530.3z"/>
<path d="M2830.5,448.9c-11.3,14.6-22.5,29.2-33.8,43.8c-1.9-1.3-3.7-2.7-5.6-4c10.9-14.6,21.7-29.2,32.6-43.9
	C2826,446.2,2828.2,447.5,2830.5,448.9z"/>
<path d="M2938.4,671.4c19.9,0,39.9,0,59.8,0c0,0.9,0,1.8,0,2.6c-20.1,0-40.2,0-60.3,0C2938.1,673.2,2938.2,672.3,2938.4,671.4z"/>
<path d="M2306.2,726.2c6.1-16.5,12.1-32.9,18.2-49.4c1.4,21.9-2.1,29.7-18.9,48.7L2306.2,726.2z"/>
<path d="M2676.7,847.1c-13.6,0-27.1,0-40.7,0c-0.1-0.9-0.1-1.7-0.2-2.6c14,0,27.9,0,41.9,0C2677.3,845.3,2677,846.2,2676.7,847.1z"
	/>
<path d="M2487.2,586.8c5.6-14.2,11.1-28.4,16.7-42.5c2,17.8-4,31.7-17.3,42C2486.6,586.3,2487.2,586.8,2487.2,586.8z"/>
<path d="M2459.5,856.1c7.4-1.1,14.9-2.3,22.3-3.4c0.2,1.5,0.4,3,0.7,4.5c-7.5,0.9-14.9,1.8-22.4,2.8
	C2459.9,858.7,2459.7,857.4,2459.5,856.1z"/>
<path d="M2396,860.1c-7.3,0-13.5,0-19.7,0c0-0.8-0.1-1.6-0.1-2.4c5-0.2,10-0.5,15.1-0.7c1,0,2.2,0,3.1,0.4
	C2395,857.9,2395.3,859,2396,860.1z"/>
<path d="M2332.8,852.1c4.8,0,9.6,0,14.4,0c0,0.3,0,0.6,0,0.9c-4.8,0-9.6,0-14.4,0C2332.8,852.7,2332.8,852.4,2332.8,852.1z"/>
<path d="M2305.5,725.5c-1.3,9-2.6,17.9-3.9,26.9c-8.7-11.5-0.8-18.5,4.6-26.2C2306.2,726.2,2305.5,725.5,2305.5,725.5z"/>
</svg>
