<?xml version="1.0" encoding="utf-8"?>
<!-- Generator: Adobe Illustrator 24.3.0, SVG Export Plug-In . SVG Version: 6.00 Build 0)  -->
<svg version="1.1" id="Layer_1" xmlns="http://www.w3.org/2000/svg" xmlns:xlink="http://www.w3.org/1999/xlink" x="0px" y="0px"
	 viewBox="0 0 4000 4000" style="enable-background:new 0 0 4000 4000;" xml:space="preserve">
<path d="M1988.4,955.6c-5.1-17.3-8.8-30.2-12.8-42.9c-20.3-63.9-45.3-125.6-85.9-179.8c-9.4-12.5-19.7-24.4-29.6-36.6
	c-33.8-41.3-35.6-83.9-3.9-126.6c27.2-36.7,64.2-60.8,107.7-73.3c36.3-10.5,69,0.6,93.6,28.2c24,27,45.6,56.3,66.4,86
	c13.4,19.1,23.4,40.6,36.9,64.6c8.6-10.6,16.1-19.2,22.9-28.2c138.2-181.7,317.8-298.2,542.4-342.7c74.5-14.7,150.2-17.4,225.9-12.3
	c150.2,10,293.3,51,434.5,100.4c40.7,14.2,82,26.8,123.1,40.1c7.5,2.4,15.1,4.4,22.3,7.4c38.2,15.7,47.2,40.5,28,77.5
	c-4.5,8.7-9.9,17-15.7,24.9c-102.9,140.9-224,263.3-373.5,354.7c-50.8,31.1-106.5,54.2-160.1,80.7c-10.4,5.2-21.4,9.3-37.4,16.2
	c10.7,6.7,17.2,11.8,24.4,15.2c157.2,75.1,281,187.9,378.5,331.6c125.7,185.2,195.8,390.4,220.5,611.5
	c29.5,264.6-1.6,521.6-107.2,767.1c-105.2,244.8-271,439.6-493.9,586c-112.9,74.2-232.8,134.2-358.1,184.1
	c-142.2,56.6-284.1,114-426.8,169.6c-33.6,13.1-69.1,22.6-104.5,29.5c-56.2,11-109.3-4.7-159.8-28.1c-43.6-20.2-85.9-43.2-129-64.6
	c-90.5-45.1-180.8-90.5-271.7-134.8c-141.7-69-277.3-147.5-397.9-250c-160.1-136-279.6-301.8-363-493.9
	c-63.4-146.1-103.6-298.3-115.4-457.5c-19.9-270.1,20.4-528.9,149.1-770c123.4-231.2,304-400.8,550.2-495.2
	c190.9-73.2,387.3-87.6,587.5-44C1965.4,952.6,1974.8,953.5,1988.4,955.6z M2066.2,1082.7c-14.6-8.6-23-15.3-32.7-18.9
	c-25.7-9.7-51.4-19.7-77.9-26.8c-129.3-34.7-259.9-36.2-390.9-11.3c-229.2,43.5-417.8,157-563.2,338.4
	c-143.9,179.4-220.5,387.9-245.6,615.3c-12.3,111.6-10.1,223.5,4.4,335c16,123.4,46.6,243,95,357.5
	c114.9,271.7,304.2,478.4,557.8,626.5c71.1,41.5,145.9,76.6,219.4,113.8c109.5,55.4,220,108.6,328.7,165.5
	c68.6,35.9,135.2,37.6,206.3,8.7c169-68.6,339.5-133.7,508.3-203.1c121.2-49.8,234.1-115.1,338.9-194.2
	c176.8-133.4,313.4-298.8,401.2-503c59.9-139.3,92.1-285.2,104.1-436c12.5-157.9,1-313.9-36.8-467.7
	c-46.5-189.3-129.8-360.4-262.7-503.7c-197.2-212.6-444.2-301.3-731.5-282.5c-26.4,1.7-52.4,7.3-78.7,10.9
	c-116,15.8-225.7,52.1-328.2,108c-174.2,95.1-312.7,230-422.4,394.1c-180.7,270.4-239.7,570.1-206.9,890.4
	c10.2,99.8,32.4,197.4,56,294.8c4.8,19.9,13.3,30.5,33.5,34c23.9,4.1,44.3,16.2,59.7,35.1c22.1,27.1,18.6,58.2-8.5,80.3
	c-7.4,6.1-15.3,11.6-23.3,17.7c10.8,29,21.2,56.5,31.1,84.1c3.6,10.1,2.5,19.9-9.1,24.5c-11.2,4.5-19.5-0.8-24-10.8
	c-8.4-18.8-15.6-38.1-23.7-57.1c-4-9.5-8.8-18.7-11-23.3c-40.4,1-75.6,3.8-110.6,2.3c-37.7-1.6-73.8-12.1-104.4-35.6
	c-34.6-26.5-36.3-63-4.9-93.1c7.7-7.4,16.5-15,26.2-18.5c21-7.5,42.8-13.9,64.7-17.9c22.6-4.1,45.9-4.9,70.3-7.3
	c-2-9.6-3.4-16.2-4.7-22.8c-15.1-75-32.6-149.6-44.8-225.1c-29.7-183.5-20.1-366,22.3-546.7c48.2-205.3,141.3-388.4,276.8-549.8
	c84.6-100.7,182.6-186.5,294.8-255.5C2032.3,1101.1,2046,1094,2066.2,1082.7z M3110.4,396.1c-5.9-4.2-7.3-5.9-9-6.2
	c-85-17.2-171-21.8-257.4-18.3c-9.4,0.4-21.1,6.4-27.2,13.6c-74.9,88.1-149,176.9-223.1,265.7c-7.3,8.8-13.2,18.9-23.1,33.4
	c14.2-2.2,22.6-2.9,30.7-4.8c98.2-22.8,196.3-46.2,294.7-68.6c27.7-6.3,52.4-14.9,66.1-42.7c4.2-8.5,12.6-14.9,19-22.3
	c36.3-41.2,72.7-82.3,108.9-123.5C3096.9,414.5,3102.9,405.8,3110.4,396.1z M2200.8,773.2c11.7-2.4,20.9-4,29.9-6.2
	c80-19.3,159.8-39.9,240.1-57.5c29.9-6.5,50.1-21.3,68.9-44.8c70.9-88.9,143.9-176.2,216-264.2c4.6-5.7,8.7-11.8,14.3-19.5
	C2562.1,401.3,2306.8,573.3,2200.8,773.2z M2530.6,738.4c4.4,6.3,5.5,9.3,7.7,10.7c93,61.8,186.3,123.1,278.8,185.5
	c14,9.4,26.6,10.5,41.3,6.6c65.4-17.6,128.9-40.5,190.3-69c5.5-2.5,9.9-7.4,16.4-12.5c-9.3-5.6-15.8-9.7-22.6-13.6
	c-91-52.1-181.8-104.4-273.2-155.8c-8.3-4.7-20.6-5.3-30.4-3.7c-21.2,3.5-42,9.4-62.9,14.7C2628.7,713.3,2581.4,725.4,2530.6,738.4z
	 M2775.4,956.3c-12.8-10.3-20.5-17.4-29-23.1c-85.3-57.6-171-114.5-255.8-172.8c-15.3-10.5-28.8-13.7-46.3-9.4
	c-73.2,18-146.6,35.3-219.9,52.9c-6.2,1.5-12.1,3.9-19.1,6.1C2292.2,910.9,2584.3,986.9,2775.4,956.3z M2814.7,673.5
	c31.4,17.9,56.5,32.5,81.7,46.7c63.2,35.5,126.5,70.7,189.7,106.2c12.3,6.9,24.3,13.5,38.3,4.5c57.7-37,113-77.3,162.9-124.5
	c0.6-0.6,0.5-1.8,1.7-5.9c-8.1-4.9-16.9-10.6-26-15.4c-38.1-20.1-78.6-36.6-113.8-60.8c-29.4-20.3-56.4-20.4-88.2-12.4
	c-71.2,17.7-142.8,33.5-214.2,50.4C2837.9,664.2,2829.5,668.2,2814.7,673.5z M2092.6,1067.6c8.6-3.3,15.8-5.7,22.7-8.8
	c15-6.8,36.6-10.3,42.9-21.9c7-13,0.6-33.6-0.9-50.9c-7.4-83.5-27.2-164.1-56.9-242.5c-21.1-55.5-50.7-106-88.7-151.5
	c-15.8-18.9-21.9-20.2-42.5-8c-14.3,8.4-27.8,18.4-40.4,29.2c-17.4,14.8-17.6,18.7-3.3,36c69.5,83.9,113.2,180.6,139.8,285.3
	C2076,977,2083.1,1020.5,2092.6,1067.6z M3001.4,577c1.1,2.8,2.3,5.6,3.4,8.3c46.7-9.9,93.3-19.7,140-29.6
	c47.9-10.2,95.9-19.8,143.6-30.8c45.7-10.6,93-14.9,137.7-32.5c-14.3-8.8-28.4-15.3-43-20.4c-24.9-8.8-50-17.2-75.3-25
	c-42.1-13-84.5-25.2-126.6-38c-15.6-4.8-27.9-3.5-38.7,11.1c-9.8,13.3-22.7,24.3-33.8,36.7C3072.8,496.7,3037.1,536.9,3001.4,577z
	 M3444.7,539.8c-1.1-1.9-2.2-3.8-3.2-5.6c-90.1,12.4-177.9,36.7-269.3,52.1c3.3,6.1,4,9.7,6,10.8c43,23.4,86.2,46.5,129.4,69.6
	c15.3,8.2,25.9,0.6,35.8-10.4c28.9-32,58.3-63.7,87.1-95.8C3436.1,554.4,3440.1,546.8,3444.7,539.8z M1511.1,2840.5
	c-7.7-27.8-13.4-51.5-21.3-74.4c-2.4-7-10.8-16.8-16.7-17.1c-41-1.6-82.5-2.3-119.5,19.9c-29.8,17.9-30.2,40.9,0.7,57.3
	c16.9,9,36.5,14.3,55.5,17.4C1442.3,2848.8,1475.3,2849.4,1511.1,2840.5z M1539.6,2758.5c-2.6,1.9-5.2,3.7-7.8,5.6
	c6.2,19.6,12.5,39.3,18.9,59.4c15.9-1.3,26.6-5.2,31.2-17.7c5-13.6-4.2-22.5-13.3-29.7C1559.8,2769.1,1549.4,2764.2,1539.6,2758.5z
	 M2256.9,949.8c-5.8-11.8-12.2-18.5-23.3-13c-2.3,1.1-3.8,9.4-2.1,12.4C2237.9,961,2246.5,958.1,2256.9,949.8z"/>
<path d="M1650.7,2397.6c68.6-1.7,144.8,48.8,147.1,148c1.8,76.5-71.3,147.2-147.9,146.1c-82-1.2-145.7-67.6-147.4-149.7
	C1501.1,2475.5,1565.5,2393.5,1650.7,2397.6z"/>
<path d="M2652.5,2398.1c81.3-0.4,147.1,66,146.9,148.1c-0.2,78.3-66.6,144.8-144.6,144.8c-78.6,0-149.2-70.3-149.1-148.5
	C2505.9,2461.4,2569.9,2398.5,2652.5,2398.1z"/>
<path d="M2856.3,2887c-32.5-6.7-65.3-12-97.2-20.6c-14.7-4-29.1-12.5-41-22.2c-30.4-24.9-31.7-63-2.9-89.8
	c11.2-10.4,25.3-19,39.6-24.6c64.6-25,130.6-25.7,196.2-4.7c17.4,5.5,34.5,15,48.8,26.3c33.4,26.3,33.1,66.2-0.3,92.7
	c-12.8,10.1-28.4,17.5-43.8,23.2c-16.4,6.1-34,9.6-51.4,12.4c-15.4,2.5-31.3,2.5-46.9,3.7C2857,2884.6,2856.6,2885.8,2856.3,2887z
	 M2855.8,2850.4c0.1-0.7,0.2-1.3,0.4-2c12.7-0.7,25.6-0.4,38.2-2.3c29.1-4.4,58.4-9.4,82.1-28.9c17.3-14.2,18.2-27.9-0.2-40.6
	c-15-10.3-32.8-17.2-50.1-23.3c-11.8-4.1-25-5-37.7-6.1c-44.6-3.9-88.2-1.1-129.2,19.4c-12.5,6.3-28.2,13.5-25.5,28.5
	c2.1,11.7,13.3,23.2,23.1,31.7c7.7,6.7,19.1,10.4,29.5,12.4C2809.3,2844.1,2832.6,2846.9,2855.8,2850.4z"/>
<path d="M906.1,2119.8c-11.9-1.4-20.8-2.5-32.4-3.8c0-13-0.3-23.6,0-34.2c5.7-169.5,47.1-329.3,130-477.8c3.3-6,6.4-13.2,11.7-16.6
	c5.5-3.6,15.3-6.4,20-3.8c5,2.9,7.5,12.2,8.6,19.2c0.6,4-3.4,8.9-5.8,13.1c-82.7,145.4-123.4,302.4-130,468.9
	C907.9,2095.2,907,2105.6,906.1,2119.8z"/>
<path d="M2148.9,2804.3c-75.4-0.6-138.1-51.5-154.1-124.9c-1-4.8-1.7-9.7-1.9-14.5c-0.5-11.3,4.2-18.9,16.1-20.6
	c11.6-1.7,21.9-0.8,25.6,12.9c2,7.6,3.5,15.3,5.7,22.8c13.3,46.5,53.4,80.4,99.2,83.9c47.9,3.7,98.2-25.1,117.5-67.9
	c4.8-10.7,7.8-22.1,11.5-33.2c6.5-19.3,12.2-24,25.6-21c13.6,3,17.5,11.3,14.2,30C2293.8,2752.6,2230.8,2804.9,2148.9,2804.3z"/>
<path d="M3280,1665.4c-3.8,4.7-6.6,11.3-10.9,12.6c-5.6,1.7-14.9,1.4-18.2-2.1c-6.4-6.9-10.5-16.4-14.4-25.3
	c-47.4-109.6-113.4-206.2-201.8-286.9c-21-19.1-44.4-35.5-66.5-53.4c-7.4-6.1-12.7-14.8-4.4-22.6c5.5-5.1,14.7-7.3,22.6-8.5
	c3.9-0.6,8.9,3.6,12.8,6.5c8,5.7,15.8,11.7,23.3,18c107.7,89.7,187.3,200.2,243.1,328.2C3270.3,1642.7,3274.8,1653.5,3280,1665.4z"
	/>
<path d="M3364.8,2070.5c-28.4,1.2-28.9,1.3-31.5-21.1c-4.8-40.9-7.6-82.1-14.1-122.8c-6.1-37.7-15.9-74.8-24.2-112.1
	c-1.7-7.7-5.3-15.2-5.2-22.8c0.1-5.8,4-16,7.1-16.3c7.6-0.8,16.5,1.5,23.1,5.5c4,2.4,5.4,10.1,7,15.8
	c22.3,81.6,40.9,163.8,39.9,249.2C3366.7,2053.5,3365.6,2061.1,3364.8,2070.5z"/>
<path d="M1234.7,1359c-2.2,3.1-5.2,8.1-8.9,12.4c-33.9,39.3-67.9,78.5-102,117.6c-3.8,4.4-7.7,9.8-12.8,11.7
	c-4.7,1.8-12.1,1.2-16.1-1.5c-3.9-2.7-7.3-9.8-6.8-14.5c0.7-6.4,4.1-13.3,8.3-18.3c32.9-38.8,66.3-77.4,99.7-115.7
	c3.8-4.3,8.7-8.2,13.9-10.6C1220.8,1335.1,1235.3,1345.3,1234.7,1359z"/>
<path d="M925.4,2313.7c-27.3,11.3-34,8.9-38.5-15.3c-3.4-18.1-4.7-36.6-6.4-55c-1.1-11.6,4.9-18.5,16.4-20
	c12-1.6,18.7,5.2,20.1,16.2C920.3,2264.4,922.7,2289.4,925.4,2313.7z"/>
</svg>
