<?xml version="1.0" encoding="utf-8"?>
<!-- Generator: Adobe Illustrator 24.3.0, SVG Export Plug-In . SVG Version: 6.00 Build 0)  -->
<svg version="1.1" id="Layer_1" xmlns="http://www.w3.org/2000/svg" xmlns:xlink="http://www.w3.org/1999/xlink" x="0px" y="0px"
	 viewBox="0 0 4000 4000" style="enable-background:new 0 0 4000 4000;" xml:space="preserve">
<path d="M2145.2,1020.7c-22.7,0-44.7-0.4-66.6,0.1c-80.8,1.9-161-3.4-240.5-18.6c-56.3-10.8-107.7-34.5-158.4-59.6
	c-155.2-76.7-269.8-197-363.5-339.7c-57.7-87.9-101.9-182.5-141.6-279.4c-9.7-23.6-17.2-48.1-27.3-76.9c10.2,2.5,19.3,2.2,25.1,6.4
	c44.2,32.1,96,42.9,147.7,51.9c98.2,17.2,197.1,30.2,295.3,47.6c106.7,18.9,208,53.6,299.2,113.7c86.3,56.9,150.7,133.1,193.8,226.8
	c24,52.2,47.9,104.8,58.9,161.9c1.2,6.4,4.5,12.3,9,24.5c6.7-15.8,12.5-26.5,15.9-37.8c47-154.2,143.6-273.6,263.8-376.4
	c2.2-1.9,4.4-3.7,6.8-5.3c36.9-26.1,61.6-22,86.9,15.8c9,13.5,16.5,28.2,22.9,43.2c16.2,38.1,8,59.8-27.6,82.2
	c-25.1,15.8-51.2,30.9-73.4,50.2c-103.1,89.8-181.8,197.1-228.3,326.6c-5.8,16.2-8.9,33.3-12.9,50.1c-0.8,3.4-0.1,7.2-0.1,13.3
	c8,0,14.5,0.6,20.9-0.1c135.2-14.1,265.9,7.5,393.4,51.1c242.2,82.8,440.3,227.7,594.6,431c112.8,148.5,189.8,315,234.2,496.2
	c41,167.3,54.6,337.1,39.5,508.6c-19.6,223-88,429.7-215.6,615c-122.2,177.5-280.6,313.8-472.9,411
	c-144.7,73.2-298.7,113.1-459,133.1c-160.5,20.1-320.1,13.3-478.7-14c-127.3-21.9-248.5-64.8-364.3-122.5
	c-168.6-84-311-200-424.2-350.9c-75.3-100.4-133.4-210.5-179.6-326.9c-44-111-75.2-225.5-90.4-344.2c-24.9-194.3-8.5-384.6,52.8-571
	c89.2-271.2,253.2-488.2,476.4-663c71.3-55.8,146.2-106.2,227.9-144.9c162.5-76.9,332.4-122.9,514.3-112.3
	c11.5,0.7,22.9,2.2,34.4,2.8C2145.7,1040.9,2149.7,1035.2,2145.2,1020.7z M1395.4,454.6c113.6,59.9,230.9,112.7,339,187.5
	c1.2-9.5,1.8-14.1,1.9-15c14.3,12.7,28.4,26.6,43.9,38.6c16.6,12.9,34.6,23.9,52,35.8c16.6,11.3,33.2,22.6,49.6,34.2
	c16.3,11.5,32.3,23.5,48.4,35.2c1-1.2,2-2.5,3.1-3.7c-1.7-5.4-3.4-10.9-5-16.5c0,0-0.6,0.6-0.6,0.6c3,1.9,7.5,3.1,8.8,5.8
	c11.9,26.5,33.6,43.3,56.1,60.2c39.7,30,78,61.8,117.1,92.7c7.7,6.1,15.8,11.5,23.7,17.3c1.6-1.3,3.2-2.7,4.8-4
	c-2.3-9-4.4-18.1-6.9-27c-3.4-12-10.1-23.8-10.4-35.7c-0.8-32.8-13.9-61.5-26-90.6c-63.5-152.7-169.2-263.2-324.4-323.9
	c-76.3-29.9-155.8-47.1-236.5-59.6c-95.6-14.8-192-25.8-285.7-51.4c-5.8-1.6-12.5-0.2-23.3-0.2c28.1,57,53,111.9,81.6,164.8
	c68.8,127.3,159.7,236.7,273.6,326.2c77.7,61,163.2,107,260.8,128.7c86.9,19.3,174.9,21.4,263.2,20.1c5-0.1,10-2.7,17-4.7
	c-4.1-6-5.9-10.8-9.4-13.5c-48.4-39.3-96.6-78.8-145.8-117c-10.1-7.8-24.1-13.4-36.8-14.5c-60.1-5.4-120.3-9-180.5-13
	c-31.9-2.1-63.8-3.7-95.7-5.5c31.6-2.2,63.1-0.2,94.5,1.5c30.6,1.7,61.3,4.6,91.9,4.1c30.3-0.4,60.4,11.3,94.6,3.6
	c-22.5-17.6-40.5-33.5-60.4-46.7c-69.4-46.2-139.2-91.8-209.3-136.9c-85.4-55-171.4-109.3-256.9-164.2c-4.8-3.1-7.6-9.2-11.3-13.9
	L1395.4,454.6z M2145.6,1118.7c-71.3-3-139.4-4.5-206.8,6.5c-138.4,22.6-269.7,66.2-391.6,136.8c-243.4,141-423.9,339.4-541.2,594.7
	c-74.3,161.9-112.8,332.7-110.7,510.7c1.8,152.4,27.8,301.4,83.4,444.5c66.8,171.8,156.1,328.6,289.8,458.5
	c84.7,82.3,178,151.7,283.4,204.8c159.7,80.5,328.9,126.1,507.4,137.9c201.3,13.4,398.3-4.9,589.4-74.1
	c221.4-80.2,405-211.5,548.1-399.1c83.6-109.6,144.7-230.5,184.1-362.3c52.7-176.1,64.1-355.9,47.9-538.4
	c-18.9-212.4-83.7-409.2-199.6-588.1c-141.3-218.2-330.2-380-575.4-471.4c-119.5-44.6-243.2-70.2-371.9-63.2
	c-15.3,0.8-30.7,1.1-46,1.8c-8.3,0.4-16.3,2.9-16.6,12.3c-0.7,23.7-0.2,47.4-0.2,74.6c12.7-2.4,22.9-3.7,32.7-6.4
	c22.2-6.1,44-13.4,66.2-19.4c25.5-6.9,51.2-8.2,76.5,0.8c14.9,5.3,26.2,14.1,27.9,33.4c-5.1-1.1-8.3-0.9-10.1-2.4
	c-26.3-21.1-54.5-20.9-83.8-7.8c-14,6.2-27.8,13.1-41.6,19.6c-60.2,28.5-119.9,30.3-179.4-2.7c-15.9-8.8-32.6-16.3-49.6-22.6
	c-28.4-10.4-56.4-8.9-82.8,7.5c-4.1,2.6-9.5,3.2-16,5.3c2.2-21.8,16.7-28.4,31-33c23-7.4,46.9-11.2,70.7-3.5
	c22.8,7.3,45.1,16,67.8,23.5c9.3,3.1,19.1,4.8,31.6,7.8C2155,1174.6,2150.6,1148.4,2145.6,1118.7z M2187.7,1056.5
	c14.5-102,58.1-191,116.9-272.9c58.8-82,125-157.2,213.5-208c-15.9-25.1-30-47.4-44.1-69.7C2307.5,625.9,2179.8,888.3,2187.7,1056.5
	z M2545.3,549.4c1.3-26.5-13.1-43.9-27.4-61.1c-2.2-2.6-10.8-3.8-12.4-2.1c-3.1,3.5-6,11.1-4.2,14.2c9.7,16,20.7,31.3,31.8,46.3
	C2534.7,548.8,2539.7,548.3,2545.3,549.4z"/>
<path d="M3539.4,2170.7c3,5.3,8.1,10.5,8.7,16c9.5,97.9,17.6,195.9,10.5,294.3c-4.1,57-11,113.8-18.2,170.6
	c-1.2,9.4,2.8,24.5-13.4,28l0.3,0.3c7.2-54.7,15.8-109.2,21.3-164c8.8-86.6,6.7-173.5,0.6-260.3
	C3547.2,2227.2,3542.7,2199,3539.4,2170.7C3539.4,2170.6,3539.4,2170.7,3539.4,2170.7z"/>
<path d="M3498.7,2836.5c-14.3,41.6-28.2,83.3-43.3,124.6c-3.7,10-11.3,18.6-17.1,27.8l0.6,0.5c5.6-16.9,11-33.8,16.9-50.6
	c9.8-27.7,19.6-55.3,30.1-82.7c2.7-7.2,1.1-18.2,13.4-19L3498.7,2836.5z"/>
<path d="M716.5,2447.2c-2.1-30.8-4.1-61.5-6.2-92.3c2-0.1,4.1-0.3,6.1-0.4C720.5,2385.2,720.5,2416.1,716.5,2447.2z"/>
<path d="M2100.6,3734.2c41.8,0,83.6,0,125.4,0c0,0.4,0,0.9,0,1.3c-41.8,0-83.5,0-125.3,0C2100.7,3735.1,2100.6,3734.7,2100.6,3734.2
	z"/>
<path d="M3196.9,1403.7c-22.8-22.7-45.5-45.3-68.9-68.5c22.9,23.9,45.3,47.2,67.7,70.5C3196.1,1405,3196.5,1404.4,3196.9,1403.7z"/>
<path d="M763.5,2400.5c2.6,8.5,6.6,16.9,7.7,25.6c3.9,30.5,6.8,61.2,10,91.8l0-0.1c-2.8-4.5-7.6-8.8-8.2-13.5
	c-2.8-23.4-4.5-46.9-6.6-70.3c-1-11.2-2-22.4-3-33.6C763.5,2400.4,763.5,2400.5,763.5,2400.5z"/>
<path d="M2605,3671.5c-5,3.9-9.4,9.8-15,11.3c-28.3,7.6-56.9,14.1-86,18.4c33.8-9.8,67.6-19.6,101.4-29.5L2605,3671.5z"/>
<path d="M3165.9,3363.6c18.3-17.4,36.5-34.8,54.8-52.3c-0.8-0.8-1.5-1.6-2.3-2.3c-18.6,17.1-37.1,34.2-55.7,51.3
	C3163.8,3361.4,3164.9,3362.5,3165.9,3363.6z"/>
<path d="M1729.4,996.8c-26-11.2-52.1-22.4-78.1-33.6c0.9-2,1.8-4,2.7-6c26.2,11.7,52.4,23.4,78.6,35.2
	C1731.5,993.9,1730.4,995.4,1729.4,996.8z"/>
<path d="M777.9,2194.9c-2.7,28.1-5.4,56.3-8.1,84.4c-1.4-0.1-2.8-0.2-4.2-0.3c2.2-28.5,4.4-56.9,6.6-85.4
	C774.1,2194,776,2194.4,777.9,2194.9z"/>
<path d="M2295.8,998.6c29.2,0,58.4,0,87.6,0c0,0.6,0,1.3,0,1.9c-29.2,0-58.4,0-87.6,0C2295.8,999.9,2295.8,999.3,2295.8,998.6z"/>
<path d="M1528.4,3650.2c21.1,8.6,42.3,16.7,63.1,25.9c5.4,2.4,9.3,7.9,13.9,12c0,0,0.6-0.6,0.6-0.6c-22.9-8.6-45.9-16.9-68.5-26.3
	c-3.8-1.6-5.6-7.8-8.4-11.8C1529,3649.6,1528.4,3650.2,1528.4,3650.2z"/>
<path d="M3499.2,2837.1c0.6-11-0.5-22.3,2.2-32.8c5.3-20.6,12.6-40.7,19-61c0,0-0.7-0.7-0.7-0.7c-7.1,31.2-14.1,62.4-21.1,93.8
	C3498.7,2836.5,3499.2,2837.1,3499.2,2837.1z"/>
<path d="M2379.5,3724.5c-24.6,2.7-49.3,5.5-73.9,8.2c-0.1-1.4-0.3-2.7-0.4-4.1c24.7-2.5,49.3-5.1,74-7.6
	C2379.3,3722.2,2379.4,3723.4,2379.5,3724.5z"/>
<path d="M763.5,2400.4c0-27.4,0-54.8,0-82.2c1.4,0,2.9,0.1,4.3,0.1C766.4,2345.7,765,2373.1,763.5,2400.4
	C763.5,2400.5,763.5,2400.4,763.5,2400.4z"/>
<path d="M1493.3,3644.4c-17.9-11.6-35.7-23.2-53.6-34.8c0.4-0.8,0.8-1.7,1.1-2.5c16.3,8.4,32.9,16.4,48.8,25.5
	c2.6,1.5,2.5,7.8,3.7,11.9L1493.3,3644.4z"/>
<path d="M3527.6,2090c2.9,3.3,8.1,6.5,8.3,10c1.7,23.5,2.4,47.1,3.4,70.6c0,0,0-0.1,0,0c-3.9-26.9-7.8-53.9-11.6-80.9L3527.6,2090z"
	/>
<path d="M726.8,2537.2c-2.5-20.3-5-40.5-7.6-60.8c1.7-0.2,3.3-0.4,5-0.6c2.5,20.3,5.1,40.5,7.6,60.8
	C730.2,2536.8,728.5,2537,726.8,2537.2z"/>
<path d="M777,2164.6c2.3-13.8,4.6-27.7,6.9-41.5c1.8,0.3,3.6,0.5,5.4,0.8c-2.2,14-4.3,28-6.5,42C780.8,2165.4,778.9,2165,777,2164.6
	z"/>
<path d="M1927.7,3720.9c-16.6-2.6-33.2-5.2-49.8-7.8c0.2-1.2,0.3-2.4,0.5-3.6c17.2,2.6,34.3,5.1,51.5,7.7
	C1929.1,3718.4,1928.4,3719.6,1927.7,3720.9z"/>
<path d="M2285.2,942.5c-4.3,15.4-8.6,30.7-12.9,46.1c-1.4-0.3-2.7-0.7-4.1-1c3.8-15.9,7.6-31.8,11.4-47.8
	C2281.5,940.7,2283.3,941.6,2285.2,942.5z"/>
<path d="M1582.8,3619.3c15.6,7.5,31.3,15.1,46.9,22.6c-16.5-5.7-38.7-0.7-46.6-22.9L1582.8,3619.3z"/>
<path d="M1189.9,1302.5c10-8.8,20.1-17.7,30.1-26.5c1.1,1.1,2.2,2.3,3.3,3.4c-9.8,9.1-19.6,18.2-29.4,27.2
	C1192.6,1305.3,1191.3,1303.9,1189.9,1302.5z"/>
<path d="M1255.3,1327c-8.9,8.3-17.9,16.6-29.1,27C1235.3,1337.7,1235.3,1337.7,1255.3,1327z"/>
<path d="M891.6,1796.1c-4.7,15.8-9.3,31.5-14,47.3c-2.2-0.8-4.4-1.6-6.6-2.4c7.1-14.7,14.3-29.4,21.4-44.1
	C892.4,1796.9,891.6,1796.1,891.6,1796.1z"/>
<path d="M781.3,2518c2.6,19.3,5.1,38.6,7.7,57.9c-2.1,0.1-4.3,0.2-6.4,0.3C782.1,2556.8,781.7,2537.4,781.3,2518
	C781.3,2518,781.3,2518,781.3,2518z"/>
<path d="M3527,2679.6c7.8,22.2,2.8,42.8-7.3,63c0,0,0.7,0.7,0.8,0.7c2.4-21,4.7-42,7-63.2C3527.3,2679.9,3527,2679.6,3527,2679.6z"
	/>
<path d="M3438.3,2988.9c-5.2,14.9-10.4,29.7-15.5,44.6c-1.7-0.7-3.5-1.4-5.2-2.1c3.9-15.5,8.6-30.6,21.3-42
	C3438.9,2989.4,3438.3,2988.9,3438.3,2988.9z"/>
<path d="M2605.4,3671.7c17.5-4.2,34.9-8.4,52.4-12.6c-16.9,6.8-32.3,19.5-52.6,12.4C2605,3671.5,2605.4,3671.7,2605.4,3671.7z"/>
<path d="M2409.1,3716.9c13.6-2.4,27.2-4.8,40.8-7.1c0.2,1.1,0.4,2.3,0.6,3.4c-13.6,2.4-27.2,4.9-40.7,7.3
	C2409.5,3719.3,2409.3,3718.1,2409.1,3716.9z"/>
<path d="M804.6,2061.4c-3.8,12.9-7.6,25.7-11.4,38.6C791.3,2085.3,787.9,2069.9,804.6,2061.4L804.6,2061.4z"/>
<path d="M739.3,2600.5c-2.6-12.6-5.2-25.1-7.8-37.7c1.3-0.3,2.6-0.6,3.8-0.9c1.7,6.2,3.8,12.4,5,18.8c1.2,6.4,1.6,12.9,2.4,19.3
	C741.6,2600.1,740.5,2600.3,739.3,2600.5z"/>
<path d="M3527.8,2089.7c-2.5-18.4-4.9-36.7-7.4-55.1c2.1-0.1,4.3-0.2,6.4-0.4c0.3,18.5,0.7,37,1,55.7
	C3527.6,2090,3527.8,2089.7,3527.8,2089.7z"/>
<path d="M1068.3,1426.4c7.2-8.2,14.4-16.4,21.5-24.7c1.4,1.2,2.8,2.4,4.2,3.5c-7.3,8.4-14.7,16.8-22,25.2
	C1070.7,1429.1,1069.5,1427.8,1068.3,1426.4z"/>
<path d="M1173.3,1406.5c-6.1,6.9-12.3,13.8-18.4,20.7c-0.9-0.7-1.8-1.4-2.7-2.1c5.6-7.2,11.1-14.4,16.7-21.6
	C1170.3,1404.5,1171.8,1405.5,1173.3,1406.5z"/>
<path d="M1996.8,3723.6c13.9,2,27.8,4,41.7,6c-14-0.7-29.8,9.5-41.3-6.3L1996.8,3723.6z"/>
<path d="M1705.3,1054.8c11.1-4,22.2-8,33.4-12c0.5,1.5,1,2.9,1.5,4.4c-11.3,4.1-22.6,8.1-33.8,12.2
	C1706,1057.8,1705.6,1056.3,1705.3,1054.8z"/>
<path d="M1473.5,3576.1c-10-5.8-20-11.6-30-17.4c0.7-1.3,1.5-2.6,2.2-3.9c10.5,5.6,20.9,11.2,31.4,16.7
	C1476,3573,1474.7,3574.5,1473.5,3576.1z"/>
<path d="M804.6,2061.5c0.1-12.6-0.7-25.2,0.7-37.6c0.4-3.3,7.5-5.9,11.5-8.8c0,0-0.3-0.3-0.3-0.3
	C812.6,2030.3,808.6,2045.9,804.6,2061.5C804.6,2061.4,804.6,2061.5,804.6,2061.5z"/>
<path d="M892.4,1796.9c6-12.4,11.9-24.8,17.9-37.1c-2.9,14.1-2.8,30-18.7,36.4C891.6,1796.1,892.4,1796.9,892.4,1796.9z"/>
<path d="M751,2653.3c-2.6-9.7-5.3-19.4-7.9-29.1c1.7-0.5,3.3-1,5-1.5c2.5,9.3,5,18.6,7.4,27.8C754,2651.5,752.5,2652.4,751,2653.3z"
	/>
<path d="M822,1967.8c5-10.3,10-20.6,15-30.9l-0.7-0.6c-2.6,11.4,1.2,25.9-15,30.7C821.5,1967.2,822,1967.8,822,1967.8z"/>
<path d="M1218.5,3400.4c-4.6-4.2-9.3-8.3-13.9-12.5c0.8-0.9,1.7-1.7,2.5-2.6c4.8,3.9,9.5,7.8,14.3,11.7
	C1220.4,3398.2,1219.4,3399.3,1218.5,3400.4z"/>
<path d="M816.9,2015.1c-10-17,0.2-31.8,5.2-47.2c-0.1-0.1-0.6-0.7-0.7-0.8c-1.8,15.7-3.4,31.6-5,47.6
	C816.5,2014.8,816.9,2015.1,816.9,2015.1z"/>
<path d="M1997.2,3723.3c-12.9,1.2-25.8,2.4-38.7,3.5c-0.1-1.7-0.1-3.4-0.2-5.1c12.7,0.7,25.5,1.3,38.3,1.9
	C1996.8,3723.6,1997.2,3723.3,1997.2,3723.3z"/>
<path d="M1642.8,3697.2c11.7,2.2,25.2,0,31.5,14.1l0.6-0.6c-10.5-4.7-21-9.5-31.5-14.2C1643.4,3696.6,1642.8,3697.2,1642.8,3697.2z"
	/>
<path d="M1674.3,3711.4c11.6,1.1,23.2,2.2,34.8,3.2c-0.4,2.2-0.8,4.3-1.2,6.5c-10.9-3.5-21.9-7-32.9-10.4
	C1674.9,3710.8,1674.3,3711.4,1674.3,3711.4z"/>
<path d="M3083.6,1293.9c5.3,4.3,10.6,8.5,15.8,12.8c-0.6,0.9-1.3,1.8-1.9,2.7c-5.5-4-10.9-8-16.4-12
	C3081.9,1296.1,3082.8,1295,3083.6,1293.9z"/>
<path d="M1733.8,3674.9c7.9,2.5,15.9,5.1,23.8,7.6c-0.4,1.4-0.8,2.7-1.2,4.1c-8.6-2.5-17.3-5-25.9-7.4
	C1731.5,3677.8,1732.6,3676.4,1733.8,3674.9z"/>
<path d="M1810.7,1027.4c-8.2-2.6-16.5-5.2-24.7-7.9c0.5-1.6,0.9-3.2,1.4-4.8c8.7,2.3,17.4,4.6,26,6.8
	C1812.5,1023.5,1811.6,1025.4,1810.7,1027.4z"/>
<path d="M1400,295.3c5.5,0.6,11.1,1.2,16.6,1.9c-5.2,0.5-10.5,1-15.7,1.5C1400.6,297.5,1400.3,296.4,1400,295.3z"/>
<path d="M2596.2,541.4c0,5.6,0,11.2,0,16.8c-0.6,0-1.1,0-1.7,0c0-5.9,0-11.8,0-17.6C2595.1,540.8,2595.6,541.1,2596.2,541.4z"/>
<path d="M1605.4,3688.1c12.4,3.1,24.9,6.1,37.4,9.1c0,0,0.6-0.6,0.6-0.7c-12.4-3.1-24.8-6.1-37.3-9.1
	C1606,3687.5,1605.4,3688.1,1605.4,3688.1z"/>
<path d="M3436.6,3100.6c-3.3,5.6-6.6,11.3-10,16.9c-0.9-0.4-1.8-0.9-2.8-1.3c3.1-6.1,6.2-12.2,9.4-18.4
	C3434.3,3098.7,3435.4,3099.6,3436.6,3100.6z"/>
<path d="M3403.8,3063.2c-3.6,7-7.3,14.1-10.9,21.1c-1.5-0.7-3-1.5-4.5-2.2c3.7-7,7.4-14,11.1-21.1
	C3400.9,3061.8,3402.3,3062.5,3403.8,3063.2z"/>
<path d="M1478.9,1159.2c5.9-3.5,11.9-7,17.8-10.5c0.6,1,1.2,2.1,1.8,3.1c-5.9,3.5-11.9,7-17.8,10.5
	C1480.1,1161.3,1479.5,1160.3,1478.9,1159.2z"/>
<path d="M2840.6,1132.2c6,2.9,12,5.9,17.9,8.8c-0.6,1.1-1.1,2.3-1.7,3.4c-5.8-3.2-11.7-6.5-17.5-9.7
	C2839.7,1133.8,2840.1,1133,2840.6,1132.2z"/>
<path d="M2427.9,1004.9c4.6,0,9.2,0,13.9,0c0,0.2,0,0.5,0,0.7c-4.6,0-9.3,0-13.9,0C2427.9,1005.4,2427.9,1005.1,2427.9,1004.9z"/>
<path d="M1608.4,932.6c8.2,4.3,16.3,8.6,24.5,13c-11.6,1.3-21.3-0.6-23.9-13.6L1608.4,932.6z"/>
<path d="M1609,931.9c-8.7-3-17.3-6.1-26-9.1c1-2,2-3.9,3-5.9c7.4,5.2,14.8,10.5,22.3,15.7C1608.4,932.6,1609,931.9,1609,931.9z"/>
<path d="M3434.5,1761.6c-2.1-4.5-4.1-9-6.2-13.5c1-0.5,2-0.9,3-1.4c2.3,4.3,4.5,8.5,6.8,12.8
	C3437,1760.3,3435.8,1760.9,3434.5,1761.6z"/>
<path d="M1087.8,3270.8c-1.7-2.8-3.5-5.6-5.2-8.4c2.8,1.9,5.5,3.9,8.3,5.8C1089.8,3269,1088.8,3269.9,1087.8,3270.8z"/>
<path d="M1583.1,3619c-10.1,5.8-18.7,3.4-29.2-6.6c11.6,2.9,20.1,5.1,28.7,7.1C1582.8,3619.3,1583.1,3619,1583.1,3619z"/>
<path d="M2763.4,3626.3c4.2-5.1,8.5-10.1,12.7-15.2c1.2,1.3,2.5,2.6,3.7,3.9c-5.6,3.6-11.2,7.3-16.8,10.9
	C2763,3626,2763.4,3626.3,2763.4,3626.3z"/>
<path d="M2763,3626c-7.3,1.8-14.7,3.6-22,5.4c-0.1-1.1-0.2-2.2-0.4-3.3c7.5-0.7,15-1.3,22.7-1.9C2763.4,3626.3,2763,3626,2763,3626z
	"/>
<path d="M1517.6,870.9c-2.8-1.8-5.6-3.6-8.4-5.3c0.9-0.9,1.8-1.8,2.7-2.7c2.6,2,5.2,4,7.8,6C1519,869.5,1518.3,870.2,1517.6,870.9z"
	/>
<path d="M1110.6,1476.1c-3.5,3.3-7,6.6-10.6,9.9c-0.7-0.7-1.4-1.5-2.1-2.2c3.3-3.5,6.7-7.1,10-10.6
	C1108.8,1474.1,1109.7,1475.1,1110.6,1476.1z"/>
<path d="M1023.6,1484.6c3-4.1,5.9-8.2,8.9-12.4c0.8,0.5,1.6,0.9,2.3,1.4c-2.6,4.4-5.2,8.8-7.9,13.1
	C1025.9,1486.1,1024.7,1485.3,1023.6,1484.6z"/>
<path d="M1563.8,318.9c5.5,0,10.9,0,16.4,0c0,0.6,0,1.3,0,1.9c-5.5,0-11,0-16.4,0C1563.9,320.2,1563.9,319.6,1563.8,318.9z"/>
<path d="M1514.1,308.8c6.1,2,12.2,4.1,18.3,6.1c-0.3,0.7-0.7,1.3-1,2C1525.7,314.2,1519.9,311.5,1514.1,308.8L1514.1,308.8z"/>
<path d="M1514.2,308.8c-9,0.6-18.1,1.2-27.1,1.7c0-1.2,0-2.3,0-3.5C1496.1,307.6,1505.1,308.2,1514.2,308.8
	C1514.1,308.8,1514.2,308.8,1514.2,308.8z"/>
<path d="M1288,1291.7c4.1-3.6,8.1-7.2,12.2-10.8c0.9,0.8,1.8,1.7,2.8,2.5c-3.6,4-7.1,8-10.7,12.1
	C1290.8,1294.1,1289.4,1292.9,1288,1291.7z"/>
<path d="M1341.9,1250.2c-4.9,5.2-9.8,10.4-14.7,15.6c-1.1-1.4-2.2-2.7-3.3-4.1c6.2-3.6,12.5-7.2,18.7-10.7L1341.9,1250.2z"/>
<path d="M1342.6,1250.9c4.7-5.4,9.4-10.8,14.1-16.2c1.1,1.5,2.2,3,3.3,4.5c-6.1,3.6-12.1,7.3-18.2,10.9
	C1341.9,1250.2,1342.6,1250.9,1342.6,1250.9z"/>
<path d="M1283.7,1226.3c-4.4,5.5-8.9,10.9-13.3,16.4c-1.2-1.5-2.4-2.9-3.6-4.4c5.9-3.8,11.7-7.6,17.6-11.3L1283.7,1226.3z"/>
<path d="M1284.3,1227c4.2-6,8.3-12,12.5-18c2,2.4,4,4.8,6,7.1c-6.4,3.4-12.8,6.8-19.2,10.2C1283.7,1226.3,1284.3,1227,1284.3,1227z"
	/>
<path d="M837,1936.9c1.1-8.4,2.1-16.8,3.2-25.3c2.3,0.6,4.6,1.2,6.9,1.8c-3.6,7.6-7.2,15.2-10.8,22.9
	C836.3,1936.3,837,1936.9,837,1936.9z"/>
<path d="M1493.3,3644.5c13.3-8.1,23.8,1.1,35.1,5.7c0.1-0.1,0.7-0.7,0.8-0.8c-11.9-1.8-23.8-3.5-35.8-5.1
	C1493.3,3644.4,1493.3,3644.5,1493.3,3644.5z"/>
<path d="M854.9,1886.1c-0.8-2.7-1.4-3.6-1.2-4.3c2-5,4.2-10,6.5-14.8c0.1-0.1,2.1,0.6,3.2,1c-1.8,5.1-3.6,10.2-5.5,15.3
	C857.7,1884,856.7,1884.5,854.9,1886.1z"/>
<path d="M1603.4,1096.4c4.1-2.3,8.2-4.6,12.3-7c0.6,1.1,1.2,2.1,1.7,3.2c-4.2,2.2-8.3,4.4-12.5,6.7
	C1604.4,1098.3,1603.9,1097.4,1603.4,1096.4z"/>
<path d="M1677.2,1069.5c-5.1,2.3-10.1,4.7-15.2,7c-0.5-1.1-1-2.2-1.5-3.2c5-2.4,10.1-4.7,15.1-7.1
	C1676.1,1067.3,1676.7,1068.4,1677.2,1069.5z"/>
<path d="M2469.8,1010.2c5.3,0,10.6,0,15.9,0c0,0.6,0,1.2-0.1,1.9c-5.1,0-10.1,0-15.2,0C2470.2,1011.4,2470,1010.8,2469.8,1010.2z"/>
<path d="M3281.8,3234.6c2.9-3.5,5.8-7,8.6-10.5c0.8,0.7,1.6,1.3,2.5,1.9c-2.8,3.6-5.5,7.2-8.3,10.8
	C3283.7,3236.1,3282.8,3235.4,3281.8,3234.6z"/>
<path d="M3335.1,2735.7c1.4-10.4,1.4-21.1,4.3-31c32.9-111,46.5-224.5,44-340c-0.2-8.9,0-17.7,0-26.6c2.2-0.1,4.4-0.2,6.6-0.3
	c0.7,8.8,2.5,17.6,2,26.3c-3,51.6-7.1,103.1-9.8,154.6c-3.4,66.4-22.2,129.8-37,193.9c-1.8,7.9-7.1,15-10.7,22.5
	C3334.4,2735.1,3335.1,2735.7,3335.1,2735.7z"/>
<path d="M1068.6,2070.5c-43.4,127-46.7,258.6-45.7,390.9c0.3-81.3-10.2-162.8,5.1-243.6c8.4-44.1,18.2-87.9,27.9-131.7
	c1.5-6.6,1.5-16.4,13.1-15.1L1068.6,2070.5z"/>
<path d="M1009.3,2022.8c-4.1,18.6-7.9,37.4-12.5,55.9c-18.1,72.8-26.4,146.9-29.1,221.7c-0.1,2.4-1.5,4.7-3.3,10.4
	c0-31.2-3.4-59.3,0.7-86.4c9.2-61.4,21.7-122.4,33.7-183.4c1.2-6.4,7.4-11.7,11.2-17.6C1009.9,2023.4,1009.3,2022.8,1009.3,2022.8z"
	/>
<path d="M3313.8,2621.9c13.7-98.2,24.4-195.8,21.9-294.5C3349.1,2369.3,3332.1,2569.1,3313.8,2621.9z"/>
<path d="M2927.2,2975.1c18.5,1.2,27.2,17.1,16,31.7c-6.7,8.7-15.6,17-25.3,22c-12.8,6.6-25.2-2.1-26.5-16.1
	C2889.9,2995.4,2910.2,2974,2927.2,2975.1z M2936.9,2995.7c-3.3-2.4-7.6-7.8-12.9-9c-10.3-2.4-23.1,8.9-22.3,19.7
	c0.3,3.7,5.9,9.4,9.8,10.1C2922.5,3018.4,2936.1,3008,2936.9,2995.7z"/>
<path d="M1773.1,3266.7c9.9,20.6,9.8,34.1-0.5,41c-9.3,6.2-30.9-0.3-40.7-12.2c-9.1-11.2-11.2-26.1-4.6-34.2
	c7.6-9.5,22.4-11,36.3-3.1c4,2.3,7,6.3,10.5,9.5c-8.3-1.3-16.6-3.5-24.9-3.7c-9.2-0.3-13.5,5.8-12.8,14.7
	c0.9,10.5,16.4,23.3,26.2,21.1c11.3-2.6,13.6-11.4,12-21.8C1774,3274.1,1773.6,3270.4,1773.1,3266.7z"/>
<path d="M3140.9,2891.3c-6.4,7.5-12.5,14.7-18.4,21.6c-7.4-2-14.9-2-19.6-5.7c-7-5.4-13.5-12.6-17.1-20.5
	c-1.2-2.5,6.7-12.4,11.7-13.8c8.3-2.2,18.6-2.3,26.4,0.8C3130.5,2876.5,3134.9,2884.8,3140.9,2891.3z M3100.8,2884.1
	c8.1,16.8,15.1,18.3,23.1,11.2c1.8-1.6,0.7-6.5,0.9-9.8C3118.2,2885.1,3111.7,2884.7,3100.8,2884.1z"/>
<path d="M3280.6,2492.5c-3.5,15.4-7,30.7-11.5,50.1c-10.6-3.7-21.7-4.3-25.8-10c-5.5-7.4-7.4-19-6.8-28.6c0.2-2.7,14.4-4.8,22.2-6.7
	c7.3-1.8,14.7-3,22-4.5C3280.8,2492.9,3280.6,2492.5,3280.6,2492.5z M3268.7,2524.4c-3.2-4.5-5.2-7.2-7.2-10c-3.8,3-7.7,6-11.5,9
	c2.2,2.6,4.5,7.6,6.5,7.4C3260.1,2530.5,3263.5,2527.3,3268.7,2524.4z"/>
<path d="M1298.4,2965.7c-15.7-0.6-28.5-14.2-28.6-30.3c-0.1-13.9,10.7-24.6,23.5-23.3c12.1,1.2,25.3,17.6,25.1,31.1
	C1318.2,2957.7,1310.7,2966.2,1298.4,2965.7z M1315.5,2939.3c-9.9-6.8-16.6-13.1-24.5-15.9c-2.5-0.9-11,7-12,11.9
	c-1.8,8.2,13.1,21.5,20.2,18.7C1304.4,2951.9,1308.2,2946.1,1315.5,2939.3z"/>
<path d="M2862.2,3203.7c9.8-8.7,16.8-14.9,23.5-20.9c7.1,4.9,13.1,8.9,18.8,13.1c12,8.8,13.7,16.6,6,26c-8.5,10.4-20.6,12.5-30.2,4
	C2874.1,3220.3,2869.5,3212.9,2862.2,3203.7z M2883.6,3197.2c-0.4,17.7-0.4,17.7,15.7,17.5
	C2893.7,3208.3,2889.5,3203.7,2883.6,3197.2z"/>
<path d="M3056.4,2589.6c0.3,14.3-11.7,27.3-20.4,24.3c-6.6-2.3-14.3-10-15.7-16.6c-2.2-10.6,6.4-19.3,16.6-18.7
	C3044.4,2579.1,3051.5,2586.6,3056.4,2589.6z"/>
<path d="M1856.3,3155.3c19.9,2.5,29.5,12.8,27.6,25.1c-1.7,11.1-10.5,12.9-19.2,12.9c-12,0-27.8-17.4-23.5-27.3
	C1843.7,3160.2,1853.3,3157.4,1856.3,3155.3z M1854.6,3162.9c-1.2,15.8,2.2,21.5,11.6,20.3c2.3-0.3,5.9-7.8,5.4-8.1
	C1867.6,3171.3,1862.7,3168.3,1854.6,3162.9z"/>
<path d="M1383.4,3082.8c12-0.4,34,20.2,34.5,31.3c0.5,10.3-8.7,20-19.4,20.6c-16.6,0.9-29.7-11-29.1-28.1
	C1369.7,3096.5,1370.6,3085.2,1383.4,3082.8z M1379.1,3094.1c0.1,16.6,2.8,28.2,14.9,36.1
	C1412.6,3111.9,1410.2,3105.3,1379.1,3094.1z"/>
<path d="M2763.9,3134.9c-14.8,21.5-24.1,27-33.4,20c-9.1-6.9-9.5-15.8-3.2-25C2735.2,3118.3,2743.5,3119.3,2763.9,3134.9z"/>
<path d="M1582.9,2924.5c-4,3.3-9.7,11.3-17.2,13.6c-11.1,3.4-21.3-7.3-22.2-20.3c-0.8-11.4,5.7-19.3,16-19.6
	C1571.1,2897.8,1582.4,2908,1582.9,2924.5z M1572.5,2920.3c-4.6-3.9-7.1-7.7-9.6-7.7c-2.7,0-5.3,3.6-8,5.7c2,2.6,3.7,6.8,6.2,7.3
	C1563.8,2926,1567.1,2923,1572.5,2920.3z"/>
<path d="M1620.6,3285.9c-4.6,8.7-8,15-11.9,22.2c11.8,8.3,23.2,7.2,27.4-3.3c2.9-7.3-3-18.2-5.8-30.7c9.2,4.7,18.7,9.3,17.4,20.5
	c-1,8.5-5.8,19.3-12.5,23.7c-6.5,4.3-18.4,4-26.3,1.2c-4.8-1.7-9.4-12.2-9-18.3C1600.8,3291.2,1608.7,3286.2,1620.6,3285.9z"/>
<path d="M3280.8,2492.9c-1-17.1-2.8-34.1-3-51.2c-0.4-46.6-0.1-93.2,2.3-139.8c4.3,63.4,5.7,126.9,0.4,190.5
	C3280.6,2492.5,3280.8,2492.9,3280.8,2492.9z"/>
<path d="M2981.8,2812.4c0.1,11.8-11.7,24.9-22.7,25.4c-10.5,0.4-18.9-8.6-19.1-20.3c-0.2-13.1,7.9-22.3,20.1-22.7
	C2971.4,2794.3,2981.7,2802.7,2981.8,2812.4z M2962.8,2803.8c-4.7,5-9.7,8.1-11,12.3c-0.8,2.6,4,6.9,6.3,10.5
	c4.5-3.6,9.5-6.8,13-11.1C2971.9,2814.6,2966.7,2809,2962.8,2803.8z"/>
<path d="M1423.9,2813c-0.2,13-9.4,23.4-20.4,23.1c-11.3-0.3-20.1-11.1-19.4-23.4c0.8-12.2,8.6-20.1,19.7-19.6
	C1414.7,2793.5,1424.1,2802.8,1423.9,2813z M1420.6,2816.9c-6.1-4.7-10.1-10.2-14.2-10.3c-4.2-0.2-8.6,4.9-12.9,7.6
	c4,4.4,7.2,10.6,12.1,12.4C1408.5,2827.5,1413.9,2821.4,1420.6,2816.9z"/>
<path d="M2666.9,3267.6c-13.5,9.3-20.7,17.2-29.3,19.4c-8.6,2.1-16.7-4.6-15.7-15c1-10.5,8.1-18,18.8-16.9
	C2647.6,3255.7,2654,3261.2,2666.9,3267.6z"/>
<path d="M2777,2759.9c3.9-3.3,9.1-11,15.4-12.1c9.7-1.7,18.2,4.2,19.5,15.4c1.2,10.5-8,20.5-18.4,20.5
	C2780.3,2783.9,2779.6,2773.8,2777,2759.9z"/>
<path d="M1261.6,2655.3c15.7,1.5,22.1,7.5,22.5,18.7c0.4,9.9-4.2,17.1-14.9,16.8c-11.1-0.3-18.5-8.2-18.1-18.2
	C1251.3,2666.1,1258.5,2660,1261.6,2655.3z"/>
<path d="M3156.6,2684.9c-5.5-5.2-13.5-9.4-13.7-13.9c-0.3-7.3,2.5-17.2,7.8-21.5c3.8-3.2,16.3-1.8,19.9,2.2
	c3.3,3.6,1.4,13.9-0.9,20.3C3168,2676.6,3162.1,2679.7,3156.6,2684.9z"/>
<path d="M1141,2794.5c-13.9-7.9-12.9-19-2.6-27.3c5.3-4.2,16.4-3.9,23.7-1.8c3.9,1.1,8.9,11.3,7.5,15.6c-1.9,6-8.5,11.7-14.4,14.8
	c-3.7,1.9-10.1-1.3-15.2-2.2c4-4,7.9-8.1,11.9-12.1c-1.5-0.9-3-1.9-4.5-2.8C1145.4,2783.9,1143.2,2789.2,1141,2794.5z"/>
<path d="M3080,3015.5c14.9,2.1,24.2,6.6,25.1,18.7c0.3,4.1-4.7,10.4-8.9,12.6c-12.6,6.6-20.5-2.7-30.1-10.4
	C3071.2,3028.9,3075.5,3022.3,3080,3015.5z"/>
<path d="M1169.4,1842.8c5.5-29.6,25.9-68.1,55.1-98.5c-3,5.8-5.9,11.8-9.1,17.5c-15.5,26.8-31,53.6-46.6,80.4
	C1168.8,1842.3,1169.4,1842.8,1169.4,1842.8z"/>
<path d="M1398.4,2545.4c7.9,9.7,15.7,15,16.9,21.5c1.5,8.2-6,13.2-14.9,12.9c-10-0.3-17.3-5.5-16.1-15.4
	C1384.9,2559,1391.6,2554.2,1398.4,2545.4z"/>
<path d="M2780.5,2965.3c-12.8,9-19.4,17.1-26.3,17.4c-5.2,0.2-10.9-9.6-16.3-14.9c6.3-4.5,12-11.2,19-12.9
	C2761.7,2953.8,2768.2,2959.6,2780.5,2965.3z"/>
<path d="M2557.6,3113.6c0.6,15.7-6.4,20.8-15.7,19.9c-6.1-0.6-14.6-4.9-16.9-9.8c-3.8-8.3,5.9-18.3,16.7-17.3
	C2547.8,3107,2553.6,3111.7,2557.6,3113.6z"/>
<path d="M2216.7,3557.1c40.8-2.8,81.6-5.5,122.4-8.3c0.1,1.3,0.1,2.5,0.2,3.8c-41.2,2.5-82.4,5.1-123.6,7.6
	C2216.1,3559.2,2216.4,3558.1,2216.7,3557.1z"/>
<path d="M1724.4,3057c-5,2.9-10.5,8.6-16.5,9.1c-9.9,0.9-19.2-3.2-19.8-15.5c-0.4-9.5,5.7-14.1,14.5-13.3
	C1712.3,3038.2,1721.4,3041.1,1724.4,3057z"/>
<path d="M1606.6,1387.9c-2.1,3-3.6,7-6.5,8.8c-29.8,18.8-59.9,37.2-89.9,55.6c0,0,0.6,0.6,0.6,0.6c-0.1-0.9-0.6-2.4-0.2-2.8
	c28.8-25.9,60.5-47.3,96.6-61.6L1606.6,1387.9z"/>
<path d="M1607.2,1388.6c27.7-23.5,61.7-34.7,95.8-45.5c-32.1,14.9-64.2,29.9-96.4,44.8C1606.6,1387.9,1607.2,1388.6,1607.2,1388.6z"
	/>
<path d="M1030.4,1951.7c6.7-33.7,22.6-63.6,40.2-99.9c-6.2,33.1-29,86.6-40.8,99.3L1030.4,1951.7z"/>
<path d="M3334.4,2735.1c-4.7,36.8-13.9,72.1-34.5,103.6l0.7,0.6c11.5-34.5,23-69.1,34.6-103.6
	C3335.1,2735.7,3334.4,2735.1,3334.4,2735.1z"/>
<path d="M1938.2,3359.4c24.3-4.5,39.6,4.3,56.5,15C1971.1,3382.6,1956.9,3379.2,1938.2,3359.4z"/>
<path d="M3331.3,2297c-2.8-32.2-5.7-64.5-8.5-96.7c1.8-0.2,3.6-0.3,5.5-0.5c2.7,32.5,5.4,65,8.1,97.5
	C3334.6,2297.2,3333,2297.1,3331.3,2297z"/>
<path d="M1307.8,1849.1c-13.5,21.2-26.9,42.4-41.9,65.9c-3.2-6.2-6.1-10-5.4-10.7c15.7-18.4,31.8-36.5,47.8-54.7L1307.8,1849.1z"/>
<path d="M1153.1,2530.4c-8.8-9.1-16.5-13.7-18.5-20.1c-2.5-8.3,4.7-15.5,13-13.5c6.9,1.7,14,7.8,17.8,13.9
	C1166.8,2513.1,1159.2,2521.1,1153.1,2530.4z"/>
<path d="M3168.9,2387.1c-6.4-10-12.3-15.2-12.8-21c-0.9-9.4,5-16,15.5-15.7c8.9,0.2,15.6,5.5,13.7,13.9
	C3183.7,2371,3176.8,2376.5,3168.9,2387.1z"/>
<path d="M2040.4,3557.4c-25.9-3.8-51.9-7.6-78.5-11.4c17.7-3.2,65.3,4,78.4,11.5L2040.4,3557.4z"/>
<path d="M2040.3,3557.4c27.5,0,55.1,0,82.6,0c0,0,0-0.1,0-0.1c-27.4,0-54.9,0-82.4,0C2040.4,3557.4,2040.3,3557.4,2040.3,3557.4z"/>
<path d="M3073.1,3202.1c-12.1,12.4-24.1,24.8-36.2,37.2c-0.3-0.3-0.7-0.6-1-0.9c13-11.6,26-23.2,39-34.8
	C3074.4,3203.2,3073.8,3202.6,3073.1,3202.1z"/>
<path d="M1029.8,1951.1c1.9,26.4-11.2,48.5-20.5,71.7c0,0,0.7,0.6,0.7,0.6c-4.1-27,10.1-48.8,20.5-71.7
	C1030.4,1951.7,1029.8,1951.1,1029.8,1951.1z"/>
<path d="M1821.8,3512.8c21.3,4.3,42.6,8.6,64,12.9c-22.5,1.3-44.2-0.9-63.3-13.5L1821.8,3512.8z"/>
<path d="M1069.2,2071.1c-9.9-26.1,11.6-43.9,19.5-65.3c-6.8,21.5-13.5,43-20.2,64.6C1068.6,2070.5,1069.2,2071.1,1069.2,2071.1z"/>
<path d="M1615.5,1288.4c13-6.3,26.1-12.7,39.1-19c0.5,0.9,0.9,1.8,1.4,2.7c-12.7,6.7-25.5,13.4-38.2,20
	C1617,1290.9,1616.2,1289.7,1615.5,1288.4z"/>
<path d="M1678.7,1497.1c-13.8,9.4-27.6,18.8-41.4,28.2c-1.2-1.8-2.4-3.7-3.6-5.5c14-9,28.1-18.1,42.1-27.1
	C1676.8,1494.2,1677.7,1495.6,1678.7,1497.1z"/>
<path d="M3217,2727c7.1-17.7,14.3-35.3,21.4-53c1.1,0.4,2.1,0.8,3.2,1.2c-4.9,14.8-9.4,29.8-15.1,44.4c-1.2,3.1-6.7,4.5-10.1,6.9
	C3216.6,2726.6,3217,2727,3217,2727z"/>
<path d="M1214.8,2025.9c-5.9,16.1-11.8,32.2-17.7,48.4c-1.5-0.5-3-1.1-4.6-1.6c5.9-16.2,11.9-32.4,17.8-48.7
	C1211.9,2024.6,1213.3,2025.3,1214.8,2025.9z"/>
<path d="M1448.2,1685.4c-10,10.7-20,21.3-30,32c-1-1-2-1.9-3-2.9c9.9-10.9,19.9-21.8,29.8-32.7
	C1446.1,1683,1447.2,1684.2,1448.2,1685.4z"/>
<path d="M1106,1781.2c7.7-14.5,15.4-29,23-43.6c1.6,0.8,3.1,1.6,4.7,2.4c-7.6,14.6-15.2,29.1-22.8,43.7
	C1109.4,1782.9,1107.7,1782,1106,1781.2z"/>
<path d="M3320.3,2173.3c-2.7-16.4-5.4-32.9-8-49.3c1.5-0.2,3-0.4,4.5-0.6c2.3,16.5,4.6,33,6.9,49.6
	C3322.5,2173,3321.4,2173.2,3320.3,2173.3z"/>
<path d="M1568.4,1573.8c5.8-20.6,27.3-22.1,38.4-36.2c1.4,1.6,2.8,3.1,4.2,4.7c-6.5,5.3-12.8,10.9-19.7,15.8
	c-7.6,5.4-15.7,10.1-23.5,15.1C1567.7,1573.2,1568.4,1573.8,1568.4,1573.8z"/>
<path d="M1380.4,1554.3c9.7-8.5,19.5-17,29.2-25.5c1.3,1.4,2.5,2.7,3.8,4.1c-9.8,8.6-19.6,17.3-29.4,25.9
	C1382.8,1557.3,1381.6,1555.8,1380.4,1554.3z"/>
<path d="M1521.9,1613.4c-9.1,8.5-18.2,17-27.4,25.5c-1.1-1.1-2.1-2.2-3.2-3.3c9-8.4,17.9-16.8,26.9-25.3
	C1519.5,1611.4,1520.7,1612.4,1521.9,1613.4z"/>
<path d="M3273.9,2270.8c-2.2-14.5-4.5-28.9-6.7-43.4c1.2-0.2,2.5-0.3,3.7-0.5c2.2,14.5,4.4,28.9,6.6,43.4
	C3276.4,2270.5,3275.1,2270.6,3273.9,2270.8z"/>
<path d="M3290.4,2869.9c-6.1,14.9-12.3,29.9-18.4,44.8c2.7-16.4,1.5-34.9,19.1-44.1C3291,2870.5,3290.4,2869.9,3290.4,2869.9z"/>
<path d="M1910.4,3468c13.1,2.4,26.2,4.9,39.3,7.3c-0.2,1.3-0.5,2.7-0.7,4c-13.1-2.6-26.1-5.1-39.2-7.7
	C1910,3470.4,1910.2,3469.2,1910.4,3468z"/>
<path d="M1373.3,1761.1c6.7-7.7,13.4-15.3,20.1-23c1.1,0.9,2.3,1.8,3.4,2.8c-6.5,8.2-12.9,16.3-19.4,24.4
	C1376.1,1764,1374.7,1762.5,1373.3,1761.1z"/>
<path d="M1168.8,1842.3c-3.1,13.1-6.2,26.2-9.4,39.2c-2.1-0.7-4.3-1.4-6.4-2.1c5.5-12.2,11-24.3,16.4-36.5
	C1169.4,1842.8,1168.8,1842.3,1168.8,1842.3z"/>
<path d="M3233.1,2976.6c5.5-9.7,11-19.4,16.5-29.1c1.2,0.7,2.4,1.3,3.5,2c-5.4,9.8-10.7,19.5-16.1,29.3
	C3235.7,2978.1,3234.4,2977.4,3233.1,2976.6z"/>
<path d="M3231.5,2873.5c4.5-9.9,8.9-19.8,13.4-29.7c1.4,0.6,2.8,1.2,4.3,1.8c-4.3,10-8.7,19.9-13,29.9
	C3234.6,2874.8,3233,2874.2,3231.5,2873.5z"/>
<path d="M3288.2,2714c2.7-9.1,5.5-18.2,8.2-27.3c1.4,0.4,2.8,0.7,4.2,1.1c-2.4,9.6-4.8,19.2-7.2,28.8
	C3291.6,2715.7,3289.9,2714.9,3288.2,2714z"/>
<path d="M1286.9,1657.4c5.1-5.6,10.3-11.2,15.4-16.8c1,0.8,1.9,1.6,2.9,2.4c-4.7,5.8-9.4,11.7-14.2,17.5
	C1289.6,1659.5,1288.2,1658.5,1286.9,1657.4z"/>
<path d="M1323.5,1616.1c4.3-5.3,8.6-10.6,12.9-15.8c1,0.8,1.9,1.6,2.9,2.4c-4.4,5.1-8.9,10.3-13.3,15.4
	C1325.1,1617.4,1324.3,1616.7,1323.5,1616.1z"/>
<path d="M1342.7,1803.1c5.4-9,10.8-18.1,16.3-27.1c1.5,1.1,3.1,2.1,4.6,3.2c-5.2,9.3-9.3,19.4-21.4,23.4
	C1342.1,1802.5,1342.7,1803.1,1342.7,1803.1z"/>
<path d="M2502.7,3459.9c-7.1,2.3-14.2,4.7-20.7,6.8c-1.7-1.3-2.4-1.8-3.1-2.4c0.8-0.5,1.5-1.3,2.4-1.5c6.9-1.9,13.8-3.7,20.8-5.5
	C2502.3,3458.1,2502.5,3459,2502.7,3459.9z"/>
<path d="M2314.8,3493.7c-6,0-11.9,0-17.9,0c0-0.2,0-0.3,0-0.5c6,0,11.9,0,17.9,0C2314.8,3493.4,2314.8,3493.6,2314.8,3493.7z"/>
<path d="M1822.5,3512.2c-11.5-1.5-23-2.9-34.5-4.4c0.4-2,0.8-3.9,1.2-5.9c10.8,3.7,21.6,7.3,32.5,10.9
	C1821.8,3512.8,1822.5,3512.2,1822.5,3512.2z"/>
<path d="M2566.5,3505.5c-7,2.6-14,5.1-21,7.7c-0.4-1.1-0.9-2.2-1.3-3.3c6.5-2.4,13.1-4.8,19.6-7.2
	C2564.7,3503.6,2565.6,3504.6,2566.5,3505.5z"/>
<path d="M1567.7,1573.2c-6.6,7.4-13.2,14.9-19.8,22.3c4.2-16.7,4.3-16.5,20.4-21.7C1568.4,1573.8,1567.7,1573.2,1567.7,1573.2z"/>
<path d="M1456.8,1491.5c-6.7,7.6-13.4,15.1-20.1,22.7c-1.5-1.6-2.9-3.2-4.4-4.9c8.4-5.7,16.7-11.5,25.1-17.2
	C1457.5,1492.1,1456.8,1491.5,1456.8,1491.5z"/>
<path d="M1486.7,1469.5c-10,7.3-19.9,14.7-29.9,22c0,0,0.6,0.6,0.6,0.6c7.3-11,14.8-21.7,29.9-22L1486.7,1469.5z"/>
<path d="M3261.6,2789c4.3-8,8.7-16.1,13-24.1c0.6,10.9,3.7,23.3-13.2,24.1L3261.6,2789z"/>
<path d="M1981.5,3481.1c5.6,0,11.2,0,16.9,0c0,0.4,0,0.8,0,1.3c-5.5,0-11.1,0-16.6,0C1981.6,3481.9,1981.6,3481.5,1981.5,3481.1z"/>
<path d="M3261.5,2789c8.5,12.1,2.2,22-6.3,31.6c2.2-10.5,4.5-21,6.6-31.6C3261.6,2789,3261.5,2789,3261.5,2789z"/>
<path d="M1356.9,3266.8c3.8,3.6,7.7,7.1,11.5,10.7c-1.2,1.2-2.4,2.4-3.6,3.7c-3.8-3.6-7.7-7.2-11.5-10.9
	C1354.5,3269.1,1355.7,3267.9,1356.9,3266.8z"/>
<path d="M1254.8,1705.4c-4,4.6-7.9,9.1-11.9,13.7c-1-0.8-2-1.5-3-2.3c3.8-5.1,7.6-10.1,11.4-15.2
	C1252.5,1702.8,1253.7,1704.1,1254.8,1705.4z"/>
<path d="M1643.9,3455.5c-4-2.2-8-4.4-12-6.6c0.2-0.9,0.4-1.7,0.6-2.6c2.6,0.6,5.5,0.8,7.9,1.8c2.4,1,4.3,3,6.4,4.5
	C1645.8,3453.6,1644.9,3454.5,1643.9,3455.5z"/>
<path d="M2370.8,3544.2c5.9,0,11.9,0,17.8,0c0,0.7,0,1.4,0,2.1c-5.9,0-11.9,0-17.8,0C2370.8,3545.6,2370.8,3544.9,2370.8,3544.2z"/>
<path d="M1487.4,1470.2c2.3-13.3,11.9-16.5,23.4-17.2c0,0-0.6-0.6-0.5-0.6c-7.8,5.7-15.7,11.4-23.5,17.1
	C1486.7,1469.5,1487.4,1470.2,1487.4,1470.2z"/>
<path d="M1370.4,1458.5c-2.6,2.6-5.3,5.2-7.9,7.8c-0.9-0.9-1.8-1.9-2.7-2.8c2.7-2.5,5.4-5,8.1-7.5
	C1368.7,1456.8,1369.5,1457.7,1370.4,1458.5z"/>
<path d="M3204.9,2755.1c4.1-9.3,8.3-18.5,12.3-27.9c-0.1-0.2-0.6-0.6-0.7-0.7c4.7,13.1,4.7,24.2-12,28.3
	C3204.5,2754.8,3204.9,2755.1,3204.9,2755.1z"/>
<path d="M3193,2783.2c4.1-9.2,8.1-18.5,12-27.9c-0.1-0.2-0.5-0.5-0.6-0.6C3209.6,2774,3208.8,2776.2,3193,2783.2L3193,2783.2z"/>
<path d="M3192.9,2783.1c0,8.5,0,17,0,25.6c-1.8-0.1-3.6-0.2-5.4-0.2c1.9-8.4,3.7-16.7,5.5-25.2
	C3193,2783.2,3192.9,2783.1,3192.9,2783.1z"/>
<path d="M3299.8,2838.7c-3.2,10.3-6.4,20.7-9.5,31.1c0.1,0.1,0.7,0.7,0.8,0.8c-4.4-12.7-0.2-22.8,9.4-31.3
	C3300.5,2839.3,3299.8,2838.7,3299.8,2838.7z"/>
<path d="M3045.1,3020.7c2.7-3.1,5.5-6.3,8.2-9.4c0.9,0.8,1.9,1.6,2.8,2.4c-2.8,3.2-5.6,6.5-8.4,9.7
	C3046.8,3022.6,3046,3021.7,3045.1,3020.7z"/>
<path d="M1445.1,3026.6c3.9,4.9,7.7,9.8,11.6,14.7c-1.1,0.9-2.3,1.8-3.4,2.8c-4.1-4.9-8.1-9.8-12.2-14.7
	C1442.4,3028.5,1443.7,3027.6,1445.1,3026.6z"/>
<path d="M1497.7,3082.2c4.8,3.8,9.7,7.7,14.5,11.5c-0.5,0.9-1,1.8-1.4,2.6c-5.5-3.2-11-6.5-16.4-9.7
	C1495.5,3085.1,1496.6,3083.7,1497.7,3082.2z"/>
<path d="M1308.3,1849.6c5.7-7.7,11.4-15.4,17.1-23.1c0,0-0.5-0.5-0.5-0.5c-5.7,7.7-11.4,15.4-17.2,23
	C1307.8,1849.1,1308.3,1849.6,1308.3,1849.6z"/>
<path d="M3048,3147.6c-2.1,2.3-4.2,4.6-7.6,8.4c2.4-4.8,3.9-7.7,5.3-10.7C3046.5,3146.1,3047.3,3146.9,3048,3147.6z"/>
<path d="M3113.8,3157.8c-3,3.3-5.9,6.6-8.9,9.9c-0.9-0.8-1.7-1.5-2.6-2.3c2.9-3.4,5.7-6.8,8.6-10.1
	C3111.9,3156.2,3112.8,3157,3113.8,3157.8z"/>
<path d="M1325.5,1826.5c5.7-7.8,11.5-15.6,17.2-23.5c0,0-0.6-0.5-0.6-0.5c-5.7,7.8-11.4,15.7-17.1,23.5
	C1325,1826,1325.5,1826.5,1325.5,1826.5z"/>
<path d="M1396.1,453.9c-8.4-2.6-16.8-5.1-25.1-7.7c0.8-1.9,1.7-3.8,2.5-5.7c7.3,4.7,14.6,9.4,22,14.1
	C1395.4,454.6,1396.1,453.9,1396.1,453.9z"/>
<path d="M1653,678.1c-5.5,0-11,0-16.4,0c0-0.5-0.1-1-0.1-1.4c5.2-0.3,10.5-0.7,15.7-1C1652.4,676.5,1652.7,677.3,1653,678.1z"/>
<path d="M1705.9,683.4c-5.4,0-10.8,0-16.2,0c0-0.2,0-0.5,0-0.7c5.4,0,10.8,0,16.2,0C1705.9,682.9,1705.9,683.2,1705.9,683.4z"/>
<path d="M1917,722.1c9.9,7.4,15.2,16.5,10.9,29.3c-0.1,0.1,0.5-0.6,0.5-0.5c-3.6-9.7-7.2-19.6-10.7-29.4
	C1917.6,721.4,1917,722.1,1917,722.1z"/>
<path d="M1904.9,694c11.2,6.2,14.3,16,12.1,28c0,0,0.6-0.6,0.6-0.6c-4.1-9.4-8.1-18.7-12.1-28.1C1905.5,693.4,1904.9,694,1904.9,694
	z"/>
<path d="M1905.5,693.4c-3.1-7.2-6.2-14.3-9.3-21.5c1.7-0.5,3.4-1,5.1-1.4c1.2,7.8,2.5,15.7,3.7,23.6
	C1904.9,694,1905.5,693.4,1905.5,693.4z"/>
</svg>
