<?xml version="1.0" encoding="utf-8"?>
<!-- Generator: Adobe Illustrator 24.3.0, SVG Export Plug-In . SVG Version: 6.00 Build 0)  -->
<svg version="1.1" id="Layer_1" xmlns="http://www.w3.org/2000/svg" xmlns:xlink="http://www.w3.org/1999/xlink" x="0px" y="0px"
	 viewBox="0 0 4000 4000" style="enable-background:new 0 0 4000 4000;" xml:space="preserve">
<path d="M1740.8,1504.7c-17.3-18.2-30.9-34.6-46.6-48.5c-55.6-49-120.3-82.1-190.7-104.4c-10.2-3.2-20.6-6.3-29.9-11.2
	c-15.7-8.2-18.4-21-8.2-35.5c10.3-14.7,25.7-22.6,42.4-25.7c27.9-5.2,56.2-8.4,84.5-11.9c16.7-2,33.5-2.9,55.5-4.7
	c-6.7-10.8-10.9-19-16.4-26c-34.3-43.8-74-81.8-121-111.9c-12-7.7-24.5-14.8-35.5-23.8c-7.2-5.9-12.1-14.7-19.3-23.7
	c33.1-35.5,77.8-28.3,119.8-38.4c-4.8-5.9-8-10.5-11.9-14.5c-35.8-36.3-75.9-67.2-118.3-95.4c-10.2-6.8-19.8-15.5-27-25.3
	c-9.5-12.9-6.3-25.5,7.6-34c7.3-4.5,16.2-7.2,24.7-9c44.6-9.1,88.8-3.1,132.3,6.9c36.3,8.3,71.8,19.8,109.3,30.3
	c0.9-21.1-5.8-40.3-12.6-59.1c-24-66.2-51.3-131-86.9-192c-5.8-9.9-10.6-20.7-13.6-31.7c-4.2-15,0.9-25.2,16.3-28.1
	c15.3-2.9,32-3.4,47.3-0.7c58,10.6,108.3,39.5,158.2,69c15.2,9,30,18.6,47.9,29.8c2-10.4,4.3-17.8,4.8-25.4
	c11-160.8,21.8-321.6,32.8-482.4c0.7-10.6,2.1-21.3,4.8-31.6c5.9-22.1,18.1-26.8,37.5-13.9c11.8,7.8,23,17.1,32.7,27.3
	c54.3,56.8,104.2,117,141.2,187c13.3,25.1,27.9,49.5,42.5,75.2c12.4-2.1,15.9-13.4,21.3-21.5c43.1-64.5,97.8-117.6,160.4-162.8
	c15.4-11.2,30.6-24.9,56.5-20.9c1.7,12.3,4.6,25,4.9,37.8c2.5,89.9,4.3,179.8,6.8,269.8c0.6,21.2,2.8,42.4,4.6,67.7
	c8.9-4.9,14.7-8.1,20.5-11.2c46-25.2,91.1-52,138.2-74.8c22-10.6,47.6-13.7,71.8-19.7c5.9-1.5,12.5-1.8,18.5-0.9
	c16.8,2.4,21.5,9.8,15.7,25.9c-3.9,10.8-9.2,21.2-14.8,31.3c-36.8,66.5-64.5,136.7-85.5,209.7c-2.2,7.5-3.5,15.3-6.3,27.7
	c12.2-3.5,21.2-5.4,29.7-8.6c41.8-15.9,85.1-26.1,129.5-30.7c14.8-1.5,30.6-1.4,45,1.8c23.8,5.3,28.9,23.2,13.1,41.7
	c-6.3,7.4-14.1,13.5-21.7,19.6c-58,46.7-107.8,101.1-149.6,162.5c-10.8,15.9-19,33.6-31.6,56.2c14.1-2.5,21.6-3.2,28.8-5.2
	c53.6-15.1,108.5-19.4,163.8-20.3c13.2-0.2,26.9,1,39.7,4.3c26.1,6.8,31,26.9,11.6,45.3c-7,6.7-15.4,12-23.6,17.4
	c-68,45.5-126.2,101.5-175.5,166.6c-8.8,11.6-20.1,22.8-19.2,41.9c10.4-0.5,19.9-0.8,29.5-1.4c56.7-3.5,109.5,10.6,159,37.1
	c9.8,5.3,18.7,13.6,25.5,22.5c7.5,9.8,4.6,17.9-7.8,23.3c-11.3,4.9-23.5,8.3-35.7,10.5c-69.8,12.5-132.7,40.3-187.7,85
	c-18.4,14.9-34.6,32.5-53.7,50.7c8.1,4.8,12.2,8.1,16.9,9.8c122.6,44.5,215,127.3,290.8,230.4c67.9,92.3,111.3,196.3,142.7,305.7
	c55.7,194.5,84.2,393.1,91.6,595.1c6.1,165.3-3.4,329.5-33.2,492.1c-22.9,124.9-59.1,245.8-122.6,357
	c-82.5,144.5-200.9,245.9-359.8,297.3c-79.2,25.6-161.2,38.5-244.3,40.2c-103.3,2.1-206.6,2.5-309.9,0.9
	c-117.1-1.8-230-26.6-336.2-76.3c-146.1-68.5-250.2-179.9-320.3-324c-55.9-114.7-88.5-236.4-108.1-362
	c-23.6-151-30.4-302.9-23.8-455.4c3.4-77.4,5.5-154.9,13.3-231.9c19.2-190.1,62.9-374.2,152.4-544.4
	c62.4-118.7,148.4-217.5,267.9-283C1673.5,1535.2,1704.6,1522,1740.8,1504.7z M2213.4,1055.1c22.5-23,41.1-44.5,62.4-62.9
	c15.8-13.7,17.8-27.3,14.3-46.9c-19-105.8-54.5-206.2-96.2-304.6c-20.1-47.4-44.6-92.9-67.8-138.9c-4.4-8.8-12.1-15.9-19-24.7
	c-5,5.4-8.1,7.6-9.6,10.6c-6.2,11.8-12.3,23.7-17.7,35.9c-42,93.6-70.7,191.7-96.9,290.6c-18.8,70.8-25.5,143.5-36.8,215.5
	c-2,13-3.6,26.3,8.3,37.1c22.9,20.8,45.1,42.4,69.7,65.7c4.9-8.4,9.7-15.6,13.4-23.3c22.2-46.5,43.8-93.3,66.3-139.7
	c7.3-15.1,15.2-30.4,25.7-43.3c14-17.2,27.2-14.5,35.7,6c8.9,21.3,16.4,43.2,24.8,64.8C2197.3,1015.5,2205,1034.1,2213.4,1055.1z
	 M2271.6,2755c-88.4-71.9-172.9-140.6-259.1-210.8c-71.5,65.7-141.2,129.9-213.4,196.2c84.4,70.2,166,138,249.8,207.7
	C2123.1,2883.7,2195.5,2821,2271.6,2755z M2514.8,2540.3c-7.3-8-11.5-13.7-16.7-18.2c-69.9-60.6-139.9-121.2-210.1-181.5
	c-17.9-15.4-18.1-14.9-37.6,1.6c-63.9,54.1-127.7,108.1-191.8,161.9c-4.6,3.8-10.8,5.8-18.7,9.8c92,74.6,177.3,143.8,264.1,214.1
	C2374.5,2665.3,2443.4,2603.9,2514.8,2540.3z M1829.5,3192.7c85.1,69.1,167,135.6,249.7,202.7c78.3-57.6,148.4-120,219.1-184.4
	c-83.2-69.1-164.3-136.5-247.5-205.6C1978,3067,1905.5,3128.3,1829.5,3192.7z M2329.9,3185.2c71.9-61.6,141-125.9,208.6-195.1
	c-10.6-9.7-19-17.5-27.6-25c-61.4-54.1-122.9-108.1-184.3-162.2c-21.9-19.3-22.6-19.9-44-1.2c-61,53.3-121.6,106.9-182.1,160.6
	c-5,4.4-8.8,10.1-14.2,16.4C2167.9,3047.9,2247.8,3115.6,2329.9,3185.2z M2015.1,2976.4c-83.5-69.9-164.4-137.5-247.3-206.8
	c-68.1,62.7-134.4,123.9-203.7,187.8c78.1,69.2,154.3,136.8,233,206.6C1871.2,3102.8,1943.4,3041.9,2015.1,2976.4z M1767.7,3190.2
	c-78.6-69.7-154.8-137.2-232.6-206.1c-69.7,64-136.5,129.7-202.5,199.6c70.1,70,142.3,133.9,221.9,194.9
	C1625.1,3316.2,1695.4,3254.1,1767.7,3190.2z M1584.7,3397.8c2.6,4.7,3.1,6.7,4.3,7.6c76.9,57.6,153.8,115.4,231.2,172.3
	c5,3.7,15.1,3,21.8,0.9c7.3-2.3,13.6-8.2,19.9-13.2c59.7-46.5,119.3-93.1,178.9-139.8c2.4-1.9,3.6-5.4,6.2-9.4
	c-26-20.7-51.2-40.3-75.9-60.5c-51.6-42.4-103.2-84.8-154.2-127.9c-10.9-9.3-19.5-10.8-30.1-1.5c-5.4,4.7-11,9-16.5,13.6
	c-52.5,44.1-105,88.2-157.4,132.4C1603.5,3380.3,1594.5,3388.9,1584.7,3397.8z M2547.3,2566.4c-3.8,1.9-6.6,2.6-8.5,4.3
	c-66.5,61.7-132.8,123.5-199.2,185.4c-0.5,0.5-0.5,1.7-0.5,2.5c-0.1,0.9,0.1,1.7,0.1,1.4c76.3,66.4,152,132.3,230.3,200.3
	c66.8-57.4,127-123.7,192.9-187.9C2691.8,2699.5,2620.4,2631.9,2547.3,2566.4z M2014.1,2492.5c75.7-64.8,150.1-128.4,225-192.6
	c-5-5.2-7.1-8.1-9.9-10.2c-65.5-51.9-131.2-103.4-196.5-155.6c-11.5-9.2-19.2-4.3-27.9,2.9c-66.8,54.5-133.6,109-200.6,163.3
	c-4.7,3.8-10.6,6.3-18.2,10.7C1864.6,2373.4,1937.4,2431.4,2014.1,2492.5z M2724.5,2333.8c-1.8-3.6-2.5-6.5-4.3-8.2
	c-66.7-62.9-133.3-125.8-200.4-188.3c-14.3-13.3-17.6-12.3-33.7,1.6c-53.2,45.9-106.5,91.8-159.6,137.8
	c-8.4,7.2-16.3,15.1-23.9,22.2c82.1,71,161.3,139.5,240.7,208.2C2563.3,2497.4,2697.1,2369.8,2724.5,2333.8z M1549.3,2526.4
	c6,6.5,8.1,9.3,10.7,11.6c64.3,54.9,128.7,109.7,193,164.5c15.5,13.2,16.9,12.9,33-1.9c62.3-57.1,124.7-114.2,187-171.3
	c2.5-2.3,4.5-5.2,9.2-10.8c-73.9-59.4-147-118.2-221.7-178.2C1688.5,2402.3,1618.3,2462,1549.3,2526.4z M2569.1,3016.9
	c-70.3,64.9-138.5,128-209.7,193.8c5.9,4,9.9,6.1,13.2,8.9c60,51.5,120,103.2,179.9,154.8c17,14.7,17.8,15.1,35.4,0.1
	c56-48,111.7-96.4,167.4-144.7c5.2-4.5,9.5-9.9,16.3-17.1C2706.7,3144.8,2639,3082.3,2569.1,3016.9z M1740.3,2742.1
	c-75.3-64.4-146.7-125.5-220.6-188.6c-58.3,63.6-121.2,119.5-175.5,183.1c37,46.3,173.7,181.7,196.5,194.2
	C1605.9,2869.1,1671.6,2807,1740.3,2742.1z M1988.7,2105.5c-2.1-3.7-2.6-5.7-3.9-6.6c-62.6-45.5-125.4-90.8-187.8-136.5
	c-13.4-9.8-23.9-7.2-35.7,2.5c-57.7,47.5-115.8,94.6-173.5,142c-7.8,6.4-14.6,14.2-23.4,22.9c67.4,55.3,131.9,108.1,197.1,161.7
	C1838,2228.8,1912.8,2167.6,1988.7,2105.5z M2539,3412.1c-10.6-9.8-17.3-16.6-24.7-22.8c-53.9-45.2-107.9-90.2-161.9-135.3
	c-22.1-18.5-21.9-18.2-44.1,0.1c-62.4,51.6-125,103-187.5,154.6c-2.5,2.1-3.9,5.5-5.8,8.2c2,3.2,2.9,6,4.8,7.5
	c59.5,46.6,119,93.4,178.9,139.5c19.9,15.3,20.7,14.6,41.4-0.8c49.3-36.6,98.5-73.4,147.5-110.3
	C2504,3440.6,2519.6,3427.6,2539,3412.1z M2978.7,3019.2c-11.2-13.8-19-23.4-26.8-33c-13.4-16.5-26.4-33.4-40.3-49.4
	c-10.9-12.5-15.5-32.5-37.2-33.3c-1.1,0-2.2-3.6-3.1-5.6c-19.8-39.7-52.8-67.7-84.2-99.7c-63.5,64.8-125.2,127.9-187.5,191.5
	c66.7,65.6,132,129.9,199.7,196.6C2858,3131.7,2917.4,3076.4,2978.7,3019.2z M2143.6,985.9c-4.4,4.7-5.9,5.8-6.8,7.3
	c-65.1,115.3-112.4,238-152.7,363.7c-5.3,16.6-4,19.3,11.6,27.2c23,11.6,46.6,22.1,68.9,34.9c17.7,10.2,34,22.8,50.4,35.1
	c10.1,7.5,19.1,7.3,29.4,0.9c33.9-21.3,67.9-42.4,102.1-63.2c9.8-5.9,13.8-13.1,10.4-24.3c-1.8-5.9-2.2-12.3-3.8-18.3
	c-24.2-87.5-47.9-175.1-73.2-262.2C2170.2,1053.8,2156.6,1021.9,2143.6,985.9z M2273.4,2274c65.5-57.3,133.6-111.8,200.1-172.2
	c-68.9-58.8-134.8-114.8-205.5-165.9c-73.4,55.7-144.6,109.6-218.1,165.4C2125,2159.3,2197.7,2215.5,2273.4,2274z M2785.7,2741.3
	c5-3.9,11.5-8.3,17.2-13.6c50.9-46.9,87.6-106.6,137.7-154.3c1.7-1.7,2.2-4.7,4.6-10.2c-61.2-66.8-123.1-134.4-187-204.3
	c-63.1,61.2-123.3,119.7-183.3,177.9C2645.7,2605.4,2714.9,2672.6,2785.7,2741.3z M2754.2,2306.1c46.2-33.8,144-138.7,153.5-165
	c-26.3-28.3-52.8-58.1-80.6-86.8c-32.8-33.8-66.4-66.9-100.1-99.8c-14.8-14.5-17.8-14.2-33.4-1.2c-2.7,2.3-5.2,4.8-7.8,7.2
	c-45.4,41.3-90.8,82.5-136.1,123.9c-5.7,5.2-10.6,11.2-16.1,17.1C2607.9,2170.5,2680.7,2238,2754.2,2306.1z M1522.3,2507.8
	c67.1-66.6,140.3-123.9,208.6-190.8c-66.1-55.6-129.6-109-192.3-161.6c-46.8,30.3-176.4,158.7-191.5,189.7
	C1403.8,2397.7,1461,2450.8,1522.3,2507.8z M1812.2,1926.9c7.6,6.4,12,10.6,16.9,14.1c55.6,39.8,111.4,79.4,167,119.4
	c29.1,21,28.6,20.9,57.7-1.3c59.3-45.3,119-90.1,178.4-135.3c3.2-2.4,5.3-6.2,10.2-12.1c-70-48.6-138.2-96-207.6-144.2
	C1959.5,1821.4,1886.9,1873.4,1812.2,1926.9z M2737.3,1050.1c-0.4-1.4-0.7-2.9-1.1-4.3c-13.7,0-27.6-1.2-41.2,0.2
	c-56,5.8-109.9,20.4-163.3,38.2c-92.6,30.9-173.1,82.6-249.9,141.2c-9.5,7.2-13.6,15-10.3,27.4c8.4,31.8,15.6,64,23.6,95.9
	c1.4,5.6,4.2,10.9,7,17.8c22.9-10.2,43.3-21.1,64.9-28.5c45.3-15.7,91.1-30.2,137-44c16.4-4.9,28.2-12.2,35.2-28.9
	c6.4-15.5,15.7-30,25.3-43.9c42.3-61.5,96.5-111.4,154.7-157.4C2725.1,1059.1,2731.3,1054.6,2737.3,1050.1z M2289.3,3596.6
	c-71.9-53.6-139.3-103.9-208.7-155.6c-72.7,54.7-144.9,109-218.7,164.6c6.4,4.3,9.9,7,13.6,9.2c61.7,37.3,123.5,74.3,184.9,112
	c10.4,6.4,18.3,3.8,27.1-1.7c19.7-12.2,39.5-24.1,59-36.6C2192.2,3659.4,2237.6,3630,2289.3,3596.6z M2755.7,3583.4
	c-68.2-45.2-125.2-98.7-188.3-148c-72.5,53.6-144.3,106.7-218.7,161.8c9.9,8.3,16.2,14.3,23.1,19.3c46,33.2,92.3,66.2,138.3,99.4
	c10.8,7.8,21.8,5.8,33,1.7c45.3-16.3,89.4-35.4,129.7-61.9C2702.4,3636.3,2730.5,3614.8,2755.7,3583.4z M1752.8,1931.3
	c-5.3-4.7-8.2-7.9-11.7-10.4c-54.7-38-109.6-75.7-164-114.2c-11.9-8.4-20.7-5.9-31.1,1.8c-27.8,20.7-55,42.3-84.2,60.8
	c-35.6,22.7-57.5,54.7-71.7,93.2c-7.8,21.1-7.7,21.3,9.8,35.5c38.7,31.3,77.6,62.2,116.2,93.5c23.5,19.1,23.9,18.8,46.6-0.4
	c56.3-47.6,113.1-94.6,169.6-141.9C1738.9,1943.7,1745.2,1938,1752.8,1931.3z M2296.6,1913.6c11.7,9.2,19.4,15.1,27,21.2
	c52.6,42.4,105.3,84.6,157.6,127.4c20,16.4,19.7,17.3,39.3,0.4c51.2-44,102.3-88.3,153.3-132.6c3.2-2.8,5.6-6.4,10.7-12.3
	c-60.1-54-121.5-104.3-184.9-154.7C2431.9,1813.2,2365.8,1862.3,2296.6,1913.6z M2259.4,1196.6c7.8-5.2,13.2-8.1,17.8-11.9
	c64.2-52.5,130.2-101.9,211.9-124.5c0.9-0.2,1.7-0.6,2.5-0.8c13.7-4.3,21-13.5,26.8-27c11.9-27.7,25-55.1,40.6-80.8
	c30.2-49.6,69.2-92.5,110.3-133.4c6.5-6.5,12.6-13.5,19.7-21.2c-4.9-2.1-6.7-3.6-8-3.3c-58.4,12.6-115.6,29.2-167.3,60.2
	c-58.1,34.8-113.5,73.8-163.5,119.5c-38.7,35.3-74.6,73.8-111.6,111c-10.2,10.2-13.7,21.3-7.4,36.2
	C2241.4,1144.1,2249.2,1168.7,2259.4,1196.6z M1939.8,203.2c-2.2,0.5-4.3,1.1-6.5,1.6c-1.6,20.8-3.5,41.7-4.8,62.5
	c-4.6,72.8-8.2,145.6-13.8,218.3c-5.6,73.6-13.4,147-19.6,220.6c-0.8,9.4-1.5,21.8,3.5,28c14.6,18,32.2,33.7,49.9,51.6
	c21-66.4,40.2-129.1,60.7-191.4c20.6-62.6,49.1-121.7,85.5-178.9C2046.2,342.6,2006.4,263,1939.8,203.2z M1943.7,1361.7
	c11.7-35.9,22.5-68.7,33.1-101.5c7.9-24.6,8.4-25.7-12.8-39.2c-42.7-27.2-84.7-56.1-129.7-78.9c-84.6-42.7-174.1-66.9-270.3-52.2
	c-5.4,0.8-10.7,2.6-16.8,4.1c2.1,3.7,2.6,5.7,3.9,6.6c64.8,46.7,121.1,101.4,163.8,169.5c5.1,8.2,15.5,15.4,24.9,18.2
	C1807.7,1308.9,1875.8,1328.7,1943.7,1361.7z M2472.6,1743.6c-7.6-6-10.9-8.9-14.5-11.3c-46.8-32.3-94.7-63.1-140.1-97.3
	c-22.6-17-38.8-14.8-61.5-0.5c-54.8,34.7-111.5,66.3-167.4,99.2c-7.1,4.2-14.2,8.5-23,13.8c5.7,5,8.6,8.3,12.1,10.7
	c58.5,40.3,117.2,80.4,175.7,120.8c19.6,13.5,19.7,13.6,38.9-0.7c43.5-32.3,87.3-64.4,130.8-96.7
	C2439.2,1769.9,2454.3,1757.8,2472.6,1743.6z M2598.6,543.7c-14.8,4.4-24.8,7-34.4,10.4c-40.5,14.3-77.1,35.7-113.6,58.3
	c-59.7,36.9-110.7,83.3-159.6,132.8c-9.5,9.6-10.5,18.3-6.5,31c13,41.6,24.3,83.6,36.4,125.5c3.1,10.9,6.6,21.7,10.3,33.6
	c4.8-2.5,8.3-3.7,10.9-5.9c47.3-39.2,95.2-77.5,149.3-107.4c7.1-3.9,13.1-14.8,14.6-23.3c13.3-77,39.7-149.4,75.2-218.7
	C2586.4,570,2591.1,559.5,2598.6,543.7z M2003.2,1751.3c-55.4-36.3-106.5-70.1-158.2-102.9c-5.4-3.5-16-3.3-22.2-0.5
	c-75,35.1-148.4,73.3-217.5,119.2c-4.7,3.1-8.4,7.7-13.8,12.7c61.3,42.3,120.6,83,179.5,124.4c11.9,8.3,19.3,2.7,28.3-3.9
	c58.9-43,118.1-85.8,177.1-128.6C1984.2,1765.9,1991.7,1760,2003.2,1751.3z M1902,1026.5c2.7-3.3,4.4-4.5,4.6-5.9
	c9.8-55.9,19-112,29.6-167.7c3-15.7,0.3-27.7-10.4-38.9c-73.3-76.9-155.5-140.6-258.2-173.9c-7.2-2.3-14.9-3.1-22.5-4.6
	c-0.6,4.2-1.5,6.1-0.9,7.4c2.9,6.5,6,12.9,9.3,19.1c42.6,79.6,76.6,162.3,90.2,252.2c2.5,16.2,12.1,24.1,25.4,31.3
	c28.1,15.2,55.6,31.3,83,47.8C1869.3,1003.7,1885.5,1015.5,1902,1026.5z M2773.5,3562.7c3-1.6,6.9-2.5,9.1-4.9
	c53-60.3,91-129.4,117.8-204.7c2.1-6-0.2-16.9-4.6-21.5c-31.8-33.2-64.8-65.3-97.2-97.7c-67.7,59.8-134,118.3-201.5,177.8
	C2657.7,3463.7,2715.3,3512.9,2773.5,3562.7z M2342.6,287.9c-34,20.8-59.5,41.2-80.8,66.2c-30.5,35.9-59.6,73-89.8,109.2
	c-10.6,12.7-11.3,23.7-2.9,38.4c33.2,57.9,62.2,117.8,83.3,181.4c3.4,10.3,5.4,22.3,17.2,30c6.5-5.4,12.7-10.3,18.5-15.6
	c17.1-15.6,33-32.6,51.2-46.7c16.2-12.5,20.7-26.4,18-46.2c-12.9-93.6-13.8-187.9-14.6-282.2
	C2342.5,312.9,2342.6,303.2,2342.6,287.9z M1507.8,2959.9c-6.9-7.6-12.2-13.6-17.6-19.3c-45.1-48-90.3-95.9-135.5-143.9
	c-7.9-8.4-15.5-17.2-23.7-25.4c-5.5-5.5-12.3-8-19.1-2.2c-20.3,17.7-39.2,34.8-35.3,67c8.9,73.3,14.6,147.1,22.9,220.5
	c3.5,30.5,10.4,60.6,15.8,91c2.5,1.3,4.9,2.6,7.4,3.8C1381.7,3085.4,1443.3,3022.3,1507.8,2959.9z M1326.4,2709.8
	c52.9-55.9,110.7-116.9,169.3-178.8c-58.9-56.8-116.7-112.7-174.5-168.4c-22.9,16.1-34.5,33.6-35.3,59.3
	c-1.3,40.9-5.9,81.6-7.8,122.5c-1.7,35.5-1.7,71.1-2.1,106.7c-0.1,10.7,0.2,21.5,10.3,28.8
	C1298.6,2688.9,1310.7,2698.1,1326.4,2709.8z M1459.1,3496.3c55.6,74.4,118.4,135.6,197.8,179.7c22.7,12.7,37.9,11.1,57-4.8
	c21.1-17.6,44.9-31.9,67.4-47.8c6.8-4.8,13-10.3,20.8-16.6c-84.1-62.5-165.2-122.7-248.3-184.5
	C1522.5,3446.7,1491.3,3471.1,1459.1,3496.3z M2255.1,1602.7c-3.1-4.8-3.7-7-5.1-7.6c-38.4-18.7-76.8-37.5-115.5-55.6
	c-16.9-7.9-34.6-6.8-52.2-1.4c-64.8,19.9-127.9,43.8-188.6,74.2c-9.3,4.7-18.2,10.2-29,16.2c48.5,29.6,95.2,56.9,140.5,86.2
	c20.6,13.4,36.8,13.8,58.1,0.5c52.8-33,107.2-63.4,161-94.8C2234.2,1614.6,2244.1,1609,2255.1,1602.7z M1496,900.4
	c-0.7,1.7-1.3,3.5-2,5.2c4.6,3.7,9.2,7.4,13.8,11c45.3,35.9,92.4,69.7,127.1,117c9.7,13.2,22.1,18.7,38,21.4
	c106.2,17.7,203.4,56.8,288.9,123.2c5.6,4.3,11.7,8.1,17.8,11.7c8.4,5,16.4,6.3,23.4-2.9c7-9.3,7.3-17.8-1.1-26.1
	c-7.6-7.5-15.1-15-22.8-22.4c-58.1-55.8-124.4-100.2-193.1-141.9c-57.5-34.9-117.4-62.9-182.7-79.2
	C1567.9,908.5,1532.6,900.3,1496,900.4z M2985.6,2975.4c1.6-9.3,2.6-14.4,3.4-19.7c13.5-97.2,9.6-195,11.7-292.6
	c0.6-29.2-13.8-48-34.9-63.9c-33,18.3-53.4,50.8-55.4,86.4c-1.3-4.9-2.9-10.5-5.2-19.2c-32.8,36.9-63.6,71.5-93.9,105.6
	C2869.2,2839.6,2926,2905.9,2985.6,2975.4z M2781.7,2329.4c61.5,71.7,120.6,140.6,179.3,208.9c28.3-18.3,38.5-40.3,28.5-70.1
	c-1.9-5.8-1.5-12.3-2.5-18.5c-12.5-77.3-24.6-154.7-37.9-231.9c-2.4-14.1-3.1-30.2-17.7-42.1
	C2875.1,2222.3,2836.2,2284.4,2781.7,2329.4z M1551,1323.8c7.2,2.9,14.4,5.8,21.6,8.7c78.5,32,148.5,76.9,204.2,141.5
	c12.3,14.2,23.5,15.7,39.3,11.4c70.2-19.1,142-21.8,214.2-19c5.5,0.2,11.1,0,22.5,0c-8.7-6-12.1-8.7-15.7-10.8
	c-57.5-34-116.8-64.2-179.5-87.5c-52.5-19.5-104.2-41.5-160.1-49.7C1649.3,1311.2,1600.9,1307,1551,1323.8z M2716.8,1329.3
	c-6.1-2-9.1-3-12.1-3.9c-57.4-17.3-115.1-9.5-171.6,2.3c-104.2,21.9-201.1,64.2-295.5,112.5c-10.6,5.4-20.2,12.8-31.6,20
	c4.7,3,6.1,4.5,7.4,4.5c12.4-0.3,24.9-1.1,37.3-1.3c69.3-1.1,138.7-3.3,206,18c12.6,4,21.2,1.1,30.4-8.9
	c60-65.5,131.1-113.8,217.7-137.4C2708,1334.3,2710.9,1332.3,2716.8,1329.3z M2802,1816.9c-2.2-5-3.4-9.3-5.6-12.9
	c-34.2-55.9-78.9-102.4-128.7-144.5c-10.7-9.1-20.3-7.3-31,0.7c-32.7,24.4-65.9,48.2-98.7,72.4c-4.5,3.3-8,8-12.1,12.2
	c61.7,50.9,121.7,100.4,183.4,151.2C2740,1869.9,2770.7,1843.6,2802,1816.9z M1373.7,2013.8c-4,8.2-5.9,11.2-6.9,14.5
	c-26.5,81.2-48,163.8-62,248.1c-1.3,7.8-2,16.2-0.6,23.8c2.8,15.7,14.4,20.5,27.3,11.3c7.9-5.6,14.4-13.2,21.2-20.1
	c48.1-48.7,96.1-97.5,144-146.3c4.2-4.2,8.1-8.6,14.2-15.1C1465.2,2091.2,1420.8,2053.6,1373.7,2013.8z M2478.8,3731.7
	c-2.5-2.8-4.3-5.7-6.9-7.6c-45.9-32.1-92.1-63.6-137.5-96.3c-11.9-8.6-21.4-10.7-33.4-1.6c-8.5,6.4-17.9,11.5-27,17
	c-47.8,29.2-95.8,58.1-143.4,87.6c-7.7,4.7-13.9,11.8-22.4,19.1C2161.2,3769.6,2427.4,3755.7,2478.8,3731.7z M2630.2,1627.7
	c-61.6-34.2-118.3-62.9-181.6-76.1c-17.1-3.6-33.7-0.5-49.1,7.5c-21.3,11-42.5,22.2-63.4,33.9c-4.9,2.7-8.6,7.6-12.7,11.3
	c55.6,38.2,109.8,75.1,163.5,112.8c10.7,7.5,17.7,3.3,26.1-2.6c26.8-18.9,54.1-37.4,80.7-56.6
	C2605,1649.8,2615.2,1640.2,2630.2,1627.7z M2035.9,3752.9c0.3-2.1,0.6-4.1,0.9-6.2c-6.9-4.8-13.6-9.9-20.8-14.2
	c-57.3-34-114.8-67.7-171.9-102c-9.1-5.5-16.1-5.1-24.4,0.5c-25,16.9-50.4,33.3-75.4,50.3c-8.5,5.8-15.9,13.1-26,21.5
	c8.9,4.4,14,7.7,19.6,9.8c53.5,20,108.4,34.3,165.4,39.7c35.3,3.3,70.8,5.1,106.3,6.4C2018.3,3759,2027.1,3755,2035.9,3752.9z
	 M2918.5,2108c-7.2-68.4-38.2-128.7-60.1-191.9c-8.9-25.7-22-50.1-41-75.3c-29.2,26.3-56.5,50.9-83.9,75.5
	C2796.7,1981.7,2857.6,2044.9,2918.5,2108z M1569,1761.3c66.8-59.8,150.3-88.7,228.9-136.5c-25.6-13.5-46.2-25-67.5-35
	c-4.8-2.2-12.4-0.4-18,1.5c-10.9,3.8-21.6,8.2-31.8,13.7c-54.6,29.4-100.7,69.7-145.1,112.2c-4.2,4-6.5,10-11.8,18.3
	C1538.6,1744,1552,1751.6,1569,1761.3z M2825.9,3211.6c27.6,36.8,58.2,67.4,93.2,100.1c28.2-82.3,46.3-161.8,55.2-244.4
	C2921.4,3112.2,2874.5,3162,2825.9,3211.6z M1442.4,3472.6c28.2-24.5,54.5-47.5,81.1-70.6c-57.5-53-112.8-104-168.2-155
	c-1.9-1.8-4.2-3.3-6.4-4.7c-0.6-0.4-1.7-0.1-2.5,0.2c-0.7,0.2-1.3,0.9-3.8,2.7C1363.7,3324.4,1393.6,3400.4,1442.4,3472.6z
	 M2000.2,1532.6c-85.2,1.3-163.6,11.4-243.5,42.3c15.8,9,28.5,15.1,40,22.9c18,12.2,35,12.2,54.8,2.8
	c42.5-20.2,86.1-38.1,129.2-57.1C1986,1541.1,1990.9,1537.8,2000.2,1532.6z M2368.6,1540.9c-58.9-13-115.7-12-177.4-5.1
	c31.8,16.3,58.9,30.6,86.5,43.9c5,2.4,13,3.3,17.7,0.9C2320.1,1568.1,2344.2,1554.2,2368.6,1540.9z M1456,1823.4
	c28.4-9.9,53.7-24,75.4-44c-22.2-25.8-29.2-25.9-45.3-2.3C1475.8,1792.4,1466.1,1808,1456,1823.4z M1274.7,2714.8
	c0.9,16.9,1.5,28.5,2.2,41.2C1304.7,2742.4,1305,2735.8,1274.7,2714.8z M2996.9,2567.1c-2.7-2.9-4.9-5.2-7-7.5
	c-1.8,1.8-5.3,3.9-5,5.2c0.7,2.9,3.3,5.4,5.1,8C2991.9,2571.3,2993.8,2569.7,2996.9,2567.1z"/>
<path d="M1178.7,2857.9c-8.1-159.2-11.8-319,11.4-478.1C1172.3,2538.7,1182.3,2698.1,1178.7,2857.9z"/>
<path d="M3091.9,2942.1c3.1-72.8,7.6-145.5,8.7-218.4c0.8-54.1-3.1-108.3-4.7-162.4c-0.5-15.9-0.1-31.8,2.4-47.8
	c1.7,36.1,4.9,72.3,4.7,108.4c-0.4,97.8-2.1,195.5-3.8,293.3C3099,2924.2,3094.4,2933.1,3091.9,2942.1L3091.9,2942.1z"/>
<path d="M2426.5,539.8c-18.8-100.2-14-201.5-16.6-302.4c2.1,50.5,3.8,101.1,6.6,151.6C2419.2,439.3,2423.1,489.5,2426.5,539.8z"/>
<path d="M2771.9,725c-60.1-9.1-117.7,11.1-176.8,14.5C2653.4,725.8,2711.5,711.9,2771.9,725z"/>
<path d="M1979.4,3856.5c2.6-0.2,5.3-0.5,7.9-0.5c75.6,0,151.2,0,226.9,2.1c-78,0-156,0-234.1,0
	C1979.9,3857.7,1979.6,3857.1,1979.4,3856.5z"/>
<path d="M3129.2,2943.8c-1,61.1-7.8,121.5-23.7,180.8C3113.4,3064.4,3121.3,3004.1,3129.2,2943.8z"/>
<path d="M2819.3,979.2c-50.5,0-101.4,0-152.4,0C2718.5,970.4,2770.1,962.2,2819.3,979.2z"/>
<path d="M2642.4,1245.7c41.9-0.7,103.9,17.1,130.7,34.8C2730.3,1269.1,2686.3,1257.4,2642.4,1245.7z"/>
<path d="M1143.8,2685.7c0-60.3,0-120.6,0-180.8c1,0,2,0,2.9,0c0,60.4,0,120.8,0,181.2C1145.8,2686,1144.8,2685.8,1143.8,2685.7z"/>
<path d="M1842.9,463.7c2.1-37.6,4.3-75.1,6.4-112.7c1.7,0.1,3.4,0.2,5.1,0.3c-2.4,37.5-4.8,75.1-7.1,112.6
	C1845.9,463.8,1844.4,463.8,1842.9,463.7z"/>
<path d="M1856.1,314.9c0-18.1-0.7-36.3,0.2-54.4c1-18.5,3.6-36.9,6.3-55.2c0,18.1,0.7,36.2-0.2,54.2c-0.9,18.5-3.3,37-5.1,55.4
	C1857,314.9,1856.6,314.9,1856.1,314.9z"/>
<path d="M2619.9,463.2c-5.4,3.3-10.4,7.7-16.3,9.6c-28.1,9.3-56.4,18-84.7,26.9l0.6,0.5c5.8-4.4,11.1-10.7,17.6-12.8
	c27.4-8.8,55.2-16.3,82.9-24.2L2619.9,463.2z"/>
<path d="M2400.6,3846.9c-17.7,11.7-38.6,9.1-58,11.9c-17.2,2.5-35.1,0.5-55.8,0.5C2326.9,3855,2363.8,3850.9,2400.6,3846.9
	L2400.6,3846.9z"/>
<path d="M1186.4,2998.2c-2.3-33.2-4.6-66.5-6.8-99.7c1.7-0.1,3.4-0.2,5-0.3c1.9,33.3,3.8,66.5,5.7,99.8
	C1189,2998,1187.7,2998.1,1186.4,2998.2z"/>
<path d="M1832.9,589.1c2.5-27.8,5.1-55.6,7.6-83.5c0.9,0,1.9,0.1,2.8,0.1c-1.8,27.9-3.6,55.8-5.4,83.7
	C1836.2,589.3,1834.6,589.2,1832.9,589.1z"/>
<path d="M3091.9,2942c-0.4,29.9-0.8,59.7-1.3,89.6c-2.4-0.1-4.7-0.2-7.1-0.3C3086.3,3001.6,3089.1,2971.9,3091.9,2942
	C3091.9,2942.1,3091.9,2942,3091.9,2942z"/>
<path d="M2207.3,310.8c15.1-17.9,30.1-35.7,45.2-53.6c-5.7,18.7-24.9,38.6-45.8,53L2207.3,310.8z"/>
<path d="M3008.6,3367.7c3.8-22.1,9.2-43.7,22.8-62.2c0,0-0.7-0.6-0.7-0.6c-7.6,20.8-15.2,41.5-22.8,62.3L3008.6,3367.7z"/>
<path d="M2439.8,426c0,21.9,0,43.8,0,65.7c-0.2,0-0.4,0-0.6,0c0-21.7,0-43.5,0-65.2C2439.4,426.3,2439.6,426.1,2439.8,426z"/>
<path d="M1494.1,1620.5c-11.4,11.9-22.9,23.7-34.3,35.6c-0.8-0.9-1.6-1.7-2.5-2.6c11.8-11.5,23.6-22.9,35.4-34.4
	C1493.2,1619.6,1493.6,1620,1494.1,1620.5z"/>
<path d="M1534.7,843.1c-13.6-1.7-27.2-4-40.8-5c-11.1-0.8-22.4-0.2-33.6-1.9c16.6,0,33.3-0.7,49.9,0.3c8.2,0.5,16.2,4.4,24.3,6.7
	C1534.5,843.2,1534.7,843.1,1534.7,843.1z"/>
<path d="M1540.7,1246.8c17.9-3.5,35.9-7,53.8-10.4c0.3,1.1,0.6,2.2,0.8,3.3c-17.9,4.5-35.9,8.9-53.8,13.4
	C1541.3,1251,1541,1248.9,1540.7,1246.8z"/>
<path d="M1202.3,2299.5c-2.3,17.8-4.6,35.5-7,53.3c-1.6-0.2-3.3-0.4-4.9-0.7c2.5-17.7,5-35.5,7.6-53.2
	C1199.4,2299.1,1200.8,2299.3,1202.3,2299.5z"/>
<path d="M3080.6,2394.1c-2.6-19.7-5.1-39.4-7.7-59.1c1.5-0.1,3-0.3,4.5-0.4c1.9,19.8,3.8,39.5,5.7,59.3
	C3082.3,2394,3081.5,2394.1,3080.6,2394.1z"/>
<path d="M3070.7,3114.2c2.9-19,5.8-38,8.6-57c3.4,20,5,39.8-8.9,56.5L3070.7,3114.2z"/>
<path d="M1615.3,3765.9c13.4,6.9,26.8,13.8,40.1,20.8c-0.6,1.1-1.1,2.3-1.7,3.4c-13.2-6.9-26.3-13.7-39.4-20.7
	C1614.2,3769.3,1615,3767.2,1615.3,3765.9z"/>
<path d="M1195,3036.5c2.2,16.1,4.3,32.2,6.5,48.4c-1.3,0.2-2.6,0.4-4,0.5c-2.2-16.1-4.5-32.2-6.7-48.3
	C1192.2,3036.8,1193.6,3036.6,1195,3036.5z"/>
<path d="M3070.5,3113.7c-0.3,18.1-0.6,36.2-0.9,54.3c-2.5-0.1-4.9-0.3-7.4-0.4c-0.9-18.1,6.4-35.4,8.6-53.3
	C3070.7,3114.2,3070.5,3113.7,3070.5,3113.7z"/>
<path d="M1212.2,2234.9c-2.1,12.5-4.1,25-6.2,37.4c-1.4-0.2-2.8-0.4-4.2-0.6c2-12.5,4-25,5.9-37.5
	C1209.3,2234.4,1210.8,2234.7,1212.2,2234.9z"/>
<path d="M3058.8,2251.3c-2.3-11.5-4.6-23-6.9-34.5c1.3-0.2,2.5-0.5,3.8-0.7c2.2,11.3,4.3,22.6,6.5,33.9
	C3061,2250.5,3059.9,2250.9,3058.8,2251.3z"/>
<path d="M1579.7,842.2c14.2,3.5,28.5,7.1,42.7,10.6c-15.3,0.6-31.1,3.1-42.4-11L1579.7,842.2z"/>
<path d="M2772.4,1613c5.8,6.6,11.7,13.1,17.3,19.5c-6.3-5.9-12.9-12-19.5-18.2C2770.9,1613.8,2771.7,1613.4,2772.4,1613z"/>
<path d="M1443.4,3632.1c6.5,5.9,13.1,11.9,19.6,17.8c-0.7,0.7-1.4,1.4-2.1,2.1c-6.4-6-12.9-12.1-19.3-18.1
	C1442.2,3633.3,1442.8,3632.7,1443.4,3632.1z"/>
<path d="M2653.1,1524.7c8,4.7,16,9.5,24,14.2c-0.8,1.4-1.6,2.9-2.4,4.3c-8-4.7-16-9.5-24-14.2
	C2651.5,1527.5,2652.3,1526.1,2653.1,1524.7z"/>
<path d="M2519,499.7c-12.3,4.5-24.6,9-36.9,13.6c11.3-7.8,21.9-17.9,37.3-13.1C2519.6,500.2,2519,499.7,2519,499.7z"/>
<path d="M1223.3,2182.5c-2.6,10.4-4.9,19.4-7.1,28.3c-1.3-0.3-2.5-0.6-3.8-1c2.3-8.7,4.5-17.5,7-26.2
	C1219.5,2183.2,1220.9,2183.1,1223.3,2182.5z"/>
<path d="M1578.7,1404.2c8.1,3.8,16.1,7.7,24.2,11.5c-0.7,1.4-1.3,2.8-2,4.3c-8-4.1-15.9-8.2-23.9-12.2
	C1577.6,1406.5,1578.2,1405.4,1578.7,1404.2z"/>
<path d="M3093.8,3171.9c2.5-8.5,4.9-17.1,7.4-25.6c1.2,0.3,2.4,0.6,3.6,0.9c-2,9-4,17.9-5.9,26.9
	C3097.2,3173.4,3095.5,3172.7,3093.8,3171.9z"/>
<path d="M3037.4,2150.3c-2.5-9.8-5.1-19.6-7.6-29.4c1.2-0.3,2.5-0.7,3.7-1c1.4,5,3.1,9.9,4.2,14.9c1.1,5,1.5,10.1,2.2,15.2
	C3039,2150.1,3038.2,2150.2,3037.4,2150.3z"/>
<path d="M3050.2,3222.2c2.2-11.8,4.5-23.7,6.7-35.5c4.6,13.5,5.2,26-7.2,34.8C3049.7,3221.6,3050.2,3222.2,3050.2,3222.2z"/>
<path d="M2518.2,3831.5c-9.7,2.2-19.5,4.4-29.2,6.6c-0.2-1.1-0.5-2.1-0.7-3.2c9.7-2.3,19.4-4.6,29.1-7
	C2517.7,3829.2,2517.9,3830.4,2518.2,3831.5z"/>
<path d="M3037.6,3262c4.2-13.2,8.5-26.4,12.6-39.7c-0.1-0.1-0.5-0.7-0.6-0.7C3050.3,3236.3,3055.8,3252.6,3037.6,3262
	C3037.5,3261.9,3037.6,3262,3037.6,3262z"/>
<path d="M1223.2,2154.8c2.4-8.3,4.6-15.8,6.8-23.4c1.1,0.3,2.3,0.5,3.4,0.8c-1.9,7.5-3.8,15.1-5.8,22.6
	C1227.6,2155.1,1225.6,2154.8,1223.2,2154.8z"/>
<path d="M2292.2,230.7c-6.5,6.5-12.9,12.9-19.4,19.4c-1.1-1.3-2.1-2.7-3.2-4c7.7-4.9,15.5-9.8,23.2-14.7L2292.2,230.7z"/>
<path d="M1234.4,2108.2c2.3-7.1,4.6-14.3,6.9-21.4c1.1,0.3,2.3,0.7,3.4,1c-2.1,7.8-4.3,15.6-6.4,23.4
	C1237,2110.2,1235.7,2109.2,1234.4,2108.2z"/>
<path d="M3037.5,3261.9c4.7,15.4,2.7,29.7-6.8,42.9c0,0,0.7,0.6,0.7,0.6C3033.5,3291,3035.5,3276.5,3037.5,3261.9
	C3037.6,3262,3037.5,3261.9,3037.5,3261.9z"/>
<path d="M1438.9,1332.9c0-7.7,0-15.3,0-23c0.3,0,0.6,0,0.9,0c0,7.7,0,15.3,0,23C1439.6,1332.9,1439.3,1332.9,1438.9,1332.9z"/>
<path d="M2690.3,890.8c3.9-4.3,7.7-8.5,11.6-12.8c0.8,0.6,1.5,1.2,2.3,1.8c-3.4,4.3-6.7,8.6-10.1,12.9
	C2692.8,892.1,2691.6,891.5,2690.3,890.8z"/>
<path d="M1649.7,836.2c4,6.3,8,12.7,12.1,19c-1.8,0.9-3.5,1.7-5.3,2.6c-6.6-5.7-4.5-14.6-6.2-22.1L1649.7,836.2z"/>
<path d="M3085.1,2439.8c0-6.6,0-13.2,0-19.8c0.7,0,1.4-0.1,2.1-0.1c0,6.6,0,13.2,0,19.9C3086.5,2439.8,3085.8,2439.8,3085.1,2439.8z
	"/>
<path d="M1624.7,1530c-4.9,2.9-9.9,5.7-14.8,8.6c-0.6-1.1-1.2-2.2-1.8-3.3c4.9-2.9,9.9-5.8,14.8-8.6
	C1623.5,1527.8,1624.1,1528.9,1624.7,1530z"/>
<path d="M1269.1,2014.6c-3.6,6.6-7.1,13.2-12.2,22.7C1256.9,2025.1,1256.8,2016.5,1269.1,2014.6
	C1269.1,2014.7,1269.1,2014.6,1269.1,2014.6z"/>
<path d="M1280.4,1982.5c-3.8,10.7-7.5,21.4-11.3,32.1c0,0,0,0.1,0,0.1c-0.9-12.4-8-27,11.6-32
	C1280.7,1982.7,1280.4,1982.5,1280.4,1982.5z"/>
<path d="M2603.3,698.8c1.5-5.3,3-10.5,4.5-15.8c0.9,0.2,1.8,0.5,2.7,0.7c-1.4,5.3-2.8,10.6-4.3,15.8
	C2605.2,699.3,2604.3,699,2603.3,698.8z"/>
<path d="M1580.1,841.9c-15.1,0.4-30.1,0.7-45.3,1.2c-0.1,0.1-0.3,0.1-0.4,0.1c15-0.2,30-0.5,45.2-0.8
	C1579.7,842.2,1580.1,841.9,1580.1,841.9z"/>
<path d="M2630,1444c5.5-4.4,11.1-8.7,16.6-13c0.8,1.3,1.6,2.6,2.4,3.8c-6.5,2.8-13.1,5.7-19.6,8.5L2630,1444z"/>
<path d="M1869.7,147.3c-0.4,6.5-0.8,12.9-1.2,19.4c-0.6,0-1.1-0.1-1.7-0.1c0-6.5,0-12.9,0-19.4
	C1867.7,147.2,1868.7,147.3,1869.7,147.3z"/>
<path d="M1495.2,1365.2c6.7,4.2,13.4,8.3,21,13.1C1505.3,1378.7,1497.3,1376.7,1495.2,1365.2L1495.2,1365.2z"/>
<path d="M1495.2,1365.2c-9.9,4.4-19.3,5.3-29.7-4C1476.9,1362.8,1486.1,1364,1495.2,1365.2
	C1495.2,1365.2,1495.2,1365.2,1495.2,1365.2z"/>
<path d="M2400.7,3846.9c10.9-0.6,21.8-1.2,32.7-1.8c0,1.2,0,2.4,0,3.6C2422.4,3848.1,2411.6,3847.5,2400.7,3846.9
	C2400.6,3846.9,2400.7,3846.9,2400.7,3846.9z"/>
<path d="M1506.9,1260.1c-6.2,1.9-12.4,3.9-18.6,5.8c-0.3-0.9-0.5-1.8-0.8-2.8c6.2-2,12.4-4,18.5-6
	C1506.3,1258.1,1506.6,1259.1,1506.9,1260.1z"/>
<path d="M1934.3,3852.6c-5,0-10,0-15,0c0-0.3,0-0.5,0-0.8c5,0,10,0,14.9,0C1934.3,3852,1934.3,3852.3,1934.3,3852.6z"/>
<path d="M3008,3367.1c0.5,10.6,0,20.6-12,25.2l0.5,0.6c4.1-8.4,8.1-16.8,12.2-25.2C3008.6,3367.7,3008,3367.1,3008,3367.1z"/>
<path d="M2995.9,3392.3c-0.6,8-1.2,16-1.8,24.1c-2.1-0.4-4.2-0.8-6.3-1.2c2.9-7.4,5.9-14.7,8.7-22.2
	C2996.4,3392.9,2995.9,3392.3,2995.9,3392.3z"/>
<path d="M2976,3452.2c-1.9,3.8-3.8,7.7-5.7,11.5c-0.9-0.3-1.8-0.6-2.7-1c1.5-4.4,2.9-8.8,4.4-13.2
	C2973.4,3450.5,2974.7,3451.3,2976,3452.2z"/>
<path d="M1650.3,835.6c-3-6.7-6-13.4-8.9-20.2c1.8-0.5,3.7-1.1,5.5-1.6c1,7.4,1.9,14.8,2.9,22.3
	C1649.7,836.2,1650.3,835.6,1650.3,835.6z"/>
<path d="M1830.8,624.7c0,3.7,0,7.5,0,11.2c-0.8,0-1.7-0.1-2.5-0.1c0.3-3.7,0.6-7.5,0.9-11.2C1829.8,624.6,1830.3,624.7,1830.8,624.7
	z"/>
<path d="M2620.1,463.2c7.8,0,15.5,0,23.3,0c0,0.4,0,0.7,0,1.1C2635.6,463.9,2627.8,463.6,2620.1,463.2
	C2619.9,463.2,2620.1,463.2,2620.1,463.2z"/>
<path d="M2206.8,310.3c-3.1,5.5-6.2,11-9.3,16.5c-1.5-1.3-2.9-2.6-4.4-3.9c4.7-4,9.5-8,14.2-12.1
	C2207.3,310.8,2206.8,310.3,2206.8,310.3z"/>
<path d="M2052.7,225c2.5,3.2,4.9,6.4,7.4,9.7c-0.9,0.7-1.8,1.3-2.6,2c-2.5-3.2-4.9-6.5-7.4-9.7C2051,226.3,2051.9,225.7,2052.7,225z
	"/>
<path d="M2292.9,231.4c4.3-5.1,8.5-10.2,12.8-15.3c1.1,1.2,2.3,2.5,3.4,3.7c-5.6,3.6-11.2,7.3-16.8,10.9
	C2292.2,230.7,2292.9,231.4,2292.9,231.4z"/>
<path d="M2031.7,199.2c2.3,2.9,4.6,5.8,6.9,8.7c-0.8,0.6-1.5,1.3-2.3,1.9c-2.4-2.8-4.7-5.7-7.1-8.5
	C2030,200.5,2030.9,199.9,2031.7,199.2z"/>
<path d="M3091.1,2480.6c0.4-3.1,0.8-6.3,1.1-9.4C3091.9,2474.3,3091.5,2477.4,3091.1,2480.6
	C3091.1,2480.6,3091.1,2480.6,3091.1,2480.6z"/>
<path d="M2629.4,1443.4c-4.8,4.9-9.7,9.8-14.5,14.7c-1.1-1.5-2.2-3-3.3-4.4c6.1-3.2,12.3-6.4,18.4-9.6
	C2630,1444,2629.4,1443.4,2629.4,1443.4z"/>
<path d="M1541,1385.1c4.5,2.4,8.9,4.9,13.4,7.3c-0.5,1-1,1.9-1.5,2.9c-5-2.2-10-4.4-15-6.6C1538.9,1387.5,1539.9,1386.3,1541,1385.1
	z"/>
<path d="M1280.7,1982.7c0-8.9,0-17.9,0-26.8c1.7,0.1,3.5,0.2,5.2,0.3c-1.9,8.6-3.8,17.3-5.6,26.1
	C1280.4,1982.5,1280.7,1982.7,1280.7,1982.7z"/>
<path d="M2974.4,1945.4c4.3,4.1,8.5,8.2,12.8,12.3c-1,0.9-1.9,1.8-2.9,2.7C2980.9,1955.4,2977.6,1950.4,2974.4,1945.4L2974.4,1945.4
	z"/>
<path d="M2974.3,1945.4c-2-8-4.1-15.9-6.1-23.9c1.3-0.2,2.7-0.3,4-0.5C2973,1929.1,2973.7,1937.3,2974.3,1945.4
	C2974.4,1945.4,2974.3,1945.4,2974.3,1945.4z"/>
<path d="M1874.3,3845.5c4.8,0,9.6,0,14.4,0c0,0.6,0,1.1,0,1.7c-4.8,0-9.6,0-14.4,0C1874.3,3846.6,1874.3,3846.1,1874.3,3845.5z"/>
<path d="M1308.2,1906.9c-2,4.2-4.3,8.7-6.5,13.2c-1-0.4-2-0.8-3-1.2c1.7-4.3,3.4-8.6,5.2-12.9c0.3-0.7,1.3-1.5,1.9-1.5
	C1306.4,1904.4,1307,1905.5,1308.2,1906.9z"/>
<path d="M2035.6,905.5c2.2-28.8,4.4-57.6,6.6-86.4c1,0.1,2,0.1,3,0.2c-2.1,28.8-4.2,57.6-6.3,86.4
	C2037.8,905.7,2036.7,905.6,2035.6,905.5z"/>
<path d="M2086.7,833c0,19.2,0,38.4,0,57.7c-0.1,0-0.2,0-0.3,0c0-19.3,0-38.7,0-58C2086.6,832.8,2086.6,832.9,2086.7,833z"/>
<path d="M2032.7,993.6c0-14.1,0-28.1,0-42.2c0.3,0,0.6,0,0.9,0c0,14.1,0,28.1,0,42.2C2033.3,993.6,2033,993.6,2032.7,993.6z"/>
<path d="M2035.4,2728.5c-7,9.5-12.3,16.6-19.8,26.9c12.5,1.3,19.8,2.1,28.7,3c-5.3,13.7-15.3,14.6-25.5,11.2
	c-10.4-3.5-10.7-12.7-8.9-22C2012.7,2733.1,2019,2728,2035.4,2728.5z"/>
<path d="M2319.6,2538.7c-2.1,18.8-8.1,23.5-22.6,20.3c-11.4-2.5-15.2-9.3-12.3-21.8c2.9-12.5,6.6-16.7,24.3-25
	c-4.7,11.5-8.3,20-13.3,32.2C2305.2,2542.1,2311.3,2540.7,2319.6,2538.7z"/>
<path d="M2057.1,3196.4c-4.7,12.8-7.9,21.3-11.4,30.8c8.4-0.8,19.6-5.3,24-9c6.5,7.5,5.9,14.3-2.1,19.8c-8.9,6.2-27.8,6.2-32.1-1.1
	c-2.9-4.9-2.2-13.1-0.5-19.1C2037.7,3208.7,2041.4,3206.2,2057.1,3196.4z"/>
<path d="M2298.1,3025c-0.4-16.1,7.3-28.1,20.1-40c4.5,5.4,8.9,9.6,11.8,14.7c4.6,8,15,16.3,6.8,26.1c-8.2,9.7-20.4,9.4-31.9,4.6
	C2302.6,3029.4,2300.8,3027.2,2298.1,3025z M2308.7,3017.3c1.5,2,2.9,4,4.4,5.9c6.9-0.4,15.5,1.7,16.6-9.6c0.3-3.1-3.9-6.6-6-9.9
	C2318.7,3008.3,2313.7,3012.8,2308.7,3017.3z"/>
<path d="M1784,2977.3c3.5,8.1,17.6,13.4,9.2,24.4c-7.3,9.7-18.8,7.3-29.1,3.9c-1.5-0.5-2.8-2-5.4-3.9c-2.8-14.6,4.8-25.3,16-37.1
	c4,5.3,6.9,9.3,9.9,13.3c-7.7,0.7-12.8,3.9-11.8,14C1785.5,2993.7,1787.2,2987.5,1784,2977.3z"/>
<path d="M1543.3,3207.3c-0.1,16.1-11.2,15.8-22,13.9c-11-1.9-15-9.4-10.7-19.7c3.6-8.6,8.5-16.6,14.1-27.3
	c16.5,17.6-10.9,23.8-2,39.4C1528.8,3211.8,1536,3209.5,1543.3,3207.3z"/>
<path d="M1836.1,3423c-1.7,7.3-1.4,13.1-4.2,16.1c-5.7,6.2-13.8,6-33.6,1.8c-5.3-14.9,0.4-25.7,13.2-34.7c1.3,2.2,3,3.8,2.6,4.5
	c-3.6,7.2-13.9,12.8-6.1,22.8C1812.9,3439.7,1818.7,3437.6,1836.1,3423z"/>
<path d="M2567.7,2750.1c0,5.8,0,11.6,0,17.4c5.6,3.2,11.2,6.4,19.7,11.4c-7.7,4.1-12,8.1-16.4,8.3c-7.5,0.2-17.7,0.4-21.7-4
	c-3.1-3.5,0.3-14.2,2.7-21.1c1.9-5.2,6.8-9.4,10.4-14C2564.3,2748.8,2566,2749.4,2567.7,2750.1z"/>
<path d="M2034.3,2318.2c-1.2,16.9-7.1,23.3-20.2,22.1c-11.7-1.1-17.1-9.1-14.6-23.3c2-11.4,6.1-21.7,21.6-25.6
	c-0.6,12.3-18.9,18.6-5.9,33.1C2020.8,2322.6,2027.6,2320.4,2034.3,2318.2z"/>
<path d="M2537.7,2300.1c-1.4,7.4-2.7,14.9-4.4,24.2c6.6,0,12.9,0,19.7,0c-5.3,16.7-14.1,22.3-25.6,17.9c-10.9-4.2-14-13.2-8.1-26
	c3.1-6.7,7.8-12.7,11.8-19C2533.3,2298.2,2535.5,2299.2,2537.7,2300.1z"/>
<path d="M1744,2510.5c2.7-0.8,7.2-3,8-2.1c9,10.5,13.3,22.5,9.4,35.6c-2.4,1.8-3.7,3.6-5.2,3.8c-11,1.7-25.4,7.6-30-6.7
	c-4.4-13.7,4.8-25,18.1-31.1c-2.9,7.8-5.6,15.5-8.8,24.2c12.2,3.6,17.1-0.7,15.9-10.6C1750.8,2519.1,1746.6,2514.9,1744,2510.5z"/>
<path d="M2576,3197.2c6.8,9.2,15.3,19.6,5.4,30c-9.5,9.9-22.6,12.2-36.5,3.2c3-15.2,7.5-28.5,23.7-34c-2.4,7.6-9.6,14.5-4,24.3
	C2581.2,3218.1,2577.1,3206.9,2576,3197.2z"/>
<path d="M1530.2,2736.6c2.5,3.6,6.3,7,7.1,11c1.4,7.1,3.9,17.1,0.5,21.1c-3.9,4.6-14.2,5.8-21.3,5c-11.7-1.3-16.9-11.1-10.3-21.2
	c4.8-7.4,13.9-11.9,21-17.8c-4.2,5.2-10.1,9.9-11.8,15.8c-0.9,3.4,5.1,8.8,8,13.3c3.4-3.2,9-6,9.5-9.6
	C1533.8,2748.7,1531.3,2742.5,1530.2,2736.6z"/>
<path d="M1736.6,2124.2c3.1-13.9,8.7-25.6,27.4-34.8c-4.3,11.3-6.9,17.9-10.2,26.5c6.5-0.7,12.1-1.3,20.8-2.2
	c-1.3,6.1-0.8,14.5-3.7,15.9C1759.2,2135.5,1747.1,2135.9,1736.6,2124.2z"/>
<path d="M2324,3410.4c3.5,5.4,7,10.8,10.5,16.2c-5.8,3.3-11.2,8.6-17.3,9.6c-7.1,1.2-14.8-1.4-22.3-2.4c2.9-21.8,2.9-21.8,20.3-36.4
	c3.3,4.7,6.4,9.2,9.6,13.7c-1.7-0.2-4-1.3-5-0.6c-3.7,2.6-6.9,5.8-10.4,8.8c2.2,2.1,4.5,4.2,6.7,6.4c3-3.4,6.2-6.7,8.8-10.4
	C2325.5,3414.4,2324.3,3412.1,2324,3410.4z"/>
<path d="M2761.3,3024.1c6.1-11.4,10.4-22,17-30.9c6.2-8.4,14-5.8,19.4,2.3c6.3,9.3,4.6,23.7-3.1,31.9
	C2786.4,3036.1,2780.7,3035.9,2761.3,3024.1z M2790.5,3013.6c-2.2-3.4-3.4-5.4-4.7-7.3c-2.9,2.3-6.1,4.4-8.5,7.2
	c-0.5,0.6,1.9,3.8,3,5.7C2783.5,3017.4,2786.7,3015.7,2790.5,3013.6z"/>
<path d="M2901.2,3026.5c2.6-12.3,5.1-24.6,7.7-36.9c1.1,0.2,2.2,0.4,3.3,0.6c-2,12.5-3.9,25.1-5.9,37.6
	C2904.6,3027.4,2902.9,3026.9,2901.2,3026.5z"/>
<path d="M2858.1,2974.2c-1.9,6.1-3.8,12.3-5.7,18.4c-1-0.3-2.1-0.6-3.1-0.9c2-6.6,3.9-13.3,5.9-19.9
	C2856.2,2972.5,2857.1,2973.4,2858.1,2974.2z"/>
<path d="M2868,2935c-1.7,5.1-3.5,10.3-5.2,15.4c-1-0.3-2-0.6-3-1c1.7-5.2,3.3-10.3,5-15.5C2865.9,2934.3,2866.9,2934.6,2868,2935z"
	/>
<path d="M2139.7,1298.1c0-18.4,0-36.8,0-55.3c0.2,0,0.5,0,0.7,0c0,18.2,0,36.4,0,54.6C2140.1,1297.7,2139.9,1297.9,2139.7,1298.1z"
	/>
<path d="M2200.2,1287.7c2,12.6,4,25.3,6,37.9c-0.9,0.1-1.7,0.3-2.6,0.4c-2.5-12.3-4.9-24.5-7.4-36.8
	C2197.6,1288.7,2198.9,1288.2,2200.2,1287.7z"/>
<path d="M2189.2,1233.4c2.3,9.4,4.7,18.8,7,28.2c-1.1,0.3-2.2,0.7-3.3,1c-1.6-4.6-3.6-9.1-4.7-13.8c-1.1-4.8-1.3-9.9-2-14.8
	C2187.3,1233.8,2188.3,1233.6,2189.2,1233.4z"/>
<path d="M2092.6,1348.3c0.3,2.5,0.7,4.9,0.8,7.4c0.1,5.8,0,11.6-2.1,17.4c0-4.2,0-8.4,0-12.6c0-4,0-8.1,0-12.1
	C2091.7,1348.3,2092.1,1348.3,2092.6,1348.3z"/>
<path d="M2269.3,2085.3c6.4,9.1,12,14.9,15,21.8c7,16.1-0.9,26.4-18.2,25.1c-15-1.1-20.7-10-13.8-23.5
	C2256.1,2101.3,2262.2,2094.9,2269.3,2085.3z M2260.7,2112.2c1.3,1.8,2.6,3.7,3.9,5.5c3.6-2.5,7.2-4.8,10.5-7.6
	c0.3-0.2-2.3-3.7-3.5-5.7C2268,2107,2264.3,2109.6,2260.7,2112.2z"/>
<path d="M2784.4,2523.5c-4.5,10.2-7.1,16-9.6,21.9c1,1.2,2,2.3,3.1,3.5c5.3-2.7,10.7-5.4,17.3-8.8c1,2.8,3.7,6.8,3.3,10.5
	c-1.2,12.9-11.7,15.8-21.4,13.9c-6.5-1.2-14.5-7.1-17.2-13C2755.9,2542.7,2764.5,2533.1,2784.4,2523.5z"/>
<path d="M2882,2612.7c0-23.5,0-46.9,0-70.4c0.9,0,1.8,0,2.8,0c0,23.5,0,46.9,0,70.4C2883.9,2612.7,2883,2612.7,2882,2612.7z"/>
<path d="M2755.1,2134c-1.8,15.1-8.7,22.3-21.3,19.8c-5.6-1.1-13.5-7.4-14.3-12.4c-1.9-11,3-20.4,18.7-23.8c-2,8.9-3.6,15.8-6.4,28
	C2741.5,2140.8,2746.7,2138.1,2755.1,2134z"/>
<path d="M1511.2,2335.5c2.5,4.5,6.3,8.8,7.2,13.6c2.2,12.1-4,19.4-15,19.2c-11-0.2-19-7.8-16.4-18.7c2.2-9.3,8.3-17.7,14.8-30.9
	c5.3,9.2,7.7,13.4,10.1,17.5c-8.5,2.2-17.3,4.4-14.4,16.3c0.4,1.7,4.3,4.1,5.8,3.7C1514.9,2352.9,1512.7,2344,1511.2,2335.5z"/>
<path d="M2012.4,1945.8c-1.3-25.5,1.7-29.8,23.6-30.4c-2.6,5.3-4.8,9.5-7.8,15.5c5.6,2.1,11.4,4.3,17.4,6.6
	C2037,1953.6,2037,1953.6,2012.4,1945.8z"/>
<path d="M2074.6,3586.5c12.9,6.4,24.2,13.6,22.6,28.8c-0.4,3.9-9.8,8.6-15.7,9.9c-9.5,2.1-20.7,1.8-24.5-9.5
	C2052.4,3602.2,2063,3595.4,2074.6,3586.5z M2078.2,3594.6c-4.1,5.1-7.5,7.8-8.6,11.3c-0.5,1.5,4.2,6.7,5.8,6.4
	c3.7-0.7,6.9-3.8,10.2-5.9C2083.7,3603.2,2081.6,3600,2078.2,3594.6z"/>
<path d="M2568.1,3570.5c6.2,15.6,11.6,29.3,17.7,44.6c-6.4,1.4-16.3,3.5-26,5.6C2546,3581.3,2546,3581.3,2568.1,3570.5z"/>
<path d="M1518.6,1939.5c0.8,6.8,1.7,13.6,3.1,25.4c8.5-9.6,13.8-15.6,19.8-22.4c5.6,29.9,0.5,34.1-33.4,26.5
	c2.1-10,4.2-20.1,6.3-30.1C1515.8,1939.1,1517.2,1939.3,1518.6,1939.5z"/>
<path d="M2502,1906.7c11.7,5.5,24,10.6,22,25.8c-0.6,5-8.6,12-13.9,12.6c-6.6,0.8-17.6-2.1-20.2-6.9
	C2483.1,1925.4,2491,1915.4,2502,1906.7z M2520.5,1925.9c-7.7-6.6-10.1-8.6-12.4-10.7c-2.1,3.2-4.6,6.1-5.8,9.6
	c-0.3,0.8,4.3,4.4,6.8,4.6C2512.2,1929.6,2515.4,1927.6,2520.5,1925.9z"/>
<path d="M1941.8,506.6c0-20,0-40.1,0-60.1c0.4,0,0.7,0,1.1,0c0,20,0,40.1,0,60.1C1942.5,506.6,1942.1,506.6,1941.8,506.6z"/>
<path d="M1936.8,579.9c0,11.2,0,22.5,0,33.7c0-11.2,0-22.4,0-33.6C1936.8,580,1936.8,580,1936.8,579.9z"/>
<path d="M1932.3,671.1c0,6.5,0,13,0,19.6c-0.3,0-0.7,0-1,0c0-6.5,0-13,0-19.6C1931.7,671.1,1932,671.1,1932.3,671.1z"/>
<path d="M2289,1739.3c-1.1,4.1-2.6,8.2-3.2,12.5c-0.2,1.3,1.8,2.8,3.9,6c5.1-3.2,10.3-6.4,15.5-9.6c1.4,0.7,2.7,1.5,4.1,2.2
	c-2.1,5.5-2.7,13.5-6.7,16c-10.4,6.5-21.5,6.1-32.3-6.8c4.8-7.4,9.7-15,14.6-22.5C2286.1,1737.8,2287.5,1738.6,2289,1739.3z"/>
<path d="M1762.1,1783.1c7-10,13.2-18.9,19.4-27.8c18.5,12,23,23.7,14.9,34C1789.3,1798.4,1780.2,1797.4,1762.1,1783.1z
	 M1777.5,1784.8c8.7-1.1,16.8-0.2,16.7-11.6c0-1.9-3.1-5.3-4.8-5.3C1779.1,1767.6,1777,1774.1,1777.5,1784.8z"/>
<path d="M2761.3,3422.7c8.6-11.9,17-23.4,27-37.2c5.7,19.3-0.6,40.4,23.6,44.7C2801.2,3443.8,2801.2,3443.8,2761.3,3422.7z"/>
<path d="M2311,549.8c-1.7,19.4-3.3,38.7-5,58.1C2306.7,588.5,2298.6,568.4,2311,549.8L2311,549.8z"/>
<path d="M2311,549.9c-0.3-11.4-0.6-22.7-0.7-34.1c-0.1-10.5,0-21,0.8-31.5C2311,506.1,2311,527.9,2311,549.9
	C2311,549.8,2311,549.9,2311,549.9z"/>
<path d="M2254.7,558c-0.3,4.6-0.6,9.6-1,14.7c-0.8,0-1.7,0.1-2.5,0.1c0-5.1-0.1-10.1,0.1-15.2c0-0.6,1-1.2,1.6-1.9
	C2253.4,556.4,2253.9,556.9,2254.7,558z"/>
<path d="M1337,2941.9c4.5,9.5,9.4,17,11.3,25.2c1.3,5.8,0.5,16.2-2.9,18c-6.1,3.3-15.8,4.1-22.1,1.4c-4.5-1.9-8.6-11.3-8.2-17
	C1316,2958,1322.4,2948.3,1337,2941.9z M1324.7,2977.9c15.4-2,17.8-6.8,12.3-15.7c-0.6-0.9-2.9-0.7-5.9-1.3
	C1329.5,2965.1,1327.9,2969.5,1324.7,2977.9z"/>
<path d="M1331.4,2520.1c4.1,7.7,6.7,12.2,8.8,16.8c3.7,7.9,4.5,16.9-4.7,20.1c-5.2,1.8-13.5-1-18.6-4.4c-7.8-5.2-8-13.9-2-20.7
	C1318.8,2527.3,1324.9,2524.5,1331.4,2520.1z"/>
<path d="M1588,3597.9c3-10.1,5.9-20.3,10.3-35c12,11.3,20.2,19.1,33.2,31.4c-16.6,4.2-27.3,7-38,9.7
	C1591.6,3601.9,1589.8,3599.9,1588,3597.9z"/>
<path d="M2052.4,1604.6c5.1,7.9,10.8,12.8,10.4,17c-0.9,10.3-9.6,15-19,13.4c-4.2-0.7-11.2-10-10.7-10.7
	C2037.9,1618,2044.1,1612.7,2052.4,1604.6z"/>
<path d="M2964.8,2799.2c-9.9,0.7-14.8-4.7-15.8-13.8c-1.2-10,10.5-23,19.5-19.6c6.8,2.6,13.4,10.7,16.1,17.9
	C2987.7,2792,2977.7,2799,2964.8,2799.2z"/>
<path d="M2955.9,2354c-15.7,10.4-25.9,10.5-31.5-0.4c-2.2-4.3-1.6-13,1.5-16.2c2.8-3,10.6-1.9,16-1.5c2,0.1,4.1,3.2,5.6,5.3
	C2950.4,2345.3,2953.1,2349.7,2955.9,2354z"/>
<path d="M2720.9,1779.8c-10.1,7.2-15.9,13.8-23.1,15.8c-9.5,2.6-17.5-2.9-19.8-13c-1.8-7.9,12.4-23.6,19.8-21
	C2705.2,1764.2,2710.8,1771.4,2720.9,1779.8z"/>
<path d="M1379.7,2164.3c-4,3.4-9.4,9.7-10.8,8.9c-7.6-4.3-14.1-10.4-23.3-17.7C1361.8,2152.3,1361.8,2152.3,1379.7,2164.3z"/>
<path d="M2509.2,1633.2c-9.1,5.8-13.9,10.8-19.4,11.8c-10.9,2.1-18.8-4.4-18.7-13.1c0.1-9,9.2-20.1,15.8-17.3
	C2493.9,1617.5,2499.3,1624.6,2509.2,1633.2z"/>
</svg>
