<?xml version="1.0" encoding="utf-8"?>
<!-- Generator: Adobe Illustrator 24.3.0, SVG Export Plug-In . SVG Version: 6.00 Build 0)  -->
<svg version="1.1" id="Layer_1" xmlns="http://www.w3.org/2000/svg" xmlns:xlink="http://www.w3.org/1999/xlink" x="0px" y="0px"
	 viewBox="0 0 4000 4000" style="enable-background:new 0 0 4000 4000;" xml:space="preserve">
<path d="M3648.5,2092.4c-1.2,334.5-90.6,643-274.9,922.6c-149.1,226.2-345.1,401.8-582.6,531.5c-263.3,143.8-544.8,218.8-845,215.9
	c-222.2-2.2-435.3-51.1-639.3-139.9c-254.4-110.7-468.8-274.8-646.1-486.7C507.6,2953,403.2,2744.4,344,2513
	c-53.7-209.9-69-422.4-43.4-637.2c54.4-455.1,249.4-837.6,596.2-1140.2c27.9-24.4,57.4-47.4,88.1-68.1
	c20.7-13.9,25.4-28.9,20.2-52.3c-12.5-56.8-7.1-112,29.8-158.9c17.2-21.9,38.8-41.9,62.1-57.1c90.3-59.1,189.9-98.3,292.6-129.8
	c238.1-73,481.6-94.8,729.2-75.3c144.2,11.4,286.3,34.8,424.8,77.2c35.4,10.8,70.2,24.7,103.5,40.6c73.6,35.3,106.2,98.7,109.6,177
	c1.2,28,10.1,42.2,34.6,55c295.8,155.9,516.1,384.9,662.6,685.6c71.8,147.4,116.8,303.3,150.7,463
	C3632.7,1824.4,3648.3,1957.6,3648.5,2092.4z M443.6,1487.9c-4.4,10.6-9.7,20.1-12.4,30.3c-20.4,75.9-43.8,151.2-59.7,228
	c-35.7,172.4-41.7,346.5-21.4,521.7c18.8,161.7,56.6,318.3,122.4,467.3c110.9,251.1,279.5,457.2,494.8,626.2
	c145.8,114.5,306.8,202,481.5,262.1c268,92.3,542.2,110.9,820.9,56.9c190.6-36.9,370.7-102.5,536.6-203.3
	c500.5-304.2,763.7-750.4,791.2-1335c7-148-11.5-294.5-40.2-439.6c-4.5-22.9-10.3-45.7-15.5-68.6c-31.8,20.1-59.4,39.5-88.8,55.5
	c-15.7,8.5-18.5,16.7-15.3,33.6c10.1,53.6,19,107.5,26.3,161.6c5.6,41.7-5.4,53.6-47.8,55.1c-37.1,1.2-74.3,0.5-111.5,1.1
	c-9.3,0.1-18.6,1.9-28.9,3c-1.6,19.2-2.2,35.4-4.5,51.5c-8.7,59.9-50.4,100.8-110.2,108.9c-84.7,11.4-151.3-38.2-164.2-122.5
	c-1.9-12.7-3.4-25.4-4.8-36.2c-5-2.5-6.8-4.2-8.8-4.3c-14.2-0.7-28.3-1.4-42.5-1.6c-76.5-1.2-76.8-1.2-77.1-76.7
	c-0.2-63.4,0.6-126.8,0.5-190.1c-0.1-32.1-3.5-33.4-35.9-36.1c-87.8-7.5-165.4,81.9-161.9,154.7c2.2,45.5-4.2,91.4-5.9,137.2
	c-0.4,11.8,2.1,23.8,3.5,35.7c4.7,39,10.4,78,14.1,117.1c2.9,30.7-1.1,60.8-11.7,90.3c-5,14-6.8,29.9-6.7,44.9
	c0.5,148.6,1.8,297.2,2.7,445.9c0.1,10.9-0.7,21.8-0.7,32.8c0,16.4-9,23.7-24.4,24.3c-18.6,0.8-37.1,1.2-55.7,1.8
	c-21.2,0.7-42.4,1.6-63.6,2.3c10.8,9.9,21.9,13,32.9,16.7c12.4,4.2,25.3,7.5,36.7,13.6c41.8,22.2,47,71.8,11.1,103
	c-5.7,5-12.3,9.3-19,12.7c-67.1,33.8-136.2,36.6-206.5,11.5c-12.2-4.3-23.8-11.3-34.3-18.9c-31.6-23-35.5-57.6-11.2-88.5
	c14.2-18,33.2-27.8,55.1-33.1c17.6-4.3,35.2-8.9,52.7-13.4c-81.5-5.1-162.2-5.1-242.8-5.1c-19.7,0-39.4,0.9-59,0.2
	c-24.6-0.9-30.8-5.6-35.5-29.7c-3.2-15.9-4.2-32.5-4.2-48.8c-0.1-149.7,0.3-299.4,0.6-449.1c0-6.6-0.2-13.1,0.4-19.7
	c2.3-26.7,10-34.9,35.9-37.7c8.7-0.9,17.5-0.8,26.2-0.7c55.7,0.1,111.5,0.3,167.2,0.2c10.5,0,21-1,32-1.6c-1.7-35-3.3-66.5-4.7-98
	c-1.4-31,10.1-62,2.7-95.9c-14.3,0-26.2,0-38,0c-59,0-118,0.3-177-0.1c-33.7-0.2-39.4-5.9-42.4-39.7c-0.9-9.8-0.8-19.7-0.8-29.5
	c-0.3-40.4-0.1-80.9-0.8-121.3c-0.4-21.5-2.4-43-4-69.1c-26.2,18.1-46.8,36.4-70.8,47.6c-25.2,11.8-53.3,21.3-80.8,23.3
	c-26.1,1.9-53-7.1-83.4-11.9c-0.7,12.3-1.9,22.8-1.8,33.3c0.1,35,0.9,69.9,0.8,104.9c-0.1,59.1-3,63.2-62.9,63.5
	c-149.7,0.7-299.4,0.1-449.1-0.1c-8.7,0-17.5-0.9-26.2-1.4c-15.4-0.9-24.4-8.9-25.5-24.4c-1.3-18.5-1.5-37.1-2.9-55.6
	c-0.6-7.9-2.8-15.7-4.4-23.8c-33.2,4.1-45.3,24.1-46.3,50.1c-1.2,30.4-1.4,61.4,3.1,91.4c9,59.4,22.4,118,32.2,177.3
	c6,36.5,14.2,73.8,11.9,110.2c-6.3,99-70.1,167.7-167.3,172.4c-9.4,0.5-18.8,2.1-30.8,3.4c0,12,0,21.6,0,31.2
	c0,62.3,0.3,124.6,0.1,186.9c-0.2,56.8-4.4,61.5-61.9,61.7c-107.1,0.4-214.2-0.1-321.3-0.5c-64.8-0.2-65.3-0.2-88.6-59.2
	c-58-147-94.6-299.7-118.3-455.6c-8.7-57,4.1-70.2,62.8-70.2c116.9-0.1,233.9,0,350.8,0c13.9,0,27.8,0,43.6,0
	c10.4-65.5,20.2-126.5,30.8-192.8c-15.7,0-26.2-0.1-36.7,0c-83.1,0.6-166.1,1.8-249.2,1.7c-54.6,0-109.3-0.8-163.9-3
	c-33.6-1.3-44.1-14.4-43.8-48c0.1-7.6,0.9-15.3,2-22.8c14.5-105.1,31.8-209.5,64.8-310.8c3.2-9.9,4.3-20.5,7-33.5
	c-22.2-4.7-41.6-7.1-59.9-13C485.5,1507.6,467.2,1498.1,443.6,1487.9z M3421.9,1639.9c83.6-28.5,102.8-76.3,84.6-136.7
	c-89.8-297.4-244.4-552-487.6-749.3c-149.4-121.2-313.7-214-500.4-264.9c-110.1-30-222.2-46.8-336.1-53.3
	c-268.5-15.4-533.1,4.1-790.1,89c-130.1,43-256.5,94.6-367.6,177c-217.2,161-386.4,362.7-507.5,604.4
	c-17.1,34.1-31.4,69.7-44.6,105.5c-7.7,20.9-3.9,28.4,15.7,36.3c24.2,9.8,49.5,17.1,74.4,25.2c14.2,4.6,22.8-0.9,27.4-15
	c5.4-16.6,11.1-33.1,17.7-49.3c12.3-30.5,15.1-32.3,48.7-32.3c112.6-0.1,225.2-0.1,337.7-0.1c15.3,0,30.6-0.2,45.9,0.7
	c36.2,2.1,43.3,9.6,45.5,45.6c0.3,4.4,0.4,8.7,0.4,13.1c0.4,151.9,0.8,303.8,1,455.7c0,12.9-1.2,25.9-1.9,39.4
	c-8.9,3.1-15.9,7.3-23,7.6c-20.7,0.9-28,12.3-30.4,31.3c-2.8,22.7-8.8,45.1-11.4,67.9c-5.3,47.7-7.3,95.8-14.4,143.2
	c-5.5,36.7-0.8,71.5,6.3,107.1c7.5,37.8,27.5,64.3,60.1,85c23.4,14.8,46.5,19,71.6,11.8c36.7-10.4,65.5-32.4,76.6-69.9
	c7-23.6,12.7-49.8,9.9-73.8c-7.5-62.7-20-124.8-30.7-187.2c-8.7-50.6-21-101.1-15.8-152.7c8.1-81.1,40.4-115,97.2-120.5
	c1.8-0.2,3.3-2.5,8.6-6.8c0-9.9,0-22.8,0-35.7c0.1-101.6-0.1-203.3,0.5-304.9c0.3-51.4,4.6-55.4,57-55.6
	c146.5-0.5,292.9-0.7,439.4-0.8c12,0,24.1,0.3,35.9,2.2c22,3.5,27.7,9.6,29.7,32.2c1.4,16.3,1.1,32.8,1.1,49.1
	c-0.1,62.3-0.3,124.6-0.5,186.9c-0.1,16.1,2.8,30.1,18.8,38.7c36.6,19.7,74.5,27.7,112.6,6.8c21.8-12,40.3-29.7,61.5-43
	c43.6-27.4,57.3-65.5,51.9-116c-4.2-39.9-1-80.8,0.6-121.2c1.1-28.2,7.9-33.6,36.2-35.3c7.6-0.5,15.3-0.3,22.9-0.3
	c146.5-0.4,292.9-0.8,439.4-1c64-0.1,67.9,3.7,68.3,69.2c0.3,55.7-0.3,111.5-0.1,167.2c0,12.3,1.7,24.6,2.7,37.5
	c33.1-19,60.5-40.6,91.7-51.1c32-10.7,67.7-10.6,105.4-15.8c0-11.2-0.1-23,0-34.7c0.2-43.7-0.4-87.5,1.1-131.1
	c1.2-34.4,7-39.7,41.5-39.9c127.9-0.7,255.8-0.2,383.6-1.2c25.9-0.2,40.4,10.1,48.9,33.9c20.1,56.5,41.6,112.6,62.2,169
	C3408.9,1598.3,3414.7,1618.1,3421.9,1639.9z M1060.2,610.8c56.6-27.5,112.1-57.2,169.8-81.7c57.2-24.3,115.7-45.9,175.1-64
	c60.5-18.4,122.2-33.7,184.2-45.8c62-12.1,125-20.4,187.8-27c61.8-6.5,124.1-10.5,186.2-12.3c63.3-1.7,126.8-1.6,189.9,1.9
	c63.2,3.5,126.4,9.6,188.9,19.3c61.4,9.5,122.5,22.6,182.5,38.7c60.4,16.2,119.3,38.1,182.5,58.6c0.4-52.7-13.2-95.2-54-123.5
	c-24.8-17.2-52.8-31-81-41.8c-71.6-27.4-146.6-42.4-221.9-56.2c-243.9-45-488.3-51.6-733.1-8.7c-159,27.9-312.3,73.8-454.3,152.5
	c-27.5,15.2-53.7,33.8-77.5,54.3C1049.6,506.1,1040.1,560.5,1060.2,610.8z M1034.9,2667.2c0-83.3,0.5-161.8-0.7-240.3
	c-0.1-9.3-8.4-19-14.4-27.5c-11.2-15.9-25.5-29.8-34.9-46.6c-21.6-38.8-30.6-81.4-31.8-125.7c-0.3-11.5-1.8-22.9-2.6-33.4
	c-51-7.5-377.2-5.8-397.9,1.3c-0.6,2.1-1.8,4.2-1.7,6.2c0.3,5.4,1.1,10.8,1.8,16.2c18.2,147,59.5,288.2,108.9,427.3
	c8.8,24.8,9.2,25,38.4,25c97.2,0,194.3-0.2,291.5-0.4C1004.2,2669.4,1017,2668.2,1034.9,2667.2z M2413.5,1889.4
	c65.3-1,126.9,3.6,187.8-2c12.3-53.6,16.5-419.9,5.5-457c-151.7,0-303.8,0-457.5,0c0,50,0,97.4,0,144.9c5.6,0.6,8.9,1.7,11.9,1.2
	c81.6-13.3,138.9,23.6,182.5,88.5c33.5,49.9,49.9,106.3,60.7,164.7C2407.7,1847.7,2409.9,1866,2413.5,1889.4z M3365,1656.4
	c0.6-6.2,2-9.7,1.1-12.5c-21.5-65.3-42.9-130.6-65-195.6c-4.7-14-15.8-18.9-30.9-18.8c-110.3,0.4-220.7,0.1-331,0.4
	c-7.1,0-14.2,2.6-24.2,4.5c0,53.9,0.2,106.3-0.1,158.6c-0.1,16.1,10.9,22.8,22.3,29.4c31.7,18.6,57.6,42.7,75.5,75.4
	c23.2,42.4,31.7,87.9,32.5,135.6c0.3,17.1,1.7,34.2,2.5,50.3c36.9,7.6,137.7,6.3,164.1-2.3c-3.4-50.5-3.8-101.5,23.1-148.5
	C3263.9,1682.1,3315.6,1670,3365,1656.4z M2242.8,2667.6c-10.9-16.6-17.3-26.4-23.8-36.1c-28.3-41.8-33.8-87.5-19.3-134.7
	c20.5-66.8,65.8-108,136-115.8c70.1-7.8,127.7,18.9,165.6,78c34.7,54.1,36.8,119.9-5.7,174.8c-7,9-12.9,18.9-22,32.3
	c47.7,0,89.4,0,135,0c0.7-71.2,1.9-139.7,1.7-208.2c-0.1-68.9,2-137.9-2.3-210.1c-11,4.6-16.9,7.1-22.8,9.6
	c-71.9,30.4-134.8,14.1-182.1-48.9c-11.2-14.9-23.9-20.2-41.6-20.1c-65.6,0.6-131.1,0.3-196.7,0.6c-5.1,0-10.1,2.4-14.5,3.5
	c-6.8,42.1-3.6,453.3,3.4,475.1C2180.7,2667.6,2207.7,2667.6,2242.8,2667.6z M542.8,1888c14.9,1,24.5,2.2,34.1,2.2
	c121.3-0.4,242.6-1,363.9-1.6c13.1-0.1,26.2-0.9,39.3-1c12.9-0.1,20.3-6,22.5-18.9c2.5-15.1,5.6-30.1,8.3-45.1
	c11.1-63.6,21-127.7,14.5-192.3c-2.9-28.7-10.8-58.2-22.8-84.5c-15.5-33.8-51.1-47.2-88.4-41.8c-35.4,5.1-43.5,31.5-50.9,60.1
	c-6,23.2-11.8,46.8-21.3,68.7c-23,52.6-72.9,76.5-129.1,64.8c-37.6-7.9-65.4-29-84.4-62c-7.5-13-14.9-26.2-26.6-46.6
	C569.3,1690.7,558.3,1787.5,542.8,1888z M1799,1888.6c1.7-9.2,3-13.4,3.1-17.6c0.7-57.8,1.7-115.7,1.4-173.5
	c-0.1-11.6-3.2-23.9-7.9-34.7c-16.6-37.9-34.1-75.5-51.8-112.9c-12.6-26.6-29.3-49.5-62.3-50.7c-33.3-1.2-55.1,17.8-71.3,44.3
	c-5.6,9.2-10.2,19.4-13.2,29.8c-5.3,17.7-9.2,35.9-13.3,54c-11,49.1-22.1,98.3-51,140.7c-36.2,53.1-84.6,84.1-151.5,79.6
	c-12.6-0.8-25.3-0.1-40.8-0.1c1,16.2,1.8,28.5,2.6,41.1C1496.8,1888.6,1646.9,1888.6,1799,1888.6z M1342.4,1792.3
	c56.3,16.2,108.6,1.2,139.8-39.7c12.4-16.3,23.4-34.8,30.1-54c11-31.9,19-64.9,26.4-97.8c7.7-34.4,19.6-66.6,38-97
	c40.9-67.2,150.9-74.5,197.5-4.5c6.2,9.4,13.7,17.9,20.5,26.9c2.2-1,4.5-2,6.7-3c0-30.8,0-61.7,0-92.3
	c-49.8-7.2-434.4-3.5-461.5,5.3C1341.4,1554.7,1339.1,1674.3,1342.4,1792.3z M2149.7,1890.8c71.1-1.9,139.2,2.6,212.7-2.1
	c-6.8-35.4-10.7-66.7-18.9-96.8c-13.9-50.9-33.4-99.6-73.9-136.2c-24.2-21.9-52.1-35.9-85.6-35.6c-30.7,0.3-36.7,6-36.9,36.3
	c-0.4,68.8-0.2,137.6-0.1,206.3C2147,1870.2,2148.4,1877.6,2149.7,1890.8z M1040.1,1426.9c-15.7,0-27.5,0-39.2,0
	c-94-0.1-187.9,0-281.9-0.5c-67.2-0.4-67.2-0.9-90.2,62.7c-1.5,4.1-3.5,8.2-3.8,12.5c-0.4,5.2-1,11.4,1.3,15.7
	c17.1,32.9,34.2,65.8,52.8,97.9c9.5,16.3,23.5,28.3,43.8,31.2c39.4,5.5,64-10.2,76.3-49.4c8.4-27.1,15.8-54.6,26.2-81
	c11.3-28.5,31.2-52.4,61.7-59.1c42.4-9.2,84.9-8.4,120.9,22.7c8.6,7.4,18.3,13.6,32.2,23.9
	C1040.1,1475.4,1040.1,1454.2,1040.1,1426.9z M2629.1,2133.5c3.5-66.7-4.3-129.2-18-191.7c-63.2,0-122.9,0.1-182.7-0.1
	c-16.4,0-23.8,8.2-23.8,24.1c-0.1,44.6-1.7,89.3,0.3,133.8c1.4,30.4,8.3,35.1,38.9,35.6c53.3,0.8,106.7,0.8,160.1,1
	C2610.2,2136.3,2616.5,2134.9,2629.1,2133.5z M3263.3,1887.5c52.1,2,99,3.6,149.9-1c-11.9-61.6-12.8-120.3-34.5-174
	c-59.7-2.3-111,34.1-115.1,98.9C3262,1835,3263.3,1858.8,3263.3,1887.5z M3219.9,1940.9c-57.1,0-109.2-0.2-161.3,0.1
	c-12.2,0.1-18.5,7.5-16,19.4c7.6,36.5,22.3,69.9,56.8,87.8c52,27,125.5-1,120.6-69.8C3219.2,1967.7,3219.9,1956.8,3219.9,1940.9z
	 M2990.8,1885.7c13.3-77.2-7.4-183.9-70.7-211.5c-8.2,34.6-7.8,188.5,0.4,211.5C2944.1,1885.7,2967.7,1885.7,2990.8,1885.7z
	 M2457.3,2860.7c37.8-0.2,73.7-2.4,105.9-21.7c28.8-17.2,28.6-40-0.6-57.2c-8.2-4.8-18.1-8.2-27.6-9.4c-26-3.2-52.2-7.5-78.1-6.3
	c-26.9,1.3-53.8,7.2-80.1,13.6c-14.6,3.5-30.2,11.2-30.7,29.7c-0.5,17.6,13.3,27.4,27,34c13.5,6.6,28.5,10.7,43.3,13.7
	C2430.2,2859.9,2444.6,2859.7,2457.3,2860.7z M2324.9,2540.3c29.2-0.5,52.6-26.1,51.3-56c-1.3-29.3-22.5-50.2-49.7-49.3
	c-31.1,1-59.2,26.9-58.9,54.3C2267.8,2516.6,2295.1,2540.8,2324.9,2540.3z M2458.5,2193c35.5,39,100.7,38.5,122.4-1.4
	C2539.7,2189.8,2500.5,2188,2458.5,2193z"/>
<path d="M1287.9,2423c0-75.3,0-150.6,0-225.9c0-5.5,0.2-10.9,0.6-16.4c2.6-38.6,8.5-44.6,48.3-44.6c151.8,0,303.5,0.4,455.3,0.7
	c5.5,0,10.9,0.1,16.4,0.5c35.3,2.4,44.1,10.9,44.4,46.4c0.8,113.5,1,227.1,1.5,340.6c0.2,32.8,2.6,65.6,0.8,98.2
	c-4.2,78.6,82.3,95.5,129.3,67.6c19.8-11.8,32.1-29.1,37.9-51.3c2.2-8.4,3.9-17,6.3-25.4c3.1-10.7,10.8-18.8,21.4-14.7
	c7.6,2.9,13.7,11.9,18.5,19.5c2.5,3.9,1,10.7,0.6,16.1c-4.5,54.7-49.1,103.5-103.6,111.9c-35.2,5.4-69.3,3.1-100.9-17.5
	c-9.3-6-22.3-8.7-33.6-8.6c-80.7,0.6-161.5,2.7-242.2,3.4c-73.1,0.6-146.3,0.5-219.4-0.1c-77.8-0.6-81.5-4.5-81.8-81
	c-0.2-73.1-0.1-146.3-0.1-219.4C1287.7,2423,1287.8,2423,1287.9,2423z M1794.4,2668.3c-0.9-14.4-2-26.1-2.4-37.7
	c-0.2-7.4,0-14.9,1.2-22.2c2.9-18,9.2-35.8,9.4-53.8c1.2-112.5,1.3-225.1,1.4-337.7c0-8.3-2.2-16.6-3.3-24.2
	c-54.9-6.5-433.7-4.3-461.1,3.4c-1.3,94.8-3.2,190.7,2.2,287.6c4.6-1.3,6.1-1.3,6.5-1.9c5.9-9.1,11.5-18.4,17.6-27.4
	c38-55.7,92.4-83.2,157.6-73.3c147.3,22.4,187.7,172.4,114.7,263.6c-5.7,7.1-9.7,15.5-17.7,28.5
	C1681.9,2672.4,1736.7,2676.9,1794.4,2668.3z M1602.1,2489.7c-1-29.8-26.6-54.1-55.4-52.5c-31.7,1.7-54.8,24.5-54.6,53.8
	c0.2,29.9,24.3,52.6,55.2,52.1C1577.8,2542.5,1603,2518,1602.1,2489.7z M1388.4,2664.1c-18.1-29.2-32.6-52.5-48.3-77.7
	c0,27.8,0,52.7,0,77.7C1356.9,2664.1,1370.1,2664.1,1388.4,2664.1z"/>
<path d="M2095.8,3229.6c0-83-0.3-166.1,0.1-249.1c0.3-50.6,6.1-56.3,56.9-56.3c132.2-0.2,264.4-0.2,396.6,0.4
	c27.2,0.1,54.6,2.2,81.6,5.7c21.9,2.9,29.7,12.9,32.5,34.7c0.8,6.5,0.6,13.1,0.6,19.6c-0.2,120.2-0.4,240.3-0.8,360.5
	c0,12-1.1,24-1.4,36c-0.4,14.5-6.9,25.1-19.8,31.5c-12.7,6.3-25.4,12.6-38.6,17.9c-146,58.2-297.5,94.2-453.4,112.6
	c-40.4,4.8-52.7-4.2-53.8-44.8c-1.7-66.6-1.1-133.3-1.4-199.9c-0.1-22.9,0-45.9,0-68.8C2095.2,3229.6,2095.5,3229.6,2095.8,3229.6z
	 M2149.2,3489.8c18.8-2.9,34.6-5.6,50.4-7.9c131.4-18.8,259.3-50.2,382.6-100.5c22.2-9,29.8-21.2,29.7-43.8
	c-0.2-109.3,0.7-218.6,0.8-327.9c0-10.2-2.7-20.5-4.1-29.6c-54.4-7-437.4-4.4-459.5,3.1C2149.2,3150.4,2149.2,3318.2,2149.2,3489.8z
	"/>
<path d="M1853.4,3235.4c0,82,0,163.9,0,245.9c0,7.6,0.1,15.3-0.4,22.9c-1.9,32.3-12.9,42.6-46,39.6c-26.1-2.3-52-6.4-77.9-10.9
	c-128.5-22.2-253.8-55.7-375.2-103.6c-65.2-25.7-65.6-25.2-65.7-94.5c-0.2-115.8-0.1-231.7-0.1-347.5c0-7.6-0.2-15.4,0.7-22.9
	c2.4-20.1,10.3-29.1,30.2-33.3c8.5-1.8,17.4-2.3,26.1-2.4c149.7-1.4,299.4-2.6,449.1-3.8c2.2,0,4.4,0.1,6.6,0.1
	c45.4,1.5,52.7,8.9,52.8,54.7c0.2,85.2,0,170.5,0,255.7C1853.4,3235.4,1853.4,3235.4,1853.4,3235.4z M1796.6,3486.6
	c7.3-25.9,8.1-482-0.3-508.4c-150-1.2-301,0-454.1,1.1c0,132.1,0,259.5,0,385.7C1448.3,3418.8,1729.7,3493.8,1796.6,3486.6z"/>
<path d="M3155.4,2137.5c72.1,0,144.3,0,216.4,0c8.7,0,17.5,0.1,26.2,0.6c46.5,3,57.6,16.3,52.2,62.1
	c-18.9,161.5-58.3,317.9-120.6,468.2c-23.4,56.3-15.9,52.7-78.4,52.9c-111.5,0.3-223,0-334.5-0.3c-46.3-0.1-53-6.2-53.2-53.1
	c-0.8-158.5-1-317-1.3-475.5c0-8.7,0.5-17.6,2.2-26.1c3.1-15.5,12.7-25.3,28.7-27.3c10.8-1.3,21.8-1.6,32.7-1.6
	c76.5-0.1,153-0.1,229.5-0.1C3155.4,2137.4,3155.4,2137.4,3155.4,2137.5z M3399.7,2191.9c-162.3,0-322.1,0-485.6,0
	c0,54.6,0,106.7,0,158.8c0.1,53.5-0.2,107,0.4,160.4c0.6,51.7-3.1,103.7,1.9,154.5c7.8,1.4,11,2.4,14.2,2.4
	c105.9,0.1,211.7-0.1,317.6,0.4c19,0.1,28.6-6.9,36.2-25c57.5-137.9,92.6-281.6,115.2-428.8
	C3400.5,2208.3,3399.7,2201.7,3399.7,2191.9z"/>
<path d="M2861.8,3090.1c0-38.3-0.4-76.5,0.1-114.8c0.5-40.8,7.5-48.6,47.5-49.1c75.4-0.9,150.8-0.8,226.2-1
	c17.8,0,35.5,0.7,44.3,20.6c8.6,19.4-0.7,34.5-12.9,47.4c-59.3,62.7-118.9,125.1-179.1,187c-17.5,18-36.9,34.1-55.8,50.7
	c-7.3,6.5-15,13.1-23.6,17.4c-22.9,11.4-42,1.6-45.3-23.9c-2.1-16.2-1.2-32.7-1.3-49.1C2861.8,3146.9,2861.9,3118.5,2861.8,3090.1
	C2861.9,3090.1,2861.8,3090.1,2861.8,3090.1z M2915.2,3169.1c31.1-15.9,49.4-39.4,70.4-59.3c20.6-19.5,40.8-39.6,59.4-61
	c18.4-21.3,43.6-37.7,55.5-67.2c-63.9,0-123.3,0-185.3,0C2915.2,3044.2,2915.2,3103.8,2915.2,3169.1z"/>
<path d="M1090.1,3095.4c0,32.7,0.3,65.4-0.1,98.1c-0.2,11.9-0.5,24.2-3.3,35.7c-4.4,18-21.4,26.1-38,18.1
	c-10.6-5.1-20.4-12.6-29.4-20.4c-81.8-70.7-155.5-149.4-225.7-231.6c-4.2-5-8.4-10.1-11.8-15.7c-17.4-29.4-6.2-53.6,28-54.1
	c79.5-1.2,159.1-0.4,238.6,1.1c27.9,0.5,37.7,9.6,39.2,38c2.2,43.4,0.6,87.1,0.6,130.6C1088.9,3095.4,1089.5,3095.4,1090.1,3095.4z
	 M851.1,2986.1c19.9,21.3,38.7,41.9,58,61.9c20.4,21.2,40.5,42.7,62.1,62.6c20,18.6,35,43.5,62.6,54.5c9-36.1,7.6-162.7-1.5-184.6
	C984.3,2973.9,876.6,2976.3,851.1,2986.1z"/>
<path d="M1401.5,2729.3c22.5,3.3,52.8,7,82.8,12.3c10.4,1.9,21,6.5,30,12.2c46.6,28.9,48.3,77.8,3.2,108.8
	c-15.1,10.3-32.2,19.8-49.7,24c-65.5,15.7-130.1,12.9-191.4-18.4c-8.7-4.4-17.3-9.7-24.4-16.3c-25.3-23.7-25.9-53.1-1.2-77.6
	c22.3-22,48.7-37.1,80.5-40.2C1352,2732.1,1372.8,2731.2,1401.5,2729.3z M1385,2860c24.3-3,44.4-3,62.9-8.6
	c19.4-5.9,38.5-15.1,55.2-26.7c17.8-12.3,16-27.2-2.3-38.8c-8.1-5.1-17.7-9.2-27.1-10.9c-25.6-4.7-51.7-7.4-77.4-11.7
	c-32.5-5.5-62.7,2-92.2,14.5c-14.3,6.1-29,14.2-29.4,31.7c-0.4,18,16.1,24.5,28.8,32.4c4.5,2.8,10,4.3,15.3,5.4
	C1342.3,2852,1365.7,2856.3,1385,2860z"/>
<path d="M2094.8,864.9c0-80.8,0-161.6,0-242.3c0-8.7-0.2-17.5,0.4-26.2c2.4-33.9,14-46.4,48.2-41.7c61.6,8.4,123.1,18.3,183.8,31.6
	c100.4,22.1,197.3,55.6,292.5,94.3c39.5,16,44.5,23.4,44.6,66c0.2,123.3,0.2,246.7,0.1,370c0,8.7-0.1,17.5-1.5,26.1
	c-3.6,22.5-11,29.8-34.2,32.3c-14.1,1.5-28.3,1.7-42.5,1.6c-146.3-0.4-292.5-1-438.8-1.6c-7.6,0-15.3-0.5-22.9-0.9
	c-15.5-0.9-24-9.9-26-24.6c-1.6-11.9-2.5-23.9-2.5-35.8c-0.2-83-0.1-165.9-0.1-248.9C2095.5,864.9,2095.1,864.9,2094.8,864.9z
	 M2146.1,1119.3c48.2,10.3,435.7,8,463.7-2.3c0.9-6,2.6-12.4,2.6-18.8c0.3-113.5,0.1-227,1-340.5c0.2-22-11.8-30.3-29.6-37.1
	c-116.4-44.6-235.3-80.6-358.1-102.6c-24.3-4.4-48.9-7.4-78.3-11.7C2145.5,781,2146.5,950.6,2146.1,1119.3z"/>
<path d="M1852.6,865.9c0,83,0,166-0.1,249c0,9.8,0.1,19.8-1.4,29.4c-3.5,21.6-9.8,27.9-31.8,30.3c-16.2,1.8-32.7,2.2-49,2.2
	c-144.1-0.4-288.3-1-432.4-1.6c-6.5,0-13.1-0.4-19.6-0.6c-15.5-0.5-24.5-8.6-26.4-23.7c-1.6-13-2.8-26.1-2.8-39.1
	c-0.3-124.5,0.3-249-0.8-373.5c-0.3-30.6,11.4-48.7,39.7-59.7c119.3-46.6,240.5-86.1,367.1-107.2c34.4-5.7,68.9-11.8,103.6-15.5
	c43.4-4.6,53.1,4.7,53.2,48c0.3,87.4,0.1,174.7,0.1,262.1C1852.3,865.9,1852.5,865.9,1852.6,865.9z M1800.3,612.1
	c-4.7-1.2-7.8-2.9-10.7-2.7c-8.7,0.6-17.4,1.7-26,2.9c-134.9,18.9-264.3,57.8-391.1,106.4c-32.3,12.4-32.7,12.1-32.8,47
	c-0.5,107-1,214.1-1.3,321.1c0,11.6,1.5,23.1,2.2,33.9c58.9,8.8,430,6.6,459.8-3C1800.3,949.8,1800.3,781,1800.3,612.1z"/>
<path d="M3021.9,1174.3c-40.4,0-80.7,0.6-121.1-0.2c-27.2-0.6-35.3-7.8-37.6-34.7c-2-23.9-1.5-47.9-1.6-71.9
	c-0.3-56.7-0.5-113.5-0.4-170.2c0-19.8-0.7-41,21.4-50.6c20.8-9,36.5,5.2,49.2,17.8c76.5,76.2,152.2,153.1,227.5,230.3
	c9.7,10,17.9,22.3,23.8,35c10.2,21.9,0.4,39.9-23.9,42.3c-26,2.6-52.3,2-78.5,2.4c-19.6,0.3-39.3,0.1-58.9,0.1
	C3021.9,1174.4,3021.9,1174.3,3021.9,1174.3z M2922.2,926.4c-9.7,21.7-11.3,160.3-2.9,192.5c38.9,5.6,165.2,3.1,189.8-4.9
	C3048.5,1048.4,2988.2,985.1,2922.2,926.4z"/>
<path d="M1086.7,1004.8c0,39.2,0.5,78.5-0.1,117.7c-0.7,43-7.4,50.8-48.9,51.4c-79.6,1-159.2,0.7-238.8,0.8
	c-16.9,0-33.1-1.8-40.8-20.4c-7.5-18.1,2-31.5,12.5-44.5c62.8-77.2,133.3-146.8,206.4-214.1c16-14.8,32.5-29.1,48.8-43.5
	c12.1-10.7,25.4-17.6,41.7-10.1c16.4,7.5,19.2,22.5,19.3,38.4c0.2,41.4,0.1,82.9,0.1,124.3
	C1086.8,1004.8,1086.7,1004.8,1086.7,1004.8z M1034.8,926.2c-3.1-1.2-6.1-2.4-9.2-3.6c-16.9,15-34.1,29.8-50.7,45.1
	c-16.8,15.5-33.5,31.1-49.6,47.3c-16.9,17-33.5,34.2-49.2,52.3c-14.1,16.2-36.2,27.1-39.6,52.2c52.3,6.3,176.4,4.1,198.3-2.9
	C1034.8,1052.9,1034.8,989.5,1034.8,926.2z"/>
<path d="M2444.5,2796.2c2.6-2.8,7.3-12.1,14.1-14c12.3-3.6,22.5,6.7,22.2,20.7c-0.2,11.7-1.2,24.8-16.3,27.6
	C2453.5,2832.5,2445.4,2820.3,2444.5,2796.2z"/>
<path d="M2532.5,2787.5c3.8,3.8,14,9.7,16.7,18c3.9,12-10.7,25.9-23.6,25.3c-13.8-0.7-18.9-9.8-18.9-22
	C2506.7,2796.1,2512.3,2787.8,2532.5,2787.5z"/>
<path d="M2395.4,2832.1c-11.9-0.7-17.5-9.2-18.5-21.2c-1-12,9.3-22,22.7-22.8c10.5-0.7,16.3,4.1,16.9,14.9
	C2417.3,2818.4,2408.6,2831.7,2395.4,2832.1z"/>
<path d="M1430.4,2827.6c4.4-13.1,6.6-25.9,12.7-36.3c6-10.2,17.6-13.4,28.4-5.9c10.8,7.6,10.7,18.2,4,28.7
	C1466.6,2828.3,1454.7,2835.8,1430.4,2827.6z"/>
<path d="M1403.1,2781.3c6.4,34.3-1.1,46-29.2,45.9C1373.3,2791.8,1378.4,2783.7,1403.1,2781.3z"/>
<path d="M1344.4,2784.8c-1.4,9.8-0.7,20.5-4.6,29.1c-4.4,9.6-14.7,12.9-24.7,6.6c-11-6.9-9.1-17.1-2-24.8c6-6.6,14.9-10.7,22.5-15.9
	C1338.5,2781.5,1341.5,2783.2,1344.4,2784.8z"/>
</svg>
