<?xml version="1.0" encoding="utf-8"?>
<!-- Generator: Adobe Illustrator 24.3.0, SVG Export Plug-In . SVG Version: 6.00 Build 0)  -->
<svg version="1.1" id="Layer_1" xmlns="http://www.w3.org/2000/svg" xmlns:xlink="http://www.w3.org/1999/xlink" x="0px" y="0px"
	 viewBox="0 0 4000 4000" style="enable-background:new 0 0 4000 4000;" xml:space="preserve">
<path d="M653.5,2010.6c3.4-268.1,68.5-518.7,204.5-749.7c137.2-233.2,323.2-417.9,557.4-554.1c172-100.1,357.5-161.3,553.5-189.2
	c143.6-20.4,288-17.8,431.7,5.6c193.9,31.6,376,96.1,545.4,195.4c129,75.7,244.7,167.9,344.9,279.6
	c121.3,135.3,216.4,286.9,283.2,455.5c69.6,175.9,100.6,359.1,98.2,548.7c-2.5,203.4-41.1,398.6-126.3,583.4
	c-137,297.4-343.6,531.8-630.3,694.4c-177.9,100.9-367.9,162.9-569.9,189.4c-140,18.4-280.1,14.2-419.4-7.4
	c-163.4-25.2-320.5-71.8-465.8-151.7c-206.3-113.5-387.1-257.8-525.9-450.5c-67.6-93.8-128.1-192.1-171.3-299.6
	c-45.5-113.1-79.1-229.9-93.3-351.4C662.5,2143.2,659,2076.8,653.5,2010.6z M2194.4,590.2c-118.9,0.5-212,8.1-303.8,27.5
	c-225.2,47.7-429.1,141.2-610.3,284.3c-195.4,154.3-338.2,347.9-434.8,576c-82.4,194.6-116.1,397.9-102.4,609.1
	c6.8,105.2,21.7,209,53.3,309.5c100.1,318.1,291,568.4,566.4,755.7c241.3,164.1,508.9,240.4,798.8,243.1c104.3,1,207-13.5,309-35.3
	c212.1-45.3,402.4-136.8,574.3-267.6c175.4-133.5,306.5-302.6,402.6-500.5c116.3-239.3,158.8-491.7,131.2-754.6
	c-26.3-250.1-116.3-476.9-268.8-678.4c-105.3-139.2-230.1-257.6-377.6-349.9C2699.6,663.4,2443.9,593,2194.4,590.2z"/>
<path d="M2492.7,3497.8c-129.7,53-478.8,60.1-628.7,12.1c104.3,18.5,209,29,315,26.8C2285,3534.4,2389.1,3518.5,2492.7,3497.8z"/>
<path d="M1925.7,486.5c13.2-4.7,26.1-11.6,39.6-13.6c129.7-19.9,260-25.4,390.7-13c94.8,9.1,189.4,20.3,281,48.6
	c2.8,0.9,5.4,2.1,7.9,5.1c-238.2-58.7-478-71.5-719.8-27.7L1925.7,486.5z"/>
<path d="M665.6,2395.7c-4.8-8.5-12.1-16.5-13.9-25.6c-9.9-50.8-18-101.9-27.5-152.8c-15.5-82.3-12.6-165.2-10.7-248.2
	c0.7-28.9,3.8-57.8,10.5-86.5c-1.5,56.5-5.4,113-3.9,169.4c1.5,57.9,5.9,116,13.5,173.4c7.6,57.3,20.7,113.9,31.5,170.8
	L665.6,2395.7z"/>
<path d="M2133.9,397.1c-116.1,5.4-230.3,20.5-343,49.7c27.3-7.7,54.4-16.5,82-22.9c28.1-6.5,56.7-11.5,85.3-15.8
	c29.6-4.5,59.3-8.7,89.2-10.6C2076.2,395.7,2105.1,397.1,2133.9,397.1z"/>
<path d="M3691.1,2231.2c5.2-65.7,12.2-131.3,15.1-197.2c2.1-47.3-1.1-94.9-2-142.4c0,0,0,0.1,0,0.1c2.8,10.6,7.9,21.1,8.1,31.7
	c1.2,70.1,5.1,140.3-5.5,210.2c-4.2,27.4-4.1,55.5-6.9,83.2C3699.5,2221.8,3694.2,2226.4,3691.1,2231.2L3691.1,2231.2z"/>
<path d="M3679.7,1696.3c2.8,3.8,7.8,7.4,8.2,11.4c5.8,61.3,11.1,122.7,16.4,184.1c0,0,0-0.1,0-0.1c-6.1-50-12.2-100-18.3-150.1
	c-1.9-15.3-3.9-30.6-5.8-46L3679.7,1696.3z"/>
<path d="M578.8,2263.8c-5.1-15.2-12.8-30-14.8-45.5c-4.6-35.7-6.4-71.7-6.2-108.3c1.1,5.5,2.7,10.9,3.4,16.4
	c5.8,45.9,11.5,91.9,17.2,137.9C578.4,2264.3,578.8,2263.8,578.8,2263.8z"/>
<path d="M665.1,2396.3c14.1,42.6,28.4,85.1,42.3,127.7c2.5,7.6,3.8,15.7,5.6,23.6c0,0,0.8-0.7,0.8-0.7c-3.6-4.6-8.7-8.7-10.6-14
	c-12.7-35.6-25.3-71.3-36.6-107.3c-2.9-9.1-0.9-19.8-1.1-29.8C665.6,2395.7,665.1,2396.3,665.1,2396.3z"/>
<path d="M3680.2,1695.7c-11.7-51.9-23.4-103.8-35-155.6c16.2,51.1,37.8,101,34.6,156.2C3679.7,1696.3,3680.2,1695.7,3680.2,1695.7z"
	/>
<path d="M722.5,1416.1c15.2-38.8,30.3-77.6,45.5-116.4c2.3,0.9,4.7,1.8,7,2.7c-6.1,14.8-12.3,29.5-18.2,44.3
	c-6.9,17.2-12.9,34.8-20.5,51.6c-3,6.6-9.4,11.6-14.2,17.3C722,1415.6,722.5,1416.1,722.5,1416.1z"/>
<path d="M2334.2,3578.3c39.3-5.9,78.7-11.7,118-17.6c0.3,1.6,0.5,3.1,0.8,4.7c-39.6,6.9-79.1,13.7-118.7,20.6
	C2334.3,3583.4,2334.3,3580.9,2334.2,3578.3z"/>
<path d="M3301.5,900.8c-21.7-21.2-43.4-42.4-65.1-63.7c1.1-1.1,2.1-2.2,3.2-3.3c21.8,21.5,43.6,43,65.4,64.5
	C3303.8,899.1,3302.7,899.9,3301.5,900.8z"/>
<path d="M3337.8,3024.2c-22,22.2-44,44.3-66.1,66.5c-0.2-0.2-0.4-0.3-0.6-0.5c22.1-21.9,44.2-43.8,66.2-65.7
	C3337.5,3024.3,3337.7,3024.2,3337.8,3024.2z"/>
<path d="M1765.3,525.6c1.9-11.6,12.2-13,20.5-15.1c23.8-6.3,47.8-11.3,71.9-16.7c0.1,0.1-0.5-0.3-0.5-0.3c-4.4,3.1-8.3,7.6-13.1,9.1
	c-26.1,8-52.5,15.4-78.9,22.8C1765,525.1,1765.3,525.6,1765.3,525.6z"/>
<path d="M837.9,1182.3c13.6-24.5,27.2-49,40.8-73.4c2.4,1.5,4.8,3,7.3,4.4c-16.3,22.7-28.4,48.2-48.7,68.4
	C837.3,1181.7,837.9,1182.3,837.9,1182.3z"/>
<path d="M714.5,1458.6c-9.5,27.6-19.1,55.2-28.6,82.9c0,0,0.6,0.7,0.6,0.7c6.2-24.4,12-48.8,18.8-73c1.1-3.9,6.5-6.6,9.9-9.9
	C715.1,1459.3,714.5,1458.6,714.5,1458.6z"/>
<path d="M641.1,1773.5c-4,23-7.9,45.9-11.9,68.9C627.1,1818.4,622.7,1794,641.1,1773.5C641.1,1773.6,641.1,1773.5,641.1,1773.5z"/>
<path d="M1469.6,3381.6c-14.5-8.7-29.3-17-43.4-26.2c-7-4.5-13-10.7-19.4-16.2c0,0-0.7,0.7-0.7,0.7c18.5,9.2,37.3,17.8,55.4,27.9
	c3.9,2.2,5.1,9.4,7.7,14.2C1469.2,3382,1469.6,3381.6,1469.6,3381.6z"/>
<path d="M798.5,1243c13.1-20.2,26.3-40.5,39.4-60.7c0,0-0.7-0.6-0.7-0.6c-9.5,22.6-14.6,48.1-39.5,60.6
	C797.8,1242.4,798.5,1243,798.5,1243z"/>
<path d="M1023.3,3047.1c12.8,11.9,25.5,23.8,38.3,35.8c-1.1,1.3-2.2,2.5-3.4,3.8c-12.9-12.3-25.8-24.7-38.7-37
	C1020.8,3048.7,1022.1,3047.9,1023.3,3047.1z"/>
<path d="M1539,3412c-23-10.2-46-20.4-69.2-30.5c-0.2,0.1-0.6,0.5-0.7,0.7c3.7-1.1,8.4-4.3,11.2-3.1c20.6,8.8,44.4,12.5,58.1,33.4
	L1539,3412z"/>
<path d="M1182.7,3187c14.5,11.3,29,22.7,43.5,34c-1.2,1.5-2.4,3.1-3.7,4.6c-14.8-11.2-29.6-22.5-44.4-33.7
	C1179.7,3190.3,1181.2,3188.6,1182.7,3187z"/>
<path d="M1691,550.5c0.6-1.9,0.7-4.8,2-5.6c22.2-13.2,44.1-27.7,72.2-19.5c0.1,0.1-0.2-0.3,0-0.2
	C1740.5,533.7,1715.7,542.1,1691,550.5C1690.9,550.4,1691,550.5,1691,550.5z"/>
<path d="M2799.8,567.1c-16.2-5.8-32.7-11-48.6-17.5c-5.8-2.4-10.4-7.6-15.5-11.6l-0.6,0.6c19.6,6.6,39.3,13,58.6,20.2
	c2.6,1,3.7,5.8,5.5,8.9L2799.8,567.1z"/>
<path d="M1759.8,3484.3c17.5,4.8,35,9.6,52.5,14.4c-0.3,1.2-0.5,2.5-0.8,3.7c-18.4-4.3-36.8-8.6-55.2-12.9
	C1757.5,3487.8,1758.7,3486,1759.8,3484.3z"/>
<path d="M3691.1,2231.2c-0.9,21.6-1.5,43.1-3.3,64.6c-0.3,3.6-6.1,6.8-9.4,10.2c0,0,0,0.1,0,0.1
	C3682.7,2281.1,3686.9,2256.2,3691.1,2231.2C3691.1,2231.2,3691.1,2231.2,3691.1,2231.2z"/>
<path d="M641.1,1773.6c-5.1-21.6-4.4-42.7,8.8-62.5C646.9,1731.9,644,1752.7,641.1,1773.6C641.1,1773.5,641.1,1773.6,641.1,1773.6z"
	/>
<path d="M2735.7,538c-19.6-3.6-39.3-7.1-58.9-10.7c21.3-4.1,39.9,3.2,58.2,11.4C2735,538.6,2735.7,538,2735.7,538z"/>
<path d="M1552.2,593.5c-11.2,17.6-30.1,20-49,22.3c16.6-7.2,33.1-14.5,49.7-21.7L1552.2,593.5z"/>
<path d="M3678.5,2306c3,22.6,6.2,45.2-11.8,64c0.1,0.1,0.5,0.8,0.5,0.8c3.8-21.5,7.6-43.1,11.4-64.6
	C3678.5,2306,3678.5,2306,3678.5,2306z"/>
<path d="M3593.3,2625.4c-6.1,14.3-12.2,28.6-18.3,42.9c-1.8-0.7-3.6-1.5-5.4-2.2c6-14.3,12-28.7,18-43
	C3589.5,2623.9,3591.4,2624.6,3593.3,2625.4z"/>
<path d="M970.4,2992.8c8,8.4,16,16.8,24,25.2c-0.9,0.9-1.7,1.8-2.6,2.6c-7.4-9-14.9-17.9-22.3-26.9
	C969.8,2993.4,970.1,2993.1,970.4,2992.8z"/>
<path d="M3248.7,3110c-11.2,9.7-22.4,19.4-33.5,29.2c-1.3-1.6-2.6-3.2-4-4.8c11.2-9.7,22.4-19.4,33.5-29.1
	C3246.1,3106.8,3247.4,3108.4,3248.7,3110z"/>
<path d="M1925.2,485.9c-22.6,2.6-45.2,5.1-67.8,7.6c-0.1-0.1,0.5,0.3,0.4,0.2c22.6-2.2,44-16,68-7.3
	C1925.7,486.5,1925.2,485.9,1925.2,485.9z"/>
<path d="M578.4,2264.3c4.7,20.2,9.4,40.4,13.9,60.7c-0.1,0.2,0.3-0.1,0.3-0.1c-20.6-16.6-18.2-38.6-13.9-61
	C578.8,2263.8,578.4,2264.3,578.4,2264.3z"/>
<path d="M971.5,998.9c6.9-8.2,13.8-16.3,20.8-24.5c1.3,1.1,2.7,2.2,4,3.3c-7,8.1-13.9,16.3-20.9,24.4
	C974.1,1001.1,972.8,1000,971.5,998.9z"/>
<path d="M3643.8,2472.3c1.6-16.5,0.5-34,16.3-45.4l-0.5-0.6c-5.5,15.1-11,30.1-16.5,45.2C3643.1,2471.5,3643.8,2472.3,3643.8,2472.3
	z"/>
<path d="M924.9,1057.2c8.1-11.6,16.1-23.1,24.2-34.7c1.6,1.3,3.1,2.5,4.7,3.8c-8.2,11.5-14,24.9-29.6,30.2
	C924.2,1056.5,924.9,1057.2,924.9,1057.2z"/>
<path d="M3619.9,2549c-4.3,14.4-8.5,28.8-12.8,43.1c1.7-15.1-2.7-32.7,13.6-42.4C3620.7,2549.7,3619.9,2549,3619.9,2549z"/>
<path d="M3220.1,825.1c-9.1-8.1-18.2-16.2-27.3-24.3c1-1.2,2.1-2.5,3.1-3.7c9.5,7.9,19,15.8,28.5,23.8
	C3222.9,822.3,3221.5,823.7,3220.1,825.1z"/>
<path d="M1054.8,913.2c8-6.9,16-13.9,24-20.8c0.9,0.9,1.7,1.8,2.6,2.7c-7.6,7.3-15.3,14.6-22.9,21.9
	C1057.3,915.7,1056.1,914.5,1054.8,913.2z"/>
<path d="M3660.1,2426.9c-9.2-20.1,3.9-37.4,7.1-56c-0.1-0.1-0.5-0.8-0.6-0.9c-2.5,18.6-4.9,37.4-7.2,56.2
	C3659.6,2426.3,3660.1,2426.9,3660.1,2426.9z"/>
<path d="M1538.5,3412.4c17-7,28.1,5.2,39.9,14.8c-13-5.2-26-10.3-39.2-15.4C1539,3412,1538.5,3412.4,1538.5,3412.4z"/>
<path d="M2881.5,601.8c-10-4.5-20-9-30.1-13.5c0.7-1.6,1.3-3.3,2-4.9c10,4.5,20,9,30.1,13.4C2882.9,598.5,2882.2,600.1,2881.5,601.8
	z"/>
<path d="M3565.1,1305.4c-4.3-8.3-8.5-16.7-12.8-25c1.1-0.6,2.2-1.2,3.3-1.8c4.4,8.3,8.8,16.6,13.1,24.8
	C3567.5,1304.1,3566.3,1304.7,3565.1,1305.4z"/>
<path d="M686,1541.5c-1.4,12.8-2.8,25.7-4.2,38.5c-2.5-0.5-4.9-1-7.4-1.6c4.1-12,8.2-24,12.2-36.1
	C686.5,1542.2,686,1541.5,686,1541.5z"/>
<path d="M662.1,1654.6c-2.2,9.5-4.5,18.9-6.7,28.4c-1.5-0.3-3-0.6-4.4-0.9c1.9-9.8,3.9-19.7,5.8-29.5
	C658.5,1653.3,660.3,1654,662.1,1654.6z"/>
<path d="M605,2368.2c-17.8-12-19.3-17.1-12.5-43.1c0.1-0.1-0.3,0.2-0.1,0C596.6,2339.3,600.8,2353.8,605,2368.2
	C604.9,2368.3,605,2368.2,605,2368.2z"/>
<path d="M3632.4,2511.5c-4.2,12.5-8.4,24.9-12.5,37.4c0,0,0.8,0.7,0.8,0.7c-2.7-14.7,2.3-27,12.5-37.5L3632.4,2511.5z"/>
<path d="M3151.5,764.6c10,5.8,20.1,11.5,30.1,17.3c-1.2,1.8-2.3,3.5-3.5,5.3c-10-5.9-21.4-10-26-23.2L3151.5,764.6z"/>
<path d="M617,2412.9c-20.8-10.4-17.5-27.3-12-44.7c0,0-0.1,0,0,0c3.9,15,7.8,30.1,11.6,45.1L617,2412.9z"/>
<path d="M3344.3,951.6c-4.8-5.6-9.5-11.3-14.3-16.9c1.1-0.9,2.2-1.8,3.3-2.7c4.7,5.7,9.4,11.4,14.1,17.1
	C3346.3,950,3345.3,950.8,3344.3,951.6z"/>
<path d="M663.1,1628.2c1.8-8.4,3.6-16.8,5.4-25.3c1.3,0,2.6-0.1,3.8-0.1c0.4,2.6,1.3,5.3,1,7.8c-0.3,2.9-1.6,5.8-2.6,8.6
	c-1.2,3.4-2.6,6.7-3.9,10.1C665.5,1628.9,664.3,1628.6,663.1,1628.2z"/>
<path d="M1123.2,3144.8c-5.8-4.9-11.6-9.8-17.5-14.6c0.8-1.1,1.7-2.2,2.5-3.3c6,4.5,12.1,9,18.1,13.6
	C1125.3,3141.9,1124.3,3143.4,1123.2,3144.8z"/>
<path d="M1160.8,3175.8c-6.8-5.3-13.5-10.7-20.3-16c0.9-1.3,1.9-2.7,2.8-4c6.8,5,13.6,9.9,20.4,14.9
	C1162.7,3172.4,1161.7,3174.1,1160.8,3175.8z"/>
<path d="M3633.2,2512.2c3.6-13.3,7.2-26.6,10.7-39.9c0,0-0.7-0.8-0.8-0.8c2,14.8-0.3,28.5-10.7,40
	C3632.4,2511.5,3633.2,2512.2,3633.2,2512.2z"/>
<path d="M616.5,2413.4c2.4,10.7,4.8,21.4,7.2,32.1c-10.2-9.4-13.3-20-6.9-32.4C617,2412.9,616.5,2413.4,616.5,2413.4z"/>
<path d="M3517.6,2770.6c2.8-5.4,5.5-10.8,8.3-16.2c1.3,0.7,2.6,1.4,3.9,2.1c-3.1,5.2-6.2,10.4-9.3,15.6
	C3519.5,2771.6,3518.6,2771.1,3517.6,2770.6z"/>
<path d="M1650.1,559.8c11.5-12.6,25-16.1,40.9-9.3c0,0,0-0.1,0-0.1c-13.9,2.9-27.7,5.7-41.6,8.6L1650.1,559.8z"/>
<path d="M2971.9,641.3c6.6,3.8,13.5,7.9,21.1,12.3c-2.4,1.4-4.3,3.2-5,2.8c-6.2-3.4-12.2-7.1-18.3-10.8c-0.6-0.4-1.4-1.8-1.2-2.1
	C2969.2,642.8,2970.2,642.4,2971.9,641.3z"/>
<path d="M1331.6,713.2c-5.7,3.8-11.4,7.6-17.1,11.5c-0.7-0.9-1.4-1.8-2.1-2.6c5.1-4.3,10.2-8.6,15.4-12.9
	C1329,710.4,1330.3,711.8,1331.6,713.2z"/>
<path d="M1406.8,3339.3c-9.2-3.2-18.5-6.4-27.7-9.6c1.1-2.1,2.2-4.1,3.3-6.2c7.9,5.5,15.7,11,23.6,16.5
	C1406.1,3340,1406.8,3339.3,1406.8,3339.3z"/>
<path d="M3612.1,1411.9c2.2,7.3,4.5,14.5,6.7,21.8c-1.2,0.4-2.4,0.7-3.6,1.1c-2.3-7.2-4.6-14.5-6.8-21.7
	C3609.6,1412.7,3610.8,1412.3,3612.1,1411.9z"/>
<path d="M722,1415.6c7.1,16-2.4,29.1-7.5,43c0.1,0.1,0.7,0.7,0.8,0.8c-7.5-16,3.9-28.8,7.4-43.1C722.5,1416.1,722,1415.6,722,1415.6
	z"/>
<path d="M1119,864.7c-4.3,3.4-8.5,6.8-12.8,10.2c-0.8-1-1.6-2-2.4-3c4.1-3.8,8.2-7.5,12.3-11.3C1117.1,862,1118.1,863.4,1119,864.7z
	"/>
<path d="M643,2506.1c4.5,6.6,9.1,13.2,13.6,19.8c-1.9,0.9-3.7,1.7-5.6,2.6c-2.4-7.7-4.9-15.4-7.3-23.1L643,2506.1z"/>
<path d="M1135.7,845.2c3.6-3.1,7.2-6.2,10.7-9.2c0.8,0.7,1.6,1.5,2.4,2.2c-3,3.5-6,7-9,10.5C1138.4,847.5,1137.1,846.3,1135.7,845.2
	z"/>
<path d="M1164.4,822c4.5-3.5,8.9-7.1,13.4-10.6c2,2.1,4.1,4.1,6.1,6.2c-4.9,2.9-9.8,5.8-14.6,8.7
	C1167.6,824.8,1166,823.4,1164.4,822z"/>
<path d="M3152.1,764c-8.2-6.3-16.4-12.5-24.5-18.8l-0.7,0.7c8.2,6.3,16.4,12.5,24.6,18.8C3151.5,764.6,3152.1,764,3152.1,764z"/>
<path d="M3127.6,745.1c-7.5-3.7-14.9-7.4-22.4-11.1c1.3-1.9,2.6-3.7,3.9-5.6c5.9,5.8,11.9,11.5,17.8,17.3
	C3126.9,745.8,3127.6,745.1,3127.6,745.1z"/>
<path d="M713,2547.6c3.7,6.8,7.4,13.7,11.1,20.5c-1.7,0.6-3.3,1.3-5,1.9c-1.8-7.7-3.6-15.4-5.4-23.1
	C713.8,2546.9,713,2547.6,713,2547.6z"/>
<path d="M1552.9,594.1c7.9-3.3,15.9-6.5,23.8-9.8c0.5,1.8,0.9,3.7,1.4,5.5c-8.6,1.3-17.1,2.5-25.8,3.7
	C1552.2,593.5,1552.9,594.1,1552.9,594.1z"/>
<path d="M2799.2,567.7c9.4,0.7,18.8,1.3,28.2,2c-0.4,2.3-0.8,4.6-1.2,7c-8.7-3.3-17.4-6.5-26.2-9.7
	C2799.8,567.1,2799.2,567.7,2799.2,567.7z"/>
<path d="M1649.4,559c-7.5,3.7-15.1,7.4-22.6,11.1c-0.6-1.7-1.2-3.5-1.8-5.2c8.4-1.7,16.7-3.5,25.1-5.2
	C1650.1,559.8,1649.4,559,1649.4,559z"/>
<path d="M3178.4,3167.5c4.6-6.2,9.1-12.4,13.7-18.7c1.6,1.6,3.2,3.1,4.8,4.7c-6.4,4.4-12.8,8.8-19.2,13.2
	C3177.7,3166.7,3178.4,3167.5,3178.4,3167.5z"/>
<path d="M3614.6,1274.9c-2.3-4.9-4.6-9.8-6.9-14.7c1.1-0.5,2.2-1.1,3.3-1.6c2.5,4.5,5.1,9.1,7.6,13.6
	C3617.3,1273,3616,1273.9,3614.6,1274.9z"/>
<path d="M797.8,1242.4c-1.1,7.6-2.1,15.3-3.2,22.9c-2.3-0.8-4.6-1.6-6.9-2.4c3.6-6.6,7.3-13.2,10.8-19.8
	C798.5,1243,797.8,1242.4,797.8,1242.4z"/>
<path d="M1287.8,3270.5c-5.5-3.9-11.1-7.8-16.6-11.7c0.8-1.2,1.6-2.3,2.4-3.5c5.5,3.9,11.1,7.8,16.6,11.7
	C1289.4,3268.2,1288.6,3269.3,1287.8,3270.5z"/>
<path d="M924.2,1056.5c-3.6,7.5-7.2,14.9-10.9,22.4c-2-1.4-4.1-2.8-6.1-4.3c5.9-5.8,11.8-11.6,17.8-17.4
	C924.9,1057.2,924.2,1056.5,924.2,1056.5z"/>
<path d="M2749.1,3413.4c-4.2,2.2-8.3,4.4-12.5,6.6c-0.4-0.8-0.8-1.6-1.3-2.4c4.2-2.2,8.3-4.4,12.5-6.6
	C2748.3,3411.8,2748.7,3412.6,2749.1,3413.4z"/>
<path d="M1624.6,3440.6c6.2,2.7,12.3,5.4,18.5,8.1c-0.4,1.2-0.9,2.3-1.3,3.5c-6.2-2.4-12.4-4.7-18.6-7.1
	C1623.6,3443.6,1624.1,3442.1,1624.6,3440.6z"/>
<path d="M643.7,2505.4c-4-7.4-8-14.9-11.9-22.3c2-0.7,3.9-1.3,5.9-2c1.8,8.3,3.6,16.6,5.4,24.9
	C643,2506.1,643.7,2505.4,643.7,2505.4z"/>
<path d="M2303.2,3587.1c-4.6,0-9.1,0-13.7,0c0-0.3,0-0.7,0-1c4.6,0,9.1,0,13.7,0C2303.2,3586.4,2303.2,3586.8,2303.2,3587.1z"/>
<path d="M3177.7,3166.7c-5.7,4.8-11.4,9.7-17,14.5c-1.1-1.9-2.2-3.8-3.3-5.7c7-2.7,14-5.5,21-8.2
	C3178.4,3167.5,3177.7,3166.7,3177.7,3166.7z"/>
<path d="M3446.7,1985c-6.7,276.3-90.9,524.9-252.4,748.1c-102.7,141.9-230.1,255.2-381.2,344c-163.3,95.9-339.3,150.1-526.5,170.4
	c-151.4,16.4-300.2,2.5-448.2-33.8c-165.1-40.6-314.7-112-450.1-213.4c-184.6-138.3-322-314-410.1-527.5
	c-63.8-154.5-97.8-315.3-95.9-482.8c2.5-228.7,62.9-442.1,182.2-636.3c186.6-303.5,454.5-500.6,800.7-586.5
	c255.3-63.3,507-43.7,753.8,46.5c134.2,49,256.7,118.5,366,209.7c110,91.8,202.5,199.5,277.7,322
	c82.6,134.7,135.6,280.3,161.6,435.4C3435.7,1848.2,3439.5,1916.9,3446.7,1985z M2189,3239.8c39.6-4.2,103.9-8.8,167.5-17.9
	c201.2-28.8,384.9-103.8,549.6-221.6c191.5-137,328.3-319.3,421.7-534.2c54.2-124.7,85-255.4,95.5-391.5
	c10.7-138.7-5.4-273.9-39.8-407.6c-31.9-123.8-84.9-238.2-154.9-345.4c-93.9-143.9-210-266.1-353-360.8
	c-158.9-105.2-333.6-171.6-523-198.7c-147.6-21.1-294.8-18.7-440.3,11.5c-310.3,64.5-564.2,223.2-757.4,474.1
	c-156.4,203.1-241.9,435.1-253.7,691.6c-10.1,220.1,32.5,429.9,136.5,625.8c95.7,180.4,226.3,329.8,393.5,447.4
	C1651.2,3167.1,1898.1,3234.2,2189,3239.8z"/>
<path d="M2575.3,2219.4c9.8,7.3,19.3,15,29.3,22c107.2,75.2,214.5,150.2,321.6,225.5c22.1,15.5,44.3,31.2,64.5,49
	c17.8,15.6,35.2,32.7,48.7,52.1c41.2,59.1,38,116.7-9.4,171.2c-24.5,28.2-50.9,55-78.6,80c-51.6,46.7-105.3,91.2-165.6,126.6
	c-12.5,7.3-25.7,14-39.3,18.6c-46.8,15.8-90,2.7-117.7-38.4c-23.2-34.4-45.4-69.9-63.7-107.1c-57.4-116.5-112.7-234-169.1-350.9
	c-18-37.3-36.8-74.1-55.3-111.2c-1.9,0.8-3.8,1.6-5.7,2.4c13,34.4,26,68.8,39.1,103.3c42.3,111.6,85.6,222.9,126.2,335.1
	c11.6,31.9,17.4,66.3,22.4,100.1c12.2,81.6-28.8,153.1-106.7,179.1c-106.4,35.5-215.5,44.2-325.4,15.5
	c-75.8-19.8-113.5-65.2-111.1-144.3c2-65.1,9.4-130.7,21-194.9c32.8-180.9,69-361.1,104.1-541.5c3.6-18.3,7.5-36.9,14.7-53.9
	c22.5-53.9,70.8-65,114.7-27.5c5.4,4.6,10.6,9.6,17.4,15.9c2.9-12,4.1-23,8.1-32.8c10.8-26,34.3-38.5,62.6-34.4
	c10.1,1.5,20.1,3.7,34,6.4c-16.7-20.4-33.6-37.1-27-64.3c5.9-24.4,21.9-39,48.2-53.5c-9.8-1.4-13.1-2.4-16.3-2.2
	c-53.9,3.7-87.6-44.1-63.5-93.2c10.4-21.1,25.4-40.8,41.8-57.7c84-86.5,168.6-172.3,253.9-257.5c62.5-62.4,126.1-123.8,190-184.8
	c40.6-38.8,82.6-76.2,133.8-101.1c26.5-12.9,54.2-20.7,84.3-16.2c25.6,3.9,47.1,15.5,66.2,32.4c29.9,26.5,54.3,57.4,74.1,91.8
	c40.5,70.5,75.3,143.5,94.3,223.1c10.1,42.4,6.6,82.4-18.8,119.3c-22.6,32.8-57.1,48.2-92.6,59.8c-54.2,17.8-109,34.3-164.4,48
	c-127,31.4-254.6,60.7-381.9,91c-7,1.7-13.9,4.1-20.2,10c31.3-5.2,62.8-9.5,93.9-15.6c122.2-24.1,244.3-48.9,366.5-73.1
	c53.9-10.7,107.8-21.9,162.2-30.2c75.8-11.6,111.7,36.6,121.2,88.1c5.2,28.5,10.5,57.7,10.1,86.5c-1.8,121.1-16.6,240.5-54.7,356
	c-9,27.3-22.2,54-38.3,77.8c-28,41.5-69.4,57.2-119.2,51.1c-53.6-6.7-102.3-28.1-149.4-52.2c-113.8-58-227.6-116.2-335.9-184.4
	c-11.3-7.1-23-13.5-34.5-20.3C2578.3,2215.7,2576.8,2217.6,2575.3,2219.4z M2367.4,2024c11.9,25.4,28.8,35.6,45.7,45.3
	c63,36.3,125.8,72.9,189.1,108.6c114.9,64.7,229.5,130.1,345.5,192.6c40.8,22,84.7,39.7,129,53.7c55.9,17.7,99.8-3.6,126.9-55.7
	c6.7-12.8,12.8-26.3,16.5-40.3c10.3-39.1,20.8-78.3,28.2-118c14.9-79.7,26.2-160.1,21.2-241.5c-1.6-26.6-6.8-53.7-15.4-78.9
	c-10.8-31.9-29-40.8-62.7-38.6c-6.2,0.4-12.4,1.6-18.5,2.8c-103.9,20.3-207.9,40.4-311.7,61.1c-98.8,19.7-197.3,40.4-296,60.4
	c-51.9,10.5-104.1,19.7-155.8,30.8C2396.1,2009.2,2383.7,2017,2367.4,2024z M3203,1647.1c-0.5-5.9-0.5-12.3-1.6-18.3
	c-2.2-11.2-4.5-22.4-7.8-33.3c-27.1-89.3-68.7-171.4-123.1-247c-8.4-11.7-18.7-22.3-29.5-31.8c-28.6-25.4-59.8-29.8-94.8-11.8
	c-60.7,31.2-113.2,73.3-162.5,119.6c-41.6,39.1-81.8,79.8-122,120.4c-88.4,89.4-176.6,178.9-264.2,268.9
	c-21,21.5-39.5,45.4-58.8,68.5c-7.6,9.2-11.9,19.5-5.4,31.5c7,13,19,10.2,30.2,9.8c3.1-0.1,6.2-0.7,9.2-1.3
	c30.5-6.4,61-12.4,91.4-19.4c130.4-30.2,260.9-60.1,391-91.4c79.7-19.2,159-39.9,237.9-62c24.6-6.9,48.4-19,70.6-32
	C3189.3,1702.3,3202.5,1677.8,3203,1647.1z M2292.5,2117.8c1.7,13.9,1.3,25.3,4.8,35.6c7.6,22.6,16.1,45,26,66.6
	c15.6,34,32.8,67.2,49,100.8c79.6,165.5,158.9,331.2,239,496.5c13.1,27,28.8,52.9,45.3,78c24.1,36.8,47.3,43.2,87.9,25.2
	c17-7.5,34.3-16.1,48.5-27.7c61-50,121.3-100.8,180.9-152.4c13.9-12,25.4-27.5,35.6-43c26.7-40.5,25-77.4-7.1-114
	c-18.4-20.9-39-40.7-61.6-56.9c-58.2-41.8-118-81.2-177.1-121.7c-90.7-62.3-180.8-125.5-272.1-186.9
	c-43.9-29.5-89.7-56.3-135.1-83.5C2338.8,2123.8,2320.4,2113.8,2292.5,2117.8z M2210.5,3068.6c78.7-3.5,150-14.7,196.2-34.1
	c59.5-24.9,82.4-64.7,73.9-128.1c-7.9-59.1-25.6-115.5-46.6-171c-50.1-132.1-99.8-264.4-150.7-396.3
	c-19.1-49.4-40.6-97.9-61.6-146.5c-5.3-12.3-11.8-24.4-19.5-35.4c-10.8-15.5-24-16.3-35.4-0.9c-7.2,9.6-12,21.9-14.9,33.7
	c-5.9,24.2-9.8,48.9-14.5,73.4c-35.3,185.7-71.4,371.3-105.1,557.4c-8.3,45.7-12.7,92.9-12,139.3c0.9,52.5,28.2,82.9,79.4,94
	C2136,3061.9,2173.5,3064,2210.5,3068.6z"/>
<path d="M1987.3,1773.9c19,25.8,41.5,49.7,56.3,77.7c27.5,51.9-4,99.3-62.7,99c-7.2,0-14.5,0-23,1.6c24.9,8.8,47.3,18.9,54.7,47.8
	c7.2,28.1-4.4,49.9-22.7,72.3c7.5,0,10.9,0.9,13.5-0.1c51.9-19.9,98.5,27,93.2,79.2c-3,29.9-8.4,59.7-15.8,88.8
	c-44.4,175.2-89.8,350.1-134.5,525.2c-12.1,47.3-22,95.2-34.7,142.3c-6.2,22.9-15.2,45.3-25.2,66.8c-17.7,38.2-50.6,53.6-90.9,54.1
	c-41.3,0.5-79.8-12.1-117.4-28c-67.3-28.5-129.3-66.4-189.8-107c-43.1-29-85.9-58.4-128.1-88.8c-28.8-20.8-55.2-44.7-72.9-76
	c-30.5-53.9-32.3-104.3,29.1-169.3c29-30.7,64.1-56.2,98.6-80.9c113.1-81.1,227.3-160.8,340.9-241.2c8-5.7,15.5-12.2,20.5-22.4
	c-15.6,9.4-31.3,18.5-46.7,28.1c-143.5,89.8-287,179.8-430.5,269.6c-25.8,16.1-53,28.9-84.1,30.1c-46.2,1.8-84.6-14.9-108.5-54.6
	c-16.9-28.2-30.8-59-40.9-90.3c-25.5-79.1-50.8-158.4-57.3-242c-4-51-4.5-101.8,8.6-151.7c19.5-74.3,66-114.9,142.2-124.1
	c73.7-9,147.3-3.8,220.8,3.4c71.3,7,142.6,14.1,214,20.9c10.1,1,20.3,0.1,34.1,0.1c-115.5-23.1-227.4-44.7-339-68.3
	c-32.3-6.8-64.6-16.6-94.9-29.6c-73.7-31.4-109.8-102.8-90.9-180.9c9-37,20.9-74.4,38-108.3c31.8-63,67.8-123.9,103.4-184.8
	c11.4-19.6,26-37.7,41.3-54.6c44.6-49.3,96.1-60.1,154.3-28.5c31.6,17.2,62.3,38.5,88.2,63.3c98,94.4,193.9,191,290.6,286.9
	c28,27.7,55.9,55.4,83.8,83.1c5.3,5.6,10.8,11.3,16.2,16.9c22.1,24.2,44.1,48.4,66.2,72.5
	C1986.6,1773.2,1987.2,1773.8,1987.3,1773.9z M1784,2990.8c44.5-4,63.3-16.8,77.6-57.9c6.8-19.6,12.5-39.6,17.4-59.8
	c21.5-88.7,41.2-177.9,63.9-266.3c31.8-123.6,66.1-246.5,98.2-370c8.1-31,14.2-62.9,17.1-94.7c2.8-31-13.1-42.5-42.9-32.4
	c-16.4,5.5-32,14.9-46.2,25c-37.2,26.5-72.8,55.2-110.2,81.4c-143.7,100.6-288.4,199.9-431.6,301.2c-32.8,23.2-63.5,50.5-91,79.8
	c-36.2,38.4-38.4,76.1-6.7,118.3c19,25.3,43.3,47.8,68.8,66.8c44.8,33.6,90.9,65.8,139,94.4c57,33.9,115.9,64.6,175.4,94
	C1734.6,2981.2,1760.1,2984.2,1784,2990.8z M1043,2094.9c3.6,35.8,5.5,62.8,9.3,89.5c11.6,81.7,40,158.9,65,237
	c5,15.7,13,30.7,21.5,44.8c21.3,35,45.3,44.2,84.5,32.8c12.9-3.7,25.7-8.8,37.3-15.3c36.3-20.2,72.8-40.2,107.8-62.4
	c151.9-95.9,303.5-192.3,454.8-289.2c42.8-27.4,84.5-56.6,126-86c10.3-7.3,25.8-14.9,21.9-30.9c-3.8-15.7-18.9-20.8-33.6-24
	c-3-0.7-6-1.7-9.1-2.2c-45.2-6.8-90.2-14.7-135.6-19.9c-141.3-16.5-282.7-33.1-424.2-47.4c-67.1-6.8-134.7-11.7-202.2-3.1
	c-53.1,6.7-91.6,33.4-105.5,87.2C1052.6,2037.8,1047.8,2070.6,1043,2094.9z M1973.5,1908c8.9-4.8,24.2-8.8,32.7-18.7
	c11.4-13.3-0.3-27.9-8.4-39.4c-11.9-16.9-24.9-33.4-39.3-48.2c-91.4-93.7-182.6-187.5-275.2-280c-68.3-68.3-138.2-134.9-207.9-201.7
	c-11.9-11.4-25.8-21-39.7-29.9c-43.7-28.2-81.2-24.6-118,12.8c-15.1,15.4-29,33-39.6,51.7c-36.8,65-72.5,130.7-107.5,196.8
	c-9.2,17.3-15.9,36.2-21.1,55.1c-25.2,91.8,7.1,149,98.1,175.3c113,32.7,229.4,48.7,345.1,67.8c109.6,18,219.6,33.5,329.4,50.2
	C1937.3,1902.1,1952.7,1904.7,1973.5,1908z"/>
<path d="M2163.7,1507.1c6.9-132.7,12.5-265.5,21.4-398.1c2.3-34.6,11.5-69.9,23.9-102.5c23-61,68.8-95.8,134.3-106.9
	c56.9-9.7,112.5-3,166.7,11c88.6,22.9,174.8,53.8,251.8,105.1c20.6,13.7,40.4,29.5,57.9,47c42.1,42.3,52.1,102,24.7,155
	c-13.2,25.6-29.9,50.3-49,71.8c-152.2,170.4-305.2,340.1-458.3,509.7c-13.2,14.6-28.2,27.6-42.9,40.8
	c-13.6,12.2-30.1,17.8-48.3,19.3c-39.5,3.1-66.8-16.7-72.7-56.1c-3.5-23.5-4.2-47.6-4.4-71.5c-0.5-74.8-0.2-149.6-0.2-224.4
	C2166.9,1507.2,2165.3,1507.2,2163.7,1507.1z M2209.7,1472.3c0,85.1-0.3,183.8,0.3,282.5c0.1,16.4,2.3,33.3,7.1,48.9
	c6.3,20.4,19.8,25.5,38.9,15.6c10.8-5.6,20.9-13.9,29.2-22.8c34.1-36.4,67.9-73.1,101-110.4c126.3-142.1,252.7-284.2,378.1-427.1
	c18.3-20.8,32.8-45.3,47.2-69.2c14.9-24.8,12.6-51.5-5.2-73.1c-19.6-23.8-41.4-46.7-65.7-65.5c-57.8-44.5-127.1-65-195.1-87.8
	c-53.6-18-108-29.8-165.1-26.3c-82.7,5.1-128.5,42.5-145,123.6c-7.6,37.5-12.1,76-14.1,114.3
	C2216.4,1269.6,2213.8,1364.1,2209.7,1472.3z"/>
<path d="M1987.3,1773.9c-0.1-0.1-0.7-0.7-1.9-1.7c-13.4-32.1-36.9-55-66.2-72.5c-5.5-5.7-10.9-11.4-16.2-16.9
	c-84.7-102-170-203.8-254-306.6c-27.5-33.7-53.6-69-77.1-105.6c-54.9-85.6-39.3-175.5,42.1-236.8c90.7-68.2,193.3-108.7,306.5-119.7
	c33.8-3.3,68.5-3.6,102.3-0.4c57.8,5.5,96.1,39.1,110.5,94.7c8.5,32.8,11.4,67.5,12.8,101.6c2.3,58.1,1.8,116.3,1.9,174.5
	c0.3,152.7,0.4,305.4,0.4,458.1c0,17.7,0.1,35.4-1.1,53c-1.7,24.8-13.9,42.3-37,53.1c-23.4,11-39.9-0.6-55.9-14.7
	C2031.9,1814.1,2009.7,1793.9,1987.3,1773.9z M2093.8,1818.1c15.4-18.8,15.7-37.5,15.6-56c-0.6-88.3-2.3-176.6-2.3-264.9
	c0-99.7,2.6-199.5,1.7-299.2c-0.5-52.8-4.5-105.8-9.7-158.4c-4.8-48.8-22.8-75.1-89.5-86.7c-11.1-1.9-22.8-1.8-34.2-1.4
	c-73.4,2.6-144.3,17.7-212.1,45.4c-47.1,19.3-92.8,41.9-132.3,75.1c-47.9,40.2-60.7,86.7-37.7,144.8c6.8,17.2,15.1,34.6,26.4,49.2
	c53.2,69.1,105.4,139.1,162.1,205.4c94.5,110.5,191.9,218.5,288.4,327.3C2076.5,1805.9,2085.1,1811.1,2093.8,1818.1z"/>
<path d="M2943.7,2061.4c53.7,2.8,107.5,5.7,161.2,8.5c0,0.4,0,0.9,0,1.3c-26.4,0-52.8,0.8-79.2-0.2c-27.9-1.1-55.7-4.1-83.5-6.2
	C2942.8,2063.7,2943.3,2062.5,2943.7,2061.4z"/>
<path d="M3193.5,2078.3c-17.3,0-34.5,0-51.8,0c0-0.5,0-1,0-1.5c17.3,0,34.5,0,51.8,0C3193.5,2077.3,3193.5,2077.8,3193.5,2078.3z"/>
<path d="M3078.5,2197.5c17.2,3,34.3,6.1,51.5,9.1c-18.3,2.8-36,2.8-50.9-9.7L3078.5,2197.5z"/>
<path d="M2760.2,2008.2c13.6,0,27.3,0,40.9,0c0,0.4,0.1,0.8,0.1,1.2c-13.6,0-27.3,0-40.9,0C2760.3,2009,2760.2,2008.6,2760.2,2008.2
	z"/>
<path d="M2893.1,2059.5c-12.9,0-25.8,0-38.8,0c0-0.3,0-0.5,0-0.8c12.9,0,25.9,0,38.8,0C2893.2,2058.9,2893.2,2059.2,2893.1,2059.5z"
	/>
<path d="M2819.5,1960.2c-13.1,0-26.3,0-39.4,0c0-0.6,0-1.2-0.1-1.8c13.4-0.7,26.7-1.3,40.1-2
	C2819.9,1957.7,2819.7,1958.9,2819.5,1960.2z"/>
<path d="M3079.1,2196.9c-16.7-1-33.3-2-50-3c0.4-2.7,0.8-5.3,1.1-8c16.1,3.9,32.1,7.8,48.2,11.6
	C3078.5,2197.5,3079.1,2196.9,3079.1,2196.9z"/>
<path d="M2695.1,1971c13.9-3.1,27.8-6.1,41.7-9.2c0.1,0.7,0.3,1.4,0.4,2.1C2723.2,1966.3,2709.1,1968.6,2695.1,1971L2695.1,1971z"/>
<path d="M2865.4,2003.7c-9.8,0-19.6,0-29.5,0c-0.1-0.6-0.1-1.2-0.2-1.9c9.5-0.6,19-1.2,28.6-1.8
	C2864.7,2001.3,2865.1,2002.5,2865.4,2003.7z"/>
<path d="M2694.6,2015.8c-6.9,0-13.9,0-20.8,0c0-0.3,0-0.7-0.1-1c6.8-0.4,13.6-0.7,20.4-1.1
	C2694.3,2014.4,2694.4,2015.1,2694.6,2015.8z"/>
<path d="M2928.8,1990.6c-10.7,3.3-21.4,6.7-32.1,10c-0.4-1.4-0.7-2.8-1.1-4.3C2906.7,1994.4,2917.8,1992.5,2928.8,1990.6
	L2928.8,1990.6z"/>
<path d="M2871.5,1953.5c-6.5,0-13.1,0-19.6,0c0-0.6,0-1.1,0-1.7c6.5,0,13.1,0,19.6,0C2871.5,1952.4,2871.5,1952.9,2871.5,1953.5z"/>
<path d="M2928.9,1990.6c10.9-0.6,21.9-1.2,32.8-1.8c0,0.6,0,1.2,0.1,1.8C2950.8,1990.6,2939.8,1990.6,2928.9,1990.6
	C2928.8,1990.6,2928.9,1990.6,2928.9,1990.6z"/>
<path d="M3077,1978.1c-4.2,0-8.4,0-12.6,0c0-0.3,0-0.6,0-0.8c4.2,0,8.4,0,12.6,0C3077,1977.5,3077,1977.8,3077,1978.1z"/>
<path d="M2897,2239.8c-6.4-4.2-12.8-8.4-21.7-14.2C2887.7,2226.2,2894.3,2230,2897,2239.8L2897,2239.8z"/>
<path d="M2695.1,1971c-9.5,0.5-19.1,1-28.6,1.5c0-0.9,0-1.9,0-2.8C2676,1970.1,2685.5,1970.6,2695.1,1971
	C2695.1,1971,2695.1,1971,2695.1,1971z"/>
<path d="M2896.9,2239.8c9.3,0.6,18.5,1.1,27.8,1.7c-0.1,1.5-0.3,3.1-0.4,4.6c-9.1-2.1-18.1-4.2-27.3-6.3
	C2897,2239.8,2896.9,2239.8,2896.9,2239.8z"/>
<path d="M2907.9,1945.4c5,0,9.9,0,14.9,0c0,0.5,0,1,0,1.6c-5,0-9.9,0-14.9,0C2907.9,1946.4,2907.9,1945.9,2907.9,1945.4z"/>
<path d="M3048.5,2298c-4.4-2.3-9.5-4.9-14.5-7.4c0.5-1.1,0.9-2.1,1.4-3.2c4.9,2,9.8,4,14.7,6.2c0.8,0.4,1.3,1.4,2,2.1
	C3051.2,2296.2,3050.4,2296.7,3048.5,2298z"/>
<path d="M3027.8,1984.3c-4.4,0-8.9,0-13.3,0c0-0.5-0.1-1-0.1-1.5c4.4-0.2,8.9-0.4,13.3-0.7
	C3027.7,1982.8,3027.7,1983.5,3027.8,1984.3z"/>
<path d="M2849.1,1491.9c-6.7,5.6-9.5,8-12.4,10.4c0.9-2.4,1.4-5,2.8-7C2840.2,1494.1,2842.5,1494,2849.1,1491.9z"/>
<path d="M2801.3,2755.6c-5.2-8.1-10.4-16.1-15.6-24.2c1.6-1,3.2-2,4.8-3c5,8.2,10,16.4,15,24.6
	C2804.1,2753.9,2802.7,2754.8,2801.3,2755.6z"/>
<path d="M2770.9,2710.8c-5.1-7.4-10.2-14.7-15.2-22.1c1.2-1,2.5-1.9,3.7-2.9c5.2,7.2,10.5,14.4,15.7,21.6
	C2773.6,2708.6,2772.2,2709.7,2770.9,2710.8z"/>
<path d="M2910.4,2573.9c-4.2-4-8.3-8-12.5-11.9c0.6-0.7,1.2-1.5,1.8-2.2c4.3,3.7,8.6,7.5,12.9,11.2
	C2911.8,2571.9,2911.1,2572.9,2910.4,2573.9z"/>
<path d="M2857.4,2671.8c-4.1-4.5-8.2-9-12.2-13.5c0.6-0.7,1.3-1.4,1.9-2c4.2,3.9,8.5,7.9,12.7,11.8
	C2859,2669.3,2858.2,2670.5,2857.4,2671.8z"/>
<path d="M2628.8,2492.3c2.8,3.4,5.5,6.7,8.3,10.1c-2,1.8-3.9,3.7-5.9,5.5c-3-3.5-6.1-7.1-9.1-10.6
	C2624.3,2495.7,2626.6,2494,2628.8,2492.3z"/>
<path d="M2147,2656.6c5.6-113,11.1-225.9,17-344.9c3.3,119.5-2.9,232.7-9.9,345.8C2151.7,2657.2,2149.3,2656.9,2147,2656.6z"/>
<path d="M2163.5,2781.2c0,76.2,0,152.4,0,228.7c-0.9,0-1.8,0-2.8,0c0-76.4,0-152.8,0-229.2C2161.7,2780.8,2162.6,2781,2163.5,2781.2
	z"/>
<path d="M2256.8,2820.9c3.1,7.1,8,14,9.1,21.4c6.5,42.7,12,85.4,13.2,128.9c-7.4-50.2-14.8-100.5-22.2-150.7L2256.8,2820.9z"/>
<path d="M2337.4,2807c-2.3-2-6.1-3.6-6.7-6c-11.8-44.2-23.2-88.5-34.7-132.8c0,0-0.6,0.7-0.6,0.7c5.7,14.8,12.7,29.2,17,44.3
	c8.9,31.2,16.4,62.9,24.5,94.3L2337.4,2807z"/>
<path d="M2256.9,2820.4c-3.2-26.3-6.5-52.7-9.7-79c2-0.2,4.1-0.3,6.1-0.5c1.2,26.6,2.4,53.1,3.6,79.8
	C2256.8,2820.9,2256.9,2820.4,2256.9,2820.4z"/>
<path d="M2336.9,2807.6c3.4,12.9,6.8,25.7,10.2,38.6c-2.1,0.3-4.2,0.7-6.2,1c-1.2-13.4-2.4-26.7-3.5-40.2
	C2337.4,2807,2336.9,2807.6,2336.9,2807.6z"/>
<path d="M2087.4,2658.7c0-9.6,0-19.2,0-28.8c0.4,0,0.7,0,1.1,0c0,9.6,0,19.2,0,28.8C2088.2,2658.7,2087.8,2658.7,2087.4,2658.7z"/>
<path d="M2286.6,2620.9c-5.1-10.4-10.1-20.9-15.2-31.3c2.2-0.8,4.4-1.5,6.5-2.3c2.7,11.4,5.4,22.7,8.1,34.2
	C2286,2621.5,2286.6,2620.9,2286.6,2620.9z"/>
<path d="M2296.1,2668.3c-3.2-15.8-6.4-31.5-9.5-47.4c0.1-0.1-0.6,0.6-0.5,0.6c3.2,15.8,6.3,31.6,9.4,47.4
	C2295.4,2669,2296.1,2668.3,2296.1,2668.3z"/>
<path d="M2069.4,2858.5c-1.9,10.7-3.8,21.4-5.8,32.1c-1.2-0.4-2.5-0.8-3.7-1.2c3.1-10.3,6.3-20.6,9.4-30.9L2069.4,2858.5z"/>
<path d="M2081.9,2727.4c0-6.8,0-13.7,0-20.5C2081.9,2713.7,2081.9,2720.5,2081.9,2727.4z"/>
<path d="M2377,2718.5c2.2,5.4,4.4,10.7,6.6,16.1c-1,0.4-2.1,0.9-3.1,1.3c-2.3-5.3-4.6-10.6-6.9-16
	C2374.8,2719.4,2375.9,2718.9,2377,2718.5z"/>
<path d="M2075,2779.6c0-5.4,0-10.8,0-16.2c0.9,0,1.7,0.1,2.6,0.1c-0.2,5.4-0.5,10.8-0.7,16.2
	C2076.3,2779.7,2075.6,2779.7,2075,2779.6z"/>
<path d="M2069.4,2858.6c-0.6-8.7-1.2-17.3-1.8-26c0.6,0,1.2-0.1,1.8-0.1c0,8.6,0,17.3,0,25.9
	C2069.4,2858.5,2069.4,2858.6,2069.4,2858.6z"/>
<path d="M1688.9,2446.4c-16.1,15.9-32.2,31.9-48.3,47.8c0.7,0.7,1.5,1.4,2.2,2.1c16.2-15.8,32.5-31.6,48.7-47.4
	C1690.6,2448,1689.8,2447.2,1688.9,2446.4z"/>
<path d="M1848.8,2778.3c2.3-5,4.6-10,6.9-15.1c1,0.5,2.1,0.9,3.1,1.4c-2.2,5-4.5,10.1-6.7,15.1
	C1851,2779.3,1849.9,2778.8,1848.8,2778.3z"/>
<path d="M1823.6,2860.5c-4.3,8.2-6.8,12.9-9.3,17.7c0.7-4.3,1.1-8.7,2.2-12.9C1816.7,2864.3,1818.8,2863.6,1823.6,2860.5z"/>
<path d="M1102,2019.3c93.5-6.5,187.1-12.9,280.6-19.4c0.1,1.7,0.2,3.3,0.4,5c-93.5,6.6-187,13.1-280.6,19.7
	C1102.3,2022.8,1102.2,2021,1102,2019.3z"/>
<path d="M1446.3,2005.6c19.7,0,39.4,0,59.1,0c0,1.4,0,2.8,0,4.1c-19.8,0-39.6,0-59.5,0C1446,2008.4,1446.1,2007,1446.3,2005.6z"/>
<path d="M1191,2131.1c15.2-2.3,30.4-4.6,45.7-6.8c0.2,1.4,0.4,2.8,0.7,4.2c-14.6,2.8-29.3,5.7-43.9,8.5
	C1192.6,2135,1191.8,2133.1,1191,2131.1z"/>
<ellipse cx="1335.5" cy="1946.3" rx="30.8" ry="0.4"/>
<path d="M1216,2375.9c-9.9,4.8-19.8,9.6-29.7,14.4c-0.5-0.9-1-1.8-1.5-2.8c9.7-5.2,19.3-10.5,29-15.7
	C1214.5,2373.1,1215.3,2374.5,1216,2375.9z"/>
<path d="M1294.9,2212.9c9.7-4.9,19.3-9.9,29-14.8c0.8,2.1,1.6,4.2,2.3,6.2c-10.7,2.6-21.4,5.3-32,7.9
	C1294.1,2212.3,1294.9,2212.9,1294.9,2212.9z"/>
<path d="M1294.1,2212.3c-9,4-17.9,8-26.9,12.1c-0.7-2.1-1.3-4.2-2-6.4c9.8-1.7,19.7-3.4,29.6-5.1
	C1294.9,2212.9,1294.1,2212.3,1294.1,2212.3z"/>
<path d="M1737.4,2094.8c3.9-2.3,7.8-4.6,11.8-6.9c0.6,1.1,1.3,2.1,1.9,3.2c-3.9,2.3-7.8,4.7-11.7,7
	C1738.8,2096.9,1738.1,2095.9,1737.4,2094.8z"/>
<path d="M1334.3,1627.2c-19.4-9.9-43.3-10.4-58.7-28.5l-0.6,0.7c17.7,6.4,35.6,12.5,53.1,19.5c2.6,1,3.7,5.9,5.5,9
	C1333.6,1627.8,1334.3,1627.2,1334.3,1627.2z"/>
<path d="M1416.4,1713.9c10.2,4.1,20.4,8.1,30.6,12.2c-0.3,1-0.7,2-1,3c-10.9-3.5-21.7-7-32.6-10.4
	C1414.4,1717.1,1415.4,1715.5,1416.4,1713.9z"/>
<path d="M1275.6,1598.7c-13.3-2.9-26.5-5.8-39.8-8.7c0.8-2.6,1.6-5.3,2.4-7.9c12.2,5.8,24.5,11.6,36.8,17.3
	C1275,1599.4,1275.6,1598.7,1275.6,1598.7z"/>
<path d="M1566.2,1763.3c8.4,2.4,16.7,4.7,25.1,7.1c-0.4,1.3-0.7,2.6-1.1,3.9c-8.5-2.4-17-4.8-25.5-7.2
	C1565.2,1765.9,1565.7,1764.6,1566.2,1763.3z"/>
<path d="M1484.4,1738.4c7.4,1.6,9.5,1.7,11.3,2.5c4.4,2,8.7,4.2,13.1,6.4c-0.8,0.5-1.9,1.6-2.5,1.4c-5.6-1.7-11.1-3.6-16.6-5.5
	C1488.8,1742.8,1488.2,1741.8,1484.4,1738.4z"/>
<path d="M1333.6,1627.8c4-0.6,8.2-2.3,11.9-1.5c5.3,1.2,10.2,4.1,13.8,10c-8.3-3.1-16.6-6.2-24.9-9.2
	C1334.3,1627.2,1333.6,1627.8,1333.6,1627.8z"/>
<path d="M2326.1,1075.1c-2.6,17.2-5.8,34.3-7.8,51.5c-7.7,66.8-14.8,133.7-22.4,200.5c-1.9,16.3-4.8,32.6-11.7,48.3
	c3.1-28.3,6.4-56.6,9.4-84.9c5.5-50.4,10.3-100.9,16.5-151.2c2.7-21.9-1.1-45.7,16.2-64C2326.1,1075.3,2326.1,1075.1,2326.1,1075.1z
	"/>
<path d="M2246.5,1298.2c1.6-37.7,3.3-75.4,4.9-113.1c1.8,0.1,3.5,0.1,5.3,0.2c-2,37.7-3.9,75.4-5.9,113
	C2249.4,1298.4,2247.9,1298.3,2246.5,1298.2z"/>
<ellipse cx="2244.1" cy="1415.3" rx="0.7" ry="51.9"/>
<path d="M2326.1,1075.3c-6.7-21-5.3-41.4,6.4-60.9c-2.2,20.1-4.4,40.3-6.5,60.6C2326.1,1075.1,2326.1,1075.3,2326.1,1075.3z"/>
<path d="M2358.8,1313.2c2.9-10.4,5.8-20.7,8.6-31.1c1.2,0.3,2.4,0.5,3.6,0.8c-2.2,10.9-4.5,21.8-6.7,32.7
	C2362.5,1314.8,2360.7,1314,2358.8,1313.2z"/>
<path d="M2283.9,1414.4c-2.1,10.6-4.2,21.2-6.3,31.9c-1.1-0.2-2.3-0.4-3.4-0.7c2.2-10.6,4.4-21.1,6.6-31.7
	C2281.8,1414.1,2282.8,1414.2,2283.9,1414.4z"/>
<path d="M2422.5,1060.3c2.2-7.5,4.4-15,6.5-22.5c1.2,0.3,2.4,0.6,3.6,0.8c-1.8,7.9-3.6,15.7-5.4,23.6
	C2425.6,1061.6,2424.1,1061,2422.5,1060.3z"/>
<path d="M2347.2,1364c2.2-7.5,4.4-15,6.7-22.4c1.5,0.4,2.9,0.8,4.4,1.2c-2.2,8.3-4.3,16.5-6.5,24.8
	C2350.3,1366.3,2348.8,1365.2,2347.2,1364z"/>
<path d="M2372,1254c2.3-8.2,4.7-16.4,7-24.6c1.3,0.3,2.6,0.6,3.8,1c-1.9,8.3-3.9,16.5-5.8,24.8
	C2375.4,1254.7,2373.7,1254.4,2372,1254z"/>
<path d="M2444.6,1229.4c3.2-9.3,6.4-18.5,9.5-27.8c3.2,11.8,2.3,22-10,27.2L2444.6,1229.4z"/>
<path d="M2444.1,1228.7c4.5,15.3-0.6,27.9-10.8,39.2l0.8,0.8c3.6-13,7.1-26,10.6-39.2C2444.6,1229.4,2444.1,1228.7,2444.1,1228.7z"
	/>
<path d="M2423.1,1435.1c2.1-4.7,4.1-9.3,6.2-14c1.1,0.5,2.3,1,3.4,1.5c-2,4.7-3.9,9.4-5.9,14.1
	C2425.6,1436.1,2424.4,1435.6,2423.1,1435.1z"/>
<path d="M2433.3,1267.9c-1.6,8.8-3.1,17.5-4.7,26.3c-2.1-0.7-4.3-1.4-6.4-2.1c4-7.8,7.9-15.6,11.9-23.4
	C2434.1,1268.7,2433.3,1267.9,2433.3,1267.9z"/>
<path d="M2560.1,1127.5c-2.6,7.4-5.2,14.7-7.8,22.1c-1.6-0.8-3.2-1.6-4.8-2.4c4.4-6.3,8.9-12.6,13.3-18.9L2560.1,1127.5z"/>
<path d="M2560.7,1128.3c0.8-7.6,1.7-15.2,2.5-22.8c2,0.5,4,1.1,6.1,1.6c-3.1,6.8-6.3,13.5-9.3,20.4
	C2560.1,1127.5,2560.7,1128.3,2560.7,1128.3z"/>
<path d="M2081.1,1402.5c0-51.5,0-103.1,0-154.6c0.4,0,0.8,0,1.2,0c0,51.8,0,103.5,0,155.3
	C2081.9,1402.9,2081.5,1402.7,2081.1,1402.5z"/>
<path d="M2087.1,1560.7c0-29.4,0-58.8,0-88.1c0.4,0,0.9,0,1.3-0.1c0,29.4,0,58.8,0,88.2C2088,1560.6,2087.5,1560.6,2087.1,1560.7z"
	/>
<path d="M2002.3,1057.7c2.7,22.2,5.3,44.5,8,66.7c-1.4,0.2-2.7,0.3-4.1,0.5c-3-21.8-6.1-43.5-9.1-65.3
	C1998.8,1059,2000.5,1058.4,2002.3,1057.7z"/>
<path d="M2030.6,1343.2c-2.8-22.3-5.5-44.5-8.3-66.8c1.4-0.2,2.9-0.3,4.3-0.5c2.6,22.3,5.1,44.6,7.7,66.9
	C2033.1,1342.8,2031.8,1343,2030.6,1343.2z"/>
<path d="M1903.5,1069.4c4.5,13.4,9,26.9,13.5,40.3c-1.8,0.6-3.6,1.2-5.4,1.9c-4.7-13.4-9.4-26.7-14-40.1
	C1899.6,1070.8,1901.5,1070.1,1903.5,1069.4z"/>
<path d="M2076.5,1164.2c0,9.7,0,19.4,0,29.1c-0.5,0-0.9,0-1.4,0c0-9.7,0-19.4,0-29.1C2075.6,1164.2,2076,1164.2,2076.5,1164.2z"/>
<path d="M2014.3,1157.4c0,8.6,0,17.2,0,25.7c-0.7,0-1.3,0-2,0c0-8.6,0-17.2,0-25.7C2013,1157.4,2013.6,1157.4,2014.3,1157.4z"/>
<path d="M2039.1,1389.6c0,5.7,0,11.4,0,17.1c-0.4,0-0.8,0-1.3,0c0-5.7,0-11.4,0-17.1C2038.2,1389.6,2038.7,1389.6,2039.1,1389.6z"/>
<path d="M1939.4,1416.1c2.1,5.8,4.3,11.6,6.4,17.4c-1,0.4-2.1,0.8-3.1,1.2c-2.2-5.8-4.4-11.5-6.7-17.3
	C1937.1,1416.9,1938.2,1416.5,1939.4,1416.1z"/>
</svg>
