<?xml version="1.0" encoding="utf-8"?>
<!-- Generator: Adobe Illustrator 24.3.0, SVG Export Plug-In . SVG Version: 6.00 Build 0)  -->
<svg version="1.1" id="Layer_1" xmlns="http://www.w3.org/2000/svg" xmlns:xlink="http://www.w3.org/1999/xlink" x="0px" y="0px"
	 viewBox="0 0 4000 4000" style="enable-background:new 0 0 4000 4000;" xml:space="preserve">
<path d="M1002.8,2628.2c0.3-157.3,27.5-316.7,71.2-473.8c56.3-202.2,139.4-393.9,226.9-583.9c134.5-292,275.3-580.9,426-864.9
	c46.8-88.2,97.5-174.3,149.4-259.5c23.7-38.8,53.5-74.2,82.9-109.1c24.3-28.8,55.4-50.4,90.2-65.6c85.1-37.1,173.7-20.2,242.4,44.6
	c56.8,53.5,98.5,118.1,137.3,184.7c101.8,174.6,185.3,358.4,269.5,541.8c89.3,194.7,178.3,389.6,264.9,585.5
	c97.7,220.8,187.8,444.6,249.9,678.6c42.7,161.1,63.7,324.7,48.9,491.4c-14.1,159.2-53,311.5-133.7,451.2
	c-92.6,160.1-225.8,275.8-391.1,355.9c-138.1,66.9-284.2,104.8-436.5,121.6c-114.5,12.6-228.6,11.9-342.6-1.7
	c-202.4-24.1-392.4-84.7-560.1-203.7c-164.4-116.6-273.7-273.5-334.7-465.4C1020,2918.6,1004.2,2777.7,1002.8,2628.2z
	 M2160.6,3613.3c58.9-6.3,119.3-10,178.8-19.6c134.1-21.5,263.8-57.8,384.1-123.5c118.4-64.7,216-151.5,287.6-266.3
	c76-121.8,111.7-256.6,126.4-397.9c15.6-149.7-0.8-297.1-36.1-442.7c-35.7-146.9-85.4-289.5-143.2-428.8
	c-80.5-194-163.5-387.1-250.1-578.4c-95.6-211.3-195.3-420.8-295.7-629.9c-46.8-97.5-99.1-192.5-166.8-277.7
	c-13.5-16.9-28.6-33.3-45.7-46.4c-37.8-29-78.4-31.3-118.5-4.2c-16.2,11-33.4,22.5-45.2,37.7c-30,38.5-59.6,77.7-85.2,119.1
	c-107.1,173.8-196.8,357-286.7,540c-72.9,148.4-143.9,297.8-214.6,447.3c-82.2,174.1-159.2,350.4-220.9,533
	c-72.3,213.8-115.4,431.8-98.1,659c9.2,120.1,31.6,237.1,77.5,348.8c60.3,146.5,156.8,263.7,288.9,351.4
	C1698,3567.6,1923.9,3607.6,2160.6,3613.3z"/>
<path d="M2561.2,3147.3c-105.2,3.5-162.6-92.3-161.7-162.2c1.2-96.9,71-169.8,165.6-170c91.8-0.2,165.1,73.3,166.2,166.8
	C2732.5,3074.3,2658.3,3146.5,2561.2,3147.3z M2516.2,2977.3c35.3,0.4,59.4-22.7,59.3-56.9c-0.1-28.5-22.9-50.5-51.8-50.1
	c-31.9,0.5-56.9,25.5-57.3,57.2C2466,2959.2,2483.8,2976.9,2516.2,2977.3z"/>
<path d="M1684.8,3146c-92.4-0.2-160.9-68.1-160.8-159.1c0.1-100.6,72.9-171.2,164.4-172c88.9-0.8,164.9,77.5,164.6,166.3
	C1852.6,3077.5,1768.8,3150.6,1684.8,3146z M1588.5,2930.1c0.1,30.5,20.2,50.4,51,50.7c31.8,0.2,56.3-23.7,55.7-54.5
	c-0.5-29.3-22.8-53-50.3-53.5C1612.2,2872.1,1588.4,2896.3,1588.5,2930.1z"/>
<path d="M1332.9,2356.8c6.4-81.5,20.8-158,40.6-233.5c48-183.7,121.6-357.8,200-530c32.7-71.9,68.1-142.5,102.4-213.6
	c4.5-9.3,9.3-18.7,15.2-27.2c6.1-8.9,14.1-16.2,26.1-9.4c10.1,5.8,9.9,15,6.2,24.5c-4.9,12.6-9.7,25.2-15.3,37.5
	c-44.1,96.4-89.1,192.4-132.5,289.1c-73.2,163.4-137.9,329.9-176.7,505.3c-10.8,48.7-18.9,97.9-28.2,146.9
	c-0.8,4.1-0.9,8.3-1.9,12.3c-3.1,11.5-2.4,27.6-20.9,24.5C1330.6,2380.4,1333.6,2365.4,1332.9,2356.8z"/>
<path d="M2760.9,1903.8c21.6-9.1,31.2-1,37.5,12.5c14.2,30.1,28.5,60.1,41.5,90.7c56.9,133.2,104,269.8,131,412.4
	c20,105.7,25.4,212.6,10.5,319.7c-2.6,18.5-7.1,36.7-11.2,55c-1.3,6-2.5,13.1-6.3,17.3c-4.2,4.7-12.1,9.9-17.1,8.9
	c-4.9-1-11.6-9.6-11.7-14.9c-0.2-17.6,1.9-35.3,3.7-52.8c13.2-127.3,5.3-253.2-22.5-378.1c-26.3-118.1-68.7-231-112-343.5
	c-11.2-29.1-23.1-57.9-33.7-87.3C2766.2,1931.4,2764.3,1918.1,2760.9,1903.8z"/>
<path d="M1634.3,3176.8c35.8-2,70.6,3,102.9,18.8c12.9,6.3,25.7,14,36.1,23.7c25.9,24.4,25.3,55.5-2.4,77.9
	c-13.4,10.8-29.8,19.6-46.2,24.7c-62,19.2-124.7,19.2-187.1,0.8c-10.8-3.2-21.5-8-31-14.1c-39.8-25.3-42.4-69-5.3-97.9
	c28.8-22.4,63.4-30.1,98.8-33.8C1611.4,3175.8,1622.9,3176.8,1634.3,3176.8z M1514.8,3259.6c45.5,53.9,188.7,54.2,237.6-2.6
	c-27.2-39.6-70-42.9-111.7-45.2C1580.4,3208.5,1530.1,3229,1514.8,3259.6z"/>
<path d="M2624.4,3176.4c38.6-1.1,72.9,6.7,106.1,19.6c9.6,3.7,19,8.7,27.4,14.7c34.4,24.5,35.4,65.2,2.7,92.2
	c-21,17.3-46.7,22.1-72.2,27c-54,10.2-107.4,8.2-160-9.3c-29.3-9.7-55.3-25.2-57.4-58.3c-2.1-33.4,23.2-51.9,50.2-65.1
	C2554.4,3181.1,2590.1,3174.8,2624.4,3176.4z M2641.1,3212.8c-46.6,0.9-78,7.5-106.8,22.4c-28.5,14.7-28.8,31.5,0.3,45.3
	c19.2,9.1,41.1,13.8,62.4,17.2c44,7,86.7-0.7,127.4-17.8c8.2-3.5,18.9-13.6,18.9-20.7c0-7.7-10.4-16.1-17.6-22.9
	c-4.3-4.1-10.7-6.7-16.6-8.1C2682.2,3221.7,2655,3215.9,2641.1,3212.8z"/>
<path d="M2132.1,3288.7c-81.3-0.5-146.1-63.1-147.6-143.1c-0.2-13.3-0.9-27.9,16.3-33.2c15.5-4.8,25.7,0.3,30.7,16.5
	c4.8,15.9,7.4,32.6,13.6,47.9c27.2,67.5,114.1,82,160.2,25.8c11.4-13.8,16.6-33,23.5-50.1c3.5-8.5,3.9-18.3,6.8-27.1
	c4.1-12.6,13.3-18.5,26.5-16c12.7,2.4,21.9,10.2,20.4,23.5c-2.3,20.4-4.4,41.6-11.4,60.7C2248,3256.3,2198.5,3289.1,2132.1,3288.7z"
	/>
<path d="M1360.9,2709.3c-18.9,3.5-27.4-6-30-20.9c-3.7-21.4-7.4-43.1-8-64.8c-1.1-37.3-1.3-74.8,0.8-112.1
	c1.3-23.2,3.5-23.1,30.1-20.3C1361.7,2512.2,1367.2,2670.6,1360.9,2709.3z"/>
<path d="M1872.3,1041.1c-3.1,13.7-3.8,26.4-8.9,37.1c-24,50.7-48.8,101-74.4,150.9c-5.5,10.7-10,27.8-29,20.8
	c-12.2-4.5-13.5-14.5-2.4-38c24-50.7,48.8-101,73.7-151.2C1838.2,1046.8,1846.1,1032.5,1872.3,1041.1z"/>
<path d="M2931,2941.5c-5.8,15.7-9,27.9-14.7,38.9c-14.2,27.7-29.3,54.9-44.7,82c-3.5,6.1-8.6,12.4-14.5,15.7c-4.5,2.5-13,2.6-17-0.1
	c-3.9-2.6-5.9-10.3-5.8-15.7c0.1-5.9,2.9-12.2,5.7-17.6c18.8-35.9,37.8-71.7,56.8-107.5c1-1.8,1.9-4.4,3.5-5.1
	c6.1-2.7,14-8.2,18.4-6.2C2924.6,2928.4,2927.7,2937,2931,2941.5z"/>
<path d="M2672.1,1666.2c3.4,2.9,10.7,6.4,13.4,12.1c17.3,36.3,34.1,72.8,49.6,109.9c2.3,5.6-0.7,17.4-5.4,21.2
	c-8.5,6.9-18.8,2.1-23.2-7.1c-17.5-37.4-34.8-74.9-50.5-113C2650.9,1677,2658.6,1666.5,2672.1,1666.2z"/>
</svg>
