<?xml version="1.0" encoding="utf-8"?>
<!-- Generator: Adobe Illustrator 24.3.0, SVG Export Plug-In . SVG Version: 6.00 Build 0)  -->
<svg version="1.1" id="Layer_1" xmlns="http://www.w3.org/2000/svg" xmlns:xlink="http://www.w3.org/1999/xlink" x="0px" y="0px"
	 viewBox="0 0 4000 4000" style="enable-background:new 0 0 4000 4000;" xml:space="preserve">
<path d="M2977.7,1053.3c63.7-121,126.5-240.9,189.9-360.5c27.6-52.1,54.8-104.4,84.3-155.4c56.7-97.8,156.3-140.6,264.4-121.2
	c110.8,19.9,187.3,88.9,216.8,204.7c16.2,63.4,1,121.5-29.8,175.9c-36.2,63.9-75.2,126.2-113.1,189
	c-44.3,73.5-88.9,146.9-133.2,220.4c-2.1,3.4-3,7.5-5.1,13.2c7,4.6,13.4,9.5,20.5,13.1c72.4,37.3,136.4,86,193.5,143.7
	c55.9,56.5,95.5,122.8,107.1,202.3c5,34.4,5.7,70.4,1.9,105c-28.4,257.1-80.6,508.7-185.8,746.7
	c-93.1,210.6-217.7,399.4-389.3,554.8c-67.6,61.2-139.7,116.8-219.6,161.4c-19.8,11.1-29.9,24.9-30.8,48.9
	c-1.1,29.8-6.4,59.6-11.4,89.1c-8.1,48-32.9,86-70.9,116.5c-62.5,50-134.2,81.3-209.5,105.1c-167.4,52.9-339.8,69.4-514.4,70.3
	c-172.8,0.9-342.5-20.5-508-71.1c-63.4-19.4-124.3-44.9-181.1-80c-62.4-38.7-103-91.5-113.4-165.5c-3.3-23.5-8.6-47-9.4-70.6
	c-0.7-21.5-10.1-33.1-27.9-43.8c-165.4-98.8-307.1-224.7-422.8-378.6c-107.6-143.1-191.2-299.7-251.1-468.7
	c-58.3-164.3-100.8-332.5-119.3-506.2c-4.9-46.3-8.4-92.7-11.8-139.1c-6.9-95.2,27.3-176.2,86.2-248.7
	c59.9-73.6,136.8-126.1,218.9-170.7c122.2-66.6,252.7-112.5,386.8-149.2c180.2-49.3,363.9-77.3,549.6-93.8
	c215.8-19.1,431.8-22.6,648.1-10.2c172.6,9.9,344.2,28.6,514.2,60.6c21.3,4,42.4,9.2,63.6,13.6
	C2968.4,1055,2971.7,1053.9,2977.7,1053.3z M607.2,1793.9c0.6,13.9,0.5,20.7,1.3,27.4c19.1,156.8,58,308.9,112.2,456.9
	c108.5,296,284.3,542.4,541.1,728.5c113.8,82.5,237,147,370.1,192.1c116.1,39.3,235.3,62.8,357.5,72.7
	c198.7,16.1,395.5,5,587.3-49.8c325.8-93.2,588.8-277.5,779.9-559.5c171-252.4,265.4-533.3,305.1-833.9c0.7-5.1-1.9-10.7-2.9-16
	c-2.4-1.4-4.8-2.8-7.2-4.2c-5.3,7.5-9.7,15.9-16.1,22.4c-15.2,15.4-30.4,31.1-47.2,44.7c-58.3,47.1-123.3,83.1-190.7,115.2
	c-131.4,62.6-269.8,104.5-410.7,138.3c-207.8,49.8-419.2,75.7-632.3,84.1c-334.8,13.2-668-3.9-997-72.8
	c-165.2-34.6-327.1-80.8-480-154.4c-93-44.8-179.3-98.7-250.5-174.6C622.9,1806.4,617.8,1802.9,607.2,1793.9z M2804.8,1513.9
	c-13.9-3.3-23.4-6.2-33.2-7.8c-158.2-27.4-318-40.5-478.2-47.4c-221.4-9.5-442.5-3.3-663,21.9c-166.9,19.1-330.6,52.3-491.2,101.3
	c-106.4,32.5-206.7,78.6-299.1,141.1c-10.6,7.2-23.9,12.7-26.4,32.4c40,23.9,79.7,50,121.5,72.1c106.7,56.4,221.8,90.6,338,120.3
	c190,48.5,383.9,72.7,579.1,85.1c210.8,13.4,421.8,12.2,632.6-3.4c196.4-14.6,390.1-44.8,580.5-95.7c118.3-31.6,232.4-74,339-134.8
	c22-12.5,45.1-24.3,63.4-48.1c-20.9-15.8-39.8-31.8-60.3-45.3c-69.5-45.9-146.7-75.9-224.2-105.1c-18.1-6.8-22.9-4.7-31.9,13.1
	c-11.7,23.1-22.9,46.4-33.1,70.1c-13.7,32-37.4,50.7-70.7,59.4c-80.2,21.1-154.1,6.1-221-40.8c-18.1-12.7-32.7-31.5-45.7-49.8
	c-21.1-29.5-23.5-60.7-1.7-92.3C2788.6,1547,2795.1,1531.9,2804.8,1513.9z M2931.3,1253.4c-4-2.7-5.5-4.4-7.4-4.9
	c-7-1.8-14.1-3.2-21.2-4.6c-194.1-37.7-389.8-63.5-587.4-70.7c-249.5-9.1-498.3-0.2-745.8,34.9c-156.8,22.2-311.6,53.5-461.8,104.7
	c-90.2,30.7-178.4,66-257.9,120c-37.8,25.7-72.6,54.7-99.8,92.1c-45.2,62.2-35.2,138.1,20.2,185.2c6.3-4,13.7-7.7,19.9-12.7
	c62.5-50.6,133.5-86,207.2-117c123.5-52,252.3-84.9,383.3-111.1c203.4-40.6,409-61.1,616.1-62.4c141.6-0.9,283.4,1.6,424.8,8.9
	c130,6.8,259.4,22.8,387.7,46.2c6.8,1.2,14,0.2,21.4,0.2c33.4-67.3,66-133,98.5-198.7C2930.4,1260.7,2930.4,1257.5,2931.3,1253.4z
	 M3332.5,1323.2c23.3,12.2,43.3,22.8,63.3,33.2c58.3,30.2,111.6,67,155.8,116.1c72.1,80.1,75.6,177.5,9,262.3
	c-27.1,34.5-59.2,63.5-96.3,87c-120,75.9-250.5,127.1-387.3,162.8c-162.3,42.4-326.7,72.7-493.8,88.8
	c-164.9,15.9-330.3,24.6-495.8,20.4c-146.8-3.8-293.6-9.5-439.6-27.5c-174.8-21.5-347.4-53.3-515.5-106.4
	c-116.7-36.9-230.2-81.4-330.8-153.4c-42.4-30.3-79.9-65.6-106-111.6c-29.1-51.4-31.4-104.1-7.8-157.9c18.2-41.5,45.5-76.3,80-105.3
	c50.1-42.2,105.4-76.7,164.7-104.2c105.4-48.9,215.3-85,327.9-112.9c224.7-55.6,453.5-81.6,684.3-92.4
	c145.8-6.8,291.7-8.6,437.2,4.8c113.2,10.4,226.6,20.2,339.4,34.3c72.7,9,144.5,24.7,216.5,38.7c16.2,3.2,26.1-1,32.9-14.9
	c3.8-7.8,6.7-16.1,10.6-25.7c-9.1-3-14.7-5.4-20.5-6.7c-207.6-45.4-418-69.5-630-80.2c-230.9-11.6-461.1-5.5-690.7,23.4
	c-186.1,23.4-369.4,58.4-547.6,118.3c-112.2,37.7-220.3,84-319.1,149.9c-59.8,40-114.6,86-149.8,150.2c-47.7,87-45.8,150.9,20,238.8
	c22,29.4,50.7,54.7,79.6,77.9c78.8,63.1,167,110.6,260.9,147.5c123.5,48.5,250.2,86,380.1,112.2c185.8,37.5,373.4,60.3,562.8,69.5
	c244.4,11.9,487.9,7.3,730.9-24.5c164.3-21.5,326.5-52.9,484.8-102c126.7-39.3,250-87.3,361.5-160.8c52-34.3,100.7-72.7,138-123.6
	c21-28.7,36.3-59.9,41.6-95.7c7.7-52.7-6.2-100.5-32.5-145.4c-28.8-49-68.9-88.3-115-120.2c-48.4-33.4-99.5-63.1-149.5-94.2
	c-24.3-15.2-29.3-14.1-44.6,9.8C3339,1308.5,3336.9,1314.2,3332.5,1323.2z M3560.4,618.5c-0.2-5.2,0-10.4-0.8-15.5
	c-11.8-76.3-54-116.8-137.4-87.8c-41.8,14.6-73.2,42.2-94.4,80.9c-37.3,68-74.3,136-110.7,204.5c-109.6,206.3-215,414.7-315.6,625.6
	c-25.4,53.2-52.1,105.7-77,159c-14.2,30.4-12.4,41,14.8,61.1c23.9,17.7,50.1,32.6,76.7,45.9c21.8,10.9,27.1,7.8,40-13.3
	c17.8-29.1,35.3-58.3,52.9-87.6c132.4-220.7,264.9-441.3,397.3-662c41.4-69.1,82.9-138.3,123.4-208
	C3548,689.9,3560.7,656,3560.4,618.5z M2861.7,3163.2c-231.3,120.2-471.5,162.7-720.4,164c-250.5,1.2-490-48.8-716.6-164.8
	c-3.2,81.4,10.7,149.3,86.8,188.1c12,6.1,23.5,13.1,35.6,18.7c136.8,63.6,282.2,92.7,431.4,105.3c131.2,11.1,262.4,9.8,393.3-5.7
	c111.3-13.2,220-37,324.1-79.7c44.2-18.1,86.9-39.3,121.6-72.9c10.8-10.5,22.9-23.6,26-37.4
	C2851.7,3242.8,2855.3,3205.9,2861.7,3163.2z M3307.9,1365.3c-21.1,20.7-102.2,159.4-108.9,186.7c15.5,6.4,31.3,13.4,47.5,19.4
	c88.6,32.9,173.6,72.2,245.9,134.8c14.1,12.2,20.8,11.1,33.4-4.3c18.7-22.8,31.3-48.6,33.7-78.5c4.2-50.7-20.7-89.8-53.2-124.3
	C3450,1439.6,3376.9,1404.8,3307.9,1365.3z M3611.3,561.3c-2.5,0.8-5.1,1.7-7.6,2.5c0.6,8.1,0.5,16.4,1.8,24.4
	c7.1,44.5-1,86.5-21.1,126.3c-9.3,18.4-18.7,36.9-29.3,54.6c-125.3,209.4-250.9,418.6-376.3,627.8c-50.5,84.2-101,168.5-151,253
	c-8.6,14.5-14.9,30.4-23.5,48.1c27.8,3.9,44.7-6.7,58.7-22.9c6.7-7.8,11.8-16.9,17.1-25.8c52.5-89.1,103.4-179.1,157.5-267.2
	c121.2-197.3,244-393.7,366.3-590.4c19.7-31.8,38.6-63.9,46.2-101C3660.2,640.3,3640.6,599,3611.3,561.3z"/>
<path d="M2614.6,2823c-90.9-0.7-163.1-74.1-160.9-165.4c1.8-76.7,51.8-168.3,163.1-166.8c93.5,1.3,166.8,74.3,166.2,165.2
	C2782.5,2748.9,2706.9,2823.8,2614.6,2823z M2628.8,2600.3c-0.6-29.5-24.6-55-51.7-54.8c-31.3,0.1-55.1,24.1-54.5,54.8
	c0.6,30.7,22.7,52.1,53.2,51.7C2607.1,2651.5,2629.4,2629.8,2628.8,2600.3z"/>
<path d="M1681.6,2491.7c91.9,0.1,163.3,71,162.1,163.7c-1.3,100.8-69.6,162.2-157.4,165.5c-86.3,3.3-163.1-73.9-162.6-161.7
	C1524.1,2577.3,1581.4,2488.8,1681.6,2491.7z M1589.1,2598.2c-1.5,30.4,21.5,54.9,52.7,56.2c27.6,1.2,51.9-20.6,54-48.4
	c2.4-32.5-21-61-50.8-61.8C1615.3,2543.4,1590.7,2567.2,1589.1,2598.2z"/>
<path d="M2153.1,2957.1c-90.7-0.2-161.8-60.8-174.6-149c-1.2-8.1-3-17.6,0.1-24.3c3.4-7.1,11.4-14.1,18.9-16.7
	c10.3-3.6,21.1,0.1,25.2,11.9c3.4,9.7,5.6,19.9,7.6,30c15.6,80,124.6,134.4,213.4,59.3c17.3-14.6,24.4-35.6,28.5-57.3
	c1.5-8.1,2-16.5,4-24.5c4.6-18.8,11.6-24.4,27.2-22.5c16.3,1.9,25.7,11.8,24.6,29.8c-3.2,51.9-22,96.4-64.3,129
	C2231.1,2948,2193.4,2956.9,2153.1,2957.1z"/>
<path d="M2682.5,3014.1c-33.2-4.3-59.2-5.6-84.1-11.5c-18.7-4.4-37.7-12.1-53.6-22.7c-37-24.6-38.8-65.5-4.2-93.2
	c14.2-11.4,31.2-22,48.5-26.2c66.5-16.3,132.8-16.4,197.1,11.6c28,12.2,52,28.2,50.7,62.8c-1.3,34.6-26.9,51.1-55.3,59.2
	C2747.2,3004,2711.2,3008.5,2682.5,3014.1z M2673.9,2971.6c28.9-1.7,66.3-3,100.4-20c8.1-4.1,18.4-13.8,18.6-21.1
	c0.1-7.3-9.7-17.8-17.7-21.8c-40.7-20.5-84.8-27.3-129.5-20.4c-25,3.9-50.3,12-72.9,23.4c-22.4,11.3-20.9,24.7,0.6,38.4
	C2601.6,2968.1,2633.2,2971.5,2673.9,2971.6z"/>
<path d="M1632.3,3009.7c-41.6-0.7-77.6-3.8-111-19.9c-9.3-4.5-18.4-9.7-26.4-16.1c-32.2-25.4-32.8-64.8,0.2-89.3
	c14.6-10.8,32.3-18.9,49.8-24.1c56.9-16.8,114.4-15.3,171.3,0.6c22,6.1,42.3,16.6,57.1,35.4c19,24.3,19.2,52.1-4.1,72
	c-15.2,13-34.6,22-53.4,29.4c-15.1,6-32.1,7.5-48.5,9.8C1654,3009.3,1640.5,3009.2,1632.3,3009.7z M1501.9,2930.3
	c17.7,11.2,27.1,19.4,38,23.7c61.6,24,123.1,21.2,183.8-3.7c10.1-4.1,24.3-9.1,21.4-22.6c-1.7-8.2-12.4-14.8-19.7-21.5
	c-2.9-2.6-7.3-3.7-11.2-5.2c-58.6-22.7-117.1-21.3-174.8,2.6C1528,2908.3,1518.6,2918.2,1501.9,2930.3z"/>
<path d="M2454,1925.4c-37.8-6.4-70.9-9.7-102.6-18.2c-20.4-5.4-40.4-16.2-57.6-28.7c-22.7-16.5-30.3-40.8-22.8-68.9
	c14.4-54.5,53.8-85.4,103.4-102.5c65.7-22.5,128.5-12.5,185.2,28.8c21.5,15.7,35.5,37.5,43.1,62.9c13.4,45.1-8.5,89.2-56.5,106
	C2515.3,1915.6,2482.1,1919.3,2454,1925.4z M2494.9,1745.4c-3-2.1-5.3-5-7.9-5.2c-58-6.1-111.4,6.1-154.6,46.4
	c-30.4,28.3-22.7,59.1,16,73.8c52.7,19.9,107.2,18.5,161.7,10.2c11.7-1.8,22.9-9,33.6-15c14.3-8,20.2-21.9,16-36.9
	c-3.8-13.4-10.3-27-18.9-37.9c-12.9-16.1-20.5-15.9-39.9-6.7c-19.5,9.2-38.9,19.1-59.3,26c-6.5,2.2-19.9-2.2-22.9-7.6
	c-3.1-5.7,0.1-18,4.9-24c5.3-6.6,15-11,23.6-13.4C2462.4,1750.8,2478.3,1748.7,2494.9,1745.4z"/>
<path d="M1727.4,1811.5c-39.9,1.8-77.8-6.7-113.4-25.5c-53.9-28.6-63.7-79.6-23.1-125.9c26.8-30.5,62.2-48.3,100.7-58.2
	c53.7-13.8,105.4-7,150.8,26.1c15.4,11.2,30.5,26.1,39.2,42.8c27.8,53.1,8.2,100.1-47.7,122.7
	C1799.8,1807.3,1764.3,1812.6,1727.4,1811.5z M1732.1,1770.1c28.1-6.4,58.7-11.1,87.7-20.7c28.2-9.3,34.4-30.1,20.4-56.5
	c-3.8-7.1-9.1-14-15.1-19.3c-33.9-29.6-72.7-45-116.9-29c-26.8,9.7-53.2,22.9-76.3,39.3c-32.4,23.1-26,57.5,12.4,69.1
	C1671.7,1761.2,1700.6,1764.1,1732.1,1770.1z"/>
<path d="M2053.5,1935.1c-39,0.5-69.3-5.4-97.8-18.8c-40.3-19-50.1-51.5-25.2-88.7c9.5-14.1,22.9-27.2,37.4-35.9
	c55.5-33.4,129.5-20.7,172.4,27.5c30,33.7,22.8,77-16.3,99.3C2103.6,1930,2080.2,1935,2053.5,1935.1z M1987.6,1829.8
	c-14,6.7-25.5,17.2-23.1,33c2.3,14.8,17.8,18.9,30.7,22.8c33.6,10.2,67.5,9.2,100.7-1.6c27-8.8,29.7-24.5,7.6-41.7
	c-27.5-21.4-60.1-26.6-93.7-24.4c-8,0.5-15.5,8.4-23.2,12.9L1987.6,1829.8z"/>
<path d="M2156.5,1724.6c-21.1-5.8-45.1-9.2-66.1-19c-34.4-16-41.4-48-20.7-79.8c15.6-24.1,38.8-35.4,66.6-40.3
	c37.4-6.6,72-2.7,101.9,22.4c41,34.5,34,83-15.8,101.9C2202.4,1717.4,2180.4,1719.4,2156.5,1724.6z M2155.4,1680.8
	c17.2-3.4,33.8-5,49.2-10.3c16.9-5.8,18.6-18.9,6.3-30.9c-21-20.3-81.8-18.9-101.1,2.4c-10,11-9.2,21.2,4.5,27.1
	C2127.3,1674.7,2141.7,1677,2155.4,1680.8z"/>
<path d="M1778.6,1664c-5.1,5.2-9.3,12.3-15.4,15.3c-23.1,11.5-46.8,22-70.5,32.1c-16.5,7-19.5,4.8-32.3-19.3
	c31.6-32.4,69.7-43.1,113.3-36.3C1775.3,1658.5,1776.9,1661.2,1778.6,1664z"/>
<path d="M1986.6,1830.7c16.7-3.3,33.4-6.5,52.8-10.3c-0.6,8.3,0.3,14.5-1.4,15.4c-9.7,4.8-19.9,9-30.3,12
	c-15.5,4.5-20.1-4.5-20.1-18C1987.6,1829.8,1986.6,1830.7,1986.6,1830.7z"/>
</svg>
