<?xml version="1.0" encoding="utf-8"?>
<!-- Generator: Adobe Illustrator 24.3.0, SVG Export Plug-In . SVG Version: 6.00 Build 0)  -->
<svg version="1.1" id="Layer_1" xmlns="http://www.w3.org/2000/svg" xmlns:xlink="http://www.w3.org/1999/xlink" x="0px" y="0px"
	 viewBox="0 0 4000 4000" style="enable-background:new 0 0 4000 4000;" xml:space="preserve">
<path d="M2991.4,2865.5c-3.5,232.2-49.3,422.9-150.7,597.6c-113.9,196.2-276.4,335.1-495.6,402c-157.7,48.1-316.5,50.4-476.1,7.4
	c-144.4-38.9-267.9-112.5-371.3-219.7c-86.8-90-149-196-192.5-312.7c-49.6-133.1-73.7-271.5-72.9-413.2
	c1-176.1,34.5-346.7,107.1-507.6c46.9-103.9,99.3-205.2,150.9-306.9c52-102.5,76.9-209.9,63.9-324.8
	c-8.6-76.2-28.5-149.8-50.7-223.1c-29.6-97.4-60.8-194.5-84.7-293.3c-47.3-195.7-41.4-391.5,26.8-581
	c105.7-293.8,302.8-497.8,610.6-577c236.6-60.9,454.3-10.6,648.2,138.2c124.9,95.8,206.5,223.6,262.7,368.4
	c65.5,168.7,81.8,343.3,62.6,522.7c-17.7,165.1-67.2,320.3-135.2,470.6c-29.4,64.9-58.4,130-85.8,195.8
	c-52.1,125.3-51.1,252.4-6.2,379.1c23.1,65.2,50.1,129.1,77.1,192.8c34.6,81.8,63.5,165.5,84,251.8
	C2984.3,2719.2,2993.6,2807.2,2991.4,2865.5z M2358.9,2968.1c-36-99.3-17.1-179.1,81.8-229.6c-2.6-32.9-5.1-64.8-7.8-99.2
	c-167,26.5-329.7,5.5-493.9-12.2c-19.8,110.8-37.9,217.7-41.7,328.3C2051.9,2978.6,2203.2,2992.6,2358.9,2968.1z M2042.7,749.5
	c-16.4,109-34.4,212.9-35.8,321.9c159.7,27.5,317.2,26.8,476.3,12.4c5-110.8,3.4-217.2-8.1-325.7
	C2330.8,776.3,2188.9,763.9,2042.7,749.5z M2391.2,2241.1c-24.9-138-29.5-273.8-24.1-407.7c-56.6,0-109.4,1-162.1-0.3
	c-53.3-1.3-106.6-4.9-161.8-7.6c2.8,138.5-12.3,271.7-33.8,408.1C2137.8,2240.6,2263.3,2244.6,2391.2,2241.1z M1999.8,2283.1
	c-18.2,97.3-36.3,194.7-55.2,295.7c163.7,22.3,322.7,29.8,487.2,13.8c-11.1-102.7-21.8-201.3-32.5-299.1
	C2265.2,2290.1,2135.4,2286.7,1999.8,2283.1z M1891.5,3001.4c-1,12.5-2.5,22.4-2.5,32.2c-0.2,88.5-0.4,177-0.2,265.4
	c0.1,43.2,0.5,43.2,42.7,49.3c2,0.3,4,0.5,6.1,0.8c134.7,19.2,269.6,21.4,404.8,6.1c22.5-2.5,25.5-4.4,30.7-26.4
	c9.6-40.6,19.6-81.1,27.6-121.9c3.3-16.7,5.4-35,1.9-51.3c-4.2-19.9,0.1-35.1,9.7-51.8c14.6-25.3,17.3-52.9,12.4-85.4
	c-56.9,2.4-111.2,4.7-168,7.2c2.2,47-6,87.6-34.4,120.9c-29.6,34.8-69.7,48.2-114.1,49.6c-37.2,1.2-70.2-11.9-98.3-35.5
	c-47.2-39.7-56-93.5-49.8-152C1936.1,3006,1915.3,3003.8,1891.5,3001.4z M1896.5,3385.8c-0.5,8.8-1.6,13.8-1,18.6
	c12,90.8,25.1,181.7,57.8,267.8c13.9,36.7,34.6,71,53.1,105.9c9.8,18.6,26,27.2,47.7,26.2c22.3-1,44.7-0.8,67.1-0.6
	c15.4,0.2,26.8-6,37.3-17.2c35.8-38.1,64.6-80.9,89-127c40-75.8,68.7-156.2,99.2-236c2.1-5.4,2.3-11.5,4.3-21.6
	C2198.5,3418,2048.8,3415.6,1896.5,3385.8z M2371.7,1785.1c22.9-118.6,44.7-231.8,67-347.7c-26.3,1.7-50.4,4.2-74.6,4.5
	c-41,0.4-81.3,3.5-119.8,19.3c-8.3,3.4-17.7,4.6-26.7,6c-40.3,6.6-76.7-4.6-110.8-25c-29-17.3-59.7-23.1-94.5-17.2
	c0,11.5-0.7,21.5,0.1,31.4c4.5,53.8,9.6,107.5,14.2,161.3c3.7,43.6,6.8,87.3,10.6,130.9c2.2,25.5,4.5,28,28.8,30
	c40.6,3.4,81.2,8,121.8,8.6C2248.9,1788.2,2309.9,1786,2371.7,1785.1z M2040.4,544.8c-7.3-3.3-9.1-4.6-11.1-4.9
	c-77.3-12-154.8-23.3-232-36.1c-19-3.1-25.4,7-31.9,20.7c-56.1,118.5-96.1,241.8-112.2,372.3c-0.7,5.6,1.1,11.6,1.8,18.5
	c104.2,19.6,207.6,28,313.6,19.6C1981.1,800.5,2010.2,673,2040.4,544.8z M2471.2,711.9c0-8.8,0.7-13.9-0.1-18.8
	c-11.4-67.2-22.6-134.4-34.7-201.4c-6.5-36-14.5-71.8-22.2-107.6c-2.7-12.5-6.8-21.6-23.5-22.2c-71.1-2.5-142.2-6.5-213.3-10.2
	c-26-1.4-26.3-1.9-34.6,23.1c-32.9,98.4-62.3,197.9-83.7,299.6c-1.8,8.5-2,17.4-3.2,28.5C2195.1,719.2,2331.6,724.6,2471.2,711.9z
	 M2474.7,1137.7c-82.6,1.6-159.8,6.1-236.8,3.7c-76.7-2.4-153.2-11.7-232.4-18.1c-8.9,83.2,0.4,165.9,6,249.9c14.9,0,27.9,0,43,0
	c-2.7-11.6-4.4-19.5-6.4-27.2c-2.7-10.3-5.1-20.6,8-25.5c11.7-4.4,24.9,0.9,30.3,13.2c3.6,8.3,5.5,17.4,7.2,26.3
	c3.1,16.3,11.3,28,27.3,33.8c38.8,14,78.1,21.2,119.6,13.1c21.1-4.1,34.9-15.4,43.2-34.4c4.9-11.2,8.9-22.7,14.1-33.8
	c5.5-11.9,13.6-20.7,28.5-17c13.6,3.4,19.4,13.4,16.3,31.4c-2.5,14.8-7.2,29.2-11.8,47.5c24.8-1.3,47-1.6,69-3.7
	c50.1-4.7,49.9-5,60.2-54.5c4.8-22.9,11.7-45.5,1.6-68.8c-14.6-33.8-12.4-67.3,1.9-100.8C2468.2,1161.8,2470.8,1150.1,2474.7,1137.7
	z M1817.9,1349.3c-92-47.3-133.9-130.6-98-200c10.8-20.9,28.4-40.5,47.5-54.3c18.2-13.1,41.8-21.2,64.3-25.7
	c47.5-9.4,82.5,18.5,119.6,53.3c4.9-50.5,9-93.3,13.6-140.8c-108.9,14.9-211.9-5.7-316.8-17.6c-1.3,12.1-2.6,20-2.8,27.9
	c-3.5,135.3,10.6,268.4,49.8,398.4c6.2,20.4,13.8,40.5,19,61.2c15.4,62.2,30.3,124.5,44.6,187c3.8,16.4,11.2,24.1,29.1,23.6
	c54-1.5,108-1.4,161.9-2.5c10.6-0.2,21.2-3,32-4.6c-6.6-71.2-13-138.8-19.2-205.6c-3-0.9-4-1.5-4.9-1.4c-2.9,0.4-6.1,0.6-8.7,1.8
	c-51.9,24.2-105.5,17.5-158.9,7.8c-11.6-2.1-22.9-8.5-33.1-14.9c-17.3-10.9-36.6-22.6-31.6-47.3c4.6-22.7,24.7-31.5,44.4-37.4
	C1784.9,1353.5,1801.3,1352.2,1817.9,1349.3z M2580.3,2083.1c0.4-9.1,1.4-13.2,0.7-17c-17.2-95.7-10.4-190.3,12.1-284.4
	c18.2-76.3,44.2-150,73.3-222.8c9.2-23.1,19.2-46.3,20.7-69.8c-70.8,5.5-139.3,10.7-211.8,16.3c-44.7,190.4-82.8,382.6-54.8,584.8
	C2474.7,2087.8,2526.2,2085.5,2580.3,2083.1z M1864,3529.1c-23.2-113.1-25.7-227.5-28.8-346.7c-34,6.2-64.2,10-93.4,17.4
	c-73.5,18.7-143.1,9.9-209.8-25.3c-5.9-3.1-12.4-5.1-19.9-8.1c-1.2,6.1-2.6,10-2.5,13.8c0.4,12.2,0.5,24.5,2.2,36.5
	c13.3,89.8,32,178.2,64.1,263.4c6,16,15.5,24.2,31.7,29.1c79.1,23.9,159.9,28.3,241.7,23.5C1853.1,3532.6,1856.9,3530.9,1864,3529.1
	z M1513.5,3444.2c-21.8-92.6-48.1-184.4-53.2-280.4c-5-95.6-9.7-190.7,0-286.5c9.6-95.3,29.7-188.4,52.3-283.9
	c-43.8-7.2-85.1-13.9-126.6-20.7c-36.8,124-55.3,245.7-54.3,371.1c1.4,169.3,37.6,328.8,120.2,477.2
	C1468.8,3451.3,1473.1,3453.2,1513.5,3444.2z M2695.7,2481c-75.2,3.9-148.6,7.7-222.5,11.6c5,81.1,9.7,158.9,14.5,237.3
	c6.4,1,11.3,2.3,16.3,2.5c113.4,4.2,178.6,135.3,120.2,226.6c-6.3,9.9-11.5,20.7-19.5,35.2c55.7-5.1,107.1-4.5,159.4-14.7
	C2763.5,2809.4,2737.6,2645.4,2695.7,2481z M1561.9,2847.7c23.1-68,70.2-107.6,137.5-118.1c70.9-11,119.8,27.1,159.8,90.1
	c17.1-108.2,33.2-209.6,48.9-309.3c-103.3-11.9-203-23.4-306.5-35.4c-40.1,118-70,239.6-85.3,368
	C1533.6,2844.8,1547.3,2846.2,1561.9,2847.7z M1916.4,2457.8c21.1-76.7,58.1-299.3,53-323.3c-12.3-0.7-25.4-1.1-38.4-2.3
	c-54.7-4.7-109.4-9-164-14.7c-28.8-3-28.9-4.3-39.7,23.8c-32.4,84.5-64.7,169-96.9,253.5c-3.4,9-5.3,18.6-7.8,27.5
	C1667.8,2441.2,1860.3,2460.8,1916.4,2457.8z M2794.4,848.7c0.5-8.8,1.7-13.8,0.9-18.6c-15.7-100.8-42.1-198.7-81-293.2
	c-5.7-13.8-14.6-16.2-28.9-15.1c-49.6,4-99.4,6.1-149.1,9.3c-12.7,0.8-25.4,2.6-37.2,3.8c12.2,108.9,24.1,214.5,36.2,322.7
	C2621.8,862.3,2706.6,857.4,2794.4,848.7z M1773.5,1710.7c24.3,123.2,8.6,240.5-21.1,359.3c78.3,10.6,152.7,14.5,226.6,17.4
	c18.7-73.6,21.5-313.6,4.7-381.6C1915.6,1707.4,1847,1709,1773.5,1710.7z M2361.1,3530.9c6.2,1.3,10.1,2.6,14.1,2.8
	c82.4,4.1,164.5,2.8,246.1-11.9c15.5-2.8,23.3-11.1,28.1-24.1c24.2-65.7,48.3-131.4,71.9-197.3c3.6-10.1,4.4-21.1,7.5-36.7
	c-99.3,12.1-194.9,20.5-290.1,10.6C2412.3,3361.6,2387.2,3444.8,2361.1,3530.9z M1553.2,1393.7c3.8,12.6,6.3,22.2,9.5,31.6
	c30.9,90.5,61.5,181,79,275.4c13.6,73.4,20.5,147,11.3,221.6c-9.6,77.5-34,150.5-66.1,221.3c-4.4,9.7-7.7,19.9-12.9,33.6
	c29.4,5.4,54.8,10.1,78.4,14.5c3.8-3.4,6-4.4,6.7-6.1c8.7-22.7,17-45.6,25.9-68.3c56.4-144.3,70-292.2,34.2-443.2
	c-21.6-90.9-47.5-180.9-71.6-271.2c-1-3.6-3.8-6.7-5.2-9.2C1612.5,1393.7,1584.5,1393.7,1553.2,1393.7z M1634.3,1343.1
	c-52.3-200.8-50.2-399.9,0.1-600.4c-31.4-4.4-58.5-8.3-85.5-12.1c-12.8-1.8-18.6,5.2-21.2,16.6c-4.7,19.8-9.8,39.5-14.3,59.3
	c-18.8,82.8-28.5,166.7-24.8,251.5c3.2,74.4,14.7,147.8,32.7,220.1c5.9,23.4,11.7,46.9,17.9,71.7
	C1572.1,1348.3,1602.3,1352.6,1634.3,1343.1z M2534.7,1100.2c10.4-2.7,20.9-6.6,31.7-7.9c16-1.9,32.7-5.1,48.1-2.4
	c73.6,12.8,123.8,80.5,117.1,154.9c-0.8,8.3-0.1,16.8-0.1,25.7c27.3-2.9,33.3-21.7,38.2-40.6c27.4-106.2,36.3-214.3,32.8-323.6
	c-0.1-3.9-1.7-7.7-2.1-9.2c-88.2,3.8-174.9,7.5-265.6,11.4C2534.7,971.4,2534.7,1034.8,2534.7,1100.2z M2424,2135.3
	c14.6,104.2,28.8,205.5,43.3,308.8c71.8,3.1,141.2-3.6,214.2-11.2c-30.3-103.6-59.7-204.3-88.6-303.2
	C2535.4,2131.5,2480.9,2133.3,2424,2135.3z M2160.8,195.7c-6.9-0.4-12.1-2-16.6-0.8c-48.3,12.2-96.8,23.6-144.4,38.1
	c-15.8,4.8-30.8,15.9-43.1,27.5c-51.9,49.2-95.8,105.3-134.4,165.5c-5.9,9.2-10.9,18.9-19.1,33.1c85.8,13.6,167.5,26.5,247.6,39.2
	C2088.2,395.5,2124.2,296.6,2160.8,195.7z M2730.6,3437.5c108.8-111.5,195-499.3,153.1-677.9c-26.9,0-53.8,0-83.6,0
	c9.5,117.1,12.4,231,5.9,344.9C2799.4,3219.6,2764.8,3328.3,2730.6,3437.5z M1615.2,3556.5c-1.8,2.9-3.5,5.8-5.3,8.7
	c19.2,30.7,38.4,61.4,57.6,92.1c16.6,26.7,39.9,45.7,67.7,59.8c60.1,30.4,122.6,54.1,188.2,69.6c8.4,2,17.3,2.3,25.1,3.3
	c-25.9-71.3-51-140.5-77-212.4C1786.8,3586.1,1700.2,3583,1615.2,3556.5z M2222,3789.7c9.9-0.6,16-0.1,21.7-1.3
	c104.8-22.6,201-65,288.6-126.7c26.9-18.9,50.4-41.3,67.7-69.6c3.8-6.2,5.5-13.6,9.7-24.2c-21.7,3.4-38.5,7.7-55.5,8.3
	c-63,2-126,3.3-189.1,3.8c-28.8,0.3-27.8-0.1-41,26.1c-21.5,42.7-44.2,84.7-67.1,126.6C2246.8,3751.2,2235,3768.7,2222,3789.7z
	 M2891.7,700.6c-24.6,2.1-46.2,4-71.2,6.2c43.9,157.2,34.6,311.9,11.4,471.2c15.8,0,28.7,0.2,41.5,0c52.8-1.1,52.8-1.2,57.6-52.2
	c0.1-1,0.1-2,0.3-3c13-107.1,5.4-213.3-15.2-318.8C2909.6,770.1,2900.4,737,2891.7,700.6z M2680.8,473.8
	c-6.8-13.4-10.5-22.8-15.9-31.1c-24.9-38.4-49.1-77.4-75.6-114.6c-56.9-80.1-59.5-81.2-153.1-110c-1.9-0.6-3.9-1.6-5.8-1.7
	c-5.4-0.2-10.8-0.1-16.4-0.1c13.7,46.7,27.5,91.3,39.8,136.2c12.3,44.8,23.1,90,35.2,137.5C2552.8,484.6,2614.4,479.4,2680.8,473.8z
	 M1522.1,2554.1c38.7-106.3,76.6-210.3,115.1-316.1c-23.5-5-44.2-9.4-64.8-14c-24.2-5.3-25.6-4.8-37.6,18.5
	c-10.2,19.9-20.3,39.8-29.9,60c-30.1,63.2-60.1,126.5-89.6,190c-4.5,9.6-6.1,20.4-10.1,34C1446,2536,1483.1,2544.8,1522.1,2554.1z
	 M1513.9,2871.7c-2.4,15.9-5.4,27.8-5.9,39.8c-2.1,45.7-4.7,91.5-4.7,137.3c0,30.9,5.8,34.8,37.3,32.1c14.1-1.2,28.3-4,41.8-8.2
	c41.4-13.1,83.3-18.6,126.5-11.6c43.4,7,83.7,18.7,104.1,63.9c2.5,5.6,10.9,8.6,22.1,17c5.4-66,10.1-124.5,15.5-189.7
	c-49.9,60.1-104.4,93.6-177.8,74.1c-75.5-20-103.5-79.4-115.3-151.2C1542.9,2874,1530,2873,1513.9,2871.7z M2728.7,1526.8
	c33,0,64.3,0,97.2,0c41.8-96.3,73.6-195.2,91.8-299.5c-33.6,0-63.6,0-92.3,0C2793,1327.6,2761.6,1425.1,2728.7,1526.8z
	 M2879.9,2707.5c-0.8-7.7-0.9-11.8-1.7-15.7c-29.3-134-81.2-259.8-137.6-384.1c-10.5-23.1-20-24.6-47.9-9.2
	c45.6,135.1,79.8,273.7,100.3,417.3C2823.8,2712.8,2851.1,2717.7,2879.9,2707.5z M2801.4,1578.1c-26.3-1.2-46.5-1.9-66.7-3
	c-24.7-1.2-26.3-0.3-34.5,24c-13.6,40.4-27.2,80.9-40.6,121.4c-19.5,59.1-31.6,119.8-38.4,181.5c-1.2,10.6-0.2,21.5-0.2,32.8
	c10.9,0.9,17.9,2,24.9,1.9c7.9-0.2,15.8-1.6,27.8-2.9C2689.1,1807.5,2750.8,1697.7,2801.4,1578.1z M1645.3,696.3
	c10.5-28.2,19.2-53,29.1-77.4c9.9-24.5,20.5-48.7,31.6-72.7c11.1-24,22.6-47.8,35-71.1c12.4-23.3,26.5-45.7,39.3-68.9
	c12.2-22.2,31.9-40.3,40.5-68c-97.1,45.7-262.5,266.4-261.4,347.9C1587,689.4,1614.9,692.7,1645.3,696.3z M2763.4,3032.7
	c-9.2-0.6-13.4-1.7-17.2-1c-72.5,13.2-145.9,13.2-219.2,14.9c-13.2,0.3-26.5,0.9-39.7,2.2c-9.4,0.9-15,5.7-10.6,18.6
	c6.2,0,13,0.3,19.7-0.1c25.3-1.5,50.7-5.2,75.9-4.3c36,1.3,70.5,11,101,31.1c32.2,21.2,34.7,56.3,6.6,82.5
	c-5.1,4.8-11.4,8.5-17.5,12.2c-49.7,30.3-103.6,33.9-159.4,24.5c-12-2-23.9-5.2-35.8-7.7c-8.4-1.8-17.4-2.5-19.8,8.1
	c-2.8,12.4,6.8,15.7,16.2,17.3c7,1.2,14.2,1.7,21.3,1.4c70.2-2.8,140.4-4.5,210.5-9.2c45.4-3,45.2-5,51.9-48.5c0.8-5,2.5-9.9,3-15
	C2754.7,3118.3,2758.8,3077,2763.4,3032.7z M2172.1,300.8c32.3,12.4,183.9,19.8,219.9,11c-12.9-39.1-25.8-78-38.9-117.5
	c-39.3-1.6-75.8-3.4-112.3-4.6c-10-0.3-21.3-1-26.3,10.7C2200.2,233.8,2186.2,267.3,2172.1,300.8z M2205.3,3026.1
	c-67.8,3-135.7-9.1-206.6-7c5.3,31,12.1,57.4,26.5,81.1c15.6,25.8,38.3,41.9,69,45.2C2163.1,3152.8,2213.5,3101,2205.3,3026.1z
	 M1773.7,3138.7c-3.2-23-19.4-34.3-39.9-39.7c-46-12.2-92.4-11.3-137.9,2.3c-18.7,5.6-33.9,17.7-41.6,36.8
	C1597.9,3184.5,1727.3,3185,1773.7,3138.7z M2872.2,654.5c-18.5-83.9-138.4-261.9-197.9-292.6C2733,459.2,2782.9,555,2811,662.7
	C2832.8,659.8,2851.3,657.3,2872.2,654.5z M2662.5,3139.9c-14.4-25.2-33.7-32.3-53.3-37.6c-49.2-13.3-97-4.2-143.8,11.9
	c-11.9,4.1-22.7,13.2-19.8,27.2c1.5,7.3,9.6,16.3,16.7,18.7c55.3,18.6,111.3,25.1,167,1.7C2640.9,3157,2650.6,3147.9,2662.5,3139.9z
	 M2619.9,1974.7c0,8.6-0.3,12.6,0,16.6c8.2,86.5,30.4,169.8,57.1,252.1c6.2,19.1,12.4,20.5,40.6,11.1
	c-32.2-90.1-48.5-183.5-49.4-279.8C2650.2,1974.7,2636.6,1974.7,2619.9,1974.7z M2622.5,1371.2c33.2,13.5,61.1,24.9,91,37
	c26.4-40.6,35.4-84.2,44.5-127.6c-21-9-32.8-2.7-41.7,12.5c-17.1,28.8-41.7,49.4-71.2,64.5
	C2638.9,1360.8,2633.2,1364.8,2622.5,1371.2z M1719.9,2829.5c-0.6-29.3-22.2-51.2-49.7-50.3c-28.5,0.9-51.4,25.3-50.8,53.9
	c0.5,26.2,22.1,45.7,50.7,45.7C1699.7,2878.8,1720.5,2858.3,1719.9,2829.5z M2449.7,2785.7c-30-0.5-52.7,20-52.5,47.3
	c0.2,29,21.4,50.6,49.8,50.6c27.5,0.1,51.7-22.9,52.1-49.6C2499.4,2809.2,2475.9,2786.2,2449.7,2785.7z M1756.1,1406.7
	c70.5,37.3,152.6,34.6,181.8-5.4c-9.5-15.2-24.7-20.7-41.3-20.9c-29.5-0.4-59.1-0.9-88.4,1.7
	C1789.9,1383.8,1769.1,1384.6,1756.1,1406.7z M2674,1425.1c-0.8-1.8-1.2-4.3-2.6-5.3c-4.1-2.9-8.3-5.9-12.9-7.7
	c-44.3-17.5-89.7-13.8-134.9-4.8c-10.5,2.1-22,7.1-19.8,22.2C2554,1463.5,2647.6,1461,2674,1425.1z M1809.7,1208.3
	c22.6-0.8,43.8-23.5,43.7-46.8c-0.1-22.7-22.7-43.8-46.3-43.4c-24.9,0.5-44.9,20.4-44.8,44.5
	C1762.5,1187.8,1784.7,1209.2,1809.7,1208.3z M2565.9,1138c-28,0.6-46,18.8-45.8,46.2c0.2,27.6,15.1,43.7,40,43.2
	c27.8-0.6,47.1-21,46.6-49.5C2606.3,1154.7,2588.8,1137.5,2565.9,1138z M1959,1365.1c3-19.4,1.3-41.5-4.8-65.8
	c-26.1,16.4-49.5,31.1-71.4,44.9C1907.5,1351,1931.4,1357.5,1959,1365.1z M1508.7,3501.1c11.5,30.2,32.8,55.8,56.7,67.8
	c-9-20.7-17.1-40.4-26-59.6C1533.4,3496.4,1524.2,3490.6,1508.7,3501.1z M2552.9,1368.3c-13.5-15.4-25.1-25.7-40.7-21.4
	c-6.9,1.9-11.1,13.7-16.5,21c1.3,2.3,2.6,4.5,3.8,6.8C2515.8,1372.7,2532,1370.8,2552.9,1368.3z"/>
</svg>
