<?xml version="1.0" encoding="utf-8"?>
<!-- Generator: Adobe Illustrator 24.3.0, SVG Export Plug-In . SVG Version: 6.00 Build 0)  -->
<svg version="1.1" id="Layer_1" xmlns="http://www.w3.org/2000/svg" xmlns:xlink="http://www.w3.org/1999/xlink" x="0px" y="0px"
	 viewBox="0 0 4000 4000" style="enable-background:new 0 0 4000 4000;" xml:space="preserve">
<path d="M3206.6,2650.9c-0.9,164.2-29.3,323-97.1,473.5c-84.6,187.9-216.5,334-391.5,441.7c-137.2,84.5-287,130.2-447,145
	c-165.9,15.3-328.5,0.7-487.5-50.3c-171.4-55-319.8-146.9-442.8-278.3c-132.2-141.2-210.2-310-247.6-498.5
	c-21.3-107.4-30.6-216.1-24.6-325.3c8-145.5,33.3-288.2,73.9-428.5c74.1-256.3,176.6-501.3,291.4-741.7
	c151.7-317.5,323.9-623.7,503.8-925.8c26.2-44,51.7-88.6,80.2-131.2c32.2-48,78.8-69.8,137.1-67.5c37.5,1.5,70,15,93.2,43
	c25.1,30.2,47.9,63,67.2,97.1c147.2,259.1,295.1,517.9,429.7,783.9c114.8,227,220.4,458.1,307,697.5c61.1,169,111,341.3,139.6,519.1
	c7.4,46.3,11.6,93.3,14.7,140.2C3208.4,2580.3,3206.6,2615.7,3206.6,2650.9z M3106.9,2594.7c1-87.2-15.8-202.4-42.9-315.9
	c-54.9-230.3-136.3-451.6-231.6-668.1c-112.1-254.3-238.4-501.5-374.3-743.8c-76.8-136.9-153-274.2-230.2-410.9
	c-13.1-23.1-28.4-45.3-45.2-66c-17.7-21.9-42.3-24.1-65.8-8.4c-7.8,5.2-15.2,12.2-20.5,19.9c-16.8,24.7-33.5,49.5-48.5,75.3
	c-91.3,156.9-183.3,313.5-272.9,471.4c-90.1,158.9-171.3,322.5-250.3,487.3c-125,260.5-235.1,526.6-305.9,807.6
	c-39.6,157.4-59.3,316.9-43.9,479.5c8.9,93.8,22.2,186.9,53.7,276.1c80.7,228.5,232.5,395.5,446.4,506.3
	c101.3,52.4,209.8,83.1,323.2,98.2c178.1,23.7,351.7,9.4,519.9-55.3c220.1-84.7,383.8-232.1,487-444.8
	C3078.3,2952.2,3106.9,2791.4,3106.9,2594.7z"/>
<path d="M2650.9,3327.7c-24.4,2.2-47.4,4.7-70.4,6.4c-37.1,2.7-72.9-3.8-104.7-23.3c-15-9.2-29.3-21.7-39.8-35.7
	c-15.6-20.7-13.8-43.9,0.6-65.8c15.4-23.4,37.4-38.6,63.6-46c49.5-13.9,99-13.8,147.1,7.3c4.9,2.1,9.6,4.6,14.2,7.3
	c47.9,28.4,58.2,52.4,44.2,111.5c11.6-8.5,20.4-13.5,27.4-20.3c114.8-112.8,185.9-248.6,213.7-407.1c1.5-8.4,3-16.8,4.1-25.3
	c1.4-11.2,6.9-18.1,18.6-17.5c13.9,0.7,17.6,10.4,17.2,22.2c-0.3,8.5-1.5,17-3,25.4c-21.9,127.5-72,242.1-148.4,347.1
	c-70.5,97-161.8,165.9-266.6,220c-152.6,78.9-315.1,103.4-484.8,88.6c-19.1-1.7-38.2-5.2-56.6-10.1c-6.9-1.8-15-8.9-17.5-15.5
	c-5.3-13.9,4.2-22.2,22.4-20.2c29.7,3.3,59.2,8.9,88.9,11c182.2,12.9,349-33,501-133.5c8-5.3,15.2-11.7,22.5-17.9
	C2647,3334.4,2648.3,3331.4,2650.9,3327.7z M2578.2,3301.1c25.1-1.4,56.2-2.4,82.4-22.5c27.8-21.3,27.8-43.4,0.3-65.2
	c-44.7-35.4-132.3-37.8-178.4-4.9c-30.1,21.4-30.5,43.8-0.6,66.4C2508.5,3295.1,2539.6,3301,2578.2,3301.1z"/>
<path d="M2720.7,2989.8c-1.8,88.2-72.7,160.2-157.6,154.7c-96.9-6.3-151.1-80-149.8-156.3c1.5-87.1,71.2-157.4,154.3-155.1
	C2654.1,2835.4,2722.4,2905.4,2720.7,2989.8z M2665,2942.2c-0.4-24.9-23.1-47.4-47.3-46.9c-28.1,0.7-51.5,24.6-50.4,51.6
	c0.9,24,22,42.7,47.6,42.2C2644.8,2988.5,2665.4,2969.2,2665,2942.2z"/>
<path d="M1724.4,2804.2c81.6,0.4,150.4,70.7,149.4,152.7c-0.9,81.8-73.1,158.9-148.1,156.2c-96.1-3.5-156.1-77.9-155.7-155.1
	C1570.5,2868.5,1636.8,2803.8,1724.4,2804.2z M1675,2956.1c27.1,0.8,47.2-17.7,48.1-44.3c0.9-27.7-14.8-46.6-39.8-48
	c-28.4-1.6-50.2,19.6-50.7,49.4C1632.2,2935.9,1651.6,2955.5,1675,2956.1z"/>
<path d="M1367.7,2358.1c10.2-79.6,28.9-157.4,50.9-234.4c73-254.7,179.5-495.5,302.8-729.3c31.4-59.5,62.9-118.9,94.6-178.3
	c4.5-8.4,8.6-18.2,15.8-23.7c5.3-4.1,16.1-4.9,22.5-2.3c4.1,1.6,6.3,12.3,6,18.7c-0.3,5.8-5.1,11.5-8,17.2
	c-65.9,130.6-133.6,260.3-197.4,391.9c-85.5,176.1-157.5,357.7-206.6,547.6c-16.3,63-27.7,127.3-41.3,190.9
	c-1.3,6.3-2.5,12.6-3.9,18.8c-2.2,10.2-6.2,19-18.7,17.3c-12.1-1.6-19.5-8.2-17.8-21.7C1367,2366.6,1367.3,2362.4,1367.7,2358.1z"/>
<path d="M1721.9,3300.1c-54-1.1-89.1-8.2-120.6-28.4c-47.9-30.6-51.7-79.4-9.2-116.4c61.6-53.5,177.8-47.9,234.2,11.3
	c32.1,33.7,27.6,76.6-12.4,103.6C1781.2,3292.2,1744,3300.6,1721.9,3300.1z M1697.5,3267.7c34.8,0.1,62.7-6.4,88.1-20.9
	c37.6-21.5,38.2-45.4,2.5-69.8c-3.5-2.4-7.2-4.7-11-6.5c-52-24.7-103.8-21.1-153.7,4.3c-35,17.8-34.4,52.5,0.2,71.4
	C1648,3259.4,1674.4,3268.3,1697.5,3267.7z"/>
<path d="M2139.5,3255.7c-75.6,2.8-132.2-46.6-147.4-116.2c-2.7-12.2-3.5-26-0.4-37.8c1.8-6.9,12.4-14.6,20.1-15.9
	c5.5-1,15.1,6.5,18.8,12.7c5.3,8.9,6.7,20.1,10,30.2c16.4,49.2,51.6,76.1,98.9,75.9c46.6-0.2,83.6-28.3,99.4-75.6
	c1.7-5.1,2.8-10.3,4.4-15.4c3.8-11.7,11.4-17.2,24.2-15.4c14.4,2.1,20.4,10.7,19.4,24.3c-0.7,9.5-1.7,19.2-4.3,28.3
	C2263.4,3218.1,2212.1,3255.5,2139.5,3255.7z"/>
<path d="M1346.2,2562.5c13.9,0,22.3,0,35.2,0c2,68.2,4,135.4,6,202.3c-28.2,4.9-31.9,3.5-37.8-17.1c-3.2-11.2-5.5-23-5.8-34.6
	c-1.2-40.5-1.6-81-1.7-121.4C1342,2582.5,1344.6,2573.4,1346.2,2562.5z"/>
</svg>
