<?xml version="1.0" encoding="utf-8"?>
<!-- Generator: Adobe Illustrator 24.3.0, SVG Export Plug-In . SVG Version: 6.00 Build 0)  -->
<svg version="1.1" id="Layer_1" xmlns="http://www.w3.org/2000/svg" xmlns:xlink="http://www.w3.org/1999/xlink" x="0px" y="0px"
	 viewBox="0 0 4000 4000" style="enable-background:new 0 0 4000 4000;" xml:space="preserve">
<path d="M2103.3,2698c5.7-12.8,11.3-25.6,17-38.3c85.3-191.4,195.1-365.6,352.2-507.2c145.8-131.5,316.8-213.7,506.4-259.5
	c121.9-29.5,246-43.4,371.1-50.6c18.7-1.1,37.4-3.1,56.1-4.3c10.4-0.7,20.9-1.7,31.2-0.7c25.7,2.5,37.4,18.5,29.6,43.3
	c-7.8,24.8-17,49.4-28.3,72.8c-97.8,203.1-226.6,383.9-391.2,538.2c-104.7,98.1-223.1,177.4-349.2,246
	c-124.8,67.9-255.1,123.1-386.2,176.9c-60.7,24.9-121.2,50.4-181.6,76c-24.4,10.3-25.1,11.9-21.4,37.4c3.9,26.8,8.5,53.5,12.4,80.3
	c1.8,12.1,2.6,24.4,3.8,36.1c-38.7,11.4-46.4,8.3-52.5-26.1c-14.1-80-29-160-29.1-241.8c-0.1-91.7-0.3-183.4-0.4-275.2
	c0-6.2,0-12.3-0.8-18.5c-26.2,185.5-15.6,370.5,7.6,557.9c-9.6,1-17.5,2.9-25.2,2.5c-25.9-1.1-30.3-5.2-32.1-31.3
	c-3.9-57.2-7.5-114.4-10.8-171.6c-1.7-30.2-2.1-30.4-29.5-39c-159.1-50.3-306.9-123-443.1-220.2
	c-184.2-131.4-310.6-306.6-391.8-515.1c-42.7-109.6-79.7-221.5-116.4-333.4c-46.6-141.9-101.6-280.1-172.2-411.8
	c-6.9-12.9-13.8-25.8-19.6-39.1c-13.1-30,0-49.8,33.2-47.4c31.1,2.2,62.4,5.5,92.8,12.1c100.9,21.8,200.3,49.1,295.5,89.8
	c171,73,315.5,179.9,428.8,329c135.5,178.3,220.9,378.9,273.2,594.9c15,61.7,27.8,124,41.9,186c2,8.9,5.2,17.5,9.9,33.3
	c8.1-48.2,14.8-89.1,21.7-129.9c1.2-7.2,2.6-14.4,4.6-21.4c6.2-21,2.9-40.1-6.2-60.2c-60.6-134-115.3-270.2-151.1-413.4
	c-29.2-116.7-47.9-235.1-51.4-355.2c-3.2-109.7,8.2-218.8,32.2-325.9c25-111.8,54.1-222.6,80.6-334.1
	c36.3-152.3,62.5-306.4,66.5-463.2c1.8-70.7-4.1-141.6-6.6-212.3c-0.4-11.5-1.8-23-1.2-34.4c1.5-29.6,23.7-42.4,49.9-28.2
	c10.9,5.9,20.9,14,29.9,22.4c254.3,237,427.8,520.8,492.8,864.8c44.4,234.8,38.6,468.4-33.3,698.7
	c-57.2,183.2-153.9,343.5-277,488.9c-35.7,42.2-73.2,82.8-108.7,125.1c-8.9,10.6-18.3,24.5-19.1,37.4c-5.4,80-8.4,160.3-12.1,240.4
	c-0.3,5.7,0.7,11.4,1.1,17.2C2099.3,2696.9,2101.3,2697.5,2103.3,2698z M2050.1,356.4c-4.1,66.4-7.1,133-12.6,199.3
	c-10.3,122.6-25.9,244.4-54.8,364.3c-31.5,130.6-64.3,261-91.9,392.4c-29.6,140.8-31.9,283.7-13.9,426.3
	c24.2,191.7,80.5,374.4,161,549.8c3.3,7.1,7.5,13.8,14.4,26.4c5.5-16.2,9.7-26.4,12.5-37c25.8-98.7,51.2-197.5,77.2-296.2
	c5.1-19.2,3.5-36.5-5.7-54.2c-36.7-70.6-80.1-136.5-132.6-196.4c-7.5-8.6-15.7-17.1-21-27c-2.7-5.1-2.3-15.6,1.3-19.2
	c3.9-4,14.2-5.6,19.6-3.3c8.2,3.5,16.2,10,21.5,17.3c40.2,55.6,79.6,111.8,119.4,167.7c3.2,4.5,7.2,8.4,13.3,15.4
	c3.8-11.8,7.5-19.2,8.7-27.1c15.4-99.8,30.4-199.7,45.5-299.5c2.7-18.1-0.6-34.4-8.8-51.2c-48.4-98.6-107.9-190.2-174.4-277.4
	c-8-10.6-15.2-21.8-22.4-32.3c19.2-21,22.6-21.5,37.8-6c5.8,5.9,11.4,12.3,16,19.2c45.7,68.4,91.2,136.9,136.8,205.3
	c6.1,9.1,11.9,18.5,21.1,32.8c2.3-12.7,4.2-18.7,4.4-24.6c3.4-131.4,2.5-262.6-10.2-393.5c-1.3-13-6.4-26.6-13.3-37.8
	c-39.5-63.8-77.6-128.5-128.4-184.4c-3.5-3.8-8-7.9-9-12.5c-1.3-6.2-2-15.5,1.5-19c3.9-3.9,14.2-5.9,19.2-3.4
	c9,4.4,17.4,11.7,23.6,19.7c21.1,27.1,41.2,55,61.7,82.5c7.1,9.5,14.2,18.9,21.3,28.3c2.1-1.2,4.1-2.4,6.2-3.5
	C2171.7,710.5,2125.1,529.4,2050.1,356.4z M1926,2828.1c-3.9-8.4-5.6-13.2-8.3-17.4c-32.2-51.1-63.6-102.7-97.3-152.8
	c-10.7-15.8-25.9-30.2-42-40.5c-51-32.8-106-57.9-164.1-75.5c-32.9-9.9-66.1-18.8-98.9-28.8c-22-6.7-23.9-12.5-13.4-38.3
	c11.6,2,23.9,3.3,35.8,6.2c70.1,17.1,137.7,40.8,201.7,74.5c6.5,3.4,14.1,4.5,24.1,7.5c-1.6-8.6-1.6-12.9-3.2-16.5
	c-25.9-56.9-52.1-113.6-77.9-170.5c-8.7-19.2-23.7-30.6-41.7-40.2c-85.4-45.4-176.2-74.7-270.8-93.1c-8.2-1.6-16.3-3.5-24.4-5.3
	c-11.3-2.4-15.2-9.9-14-20.7c1.2-10.8,9-13.4,18-12.8c12.4,0.9,25,1.9,37.2,4.2c75,14,147.4,36.8,217.3,67.4c8,3.5,16.5,6.1,32,11.8
	c-7.6-16.8-11.6-27-16.6-36.7c-48.2-94.8-99.5-187.8-157.9-276.7c-16.6-25.2-37-44.4-63.9-57.9c-63.5-31.9-129-58.3-198.6-73.8
	c-5-1.1-11.8-1.7-14.4-5.1c-4.5-5.8-9.1-13.9-8.4-20.5c0.4-4.3,9.6-9.8,15.6-11c6.7-1.3,14.5,0.9,21.4,3
	c38.8,11.9,77.4,24.1,116,36.6c13.5,4.3,26.6,9.7,42.5,15.5c-29.5-85.4-365.4-393.4-461.1-423.8c3.3,9.1,5.5,16.7,8.6,23.8
	c21.5,48.6,45.7,96.1,64.2,145.7c33.7,90.8,63.7,182.9,95.9,274.3c41.1,116.8,77.7,235.3,132.4,347.1
	c72.2,147.6,171.1,273.1,299,375.9c120.6,97,258.6,162.9,400.3,221.9C1914,2826.7,1917.2,2826.7,1926,2828.1z M2092.9,2329
	c2.5,1.2,5,2.4,7.5,3.6c11.5-11.6,23.7-22.8,34.5-35.1c22-25.1,43.4-50.7,64.7-76.3c83.7-100.6,155.8-208.6,207.7-329.3
	c126.7-294.6,131.4-596.7,52.3-903c-38.1-147.5-101.7-284.6-186.3-410.9c-44.5-66.5-96.5-128-145.8-191.2c-6.8-8.8-14-19.8-31.7-22
	c6.4,18,11.3,32.5,16.6,46.9c6.5,17.6,14.1,34.8,19.8,52.6c33.4,104.2,65.3,208.8,82.8,317.2c1.5,9.2,0,20.9,14.2,28.1
	c8-18.3,14.6-35.6,23-52.1c7.5-14.7,16.2-29,26-42.2c2.4-3.2,11.8-3.5,16.8-1.7c3.1,1.1,6.1,9,5.3,13.1c-1.8,10.1-5,20.2-9.1,29.7
	c-14.4,32.4-29.2,64.5-44.3,96.6c-10.1,21.4-13.1,43.4-9.6,66.9c16.7,111.5,24.1,223.7,25.6,336.3c0.1,6.5,2.1,13,3.7,23
	c6.4-6.7,10.4-10.1,13.3-14.2c29.1-41.9,57.9-84,87.1-125.9c5.9-8.5,12.1-17.3,20.1-23.5c9.5-7.4,22.9-10.1,30.5,0.8
	c3.5,5.1,0.4,17.9-3.8,24.6c-9.4,14.9-22.3,27.6-32.4,42.1c-31.6,45.3-60.8,92.3-94.3,136c-18.4,23.9-25,48.1-26.4,77.3
	c-5.9,121.8-16.5,243.2-39.2,363.2c-3.4,18-5.5,36.3-9.4,62.6c14.2-12.1,23-18.8,30.9-26.4c39.6-38.5,78.8-77.4,118.3-116
	c6.7-6.5,13.7-12.8,21.1-18.6c9.4-7.4,19.6-8,28,1.3c8,9,3.3,17.3-3.6,24.7c-2.8,3-5.8,6-8.8,8.9c-55.6,55-110.5,110.6-167,164.6
	c-22.1,21.1-35.2,45.1-42.4,74.5c-28.2,115.3-57.7,230.3-86.4,345.5C2098.1,2296.5,2095.9,2312.8,2092.9,2329z M2661.1,2393
	c0.7,2.3,1.3,4.6,2,6.9c47.7,4,95.4,7.7,143,12.3c30,2.9,60,6.6,89.8,11.3c5.2,0.8,13.2,9.2,12.9,13.6c-0.5,7.1-5.5,15.3-11.1,20.1
	c-3.8,3.3-11.9,2.7-17.9,2.1c-19.7-1.7-39.3-5-59-6.1c-66.5-3.8-133.1-7.8-199.6-9.8c-12.3-0.4-27.1,5.2-36.8,13
	c-43,34.6-84.8,70.7-126.4,107.1c-10.9,9.6-23.1,19.2-29.5,35.1c64.6,6.7,126.8,13.2,188.9,19.7c5.2,0.5,10.4,0.9,15.5,2.1
	c9.3,2.2,14.2,7.9,13.4,18c-0.9,10.7-5.5,18.2-17.1,18.3c-9.3,0.1-18.7-1.3-28-2c-62.3-4.4-124.6-8.5-186.8-13.1
	c-25.8-1.9-46.5,6.8-63.9,26c-53.9,59.4-108.8,117.8-162.2,177.7c-18,20.2-32.3,43.5-48.3,65.4c18.5-0.3,33.5-4.4,47.6-10.4
	c67.1-28.5,133.9-57.5,200.8-86.5c121.5-52.5,241.7-107.3,354.7-176.8c88-54.2,174.1-110.9,250.1-181.4
	c148.8-138.1,268.8-298.5,364-477.5c3-5.7,3.9-12.5,6.5-21.3c-125.1,75.7-247,149.6-369,223.3c-3.5,2.1-8.1,2.4-12.1,3.6
	c1.9,2.7,3.8,5.4,5.6,8.2c39,2.5,78.1,4.7,117.1,7.6c12.4,0.9,25.3,1.8,36.6,6.2c5.9,2.2,11.6,11.6,12.5,18.4
	c1.4,10.5-7.7,13.2-16.9,13.3c-10.4,0-20.8,0.2-31.3-0.1c-55.2-2-110.4-3.4-165.5-6.5c-25.4-1.4-46.8,6.2-67.3,19.9
	c-56.3,37.7-112.9,74.8-169.2,112.4C2689.4,2372.7,2675.3,2383,2661.1,2393z M1943.3,2778.9c2-1.2,4.1-2.4,6.1-3.6
	c-7.8-48.2-16.3-96.4-23.3-144.7c-24.9-171.9-68.1-338.9-130.5-501c-54.6-141.6-133.4-268.7-232.5-382.9
	c-109.6-126.4-246.1-214.4-402.2-272.3c-46.8-17.4-94.8-31.7-142.6-46.5c-13.6-4.2-28.1-10.1-46.1-3.1
	c128.2,90.4,245.3,187.7,350.9,299.9c1.1-14.1-0.6-26.2-2.5-38.3c-2.9-18.5-7.2-36.9-8.2-55.5c-0.3-5.8,7.1-15,13.2-17.5
	c10.1-4.1,17.9,2.1,20.7,13c1,4,1.3,8.2,2,12.3c4.7,29.9,8.9,59.8,14.1,89.6c5.8,33,14.5,64.8,36.2,91.9
	c64,79.9,118.3,166.3,170.8,254c7.1,11.9,15,23.3,22.5,35c6.3-44,7.1-85.4,8.6-126.8c0.5-12.4,2.2-24.9,4.6-37.1
	c3.3-17.3,14.1-20.8,31.3-14.8c0,7.1,0.1,13.2,0,19.3c-1.4,62.5-2.4,125-4.5,187.5c-1.1,31,5.7,59.4,19.4,87.3
	c44.6,90.7,87.9,182,131.9,272.9c2.3,4.8,6.1,9,12.4,18c1.9-15.9,2.8-26.1,4.4-36.1c4.1-25.7,8.3-51.4,12.9-77
	c2.4-13,11.4-16.9,23.3-13.8c11.2,3,13.8,11.5,12,22c-0.4,2-1.2,4-1.5,6.1c-5.5,45.4-11.1,90.9-16.4,136.3
	c-3.7,31.3,4.5,59.9,21.1,86.3c24.4,38.8,48.6,77.7,73.4,116.3C1929.9,2763.9,1937,2771.2,1943.3,2778.9z M3349.9,1902.7
	c-6.3,0-11.1-0.5-15.7,0.1c-25.8,3.1-51.6,6.6-77.5,9.6c-124.3,14.3-247.4,33.2-366.6,73.8c-207.9,70.9-379.1,192.2-515.7,364.2
	c-70.5,88.8-121.9,188.8-176.2,287.1c-32.9,59.5-56.9,122.8-75.4,188.1c-4.2,14.9-6.3,30.4-9.4,45.7c9.9-3.7,14.6-9,19.1-14.4
	c35.5-42.2,69.1-86.3,106.9-126.4c60-63.7,50.1-45.2,61.1-136.6c3.9-32.8,8.4-65.5,12.6-98.4c29.4,5.3,30.8,6.6,28.8,28.4
	c-2.3,25.9-5.3,51.8-7.3,77.7c-0.5,6.3,1.6,12.8,2.6,20.5c5.7-2.8,9-3.5,11.2-5.6c32.3-30.9,64.4-62,96.7-92.9
	c14.2-13.6,20.7-30.6,24.6-49.4c15.3-72.2,31.1-144.4,47-216.5c2.5-11.3,0.6-27.2,19.4-26.7c12.4,0.3,15.9,9.7,12.1,32.8
	c-8.4,50.3-17.4,100.6-25.7,150.9c-2.1,12.5-6.4,25.4,0.4,40c7.4-4.9,12.7-7.9,17.6-11.6c59.6-45.4,118.9-91.3,179-136
	c18.5-13.8,30.4-30.8,37.7-52.1c21.5-63,43.2-126,64.7-189c6.8-19.9,16.2-29.6,26.1-24.4c15.1,7.9,9.4,21.8,6.4,33.3
	c-11.7,43.2-24.2,86.1-36.6,129.1c-3,10.6-6.6,21-11.3,35.8c11.6-4.4,18.5-6,24.5-9.4c56.8-32.9,113.9-65.3,169.6-99.8
	c14.3-8.8,27.4-23.2,35.1-38.1c17.2-33.2,30.8-68.2,45.6-102.6c9.2-21.4,9.6-21.7,35.9-17.9c9.8,36.6-18.9,65.4-23.7,100.5
	C3151.6,2047.6,3334.7,1926.9,3349.9,1902.7z"/>
<path d="M2554.1,2941.1c85.6-2.2,156.4,65.5,158.1,151.2c1.7,85.3-68.5,156.6-155.7,158c-82,1.3-155.7-67-156.2-147.2
	C2399.7,3019.8,2458.1,2940.4,2554.1,2941.1z M2641.5,3035.8c-0.7-24.4-22.7-45.7-46.7-45.4c-30.9,0.4-53,22.1-51.4,50.5
	c1.5,27.6,21.7,47.2,48.2,46.7C2622.1,3087.1,2642.3,3066.2,2641.5,3035.8z"/>
<path d="M1876,3081c0.4,97.4-79.7,155.1-147.6,155.1c-87.9,0-163.1-77-161.2-162.1c2-85.2,68.6-151.9,151-151.1
	C1809.7,2923.7,1877.4,2991.6,1876,3081z M1758.1,2974c-28.1-0.2-50.6,20.9-51.4,48c-0.8,28.4,22.3,50.9,52,50.6
	c26.3-0.3,49.6-21.5,50.5-46.1C1810.3,2999.1,1786.1,2974.3,1758.1,2974z"/>
<path d="M2160.6,3460.2c9.6-3.1,15.4-5.4,21.3-6.7c26.7-5.7,32.3-3.3,42.7,22.6c25.1,61.9,55.9,120.9,92.7,176.4
	c12.9,19.4,14.3,37.5,7.3,58.8c-16.1,48.5-49,76.2-93.8,78.6c-29.6,1.5-53.6-9.3-69.9-33.1c-12.8-18.7-25.2-38.8-32.7-60
	c-26.5-74.4-51-149.5-75.8-224.5c-2.6-7.7-2.8-16.3-4.1-24.3c36.4-9.5,50.4-0.7,60.9,31.2c22.6,69.1,46.7,137.8,71.1,206.4
	c5.2,14.5,13.2,28.4,22.2,40.9c12.6,17.6,24.5,18.8,42.9,7.5c26.4-16.3,30.7-34.5,16.5-62.9c-30.2-60.4-59.9-121.1-89.6-181.8
	C2168.4,3481,2165.5,3472.2,2160.6,3460.2z"/>
<path d="M2577.1,3447c-39.7,0.9-76.5-8.1-109.2-31.5c-37.8-27.1-42-71.7-9-104.7c18.8-18.8,41.2-31.6,67.8-36.2
	c45.8-7.8,91.7-10.9,135.2,8.5c17.4,7.8,34.7,19.9,47,34.3c24,28.1,20.7,60-4.9,87.1c-23.4,24.7-53.9,34.8-86.4,39.6
	C2604.2,3445.9,2590.6,3446,2577.1,3447z M2580.3,3415c0.1,0,5.3-0.3,10.5-0.7c29.4-2.3,57.6-9.2,82-26.4
	c26.4-18.6,27.5-42,1.5-60.4c-14.1-10-30.7-17.8-47.3-22.7c-47.4-14.1-93.3-6.8-134.6,19.2c-35.3,22.2-33.6,52.4,1.8,72.3
	C2519.3,3410.5,2546.8,3415.2,2580.3,3415z"/>
<path d="M1700.8,3256.9c33.6-1.1,66.7,2.3,96.8,18.7c27.5,15,51.6,34,50.4,69c-1.2,35.4-24.1,56.8-54.7,69.5
	c-58.4,24.4-117.6,24.4-176.1,0c-11.3-4.7-22.3-11.6-31.5-19.7c-30.5-26.6-32.4-67.1-5.1-97c23.8-26.1,55.3-36.1,89-40.3
	C1679.8,3255.8,1690.4,3256.9,1700.8,3256.9z M1706.3,3286.6c-32.5,0.6-64.3,4.4-91.9,23.8c-27.5,19.3-28.2,42.1-2.4,63.5
	c4,3.3,8.3,6.4,13,8.5c55.3,24.7,111.1,24.6,165.2-1.7c35.6-17.4,36.4-46.6,4.5-70.2C1768.5,3291.1,1738.1,3286.2,1706.3,3286.6z"/>
<path d="M2154.9,3386.2c-87.3,0.7-149-47.4-166.8-123.9c-2.3-10-2.8-20.6-2.6-30.9c0.3-10.6,6.6-17.1,17.7-18.1
	c11.1-1.1,17.8,3.9,20.5,14.5c3.6,14.1,6.2,28.5,11.1,42.2c22.1,62.3,86.7,93.2,148.7,71.3c31-11,53.7-31.2,64.6-63
	c4.7-13.8,8.6-27.8,13.4-41.5c4.1-11.7,12.4-16,24.6-12.3c11.3,3.4,13.5,11.9,12.4,22.1c-5.8,55.3-45.3,117.6-99.8,131.7
	C2181.7,3382.6,2164.1,3384.6,2154.9,3386.2z"/>
</svg>
