<?xml version="1.0" encoding="utf-8"?>
<!-- Generator: Adobe Illustrator 24.3.0, SVG Export Plug-In . SVG Version: 6.00 Build 0)  -->
<svg version="1.1" id="Layer_1" xmlns="http://www.w3.org/2000/svg" xmlns:xlink="http://www.w3.org/1999/xlink" x="0px" y="0px"
	 viewBox="0 0 4000 4000" style="enable-background:new 0 0 4000 4000;" xml:space="preserve">
<path d="M1242.2,2856.7c1.6-157.3,37.5-306.8,97-451.4c46.7-113.7,109-218.8,173.5-322.9c34.2-55.2,65.3-112.2,84.4-174.8
	c24.4-80.1,22.4-161.7,8-242.4c-19.6-109.4-44.3-218-65.6-327.1c-22.4-115-36.9-231.1-25.6-348.4
	c33.7-350.9,203.8-605.3,532.7-745.4c124.2-52.9,254.5-63.4,387.4-47.4c160.1,19.3,292.1,92.3,396,214.7
	c64.9,76.4,110.1,164.5,142.3,259.3c72.1,212.5,65.7,424.4-3.1,636.3c-36.2,111.4-85.3,217.2-135.9,322.6
	c-30.1,62.6-59.3,125.8-83.9,190.6c-26.7,70.2-30.9,144.3-25.7,219.3c7,100.8,36.7,196.5,62.6,293.1c34.2,127.4,61.7,256,70.6,387.8
	c13.1,192.9-3.4,382.1-80.9,561.7c-100.1,232-268.4,391.2-512.7,462.4c-315.2,91.8-639.2-32.2-827.9-288.9
	c-103.6-140.9-160.7-299.6-182.7-471.8C1247.2,2941.9,1245.6,2899.2,1242.2,2856.7z M1976.9,2572.7c-2.5,13.3-4.7,22.3-5.9,31.4
	c-10.4,79.9-21.2,159.8-30.6,239.8c-18.4,156.6-32.1,313.4-21.8,471.4c1.9,29.3,4.8,58.6,7.3,88.1c36.2,6.2,68.7,13.4,101.7,17.2
	c65.3,7.4,130.9,12.6,196.2,19.5c13.2,1.4,19-4.4,22.6-15c6.5-19.3,14.1-38.4,18.6-58.1c22.9-102,44.4-204.4,67.7-306.4
	c5.1-22.5,3.9-40.5-11.5-59.1c-17-20.7-21.7-46.3-20.5-73.3c1.7-36.2,14.7-66.6,42.7-90c9.4-7.9,16.8-15.7,17-29.8
	c1.2-58.3,3.8-116.6,5.6-175c0.2-7.1-1.2-14.2-2-24C2233.6,2611.9,2106.5,2593.5,1976.9,2572.7z M1976.9,2329.6
	c28-85.9,101.8-600.4,93.9-651.6c-79.3-10.9-158.7-21.8-240-33c-0.5,8.6-1.4,15.7-1.2,22.8c1.1,27.8,2.5,55.5,4,83.2
	c6.2,115.8-12.8,227-61.8,332.4c-23.8,51.2-49.5,101.5-74.1,152.3c-4.2,8.7-7.5,17.8-11.6,27.5
	C1783.2,2293,1878.3,2315.5,1976.9,2329.6z M2354.2,2132c-101-12.8-197.9-25-298-37.6c-26.5,149-53.1,294.9-74.6,443.2
	c128,20.5,254,36.6,385.8,37.9C2363,2425.5,2358.6,2279.7,2354.2,2132z M2354.1,2095.7c-1.9-81.6-1.3-160.2,11.7-237.9
	c12.9-77.3,25.9-154.6,38.9-232.3c-94.2-15.7-186.8-31.1-282.5-47c-6.7,55.1-13.4,108.3-19.7,161.4c-6.3,53.4-12.7,106.7-18.2,160.2
	c-5.5,52.9-17.9,105-20,160.3C2161.9,2070.8,2255.3,2088.2,2354.1,2095.7z M1951.7,853.2c86.7,22.1,170.5,43.5,256.7,65.5
	c4.5-14.1,8.5-25.2,11.7-36.5c28-99.8,54.1-200.1,84.3-299.2c26.4-86.7,57.4-172,86.1-258c4.4-13.2,12.3-26.3,7.6-43.6
	c-30.3,12.7-54.8,30.5-77.4,50.9c-153.9,139.1-274.5,302.6-359.4,492.1C1957.6,832.7,1955.6,841.5,1951.7,853.2z M2468.5,1239.7
	c-94.3-14.3-187.2-28.4-279.5-42.4c-17.8,37.2-62.9,314.9-56.2,345.9c91.9,17.3,183.9,36.9,277.4,44.8
	C2424.8,1551.5,2463.6,1319.6,2468.5,1239.7z M1845.4,1232.9c39.6,16,255.3,56.1,284.3,52.9c23.4-110.2,46.9-221,70.7-333.1
	c-88.2-22.6-174.7-44.8-264.5-67.8C1894.2,999.3,1860.8,1114,1845.4,1232.9z M1532.3,3088.3c0,4.3-0.7,8.1,0.1,11.6
	c21.1,84.4,41.4,169.1,75.9,249.5c41.6,97,93.8,187,169.1,262.2c9.1,9.1,18.4,20.8,29.7,24.4c42.2,13.3,85.3,23.7,128.1,34.9
	c1.3,0.3,3.1-1.5,2.7-1.3c-13.3-67.8-29-134.6-38.9-202.2c-9.9-68.2-14-137.2-20.7-207c-13.1-0.8-24.1-1.9-35.1-2
	c-63.5-0.6-125.1-12.9-186-29.7c-15.9-4.4-31.6-10.8-46.3-18.5c-35.1-18.3-58.1-51.3-18.4-97.5c5.8-6.7,11.6-13.4,21.1-24.4
	C1583,3088.3,1557.9,3088.3,1532.3,3088.3z M1673.7,3074.8c0.6-2.1,1.1-4.1,1.7-6.2c-6.2-3.6-12.4-7.1-18.5-10.7
	c-66-39.5-99.2-121.9-46.5-201.3c6.6-9.9,12.7-20,18.9-29.7c-5.7-8.5-21.3-7.5-17.3-22.9c60.1,0.4,119.3-3.2,177.7,20.4
	c35.1,14.2,75.1,16.3,115.7,24.3c7.7-63.3,14.8-122.3,21.7-179.4c-123.1-28.4-242.4-55.8-363.7-83.8c-3.1,10.5-6.6,20.9-9.1,31.5
	c-31.1,133.7-39.7,269-29.8,405.7c1.8,24.5,3.5,25.6,27.3,29.5c25.4,4.3,50.6,10.2,75.9,15C1643,3070.2,1658.4,3072.3,1673.7,3074.8
	z M1974.3,2367.7c-104.4-22.7-205.2-44.7-305.8-66.6c-35,59.3-92.7,217.3-90.8,250.2c114.9,32.8,231,62.6,353.2,78.9
	C1945.5,2541.9,1959.8,2455.5,1974.3,2367.7z M2493,852.9c-74.5-11-145.6-21.5-219.1-32.4c-34.4,112.7-58.9,225-81.7,342
	c94.6,13.9,185.6,27.3,281.3,41.4C2485.5,1085.3,2495.7,970.8,2493,852.9z M1840.6,1271.4c-2,9-4,15.1-4.6,21.3
	c-10.2,96.9-13.5,194.2-11.5,291.6c0.5,23.3,2.2,24.7,25,27.9c51.4,7.2,102.7,14.3,154.1,21.5c23.6,3.3,47.1,6.5,72.9,10.1
	c15.6-107.3,30.9-212,46.4-318.1C2028.1,1307.4,1935,1289.5,1840.6,1271.4z M2741.8,633.6c2.8,12.7,4.4,21.6,6.7,30.4
	c17.5,66.5,28.6,134.1,33,202.7c7.9,122.7-1.2,244.4-23.3,365.2c-1.6,8.6-2,17.4-3.3,29.2c45.6,1.9,87.8,3.6,129.2,5.4
	c3.4-7.6,5.7-11.6,7-16c45.4-155,55.3-311.6,17.7-469.4c-11.5-48.5-29.5-95.5-44.9-143c-2.8-8.7-6.5-19-18.3-17.7
	C2811.8,624.1,2778.2,628.9,2741.8,633.6z M1354.5,2670.6c-3,13.1-5.3,21.1-6.7,29.2c-14.7,90.2-16.4,180.6-5.6,271.3
	c7.5,62.8,22.2,123.8,41,184.1c6,19.3,16.8,28.8,36.8,31.6c23.8,3.3,47.1,9.5,70.7,13.9c10.2,1.9,20.6,2.4,29.1,3.3
	c-9.8-59.1-21.6-114.5-27.4-170.4c-5.7-55.1-8.1-110.9-6.8-166.3c1.3-55.8,9-111.4,14-167.6
	C1450.8,2689.9,1403.9,2680.5,1354.5,2670.6z M2424.5,1726.7c-44.9,178.1-39.4,358.9-29,541.8c49,3.7,95.6,6.5,147.1,4
	c-16.7-90.3-32.8-177.6-28.7-266.8c4.2-90.6,30.7-176.3,58-261.4C2546.6,1734.1,2451.6,1723.1,2424.5,1726.7z M1832.2,1113.7
	c36.5-167.3,96.4-321.1,182.9-468.3c-43.5-20-83.5-38.4-122.7-56.5c-79.1,75.1-200,416.8-177.2,498.6
	C1752.6,1095.9,1790.3,1104.3,1832.2,1113.7z M2492.8,303.3c30.7,163,36.5,323.5,40.6,486.7c70,2.3,136.1,4.4,203.8,6.6
	c-0.4-9.5,0.2-15.1-1-20.2c-14.8-62.1-27.8-124.7-45.5-186c-25.4-87.8-69.2-167.2-118.4-243.9
	C2554.1,318.1,2528.7,309.2,2492.8,303.3z M1634.4,2280.1c4.6-7.3,9-13.1,12.3-19.5c26.2-52.1,52.9-103.9,77.9-156.5
	c25.8-54.3,49-109.8,62.6-168.8c18.6-80.6,14.2-161.8,7.9-243.2c-1.5-20.1-3.2-40.1-5-62.2c-26.2,0-50.5,0-77.9,0
	c0,10.8,0.4,19.8-0.1,28.8c-3.4,63.8-5.1,127.7-10.9,191.2c-6.9,75.9-35,145.7-71.6,211.6c-30.1,54.2-63.7,106.4-95.3,159.7
	c-5.8,9.7-9.5,20.6-15.7,34.3C1560,2264.4,1596.7,2272.2,1634.4,2280.1z M2741.6,833.2c-69.9-3-138.6-6.6-207.4-7.9
	c-4.8,94.4-9.4,184.7-14,274.5c41.1,9.3,192.3,13.8,220.5,7.1C2751.7,1062.3,2752.9,874.1,2741.6,833.2z M2626.5,1703.1
	c-3.8,7.7-7.5,13.1-9.4,19c-12.6,39.7-24.4,79.7-37.4,119.4c-33.9,103.5-41,209.1-22.3,315.9c14.7,83.9,33.2,167.2,50.1,250.8
	c0.7,3.4,2.7,6.5,4.7,10.9c33.4-1.2,66.5,1.9,100.6-8.7c-2.3-10.4-3.8-19.4-6.2-28.2c-16.5-62.7-34-125.2-49.6-188.2
	c-18.4-74-29.5-149-26.4-225.7c3.1-77.9,23.6-151.6,51.9-223.7c3.2-8.2,5.6-16.7,9.2-27.6C2668,1711.9,2647.6,1707.5,2626.5,1703.1z
	 M2674.4,1437.7c25.8-98.1,49.9-191.6,63.6-291c-76.5-1.4-148.7-8.4-221-8.2c-12,94.2-23.5,184.6-35.4,278.2
	C2547.1,1423.8,2609.3,1430.6,2674.4,1437.7z M2307.7,3347.5c73.7,8.3,142.9,12.7,212.4,9.6c16.2-0.7,21.3-10.8,26.7-23.6
	c44.7-106.1,66-217.8,78.7-331.4c2.5-22.7,2.7-45.6,4.1-70.4c-24.2,0-46,0-70.9,0c1.7,50.7-22.3,86.6-61,115.8
	c-42.4,32-85.3,21.9-132.7,3.8c-2.9,17.4-5.4,32.2-7.9,47.3c4.3,0.3,5.4,0.7,6.1,0.4c6.7-3,13.1-6.7,20-9.3
	c57.3-21.4,113.8-26.6,167.2,10.7c42.9,30,41.4,77.9-4,103.3c-52.2,29.2-133,39.1-188.2-8.9c-3.3-2.9-7.5-4.8-14.2-9
	C2331.9,3239.9,2320.3,3291.8,2307.7,3347.5z M1624.7,2311.6c-40.9-7.7-76.3-14.2-111.6-21.1c-12-2.4-18.3,2.6-24,13.1
	c-51.9,94.6-94.1,193.1-121.2,297.8c-2.9,11.1-3.5,22.9-5.2,35c49.1,10.6,95,20.5,143.9,31
	C1533.6,2545.6,1569.2,2427.3,1624.7,2311.6z M2608.1,2591c-19.3-97.5-34.4-191.2-58.3-283.3c-52,0-100.7,0-152.3,0
	c1.8,94.2,3.6,186.4,5.5,282.5C2471,2591.8,2536.4,2591.3,2608.1,2591z M1928.8,3443.5c4,22.1,6.8,42,11.2,61.5
	c11.7,51.5,23.4,103,36.5,154.1c5.2,20.2,9.2,22.2,29.4,22.4c32.5,0.3,64.9-0.4,97.4-0.2c15.3,0.1,25.6-6.2,34.4-19
	c37.7-54.7,62.5-115.6,86.4-176.9c0.9-2.3,0.1-5.2,0.1-8.1C2127.3,3466.2,2031.1,3455.2,1928.8,3443.5z M2521,3387.9
	c-9.9,0-17,0.2-24.1,0c-60-1.6-120-3.1-180-5.1c-19.7-0.7-20.9-0.9-27.9,22.2c-26,86.2-61.3,168.4-105.5,246.8
	c-2.6,4.6-4.7,9.6-7.9,16.4c7.6,0,13.1,1.1,18-0.2c51.1-12.7,101.6-27.5,149.6-49.7c25.8-11.9,46.8-29,64.9-50.7
	c40.4-48.6,74.1-101.5,104-157C2515.4,3404.3,2517.3,3397.4,2521,3387.9z M2401.1,2803.8c4,0.6,8.4,2,12.7,1.7
	c60.4-4.4,103.7,20.6,130.5,74.9c2.3,4.6,6.9,11.2,10.7,11.4c24.5,1.3,49.2,4.2,76.6,1.3c-3.4-89.3-4-176-19-264.1
	c-70.2-1.6-139.3-3.1-211.6-4.7C2401.1,2684.7,2401.1,2743.4,2401.1,2803.8z M2578.9,3351.1c43.7,16.7,51,14.2,71.5-21.8
	c38.2-67.2,66.8-138.1,85.8-213c20.6-81.2,29.8-163.7,31.3-247.3c0.3-17.3,0-34.6,0-52.5c-34.1,0-66.6,0-101.4,0
	C2672.7,3001.6,2640.6,3178.1,2578.9,3351.1z M2284.1,788.5c72.1,9.7,139.5,18.8,206.9,27.8c7.6-40.7,2.8-231.9-5.8-252.3
	c-34.9-4.7-69.8-9-104.5-14c-26.7-3.8-29.3-3.2-37.4,23.7c-18.4,61.2-36.3,122.5-54,183.9C2286.7,766.3,2286.2,775.4,2284.1,788.5z
	 M1663.3,1286.2c0.6-12.3,1.2-21.4,1.3-30.5c2.8-171.7,27.3-339.3,91.7-499.7c1.9-4.7,1.6-10.3,2.5-16.6
	c-28.8-10.8-56-21.4-86.1-25.2c-3.6,7.8-6.7,13.3-8.9,19.3c-23.8,65.4-43.5,131.7-53.5,200.9c-15.8,109.3-8.9,218,6,326.7
	c2.1,15,8.1,24.1,24.5,23.9C1647.1,1284.9,1653.4,1285.6,1663.3,1286.2z M1789.9,1593.9c1.9-74.7,1.4-148.6,6.4-222.2
	c5-73.6,15.7-146.8,24.2-223.2c-35.9-8.9-73-18.1-109.7-27.2c-16.7,48.9-11.2,421.6,6.1,468.2
	C1740.3,1590.9,1764.1,1592.4,1789.9,1593.9z M2474.2,1450.4c-12.4,80-29.9,157.7-42,238.9c53.1,5.2,102.5,10,153.6,14.9
	c13.4-38.7,27.2-75.8,39.1-113.5c12-38.3,29.3-75,37.7-117.6C2599,1465.3,2538.8,1458.1,2474.2,1450.4z M2639.5,1669.9
	c17.6,3.5,33.1,5.6,48.1,9.9c15.8,4.4,23.5-1.1,29.8-15.6c12.9-29.7,28.2-58.4,41.3-88c35.7-80.3,71-160.9,106-241.5
	c4.5-10.3,6.1-21.9,10-36.5c-45.8,0-87,0-125.8,0C2712.5,1421.8,2676.5,1544,2639.5,1669.9z M1914.6,559.6
	c35.8,17.1,71.3,34.5,107.4,50.5c4.6,2,13.7-2.1,18.6-6c5.5-4.4,8.5-12,12.7-18.1c71.8-104.1,150.7-201.9,248.4-283.3
	c6.1-5.1,11.4-11.3,18.4-18.3C2237.6,279.3,1969.2,462,1914.6,559.6z M2621.4,2454.3c16,110.1,31.5,216.7,47,323.2
	c33.5,0,66.3,0,98.8,0c3.8-56-25.4-278-46-323.2C2687.5,2454.3,2654.7,2454.3,2621.4,2454.3z M1690.3,678.8
	c23.9,8.5,42.2,14.8,60.2,21.5c27.3,10.1,26.3,9.7,40.5-14.5c25.3-43,49.2-87.2,78.6-127.4c66.8-91.4,151.2-164.6,246.2-225.8
	c6.2-4,12.7-7.7,18.7-11.9c5.1-3.5,9.7-7.6,14.6-11.4C1946.3,368.3,1793.2,488.5,1690.3,678.8z M1719.9,3073.5
	c15.1,4,26.3,5.8,36.5,9.9c11.1,4.4,22,10,31.8,16.8c38.4,26.6,38.8,71.8,1.5,100c-6.3,4.7-12.8,9.1-24.2,17.2
	c42.1,3.6,78.1,6.2,113.2,6c6.7-114.5,13.1-225.1,19.7-338.6c-22-2.8-44.9-5.7-72.9-9.3c24.2,45.6,19.9,85.8-0.8,124.5
	C1803,3040.5,1764.6,3058.7,1719.9,3073.5z M1683.8,3570.4c2.1-1.9,4.1-3.8,6.2-5.6c-8-12.3-16.5-24.4-23.9-37
	c-17.8-30.3-37.8-59.6-51.9-91.5c-25.8-58.2-48.8-117.8-71.3-177.4c-5.8-15.2-13-22.1-29-23.9c-30.3-3.3-60.3-8.8-90.5-13.1
	c-4-0.6-8.2,0.7-15.3,1.5C1470.1,3365.9,1560.6,3481.3,1683.8,3570.4z M2834.8,583.4c-50.6-93.7-115.1-168.1-204.7-219.8
	c16.7,39.1,37.4,75.7,54.7,113.9c17.8,39.3,32.4,80,49.1,121.9C2766.9,594.1,2799.2,589,2834.8,583.4z M2452.2,291.1
	c-24.7,25.7-84.3,188.2-83.5,223.7c38.8,1.9,77,12.5,119.2,12C2479.5,446.9,2471.1,370.2,2452.2,291.1z M1695.4,3203
	c30.4-1.9,59.3-10.6,83.2-31.3c16.4-14.2,16.2-23.4,1.7-39.7c-36.2-40.6-126.5-41.8-164.5-2.3c-14.9,15.5-14.9,27,0.7,42.9
	C1637.9,3194.2,1665.2,3201.3,1695.4,3203z M2453,3199.1c28.1,0.2,54.3-4.4,77.3-20.1c25.9-17.8,26.1-39.1,1.1-57.6
	c-40.8-30.3-118.6-24.6-154.6,11.2c-16.5,16.4-16.8,26.2,0.3,41.5C2398.8,3193.6,2424.9,3201.1,2453,3199.1z M1710.2,2852.2
	c-22.5,0.2-39.3,16.3-39.8,38.1c-0.5,23.3,18.5,44.5,40.2,45c23.7,0.5,42.8-17.8,43.4-41.5C1754.4,2873,1732.3,2852,1710.2,2852.2z
	 M2452.4,2931.7c25.8,0.3,44.4-15.8,44.8-38.9c0.4-21.7-18-41.1-39.5-41.8c-24.5-0.8-43,16.1-44.1,40
	C2412.6,2913.9,2429.2,2931.4,2452.4,2931.7z M2493.8,3513.3c43.8-20.3,109.3-96.1,112.5-128.7c-5.2-1.2-10.4-2.9-15.8-3.6
	c-25.3-3.3-27-2-37.6,21c-8.9,19.2-17.9,38.4-27.9,57.2C2515.8,3476.8,2505.3,3493.6,2493.8,3513.3z M1624.6,1325.1
	c13.8,57.8,26.8,111.8,39.7,165.8c1.9-0.3,3.8-0.7,5.6-1c-2.7-55.1-0.8-110.4-7.9-167.3C1648.9,1323.5,1638.3,1324.2,1624.6,1325.1z
	"/>
<path d="M2072.8,3179.7c-59,0.4-112.1-41.9-124.7-99.6c-1.2-5.4-2.1-11-2-16.5c0.3-12.2,5.1-21.7,18.2-24.5
	c13.7-2.9,17.6,7.4,21.5,16.9c3.9,9.4,6.5,19.3,10.4,28.7c14.7,35.3,45.5,54.6,83.3,52.7c35.3-1.8,64.7-24.8,75.6-59.6
	c2.8-8.8,5-17.8,7.3-26.8c2.7-10.3,8.3-16.3,19.9-14.5c11.2,1.7,19.4,7,20.6,18.9c0.6,6.3-0.2,13-1.5,19.3
	C2188.7,3138.4,2138.7,3179.2,2072.8,3179.7z"/>
</svg>
