<?xml version="1.0" encoding="utf-8"?>
<!-- Generator: Adobe Illustrator 24.3.0, SVG Export Plug-In . SVG Version: 6.00 Build 0)  -->
<svg version="1.1" id="Layer_1" xmlns="http://www.w3.org/2000/svg" xmlns:xlink="http://www.w3.org/1999/xlink" x="0px" y="0px"
	 viewBox="0 0 4000 4000" style="enable-background:new 0 0 4000 4000;" xml:space="preserve">
<path d="M3616,2012.6c2.5,112.5-12.3,240.4-58.5,362.8c-21.2,56.1-49.5,109.4-74.2,164.2c-11.9,26.5-25.3,52.6-33.8,80.2
	c-58.6,190.6-139.7,370.4-254.3,534.1c-111.1,158.7-253,282.2-424.6,373c-162.9,86.2-336.6,133.3-518.1,156
	c-111.2,13.9-222.7,17.2-334.1,5.2c-257.2-27.7-493.8-108.5-697.6-273c-97.5-78.7-179.7-171.4-249.8-274.8
	c-106.6-157.2-173.8-330.8-216.2-515.1c-8.9-38.6-20.7-76.8-34.4-114.1c-68.5-186.2-75.8-374.8-27.8-566.9
	c31.5-126.1,82.2-244.3,142.3-359c72.8-138.8,159.2-268.8,254-393.4c11.8-15.5,16.4-30.7,16.2-50.6c-1-94.2,27.9-176.1,105.8-234.6
	c49.4-37,105.5-56.8,167.9-57.5c38-0.4,41.6-3.8,49.7-41.7c7.1-33.1,11.7-67.2,23.1-98.9c40.4-112.2,117.9-194.7,215.6-259.8
	c87.9-58.6,183.8-91.6,290.4-88c57,1.9,111.6,15.2,161,44.5c13.4,8,24.2,8.4,38,2.9c90.9-36.5,182.1-72,272.9-108.7
	c43.5-17.6,68.6-16.3,99.7,18.8c51,57.6,114.8,94.9,183.5,125.5c18.1,8.1,38.7,13.8,58.4,14.7c131.4,6.2,236.5,62.7,308.8,171
	c43.9,65.8,93.8,125.4,145.6,184.6c67.3,76.9,121.4,163.5,168.2,254.5c82.7,160.8,138.9,330.5,175.8,507.2
	C3598.3,1714.3,3616.5,1853.4,3616,2012.6z M1137.5,2378.9c3,35.1,2.4,71.6,9.7,106.4c26.8,128.6,89.1,237.4,191.3,321.4
	c56.9,46.8,122.9,76.4,196.1,81.5c109.9,7.8,196.4-37.3,255.7-130.6c33.9-53.4,49.5-113.5,54.1-176.4c3.6-48.4,6.5-96.9,11.2-145.1
	c3.8-38.9,13.3-76.9,35.4-109.8c44.4-66,108.3-90.9,186.1-84.2c72.1,6.2,122.9,49.7,140.4,119.6c7.7,30.7,9.2,61.6,3,92.4
	c-6.5,32.3-13.7,64.5-22.6,96.2c-12.9,46-22.6,92.3-23.8,140.2c-1.4,56.2,5.8,110.9,34.6,160.2c46.1,79,119.4,114.4,207.6,120
	c85.6,5.5,160.3-26.4,225.5-79.2c105.2-85.2,169.3-195.6,193.4-329c3.4-19.1,5-38.6,9.4-57.4c7.1-30.2,24.9-41.7,55.3-37.9
	c8.7,1.1,17.4,2.2,26,3.7c50.2,8.9,87.5-11.9,113.5-53c20.3-32.1,26.8-68.1,19.9-106.2c-7.7-43-26.5-80.8-50.4-116.7
	c-10.7-16.1-22.5-31.9-30.5-49.4c-13.6-29.7-4.1-58.6,23.5-75.9c9.7-6.1,20.9-10.4,31.9-13.7c22.3-6.7,45-11.9,67.4-18.2
	c52.5-14.6,98.9-39.8,136.3-80c74.1-79.9,50-197.7-49.3-241.5c-7.1-3.1-14.2-6.3-21.4-9.1c-18.7-7.1-25.9-21.8-28.8-40.3
	c-3.1-19.7,6.6-33.2,19.2-46.2c41.3-42.3,72.8-90.7,89.8-147.8c8.7-29.4,11.6-59,5.2-89.1c-11.8-55.2-47.8-89.8-97.4-111.6
	c-23-10.1-47.5-16.9-71-25.9c-30.1-11.5-42.5-30.9-40.2-63c0.7-9.6,2.9-19.2,5.6-28.4c6.9-23.2,14.5-46.3,21.9-69.4
	c37.4-116,32.8-229.8-20.7-339.8c-40.3-82.8-98.6-148.1-187.3-182.3c-113.3-43.8-239.4-7.9-312.5,89.2
	c-40.3,53.6-59.5,115.2-70.5,179.8c-12.6,73.6-22.5,147.7-34.9,221.4c-7.1,42.4-20.2,83.1-45.7,118.6c-32.4,45-76.7,63.7-131.6,57.4
	c-53.8-6.2-88.9-37.2-107.9-85.8c-8-20.3-11.6-43.1-13.3-65.1c-4.5-59.1,12.2-115.4,26.9-171.7c17.9-68.6,35.8-137.1,32.6-209.1
	c-8.1-182.3-160.7-261-284-251.7c-122.3,9.2-220.9,68-304.4,154.5c-31.2,32.3-57.4,68.7-75.5,109.9c-25,56.7-38.9,115.4-30.6,178.3
	c5.8,43.6-14.9,63.5-56.5,57.8c-15.4-2.1-30.6-5.4-46-7.3c-130.5-16.2-215.2,71-220.7,173.5c-4.5,83.9,21.4,158.6,69,226.7
	c10,14.3,20.9,28.2,29,43.5c14.1,26.7,5.8,52.7-21.1,66.2c-11.9,6-25.8,8-38.6,12.4c-34.8,11.9-70.8,21.3-103.8,37
	c-23,11-44.9,28-62,47c-69.1,76.5-51.8,178.1,37.3,229.6c7.6,4.4,15.5,8.2,22.8,12.9c38.2,24.2,42.2,57.2,9.8,88.7
	c-14.6,14.1-31.5,25.8-47.4,38.5c-41.6,33-72.8,72.7-81.4,126.7c-7.5,46.8,11.1,87.2,52.4,110.6c15.9,9,33.5,15,50.7,21.4
	c44.3,16.7,55.5,35.6,49,82.1C1148.1,2297,1143,2337.4,1137.5,2378.9z M3184,893.5c-5.8,53.4-11.3,100.3-15.6,147.3
	c-0.7,7.9,2.8,17.1,6.6,24.4c19.3,36.9,41.3,72.6,58.5,110.4c14.6,32,27.6,63.9,54.8,87.8c5.7,5,9.3,12.4,13.4,19
	c32.8,52.8,37.9,111.1,34.1,171.2c-0.8,12.5-1.2,25.3,0.8,37.5c11.5,69.8,26.3,139.2,35.4,209.4c18.4,141.3,17.6,283.2-3.2,424
	c-40.3,273.1-169.4,497.3-383.7,671.2C2909.7,2857,2827,2907.8,2737,2946c-32,13.6-63.7,28.7-93.2,46.9
	c-93.9,58.2-193.6,76.4-301.4,51.1c-12.8-3-27.1-2.9-40.2-1c-43.2,6.4-86.2,13.6-129.1,21.9c-66.9,12.9-132.8,30-192.8,63.1
	c-27.9,15.4-53.2,35.4-79.9,53c-19.8,13.1-23.8,12-37.7-7.3c-13.5-18.9-26.3-38.5-41.3-56.2c-45.4-53.1-102.1-91.7-161.8-127.1
	c-25.5-15.1-50.2-20-79.6-19.1c-169.1,5.1-298.1-70.5-398.1-202.2c-27.6-36.3-52.9-74.5-82.7-108.9
	c-120.5-139.1-177.9-302.8-192.7-483.7c-10.6-129.1,11.9-253.4,57.3-373.8c7.4-19.6,7.7-35.8-3.6-54.7
	c-20.8-34.9-30.9-73.8-24.5-114.6c8.5-54.5,27.3-105,64.5-147.3c33.4-38,73.8-65.6,121.1-83.2c19.7-7.3,39.2-15.1,59.9-23.2
	c-17.2-34.6-33-66.6-49.1-98.5c-1.1-2.2-4.4-3.4-8.3-6.2c-5,6-10.3,11.4-14.5,17.6c-23.4,34.6-46.2,69.5-69.8,103.9
	c-99.3,144.9-179.3,300.1-239.2,464.7c-81.5,223.8-82.7,448.8,6.6,671.4c70.5,175.9,194.1,309.4,344.5,419.8
	c82.5,60.6,174.3,105.4,266.6,148.7c155.8,73.1,290.2,171.7,389.1,314.8c9.8,14.2,21.4,27.1,33.9,42.8c10.2-8.6,19.2-15.6,27.4-23.4
	c48.2-45.3,98.5-87.8,154.9-122.9c86-53.5,181.3-82.8,278.2-108.1c124.7-32.7,250.5-61.7,374-98.7c270.7-81.1,492.9-233.8,659-464
	c70.9-98.2,125-205.3,159.7-321.9c50.3-168.9,50.8-340.9,31.8-513.8c-14.1-128.5-41.9-254.5-77.4-378.9
	c-52.4-183.8-132.1-354.2-243.4-509.7C3199.9,910.1,3192.9,903.6,3184,893.5z M2622.7,3193.5c-11.6,1.8-17.1,2.3-22.4,3.6
	c-86.7,21-173.3,42.1-259.9,63.2c-66,16.1-130.9,35.9-193.4,62.9c-88.5,38.3-164,95.3-232.5,162.4c-12.4,12.2-25.3,24.4-39.5,34.2
	c-29.1,20-54.1,16.5-77.2-9.9c-12.1-13.8-23.2-28.7-33.6-43.8c-86.8-125.3-195.9-224.7-334.3-290.7c-57.8-27.5-115.1-56-172.7-84
	c-14.5-7.1-29.2-13.9-48.3-23c-3.7,23.2-8.3,41.9-9.3,60.8c-2.5,46,8.9,64.3,51.6,82.2c70.9,29.6,129.8,74.2,170.6,139.6
	c24,38.6,44.6,79.5,65,120.2c7.9,15.8,17.4,27,34.4,32.7c52.3,17.7,103.7,38.3,156.5,54c155,46,313.5,61.8,474.8,50.7
	c15.7-1.1,25.9-7.1,35.9-20c23.7-30.6,48.5-60.6,75.7-88c51.3-51.7,114.9-85.2,180.3-115.6c16.5-7.7,34.1-16.3,46.4-29.1
	c38.2-39.9,74.5-81.6,110.5-123.5C2609.7,3222.7,2614,3209.6,2622.7,3193.5z M1890.1,3117.6c102.3-72.4,216.5-100.3,339-119.5
	c-10.1-9.4-16.4-14.8-22.2-20.7c-16.4-16.4-34.4-31.6-48.7-49.7c-43.9-56-63.7-121.3-69.3-191.4c-5.5-69.7,9-136.9,25.7-204
	c9.4-37.5,19.9-75.4,23.4-113.7c6.3-69.8-35.5-97.1-96-91.2c-47.9,4.7-80.3,32.2-95.3,78.1c-5.1,15.5-8.2,32-9.8,48.3
	c-4.3,44.4-7.6,88.9-10.6,133.4c-4.2,61.7-18.1,120.9-44.9,176.6c-36.8,76.6-90.4,137.3-169.7,172.6c-4.5,2-8,6.3-12.9,10.4
	C1775.7,2990.2,1838.7,3045.1,1890.1,3117.6z M3331.5,1986.4c-6.1,2.1-8.2,2.3-9.4,3.4c-4.1,4.1-8.2,8.3-11.8,12.9
	c-54.8,67.9-126.7,106.9-211,125.1c-8,1.7-15.5,5.3-25,8.6c4.7,8.7,8.1,14.4,10.9,20.3c15.9,34.2,34.6,67.5,46.9,103
	c21.5,62.2,16.5,124.5-11.6,184.2c-18.2,38.7-44.7,70.3-83.5,90.2c-26.2,13.4-53.5,22.3-83.1,24.7c-34.1,2.8-33.7,3.4-39.8,36.1
	c-10.1,54.8-27.6,107.1-54,156.2c-17.2,32.1-35.8,63.5-56.5,100.1c151-85.6,271-196.8,364-337.9
	C3272.4,2354.3,3319.1,2177.4,3331.5,1986.4z M2471,616.4c-12.7-11.1-23.8-19.2-32.8-29.1c-11-12.1-21.2-13-35.7-5.5
	c-27.5,14.2-55.8,27-84.2,39.3c-31.3,13.6-31.4,13-27,48.1c1.2,9.6,1.5,19.3,1.8,29c1.6,56.7-7.6,111.9-21.1,166.8
	c-14.1,57.4-28.7,114.7-39.2,172.8c-4.1,22.9,0.3,48.1,4.5,71.6c3.3,18.5,14.6,34.6,35.1,38.5c21.6,4.1,41.5-2.4,54.1-20.5
	c10.4-14.8,20.2-31.5,24.6-48.8c9.8-38.4,17.1-77.5,23.5-116.7c9-54.5,14.6-109.5,24.6-163.8C2410.9,733.8,2432.8,672.8,2471,616.4z
	 M2995.3,3035.7c-13.9,7.1-23.1,11.9-32.4,16.5c-50.5,24.7-100.3,51-151.7,73.6c-38.1,16.7-78.3,28.5-117.5,42.8
	c-11.7,4.3-24.1,7.4-29.8,21c-27,63.8-72.4,114.3-119.3,163.7c-2.1,2.2-2.7,5.8-5.2,11.3c50.4-5.5,97.6-10.3,144.6-15.8
	c56.9-6.7,109.1-26.4,156.8-58c53.3-35.3,100.2-76.9,130.4-134.3C2989.8,3120.7,3001.5,3083.2,2995.3,3035.7z M2224.5,3596.7
	c1.3,2.1,2.5,4.2,3.8,6.4c29.5-4.7,59.2-8.4,88.4-14.2c125.8-24.8,249.4-56.9,365.8-112.3c28.8-13.7,57.1-28.9,84.8-44.9
	c17.8-10.3,18.9-17.4,12.2-36.4c-7.5-21.2-12.8-23.9-37.5-20.7c-60.5,7.8-121.1,15.2-181.6,23.1c-40.3,5.3-80.9,10-118.8,26.2
	c-82,34.9-149.8,88.6-206.7,156.6C2230.8,3585.3,2227.9,3591.2,2224.5,3596.7z M2792.7,3353.8c9.5,17,16.9,30.3,26.4,47.3
	c226.2-150.7,378.5-355.4,474.8-604.7c-80.1,88-173.2,160-271.7,222.3c14,69.8-1.4,129.9-38.8,183.5
	c-42.3,60.7-96.9,108.1-165.8,137.5C2809.7,3343,2802.6,3348.1,2792.7,3353.8z M2618.4,488.6c-3.1-2.9-5.4-6.3-8.6-7.8
	c-48.4-23.9-90.6-56.1-126.9-95.8c-8.1-8.8-16.1-8.2-26.1-4.1c-74.6,30.1-149.3,59.9-223.8,90c-7.5,3-14.3,7.8-20.6,11.3
	c20.1,33.2,38.5,63.7,57.7,95.6c8.3-3,16.5-5.5,24.4-8.8c37.6-15.6,75.3-31,112.5-47.3c18-7.9,32.6-7.2,47.3,7.5
	c14.2,14.2,30.5,26.3,44.8,38.3C2538.7,541.4,2577.3,515.8,2618.4,488.6z M1202.9,3195.6c-18.8-37.9-19.5-73.8-12.6-109.2
	c4.7-24.1-3.7-36.7-23-49.7c-93.6-63.2-182.7-131.9-256.1-218.7c-3.1-3.6-7.8-5.8-17.1-12.4c6.5,18.3,9.8,30.5,15,41.8
	c24.2,51.8,48.2,103.9,73.8,155c34.7,69.1,83.1,128.6,133,187c7.8,9.2,15.5,17.4,29.2,15.1C1163,3201.4,1181.1,3198.9,1202.9,3195.6
	z M1165.3,3239.7c30.3,56.6,234.4,219.4,277.4,218.6c0.1-1.8,0.8-3.8,0.3-5.4c-1.1-3.7-2.4-7.4-4.2-10.8
	c-25.9-47.9-55.1-93.7-94.8-131.4c-18.1-17.2-38.1-33.4-59.7-45.6C1248.8,3245.1,1210.9,3230.6,1165.3,3239.7z M1056.2,2495.1
	c-10-80.9,1.1-160.5,8.2-234.6c-36.3-23.1-67.5-42.9-101.5-64.6C968.8,2304.9,999.6,2403.6,1056.2,2495.1z M3311.8,1697.3
	c2-0.8,4-1.6,6-2.4c-4.8-37.8-9.6-75.5-14.4-113.3c-2.2-0.4-4.5-0.8-6.7-1.2c-18.3,20.4-28.3,46.2-44.9,68.9
	C3273.3,1666.6,3292.6,1681.9,3311.8,1697.3z M992.9,1879.6c1.9,1.4,3.8,2.7,5.7,4.1c14.5-12.6,29-25.3,43.5-37.9
	c-18.6-21.1-27.6-21.6-36.2-3.5C1000.1,1854.1,997.1,1867.1,992.9,1879.6z M3171,1180.7c-4.3-20.4-7.1-35.4-26.3-43.8
	c-2.9,11.7-5.4,21.5-8.4,33.4C3148.4,1174,3157.8,1176.8,3171,1180.7z"/>
<path d="M2667.5,2058.5c-104.9-3.4-185.8-89.8-181.6-195.2c3.2-81.9,74.2-186.1,194-180.8c98.9,4.4,175.9,86,172.8,186.2
	C2849.4,1975.1,2765,2061.6,2667.5,2058.5z M2754.2,1811.3c0-32.9-22.3-56.5-53.2-56.1c-33.7,0.4-58.8,25.6-58.5,58.9
	c0.2,31.2,22.2,55.5,50.6,56C2728.5,1870.8,2754.2,1846,2754.2,1811.3z"/>
<path d="M1613.3,1957.8c-106.7,1.8-180.5-93-180.9-188.8c-0.3-84.7,80.4-189.8,186.3-185.1c102.8,4.6,187.6,89.5,186.4,192.5
	C1803.9,1878.1,1717.7,1959.5,1613.3,1957.8z M1628.5,1776.3c34-0.1,58.6-24.4,59.2-58.3c0.5-31.2-27.3-61.5-57.1-62.4
	c-32.1-0.9-60.3,28.1-59.9,61.8C1571.1,1752.8,1594.3,1776.4,1628.5,1776.3z"/>
<path d="M1431.6,2616.8c-16.5,9.8-27.9,3.9-38.5-3.1c-110.3-73.2-172.4-206.4-121.2-339.2c13.1-33.9,9.4-57.7-14-83.6
	c-16.1-17.9-28.9-39.1-40.8-60.1c-49.1-86.9-39.7-173.3,5-258.5c32.4-61.8,80.2-109.2,139.8-144.9c29.3-17.6,50.2-40.4,48.5-76.8
	c-0.7-14.4-3.6-28.9-7.5-42.8c-4.1-14.9-10.4-29.2-16.1-43.6c-19.6-49.3-31.7-100.6-29.3-153.4c3.4-76,26.8-146.3,69.2-210.3
	c36.2-54.7,82.4-97.6,140.2-128.2c6.9-3.6,13.8-8.5,21.1-9.4c6.4-0.8,15.7,1.3,19.7,5.7c7,7.6,0.1,14.1-6.8,18.6
	c-7.3,4.7-15.1,8.8-22.5,13.5c-63.3,40.5-115.6,91.1-149.9,159c-42.5,84.1-45.4,171.3-20.9,260.6c6.4,23.4,15.1,46.1,21.6,69.5
	c4.1,14.9,7.6,30.3,8.6,45.6c3.7,53-16,94.6-62.6,122.4c-45.9,27.4-82.2,64.5-110.8,109.6c-64.5,101.6-58.8,208.4,16.9,302.6
	c48.6,60.4,39.9,52.7,23.2,103.9c-39.5,121.1-4.8,219,87.6,300.8c9.4,8.4,20,15.6,28.9,24.4
	C1425.7,2603.6,1428.1,2610.7,1431.6,2616.8z"/>
<path d="M2214.2,1378.2c-4.9,14.9-7.9,28-13.3,40.1c-38,84.1-71.1,170-99.4,257.8c-6.8,21.1-16,41.6-25.4,61.8
	c-11.6,24.8-31,41.8-57.2,50.7c-10.1,3.4-19.8,8.4-30.1,10.8c-89.3,20.9-136.1,115.9-137.8,185.6c-0.4,18.4,1.5,36.8,1.8,55.2
	c0.5,24.2,2.2,48.6,0.2,72.6c-3.5,41.9-25,72.6-63.3,91c-17.5,8.4-34.8,17.1-52.4,25.3c-51.5,24.3-79.9,66.1-91,120.6
	c-10.5,51.2-7.4,102.5,2.5,153.3c5.9,30.4,14.1,60.4,21.5,90.6c2.3,9.4,5.3,18.7,7.7,28.1c2.3,9.2,2,19.3-9.1,20.6
	c-5,0.6-14.4-6.5-16.1-11.9c-13.8-44.4-28.9-88.6-38.4-134c-11.5-55.4-12.6-111.7,2.5-167.3c16.8-61.7,53-107.1,111.4-134
	c15-6.9,29.8-14.2,44.8-20.9c31.8-14.1,48.1-38.4,47.5-73.1c-0.5-27.1-2-54.3-3.6-81.4c-4.4-77.7,18.2-145.3,73.4-201.3
	c24.5-24.9,54-42.8,87-50.8c53.2-12.7,78.5-48,93.4-96.7c27.6-90,60.1-178.3,100-263.6c3.7-7.9,6.7-16.2,11.2-23.6
	C2188.6,1373.4,2189.1,1373.7,2214.2,1378.2z"/>
<path d="M3079.1,1911.6c-14.7,3-21.8,5.4-28.9,5.7c-36.7,1.8-71.3-6.7-103.9-23.1c-42.2-21.2-58.4-56.2-45.4-101.3
	c6.4-22.3,16-43.6,24.7-65.2c28.9-72.6,48.9-147,49.7-225.8c1.1-108.9-27.4-208.8-88.2-299.4c-11.9-17.7-23.2-35.8-34.5-53.9
	c-20.8-33.6-25.5-69.8-21.3-109c5.3-50,9.8-100.4,9.7-150.6c-0.1-58-18-112.6-44.7-164.1c-4-7.7-7.8-15.6-11.1-23.7
	c-1-2.4-0.2-5.6-0.2-12.1c6.3,0.7,14.2-0.7,17.3,2.5c9.4,9.5,18.7,19.9,24.9,31.7c41.6,79.7,57.3,164.3,45.8,253.6
	c-2.9,22.1-5.7,44.2-9.1,66.3c-5.8,38.6,4.1,73,26.7,104.3c29.5,41,56.3,83.6,76.2,130.3c49.9,117.2,52.7,237.5,22.1,359.3
	c-9.4,37.5-24.2,73.6-36.5,110.3c-6.8,20.2-14.7,40.1-20.1,60.7c-7.6,28.9,0.2,47.1,27.4,59c20.3,8.8,42.2,13.9,63.6,20.1
	c11.2,3.2,22.9,4.4,33.8,8.3C3063.3,1897.5,3068.1,1903.2,3079.1,1911.6z"/>
<path d="M2455,2157.3c-2.5,143.8-49.8,263.5-147.4,362.3c-8.1,8.2-15.1,23.2-30.7,14.8c-10.3-5.5-5.4-16.9,9.7-37
	c27.4-36.4,56.6-72,79-111.4c55.5-97.7,66.1-203.5,47.1-313.1c-11.7-67.4-33.6-131.4-61.5-193.7c-17-38.1-33.1-76.6-48.5-115.4
	c-33.3-83.4-38-169.8-25-257.8c3.4-23,6.1-46.2,9.4-69.2c1.8-12.5,4.1-24.9,6.1-37.3c1.5-9.1,6.5-13.6,16-13.1
	c10.1,0.5,13.3,6.8,12.9,15.6c-0.4,8.7-1.4,17.4-2.4,26.1c-4.4,39.6-9.2,79.1-13.3,118.7c-9.2,87.4,9.1,169.8,44.4,249.4
	c22,49.7,43.5,99.6,63.3,150.2C2441.2,2015.8,2452.5,2088.6,2455,2157.3z"/>
<path d="M2137.9,2124.2c-109.2-4-193-84-198.3-192.6c-0.5-9.5,1.5-19.3,3.2-28.7c2.4-13.5,8.5-23.9,24.4-23.8
	c18.1,0,29.1,8.8,32.2,27c2.6,15.3,2.9,30.9,5.9,46.1c10.9,54.9,54.3,94.3,112.3,103c54.5,8.2,113.3-19.8,137.6-67.5
	c8.2-16.2,12.7-34.4,17.7-52c6.8-24.2,15.4-31.9,35.3-29.2c20.1,2.7,30.1,15.5,26.1,40.6c-11.7,74.2-49.9,129.9-120.8,158.6
	C2189.7,2115.3,2163.2,2118.2,2137.9,2124.2z"/>
<path d="M2042.8,1584.5c-9.7,0.4-19.7,2.5-29.1,1c-59.3-9.5-109.7-38.3-154.6-76.4c-68.3-57.9-104.4-133.2-114.6-221.9
	c-12.1-105.3,17.2-201.8,62.2-294.5c20.7-42.7,46.3-83,69.6-124.4c24.3-43.2,48.2-86.6,50.8-137.9c0.5-8.9,2.4-19,14.1-18.1
	c11.4,1,16.3,9.8,15.6,20.8c-2.3,36.2-10.6,71.2-27.6,103.3c-22.8,42.8-47,84.8-70.8,127c-41.5,73.2-73.8,149.8-81.5,234.5
	c-9.8,106.9,14.8,202.6,95.9,278.1c32.2,30,69.6,52.5,110.5,68.9c13.5,5.4,27.4,9.9,40.5,16.2c7.8,3.8,14.3,10.3,21.4,15.6
	C2044.3,1579.3,2043.6,1581.9,2042.8,1584.5z"/>
<path d="M2741.9,2263.5c-26.2-5.3-59.2-9.1-90.2-19.1c-19.4-6.3-38-19.7-52.9-34.1c-20.9-20-22.2-53-7.5-78.1
	c12.7-21.7,30.6-37.5,54.2-46.5c73.3-27.8,147.3-34.1,221.2-3.4c18.4,7.6,36.3,18.9,50.8,32.5c25.5,24,25.9,53.1,4.8,81
	c-26.2,34.7-63.2,50.6-104.2,58.2C2795.2,2258.3,2771.9,2259.9,2741.9,2263.5z M2733.7,2226.5c57.7-1.6,99.6-7.6,137.5-29.5
	c39.8-23,40-50.5,1.2-74c-6.6-4-13.4-7.9-20.6-10.6c-66.6-25.2-132.4-24.4-196.8,7.2c-18.9,9.3-41,18.8-40.1,44.6
	c1,27.4,23.1,40.2,45.3,47C2688.6,2219.8,2718.5,2223.4,2733.7,2226.5z"/>
<path d="M1533.2,2145c-71.9-2.3-126.2-18-175.6-49.5c-28.5-18.2-49.2-43.4-45.8-78.6c3.7-37.3,31.4-56,64.6-67
	c53.7-17.8,107.3-13.3,159.8,4.6c23.7,8.1,46.4,19.6,68.3,31.8c12.4,6.9,24.2,16.7,32.9,27.8c34.3,44.1,20.1,96.3-32.4,114.8
	C1577.9,2138.4,1548.7,2141.6,1533.2,2145z M1523,2110.3c24.3-0.1,52.2-2.2,77.2-17.5c24.9-15.2,29-35.9,10.2-57.9
	c-6.8-8-15.5-14.7-24.3-20.5c-35.4-23.4-74.6-36.5-116.9-40.3c-32.3-3-64-0.6-93.7,13.7c-35.2,16.9-39.2,44-10.3,70.7
	c7.8,7.2,16.5,13.7,25.8,18.7C1430.9,2098.7,1473.2,2111.7,1523,2110.3z"/>
<path d="M2377.8,1592.4c26.1-2.4,53-4,79.7-7.5c80.2-10.5,151.6-40.2,207.8-100.3c44.8-48,70.4-106.4,87.1-168.9
	c14.4-53.7,18.8-108.8,18.7-164.2c0-6.8-1.3-13.9,0.3-20.3c1.1-4.6,5.7-11.3,9.3-11.7c4.3-0.5,10.6,3.8,13.5,7.8
	c3.1,4.4,4.2,10.9,4.6,16.5c8.4,112.4-11.6,218.8-72.9,314.6c-64.1,100.2-159,150.2-276.1,160.4c-18.3,1.6-36.8,1.7-55.2,1.2
	C2378.2,1619.6,2372.2,1610.6,2377.8,1592.4z"/>
<path d="M2677.3,2484.6c-7.5-35.9-15.5-71.7-22.1-107.7c-1.8-10-13.9-24.7,3-30c16.2-5.1,19.8,12.4,24.1,23.4
	c23.8,60.1,29.9,122.2,17.4,185.7c-26.9,137-139.9,243.2-278.1,261.9c-19.9,2.7-29.9-1.2-30.3-12.9c-0.6-17,13.7-17.1,24.5-18.6
	c41-5.9,78.6-20.8,114.1-41.4C2621.9,2691.5,2674.8,2595.6,2677.3,2484.6z"/>
<path d="M2024.6,576.3c-12.1,0-21.8,1-31.2-0.2c-110.1-14-197.9,28.5-268.1,109.6c-27,31.2-46.9,68.6-69.6,103.5
	c-6.6,10.2-9.9,23.8-31,18.4c3.5-14.8,4.6-29.5,10.4-42c44.3-94.8,109.3-169.5,210.4-206.3c50.1-18.2,101.8-25.1,154.3-10.9
	C2012,551.8,2027.6,554.4,2024.6,576.3z"/>
</svg>
