<?xml version="1.0" encoding="utf-8"?>
<!-- Generator: Adobe Illustrator 24.3.0, SVG Export Plug-In . SVG Version: 6.00 Build 0)  -->
<svg version="1.1" id="Layer_1" xmlns="http://www.w3.org/2000/svg" xmlns:xlink="http://www.w3.org/1999/xlink" x="0px" y="0px"
	 viewBox="0 0 4000 4000" style="enable-background:new 0 0 4000 4000;" xml:space="preserve">
<path d="M1012.9,2500.1c2.5-175.5,26.3-347.9,61.6-519.2c55.2-267.5,142.9-524,260.9-770c72.9-152,155.9-298.1,254.5-435.4
	c74.2-103.3,153-202.4,245.5-289.7c39.7-37.5,81.9-72.9,126-105c94.5-68.9,193.6-74.7,296.4-16c72.1,41.1,134,94.6,193.2,151.8
	c116.7,112.8,211.9,242.7,299,378.9c192.5,300.9,326.1,627,416.3,971.6c40.6,155.3,68.9,312.9,82.3,472.9
	c16.2,192.9,12.9,385.2-27,575.4c-31.7,151.1-90.3,290.1-190.4,409.6c-85,101.5-190.6,175.3-309.7,230.8
	c-114.2,53.2-234.9,81.5-359.8,95.6c-105.2,11.8-210.6,15.3-316,10.4c-174.5-8-344.7-38.6-502.9-117.1
	c-207.8-103.1-355.8-262.2-438.7-479.9c-39.9-104.8-64.8-213.5-74.8-325.1C1022.3,2660,1018.3,2580,1012.9,2500.1z M1725.7,2309.1
	c1.2-6.4,2.8-12.1,3.4-18c6.5-69.6,10.7-139.5,19.6-208.8c12.2-95.6,30.5-190.2,64.4-281c20.3-54.3,43.3-107.5,80.8-152.5
	c12.1-14.5,17.6-28.8,14.5-47.2c-1.5-8.9-1.1-18.2-1.4-27.3c-3.9-126.9-1.3-253.8,13.1-379.9c10.8-94.6,27.1-188.5,41.4-282.7
	c1.3-8.9,4.5-17.8,8.8-25.7c1.7-3.1,9.1-5.4,13.1-4.5c3.6,0.9,8.4,6.4,8.7,10.2c0.7,7.9-0.8,16.1-2.2,24.1
	c-34.1,194.3-48.8,390.4-51.9,587.4c-1.8,115.7,6.7,231.1,19.3,346.2c3.4,31,4.7,62.2,7,93c-21.6,7.6-26.4-3.2-28.1-18.1
	c-8.2-69.4-16.4-138.9-24.7-208.3c-0.8-7-2.5-13.9-4.8-26.9c-31.8,43.6-51.7,85.7-66.3,129.8c-53.3,160.2-74.1,325.8-79.9,493.8
	c-0.6,16.5,3.9,29.2,16.3,40.3c24.2,21.6,40,48.6,46.4,80.3c14.2,71.1,2.9,135.8-53.6,186.3c-17.1,15.3-22.7,31.4-19.9,53.5
	c4.9,38.2,7,76.7,11.5,115c20,169.6,47.5,337.5,107.4,498.5c32,86,70.1,168.6,131.5,238.4c7.6,8.7,16.1,16.7,24.6,25.5
	c3.3-5,5.3-6.6,5.2-8.1c-0.3-9.1-0.6-18.3-1.9-27.2c-13.6-93.5-3.9-186.3,10.7-278.6c23.8-150.3,61.6-297.6,100.2-444.7
	c2.9-11.1,3.7-22.8,5.6-34.7c-7.7-1.3-11.6-2.5-15.5-2.6c-85.7-1.9-155.4-72.8-165.4-165.5c-1-9.7-0.1-21.4,4.7-29.3
	c4.5-7.4,14.8-13.5,23.6-15.6c11.3-2.7,19.1,6.2,22.4,16.4c3.4,10.6,4.8,21.7,7,32.6c11.3,56.6,50.4,93.8,106.8,101.8
	c26.2,3.7,30.4,1.5,37.7-22.7c26.4-87.3,52.4-174.7,78.7-262c49.3-163.6,70.9-330.8,65.2-501.5c-3.8-113.6-16.5-226.4-30.5-339.2
	c-25.7-208.4-60.8-415.3-95.9-622.1c-28.8-169.9-59.4-339.6-78.4-511c-0.7-6.7-3.8-13.1-6-20.2c-6.5,1.2-11.6,1.6-16.3,3.2
	c-7.7,2.6-15.4,5.3-22.5,9.1c-80.7,43.3-151,98.7-202.7,175.4c-104.1,154.6-175.8,323.6-225.4,502.9
	c-56.9,205.8-89.6,416.2-121.3,626.8c-22.2,147.4-43.8,294.9-65.5,442.4c-6.2,42.1-12.6,84.3-17.6,126.6
	c-3.9,33.2,28.7,76.3,61.3,83.2c2.2,0.5,5.1-2.6,11.4-6c-4.9-7.7-8.8-15.1-13.9-21.7c-7.4-9.6-17.2-17.7-23-28.1
	c-4.6-8.2-7-19.3-5.9-28.5c0.8-6.5,8.1-14.5,14.5-17.1c4.2-1.7,13.1,3.7,17.6,8.2c7.8,7.8,13.7,17.6,20.8,26.2
	c18,21.6,21.3,22.3,45.3,6.9c29-18.7,60.5-29.1,95-26.7C1674.4,2300.5,1698.2,2305.2,1725.7,2309.1z M2702.2,2305.4
	c2.1-32.3-4.2-58.7-10.6-85c-22.9-93.6-46-187.1-69.3-280.6c-19.1-76.8-39.5-153.2-70.7-226.2c-11.6-27.2-25.2-53.3-47.2-73.8
	c-23.5-22-47.6-23.5-69.6-0.4c-15,15.8-27.5,35.2-36.7,55.1c-25.9,55.6-40.6,115.3-46.5,175.8c-8.1,83.7-10.9,167.9-14.5,252
	c-0.5,12.3,5.4,25.6,10.7,37.3c27.2,60.3,49.8,122,64.2,186.6c34.9,157.3,32.9,316.3,20.8,475.6c-9.2,120.6-31.3,239.3-59.3,356.8
	c-30.6,128.9-72.5,253.5-145.3,365.7c-4.8,7.4-8.2,15.6-14.3,27.1c54.1-3.3,105.1-1.4,153.1-19.6c78.1-29.7,151.2-69.1,218.1-119.4
	c164.3-123.5,268.7-287.3,325.1-483.5c37.8-131.5,53.8-266.3,59.6-402.3c12-280.1-8.8-557.4-76.9-830.3
	c-40.9-163.9-95.1-322.8-176.4-471.6c-7.8-14.2-15-28.9-20.7-44c-2-5.2,1.5-12.5,2.5-18.9c6.1,1.9,14.7,2,17.8,6.1
	c10.9,14.5,20.9,29.9,29.7,45.9c102,187,164.9,387.7,206.7,595.5c44.6,221.8,61,446,54,672c-4.4,141.2-18.1,281.4-53,418.8
	c-62.5,246.3-194.3,443.9-409.7,582.7c-16.7,10.7-34.2,20.2-51.3,30.2c6.3,2.9,11,1.8,15.6,0.6c69-17.5,135.7-41.5,199.6-72.8
	c165.3-81,289.9-202.1,365.4-371.7c61.1-137.5,85-283.1,92.9-431.7c12.3-228.5-14.4-453.7-63.2-676.7
	c-32.4-147.9-79-291.6-131-433.6c-44-120-93.7-237.7-152.8-351.2c-83.1-159.5-176.6-312.5-288-454.1
	c-69.2-87.9-146.2-168.6-232.7-239.8c-6.1-5-13.3-8.6-20-12.8c-0.7,7.8,1.2,11.3,3.4,14.7c57.8,88.3,112.3,178.5,159.8,272.9
	c115.7,229.7,199.6,469.9,244.3,723.7c41,232.7,55.8,467.1,51.2,703c-0.6,33.4,0.8,66.9,1.8,100.4c0.3,11,0.2,25.5,13.7,27.2
	c9.5,1.2,22.5-3.4,29.5-10.1c10.7-10.2,17.7-24.3,26-36.9c5.7-8.7,11.4-18.6,23.8-12.9c10.9,5,13.7,16.1,9.2,26
	c-7,15.5-15.9,30.2-25.1,44.5c-8,12.4-17.7,23.8-26.7,35.6c20,13.9,27.3,14.8,41.6,1.3c11.7-11,20-25.5,31.3-36.9
	c5.7-5.7,16-12.6,22.1-11c12,3.1,10.9,15.8,8.2,25.7c-2.1,7.7-6,15.1-10.3,21.8c-12.2,19.2-28,34.8-48.8,44.6
	c-12.9,6.1-17,15.3-15,29.5c9.4,68.5-14.1,125.4-62.7,173.2c-6.7,6.6-12.4,14.2-21.9,25.2c15.4,0.8,24.3,1.3,33.2,1.8
	c31.7,2,62,8.6,90.3,24c63.5,34.6,51.8,98.3,3.8,125.6c-24.3,13.8-51.4,23.5-78.1,32.1c-20.8,6.7-43,8.7-64.8,12.8
	c-3,25.8-5.2,49-8.6,72c-3.4,23.1-8,46-12.3,68.9c-1.9,10-3.6,20.1-7,29.5c-1.3,3.5-8.1,8.2-10.9,7.3c-4.6-1.5-10.6-6.5-11.2-10.8
	c-1.4-8.8-0.2-18.2,0.9-27.2c2.4-19.1,6-38.1,8.3-57.2c3.2-26.9,5.7-54,8.7-82.8c-11.4-2.5-20.3-3.9-28.9-6.4
	c-17.5-5-35.8-8.5-52-16.3c-60.5-29.5-64.1-96-7.9-133.2c7.2-4.8,14.9-9,26-15.7c-53.3-15.5-98.2-36.8-128.2-81.1
	c-29.6-43.9-43.1-91.7-33.4-144.3c8.1-43.4,29.9-79.9,64.1-107.6C2576.3,2300.9,2635.1,2292,2702.2,2305.4z M1510.6,3420.9
	c1.2-1.4,2.4-2.8,3.5-4.2c-4.2-6.3-8.1-12.9-12.7-19c-41.1-54.5-75-113-101.4-176.1c-34.8-83.5-61.4-169.4-85.4-256.6
	c-53.1-193.1-94.4-387.9-105.3-588.6c-7-130.3-0.4-259.4,21-388c1.3-8,2.7-16.4,6.4-23.3c2.2-4.2,9.4-8.7,13.6-8.1
	c3.9,0.6,8.7,7.4,9.8,12.2c1.3,5.6-1,12-1.4,18c-5.9,77.8-14.5,155.6-17,233.5c-6.7,203.1,21,402.7,68.2,599.9
	c3.5,14.6,8.9,28.8,13.4,43.1c6.3-10.6,9.3-21,10.5-31.6c8.5-77.6,16-155.3,25-232.8c12-103.7,23.4-207.5,38.1-310.9
	c26.2-184.6,55.4-368.8,82-553.4c23.8-165.5,48.1-331,86.2-494c34.4-147.2,73.3-293.1,139.4-430c7.3-15.1,13.1-31,19.7-46.5
	c-2.1-1.3-4.1-2.6-6.2-3.9c-13.9,16.6-29.1,32.2-41.5,49.8c-117,165.2-216.9,340.3-299.6,525c-105.3,235.2-180.9,479.6-227.2,733.3
	c-38.3,209.7-54.7,420.3-34.6,632.9c10.5,110.4,31.6,218.5,71,322.9c56.9,150.4,150.2,272.6,279.7,367.5
	C1480,3402.5,1495.6,3411.3,1510.6,3420.9z M2697.3,2110.5c2.2-0.1,4.5-0.3,6.7-0.4c0-10.1,0.1-20.1,0-30.2
	c-1.3-135-9.3-269.6-26-403.6c-15.7-125.9-36.3-251-69.4-373.5c-69.3-256.4-175.7-496.7-317.7-721.2
	c-27.6-43.7-57.8-85.8-87.9-127.9c-15.1-21.1-35.1-35.9-66.1-37.4c0.8,13.5,0.6,25.5,2.3,37.2c10,70.3,19.3,140.7,30.8,210.8
	c28.1,171.2,59.4,341.8,85.5,513.3c24.7,162.4,44.7,325.5,66.5,488.4c4.4,33.1,7.4,66.4,11.1,99.6c13.5-22.7,19.7-46.3,29.7-68.1
	c11.7-25.7,23.8-52,40.6-74.3c31.7-42.1,84.2-44.4,122.4-8.1c8.7,8.3,16.9,17.9,22.8,28.3c13.4,23.8,27,47.7,37.5,72.9
	c39.1,94,62.9,192.7,87.4,291.1C2681.8,2041.6,2689.3,2076.1,2697.3,2110.5z M1729.1,2805.4c-78.3,46.7-156.4,48.7-236.4,26.4
	c-30.5-8.5-58.9-22.1-80.3-46.9c-27.3-31.8-26.7-66.9,4.5-93.8c14.1-12.2,32-22.4,49.8-27.2c24.1-6.5,49.9-7.1,75-10.1
	c7.4-0.9,14.9-1.3,24.9-2.1c-79.7-63.8-97.8-105.3-92.4-206.2c0.3-6.4-1.2-15.2-5.4-19c-14.7-13.2-31-24.7-50.4-39.8
	c-2.5,13.8-4.7,23.4-5.9,33c-5.2,42.2-10.3,84.5-15,126.8c-14.9,134-29.9,267.9-44.1,401.9c-1.5,13.8,0.3,28.4,3.4,42
	c16.2,72.4,40.3,142.2,68.6,210.7c40.5,98.1,98.3,183.8,178.8,253.6c28.6,24.8,60,44.3,95.9,57.4c68.1,24.8,139.1,36,210.2,46.8
	c24.4,3.7,48.8,6.6,72.7,9.8c1.2-4.8,2-6.1,1.6-6.7c-3.9-5.9-7.6-12-12-17.4c-63.2-77.2-104.1-166.6-138.5-258.8
	c-47.7-127.8-73.9-261-93.6-395.6C1736.5,2863.4,1733.3,2836.3,1729.1,2805.4z M2068.6,3574.2c31.9,0,58.3,1.5,84.4-0.8
	c9.5-0.8,20.4-8.7,26.7-16.5c13.9-17.3,26.2-36.1,37.7-55.2c46.7-78,78.2-162.6,102.7-249.6c70.2-249.3,97.7-503.2,78.2-761.6
	c-6.4-85.2-22.9-168.8-53.1-249.1c-4-10.6-7.1-22-19.4-31.5c-32.2,162.6-83,316.9-126.9,477.3c9.3-3.3,13.4-4,16.7-6
	c27.1-16.1,40.4-42,48.6-71c4.4-15.6,5.9-32,10.3-47.5c5.8-19.9,20.2-24.2,37.6-12.7c14.3,9.4,14.5,23.9,12.6,38.1
	c-9.9,74.9-43.4,132.3-119.6,156.7c-14.5,4.6-24.2,11.7-28.2,28c-36.5,150.7-79,300.1-104.3,453.4c-15.5,94.4-23.7,189.3-15.4,284.9
	C2058.9,3530.8,2064.2,3550.3,2068.6,3574.2z M1584.9,2814.9c27.4-6.1,55.4-10.4,82-19.1c16.8-5.5,36.4-15.3,37-36
	c0.6-18.6-16.6-29.4-31.3-38.2c-45.5-27.4-94.9-40.9-148-35.7c-20.8,2.1-41.9,7.2-61.4,14.7c-18,7-35.9,19.7-36,41.2
	c0,20.1,17.8,30.5,33.9,39.5C1499.3,2802.8,1540.7,2810.5,1584.9,2814.9z M2768,2685.7c-51.1-0.4-88,5.2-122,22.3
	c-16,8.1-31.4,18.6-44.6,30.7c-13.5,12.4-13.8,24.1-1.3,37c9.5,9.8,21.7,19.3,34.5,23.3c74.1,23.3,144.2,9.4,208.9-29.9
	c30.5-18.5,27.2-45.2-4.1-63.8C2813.3,2689.7,2784.5,2685.6,2768,2685.7z M1658.8,2482.5c34.4,0.5,58.7-22.2,58.6-54.8
	c-0.1-29.4-23.6-52.8-54.1-53.8c-31-1-55.7,22.9-56.4,54.7C1606.3,2453,1622.5,2484.5,1658.8,2482.5z M2654.9,2481.9
	c32.8,0.3,54.9-19.7,55.9-50.7c1-30.5-25-57.4-55-56.9c-29.8,0.5-53,23.9-54.1,54.7C2600.7,2460.2,2622.3,2481.6,2654.9,2481.9z
	 M1714.4,2700.1c0-16.9,0-28.1,0-43.6c-19.5,4.2-35.3,7.7-51.2,11.1c-0.2,2.2-0.4,4.4-0.6,6.6
	C1678.2,2681.9,1693.7,2689.7,1714.4,2700.1z"/>
</svg>
