<?xml version="1.0" encoding="utf-8"?>
<!-- Generator: Adobe Illustrator 24.3.0, SVG Export Plug-In . SVG Version: 6.00 Build 0)  -->
<svg version="1.1" id="Layer_1" xmlns="http://www.w3.org/2000/svg" xmlns:xlink="http://www.w3.org/1999/xlink" x="0px" y="0px"
	 viewBox="0 0 4000 4000" style="enable-background:new 0 0 4000 4000;" xml:space="preserve">
<path d="M2447.9,3782.6c-288.5-6.1-568.9-88.6-822.5-258.2c-270.9-181.1-474.7-420.1-616.5-712.7
	c-91.8-189.5-150.1-389.2-177.1-597.7c-24.3-188.1-18.3-375.7,15-562.8c52.9-296.6,166.2-568,337.3-815.3
	c143.4-207.3,322-377.2,543.5-500.1c131.8-73.2,272-121.5,422.8-130.5c183.4-10.9,354.8,29.8,509.9,132.1
	c158.7,104.8,263.4,251.7,333.1,425.4c63.9,159.3,94.1,326.7,110.4,496.7c19.1,199.2,33.6,399,54.2,598
	c31,299.3,96.4,591.1,200.3,874c33.2,90.4,66.3,181.2,82.8,276.5c36.4,210.5-28.2,386.5-187.2,527.8
	c-105.5,93.7-231,149.7-365.5,187.3C2749.3,3762,2607.5,3780.5,2447.9,3782.6z M2506.9,3691.9c91.4-0.6,221.1-15.6,347.3-51.7
	c127.6-36.4,248.6-87.7,348.6-178.3c131-118.8,182.7-264.7,149.4-440.1c-16.7-87.8-46.7-171.3-76.1-255.1
	c-51.8-147.6-97.7-296.8-132.7-449.3c-57.7-251.3-80.3-507.2-102.1-763.3c-13.5-157.8-24.3-316-52.2-472.2
	c-25.2-141-64.9-277.1-135-403.1c-82.8-149-199.6-261.5-357.9-327.5c-187.5-78.2-377.3-78-567.3-9.6
	c-163.6,59-306.3,152.9-432.9,270.6c-227.5,211.4-385.7,467.9-486.3,760.6c-69.1,201.1-105.7,407.9-104,620.9
	c0.7,96.6,10.7,192.3,26.2,287.6c42.1,260.1,140.3,497.7,287.8,715c96.2,141.8,212.9,265.5,346.6,372.5
	C1829.4,3579.6,2128.5,3691.2,2506.9,3691.9z"/>
<path d="M2487.8,1998.6c0-83.7,49.5-158.1,112.9-183c64.4-25.4,146.2-7.1,195.6,43.7c20.7,21.3,28,22.2,50.7,3.2
	c8.9-7.4,15.7-17.3,23.2-26.3c6.4-7.7,12.9-15.7,24.1-9.7c11,5.9,15.3,17.6,9.9,27.5c-10.6,19.5-20.7,41.4-37.2,54.8
	c-20.1,16.4-25.1,31.3-22.4,56.8c8.2,77.4-26.2,136.6-92.7,173c-62.5,34.3-128.1,34-188.4-8.2
	C2513.8,2095.7,2490.1,2045.6,2487.8,1998.6z M2685.4,1985c30.4,0.8,56.4-22.7,57.7-52c1.3-28.2-24.6-57.2-52.3-58.6
	c-30.4-1.5-57.7,24-58.9,55.1C2630.6,1959.5,2654.5,1984.2,2685.4,1985z"/>
<path d="M1437.4,1908.4c3-17.9,4.5-36.1,9.3-53.5c4.4-16.2,2.9-27-10.9-39.1c-13.2-11.6-22.7-28-31.6-43.6
	c-4.4-7.8-5.6-18.6-4.7-27.7c0.6-6,7.1-15.3,12-16.1c6.7-1,16.7,2.8,21.1,8.1c8.8,10.5,13.9,24.1,22.2,35.1
	c11.6,15.5,18.4,16.3,35.4,6c7.3-4.4,13.8-10.1,20.9-14.9c64.6-44.3,147.1-41.4,212.7,7.5c53.3,39.8,80.1,122.7,60.5,187.4
	c-22.8,75.6-88,125.3-165.3,130.1C1512.7,2094.3,1435.9,2002.3,1437.4,1908.4z M1640,1802.1c-29.9-0.6-55.1,26.2-55.2,58.7
	c-0.1,28.7,21.2,50.9,49.7,51.8c29.4,0.9,53.8-21.5,55.1-50.6C1691,1830.5,1667.9,1802.6,1640,1802.1z"/>
<path d="M1936.4,1956.5c93.7,10,187.4,19.8,281,30.3c41.5,4.7,82.8,10.8,124.1,16.5c9.5,1.3,18.9,3.8,28.4,5.3
	c16.9,2.7,24.1,12.7,21.7,29.4c-16,110.3-73.8,220.7-218,236.8c-56.5,6.3-109.1-3.5-159-27.7c-73.6-35.7-116.1-96.2-130.4-176.1
	c-4.3-24.1-5.7-49-5.4-73.5c0.3-36.4,8.1-42.3,44.8-40.3c4.3,0.2,8.6,0.5,12.8,0.8C1936.3,1957.4,1936.4,1956.9,1936.4,1956.5z
	 M2350.8,2042.1c-143.7-15.8-284.6-37-429.9-46.6c-0.5,40.6,0.2,75.9,16.1,111.5c134.6-61.2,253.4-39.9,356.8,61.3
	C2319,2146.3,2342,2095.9,2350.8,2042.1z M2258.6,2201c-54.7-103.6-236.6-116.4-297.5-48.6C2007.1,2232.6,2173.3,2272.5,2258.6,2201
	z"/>
<path d="M2336.2,3581.1c-36.8-6.8-73.8-12.2-110.2-20.5c-303-69.5-558.1-223.4-774.3-443.8c-78.8-80.4-146.8-170-204-267.3
	c-7.6-12.8-14.1-26.5-19.2-40.4c-1.7-4.6,1-14.7,4.6-16.6c5.5-2.8,14.8-2.9,20.3,0c6,3.1,10.4,10.5,14,16.8
	c75.9,134.7,174.4,251.4,289.2,353.8c196.4,175.3,418.8,303,678.5,359.4c32.4,7,65.3,11.4,98,17c7.4,1.3,14.7,2.6,22,4.3
	c10.6,2.4,17.5,8.2,15.4,20.3c-2,11.8-10,15.5-20.9,15.1c-4.3-0.2-8.6,0-12.8,0C2336.5,3579.8,2336.4,3580.5,2336.2,3581.1z"/>
<path d="M1499.7,2273.9c-41.1-2.2-92.4-14.1-138.2-44.8c-7.9-5.3-15.8-11.1-22.5-17.9c-40-40.4-31.9-92.8,18.3-119.3
	c35.5-18.8,74.3-22.2,112.3-15.6c37.5,6.5,74.8,17.7,110,32c19.7,8,37.8,24.4,51.9,41c29.8,35.1,20,80.2-19.7,103.5
	C1588.3,2266.6,1552.4,2274.3,1499.7,2273.9z M1514.8,2237.5c17.9-2.6,36-4.1,53.6-8c19.2-4.3,39.1-11.8,42.1-33.9
	c3-21.4-12.8-35.3-29.4-45.9c-43.2-27.6-90.5-44.6-142.1-41.5c-22.7,1.3-46.5,8.3-66.9,18.5c-27,13.5-28.4,39.4-6.7,60.6
	c6.8,6.6,15.1,11.9,23.4,16.6C1427.8,2226.1,1469.9,2236.3,1514.8,2237.5z"/>
<path d="M2752,2358.4c-40.3,1.1-78.8-4.9-114.2-25.7c-47.4-27.8-55.1-78.8-16.8-118.1c8.1-8.3,17.6-16.5,28.1-20.7
	c71.3-28.4,143.8-40.5,218.3-11.5c8.9,3.5,17.6,7.7,25.8,12.7c54.1,33,56.5,86.9,5.3,124.5c-33,24.2-71.5,32.6-111.2,36.9
	C2775.5,2357.7,2763.7,2357.8,2752,2358.4z M2743.3,2323c40.1-1.4,78.1-6.2,113.6-22.6c18.3-8.5,40-17,40.3-40.9
	c0.2-24.6-19.7-36.9-40.1-44.8c-57-21.9-114.5-21.7-171.6,0.3c-9.9,3.8-19.4,9.2-28,15.3c-32.1,22.7-31.4,49.6,1.4,71.2
	C2685,2318.7,2714.7,2321.5,2743.3,2323z"/>
<path d="M2680,3115c23.8,0.8,46.4,25.3,45.5,49.4c-0.8,22.5-21.8,41.4-45.1,40.7c-23.1-0.7-43.5-22.9-43.3-46.9
	C2637.4,3135.2,2658.3,3114.3,2680,3115z"/>
<path d="M1222.4,1765.9c-1.4,25.4-19.1,41.2-44.2,39.2c-26.3-2-43.6-22.9-42-50.4c1.4-23.5,19.1-41.1,40.7-40.5
	C1202.6,1715,1223.8,1739.2,1222.4,1765.9z"/>
<path d="M2674.7,625.7c0.6,24.1-19.5,45-44.2,46c-22.8,0.9-42-18.1-43-42.7c-1-23.6,20.3-46,43.9-46.1
	C2654.3,582.8,2674.1,602.4,2674.7,625.7z"/>
<path d="M1735.5,1505.2c-23.7,0.5-43-18.4-43.1-42.2c-0.1-24.4,18.6-44.9,40.8-44.8c22.6,0.1,42.2,19.7,43.1,43.2
	C1777.4,1485.9,1759.9,1504.7,1735.5,1505.2z"/>
<path d="M2176.9,1042.6c-2,24.3-22.2,42.2-45.4,40.2c-20.9-1.8-37.2-23.2-35.2-46.2c1.8-20.8,21.2-40.1,39.7-39.4
	C2158.4,998,2178.6,1020.5,2176.9,1042.6z"/>
<path d="M1837.7,3134.1c-21.7,0.7-41.8-17.7-42.6-39.1c-0.9-21.4,18.7-43.2,38.7-43.1c20.8,0.1,42.4,19.9,43.4,39.7
	C1878.1,3112.2,1858.5,3133.4,1837.7,3134.1z"/>
<path d="M2480.8,2610.6c-21.7,0.5-40.4-17.8-40.9-40.1c-0.5-22.9,15.2-41.5,34.9-41.3c20.3,0.2,43.9,22.7,44.7,42.7
	C2520.3,2590.9,2501,2610.2,2480.8,2610.6z"/>
<path d="M1710.3,2541.4c0.3,20.2-16,37.4-35.6,37.6c-20.8,0.2-37.6-17.8-37.1-39.8c0.4-19.7,14.7-34.4,33.8-34.9
	C1694.1,2503.8,1709.9,2518.9,1710.3,2541.4z"/>
<path d="M2982.9,3442.7c0.1-15.5,13-28.7,28-28.7c15,0,29.7,13.8,29.3,27.6c-0.5,14.9-17,29.6-32.3,28.7
	C2993.6,3469.4,2982.7,3457.4,2982.9,3442.7z"/>
<path d="M1706.5,688.8c-0.5,15.4-13.8,28.5-28.5,28.2c-14.1-0.3-26.4-15.1-25.3-30.7c1-14.6,12.7-26.1,26.5-26.2
	C1694.8,660.1,1707.1,673,1706.5,688.8z"/>
<path d="M2704,1020c13.7,0.3,27,13.9,26,26.6c-1,12.4-15.5,27.6-26.6,27.9c-13.3,0.3-27.5-12.8-27.7-25.7
	C2675.4,1034.5,2689.9,1019.8,2704,1020z"/>
<path d="M1185.2,2072.1c-13.9,0.8-25.7-10.7-26.7-25.8c-1-15.6,8.7-28.7,22.1-29.9c14.5-1.3,30.2,11.5,31.3,25.6
	C1213.2,2056.5,1199.9,2071.4,1185.2,2072.1z"/>
<path d="M3037.7,2730.5c-1,14.3-13.7,27.2-26.4,26.8c-13.7-0.5-26.9-13.6-26.7-26.6c0.2-15.2,14.8-27.7,30.1-25.8
	C3027.8,2706.5,3038.5,2718.3,3037.7,2730.5z"/>
<path d="M1248.3,1373c0.8,15.3-8.9,25.8-24.5,26.7c-16,0.9-27-8.6-27.3-23.6c-0.3-14.3,11.3-27.7,24.4-28.1
	C1234.9,1347.7,1247.6,1359.2,1248.3,1373z"/>
<path d="M2308.3,1618.3c-13.4-0.2-25-11.4-25.1-24.1c-0.1-15,14.5-29.2,29.1-28.2c13.6,0.9,22.8,11.7,22.6,26.2
	C2334.5,1607.4,2323.2,1618.6,2308.3,1618.3z"/>
<path d="M2246.4,640.9c14.7,0.8,25,13.2,23.6,28.4c-1.4,15.1-13.4,24.8-28.7,23.3c-13.8-1.4-23.8-12.8-22.6-26
	C2219.9,652.5,2233.2,640.2,2246.4,640.9z"/>
<path d="M2003.9,2838.5c-0.5,13.8-13.4,27-26.5,27.1c-14.9,0.2-24.5-11.2-23.4-27.8c1-15.6,9.7-25.1,23.2-25.3
	C1991.5,2812.4,2004.4,2824.9,2003.9,2838.5z"/>
<path d="M2617.2,1338.8c15.2-0.8,26.5,9.5,27.1,24.7c0.6,13.5-11,26.2-25.2,27.6c-13.6,1.3-26.9-10.9-27.3-25
	C2591.5,1352,2603.1,1339.5,2617.2,1338.8z"/>
<path d="M3221.3,3169c-0.4,12.7-14.7,25.5-28.3,25.3c-13.1-0.2-25.1-14.6-24-28.7c1.1-13.3,12.7-23.9,25.7-23.3
	C3208.8,3142.9,3221.8,3155.9,3221.3,3169z"/>
<path d="M2280.2,3336.1c0.8,13.2-12,27.9-24.6,28.4c-13.3,0.5-25.1-10-25.6-22.8c-0.6-14,11.1-27.5,24.4-28.3
	C2267.1,3312.8,2279.4,3323.5,2280.2,3336.1z"/>
</svg>
