<?xml version="1.0" encoding="utf-8"?>
<!-- Generator: Adobe Illustrator 24.3.0, SVG Export Plug-In . SVG Version: 6.00 Build 0)  -->
<svg version="1.1" id="Layer_1" xmlns="http://www.w3.org/2000/svg" xmlns:xlink="http://www.w3.org/1999/xlink" x="0px" y="0px"
	 viewBox="0 0 4000 4000" style="enable-background:new 0 0 4000 4000;" xml:space="preserve">
<path d="M1935.7,183.4c450.7,6.9,832.9,135.3,1167.3,399.7c275.4,217.7,467.8,495.1,579.7,826.8c76.8,227.6,105.6,462.7,81.7,702.4
	c-24.2,242.9-87.9,474.9-204.1,690.8c-127.8,237.5-298.7,437.5-516,598.4c-163.8,121.3-342.8,211.7-536.6,272.5
	c-231.2,72.5-467.6,100.9-709.4,75c-239.6-25.6-467.9-90.1-681-203.7c-217.7-116.1-407.2-267.4-562.7-460
	c-172.4-213.5-290.2-453.5-352.2-721c-30.4-131.6-47.1-265-46.7-399.6c0.8-279.8,64.8-545,191.7-795.1
	c151.1-297.6,370.2-532.2,652.2-708.9c220.8-138.4,460.6-225.7,718.6-260.5C1798.7,189.2,1880.3,187.5,1935.7,183.4z M3721.9,1943.7
	c-4.4-54.3-8.3-118-14.9-181.6c-18.1-172.8-65.4-337.9-136.5-496.2c-109.3-243.7-269-449.2-473.5-620
	c-131.4-109.7-276.3-198.5-434.1-265.2c-166.7-70.5-339.8-115.7-520.4-133.9c-179.5-18.1-357.3-10.9-533.6,26.1
	c-270.6,56.8-515.2,170.4-734.1,339.7C718,733.9,584,876.4,478.8,1044.2c-168,268.1-264.2,559.4-269.6,877.7
	c-0.7,39.9,3.5,80,8.3,119.7c3.6,29.6,18.8,55.2,39.6,76.8c33.8,34.9,64.8,39.9,108.4,18.5c16.5-8.1,32.6-17.5,50-23.3
	c41.7-13.9,80.7,3.8,93.5,45.3c8.8,28.6,11.8,59.2,15.8,89.2c6.9,52.5,10.2,105.7,19.9,157.7c4.6,24.6,17.2,49.5,31.9,70.1
	c36.9,51.8,87.6,47.5,119-7.4c17-29.7,25.8-61.9,30.2-95.5c4.7-35.4,8.7-71,13.2-106.5c4.7-36.9,14.1-72.4,35.2-103.7
	c54.7-81.1,169.2-75.5,206.1,10c10.7,24.9,20.6,50.2,32.9,74.2c9.3,18.1,20.1,36.1,33.7,51c8.8,9.7,22.9,16.9,35.9,20
	c38,9.1,67.7-6.5,85.1-42.4c15.4-31.9,19.3-66.5,20.7-101.2c2.5-61.7,2.1-123.6,6-185.3c5-78.3,31.9-146.9,91.3-202
	c25-23.2,48.2-51,64-81.1c37.9-72.5,93.4-119.1,171.9-143.1c76.2-23.3,135.1-71.9,177.2-140.2c9.7-15.7,19.1-31.7,30.7-46
	c22.5-27.6,43.7-57.3,70.2-80.5c82.8-72.5,187.2-78.1,279.2-18.1c15.4,10,30.1,21.2,44.5,32.7c50,39.7,105.5,58.4,169.8,46.8
	c20.2-3.7,40.8-5.1,61.3-7.6c144.2-17.6,261.1,56.1,308.1,193.4c19.5,56.8,31.1,115.3,33.3,175.1c4,108.3,4.4,216.8,8.5,325.1
	c2.6,68.1,5.3,136.6,31,201.5c9.3,23.5,21,45.3,40.7,61.7c31.9,26.5,75.9,22.8,100.5-10.5c12-16.3,20.6-35.5,28.7-54.3
	c9.8-22.9,16.8-46.9,26.2-70c5.7-13.9,12.2-28,21-40.2c31.2-42.9,87.2-47.1,124.2-9c10.3,10.6,19.6,24.1,23.9,38
	c12.2,39.2,22.3,79.1,31.8,119.1c9.3,39.3,19.8,78,45.3,110.3c28.1,35.6,78.5,35.8,106.7,0.5c7.4-9.2,14.2-19.6,18-30.6
	c9.3-26.5,17.3-53.5,24.8-80.5c9.5-34.4,16.2-69.7,27.2-103.6c12.5-38.5,35.5-69.9,75.7-83.6c52.9-18.1,95.3,1.2,131.3,39.8
	c12.5,13.5,23.4,28.7,37,40.9c7.3,6.6,19.2,12.1,28.6,11.5c28.2-1.9,53.7-12.7,66.2-40c8.9-19.4,16.8-40.5,19.2-61.5
	C3717.7,2040.2,3718.7,1996.8,3721.9,1943.7z M1552.7,1623c-50.3,9.7-91.7,20-118,62.2c-31,49.7-64.2,97.4-107.9,137.7
	c-46.1,42.6-72.7,96.7-76.4,160.5c-1.4,23.8-2.7,47.6-3.7,71.4c-2.1,48.7-2.6,97.6-6.3,146.2c-3.1,41.4-14.2,81.1-36.9,116.7
	c-17.1,26.8-40.5,44.7-71.9,51.7c-59.6,13.3-113.6-8.3-145.2-61.1c-14.9-24.9-25.3-52.6-37.9-79c-7.9-16.6-14.9-33.8-24.6-49.3
	c-12.2-19.3-30.5-25.6-53.6-20.1c-32.5,7.7-54.2,27.5-64.9,57.9c-7.1,20.2-10.8,41.9-14.1,63.2c-6.9,43.9-11.9,88.1-19.1,131.9
	c-5.5,33.4-17.2,64.9-36.2,93.3c-47.4,70.8-128.2,78.5-188.4,18c-29.3-29.4-47.3-65.5-54.8-105.3c-9.3-48.8-14-98.5-20.3-147.9
	c-3.6-27.9-4.9-56.2-10.1-83.8c-4.8-25.3-12.6-28.7-36.6-19.8c-19.3,7.1-37.6,16.7-56.9,23.9c-44.7,16.6-87.2,13.2-126.1-16.5
	c-4.8-3.6-9.8-7-20.9-15c1.1,17,1.3,27.2,2.5,37.4c10.6,87.4,28.2,173.4,53.4,257.6c60.9,203.6,156.8,389,287,557.3
	c143.2,185.2,317,335.1,518,453.4c196.5,115.7,408.9,187,634.4,221.1c177.5,26.8,354.7,25.2,531-4.7c343-58.2,645-203.3,903.2-437.2
	c280.8-254.4,456.4-568.8,533.9-939c5.5-26.1,9.8-52.4,14.5-78.3c-5.2-1.3-7.2-2.4-9.1-2.1c-4.3,0.6-8.7,1.4-12.6,3.1
	c-58.1,25.5-102.8,4.2-141.2-40c-8.5-9.8-16.9-19.9-26.6-28.5c-31.8-27.9-76-21.5-97.2,15.2c-8.5,14.7-13.8,31.8-18.2,48.4
	c-8,30.4-13.9,61.3-21.3,91.8c-8.7,36.1-21.9,70.3-43.8,100.8c-49.5,68.9-147,70.4-196.2,0.9c-16.6-23.5-29-50.9-38.4-78.3
	c-11.5-33.7-17.6-69.2-26.6-103.8c-4.9-18.8-10.2-37.6-17.1-55.7c-5.1-13.5-14.2-25.2-30.7-25.1c-16.3,0.1-25.6,11-31.3,24.6
	c-8.5,19.9-16,40.3-23.7,60.5c-15,38.8-33.5,75.4-64.3,104.3c-35.9,33.8-77.5,41.2-123.4,24c-42.4-15.9-68.2-48.6-86.4-88.2
	c-26.3-57.1-37-117.9-38.6-180.1c-3.1-119.2-3.1-238.5-7-357.7c-2.3-70.5-12.5-140-41.3-206c-46.1-105.9-144.3-144.9-240.2-132.7
	c-20.4,2.6-40.7,6.1-61.1,8.8c-66.8,8.6-129.7-1.3-186-40.8c-20.4-14.3-40.3-29.3-60.5-43.9c-98.5-70.8-197.1-27.4-247,34.3
	c-37,45.7-67.6,96.7-101,145.3c1.1,2,2.2,4,3.2,5.9c149.9-68.1,303.1-73.8,455.9-19.5c155.8,55.4,268.1,161.4,332.4,314.5
	c110.7,263.4,21.1,568.1-212.5,726.1c-208.3,140.9-519.6,137.6-729.6-69.9c-104.4-103.1-166.6-228.2-178-373.7
	C1366.3,1912.8,1430.4,1759.6,1552.7,1623z M2497.6,2042.1c1.5-287.6-236.8-531-522-531.5c-320.4-0.6-545.1,251.8-544.9,526.9
	c0.2,308.3,250.6,538.7,525.6,541.6C2264.7,2582.2,2498.8,2330,2497.6,2042.1z"/>
<path d="M1559.5,428.7c25-1.1,46.6,11,61.5,32.6c31.4,45.5,61.5,91.9,91.8,138.1c4.7,7.2,8.1,15.4,11.2,23.4
	c13.4,35.5,2.4,71.8-27.6,92.1c-32.6,22.2-74,19.1-101.7-7.9c-5.4-5.3-10.4-11.2-14.6-17.4c-29.5-44.1-59.9-87.8-87.6-133
	c-9.2-15-15.8-34.1-16.1-51.5C1475.6,462.2,1512.2,429.5,1559.5,428.7z M1681.3,651.2c-6.9-11.9-11.4-20.5-16.7-28.5
	c-24.9-38-50-75.9-75.1-113.8c-3.6-5.4-7.6-10.5-11.5-15.7c-7.9-10.3-17.5-11.1-28.7-5.4c-18.1,9.1-22.4,21.7-10.7,39.4
	c29.9,45.1,60.5,89.7,90.9,134.4c1.8,2.7,3.6,6.7,6.1,7.3c7.6,1.8,17,5.4,23.1,2.6C1667.3,667.6,1673.6,658.5,1681.3,651.2z"/>
<path d="M3122.1,1765.1c-25.5-0.1-42.4-7-55.9-20.5c-41.9-42.2-83.7-84.5-124.7-127.7c-17-17.9-25.4-39.9-22.1-65.4
	c7.5-56.6,68-87.4,117.7-59.1c10.2,5.8,19.9,13.3,28.4,21.4c35.4,33.4,70.3,67.4,105.3,101.1c34.3,33,44.1,62.1,10.7,115.8
	C3166.2,1755.6,3145.2,1765.5,3122.1,1765.1z M3154.9,1679.5c-8.3-10.3-13.5-18.3-20.2-24.9c-21.4-21.3-43.4-42-64.9-63.2
	c-16.9-16.6-32.7-34.5-50.3-50.3c-14.4-12.9-25-12-36.8-0.6c-13.7,13.2-14.7,19.7-3.4,36.4c5.4,8,12.1,15.1,18.9,22
	c32.5,32.9,65.6,65.3,97.7,98.6c10.5,11,22.2,15.1,34.4,7.6C3139.6,1699.6,3145.9,1689.3,3154.9,1679.5z"/>
<path d="M1373.4,1557.3c-2.1,50-48,88.5-94.7,79.5c-19.5-3.8-38.9-13.5-56-24.2c-34.9-21.8-68.2-46.1-102.1-69.5
	c-6.2-4.3-12.2-9-18.1-13.7c-52.6-42.2-29.7-116.5,20.4-140c21.3-10,43.3-10.3,62.4,2.1c54.5,35.4,108.4,71.8,161.4,109.3
	C1366.5,1514.7,1373.4,1537,1373.4,1557.3z M1161.8,1439.7c-20.5-0.5-27.6,10.1-34,21.8c-6,11.1,0.7,18.6,7.8,25.4
	c5.4,5.2,11.6,9.7,17.8,13.9c35.7,24.2,71.4,48.3,107.2,72.3c6.2,4.2,12.6,8.5,19.4,11.4c14.4,6.2,25.2,0,32.8-12.2
	c7.9-12.7,6.5-24.6-5.2-34.6c-2.4-2.1-5.3-3.8-7.9-5.6c-39.8-27.6-79.6-55.4-119.6-82.7C1173.3,1444.5,1165.3,1441.5,1161.8,1439.7z
	"/>
<path d="M1978.6,1120.7c-0.3,35.6-15.4,62.7-47.9,78.1c-30,14.3-58.1,10.6-84.5-10.8c-41.9-34-84.7-67-127.2-100.3
	c-28.8-22.5-38.4-52-28.7-86.4c9.3-33.1,33.3-51.9,66.2-59.9c21.6-5.3,41.6,0.6,58.1,13.5c47.6,37.3,94.4,75.6,140.9,114.3
	C1971,1082.2,1978.8,1100,1978.6,1120.7z M1924.4,1121.6c-2.6-3.7-6.3-11.8-12.5-17c-41.3-34.7-82.6-69.4-124.8-103
	c-16.2-12.9-32.9-7.7-42.4,10.7c-7.4,14.3-5.1,22.5,13.9,37.9c38.4,31.4,77.4,62.1,116.2,93c4.2,3.3,8.6,6.8,13.5,8.6
	C1904.9,1158,1924.8,1143.6,1924.4,1121.6z"/>
<path d="M3348.7,1144.7c-4.9,68.9-74.2,103.9-122.4,72.8c-48.2-31.2-99.2-58-146.8-90.1c-62.8-42.4-30.5-122.6,13.3-142
	c21.3-9.4,42.1-10.4,62.4,1.1c26.3,15,52,31.2,78.1,46.6c25.2,14.9,50.8,29.2,75.6,44.5C3334.9,1093.6,3348.7,1117,3348.7,1144.7z
	 M3121.7,1031c-8,7.7-18.9,14.2-22.9,23.6c-2.6,6.2,3.2,17.8,8.3,24.8c4.8,6.6,13.3,10.7,20.6,15.1c31.3,19,62.8,37.7,94.2,56.7
	c10.1,6.1,19.4,13.9,30,19c15.1,7.2,28.1,2.7,36.5-10.4c9.1-14.1,7.3-24-7-36.5c-3.2-2.8-6.8-5.3-10.5-7.5
	c-40.6-24.5-81.2-49-122-73.2C3141.7,1038.3,3133.4,1035.9,3121.7,1031z"/>
<path d="M770.5,993.4c2-66,67.6-102.3,122.6-65.7c47.7,31.8,93.7,66.3,138.7,101.8c38,30,42,76.3,13.3,112.2
	c-29.2,36.5-74.4,43.5-112.3,16.1c-42.1-30.4-83.8-61.5-125.2-93C778.2,1042.4,769.5,1024.3,770.5,993.4z M1009.6,1088.2
	c-2.5-3.9-5.9-12.1-11.9-17.4c-10.4-9.3-22.4-17-33.8-25.2c-32.4-23.5-64.7-47.2-97.4-70.4c-16.1-11.4-25.9-10.3-36.8,2.2
	c-10.2,11.6-9.3,23.5,3.2,37.4c2.9,3.2,6.1,6.2,9.5,8.8c40.7,30.6,81.1,61.4,122.2,91.5C983,1128.4,1007.7,1115.6,1009.6,1088.2z"/>
<path d="M3179.9,1976.8c0.9-26.7,12.1-48.8,33.4-64c46.8-33.3,93.7-66.5,142.2-97.2c37-23.4,76-14.9,101.2,17.8
	c27.6,35.7,25.5,77.5-5.7,108.8c-6.1,6.1-13.1,11.4-20.1,16.4c-34.3,24.7-68.5,49.6-103.2,73.6c-12.4,8.6-25.5,16.9-39.5,22.2
	C3231.9,2076,3178.6,2037.4,3179.9,1976.8z M3421.2,1890.6c1.2-26.4-17.2-40.4-36.4-30.8c-19.1,9.6-36.8,22.5-54.3,35
	c-29,20.7-57.3,42.3-85.9,63.5c-12.1,9-15.8,19.1-7.3,33.2c11.2,18.4,22.2,22.2,42.9,8c42.7-29.3,84.6-59.8,126.3-90.6
	C3413.7,1903.7,3418.1,1894.6,3421.2,1890.6z"/>
<path d="M2470.7,937.4c1.4,24.7-9.6,45.9-31.2,59c-51.8,31.4-103.7,62.9-157.5,90.5c-37.8,19.4-76.5,4.7-97.9-30.9
	c-22.3-37.2-16.2-78.4,15.7-105.5c4.9-4.2,10.1-8.4,15.7-11.5c46.3-25.9,91.7-53.5,139.2-76.8
	C2414.1,833.2,2470.2,870.1,2470.7,937.4z M2241.4,1042.1c10.5-3.7,19.1-5.5,26.4-9.5c42.7-23.3,85.1-47,127.6-70.7
	c4.7-2.6,8.8-6.2,13.2-9.4c13-9.5,13.1-21.4,6-34.3c-9.8-17.8-20.6-20.5-40.2-9.1c-43,24.9-85.9,49.9-128.5,75.5
	c-8.8,5.3-15.9,13.5-25,21.4C2228.4,1019.2,2234.6,1030.1,2241.4,1042.1z"/>
<path d="M938.6,1844.1c-3.3,30.7-25.4,61.5-54.9,73.4c-31.7,12.8-63.8,6.2-86.2-18.1c-4.4-4.7-8.6-9.9-11.8-15.5
	c-28.4-49.7-57-99.4-84.7-149.5c-16.1-29.3-15.1-58.2,7.4-84.4c23.2-27.1,52.7-37.9,87.1-28.6c12.7,3.4,25,12.2,34.7,21.5
	c9.1,8.7,15.2,20.9,21.5,32.2c23.9,42.4,47.8,84.7,70.7,127.6C929.4,1815.6,933.3,1830.2,938.6,1844.1z M781.1,1671.9
	c-25.5,0.6-38.7,19.1-29.6,37.7c17.5,35.8,36.6,70.9,55.4,106.1c7.6,14.3,15.2,28.7,24.5,41.8c10.8,15.4,20.4,16.5,35.9,7.4
	c13.3-7.8,18-18.2,10.3-32.4c-26.8-49.2-53.4-98.6-80.9-147.4C792.8,1678.6,784.4,1674.7,781.1,1671.9z"/>
<path d="M1909.6,563.8c-2.3-52.5,58.5-100.5,114-71.7c48,24.9,97.9,46,146.3,70.3c41.9,21,56.4,59.7,39.9,100.3
	c-16.8,41.3-57.4,61.4-100.4,49.5c-4.2-1.1-8.5-2.1-12.3-3.9c-48.7-23.5-97.6-46.9-146.1-70.9C1923,623.5,1910.4,599.6,1909.6,563.8
	z M2159.8,630.4c1.2-14.1-12.5-19.8-25.2-25.9c-41.8-20-83.7-39.9-125.7-59.6c-5.8-2.7-12.7-7-18.1-5.8c-8.6,1.9-20.2,5.8-23.6,12.3
	c-4.1,8-4.3,21.6,0.1,29.3c4.7,8.4,16,14,25.4,18.6c28.1,13.6,56.8,26.1,85.2,39.1c15.7,7.1,30.9,15.6,47.1,21.2
	C2144.4,666.2,2159.2,654.6,2159.8,630.4z"/>
<path d="M2611.7,1256.6c-0.8-25.8,10.3-48,33.5-61.3c52.5-30,105.3-59.8,159.5-86.5c35.6-17.5,73.5-2.4,94.8,32.1
	c21.2,34.4,15.2,77.9-14.8,102.7c-10,8.2-20.8,15.7-32,22.1c-39.3,22.6-79.2,44.4-118.6,67C2667.6,1371,2609.6,1310.3,2611.7,1256.6
	z M2686.3,1294.2c11.7-4.5,20.1-6.7,27.6-10.7c19-10.3,37.6-21.2,56.3-32.1c24.3-14.2,48.6-28.2,72.5-42.9c10.6-6.5,18-15,13.2-29.6
	c-7.4-22.1-21.1-29.6-42-18c-45.4,25.1-89.9,51.7-134.6,77.9c-4.6,2.7-8.7,6.6-12,10.7c-8.5,10.3-4.1,21,1.9,30
	C2673.4,1285.8,2680.9,1289.8,2686.3,1294.2z"/>
<path d="M3515.4,1366.6c51.5-4.1,99.5,52.3,77.2,105.6c-21.3,50.9-38,103.7-58.6,155c-18.6,46.2-60.4,63.3-105.4,45.8
	c-39.2-15.2-57.7-57.9-43-102.5c16.6-50.4,33.7-100.6,52.1-150.4C3450.6,1385.4,3475.8,1365.6,3515.4,1366.6z M3432.4,1595
	c-0.8,16,8.5,28.5,23,32.9c14.9,4.5,22.5-4.5,27.4-16.1c7.6-17.8,14.6-36,21.3-54.2c12.7-34.4,25.4-68.8,37.5-103.4
	c4.3-12.3,3.4-23.3-10.9-29.5c-13.3-5.8-25.3-5.7-35,6.1c-3.4,4.1-6.1,9-8,14c-17.4,45.3-34.6,90.8-51.7,136.2
	C3434.2,1586.1,3433.3,1591.5,3432.4,1595z"/>
<path d="M672.7,1475.8c-4.5,38.3-17.8,63.2-46.7,77.1c-30.8,14.9-66.7,9.7-90.8-12.2c-3.2-2.9-6.4-6-8.8-9.5
	c-33.5-50.3-68.2-99.9-99.9-151.4c-19.6-31.9-9.4-70.9,20-95.7c28.8-24.2,68.9-25.4,98.4-1.4c10.7,8.7,19.7,20,27.7,31.4
	c26,37.2,52,74.4,76.3,112.7C659.7,1443.8,666.7,1463.1,672.7,1475.8z M622.9,1484.9c-7.1-12-12.1-21.5-18.1-30.3
	c-25.5-37.4-51.3-74.7-77.1-111.9c-4.3-6.2-9.1-12.1-14.1-17.7c-8.6-9.7-18.2-9.5-28.9-2.9c-10.3,6.4-15.8,14.8-13.1,26.9
	c1.1,5.1,3.6,10.3,6.6,14.6c32.2,45.9,64.3,91.8,97.6,137c3.8,5.2,16.2,9.7,21.1,7.3C606.5,1503.1,613.8,1493.3,622.9,1484.9z"/>
<path d="M1297.2,1256.4c0-29.8,15.1-51.6,38.3-67.7c30.2-20.9,61.3-40.5,92-60.7c15.4-10.1,31-19.8,46-30.3
	c33.9-23.9,80.5-7.5,104.1,21.9c25.5,31.8,22.6,77.6-6.7,106c-7,6.7-14.5,13.1-22.6,18.4c-37.9,25-76,49.7-114.1,74.3
	c-6.3,4.1-12.9,7.9-19.7,11.3C1357.4,1358.1,1296.7,1320.3,1297.2,1256.4z M1345.2,1255.4c19.4,36.8,28,39.7,58.4,19.9
	c38.8-25.3,77.3-51.2,115.8-77c5.3-3.6,10.4-7.8,14.5-12.7c10.5-12.2,4.9-24.6-1.8-35.8c-6.8-11.1-17.7-11.1-28.6-6.4
	c-6.9,3-13.6,6.6-19.9,10.7c-37.7,25-75.6,49.8-112.8,75.7C1360.7,1236.8,1353.1,1247.4,1345.2,1255.4z"/>
<path d="M2734.6,932.6c-34.3,0.9-59-11.5-71.1-40.3c-23.9-56.7-47.5-113.7-67.7-171.8c-14-40,5.9-76.7,44.2-92.4
	c38.5-15.8,77-3.8,98.5,31.2c3.9,6.4,7.4,13.2,10.2,20.2c18.9,47.1,37.4,94.4,56.3,141.5c11.9,29.7,8.9,57-11.6,82
	C2777.3,922.7,2757.3,933.7,2734.6,932.6z M2725.1,876.4c29.5-1.2,38.4-12.7,30.1-37.1c-10.3-30.6-23.7-60.1-35.4-90.2
	c-8.2-21.1-15.5-42.5-23.9-63.5c-5.4-13.4-16.9-16.5-29.4-11.5c-12.7,5-24.4,13.7-18.9,29.2c19,53.8,38.8,107.3,59.8,160.4
	C2710.1,870.6,2721.6,874.1,2725.1,876.4z"/>
<path d="M1093.5,783.7c6.6-14.4,10.7-30.8,20.3-42.8c35.1-43.9,71-87.3,108.6-129.1c31.5-35,64.5-37.7,101-12.4
	c36.4,25.2,45.7,61.8,25.6,102.3c-4.3,8.7-9.6,17-15.7,24.6c-31,38.9-61.9,77.9-93.8,116c-25,29.9-52.9,36.6-86.6,23.1
	C1119.2,852,1096.4,819.3,1093.5,783.7z M1308.6,665.8c-2.3-4.9-3.7-9-6.1-12.5c-13.2-19.4-33.6-19.9-51.3,0.8
	c-23,27.1-44.4,55.6-66.5,83.4c-10.1,12.6-21.3,24.4-30.2,37.9c-8.4,12.8-3,28.4,11.2,39.2c11.7,8.9,22.3,8,33.7-5.8
	c33.7-40.7,66.7-81.9,99.6-123.3C1303.5,680,1305.5,672.4,1308.6,665.8z"/>
<path d="M376.8,2018.9c-52.6-0.4-90.4-40.9-78.8-91.2c13.5-58.8,30.3-117.1,50.6-173.8c17.2-48.2,72.9-64,115.5-37.8
	c27.6,17,41.7,45.4,34.1,77.6c-13.4,56.7-27.9,113.3-44.1,169.2C442.6,2002.3,416.6,2019.3,376.8,2018.9z M422.7,1756.5
	c-18-0.6-27,6.5-33.1,28.7c-12.7,46.9-24.7,94-36.9,141c-0.8,3.1-2,6.2-2.5,9.4c-2.7,18.2,2.7,26.2,20.4,30.5
	c19.3,4.7,30-1,35.9-22.1c14.3-50.9,28-102,41.1-153.2C453.4,1768.3,444.7,1757.3,422.7,1756.5z"/>
<path d="M1452,2668.6c90.9-1.5,174.9,66.3,175.5,174.1c0.6,106.9-81.8,191.2-184.2,191.4c-98.8,0.1-184.9-84-182.8-181.8
	C1262.8,2741.2,1354.8,2664.6,1452,2668.6z M1550.7,2785.7c-0.3-30.6-27.5-58.2-57.7-58.6c-37.1-0.5-66.9,28.7-65.9,64.7
	c0.8,31.9,28.9,57.1,62.7,56.3C1524.6,2847.3,1551,2820.1,1550.7,2785.7z"/>
<path d="M2461.8,2669.4c102.5-0.3,188.2,80,183.8,178.8c-4.3,97.6-74.2,180.5-182.8,184.1c-95.6,3.1-181.4-84.3-181.3-180.3
	C2281.5,2749.3,2360.1,2669.7,2461.8,2669.4z M2488.7,2788.6c0.4-30.1-29.4-60.7-59.6-61.3c-35-0.7-62.7,25.8-62.9,60
	c-0.2,34.1,27.1,60.6,62.3,60.3C2462.7,2847.3,2488.3,2822.2,2488.7,2788.6z"/>
<path d="M2584,3235.2c-54.3-1.9-95.8-8.2-134.9-25.7c-27.9-12.5-51.2-30.8-53.5-63.6c-2.3-32.8,19.2-53.7,43.9-70.9
	c7-4.9,15.1-8.9,23.2-11.1c70.2-18.7,140.6-23.6,210.1,2.3c15.9,5.9,31.6,14.5,44.8,25.1c33.4,26.9,35.5,69.8,2.9,97.9
	c-16.6,14.3-38.1,25.3-59.2,31.6C2632.8,3229.4,2602.3,3232.1,2584,3235.2z M2659.9,3099.6c-59.3-17-115-21.1-170.1-4.6
	c-17.7,5.3-33.3,19.5-48.2,31.7c-10.7,8.7-11.6,21.5,0.8,30.3c13.1,9.2,26.7,18.9,41.6,24.1c45,15.6,91.9,13.2,138.3,8.3
	c25.7-2.7,51.1-10.3,70.5-29.9c15.8-16,15.4-29.9-2.3-43.7c-6.3-5-14.7-7.4-22.4-11.2c-19.9,59.4-25.2,65.1-53.7,58.7
	C2617.8,3136.5,2637.7,3121.1,2659.9,3099.6z"/>
<path d="M1332.4,3235.4c-45.2-0.6-84.3-7.5-121.4-24.2c-26.9-12.1-49.9-29.9-52.9-60.7c-3.1-32.3,17-54.9,42.6-71.7
	c38.8-25.4,83.5-30.7,127.8-29.4c34.1,1,68.5,8.5,101.7,17.4c18.1,4.8,35.4,16.4,50.3,28.4c30.3,24.5,32.1,68,2.3,93.6
	c-16.7,14.3-38.2,24.4-59.1,32.1c-19,7-40,8.8-60.3,12C1351.6,3234.8,1339.6,3234.9,1332.4,3235.4z M1316.5,3082.3
	c-0.2,1.3-0.4,2.6-0.5,3.9c-11.9,0-23.8-0.8-35.7,0.2c-26.8,2.2-50.2,12.9-69.6,31.3c-18.1,17.1-17.7,34.4,2,49.2
	c10.1,7.6,22.5,13,34.7,16.7c48.8,15.1,98.4,11.4,147.4,1.4c19.5-4,40-10.8,56.1-21.9c22-15.3,20.6-31.1-1.2-46.3
	c-11.3-7.9-24.4-15-37.7-17.9C1380.5,3091.9,1348.4,3087.7,1316.5,3082.3z"/>
<path d="M1964.6,3144c-86.6-3-148.2-30.9-184.3-100.4c-9.7-18.7-13.9-40.7-17.7-61.7c-2.5-13.5,3.3-26,19.8-28.4
	c16.1-2.3,23.9,6.9,27.7,21c1.9,7.3,3.4,14.8,5.3,22.1c12.6,47.3,44.3,75.5,90,89.3c38.9,11.8,77,7.3,114.4-6.9
	c40.8-15.5,66.1-43.8,72-87.9c0.7-5.4,1.1-10.8,2.5-16c3.4-13.1,11.1-21,25.6-19.2c13.8,1.7,21.2,10.2,22.4,23.6
	c0.6,6.4-0.3,13-1.5,19.3c-11.8,66.6-49.3,112.2-113.8,133C2003.5,3139.1,1978.4,3141.3,1964.6,3144z"/>
<path d="M2533.1,3168.4c14.9-29.6,24.4-55.2,56-62.9C2594.1,3135.4,2572.4,3162.2,2533.1,3168.4z"/>
<path d="M2512.4,3110.6c4.6,18.8-4.6,29.8-13.2,40.1c-3.1,3.6-14.3,5.9-16.3,3.7c-4.1-4.5-7.4-13.2-5.8-18.7
	C2481.5,3120.2,2492.7,3111.3,2512.4,3110.6z"/>
<path d="M1282.5,3109.9c-6.3,16-10.5,28.7-16.3,40.7c-4,8.4-11.1,13.9-21,8.1c-11-6.4-15.1-16.1-8-27.2
	C1245.7,3118.3,1257.7,3109.5,1282.5,3109.9z"/>
<path d="M1355.1,3106.8c-8.2,41.7-18.9,54.4-45.4,56.2C1311.4,3130.9,1324.7,3113.6,1355.1,3106.8z"/>
<path d="M1384.3,3159.4c-3.4-19.3,5.4-31.3,17.6-40.3c4.7-3.5,13.8-3.1,19.9-1.2c2.2,0.7,3.4,11.3,1.9,16.5
	C1418.3,3153.7,1410.6,3158.4,1384.3,3159.4z"/>
</svg>
