<?xml version="1.0" encoding="utf-8"?>
<!-- Generator: Adobe Illustrator 24.3.0, SVG Export Plug-In . SVG Version: 6.00 Build 0)  -->
<svg version="1.1" id="Layer_1" xmlns="http://www.w3.org/2000/svg" xmlns:xlink="http://www.w3.org/1999/xlink" x="0px" y="0px"
	 viewBox="0 0 4000 4000" style="enable-background:new 0 0 4000 4000;" xml:space="preserve">
<path d="M984.5,2524.6c2.7-172.1,24.6-341.7,55.2-510.4c66.3-365.1,178.4-715.4,344.8-1047.4c102.5-204.5,227.5-394,390.9-556
	c64.2-63.6,130.5-124.9,208.2-171.9c27-16.4,55.7-30.7,85.1-42.2c44.5-17.5,90.9-18.2,135.1,0.6c37.5,15.9,75,33.3,109.4,55
	c114,71.8,207.3,166.9,292.6,270c163.5,197.6,284.4,420.3,384,655.4c93,219.5,164.4,445.9,216.2,678.6
	c58.6,263.4,89,529.5,76.8,799.6c-7.9,175.3-37.3,346.4-104.9,509.4c-99.1,239.2-267.2,411.8-502.7,519.3
	c-194.3,88.7-398.5,123.3-610.8,111.9c-154.6-8.3-304.4-39-446.3-103.8c-236-107.7-406.4-279.5-510.7-517.1
	c-56.5-128.7-91.7-263.1-105.5-402.7C993.7,2690.4,990.1,2607.4,984.5,2524.6z M2510.4,3655.6c22.8-8.2,45.8-15.8,68.3-24.6
	c263.6-102.6,445.8-284.7,541-552.5c64.1-180.3,83.7-367.2,82.1-556.8c-1.6-192.2-24.7-382.5-63-570.8
	c-40.8-200.2-95.8-396.4-167.2-587.9c-68.2-182.8-148.1-359.9-250.2-526.8c-87.5-143.3-185.9-277.6-306.9-394.6
	c-52.6-50.9-110.1-95.1-172-133.8c-6.2-3.9-13.4-6.1-25.5-11.4c6,14.3,9.9,22.4,13,30.8c13.4,36.5,26.8,73,39.5,109.7
	c1.8,5.3,0.3,11.7,0.3,17.7c-2.2,0.3-4.3,0.7-6.5,1c-4.1-9-8.4-17.9-12.2-27c-15.1-35.9-29.4-72.1-45.4-107.6
	c-5.8-12.8-14-25.3-23.8-35.4c-18.5-19-35.8-15.8-44.1,9c-9.5,28-18.9,56.8-22.3,86c-6.7,58-9.2,116.4-13.6,174.6
	c-0.5,7-2.3,13.9-3.5,20.9c-2.5-0.2-5-0.4-7.6-0.7c-8-50.3-7.9-101.3-1.7-151.8c6.2-50.3,17.6-99.9,27.2-152.1
	c-7.8,1.7-14.9,2-21,4.6c-42.3,18.2-77.6,45.1-104.7,82.9c-43.4,60.6-72.8,128.3-99.6,197.1c-77.1,197.5-124.9,403.2-162.7,611.1
	c-32.1,176.5-55.2,354.3-64.8,533.8c-10.1,189-3.9,377.1,17.3,564.9c1.9,16.6,1.8,33.4,2.6,50.2c-2.3,0.3-4.6,0.7-6.8,1
	c-2.8-11.4-6.3-22.8-8.4-34.4c-18.9-105.1-28.9-211.3-32.6-317.8c-5.6-161.1-0.8-322,19.1-482c13.1-105.7,29.8-210.9,47.5-315.9
	c11.9-70.6,28.9-140.4,42.9-210.7c4.6-23.2-0.7-33.5-17-41.3c-14.1-6.8-27.1-4.8-40.8,11.5c-16.4,19.5-32.9,39.9-44.2,62.5
	c-25.7,51.2-48.1,104.1-72.1,156.1c-2.5,5.3-6.8,9.8-10.3,14.6c-2-1-4-2-6.1-3.1c6.6-21.1,12.9-42.3,20-63.1
	c20.7-60.3,43.5-119.6,83.8-170.2c34.1-42.9,47.9-46.3,99.9-24.5c46.1-181.6,99.7-360.3,192.9-525.2c-12.4,4.7-23.3,10.3-31.9,18.3
	c-43.2,40.8-87.5,80.6-128.1,123.8c-141,149.9-249.4,322.2-341.5,505.3c-84.9,169-150.9,345.6-207.8,525.6
	c-43,135.9-81.2,273.1-107.6,413.3c-2.2,11.8-3.6,23.7-5.6,37c10.4,0.7,17.4,1.7,24.4,1.4c30.1-1.1,57.4,8,79.7,27.2
	c19.2,16.5,35.5,36.4,52.4,55.4c6.3,7.1,11,15.6,20.4,29.4c2.3-14.3,3.4-20.9,4.5-27.5c16-101.2,29.9-202.7,48.6-303.4
	c23.4-126,56.1-249.9,101.3-370.1c5.7-15.2,9.9-31.6,23.7-43.1c-126.4,425-191.7,856.8-153.4,1302.1c-7.6-3.9-13.4-8.3-14.6-13.6
	c-3.2-13.9-4.9-28.3-6.3-42.6c-13.1-133.9-19.1-267.9-8.2-402.3c1.1-14.1,1.5-29.5-3.1-42.4c-13.9-38.7-31.9-75.7-61.9-105.1
	c-21-20.7-45.6-34.8-75.9-36.2c-31.7-1.5-39,4.3-44.5,36.3c-31,179.3-46.9,359.8-42.4,541.9c4.1,165.1,28.1,326.8,86.8,481.9
	c88.6,233.9,244.5,407.2,471.2,515c27.2,12.9,54.6,26.6,86.3,29.8c-46.9-49.1-94.1-97.5-130-154.9c-36.3-58.2-74-115.9-104.7-177
	c-30.2-60.2-54.8-123.7-77.6-187.2c-22.8-63.6-44.1-128.4-44.9-197.9c7.4,6.1,12,13.3,14.4,21.1c9,30.4,16.7,61.3,26.1,91.6
	c48.1,155.6,112.2,303.8,208.5,436.3c51.4,70.7,108.1,136.6,180.6,187.3c33,23.1,82.9,38.9,114.2,33.7c-7.8-11.4-15-22.5-22.7-33.1
	c-47.2-64.7-79.3-136.3-96.4-214.4c-18-82.3-5.1-159.1,46-227.5c40.4-54.1,126.7-84.6,189.8-50.7c4.9,2.6,11,2.9,18.2,4.7
	c0-6.1,0.5-10.2-0.1-14c-8.8-58.8-19.3-117.4-26.4-176.3c-17-141.3-35.8-282.5-35.2-425.1c0.5-114.8-0.7-229.8,4.6-344.5
	c6.2-133,18.2-265.8,28.8-398.6c8.7-109.3,19-218.5,28.3-327.7c3.5-40.8,5.8-81.8,9.6-122.6c2-21-6-35.8-23.6-46
	c-8.8-5.1-17.6-11.1-27.2-13.8c-52.4-14.7-94.5,4.3-128.8,43.2c-23.3,26.5-38.5,57.9-49.4,91.4c-2.3,7.1-5.2,14.1-7.9,21.1
	c-6-7.1-8.7-14-7.4-20.1c3.8-16.9,7.7-34.1,14.5-50c23.1-54,57.9-96.3,117.6-112.9c33.8-9.4,64.8-4.3,93.8,14.9
	c6.3,4.2,13.1,7.8,22.6,13.5c12.1-107.1,15.9-211.1,36-313.2c3,5.7,3.2,11.3,2.9,16.8c-4.4,85-7.9,170-13.6,254.9
	c-8.2,121.7-18.2,243.3-27.3,364.9c-12.4,166.6-25.2,333.2-36.6,500c-4.5,65.4-7.3,131.1-8.2,196.7c-1.4,97.3-0.4,194.7-0.4,293.4
	c21.8,6.7,31.2,22,33.1,45.2c5.1,61.5,67.7,100.8,110,103.6c60.7,4,110-28.1,128-84.4c5-15.6,7.2-32,11.5-47.8
	c5.2-19,15.4-25.2,34.2-22.1c18,3,27.5,13.6,23,32.8c-6.6,27.7-13.7,56-26,81.4c-55.2,113.8-204.4,126.1-285.8,42.5
	c-4.4-4.6-10.4-7.6-19.6-14.2c0.8,16.2,0.6,27.4,2,38.4c15.4,120,30.3,240,46.9,359.8c15.2,109.6,34.5,218.7,47.8,328.5
	c8.8,72.4,7.4,145.5-16.8,216.1c-1.9,5.5-1.8,11.6-3.2,21.5c31.5,0.5,60.9-0.3,90.1,1.8c21.9,1.6,38.4-5.8,50.2-23
	c22-32.1,45.6-63.4,63.9-97.5c46.8-87.3,74.8-181.7,96.5-277.9c25.7-114.3,37.8-230.1,45.6-347c9.5-142.8,4.1-285.2-6.6-427.1
	c-10.7-140.9-27.7-281.5-46.2-421.7c-18.5-140.2-42.2-279.7-63.5-419.5c-3.9-25.8-7-51.7-10.5-77.5c2.2-0.5,4.5-0.9,6.7-1.4
	c5.7,22.3,12.9,44.3,16.9,66.9c27,153.4,55.5,306.6,79.4,460.4c27.2,175.3,46.8,351.6,51.5,529.3c4.8,182.7,2.9,365-29.8,545.7
	c-21.4,118.3-48.9,234.8-100.1,344.4c-22.5,48.1-48.2,94.3-86.4,141.3c26.4-3.1,46.5-3.9,65.9-8.2c31.8-7.1,65.3-12,94.3-25.8
	c65.9-31.3,125.7-73.2,180-122.3c134.4-121.3,230.9-268.6,293.6-437.5c23.8-64.1,38.3-131.6,56.8-197.6c2.9-10.3,3.4-21.8,18.9-28.7
	c-5.3,72.8-22.7,139.9-44,205.9C2840,3323.2,2702.9,3508.4,2510.4,3655.6z M2084.1,3710.9c2.4-51.3,5.6-96.1,6.3-140.9
	c1.9-119.6-22.5-236.2-41.4-353.4c-2.9-18.2-13.3-28.4-29.6-35.8c-57.7-26.2-128.8-7.9-170.8,45.5c-40.2,51.2-53.1,109.9-44.9,173.6
	c14,109.3,61.9,202.7,135.3,283.7c6,6.6,13.8,13.5,22,15.6C1999.9,3709,2039.8,3705.4,2084.1,3710.9z"/>
<path d="M2577.2,1539.3c4-3.5,8.2-6.3,11.2-10c45.2-56,103.6-67.6,168.6-45.6c33.5,11.4,64.6,30.3,96.6,46.1
	c7.2,3.6,13.7,8.5,26.1,16.4c-2.4-12.9-3.3-21.2-5.6-29c-37.5-125.9-83.4-248.7-136.5-368.8c-38.5-87.1-81.2-172.4-121.9-258.5
	c-3.3-6.9-5.3-14.4-5.1-23c37.2,48.7,66.5,102,93.3,156.5c166.2,337.4,279.8,690.8,321.8,1065.7c5.8,51.9,11.9,104.2,10.1,156.6
	c-2.2,0.4-4.5,0.9-6.7,1.3c-2-6-5.2-11.8-5.9-17.9c-16.8-153-43.4-304.4-77.3-454.4c-9.9-44-22.8-87.2-33.2-131.1
	c-8.4-35.8-28-62.8-58-83.6c-44.4-30.9-91.4-54.8-146.1-60c-52.5-5-110,32.4-123.8,82.6c-3.9,14.1-1.2,30.5,1,45.5
	c25,175.7,44.3,352,50.6,529.4c2.6,74.7,0.4,149.7,0.4,224.5c0,21.4,0,42.8,0,66.7c9.3-2.2,16.1-3.1,22.4-5.4
	c53.7-20,107.3-40.3,161-60.3c7.6-2.8,15.6-5.3,23.6-6.5c18.5-2.7,27.7,4.1,34.7,22.3c6,15.8,0,26.1-13.8,32.5
	c-15.7,7.3-31.9,13.8-48,20.3c-31.4,12.6-62.9,24.7-94.2,37.5c-7,2.9-13,7.9-24,14.8c19.6,3,33.5,4.8,47.3,7.2
	c51.1,9,98.3,28.4,142.1,55.7c22.6,14.1,26.1,30.5,13.5,48.7c-8.7,12.6-20,17.4-34.5,11.2c-6.6-2.8-13-6.2-19.1-10
	c-56.8-34.8-119.6-47.2-185-48.9c-38.5-1-39.4,0.6-43.4,38.1c-10.6,98-29.1,194.5-53.1,290c-1.4,5.7-3.4,11.3-11.2,17.1
	c0-7-0.9-14.1,0.1-20.9c10.2-66.8,21.3-133.5,30.9-200.4c5.3-37.2,8.3-74.7,12.9-117.4c-20.3,4.7-35.7,8.3-51.1,11.8
	c-14,3.2-27.8,8.2-36.4-10.4c-10.8-23.2-11.6-41.4,3.5-53.6c15-12.2,31.9-22.2,48.9-31.6c46.9-26,41.1-12.4,45.3-71.5
	c10-140.7,3.1-281.1-9.1-420.8c-25.8-295.3-70.8-587.8-139.3-876.6c-40-168.5-84-335.9-132.8-502.1c-1.7-5.7-2.6-11.7-4.5-20.2
	c25.9,32.6,97.6,251.2,148.3,463.3C2509.7,1219.7,2541.9,1378.3,2577.2,1539.3z"/>
<path d="M1808.7,2506.9c-1.2,108.4-76,184.4-180.5,183.4c-89.3-0.8-171.2-89.2-170.4-184c0.8-100.8,77.6-178.3,177.2-176.4
	C1725.3,2331.6,1812.4,2404.9,1808.7,2506.9z M1748,2443c0.6-30.8-21.8-55.1-52-56.5c-30.7-1.4-56.6,23.4-57.2,54.7
	c-0.6,31.7,19.9,51.7,54.1,52.9C1725.8,2495.2,1747.4,2475.2,1748,2443z"/>
<path d="M2963.6,2669.5c-2.7-9-6.7-17.8-7.9-27c-5-37.6-10.6-75.2-13.4-112.9c-9-121.1-34.7-239.2-60.4-357.4
	c-11.8-54.1-22.6-108.3-33.8-162.5c-1-4.8-1.4-9.8,0.7-15.3c30.8,70,47.7,144.2,64.5,218c17.3,75.9,30.6,152.7,42.8,229.6
	c11.9,74.8,19.4,150.2,18.7,225.8C2971,2668.4,2967.3,2669,2963.6,2669.5z"/>
<path d="M2782.2,2713.7c-4.4,9-7.7,17.6-12.6,25.2c-17.6,27.5-35.8,54.8-53.7,82.1c-6.1,9.2-13.2,16.5-25.1,9.3
	c-11.2-6.8-11.2-17.7-5.1-26.7c22.3-33,45.2-65.5,69-97.4c3.1-4.2,12.8-4.9,19.2-4.5C2776.8,2701.9,2779.2,2709,2782.2,2713.7z"/>
<path d="M1407.2,2716.1c-3.5,7.6-5.7,14.5-9.5,20.3c-18,28.3-36.5,56.3-54.6,84.5c-6.1,9.6-13.9,15.8-25.2,9.9
	c-11.7-6-11.4-17.2-5.6-26.3c20.2-31.7,40.9-63.1,63.1-93.4c3.9-5.3,15.7-5.9,24-6.5C1401.7,2704.6,1404.5,2712.1,1407.2,2716.1z"/>
<path d="M2881.2,2704.3c-3.7,11.4-5.2,22.4-10.4,31.2c-17.6,29.8-36.4,58.9-54.9,88.1c-2.7,4.2-6,9.6-10.2,10.9
	c-6.1,1.9-14.2,2.6-19.6-0.1c-3.3-1.6-4.9-10.6-4.1-15.8c1-6.8,4.1-13.8,8-19.6c18.7-27.9,37.8-55.5,57.1-83
	C2853.6,2706.7,2861.4,2698.3,2881.2,2704.3z"/>
<path d="M1405.5,2833.9c3-11.2,3.6-22.9,9-31.7c17.6-28.7,36.7-56.5,55.6-84.4c3.4-4.9,8-10,13.3-12.4c4.9-2.2,13.1-3.1,16.8-0.4
	c3.4,2.6,4.5,11,3.4,16.1c-1.5,6.7-5.8,13-9.6,19c-17,26.7-33.9,53.5-51.4,79.9C1435.3,2830.9,1428.3,2843.8,1405.5,2833.9z"/>
<path d="M2958.9,2704.6c4.3,7.6,10.4,13.5,9.5,18c-2,10.8-6.2,21.6-11.7,31.1c-13.2,22.9-27.6,45.1-41.6,67.6
	c-2.1,3.4-4.2,8-7.5,9.3c-5.1,2.1-11.6,3.7-16.5,2.1c-3.3-1.1-6.8-7.8-6.7-12c0.1-6.9,1.4-14.6,4.9-20.4
	c16.4-27,33.4-53.5,50.9-79.8C2943.8,2715.1,2950.4,2711.7,2958.9,2704.6z"/>
<path d="M1594.7,2727.9c-3.1,7.5-5,14.4-8.7,20.3c-15,24.1-30.5,48-46,71.9c-5.8,9-13,17.5-24.6,10.5c-10.8-6.5-10-17.4-4-26.8
	c18.6-29,37.6-57.8,57.4-86.1c2.5-3.5,11.5-5.5,15.7-3.8C1589,2715.7,1591.3,2722.8,1594.7,2727.9z"/>
</svg>
