<?xml version="1.0" encoding="utf-8"?>
<!-- Generator: Adobe Illustrator 24.3.0, SVG Export Plug-In . SVG Version: 6.00 Build 0)  -->
<svg version="1.1" id="Layer_1" xmlns="http://www.w3.org/2000/svg" xmlns:xlink="http://www.w3.org/1999/xlink" x="0px" y="0px"
	 viewBox="0 0 4000 4000" style="enable-background:new 0 0 4000 4000;" xml:space="preserve">
<path d="M2214.9,3816.6c-262.7-5.8-511.4-63.4-742.4-189.6c-184.6-100.9-333.9-240.2-449.3-416.8
	c-107.7-164.9-176.7-344.3-215.1-536.8c-8.1-40.9-23.9-80.6-39.5-119.5c-70-174.9-105.9-356.2-99.7-544.5
	c6-179.9,42.9-354.3,105.7-523C918.1,1101.5,1150,779.1,1463.6,515c134.1-112.9,278-211,438.6-283.1
	c62.9-28.2,126.9-52.4,196.1-61.3c47.7-6.1,94.2-1.5,140.9,6.2c106.5,17.7,205.9,56.1,300.8,106.1
	c138.3,72.8,259.9,168.6,372.3,276.4c210.1,201.3,371.6,437.5,497.3,698.9c56.7,117.8,103.5,239.2,137.4,365.6
	c48.3,180.3,67.9,363.4,47.1,549.3c-7.6,68.1-21.3,136-38,202.6c-20.4,81.7-37.2,164-54,246.5c-41.5,204.5-107.2,400.5-214.6,580.8
	c-105.8,177.5-242,325.8-418.4,435.8c-138.2,86.2-288.1,138.8-449.1,159.4C2352.1,3807,2283.3,3810.7,2214.9,3816.6z M1315.6,1771.4
	c1.4,1.4,2.9,2.8,4.3,4.2c-16.8,19-34.4,37.3-50.1,57.1c-34.8,44-67.1,89.5-114,123.3c-49.3,35.7-71.6,88.1-73.7,149.3
	c-2,60.8,15.7,115.2,49.2,165.4c31.2,46.8,72.7,83.1,116.2,118c33.5,26.9,67.4,54.3,96.2,85.9c51.3,56.3,84,123.5,103.1,197.4
	c12.6,48.7,25,97.5,41.2,145.1c27,79.4,76.7,143.3,147.5,187.9c68.1,42.9,141.9,64.2,223.1,41c65.8-18.8,104.4-60.6,115.6-129.3
	c8.4-51.3,6.4-102.3,4-153.6c-2.7-58.4-3.9-116.9-6.8-175.3c-0.7-14-3.5-28.4-8.2-41.7c-20.3-58.1-42.7-115.6-62.4-173.9
	c-18.5-54.6-32.7-110.7-32.4-168.8c0.7-126.2,30-238.9,151.2-305.9c20.8-11.5,34.5-28.9,40.5-52c12.3-47.7,24.4-95.4,36-143.2
	c1.8-7.2,0.2-15.3,0.2-29.6c-13.6,9.9-22.5,15.9-30.9,22.6c-52.9,42.1-114.1,62.4-180.6,59.3c-169.8-7.9-309-138.2-331.9-306.3
	c-12.4-90.9,3.1-177.9,34.6-262.9c31-83.6,79-157.4,129.5-230.2c27.9-40.3,53.5-83,73.9-127.5c24.7-53.6,19.1-108.1-13.4-158.7
	c-2.1-3.2-2.3-7.7-3.3-11.6c1.9-1.1,3.8-2.2,5.6-3.2c8.1,9.9,17.8,19,24.2,29.9c29.8,51.2,27.9,105.1,5.4,157.1
	c-17,39.3-39.7,76.4-61.8,113.2c-29.1,48.4-62,94.5-89.8,143.6c-52.5,92.5-85.2,191.2-83.6,299.1c2.3,160.5,111.2,295.8,266.6,325.9
	c87.3,16.9,167.4-1.6,231.8-68.1c3.5-3.6,7.8-8.7,12-8.9c20.9-0.9,26.3-17.1,33.4-31.8c8.5-17.5,17.4-34.9,25.1-52.8
	c23.2-53.8,15.4-108.9,9.4-167.7c-12.7,10.1-21.1,17.4-30.2,23.9c-58.2,41.1-158.5,37.5-180.4-69.2c-10.9-53.1-2.7-104.5,10.6-155.2
	c14.5-55.6,32.7-110.2,48.9-165.3c24.8-84.6,39.1-170.2,21.7-258.3c-13.1-66.3-39-126.2-95.7-166.9
	c-117.4-84.3-286.6-35.4-347.6,99.6c-7.2,15.9-13.4,32.2-19.5,48.6c-9.3,24.9-26.1,40.9-52.2,47.8c-16.8,4.4-33.5,10-49.7,16.2
	c-79.3,30.1-124.5,85.4-133.3,171.8c-6,58.8,3.9,119.3-23.6,180.8c33.1-4.1,60.7-5.6,87.4-11.4c33.9-7.4,43.5-22.7,41.7-57.6
	c-1-19.5-3.7-38.9-3.4-58.4c0.5-35.7,17.7-63.8,47.9-81.2c34-19.6,72.5-24,111.7-24.7c-5,5.4-10.6,9.4-16.8,11.7
	c-19.2,7.1-39,12.7-58,20.4c-50.2,20.2-63.1,41.1-59.9,94.4c1,17.4,3,34.9,2.6,52.3c-0.9,38.7-19.9,61.1-57.6,68.3
	c-14,2.7-28.6,2.4-42.9,4.1c-22.4,2.5-47.9-0.4-66.5,9.4c-62.6,33.1-123.8,69.5-168.6,126.9c-86.3,110.4-83.5,290.7,29.6,385.6
	c36.3,30.4,68.8,64.5,89,110.5C1265,1801.5,1290.3,1786.5,1315.6,1771.4z M2682.6,1126.4c1-0.4,2-0.7,3.1-1.1
	c4.3,5.7,9,11,12.7,17.1c47.5,76.7,82.3,158.3,96,248.1c13.7,89.6,3,176-33,259.2c-66.3,153.3-218.1,197-343.2,158.3
	c-59-18.3-110.6-48.7-155.8-90.5c-6.2-5.8-12.8-11.2-19.2-16.8c3.9,41.9,12.9,80.8,20.4,119.9c6.6,34.4,22.7,58.7,55.9,75.1
	c67.1,33,107.6,89.4,130.6,160.1c33.6,103.4,27.8,206.4,1.8,309.8c-21,83.4-58.3,159.8-99.9,234.5c-10.8,19.3-19,41.2-23,62.9
	c-8.9,48.4-15.9,97.3-21,146.3c-5.2,49.3-1.9,98.2,13.5,146.2c29.7,92.7,115.1,128.3,196.8,111.3c125.7-26.2,210.8-102.2,260.4-218
	c17.6-41.2,29.1-85.6,38.2-129.6c12.4-59.8,43.1-104.7,91.6-140.8c38.7-28.7,75.1-60.6,110.9-92.9c35.6-32.1,62-71.7,76.9-117.3
	c23.8-72.4,20.5-143.7-16.1-211.8c-14.6-27.1-31.3-53.1-44.8-80.8c-35.2-72.1-25.3-125.5,32.7-180.7c19.3-18.4,40.1-35.3,59.9-53.1
	c31.6-28.5,57.2-61.6,75.5-100.2c49.2-103.8,29.5-172.1-35-236c-27.3-27-50-57.2-62.6-94c-5.1-15-14.8-21.8-30.5-26.2
	c-32.5-9-64.5-20.2-95.7-33.1c-38.3-15.9-60-46.1-63.6-87.5c-1.9-22.4-2-45-0.8-67.5c4.4-82.7-23.2-149-96.4-192.7
	c-16.7-10-33.5-20.1-50.5-29.6c-40.1-22.4-68.7-54.8-85.5-97.6c-6.8-17.2-13.5-34.4-20-51.7c-27.5-73.5-81.3-114.9-157.8-125.3
	c-102.5-13.9-186.6,50.3-191.5,148.3c-0.9,18.4-1.7,37.6,2.5,55.2c10.4,42.8,21.5,85.6,36.4,126.9c23.8,65.8,49.2,130.8,52.5,201.7
	c3.2,70.3-15.1,128.6-73.6,176.4c-47.9,39.2-96.5,32.6-135.2,7.2c-6.1-4-12.8-7.2-25.4-14.2c9.6,57.2,15.1,108.3,27.2,157.8
	c15.6,63.7,44.3,119,102.5,158.4c51.1,34.6,103.1,64.1,164.1,73.5c97,15.1,178.7-12.9,239.4-92.8c29-38.2,46.6-81.8,58.7-127.9
	c26.7-102.3,13.4-202-21.4-299.5C2723.9,1222.1,2702.4,1174.6,2682.6,1126.4z M3145.7,959.1c-2.3,1.1-4.5,2.2-6.8,3.4
	c2.6,10.8,4.5,21.8,8,32.3c26.1,76.9,34.9,156.5,31.8,236.9c-1.6,40,0.1,76.7,23,111.3c10,15.1,15,33.7,20.9,51.2
	c12.5,37.2,30.4,71.5,49.7,105.6c13.5,23.8,24.1,50.2,30.7,76.8c23.8,95.6,45.1,191.6,55.2,290.2c21.3,209,2.8,411.9-78.6,607.6
	c-50.8,122.2-114.2,236.8-198.9,338.7c-156.4,188-357.2,309.1-586.6,386.5c-115.8,39.1-232.3,76.4-336.1,143.4
	c-11.9,7.7-22.4,7.3-34-0.9c-70.1-49.7-148-83.9-228-113.8c-101.9-38.1-205.9-70.3-304.9-116.3
	c-222.8-103.5-399.1-257.4-520.4-472.3c-95-168.2-149.1-348.3-160.4-541.5c-9.9-170.4,15.6-335.7,66.1-497.9
	c4.1-13.2,6.6-28.4,4.6-41.9c-13.6-92.3,5.9-177.9,52-257.5c33.7-58.2,83.2-101.6,141.2-134.6c47.2-26.9,65-68.5,66.3-120
	c0.4-14.4,0.5-28.8,1.4-43.1c9.1-140.3,76.7-230.8,204-269.4c28.5-8.6,43.6-23.3,54.8-50.9C1553,554,1661.1,482.3,1800.5,482
	c19.3,0,35.5-5.4,52.4-14c78.7-40.2,159.2-75.9,244.9-99.5c46.5-12.8,90.8-10.9,136.2,3.4c73.9,23.2,143.2,56.7,211,93.2
	c17.3,9.3,33.5,12.2,52.6,11.8c90.4-1.8,168.9,28.6,235.9,89.3c39.4,35.8,69,78.6,91,126.7c9.9,21.6,24.2,32,48.5,36.2
	c26.8,4.6,52.7,16,78.2,26.5c17.5,7.2,33.7,17.9,50.4,27c1.5-1.5,3-2.9,4.5-4.4c-7.7-10.1-14.6-20.8-23.1-30.1
	c-114.6-125.6-238.3-240.4-381.2-334.2c-111.4-73.1-230.1-126-360.5-153.5c-68.8-14.5-136.4-14.1-203.7,7.7
	c-71.6,23.1-140.2,53.6-205.4,90.6c-200.6,113.9-381,254-535.9,425.5c-143.3,158.7-263,333.8-357.5,525.7
	c-87.2,177.1-150.7,361.8-176.2,558.5c-25.1,193.4-9.9,383,50.4,569c49.1,151.4,125.2,287.3,225.1,410.8
	c120.1,148.6,267.2,263.4,435.2,352.2c94.6,50,195.2,86.3,295.2,123.7c117.6,44,232.1,94.2,334.7,168.3c9.8,7.1,19.8,14.1,30.4,21.6
	c6.8-4.4,12.7-8.4,18.6-12.2c45.1-28.4,88.8-59.4,135.5-84.7c104.9-56.9,216.9-98,327.4-142.3c131.8-52.9,259.9-113.3,374.8-198.2
	c343.7-254,515.9-598.1,531.9-1022.1c6.9-181.9-30.3-357.4-90-528.5c-61.6-176.3-144-342.4-243.6-500.1
	C3174,1003.7,3159.8,981.4,3145.7,959.1z M958.6,2885.5c-1.9,1.1-3.8,2.2-5.7,3.3c13,29.9,26.1,59.8,39,89.8
	c51.2,119,120.2,226.4,207.6,322.2c129.3,141.8,279.6,253.6,459.4,323.2c189.1,73.2,385.1,107,587.8,102.5
	c145.9-3.3,287.7-25.9,423.9-81.3c198.9-80.9,358.3-210.6,482.2-384.8c90.5-127.3,157.7-266.7,209.9-413.5
	c3.1-8.8,8.1-17.8,3.8-29.4c-4.2,3.4-6.8,5-8.7,7.3c-47.2,56.9-94.5,113.7-141.2,171c-5.6,6.9-9.3,15.9-11.9,24.5
	c-12,39.8-29.3,76.9-56.1,108.7c-52.2,61.9-104.2,124.1-157.8,184.9c-98.6,111.8-219.6,187.1-366,220.2
	c-116.3,26.3-231.5,56.1-339,109.7c-8.7,4.4-18.7,6.2-28.1,9.3c2.8-9.4,7.8-15.2,14.2-18.6c25.3-13.6,50.7-26.9,76.5-39.6
	c89.2-43.8,185.3-66.8,281.1-89.9c149.7-36.1,270.2-117,367.3-234.2c39.9-48.2,77.3-98.3,122.9-141.8c27.8-26.5,46.1-61,63.9-95.4
	c-22.9,14.5-44,30.2-63.7,47.4c-77.7,68.2-164.8,122.2-255.4,171.2c-115.9,62.8-239.3,108.4-361.1,157.6
	c-116.7,47.1-228.2,103.4-327,182.5c-42.2,33.7-43.3,34.2-85.7-1.2c-60.4-50.4-126.1-92.7-197.8-124
	c-86.5-37.8-174.8-71.6-262.4-106.8c-115.5-46.4-229-96.7-331.6-168.4c-8.9-6.2-18.4-11.5-27.7-17.2c-1.5,1.5-2.9,2.9-4.4,4.4
	c6.3,11.1,12.3,22.5,19,33.4c13.5,21.8,27.1,43.6,41.1,65.1c55.3,84.6,124.2,150.3,229.4,166.4c53.4,8.2,98.6,33.9,138.9,68.8
	c65.9,57,143.1,91.5,226.5,113.6c7.3,1.9,14.3,5.1,21.4,7.7c-0.6,2.2-1.2,4.5-1.8,6.7c-29.9-6.1-60-11-89.5-18.6
	c-62.6-16.2-118.8-46-168.2-87.4c-42.7-35.9-90.1-59.2-145-70.6c-30.8-6.4-61.5-17.2-89.6-31.4c-52.7-26.5-91-70-122.5-118.8
	c-29.5-45.7-57.4-92.5-84.8-139.5c-12.6-21.6-26.7-41-46.9-56.2c-84.2-63.4-157.5-138-224.1-219.3
	C967,2894.2,962.7,2890,958.6,2885.5z M2170.9,1542.3c-14.8,39.4-27.8,72.7-39.9,106.4c-4.4,12.4-6.9,25.6-9.8,38.6
	c-12.6,56-24.5,112.1-37.6,168c-7.2,30.6-25.8,53-53.2,68.5c-10.7,6-20.7,13.4-31.2,19.8c-34.6,21.1-59.1,51.5-73.5,88.5
	c-11.4,29.4-20.1,60.4-25.9,91.5c-10.3,55.1-5.8,110.4,5.3,165.3c15.9,78.6,46.9,152.1,75.4,233.5c10.2-16.1,17-27.1,24.1-37.8
	c46.8-70.7,140.5-97.1,217.8-62.5c58.5,26.2,88.5,73.8,103.3,133.5c1.8,7.1,4,14.1,7.5,26.3c5-7.2,7.1-9.5,8.4-12.2
	c11.4-23,22.6-46,34-69c56.3-113.2,79.6-233.1,65.6-358.5c-10.8-96.7-45.9-181.4-141.2-227.1c-2.8-1.3-5.2-3.4-7.9-4.8
	c-24.3-12.8-38.7-33.3-45.3-59.3c-9.1-35.8-17.5-71.8-26.3-107.6C2204.3,1677.6,2188.1,1612,2170.9,1542.3z M1746.3,3139.9
	c-0.1,1.5-0.2,3-0.3,4.5c52,18.7,104.3,36.5,155.8,56.3c76.7,29.4,152.6,61.1,220.1,109.2c14,10,24.3,9.1,38.6,0.1
	c27.7-17.5,55.9-35.1,86-47.5c69.2-28.5,139.6-54.2,209.7-80.4c28.4-10.6,57.4-19.7,90.6-31c-31.8,0-58.2,1.4-84.3-0.3
	c-93.3-6-165-47.3-206-133.5c-26.5-55.8-36.4-115.9-31.6-177c5.5-69.5,15.2-138.7,23.8-207.9c3.5-28.2,1-55.6-9.5-81.7
	c-25.9-64.2-103-78.9-151.5-29.6c-20.2,20.6-33.9,45.1-34.3,73.7c-0.7,45,0.9,90.2,3.2,135.2c3.8,75.9,10,151.6-10,226.6
	c-26.2,98.4-101,164.9-202.6,176.3C1811.6,3136.5,1778.9,3137.6,1746.3,3139.9z M2356.8,1332.5c2.7,0.5,5.3,1.1,8,1.6
	c4-11.1,10.9-22,11.5-33.2c1.7-33.6,4.1-67.7,0.3-101c-7-61.7-32-118.7-53.8-176.3c-16.8-44.3-32.2-89-35.9-136.6
	c-4.3-55.4,9.1-106.3,45.7-149.1c85.1-99.4,241.1-75.9,312.7,11.6c22.2,27.1,37.8,61.3,49.7,94.6c17.5,49,45.2,86.7,91.2,111.2
	c18.1,9.6,35.4,20.8,52.7,31.8c42.2,26.9,71.6,63.9,87.4,111.7c12.1,36.7,15.7,73.9,13,112.4c-1.4,20.2,0,41,2.6,61.1
	c2.3,17.8,12,32.8,27.1,43.3c34.1,23.9,72.5,38,112.4,48.2c3.5,0.9,7.7-1,14.9-2.1c0-55.8,0-111.1,0-166.4
	c0-85.8-21.1-166.7-56.4-244.2c-33.4-73.3-90.7-117.6-168.7-135.6c-15-3.5-30.1-6.5-45.2-9.4c-27-5.2-46.8-19.4-58.9-44.5
	c-8.9-18.5-18-37.1-29.1-54.3c-15-23.2-30.2-46.7-48.6-67.2c-51.1-56.8-116.9-84.4-192.4-80.7c-99.6,4.9-174.9,54.6-226.4,139.3
	c-45.8,75.3-52,157.8-32.4,241.1c11.7,49.6,30.9,97.9,52,144.5C2325.8,1163.8,2355.1,1244.1,2356.8,1332.5z M3306.2,1715
	c-5.1,7.5-7.2,9.8-8.5,12.5c-3.1,6.5-6.1,13-8.5,19.8c-25.2,69.3-66.5,126.8-124.9,172.2c-18.6,14.5-36.1,30.5-53.4,46.5
	c-16,14.7-20.3,33.1-11.9,53.3c5.5,13.2,11.9,26.1,18.8,38.7c11.9,21.6,26,42,36.5,64.2c55.7,117.7,48.6,232.7-18.3,343.9
	c-38.8,64.5-94.5,113.7-153.1,158.9c-81.2,62.7-75,61.1-96.4,155.8c-23.1,102.3-72.1,189.2-146.8,262.2
	c-7.4,7.2-14.1,15.1-21.1,22.7c31.7-12.9,61.6-27.1,88.3-45.8c174.6-122.4,315.1-274.6,407.5-468.9
	c76.9-161.6,124.1-329.8,124.3-510.1c0.1-102-10.5-202.9-26.7-303.4C3311.2,1731.8,3309.2,1726.2,3306.2,1715z M1594.8,3081.9
	c0.8-1.6,1.7-3.2,2.5-4.8c-3.4-2.1-6.8-4-10.1-6.3c-68-46.8-123.1-104.4-158.5-180.5c-24.4-52.6-41.6-107-53.6-163.3
	c-15.7-73.4-41.9-142.4-94.6-197.4c-28.9-30.2-62.6-56-95.2-82.4c-49-39.6-93.5-83.1-128.1-136.2
	c-103.3-158.4-67.3-341.6,70.6-441.1c5.8-4.2,11.1-9.1,16.3-14.1c10.4-10.1,12-21.5,2.1-32.7c-11.6-13-22.9-26.5-35.9-37.9
	c-44.6-38.8-84.4-81.1-107-137c-1.1-2.6-3.9-4.5-6.3-7.2c-2.3,2.8-4.9,4.7-5.8,7.2c-2.9,7.7-5.3,15.5-7.5,23.4
	c-24.5,85.2-38.5,172.4-44,260.6c-16.9,265.8,39.8,514.1,183.5,740.2c105.3,165.7,246.4,292.9,419.5,384.8
	C1559.4,3066.7,1577.3,3073.9,1594.8,3081.9z M1877.4,490.2c102,27.2,164.8,90.7,202.5,180.9c41.8,100.1,46.1,203.6,20.7,308
	c-12.3,50.7-29.9,100.2-45.9,149.9c-18.6,57.8-36.4,115.6-33.6,177.4c0.8,18.3-1.3,40.1,18.5,48.8c19.5,8.7,34.8-7.3,49.3-18.1
	c14-10.4,26.2-23.1,40-33.7c24.7-18.9,42.8-17.5,65.3,4.4c9.5,9.3,18,19.7,27.5,29c11,10.6,22.8,25.1,39.4,18
	c18.5-7.9,14.5-27.9,13.5-43.6c-2.4-39.1-10-77.4-25.8-113.5c-20.6-46.9-42.9-93.2-62.4-140.6c-34.6-84-51.1-170.4-34.3-261.7
	c26.6-145.1,106.7-245.9,244.3-300.2c7.2-2.8,14.2-6.1,24.4-10.4c-8.5-6.3-13.6-11.7-19.8-14.3c-56.6-24-113-48.3-170.2-70.8
	c-45.6-17.9-92.1-15.4-139-2.9c-70.9,18.9-136,51.7-202,82.4C1886.5,480.7,1884.1,484.1,1877.4,490.2z M3186.3,1398.3
	c2.9-1.1,5.8-2.3,8.7-3.4c-4.4-12.2-8.8-24.4-13.2-36.7c-2.2,0.7-4.4,1.5-6.5,2.2C3178.9,1373,3182.6,1385.6,3186.3,1398.3z"/>
<path d="M1827.8,2051.4c0.7,85.3-45.3,141.7-120.7,152.7c-46.2,6.7-84.7-9.3-114.3-45.4c-46.8-57.2-45.5-145.3,2.5-201.7
	c50.7-59.6,144.2-60,194.9-0.5C1815.2,1985.6,1828.5,2019.3,1827.8,2051.4z"/>
<path d="M1437.6,2187.6c-70.6-29-112.7-120.1-94.9-193.9c8.8-36.6,25.5-69.2,51.2-96.9c11.1-12,22.9-23.5,34.1-35.6
	c65.6-70.5,52.4-143.2-34.1-186.9c-10.1-5.1-20.1-10.3-30.4-14.9c-52.5-23.3-73.6-67.3-74.5-121c-1.3-75.1,33-134.9,91.2-179.7
	c27.1-20.9,59.4-35.1,89.4-52.3c1.5,1.8,3,3.7,4.4,5.5c-3.3,3.7-6.1,8.2-10.1,11.1c-23.3,16.8-48,31.8-70,50.2
	c-47.5,39.7-79.1,88.9-80.8,152.8c-1.4,50.3,16.1,90.2,65.1,111.8c15.9,7,31.3,15.4,46.3,24.3c72.3,42.7,90.3,125.4,40.7,192.8
	c-18.8,25.5-42.2,47.5-62.5,72c-45.5,54.7-52.7,124.5-18.5,186.9c10.3,18.7,24.3,35.4,36.8,52.9
	C1426.2,2173.8,1432.1,2180.6,1437.6,2187.6z"/>
<path d="M1801.4,2877.9c-39.8-24.2-81.1-46.4-119.1-73.1c-46.3-32.4-59.1-81.5-56.9-135.6c0.9-21.5,3.1-43,3.5-64.5
	c1.5-64.2-28.8-109.4-85-138.1c-20.1-10.2-40.9-19.1-61-29.3c-6.6-3.3-12-9-16.7-15.6c44.7,8.7,87.3,21.6,124.5,48.5
	c40.5,29.2,58.6,70.3,61.7,118.5c1.4,22.4,0.9,45.2-1.4,67.6c-7,69.6,18.3,121.2,79.6,156.6c23.7,13.7,43.9,33.3,65.4,50.5
	c3.4,2.8,5.6,7.2,8.3,10.8C1803.3,2875.6,1802.4,2876.7,1801.4,2877.9z"/>
<path d="M1611.9,2238.9c-2.2,14.2-1.4,21.1-4.3,25.6c-18,27.4-36.6,54.3-55.4,81.1c-5,7.1-13.1,12.8-20.5,5.2
	c-3.6-3.7-4.7-14.5-2-18.9c17.5-27.6,35.9-54.8,55.4-81.1C1588.9,2245.5,1598.5,2244.6,1611.9,2238.9z"/>
<path d="M1461.3,2351.2c-4.7-5.3-9.4-8.4-10.4-12.4c-1.1-4.5-0.6-11,2-14.8c17.9-26.2,36.2-52.2,55.4-77.4
	c2.5-3.2,12.3-4.5,15.9-2.2c3.4,2.2,5.2,10.6,4.1,15.5c-1.5,6.7-6,13-10,18.9c-13.2,19.5-26.6,39-40.5,58
	C1473.9,2342,1467.8,2345.6,1461.3,2351.2z"/>
<path d="M1685.2,2250.8c-1.9,9.8-1.3,19.4-5.4,26.2c-14.2,23.4-29.6,46.1-45.5,68.5c-2.7,3.8-11,7.1-15,5.7
	c-4-1.4-9.2-10.6-7.8-13.7c14.5-33.4,31-65.7,61.4-88.1C1674.1,2248.5,1676.8,2249.7,1685.2,2250.8z"/>
<path d="M2625.8,2203.7c-79.7,4.7-155-83.9-130.9-179.3c6.9-27.2,20.1-51.5,39.7-71.9c53.2-55.5,144.2-53,193.5,6.1
	c83.1,99.6,14.2,222-66.1,239.2C2650,2200.4,2637.9,2201.8,2625.8,2203.7z"/>
<path d="M2491.1,2955c-20.7-21.4-24.9-46.9-21-73.3c8.2-55.4,34.7-100.8,81.2-132.6c20.2-13.8,43.2-23.5,64.3-36.1
	c21.1-12.5,42.7-24.7,62-39.7c24.9-19.4,36.2-46.8,36.2-78.3c0-22.6,0.2-45.3-1.5-67.7c-1.7-22,7.6-35.1,27.7-42
	c25.2-8.7,50.5-17.2,75.5-26.4c85.1-31.1,149.2-125.6,144.8-212.9c-1.7-33.6-14.2-64-29.1-93.4c-13-25.6-27.4-50.5-40.7-76
	c-28.7-55.4-24-108.9,10.1-160.3c11.3-17.1,23.9-33.4,34.9-50.7c33.8-53,45.8-109.1,23.9-170.2c-13.4-37.2-38.6-64.9-68.5-89.2
	c-3.8-3.1-8.1-5.7-14.2-10c27,1.6,56,19.9,75.8,46.3c50.6,67.4,54.3,150.2,9.5,225.4c-11,18.5-23.2,36.4-36,53.8
	c-36.2,49.1-38.6,100.1-9.7,153.1c12.3,22.5,24.7,44.9,37.4,67.3c78.3,138.2-3.3,299.5-140.6,343.7c-16.6,5.3-33.3,10.3-49.8,15.9
	c-29.6,10.1-29.4,11.4-28.2,41.6c1,23.5,1,47.3-1.7,70.5c-4.8,41.3-26.4,73.3-62.2,94.1c-28.3,16.5-57.7,31.3-87.1,46
	c-41.7,20.9-68.2,55.1-86.5,96.6c-10.1,23-13.6,47.2-10.4,72.3C2488.7,2933.5,2489.9,2944.2,2491.1,2955z"/>
<path d="M2818.6,2253.4c-3.8,7.2-6.8,14.8-11.5,21.4c-16.6,23.3-33.3,46.6-51,69.1c-3.6,4.6-11.4,5.8-17.3,8.6
	c-1.6-7.2-7-16.7-4.3-21.3c17.4-28.8,36.1-56.9,55.6-84.3c3-4.2,12.5-4.8,19.1-5.1c4.8-0.2,9.7,3,14.6,4.7
	C2822.1,2248.8,2820.3,2251.1,2818.6,2253.4z"/>
<path d="M2818.2,2353.3c0-12.4-1.9-18.5,0.3-22c16.4-25.7,33-51.3,51-76c3-4.1,12.6-3.5,19.1-5.1c1.3,7.4,6.1,16.9,3.2,21.7
	c-14.8,24.4-31,48.1-48.1,70.9C2839.9,2348,2830.2,2348.7,2818.2,2353.3z"/>
<path d="M2733.5,2252.5c-1.3,4.4-1.5,7.8-3.2,10.2c-18.3,27.2-36.6,54.4-55.6,81.1c-2.2,3.1-10.8,5.5-13.1,3.7
	c-4.1-3-8.1-9.6-7.9-14.5c0.3-6.8,3.5-14,7.4-19.8c13.6-20.5,27.8-40.6,42.1-60.6c2.9-4.1,6.8-8.4,11.2-10.1
	c4.1-1.6,10.1-1.1,14.1,0.7C2731.3,2244.6,2732.2,2249.9,2733.5,2252.5z"/>
<path d="M2153.8,2067.7c14.5,6.7,28.6,10.7,39.6,18.9c28.4,21.3,47.4,50.8,64.4,81.4c5.8,10.4,7.9,21.6-4.9,29.6
	c-11,6.8-20.6,3.9-30.6-10.8c-10.4-15.2-19.4-31.4-29.8-46.6c-5.2-7.5-11.8-14.2-18.6-20.4c-10.6-9.7-22.7-11-32.6,0.3
	c-13.4,15.3-25.5,31.9-37.9,48c-6.8,8.9-12,19.7-20.4,26.5c-4.8,3.8-15.8,3.7-21.9,0.8c-4.5-2.1-6.8-11.3-7.7-17.7
	c-0.7-4.6,1.9-10,4.3-14.5c15.4-29.3,34.1-56.3,60.4-76.8C2128.2,2078.6,2141,2074.3,2153.8,2067.7z"/>
</svg>
