<?xml version="1.0" encoding="utf-8"?>
<!-- Generator: Adobe Illustrator 24.3.0, SVG Export Plug-In . SVG Version: 6.00 Build 0)  -->
<svg version="1.1" id="Layer_1" xmlns="http://www.w3.org/2000/svg" xmlns:xlink="http://www.w3.org/1999/xlink" x="0px" y="0px"
	 viewBox="0 0 4000 4000" style="enable-background:new 0 0 4000 4000;" xml:space="preserve">
<path d="M3552,907.6c-1,194.2-27.1,359.4-67.2,522.7c-54,220-130.3,432.4-219.7,640.2c-78.3,181.9-166.4,358.9-266.4,529.8
	c-110.5,188.9-227,373.9-367.4,542.6c-166.2,199.7-352.6,376.8-574.9,514.2c-146.6,90.6-304.3,149.6-475.3,170.4
	c-137.4,16.7-272.4,3.9-402.6-45.2c-125.1-47.2-222.4-129.3-294.1-241.5c-42.2-66.1-74.7-137-97.1-212.3
	c-9.1-30.7-10.2-61.4-1.1-92.3c2.3-8,3.5-16.3,5.5-24.4c4.1-16.5,1.2-31-11.9-42.6c-31.9-28.1-42.1-66.1-47-106
	c-17.9-146.1-7.7-291,20.5-434.9c6.7-34.5,21.9-64.8,46.2-90.6c11.4-12.1,21.9-25.2,31.7-38.6c13.2-18,16.5-37.9,7.5-59
	c-1.6-3.8-2.3-8.2-4.5-11.6c-27.8-43.3-22.4-89.7-11.7-136C853,2160,902,2034.2,961.2,1912.1c18-37.3,43.4-68.3,78-91.7
	c11.2-7.6,22.2-15.8,31.8-25.2c29.6-29.2,48.2-62.9,37-106.4c-11.5-44.3-1.2-85.3,21.2-122.9c48.5-81.3,95.5-163.8,148.9-241.9
	c201.2-294.1,440.4-554,715.4-780.4c164.1-135.1,342.2-247.8,543.2-321.2c152.5-55.7,308.9-85.1,471.7-67.3
	c133.8,14.6,255.6,58.1,353.2,155.2c71.9,71.5,114.9,159.9,144.9,255.5c21,66.9,32.8,135.5,37.4,205.4
	C3547.3,825.1,3550.3,879.1,3552,907.6z M1286.5,2954.1c1.7,2.2,3.4,4.4,5.2,6.6c-6.3,5.2-12.1,11-18.8,15.5
	c-78,51.8-156.1,103.6-234.4,155.1c-48.7,32-97.6,63.9-146.8,95.1c-24,15.2-34.9,34.6-25.9,63c7.2,22.8,12.8,46.1,21,68.5
	c39.8,108.8,102.6,201.9,192.6,275.6c79.1,64.7,172.4,94.9,272,108.4c145.3,19.7,286.5,0.8,424.5-46
	c133.5-45.3,253.3-116.1,365.7-199.9c237.3-176.9,430.6-395.5,596-639.1c185.3-272.9,342.1-561.5,469.3-866.2
	c84.8-203,156.2-410.3,207.9-624.3c2.2-9.3,3-18.9,5.4-34.8c-55.1,31.8-103.5,59.9-152.1,87.8c-47.9,27.5-95.7,54.9-143.8,82
	c-49,27.5-98.3,54.6-147.4,81.8c-47.9,26.6-95.6,53.4-146.1,74.7c2-4.9,5.1-7.6,8.6-9.7c186.7-113.6,373.4-227.3,560.2-340.7
	c36.3-22.1,46.7-44.8,38.5-92.6c-85.6,50.9-170.8,100.4-254.9,151.8c-122.6,74.9-230.3,133.4-259.5,137.7c8.1-5.5,13.9-9.7,20-13.5
	c85.7-53.4,171.6-106.4,257-160.3c77.4-49,154-99.2,231.2-148.5c13.1-8.4,21.9-18.3,23.1-34.6c4.4-57.1,9.7-114.1,13.9-171.2
	c1.3-18.3,0.2-36.7,0.2-61.8c-152.6,86.4-293.5,180.4-444.2,257.5c53.9-41,108.9-80.3,165.7-116.8c84.1-54,169.1-106.4,254.4-158.6
	c15.4-9.4,23.5-19.6,19.4-37.7c-1.7-7.6-3.1-15.3-5.5-27c-19.8,12.1-36.5,22.1-53.1,32.4c-70.8,43.9-141.4,88-212.3,131.7
	c-11.6,7.1-23.1,15.3-38.4,14.5c10.8-11.7,22.5-21.6,35.1-30.2c62-42.1,124.4-83.6,186.4-125.8c24.1-16.4,47.3-34,71-51
	c13.1-9.4,17.7-21.5,15.4-37.9c-12.2-84.7-28-168.4-61.8-247.7c-4.3-10.1-10.1-19.5-15.7-30.1C3283.5,531.2,3194,593,3092.9,631.1
	c88-62,180.8-116.3,272.7-170.2c-14-42.9-21.5-46.4-55.6-29.2c-3.7,1.9-7.4,3.8-11.1,5.8c-35.8,19.2-71.4,38.6-107.4,57.4
	c-9,4.7-19.1,7.4-28.7,11c49.9-44.2,110.8-70,160.2-112c-2.5-5.9-3-9.3-4.9-11.4c-7-7.7-14.1-15.4-21.7-22.4
	c-49.9-45.8-107.7-78-172.4-97.8c-129.7-39.9-260.6-37.6-392.1-10.6c-142.3,29.2-273.8,86.1-398.5,158.9
	c-241.4,141-448.9,323.2-636.2,529.3c-2.6,2.9-4.1,6.8-10.2,17.1c142.3-63.7,278.9-122.4,418.9-173.5c-8,8.7-17.3,14.9-27.3,19.6
	c-141.2,66.6-282.3,133.2-423.9,199c-19.4,9-35.9,20.2-49.8,36.4c-101.5,118.9-197.4,242.2-282.9,373.1
	c-36.4,55.7-70.3,113.2-104.4,170.4c-8.1,13.6-12.8,29.2-19.1,43.9c1.7,1.1,3.3,2.2,5,3.3c227.8-111.5,455.5-223,683.3-334.5
	c-7,10.8-16.3,17.1-26,22.9c-143.8,86.3-293.4,161.9-442.7,238c-66.8,34-134.2,66.8-201.3,100.1c-11.5,5.7-23.6,11.6-22.4,26.8
	c2.8,36.2-0.9,71.5-17.1,112.6c200.2-96.7,392.9-189.8,585.6-282.9c1,2,2.1,4,3.1,6c-11.3,7-22.3,14.7-34.1,20.9
	c-136.1,72.2-272.2,144.4-408.5,216.1c-48.8,25.7-99.3,48.4-147.3,75.4c-55.4,31.1-109.8,64.1-140.3,124.3
	c-54.3,107.3-96.3,219.1-126.2,335.4c-5.7,22.2-13,45.6-6.2,72.4c105.9-44.1,206.5-96.1,315.8-127.3
	c-101.4,51.5-202.8,102.9-303.7,154.1c5.1,29.7,10.2,59.5,15.8,92.1c52.1-26.1,102.1-52.7,157.8-66.9c-5.9,9.1-13.2,15.9-21.6,20.8
	c-27.8,16.3-55.5,33-84.3,47.5c-41.5,21-79.6,45-101.7,88.3c-3.7,7.3-11,12.8-14.8,20c-10,19.2-22.8,37.9-27.8,58.4
	c-26.6,108.9-36.7,219.6-30.3,331.5c1.9,32.7,8.4,65.2,13.3,102.1c16.4-6.2,28-9.6,38.8-14.9c68.2-33.4,136.2-67.3,204.4-100.8
	c5.8-2.9,12.3-4.4,18.5-6.6c-74.6,56.9-158.7,98-233,147.9c11.6,29.7,21.7,55.4,33,84.3C1017.6,3113.8,1152.1,3033.9,1286.5,2954.1z
	"/>
<path d="M1661.1,2413c6.5-36.6,11.7-73.6,19.8-109.8c5.6-25,10.4-27.2,35.1-22.1c44.7,9.4,89.3,19.3,133.7,30
	c75.7,18.2,151.2,37.3,226.7,56.1c8.1,2,16.1,4.3,23.9,7.1c10.4,3.7,14.4,11.7,12.2,22.2c-15.4,74.5-41.1,144.2-97.1,198.5
	c-56.3,54.6-181.5,88.2-271,9.1c-43.2-38.2-65.2-87.9-74.4-143.8c-2.5-15.3-3.1-31-4.6-46.5C1664,2413.5,1662.5,2413.2,1661.1,2413z
	 M1995,2564.2c-44.2-93.2-211.3-128.5-276.2-59.1c23.8,58,63.2,100,128.1,108.6C1902.9,2621.2,1953.5,2606.2,1995,2564.2z"/>
<path d="M3208.2,1749.5c-5.1,15.6-9.4,31.5-15.3,46.7c-85.6,219.8-189.3,430.6-313.6,631.1c-152.2,245.4-333,468.1-539.4,669.8
	c-139.6,136.5-291.5,258-456.6,362.6c-53.5,33.9-109.1,64.7-163.8,96.8c-5.2,3.1-11,5.2-19.6,3.4c14.7-9.9,29.2-19.9,44-29.6
	c239.9-156.1,464.4-331.3,662-539.2c84.7-89,163.8-183,240-279.5c188.8-239.1,339.4-501.1,469.9-775.4
	c27.7-58.2,52.9-117.7,79.3-176.5c2.1-4.6,4.7-8.9,7.1-13.3C3204.2,1747.4,3206.2,1748.5,3208.2,1749.5z"/>
<path d="M2385.4,2501.5c-71.7-0.3-129.2-54.9-127.4-125.1c1.7-66.5,45.3-130.6,126.3-131c70.7-0.3,127.8,60.4,126.2,131.1
	C2509,2446.5,2453.6,2501.8,2385.4,2501.5z"/>
<path d="M1445.8,2286.5c-51.1,6.2-119.5-48.8-118.8-123c0.5-60.3,49.3-132.3,131.6-129.4c66.4,2.4,118.9,58,118.1,127.5
	C1575.9,2234.7,1520.7,2287.3,1445.8,2286.5z"/>
<path d="M1955.5,3479.5c131.2-110.4,262.3-220.8,396.2-333.5c1.5,16.7-9,23.5-16.2,30.3c-51.6,48.2-101.8,98.3-156.3,142.9
	c-63.4,51.8-130.8,98.8-196.7,147.7c-7.9,5.9-17,10.2-25.6,15.2C1956.5,3481.3,1956,3480.4,1955.5,3479.5z"/>
<path d="M1332.1,2343.4c-1.8,3.2-3.6,9.6-7.7,13.7c-27.6,26.7-55.4,53.3-84,78.9c-4,3.6-12.7,1.8-19.2,2.6
	c-0.3-6.8-1.1-13.6-0.6-20.3c0.2-2.7,2.7-5.7,4.9-7.8c26.9-25.9,53.3-52.5,81.2-77.2C1318.7,2322.8,1331.7,2328,1332.1,2343.4z"/>
<path d="M2496.2,2591.6c12.2,0.2,18,4.9,16.7,15.4c-0.5,3.9-2.1,8.4-4.7,11.2c-26.3,28.1-52.6,56.3-79.8,83.4
	c-3.7,3.7-14.5,4.3-19.4,1.7c-8-4.3-10.2-14-3.3-21.4c26.8-29,54-57.6,81.4-86C2489.5,2593.2,2494.2,2592.5,2496.2,2591.6z"/>
<path d="M2430.6,2585.3c-5.1,8.4-7.1,13.4-10.5,16.9c-24.7,25.1-49.7,50-74.7,74.8c-6.4,6.3-15.3,11-21.4,2.7
	c-3.8-5.2-3.1-15.2-1.5-22.3c1.2-5.5,6.5-10.5,10.9-14.8c18.3-18.3,36.7-36.6,55.8-54.2c5.9-5.4,13.6-11,21.1-12
	C2416.2,2575.6,2423,2581.7,2430.6,2585.3z"/>
<path d="M1247.7,2317c-3.7,7.7-5.8,16.8-11.4,22.7c-22.2,23.4-45.2,45.9-68.5,68.2c-4.2,4-10.6,7.6-16.1,7.8
	c-9.6,0.4-15.8-4.9-13.4-15.8c0.7-2.9,2.1-6.2,4.2-8.2c27.1-25.7,54.1-51.5,81.9-76.6c3.8-3.4,11.2-2.8,16.9-4.1
	C1243.4,2313.1,1245.6,2315,1247.7,2317z"/>
<path d="M1409,2371.2c-2.2,3.6-5.3,11.4-10.8,16.9c-20.6,20.5-42,40.3-63.1,60.4c-7.4,7.1-17,12.1-24,2.5c-3.4-4.6-2.1-17.4,2-21.8
	c22.5-24.4,45.7-48.3,70.3-70.5C1395.1,2348.1,1407.7,2353.6,1409,2371.2z"/>
<path d="M2593.9,2633.6c-1.7,3.3-3.3,9.7-7.2,13.8c-20.9,21.4-42.3,42.3-63.9,63.1c-3.6,3.4-8.6,6.4-13.4,7.3
	c-4.5,0.9-12,0.3-13.8-2.5c-2.7-4.3-2.6-11.1-1.8-16.6c0.6-3.6,4.2-7,7.1-9.9c22.1-21.8,43.6-44.1,66.7-64.7
	C2579.1,2614.1,2592.6,2618.9,2593.9,2633.6z"/>
<path d="M2441.2,480.5c10.5-0.8,20.9,9.4,21.7,21.3c0.8,13-8.5,25.3-20.1,26.6c-12.5,1.4-22.6-6.7-23.1-18.4
	C2419.1,496.1,2429.9,481.3,2441.2,480.5z"/>
<path d="M1858.9,3028.4c-11.8,0.2-21-8.8-21.7-21.1c-0.7-13.8,8.9-24,22.2-23.5c11.8,0.4,21.8,9.8,22.3,20.9
	C1882.3,3017.5,1871.8,3028.2,1858.9,3028.4z"/>
<path d="M2379.2,1555.9c-0.9,18-15.9,32-27.6,29.8c-11.2-2.1-19-8.6-17.9-21.3c1.2-13.9,12.4-24.7,24.9-21.6
	C2366.9,1545,2374,1552.4,2379.2,1555.9z"/>
<path d="M1427.9,3323.1c-3.4-4.1-12.1-10.3-14.2-18.1c-3.3-12.8,8.3-24.6,21.2-24.1c11.3,0.4,19.7,5.7,21.4,17.9
	C1457.9,3310.6,1446.6,3322.4,1427.9,3323.1z"/>
<path d="M2540.3,1874.8c0.2,12.8-8.6,22.6-20,22.5c-10.6-0.1-19.2-9.3-17.8-20.4c1.3-10.8,6-19.9,18.5-21.1
	C2531.5,1854.6,2540.2,1863.4,2540.3,1874.8z"/>
<path d="M3027.6,772.8c-12.4,7.5-19.4,15-26.2,14.9c-10.1-0.2-22.1-6.2-18.7-19.1c1.8-6.9,12.4-16.6,18.1-16
	C3008.5,753.4,3015.3,762.9,3027.6,772.8z"/>
<path d="M2194.2,1067c-1.1,11.5-9.9,15.4-19.5,15.4c-8.1,0-17.1-2.4-17.6-13.6c-0.4-10,9.6-20.2,19.8-19.9
	C2188.1,1049.2,2194,1055.2,2194.2,1067z"/>
</svg>
