<?xml version="1.0" encoding="utf-8"?>
<!-- Generator: Adobe Illustrator 24.3.0, SVG Export Plug-In . SVG Version: 6.00 Build 0)  -->
<svg version="1.1" id="Layer_1" xmlns="http://www.w3.org/2000/svg" xmlns:xlink="http://www.w3.org/1999/xlink" x="0px" y="0px"
	 viewBox="0 0 4000 4000" style="enable-background:new 0 0 4000 4000;" xml:space="preserve">
<path d="M1944,3636.3c-252.7-2.8-484.8-72.7-699.3-203.5c-182.9-111.5-330.4-260.4-453.6-434.3c-82.4-116.3-155.6-238.1-213.4-368.7
	c-17.5-39.5-33.5-79.6-49.3-119.8c-47.9-122.3-52.1-248.1-30.6-376.3c38.5-229.4,139.5-432.2,268.8-621.7
	c193-283,437.1-514.9,719.8-707c208.4-141.7,430-257.7,667.9-341.5c140.4-49.4,284.5-86,432.5-103c144.1-16.5,288.4-17.9,430.6,17.1
	c134.3,33,256.5,89.3,353.9,191c44.1,46,78.6,99.1,109.3,154.4c108.9,196.3,192.6,403.1,247.9,620.5c50.8,199.6,70.6,403,49.2,608.4
	c-30.3,291.4-127.3,559.5-291.3,803c-106,157.5-229.3,299.3-373.6,422.9c-137,117.3-288.5,211.7-451.5,288.4
	c-153.5,72.3-313.9,122.9-481.7,147.6C2101.8,3625.3,2022.7,3629,1944,3636.3z M701.7,2667.5c-1.4,4.9-2.9,7.2-2.3,8.7
	c2.2,5.9,4.8,11.6,7.7,17.2c93.5,181.1,208.7,346.2,355.7,488.4c167.3,161.9,363.1,273.3,589,329.1c194.5,48.1,390.5,45,586.4,6
	c231.6-46.2,443.2-140,639.4-269.8c253.4-167.6,454.8-384.2,604.8-648.3c109.5-192.8,179.6-399.3,206.9-619.5
	c17.2-138.7,15.9-277.5-4.2-416.1c-29.9-205.8-89.5-402.8-173.7-592.6c-3.4-7.7-8.9-14.4-13.4-21.5c-6.1,11.5-7.8,20.7-7.6,30
	c1.1,56.3-8,111.3-19.5,166.1c-37.5,178.7-111.3,342.3-209.2,495.2c-72.9,113.8-157.9,218.5-250.4,317.2
	c-99,105.6-205.1,203.4-318.8,292.7c-210.2,165-439.5,297.7-686.2,400.2c-134.5,55.9-272.4,102-414.5,133.9
	c-182.3,40.9-366.4,57.3-552.3,28.1c-115.1-18.1-222.5-56-314.8-129.9C717.7,2677.1,709.8,2672.8,701.7,2667.5z M2762,438.1
	c-178.9-0.7-345.8,31.8-509.5,83.6c-183.4,58.1-358,135.8-524.4,232.6c-305.4,177.7-576.1,396-795.9,674.6
	c-126,159.7-233.2,330.3-301.5,523.5c-41.8,118.3-70.7,238.7-59.9,365.2c15.1,176.8,102,306.8,259.4,389c102,53.3,212.6,73,326,79.8
	c121.7,7.3,242.3-5,361.6-27.3c109.8-20.6,217.2-51.1,322.7-87.8c179.7-62.5,350.2-144.7,514.6-240.1
	c163.8-95.1,316-205.9,456.5-332.7c190.5-171.9,358.9-362.2,482.6-589c76.4-140,131.5-287.1,152.2-445.8
	c12.7-96.7,4.3-191.8-34.3-282.3C3355,646.9,3252.9,558.1,3120.1,503C3003.6,454.7,2881.4,435.2,2762,438.1z"/>
<path d="M2403.7,2982.3c-68,0.6-123.6-55.4-123.9-124.6c-0.3-67.2,56.3-120.9,125.4-123.4c62.8-2.2,123.4,56.9,124.3,121.7
	C2530.4,2925.9,2474.5,2981.7,2403.7,2982.3z"/>
<path d="M1569.4,3154.8c-67.2-0.3-120.6-55.6-119.9-124.1c0.7-68.6,54.4-123.3,122.2-122c70.2,1.3,121.2,50.5,122.9,125.6
	C1696.1,3096.4,1653.8,3155.2,1569.4,3154.8z"/>
<path d="M2573.5,3127.1c-22.4-4.5-45.9-6.3-67.1-14.2c-44.3-16.4-52.7-59.1-19.3-92.6c30.8-30.9,70-46,112.3-52.6
	c33.2-5.1,66.8-8.3,99.8,2.5c4,1.3,8.2,2.1,12,3.8c23,10,43.8,23.4,45.8,51.1c1.8,25.4-13,43.8-33,57.4
	c-37.5,25.4-80.1,35.9-124.5,40.4c-8.3,0.8-16.8,0.8-25.2,1.2C2574,3125.1,2573.7,3126.1,2573.5,3127.1z M2570.6,3094
	c41.3-2.7,79.4-13.9,116.5-29.4c6.7-2.8,13-7.1,18.6-11.7c21.9-18.5,19.5-36.7-7.5-47c-13.4-5.1-28.6-7-43.1-7.4
	c-35-1-69.1,5.4-101.5,18.8c-12.5,5.1-24.9,11.7-35.5,20c-22.5,17.4-21.3,32.5,4.5,44.6C2537.2,3088.8,2554.5,3090.2,2570.6,3094z"
	/>
<path d="M1427,3362.6c-23.4-5-47.9-7.3-70.1-15.6c-37.7-14.1-48.5-44.5-24.9-84.6c7.1-12.1,19.2-22.9,31.4-30.2
	c52.2-31.3,108.7-44.9,169.4-34.2c15.2,2.7,30.6,8.5,43.9,16.2c33.3,19.3,40.5,54,14.3,82.5c-15.8,17.2-37.7,29.8-58.9,40.4
	c-17.5,8.7-37.9,12.4-57.4,16.6c-15.3,3.3-31.3,4-46.9,5.9C1427.6,3360.5,1427.3,3361.5,1427,3362.6z M1424.3,3328
	c42.3-4.9,82.7-11.5,118.2-34.7c12.8-8.3,31.3-15.5,27.3-34.6c-4.2-20.3-23.7-24.7-41.6-28.4c-3.1-0.6-6.3-0.9-9.4-1.1
	c-43-3.5-84.2,3.7-122.6,22.9c-12.8,6.4-24.9,16.1-34.5,26.9c-12.5,14-9.3,28.3,8.2,35.2C1387.3,3321.1,1406.2,3323.6,1424.3,3328z"
	/>
<path d="M3110.5,2936c-17.3-0.9-24.9-13.9-17.6-25c5.1-7.8,12.3-14.3,19.3-20.5c111.2-99,200.1-215.6,272.9-344.8
	c10.3-18.3,17.7-38.2,28-56.5c3.7-6.6,11.2-13.7,18.1-15.2c17-3.8,25.9,11,17.1,28.6c-16.1,31.9-31.8,64.2-50.4,94.6
	c-74,120.8-161.4,230.9-267.3,325.5C3123.7,2928.7,3115.3,2932.9,3110.5,2936z"/>
<path d="M2017.5,3224.8c-69.2-0.5-125.4-44.8-142.1-112.1c-2.9-11.8-5.2-23.1,9.9-28.7c15.1-5.6,21.1,4,25.9,15.4
	c4.1,9.6,7.2,19.8,12.2,29c25.8,47.9,75.3,69.4,124.8,54.5c50.6-15.2,80.3-58.9,76.6-112.9c-0.5-7.3-3.4-15.1-1.8-21.8
	c1.7-7.1,5.9-16.6,11.7-19.1c10.4-4.6,20.6-0.1,25.9,11.2c1.3,2.8,2.4,5.9,2.7,9C2171.6,3150.3,2119,3224.8,2017.5,3224.8z"/>
<path d="M3495.4,2389.3c-9.2-3.8-17.3-7.1-28.6-11.7c36.5-97.8,64.1-195.4,76.9-295.6c30.1-7,37.5-2.6,33.2,22.1
	c-15.6,90.1-32.5,179.9-69.5,264.4C3504.6,2375,3500.3,2380.8,3495.4,2389.3z"/>
<path d="M2723,481.5c127.7-3.6,249.9,20,365.7,73.9c157.1,73.1,249,196.2,278.4,366.6c17.9,104.1,4,205.9-23,306.5
	c-44.6,166.1-124.8,314.9-224.9,453.4c-174.9,242-391.6,440.1-637.6,607.9c-186.5,127.3-386.6,227.8-597.7,306.4
	c-140.4,52.3-284.9,91.1-433.5,111.9c-129,18.1-258.3,22.7-387-3.2c-85.4-17.2-167.3-44.1-238.2-96.9
	c-110.5-82.2-168-194.8-184.5-329.5c-12.9-105.6,6.8-207.7,37.5-308.2c50.2-164.4,135.4-310.6,236.1-448.2
	c163.9-223.9,359.8-415.7,586.1-576.1c212.5-150.6,438.6-276,685-362.3c132.5-46.5,268.4-80.1,408.3-94.8
	C2636.6,484.5,2679.9,483.9,2723,481.5z M1232.1,2683.6c155.1-0.8,281.8-20.9,406.9-52.1c227.5-56.7,441.3-147.9,644.2-263.9
	c255.3-145.9,483.5-326.5,678.5-547.7c123.3-139.9,230.4-290.6,301.2-464.7c49.7-122.2,83.1-247.8,73.1-381.3
	c-9.3-124.8-53.6-233.6-151.2-316.1c-70.8-59.8-154-95-243.2-116c-114.1-26.9-229.7-27-345.7-14.3
	c-162.4,17.8-317.8,62.4-470.1,119.8c-151.5,57.1-293.8,132.3-431.6,216.5c-244.7,149.5-462.8,330.4-648.4,549.7
	c-131.6,155.5-243.4,323-315.6,514.9c-44.4,118-69.2,238.7-51.3,365.4c23.3,164,115.1,274.3,266.2,337.5
	C1045.3,2673.1,1151.1,2681.9,1232.1,2683.6z"/>
<path d="M1740.2,1394.2c-5.4-6.3-8.9-11.4-13.4-15.4c-32.1-28.8-64.1-57.8-96.7-86c-20.7-17.9-42.4-34.6-63.5-51.9
	c-6.5-5.3-13.3-10.5-18.8-16.7c-9.3-10.6-11.7-22.5-2.1-34.4c9.5-11.7,22.1-13.9,33.5-4.9c12.9,10.2,24.2,22.7,35.4,34.9
	c10.4,11.3,18.1,25.8,30,35c38.5,29.9,74.5,62,104.3,100.8c7.6,9.9,16.7,19.4,26.9,26.3c21.4,14.5,43.1,5.6,47.5-19.5
	c2.1-11.9,0.4-24.4,0.4-43c-13,9.2-20.9,15-29,20.4c-11.6,7.8-23.7,6.7-30-5.3c-8.2-15.6-14.8-32.5-18.8-49.6
	c-4.5-19.5,16-18.3,27.9-27c-2.3-6.2-3.5-13.3-7.2-19c-37-57.6-74.6-114.9-111.7-172.4c-9.1-14.1-17.8-28.7-25-43.9
	c-4.4-9.3-8.1-21.5,3.1-28.6c12.9-8.2,19.4,4.3,24.9,12.2c21.6,31.2,42.4,63,63.2,94.6c33.7,51,66.7,102.5,101,153
	c12.4,18.2,27.7,34.4,41.8,51.4c9.3,11.2,19.9,10.7,30.4,2.1c5.7-4.6,10.8-10.1,15.2-16c16-21,13.5-28.7-11.8-38.1
	c-34.5-12.8-58.4-61.7-45.5-96.3c3.2-8.6,12.1-17.5,20.5-21.2c11-4.9,19.5,3.8,25.7,13.2c16.5,25.4,23.6,53.7,27.4,83.3
	c1.8,14.2,5.8,28.1,8.6,41.2c50.9-0.5,92.3-39.7,92.7-87.1c0.7-86.4-0.3-172.9-0.6-259.4c-0.1-21.9,0-43.8,0-64.8
	c34.2-6.9,38.1-4.9,38.5,23.8c1.2,94.9,1.5,189.7,2.1,284.6c0.1,8.4-0.7,16.9-0.3,25.3c1.1,26,10.9,33.3,36.5,27
	c17.3-4.2,31.9-13.9,39-29.8c13.4-29.7,37.9-38.3,66.7-36.7c22.1,1.2,31.3-9.4,40-27.5c68.7-142.4,138.2-284.3,207.7-426.2
	c4.6-9.3,10.1-18.9,17.7-25.6c3.9-3.4,14.2-2.8,19.7-0.1c3.4,1.6,5.3,11,4.2,16.1c-1.8,8-6.4,15.5-10.2,23
	c-34.2,68.9-68.4,137.8-102.6,206.7c-32.7,66.1-65.5,132.1-97.9,198.3c-4.6,9.4-8.7,19.2-11.7,29.3c-4.4,15.2-2.6,29.2,14.5,41.9
	c9.6-4.3,21.1-8.8,31.8-14.5c12.1-6.4,23.5-14.1,35.3-21.1c32.9-19.6,35.2-19.4,63.7,6.1c5.5-3.4,12.3-6.3,17.4-11
	c113.8-104,238.5-194.4,358.3-291c43.5-35.1,87.7-69.2,131.1-104.4c26.5-21.4,33.4-24.4,42.2-14.3c9.7,11,5.7,20.7-20.7,42.3
	c-71.1,57.9-142.7,115.3-214,172.9c-90.2,72.8-180.3,145.7-270.4,218.6c-8.7,7-17.7,13.7-30,23.2c30.1,7.9,56.5-15.1,82.1,0.4
	c-12.2,27-12.2,27-63.3,47c6.8,8.4,13.2,15.9,19.2,23.7c15.5,19.9,15.3,26.6-0.1,47.3c-5.3,7.2-9.9,14.9-19.4,29.3
	c22.8-3.1,38.1-4.1,52.9-7.3c140-30.1,279.8-60.9,419.8-90.8c46.3-9.9,93-18.1,139.6-27c5.1-1,11.1-3.3,15.4-1.6
	c6,2.3,14.9,7.5,15.3,12c0.5,6.8-3.5,17.2-8.9,20.3c-9.7,5.5-21.8,7.3-33.1,9.7c-156.6,32.8-313.3,65.4-469.9,98.2
	c-45.3,9.5-90.5,19.8-135.7,29.7c-5.1,1.1-10.3,2.3-15.3,3.9c-34.3,10.8-38.6,27.6-14.1,54.8c2.1,2.3,4.3,4.7,6.9,6.5
	c22.3,15.2,31.1,33.5,10.2,59.6c11.1,2.9,18.9,5,26.8,6.9c103.3,25.3,206.7,50.3,309.9,76.1c27.3,6.8,27.5,8.5,29.1,35.8
	c-11.5-1.1-22.7-0.9-33.2-3.4c-54.3-13-108.1-27.9-162.6-39.9c-84.3-18.7-168.9-35.8-253.5-53.1c-22.2-4.5-30.9,1.7-35.4,24.7
	c-2.8,14.4-3.7,29.2-4.7,43.9c-2,30-5.8,35.5-34.7,45c-15.9,5.3-32.2,9.7-48.1,14.9c-2.7,0.9-4.9,3.7-9.1,7
	c2.7,6.2,3.9,14.3,8.5,18.7c36.6,35.3,63.7,77.8,93.9,118.1c32.1,42.8,71,80.6,106.8,120.8c14,15.7,27.6,31.9,41.1,48.1
	c4,4.8,9.3,10.1,10,15.7c0.7,6.4-1.1,15.4-5.4,19.3c-4.2,3.7-14,4.9-19.4,2.6c-7.3-3.1-13.6-9.7-18.7-16.2
	c-57-71.9-116.8-141.4-183.3-204.9c-19.7-18.9-35.6-41.6-54.1-61.8c-29.6-32.3-94.8-19-109.9,22.1c-3.3,8.9-5.2,18.2-7.8,27.4
	c-3.6,12.9-9.1,23.7-25.1,23.9c-10.5,0.1-19.1,3.6-18.8,16.2c0.4,12.5,4.9,22.8,18.2,26.4c4,1.1,8.3,1.5,12.5,1.7
	c35.9,1.9,40.9,47.5,26,65.6c-6.9,8.4-21.4,10.6-36.5,17.4c0.6,8,0.5,19.2,2.4,30.1c16,91.4,32.3,182.7,48.4,274
	c1.6,9.2,3.8,19.1,1.9,27.9c-1.1,5.5-8.8,11.7-14.7,13.3c-4,1.1-12.9-4-14.7-8.3c-5.1-12.6-8.8-26-11.1-39.3
	c-15.2-88.3-29.5-176.7-44.8-264.9c-8.1-46.7-20.7-92.6-19.1-140.7c0.3-8-5.9-22-11.3-23.2c-9.9-2.2-22.6,0.9-32,5.9
	c-7.7,4.1-11.9,14.4-18.1,21.5c-11,12.7-22,25.5-33.8,37.4c-17.6,17.7-37.5,22.6-59.8,8.1c-3.4-2.2-7.5-3.4-12.3-5.5
	c-2.8,3.6-6.3,6.5-7.5,10.1c-33.5,106.5-66.6,213.1-100.3,319.5c-19.7,62.3-40.5,124.2-60.8,186.3c-2,6-4.1,12-6.2,17.9
	c-3.7,10.4-10.1,15.5-21.8,11.8c-12.7-4-11.6-13.4-9.4-23c1.6-7.2,4.2-14.1,6.4-21.2c24-76.3,50.4-152.1,71.3-229.2
	c13.5-49.9,29.1-98.6,48-146.7c16.6-42.1,28.8-85.8,42.6-129c1.4-4.5,0.2-9.8,0.2-17.1c-27.8,12.5-52.7,25.5-72.3,46.9
	c-7.1,7.8-13.8,16-21.2,23.5c-22.6,23-38.2,20.2-48.7-4.5c-2.4-5.6-6.9-10.3-12.4-18.2c-6.9,6.5-13.3,11.3-18.2,17.3
	c-93.6,115.4-187.2,230.9-280.5,346.6c-35.1,43.5-69.3,87.6-104.4,131.1c-16.6,20.6-25.8,24.2-35.2,14.5
	c-14.1-14.5-0.8-25.6,7.1-35.5c80.8-101.4,161.8-202.6,243.2-303.5c41.1-50.9,83.2-100.8,124.6-151.4c4.4-5.3,6.9-12.1,10.6-18.9
	c-55.2-7.2-102.5,16.6-143.7,71.8c3.3,3.6,6.8,7.3,10.1,11.3c12.2,14.8,14.6,25.6,1.5,38.8c-15.2,15.4-32.8,29.8-51.9,39.7
	c-21.8,11.2-29.1,5.3-34.4-19.3c-1.1-5.1-1.7-10.2-3.3-20.2c-20.7,13.3-39.4,24-56.7,36.7c-73.9,54.3-147.4,109.2-221.1,163.8
	c-7.6,5.6-15,12.5-23.7,15.1c-5.2,1.6-14.4-2.3-18.5-6.8c-2.8-3.1-1.7-12.1,0.7-17c2.6-5.3,8.2-9.4,13.2-13.2
	c107.8-82.9,215.4-166,323.7-248.2c20.9-15.9,44.1-28.9,66.8-42.3c42.8-25.2,75.7-60.1,101.9-101.8c2.7-4.3,4-9.4,6-14.2
	c-14.4-20.4-55-10.6-50.4-48.3c-82.1,18.9-161.9,37.2-241.6,55.5c-3.1,0.7-6.3,1.1-9.2,2.3c-85.1,35.4-176.8,44.8-265.2,67.4
	c-9.9,2.5-20.6,1.9-30.3,2.6c-11.2-30.7-9.4-34.2,18.4-40.8c113.7-27.1,227.4-54,341-81.3c48.1-11.5,96.7-21.1,143.7-36.1
	c44.6-14.2,87.4-34.2,135.7-53.5c-10.9-16.5-18.6-28.4-26.6-40.1c-21-30.7-16.1-46.3,19.1-58.7c12.5-4.4,25.3-8,44.7-14.1
	c-11-5.8-14.8-9-19.1-9.9c-141.5-28.2-283-56.2-424.5-84.4c-6.1-1.2-14.1-2-17.4-6.1c-4.6-5.7-8.1-14.8-7-21.5
	c0.8-4.7,10.1-10.7,15.9-11.1c10.3-0.7,20.9,1.8,31.2,3.9c129,26.4,258,52.7,386.9,79.7c18.4,3.8,36.5,9.8,54.1,16.6
	c25.5,9.9,46.4,0.1,51.8-26.6c1.5-7.1,1.3-14.8,0.3-22C1713.1,1438.1,1712.8,1412.3,1740.2,1394.2z M2394.6,1178
	c-31.7,14-57.6,25.5-83.5,36.9c-23,10.1-42.4,6.1-59.9-12.5c-18.8-19.9-28.4-22.4-51.9-8.5c-17.8,10.5-33.3,25.4-48.8,39.4
	c-23.3,21.2-48.2,34.2-80.2,20.9c-11.2-4.7-19.9-3.4-27.2,7.5c-17.4,26.3-44.4,37.6-73.6,45.2c-10.1,2.6-23.3,3-29.5,9.6
	c-21.4,22.5-47.3,33.9-76.6,35.3c-2.8,9.2-4.7,15.2-6.4,21.2c-9.8,33.7-26.3,46.5-61.5,47.3c-6.3,0.2-12.6-0.9-18.9-0.8
	c-18.5,0.2-21.4,3.1-22.5,22c-0.3,5.2-0.1,10.5,0.3,15.8c2.9,43.6-17.1,75.6-52.8,97.3c-17.7,10.7-38.6,16.2-58.2,23.8
	c-10.4,4-20.9,7.5-33.1,11.7c3.4,7.1,4.7,11,6.9,14.2c29.6,45,23.3,67.3-25.1,92.2c-16.4,8.4-31.7,18.9-50.6,30.4
	c8.8,4.9,13.2,7.5,17.7,9.8c43.8,22.7,49.8,42.1,26.3,86.2c-5.7,10.6-11.7,21-19,33.9c45.8,8,92.4-6.4,128.5,32.2
	c10-9.3,20.7-16.4,27.6-26.1c33.9-47.2,81.7-51.5,131.9-27.4c32.4,15.6,32.1,16.3,51.6-12.1c3-4.3,5.9-8.8,8.9-13.1
	c29.8-42.4,48.1-49.3,99.5-37.7c28.3,6.4,30.9,5.2,43.4-21.7c2.7-5.7,4.9-11.6,7.7-17.3c13.8-28.6,35.1-47.3,67.9-49.2
	c16.3-0.9,32.8-0.2,51.6-0.2c-3.3-35.3,14.1-53.5,44.2-61.6c5.1-1.4,10-3.4,15.1-4.7c30.6-7.8,29.5-7.9,34.3-37.9
	c2.6-16.3,7.5-33.1,15.2-47.6c16.7-31.3,46.3-36.8,78.7-33.8c13.8,1.3,27.9,7.5,42.2-0.5c-1.6-5.2-1.8-8.7-3.6-11
	c-6.4-8.4-13.2-16.4-19.9-24.5c-29.7-35.5-24.9-73.4,13-100.4c6-4.3,13-7,19-11.2c5-3.4,12.6-7.4,13.3-12c3.3-21.5,10-44.1-4.7-64.1
	C2412.1,1247.8,2395.1,1219.2,2394.6,1178z"/>
<path d="M1907.5,1977.2c1-20.8,2-41.6,3.1-62.4c0.9-16.2,4.5-31.5,17.8-42.4c16.5-13.3,32.5-8.1,32.7,13c0.2,26-3.2,52.5-8.6,78
	c-4.3,20.4-13.3,39.9-21.4,59.3c-7.4,17.7-6.2,32.9,2.2,51c8.1,17.3,9.5,38,11.9,57.5c0.8,6.6-3.3,14.2-6.5,20.8
	c-9.2,18.8-25,28.3-39.6,24.9c-14.2-3.3-24.7-19.4-25.6-39.6c-1-23.2,6.9-43,21.7-60.9c21.4-25.9,20.9-26.3,7-62.9
	c-8.1,8.6-14.7,16-21.8,22.8c-16,15.4-31.6,18.9-45.4,10.9c-14.6-8.5-20-22.8-13.4-44c4.6-14.9,10.6-30,19.2-42.8
	c15-22.4,35-21.7,51.1,0.1c4.1,5.6,7.3,11.8,10.9,17.7C1904.4,1977.9,1906,1977.6,1907.5,1977.2z"/>
<path d="M2157.5,1052.9c7.1-9.1,12.2-17.2,18.8-23.7c10.3-10.2,22.6-13.8,37.3-8.5c15.4,5.5,18.3,17.8,15.8,30.4
	c-4.6,23.5-9.8,47.4-18.9,69.5c-4.6,11.2-18.4,18.7-29.7,29.6c-13.3-14.3-27.3-14.6-43.5-11.6c-19.8,3.6-39.9-12.4-47.8-33.6
	c-8.1-21.7-1.8-42.9,16.6-55.8C2121.8,1038.1,2129,1038.5,2157.5,1052.9z"/>
<path d="M2404.6,1565.6c20.8,0,39.4,3.3,51,24.3c3.9,7.1,14,10.9,21.1,16.3c13.2,10,28.1,18.4,38.9,30.5
	c9.4,10.5,11.3,27.4,1.6,38.1c-6.4,7.1-20.1,8.2-30.9,10.5c-4.7,1-10.8-0.6-15.2-3c-27.6-15.2-55.1-30.5-82.1-46.7
	c-6-3.6-10.4-10.3-14.5-16.4C2357,1593.1,2374.8,1560.6,2404.6,1565.6z"/>
<path d="M1439.8,1815.2c-3.8-8.8-7-16.1-10.5-24c20.4-15.9,42.6-18.8,67-20.2c7.7,26.9-15.5,31.4-27.7,41.3
	c4.8,13,14.7,26.1,12.2,36.1c-3.2,12.7-14.4,25.8-25.7,33.6c-14.2,9.8-31.6,15.9-48.4,20.6c-12.8,3.5-25.8-1.7-31.4-15
	c-5.2-12.5-3.2-25.1,7.8-34.4c8.8-7.5,17.8-14.9,27.3-21.4C1419.1,1825.9,1428.6,1821.4,1439.8,1815.2z"/>
<path d="M2417.7,1094c-28.5,0.2-42-18.2-29.1-43.3c14.2-27.9,39-47,65.9-61.6c18.4-9.9,36.5,5.3,37.2,28.5
	C2492.7,1054.9,2455.1,1093.7,2417.7,1094z"/>
<path d="M2596.3,1212.8c28.1,0.3,43.7,9.2,47.2,23.2c3.2,12.8-5.8,32.9-23,40.8c-17.7,8.1-37.1,13.5-56.3,16.8
	c-14.4,2.5-25.8-6.2-32.2-20.2c-5.9-12.9,1.2-22.2,8.1-31.4C2555.7,1220.9,2577.1,1212,2596.3,1212.8z"/>
<path d="M2203.3,1847.8c-0.8,26.3-22.5,36.9-45.6,24.8c-22.3-11.7-48.7-69.2-42.7-93.2c3.2-12.8,15.5-20.3,29.4-14.6
	c11.2,4.6,22.2,12,30.5,20.8C2191.8,1803.5,2200.4,1825.9,2203.3,1847.8z"/>
<path d="M2377.8,1742c-22.3-2.5-43.2-12.2-55.6-36.2c-6.9-13.5-6.6-26.5,2.3-38.5c9.7-13,22.8-13.3,36.7-7.3
	c13.4,5.9,27.4,10.8,40.1,17.9c19.2,10.7,26.4,25.4,22.4,40.7C2419.3,1735.3,2404.4,1743.5,2377.8,1742z"/>
<path d="M2579.3,1174.9c-13.5,1.5-25.8-2.6-32.8-16.7c-7.5-15.2,1-26.1,10.4-36.4c16.8-18.5,37.6-30.2,62.7-32.5
	c26.6-2.4,39,14.6,29.7,39.8C2639.2,1156.5,2612.2,1174.5,2579.3,1174.9z"/>
<path d="M1488,2225.4c6.3-27.9,23.1-53.9,50.8-71.2c17.5-10.9,41.3,3.8,39.3,24.5c-3.1,32.7-18.5,60.2-47,77.3
	C1510.3,2268.6,1487.4,2253.5,1488,2225.4z"/>
<path d="M1442.9,1708.3c-23.4,0.2-37.1-9-41.6-24.7c-4.5-15.9,0.4-28.7,13.6-38.6c15.7-11.8,32.9-17.5,52.8-15.6
	c18.6,1.7,35.7,16.8,38.2,34.9c2.1,15-5.8,26.7-26.1,34.2C1466.2,1703.5,1451.6,1706,1442.9,1708.3z"/>
<path d="M2573.9,1475.4c-10-3.5-26.2-6.2-38.8-14.4c-25.9-16.8-22-46.4,6.1-58.8c22.6-9.9,58.5-2.6,75.9,15.5
	c21.4,22.3,14.5,45.9-15.9,53.6C2594.2,1473.1,2586.8,1473.5,2573.9,1475.4z"/>
<path d="M1695.1,2031.6c-1.6,26.8-28.4,59.3-50.6,64.4c-22.5,5.2-39.2-8.9-32.6-30.5c6.3-20.6,16.4-40.3,27.4-58.9
	c6.8-11.7,19.1-21.3,34.2-16.4c15.9,5.2,19.8,20.1,21.6,35.2C1695.4,2028.5,1695.1,2031.7,1695.1,2031.6z"/>
<path d="M2728.7,1254.2c-14.1-3.2-24.8-6.1-30.7-18.3c-6.3-13,1-22.7,9-31.1c18.1-19,40.6-29.9,66.9-31.2c17-0.8,31.3,8.3,35.2,21.3
	c4.9,16.3-5,28-16.8,34C2772.1,1239.3,2750,1246,2728.7,1254.2z"/>
<path d="M2559.7,1814.5c-24.5,0.4-57.3-23.8-64.3-47.7c-3.8-12.9-2.5-24.8,8-34.5c9.5-8.9,20.4-10,32-5.7
	c22,8.3,41.3,20.5,52.3,42.2C2599.3,1791.6,2585.2,1814,2559.7,1814.5z"/>
<path d="M2768.1,1122.6c-28.3,0.4-41.9-20-29.6-40.3c16.5-27.2,43.4-39.5,74.1-40.9c8.2-0.4,18.8,8.1,24.8,15.4
	c8.5,10.5,3.4,22.6-4.6,31.6C2814.6,1109.1,2790.4,1118.7,2768.1,1122.6z"/>
<path d="M1317.9,1870.5c-16.9,2.2-30.4-0.2-36.1-18.2c-5-15.8-0.9-32.3,16-40.1c18.7-8.5,39.5-14.8,59.8-16.4
	c21.2-1.7,31.1,17.1,22.3,37C1368,1860.1,1346.5,1872.3,1317.9,1870.5z"/>
<path d="M1659.3,1450.8c-28-2.3-48.9-4.7-64.2-22.1c-12.5-14.2-14.4-28.9-5.7-43.4c7.6-12.6,20.1-17.9,38.6-10.9
	c16.2,6.2,31.6,15.9,45.4,26.6c10.7,8.3,21.5,21.8,12,35.2C1679.2,1445,1665,1447.9,1659.3,1450.8z"/>
<path d="M2259.3,1963c0.6,18.9-11.2,36.9-27.2,41.4c-13.8,3.9-29.3-2.9-39.6-18.5c-10-15.1-16.5-31.5-13.4-50.1
	c4.4-26.6,24.9-36.5,48.3-23.6C2245.4,1922.1,2258.7,1943.2,2259.3,1963z"/>
<path d="M2578,894.3c-1.8,24-33.6,62.9-57.3,70.3c-17,5.3-35.5-9-31.8-27.2c6.1-29.5,20.5-55.4,49-69
	C2560.1,857.7,2579.7,871.5,2578,894.3z"/>
<path d="M1444.3,1619.9c-9.3-1.5-16.8-1.9-23.7-4c-14.1-4.4-23.8-14.3-25.8-29c-2.2-15.8,8.1-25.5,21-31.9
	c22.6-11.2,45.8-8.8,66.4,3.3c8.3,4.9,14.2,17.8,16.2,28.1c2.6,12.9-7.7,21.5-19.3,25.3C1467.3,1615.7,1454.8,1617.6,1444.3,1619.9z
	"/>
<path d="M2742.6,1485.4c-31.3-2.5-45.4-12.4-45.8-33.8c-0.4-20.2,19.6-36,46.7-37.3c16.3-0.7,31.4,2.4,43.7,14.2
	c16.8,16.1,13.4,39.9-8.1,48.6C2767.6,1481.7,2754.8,1482.7,2742.6,1485.4z"/>
<path d="M1268.8,1657.6c-7.2-0.9-14.8-0.6-21.6-2.9c-19.2-6.4-24.9-26.6-12.7-43c20.5-27.4,73-29.2,95.2-3.3
	c9.3,10.8,9.8,22.9-2.4,29.4c-17.9,9.6-37.7,15.7-56.6,23.3C1270.1,1659.9,1269.5,1658.8,1268.8,1657.6z"/>
<path d="M1302.1,1963.9c-2.6,4.2-4.9,12.4-10.3,16.2c-18.6,13-37.9,24.9-57.5,36.4c-11.1,6.5-22,1.7-26.6-8.4
	c-3.8-8.4-6.3-22.1-2-28.7c15.9-24.4,39.8-39.7,68.6-45.3C1287.3,1931.5,1303.3,1948.6,1302.1,1963.9z"/>
<path d="M2170.8,965.3c0.9-21,8.3-39,23-54c10.8-10.9,23.7-14.2,37.4-7.5c12.1,5.9,15.6,18.8,12.5,29.8
	c-5.1,17.8-12.6,35.3-21.6,51.5c-7.1,12.8-20.6,19.3-35.3,14.2C2171.1,993.8,2170.2,979.4,2170.8,965.3z"/>
<path d="M1947.8,1165.8c0.5-6.8,0.7-13.1,1.6-19.3c1.7-12.1,6.3-22.4,19.5-25.5c14.2-3.3,27.4-1.1,36.3,11.6
	c13,18.4,14.4,39.2,8.2,59.9c-4.5,14.8-23.5,23.1-41.7,21.1c-16-1.8-19.5-13.8-21.9-26.5C1948.5,1179.9,1948.4,1172.5,1947.8,1165.8
	z"/>
<path d="M1513.3,1395.3c-19.6-0.7-34-10.2-43.5-27c-13.1-23.2,1.9-49.2,28.7-47.5c12,0.8,24.7,5.7,35.2,12
	c18.7,11.1,24.6,27.1,18.9,42.2C1547.7,1387.9,1532.4,1395.8,1513.3,1395.3z"/>
<path d="M1836.6,1069.1c-0.5-25.7,8.3-41,21.9-45.4c15-4.8,31.2,3.5,41.2,21.2c16.9,30,6.7,59.2-23,68.4
	c-10.9,3.4-19.3,1.6-24.2-7.7C1845.4,1091.7,1840,1077,1836.6,1069.1z"/>
<path d="M1680.1,2090.6c6.2-8.2,10.3-13.7,16.7-22.3c3.1,7.6,6.8,12.1,6.3,16C1701.5,2098.6,1693,2096.8,1680.1,2090.6z"/>
</svg>
