<?xml version="1.0" encoding="utf-8"?>
<!-- Generator: Adobe Illustrator 24.3.0, SVG Export Plug-In . SVG Version: 6.00 Build 0)  -->
<svg version="1.1" id="Layer_1" xmlns="http://www.w3.org/2000/svg" xmlns:xlink="http://www.w3.org/1999/xlink" x="0px" y="0px"
	 viewBox="0 0 4000 4000" style="enable-background:new 0 0 4000 4000;" xml:space="preserve">
<path d="M3291.7,970.1c37.2,3.4,71.5,3.1,104.2,10.1c80.7,17.4,139,62.1,162.1,145.1c0.8,2.9,2.6,5.9,2.3,8.6
	c-4,36.8,18.9,48.6,48.5,62.6c75.7,35.6,104.3,103.7,108.3,182.8c3.1,59.1-13.8,114.7-45.6,164.5c-12.9,20.3-13.8,39.4-10.7,62.2
	c6.8,51.2,13.5,102.8,14.7,154.4c5.6,228.2-2.6,456.2-11.2,684.2c-5.9,157.2-15.9,314.3-24.3,471.5c-2.7,50.7-7.1,101.4-9.5,152.1
	c-3.8,78.6-41.8,132.6-113.4,164.7c-39.6,17.8-80.8,29-123.4,33.9c-102.1,11.9-201.4,38.1-301.9,58.1
	c-230.4,45.9-460.8,91.5-691.5,135.2c-184.8,35-370,68-555.4,100c-139.3,24-278.9,46-418.6,67.2c-135.8,20.6-271.8,39.8-407.9,58.4
	c-69,9.4-138.2,18.8-208.2,16.3c-120.3-4.3-176-72-188.5-176.9c-8.9-75-13.7-150.8-15.5-226.4c-7.7-333.7-13.5-667.4-20.2-1001
	c-1.5-72.7-3.5-145.4-6.4-218.1c-0.6-14.5-5.1-29.4-10.2-43.2c-21.6-58.8-12.7-113.6,28.8-158.8c34.2-37.2,73.2-70.3,112.4-102.4
	c250.1-204,500.9-407.2,751.3-610.8c54.9-44.6,109.1-90.1,164.2-134.3c14.7-11.8,24-25.8,29.5-43.5
	c42.5-136.1,131.5-226.9,266.9-272c13.7-4.6,25.4-8.5,26-27.1c1.5-45.3,23.8-82,54.4-113.2c54.4-55.5,121-86.6,198.8-91.3
	c16.8-1,27-6.9,36.9-20.1c49.6-66,109.3-121.1,181.2-162.3c10.3-5.9,21.1-11.4,32.3-15.4c21.7-7.8,39.6-0.8,50.7,18.6
	c11.7,20.4,8.4,41.4-10.6,55.8c-10.2,7.7-22.1,13.3-33.6,19.3c-50,26.2-91.6,62.6-131.5,107.2c10.6,3.6,18.4,6.6,26.4,8.8
	c45.3,12.5,89,28.3,128.1,55.4c37.7,26.2,66.9,59.2,85.9,101.2c3.2,7.1,7.4,13.9,11.7,21.7c28.8-4.6,57-9.3,85.3-13.7
	c43.9-6.8,87.4-4.9,130.3,6.5c71.8,19,124,61.4,153.1,130.7c2.6,6.3,5.7,12.3,7.8,16.6c36.8-2.3,71.4-6.4,105.9-6.2
	c49.6,0.3,96.4,13.4,139.2,39.1c37.1,22.3,64.5,52.8,79.6,93.8C3284.3,950.1,3288,960.3,3291.7,970.1z M3420.7,2078.7
	c0-36.5,0-71.2,0-106c0.1-70.7,1.7-141.5-0.3-212.1c-0.7-25.3-7-51.5-16.3-75.1c-15.2-38.4-44.5-54.4-85.7-49.5
	c-31.5,3.8-62.8,10.4-94,16.5c-119.1,23.2-238,47.6-357.4,69.7c-119.3,22.1-239,42.3-358.7,62.8c-108.8,18.6-217.7,37.4-326.8,54.5
	c-138.6,21.6-277.5,41.2-416.2,62.4c-175,26.8-350,53.9-524.9,81.7c-115.9,18.4-231.5,39.2-347.4,57.5
	c-71.6,11.3-142.4,30-215.8,27.5c-3.7-0.1-7.4,1.6-13.8,3.1c3,150.2,5.9,299.8,9,451.9c14.7-1,25.6-1.1,36.3-2.6
	c71.9-10.2,143.9-20.1,215.6-31.4c131.7-20.6,263.3-42.3,395-63.2c167-26.5,334.2-52.4,501.2-79.2c196.5-31.6,392.8-64.1,589.2-95.9
	c133.6-21.7,267.3-42.4,400.8-64.6c163.9-27.2,327.7-55.3,491.4-83.5C3340.8,2096.2,3379.4,2087.1,3420.7,2078.7z M3404.8,2799.6
	C2500.5,2951.1,1596.1,3100.4,688,3240c4.9,94.2,2.1,187.9,16.6,280.7c10.4,66.5,48.1,100,116.1,99.8c40.7-0.1,81.7-2.7,122.2-7.6
	c97.8-11.9,195.6-24.7,293-39.3c172.2-25.8,344.5-51.7,516.3-80.2c179.6-29.8,359-61.5,538.1-94.7
	c193.7-35.9,387.1-73.8,580.3-112.4c128.8-25.8,257.3-53.1,385.3-82.2c89.3-20.3,139.5-75.2,147-165.7c6.3-76.2,3.9-153.2,5.2-229.8
	C3407.9,2805.8,3406,2803,3404.8,2799.6z M1565.5,1199.4c-1.5-1.2-3-2.3-4.5-3.5c-4.1,2.8-8.3,5.3-12.1,8.3
	c-79.3,63.4-158.9,126.6-237.9,190.5c-163.5,132.1-326.9,264.3-489.9,396.9c-47.1,38.3-94.1,77-138.8,118
	c-16.2,14.9-29.7,35.5-37.6,56.1c-12.8,33.2,8.7,62.4,44.2,64.5c12.8,0.8,26,0.1,38.7-1.9c86.5-13.8,172.9-27.9,259.3-42.2
	c88.4-14.6,176.6-30.3,265-44.3c110.1-17.4,220.4-33.4,330.6-50.2c123-18.8,245.9-37.8,368.9-57c133.7-20.8,267.5-41.4,401.1-63.1
	c83.5-13.6,166.8-28.6,250-43.7c185-33.6,370-67.5,555-101.4c49.9-9.1,99.5-20.2,149.7-27.5c45.3-6.6,86.2,5.9,113.4,44.6
	c13.4,19.1,24.9,42.1,28.5,64.8c7,44,10.2,89,10.5,133.6c0.6,79.7-2.2,159.4-3.3,239.1c-4.3,301.8-8.5,603.7-13.1,905.5
	c-0.3,21.9-2.1,43.8-5.1,65.5c-6.4,45.1-20.4,87.2-53.3,120.8c-2.3,2.3-2.8,6.3-5.1,11.6c38.3-4.9,72.8-14.1,105.3-29.4
	c42.2-19.9,66.3-52,66.7-100.7c0.3-33.8,3.4-67.6,5.3-101.4c8.2-147.2,19.3-294.2,23.8-441.5c7.2-234,10.4-468.1,14-702.2
	c0.9-55.7-2.1-111.5-5.9-167.2c-3.5-50.3-29.1-91-67.6-121.8c-44-35.2-96.6-46.9-151.9-40.5c-50.4,5.9-100.1,17.2-150.5,22.8
	c-57.2,6.3-111.3-3.3-155.7-44.4c-25.7-23.8-40.7-54.2-50.3-86.9c-8.3-28.3-23.7-42.3-54-46.2c-57-7.2-102.4-36.4-136-83.4
	c-5.8-8.1-12.9-15.4-17.9-23.9c-20.1-34.3-52-53.9-86.2-71.2c-32.9-16.6-64.9-34.8-97.5-51.9c-15.9-8.3-31.9-16.5-48.5-23.1
	c-10.5-4.1-22.3-5.1-38.1-8.5c0,16.3,1.9,28.3-0.4,39.6c-5.9,29.1,5.7,44.9,32.1,57.6c56.3,27.1,89.8,75,106.7,133.8
	c24.8,86.1-22.4,156.7-90.7,176.3c-5.7,1.6-11.1,4.5-16.9,6c-20.1,5.2-32.1,17.8-38.5,37.6c-20.4,63.4-68.1,96.1-129.7,111.2
	c-47.3,11.5-95.1,11.2-141.5-4.5c-37.7-12.7-72-9.9-104.9,13.6c-12.8,9.2-27.5,16.3-42,22.5c-36.7,15.8-75.3,22.4-113.6,9.3
	c-25-8.6-51.7-19.2-71-36.3c-29.3-26.1-58.5-33.2-95.6-23.4c-20.8,5.5-43.4,7-65,6.4c-63.1-1.7-109.3-38.5-127-99.1
	c-3.6-12.4-7.8-25.3-7.8-37.9c0-20.2-8.9-30-27.2-36.9c-43.7-16.5-64.3-51.8-70.7-95.9c-6.4-43.7,1.4-85.3,23.6-123.8
	C1558,1212.6,1561.7,1206,1565.5,1199.4z M3418.7,2122.4c-914.6,155.8-1828,299.9-2741.9,443.4c-5.6,29-0.5,294.7,6.4,316.4
	c62.6,1.1,747.1-110.3,783-127.9c-8.8-38.5-5.6-76.3,15.2-111.4c20.9-35.2,50.7-59,91.3-66.3c34.1-6.1,67.4-2.2,98,16.3
	c44.1,26.7,66.3,67.1,72.2,119.9c221.2-34.3,439.5-69.7,656.7-107.4c-1.1-97.6,35.9-156.9,105.5-171.8c33.2-7.1,65.7-2.2,95.8,13.5
	c44.4,23.3,68.5,61.9,78,113.8c246.4-39.9,490.5-78.9,735.7-124.5C3417.1,2330,3420.8,2226.1,3418.7,2122.4z M3407.7,2760.8
	c2.1-97.4,4.1-189.6,6.1-284.3c-12,1.4-20.7,2-29.3,3.5c-150,25.9-299.8,52.2-449.9,77.7c-77.5,13.2-155.2,25.2-232.8,37.3
	c-18.4,2.9-30.3,10.2-35.7,29.9c-5.8,21.4-20,38.7-37.7,52.7c-59.6,47.1-147.1,40.2-196.9-17.3c-12.2-14.2-23.3-17.7-41.1-14.4
	c-59.6,11.2-119.5,21-179.4,30.7c-147.3,23.9-294.5,48.3-442.1,70.6c-24.1,3.7-35.7,14.3-46.3,34.8
	c-39.1,75.9-149.2,99.5-209.8,41.9c-25.4-24.2-47.2-31.6-78.2-21.6c-4.7,1.5-9.8,1.5-14.7,2.3c-123.5,21.2-246.9,43.5-370.6,63.3
	c-113.9,18.2-228.3,33.7-342.5,50.5c-8.5,1.3-16.8,3.7-27.2,6.1c2.4,91.7,0.4,181.9,6.3,278.3
	C1596,3061.6,2500.5,2911.6,3407.7,2760.8z M2176,752c26.2,1.9,50,2.7,73.6,5.4c81.4,9.6,150.1,43.4,203.2,107.2
	c33,39.8,56.7,84.2,67.8,134.7c4,18.3,12.9,26.1,31.9,28.8c36.9,5.1,70,21.5,102,40.2c22.3,13,44.7,26.1,68.4,36.2
	c44.2,18.8,81.4,45.5,108.7,85.5c7.3,10.7,15.8,20.5,23,31.3c20.3,30.6,48.3,49.5,84,57.4c13.6,3,27.1,6.5,40.8,8.9
	c29.2,5,48.2,20.6,57.6,49.4c6.5,19.8,16.1,38.5,24.1,57.8c17,40.8,50.3,60.8,91.3,68.7c19.2,3.7,39.9,5.2,59.2,2.6
	c43.3-5.8,86-16,129.3-22c89.7-12.4,170.7,3.1,231,78.4c1.8,2.2,4.8,3.3,8.8,5.9c4.9-4.2,11.1-7.8,14.8-13.1
	c29.9-43.3,45.9-91.7,38.7-143.8c-9-65.2-44.5-112-117.4-118.3c-15.6-1.4-31-4.9-50.7-8.1c4.4-18.8,8.3-34.8,11.8-50.9
	c12.4-57.6-9.1-99.7-63.1-123.1c-9.1-3.9-18.7-6.7-28.4-8.9c-45.7-10.2-90.9-5.6-136.1,4.2c-46.5,10.1-51.4,5.2-42.9-41.1
	c9.1-50.4-10.1-90.1-55.1-114.5c-24.1-13-50-19.2-77-21.3c-50.4-4-98.9,6.3-147.4,18.3c-44.4,11-47.2,8.1-49.7-37.8
	c-3.6-66.4-40.1-109.3-104.6-124c-61-13.9-120.6-6.6-179.9,9.7c-14.3,3.9-28.9,7.8-43.5,9.7c-20.9,2.7-25.9-1-33.5-20.8
	c-2.1-5.5-3.6-11.4-4.9-17.2c-13.2-58.4-48.8-98.8-101-126.1c-40.3-21.1-83.8-30.7-128.3-37.3c-17.4-2.6-27.5,3.9-36.3,18.7
	c-26.6,44.7-47.2,92-63.2,141.4C2180.1,732.4,2178.6,741,2176,752z M2407.5,1357.8c-15.9,3.7-24.4,6.4-33.1,7.6
	c-28.3,3.7-56,1.3-80.6-14.3c-27.7-17.6-28.6-50.8-2.9-69.5c47.7-34.7,119.8-15.3,142.7,39.6c18.3-18.9,26.3-42.6,34.6-65.6
	c41.9-115.7,41.1-229.7-26.8-335.4c-70.4-109.6-166-127.9-264.7-119.9c-6,0.5-15.4,7.8-16.4,13.1c-4,23-5.5,46.5-8.3,74.7
	c19.8-3.8,34.2-6,48.2-9.5c9.6-2.4,18.7-6.9,28.1-10.1c9.5-3.3,17.7-2.4,22.7,7.8c5.1,10.3,4.1,19.7-5.9,26.1
	c-6.6,4.3-14,7.7-21.4,10.4c-67,24.6-129.1,12.1-187.6-25.7c-4.1-2.7-8.1-5.9-11.5-9.5c-7.3-7.6-12.7-16.3-5-26.4
	c7.1-9.5,16.5-10.2,26.4-4c10.9,6.9,21.6,14.3,32.7,20.8c7.2,4.2,15,7.4,25.3,12.4c1.8-32,3.3-59.4,5.1-90.3
	c-36.2-4-70.7-4.9-105.2-3c-59.6,3.3-113.3,24.1-158.3,62.5c-111.8,95.6-149.3,217.5-119.6,360c18.8,90,72.2,157.5,151,201.9
	c142.6,80.3,290,83.1,438.3,15.7C2348.3,1412.2,2378.9,1391.3,2407.5,1357.8z M2534.3,1183.6c-3,5.3-4.5,6.9-4.9,8.7
	c-2.3,8.7-4.1,17.4-6.5,26.1c-31.4,112.9-91.9,202.1-203.6,249.8c-128.6,54.9-259.1,58.8-390,10.7
	c-134.3-49.4-220.4-142.3-248.6-285.1c-1.8-9.3-5.1-18.3-8.5-30.1c-16.1,10.4-29.7,18.6-42.6,27.6c-47.4,33-72.5,99-60.2,155.5
	c4.8,21.9,15.7,39.5,36.1,48.4c65.6,28.5,56.1,37.5,64.1,91.4c9,60.2,50.6,92,111.6,86.8c19.7-1.7,39.6-4.8,58.8-9.7
	c31.7-8.2,58.7-1,83.6,19.2c13.9,11.2,28.9,21.1,43.8,31.1c36.8,25,76.2,26.6,116.8,11.5c13-4.8,25.3-11.6,37.4-18.4
	c73.3-41.2,75.2-43,154.9-21.8c44.3,11.8,86.5,9.2,129.3-3.4c37.3-11,65.5-32.8,81-69.4c4.7-11,9.7-21.8,14.6-32.7
	c8.7-19.2,23.3-31.6,43-39c17.6-6.6,35.6-12.9,52.1-21.8c34.6-18.7,47.7-50.9,44.7-87.8c-3.6-45.4-25.5-83.6-58.7-114.2
	C2568.3,1203.9,2550.6,1194.7,2534.3,1183.6z M2179.4,570.4c-62.8,6.9-157.5,69.7-147.6,142.3c30.5,3.4,61.5,6.9,88.8,9.9
	C2141,669.8,2159.9,621,2179.4,570.4z M2386.4,1321.4c-9.7-19.3-21.5-26.7-39.7-24.3c-13.6,1.8-27.6,4.5-27.6,23
	C2350.9,1334.3,2355.1,1334.4,2386.4,1321.4z"/>
<path d="M2779.8,2694.7c30.3-0.8,59.6,3.2,86.7,17.9c39.7,21.6,45.7,61,13.4,93.7c-22.3,22.6-50.7,35.2-81.5,40.7
	c-28.3,5.1-57,8.8-85.6,11.2c-25.1,2.1-49.7-2.5-72.4-14.1c-40.8-20.9-48-62.1-17.1-96c33.2-36.4,77.9-45.6,123.7-51.8
	C2757.8,2694.9,2768.9,2695.2,2779.8,2694.7z M2776.8,2727.7c-42.6,0.6-80.9,13-116.1,35.3c-10.1,6.4-20.4,14-18.8,28
	c1.5,13.8,12.7,19.5,23.9,24c6.4,2.6,13.3,4.8,20.1,4.9c20.8,0.4,41.9,1.5,62.5-1c35.6-4.4,70.8-12.3,100.1-34.9
	c23.3-17.9,20.7-35.7-7.6-44.5C2820.3,2733.1,2798.2,2731.4,2776.8,2727.7z"/>
<path d="M1416.1,3054.8c-21.2,1.5-48-4.2-73.4-17.1c-43.2-22-50.3-62.2-17-97.5c22.2-23.6,51.9-32.8,81.9-39.5
	c39.9-9,80.6-13.7,120.7-1c15.9,5,31.8,11.7,45.8,20.6c24.2,15.4,29.2,38.3,17.6,64.9c-7.6,17.3-20.9,28.8-36.8,37.6
	C1514,3045.4,1469.8,3054.6,1416.1,3054.8z M1418.5,3018.6c48.6-2.1,87.8-8.2,121.8-31.8c26.2-18.2,24.4-39.1-5.7-50
	c-61.3-22.2-119.6-10.4-174.4,22c-10.5,6.2-19.7,17.4-14.6,29.8c3.6,8.8,13.5,18.1,22.5,20.9
	C1386.9,3015.2,1407,3016.7,1418.5,3018.6z"/>
<path d="M2080.7,2875.3c-66.8-0.1-123.7-44.1-140.1-108.5c-0.7-2.9-2.5-6.2-1.7-8.6c2.4-6.9,4.1-15.8,9.3-19.4
	c8-5.6,17.3-2.9,22.4,6.9c6,11.4,11.5,23.1,17.8,34.4c23.8,43,62.6,62.3,109.1,54.7c56.9-9.3,85.4-35.5,94.9-87.8
	c1.6-8.8,2-17.8,2.5-26.7c0.5-10.2,4.1-17.5,15.5-17.9c11.1-0.3,19.9,3.7,21.8,15.7c1.1,6.7,0.9,13.9,0.2,20.7
	C2224.2,2823.3,2166.1,2875.5,2080.7,2875.3z"/>
<path d="M2223.3,1184.7c0.1-34,26.4-61.3,59.3-61.3c33.5-0.1,61.3,27.2,61.3,60c0,35.7-28.5,64.3-64.2,64.5
	C2246.3,1247.9,2223.2,1222.2,2223.3,1184.7z"/>
<path d="M1938.7,1151.4c0.3,33.5-23.4,57.4-57.9,58.6c-30.9,1.1-57.6-28.3-57.3-63.1c0.3-33.5,23.2-59.5,53.1-60.2
	C1913.1,1085.8,1938.4,1112.2,1938.7,1151.4z"/>
<path d="M2080.2,1290c-43.5,0.3-75.7-29.4-75.8-71.1c0-6.6,3.9-17,8.8-19.2c10.5-4.6,15.4,4.6,18.8,13.6c3.1,8.3,5.8,17.2,10.5,24.6
	c18.3,28.6,55.9,27.6,73.5-1.5c2-3.4,3.5-7.2,5.2-10.7c4.1-8.5,9.5-17.1,20.2-12.3c10.9,4.9,10.6,15.5,8,25.8
	C2142.1,1268.2,2112.9,1289.8,2080.2,1290z"/>
<path d="M1809.8,1043.6c-27.1-8.2-32.4-14.3-23.4-35c12.2-28.1,27.1-55.2,42.7-81.6c8-13.5,10.9-12.9,34.5-9.5
	c-0.5,25-18.9,42.6-27.1,64.2C1828.6,1002.8,1818.7,1023.2,1809.8,1043.6z"/>
<path d="M1874,904.9c-6-18.6,4.3-28.2,14.3-35.2c10.9-7.7,24-13.9,36.9-16.4c5.8-1.1,16.3,7,19.7,13.6c2.3,4.3-2.3,15.8-7.2,19.7
	C1919.7,900.7,1899.3,909.8,1874,904.9z"/>
</svg>
