<?xml version="1.0" encoding="utf-8"?>
<!-- Generator: Adobe Illustrator 24.3.0, SVG Export Plug-In . SVG Version: 6.00 Build 0)  -->
<svg version="1.1" id="Layer_1" xmlns="http://www.w3.org/2000/svg" xmlns:xlink="http://www.w3.org/1999/xlink" x="0px" y="0px"
	 viewBox="0 0 4000 4000" style="enable-background:new 0 0 4000 4000;" xml:space="preserve">
<path d="M1407.6,1213.6c8.4,0.5,14.6,1.1,20.9,1.1c62.1,0.2,98.4,28.8,103.3,89.8c2.5,30.6,13,45.4,41.3,54.3
	c16.9,5.3,32.1,17.4,46.5,28.5c9.4,7.2,17.9,11.4,29.8,10c33.7-3.9,65.2,3,95.5,18.7c7.8,4,19.5,3.7,28.5,1.7
	c78-17.1,145.4,0.7,199.2,60.9c10.2,11.4,18.2,12.5,30.6,6.2c30.1-15.3,62.5-19.5,96-19.4c29.2,0.1,56.6,6.5,81.1,22
	c13,8.2,24.9,10,38.6,3.4c25.9-12.6,53-13.9,80.3-5.5c11.3,3.5,20.9,3.6,31.2-3.1c60.7-39.2,126.2-37.9,193.2-21.7
	c3.6,0.9,7.1,2,10.6,3c23.9,6.8,25.8,6.6,37.6-13.9c27.9-48.4,69.1-68.6,124.3-60.7c0.9,0.1,1.8,0.2,2.7,0.3
	c52.7,4.3,54.3,10.3,78-37.6c18.8-37.9,53.9-53.8,93.7-59.1c16.5-2.2,26.3-7.9,33.2-23.4c12.4-28.2,34.5-47.4,64-56.5
	c17.4-5.3,29-15.9,35.4-31.8c9.5-23.7,17.8-48,26-72.2c4.4-13,6.6-26.7,11.2-39.6c10.2-28.6,30.8-44.8,61.2-47.7
	c12.7-1.2,25.6-1.6,38.4-1.6c175.1,1,350.1,2,525.2,3.3c17.4,0.1,35,0.6,52,3.5c35.1,6,62.3,24.2,70.1,60.7
	c7,33,12.2,66.8,14.2,100.5c9.5,164.6-1.1,328.1-37.7,489.1c-56.3,248.3-159.6,474.7-317.5,675.9
	c-201.3,256.4-456.4,437.5-761.9,547.5c-136.7,49.2-278.7,75.9-424,86.6c-170.6,12.5-339-1.1-505-39.8
	c-281.4-65.5-529.5-196.2-744-390c-168.2-152-298.4-331.6-393.8-537.2c-78.8-169.8-123.8-348.2-141.8-533.9
	c-13.4-138.4-9.2-276.4,11.4-413.8c8.5-56.8,36.5-83.1,93.8-83.1c209.9,0.2,419.8,1.3,629.7,2.1c11.9,0,23.8,1,35.7,2
	c48.5,3.9,82.5,32.2,92.5,79.6c3.8,17.9,10.2,32.9,23.2,45.4C1388.3,1143.6,1397.7,1177.4,1407.6,1213.6z M814.4,1066.7
	c-1.3,6-2.4,8.6-2.3,11.2c1,41.2,1.8,82.4,3.4,123.6c7.4,187.8,43.9,368.9,123.6,540.3c54.9,118,124.7,225.9,211.7,322.7
	c57.7,64.2,120.5,123.1,188.8,176c93.2,72.2,193.4,132.8,303.1,176.3c223.8,88.8,455.2,114.6,693.5,78.9
	c157.4-23.6,306.5-72.3,445-150.9c216.8-123.1,388.2-292.4,513.2-508.5c127.9-221.1,182.9-461.4,188.9-714.7
	c0.2-6.8-2.2-13.7-3.2-19.8c-5.3-0.9-8-1.8-10.7-1.8c-111.8-0.3-223.6-0.3-335.5-0.9c-16.5-0.1-24.6,6.8-29.6,22.2
	c-11.7,36.7-24.5,73.1-47.7,104.6c-10.9,14.7-14.7,29.8-13.9,48.4c2,44.4-19.7,75.1-60.3,91.1c-3.2,1.3-6.1,3.5-9.8,5.7
	c0.2,5,0.2,9.5,0.7,14c5.1,43.1-15.8,69.8-59.1,69.9c-20.5,0.1-44.2-2.1-60.8-12.4c-27.3-17-47-12.7-67.5,7.7
	c-3.1,3.1-6.9,5.7-8.8,7.3c5.6,22,13.9,41.9,15.1,62.3c2.9,48.9-32.9,76.1-80.8,64.6c-24.8-5.9-47.6-17.3-64.3-35.2
	c-18.9-20.2-37.6-22.9-61-12.3c-4.1,1.8-9.5,1-13.3,3.2c-7.6,4.4-17.5,8.6-21,15.6c-12.1,24-32.6,37-55.8,46.3
	c-39,15.7-79.3,22-121,11.3c-4.9-1.3-10.2-1.3-16.7-2.1c-2.4,14.3-3.2,27.2-6.8,39.3c-5,16.5-9.5,34-18.7,48.2
	c-29.2,44.9-87.4,45.4-115.8,0c-12.3-19.6-17.5-43.7-24.9-66.1c-3-9.2-3.2-19.4-5.1-32.4c-42.8,33.4-89.4,16.8-132.7,16.9
	c-5.6,22.1-8.9,42-15.7,60.7c-8.8,24.2-27,39.5-53.5,41.1c-27.5,1.7-49.2-11.4-60.2-35.5c-9.3-20.4-13.1-43.4-18.3-65.5
	c-2-8.6-1.4-17.8-2-25.8c-28.3-1.8-55.9,1-80.4-6.5c-24.2-7.5-45.3-25.4-67.1-38.4c-11.2,9.8-21.8,21.4-34.6,29.7
	c-38.2,24.8-80.6,10.9-95.7-31.5c-5.1-14.3-5.6-30.4-7.8-45.7c-1.3-9-0.5-18.6-3-27.2c-3.9-13-18.8-15.6-28.1-5.5
	c-3.7,4-6.2,9.1-9.4,13.5c-26.2,36.6-63.3,51.8-106.7,52.2c-64.6,0.6-88.9-65.7-61.2-106.1c5.4-7.9,9.5-16.8,14.5-25.7
	c-55.8-19.6-66.2-34.9-65-92c0.2-10.7,0-21.3,0-33.8c-12-0.8-21-2-30-2c-26.3,0-45.4-12.2-59.2-33.8c-24.7-38.5-31-77.5-5.4-118.5
	c11.5-18.4,9.6-27.4-3.2-42c-11-12.6-25.2-13.2-40.2-13.2c-127.4-0.1-254.8-0.4-382.2-0.5C831.9,1065.3,823.8,1066.2,814.4,1066.7z
	 M3518.9,1103.4c-2,4.9-3.2,6.5-3.3,8.3c-0.5,6.4-0.7,12.8-0.8,19.2c-2.1,116.8-17.6,231.9-44.1,345.6
	c-52.1,222.9-153.4,421.3-302.2,594.5c-193,224.5-434.6,370.6-723.1,438.4c-180.8,42.5-362.2,47-545.4,14.3
	c-250.2-44.6-469.8-151.7-659-319.8c-185.5-164.9-316.9-366.4-391.4-603.8c-51.5-164-73.5-332.4-70.5-504.1c0.2-9.7,0-19.5,0-30.3
	c-45.9,0-88.5,0-131.6,0c-1.7,8.9-3.8,15.9-4.4,23.1c-4.2,53-10.3,105.9-11.7,159c-5.6,216.7,25.1,427.3,105.9,629.8
	c62.1,155.7,147.4,297.2,256.5,423.5c115.9,134.1,252.3,244.4,406.6,332.6c181.7,103.9,376.9,164.7,584.7,185.8
	c150.6,15.3,300.3,5.6,448.7-23.2c199.6-38.8,383.8-115.5,550.7-231.5c262.2-182.2,447.8-424.8,560.1-723.1
	c87.7-233,114.1-474.4,92.2-721.7c-0.5-5.2-2.9-10.1-4.7-16.5C3593.9,1103.4,3556.7,1103.4,3518.9,1103.4z M3671.3,1104.9
	c0,10.1-0.7,18.1,0.1,25.9c11.4,104.4,8.3,208.7-1.6,312.9c-17.3,181.2-63.4,354.9-140.6,520c-83.9,179.6-196.4,338.7-339,476.5
	c-86.8,83.9-183.3,154.9-287.5,215.4c-155.3,90.1-321.5,151.2-498.5,180.5c-125.9,20.8-252.6,28.7-380.6,18.8
	c-139.8-10.8-275.7-36.6-407.3-85.1c-154.2-56.8-296-135.5-426.1-236.2c-159.5-123.4-287.7-273.4-387.9-447.9
	c-83.2-145-141.8-299.1-175-463.2c-27.4-135.7-33.7-272.6-28.7-410.3c1.3-35.6,6.3-71.1,9.6-106.7c1.2-13.1,2.4-26.3,3.6-39.9
	c-7.2-0.8-10.8-1.7-14.3-1.6c-30.6,1-32.4,1.8-36.6,31.8c-5,36.3-10.1,72.7-12.7,109.2c-12,172.2,0.7,342.4,43.3,510
	c56.4,221.6,152.9,423.4,297.2,601.2c152.4,187.7,336.9,335.4,554.7,441.3c165.7,80.5,340.3,130.8,523.1,149
	c155.5,15.5,310.8,11.2,465.3-18.8c165.9-32.2,324.1-85.5,471.6-167.5c202.1-112.5,372.6-261.8,510.4-448.2
	c158.4-214.3,255.8-453.5,296.8-716.2c22.3-143,22.3-286.6,10-430.4c-0.6-6.9-3.5-13.5-5.5-20.8
	C3700.6,1104.9,3687.9,1104.9,3671.3,1104.9z M2223.7,1606.2c0,28,4.9,54.6,23,77c18.1,22.5,43.5,21.4,58.6-2.9
	c17.1-27.4,21.4-57.9,16.8-89.4c-2.6-17.6-13.6-29.8-30.8-34.9C2250.9,1543.9,2223.5,1564.4,2223.7,1606.2z M1478.2,1498.5
	c30.6-3.4,59.1-14.1,76.8-43.5c8-13.2,6.3-19.5-7.4-26.5c-13.8-7-28.7-12-42.8-18.6c-26.2-12.2-30.1-11.8-48.6,10.5
	c-5.8,7-11.5,14.5-15.4,22.6C1426.2,1473,1443.3,1499.1,1478.2,1498.5z M2688.6,1457.1c-4.6,0-9.2-0.7-13.7,0.1
	c-15,2.7-28.2,8.2-32.7,24.9c-4.2,15.6,3.6,26.3,14.9,35.4c20.1,16.3,42,29.1,67.9,33.7c22.6,4,32.8-3.8,34.5-26.3
	C2762.7,1484.2,2735.5,1458.2,2688.6,1457.1z M1939.9,1609.6c0.6,21.1,0,42.5,14,60.3c16.2,20.5,38.2,20.7,52.2-0.9
	c17-26.2,19.1-55.3,8-84.3c-7.1-18.5-27.8-28.1-47.5-24.8c-18,3-25.4,13.8-26.7,38.7C1939.7,1602.3,1939.9,1606,1939.9,1609.6z
	 M1922.9,1537.8c-24.4-54.6-109.6-73.8-147.5-34.5C1794.9,1558.7,1888.1,1578.8,1922.9,1537.8z M2516.1,1535.1
	c-4.6-2.3-8.3-5.1-12.6-6.2c-35.2-9.2-70.5-8.2-105.2,1.4c-11.1,3.1-21.7,9.6-31.1,16.5c-17,12.7-15.6,21.5,3.8,31.5
	c41.5,21.5,116.5,3.4,143.7-34.7C2515.6,1542.2,2515.3,1540,2516.1,1535.1z M1651.6,1502.3c2,10.6,2.7,21.8,6.4,31.8
	c8.3,21.9,26.3,27.9,45.9,15.5c16.7-10.5,32-25.8,30-45.5c-1.9-18.8-22.7-23.8-38.8-30.1c-2.5-1-5.3-1.3-8-1.7
	C1660.1,1468,1652.4,1474.7,1651.6,1502.3z M2168.6,1570.1c-13.3-22-31.5-27.5-48.8-29.5c-21.3-2.5-43.6-2.4-64.7,1.4
	c-18.6,3.3-20.6,19.4-6.1,32.1c3.4,2.9,7.3,5.9,11.4,7.2c27.4,8.3,55.2,11.1,83,2.4C2151.5,1581.1,2158.7,1575.5,2168.6,1570.1z
	 M2838.3,1397.3c23.8,17.5,50.3,26.8,71.6,25.3c12-0.9,25-2.9,29.9-15.1c5.2-13-1.4-25.3-10.7-34.5c-5.5-5.4-13.3-9.7-20.8-11.8
	C2884.2,1354.8,2851.4,1371.7,2838.3,1397.3z M1464.1,1330.2c0.2-25.1-15.1-42.8-36.5-42.4c-23.7,0.4-37.4,13.2-37.1,34.6
	c0.3,25,13.5,40.3,34.8,40.3C1450.3,1362.8,1464,1351.3,1464.1,1330.2z M1337.3,1234c0.8-30.4-21.3-66.6-47.9-78.7
	c-16.7,21.5-5.6,41.3,5.2,59.6C1303.6,1230.3,1317.4,1240.4,1337.3,1234z M2963.7,1333c25.1,0,48.6-20.6,49-42.9
	c0.2-11.5-7.3-17.4-17.3-13.7C2977.2,1283.3,2961.2,1311.7,2963.7,1333z"/>
<path d="M2564.9,2040.8c-74.9-1.4-132.2-60.4-130.4-134c1.8-72,61.2-127.8,134.9-126.8c71.6,1,131.4,59.8,128.1,130.1
	C2693.6,1996.9,2634.5,2042.9,2564.9,2040.8z"/>
<path d="M1668.4,2040.1c-74.6-0.1-132.2-55.1-130-126.6c2-66.7,48.6-133.3,131.8-133.4c71.3-0.1,129.3,57.9,129.2,129.2
	C1799.4,1981.2,1740.3,2040.2,1668.4,2040.1z"/>
<path d="M1487.9,2057c27.7,5.3,55.7,9.5,82.9,16.5c12.9,3.3,25.3,10.8,36.2,18.9c32.6,24.3,33.3,62.6,1.3,88.2
	c-10.5,8.4-23.1,15.3-35.8,19.5c-54.3,18.2-109.6,20.2-164.5,3.1c-15.4-4.8-30.6-12.7-43.4-22.5c-32.6-24.7-32.2-62.8,0.2-88.1
	c26.1-20.4,57.5-27.2,89.6-31c10.8-1.3,21.9-0.2,32.9-0.2C1487.4,2060,1487.7,2058.5,1487.9,2057z M1487.1,2090.1
	c-0.2,1-0.4,2-0.7,2.9c-10.1,0.6-20.5-0.5-30.1,2c-21.1,5.4-43,10.2-62.4,19.7c-23.4,11.4-23,29.6-1.9,44.2c3,2.1,6.1,4.1,9.5,5.6
	c60.2,25.7,119.9,22.4,178.1-5.3c24.3-11.6,24.1-27.2,1.4-42.8c-7.4-5.1-15.9-9.8-24.5-11.9
	C1533.6,2098.8,1510.3,2094.7,1487.1,2090.1z"/>
<path d="M2749.2,2219.3c-28.3-6.3-57-11.4-84.9-19.5c-12.7-3.7-25.1-11.5-35.3-20.2c-27.2-23.2-27-60.1-0.3-83.7
	c7.4-6.6,16-12.7,25.1-16.4c64.7-26,129.8-27.7,194.8-1.2c9.2,3.8,18.1,9,26.1,15c29.8,22.2,32.4,60.4,4.1,84.8
	c-12.8,11-29.2,18.5-45.1,24.7c-14.3,5.6-30,7.9-45.3,10.3c-12.6,2-25.5,2.1-38.2,3C2749.8,2217.2,2749.5,2218.2,2749.2,2219.3z
	 M2750.9,2185.5c24.2-4.6,48.7-7.9,72.4-14.3c11.9-3.2,23.6-10.2,33.3-18.2c11.5-9.4,10.6-20.5,0-30.6c-3.9-3.8-8.5-7.2-13.4-9.6
	c-61.9-30.2-124.1-28.2-184.9,2.2c-24.6,12.3-23.9,31.3-0.3,45.3C2686.3,2177.2,2717.8,2182.6,2750.9,2185.5z"/>
<path d="M2120.9,2142.3c-70.5,0.3-128.4-46.6-140.3-112.7c-1.1-6.2-1.8-12.8-1.1-19c1-9.1,6.7-14.5,16.2-15.8
	c9.9-1.4,15.7,3.1,18.3,12.2c2,7,4,14.1,5.4,21.2c12.7,63.7,102.2,109.8,172.9,46.6c12.1-10.8,17.9-29,25.7-44.2
	c2.8-5.5,2.7-12.4,4.1-18.6c2.7-11.5,6.9-21.2,21.8-18.4c12.6,2.4,20,12,17.6,26.3c-7,41.4-25.8,75.9-61.2,99.9
	C2175.9,2136.4,2148.1,2141,2120.9,2142.3z"/>
</svg>
