<?xml version="1.0" encoding="utf-8"?>
<!-- Generator: Adobe Illustrator 24.3.0, SVG Export Plug-In . SVG Version: 6.00 Build 0)  -->
<svg version="1.1" id="Layer_1" xmlns="http://www.w3.org/2000/svg" xmlns:xlink="http://www.w3.org/1999/xlink" x="0px" y="0px"
	 viewBox="0 0 4000 4000" style="enable-background:new 0 0 4000 4000;" xml:space="preserve">
<path d="M1517.4,461.2c-25.3-15.8-51.2-17.7-77.4-17.8c-11.5-0.1-23.1,0.5-34.6,0.9c-13.3,0.5-22.1-5.7-25.9-18.3
	c-4.2-14,0.4-25.3,12.9-32c7.2-3.8,15.6-6.4,23.7-7.2c38.1-3.8,75.6-2.6,109.7,18.3c3.4,2.1,7.5,3.1,13.7,5.7
	c0-9.8,0.9-17.6-0.1-25.2c-12.7-97.5,22.4-176.7,92.8-242.3c4.6-4.3,9.8-7.9,15.1-11.3c22.4-14,33.9-12.7,46.7,9.9
	c39.6,70.1,63.6,143.8,45.5,225.8c-2.7,12.3-4.9,24.6-7.2,37c-0.2,0.9,0.4,2,1.6,7.7c26.3,5.7,54.5,12.5,83,17.5
	c7.7,1.4,16.7-1.7,24.4-4.5c32.1-11.5,38.3-28.9,19.2-57.7c-9.8-14.7-22-27.9-34.1-41c-12.3-13.4-25.7-26-17.7-46.6
	c8.2-21.3,27-25.4,46.4-25.4c53.5,0.1,107.3-2,160.5,2.5c160.5,13.5,306.3,69.1,436.6,163.6c67.5,48.9,127.2,106.2,174.1,176
	c7,10.4,14.9,20.3,22.7,30.1c1.7,2.1,5.3,2.8,11.7,6c3-11.7,6.9-22.1,8.2-32.8c4.7-37.7,6.6-75.1-6-112.2c-4.2-12.2-3.1-26,12.7-31
	c13.6-4.4,25.1,0.2,32.3,12.7c4.1,7.2,8.3,15,9.6,23.1c3.6,21.6,6.5,43.5,8.1,65.4c1.3,17.6,0.3,35.4,0.3,56.1
	c9.1-3.5,17.1-5.4,24-9.3c56.8-31.4,117.6-35.4,180.3-26.7c1,0.1,2.1,0.4,3.1,0.6c47.4,10,54.9,24,35.7,67.7
	c-23.7,54-59.9,98.6-106.5,134.3c-12.2,9.4-27.5,14.9-41.5,21.9c-8.1,4-16.5,7.3-24.7,10.9c23.2,32.7,47.1,61.9,66,94.1
	c23.8,40.6,44.2,83.3,64.3,125.9c7.6,16,17,23.2,34.6,26.4c146.5,26.6,267.6,97,357.4,216.3c122.9,163.1,187.3,348,196.1,552
	c2.2,51.8-4.8,102.4-18.2,152.6c-18.5,69.1-55.4,126.7-106.9,174.9c-19.3,18.1-30.5,37.8-35.9,64
	c-75.9,371.1-152.9,742-229.2,1113.1c-13.5,65.8-27.1,131.6-37.8,197.9c-9,55.2-37.6,94.1-85.3,121.3
	c-59.8,34.1-123.6,58.7-190,74.1c-92.9,21.6-186.4,41.5-280.5,56.1c-241.4,37.5-484.7,47.7-728.5,37.4
	c-204.5-8.7-408.4-28.2-608.3-75.4c-74.5-17.6-148.4-38.4-218.1-70.9c-20.9-9.7-40.9-21.4-60.6-33.5c-36.8-22.7-58.7-55.1-66.3-98.5
	c-13.4-76.5-28.8-152.6-43.5-228.8c-32.9-171-65.4-342.2-98.9-513.1c-37.7-192.6-76.3-384.9-114.4-577.4c-2.2-11.3-2.4-23.3-6.2-34
	c-3.3-9.3-8.6-19.5-16-25.5c-80.9-65.1-128.1-149.9-142.1-251.5c-22.8-165.6,25.2-309.3,144.1-427.5c21.4-21.3,47.3-38.2,71.9-56
	c23.2-16.8,22.8-16,17.9-43c-22.8-125.8,3.8-240.4,83.7-340.3c68.7-86,160.8-140.2,262.6-178.1c38.2-14.2,77.7-25.2,117.3-35.2
	c17.6-4.5,27-12,31.4-29.7c34.3-139,128.2-220.1,259.9-261.8C1475.8,520.9,1467,524.2,1517.4,461.2z M1435.3,593.9
	c-7.6,0.4-9.8,0-11.7,0.6c-116.2,39.2-200.4,108.6-221.8,236.6c-0.5,3.1-1,6.2-1.3,9.3c-1.9,18-11.7,28-29.3,32.2
	c-26.5,6.3-53.1,12.8-79.1,20.7c-98.4,30-189.7,73.2-266.7,143.2c-99.8,90.8-138.4,202.4-114.2,335.2
	c11.4,62.3,18.7,58.7-44.1,100.9c-85.4,57.4-147.4,133.8-176.2,234c-48.5,169-8.1,341.9,147,444.7
	c124.9,82.8,257.8,107.4,401.2,55.5c36.5-13.2,72.3-28.2,108.5-42.2c82-31.7,158.3-22,228.9,30.9c28.5,21.4,56.9,43.2,86.6,62.8
	c49.5,32.6,103.5,51.4,163.7,43.3c53-7.1,100.5-28.7,144.1-59.3c23.2-16.2,45.9-33.3,69.9-48.3c76.7-48.1,155.8-53.1,235.4-8.3
	c36.5,20.5,70.6,45.2,105.9,67.9c42.1,27.1,87.7,44.7,138,48.7c68.6,5.4,127.4-19.6,181.2-59.5c24.5-18.1,48.3-37.1,73.1-54.6
	c65.5-46.2,136.4-56.9,212-28.9c30.5,11.3,60.4,24.2,90.2,37.1c148.5,64.3,290.5,51.3,425.6-36.3c77.9-50.5,133.1-118.9,151.4-211.7
	c7.4-37.8,12.4-77.1,10.9-115.5c-6.8-175.7-56.1-338.5-154.8-485.3c-89.8-133.5-215-212.6-372.3-241.1c-25-4.5-39-16.1-48.7-38.1
	c-15.2-34.6-31.6-68.6-48.1-102.5c-3.7-7.5-9.8-13.9-18.4-25.8c-1.5,12.7-2.5,17.7-2.6,22.8c-3.4,139.7-139.3,273.1-303.9,243.9
	c-140.9-25-231.9-150.9-211.5-294.9c21.1-148.2,149.4-233.1,279.6-217.7c10.7,1.3,21.6,0.2,33.2,0.2
	c-25.4-81.2-144.8-217.4-299.2-297.8c-135.2-70.5-278.2-99-436.2-91.7c11.3,18.7,19.6,31.5,27,44.7c24.2,43.1,16.4,81-22.3,110.8
	c-6.4,4.9-12.6,10-21,16.8c47.1,45.4,72.9,99,79.2,161.9c6.3,63.1-7,121.4-43.9,173c-68,95.2-182.7,132.9-292.3,97.5
	c-54.6-17.6-100.1-48.5-133.4-95.3C1428.1,748.3,1417,674.6,1435.3,593.9z M2105.5,3768.5c1.3-9.5,2.7-15.5,2.9-21.6
	c2.5-71.3,4.8-142.6,7.1-213.9c2.5-75.5,4.3-151.1,7.4-226.6c5.3-127.9,11.7-255.7,17.1-383.6c4-95.4,7-190.8,10.9-286.2
	c4.2-103.8,8.6-207.6,13.3-311.4c0.7-14.9-2.6-26-16.3-34.4c-33.2-20.2-65-42.5-98.6-61.9c-48.8-28.1-100.6-31.8-150.4-5.1
	c-39.6,21.2-76.2,48-114.1,72.2c-11.6,7.4-11.2,18.5-10.8,30.6c5.3,139.5,10.2,278.9,15.2,418.4c7.1,199.2,14.7,398.4,21.1,597.7
	c4.1,129,6.2,258.1,9.5,387.1c0.3,12.3,2.3,24.5,3.8,38.6C1918.3,3768.5,2010.3,3768.5,2105.5,3768.5z M2508.7,3730.9
	c7.6,1.2,9.8,2.1,11.7,1.8c80.4-14.9,160.7-29.9,241.1-44.7c14.9-2.7,19.4-11.8,21.7-26.2c33.4-206,67.6-411.8,101.2-617.7
	c20.6-126.2,40.6-252.6,60.8-378.9c18.4-114.9,37-229.8,55.3-344.7c1.7-11,2-22.2,3-34.6c-72.5-9.6-135.7-37.4-199-65.4
	c-22.9-10.1-47.1-18.1-71.5-23.7c-17-3.9-35.3-2.8-53-2.8c-12.3-0.1-19,7.3-20.1,19.7c-0.6,7.3-1.6,14.6-2.3,21.9
	c-8.1,82.5-17.2,164.9-24,247.5c-11.9,144.2-35.8,287.5-36,432.7c0,7.3-1.5,14.6-2.6,21.8c-6.2,42.5-12.6,85-18.5,127.6
	c-1.7,12-1.9,24.2-2.5,31.5c29.9,11.9,56.7,19,79.6,32.5c49.8,29.3,51.4,76.6,6.4,112.4c-24.7,19.7-54.1,26.7-84.4,31.7
	c-23.3,3.9-23.7,4.8-25.9,27.5c-9.9,103.4-19.9,206.7-29.9,310.1C2516.1,3650.2,2512.5,3689.6,2508.7,3730.9z M1380.2,3276.3
	c-14.9-3.9-27-6.9-39-10.4c-25.6-7.3-49.3-18.2-67.1-38.8c-22.9-26.5-22.4-56.3,1-82.2c15.9-17.7,36.1-28.1,58.7-35
	c23.3-7.1,23.4-7.4,21.3-30.2c-7.8-86.7-15.8-173.4-23.7-260.1c-16.4-179.7-32.7-359.4-49.3-539.1c-2.6-27.8-6.6-55.5-10.1-83.5
	c-10.8-0.9-18.5-3.3-25.2-1.7c-35.5,8.5-72.2,14.6-105.9,28c-64.4,25.6-128.1,52.4-197.4,62.1c-2.6,0.4-4.9,3.4-7.7,5.4
	c0,4.3-0.6,8.5,0.1,12.5c14.7,90.1,29.9,180,44.3,270.2c32.2,202,64.3,404.1,95.9,606.2c24.9,159.6,49.1,319.4,73.5,479.1
	c3.4,22.2,4.8,24.7,29.3,29.7c71.9,14.7,143.9,28.9,215.9,42.9c7.8,1.5,16.1,0.2,27.2,0.2C1407.9,3578.9,1394.1,3428,1380.2,3276.3z
	 M1769.5,3763.8c-8.1-479.3-31.6-953.8-45.8-1431.8c-12.9,3-21,4.2-28.6,6.8c-93.2,30.7-180.3,16.2-261.5-36.7
	c-25.4-16.6-48.6-36.6-72.9-54.9c-8.7-6.5-15.7-17.6-31.6-12.3c17.2,182.1,34.5,364.1,52.3,552.5c44.3-32.1,85.4-54.5,135.5-50.8
	c50.2,3.7,95.3,19.9,127.6,59.3c46.7,57,60.7,135.2,11.2,210.5c-20.1,30.6-45.4,54.5-80.6,67.3c-58,21.2-112.6,12.2-164.6-19
	c-10.4,33.8-7.9,36.5,21.8,41.4c29.9,4.9,60,10.6,88.6,20.2c18.2,6.1,35.7,17.8,50.3,30.7c26.6,23.5,27.4,49.4,5.6,77.7
	c-14.5,18.9-33.6,32-56.6,37.7c-28.2,7-56.8,12.3-89,19.2c15,153.1,30,306.1,45.1,460.3C1574.8,3750.7,1669.1,3764.3,1769.5,3763.8z
	 M2517.5,3057.2c-10.6,5.2-17.9,8.7-25.2,12.2c-28,13.6-57.6,20-88.5,17.3c-96-8.6-191.7-104.8-148.8-231.5
	c39.9-117.6,179.2-159.2,276.5-81.6c5.8,4.6,12.9,7.8,22.7,13.6c16.9-187.2,37.1-369.1,53.9-557.6c-13.2,6.9-20.9,9.6-27,14.3
	c-13.3,10.2-25.7,21.6-38.7,32.2c-89.3,72.5-188.1,98.8-300.1,61.9c-7.3-2.4-15.3-2.5-27.2-4.3c-19.3,479.1-38.5,954.6-57.8,1431.6
	c102.3,0.4,198.7-12,296.9-23.6c15.9-155.1,31.6-308.1,47.5-462.9c-13.4-2.3-22.6-3.5-31.7-5.6c-18.3-4.2-37.2-7.2-54.7-13.9
	c-30.9-11.8-56.3-31.3-57.6-67.6c-1.2-34.6,22-55.2,49.6-70.9c9-5.1,19.2-8.7,29.3-11.1c21.4-5,43.2-8.6,64.7-13
	c6.8-1.4,13.5-3.8,22.8-6.4C2522,3079,2520,3069.4,2517.5,3057.2z M3055.6,2289.9c-74.3,459.6-147.9,914.7-222.2,1374.3
	c12.4-2.5,21.6-3,29.7-6.3c31-12.7,61.4-27,92.5-39.4c51.9-20.7,75.4-59.1,85.7-113.7c34.7-184.4,72.4-368.2,110.3-552
	c47.9-232,97.1-463.7,145.6-695.6c2-9.5,2.1-19.3,3.8-36.6C3221,2265.5,3141.8,2286.9,3055.6,2289.9z M648.3,2219.2
	c-1.7,1.7-3.3,3.5-5,5.2c5.5,24.4,11.5,48.6,16.3,73.1c23,116.3,45.6,232.7,68.5,349.1c27.7,141.1,55.9,282.1,83.3,423.2
	c29.7,152.4,59.2,304.9,87.7,457.6c6.5,34.7,22.4,60.8,54.2,76c38.8,18.4,77.8,36.3,117.1,53.6c7.9,3.5,17.3,3.6,29.4,5.9
	C1027,3201,954.8,2743.5,882.5,2285.4C796.4,2282.8,720.6,2257,648.3,2219.2z M2613.9,743.7c-38.1,2.4-72.2,0.3-104.2,7.3
	c-95.1,20.9-158.1,105.1-157.3,204.8c0.8,94.5,67.8,177,161.9,199c89.6,21,192.3-27.1,232.4-110.4c31-64.3,31.8-129.2-0.7-193.7
	c-10.7-21.2-23.3-34.4-49.7-24.4c-10.5,4-22.6,4.3-34.1,5.3c-35.6,2.8-55.6-17.7-52.1-53C2611,769.3,2612.1,760.1,2613.9,743.7z
	 M1564.6,499.9c-5.7,2.2-9.1,2.7-11.4,4.5c-69.3,53.9-94.1,149.8-59.3,235.9c37.8,93.5,121.8,134.9,203.6,129.5
	c118.1-7.8,209.8-97.4,197.1-228.9c-8.1-84.2-77.5-159.6-158.8-172.7c-21.2-3.4-36.5,0.4-48,19.5c-8.1,13.4-17.7,26.1-28.2,37.7
	c-23.2,25.6-42,25.7-67.1,1.8C1582.9,518,1573.5,508.6,1564.6,499.9z M1660.6,192.6c-77,47.3-97.6,215.2-34.5,281
	C1699.6,405.3,1716.5,268.1,1660.6,192.6z M2912.7,626.9c-65.3-3.9-126,7.6-176.3,50.8c-30.1,25.9-59.3,54.6-68.8,97.3
	C2776.8,786,2891.2,724.7,2912.7,626.9z M2522.2,3242.8c0.1-0.9,0.1-1.9,0.2-2.8c13.6,0,27.4,1.5,40.7-0.4
	c15.4-2.2,31.1-5.7,45.5-11.7c14.2-5.9,28.5-13.8,39.5-24.2c13.7-12.9,10.8-28.8-4.3-40.2c-5-3.7-10.6-6.8-16.4-9
	c-48.7-18.6-99-27.5-150.9-19.3c-28.2,4.4-54.2,16.3-75.6,35.8c-13.8,12.6-13.5,21-1.5,35c14.3,16.8,33.3,25.3,54.5,28.5
	C2476.5,3238.1,2499.4,3240.1,2522.2,3242.8z M1424,3244.2c30-5.3,56.2-7.8,81-14.9c14.2-4.1,28-13.8,39-24.1
	c14-13.2,13.6-25-1.7-37.3c-11.8-9.5-26.4-17.9-41.1-21c-33.6-7.1-67.9-14.3-102-14.6c-33.2-0.3-66.7,7.9-93.2,31.3
	c-17.9,15.8-17.1,32.7,1.9,46.8c6.6,4.9,14.1,9.8,21.9,11.7C1362.1,3230.3,1394.5,3237.4,1424,3244.2z M1549,2912.5
	c31.2,0.9,59.4-27.4,59.9-60.2c0.5-31-26.6-59.3-56.9-59.4c-33.5-0.2-59.9,26.7-61.3,62.4C1489.5,2885.5,1515.9,2911.5,1549,2912.5z
	 M2329.1,2850.4c-0.8,32.2,23.5,58.7,55,60.2c31.5,1.6,59.4-24,60.2-55.1c0.8-31.1-25.7-59.7-55.7-60.1
	C2354.8,2794.9,2329.9,2817.9,2329.1,2850.4z"/>
<path d="M2190.5,1915.5c-128.1-1.6-224.3-82.6-250.3-192.3c-27.3-114.9,29-245.7,128.4-291c76.2-34.7,153.4-40.6,229.8,0.1
	c14.1,7.5,25.2,9.8,33.9-6.7c6.5-12.3,15.4-20.3,30.4-13c12.7,6.3,22,18.7,16,30.4c-16.3,31.8,4.9,49.2,20.5,71.2
	c109.6,154.3,12.4,373.4-175.9,398C2211.9,1913.7,2200.3,1914.5,2190.5,1915.5z M2356.6,1548.1c-28.2,6.9-51.4,12.8-74.6,18.2
	c-27.3,6.4-51.4-5.5-75-15.6c-15.2-6.5-15.5-22.6-2-32.9c6.9-5.3,17.9-10.9,25.2-9.1c23.2,5.8,39.2-9.3,60-14.3
	c-14.4-15.5-30.3-16.2-47.8-15.8c-10.5,0.3-23.5-2.5-31.1-8.9c-12.6-10.7-25.9-14.3-40.6-12c-18.5,2.9-37.3,6.6-54.7,13.2
	c-77.8,29.4-123,85.8-130.7,168.8c-7.1,76.5,19.6,141,82.8,185.8c68.3,48.5,143.6,53,217.1,14.7c71.5-37.2,109.3-99.9,110.2-181.2
	C2396.1,1617.9,2388.4,1577.7,2356.6,1548.1z"/>
<path d="M1005.1,1288.9c7-18.5-4.6-32.6-19.2-48.5c-47.2-51.2-27-136.2,37.8-162.2c14-5.6,25.3-10.4,31.7-26.6
	c19.9-50.1,74.4-73,121.5-47.8c32.6,17.4,64.5,27.6,101.4,32.6c62.9,8.4,98.2,77.5,73.9,136c-7.2,17.3-7.4,32,2.9,47.4
	c24.8,37.4,23.3,75.7-0.2,112.4c-24.5,38.2-62.1,53.6-106,46.8c-27.1-4.2-47.7,1.7-70.3,16.5c-48.6,31.8-109.6,21.5-148.9-21.1
	C1008.3,1351.2,1002.3,1323.3,1005.1,1288.9z M1192,1300.8c15.6,7.1,28.6,13.7,42.1,18.9c28,10.9,57.5,3.9,74.4-16.8
	c14-17.2,14.2-46.8-6.9-69.4c-24-25.7-30.4-46.5-4.1-74.2c11.6-12.2,14.8-30.7,3.5-46.7c-12.5-17.7-28.2-35.2-51.7-27.6
	c-34.2,11.1-58.5,2.2-77.8-26.5c-2.2-3.3-6.1-5.8-9.7-7.8c-21.1-11.6-48.4-1.9-57.4,20.7c-2.7,6.7-4.4,14.1-5.3,21.3
	c-2.4,18.2-12.7,27.8-30.4,30.7c-6.2,1-12.3,2.7-18.2,4.7c-40,13.3-47.9,52-16.2,80.1c7,6.2,15.3,10.9,23,16.4
	c11.5,8.1,16.7,17.4,10.3,32.1c-4.6,10.4-6.9,22-8.8,33.3c-5.5,33.2,5.9,53.7,35.1,65.1c30.5,11.9,57.2,4.6,74.9-20.5
	C1176.4,1323.6,1183.9,1312.6,1192,1300.8z"/>
<path d="M1401.1,1854.5c-34.5-0.3-60.4-8.1-84.1-22.3c-15.9-9.5-18.9-19.2-12.8-34.1c5-12.2,12.5-19.1,26.7-13.6
	c7.8,3,16,4.9,23.8,7.9c50.8,19.5,94.3,5.6,133.2-28.9c7-6.2,13.4-13.2,19.9-20.1c9.5-10.1,20.1-10.7,30.8-2.7
	c10.2,7.7,14.4,18.3,8.7,30.5c-3.5,7.5-8.2,14.7-13.8,20.8C1496.4,1832.9,1449.4,1852.5,1401.1,1854.5z"/>
<path d="M2234.6,497.3c-1.4,70.1-53.4,134.4-128.3,151.7c-9.1,2.1-18.6,2.7-28,3.5c-10.4,0.8-18-3.1-22.1-13.6
	c-4.7-12-0.1-21.6,8.9-27.4c9.4-6.1,20.7-10.1,31.6-13.1c51.1-13.9,79.8-47.3,88.2-99.1c1.3-8.3,3.5-16.4,4.6-24.7
	c1.7-13.3,8.3-21.5,22.1-21.8c12.6-0.3,21,9.2,23,25.2C2235.1,482.1,2234.6,486.4,2234.6,497.3z"/>
<path d="M3134,1626c-72.9-3.1-132-40.3-155.6-99.4c-5.2-13-9.1-25.8-0.3-38.9c9-13.4,19.7-14.4,30.1-1.8
	c5.9,7.2,10.8,15.4,15.3,23.7c23.4,42.8,60.4,62,108.1,62.5c13.6,0.1,27.2-0.7,40.8-0.5c14.5,0.1,24.1,7.4,26.5,21.7
	c2.4,14.1-7.3,21.9-18.9,25C3165.1,1622.2,3149.4,1623.6,3134,1626z"/>
<path d="M1967.1,3134.2c-68.2,0.3-125.8-48.4-136.2-115.5c-0.9-6.1-3-14.3-0.1-18.3c5.6-7.7,13.5-15.1,22.1-18.8
	c10.7-4.5,17.4,3.9,20.9,13.5c2.8,7.9,4.4,16.2,7.1,24.1c13.2,39.1,46.9,64.5,84.1,63.6c42.8-1,71.2-23.6,83.7-66.9
	c2-7,1.9-15,5.1-21.2c3.5-6.8,9.4-16.7,15-17.2c7.9-0.7,19.9,3.8,23.9,10c5.6,8.8,8.5,21.7,7.1,32.1
	C2091,3086,2034.7,3133.8,1967.1,3134.2z"/>
<path d="M2573.8,3209.3c5.6-15.7,8.6-29.3,15.3-40.5c3.2-5.3,13.6-6.2,20.8-9c2.8,7,8.6,14.3,7.8,20.9
	C2615.5,3199.8,2602,3208.5,2573.8,3209.3z"/>
<path d="M2440.5,3209.2c-2.3-4.4-8.2-10.8-8.7-17.4c-0.8-11.6,17.5-29.9,27.8-29.7c10.9,0.1,13.7,8,13.3,17.1
	C2472.5,3190.1,2454.2,3209.5,2440.5,3209.2z"/>
<path d="M2547.7,3155.1c-8.1,24.1-11.7,45.8-38.6,50.5C2500.7,3174.6,2507.9,3164.5,2547.7,3155.1z"/>
<path d="M1383.6,3160.1c-10.7,15.8-16.6,27.7-25.6,36.4c-4.2,4-16.2,4.7-21.5,1.6c-9.2-5.4-8.9-16.2-2.2-24.3
	C1344.8,3160.9,1358.7,3156.2,1383.6,3160.1z"/>
<path d="M1455.8,3160.4c-11.7,16.7-19.5,29.9-29.5,41.2c-3.1,3.5-12.2,1.6-18.6,2.2c-0.3-5.6-2.8-12.4-0.5-16.5
	C1416.4,3171.2,1426.8,3155.5,1455.8,3160.4z"/>
<path d="M1475.3,3208.6c6.4-14.8,10-26.9,16.6-36.9c2.8-4.2,12.5-5.9,18.5-4.9c2.7,0.4,5.8,10.4,5.3,15.7
	C1514.1,3199.2,1502.8,3207.1,1475.3,3208.6z"/>
<path d="M1254.5,1205.2c-0.1,41.3-20.3,63.7-61.6,68.2c-15.6,1.7-31.1,3.1-46.7,4.6c-22.4,2.1-33.3-5.7-39.2-26.1
	c-3.7-12.7-8.3-25.3-14.1-37.3c-11.6-24-8.6-37,12.9-53.9c8.1-6.3,17.4-12.8,22.1-21.4c10-18.2,24.6-20,42.5-18
	C1222.3,1127.3,1254.6,1159.2,1254.5,1205.2z M1196.4,1197.6c0.1-13.7-8.7-17.6-20.3-17.9c-14.2-0.4-29.2,10.3-30.5,21.5
	c-1.2,10.7,11.8,25.4,22.5,25.5C1179.9,1226.7,1195.8,1210.3,1196.4,1197.6z"/>
</svg>
