<?xml version="1.0" encoding="utf-8"?>
<!-- Generator: Adobe Illustrator 24.3.0, SVG Export Plug-In . SVG Version: 6.00 Build 0)  -->
<svg version="1.1" id="Layer_1" xmlns="http://www.w3.org/2000/svg" xmlns:xlink="http://www.w3.org/1999/xlink" x="0px" y="0px"
	 viewBox="0 0 4000 4000" style="enable-background:new 0 0 4000 4000;" xml:space="preserve">
<path d="M1946.8,126.6c238.4,5.8,429.8,32.6,616.6,88.5c35.7,10.7,70.7,24.9,104.1,41.4c77.2,38,110.5,105,112.6,187.8
	c0.6,24.7,7.9,36.9,29.4,48.1c197.2,102.3,366.4,239.1,504.1,414.1c147.3,187.2,246.4,397.8,306.6,627.6
	c35,133.5,63,268.2,73.2,405.9c27,364.5-41.8,708-227.5,1025.5c-197.6,337.9-483.2,572.8-843.4,720.3
	c-230.4,94.4-470.4,139.5-719.1,130.8c-189.5-6.7-373.4-45.6-550.5-114c-167.7-64.7-322-153.1-462.9-264.6
	c-246.3-194.9-432-435.3-544.1-730.1c-59.1-155.3-94.1-316.2-107.4-482c-22.3-277.9,16.9-547.5,114.3-807.8
	c108.8-290.6,283.9-535.8,521.1-736.1c26.1-22,53-43.3,81.3-62.1c17.8-11.8,22.3-24.9,18-44.4c-3.3-15-5.5-30.4-6.4-45.7
	c-4.3-73.2,25.8-130.2,83.9-173.3c50.8-37.7,107.7-64.6,165.5-89c163.4-69.1,333.8-111.6,510.4-127.2
	C1814.3,132.7,1902.4,129.3,1946.8,126.6z M3590.6,1619.3c-37.6,25.1-72.9,48.5-110.5,73.6c4.5,22.8,10.6,48.4,14.6,74.3
	c6.2,40.3,12.2,80.6,15.8,121.2c2.9,32.4-6.5,43.9-36.9,46.1c-36.2,2.6-72.6,2.4-108.9,3.5c-16.2,0.5-32.3,1.4-51,2.3
	c0,14,0.9,24.8-0.1,35.5c-5.5,56.6-28.1,102.1-85.4,122c-58.6,20.4-113.3,14.4-158.8-31.1c-25.7-25.8-37.6-59.1-42.9-94.7
	c-1.7-11.5-3.4-23.1-5.5-37.5c-31.8,0-60.3,0.7-88.9-0.2c-34.6-1.1-39.5-6.1-40.6-41.5c-1-30.8-0.6-61.7-0.6-92.5
	c-0.1-49.6,0.5-99.2-0.2-148.7c-0.3-23.2-4.3-26.7-27.1-28.1c-42.1-2.7-80.9,6-113.8,34.5c-39.2,34.1-63.9,74.4-62.8,128.8
	c0.8,39.5-2.5,79.1-3.6,118.7c-0.5,17.4-1.4,35,0.4,52.3c4.4,42.7,12.5,85.1,14.5,127.9c1.3,26.9-5.4,54.3-9.1,81.4
	c-2.8,20.5-9.3,40.8-9.3,61.2c-0.3,155.3,0.8,310.7,1.1,466c0,13.9-1.7,27.8-2.6,42.1c-9.5,1.7-15.9,3.5-22.3,3.8
	c-60.5,2.6-121,6.5-181.5,6.8c-100.2,0.6-200.5-1.1-300.7-1.9c-14.3-0.1-28.6-0.3-43-0.2c-17.2,0.2-27.4-8.8-29.7-24.9
	c-2.7-18.4-4.4-37.2-4.5-55.8c-0.4-156.4-0.2-312.9-0.2-469.3c0-7.7-0.1-15.5,0.7-23.1c2.2-20.9,7.3-26.8,27.9-30.3
	c9.7-1.7,19.7-1.8,29.6-1.8c61.7-0.1,123.4,0.2,185.1,0c9.2,0,18.5-1.6,24.9-2.2c0-67.5,0-130.8,0-197.1
	c-11.3-0.5-23.1-1.5-34.9-1.5c-60.6-0.2-121.2,0-181.8-0.4c-44.8-0.3-48.5-4.2-49.8-49c-0.3-9.9-0.1-19.8-0.2-29.7
	c-0.6-54-1.1-108-2.1-161.9c-0.2-9.1-2.1-18.2-3.4-29.2c-116.1,84-126.7,85.9-242.3,61.6c-0.9,10.8-2.5,21.2-2.6,31.6
	c-0.3,46.3,0.6,92.6-0.4,138.8c-0.7,30.5-7.2,36-37.7,37.9c-15.4,0.9-30.8,1.1-46.3,1.1c-134.4,0.1-268.8,0.2-403.2,0.1
	c-19.8,0-39.7,0-59.5-1.1c-27.5-1.5-32.7-6.5-34.7-33.3c-1.2-16.5-0.6-33-1.3-49.5c-0.4-8.3-2-16.6-3-25
	c-34.2,6.3-46.9,16-48.3,45.6c-1.7,36.1-1.7,72.9,3.3,108.5c11.8,83.9,30,166.9,40.2,250.9c15.3,125.3-62.1,212.3-172.5,214.6
	c-9.3,0.2-18.6,2.7-29.5,4.3c0,74.7,0,146.3,0,217.8c0,68.5-0.1,70.3-69.7,70.7c-119,0.7-238-1.4-356.9-1.5
	c-22.7,0-37.4-7.5-45.4-29.5c-14.3-39.3-30.6-77.8-44.5-117.2c-42.8-120.8-68.2-246-90.6-371.8c-12.7-71.2-0.2-84.4,71.6-84.5
	c121.2-0.2,242.4-0.2,363.6-0.4c11.8,0,23.6-1.2,36.1-1.8c10.1-62.2,19.9-121.8,29.3-181.4c0.6-3.9-1.1-8.3-2.1-15.3
	c-11.6,0-22.3,0-33.1,0c-134.4,0-268.8,0-403.2,0c-11,0-22.1,0.2-33-1.3c-22.8-3-33.1-13.9-35.1-36.6c-0.7-7.6,0.4-15.4,1.2-23
	c12-111.9,32.2-222.1,66.1-329.6c3.8-12.2,6.2-24.8,9.8-39.8c-44.7-9.5-89.1-10.2-120.6-41.6c-4.6,3.1-7.3,3.9-8.1,5.6
	c-3.4,6.8-6.8,13.8-9.2,21c-95.3,281.8-121.6,569.6-74.5,863.6c40,249.7,129.2,479.1,278.5,685c131,180.6,289.1,331.7,476.6,452
	c208.7,133.9,435.7,220.1,681.5,254.6c176,24.7,351.8,17.7,526.2-15c227.8-42.7,439-128.2,633.5-253.9
	c174.9-113.1,322.2-255.2,443.5-425c178.2-249.4,275.1-527.8,297.8-831.9c12.7-170.9,0.8-341.2-33.4-509.6
	C3603.8,1682.4,3597.1,1650.6,3590.6,1619.3z M3467.1,1628.3c77.8-24.9,106.2-74.7,84.7-146.5c-97.3-324.9-272.6-596.3-544.5-803.6
	c-208.4-158.9-441.7-254.6-701.4-284.1c-196.5-22.3-393.3-22-589.9,3.9c-150.2,19.8-296.2,55.9-437.3,110.7
	c-99.7,38.7-197.1,82.7-283.6,147C770.3,823,593.5,1031,467.9,1281.7c-17.7,35.3-31.7,72.6-46.7,109.2c-5.9,14.3-6,27.8,11.4,36
	c32,14.9,65.1,25.3,102.4,31.4c10.1-26.9,20-52.2,29.2-77.9c6.4-17.9,17.7-25.3,37.3-25.1c135.5,0.9,271,0.6,406.5,1.3
	c38.9,0.2,44.6,6.1,45.4,43.7c2,94.7,4.2,189.4,4.6,284c0.3,71.6-2,143.2-3.4,214.8c-0.2,10.5-1.9,21.1-2.8,30.3
	c-54,13.7-47.3-0.7-55.7,56.5c-9.4,64.1-13.7,128.9-23.2,193c-7.3,49.4-1.1,96,13.6,143.1c13.9,44.7,51.9,59.5,88.1,77.3
	c4.5,2.2,10.9,1.2,16.3,0.8c51.5-3.7,93.8-38.7,107.5-88.6c8.9-32.5,9.7-65.3,3.8-98.2c-12.9-71.5-27-142.8-39.3-214.3
	c-6.9-40.1-13.2-80.7-5.1-121.5c11.8-59.4,37.7-99.6,100.2-105.7c1.7-0.2,3.1-2.7,5.5-4.8c0.5-3.5,1.5-7.8,1.5-12.1
	c0-63.9-0.3-127.8-0.2-191.7c0.1-56.2-0.2-112.4,1-168.5c0.6-31.2,6.3-35.6,37.4-37.1c7.7-0.4,15.4-0.4,23.1-0.4
	c153.1-0.3,306.3-0.7,459.4-0.7c58.2,0,60.4,2.5,60.4,62.2c0.1,72.7,0.4,145.4-0.4,218.1c-0.2,18.9,6.7,30.1,23.1,39.5
	c51.8,29.7,99.6,20.7,144.6-13.4c21.9-16.6,40.9-37,63.1-53.2c17.2-12.6,22.4-27.2,22-47.7c-1-56.2-0.6-112.4,0.5-168.5
	c0.6-31.8,5.7-35.5,37.3-36.5c6.6-0.2,13.2-0.2,19.8-0.2c153.1-0.3,306.3-0.7,459.4-0.9c67.4-0.1,69.1,1.6,69.2,71.1
	c0.1,59.5-0.3,119-0.2,178.5c0,11.3,1.3,22.7,2,34.4c33.4-20.3,61.2-43.9,93.4-55c33.3-11.5,70.7-10.9,109.5-16
	c0.4-5.8,1.7-15.4,1.8-25c0.4-50.7-0.2-101.4,0.8-152c0.6-30.4,4.9-34.3,35-34.8c52.9-1,105.7-1.5,158.6-1.7
	c82.6-0.3,165.3,0.4,247.9-0.4c22.9-0.2,37,7.8,45.2,29.4c13.2,35,29.2,68.9,41.9,104.1C3437,1533.9,3451.2,1580.1,3467.1,1628.3z
	 M1025,567.5c13-6.1,22.6-10.4,32-15.1c50.3-25,99.5-52.2,150.9-74.7c196.8-85.9,404.1-128.5,617.4-145.2
	c130.9-10.2,261.9-10.5,392.8,0.1c167.7,13.7,331.3,45.8,487.2,111.3c7.4,3.1,15.7,3.8,25.9,6.2c-3.4-64.7-24.2-115.3-81.3-144.7
	c-23.4-12.1-47.5-23.5-72.4-31.8c-149.2-50.1-304.1-71.2-459.9-85.8c-125.4-11.8-250.7-7.7-376.1,4.4
	c-179,17.2-351.3,59.4-516.3,130.8c-59.6,25.8-118,54.6-167.5,98.1c-16.1,14.2-29.3,30.2-33.7,51.6
	C1017.9,502.1,1015.5,531.5,1025,567.5z M994.5,2688.6c4.2-5.4,5.4-6.2,5.4-7.1c0.7-81.4,1.7-162.7,1.4-244.1
	c0-8.2-7.6-17-13.1-24.5c-10.9-14.9-24.7-27.9-33.9-43.7c-25-42.7-35.2-89.7-36.1-138.9c-0.2-10.6-1.2-21.2-2-34.1
	c-139,0-274.8,0-414.5,0c17.5,171.6,65.3,332.9,123.7,492.4C750,2688.6,872.9,2688.6,994.5,2688.6z M2151.7,1562.2
	c20.7-1.2,39.3-4.2,57.7-3.1c52.9,3,93.3,30,126.2,69.8c37.3,45.2,58.3,98.3,71.7,154.5c7.6,31.9,12.4,64.5,19.3,100.9
	c64.8,1.4,129.9,3.1,194.3-0.8c9.6-50,13.7-439.1,5.6-471.1c-38.1-6.2-453.6-4.9-474.7,1.8
	C2151.7,1462.8,2151.7,1511.8,2151.7,1562.2z M3408,1644.8c0-7.7,1.1-12.4-0.2-16.2c-22.4-67.9-44.9-135.7-67.8-203.4
	c-4.7-13.8-16-15.5-29.3-15.4c-111.2,0.5-222.5,0.3-333.7,0.6c-10.5,0-21,1.4-34.3,2.3c0,57.5,0.4,111.4-0.2,165.2
	c-0.2,16.4,10,23.1,21.8,29.8c34.2,19.6,61.3,46.1,80.2,81.1c23.6,43.8,33.5,90.5,32.7,139.9c-0.3,17.1,1,34.2,1.7,53
	c58.1,0,112.5,0,170.4,0c-2.1-54.8-4.7-107.6,22.8-155.9C3301.7,1673.2,3352.2,1657,3408,1644.8z M2480.7,2687.7
	c54,2.3,98.9,1,143.1-1c7.2-50.4,5.3-410-1.9-431.5c-4,1.8-7.9,3.4-11.8,5.2c-79.9,36.4-142.7,21.1-197-49.3
	c-11.6-15.1-25.4-18.6-43-18.4c-66.1,0.6-132.1,0.2-198.2,0.5c-6.3,0-12.5,1.9-19.5,3.1c0,164.9,0,328.2,0,491.4c32,0,61,0,98.1,0
	c-36.2-46.2-59.5-90.3-52.9-144c6.7-54.5,31.7-98.4,77.8-128.3c64.9-42.2,155.9-30.9,213.6,23.8c30.2,28.6,46.9,63.6,52,104.2
	C2548,2598.7,2524,2643.3,2480.7,2687.7z M964.8,1882.5c18.6-95.1,34.8-184.8,27.3-276.8c-1.2-14.1-3.3-29-9-41.8
	c-8.9-19.7-17.9-41.3-32.9-56.1c-42.4-41.7-107.9-22.1-123,34.5c-6,22.3-10.9,45.1-18.8,66.7c-22.3,61.1-75.2,91.1-138.7,78.8
	c-41.8-8.1-70.8-33.7-90.7-70.5c-6.4-11.9-13.1-23.7-19.7-35.5c-2.4,0.6-4.9,1.3-7.3,1.9c-29.6,97.3-44.6,197.4-56.3,298.7
	C653.9,1882.5,807.7,1882.5,964.8,1882.5z M1318.5,1882.6c38.8,6.7,452,4.2,474.1-2.4c0.6-4,1.7-8.4,1.7-12.7
	c0.4-61.7,1.1-123.3,0.5-185c-0.1-11.6-3.9-23.8-8.5-34.7c-14.4-33.3-29.5-66.3-45.4-98.9c-7.7-15.7-16.4-31.2-26.9-45.1
	c-14.5-19.4-35.2-25.2-58.9-21c-32.5,5.8-52.7,27.5-64.7,55.7c-9.8,23.1-14.2,48.4-21.5,72.6c-12.5,41-20.8,84-39,122.2
	c-35.1,73.7-93,115.8-179.2,107.5c-10.3-1-20.9-0.1-32.1-0.1C1318.5,1857,1318.5,1869,1318.5,1882.6z M1797,1410.2
	c-73.4-7.1-452.8-2.3-478.5,5.8c-0.6,6.1-1.8,12.5-1.8,19c0.2,104.6,0.6,209.3,1,313.9c0,7.7,0.8,15.4,1.3,23.1
	c0.8,13.3,7.9,20.6,21.2,19.9c30.7-1.7,61.7-1.5,89.6-17.9c33.2-19.5,53.2-49.7,65.1-84.6c11.6-34.3,17.7-70.4,28.4-105
	c9.4-30.2,19.5-60.8,33.7-89c40.5-80.4,163-90.6,215-4.6c4.6,7.7,10.8,14.4,20.1,26.5C1793.9,1477.2,1795.4,1444.7,1797,1410.2z
	 M2370.2,1884.5c-4.7-59.4-14.7-113.3-39.7-162.6c-14.2-27.9-32.9-54.5-53.7-77.9c-23.5-26.4-56.1-37.7-92-36.5
	c-29.4,1-34.2,5.4-34.5,34.9c-0.5,71.4-0.6,142.8-0.5,214.1c0,9.4,2,18.7,3,28C2225.8,1884.5,2295.7,1884.5,2370.2,1884.5z
	 M1009.1,1408.1c-12.3-0.8-19.9-1.6-27.5-1.6c-109.9-0.4-219.8-0.6-329.7-1.1c-39.8-0.2-38.7,0.1-56,36.2
	c-15,31.1-23.4,59.2,1.1,90.8c15.9,20.5,24.2,46.7,37.9,69.1c11.1,18.2,26.7,32.1,49.9,33.6c29.5,1.9,63.5-7.9,74.2-50.5
	c7.5-29.7,16.1-59.5,28.2-87.6c15.1-35.3,41.4-59.3,82-62.7c42-3.6,81,2.8,113.1,33.6c6.6,6.3,15,10.8,26.9,19
	C1009.1,1457.6,1009.1,1434.3,1009.1,1408.1z M2646.5,2138.7c6.3-70.2-5.3-133.7-15.3-201.1c-71.7,1-141.3-0.7-213.9,2.7
	c-3.2,60.2-7.1,116,0,171.9c2.7,21.6,7.7,24.9,31,25.6c30.8,0.9,61.7,0.7,92.5,0.9C2574.8,2138.8,2608.8,2138.7,2646.5,2138.7z
	 M3423.2,1699.5c-47.5,2.7-85.9,16.3-107,57.5c-20.2,39.4-17.7,82-11.2,125.9c50.5,0,98.2,0,149.4,0
	C3449.6,1820.2,3440.7,1761.4,3423.2,1699.5z M3073.6,1939c4.9,48.7,19.6,85,57.2,108.2c40.8,25.2,103.4,9.5,119.9-30.7
	c10-24.4,12.4-50.7,5.1-77.4C3195.9,1939,3137.2,1939,3073.6,1939z M3029.1,1881.6c-7.6-47.2-0.9-90.2-14-131.8
	c-9.8-31.2-27.7-57.2-49.6-80.7c-4.4-4.7-11.9-6.5-22.2-11.8c1.3,78.1-3.2,151.1,0.6,224.4
	C2972.3,1881.6,2997.2,1881.6,3029.1,1881.6z M2330.8,2555.8c32.2,0.4,56.9-23.9,56.5-55.7c-0.3-30.5-22-52.2-52-52.2
	c-31.3,0-58.6,25.1-59.3,54.5C2275.3,2532.4,2298.8,2555.3,2330.8,2555.8z M2603.7,2201.3c-36.9-9.6-112.3-7.7-132,2.3
	C2517.4,2238.6,2562.9,2238.6,2603.7,2201.3z"/>
<path d="M1263.1,2439.4c0-79.3-0.5-158.6,0.2-237.9c0.5-59.8,4-62.8,64.5-62.6c152,0.3,304,0.7,456.1,1c4.4,0,8.8-0.1,13.2,0.1
	c41.8,1.9,49,9.1,49.2,51.9c0.7,136.6,1.1,273.2,1.8,409.8c0.1,17.6,1,35.2,2.6,52.8c3.2,34.6,27.1,61.7,59.9,69.2
	c47.8,10.9,94.4-15.4,109.6-62.3c3.1-9.4,4.8-19.2,7.6-28.7c3-10.1,8.3-18.9,20.6-17.4c12,1.4,20.6,8.4,22.2,20.9
	c1,7.5,0.6,15.5-0.5,23c-13.2,88.3-115.7,141.8-194.9,99.5c-25.7-13.7-48.8-17.1-77.6-14.9c-57,4.4-114.5,1.7-171.7,1.8
	c-92.5,0.2-185.1,0.7-277.6,0.5c-18.6,0-37.3-2.2-55.9-4c-16.9-1.6-25.3-12.1-26.5-28.4c-1.1-14.3-1.9-28.6-2-42.9
	c-0.2-77.1-0.1-154.2-0.1-231.3C1263.6,2439.4,1263.3,2439.4,1263.1,2439.4z M1793.6,2197.1c-83.8-6.5-450.6-3.5-475.4,4.1
	c0,99.8,0,200.1,0,300.8c3.7-0.7,5.2-0.5,5.6-1c7-11.1,13.6-22.6,20.8-33.5c37.4-56.6,91.7-83.2,157.7-76.4
	c66.5,6.9,118.8,41.9,145.7,104.8c27.1,63.4,14.8,122.7-28.9,175.9c-4.3,5.2-6.8,11.9-11.9,21.2c62.2,0.5,119.8,2.4,180.8-2.3
	c-2.1-15.4-3.9-25.9-4.7-36.6c-0.7-8.5-3.7-19.9,0.5-25.2c13-16.8,10.5-35.3,10.5-53.7c0.4-117.8,0.5-235.6,0.6-353.4
	C1795,2214.2,1794.2,2206.7,1793.6,2197.1z M1533.7,2448.9c-30.9-0.9-58,23.9-59.2,54.1c-1.2,31.4,23.4,56.6,55.4,56.7
	c29.5,0.1,56.6-23.9,58.4-51.8C1590.2,2478.8,1563.3,2449.8,1533.7,2448.9z M1317.9,2604.4c-1.8,0.4-3.6,0.8-5.4,1.2
	c1.2,26.3,2.5,52.6,3.8,81.9c18.7-1,33.1-1.8,52.1-2.8C1349.5,2654.7,1333.7,2629.6,1317.9,2604.4z"/>
<path d="M2097.6,3272.2c0-87-0.1-174,0.1-261c0-11,0.1-22.1,1.8-32.9c2.2-14.7,11.4-23.6,26.5-25.1c7.7-0.8,15.4-0.9,23.1-0.9
	c132.2,0,264.3-0.3,396.5,0.2c28.6,0.1,57.2,2.9,85.8,4.2c43.2,2,52.9,10.7,53.1,53.4c0.3,93.6-0.3,187.2-0.8,280.8
	c-0.2,41.8-2,83.7-1.5,125.5c0.3,21.7-8.4,35.5-27.6,43.9c-7,3.1-13.7,7.2-20.8,10c-129.3,51.5-262.2,89.8-400.2,109.4
	c-29.4,4.2-58.7,9.9-88.2,12.4c-36.2,3-46.4-6-46.7-42.4c-0.9-92.5-0.3-185-0.3-277.5C2098,3272.2,2097.8,3272.2,2097.6,3272.2z
	 M2151.5,3536.7c165.9-22.9,324.3-56.6,476.4-125.3c0-133.3,0-267,0-401.2c-6.2-1.3-10.4-3-14.6-3c-143-0.5-286-0.9-429-1
	c-10.5,0-21,2-32.8,3.1C2151.5,3186,2151.5,3359.4,2151.5,3536.7z"/>
<path d="M1846.6,3274.9c0,87,0,174,0,261c0,9.9,0.1,19.9-1,29.7c-2,16.4-11.9,26-28.4,26.7c-13.1,0.5-26.5,0.3-39.5-1.6
	c-155-23.4-306.5-60.4-452.3-118.7c-59.5-23.8-60.8-24.9-60.9-88.6c-0.2-124.5-0.4-248.9-0.4-373.4c0-40.8,9.3-51.6,50-52.1
	c158.6-1.9,317.1-2.9,475.7-4.2c5.5,0,11,0,16.5,0.5c32.1,2.4,40.5,10.8,40.6,43.3c0.3,92.5,0.1,185,0.1,277.5
	C1846.7,3274.9,1846.7,3274.9,1846.6,3274.9z M1319,3408.7c152.1,67,308.8,106.6,469.5,128.5c2.6-4.6,4.6-6.5,4.6-8.3
	c0.7-165.1,1.2-330.2,1.7-495.3c0-6.5-1-13.1-1.8-19.6c-0.1-0.9-1.3-1.7-2-2.4c-0.8-0.8-1.6-1.5-0.1-0.1c-158.1,0-313.9,0-471.9,0
	C1319,3145.5,1319,3276.1,1319,3408.7z"/>
<path d="M2889.1,2442.7c0-71.6,0-143.1,0-214.7c0-14.3-0.4-28.7,0.3-42.9c1.7-34.9,9.1-42.8,43.8-43.4c51.7-0.9,103.5-0.9,155.2-0.9
	c110.1,0.1,220.2,0.4,330.3,0.8c12.1,0,24.2,0.4,36.3,1.6c34.3,3.3,45.1,15.8,41.4,49.2c-10.2,93.1-26.5,185.2-51.6,275.5
	c-23,82.7-48.5,164.6-83.2,243.4c-10,22.8-23.5,31.6-47.4,31.5c-126.6-0.6-253.2,0-379.9-0.8c-38.6-0.2-43.2-5.2-43.5-45.1
	c-0.7-84.8-0.2-169.6-0.2-254.3C2890.2,2442.7,2889.6,2442.7,2889.1,2442.7z M2947.3,2195.4c-7.6,31.6-6.9,463.9,0.5,490.6
	c9.2,0.4,18.9,1.2,28.7,1.2c98,0.1,196.1,0.1,294.1,0.2c8.8,0,17.6-0.2,26.4-0.2c14,0.1,21.6-6.3,26-20.1c6.7-20.9,16-41,23.8-61.6
	c48.1-127.2,76.6-259.4,98.4-393.2c0.9-5.8-1.3-12.2-1.9-17C3276.1,2195.4,3111.4,2195.4,2947.3,2195.4z"/>
<path d="M2888.9,3124.6c0-41.8-0.7-83.7,0.2-125.5c0.8-37.6,5.9-42.4,42-43c75.9-1.1,151.9-1.9,227.8-2.5c11-0.1,22.2-0.3,32.9,1.7
	c21.7,3.9,33.4,24,25.2,44.6c-4.4,11-11.7,21.2-19.5,30.3c-74.8,86.8-155.2,168.2-241.4,243.8c-4.1,3.6-8.4,7.2-13,10.1
	c-30,18.5-52.7,7.6-53.7-27.3c-1.2-44-0.3-88-0.3-132.1C2889.1,3124.6,2889,3124.6,2888.9,3124.6z M2943.8,3012
	c0,65.4,0,128.2,0,195.1c25.2-11.5,38.6-30.8,55.1-45.8c16.3-14.7,31.5-30.6,46.9-46.3c16.1-16.5,33.1-32.4,47.5-50.3
	c13.7-17.1,37.1-27.3,41-52.8C3070.5,3012,3008.4,3012,2943.8,3012z"/>
<path d="M1059.2,3127.3c0,35.2,0,70.4,0,105.6c0,7.7,0.2,15.4-0.6,23.1c-3.5,32.6-25.5,42.7-53.3,24.3c-6.4-4.2-12.2-9.3-18.1-14.3
	c-84.7-72.3-160.7-153.2-232.3-238.2c-13.3-15.8-28.9-31.8-17.9-55.7c10.9-23.7,32.9-18.8,51.8-18.8c73.7,0,147.3,0.8,221,2
	c37.2,0.6,47.5,10.2,48.6,46.8c1.2,41.7,0.3,83.5,0.3,125.3C1058.8,3127.3,1059,3127.3,1059.2,3127.3z M1005.1,3012.9
	c-44.5-8.2-169.2-5.3-192.6,5.3c31.1,32.2,60.9,64.2,92.1,94.8c31.5,30.9,59.6,65.8,100.5,95.7
	C1005.1,3139.4,1005.1,3077.2,1005.1,3012.9z"/>
<path d="M1380.8,2752.3c24.5,3.6,56,7.8,87.4,13.1c8.4,1.4,17,4.7,24.5,9c53.8,30.4,55.7,83,4.8,118.1
	c-24.2,16.7-50.9,25.1-79.9,28.3c-56.9,6.2-112.2,2.6-163.8-24.6c-11.5-6.1-22.9-13.6-31.7-23c-21.6-23-21.6-47.8-0.1-70.5
	c23.2-24.6,50.2-42.6,85.7-44.3C1329.5,2757.2,1351.4,2754.7,1380.8,2752.3z M1369.8,2888.3c36.4-3.4,71.3-7.2,102.2-26.4
	c12.6-7.8,29.5-15.6,26.7-34c-2.7-17.6-19.7-24.1-34.5-26.7c-38.8-6.7-78-14.7-117.1-14.8c-25.2-0.1-52.1,9.2-75.2,20.5
	c-30.9,15.2-29.7,38.7-0.1,56.8c6.5,3.9,13.7,7.4,21,9C1318.5,2878.3,1344.2,2883.1,1369.8,2888.3z"/>
<path d="M2486.5,2746.3c34,7.6,68.8,12.9,101.9,23.4c26.3,8.3,51,22.6,52.5,56.1c1.5,33.6-14.9,57.1-43.9,71
	c-77.6,37.3-156.6,41.8-234,0.9c-57-30.1-57.3-88.2-1.6-120.8c32.8-19.2,70.3-23.5,107.7-25.9c5.5-0.4,11-0.1,16.5-0.1
	C2485.9,2749.4,2486.2,2747.9,2486.5,2746.3z M2486.6,2891.3c29.3-7.4,59.3-13.6,88.3-22.8c14.5-4.6,29.5-14.8,28.3-32.7
	c-1.2-18.3-16.7-27.3-32-34.6c-3.9-1.9-8.4-2.8-12.7-3.3c-28.3-3.4-56.6-9.3-84.9-9.1c-26,0.2-52.6,5-77.9,11.6
	c-17.4,4.5-38.5,12.5-39.3,34.6c-0.8,23.3,19.3,35,38.1,40C2423.8,2882.8,2454.5,2885.8,2486.6,2891.3z"/>
<path d="M1845.6,826.7c0,87,0,174,0,261c0,6.6,0.2,13.2-0.2,19.8c-2.3,32-7.9,38.3-40.1,39c-57.3,1.1-114.5,1.5-171.8,1.4
	c-107.9-0.1-215.9-0.7-323.8-1.3c-39.3-0.2-43.8-3.7-44-43.7c-0.8-138.8-0.3-277.6-1.4-416.4c-0.2-28.5,14.4-42.6,38.1-50.9
	c74.7-26.1,148.5-56.1,224.8-76.2c83.8-22.1,170.1-35,255.3-51.8c5.4-1.1,10.9-1.6,16.4-1.9c34.1-2.1,46.3,8.5,46.7,43.4
	c0.7,60.6,0.3,121.2,0.3,181.7c0,31.9,0,63.9,0,95.8C1845.8,826.7,1845.7,826.7,1845.6,826.7z M1792.6,560.7
	c-31.1,4.7-58.2,8.5-85.2,12.9c-125.3,20.6-245.2,60.6-363.9,104.4c-24.2,8.9-26.4,12.1-26.5,38.6c-0.6,115.5-1.2,231-1.5,346.5
	c0,9.5,1.8,18.9,3,30.6c159,1.5,315.6,2.8,474.2-0.3C1792.6,914.3,1792.6,739.8,1792.6,560.7z"/>
<path d="M2096.6,825.9c0-83.6,0-167.3,0-250.9c0-11-0.1-22.1,1-33c2.6-26.5,13.8-37.2,40.9-36.3c21.9,0.8,43.9,3.3,65.6,6.9
	c144.8,24.1,285.3,63.5,421.4,118.5c59.1,23.9,59.4,24.9,59.4,90.1c0,122.2-0.1,244.3-0.3,366.5c0,7.7-0.3,15.4-1.4,23
	c-4.4,28.4-11.7,35.8-41.1,35.9c-168.4,0.3-336.8,0.3-505.2-0.2c-32.5-0.1-38.1-6.3-38.5-43.1c-0.9-82.5-0.7-165.1-0.9-247.6
	c0-9.9,0-19.8,0-29.7C2097.1,825.9,2096.8,825.9,2096.6,825.9z M2627.9,1093c1.2-12.5,2.8-21.2,2.8-29.8
	c0.2-115.6,0.4-231.2,0.2-346.8c0-25.8-1.8-27.2-28-37.4c-118.2-45.9-239.1-82.5-363.9-105.6c-27.8-5.1-56-8.1-87.3-12.6
	c0,179.6,0,354.9,0,532.2C2310.6,1093,2467.6,1093,2627.9,1093z"/>
<path d="M3054.3,1146.4c-40.7,0-81.4,0.4-122.1-0.1c-34.9-0.4-42-6-42.6-39.5c-1.5-85.7-1.5-171.5-1.7-257.3
	c0-7.6,1.2-15.5,3.7-22.6c7.2-20.1,26-27.6,44.8-16.9c13.2,7.6,26.2,16.6,37,27.3c67.2,66.5,134,133.4,200.2,200.9
	c14.5,14.8,26,32.7,39,48.9c10.4,12.9,15.4,27.2,7.7,42.8c-7.6,15.4-23.3,15.3-37.4,15.4c-42.9,0.5-85.8,0.2-128.6,0.2
	C3054.3,1145.8,3054.3,1146.1,3054.3,1146.4z M3150.1,1091c-69-72.6-130.8-141.9-204.8-204c-6.5,71.5-4.4,182.9,3.2,204
	C3013,1091,3077.3,1091,3150.1,1091z"/>
<path d="M881.7,1146.6c-41.8,0-83.5-0.1-125.3,0.1c-16.1,0.1-31-2-39.3-18.2c-9-17.6-1.2-31.7,9.8-45.1
	c80.8-99.1,172.4-187.6,268.5-271.6c11.6-10.2,24.1-15,39.3-9.1c17.4,6.7,21,21.3,20.9,37.5c-0.1,86.8,0.2,173.6-1,260.4
	c-0.6,39.5-7.2,44.8-47.6,45.4c-41.7,0.6-83.5,0.1-125.3,0.1C881.7,1146.2,881.7,1146.4,881.7,1146.6z M788.4,1091.1
	c76.7,0,145.4,0,213.3,0c0-69.4,0-136.5,0-203.6c-2.3-0.8-4.6-1.7-7-2.5C922.2,946.3,855,1013.2,788.4,1091.1z"/>
<path d="M1410.2,2853.9c3.6-11.3,5.7-23,10.9-33.1c7.5-14.6,22.2-19.4,32.3-12.4c11.6,8,11.8,24,0.6,37.4
	C1443.6,2858.4,1437.7,2859.7,1410.2,2853.9z"/>
<path d="M1380.7,2801.4c11.8,14.5,5.9,28.9-0.6,42.9c-5.5,11.9-15.5,13.9-27.1,11.5C1350.8,2823,1356.4,2812.2,1380.7,2801.4z"/>
<path d="M1311,2803.7c16,11.2,15.3,23.1,8,35.4c-6.4,10.8-16.5,14.4-28,8.8c-9-4.4-9.1-17.8,0.1-28.3
	C1296.1,2814.1,1302.8,2810.2,1311,2803.7z"/>
<path d="M2542.9,2811.3c14,0.6,24.5,9.6,24.5,21c0,13.2-11.8,25.1-25,25.1c-12.9,0-21-9.1-21.2-23.7
	C2521.2,2818.8,2529,2810.7,2542.9,2811.3z"/>
<path d="M2495,2833.3c-0.8,10.2-2.1,22.8-17.9,23.8c-11.4,0.7-20-14.3-19.7-32.6c0.2-10.8,3-19.2,16.2-19.3
	C2488,2805.3,2495.3,2814.1,2495,2833.3z"/>
<path d="M2427.9,2809.7c0,15.3,0.9,22.9-0.2,30.1c-1.7,10.3-7.1,20.2-18.8,18.2c-7-1.2-17.2-8-18.4-13.8c-1.6-7.9,1.6-19.7,7.3-25.4
	C2403.2,2813.3,2414.4,2813.4,2427.9,2809.7z"/>
</svg>
