<?xml version="1.0" encoding="utf-8"?>
<!-- Generator: Adobe Illustrator 24.3.0, SVG Export Plug-In . SVG Version: 6.00 Build 0)  -->
<svg version="1.1" id="Layer_1" xmlns="http://www.w3.org/2000/svg" xmlns:xlink="http://www.w3.org/1999/xlink" x="0px" y="0px"
	 viewBox="0 0 4000 4000" style="enable-background:new 0 0 4000 4000;" xml:space="preserve">
<path d="M445.1,2206c-4.7-5.1-10.1-11.4-15.9-17.2c-74.7-73.5-109.4-160.8-96.7-266.8c9.1-76.3,24.6-150.1,67.6-214.9
	c17.5-26.3,39.6-49.6,60.1-73.8c7.7-9.1,16.9-16.9,27.7-27.5c-10-7.2-17-12.9-24.7-17.7c-36.8-23-69.6-50.9-99.1-82.5
	c-53.9-57.8-83.3-125.4-83-205.6c0.3-80.1,15.5-156.3,53-227.5c22.6-43,54.8-78.1,92.8-107.8c77.6-60.6,164.9-103.3,256.2-138.4
	c136.8-52.5,278.3-88.5,421.7-117.5c78-15.8,156.2-31.1,234.6-44.4c53.5-9.1,107.5-15.5,161.5-21.1c34.9-3.6,68.1-11.3,100.4-25
	c66.4-28.2,133-55.8,199.5-83.6c7.8-3.2,15.8-5.9,23.5-9.2c44.3-18.9,87.5-18.7,133.4-1.2c88.4,33.6,178.1,63.9,267.8,93.9
	c25.5,8.5,52.6,14.1,79.4,16.5c217.7,19.3,433.5,50.1,646.2,101.3c123.4,29.7,243.5,68.8,353.8,132.8
	c38.6,22.4,75.7,48.7,109.8,77.7c58.8,49.9,91.3,115.5,100,192.3c5,44.7,8.8,89.5,12.5,134.3c9.4,114.4-41.9,200.3-127.9,269.5
	c-7,5.6-14,11.2-23.9,19.1c11.9,8.9,21,15.1,29.4,22c28.1,23.2,57.7,45,83.6,70.5c45.2,44.8,72.8,99.3,79.2,163.5
	c4.3,43.8,8.6,87.6,12.9,131.4c8.6,87.1-19.1,162.3-74.8,228.3c-5.9,7-11.5,14.4-18.8,23.6c7.6,7.5,14,14,20.6,20.2
	c51.2,48.4,79.4,107.9,86.8,177.8c4.8,45.6,11,91.1,15,136.8c1.5,16.9,8.9,27.1,22.3,36.1c24.9,16.7,49.9,33.4,72.8,52.6
	c56,47,84.5,105.9,86.6,181c2.4,87.1-30,156.5-89.5,216.3c-43.3,43.5-93,78.3-146.4,108.3c-149.8,84.2-310.8,139.4-476.6,181.1
	c-141.8,35.7-285.1,65.1-430.4,81.5c-120.9,13.7-242.3,23.5-363.7,33.2c-158.9,12.6-318.2,12.8-477.5,7.7
	c-247.5-7.9-493.6-30.4-737.1-76.9c-182.5-34.8-362-80.9-534.2-151.7c-96.5-39.6-188.6-87.5-269.1-155.2
	c-49.8-41.9-90.9-91.2-108.1-154.3c-25.2-92.9-15.8-181.2,56.5-252.7c25.8-25.5,55.3-47.5,85.1-68.4c15.4-10.8,24-20.8,23.6-40.3
	c-1.1-44.2,5.9-87.6,15.6-130.8c15.2-67.4,45.7-126.5,92.8-177c3.8-4.1,7.5-8.3,11-12.7C443.9,2212.2,443.9,2210,445.1,2206z
	 M397.4,2440.5c-2.9,4.3-5.5,6.4-5.8,8.8c-1.7,13.9-2.6,27.9-4.2,41.9c-9.9,81.5,14.7,151.7,69.6,211.6
	c13.2,14.5,27.7,27.9,42.8,40.6C572,2804,653.2,2850.4,739,2888.8c183.3,82.2,376.1,132.5,572.9,167.9
	c188.4,33.9,378.8,50.7,569.9,56.7c284.6,8.8,567.3-10.1,846.9-66.2c156.4-31.3,310.2-72.1,457.5-134.4
	c87.3-36.9,172.4-78,247.6-136.8c31.2-24.4,59.1-51.8,81.2-84.9c36.1-54.2,35.1-113.3,26.2-176.3c-4.9,3.5-8,4.6-9.1,6.6
	c-31.7,58.6-81.8,99.5-134.2,137.6c-87.1,63.3-184.6,106.6-284.5,145c-143,55-291.5,90.2-441.4,119.6
	c-123.3,24.2-247.3,42.6-373.2,46.2c-4.7,0.1-9.7,1.5-14,0.2c-7.3-2.3-19-5.1-20.1-9.7c-2.8-12.5,9.5-13.7,18.4-15.9
	c8.1-2,16.5-3.3,24.9-4.3c61.3-7.3,122.7-14.1,184-21.7c142.4-17.6,282.9-45.4,421.1-83.9c142-39.6,280.7-87.7,408.2-163.7
	c61.5-36.6,120-77.8,163.2-135.7c51.7-69.2,66.3-144.2,20.6-222.9c-11.2-19.2-25.8-36.7-40.8-53.4c-19.1-21.3-20.3-19.5-44-3.9
	c-43.7,28.8-87.2,58.4-133,83.6c-117.8,65.1-243.8,109.9-373.8,143.9c-194.4,50.9-391.8,84.5-591.7,102.1
	c-188.7,16.6-377.7,19.9-567.1,8.5c-198.6-11.9-395.3-36.2-589.5-80.1c-143.7-32.5-284.8-73.2-420.9-129.8
	c-81.4-33.9-159.4-74.6-231.8-125.5c-9.4-6.6-18-9.9-27.4-0.6c-38,37.8-63.8,81.2-59.5,137c4.6,59,28.2,110,68.9,153.2
	c48.1,51.2,105.5,89.7,166.6,122.9c178.6,97.1,371.3,154.3,568.6,197.5c107.1,23.5,215.1,41.8,324,54.4c8.2,1,17.2,2.3,24,6.4
	c4.2,2.5,7.1,10.7,6.9,16.1c-0.1,3.2-7.7,8.3-12,8.5c-13,0.5-26.3-0.2-39.2-2c-63.1-8.7-126.4-16.2-189-27.4
	c-182-32.4-360.6-78-532.8-146.4c-94.3-37.4-184.8-82.3-267-142.5c-62.4-45.8-112.5-101.5-138.7-176
	C404,2453,400.8,2447.6,397.4,2440.5z M1395.2,719.9c-45.8,9.4-89.2,11.1-106.3,63.3c-12.4,37.8-43.6,57.6-81.6,65.5
	c-18.3,3.8-37,5.6-55.6,7.4c-55.9,5.4-112,8.9-167.6,15.9c-39.5,5-75.8,21.4-107.2,46.1c-13,10.2-25.1,22.9-33.8,36.9
	c-20.2,32.2-14.5,62,17.5,82.7c19.3,12.5,41.7,21,63.7,28.4c25.7,8.7,52.9,12.8,78.5,21.7c24.6,8.5,49.4,18.2,71.5,31.7
	c39.9,24.4,54.4,65.7,38.7,109.6c-7.4,20.7-18.4,42-33.3,57.7c-35.5,37.2-74.6,70.9-111.6,106.6c-20.8,20.1-42.4,40-60,62.8
	c-12.9,16.6-20.5,37.5-29.3,57.1c-5.1,11.2-0.8,20.1,11.4,24.1c6.2,2,12.3,4.5,18.7,6.1c88.8,23.1,177.5,46.3,266.5,69
	c20.9,5.3,22.6,4.4,33.5-15.2c27.7-49.5,67.2-88,114.8-117.2c44.6-27.3,91.2-51.7,137.7-75.8c128.6-66.3,265.4-101.1,410.1-105.9
	c90.8-3,181.6-7.5,272.4-10.7c36.5-1.3,73-2.3,109.5-1.5c114.3,2.5,210.3,47.4,291.5,126.6c51.3,50.1,95.2,105.7,128.2,169.6
	c11.7,22.6,13.8,23.1,37.2,16.5c65.8-18.5,131.6-37.1,197.3-56c26.6-7.6,27.8-10.2,21.8-37.6c-10-46.4-27.4-89.6-57.3-126.8
	c-24-29.9-49.3-58.8-74.1-88.1c-15.7-18.5-33.3-35.8-47.2-55.6c-32.3-46.2-23.8-96.8,20.9-131.4c11.8-9.1,25.1-16.3,37.8-24.2
	c16.6-10.5,34.2-19.7,49.9-31.4c43.7-33,51.8-89.7,20.3-134.7c-14.3-20.5-33.8-34.8-55.7-46.2c-33.6-17.5-69.5-29.1-106.8-33.2
	c-89.2-9.9-178.7-17.6-268.1-26c-1.4-0.1-3,1.8-7.5,4.7c0,8.1,0,18.2,0,28.3c-0.2,36.5-0.3,73.1-0.6,109.6
	c-0.2,23.3-9.3,40.2-31.6,51.6c-125.1,63.9-249.9,128.5-374.3,193.7c-25.1,13.2-48.6,15.1-75.1,4.6
	c-51.3-20.4-103.3-39.1-155.1-58.3c-122-45.2-244.2-90.3-366.2-135.6c-40.2-14.9-42-17.2-42.5-61.5c-0.7-64.6-0.6-129.3-0.8-193.9
	C1395.2,741.6,1395.2,732.5,1395.2,719.9z M1214.8,1858.7c-1.6,10-2.9,16.3-3.4,22.5c-1.6,21.4-1.7,43.1-4.6,64.3
	c-7.1,52.2-35.3,88.4-86.6,103.1c-36.7,10.5-65.7,28.9-87.2,61.2c-19,28.5-48.3,39.9-82.4,40.1c-45.9,0.3-86.6-13.9-122.2-42.4
	c-48.8-39.2-56.7-99.8-18.5-149.5c11.8-15.4,26.6-29.3,42.5-40.4c35.8-25.1,49.5-58.8,47.9-101.5c-1.3-33-1.8-34.5-33.7-44.9
	c-103.3-33.7-206.2-68.7-301-123.1c-12.5-7.2-22.9-7-33.5,1.6c-35.7,29.3-68.4,61.3-88.8,103.7c-16.4,34.2-19.6,69.6-11.2,106.7
	c14.6,64.7,54.5,111.9,103.8,152.6c67,55.4,142.2,97.2,222.2,130.2c173.7,71.8,353.9,121.4,538.1,158.1
	c193.5,38.6,388.7,59.6,585.6,65.4c255.4,7.6,509.2-9.4,760.7-56c63.5-11.7,126.3-27.2,189.1-42c26.8-6.3,28.7-11.8,18-37.4
	c-10.6-25.2-28.2-44.1-52.3-56.6c-18.3-9.5-36.9-18.2-55.5-27.1c-40.8-19.5-67.6-49.6-72.3-96.2c-1.3-13-3.1-26.1-2.7-39.1
	c1.4-45.9,3.7-91.7,5.3-137.5c0.3-9.7-0.8-19.4-1.4-30.3C2184.3,1941.9,1700.5,1944.1,1214.8,1858.7z M1208.2,1794.8
	c323.8,59.4,648.2,76,974.6,54.5c166-10.9,330.3-35,493.8-71.9c-2.5-24-4-44.5-6.8-64.7c-2.8-20.1-6.9-40-10.9-62.5
	c-16.6,1.9-30.5,2.5-43.9,5.3c-95.2,19.8-191.9,31.2-287.3,49.8c-43,8.4-87.4,9.7-131.2,14c-4.6,0.4-10.2,1-13.6-1.2
	c-4.2-2.7-8.8-8-9.1-12.5c-0.4-4.4,3.2-11.2,7.1-13.4c5.3-3.1,12.4-3.4,18.8-3.9c14.8-1.2,29.6-1.9,44.3-2.8
	c0.1-40,22.8-66,54.8-62.8c-1.6,26.6-26.5,38.4-40.6,60c18.8,2.9,29.7-3.4,37.9-16.2c7-11,13.4-22.6,21.3-33
	c6-7.9,13.3-16.1,29.3-7.8c-9.5,16.2-18.5,31.5-27.5,46.8c2.1,1.5,4.2,3,6.3,4.5c8.7-9.2,17.8-18.1,26-27.7
	c8.8-10.3,15.4-23.8,32-17.6c8.9,20.3-12.8,30.9-12.8,50.1c7.3-2.3,13.7-2.5,17-5.7c17.2-17,39.3-20.3,61.6-24.2
	c55.3-9.7,110.6-19.9,165.8-30.2c7.8-1.5,15.4-4.5,26.1-7.8c-5.4-11.1-8.5-19.8-13.5-27.3c-18.7-28-36.3-57-57.3-83.2
	c-52.9-65.9-115.1-120.6-196.2-149.8c-61.8-22.3-126.1-26.6-191.1-24.4c-93.6,3.2-187.2,6.7-280.8,10.1
	c-61.8,2.3-123.4,6.6-184.2,18.9c-130.3,26.5-247.5,84.5-360.7,151.7c-37.3,22.2-70.5,49.5-97.7,83.6c-7.2,9-12.3,19.5-19.5,31.2
	c8.3,2.5,12.5,4.3,16.9,5.1c47.1,8.1,94.2,16,141.2,24.1c16.6,2.8,33.3,5.5,49.7,9.2c14.6,3.3,19.8,12.7,13.9,30
	c-12.3-0.9-25.2-1-37.8-3c-56.4-8.9-112.7-18.4-169.1-27.5c-9.9-1.6-19.9-2-31.9-3.2C1212,1704.3,1208.4,1747.4,1208.2,1794.8z
	 M332.5,2624.4c-35.2,18.3-63.7,42.1-88.5,70.4c-50.7,58.1-52.4,108.1-5.6,169.4c35.9,47,82,82,132.7,111.1
	c149.4,85.8,311.9,136.3,478.1,176.1c158.7,38,319.8,62.8,481.9,80.5c357.7,39,716.1,43.1,1074.8,18.2
	c222.7-15.5,443.7-44,661.1-95.7c120.3-28.6,239.6-61.1,353.5-110.5c73.2-31.7,144.7-66.4,209.2-114.2
	c32.6-24.2,62.3-51.1,84.3-85.5c26.4-41.3,26.7-82.6,0.1-123.9c-19-29.5-43-54.3-71.5-74.6c-9.6-6.8-19.5-13.2-31.1-21
	c-3.3,7.6-5.8,11.5-6.7,15.7c-9.5,43.1-30.7,80-58.6,113.7c-47.3,57.3-106.4,99.6-170.5,135.8c-116.4,65.7-240.3,113.8-368,151.9
	c-308.4,91.8-624.8,129.8-945.6,135.2c-162.2,2.8-324-7.7-485.4-22.4c-230.4-21-455.9-66.3-676-137.3
	c-136-43.8-266.8-99.6-384.6-182.1c-75.4-52.8-141.8-113.8-176.5-202.3C338.7,2630.6,336.2,2628.7,332.5,2624.4z M2850.4,2301.2
	c-18.7,3.9-34.2,6.8-49.5,10.4c-211.2,50-425.6,77.2-642.1,87.3c-155.5,7.2-310.9,2.8-466.1-9.2c-157.1-12.1-313-33-466.7-68
	c-142.5-32.4-284.1-68.8-420-123.6c-94-37.9-186.2-79.3-267.2-141.8c-55.6-42.9-104.4-91.2-129.8-158.8c-1.4-3.8-4.5-7.1-6.8-10.6
	c-1.9,0.2-3.8,0.4-5.7,0.5c-2,23.7-4.8,47.4-5.8,71.1c-2.5,57.8,14.8,110.1,53.2,152.7c29.9,33.2,62.6,64.8,98,91.9
	c77.9,59.6,166.9,100.2,257.7,135.9c160,63,325.8,105.9,494.7,137.1c194.8,35.9,391.2,55.9,589.2,60.6c222.5,5.2,444-6.9,663.8-42
	c96.1-15.3,191.4-36,286.9-54.6c11.3-2.2,22.1-7.1,35.7-11.6C2840.3,2388.8,2854.3,2346,2850.4,2301.2z M2353.7,737.1
	c0.1-2.4,0.1-4.7,0.2-7.1c-10.9-4.8-21.7-10.1-32.8-14.3c-36.8-13.8-73.7-27.5-110.7-40.6c-90.9-32.2-182.1-63.6-272.8-96.3
	c-32.5-11.7-62.3-11.8-94.9,2.2c-106.6,46-214.2,89.6-321.3,134.4c-7.1,3-13.4,7.7-23.9,13.9c9.4,5.1,13.9,8.1,18.9,10.1
	c33.9,13.6,67.7,27.4,101.8,40.2c103.4,38.8,207.1,77.1,310.5,116c10.3,3.9,19.9,10.2,28.9,16.7c2.7,1.9,4.4,9,2.9,12.1
	c-1.4,3-7.4,5.7-11.3,5.5c-7.4-0.3-14.9-2-22-4.3c-22.2-7.4-44.2-15.3-66.2-23.2c-131.3-47.1-262.5-94.3-393.9-141.3
	c-2.3-0.8-5.3,0.4-11.2,1.1c0,10.3,0,20.4,0,30.5c0.1,41.2,0.3,82.4,0.1,123.6c-0.2,31.4-0.4,31.5,28.5,42.3
	c157.8,59.1,315.7,118.2,473.6,177.1c5.8,2.1,12.2,2.5,21,4.3c0.5-11.3,1.2-20.4,1.3-29.6c0.5-43.1,0.7-86.2,1.3-129.2
	c0.2-11-0.9-25.3,14.9-25.4c17.3-0.1,13.1,15,13.2,25.4c0.1,41.2-0.6,82.4-0.6,123.6c0,10.8,1.2,21.6,1.9,34.7
	c7.8-2.7,12.3-3.6,16.1-5.6c112-58.6,223.9-117.4,336-175.8c13.5-7,18.6-16.5,18.4-31.3c-0.5-47.8,0-95.5-0.3-143.3
	c0-5.8-2.4-11.7-4-19.2c-7.5,3.1-12.7,4.8-17.5,7.2c-60.4,30-120.6,60.2-181.1,90c-32.8,16.1-65.8,31.7-99,46.9
	c-11.3,5.2-23.2,12.7-40.4,1.8c6.5-7.7,11.1-15.6,17.8-20.3c11.4-8.1,23.9-14.8,36.4-21c59.5-29.6,119.3-58.7,178.8-88.4
	C2299.7,766.5,2326.5,751.6,2353.7,737.1z M2444.3,761c6.4,1.5,12.6,3.8,18.9,4.4c27.1,2.3,54.2,3.8,81.2,6.2
	c56.9,5.1,114,8.4,170.4,16.6c57.8,8.3,113.2,25.7,161.1,61.5c85.6,64.1,83.3,182.5-5.2,242.8c-14.7,10-30.6,18.2-45.7,27.6
	c-11.1,6.9-22.6,13.6-32.5,22c-21.8,18.4-25.6,38-11,62.3c8.6,14.3,19.7,27.3,30.7,40c21.5,24.7,44.6,48.1,65.7,73.2
	c44.5,53,79,111.4,92.3,180.6c1.2,6.1,4.3,11.8,7.9,21.3c31-12.1,60.6-23,89.8-35.1c85.9-35.7,167.9-78.6,242.8-134.2
	c38.6-28.6,73.6-61,101.5-100.4c49.8-70.3,51.2-147.6,0-216.7c-19.8-26.7-44.9-50.3-70.8-71.5c-50.4-41.2-108.7-69.5-168.9-93.7
	c-101.1-40.6-205.8-69.2-312.1-92.2c-130.1-28-261-50.8-393.2-66.1c-10.7-1.2-21.6-1.4-34.5-2.2
	C2437.2,727.3,2440.6,743.5,2444.3,761z M1254.3,743.9c-9.6,1-18.6,1.3-27.4,2.9c-170,29.7-338.1,67-500.3,127.1
	c-87.3,32.3-171.4,70.9-246.2,127.2c-30.9,23.2-58.2,50.1-79.8,82.4c-17.4,26-24.3,54.3-18.7,85.5c6.1,34.6,18.5,66.5,37.6,96.1
	c31.1,48.5,75.7,82.6,121.9,114.9c84.4,59,178.5,98.4,274.4,133.9c5,1.9,10.5,2.2,17.3,3.6c3.2-7.9,6.5-14.4,8.6-21.3
	c12.3-40.4,34.2-74.9,64.2-104.2c18.7-18.3,38.6-35.4,58.2-52.9c23.7-21.2,48.7-41.2,71.1-63.6c13.7-13.7,26-29.9,34.7-47.1
	c16.2-31.8,6.9-62-24.3-79.2c-18.7-10.3-39.4-17.3-59.9-23.6c-23.2-7.1-47.8-10.2-70.7-18c-26.4-9-53.5-18.4-77.1-32.7
	c-43-26.2-56.6-72.6-39.7-119.8c8.4-23.4,21.7-43.5,39.8-60.4c25.1-23.4,54.4-39.4,86.6-50.8c49.1-17.3,100.1-23.1,151.6-27.1
	c40.1-3.1,80.3-6.4,120.2-11.8C1232.6,799.8,1249.3,781.5,1254.3,743.9z M3087.4,2188.2c16.8-6.4,32.5-11.9,47.7-18.4
	c95.4-40.1,186.2-88,265.1-156.1c29.9-25.8,57.2-54,78-87.9c41.1-67,38.7-132.7-5.9-197.3C3438,1679,3391,1644,3340.9,1612
	c-15.2-9.7-26.2-8.7-41-0.5c-40.8,22.8-81.2,47.2-124,65.5c-74.8,32-151.1,60.4-227.3,89c-16.1,6.1-25.5,13.2-25.2,31.5
	c0.3,13-1.5,26.2-3,39.2c-8.5,73.8,10.4,135.5,70,185.1c45.5,37.8,73.8,89,88.9,146.7C3081,2174.5,3084.1,2180.1,3087.4,2188.2z
	 M3635.8,2995.9c-20.8,12.6-41.2,25.9-62.4,37.7c-92.8,52-191.9,88.9-293,120.5c-224.4,70.3-455.4,107.4-688.3,134.3
	c-196.6,22.7-394.1,31.6-591.9,29.5c-149.8-1.6-299.7-5-449.3-13.2c-106.5-5.8-212.5-20.1-318.6-32.1
	c-199.6-22.6-395.7-63.1-587.4-123.5c-101.1-31.8-199.7-70.2-292.1-122.8c-21.6-12.3-42.2-26.5-63.2-39.8c24.8,32.8,57.9,55,92,75.8
	c104.7,63.7,217.6,109.3,333.5,146.8c136.5,44.1,276.1,76.1,417.5,100.4c200.6,34.4,402.7,54.5,605.9,63.7
	c231.5,10.4,462.6,4.9,693.4-15.4c197.1-17.4,392.5-45.4,585.1-91.3c173.7-41.4,342.4-96.4,499.8-182.7
	C3560.5,3059.8,3600.6,3031.3,3635.8,2995.9z M2901,2248.9c44.1-13.2,87-26.1,129.8-39c13.4-4,14.3-14,10.4-24.6
	c-7.4-20.1-14.8-40.4-24.3-59.7c-18.1-36.7-46.6-65.3-76.2-92.8c-35.6-33.2-57.6-73.4-62.1-122.3c-6.8-73.7,3.8-145.6,22.5-216.6
	c7.6-29,15.5-57.9,22.7-86.9c2.4-9.6,3.2-19.6,5.3-33.4c-79.3,22.1-154.2,43-229.7,64c0.6,8,0.2,13.7,1.6,18.9
	c16.9,60.5,16.3,122.2,13.7,184.1c-2.4,56.1-4.7,112.3-6.6,168.4c-0.4,12.1,0.4,24.4,2,36.4c3.3,24.7,15.2,43.9,38.3,55.2
	c16.8,8.2,33.4,16.8,50.5,24.5c49.7,22.4,85.6,56.6,96.8,112.2C2896.1,2239.8,2897.8,2242.2,2901,2248.9z M872.7,1567.5
	c0.9,10.4-0.2,20.8,2.8,29.9c12.3,37.2,24,74.8,39.6,110.7c17.1,39.3,27.5,79.3,28.9,122c1.4,43.8-13.5,80.6-46.8,109.6
	c-14.1,12.3-28.7,24.1-42.3,37c-34.8,33.1-32.5,70.3,5.9,99.4c25.5,19.3,54.4,27.7,86.4,28.5c24.5,0.6,45-6.7,58.1-27.2
	c23.5-36.8,57-58.2,97.9-70.4c41.1-12.2,61.5-40.2,61.8-83.1c0.3-36.5,1.6-73,1.2-109.4c-0.6-49.8,1.6-99.1,13.5-147.7
	c1.4-5.9,0.2-12.5,0.2-18C1077.8,1621.7,976.8,1595,872.7,1567.5z M350.9,1207.7c-8.5,39.9-8.9,75.3-6.9,110.6
	c2.9,51.2,22.1,96.1,56.2,134.6c40.1,45.2,86.9,82.2,138.8,112.9c94.7,56,195.9,97.3,299.5,133.2c7.5,2.6,15.6,3.1,26.2,5
	c-1.5-8-1.5-12.6-3.2-16.5c-17.2-37.8-29.1-76.9-29.6-118.9c-0.2-13.9-9.2-18.4-20.8-22.5c-29.1-10.3-58.1-20.9-86.5-32.9
	c-83.8-35.4-165.2-75.2-237.2-132c-53.6-42.3-99.2-91.1-125.4-155.5C360,1220.9,356.5,1216.7,350.9,1207.7z M3460,1243.3
	c-3,1.5-5,2-6.2,3.2c-2.5,2.8-4.8,5.8-6.7,9c-30.9,52.8-74.8,93.2-123.8,128.2c-99.7,71.2-209.3,123.2-324.8,163
	c-17.6,6.1-25.2,14.8-28.2,32.8c-5.2,31.3-13.3,62.1-20,93.1c-1.8,8.6-2.9,17.4-4.9,29.8c13.4-3.2,22.6-4.5,31.1-7.5
	c106-37.8,208.2-83.6,304.6-142c44.2-26.8,84.3-58.7,120.5-95.7c56.1-57.4,72.5-126.7,62-204.1
	C3463.2,1249.7,3461.3,1246.6,3460,1243.3z M3082.1,2363.5c14.3-5,24.2-7.6,33.5-11.8c41.7-18.8,83.7-37.3,124.8-57.4
	c70.9-34.7,136-78.6,194.9-131.2c56.8-50.7,86.7-113.9,83.7-191.1c-0.4-9.7,0.7-20-9.6-29.3c-15.8,19.5-29.6,38.2-45.2,55.3
	c-45.7,50.3-98.7,92.1-158.3,124c-62.5,33.4-127.4,62.5-191.6,92.8c-12.3,5.8-24.2,9.2-21.9,27c4.4,33.8,0.6,67.1-8.1,100
	C3082.9,2347.2,3083.1,2352.7,3082.1,2363.5z M3047.3,2239.9c-48.9,15.6-94,29.6-138.7,44.9c-5.3,1.8-11,10.9-11.4,17
	c-1.6,24.1-2.1,48.5-1,72.6c0.8,17.5,8.5,26.2,26.1,27.2c19.3,1.1,39.1-0.6,58.1-3.9c16.8-2.9,31.3-12.7,40.4-27.9
	C3043.3,2331.9,3052.4,2291,3047.3,2239.9z"/>
<path d="M2375.1,2730.2c0.5,50.4-37.3,88.3-88.3,88.7c-53.2,0.4-92.7-38.5-92.8-91.3c-0.1-48.6,39.4-87,90.4-88
	C2334.5,2638.6,2374.5,2678.7,2375.1,2730.2z"/>
<path d="M1677.3,2820.3c-47-0.3-87.4-43.4-86.3-92c1.1-46.7,45.2-88.3,92.5-87.2c49.5,1.1,87.4,40.8,86.8,91.1
	C1769.7,2782.7,1729.6,2820.7,1677.3,2820.3z"/>
<path d="M1981.4,2885.4c-55.6-0.4-95.2-30.6-103.5-79.7c-1.2-7.1-1.7-15.6,1.3-21.6c2.8-5.7,10.5-11.8,16.4-12.2
	c5.3-0.3,12.1,6,16.5,10.9c3.4,3.9,4,10.3,6.1,15.5c15.8,38.3,50.1,53.7,89.3,40c16-5.6,26.6-16.9,32.8-32.5
	c3.4-8.7,5.3-18.4,10.5-25.8c3.6-5.1,12.2-10.7,17.4-9.7c6.8,1.3,17,8.4,17.6,13.8c1.3,12.5,0.1,26.4-4.5,38
	C2064.9,2863.1,2027.8,2885.7,1981.4,2885.4z"/>
<path d="M2430.3,2906.9c8.8-26.8,25-47.3,48-62.2c4.3-2.8,14-2.7,17.3,0.3c3.2,2.9,3.8,13.1,1.1,17.1c-9.9,14.6-20.8,28.7-33,41.4
	C2455.7,2912,2444.4,2914,2430.3,2906.9z"/>
<path d="M1600.6,2832.6c-14.5,29.6-29.8,51.1-47.7,70.5c-3.3,3.6-13.7,2.7-19.9,0.8c-3-0.9-6.7-10.5-5.1-13.6
	c12.1-23,26.6-44.5,50.1-57.5C1581.9,2830.7,1588.1,2832.6,1600.6,2832.6z"/>
<path d="M2445.8,2827.8c0,10,2.7,18.6-0.5,23c-12.7,18-26.8,35.2-41.4,51.7c-5.5,6.2-15.6,10.3-21.7,1.9c-3-4.1-1.5-14.9,2.1-19.7
	c12.7-16.9,26.8-33,41.3-48.4C2429.4,2832.2,2436.7,2831.5,2445.8,2827.8z"/>
<path d="M1537.8,2831.6c-2.1,7.5-2.2,16.7-6.6,22.3c-11.5,14.6-24.3,28.4-38.1,40.8c-3.8,3.4-13.1,0.7-19.9,0.8
	c0.7-6-0.7-13.6,2.4-17.6c12.1-15.3,25.3-29.9,39.1-43.8c4-4,11.2-4.8,16.9-7.1C1533.7,2828.5,1535.8,2830.1,1537.8,2831.6z"/>
<path d="M1581.2,2909.9c3.6-31.5,21.9-47.9,37.5-65.5c2.6-2.9,13-2.4,16.8,0.5c3.8,2.9,6.9,12.7,4.8,16.2
	C1627.4,2882.4,1612.8,2902.5,1581.2,2909.9z"/>
<path d="M2337.3,2897.8c-7.4,0.2-14.4-9-10.4-15.9c11.7-20.3,25.8-39,47.4-49.8c3.1-1.6,9-0.1,12.3,2.1c2,1.3,3.2,8,1.7,9.8
	c-14.9,17.7-30.3,34.9-45.8,52.1C2341.4,2897.2,2339.1,2897.3,2337.3,2897.8z"/>
<path d="M2269.3,1994.9c49.1-0.3,89.3,39.5,89.6,88.8c0.3,47.9-39.5,85-92.2,86c-48.5,0.9-87.6-37.6-87.8-86.6
	C2178.6,2035,2219.4,1995.2,2269.3,1994.9z"/>
<path d="M1653.8,2170.4c-47.5,3.2-88-51.3-87.3-86c1-50.9,40.9-90.5,91.8-90.4c50.6,0.1,87.1,38,86.7,90.1
	C1744.7,2133.5,1705.4,2170.7,1653.8,2170.4z"/>
<path d="M1967.1,2235.2c-23.7-0.7-46.4-4.7-66.9-17.7c-28.4-18-41.2-44.8-44.1-77.3c-1.1-11.6,3.1-20.4,15.4-23
	c12.7-2.6,19,4.8,22.8,15.6c0.9,2.6,1.4,5.4,2.3,8.1c13.5,43,48.1,61.8,91.3,49.4c21.2-6.1,36.2-18.9,42.1-40.9
	c1.7-6.3,3.2-12.7,5-19c2.9-10.1,8.9-16.7,20.3-14.8c10.2,1.7,17.2,7.9,18.5,18.3c0.8,6.3,0.2,13.1-1.1,19.4
	C2062.3,2203.7,2020.2,2236.3,1967.1,2235.2z"/>
<path d="M1571.9,2180.1c-12,35.6-32.9,57.6-55.1,78.2c-6.9,6.5-17.5,0.1-17.4-9.6c0.1-4.5,1.2-9.5,3.5-13.2
	c13-20.5,27.4-39.9,49.3-51.9C1555.8,2181.6,1560.7,2182,1571.9,2180.1z"/>
<path d="M2435.4,2182.2c-14.8,30.7-29.5,54.7-50.5,74.3c-3.1,2.8-11.4,3.4-15.1,1.2c-3.4-2-6.8-10.6-5.2-13.6
	c13.3-24.3,26.8-48.9,53.4-61.7C2420.8,2181,2424.8,2182.2,2435.4,2182.2z"/>
<path d="M1513.2,2183.8c-5.2,9.3-8.4,17.7-13.8,24.2c-10.7,12.8-22.1,25.2-34.5,36.4c-3.7,3.3-11.7,3.1-17.4,2.2
	c-1.9-0.3-4.2-8-3.7-12c2.2-17.8,36.8-52.1,55.1-54.7C1502.1,2179.5,1505.7,2181.7,1513.2,2183.8z"/>
<path d="M2372.1,2190.3c-2.7,5.3-4.5,10.8-7.8,15c-10.5,13-21,26-32.7,37.8c-3.6,3.7-11.1,3.5-16.8,5.1c-1.5-6.5-6.4-15.6-3.8-19.1
	c12.5-16.9,26.6-32.7,41.1-47.9c2.5-2.7,10.2-1.7,15-0.4C2369.4,2181.4,2370.3,2186.8,2372.1,2190.3z"/>
<path d="M1566.6,2261.2c-2.4-5.7-8.5-14.2-6.5-16.9c12.4-17,26.3-33.1,40.7-48.6c1.9-2,10.7,0.3,14.5,3.2c2.6,1.9,4.2,10,2.5,12.2
	c-12.5,15.9-26,31-39.4,46.2C1576.8,2259.1,1573.2,2259.1,1566.6,2261.2z"/>
<path d="M2418.9,2250.7c16.4-25.6,27.9-50.2,56.9-61.8c13.2,25.2-6.6,36.3-16.5,50.2C2451.2,2250.4,2441.1,2260.7,2418.9,2250.7z"/>
<path d="M2205.2,1613.2c-42.2-0.6-73.6-32.9-73.7-75.9c-0.1-39.9,35.5-73.3,77.2-72.6c39.3,0.7,73.1,35.6,72.4,74.7
	C2280.4,1581.2,2246.9,1613.7,2205.2,1613.2z"/>
<path d="M1772.9,1537.9c0,41.1-33.8,73.2-76.6,72.8c-36.5-0.3-69.7-34.5-69-71.1c0.8-41.2,34.9-74.5,76-74.1
	C1743.3,1465.9,1772.9,1496.7,1772.9,1537.9z"/>
<path d="M1952.8,1668.6c-38.4-5.5-68.9-18.7-85-54.4c-4.1-9.1-5.5-19.7-6.6-29.8c-1-8.9,2.3-16.7,12.3-19.3
	c10.1-2.7,16,2.6,19.8,11.1c2.7,5.9,4.9,12.1,7.1,18.3c7.9,22.7,25.1,31.3,47.7,31.4c22.9,0,42.6-6.2,52.9-29.1
	c2.7-6,4.6-12.2,7-18.3c3.8-9.5,9.9-16.4,21.1-14.1c12.9,2.7,15.2,13.3,14,23.9c-3.2,26.4-15.5,48.8-38.6,61.8
	C1988.7,1659,1970.1,1662.7,1952.8,1668.6z"/>
<path d="M1575,1619c-6.5,25.9-20.3,42.4-35.8,56.7c-4,3.7-16.1,2.2-22.2-1.1c-3-1.7-3.6-15.2-0.3-19.4
	C1530.5,1637.7,1542.7,1615.9,1575,1619z"/>
<path d="M1557.1,1678.7c16.1-27.1,27.1-53.9,63.5-60.2c2.5,26.8-16.2,40-28.9,55.5C1583,1684.7,1581.3,1683.8,1557.1,1678.7z"/>
<path d="M1665.6,1641.5c-9.2,19.2-19.9,35.2-38.7,43.8c-2.8,1.3-8.7,0.8-10.1-1.1c-2.3-3.1-4.3-9.6-2.7-12.1
	c8.6-13,17.7-26,28.3-37.4c3-3.3,11.8-2.1,17.8-1.3C1662.4,1633.7,1663.9,1638.8,1665.6,1641.5z"/>
</svg>
