<?xml version="1.0" encoding="utf-8"?>
<!-- Generator: Adobe Illustrator 24.3.0, SVG Export Plug-In . SVG Version: 6.00 Build 0)  -->
<svg version="1.1" id="Layer_1" xmlns="http://www.w3.org/2000/svg" xmlns:xlink="http://www.w3.org/1999/xlink" x="0px" y="0px"
	 viewBox="0 0 4000 4000" style="enable-background:new 0 0 4000 4000;" xml:space="preserve">
<path d="M1968,369.6c359.7,5.8,685,82,986.7,249.5c193.4,107.4,360.2,246.5,491.1,425.9c146.2,200.4,236.9,423.5,271.3,669.8
	c14.8,106,21.9,212,17.4,318.7c-15.2,355.5-132.4,671.7-365.2,943.1c-177.3,206.7-396.6,353.9-647.8,454.9
	c-269.7,108.5-550.5,154.6-840.7,138.3c-262.4-14.7-515-72.1-752.3-187.7c-297-144.7-541.6-349.3-713.3-634.9
	c-106.3-176.8-173.3-367.8-200.5-572.7c-29.7-224.2-9.6-444.5,54.9-660.4c52.6-176.1,139-335.3,253.8-479.1
	c194.9-244,444.2-412.2,732-526.6c168-66.8,342.9-107,522.3-127C1846.1,373.8,1915.2,372.7,1968,369.6z M1887.5,3239.4
	c153.9-0.5,320.6-20.5,487.6-60.9c275.8-66.7,522.3-192.4,743-370.3c214-172.5,372.9-385.2,469.9-642.7
	c57.9-153.9,83.6-312.8,58.8-477.1c-17.3-114.2-49.7-224.4-95-330.5c-105.3-247.1-272.5-444-491.8-597
	c-242.3-169.1-514-265.5-804.6-305.3c-348.7-47.8-688.1-5.7-1014.2,130.2C1031.4,673.3,843,793.2,683.4,956.3
	c-145.8,149-261.7,317.2-331.8,515.1c-69.3,195.7-96.5,394.6-56.2,601.1c44.6,228.8,139.7,432.8,291.7,609.1
	c119.3,138.4,262.2,248.8,421.9,336.6C1282.4,3168.3,1576.9,3236.4,1887.5,3239.4z M298.9,2262.4c1.2,11.4,1.4,15.3,2,19.1
	c11.2,64.1,31.9,125.3,54.1,186.2c97,265.5,260.9,482.6,481.7,656.1c249.5,196,534.6,312.2,847.7,359.5
	c208.3,31.4,416.5,30.4,624.5-4.8c309.3-52.4,589.6-170.2,831.8-371.5c297.9-247.6,474.1-562.8,517.5-949.7
	c3.8-34.1,5.1-68.5,7.6-102.8c-11.6,16.1-17.8,32.6-22.8,49.6c-51.4,174.7-135.7,332.5-246.7,476
	c-130.8,169.1-292.6,303.8-474.6,414.3c-202.2,122.7-421.1,201.9-653.5,246.1c-242.1,46-483.9,48-726.2,4
	c-316.3-57.4-599.7-185-843.1-397.2c-145.4-126.8-259.9-276.9-340.1-452.7C339.8,2353,321,2311.1,298.9,2262.4z"/>
<path d="M651,2059.7c-2-34.3-2.5-68.8-6.5-102.9c-6.5-54.8-31.2-101.3-70.5-140c-19.4-19-39.9-36.9-59.1-56.1
	c-83.9-84-88.4-188.2-8.8-276.6c27.7-30.7,60.4-58.2,94.9-81.1c78.9-52.5,134.2-120.3,161.5-212.1c10.6-35.6,27.1-70.4,46.4-102.2
	c33.4-55.2,83.4-93.1,142.6-118.1c98.2-41.4,198.9-54.6,302.7-22.9c108.5,33.2,154.3,142.8,100.5,242.9
	c-14.8,27.4-32.8,53.5-52.1,78c-49.3,62.7-65.1,132.5-45.7,209.3c11.8,46.5,26.2,92.3,41.3,137.9c21.3,64.5,43.3,128.7,50.9,196.7
	c22.6,201.9-83.3,411.3-258.9,506.4c-86.5,46.9-178.8,64.7-275.4,35.5c-89.1-26.9-143.4-87.5-159.4-179.2
	c-6.6-37.8-6.6-76.7-9.5-115.1C647.6,2059.9,649.3,2059.8,651,2059.7z M692.8,2050.2c2.1,35.4,1.1,71.3,6.9,106.1
	c13.2,80.4,58.4,135.6,139,156.1c25.9,6.6,54,8.8,80.7,7c85.1-5.7,160.5-38,223.9-94.9c151.2-135.9,194.3-304.5,142.8-498.1
	c-20.4-76.6-49.3-150.9-71.6-227c-26.7-91-11.4-175.7,45.3-252.5c16.7-22.7,33.9-45.2,49.1-68.9c16.5-26,26.8-54.4,22.4-86.2
	c-7.3-53.4-46.5-93.7-106-105.3c-87.6-17.1-172.8-7.8-254.2,29.7c-76.7,35.4-130.9,92.1-159.4,172.3c-5.9,16.7-12.5,33.3-18.3,50.1
	c-24.6,71.3-67.7,129.1-127.7,174.4c-16.7,12.6-34.5,23.7-50.6,37c-25.7,21.2-52.7,41.6-75.2,66c-60,65.2-58,140.1,3.2,204.1
	c21,21.9,43.3,42.4,64.3,64.2c34.6,36,59.2,77.9,73.9,125.8C695.4,1956.1,695.5,2003,692.8,2050.2z"/>
<path d="M1602.1,1441.2c-45.6,69.3-73.5,142.4-67.5,227.4c24-26.7,46-55.5,72.5-79.4c26.1-23.6,55.2-45.1,85.8-62.5
	c31.6-17.9,65.8-32.1,100.4-43.4c34.6-11.3,70.6-19.9,106.6-24.4c35-4.4,71-4.7,106.3-2.3c36.3,2.4,72.9,7.4,108.1,16.3
	c35.2,8.9,70.2,21.3,102.8,37.3c31.6,15.4,62.6,34.4,89.4,57.1c27.4,23.1,49.5,52.6,78,83.9c0-11.8,0.8-19.5-0.1-27
	c-6.9-54.3-20.9-106.5-46.4-155.3c-4.1-7.8-6.1-16.6-9.1-25c1.9-1.7,3.7-3.5,5.6-5.2c6,3.8,14.1,6.1,17.8,11.5
	c39,56.7,67.6,117.4,72.7,187.5c15.1,206.3-113.9,353.6-258.6,416.5c-177,76.9-349.7,66.2-510.3-42.4
	c-169.3-114.4-217.9-335.6-117.5-510.8c9.3-16.2,21.1-31,32.7-45.8C1578.3,1446.3,1587,1439,1602.1,1441.2z M1941.9,2033.3
	c12.5,0,25.1,0.8,37.6-0.1c123-9.4,229.1-54.7,308.1-152.1c20.7-25.5,35.9-56,51.1-85.5c10.4-20.1,8.5-42.1,1.4-64.1
	c-15.6-48.1-42.4-88.3-81.9-119.6c-68.5-54.3-148.2-80.4-233.8-89.1c-135-13.7-256.6,21.5-363.5,105.2
	c-40.3,31.5-69.4,71.8-88.4,119.5c-8.1,20.5-10.3,41.1,0.3,60.6c15.3,28.3,29.1,58.4,49.3,82.9
	C1704.5,1991.3,1813.5,2035.1,1941.9,2033.3z"/>
<path d="M2278.3,701.1c139.7,9.2,279.8,14.5,419,28.8c118,12.1,228.2,52,321.9,128.2c63.5,51.6,107,116.3,123.3,198.1
	c11.8,59-1,113.7-22.5,168.2c-14.9,37.7-28.2,76.4-38,115.7c-5.4,21.7-3.2,45.6-2.2,68.4c1.4,32.3,7.4,64.6,6.9,96.8
	c-1.4,87.9-40,156.2-119.6,194.7c-121,58.7-245.6,63.3-370.2,10.1c-62.2-26.5-105.3-72.4-119.2-139.7c-5.3-25.9-2.9-54-0.7-80.8
	c2.3-27,9.6-53.5,13.3-80.4c15-107.3-17.8-195.5-105.6-261.7c-57.7-43.5-123.8-68.8-191.2-92.1c-32.5-11.3-65.6-21.9-96.5-36.9
	c-52.6-25.5-87.3-67.3-87-127.5c0.4-72.4,32.3-130,99.6-161.1c28.8-13.3,61.5-19.8,93.2-24.8c24.4-3.9,50-0.8,75.1-0.8
	C2278.3,703.4,2278.3,702.3,2278.3,701.1z M2424,757c-0.1,1.4-0.2,2.8-0.3,4.2c-18.8-1.3-37.5-3.4-56.3-3.8
	c-57.3-1.2-114.8-4.8-172-1.7c-53.6,2.9-98.5,27-125.1,76.8c-30.4,56.9-16,111,41.7,140.1c37.9,19.2,79.1,32.2,119.3,46.5
	c56.2,20,111.2,42.4,161.2,75.6c56.2,37.3,100.1,84.8,125.9,148c24.1,59.1,23.9,120.2,15.1,181.9c-4.3,30-10.6,59.7-13.6,89.8
	c-5.2,52.7,12,98.1,55.1,129.1c24.1,17.4,52.2,31.4,80.5,40.2c54.3,16.9,110.8,20.1,167.5,12.2c52.2-7.4,102.5-20.1,146.7-50.5
	c43.3-29.6,69-69.7,69.5-123c0.3-31.3-0.4-62.8-4.2-93.8c-8.6-70.6,2.9-137.1,32.8-201.3c9.7-20.8,18-42.3,25.2-64.1
	c10.7-32.3,11.7-65.2,4.7-98.9c-15.9-76.9-60.3-134.5-121.1-180.6c-79.4-60.2-170.7-92.8-268.7-103.8
	C2613.7,769.3,2518.7,764.4,2424,757z"/>
<path d="M1575.5,2815.9c-64.7-0.6-113.5-51.5-112.5-117.5c0.9-63.9,53-115.7,116.2-115.8c66.2-0.1,119,51.7,118.6,116.4
	C1697.5,2764,1642.7,2816.5,1575.5,2815.9z"/>
<path d="M2493.6,2708c-0.5,64.3-52.9,113.9-120.2,113.7c-59.6-0.2-111.1-54.3-111-116.6c0.1-64.1,52.8-114.8,119.4-114.8
	C2445.8,2590.3,2494.1,2641.2,2493.6,2708z"/>
<path d="M1979.8,2902.1c-70.3-0.9-118.9-36.3-134.6-99.1c-2.5-9.9-3.4-20.7-2.7-30.9c0.8-12.2,10-17.6,21.6-18.5
	c10.4-0.8,18.6,2.5,22,13.2c2.2,6.9,4.1,14,6.2,20.9c12,40,45.3,64.6,86.2,63.5c43.8-1.1,76.7-25.9,87.7-66.2
	c1.7-6,2.9-12.2,4.9-18.1c3.9-11.4,12.4-16.6,24.2-15.4c12.9,1.3,21.9,8.5,22.8,21.6c0.7,10.2-0.2,21-2.7,30.9
	C2100.2,2865.6,2048.1,2903,1979.8,2902.1z"/>
<path d="M1876.5,614.5c-23.3-2.5-37.7-21.7-34.6-46.5c2.8-22.7,20.4-37,43.2-35.1c21.8,1.8,38.1,23.5,35.2,46.6
	C1917.5,601.4,1898.2,616.8,1876.5,614.5z"/>
<path d="M1369.4,710c-21.7,0.7-38.6-16.2-39.5-39.6c-0.9-24.1,16.2-41.8,40.3-41.9c21,0,36.5,15.3,37.8,37.6
	C1409.5,690.3,1392.8,709.3,1369.4,710z"/>
<path d="M3462.6,1970.8c-21.2-0.5-35.3-16.6-34.8-39.8c0.5-21.9,18.3-39.7,40-39.9c21.6-0.2,37.1,17.9,36,42.1
	C3502.7,1956.3,3486.2,1971.3,3462.6,1970.8z"/>
<path d="M3189.4,2550.1c0.6,21.1-17,39.4-38.8,40.5c-22.4,1.1-36.8-12.9-37.1-36.1c-0.3-22.9,15.8-40.5,37.6-41
	C3172,2513.1,3188.8,2529.1,3189.4,2550.1z"/>
<path d="M903.2,2696.9c1.8-22.4,20.6-38,42.8-35.5c19.8,2.3,34.2,21.3,32.2,42.5c-2.2,23.7-18.2,36.6-42.8,34.5
	C914.5,2736.6,901.3,2719.7,903.2,2696.9z"/>
<path d="M3267.4,1160.1c20.6,0.6,36.1,17.6,35.6,39c-0.5,22.8-17.5,37.9-41,36.4c-23.5-1.5-36.5-15.3-35.7-38
	C3227.1,1175.8,3245,1159.5,3267.4,1160.1z"/>
<path d="M3130.4,2275.4c-0.6,22.4-17.6,38-40.8,37.4c-22.4-0.5-36-15.5-34.9-38.4c1.1-22.5,18.8-39.7,40.1-38.8
	C3114.1,2236.5,3130.9,2255.2,3130.4,2275.4z"/>
<path d="M2782.5,2409.8c-22.1,0.8-38.3-14.4-38.4-36.2c-0.1-18.9,15.9-35.6,35.4-36.9c19.1-1.2,36.7,14.3,38.3,33.7
	C2819.4,2391.7,2803.9,2409.1,2782.5,2409.8z"/>
<path d="M1378.3,2937.5c-3.4-6.9-8.9-13.9-9.9-21.4c-0.7-5,4.1-11.6,8-16.2c15.3-18.2,31-36.2,47.1-53.8c4-4.4,9.7-8.2,15.3-9.9
	c13.4-3.9,25.6,8.4,17.9,18.8c-20.1,27.3-43.1,52.5-65.3,78.3C1389.6,2935.3,1385.6,2935.2,1378.3,2937.5z"/>
<path d="M2598.9,2834.8c-7,15.6-9.4,25.5-15.1,33c-14.4,19.1-30.1,37.2-45.5,55.6c-2.6,3.1-5.9,7.3-9.4,7.8
	c-6.7,1-15.7,2.3-19.9-1.2c-4-3.3-6.3-15.2-3.5-18.8c19.2-24.5,39.3-48.4,60.8-70.8C2570.9,2835.5,2582.7,2837.3,2598.9,2834.8z"/>
<path d="M1384.8,2848.2c-2.5,4.2-5.2,11.1-9.9,16.2c-16.3,17.5-33.2,34.5-50.1,51.5c-6.3,6.4-13.6,10.5-22,3.9
	c-8.9-7-10.3-17.6-3.6-25c18.7-20.7,38.2-41,59.3-59.2C1369,2826.5,1383.7,2833.8,1384.8,2848.2z"/>
<path d="M2661.9,2863.3c-0.4,1.6-0.4,5.3-2.2,7.4c-16.1,18.9-31.8,38.3-49.4,55.8c-4,4-17.4,4-22,0.2c-4.5-3.6-7.3-17.8-4.1-21.4
	c17.6-20,36.1-39.6,56.7-56.3C2650.5,2841.1,2662.1,2849.8,2661.9,2863.3z"/>
<path d="M2449.2,2927.6c-5.2-8.1-11.4-14.6-13.4-22.1c-1.2-4.7,2.9-12.2,6.6-16.6c12.8-15.1,26.1-29.7,39.9-44
	c7.5-7.7,17.2-14.7,27.5-6.6c11.3,8.8,4.4,18.8-2.4,27.1c-14.6,17.7-29.5,35-44.6,52.3C2460.2,2920.6,2456.4,2922.4,2449.2,2927.6z"
	/>
<path d="M753.7,2582.9c0.2-20.6,13.2-33.1,33.5-32.2c17.2,0.7,30.8,15,31.1,32.7c0.3,18.7-14.8,32.7-34.4,31.9
	C764.8,2614.4,753.5,2602.4,753.7,2582.9z"/>
<path d="M1464.9,2930.9c-16.4-0.3-24.8-15.3-15.9-26.2c13.7-16.6,28.8-32.4,44.9-46.7c4.6-4,14.8-1.7,22.4-2.3
	c0,7.4,2.9,17-0.7,21.9c-12,16.7-26,31.9-39.8,47.2C1472.8,2928.3,1467.2,2929.6,1464.9,2930.9z"/>
<path d="M2973.4,1985.5c-16.4,0.2-28.2-11.1-28.1-26.8c0.1-15.6,11.8-28.3,26.8-29.1c14.2-0.7,28.2,12.8,28.5,27.3
	C3000.9,1971.4,2987.7,1985.3,2973.4,1985.5z"/>
<path d="M3425.7,1505.1c-0.4,14-14.3,26.2-29.6,26.1c-14.7-0.1-26.3-10.9-26.5-24.7c-0.3-16.3,13.6-28.8,30.5-27.4
	C3414.4,1480.2,3426.1,1492,3425.7,1505.1z"/>
<path d="M1672.7,815.3c14.8-0.2,24.1,9.5,24.6,25.6c0.5,16.3-10,28.4-25.2,29.2c-15.2,0.8-25.2-8.5-25.9-24
	C1645.2,827.7,1655.7,815.5,1672.7,815.3z"/>
<path d="M2305.4,600.9c-0.2,13.5-12.9,26.1-26.3,26.3c-15.1,0.2-28.1-13.5-27-28.4c1-13.2,14-24.7,27.9-24.6
	C2293.5,574.2,2305.7,587,2305.4,600.9z"/>
<path d="M2939.5,2741.5c-13.6,0.8-25.3-11-25.4-25.8c-0.1-15.1,9.6-26.5,23.7-27.9c15.1-1.5,26.5,8.2,27.3,23.2
	C2965.9,2725.3,2953,2740.7,2939.5,2741.5z"/>
<path d="M2183.3,3139c0.4,14.9-9.4,26.6-23.4,27.7c-14.6,1.2-28.7-11.7-28.8-26.2c-0.1-13,11.9-24.5,26.3-25.5
	C2172.6,3114,2182.9,3123.5,2183.3,3139z"/>
<path d="M2031.3,3103.8c-14.9-0.7-24.4-11.5-23.7-26.7c0.7-14.2,11.9-23.7,27.4-23.2c14.9,0.5,26.2,11.4,26,25.1
	C2060.8,3093.3,2047.4,3104.6,2031.3,3103.8z"/>
<path d="M3264.4,2053.9c14.5,0,25.4,10.7,25.8,25.1c0.5,15.6-11,25.6-28.4,24.9c-14.8-0.6-24.1-9.1-24.5-22.4
	C3236.8,2066.3,3249.1,2053.9,3264.4,2053.9z"/>
<path d="M1235.1,2659.6c-0.8,16.9-12.2,27.5-27.8,25.9c-14.1-1.4-22.8-10.7-22.9-24.2c-0.1-15.1,12.6-28.5,26.8-28.5
	C1224.6,2632.9,1235.8,2645.4,1235.1,2659.6z"/>
<path d="M612.3,2469.5c-0.2,14.3-11.1,23.9-26.6,23.6c-15.6-0.3-24.4-9.3-24.8-25.2c-0.4-15.7,8.7-25.3,24.2-25.6
	C600.2,2442,612.5,2454.3,612.3,2469.5z"/>
<path d="M612.1,1219c-15-0.6-25.1-11.5-24.2-26c0.9-14.2,12.2-24.1,27-23.6c14.7,0.5,24.5,11.2,23.9,26.2
	C638.2,1210.1,627.3,1219.6,612.1,1219z"/>
<path d="M3407.1,2232.6c0.7,13.4-10.7,26.5-24.3,27.6c-14.9,1.3-26.3-8.7-27-23.6c-0.8-14.9,9.2-26.2,23.8-27.2
	C3394.9,2208.3,3406.3,2217.9,3407.1,2232.6z"/>
<path d="M1065.4,2456.5c-14.9-0.5-25.1-11.1-25.2-26.3c-0.1-15.4,10.9-26.8,25-25.9c13.5,0.9,25.4,13.3,25.8,26.9
	C1091.4,2446.2,1080.5,2456.9,1065.4,2456.5z"/>
<path d="M3417.9,1775.6c-12.5-0.1-25-11.3-25.7-22.7c-0.8-13.2,11.3-26.4,24.7-27.1c13.2-0.7,27,11.5,27.5,24.3
	C3444.7,1762.5,3431,1775.7,3417.9,1775.6z"/>
<path d="M1022.1,2942.9c-13.3-0.4-21.7-10.4-21.4-25.5c0.2-14.7,9.3-25.2,22.1-25.5c13.7-0.3,24.7,12.5,23.6,27.3
	C1045.3,2933.1,1034.8,2943.3,1022.1,2942.9z"/>
</svg>
