<?xml version="1.0" encoding="utf-8"?>
<!-- Generator: Adobe Illustrator 24.3.0, SVG Export Plug-In . SVG Version: 6.00 Build 0)  -->
<svg version="1.1" id="Layer_1" xmlns="http://www.w3.org/2000/svg" xmlns:xlink="http://www.w3.org/1999/xlink" x="0px" y="0px"
	 viewBox="0 0 4000 4000" style="enable-background:new 0 0 4000 4000;" xml:space="preserve">
<path d="M2003.3,3176.3c-208.9-2.8-416.4-17.8-621.3-59.6c-144.1-29.4-283.1-73.2-409-152.1c-98.6-61.9-175.6-142.6-219.3-252.1
	c-7.6-19.1-19.8-29-40.1-32.9c-61.7-12.1-123.7-23.6-184.6-39.5c-32.4-8.4-64.4-22.1-93.3-39c-164-95.7-182.3-301.4-38.2-425.7
	c26.3-22.6,55.4-42.6,85.4-60.1c46.7-27.3,66.1-65.6,58.6-118.9c-2.7-19.1-3.7-38.6-4.5-57.9c-3-73.7,23.1-134.8,81.7-180.3
	c17.5-13.6,36.6-25.3,56-36.3c18.5-10.5,37.9-19.6,57.4-28.1c57.9-25.3,92.9-67.6,101.7-131.1c3.3-23.9,8.8-47.6,14.4-71.2
	c24-101.4,90.5-159.2,189.7-182.3c29.2-6.8,58.8-12.2,88.5-16.6c60.6-9.2,103.1-40.7,127.5-97.4c10.3-24,22.5-47.3,35.5-70
	c49.8-87.1,125-132.4,225.5-135.2c25.2-0.7,50.4-0.3,75.6-1c63.3-1.9,116.7-24.1,157.2-74.7c26.7-33.4,56.4-63.9,92.6-87.5
	c119.9-78.3,271.5-51.6,356.9,63.5c16.1,21.7,29.9,45.2,45.5,67.4c12.8,18.2,25.4,36.7,40.4,53c29.5,32.1,66.8,49.6,110.8,49.5
	c39.7-0.1,79.4-1.5,119.1-2.5c50.6-1.3,100.6,0.7,148.7,19.5c60.5,23.6,106.6,62.8,133.8,122.1c13.3,29,25.7,58.7,34.4,89.3
	c21.5,76.4,68.9,125.9,144.5,149.6c39.7,12.5,79.3,25.7,118.5,39.7c129.9,46.5,193,141.9,202.3,277c2.3,32.8,6,65.6,11,98.1
	c7.3,47.3,28,88.8,61.9,122.4c22.6,22.5,47.1,43.1,71.9,63.2c30.1,24.4,62.9,45.5,91.8,71.2c75.1,67,118.1,150.1,117,252.7
	c-1.1,104.9-64.5,196.2-163,232.6c-31.6,11.7-65.3,17.9-97.8,27.3c-42.7,12.4-85.3,25.1-127.8,38.3c-20.6,6.4-34.6,20.4-42.5,40.7
	c-4.5,11.7-10.8,22.8-15.5,34.4c-44.2,109.7-121.7,189.7-221.8,249.5c-83.9,50.1-174.8,82.6-268.8,108
	c-145.5,39.3-293.6,62-444,70.4C2179.4,3168.6,2091.3,3172.1,2003.3,3176.3z M2275.6,2019.4c-21.9-2.1-23.5-17.8-28.3-28.9
	c-82.5-189.5-152.1-383.2-187.2-587.8c-2.7-15.9-10.8-21.5-25.7-26.2c-30.3-9.6-59.4-22.8-89-34.5c-5-2-10-4.2-17.6-7.4
	c-1.8,10.7-3.3,19-4.5,27.3c-3.6,25.9-5.6,52.1-10.8,77.6c-31.8,156.6-88,304.8-156.3,448.8c-11.6,24.5-24.2,48.5-36.8,72.6
	c-3.4,6.5-7.1,14.8-20.1,7.1c2.2-8.1,4.1-17.2,7-26.1c40.1-123.4,81.6-246.3,120-370.3c23.8-76.9,38.2-156.1,45.3-236.4
	c3.7-42.3-1.2-49.6-42.3-67.8c-2,1.6-4.8,3-6.2,5.3c-7.7,13.4-15.4,26.9-22.4,40.7c-49.5,97-106.7,188.8-179.2,270.6
	c-70.1,79.2-145.9,152.7-225.3,222.4c-29.8,26.2-62.1,49.5-93.6,73.7c-6.9,5.3-14.3,14.2-28.9,1.6
	c120.2-120.6,239.1-241.2,340.9-377.7c-23.8,6.2-43.8,19.1-63.8,31.7c-132.9,83.9-259.6,176.3-379,278.6
	c-114.3,98-209.6,212.3-284.3,342.8c-74.4,129.9-111.6,269.7-100,420.5c7.2,93.3,42.8,173.9,107,242.1
	c62.8,66.8,138.5,114.7,221.3,152c118.3,53.4,243.7,83,370.9,104.3c230.4,38.6,462.7,42.5,695.5,32.3c156.1-6.9,310.8-24.3,463-61.3
	c110.7-26.9,218.4-61,315.7-121.9c107.6-67.4,180.5-159.9,204.3-287.1c16.8-89.6,7-177.7-17.4-264.4
	c-37.1-131.5-103.8-247.8-187.2-355c-105.4-135.6-233.6-247.8-367.6-353.9c-84.3-66.7-167.6-134.6-251.4-201.9
	c-1.8-1.4-4.7-1.3-11.2-3c8.7,14.6,14.6,26.7,22.4,37.4c65.3,89,131,177.7,196.5,266.6c6.5,8.8,12.6,18,18.5,26.4
	c-10.9,10.3-17.3,5.6-23.2,0.2c-9.9-9.2-19.7-18.7-29.4-28.1c-78.3-75.5-151.2-155.7-213.5-245c-26-37.3-48.4-77-72.5-115.6
	c-5.5-8.8-9-20.3-22.9-18.9c-31.6,3.2-63.1,6.6-98,10.3c12.4,53.6,23.9,106.2,36.9,158.5c12.9,51.7,27,103,41.1,154.3
	c14.3,52.3,30.2,104.2,43.5,156.7C2243.3,1914.3,2265.2,1963.8,2275.6,2019.4z M729,2614.9c0-9.9,0.4-14.6-0.1-19.3
	c-13.2-125.2,8.6-245.6,54.7-361.2c64.7-162,169.4-297.1,293.2-418c94.5-92.4,200.1-171,309.6-244.6
	c81.2-54.6,161.5-110.3,241.8-166.2c63.8-44.5,107.4-105.3,137.8-176.2c5.7-13.3,11.3-26.8,18.3-39.5c10.2-18.6,17.2-21.1,34.4-9.2
	c26.2,18.1,51.5,37.7,76.3,57.6c83.9,67.2,176.9,102.6,286,83.9c21-3.6,42.3-4.9,63.3-8.4c22.1-3.7,38.9,3.1,54.2,19.7
	c72.4,78.6,154.2,146.9,238.8,211.8c97.6,74.9,195.8,148.9,285.1,233.9c106.4,101.3,204.3,209.7,278,337.5
	c83.5,144.7,139.7,298,131.1,469c-0.3,5.2,1.8,10.5,3,16.8c5.9-1.3,9.6-1.8,13.2-2.9c41.8-12,83.5-24.2,125.4-35.9
	c27.9-7.8,56.8-12.9,83.9-23c71.1-26.3,114.3-77.9,128.2-152.5c10.2-54.8-3.2-105.7-29.9-153.6c-26.5-47.5-64.6-84.2-107.8-116.2
	c-31.9-23.6-64-47-94.7-72.3c-65.1-53.6-102.1-122.9-110.4-207.1c-3.5-35.6-7-71.3-10.4-106.9c-8.5-88.2-54.4-149.8-135-184.6
	c-37.2-16.1-76.4-27.6-114.5-41.7c-29.9-11.1-60.7-20.7-89-35.1c-59.5-30.3-93.4-82.3-114.6-144c-10.7-31.1-21.1-62.4-34.5-92.4
	c-30.3-67.9-84.3-104.5-157.7-111.7c-27.8-2.7-56-2.3-84.1-2.3c-39.7,0-79.4,2.5-119,1.3c-61.6-1.8-112-28.1-150.9-75.7
	c-14.1-17.2-26.6-35.7-39.5-53.8c-16.2-22.9-30.9-47.1-48.4-68.9c-73.3-91.6-191-106.3-283.6-33.8c-29.5,23.1-56.1,50.7-80.1,79.6
	c-38.9,46.9-88.1,72.2-147.2,78.4c-38.4,4-77.3,4.6-116,5.6c-84.3,2.3-145.7,40.5-183.6,115.9c-11.7,23.4-23.2,46.9-34.8,70.3
	c-29.8,60.4-76.9,98.5-143.7,111.1c-9.5,1.8-19,3.9-28.4,5.9c-32.1,7-64.8,12.4-96.3,21.5c-69.5,20.2-111.5,67.3-126.7,137.8
	c-6.3,29.3-11.3,58.9-17.1,88.4c-9.8,49-35.9,87.6-76.9,115.4c-21.5,14.6-45.5,25.5-67.9,38.9c-30.7,18.3-62.5,35.2-90.9,56.4
	c-37.4,27.9-53.7,67.1-50.8,114.4c2,31.9,1.9,63.9,2.9,95.8c1.7,53.8-21,95.6-63.8,126.7c-21.9,15.9-45.8,29.3-67.1,45.9
	c-23.5,18.3-47.9,36.8-67.2,59.2c-53.8,62.7-58.4,148.9-14.8,219c26.1,41.9,64.2,68.9,108.6,88.5c42.1,18.5,86.9,26.7,131.7,34.8
	C662.4,2604.3,693.8,2609.1,729,2614.9z"/>
<path d="M1285,1334.2c4.5,1.7,7.8,2,9.6,3.8c3.3,3.4,6.3,7.3,8.5,11.5c22.6,41.5,44.9,83.1,67.5,124.5c4.3,8,9.1,15.8-1.3,22.5
	c-9.5,6.1-17.4,1.3-22.1-6.6c-19.6-33.2-39.2-66.4-57.1-100.4c-6.6-12.5-9.2-27.2-12-41.2C1277.3,1344.2,1282.5,1339.1,1285,1334.2z
	"/>
<path d="M2794.8,1448.7c-1.8,3.9-3.9,10.4-7.5,16c-23.8,36.4-47.9,72.6-71.9,108.8c-1.6,2.4-3.1,5.7-5.5,6.6c-6.5,2.5-13.3,4-20,5.8
	c-0.3-6.2-2.1-12.9-0.5-18.5c2.1-7.2,6.7-13.9,10.9-20.3c20.2-30.7,40.3-61.4,61.1-91.7c4.8-7,10.8-13.8,17.7-18.4
	C2786.8,1431.7,2795,1437.2,2794.8,1448.7z"/>
<path d="M1016.8,1782.1c-11.1,17.2-22.7,15.8-32.2,7.6c-33.6-29.1-64.4-60.9-86.5-100c-3.2-5.7-2.1-13.8-3.9-28
	c31.9,16.1,44,42.3,63.1,60.8C977.3,1741.8,996.6,1761.8,1016.8,1782.1z"/>
<path d="M780.4,2141.7c-8,0-16.5,1.7-24.1-0.3c-34.5-9.1-68.9-19.1-103.2-29.1c-4.5-1.3-10.3-3.2-12.5-6.7
	c-3.2-5.1-5.3-12.1-4.4-17.8c0.4-2.4,10.2-6.1,14.4-4.8c39.8,11.9,79.4,24.3,118.7,37.7c5.6,1.9,9.4,9.3,14,14.1
	C782.4,2137.1,781.4,2139.4,780.4,2141.7z"/>
<path d="M3118.9,2060.3c4.1-8.2,4.8-12.9,7.5-14.7c33.6-22.4,67.3-44.7,101.4-66.4c6.1-3.9,14.1-5,20.5-7.1
	c8.9,9.4,7.9,19.1,0.3,24.1c-35.2,23.1-71.1,45.3-107.4,66.9C3137.1,2065.6,3129.2,2061.8,3118.9,2060.3z"/>
<path d="M2270,1276.1c-15.5,3.9-22.9-2.6-21.9-13.9c3.5-40.4,8.4-80.7,13.3-120.9c0.5-4.2,4.2-9.1,7.9-11.7
	c3.3-2.3,8.9-3.1,12.9-2.1c2.4,0.6,5.4,6.2,5,9.2C2281.7,1183.5,2275.7,1230.3,2270,1276.1z"/>
<path d="M1828.1,1150.9c-17,0.8-27.4-5.9-31.4-18.7c-8.7-27.4-16.2-55.2-22.9-83.2c-1.2-4.8,4.1-11.1,6.3-16.8
	c5.3,3.2,12.7,5.2,15.5,9.9c5.3,8.9,8.3,19.3,11.7,29.3c6.7,20,13.2,40.1,19.1,60.4C1828.1,1137.4,1827.5,1143.8,1828.1,1150.9z"/>
</svg>
