<?xml version="1.0" encoding="utf-8"?>
<!-- Generator: Adobe Illustrator 24.3.0, SVG Export Plug-In . SVG Version: 6.00 Build 0)  -->
<svg version="1.1" id="Layer_1" xmlns="http://www.w3.org/2000/svg" xmlns:xlink="http://www.w3.org/1999/xlink" x="0px" y="0px"
	 viewBox="0 0 4000 4000" style="enable-background:new 0 0 4000 4000;" xml:space="preserve">
<path d="M2075.3,3123.5c-397.7-2.3-676.9-2.1-956-6.1c-228.4-3.2-456.7-10.6-685-18.1c-43.3-1.4-86.8-9.1-129.2-18.2
	c-59.4-12.7-103.9-48.5-136.5-99.5c-36.4-56.9-53.6-120.3-61.5-186.2c-20.7-173.2-5.8-344.3,31.7-514.1
	c81.3-368,254.2-685.5,528-945.3c248.6-235.8,540.7-392.3,876.1-466.3c16.6-3.7,33-10.2,48.3-17.8c48.1-23.9,98.1-31,150.9-21.5
	c12.8,2.3,26.3,3.5,39.2,2.2c142.2-14,284-6.6,425.4,10.3c225.2,26.8,437.9,94.8,638.5,200.3c91.8,48.3,179.1,103.8,261.6,166.7
	c12.4,9.4,28.1,17.3,43.3,19.8c85.5,14.3,141.2,62.3,168.5,144c8.8,26.4,22.8,49.2,41.8,69.9c91.7,99.8,168.9,210.2,236.4,327.7
	c90.7,157.9,152.8,326.8,197.9,502.6c6.3,24.4,15.8,48,25.6,71.3c10.5,25,16.4,49.3,9.4,76.7c-3.9,15.2-3.7,32.2-2.1,48.1
	c10.9,112.5,15.7,225-4.7,336.9c-7.3,39.8-16.9,79.6-30.4,117.7c-29.9,84.4-87.5,141.1-177.5,158.1c-45.7,8.6-92.3,15.5-138.7,17.1
	c-179.6,6.1-359.2,11.3-538.8,13.9C2610.6,3118.4,2283.7,3121.2,2075.3,3123.5z M170.8,2775.3c2.2,47.9,8.5,95.3,29.7,138.7
	c28.6,58.5,71.8,100.7,139.2,111c32,4.9,64.2,11.3,96.4,12.7c115.6,5.1,231.3,10.5,347,12c367.5,4.8,735,10.9,1102.5,11
	c372.6,0.1,745.1-5.4,1117.7-10c159.3-2,318.6-7.4,477.9-12.1c48.8-1.5,97.2-7.8,143.6-24.1c45.1-15.8,78.5-44.6,99.9-88.2
	c24-48.9,36-101.2,47.2-153.8c0.6-3-1.4-6.5-2.8-12.1c-28.8,30.3-55.6,57.7-81.2,86.2c-4.5,5-5.2,14.9-4.7,22.4
	c0.6,7.8,5.1,15.3,7.2,23.1c11.7,43.1-10.2,82.6-53.1,95c-35.5,10.3-66.1-1-93.3-23.4c-42.6-35.1-71-80.6-92.2-130.6
	c-33.3-78.8-53.3-161.7-72.4-244.7c-23.7-102.8-47.5-205.5-81.8-305.5c-58.9-171.8-145.8-327.6-261.2-467.9
	c-84-102.1-183.1-186.7-291.3-261.5c-123-85.1-256.6-148.3-400.9-187.2c-173.4-46.7-349.5-59.4-528.3-38.9
	c-165.4,19-321.7,67.7-469.5,142.5c-190.6,96.5-348.5,233.7-478.8,402.2c-96.9,125.3-169.7,264.3-226.4,412.2
	c-41.5,108.4-69.7,220.4-95.4,333.3c-18.1,79.1-37.6,158-73.1,231.8c-16.8,35-37.7,67.4-65.1,95c-26,26.2-56.9,42.3-95,41
	c-40.1-1.3-67.9-32.4-63.6-72.6c1.4-13,5-25.9,9.3-38.3c5.1-14.9,2.8-25.7-12.1-32.6C215,2827.3,190.1,2805.7,170.8,2775.3z
	 M2389.9,1105.6c-30.2-75.8-118.2-134.6-198.9-130.2c-33.9,1.9-68.4,9.9-100.7,20.8c-80.2,27.1-153.7,17.1-222.6-31.5
	c-22.4-15.8-44.4-32.3-67.7-46.6c-89.4-54.9-192.4-34.3-251.4,52.6c-21.4,31.6-35.8,68-52.3,102.7c-4.5,9.4-5.3,20.7-9.1,36.9
	c10.5-6.6,15.9-9.2,20.3-12.9c106-89.9,258.6-98.7,383.1-19.9c63.1,40,118.1,89,161.2,150.8c20.8,29.7,35.2,35.4,69.7,25.8
	c11.2-3.1,21.7-10.7,31-18.1c50.2-40.1,104-74.5,161.9-102C2338,1122.7,2363.4,1115.4,2389.9,1105.6z M378.8,2235.1
	c-29.9,21.9-57.8,38.8-81.3,60.4c-22.9,21-43.6,45.3-61.4,70.9c-20.3,29.1-22.7,62.5-8.6,95.9c7.1,16.8,14.3,33.7,22.7,49.8
	c21.8,41.8,23.2,83.3,0.7,125.3c-7.7,14.3-14.8,29-21,43.9c-18,43.3-9,73.7,30.2,99.8c15.1,10.1,31.6,18.2,47.6,27.1
	c17.5,9.8,23.4,24.8,19,43.7c-2.5,10.8-7.3,21.2-9.4,32.1c-2.4,12.4-3,25.1-4.3,37.7c27,6.2,40.5-9,53.2-22.9
	c27.5-30.3,48.4-64.9,64.3-102.7c30.2-71.5,45.8-147.2,63.7-222.2c17.3-72.5,20.8-52.5-19.3-115c-38.6-60.2-71.6-122.6-85.8-193.6
	C387.3,2257.6,383.9,2250.3,378.8,2235.1z M809.1,1549.9c18.3-8.8,18.5-8.7,28.7-26.2c59.5-102.4,150.5-150,266.8-152.3
	c65.6-1.3,128.9,13.2,191.3,32c34.2,10.3,39.7,7.6,53.7-24.7c22.2-51.2,43.9-102.6,65.5-154c2.1-5,1.9-10.9,3.6-22.5
	c-22.8,10.8-41.2,18.6-58.8,27.9c-66.8,35.4-134.8,41.6-205.1,10.9c-13.9-6.1-28.1-11.7-42.5-16.7
	c-121.1-42.1-230.4,8.9-275.3,129.1c-21.5,57.6-30.1,117.8-30.7,179.1C806.4,1538.1,808.1,1543.7,809.1,1549.9z M3470.2,2692.8
	c2.8,0.9,5.5,1.8,8.3,2.7c8.5-8.1,17.7-15.6,25.3-24.5c60.9-72.1,102.3-153.4,113.9-248.2c10.9-88-19.4-168.6-113.1-207
	c-55.2-22.6-112.9-39.2-169.7-57.9c-4.7-1.6-10.8,1-19.3,2c6,15.7,10.6,28.8,16,41.7c47.1,112.9,74.4,231.5,102,350.2
	C3444.7,2599.1,3458,2645.8,3470.2,2692.8z M3559.2,2170c18.7-33.1,16.9-64.4,11.6-95.3c-7.6-44.9-30.4-78.9-74.9-95.9
	c-17-6.5-33.7-14.3-49.7-22.9c-33.5-17.9-50.8-46.7-49.8-84.3c0.6-23.1,5.1-46.2,9.1-69.2c5.7-33,14.8-65.5,18.4-98.6
	c5.8-55.1-14.8-99.3-62.4-129.5c-36.7-23.4-77.6-34.9-120.2-40.3c-19.6-2.5-39.5-8.1-62.7-1.5c3.4,22.9,7,44.6,9.8,66.4
	c1.7,13,8,21.7,19.1,29.2c92,61.7,132,150.5,133.7,259c0.9,56.3-9.4,111.1-20.8,165.8c-2.4,11.3-2.5,23.1-3.6,34.6
	C3401.1,2108.5,3480.9,2131.1,3559.2,2170z M1990.5,1252.1c-9-12.6-13.5-21.8-20.5-28c-34-30.3-67.1-61.9-103.6-88.9
	c-34.5-25.5-74.9-40.9-118-45.7c-104.5-11.8-187.6,28.2-246.2,113.1c-28.5,41.3-47.2,89.3-69.9,134.6c-2.8,5.6-2.8,12.7-5.2,25.2
	C1608.9,1287.9,1794.9,1259.9,1990.5,1252.1z M531.6,2428.5c4.9-14.2,7.8-22.6,10.6-31c14.3-44.3,27.3-89.1,42.9-133
	c39.6-111.3,95.2-214.7,156.4-315.4c4.2-6.9,7.3-14.5,12.3-24.7c-10.4,0-15.4-0.7-20.2,0.1c-61.4,10.6-120.2,29.2-174.2,60.6
	c-96.6,56.3-135.8,145-114.9,255.2c11.4,59.8,39.3,112.6,67.4,165.3C515.4,2412.4,522,2417.5,531.6,2428.5z M695,1656.8
	c-18.1,3.8-31,5.9-43.5,9.3c-46.7,12.7-78.3,41.3-90.8,88.9c-4.1,15.7-7.7,31.5-10.6,47.4c-7.6,40.9-31.2,67.1-71,79
	c-22.3,6.7-45,12.4-66.9,20.3c-47.3,17.2-79.8,49.6-98.7,96.8c-22.5,56.5-10.6,109.4,13.5,161.5c4.1,8.9,7.8,22.1,20.1,18.7
	c9.7-2.6,20-10.5,25.3-19c6.1-9.9,7.5-22.9,10.2-34.7c19.2-82.2,63.8-146.2,137-188.8c22.7-13.2,46.5-25.1,70.9-34.6
	c66.5-25.8,66.7-25.2,88.3-93.5c0.6-1.9,1.2-3.9,1.7-5.8C694,1756.4,696.3,1709.4,695,1656.8z M2680.7,1441.1
	c1.6-10.4,3.1-13.5,2.3-16c-17.1-54.1-33.4-108.6-64.4-156.9c-36.8-57.3-85.2-99-156.8-100.7c-29.8-0.7-60.7,4.2-89.6,12
	c-52.5,14.2-97.1,45.1-141.5,75.3c-5.4,3.6-9.4,9.2-17.8,17.7C2380.6,1300.7,2534.1,1355.5,2680.7,1441.1z M2753.4,1436.3
	c4.8,49.2,7.7,53.4,43.8,77.5c20.2,13.5,40.4,27.3,58.6,43.2c13.5,11.8,26.8,16.1,44.2,13.6c64-9.3,127.2-4.3,189.8,10.9
	c9.1,2.2,18.9,1.6,34.2,2.7c-8.8-41.4-13.4-78.7-24.8-113.8c-27.5-84.9-96.5-120.6-181.7-93.9
	C2862.6,1393.8,2809.3,1415.7,2753.4,1436.3z M3024.2,1226.1c-224.8-152.1-463.8-263.2-732.4-304.4c4.5,6,9.9,10.3,16,13.2
	c51.2,23.9,92.9,60.5,120.5,108.4c23.6,41,50.8,66.8,99.7,71.1c19.9,1.7,36,2.6,54.7-6.4c92.8-44.6,198.4-6.5,240.1,57.8
	c11.6,17.9,23.7,35.5,36.4,52.6c11.7,15.8,25.7,28.5,46.7,31.2C2932.3,1253,2993.7,1241.8,3024.2,1226.1z M779,1321.5
	c-10.2,7.5-16.9,11.6-22.6,16.7C650,1433,553.6,1536.8,475,1656.1c-36.7,55.8-70,113.8-104.5,171.1c-3.6,6-4.3,13.8-7.6,25.2
	c37.8-12,70.6-22.1,103.1-32.8c15.2-5,21.4-17.5,24.4-32.2c3.8-18.9,7.2-37.9,11.9-56.5c11.3-45.4,37-80.5,77-105.1
	c32.1-19.7,67.4-26.7,104.5-27.6c37.4-1,52.5-14.2,59.4-51.1c1.7-8.9,2.1-18.1,2.7-27.2c4-59.8,10.1-119.2,29.8-176.3
	C777.5,1338.2,777.5,1332.2,779,1321.5z M1239.4,1457.4c-11.8-6-15-8.5-18.7-9.3c-51.8-11.4-104.2-19.1-157-10.1
	c-71.4,12.2-129,46.1-166.2,111c-23.5,40.9-31,85.5-34.4,131.3c-2.1,28.7-3.2,57.6,4.6,88.1C975.1,1647,1096.9,1544.5,1239.4,1457.4
	z M2959.9,1637.4c28.6,30.3,57.1,58.8,83.7,88.9c26.8,30.4,53,61.5,77.4,93.8c25,33.1,48.3,67.7,71,102.5
	c21.8,33.5,41.9,68.1,65.4,106.5c5.2-11.6,9.2-17.5,10.4-23.8c10.8-57.2,15.3-115,4.3-172.4c-11.3-59.6-37.6-111.3-89.8-146.4
	c-66.1-44.4-140.5-54.7-217.9-52.6C2963,1633.9,2961.5,1636.1,2959.9,1637.4z M3650.9,2542.4c-5.4,11.2-9.4,20.1-13.9,28.8
	c-14.9,28.7-27.4,59.1-45.5,85.6c-24.4,35.8-53,68.8-80.3,102.6c-7.8,9.7-16.5,18.2-10.3,32.1c18.2,40.8,38.2,80.6,70.7,112.3
	c7,6.8,16.3,12.3,25.6,15.4c22.8,7.6,35.1-2.5,28.3-25c-13.3-43.9,0.4-77.1,34.3-104.7c4.7-3.8,8.7-8.5,13.1-12.6
	c50.8-47,63-103.2,42.5-168.7C3705.6,2576.5,3685.6,2556.6,3650.9,2542.4z M3494.8,1720.1c-2.6,0.6-5.2,1.1-7.8,1.7
	c-6.9,33.5-14,67-20.6,100.6c-2.7,13.9-4.9,27.9-6.5,42c-2,18,5,31.7,21.7,39.6c12.8,6,25.9,11.4,38.8,17.3
	c86.1,39.1,129.2,123.8,110.1,216.9c-3.1,14.9-6.4,29.7-10.4,44.4c-4.1,15.1,0.3,24.6,14.7,31.8c23.5,11.8,45.9,25.7,69.1,38.2
	c6.4,3.4,14,4.7,26.1,8.5C3676.2,2065.6,3598.9,1887,3494.8,1720.1z M2617.1,1164.8c2.4,4.1,4.1,8.9,7.3,12.2
	c44.1,44,72.2,97.5,92,155.8c2.9,8.6,6.6,17,9.8,25.6c3.8,10,10.8,14.4,21.4,12c47.5-10.8,89.3-35.1,135.9-53.6
	c-5.1-4.8-6.9-7.7-9.4-8.6c-39.3-14.8-64-44.8-85.1-79.2c-8.4-13.7-18.4-26.9-29.5-38.6C2721.8,1150.3,2663.3,1139.8,2617.1,1164.8z
	 M2995,1306.2c5.6,3.3,7.2,4.8,9,5.3c5.9,1.6,11.8,2.9,17.8,4.1c50.6,10.3,89.2,37.7,114.7,82.5c9,15.8,14.9,33.3,23.4,49.3
	c3.5,6.6,9.7,15.9,15.4,16.4c32.7,3.3,65.5,4.3,102.8,6.4c-5.4-24.5-9.2-44.2-14.1-63.7c-18.7-73.8-61.3-109.8-137.1-115.6
	C3083,1287.6,3039.9,1292.6,2995,1306.2z M1031.3,1139.3c35.7,9.2,67.1,16.5,97.9,25.6c13.5,4,21.2-0.8,28.1-10.8
	c9.7-14.2,18.6-29,29.3-42.5c53.5-67.2,122.8-96.7,208.5-86.1c14.8,1.8,33,10.3,43.6,4.5c12.3-6.6,18.1-25.4,26.5-39.1
	c4.2-6.9,8.3-14,11.4-21.4c2.4-5.7,3.2-12.2,5.9-23.3C1323.2,996.4,1173.1,1054,1031.3,1139.3z M1210.3,1193.5
	c30.2,5.4,58.3,3,84.6-7.9c38.4-15.8,75.9-33.7,113.2-51.9c20.2-9.8,20.8-28.7,1.1-39.1c-11.2-5.9-25.1-9.6-37.8-9.6
	c-70.2-0.3-121.4,33.6-157.9,91.8C1211.2,1180.6,1211.6,1186.2,1210.3,1193.5z M807.4,1606.9c-29.1,15.1-40.8,28.7-46.6,56.7
	c-3.7,17.8-5.7,36-7,54.2c-3,42.6-8.7,84.5-23.9,124.8c-2,5.3-1.9,11.4-3.3,20.9c26.9-3.4,51.3-6.4,74.1-9.3
	c0-43.7-0.9-83.9,0.2-124.1C802,1689.8,805.1,1649.7,807.4,1606.9z M1887.5,897.3c1.3,2.6,2,6.1,4.1,7.7
	c45.7,35.1,95.7,51.7,153.4,35.6c31.2-8.7,62.6-16.6,93.9-24.7c13.4-3.5,26.9-6.4,45.9-11C2096.4,886.9,1917.4,882.8,1887.5,897.3z
	 M3681.6,2316.8c-2.2,1.2-4.5,2.5-6.7,3.7c0.6,5.8,0.5,11.8,1.9,17.4c8.3,32.2,6.5,64.6-1.8,96c-8.8,33.6-11.1,35.9,28.4,53.4
	c5.2,2.3,11.3,2.4,18.4,3.8c9.6-23.5,19.6-45.6,27.4-68.4c3.1-8.9,4.9-21.3,1.1-29C3734.7,2361.7,3711,2336.3,3681.6,2316.8z
	 M247.8,2134.8c-2.8-0.4-5.6-0.9-8.5-1.3c-14,53.4-28,106.7-42,160.1c1.9,1,3.8,2,5.6,3c25.3-22.4,50.9-44.5,75.4-67.8
	c3.7-3.5,4.4-13.8,2.2-19.3C270.5,2184.3,258.9,2159.7,247.8,2134.8z M158.1,2666.2c2.8,0.3,5.6,0.5,8.5,0.8
	c8.2-18.4,16.2-36.9,24.5-55.2c17.5-38.7,8.7-79.4-26.4-112C158.6,2556.7,159.8,2611.5,158.1,2666.2z"/>
<path d="M2363.8,2753.9c-64.8,0.1-118.9-53.3-118.9-117.3c0.1-67,54.4-118.5,124.8-118.2c64.2,0.3,121,55.3,118.8,118.2
	C2485.8,2715.1,2430.6,2753.2,2363.8,2753.9z"/>
<path d="M1539.4,2519.8c65.5,0.2,116.5,47,119.1,116.4c2.4,62.5-52.7,116.4-115.4,116.7c-70.9,0.3-123.7-50.2-123.4-118
	C1420.1,2569.4,1471.4,2520.1,1539.4,2519.8z"/>
<path d="M1953.3,2844.5c-67.8-0.7-118.9-35.4-137.3-94.8c-3.8-12.3-4.5-25.8-4.6-38.8c-0.1-11.5,7.9-18.2,19.2-20
	c11.1-1.8,20.6,1.2,25.4,11.9c4.1,9.2,6.5,19.1,9.7,28.7c13.1,39.4,47.4,61.4,92.1,59.3c45.5-2.2,75.7-26.4,85.1-68.1
	c1.1-4.9,1.7-10,2.8-14.9c2.7-12.1,8.9-20.3,22.7-20c14,0.4,23.4,7.5,26.3,20.8c1.6,7.6,1,16.1-0.4,23.9
	C2082.4,2802.1,2027.9,2845.2,1953.3,2844.5z"/>
<path d="M2578.9,2772.6c1.2,6.3,3.1,9.6,2.2,12c-12.9,35.1-38.2,60.8-65.9,84.2c-3.3,2.8-14.4,1-18.4-2.6c-3.9-3.5-6.5-14.9-4-17.9
	c22.4-25.6,46-50.2,69.8-74.5C2565.2,2771.2,2572,2773,2578.9,2772.6z"/>
<path d="M1413.7,2784c-4.7,9.9-6,15.1-9.1,18.6c-18.8,21.2-38,42.1-57.3,62.9c-6.5,7-15.5,8.9-20.8,1.1c-3.5-5.2-4.6-16.7-1.2-21
	c16.8-21.5,34.8-42.2,53.8-61.8c4.6-4.7,14.5-5.4,22-5.7C1405.3,2777.9,1409.9,2782.1,1413.7,2784z"/>
<path d="M2436.7,2859.8c-14.2,0.1-24.1-16.9-15.9-27.2c16.5-20.4,35-39.2,54.3-57c3.8-3.5,14.6,0.4,22.1,0.8
	c-0.5,7.3,1.8,16.7-1.9,21.5c-14.2,18.4-30.2,35.5-45.9,52.7C2445.5,2854.9,2439.8,2857.6,2436.7,2859.8z"/>
<path d="M1332.6,2788.4c-1.7,3.2-3.6,9.2-7.4,13.3c-16.4,17.6-32.9,35.2-50.5,51.6c-3.9,3.7-15.6,5.7-17.8,3.3
	c-4.3-4.9-8.5-16.8-5.8-19.9c18.2-21,37-41.7,58-59.8C1318.5,2768.9,1331.6,2776.1,1332.6,2788.4z"/>
<path d="M1476.3,2805.9c-2.9,6.2-4.3,12.5-8.1,16.8c-12,13.6-24.4,26.9-37.5,39.3c-8.7,8.2-19.8,12.4-29.2,1.2
	c-8.7-10.3-1.3-18.7,6.2-26.1c13.6-13.5,26.8-27.4,41.3-39.8c4.4-3.7,13-4.2,19.2-3.3C1471.3,2794.5,1473.5,2801.5,1476.3,2805.9z"
	/>
<path d="M2649.4,2800.5c-1,2.6-1.7,8.2-4.7,11.7c-14.5,16.7-29.5,32.9-44.7,49c-2.6,2.8-6.8,5.8-10.3,5.7c-5.5-0.1-13-0.9-16-4.5
	c-2.8-3.3-3.3-12.6-0.6-15.8c16.2-19.2,32.5-38.5,50.8-55.5C2634.8,2781.1,2648.3,2786.4,2649.4,2800.5z"/>
<path d="M1618.2,2027.7c-0.1-17.7,10.2-29.1,27.2-30c17.9-0.9,31.4,12.2,30.7,29.8c-0.6,16.4-13.1,28.4-29.4,28.4
	C1628.7,2055.8,1618.3,2045.6,1618.2,2027.7z"/>
<path d="M3161.9,2734.3c16.4-0.1,28.8,11.7,29.3,28.1c0.6,18.2-11.6,30.8-29.8,30.7c-17.4,0-28.3-10.6-29-28
	C3131.8,2746.6,3143.4,2734.4,3161.9,2734.3z"/>
<path d="M856.3,2703.4c17.2-0.1,30.4,11.6,30.7,27.1c0.3,16.6-14.1,30.3-31.5,30c-16.7-0.3-29-12.7-28.9-29
	C826.7,2715.5,839.4,2703.4,856.3,2703.4z"/>
<path d="M1312.3,1864.7c-18.5-0.1-29.9-12.3-29.1-31.2c0.7-16.2,10.9-26.3,27.1-26.7c17.5-0.5,31.9,13.1,31.7,29.8
	C1341.8,1852.4,1328.6,1864.8,1312.3,1864.7z"/>
<path d="M1009.9,2210.6c-17.1,0.5-28.7-11-28.5-28.2c0.2-16.4,12.6-29.4,28.3-29.9c15.5-0.4,28.1,12.6,28.5,29.3
	C1038.6,2198.7,1027.3,2210.1,1009.9,2210.6z"/>
<path d="M1999.5,1617.2c0.2-17.6,11.4-28.7,28.6-28.2c16,0.5,27.8,13.1,28,29.9c0.2,15.6-13.7,29.1-29.2,28.4
	C2010.2,1646.6,1999.3,1634.6,1999.5,1617.2z"/>
<path d="M2593.1,1754.5c-0.8,17.3-14.7,29.7-32,28.4c-16.6-1.2-25.5-11.2-24.7-27.8c0.9-17.9,14.2-30.1,31.6-28.8
	C2583.5,1727.5,2593.8,1739.1,2593.1,1754.5z"/>
<path d="M2345,1921c14.6,0.2,26.6,12.8,26.5,27.7c-0.1,15.8-13,28-29.7,28.1c-15.4,0.1-27.8-11.1-28.4-25.7
	C2312.8,1935.1,2327.9,1920.7,2345,1921z"/>
<path d="M2905,2078.9c-0.4,17.8-13.9,30.8-31.3,29.9c-16.1-0.8-28-13.9-27.5-30.3c0.4-15.8,13.4-27.9,29.9-28.1
	C2892.8,2050.3,2905.4,2062.7,2905,2078.9z"/>
<path d="M2940.9,2582.4c-18.6-0.7-27.8-10.7-26.8-29c0.9-17.1,12.7-28,29.5-27.6c16.5,0.5,27.5,12.7,26.8,29.9
	C2969.7,2573.5,2959.1,2583.1,2940.9,2582.4z"/>
<path d="M1214.7,2360.3c-0.3,18-10.9,29.5-27.5,29.6c-16.3,0.2-28-11.7-28.5-29c-0.5-17.9,12.6-30,31.2-29
	C1205.8,2332.9,1215,2343.5,1214.7,2360.3z"/>
<path d="M2726.9,2266.3c-1.9,18-13.3,27.6-30.6,25.8c-16.1-1.7-26.7-14.9-25.6-31.6c1.1-16.3,13.9-26.6,31.3-25.5
	C2718.8,2236,2728.8,2248.7,2726.9,2266.3z"/>
</svg>
