<?xml version="1.0" encoding="utf-8"?>
<!-- Generator: Adobe Illustrator 24.3.0, SVG Export Plug-In . SVG Version: 6.00 Build 0)  -->
<svg version="1.1" id="Layer_1" xmlns="http://www.w3.org/2000/svg" xmlns:xlink="http://www.w3.org/1999/xlink" x="0px" y="0px"
	 viewBox="0 0 4000 4000" style="enable-background:new 0 0 4000 4000;" xml:space="preserve">
<path d="M1987.1,3727.3c-203.2-4.6-341.8-5.7-480.3-11.5c-167.2-7-334.4-15.6-501.2-28.5c-91.8-7.1-181.8-27.3-264-73
	c-108.6-60.3-168.5-153.6-189.9-274.1c-14.4-81.1-17.8-163.2-17.6-245.1c0.6-210.6,1-421.3,6.8-631.8
	c4.8-177.2,16.9-354.2,26.2-531.3c2.1-40.9,5.3-81.9,9.5-122.6c1.8-17.4-2.9-30.1-16.7-40.3c-9.8-7.2-19-15.3-28.5-22.9
	c-140.6-112.9-220.8-261.1-250.7-436.8c-41.8-244.9,28.9-455.6,201-632.9c109.7-113,241.3-194,384.1-257.9
	c205.8-92.1,422.2-145.7,645-176.1c227.3-31,455.2-31.2,683.5-14.6c173.9,12.6,345.7,38.7,515.4,78.1
	c155.6,36.2,308.9,80.5,450.5,156.9c139.7,75.3,267.6,166,362.5,296.2c98.2,134.8,153.1,285.2,148.5,452.9
	c-5.9,215-88.8,395.3-256.3,533.8c-14.5,12-28.7,24.6-44.3,35.1c-18.3,12.4-25,27.9-25.3,50.2c-1.7,110.8-4.4,221.7-7.7,332.5
	c-8.6,291.4-16.5,582.8-27.2,874.1c-3.9,105.1-11.8,210.3-23.5,314.8c-22,195.5-151.8,300.9-322.7,335.8
	c-101.2,20.7-204.1,28-307,33.4C2412.3,3734.4,2167.3,3729.8,1987.1,3727.3z M1914,3659.2c0.1-0.9,0.1-1.9,0.2-2.8
	c28.8,0,57.6-0.1,86.5,0c269.3,1.6,538.8,8.1,807.3-20.3c65-6.9,130.2-13.1,192.8-33.3c109.2-35.3,184.1-104.3,208.7-219.7
	c7.4-34.6,13.2-69.9,15.4-105.1c8-128.3,15.9-256.6,20.6-385c7.7-207.1,12.9-414.3,18.9-621.5c4.3-148.5,9.8-296.9,11.4-445.4
	c0.5-44.9,18.3-74.3,51.6-101.2c39.5-31.9,79-65.2,112.6-103.1c163.2-183.6,199.4-396.5,127.5-626.5
	c-51.4-164.7-164.1-286.6-302.2-386c-123.8-89.1-261.6-148.6-407.1-191.5c-219.9-64.8-445.1-100.3-672.9-119.7
	c-255.1-21.8-509.1-13.8-761.8,30.9c-188.5,33.4-371.2,84.2-545.2,165c-139.1,64.6-265.9,146.4-369.8,260.5
	c-133.3,146.3-189.6,317.9-162.6,514.5c23.2,169.1,97.3,311.5,231,420.6c14.6,11.9,28.1,25.2,42.9,36.7
	c20.9,16.3,29.1,35.9,27.3,63.2c-6.2,91.8-10.5,183.7-14.9,275.5c-6.2,128.4-14.3,256.8-17.1,385.3c-4.8,222.7-7.1,445.5-8.3,668.3
	c-0.3,58.6,5.5,117.4,11.6,175.7c14,134,81.1,230.8,208.6,279.3c45.1,17.2,93.4,29.4,141.3,35.1c90.1,10.8,180.8,17.6,271.5,22
	C1464.4,3641.3,1689.2,3649.8,1914,3659.2z"/>
<path d="M2081.5,3558.9c-192.7-3.8-355.7-4.7-518.4-10.9c-183.8-7-367.5-17.3-550.2-39.3c-28.5-3.4-57-9-84.5-17.1
	c-107.4-31.9-174.8-103.5-195.7-213.2c-11.8-61.7-18.6-125.3-18.7-188.1c-0.2-171.8,2.8-343.6,7.4-515.3
	c3.7-139.6,11-279,17.8-418.5c5.1-104,12.2-207.9,17.7-311.9c1.6-29.8,8.8-62.8-1-88.8c-9.3-24.5-37.2-42.2-57.8-62
	c-63.5-60.9-120.3-126.7-161.3-205.6c-130.6-251.5-72.2-552.5,143.8-736.3c93-79.1,198.4-137.3,311.5-181.6
	c187-73.2,381.1-113.6,581.4-129.2c198.3-15.5,396.4-15.4,594.6-3.3c191.5,11.7,381.9,32.9,568.8,79
	c164.6,40.6,321.9,97.7,461.7,196.9c133.3,94.7,223.3,219.9,252.5,380.8c34.9,192.2-14.8,365.5-144.7,512.3
	c-40.1,45.3-88.2,83.9-134.5,123.3c-17.8,15.1-25.5,30.5-25.9,53.6c-6.6,376.8-13,753.6-21.6,1130.3
	c-2.5,111.8-10.6,223.5-18.4,335.1c-2.3,32.8-9.6,65.9-19,97.6c-28.7,96.8-93.9,155.5-192.4,177.1c-77.1,16.9-155.6,23.7-234.2,25.5
	C2457.4,3553.9,2254.6,3556.2,2081.5,3558.9z M2101.7,3517.4c182.4-2.9,374.2-4.6,565.9-9.7c66.2-1.8,132.9-8.1,198.2-19.1
	c101.2-17.1,169-74.7,189.3-178.9c8-41.2,15.6-83,17.3-124.8c6.4-158.3,11.4-316.8,15-475.2c4.7-205,7.4-410.1,11.2-615.1
	c2.1-110.8,5.2-221.6,6.6-332.5c0.3-24.4,7-42.8,27-56.9c18.1-12.8,35.4-26.7,53-40.1c52.4-39.9,98.3-86,136.2-140.1
	c137.3-196,136.1-450.8-4-640.6c-60.3-81.7-139.6-141.7-226.6-192.4c-137.8-80.3-288.7-123.8-443.3-155.4
	c-165.3-33.8-333.2-48.7-501.3-59c-210.5-12.9-420.8-11.2-630.9,11c-152.7,16.1-301.7,47.6-446.7,97.9
	c-130.9,45.3-252.7,107.3-359.3,197c-254,213.6-251.5,562.2-80.9,769.7c41.3,50.2,89.8,94.8,137.3,139.5
	c25.4,23.9,37.7,48.5,35.6,84.3c-9.5,164.9-16.5,329.9-25.2,494.8c-12.6,239.1-20.2,478.4-19.4,717.9c0.2,78.6,2.4,157.4,8.6,235.8
	c4.9,61.2,20.9,120,68.3,165.2c52.4,49.9,116.9,72,186.4,78.2c143.5,12.8,287,26.7,430.9,32.5
	C1664.4,3510.1,1878.4,3512.3,2101.7,3517.4z"/>
<path d="M2345,2088.5c3.6-99.6,84.1-154.5,155.7-153.6c88.9,1.1,163.3,76.5,159,162.2c-4.9,98.2-71.2,153-165.8,152.9
	C2413.1,2250,2342.7,2170.6,2345,2088.5z"/>
<path d="M1405.2,2247.8c-86.9-0.2-153.5-66.7-153.7-153.4c-0.2-85.1,69-156,152.6-156.4c92.3-0.4,159.9,67.3,158.9,159
	C1562.1,2180.7,1491.6,2248.1,1405.2,2247.8z"/>
<path d="M1944.7,2362.3c-71.3-2.8-132.6-35.7-165.1-111.1c-7.6-17.6-9.2-38.6-9.9-58.1c-0.6-17.7,10-26.8,26.1-28.5
	c15.3-1.6,25.8,4.8,30.7,19.4c3.8,11.5,6.4,23.5,10.4,35c18,51.2,64.3,81.4,121.3,79.7c61.4-1.9,103.9-32.4,119.9-86.4
	c3.1-10.6,5.5-21.4,8.4-32.1c4.4-16.4,14.9-23.9,32-21.7c17.1,2.2,30.8,13.3,29.4,30.1c-1.8,21.7-4.8,44.7-13.8,64.2
	C2099.1,2329.7,2036.6,2364.2,1944.7,2362.3z"/>
<path d="M1255.9,2297c-3.8,7-6.9,15.4-12.3,21.8c-24.2,28.6-48.7,56.9-73.9,84.6c-13.1,14.4-22.6,15.1-33.8,5.5
	c-11-9.5-12-20.3,0.5-34.6c24.6-28.3,49.8-56,76-82.8C1229.5,2273.9,1234.2,2275.2,1255.9,2297z"/>
<path d="M2797,2292.6c-2.4,4.7-4.6,12.5-9.4,18.1c-26.6,31-53.7,61.6-81,92c-9.3,10.3-20.5,13.7-31.7,2.7
	c-10.3-10.1-5.6-20.5,2.2-29.4c26.9-30.8,54-61.4,81.3-91.8c3.6-4,8.6-7.3,13.6-9.2C2782.9,2271,2796.1,2279.3,2797,2292.6z"/>
<path d="M1127.5,2276.5c17.8-0.3,29.4,15.7,23.6,29.9c-2.5,5.9-6.9,11.3-11.4,16.1c-20.3,21.9-40.8,43.7-61.7,65.1
	c-14.1,14.4-23.4,15.8-34,6.3c-11.8-10.6-8.9-22.2-0.1-32.2c23.4-26.6,47.4-52.6,71.6-78.4C1119,2279.5,1124.8,2278,1127.5,2276.5z"
	/>
<path d="M2691.9,2294c-3,6.2-4.5,11.7-7.8,15.8c-21.4,26.4-43.2,52.5-65,78.7c-2.1,2.5-4.5,5.9-7.3,6.5c-7,1.6-16.6,5-21,1.9
	c-5.8-4.2-9.6-13.6-10.7-21.3c-0.8-5.5,3-13.1,7-17.7c20.9-24,42.4-47.5,64.1-70.7c8.2-8.7,18.8-11.9,29.7-4.7
	C2685.3,2285.1,2688.2,2289.9,2691.9,2294z"/>
<path d="M2888.2,2304.6c-5.7,11.8-8.2,20.7-13.5,27.2c-18,22.2-36.4,44.2-55.9,65.1c-12.2,13.1-24,12.9-34.1,2
	c-10.7-11.4-10.8-21.8,1.4-34.6c19.7-20.7,39.8-41.1,60.4-60.9c5.2-5,13.2-9.9,19.9-9.8C2873.3,2293.9,2880,2300.2,2888.2,2304.6z"
	/>
<path d="M1341.3,2318.3c-3.3,8.6-4.3,15.9-8.3,20.6c-18.7,21.8-37.6,43.5-58,63.7c-4.8,4.8-16.6,6.3-23.6,4.2
	c-13.6-4-16.9-17.2-7.7-28.9c18.4-23.5,37.1-46.9,57.6-68.7c5.3-5.7,17.7-7.4,26.2-6.3C1332.7,2303.7,1336.9,2313.2,1341.3,2318.3z"
	/>
<path d="M2799.3,1264.2c14.6-0.6,27.6,10.6,27.3,23.5c-0.3,12.6-6.7,20.3-20,20.8c-15.2,0.6-25.8-8.7-26-22.9
	C2780.5,1272.4,2787.9,1266,2799.3,1264.2z"/>
<path d="M2500.2,2605.7c-14.8-0.1-24.6-8.6-23.1-21.2c1.4-12.7,9.1-19.4,22.2-19.1c14.1,0.3,22.8,8.9,22.9,22.3
	C2522.2,2602.7,2512.2,2605.4,2500.2,2605.7z"/>
<path d="M1595.3,780.3c-3.9-4.6-13.2-11.2-16-19.9c-3.9-12.1,8.2-24.7,20.5-24c13.1,0.8,19.5,9.3,20.9,21.6
	C1622,770.1,1613.2,779.6,1595.3,780.3z"/>
<path d="M2453.1,819.9c-0.7,11.7-12.7,21.3-25.5,20c-13.5-1.4-19.3-10-17.8-22.7c1.4-11.7,7.2-20.8,20.9-20.8
	C2443.4,796.5,2453.8,807.7,2453.1,819.9z"/>
<path d="M2503.6,1616.4c13.5,0,24.5,10,23.7,22.4c-0.8,12.8-7.4,20.5-20.9,20.9c-13.7,0.4-20.4-6.3-20.5-20
	C2485.8,1625.2,2492.3,1616.4,2503.6,1616.4z"/>
<path d="M2915.3,1192.7c-10-11.3-19.5-17.6-22.1-26c-3.8-12.1,7.8-23.1,20.6-23c13.7,0.1,25.8,10.1,22.4,21.6
	C2933.6,1174,2924.7,1180.8,2915.3,1192.7z"/>
<path d="M1181.3,3125.2c9.1,12.8,18.6,20.4,19.8,29.2c1.7,11.9-7.7,19.8-20.7,19.7c-11.8-0.1-23.4-10.7-20-20.5
	C1163.5,3144.6,1171.8,3137.6,1181.3,3125.2z"/>
<path d="M2649.1,3072.7c-10.7-1.1-21.4-3.5-21.3-18.2c0.1-12.7,11-24.1,22.3-23.3c12,0.9,20.7,6.8,22.3,19.5
	C2674,3062.7,2663.7,3072.4,2649.1,3072.7z"/>
<path d="M1152.9,1022.3c-11.9,10.9-18,20.8-26.4,23.2c-10.8,3.1-21.3-2.4-22.8-16.5c-1.4-13.6,7.3-26.5,19.1-24.4
	C1131.7,1006.2,1139.4,1014,1152.9,1022.3z"/>
<path d="M1042.9,1675.1c13.1-0.1,21.9,9.1,21.4,21.2c-0.6,14.1-9.5,19-22,18.9c-11.8-0.1-18.4-6.1-17.9-18.5
	C1025,1683.9,1031.1,1676.3,1042.9,1675.1z"/>
<path d="M1374.1,2898.6c-10.2-12.7-19.3-19.6-21.7-28.3c-3.2-11.3,10.1-20.9,23.5-19.9c12.2,0.9,18.7,9.3,16.7,19.4
	C1390.7,2878.3,1382.7,2885.7,1374.1,2898.6z"/>
<path d="M2777.4,3007.4c-1.6,20-10.9,24.2-23.2,23.8c-11.5-0.3-18.7-6.2-19.1-18.2c-0.3-11.6,10.3-23.3,20.6-20.2
	C2764.6,2995.5,2771.9,3003.5,2777.4,3007.4z"/>
<path d="M1206.5,917.4c-2,19.1-10.3,24.7-22.8,24.9c-12.3,0.1-20.3-9.2-18.2-21.6c2-11.7,8.2-22.6,21.2-19.2
	C1195.2,903.7,1201.6,913.3,1206.5,917.4z"/>
<path d="M2759,3154.3c-6.5,3.6-14.5,10.5-23.6,12.5c-11.2,2.6-18.5-5-19.7-16.5c-1.3-11.8,5.3-18.6,16.3-20.6
	C2743.1,3127.6,2757.5,3138.4,2759,3154.3z"/>
<path d="M1506.7,1378c-12.1,11.1-18.3,20.3-26.8,23.6c-9.1,3.6-23.4-9.3-22.8-18.4c0.8-12.9,9.4-20.8,21.3-20.1
	C1486.2,1363.6,1493.5,1370.7,1506.7,1378z"/>
<path d="M1850.9,3353.6c-11.4,9.7-18.3,20.1-24.5,19.7c-7.4-0.5-17.2-8.9-20.6-16.3c-4.5-9.8,7.6-23.2,18.2-20.6
	C1832,3338.3,1838.7,3345.5,1850.9,3353.6z"/>
</svg>
