<?xml version="1.0" encoding="utf-8"?>
<!-- Generator: Adobe Illustrator 24.3.0, SVG Export Plug-In . SVG Version: 6.00 Build 0)  -->
<svg version="1.1" id="Layer_1" xmlns="http://www.w3.org/2000/svg" xmlns:xlink="http://www.w3.org/1999/xlink" x="0px" y="0px"
	 viewBox="0 0 4000 4000" style="enable-background:new 0 0 4000 4000;" xml:space="preserve">
<path d="M1997.2,3263.8c-153-2.5-305.7-8.8-457.5-28.8c-131.4-17.3-261.9-38.8-388.4-79.7c-102.2-33-200.4-74.5-289.4-135.7
	c-92.9-64-164.8-145.4-207.6-250.5c-9.6-23.5-23.5-35.1-48.2-39.8c-64-12-128-24.6-191.2-39.8c-61.3-14.8-116.9-42.6-163.3-86
	C141.9,2500.8,134.7,2337,236,2221.1c22.5-25.8,50.8-46.8,77.8-68.3c18.3-14.5,38.6-26.6,58.7-38.6c41.7-24.8,56.3-62.3,52.7-108.7
	c-1.8-23.4-4-46.7-5.4-70.1c-5.3-92.9,32.7-164.1,110.1-214.1c26.4-17,55.1-30.7,82.9-45.5c14.4-7.7,29.5-14,43.6-21.9
	c41.3-23.2,68.2-57.3,77.7-104.3c6.7-32.9,13-65.9,20.6-98.6c25.7-110.2,97.5-172.9,205.5-197.2c31.7-7.1,63.8-13,96-18.2
	c63.2-10.2,108.6-42.5,134.4-102.3c11.7-27.1,25.7-53.3,40.4-78.8c53.8-93.2,134.2-141.4,242.6-143.9c45.7-1.1,91.4-4.8,136.8-10.2
	c40.1-4.8,71.9-27.3,99-56.2c18.1-19.3,34.9-40,53.3-59c48.8-50.3,105.7-85.9,176.6-95.5c107-14.4,194.4,21.6,262,104.7
	c21.7,26.7,39.5,56.8,58.4,85.8c25.4,38.9,53.6,74,98.3,92.9c31.1,13.2,63.2,14.3,95.9,13.8c54-0.9,108-3.5,162-2.2
	c58.4,1.4,111.5,21.1,159.1,55.4c45.7,32.9,72.8,78.9,93.2,129.6c9.1,22.7,17,45.9,24,69.3c21.6,72.1,65.3,123.3,137.9,147.8
	c43.4,14.6,86.8,29.1,130.1,44.1c56.5,19.6,108.5,47.1,149.5,91.7c46.6,50.7,69,112.1,77.1,179.5c5.7,47.5,9.9,95.3,17.1,142.5
	c7.3,47.5,29.7,88.1,62.1,123.8c38,42,84.1,73.8,129.5,106.7c55.2,39.9,103.2,86.2,135.1,147.3c50.8,97.4,59,195.9,6.5,295.5
	c-28.7,54.4-71.6,95.2-129.1,115.9c-52.5,18.8-107.8,29.6-161.4,45.4c-34.1,10.1-67.5,22.6-101,34.5c-16.1,5.7-27.2,16.9-34,33
	c-10,23.4-21,46.4-31.8,69.5c-56.9,121.6-151.7,204.7-268.4,266.2c-107.3,56.5-222.7,89.4-340.1,116.3
	c-139.4,31.9-280.9,48.4-423.5,55.4C2164.2,3258,2080.7,3260.6,1997.2,3263.8z M1810.6,1202.9c-11.8,22.3-22.3,41.8-32.6,61.4
	c-46.9,89.5-98.6,175.8-163.6,253.8c-80.4,96.6-170.5,183.8-263.9,267.4c-34.1,30.5-71.7,57.1-108.2,84.9c-6.4,4.9-14.7,7.4-22,10.9
	c-9.1-15.5,0.8-20.2,7-26.2c117.5-113.3,228.3-232.8,333.3-357.7c9.4-11.2,18.3-23,27.4-34.5c-1.7-2-3.4-3.9-5.1-5.9
	c-23.4,13.4-47.3,25.9-70.1,40.3c-117.5,73.8-229.3,155.5-338.4,241.1c-136,106.7-252.7,230.8-346.1,376.2
	c-99,154.1-153.6,321.2-138.5,506.5c2.5,31.2,8.8,62.6,17.4,92.8c30.2,106,100.5,182.4,187.2,245.6
	c101.9,74.4,217.5,119.1,338,152.1c168.7,46.2,341.3,69.8,515.5,79c198.6,10.4,397.2,8.4,595.6-9.4
	c156.8-14.1,310.8-41.3,461.4-86.8c104.1-31.5,202.5-75.1,287.7-144.2c81.2-65.8,133.8-149.2,155.7-252.2
	c21.8-102.5,11.6-202.8-16.9-302c-41.8-145.2-116.8-272.9-210.2-390.4c-114.9-144.7-253.6-264.4-398.1-378.1
	c-84.8-66.8-168.3-135.3-252.4-202.9c-4-3.2-9.1-5-13.7-7.4c-1.6,1.6-3.1,3.3-4.7,4.9c27.8,39.9,55.3,80.1,83.6,119.7
	c27.8,39,56.5,77.3,84.8,116c28.4,38.9,61.4,74.5,87.4,114.6c-12.2,11.8-19.5,5.9-26.4-0.6c-10.4-9.8-20.5-19.9-30.7-29.8
	c-86.3-84-167.9-172.3-235.7-272.2c-26.3-38.7-49.5-79.5-74-119.4c-5.2-8.5-8.6-19.1-21.9-17.8c-34.3,3.4-68.5,6.7-106.8,10.4
	c10.5,45.9,20.6,91.3,31.5,136.4c10.9,45.6,22.2,91.1,34.2,136.3c11.8,44.3,24.7,88.3,37.1,132.4c12.7,45.1,26.2,90,37.9,135.4
	c11.6,44.8,32.4,87.1,39.2,135.2c-19.6-6.2-19.7-6.2-28.5-25.9c-57-127.6-107-257.9-144.8-392.4c-23.1-82.2-40.8-166-59.6-249.4
	c-3.3-14.5-9.7-20.7-23.2-23.5c-38.2-8-74.2-21.6-106.9-43.4c-2.9-1.9-6.8-2.2-11.8-3.7c-1.6,8.5-3,14.3-3.9,20.1
	c-5.5,37.2-8.6,75-16.6,111.7c-38,173.1-101.2,337.2-179,496.1c-8.1,16.5-16.5,32.8-25,49c-4.5,8.6-9.9,15.8-20.9,9.3
	c-0.7-2.5-2.1-4.6-1.6-6.2c3.3-10.7,6.9-21.3,10.6-31.8c55.9-158.4,112.9-316.7,149.1-481.1c13.1-59.5,19.5-120.5,27.4-181
	c1.4-10.8-1.8-25.2-8.5-33.4C1840.4,1221.5,1826,1214.4,1810.6,1202.9z M3324.8,2651.6c59.7-31.4,121.3-40.6,181.7-54
	c18.8-4.2,37.4-9.9,55.7-16.3c109.2-38.3,167.9-150.9,137.2-262.6c-20.2-73.8-64.6-130.9-123.7-177.4
	c-31.2-24.6-63.6-47.7-95.4-71.5c-79.3-59.2-132.6-134.5-144.4-235.1c-1.7-14.2-3.6-28.3-5.1-42.5c-3.7-34.4-6-69.1-11-103.3
	c-9.5-66.1-41.5-119.7-99-154.1c-32.9-19.7-69.1-34.5-104.9-48.7c-34-13.5-69.5-23.3-104.3-34.8c-88.5-29.3-147-88.2-175.5-177.2
	c-9.6-30-20.5-59.8-32.4-88.9c-35.4-86.3-101.3-130.1-193.6-134.4c-29.5-1.4-59.1-0.2-88.6,0.1c-32.6,0.2-65.2,0.8-97.8,1.1
	c-81.8,0.6-145.2-34-191.9-100.5c-26.3-37.5-50.6-76.6-79.1-112.4c-81.6-102.6-208.9-117-310.6-34.6c-30.6,24.8-58.4,54.1-83.4,84.6
	c-43,52.6-99,76.9-164.3,83c-38.5,3.6-77.3,5.4-115.9,5.8c-93,0.8-159,43.3-200.3,125.7c-12.8,25.5-25.2,51.2-37.9,76.7
	c-31.5,63.4-81.1,103.3-151.2,116.8c-39,7.5-78.1,14.5-116.7,24c-49.6,12.2-93.6,34.2-124,77.8c-19.7,28.3-29.9,59.9-36.5,93.2
	c-5.9,30-10.9,60.2-17.5,90c-7.7,34.7-24.8,64.1-50.7,88.9c-29.2,27.9-62.9,48.3-99.4,64.7c-37.3,16.8-73,35.9-103.8,63.6
	c-35.5,31.9-54.5,70.4-52.3,118.6c1.6,34.6,3,69.2,4,103.8c1.8,59.9-23.3,106.5-71.5,140.9c-24.9,17.7-51.8,32.7-75.8,51.5
	c-24.7,19.3-50,39.3-69.7,63.4c-64.6,79.1-58.3,190.8,11.5,265.3c45.1,48.2,102.8,72.5,165.2,86.4c53.6,11.9,107.9,20.5,162,30.2
	c3.5,0.6,7.4-1.1,11.7-1.8c0.4-5.5,1.2-9.5,0.8-13.4c-14.6-135.7,9.2-266,57.7-392.2c39.4-102.6,98.2-194.3,164.7-281.3
	c92.9-121.5,202.7-226.1,324.5-317.8c80.5-60.6,164.3-117,246.9-175c64.2-45.1,129-89.2,192.8-134.7
	c47.4-33.8,81.9-79.2,108.7-130.4c13.7-26.1,25-53.5,38.5-79.8c5.2-10.1,13.2-18.8,19.7-27.8c41.4,18.7,71.6,45.9,103.1,71.9
	c89,73.3,189.4,109.8,306.2,90.8c25.1-4.1,50.5-6.2,75.7-9.5c19.6-2.6,35.3,3.1,49,18.1c98.5,107,212.2,196.5,328,283.3
	c119.3,89.4,231.9,186.3,334.1,295c109.6,116.6,203.9,243.5,267.8,391.5c53.5,124.1,87.6,251.9,78.7,388.6
	C3322.2,2638.5,3323.5,2642.4,3324.8,2651.6z"/>
<path d="M2408,2678.2c-63.9,0.1-120.6-57.1-120.8-121.8c-0.2-67.9,56.9-127.4,122.5-127.6c66.8-0.2,124.4,57.3,125.3,125
	C2536,2623.5,2480.3,2678.1,2408,2678.2z"/>
<path d="M1681.5,2557.5c-0.1,66.7-56.4,120.3-125,119.3c-62.7-0.9-121.1-57.8-118.6-119.9c3.2-82.5,59.4-124.3,123-125.7
	C1629.2,2429.6,1681.6,2485.4,1681.5,2557.5z"/>
<path d="M1988.6,2771.2c-70.4,0-125.8-38.9-144.6-100.3c-3.5-11.5-4.6-23.9-5-36c-0.4-12.2,5.1-21.8,18.5-24.3
	c14.2-2.7,23.9,3.1,28.9,16.3c2.5,6.6,3.5,13.8,5.5,20.6c13.5,45.7,50.9,75.6,94.1,71.1c62.1-6.4,86.9-31.7,95.9-77.5
	c0.8-4,1.4-8,2-12.1c1.9-13.8,8.1-23,23.6-22.2c16.3,0.9,26.7,10.4,26.5,27.3c-0.7,48.2-21.5,86.5-61.4,113.3
	C2046.6,2765,2017.1,2772.5,1988.6,2771.2z"/>
<path d="M1431.9,2713.3c-1.7,3.5-3.1,9.9-6.9,14.2c-19.7,21.9-39.9,43.5-60.3,64.7c-6.9,7.1-15.3,10-24.6,3.3
	c-10-7.3-8-16.5-1.7-23.9c20.4-24,40.6-48.3,63-70.3C1412.9,2690,1431,2697.3,1431.9,2713.3z"/>
<path d="M2555.7,2802.6c-4-8.8-9.8-15.5-9-21.4c1-7.4,6.6-14.7,11.6-21c13.8-17.6,27.9-34.9,42.7-51.7c4.4-5,11-10.2,17.1-10.9
	c5.8-0.6,13.9,3.2,17.9,7.8c2.5,2.9,0.3,11.1-1.6,16.2c-1.7,4.5-5.8,8.3-9.2,12c-16.3,18.1-32.4,36.3-49.2,54
	C2571.4,2792.6,2565,2795.9,2555.7,2802.6z"/>
<path d="M1357.8,2702.6c-6.1,9.2-10.4,16.9-15.9,23.7c-14.9,18.1-30.2,35.7-45.5,53.4c-7.6,8.8-16.9,12-26.6,3.8
	c-9-7.6-6.3-17.1-0.1-24.4c16.3-19.5,33-38.6,50.5-57C1329.6,2692,1341.6,2692,1357.8,2702.6z"/>
<path d="M2557,2715.4c-2.3,3.1-5.5,8.2-9.4,12.7c-15.2,17.7-30,35.7-46.2,52.5c-3.7,3.9-14.6,6.8-17.6,4.4
	c-5.3-4.2-11.5-16.7-9.5-19.1c19.4-23,39.4-45.8,61.7-65.9C2544,2692.7,2558.5,2703.3,2557,2715.4z"/>
<path d="M1432.7,2795.5c-11.7-0.1-20.3-11.7-13.1-20.9c17.6-22.2,36.9-43.2,57.2-63c7.6-7.4,18-1.1,20,9.8c0.5,3,0.7,6.1,0.2,9.1
	c-2.2,14.9-43.7,60.4-58.3,64C1436.7,2794.9,1434.7,2795.2,1432.7,2795.5z"/>
<path d="M2686.3,2706.5c16.6,12.4,18.9,22.4,8.8,34c-12.7,14.4-25.5,28.7-38.7,42.7c-3.4,3.6-7.8,7.7-12.2,8.4
	c-5.3,0.8-13.1,0.1-16.2-3.3c-2.9-3.1-3.3-11.9-1-16C2641.6,2746.2,2664.2,2727.8,2686.3,2706.5z"/>
<path d="M1324.1,1448.4c-18.5,13.1-23.1,14-32.3-0.2c-28.2-43.6-56.2-87.4-72.2-137.5c-1.8-5.7-2.9-11.9-2.6-17.8
	c0.2-3.3,3.4-8.3,6.2-9.1c4.2-1.1,9.8-0.3,13.8,1.8c3.2,1.7,5.1,6.2,6.9,9.8C1270.4,1345.7,1296.7,1396.1,1324.1,1448.4z"/>
<path d="M2854.4,1389.6c-3.6,11.7-4.5,22-9.4,29.7c-26.3,41.2-53.5,81.8-80.7,122.5c-7.3,11-16.4,18-33.1,6.9
	c5.2-11,9.1-22.3,15.4-32.1c23.1-36,46.8-71.6,70.7-107.1C2824.4,1398.8,2830.6,1385.8,2854.4,1389.6z"/>
<path d="M811.3,1635.8c7.8,6.2,15.1,10.7,20.9,16.7c31,32.3,61.5,65.1,92.5,97.5c6.6,6.9,15.3,14.6,5.8,22.6
	c-5.2,4.3-16.4,2.6-24.7,1.5c-4.4-0.6-8.9-5-12.3-8.7c-25.8-28.8-51.7-57.5-76.5-87.2C808.2,1667.7,800,1655,811.3,1635.8z"/>
<path d="M680.8,2152.8c-14.6-2.2-29.5-3.3-43.7-7c-30.4-7.9-60.5-16.8-90.5-26c-6.5-2-13.6-5.5-17.9-10.5
	c-3.2-3.8-4.8-12.2-2.7-16.4c1.8-3.8,10.5-7.7,14.6-6.5c44.5,13.7,88.8,28,132.8,43.2c5,1.7,7.9,9.6,11.8,14.6
	C683.7,2147.1,682.2,2150,680.8,2152.8z"/>
<path d="M3343.3,1967.7c10.2,13.9,4.3,23.7-5.4,30.2c-34.5,22.8-69.3,45.2-104.7,66.5c-6.8,4.1-17,2.3-30.7,3.8
	c3.5-10.5,3.7-19,7.7-21.6c40.6-26.5,81.7-52,122.8-77.6C3335.2,1967.5,3338.7,1968.2,3343.3,1967.7z"/>
<path d="M2286.9,1220.1c-17.6,2.5-26.6-3.1-25.2-17.2c4.5-43.4,9.9-86.8,15.9-130c1.5-10.9,9.4-17.6,25.1-16.1
	c5.7,28.5-5.6,55.7-7.1,83.2C2294.2,1166.9,2289.9,1193.7,2286.9,1220.1z"/>
<path d="M1759.8,952.4c6,5.5,14.9,9.9,17.4,16.7c12.6,35.1,23.6,70.8,34.7,106.5c0.7,2.1-2,5.3-3.5,8.9
	c-18.9-0.2-29.1-9.3-33.7-27.4c-5.4-21.5-13-42.5-18.4-64.1c-2.8-11.4-3-23.4-4.3-35.1C1754.6,956,1757.2,954.2,1759.8,952.4z"/>
</svg>
