<?xml version="1.0" encoding="utf-8"?>
<!-- Generator: Adobe Illustrator 24.3.0, SVG Export Plug-In . SVG Version: 6.00 Build 0)  -->
<svg version="1.1" id="Layer_1" xmlns="http://www.w3.org/2000/svg" xmlns:xlink="http://www.w3.org/1999/xlink" x="0px" y="0px"
	 viewBox="0 0 4000 4000" style="enable-background:new 0 0 4000 4000;" xml:space="preserve">
<path d="M1929.1,3091c-234.1,0-468.2,2.2-702.2-0.6c-238.9-2.9-477.7-10.1-716.5-16.9c-49.1-1.4-98.3-7.2-146.8-15.2
	c-87.1-14.3-142.1-69.5-176-148.1c-23.3-53.8-34.4-110.7-39.4-168.8c-12.8-151.5-0.3-301,30.7-449.7c55.4-265.5,163.5-507,325.8-724
	c105-140.4,230.5-260.1,371.1-364.8c136.1-101.3,284.2-179.9,442.9-238.1c74.1-27.2,151.7-44.9,227.6-67.3c17.5-5.2,35.5-10,51.8-18
	c47.7-23.6,97.1-30.7,149.4-21.8c14,2.4,28.7,1.9,43,1.3c25.1-1,50.2-4.2,75.3-4.7c184.4-3.8,367.1,9.1,546.7,54.2
	c217,54.5,417.7,144.6,601.4,272.5c6.3,4.4,13.1,8.3,19.1,13.1c38.7,30.9,79.5,54.2,129.9,65c51.2,11,89.9,47.4,108.7,96.7
	c20.5,53.7,54,96.2,90.5,139.5c188.2,223.3,315.2,478.3,386.2,761.6c7.2,28.8,18.1,56.9,29.3,84.5c9.1,22.2,11.4,43.3,7.7,67.6
	c-4,26.3-2,53.8,0.2,80.6c9.8,120.2,9.3,239.6-20.4,357.5c-10.4,41.4-24.5,81.3-49.4,116.9c-31.3,44.8-73.5,73.1-125.8,87.6
	c-64,17.8-129.8,20.9-195.4,22.5c-232.1,5.6-464.1,10.8-696.2,13.9c-256.3,3.4-512.6,4.4-768.9,6.4
	C1929.1,3093.3,1929.1,3092.2,1929.1,3091z M3729.1,2735.5c-29.8,32-57.7,61.1-84.3,91.3c-3.9,4.5-3.6,14.3-2.6,21.2
	c1.3,9.4,6.2,18.3,7.9,27.8c7.7,43.8-16.3,79.7-59.3,88.2c-33.9,6.7-62.8-4.6-88.1-26.9c-51.8-45.5-82.6-104.4-103.4-168.5
	c-17.5-54.2-33.1-109.2-46.4-164.6c-33.5-140.1-64.8-280.6-119.7-414.6c-65.4-159.3-156.7-301.7-272.9-428.1
	c-68.3-74.3-146.6-137.3-229.5-195c-184.1-128.3-388.4-202.1-610.7-226.1c-103.2-11.2-206.4-8.6-309.6,4.1
	c-213.3,26.1-409,99.1-586.6,218.9c-221,149-384.2,348.2-497.8,588.5c-65.6,138.8-110.4,284.4-142.5,434.3
	c-17.6,82.2-37.7,164-74.2,240.6c-17.6,36.9-39.9,70.7-69.9,98.9c-23.4,22-51.2,34.2-83.5,35.5c-28.4,1.2-47.6-11.7-59.8-37.2
	c-11.6-24.3-3.9-47.2,3.1-70.4c6.7-22.2,7.1-23-13.5-33.7c-28.3-14.7-51.1-34.5-66.8-62.4c-1.4-2.4-3.9-4.2-5.9-6.3
	c2.8,37.1,7.2,73,18.1,106.7c20.1,61.9,53.5,114.9,120.8,134.2c33.2,9.5,68,16.2,102.5,18.2c93.6,5.6,187.4,9.7,281.2,11.4
	c256.3,4.6,512.5,8.1,768.8,11.3c557.1,6.8,1114.1-7.3,1671.2-10.4c74.4-0.4,148.9-2.7,223.3-6.8c49.1-2.7,98.2-8.4,146.8-16.3
	c66.1-10.8,118.4-43.4,142.1-109.1c16-44.4,28-90.3,41.3-135.7C3730.3,2749.2,3729.1,2743.6,3729.1,2735.5z M2378,1128.1
	c0-4.7,0.7-7-0.1-8.4c-33.7-60.3-82-101.8-150.6-117.2c-45-10.1-88.2-1.7-130.9,12.9c-39.5,13.5-79.5,23.7-122.1,17.5
	c-45.5-6.7-83.3-29.4-120.1-54.9c-20.6-14.3-41-29.2-62.7-41.7c-65-37.5-128.1-30.4-187.4,12.8c-58.7,42.8-84.3,106.2-103,173.3
	c-0.4,1.6,0.8,3.6,2,8.5c8.3-6.4,15.8-11.8,22.9-17.7c74.8-61.2,160.5-77,253.6-59.8c72.7,13.5,132,52.8,186.6,100.5
	c34.4,30,64.5,63.8,90.7,101.3c5.6,8,15,17.3,23.5,18.4c22.1,2.8,43.4,0,62.7-15.5C2213.5,1201.4,2287.8,1151.3,2378,1128.1z
	 M417.5,2229c-20.9,14.3-39.8,27.1-58.4,40.3c-30.4,21.3-56,47.3-76.7,78.2c-23.3,34.9-26.5,71.9-10.2,110.4
	c7.6,17.8,16.1,35.1,24.6,52.5c16.6,33.6,15.5,67.1-0.1,100.6c-7.8,16.6-16.5,32.8-23.8,49.7c-19.8,46.3-10.1,76.6,33,103.3
	c13.1,8.1,27.4,14.3,40.6,22.3c21.5,13,25.6,24.1,19,48.7c-3,11.2-7,22.1-10.2,33.2c-3.3,11.2-5.3,22.4,3.5,33.3
	c25.1,1,38.5-16.6,52-32.3c31.2-36.4,54-78.1,67.8-123.8c17.1-56.3,32-113.3,46.9-170.2c6.6-25.1,18-51.8,14.4-75.9
	c-3.5-22.9-23.3-43.6-36.7-64.8c-35.8-56.8-65.1-116.3-77.3-183.1C424.8,2245.1,421.4,2239.2,417.5,2229z M834.1,1562.3
	c19.6-8.4,19.6-8.4,32.6-30.2c44.7-75.5,108.7-124.1,195.8-140.7c54-10.3,107.8-7.2,161.2,3.3c31.2,6.1,61.9,15,92.6,23.3
	c30,8.1,33.2,6.9,46.4-21.8c0.4-0.9,0.8-1.7,1.2-2.6c21.8-50.5,43.8-100.9,65.3-151.5c2.2-5.3,1.8-11.7,3.3-22.4
	c-23.4,11.4-42.4,20.3-61.2,29.8c-62.8,31.8-126.7,38.7-192.6,10.1c-14.2-6.1-28.6-11.6-43.2-16.8c-102-36.3-211.5-7.3-263.8,106.9
	c-4,8.8-7.2,17.9-10.4,27c-16.6,47.8-23.4,97.5-27.2,147.7C833.4,1536.4,834.1,1548.6,834.1,1562.3z M3436.6,2682.5
	c11.1-10.5,20-17.6,27.3-26c60-69.5,99.7-148.6,113.1-240.3c10.8-74-8.6-161.6-107.3-206.8c-53.9-24.7-110.6-40.3-167.2-56.4
	c-5.5-1.6-12.1,0.6-22.7,1.4C3359.8,2323.1,3383.5,2504.7,3436.6,2682.5z M3281.7,2083.1c83,21.3,162.8,43,237.9,81.3
	c17.5-26.7,17.2-54.7,13.8-82.4c-5.9-48.2-27.4-85.9-75.7-104.2c-16.2-6.1-31.9-13.9-47.2-21.9c-35.3-18.6-51-49-49.3-88.1
	c0.8-17.3,4.1-34.4,7-51.6c6.6-39.9,16-79.5,19.8-119.7c4.3-44.8-15.8-80.9-52.1-107c-54.9-39.3-118.4-47.2-187.6-50.9
	c4.5,28.8,7.6,54.4,12.9,79.5c1.3,6.4,8.3,12.9,14.3,16.8c87.8,58,128,141.2,131.5,244.5c2,59.5-8.1,117.4-20.5,175.1
	C3284.5,2063.7,3283.4,2072.9,3281.7,2083.1z M1991.1,1267.2c-44.1-51.8-88.6-95.2-144.6-125.6c-36.2-19.6-74.8-32.6-115.9-33.7
	c-92.3-2.3-166.1,36.4-216.5,112.2c-29.7,44.7-49.8,95.7-74,144c-1.1,2.2-0.5,5.2-0.8,9.2c59.4-18.6,117.1-39.6,176.3-54.3
	c60.8-15.1,122.8-26.5,184.8-35C1861.5,1275.7,1923.3,1272.9,1991.1,1267.2z M786.6,1920.8c-85.6,14.4-162,35.9-227,86.2
	c-65.2,50.4-89.2,118.5-81.9,199.4c6.3,69.2,37,129.3,70,188.5c3.9,7.1,10.5,12.7,17.6,21.1c20.1-59.9,36.7-117,58.4-172.2
	c21.8-55.6,46.9-110.1,73.8-163.4C724.1,2027.6,754.9,1977,786.6,1920.8z M378,2175.4c28.1-7.1,31.6-10,37.2-29.8
	c2.6-9.3,4.4-18.8,6.8-28.2c18.7-74.5,58.7-133.4,124-175.5c36.2-23.3,75-39.8,115.6-52.8c12-3.9,22.9-8,28.5-21.9
	c17.4-43.3,32.1-87,34.3-134.1c1-21.9,2.1-43.7,3.4-69.6c-19.3,4.2-34.4,6.6-48.9,10.9c-41.9,12.4-70.7,38.8-82.9,81.5
	c-4.5,15.8-8.5,31.8-11.1,48c-6.7,41.8-30.6,67.7-70.6,79.6c-21.3,6.4-42.9,11.9-63.8,19.3c-49.5,17.8-82.5,51.6-99.1,102.1
	C331.2,2066.2,347.9,2120.8,378,2175.4z M2666.1,1448.7c-0.4-5.6,0.4-11.2-1.2-16.1c-7.7-22.9-15.9-45.5-24.2-68.2
	c-13-35.5-29.1-69.3-52.2-99.6c-52.3-68.5-124.5-94.4-207.6-72.9c-63.8,16.5-117.9,51.4-169.5,91c-0.8,0.6,0.1,3.4,0.3,7.7
	c78.5,12.4,156.6,30.2,230.9,59.4C2517.7,1379.6,2590.4,1415,2666.1,1448.7z M3090.3,1595.1c1.2-41.2-11.4-103.2-26.1-133.6
	c-31.5-65-91.3-94.3-161.3-73.4c-57.1,17.1-112.5,40-169.9,60.8c1.2,6.7,2.8,13.1,3.5,19.6c2.6,25,14.4,41.7,37.4,54.2
	c23.5,12.9,44.5,30.7,65.3,48c10.7,8.9,20.3,11.2,34.1,9.4c46.2-6,92.6-6.8,138.7,0.9C3037.6,1585.3,3062.9,1590.1,3090.3,1595.1z
	 M2281.1,948.3c2.1,1.8,3.9,4.3,6.3,5.4c69.6,32,119.6,83.8,154.4,151.2c6.2,12,16.2,17.9,29.9,20.1c18.1,2.9,36.1,6.8,53.6,12.2
	c11.2,3.5,20.8,3.1,30.3-3c27.8-18.1,59.4-23.8,91.4-24.1c60.1-0.5,111.8,19.9,149.6,68.5c14.8,19,27.5,39.7,41.8,59.2
	c18.3,25,42.6,35.4,73.5,29c22.7-4.7,45.5-8.8,68.2-13.5c5.9-1.2,11.6-3.8,21.6-7.2C2779.4,1095.6,2545.2,986.4,2281.1,948.3z
	 M399,1848.9c1.8,1.9,3.5,3.8,5.3,5.7c32.9-10.6,65.8-20.8,98.6-31.8c14.2-4.8,20.8-16.1,23.5-30.5c3.6-18.9,6.8-38.1,12-56.6
	c19-67.4,63.1-109.2,131.5-123.9c18.7-4,38.3-4.4,57.5-4.8c15.1-0.3,25.1-6.2,33.4-18.7c11.8-17.8,13.9-37.5,15.1-57.9
	c3.5-56.9,8.9-113.5,27.9-167.9c2.9-8.2,4.2-17,7.5-30.6C636.1,1480.1,502,1652.3,399,1848.9z M890.8,1778.3
	c9.2-8,13.2-10.6,16.2-14.1c95.5-112,206.6-205.9,331.8-283.1c5-3.1,8.3-8.8,15.5-16.6c-66.8-15.8-129.1-24.9-192.7-9
	c-64.7,16.2-113.7,53-143.2,112.9C886.5,1633,886.8,1702.4,890.8,1778.3z M3225.5,2028.3c5.1-7.9,7.6-10.1,8.1-12.7
	c11.2-59,18.7-118.3,7.3-178.2c-14.5-75.8-53.4-133.6-125.6-165.9c-52.1-23.3-107.3-30.6-163.7-30.6c-6.1,0-12.3,1.9-23.9,3.7
	C3054.2,1753.6,3143.4,1885.4,3225.5,2028.3z M3586.9,2895.2c-1.1-11.3-0.4-21.2-3.1-30c-10.7-34.6-0.7-62.4,24.8-86.5
	c14.7-14,29.6-28,42.5-43.5c40.1-48,40.1-115.2,9.8-168.6c-10.5-18.5-27.7-31.2-48.6-37.8c-22.8,41.7-42.5,83.8-67.8,122.1
	c-25.4,38.4-56.5,73.1-85.5,109.8c18,43.2,39,84.3,71.6,118.5C3544.8,2893.9,3561.1,2902.1,3586.9,2895.2z M3452.5,1724.4
	c-1.8,3.7-4.2,6.9-4.9,10.4c-7.6,37.9-15.3,75.8-22.1,113.8c-7.1,39.2-1.5,48.8,35.6,64.5c8,3.4,16.1,6.5,24.1,9.9
	c54.6,23.3,86.3,65.5,103.1,121.5c12,40,4.8,78.4-4.3,117.1c-2.8,11.9-4.6,24-6.9,36.6c20.2,10.6,38.1,20,56,29.3
	c17.1,8.9,31.9,23.1,53.3,27.2C3666.4,2132.7,3511.6,1782.6,3452.5,1724.4z M2712.8,1386.4c55.4-6.8,99-37.1,149.9-53.5
	c-4.2-3.8-5.9-6.5-8.2-7.3c-39.6-14.4-64.6-44.4-85.3-79.2c-5.4-9.1-12.1-17.5-18.8-25.8c-35-43.8-83.8-59.6-137.1-44.1
	c-4.8,1.4-9,5.1-16,9.2C2659.1,1240.7,2686.4,1313.2,2712.8,1386.4z M2967.6,1324.4c20.4,5.4,41.7,8.9,61.1,16.7
	c44.5,17.9,76.5,51.1,91.3,95.7c11.6,35,30.8,46,65.1,42.5c18.6-1.9,37.7,1.6,56.7,2.7c0.8-31.3-12.5-83.4-26.1-108.2
	c-13.1-23.8-32-40.8-56.8-51.6C3094.7,1294.4,3030.8,1307.4,2967.6,1324.4z M1497.5,976.7c-2.3-1.8-4.6-3.6-6.9-5.3
	c-151.7,49.6-301,104.9-437.5,190.7c35.4,3.5,69.2,9.5,101.1,23.7c10.4,4.6,16.2-2.3,21.4-9.7c9.4-13.5,18-27.5,28.1-40.5
	c41.2-52.8,93.3-86.9,162-88.6c22.9-0.5,45.9,4.8,68.9,6.3c7.8,0.5,20.2,0.3,23-4.2C1472.3,1025.8,1484.5,1001,1497.5,976.7z
	 M1226.5,1214.3c32.4,2.8,60.1,0.1,86.1-10.7c37.3-15.5,73.9-32.8,110.3-50.2c18-8.6,19.8-25,3-35.5c-10.9-6.8-25-11.1-37.8-11.5
	c-70.4-2-121,31.9-157.1,90.2C1228.8,1200.4,1228.7,1205.5,1226.5,1214.3z M839.8,1610.5c-37.1,18.5-49.7,46.8-52.9,81.4
	c-5.2,56.6-9.6,113.4-30.8,167.1c-0.5,1.2,1,3.3,2.3,7c23.9-3.3,48.2-6.6,74.8-10.3C826,1773.5,825.5,1694,839.8,1610.5z
	 M1887.3,921.6c43.4,36.5,89.2,61.7,147.9,45.8c50.5-13.7,101.3-26,153.3-39.2C2087.8,918.9,1988.1,910.2,1887.3,921.6z
	 M3633.8,2306.2c1.8,26.6,5.6,51.2,4.6,75.6c-1,24.6-6.8,48.9-10.8,75.5c16.9,8.4,33.5,16.5,50.6,25c6.3-16.1,11-28.6,16.1-41.1
	c22.6-55.6,22.4-57.4-17.7-101.6c-8.4-9.2-17.7-17.7-27.2-25.7C3645.5,2310.5,3639.8,2309.1,3633.8,2306.2z M288.5,2127.4
	c-22.5,53.4-35.6,107.6-48.9,168.4c29.6-27,54.5-49.2,78.5-72.3c3.9-3.7,6.3-13.1,4.4-17.9C312,2179.2,300,2153.4,288.5,2127.4z
	 M203.1,2653.6c2.2,0.3,4.4,0.6,6.6,0.8c11.5-27.3,23.3-54.5,34.5-81.9c2.1-5.2,3-11.2,2.8-16.8c-0.5-11.8-24.5-57.4-39.1-72.8
	C204.2,2542.1,201.6,2597.8,203.1,2653.6z"/>
<path d="M2353.9,2734.5c-62.9,0.3-115.4-51.1-115.8-113.3c-0.4-65.5,51.2-116,118.9-116.4c64.2-0.4,121.7,52.4,118.9,113.7
	C2472.9,2687,2433.5,2731.1,2353.9,2734.5z"/>
<path d="M1548.8,2732.9c-67-1-116.6-49.9-116.3-114.7c0.3-65.2,53.2-114.2,121.4-112.6c61.6,1.4,112.9,53.4,112.2,113.6
	C1665.3,2683.5,1613.4,2733.9,1548.8,2732.9z"/>
<path d="M1954.3,2823.4c-64.8-3.4-115.1-28.9-135.7-96.6c-3.3-10.8-3.7-22.7-3.9-34.2c-0.2-11.1,7.1-17.7,17.5-20.1
	c11.6-2.7,21.2,0.8,26.6,12c2.9,6,4.9,12.6,6.9,19c17.2,54.9,65.8,80.6,119.9,62.1c30.1-10.3,52-29.3,55.8-63.5
	c0.5-4.8,2.1-9.4,3.1-14.1c2.2-10,5.8-18.3,18.3-18.7c13.5-0.4,26.3,6.8,28.7,19.4c1.8,9.2,1.3,19.3-0.6,28.6
	C2078.1,2781.6,2025.1,2822.5,1954.3,2823.4z"/>
<path d="M2568.8,2761.8c-0.6,3-0.6,4.1-1,4.9c-15.9,31.2-37.7,57.9-64.7,79.9c-3.8,3.1-14.7,0.5-20.4-2.8c-8-4.8-6.9-13.6-1.2-20.1
	c20.4-23,40.9-46,62.3-68c3.6-3.7,12.3-3.9,18.4-3.2C2565.1,2752.9,2567.2,2759.3,2568.8,2761.8z"/>
<path d="M1352.7,2849c-12.3,0.6-20.9-12.5-13.3-22.2c18.2-23.3,38-45.5,58.2-67.2c6.2-6.6,16.7-7.6,22.7,0.9c3,4.2,3.8,14.2,1,17.6
	c-19.8,23.4-40.7,45.7-61.5,68.2C1358,2848.1,1354.5,2848.3,1352.7,2849z"/>
<path d="M2423.5,2839.9c-20.1-14.8-22.2-20.2-10.4-34.3c13.6-16.2,28.7-31.3,43.5-46.5c3.2-3.3,8.1-7.1,12.1-7
	c6.1,0.2,13.6,2.1,17.6,6.2c2.7,2.7,2.5,12.2-0.2,15.4C2466.4,2796.9,2450,2823.6,2423.5,2839.9z"/>
<path d="M1351.6,2766.2c-3.4,5.4-5.3,9.9-8.5,13.3c-16.5,17.6-33.4,34.8-50,52.3c-7.3,7.7-14.8,8.3-22.7,1.5
	c-8.7-7.4-6.4-16.1-0.3-22.9c15.5-17.2,31.1-34.4,48.3-49.7c5.2-4.6,15.8-4.2,24-4C1345.4,2756.7,1348.3,2762.6,1351.6,2766.2z"/>
<path d="M2634.1,2777.7c-1.8,5-2.1,9.4-4.5,12.1c-16.1,18-32,36.2-49.4,52.7c-3.7,3.5-14.5,2.2-20.2-0.6c-2.6-1.2-3.5-13.7-0.5-17.4
	c15.1-18.8,31.3-36.8,48.3-53.9c3.6-3.7,12.4-3.8,18.4-2.9C2629.3,2768.2,2631.6,2774.4,2634.1,2777.7z"/>
<path d="M3131.9,2772.9c-17.8-0.4-29-12.1-28.1-29.6c0.8-17.1,13.5-29.2,29.8-28.4c17,0.8,28.9,13.5,28.2,30.2
	C3161,2763.2,3150.1,2773.4,3131.9,2772.9z"/>
<path d="M1427.7,2849.6c-4.7-3.2-11.1-5.4-13.1-9.6c-2-4.3-1.9-12.5,0.9-15.7c16.1-17.7,33.1-34.6,50.4-51.1
	c2.7-2.5,10.3-3.6,12.9-1.6c4,2.9,7.6,9,7.9,13.9c0.3,5.2-2.4,11.6-5.8,15.6c-11.9,13.8-24.4,27-37.4,39.8
	C1439.8,2844.8,1433.8,2846.4,1427.7,2849.6z"/>
<path d="M1328.4,1867.5c-16.8,0.1-29.4-12.1-29.5-28.3c-0.1-16.7,12.7-29.9,28.5-29.5c16.4,0.4,29.3,13,29.6,28.9
	C1357.3,1855.5,1345.5,1867.4,1328.4,1867.5z"/>
<path d="M2883,2074.8c0.7,16.4-11.1,29.7-27.5,31c-16,1.3-29.9-10.8-31.2-27.1c-1.1-15.1,12.1-30.2,27.5-31.3
	C2867.8,2046.4,2882.3,2059.1,2883,2074.8z"/>
<path d="M882.8,2684.8c17.1,0.1,31.6,12.6,31.4,27.1c-0.3,15.6-16,30.2-32.7,30.2c-15,0-28.4-15-27.4-30.9
	C854.9,2696.6,867.7,2684.8,882.8,2684.8z"/>
<path d="M1233.7,2351.5c-0.6,17.7-12,28.9-29.1,28.4c-15.1-0.4-28.3-15.4-27.2-31c1-14.4,14.2-27.1,28.4-27.2
	C1222.1,2321.5,1234.3,2334.5,1233.7,2351.5z"/>
<path d="M1655.9,2053.5c-16.9,0.6-28.9-9.3-29.8-24.6c-1-16.8,10.7-31.9,25.7-33.2c16.4-1.4,30.3,10.7,31.2,27.2
	C1683.9,2040.6,1673,2052.9,1655.9,2053.5z"/>
<path d="M2054,1627.4c0,14.3-13.2,28.4-26.6,28.5c-16,0.1-29.2-13-29.5-29.2c-0.3-16.7,12.4-30.2,28.1-29.8
	C2041.1,1597.2,2054,1611.3,2054,1627.4z"/>
<path d="M2946.6,2539.2c0.4,17.9-10.6,29.2-28.5,29.2c-15.5,0-28.2-12.1-28.3-27c-0.1-16.4,13.5-30.2,29.1-29.7
	C2934.5,2512.2,2946.3,2523.9,2946.6,2539.2z"/>
<path d="M2653,2255.7c-0.1-15,12.2-27.8,27.2-28.3c17.1-0.6,29.6,11.9,28.9,28.9c-0.7,16.9-11.2,28.4-26.4,28.8
	C2667.3,2285.5,2653,2271.4,2653,2255.7z"/>
<path d="M1031.1,2204.5c-15.3-0.4-27-13.1-26.4-28.3c0.6-16.1,15.3-30.1,30.3-29c14.3,1.1,26,14.4,26.1,29.8
	C1061.1,2194.5,1049.6,2205.1,1031.1,2204.5z"/>
<path d="M2334.7,1921.4c15.5,0,27.5,12.4,27.1,27.9c-0.4,16.9-13.1,28.4-30.6,27.8c-14.4-0.6-25.6-11.6-26.1-26
	C2304.6,1935.6,2318.7,1921.4,2334.7,1921.4z"/>
<path d="M2547.5,1787c-16.8-0.6-26.4-11.2-25.2-28c1.2-16.7,14.5-28.5,30.8-27.4c14.2,1,26,12.5,26.3,25.8
	C2579.8,1774.1,2565.1,1787.6,2547.5,1787z"/>
</svg>
