<?xml version="1.0" encoding="utf-8"?>
<!-- Generator: Adobe Illustrator 24.3.0, SVG Export Plug-In . SVG Version: 6.00 Build 0)  -->
<svg version="1.1" id="Layer_1" xmlns="http://www.w3.org/2000/svg" xmlns:xlink="http://www.w3.org/1999/xlink" x="0px" y="0px"
	 viewBox="0 0 4000 4000" style="enable-background:new 0 0 4000 4000;" xml:space="preserve">
<path d="M1923.2,3737.6c-202.8-7.6-405.6-14.2-608.3-23.2c-106.8-4.8-213.6-11.7-320.1-21.9c-50.1-4.8-100.3-15.8-148.4-30.8
	c-78.8-24.5-134.1-78.5-168.5-153.4c-38.8-84.3-55.7-174.4-64.1-265.7c-11.3-122.9-19.3-246.2-26.7-369.5
	c-16.5-273.3-10.5-546.9-6.4-820.5c1.2-77.2,5.1-154.3,9.2-231.4c1.1-20.2-4.4-32.5-21.8-43.4c-153.3-96.4-246-234-276.3-412.7
	c-20.2-119.2-3.8-235.1,35-348.4c57.3-167.3,165.6-297.3,301.8-405.8C782,488.6,953.9,400.6,1138.9,337
	c167.7-57.6,340.4-90.1,516.6-107.5c177.1-17.4,354.5-23.1,532.1-16.9c226.4,7.9,450.5,34.5,669.1,97.7
	c144.7,41.8,283.8,96.3,410.8,178.3c87.6,56.6,167.6,122,230.5,206.3c105.1,141,155.5,299.7,155.1,475.5
	c-0.6,242.2-104.4,433.2-288.6,583.7c-23.6,19.3-30.7,38.6-31.1,67c-1.9,145.6-3.6,291.2-8.8,436.7
	c-4.7,133.3-14.1,266.5-20.7,399.7c-4.6,92.5-6.9,185.1-12.2,277.6c-7.3,128.8-14.5,257.6-25.6,386.1
	c-5.8,67.1-23.2,132.3-55.4,192.7c-36.1,67.8-91.7,111.5-162.9,137.4c-72,26.2-146.8,40.1-222.4,48.2
	C2525.6,3731.9,2224.5,3735.1,1923.2,3737.6z M1831.6,3607c316.9,1.1,600.3,1.5,882.9-26.5c83.4-8.3,166.3-18.3,248-38.2
	c86.7-21.1,142-71.6,162.7-158.9c1.8-7.5,4.6-14.8,5.6-22.4c8.2-65.5,19.6-130.9,23.4-196.7c7.3-126.6,10.1-253.4,15-380.2
	c2-50.7,4.4-101.4,7-152c7.7-147.5,17.2-295,22.8-442.6c5.2-136.6,7.6-273.4,8.4-410.2c0.3-44,15.7-75.9,49.2-102.5
	c29.3-23.3,57.7-48,85.1-73.5c72.1-67.3,131.3-144.7,157.3-240.8c69.7-257.6,15.2-484.5-178-673c-83.2-81.2-183.3-137-289.3-182.9
	c-204.5-88.5-420-132-640.1-155.5c-156-16.6-312.7-18.3-469.3-12.8c-185.3,6.4-369.7,21.7-550.8,65
	c-179.1,42.8-350.6,104.6-508.7,200c-112.9,68.1-218.2,146-302,249.6c-90.7,112.1-146.6,239.1-151.9,383.9
	c-6.5,177,62.3,319.4,207.9,422.9c21.5,15.3,43.6,30,64.5,46.1c21.2,16.4,31.8,38.1,31.1,65.9c-1.3,55.1-0.2,110.3-1.6,165.4
	c-8.7,325.3-12,650.7,6.6,975.8c6.6,115.5,17,230.8,27.8,346.1c5.8,61.5,17.8,122.1,41.3,179.9c26.2,64.4,71.8,104.8,141.2,115.6
	c44.6,7,89.3,14.7,134.3,17.9C1329.2,3592.1,1597.1,3601.5,1831.6,3607z"/>
<path d="M2002.2,3466.7c-204.7-7-385.6-11.7-566.3-19.8c-114.5-5.1-229.2-10.5-342.4-31.1c-109.6-19.9-176.2-84.5-202.6-192
	c-17.2-70-21.4-141.7-25.8-213.2c-24.6-403.3-25.8-807.1-26.9-1210.8c-0.1-19.9-2-40,0.6-59.5c4.3-32.2-8.9-49.3-37.5-64
	c-74.9-38.3-138-91.9-181.5-164.8c-75.3-126.2-84.3-260.1-38.8-398.3c34-103.2,96.5-187.8,176.3-260c97.9-88.5,212.3-149.6,334-198
	c185.6-73.8,379-115.7,576.7-140.2c222.2-27.6,444.6-25.6,667.1-5.4c161.7,14.7,321.7,41.1,476.2,92.3
	c129.4,42.9,252.5,99.3,355.6,191.7c182.2,163.3,220.6,409.3,115.8,622c-41.8,84.9-102.5,154-175.9,212.2
	c-19.3,15.3-26.3,31.4-26.6,55.9c-1.3,152.2-2.2,304.5-7.5,456.7c-6.9,198.4-19.8,396.5-42.6,593.9
	c-15.4,133.6-30.5,267.3-47.6,400.7c-5.5,42.5-16.8,84.2-25.8,126.3c-1.8,8.6-4.9,16.9-7.7,25.3c-29.7,88.6-91.6,138.8-184,148.4
	c-78.9,8.2-158.2,15.3-237.4,18C2344.6,3459.2,2161.5,3462.7,2002.2,3466.7z M1970.2,3394.7c0-0.2,0-0.5,0-0.7
	c8.8,0,17.7,0.2,26.5,0c190.8-4.4,381.5-7.7,572.2-14c67.1-2.2,134-11.3,200.9-18.1c54.6-5.5,92-34.9,111.5-85.8
	c9-23.6,17.7-47.9,21.8-72.7c14.4-88.1,29.5-176.2,39.2-264.8c16.2-149,31.5-298.3,41.3-447.8c11.9-181.5,18.9-363.4,25.7-545.2
	c3.6-97,3-194.1,2.9-291.2c0-29,9.8-49.8,32.5-67.9c31-24.7,61.6-50.5,89-79c105.5-109.9,151.8-241.3,133.4-393.1
	c-15.7-129.6-86.3-226.5-188.7-302.8c-113.4-84.4-242.6-134.1-377.7-170c-122.8-32.7-248.4-49-374.7-62
	c-217.1-22.3-434.1-22.9-650.4,4.3c-203,25.5-401.5,70.6-590.8,150.8c-118.9,50.4-228.3,115.2-319.4,208.2
	c-77.8,79.5-130.6,172.1-141.5,284.6c-13.2,136.6,26.3,253.1,137.7,338.9c35.7,27.5,74.9,50.4,113.2,74.4
	c20.8,13.1,29.4,30.4,29.7,54.8c3.4,250.4,5.8,500.8,11.7,751.1c4.8,205.1,12.9,410.1,21.9,615c2.2,49.2,11.3,98.6,21.7,147
	c17.8,82.7,70.7,130.6,155,140c88.7,9.9,177.6,20.9,266.6,25C1577.6,3382.9,1774,3388,1970.2,3394.7z"/>
<path d="M1564.1,1807.9c0.4-20,18.7-39.7,36.5-39.3c18.7,0.5,37.6,20.8,36.5,39.4c-1.2,20.8-18.7,37-38.9,36.3
	C1578.3,1843.6,1563.8,1828.1,1564.1,1807.9z"/>
<path d="M2730.2,1091.4c0.1-18.6,17.1-36.8,34.7-37.1c19.2-0.3,38.4,18.7,38.2,37.8c-0.3,19.8-19,37.4-38.8,36.6
	C2745.4,1127.9,2730.1,1111.1,2730.2,1091.4z"/>
<path d="M1797.9,3065.1c0.2,20-17.5,37.5-37.7,37.3c-18.2-0.1-33.7-14.8-34.4-32.7c-0.8-20.4,16.8-39.9,35.4-39.3
	C1780.7,3031,1797.8,3047.1,1797.9,3065.1z"/>
<path d="M1263.6,1230.9c-18.6-0.2-34.9-18-33.9-37c1.1-19.7,17.5-36.4,35.5-36.1c19.4,0.3,35.6,16.4,36,35.4
	C1301.5,1213.5,1284,1231.1,1263.6,1230.9z"/>
<path d="M2371.2,2082.4c-19.6-0.1-36.2-16.7-35.6-35.5c0.6-18.5,18.5-36.3,36.2-36c19.3,0.4,35.8,17.1,35.3,35.9
	C2406.7,2065.8,2389.9,2082.5,2371.2,2082.4z"/>
<path d="M1873,1012.2c-18.4-0.2-33.8-15.4-33.6-33.4c0.2-19.5,16.6-36.8,35-37.1c19.4-0.3,36.7,16.9,35.8,35.6
	C1909.3,995.9,1891.7,1012.4,1873,1012.2z"/>
<path d="M2586.3,2930c-19.2-0.2-34.3-14.5-34.5-32.7c-0.2-18.6,17.2-37.2,34.9-37.4c18.4-0.2,37,17.7,36.9,35.3
	C2623.4,2913.3,2605.2,2930.2,2586.3,2930z"/>
<path d="M1385.9,2678.3c-19.3,0.7-37.9-15.6-38.2-33.5c-0.3-17.3,17.6-37.2,34.5-38.4c17.1-1.3,37.8,17,38.2,33.9
	C1420.9,2657.8,1402.8,2677.7,1385.9,2678.3z"/>
<path d="M2411.3,1512.9c19,2.2,33.4,18.3,31.7,35.3c-2.1,20.7-18.9,34.9-38.3,32.1c-17.6-2.5-31.7-20.3-29.8-37.6
	C2377.1,1523.4,2392.7,1510.7,2411.3,1512.9z"/>
</svg>
