<?xml version="1.0" encoding="utf-8"?>
<!-- Generator: Adobe Illustrator 24.3.0, SVG Export Plug-In . SVG Version: 6.00 Build 0)  -->
<svg version="1.1" id="Layer_1" xmlns="http://www.w3.org/2000/svg" xmlns:xlink="http://www.w3.org/1999/xlink" x="0px" y="0px"
	 viewBox="0 0 4000 4000" style="enable-background:new 0 0 4000 4000;" xml:space="preserve">
<path d="M663.4,2736.8c-23.1,2.7-44.8,5.3-66.6,7.6c-78.3,8.4-154.3,0.3-226.4-33.1c-93.8-43.5-141.6-120.1-153.8-220
	c-14.5-118.2,20.2-223.9,89.6-318.5c22.2-30.2,49.4-56.8,74.8-84.6c18.6-20.4,38.4-39.6,57-60c33.1-36.3,49.1-79.4,48.3-128.4
	c-0.5-35-1.4-69.9-2.5-104.8c-5.4-169.7,76.2-296.7,233.4-360.4c38.2-15.5,78.3-26.4,117.4-39.6c10.4-3.5,20.8-7.3,31-11.3
	c26.3-10.4,44.5-28.5,53.4-55.8c8.3-25.3,17.2-50.4,26.1-75.6c16.3-46.2,36.5-90.4,67-129.2c70-88.8,163.7-130.5,274.7-137.5
	c59.2-3.7,117.3,5.4,175.6,13.8c22.6,3.3,45.8,4.1,68.7,3.5c26.7-0.6,49.9-13.3,69.7-30.1c22.4-19,43.4-39.7,64-60.7
	c56.2-57.2,122-97.6,201.2-113.4c99.6-19.8,194.4-5.1,281.3,48.1c32,19.6,60.8,44.3,91,66.8c5.1,3.8,9.9,8.2,14.6,12.6
	c40.1,37.7,86.6,48.3,140.3,36.4c43.9-9.7,88.4-17.7,133-23.4c62.4-8,125.1-7.6,186.2,9.8c103.3,29.5,173.7,96.1,214.4,195
	c9.8,23.8,20.4,47.2,31.3,70.6c19.4,41.7,52.1,67.6,95.8,81.2c39.5,12.3,78.8,25.1,117.6,39.3c56.6,20.6,109.2,48.4,153,90.8
	c69.7,67.5,102.4,151.7,107.8,246.7c2.7,47.6-0.5,95.6-1.6,143.4c-0.9,38.8-2.8,78,14.5,113.8c11.5,23.7,25.1,47.1,41.6,67.6
	c40.8,50.9,86.6,98,125.1,150.4c55.1,75,91.1,159.7,104.9,252.4c9,60.7,6.4,120.9-11.6,180.2c-34.1,112.2-118.1,181.3-235.5,188.4
	c-51.3,3.1-102.9,1.7-154.3,0.6c-18.9-0.4-31.1,5.2-40.2,21.8c-67.3,122.9-173.6,199.6-299.9,252.6c-103.3,43.3-211.5,68.5-322,84.1
	c-201.8,28.5-405.2,31.8-608.5,32.3c-132.4,0.3-265-0.3-397.3-6.1c-145.1-6.3-290.2-16.8-433.4-43.2
	c-111.7-20.6-220.2-51.4-319.2-109.3c-86.5-50.7-159.4-115.2-205.1-206.4C680.6,2776.4,672.6,2757,663.4,2736.8z M1989.4,1403
	c2.3,30.6,5,59.8,6.5,89.1c5,96.5,6.8,193.1-3.5,289.4c-2.3,21.9-5.9,43.8-10.6,65.3c-4.1,18.6-12.2,23.6-29,22.3
	c-20.5-1.7-29.5-12.1-27.4-32.8c4.3-42.1,10.6-84,13.3-126.1c6.1-96.6-0.8-193-8.8-289.3c-0.5-6.2-2-12.3-3.5-21.6
	c-41.2,5.7-80.8,11.6-120.6,16.3c-14.8,1.7-18.7,9.4-22.3,22.6c-9.8,35.3-18.9,71.4-34.1,104.5c-46,100-120.5,177.2-205,245.5
	c-4.9,4-10.7,7.3-16.5,9.9c-16.3,7.3-26.3,4.5-35.8-9.3c-9.2-13.3-8.4-24.5,3.5-36.9c5.7-5.9,12.5-10.8,18.4-16.6
	c39.8-39.5,80.9-77.7,118.7-119c41.6-45.4,68-100.2,86.5-158.6c1.8-5.5,1.8-11.6,3.2-21.2c-15.6,4.3-28,7-39.8,11.1
	c-203.1,69.9-382.2,179.7-536.8,328.4c-153.4,147.5-270.2,319.8-342.7,520.8c-33.9,94-56.6,190.4-58.7,290.7
	c-0.5,24.7-1.3,50.5,5.1,73.9c28.2,102,89.2,180,179.4,235.4c72.8,44.8,151,76.5,234.7,92.5c73.9,14.2,148.6,25,223.2,35.2
	c141.4,19.2,283.7,27.5,426.2,31.3c209.8,5.6,419.4-0.4,628.9-11.7c99.2-5.3,197.9-16.3,295.2-37.5c83.7-18.2,165.7-41.5,243.1-79.2
	c62.8-30.6,119.3-69.5,163.3-124.3c42-52.3,67.4-110.6,66.1-179.7c-1-52.6-5-104.7-15.7-156.2c-36.2-173.9-112.1-330.3-212.6-475.1
	c-102.6-147.8-226.2-275.6-373.6-379.6c-101.2-71.4-209.1-130.1-327.8-167.5c-10-3.2-20.5-5-30.3-7.3c-1.7,4.8-2.9,6.4-2.8,8.1
	c0.2,3.6,0.5,7.4,1.6,10.8c14.6,45.8,31.9,90.8,62.6,128.2c38.4,46.9,79.4,91.6,119.5,137.1c13.4,15.1,28.1,29.1,41.2,44.5
	c8.4,9.9,10.6,21.1,0.9,32.4c-10.6,12.4-22.8,16.2-36.3,8.7c-8.7-4.8-17-11.2-24-18.2c-31.2-31.2-62.9-62-92.6-94.7
	c-56.8-62.5-104.6-130.8-127.3-213.6c-5.5-20.2-9.1-40.9-13.4-60.7C2141.8,1407.7,2026,1396.8,1989.4,1403z M3267.9,2668
	c48.9,0,92.9,0.3,136.9-0.2c20.2-0.2,40.5-1.1,60.5-3.4c81.3-9.3,128.4-52,145.7-131.7c11.1-51.2,9.2-102.2-3.1-153.1
	c-23.3-96.4-75.2-177-139.7-250.4c-22.4-25.6-46.4-49.8-69.2-75c-23-25.4-41.4-53.7-53.9-86c-22.2-57.3-22.3-116.7-18.7-176.8
	c2.5-41.3,5.2-82.8,3-124c-4.1-73.3-34.5-134.4-93.7-180.1c-30.9-23.9-65.1-41.3-101.8-54.1c-42.5-14.8-85.4-28.4-127.8-43.7
	c-67.3-24.3-116.9-68.1-145.3-134.7c-13-30.4-26.2-60.8-40-90.9c-20.7-45.2-53-79.2-98.8-99.5c-45.4-20.1-92.9-31.4-142.3-25
	c-50.9,6.6-101.5,16.7-151.9,26.5c-39.1,7.6-77.9,12.1-117.7,5.8c-53.2-8.4-95.1-37.4-135.2-70.5c-19.2-15.8-37.7-32.5-58-46.7
	c-75.8-53-158.8-70.4-248.9-45.7c-51.2,14-92,44.8-129.2,81.5c-23.5,23.3-47.2,46.6-72.5,67.8c-53,44.6-115.4,59.1-183.1,52
	c-41.1-4.3-81.9-11.8-122.9-16.9c-56.5-6.9-112.3-2.7-165.6,18.2c-80.5,31.6-126.2,95.1-153.9,173.9c-9.7,27.7-18.2,56-27.6,83.8
	c-18.1,53.8-54.6,91-106.2,113c-21.9,9.3-45.2,15.4-67.7,23.3c-34.7,12.1-70.5,21.8-103.6,37.3c-107,50.1-157.6,141.7-147.8,259.2
	c3.1,36.6,4.4,73.5,3.5,110.2c-1.2,49.4-12.1,97.4-41.2,138.2c-23.9,33.5-51.4,64.6-78.6,95.6c-21.8,24.9-47.1,46.7-68.2,72.1
	c-60.5,72.9-93.2,155.7-83.4,252.1c9.1,89.7,68.9,151.1,157.7,166.8c69.9,12.3,136.4-8,206.8-14.2c-1-173.4,50.7-332.3,121.7-488.2
	c-9.6-4.5-17.6-8.7-25.9-12c-38.3-15.6-76.8-30.7-115.1-46.4c-28.2-11.6-35.8-24.1-27.8-44.9c7.3-19.3,20.4-24.4,48.5-14.2
	c40.5,14.8,80.2,32,120.1,48.2c9.2,3.7,18.2,7.6,30.6,12.8c84.9-149.1,189.5-280.7,317.4-394.2c-6.1-7.7-9.7-13-14-17.5
	c-32.3-34-64.9-67.7-97.2-101.8c-6.3-6.6-12.9-13.4-17.3-21.2c-8.7-15.3-4.2-33.9,9.4-44.6c10.8-8.5,22.1-7.2,37.4,4.7
	c5.8,4.5,11.2,9.6,16.2,15c35.2,37.5,70.3,75.3,105.6,112.8c2.9,3.1,7,5.2,11.7,8.7c134.4-102.2,276.7-188.7,437.4-246.7
	c-4.1-11.4-7.1-19.8-10.1-28.3c-16.4-46.8-32.9-93.7-49.1-140.6c-2.7-7.8-5-16-5.5-24.1c-1-14,9.3-27.3,22.4-31.3
	c12.2-3.7,24.9,1.3,32.5,14.7c5.4,9.5,9.3,20,12.9,30.4c16.3,45.9,32.1,92,48.4,138c2.3,6.6,5.8,12.8,9.1,20.1
	c161.4-43,322.8-44.4,487-19.3c6.5-41.8,12.6-79.8,18.3-117.8c3.7-24.5,6.1-49.3,11-73.6c3.4-16.7,20-27.1,34.7-25
	c14.5,2.1,25.2,14.1,26.6,30.9c0.7,8.2,0.5,16.7-0.8,24.8c-8.1,49.9-16.8,99.7-25.1,149.6c-1.6,9.6-2.4,19.3-3.6,29.5
	c154.5,42,289.3,117.7,421,209.6c4.8-6.7,8.8-12.9,13.4-18.5c28.5-34.9,57.1-69.8,85.7-104.6c6.4-7.8,12.8-15.7,19.7-23.1
	c20.7-21.8,36.6-25.5,52.1-12.4c15.8,13.4,14.4,29.5-5.2,52.8c-10.1,12-21.1,23.1-31,35.2c-29,35.4-57.6,71.1-87.6,108.2
	c164.4,135.3,293.9,296.1,399.5,477.9c10.3-4.3,18.7-7.6,27-11.2c33.7-14.6,67.4-29.4,101.2-43.8c7.5-3.2,15.6-5.9,23.6-7.1
	c17-2.4,24.9,2.3,31,16.2c6,13.6,3.3,25.6-8,34.6c-7.8,6.2-16.8,11.2-25.9,15.5c-31.5,15.1-63.3,29.5-94.9,44.5
	c-7.9,3.8-15.1,8.9-23.5,13.8C3227.7,2321.2,3277.5,2487,3267.9,2668z"/>
</svg>
