<?xml version="1.0" encoding="utf-8"?>
<!-- Generator: Adobe Illustrator 24.3.0, SVG Export Plug-In . SVG Version: 6.00 Build 0)  -->
<svg version="1.1" id="Layer_1" xmlns="http://www.w3.org/2000/svg" xmlns:xlink="http://www.w3.org/1999/xlink" x="0px" y="0px"
	 viewBox="0 0 4000 4000" style="enable-background:new 0 0 4000 4000;" xml:space="preserve">
<path d="M3438.9,1545.7c10.7,7.9,19.5,14.7,28.6,21.1c49.7,34.5,95.2,73,128.3,124.8c22.5,35.2,37.4,73.2,41.9,114.5
	c5.5,50.2,8.9,100.7,13.4,151c8,90.1-23.2,166.6-80.8,234c-4.9,5.7-9.6,11.7-16.1,19.6c6.7,7,12.7,13.9,19.4,20.1
	c55.9,51.6,85,116.3,93.4,191c5.1,45.5,10.8,90.9,13.9,136.6c1.4,19.7,9.7,31,25.6,40.9c44.7,27.8,87.3,58.2,119.1,101.3
	c26.8,36.3,43.6,75.9,43.3,121.7c-0.3,40,2.6,80-10,119.2c-16.6,51.5-48.5,92.8-85.8,130.1c-55.9,55.9-122.8,96.2-192.6,132.4
	c-152.5,79.2-314.4,131.8-480.8,172.1c-138.2,33.4-277.5,61.4-418.6,78.3c-113.6,13.6-227.6,24-341.8,31.1
	c-124.7,7.8-249.7,13.9-374.5,13.8c-188.9-0.2-377.5-9.6-565.6-29.7c-169-18.1-336.4-44.1-502.2-81.5
	c-145.4-32.7-288-74.4-425.8-131.3c-97.3-40.2-190-88.8-272-156.1c-35.8-29.4-67-62.7-89.5-103.1c-53.5-95.8-57.3-192.9,0.4-287.8
	c28.1-46.2,70.7-80.1,117-107.5c19.8-11.7,27.1-24.7,27.4-47.8c1.2-84.8,15-167.6,58.6-241.9c19.1-32.6,43.9-61.9,68.3-95.8
	c-4.7-4.9-11.6-12.3-18.7-19.4c-50.9-51.4-87-110.9-98.5-183.4c-6.5-40.9-2-81.7,3-122.5c10.5-85,38.1-163.3,91.7-230.9
	c13-16.4,28.4-30.8,42.9-45.9c7.1-7.4,14.6-14.3,23.8-23.2c-8.1-6.2-13.9-10.6-19.6-15.1c-30-23.5-61.5-45.3-89.7-70.7
	c-75.1-68-111.1-153.2-106.2-255c4.4-90.2,24.5-175.5,77-250.8c31.6-45.4,73.6-79.6,119.2-109.9c88-58.6,183.8-101,283.5-134.5
	c163.8-55.1,331.3-95.5,502-123c39.5-6.4,78.4-16.1,118-22.3c54.6-8.6,109.3-16.3,164.3-22.3c40.1-4.4,78.8-12.5,116-28.5
	c70.1-30,140.7-58.8,211.1-88.1c5.3-2.2,10.7-4,16-6.3c47.8-21,94.4-20.3,143.9-1.4c93.5,35.7,188.4,67.4,283.1,99.8
	c19.6,6.7,40.6,11.2,61.3,13c173,14.8,345.1,36.7,515.7,69.3c146.2,27.9,291,61.2,428.7,119.7c66.9,28.4,130.8,62.1,189.9,104.7
	c89,64.3,138.6,150.1,146.9,259.8c3.1,40.9,8,81.7,10.1,122.6c3.6,68.9-13.3,132.2-54.5,188.5c-26.7,36.4-56.1,69.9-94.5,94.6
	C3445.7,1536.8,3444.3,1539.5,3438.9,1545.7z M3506.6,2252.7c-20.8,14.8-41.9,30.9-64,45.4c-131,86.2-274,146.7-423.9,189.9
	c-91.5,26.3-184.8,46.7-278.1,65.9c-212.6,43.7-427.8,65.2-644.6,71.8c-202.5,6.1-404.4-3.8-605.6-27.5
	c-198.4-23.4-393.5-62.4-584.5-121.1c-98.6-30.3-196.5-62.5-288.1-110.4c-56.5-29.5-110.9-63.3-165.7-95.9c-11-6.5-19.2-10.8-30,0
	c-40,40.3-65,86.2-60.2,145.5c5,61.8,30.5,113.3,72.4,157.9c43.6,46.4,95.2,82.2,149.7,114c100.1,58.4,207,101.6,316.6,138.1
	c205.3,68.4,416.5,109.3,630.6,137.1c11.2,1.5,22.8,3.5,33,7.9c4.1,1.7,7.1,10.7,6.8,16.2c-0.2,3.4-7.2,8.2-11.8,9.1
	c-7.3,1.5-15.3,0.9-22.8,0c-48.3-5.9-96.7-10.5-144.7-18.4c-207.4-34.2-411.4-82-608-157.7c-104.5-40.2-204.9-88.4-296-154.3
	c-65.4-47.3-118.1-105.2-145.7-182.9c-2.7-7.7-6.8-14.9-10.2-22.3c-6.7,14.9-8.2,29.6-10.1,44.2c-13.2,101.6,20.4,185.3,95.7,253.8
	c74.2,67.5,159,118.4,249.3,160.4c192.4,89.6,395.9,143.5,603.6,182c189.8,35.2,381.7,52.8,574.3,61.1
	c240.7,10.3,480.7-2.1,719.5-34.2c133.4-17.9,265-45.2,394.9-79.8c148.7-39.6,293.1-91,428.6-165.1
	c61.3-33.5,119.1-71.9,167.5-123.4c60.3-64.1,69.4-140.3,56.3-227.1c-6.2,8.7-9.8,14-13.6,19.1c-15.6,20.4-29.8,42.1-47.1,60.8
	c-35.8,38.7-77.3,70.9-121.8,99.1c-125.1,79.4-261.4,134-402.6,175.3c-224.7,65.7-453.3,112-687.7,125.8
	c-14.3,0.8-28.7,2.3-42.8,1.3c-6.3-0.4-15.9-5.1-17.5-10c-3.5-10.8,6.9-14.5,15.2-16.4c12-2.8,24.4-4.6,36.7-6
	c73.8-8.5,148-14.6,221.5-25.6c139.5-20.8,278.1-47.4,413.9-86.2c115.6-33,229.3-71.7,337.3-125.2c73.8-36.5,143.8-79,204.3-135.6
	c33.8-31.6,62.5-66.7,79.4-110.6C3620.2,2411.2,3587.2,2307.1,3506.6,2252.7z M1165,1602.2c3.3-4.5,5.9-7.3,7.6-10.5
	c31.3-59,76.9-105,134.2-137.5c64.6-36.6,130.7-70.8,197.9-102.4c92.2-43.4,190.3-69,291.8-75.7c133.2-8.7,266.7-13.2,400.1-19
	c25.7-1.1,51.5-0.6,77.3,0.4c90.2,3.7,172,31.4,244,86.4c69.8,53.3,126.7,118.2,171,194c10,17.1,19.9,34.2,30.5,52.3
	c87.1-22.9,172.7-43.9,254.9-73.5c0.8-5.4,1.6-8.2,1.5-11c-0.1-3.8-0.4-7.7-1.2-11.4c-10.5-47.9-25.7-94.3-56.6-133.1
	c-30.8-38.8-64.1-75.6-95.8-113.6c-14.6-17.5-30.1-34.7-41.9-54.1c-23.9-39.3-17.9-82.7,15.1-114.7c12.2-11.8,27-21.1,41.3-30.5
	c22.3-14.7,46.5-26.7,67.4-43.1c41.1-32.3,50.1-87.9,20-130.6c-13.3-18.9-32.2-35.1-51.5-48.2c-31-21.2-67.3-32.4-104.1-38
	c-60.2-9.2-120.9-15.9-181.5-22.1c-39.5-4-79.3-5.3-122.5-8.1c0,12.2,0.2,22.4,0,32.7c-0.7,41-1.7,81.9-2.3,122.9
	c-0.3,22.6-11.6,36.3-31.5,46.5c-128.9,66.2-257.8,132.4-385.9,200.1c-31.5,16.7-60.2,17.4-92.6,4.3
	c-53.9-21.9-108.6-41.5-163.1-61.7c-125.1-46.5-250.3-92.6-375.3-139.3c-38.2-14.3-40.4-17.7-40.7-58.5
	c-0.5-70.6-0.4-141.2-0.6-211.8c0-8.2-0.9-16.5-1.5-27.3c-17.3,4.1-31.8,8.2-46.7,10.9c-28.6,5.3-47.9,20.2-58.2,48.2
	c-19.5,53-61.3,75.5-114.8,79.9c-51.3,4.2-102.7,7.1-154,11.6c-55.7,4.9-109.2,17.3-156.2,49.7c-21.5,14.8-40.4,32-50.6,56.9
	c-11.1,27-8.1,49.2,14.8,66.9c17.7,13.7,38.6,24.8,59.7,32.2c33.2,11.7,68.1,18.2,101.7,29c22.5,7.3,45.2,16,65.4,27.9
	c50.4,29.8,65.6,80.1,41,133c-7.9,17.1-18.7,33.5-31.1,47.7c-19.5,22.1-41,42.5-62.6,62.7c-27.2,25.3-55.9,49.1-83.1,74.5
	c-23.8,22.3-43.6,47.8-55.8,78.7c-14.3,36.2-14,39.5,23.5,49.7c89.2,24,178.8,46.7,268.3,69.7
	C1142.8,1598.2,1154,1599.9,1165,1602.2z M2893.9,2274.9c0.1-34.7-16.8-64.7-48.8-84c-20.3-12.3-41.9-22.9-63.6-32.5
	c-56.1-24.8-83.3-67.7-82-128.5c1.2-54.3,3.5-108.6,5.2-162.9c0.3-8.3,0-16.7,0-27.6c-507,101.6-1012.8,104.4-1521.5,15.2
	c-2,27.6-3.6,52.1-5.6,76.6c-5,61-32.8,105.3-94,122.5c-37.4,10.5-67.1,29.3-88.3,62.9c-14.3,22.6-37.1,36-63.8,39.6
	c-62.5,8.6-117.4-8.9-162.6-52.9c-36.3-35.2-42.8-88.4-16-131.2c9.9-15.9,23.9-29.5,37.2-43c10.7-10.8,23.1-19.9,34.7-29.8
	c19.4-16.3,28.8-37.6,30.3-62.5c0.7-12.4,1.1-24.8,0.8-37.2c-0.6-24.4-2.2-25.2-26.6-33.2c-110.6-36-220.9-73.1-322.5-131.3
	c-13.6-7.8-24.6-7.2-36.5,2.5c-29.8,24.2-56.7,51.1-77.8,83.3c-28.1,43-36.4,89.3-24,139.5c6.7,27.2,17.4,52.1,33.2,75.4
	c43.4,64.2,105,107.3,169.6,146.6c121.7,73.9,255.8,118.7,391,159.1c186.7,55.8,377.2,94.2,570.8,117.1
	c119.4,14.1,239.2,23.5,359.4,26.2c155.5,3.5,310.8-0.7,465.8-15.7c171.1-16.5,340.4-41.9,506.8-85.4
	C2875.2,2281.1,2884.9,2277.7,2893.9,2274.9z M2692.1,1636.2c-13.7,1.6-21.2,2-28.6,3.3c-61.9,10.8-123.8,22.3-185.8,32.6
	c-27.2,4.5-55,5.8-82.2,10.3c-34.7,5.7-68.9,14.4-103.6,19.6c-28.2,4.2-56.9,5.4-85.5,7.6c-11.2,0.9-21.9-0.4-22.1-15.3
	c-0.2-14.5,10.3-16.4,21.5-17c6.7-0.3,13.4-0.3,20-0.8c11-0.8,22-1.9,35.8-3.2c-11.9-22.1,0.5-35,12.4-47.4
	c11.2-11.7,21.6-27.3,43.5-17.2c-5.4,28.5-30.4,41.6-45,64c19.7,2.6,32-3.9,40.6-18.6c7.2-12.3,14.5-24.7,22.4-36.6
	c6.4-9.5,14.8-14.6,26.9-7.8c3.1,23.9-24.1,32.8-27.6,55.2c15,0.1,21.4-9.9,28.4-18.1c6.1-7.2,10.8-15.7,17-22.9
	c5.6-6.5,12.6-14,21.9-8.2c9.6,5.9,5.3,15.2,1.5,22.9c-4.9,9.7-10.5,19-15.8,28.5c9.9,1.3,18.1,0.4,22.7-4.2
	c16-16.1,36.3-19.3,57.1-23c61.9-10.8,123.8-22.4,185.6-34c5.9-1.1,11.5-4.6,17.9-7.3c-2.4-6.5-3.4-11.3-5.7-15.3
	c-43.5-76.1-96.9-144-166.9-197.5c-51.6-39.4-108.8-68-173.7-75.7c-45.3-5.4-91.2-7-136.9-6.9c-51.5,0.1-102.9,4.3-154.4,6.1
	c-62.9,2.3-126,1.9-188.8,6.4c-49.3,3.5-98.8,9.7-147.1,19.8c-138.1,28.8-262.1,91.5-380.9,165.4c-33.4,20.8-62.4,47.1-86.7,78.3
	c-7.3,9.4-13.1,19.9-22,33.7c36.7,6.1,68.4,11.3,100.1,16.8c39.4,6.8,79,13,118.1,21.2c21.4,4.5,22.5,9.2,14.5,32
	c-82.9-7.5-164.1-28.9-246.5-36.3c-14.9,46.8-20.7,115-12.1,143c508.6,87,1017,91,1527.5-19.8
	C2703.8,1725.1,2698.2,1682.2,2692.1,1636.2z M264.9,2652.9c-37.5,18.3-67.6,43.8-93.8,74.2c-52.4,61-53.4,114-4.3,177.9
	c34.3,44.6,77.6,79,125.7,106.7c42.9,24.7,87.2,47.3,132.2,67.8c147.5,67,302.9,109.4,461.1,141c111.1,22.2,223.2,41.2,335.7,55
	c132.4,16.2,265.6,28.2,398.7,36.7c194.3,12.4,389.1,10.6,583.7,5.3c102-2.8,204-8.9,305.5-18.8c113.8-11.1,227.1-27.2,340.4-42.7
	c198.9-27.3,393.3-74.3,581.5-144.2c96.7-35.9,190-79.6,273.4-141.7c34.7-25.8,66.2-54.6,88.8-92c25.2-41.7,24.7-83-1.8-123.9
	c-18.3-28.2-40.3-53.2-67.6-73.2c-12.8-9.4-26.1-18.1-40.3-27.8c-8.4,24-14.1,45.2-22.9,65c-21.5,47.9-55.5,86.4-94.1,121.1
	c-79.1,71.3-173.1,117.9-269.2,160.3c-210,92.7-431.7,144.1-656.8,182.1c-148.8,25.1-299.1,36.7-449.6,44
	c-243.6,11.8-486.3-3-728.4-29.4c-125.3-13.7-248.6-39.3-371.2-67.6c-152.7-35.2-301.9-81.5-444.6-147
	c-85.2-39.1-166.5-85.1-239.5-144.4c-57.6-46.8-107.2-100.4-134.4-171.4C271.6,2661.6,268.3,2658.1,264.9,2652.9z M2889.8,2315.2
	c-27.2,6.5-52.8,13.3-78.7,18.7c-116.6,24.4-233.8,45.2-352.2,59.3c-142.2,17-284.8,27.5-428,28.2c-215.9,1.1-430.7-14.6-644.2-47.8
	c-189.9-29.5-375.7-75.8-557.2-138.3c-123.7-42.6-244.2-93.5-349.5-173.9c-59.3-45.2-110.4-96.8-136.9-168.6
	c-1.6-4.4-5.4-8.1-8.1-12.1c-2,0.5-4,0.9-6,1.4c-1.1,35-3.5,70.1-2.8,105c0.9,49.7,21.7,92.1,52.3,130.3
	c34.9,43.6,77,79.2,122.8,110.7c62.3,42.9,130,76,199.1,106.2c164.2,71.7,336.4,117.7,511.3,153.7c191.9,39.5,386.1,61,581.6,70.6
	c257.1,12.6,513-0.2,767.4-39.4c81.9-12.6,163.4-28.1,244.9-43.4c34.2-6.4,67.8-15.6,99.5-23c-5.7-24.8-12.4-45.5-14.7-66.7
	C2888,2363.9,2889.8,2341.1,2889.8,2315.2z M1979.5,1107c1.1-11.2,2.5-20.5,2.7-29.8c1-45.8,1.6-91.6,2.5-137.3
	c0.5-22.5,4-29,15.7-27.7c19.7,2.3,12.8,18.2,12.9,29.2c0.4,47.7-0.1,95.4,0,143.1c0,6,1.6,12.1,3,21.8c19.6-10.7,36-19.9,52.6-28.6
	c103.1-53.8,206.1-107.9,309.6-161c16.6-8.5,24-18.3,23.5-37.4c-1.2-48.6-0.2-97.3-0.3-146c0-6.3-1-12.5-1.7-21.3
	c-7.6,2.7-13,4.1-17.8,6.4c-95,46.6-189.9,93.4-284.9,140.1c-6.8,3.4-13.6,7.2-20.9,9.1c-9.4,2.5-21.3,11.8-28.2-0.7
	c-7-12.8,6.7-18,14.8-23.4c11-7.4,22.8-13.9,34.7-19.9c64.8-32.4,129.8-64.3,194.6-96.8c27.9-13.9,55.3-28.7,87.4-45.3
	c-17.5-7.9-30.1-14.2-43.2-19.3c-19.5-7.6-39.4-14.3-59.2-21.4c-116.8-41.5-233.6-82.8-350.3-124.5c-27.3-9.8-52.8-8.9-80.1,2.7
	c-116.6,49.7-234,97.7-350.9,146.6c-5.4,2.3-9.8,6.7-18.5,12.8c26.7,11.4,48.9,21.8,71.9,30.4c123.2,46.2,246.5,91.8,369.7,137.8
	c9.8,3.7,19.6,7.6,28.9,12.4c8.2,4.2,19.7,9.2,14.1,20.5c-2.1,4.3-15.1,6.4-22,4.7c-21.2-5.3-42-12.3-62.7-19.7
	c-131.1-46.8-262-93.8-393-140.8c-14.9-5.4-29.8-11-46.2-17.1c-1.3,6.2-2.6,9.6-2.6,13.1c-0.3,56.3,0.1,112.6-0.8,168.8
	c-0.2,15.2,8.7,19.4,19.9,23.5c143.8,53.4,287.6,106.9,431.4,160.3C1916.5,1083.8,1946.7,1094.9,1979.5,1107z M2467.2,710.9
	c5.4,1.1,9.9,2.7,14.5,3c49.4,3.8,98.9,8.2,148.4,10.9c58.2,3.2,115.9,9.6,172.4,24.1c43,11,83,28.6,117.9,56.2
	c81.3,64.3,83.4,173.5,4.5,240.1c-13.7,11.6-30.1,20.1-45.3,29.8c-16,10.3-33.2,19.1-48.1,30.8c-24.5,19.3-28.3,41.5-12.3,68.2
	c7.8,13,17.9,24.7,28,36.1c23.3,26.5,48,51.8,70.6,78.8c48.5,57.8,86,121.3,98.9,197c0.7,4.3,3.4,8.2,5.4,12.9
	c6.2-1.3,10.9-1.6,15.3-3.2c107.9-39.3,211.5-87.1,306.7-151.9c50.7-34.5,97.1-74,132.7-124.8c20.6-29.4,34.2-61.4,37.6-97.6
	c6-64.1-21.3-115.1-63-159.7c-44.2-47.3-98.6-80.9-156.1-109.5c-101.3-50.5-209-83-318.4-109.6c-141.7-34.5-285.2-60.5-429.9-79.7
	c-29.9-4-60-6.8-92.7-10.5C2459.1,674.1,2463.1,692.2,2467.2,710.9z M1230.6,689.1c-38,6.9-70.6,12.6-103.2,18.7
	c-151.1,27.9-300.1,63.9-444.7,116.8c-93.5,34.2-184.5,73.7-263.7,135.1c-28.3,22-53.4,48.9-76.8,76.3
	c-25.3,29.6-33.5,65.3-25.8,104.6c6.5,33.2,18.1,63.9,36.4,92.5c32.7,51,79.1,87.4,127.7,121.4c89.8,63,190.3,104.3,292.3,142.4
	c4.1,1.5,8.9,1.1,13.5,1.6c2.5-4.8,5-7.9,5.8-11.5c14.1-55.8,46.8-99.7,88.7-137.4c25.5-22.9,52.6-44.2,77.9-67.4
	c20.3-18.6,40.9-37.6,58.2-58.9c42.4-52.3,30-96.5-32.2-120.8c-5.3-2.1-10.7-4.1-16.2-5.6c-28.5-7.6-57.5-13.9-85.5-22.9
	c-28.9-9.3-58.8-18-84.9-32.8c-53.4-30.2-69.5-84.7-43.3-139.8c8.4-17.7,20.9-34.3,34.4-48.6c38.2-40.5,88-60.3,141.2-69.9
	c47.7-8.6,96.3-12.5,144.6-18.1c32.2-3.8,64.5-6.2,96.5-10.7C1205.1,749.5,1220.9,726.2,1230.6,689.1z M3136.3,2196
	c3.2,0.3,5.3,1.1,6.9,0.5c15.1-5.7,30.4-11.2,45.2-17.5c99.7-42.2,195.1-91.7,277.1-163.7c36.8-32.3,69.8-67.7,91.5-112.4
	c27.1-55.9,24.6-111-6-164.3c-11.3-19.7-25.8-37.8-40.9-54.9c-27.9-31.7-63-54.8-97.1-79.5c-24.2-17.6-41.3-14.5-66.1-0.9
	c-61,33.3-123.5,64.2-187.1,92.1c-55.8,24.4-113.8,43.8-171.2,64.5c-11.9,4.3-21.6,8.6-21.8,22.4c-0.7,45.7-2.8,91.5-0.3,137.1
	c0.9,16.9,10.7,34.8,20.5,49.5c11.5,17.2,26.6,32.4,41.6,46.8c34,32.8,63.2,69,82.5,112.2C3120.8,2149.3,3127.6,2172.2,3136.3,2196z
	 M3721.6,3037.9c-1-1.1-1.9-2.3-2.9-3.4c-2.3,0.9-5,1.4-7,2.9c-64.6,46.7-136.1,80.4-209.4,110.5
	c-112.3,46.1-228.8,78.8-346.4,107.9c-196.7,48.5-397,75.2-598,96.5c-164.2,17.4-329.2,24.5-494.2,24
	c-154.5-0.5-309.2-1.7-463.5-8.5c-185.9-8.2-370.5-30.7-554.3-60.3c-187.7-30.2-372.2-73.3-550.8-139
	c-92.2-33.9-182.7-72.1-263-130.5c-6.3-4.6-13-8.8-19.5-13.1c-1.1,1.7-2.3,3.3-3.4,5c19.6,16.4,38.2,34.1,58.9,49
	c66.8,48.2,140.1,84.9,215.5,117.3c181.4,77.8,371.3,126.5,564.6,162.6c147.2,27.4,295.3,49.1,444.9,58.9
	c120.8,7.9,241.7,16.7,362.7,20.2c153.5,4.4,307.2,3.6,460.4-9.8c126.3-11,252.7-21.9,378.5-37.1c123-14.9,244.8-38,365.4-67.1
	c147.5-35.6,292.6-79,430.5-143.3c71.8-33.5,141.7-70.5,204.2-120C3704,3053.3,3712.7,3045.5,3721.6,3037.9z M2729.9,1624.7
	c16.6,59.6,22.3,116.2,20.1,173.7c-2.5,63.8-5.4,127.6-7.6,191.4c-0.6,18.1-0.6,36.3,0.8,54.3c2.3,28.4,14.7,50.5,41.8,63.4
	c28.3,13.5,56.6,27.4,83.7,43.1c35.6,20.6,56.9,52.5,67.1,92.1c1.6,6,4.1,11.8,6.8,19.4c50.7-15.3,99.5-30.1,150.7-45.5
	c-3-13.1-4.7-23.1-7.6-32.9c-17.2-58.8-54.1-104.3-98.4-144.7c-47.1-42.9-69.6-96.2-69.7-159.9c-0.1-70,8.2-138.6,28.3-205.8
	c8.7-29.2,15.6-58.9,22.8-88.5c2.1-8.6,2.2-17.7,3.3-28.2C2889.7,1579.8,2811.3,1601.8,2729.9,1624.7z M826.9,1550.7
	c1.3,11.8,2,22,3.7,32c7.6,44.7,26.8,85.4,45.4,126.1c16.9,37,24.6,75.9,26,116.4c1.6,48.2-16.2,87.2-52.9,118.1
	c-14.6,12.3-29.6,24.2-43,37.7c-32.3,32.6-30.1,69.7,5.8,98.1c27,21.4,57.9,31.5,92.7,32.4c27.4,0.7,49.1-8.2,63.5-30.9
	c23.9-37.6,58.8-58.8,100-71.5c42.7-13.1,64.5-41.2,64.2-86.5c-0.3-39.1,1.1-78.2,0.6-117.3c-0.7-50.8,3.7-100.9,14.9-150.4
	c1.6-6.9,1-14.3,1.3-19.3C1041.5,1607.2,936.7,1579.6,826.9,1550.7z M821.5,1694.9c-3-10.3-3.7-15-5.7-19.2
	c-18.2-38.4-30.2-78.4-30.2-121.1c0-17.1-10.3-21.7-24-26.5c-100.2-35.1-196.9-77.7-286.1-135.7c-81.4-52.9-150.6-117.1-186-210.8
	c-0.6-1.5-2.6-2.4-5.4-4.9c-8.9,25.3-7.6,51.1-9,76.3c-4.1,75.3,19.4,140.5,73.3,194.4c40.7,40.7,85.9,75.4,135.5,104.4
	c96.7,56.6,199.8,98.7,305.2,135.6C797.9,1690.4,807.2,1691.6,821.5,1694.9z M2988.7,1693.4c12.9-3.7,22.9-5.9,32.4-9.4
	c27.6-10.3,55.2-20.8,82.5-31.9c96.3-39.3,190.1-83.6,275.9-143c48.8-33.8,93.1-72.8,124-124.7c32.3-54.3,32.2-112.9,22.9-173.2
	c-7.8,6.6-12.6,14.3-18.3,21.5c-17.7,22.3-33.6,46.6-54,66.1c-28.2,26.8-58.4,52.1-90.4,74.1c-99.6,68.2-208.6,118.2-322.2,158.1
	c-11.3,4-21.2,6.5-23.9,20.5C3008.8,1597,2999.1,1642.6,2988.7,1693.4z M3134.5,2380.3c8.5-2.7,16.8-4.4,24.3-7.9
	c50.2-23,100.7-45.3,150.1-69.9c71.1-35.4,136.5-80,195.3-133.5c58.2-53,86.3-119.6,83.2-198.8c-0.4-9-2.2-18-3.4-27.1
	c-1.8-1-3.7-2-5.5-3c-107.8,154.2-270.2,227.1-431.7,295C3142.7,2283.9,3138.8,2330,3134.5,2380.3z M3097.7,2251.5
	c-51.6,16.5-99.3,31.5-146.6,47.5c-5,1.7-11.3,9.1-11.5,14.1c-1.2,28.4-1.1,56.9-0.7,85.3c0.2,11.8,8.4,18.3,19,22.3
	c26.9,10.1,86.1-2.2,103.6-24.9C3093.1,2354.8,3099.4,2306.8,3097.7,2251.5z"/>
<path d="M2300.4,2856.4c-54.8-0.2-95.4-41.6-94.6-96.6c0.7-50.4,43.1-91,94.7-90.8c52.3,0.2,94.5,42.1,94.8,94.2
	C2395.6,2816.3,2354.6,2856.6,2300.4,2856.4z"/>
<path d="M1763.2,2763.3c0.2,54.5-41.3,95.3-96.3,94.8c-48.8-0.5-89.1-42-89.8-92.3c-0.7-50.2,43.5-94.6,94.4-95
	C1723.4,2670.2,1763,2710.3,1763.2,2763.3z"/>
<path d="M1985.1,2928.8c-59-3-103.6-38-109.8-88.3c-1.5-11.8-1.2-23,9.4-31.1c10.2-7.8,20-5.9,25.6,5.6c4.2,8.5,6.5,17.9,10.5,26.6
	c13.1,28.3,34.5,40.8,66.6,39.3c29.6-1.4,50.9-14.3,60.2-43.8c2-6.4,4.4-12.6,6.7-18.9c3.8-10,10.2-16,21.8-13.8
	c11.9,2.3,18.6,9.2,18.6,21.6c-0.1,39.3-20.3,67.4-53.1,85.3C2024.6,2920.5,2004,2923.2,1985.1,2928.8z"/>
<path d="M1507.1,2940.4c11.4-27.8,30.7-47.5,49.7-67c6.6-6.8,8.7-5.6,27.6,1.2c-10.7,26.8-28.6,48.8-46.5,70.4
	C1531.6,2952.7,1528.7,2951.3,1507.1,2940.4z"/>
<path d="M2397.1,2950.7c1-8.3,0.1-12.9,2-15.5c16-21.2,32.1-42.5,49.2-62.7c3.3-3.9,13-6.1,17.3-4.1c3.6,1.7,6.8,13.3,4.5,16.4
	c-16.1,22-33.3,43.4-51.3,63.8C2415.9,2952,2406.8,2950,2397.1,2950.7z"/>
<path d="M2454.8,2952c6.2-35.3,34.6-66.9,64-72.4c10.8,11.8,4.4,22.6-3.4,32.2C2500.1,2930.7,2489.7,2957.4,2454.8,2952z"/>
<path d="M1522.6,2868.5c-2.6,8.5-3.1,18.7-8.1,25.3c-11.4,14.9-24.3,29.1-38.4,41.5c-4.6,4-15,1.2-22.8,1.5
	c1.2-6.9,0.1-15.6,3.9-20.4c13-16.2,27.4-31.3,42.2-45.9c4-4,11.1-4.8,16.8-7.1C1518.3,2865.1,1520.5,2866.8,1522.6,2868.5z"/>
<path d="M1566.2,2947.4c5.6-28.1,24.1-45.1,39.2-64c2.4-3,11.6-4.4,14.8-2.3c4.6,3.1,9.4,10.2,9.2,15.5
	C1628.8,2916.1,1592,2946.5,1566.2,2947.4z"/>
<path d="M2409.8,2868.1c-1.4,8.6-0.3,16.3-3.7,20.5c-12.9,16.3-26.7,32-41.5,46.6c-3.2,3.1-12.4,2.8-17.2,0.6
	c-2.9-1.3-5.3-11.5-3.3-14.3c14.8-20.7,28.8-42.5,52.8-54.1C2399.1,2866.3,2402.4,2867.6,2409.8,2868.1z"/>
<path d="M1641.7,2179.7c-47.2,5.4-90.4-53.1-90.3-86.5c0.1-54.5,41-97.1,94.9-97.6c51.9-0.4,91.5,39.3,92.1,92.6
	C1738.9,2139.1,1696,2179.8,1641.7,2179.7z"/>
<path d="M2277.9,2179c-48.8,0.2-87.5-39.8-87.2-90.2c0.3-51.2,41.3-92.1,92.9-92.7c49.8-0.7,93.9,42,94.9,91.7
	C2379.4,2138.9,2335.5,2178.7,2277.9,2179z"/>
<path d="M1967.4,2247.9c-58.1-0.5-100.8-31.9-111.9-82.6c-1.2-5.6-2.2-11.3-2.3-16.9c-0.5-15.5,5.2-23.4,17.3-24.9
	c12.9-1.5,18.9,6.4,22.7,17.1c0.6,1.8,1.1,3.6,1.6,5.5c14.9,47,38.7,62.7,87,56.3c26.8-3.6,45.5-18,53.1-44.9
	c1.8-6.4,2.9-13,4.7-19.4c2.8-10,8.2-17.6,20.1-15.8c11.4,1.6,19.5,8.3,21.3,19.8c1,6.3,0,13.3-1.4,19.7
	C2068.2,2214.8,2024.3,2248.4,1967.4,2247.9z"/>
<path d="M2456.4,2196.5c-14.1,27-29.3,53.5-52.6,74.2c-3.4,3-12.6,2-17.4-0.5c-2.5-1.3-3.7-11.6-1.4-14.8
	c14.7-20.5,29.9-40.8,46.3-59.9c3.8-4.4,13.1-4,19.9-5.8C2452.9,2192,2454.7,2194.2,2456.4,2196.5z"/>
<path d="M1555.2,2193.9c-8.9,33-32.4,54.4-53.7,77.1c-2.7,2.8-10.7,2.8-15.1,1c-2.9-1.2-5.3-7.8-5-11.9c1-18.9,46-66.3,65.8-69.9
	C1548.6,2190,1550.5,2191.7,1555.2,2193.9z"/>
<path d="M2334.3,2266.7c-3.9-6.5-9.4-11.4-9.6-16.6c-0.8-15.1,35.4-57.5,51.2-61.9c10-2.8,17.4,3.5,15.1,13.7
	c-1.2,5.3-4,10.8-7.5,15.1c-10.7,13.4-21.7,26.5-33.2,39.2C2346.9,2260.1,2341.4,2262.2,2334.3,2266.7z"/>
<path d="M1497.1,2193.9c-6.8,11-11.2,20.1-17.4,27.7c-10.9,13.2-22.5,25.9-34.9,37.7c-3.3,3.1-10.6,4-15.4,2.8
	c-3.1-0.7-7.1-7.1-6.9-10.7c1.7-20.9,18.4-32.4,31.2-46.1C1463.7,2194.8,1474.8,2185.8,1497.1,2193.9z"/>
<path d="M1606.4,2217.7c-0.5,1.8-0.7,6.1-2.8,8.7c-11.8,14.5-23.3,29.4-36.7,42.4c-3.6,3.5-13.2,0.9-20,1.2
	c-0.1-6-2.7-13.9,0.2-17.8c11-15.2,22.6-30.2,36-43.2C1592.9,2199.6,1605.5,2204.4,1606.4,2217.7z"/>
<path d="M2503.6,2200.3c6.5,31-17,44.4-31,61.9c-6.5,8.1-17,12.7-27.4,3.4C2450.7,2239.2,2478.5,2206.8,2503.6,2200.3z"/>
<path d="M2296.1,1520.8c-0.2,43.9-34.3,78.2-77.5,78c-44.3-0.1-79.2-35.5-78.9-79.9c0.2-40.3,38.8-76.2,81-75.4
	C2262.3,1444.3,2296.3,1479.2,2296.1,1520.8z"/>
<path d="M1693.8,1444.4c41-2.8,74.1,36.5,73.2,77.8c-0.9,41.2-38.3,74.5-82.2,73.7c-36.1-0.7-72.4-36.3-71-72
	C1615.7,1475.3,1655.5,1440.9,1693.8,1444.4z"/>
<path d="M1951.3,1652.6c-42-1-74.9-21.8-87.6-57.1c-3.7-10.4-4.9-22.4-4.4-33.5c0.2-4.7,7.3-11.6,12.3-12.8c5-1.2,13.4,1.9,16.8,6.1
	c5.2,6.4,7.8,15.1,10.6,23.2c8.5,24.1,26,33.7,50.6,33.6c30.2-0.1,46.2-9.6,56.5-34.5c2.9-7,4-15.5,8.7-20.9
	c4.2-4.8,12.9-9.5,18.5-8.3c5.7,1.2,12.8,8.7,14.3,14.7c1.9,7.7,0.1,17.1-2.4,25.1C2032.1,1630.1,1997.2,1653.7,1951.3,1652.6z"/>
<path d="M1560.4,1606.3c-4.8,24.2-21.7,41.2-37.4,58.3c-7.3,8-19.2,5.6-25.2-2.7c-3.1-4.2-2.1-15.1,1.4-19.7
	c9.1-12,20.1-22.8,31.4-33C1538.5,1602,1548.3,1598.1,1560.4,1606.3z"/>
<path d="M1545.3,1668.4c11.7-40.7,38-64.3,66.1-58.9c-6.3,23.8-21.7,41.4-38.6,57.6C1564.9,1674.7,1554.7,1676.5,1545.3,1668.4z"/>
<path d="M1603,1673.3c-7.8-13.1,2.9-21.4,9.1-29.7c7.2-9.5,15.6-19.1,25.5-25.3c8.3-5.2,17.3,3.3,15.6,12.7
	C1649.7,1650.3,1624.7,1671.6,1603,1673.3z"/>
</svg>
