<?xml version="1.0" encoding="utf-8"?>
<!-- Generator: Adobe Illustrator 24.3.0, SVG Export Plug-In . SVG Version: 6.00 Build 0)  -->
<svg version="1.1" id="Layer_1" xmlns="http://www.w3.org/2000/svg" xmlns:xlink="http://www.w3.org/1999/xlink" x="0px" y="0px"
	 viewBox="0 0 4000 4000" style="enable-background:new 0 0 4000 4000;" xml:space="preserve">
<path d="M2003.4,3555.7c-142.7-1.7-266.9-14.6-390.1-36.3c-166.6-29.4-326.3-80.8-478.7-154.5c-248.3-120.1-460.4-285.6-624.3-508.6
	c-163.6-222.7-258.1-472.8-283.8-748.2c-13.6-145.5-2.7-289.5,24.6-433.1c37.1-195,110.8-374.4,222.5-537.9
	C587.1,971.4,728.6,833.8,894.9,721c216.6-147,454-241.9,710.4-291.9c146.1-28.5,293.3-40.6,441.9-35.9c141.5,4.5,280.5,26,418.2,59
	c210.8,50.5,408.1,132.8,587.9,253.5c348.3,233.8,560.2,558.3,633.8,971.7c23.2,130.4,31.2,262.2,21.9,394.6
	c-27.5,393.7-178.4,730.7-464.7,1004.4c-194.6,186.1-425.2,310.3-680.8,390.8c-134.2,42.2-271.7,67.1-411.6,79
	C2096.8,3550.8,2041.4,3553.3,2003.4,3555.7z M1885.1,3224.5c147.5-0.4,286.6-14.8,440.6-49.3c361.6-80.9,673.8-251.9,931.3-519
	c174.9-181.4,294.8-394.6,352.8-640.8c22.8-96.9,31.2-195.8,17.7-294.4c-34.8-254.4-132.2-482.5-296.5-681
	c-126.5-152.7-279.1-273.5-454.3-365c-148.9-77.8-306.2-132.9-470.1-171c-206.6-48-415.2-56.3-625-35.3
	c-181.2,18.1-356.8,62.2-525.5,132.1c-204.2,84.7-388.7,199.4-545.8,356.1c-151.8,151.5-270.9,324.2-342.9,527.8
	c-70.4,199-93.2,401.3-49.4,609.6c64.5,305.9,220,555.3,462.6,751.4c171.4,138.5,362.7,238.6,574.2,301.1
	C1528.2,3198,1704.4,3225.5,1885.1,3224.5z M3637.2,2054.6c-4.7,14-9.9,27.9-14.1,42c-73.1,246.1-204.5,456.9-388,635.2
	c-206.7,200.8-448.7,343.9-723,431.4c-244.2,77.9-494.2,113-751,93.4c-154.3-11.7-305.7-37.1-453.1-85.1
	c-211.2-68.8-403.7-170.8-573.8-314.9c-158.9-134.6-282.2-295-365.7-485.8c-16.3-37.1-33.2-74-51-113.5c-1,5.3-2,7.4-1.6,9.2
	c18.9,103.8,56,201.8,99.1,297.4c118,262,303.3,466.6,541.1,624.3c268.7,178.2,566.3,273.1,887.2,295.5
	c203.4,14.2,405.1-0.8,602.9-51.4c210.6-53.9,407.7-138.4,585.3-266c315.1-226.3,518-525.4,589.8-909.2
	C3633.6,2190.9,3643.9,2124.1,3637.2,2054.6z"/>
<path d="M666,2065.9c-1.9-35.1-2-70.5-6.1-105.4c-6.3-53.8-29.9-100-68.3-138.3c-20-19.9-41.3-38.4-61.2-58.4
	c-82.4-82.5-85.3-184.5-8.5-272.6c30.1-34.5,65.8-62.4,103.8-87.3c72.9-47.7,122.6-112.1,147.5-196.1c8-26.9,18.3-53.6,31.3-78.4
	c50.3-95.9,133.8-148.1,236.4-172.1c73.6-17.2,147.5-19.9,220.8,4c66.3,21.6,107,65.8,119.7,134.7c6.7,36.3-1.8,70.6-19,101.9
	c-15,27.2-32.3,53.6-51.6,77.9c-51.5,64.8-67,137.3-45.5,216.1c18.3,67,40.4,132.9,62.2,198.9c28.1,84.8,38.2,171.2,22.9,259.3
	c-26.9,155.2-104.5,278.5-240.9,359.5c-84,49.9-175.8,69.5-273,43.9c-99.9-26.3-163.3-102.8-171.1-206.2c-2-27-0.3-54.4-0.3-81.6
	C665.2,2066,665.6,2066,666,2065.9z M710.4,2051.7c-1,0-2,0.1-2.9,0.1c1.7,33.2,1.4,66.6,5.6,99.5c12.5,96.9,84,161.1,181.6,166.1
	c64.3,3.3,124.2-12.6,180.2-42.2c163.6-86.5,255.6-265.3,235-452c-5-45.7-17.4-90.9-30.1-135.3c-17.8-61.9-40-122.6-58.6-184.3
	c-18-59.8-16.3-119.9,8-177.7c10.8-25.7,26.6-49.5,41.5-73.3c17.1-27.3,38.9-52,53.1-80.6c33.4-66.8,7.7-132.1-61.1-161.8
	c-12.8-5.5-26.6-9.5-40.3-12.2c-49.1-9.4-98.5-8.8-147.2,1.2c-121.7,24.9-213.5,87-254.9,209.9c-3.5,10.5-7.6,20.8-11,31.4
	c-25.8,78.3-73.1,140.7-139.7,188.8c-15.5,11.2-32.1,21.1-46.6,33.5c-26,22.2-53.3,43.6-75.5,69.3c-48.7,56.4-45.2,132.6,5.8,186.5
	c17.3,18.3,35.3,36,53.5,53.4c54.5,51.8,89.5,114,99,189C709.6,1991,709,2021.5,710.4,2051.7z"/>
<path d="M1609.6,1444.3c-10.3,28-31.9,46.5-40.8,71.4c-9.5,26.5-19,52.9-27.1,79.9c-7.8,25.9-11.8,52.6-7.2,84.7
	c8.2-8.5,14.9-13.9,19.6-20.8c50.3-72.8,118.1-123.2,199.9-155c156.2-60.7,310.9-57.1,463,14.5c56.4,26.6,105,63.4,140,116.3
	c4.9,7.4,10.8,14.1,21,27.2c0-15.5,1-24.9-0.2-33.9c-7-53.3-20.2-104.7-46.1-152.3c-4.5-8.2-6.7-17.6-10.5-28
	c17.9-2.7,23.4,7.4,29.5,16.3c67.5,98.1,86.1,204.3,53.3,319.2c-34.2,119.7-110.8,205.6-219.7,260
	c-166.6,83.2-334.9,80.8-497.3-12.3c-127.2-72.9-192.8-186.9-195.7-333c-1.6-83.4,24.3-160.8,75.8-228.1
	C1581.8,1451.2,1584.6,1449.7,1609.6,1444.3z M1940.2,2035c85.4-0.3,160.7-17.9,229-56.3c68.2-38.4,122.2-91.4,157-162.5
	c14.9-30.6,16.3-60.9,3.6-93.2c-27.8-70.8-79.6-117.5-146.6-148.8c-54.2-25.3-111.2-41-171.2-45.5
	c-133.6-10.2-252.7,26.4-356.5,111.1c-37.4,30.5-63.4,69.7-80.4,115c-6.7,17.9-6.9,35-0.8,52.9c10.5,30.9,26.8,58.5,47.5,83.5
	C1704.3,1991.1,1812,2035.9,1940.2,2035z"/>
<path d="M2260.8,717.7c142.9,9.2,283.1,14.7,422.4,28.4c115.9,11.4,224.3,49.8,316.9,123.5c72.1,57.3,119,130.4,130.4,223.8
	c4.4,36.1-1.7,70.4-13.3,104c-10.2,29.5-22.4,58.3-33.6,87.4c-17.7,45.9-24.5,92.5-18.3,142.2c4.8,38.7,7.1,78.7,3,117.4
	c-7.3,69.6-44,124.2-106.1,156.1c-120.4,61.8-245.1,67.1-370.9,16.5c-35.9-14.5-66.2-37.4-89.9-69.2
	c-35.7-48.1-41.1-101.5-31.4-158.2c4.7-27.8,9.6-55.6,13.1-83.5c11.8-94-16.8-172.8-89.9-234.4c-57.4-48.3-125.1-76.3-195.1-100.2
	c-28.6-9.8-57.9-18.2-85.1-30.9c-22.5-10.4-45.6-23.1-63.1-40.2c-66.2-64.6-45.3-148.7-5-203.7c30.4-41.4,73.7-62,122.9-70
	C2199.2,721.5,2231.6,720.3,2260.8,717.7z M2262.1,768.2c-0.1-0.8-0.2-1.7-0.3-2.5c-31,3.1-62.2,4.7-93,9.5
	c-32.7,5.1-61.5,20.2-83,45.8c-49.9,59.2-46.1,136.5,27.7,168.4c38.7,16.7,78.7,30.7,118.4,44.9c50.4,18,99.7,38.1,145,67
	c119.5,76.4,169.9,184,148.4,324.8c-5.5,35.8-11.4,71.7-14.1,107.8c-3.5,47.8,16,87.5,54.4,115.2c22.5,16.2,48.2,30.3,74.6,38.3
	c56.3,17.1,114.4,22.6,173.4,13c51.2-8.4,100.6-20.7,144-50.8c43.9-30.3,66.7-72.1,67.5-125.2c0.4-25.1-0.5-50.5-3.8-75.4
	c-9.9-75-0.3-146.6,33.1-214.9c6.6-13.5,11.8-27.8,17.3-41.9c25.3-64.6,16.9-126.4-15.3-186.3c-33.6-62.5-85.1-106.6-145.7-141.2
	c-84.1-48-176.1-69.9-271.3-76.8C2514,778.9,2388,774.6,2262.1,768.2z"/>
<path d="M1879.9,633.5c-22.5-0.7-39.1-18-39.2-40.7c-0.1-23.6,19.1-42.8,41.5-41.6c21.5,1.2,37.5,19.4,37.3,42.6
	C1919.3,616.6,1901.8,634.2,1879.9,633.5z"/>
<path d="M1413.8,684.6c0.5,24.8-16.4,42.6-40.5,42.3c-21.9-0.2-36.2-15.1-37-38.6c-0.8-23.3,14.8-41.4,36.8-42.7
	C1394.7,644.3,1413.3,662.1,1413.8,684.6z"/>
<path d="M3445.9,1893.3c20.5-0.7,37.3,15.9,38,37.6c0.7,23.4-14.5,40.2-37.7,41.6c-21.5,1.3-37.2-13.8-38.3-36.8
	C3406.9,1915.4,3426.1,1894,3445.9,1893.3z"/>
<path d="M3248.3,1246.5c-23.3,0.6-39.6-13.4-40.6-34.8c-0.9-20.2,18.8-40.7,39.5-41.2c19.6-0.5,38.4,18,38.8,38.2
	C3286.4,1230.4,3271,1245.9,3248.3,1246.5z"/>
<path d="M3115.1,2272.7c-0.6,22.5-18.1,38.8-41.2,38.3c-20.5-0.4-35.4-15.8-35.5-36.6c0-21.6,19.1-41.8,39.1-41.2
	C3097.1,2233.9,3115.6,2253.3,3115.1,2272.7z"/>
<path d="M3172.6,2545.6c-0.1,22.4-17.5,39-40.6,38.9c-21.1-0.2-34.5-14.5-34.3-36.7c0.2-21.3,17.3-39.9,36.7-40.1
	C3156,2507.5,3172.8,2524.2,3172.6,2545.6z"/>
<path d="M988.6,2693.7c0,23.4-13.5,36.8-37.8,37.4c-21.7,0.6-36.7-15.3-36.5-38.6c0.2-21.4,17.6-39.2,38-39
	C973.1,2653.7,988.6,2670.9,988.6,2693.7z"/>
<path d="M1606.9,1364.4c0,23.4-13.5,36.8-37.8,37.4c-21.7,0.6-36.7-15.3-36.5-38.6c0.2-21.4,17.6-39.2,38-39
	C1591.4,1324.4,1606.9,1341.6,1606.9,1364.4z"/>
<path d="M1684.3,3043.5c0,23.4-13.5,36.8-37.8,37.4c-21.7,0.6-36.7-15.3-36.5-38.6c0.2-21.4,17.6-39.2,38-39
	C1668.8,3003.5,1684.3,3020.6,1684.3,3043.5z"/>
<path d="M2767.8,2407.2c-19.4-0.8-35.1-18.5-34.3-38.7c0.7-20,18.1-35.9,38.1-34.9c19.8,1,35.9,19.1,34.3,38.6
	C2804.1,2393.5,2788.2,2408.1,2767.8,2407.2z"/>
<path d="M799.2,2545.1c18.5,0.7,31.7,14.6,31.6,32.9c-0.2,19-12.8,30.7-32.9,30.5c-20.2-0.2-31.5-12-30.9-32.1
	C767.5,2556.7,780.3,2544.3,799.2,2545.1z"/>
<path d="M2960,1986.8c-16.1,0.2-28.4-10.1-29-24.1c-0.6-15.1,12.7-30.7,26.6-31.4c14-0.7,29.7,14.7,29.2,28.6
	C2986.2,1974.1,2973.8,1986.6,2960,1986.8z"/>
<path d="M1700.5,857.3c0.1,16.1-12.2,28-28.6,27.7c-14.1-0.3-24.3-10.4-24.7-24.3c-0.4-15.1,12.6-29.7,27.1-30.2
	C1688,829.9,1700.4,842.6,1700.5,857.3z"/>
<path d="M2924.8,2734.4c-12,0.1-24.3-13-24.4-26c-0.1-14.8,11.9-28,25.6-28c14.3,0,26.1,10.3,26.5,23.3
	C2952.9,2718,2938.2,2734.3,2924.8,2734.4z"/>
<path d="M3378.6,1538c-15.7,0.7-27.7-9.7-28-24.1c-0.3-14.1,11.5-26.3,26.1-27.1c14.8-0.8,28.7,9.9,30,23
	C3408.2,1524.3,3395.2,1537.3,3378.6,1538z"/>
<path d="M2300.1,619.6c-0.6,13.8-14.6,26.8-28.2,26.2c-13-0.5-26.9-16.1-25.7-28.8c1.3-12.9,16.7-25.2,30.2-24
	C2289.7,594.2,2300.7,606.5,2300.1,619.6z"/>
<path d="M2112.6,2731.3c-0.6,13.8-14.6,26.8-28.2,26.2c-13-0.5-26.9-16.1-25.7-28.8c1.3-12.9,16.7-25.2,30.2-24
	C2102.2,2705.9,2113.2,2718.2,2112.6,2731.3z"/>
<path d="M2154.3,3154c-13.3,0.1-27.5-13.6-27.3-26.3c0.1-12.9,14.4-25.8,28-25.4c14.9,0.4,24,9.6,24,24.5
	C2179.1,3143.4,2169.5,3153.9,2154.3,3154z"/>
<path d="M388.3,2060.9c-13.3,0.1-27.5-13.6-27.3-26.3c0.1-12.9,14.4-25.8,28-25.4c14.9,0.4,24,9.6,24,24.5
	C413.2,2050.2,403.6,2060.8,388.3,2060.9z"/>
<path d="M2274.4,2514.4c-13.3,0.1-27.5-13.6-27.3-26.3c0.1-12.9,14.4-25.8,28-25.4c14.9,0.4,24,9.6,24,24.5
	C2299.2,2503.8,2289.6,2514.3,2274.4,2514.4z"/>
<path d="M1219,2626.1c12.9,0.3,24.4,12.9,23.9,26.1c-0.6,15.9-12.3,27.7-26.4,26.8c-14.9-1-24.6-11.2-24.1-25.4
	C1192.9,2638.8,1205.5,2625.8,1219,2626.1z"/>
<path d="M1440.5,2976.8c12.9,0.3,24.4,12.9,23.9,26.1c-0.6,15.9-12.3,27.7-26.4,26.8c-14.9-1-24.6-11.2-24.1-25.4
	C1414.3,2989.4,1426.9,2976.4,1440.5,2976.8z"/>
<path d="M1440.5,2731.1c12.9,0.3,24.4,12.9,23.9,26.1c-0.6,15.9-12.3,27.7-26.4,26.8c-14.9-1-24.6-11.2-24.1-25.4
	C1414.3,2743.8,1426.9,2730.8,1440.5,2731.1z"/>
<path d="M1701.8,2518.6c12.9,0.3,24.4,12.9,23.9,26.1c-0.6,15.9-12.3,27.7-26.4,26.8c-14.9-1-24.6-11.2-24.1-25.4
	C1675.7,2531.3,1688.3,2518.3,1701.8,2518.6z"/>
<path d="M3273.5,2080.8c-0.4,14-12.9,24.5-28.7,24.2c-14.1-0.3-25.4-11.2-25.3-24.1c0.2-13.4,13.8-26.8,27.3-26.7
	C3261.5,2054.3,3273.9,2066.7,3273.5,2080.8z"/>
<path d="M600.2,2437.7c14.2,0,27.4,12,28.1,25.6c0.7,14.1-11.3,25.2-27.2,25.3c-15.2,0.1-26.1-11.3-25.6-26.6
	C576,2447.6,586.2,2437.7,600.2,2437.7z"/>
<path d="M1772.2,1119.6c14.2,0,27.4,12,28.1,25.6c0.7,14.1-11.3,25.2-27.2,25.3c-15.2,0.1-26.1-11.3-25.6-26.6
	C1747.9,1129.6,1758.1,1119.6,1772.2,1119.6z"/>
<path d="M1032,832.2c14.2,0,27.4,12,28.1,25.6c0.7,14.1-11.3,25.2-27.2,25.3c-15.2,0.1-26.1-11.3-25.6-26.6
	C1007.7,842.2,1017.9,832.2,1032,832.2z"/>
<path d="M601.7,2054.1c14.2,0,27.4,12,28.1,25.6c0.7,14.1-11.3,25.2-27.2,25.3c-15.2,0.1-26.1-11.3-25.6-26.6
	C577.4,2064.1,587.6,2054.2,601.7,2054.1z"/>
<path d="M1075.6,2453c-14.8-0.2-26.5-12.7-25.8-27.5c0.6-13.1,10.4-24.4,21.6-25c14.4-0.7,30.1,14.2,29.7,28.1
	C1100.8,2442,1089.1,2453.2,1075.6,2453z"/>
<path d="M2031.4,3042.1c14.7,0.3,26.6,10.2,27.2,22.7c0.7,15.4-12.8,27.6-29.6,27c-14.3-0.5-23.9-11.1-23.3-25.8
	C2006.3,3052.3,2017.5,3041.8,2031.4,3042.1z"/>
<path d="M2568.9,2951.9c14.7,0.3,26.6,10.2,27.2,22.7c0.7,15.4-12.8,27.6-29.6,27c-14.3-0.5-23.9-11.1-23.3-25.8
	C2543.7,2962.1,2554.9,2951.6,2568.9,2951.9z"/>
<path d="M1438.4,2521.2c14.7,0.3,26.6,10.2,27.2,22.7c0.7,15.4-12.8,27.6-29.6,27c-14.3-0.5-23.9-11.1-23.3-25.8
	C1413.2,2531.4,1424.4,2521,1438.4,2521.2z"/>
<path d="M3397.9,1779.5c-13.7-0.4-25.5-12-24.8-24.5c0.7-12.4,13.4-24.9,25.2-25c13.3-0.1,27.6,14.3,26.5,26.7
	C3423.9,1768.9,3410.8,1779.9,3397.9,1779.5z"/>
<path d="M654.4,1203.9c0.7,15-10.1,26.2-25.7,26.7c-13.9,0.4-24.8-9.8-25.3-23.7c-0.4-13.8,9.6-25.6,22.7-26.6
	C641.7,1179,653.7,1189,654.4,1203.9z"/>
<path d="M3360.8,2207.5c14.1-0.5,26.1,9.3,27.2,22.2c1.3,15.1-12.1,29-27.7,28.7c-12.7-0.2-22.6-9.6-23.8-22.4
	C3335.2,2221.6,3346.7,2208,3360.8,2207.5z"/>
<path d="M1057,2907.5c-0.3,13.6-11.6,25.8-23.9,25.7c-13.7,0-23.3-10.8-22.8-25.5c0.5-14.6,10.9-26.5,23-26.3
	C1045.6,2881.7,1057.3,2894.6,1057,2907.5z"/>
</svg>
