<?xml version="1.0" encoding="utf-8"?>
<!-- Generator: Adobe Illustrator 24.3.0, SVG Export Plug-In . SVG Version: 6.00 Build 0)  -->
<svg version="1.1" id="Layer_1" xmlns="http://www.w3.org/2000/svg" xmlns:xlink="http://www.w3.org/1999/xlink" x="0px" y="0px"
	 viewBox="0 0 4000 4000" style="enable-background:new 0 0 4000 4000;" xml:space="preserve">
<path d="M3352.3,2767.6c-5.4,66.4-35.6,115.2-94.2,144.1c-55.9,27.5-113.7,23.6-174.1,3.9c-20.7,52.5-52.7,91.9-107,110.1
	c-53.7,17.9-103.9,9.9-153.6-16.3c-4.7,4-9.9,7.1-13.3,11.5c-37.3,47.9-131,76.8-199.8,47.3c-20.7-8.9-36-7.5-54.4,6.5
	c-27.8,21.1-62.9,24.4-96.4,28.3c-177.6,20.7-355.9,20.6-534.2,16.8c-36.4-0.8-73-8.9-108.8-16.6c-14.8-3.2-29.1-12.6-41.4-22.1
	c-20-15.3-19.4-16.6-43.6-3.9c-35,18.5-71.8,28.6-111.8,27.2c-43.5-1.6-82-14.4-114.3-44.4c-5-4.6-10.7-8.4-17.9-14
	c-41.3,30.7-86.5,50.4-138.6,45.9c-50.6-4.4-94.3-23.7-126.3-67.8c-8,3.9-15.7,6.1-21.6,10.6c-70.9,53.6-190.7,28.7-227.1-45.5
	c-2.1-4.3-5.8-7.9-10.3-13.8c-10.1,3.2-20.4,6-30.4,9.5c-43.8,15.3-87.3,16.7-131.5,0.3c-46-17-77.1-48.1-94.1-93.7
	c-3.1-8.2-6.2-16.4-10-26.6c-8.7,1.3-16.3,2.1-23.8,3.6c-28.5,5.9-56.9,9.2-85.7,1.1c-80.1-22.3-128-100.5-111.5-182.6
	c1.2-5.7,2.1-11.5,3.5-18.8c-5-2.4-9-5.3-13.5-6.3c-70.4-14.7-123.8-90.7-97.6-177c9.7-31.9,5.6-48.3-19.1-72.4
	c-69.2-67.3-47.1-174.8-3.9-224c9.8-11.2,20.2-21.9,32.2-34.9c-6.2-6.7-11.7-13.2-17.7-19.2c-112.2-112.6-152-246.9-119.8-402.2
	c22.4-108,78.1-199.1,145.2-284.8c124.8-159.4,283.1-276.2,463.3-364.6c168-82.4,344.5-140.7,528.8-173.7
	c83.2-14.9,167.2-25.4,250.8-37.9c7.8-1.2,17-0.9,23.1-5c36-23.8,77.6-23.7,117.8-28.5c131-15.8,262.5-15.4,393.9-6.2
	c74.4,5.2,148.6,14,222.5,23.8c20.9,2.8,40.6,15.1,60.9,22.8c11.1,4.2,21.9,9.9,33.4,11.9c210.1,36.8,411.8,99.7,603.1,194.5
	c138.6,68.7,264.3,155.7,368.5,271.1c127.6,141.3,213.7,304,247.3,492.7c14.7,82.7,12.7,164.7-14.9,244.9
	c-23,66.8-61.4,122.4-119.6,163.6c-2.3,1.6-3.7,4.4-5.7,6.8c1.5,2.9,2.3,6.1,4.4,7.9c60.9,53.7,58.7,158.1,11,215.3
	c-14.3,17.1-33.8,30.3-52.4,43.2c-19.1,13.3-19.8,12.2-12.7,35.4c21.3,69.1-11.3,150.8-75.4,184.2c-15.4,8-33.9,10.5-51.2,14.5
	C3373.3,2766.4,3363.3,2766.5,3352.3,2767.6z M1909,2631.8c-13.4,140.1-33,275.5-72.8,408.1c9.6,3.1,16,6.2,22.7,7
	c13.8,1.8,27.7,3.3,41.6,3.3c138.5-0.1,277,1.4,415.3-2c59.4-1.4,118.5-13.2,177.7-20.1c29.1-3.4,44-21.3,49-48.5
	c12.2-66.5,24.2-133.1,35.7-199.7c4.4-25.3,7.4-50.8,11.2-77.4c-8.3-1.2-14.1-2.7-19.8-2.6c-19.9,0.2-39.8,1.7-59.7,1.5
	c-38-0.4-75.9-3.5-111.4-18.2c-40.4-16.6-48.8-55.6-17.3-85.9c13.9-13.3,32.3-23.3,50.4-30.5c36.8-14.6,76.1-13.7,115-13.3
	c17.6,0.1,35.2,0,51.9,0c1.9-6.7,3.2-9.5,3.4-12.3c3.7-81.6,9.1-163.1,10.6-244.7c3.6-196.2,5.8-392.5-3.8-588.7
	c-6.6-135.4-18.5-270.3-48.2-403c-24.7-110.2-57.7-217.5-111.3-317.6c-32.7-61.2-32.8-63.4-101.7-71.8
	c-80-9.7-160.4-16.4-240.9-21.3c-119.6-7.2-239-1.9-358.1,10.5c-11.4,1.2-22.5,5.4-35.8,8.8c3.7,9.6,5.5,16.1,8.7,21.9
	c69.6,124.8,112.2,259.1,140.2,398.5c30.5,151.8,47.3,305.4,51.1,459.8c4.7,189.2,3.6,378.5,3.6,567.8c0,57.7-5.2,115.4-7,173.2
	c-0.3,10,1.4,24.7,7.9,29.5c18.7,13.9,41.8,13.4,62.8,5.2c18.7-7.3,25-24.6,24.7-44c-0.2-12.9-1.4-25.9-1.9-38.8
	c-0.5-11.7,1.3-22.3,15-25.5c12.8-3,25.2-0.4,31.4,11.2c6.4,12,11.6,25.7,13.2,39.1c8.1,70.1-45.5,125.9-117,123.3
	C1934.7,2634.1,1923.9,2632.9,1909,2631.8z M1851.6,1864.1c-30.9,2.8-58.5,5.5-86,7.9c-147.6,12.9-291.7,43.8-430.8,93.6
	c-96.4,34.5-190.2,76.5-283.8,118c-83.7,37.1-165.3,78.9-248.5,117.2c-45.3,20.9-92.4,37.5-142.6,42c-70,6.3-137.4-3.2-198.8-39.6
	c-17.6-10.4-31.3-7.7-45.8,5c-21.8,19.1-36.7,42.2-41.8,70.6c-9.5,52.4,16.7,106.9,73.8,118.6c3.9,0.8,7.8,1.7,11.5,3.1
	c28.3,11.1,32.5,27.1,12.8,49.8c-6.5,7.5-15.3,13.3-20.7,21.4c-7.6,11.3-15.8,23.3-19.1,36.3c-10.8,42.2,17.7,99.1,86.9,90
	c17.2-2.2,35.5-4.8,46.9,10.7c12.3,16.9-2.7,31.4-8.7,46.8c-7.2,18.3-15.4,37.1-17.9,56.3c-6.3,49.6,43.6,117.8,115.9,91.1
	c16.6-6.1,32.2-15.6,47.2-25.2c36-23.2,51.6-15.6,55.2,27.7c0.9,10.9,1.3,21.9,3.2,32.7c10.4,58.9,57.3,96.3,116.8,92.5
	c33.3-2.1,60.5-17.4,84-40.8c21.6-21.5,37.4-17.6,48.5,10.9c5.7,14.8,9.9,30.4,16.9,44.6c25.5,51.7,78,67.8,128.1,39.1
	c12.8-7.3,23.8-17.8,35.1-27.5c6-5.1,10.5-12,16.4-17.3c14.6-13.3,22.1-13.2,34.8,1.8c10.3,12.1,18.7,25.8,28.9,38
	c51.5,62.3,134.3,62.6,186.2,0.9c6.4-7.6,12-15.9,18.5-23.5c8.9-10.5,19-10.9,27.9-0.6c11.1,12.8,21,26.6,31.8,39.6
	c47.8,57.3,141.7,58.3,190,2.1c19.9-23.1,19.8-23,49.5-12.5c2.6,0.9,5.6,0.6,8.1,0.8c26.3-47.9,69.2-337.5,56.4-384.9
	c-8.6,5.7-16.4,11.3-24.7,16.2c-42.1,24.8-85.5,27.1-127.8,2.6c-40.8-23.6-63.2-60.7-62.8-108.3c0.1-14.9,7.2-30.4,13.9-44.3
	c5.5-11.4,17.8-11.6,29-8.3c11,3.3,15.6,11.7,15.8,22.7c0.2,11.9-0.9,24,0.5,35.8c3.8,30.7,20.5,48.9,49.8,55.8
	c27.8,6.6,54.5-2.8,70.6-26.8c7.7-11.5,12.7-24.7,19.1-37.1c3.6-7,5.9-17,11.8-20.2c17.7-9.4,17.8-24.6,17.9-40.7
	c1-184.3,2.1-368.6,3-552.9C1854.3,1887.2,1852.8,1878.4,1851.6,1864.1z M2608,2990.8c56.1,39,140.4,24,172.1-49.1
	c1.6-3.6,3.3-7.3,5.4-10.7c10.6-16.8,17.6-18.8,34.1-8.5c10.1,6.3,19.5,13.8,29.1,21c24.2,18,51,25.5,81.3,23.2
	c46.1-3.6,82.1-33.6,92.4-79.1c2.4-10.7,4-21.5,6.6-32.2c6.5-26.4,17.6-32.3,43.6-22.9c8.4,3,16.2,7.7,24.5,10.9
	c16.7,6.4,33.1,14,50.4,18c48.5,11.3,103.8-12.7,126.5-53.2c14.1-25.1,11.5-51.9,7.7-78.7c-5.2-37.3,5.9-47.6,42.9-39
	c5.8,1.3,11.1,4.5,16.9,5.7c7.7,1.6,15.7,3.5,23.4,3c67.5-5,105.1-68.2,77.2-129.7c-5.3-11.8-12.4-22.7-18.2-34.3
	c-13.4-26.4-9.3-37,18.8-47.2c13.1-4.8,26.8-7.7,39.8-12.8c58.1-22.8,87.8-111.6,35.2-161.4c-16.1-15.3-31.6-20.3-53.5-14.7
	c-49,12.5-98,10.5-147.7-0.8c-82-18.5-155.8-55-225.7-99.4c-123.8-78.5-250.2-151.9-384.6-211c-6.8-3-14-4.9-22.8-8
	c-0.8,8.2-1.5,12.9-1.6,17.7c-3,135.4-5.4,270.9-9.1,406.3c-1.3,45.7-5.6,91.4-9,137.1c-1.8,23.8-3.9,46.9,8.9,69.5
	c10.1,17.8,8.8,36.8-7.5,51.9c-12.2,11.4-13.1,26.2-14.1,41.1c-5.9,88.6-19.7,176-39.4,262.6C2609.5,2974.7,2609,2983.4,2608,2990.8
	z M859.9,1804.3c14.4-7.6,22.3-11.3,29.7-15.7c18.8-11.3,37-23.6,56.1-34.2c168.3-93.8,348.3-156.5,535.6-198.9
	c21-4.7,31.5-10.8,35.8-34.5c17-94,50.8-182.3,103.5-262.2c30.1-45.6,63.4-89.2,96.6-132.7c10.5-13.7,13.1-25.1,5-40.5
	c-22.3-42.2-44-84.8-65.4-127.5c-7.7-15.4-18.4-21.5-35.9-18.7c-91.4,14.4-182.9,28.2-274.3,42.4c-23.3,3.6-42,14.9-59.6,31.1
	c-84.6,78.2-157.4,166.2-222,261.3c-98.6,145.1-170.1,301.5-199.2,475.6C863,1765.2,862.3,1781.1,859.9,1804.3z M3450.6,1452.1
	c-10.4-12.4-17.7-21.7-25.6-30.5c-129.3-144.5-287.5-247.3-464.7-323c-13.9-5.9-26.6-6.8-40.1,0.1c-22.2,11.3-45,21.3-66.7,33.4
	c-79.8,44.4-150,101.2-213.5,166.7c-9.2,9.4-11.5,18.3-9.5,31.9c11.6,80.8,23.1,161.6,31.4,242.7c2.5,24.4,9,39.3,33.2,44.4
	c2.9,0.6,5.6,2.1,8.4,3.1c108.1,40.8,215.2,83.8,316.2,140.5c23.1,13,25,12.5,42-7.4c21.3-25,41.1-51.4,64.2-74.6
	c87.9-88.3,188.1-159.5,300.7-213.2C3433.5,1462.9,3439.9,1458.4,3450.6,1452.1z M1229,1017.5c-1.1-2-2.3-4-3.4-6
	c-26.4,8.1-52.9,16-79.2,24.2c-146.9,46.1-286.6,108-416.9,190.5c-24.6,15.6-47.2,32.9-63.9,57.4C589,1396,525.2,1514.8,481,1643.8
	c-26,75.8-41.1,153.6-48.3,233.2c-2.1,23.2,0.1,27.9,21,37.2c16.3,7.2,33.5,12.7,50.4,18.2c43.6,14.3,87.6,16.3,132.3,4.2
	c52.9-14.3,97.3-44.3,142.6-73.4c32.6-20.9,54.2-45.3,48.8-86.5c-0.6-4.8,1.1-9.8,1.8-14.8c15.1-110.3,48.4-215.4,95.5-315.9
	c71.2-151.9,166.7-287.1,284.3-406.7C1216.2,1032.4,1222.5,1024.8,1229,1017.5z M3076.2,1788.6c69.5,49.6,135.4,95.9,200.5,143.3
	c49.1,35.8,96.3,74.3,151.3,101.1c55.7,27.1,112.7,44.6,175.6,25c21.8-6.8,35.7-17.2,35.8-40.8c0.3-43.7,4.2-88-0.6-131.2
	c-15.8-142.9-75-269.4-154-387.7c-3.3-4.9-6.8-9.7-11.2-15.8C3315,1555.2,3181.4,1653.8,3076.2,1788.6z M1508.4,1589.6
	c-9.2,1-15.2,1-20.9,2.3c-126.3,28.9-250,66.1-368.5,119.1c-80.9,36.2-159.3,77.2-234.9,123.7c-18.5,11.4-25.8,23.5-22.5,46
	c6.5,44.6,15.3,88.4,32.8,129.8c8,18.8,14.9,38.8,32.9,54.6c203-98.9,410.6-185.5,636.1-231.8
	C1523.1,1755.3,1515.2,1674.1,1508.4,1589.6z M3059.4,1828.4c-5.5,2.9-7.8,3.4-8.8,4.8c-3.4,4.9-6.6,9.9-9.4,15.1
	c-29.1,56.1-49,115.1-59,177.6c-3,18.5,0.9,29.6,17.2,39.2c59.9,35.4,118,74.1,179.2,107.1c41.7,22.5,86.3,41.6,131.7,55
	c71.8,21.3,143.4,18.9,210.5-21.1c41.7-24.9,67.9-61.8,90.4-105.1c-26.8,0-49.3,0.9-71.8-0.2c-66.7-3.3-125.9-29-180-65.8
	c-60.9-41.4-119.4-86.2-179.8-128.2C3139.7,1879.1,3098.3,1853.7,3059.4,1828.4z M439.4,1946.3c0,12.6-0.8,18.6,0.1,24.3
	c9.3,61,33.4,116.6,64.5,169.2c6,10.1,18.3,18.3,29.5,23.1c42.6,18,87.3,18.4,132.1,10.5c79.4-13.9,150.4-50.7,222.5-84.2
	c1.4-0.7,2-3.3,4.2-7.2c-40.5-60-55.1-130.9-70.5-207.2C705.2,1967,584.8,2019,439.4,1946.3z M2945.4,2032.9
	c15.4-79.7,39-154.7,77.4-223.4c-59.3-45.7-311.7-156.3-351.6-154.8c-0.5,2.8-1.6,5.6-1.5,8.5c3.4,75.5,7.2,150.9,10.1,226.4
	c0.5,14.2,6.1,20.6,18.8,26.1c55.5,24.1,110.7,49,165.5,74.7C2890.8,2002.9,2916.4,2017.6,2945.4,2032.9z M1599.8,1823.8
	c83.4-9.7,165.6-19.2,250.5-29.1c-6.5-83.1-12.8-163-19.3-246c-98.6,1.7-192.1,14.8-284.3,32.2
	C1542.6,1658,1566.5,1766.3,1599.8,1823.8z M1747.3,1153.5c-12.1,10.9-20.3,16.6-26.3,24c-15.7,19.3-31.1,38.8-45.3,59.2
	c-58.7,84.1-103,174.7-122.9,276.1c-1.6,8.2-1.7,16.6-2.5,25.4c93-9.8,182.7-19.2,275-28.9
	C1809.7,1389.5,1789.9,1272.7,1747.3,1153.5z M2891.9,1068.9c-112.5-46.5-342.9-109.4-381.4-102.9c49.2,95.9,81.6,197.2,108,301.3
	c45.2-38.2,85.7-76.6,130.5-109.1C2793.6,1125.8,2842.5,1099.4,2891.9,1068.9z M584.2,1345.4c-1.9-1.3-3.7-2.7-5.6-4
	c-11.2,9.6-23.1,18.5-33.6,28.9c-59,57.9-114.1,119.3-159,189c-29.2,45.2-55.5,92-69.1,144.6c-3.4,13.2-6.4,28.2-3.6,41
	c11.2,51,38.1,92.7,84.2,128.6c8.2-98,28.2-188.7,60.5-276.5C490.5,1508.6,532.1,1424.4,584.2,1345.4z M302.6,1832.6
	c-8.9,106.5,67.9,242.3,138.9,280.6c0.2-3.1,1.2-6.2,0.6-8.8c-1.4-5.8-3.1-11.5-5.5-16.9c-21.1-47.6-35.2-96.8-35.6-149.4
	c-0.1-7.9-4.3-19.1-10.4-22.9c-31.8-19.9-55.9-47.2-78.1-76.6C310.9,1836.4,307.8,1835.6,302.6,1832.6z M2594.4,2586.7
	c-14.5-5.8-25.4-3.3-33.8,12.1c-9,16.5-19.3,32.4-30.4,47.5c-5,6.9-12.8,12.5-20.4,16.4c-4.3,2.2-12.7,1.8-15.9-1.1
	c-3-2.7-3-10.7-1.7-15.7c1.5-5.5,5.3-10.7,9.2-15.2c13.4-15.6,27.3-30.8,43.3-48.8c-46.2-7.1-88.9-0.4-129.4,20.1
	c-14.3,7.2-29.1,17.3-27.3,35.7c1.8,18.1,19.2,20.7,33.2,25.1c54.5,17.2,110,9.6,165.3,6.3c1.5-0.1,2.7-4.5,4.8-8
	c-10.4-5.5-20.1-10.8-33.6-18c9.7-10.3,17-17.9,24.1-25.7C2589.1,2609.1,2601.5,2602.7,2594.4,2586.7z"/>
<path d="M2181,2411.2c-0.6-77,58.5-138.9,133.4-139.4c76.3-0.5,136.8,58.7,138,135c1.1,73.9-60.7,137.4-135.3,139
	C2245.6,2547.3,2181.6,2484,2181,2411.2z"/>
<path d="M1226,2408.5c0.5-76.7,61.1-137.2,136.5-136.4c76.2,0.8,138.4,64,137.8,140c-0.6,73.7-64,133.5-140.8,132.9
	C1285.6,2544.4,1225.5,2482.9,1226,2408.5z"/>
<path d="M1174.4,2555.6c30.7,3.3,56.7,4.4,81.8,9.5c16.1,3.3,32.5,10.2,46,19.5c30.3,20.9,30.9,57.3,2,80.4
	c-10.6,8.5-23.6,15.3-36.6,19.1c-56.8,16.4-114.6,24.7-173.5,12.9c-14.5-2.9-29.1-6.5-42.8-12.1c-37.2-15.3-46.1-55.2-19.3-85.3
	c15.6-17.6,35.8-29.2,58.7-33.2C1119.9,2561.2,1149.5,2558.7,1174.4,2555.6z M1201.3,2586.8c-46.8-6.2-91.8-7.1-133,17.6
	c-7.5,4.5-14.6,10.7-19.8,17.7c-10.3,13.9-7.6,27.8,8.1,34.5c16.2,7,33.6,13.2,50.9,14.9c49.8,4.9,99.4,0.2,148.2-10.2
	c12.1-2.6,24.8-8.5,34.3-16.3c15.1-12.5,11.8-26.5-8.2-39.7c-2.6,7.8-3.7,16-7.9,22.2c-5.9,8.8-12.7,18.7-21.6,23.2
	c-7.2,3.6-20.8,3.2-26.8-1.4c-9.7-7.5-2.5-18.1,3.8-26c8.3-10.3,17.1-20.1,26.3-30.8c-4.3-0.9-8.9-2.5-13.6-2.7
	c-25.3-1.2-26-0.2-35.6,24.3c-4.4,11-9.6,22-16,31.9c-10.4,16.1-19.3,18.7-43,13.4C1155,2627.3,1175.5,2606.2,1201.3,2586.8z"/>
<path d="M1229.4,2902.4c-53-3.2-100.2-38.7-112-86.7c-4.7-19.2,2.2-36.7,18.2-46.3c10.4-6.2,19.3-5.4,24.7,6.2
	c3.3,7.1,5.4,15,7.4,22.6c15.9,59.4,78.9,53.5,106.7,26.2c4.2-4.2,7.7-9.1,11.4-13.8c9.1-11.7,20.1-11.6,31.8-4.8
	c12.8,7.4,13.6,18.6,8.6,31c-9,22.3-25.2,38.7-46.2,48.8C1264,2893.3,1246.3,2897,1229.4,2902.4z"/>
<path d="M982.3,2165.2c24.4,0.3,37.1,10.4,38.9,25.3c1.8,14.5-5.5,22.8-24.5,27.9c-35,9.3-46.9,21.4-48.8,50.9
	c-1.4,21.4,5.1,39.2,25.2,50.1c7.8,4.3,16.6,7.9,22.7,14c5,5,10.4,14.3,8.9,19.8c-2,7.2-10.2,17-16.6,17.8
	c-12.1,1.4-26.1-0.3-37.2-5.4c-42.6-19.6-64.5-73.9-50-122.1c8.6-28.6,25.5-51.9,51.8-66.8C963.8,2170.5,976.5,2167.4,982.3,2165.2z
	"/>
<path d="M1311.5,2092.3c-1.8,10.2,5.1,24.9-12.7,28.2c-13.2,2.4-27.2-6.1-32.7-20.6c-10.6-28-2.8-53,15.7-74.7
	c42-49.2,130.2-46.4,167.4,6.1c7.9,11.2,10.8,27.1,12.5,41.3c1.4,11.6-6.6,20.8-18.8,23.5c-11.5,2.5-18.6-4.1-23.6-13.7
	c-3.7-7-7.2-14.3-11.9-20.6c-19-25.6-61.6-29.4-85-8.2C1310.8,2064.1,1309.2,2077.3,1311.5,2092.3z"/>
<path d="M3082.3,2684.2c-0.1,84.7-66.4,137.8-144.4,120.7c-16-3.5-30.1-10.5-38.5-25.4c-6.9-12.2-5.1-27.4,3.6-35.8
	c10.2-9.8,19.4-4.7,29.7,0.5c31.3,15.9,55.9,13.7,76.7-5.8c22.9-21.5,27.4-48.4,12.4-75.6c-1.9-3.5-4.2-6.8-6.5-9.9
	c-7.4-9.8-9.1-19.6-0.4-29.7c8.7-10.2,22-12.8,35.1-5.8c16.8,9.1,26.3,23.9,30,42.3C3081.6,2669.4,3081.8,2679.4,3082.3,2684.2z"/>
<path d="M3036.2,2370.5c-2.1,26.2-7.6,51.3-25.6,71.7c-4.6,5.2-9.5,10.3-15.1,14.1c-14.4,9.6-30.1,9.5-38.2-0.3
	c-10.9-13.1-3.1-24.5,5.2-34.6c12.9-15.6,24.9-30.7,23.4-52.9c-2-29.4-16.9-48.5-45.4-55.3c-6.7-1.6-13.8-1.9-20.6-3.1
	c-10.4-1.8-21.8-6.1-20.3-17.6c1.2-9.5,7.7-22.3,15.4-25.9c10.7-5,25.3-5.5,37.2-3C2999.1,2273.6,3036.3,2322,3036.2,2370.5z"/>
<path d="M2826.9,2154.1c-1.1,26.5-7.8,51.4-25.2,71.6c-7.4,8.6-18,15.5-28.5,20.2c-12.3,5.4-23.7-0.4-30.9-11.1
	c-6.9-10.2-1.1-18.8,6.2-26.4c3.4-3.6,7.1-7,10.2-10.8c30.9-37.6,18.6-77.6-28.1-91.6c-26.9-8.1-35.1-26.9-19.1-44.4
	c9.1-9.9,20.6-10.1,33-7.7C2791,2063.1,2826.3,2105.9,2826.9,2154.1z"/>
<path d="M2482.3,2589.4c2.2,6.8,5.8,12,4.7,15.5c-7.6,22.2-21.5,39.7-43.7,48.4c-5.3,2.1-15.1,1.2-18.3-2.4
	c-3.1-3.4-2.5-13.3,0.3-18.3C2437.2,2611.5,2454.3,2596.2,2482.3,2589.4z"/>
<path d="M1142.8,2605.2c-10.3,20.3-18.5,41.7-41.4,50.9c-5.6,2.3-15.1,3.2-18.5,0c-3.8-3.5-5.7-14.3-3-18.4
	c8.4-12.8,17.9-25.6,29.7-35.2C1118.6,2595.3,1131.4,2594.4,1142.8,2605.2z"/>
</svg>
