<?xml version="1.0" encoding="utf-8"?>
<!-- Generator: Adobe Illustrator 24.3.0, SVG Export Plug-In . SVG Version: 6.00 Build 0)  -->
<svg version="1.1" id="Layer_1" xmlns="http://www.w3.org/2000/svg" xmlns:xlink="http://www.w3.org/1999/xlink" x="0px" y="0px"
	 viewBox="0 0 4000 4000" style="enable-background:new 0 0 4000 4000;" xml:space="preserve">
<path d="M497.2,2045.3c-7.8-6.8-15-13-22.1-19.2c-40.1-35.2-64.2-78.5-67.8-132.4c-4.1-61,2.5-121.2,15.2-180.7
	c3.8-17.9,10.5-35.5,18.5-52c7.6-15.6,18.8-29.5,30-46.7c-5.7-7.2-11.9-15.4-18.5-23.2c-27.8-33.1-41.2-70.6-39.1-114.3
	c2.5-51.8,2.5-103.7,4.9-155.6c1-21.8,4.7-43.7,8.5-65.3c13.3-75.1,58.8-128.3,119.5-169.9c64.3-44,135.4-74.4,208.4-100.5
	c111.9-40.1,226.5-70.5,343.1-92.8c94.9-18.2,190.5-32.3,285.7-49.3c16-2.8,31.1-10.7,46.4-16.8c6.5-2.6,12.2-7,18.6-9.9
	c99.8-43.8,200.3-85.9,299-132c40.9-19,81.3-20.9,123.1-13c121.7,23,243.1,47.5,364.6,71.4c6.9,1.4,13.6,3.5,20.5,5
	c23.2,5.1,40.4,17.4,46.5,41.4c3.5,13.6,11.5,17.4,24.8,18c148.6,6.9,296,25.4,442.2,52.3c96.7,17.9,193,39.1,284.1,78.1
	c51,21.8,100.8,45.7,143,83c42.6,37.6,63.9,85.2,68.5,141c3.7,45.6,6.3,91.2,10.2,136.7c1.7,20.1,3.9,40.4,8.2,60.1
	c13.7,62.5-4.9,114.4-49.2,158.6c-2.4,2.4-4.4,5.1-8.7,10.2c11.7,7.9,22.6,14.8,32.9,22.3c18.4,13.4,37.9,25.7,54.3,41.3
	c45.6,43.2,64.4,96.9,59.6,159.7c-3.1,40.1-5.8,80.1,1.6,120.5c6.9,37.7,2.6,75.3-16.1,110.3c-3.1,5.8-3.4,16.3-0.2,21.9
	c25.6,44.3,30.4,93.4,33,142.5c1.9,35.8-0.1,72-2.3,107.9c-0.8,13.9,5.9,19.1,16.2,23.3c26,10.6,52.5,20.2,78.2,31.6
	c82.1,36.7,161.1,78.6,231.6,135.3c43.2,34.8,76.8,77.1,100.5,127.2c34.7,73.6,28,144.9-12.2,214.3c-26.9,46.4-64.1,83.5-106,116.2
	c-82,63.9-174.7,108.2-269.8,148c-145.7,61-297.8,100.4-452.1,132.6c-176.7,36.8-355.4,58.9-535,74.6
	c-273.8,24-547.8,27.3-822.3,11.8c-162.6-9.2-324.1-27.6-485.2-49.8c-120.2-16.6-238.5-43.7-356.1-73.9
	c-157.4-40.4-309.3-94.5-450-177.1c-50.2-29.4-99.1-61.3-138.6-104.4c-23-25-44.7-52.6-60.9-82.3c-43.3-79.3-38.4-158.5,8.6-235.4
	c33.7-55.2,80.9-96.8,133-133.6c43.9-31,90.1-58.2,139.2-80.1c5.6-2.5,11-5.6,16.8-7.6c18.3-6.1,25.2-17.5,23.6-37.6
	c-2.2-28-1.7-56.3-0.6-84.4c1.9-44.2,8.3-87.6,31.2-126.7C483.9,2066.3,490,2056.8,497.2,2045.3z M979.4,2921.3
	c5.6,2.4,10.9,5.9,16.7,7.1c90.4,18,180.4,39.1,271.5,52.7c128.6,19.2,258.1,31.4,388.5,34.5c152.2,3.6,304.3,3.8,456.1-9.1
	c137.5-11.7,274.2-29.6,410-55c170.5-31.8,338-74,500.9-133.9c86-31.6,169.6-68.5,244.9-121.5c33.2-23.3,64-49.6,86.6-84
	c12.6-19.3,19.4-40.4,19-65.7c-4.2,2.4-6.8,3.2-8.4,4.9c-75.8,81.3-171.9,129.5-273.8,168.5c-8,3.1-16.3,6.2-27.8-3.6
	c8.5-4.6,14.5-8.5,21-11.4c40.8-18.4,82.4-35.2,122.5-55.2c53-26.5,100.3-61.2,140.1-105.9c34.2-38.4,23.5-80,15.6-122.8
	c-22.2,19.3-41.6,38.3-63.1,54.6c-50.8,38.5-107.7,66.8-166.7,89.8c-130.4,50.9-265.2,87.6-402.5,113.8
	c-126.8,24.1-254.2,45.6-383,56.4c-76.2,6.4-152.3,14.8-228.6,17.8c-218,8.4-435.9,6.1-653.6-13.4
	c-138.5-12.4-275.5-33.5-412.3-56.9c-60.8-10.4-120.6-24.8-178.9-44.2c-66.6-22.2-133.4-44.4-198.3-71.1
	c-40.3-16.6-77.6-40.9-115.5-63c-13.3-7.8-24.3-19.4-36.6-29.4c-20.3,35.6-16.9,60.1,11.2,82.3c17.9,14.2,36.8,27.1,54.9,41
	c3.5,2.7,5.7,7.1,8.5,10.7c-0.9,1.6-1.9,3.3-2.8,4.9c-7.7-2.8-16.2-4.2-22.8-8.6c-17.5-11.6-34.2-24.6-51.3-36.9
	c-4.5-3.2-9.5-5.6-14.9-8.8c-11.9,54.1-1.3,100.7,35.7,138.7c25,25.8,51.5,50.5,80,72.3c65.6,50.2,141.7,81,218.2,109.9
	c41.7,15.8,85.4,26.5,128.1,39.5C972.1,2920.7,975.7,2921,979.4,2921.3z M1403,948.5c-37.8,7.8-71.4,13.8-104.4,21.8
	c-27,6.6-50,20.7-68.1,42.6c-17.3,21-40.2,34.8-66,41.5c-27.9,7.2-56.5,12.1-85.1,16.1c-45.2,6.4-90.9,9.4-135.7,17.3
	c-31.2,5.5-60.4,19-83.8,42c-37.2,36.7-29.6,81.6,18.8,100.2c21.8,8.4,45.9,11.3,69.1,15c24.2,3.9,49.2,4.3,71.1,17.3
	c32.7,19.4,39,54,13.8,82.4c-11,12.4-24.5,22.7-37.2,33.4c-16.2,13.5-33.4,25.8-49,40c-29,26.3-41,59-31.2,97.6
	c7.1,28.1,15.1,56,24.3,83.4c20,59.7,32,120.4,28.6,183.8c-1.9,35.4-9,69.6-18,103.6c-10.5,39.6-13.5,79.2-5,119.9
	c5.4,25.7,8.7,52.2,10,78.4c2.7,55.1-8.7,106.5-44.6,150.7c-12.2,15-22.9,31.2-33.7,47.2c-32.8,48.3-6.5,111.8,42.1,132.2
	c27.3,11.5,55,11.1,82.7,4.2c80.8-20.3,120.6-89.8,119.6-157.4c-0.6-39.3-4.5-79.2-12.5-117.7c-15.1-73.4-17.7-146.4-4.3-220
	c11.4-62.5,16.5-125.4,13.5-188.9c-1.4-29.8-3.4-60-0.5-89.6c2.5-25.8,8.8-51.9,17.9-76.3c14.9-40,49.2-61.1,87-75.5
	c57.6-21.9,104.5-57.2,141.8-105.9c4.8-6.3,10.3-12,15.7-17.7c21.6-22.9,47-39.1,77.7-47.3c47.3-12.7,95.1-15.8,143.8-11.9
	c68.6,5.5,135.6,20.1,202.2,36.4c99.6,24.4,199.1,33.2,300.1,9.3c35.9-8.5,72.6-14.5,109.8-9.9c81,10.2,157.6,35,230.3,71.9
	c64.1,32.5,97.4,86.5,108.8,155.7c9.6,57.8,6.2,115.8,1.5,173.7c-2.8,34.4-5.5,69.2,9,101.4c10.3,23,24.5,44.6,39,65.3
	c35.7,50.8,58.8,105.6,60.7,168.5c0.5,16.6,2.9,33.3,5.9,49.7c4.2,23,14.7,43.1,30.8,60.2c21.6,23,50.2,20.8,68.2-5.7
	c2.9-4.3,5.3-9.1,7.4-13.9c11.8-25.8,19.6-52.6,20.5-81.2c1.9-59,5.3-118.3-20.9-173.6c-13.5-28.5-28.2-56.7-45.1-83.3
	c-27.1-42.6-35.4-85.8-21.1-135.5c15.3-53,28.8-107,31.5-162.7c2.5-52.4,1.8-104.4-31.7-148.8c-13.7-18.1-29.7-34.6-45.6-50.9
	c-15.3-15.7-32.3-29.9-47.6-45.6c-20.3-20.9-30.6-45.6-20.7-74.6c10-29.1,33.7-41.3,62.4-45.8c2.6-0.4,5.3-0.5,7.9-0.9
	c28.5-5.2,57.5-8.6,85.3-16.4c17.2-4.8,34.5-14,48.3-25.4c30.4-25.3,31.5-65.1,3.3-92.7c-11.7-11.5-26-21.1-40.6-28.7
	c-50.8-26.3-106.8-33.9-162.4-42.5c-53.8-8.3-107.8-15.8-161.1-26.4c-34.4-6.8-67.6-18.9-101.6-28c-8.7-2.4-18.1-2.5-28.8-3.8
	c0,30.7-1.1,57.9,0.4,85c1,19.6-6.1,31.4-24,38.6c-21.2,8.6-42.1,17.9-62.6,27.8c-87,42.1-174.1,84.1-260.7,127.2
	c-24.2,12-47.6,14.7-73.8,9c-54.9-12.1-110-23.2-165.3-33.7c-94.1-17.8-188.3-34.8-282.4-52.3c-23.2-4.3-25.8-7.2-27.2-30.9
	c-1.7-29.8-2.9-59.7-4.7-89.6C1406.2,976.5,1404.7,965.4,1403,948.5z M449.8,2363.4c-55.9,32.8-110.5,62.9-163.1,96.3
	c-49.5,31.5-91.2,71.8-118.5,124.9c-20.3,39.5-29.3,80.5-17.5,124.8c12.6,47.4,37.8,86.8,72.7,120.3c37.6,36,79.1,67.1,123.8,93.8
	c124.7,74.6,259.6,124.6,398.8,163.7c162.7,45.6,328.2,78.1,495.7,100.2c187.6,24.8,376.2,37.7,565.3,41.7
	c217.3,4.7,434.4-1.1,651-20.9c131.4-12,262.2-27.7,392.3-49.8c124-21.1,246.3-49.7,366.8-85.8c138.4-41.5,273.1-92.4,395.2-171.7
	c55.6-36.1,108.3-75.5,144.5-132.8c42.2-66.7,43-133.9,2.1-201.4c-26-42.9-62.4-75.7-102.4-105.1c-77.1-56.8-164-95.1-251.2-133
	c-2.9-1.3-6.5-0.9-10.4-1.4c-0.6,3.6-1.7,6.1-1.4,8.4c8.4,55.6,16.4,111.2,25.5,166.7c12.4,75.6-14.8,135.9-69.3,186.5
	c-32.5,30.1-68.8,54.7-107.3,76.2c-94.8,52.7-194.5,94.4-297.6,127.7c-165.1,53.2-333.7,91.5-504.8,119.5
	c-170.3,27.8-341.6,44.9-514.1,49.4c-154,4-307.9,1.3-461.3-12.7c-81.4-7.4-162.7-16.7-243.3-29.9c-80.6-13.1-160.7-30-240.1-49.1
	c-117.5-28.2-230.8-68.8-335.5-130.6c-49.4-29.2-96.4-61.7-133.8-106c-43.7-51.9-70.3-109.6-55.8-179.5
	c7.1-34.3,16.1-68.3,23.7-102.5c1.9-8.3,5.2-18.3,2.2-25.2C473.7,2406.1,462.4,2387.3,449.8,2363.4z M498.2,2180.9
	c-1.1,10.4-2.9,20.5-3.2,30.6c-0.8,28.1,1,56.5-2.1,84.4c-3.5,31.4,10.3,52.2,33.5,69.1c14.2,10.3,28.4,21.3,44.1,28.7
	c33.3,15.8,66.6,32.4,101.6,43.3c57.7,18.1,116.8,32,175.3,47.5c9.6,2.5,20.8,1.7,27.1,14.5c-4.1,1.8-7.2,4.6-9.9,4.2
	c-119.4-18.1-234.8-48.5-340.7-111c3.4,9.7,7.3,18.6,13.8,24.8c15.1,14.6,30.1,30,47.6,41.3c74.3,48.1,154.6,83.3,239.9,106.8
	c103.5,28.6,209,47.6,314.6,66.2c121.3,21.4,243.4,37.2,366.3,43.2c162.5,8,325.1,14.4,487.9,6.1c113.3-5.8,226.5-10.3,339.3-24.5
	c133.5-16.8,266.5-35.6,397.9-65c153.3-34.2,301.4-83.1,440.9-156.1c51.8-27.1,99.4-59.9,136-106.6c17.1-21.8,32-45.7,33.4-73.4
	c2.6-48.2,1.6-96.5,1.7-144.8c0-5.5-2.5-11-3.5-14.9c-31,23.4-59.7,48-91.3,68.2c-56.5,36.2-118.6,61.6-181.9,83.1
	c-151,51.3-306.3,85.1-464.3,105.2c-110.6,14.1-221.9,23.9-333.2,32c-162.3,11.9-325,16.5-487.7,15.2
	c-113.4-0.9-226.9-3.9-340.2-8.8c-103.6-4.5-207.1-12.5-310.6-19.5c-12.4-0.8-21.6,0.9-29.9,11.3c-32,40.1-75.1,60.4-125.4,64.2
	c-58,4.3-112.9-20.8-130-80.3c-3.3-11.6-4.4-23.8-6.5-36.1c-5.3-1.3-9.5-2.2-13.6-3.4c-59-17.3-118.4-33.1-176.7-52.6
	c-54.7-18.3-105-45.2-142.8-90.9C504.9,2181.8,502.6,2181.9,498.2,2180.9z M2530.3,1751.4c7.3-44.9,7.5-86.9,4.9-129
	c-2.1-33.3-6.2-66.5-18.7-98.1c-5-12.7-12.4-18.3-25.9-16c-22.5,3.8-45,7.8-67.7,10.7c-91.5,11.8-182.9,24.4-274.6,34.2
	c-76,8.1-152.3,15.7-228.6,18.3c-116.9,4.1-233.9,5.1-350.9,4.8c-65.9-0.1-131.9-4.1-197.6-8.7c-59.6-4.2-119-11.6-178.5-17.5
	c-22.7-2.2-25.7-1.4-34.8,19.1c-6.7,15.1-13.3,31.2-15.3,47.3c-3.3,26.9-3.9,54.3-3.8,81.5c0.1,29.7,2.3,59.4,3.6,91.3
	C1608.4,1852.2,2069.7,1832.7,2530.3,1751.4z M1119.3,1999.7c-1.2,4.6-2.6,7.2-2.3,9.5c7.4,60.2,14.9,120.3,22.5,180.5
	c1.3,10.5,8.6,14,18.4,15.3c67,9.2,134,18.8,201,28.3c148.2,21,297.4,30.9,446.8,35c274.8,7.5,548.6-6.1,820.7-46.6
	c16.2-2.4,32.2-5.7,50-8.9c-2.1-5.5-2.7-8.9-4.5-11.6c-20.9-31.9-29.1-67.4-30.8-105c-0.8-17.6-2.4-35.1-4-52.6
	c-0.8-8.3-2.6-16.6-4.2-26.4c-36.8,4-70.5,7.6-103.4,11.2c-20.2,66.7-31.5,79.9-68.6,83.4c-47.4,4.4-77.6-16.5-90-62.9
	c-109.3,5.2-216.8,10.4-323.6,15.5c-15.3,64-33.9,83.3-79.2,84.3c-17.3,0.4-32.9-4.1-47.1-14.2c-24.4-17.4-30.4-43.4-30.2-69.5
	c-131.3-7.8-259.6-13-387.4-23.8C1375.7,2030.4,1248.5,2013.9,1119.3,1999.7z M1931.9,1166.5c6.7-2.4,11.6-3.6,16-5.8
	c75.9-36.7,151.8-73.6,227.7-110.3c27.7-13.4,55.8-25.9,83.5-39.3c9.4-4.6,18.8-9.7,18.8-22.8c0.4-58.1,0.2-116-9.3-173.6
	c-2.3-14.1-8.5-21.1-23.3-23.6c-31.1-5.3-61.8-13-92.8-19c-101.8-19.4-203.7-38.3-305.5-57.6c-24.3-4.6-46.6-1.1-69,9.6
	c-34.9,16.6-70.7,31.3-106,47c-70.6,31.5-141.1,63.3-211.8,94.7c-15,6.7-24.5,15.4-23.8,33.5c2,54.5,2.7,109,4.7,163.5
	c0.7,19.7,2.7,20.4,21,23.8c141.6,26.8,283.1,53.7,424.7,80.4c6.5,1.2,13.1,1.5,21.2,2.4c0-8.3,0.1-14.3,0-20.3
	c-1.2-44.8-2.6-89.7-3.4-134.5c-0.2-8.6-3.9-19.3,10.9-27.4C1934.8,1046.3,1924.5,1106.3,1931.9,1166.5z M1120.9,1971.9
	c6.7,2,12.4,4.6,18.2,5.4c79.1,11.1,158.2,23.4,237.5,32.6c71.6,8.3,143.4,14.7,215.3,19c97.4,5.9,194.9,9,292.3,13.5
	c11.5,0.5,20.2-2,26.1-13c19.2-36,86.8-40,113.8-2.4c10.1,14.1,22.1,17.6,38.3,16.7c95.7-4.8,191.4-9.2,287.1-13.3
	c12.9-0.6,20.3-4.3,25-17.8c10.3-29.6,31.4-49.4,63.5-51.9c32-2.5,58.3,9.4,75.5,38.4c3,5.1,10.6,11.5,15.3,11
	c31.9-3.5,63.6-8.8,99.1-14c-6-11.7-9.3-19.7-14-26.6c-12.9-18.9-26.2-37.4-39.6-55.9c-17.7-24.4-31.6-50.7-39.5-79.9
	c-3-10.8-4.5-22-6.9-34.4c-461.2,79.9-922.8,97.2-1387.4,34.9c-6.8,40.9-13.3,79.7-19.5,118.5
	C1120.1,1958.6,1120.9,1964.7,1120.9,1971.9z M2751.4,1423.3c5.4,0.4,7.2,1,8.8,0.6c105.4-25.2,208.5-57.2,305.5-106.4
	c44-22.3,85.9-48.4,119.3-85.8c43.7-48.9,44.3-110.9-0.8-159c-17.2-18.4-38-34-59-48.2c-38.8-26.3-82.4-43.3-126.4-58.8
	c-112.4-39.6-228.9-62.4-346.4-78.9c-96.6-13.6-194-21.4-291.1-31.1c-17.9-1.8-36.2-0.3-53.9-0.3c-5.3,18.1,4.9,24.8,17.5,28.7
	c12.6,3.9,25.6,6.3,38.4,9.4c55.5,13.3,110.6,28.3,166.5,39.4c56,11.1,113,16.6,169,27.5c40.7,7.9,79.5,22.9,110.8,52.2
	c52.9,49.4,41.2,123.4-24.9,153.3c-15.9,7.2-33.1,12-50.1,15.9c-29.1,6.7-58.9,10.3-87.7,17.9c-32.9,8.7-42.8,34.5-24.4,63
	c9.4,14.5,21.7,28,35.1,38.9C2698.4,1335,2732.9,1372.8,2751.4,1423.3z M2486.2,1488c-4.8-18.3-17.8-25.1-29.1-32.6
	c-44.2-29.5-92.5-50.2-143.3-65.4c-71-21.2-141.6-27.9-215.3-9.8c-78.3,19.2-158.1,20-237.9,3.1c-78.1-16.6-155.2-38.2-235.1-46
	c-50.2-4.9-99.9-6.7-149.5,3.7c-35.4,7.4-66.5,23.3-89,52.4c-42.3,54.8-94.4,96.4-158.9,122.3c-7,2.8-13.4,7.4-20.1,11.1
	c0.4,1.8,0.8,3.5,1.1,5.3C1636.5,1579.9,2061.3,1557.5,2486.2,1488z M888.9,1484.9c9.6-56.2,45.7-87.9,85.1-117.1
	c12-8.9,23.9-18,35.2-27.8c26.8-23.2,22.4-51-11.3-61.8c-19.8-6.4-41.5-6.8-62-11.4c-24.7-5.5-50.9-8.9-73.2-19.7
	c-52.5-25.5-61.7-80.6-24.1-125.4c21.1-25.1,48.8-39.8,79.3-49.8c40.4-13.3,82-18.7,124.3-21.6c30.6-2,61.3-5.4,91.4-11.1
	c35.3-6.7,66.5-22.3,88.8-52.2c12.6-16.9,30.3-27.3,49.8-33c27.7-8.1,56-14.4,84.3-20.4c14.4-3,29.3-3.7,46.4-5.7
	c-0.8-12.7-1.5-23.5-2.2-34.7c-9.3,0-16.3-0.9-23,0.1c-61.6,9.7-123.4,18.6-184.7,29.8c-157.5,28.8-313.5,63.4-463,122.4
	c-67.3,26.6-133.2,56.1-188.5,103.8c-19,16.4-36.1,36.3-49.4,57.5c-25.1,39.8-21.6,72.1,7.5,109.5c20.3,26,45.7,46.2,74.4,62.1
	c62.6,34.7,129.1,59.7,198.3,77.7C809.8,1465.9,847.3,1474.7,888.9,1484.9z M1125.8,2351.8c17,0.9,33.6,1.6,50.1,2.8
	c175.4,12.8,351.1,23.2,527,24.2c135.4,0.8,270.8-1.9,406.2-5.9c85.2-2.5,170.3-9.1,255.3-15.9c111.3-8.9,222.3-20.9,332.3-40.7
	c114.2-20.5,228.1-42,338.1-80.4c73.1-25.5,146-51.2,211.6-93.8c26-16.9,50.1-35.8,68.4-61.1c10.8-15,14.8-30.8,2.9-48.2
	c-4.4,2.3-7.9,3.4-10.4,5.6c-56.5,51.2-124.5,81.5-194.1,109.4c-123.1,49.3-252.1,76.3-381.6,100.6
	c-115.7,21.7-231.7,42.1-349.6,48.6c-125.5,6.9-251,16.7-376.6,18.5c-117.7,1.7-235.5-4.8-353.3-9c-131.9-4.7-262.7-21.5-393.2-40.6
	c-37.2-5.4-74.3-11.4-110.4-16.9C1140.8,2283.2,1133.8,2315.5,1125.8,2351.8z M2814.1,1961.9c4.3,0,7.9,0.6,11.1-0.1
	c119.3-26.6,237.5-56.8,349.4-107.2c40.9-18.4,80.7-39.7,112.5-72.3c43.6-44.7,61.5-71.4,8.6-142.4c-26.5-35.6-65.9-54.7-103.2-76.1
	c-9.3-5.4-16.6-0.1-23.9,5.3c-42,31-88.7,53.5-135.9,75.2c-91.2,42-185.9,74.1-282.5,101.1c-9.7,2.7-18.9,6.9-28.5,10.5
	c3.2,29.2,15,51.7,29.1,72.9c24.4,36.9,44.3,75.8,57.1,118.2C2809.6,1951.9,2812,1956.6,2814.1,1961.9z M2876.9,1560.4
	c-1-2.6-1.9-5.2-2.9-7.9c6.6-3.5,12.9-7.7,19.9-10.3c21.4-8,43-15.3,64.5-22.9c65.6-23.2,129.2-50.8,187.3-89.7
	c29.3-19.6,56.7-41.6,77.3-70.9c8.5-12.1,12.1-24.4,10.1-39.5c-3.1-23.5-4-47.3-6-70.9c-0.7-8.4-1.9-16.8-2.8-25.2
	c-2.4-1.5-4.7-3-7.1-4.5c-1.7,4.1-2.3,9.5-5.3,12.1c-25.6,22.6-50,47-77.9,66.4c-70.6,49.1-150.4,79.5-231.4,106.6
	c-46.5,15.6-93.3,29.9-138.7,44.3c-2.3,43.2-2.1,84.5-7.3,125.1c-5.3,41.3-16,81.9-25,125.9c10.3-1.9,17.9-2.6,25.1-4.7
	c42.1-12.6,84.2-24.7,125.9-38.4c89.7-29.3,174.9-68.8,255.3-118.3c33.9-20.9,64.6-45.7,86.7-79.6c16.2-25,21.6-52.1,17-87
	c-34.7,38-70.5,66.1-110.6,87.8c-40.9,22.1-82.8,42.8-125.6,60.9C2964,1537.3,2922.1,1555.1,2876.9,1560.4z M467.2,1310.2
	c-1.2,7.1-3.2,13.6-3.4,20.2c-0.8,29-0.7,58-1.5,87c-0.7,25.4,9.4,45.8,25.9,64.2c27,29.9,59.3,52.7,95.7,68.8
	c36.9,16.4,75.1,29.6,112.6,44.5c8.9,3.6,21.2,3.4,24.4,20.7c-34.4-3.8-64.8-14.4-94.3-26.8c-29.1-12.2-58.2-25.3-84.9-41.9
	c-27.2-16.9-51.4-38.4-77.8-58.6c0.2,31.6,10.7,55.3,37,82.9c35.7,37.5,79.6,63.4,125.8,85.5c96.6,46.1,198.9,74.2,303.6,94
	c4.8,0.9,9.9,0.1,16.4,0.1c1.6-33.7-5.1-64.6-13.3-94.8c-12.8-47.4-28.1-94.2-41.6-141.4c-3.8-13.2-13.5-14-24-16.1
	c-99.6-19.3-196.5-47.2-286.4-95.3c-41.9-22.4-82.8-46.9-107.8-90.1C472.9,1312,470.6,1311.7,467.2,1310.2z M3325.3,1772.4
	c-7,5.8-10,7.7-12.3,10.3c-35.7,39-80,65-127.4,87.1c-89.5,41.9-183.7,69.3-279.2,93.4c-29.6,7.4-59.3,14.2-91.4,21.9
	c10.4,69.2,2.8,135.6-18.3,203.2c8.3-1.3,12.5-1.7,16.5-2.5c86.9-17.9,173.3-37.9,256.2-69.9c48.2-18.6,95.9-39.1,142-62.4
	c42.8-21.6,78.4-53.2,104.4-94.4c16.8-26.7,17.9-55.1,10.8-88.3c-9.7,7.4-16.7,12.5-23.3,17.9c-67.9,55.6-146.6,89-230.4,111.9
	c-4.7,1.3-10.2-0.4-15.3-0.7c-0.4-1.9-0.8-3.8-1.2-5.6c5.6-3.4,10.9-7.7,16.9-10c19.7-7.5,39.7-14.2,59.5-21.4
	c59.9-21.7,115.4-50.6,163.9-93.1C3326.5,1843.7,3327.4,1811.7,3325.3,1772.4z M725,2035.9c-0.8,2.6-1.7,5.3-2.5,7.9
	c-7.5-0.6-15.4,0.2-22.4-2c-88.2-26.8-168.8-67.8-241.7-133.2c3.8,25.6,14,41.7,26.1,56.7c25.3,31.3,57.1,54.8,92.6,73
	c83.9,42.9,171,78.2,262.4,101.8c27.8,7.2,56.1,12,86.9,18.5c2.4-12.1,4.9-21.1,5.9-30.3c5.5-53.3-7.2-104.9-15.1-157
	c-1.9-12.2-10.2-15.3-19.9-17.6c-17.1-4.1-34.2-7.9-51.3-12c-88.2-21.6-174-50.1-255.7-89.9c-46.7-22.8-91.5-49.4-120.4-95.5
	c-0.9-1.5-4.3-1.4-8.7-2.7c-3.2,33.4-7.3,65.7-8.9,98.1c-0.5,9.4,4.1,20.5,9.5,28.6c18.3,27.5,43.5,48,71,65.9
	c45.3,29.4,95.3,48.9,145,69C693.8,2021.5,709.3,2028.9,725,2035.9z M941.4,1806.1c-6-2.3-10.8-4.6-15.7-5.8
	c-43.5-10.9-87.2-20.6-130.4-32.5c-76.4-21.1-150.2-49.8-220.8-86c-18-9.2-34.9-20.5-52.2-30.9c-7.1-4.3-13.8-7.3-21.7-1.2
	c-26.8,20.5-35.1,60.3-18.7,90.3c14.7,26.9,35.6,47.6,61.3,64c63.6,40.5,133.6,66.5,205.1,88.5c53.6,16.5,107.9,30.3,161.2,45
	C922.4,1915.3,941,1838,941.4,1806.1z M900.1,2205.1c-8.8-3.4-15.7-6.9-23.1-8.7c-110.4-27.5-217.9-62.6-318.1-117.6
	c-12.1-6.7-21.5-5.9-29.4,5.8c-3.9,5.8-8.6,11.2-12.2,17.2c-16.7,28-16.6,45.2,6.2,68.9c18.1,18.8,38.4,36.3,60.5,50
	c44.3,27.5,93.6,44.2,143.5,58.7c30.4,8.8,60.9,17.1,91.4,25.5c11.9,3.3,21.1,2.9,28.4-10.6c13.7-25.4,29.9-49.4,45-74.1
	C894.8,2216,896.8,2211.4,900.1,2205.1z M1519.9,2721.7c-0.4,1.4-0.7,2.8-1.1,4.2c80.7,4.3,161.3,10.4,242,12.4
	c154.8,3.9,309.4-0.5,463.7-14.9c82.2-7.7,164.6-13.7,246.6-23.4c117.8-14,234.5-34.7,350-62.1c107.7-25.6,214.8-53.6,317.3-96.3
	c61.9-25.8,121.3-56,172.7-100.1c16.8-14.5,32.3-30.1,40.2-51.3c4.5-12,7.8-24.5-2.3-38.5c-7.6,7.2-14.4,12.7-19.9,19.2
	c-32.1,38.3-71.8,66.9-114.7,91.7c-75.6,43.8-155.9,77.1-238,106c-173,61-351.8,97.8-533,123.2c-53.9,7.6-108.2,12.6-162.5,17.1
	c-86.7,7.2-173.4,15.9-260.3,18.7c-105.4,3.4-211,1.4-316.5,1.5c-24.6,0-49.2-0.6-73.8-1.6
	C1593.4,2725.8,1556.6,2723.6,1519.9,2721.7z M1980,2029.7c-15.7,0.4-28.7,13.1-28.8,28c0,15.6,13,27.9,28.7,27
	c14.7-0.8,27.4-14.5,27.5-29.6C2007.5,2040.9,1995.1,2029.4,1980,2029.7z M2469.5,2021.2c1.1-14.9-12-29.4-26.8-29.8
	c-14.4-0.3-27,11-28.3,25.5c-1.3,14.7,9.7,28.3,23.6,29.3C2454,2047.3,2468.4,2035.8,2469.5,2021.2z"/>
<path d="M968.4,2920.4c-6.7-4-13.6-7.7-20.1-12c-6.5-4.4-13.7-8.4-18.7-14.2c-14.6-17.1-11.1-36.5,9.7-44.9
	c14.3-5.8,31.4-11,45.8-8.4c21.9,3.9,43.6,12.8,63.4,23.4c16.7,9,17.1,25.9,4.5,40.4c-11,12.8-25.7,18.2-42.1,18.5
	c-10.5,0.1-21-1.1-31.6-1.8C975.7,2921,972.1,2920.7,968.4,2920.4z M937.9,2872.3c12,23.5,35.7,25.4,56.8,28.8
	c16.9,2.7,36.4,5.7,48-13.7C1019.9,2857.1,970.8,2849.5,937.9,2872.3z"/>
<path d="M2709.7,1447.9c2.1,11.6-7.3,12.2-14.4,14.8c-50.7,18.4-125.3,30.3-143.5,21.7c4.5-3.5,7.9-7.5,12.1-9
	C2590.5,1466,2697.6,1446.2,2709.7,1447.9z"/>
<path d="M954.8,1952.4c34,3.7,64.7,7,94.1,17.8c1.9,0.7,2.2,5.7,3.3,8.9C1021.3,1985.3,973.2,1973,954.8,1952.4z"/>
<path d="M2674.7,1997.7c23.3-17.3,64.6-21.9,82.5-10.3C2737.6,2000.5,2697.8,2006.2,2674.7,1997.7z"/>
<path d="M883.2,2324.3c33.6-1.8,53.9,2.7,64.4,13.4C927.3,2348.5,906.7,2344.9,883.2,2324.3z"/>
<path d="M926.3,1498.4c27.2-7.9,48.2,6.8,70.7,9.6C973.4,1518.6,945.5,1514.9,926.3,1498.4z"/>
<path d="M1117,1527.3c-21.4,2.5-43.1,5.9-62.7-6.9C1076.2,1512.5,1096.8,1516.6,1117,1527.3z"/>
<path d="M349.2,2807.4c6,2,12.8,2.9,18,6.2c138.4,88.3,292.3,137,450.3,173.7c96.7,22.5,193.8,43.8,291.7,59.6
	c187.6,30.4,376.3,52.4,566.6,56.5c140.7,3,281.4,5,422.1,4.4c154-0.7,307.4-13.5,460.6-29.1c144.4-14.8,287.9-35.4,430-65.4
	c144.7-30.5,287.3-68.6,423.2-128.1c62.8-27.5,124.9-56.9,178.5-101c4.2-3.5,10.3-4.7,15-6.7c8,9.4,3.3,15.1-2.4,19.5
	c-16,12.3-31.6,25.4-48.7,35.9c-104.8,64.6-218.6,108.5-336.1,143.3c-156.2,46.2-315.3,78.8-476.6,100.5
	c-98.4,13.2-196.8,27.3-295.7,35.3c-113.9,9.1-228.3,13.3-342.5,17.1c-159.2,5.2-318.4,1.6-477.5-5.8
	c-139.7-6.6-278.8-18.8-417.4-39.3c-120.1-17.8-239.9-36.4-357.9-65c-133.4-32.3-264.8-71.6-388.8-131.9
	c-33.1-16.1-64.9-35.1-96.8-53.6c-7.7-4.5-13.6-12.1-20.3-18.2C346.1,2812.6,347.7,2810,349.2,2807.4z"/>
<path d="M2238.3,2469.4c6.3-18.2,17.5-15,26.3-15.8c52.5-4.8,105.2-7.5,157.5-14.3c107.1-13.9,214-29.8,320.9-45
	c4.3-0.6,8.7-2.5,12.9-2.2c2.8,0.2,7.6,3.5,7.5,5.2c-0.2,3.6-2.3,9.2-4.9,10.1c-10.7,3.7-21.9,6.6-33,8.7
	c-125.2,23.7-251.5,39.2-378.5,48.5c-28,2.1-56,4.4-84.1,6.1C2255.6,2471.3,2248.2,2470,2238.3,2469.4z"/>
<path d="M1035.5,2527.2c-23.5,8.1-69.5,1.9-92.8-12.4c8.5-13.2,20-5.3,29.9-4.5c11.2,1,22.6,2.5,33.5,5.2
	C1016,2518,1029,2514.1,1035.5,2527.2z"/>
<path d="M1582.4,2832.5c0.3,39.6-31.9,74.6-69.2,75.3c-40.8,0.8-73.8-31.2-74.6-72.4c-0.8-40.9,31.8-75.2,71.6-75.2
	C1548.3,2760.3,1582.1,2794.1,1582.4,2832.5z M1533.8,2811.8c0-13.4-9.5-23.7-22.5-24.3c-15-0.7-30.3,13-30.2,26.9
	c0.1,13.5,12,24.7,25.7,24.1C1521.7,2837.9,1533.8,2825.9,1533.8,2811.8z"/>
<path d="M1071,2844.7c-42.9,0-72-27.9-72.3-69.6c-0.3-36.9,33.3-69.7,71-69.4c38.6,0.3,71.5,32.7,70.9,69.9
	C1139.9,2816.7,1111.8,2844.6,1071,2844.7z M1106.4,2760.3c0-12.7-12.4-23.8-26.4-23.8c-13.6,0-26.2,12-25.9,24.5
	c0.3,10.4,13.5,22,25.4,22.4C1093.4,2783.9,1106.4,2772.7,1106.4,2760.3z"/>
<path d="M1218.4,2820c2.8,15.4,4.6,27.2,7.2,38.9c6.8,29.5,19.6,40.7,48.2,43.2c30.6,2.6,51.3-8.3,62.3-33.3
	c2.8-6.4,3.6-13.8,7.2-19.7c2.7-4.4,8.4-7,12.8-10.4c2.7,5,8.3,10.6,7.5,15c-2.3,12.7-5,26.2-11.5,37.1c-17,29-56.9,41.9-92.8,32.1
	c-35.9-9.8-57.7-36.9-58-72.1C1201.2,2835.8,1202,2834,1218.4,2820z"/>
<path d="M1567.6,3002c-19.1-5.7-38.7-10.2-57.2-17.6c-8.2-3.3-15.4-11.5-20.6-19.2c-8.3-12.1-6.6-21.7,5.1-29.7
	c32.9-22.6,84.1-27.1,121.5-0.2c16.8,12.1,16.7,33.7,1.1,47.8C1603.6,2995.7,1586.9,3000.1,1567.6,3002z M1502.3,2950.5
	c16.3,26.6,65.4,39.7,94,25.3c6.2-3.1,14.1-10.5,14.2-16c0.1-6-6.8-14-12.7-17.8C1574.6,2926.8,1528.4,2931.1,1502.3,2950.5z"/>
<path d="M2134.7,2092.3c5.4,11.3,10.3,21.3,14.9,31.4c13.8,30.6,31.4,40,67.7,36c30.7-3.4,49.4-20.6,54.9-51.3
	c1.5-8.5,1.7-17.3,2.5-26.7c14-5.1,20.3,1.2,22.4,13.5c5.2,31-19.1,72.3-48.9,82.6c-24.7,8.5-49.8,10-75,1.6
	c-29.8-9.8-45-32.3-52.4-61.1C2118.4,2109.1,2117.9,2098.9,2134.7,2092.3z"/>
<path d="M1892.9,2244.8c-8.1-1.7-23.7-4.2-38.8-8.6c-13-3.8-19.9-14.5-22-27.3c-2.1-13,6.2-21.2,16.1-27.9
	c32.1-22.2,90.7-23.1,123.1-2c21.6,14.1,21.7,33.3-0.1,48.1C1949.9,2241.6,1925.4,2243.7,1892.9,2244.8z M1907.4,2229.5
	c15.7-3.2,31.2-5.3,45.9-9.9c5.4-1.7,13.1-10.1,12.4-13.9c-1.2-6.3-7.6-14.6-13.5-16.4c-30.8-9.3-61.9-8.5-91.7,4.5
	c-4.6,2-10.3,8.8-10,13c0.3,4.6,6.3,11.1,11.1,12.6C1876.3,2223.7,1891.7,2226.2,1907.4,2229.5z"/>
<path d="M2508.8,2196.9c-9-1.6-23-2.9-36.2-6.8c-13.3-3.9-23.3-13.4-24.3-28c-0.9-12.6,7.9-21,18.2-26.8
	c25.6-14.5,53-24.3,82.6-19.9c14,2.1,28.5,8.7,40,17.1c16,11.8,16.4,27.9,0,39.2c-15.3,10.6-34.1,16.5-51.8,23
	C2530.2,2197.4,2521.7,2196.1,2508.8,2196.9z M2582.8,2152.2c-1.9-3.7-2.6-6.6-4.4-8.2c-21.6-19.1-86.3-15.4-105.3,5.9
	c-8.4,9.4-5.7,18.5,7.2,24.5C2510.3,2188.4,2557.4,2178.6,2582.8,2152.2z"/>
<path d="M1883.8,961.2c-20.5-2.3-41.1-3.6-61.4-7c-102-17.4-203.8-35.3-305.7-53.3c-8.8-1.6-20.2-1.1-20.9-17.5
	c13.7-6.9,28.5-3,42.4-0.9c32.9,4.9,65.7,10.8,98.5,16.8c72.4,13.3,144.8,26.7,217.1,40.7C1865,942.1,1878.7,941.1,1883.8,961.2z"/>
<path d="M1962.5,933c6.6-4.7,12.8-10.4,19.9-13.9c72.5-35.7,145.2-71.2,217.9-106.5c10-4.8,20.7-8.1,36.8-14.3
	c-9.7,19.8-22.2,27.9-34.6,34.1c-69.3,34.4-138.9,68-208.7,101.2c-8.6,4.1-18.9,4.3-28.5,6.2C1964.4,937.5,1963.4,935.3,1962.5,933z
	"/>
<path d="M2185.9,998.6c5.9-2.9,10.9-6.2,16.5-8.1c25.1-8.4,36.4-25.9,35.2-51.9c-0.9-20.1-2.4-40.2-3.2-60.3
	c-0.2-5.6,0.6-11.2,1-17.2c12.7,0.2,14.7,8.8,16,15.9c5.3,29.5,7.2,59.3-0.4,88.6c-6.3,24.1-23.6,38.2-47.4,44.5
	C2196.3,1012,2189.7,1011.2,2185.9,998.6z"/>
<path d="M773.9,2054.4c10.3-0.7,16.1-2.4,21.3-1.3c32.8,7,46.1,12.3,55.5,21C824.4,2081.3,794.7,2075,773.9,2054.4z"/>
</svg>
