<?xml version="1.0" encoding="utf-8"?>
<!-- Generator: Adobe Illustrator 24.3.0, SVG Export Plug-In . SVG Version: 6.00 Build 0)  -->
<svg version="1.1" id="Layer_1" xmlns="http://www.w3.org/2000/svg" xmlns:xlink="http://www.w3.org/1999/xlink" x="0px" y="0px"
	 viewBox="0 0 4000 4000" style="enable-background:new 0 0 4000 4000;" xml:space="preserve">
<path d="M183.6,2032.1c-1.8-320.6,59.9-577.9,188.9-817.8c123.1-228.8,289.9-419.9,501.9-571.7c104.5-74.8,214.3-139.8,331.5-191.7
	c111.4-49.4,226.6-88.1,345.4-116.4c165.3-39.4,332.9-54.7,502.5-48.4c139.4,5.2,277.6,22.9,412.6,58
	c297.5,77.3,562.3,216.2,785.4,429.8c216.6,207.4,364.3,455.8,439,746.8c26.3,102.3,42.2,206.2,49.7,311.7
	c20,282-25.9,553.1-136.5,812.5c-99.1,232.3-246.3,430.1-437.6,596c-202.6,175.8-434.4,294-692.7,361.9
	c-92.1,24.2-185.9,40.1-280.9,48c-60.1,5-120.4,10.3-180.6,11.5c-151,3-300.3-14.4-447.9-45.6c-215.1-45.4-417.2-123.5-603.5-241.5
	c-163.1-103.3-307.3-227.4-427.7-378.8c-156.8-197.2-263.5-418.1-315.4-664.8C193.4,2217,183.7,2100.9,183.6,2032.1z M1828.4,3391.6
	c184.5,3.8,348.1-13.7,508.9-52.4c223.7-53.9,432.4-143.5,624.3-271.3c174-115.9,323.4-257.7,440.9-430.6
	c149.8-220.4,242.9-462.5,267-729.6c12.2-134.9,4.7-268.1-31.4-398.7c-69.9-252.6-196.6-472.5-380.6-659.9
	c-222.3-226.4-487.6-376.1-794.3-454.2c-198.8-50.6-400.4-70.5-605.4-56.1c-149.7,10.6-296.1,37.6-438.8,83.8
	c-193.2,62.6-372.5,152.4-535.2,274.8c-123.4,92.9-234,198.8-327.7,321.6c-156.6,205.4-259.6,434.6-302.7,690.1
	c-22.3,132-29.1,264.5-14.3,397.6c20,179.4,77.6,346.8,167.1,503.3c94.5,165,222.2,300.4,371.1,417
	c171.3,134.2,362.2,230,570.4,291.8C1510.7,3367.4,1678,3386.9,1828.4,3391.6z M353.3,2575.4c-1.3,4.9-2.7,7-2.2,8.6
	c4.4,12.5,8.5,25.2,13.8,37.4c37.8,86.4,82.5,168.8,135.2,247.3c124.2,184.8,284.2,332.1,469.9,452.5c153,99.3,318,172.2,494,220.2
	c99.8,27.2,200.9,48.4,303.8,59.1c157.3,16.4,314.5,13.5,471.8-4.4c178.7-20.3,348.6-70.8,510.9-146.2
	c163.5-75.9,312-175,442.4-300.3c205.1-197,350.9-430,430.8-703.6c29.6-101.4,48.5-205,60.5-309.7c5.7-50.2,5.4-101.1,7.8-151.7
	c-2.2-0.3-4.4-0.5-6.6-0.8c-2.6,10.6-5.6,21-7.7,31.7c-5.6,29.1-9.6,58.6-16.2,87.5c-77.8,340.3-250,624.2-512.5,853.5
	c-165.2,144.3-352.5,252-557.1,329.7c-190.4,72.3-386.7,118.3-591.1,127.8c-157,7.2-313.3,2.8-468-25
	c-161.8-29.1-317.3-78.6-465.1-151.7c-275.7-136.4-503.6-326.6-667.9-589.1C384.9,2624.4,369.5,2600.8,353.3,2575.4z"/>
<path d="M2684.6,2751c-32.7,0-65.7-2.9-98.1,0.6c-71.8,7.8-115,48.2-131.1,118.3c-4.8,20.9-8.5,42.1-12.2,63.2
	c-32.7,186.4-201.4,267.2-365.3,206.8c-45-16.6-88-38.5-131.8-58.2c-52.7-23.7-107-40.3-165.7-39.1c-48.9,1-94.7,14.1-139.5,32.6
	c-37.8,15.6-75.2,32.5-114,44.9c-151.1,48.4-287.5-25.7-360.8-125.1c-61.8-83.8-77-178.5-64.5-279.7c7-56.8,12.7-113.3-1.2-170.7
	c-22-91-95.6-128.4-163.4-134.3c-30.3-2.6-61.2,1.1-91.8,2.2c-43.9,1.6-88,6.6-131.7,4.6c-105-4.7-186.5-79.1-205.5-182.6
	c-13.4-73.2,1.4-141.1,40.7-202.6c29.7-46.4,64.5-89.5,97.6-133.7c77.7-103.8,105.9-219.5,85.2-347.3c-3.8-23.2-4.8-46.9-9.5-69.9
	c-27.1-135,37.7-235.3,149.1-298.4c108.2-61.3,226.9-92,351.3-99.2c69.4-4,139-6.7,208.2-13.2c89.2-8.3,171.6-37.5,244-91.6
	c45.9-34.3,80.8-78,103.9-130.6c9.9-22.4,18.5-45.4,27.8-68.2c44.8-109.7,130.3-162.4,244.9-169.8c114.1-7.4,207.1,38.6,281.5,123.4
	c27,30.7,51.3,63.7,77.1,95.5c65.3,80.6,148.4,123.4,253.7,118.6c24.5-1.1,49.1-1.8,73.6-3.4c66.5-4.3,132.5-4.8,198.7,7.7
	c220.1,41.6,296.2,243.9,240.9,406.9c-16.9,49.9-41,95.7-71.2,138.7c-14.1,20.1-28.7,39.9-41.9,60.5
	c-60.9,95.5-60.7,192.4-5.8,290.2c24.5,43.7,51.3,86.1,74,130.7c33.9,66.8,50.2,138.6,46.5,213.6c-4,82.4-23.3,161.9-56.5,237.5
	c-32.6,74.3-72.3,144.2-129.3,203.4c-69.3,72-152.2,112.3-252.7,114.4c-18.4,0.4-36.8,0.1-55.3,0.1
	C2684.6,2749.2,2684.6,2750.1,2684.6,2751z M2420.1,2902.4c2.1-10,3.1-13.8,3.6-17.7c12.4-98.5,63.6-152.3,161.3-162.7
	c50.7-5.4,102.1-3.7,153.2-4.6c101.7-1.8,182.9-45.4,248.2-121.3c79.8-92.9,129.3-200,153.3-320c23.5-117.9,5.2-227.6-56.9-330.3
	c-19.6-32.4-39.4-64.7-57.5-97.9c-51.3-93.6-51.8-187.7,1-280.7c19.2-33.7,40.9-66.1,62.7-98.2c47.5-70.2,79.7-144.7,74.5-232
	c-6.1-104.1-54.2-180.4-147.1-227.6c-62.6-31.8-130.4-40.9-199.6-39.3c-36.8,0.9-73.5,4.2-110.3,6.9c-44.1,3.2-87.7,2.1-131.2-7.1
	c-80-17.1-141-62.8-191.6-124.6c-26.6-32.5-51.3-66.5-79.4-97.6c-73.2-81.3-164.2-121.2-274.2-106.2
	c-79,10.8-143.3,47.9-181.7,120.7c-14.3,27-25.8,55.6-36.8,84.2c-24.6,64-64.8,116.1-119.7,156.1c-80.4,58.7-171.7,90.2-270.2,99.2
	c-66.2,6.1-132.8,7.3-199.1,12c-94.4,6.7-186.4,25.2-273.4,63.9c-58.5,26-112.2,58.9-154.5,108.3c-28.3,33.1-46.6,70.7-46.1,114.2
	c0.5,40.7,4.7,81.5,9.7,122c6.6,54,12.1,107.9,5.6,162.2c-10.7,88.6-47.8,166.5-99.1,238.2c-23.2,32.4-49.3,62.8-72.3,95.3
	c-34.2,48.3-59,100.7-60.9,161.3c-3.2,102.1,63.9,201.9,180.9,208.5c18.3,1,36.8,0.9,55.1,0c51.1-2.6,102.2-9.4,153.1-8.1
	c92.6,2.4,163.4,42.3,198.6,132.3c17,43.4,23.4,88.5,18.9,135.4c-4.6,47.8-8.7,95.9-9,143.9c-0.6,105.3,42.3,190.6,127,253.1
	c83.8,61.9,175.5,80.2,275.2,42.3c28.7-10.9,57.4-21.8,85.3-34.5c121-55.1,239.8-49.6,357.6,10.1c34.6,17.6,69.8,34.3,105.8,48.7
	c58.8,23.5,119.5,28.6,180,7.1c80.6-28.5,128.6-87.6,152.2-168.1c2.6-8.7,3.8-17.9,6.7-31.6c-53.7,46.9-135.4,55.3-187.8,23.3
	c-32-19.5-31.9-54.1,0.6-73c7.8-4.5,16.7-8.1,25.6-9.9C2316.7,2846.6,2373.8,2844.8,2420.1,2902.4z M2389.1,2912.9
	c-5.6-22.3-20.3-30.5-37.9-34.4c-32.5-7.3-64.8-6.6-96.6,4.3c-5.7,2-11.6,4.4-16.2,8.1c-12.4,9.7-12.9,22.1,0.6,29.5
	c13.1,7.1,28.1,12.5,42.8,14.7C2320,2940.9,2356,2934,2389.1,2912.9z"/>
<path d="M891,2723.7c28.9,0.8,53.9,27.4,53.1,56.6c-0.7,27.3-26.9,51.7-54.8,51.2c-30.9-0.6-55.9-27.4-54.3-58.3
	C836.4,2745.5,861.9,2722.9,891,2723.7z M891.9,2746.7c-20.6-1.8-34.5,8.5-36.9,27.3c-2.4,19.1,9.3,36.3,26.1,38.4
	c21,2.6,38.2-9.1,40.5-27.5C924,2764.8,911.3,2748.4,891.9,2746.7z"/>
<path d="M3423.9,1667c0.6,31.7-19.4,54-49.2,54.8c-33.5,0.9-58.7-21.7-59.1-52.8c-0.4-30.7,25.7-58.3,55.2-58.4
	C3399.3,1610.6,3423.3,1636,3423.9,1667z M3370,1703.2c20.1-0.4,36.5-17.9,35.9-38.4c-0.6-17.4-16.7-33.1-34-33.1
	c-18.9,0.1-35.5,18.4-35.4,39.2C3336.5,1689.7,3350.8,1703.5,3370,1703.2z"/>
<path d="M1405.8,675.8c1.9,32.1-16.6,55.1-46,57.3c-32.6,2.4-57.5-17.8-59.2-47.9c-1.7-30.4,20.2-55.4,50.8-58
	C1381.7,624.5,1404,644.4,1405.8,675.8z M1351.7,714c20.2,0.2,35.1-13.8,35.9-33.7c0.7-18.8-13-32.4-32.6-32.3
	c-18.6,0.1-33.3,13.9-34.2,32.1C1319.7,699.5,1332.8,713.9,1351.7,714z"/>
<path d="M514.9,1389.3c27.2,0.8,48.6,25.4,47.2,53.9c-1.2,24.3-24.4,45.5-49.3,45.1c-28.3-0.5-49.4-21.2-48.9-47.9
	C464.5,1413.3,489.2,1388.6,514.9,1389.3z M539.7,1439.8c-0.5-16.1-13.9-29.4-29-28.8c-14.3,0.6-26.1,14.8-26.4,31.6
	c-0.2,16,10.9,27,26.4,26.1C527,1467.9,540.2,1454.7,539.7,1439.8z"/>
<path d="M2511.7,586.4c0.2,28.8-18.6,48.1-47.1,48.4c-30.2,0.3-52.7-19.8-52.9-47.2c-0.2-27.5,25-52.9,52.6-53.1
	C2492.9,534.2,2511.5,554.6,2511.7,586.4z M2494,586c0.3-20.2-9.7-31.1-29-31.5c-19.5-0.4-33.2,13.1-32.8,32.3
	c0.3,18.5,10.4,29.2,27.8,29.9C2480.4,617.3,2493.7,605.3,2494,586z"/>
<path d="M2851.5,2969.3c-0.4,25.9-19.5,44.9-44.3,43.9c-24.3-1-40.3-19.3-39.4-45c0.8-22.6,21.9-42,44.7-41.2
	C2835.3,2927.8,2851.8,2945.7,2851.5,2969.3z M2831.8,2969.3c-0.7-13.2-11.3-23.5-23.4-22.7c-12.9,0.8-22.2,11.7-21.2,24.7
	c1,13.8,11,23.4,23.3,22.5C2823.5,2992.9,2832.5,2982.6,2831.8,2969.3z"/>
<path d="M2689.9,696.3c25.1,0,41.6,16.7,42,42.5c0.3,24.8-15.1,42-38,42.5c-26,0.5-47-18.2-47.1-42.1
	C2646.7,716.9,2667.4,696.3,2689.9,696.3z M2687.8,762.7c13.8-0.4,26-12.1,25.7-24.7c-0.3-12.9-10.5-23.5-22.7-23.4
	c-14.3,0.1-26.5,13.5-25.3,28.1C2666.4,754.6,2675.9,763.1,2687.8,762.7z"/>
<path d="M1030.9,1011.5c-0.5,22.2-19.2,39-42.4,38.3c-26.6-0.8-42.8-16.7-42.3-41.6c0.4-24.6,18.6-43.2,42-43
	C1011.4,965.2,1031.5,987,1030.9,1011.5z M966.9,1008.3c-0.2,14.9,5.8,23.2,17.5,24.1c14.3,1,27-9.1,28-22.3
	c1.1-14.5-9.4-25.8-23.7-25.4C974.5,985,967.2,993,966.9,1008.3z"/>
<path d="M740.1,2576c-20.8,0-34.8-14-34.4-34.3c0.3-20,14.9-34,35.6-34.1c20.1-0.1,34.6,12.9,34.6,31
	C776,2559.9,760.6,2576,740.1,2576z M723.6,2537.1c12.2,19.8,15.8,22.2,24.4,17.4c8.3-4.6,11.4-16.7,4.8-23.3
	C741.9,2520.3,733.1,2527.4,723.6,2537.1z"/>
<path d="M3335.7,1885.3c0.2,17.8-10.5,28.1-28.9,27.8c-16.6-0.3-27.8-12.2-27.9-29.9c-0.1-14.9,11.7-26.3,27.5-26.4
	C3323.3,1856.6,3335.5,1868.5,3335.7,1885.3z M3306.3,1897.3c3.1-1.1,6.1-2.1,9.2-3.2c-2.3-5-4.5-10-6.8-15.1
	c-2.5,1.2-7.3,2.9-7.2,3.6C3302.5,1887.7,3304.6,1892.5,3306.3,1897.3z"/>
<path d="M2640.9,2916c-0.1,15.7-10.2,26.8-23.3,25.7c-11.5-0.9-21.4-12.6-21.4-25.4c0-16.2,13.7-32.3,26.8-31.5
	C2633.5,2885.4,2641,2898.6,2640.9,2916z M2623,2919.5c3.4-1.9,5.8-3.3,8.3-4.6c-2.2-2.5-4.1-5.6-6.9-7.2c-0.8-0.5-5.2,2.8-5.8,4.9
	C2618.2,2914.3,2621.2,2916.8,2623,2919.5z"/>
<path d="M1189.1,866.2c-0.3,13.8-10.4,24.8-22.1,24c-11.3-0.7-23.2-11.2-23.2-20.4c0-12.9,13-26,25.1-25.4
	C1181.3,845,1189.4,853.7,1189.1,866.2z"/>
<path d="M408.2,1666c-9.1-9.1-18.3-14.5-21.1-22.2c-3.3-9.3,10.7-20.7,21.4-19.8c10.3,0.9,25.6,13.9,22.1,20.7
	C426.8,1652.3,417.9,1657.3,408.2,1666z"/>
<path d="M608.6,1298.7c-8.7,9.3-13.9,14.8-22,23.4c-2.9-9.3-7.6-16.1-6-20.9C585.8,1285.9,595.2,1294.3,608.6,1298.7z"/>
<path d="M1962.7,2276.1c-138.6-1-241.7-25.3-333.3-88.6c-119.2-82.4-182.2-196.1-188.7-340.8c-9.7-218.1,129.5-392.9,335.2-455.3
	c142.4-43.2,282.9-34.7,418.3,30.2c223.4,107,304.9,395.1,188.8,610.4c-56.6,104.9-145.4,172.5-256.5,211.7
	C2064.4,2265.6,2000.1,2276.8,1962.7,2276.1z M1935.3,2228.3c110.6-1.7,218.7-32.6,312.3-106.6c49-38.8,87.1-86.1,109.7-144.9
	c11.2-29,16.9-58.9,10.8-90.1c-22.4-114.3-85.1-198.7-191-247c-160.6-73.4-319.9-64.2-474.7,18.5c-75,40.1-127.6,102-156.2,182.1
	c-33.1,92.6-26,179.6,47.7,252.2c22.4,22.1,46.6,43.3,72.7,60.6C1745.6,2205.4,1834.2,2226.7,1935.3,2228.3z M1471.9,1889.8
	c1.6,0,3.2,0.1,4.8,0.1c3-9.6,6.2-19.1,9-28.8c36.5-122.7,113.2-211.9,227.9-266.8c106.3-50.9,219.1-64.4,335.2-45.2
	c148.4,24.5,266.2,95,338.7,231.3c2.8,5.3,7.2,9.8,13.4,18.2c0.9-9.3,1.8-13.3,1.6-17.2c-8.1-136-65.8-244.8-184.1-314.6
	c-157-92.6-322.9-100.5-488.6-27.5c-174,76.7-264.3,212.8-262.6,405.7C1467.4,1860,1470.3,1874.9,1471.9,1889.8z"/>
<path d="M2340,1118.4c5.3,11.6,9,17.6,11,24.1c23.2,74.3,77,107.9,151.4,112.6c44.9,2.8,90.1,2,134.9,5.3c27.3,2,54.9,6.6,81.4,13.9
	c92.9,25.6,137.5,112.7,100.6,201.9c-14.6,35.4-38.5,67.1-59.4,99.6c-15.4,24.1-34.7,45.8-49.1,70.4c-48,82.1-47.4,163.7,9.4,241.5
	c20.4,27.9,44.5,53.3,68.1,78.8c22.3,24,46.9,45.8,69.2,69.7c45.5,48.8,78,105,91.4,170.9c12.1,59.4,4.5,115.8-26.7,168.7
	c-21.6,36.7-52.6,62.2-91.2,78.9c-75.5,32.8-150.4,24.1-223.2-7.1c-48.8-20.9-94.6-48.8-143.6-69.2c-40.3-16.8-82.5-30.6-125.2-39.5
	c-55.8-11.5-110.2-1.1-159.4,28.7c-58.5,35.4-86.1,91.7-97.7,156.2c-5.2,28.9-4,59-5.7,88.5c-0.7,11.9-1.2,23.8-1.8,35.7
	c-2.2,0.9-4.4,1.8-6.5,2.7c-3.8-4.3-10.4-8.3-10.9-13c-9.9-93.9,3.4-182.4,68.5-255.7c42.5-47.8,99.6-66.5,161.9-69.9
	c69.4-3.8,133.1,18.2,194.6,47.2c35.1,16.6,69.3,35.1,104.1,52.3c35.9,17.8,73.5,30.4,113.2,37.1c31,5.2,61.3,2.7,91.2-4.9
	c112.3-28.4,155.6-131.2,134.7-234c-12.2-59.8-41.8-110.7-83.3-154.7c-33-35-67.4-68.6-101.1-102.9c-31.9-32.5-57.1-69.4-73.4-112.2
	c-20.1-53-20.4-105.7,0.9-158.6c15.8-39.3,38.1-74.5,63.9-107.8c14.4-18.6,29-37.2,41.2-57.2c10.6-17.3,19.9-35.9,26.5-55
	c24.2-70.4-4.8-131-74.1-159c-44.5-18-91.2-21-138.4-22.7c-40.8-1.5-82-1.2-122.4-6.7c-64.4-8.8-108-45.5-128.1-108.4
	C2331.2,1146.5,2331.3,1143.9,2340,1118.4z"/>
<path d="M1842.7,990.1c-3.7,6.7-5.1,11.4-8.1,14.6c-24.2,24.7-38.5,55-50.9,86.7c-7.8,20-16.9,39.4-25.4,59.2
	c-33.1,77.4-95,113.3-176,116.5c-36.3,1.4-73.2-4.9-109.5-9.7c-32.4-4.4-64.2-12.7-96.5-17.4c-47.3-6.9-91.5,2.3-131.5,29.5
	c-28.9,19.7-44.6,47.1-48.4,81.6c-3.3,29,1,57,9.7,84.7c14.7,46.8,31.2,93.1,42.9,140.7c24.1,97.5-8,166.5-96.5,215.1
	c-44.1,24.2-86.5,50.7-119.9,89.4c-31,35.9-51.7,76-50.6,124.9c0.9,38,15.3,68.9,45.7,92.8c36.1,28.5,78.9,42.5,120.8,58.6
	c21,8.1,42.2,15.4,63.5,22.7c54.2,18.7,87.9,56.8,108.2,109.4c17.8,46,20.1,93.7,19.7,141.9c-0.2,32.7-1.7,65.5-1.7,98.2
	c0.1,59.5,8.5,116.4,56.4,158.9c-7.5,13.1-17.8,9-23.9,3.3c-10.2-9.5-20-20.7-26.4-33c-20.1-38.7-30-80.5-30.4-124.1
	c-0.3-39.9,3.1-79.8,1.4-119.6c-1.4-34.5-4.8-69.4-12.3-103c-11.2-50.2-43.4-85-91.1-104.4c-36.9-15-75.1-26.9-111.4-43.2
	c-31.4-14.2-63.5-29.3-90.8-49.9c-47.9-36.2-61.7-87.5-48.5-145.3c14.6-63.8,52.6-112.6,103.9-151c23.6-17.7,49.7-32.3,75.6-46.7
	c76.6-42.5,104.5-100.6,86.3-186.5c-5.9-27.9-15.6-55-23.5-82.5c-9.6-33.4-21.8-66.2-28.4-100.2c-16.3-84.8,25.5-151.9,107.4-178.4
	c44.4-14.4,88.8-11.4,133.4-3c33.1,6.2,66,14.1,99.3,19.3c35.5,5.5,71.1,6.3,106.6-2.4c48.6-11.9,85.1-39.5,108.6-83.1
	c12.1-22.4,20.1-47,31.6-69.7c12.9-25.4,26.9-50.3,41.9-74.4C1811.6,998.4,1823.7,990.6,1842.7,990.1z"/>
<path d="M1591.9,2623.7c57,0.3,104.2,47.1,103.4,102.7c-0.7,55.8-48.5,102-105,101.6c-56.6-0.3-105.1-47.6-104.9-102.1
	C1485.7,2666.8,1531,2623.3,1591.9,2623.7z M1609.6,2664.8c-21.5-0.6-41.7,16.2-42.8,35.6c-0.9,17,16.3,34.2,35.3,35.4
	c22.4,1.3,40.8-14.2,41.9-35.3C1645,2681.9,1628.9,2665.3,1609.6,2664.8z"/>
<path d="M2219.3,2628.5c57.5,0.8,101.7,44.7,101.5,100.9c-0.3,58.4-47.6,104-106.5,102.5c-57.2-1.4-99.2-45.7-98.3-103.5
	C2116.9,2673.7,2164.4,2627.8,2219.3,2628.5z M2213.5,2665.7c-20.8,0.6-37.2,18.8-36.5,40.7c0.6,19.4,16.3,34.7,35.2,34.3
	c22-0.5,40.6-17.3,40.8-37.1C2253.1,2683.1,2234.4,2665.1,2213.5,2665.7z"/>
<path d="M1907.5,2900.2c-65.5-0.1-110.2-38.7-116.4-96.2c-0.8-7-1.5-14.7,0.6-21.1c1.5-4.7,8.4-11.7,11.6-11
	c5.4,1.1,11.2,6.6,14,11.7c2.8,5,2,11.9,2.9,17.9c5.1,32.2,22.1,54.4,54.2,63.3c33.5,9.3,65.7,6.2,91.2-18.7
	c9.4-9.1,13.1-24.5,18.2-37.5c3-7.5,2.4-16.4,5.8-23.6c2.6-5.5,8.8-9.2,13.4-13.7c5.2,5.3,10.8,10.3,15.3,16.2
	c1.5,1.9,0.3,5.9,0.2,9c-2.2,51.7-38.3,92.8-89,101.1C1920.5,2899,1911.3,2899.7,1907.5,2900.2z"/>
<path d="M1495.1,2960.3c-27.9-2.8-53.6-7.6-77.6-20.5c-15.2-8.2-26.5-19.5-26.7-37.9c-0.2-18.8,11.8-30,27-37.5
	c51-25.2,102-24.7,152.2,2c16.2,8.6,27.6,21.9,25.9,41.5c-1.6,18.2-14.7,29.8-30.4,34.9C1542.6,2950.4,1518.6,2954.6,1495.1,2960.3z
	 M1408.6,2904.5c11.6,7.7,19,14.5,27.9,18.2c38.6,15.8,77.9,12.8,116.6,0.4c7.3-2.4,17.1-11.1,17.4-17.3c0.4-6.9-7.2-16.6-13.9-21.3
	c-28-19.5-101.8-18.6-129.5,0.8C1421.5,2889.2,1417.4,2895.2,1408.6,2904.5z"/>
</svg>
