<?xml version="1.0" encoding="UTF-8" standalone="no"?>
<!-- Created with Inkscape (http://www.inkscape.org/) -->

<svg
   width="210mm"
   height="297mm"
   viewBox="0 0 210 297"
   version="1.1"
   id="svg1"
   xml:space="preserve"
   inkscape:version="1.4 (86a8ad7, 2024-10-11)"
   sodipodi:docname="ai-blt.svg"
   xmlns:inkscape="http://www.inkscape.org/namespaces/inkscape"
   xmlns:sodipodi="http://sodipodi.sourceforge.net/DTD/sodipodi-0.dtd"
   xmlns="http://www.w3.org/2000/svg"
   xmlns:svg="http://www.w3.org/2000/svg"><sodipodi:namedview
     id="namedview1"
     pagecolor="#505050"
     bordercolor="#eeeeee"
     borderopacity="1"
     inkscape:showpageshadow="0"
     inkscape:pageopacity="0"
     inkscape:pagecheckerboard="0"
     inkscape:deskcolor="#d1d1d1"
     inkscape:document-units="mm"
     inkscape:zoom="0.71891835"
     inkscape:cx="396.42889"
     inkscape:cy="561.25984"
     inkscape:window-width="1920"
     inkscape:window-height="1009"
     inkscape:window-x="1912"
     inkscape:window-y="-8"
     inkscape:window-maximized="1"
     inkscape:current-layer="layer1" /><defs
     id="defs1" /><g
     inkscape:label="Layer 1"
     inkscape:groupmode="layer"
     id="layer1"><path
       style="fill:#000000"
       d="m 70.511459,251.62219 c -30.195312,-0.72398 -48.963221,-1.6122 -56.262114,-2.66268 -12.5835693,-1.81108 -20.3649849,-7.4213 -23.4680347,-16.91993 -0.7998063,-2.44825 -1.0888163,-4.87535 -1.0948203,-9.19427 -0.0029,-2.07367 -0.04183,-3.77031 -0.08656,-3.77031 -0.04472,0 -0.90307,0.41345 -1.907436,0.91878 -4.486544,2.25731 -9.143373,1.81886 -12.381266,-1.16573 -2.27958,-2.10124 -2.650348,-3.7971 -2.18076,-9.97458 0.207318,-2.72727 0.181953,-3.03214 -0.342391,-4.11529 -0.342081,-0.70665 -1.420436,-1.94482 -2.723582,-3.12722 -2.766428,-2.51012 -3.50723,-3.97397 -3.478798,-6.87427 0.03553,-3.62497 1.778857,-6.73581 4.908264,-8.75844 2.4467,-1.58138 4.432365,-2.08699 8.922411,-2.27192 2.540199,-0.10462 4.368585,-0.31957 5.399085,-0.63473 2.065264,-0.63161 5.0085096,-2.62577 3.875469,-2.62577 -0.634204,0 -3.740477,-3.30959 -4.428656,-4.71853 -0.663525,-1.35846 -0.737661,-1.80233 -0.789842,-4.72903 -0.07748,-4.34544 -0.144349,-4.45763 -3.660532,-6.14118 -4.188425,-2.00542 -5.940328,-3.97153 -6.909402,-7.75419 -0.472371,-1.84385 -0.352519,-4.16636 0.313471,-6.07452 0.957928,-2.7446 3.555698,-5.31499 6.119006,-6.05452 l 1.104767,-0.31873 0.102917,-12.86246 c 0.09643,-12.05191 0.13774,-12.98803 0.655513,-14.85499 1.890902,-6.81812 4.714952,-11.49677 10.4079242,-17.242961 L -4.0645386,96.33423 -5.2397,94.535344 c -1.68876,-2.585082 -3.1857153,-5.915866 -3.959636,-8.810346 -0.864465,-3.233115 -0.986498,-8.90542 -0.2497692,-11.609653 2.0994696,-7.706301 7.3148727,-13.47395 16.6448639,-18.407346 12.8461743,-6.792639 29.6579523,-9.994184 50.3511173,-9.588596 6.971365,0.136639 11.554273,0.448927 23.680208,1.613611 8.260544,0.793417 14.236221,1.020701 22.971256,0.873708 8.07555,-0.135895 12.19294,-0.395844 21.74333,-1.372754 20.21447,-2.067741 34.10391,-2.259659 46.43437,-0.64161 18.76117,2.461908 33.47149,9.072052 40.11111,18.024095 2.75151,3.709793 4.11463,7.434791 4.38412,11.98042 0.34537,5.825751 -1.14451,11.223284 -4.83471,17.51524 l -0.49646,0.84649 1.18776,0.996702 c 8.64437,7.253835 13.56717,15.305305 14.53764,23.776985 0.14986,1.30817 0.2728,8.21135 0.274,15.38461 l 0.002,13.01169 1.48905,0.18604 c 3.30843,0.41336 6.77722,2.99591 8.25289,6.14434 0.61315,1.30818 0.7091,1.85303 0.7091,4.02645 0,2.27786 -0.0792,2.68077 -0.84485,4.29703 -1.40758,2.97143 -3.60744,4.82263 -7.19959,6.05851 -1.85928,0.63969 -2.5457,1.29903 -3.10003,2.97777 -0.52979,1.6044 -0.97435,2.36984 -2.0662,3.5575 -1.70038,1.84959 -5.03864,2.85245 -7.36068,2.21124 -0.54571,-0.15069 -0.99219,-0.17404 -0.99219,-0.0519 0,0.32651 2.83142,2.82423 4.39715,3.87892 2.02096,1.36134 4.54637,2.12979 8.06145,2.45302 4.11551,0.37845 6.13004,1.02268 8.475,2.71025 1.45384,1.04626 2.31898,2.0444 3.1703,3.65765 0.51757,0.9808 0.62885,1.58695 0.63147,3.43958 0.003,2.00554 -0.0825,2.40358 -0.78796,3.67748 -0.44017,0.79481 -1.43479,1.96852 -2.24211,2.64583 -0.79805,0.66952 -2.17788,1.93462 -3.06629,2.81132 -2.09732,2.06968 -2.49495,3.18014 -2.75549,7.69525 -0.21842,3.78504 -0.72422,5.39014 -2.27739,7.22703 -1.83878,2.17467 -6.07131,3.94338 -8.81124,3.68208 l -1.0182,-0.0971 -0.17993,3.40831 c -0.39502,7.48255 -1.69007,11.38153 -5.23762,15.76881 -3.361,4.15657 -9.26561,7.04349 -17.01227,8.31773 -6.30108,1.03646 -12.83812,1.40419 -43.25937,2.43351 -13.80035,0.46695 -69.775867,0.71811 -84.005211,0.37694 z m 55.959381,-3.4441 c 30.09585,-0.43992 56.41084,-1.35119 65.61666,-2.27225 10.07893,-1.00843 14.83116,-2.7289 18.9538,-6.86194 3.86509,-3.87484 5.37868,-8.41181 5.3857,-16.14353 l 0.002,-2.39234 -1.56113,-0.71657 -1.56113,-0.71658 -2.07689,1.06515 c -2.58128,1.32383 -5.27535,2.18879 -8.9927,2.88721 -4.16426,0.78239 -8.04402,1.0227 -21.39461,1.32518 -6.54844,0.14837 -14.22797,0.3308 -17.06562,0.4054 -2.83766,0.0746 -20.69704,0.21273 -39.6875,0.30697 -44.11824,0.21891 -99.617817,-0.409 -110.331257,-1.24827 -8.5237725,-0.66774 -14.68689453,-2.45295 -19.2299632,-5.57014 -0.6083026,-0.41738 -1.1738495,-0.75888 -1.2567709,-0.75888 -0.232062,0 -0.1618061,5.36859 0.109638,8.37796 0.3059192,3.39159 0.8615159,5.54717 2.0311721,7.88044 2.4745141,4.93626 6.7572452,8.34273 12.9219658,10.2781 6.0667682,1.90461 14.6751312,2.58301 44.5822922,3.5134 26.181229,0.81447 48.415833,1.00814 73.554173,0.64069 z m 1.5875,-26.81868 c 0,-0.0533 -0.74415,-0.36651 -1.65365,-0.6961 -6.36197,-2.3055 -12.89391,-7.02981 -16.99303,-12.29044 -1.77424,-2.27698 -4.08905,-6.13387 -4.80231,-8.00154 -0.23948,-0.62704 -0.51059,-1.14008 -0.60248,-1.14008 -0.0919,0 -0.45084,0.71443 -0.79767,1.58763 -1.53341,3.86054 -4.850674,8.53365 -8.570708,12.07374 -3.508414,3.33871 -7.129174,5.60771 -13.146824,8.23863 -0.485236,0.21214 5.629681,0.29396 22.952602,0.30709 12.98774,0.01 23.61407,-0.0257 23.61407,-0.0789 z m 51.75483,-0.55654 c 17.54304,-0.24711 23.16585,-0.88729 28.48006,-3.24254 0.83675,-0.37084 1.52136,-0.76264 1.52136,-0.87066 0,-0.34556 -3.72775,-3.72669 -4.99492,-4.53048 -1.84111,-1.16785 -3.45684,-1.53509 -7.96678,-1.81077 -5.21586,-0.31883 -7.71819,-1.07013 -10.84101,-3.2549 l -0.91625,-0.64102 -1.26694,1.80405 c -3.47096,4.94247 -9.16977,9.5176 -14.82157,11.89909 -0.83426,0.35154 -1.51887,0.72617 -1.52135,0.83253 -0.002,0.10636 0.5015,0.14013 1.11996,0.0751 0.61847,-0.0651 5.66181,-0.18224 11.20744,-0.26036 z M 40.216667,220.60758 c -6.401203,-2.74539 -9.983245,-5.11805 -14.347107,-9.50317 l -3.366898,-3.3833 -1.163614,1.51221 c -1.709314,2.22138 -4.655814,4.89746 -6.566996,5.9643 -1.779948,0.99358 -4.702722,1.87755 -7.0991356,2.14707 -1.263361,0.14208 -3.5987475,-0.026 -7.54062513,-0.54261 -1.04474907,-0.13693 -1.04984318,-0.13349 -0.39687501,0.26818 0.36380209,0.22379 1.77938124,0.77127 3.14573144,1.21662 5.7611959,1.8778 12.8627883,2.46584 30.9855193,2.56574 5.194657,0.0286 6.840062,-0.0349 6.35,-0.24504 z m 31.353126,-0.44304 c 15.924613,-3.01623 26.730663,-12.41655 30.293897,-26.35306 l 0.54011,-2.11249 -0.99721,-0.85414 c -0.91571,-0.78434 -1.14973,-0.85496 -2.863364,-0.86408 l -1.86615,-0.01 -0.610582,1.91823 c -1.834548,5.76349 -6.365547,11.63918 -11.778739,15.27439 -6.056084,4.06693 -13.320679,6.09072 -21.863283,6.09072 -11.670688,0 -22.315345,-3.58638 -28.243411,-9.51571 -0.873244,-0.87343 -0.883163,-0.87593 -2.910417,-0.733 -1.987155,0.1401 -4.443557,0.88253 -5.444577,1.64559 -0.483091,0.36825 -0.483945,0.40603 -0.02529,1.11868 0.763318,1.18605 5.127387,5.40826 7.139852,6.90776 2.310198,1.72135 7.330078,4.22534 10.964766,5.46939 2.918595,0.99896 7.730724,2.06252 11.260235,2.48872 3.616381,0.43668 13.040359,0.16606 16.404167,-0.47106 z m 81.832827,0.4833 c 7.31242,-0.79476 14.28568,-3.19091 19.67394,-6.76034 2.48254,-1.64455 6.64681,-5.79725 8.14071,-8.1181 0.97658,-1.51717 1.11297,-1.88712 0.87788,-2.38125 -0.45377,-0.9538 -3.7766,-4.95069 -4.11534,-4.95018 -0.17165,2.6e-4 -0.63274,0.50628 -1.02463,1.12448 -2.5411,4.00855 -6.39656,7.35791 -11.19372,9.72435 -3.65951,1.80524 -5.28746,2.3773 -9.1355,3.2102 -2.39279,0.51792 -3.54673,0.60016 -8.45929,0.60288 -4.80259,0.003 -6.18303,-0.09 -8.86354,-0.59476 -8.39295,-1.58053 -15.16014,-4.94211 -20.26354,-10.06585 -2.64278,-2.6533 -4.1385,-4.65516 -5.54243,-7.41791 -0.61127,-1.2029 -0.94543,-1.59983 -1.2701,-1.50869 -1.29487,0.36347 -2.76426,0.42644 -4.27474,0.18318 -0.93011,-0.14979 -1.73009,-0.23336 -1.77774,-0.18571 -0.20034,0.20034 1.57608,5.08568 2.58347,7.1048 1.70024,3.40783 3.33463,5.6771 6.06672,8.42333 6.2922,6.32477 15.48137,10.32615 26.59502,11.58067 3.02155,0.34108 8.97839,0.35544 11.98283,0.0289 z M -16.271876,217.7363 c 0.582084,-0.15258 2.725209,-1.1091 4.7625,-2.1256 5.3614228,-2.67506 7.4724615,-3.02194 13.3720851,-2.19729 5.3269161,0.74459 8.8149259,0.23014 11.9113789,-1.75685 1.719885,-1.10365 2.929769,-2.31008 5.311496,-5.29634 2.45848,-3.0825 3.722672,-4.2357 5.784123,-5.27632 2.314827,-1.16852 4.126511,-1.55378 8.600205,-1.82885 4.145185,-0.25488 6.517194,-0.79596 8.334255,-1.90115 3.151751,-1.91699 5.082303,-4.07457 6.925349,-7.73976 l 1.044162,-2.07648 -1.140484,0.18771 c -1.519141,0.25004 -3.476621,1.1913 -5.247465,2.52327 -1.923872,1.44708 -4.137116,2.55205 -6.152325,3.07159 -1.33855,0.34509 -2.563191,0.39798 -6.540028,0.28247 -5.571051,-0.16182 -7.408874,0.0487 -9.659001,1.10652 -2.225482,1.04621 -3.253795,1.9509 -5.943664,5.22914 -5.0939391,6.20817 -8.7710095,7.53614 -17.0750864,6.16663 -4.0655589,-0.67048 -6.4864769,-0.67019 -8.6372346,0.001 -1.838204,0.5737 -2.877335,1.21357 -5.676004,3.49512 -2.001139,1.63139 -4.581128,2.98397 -6.2199,3.26084 -1.124398,0.18997 -1.262289,0.53945 -0.748196,1.89629 0.898736,2.37202 4.102069,3.73601 6.993834,2.978 z m 241.605146,-0.72131 c 1.3415,-0.69642 2.56005,-2.12496 2.96473,-3.47568 0.53886,-1.79854 0.55283,-1.78588 -2.14539,-1.9436 -4.3338,-0.25332 -6.61353,-1.39717 -10.9259,-5.48204 -4.63451,-4.39002 -6.55475,-5.05424 -14.46091,-5.0021 -4.01312,0.0265 -5.4417,-0.0597 -6.67237,-0.40241 -3.70404,-1.03149 -6.46505,-3.23636 -9.37745,-7.48859 -3.78198,-5.52183 -6.35526,-6.76256 -15.47324,-7.46055 -4.44421,-0.3402 -5.8042,-0.94647 -9.15495,-4.0812 -1.37463,-1.286 -2.81267,-2.38776 -3.34655,-2.56395 -2.09012,-0.68981 -4.00644,0.53478 -5.11639,3.26952 l -0.60197,1.48315 0.56298,0.91092 c 0.92658,1.49924 3.75197,3.94578 5.58189,4.83343 2.66109,1.29083 4.66129,1.65781 10.46199,1.91948 4.13807,0.18666 5.59196,0.3508 6.74341,0.76129 3.91498,1.39572 5.84765,2.90934 9.32721,7.30485 4.54257,5.73833 6.74982,6.89303 13.9429,7.2941 6.39401,0.35652 8.37315,1.20281 13.13692,5.6174 4.41854,4.09467 7.04974,5.32271 11.07295,5.16801 1.79177,-0.0689 2.65328,-0.23278 3.48014,-0.66203 z M 70.37411,209.40792 c 3.439215,-0.75465 6.133796,-1.7152 9.073444,-3.23443 5.442796,-2.81289 9.54502,-6.91444 12.092078,-12.09009 0.719261,-1.46155 1.378873,-2.96039 1.465804,-3.33076 l 0.158056,-0.6734 -9.833163,-0.30257 -9.833162,-0.30256 -1.388876,0.92216 c -5.235156,3.47595 -11.292168,2.87763 -16.116026,-1.59197 -0.642812,-0.5956 -1.284531,-0.94812 -1.719791,-0.94473 -0.620813,0.005 -0.839037,0.30819 -2.060553,2.86441 -2.844467,5.95252 -7.344987,9.98034 -12.636878,11.30962 l -1.82671,0.45886 0.771146,0.63451 c 1.248867,1.02758 4.586722,2.92537 6.672003,3.79348 2.391219,0.99546 7.151707,2.24257 9.974144,2.61293 1.164166,0.15276 2.473854,0.32828 2.910416,0.39004 1.852454,0.26206 10.384293,-0.0956 12.298068,-0.5155 z m -14.992751,-6.49199 c -1.101135,-0.41005 -1.249944,-1.1734 -0.614186,-3.15061 0.831589,-2.58624 1.414118,-3.44449 2.337932,-3.44449 0.428702,0 0.971063,0.23695 1.25139,0.54671 0.478233,0.52844 0.479271,0.60577 0.03106,2.3151 -0.846247,3.22732 -1.65795,4.23535 -3.006197,3.73329 z m 14.579178,-0.62079 c -0.295006,-0.20663 -0.992367,-1.34739 -1.549692,-2.53503 l -1.013319,-2.15935 0.526674,-0.70611 c 1.087707,-1.45828 2.161716,-0.94748 3.491252,1.66047 1.017383,1.99564 1.151379,3.21597 0.412451,3.75629 -0.629452,0.46027 -1.194042,0.45535 -1.867366,-0.0163 z m 10.478534,-6.79865 c -0.71022,-0.28338 -3.45541,-2.2701 -3.771998,-2.72984 -0.303993,-0.44144 -0.235726,-1.59841 0.115011,-1.94915 0.667922,-0.66792 1.921642,-0.3489 3.667723,0.93329 0.936826,0.68793 1.790793,1.37254 1.897705,1.52135 0.405822,0.56487 0.198427,1.69862 -0.385549,2.10765 -0.670104,0.46936 -0.644047,0.46736 -1.522892,0.1167 z m 74.741529,13.91553 c 6.42142,-1.11404 11.39808,-3.5144 15.54625,-7.49834 1.94776,-1.87065 4.32327,-5.11904 4.05771,-5.54873 -0.44878,-0.72615 -2.9874,-1.21647 -6.50956,-1.2573 -8.76898,-0.10165 -13.0546,-1.54517 -17.46199,-5.88171 -1.82412,-1.79481 -2.32344,-2.15668 -2.64583,-1.91756 -1.02032,0.75679 -3.18397,1.60049 -4.50155,1.75535 -0.99326,0.11674 -2.01609,0.0298 -3.22961,-0.27456 -1.65618,-0.41535 -2.14693,-0.41652 -7.27527,-0.0174 -3.02461,0.23541 -7.50544,0.50144 -9.95741,0.59119 l -4.45811,0.16317 -1.55294,1.33978 -1.55295,1.33979 0.94136,1.72682 c 1.25219,2.29703 3.54803,5.28272 5.22347,6.79301 3.07425,2.77123 7.38376,5.32915 11.42408,6.78081 2.46535,0.88578 7.46262,1.99321 10.35981,2.29581 3.03711,0.31721 8.59301,0.13022 11.59254,-0.39016 z m -14.24897,-6.96046 c -0.5722,-0.63227 -0.53642,-1.37401 0.17319,-3.59044 0.69554,-2.17248 1.52539,-2.98544 2.62193,-2.56853 0.97135,0.3693 1.11444,1.11815 0.60831,3.18347 -0.60143,2.45418 -1.24327,3.45936 -2.20891,3.45936 -0.41615,0 -0.95368,-0.21774 -1.19452,-0.48386 z m 15.37287,-0.10243 c -0.55498,-0.19141 -0.95181,-0.72674 -1.68672,-2.27542 -1.40733,-2.96566 -1.21184,-4.12244 0.66999,-3.96469 0.89349,0.0749 1.01359,0.20268 2.06409,2.19619 1.23188,2.33769 1.36014,3.03069 0.67054,3.62291 -0.73911,0.63474 -0.94904,0.68619 -1.7179,0.42101 z m -27.56581,-5.12115 c -0.86413,-0.86413 -0.51893,-1.72742 1.44584,-3.61582 1.97289,-1.89619 2.93742,-2.24408 3.80803,-1.37347 0.85573,0.85573 0.51425,1.66849 -1.50245,3.57594 -2.01854,1.90918 -2.91707,2.2477 -3.75142,1.41335 z m -150.182552,11.77601 c 0.647907,-0.29391 2.268257,-1.4203 3.600777,-2.50308 3.198485,-2.59904 5.66308,-3.76369 8.8033932,-4.16007 2.1489323,-0.27125 2.840025,-0.23774 6.4768155,0.31404 8.4277357,1.27868 10.9391408,0.3631 15.6888863,-5.71963 2.375019,-3.04156 4.604542,-4.70751 8.017593,-5.99095 1.354426,-0.50931 2.043509,-0.55752 8.225147,-0.57542 7.81316,-0.0226 8.252967,-0.12141 11.693205,-2.62611 3.388231,-2.46684 6.206321,-3.59277 8.992318,-3.59277 0.846713,0 1.539478,-0.10978 1.539478,-0.24397 0,-0.31595 -2.036895,-2.07124 -2.972003,-2.56112 -1.062529,-0.55663 -2.835567,-0.72971 -4.070034,-0.3973 -0.59589,0.16046 -2.406388,1.22931 -4.023328,2.37524 -4.610011,3.2671 -6.324886,3.8992 -9.962748,3.67224 -2.356595,-0.14702 -4.423458,-0.89328 -6.175707,-2.22978 -0.853271,-0.65083 -1.010571,-0.67733 -3.023242,-0.50948 -4.450804,0.37118 -6.798515,1.65365 -11.180231,6.10736 -1.6007291,1.62703 -3.4557118,3.27536 -4.1221837,3.66296 -3.132998,1.82204 -6.536019,2.31708 -12.3018346,1.78955 -6.9048837,-0.63173 -10.8368817,0.65217 -15.8828087,5.18618 l -1.909973,1.7162 0.419057,0.96856 c 0.275281,0.63626 0.426122,1.80773 0.43965,3.41443 0.01215,1.44356 0.129018,2.44411 0.285176,2.44159 0.145521,-0.002 0.794689,-0.24476 1.442597,-0.53867 z m 250.254932,-1.43836 c 0.15188,-1.53042 0.83443,-3.45393 1.78384,-5.02709 l 0.95806,-1.5875 -1.80915,-1.71979 c -2.67201,-2.54003 -3.98636,-3.09023 -11.06569,-4.63226 -3.93575,-0.85729 -6.08656,-2.0811 -10.47767,-5.96183 -1.87201,-1.65441 -3.37269,-2.71823 -4.90702,-3.47852 l -2.21029,-1.09524 -1.8237,0.44018 c -4.36771,1.0542 -7.50148,0.0708 -11.27299,-3.53756 -1.01864,-0.97458 -2.41708,-2.19731 -3.10764,-2.71718 -2.14713,-1.61641 -4.49602,-1.57114 -6.42652,0.12386 -0.91132,0.80016 -3.70855,4.41154 -3.52972,4.55708 0.0546,0.0445 0.8732,0.24035 1.81909,0.43533 4.00687,0.82596 7.53247,3.37806 10.24739,7.41785 2.81918,4.19494 4.89357,5.88331 8.30127,6.75648 1.38517,0.35493 2.41161,0.40074 5.66071,0.25265 4.46148,-0.20335 6.96458,0.0737 9.59911,1.06242 2.29357,0.86078 3.98096,2.05794 7.06965,5.01578 3.59535,3.44303 6.19549,4.6466 9.78958,4.53146 1.26501,-0.0405 1.32636,-0.0771 1.40169,-0.83612 z m -252.959464,-9.23212 c 3.0925,-2.78527 5.224652,-4.06769 8.670268,-5.21489 1.763114,-0.58701 2.214317,-0.61706 9.3927088,-0.62544 l 7.5406252,-0.009 1.7757109,-0.84121 c 1.4492038,-0.68654 2.3982777,-1.46863 5.1615428,-4.25341 3.8439113,-3.87384 5.5511253,-4.9224 9.6546273,-5.92977 l 2.304382,-0.56571 -0.515901,-0.72452 c -0.283746,-0.39848 -1.170515,-1.32279 -1.970599,-2.05403 -1.75977,-1.60833 -3.580105,-2.30388 -5.44993,-2.08243 -1.656546,0.1962 -2.307201,0.55175 -5.1532449,2.81601 -4.1436823,3.29663 -7.36007678,4.33378 -11.5431034,3.72214 l -2.1231501,-0.31045 -1.2482204,1.05252 c -3.5293272,2.97597 -5.6149642,3.69905 -11.5296142,3.99725 -4.55869,0.22983 -5.732373,0.52296 -7.666999,1.91482 -1.795988,1.29213 -3.052362,3.62202 -3.04134,5.64004 0.007,1.27279 0.878319,2.84569 2.240957,4.04513 0.696213,0.61283 1.346251,1.11424 1.44453,1.11424 0.09828,0 1.023817,-0.76117 2.05675,-1.69149 z m 259.540454,-0.58033 c 4.03366,-3.30528 2.25469,-8.33645 -3.48625,-9.85961 -0.58127,-0.15422 -2.36654,-0.41059 -3.96726,-0.56972 -5.32521,-0.52936 -8.53376,-2.07163 -13.22049,-6.35477 -2.86733,-2.62041 -5.26402,-4.492 -5.75231,-4.492 -0.37349,0 -2.32121,1.92245 -3.99445,3.94262 l -0.96451,1.16448 1.77593,1.0378 c 1.97593,1.15467 2.9407,1.9079 5.97517,4.66507 2.76361,2.51105 4.99127,3.59319 9.06654,4.40429 5.59571,1.11372 8.32218,2.36607 11.30446,5.19249 1.04229,0.98782 1.94234,1.80103 2.00011,1.80714 0.0578,0.006 0.62615,-0.41589 1.26306,-0.93779 z m -122.45593,-8.02133 c 1.56215,-0.80335 3.04998,-2.34895 4.9943,-5.1882 2.83889,-4.1456 4.95461,-5.8346 8.11613,-6.47918 3.30562,-0.67395 6.41078,0.57617 10.24082,4.1229 3.09175,2.86305 4.65471,3.65785 6.87698,3.49711 2.3914,-0.17298 3.44753,-1.0498 5.1928,-4.31117 2.36248,-4.41477 4.22267,-5.82925 7.42785,-5.6481 2.34086,0.13229 3.58092,0.80467 6.39252,3.46608 2.53645,2.40096 4.02585,3.20319 5.96518,3.213 1.77085,0.009 3.35732,-0.89508 4.82976,-2.75221 2.47949,-3.12725 3.4793,-4.13596 4.85422,-4.89741 1.28931,-0.71403 1.66058,-0.79113 3.80977,-0.79113 3.12057,0 4.12628,0.4981 7.62887,3.77837 3.18601,2.98377 4.61798,3.75595 6.97214,3.75967 2.85447,0.005 4.28036,-0.86735 7.00376,-4.28244 3.77658,-4.73577 6.53051,-5.61148 11.90226,-3.78476 5.0691,1.72379 7.11019,1.03829 8.59726,-2.88741 0.95327,-2.51652 2.28894,-3.85211 4.62339,-4.62313 4.14681,-1.36959 6.33082,-3.97848 6.31547,-7.54405 -0.0145,-3.36392 -3.22966,-6.76264 -6.40529,-6.77096 -0.86556,-0.002 -1.00535,0.087 -1.13487,0.72502 -0.72807,3.5863 -1.49729,5.37547 -3.3858,7.87525 -3.45258,4.5701 -9.75129,7.65625 -18.30469,8.96864 -8.25678,1.26688 -30.78804,2.8242 -53.84271,3.72149 -36.48549,1.42003 -73.817191,1.1068 -111.521875,-0.93573 -20.902473,-1.13233 -32.9549651,-2.12752 -38.3316606,-3.16512 -11.3207854,-2.18469 -18.0282734,-7.68079 -19.6374764,-16.09093 -0.204319,-1.06782 -0.371489,-2.52634 -0.371489,-3.24114 0,-1.54734 -0.207795,-1.60554 -1.900227,-0.53224 -2.629324,1.66747 -3.548609,5.88258 -1.98151,9.08561 0.914218,1.8686 1.832668,2.65596 4.637027,3.97519 1.215774,0.57193 2.6929,1.47478 3.282501,2.00635 1.675525,1.51061 2.035019,2.57802 2.041815,6.0626 0.0049,2.49387 0.099,3.17769 0.577575,4.19582 1.9731351,4.19767 8.5094593,6.33963 13.1760638,4.31783 0.7945864,-0.34426 2.4614614,-1.44656 3.7041667,-2.44956 2.736238,-2.20844 4.1727397,-2.96687 6.3924665,-3.37503 2.083693,-0.38315 4.371248,0.11331 6.538201,1.41896 1.399883,0.84347 2.099688,1.5281 5.804374,5.67857 2.532944,2.83773 4.524464,3.89318 7.316431,3.8775 2.410719,-0.0136 3.877446,-0.64923 7.33865,-3.18059 3.160674,-2.31156 4.983766,-3.07247 7.366217,-3.07444 3.44817,-0.003 5.701023,1.40712 9.697659,6.06942 2.88084,3.36066 3.670187,4.04124 5.838268,5.03382 1.18204,0.54116 1.91821,0.68916 3.427926,0.68916 2.828335,0 4.832358,-1.07682 9.183796,-4.93469 3.627061,-3.21567 5.230799,-4.31757 7.894214,-5.42396 1.439607,-0.59802 2.04959,-0.69141 4.57168,-0.69993 5.034615,-0.017 7.654904,1.32777 13.328069,6.84012 4.686738,4.55389 6.465088,5.52589 9.822968,5.36899 1.39292,-0.0651 2.32705,-0.26895 3.13405,-0.68396 z m -16.785226,-3.762 c -0.930141,-1.03603 -3.528543,-2.89913 -4.952505,-3.55104 -3.094986,-1.41693 -5.917726,-1.36444 -9.045273,0.16822 -1.661838,0.81439 -4.756527,3.11235 -4.515723,3.35315 0.157443,0.15744 9.087955,0.48194 15.073918,0.54773 l 3.943611,0.0433 z m 33.230346,-0.52159 c 2.69214,-0.16188 4.94947,-0.34669 5.01629,-0.41068 0.25679,-0.24589 -2.31221,-2.27136 -3.82566,-3.01625 -2.42325,-1.19267 -4.36366,-1.0152 -6.65463,0.60861 -0.94534,0.67006 -2.73808,2.76981 -2.73808,3.207 0,0.0799 0.74414,0.0913 1.65364,0.0254 0.90951,-0.0659 3.85631,-0.25224 6.54844,-0.41412 z m 5.15938,-15.5861 c 23.55264,-0.58489 53.12942,-2.20257 65.48437,-3.5816 10.18877,-1.13726 15.59487,-3.04685 19.4466,-6.8691 1.0265,-1.01865 2.18672,-2.45631 2.57826,-3.19481 1.45313,-2.74079 1.59454,-3.78796 1.72125,-12.74634 0.0643,-4.54752 0.0163,-8.26455 -0.10677,-8.26005 -0.12304,0.005 -0.62017,0.53455 -1.10473,1.17789 -1.94967,2.58853 -6.24331,5.43138 -10.61024,7.02511 -6.24369,2.27866 -17.78134,3.4149 -48.17228,4.74406 -22.4518,0.98194 -72.282616,1.29216 -95.646881,0.59545 -25.659869,-0.76517 -46.15347,-1.74935 -56.605513,-2.7184 -12.5473122,-1.16331 -19.5445076,-3.80521 -24.616313,-9.29427 l -1.787808,-1.93489 0.174022,8.20208 c 0.122012,5.7507 0.291101,8.70794 0.565756,9.89462 1.095459,4.73305 4.725672,8.43029 10.5329079,10.72738 4.17081234,1.64979 10.6104646,2.60975 23.9796561,3.57465 15.65227,1.12969 42.261848,2.3226 61.251042,2.74588 8.616128,0.19206 44.013991,0.13342 52.916671,-0.0877 z m 6.87916,-24.60759 c 24.02688,-0.56262 48.68707,-1.79834 58.34063,-2.92344 9.60481,-1.11942 15.50403,-3.44534 19.39344,-7.64636 8.46474,-9.14293 4.95554,-24.49046 -8.08129,-35.343631 -3.89782,-3.24494 -3.90382,-3.25107 -3.90382,-3.989506 0,-0.38516 0.58003,-1.555241 1.31764,-2.658059 4.95391,-7.406718 6.11339,-15.899613 3.06448,-22.446701 -3.6533,-7.84494 -14.06802,-14.362943 -28.72844,-17.979549 -7.9264,-1.955381 -15.08443,-2.771797 -26.0568,-2.971936 -9.37918,-0.17108 -13.47996,0.02249 -26.72292,1.26139 -17.93985,1.678305 -17.82146,1.671326 -28.575,1.684336 C 91.493884,52.253181 88.150053,52.098672 78.713543,51.189705 67.64387,50.123426 65.126417,49.960726 57.528677,49.820557 42.689555,49.546794 31.167764,50.918415 20.629404,54.213262 3.0281668,59.716335 -6.3600712,68.445813 -6.3480018,79.297698 c 0.00553,4.968742 1.8947182,10.243488 5.2870108,14.761676 0.87406601,1.164166 1.58942383,2.384557 1.58968409,2.711979 5.3659e-4,0.675086 -0.14359442,0.829547 -3.12794489,3.352127 -6.9480399,5.87298 -11.5116452,13.83647 -12.1018162,21.11768 -0.644253,7.94846 3.964514,15.02439 11.8397404,18.17778 5.274515,2.11202 10.7912943,2.96024 24.9540356,3.83677 33.392259,2.06663 81.802412,2.87756 119.327082,1.99886 z m -38.71481,-10.60018 c -2.881158,-0.56698 -5.858358,-2.6712 -6.939596,-4.90474 -0.644877,-1.33214 -0.54138,-2.31094 0.291485,-2.75667 0.834612,-0.44667 1.539764,-0.0572 2.38577,1.31774 2.870461,4.6651 11.116391,4.60754 13.873351,-0.0968 0.81246,-1.38637 1.48342,-1.69396 2.39384,-1.09743 0.779,0.51042 0.87714,1.80399 0.21253,2.80124 -2.58585,3.88004 -7.29432,5.70552 -12.21738,4.7367 z m -32.541648,-4.50166 c -2.149345,-0.41535 -4.534246,-2.5103 -5.075409,-4.45836 -0.390954,-1.40734 -0.319379,-3.87251 0.144788,-4.98672 0.507264,-1.21767 2.055555,-2.85139 3.322135,-3.50545 4.236239,-2.18759 9.519513,0.75136 9.953445,5.53683 0.421469,4.64804 -3.701625,8.31101 -8.344959,7.4137 z m 67.684588,0.0242 c -2.29024,-0.47885 -3.98379,-1.79563 -4.93413,-3.83641 -1.73786,-3.7319 0.29219,-8.35963 4.17264,-9.512 1.72294,-0.51166 2.43428,-0.51558 4.0869,-0.0225 4.63882,1.38396 6.3551,7.11676 3.28944,10.98748 -1.38793,1.75239 -4.41553,2.8433 -6.61485,2.38346 z M 24.13,91.757499 c -0.526268,-0.526269 -0.377294,-1.72728 0.270538,-2.181039 1.355864,-0.949684 3.645295,-0.235146 3.645295,1.137708 0,0.399207 -0.142875,0.868706 -0.3175,1.043331 -0.412231,0.412231 -3.186102,0.412231 -3.598333,0 z m 164.57679,-3.533962 c -0.64783,-0.453759 -0.79681,-1.65477 -0.27054,-2.181039 0.41223,-0.412231 3.18611,-0.412231 3.59834,0 0.17462,0.174625 0.3175,0.644124 0.3175,1.043331 0,0.917699 -0.86313,1.549586 -2.11667,1.549586 -0.51732,0 -1.20521,-0.185345 -1.52863,-0.411878 z M 15.497024,79.223808 c -0.596741,-0.596741 -0.513564,-1.602392 0.172264,-2.082765 0.856374,-0.599827 2.728548,-0.534875 3.380712,0.117289 0.636832,0.636832 0.661635,1.016048 0.117289,1.793212 -0.338705,0.483569 -0.664383,0.588038 -1.833185,0.588038 -0.939319,0 -1.562302,-0.140996 -1.83708,-0.415774 z M 174.9425,70.326248 c -0.17462,-0.174625 -0.3175,-0.64813 -0.3175,-1.052234 0,-1.074617 0.99911,-1.646 2.56878,-1.469075 1.74348,0.196515 2.51101,1.425395 1.51337,2.423035 -0.50442,0.504414 -3.2859,0.577023 -3.76465,0.09827 z M 32.023893,65.634059 c -0.780809,-1.458954 -0.142204,-2.134061 2.018673,-2.134061 1.367998,0 1.705414,0.0894 1.931459,0.511773 0.739632,1.382016 -0.0064,2.13406 -2.116948,2.13406 -1.270837,0 -1.60996,-0.09467 -1.833184,-0.511772 z"
       id="path1" /></g></svg>
