<?xml version="1.0" encoding="UTF-8" standalone="no"?>
<!-- Created with Inkscape (http://www.inkscape.org/) -->

<svg
   width="180.47955mm"
   height="180.47961mm"
   viewBox="0 0 180.47956 180.47962"
   version="1.1"
   id="svg1"
   xml:space="preserve"
   sodipodi:docname="ai-grill.svg"
   inkscape:version="1.4 (86a8ad7, 2024-10-11)"
   inkscape:export-filename="Operation Metro Love - Logo.png"
   inkscape:export-xdpi="96"
   inkscape:export-ydpi="96"
   xmlns:inkscape="http://www.inkscape.org/namespaces/inkscape"
   xmlns:sodipodi="http://sodipodi.sourceforge.net/DTD/sodipodi-0.dtd"
   xmlns="http://www.w3.org/2000/svg"
   xmlns:svg="http://www.w3.org/2000/svg"><sodipodi:namedview
     id="namedview1"
     pagecolor="#ffffff"
     bordercolor="#000000"
     borderopacity="0.25"
     inkscape:showpageshadow="2"
     inkscape:pageopacity="0.0"
     inkscape:pagecheckerboard="true"
     inkscape:deskcolor="#d1d1d1"
     inkscape:document-units="mm"
     inkscape:zoom="0.42394166"
     inkscape:cx="305.46656"
     inkscape:cy="423.40732"
     inkscape:window-width="1920"
     inkscape:window-height="1009"
     inkscape:window-x="1912"
     inkscape:window-y="-8"
     inkscape:window-maximized="1"
     inkscape:current-layer="layer1"
     showgrid="false"><inkscape:page
       x="15.799151"
       y="5.4234562"
       width="152.80316"
       height="168.23367"
       id="page2"
       margin="0"
       bleed="0" /></sodipodi:namedview><defs
     id="defs1" /><g
     inkscape:label="Layer 1"
     inkscape:groupmode="layer"
     id="layer1"
     transform="translate(1156.6082,418.83587)"><path
       style="fill:#000000;stroke-width:0.671085"
       d="m -1113.4648,-245.36011 c -2.5933,-0.49551 -4.6339,-1.63629 -6.5386,-3.65535 -3.3447,-3.54558 -4.079,-8.80317 -1.8588,-13.30961 0.5976,-1.2128 1.0564,-1.82751 2.2663,-3.03624 1.969,-1.96714 3.6212,-2.80568 6.8054,-3.45399 0.2822,-0.0574 0.5638,-0.26998 0.6563,-0.49525 0.089,-0.21703 1.5315,-4.58941 3.2055,-9.7164 1.6739,-5.12698 4.3199,-13.18544 5.8798,-17.90768 1.56,-4.72225 2.8114,-8.60108 2.781,-8.61963 -0.03,-0.0185 -0.9341,-0.41888 -2.0083,-0.88961 -4.0327,-1.76716 -8.2884,-4.32907 -11.5413,-6.94771 -1.8041,-1.45238 -4.9312,-4.608 -6.1511,-6.20734 -2.3999,-3.14624 -4.5364,-7.066 -5.6879,-10.43577 l -0.5901,-1.72654 -4.3356,-2.1e-4 c -2.3845,-1.1e-4 -4.8282,-0.086 -5.4303,-0.19083 -2.2514,-0.39209 -3.9797,-1.82128 -4.5666,-3.77648 -0.3172,-1.05673 -0.3025,-6.51552 0.021,-7.62792 0.3559,-1.22564 1.5482,-2.48731 2.8228,-2.98712 0.8673,-0.34014 1.4408,-0.4081 3.9798,-0.47159 l 2.9664,-0.0742 -0.5129,-0.96111 c -1.8137,-3.39874 -0.7484,-7.16536 2.686,-9.49762 0.9178,-0.62329 1.0383,-0.77392 1.0383,-1.29772 0,-0.98137 0.7037,-4.83808 1.3311,-7.29551 3.0486,-11.94113 11.1768,-22.20934 22.1236,-27.94825 4.9091,-2.57369 10.586,-4.4498 16.7829,-5.54651 l 2.3291,-0.41218 0.097,-2.84424 c 0.1082,-3.16905 0.3211,-4.12984 1.3119,-5.91779 1.2874,-2.32357 3.9423,-4.19879 6.5667,-4.63837 0.8568,-0.14352 4.9387,-0.18815 13.8224,-0.15115 12.5958,0.0525 12.6076,0.0529 13.6721,0.45382 2.2992,0.86615 4.3191,2.6589 5.3168,4.71911 0.7732,1.59647 0.9865,2.81594 0.9865,5.64111 v 2.61002 l 1.2872,0.21003 c 9.8986,1.61498 17.4694,4.79014 24.0353,10.08044 8.9907,7.2439 14.5542,17.16697 16.3968,29.24565 0.2076,1.36092 0.394,2.48583 0.4141,2.49981 0.02,0.014 0.4761,0.30724 1.0132,0.65167 1.28908,0.8267 2.34768,1.95391 2.96238,3.15443 0.4545,0.88778 0.5,1.14607 0.5,2.84093 0,1.73506 -0.04,1.94885 -0.5771,3.0828 -0.3174,0.67015 -0.5771,1.24122 -0.5771,1.26905 0,0.0279 1.2984,0.081 2.8853,0.11819 2.7309,0.0639 2.9454,0.095 4.0063,0.58021 1.3445,0.6148 2.2428,1.58858 2.6118,2.83115 0.3602,1.21305 0.3658,6.4555 0.01,7.64392 -0.3431,1.13997 -1.022,2.12363 -1.9091,2.76625 -1.3724,0.99417 -2.0654,1.10748 -7.4814,1.22311 l -4.93938,0.10546 -0.6709,1.77558 c -3.2569,8.61969 -8.736,15.16052 -16.8201,20.07972 -2.0472,1.24569 -5.225,2.88044 -7.2172,3.71276 -1.1844,0.49481 -1.204,0.5137 -1.0865,1.05108 0.066,0.30097 0.9933,3.34375 2.0611,6.76174 1.0678,3.41799 2.4889,7.97235 3.158,10.1208 0.6692,2.14845 3.0628,9.81204 5.3192,17.03018 2.2563,7.21815 4.275,13.7178 4.4859,14.44367 0.2726,0.93821 0.5078,1.40118 0.8133,1.60135 1.3981,0.91612 2.3032,4.38689 1.5886,6.09237 -1.2019,2.86858 -5.9109,3.90578 -9.283,2.04467 -1.9922,-1.09952 -2.8927,-2.93444 -2.6602,-5.42022 0.069,-0.74018 0.1322,-1.58549 0.14,-1.87846 0.013,-0.47111 -2.3912,-8.45254 -2.6922,-8.93965 -0.08,-0.12946 -0.574,-0.0462 -1.5322,0.2584 -5.6444,1.79387 -15.5243,2.90879 -25.8038,2.91188 -2.3085,6.7e-4 -4.7261,0.0512 -5.3724,0.11227 l -1.1752,0.11101 -0.085,2.06281 c -0.099,2.39912 -0.3831,3.14539 -1.5883,4.17701 -0.9406,0.80508 -1.8257,1.07039 -3.5223,1.05578 -2.0318,-0.0175 -3.5388,-0.80454 -4.3043,-2.24808 -0.3267,-0.61605 -0.4106,-1.12686 -0.4866,-2.96381 l -0.092,-2.21947 -6.8359,-0.11617 c -6.6552,-0.11311 -11.3691,-0.40187 -15.7139,-0.96258 -2.2372,-0.28872 -6.4879,-1.03446 -7.5463,-1.3239 -1.1538,-0.31557 -1.2438,-0.26401 -0.8673,0.49692 0.182,0.36788 0.502,1.34573 0.7112,2.17301 1.2534,4.95622 -1.2015,10.58363 -5.6793,13.0191 -2.3257,1.26491 -5.5556,1.78015 -8.1053,1.29298 z m 4.7891,-2.3334 c 3.2053,-0.83487 5.783,-3.40088 6.7723,-6.74166 0.6784,-2.29103 0.2531,-5.44818 -1.0046,-7.45743 -2.1028,-3.35955 -5.7178,-5.14593 -9.4796,-4.68441 -1.6539,0.20293 -2.7034,0.57256 -3.994,1.40675 -2.102,1.35855 -3.5953,3.35802 -4.1775,5.59328 -0.3485,1.338 -0.3485,3.79643 0,5.13443 0.8255,3.1695 3.5192,5.86127 6.7536,6.74884 1.2073,0.33129 3.8583,0.33139 5.1298,2e-4 z m -4.3997,-4.78727 c -3.18,-1.20806 -4.0919,-5.51753 -1.6782,-7.9312 0.9417,-0.94171 2.1238,-1.42518 3.501,-1.43187 1.9354,-0.009 3.4412,0.87324 4.3625,2.55716 0.6879,1.25744 0.7441,3.19376 0.1263,4.35852 -0.5084,0.95867 -1.3951,1.84409 -2.2767,2.27345 -0.899,0.43775 -3.0917,0.53229 -4.0349,0.17394 z m 3.0718,-2.17662 c 0.34,-0.17075 0.8064,-0.5901 1.0367,-0.9319 0.5711,-0.84742 0.4919,-2.42779 -0.1565,-3.1217 -1.2924,-1.38345 -3.3632,-1.25117 -4.3955,0.28077 -0.3486,0.51738 -0.4069,0.79132 -0.3478,1.63576 0.047,0.67441 0.1863,1.14405 0.4152,1.4015 0.926,1.04147 2.2689,1.32795 3.4479,0.73557 z m 95.8454,5.96453 c 1.2342,-0.59016 1.5822,-1.74085 1.0137,-3.35201 -0.4233,-1.19981 -0.4789,-1.22838 -1.6324,-0.83895 -1.112,0.37544 -3.2176,0.48514 -4.875,0.25399 -0.9242,-0.1289 -1.015,-0.11055 -1.1221,0.22691 -0.1877,0.59153 0.2482,2.27277 0.7413,2.85875 0.8461,1.00559 2.2374,1.45317 4.0497,1.30283 0.586,-0.0486 1.4071,-0.2518 1.8248,-0.45152 z m -48.523,-6.35048 c 0.8058,-0.4527 0.9714,-0.96069 0.9744,-2.98738 v -1.81996 l -2.7078,3e-5 -2.7078,3e-5 0.014,1.84777 c 0.014,1.97802 0.2034,2.53654 1.0079,2.97286 0.9643,0.52305 2.4733,0.51715 3.4175,-0.0134 z m 47.3193,0.0582 c 0.1737,-0.17375 -4.0104,-13.78292 -14.3014,-46.51585 l -1.0089,-3.20908 -2.4211,0.79747 c -1.3316,0.43862 -2.4536,0.82323 -2.4933,0.85471 -0.1047,0.0829 0.3811,1.68913 3.2406,10.71416 6.7603,21.33622 10.2797,32.45359 11.0276,34.83413 0.6965,2.21737 0.878,2.62009 1.2129,2.69233 0.7584,0.16362 4.5461,0.0296 4.7436,-0.16787 z m -26.8327,-7.59787 c 4.0478,-0.36232 7.8123,-0.88323 10.5525,-1.46018 2.382,-0.50155 5.1086,-1.26007 5.3361,-1.48447 0.1123,-0.11075 -0.4556,-2.32291 -0.6712,-2.61495 -0.015,-0.0195 -0.7826,0.15898 -1.7071,0.39671 -3.3569,0.86324 -6.9843,1.43396 -12.512,1.96856 -3.9513,0.38214 -34.9608,0.57114 -41.371,0.25214 -7.0558,-0.35112 -11.3912,-0.8594 -16.2465,-1.90473 -1.6114,-0.34693 -3.0402,-0.6412 -3.1753,-0.65395 -0.1525,-0.0144 -0.4007,0.43154 -0.6542,1.17531 -0.4656,1.36579 -0.5165,1.28117 1.0773,1.7893 3.9557,1.26107 12.2778,2.41849 19.9753,2.7781 1.709,0.0798 10.5381,0.1238 19.6201,0.0977 13.5945,-0.0391 17.0897,-0.0991 19.776,-0.33954 z m -56.8205,-22.17792 c 3.2179,-9.69673 5.878,-17.77515 5.9113,-17.95203 0.051,-0.26943 -0.3521,-0.45645 -2.4827,-1.1526 -1.3988,-0.45704 -2.5689,-0.78822 -2.6002,-0.73594 -0.032,0.0523 -0.7733,2.29233 -1.6487,4.9779 -0.8754,2.68556 -3.4807,10.61552 -5.7894,17.62213 -2.3087,7.00661 -4.1976,12.85029 -4.1976,12.98596 0,0.15831 0.3021,0.29152 0.8434,0.3719 0.9333,0.13859 3.5303,1.08632 3.6915,1.34718 0.056,0.0913 0.1743,0.16592 0.2621,0.16592 0.088,0 2.7924,-7.93369 6.0103,-17.63042 z m 57.0198,16.857 c 3.8759,-0.37461 5.6911,-0.59956 8.2565,-1.02321 1.9202,-0.3171 5.6854,-1.15419 5.9737,-1.32812 0.063,-0.0379 -0.028,-0.5289 -0.2019,-1.09108 l -0.3163,-1.02213 h -36.2693 -36.2692 l -0.3272,0.96234 c -0.1799,0.52929 -0.2903,0.99909 -0.2454,1.04401 0.1458,0.14578 4.0556,1.05458 5.7825,1.34407 3.648,0.61157 9.5521,1.2079 14.0212,1.41617 0.7324,0.0342 9.2819,0.0438 18.9987,0.0216 14.5981,-0.0334 18.1759,-0.0897 20.5967,-0.32364 z m 12.8279,-6.78682 c 0.132,-0.13203 -0.3813,-1.69804 -0.6434,-1.96288 -0.4802,-0.48518 -6.5841,-1.75883 -10.8528,-2.26455 -5.043,-0.59746 -8.3083,-0.6981 -23.1713,-0.71415 -15.5406,-0.0168 -18.76,0.0878 -24.7694,0.80454 -4.1401,0.4938 -9.6278,1.58843 -10.5497,2.10432 -0.2753,0.1541 -0.9174,1.88416 -0.7582,2.04329 0.1275,0.1275 70.6172,0.11697 70.7448,-0.0106 z m -66.6241,-5.23088 c 5.457,-1.15676 11.6867,-1.73032 20.5485,-1.89189 l 5.9038,-0.10764 v -4.82344 -4.82344 l -2.0207,-0.21063 c -6.0432,-0.62994 -10.4058,-1.90817 -12.2429,-3.58717 -1.1647,-1.06453 -1.7365,-2.11053 -2.3161,-4.23702 -0.2497,-0.91633 -0.5011,-1.71319 -0.5587,-1.7708 -0.1843,-0.1843 -4.2533,-1.06323 -4.3591,-0.94158 -0.056,0.0644 -1.7574,5.13374 -3.7812,11.26526 -2.0236,6.13151 -3.7242,11.26515 -3.7791,11.40809 -0.1248,0.32527 -0.3759,0.35223 2.6055,-0.27974 z m 65.1599,0.39859 c 0,-0.0776 -0.4715,-1.61567 -1.0479,-3.41799 -1.5491,-4.84377 -3.9654,-12.49064 -5.0844,-16.0902 -0.5406,-1.73921 -1.04,-3.21623 -1.1096,-3.28229 -0.097,-0.0915 -4.0084,0.67604 -4.2616,0.83621 -0.028,0.0178 -0.2474,0.76585 -0.4874,1.66244 -1.0678,3.99019 -2.5504,5.41277 -6.9337,6.65273 -2.186,0.61838 -4.8953,1.11024 -7.5759,1.37528 l -2.2639,0.22385 v 4.81917 4.81917 l 6.3477,0.11498 c 6.6111,0.11975 10.5992,0.38686 14.9593,1.00192 2.5989,0.3666 6.7231,1.16495 6.8923,1.33415 0.144,0.14389 0.5651,0.10705 0.5651,-0.0494 z m -31.0726,-7.13884 v -4.79406 h -2.6634 -2.6634 v 4.79406 4.79407 h 2.6634 2.6634 z m 1.9531,-7.11054 c 3.3684,-0.23849 6.703,-0.75422 9.2254,-1.42684 3.7947,-1.01189 4.6606,-1.68029 5.4523,-4.209 0.2534,-0.8093 0.4304,-1.50086 0.3933,-1.53679 -0.037,-0.0359 -0.7066,0.047 -1.4878,0.18435 -1.9685,0.34602 -6.2663,0.89042 -9.233,1.16955 -1.5704,0.14776 -4.9052,0.22961 -9.0555,0.22229 -7.063,-0.0125 -10.216,-0.22308 -16.0641,-1.07308 -3.4474,-0.50105 -3.2438,-0.47448 -3.4123,-0.4456 -0.1426,0.0244 0.5678,2.18371 0.9819,2.98437 0.6237,1.20618 1.9159,1.90833 4.999,2.71637 2.8085,0.73604 5.9209,1.19592 10.0332,1.48245 1.905,0.13273 5.7884,0.10037 8.1676,-0.0681 z m 3.3736,-7.99697 c 9.1841,-0.61821 18.5266,-2.57721 25.7459,-5.39857 12.8276,-5.01306 20.862,-12.34195 24.9752,-22.78186 1.0548,-2.6772 1.1069,-2.96996 0.7801,-4.38635 -0.1163,-0.50417 -0.1551,-1.30977 -0.09,-1.86436 0.2062,-1.74911 0.81,-2.74417 2.0517,-3.38104 l 0.6394,-0.328 0.1641,-1.60786 c 0.09,-0.88432 0.1325,-1.60786 0.094,-1.60786 -0.038,0 -0.5199,0.27076 -1.0698,0.60168 -10.7998,6.49931 -37.3289,10.79689 -63.8554,10.34424 -3.5157,-0.06 -8.5095,-0.23296 -11.0974,-0.38439 -20.8746,-1.22144 -40.1085,-5.41649 -48.1719,-10.50665 l -0.7018,-0.44303 0.1066,0.77114 c 0.058,0.42413 0.1583,1.26427 0.2216,1.86699 0.1005,0.95794 0.1677,1.10909 0.5342,1.20108 0.6594,0.16549 1.6041,1.10019 1.9266,1.90627 0.3714,0.92819 0.4249,2.97737 0.1087,4.15917 -0.2389,0.89272 -0.2319,0.93231 0.5152,2.92971 3.4614,9.25432 9.9107,16.09814 19.8925,21.10967 7.7387,3.88533 17.1972,6.39651 28.4569,7.5551 5.7112,0.58768 12.3877,0.67478 18.7735,0.24492 z m -69.7824,-32.38657 c 0.146,-0.176 0.1961,-0.71385 0.1504,-1.6173 -0.1026,-2.03394 -0.084,-2.02529 -4.2606,-2.02529 -4.4199,0 -4.7655,-0.16268 -4.7655,-2.24248 0,-0.86817 0.072,-1.09824 0.477,-1.52091 0.5914,-0.61721 1.3411,-0.66195 1.7324,-0.10337 0.3077,0.4393 0.3751,1.38095 0.099,1.38095 -0.098,0 -0.1775,0.0799 -0.1775,0.17756 0,0.10818 0.8059,0.17756 2.0629,0.17756 h 2.0629 l -0.1144,-1.55364 c -0.063,-0.85449 -0.1607,-1.94014 -0.2174,-2.41254 l -0.1029,-0.85893 -3.5768,0.0599 c -4.0185,0.0673 -4.6015,0.21874 -5.407,1.40425 -0.3974,0.58487 -0.4082,0.70372 -0.3552,3.90524 l 0.055,3.30202 0.5117,0.67027 c 0.2814,0.36865 0.8009,0.79509 1.1542,0.94765 0.7558,0.32632 3.189,0.50504 7.4122,0.54439 2.4978,0.0233 3.0803,-0.0188 3.26,-0.23534 z m 133.61058,-0.11039 c 0.9058,-0.25346 1.9519,-1.30023 2.2029,-2.20452 0.2464,-0.88724 0.2572,-5.28032 0.015,-6.15153 -0.2532,-0.9117 -1.185,-1.67284 -2.3419,-1.91302 -0.543,-0.11271 -2.236,-0.17595 -3.9614,-0.14797 l -3.0132,0.0489 -0.052,1.08804 -0.052,1.08804 2.1911,0.0729 c 2.3901,0.0796 3.195,0.35025 3.6367,1.22308 0.3039,0.60056 0.2792,1.67853 -0.053,2.32134 -0.4651,0.89943 -1.1059,1.04254 -4.6681,1.04254 -3.97068,0 -3.97778,0.003 -4.07988,2.0253 -0.1045,2.06915 -0.4097,1.95674 4.94228,1.82009 2.4903,-0.0636 4.8456,-0.20452 5.234,-0.31319 z m -59.38918,-0.34722 c 16.2166,-0.77128 32.1476,-3.43386 41.5486,-6.94411 4.677,-1.74638 7.4374,-3.30653 9.5113,-5.37589 1.62548,-1.6218 2.11898,-2.61874 2.11428,-4.2706 0,-1.47384 -0.3558,-2.31338 -1.41008,-3.36771 l -0.7162,-0.71612 -0.1008,1.17217 c -0.1288,1.49701 -0.7199,2.53246 -2.1022,3.68284 -6.7974,5.65687 -24.5627,9.72625 -48.3123,11.06653 -4.8701,0.27484 -20.6885,0.27013 -25.2132,-0.008 -23.7251,-1.45583 -42.1524,-5.66015 -48.8969,-11.15612 -1.5868,-1.29301 -2.1013,-2.11434 -2.2253,-3.5521 l -0.1032,-1.19607 -0.6885,0.6895 c -1.502,1.50432 -1.8627,3.58897 -0.9449,5.46107 0.6354,1.29608 2.578,3.12343 4.5822,4.31031 7.0876,4.19738 20.972,7.60236 38.3333,9.40075 10.2377,1.06047 22.9919,1.3563 34.6239,0.80307 z m 56.01958,-5.49323 c -0.063,-0.10164 -0.9785,-0.17756 -2.1412,-0.17756 -1.2359,0 -2.03148,0.0695 -2.03148,0.17756 0,0.10855 0.83208,0.17756 2.14118,0.17756 1.3823,0 2.1023,-0.063 2.0315,-0.17756 z m -53.00118,-1.57836 c 22.8472,-1.68368 39.0058,-5.52022 44.5161,-10.56944 l 1.1676,-1.06988 -0.1071,-2.31345 c -0.265,-5.72063 -1.9974,-12.35393 -4.6386,-17.76098 -5.6077,-11.48004 -15.9144,-19.69893 -28.7149,-22.89805 -2.7285,-0.68193 -6.3004,-1.34263 -6.45,-1.19307 -0.05,0.0502 -0.091,0.24167 -0.091,0.42555 0,0.63657 -0.5432,1.38027 -1.291,1.76723 -0.5455,0.28238 -1.1684,0.40983 -2.2776,0.46607 -3.1837,0.16142 -5.3093,-1.097 -5.3093,-3.14332 0,-0.29034 -0.066,-0.56879 -0.147,-0.61878 -0.081,-0.05 -2.5643,-0.18069 -5.5187,-0.29043 -5.0797,-0.1887 -16.0866,-0.003 -17.584,0.29614 -0.4504,0.0901 -0.5144,0.19316 -0.6216,1.00124 -0.2394,1.80468 -1.936,2.79268 -4.7921,2.7907 -2.4157,-0.001 -3.6197,-0.58849 -4.0321,-1.96523 -0.1149,-0.38343 -0.3212,-0.69714 -0.4584,-0.69714 -0.4734,0 -4.5834,0.89614 -6.8854,1.50129 -6.8598,1.80329 -13.0061,4.87106 -17.8825,8.92562 -8.4412,7.01855 -13.6501,16.64804 -15.1351,27.97908 -0.151,1.15247 -0.2745,2.87938 -0.2745,3.83758 v 1.74219 l 0.8711,0.81489 c 5.8644,5.48542 26.3152,10.04928 50.1768,11.19759 2.7398,0.13185 23.0726,-0.0481 25.4795,-0.2254 z m -17.3499,-11.09905 c -1.6861,-0.54776 -3.0539,-1.66733 -3.7951,-3.10615 -0.3656,-0.70986 -0.3785,-0.8215 -0.143,-1.24291 0.1926,-0.34495 0.4244,-0.47689 0.9091,-0.51751 0.5811,-0.0487 0.682,0.008 0.9468,0.53267 0.7941,1.57308 2.0293,2.30107 4.097,2.41462 2.3282,0.12784 4.0476,-0.68049 4.868,-2.28849 0.3081,-0.60384 0.4325,-0.69305 0.9673,-0.69305 0.864,0 1.2705,0.61993 0.9813,1.49634 -0.3305,1.00126 -1.6599,2.32861 -2.9862,2.98157 -1.0941,0.53863 -1.3305,0.58563 -3.1401,0.62423 -1.2809,0.0273 -2.2152,-0.0422 -2.7051,-0.20132 z m -20.9138,-3.37086 c -1.6187,-0.76526 -2.4451,-2.06759 -2.4523,-3.86471 -0.01,-1.90972 1.1367,-3.48424 3.0201,-4.15607 2.7024,-0.9639 5.7355,1.27764 5.7355,4.23858 0,1.46685 -1.1108,3.14167 -2.5439,3.83539 -1.0702,0.5181 -2.5967,0.49651 -3.7594,-0.0532 z m 42.6206,0.058 c -2.4612,-1.22771 -3.261,-4.11566 -1.7658,-6.37515 2.1846,-3.30103 7.3215,-2.07936 7.9695,1.89528 0.2765,1.69631 -0.8351,3.69729 -2.4849,4.47277 -1.0469,0.49206 -2.7401,0.4953 -3.7188,0.007 z m -22.1126,-19.70294 c -6.8329,-0.50933 -11.5608,-2.66975 -13.0983,-5.98532 -0.688,-1.48353 -0.6749,-3.43755 0.032,-4.90322 1.8055,-3.7402 7.5133,-5.85084 15.8179,-5.84918 7.7802,10e-4 13.3038,2.02103 15.2785,5.58587 0.4773,0.86174 0.5242,1.097 0.5242,2.63309 0,2.0913 -0.3724,2.96072 -1.9472,4.54686 -2.8391,2.85955 -9.6566,4.49003 -16.6076,3.9719 z m 7.8933,-2.57139 c 3.7119,-0.67752 6.4315,-1.9534 7.6784,-3.60219 1.1255,-1.4883 1.1743,-2.94786 0.1468,-4.3931 -1.1797,-1.6592 -3.3743,-2.74908 -7.0236,-3.48795 -1.7829,-0.36097 -2.5452,-0.41204 -6.1204,-0.41014 -3.5179,0.002 -4.3568,0.0572 -6.0538,0.39961 -4.3689,0.88136 -6.6619,2.14889 -7.5275,4.16097 -1.288,2.99417 1.3102,5.78032 6.5257,6.99751 3.4961,0.81593 8.9341,0.96327 12.3744,0.33529 z m -6.3841,-3.19558 c -0.3907,-0.1381 -0.939,-0.50549 -1.2185,-0.8164 -0.437,-0.4859 -0.4946,-0.66773 -0.4105,-1.29463 0.2696,-2.00993 3.3196,-2.74481 4.8335,-1.1646 0.4224,0.44093 0.5242,0.70286 0.5242,1.34908 0,0.67784 -0.088,0.88037 -0.5676,1.30906 -0.5298,0.47338 -1.5721,0.89104 -2.1846,0.8754 -0.1465,-0.004 -0.5859,-0.1198 -0.9765,-0.25791 z m -8.6576,-1.22303 c -0.8575,-0.31493 -1.1081,-0.53068 -1.3807,-1.18872 -0.3158,-0.76258 0.022,-1.79882 0.7578,-2.32257 0.7537,-0.5367 2.5005,-0.66708 3.3124,-0.24724 0.5651,0.29225 1.2609,1.21295 1.2622,1.67026 0,0.51263 -0.5963,1.45792 -1.1281,1.78403 -0.7707,0.47272 -2.0033,0.60553 -2.8236,0.30424 z m 17.1804,-0.0201 c -1.314,-0.46487 -1.9038,-1.53347 -1.4482,-2.62382 0.6687,-1.60049 3.2374,-1.95117 4.5653,-0.62325 1.0662,1.06617 0.5071,2.84131 -1.0409,3.30511 -0.8784,0.26316 -1.1932,0.25435 -2.0762,-0.058 z m -22.0749,-14.46932 0.475,-0.22357 0.058,-3.39555 c 0.051,-3.02172 0.098,-3.47263 0.425,-4.09571 0.4485,-0.85495 1.0358,-1.31376 1.9547,-1.52686 0.383,-0.0888 5.8132,-0.16344 12.0669,-0.16577 l 11.3705,-0.004 0.7908,0.39951 c 1.5568,0.78645 1.8431,1.79872 1.7407,6.15306 -0.066,2.79168 -0.1021,2.69787 1.1837,3.0558 0.6762,0.18827 2.7484,0.11276 3.1145,-0.1135 0.2394,-0.14797 0.2161,-6.95187 -0.027,-8.11006 -0.6296,-2.98948 -2.9408,-5.25824 -5.9158,-5.80698 -1.3034,-0.24041 -23.1676,-0.26808 -24.6036,-0.0311 -3.271,0.53973 -5.75,2.79422 -6.3957,5.81631 -0.1022,0.47857 -0.1614,2.45904 -0.134,4.48853 l 0.049,3.63205 0.4439,0.13382 c 0.6354,0.19158 2.8442,0.0581 3.4047,-0.20571 z m 10.2242,-3.89629 c 3.0525,-0.0851 5.6893,-0.12729 5.8594,-0.0938 0.1702,0.0335 2.6066,0.10409 5.4142,0.15682 l 5.1048,0.0959 v -1.3396 c 0,-2.26306 1.3854,-2.02648 -11.8671,-2.02648 -8.7074,0 -11.5513,0.0517 -11.7126,0.21307 -0.1338,0.13385 -0.2131,0.80158 -0.2131,1.79603 v 1.58297 l 0.9322,-0.11511 c 0.5127,-0.0633 3.4297,-0.18473 6.4822,-0.26981 z"
       id="path1" /></g></svg>
