<?xml version="1.0" encoding="UTF-8" standalone="no"?>
<!-- Created with Inkscape (http://www.inkscape.org/) -->

<svg
   width="180.47955mm"
   height="180.47961mm"
   viewBox="0 0 180.47956 180.47962"
   version="1.1"
   id="svg1"
   xml:space="preserve"
   sodipodi:docname="ai-grill.svg"
   inkscape:version="1.4 (86a8ad7, 2024-10-11)"
   inkscape:export-filename="Operation Metro Love - Logo.png"
   inkscape:export-xdpi="96"
   inkscape:export-ydpi="96"
   xmlns:inkscape="http://www.inkscape.org/namespaces/inkscape"
   xmlns:sodipodi="http://sodipodi.sourceforge.net/DTD/sodipodi-0.dtd"
   xmlns="http://www.w3.org/2000/svg"
   xmlns:svg="http://www.w3.org/2000/svg"><sodipodi:namedview
     id="namedview1"
     pagecolor="#ffffff"
     bordercolor="#000000"
     borderopacity="0.25"
     inkscape:showpageshadow="2"
     inkscape:pageopacity="0.0"
     inkscape:pagecheckerboard="true"
     inkscape:deskcolor="#d1d1d1"
     inkscape:document-units="mm"
     inkscape:zoom="0.42394166"
     inkscape:cx="306.64597"
     inkscape:cy="423.40732"
     inkscape:window-width="1920"
     inkscape:window-height="1009"
     inkscape:window-x="1912"
     inkscape:window-y="-8"
     inkscape:window-maximized="1"
     inkscape:current-layer="layer1"><inkscape:page
       x="44.220345"
       y="50.590939"
       width="93.185661"
       height="74.418388"
       id="page2"
       margin="0"
       bleed="0" /></sodipodi:namedview><defs
     id="defs1" /><g
     inkscape:label="Layer 1"
     inkscape:groupmode="layer"
     id="layer1"
     transform="translate(1156.6082,418.83587)"><path
       style="fill:#000000"
       d="m -1101.3108,-261.05159 c -3.8644,-0.73837 -6.9051,-2.43828 -9.7433,-5.44693 -4.9841,-5.28335 -6.0782,-13.11781 -2.7698,-19.83297 0.8904,-1.80722 1.5741,-2.72322 3.377,-4.52437 2.9341,-2.93128 5.3961,-4.18082 10.1409,-5.14687 0.4205,-0.0856 0.8402,-0.40231 0.9779,-0.73799 0.1327,-0.3234 2.2822,-6.83879 4.7766,-14.47864 2.4944,-7.63984 6.4372,-19.64795 8.7617,-26.68468 2.3246,-7.03673 4.1894,-12.81667 4.1441,-12.84432 -0.045,-0.0276 -1.392,-0.62418 -2.9927,-1.32563 -6.0092,-2.63329 -12.3508,-6.45084 -17.1979,-10.35294 -2.6884,-2.16424 -7.3481,-6.8665 -9.166,-9.24972 -3.5761,-4.68828 -6.7597,-10.52922 -8.4756,-15.55059 l -0.8793,-2.57276 -6.4606,-3.1e-4 c -3.5533,-1.6e-4 -7.1946,-0.12813 -8.0918,-0.28436 -3.355,-0.58426 -5.9303,-2.71394 -6.8049,-5.62743 -0.4727,-1.57466 -0.4508,-9.70893 0.031,-11.36655 0.5304,-1.82635 2.307,-3.7064 4.2063,-4.45117 1.2925,-0.50686 2.147,-0.60812 5.9305,-0.70273 l 4.4203,-0.11055 -0.7643,-1.43218 c -2.7026,-5.06455 -1.1153,-10.67728 4.0024,-14.15263 1.3677,-0.92879 1.5473,-1.15324 1.5473,-1.93377 0,-1.46236 1.0485,-7.20934 1.9834,-10.87122 4.5429,-17.79376 16.6549,-33.09468 32.9669,-41.64636 7.3153,-3.83512 15.7745,-6.63075 25.0087,-8.26499 l 3.4706,-0.6142 0.1446,-4.23827 c 0.1612,-4.72228 0.4785,-6.15398 1.9548,-8.81825 1.9185,-3.4624 5.8745,-6.25671 9.7853,-6.91175 1.2767,-0.21385 7.3592,-0.28036 20.5971,-0.22523 18.7693,0.0782 18.7868,0.0788 20.373,0.67625 3.4262,1.29067 6.43597,3.96209 7.92278,7.03207 1.15213,2.37893 1.46988,4.19609 1.46988,8.40595 v 3.88926 l 1.91823,0.31297 c 14.75009,2.40652 26.03134,7.1379 35.81549,15.0211 13.39727,10.79431 21.68749,25.58092 24.43324,43.57966 0.30937,2.02793 0.58703,3.70419 0.61703,3.72503 0.03,0.0208 0.7094,0.45782 1.50976,0.97107 1.92099,1.23188 3.49842,2.91156 4.41432,4.70048 0.67732,1.32291 0.74505,1.70779 0.74505,4.23334 0,2.58546 -0.0596,2.90403 -0.85989,4.59376 -0.47294,0.99861 -0.8599,1.84957 -0.8599,1.89104 0,0.0415 1.93477,0.12072 4.29948,0.17612 4.06925,0.0953 4.38893,0.14162 5.96987,0.86458 2.00337,0.91614 3.34196,2.36719 3.89182,4.21877 0.5368,1.80759 0.54517,9.6195 0.0122,11.3904 -0.51123,1.69869 -1.52279,3.16447 -2.84469,4.12205 -2.04506,1.48144 -3.07781,1.65028 -11.14832,1.82259 l -7.36026,0.15714 -0.99973,2.64584 c -4.85325,12.84441 -13.01771,22.59106 -25.06411,29.92128 -3.05051,1.85623 -7.78578,4.29221 -10.7545,5.53247 -1.76488,0.73733 -1.79399,0.76548 -1.61899,1.56624 0.098,0.44849 1.48008,4.98261 3.07125,10.07584 1.59117,5.09323 3.70886,11.87979 4.70596,15.08125 0.99711,3.20146 4.56387,14.62115 7.92614,25.37708 3.36227,10.75594 6.37036,20.44123 6.68465,21.52287 0.40622,1.39805 0.75656,2.08793 1.2118,2.38621 2.08345,1.36513 3.43205,6.53701 2.36725,9.07839 -1.79096,4.27453 -8.80793,5.82009 -13.83277,3.04681 -2.9686,-1.63842 -4.31059,-4.37269 -3.9641,-8.07681 0.10317,-1.10296 0.19704,-2.36257 0.2086,-2.79913 0.0186,-0.70202 -3.56307,-12.59534 -4.01167,-13.32119 -0.11923,-0.19292 -0.85528,-0.0688 -2.28323,0.38504 -8.41073,2.6731 -23.13294,4.33447 -38.45065,4.33907 -3.44,0.001 -7.0425,0.0763 -8.0056,0.1673 l -1.7511,0.16541 -0.1272,3.07385 c -0.148,3.57499 -0.5708,4.68702 -2.3667,6.22426 -1.4016,1.19967 -2.7205,1.59501 -5.2487,1.57324 -3.0277,-0.0261 -5.2732,-1.19886 -6.414,-3.34991 -0.4868,-0.91799 -0.6118,-1.67917 -0.7251,-4.41645 l -0.137,-3.30729 -10.1864,-0.17311 c -9.9171,-0.16854 -16.9414,-0.59883 -23.4157,-1.43436 -3.3336,-0.43023 -9.6677,-1.54147 -11.2448,-1.97278 -1.7194,-0.47024 -1.8535,-0.3934 -1.2925,0.74048 0.2712,0.54818 0.7481,2.00531 1.0599,3.23806 1.8676,7.38538 -1.7905,15.77092 -8.463,19.40007 -3.4655,1.88488 -8.2784,2.65265 -12.0778,1.9267 z m 7.1364,-3.47706 c 4.7763,-1.24406 8.6173,-5.06773 10.0915,-10.04591 1.0109,-3.41392 0.3772,-8.11846 -1.4969,-11.1125 -3.1335,-5.00614 -8.5203,-7.66807 -14.1258,-6.98034 -2.4646,0.30239 -4.0284,0.85318 -5.9516,2.09623 -3.1322,2.0244 -5.3575,5.00387 -6.225,8.33468 -0.5193,1.99379 -0.5193,5.65715 0,7.65093 1.2301,4.72296 5.2441,8.73403 10.0638,10.05662 1.799,0.49366 5.7493,0.49381 7.644,2.9e-4 z m -6.5562,-7.13362 c -4.7386,-1.80016 -6.0973,-8.22181 -2.5007,-11.81847 1.4033,-1.40327 3.1648,-2.1237 5.2169,-2.13367 2.884,-0.014 5.1279,1.30124 6.5007,3.81049 1.0251,1.87374 1.1088,4.75909 0.1883,6.49473 -0.7576,1.42854 -2.0789,2.74792 -3.3927,3.38772 -1.3395,0.65231 -4.607,0.79318 -6.0125,0.2592 z m 4.5775,-3.24343 c 0.5065,-0.25444 1.2016,-0.87933 1.5448,-1.38866 0.8509,-1.26275 0.7329,-3.6177 -0.2332,-4.65172 -1.9259,-2.0615 -5.0117,-1.86439 -6.5499,0.41839 -0.5195,0.77096 -0.6063,1.17917 -0.5183,2.43748 0.07,1.00496 0.2776,1.70478 0.6187,2.08841 1.3799,1.55192 3.381,1.97882 5.1379,1.0961 z m 142.8214,8.88788 c 1.83909,-0.8794 2.35765,-2.59408 1.51059,-4.99491 -0.63079,-1.78786 -0.71362,-1.83043 -2.43249,-1.25014 -1.65717,0.55945 -4.79467,0.72292 -7.26444,0.37848 -1.37724,-0.19207 -1.51243,-0.16473 -1.67204,0.33813 -0.27976,0.88145 0.36986,3.38671 1.10459,4.25989 1.26086,1.49845 3.33401,2.1654 6.03459,1.94138 0.87313,-0.0724 2.09676,-0.37521 2.7192,-0.67283 z m -72.3052,-9.463 c 1.2007,-0.67458 1.4475,-1.43155 1.4519,-4.45156 l 0,-2.71198 -4.0349,5e-5 -4.0349,5e-5 0.02,2.7534 c 0.021,2.9475 0.3031,3.77977 1.5019,4.42993 1.437,0.77941 3.6856,0.77062 5.0926,-0.0199 z m 70.51147,0.0867 c 0.25889,-0.25892 -5.97604,-20.53827 -21.31085,-69.31441 l -1.50339,-4.78192 -3.6077,1.18833 c -1.98423,0.65359 -3.65615,1.22672 -3.71537,1.27362 -0.15598,0.12356 0.56796,2.51702 4.829,15.96543 10.07359,31.79363 15.318,48.35988 16.43236,51.90719 1.03797,3.30415 1.30832,3.90425 1.80739,4.01191 1.13015,0.24381 6.77439,0.0441 7.06856,-0.25015 z m -39.98388,-11.32178 c 6.03164,-0.5399 11.64119,-1.31612 15.72438,-2.17585 3.54946,-0.74736 7.61245,-1.87766 7.95145,-2.21204 0.16731,-0.16503 -0.67882,-3.46143 -1.00018,-3.8966 -0.0215,-0.0291 -1.16621,0.2369 -2.5438,0.59115 -5.00215,1.28633 -10.40753,2.13678 -18.64427,2.93339 -5.8879,0.56944 -52.09597,0.85107 -61.64797,0.37573 -10.514,-0.52321 -16.9743,-1.28061 -24.2093,-2.83829 -2.4011,-0.51696 -4.5303,-0.95547 -4.7316,-0.97447 -0.2272,-0.0215 -0.597,0.64305 -0.9748,1.75137 -0.6938,2.03519 -0.7697,1.9091 1.6053,2.66627 5.8945,1.87915 18.2955,3.60385 29.7657,4.13971 2.5466,0.11897 15.703,0.18449 29.2364,0.14559 20.2575,-0.0582 25.46562,-0.14764 29.46869,-0.50596 z m -84.66959,-33.04785 c 4.7951,-14.44934 8.7589,-26.48718 8.8086,-26.75076 0.076,-0.40148 -0.5247,-0.68017 -3.6996,-1.71752 -2.0844,-0.68105 -3.828,-1.17454 -3.8746,-1.09664 -0.047,0.0779 -1.1523,3.41586 -2.4568,7.41769 -1.3045,4.00182 -5.1866,15.81845 -8.6269,26.25917 -3.4402,10.44072 -6.255,19.14853 -6.255,19.35069 0,0.2359 0.4502,0.4344 1.2568,0.55418 1.3908,0.20652 5.2606,1.61875 5.5008,2.00747 0.084,0.13598 0.2598,0.24724 0.3906,0.24724 0.1308,0 4.161,-11.82219 8.9561,-26.27152 z m 84.96654,25.11902 c 5.7755,-0.55821 8.48039,-0.89342 12.30313,-1.52471 2.86136,-0.47252 8.47186,-1.71989 8.90159,-1.97906 0.0937,-0.0565 -0.0417,-0.78813 -0.30091,-1.62584 l -0.47125,-1.5231 h -54.0457 -54.0457 l -0.4875,1.434 c -0.2681,0.7887 -0.4326,1.48877 -0.3657,1.55571 0.2172,0.21722 6.0434,1.57145 8.6166,2.00283 5.436,0.91131 14.2339,1.79992 20.8934,2.11027 1.0914,0.0509 13.8311,0.0653 28.3104,0.0322 21.753,-0.0498 27.08436,-0.13362 30.69164,-0.48226 z m 19.11501,-10.11321 c 0.19674,-0.19673 -0.56814,-2.53028 -0.95872,-2.92493 -0.7155,-0.72298 -9.81107,-2.62087 -16.17191,-3.37446 -7.51472,-0.89029 -12.38042,-1.04025 -34.52812,-1.06417 -23.1574,-0.025 -27.9547,0.13081 -36.9094,1.19886 -6.1693,0.73583 -14.3467,2.36696 -15.7204,3.1357 -0.4103,0.22963 -1.367,2.80763 -1.1299,3.04476 0.19,0.18999 105.2284,0.1743 105.41845,-0.0158 z m -99.27805,-7.79466 c 8.1317,-1.72371 17.4147,-2.57839 30.6198,-2.81915 l 8.7974,-0.16039 v -7.18753 -7.18753 l -3.011,-0.31386 c -9.0052,-0.93869 -15.506,-2.84341 -18.2435,-5.34532 -1.7356,-1.58629 -2.5876,-3.14496 -3.4512,-6.31369 -0.3721,-1.36545 -0.7468,-2.55287 -0.8326,-2.63871 -0.2747,-0.27464 -6.338,-1.58435 -6.4956,-1.40307 -0.083,0.0959 -2.6188,7.64991 -5.6344,16.78663 -3.0155,9.13672 -5.5496,16.78648 -5.6314,16.99948 -0.186,0.48468 -0.5602,0.52486 3.8825,-0.41686 z m 97.09638,0.59395 c 0,-0.11559 -0.70273,-2.40754 -1.56162,-5.09323 -2.30829,-7.21782 -5.90892,-18.6126 -7.57629,-23.9764 -0.80563,-2.59163 -1.54972,-4.79258 -1.65354,-4.89101 -0.14386,-0.13638 -5.97289,1.00738 -6.35027,1.24605 -0.0418,0.0265 -0.36862,1.14122 -0.72617,2.47724 -1.59122,5.94588 -3.80057,8.0657 -10.33209,9.9134 -3.2574,0.92147 -7.2947,1.65439 -11.2891,2.04934 l -3.3734,0.33356 v 7.18116 7.18117 l 9.4588,0.17133 c 9.8514,0.17845 15.79419,0.57647 22.29118,1.49298 3.87254,0.54628 10.01828,1.73592 10.27042,1.98806 0.21442,0.21441 0.84208,0.15952 0.84208,-0.0736 z m -46.30208,-10.63775 v -7.14375 h -3.9688 -3.9687 v 7.14375 7.14375 h 3.9687 3.9688 z m 2.9104,-10.5956 c 5.0194,-0.35537 9.9883,-1.12388 13.747,-2.12616 5.6546,-1.50784 6.9449,-2.50385 8.1246,-6.27194 0.37757,-1.20596 0.64132,-2.23647 0.5861,-2.29001 -0.0552,-0.0535 -1.0529,0.0701 -2.2171,0.27471 -2.9333,0.51561 -9.3375,1.32684 -13.7583,1.74278 -2.3401,0.22017 -7.3093,0.34215 -13.4938,0.33124 -10.5248,-0.0186 -15.2231,-0.33242 -23.9375,-1.59902 -5.137,-0.74664 -4.8337,-0.70704 -5.0847,-0.664 -0.2125,0.0364 0.8461,3.25399 1.4631,4.44707 0.9294,1.79736 2.855,2.84366 7.4492,4.04773 4.1849,1.0968 8.8228,1.78207 14.9506,2.20904 2.8387,0.19779 8.6255,0.14956 12.1708,-0.10144 z m 5.0271,-11.91647 c 13.6854,-0.92121 27.60682,-3.84036 38.36458,-8.04455 19.11453,-7.47008 31.08688,-18.39103 37.21607,-33.9478 1.57176,-3.98936 1.64934,-4.42561 1.16239,-6.53621 -0.17333,-0.75127 -0.23112,-1.95172 -0.13374,-2.77812 0.30714,-2.60639 1.20687,-4.08915 3.05715,-5.03817 l 0.95291,-0.48876 0.24445,-2.39591 c 0.13444,-1.31775 0.19745,-2.39591 0.14002,-2.39591 -0.0574,0 -0.77483,0.40346 -1.59423,0.89658 -16.09293,9.68478 -55.62455,16.0887 -95.1523,15.4142 -5.2388,-0.0894 -12.6802,-0.34715 -16.5365,-0.5728 -31.1058,-1.82009 -59.7667,-8.07124 -71.7821,-15.65621 l -1.0458,-0.66017 0.1588,1.1491 c 0.087,0.632 0.2359,1.88392 0.3302,2.78204 0.1498,1.42746 0.25,1.65269 0.7961,1.78976 0.9826,0.24661 2.3902,1.63942 2.8708,2.84058 0.5534,1.38312 0.6332,4.43665 0.162,6.19769 -0.356,1.33026 -0.3456,1.38925 0.7677,4.36563 5.158,13.79008 14.7682,23.98823 29.6423,31.45603 11.5316,5.78962 25.626,9.53159 42.4043,11.25804 8.5105,0.87571 18.4592,1.0055 27.9749,0.36496 z m -103.9845,-48.26002 c 0.2176,-0.26226 0.2922,-1.06372 0.2242,-2.40997 -0.153,-3.03083 -0.1259,-3.01794 -6.3488,-3.01794 -6.5862,0 -7.1013,-0.24241 -7.1013,-3.34157 0,-1.29369 0.1075,-1.63652 0.7109,-2.26635 0.8812,-0.91972 1.9984,-0.98639 2.5814,-0.15404 0.4585,0.65462 0.5589,2.05779 0.1473,2.05779 -0.1456,0 -0.2646,0.11906 -0.2646,0.26459 0,0.1612 1.201,0.26458 3.074,0.26458 h 3.074 l -0.1705,-2.31511 c -0.094,-1.2733 -0.2395,-2.89105 -0.3239,-3.59499 l -0.1534,-1.2799 -5.3298,0.0893 c -5.9881,0.1003 -6.8569,0.32594 -8.0572,2.09251 -0.5921,0.87152 -0.6082,1.04863 -0.5292,5.81929 l 0.082,4.92041 0.7625,0.99879 c 0.4193,0.54934 1.1933,1.18479 1.7198,1.41212 1.1262,0.48626 4.7521,0.75257 11.0452,0.81121 3.722,0.0347 4.5899,-0.028 4.8578,-0.35069 z m 199.09624,-0.1645 c 1.34988,-0.37768 2.90863,-1.9375 3.28272,-3.285 0.36705,-1.3221 0.38321,-7.86834 0.0226,-9.16654 -0.37734,-1.35855 -1.76583,-2.49275 -3.48978,-2.85064 -0.80902,-0.16795 -3.33185,-0.26219 -5.9029,-0.2205 l -4.49004,0.0728 -0.0779,1.62131 -0.0779,1.62132 3.26502,0.10869 c 3.56165,0.11858 4.76095,0.52191 5.41917,1.82254 0.45289,0.89491 0.4161,2.50122 -0.0792,3.45908 -0.69308,1.34027 -1.64792,1.55352 -6.95607,1.55352 -5.91691,0 -5.92748,0.005 -6.07961,3.01794 -0.1557,3.08329 -0.61055,2.91579 7.36471,2.71217 3.71078,-0.0948 7.22044,-0.30476 7.79925,-0.4667 z m -88.49714,-0.5174 c 24.16478,-1.1493 47.90389,-5.11687 61.91248,-10.34758 6.96938,-2.60232 11.0826,-4.92714 14.17311,-8.01075 2.4221,-2.41668 3.15755,-3.90225 3.15045,-6.36372 -0.006,-2.1962 -0.53017,-3.44723 -2.10125,-5.01831 l -1.06711,-1.06711 -0.15029,1.74669 c -0.19195,2.23072 -1.07267,3.77368 -3.13249,5.48788 -10.129,8.42944 -36.60155,14.49332 -71.9912,16.49051 -7.2571,0.40955 -30.8285,0.40252 -37.5708,-0.0112 -35.3533,-2.16937 -62.8124,-8.43434 -72.8625,-16.62401 -2.3645,-1.92675 -3.1312,-3.15063 -3.316,-5.29308 l -0.1538,-1.78229 -1.0259,1.02744 c -2.2382,2.24163 -2.7756,5.34802 -1.408,8.13768 0.9469,1.93132 3.8416,4.65429 6.828,6.4229 10.5614,6.25462 31.251,11.32846 57.1215,14.00828 15.2554,1.58024 34.2607,2.02105 51.5938,1.19668 z m 83.47602,-8.18559 c -0.0936,-0.15145 -1.45796,-0.26459 -3.19062,-0.26459 -1.84167,0 -3.02709,0.10361 -3.02709,0.26459 0,0.16176 1.23993,0.26458 3.19061,0.26458 2.05971,0 3.13266,-0.0938 3.0271,-0.26458 z m -78.97812,-2.35196 c 34.04494,-2.50889 58.12331,-8.22581 66.33438,-15.74977 l 1.73986,-1.59426 -0.15968,-3.44732 c -0.39486,-8.52446 -2.97634,-18.40889 -6.91206,-26.46607 -8.35617,-17.10669 -23.71447,-29.35386 -42.78865,-34.12095 -4.06589,-1.01616 -9.38841,-2.00068 -9.61127,-1.77782 -0.0748,0.0748 -0.13592,0.36012 -0.13592,0.63413 0,0.94856 -0.80954,2.05677 -1.92368,2.63339 -0.81302,0.42078 -1.74118,0.6107 -3.39398,0.6945 -4.7441,0.24054 -7.9115,-1.63467 -7.9115,-4.68393 0,-0.43265 -0.099,-0.84758 -0.2191,-0.92207 -0.1206,-0.0745 -3.8211,-0.26924 -8.2235,-0.43278 -7.5694,-0.28118 -23.9711,-0.005 -26.2024,0.44129 -0.6711,0.13423 -0.7665,0.28784 -0.9262,1.49198 -0.3568,2.68919 -2.8849,4.16143 -7.1409,4.15849 -3.5996,-0.002 -5.3937,-0.87693 -6.0083,-2.92844 -0.1712,-0.57136 -0.4786,-1.03883 -0.6831,-1.03883 -0.7054,0 -6.8297,1.33536 -10.2601,2.23711 -10.2219,2.68712 -19.3807,7.25848 -26.6471,13.30029 -12.5784,10.4585 -20.3404,24.80765 -22.5531,41.6923 -0.225,1.71732 -0.4091,4.29063 -0.4091,5.71848 v 2.59607 l 1.2981,1.21429 c 8.7387,8.17396 39.2129,14.97468 74.7696,16.6858 4.0826,0.19647 34.381,-0.0716 37.9677,-0.33588 z m -25.8535,-16.53896 c -2.5125,-0.81623 -4.5508,-2.48453 -5.6552,-4.62855 -0.5448,-1.05778 -0.564,-1.22414 -0.2132,-1.85208 0.2871,-0.51402 0.6325,-0.71063 1.3547,-0.77116 0.8659,-0.0726 1.0163,0.012 1.4109,0.79375 1.1833,2.34408 3.0239,3.42888 6.105,3.59807 3.4693,0.1905 6.0315,-1.01401 7.2539,-3.41012 0.4591,-0.89981 0.6446,-1.03274 1.4415,-1.03274 1.2874,0 1.8932,0.92378 1.4622,2.22974 -0.4924,1.49199 -2.4734,3.46992 -4.4498,4.4429 -1.6303,0.80263 -1.9826,0.87266 -4.6791,0.93019 -1.9088,0.0407 -3.301,-0.0629 -4.0309,-0.3 z m -31.1642,-5.023 c -2.4121,-1.14033 -3.6435,-3.08097 -3.6542,-5.75889 -0.011,-2.84573 1.6937,-5.19196 4.5003,-6.19307 4.0268,-1.43633 8.5466,1.90384 8.5466,6.31601 0,2.18579 -1.6553,4.68149 -3.7907,5.71521 -1.5948,0.77204 -3.8694,0.73986 -5.602,-0.0793 z m 63.5099,0.0865 c -3.6674,-1.82944 -4.8593,-6.13284 -2.6312,-9.49976 3.25522,-4.91894 10.90998,-3.0985 11.87549,2.8242 0.41206,2.52771 -1.24447,5.50942 -3.70283,6.66498 -1.5599,0.73324 -4.08313,0.73806 -5.54146,0.0106 z m -32.9505,-29.35983 c -10.1819,-0.75896 -17.227,-3.97825 -19.518,-8.91886 -1.0252,-2.21065 -1.0058,-5.12238 0.048,-7.30642 2.6904,-5.57336 11.1957,-8.71848 23.5706,-8.716 11.5934,0.002 19.8243,3.01158 22.7668,8.32364 0.7113,1.2841 0.7811,1.63467 0.7811,3.92363 0,3.1163 -0.5548,4.41184 -2.9015,6.77539 -4.2306,4.26109 -14.3895,6.6907 -24.7474,5.91862 z m 11.7621,-3.83168 c 5.5311,-1.00959 9.5837,-2.91082 11.4417,-5.36772 1.6772,-2.21775 1.7499,-4.39267 0.2187,-6.54627 -1.7578,-2.47241 -5.0281,-4.09647 -10.466,-5.19747 -2.6567,-0.53789 -3.7926,-0.614 -9.1201,-0.61116 -5.2421,0.003 -6.4922,0.0853 -9.021,0.59546 -6.5101,1.31334 -9.927,3.20212 -11.2168,6.20037 -1.9194,4.46169 1.9523,8.6134 9.724,10.42716 5.2096,1.21583 13.3129,1.43539 18.4395,0.49963 z m -9.5132,-4.76182 c -0.5821,-0.20579 -1.3992,-0.75324 -1.8157,-1.21654 -0.6511,-0.72405 -0.737,-0.995 -0.6117,-1.92915 0.4018,-2.99505 4.9466,-4.09011 7.2025,-1.73541 0.6295,0.65704 0.7812,1.04735 0.7812,2.0103 0,1.01007 -0.1309,1.31187 -0.8458,1.95067 -0.7895,0.70539 -2.3426,1.32776 -3.2553,1.30445 -0.2183,-0.006 -0.8731,-0.17852 -1.4552,-0.38432 z m -12.9009,-1.82247 c -1.2778,-0.46928 -1.6512,-0.79077 -2.0574,-1.77134 -0.4706,-1.13634 0.033,-2.68046 1.1292,-3.46092 1.1232,-0.79975 3.7261,-0.99402 4.9359,-0.36841 0.8421,0.43549 1.8789,1.80744 1.8808,2.4889 0,0.76388 -0.8885,2.17247 -1.6809,2.65842 -1.1485,0.70441 -2.9852,0.90231 -4.2076,0.45335 z m 25.6009,-0.0299 c -1.958,-0.69272 -2.8369,-2.28506 -2.158,-3.90982 0.9965,-2.38493 4.8242,-2.90748 6.803,-0.92872 1.5887,1.58872 0.7556,4.23391 -1.5512,4.92503 -1.3088,0.39213 -1.778,0.37901 -3.0938,-0.0865 z m -32.8943,-21.56109 0.7078,-0.33315 0.086,-5.05979 c 0.076,-4.50274 0.1462,-5.17464 0.6333,-6.10312 0.6683,-1.27397 1.5435,-1.95766 2.9127,-2.2752 0.5708,-0.13239 8.6624,-0.24355 17.9813,-0.24702 l 16.9434,-0.006 1.1784,0.59532 c 2.3198,1.17192 2.7465,2.68033 2.5938,9.16883 -0.098,4.15995 -0.1521,4.02016 1.7639,4.55353 1.0077,0.28054 4.0954,0.16802 4.641,-0.16913 0.35672,-0.2205 0.32194,-10.35915 -0.041,-12.085 -0.9381,-4.4547 -4.3822,-7.83543 -8.8153,-8.65313 -1.9422,-0.35824 -34.5226,-0.39947 -36.6624,-0.0464 -4.8741,0.80427 -8.5682,4.16374 -9.5303,8.66702 -0.1523,0.71314 -0.2405,3.66428 -0.1998,6.68847 l 0.073,5.41221 0.6615,0.19941 c 0.9469,0.28547 4.2382,0.0866 5.0734,-0.30653 z m 15.2354,-5.80596 c 4.5486,-0.1268 8.4777,-0.18967 8.7312,-0.13972 0.2536,0.0499 3.8841,0.1551 8.0678,0.23368 l 7.6068,0.14287 v -1.99617 c 0,-3.37224 2.0644,-3.01971 -17.6835,-3.01971 -12.975,0 -17.2128,0.0771 -17.4532,0.3175 -0.1994,0.19946 -0.3175,1.19446 -0.3175,2.67632 v 2.35882 l 1.3891,-0.17153 c 0.764,-0.0943 5.1107,-0.27527 9.6593,-0.40206 z"
       id="path1" /></g></svg>
