<?xml version="1.0" encoding="UTF-8" standalone="no"?>
<!-- Created with Inkscape (http://www.inkscape.org/) -->

<svg
   width="180.47955mm"
   height="180.47961mm"
   viewBox="0 0 180.47956 180.47962"
   version="1.1"
   id="svg1"
   xml:space="preserve"
   sodipodi:docname="ai-steak.svg"
   inkscape:version="1.4 (86a8ad7, 2024-10-11)"
   inkscape:export-filename="Operation Metro Love - Logo.png"
   inkscape:export-xdpi="96"
   inkscape:export-ydpi="96"
   xmlns:inkscape="http://www.inkscape.org/namespaces/inkscape"
   xmlns:sodipodi="http://sodipodi.sourceforge.net/DTD/sodipodi-0.dtd"
   xmlns="http://www.w3.org/2000/svg"
   xmlns:svg="http://www.w3.org/2000/svg"><sodipodi:namedview
     id="namedview1"
     pagecolor="#ffffff"
     bordercolor="#000000"
     borderopacity="0.25"
     inkscape:showpageshadow="2"
     inkscape:pageopacity="0.0"
     inkscape:pagecheckerboard="false"
     inkscape:deskcolor="#d1d1d1"
     inkscape:document-units="mm"
     inkscape:zoom="0.42394166"
     inkscape:cx="305.46656"
     inkscape:cy="423.40732"
     inkscape:window-width="1920"
     inkscape:window-height="1009"
     inkscape:window-x="1912"
     inkscape:window-y="-8"
     inkscape:window-maximized="1"
     inkscape:current-layer="layer1"
     showgrid="false"
     showborder="true"
     inkscape:antialias-rendering="true"
     inkscape:clip-to-page="false"><inkscape:page
       x="7.668045"
       y="34.185173"
       width="169.99541"
       height="108.88423"
       id="page2"
       margin="0"
       bleed="0" /></sodipodi:namedview><defs
     id="defs1" /><g
     inkscape:label="Layer 1"
     inkscape:groupmode="layer"
     id="layer1"
     transform="translate(1156.6082,418.83587)"><path
       style="fill:#000000;stroke-width:0.617652"
       d="m -1047.5567,-275.85654 c -9.4366,-0.4885 -16.443,-1.57851 -30.5596,-4.75428 -13.5981,-3.05912 -18.5343,-3.89371 -29.8242,-5.04263 -5.982,-0.60875 -7.941,-0.87449 -10.9492,-1.48532 -4.2498,-0.86295 -8.3893,-2.23918 -12.0114,-3.99338 -8.8565,-4.28923 -15.0566,-11.25036 -17.0696,-19.16446 -0.8417,-3.30951 -0.8728,-3.82004 -0.9458,-15.5386 -0.07,-11.15389 -0.011,-12.82315 0.5418,-15.50015 1.3681,-6.62347 5.7624,-12.65693 12.3259,-16.92369 4.1195,-2.67801 9.6173,-4.9069 14.9529,-6.0622 5.0214,-1.08724 9.8505,-1.56322 18.4665,-1.82014 12.5234,-0.37342 19.9716,-1.44822 27.2045,-3.92569 3.0816,-1.05552 4.5633,-1.70545 10.7908,-4.73323 3.011,-1.46394 6.3203,-3.02774 7.3539,-3.47511 16.936,-7.33017 35.7163,-8.39891 50.9064,-2.89695 4.1003,1.48517 8.10394,3.67039 11.75714,6.4172 2.09104,1.57229 6.02003,5.50638 7.66034,7.67031 3.29755,4.35021 5.709,9.30878 6.98595,14.36498 0.9496,3.75999 0.96949,4.16451 1.01166,20.5707 0.0423,16.46681 0.0529,16.2383 -0.96539,20.8361 -1.27793,5.77019 -3.89503,11.25821 -7.71517,16.17862 -1.44472,1.86083 -4.8042,5.22232 -6.75489,6.7589 -8.99304,7.08404 -20.96574,11.1051 -36.82044,12.36628 -2.9328,0.23328 -12.9733,0.32713 -16.3421,0.15274 z m 13.1554,-2.28793 c 21.8307,-1.14435 36.56964,-7.39876 45.62209,-19.35958 3.03841,-4.01459 5.62704,-9.67431 6.65232,-14.54442 0.83715,-3.97649 0.88198,-4.61137 0.95609,-13.54065 0.0501,-6.03777 0.0196,-8.44329 -0.10598,-8.36565 -0.097,0.0599 -0.17632,0.17771 -0.17632,0.26172 0,0.32048 -1.4788,3.4178 -2.45365,5.13912 -6.69546,11.82233 -17.38715,19.40648 -31.21095,22.13947 -9.2626,1.83122 -19.1992,1.64454 -31.0499,-0.58334 -3.9993,-0.75185 -6.8772,-1.42448 -13.2519,-3.09723 -15.3157,-4.01896 -19.1305,-4.63414 -27.4979,-4.43433 -4.8299,0.11534 -6.4888,0.30266 -13.2606,1.49733 -2.7864,0.49156 -5.9394,1.00661 -7.0069,1.14455 -9.7319,1.25754 -18.7794,0.17058 -26.221,-3.15017 -3.6161,-1.61363 -6.6678,-3.68831 -9.2004,-6.25466 -1.4332,-1.45227 -3.0719,-3.63115 -3.5871,-4.76945 -0.1118,-0.24718 -0.2651,-0.44941 -0.3405,-0.44941 -0.1798,0 -0.1659,6.71109 0.021,10.05075 0.2836,5.07547 1.4021,8.67169 3.8875,12.49971 3.7344,5.75143 10.0697,10.25854 18.2613,12.99144 4.3596,1.45444 8.7007,2.2496 16.5055,3.02327 11.2665,1.11682 15.5595,1.83088 29.0071,4.8247 11.8144,2.63024 15.4887,3.32888 21.408,4.07063 7.7075,0.96582 15.8192,1.28483 23.0423,0.9062 z m -32.5167,-11.53225 c -1.7626,-0.47364 -3.3162,-1.72703 -4.0304,-3.25156 -0.6317,-1.34853 -0.4728,-2.3696 0.3687,-2.3696 0.6492,0 0.8587,0.17976 1.1175,0.95911 0.5717,1.72122 2.0758,2.79333 4.1056,2.92649 2.2868,0.15001 3.8219,-0.68004 4.7684,-2.57823 0.3661,-0.73409 0.5333,-0.90855 0.9121,-0.95192 0.5329,-0.061 1.0885,0.35701 1.0885,0.81907 0,0.16872 -0.1137,0.58017 -0.2527,0.91434 -1.2021,2.89048 -4.7282,4.4324 -8.0777,3.5323 z m 20.3711,-2.1146 c -1.6788,-0.61587 -2.7308,-2.15915 -2.7185,-3.98805 0.013,-1.96307 0.7183,-3.13368 2.3808,-3.95214 0.9277,-0.4567 1.1576,-0.5046 2.0699,-0.43136 2.2625,0.1816 3.8206,1.73869 4.0021,3.99928 0.2484,3.09438 -2.8266,5.43899 -5.7343,4.37227 z m -39.4357,-2.69423 c -0.9829,-0.30365 -2.0541,-1.18377 -2.5743,-2.1152 -0.4256,-0.76202 -0.4992,-1.0642 -0.4978,-2.04275 0,-0.96252 0.08,-1.29185 0.4857,-2.03427 1.8227,-3.33577 6.6601,-2.90543 7.8573,0.69899 0.6761,2.03563 -0.2774,4.2455 -2.2786,5.28032 -0.606,0.31336 -2.2812,0.43256 -2.9923,0.21291 z m 82.8304,-1.88419 c -0.4008,-0.28074 -0.4738,-0.85317 -0.1584,-1.24184 0.1123,-0.13844 0.7926,-0.56809 1.5116,-0.95478 4.70204,-2.52859 8.89371,-6.53979 11.47944,-10.98503 0.79516,-1.367 1.14614,-1.60543 1.76568,-1.1995 0.51105,0.33485 0.50478,0.7128 -0.0294,1.77199 -2.27901,4.51875 -7.66748,9.7048 -12.72542,12.24742 -1.1903,0.59838 -1.4366,0.64671 -1.8435,0.36174 z m -127.4757,-5.37788 c -3.0629,-1.26162 -5.887,-3.23111 -7.7297,-5.39052 -0.8498,-0.9958 -0.9804,-1.50626 -0.4974,-1.94344 0.5167,-0.46756 0.8896,-0.31196 1.8642,0.77798 1.6475,1.84231 4.6596,3.9014 7.2337,4.94501 1.3732,0.55674 1.9292,1.0267 1.764,1.49103 -0.3062,0.86099 -0.7831,0.88269 -2.6348,0.11994 z m 109.7905,-6.04774 c 13.9458,-1.58849 24.41444,-7.26987 31.9702,-17.35055 4.92893,-6.57603 7.86797,-14.8307 7.5075,-21.08577 -0.80905,-14.03916 -10.68037,-26.85268 -25.015,-32.47089 -6.1387,-2.40594 -12.9806,-3.586 -20.8361,-3.59375 -8.2754,-0.008 -16.2045,1.36489 -24.1863,4.1882 -3.2101,1.1355 -5.7048,2.23556 -11.7662,5.18855 -6.5706,3.20101 -8.3773,3.99002 -11.6029,5.06705 -7.2385,2.41695 -14.1684,3.48075 -25.4936,3.91346 -12.7831,0.48842 -16.3554,0.85139 -21.7349,2.20841 -13.054,3.29301 -21.8382,10.89762 -24.0896,20.85468 -1.7972,7.94825 1.1435,15.42595 8.0926,20.57841 4.0168,2.9783 9.8307,5.23491 15.7519,6.11401 6.2211,0.92362 11.7541,0.68542 20.5909,-0.88645 8.0194,-1.42646 11.4015,-1.79832 16.3421,-1.79686 6.4204,0.002 12.2144,0.86792 20.7544,3.10218 12.4204,3.24947 14.8146,3.82228 19.7437,4.72365 3.3326,0.60943 8.7992,1.30398 11.697,1.48612 3.0536,0.19195 9.6047,0.0636 12.2743,-0.24045 z m -16.097,-6.81243 c -4.4523,-0.35677 -11.6714,-1.65876 -17.8945,-3.22735 -1.7527,-0.44178 -5.5032,-1.39031 -8.3344,-2.10784 -9.1389,-2.31609 -11.9667,-2.71353 -19.3653,-2.72179 -5.958,-0.007 -6.7927,0.0673 -13.8091,1.22443 -9.2191,1.52033 -10.7333,1.68628 -15.4432,1.69261 -4.1378,0.006 -5.8501,-0.14689 -9.1338,-0.81313 -8.1236,-1.64824 -14.5118,-5.92851 -17.2617,-11.56577 -1.2271,-2.5154 -1.5196,-3.79206 -1.5214,-6.64107 0,-2.10539 0.048,-2.52989 0.4362,-3.80714 1.5684,-5.15189 5.4052,-8.91796 11.7312,-11.51522 6.0588,-2.48755 12.022,-3.46744 23.1034,-3.79646 9.4246,-0.27983 14.2787,-0.49468 16.8323,-0.74504 5.5484,-0.54394 11.7708,-1.84921 15.2282,-3.19438 0.9721,-0.37824 4.4421,-2.04261 7.711,-3.69859 3.2689,-1.656 6.9091,-3.45407 8.0893,-3.99572 10.1217,-4.64525 18.6117,-6.68203 27.9663,-6.70915 3.6609,-0.0106 6.1463,0.19904 9.3967,0.79267 12.0193,2.19512 21.90464,8.56009 26.31984,16.94688 0.96585,1.83465 1.99455,4.87699 2.35857,6.97535 0.56836,3.27621 0.49697,7.58865 -0.18072,10.91782 -0.58582,2.8778 -2.28776,6.8422 -4.11765,9.59145 -6.14164,9.22694 -16.57474,14.9315 -29.89374,16.34501 -2.486,0.26383 -9.2187,0.29272 -12.2175,0.0524 z m 9.315,-1.93605 c 3.2947,-0.18988 4.6743,-0.35883 7.5173,-0.92064 7.8899,-1.55909 14.5763,-4.93229 19.4627,-9.8187 5.18414,-5.1841 7.99067,-11.10384 8.34793,-17.60816 l 0.099,-1.80225 -0.73742,0.9931 c -1.22047,1.64359 -3.01277,2.91448 -5.41867,3.84232 -1.68274,0.64889 -3.35394,1.00781 -7.55824,1.6232 -7.5291,1.10205 -11.3861,2.54159 -14.5017,5.41246 -0.6611,0.60912 -1.9781,2.12165 -2.9268,3.3612 -2.0626,2.695 -4.0231,4.64144 -6.268,6.22312 -1.8186,1.28135 -2.369,1.88235 -3.1548,3.44449 -0.6873,1.36653 -1.8722,4.92419 -1.698,5.09822 0.1243,0.1242 1.0038,0.20072 3.2415,0.28206 0.4494,0.0164 2.0672,-0.0424 3.5952,-0.13042 z m -9.1942,-0.36639 c 0.1457,-0.11235 0.7011,-1.45444 1.2341,-2.98242 0.5331,-1.52798 1.0198,-2.89552 1.0815,-3.03897 0.097,-0.22448 -0.099,-0.27478 -1.4072,-0.36098 -4.1896,-0.27618 -7.9236,-1.57328 -16.309,-5.66546 -7.0676,-3.44911 -10.6598,-4.76219 -15.8518,-5.79441 -4.0239,-0.8 -6.0054,-0.98582 -10.4588,-0.98078 -6.0711,0.007 -17.972,0.34411 -19.7739,0.56033 -6.5016,0.78016 -12.1313,2.24686 -19.9441,5.19605 -5.4716,2.06544 -8.2548,2.7785 -11.1459,2.8556 -0.7859,0.021 -1.4285,0.0749 -1.4277,0.11983 0,0.17596 2.4343,1.65018 3.6384,2.2059 6.2544,2.88677 14.4448,3.70933 23.5681,2.36696 1.1685,-0.17193 4.1468,-0.64229 6.6186,-1.04527 6.5101,-1.06138 8.4244,-1.26078 13.0377,-1.35814 7.0444,-0.14867 12.6216,0.57915 20.9537,2.73443 9.3117,2.40868 11.8342,3.01996 15.4588,3.74611 3.4073,0.68261 6.8465,1.22531 9.7079,1.53191 0.3146,0.0337 0.6131,0.0731 0.6633,0.0874 0.05,0.0144 0.2106,-0.0658 0.3563,-0.17813 z m 4.0961,-8.78063 c 2.3637,-0.89743 5.2442,-3.42681 7.9134,-6.94858 2.4322,-3.20928 4.4455,-4.97371 7.3168,-6.41245 3.0097,-1.5081 5.6597,-2.20079 11.7489,-3.07097 3.5142,-0.50222 4.8555,-0.77484 6.32284,-1.28511 2.987,-1.03875 5.054,-2.86794 6.0464,-5.35063 1.83792,-4.59773 -2.0325,-12.22934 -8.78204,-17.31631 -11.3563,-8.55901 -28.4755,-10.45432 -44.9152,-4.9727 -4.7663,1.58925 -7.7212,2.89394 -15.6884,6.927 -2.9661,1.50145 -6.1538,3.08928 -7.0837,3.52852 -0.9299,0.43924 -1.7297,0.90002 -1.7773,1.02396 -0.047,0.12394 0.1458,0.72935 0.4298,1.34537 2.1621,4.69064 0.501,9.35136 -4.5411,12.74167 -3.3484,2.25141 -8.679,4.43194 -12.2528,5.01208 -3.9015,0.63334 -6.9451,0.17729 -14.2409,-2.13384 -5.2445,-1.66134 -8.8807,-2.50308 -12.7468,-2.95082 -1.7134,-0.19842 -2.0888,-0.29253 -2.3287,-0.58378 -0.3519,-0.42724 -0.3577,-0.62623 -0.032,-1.09175 0.3149,-0.44968 1.26,-0.47873 3.9654,-0.12191 3.8166,0.50339 6.0266,1.05408 13.7564,3.42793 4.6604,1.43123 5.6992,1.62735 8.6612,1.63521 2.8968,0.008 3.931,-0.20129 7.2951,-1.47414 4.098,-1.55052 7.4214,-3.48527 9.0986,-5.29685 0.5092,-0.55002 1.1816,-1.53203 1.5257,-2.22846 0.5472,-1.10723 0.6225,-1.41043 0.6798,-2.73799 0.071,-1.64812 -0.2352,-2.85205 -1.032,-4.05603 -0.5201,-0.78591 -0.8208,-0.79726 -3.5389,-0.13353 -2.6102,0.63739 -7.263,1.40507 -10.3533,1.70824 -2.5835,0.25343 -7.5163,0.47032 -16.9937,0.74718 -6.1094,0.17847 -7.7895,0.2984 -11.5211,0.82239 -7.7769,1.09204 -14.0229,3.57333 -17.7344,7.04522 -2.9239,2.73522 -4.501,6.85065 -4.0284,10.512 0.4501,3.48723 2.3262,6.90907 4.239,7.73195 1.1585,0.49838 3.1545,0.70659 4.888,0.5099 2.6936,-0.30561 4.2072,-0.74609 9.7757,-2.84487 8.0613,-3.03828 12.73,-4.26486 19.3991,-5.09658 1.6658,-0.20775 3.3544,-0.26392 7.2386,-0.24081 3.7255,0.0222 5.8661,-0.0445 8.0893,-0.25186 3.746,-0.34941 8.3465,-0.34267 11.1727,0.0164 1.432,0.18194 2.1663,0.21432 2.3022,0.10155 0.1098,-0.0911 0.2921,-0.479 0.4054,-0.86207 0.3249,-1.09987 1.252,-2.75133 2.0684,-3.68451 1.5777,-1.80358 4.2865,-3.29708 7.5586,-4.16742 1.8655,-0.49621 1.9817,-0.50665 5.6633,-0.50864 4.2311,-0.002 4.9352,0.12274 5.2176,0.92653 0.1314,0.37402 0.099,0.51306 -0.186,0.79803 -0.3386,0.3386 -0.3858,0.34117 -2.5108,0.13694 -7.4153,-0.71268 -13.3687,1.59487 -15.4686,5.99569 -0.8688,1.82047 -0.8859,1.79895 1.9986,2.51303 5.0353,1.24652 8.0319,2.41416 14.8713,5.79462 6.7029,3.31304 10.1342,4.62822 13.4004,5.1363 1.5367,0.23903 3.614,0.1 4.7071,-0.31507 z m 1.6663,-19.22611 c -5.9256,-0.64359 -10.6315,-3.2021 -12.282,-6.67755 -0.8042,-1.69362 -0.9421,-3.50935 -0.4015,-5.28907 1.293,-4.25694 6.5436,-8.04189 12.5897,-9.07542 1.9509,-0.33349 5.2545,-0.33909 7.1297,-0.0121 4.3627,0.76079 8.1439,2.98014 10.1039,5.93043 2.4624,3.70659 1.6857,8.00077 -2.004,11.07958 -3.001,2.50412 -7.2579,3.92889 -12.1125,4.05402 -1.3033,0.0336 -2.6638,0.0292 -3.0233,-0.01 z m 4.9026,-2.02752 c 4.3331,-0.49054 8.5264,-2.4966 10.4155,-4.98271 0.9746,-1.28265 1.3139,-2.36232 1.2313,-3.91794 -0.1493,-2.81173 -1.9481,-5.05954 -5.4368,-6.79395 -2.4642,-1.22503 -4.3312,-1.65139 -7.354,-1.67931 -2.7682,-0.0256 -4.2136,0.18367 -6.2916,0.91081 -3.8263,1.33885 -6.8359,3.72289 -8.0126,6.34694 -0.3267,0.72844 -0.3987,1.15387 -0.3996,2.35946 -6e-4,1.27811 0.056,1.57782 0.4324,2.28788 0.6129,1.15562 1.4834,2.11053 2.64,2.89594 3.099,2.10448 8.0699,3.10558 12.7754,2.57288 z"
       id="path2" /></g></svg>
