<?xml version="1.0" encoding="UTF-8" standalone="no"?>
<!-- Created with Inkscape (http://www.inkscape.org/) -->

<svg
   width="210mm"
   height="297mm"
   viewBox="0 0 210 297"
   version="1.1"
   id="svg1"
   xml:space="preserve"
   inkscape:version="1.4 (86a8ad7, 2024-10-11)"
   sodipodi:docname="ai-snackplate.svg"
   xmlns:inkscape="http://www.inkscape.org/namespaces/inkscape"
   xmlns:sodipodi="http://sodipodi.sourceforge.net/DTD/sodipodi-0.dtd"
   xmlns="http://www.w3.org/2000/svg"
   xmlns:svg="http://www.w3.org/2000/svg"><sodipodi:namedview
     id="namedview1"
     pagecolor="#505050"
     bordercolor="#eeeeee"
     borderopacity="1"
     inkscape:showpageshadow="0"
     inkscape:pageopacity="0"
     inkscape:pagecheckerboard="0"
     inkscape:deskcolor="#d1d1d1"
     inkscape:document-units="mm"
     inkscape:zoom="0.71891835"
     inkscape:cx="396.42889"
     inkscape:cy="561.25984"
     inkscape:window-width="1920"
     inkscape:window-height="1009"
     inkscape:window-x="1912"
     inkscape:window-y="-8"
     inkscape:window-maximized="1"
     inkscape:current-layer="layer1" /><defs
     id="defs1" /><g
     inkscape:label="Layer 1"
     inkscape:groupmode="layer"
     id="layer1"><path
       style="fill:#000000"
       d="m 106.23021,211.77237 c -28.257786,-1.07023 -55.682247,-6.74117 -77.522919,-16.0305 -32.9440156,-14.01183 -54.197751,-35.17346 -59.51592,-59.258 -1.623354,-7.35174 -2.375668,-14.46414 -2.374482,-22.44845 0.0014,-9.29091 1.073466,-14.991485 4.40369,-23.415628 C -19.970044,68.33557 2.9730989,49.360914 33.072916,39.466085 53.320836,32.809908 75.839733,29.171189 103.45057,28.094103 l 4.62869,-0.180563 0.29011,-2.778125 c 0.15956,-1.527968 0.38328,-3.194843 0.49714,-3.704166 0.36022,-1.611289 1.41002,-3.359313 2.60609,-4.339405 1.78124,-1.459589 12.17364,-6.276595 17.77636,-8.2395558 2.95721,-1.0360833 6.3901,-1.1899405 9.22108,-0.4132746 2.41621,0.6628798 8.36111,2.8919244 13.55919,5.0840374 7.66177,3.231085 8.23118,4.06274 9.10978,13.305255 0.15076,1.585934 0.32839,2.971355 0.39474,3.078713 0.0663,0.107358 0.56848,0.03539 1.11584,-0.159924 1.44341,-0.515055 3.82408,-0.458149 5.50177,0.131513 1.37566,0.483503 6.63077,3.37657 12.88793,7.095113 1.71301,1.018022 3.90447,2.046872 5.51535,2.589363 7.65141,2.576736 18.10388,7.294315 24.56324,11.086276 17.16327,10.075695 29.40253,22.408418 36.51657,36.795431 4.61278,9.328608 6.4352,17.352929 6.42964,28.310419 -0.005,10.48651 -1.67949,21.78401 -4.39739,29.674 -5.59262,16.23521 -18.07559,30.19629 -37.33766,41.7588 -4.42409,2.65567 -12.35222,6.68739 -17.19883,8.74619 -19.8952,8.45133 -44.13217,13.96084 -67.99792,15.4572 -4.68539,0.29377 -17.1878,0.52164 -20.90208,0.38097 z m 17.59479,-3.54952 c 20.81618,-1.07079 42.12468,-5.18541 60.1113,-11.60736 25.69806,-9.17524 45.47646,-22.98894 56.10979,-39.18841 2.06025,-3.13871 4.80295,-8.55263 6.03171,-11.90625 0.88116,-2.40491 2.70051,-9.27863 2.50709,-9.47205 -0.064,-0.064 -0.59142,0.91209 -1.17212,2.16901 -3.73248,8.07895 -11.78423,18.11064 -19.55907,24.36867 -1.26801,1.02064 -1.70916,1.56373 -1.93065,2.37682 -0.74028,2.7175 -2.59742,5.09696 -4.7129,6.03839 -0.75509,0.33603 -2.00391,0.58377 -3.32577,0.65978 -2.04218,0.11742 -2.21877,0.18213 -5.01784,1.83903 -17.20856,10.18649 -38.49477,17.61416 -62.31862,21.74563 -24.18555,4.19418 -51.726904,4.19809 -76.755353,0.0109 -48.544121,-8.12131 -85.564237,-29.15954 -99.615676,-56.61076 -0.677515,-1.32361 -1.280857,-2.35755 -1.340759,-2.29765 -0.144027,0.14403 0.830664,3.76924 1.683582,6.26183 7.659545,22.38441 32.4770625,42.56191 66.755285,54.27435 18.687321,6.38522 40.993589,10.46767 62.441671,11.42794 4.43418,0.19853 15.45987,0.14925 20.10833,-0.0899 z m -1.5875,-12.43332 c 25.29542,-1.10337 49.39344,-6.18119 70.37917,-14.82996 4.31856,-1.77979 15.53685,-7.283 17.96555,-8.81313 l 1.42909,-0.90035 -1.42909,-0.18197 c -14.61829,-1.86128 -35.51325,-5.37061 -64.66451,-10.86046 -19.77128,-3.72339 -19.1555,-3.5746 -20.42144,-4.93425 -0.89393,-0.96011 -1.08213,-1.73548 -1.28483,-5.29346 -0.29582,-5.19257 0.071,-5.73212 5.89742,-8.67545 1.78263,-0.90052 3.24114,-1.7481 3.24114,-1.88349 0,-0.1354 -0.33196,-0.24618 -0.73769,-0.24618 -0.40572,0 -1.26893,-0.26789 -1.91823,-0.59531 -1.68442,-0.8494 -2.28094,-2.18596 -2.62742,-5.88698 -0.4707,-5.02785 -0.37246,-7.36175 0.37166,-8.83022 0.6599,-1.30225 4.19211,-4.79864 14.62007,-14.47183 2.64748,-2.45586 4.77895,-4.49985 4.73659,-4.5422 -0.0423,-0.0424 -0.60541,0.21831 -1.25123,0.57927 -1.74562,0.97565 -4.31339,1.55907 -6.05883,1.37664 -3.36217,-0.35142 -19.15377,-6.819697 -22.05844,-9.035194 -1.68979,-1.288868 -2.28021,-2.984164 -2.59759,-7.458618 -0.15292,-2.155961 -0.2981,-3.946277 -0.3226,-3.978478 -0.0245,-0.0322 -1.10963,0.400112 -2.41137,0.960697 -2.91128,1.253725 -5.07236,1.723873 -6.92376,1.506279 -2.71225,-0.318773 -4.26214,-1.131141 -13.527877,-7.090603 -2.670621,-1.717668 -4.891091,-3.123033 -4.934378,-3.123033 -0.04329,0 -0.275286,0.883603 -0.515554,1.963562 l -0.436852,1.963563 1.054807,2.097907 1.054807,2.097906 2.332048,0.456562 c 7.261706,1.421675 13.831999,4.899457 19.017629,10.066394 4.86638,4.848846 7.70563,10.086636 9.14944,16.878736 0.75191,3.53718 0.83184,10.48534 0.16207,14.08885 -1.61405,8.68411 -6.35069,15.71338 -12.90022,19.14422 -2.96083,1.55098 -5.20846,2.15291 -9.094266,2.43552 -8.864244,0.6447 -11.311503,2.33829 -16.984181,11.75366 -2.525314,4.19145 -7.267674,8.12958 -12.066487,10.02021 -6.739187,2.65508 -15.395712,2.79665 -22.973813,0.3757 -7.837214,-2.50373 -14.999329,-8.11095 -18.249643,-14.28765 -0.635096,-1.2069 -0.698947,-1.24942 -2.116666,-1.40948 -2.623288,-0.29616 -6.763497,-1.39661 -9.18959,-2.44256 C 9.9265325,151.18644 4.8062963,146.28824 2.8543063,141.2542 l -0.588708,-1.51823 -2.25727896,-0.56581 c -2.73924054,-0.68661 -6.10492014,-2.22758 -8.30129394,-3.80072 -3.3819624,-2.42231 -6.6819324,-6.50724 -8.2295544,-10.1871 -0.389844,-0.92696 -0.975021,-2.11758 -1.300392,-2.64584 -1.076848,-1.7483 -1.978135,-4.10604 -2.432319,-6.36288 -0.595118,-2.95713 -0.403587,-8.22962 0.409265,-11.26633 0.751085,-2.80595 2.747765,-6.951813 4.806334,-9.979767 2.077081,-3.055183 6.4363079,-7.431832 9.7563248,-9.795315 2.3313608,-1.659671 8.2460824,-4.856266 10.7319324,-5.800044 L 6.5316085,78.920995 6.7104472,76.996761 C 7.1371423,72.40569 10.016819,66.61686 13.993379,62.356347 19.89123,56.037351 30.605532,50.730823 41.671874,48.647873 c 3.709394,-0.698197 11.929892,-0.966022 15.666067,-0.510404 4.574131,0.557806 9.955845,2.152034 13.742845,4.071052 2.118339,1.073444 6.066344,3.808115 7.75567,5.372133 1.79979,1.666288 1.731652,1.730852 1.99027,-1.885863 0.455866,-6.375196 1.423269,-9.807555 3.266051,-11.587991 1.201879,-1.161215 5.317331,-3.480902 11.554098,-6.512502 6.990945,-3.398192 7.545885,-3.595341 10.120315,-3.595341 H 107.95 v -1.298689 -1.298689 l -5.91674,0.177349 C 78.294153,32.290488 52.974136,36.386299 34.792708,42.455881 20.223786,47.319485 7.8023887,53.85375 -2.513543,62.080804 -6.3637492,65.15138 -12.4759,71.157045 -15.267438,74.6125 c -7.08274,8.767243 -11.849057,18.738486 -13.573557,28.39618 -2.865038,16.04505 0.929347,30.68079 11.60453,44.76111 2.523007,3.32779 10.1075468,10.94606 13.8995958,13.96141 28.9327702,23.00668 77.4243822,36.15859 125.5743692,34.05833 z m -10.0884,-11.90594 c -2.74984,-0.47091 -5.49601,-2.38482 -6.44662,-4.49289 -0.57974,-1.28565 -0.27386,-2.27279 0.78675,-2.53899 0.80196,-0.20128 1.26724,0.13502 2.00643,1.45024 1.27434,2.26737 4.62846,3.28441 7.74871,2.34956 1.06851,-0.32013 2.7345,-1.7658 3.7019,-3.21234 0.62671,-0.93712 1.70585,-0.87273 2.2691,0.13539 0.35263,0.63114 0.34266,0.80876 -0.10056,1.79166 -0.52279,1.15934 -2.22915,2.89406 -3.48507,3.54298 -1.67037,0.86307 -4.57794,1.30023 -6.48064,0.97439 z m -23.350837,-5.4148 c -1.550894,-0.55277 -3.024105,-2.13804 -3.496265,-3.76221 -0.80505,-2.76928 0.409069,-5.4925 3.042895,-6.82509 1.447241,-0.73224 4.190697,-0.47006 5.624243,0.53747 2.87059,2.01753 3.320296,5.92479 0.974782,8.46938 -1.639778,1.77894 -3.933647,2.36885 -6.145655,1.58045 z m 46.122177,-0.33806 c -3.37372,-1.71077 -4.22439,-5.90334 -1.76592,-8.70338 1.30367,-1.48481 2.62235,-2.01819 4.69939,-1.90082 3.02318,0.17082 5.02402,2.07273 5.23397,4.97516 0.146,2.01851 -0.30321,3.28626 -1.636,4.61706 -1.85596,1.85319 -4.16654,2.21119 -6.53144,1.01198 z m -71.047792,-8.50449 c 4.467695,-1.18988 7.999698,-3.1384 10.843244,-5.98195 1.647933,-1.64793 2.755923,-3.22956 5.08687,-7.26141 2.758193,-4.77084 6.795809,-7.85996 11.893548,-9.09954 2.058783,-0.50063 2.38197,-0.65791 2.593883,-1.26233 0.332657,-0.94881 0.01883,-1.99858 -0.747583,-2.50076 -0.585033,-0.38332 -0.783075,-0.38328 -2.281032,4.8e-4 -3.713309,0.9513 -7.131842,3.63121 -10.309519,8.082 -3.418499,4.78809 -8.027225,8.57381 -12.914731,10.60849 -7.653803,3.18628 -17.723355,3.43067 -26.630037,0.64631 -2.878852,-0.89997 -7.16872,-2.82453 -8.655096,-3.88292 -2.514451,-1.79045 0.857724,2.32515 3.853056,4.70249 3.811876,3.02542 9.26733,5.37513 14.723915,6.34171 3.011537,0.53346 9.87273,0.31873 12.543482,-0.39257 z m 155.810302,-1.44412 c 1.30929,-0.54706 2.47937,-2.07332 3.07982,-4.01735 0.51763,-1.6759 1.67685,-7.81127 1.5078,-7.98032 -0.0455,-0.0455 -0.47713,0.0548 -0.95924,0.2229 -0.78451,0.27349 -3.4778,0.23983 -10.42266,-0.13026 -0.68693,-0.0366 -0.79727,0.0778 -1.11496,1.15603 -0.3713,1.26019 -1.21448,2.37521 -1.79613,2.37521 -0.19006,0 -0.55081,-0.22679 -0.80167,-0.50398 -0.43275,-0.4782 -0.42808,-0.55892 0.0913,-1.57696 0.71408,-1.39972 0.73328,-3.66416 0.0425,-5.0072 -1.58888,-3.08895 -5.64671,-4.39682 -8.88777,-2.86461 -3.08682,1.45929 -4.33044,4.41937 -3.04584,7.24971 0.511,1.12588 0.51093,1.13691 -0.0119,1.65971 -0.42665,0.42665 -0.62959,0.47101 -1.07189,0.2343 -0.68308,-0.36557 -1.54544,-2.2235 -1.55313,-3.34616 -0.007,-0.97183 -0.0924,-0.99921 -3.97456,-1.26922 -1.23693,-0.086 -7.46061,-0.62714 -13.83039,-1.20246 -6.36979,-0.57532 -11.63671,-1.04604 -11.70426,-1.04604 -0.0676,0 -0.29695,0.41672 -0.50976,0.92604 -0.29161,0.69791 -0.54522,0.92604 -1.02949,0.92604 -1.03474,0 -1.30112,-0.54463 -0.93532,-1.91231 0.28308,-1.0584 0.25472,-1.30493 -0.27623,-2.40173 -0.84319,-1.7418 -2.05823,-2.43283 -4.27763,-2.43283 -1.44014,0 -1.92199,0.12102 -2.80292,0.70399 -1.21152,0.80175 -1.94026,2.11561 -1.94026,3.49814 0,0.78377 -0.11151,0.97515 -0.64642,1.1094 -0.85195,0.21383 -1.15211,-0.003 -1.41616,-1.02508 -0.20683,-0.80022 -0.30544,-0.85777 -1.79013,-1.04467 -9.55115,-1.20236 -21.96617,-2.53186 -22.12836,-2.36967 -0.37742,0.37742 0.0998,4.59976 0.57344,5.07338 0.45661,0.45661 3.24476,1.03048 21.96805,4.52161 28.89082,5.38697 45.71738,8.15668 64.69063,10.64833 1.836,0.24111 4.17608,0.15927 4.97357,-0.17394 z M 60.589583,161.01468 c 4.281328,-0.75299 8.31359,-2.45505 11.583545,-4.88952 2.468268,-1.83762 3.512734,-2.95746 6.367318,-6.82681 4.116582,-5.57999 7.719281,-8.02083 13.796501,-9.3472 3.088003,-0.67397 4.888492,-1.36334 6.788094,-2.59903 4.562479,-2.96788 6.900869,-7.04893 7.166199,-12.50677 0.1646,-3.3856 -0.30702,-5.87097 -1.62963,-8.58788 -5.00503,-10.28142 -19.83185,-16.14558 -37.015036,-14.63984 -21.836759,1.91352 -40.017874,14.57639 -43.851303,30.54175 -0.70726,2.94557 -0.700296,7.76666 0.01532,10.60715 2.410324,9.56726 12.986854,17.15727 25.931074,18.60886 2.853914,0.32004 7.938663,0.15097 10.847917,-0.36071 z m -11.489635,-7.79312 c -1.078859,-0.42267 -1.044689,-2.01937 0.05214,-2.43639 1.486496,-0.56516 2.613251,1.35858 1.324457,2.26129 -0.651689,0.45646 -0.656786,0.45711 -1.376597,0.1751 z m 17.76173,-8.7617 c -0.757447,-1.08141 0.01659,-2.20517 1.423001,-2.06593 1.083057,0.10722 1.500521,0.73113 1.153467,1.72388 -0.348171,0.99594 -1.967851,1.21097 -2.576468,0.34205 z m -32.942095,-4.54819 c -0.436527,-0.43653 -0.399262,-1.66652 0.06209,-2.04941 0.208775,-0.17327 0.772172,-0.27714 1.251994,-0.23083 1.793895,0.17313 1.516915,2.59774 -0.296759,2.59774 -0.384905,0 -0.842701,-0.14288 -1.017326,-0.3175 z m 40.119942,-9.83956 c -0.912902,-0.45264 -0.962375,-1.5978 -0.09362,-2.16703 1.227323,-0.80418 2.690809,0.43037 2.012548,1.69771 -0.352802,0.65922 -1.14512,0.853 -1.918928,0.46932 z m -26.722312,-1.34148 c -0.668231,-1.4666 1.420587,-2.72149 2.515738,-1.51136 0.914813,1.01086 0.219192,2.16198 -1.306481,2.16198 -0.712857,0 -0.977753,-0.14252 -1.209257,-0.65062 z m 44.931086,-6.44782 c -0.240835,-0.26612 -0.437882,-0.66438 -0.437882,-0.88503 0,-0.59051 0.871686,-1.27695 1.621563,-1.27695 0.841955,0 1.288854,0.45871 1.288854,1.32292 0,0.37835 -0.142875,0.83079 -0.3175,1.00542 -0.474462,0.47446 -1.657769,0.38312 -2.155035,-0.16636 z M 64.45895,113.10449 c -0.571135,-0.57114 -0.542022,-1.0735 0.09938,-1.71491 1.132305,-1.1323 2.997619,-0.18514 2.490835,1.26479 -0.201878,0.57758 -0.439879,0.73541 -1.205975,0.79974 -0.616139,0.0517 -1.106801,-0.0722 -1.384243,-0.34962 z m 167.41764,42.57812 c 8.21398,-8.18417 13.8265,-17.2772 16.59492,-26.88593 1.55084,-5.38274 2.08891,-9.19676 2.08891,-14.80692 0,-21.852942 -12.80678,-42.04979 -36.43898,-57.465843 -4.44622,-2.90041 -9.87474,-5.911209 -14.62087,-8.109106 -3.96612,-1.836681 -9.7677,-4.229395 -10.25494,-4.229395 -0.1914,0 -0.18869,0.34714 0.009,1.124479 0.17811,0.701112 0.29204,4.909879 0.30261,11.178646 l 0.0169,10.054167 -0.68715,1.389062 c -0.37793,0.763985 -0.65315,1.389063 -0.61159,1.389063 0.0416,0 1.00561,-0.696852 2.14235,-1.548559 5.23884,-3.925212 6.43253,-4.449851 9.55409,-4.199127 6.52372,0.523986 17.29969,7.437293 23.59976,15.140394 3.21729,3.933772 6.22851,9.263415 7.66936,13.57418 0.78807,2.357789 1.35712,5.913759 1.17266,7.327904 -0.85699,6.569885 -1.25918,9.114765 -1.59833,10.113735 l -0.40741,1.2 1.29653,1.13418 c 2.49012,2.17829 3.83515,5.79844 3.82917,10.30625 -0.007,5.35692 -1.60946,9.61865 -4.82968,12.84527 l -1.83913,1.84279 -0.005,3.63618 c -0.006,4.14878 -0.93325,13.91722 -1.76302,18.5725 l -0.1628,0.9134 1.0467,-0.82901 c 0.57568,-0.45595 2.32904,-2.10669 3.89635,-3.66831 z m -8.46931,-1.78122 c 1.45176,-0.95123 2.12175,-5.77635 2.11888,-15.25972 -0.002,-7.10762 -0.43574,-11.8238 -1.59099,-17.30548 -1.31436,-6.23667 -3.65056,-11.97246 -5.55886,-13.64797 -0.79019,-0.6938 -1.10926,-0.79655 -2.4734,-0.79655 -1.86196,0 -7.20338,1.49567 -14.68728,4.11265 -3.1422,1.09877 -5.67458,1.82296 -6.75398,1.93147 -1.43272,0.14402 -1.95966,0.3445 -3.09336,1.17694 -0.75156,0.55184 -4.37978,2.43753 -8.0627,4.19041 -7.30584,3.47722 -53.31967,26.5138 -54.10216,27.08597 -0.26554,0.19418 -0.42346,0.40948 -0.35093,0.47847 0.17308,0.16461 20.75119,2.56519 21.98187,2.56433 0.78401,-5.4e-4 1.09189,-0.17984 1.78071,-1.03698 1.97228,-2.45423 5.88951,-3.23267 8.88714,-1.76607 1.52293,0.7451 2.88083,2.18475 3.36165,3.56403 0.23494,0.67395 0.45246,0.82403 1.38196,0.95354 1.09219,0.15217 27.74928,2.51815 28.37158,2.51815 0.17773,0 0.39497,-0.28619 0.48277,-0.63599 0.31035,-1.23652 2.1489,-3.18923 3.89291,-4.13462 1.59438,-0.86427 1.84031,-0.91793 4.20691,-0.91793 2.16998,0 2.71916,0.0964 4.01784,0.70516 1.86557,0.87451 3.76932,2.82015 4.33345,4.4288 0.74595,2.12712 0.43783,1.98422 4.90494,2.27485 4.45693,0.28997 5.92666,0.18775 6.95105,-0.48346 z m -47.19649,-13.63913 c -3.6516,-1.19734 -5.39672,-4.50731 -3.99888,-7.58466 2.10975,-4.6446 10.12705,-4.63891 12.2384,0.009 1.20041,2.64238 0.0183,5.61663 -2.81385,7.07979 -1.1508,0.59453 -4.2589,0.87878 -5.42567,0.4962 z m 4.90599,-2.84176 c 1.57547,-1.03229 1.9176,-3.2448 0.70285,-4.5452 -1.71878,-1.83996 -5.27032,-1.77207 -6.94275,0.13272 -0.59317,0.67558 -0.78104,1.15032 -0.78104,1.97359 0,2.68845 4.33945,4.19586 7.02094,2.43889 z m 24.70338,-3.57005 c -3.20766,-0.47581 -5.27071,-2.66493 -5.26164,-5.58314 0.0141,-4.54721 5.65269,-7.19019 10.14778,-4.75662 6.04383,3.27205 2.20673,11.3919 -4.88614,10.33976 z m 2.53325,-2.38306 c 0.58589,-0.16266 1.49482,-0.73461 2.05052,-1.29032 1.30503,-1.30502 1.36382,-2.4776 0.19118,-3.81317 -1.00262,-1.14192 -2.30363,-1.59324 -4.01019,-1.39112 -2.39645,0.28382 -3.65863,1.51826 -3.64109,3.56102 0.0119,1.37946 0.75392,2.20292 2.56877,2.85053 1.23302,0.43999 1.52446,0.44851 2.84081,0.0831 z m -183.217994,21.3301 c 0,-0.0724 -0.446485,-0.74959 -0.992188,-1.50481 -0.545703,-0.75522 -1.468437,-2.31888 -2.050521,-3.47481 l -1.058333,-2.10169 -1.984375,-0.49657 c -4.920021,-1.23118 -10.1629944,-4.6478 -13.08347,-8.52591 -0.7202313,-0.9564 -1.3400986,-1.70833 -1.3774828,-1.67094 -0.037384,0.0374 0.1051593,0.8967 0.3167632,1.90958 0.5140018,2.46038 2.1046235,5.70214 3.7934361,7.73118 3.1443005,3.77776 8.7417725,6.89368 14.1452945,7.87421 2.344341,0.4254 2.290876,0.41934 2.290876,0.25976 z m 75.406254,-6.62371 c 8.15736,-1.88572 14.10333,-9.02807 15.75903,-18.92987 0.66057,-3.95048 0.42568,-10.53742 -0.50193,-14.07563 -2.86631,-10.93304 -11.90465,-19.535731 -23.686893,-22.545167 -0.925603,-0.236419 -1.739483,-0.373285 -1.808622,-0.304146 -0.06914,0.06914 0.01933,1.024772 0.196593,2.12363 0.27702,1.717241 0.241976,6.054364 -0.06409,7.931683 -0.0647,0.39687 0.387906,0.68632 2.3007,1.47132 11.588291,4.75578 18.326521,14.68462 16.801751,24.75753 -1.03857,6.861 -5.02868,12.10585 -11.275729,14.82155 -1.090876,0.47422 -2.037921,0.91673 -2.104544,0.98336 -0.06662,0.0666 0.07047,0.5797 0.304654,1.14018 0.277323,0.66373 0.369699,1.36981 0.26493,2.025 l -0.160857,1.00595 1.127606,-0.004 c 0.620183,-0.002 1.901512,-0.18282 2.8474,-0.40148 z m -80.459511,-5.3493 c -1.590123,-9.66048 4.099407,-21.7428 14.006244,-29.74374 9.799632,-7.91435 24.547547,-12.918544 38.076701,-12.920002 1.63711,-1.77e-4 2.975298,-0.08962 2.973753,-0.198759 -0.0045,-0.320491 -3.736098,-2.355142 -6.126078,-3.340273 -17.263514,-7.115886 -39.063684,-3.723937 -50.624238,7.876764 -1.309688,1.31424 -2.8575,2.70112 -3.439584,3.08195 -1.792443,1.17273 -4.122599,3.46181 -5.7389306,5.63777 -8.4595068,11.38849 -4.6865884,24.82008 8.4951826,30.24285 0.812395,0.33421 1.726097,0.61048 2.030448,0.61393 0.513264,0.006 0.538375,-0.0848 0.346502,-1.25049 z m -1.145553,-22.44234 c -0.847322,-0.84732 -0.122063,-2.49464 1.098306,-2.49464 0.464987,0 1.396337,0.97062 1.396337,1.45521 0,0.56205 -0.962758,1.45521 -1.568601,1.45521 -0.280647,0 -0.697366,-0.1871 -0.926042,-0.41578 z M 36.41517,102.36338 c -0.966385,-1.37971 1.165647,-2.861724 2.305281,-1.60244 0.569132,0.62888 0.554416,1.18075 -0.04597,1.72409 -0.677278,0.61293 -1.786623,0.5532 -2.259308,-0.12165 z M 1.4493201,134.31225 1.264566,132.58704 -0.22761348,132.43498 c -3.19226602,-0.32531 -5.03910022,-0.73501 -7.15007732,-1.58617 l -2.1953072,-0.88515 0.7516024,0.79406 c 0.9401537,0.99326 3.5466488,2.86184 5.1172276,3.6685 1.1690785,0.60046 5.0732569,1.86183 5.2488086,1.69581 0.049189,-0.0465 0.00629,-0.86092 -0.09532,-1.80978 z m 137.6378599,1.68487 c 1.71498,-0.22283 2.86553,-0.72899 11.77396,-5.17975 5.43028,-2.71303 11.44883,-5.76194 13.37456,-6.77536 l 3.50133,-1.84257 -0.39365,-0.97316 c -0.83964,-2.07572 -3.84721,-3.70279 -6.32766,-3.4232 -3.20349,0.36108 -5.65927,3.02163 -5.34668,5.79252 0.22018,1.95183 -0.11091,2.12201 -6.31175,3.24417 -8.18626,1.48147 -10.81728,1.81023 -14.77724,1.84648 l -3.66473,0.0335 0.1886,2.77259 c 0.20378,2.99581 0.42918,3.87336 1.132,4.40733 0.54034,0.41052 4.05665,0.46051 6.85126,0.0974 z m 90.65493,-4.69764 c 1.88558,-2.73152 2.69997,-5.92446 2.49792,-9.79346 -0.20115,-3.85166 -1.55932,-6.7915 -3.63298,-7.86383 -0.65193,-0.33713 -0.86752,-0.33175 -1.82827,0.0456 -0.59906,0.23532 -1.08841,0.55861 -1.08744,0.71844 9.6e-4,0.15983 0.41181,1.91526 0.91299,3.90095 0.95283,3.77509 1.99567,10.39036 1.99567,12.65947 0,0.72873 0.10287,1.32497 0.2286,1.32497 0.12573,0 0.53681,-0.44649 0.91351,-0.99219 z M 1.4149995,125.61094 c -0.1228151,-2.88553 -0.056575,-3.95087 0.3744297,-6.02193 1.2807373,-6.15418 4.6480817,-11.35585 10.2491118,-15.83221 1.018645,-0.8141 2.864114,-2.49903 4.101041,-3.74429 5.206347,-5.241401 13.613892,-9.426621 22.583221,-11.241773 11.436406,-2.314422 23.854926,-0.905214 33.624228,3.815553 2.787448,1.346964 6.781372,3.85083 8.376562,5.251426 0.764959,0.671643 1.43587,0.924017 3.662878,1.377852 1.499513,0.305582 2.801072,0.480917 2.892354,0.389635 0.09128,-0.09128 0.163445,-1.614561 0.160363,-3.385064 -0.0066,-3.7657 -0.576676,-6.168496 -2.263588,-9.539982 -1.51481,-3.027522 -3.180388,-5.267687 -5.923228,-7.966616 -7.103324,-6.9896 -16.885049,-11.209214 -28.010988,-12.083302 -8.601087,-0.675728 -18.057469,1.007733 -24.792424,4.413643 -1.640043,0.82938 -5.741024,3.505179 -5.990323,3.908553 -0.103096,0.166814 0.08338,0.204156 0.498813,0.09989 0.364903,-0.09158 2.030322,-0.286344 3.700931,-0.432797 3.536471,-0.310024 7.527494,-0.01533 10.667108,0.787647 3.116863,0.797159 3.333915,1.123674 1.794772,2.699899 -1.315239,1.346928 -2.751657,1.304957 -2.853939,-0.08339 -0.06757,-0.917096 -1.078346,-1.108148 -5.955906,-1.125749 -6.345177,-0.0229 -9.466733,0.690137 -18.3885421,4.200362 -5.6153106,2.209306 -6.96644,2.828928 -9.79374518,4.491365 -8.43213582,4.958042 -14.24543172,11.959378 -16.69872672,20.111379 -0.612008,2.03363 -0.719761,2.88337 -0.738117,5.82084 -0.01835,2.93596 0.06896,3.71076 0.596313,5.29166 1.014675,3.04182 2.137345,4.88075 4.286097,7.02062 3.2794901,3.26592 7.7967011,5.23518 12.08393103,5.26794 l 1.90658567,0.0146 z M -8.7177174,109.55103 c -0.6828638,-0.68286 -0.6865616,-1.19259 -0.013534,-1.86561 0.636832,-0.63684 1.0160483,-0.66164 1.793212,-0.11729 0.6570065,0.46018 0.754542,1.12725 0.2573089,1.75979 -0.5720883,0.72777 -1.4375385,0.82256 -2.0369868,0.22311 z M 1.0583321,95.25 C 0.76729038,94.958958 0.52916538,94.54224 0.52916538,94.323958 c 0,-0.604313 0.98162502,-1.455208 1.67878462,-1.455208 1.5228845,0 1.958098,2.118145 0.5455599,2.655191 C 1.8215226,95.878282 1.6606112,95.852279 1.0583321,95.25 Z M 54.827621,75.788122 c -0.323421,-0.226533 -0.588038,-0.624799 -0.588038,-0.885035 0,-0.577387 0.806409,-1.348921 1.409896,-1.348921 0.482125,0 1.500521,0.897857 1.500521,1.322917 0,0.379171 -0.996123,1.322917 -1.396337,1.322917 -0.185902,0 -0.602621,-0.185345 -0.926042,-0.411878 z m 83.758329,50.665918 c 2.71758,-0.29762 12.60236,-1.93612 13.94634,-2.31174 0.73014,-0.20406 0.8065,-0.33893 0.95283,-1.68281 0.28604,-2.6269 1.88878,-4.84476 4.47113,-6.1871 1.47654,-0.76753 5.04842,-0.84185 6.90016,-0.14357 1.84861,0.69709 3.39884,2.00715 4.23072,3.57526 0.35319,0.66578 0.7979,1.2105 0.98824,1.2105 0.30407,0 3.53944,-1.51971 15.39755,-7.2325 1.67349,-0.80622 3.7116,-1.89796 4.52913,-2.4261 1.08752,-0.70254 1.97507,-1.03525 3.30729,-1.23975 1.00148,-0.15374 3.07103,-0.72866 4.599,-1.2776 5.62325,-2.02022 14.32572,-4.65096 16.23551,-4.90797 2.23031,-0.30014 2.21166,-0.28803 2.4023,-1.55935 0.35095,-2.340279 2.60541,-4.743609 5.11364,-5.451309 2.26195,-0.63821 5.2923,-0.0079 6.91067,1.437511 l 0.63191,0.564363 -0.15099,-1.533104 c -0.62474,-6.343496 -6.54411,-16.055146 -13.4337,-22.040067 -5.38495,-4.677854 -12.96375,-8.573705 -16.67888,-8.573705 -0.71228,0 -1.29505,0.06535 -1.29505,0.14522 0,0.07987 0.50602,0.862748 1.12448,1.739729 1.08772,1.542382 1.12448,1.661174 1.12448,3.633629 0,1.909318 -0.0589,2.120901 -0.92604,3.323874 -2.62612,3.643379 -8.04657,4.088663 -11.21401,0.92122 -0.71335,-0.713353 -1.35645,-1.297005 -1.42912,-1.297005 -0.23816,0 -3.0185,2.449776 -6.90658,6.085417 -7.96636,7.44915 -11.7578,10.860269 -18.82828,16.939605 -7.66606,6.591442 -14.086,12.409062 -22.18328,20.102062 -2.68044,2.54662 -5.3907,5.11478 -6.0228,5.70703 -2.60465,2.44047 -0.63534,3.22721 6.20335,2.47826 z m 34.11671,-19.04664 c -2.43449,-0.59766 -4.01798,-1.95433 -4.67458,-4.00498 -0.67,-2.09254 0.57174,-4.609908 2.91198,-5.903421 1.23694,-0.683695 1.71103,-0.793709 3.42036,-0.793709 1.69276,0 2.18689,0.112218 3.36245,0.763633 1.94465,1.077592 2.83531,2.448105 2.84651,4.380107 0.007,1.229 -0.14067,1.75204 -0.79382,2.80933 -1.31411,2.12724 -4.52391,3.3748 -7.0729,2.74904 z m 3.33226,-2.46413 c 0.47506,-0.1985 1.18561,-0.74341 1.579,-1.21093 2.8277,-3.36053 -3.21172,-6.652909 -6.48179,-3.53353 -2.68563,2.56187 1.17803,6.30076 4.90279,4.74446 z m 24.38696,-6.750496 c -1.32634,-0.348256 -2.37336,-1.003685 -3.37572,-2.113169 -1.72985,-1.91474 -1.85359,-4.114786 -0.35642,-6.337239 2.61282,-3.878574 9.47733,-3.557408 11.56831,0.54124 0.80201,1.572066 0.61259,3.776076 -0.45507,5.295176 -1.4041,1.997791 -4.948,3.252851 -7.3811,2.613992 z m 4.28668,-2.843971 c 1.75604,-1.311074 2.21935,-2.935166 1.21986,-4.27612 -1.34884,-1.809663 -4.00172,-2.304324 -6.07973,-1.13364 -2.66022,1.498676 -2.51506,4.181525 0.3086,5.703696 1.08343,0.584051 3.59233,0.422018 4.55127,-0.293936 z m 21.32551,15.269487 c 1.37778,-0.59058 1.76603,-1.39253 2.42677,-5.01262 0.57601,-3.15584 0.53752,-3.48955 -0.54885,-4.75873 -1.2624,-1.474827 -2.30006,-1.978419 -4.07449,-1.977401 -2.78297,0.0016 -5.02708,1.889551 -5.02708,4.229261 0,0.84433 0.11627,1.14828 0.48389,1.26495 0.94818,0.30095 2.95547,2.64083 4.01882,4.68472 0.59418,1.14209 1.18349,2.07653 1.30958,2.07653 0.12609,0 0.7612,-0.22802 1.41136,-0.50671 z m -85.11,-7.55483 c 0.18128,-0.47242 -0.64387,-21.660111 -0.86611,-22.239256 -0.19735,-0.514299 -1.09183,-0.978633 -4.1547,-2.156768 -1.33153,-0.512175 -5.50457,-2.188475 -9.27341,-3.725112 -6.28949,-2.56436 -6.87974,-2.756543 -7.18481,-2.33934 -0.18857,0.257881 -0.41497,1.77648 -0.52328,3.509904 -0.25345,4.056383 0.0136,16.105686 0.38383,17.318513 0.56552,1.852529 1.62269,2.522649 9.01733,5.715912 5.19682,2.244167 10.7131,4.290797 11.58382,4.297797 0.52458,0.004 0.92723,-0.14684 1.01733,-0.38165 z m -9.75689,-11.538823 c -1.25545,-0.731231 -1.62665,-2.978652 -0.6444,-3.901433 0.84448,-0.793349 1.85623,-0.726189 2.88318,0.191386 0.69841,0.62403 0.85806,0.964688 0.85806,1.83095 0,1.345244 -0.69222,2.167862 -1.81492,2.156831 -0.45039,-0.0044 -1.02725,-0.129405 -1.28192,-0.277734 z m 15.19138,10.363773 c 2.23465,-1.49609 11.59343,-8.956108 13.49857,-10.759897 1.57534,-1.491535 1.96242,-2.212067 2.19231,-4.080872 0.19749,-1.60548 -0.23457,-11.870074 -0.67203,-15.965782 -0.31507,-2.949799 -0.59047,-3.877693 -1.15091,-3.877693 -0.31423,0 -14.98129,10.777685 -17.32578,12.731377 -0.63304,0.52752 -0.635,0.545725 -0.46102,4.284093 0.0961,2.064877 0.24094,6.909478 0.32187,10.765781 0.0809,3.856302 0.20135,7.279353 0.26761,7.606773 0.19126,0.94503 1.17827,0.73639 3.32938,-0.70378 z m 7.2862,-14.377473 c -1.70874,-1.273159 0.61844,-5.64914 2.40722,-4.526495 1.09932,0.689933 1.05963,2.940971 -0.0734,4.163545 -0.69303,0.747785 -1.62317,0.892439 -2.33381,0.36295 z m 19.68517,-5.093097 c 3.43505,-3.219855 7.14537,-6.620692 8.24515,-7.557416 1.09978,-0.936723 1.96446,-1.738737 1.92151,-1.782252 -0.0429,-0.04352 -1.43155,0.79661 -3.08578,1.866946 -8.13859,5.265921 -9.83635,6.07742 -12.90175,6.166799 l -2.22114,0.06476 0.05,2.208014 c 0.0464,2.05146 -0.25928,5.019793 -0.67701,6.573639 -0.21373,0.795035 -0.35034,0.913859 8.66906,-7.540493 z m -67.38682,-1.127503 c 0.0995,-1.999321 0.35595,-6.883041 0.56991,-10.85271 0.26866,-4.984206 0.30522,-7.374198 0.11816,-7.723717 -0.14898,-0.278375 -1.31218,-1.151464 -2.58488,-1.940197 -2.28322,-1.414981 -15.080011,-9.715372 -17.125948,-11.108415 -1.235527,-0.841249 -1.614436,-0.888286 -1.959641,-0.243263 -0.361767,0.675968 -0.764026,4.000321 -1.095189,9.050881 l -0.286252,4.365625 1.211941,2.116667 c 1.414006,2.469576 2.488196,5.650106 2.709817,8.023398 l 0.156642,1.677434 3.068561,2.054094 c 4.756459,3.183973 11.560699,7.40222 13.062489,8.09801 0.90737,0.420388 1.45935,0.544039 1.66536,0.373063 0.18919,-0.157009 0.37798,-1.659135 0.48903,-3.89087 z M 91.401516,63.908901 C 90.961248,63.468633 90.752084,62.96343 90.752084,62.3403 c 0,-2.149044 2.199253,-2.354991 3.06337,-0.286868 0.831977,1.991202 -0.926532,3.342876 -2.413938,1.855469 z m 20.462054,20.487757 c 3.94562,-1.648622 3.75862,-1.434962 3.76354,-4.300154 0.007,-4.129643 0.46909,-8.489799 1.06969,-10.095047 0.82317,-2.200116 3.18592,-4.397602 10.65291,-9.907804 2.05707,-1.518002 2.53715,-1.991781 2.30351,-2.2733 -0.16234,-0.195601 -1.22312,-0.7297 -2.3573,-1.186888 l -2.06214,-0.831251 -6.32679,2.692069 c -3.47973,1.480639 -6.97889,2.962505 -7.77592,3.293037 -0.79702,0.330532 -1.60261,0.832116 -1.79019,1.114632 -0.23414,0.352637 -0.50346,3.450666 -0.8591,9.882419 -0.28492,5.152815 -0.58897,9.991758 -0.67566,10.753208 -0.0867,0.76145 -0.0828,1.505591 0.009,1.653646 0.31142,0.503891 1.49886,0.270853 4.04871,-0.794567 z M 84.398032,75.750002 c 0.0052,-3.122484 -0.338604,-4.716734 -1.605754,-7.446101 C 78.953172,60.034697 69.858795,53.6016 59.333008,51.709497 54.131371,50.774457 46.867186,50.940914 40.994014,52.12973 c -6.280458,1.271257 -13.949361,4.404592 -18.819128,7.689057 -4.805473,3.241101 -9.104415,8.248423 -10.997215,12.809338 -0.61137,1.473166 -1.3065116,4.535396 -1.080796,4.761112 0.08006,0.08006 1.144994,-0.23284 2.366528,-0.695325 1.853527,-0.701764 2.536634,-1.138746 4.128955,-2.641283 2.637449,-2.488734 4.754776,-3.977438 8.069983,-5.674049 11.369285,-5.818414 26.558898,-6.777978 39.435627,-2.491242 7.174679,2.388491 14.811539,7.210224 18.97721,11.981763 1.137453,1.302888 1.317639,1.014244 1.322854,-2.119099 z m 58.845548,1.241076 c 3.47039,-2.43102 15.771,-11.70158 15.771,-11.886081 0,-0.725371 -3.51481,-2.309176 -12.62719,-5.689921 l -4.82199,-1.788986 -1.6603,0.573609 c -0.91317,0.315485 -2.6026,0.643437 -3.75428,0.728782 l -2.09398,0.155173 -4.78519,3.574021 c -2.63186,1.965712 -5.64839,4.276725 -6.70342,5.135585 -1.833,1.492183 -2.34609,2.353562 -1.5875,2.665128 10.6117,4.358425 19.03578,7.587878 19.79989,7.590474 0.68194,0.0023 1.37378,-0.294811 2.46296,-1.057784 z m 22.94775,-9.791024 c -0.0546,-5.745811 -0.19197,-10.625524 -0.30525,-10.843805 -0.18905,-0.364291 -10.99831,-5.55625 -11.56769,-5.55625 -0.2736,0 -6.46005,3.419657 -7.39838,4.089565 -0.3233,0.230818 -0.52102,0.585028 -0.4418,0.791472 0.0789,0.205522 2.90205,1.469428 6.27374,2.80868 6.92084,2.748994 7.94652,3.276486 9.31389,4.790005 1.67137,1.850002 2.0104,3.108351 2.65542,9.856003 0.22144,2.316471 0.46787,4.31736 0.54764,4.44642 0.0798,0.12906 0.34228,0.196446 0.58337,0.149747 0.40126,-0.07772 0.42995,-0.968909 0.33906,-10.531837 z m 4.5296,9.89321 c 3.14716,-1.594783 13.26241,-8.191739 14.55013,-9.489292 0.39831,-0.401341 0.84413,-1.161499 0.99071,-1.689238 0.32341,-1.164309 0.33766,-12.375836 0.0216,-16.994796 -0.23469,-3.429751 -0.54524,-4.479876 -1.7013,-5.752827 -0.57421,-0.632276 -8.93277,-5.718264 -14.45498,-8.79552 -2.93679,-1.636526 -3.10719,-1.695379 -4.8948,-1.690632 -1.10989,0.0029 -2.17016,0.164252 -2.64583,0.402524 l -0.79375,0.397604 0.0996,4.243233 c 0.14623,6.228099 -0.51704,8.076735 -3.74607,10.440786 -0.84658,0.619807 -1.44402,1.213774 -1.32765,1.319928 0.48104,0.438787 9.00917,4.28341 9.79074,4.413825 0.73322,0.122348 1.69945,-0.359138 7.14375,-3.559825 8.0868,-4.754204 7.8318,-4.626595 8.40622,-4.206563 1.02801,0.751696 0.36928,1.3013 -6.46762,5.396206 -3.70617,2.219783 -6.89621,4.193679 -7.08896,4.386435 -0.27954,0.279538 -0.34714,2.446256 -0.334,10.70623 0.009,5.695672 0.0864,10.538104 0.17196,10.760962 0.21871,0.569934 0.70736,0.507993 2.28022,-0.28904 z m 6.5478,-13.992671 c -0.48094,-0.579502 -0.15789,-2.438887 0.5557,-3.198475 0.737,-0.784492 1.95939,-0.848894 2.34751,-0.123679 0.42335,0.791028 0.32412,1.916145 -0.25237,2.861665 -0.42565,0.69811 -0.69316,0.859895 -1.42182,0.859895 -0.49365,0 -1.0467,-0.179733 -1.22902,-0.399406 z m 17.67154,12.688496 c 3.07016,-1.282479 3.67707,-4.103025 1.40662,-6.537071 l -0.98891,-1.060164 -2.62743,1.892626 c -1.44508,1.040944 -3.01502,2.217699 -3.48876,2.61501 l -0.86134,0.722385 0.53608,0.875279 c 1.01905,1.66387 3.9025,2.378029 6.02374,1.491935 z m -79.4934,-18.065944 c 3.61396,-1.567954 6.56928,-2.95271 6.56739,-3.077236 -0.002,-0.124526 -1.76815,-1.019818 -3.925,-1.989539 -7.14698,-3.213281 -8.05255,-3.825992 -9.2391,-6.251206 -0.6358,-1.299536 -0.72212,-1.82564 -0.84075,-5.124254 l -0.1322,-3.676029 -0.76042,-0.314976 c -1.37629,-0.57008 -3.12753,-0.163859 -6.87177,1.593992 -4.917018,2.308449 -12.005275,6.086053 -13.015984,6.936716 l -0.842577,0.709155 0.661458,0.646314 c 0.670838,0.655479 17.017363,11.298539 19.446873,12.661665 0.72761,0.408237 1.56104,0.740893 1.85209,0.739236 0.29104,-0.0017 3.48604,-1.285885 7.09999,-2.853838 z m 19.29088,-2.491375 c 0.0668,-0.181901 0.0498,-5.595084 -0.0378,-12.029296 -0.13479,-9.899966 -0.2203,-11.75901 -0.55616,-12.091698 -0.38873,-0.385065 -20.22124,-8.817532 -21.33623,-9.071824 -0.45647,-0.104106 -0.62241,0.04267 -0.8548,0.756035 -0.46786,1.436239 -0.82722,7.5973 -0.81555,13.982095 0.0116,6.372341 0.17018,7.858537 0.95561,8.958306 0.64774,0.906972 6.40581,3.804313 12.91909,6.500616 7.91295,3.275729 9.4493,3.748954 9.72588,2.995766 z M 120.22066,43.14911 c -0.93551,-0.568917 -1.49636,-1.866881 -1.25208,-2.897661 0.54181,-2.286323 2.86857,-2.093577 3.78046,0.31317 0.39857,1.051938 0.35208,1.629281 -0.18081,2.245577 -0.68969,0.797635 -1.41991,0.903056 -2.34757,0.338914 z m 19.26995,11.779638 c 3.90248,-1.604992 16.48795,-8.806342 17.95588,-10.274279 1.20312,-1.203114 1.39225,-2.401237 1.20177,-7.612803 -0.17188,-4.702612 -0.8231,-12.622155 -1.17278,-14.262249 -0.37327,-1.750737 -0.46567,-1.727469 -8.28851,2.087105 -3.98091,1.941167 -8.3344,4.04454 -9.67443,4.674162 -1.44337,0.678174 -2.56396,1.383057 -2.74931,1.729401 -0.228,0.426018 -0.26659,2.024046 -0.14223,5.890086 0.0939,2.917999 0.1832,8.103422 0.19853,11.523161 0.0169,3.761605 0.13377,6.348353 0.29595,6.548438 0.36442,0.449603 0.62643,0.416175 2.37513,-0.303022 z m 9.91148,-14.988701 c -2.42487,-1.907399 -0.33701,-6.702136 2.59769,-5.965572 2.15589,0.541094 2.01378,4.633659 -0.20794,5.988319 -1.07458,0.655209 -1.53342,0.650842 -2.38975,-0.02275 z m 2.20416,-3.308953 c 0,-0.830528 -0.52688,-1.106094 -0.96618,-0.505322 -0.38364,0.524661 -0.48015,1.762617 -0.1622,2.080568 0.29348,0.293483 1.12838,-0.872053 1.12838,-1.575246 z m -6.08542,-12.304457 c 5.16599,-2.481773 9.55563,-4.672862 9.75475,-4.869087 0.19912,-0.196225 0.2866,-0.478827 0.1944,-0.628006 -0.41732,-0.675235 -10.84767,-5.018017 -16.22811,-6.756734 -5.05352,-1.633072 -6.40446,-1.408638 -15.87383,2.63714 -5.31455,2.270635 -9.0892,4.124814 -9.56555,4.698775 -0.27824,0.335261 -0.25286,0.45741 0.14667,0.705854 1.25375,0.779642 20.68784,8.69271 21.38522,8.707519 0.5087,0.0108 4.1668,-1.60358 10.18645,-4.495461 z"
       id="path1" /></g></svg>
