<?xml version="1.0" encoding="UTF-8" standalone="no"?>
<!-- Created with Inkscape (http://www.inkscape.org/) -->

<svg
   width="238.20517mm"
   height="232.95358mm"
   viewBox="0 0 238.20517 232.95358"
   version="1.1"
   id="svg1"
   xml:space="preserve"
   inkscape:version="1.4 (86a8ad7, 2024-10-11)"
   sodipodi:docname="ai-takeout.svg"
   xmlns:inkscape="http://www.inkscape.org/namespaces/inkscape"
   xmlns:sodipodi="http://sodipodi.sourceforge.net/DTD/sodipodi-0.dtd"
   xmlns="http://www.w3.org/2000/svg"
   xmlns:svg="http://www.w3.org/2000/svg"><sodipodi:namedview
     id="namedview1"
     pagecolor="#505050"
     bordercolor="#eeeeee"
     borderopacity="1"
     inkscape:showpageshadow="0"
     inkscape:pageopacity="0"
     inkscape:pagecheckerboard="0"
     inkscape:deskcolor="#d1d1d1"
     inkscape:document-units="mm"
     inkscape:zoom="0.71891835"
     inkscape:cx="147.44373"
     inkscape:cy="299.75588"
     inkscape:window-width="1920"
     inkscape:window-height="1009"
     inkscape:window-x="1912"
     inkscape:window-y="-8"
     inkscape:window-maximized="1"
     inkscape:current-layer="layer1" /><defs
     id="defs1" /><g
     inkscape:label="Layer 1"
     inkscape:groupmode="layer"
     id="layer1"
     transform="translate(-65.774154,-69.145666)"><path
       style="fill:#000000"
       d="m 149.87145,301.62764 c -4.48721,-1.01444 -5.43277,-1.51203 -16.91833,-8.9032 -19.2648,-12.39724 -21.10458,-13.72262 -22.87214,-16.47712 -0.45101,-0.70286 -1.05048,-1.97767 -1.33214,-2.83293 -0.41916,-1.27277 -8.10223,-41.13304 -12.411867,-64.39356 -0.579675,-3.12869 -1.77178,-9.43901 -2.649123,-14.02291 -2.750475,-14.37059 -5.317018,-28.11784 -5.317018,-28.47971 0,-0.19121 -1.40875,-2.40424 -3.130556,-4.91783 -7.527522,-10.98912 -18.405898,-27.38898 -18.902607,-28.49691 -0.391315,-0.87285 -0.547607,-1.7968 -0.562502,-3.32535 -0.02706,-2.77734 0.468891,-3.70157 3.774675,-7.03425 2.198097,-2.21598 2.747003,-2.62816 3.986199,-2.99332 1.965064,-0.57905 4.464409,-0.53925 6.283319,0.10004 2.236178,0.78595 22.64766,11.34393 24.19482,12.51493 0.73965,0.55982 1.39146,0.9712 1.44848,0.91417 0.057,-0.057 -0.15576,-1.92389 -0.47284,-4.1486 -0.89392,-6.27177 -0.63738,-7.20241 3.94241,-14.30192 2.49663,-3.87025 4.47049,-7.4318 6.81584,-12.29824 2.60417,-5.403477 5.42771,-8.089504 10.04056,-9.551546 1.95174,-0.618605 3.07973,-0.732268 12.98533,-1.308486 5.96635,-0.347068 13.88401,-0.816412 17.59479,-1.042986 8.28781,-0.50604 31.78469,-1.878102 39.17988,-2.287845 4.7218,-0.26162 5.71583,-0.246591 7.47955,0.113081 4.69747,0.957953 8.3316,3.677328 11.85851,8.873591 4.13431,6.091151 7.17057,9.848781 10.93557,13.533681 4.12313,4.03541 4.38753,4.74496 5.27392,14.15322 0.36744,3.89998 0.71096,7.13377 0.76338,7.18619 0.17567,0.17568 14.11701,-30.04741 21.07182,-45.681081 6.16742,-13.8637 6.369,-14.270601 7.63238,-15.405967 2.6853,-2.413201 6.50444,-2.619871 10.04717,-0.543694 2.97337,1.742512 4.17798,3.87251 3.96863,7.017392 -0.12515,1.879964 -0.25308,2.171183 -6.01619,13.694769 -3.23858,6.475677 -9.40128,18.596871 -13.69489,26.935991 -4.29361,8.33912 -7.76335,15.20525 -7.71052,15.25808 0.0528,0.0528 1.06727,-0.63837 2.25432,-1.53599 l 2.15828,-1.63204 8.34167,-12.56771 c 8.18614,-12.33337 14.10879,-21.356392 19.53536,-29.761628 4.27722,-6.625007 5.18046,-7.39537 8.68366,-7.406196 1.64858,-0.0051 2.24135,0.120055 3.50293,0.739563 1.75263,0.860635 3.6109,2.609186 4.32044,4.06533 0.30339,0.622633 0.52821,1.770647 0.58637,2.994183 0.0796,1.673642 -0.002,2.171123 -0.51968,3.176968 -0.59007,1.146084 -3.8144,5.778415 -14.54752,20.90012 -2.73714,3.8563 -4.97787,7.13052 -4.97942,7.27604 -0.002,0.14552 0.5623,0.49521 1.25298,0.77708 2.49485,1.01819 16.41774,7.09974 19.85543,8.6729 2.84303,1.30104 3.71637,1.83502 4.54978,2.78182 1.45871,1.65718 1.94182,3.2957 1.80439,6.11981 -0.14889,3.05986 -0.57977,3.92209 -5.50548,11.01714 -11.60764,16.71979 -19.06859,27.88211 -20.86814,31.22083 -0.39327,0.72964 -1.1065,3.93439 -2.29647,10.31875 -0.94931,5.09323 -2.79049,14.73729 -4.09149,21.43125 -1.30101,6.69396 -3.3856,17.46912 -4.63243,23.94479 -1.24682,6.47568 -2.96927,15.34584 -3.82766,19.71146 -0.85839,4.36563 -2.5226,12.93813 -3.69824,19.05 -2.77253,14.41365 -2.82856,14.66558 -3.59771,16.17731 -1.19514,2.34899 -3.33935,4.20753 -5.69257,4.93415 -1.47979,0.45693 -5.52088,0.73954 -55.54259,3.88434 -11.56891,0.72732 -24.78485,1.56158 -29.36875,1.85391 -9.99994,0.63774 -12.17383,0.63892 -14.96397,0.008 z m 23.82751,-3.83924 c 10.33198,-0.65491 24.55995,-1.54883 31.61771,-1.9865 7.05776,-0.43767 16.34463,-1.02863 20.6375,-1.31325 4.29286,-0.28461 10.90083,-0.7087 14.68437,-0.94242 4.40196,-0.27191 7.34696,-0.57389 8.1782,-0.83859 1.61168,-0.51321 3.35493,-2.19233 3.94733,-3.80211 0.40006,-1.08712 2.15901,-10.00022 11.69205,-59.2472 7.64755,-39.50664 8.71765,-45.20818 8.5217,-45.40412 -0.0718,-0.0718 -0.88855,-0.009 -1.81509,0.14036 -0.92653,0.14897 -3.70867,0.39137 -6.18252,0.53868 -40.58265,2.41654 -47.1423,2.80362 -76.2,4.49657 -20.16225,1.17468 -27.39694,1.58229 -42.20104,2.37765 -2.4011,0.129 -4.96094,0.13857 -5.68855,0.0213 -0.7276,-0.11729 -1.35727,-0.18184 -1.39927,-0.14343 -0.0763,0.0697 1.32745,14.58988 4.06741,42.07407 0.7979,8.00364 2.10616,21.16005 2.90724,29.23646 0.80107,8.0764 1.86024,18.75196 2.35371,23.72346 0.58229,5.86645 1.03421,9.30251 1.28756,9.78959 0.81127,1.55969 2.17323,2.36251 4.14481,2.44318 0.3638,0.0149 9.1149,-0.50877 19.44688,-1.16367 z m 30.39008,-49.10842 c -2.89658,-0.35265 -5.86786,-2.31594 -6.97911,-4.61147 -0.64184,-1.32586 -0.53087,-2.04961 0.40864,-2.66521 0.85868,-0.56263 1.60313,-0.26633 2.36563,0.94156 1.83517,2.9071 5.24546,3.94397 8.70927,2.64799 1.48395,-0.55522 2.77886,-1.75467 3.65884,-3.38915 0.52374,-0.97279 1.00429,-1.22061 1.92085,-0.99057 2.26717,0.56902 0.7781,4.36403 -2.55851,6.52058 -2.14647,1.38733 -4.63364,1.89837 -7.52561,1.54627 z m -29.53985,-5.6396 c -3.49892,-0.94093 -5.44236,-4.82639 -4.32925,-8.65535 1.57923,-5.43235 8.5991,-6.56007 11.46014,-1.84104 2.51475,4.14787 0.39861,9.55411 -4.14466,10.58863 -1.44585,0.32923 -1.4155,0.33016 -2.98623,-0.0922 z m 57.35418,-3.07775 c -5.31684,-2.74117 -4.46046,-11.14681 1.30646,-12.8233 2.96003,-0.8605 5.82417,0.41801 7.1899,3.20945 1.76799,3.61365 0.29287,8.06672 -3.20077,9.66245 -1.47696,0.67461 -3.93663,0.65203 -5.29559,-0.0486 z m -89.138,52.11883 c -3.54672,-6.52442 -10.929,-20.67589 -17.22058,-33.01098 -3.20146,-6.27668 -5.89565,-11.41403 -5.98709,-11.41632 -0.0914,-0.002 -0.28519,0.44233 -0.43056,0.98803 -0.85574,3.21241 -4.52674,16.21865 -5.63918,19.97944 l -1.31191,4.43517 0.53443,1.04758 c 1.23886,2.42835 1.17341,2.38034 18.51292,13.58261 9.59507,6.19895 13.55933,8.6789 13.68019,8.55804 0.0446,-0.0446 -0.91762,-1.91819 -2.13822,-4.16357 z m 3.68452,-0.44448 c -2.55487,-24.98761 -8.81198,-88.65896 -9.58234,-97.50829 l -0.15628,-1.79528 -0.60544,0.56879 c -1.66919,1.56811 -2.4505,3.82755 -6.85472,19.8228 -0.82141,2.98318 -2.07453,7.44802 -2.78472,9.92188 -2.45971,8.56808 -5.81639,20.57533 -5.81639,20.80593 0,0.22184 10.41726,20.57301 17.92646,35.02115 4.5448,8.74446 7.74162,14.68438 7.90304,14.68438 0.0693,0 0.0559,-0.68461 -0.0296,-1.52136 z M 113.47797,258.6961 c 1.36689,-4.83842 3.12618,-11.11886 3.90953,-13.95652 1.59943,-5.79383 2.13628,-7.71406 6.80542,-24.34166 1.81841,-6.47568 4.08401,-14.59907 5.03467,-18.05198 1.8369,-6.67182 2.91102,-9.33248 4.64854,-11.51472 l 1.07683,-1.35243 -4.70409,-2.38291 c -2.58724,-1.3106 -9.40705,-4.77696 -15.15512,-7.70304 -17.070848,-8.68996 -22.73345,-11.49134 -22.897189,-11.3276 -0.08515,0.0851 -0.02242,0.91132 0.139391,1.83593 0.434746,2.48422 4.02706,21.6203 5.828823,31.04987 0.861972,4.51115 2.038705,10.76193 2.614955,13.89063 0.57625,3.1287 2.77126,14.73729 4.8778,25.79687 2.10655,11.05959 4.10341,21.62638 4.43749,23.48177 0.33408,1.8554 0.67272,3.37333 0.75255,3.37319 0.0798,-1.4e-4 1.2635,-3.95897 2.6304,-8.7974 z m 57.57515,-71.49105 c 11.64167,-0.65923 28.19136,-1.61671 36.77709,-2.12775 8.58573,-0.51104 24.7187,-1.46425 35.85104,-2.11825 25.86265,-1.51936 27.07085,-1.61454 28.49531,-2.24464 0.62935,-0.27839 1.22234,-0.70961 1.31776,-0.95826 0.4477,-1.16669 -1.5059,-7.56094 -3.50777,-11.48115 -1.61422,-3.16109 -5.00429,-7.82107 -6.98566,-9.6025 -1.73439,-1.55937 -3.47549,-2.38618 -5.29289,-2.51351 -1.31175,-0.0919 -25.12582,1.18874 -33.30847,1.79122 -4.34431,0.31986 -5.20932,0.75038 -9.31686,4.6371 -1.73277,1.63962 -3.59718,3.19343 -4.14314,3.45293 -2.16961,1.03121 -4.61761,0.75225 -6.29086,-0.71689 -1.03903,-0.91228 -1.48397,-2.08311 -1.69363,-4.45668 l -0.15191,-1.7198 -3.96875,0.0461 c -2.18282,0.0254 -12.2635,0.47268 -22.40151,0.99402 -20.3684,1.04743 -20.14452,1.01893 -23.47332,2.98774 -4.33328,2.5629 -8.90688,8.22162 -11.27764,13.95334 -1.48783,3.5971 -2.53324,8.48922 -2.1448,10.03689 0.0933,0.37169 0.49552,0.86222 0.89386,1.09009 0.97457,0.5575 4.1662,0.44806 30.62215,-1.05004 z m -35.46634,-1.79828 c -0.5297,-1.75069 -3.36833,-8.3509 -6.45769,-15.0151 -10.35226,-22.33127 -10.26417,-22.15923 -12.3478,-24.11334 -0.56435,-0.52925 -4.41936,-3.49957 -8.56671,-6.60069 -8.223252,-6.14884 -8.511362,-6.31937 -22.810207,-13.50137 -6.950984,-3.49133 -8.186344,-3.92406 -10.15044,-3.5556 -1.072501,0.20121 -3.326539,2.14701 -5.17719,4.46923 -0.873887,1.09657 -1.020495,1.4684 -1.020495,2.58819 0,0.71921 0.162567,1.69078 0.361259,2.15905 0.34015,0.80165 11.239853,17.18584 17.974551,27.01895 l 3.06268,4.47172 22.439822,11.32917 c 12.3419,6.23105 22.53713,11.33276 22.65608,11.33714 0.11895,0.004 0.13521,-0.25993 0.0361,-0.58735 z m 2.12121,-7.12585 c 0.5172,-1.84331 2.93165,-6.71457 4.46943,-9.0173 0.96975,-1.45214 0.99854,-1.55516 0.60317,-2.15856 -0.22835,-0.3485 -1.10419,-0.97198 -1.94632,-1.3855 -2.19501,-1.07783 -4.39662,-1.03996 -6.74476,0.11602 -2.94039,1.44755 -2.91872,1.07117 -0.38515,6.68976 1.20974,2.68278 2.42857,5.44289 2.70852,6.13356 0.27995,0.69068 0.5826,1.25623 0.67257,1.25678 0.09,5.4e-4 0.3701,-0.7351 0.62254,-1.63476 z m 144.38257,-11.19654 c 3.11324,-4.65667 8.38192,-12.39106 11.70819,-17.18752 3.32627,-4.79647 6.19846,-9.08272 6.38266,-9.525 0.99604,-2.39166 0.67838,-5.06251 -0.76647,-6.44423 -0.53606,-0.51264 -3.18873,-1.82979 -7.44723,-3.69783 -9.90805,-4.34628 -17.23493,-7.46313 -17.54379,-7.46313 -0.15122,0 -1.81096,2.17289 -3.68831,4.82864 -1.87735,2.65576 -5.18348,7.32896 -7.34695,10.3849 -2.16347,3.05594 -5.40055,7.63984 -7.1935,10.18646 l -3.25991,4.6302 3.52294,0.1323 c 3.40775,0.12796 3.58773,0.16431 5.50434,1.11168 5.235,2.58765 11.36238,11.31786 13.75261,19.59453 0.32611,1.1292 0.62038,2.02217 0.65395,1.98438 0.0336,-0.0378 2.60822,-3.87872 5.72147,-8.53538 z M 146.94447,163.6468 c 1.00128,-0.94433 2.34052,-2.04546 2.97609,-2.44698 0.63557,-0.40152 1.15579,-0.86256 1.15605,-1.02455 7.4e-4,-0.45885 -2.44855,-2.63703 -3.66047,-3.2553 -1.79868,-0.91762 -4.43666,-1.41887 -6.55843,-1.24618 -2.24204,0.18249 -5.56149,1.19688 -7.31206,2.2345 -1.60316,0.95024 -4.69438,3.49924 -4.69098,3.86815 0.001,0.15447 0.29245,0.90345 0.64673,1.6644 l 0.64415,1.38355 1.40379,-0.92898 c 1.95418,-1.29321 3.87993,-1.8329 6.47553,-1.81474 1.86785,0.0131 2.38912,0.12726 3.83897,0.84102 0.92271,0.45425 2.02622,1.18973 2.45224,1.6344 0.42602,0.44467 0.78208,0.8083 0.79123,0.80807 0.009,-2.3e-4 0.83588,-0.77304 1.83716,-1.71736 z m 62.50358,-0.4744 c 0.30773,-0.17675 1.41801,-1.1199 2.46729,-2.0959 1.44822,-1.34707 1.88706,-1.91781 1.82174,-2.36932 -0.0518,-0.35823 -0.91755,-1.29321 -2.17676,-2.35087 -2.40454,-2.01967 -3.06204,-3.11444 -3.72676,-6.20527 -0.58181,-2.70529 -1.39533,-3.98579 -2.97664,-4.68528 -1.7167,-0.75938 -3.1838,-0.52358 -6.00708,0.96547 l -2.2871,1.20627 h -3.10165 c -3.51455,0 -4.50192,0.33002 -5.54078,1.85195 -0.47541,0.69648 -0.59531,1.2394 -0.59531,2.69563 0,1.32185 -0.15065,2.11881 -0.54762,2.89693 -0.3012,0.59039 -0.48556,1.1355 -0.4097,1.21136 0.0759,0.0759 3.6858,-0.0353 8.0221,-0.24712 4.95503,-0.242 8.27737,-0.29705 8.94251,-0.1482 2.05758,0.46049 3.03827,2.05719 3.04123,4.95156 10e-4,1.11111 0.13231,1.57742 0.57677,2.05052 0.62879,0.66932 1.6186,0.77721 2.49776,0.27227 z m -78.38331,-6.8413 c 3.35891,-2.34062 6.92547,-3.46258 11.01651,-3.46555 4.20153,-0.003 7.41094,1.4072 10.54805,4.63494 l 1.41992,1.46094 1.15671,-0.39413 c 0.63618,-0.21677 2.46705,-0.53223 4.06859,-0.70102 l 2.91188,-0.30691 -0.9906,-1.46949 c -2.284,-3.3882 -4.11568,-5.04457 -7.41288,-6.70334 -3.08079,-1.54991 -5.88935,-2.10024 -9.84959,-1.93002 -4.012,0.17245 -6.631,0.81152 -9.96416,2.43136 -2.40999,1.17121 -5.89244,3.59866 -7.31948,5.10206 l -0.74718,0.78717 0.82526,1.63483 0.82526,1.63483 0.98025,-0.81737 c 0.53915,-0.44955 1.6783,-1.30378 2.53146,-1.8983 z m 38.93783,0.81881 c 0.0942,-0.15245 -0.24475,-1.15327 -0.75326,-2.22405 -3.3889,-7.13605 -9.32872,-12.05548 -16.98385,-14.06622 -4.78982,-1.25812 -11.34277,-0.94377 -16.42072,0.78771 -2.44723,0.83445 -5.42108,2.26818 -7.51184,3.62153 -1.67539,1.08448 -5.30165,3.94471 -5.30165,4.1817 0,0.27973 1.6004,3.47859 1.74035,3.47859 0.0844,0 0.82872,-0.58343 1.65398,-1.2965 3.65866,-3.16131 8.77424,-5.64933 13.40671,-6.52051 3.30039,-0.62067 9.00776,-0.42043 11.64167,0.40845 5.72596,1.80192 10.5036,5.74471 13.06501,10.78199 l 0.57178,1.12448 h 2.36026 c 1.35958,0 2.43289,-0.11751 2.53156,-0.27717 z m 4.8905,-0.51658 c 0.10402,-0.21828 0.4372,-1.43491 0.74039,-2.70361 1.22108,-5.10968 3.14405,-8.58207 6.79675,-12.27316 4.92669,-4.97848 10.33701,-7.25086 17.25291,-7.24637 5.57898,0.004 9.94928,1.63645 14.45366,5.40018 l 1.27948,1.0691 1.96166,-1.05051 c 1.07892,-0.57778 1.96166,-1.12845 1.96166,-1.22371 0,-0.0953 -0.97046,-1.08614 -2.15659,-2.20196 -4.84541,-4.55822 -10.69125,-6.81616 -17.68716,-6.83163 -12.37944,-0.0274 -23.24173,7.63214 -27.54495,19.42323 -0.93237,2.55477 -0.91221,2.91783 0.33258,5.98812 0.84274,2.07861 0.92406,2.18271 1.6534,2.11666 0.42189,-0.0382 0.85218,-0.24806 0.95621,-0.46634 z m 6.88295,0.002 c 0.89101,-0.002 0.96596,-0.0772 1.65368,-1.65594 0.53891,-1.23711 0.72101,-2.08685 0.72292,-3.37344 0.004,-2.98526 1.40185,-5.16601 4.09842,-6.39578 1.14099,-0.52034 1.76314,-0.60416 4.52399,-0.6095 l 3.20107,-0.006 2.48747,-1.2704 c 2.22947,-1.13863 2.67218,-1.27137 4.26827,-1.27974 2.25025,-0.0118 4.06768,0.58687 5.35151,1.76281 1.14386,1.04773 1.26709,1.082 1.75906,0.48922 0.19646,-0.23672 0.93486,-0.81942 1.64089,-1.29488 l 1.28369,-0.86449 -0.9448,-0.75563 c -1.7587,-1.40658 -4.23618,-2.7522 -6.36765,-3.45854 -1.87599,-0.62168 -2.55206,-0.70522 -5.82641,-0.71998 -3.17576,-0.0143 -3.98725,0.0718 -5.68855,0.60386 -5.42833,1.69758 -9.99,5.13361 -12.59973,9.49062 -1.86026,3.10577 -3.87739,8.89812 -3.30407,9.48791 0.0886,0.0911 0.75641,0.0952 1.48401,0.009 0.72761,-0.0862 1.74291,-0.1577 2.25623,-0.15897 z m 36.06776,-0.38937 c 1.82512,-1.06959 3.92674,-1.42393 10.98375,-1.85187 3.6904,-0.22379 6.82119,-0.40689 6.9573,-0.40689 0.50245,0 -1.03328,-6.24412 -2.00957,-8.17074 -0.81467,-1.60767 -3.44797,-4.05293 -5.45641,-5.06679 -1.20683,-0.60921 -1.90998,-0.78539 -3.13453,-0.78539 -1.47418,0 -1.90819,0.16849 -6.55598,2.54518 -5.90711,3.02065 -6.74319,3.55386 -7.35555,4.69093 -0.41608,0.77263 -0.43085,1.07053 -0.14038,2.83293 0.31005,1.8812 0.38462,2.02289 1.6631,3.16013 0.73617,0.65484 1.88467,1.74598 2.55222,2.42474 0.66755,0.67877 1.25206,1.24431 1.29891,1.25677 0.0468,0.0125 0.58556,-0.27059 1.19714,-0.629 z m 0.97061,-4.08167 c -1.50589,-1.5059 -1.697,-2.39771 -0.76713,-3.57985 0.43147,-0.54853 0.74876,-0.69314 1.38441,-0.63099 0.73875,0.0722 0.93327,0.29552 1.86757,2.14386 1.02672,2.03116 1.03502,2.07082 0.53383,2.55203 -1.06763,1.02506 -1.59298,0.94065 -3.01868,-0.48505 z m 28.46623,1.13654 c 1.34049,-0.1348 1.36084,-0.15078 2.76746,-2.17211 3.42407,-4.92045 21.17264,-30.02919 27.67932,-39.15767 2.52066,-3.53634 4.58302,-6.59653 4.58302,-6.80043 0,-1.01835 -3.94816,-4.0163 -6.10326,-4.63437 l -0.7964,-0.22841 -9.42231,14.20583 c -15.60815,23.53207 -25.74678,38.91998 -25.74678,39.07715 0,0.14934 4.52341,-0.037 7.03895,-0.28999 z M 241.30207,146.05 c 1.07027,-1.67349 2.63873,-4.08839 3.48548,-5.36644 0.84674,-1.27805 1.53953,-2.38324 1.53953,-2.45597 0,-0.0727 -0.65095,0.35924 -1.44656,0.95993 -1.35146,1.02037 -1.60525,1.40795 -3.8604,5.89555 -1.32762,2.64187 -2.24513,4.62479 -2.03892,4.40651 0.20621,-0.21828 1.2506,-1.76609 2.32087,-3.43958 z m -71.92738,1.58258 c 0.42892,-1.23037 2.29499,-5.00971 2.87753,-5.82781 0.28638,-0.40219 0.5207,-0.85241 0.5207,-1.00048 0,-0.42379 -3.03662,-1.8318 -4.69156,-2.17536 -2.43023,-0.50451 -5.72705,-0.22083 -7.67771,0.66066 -1.7376,0.78519 -1.98,1.06492 -1.15088,1.32807 1.7225,0.5467 6.85277,4.54722 8.35132,6.51226 0.54583,0.71573 1.10486,1.30133 1.2423,1.30133 0.13744,0 0.37517,-0.3594 0.5283,-0.79867 z m -46.20569,-2.01938 1.42534,-1.23055 -0.51696,-0.65722 c -1.03354,-1.31393 -0.41567,-2.70251 1.20252,-2.70251 0.632,0 1.03791,0.19066 1.40825,0.66145 0.28616,0.36381 0.59769,0.66146 0.69228,0.66146 0.0946,0 1.45416,-0.63078 3.02128,-1.40174 1.56712,-0.77096 3.80534,-1.69037 4.97382,-2.04313 l 2.12452,-0.64139 0.9588,-1.84845 c 0.88695,-1.7099 0.92706,-1.88354 0.53513,-2.31661 -0.78578,-0.86827 -3.03734,-1.80284 -4.34342,-1.80284 -2.78557,0 -8.76048,2.29523 -11.99724,4.60869 -1.99327,1.42468 -4.15627,3.70081 -4.63963,4.88232 -0.36218,0.88529 -0.35606,0.90034 0.80746,1.98437 0.64482,0.60078 1.51283,1.53881 1.9289,2.08451 0.41608,0.54571 0.80985,0.99219 0.87506,0.99219 0.0652,0 0.75995,-0.55375 1.54389,-1.23055 z m 118.53722,-9.02205 c 2.43767,-4.76581 5.41127,-10.57011 6.60801,-12.89844 1.19673,-2.32834 4.88474,-9.51035 8.19557,-15.96003 l 6.0197,-11.726687 -0.75902,-0.792787 c -1.6229,-1.695101 -6.88557,-3.623432 -7.67093,-2.810759 -0.17753,0.183705 -1.50939,2.953385 -2.95969,6.154843 -3.47404,7.66877 -11.14724,24.3218 -14.87323,32.27917 -1.63534,3.4925 -3.18867,6.84901 -3.45184,7.45892 l -0.47848,1.10893 1.63757,1.67318 c 0.90067,0.92024 1.93503,2.23693 2.29858,2.92597 0.36356,0.68903 0.73765,1.25279 0.83132,1.25279 0.0937,0 2.16477,-3.8993 4.60244,-8.6651 z m -125.68035,2.4215 c 2.49126,-3.61721 8.31325,-7.32431 14.11764,-8.98928 4.25157,-1.21955 8.14389,-0.70602 10.36001,1.36685 l 0.67123,0.62784 1.77929,-1.96455 c 4.45509,-4.91897 10.823,-8.30282 17.7082,-9.40999 3.04855,-0.49022 8.18888,-0.20893 11.37138,0.62228 4.54389,1.18677 8.94915,3.62324 12.44897,6.8853 l 1.52321,1.41973 2.32001,-0.87143 c 1.276,-0.47928 3.56712,-1.1287 5.09137,-1.44315 2.39263,-0.49358 3.36797,-0.55447 7.13699,-0.4455 3.71652,0.10745 4.71968,0.23089 6.74687,0.8302 5.04327,1.49095 9.45046,4.14337 13.05579,7.85748 l 1.81272,1.86741 1.03241,-0.28665 c 1.31292,-0.36454 3.12691,-0.36628 4.43066,-0.004 0.55935,0.15532 1.07866,0.22073 1.15402,0.14537 0.0754,-0.0754 -0.1206,-2.85224 -0.43547,-6.17085 -1.13628,-11.97599 -1.27262,-13.00636 -1.88975,-14.28119 -0.34567,-0.71405 -2.08455,-2.76926 -4.24147,-5.01306 -4.02085,-4.18281 -6.37012,-7.09285 -9.54604,-11.824676 -2.68007,-3.993059 -4.60399,-5.926613 -7.13023,-7.165942 -3.3792,-1.657779 -3.01303,-1.657359 -29.72806,-0.03405 -5.96635,0.362539 -16.08666,0.960569 -22.48958,1.328957 -24.04924,1.383658 -24.5803,1.423421 -26.36112,1.973786 -2.09509,0.647488 -3.75822,1.688354 -5.3594,3.354157 -0.93853,0.976398 -1.90066,2.625908 -3.9913,6.842778 -1.51507,3.05593 -3.79208,7.16359 -5.06003,9.12812 -4.51157,6.99012 -4.60424,7.18745 -4.59743,9.78959 0.002,0.80036 0.34095,3.69381 0.75302,6.42988 0.60853,4.04062 0.84352,5.0422 1.25148,5.33427 0.27626,0.19778 1.45478,1.08146 2.61895,1.96374 1.16416,0.88228 2.18617,1.60725 2.27112,1.61104 0.085,0.004 0.6135,-0.6596 1.17454,-1.4742 z m 41.1063,-1.01203 c 2.30231,-1.54934 4.04585,-2.0784 7.28997,-2.21207 3.53416,-0.14562 5.13275,0.16907 8.02051,1.57887 l 2.18327,1.06587 1.25631,-1.38886 c 0.69097,-0.76387 1.29072,-1.47505 1.33277,-1.5804 0.12803,-0.32072 -3.41413,-2.5941 -5.10541,-3.27669 -2.0073,-0.81013 -5.24638,-1.48593 -7.06458,-1.47394 -4.8686,0.0321 -10.51513,2.34899 -13.64617,5.59931 l -1.13344,1.17663 2.58865,0.67725 c 1.42376,0.37249 2.66599,0.6913 2.76051,0.70846 0.0945,0.0172 0.77744,-0.37633 1.51761,-0.87443 z m -12.57222,-0.68187 h 2.43543 l 0.98456,-1.31879 c 2.47885,-3.32031 7.76578,-6.46675 12.52717,-7.45536 6.18275,-1.28372 12.80798,0.23393 17.81743,4.08147 l 1.18599,0.91092 1.85672,-1.20918 c 1.02119,-0.66505 1.89706,-1.23364 1.94638,-1.26355 0.13601,-0.0825 -1.96243,-1.93486 -3.49403,-3.08435 -1.81223,-1.36011 -5.05629,-2.905 -7.97273,-3.79679 -2.21077,-0.67602 -2.71273,-0.72815 -7.01145,-0.72815 -4.29065,0 -4.80484,0.0532 -7.01146,0.7247 -6.41159,1.95125 -11.95861,5.92729 -15.31702,10.97907 -1.27716,1.92113 -1.50879,2.59224 -0.80093,2.32061 0.23019,-0.0883 1.51446,-0.1606 2.85394,-0.1606 z M 288.7917,96.309755 c 2.71234,-3.837519 4.42092,-6.504037 4.52584,-7.063304 0.24189,-1.289381 -0.5177,-3.069546 -1.76551,-4.137628 -1.86405,-1.595554 -4.14788,-1.848249 -5.59794,-0.619383 -0.89721,0.76035 -8.90594,13.058252 -8.62605,13.245822 0.0482,0.03228 0.90127,0.451193 1.89578,0.930916 1.03321,0.498397 2.50739,1.530362 3.43958,2.407812 0.89727,0.84457 1.66281,1.50522 1.7012,1.46811 0.0384,-0.0371 2.0306,-2.841673 4.4271,-6.232345 z M 267.76179,85.444117 c 2.17658,-4.366802 3.70071,-7.737731 3.70071,-8.184859 0,-1.014608 -0.43667,-2.11245 -1.1421,-2.871387 -0.76642,-0.824545 -2.79409,-1.838271 -4.09211,-2.045832 -1.32681,-0.212167 -3.20116,0.570144 -3.93359,1.641794 -0.78594,1.14995 -6.76682,14.870235 -6.59989,15.140327 0.08,0.129391 0.73577,0.313573 1.45734,0.409292 1.44612,0.191835 5.20494,1.954144 5.9692,2.798638 0.26711,0.295162 0.58783,0.536659 0.7127,0.536659 0.12487,0 1.89236,-3.341085 3.92774,-7.424632 z"
       id="path1" /></g></svg>
